<?xml version="1.0" encoding="UTF-8" standalone="no"?>
<svg xmlns:xlink="http://www.w3.org/1999/xlink" height="18.4px" width="10.1px" xmlns="http://www.w3.org/2000/svg">
  <g transform="matrix(1.0, 0.0, 0.0, 1.0, 5.05, 13.4)">
    <path d="M-5.05 -0.05 Q-5.05 2.05 -3.6 3.55 -2.1 5.0 0.0 5.0 2.1 5.0 3.55 3.55 5.05 2.05 5.05 -0.05 5.05 -2.15 3.55 -3.6 2.1 -5.1 0.0 -5.1 -2.1 -5.1 -3.6 -3.6 -5.05 -2.15 -5.05 -0.05" fill="#2b2b2b" fill-opacity="0.3019608" fill-rule="evenodd" stroke="none">
      <animate attributeName="fill" dur="2s" repeatCount="indefinite" values="#2b2b2b;#4d4d4e"/>
      <animate attributeName="fill-opacity" dur="2s" repeatCount="indefinite" values="0.3019608;0.0"/>
      <animate attributeName="d" dur="2s" repeatCount="indefinite" values="M-5.05 -0.05 Q-5.05 2.05 -3.6 3.55 -2.1 5.0 0.0 5.0 2.1 5.0 3.55 3.55 5.05 2.05 5.05 -0.05 5.05 -2.15 3.55 -3.6 2.1 -5.1 0.0 -5.1 -2.1 -5.1 -3.6 -3.6 -5.05 -2.15 -5.05 -0.05;M-3.85 -9.4 Q-3.85 -7.75 -3.2 -6.55 -2.55 -5.4 -0.8 -5.6 1.0 -5.85 3.05 -7.55 5.1 -9.3 4.45 -11.3 3.8 -13.3 1.55 -13.35 -0.05 -13.4 -1.65 -13.4 -2.55 -13.45 -3.2 -12.3 -3.85 -11.1 -3.85 -9.4"/>
    </path>
    <path d="M-5.05 -0.05 Q-5.05 -2.15 -3.6 -3.6 -2.1 -5.1 0.0 -5.1 2.1 -5.1 3.55 -3.6 5.05 -2.15 5.05 -0.05 5.05 2.05 3.55 3.55 2.1 5.0 0.0 5.0 -2.1 5.0 -3.6 3.55 -5.05 2.05 -5.05 -0.05" fill="none" stroke="#000000" stroke-linecap="round" stroke-linejoin="round" stroke-opacity="0.0" stroke-width="1.0">
      <animate attributeName="stroke" dur="2s" repeatCount="indefinite" values="#000000;#000001"/>
      <animate attributeName="stroke-width" dur="2s" repeatCount="indefinite" values="0.0;0.0"/>
      <animate attributeName="fill-opacity" dur="2s" repeatCount="indefinite" values="0.0;0.0"/>
      <animate attributeName="d" dur="2s" repeatCount="indefinite" values="M-5.05 -0.05 Q-5.05 -2.15 -3.6 -3.6 -2.1 -5.1 0.0 -5.1 2.1 -5.1 3.55 -3.6 5.05 -2.15 5.05 -0.05 5.05 2.05 3.55 3.55 2.1 5.0 0.0 5.0 -2.1 5.0 -3.6 3.55 -5.05 2.05 -5.05 -0.05;M-3.85 -9.4 Q-3.85 -11.1 -3.2 -12.3 -2.55 -13.45 -1.65 -13.4 -0.05 -13.4 1.55 -13.35 3.8 -13.3 4.45 -11.3 5.1 -9.3 3.05 -7.55 1.0 -5.85 -0.8 -5.6 -2.55 -5.4 -3.2 -6.55 -3.85 -7.75 -3.85 -9.4"/>
    </path>
  </g>
</svg>
