<?xml version="1.0" encoding="UTF-8" standalone="no"?>
<svg xmlns:xlink="http://www.w3.org/1999/xlink" height="3.0px" width="3.3px" xmlns="http://www.w3.org/2000/svg">
  <g transform="matrix(1.0, 0.0, 0.0, 1.0, 1.5, 1.5)">
    <path d="M-1.5 0.0 Q-1.25 0.55 -1.05 1.05 -0.5 1.3 0.0 1.5 0.65 1.5 1.1 1.05 1.5 0.65 1.5 0.0 1.5 -0.65 1.1 -1.05 0.65 -1.5 0.0 -1.5 -0.55 -1.25 -1.05 -1.05 -1.3 -0.5 -1.5 0.0" fill="#2f2f2f" fill-rule="evenodd" stroke="none">
      <animate attributeName="fill" dur="2s" repeatCount="indefinite" values="#2f2f2f;#2f2f30"/>
      <animate attributeName="fill-opacity" dur="2s" repeatCount="indefinite" values="1.0;0.0"/>
      <animate attributeName="d" dur="2s" repeatCount="indefinite" values="M-1.5 0.0 Q-1.25 0.55 -1.05 1.05 -0.5 1.3 0.0 1.5 0.65 1.5 1.1 1.05 1.5 0.65 1.5 0.0 1.5 -0.65 1.1 -1.05 0.65 -1.5 0.0 -1.5 -0.55 -1.25 -1.05 -1.05 -1.3 -0.5 -1.5 0.0;M-1.0 -0.05 Q-1.0 0.55 -0.6 0.95 -0.2 1.35 0.4 1.35 1.0 1.35 1.4 0.95 1.8 0.55 1.8 -0.05 1.8 -0.65 1.4 -1.05 1.0 -1.45 0.4 -1.45 -0.2 -1.45 -0.6 -1.05 -1.0 -0.65 -1.0 -0.05"/>
    </path>
    <path d="M-1.5 0.0 Q-1.3 -0.5 -1.05 -1.05 -0.55 -1.25 0.0 -1.5 0.65 -1.5 1.1 -1.05 1.5 -0.65 1.5 0.0 1.5 0.65 1.1 1.05 0.65 1.5 0.0 1.5 -0.5 1.3 -1.05 1.05 -1.25 0.55 -1.5 0.0" fill="none" stroke="#000000" stroke-linecap="round" stroke-linejoin="round" stroke-opacity="0.0" stroke-width="1.0">
      <animate attributeName="stroke" dur="2s" repeatCount="indefinite" values="#000000;#000001"/>
      <animate attributeName="stroke-width" dur="2s" repeatCount="indefinite" values="0.0;0.0"/>
      <animate attributeName="fill-opacity" dur="2s" repeatCount="indefinite" values="0.0;0.0"/>
      <animate attributeName="d" dur="2s" repeatCount="indefinite" values="M-1.5 0.0 Q-1.3 -0.5 -1.05 -1.05 -0.55 -1.25 0.0 -1.5 0.65 -1.5 1.1 -1.05 1.5 -0.65 1.5 0.0 1.5 0.65 1.1 1.05 0.65 1.5 0.0 1.5 -0.5 1.3 -1.05 1.05 -1.25 0.55 -1.5 0.0;M-1.0 -0.05 Q-1.0 -0.65 -0.6 -1.05 -0.2 -1.45 0.4 -1.45 1.0 -1.45 1.4 -1.05 1.8 -0.65 1.8 -0.05 1.8 0.55 1.4 0.95 1.0 1.35 0.4 1.35 -0.2 1.35 -0.6 0.95 -1.0 0.55 -1.0 -0.05"/>
    </path>
  </g>
</svg>
