<?xml version="1.0" encoding="UTF-8" standalone="no"?>
<svg xmlns:ffdec="https://www.free-decompiler.com/flash" xmlns:xlink="http://www.w3.org/1999/xlink" ffdec:objectType="morphshape" height="75.6px" width="33.4px" xmlns="http://www.w3.org/2000/svg">
  <g transform="matrix(1.0, 0.0, 0.0, 1.0, 6.75, 10.75)">
    <path d="M-6.6 63.65 L-6.55 64.85 9.95 53.85 Q18.2 59.35 26.5 63.65 L10.0 52.7 -6.6 63.65 M-6.75 57.4 L-6.6 61.4 9.95 50.45 26.5 61.4 26.65 57.4 10.1 46.45 -6.75 57.4" fill="#ffffff" fill-rule="evenodd" stroke="none">
      <animate attributeName="fill" dur="2s" repeatCount="indefinite" values="#ffffff;#ffffff"/>
      <animate attributeName="fill-opacity" dur="2s" repeatCount="indefinite" values="1.0;1.0"/>
      <animate attributeName="d" dur="2s" repeatCount="indefinite" values="M-6.6 63.65 L-6.55 64.85 9.95 53.85 Q18.2 59.35 26.5 63.65 L10.0 52.7 -6.6 63.65 M-6.75 57.4 L-6.6 61.4 9.95 50.45 26.5 61.4 26.65 57.4 10.1 46.45 -6.75 57.4;M-6.6 6.45 L-6.55 7.65 9.95 -3.35 Q18.2 2.15 26.5 6.45 L10.0 -4.5 -6.6 6.45 M-6.75 0.2 L-6.6 4.2 9.95 -6.75 26.5 4.2 26.65 0.2 10.1 -10.75 -6.75 0.2"/>
    </path>
    <path d="M-6.75 57.4 L10.1 46.45 26.65 57.4 26.5 61.4 9.95 50.45 -6.6 61.4 -6.75 57.4 M-6.6 63.65 L10.0 52.7 26.5 63.65 Q18.2 59.35 9.95 53.85 L-6.55 64.85 -6.6 63.65 Z" fill="none" stroke="#000000" stroke-linecap="round" stroke-linejoin="round" stroke-opacity="0.0" stroke-width="0.0">
      <animate attributeName="stroke" dur="2s" repeatCount="indefinite" values="#000000;#000001"/>
      <animate attributeName="stroke-width" dur="2s" repeatCount="indefinite" values="0.0;0.0"/>
      <animate attributeName="fill-opacity" dur="2s" repeatCount="indefinite" values="0.0;0.0"/>
      <animate attributeName="d" dur="2s" repeatCount="indefinite" values="M-6.75 57.4 L10.1 46.45 26.65 57.4 26.5 61.4 9.95 50.45 -6.6 61.4 -6.75 57.4 M-6.6 63.65 L10.0 52.7 26.5 63.65 Q18.2 59.35 9.95 53.85 L-6.55 64.85 -6.6 63.65 Z;M-6.75 0.2 L10.1 -10.75 26.65 0.2 26.5 4.2 9.95 -6.75 -6.6 4.2 -6.75 0.2 M-6.6 6.45 L10.0 -4.5 26.5 6.45 Q18.2 2.15 9.95 -3.35 L-6.55 7.65 -6.6 6.45 Z"/>
    </path>
  </g>
</svg>
