<?xml version="1.0" encoding="UTF-8" standalone="no"?>
<svg xmlns:xlink="http://www.w3.org/1999/xlink" height="7.8px" width="11.65px" xmlns="http://www.w3.org/2000/svg">
  <g transform="matrix(1.0, 0.0, 0.0, 1.0, -17.85, 4.3)">
    <path d="M18.35 1.5 L21.0 1.5 22.25 3.0 26.65 2.85 Q26.85 2.2 29.0 1.5 28.0 -2.55 24.65 -3.8 19.1 -3.1 18.35 1.5" fill="#011e3a" fill-opacity="0.5019608" fill-rule="evenodd" stroke="none">
      <animate attributeName="fill" dur="2s" repeatCount="indefinite" values="#011e3a;#8bc5fd"/>
      <animate attributeName="fill-opacity" dur="2s" repeatCount="indefinite" values="0.5019608;0.9019608"/>
      <animate attributeName="d" dur="2s" repeatCount="indefinite" values="M18.35 1.5 L21.0 1.5 22.25 3.0 26.65 2.85 Q26.85 2.2 29.0 1.5 28.0 -2.55 24.65 -3.8 19.1 -3.1 18.35 1.5;M18.35 1.5 L21.0 1.5 22.25 3.0 26.65 2.85 Q26.85 2.2 29.0 1.5 28.0 -2.55 24.65 -3.8 19.1 -3.1 18.35 1.5"/>
    </path>
    <path d="M18.35 1.5 Q19.1 -3.1 24.65 -3.8 28.0 -2.55 29.0 1.5 26.85 2.2 26.65 2.85 L22.25 3.0 21.0 1.5 18.35 1.5 Q19.1 -3.1 24.65 -3.8 28.0 -2.55 29.0 1.5 26.85 2.2 26.65 2.85 L22.25 3.0 21.0 1.5 18.35 1.5" fill="none" stroke="#1789f9" stroke-linecap="round" stroke-linejoin="round" stroke-opacity="0.12156863" stroke-width="1.0">
      <animate attributeName="stroke" dur="2s" repeatCount="indefinite" values="#1789f9;#3899fb"/>
      <animate attributeName="stroke-width" dur="2s" repeatCount="indefinite" values="1.0;1.0"/>
      <animate attributeName="fill-opacity" dur="2s" repeatCount="indefinite" values="0.12156863;0.7019608"/>
      <animate attributeName="d" dur="2s" repeatCount="indefinite" values="M18.35 1.5 Q19.1 -3.1 24.65 -3.8 28.0 -2.55 29.0 1.5 26.85 2.2 26.65 2.85 L22.25 3.0 21.0 1.5 18.35 1.5 Q19.1 -3.1 24.65 -3.8 28.0 -2.55 29.0 1.5 26.85 2.2 26.65 2.85 L22.25 3.0 21.0 1.5 18.35 1.5;M18.35 1.5 Q19.1 -3.1 24.65 -3.8 28.0 -2.55 29.0 1.5 26.85 2.2 26.65 2.85 L22.25 3.0 21.0 1.5 18.35 1.5 Q19.1 -3.1 24.65 -3.8 28.0 -2.55 29.0 1.5 26.85 2.2 26.65 2.85 L22.25 3.0 21.0 1.5 18.35 1.5"/>
    </path>
  </g>
</svg>
