<?xml version="1.0" encoding="UTF-8" standalone="no"?>
<svg xmlns:xlink="http://www.w3.org/1999/xlink" height="9.65px" width="9.65px" xmlns="http://www.w3.org/2000/svg">
  <g transform="matrix(1.0, 0.0, 0.0, 1.0, 4.75, 5.0)">
    <path d="M-4.75 -0.15 Q-4.75 1.8 -3.4 3.25 -2.0 4.65 0.05 4.65 2.05 4.65 3.4 3.25 4.8 1.8 4.9 -0.15 4.8 -2.25 3.4 -3.6 2.05 -5.0 0.05 -5.0 -2.0 -5.0 -3.4 -3.6 -4.75 -2.25 -4.75 -0.15" fill="#ffffff" fill-rule="evenodd" stroke="none">
      <animate attributeName="fill" dur="2s" repeatCount="indefinite" values="#ffffff;#ffffff"/>
      <animate attributeName="fill-opacity" dur="2s" repeatCount="indefinite" values="1.0;1.0"/>
      <animate attributeName="d" dur="2s" repeatCount="indefinite" values="M-4.75 -0.15 Q-4.75 1.8 -3.4 3.25 -2.0 4.65 0.05 4.65 2.05 4.65 3.4 3.25 4.8 1.8 4.9 -0.15 4.8 -2.25 3.4 -3.6 2.05 -5.0 0.05 -5.0 -2.0 -5.0 -3.4 -3.6 -4.75 -2.25 -4.75 -0.15;M-3.2 -0.1 Q-3.2 1.25 -2.2 2.05 -1.3 3.05 -0.05 3.05 1.3 3.05 2.2 2.05 3.1 1.25 3.1 -0.1 3.1 -1.35 2.2 -2.35 1.3 -3.25 -0.05 -3.25 -1.3 -3.25 -2.2 -2.35 -3.2 -1.35 -3.2 -0.1"/>
    </path>
    <path d="M-4.75 -0.15 Q-4.75 -2.25 -3.4 -3.6 -2.0 -5.0 0.05 -5.0 2.05 -5.0 3.4 -3.6 4.8 -2.25 4.9 -0.15 4.8 1.8 3.4 3.25 2.05 4.65 0.05 4.65 -2.0 4.65 -3.4 3.25 -4.75 1.8 -4.75 -0.15" fill="none" stroke="#000000" stroke-linecap="round" stroke-linejoin="round" stroke-opacity="0.0" stroke-width="1.0">
      <animate attributeName="stroke" dur="2s" repeatCount="indefinite" values="#000000;#000001"/>
      <animate attributeName="stroke-width" dur="2s" repeatCount="indefinite" values="0.0;0.0"/>
      <animate attributeName="fill-opacity" dur="2s" repeatCount="indefinite" values="0.0;0.0"/>
      <animate attributeName="d" dur="2s" repeatCount="indefinite" values="M-4.75 -0.15 Q-4.75 -2.25 -3.4 -3.6 -2.0 -5.0 0.05 -5.0 2.05 -5.0 3.4 -3.6 4.8 -2.25 4.9 -0.15 4.8 1.8 3.4 3.25 2.05 4.65 0.05 4.65 -2.0 4.65 -3.4 3.25 -4.75 1.8 -4.75 -0.15;M-3.2 -0.1 Q-3.2 -1.35 -2.2 -2.35 -1.3 -3.25 -0.05 -3.25 1.3 -3.25 2.2 -2.35 3.1 -1.35 3.1 -0.1 3.1 1.25 2.2 2.05 1.3 3.05 -0.05 3.05 -1.3 3.05 -2.2 2.05 -3.2 1.25 -3.2 -0.1"/>
    </path>
  </g>
</svg>
