<?xml version="1.0" encoding="UTF-8" standalone="no"?>
<svg xmlns:xlink="http://www.w3.org/1999/xlink" height="12.25px" width="12.25px" xmlns="http://www.w3.org/2000/svg">
  <g transform="matrix(1.0, 0.0, 0.0, 1.0, 6.15, 6.3)">
    <path d="M-6.15 -0.15 Q-6.15 2.35 -4.35 4.15 -2.6 5.95 0.0 5.95 2.5 5.95 4.3 4.15 6.1 2.35 6.1 -0.15 6.1 -2.75 4.3 -4.5 2.5 -6.3 0.0 -6.3 -2.6 -6.3 -4.35 -4.5 -6.15 -2.75 -6.15 -0.15" fill="#bbd7ff" fill-rule="evenodd" stroke="none">
      <animate attributeName="fill" dur="2s" repeatCount="indefinite" values="#bbd7ff;#abcdff"/>
      <animate attributeName="fill-opacity" dur="2s" repeatCount="indefinite" values="1.0;0.3019608"/>
      <animate attributeName="d" dur="2s" repeatCount="indefinite" values="M-6.15 -0.15 Q-6.15 2.35 -4.35 4.15 -2.6 5.95 0.0 5.95 2.5 5.95 4.3 4.15 6.1 2.35 6.1 -0.15 6.1 -2.75 4.3 -4.5 2.5 -6.3 0.0 -6.3 -2.6 -6.3 -4.35 -4.5 -6.15 -2.75 -6.15 -0.15;M-5.25 -0.1 Q-5.25 2.15 -3.65 3.75 -2.2 5.1 0.05 5.15 2.05 5.1 3.65 3.75 5.25 2.15 5.25 -0.1 5.25 -2.35 3.65 -3.7 2.05 -5.3 0.05 -5.3 -2.2 -5.3 -3.65 -3.7 -5.25 -2.35 -5.25 -0.1"/>
    </path>
    <path d="M-6.15 -0.15 Q-6.15 -2.75 -4.35 -4.5 -2.6 -6.3 0.0 -6.3 2.5 -6.3 4.3 -4.5 6.1 -2.75 6.1 -0.15 6.1 2.35 4.3 4.15 2.5 5.95 0.0 5.95 -2.6 5.95 -4.35 4.15 -6.15 2.35 -6.15 -0.15" fill="none" stroke="#000000" stroke-linecap="round" stroke-linejoin="round" stroke-opacity="0.0" stroke-width="1.0">
      <animate attributeName="stroke" dur="2s" repeatCount="indefinite" values="#000000;#000001"/>
      <animate attributeName="stroke-width" dur="2s" repeatCount="indefinite" values="0.0;0.0"/>
      <animate attributeName="fill-opacity" dur="2s" repeatCount="indefinite" values="0.0;0.0"/>
      <animate attributeName="d" dur="2s" repeatCount="indefinite" values="M-6.15 -0.15 Q-6.15 -2.75 -4.35 -4.5 -2.6 -6.3 0.0 -6.3 2.5 -6.3 4.3 -4.5 6.1 -2.75 6.1 -0.15 6.1 2.35 4.3 4.15 2.5 5.95 0.0 5.95 -2.6 5.95 -4.35 4.15 -6.15 2.35 -6.15 -0.15;M-5.25 -0.1 Q-5.25 -2.35 -3.65 -3.7 -2.2 -5.3 0.05 -5.3 2.05 -5.3 3.65 -3.7 5.25 -2.35 5.25 -0.1 5.25 2.15 3.65 3.75 2.05 5.1 0.05 5.15 -2.2 5.1 -3.65 3.75 -5.25 2.15 -5.25 -0.1"/>
    </path>
  </g>
</svg>
