<?xml version="1.0" encoding="UTF-8" standalone="no"?>
<svg xmlns:xlink="http://www.w3.org/1999/xlink" height="5.85px" width="6.3px" xmlns="http://www.w3.org/2000/svg">
  <g transform="matrix(1.0, 0.0, 0.0, 1.0, 3.2, 2.8)">
    <path d="M-3.2 -0.1 Q-3.2 1.25 -2.2 2.05 -1.3 3.05 -0.05 3.05 1.3 3.05 2.2 2.05 3.1 1.25 3.1 -0.1 3.1 -1.35 2.2 -2.35 1.3 -3.25 -2.2 -2.35 -3.2 -1.35 -3.2 -0.1" fill="#ffffff" fill-rule="evenodd" stroke="none">
      <animate attributeName="fill" dur="2s" repeatCount="indefinite" values="#ffffff;#ffffff"/>
      <animate attributeName="fill-opacity" dur="2s" repeatCount="indefinite" values="1.0;0.0"/>
      <animate attributeName="d" dur="2s" repeatCount="indefinite" values="M-3.2 -0.1 Q-3.2 1.25 -2.2 2.05 -1.3 3.05 -0.05 3.05 1.3 3.05 2.2 2.05 3.1 1.25 3.1 -0.1 3.1 -1.35 2.2 -2.35 1.3 -3.25 -2.2 -2.35 -3.2 -1.35 -3.2 -0.1;M-1.15 -0.1 Q-0.95 0.35 -0.8 0.75 -0.4 0.9 0.0 1.05 0.4 0.9 0.8 0.75 1.0 0.3 1.15 -0.1 0.95 -0.5 0.8 -0.9 0.45 -1.25 -0.8 -0.9 -1.0 -0.5 -1.15 -0.1"/>
    </path>
    <path d="M-3.2 -0.1 Q-3.2 -1.35 -2.2 -2.35 1.3 -3.25 2.2 -2.35 3.1 -1.35 3.1 -0.1 3.1 1.25 2.2 2.05 1.3 3.05 -0.05 3.05 -1.3 3.05 -2.2 2.05 -3.2 1.25 -3.2 -0.1" fill="none" stroke="#000000" stroke-linecap="round" stroke-linejoin="round" stroke-opacity="0.0" stroke-width="1.0">
      <animate attributeName="stroke" dur="2s" repeatCount="indefinite" values="#000000;#000001"/>
      <animate attributeName="stroke-width" dur="2s" repeatCount="indefinite" values="0.0;0.0"/>
      <animate attributeName="fill-opacity" dur="2s" repeatCount="indefinite" values="0.0;0.0"/>
      <animate attributeName="d" dur="2s" repeatCount="indefinite" values="M-3.2 -0.1 Q-3.2 -1.35 -2.2 -2.35 1.3 -3.25 2.2 -2.35 3.1 -1.35 3.1 -0.1 3.1 1.25 2.2 2.05 1.3 3.05 -0.05 3.05 -1.3 3.05 -2.2 2.05 -3.2 1.25 -3.2 -0.1;M-1.15 -0.1 Q-1.0 -0.5 -0.8 -0.9 0.45 -1.25 0.8 -0.9 0.95 -0.5 1.15 -0.1 1.0 0.3 0.8 0.75 0.4 0.9 0.0 1.05 -0.4 0.9 -0.8 0.75 -0.95 0.35 -1.15 -0.1"/>
    </path>
  </g>
</svg>
