<?xml version="1.0" encoding="UTF-8" standalone="no"?>
<svg xmlns:xlink="http://www.w3.org/1999/xlink" height="10.45px" width="10.5px" xmlns="http://www.w3.org/2000/svg">
  <g transform="matrix(1.0, 0.0, 0.0, 1.0, 5.25, 5.3)">
    <path d="M-5.25 -0.1 Q-5.25 2.15 -3.65 3.75 -2.2 5.1 0.05 5.15 2.05 5.1 3.65 3.75 5.25 2.15 5.25 -0.1 5.25 -2.35 3.65 -3.7 2.05 -5.3 0.05 -5.3 -2.2 -5.3 -3.65 -3.7 -5.25 -2.35 -5.25 -0.1" fill="#abcdfe" fill-opacity="0.3019608" fill-rule="evenodd" stroke="none">
      <animate attributeName="fill" dur="2s" repeatCount="indefinite" values="#abcdfe;#4d95ff"/>
      <animate attributeName="fill-opacity" dur="2s" repeatCount="indefinite" values="0.3019608;0.0"/>
      <animate attributeName="d" dur="2s" repeatCount="indefinite" values="M-5.25 -0.1 Q-5.25 2.15 -3.65 3.75 -2.2 5.1 0.05 5.15 2.05 5.1 3.65 3.75 5.25 2.15 5.25 -0.1 5.25 -2.35 3.65 -3.7 2.05 -5.3 0.05 -5.3 -2.2 -5.3 -3.65 -3.7 -5.25 -2.35 -5.25 -0.1;M-1.35 -0.05 Q-1.35 0.5 -0.95 0.9 -0.45 1.1 0.0 1.3 0.5 1.1 0.95 0.9 1.35 0.5 1.35 -0.05 1.35 -0.65 0.95 -1.0 0.5 -1.45 0.0 -1.4 -0.6 -1.45 -0.95 -1.0 -1.35 -0.65 -1.35 -0.05"/>
    </path>
    <path d="M-5.25 -0.1 Q-5.25 -2.35 -3.65 -3.7 -2.2 -5.3 0.05 -5.3 2.05 -5.3 3.65 -3.7 5.25 -2.35 5.25 -0.1 5.25 2.15 3.65 3.75 2.05 5.1 0.05 5.15 -2.2 5.1 -3.65 3.75 -5.25 2.15 -5.25 -0.1" fill="none" stroke="#000000" stroke-linecap="round" stroke-linejoin="round" stroke-opacity="0.0" stroke-width="1.0">
      <animate attributeName="stroke" dur="2s" repeatCount="indefinite" values="#000000;#000001"/>
      <animate attributeName="stroke-width" dur="2s" repeatCount="indefinite" values="0.0;0.0"/>
      <animate attributeName="fill-opacity" dur="2s" repeatCount="indefinite" values="0.0;0.0"/>
      <animate attributeName="d" dur="2s" repeatCount="indefinite" values="M-5.25 -0.1 Q-5.25 -2.35 -3.65 -3.7 -2.2 -5.3 0.05 -5.3 2.05 -5.3 3.65 -3.7 5.25 -2.35 5.25 -0.1 5.25 2.15 3.65 3.75 2.05 5.1 0.05 5.15 -2.2 5.1 -3.65 3.75 -5.25 2.15 -5.25 -0.1;M-1.35 -0.05 Q-1.35 -0.65 -0.95 -1.0 -0.6 -1.45 0.0 -1.4 0.5 -1.45 0.95 -1.0 1.35 -0.65 1.35 -0.05 1.35 0.5 0.95 0.9 0.5 1.1 0.0 1.3 -0.45 1.1 -0.95 0.9 -1.35 0.5 -1.35 -0.05"/>
    </path>
  </g>
</svg>
