<?xml version="1.0" encoding="UTF-8" standalone="no"?>
<svg xmlns:ffdec="https://www.free-decompiler.com/flash" xmlns:xlink="http://www.w3.org/1999/xlink" ffdec:objectType="morphshape" height="9.65px" width="9.65px" xmlns="http://www.w3.org/2000/svg">
  <g transform="matrix(1.0, 0.0, 0.0, 1.0, 4.75, 5.0)">
    <path d="M-1.7 -0.1 Q-1.7 0.6 -1.2 1.1 -0.75 1.55 -0.05 1.55 0.55 1.3 1.1 1.1 1.6 0.6 1.6 -0.1 1.6 -0.8 1.1 -1.25 0.6 -1.75 -0.05 -1.75 -0.75 -1.75 -1.2 -1.25 -1.7 -0.8 -1.7 -0.1" fill="#ffffff" fill-rule="evenodd" stroke="none">
      <animate attributeName="fill" dur="2s" repeatCount="indefinite" values="#ffffff;#ffffff"/>
      <animate attributeName="fill-opacity" dur="2s" repeatCount="indefinite" values="1.0;1.0"/>
      <animate attributeName="d" dur="2s" repeatCount="indefinite" values="M-1.7 -0.1 Q-1.7 0.6 -1.2 1.1 -0.75 1.55 -0.05 1.55 0.55 1.3 1.1 1.1 1.6 0.6 1.6 -0.1 1.6 -0.8 1.1 -1.25 0.6 -1.75 -0.05 -1.75 -0.75 -1.75 -1.2 -1.25 -1.7 -0.8 -1.7 -0.1;M-4.75 -0.15 Q-4.75 1.8 -3.4 3.25 -2.0 4.65 0.05 4.65 2.05 4.65 3.4 3.25 4.8 1.8 4.9 -0.15 4.8 -2.25 3.4 -3.6 2.05 -5.0 0.05 -5.0 -2.0 -5.0 -3.4 -3.6 -4.75 -2.25 -4.75 -0.15"/>
    </path>
    <path d="M-1.7 -0.1 Q-1.7 -0.8 -1.2 -1.25 -0.75 -1.75 -0.05 -1.75 0.6 -1.75 1.1 -1.25 1.6 -0.8 1.6 -0.1 1.6 0.6 1.1 1.1 0.55 1.3 -0.05 1.55 -0.75 1.55 -1.2 1.1 -1.7 0.6 -1.7 -0.1 Z" fill="none" stroke="#000000" stroke-linecap="round" stroke-linejoin="round" stroke-opacity="0.0" stroke-width="0.0">
      <animate attributeName="stroke" dur="2s" repeatCount="indefinite" values="#000000;#000001"/>
      <animate attributeName="stroke-width" dur="2s" repeatCount="indefinite" values="0.0;0.0"/>
      <animate attributeName="fill-opacity" dur="2s" repeatCount="indefinite" values="0.0;0.0"/>
      <animate attributeName="d" dur="2s" repeatCount="indefinite" values="M-1.7 -0.1 Q-1.7 -0.8 -1.2 -1.25 -0.75 -1.75 -0.05 -1.75 0.6 -1.75 1.1 -1.25 1.6 -0.8 1.6 -0.1 1.6 0.6 1.1 1.1 0.55 1.3 -0.05 1.55 -0.75 1.55 -1.2 1.1 -1.7 0.6 -1.7 -0.1 Z;M-4.75 -0.15 Q-4.75 -2.25 -3.4 -3.6 -2.0 -5.0 0.05 -5.0 2.05 -5.0 3.4 -3.6 4.8 -2.25 4.9 -0.15 4.8 1.8 3.4 3.25 2.05 4.65 0.05 4.65 -2.0 4.65 -3.4 3.25 -4.75 1.8 -4.75 -0.15 Z"/>
    </path>
  </g>
</svg>
