<?xml version="1.0" encoding="UTF-8" standalone="no"?>
<svg xmlns:xlink="http://www.w3.org/1999/xlink" height="17.65px" width="16.3px" xmlns="http://www.w3.org/2000/svg">
  <g transform="matrix(1.0, 0.0, 0.0, 1.0, 11.25, 12.65)">
    <path d="M1.75 3.35 L1.75 3.35 Q1.85 3.55 1.9 3.75 L1.9 3.8 2.0 3.85 Q2.2 3.9 2.35 3.95 L2.45 3.95 Q2.6 3.85 2.75 3.8 L2.75 3.8 Q2.85 3.55 2.95 3.35 L2.95 3.35 2.95 3.25 Q2.85 3.1 2.8 2.95 L2.75 2.95 2.75 2.95 Q2.65 2.85 2.55 2.8 2.45 2.75 2.35 2.75 L2.25 2.75 Q2.05 2.8 1.8 3.05 1.7 3.15 1.75 3.35 M-5.05 -0.05 L-5.05 -0.05 -5.05 0.25 Q-4.95 2.15 -3.6 3.55 L-3.1 4.0 Q-1.75 5.0 0.0 5.0 L0.6 4.95 Q2.3 4.8 3.55 3.55 L3.95 3.15 Q5.05 1.75 5.05 -0.05 L5.05 -0.25 5.0 -0.65 Q4.85 -2.35 3.55 -3.6 L3.25 -3.85 Q2.65 -4.25 2.05 -4.65 1.0 -4.9 0.0 -5.1 L-0.55 -5.05 Q-1.85 -4.95 -2.95 -4.15 L-3.6 -3.6 -3.8 -3.4 Q-5.05 -2.0 -5.05 -0.05" fill="#666666" fill-opacity="0.5019608" fill-rule="evenodd" stroke="none">
      <animate attributeName="fill" dur="2s" repeatCount="indefinite" values="#666666;#666667"/>
      <animate attributeName="fill-opacity" dur="2s" repeatCount="indefinite" values="0.5019608;0.0"/>
      <animate attributeName="d" dur="2s" repeatCount="indefinite" values="M1.75 3.35 L1.75 3.35 Q1.85 3.55 1.9 3.75 L1.9 3.8 2.0 3.85 Q2.2 3.9 2.35 3.95 L2.45 3.95 Q2.6 3.85 2.75 3.8 L2.75 3.8 Q2.85 3.55 2.95 3.35 L2.95 3.35 2.95 3.25 Q2.85 3.1 2.8 2.95 L2.75 2.95 2.75 2.95 Q2.65 2.85 2.55 2.8 2.45 2.75 2.35 2.75 L2.25 2.75 Q2.05 2.8 1.8 3.05 1.7 3.15 1.75 3.35 M-5.05 -0.05 L-5.05 -0.05 -5.05 0.25 Q-4.95 2.15 -3.6 3.55 L-3.1 4.0 Q-1.75 5.0 0.0 5.0 L0.6 4.95 Q2.3 4.8 3.55 3.55 L3.95 3.15 Q5.05 1.75 5.05 -0.05 L5.05 -0.25 5.0 -0.65 Q4.85 -2.35 3.55 -3.6 L3.25 -3.85 Q2.65 -4.25 2.05 -4.65 1.0 -4.9 0.0 -5.1 L-0.55 -5.05 Q-1.85 -4.95 -2.95 -4.15 L-3.6 -3.6 -3.8 -3.4 Q-5.05 -2.0 -5.05 -0.05;M-11.25 -7.1 L-11.25 -6.7 Q-11.25 -4.65 -9.95 -3.05 L-9.75 -2.75 -9.55 -2.45 Q-8.05 -1.05 -6.15 -0.8 L-5.3 -0.75 Q-3.05 -0.75 -1.4 -2.15 L-1.1 -2.45 Q0.35 -3.95 0.6 -5.85 L0.65 -6.7 0.65 -7.1 Q0.55 -8.5 -0.1 -9.65 L-0.3 -9.95 -1.1 -10.9 Q-1.7 -11.5 -2.4 -11.9 -3.35 -12.45 -4.45 -12.6 L-5.3 -12.65 Q-6.9 -12.65 -9.55 -10.9 -11.1 -9.3 -11.25 -7.1 M-11.25 -7.1 L-11.25 -7.0 -11.25 -6.7 Q-11.25 -4.6 -10.0 -2.95 L-9.55 -2.45 Q-8.0 -1.0 -5.95 -0.8 L-5.3 -0.75 Q-3.2 -0.75 -1.6 -2.0 L-1.1 -2.45 Q0.5 -4.1 0.65 -6.3 L0.65 -6.7 0.65 -7.1 Q0.5 -9.1 -0.8 -10.6 L-1.1 -10.9 Q-1.7 -11.5 -2.4 -11.9 -3.4 -12.5 -4.6 -12.6 L-5.3 -12.65 Q-6.9 -12.65 -8.25 -11.9 L-9.35 -11.1 -9.55 -10.9 Q-11.1 -9.3 -11.25 -7.1"/>
    </path>
    <path d="M1.75 3.35 L1.75 3.35 Q1.85 3.55 1.9 3.75 L1.9 3.8 2.0 3.85 Q2.2 3.9 2.35 3.95 L2.45 3.95 Q2.6 3.85 2.75 3.8 L2.75 3.8 Q2.85 3.55 2.95 3.35 L2.95 3.35 2.95 3.25 Q2.85 3.1 2.75 2.95 L2.75 2.95 Q2.65 2.85 2.55 2.8 2.45 2.75 2.35 2.75 L2.25 2.75 Q2.05 2.8 1.8 3.05 1.7 3.15 1.75 3.35" fill="#0066ff" fill-opacity="0.0" fill-rule="evenodd" stroke="none">
      <animate attributeName="fill" dur="2s" repeatCount="indefinite" values="#0066ff;#666667"/>
      <animate attributeName="fill-opacity" dur="2s" repeatCount="indefinite" values="0.0;0.0"/>
      <animate attributeName="d" dur="2s" repeatCount="indefinite" values="M1.75 3.35 L1.75 3.35 Q1.85 3.55 1.9 3.75 L1.9 3.8 2.0 3.85 Q2.2 3.9 2.35 3.95 L2.45 3.95 Q2.6 3.85 2.75 3.8 L2.75 3.8 Q2.85 3.55 2.95 3.35 L2.95 3.35 2.95 3.25 Q2.85 3.1 2.75 2.95 L2.75 2.95 Q2.65 2.85 2.55 2.8 2.45 2.75 2.35 2.75 L2.25 2.75 Q2.05 2.8 1.8 3.05 1.7 3.15 1.75 3.35;M-11.25 -7.1 L-11.25 -6.7 Q-11.25 -4.65 -9.95 -3.05 L-9.75 -2.75 -9.55 -2.45 Q-8.05 -1.05 -6.15 -0.8 L-5.3 -0.75 Q-3.05 -0.75 -1.4 -2.15 L-1.1 -2.45 Q0.35 -3.95 0.6 -5.85 L0.65 -6.7 0.65 -7.1 Q0.55 -8.5 -0.3 -9.95 L-1.1 -10.9 Q-1.7 -11.5 -2.4 -11.9 -3.35 -12.45 -4.45 -12.6 L-5.3 -12.65 Q-6.9 -12.65 -9.55 -10.9 -11.1 -9.3 -11.25 -7.1"/>
    </path>
    <path d="M-5.05 -0.05 Q-5.05 -2.0 -3.8 -3.4 L-3.6 -3.6 -2.95 -4.15 Q-1.85 -4.95 -0.55 -5.05 L0.0 -5.1 Q1.0 -4.9 2.05 -4.65 2.65 -4.25 3.25 -3.85 L3.55 -3.6 Q4.85 -2.35 5.0 -0.65 L5.05 -0.25 5.05 -0.05 Q5.05 1.75 3.95 3.15 L3.55 3.55 Q2.3 4.8 0.6 4.95 L0.0 5.0 Q-1.75 5.0 -3.1 4.0 L-3.6 3.55 Q-4.95 2.15 -5.05 0.25 L-5.05 -0.05 -5.05 -0.05 M1.75 3.35 Q1.7 3.15 1.8 3.05 2.05 2.8 2.25 2.75 L2.35 2.75 Q2.45 2.75 2.55 2.8 2.65 2.85 2.75 2.95 L2.75 2.95 2.8 2.95 Q2.85 3.1 2.95 3.25 L2.95 3.35 2.95 3.35 Q2.85 3.55 2.75 3.8 L2.75 3.8 Q2.6 3.85 2.45 3.95 L2.35 3.95 Q2.2 3.9 2.0 3.85 L1.9 3.8 1.9 3.75 Q1.85 3.55 1.75 3.35 L1.75 3.35 Q1.7 3.15 1.8 3.05 2.05 2.8 2.25 2.75 L2.35 2.75 Q2.45 2.75 2.55 2.8 2.65 2.85 2.75 2.95 L2.75 2.95 Q2.85 3.1 2.95 3.25 L2.95 3.35 2.95 3.35 Q2.85 3.55 2.75 3.8 L2.75 3.8 Q2.6 3.85 2.45 3.95 L2.35 3.95 Q2.2 3.9 2.0 3.85 L1.9 3.8 1.9 3.75 Q1.85 3.55 1.75 3.35 L1.75 3.35" fill="none" stroke="#000000" stroke-linecap="round" stroke-linejoin="round" stroke-opacity="0.0" stroke-width="1.0">
      <animate attributeName="stroke" dur="2s" repeatCount="indefinite" values="#000000;#000001"/>
      <animate attributeName="stroke-width" dur="2s" repeatCount="indefinite" values="0.0;0.0"/>
      <animate attributeName="fill-opacity" dur="2s" repeatCount="indefinite" values="0.0;0.0"/>
      <animate attributeName="d" dur="2s" repeatCount="indefinite" values="M-5.05 -0.05 Q-5.05 -2.0 -3.8 -3.4 L-3.6 -3.6 -2.95 -4.15 Q-1.85 -4.95 -0.55 -5.05 L0.0 -5.1 Q1.0 -4.9 2.05 -4.65 2.65 -4.25 3.25 -3.85 L3.55 -3.6 Q4.85 -2.35 5.0 -0.65 L5.05 -0.25 5.05 -0.05 Q5.05 1.75 3.95 3.15 L3.55 3.55 Q2.3 4.8 0.6 4.95 L0.0 5.0 Q-1.75 5.0 -3.1 4.0 L-3.6 3.55 Q-4.95 2.15 -5.05 0.25 L-5.05 -0.05 -5.05 -0.05 M1.75 3.35 Q1.7 3.15 1.8 3.05 2.05 2.8 2.25 2.75 L2.35 2.75 Q2.45 2.75 2.55 2.8 2.65 2.85 2.75 2.95 L2.75 2.95 2.8 2.95 Q2.85 3.1 2.95 3.25 L2.95 3.35 2.95 3.35 Q2.85 3.55 2.75 3.8 L2.75 3.8 Q2.6 3.85 2.45 3.95 L2.35 3.95 Q2.2 3.9 2.0 3.85 L1.9 3.8 1.9 3.75 Q1.85 3.55 1.75 3.35 L1.75 3.35 Q1.7 3.15 1.8 3.05 2.05 2.8 2.25 2.75 L2.35 2.75 Q2.45 2.75 2.55 2.8 2.65 2.85 2.75 2.95 L2.75 2.95 Q2.85 3.1 2.95 3.25 L2.95 3.35 2.95 3.35 Q2.85 3.55 2.75 3.8 L2.75 3.8 Q2.6 3.85 2.45 3.95 L2.35 3.95 Q2.2 3.9 2.0 3.85 L1.9 3.8 1.9 3.75 Q1.85 3.55 1.75 3.35 L1.75 3.35;M-11.25 -7.1 Q-11.1 -9.3 -9.55 -10.9 L-9.35 -11.1 -8.25 -11.9 Q-6.9 -12.65 -5.3 -12.65 L-4.6 -12.6 Q-3.4 -12.5 -2.4 -11.9 -1.7 -11.5 -1.1 -10.9 L-0.8 -10.6 Q0.5 -9.1 0.65 -7.1 L0.65 -6.7 0.65 -6.3 Q0.5 -4.1 -1.1 -2.45 L-1.6 -2.0 Q-3.2 -0.75 -5.3 -0.75 L-5.95 -0.8 Q-8.0 -1.0 -9.55 -2.45 L-10.0 -2.95 Q-11.25 -4.6 -11.25 -6.7 L-11.25 -7.0 -11.25 -7.1 M-11.25 -7.1 Q-11.1 -9.3 -9.55 -10.9 -6.9 -12.65 -5.3 -12.65 L-4.45 -12.6 Q-3.35 -12.45 -2.4 -11.9 -1.7 -11.5 -1.1 -10.9 L-0.3 -9.95 -0.1 -9.65 Q0.55 -8.5 0.65 -7.1 L0.65 -6.7 0.6 -5.85 Q0.35 -3.95 -1.1 -2.45 L-1.4 -2.15 Q-3.05 -0.75 -5.3 -0.75 L-6.15 -0.8 Q-8.05 -1.05 -9.55 -2.45 L-9.75 -2.75 -9.95 -3.05 Q-11.25 -4.65 -11.25 -6.7 L-11.25 -7.1 Q-11.1 -9.3 -9.55 -10.9 -6.9 -12.65 -5.3 -12.65 L-4.45 -12.6 Q-3.35 -12.45 -2.4 -11.9 -1.7 -11.5 -1.1 -10.9 L-0.3 -9.95 Q0.55 -8.5 0.65 -7.1 L0.65 -6.7 0.6 -5.85 Q0.35 -3.95 -1.1 -2.45 L-1.4 -2.15 Q-3.05 -0.75 -5.3 -0.75 L-6.15 -0.8 Q-8.05 -1.05 -9.55 -2.45 L-9.75 -2.75 -9.95 -3.05 Q-11.25 -4.65 -11.25 -6.7 L-11.25 -7.1"/>
    </path>
  </g>
</svg>
