<?xml version="1.0" encoding="UTF-8" standalone="no"?>
<svg xmlns:xlink="http://www.w3.org/1999/xlink" height="19.7px" width="11.5px" xmlns="http://www.w3.org/2000/svg">
  <g transform="matrix(1.0, 0.0, 0.0, 1.0, 5.3, 5.05)">
    <path d="M4.35 -3.3 Q5.15 -2.6 5.5 -0.4 5.85 1.55 5.6 3.0 5.25 5.35 5.45 11.95 5.4 12.9 4.4 13.5 3.5 14.05 2.15 14.15 L-0.35 13.8 Q-1.55 13.35 -2.05 12.5 L-3.4 8.65 Q-4.75 4.45 -4.8 2.55 -4.85 -2.95 -1.7 -4.1 L1.35 -4.55 Q3.0 -4.45 4.35 -3.3 M0.8 10.05 L-0.55 8.75 Q-1.95 7.1 -2.2 5.2 -1.95 7.1 -0.55 8.75 L0.8 10.05 M1.75 1.05 L1.9 0.3 1.75 -2.0 -1.8 -2.1 -1.9 -0.6 -1.75 1.1 -1.9 -0.6 -1.8 -2.1 1.75 -2.0 1.9 0.3 1.75 1.05 M2.3 7.4 L3.1 6.55 Q3.9 5.2 3.85 2.5 3.9 5.2 3.1 6.55 L2.3 7.4" fill="url(#gradient0)" fill-rule="evenodd" stroke="none"/>
    <path d="M4.35 -3.3 Q5.15 -2.6 5.5 -0.4 5.85 1.55 5.6 3.0 5.25 5.35 5.45 11.95 5.4 12.9 4.4 13.5 3.5 14.05 2.15 14.15 L-0.35 13.8 Q-1.55 13.35 -2.05 12.5 L-3.4 8.65 Q-4.75 4.45 -4.8 2.55 -4.85 -2.95 -1.7 -4.1 L1.35 -4.55 Q3.0 -4.45 4.35 -3.3" fill="none" stroke="#191f26" stroke-linecap="round" stroke-linejoin="round" stroke-width="1.05"/>
    <path d="M3.85 2.5 Q3.9 5.2 3.1 6.55 L2.3 7.4 M-1.75 1.1 L-1.9 -0.6 -1.8 -2.1 1.75 -2.0 1.9 0.3 1.75 1.05 M-2.2 5.2 Q-1.95 7.1 -0.55 8.75 L0.8 10.05" fill="none" stroke="#242f3c" stroke-linecap="round" stroke-linejoin="round" stroke-width="1.05"/>
  </g>
  <defs>
    <linearGradient gradientTransform="matrix(0.0034, -5.0E-4, 5.0E-4, 0.0029, -2.3, 4.65)" gradientUnits="userSpaceOnUse" id="gradient0" spreadMethod="pad" x1="-819.2" x2="819.2">
      <stop offset="0.0" stop-color="#212c39"/>
      <stop offset="1.0" stop-color="#333f4d"/>
    </linearGradient>
  </defs>
</svg>
