<?xml version="1.0" encoding="UTF-8" standalone="no"?>
<svg xmlns:ffdec="https://www.free-decompiler.com/flash" xmlns:xlink="http://www.w3.org/1999/xlink" ffdec:objectType="shape" height="24.7px" width="16.0px" xmlns="http://www.w3.org/2000/svg">
  <g transform="matrix(1.0, 0.0, 0.0, 1.0, 0.8, 0.7)">
    <path d="M9.45 11.9 L5.25 11.9 5.25 7.35 6.3 5.35 8.4 5.35 9.45 7.2 9.45 11.9" fill="#65bcf6" fill-rule="evenodd" stroke="none"/>
    <path d="M12.95 7.15 L14.7 7.15 13.45 15.8 11.65 17.2 10.65 17.95 9.55 17.95 9.55 15.6 5.25 15.6 5.25 17.8 4.05 17.8 3.1 17.05 1.7 15.95 -0.3 7.0 1.55 7.0 5.25 11.9 9.45 11.9 12.95 7.15" fill="url(#gradient0)" fill-rule="evenodd" stroke="none"/>
    <path d="M1.55 7.0 L1.55 1.8 5.45 -0.2 5.45 1.65 9.15 1.65 9.15 -0.15 12.95 1.8 12.95 7.15 9.45 11.9 9.45 7.2 8.4 5.35 6.3 5.35 5.25 7.35 5.25 11.9 1.55 7.0" fill="url(#gradient1)" fill-rule="evenodd" stroke="none"/>
    <path d="M11.65 17.2 L11.65 19.1 Q7.4 26.35 3.9 21.7 L3.1 17.05 4.05 17.8 5.25 17.8 5.25 15.6 9.55 15.6 9.55 17.95 10.65 17.95 11.65 17.2" fill="#0f1213" fill-rule="evenodd" stroke="none"/>
    <path d="M12.95 7.15 L14.7 7.15 13.45 15.8 11.65 17.2 11.65 19.1 Q7.4 26.35 3.9 21.7 L3.1 17.05 1.7 15.95 -0.3 7.0 1.55 7.0 1.55 1.8 5.45 -0.2 5.45 1.65 9.15 1.65 9.15 -0.15 12.95 1.8 12.95 7.15 9.45 11.9 5.25 11.9 1.55 7.0 M5.25 11.9 L5.25 7.35 6.3 5.35 8.4 5.35 9.45 7.2 9.45 11.9 M11.65 17.2 L10.65 17.95 9.55 17.95 9.55 15.6 5.25 15.6 5.25 17.8 4.05 17.8 3.1 17.05" fill="none" stroke="#070a0a" stroke-linecap="round" stroke-linejoin="round" stroke-width="1.0"/>
  </g>
  <defs>
    <radialGradient cx="0" cy="0" gradientTransform="matrix(0.0101, 0.0, 0.0, 0.0114, 7.35, 14.25)" gradientUnits="userSpaceOnUse" id="gradient0" r="819.2" spreadMethod="pad">
      <stop offset="0.0" stop-color="#131c2a"/>
      <stop offset="0.6588235294117647" stop-color="#182435"/>
      <stop offset="1.0" stop-color="#324662"/>
    </radialGradient>
    <radialGradient cx="0" cy="0" gradientTransform="matrix(0.0084, 0.0, 0.0, 0.0085, 7.55, 6.55)" gradientUnits="userSpaceOnUse" id="gradient1" r="819.2" spreadMethod="pad">
      <stop offset="0.0" stop-color="#131c2a"/>
      <stop offset="0.6588235294117647" stop-color="#182435"/>
      <stop offset="1.0" stop-color="#324662"/>
    </radialGradient>
  </defs>
</svg>
