<?xml version="1.0" encoding="UTF-8" standalone="no"?>
<svg xmlns:ffdec="https://www.free-decompiler.com/flash" xmlns:xlink="http://www.w3.org/1999/xlink" ffdec:objectType="shape" height="8.4px" width="14.4px" xmlns="http://www.w3.org/2000/svg">
  <g transform="matrix(1.0, 0.0, 0.0, 1.0, 5.4, 2.1)">
    <path d="M1.35 3.55 L-4.4 1.45 -4.5 0.9 Q-3.85 -1.05 -2.1 -1.5 -0.35 -1.95 -0.4 -0.15 L3.15 3.05 3.3 3.7 3.25 5.7 1.35 5.5 1.35 3.55" fill="#0f1213" fill-rule="evenodd" stroke="none"/>
    <path d="M1.6 -1.85 L8.7 3.35 8.7 5.65 3.1 5.8 3.1 3.45 -0.9 -0.5 1.6 -1.85" fill="#10131a" fill-rule="evenodd" stroke="none"/>
    <path d="M-3.55 1.3 L1.25 3.75 1.25 5.85 -4.9 5.75 -5.15 3.65 -3.55 1.3" fill="#1f2c34" fill-rule="evenodd" stroke="none"/>
    <path d="M-4.5 1.5 L1.35 3.65 1.4 5.65 M3.35 5.55 L3.3 3.45 4.95 2.35 3.3 3.4 -0.95 -0.45 M7.15 2.0 L5.4 2.0 4.95 2.35" fill="none" stroke="#0a0a0f" stroke-linecap="round" stroke-linejoin="round" stroke-width="1.0"/>
    <path d="M5.05 0.25 L1.7 -1.6 0.0 -1.0 -1.9 -1.4 -3.15 -1.1 -4.0 -0.4 -4.3 1.0 -4.55 2.95 -4.9 3.75 -4.8 5.75 1.15 5.75 1.55 5.35 2.8 5.35 3.4 5.75 8.5 5.8 8.5 3.4 6.95 1.75 5.05 0.25 Z" fill="none" stroke="#070a0a" stroke-linecap="round" stroke-linejoin="round" stroke-width="1.0"/>
  </g>
</svg>
