<?xml version="1.0" encoding="UTF-8" standalone="no"?>
<svg xmlns:ffdec="https://www.free-decompiler.com/flash" xmlns:xlink="http://www.w3.org/1999/xlink" ffdec:objectType="shape" height="21.5px" width="17.2px" xmlns="http://www.w3.org/2000/svg">
  <g transform="matrix(1.0, 0.0, 0.0, 1.0, 3.5, 2.8)">
    <path d="M8.6 8.9 L11.2 8.85 12.35 11.55 11.55 13.15 13.2 16.0 12.25 17.2 11.35 17.9 11.3 17.9 9.6 18.2 Q8.9 18.1 8.05 17.45 L6.15 15.6 5.65 14.95 5.2 14.4 5.45 14.3 7.3 13.45 Q7.15 12.6 7.35 11.5 7.65 10.0 8.6 8.9 M5.65 14.95 L5.45 14.3 5.65 14.95 M9.75 10.4 L10.4 11.5 9.15 13.9 10.25 15.5 9.15 13.9 10.4 11.5 9.75 10.4" fill="#323232" fill-rule="evenodd" stroke="none"/>
    <path d="M-0.7 5.15 L-2.55 2.5 Q-3.75 -0.3 -1.85 -1.55 -0.95 -2.2 0.25 -2.3 L3.0 -1.0 2.75 1.7 3.65 2.85 5.0 2.9 6.55 4.45 5.1 4.8 1.25 3.15 -0.7 5.15 M-0.4 1.8 L0.2 -0.1 -0.4 1.8" fill="#414141" fill-rule="evenodd" stroke="none"/>
    <path d="M6.55 4.45 L8.4 4.0 9.65 7.95 Q9.05 8.35 8.6 8.9 7.65 10.0 7.35 11.5 7.15 12.6 7.3 13.45 L5.45 14.3 5.2 14.4 3.9 14.95 Q0.9 13.3 -0.6 9.45 L-1.5 5.9 -0.7 5.15 1.25 3.15 5.1 4.8 6.55 4.45" fill="#596470" fill-rule="evenodd" stroke="none"/>
    <path d="M10.25 15.5 L9.15 13.9 10.4 11.5 9.75 10.4" fill="none" stroke="#272727" stroke-linecap="round" stroke-linejoin="round" stroke-width="1.05"/>
    <path d="M0.2 -0.1 L-0.4 1.8" fill="none" stroke="#191919" stroke-linecap="round" stroke-linejoin="round" stroke-width="1.05"/>
    <path d="M6.55 4.45 L8.4 4.0 9.65 7.95 Q9.05 8.35 8.6 8.9 M5.2 14.4 L3.9 14.95 Q0.9 13.3 -0.6 9.45 L-1.5 5.9 -0.7 5.15" fill="none" stroke="#2e343a" stroke-linecap="round" stroke-linejoin="round" stroke-width="1.05"/>
    <path d="M-0.7 5.15 L1.25 3.15 5.1 4.8 6.55 4.45" fill="none" stroke="#2a3035" stroke-linecap="round" stroke-linejoin="round" stroke-width="1.05"/>
    <path d="M-0.7 5.15 L-2.55 2.5 Q-3.75 -0.3 -1.85 -1.55 -0.95 -2.2 0.25 -2.3 L3.0 -1.0 2.75 1.7 3.65 2.85 5.0 2.9 6.55 4.45 M8.6 8.9 L11.2 8.85 12.35 11.55 11.55 13.15 13.2 16.0 Q13.0 17.35 11.35 17.9 L11.3 17.9 9.6 18.2 Q8.9 18.1 8.05 17.45 L6.25 15.9 5.65 14.95 5.45 14.3" fill="none" stroke="#232323" stroke-linecap="round" stroke-linejoin="round" stroke-width="1.05"/>
    <path d="M8.6 8.9 Q7.65 10.0 7.35 11.5 7.15 12.6 7.3 13.45 L5.45 14.3 5.2 14.4" fill="none" stroke="#242a2e" stroke-linecap="round" stroke-linejoin="round" stroke-width="1.05"/>
  </g>
</svg>
