<?xml version="1.0" encoding="UTF-8" standalone="no"?>
<svg xmlns:ffdec="https://www.free-decompiler.com/flash" xmlns:xlink="http://www.w3.org/1999/xlink" ffdec:objectType="shape" height="24.2px" width="15.85px" xmlns="http://www.w3.org/2000/svg">
  <g transform="matrix(1.0, 0.0, 0.0, 1.0, 9.0, 6.95)">
    <path d="M-6.35 -0.5 L-5.0 -5.55 -0.7 -6.45 -1.2 -4.7 2.4 -3.75 2.85 -5.45 6.0 -2.6 4.65 2.6 0.0 6.2 1.2 1.7 0.7 -0.35 -1.3 -0.9 -2.85 0.8 -4.05 5.15 -6.35 -0.5" fill="url(#gradient0)" fill-rule="evenodd" stroke="none"/>
    <path d="M4.65 2.6 L6.35 3.05 2.9 11.05 0.8 11.95 -0.35 12.4 -1.45 12.1 -0.85 9.85 -5.0 8.75 -5.55 10.85 -6.7 10.55 -7.45 9.6 -8.5 8.15 -8.15 -1.0 -6.35 -0.5 -4.05 5.15 0.0 6.2 4.65 2.6" fill="url(#gradient1)" fill-rule="evenodd" stroke="none"/>
    <path d="M-4.05 5.15 L-2.85 0.8 -1.3 -0.9 0.7 -0.35 1.2 1.7 0.0 6.2 -4.05 5.15" fill="url(#gradient2)" fill-rule="evenodd" stroke="none"/>
    <path d="M0.8 11.95 L0.3 13.75 Q-5.6 19.5 -7.9 14.3 L-7.45 9.6 -6.7 10.55 -5.55 10.85 -5.0 8.75 -0.85 9.85 -1.45 12.1 -0.35 12.4 0.8 11.95" fill="#0f1213" fill-rule="evenodd" stroke="none"/>
    <path d="M-6.35 -0.5 L-5.0 -5.55 -0.7 -6.45 -1.2 -4.7 2.4 -3.75 2.85 -5.45 6.0 -2.6 4.65 2.6 6.35 3.05 2.9 11.05 0.8 11.95 0.3 13.75 Q-5.6 19.5 -7.9 14.3 L-7.45 9.6 -8.5 8.15 -8.15 -1.0 -6.35 -0.5 -4.05 5.15 -2.85 0.8 -1.3 -0.9 0.7 -0.35 1.2 1.7 0.0 6.2 4.65 2.6 M0.8 11.95 L-0.35 12.4 -1.45 12.1 -0.85 9.85 -5.0 8.75 -5.55 10.85 -6.7 10.55 -7.45 9.6 M0.0 6.2 L-4.05 5.15" fill="none" stroke="#070a0a" stroke-linecap="round" stroke-linejoin="round" stroke-width="1.0"/>
  </g>
  <defs>
    <radialGradient cx="0" cy="0" gradientTransform="matrix(0.0081, 0.0022, -0.0022, 0.0082, -0.4, 0.55)" gradientUnits="userSpaceOnUse" id="gradient0" r="819.2" spreadMethod="pad">
      <stop offset="0.0" stop-color="#2a1313"/>
      <stop offset="0.6588235294117647" stop-color="#351818"/>
      <stop offset="1.0" stop-color="#623232"/>
    </radialGradient>
    <radialGradient cx="0" cy="0" gradientTransform="matrix(0.0098, 0.0026, -0.0029, 0.011, -2.6, 7.95)" gradientUnits="userSpaceOnUse" id="gradient1" r="819.2" spreadMethod="pad">
      <stop offset="0.0" stop-color="#2a1313"/>
      <stop offset="0.6588235294117647" stop-color="#351818"/>
      <stop offset="1.0" stop-color="#623232"/>
    </radialGradient>
    <radialGradient cx="0" cy="0" gradientTransform="matrix(0.0046, 0.0, 0.0, 0.0046, -1.4, 2.65)" gradientUnits="userSpaceOnUse" id="gradient2" r="819.2" spreadMethod="pad">
      <stop offset="0.0" stop-color="#ff0000"/>
      <stop offset="0.6196078431372549" stop-color="#ff0000"/>
      <stop offset="1.0" stop-color="#ff0000" stop-opacity="0.8"/>
    </radialGradient>
  </defs>
</svg>
