<?xml version="1.0" encoding="UTF-8" standalone="no"?>
<svg xmlns:xlink="http://www.w3.org/1999/xlink" height="28.0px" width="22.35px" xmlns="http://www.w3.org/2000/svg">
  <g transform="matrix(1.0, 0.0, 0.0, 1.0, 13.3, 5.6)">
    <path d="M-3.15 15.7 L-9.85 8.5 -11.65 8.95 -12.75 6.9 -10.2 4.85 -12.8 1.05 -11.8 -3.65 -10.3 -5.1 -9.7 -5.1 -8.5 -4.85 Q-6.6 -4.25 -6.4 -2.45 L-6.4 -1.2 -3.25 -0.6 -3.0 2.55 -0.15 6.25 -0.7 13.1 -3.15 15.7 M-10.1 -1.55 L-8.8 -2.65 -10.1 -1.55 M-4.6 11.95 L-4.1 10.05 -5.95 10.55 -4.6 11.95 M-9.7 6.5 L-8.45 7.95 -7.95 6.15 -9.7 6.5 M-6.55 7.25 L-7.15 9.05 -5.35 8.65 -6.55 7.25" fill="#414141" fill-rule="evenodd" stroke="none"/>
    <path d="M-6.55 7.25 L-5.35 8.65 -7.15 9.05 -6.55 7.25 M-9.7 6.5 L-7.95 6.15 -8.45 7.95 -9.7 6.5 M-4.6 11.95 L-5.95 10.55 -4.1 10.05 -4.6 11.95" fill="#272727" fill-rule="evenodd" stroke="none"/>
    <path d="M-8.8 -2.65 L-10.1 -1.55" fill="none" stroke="#272727" stroke-linecap="round" stroke-linejoin="miter-clip" stroke-miterlimit="4.0" stroke-width="1.05"/>
    <path d="M-3.15 15.7 L-9.85 8.5 -11.65 8.95 -12.75 6.9 -10.2 4.85 -12.8 1.05 -11.8 -3.65 -10.3 -5.1 -9.7 -5.1 -8.5 -4.85 Q-6.6 -4.25 -6.4 -2.45 L-6.4 -1.2 -3.25 -0.6 -3.0 2.55" fill="none" stroke="#232323" stroke-linecap="round" stroke-linejoin="round" stroke-width="1.05"/>
    <path d="M-6.55 7.25 L-5.35 8.65 -7.15 9.05 -6.55 7.25 M-9.7 6.5 L-7.95 6.15 -8.45 7.95 -9.7 6.5 M-4.6 11.95 L-5.95 10.55 -4.1 10.05 -4.6 11.95 Z" fill="none" stroke="#272727" stroke-linecap="round" stroke-linejoin="round" stroke-width="1.05"/>
    <path d="M4.35 21.75 L3.05 21.65 -2.35 21.35 -2.65 20.1 Q-3.05 19.3 -3.7 18.8 L-4.9 18.15 -4.25 16.55 -2.7 12.2 -2.0 10.2 -6.85 5.05 -3.4 2.35 -0.65 3.15 0.7 4.65 3.85 8.35 Q8.35 14.35 8.55 18.0 L5.6 21.8 4.35 21.75 M-2.35 6.8 L0.5 9.9 -0.75 14.45 0.5 9.9 -2.35 6.8 M1.5 14.2 L0.7 16.8 4.4 20.25 0.7 16.8 1.5 14.2" fill="#596470" fill-rule="evenodd" stroke="none"/>
    <path d="M4.4 20.25 L0.7 16.8 1.5 14.2 M-0.75 14.45 L0.5 9.9 -2.35 6.8" fill="none" stroke="#454c56" stroke-linecap="round" stroke-linejoin="round" stroke-width="1.05"/>
    <path d="M4.35 21.75 L5.6 21.8 8.55 18.0 Q8.35 14.35 3.85 8.35 L0.7 4.65 -0.65 3.15 -3.4 2.35 -6.85 5.05 -2.0 10.2 -2.7 12.2 M-4.25 16.55 L-4.9 18.15 -3.7 18.8 Q-3.05 19.3 -2.65 20.1 L-2.35 21.35 3.05 21.65" fill="none" stroke="#3a4048" stroke-linecap="round" stroke-linejoin="round" stroke-width="1.05"/>
    <path d="M3.05 21.65 L4.35 21.75 M-2.7 12.2 L-4.25 16.55" fill="none" stroke="#40c2ff" stroke-linecap="round" stroke-linejoin="round" stroke-width="1.3"/>
  </g>
</svg>
