<?xml version="1.0" encoding="UTF-8" standalone="no"?>
<svg xmlns:ffdec="https://www.free-decompiler.com/flash" xmlns:xlink="http://www.w3.org/1999/xlink" ffdec:objectType="shape" height="23.95px" width="16.9px" xmlns="http://www.w3.org/2000/svg">
  <g transform="matrix(1.0, 0.0, 0.0, 1.0, 4.2, 4.95)">
    <path d="M4.4 18.5 L1.55 16.1 Q0.45 9.1 2.75 2.75 4.15 1.0 6.75 1.8 9.0 2.95 9.55 6.4 8.5 11.75 4.4 18.5" fill="#1e1e1e" fill-rule="evenodd" stroke="none"/>
    <path d="M4.4 18.5 Q8.5 11.75 9.55 6.4 9.0 2.95 6.75 1.8 4.15 1.0 2.75 2.75 0.45 9.1 1.55 16.1 L4.4 18.5 Z" fill="none" stroke="#070707" stroke-linecap="round" stroke-linejoin="round" stroke-width="1.0"/>
    <path d="M-0.75 1.8 Q2.0 4.9 5.9 6.45 6.15 6.0 6.55 5.7 8.6 4.1 10.85 4.7 L9.45 8.75 Q7.85 8.5 5.1 11.95 L1.35 6.35 -0.75 1.8" fill="url(#gradient0)" fill-rule="evenodd" stroke="none"/>
    <path d="M0.45 8.2 L2.95 11.9 2.95 14.55 0.55 14.55 0.45 8.2" fill="url(#gradient1)" fill-rule="evenodd" stroke="none"/>
    <path d="M0.45 8.2 L2.95 11.9 2.95 14.55 0.55 14.55 0.45 8.2 M-0.75 1.8 Q2.0 4.9 5.9 6.45 6.15 6.0 6.55 5.7 8.6 4.1 10.85 4.7 L9.45 8.75 Q7.85 8.5 5.1 11.95 L1.35 6.35 -0.75 1.8 Z" fill="none" stroke="#353532" stroke-linecap="round" stroke-linejoin="round" stroke-width="1.0"/>
    <path d="M2.05 3.75 Q2.75 1.6 2.05 0.2 2.75 1.6 2.05 3.75 M2.05 0.2 Q6.5 -1.6 10.0 -0.7 9.45 1.95 12.2 5.3 L11.25 7.15 Q9.75 6.15 7.65 6.4 L5.35 7.85 0.8 5.1 Q-2.05 1.75 -3.7 -4.45 -2.15 -2.15 2.05 0.2" fill="url(#gradient2)" fill-rule="evenodd" stroke="none"/>
    <path d="M2.05 0.2 Q2.75 1.6 2.05 3.75 M2.05 0.2 Q-2.15 -2.15 -3.7 -4.45 -2.05 1.75 0.8 5.1 L5.35 7.85 7.65 6.4 Q9.75 6.15 11.25 7.15 L12.2 5.3 Q9.45 1.95 10.0 -0.7 6.5 -1.6 2.05 0.2 Z" fill="none" stroke="#353532" stroke-linecap="round" stroke-linejoin="round" stroke-width="1.0"/>
    <path d="M4.5 5.75 L3.3 4.8 3.5 4.6 3.8 3.5 3.8 3.45 4.0 2.05 3.8 1.25 4.75 1.4 5.6 3.15 6.5 1.4 7.45 1.25 7.2 2.05 7.4 3.45 7.4 3.5 7.7 4.6 7.9 4.8 6.7 5.75 6.7 5.55 6.8 5.1 6.5 3.1 5.6 4.6 4.7 3.1 4.4 5.1 4.5 5.55 4.5 5.75" fill="#3c3c39" fill-opacity="0.7764706" fill-rule="evenodd" stroke="none"/>
  </g>
  <defs>
    <radialGradient cx="0" cy="0" gradientTransform="matrix(0.006, 0.0, 0.0, 0.006, 4.5, 5.75)" gradientUnits="userSpaceOnUse" id="gradient0" r="819.2" spreadMethod="pad">
      <stop offset="0.0" stop-color="#afafa0"/>
      <stop offset="1.0" stop-color="#66665d"/>
    </radialGradient>
    <radialGradient cx="0" cy="0" gradientTransform="matrix(0.0034, 0.0, 0.0, 0.0057, 0.2, 11.45)" gradientUnits="userSpaceOnUse" id="gradient1" r="819.2" spreadMethod="pad">
      <stop offset="0.0" stop-color="#afafa0"/>
      <stop offset="1.0" stop-color="#66665d"/>
    </radialGradient>
    <radialGradient cx="0" cy="0" gradientTransform="matrix(0.0123, 0.0, 0.0, 0.0123, 4.25, 1.7)" gradientUnits="userSpaceOnUse" id="gradient2" r="819.2" spreadMethod="pad">
      <stop offset="0.0" stop-color="#afafa0"/>
      <stop offset="1.0" stop-color="#66665d"/>
    </radialGradient>
  </defs>
</svg>
