<?xml version="1.0" encoding="UTF-8" standalone="no"?>
<svg xmlns:xlink="http://www.w3.org/1999/xlink" height="20.95px" width="15.5px" xmlns="http://www.w3.org/2000/svg">
  <g transform="matrix(1.0, 0.0, 0.0, 1.0, 7.05, 4.05)">
    <path d="M5.35 14.4 L3.2 12.1 Q0.85 8.3 -3.5 9.8 L-5.95 7.05 Q-6.85 3.45 -6.35 0.1 -5.85 -3.25 -0.65 -3.55 4.55 -3.85 6.9 1.8 8.4 7.15 7.75 14.1 7.2 16.05 5.35 14.4 M-2.6 7.75 L-3.9 6.2 -2.6 7.75" fill="#2c1414" fill-rule="evenodd" stroke="none"/>
    <path d="M-3.5 9.8 Q0.85 8.3 3.2 12.1 L5.35 14.4 Q-2.3 20.05 -3.5 9.8" fill="#100606" fill-rule="evenodd" stroke="none"/>
    <path d="M-3.5 9.8 Q0.85 8.3 3.2 12.1 L5.35 14.4 Q7.2 16.05 7.75 14.1 8.4 7.15 6.9 1.8 4.55 -3.85 -0.65 -3.55 -5.85 -3.25 -6.35 0.1 -6.85 3.45 -5.95 7.05 L-3.5 9.8 M-3.9 6.2 L-2.6 7.75" fill="none" stroke="#0e0606" stroke-linecap="round" stroke-linejoin="round" stroke-width="1.0"/>
    <path d="M-3.5 9.8 Q-2.3 20.05 5.35 14.4" fill="none" stroke="#090303" stroke-linecap="round" stroke-linejoin="round" stroke-width="1.0"/>
  </g>
</svg>
