<?xml version="1.0" encoding="UTF-8" standalone="no"?>
<svg xmlns:ffdec="https://www.free-decompiler.com/flash" xmlns:xlink="http://www.w3.org/1999/xlink" ffdec:objectType="shape" height="23.7px" width="12.4px" xmlns="http://www.w3.org/2000/svg">
  <g transform="matrix(1.0, 0.0, 0.0, 1.0, 3.4, 3.8)">
    <path d="M0.5 -1.75 Q-0.1 -2.25 -0.85 -2.15 -1.6 -2.1 -2.1 -1.5 -2.6 -0.9 -2.5 -0.1 -2.4 0.65 -1.8 1.1 L-1.0 1.5 -0.45 1.5 Q0.3 1.4 0.8 0.85 L1.2 -0.05 1.2 -0.5 Q1.1 -1.3 0.5 -1.75 M-1.2 2.25 Q-3.4 1.0 -2.75 -2.5 L-2.4 -3.0 0.1 -3.2 1.1 -2.95 Q3.75 -2.4 4.15 -1.25 L4.25 -0.35 3.85 0.9 Q2.7 3.55 -0.15 2.7 L-1.2 2.25" fill="#e8e8e7" fill-rule="evenodd" stroke="none"/>
    <path d="M0.5 -1.75 Q1.1 -1.3 1.2 -0.5 L1.2 -0.05 0.8 0.85 Q0.3 1.4 -0.45 1.5 L-1.0 1.5 -1.8 1.1 Q-2.4 0.65 -2.5 -0.1 -2.6 -0.9 -2.1 -1.5 -1.6 -2.1 -0.85 -2.15 -0.1 -2.25 0.5 -1.75" fill="#cbcbcb" fill-rule="evenodd" stroke="none"/>
    <path d="M4.7 1.9 L5.0 1.55 5.95 4.4 5.55 4.85 5.5 5.05 5.75 7.4 6.6 7.45 Q7.05 9.55 7.55 10.7 L6.8 10.8 5.8 10.9 5.15 9.1 4.0 8.75 3.15 6.0 3.6 5.1 3.15 3.5 4.7 1.9 M7.1 12.85 L7.7 12.6 8.3 14.05 Q8.75 15.75 8.3 17.05 L8.1 17.05 5.35 17.35 Q4.1 15.95 4.1 14.1 L7.1 12.85 M3.65 12.45 L3.15 12.9 2.7 13.4 0.45 9.5 Q-1.9 5.3 -1.65 4.05 L-1.45 4.0 -1.1 4.05 1.65 3.9 2.05 5.1 1.65 6.3 2.85 9.85 3.75 10.25 4.3 11.8 3.65 12.45" fill="#ffffff" fill-rule="evenodd" stroke="none"/>
    <path d="M-1.2 2.25 L-0.15 2.7 Q2.7 3.55 3.85 0.9 L4.7 1.9 3.15 3.5 3.6 5.1 3.15 6.0 4.0 8.75 5.15 9.1 5.8 10.9 6.8 10.8 Q6.7 11.55 6.1 11.9 L6.05 12.0 5.75 12.05 Q6.55 12.15 7.1 12.85 L4.1 14.1 Q4.1 15.95 5.35 17.35 L8.1 17.05 Q7.9 18.7 6.65 19.25 4.75 20.05 3.85 16.0 3.2 13.3 4.05 12.45 L3.65 12.45 4.3 11.8 3.75 10.25 2.85 9.85 1.65 6.3 2.05 5.1 1.65 3.9 -1.1 4.05 -1.2 2.25 M4.05 12.45 L4.3 12.35 5.75 12.05 4.3 12.35 4.05 12.45" fill="#595958" fill-rule="evenodd" stroke="none"/>
    <path d="M3.85 0.9 L4.25 -0.35 4.15 -1.25 Q3.75 -2.4 1.1 -2.95 L0.1 -3.2 -2.4 -3.0 -2.75 -2.5 Q-3.4 1.0 -1.2 2.25 L-0.15 2.7 Q2.7 3.55 3.85 0.9" fill="none" stroke="#696a69" stroke-linecap="round" stroke-linejoin="round" stroke-width="1.0"/>
    <path d="M0.5 -1.75 Q-0.1 -2.25 -0.85 -2.15 -1.6 -2.1 -2.1 -1.5 -2.6 -0.9 -2.5 -0.1 -2.4 0.65 -1.8 1.1 L-1.0 1.5 -0.45 1.5 Q0.3 1.4 0.8 0.85 L1.2 -0.05 1.2 -0.5 Q1.1 -1.3 0.5 -1.75" fill="none" stroke="#9b9b9a" stroke-linecap="round" stroke-linejoin="round" stroke-width="1.0"/>
    <path d="M4.7 1.9 L5.0 1.55 5.95 4.4 M6.6 7.45 Q7.05 9.55 7.55 10.7 L6.8 10.8 5.8 10.9 5.15 9.1 4.0 8.75 3.15 6.0 3.6 5.1 3.15 3.5 4.7 1.9 M7.1 12.85 L7.7 12.6 8.3 14.05 Q8.75 15.75 8.3 17.05 L8.1 17.05 5.35 17.35 Q4.1 15.95 4.1 14.1 L7.1 12.85 M3.65 12.45 L3.15 12.9 2.7 13.4 0.45 9.5 Q-1.9 5.3 -1.65 4.05 L-1.45 4.0 M3.65 12.45 L4.3 11.8 3.75 10.25 2.85 9.85 1.65 6.3 2.05 5.1 1.65 3.9" fill="none" stroke="#7a7a7a" stroke-linecap="round" stroke-linejoin="round" stroke-width="1.0"/>
    <path d="M3.85 0.9 L4.7 1.9 M6.8 10.8 Q6.7 11.55 6.1 11.9 L6.05 12.0 5.75 12.05 Q6.55 12.15 7.1 12.85 M8.1 17.05 Q7.9 18.7 6.65 19.25 4.75 20.05 3.85 16.0 3.2 13.3 4.05 12.45 L3.65 12.45 M-1.1 4.05 L-1.2 2.25 M5.75 12.05 L4.3 12.35 4.05 12.45" fill="none" stroke="#3c3c3c" stroke-linecap="round" stroke-linejoin="round" stroke-width="1.0"/>
    <path d="M5.75 7.4 L5.5 5.05 5.55 4.85 6.4 4.0 6.75 4.85 Q7.15 6.05 7.1 7.5 L5.75 7.4" fill="url(#gradient0)" fill-rule="evenodd" stroke="none"/>
    <path d="M5.75 7.4 L5.5 5.05 5.55 4.85 6.4 4.0 6.75 4.85 Q7.15 6.05 7.1 7.5 L5.75 7.4 Z" fill="none" stroke="#262f40" stroke-linecap="round" stroke-linejoin="round" stroke-width="1.0"/>
  </g>
  <defs>
    <linearGradient gradientTransform="matrix(-9.0E-4, 1.0E-4, 1.0E-4, 9.0E-4, 6.25, 5.85)" gradientUnits="userSpaceOnUse" id="gradient0" spreadMethod="pad" x1="-819.2" x2="819.2">
      <stop offset="0.0" stop-color="#5b9666"/>
      <stop offset="1.0" stop-color="#253159"/>
    </linearGradient>
  </defs>
</svg>
