<?xml version="1.0" encoding="UTF-8" standalone="no"?>
<svg xmlns:ffdec="https://www.free-decompiler.com/flash" xmlns:xlink="http://www.w3.org/1999/xlink" ffdec:objectType="shape" height="19.85px" width="15.3px" xmlns="http://www.w3.org/2000/svg">
  <g transform="matrix(1.0, 0.0, 0.0, 1.0, 0.4, 0.1)">
    <path d="M8.1 2.75 Q9.85 3.1 11.15 4.25 12.1 6.95 11.2 9.25 L9.9 8.7 8.3 9.85 5.8 9.1 4.75 7.35 Q6.95 2.85 8.1 2.75" fill="#242423" fill-rule="evenodd" stroke="none"/>
    <path d="M11.2 9.25 L11.7 9.25 Q11.65 10.6 11.2 11.8 L10.9 12.65 1.85 10.3 Q1.9 8.95 2.4 7.95 L2.8 6.85 3.4 7.0 Q3.75 4.3 5.8 2.6 L8.1 2.75 Q6.95 2.85 4.75 7.35 L5.8 9.1 8.3 9.85 9.9 8.7 11.2 9.25" fill="#171717" fill-rule="evenodd" stroke="none"/>
    <path d="M10.9 12.65 L10.3 14.15 9.85 14.7 9.0 14.5 7.05 19.25 2.15 17.8 2.15 12.5 1.65 11.8 1.85 10.3 10.9 12.65" fill="#070707" fill-rule="evenodd" stroke="none"/>
    <path d="M8.9 5.1 L8.6 5.3 8.55 5.15 8.7 4.35 8.65 4.5 8.8 2.9 8.65 3.8 7.85 6.2 Q6.85 9.05 7.1 7.95 L7.2 7.35 8.0 4.45 8.2 3.4 8.15 3.5 8.0 3.9 7.65 4.2 7.7 4.1 7.6 4.0 7.65 3.85 7.6 3.9 7.2 4.4 Q6.85 4.9 6.2 8.2 L6.2 8.45 6.15 8.3 6.75 4.4 6.6 4.9 6.6 4.6 Q6.45 4.0 6.6 3.5 L6.5 3.65 6.55 3.5 6.3 3.9 6.25 3.9 4.9 7.65 6.05 3.9 6.0 3.9 5.7 4.2 5.55 4.15 5.6 4.0 Q5.6 3.15 4.55 3.15 L5.9 2.25 6.75 2.4 7.2 2.45 Q9.4 2.8 10.55 3.95 9.5 4.9 9.35 4.85 L9.7 3.4 9.15 4.6 9.1 4.65 9.0 4.6 8.9 5.1" fill="#0a0807" fill-opacity="0.31764707" fill-rule="evenodd" stroke="none"/>
    <path d="M11.1 9.2 L11.55 9.2 11.1 11.8 10.8 12.65 10.15 14.1 9.8 14.65 8.95 14.45 6.95 19.25 2.05 17.75 2.0 12.45 1.55 11.75 1.75 10.25 Q1.85 8.9 2.3 7.9 L2.7 6.8 3.3 6.9 Q3.65 4.25 5.7 2.6 L8.0 2.7 Q9.7 3.05 11.1 4.25 11.95 6.9 11.1 9.2 L9.75 8.7 8.2 9.8 5.7 9.05 4.65 7.25 3.3 6.9 M8.95 14.45 L2.0 12.45 M1.75 10.25 L10.8 12.65" fill="none" stroke="#000000" stroke-linecap="round" stroke-linejoin="round" stroke-width="1.0"/>
    <path d="M14.45 4.3 L11.9 10.4 1.7 17.25 Q-0.85 11.25 0.85 4.75 1.65 1.75 4.35 0.75 L7.95 0.6 Q10.8 1.3 14.45 4.3" fill="#260e0e" fill-rule="evenodd" stroke="none"/>
    <path d="M5.35 9.3 L5.5 9.6 5.55 9.85 5.4 10.05 5.3 10.4 5.1 10.4 5.15 10.15 5.0 10.15 5.05 10.05 4.8 9.95 4.85 9.9 4.6 9.95 4.45 9.85 4.3 9.85 4.3 9.9 4.15 9.85 4.0 10.05 3.9 9.95 3.8 9.8 3.45 9.5 3.55 9.45 3.55 9.2 3.5 9.15 3.7 9.2 3.7 8.7 3.85 8.65 3.7 8.55 3.85 8.5 3.95 8.4 3.9 8.3 4.05 8.45 4.05 8.55 4.0 8.7 4.05 8.7 4.05 8.8 4.2 8.8 4.25 8.7 4.45 8.8 4.6 8.8 4.4 8.75 4.55 8.7 4.4 8.55 4.4 8.4 4.45 8.2 4.6 8.25 4.7 8.3 4.6 8.5 4.75 8.45 4.7 8.55 4.75 8.65 4.75 8.7 5.1 8.7 5.1 8.6 5.25 8.25 5.15 7.8 5.25 7.45 5.3 7.35 5.3 7.05 5.05 6.4 5.0 6.3 4.95 6.4 4.8 6.4 4.5 6.55 4.35 6.8 4.1 7.05 4.15 7.1 3.85 7.5 3.6 7.45 3.55 7.7 3.5 7.7 3.45 7.8 3.15 7.9 2.9 8.1 2.8 8.0 2.65 8.1 2.55 8.05 2.4 7.9 2.55 7.8 2.45 7.6 2.55 7.55 2.5 7.45 2.5 7.25 2.6 7.0 2.6 6.95 2.75 6.7 2.8 6.15 2.75 5.95 2.85 5.75 2.8 5.55 2.95 5.25 2.85 5.15 2.95 5.0 3.05 5.15 3.0 5.4 2.85 5.5 2.9 5.8 2.8 6.1 2.85 6.15 2.85 6.4 2.9 6.3 3.2 6.0 3.25 5.6 3.65 5.1 3.9 4.7 3.8 4.4 4.0 4.15 4.0 3.65 3.9 3.4 3.95 2.65 3.9 2.45 4.05 1.2 4.2 1.2 4.3 1.55 4.1 2.9 4.0 3.2 4.0 3.5 4.1 3.65 4.0 4.8 4.15 4.9 4.65 5.1 4.95 5.35 5.05 5.7 5.35 5.8 5.75 5.65 6.25 5.65 6.8 6.05 6.95 6.45 7.15 6.6 7.2 6.9 7.45 7.1 7.45 7.35 7.6 7.45 7.55 7.8 7.6 7.9 7.6 8.05 7.45 8.2 6.4 8.05 6.0 7.9 5.95 7.75 5.8 7.75 5.7 7.8 5.8 7.95 5.65 8.0 5.8 8.1 5.85 8.1 5.9 8.2 6.2 8.2 6.25 8.4 5.95 8.3 5.85 8.35 6.0 8.55 5.9 8.55 5.75 8.65 5.75 8.7 5.7 8.85 5.5 8.95 5.6 9.05 5.5 9.1 5.3 9.1 5.55 9.35 5.35 9.3 M8.8 5.1 L8.9 5.15 8.9 5.65 8.8 5.85 8.75 6.35 8.6 6.3 8.75 5.25 8.8 5.1 M1.45 8.95 L1.45 9.15 1.25 9.4 0.7 9.75 0.5 9.55 0.45 9.2 0.6 9.0 0.65 8.45 0.8 8.35 0.75 8.5 0.7 8.9 0.75 8.95 0.95 8.85 0.95 8.6 1.0 8.55 1.05 6.45 1.35 6.15 1.35 6.0 1.2 5.85 1.2 5.6 1.3 5.5 1.4 5.55 1.35 5.85 1.4 5.95 1.35 6.35 1.15 6.4 1.15 7.4 1.3 7.55 1.2 8.0 1.1 8.15 1.15 8.6 1.3 8.75 1.3 8.65 1.45 8.95 M0.85 8.2 L0.65 8.1 0.75 7.8 0.8 7.75 0.95 7.9 0.85 8.2 M2.4 8.45 L2.25 8.55 2.15 8.55 2.05 8.6 2.0 8.65 1.75 8.85 1.5 8.9 1.4 8.7 1.5 8.6 1.95 8.25 2.0 8.3 2.3 8.3 2.4 8.45 M2.7 9.9 L2.5 10.15 2.4 10.15 2.35 10.5 2.35 10.55 2.25 10.6 2.0 10.5 2.3 9.95 2.45 10.0 2.4 9.75 2.6 9.8 2.7 9.9 M2.25 10.75 L2.35 10.9 2.3 11.8 2.15 11.9 2.05 12.1 1.75 12.0 1.6 11.9 1.45 11.5 1.95 10.65 2.15 10.75 2.25 10.75 M4.05 10.2 L4.15 10.7 4.05 10.9 3.95 11.0 3.85 10.85 3.9 10.7 3.75 10.75 3.7 10.65 3.65 10.7 3.65 10.6 3.75 10.35 3.85 10.2 4.05 10.2 M2.8 9.65 L2.8 9.75 2.65 9.8 2.5 9.6 2.55 9.5 2.55 9.4 2.65 9.2 2.95 9.4 2.95 9.5 2.85 9.55 2.8 9.65 M3.7 11.05 L3.85 11.15 3.8 11.35 3.85 11.4 3.8 11.65 3.75 11.8 3.65 11.95 3.6 12.05 3.7 12.2 3.85 12.25 3.95 12.7 3.95 12.75 3.9 13.05 3.8 13.25 3.4 13.45 3.35 13.4 3.25 13.45 2.9 13.25 2.95 13.1 3.05 13.0 3.1 12.7 3.2 12.55 3.3 12.15 3.5 12.1 3.5 12.05 3.45 12.0 3.4 11.85 3.55 11.7 3.55 11.35 3.65 11.25 3.6 11.1 3.7 11.05 M8.7 6.65 L8.7 6.8 8.65 7.05 8.7 7.2 8.6 9.1 8.65 9.25 8.65 9.5 8.8 9.9 8.6 10.2 8.3 10.15 8.3 10.0 8.1 9.85 8.1 9.65 7.9 9.45 7.9 9.2 7.75 9.05 7.7 8.95 7.8 8.75 7.85 8.7 7.95 8.8 8.2 8.8 8.15 8.5 8.1 8.45 8.2 8.3 8.25 7.3 8.4 7.35 8.35 7.95 8.25 8.1 8.2 8.7 8.3 8.7 8.3 8.9 8.2 8.95 8.3 9.0 8.35 9.05 8.4 8.95 8.5 8.4 8.6 8.1 8.45 7.95 8.5 7.95 8.6 7.8 8.65 7.7 8.5 7.6 8.55 7.3 8.65 7.15 8.55 7.15 8.6 6.75 8.65 6.7 8.75 6.45 8.7 6.65 M5.5 12.0 L5.35 11.9 5.25 11.7 5.35 11.35 5.45 11.25 5.25 11.15 5.2 11.0 5.2 10.75 5.3 10.5 5.45 10.55 5.45 10.6 5.5 10.75 5.55 10.85 5.5 11.0 5.6 11.0 5.55 11.1 5.4 11.05 5.7 11.65 5.5 12.0 M5.9 12.15 L6.0 12.6 5.95 13.2 5.95 13.4 5.55 13.45 5.3 13.3 5.25 13.0 5.3 12.95 5.3 12.45 5.4 12.25 5.6 12.15 5.75 12.25 5.9 12.15" fill="#000000" fill-rule="evenodd" stroke="none"/>
    <path d="M5.25 9.35 L5.3 9.0 5.35 9.1 5.75 8.3 5.45 9.15 5.25 9.95 5.45 9.65 5.5 9.65 4.3 12.95 4.6 12.65 5.75 10.7 4.3 13.6 4.35 13.6 4.7 12.95 4.65 13.15 Q5.2 13.05 5.65 12.15 L6.0 11.5 5.95 11.65 6.45 11.0 6.35 11.4 6.4 11.3 6.2 13.0 3.05 16.95 1.45 17.25 0.05 12.95 Q2.35 11.95 2.25 11.6 L2.45 11.5 2.95 10.1 2.75 10.85 2.7 11.45 2.75 11.4 3.85 9.05 3.2 10.85 3.05 11.55 3.1 11.6 3.45 11.0 3.35 11.35 3.5 11.3 3.5 11.4 3.5 11.2 3.65 10.85 Q3.65 10.45 4.5 8.7 L4.65 8.5 3.95 10.35 3.9 11.2 3.95 10.6 4.15 10.25 4.05 10.7 4.1 10.8 4.1 11.05 4.65 10.0 4.7 9.75 4.75 10.05 5.1 9.65 5.25 9.35" fill="#000000" fill-opacity="0.4392157" fill-rule="evenodd" stroke="none"/>
    <path d="M9.1 7.35 L8.9 7.0 9.0 7.05 8.85 6.15 9.15 7.1 9.5 7.85 9.45 7.45 9.45 7.4 10.6 10.7 10.7 10.3 10.35 8.05 10.9 10.5 11.0 10.7 Q11.4 10.3 11.2 9.25 L11.05 8.6 11.15 8.7 11.05 7.85 11.25 8.25 11.25 8.15 12.1 9.6 12.15 11.0 8.9 12.35 8.2 10.95 8.25 10.75 7.8 9.35 8.1 10.05 8.35 10.5 8.45 10.4 7.85 7.95 8.75 10.45 8.8 10.45 8.75 9.7 8.9 10.05 8.95 9.95 8.95 9.9 8.9 9.85 8.8 9.45 8.15 7.3 8.1 7.05 8.7 8.95 9.5 10.15 8.85 9.1 8.8 8.7 9.0 9.15 9.1 9.2 9.1 9.05 9.3 9.4 9.0 8.2 8.9 7.9 9.15 8.2 9.2 7.65 9.1 7.35 M11.05 11.2 L11.1 11.2 10.95 10.75 11.05 11.2" fill="#000000" fill-opacity="0.4392157" fill-rule="evenodd" stroke="none"/>
    <path d="M10.8 2.7 L10.65 2.6 10.55 2.55 10.6 2.75 10.7 2.8 10.65 2.85 11.25 3.3 11.35 3.3 11.9 3.65 11.95 3.9 12.1 3.95 12.2 3.95 12.35 4.05 12.35 4.15 12.3 4.2 12.1 4.05 12.0 4.0 11.85 3.85 11.9 3.7 11.25 3.4 11.15 3.4 10.9 3.25 10.85 3.1 10.6 2.95 10.45 2.95 10.5 3.0 10.25 3.0 10.1 2.95 10.05 2.75 10.2 2.25 10.4 2.2 10.6 2.3 10.6 2.45 10.95 2.65 10.95 2.85 10.8 2.7 M11.0 2.9 L11.15 2.8 11.3 2.95 11.25 3.0 11.2 3.1 11.0 2.9 M10.1 3.8 L10.2 3.45 10.2 3.25 10.25 3.1 10.4 3.05 10.45 3.15 10.4 3.6 10.35 3.65 10.2 3.85 10.1 3.8 M12.2 6.6 L12.05 6.6 11.45 6.15 10.6 6.55 10.35 6.45 10.2 6.6 10.1 7.0 9.9 7.15 9.8 7.25 9.35 7.5 9.0 7.45 8.8 7.5 8.65 7.4 8.4 7.55 8.2 7.4 8.1 7.4 7.95 7.35 7.85 7.35 7.75 7.25 7.75 7.15 8.35 6.5 8.55 6.35 8.6 6.3 8.7 6.3 8.85 6.2 8.8 6.15 8.7 6.15 8.65 6.1 8.55 6.1 8.5 6.15 8.4 6.3 8.25 6.35 8.45 6.15 8.4 6.05 8.3 6.1 8.3 5.85 8.25 5.8 8.2 5.65 8.1 5.6 8.25 5.45 8.0 5.55 8.15 5.4 7.9 5.4 7.7 5.35 7.65 5.2 7.55 5.1 7.5 4.95 7.65 4.85 7.7 4.95 7.8 4.95 8.05 4.85 8.1 4.7 8.25 4.65 8.3 4.55 8.4 4.4 8.35 4.3 8.45 4.25 8.95 4.1 8.9 4.2 9.05 4.3 9.1 4.2 9.05 4.35 9.3 4.55 9.3 4.65 9.4 4.6 9.3 4.7 9.3 4.8 9.45 4.85 9.25 4.85 9.15 4.8 9.2 4.75 9.1 4.75 8.95 4.8 8.95 4.85 9.0 4.9 8.85 4.95 8.85 5.1 9.05 5.05 9.1 5.1 9.15 5.1 9.2 5.2 9.1 5.3 8.95 5.25 8.95 5.3 8.9 5.3 8.8 5.25 8.6 5.4 8.75 5.75 9.1 5.8 9.25 5.95 9.3 6.1 9.45 6.2 9.95 6.2 10.0 6.25 10.05 6.15 10.1 6.1 10.2 5.85 10.15 5.6 10.1 5.6 10.1 5.45 10.0 5.4 9.95 5.1 10.05 4.95 9.95 4.75 10.0 4.75 9.9 4.7 10.05 4.45 10.05 4.25 10.15 4.2 10.2 4.0 10.35 4.0 10.4 4.1 10.55 4.15 10.5 4.25 10.65 4.2 10.85 4.4 10.85 4.45 10.95 4.7 11.25 4.9 11.35 4.85 11.45 5.05 11.55 5.15 11.7 5.25 11.8 5.25 11.85 5.4 11.7 5.4 11.55 5.3 11.55 5.15 11.4 5.1 11.3 4.9 11.25 4.9 11.05 4.85 11.1 4.9 11.15 5.25 11.35 5.35 11.45 5.8 11.55 6.05 11.75 6.15 11.85 6.35 12.1 6.55 12.2 6.6 12.3 6.6 12.75 6.85 12.85 6.85 13.55 7.35 13.5 7.5 13.15 7.5 12.95 7.15 12.2 6.6 M8.85 2.9 L8.6 2.95 8.2 2.55 8.15 2.4 8.15 2.3 8.3 2.1 8.45 2.05 8.75 2.15 9.0 2.8 8.85 2.8 8.85 2.9 M9.2 3.5 L9.05 3.45 9.05 3.35 9.1 3.2 8.85 3.0 8.8 3.0 8.9 2.9 9.05 2.8 9.2 3.15 9.3 3.25 9.1 3.25 9.3 3.35 9.2 3.5 9.4 3.45 9.35 3.55 9.45 3.55 9.5 3.7 9.3 3.85 9.2 3.8 9.2 3.75 9.15 3.65 9.15 3.5 9.2 3.5 M7.9 3.8 L7.8 3.8 7.75 3.7 7.45 3.6 7.5 3.5 7.4 3.3 7.25 3.35 7.15 3.4 6.8 3.35 6.75 3.3 6.65 3.1 6.55 3.0 6.65 2.65 6.7 2.7 6.8 2.55 7.0 2.4 7.05 2.55 7.05 2.6 7.25 2.75 7.25 2.85 7.45 3.05 7.35 3.15 7.45 3.25 7.55 3.2 7.55 3.45 7.8 3.55 7.75 3.65 7.9 3.6 7.9 3.8 M6.45 4.55 L6.65 4.45 6.75 4.45 6.9 4.65 6.95 4.75 7.1 4.7 7.2 4.65 7.35 4.75 7.4 4.95 7.4 5.05 7.35 4.95 7.2 5.0 7.15 5.05 7.1 4.9 7.05 4.95 6.95 4.85 7.05 4.8 6.55 4.8 6.45 4.55 M6.2 4.7 L5.85 4.7 5.55 4.4 5.45 4.35 5.6 4.05 5.8 3.9 5.95 4.0 6.0 4.1 6.3 4.25 6.4 4.35 6.35 4.6 6.2 4.6 6.2 4.7 M8.2 4.25 L7.9 4.1 7.85 4.05 7.8 3.85 7.95 3.9 7.95 3.95 8.05 3.9 8.1 3.9 8.15 3.8 8.2 3.8 8.3 4.0 8.3 4.1 8.2 4.25 M7.45 7.7 L7.0 7.45 7.0 7.55 6.9 7.45 6.95 7.35 6.8 7.4 6.8 7.5 7.2 7.9 7.3 7.9 7.45 8.0 7.45 8.05 7.55 8.0 7.75 8.2 7.7 8.3 7.8 8.25 8.0 8.35 8.0 8.4 8.2 8.6 8.25 8.55 8.9 9.1 8.8 9.1 7.9 8.45 7.8 8.3 7.7 8.3 6.65 7.55 6.5 7.55 6.4 7.45 6.05 7.35 6.0 7.3 5.95 7.2 6.15 7.0 6.25 7.05 6.45 6.95 6.55 7.0 6.85 6.9 6.9 7.1 7.1 7.0 7.15 7.0 7.25 7.2 7.1 7.3 7.05 7.35 7.2 7.5 7.25 7.45 7.3 7.6 7.45 7.7 7.85 8.0 7.75 8.05 7.45 7.85 7.45 7.7" fill="#000000" fill-opacity="0.6" fill-rule="evenodd" stroke="none"/>
    <path d="M9.05 4.45 L8.6 4.75 8.5 4.4 8.85 3.25 8.75 3.45 9.1 1.0 8.75 2.35 7.4 6.1 Q5.65 10.5 6.1 8.85 L6.35 7.95 Q6.85 5.95 7.85 3.35 L8.2 1.75 8.1 1.95 7.8 2.5 7.35 2.9 7.6 2.35 Q7.4 2.55 7.35 2.85 L7.2 2.7 7.3 2.45 7.2 2.5 6.6 3.3 Q6.05 4.1 4.75 9.2 L4.7 9.4 4.7 9.35 5.95 3.25 5.6 4.1 5.7 3.6 Q5.6 2.65 5.9 1.85 L5.75 2.05 5.85 1.8 5.4 2.45 5.3 2.45 2.85 8.25 4.9 2.5 4.85 2.5 4.45 2.9 4.3 2.85 4.4 2.65 Q4.35 1.35 2.9 1.25 L4.9 0.0 6.2 0.15 6.75 0.25 Q10.0 0.85 11.65 2.65 9.9 4.15 9.7 4.05 L10.35 1.8 9.45 3.7 9.4 3.75 9.25 3.65 9.05 4.45" fill="#0a0807" fill-opacity="0.31764707" fill-rule="evenodd" stroke="none"/>
    <path d="M14.4 4.2 L11.85 10.35 1.65 17.15 Q-0.9 11.15 0.8 4.75 1.6 1.75 4.25 0.65 L7.85 0.55 Q10.75 1.25 14.4 4.2 Z" fill="none" stroke="#000000" stroke-linecap="round" stroke-linejoin="round" stroke-width="1.0"/>
  </g>
</svg>
