<?xml version="1.0" encoding="UTF-8" standalone="no"?>
<svg xmlns:ffdec="https://www.free-decompiler.com/flash" xmlns:xlink="http://www.w3.org/1999/xlink" ffdec:objectType="shape" height="19.2px" width="22.9px" xmlns="http://www.w3.org/2000/svg">
  <g transform="matrix(1.0, 0.0, 0.0, 1.0, 12.75, 12.85)">
    <path d="M-9.4 -3.3 Q-10.55 -5.7 -8.4 -6.85 -6.3 -8.0 -4.8 -5.9 L-0.75 0.7 0.55 0.9 0.3 4.95 -5.35 4.6 -9.4 -3.3 Z" fill="none" stroke="#000000" stroke-linecap="round" stroke-linejoin="round" stroke-width="0.9500000000000001"/>
    <path d="M4.95 -1.45 L1.9 -1.9 1.45 -6.35 0.15 -7.75 0.25 -9.85 -0.3 -10.5 -0.8 -10.65 -4.35 -10.85 -3.85 -12.2 -0.2 -12.4 1.55 -12.0 6.7 -3.6 5.25 -2.6 4.95 -1.45" fill="#525150" fill-rule="evenodd" stroke="none"/>
    <path d="M-5.25 2.6 L-8.4 2.4 -9.25 3.9 -12.15 3.6 -11.45 2.25 Q-12.25 1.35 -12.3 0.5 L-8.85 -4.7 -6.25 -3.5 -5.25 2.6" fill="#525150" fill-rule="evenodd" stroke="none"/>
    <path d="M-5.25 2.6 L-8.4 2.4 -9.25 3.9 -12.15 3.6 -11.45 2.25 Q-12.25 1.35 -12.3 0.5 L-8.85 -4.7 -6.25 -3.5 -5.25 2.6 Z" fill="none" stroke="#2a2928" stroke-linecap="round" stroke-linejoin="round" stroke-width="0.9500000000000001"/>
    <path d="M2.0 -1.05 L0.05 -0.95 Q-0.75 -0.9 -2.8 -4.35 L-6.55 -6.8 -5.1 -10.85 -0.8 -10.65 -0.35 -10.5 0.2 -9.85 0.15 -7.75 1.45 -6.35 2.0 -1.05" fill="#464442" fill-rule="evenodd" stroke="none"/>
    <path d="M0.95 -1.4 L0.35 -7.05" fill="none" stroke="#f6cfca" stroke-linecap="round" stroke-linejoin="round" stroke-width="1.25"/>
    <path d="M-6.55 -6.8 L-5.1 -10.85 -0.8 -10.65 -0.35 -10.5 0.2 -9.85 0.15 -7.75 1.45 -6.35 1.9 -1.9" fill="none" stroke="#2a2928" stroke-linecap="round" stroke-linejoin="round" stroke-width="0.9500000000000001"/>
    <path d="M1.45 3.9 L3.9 3.9 7.3 1.8 7.75 2.65 9.0 2.3 Q9.9 4.15 9.6 5.9 L0.3 4.95 1.45 3.9" fill="#525150" fill-rule="evenodd" stroke="none"/>
    <path d="M4.95 -1.45 L5.25 -2.6 6.7 -3.6 1.55 -12.0 -0.2 -12.4 -3.85 -12.2 -4.35 -10.85 M0.3 4.95 L9.6 5.9 Q9.95 4.45 9.0 2.3 L7.75 2.65 7.3 1.8" fill="none" stroke="#2a2928" stroke-linecap="round" stroke-linejoin="round" stroke-width="0.9500000000000001"/>
    <path d="M-9.75 -3.85 L-8.25 -6.95 -3.75 -7.25 -2.45 -6.0 -2.8 -5.45 Q-3.1 -4.9 -2.8 -4.35 L-1.85 -2.65 Q-0.55 -0.9 0.45 -1.0 L6.35 -1.8 7.0 -0.85 Q7.65 0.2 7.8 1.2 L3.9 3.9 1.45 3.9 0.3 4.95 -6.35 4.25 -7.05 0.85 -9.75 -3.85" fill="url(#gradient0)" fill-rule="evenodd" stroke="none"/>
    <path d="M0.05 -0.95 L0.8 -0.05 3.45 -0.35 4.0 -1.4" fill="none" stroke="#877b6a" stroke-linecap="round" stroke-linejoin="round" stroke-width="0.9500000000000001"/>
    <path d="M-6.65 2.5 L-3.0 2.9 -2.55 4.65" fill="none" stroke="#756a5c" stroke-linecap="round" stroke-linejoin="round" stroke-width="0.9500000000000001"/>
    <path d="M-9.75 -3.85 L-7.05 0.85 -6.35 4.25 0.3 4.95 1.45 3.9 3.9 3.9 7.8 1.2 Q7.65 0.2 7.0 -0.85 L6.35 -1.8 0.45 -1.0 Q-0.55 -0.9 -1.85 -2.65 L-2.8 -4.35 Q-3.1 -4.9 -2.8 -5.45 L-2.45 -6.0 -3.75 -7.25 -8.25 -6.95 -9.75 -3.85 Z" fill="none" stroke="#2c2924" stroke-linecap="round" stroke-linejoin="round" stroke-width="0.9500000000000001"/>
    <path d="M-6.8 -4.6 L-5.7 -4.7 Q-4.55 -4.6 -4.55 -3.65 -4.5 -2.6 -5.4 -2.25 L-6.35 -2.1 -7.25 -3.8 -6.8 -4.6" fill="#2a2928" fill-rule="evenodd" stroke="none"/>
    <path d="M-6.8 -4.6 L-7.25 -3.8 -6.35 -2.1 -5.4 -2.25 Q-4.5 -2.6 -4.55 -3.65 -4.55 -4.6 -5.7 -4.7 L-6.8 -4.6 Z" fill="none" stroke="#2a2928" stroke-linecap="round" stroke-linejoin="round" stroke-width="0.9500000000000001"/>
  </g>
  <defs>
    <linearGradient gradientTransform="matrix(0.0061, -5.0E-4, 5.0E-4, 0.0061, -4.45, -0.95)" gradientUnits="userSpaceOnUse" id="gradient0" spreadMethod="pad" x1="-819.2" x2="819.2">
      <stop offset="0.0" stop-color="#95856c"/>
      <stop offset="1.0" stop-color="#ada08e"/>
    </linearGradient>
  </defs>
</svg>
