<?xml version="1.0" encoding="UTF-8" standalone="no"?>
<svg xmlns:xlink="http://www.w3.org/1999/xlink" height="18.05px" width="15.45px" xmlns="http://www.w3.org/2000/svg">
  <g transform="matrix(1.0, 0.0, 0.0, 1.0, 7.0, 4.55)">
    <path d="M-6.5 -0.8 L-4.0 -2.55 Q-0.95 -4.2 1.65 -4.05 2.4 -3.9 3.3 -3.35 5.05 -2.2 5.9 0.0 L7.95 11.0 Q6.9 12.55 3.7 12.25 L3.0 11.7 2.4 7.7 -1.4 4.65 -1.95 1.3 -6.5 -0.8 M4.55 4.9 L3.7 0.9 4.55 4.9 M2.35 3.15 L1.95 1.25 2.35 3.15" fill="#3f474c" fill-rule="evenodd" stroke="none"/>
    <path d="M3.7 12.25 L3.1 12.25 Q2.0 13.0 0.1 13.0 -1.75 13.0 -3.55 9.2 L-4.6 6.6 -4.85 5.75 -4.8 5.8 -4.75 5.8 -4.75 5.85 -4.6 5.9 -4.55 5.95 -4.5 6.0 -4.4 6.1 3.0 11.7 3.7 12.25" fill="#2f2f2f" fill-rule="evenodd" stroke="none"/>
    <path d="M-4.85 5.75 L-4.9 5.7 -5.0 5.65 -5.0 5.6 -5.05 5.6 -5.1 5.55 -5.15 5.5 -5.25 5.45 -5.35 5.35 -5.65 5.15 -6.5 -0.8 -1.95 1.3 -1.4 4.65 2.4 7.7 3.0 11.7 -4.4 6.1 -4.5 6.0 -4.55 5.95 -4.6 5.9 -4.75 5.85 -4.75 5.8 -4.8 5.8 -4.85 5.75 M-5.35 5.35 L-5.15 5.5 -5.35 5.35 M-4.9 5.7 L-5.0 5.6 -4.9 5.7" fill="#353a40" fill-rule="evenodd" stroke="none"/>
    <path d="M-6.5 -0.8 L-4.0 -2.55 Q-0.95 -4.2 1.65 -4.05 2.4 -3.9 3.3 -3.35 5.05 -2.2 5.9 0.0 L7.95 11.0 Q6.9 12.55 3.7 12.25 L3.0 11.7 -4.4 6.1 -4.5 6.0 -4.55 5.95 M-4.85 5.75 L-4.9 5.7 -5.0 5.6 -5.05 5.6 M-5.1 5.55 L-5.15 5.5 -5.35 5.35 -5.65 5.15 -6.5 -0.8 M-4.85 5.75 L-4.8 5.8 -4.75 5.8" fill="none" stroke="#22262a" stroke-linecap="round" stroke-linejoin="round" stroke-width="1.0"/>
    <path d="M1.95 1.25 L2.35 3.15 M3.7 0.9 L4.55 4.9" fill="none" stroke="#282d32" stroke-linecap="round" stroke-linejoin="round" stroke-width="1.0"/>
    <path d="M3.7 12.25 L3.1 12.25 Q2.0 13.0 0.1 13.0 -1.75 13.0 -3.55 9.2 L-4.6 6.6 -4.85 5.75" fill="none" stroke="#181818" stroke-linecap="round" stroke-linejoin="miter-clip" stroke-miterlimit="4.0" stroke-width="1.0"/>
  </g>
</svg>
