<?xml version="1.0" encoding="UTF-8" standalone="no"?>
<svg xmlns:xlink="http://www.w3.org/1999/xlink" height="20.55px" width="11.45px" xmlns="http://www.w3.org/2000/svg">
  <g transform="matrix(1.0, 0.0, 0.0, 1.0, 4.95, 5.45)">
    <path d="M4.65 -2.85 Q5.45 -2.2 5.8 0.0 6.15 2.0 5.9 3.45 5.55 5.85 5.75 12.4 5.7 13.35 4.7 13.95 L2.45 14.6 -0.05 14.25 Q-1.25 13.8 -1.75 12.95 L-3.1 9.1 Q-4.45 4.9 -4.45 3.0 -4.55 -2.55 -1.4 -3.7 L1.6 -4.1 Q3.3 -4.0 4.65 -2.85" fill="url(#gradient0)" fill-rule="evenodd" stroke="none"/>
    <path d="M4.65 -2.85 Q5.45 -2.2 5.8 0.0 6.15 2.0 5.9 3.45 5.55 5.85 5.75 12.4 5.7 13.35 4.7 13.95 L2.45 14.6 -0.05 14.25 Q-1.25 13.8 -1.75 12.95 L-3.1 9.1 Q-4.45 4.9 -4.45 3.0 -4.55 -2.55 -1.4 -3.7 L1.6 -4.1 Q3.3 -4.0 4.65 -2.85 Z" fill="none" stroke="#2b2b2b" stroke-linecap="round" stroke-linejoin="round" stroke-width="1.05"/>
    <path d="M-2.65 3.4 L-2.8 1.7 -2.7 0.2 -0.65 0.3 1.65 0.35 1.75 2.65 1.65 3.3" fill="none" stroke="#434343" stroke-linecap="round" stroke-linejoin="round" stroke-width="1.05"/>
    <path d="M-1.9 6.3 Q-1.65 8.2 -0.25 9.85 L1.1 11.1" fill="none" stroke="#434343" stroke-linecap="round" stroke-linejoin="round" stroke-width="1.05"/>
    <path d="M0.8 7.3 L0.55 5.95 0.75 4.9 2.05 5.0 3.6 4.95 3.7 6.9 3.55 7.2" fill="none" stroke="#434343" stroke-linecap="round" stroke-linejoin="round" stroke-width="1.05"/>
    <path d="M2.9 -0.8 L-0.65 -1.0 -0.35 -4.95 3.2 -4.75 2.9 -0.8" fill="#3b3b3b" fill-rule="evenodd" stroke="none"/>
    <path d="M2.9 -0.8 L-0.65 -1.0 -0.35 -4.95 3.2 -4.75 2.9 -0.8 Z" fill="none" stroke="#222222" stroke-linecap="round" stroke-linejoin="round" stroke-width="1.05"/>
    <path d="M-0.45 -3.5 L3.1 -3.3" fill="none" stroke="#313131" stroke-linecap="round" stroke-linejoin="round" stroke-width="1.05"/>
  </g>
  <defs>
    <linearGradient gradientTransform="matrix(0.0034, -5.0E-4, 5.0E-4, 0.0029, -2.0, 5.1)" gradientUnits="userSpaceOnUse" id="gradient0" spreadMethod="pad" x1="-819.2" x2="819.2">
      <stop offset="0.0" stop-color="#4b4844"/>
      <stop offset="1.0" stop-color="#575757"/>
    </linearGradient>
  </defs>
</svg>
