<?xml version="1.0" encoding="UTF-8" standalone="no"?>
<svg xmlns:ffdec="https://www.free-decompiler.com/flash" xmlns:xlink="http://www.w3.org/1999/xlink" ffdec:objectType="shape" height="19.45px" width="18.8px" xmlns="http://www.w3.org/2000/svg">
  <g transform="matrix(1.0, 0.0, 0.0, 1.0, 5.9, 8.3)">
    <path d="M6.2 2.8 L5.9 3.4 5.5 4.35 Q5.5 4.7 6.15 5.1 L-2.85 4.9 Q-3.75 5.0 -3.8 4.2 L-3.65 3.4 0.65 3.05 0.3 3.05 -3.35 3.2 -2.15 1.8 Q-0.7 0.3 0.2 0.0 L1.05 -0.2 0.85 -0.2 Q-1.0 0.2 -1.45 0.75 L-2.45 1.7 Q-2.65 -1.75 -1.35 -2.9 -0.55 -3.65 0.6 -3.95 L1.9 -4.1 3.5 -3.4 3.1 -2.0 2.8 -0.45 2.75 0.25 Q2.85 1.15 3.3 1.75 L3.4 1.85 Q4.05 2.55 5.7 2.7 L6.2 2.8 M6.25 2.8 L8.0 3.0 8.55 3.15 9.2 4.05 Q9.35 4.75 8.85 5.1 L7.1 5.35 Q5.1 5.0 5.9 3.6 L6.25 2.9 6.25 2.8 M3.3 1.75 L2.35 2.45 0.65 3.05 2.35 2.45 3.3 1.75 Q2.1 2.95 0.65 3.05 2.1 2.95 3.3 1.75 M2.8 -0.45 L1.05 -0.2 2.8 -0.45" fill="#423f59" fill-rule="evenodd" stroke="none"/>
    <path d="M6.2 2.8 L5.9 3.4 5.5 4.35 Q5.5 4.7 6.15 5.1 L-2.85 4.9 Q-3.75 5.0 -3.8 4.2 L-3.65 3.4 0.65 3.05 0.3 3.05 -3.35 3.2 -2.15 1.8 Q-0.7 0.3 0.2 0.0 L1.05 -0.2 0.85 -0.2 Q-1.0 0.2 -1.45 0.75 L-2.45 1.7 Q-2.65 -1.75 -1.35 -2.9 -0.55 -3.65 0.6 -3.95 L1.9 -4.1 3.5 -3.4 3.1 -2.0 2.8 -0.45 2.75 0.25 Q2.85 1.15 3.3 1.75 L3.4 1.85 Q4.05 2.55 5.7 2.7 L6.2 2.8 6.25 2.65 6.25 2.8 8.0 3.0 8.55 3.15 9.2 4.05 Q9.35 4.75 8.85 5.1 L7.1 5.35 Q5.1 5.0 5.9 3.6 L6.25 2.9 6.25 2.8 6.2 2.8 M0.65 3.05 L2.35 2.45 3.3 1.75 Q2.1 2.95 0.65 3.05 M1.05 -0.2 L2.8 -0.45" fill="none" stroke="#28323a" stroke-linecap="round" stroke-linejoin="miter-clip" stroke-miterlimit="15.12109375" stroke-width="1.0"/>
    <path d="M-5.05 4.05 L-5.1 3.05 Q-5.2 1.0 -4.6 0.35 L-2.8 -1.15 -1.75 -1.75 -0.9 -1.25 -0.15 -0.35 0.3 0.65 Q0.75 1.95 0.8 3.6 0.8 5.15 0.55 5.1 -3.9 5.55 -4.85 4.65 L-4.85 4.05 Q-4.8 3.3 -2.85 1.7 -4.8 3.25 -5.05 4.05 M-1.3 0.5 L-2.5 1.35 -2.85 1.7 -2.5 1.35 -1.3 0.5 -0.15 -0.35 -1.3 0.5 -2.85 1.7 -1.3 0.5" fill="#605c82" fill-rule="evenodd" stroke="none"/>
    <path d="M-5.05 4.05 L-5.1 3.05 Q-5.2 1.0 -4.6 0.35 L-2.8 -1.15 -1.75 -1.75 -0.9 -1.25 -0.15 -0.35 0.3 0.65 Q0.75 1.95 0.8 3.6 0.8 5.15 0.55 5.1 -3.9 5.55 -4.85 4.65 -4.95 5.2 -5.0 4.5 L-4.85 4.65 -4.85 4.05 Q-4.8 3.3 -2.85 1.7 L-1.3 0.5 -0.15 -0.35 M-5.05 4.05 Q-4.8 3.25 -2.85 1.7 L-2.5 1.35 -1.3 0.5" fill="none" stroke="#443f47" stroke-linecap="round" stroke-linejoin="miter-clip" stroke-miterlimit="15.12109375" stroke-width="1.0"/>
    <path d="M-5.0 4.5 L-5.05 4.05" fill="none" stroke="#443f47" stroke-linecap="butt" stroke-linejoin="miter-clip" stroke-miterlimit="15.12109375" stroke-width="1.0"/>
    <path d="M9.15 5.35 L4.6 5.15 Q3.95 5.05 5.05 3.65 5.95 2.45 6.8 1.75 L8.4 1.85 9.95 2.65 Q10.45 3.05 10.65 4.2 10.8 5.45 10.1 5.45 L9.15 5.35" fill="#44707e" fill-rule="evenodd" stroke="none"/>
    <path d="M9.15 5.35 L4.6 5.15 Q3.95 5.05 5.05 3.65 5.95 2.45 6.8 1.75 L8.4 1.85 9.95 2.65 Q10.45 3.05 10.65 4.2 10.8 5.45 10.1 5.45 L9.15 5.35 Z" fill="none" stroke="#364e4a" stroke-linecap="butt" stroke-linejoin="miter-clip" stroke-miterlimit="15.12109375" stroke-width="1.0"/>
    <path d="M3.35 -3.25 L3.1 -2.1 Q2.8 -0.9 2.8 -0.15 L2.9 1.35 Q3.1 2.05 3.75 2.2 L5.75 2.7 Q6.1 2.7 6.65 1.95 L7.1 1.55 Q7.65 1.1 8.0 1.2 9.7 1.85 10.0 2.6 L10.4 3.4 Q10.6 3.75 10.15 3.9 L9.25 4.25 7.95 5.25 6.45 5.45 0.55 5.0 Q-2.0 5.7 -2.8 5.4 L-5.05 4.5 Q-5.4 4.15 -5.4 1.95 L-4.7 0.6 -3.65 -0.6 -2.25 -1.6 -1.6 -2.65" fill="none" stroke="#000000" stroke-linecap="round" stroke-linejoin="round" stroke-opacity="0.3764706" stroke-width="1.0"/>
  </g>
</svg>
