<?xml version="1.0" encoding="UTF-8" standalone="no"?>
<svg xmlns:xlink="http://www.w3.org/1999/xlink" height="9.8px" width="15.5px" xmlns="http://www.w3.org/2000/svg">
  <g transform="matrix(1.0, 0.0, 0.0, 1.0, 9.5, 5.4)">
    <path d="M5.5 -4.55 L5.5 -0.7 3.2 0.75 2.6 3.6 -2.8 3.9 -5.3 1.5 -6.85 2.6 Q-9.5 0.65 -8.9 -3.1 L-4.55 -3.7 -3.55 -3.75 -2.8 -4.65 0.45 -4.9 1.4 -4.2 5.5 -4.55 M-5.3 1.5 L-4.7 -0.4 -5.3 -2.0 -4.55 -3.7 -5.3 -2.0 -4.7 -0.4 -5.3 1.5" fill="#56748e" fill-rule="evenodd" stroke="none"/>
    <path d="M5.5 -4.55 L5.5 -0.7 3.2 0.75 2.6 3.6 -2.8 3.9 -5.3 1.5 -6.85 2.6 Q-9.5 0.65 -8.9 -3.1 L-4.55 -3.7 -3.55 -3.75 -2.8 -4.65 0.45 -4.9 1.4 -4.2 5.5 -4.55 M-4.55 -3.7 L-5.3 -2.0 -4.7 -0.4 -5.3 1.5" fill="none" stroke="#1c262f" stroke-linecap="round" stroke-linejoin="round" stroke-width="1.0"/>
  </g>
</svg>
