<?xml version="1.0" encoding="UTF-8" standalone="no"?>
<svg xmlns:ffdec="https://www.free-decompiler.com/flash" xmlns:xlink="http://www.w3.org/1999/xlink" ffdec:objectType="shape" height="10.3px" width="19.2px" xmlns="http://www.w3.org/2000/svg">
  <g transform="matrix(1.0, 0.0, 0.0, 1.0, 10.1, 3.8)">
    <path d="M4.45 1.25 Q8.2 1.8 7.1 5.75 L-6.4 5.6 -7.7 1.15 Q-8.05 -0.7 -5.4 -1.55 L-0.5 -2.4 2.35 -0.7 2.5 0.4 Q2.85 1.05 4.45 1.25" fill="#151515" fill-rule="evenodd" stroke="none"/>
    <path d="M4.45 1.25 Q2.85 1.05 2.5 0.4 L2.35 -0.7 -0.5 -2.4 -5.4 -1.55 Q-8.05 -0.7 -7.7 1.15 L-6.4 5.6 7.1 5.75 Q8.2 1.8 4.45 1.25 Z" fill="none" stroke="#090808" stroke-linecap="round" stroke-linejoin="round" stroke-width="1.0"/>
    <path d="M-9.3 4.75 Q-9.95 3.8 -9.1 0.8 -8.25 -2.1 -7.4 -2.55 L-6.65 -1.1 -5.95 0.55 -6.05 1.1 Q-6.05 1.7 -5.5 1.75 -3.95 1.9 -2.75 2.95 -1.6 3.95 -2.1 4.05 L-3.5 4.45 -9.3 4.75" fill="#5a5551" fill-rule="evenodd" stroke="none"/>
    <path d="M-9.3 4.75 Q-9.95 3.8 -9.1 0.8 -8.25 -2.1 -7.4 -2.55 L-6.65 -1.1 -5.95 0.55 -6.05 1.1 Q-6.05 1.7 -5.5 1.75 -3.95 1.9 -2.75 2.95 -1.6 3.95 -2.1 4.05 L-3.5 4.45 -9.3 4.75 Z" fill="none" stroke="#3a3733" stroke-linecap="round" stroke-linejoin="round" stroke-width="1.0"/>
    <path d="M1.9 1.4 L1.6 1.7 Q0.25 2.85 -0.8 2.4 L-2.25 1.35 -2.85 0.45 -2.3 -1.6 Q-1.65 -3.3 -1.05 -3.3 0.05 -3.3 1.55 -1.7 L2.8 -0.2 2.7 0.15 2.65 0.5 1.9 1.4 2.65 0.5 2.7 0.15 2.8 -0.2 3.0 -0.35 4.35 -0.6 Q5.75 -0.4 7.35 1.8 8.2 2.55 7.8 4.25 L0.7 4.85 Q0.05 4.05 0.35 3.25 L1.5 1.85 1.9 1.4 M2.7 0.45 L2.65 0.65 2.65 0.5 2.7 0.45 2.85 -0.15 2.8 -0.2 2.85 -0.15 2.7 0.45 2.65 0.5 2.65 0.65 2.7 0.45" fill="#7b756f" fill-rule="evenodd" stroke="none"/>
    <path d="M2.8 -0.2 L1.55 -1.7 Q0.05 -3.3 -1.05 -3.3 -1.65 -3.3 -2.3 -1.6 L-2.85 0.45 -2.25 1.35 -0.8 2.4 Q0.25 2.85 1.6 1.7 L1.9 1.4 2.65 0.5 2.7 0.15 2.8 -0.2 3.0 -0.35 4.35 -0.6 Q5.75 -0.4 7.35 1.8 8.2 2.55 7.8 4.25 L0.7 4.85 Q0.05 4.05 0.35 3.25 L1.5 1.85 1.9 1.4 M2.65 0.5 L2.7 0.45 2.85 -0.15 2.8 -0.2 M2.65 0.5 L2.65 0.65 2.7 0.45" fill="none" stroke="#3c3935" stroke-linecap="round" stroke-linejoin="round" stroke-width="1.0"/>
    <path d="M4.65 3.6 L6.1 3.5 6.85 2.4 7.8 2.4 8.6 3.45 8.45 5.45 Q7.95 5.75 7.4 6.0 L6.45 5.95 6.25 5.8 5.55 5.8 5.35 6.0 4.55 6.0 4.35 5.8 3.55 5.8 3.3 5.95 2.55 5.95 2.25 5.8 1.7 5.75 1.45 5.95 0.65 5.95 0.3 5.75 0.05 5.75 0.15 4.4 4.35 4.45 4.65 3.6" fill="#4b4943" fill-rule="evenodd" stroke="none"/>
    <path d="M4.65 3.6 L4.35 4.45 0.15 4.4 0.05 5.75 0.3 5.75 0.65 5.95 1.45 5.95 1.7 5.75 2.25 5.8 2.55 5.95 3.3 5.95 3.55 5.8 4.35 5.8 4.55 6.0 5.35 6.0 5.55 5.8 6.25 5.8 6.45 5.95 7.4 6.0 Q7.95 5.75 8.45 5.45 L8.6 3.45 7.8 2.4 6.85 2.4 6.1 3.5 4.65 3.6 Z" fill="none" stroke="#2c2927" stroke-linecap="round" stroke-linejoin="round" stroke-width="1.0"/>
    <path d="M-0.05 4.45 L-0.1 5.95 -3.0 5.9 -3.2 5.7 -4.3 5.7 -4.55 5.95 -5.45 5.9 -5.75 5.6 -6.4 5.6 -6.75 5.9 -8.5 5.7 -9.4 4.25 -0.3 4.3 Q-0.15 4.4 -0.05 4.45" fill="#4b4943" fill-rule="evenodd" stroke="none"/>
    <path d="M-0.05 4.45 L-0.1 5.95 -3.0 5.9 -3.2 5.7 -4.3 5.7 -4.55 5.95 -5.45 5.9 -5.75 5.6 -6.4 5.6 -6.75 5.9 -8.5 5.7 -9.4 4.25 -0.3 4.3 Q-0.15 4.4 -0.05 4.45 Z" fill="none" stroke="#2c2927" stroke-linecap="round" stroke-linejoin="round" stroke-width="1.0"/>
  </g>
</svg>
