<?xml version="1.0" encoding="UTF-8" standalone="no"?>
<svg xmlns:xlink="http://www.w3.org/1999/xlink" height="3.8px" width="3.8px" xmlns="http://www.w3.org/2000/svg">
  <g transform="matrix(1.0, 0.0, 0.0, 1.0, 1.85, 1.95)">
    <path d="M1.4 -1.4 Q1.95 -0.85 1.95 -0.05 1.95 0.75 1.4 1.3 0.85 1.85 0.05 1.85 -0.75 1.85 -1.3 1.3 -1.85 0.75 -1.85 -0.05 -1.85 -0.85 -1.3 -1.4 -0.75 -1.95 0.05 -1.95 0.85 -1.95 1.4 -1.4" fill="url(#gradient0)" fill-rule="evenodd" stroke="none"/>
    <path d="M-0.3 -0.4 Q-0.45 -0.25 -0.7 -0.25 -0.95 -0.25 -1.1 -0.4 L-1.25 -0.8 -1.1 -1.2 -0.7 -1.35 -0.3 -1.2 -0.15 -0.8 Q-0.15 -0.55 -0.3 -0.4" fill="#ffffff" fill-rule="evenodd" stroke="none"/>
  </g>
  <defs>
    <radialGradient cx="0" cy="0" gradientTransform="matrix(0.0031, 0.0, 0.0, 0.0031, 0.05, -0.05)" gradientUnits="userSpaceOnUse" id="gradient0" r="819.2" spreadMethod="pad">
      <stop offset="0.4" stop-color="#ffffff" stop-opacity="0.0"/>
      <stop offset="0.8352941176470589" stop-color="#ffffff" stop-opacity="0.42352942"/>
      <stop offset="0.9098039215686274" stop-color="#ffffff"/>
      <stop offset="1.0" stop-color="#ffffff"/>
    </radialGradient>
  </defs>
</svg>
