<?xml version="1.0" encoding="UTF-8" standalone="no"?>
<svg xmlns:ffdec="https://www.free-decompiler.com/flash" xmlns:xlink="http://www.w3.org/1999/xlink" ffdec:objectType="shape" height="8.8px" width="18.0px" xmlns="http://www.w3.org/2000/svg">
  <g transform="matrix(1.0, 0.0, 0.0, 1.0, 9.35, 0.5)">
    <path d="M-2.1 7.6 L-6.25 7.35 -8.55 7.35 Q-9.1 6.4 -8.6 2.85 -8.5 2.2 -7.35 1.75 -6.1 1.3 -5.9 0.7 -5.65 0.45 -5.85 0.2 L-4.7 0.05 0.8 0.25 Q4.45 0.7 5.8 1.75 7.75 2.95 8.1 4.65 8.3 5.7 7.85 7.75 L-2.1 7.7 -2.1 7.6 -1.95 6.6 -1.7 5.3 -1.6 4.25 Q-1.55 3.25 -3.0 1.75 -4.3 0.35 -4.7 0.3 L-3.35 1.7 Q-1.85 3.35 -1.75 4.35 L-1.7 5.3 -1.95 6.6 -2.1 7.6 -1.8 6.55 -1.7 5.3 -1.8 6.55 -2.1 7.6" fill="url(#gradient0)" fill-rule="evenodd" stroke="none"/>
    <path d="M-2.1 7.6 L-2.1 7.7 7.85 7.75 Q8.3 5.7 8.1 4.65 7.75 2.95 5.8 1.75 4.45 0.7 0.8 0.25 L-4.7 0.05 -5.85 0.2 Q-5.65 0.45 -5.9 0.7 -6.1 1.3 -7.35 1.75 -8.5 2.2 -8.6 2.85 -9.1 6.4 -8.55 7.35 L-6.25 7.35 -2.1 7.6 -1.95 6.6 -1.7 5.3 -1.75 4.35 Q-1.85 3.35 -3.35 1.7 L-4.7 0.3 Q-4.3 0.35 -3.0 1.75 -1.55 3.25 -1.6 4.25 L-1.7 5.3 -1.8 6.55 -2.1 7.6 Z" fill="none" stroke="#171718" stroke-linecap="round" stroke-linejoin="round" stroke-width="1.0"/>
  </g>
  <defs>
    <radialGradient cx="0" cy="0" gradientTransform="matrix(0.0129, 3.0E-4, 0.0, 0.027, 1.75, 4.5)" gradientUnits="userSpaceOnUse" id="gradient0" r="819.2" spreadMethod="pad">
      <stop offset="0.0" stop-color="#28282a"/>
      <stop offset="1.0" stop-color="#545459"/>
    </radialGradient>
  </defs>
</svg>
