<?xml version="1.0" encoding="UTF-8" standalone="no"?>
<svg xmlns:ffdec="https://www.free-decompiler.com/flash" xmlns:xlink="http://www.w3.org/1999/xlink" ffdec:objectType="shape" height="10.35px" width="16.3px" xmlns="http://www.w3.org/2000/svg">
  <g transform="matrix(1.0, 0.0, 0.0, 1.0, 7.25, 5.65)">
    <path d="M2.55 -2.75 L5.85 0.35 Q6.5 0.8 6.8 1.75 7.2 2.8 6.5 3.0 L-5.9 4.0 Q-6.75 2.6 -6.8 1.55 L-6.45 -0.15 -5.8 0.05 Q-5.15 0.45 -4.75 0.9 L-3.65 2.8 -3.15 3.6 Q-3.05 3.35 -3.45 2.7 L-4.45 0.9 Q-4.5 0.7 -5.25 0.25 L-6.05 -0.4 Q-4.1 -3.3 -1.65 -3.85 0.6 -4.35 2.55 -2.75" fill="url(#gradient0)" fill-rule="evenodd" stroke="none"/>
    <path d="M2.55 -2.75 L5.85 0.35 Q6.5 0.8 6.8 1.75 7.2 2.8 6.5 3.0 L-5.9 4.0 Q-6.75 2.6 -6.8 1.55 L-6.45 -0.15 -5.8 0.05 Q-5.15 0.45 -4.75 0.9 L-3.65 2.8 -3.15 3.6 Q-3.05 3.35 -3.45 2.7 L-4.45 0.9 Q-4.5 0.7 -5.25 0.25 L-6.05 -0.4 Q-4.1 -3.3 -1.65 -3.85 0.6 -4.35 2.55 -2.75 Z" fill="none" stroke="#151515" stroke-linecap="butt" stroke-linejoin="miter-clip" stroke-miterlimit="11.33984375" stroke-width="0.9500000000000001"/>
    <path d="M4.95 -1.2 L5.3 -1.2 6.25 -0.8 Q7.05 -0.35 7.6 0.85 L6.8 1.05 Q6.4 1.25 5.5 2.65 L4.7 4.0 -4.75 4.25 -4.0 1.7 -1.9 1.7 -2.75 3.95 -1.55 1.25 1.85 1.2 Q3.25 1.15 4.25 -0.05 L4.95 -1.2" fill="url(#gradient1)" fill-rule="evenodd" stroke="none"/>
    <path d="M4.95 -1.2 L4.25 -0.05 Q3.25 1.15 1.85 1.2 L-1.55 1.25 -2.75 3.95 -1.9 1.7 -4.0 1.7 -4.75 4.25 4.7 4.0 5.5 2.65 Q6.4 1.25 6.8 1.05 L7.6 0.85 Q7.05 -0.35 6.25 -0.8 L5.3 -1.2 4.95 -1.2 Z" fill="none" stroke="#45350f" stroke-linecap="round" stroke-linejoin="round" stroke-width="0.9500000000000001"/>
    <path d="M7.75 0.85 L8.6 3.95 4.8 4.0 Q5.3 2.75 5.9 1.95 6.25 1.45 6.95 1.2 L7.75 0.85" fill="#898c93" fill-rule="evenodd" stroke="none"/>
    <path d="M7.75 0.85 L8.6 3.95 4.8 4.0 Q5.3 2.75 5.9 1.95 6.25 1.45 6.95 1.2 L7.75 0.85 Z" fill="none" stroke="#383838" stroke-linecap="round" stroke-linejoin="round" stroke-width="0.9500000000000001"/>
    <path d="M-4.5 3.3 L-4.6 4.1 6.8 3.95 8.6 3.75 Q7.75 0.35 6.75 -0.5 6.15 -1.05 5.4 -1.15 L4.8 -1.2" fill="none" stroke="#010100" stroke-linecap="round" stroke-linejoin="round" stroke-opacity="0.3647059" stroke-width="0.9500000000000001"/>
  </g>
  <defs>
    <radialGradient cx="0" cy="0" gradientTransform="matrix(0.0091, -1.0E-4, 2.0E-4, 0.0247, 0.05, -0.55)" gradientUnits="userSpaceOnUse" id="gradient0" r="819.2" spreadMethod="pad">
      <stop offset="0.0" stop-color="#1f1f1f"/>
      <stop offset="1.0" stop-color="#636c6a"/>
    </radialGradient>
    <radialGradient cx="0" cy="0" gradientTransform="matrix(0.0071, -2.0E-4, 3.0E-4, 0.0162, 1.45, 1.5)" gradientUnits="userSpaceOnUse" id="gradient1" r="819.2" spreadMethod="pad">
      <stop offset="0.0" stop-color="#7c3b18"/>
      <stop offset="1.0" stop-color="#ccaa22"/>
    </radialGradient>
  </defs>
</svg>
