<?xml version="1.0" encoding="UTF-8" standalone="no"?>
<svg xmlns:xlink="http://www.w3.org/1999/xlink" height="21.0px" width="15.65px" xmlns="http://www.w3.org/2000/svg">
  <g transform="matrix(1.0, 0.0, 0.0, 1.0, 7.2, 4.3)">
    <path d="M5.8 4.7 Q6.25 7.25 6.05 11.1 5.8 14.95 4.6 15.4 L1.1 16.2 Q-1.2 16.5 -3.45 5.55 L-2.1 6.4 3.25 5.7 4.7 4.35 5.8 4.7" fill="#e0cec3" fill-rule="evenodd" stroke="none"/>
    <path d="M-3.45 5.55 Q-1.2 16.5 1.1 16.2 L4.6 15.4 Q5.8 14.95 6.05 11.1 6.25 7.25 5.8 4.7" fill="none" stroke="#674f4b" stroke-linecap="round" stroke-linejoin="round" stroke-width="1.0"/>
    <path d="M-5.9 -1.2 Q-2.85 -4.3 0.05 -4.3 2.5 -4.3 4.9 -2.1 L7.95 4.2 Q6.7 5.3 5.15 5.8 L3.85 5.25 2.55 6.75 Q-1.25 7.85 -2.25 7.5 L-3.7 6.4 -4.75 7.3 Q-5.9 6.95 -6.55 5.8 -7.0 5.05 -5.9 -1.2 M-3.65 3.25 L-3.7 6.4 -3.65 3.25 M2.7 0.7 Q3.0 3.05 3.85 5.25 3.0 3.05 2.7 0.7 M-3.55 -1.35 L-3.45 0.0 -3.55 -1.35" fill="url(#gradient0)" fill-rule="evenodd" stroke="none"/>
    <path d="M3.85 5.25 Q3.0 3.05 2.7 0.7 M-3.7 6.4 L-3.65 3.25" fill="none" stroke="#405b7b" stroke-linecap="round" stroke-linejoin="round" stroke-width="1.0"/>
    <path d="M4.9 -2.1 L7.95 4.2 Q6.7 5.3 5.15 5.8 L3.85 5.25 2.55 6.75 Q-1.25 7.85 -2.25 7.5 L-3.7 6.4 -4.75 7.3 Q-5.9 6.95 -6.55 5.8 -7.0 5.05 -5.9 -1.2" fill="none" stroke="#242c42" stroke-linecap="round" stroke-linejoin="round" stroke-width="1.0"/>
    <path d="M-3.45 0.0 L-3.55 -1.35" fill="none" stroke="#4d6c93" stroke-linecap="round" stroke-linejoin="round" stroke-width="1.0"/>
  </g>
  <defs>
    <linearGradient gradientTransform="matrix(-9.0E-4, -0.0077, -0.0069, 0.001, 0.15, -0.15)" gradientUnits="userSpaceOnUse" id="gradient0" spreadMethod="pad" x1="-819.2" x2="819.2">
      <stop offset="0.0" stop-color="#495d7c"/>
      <stop offset="0.0784313725490196" stop-color="#526988"/>
      <stop offset="0.2901960784313726" stop-color="#63829f"/>
      <stop offset="0.4980392156862745" stop-color="#7093af"/>
      <stop offset="0.7294117647058823" stop-color="#789eb9"/>
      <stop offset="1.0" stop-color="#7aa1bc"/>
    </linearGradient>
  </defs>
</svg>
