<?xml version="1.0" encoding="UTF-8" standalone="no"?>
<svg xmlns:xlink="http://www.w3.org/1999/xlink" height="21.25px" width="14.8px" xmlns="http://www.w3.org/2000/svg">
  <g transform="matrix(1.0, 0.0, 0.0, 1.0, 6.05, 4.6)">
    <path d="M-4.4 6.1 L-5.35 3.3 Q-6.05 0.35 -4.35 -1.85 -2.8 -3.9 -0.4 -4.05 4.9 -4.45 7.65 1.1 L7.75 1.95 7.8 2.8 7.8 4.0 Q7.65 7.15 6.2 8.3 L3.6 10.65 Q3.1 10.3 2.2 10.1 L-1.9 10.35 -3.25 8.35 -4.4 6.1 M1.55 7.85 L0.7 4.35 -2.8 4.05 0.7 4.35 1.55 7.85" fill="#323232" fill-rule="evenodd" stroke="none"/>
    <path d="M7.8 2.8 L7.85 2.8 Q8.8 7.55 7.55 12.15 6.95 14.45 6.15 15.75 L2.4 16.05 Q0.05 15.7 -1.2 14.5 -2.65 12.65 -3.65 9.2 L-4.4 6.1 -3.25 8.35 -1.9 10.35 2.2 10.1 Q3.1 10.3 3.6 10.65 L6.2 8.3 Q7.65 7.15 7.8 4.0 L7.8 2.8" fill="#444444" fill-rule="evenodd" stroke="none"/>
    <path d="M-4.4 6.1 L-5.35 3.3 Q-6.05 0.35 -4.35 -1.85 -2.8 -3.9 -0.4 -4.05 4.9 -4.45 7.65 1.1 L7.75 1.95 7.8 2.8 7.8 4.0 Q7.65 7.15 6.2 8.3 L3.6 10.65 Q3.1 10.3 2.2 10.1 L-1.9 10.35 -3.25 8.35 -4.4 6.1 M-2.8 4.05 L0.7 4.35 1.55 7.85" fill="none" stroke="#1a1a1a" stroke-linecap="round" stroke-linejoin="round" stroke-width="1.05"/>
    <path d="M7.85 2.8 Q8.8 7.55 7.55 12.15 6.95 14.45 6.15 15.75 L2.4 16.05 Q0.05 15.7 -1.2 14.5 -2.65 12.65 -3.65 9.2 L-4.4 6.1" fill="none" stroke="#1a1a1a" stroke-linecap="butt" stroke-linejoin="round" stroke-width="1.05"/>
  </g>
</svg>
