<?xml version="1.0" encoding="UTF-8" standalone="no"?>
<svg xmlns:xlink="http://www.w3.org/1999/xlink" height="19.85px" width="11.5px" xmlns="http://www.w3.org/2000/svg">
  <g transform="matrix(1.0, 0.0, 0.0, 1.0, 5.3, 4.9)">
    <path d="M5.6 3.2 Q5.25 5.6 5.4 12.25 5.4 13.2 4.4 13.8 3.5 14.35 2.15 14.45 L-0.35 14.1 Q-1.6 13.65 -2.05 12.8 L-3.4 8.9 Q-4.75 4.65 -4.8 2.8 -4.85 -2.8 -1.7 -4.0 L1.3 -4.4 Q3.0 -4.3 4.35 -3.15 5.15 -2.5 5.5 -0.25 5.85 1.75 5.6 3.2" fill="url(#gradient0)" fill-rule="evenodd" stroke="none"/>
    <path d="M5.6 3.2 Q5.25 5.6 5.4 12.25 5.4 13.2 4.4 13.8 3.5 14.35 2.15 14.45 L-0.35 14.1 Q-1.6 13.65 -2.05 12.8 L-3.4 8.9 Q-4.75 4.65 -4.8 2.8 -4.85 -2.8 -1.7 -4.0 L1.3 -4.4 Q3.0 -4.3 4.35 -3.15 5.15 -2.5 5.5 -0.25 5.85 1.75 5.6 3.2 Z" fill="none" stroke="#333333" stroke-linecap="round" stroke-linejoin="round" stroke-width="1.05"/>
    <path d="M-1.75 1.3 L-1.9 -0.45 -1.8 -1.95 -0.1 -1.85 1.75 -1.8 1.9 0.5 1.75 1.2" fill="none" stroke="#4d4d4d" stroke-linecap="round" stroke-linejoin="round" stroke-width="1.05"/>
    <path d="M-2.2 5.45 Q-1.95 7.4 -0.55 9.05 L0.8 10.35" fill="none" stroke="#4d4d4d" stroke-linecap="round" stroke-linejoin="round" stroke-width="1.05"/>
    <path d="M3.85 2.7 Q3.9 5.45 3.1 6.8 L2.25 7.65" fill="none" stroke="#4d4d4d" stroke-linecap="round" stroke-linejoin="round" stroke-width="1.05"/>
  </g>
  <defs>
    <linearGradient gradientTransform="matrix(0.0034, -5.0E-4, 5.0E-4, 0.0029, -2.3, 4.85)" gradientUnits="userSpaceOnUse" id="gradient0" spreadMethod="pad" x1="-819.2" x2="819.2">
      <stop offset="0.0" stop-color="#4b4b4b"/>
      <stop offset="1.0" stop-color="#646464"/>
    </linearGradient>
  </defs>
</svg>
