<?xml version="1.0" encoding="UTF-8" standalone="no"?>
<svg xmlns:xlink="http://www.w3.org/1999/xlink" height="10.75px" width="10.8px" xmlns="http://www.w3.org/2000/svg">
  <g transform="matrix(1.0, 0.0, 0.0, 1.0, 5.4, 5.4)">
    <path d="M5.35 -0.55 L5.4 -0.15 5.4 0.15 Q5.35 2.1 4.05 3.6 L3.6 4.0 Q2.25 5.25 0.4 5.35 L-0.25 5.35 Q-2.1 5.3 -3.55 4.1 L-4.0 3.65 Q-5.3 2.15 -5.4 0.2 L-5.4 -0.1 -5.4 -0.15 Q-5.35 -2.2 -3.95 -3.7 L-3.75 -3.9 -2.95 -4.5 Q-1.75 -5.3 -0.35 -5.35 L0.25 -5.4 Q1.4 -5.35 2.35 -4.85 L3.6 -3.95 3.9 -3.7 Q5.2 -2.35 5.35 -0.55" fill="#666666" fill-opacity="0.49803922" fill-rule="evenodd" stroke="none"/>
  </g>
</svg>
