<?xml version="1.0" encoding="UTF-8" standalone="no"?>
<svg xmlns:xlink="http://www.w3.org/1999/xlink" height="19.7px" width="11.5px" xmlns="http://www.w3.org/2000/svg">
  <g transform="matrix(1.0, 0.0, 0.0, 1.0, 4.95, 5.1)">
    <path d="M4.65 -3.35 Q5.45 -2.65 5.85 -0.45 6.15 1.55 5.95 3.0 5.55 5.4 5.75 11.95 5.7 12.9 4.7 13.5 3.8 14.05 2.45 14.1 L0.0 13.8 Q-1.25 13.35 -1.75 12.5 L-3.1 8.65 Q-4.45 4.4 -4.45 2.55 -4.5 -3.0 -1.4 -4.15 L1.65 -4.6 Q3.3 -4.5 4.65 -3.35" fill="url(#gradient0)" fill-rule="evenodd" stroke="none"/>
    <path d="M4.65 -3.35 Q5.45 -2.65 5.85 -0.45 6.15 1.55 5.95 3.0 5.55 5.4 5.75 11.95 5.7 12.9 4.7 13.5 3.8 14.05 2.45 14.1 L0.0 13.8 Q-1.25 13.35 -1.75 12.5 L-3.1 8.65 Q-4.45 4.4 -4.45 2.55 -4.5 -3.0 -1.4 -4.15 L1.65 -4.6 Q3.3 -4.5 4.65 -3.35 Z" fill="none" stroke="#212625" stroke-linecap="round" stroke-linejoin="round" stroke-width="1.05"/>
    <path d="M-1.45 1.1 L-1.6 -0.65 -1.45 -2.1 2.1 -2.0 2.2 0.3 2.1 1.0" fill="none" stroke="#333936" stroke-linecap="round" stroke-linejoin="round" stroke-width="1.05"/>
    <path d="M-1.85 5.2 Q-1.65 7.15 -0.25 8.8 L1.1 10.05" fill="none" stroke="#333936" stroke-linecap="round" stroke-linejoin="round" stroke-width="1.05"/>
    <path d="M4.2 2.5 Q4.25 5.2 3.4 6.6 L2.6 7.4" fill="none" stroke="#333936" stroke-linecap="round" stroke-linejoin="round" stroke-width="1.05"/>
  </g>
  <defs>
    <linearGradient gradientTransform="matrix(0.0034, -5.0E-4, 5.0E-4, 0.0029, -2.0, 4.6)" gradientUnits="userSpaceOnUse" id="gradient0" spreadMethod="pad" x1="-819.2" x2="819.2">
      <stop offset="0.0" stop-color="#343a38"/>
      <stop offset="1.0" stop-color="#424b48"/>
    </linearGradient>
  </defs>
</svg>
