<?xml version="1.0" encoding="UTF-8" standalone="no"?>
<svg xmlns:ffdec="https://www.free-decompiler.com/flash" xmlns:xlink="http://www.w3.org/1999/xlink" ffdec:objectType="shape" height="22.45px" width="12.45px" xmlns="http://www.w3.org/2000/svg">
  <g transform="matrix(1.0, 0.0, 0.0, 1.0, 3.15, 2.95)">
    <path d="M2.0 0.5 L-1.65 3.0 -2.35 1.3 -2.65 0.35 Q-0.95 -4.25 1.45 -1.25 L2.0 0.5 M2.1 12.55 Q2.8 11.7 3.6 11.55 4.25 11.4 5.05 11.8 L5.3 11.65 5.8 11.3 6.0 11.2 Q6.15 11.1 6.45 11.5 L7.25 13.0 8.6 16.0 Q8.95 16.75 8.7 17.7 8.45 18.55 7.4 18.8 L5.85 19.0 4.75 18.7 Q4.25 18.4 3.15 16.45 2.1 14.6 2.1 12.7 L2.1 12.55 M5.05 11.8 Q7.2 14.0 7.25 13.0 7.2 14.0 5.05 11.8" fill="#f0c468" fill-rule="evenodd" stroke="none"/>
    <path d="M-0.7 8.9 L2.75 6.35 2.05 3.45 0.4 3.45 -1.85 4.3 -1.65 3.0 2.0 0.5 4.7 2.25 5.2 9.6 1.25 11.8 -0.7 8.9" fill="#dec68f" fill-rule="evenodd" stroke="none"/>
    <path d="M1.25 11.8 L5.2 9.6 5.8 11.3 5.3 11.65 5.05 11.8 Q4.25 11.4 3.6 11.55 2.8 11.7 2.1 12.55 L1.25 11.8" fill="#bd784a" fill-rule="evenodd" stroke="none"/>
    <path d="M-1.85 4.3 L0.4 3.45 2.05 3.45 2.75 6.35 -0.7 8.9 Q-3.5 7.1 -1.85 4.3" fill="#df0a0a" fill-rule="evenodd" stroke="none"/>
    <path d="M1.25 11.8 L5.2 9.6 M2.0 0.5 L-1.65 3.0 -2.35 1.3 -2.65 0.35 M2.1 12.55 Q2.8 11.7 3.6 11.55 4.25 11.4 5.05 11.8 L5.3 11.65 5.8 11.3 M7.25 13.0 Q7.2 14.0 5.05 11.8 M1.45 -1.25 L2.0 0.5" fill="none" stroke="#544634" stroke-linecap="round" stroke-linejoin="round" stroke-width="1.0"/>
    <path d="M-0.7 8.9 L1.25 11.8 2.1 12.55 2.1 12.7 Q2.1 14.6 3.15 16.45 4.25 18.4 4.75 18.7 L5.85 19.0 7.4 18.8 Q8.45 18.55 8.7 17.7 8.95 16.75 8.6 16.0 L7.25 13.0 6.45 11.5 Q6.15 11.1 6.0 11.2 L5.8 11.3 5.2 9.6 4.7 2.25 2.0 0.5 M-1.65 3.0 L-1.85 4.3" fill="none" stroke="#423824" stroke-linecap="round" stroke-linejoin="round" stroke-width="1.0"/>
    <path d="M-1.85 4.3 L0.4 3.45 2.05 3.45 2.75 6.35 -0.7 8.9 Q-3.5 7.1 -1.85 4.3" fill="none" stroke="#381d1d" stroke-linecap="round" stroke-linejoin="round" stroke-width="1.0"/>
    <path d="M-2.65 0.35 Q-0.95 -4.25 1.45 -1.25" fill="none" stroke="#78653a" stroke-linecap="round" stroke-linejoin="round" stroke-width="1.0"/>
  </g>
</svg>
