<?xml version="1.0" encoding="UTF-8" standalone="no"?>
<svg xmlns:xlink="http://www.w3.org/1999/xlink" height="14.05px" width="42.35px" xmlns="http://www.w3.org/2000/svg">
  <g transform="matrix(1.0, 0.0, 0.0, 1.0, 4.6, 5.55)">
    <path d="M10.8 1.75 Q10.25 1.05 10.4 -0.85 10.55 -2.8 11.35 -3.2 12.1 -2.25 12.05 -0.35 12.05 1.55 10.8 1.75" fill="#0099ff" fill-rule="evenodd" stroke="none"/>
    <path d="M6.45 -0.6 L3.95 -0.6 3.95 -2.1 1.8 -2.1 3.95 -2.1 8.35 -2.1 3.95 -2.1 3.95 -0.6 6.45 -0.6 M-0.75 -2.6 L0.2 -3.7 4.3 -4.15 Q7.15 -4.5 11.35 -3.2 10.55 -2.8 10.4 -0.85 10.25 1.05 10.8 1.75 L7.95 2.0 3.9 2.3 -0.35 1.55 -1.0 1.5 -0.75 -2.6 M3.95 0.35 L3.95 -0.6 3.95 0.35" fill="#999999" fill-rule="evenodd" stroke="none"/>
    <path d="M-0.35 1.55 L3.9 2.3 3.3 3.35 Q2.4 4.85 2.5 7.4 0.7 8.65 -1.05 7.4 0.15 5.65 -0.45 3.35 -0.7 2.6 -0.35 1.55" fill="#333333" fill-rule="evenodd" stroke="none"/>
    <path d="M-0.75 -2.6 L-1.0 1.5 -3.45 0.1 -2.8 -2.1 -0.75 -2.6" fill="#666666" fill-rule="evenodd" stroke="none"/>
    <path d="M10.8 1.75 Q10.25 1.05 10.4 -0.85 10.55 -2.8 11.35 -3.2 12.1 -2.25 12.05 -0.35 12.05 1.55 10.8 1.75" fill="none" stroke="#0066cc" stroke-linecap="round" stroke-linejoin="round" stroke-width="1.0"/>
    <path d="M11.35 -3.2 Q7.15 -4.5 4.3 -4.15 L0.2 -3.7 -0.75 -2.6 M-1.0 1.5 L-0.35 1.55 -1.0 1.55 -1.0 1.5 M3.9 2.3 L7.95 2.0 10.8 1.75" fill="none" stroke="#7b7b7b" stroke-linecap="round" stroke-linejoin="round" stroke-width="1.0"/>
    <path d="M1.8 -2.1 L3.95 -2.1 8.35 -2.1 M3.95 -2.1 L3.95 -0.6 6.45 -0.6 M3.95 -0.6 L3.95 0.35" fill="none" stroke="#000000" stroke-linecap="round" stroke-linejoin="round" stroke-width="1.0"/>
    <path d="M7.95 2.0 Q7.45 3.45 5.35 3.8 L3.5 3.95" fill="none" stroke="#626262" stroke-linecap="round" stroke-linejoin="round" stroke-width="1.0"/>
    <path d="M-0.35 1.55 L3.9 2.3 3.3 3.35 Q2.4 4.85 2.5 7.4 0.7 8.65 -1.05 7.4 0.15 5.65 -0.45 3.35 -0.7 2.6 -0.35 1.55" fill="none" stroke="#262626" stroke-linecap="round" stroke-linejoin="round" stroke-width="1.0"/>
    <path d="M-0.75 -2.6 L-1.0 1.5 -3.45 0.1 -2.8 -2.1 -0.75 -2.6" fill="none" stroke="#484848" stroke-linecap="round" stroke-linejoin="round" stroke-width="1.0"/>
    <path d="M3.55 -2.35 Q3.55 -4.5 4.6 -5.05 3.55 -4.5 3.55 -2.35 M1.95 -3.7 L3.0 -4.9 4.6 -5.05 7.25 -5.0 Q10.2 -4.9 10.65 -3.95 9.8 -3.8 9.3 -0.65 L1.5 -0.65 Q1.1 -2.3 1.95 -3.7 M5.7 -2.35 Q5.7 -4.65 7.25 -5.0 5.7 -4.65 5.7 -2.35" fill="#6a6a6a" fill-rule="evenodd" stroke="none"/>
    <path d="M0.9 -4.45 Q1.85 -4.65 1.95 -3.7 L0.15 -3.7 0.9 -4.45" fill="#333333" fill-rule="evenodd" stroke="none"/>
    <path d="M0.15 -3.7 Q-0.45 -2.75 -0.15 -1.3 L-3.85 -1.3 Q-4.55 -3.1 -3.35 -4.45 L0.9 -4.45 0.15 -3.7" fill="#515151" fill-rule="evenodd" stroke="none"/>
    <path d="M6.8 5.85 Q5.85 3.7 6.75 1.9 11.6 3.0 12.4 1.85 12.95 2.2 12.1 4.25 8.95 6.25 6.8 5.85" fill="#6f6f6f" fill-rule="evenodd" stroke="none"/>
    <path d="M4.6 -5.05 Q3.55 -4.5 3.55 -2.35 M1.95 -3.7 L3.0 -4.9 4.6 -5.05 7.25 -5.0 Q10.2 -4.9 10.65 -3.95 9.8 -3.8 9.3 -0.65 L1.5 -0.65 Q1.1 -2.3 1.95 -3.7 M7.25 -5.0 Q5.7 -4.65 5.7 -2.35 M6.8 5.85 Q5.85 3.7 6.75 1.9 11.6 3.0 12.4 1.85 12.95 2.2 12.1 4.25 8.95 6.25 6.8 5.85" fill="none" stroke="#4d4d4d" stroke-linecap="round" stroke-linejoin="round" stroke-width="1.0"/>
    <path d="M0.9 -4.45 Q1.85 -4.65 1.95 -3.7 L0.15 -3.7 Q-0.45 -2.75 -0.15 -1.3 L-3.85 -1.3 Q-4.55 -3.1 -3.35 -4.45 L0.9 -4.45 0.15 -3.7" fill="none" stroke="#373737" stroke-linecap="round" stroke-linejoin="round" stroke-width="1.0"/>
    <path d="M10.65 4.05 L37.25 4.05" fill="none" stroke="url(#gradient0)" stroke-linecap="round" stroke-linejoin="round" stroke-width="1.0"/>
  </g>
  <defs>
    <linearGradient gradientTransform="matrix(0.0251, 0.0, 0.0, 0.0095, 17.2, -3.25)" gradientUnits="userSpaceOnUse" id="gradient0" spreadMethod="pad" x1="-819.2" x2="819.2">
      <stop offset="0.0" stop-color="#ff0000"/>
      <stop offset="1.0" stop-color="#ff0000" stop-opacity="0.3019608"/>
    </linearGradient>
  </defs>
</svg>
