<?xml version="1.0" encoding="UTF-8" standalone="no"?>
<svg xmlns:ffdec="https://www.free-decompiler.com/flash" xmlns:xlink="http://www.w3.org/1999/xlink" ffdec:objectType="shape" height="21.45px" width="13.45px" xmlns="http://www.w3.org/2000/svg">
  <g transform="matrix(1.0, 0.0, 0.0, 1.0, 4.25, 1.1)">
    <path d="M6.0 12.0 L6.0 12.1 Q5.95 12.0 5.5 12.4 L6.0 12.0" fill="#600f06" fill-rule="evenodd" stroke="none"/>
    <path d="M3.8 6.9 L4.7 9.5 6.0 12.0 5.5 12.4 5.3 12.55 2.75 12.6 1.6 10.55 0.25 11.05 Q0.95 9.2 2.25 8.15 3.45 7.05 3.8 6.9 M1.6 10.55 Q2.5 9.65 4.7 9.5 2.5 9.65 1.6 10.55" fill="#161b1d" fill-rule="evenodd" stroke="none"/>
    <path d="M-3.35 0.85 L-1.7 0.55 Q0.35 -1.8 2.5 0.6 L2.55 0.65 2.65 1.35 2.6 1.95 Q0.9 2.75 -3.35 0.85" fill="#25333d" fill-rule="evenodd" stroke="none"/>
    <path d="M1.05 4.8 L0.65 3.75 1.05 4.8 M2.6 1.95 Q4.7 4.2 3.8 6.9 3.45 7.05 2.25 8.15 0.95 9.2 0.25 11.05 -5.0 5.85 -3.35 0.85 0.9 2.75 2.6 1.95 M6.0 12.0 L6.25 11.95 Q6.4 11.8 6.75 12.3 L7.35 13.85 8.55 16.95 Q8.85 17.7 8.55 18.6 8.2 19.45 7.25 19.65 L5.6 19.8 4.55 19.35 Q4.1 19.05 3.05 17.05 2.1 15.0 2.75 12.6 L5.3 12.55 5.5 12.4 Q5.95 12.0 6.0 12.1 L6.0 12.0 M7.35 13.85 Q7.25 14.8 5.3 12.55 7.25 14.8 7.35 13.85" fill="#3d5060" fill-rule="evenodd" stroke="none"/>
    <path d="M0.65 3.75 L1.05 4.8 M-3.35 0.85 L-1.7 0.55 Q0.35 -1.8 2.5 0.6 L2.55 0.65 2.65 1.35 2.6 1.95 Q4.7 4.2 3.8 6.9 L4.7 9.5 6.0 12.0 6.25 11.95 Q6.4 11.8 6.75 12.3 L7.35 13.85 8.55 16.95 Q8.85 17.7 8.55 18.6 8.2 19.45 7.25 19.65 L5.6 19.8 4.55 19.35 Q4.1 19.05 3.05 17.05 2.1 15.0 2.75 12.6 L1.6 10.55 0.25 11.05 Q-5.0 5.85 -3.35 0.85 M6.0 12.0 L6.0 12.1 M5.5 12.4 L5.3 12.55 M5.5 12.4 L6.0 12.0" fill="none" stroke="#070a0a" stroke-linecap="round" stroke-linejoin="round" stroke-width="1.0"/>
    <path d="M-3.35 0.85 Q0.9 2.75 2.6 1.95 M4.7 9.5 Q2.5 9.65 1.6 10.55 M0.25 11.05 Q0.95 9.2 2.25 8.15 3.45 7.05 3.8 6.9 M5.3 12.55 Q7.25 14.8 7.35 13.85 M2.75 12.6 L5.3 12.55" fill="none" stroke="#0e1314" stroke-linecap="round" stroke-linejoin="round" stroke-width="1.0"/>
  </g>
</svg>
