<?xml version="1.0" encoding="UTF-8" standalone="no"?>
<svg xmlns:xlink="http://www.w3.org/1999/xlink" height="19.7px" width="11.8px" xmlns="http://www.w3.org/2000/svg">
  <g transform="matrix(1.0, 0.0, 0.0, 1.0, 9.5, 5.4)">
    <path d="M-2.65 -0.9 L-2.1 -3.5 Q2.5 -3.25 1.8 0.0 L1.15 2.85 1.0 3.05 0.95 3.05 -0.65 1.5 -1.3 1.05 -2.55 -0.6 -2.65 -0.9" fill="#333333" fill-rule="evenodd" stroke="none"/>
    <path d="M-2.65 -0.9 L-2.55 -0.6 -1.3 1.05 -0.65 1.5 0.95 3.05 1.0 3.05 Q1.95 4.2 1.8 4.9 L-1.35 5.85 Q-2.0 6.9 -2.1 8.85 L-0.25 9.7 1.8 13.45 -0.15 13.8 -1.85 12.1 -4.9 12.1 -5.2 9.9 -7.35 8.1 -9.0 7.65 Q-7.25 2.9 -7.25 -0.35 L-4.65 -4.9 Q-3.65 -3.75 -2.65 -0.9 M-6.0 6.6 L-4.85 3.3 -6.1 0.9 -4.85 3.3 -6.0 6.6" fill="#a30000" fill-rule="evenodd" stroke="none"/>
    <path d="M1.0 3.05 L1.15 2.85" fill="none" stroke="#000000" stroke-linecap="round" stroke-linejoin="round" stroke-width="1.0"/>
    <path d="M1.8 13.45 L-0.15 13.8 -1.85 12.1 -4.9 12.1 -5.2 9.9 -7.35 8.1 -9.0 7.65 M-6.1 0.9 L-4.85 3.3 -6.0 6.6" fill="none" stroke="#540101" stroke-linecap="round" stroke-linejoin="round" stroke-width="1.0"/>
    <path d="M-2.65 -0.9 L-2.55 -0.6 -1.3 1.05 -0.65 1.5 0.95 3.05 1.0 3.05 Q1.95 4.2 1.8 4.9 L-1.35 5.85 Q-2.0 6.9 -2.1 8.85 L-0.25 9.7 1.8 13.45 M-9.0 7.65 Q-7.25 2.9 -7.25 -0.35 L-4.65 -4.9 Q-3.65 -3.75 -2.65 -0.9" fill="none" stroke="#2b0000" stroke-linecap="round" stroke-linejoin="round" stroke-width="1.0"/>
    <path d="M-2.1 -3.5 L-2.65 -0.9 M1.15 2.85 L1.8 0.0" fill="none" stroke="#151515" stroke-linecap="round" stroke-linejoin="round" stroke-width="1.0"/>
  </g>
</svg>
