<?xml version="1.0" encoding="UTF-8" standalone="no"?>
<svg xmlns:xlink="http://www.w3.org/1999/xlink" height="21.4px" width="15.1px" xmlns="http://www.w3.org/2000/svg">
  <g transform="matrix(1.0, 0.0, 0.0, 1.0, 7.65, 2.85)">
    <path d="M-3.3 1.05 L-2.65 0.55 -2.25 0.3 Q4.1 -2.3 5.25 4.25 5.55 6.0 5.05 14.95 L5.05 15.05 4.95 15.2 4.9 15.5 4.7 15.9 Q3.75 17.95 1.55 18.05 -0.55 18.15 -1.7 16.4 L-1.75 16.6 -1.9 16.1 -1.95 15.65 -2.05 15.3 Q-3.5 12.8 -4.8 8.15 L-5.9 4.35 -5.85 3.3 -5.75 2.8 -5.7 2.65 -5.65 2.4 -3.7 1.75 -3.65 1.6 -3.3 1.05" fill="#302c2b" fill-rule="evenodd" stroke="none"/>
    <path d="M-3.3 1.05 L-2.65 0.55 -2.25 0.3 Q4.1 -2.3 5.25 4.25 5.55 6.0 5.05 14.95 L5.05 15.05 4.95 15.2 4.9 15.5 4.7 15.9 Q3.75 17.95 1.55 18.05 -0.55 18.15 -1.7 16.4 L-1.75 16.6 -1.9 16.1 -1.95 15.65 -2.05 15.3 Q-3.5 12.8 -4.8 8.15 L-5.9 4.35 -5.85 3.3 -5.75 2.8 -5.7 2.65 -5.65 2.4 -3.7 1.75 -3.65 1.6 -3.3 1.05 Z" fill="none" stroke="#231e1b" stroke-linecap="round" stroke-linejoin="round" stroke-width="1.0"/>
    <path d="M1.2 12.1 L6.5 10.8 Q6.7 12.5 6.4 14.2 L-1.35 15.5 -2.8 14.8 -2.25 11.3 1.2 12.1" fill="#773b2b" fill-rule="evenodd" stroke="none"/>
    <path d="M1.2 12.1 L6.5 10.8 Q6.7 12.5 6.4 14.2 L-1.35 15.5 -2.8 14.8 -2.25 11.3 1.2 12.1 Z" fill="none" stroke="#201611" stroke-linecap="round" stroke-linejoin="round" stroke-width="1.0"/>
    <path d="M5.9 2.05 L5.85 2.0 3.75 2.55 2.45 4.0 3.75 2.6 5.9 2.05 3.75 2.6 2.45 4.0 1.15 5.4 2.45 4.0 3.75 2.55 5.85 2.0 5.9 2.05 Q6.85 2.5 6.95 3.8 L6.8 4.6 6.35 8.05 3.15 9.25 0.9 5.5 -1.6 4.1 -6.0 6.7 -7.15 3.15 Q-6.95 -0.95 -1.2 -1.9 4.6 -2.8 5.9 2.05" fill="url(#gradient0)" fill-rule="evenodd" stroke="none"/>
    <path d="M5.9 2.05 L3.75 2.6 2.45 4.0 1.15 5.4 M2.45 4.0 L3.75 2.55 5.85 2.0 5.9 2.05 Q4.6 -2.8 -1.2 -1.9 -6.95 -0.95 -7.15 3.15 L-6.0 6.7 -1.6 4.1 0.9 5.5 3.15 9.25 6.35 8.05 6.8 4.6 6.95 3.8 Q6.85 2.5 5.9 2.05" fill="none" stroke="#381c0f" stroke-linecap="round" stroke-linejoin="round" stroke-width="1.0"/>
    <path d="M-0.05 -2.2 L1.55 -2.1 Q3.3 -1.8 4.1 -0.8 5.4 0.7 6.0 2.05 L6.4 2.3 Q6.85 2.7 6.9 3.4 6.95 4.4 6.4 8.1 L5.4 8.55 5.65 11.1 6.1 11.0 Q6.55 10.95 6.6 11.25 L6.4 14.15 4.9 14.6 Q4.95 16.3 3.95 16.9 2.45 17.9 1.3 17.75 L-0.35 17.2 Q-1.55 16.75 -1.8 16.3 -2.1 15.9 -2.0 15.45 L-1.9 15.15 -2.75 14.3 Q-4.25 8.55 -5.2 6.35 L-5.85 6.2 -6.45 6.2 -6.95 3.8 -7.05 2.0 Q-6.9 1.5 -6.05 0.55 L-4.6 -0.85 -2.45 -1.8 -0.65 -2.35 -0.05 -2.2 Z" fill="none" stroke="#000000" stroke-linecap="round" stroke-linejoin="round" stroke-opacity="0.5254902" stroke-width="1.0"/>
  </g>
  <defs>
    <linearGradient gradientTransform="matrix(0.0, 0.0, 0.0, 0.0, -43.3, -226.25)" gradientUnits="userSpaceOnUse" id="gradient0" spreadMethod="pad" x1="-819.2" x2="819.2">
      <stop offset="0.0" stop-color="#663300"/>
      <stop offset="1.0" stop-color="#d07373"/>
    </linearGradient>
  </defs>
</svg>
