<?xml version="1.0" encoding="UTF-8" standalone="no"?>
<svg xmlns:xlink="http://www.w3.org/1999/xlink" height="14.65px" width="18.95px" xmlns="http://www.w3.org/2000/svg">
  <g transform="matrix(1.0, 0.0, 0.0, 1.0, 10.85, 9.45)">
    <path d="M-0.8 -2.55 L2.55 -2.2 3.0 -2.15 3.6 0.05 Q4.1 1.4 4.65 2.05 L5.55 2.5 5.2 3.3 Q4.05 5.15 1.3 4.55 L-1.75 3.25 -2.5 2.1 -3.15 0.25 Q-3.2 -0.6 -2.5 -1.25 L-1.0 -2.55 -1.0 -2.6 -0.9 -2.55 -0.8 -2.55 M-0.9 -2.55 L-1.0 -2.55 -0.9 -2.55" fill="#323232" fill-rule="evenodd" stroke="none"/>
    <path d="M7.55 -1.45 L7.6 2.25 7.3 -4.95 7.55 -1.45" fill="#605e4d" fill-rule="evenodd" stroke="none"/>
    <path d="M-5.3 -1.65 L-5.3 0.05 -10.3 0.1 -10.35 -8.55 -8.6 -8.9 Q-6.6 -9.1 -5.4 -8.45 L-5.35 -6.7 -8.8 -6.3 Q-9.1 -4.5 -7.2 -1.7 L-7.15 -1.7 -7.1 -1.7 -6.5 -1.8 -5.3 -2.1 -5.3 -2.05 -6.5 -1.8 -5.3 -2.05 -5.3 -1.65" fill="#333b26" fill-rule="evenodd" stroke="none"/>
    <path d="M-1.75 3.25 L-2.25 3.15 -2.35 3.15 -2.45 3.1 -2.85 3.05 -4.15 2.6 Q-6.45 1.65 -5.9 0.35 L-5.25 0.35 -5.25 0.3 -5.05 -0.25 -5.3 -1.65 -5.3 -2.05 -3.5 -2.45 -1.1 -2.55 -1.05 -2.55 -1.0 -2.6 -1.0 -2.55 -2.5 -1.25 Q-3.2 -0.6 -3.15 0.25 L-2.5 2.1 -1.75 3.25 M-1.0 -2.55 L-1.05 -2.55 -1.0 -2.55" fill="#282b25" fill-rule="evenodd" stroke="none"/>
    <path d="M5.55 2.5 L5.2 3.3 Q4.05 5.15 1.3 4.55 L-1.75 3.25 -2.5 2.1 -3.15 0.25 Q-3.2 -0.6 -2.5 -1.25 L-1.0 -2.55 -1.0 -2.6" fill="none" stroke="#20221f" stroke-linecap="round" stroke-linejoin="round" stroke-width="1.0"/>
    <path d="M-5.3 -1.65 L-5.3 0.05 -10.3 0.1 -10.35 -8.55 -8.6 -8.9 Q-6.6 -9.1 -5.4 -8.45 L-5.35 -6.7 M-5.3 -2.05 L-5.3 -1.65" fill="none" stroke="#1e2616" stroke-linecap="round" stroke-linejoin="round" stroke-width="1.0"/>
    <path d="M-7.15 -1.7 L-7.1 -1.7 -6.5 -1.8 -5.3 -2.05 M-1.1 -2.55 L-1.05 -2.55 -1.0 -2.55 -0.9 -2.55 -0.8 -2.55" fill="none" stroke="#454438" stroke-linecap="round" stroke-linejoin="round" stroke-width="1.0"/>
    <path d="M-1.75 3.25 L-2.25 3.15 -2.35 3.15 -2.45 3.1 -2.85 3.05 -4.15 2.6 Q-6.45 1.65 -5.9 0.35 L-5.25 0.35 -5.25 0.3 -5.05 -0.25 -5.3 -1.65" fill="none" stroke="#1a1b18" stroke-linecap="round" stroke-linejoin="round" stroke-width="1.0"/>
    <path d="M7.3 -4.95 L7.6 2.3 7.55 2.5 5.55 2.5 4.65 2.05 Q4.1 1.4 3.6 0.05 L3.0 -2.15 2.55 -2.2 -1.0 -2.6 -3.5 -2.45 -5.3 -2.1 -7.15 -1.7 -7.2 -1.7 Q-9.1 -4.5 -8.8 -6.3 L-4.2 -6.8 -1.4 -7.15 7.3 -5.15 7.3 -4.95" fill="#605e4d" fill-rule="evenodd" stroke="none"/>
    <path d="M7.3 -4.95 L7.6 2.3 7.55 2.5 5.55 2.5 4.65 2.05 Q4.1 1.4 3.6 0.05 L3.0 -2.15 2.55 -2.2 -1.0 -2.6 -3.5 -2.45 -5.3 -2.1 -7.15 -1.7 -7.2 -1.7 Q-9.1 -4.5 -8.8 -6.3 L-4.2 -6.8 -1.4 -7.15 7.3 -5.15 7.3 -4.95 Z" fill="none" stroke="#454438" stroke-linecap="round" stroke-linejoin="round" stroke-width="1.0"/>
  </g>
</svg>
