<?xml version="1.0" encoding="UTF-8" standalone="no"?>
<svg xmlns:xlink="http://www.w3.org/1999/xlink" height="20.85px" width="14.3px" xmlns="http://www.w3.org/2000/svg">
  <g transform="matrix(1.0, 0.0, 0.0, 1.0, 7.35, 2.9)">
    <path d="M6.1 1.3 Q6.45 7.8 4.1 10.1 2.05 12.1 -1.15 10.7 -4.1 9.35 -5.95 6.35 -7.9 3.15 -6.75 0.5 -3.2 -2.15 -0.15 -2.3 3.6 -2.45 6.1 1.3" fill="url(#gradient0)" fill-rule="evenodd" stroke="none"/>
    <path d="M5.2 10.3 L-2.75 11.8 -2.75 11.75 Q-4.3 11.1 -3.6 9.45 -5.7 6.55 -4.15 5.35 L-1.4 3.5 Q0.05 4.1 3.6 8.3 L5.0 8.5 Q5.5 8.75 5.5 9.15 L5.2 10.3 M1.3 17.45 Q-0.2 17.25 -2.05 15.0 -0.85 14.45 5.55 13.8 L3.15 16.6 Q2.1 17.55 1.3 17.45" fill="#211b10" fill-rule="evenodd" stroke="none"/>
    <path d="M-2.3 14.8 L-1.75 11.05 2.05 11.35 6.1 10.25 Q6.7 11.65 6.2 13.2 L2.25 14.6 -2.3 14.8" fill="#5e3611" fill-rule="evenodd" stroke="none"/>
    <path d="M0.3 -2.4 L2.65 -1.95 Q4.1 -1.35 5.4 0.95 6.35 2.35 6.45 3.3 L6.1 7.1 5.15 7.9 Q5.45 8.3 5.35 9.35 5.2 10.3 5.35 10.3 L6.3 10.1 6.45 10.75 6.35 13.35 5.35 13.75 Q4.8 15.55 3.5 16.65 2.3 17.6 1.3 17.45 -0.4 17.25 -1.35 15.95 L-2.45 14.35 Q-2.85 12.2 -3.8 9.9 -4.7 7.6 -5.05 5.9 L-5.9 6.0 Q-6.2 4.6 -6.85 2.95 -6.9 1.0 -5.65 -0.15 -4.0 -1.7 0.3 -2.4 Z" fill="none" stroke="#0b0904" stroke-linecap="round" stroke-linejoin="round" stroke-width="1.0"/>
    <path d="M5.6 13.6 L2.7 14.35 -0.95 14.8 M-1.25 14.75 L-2.45 14.2 -1.9 10.95 1.25 11.55 5.6 10.35" fill="none" stroke="#151108" stroke-linecap="round" stroke-linejoin="round" stroke-width="1.0"/>
    <path d="M-5.05 5.85 L-3.25 4.65 Q-1.45 3.5 -1.35 3.7 L-0.2 4.35 0.9 5.0 3.55 2.05 5.1 1.4 M5.15 7.85 L2.95 8.6 0.9 5.0" fill="none" stroke="#151108" stroke-linecap="round" stroke-linejoin="round" stroke-width="1.0"/>
  </g>
  <defs>
    <radialGradient cx="0" cy="0" gradientTransform="matrix(0.0059, -0.001, 0.0024, 0.0145, -0.4, 2.6)" gradientUnits="userSpaceOnUse" id="gradient0" r="819.2" spreadMethod="pad">
      <stop offset="0.0" stop-color="#2f0e06"/>
      <stop offset="1.0" stop-color="#8f601d"/>
    </radialGradient>
  </defs>
</svg>
