<?xml version="1.0" encoding="UTF-8" standalone="no"?>
<svg xmlns:xlink="http://www.w3.org/1999/xlink" height="21.3px" width="11.65px" xmlns="http://www.w3.org/2000/svg">
  <g transform="matrix(1.0, 0.0, 0.0, 1.0, 5.7, 4.95)">
    <path d="M-3.75 0.4 L-3.75 -2.75 1.3 -2.75 Q4.45 -2.45 5.45 -4.45 L2.8 15.45 Q-0.65 13.3 -3.75 15.85 L-3.75 12.4 -0.4 12.4 -0.4 8.4 -3.75 8.4 -3.75 3.9 -0.4 3.9 -0.4 0.4 -3.75 0.4 M2.5 11.45 L0.5 11.45 0.5 13.45 2.5 13.45 2.5 11.45 M2.7 10.2 L2.7 8.2 0.7 8.2 0.7 10.2 2.7 10.2 M2.9 5.0 L0.9 5.0 0.9 7.0 2.9 7.0 2.9 5.0" fill="#333333" fill-rule="evenodd" stroke="none"/>
    <path d="M-3.75 12.4 Q-6.65 10.45 -3.75 8.4 L-0.4 8.4 -0.4 12.4 -3.75 12.4 M-3.75 3.9 Q-6.6 2.05 -3.75 0.4 L-0.4 0.4 -0.4 3.9 -3.75 3.9" fill="#666666" fill-rule="evenodd" stroke="none"/>
    <path d="M2.9 5.0 L2.9 7.0 0.9 7.0 0.9 5.0 2.9 5.0 M2.7 10.2 L0.7 10.2 0.7 8.2 2.7 8.2 2.7 10.2 M2.5 11.45 L2.5 13.45 0.5 13.45 0.5 11.45 2.5 11.45" fill="#000099" fill-rule="evenodd" stroke="none"/>
    <path d="M-3.75 0.4 L-3.75 -2.75 1.3 -2.75 Q4.45 -2.45 5.45 -4.45 L2.8 15.45 Q-0.65 13.3 -3.75 15.85 L-3.75 12.4 -0.4 12.4 -0.4 8.4 -3.75 8.4 -3.75 3.9 -0.4 3.9 -0.4 0.4 -3.75 0.4" fill="none" stroke="#171717" stroke-linecap="round" stroke-linejoin="round" stroke-width="1.0"/>
    <path d="M-3.75 12.4 Q-6.65 10.45 -3.75 8.4 M-3.75 3.9 Q-6.6 2.05 -3.75 0.4" fill="none" stroke="#2e2e2e" stroke-linecap="round" stroke-linejoin="round" stroke-width="1.0"/>
    <path d="M2.9 5.0 L2.9 7.0 0.9 7.0 0.9 5.0 2.9 5.0 M2.7 10.2 L0.7 10.2 0.7 8.2 2.7 8.2 2.7 10.2 M2.5 11.45 L2.5 13.45 0.5 13.45 0.5 11.45 2.5 11.45 Z" fill="none" stroke="#00004f" stroke-linecap="round" stroke-linejoin="round" stroke-width="1.0"/>
  </g>
</svg>
