<?xml version="1.0" encoding="UTF-8" standalone="no"?>
<svg xmlns:ffdec="https://www.free-decompiler.com/flash" xmlns:xlink="http://www.w3.org/1999/xlink" ffdec:objectType="shape" height="26.85px" width="16.7px" xmlns="http://www.w3.org/2000/svg">
  <g transform="matrix(1.0, 0.0, 0.0, 1.0, 6.75, 6.85)">
    <path d="M-3.8 -3.05 L-4.1 -5.45 -3.3 -6.35 -1.4 -5.25 -0.85 -2.9 -3.8 -3.05" fill="#b31615" fill-rule="evenodd" stroke="none"/>
    <path d="M-3.4 6.5 L-3.15 6.5 3.05 5.6 4.0 5.25 Q3.75 6.15 4.2 7.35 L5.35 10.6 Q6.05 12.7 5.6 13.1 5.1 13.5 4.7 14.4 4.3 15.3 4.05 16.35 3.75 17.4 0.4 12.45 L-3.4 6.5" fill="#2f2d30" fill-rule="evenodd" stroke="none"/>
    <path d="M-3.8 -3.05 L-4.1 -5.45 -3.3 -6.35 -1.4 -5.25 -0.85 -2.9 -3.8 -3.05" fill="none" stroke="#310206" stroke-linecap="round" stroke-linejoin="round" stroke-width="1.0"/>
    <path d="M4.0 5.25 Q3.75 6.15 4.2 7.35 L5.35 10.6 Q6.05 12.7 5.6 13.1 5.1 13.5 4.7 14.4 4.3 15.3 4.05 16.35 3.75 17.4 0.4 12.45 L-3.4 6.5" fill="none" stroke="#171717" stroke-linecap="round" stroke-linejoin="round" stroke-width="1.0"/>
    <path d="M-5.4 -1.35 L-4.15 -3.05 -1.25 -2.9 Q0.75 -1.95 1.55 -0.25 L3.9 4.95 Q0.4 6.8 -0.05 9.1 -0.2 9.95 -0.45 10.1 L-2.35 10.2 Q-4.3 8.25 -4.9 7.15 -5.6 5.95 -6.0 4.0 L-6.25 1.1 -5.4 -1.35 M-4.6 2.75 L-2.6 -0.7 -4.6 2.75 M-1.05 0.8 L-2.95 4.1 -1.05 0.8" fill="#b91313" fill-rule="evenodd" stroke="none"/>
    <path d="M-5.4 -1.35 L-6.25 1.1 -6.0 4.0 Q-5.6 5.95 -4.9 7.15 -4.3 8.25 -2.35 10.2 L-0.45 10.1 Q-0.2 9.95 -0.05 9.1 0.4 6.8 3.9 4.95 L1.55 -0.25 Q0.75 -1.95 -1.25 -2.9 L-4.15 -3.05 -5.4 -1.35" fill="none" stroke="#310206" stroke-linecap="round" stroke-linejoin="round" stroke-width="1.0"/>
    <path d="M-2.95 4.1 L-1.05 0.8 M-2.6 -0.7 L-4.6 2.75" fill="none" stroke="#80110b" stroke-linecap="round" stroke-linejoin="round" stroke-width="1.0"/>
    <path d="M6.0 11.85 L6.05 11.7 6.3 11.65 Q6.4 11.45 6.8 11.95 L7.65 13.4 9.2 16.3 Q9.6 17.0 9.4 17.95 9.2 18.8 8.3 19.15 L6.75 19.5 5.6 19.2 Q5.1 19.05 3.8 17.15 2.55 15.25 2.9 12.8 3.55 11.5 5.4 12.4 L5.6 12.15 6.0 11.85 M7.65 13.4 Q7.6 14.3 5.4 12.4 7.6 14.3 7.65 13.4" fill="#4a4a4a" fill-rule="evenodd" stroke="none"/>
    <path d="M6.0 11.85 L6.05 11.7 6.3 11.65 Q6.4 11.45 6.8 11.95 L7.65 13.4 9.2 16.3 Q9.6 17.0 9.4 17.95 9.2 18.8 8.3 19.15 L6.75 19.5 5.6 19.2 Q5.1 19.05 3.8 17.15 2.55 15.25 2.9 12.8 3.55 11.5 5.4 12.4 L5.6 12.15 M5.4 12.4 Q7.6 14.3 7.65 13.4" fill="none" stroke="#171717" stroke-linecap="round" stroke-linejoin="round" stroke-width="1.0"/>
  </g>
</svg>
