<?xml version="1.0" encoding="UTF-8" standalone="no"?>
<svg xmlns:xlink="http://www.w3.org/1999/xlink" height="20.85px" width="14.3px" xmlns="http://www.w3.org/2000/svg">
  <g transform="matrix(1.0, 0.0, 0.0, 1.0, 7.35, 2.9)">
    <path d="M6.05 1.4 Q6.4 7.85 4.05 10.15 2.05 12.1 -1.15 10.7 -4.15 9.4 -5.95 6.4 -7.85 3.15 -6.75 0.55 -3.2 -2.1 -0.2 -2.25 3.55 -2.45 6.05 1.4" fill="#0f172a" fill-rule="evenodd" stroke="none"/>
    <path d="M1.25 17.45 Q0.5 17.35 -0.55 16.5 L-2.05 15.0 Q-1.15 14.6 1.05 14.35 L5.55 13.85 3.2 16.6 Q2.1 17.55 1.25 17.45 M3.6 8.3 L4.3 8.5 5.05 8.55 Q5.5 8.8 5.5 9.2 L5.25 10.35 -2.8 11.9 -2.8 11.8 Q-4.25 11.05 -3.6 9.5 -5.65 6.55 -4.2 5.35 L-1.35 3.55 Q-0.4 3.95 1.15 5.6 L3.6 8.3" fill="#181621" fill-rule="evenodd" stroke="none"/>
    <path d="M-2.35 14.8 L-1.8 11.05 2.05 11.35 6.1 10.25 Q6.65 11.8 6.2 13.25 L2.25 14.6 -2.35 14.8" fill="#18123b" fill-rule="evenodd" stroke="none"/>
    <path d="M0.3 -2.4 L2.7 -1.9 Q4.1 -1.3 5.35 0.95 6.3 2.35 6.4 3.3 L6.1 7.1 5.2 7.9 Q5.45 8.3 5.35 9.4 L5.3 10.3 6.3 10.15 6.45 10.75 6.3 13.4 5.35 13.75 Q4.85 15.6 3.5 16.65 2.3 17.6 1.25 17.45 -0.4 17.2 -1.35 15.95 L-2.5 14.4 Q-2.9 12.15 -3.75 9.95 L-5.1 5.95 -5.95 6.0 Q-6.25 4.6 -6.85 2.95 -6.95 1.05 -5.65 -0.1 -4.05 -1.7 0.05 -2.4" fill="none" stroke="#06060b" stroke-linecap="round" stroke-linejoin="round" stroke-width="1.0"/>
    <path d="M-1.25 14.8 L-2.5 14.25 -1.9 10.95 1.25 11.6 5.6 10.35 M5.55 13.6 L2.7 14.35 -0.95 14.85" fill="none" stroke="#080815" stroke-linecap="round" stroke-linejoin="round" stroke-width="1.0"/>
    <path d="M-5.1 5.85 L-3.2 4.65 Q-1.4 3.55 -1.3 3.7 -1.2 3.95 -0.2 4.35 0.85 4.8 0.95 5.0 L3.55 2.1 5.1 1.45 M5.2 7.9 L3.0 8.65 0.95 5.0" fill="none" stroke="#080815" stroke-linecap="round" stroke-linejoin="round" stroke-width="1.0"/>
  </g>
</svg>
