<?xml version="1.0" encoding="UTF-8" standalone="no"?>
<svg xmlns:xlink="http://www.w3.org/1999/xlink" height="293.5px" width="56.0px" xmlns="http://www.w3.org/2000/svg">
  <g transform="matrix(1.0, 0.0, 0.0, 1.0, -12.5, -37.5)">
    <path d="M51.0 48.0 L51.0 46.0 51.0 48.0 49.0 52.0 47.0 51.0 49.0 46.0 51.0 46.0 51.0 45.0 53.0 45.0 53.0 41.0 57.0 41.0 57.0 45.0 59.0 45.0 59.0 46.0 61.0 46.0 63.0 51.0 61.0 52.0 59.0 48.0 57.0 50.0 57.0 52.0 58.0 53.0 58.0 61.0 55.0 61.0 52.0 61.0 52.0 53.0 53.0 52.0 53.0 50.0 51.0 48.0 M55.0 55.0 L55.0 61.0 55.0 55.0 M59.0 48.0 L59.0 46.0 59.0 48.0 M53.0 45.0 L57.0 45.0 53.0 45.0 M22.0 56.0 L22.0 44.0 29.0 54.0 25.0 54.0 22.0 56.0 M15.0 81.0 L20.0 81.0 20.0 77.0 29.0 77.0 29.0 81.0 33.0 81.0 33.0 85.0 24.0 85.0 15.0 85.0 15.0 81.0 M24.0 81.0 L29.0 81.0 24.0 81.0 24.0 85.0 24.0 81.0 20.0 81.0 24.0 81.0 M51.5 83.0 L51.0 85.0 46.0 85.0 47.0 81.0 48.0 78.0 61.0 78.0 63.0 78.0 61.0 78.0 61.0 77.0 63.0 77.0 63.0 78.0 63.0 81.0 61.0 81.0 60.0 83.0 57.0 83.0 56.0 81.0 55.0 81.0 52.0 81.0 51.5 83.0 M52.0 81.0 L47.0 81.0 52.0 81.0 M48.0 112.0 L48.0 107.0 60.0 107.0 60.0 112.0 48.0 112.0 M54.0 139.0 L60.0 139.0 60.0 141.0 58.0 141.0 58.0 149.0 50.0 149.0 50.0 141.0 48.0 141.0 48.0 139.0 54.0 139.0 M54.0 143.0 L52.0 143.0 54.0 143.0 56.0 143.0 54.0 143.0 54.0 147.0 54.0 143.0 M58.0 141.0 L50.0 141.0 58.0 141.0 M18.0 114.0 L16.0 114.0 16.0 110.0 21.0 109.0 22.0 107.0 29.0 107.0 34.0 110.0 34.0 114.0 32.0 114.0 32.0 112.0 28.0 112.0 28.0 114.0 28.0 112.0 32.0 112.0 32.0 114.0 32.0 116.0 28.0 116.0 28.0 114.0 22.0 114.0 22.0 116.0 18.0 116.0 18.0 114.0 18.0 112.0 22.0 112.0 22.0 114.0 22.0 112.0 18.0 112.0 18.0 114.0 M17.0 133.0 L32.0 133.0 32.0 148.0 17.0 148.0 17.0 133.0 M22.0 141.0 L22.0 138.0 22.0 141.0 26.0 141.0 26.0 138.0 22.0 138.0 26.0 138.0 26.0 141.0 22.0 141.0 26.0 144.0 22.0 141.0 22.0 144.0 22.0 141.0 M34.0 196.0 L34.0 200.0 28.0 206.0 16.0 206.0 16.0 202.0 22.0 196.0 34.0 196.0 28.0 202.0 28.0 206.0 28.0 202.0 34.0 196.0 M59.0 166.0 L50.0 166.0 59.0 166.0 59.0 174.0 57.0 177.0 52.0 177.0 50.0 174.0 50.0 166.0 52.0 163.0 57.0 163.0 59.0 166.0 M59.0 174.0 L50.0 174.0 59.0 174.0 M53.0 195.0 L57.0 195.0 53.0 195.0 53.0 191.0 57.0 191.0 57.0 195.0 59.0 195.0 59.0 196.0 61.0 196.0 63.0 201.0 61.0 202.0 59.0 198.0 57.0 200.0 57.0 202.0 58.0 203.0 58.0 211.0 55.0 211.0 52.0 211.0 52.0 203.0 53.0 202.0 53.0 200.0 51.0 198.0 51.0 196.0 51.0 198.0 49.0 202.0 47.0 201.0 49.0 196.0 51.0 196.0 51.0 195.0 53.0 195.0 M55.0 205.0 L55.0 211.0 55.0 205.0 M53.0 235.0 L51.0 231.0 53.0 227.0 57.0 227.0 59.0 231.0 57.0 235.0 53.0 235.0 M35.0 223.0 L35.0 226.0 24.0 226.0 24.0 229.0 24.0 232.0 24.0 235.0 24.0 238.0 24.0 241.0 13.0 241.0 13.0 238.0 13.0 235.0 13.0 232.0 13.0 229.0 13.0 226.0 13.0 223.0 13.0 220.0 24.0 220.0 24.0 223.0 35.0 223.0 M24.0 226.0 L13.0 226.0 24.0 226.0 24.0 223.0 24.0 226.0 M13.0 223.0 L24.0 223.0 13.0 223.0 M28.0 202.0 L16.0 202.0 28.0 202.0 M13.0 235.0 L24.0 235.0 13.0 235.0 M13.0 232.0 L24.0 232.0 13.0 232.0 M13.0 229.0 L24.0 229.0 13.0 229.0 M13.0 238.0 L24.0 238.0 13.0 238.0 M25.0 256.0 L22.0 259.0 25.0 256.0 28.0 259.0 25.0 256.0 25.0 264.0 25.0 256.0 M33.0 267.0 L17.0 267.0 17.0 252.0 33.0 252.0 33.0 267.0 M17.0 286.0 L17.0 282.0 21.0 282.0 25.0 282.0 29.0 282.0 33.0 282.0 33.0 286.0 33.0 290.0 33.0 294.0 33.0 298.0 29.0 298.0 25.0 298.0 21.0 298.0 17.0 298.0 17.0 294.0 17.0 290.0 17.0 286.0 21.0 286.0 21.0 282.0 21.0 286.0 17.0 286.0 M63.0 261.0 L62.0 261.0 63.0 261.0 M33.0 294.0 L29.0 294.0 25.0 294.0 25.0 290.0 29.0 290.0 29.0 294.0 29.0 290.0 25.0 290.0 25.0 294.0 29.0 294.0 33.0 294.0 M17.0 290.0 L21.0 290.0 21.0 294.0 17.0 294.0 21.0 294.0 21.0 290.0 17.0 290.0 M29.0 282.0 L29.0 286.0 25.0 286.0 25.0 290.0 21.0 290.0 21.0 286.0 25.0 286.0 21.0 286.0 21.0 290.0 25.0 290.0 25.0 286.0 25.0 282.0 25.0 286.0 29.0 286.0 29.0 282.0 M21.0 298.0 L21.0 294.0 25.0 294.0 25.0 298.0 25.0 294.0 21.0 294.0 21.0 298.0 M33.0 290.0 L29.0 290.0 29.0 286.0 33.0 286.0 29.0 286.0 29.0 290.0 33.0 290.0 M57.0 252.0 L60.0 252.0 65.0 261.0 60.0 270.0 49.5 270.0 44.0 261.0 49.5 252.0 53.0 252.0 57.0 252.0 M55.0 267.0 L55.0 268.0 55.0 267.0 M55.0 257.0 L55.0 262.0 57.0 260.0 55.0 262.0 55.0 257.0 M47.0 261.0 L46.0 261.0 47.0 261.0 M55.0 254.0 L55.0 255.0 55.0 254.0 M59.0 198.0 L59.0 196.0 59.0 198.0 M29.0 298.0 L29.0 294.0 29.0 298.0" fill="#ffffff" fill-opacity="0.101960786" fill-rule="evenodd" stroke="none"/>
    <path d="M22.0 56.0 L22.0 44.0 29.0 54.0 25.0 54.0 22.0 56.0 M48.0 112.0 L48.0 107.0 60.0 107.0 60.0 112.0 48.0 112.0 M15.0 134.0 L15.0 131.0 18.0 131.0 M17.0 133.0 L32.0 133.0 32.0 148.0 17.0 148.0 17.0 133.0 M31.0 131.0 L34.0 131.0 34.0 134.0 M34.0 147.0 L34.0 150.0 31.0 150.0 M15.0 167.0 L18.0 165.0 21.0 167.0 24.0 165.0 27.0 167.0 30.0 165.0 33.0 167.0 M16.0 171.0 L19.0 169.0 22.0 171.0 25.0 169.0 28.0 171.0 31.0 169.0 34.0 171.0 M15.0 147.0 L15.0 150.0 18.0 150.0 M15.0 175.0 L18.0 173.0 21.0 175.0 24.0 173.0 27.0 175.0 30.0 173.0 33.0 175.0 M51.0 198.0 L49.0 202.0 47.0 201.0 49.0 196.0 51.0 196.0 M53.0 235.0 L51.0 231.0 53.0 227.0 57.0 227.0 59.0 231.0 57.0 235.0 53.0 235.0 M48.0 231.0 L43.0 231.0 M45.5 240.5 L49.5 236.5 M55.0 243.0 L55.0 238.0 M68.0 231.0 L63.0 231.0 M65.0 241.0 L61.0 237.0 M55.0 224.0 L55.0 219.0 M49.0 225.0 L45.0 221.0 M62.0 225.0 L66.0 221.0 M16.0 202.0 L28.0 202.0 M33.0 267.0 L17.0 267.0 17.0 252.0 33.0 252.0 33.0 267.0 M17.0 286.0 L21.0 286.0 21.0 282.0 M33.0 286.0 L29.0 286.0 29.0 290.0 33.0 290.0 M25.0 286.0 L21.0 286.0 21.0 290.0 25.0 290.0 25.0 286.0 25.0 282.0 M25.0 298.0 L25.0 294.0 21.0 294.0 21.0 298.0 M25.0 286.0 L29.0 286.0 29.0 282.0 M17.0 294.0 L21.0 294.0 21.0 290.0 17.0 290.0 M29.0 294.0 L29.0 290.0 25.0 290.0 25.0 294.0 29.0 294.0 33.0 294.0 M62.0 261.0 L63.0 261.0 M57.0 252.0 L60.0 252.0 65.0 261.0 60.0 270.0 49.5 270.0 44.0 261.0 49.5 252.0 53.0 252.0 57.0 252.0 M55.0 255.0 L55.0 254.0 M46.0 261.0 L47.0 261.0 M57.0 260.0 L55.0 262.0 55.0 257.0 M55.0 268.0 L55.0 267.0 M62.0 282.0 L58.5 285.5 59.0 289.0 57.1 290.15 55.9 290.85 60.0 293.0 M55.0 291.0 L52.0 289.0 52.5 287.5 47.0 287.0 M57.1 290.15 L54.5 286.5 53.5 286.5 M52.5 287.5 L52.0 286.0 49.0 285.0 M54.0 300.0 L54.0 292.0 52.0 292.0 50.0 294.0 M52.0 292.0 L51.0 292.0 M54.0 292.0 L55.9 290.85 M50.0 285.0 L50.0 282.0 M53.0 290.0 L50.0 291.0 M52.0 286.0 L53.5 283.5 M54.5 286.5 L56.5 282.5 M57.5 283.5 L58.5 285.5 M64.0 299.0 L64.0 300.0 M61.0 299.0 L61.0 300.0 M59.0 298.0 L59.0 300.0 M56.0 298.0 L56.0 300.0 M51.0 298.0 L51.0 300.0 M47.0 298.0 L47.0 300.0 M49.0 298.0 L49.0 299.0 M45.0 299.0 L45.0 300.0 M29.0 294.0 L29.0 298.0 M59.0 196.0 L59.0 198.0" fill="none" stroke="#ffffff" stroke-linecap="butt" stroke-linejoin="miter-clip" stroke-miterlimit="3.0" stroke-opacity="0.5019608" stroke-width="1.0"/>
    <path d="M24.0 311.0 L24.0 312.0" fill="none" stroke="#ffffff" stroke-linecap="butt" stroke-linejoin="miter-clip" stroke-miterlimit="3.0" stroke-opacity="0.5019608" stroke-width="3.0"/>
    <path d="M24.0 317.0 L24.0 329.0" fill="none" stroke="#ffffff" stroke-linecap="butt" stroke-linejoin="miter-clip" stroke-miterlimit="3.0" stroke-opacity="0.5019608" stroke-width="4.0"/>
    <path d="M51.0 46.0 L51.0 48.0 53.0 50.0 53.0 52.0 52.0 53.0 52.0 61.0 55.0 61.0 58.0 61.0 58.0 53.0 57.0 52.0 57.0 50.0 59.0 48.0 61.0 52.0 63.0 51.0 61.0 46.0 59.0 46.0 59.0 48.0 M51.0 48.0 L49.0 52.0 47.0 51.0 49.0 46.0 51.0 46.0 51.0 45.0 53.0 45.0 53.0 41.0 57.0 41.0 57.0 45.0 59.0 45.0 59.0 46.0 M57.0 45.0 L53.0 45.0 M20.0 81.0 L20.0 77.0 29.0 77.0 29.0 81.0 33.0 81.0 33.0 85.0 24.0 85.0 24.0 81.0 29.0 81.0 M20.0 81.0 L24.0 81.0 M51.5 83.0 L51.0 85.0 46.0 85.0 47.0 81.0 48.0 78.0 61.0 78.0 61.0 77.0 63.0 77.0 63.0 78.0 61.0 78.0 M55.0 81.0 L52.0 81.0 51.5 83.0 54.0 83.0 55.0 81.0 56.0 81.0 57.0 83.0 60.0 83.0 61.0 81.0 63.0 81.0 63.0 78.0 M47.0 81.0 L52.0 81.0 M54.0 139.0 L60.0 139.0 60.0 141.0 58.0 141.0 58.0 149.0 50.0 149.0 50.0 141.0 48.0 141.0 48.0 139.0 54.0 139.0 54.0 133.0 M50.0 141.0 L58.0 141.0 M32.0 114.0 L34.0 114.0 34.0 110.0 29.0 107.0 22.0 107.0 21.0 109.0 16.0 110.0 16.0 114.0 18.0 114.0 18.0 112.0 22.0 112.0 22.0 114.0 28.0 114.0 28.0 112.0 32.0 112.0 32.0 114.0 32.0 116.0 28.0 116.0 28.0 114.0 M22.0 114.0 L22.0 116.0 18.0 116.0 18.0 114.0 M28.0 206.0 L16.0 206.0 16.0 202.0 22.0 196.0 34.0 196.0 28.0 202.0 28.0 206.0 M50.0 166.0 L59.0 166.0 57.0 163.0 52.0 163.0 50.0 166.0 50.0 174.0 59.0 174.0 59.0 166.0 M59.0 174.0 L57.0 177.0 52.0 177.0 50.0 174.0 M57.0 195.0 L53.0 195.0 51.0 195.0 51.0 196.0 51.0 198.0 53.0 200.0 53.0 202.0 52.0 203.0 52.0 211.0 55.0 211.0 58.0 211.0 58.0 203.0 57.0 202.0 57.0 200.0 59.0 198.0 61.0 202.0 63.0 201.0 61.0 196.0 59.0 196.0 59.0 195.0 57.0 195.0 57.0 191.0 53.0 191.0 53.0 195.0 M64.0 190.0 L64.0 188.0 67.0 188.0 67.0 190.0 64.0 190.0 M24.0 220.0 L35.0 220.0 35.0 223.0 35.0 226.0 35.0 229.0 35.0 232.0 35.0 235.0 35.0 238.0 35.0 241.0 24.0 241.0 13.0 241.0 13.0 238.0 13.0 235.0 13.0 232.0 13.0 229.0 13.0 226.0 13.0 223.0 13.0 220.0 24.0 220.0 24.0 223.0 35.0 223.0 M35.0 226.0 L24.0 226.0 24.0 229.0 35.0 229.0 M24.0 229.0 L24.0 232.0 35.0 232.0 M13.0 226.0 L24.0 226.0 24.0 223.0 13.0 223.0 M24.0 232.0 L24.0 235.0 35.0 235.0 M24.0 238.0 L24.0 241.0 M24.0 235.0 L24.0 238.0 35.0 238.0 M24.0 235.0 L13.0 235.0 M24.0 232.0 L13.0 232.0 M24.0 229.0 L13.0 229.0 M24.0 238.0 L13.0 238.0" fill="none" stroke="#ffffff" stroke-linecap="round" stroke-linejoin="miter-clip" stroke-miterlimit="3.0" stroke-opacity="0.5019608" stroke-width="1.0"/>
    <path d="M55.0 61.0 L55.0 55.0 M64.0 40.0 L67.0 40.0 M64.0 40.0 L64.0 42.0 67.0 42.0 M24.0 85.0 L15.0 85.0 15.0 81.0 M48.0 78.0 L48.0 77.0 M57.0 105.0 L55.0 103.0 M57.0 121.0 L59.0 119.0 M51.0 114.0 L53.0 116.0 M54.0 133.0 L59.0 133.0 M54.0 143.0 L56.0 143.0 M54.0 143.0 L54.0 147.0 M22.0 141.0 L26.0 141.0 26.0 138.0 22.0 138.0 M22.0 141.0 L22.0 144.0 M55.0 211.0 L55.0 205.0 M51.0 98.0 L53.0 100.0 M25.0 256.0 L28.0 259.0 M25.0 256.0 L25.0 264.0" fill="none" stroke="#ffffff" stroke-linecap="round" stroke-linejoin="miter-clip" stroke-miterlimit="3.0" stroke-opacity="0.5019608" stroke-width="1.0"/>
    <path d="M67.0 38.0 L64.0 38.0 64.0 40.0 M15.0 81.0 L20.0 81.0 M59.0 103.0 L57.0 105.0 57.0 98.0 M57.0 114.0 L57.0 121.0 55.0 119.0 M49.0 116.0 L51.0 114.0 51.0 121.0 M49.0 133.0 L54.0 133.0 M52.0 143.0 L54.0 143.0 M22.0 138.0 L22.0 141.0 26.0 144.0 M34.0 196.0 L34.0 200.0 28.0 206.0 M64.0 192.0 L64.0 190.0 M49.0 100.0 L51.0 98.0 51.0 105.0 M22.0 259.0 L25.0 256.0" fill="none" stroke="#ffffff" stroke-linecap="butt" stroke-linejoin="miter-clip" stroke-miterlimit="3.0" stroke-opacity="0.5019608" stroke-width="1.0"/>
  </g>
</svg>
