<?xml version="1.0" encoding="UTF-8" standalone="no"?>
<svg xmlns:ffdec="https://www.free-decompiler.com/flash" xmlns:xlink="http://www.w3.org/1999/xlink" ffdec:objectType="shape" height="25.4px" width="20.05px" xmlns="http://www.w3.org/2000/svg">
  <g transform="matrix(1.0, 0.0, 0.0, 1.0, 10.95, 10.65)">
    <path d="M1.75 9.15 L0.9 9.85 Q-0.65 10.95 -2.95 11.5 L-4.75 11.8 -5.4 11.8 -6.8 13.75 Q-7.5 14.55 -8.5 14.1 L-9.05 13.85 -10.45 12.8 -10.15 9.65 -6.6 8.4 -3.7 3.9 -1.6 3.6 0.2 3.1 1.5 4.85 1.85 5.45 1.25 8.85 1.75 9.15 M-1.6 3.6 L-3.75 6.85 -2.35 8.0 1.5 4.85 -2.35 8.0 -3.75 6.85 -1.6 3.6" fill="#414141" fill-rule="evenodd" stroke="none"/>
    <path d="M7.35 5.9 L8.3 8.45 7.0 9.8 5.4 10.45 3.95 10.5 1.75 9.15 1.25 8.85 1.85 5.45 3.45 7.05 7.35 5.9" fill="#323232" fill-rule="evenodd" stroke="none"/>
    <path d="M-3.7 3.9 L-5.25 4.2 -8.75 -2.7 -3.95 -9.8 Q5.45 -11.65 7.85 -3.15 9.05 1.1 8.35 5.65 L7.35 5.9 3.45 7.05 1.85 5.45 1.5 4.85 0.2 3.1 -1.6 3.6 -3.7 3.9 M6.65 0.15 L6.5 3.8 4.0 4.45 6.5 3.8 6.65 0.15 M-1.3 -1.8 L4.75 -0.5 4.6 2.1 4.75 -0.5 -1.3 -1.8" fill="#596470" fill-rule="evenodd" stroke="none"/>
    <path d="M-3.7 3.9 L-5.25 4.2 -8.75 -2.7 -3.95 -9.8 Q5.45 -11.65 7.85 -3.15 9.05 1.1 8.35 5.65 L7.35 5.9 3.45 7.05 1.85 5.45" fill="none" stroke="#3a4048" stroke-linecap="round" stroke-linejoin="round" stroke-width="1.0"/>
    <path d="M4.6 2.1 L4.75 -0.5 -1.3 -1.8 M4.0 4.45 L6.5 3.8 6.65 0.15" fill="none" stroke="#454c56" stroke-linecap="round" stroke-linejoin="round" stroke-width="1.0"/>
    <path d="M1.5 4.85 L-2.35 8.0 -3.75 6.85 -1.6 3.6" fill="none" stroke="#272727" stroke-linecap="round" stroke-linejoin="round" stroke-width="1.0"/>
    <path d="M7.35 5.9 L8.3 8.45 7.0 9.8 5.4 10.45 3.95 10.5 1.75 9.15 0.9 9.85 Q-0.65 10.95 -2.95 11.5 L-4.75 11.8 -5.4 11.8 -6.8 13.75 Q-7.5 14.55 -8.5 14.1 L-9.05 13.85 -10.45 12.8 -10.15 9.65 -6.6 8.4 -3.7 3.9 M1.85 5.45 L1.25 8.85 1.75 9.15" fill="none" stroke="#232323" stroke-linecap="round" stroke-linejoin="round" stroke-width="1.0"/>
    <path d="M-3.7 3.9 L-1.6 3.6 0.2 3.1 1.5 4.85 1.85 5.45" fill="none" stroke="#2e343a" stroke-linecap="round" stroke-linejoin="round" stroke-width="1.0"/>
    <path d="M-4.0 -1.25 Q-4.45 -0.8 -5.05 -0.8 -5.6 -0.75 -6.05 -1.25 -6.45 -1.7 -6.45 -2.3 L-6.0 -3.3 -5.05 -3.7 Q-4.45 -3.7 -4.0 -3.3 -3.55 -2.8 -3.55 -2.25 -3.6 -1.65 -4.0 -1.25" fill="#41c2ff" fill-rule="evenodd" stroke="none"/>
    <path d="M-4.0 -1.25 Q-4.45 -0.8 -5.05 -0.8 -5.6 -0.75 -6.05 -1.25 -6.45 -1.7 -6.45 -2.3 L-6.0 -3.3 -5.05 -3.7 Q-4.45 -3.7 -4.0 -3.3 -3.55 -2.8 -3.55 -2.25 -3.6 -1.65 -4.0 -1.25 Z" fill="none" stroke="#3a4048" stroke-linecap="round" stroke-linejoin="round" stroke-width="1.0"/>
    <path d="M-2.55 1.75 Q-2.85 2.1 -3.35 2.1 L-4.3 1.75 Q-4.65 1.4 -4.65 0.9 -4.65 0.4 -4.25 0.05 L-3.4 -0.25 -2.55 0.05 Q-2.15 0.45 -2.2 0.95 -2.25 1.45 -2.55 1.75" fill="#41c2ff" fill-rule="evenodd" stroke="none"/>
    <path d="M-2.55 1.75 Q-2.85 2.1 -3.35 2.1 L-4.3 1.75 Q-4.65 1.4 -4.65 0.9 -4.65 0.4 -4.25 0.05 L-3.4 -0.25 -2.55 0.05 Q-2.15 0.45 -2.2 0.95 -2.25 1.45 -2.55 1.75 Z" fill="none" stroke="#3a4048" stroke-linecap="round" stroke-linejoin="round" stroke-width="1.0"/>
  </g>
</svg>
