<?xml version="1.0" encoding="UTF-8" standalone="no"?>
<svg xmlns:xlink="http://www.w3.org/1999/xlink" height="20.8px" width="14.3px" xmlns="http://www.w3.org/2000/svg">
  <g transform="matrix(1.0, 0.0, 0.0, 1.0, 7.3, 2.85)">
    <path d="M-6.7 0.55 Q-3.1 -2.1 -0.1 -2.25 3.65 -2.4 6.1 1.4 6.45 7.85 4.1 10.15 2.1 12.15 -1.1 10.75 -4.1 9.45 -5.9 6.4 -7.85 3.2 -6.7 0.55" fill="#261313" fill-rule="evenodd" stroke="none"/>
    <path d="M1.35 17.45 Q0.55 17.4 -0.5 16.55 L-2.0 15.05 Q-0.85 14.5 5.6 13.9 L3.25 16.6 Q2.15 17.6 1.35 17.45 M3.65 8.35 L5.05 8.55 Q5.55 8.8 5.55 9.2 L5.25 10.35 -2.7 11.9 -2.7 11.85 Q-4.25 11.15 -3.55 9.55 -5.65 6.6 -4.1 5.45 -1.85 4.45 -1.35 3.6 0.1 4.15 3.65 8.35" fill="#130f0f" fill-rule="evenodd" stroke="none"/>
    <path d="M-2.25 14.85 L-1.7 11.1 2.1 11.35 6.15 10.25 Q6.7 11.85 6.25 13.25 4.0 14.3 2.3 14.65 L-2.25 14.85" fill="#261616" fill-rule="evenodd" stroke="none"/>
    <path d="M0.35 -2.35 L2.7 -1.9 Q4.15 -1.3 5.45 1.05 6.4 2.4 6.5 3.4 L6.15 7.15 5.2 7.95 Q5.5 8.35 5.4 9.45 5.25 10.35 5.4 10.35 L6.35 10.15 6.5 10.8 6.4 13.4 5.4 13.85 Q4.85 15.7 3.55 16.7 2.35 17.6 1.35 17.45 -0.3 17.3 -1.3 16.05 L-2.4 14.4 Q-2.8 12.25 -3.75 9.95 L-5.0 5.95 Q-5.7 6.45 -5.85 6.05 -6.15 4.65 -6.8 3.05 -6.85 1.1 -5.6 -0.1 -3.95 -1.65 0.35 -2.35 Z" fill="none" stroke="#0a0707" stroke-linecap="round" stroke-linejoin="round" stroke-width="1.0"/>
    <path d="M-1.2 14.8 L-2.45 14.25 -1.85 11.0 1.3 11.65 5.65 10.4 M5.65 13.7 L2.7 14.4 -0.9 14.85" fill="none" stroke="#0f0a0a" stroke-linecap="round" stroke-linejoin="round" stroke-width="1.0"/>
    <path d="M-5.0 5.9 L-3.2 4.7 Q-1.4 3.6 -1.3 3.75 L-0.15 4.4 0.95 5.05 3.6 2.1 5.15 1.5 M0.95 5.05 L3.0 8.65 5.2 7.9" fill="none" stroke="#0f0a0a" stroke-linecap="round" stroke-linejoin="round" stroke-width="1.0"/>
  </g>
</svg>
