<?xml version="1.0" encoding="UTF-8" standalone="no"?>
<svg xmlns:xlink="http://www.w3.org/1999/xlink" height="21.2px" width="12.6px" xmlns="http://www.w3.org/2000/svg">
  <g transform="matrix(1.0, 0.0, 0.0, 1.0, 6.2, 3.95)">
    <path d="M0.95 -2.8 Q4.05 -4.25 5.9 -2.35 L5.9 -0.65 2.75 -0.75 2.65 0.8 5.45 2.5 4.95 3.95 2.75 4.15 Q0.7 3.9 -0.7 2.1 L-0.75 2.1 Q-1.1 0.45 -0.55 -1.2 -1.1 0.45 -0.75 2.1 L-4.45 1.75 Q-4.8 0.75 -4.55 -1.4 L-3.7 -1.45 -3.4 -1.4 -1.85 -1.15 -0.55 -1.2 Q0.3 -1.55 0.95 -2.75 L0.95 -2.8" fill="#ffffff" fill-rule="evenodd" stroke="none"/>
    <path d="M0.95 -2.75 Q0.3 -1.55 -0.55 -1.2 L-1.85 -1.15 -3.4 -1.4 Q-2.1 -3.5 0.95 -2.75 M-0.75 2.1 L-0.7 2.1 Q0.7 3.9 2.75 4.15 L2.35 5.45 0.3 5.0 Q-2.8 4.6 -4.7 3.65 -5.0 3.2 -4.45 1.75 L-0.75 2.1 M1.0 15.0 Q-1.9 17.7 -4.15 16.25 L-4.45 15.15 1.0 15.0" fill="#333333" fill-rule="evenodd" stroke="none"/>
    <path d="M2.35 5.45 L3.95 5.4 Q3.25 10.7 1.0 15.0 L-4.45 15.15 -4.7 15.3 Q-5.85 8.65 -5.65 7.2 -5.5 5.7 -4.7 3.65 -2.8 4.6 0.3 5.0 L2.35 5.45 M-3.9 12.8 L-1.85 12.8 -3.9 12.8 M-2.3 11.3 L-3.95 11.3 -2.3 11.3" fill="#cccccc" fill-rule="evenodd" stroke="none"/>
    <path d="M5.45 2.5 L2.65 0.8 2.75 -0.75 5.9 -0.65 5.45 2.5" fill="#990000" fill-rule="evenodd" stroke="none"/>
    <path d="M2.75 4.15 L2.35 5.45 M1.0 15.0 Q-1.9 17.7 -4.15 16.25 L-4.45 15.15 M-4.7 3.65 Q-5.0 3.2 -4.45 1.75 M-3.4 -1.4 Q-2.1 -3.5 0.95 -2.75" fill="none" stroke="#000000" stroke-linecap="round" stroke-linejoin="round" stroke-width="1.0"/>
    <path d="M-0.55 -1.2 Q-1.1 0.45 -0.75 2.1 M-3.95 11.3 L-2.3 11.3 M-1.85 12.8 L-3.9 12.8" fill="none" stroke="#999999" stroke-linecap="round" stroke-linejoin="round" stroke-width="1.0"/>
    <path d="M0.95 -2.8 L0.95 -2.75 Q0.3 -1.55 -0.55 -1.2 L-1.85 -1.15 -3.4 -1.4 M-0.75 2.1 L-0.7 2.1 Q0.7 3.9 2.75 4.15 M-4.45 15.15 L-4.7 15.3 M2.35 5.45 L0.3 5.0 Q-2.8 4.6 -4.7 3.65 M-4.45 1.75 L-0.75 2.1 M-4.45 15.15 L1.0 15.0" fill="none" stroke="#666666" stroke-linecap="round" stroke-linejoin="round" stroke-width="1.0"/>
    <path d="M2.35 5.45 L3.95 5.4 Q3.25 10.7 1.0 15.0 M-4.7 15.3 Q-5.85 8.65 -5.65 7.2 -5.5 5.7 -4.7 3.65" fill="none" stroke="#444444" stroke-linecap="round" stroke-linejoin="round" stroke-width="1.0"/>
    <path d="M-4.45 1.75 Q-4.8 0.75 -4.55 -1.4 L-3.7 -1.45 -3.4 -1.4" fill="none" stroke="#3c3c3c" stroke-linecap="round" stroke-linejoin="round" stroke-width="1.0"/>
    <path d="M5.9 -0.65 L5.9 -2.35 Q4.05 -4.25 0.95 -2.8 M2.75 4.15 L4.95 3.95 5.45 2.5" fill="none" stroke="#4d4d4d" stroke-linecap="round" stroke-linejoin="round" stroke-width="1.0"/>
    <path d="M5.45 2.5 L2.65 0.8 2.75 -0.75 5.9 -0.65" fill="none" stroke="#660000" stroke-linecap="round" stroke-linejoin="round" stroke-width="1.0"/>
  </g>
</svg>
