<?xml version="1.0" encoding="UTF-8" standalone="no"?>
<svg xmlns:xlink="http://www.w3.org/1999/xlink" height="21.3px" width="12.3px" xmlns="http://www.w3.org/2000/svg">
  <g transform="matrix(1.0, 0.0, 0.0, 1.0, 7.0, 4.35)">
    <path d="M3.65 6.05 L1.35 2.1 1.65 -1.7 4.75 -1.85 4.8 -1.1 Q4.9 1.35 3.65 6.05" fill="#cc0000" fill-rule="evenodd" stroke="none"/>
    <path d="M-0.9 1.05 Q-1.3 5.55 -5.45 6.25 -6.15 3.9 -4.65 0.0 L-3.0 0.75 -0.9 1.05 M-5.35 15.25 Q-1.95 12.8 2.05 15.1 -1.9 17.7 -5.35 15.25" fill="#999999" fill-rule="evenodd" stroke="none"/>
    <path d="M4.75 -1.85 L1.65 -1.7 1.35 2.1 3.65 6.05 3.5 10.8 Q3.25 12.35 2.05 15.1 -1.95 12.8 -5.35 15.25 L-6.45 8.65 Q-6.8 5.85 -5.45 6.25 -1.3 5.55 -0.9 1.05 -0.9 -0.1 0.05 -2.4 -0.9 -0.1 -0.9 1.05 L-3.0 0.75 -4.65 0.0 Q-3.95 -1.1 -2.6 -0.95 -1.3 -0.8 0.05 -2.4 0.95 -3.55 1.65 -3.75 2.35 -3.95 3.55 -3.75 4.55 -3.6 4.75 -1.85 M-4.35 11.4 L-4.65 8.8 -4.35 11.4" fill="#cccccc" fill-rule="evenodd" stroke="none"/>
    <path d="M4.75 -1.85 L1.65 -1.7 1.35 2.1 3.65 6.05" fill="none" stroke="#660000" stroke-linecap="round" stroke-linejoin="round" stroke-width="1.0"/>
    <path d="M3.65 6.05 Q4.9 1.35 4.8 -1.1 L4.75 -1.85" fill="none" stroke="#330000" stroke-linecap="round" stroke-linejoin="round" stroke-width="1.0"/>
    <path d="M4.75 -1.85 Q4.55 -3.6 3.55 -3.75 2.35 -3.95 1.65 -3.75 0.95 -3.55 0.05 -2.4 -0.9 -0.1 -0.9 1.05 -1.3 5.55 -5.45 6.25 -6.8 5.85 -6.45 8.65 L-5.35 15.25 Q-1.95 12.8 2.05 15.1 3.25 12.35 3.5 10.8 L3.65 6.05 M-5.45 6.25 Q-6.15 3.9 -4.65 0.0 -3.95 -1.1 -2.6 -0.95 -1.3 -0.8 0.05 -2.4 M-4.65 0.0 L-3.0 0.75 -0.9 1.05 M2.05 15.1 Q-1.9 17.7 -5.35 15.25" fill="none" stroke="#333333" stroke-linecap="round" stroke-linejoin="round" stroke-width="1.0"/>
    <path d="M-4.65 8.8 L-4.35 11.4" fill="none" stroke="#666666" stroke-linecap="round" stroke-linejoin="round" stroke-width="1.0"/>
  </g>
</svg>
