<?xml version="1.0" encoding="UTF-8" standalone="no"?>
<svg xmlns:ffdec="https://www.free-decompiler.com/flash" xmlns:xlink="http://www.w3.org/1999/xlink" ffdec:objectType="shape" height="24.2px" width="11.3px" xmlns="http://www.w3.org/2000/svg">
  <g transform="matrix(1.0, 0.0, 0.0, 1.0, 6.0, 4.6)">
    <path d="M2.35 -0.25 L2.45 -0.25 Q2.9 -0.25 3.2 -0.55 L3.5 -1.3 3.2 -2.05 2.45 -2.35 2.35 -2.35 2.2 -2.35 Q1.75 -2.35 1.45 -2.05 1.15 -1.75 1.15 -1.3 1.15 -0.85 1.45 -0.55 1.75 -0.25 2.2 -0.25 L2.35 -0.25 M0.15 -0.5 Q0.15 -1.5 0.4 -2.2 0.7 -3.45 1.4 -3.85 L2.85 -4.05 Q4.7 -3.6 4.8 -1.1 4.9 1.35 3.45 5.8 L2.75 7.4 Q1.7 9.0 0.9 5.1 0.4 2.85 0.25 1.2 L0.15 -0.5 0.25 1.2 -0.9 1.05 -3.0 0.75 -4.9 0.75 Q-4.9 0.25 -3.8 0.0 L-2.5 -0.25 0.15 -0.5 M1.55 13.25 L1.75 14.0 Q1.8 15.05 1.25 16.7 L0.75 17.95 Q-0.2 20.0 -1.0 18.4 L-4.45 18.65 Q-5.7 18.15 -5.45 16.65 -5.25 15.5 -4.4 15.15 L-3.75 15.0 -1.95 15.25 Q-2.15 14.0 -1.9 13.3 -1.4 12.05 0.1 12.3 1.15 12.5 1.55 13.25 M2.8 1.6 L2.95 1.2 2.8 0.8 2.4 0.65 Q2.15 0.65 2.0 0.8 1.85 0.95 1.85 1.2 L2.0 1.6 2.4 1.75 2.8 1.6 2.4 1.75 2.0 1.6 1.85 1.2 Q1.85 0.95 2.0 0.8 2.15 0.65 2.4 0.65 L2.8 0.8 2.95 1.2 2.8 1.6 M-1.0 18.4 L-1.35 17.5 -1.95 15.25 -1.35 17.5 -1.0 18.4" fill="#aeaeae" fill-rule="evenodd" stroke="none"/>
    <path d="M2.3 9.95 L1.55 13.25 Q1.15 12.5 0.1 12.3 -1.4 12.05 -1.9 13.3 -2.15 14.0 -1.95 15.25 L-3.75 15.0 -4.4 15.15 -5.3 8.7 Q-5.75 4.3 -4.9 0.75 L-3.0 0.75 -0.9 1.05 Q-1.3 6.15 -0.45 9.5 0.4 12.8 2.3 9.95" fill="#808080" fill-rule="evenodd" stroke="none"/>
    <path d="M2.35 -2.35 L2.45 -2.35 3.2 -2.05 3.5 -1.3 3.2 -0.55 Q2.9 -0.25 2.45 -0.25 L2.35 -0.25 Q1.95 -0.3 1.7 -0.55 1.4 -0.85 1.4 -1.3 1.4 -1.75 1.7 -2.05 1.95 -2.3 2.35 -2.35" fill="#0099ff" fill-rule="evenodd" stroke="none"/>
    <path d="M0.25 1.2 Q0.4 2.85 0.9 5.1 1.7 9.0 2.75 7.4 L2.3 9.95 Q0.4 12.8 -0.45 9.5 -1.3 6.15 -0.9 1.05 L0.25 1.2" fill="#595959" fill-rule="evenodd" stroke="none"/>
    <path d="M0.15 -0.5 L0.25 1.2" fill="none" stroke="#666666" stroke-linecap="round" stroke-linejoin="round" stroke-width="1.0"/>
    <path d="M1.55 13.25 Q1.15 12.5 0.1 12.3 -1.4 12.05 -1.9 13.3 -2.15 14.0 -1.95 15.25 L-1.35 17.5 -1.0 18.4 M-4.4 15.15 L-3.75 15.0 -1.95 15.25" fill="none" stroke="#6f6f6f" stroke-linecap="round" stroke-linejoin="round" stroke-width="1.0"/>
    <path d="M0.25 1.2 Q0.4 2.85 0.9 5.1 1.7 9.0 2.75 7.4 M2.3 9.95 Q0.4 12.8 -0.45 9.5 -1.3 6.15 -0.9 1.05 L0.25 1.2" fill="none" stroke="#444444" stroke-linecap="round" stroke-linejoin="round" stroke-width="1.0"/>
    <path d="M2.35 -0.25 L2.45 -0.25 Q2.9 -0.25 3.2 -0.55 L3.5 -1.3 3.2 -2.05 2.45 -2.35 2.35 -2.35 Q1.95 -2.3 1.7 -2.05 1.4 -1.75 1.4 -1.3 1.4 -0.85 1.7 -0.55 1.95 -0.3 2.35 -0.25 M2.8 1.6 L2.4 1.75 2.0 1.6 1.85 1.2 Q1.85 0.95 2.0 0.8 2.15 0.65 2.4 0.65 L2.8 0.8 2.95 1.2 2.8 1.6" fill="none" stroke="#014d7e" stroke-linecap="round" stroke-linejoin="round" stroke-width="1.0"/>
    <path d="M2.75 7.4 L2.3 9.95 1.55 13.25 M-4.4 15.15 L-5.3 8.7 Q-5.75 4.3 -4.9 0.75" fill="none" stroke="#373737" stroke-linecap="round" stroke-linejoin="round" stroke-width="1.0"/>
    <path d="M2.75 7.4 L3.45 5.8 Q4.9 1.35 4.8 -1.1 4.7 -3.6 2.85 -4.05 L1.4 -3.85 Q0.7 -3.45 0.4 -2.2 0.15 -1.5 0.15 -0.5" fill="none" stroke="#555555" stroke-linecap="round" stroke-linejoin="round" stroke-width="1.0"/>
    <path d="M1.55 13.25 L1.75 14.0 Q1.8 15.05 1.25 16.7 L0.75 17.95 Q-0.2 20.0 -1.0 18.4 L-4.45 18.65 Q-5.7 18.15 -5.45 16.65 -5.25 15.5 -4.4 15.15 M-4.9 0.75 Q-4.9 0.25 -3.8 0.0 L-2.5 -0.25 0.15 -0.5 M-0.9 1.05 L-3.0 0.75 -4.9 0.75" fill="none" stroke="#484848" stroke-linecap="round" stroke-linejoin="round" stroke-width="1.0"/>
  </g>
</svg>
