<?xml version="1.0" encoding="UTF-8" standalone="no"?>
<svg xmlns:xlink="http://www.w3.org/1999/xlink" height="28.45px" width="16.25px" xmlns="http://www.w3.org/2000/svg">
  <g transform="matrix(1.0, 0.0, 0.0, 1.0, 6.1, 4.1)">
    <path d="M-4.4 -3.6 Q-1.7 0.05 1.85 -1.55 L2.65 -1.0 3.0 7.75 3.25 8.05 1.25 9.55 0.5 11.8 2.55 14.95 2.4 19.2 0.5 20.25 0.7 23.35 -2.45 23.7 -2.75 23.35 -4.7 20.85 -4.6 19.9 -4.55 18.85 -3.9 18.45 -1.85 17.2 -1.65 13.25 -4.35 10.75 -5.1 10.1 -5.1 9.3 -4.3 9.35 -2.2 7.6 -2.05 4.7 -3.45 2.1 -5.05 2.0 -5.4 -3.0 -5.0 -3.55 -4.45 -3.6 -4.4 -3.6 M-0.8 21.95 L-1.1 19.65 1.0 18.3 1.0 16.1 1.0 18.3 -1.1 19.65 -0.8 21.95 M1.7 2.95 L-0.6 4.5 1.7 2.95 M1.7 4.9 L-0.6 6.4 1.7 4.9" fill="#666f78" fill-rule="evenodd" stroke="none"/>
    <path d="M0.7 23.35 L0.5 20.25 2.4 19.2 2.55 14.95 0.5 11.8 1.25 9.55 3.25 8.05 8.65 15.6 9.65 19.55 7.1 22.6 0.7 23.35 M6.3 17.15 L4.9 17.2 6.3 17.15 M3.2 10.7 L7.0 15.65 7.8 19.05 5.05 19.2 7.8 19.05 7.0 15.65 3.2 10.7" fill="#7b858f" fill-rule="evenodd" stroke="none"/>
    <path d="M-4.35 10.75 L-1.65 13.25 -1.85 17.2 -3.9 18.45 -4.35 10.75 M-4.6 19.9 L-4.7 20.85 -2.75 23.35 -5.45 23.85 -5.6 21.1 -4.6 19.9" fill="#454a50" fill-rule="evenodd" stroke="none"/>
    <path d="M3.0 7.75 L2.65 -1.0 1.85 -1.55 Q-1.7 0.05 -4.4 -3.6 M-4.45 -3.6 L-5.0 -3.55 -5.4 -3.0 -5.05 2.0" fill="none" stroke="#292d32" stroke-linecap="round" stroke-linejoin="round" stroke-width="1.0"/>
    <path d="M0.7 23.35 L0.5 20.25 2.4 19.2 2.55 14.95 0.5 11.8 1.25 9.55 3.25 8.05 3.0 7.75 M3.25 8.05 L8.65 15.6 9.65 19.55 7.1 22.6 0.7 23.35" fill="none" stroke="#31363c" stroke-linecap="round" stroke-linejoin="round" stroke-width="1.0"/>
    <path d="M1.0 16.1 L1.0 18.3 -1.1 19.65 -0.8 21.95" fill="none" stroke="#4f545d" stroke-linecap="round" stroke-linejoin="round" stroke-width="1.0"/>
    <path d="M5.05 19.2 L7.8 19.05 7.0 15.65 3.2 10.7 M4.9 17.2 L6.3 17.15" fill="none" stroke="#666d75" stroke-linecap="round" stroke-linejoin="round" stroke-width="1.0"/>
    <path d="M-5.1 9.3 L-5.1 10.1 -4.35 10.75 -1.65 13.25 -1.85 17.2 -3.9 18.45 -4.55 18.85 -4.6 19.9 -4.7 20.85 -2.75 23.35 M-2.45 23.7 L0.7 23.35" fill="none" stroke="#292c31" stroke-linecap="round" stroke-linejoin="round" stroke-width="1.0"/>
    <path d="M-2.75 23.35 L-2.45 23.7 M-4.6 19.9 L-5.6 21.1 -5.45 23.85 -2.75 23.35 M-3.9 18.45 L-4.35 10.75" fill="none" stroke="#1b1c21" stroke-linecap="round" stroke-linejoin="round" stroke-width="1.0"/>
    <path d="M-0.6 6.4 L1.7 4.9 M-0.6 4.5 L1.7 2.95" fill="none" stroke="#4e555d" stroke-linecap="round" stroke-linejoin="round" stroke-width="1.0"/>
    <path d="M-5.5 9.25 L-5.55 1.95 -3.45 2.1 -2.05 4.7 -2.25 7.6 -4.35 9.3 -5.5 9.25" fill="#454a50" fill-rule="evenodd" stroke="none"/>
    <path d="M-5.5 9.25 L-5.55 1.95 -3.45 2.1 -2.05 4.7 -2.25 7.6 -4.35 9.3 -5.5 9.25 Z" fill="none" stroke="#1b1c21" stroke-linecap="round" stroke-linejoin="round" stroke-width="1.0"/>
  </g>
</svg>
