<?xml version="1.0" encoding="UTF-8" standalone="no"?>
<svg xmlns:xlink="http://www.w3.org/1999/xlink" height="20.2px" width="11.35px" xmlns="http://www.w3.org/2000/svg">
  <g transform="matrix(1.0, 0.0, 0.0, 1.0, 6.35, 1.4)">
    <path d="M-5.3 1.75 Q-5.05 0.0 -4.45 -0.9 L-2.8 0.0 -1.9 0.45 -2.6 3.85 -1.9 5.2 -3.15 11.15 -4.8 11.7 -5.2 11.8 Q-5.5 9.5 -5.35 6.7 L-4.25 6.45 -3.65 2.45 -5.3 1.75" fill="#e1e1e1" fill-rule="evenodd" stroke="none"/>
    <path d="M2.75 -0.05 L-0.2 0.7 -0.85 3.45 0.0 4.8 -1.25 10.8 Q-1.75 13.1 -0.7 14.9 L-0.6 15.05 -1.3 15.15 -2.5 15.4 -4.5 15.15 -4.65 15.2 -4.75 15.25 -4.8 11.7 -3.15 11.15 -1.9 5.2 -2.6 3.85 -1.9 0.45 -2.8 0.0 -0.85 0.15 2.75 -0.05" fill="#595958" fill-rule="evenodd" stroke="none"/>
    <path d="M2.75 -0.05 L3.1 -0.15 4.5 2.85 3.05 8.75 1.2 11.65 0.5 15.7 0.15 15.45 Q-0.15 15.2 -0.6 15.05 L-0.7 14.9 Q-1.75 13.1 -1.25 10.8 L0.0 4.8 -0.85 3.45 -0.2 0.7 2.75 -0.05" fill="#a7a7a7" fill-rule="evenodd" stroke="none"/>
    <path d="M-0.6 15.05 Q-0.15 15.2 0.15 15.45 L0.5 15.7 Q1.05 16.2 1.0 16.75 0.95 17.45 0.0 17.95 -0.95 18.4 -2.25 18.3 -3.6 18.25 -4.65 17.65 -5.8 17.0 -5.75 16.3 L-5.7 16.05 Q-5.5 15.55 -4.75 15.25 L-4.65 15.2 -4.5 15.15 -2.5 15.4 -1.3 15.15 -0.6 15.05" fill="#6e797a" fill-rule="evenodd" stroke="none"/>
    <path d="M-5.3 1.75 L-3.65 2.45 -4.25 6.45 -5.35 6.7 -5.7 6.8 Q-6.0 4.8 -5.65 3.05 L-5.3 1.75" fill="url(#gradient0)" fill-rule="evenodd" stroke="none"/>
    <path d="M0.5 15.7 L1.2 11.65 3.05 8.75 4.5 2.85 3.1 -0.15 M-2.8 0.0 L-4.45 -0.9 Q-5.05 0.0 -5.3 1.75 M-5.35 6.7 Q-5.5 9.5 -5.2 11.8 L-4.8 11.7 -3.15 11.15 -1.9 5.2 -2.6 3.85 -1.9 0.45 -2.8 0.0" fill="none" stroke="#717171" stroke-linecap="round" stroke-linejoin="round" stroke-width="1.0"/>
    <path d="M-4.75 15.25 L-4.8 11.7" fill="none" stroke="#3c3c3c" stroke-linecap="round" stroke-linejoin="round" stroke-width="1.0"/>
    <path d="M3.1 -0.15 L2.75 -0.05 -0.2 0.7 -0.85 3.45 0.0 4.8 -1.25 10.8 Q-1.75 13.1 -0.7 14.9 L-0.6 15.05" fill="none" stroke="#434343" stroke-linecap="round" stroke-linejoin="round" stroke-width="1.0"/>
    <path d="M-0.6 15.05 Q-0.15 15.2 0.15 15.45 L0.5 15.7 Q1.05 16.2 1.0 16.75 0.95 17.45 0.0 17.95 -0.95 18.4 -2.25 18.3 -3.6 18.25 -4.65 17.65 -5.8 17.0 -5.75 16.3 L-5.7 16.05 Q-5.5 15.55 -4.75 15.25 L-4.65 15.2 -4.5 15.15 -2.5 15.4 -1.3 15.15 -0.6 15.05" fill="none" stroke="#353536" stroke-linecap="round" stroke-linejoin="round" stroke-width="1.0"/>
    <path d="M-5.3 1.75 L-3.65 2.45 -4.25 6.45 -5.35 6.7 -5.7 6.8 Q-6.0 4.8 -5.65 3.05 L-5.3 1.75 Z" fill="none" stroke="#262f40" stroke-linecap="round" stroke-linejoin="round" stroke-width="1.0"/>
  </g>
  <defs>
    <linearGradient gradientTransform="matrix(-0.0013, 0.0, 0.0, 0.0013, -4.75, 4.25)" gradientUnits="userSpaceOnUse" id="gradient0" spreadMethod="pad" x1="-819.2" x2="819.2">
      <stop offset="0.0" stop-color="#5b9666"/>
      <stop offset="1.0" stop-color="#253159"/>
    </linearGradient>
  </defs>
</svg>
