<?xml version="1.0" encoding="UTF-8" standalone="no"?>
<svg xmlns:ffdec="https://www.free-decompiler.com/flash" xmlns:xlink="http://www.w3.org/1999/xlink" ffdec:objectType="shape" height="20.15px" width="14.4px" xmlns="http://www.w3.org/2000/svg">
  <g transform="matrix(1.0, 0.0, 0.0, 1.0, 6.0, 1.5)">
    <path d="M6.3 11.15 Q7.15 12.1 7.6 13.45 8.15 15.0 7.65 16.0 L4.2 15.1 3.8 14.25 Q3.4 13.25 3.6 12.9 4.6 10.75 6.3 11.15" fill="#2b2c37" fill-rule="evenodd" stroke="none"/>
    <path d="M4.2 15.1 L3.8 14.25 Q3.4 13.25 3.6 12.9 4.6 10.75 6.3 11.15 7.15 12.1 7.6 13.45 8.15 15.0 7.65 16.0" fill="none" stroke="#131318" stroke-linecap="round" stroke-linejoin="round" stroke-width="1.05"/>
    <path d="M4.6 14.45 L5.45 14.3 7.65 16.0 7.15 16.95 Q6.55 17.95 5.9 18.15 L4.45 17.5 Q3.7 16.75 4.15 15.4 L4.4 14.8 4.6 14.45" fill="#2b2c37" fill-rule="evenodd" stroke="none"/>
    <path d="M4.6 14.45 L4.4 14.8 4.15 15.4 Q3.7 16.75 4.45 17.5 L5.9 18.15 Q6.55 17.95 7.15 16.95 L7.65 16.0 5.45 14.3 4.6 14.45 Z" fill="none" stroke="#131318" stroke-linecap="round" stroke-linejoin="round" stroke-width="1.05"/>
    <path d="M1.4 0.6 L2.05 1.3 Q3.3 2.9 4.5 6.0 L6.15 11.15 4.8 12.2 3.8 12.7 Q3.05 13.7 0.5 8.65 -1.9 3.85 -2.1 2.4 L-1.95 1.5 1.4 0.6" fill="#bcb2a1" fill-rule="evenodd" stroke="none"/>
    <path d="M-1.95 1.5 L-2.1 2.4 Q-1.9 3.85 0.5 8.65 3.05 13.7 3.8 12.7 L4.8 12.2 6.15 11.15 4.5 6.0 Q3.3 2.9 2.05 1.3 L1.4 0.6" fill="none" stroke="#565149" stroke-linecap="round" stroke-linejoin="round" stroke-width="1.05"/>
    <path d="M1.35 3.1 Q0.2 3.0 -0.6 2.4 L-1.15 1.9" fill="none" stroke="#807a6d" stroke-linecap="round" stroke-linejoin="round" stroke-width="1.05"/>
    <path d="M4.25 10.6 Q3.95 9.7 2.75 8.7 L1.65 7.9" fill="none" stroke="#807a6d" stroke-linecap="round" stroke-linejoin="round" stroke-width="1.05"/>
    <path d="M-4.3 -0.6 L2.25 -0.5 Q2.0 0.1 2.35 0.85 L2.65 1.5 -3.5 2.3 -3.65 1.1 Q-3.9 0.1 -4.3 -0.6" fill="#b6681e" fill-rule="evenodd" stroke="none"/>
    <path d="M-4.3 -0.6 L2.25 -0.5 Q2.0 0.1 2.35 0.85 L2.65 1.5 -3.5 2.3 -3.65 1.1 Q-3.9 0.1 -4.3 -0.6 Z" fill="none" stroke="#604125" stroke-linecap="round" stroke-linejoin="round" stroke-width="1.05"/>
    <path d="M-2.35 -0.55 L-1.8 2.05 -3.5 3.6 Q-4.8 3.85 -5.35 1.65 -5.85 -0.6 -4.5 -1.0 L-2.35 -0.55" fill="#b6681e" fill-rule="evenodd" stroke="none"/>
    <path d="M-2.35 -0.55 L-4.5 -1.0 Q-5.85 -0.6 -5.35 1.65 -4.8 3.85 -3.5 3.6 L-1.8 2.05" fill="none" stroke="#604125" stroke-linecap="round" stroke-linejoin="round" stroke-width="1.05"/>
    <path d="M-2.35 -0.2 L-2.05 0.35 Q-1.85 1.05 -2.15 1.75" fill="none" stroke="#935418" stroke-linecap="round" stroke-linejoin="round" stroke-width="1.05"/>
    <path d="M6.9 12.0 L3.6 13.6 2.2 11.85 Q1.05 10.45 0.7 9.25 2.35 9.05 4.0 8.3 L5.3 7.55 5.85 9.3 Q6.3 11.0 6.9 12.0" fill="#2b2c37" fill-rule="evenodd" stroke="none"/>
    <path d="M3.6 13.6 L2.2 11.85 Q1.05 10.45 0.7 9.25 2.35 9.05 4.0 8.3 L5.3 7.55 5.85 9.3 Q6.3 11.0 6.9 12.0" fill="none" stroke="#131318" stroke-linecap="round" stroke-linejoin="round" stroke-width="1.05"/>
    <path d="M3.75 12.65 L4.6 12.55 Q5.55 12.35 6.05 11.8" fill="none" stroke="#1f1f27" stroke-linecap="round" stroke-linejoin="round" stroke-width="1.05"/>
    <path d="M2.05 4.9 L3.55 8.15 Q4.5 7.75 5.4 7.3 L6.1 8.8 1.15 11.1 -1.1 6.35 2.05 4.9" fill="#596266" fill-rule="evenodd" stroke="none"/>
    <path d="M1.1 6.65 L2.85 10.3 1.15 11.1 -0.55 7.45 1.1 6.65" fill="#6278a6" fill-rule="evenodd" stroke="none"/>
    <path d="M3.15 7.25 L1.7 7.95" fill="none" stroke="#313638" stroke-linecap="round" stroke-linejoin="round" stroke-width="1.05"/>
    <path d="M2.05 4.9 L-1.1 6.35 1.15 11.1 6.2 8.75 5.5 7.25 3.55 8.15 2.05 4.9 Z" fill="none" stroke="#313638" stroke-linecap="round" stroke-linejoin="round" stroke-width="1.05"/>
    <path d="M2.05 4.9 L1.5 3.7" fill="none" stroke="#313638" stroke-linecap="round" stroke-linejoin="round" stroke-width="1.05"/>
  </g>
</svg>
