<?xml version="1.0" encoding="UTF-8" standalone="no"?>
<svg xmlns:xlink="http://www.w3.org/1999/xlink" height="33.65px" width="156.5px" xmlns="http://www.w3.org/2000/svg">
  <g transform="matrix(1.0, 0.0, 0.0, 1.0, -136.9, 17.0)">
    <path d="M153.05 -12.2 Q155.9 -7.15 155.9 -0.15 155.9 6.65 153.05 11.65 150.35 16.65 146.4 16.65 142.45 16.65 139.8 11.65 136.9 6.65 136.9 -0.15 136.9 -7.15 139.8 -12.2 142.45 -17.0 146.4 -17.0 150.35 -17.0 153.05 -12.2" fill="url(#gradient0)" fill-rule="evenodd" stroke="none"/>
    <path d="M256.25 -8.5 Q293.4 -5.1 293.4 0.0 293.4 4.85 256.25 8.25 219.15 11.65 166.6 11.65 L149.5 11.65 149.5 -11.65 166.6 -11.9 Q219.15 -11.9 256.25 -8.5" fill="url(#gradient1)" fill-rule="evenodd" stroke="none"/>
  </g>
  <defs>
    <radialGradient cx="0" cy="0" gradientTransform="matrix(0.0118, 0.0, 0.0, 0.0211, 146.4, -0.15)" gradientUnits="userSpaceOnUse" id="gradient0" r="819.2" spreadMethod="pad">
      <stop offset="0.36470588235294116" stop-color="#ffffff" stop-opacity="0.5411765"/>
      <stop offset="1.0" stop-color="#ffe600" stop-opacity="0.0"/>
    </radialGradient>
    <radialGradient cx="0" cy="0" gradientTransform="matrix(0.155, 0.0, 0.0, 0.0144, 167.05, -0.25)" gradientUnits="userSpaceOnUse" id="gradient1" r="819.2" spreadMethod="pad">
      <stop offset="0.36470588235294116" stop-color="#ffffff" stop-opacity="0.57254905"/>
      <stop offset="1.0" stop-color="#ffe600" stop-opacity="0.0"/>
    </radialGradient>
  </defs>
</svg>
