<?xml version="1.0" encoding="UTF-8" standalone="no"?>
<svg xmlns:ffdec="https://www.free-decompiler.com/flash" xmlns:xlink="http://www.w3.org/1999/xlink" ffdec:objectType="shape" height="21.55px" width="14.4px" xmlns="http://www.w3.org/2000/svg">
  <g transform="matrix(1.0, 0.0, 0.0, 1.0, 6.55, 5.6)">
    <path d="M4.05 -2.7 Q3.15 -2.4 1.9 -1.25 -0.85 1.2 -3.55 -0.45 -4.4 -1.0 -4.95 -0.85 L-4.85 -1.75 Q-4.7 -2.8 -4.2 -3.5 -3.2 -4.9 -0.8 -5.1 2.65 -5.35 4.05 -2.7 M-2.1 12.45 Q2.65 10.55 4.1 13.3 3.15 14.6 1.25 14.3 -1.0 13.95 -2.1 12.45" fill="#161b1d" fill-rule="evenodd" stroke="none"/>
    <path d="M-4.95 -0.85 Q-4.4 -1.0 -3.55 -0.45 -0.85 1.2 1.9 -1.25 3.15 -2.4 4.05 -2.7 5.05 -3.1 5.55 -2.4 6.4 -1.1 7.1 3.9 7.75 8.9 6.75 13.2 5.75 17.45 4.35 13.75 L4.1 13.3 Q2.65 10.55 -2.1 12.45 L-3.15 12.9 Q-4.2 11.3 -4.85 9.5 L-3.3 7.35 -3.9 3.85 -6.0 2.85 -6.0 2.75 Q-6.2 -0.65 -4.95 -0.85 M3.35 5.05 Q3.5 2.8 2.45 0.55 3.5 2.8 3.35 5.05 M5.35 6.35 Q5.45 2.45 4.45 -0.05 5.45 2.45 5.35 6.35 M-1.55 10.85 L-2.55 11.05 -1.55 10.85 M-0.85 9.15 L-3.15 9.85 -0.85 9.15" fill="url(#gradient0)" fill-rule="evenodd" stroke="none"/>
    <path d="M-6.0 2.85 L-3.9 3.85 -3.3 7.35 -4.85 9.5 Q-5.95 6.5 -6.0 2.85" fill="#79868e" fill-rule="evenodd" stroke="none"/>
    <path d="M4.05 -2.7 Q3.15 -2.4 1.9 -1.25 -0.85 1.2 -3.55 -0.45 -4.4 -1.0 -4.95 -0.85 M-2.1 12.45 Q2.65 10.55 4.1 13.3 M2.45 0.55 Q3.5 2.8 3.35 5.05 M-3.15 9.85 L-0.85 9.15 M-2.55 11.05 L-1.55 10.85 M4.45 -0.05 Q5.45 2.45 5.35 6.35" fill="none" stroke="#0d1214" stroke-linecap="round" stroke-linejoin="round" stroke-width="1.0"/>
    <path d="M-4.95 -0.85 Q-6.2 -0.65 -6.0 2.75 L-6.0 2.85 -3.9 3.85 -3.3 7.35 -4.85 9.5 Q-4.2 11.3 -3.15 12.9 L-2.1 12.45 Q-1.0 13.95 1.25 14.3 3.15 14.6 4.1 13.3 L4.35 13.75 Q5.75 17.45 6.75 13.2 7.75 8.9 7.1 3.9 6.4 -1.1 5.55 -2.4 5.05 -3.1 4.05 -2.7 2.65 -5.35 -0.8 -5.1 -3.2 -4.9 -4.2 -3.5 -4.7 -2.8 -4.85 -1.75 L-4.95 -0.85 M-4.85 9.5 Q-5.95 6.5 -6.0 2.85" fill="none" stroke="#070a0a" stroke-linecap="round" stroke-linejoin="round" stroke-width="1.0"/>
  </g>
  <defs>
    <radialGradient cx="0" cy="0" gradientTransform="matrix(0.0197, 0.0, 0.0, 0.0197, -6.95, 7.05)" gradientUnits="userSpaceOnUse" id="gradient0" r="819.2" spreadMethod="pad">
      <stop offset="0.0" stop-color="#1d2b38"/>
      <stop offset="0.6588235294117647" stop-color="#27363f"/>
      <stop offset="1.0" stop-color="#4d6277"/>
    </radialGradient>
  </defs>
</svg>
