<?xml version="1.0" encoding="UTF-8" standalone="no"?>
<svg xmlns:xlink="http://www.w3.org/1999/xlink" height="24.2px" width="11.3px" xmlns="http://www.w3.org/2000/svg">
  <g transform="matrix(1.0, 0.0, 0.0, 1.0, 6.0, 4.6)">
    <path d="M0.15 -0.5 Q0.15 -1.5 0.4 -2.2 0.7 -3.45 1.4 -3.85 L2.85 -4.05 Q4.7 -3.6 4.8 -1.1 4.9 1.35 3.45 5.8 L2.75 7.4 Q1.7 9.0 0.9 5.1 0.4 2.85 0.25 1.2 L0.15 -0.5 M1.55 13.25 L1.75 14.0 Q1.8 15.05 1.25 16.7 1.6 17.2 0.85 17.65 L0.75 17.95 Q-0.2 20.0 -1.0 18.4 L-4.45 18.65 Q-5.7 18.15 -5.45 16.65 -5.25 15.5 -4.4 15.15 L-3.75 15.0 -1.95 15.25 Q-2.15 14.0 -1.9 13.3 -1.4 12.05 0.1 12.3 1.15 12.5 1.55 13.25 M0.85 17.65 L1.25 16.7 0.85 17.65 M-1.0 18.4 L-1.35 17.5 -1.95 15.25 -1.35 17.5 -1.0 18.4" fill="#514d80" fill-rule="evenodd" stroke="none"/>
    <path d="M-3.8 0.0 Q-1.65 -4.1 1.0 -3.9 L1.4 -3.85 Q0.7 -3.45 0.4 -2.2 0.15 -1.5 0.15 -0.5 L-2.5 -0.25 -3.8 0.0 M2.75 7.4 L1.55 13.25 Q1.15 12.5 0.1 12.3 -1.4 12.05 -1.9 13.3 -2.15 14.0 -1.95 15.25 L-3.75 15.0 -4.4 15.15 Q-4.85 12.9 -4.2 8.85 -3.5 4.15 -3.85 0.55 L-3.0 0.75 0.25 1.2 Q0.4 2.85 0.9 5.1 1.7 9.0 2.75 7.4" fill="#000033" fill-rule="evenodd" stroke="none"/>
    <path d="M-3.8 0.0 L-2.5 -0.25 0.15 -0.5 0.25 1.2 -3.0 0.75 -3.85 0.55 Q-4.9 0.25 -3.8 0.0" fill="#353355" fill-rule="evenodd" stroke="none"/>
    <path d="M1.4 -3.85 L2.85 -4.05 Q4.7 -3.6 4.8 -1.1 4.9 1.35 3.45 5.8 L2.75 7.4 M1.55 13.25 L1.75 14.0 Q1.8 15.05 1.25 16.7 1.6 17.2 0.85 17.65 L0.75 17.95 Q-0.2 20.0 -1.0 18.4 L-4.45 18.65 Q-5.7 18.15 -5.45 16.65 -5.25 15.5 -4.4 15.15 L-3.75 15.0 M-3.85 0.55 Q-4.9 0.25 -3.8 0.0 M1.25 16.7 L0.85 17.65 M-1.95 15.25 L-1.35 17.5 -1.0 18.4 M0.25 1.2 L0.15 -0.5 M-3.85 0.55 L-3.0 0.75" fill="none" stroke="#27243f" stroke-linecap="round" stroke-linejoin="round" stroke-width="1.0"/>
    <path d="M-3.8 0.0 L-2.5 -0.25 0.15 -0.5 Q0.15 -1.5 0.4 -2.2 0.7 -3.45 1.4 -3.85 M2.75 7.4 L1.55 13.25 Q1.15 12.5 0.1 12.3 -1.4 12.05 -1.9 13.3 -2.15 14.0 -1.95 15.25 L-3.75 15.0 M-4.4 15.15 Q-4.85 12.9 -4.2 8.85 -3.5 4.15 -3.85 0.55 M0.25 1.2 Q0.4 2.85 0.9 5.1 1.7 9.0 2.75 7.4 M-3.0 0.75 L0.25 1.2" fill="none" stroke="#000019" stroke-linecap="round" stroke-linejoin="round" stroke-width="1.0"/>
  </g>
</svg>
