<?xml version="1.0" encoding="UTF-8" standalone="no"?>
<svg xmlns:ffdec="https://www.free-decompiler.com/flash" xmlns:xlink="http://www.w3.org/1999/xlink" ffdec:objectType="shape" height="19.55px" width="11.8px" xmlns="http://www.w3.org/2000/svg">
  <g transform="matrix(1.0, 0.0, 0.0, 1.0, 2.9, 1.0)">
    <path d="M4.7 15.0 L4.35 14.25 Q4.05 13.35 4.25 12.95 5.15 11.0 7.05 11.45 7.85 12.4 8.2 13.55 8.65 14.9 8.2 15.9 L4.7 15.0" fill="#5b5b5b" fill-rule="evenodd" stroke="none"/>
    <path d="M4.7 15.0 L4.35 14.25 Q4.05 13.35 4.25 12.95 5.15 11.0 7.05 11.45 7.85 12.4 8.2 13.55 8.65 14.9 8.2 15.9" fill="none" stroke="#3d3d3d" stroke-linecap="round" stroke-linejoin="round" stroke-width="1.05"/>
    <path d="M5.1 14.35 L5.95 14.2 8.2 15.9 7.7 16.85 Q7.05 17.85 6.4 18.05 L4.95 17.4 Q4.2 16.65 4.65 15.3 L4.9 14.7 5.1 14.35" fill="#5b5b5b" fill-rule="evenodd" stroke="none"/>
    <path d="M5.1 14.35 L4.9 14.7 4.65 15.3 Q4.2 16.65 4.95 17.4 L6.4 18.05 Q7.05 17.85 7.7 16.85 L8.2 15.9 5.95 14.2 5.1 14.35 Z" fill="none" stroke="#3d3d3d" stroke-linecap="round" stroke-linejoin="round" stroke-width="1.05"/>
    <path d="M5.55 12.35 L4.2 13.05 Q3.45 14.05 0.5 8.1 -2.25 2.5 -2.4 1.0 L-2.3 0.05 2.25 -0.5 Q3.5 1.2 5.15 5.15 6.65 8.65 7.3 11.15 L5.55 12.35" fill="#787f72" fill-rule="evenodd" stroke="none"/>
    <path d="M2.25 -0.5 Q3.5 1.2 5.15 5.15 6.65 8.65 7.3 11.15 L5.55 12.35 4.2 13.05 Q3.45 14.05 0.5 8.1 -2.25 2.5 -2.4 1.0 L-2.3 0.05" fill="none" stroke="#3b3e38" stroke-linecap="round" stroke-linejoin="round" stroke-width="1.05"/>
    <path d="M1.85 2.6 Q0.7 2.6 -0.15 2.1 L-0.75 1.6" fill="none" stroke="#575d53" stroke-linecap="round" stroke-linejoin="round" stroke-width="1.05"/>
    <path d="M4.85 10.9 Q4.55 10.0 3.35 9.0 L2.2 8.2" fill="none" stroke="#575d53" stroke-linecap="round" stroke-linejoin="round" stroke-width="1.05"/>
  </g>
</svg>
