<?xml version="1.0" encoding="UTF-8" standalone="no"?>
<svg xmlns:ffdec="https://www.free-decompiler.com/flash" xmlns:xlink="http://www.w3.org/1999/xlink" ffdec:objectType="shape" height="19.85px" width="11.95px" xmlns="http://www.w3.org/2000/svg">
  <g transform="matrix(1.0, 0.0, 0.0, 1.0, 3.15, 1.05)">
    <path d="M8.05 16.15 L4.6 15.2 4.25 14.4 Q3.95 13.55 4.15 13.15 5.05 11.2 6.95 11.7 7.75 12.6 8.1 13.75 8.55 15.1 8.05 16.15" fill="#3b3b3b" fill-rule="evenodd" stroke="none"/>
    <path d="M4.6 15.2 L4.25 14.4 Q3.95 13.55 4.15 13.15 5.05 11.2 6.95 11.7 7.75 12.6 8.1 13.75 8.55 15.1 8.05 16.15" fill="none" stroke="#222222" stroke-linecap="round" stroke-linejoin="round" stroke-width="1.05"/>
    <path d="M2.0 -0.55 Q3.3 1.1 4.95 5.1 6.4 8.6 7.05 11.1 L5.3 12.3 3.95 13.0 Q3.2 13.95 0.3 8.05 -2.45 2.4 -2.65 0.9 L-2.5 0.0 2.0 -0.55" fill="#908e82" fill-rule="evenodd" stroke="none"/>
    <path d="M2.0 -0.55 Q3.3 1.1 4.95 5.1 6.4 8.6 7.05 11.1 L5.3 12.3 3.95 13.0 Q3.2 13.95 0.3 8.05 -2.45 2.4 -2.65 0.9 L-2.5 0.0" fill="none" stroke="#4b4b3e" stroke-linecap="round" stroke-linejoin="round" stroke-width="1.05"/>
    <path d="M1.65 2.55 Q0.45 2.5 -0.35 2.0 L-0.95 1.55" fill="none" stroke="#6c6c5e" stroke-linecap="round" stroke-linejoin="round" stroke-width="1.05"/>
    <path d="M4.6 10.85 Q4.3 9.9 3.1 8.95 L2.0 8.15" fill="none" stroke="#6c6c5e" stroke-linecap="round" stroke-linejoin="round" stroke-width="1.05"/>
    <path d="M8.05 16.15 L7.55 17.1 6.3 18.3 Q5.25 17.95 4.85 17.6 4.1 16.85 4.55 15.5 L4.8 14.9 5.0 14.6 5.85 14.4 8.05 16.15" fill="#3b3b3b" fill-rule="evenodd" stroke="none"/>
    <path d="M8.05 16.15 L5.85 14.4 5.0 14.6 4.8 14.9 4.55 15.5 Q4.1 16.85 4.85 17.6 5.25 17.95 6.3 18.3 L7.55 17.1 8.05 16.15 Z" fill="none" stroke="#1c1c1c" stroke-linecap="round" stroke-linejoin="round" stroke-width="1.05"/>
    <path d="M0.9 3.0 L3.85 1.7" fill="none" stroke="#222222" stroke-linecap="round" stroke-linejoin="round" stroke-width="1.05"/>
    <path d="M4.25 7.5 L5.9 6.15" fill="none" stroke="#222222" stroke-linecap="round" stroke-linejoin="round" stroke-width="1.05"/>
    <path d="M0.55 1.9 L1.0 3.35 0.85 5.15 2.8 8.0 3.9 6.3 5.5 8.6 2.05 11.8 -1.15 7.35 -2.3 2.8 Q-1.25 2.65 0.55 1.9" fill="#46494c" fill-rule="evenodd" stroke="none"/>
    <path d="M0.55 1.9 Q-1.25 2.65 -2.3 2.8 L-1.15 7.35 2.05 11.8 5.5 8.6 3.9 6.3 2.8 8.0 0.85 5.15 1.0 3.35 0.55 1.9 Z" fill="none" stroke="#313336" stroke-linecap="round" stroke-linejoin="round" stroke-width="1.05"/>
    <path d="M1.25 8.2 L2.2 9.6" fill="none" stroke="#1a2337" stroke-linecap="round" stroke-linejoin="round" stroke-width="1.05"/>
  </g>
</svg>
