<?xml version="1.0" encoding="UTF-8" standalone="no"?>
<svg xmlns:ffdec="https://www.free-decompiler.com/flash" xmlns:xlink="http://www.w3.org/1999/xlink" ffdec:objectType="shape" height="20.85px" width="14.8px" xmlns="http://www.w3.org/2000/svg">
  <g transform="matrix(1.0, 0.0, 0.0, 1.0, 6.0, 1.5)">
    <path d="M8.1 14.3 Q8.55 15.65 8.05 16.7 L4.55 15.75 4.25 15.0 Q3.9 14.1 4.1 13.7 5.05 11.75 6.9 12.25 7.75 13.15 8.1 14.3" fill="#2b2c37" fill-rule="evenodd" stroke="none"/>
    <path d="M4.55 15.75 L4.25 15.0 Q3.9 14.1 4.1 13.7 5.05 11.75 6.9 12.25 7.75 13.15 8.1 14.3 8.55 15.65 8.05 16.7" fill="none" stroke="#131318" stroke-linecap="round" stroke-linejoin="round" stroke-width="1.05"/>
    <path d="M5.0 15.15 L5.85 14.95 8.05 16.7 7.55 17.65 Q6.95 18.65 6.25 18.85 5.25 18.5 4.85 18.15 4.1 17.45 4.5 16.05 L4.8 15.45 5.0 15.15" fill="#2b2c37" fill-rule="evenodd" stroke="none"/>
    <path d="M5.0 15.15 L4.8 15.45 4.5 16.05 Q4.1 17.45 4.85 18.15 5.25 18.5 6.25 18.85 6.95 18.65 7.55 17.65 L8.05 16.7 5.85 14.95 5.0 15.15 Z" fill="none" stroke="#131318" stroke-linecap="round" stroke-linejoin="round" stroke-width="1.05"/>
    <path d="M-2.4 0.85 L2.1 0.3 Q3.15 1.65 4.4 4.45 L6.35 9.45 6.6 10.8 6.8 12.0 5.2 13.2 4.05 13.8 Q3.4 14.4 0.45 8.6 -2.35 3.05 -2.55 1.75 L-2.4 0.85" fill="#908e82" fill-rule="evenodd" stroke="none"/>
    <path d="M2.1 0.3 Q3.15 1.65 4.4 4.45 L6.35 9.45 6.6 10.8 6.8 12.0 5.2 13.2 4.05 13.8 Q3.4 14.4 0.45 8.6 -2.35 3.05 -2.55 1.75 L-2.4 0.85" fill="none" stroke="#4b4b3e" stroke-linecap="round" stroke-linejoin="round" stroke-width="1.05"/>
    <path d="M1.75 3.35 Q0.55 3.35 -0.25 2.85 L-0.85 2.35" fill="none" stroke="#6c6c5e" stroke-linecap="round" stroke-linejoin="round" stroke-width="1.05"/>
    <path d="M4.7 11.65 Q4.45 10.75 3.25 9.75 L2.1 8.95" fill="none" stroke="#6c6c5e" stroke-linecap="round" stroke-linejoin="round" stroke-width="1.05"/>
    <path d="M-3.5 -0.5 L3.0 -0.45 Q2.8 0.15 3.1 1.05 L3.5 1.8 -2.7 2.6 -2.85 1.55 Q-3.05 0.3 -3.5 -0.5" fill="#b6681e" fill-rule="evenodd" stroke="none"/>
    <path d="M-3.5 -0.5 L3.0 -0.45 Q2.8 0.15 3.1 1.05 L3.5 1.8 -2.7 2.6 -2.85 1.55 Q-3.05 0.3 -3.5 -0.5 Z" fill="none" stroke="#604125" stroke-linecap="round" stroke-linejoin="round" stroke-width="1.05"/>
    <path d="M-2.4 -0.5 L-2.0 2.5 -3.5 3.85 Q-4.85 4.15 -5.35 1.8 -5.9 -0.55 -4.55 -1.0 L-2.4 -0.5" fill="#b6681e" fill-rule="evenodd" stroke="none"/>
    <path d="M-2.4 -0.5 L-4.55 -1.0 Q-5.9 -0.55 -5.35 1.8 -4.85 4.15 -3.5 3.85 L-2.0 2.5" fill="none" stroke="#604125" stroke-linecap="round" stroke-linejoin="round" stroke-width="1.05"/>
    <path d="M-2.45 -0.2 L-2.1 0.45 Q-1.8 1.25 -2.15 2.05" fill="none" stroke="#935418" stroke-linecap="round" stroke-linejoin="round" stroke-width="1.05"/>
    <path d="M7.4 12.9 L4.1 14.45 2.65 12.75 Q1.45 11.35 1.05 10.2 2.7 10.0 4.6 9.15 L6.1 8.35 6.65 10.3 Q7.05 12.2 7.4 12.9" fill="#2b2c37" fill-rule="evenodd" stroke="none"/>
    <path d="M4.1 14.45 L2.65 12.75 Q1.45 11.35 1.05 10.2 2.7 10.0 4.6 9.15 L6.1 8.35 6.65 10.3 Q7.05 12.2 7.4 12.9" fill="none" stroke="#131318" stroke-linecap="round" stroke-linejoin="round" stroke-width="1.05"/>
    <path d="M4.25 13.55 L5.1 13.45 Q6.05 13.25 6.55 12.65" fill="none" stroke="#1f1f27" stroke-linecap="round" stroke-linejoin="round" stroke-width="1.05"/>
    <path d="M2.25 5.15 L3.75 8.4 6.1 7.3 6.8 8.8 1.35 11.35 -0.9 6.6 2.25 5.15" fill="#596266" fill-rule="evenodd" stroke="none"/>
    <path d="M1.3 6.9 L3.0 10.55 1.35 11.35 -0.4 7.7 1.3 6.9" fill="#6278a6" fill-rule="evenodd" stroke="none"/>
    <path d="M3.35 7.5 L1.9 8.2" fill="none" stroke="#313638" stroke-linecap="round" stroke-linejoin="round" stroke-width="1.05"/>
    <path d="M2.25 5.15 L-0.9 6.6 1.35 11.35 6.8 8.8 6.1 7.3 3.75 8.4 2.25 5.15 Z" fill="none" stroke="#313638" stroke-linecap="round" stroke-linejoin="round" stroke-width="1.05"/>
    <path d="M2.25 5.15 L1.7 3.95" fill="none" stroke="#313638" stroke-linecap="round" stroke-linejoin="round" stroke-width="1.05"/>
  </g>
</svg>
