<?xml version="1.0" encoding="UTF-8" standalone="no"?>
<svg xmlns:xlink="http://www.w3.org/1999/xlink" height="17.6px" width="15.1px" xmlns="http://www.w3.org/2000/svg">
  <g transform="matrix(1.0, 0.0, 0.0, 1.0, -31.4, 9.9)">
    <path d="M36.65 7.65 L36.3 7.7 Q34.25 7.7 32.85 5.1 31.4 2.55 31.45 -1.1 31.4 -4.75 32.85 -7.35 34.25 -9.9 36.3 -9.9 L36.65 -9.85 36.65 7.65" fill="url(#gradient0)" fill-rule="evenodd" stroke="none"/>
    <path d="M36.65 -9.85 L37.0 -9.9 Q39.0 -9.9 40.45 -7.35 41.85 -4.75 41.85 -1.1 41.85 2.55 40.45 5.1 39.0 7.7 37.0 7.7 L36.65 7.65 36.65 -9.85" fill="url(#gradient1)" fill-rule="evenodd" stroke="none"/>
    <path d="M38.95 4.7 L38.45 4.75 Q35.5 4.75 33.45 3.0 31.35 1.25 31.4 -1.2 31.35 -3.65 33.45 -5.4 35.5 -7.15 38.45 -7.1 L38.95 -7.1 38.95 4.7" fill="url(#gradient2)" fill-rule="evenodd" stroke="none"/>
    <path d="M38.95 -7.1 L39.45 -7.1 Q42.35 -7.15 44.45 -5.4 46.5 -3.65 46.5 -1.2 46.5 1.25 44.45 3.0 42.35 4.75 39.45 4.75 L38.95 4.7 38.95 -7.1" fill="url(#gradient3)" fill-rule="evenodd" stroke="none"/>
  </g>
  <defs>
    <radialGradient cx="0" cy="0" gradientTransform="matrix(0.0, 0.0096, 0.006, 0.0, 36.3, -1.1)" gradientUnits="userSpaceOnUse" id="gradient0" r="819.2" spreadMethod="pad">
      <stop offset="0.17647058823529413" stop-color="#ffffff"/>
      <stop offset="1.0" stop-color="#139ffd" stop-opacity="0.0"/>
    </radialGradient>
    <radialGradient cx="0" cy="0" gradientTransform="matrix(0.0, 0.0096, -0.006, 0.0, 36.95, -1.1)" gradientUnits="userSpaceOnUse" id="gradient1" r="819.2" spreadMethod="pad">
      <stop offset="0.17647058823529413" stop-color="#ffffff"/>
      <stop offset="1.0" stop-color="#139ffd" stop-opacity="0.0"/>
    </radialGradient>
    <radialGradient cx="0" cy="0" gradientTransform="matrix(0.0, 0.0064, 0.0087, 0.0, 38.45, -1.2)" gradientUnits="userSpaceOnUse" id="gradient2" r="819.2" spreadMethod="pad">
      <stop offset="0.17647058823529413" stop-color="#ffffff"/>
      <stop offset="1.0" stop-color="#139ffd" stop-opacity="0.0"/>
    </radialGradient>
    <radialGradient cx="0" cy="0" gradientTransform="matrix(0.0, 0.0064, -0.0087, 0.0, 39.4, -1.2)" gradientUnits="userSpaceOnUse" id="gradient3" r="819.2" spreadMethod="pad">
      <stop offset="0.17647058823529413" stop-color="#ffffff"/>
      <stop offset="1.0" stop-color="#139ffd" stop-opacity="0.0"/>
    </radialGradient>
  </defs>
</svg>
