<?xml version="1.0" encoding="UTF-8" standalone="no"?>
<svg xmlns:ffdec="https://www.free-decompiler.com/flash" xmlns:xlink="http://www.w3.org/1999/xlink" ffdec:objectType="shape" height="21.45px" width="15.15px" xmlns="http://www.w3.org/2000/svg">
  <g transform="matrix(1.0, 0.0, 0.0, 1.0, 5.2, 1.5)">
    <path d="M4.85 14.9 L7.95 13.6 Q9.45 15.3 9.45 16.7 9.4 18.1 7.7 19.4 6.85 19.65 6.05 18.65 5.1 17.45 4.85 14.9" fill="#252529" fill-rule="evenodd" stroke="none"/>
    <path d="M4.85 14.9 Q5.1 17.45 6.05 18.65 6.85 19.65 7.7 19.4 9.4 18.1 9.45 16.7 9.45 15.3 7.95 13.6 L4.85 14.9 Z" fill="none" stroke="#0c0e0f" stroke-linecap="round" stroke-linejoin="round" stroke-width="1.05"/>
    <path d="M4.55 4.25 L4.85 4.25 Q5.3 4.35 4.95 5.0 L4.45 5.55 4.7 5.6 5.65 5.85 5.7 6.35 5.75 6.85 7.95 11.65 8.2 12.2 Q8.5 12.8 9.15 13.25 9.15 14.2 6.5 15.15 L3.85 15.85 Q3.1 15.6 2.95 15.0 L3.0 14.4 1.6 11.6 0.9 11.05 Q0.45 10.95 0.45 10.6 L0.3 9.5 -0.05 8.45 Q-1.35 6.1 -2.2 5.2 L-2.05 2.65 -1.85 0.9 2.7 0.3 2.75 2.05 3.9 3.6 4.55 4.25" fill="#2f2f3b" fill-rule="evenodd" stroke="none"/>
    <path d="M2.7 0.3 L2.75 2.05 3.9 3.6 4.55 4.25 4.85 4.25 Q5.3 4.35 4.95 5.0 L4.45 5.55 4.7 5.6 5.65 5.85 5.7 6.35 5.75 6.85 7.95 11.65 8.2 12.2 Q8.5 12.8 9.15 13.25 9.15 14.2 6.5 15.15 L3.85 15.85 Q3.1 15.6 2.95 15.0 L3.0 14.4 1.6 11.6 0.9 11.05 Q0.45 10.95 0.45 10.6 L0.3 9.5 -0.05 8.45 Q-1.35 6.1 -2.2 5.2 L-2.05 2.65 -1.85 0.9" fill="none" stroke="#0e0f13" stroke-linecap="round" stroke-linejoin="round" stroke-width="1.05"/>
    <path d="M-3.05 -1.0 Q-1.6 -0.45 -1.0 1.85 -0.55 3.6 -0.65 6.15 L-2.55 6.0 -4.15 3.7 Q-4.7 2.75 -4.7 0.95 L-3.05 -1.0" fill="#343d4c" fill-rule="evenodd" stroke="none"/>
    <path d="M-3.05 -1.0 L-4.7 0.95 Q-4.7 2.75 -4.15 3.7 L-2.55 6.0 -0.65 6.15 Q-0.55 3.6 -1.0 1.85 -1.6 -0.45 -3.05 -1.0 Z" fill="none" stroke="#0c1015" stroke-linecap="round" stroke-linejoin="round" stroke-width="1.05"/>
    <path d="M3.25 2.0 L3.5 2.15 3.75 2.7 Q2.8 2.65 0.9 3.65 L-0.8 4.65 -1.05 4.05 Q-0.2 3.25 3.25 2.0" fill="#080b0c" fill-rule="evenodd" stroke="none"/>
    <path d="M3.25 2.0 Q-0.2 3.25 -1.05 4.05 L-0.8 4.65 0.9 3.65 Q2.8 2.65 3.75 2.7 L3.5 2.15 3.25 2.0 Z" fill="none" stroke="#080b0c" stroke-linecap="round" stroke-linejoin="round" stroke-width="1.05"/>
    <path d="M8.1 11.9 L2.4 13.8 2.15 12.95 1.9 12.6 7.45 10.55 8.0 11.3 8.1 11.9" fill="#080b0c" fill-rule="evenodd" stroke="none"/>
    <path d="M8.1 11.9 L2.4 13.8 2.15 12.95 1.9 12.6 7.45 10.55 8.0 11.3 8.1 11.9 Z" fill="none" stroke="#080b0c" stroke-linecap="round" stroke-linejoin="round" stroke-width="1.05"/>
    <path d="M3.1 -0.45 L3.2 0.5 1.8 0.45 -2.15 0.9 -2.4 0.2 3.1 -0.45" fill="#080b0c" fill-rule="evenodd" stroke="none"/>
    <path d="M3.1 -0.45 L-2.4 0.2 -2.15 0.9 1.8 0.45 3.2 0.5 3.1 -0.45 Z" fill="none" stroke="#080b0c" stroke-linecap="round" stroke-linejoin="round" stroke-width="1.05"/>
    <path d="M2.65 10.55 L3.2 9.85 Q3.75 8.95 3.8 8.15" fill="none" stroke="#0e0f13" stroke-linecap="round" stroke-linejoin="round" stroke-width="1.05"/>
  </g>
</svg>
