<?xml version="1.0" encoding="UTF-8" standalone="no"?>
<svg xmlns:ffdec="https://www.free-decompiler.com/flash" xmlns:xlink="http://www.w3.org/1999/xlink" ffdec:objectType="shape" height="21.75px" width="15.55px" xmlns="http://www.w3.org/2000/svg">
  <g transform="matrix(1.0, 0.0, 0.0, 1.0, 6.0, 1.8)">
    <path d="M5.95 11.9 L6.75 12.95 5.85 13.45 Q4.95 14.1 4.55 14.9 L4.75 13.5 5.45 12.65 5.95 11.9 M5.9 18.0 L7.55 18.05 7.9 17.95 Q7.5 19.45 6.95 19.45 L5.7 18.95 Q5.0 18.5 5.05 17.1 L5.9 18.0" fill="#13112b" fill-rule="evenodd" stroke="none"/>
    <path d="M5.95 11.9 L6.75 12.95 5.85 13.45 Q4.95 14.1 4.55 14.9 L4.75 13.5 5.45 12.65 5.95 11.9 M5.9 18.0 L7.55 18.05 7.9 17.95 Q7.5 19.45 6.95 19.45 L5.7 18.95 Q5.0 18.5 5.05 17.1 L5.9 18.0 Z" fill="none" stroke="#050505" stroke-linecap="butt" stroke-linejoin="miter-clip" stroke-miterlimit="4.0" stroke-width="1.0"/>
    <path d="M-2.5 0.45 L-2.2 1.35 Q-0.6 4.35 1.65 2.55 L2.7 1.55 5.8 8.6 6.05 9.3 Q6.65 10.8 5.95 11.9 L5.45 12.65 4.75 13.5 3.95 13.6 Q3.45 13.2 3.2 12.45 L-0.45 6.15 Q-1.75 3.7 -2.4 1.35 L-2.5 0.45" fill="#4d4d4d" fill-rule="evenodd" stroke="none"/>
    <path d="M6.75 12.95 Q7.85 12.6 8.3 13.7 9.35 15.3 8.7 17.15 8.7 17.8 7.9 17.95 L7.55 18.05 5.9 18.0 5.05 17.1 4.65 16.3 Q4.35 15.65 4.55 15.0 L4.55 14.9 Q4.95 14.1 5.85 13.45 L6.75 12.95" fill="#2a1439" fill-rule="evenodd" stroke="none"/>
    <path d="M6.75 12.95 Q7.85 12.6 8.3 13.7 9.35 15.3 8.7 17.15 8.7 17.8 7.9 17.95 L7.55 18.05 5.9 18.0 5.05 17.1 4.65 16.3 Q4.35 15.65 4.55 15.0 L4.55 14.9 Q4.95 14.1 5.85 13.45 L6.75 12.95 Z" fill="none" stroke="#080815" stroke-linecap="butt" stroke-linejoin="miter-clip" stroke-miterlimit="4.0" stroke-width="1.0"/>
    <path d="M5.5 11.1 L5.55 11.05 7.4 11.4 8.2 13.1 7.05 13.0 5.95 13.3 4.8 14.1 4.3 16.15 2.15 13.15 -0.7 8.8 0.1 10.9 -0.4 11.25 Q0.1 10.45 -0.55 9.4 L-2.15 7.5 -3.9 4.45 -4.25 1.3 -2.9 0.4 Q-2.25 -0.25 -2.4 -1.05 L-1.35 -1.3 1.1 -0.45 2.55 0.35 Q3.85 0.75 3.65 1.0 L2.9 0.95 2.0 1.0 -0.05 2.5 -3.55 4.7 Q-3.6 4.85 -2.15 3.9 L-0.7 2.85 Q-0.35 2.75 1.05 4.3 2.4 5.75 2.45 6.15 L3.35 9.25 3.8 10.1 4.45 10.6 5.5 11.1 5.45 11.1 5.5 11.1 5.45 11.1 5.5 11.1 M4.0 12.05 L4.1 12.0 Q5.15 11.15 5.45 11.1 5.0 11.0 4.0 12.05 L2.65 13.4 3.7 12.4 4.0 12.05 3.7 12.4 2.65 13.4 4.0 12.05" fill="url(#gradient0)" fill-rule="evenodd" stroke="none"/>
    <path d="M5.5 11.1 L5.55 11.05 7.4 11.4 8.2 13.1 7.05 13.0 5.95 13.3 4.8 14.1 4.3 16.15 2.15 13.15 -0.7 8.8 0.1 10.9 -0.4 11.25 Q0.1 10.45 -0.55 9.4 L-2.15 7.5 -3.9 4.45 -4.25 1.3 -2.9 0.4 Q-2.25 -0.25 -2.4 -1.05 L-1.35 -1.3 1.1 -0.45 2.55 0.35 Q3.85 0.75 3.65 1.0 L2.9 0.95 2.0 1.0 -0.05 2.5 -3.55 4.7 Q-3.6 4.85 -2.15 3.9 L-0.7 2.85 Q-0.35 2.75 1.05 4.3 2.4 5.75 2.45 6.15 L3.35 9.25 3.8 10.1 4.45 10.6 5.5 11.1 5.45 11.1 Q5.15 11.15 4.1 12.0 L4.0 12.05 3.7 12.4 2.65 13.4 4.0 12.05 Q5.0 11.0 5.45 11.1 L5.5 11.1 Z" fill="none" stroke="#19100a" stroke-linecap="round" stroke-linejoin="round" stroke-width="1.0"/>
    <path d="M-4.3 0.6 L-3.4 2.25 -3.7 4.75 Q-3.55 5.7 -1.95 7.25 L-2.25 8.3 Q-6.4 6.4 -5.05 1.9 L-4.3 0.6" fill="#6b489a" fill-rule="evenodd" stroke="none"/>
    <path d="M-4.3 0.6 L-3.4 2.25 -3.7 4.75 Q-3.55 5.7 -1.95 7.25 L-2.25 8.3 Q-6.4 6.4 -5.05 1.9 L-4.3 0.6 Z" fill="none" stroke="#100a19" stroke-linecap="round" stroke-linejoin="round" stroke-width="1.0"/>
    <path d="M3.15 11.7 Q3.35 12.15 2.45 13.3 1.85 14.2 0.65 13.65 -0.55 13.2 -0.6 12.05 -0.7 9.45 1.3 9.75 2.75 9.95 3.15 11.7" fill="#754a17" fill-rule="evenodd" stroke="none"/>
    <path d="M3.15 11.7 Q3.35 12.15 2.45 13.3 1.85 14.2 0.65 13.65 -0.55 13.2 -0.6 12.05 -0.7 9.45 1.3 9.75 2.75 9.95 3.15 11.7 Z" fill="none" stroke="#19100a" stroke-linecap="butt" stroke-linejoin="miter-clip" stroke-miterlimit="4.0" stroke-width="1.0"/>
    <path d="M0.45 6.95 L-0.95 7.3" fill="none" stroke="#c2beff" stroke-linecap="round" stroke-linejoin="round" stroke-width="1.0"/>
    <path d="M1.1 8.7 L0.2 9.1" fill="none" stroke="#c2beff" stroke-linecap="round" stroke-linejoin="round" stroke-width="1.0"/>
    <path d="M2.55 6.1 L-0.3 3.35 2.2 1.2 4.0 0.8 Q4.3 0.75 4.65 2.2 L5.65 3.35 Q6.1 4.7 5.95 5.65 L5.85 6.95 3.8 5.65 3.7 5.5 Q3.9 5.35 2.55 6.1 L3.7 5.55 5.7 6.85 7.15 10.5 7.25 10.85 7.35 11.3 5.95 11.2 4.05 9.9 2.6 6.15 2.55 6.1 2.5 6.1 2.55 6.1" fill="#463bb9" fill-opacity="0.4745098" fill-rule="evenodd" stroke="none"/>
    <path d="M2.55 6.1 Q3.9 5.35 3.7 5.5 L3.8 5.65 5.85 6.95 5.95 5.65 Q6.1 4.7 5.65 3.35 L4.65 2.2 Q4.3 0.75 4.0 0.8 L2.2 1.2 -0.3 3.35 2.55 6.1 3.7 5.55 5.7 6.85 7.15 10.5 7.25 10.85 7.35 11.3 5.95 11.2 4.05 9.9 2.6 6.15 2.55 6.1 2.5 6.1 2.55 6.1 Z" fill="none" stroke="#080815" stroke-linecap="round" stroke-linejoin="round" stroke-opacity="0.50980395" stroke-width="1.0"/>
    <path d="M5.65 8.1 L5.0 7.95" fill="none" stroke="#c2beff" stroke-linecap="round" stroke-linejoin="round" stroke-width="1.0"/>
    <path d="M6.0 9.8 L5.35 9.85" fill="none" stroke="#c2beff" stroke-linecap="round" stroke-linejoin="round" stroke-width="1.0"/>
    <path d="M3.8 3.2 L2.9 3.1" fill="none" stroke="#c2beff" stroke-linecap="round" stroke-linejoin="round" stroke-width="1.0"/>
    <path d="M1.1 -0.4 L1.7 -0.45 Q2.25 -0.35 2.4 0.2 2.65 1.05 3.55 0.6 L4.15 2.0 5.65 3.6 5.85 5.25 Q5.8 6.45 6.0 7.05 7.4 10.0 8.15 12.7 L8.25 13.2 8.65 14.05 Q9.05 15.05 9.05 15.6 9.05 17.25 8.6 17.6 L8.05 17.9 7.8 17.9 Q7.8 19.15 7.2 19.35 L6.1 19.3 5.2 18.7 5.1 17.9 4.9 17.0 4.55 16.25 4.45 15.75 4.1 15.3 Q3.8 15.45 3.4 14.9 L1.9 13.65 Q0.3 14.35 -0.4 12.75 -1.05 11.4 -0.3 10.35 L-1.1 8.85 -2.3 8.5 Q-4.9 7.1 -5.4 4.3 -5.85 1.6 -4.05 1.0 L-2.6 0.2 -2.45 -0.85 -2.05 -1.25" fill="none" stroke="#000000" stroke-linecap="round" stroke-linejoin="round" stroke-opacity="0.6039216" stroke-width="1.0"/>
  </g>
  <defs>
    <radialGradient cx="0" cy="0" gradientTransform="matrix(0.0061, -0.0024, 0.0115, 0.0295, 2.0, 7.4)" gradientUnits="userSpaceOnUse" id="gradient0" r="819.2" spreadMethod="pad">
      <stop offset="0.0" stop-color="#280804"/>
      <stop offset="1.0" stop-color="#f4b736"/>
    </radialGradient>
  </defs>
</svg>
