<?xml version="1.0" encoding="UTF-8" standalone="no"?>
<svg xmlns:xlink="http://www.w3.org/1999/xlink" height="14.75px" width="26.3px" xmlns="http://www.w3.org/2000/svg">
  <g transform="matrix(1.0, 0.0, 0.0, 1.0, 13.95, 7.65)">
    <path d="M0.35 5.35 Q-3.6 6.6 -8.25 6.6 L-13.45 6.15 -11.2 3.85 -11.15 3.85 Q-7.05 3.95 -3.15 2.1 L0.35 5.35 M-3.15 -0.85 Q-6.4 -2.35 -10.1 -2.35 L-13.0 -6.65 -8.0 -7.15 Q-3.0 -7.3 0.35 -6.3 L-3.15 -0.85 M-5.65 4.5 L-4.4 4.3 -5.65 4.5 M-9.65 5.1 L-7.95 4.95 -9.65 5.1 M-5.65 -3.75 L-4.9 -5.65 -5.65 -3.75 M-4.2 -3.3 L-3.25 -5.45 -4.2 -3.3 M-6.65 -4.5 L-6.3 -5.8 -6.65 -4.5" fill="#d9b568" fill-rule="evenodd" stroke="none"/>
    <path d="M8.7 -4.5 L8.7 -1.75 Q1.65 -0.35 8.7 1.65 L8.7 3.65 4.3 4.55 2.35 4.95 0.35 5.35 -3.15 2.1 -3.15 -0.85 0.35 -6.3 3.7 -5.25 Q6.85 -4.35 8.7 -4.5 M7.55 -2.75 L7.15 -3.25 7.55 -2.75 M1.65 -2.8 L0.7 -2.75 1.65 -2.8 M1.65 -3.85 L0.9 -4.1 1.65 -3.85 M0.2 -0.15 Q-0.05 2.3 2.35 4.95 -0.05 2.3 0.2 -0.15 M4.3 4.55 Q3.25 3.55 2.95 1.8 3.25 3.55 4.3 4.55" fill="#b5894a" fill-rule="evenodd" stroke="none"/>
    <path d="M8.7 -4.5 Q11.85 -3.25 11.85 -0.05 11.8 3.15 8.7 3.65 L8.7 1.65 Q1.65 -0.35 8.7 -1.75 L8.7 -4.5" fill="#119efd" fill-rule="evenodd" stroke="none"/>
    <path d="M-6.3 -5.8 L-6.65 -4.5 M-3.25 -5.45 L-4.2 -3.3 M-4.9 -5.65 L-5.65 -3.75 M-7.95 4.95 L-9.65 5.1 M-4.4 4.3 L-5.65 4.5" fill="none" stroke="#966f36" stroke-linecap="round" stroke-linejoin="round" stroke-width="1.0"/>
    <path d="M0.9 -4.1 L1.65 -3.85 M0.7 -2.75 L1.65 -2.8 M7.15 -3.25 L7.55 -2.75" fill="none" stroke="#664e2b" stroke-linecap="round" stroke-linejoin="round" stroke-width="1.0"/>
    <path d="M8.7 -4.5 L8.7 -1.75 Q1.65 -0.35 8.7 1.65 L8.7 3.65 4.3 4.55 2.35 4.95 0.35 5.35 Q-3.6 6.6 -8.25 6.6 L-13.45 6.15 -11.2 3.85 -11.15 3.85 Q-7.05 3.95 -3.15 2.1 L-3.15 -0.85 Q-6.4 -2.35 -10.1 -2.35 L-13.0 -6.65 -8.0 -7.15 Q-3.0 -7.3 0.35 -6.3 L3.7 -5.25 Q6.85 -4.35 8.7 -4.5 M2.95 1.8 Q3.25 3.55 4.3 4.55 M2.35 4.95 Q-0.05 2.3 0.2 -0.15 M-3.15 2.1 L0.35 5.35 M0.35 -6.3 L-3.15 -0.85" fill="none" stroke="#504630" stroke-linecap="round" stroke-linejoin="round" stroke-width="1.0"/>
    <path d="M8.7 3.65 Q11.8 3.15 11.85 -0.05 11.85 -3.25 8.7 -4.5" fill="none" stroke="#01436d" stroke-linecap="round" stroke-linejoin="round" stroke-width="1.0"/>
  </g>
</svg>
