<?xml version="1.0" encoding="UTF-8" standalone="no"?>
<svg xmlns:xlink="http://www.w3.org/1999/xlink" height="12.85px" width="13.85px" xmlns="http://www.w3.org/2000/svg">
  <g transform="matrix(1.0, 0.0, 0.0, 1.0, 6.65, 8.05)">
    <path d="M-6.15 -2.8 L-4.0 -1.95 -2.4 -1.6 0.35 -1.35 2.5 -1.35 6.05 -1.75 Q5.95 -1.7 5.6 -0.1 5.2 1.5 3.45 3.05 1.7 4.55 -0.55 4.25 -2.85 3.95 -4.3 2.45 -5.8 0.9 -6.0 -0.6 L-6.15 -2.8" fill="#1a1a1a" fill-rule="evenodd" stroke="none"/>
    <path d="M6.05 -1.75 L2.5 -1.35 0.35 -1.35 -2.4 -1.6 -4.0 -1.95 -6.15 -2.8 Q-5.8 -6.55 -2.5 -7.3 0.75 -8.1 4.35 -6.5 7.9 -4.9 6.05 -1.75 M4.45 -4.6 L3.75 -4.3 Q3.45 -4.05 3.45 -3.65 3.45 -3.3 3.75 -2.9 L4.45 -2.6 5.15 -2.9 5.45 -3.65 5.15 -4.3 4.45 -4.6" fill="url(#gradient0)" fill-rule="evenodd" stroke="none"/>
    <path d="M4.45 -4.6 L5.15 -4.3 5.45 -3.65 5.15 -2.9 4.45 -2.6 3.75 -2.9 Q3.45 -3.3 3.45 -3.65 3.45 -4.05 3.75 -4.3 L4.45 -4.6" fill="url(#gradient1)" fill-rule="evenodd" stroke="none"/>
    <path d="M6.05 -1.75 L2.5 -1.35 0.35 -1.35 -2.4 -1.6 -4.0 -1.95 -6.15 -2.8 -6.0 -0.6 Q-5.8 0.9 -4.3 2.45 -2.85 3.95 -0.55 4.25 1.7 4.55 3.45 3.05 5.2 1.5 5.6 -0.1 5.95 -1.7 6.05 -1.75 7.9 -4.9 4.35 -6.5 0.75 -8.1 -2.5 -7.3 -5.8 -6.55 -6.15 -2.8 M4.45 -4.6 L5.15 -4.3 5.45 -3.65 5.15 -2.9 4.45 -2.6 3.75 -2.9 Q3.45 -3.3 3.45 -3.65 3.45 -4.05 3.75 -4.3 L4.45 -4.6 Z" fill="none" stroke="#000000" stroke-linecap="round" stroke-linejoin="round" stroke-width="1.0"/>
  </g>
  <defs>
    <radialGradient cx="0" cy="0" gradientTransform="matrix(0.0164, 0.0, 0.0, 0.0098, -0.9, -4.55)" gradientUnits="userSpaceOnUse" id="gradient0" r="819.2" spreadMethod="pad">
      <stop offset="0.0" stop-color="#7e0101"/>
      <stop offset="1.0" stop-color="#000000"/>
    </radialGradient>
    <radialGradient cx="0" cy="0" gradientTransform="matrix(0.0016, 0.0, 0.0, 0.0016, 3.5, -3.8)" gradientUnits="userSpaceOnUse" id="gradient1" r="819.2" spreadMethod="pad">
      <stop offset="0.0" stop-color="#444444"/>
      <stop offset="1.0" stop-color="#1aa4ff"/>
    </radialGradient>
  </defs>
</svg>
