<?xml version="1.0" encoding="UTF-8" standalone="no"?>
<svg xmlns:xlink="http://www.w3.org/1999/xlink" height="14.5px" width="10.85px" xmlns="http://www.w3.org/2000/svg">
  <g transform="matrix(1.0, 0.0, 0.0, 1.0, 4.9, 6.55)">
    <path d="M1.55 -5.9 Q1.55 -6.55 2.2 -6.55 2.7 -6.55 2.8 -5.9 2.8 -5.3 2.2 -5.3 1.45 -5.3 1.55 -5.9 M-1.6 0.45 L-1.8 0.4 -2.45 1.2 Q-2.85 1.95 -3.6 1.95 -4.8 1.95 -4.9 0.65 -4.9 0.2 -4.3 -0.55 L-4.7 -1.35 Q-4.7 -2.05 -2.85 -2.05 L-1.1 -1.75 -0.6 -2.25 -0.3 -2.6 0.45 -2.4 0.45 -2.6 Q0.45 -3.55 1.1 -3.55 1.7 -3.55 1.8 -2.05 L2.95 -2.35 2.55 -2.85 Q2.55 -4.3 3.5 -4.3 4.3 -4.3 4.3 -1.95 L4.35 -1.4 4.35 -1.35 Q5.95 -1.45 5.95 0.05 5.95 1.1 3.95 2.2 L3.1 2.65 3.1 2.45 3.15 2.15 2.7 2.3 Q1.05 2.3 1.05 1.4 1.05 0.75 1.35 0.5 L-0.4 -0.65 Q-1.5 -0.65 -1.6 0.45 M2.6 6.25 L2.95 6.9 Q2.95 7.95 2.2 7.95 1.4 7.95 1.45 7.4 L1.45 7.2 Q1.45 6.2 2.35 6.2 L2.6 6.25 M0.45 6.1 L0.3 5.7 Q0.3 4.05 1.1 4.05 L1.15 4.05 Q1.9 4.1 1.7 5.15 1.7 6.3 1.1 6.3 0.65 6.3 0.45 6.1 M1.1 3.2 L0.8 3.2 Q-0.5 3.2 -1.05 2.25 -0.45 2.85 0.9 2.85 L1.05 2.85 1.1 3.2 M4.1 -0.8 L3.7 -0.7 3.5 -0.75 Q2.75 -0.55 2.7 0.3 3.35 0.55 3.3 1.45 L3.3 1.6 3.95 1.7 Q5.2 1.7 5.2 0.45 5.05 -0.75 4.1 -0.8" fill="#2f2f2f" fill-rule="evenodd" stroke="none"/>
    <path d="M3.1 2.65 Q3.1 5.05 2.6 6.25 L2.35 6.2 Q1.45 6.2 1.45 7.2 L1.45 7.4 1.25 7.4 Q0.15 7.4 0.25 6.45 L0.45 6.1 Q0.65 6.3 1.1 6.3 1.7 6.3 1.7 5.15 1.9 4.1 1.15 4.05 L1.15 3.8 1.1 3.2 1.05 2.85 0.9 2.85 Q-0.45 2.85 -1.05 2.25 -1.65 1.75 -1.65 0.75 L-1.6 0.45 Q-1.5 -0.65 -0.4 -0.65 L1.35 0.5 Q1.05 0.75 1.05 1.4 1.05 2.3 2.7 2.3 L3.15 2.15 3.1 2.45 3.1 2.65 M4.1 -0.8 Q5.05 -0.75 5.2 0.45 5.2 1.7 3.95 1.7 L3.3 1.6 3.3 1.45 Q3.35 0.55 2.7 0.3 2.75 -0.55 3.5 -0.75 L3.7 -0.7 4.1 -0.8" fill="#6f6f6f" fill-rule="evenodd" stroke="none"/>
  </g>
</svg>
