<?xml version="1.0" encoding="UTF-8" standalone="no"?>
<svg xmlns:ffdec="https://www.free-decompiler.com/flash" xmlns:xlink="http://www.w3.org/1999/xlink" ffdec:objectType="shape" height="21.1px" width="16.8px" xmlns="http://www.w3.org/2000/svg">
  <g transform="matrix(1.0, 0.0, 0.0, 1.0, 8.2, 5.65)">
    <path d="M5.05 -2.6 L1.95 -1.5 0.75 3.0 0.45 4.45 Q0.3 5.25 0.7 5.85 L1.35 6.9 1.65 8.6 2.15 12.75 2.15 12.8 Q-0.75 14.9 -2.05 14.95 L-2.1 14.95 -3.0 13.45 -4.75 8.9 -4.0 8.5 -2.05 5.1 -2.55 0.9 -5.3 -2.6 -5.05 -2.85 -5.05 -2.9 Q-1.0 -7.35 5.8 -2.9 L5.75 -2.9 5.05 -2.6" fill="#35372f" fill-rule="evenodd" stroke="none"/>
    <path d="M2.15 12.8 L2.15 12.75 1.65 8.6 1.35 6.9 0.7 5.85 Q0.3 5.25 0.45 4.45 L0.75 3.0 1.95 -1.5 5.05 -2.6 5.8 -2.9 5.85 -2.85 5.9 -2.85 5.85 -2.8 7.45 -0.55 8.1 1.35 7.85 5.0 6.7 10.6 7.55 13.4 Q6.7 14.6 2.2 13.7 L2.15 12.8 M5.85 -2.85 L5.85 -2.8 5.85 -2.85" fill="#565545" fill-rule="evenodd" stroke="none"/>
    <path d="M-5.3 -2.6 L-2.55 0.9 -2.05 5.1 -4.0 8.5 -4.75 8.9 -6.3 6.45 -7.6 2.65 Q-7.8 1.95 -7.5 1.3 L-6.95 -0.05 -6.2 -1.6 -5.35 -2.65 -5.35 -2.6 -5.3 -2.6" fill="#7b7963" fill-rule="evenodd" stroke="none"/>
    <path d="M2.15 12.8 L2.15 12.75 1.65 8.6 1.35 6.9 0.7 5.85 Q0.3 5.25 0.45 4.45 L0.75 3.0 1.95 -1.5 5.05 -2.6 5.8 -2.9 M2.15 12.8 L2.2 13.7" fill="none" stroke="#2e2e25" stroke-linecap="round" stroke-linejoin="round" stroke-width="1.0"/>
    <path d="M5.75 -2.9 L5.8 -2.9 Q-1.0 -7.35 -5.05 -2.9 L-5.05 -2.85 -5.3 -2.6 M-4.75 8.9 L-3.0 13.45 -2.1 14.95 -2.05 14.95 Q-0.75 14.9 2.15 12.8" fill="none" stroke="#252723" stroke-linecap="round" stroke-linejoin="round" stroke-width="1.0"/>
    <path d="M7.55 13.4 L6.7 10.6 7.85 5.0 8.1 1.35 7.45 -0.55 5.85 -2.8 5.85 -2.85 5.8 -2.9 M-4.75 8.9 L-6.3 6.45 -7.6 2.65 Q-7.8 1.95 -7.5 1.3 L-6.95 -0.05 -6.2 -1.6 -5.35 -2.65" fill="none" stroke="#333229" stroke-linecap="round" stroke-linejoin="round" stroke-width="1.0"/>
    <path d="M2.2 13.7 Q6.7 14.6 7.55 13.4" fill="none" stroke="#444337" stroke-linecap="round" stroke-linejoin="round" stroke-width="1.0"/>
    <path d="M-5.3 -2.6 L-2.55 0.9 -2.05 5.1 -4.0 8.5 -4.75 8.9 M-5.35 -2.65 L-5.35 -2.6 -5.3 -2.6" fill="none" stroke="#2a2a22" stroke-linecap="round" stroke-linejoin="round" stroke-width="1.0"/>
  </g>
</svg>
