<?xml version="1.0" encoding="UTF-8" standalone="no"?>
<svg xmlns:xlink="http://www.w3.org/1999/xlink" height="26.35px" width="25.5px" xmlns="http://www.w3.org/2000/svg">
  <g transform="matrix(1.0, 0.0, 0.0, 1.0, 15.6, 28.55)">
    <path d="M6.7 -26.0 L3.0 -26.95 2.35 -23.65 -2.4 -23.3 -2.4 -21.55 -4.55 -21.95 -4.55 -16.95 -2.4 -17.05 -2.4 -14.4 -4.65 -14.9 -4.65 -23.15 -7.1 -23.15 -7.1 -27.0 -8.35 -26.3 -8.4 -26.65 -3.6 -28.05 2.05 -28.05 Q5.0 -27.4 6.7 -26.0 M-1.6 -3.9 L-4.9 -3.85 -5.95 -10.65 -4.65 -10.65 -4.65 -11.6 -2.3 -11.6 -1.6 -3.9" fill="#666666" fill-rule="evenodd" stroke="none"/>
    <path d="M-7.1 -23.15 L-4.65 -23.15 -4.65 -14.9 -2.4 -14.4 -2.4 -17.05 -4.55 -16.95 -4.55 -21.95 -2.4 -21.55 -2.4 -23.3 2.35 -23.65 1.75 -20.8 1.75 -20.75 1.25 -17.3 6.5 -17.3 8.25 -16.45 9.4 -15.95 7.8 -8.5 4.0 -5.95 5.5 -10.65 6.7 -10.65 6.7 -14.55 6.1 -14.55 2.1 -14.55 2.4 -12.9 2.3 -13.4 -2.4 -14.4 2.3 -13.4 2.4 -12.9 2.65 -11.6 2.8 -10.65 5.35 -10.65 Q3.45 -6.6 3.8 -2.7 L-1.6 -3.9 -2.3 -11.6 -4.65 -11.6 -4.8 -11.6 -4.8 -14.95 -4.65 -14.9 -4.8 -14.95 -4.8 -11.6 -4.65 -11.6 -4.65 -10.65 -5.95 -10.65 -7.1 -10.65 -7.1 -23.15 M6.5 -17.3 L6.1 -14.55 6.5 -17.3 M2.65 -11.6 L-2.3 -11.6 2.65 -11.6 M-2.4 -21.55 L1.75 -20.8 -2.4 -21.55 M1.25 -17.3 L-2.4 -17.05 1.25 -17.3" fill="#333333" fill-rule="evenodd" stroke="none"/>
    <path d="M-8.35 -26.3 L-7.1 -27.0 -7.1 -23.15 -7.1 -10.65 -7.1 -8.0 -15.1 -10.75 -15.1 -22.75 -8.35 -26.3 M-13.1 -12.75 L-10.15 -12.75 -10.15 -15.75 -13.1 -15.75 -13.1 -12.75 M-13.1 -17.75 L-10.15 -17.75 -10.15 -20.75 -13.1 -20.75 -13.1 -17.75 M-8.9 -14.75 L-8.9 -25.25 -8.9 -14.75" fill="#4d4d4d" fill-rule="evenodd" stroke="none"/>
    <path d="M2.35 -23.65 L3.0 -26.95 6.7 -26.0 9.4 -25.35 9.4 -15.95 8.25 -16.45 6.5 -17.3 1.25 -17.3 1.75 -20.75 1.75 -20.8 2.35 -23.65 M7.5 -18.85 L7.5 -20.85 3.1 -20.85 3.1 -18.85 7.5 -18.85 M8.0 -21.85 L8.0 -23.85 3.6 -23.85 3.6 -21.85 8.0 -21.85" fill="#484848" fill-rule="evenodd" stroke="none"/>
    <path d="M2.4 -12.9 L2.1 -14.55 6.1 -14.55 6.7 -14.55 6.7 -10.65 5.5 -10.65 5.35 -10.65 2.8 -10.65 2.65 -11.6 2.4 -12.9" fill="#222222" fill-rule="evenodd" stroke="none"/>
    <path d="M8.0 -21.85 L3.6 -21.85 3.6 -23.85 8.0 -23.85 8.0 -21.85 M7.5 -18.85 L3.1 -18.85 3.1 -20.85 7.5 -20.85 7.5 -18.85 M-13.1 -17.75 L-13.1 -20.75 -10.15 -20.75 -10.15 -17.75 -13.1 -17.75 M-13.1 -12.75 L-13.1 -15.75 -10.15 -15.75 -10.15 -12.75 -13.1 -12.75" fill="#990000" fill-rule="evenodd" stroke="none"/>
    <path d="M-7.1 -10.65 L-7.1 -8.0 -15.1 -10.75 -15.1 -22.75 -8.35 -26.3 M-8.9 -25.25 L-8.9 -14.75" fill="none" stroke="#000000" stroke-linecap="round" stroke-linejoin="round" stroke-width="1.0"/>
    <path d="M6.7 -26.0 Q5.0 -27.4 2.05 -28.05 L-3.6 -28.05 -8.4 -26.65 -8.35 -26.3 -7.1 -27.0 -7.1 -23.15 M-1.6 -3.9 L-4.9 -3.85 -5.95 -10.65" fill="none" stroke="#2e2e2e" stroke-linecap="round" stroke-linejoin="round" stroke-width="1.0"/>
    <path d="M2.35 -23.65 L3.0 -26.95 6.7 -26.0 9.4 -25.35 9.4 -15.95 7.8 -8.5 4.0 -5.95 5.5 -10.65 M-4.65 -14.9 L-2.4 -14.4 2.3 -13.4 2.4 -12.9 M-2.4 -17.05 L-4.55 -16.95 -4.55 -21.95 -2.4 -21.55 1.75 -20.8 1.75 -20.75 1.25 -17.3 6.5 -17.3 8.25 -16.45 9.4 -15.95 M2.35 -23.65 L1.75 -20.8 M6.1 -14.55 L6.5 -17.3 M5.35 -10.65 Q3.45 -6.6 3.8 -2.7 L-1.6 -3.9 M-4.65 -11.6 L-2.3 -11.6 2.65 -11.6 M-2.4 -17.05 L1.25 -17.3" fill="none" stroke="#171717" stroke-linecap="round" stroke-linejoin="round" stroke-width="1.0"/>
    <path d="M-7.1 -23.15 L-4.65 -23.15 -4.65 -14.9 -4.8 -14.95 -4.8 -11.6 -4.65 -11.6 -4.65 -10.65 -5.95 -10.65 -7.1 -10.65 -7.1 -23.15 M2.4 -12.9 L2.1 -14.55 6.1 -14.55 6.7 -14.55 6.7 -10.65 5.5 -10.65 5.35 -10.65 2.8 -10.65 2.65 -11.6 2.4 -12.9" fill="none" stroke="#121212" stroke-linecap="round" stroke-linejoin="round" stroke-width="1.0"/>
    <path d="M8.0 -21.85 L3.6 -21.85 3.6 -23.85 8.0 -23.85 8.0 -21.85 M7.5 -18.85 L3.1 -18.85 3.1 -20.85 7.5 -20.85 7.5 -18.85 M-13.1 -17.75 L-13.1 -20.75 -10.15 -20.75 -10.15 -17.75 -13.1 -17.75 M-13.1 -12.75 L-13.1 -15.75 -10.15 -15.75 -10.15 -12.75 -13.1 -12.75" fill="none" stroke="#380000" stroke-linecap="round" stroke-linejoin="round" stroke-width="1.0"/>
  </g>
</svg>
