<?xml version="1.0" encoding="UTF-8" standalone="no"?>
<svg xmlns:xlink="http://www.w3.org/1999/xlink" height="26.15px" width="17.5px" xmlns="http://www.w3.org/2000/svg">
  <g transform="matrix(1.0, 0.0, 0.0, 1.0, 3.95, 13.65)">
    <path d="M4.8 -13.6 L5.35 -13.6 Q8.75 -13.65 11.2 -9.8 13.55 -5.95 13.55 -0.55 13.55 4.8 11.2 8.65 8.75 12.5 5.35 12.5 L4.8 12.4 4.8 -13.6" fill="url(#gradient0)" fill-rule="evenodd" stroke="none"/>
    <path d="M4.8 12.4 L4.25 12.5 Q0.8 12.5 -1.6 8.65 -4.0 4.8 -3.95 -0.55 -4.0 -5.95 -1.6 -9.8 0.8 -13.65 4.25 -13.6 L4.8 -13.6 4.8 12.4" fill="url(#gradient1)" fill-rule="evenodd" stroke="none"/>
  </g>
  <defs>
    <radialGradient cx="0" cy="0" gradientTransform="matrix(0.0, 0.0142, -0.01, 0.0, 5.35, -0.6)" gradientUnits="userSpaceOnUse" id="gradient0" r="819.2" spreadMethod="pad">
      <stop offset="0.17647058823529413" stop-color="#ffffff"/>
      <stop offset="1.0" stop-color="#139ffd" stop-opacity="0.0"/>
    </radialGradient>
    <radialGradient cx="0" cy="0" gradientTransform="matrix(0.0, 0.0142, 0.01, 0.0, 4.25, -0.6)" gradientUnits="userSpaceOnUse" id="gradient1" r="819.2" spreadMethod="pad">
      <stop offset="0.17647058823529413" stop-color="#ffffff"/>
      <stop offset="1.0" stop-color="#139ffd" stop-opacity="0.0"/>
    </radialGradient>
  </defs>
</svg>
