<?xml version="1.0" encoding="UTF-8" standalone="no"?>
<svg xmlns:ffdec="https://www.free-decompiler.com/flash" xmlns:xlink="http://www.w3.org/1999/xlink" ffdec:objectType="shape" height="19.5px" width="15.1px" xmlns="http://www.w3.org/2000/svg">
  <g transform="matrix(1.0, 0.0, 0.0, 1.0, 7.45, 4.0)">
    <path d="M-3.0 6.15 L-1.65 6.35 -1.15 8.55 -1.75 9.05 -2.3 9.55 -3.0 6.15" fill="#65a6db" fill-rule="evenodd" stroke="none"/>
    <path d="M-3.0 6.15 L-2.3 9.55" fill="none" stroke="#5b759d" stroke-linecap="round" stroke-linejoin="round" stroke-width="1.0"/>
    <path d="M-2.55 -3.4 L1.5 -3.2 5.95 0.0 7.15 5.65 6.2 6.65 Q5.6 7.95 7.15 9.4 L6.6 11.7 5.6 15.0 1.05 15.0 Q0.85 14.25 0.25 13.45 -0.9 11.7 -2.45 11.35 L-2.95 10.1 -2.8 9.95 -1.75 9.05 -1.15 8.55 -1.65 6.35 -3.75 6.0 -4.15 4.05 -4.55 3.55 -5.7 2.95 -6.95 0.3 -4.45 -3.0 -2.55 -3.4 M3.75 1.7 L2.65 4.35 3.75 1.7 M2.65 12.05 L3.75 10.2 2.65 4.35 0.65 4.35 2.65 12.05" fill="#738aa1" fill-rule="evenodd" stroke="none"/>
    <path d="M0.65 4.35 L2.65 4.35 3.75 10.2 2.65 12.05 0.65 4.35" fill="#4b5975" fill-rule="evenodd" stroke="none"/>
    <path d="M-2.55 -3.4 L1.5 -3.2 5.95 0.0 7.15 5.65 6.2 6.65 Q5.6 7.95 7.15 9.4 L6.6 11.7 5.6 15.0 1.05 15.0 Q0.85 14.25 0.25 13.45 -0.9 11.7 -2.45 11.35 L-2.95 10.1 -2.8 9.95 -1.75 9.05 -1.15 8.55 -1.65 6.35 -3.75 6.0 -4.15 4.05 -4.55 3.55 -5.7 2.95 -6.95 0.3 -4.45 -3.0 -2.55 -3.4" fill="none" stroke="#444854" stroke-linecap="round" stroke-linejoin="round" stroke-width="1.0"/>
    <path d="M2.65 4.35 L3.75 1.7 M2.65 12.05 L3.75 10.2 2.65 4.35 0.65 4.35" fill="none" stroke="#2e2d3f" stroke-linecap="round" stroke-linejoin="round" stroke-width="1.0"/>
  </g>
</svg>
