<?xml version="1.0" encoding="UTF-8" standalone="no"?>
<svg xmlns:ffdec="https://www.free-decompiler.com/flash" xmlns:xlink="http://www.w3.org/1999/xlink" ffdec:objectType="shape" height="22.85px" width="14.7px" xmlns="http://www.w3.org/2000/svg">
  <g transform="matrix(1.0, 0.0, 0.0, 1.0, 7.3, 4.65)">
    <path d="M4.15 -0.95 L5.8 11.45 5.85 14.45 1.6 14.7 -0.8 12.35 -2.45 7.5 -4.1 0.15 Q-3.5 -0.15 -2.9 -0.55 L-0.6 -1.4 0.5 -1.05 1.75 -0.55 Q2.9 -0.4 4.15 -0.95" fill="#0f152e" fill-rule="evenodd" stroke="none"/>
    <path d="M4.15 -0.95 L5.8 11.45 5.85 14.45 1.6 14.7 -0.8 12.35 -2.45 7.5 -4.1 0.15 Q-3.5 -0.15 -2.9 -0.55 L-0.6 -1.4 0.5 -1.05 1.75 -0.55 Q2.9 -0.4 4.15 -0.95 Z" fill="none" stroke="#080b19" stroke-linecap="round" stroke-linejoin="round" stroke-width="0.9500000000000001"/>
    <path d="M4.35 -1.35 Q5.35 0.35 5.65 3.7 L0.85 6.9 -0.1 3.35 1.5 -0.35 4.35 -1.35" fill="#282828" fill-rule="evenodd" stroke="none"/>
    <path d="M4.35 -1.35 Q5.35 0.35 5.65 3.7 L0.85 6.9 -0.1 3.35 1.5 -0.35 4.35 -1.35 Z" fill="none" stroke="#121212" stroke-linecap="round" stroke-linejoin="round" stroke-width="0.9500000000000001"/>
    <path d="M2.75 8.3 L3.65 10.95 5.7 10.1 6.45 13.0 5.1 14.15 0.0 13.65 -2.7 8.85 2.75 8.3" fill="#1c1c1c" fill-rule="evenodd" stroke="none"/>
    <path d="M2.75 8.3 L-2.7 8.85 0.0 13.65 5.1 14.15 6.45 13.0 5.7 10.1 3.65 10.95 2.75 8.3 Z" fill="none" stroke="#121212" stroke-linecap="round" stroke-linejoin="round" stroke-width="0.9500000000000001"/>
    <path d="M3.65 0.8 L4.1 2.4" fill="none" stroke="#121212" stroke-linecap="round" stroke-linejoin="round" stroke-width="0.9500000000000001"/>
    <path d="M-0.1 3.35 L0.85 6.9 -4.4 5.5 -6.85 0.8 -3.3 -4.2 1.85 -0.55 -0.1 3.35" fill="#282828" fill-rule="evenodd" stroke="none"/>
    <path d="M-0.1 3.35 L1.85 -0.55 -3.3 -4.2 -6.85 0.8 -4.4 5.5 0.85 6.9 -0.1 3.35 Z" fill="none" stroke="#121212" stroke-linecap="round" stroke-linejoin="round" stroke-width="0.9500000000000001"/>
    <path d="M0.85 6.9 L4.9 4.15 5.35 4.9 5.95 6.15 6.95 11.2 4.0 12.35 2.65 8.0 0.85 6.9" fill="#282828" fill-rule="evenodd" stroke="none"/>
    <path d="M0.85 6.9 L4.9 4.15 5.35 4.9 5.95 6.15 6.95 11.2 4.0 12.35 2.65 8.0 0.85 6.9 Z" fill="none" stroke="#121212" stroke-linecap="round" stroke-linejoin="round" stroke-width="0.9500000000000001"/>
    <path d="M-1.95 0.65 L-1.85 1.95 -5.05 4.25 -6.1 2.25 -3.0 0.0 -1.95 0.65" fill="#f3ab05" fill-rule="evenodd" stroke="none"/>
    <path d="M-1.95 0.65 L-1.85 1.95 -5.05 4.25 -6.1 2.25 -3.0 0.0 -1.95 0.65 Z" fill="none" stroke="#503803" stroke-linecap="round" stroke-linejoin="round" stroke-width="0.9500000000000001"/>
    <path d="M0.7 13.85 L4.75 14.15 5.85 13.7 5.85 15.0 5.75 16.65 Q5.4 17.45 4.8 17.65 3.55 18.0 2.3 17.1 1.8 16.75 1.25 15.25 L0.7 13.85" fill="#0f152e" fill-rule="evenodd" stroke="none"/>
    <path d="M0.7 13.85 L1.25 15.25 Q1.8 16.75 2.3 17.1 3.55 18.0 4.8 17.65 5.4 17.45 5.75 16.65 L5.85 15.0 5.85 13.7 4.75 14.15 0.7 13.85 Z" fill="none" stroke="#080b19" stroke-linecap="round" stroke-linejoin="round" stroke-width="0.9500000000000001"/>
  </g>
</svg>
