<?xml version="1.0" encoding="UTF-8" standalone="no"?>
<svg xmlns:ffdec="https://www.free-decompiler.com/flash" xmlns:xlink="http://www.w3.org/1999/xlink" ffdec:objectType="shape" height="19.75px" width="12.85px" xmlns="http://www.w3.org/2000/svg">
  <g transform="matrix(1.0, 0.0, 0.0, 1.0, 5.4, 4.1)">
    <path d="M-0.85 -3.3 Q2.4 -4.05 3.45 -2.85 4.6 -1.65 6.05 4.35 L6.7 9.35 Q6.9 11.85 6.5 13.2 5.95 15.0 3.3 15.15 0.85 15.2 0.05 14.5 -1.0 13.45 -0.4 11.55 -0.2 11.0 -1.25 9.6 L-2.5 7.45 -2.5 7.4 -3.3 4.6 -3.5 4.1 -4.75 1.25 Q-5.7 -2.2 -0.85 -3.3 M-1.25 0.6 L-0.15 3.65 2.65 3.35 4.05 2.6 3.15 -0.4 -1.25 0.6" fill="#b39a82" fill-rule="evenodd" stroke="none"/>
    <path d="M3.15 -0.4 L4.05 2.6 2.65 3.35 -0.15 3.65 -1.25 0.6 3.15 -0.4" fill="#917563" fill-rule="evenodd" stroke="none"/>
    <path d="M3.15 -0.4 L4.05 2.6 2.65 3.35 -0.15 3.65 -1.25 0.6" fill="none" stroke="#56433d" stroke-linecap="round" stroke-linejoin="round" stroke-width="1.0"/>
    <path d="M-0.85 -3.3 Q-5.7 -2.2 -4.75 1.25 L-3.5 4.1 -3.3 4.6 -2.5 7.4 -2.5 7.45 -1.25 9.6 Q-0.2 11.0 -0.4 11.55 -1.0 13.45 0.05 14.5 0.85 15.2 3.3 15.15 5.95 15.0 6.5 13.2 6.9 11.85 6.7 9.35 L6.05 4.35 Q4.6 -1.65 3.45 -2.85 2.4 -4.05 -0.85 -3.3 M-1.25 0.6 L3.15 -0.4" fill="none" stroke="#745b52" stroke-linecap="round" stroke-linejoin="round" stroke-width="1.0"/>
    <path d="M0.5 8.7 Q-1.7 8.05 -2.5 7.4 L-2.8 6.95 -3.35 5.35 -3.45 4.45 Q-1.65 5.95 0.55 6.45 L3.1 7.0 6.55 7.5 6.85 8.1 6.95 8.8 6.7 9.35 Q3.7 9.65 0.5 8.7" fill="#4e3e39" fill-rule="evenodd" stroke="none"/>
    <path d="M0.5 8.7 Q-1.7 8.05 -2.5 7.4 L-2.8 6.95 -3.35 5.35 -3.45 4.45 Q-1.65 5.95 0.55 6.45 L3.1 7.0 6.55 7.5 6.85 8.1 6.95 8.8 6.7 9.35 Q3.7 9.65 0.5 8.7 Z" fill="none" stroke="#252323" stroke-linecap="round" stroke-linejoin="round" stroke-width="1.0"/>
  </g>
</svg>
