<?xml version="1.0" encoding="UTF-8" standalone="no"?>
<svg xmlns:xlink="http://www.w3.org/1999/xlink" height="23.5px" width="15.6px" xmlns="http://www.w3.org/2000/svg">
  <g transform="matrix(1.0, 0.0, 0.0, 1.0, 8.7, 4.75)">
    <path d="M-2.35 5.5 Q-0.4 3.9 2.55 2.8 3.75 2.3 4.65 2.3 6.95 2.35 6.25 6.05 5.15 10.15 2.0 9.7 0.05 8.15 -1.55 8.4 -1.5 7.5 -1.75 6.75 L-2.35 5.5 M4.35 5.9 Q3.95 7.35 2.75 7.85 3.95 7.35 4.35 5.9" fill="#354759" fill-rule="evenodd" stroke="none"/>
    <path d="M2.0 9.7 L1.5 14.1 1.35 14.8 Q-3.5 11.3 -6.8 18.25 -7.3 17.25 -7.2 15.5 -6.6 13.4 -5.15 11.55 L-3.6 11.3 Q-2.2 10.7 -1.75 9.35 L-1.55 8.4 Q0.05 8.15 2.0 9.7" fill="url(#gradient0)" fill-rule="evenodd" stroke="none"/>
    <path d="M0.8 -2.1 Q1.6 -3.95 3.1 -4.25 6.65 -4.4 5.65 -0.95 L4.65 2.3 Q3.75 2.3 2.55 2.8 -0.4 3.9 -2.35 5.5 -2.75 5.0 -3.6 4.5 L-5.25 4.35 -3.6 4.5 Q-2.75 5.0 -2.35 5.5 L-1.75 6.75 Q-1.5 7.5 -1.55 8.4 L-1.75 9.35 Q-2.2 10.7 -3.6 11.3 L-5.15 11.55 -6.2 11.2 Q-7.55 10.5 -8.0 9.1 -8.4 7.7 -8.0 6.4 -7.5 5.25 -6.0 4.6 L-5.25 4.35 -4.95 1.6 -3.35 0.2 -2.15 3.1 Q1.2 1.3 0.8 -2.1 M4.2 -1.05 L2.3 -0.85 4.2 -1.05 M3.9 0.5 L2.0 0.7 3.9 0.5" fill="#6d7b83" fill-rule="evenodd" stroke="none"/>
    <path d="M0.8 -2.1 Q1.2 1.3 -2.15 3.1 L-3.35 0.2 Q-0.9 -3.75 0.8 -2.1" fill="url(#gradient1)" fill-rule="evenodd" stroke="none"/>
    <path d="M4.65 2.3 Q6.95 2.35 6.25 6.05 5.15 10.15 2.0 9.7" fill="none" stroke="#141b22" stroke-linecap="round" stroke-linejoin="round" stroke-width="1.0"/>
    <path d="M2.0 9.7 L1.5 14.1 1.35 14.8 Q-3.5 11.3 -6.8 18.25 -7.3 17.25 -7.2 15.5 -6.6 13.4 -5.15 11.55" fill="none" stroke="#1d262f" stroke-linecap="round" stroke-linejoin="round" stroke-width="1.0"/>
    <path d="M2.75 7.85 Q3.95 7.35 4.35 5.9" fill="none" stroke="#141c23" stroke-linecap="round" stroke-linejoin="round" stroke-width="1.0"/>
    <path d="M-1.55 8.4 Q0.05 8.15 2.0 9.7" fill="none" stroke="#252f3a" stroke-linecap="round" stroke-linejoin="round" stroke-width="1.0"/>
    <path d="M-2.35 5.5 Q-0.4 3.9 2.55 2.8 3.75 2.3 4.65 2.3" fill="none" stroke="#232e3a" stroke-linecap="round" stroke-linejoin="round" stroke-width="1.0"/>
    <path d="M0.8 -2.1 Q1.2 1.3 -2.15 3.1 L-3.35 0.2 M-5.25 4.35 L-3.6 4.5 Q-2.75 5.0 -2.35 5.5" fill="none" stroke="#3c454a" stroke-linecap="round" stroke-linejoin="round" stroke-width="1.0"/>
    <path d="M-1.55 8.4 L-1.75 9.35 Q-2.2 10.7 -3.6 11.3 L-5.15 11.55 M-2.35 5.5 L-1.75 6.75 Q-1.5 7.5 -1.55 8.4" fill="none" stroke="#30373a" stroke-linecap="round" stroke-linejoin="round" stroke-width="1.0"/>
    <path d="M4.65 2.3 L5.65 -0.95 Q6.65 -4.4 3.1 -4.25 1.6 -3.95 0.8 -2.1 -0.9 -3.75 -3.35 0.2 L-4.95 1.6 -5.25 4.35 -6.0 4.6 Q-7.5 5.25 -8.0 6.4 -8.4 7.7 -8.0 9.1 -7.55 10.5 -6.2 11.2 L-5.15 11.55" fill="none" stroke="#2a2f33" stroke-linecap="round" stroke-linejoin="round" stroke-width="1.0"/>
    <path d="M2.3 -0.85 L4.2 -1.05" fill="none" stroke="#546269" stroke-linecap="round" stroke-linejoin="round" stroke-width="1.0"/>
    <path d="M2.0 0.7 L3.9 0.5" fill="none" stroke="#546269" stroke-linecap="round" stroke-linejoin="round" stroke-width="1.0"/>
  </g>
  <defs>
    <linearGradient gradientTransform="matrix(0.0033, -0.0059, 0.0041, 0.0023, -2.45, 14.2)" gradientUnits="userSpaceOnUse" id="gradient0" spreadMethod="pad" x1="-819.2" x2="819.2">
      <stop offset="0.0" stop-color="#293845"/>
      <stop offset="1.0" stop-color="#4c667e"/>
    </linearGradient>
    <linearGradient gradientTransform="matrix(5.0E-4, 7.0E-4, -0.0035, 0.0026, 0.25, 0.3)" gradientUnits="userSpaceOnUse" id="gradient1" spreadMethod="pad" x1="-819.2" x2="819.2">
      <stop offset="0.0" stop-color="#424a4f"/>
      <stop offset="1.0" stop-color="#6d7b83"/>
    </linearGradient>
  </defs>
</svg>
