<?xml version="1.0" encoding="UTF-8" standalone="no"?>
<svg xmlns:xlink="http://www.w3.org/1999/xlink" height="22.6px" width="15.0px" xmlns="http://www.w3.org/2000/svg">
  <g transform="matrix(1.0, 0.0, 0.0, 1.0, 9.2, 3.15)">
    <path d="M-4.65 12.2 L-4.85 12.7 -5.05 7.9 -5.05 7.25 -3.0 7.25 Q-3.1 5.15 -2.55 4.3 L-4.85 3.55 Q-4.7 1.75 -4.35 0.75 L-4.2 0.8 -3.8 0.85 -3.5 0.95 -2.45 1.15 -2.1 3.0 -1.05 3.0 1.1 0.75 4.15 0.75 5.3 2.7 2.35 4.75 -0.3 11.4 -0.3 15.55 -2.0 15.55 Q-2.85 15.2 -3.2 14.3 L-3.1 13.9 -2.25 9.7 -3.7 9.8 -4.65 12.2 M-4.2 0.8 L-3.5 0.95 -4.2 0.8" fill="#9b9b9a" fill-rule="evenodd" stroke="none"/>
    <path d="M-4.65 14.4 L-4.65 12.2 -3.7 9.8 -2.25 9.7 -3.1 13.9 Q-4.0 14.0 -4.65 14.4 M-3.8 0.85 L-3.8 0.75 Q-2.85 -2.8 0.25 -2.65 3.3 -2.4 4.15 0.75 L1.1 0.75 -1.05 3.0 -2.1 3.0 -2.45 1.15 -3.5 0.95 -3.8 0.85" fill="#737373" fill-rule="evenodd" stroke="none"/>
    <path d="M5.3 2.7 L1.75 12.25 1.75 15.55 1.1 15.55 -0.3 15.55 -0.3 11.4 2.35 4.75 5.3 2.7" fill="#e1e1e1" fill-rule="evenodd" stroke="none"/>
    <path d="M1.1 15.55 Q0.95 16.0 1.1 16.7 1.2 17.4 0.9 18.25 0.6 19.1 -1.65 18.95 -3.85 18.8 -4.55 18.15 -5.3 17.45 -5.5 16.5 -5.7 15.55 -5.25 15.15 L-4.65 14.4 Q-4.0 14.0 -3.1 13.9 L-3.2 14.3 Q-2.85 15.2 -2.0 15.55 L-0.3 15.55 1.1 15.55" fill="#a7a7a7" fill-rule="evenodd" stroke="none"/>
    <path d="M-5.05 7.25 L-7.75 5.6 -8.1 5.4 -8.7 2.3 -8.05 2.5 -4.85 3.55 -2.55 4.3 Q-3.1 5.15 -3.0 7.25 L-5.05 7.25 M-7.75 5.6 L-8.05 2.5 -7.75 5.6" fill="#cbcbcb" fill-rule="evenodd" stroke="none"/>
    <path d="M-4.65 12.2 L-4.85 12.7 -5.05 7.9 -5.05 7.25 M-4.85 3.55 Q-4.7 1.75 -4.35 0.75 L-4.2 0.8 -3.5 0.95 -2.45 1.15 -2.1 3.0 -1.05 3.0 1.1 0.75 4.15 0.75 5.3 2.7 1.75 12.25 1.75 15.55 1.1 15.55 -0.3 15.55 -2.0 15.55 Q-2.85 15.2 -3.2 14.3 L-3.1 13.9 -2.25 9.7 -3.7 9.8 -4.65 12.2 M5.3 2.7 L2.35 4.75 -0.3 11.4 -0.3 15.55" fill="none" stroke="#5b5a5a" stroke-linecap="round" stroke-linejoin="round" stroke-width="1.0"/>
    <path d="M-5.05 7.25 L-7.75 5.6 -8.1 5.4 -8.7 2.3 -8.05 2.5 -4.85 3.55 -2.55 4.3 Q-3.1 5.15 -3.0 7.25 L-5.05 7.25" fill="none" stroke="#4f4f4f" stroke-linecap="round" stroke-linejoin="round" stroke-width="1.0"/>
    <path d="M-8.05 2.5 L-7.75 5.6" fill="none" stroke="#8a8b8b" stroke-linecap="round" stroke-linejoin="round" stroke-width="1.0"/>
    <path d="M1.1 15.55 Q0.95 16.0 1.1 16.7 1.2 17.4 0.9 18.25 0.6 19.1 -1.65 18.95 -3.85 18.8 -4.55 18.15 -5.3 17.45 -5.5 16.5 -5.7 15.55 -5.25 15.15 L-4.65 14.4 Q-4.0 14.0 -3.1 13.9" fill="none" stroke="#434343" stroke-linecap="round" stroke-linejoin="round" stroke-width="1.0"/>
    <path d="M-4.65 14.4 L-4.65 12.2 M-3.8 0.85 L-3.8 0.75 Q-2.85 -2.8 0.25 -2.65 3.3 -2.4 4.15 0.75" fill="none" stroke="#353535" stroke-linecap="round" stroke-linejoin="round" stroke-width="1.0"/>
  </g>
</svg>
