<?xml version="1.0" encoding="UTF-8" standalone="no"?>
<svg xmlns:xlink="http://www.w3.org/1999/xlink" height="26.2px" width="15.6px" xmlns="http://www.w3.org/2000/svg">
  <g transform="matrix(1.0, 0.0, 0.0, 1.0, 6.7, 3.8)">
    <path d="M1.6 1.0 L3.65 -2.85 Q4.55 -3.45 5.8 -3.25 L6.7 -2.95 8.4 -0.25 7.9 1.3 5.95 1.7 5.45 3.25 6.9 4.75 5.45 3.25 5.95 1.7 7.9 1.3 8.05 1.25 7.85 2.2 Q7.25 4.65 6.9 4.75 L6.8 4.85 Q5.65 5.25 4.35 6.85 L3.15 8.5 2.1 7.55 Q1.65 5.95 1.6 4.3 L1.55 2.4 1.6 1.0 M2.45 11.35 L3.5 12.65 Q4.75 14.25 5.3 15.8 L2.5 19.85 -3.85 16.6 -3.8 16.2 -3.7 16.1 -3.25 15.15 Q-2.65 13.9 -1.8 13.3 L-1.6 13.15 Q-1.1 12.85 0.4 12.4 L2.45 11.35 M1.4 14.15 Q-1.05 14.7 -1.55 16.35 -1.05 14.7 1.4 14.15" fill="#3f474c" fill-rule="evenodd" stroke="none"/>
    <path d="M1.6 1.0 L1.55 2.4 1.6 4.3 Q1.65 5.95 2.1 7.55 L3.15 8.5 2.45 11.35 0.4 12.4 Q-1.1 12.85 -1.6 13.15 L-1.8 13.3 -1.7 13.15 -2.75 10.2 -1.8 6.3 -4.65 2.65 -0.15 0.4 1.6 1.0 M-2.5 4.0 L-1.05 3.25 -2.5 4.0" fill="#595959" fill-rule="evenodd" stroke="none"/>
    <path d="M2.5 19.85 L1.0 21.9 -2.15 21.7 -3.85 16.6 2.5 19.85" fill="#353a40" fill-rule="evenodd" stroke="none"/>
    <path d="M-3.85 16.6 L-6.2 9.95 -6.1 8.15 -5.7 6.1 -5.4 4.65 -4.65 2.65 -1.8 6.3 -2.75 10.2 -1.7 13.15 -1.8 13.3 Q-2.65 13.9 -3.25 15.15 L-3.7 16.1 -3.8 16.2 -3.85 16.6" fill="#3f3f3f" fill-rule="evenodd" stroke="none"/>
    <path d="M8.4 -0.25 L6.7 -2.95 5.8 -3.25 Q4.55 -3.45 3.65 -2.85 L1.6 1.0 M3.15 8.5 L4.35 6.85 Q5.65 5.25 6.8 4.85 L6.9 4.75 Q7.25 4.65 7.85 2.2 L8.05 1.25 8.4 -0.25 M2.45 11.35 L3.5 12.65 Q4.75 14.25 5.3 15.8 L2.5 19.85 1.0 21.9 -2.15 21.7 -3.85 16.6 -3.8 16.2 -3.7 16.1 -3.25 15.15 Q-2.65 13.9 -1.8 13.3 L-1.6 13.15 Q-1.1 12.85 0.4 12.4 L2.45 11.35" fill="none" stroke="#22262a" stroke-linecap="round" stroke-linejoin="round" stroke-width="1.0"/>
    <path d="M7.9 1.3 L8.05 1.25" fill="none" stroke="#292e33" stroke-linecap="butt" stroke-linejoin="round" stroke-width="1.0"/>
    <path d="M1.6 1.0 L1.55 2.4 1.6 4.3 Q1.65 5.95 2.1 7.55 L3.15 8.5 2.45 11.35 M-3.85 16.6 L-6.2 9.95 -6.1 8.15 M-5.4 4.65 L-4.65 2.65 -0.15 0.4 1.6 1.0 M-1.05 3.25 L-2.5 4.0" fill="none" stroke="#282828" stroke-linecap="round" stroke-linejoin="round" stroke-width="1.0"/>
    <path d="M-6.1 8.15 L-5.7 6.1 -5.4 4.65" fill="none" stroke="#2ac116" stroke-linecap="round" stroke-linejoin="round" stroke-width="1.0"/>
    <path d="M-1.55 16.35 Q-1.05 14.7 1.4 14.15" fill="none" stroke="#292e33" stroke-linecap="round" stroke-linejoin="round" stroke-width="1.0"/>
    <path d="M6.9 4.75 L5.45 3.25 5.95 1.7 7.9 1.3" fill="none" stroke="#292e33" stroke-linecap="round" stroke-linejoin="round" stroke-width="1.0"/>
  </g>
</svg>
