<?xml version="1.0" encoding="UTF-8" standalone="no"?>
<svg xmlns:xlink="http://www.w3.org/1999/xlink" height="8.8px" width="9.4px" xmlns="http://www.w3.org/2000/svg">
  <g transform="matrix(1.0, 0.0, 0.0, 1.0, 0.5, 0.5)">
    <path d="M8.4 4.7 L3.9 7.8 Q1.0 5.85 0.0 2.7 L5.7 0.0 Q6.9 3.15 8.4 4.7 M4.9 5.8 L2.5 2.7 1.4 3.2 4.0 6.4 4.9 5.8 M5.8 5.2 L6.8 4.6 5.0 1.5 3.9 2.0 5.8 5.2" fill="#594a42" fill-rule="evenodd" stroke="none"/>
    <path d="M5.8 5.2 L3.9 2.0 5.0 1.5 6.8 4.6 5.8 5.2 M4.9 5.8 L4.0 6.4 1.4 3.2 2.5 2.7 4.9 5.8" fill="#443935" fill-rule="evenodd" stroke="none"/>
    <path d="M8.4 4.7 L3.9 7.8 Q1.0 5.85 0.0 2.7 L5.7 0.0 Q6.9 3.15 8.4 4.7" fill="none" stroke="#271d1c" stroke-linecap="round" stroke-linejoin="round" stroke-width="1.0"/>
    <path d="M5.8 5.2 L3.9 2.0 5.0 1.5 6.8 4.6 5.8 5.2 M4.9 5.8 L4.0 6.4 1.4 3.2 2.5 2.7 4.9 5.8" fill="none" stroke="#2a2321" stroke-linecap="round" stroke-linejoin="round" stroke-width="1.0"/>
  </g>
</svg>
