<?xml version="1.0" encoding="UTF-8" standalone="no"?>
<svg xmlns:xlink="http://www.w3.org/1999/xlink" height="27.45px" width="22.85px" xmlns="http://www.w3.org/2000/svg">
  <g transform="matrix(1.0, 0.0, 0.0, 1.0, 13.35, 29.55)">
    <path d="M4.15 -13.6 L4.2 -16.05 2.8 -17.65 2.6 -26.2 4.0 -27.8 4.2 -28.05 4.35 -28.2 6.45 -28.5 Q7.7 -27.2 7.8 -25.3 L6.5 -24.2 6.8 -17.65 8.15 -17.2 8.15 -15.35 6.85 -12.7 5.95 -13.0 5.85 -13.05 4.15 -13.6 M-6.5 -27.75 L-4.8 -27.05 -4.8 -27.0 -4.95 -23.8 -4.5 -22.85 -3.3 -20.6 -3.3 -16.9 -5.3 -15.25 -5.45 -11.65 -6.0 -10.65 -6.05 -10.65 -9.05 -10.7 -9.85 -11.45 -9.6 -11.65 -9.6 -13.95 -11.95 -13.95 -12.05 -16.45 -10.9 -16.45 -10.9 -19.4 -12.05 -19.4 -12.05 -20.85 -10.4 -20.85 -10.05 -25.15 -11.45 -26.2 -11.2 -26.2 -10.15 -28.5 -8.15 -28.5 -6.55 -27.75 -6.5 -27.75 -4.8 -27.0 -6.5 -27.75 M4.45 -20.25 L4.2 -25.3 5.15 -26.4 4.2 -25.3 4.45 -20.25 M-8.25 -26.4 L-5.85 -25.95 -8.25 -26.4 M-4.95 -23.8 L-4.95 -23.75 -4.5 -22.85 -4.95 -23.75 -4.95 -23.8 M-7.5 -22.95 L-8.35 -22.7 -8.7 -22.45 -9.15 -21.25 Q-9.15 -20.55 -8.7 -20.1 -8.25 -19.65 -7.7 -19.6 L-7.5 -19.6 Q-6.85 -19.6 -6.35 -20.1 -5.85 -20.55 -5.85 -21.25 -5.85 -22.0 -6.35 -22.45 -6.85 -22.95 -7.5 -22.95 M-8.25 -15.7 L-7.6 -15.95 Q-7.3 -16.25 -7.3 -16.6 -7.3 -17.0 -7.6 -17.25 -7.85 -17.55 -8.25 -17.55 L-8.9 -17.25 -9.15 -16.6 -8.9 -15.95 -8.25 -15.7 M-8.25 -25.15 L-6.05 -24.65 -8.25 -25.15" fill="#e1e1e1" fill-rule="evenodd" stroke="none"/>
    <path d="M4.0 -27.8 L2.6 -26.2 2.8 -17.65 4.2 -16.05 4.15 -13.6 3.45 -13.4 2.7 -13.3 1.3 -13.0 1.15 -11.8 1.15 -11.5 1.05 -10.7 0.25 -10.7 -0.75 -9.75 -3.3 -9.65 -5.45 -11.65 -5.3 -15.25 -3.3 -16.9 -3.3 -20.6 -4.5 -22.85 -4.95 -23.8 -4.8 -27.0 -4.8 -27.05 -6.5 -27.75 -3.45 -28.75 -2.75 -28.85 -2.55 -28.9 -1.55 -29.0 1.25 -28.8 1.55 -28.75 1.65 -28.7 4.0 -27.8 M8.15 -17.2 L6.8 -17.65 6.5 -24.2 7.8 -25.3 Q8.65 -24.85 8.9 -21.3 L9.0 -17.8 8.15 -17.2 M-3.3 -12.1 L-3.3 -13.95 -1.85 -15.25 -3.3 -13.95 -3.3 -12.1" fill="#a7a7a7" fill-rule="evenodd" stroke="none"/>
    <path d="M1.05 -10.7 L1.15 -11.5 1.15 -11.8 1.3 -13.0 2.7 -13.3 3.45 -13.4 4.15 -13.6 5.85 -13.05 5.95 -12.95 5.9 -12.0 5.55 -9.3 5.5 -9.3 3.2 -9.45 2.0 -10.7 1.05 -10.7 M-9.85 -11.45 L-10.15 -11.25 -10.4 -11.1 -12.8 -11.1 -12.8 -13.95 -11.95 -13.95 -9.6 -13.95 -9.6 -11.65 -9.85 -11.45 M-10.15 -11.25 L-9.6 -11.65 -10.15 -11.25" fill="#6e797a" fill-rule="evenodd" stroke="none"/>
    <path d="M-5.45 -11.65 L-3.3 -9.65 -0.75 -9.75 0.25 -10.7 1.05 -10.7 2.0 -10.7 3.2 -9.45 5.5 -9.3 5.55 -9.3 5.85 -8.2 5.9 -7.8 5.9 -7.65 5.9 -7.1 5.9 -7.0 5.8 -5.9 4.25 -4.1 Q2.75 -2.7 -0.15 -2.6 -3.05 -2.55 -4.7 -4.7 -6.35 -6.9 -6.35 -7.5 L-6.4 -7.9 -6.35 -8.55 -6.35 -8.95 -6.3 -9.25 -6.2 -9.8 -6.05 -10.65 -6.0 -10.65 -5.45 -11.65 M0.85 -9.1 L1.75 -9.1 0.85 -9.1 M-6.0 -10.65 L-6.2 -9.8 -6.0 -10.65" fill="#cbcbcb" fill-rule="evenodd" stroke="none"/>
    <path d="M-12.05 -20.85 L-12.3 -20.85 -12.35 -22.85 Q-12.25 -25.1 -11.45 -26.2 L-10.05 -25.15 -10.4 -20.85 -12.05 -20.85" fill="url(#gradient0)" fill-rule="evenodd" stroke="none"/>
    <path d="M-8.25 -15.7 L-8.9 -15.95 -9.15 -16.6 -8.9 -17.25 -8.25 -17.55 Q-7.85 -17.55 -7.6 -17.25 -7.3 -17.0 -7.3 -16.6 -7.3 -16.25 -7.6 -15.95 L-8.25 -15.7 M-7.5 -22.95 Q-6.85 -22.95 -6.35 -22.45 -5.85 -22.0 -5.85 -21.25 -5.85 -20.55 -6.35 -20.1 -6.85 -19.6 -7.5 -19.6 L-7.7 -19.6 Q-8.25 -19.65 -8.7 -20.1 -9.15 -20.55 -9.15 -21.25 L-8.7 -22.45 -8.35 -22.7 -7.5 -22.95" fill="#4a9cd6" fill-rule="evenodd" stroke="none"/>
    <path d="M-12.05 -16.45 L-12.45 -16.45 Q-13.25 -17.95 -12.45 -19.4 L-12.05 -19.4 -10.9 -19.4 -10.9 -16.45 -12.05 -16.45" fill="url(#gradient1)" fill-rule="evenodd" stroke="none"/>
    <path d="M4.15 -13.6 L4.2 -16.05 2.8 -17.65 2.6 -26.2 4.0 -27.8 4.2 -28.05 4.35 -28.2 M-5.45 -11.65 L-3.3 -9.65 -0.75 -9.75 0.25 -10.7 1.05 -10.7 2.0 -10.7 3.2 -9.45 5.5 -9.3 5.55 -9.3 M4.15 -13.6 L5.85 -13.05 5.95 -13.0 6.85 -12.7 M5.15 -26.4 L4.2 -25.3 4.45 -20.25 M7.8 -25.3 Q8.65 -24.85 8.9 -21.3 L9.0 -17.8 8.15 -17.2 M-11.95 -13.95 L-12.05 -16.45 M-12.05 -19.4 L-12.05 -20.85 M-11.2 -26.2 L-10.15 -28.5 -8.15 -28.5 M-5.85 -25.95 L-8.25 -26.4 M-7.5 -22.95 L-8.35 -22.7 -8.7 -22.45 -9.15 -21.25 Q-9.15 -20.55 -8.7 -20.1 -8.25 -19.65 -7.7 -19.6 L-7.5 -19.6 Q-6.85 -19.6 -6.35 -20.1 -5.85 -20.55 -5.85 -21.25 -5.85 -22.0 -6.35 -22.45 -6.85 -22.95 -7.5 -22.95 M-8.25 -15.7 L-7.6 -15.95 Q-7.3 -16.25 -7.3 -16.6 -7.3 -17.0 -7.6 -17.25 -7.85 -17.55 -8.25 -17.55 L-8.9 -17.25 -9.15 -16.6 -8.9 -15.95 -8.25 -15.7 M-1.85 -15.25 L-3.3 -13.95 -3.3 -12.1 M-6.05 -24.65 L-8.25 -25.15" fill="none" stroke="#717171" stroke-linecap="round" stroke-linejoin="round" stroke-width="1.0"/>
    <path d="M1.65 -28.7 L1.55 -28.75 1.25 -28.8 -1.55 -29.0 -2.55 -28.9 -2.75 -28.85 -3.45 -28.75 Q-5.0 -28.5 -6.55 -27.75 M4.2 -28.05 L1.65 -28.7 M5.95 -13.0 L5.95 -12.95 5.9 -12.0 5.55 -9.3" fill="none" stroke="#353536" stroke-linecap="round" stroke-linejoin="round" stroke-width="1.0"/>
    <path d="M-4.8 -27.0 L-4.95 -23.8 -4.95 -23.75 -4.5 -22.85 -3.3 -20.6 -3.3 -16.9 -5.3 -15.25 -5.45 -11.65 -6.0 -10.65 -6.05 -10.65 -9.05 -10.7 -9.85 -11.45 M1.05 -10.7 L1.15 -11.5 1.15 -11.8 1.3 -13.0 2.7 -13.3 3.45 -13.4 4.15 -13.6 M6.85 -12.7 L8.15 -15.35 8.15 -17.2 6.8 -17.65 6.5 -24.2 7.8 -25.3 Q7.7 -27.2 6.45 -28.5 L4.35 -28.2 M5.55 -9.3 L5.85 -8.35 5.9 -7.8 5.9 -7.65 5.9 -7.1 5.9 -7.0 5.8 -5.9 4.25 -4.1 Q2.75 -2.7 -0.15 -2.6 -3.05 -2.55 -4.7 -4.7 -6.35 -6.9 -6.35 -7.5 L-6.4 -7.9 -6.35 -8.55 -6.35 -8.95 -6.3 -9.35 -6.2 -9.8 -6.0 -10.65 M-10.15 -11.25 L-10.4 -11.1 -12.8 -11.1 -12.8 -13.95 -11.95 -13.95 -9.6 -13.95 -9.6 -11.65 -10.15 -11.25 M-8.15 -28.5 L-6.55 -27.75 -6.5 -27.75 -4.8 -27.0 M1.75 -9.1 L0.85 -9.1" fill="none" stroke="#434343" stroke-linecap="round" stroke-linejoin="round" stroke-width="1.0"/>
    <path d="M-12.05 -16.45 L-12.45 -16.45 Q-13.25 -17.95 -12.45 -19.4 L-12.05 -19.4 -10.9 -19.4 -10.9 -16.45 -12.05 -16.45 M-12.05 -20.85 L-12.3 -20.85 -12.35 -22.85 Q-12.25 -25.1 -11.45 -26.2 L-10.05 -25.15 -10.4 -20.85 -12.05 -20.85" fill="none" stroke="#262f40" stroke-linecap="round" stroke-linejoin="round" stroke-width="1.0"/>
  </g>
  <defs>
    <linearGradient gradientTransform="matrix(0.0014, 0.0, 0.0, -0.0014, -11.2, -23.5)" gradientUnits="userSpaceOnUse" id="gradient0" spreadMethod="pad" x1="-819.2" x2="819.2">
      <stop offset="0.0" stop-color="#5b9666"/>
      <stop offset="1.0" stop-color="#253159"/>
    </linearGradient>
    <linearGradient gradientTransform="matrix(0.0011, 0.0, 0.0, -0.0011, -11.85, -17.95)" gradientUnits="userSpaceOnUse" id="gradient1" spreadMethod="pad" x1="-819.2" x2="819.2">
      <stop offset="0.0" stop-color="#5b9666"/>
      <stop offset="1.0" stop-color="#253159"/>
    </linearGradient>
  </defs>
</svg>
