<?xml version="1.0" encoding="UTF-8" standalone="no"?>
<svg xmlns:xlink="http://www.w3.org/1999/xlink" height="20.8px" width="11.25px" xmlns="http://www.w3.org/2000/svg">
  <g transform="matrix(1.0, 0.0, 0.0, 1.0, 6.35, 4.05)">
    <path d="M3.9 1.45 L2.35 1.45 2.45 -0.8 4.3 -1.0 3.9 1.45" fill="#ffffff" fill-rule="evenodd" stroke="none"/>
    <path d="M4.3 -1.0 L2.45 -0.8 2.35 1.45 3.9 1.45 3.7 1.95 Q3.0 4.4 1.75 5.4 L1.55 5.55 Q0.7 6.05 -0.35 6.05 L-0.4 5.8 -0.55 4.95 Q-0.8 4.15 -1.35 3.6 -1.0 2.5 -1.8 1.55 -2.65 0.6 -2.15 -0.5 -1.7 -1.65 -0.1 -3.55 L4.2 -2.35 Q4.5 -2.3 4.3 -1.0" fill="url(#gradient0)" fill-rule="evenodd" stroke="none"/>
    <path d="M-1.35 3.6 Q-0.8 4.15 -0.55 4.95 L-0.4 5.8 -0.35 6.05 -0.55 7.6 -0.9 8.25 Q-1.55 9.35 -2.65 9.45 L-4.1 9.15 -4.65 8.7 Q-5.55 7.8 -5.7 6.4 -5.85 5.0 -5.2 3.95 -4.5 2.9 -3.4 2.75 -2.3 2.65 -1.45 3.5 L-1.35 3.6" fill="#261515" fill-rule="evenodd" stroke="none"/>
    <path d="M-0.35 6.05 Q0.7 6.05 1.55 5.55 L1.75 5.4 1.65 10.65 1.75 12.6 Q-0.85 11.35 -2.4 16.25 -3.35 11.55 -5.85 13.1 -5.3 11.0 -4.6 9.95 L-4.1 9.15 -2.65 9.45 Q-1.55 9.35 -0.9 8.25 L-0.55 7.6 -0.35 6.05" fill="#181212" fill-rule="evenodd" stroke="none"/>
    <path d="M-2.4 16.25 Q-0.85 11.35 1.75 12.6 0.7 16.25 -2.4 16.25" fill="#281c1c" fill-rule="evenodd" stroke="none"/>
    <path d="M-5.85 13.1 Q-3.35 11.55 -2.4 16.25 -5.45 16.4 -5.85 13.1" fill="#422d2d" fill-rule="evenodd" stroke="none"/>
    <path d="M3.9 1.45 L2.35 1.45 2.45 -0.8 4.3 -1.0 3.9 1.45" fill="none" stroke="#a78383" stroke-linecap="round" stroke-linejoin="round" stroke-width="1.0"/>
    <path d="M-1.35 3.6 Q-0.8 4.15 -0.55 4.95 L-0.4 5.8 -0.35 6.05 Q0.7 6.05 1.55 5.55 L1.75 5.4 M-4.1 9.15 L-2.65 9.45 Q-1.55 9.35 -0.9 8.25 L-0.55 7.6 -0.35 6.05" fill="none" stroke="#140e0e" stroke-linecap="round" stroke-linejoin="round" stroke-width="1.0"/>
    <path d="M4.3 -1.0 Q4.5 -2.3 4.2 -2.35 L-0.1 -3.55 Q-1.7 -1.65 -2.15 -0.5 -2.65 0.6 -1.8 1.55 -1.0 2.5 -1.35 3.6 L-1.45 3.5 Q-2.3 2.65 -3.4 2.75 -4.5 2.9 -5.2 3.95 -5.85 5.0 -5.7 6.4 -5.55 7.8 -4.65 8.7 L-4.1 9.15 -4.6 9.95 Q-5.3 11.0 -5.85 13.1 M1.75 5.4 Q3.0 4.4 3.7 1.95 L3.9 1.45 M1.75 12.6 L1.65 10.65 1.75 5.4" fill="none" stroke="#0a0707" stroke-linecap="round" stroke-linejoin="round" stroke-width="1.0"/>
    <path d="M-2.4 16.25 Q-0.85 11.35 1.75 12.6 0.7 16.25 -2.4 16.25" fill="none" stroke="#150d0d" stroke-linecap="round" stroke-linejoin="round" stroke-width="1.0"/>
    <path d="M-5.85 13.1 Q-3.35 11.55 -2.4 16.25 -5.45 16.4 -5.85 13.1 Z" fill="none" stroke="#221a1a" stroke-linecap="round" stroke-linejoin="round" stroke-width="1.0"/>
  </g>
  <defs>
    <radialGradient cx="0" cy="0" gradientTransform="matrix(0.0156, 0.0, 0.0, 0.0156, -7.9, 0.15)" gradientUnits="userSpaceOnUse" id="gradient0" r="819.2" spreadMethod="pad">
      <stop offset="0.0" stop-color="#381d1d"/>
      <stop offset="0.6588235294117647" stop-color="#3e2828"/>
      <stop offset="1.0" stop-color="#754f4f"/>
    </radialGradient>
  </defs>
</svg>
