<?xml version="1.0" encoding="UTF-8" standalone="no"?>
<svg xmlns:ffdec="https://www.free-decompiler.com/flash" xmlns:xlink="http://www.w3.org/1999/xlink" ffdec:objectType="shape" height="21.25px" width="12.0px" xmlns="http://www.w3.org/2000/svg">
  <g transform="matrix(1.0, 0.0, 0.0, 1.0, 6.7, 4.35)">
    <path d="M0.05 -2.4 Q-0.9 -0.1 -0.9 1.05 L-3.0 0.75 -3.85 0.55 Q-4.9 0.25 -3.8 0.0 L-2.5 -0.25 Q-1.0 -0.45 0.05 -2.4" fill="#a47a4d" fill-rule="evenodd" stroke="none"/>
    <path d="M-0.9 1.05 Q-1.3 5.55 -3.9 6.55 -5.25 3.95 -3.85 0.55 L-3.0 0.75 -0.9 1.05 M-4.45 15.15 Q-1.95 12.8 1.0 15.0 -1.9 17.7 -4.45 15.15" fill="#7e6a3d" fill-rule="evenodd" stroke="none"/>
    <path d="M4.8 -1.7 L1.65 -1.7 1.35 2.1 3.35 6.05 3.0 7.35 Q2.5 10.1 1.0 15.0 -1.95 12.8 -4.45 15.15 -6.1 11.55 -6.2 9.35 -6.35 7.1 -5.15 6.85 L-3.9 6.55 Q-1.3 5.55 -0.9 1.05 -0.9 -0.1 0.05 -2.4 0.95 -3.55 1.65 -3.75 2.35 -3.95 3.55 -3.75 4.55 -3.6 4.8 -1.7 M-4.35 11.4 L-4.65 8.8 -4.35 11.4" fill="#cfae63" fill-rule="evenodd" stroke="none"/>
    <path d="M3.35 6.05 L1.35 2.1 1.65 -1.7 4.8 -1.7 Q4.65 2.0 3.35 6.05" fill="#d90c0c" fill-rule="evenodd" stroke="none"/>
    <path d="M-4.65 8.8 L-4.35 11.4" fill="none" stroke="#80704d" stroke-linecap="round" stroke-linejoin="round" stroke-width="1.0"/>
    <path d="M0.05 -2.4 Q-0.9 -0.1 -0.9 1.05 -1.3 5.55 -3.9 6.55 M-3.85 0.55 Q-4.9 0.25 -3.8 0.0 L-2.5 -0.25 Q-1.0 -0.45 0.05 -2.4 M-0.9 1.05 L-3.0 0.75 -3.85 0.55 M-4.45 15.15 Q-1.9 17.7 1.0 15.0" fill="none" stroke="#504630" stroke-linecap="round" stroke-linejoin="round" stroke-width="1.0"/>
    <path d="M-4.45 15.15 Q-1.95 12.8 1.0 15.0" fill="none" stroke="#6a5e40" stroke-linecap="round" stroke-linejoin="round" stroke-width="1.0"/>
    <path d="M4.8 -1.7 Q4.55 -3.6 3.55 -3.75 2.35 -3.95 1.65 -3.75 0.95 -3.55 0.05 -2.4 M-3.9 6.55 L-5.15 6.85 Q-6.35 7.1 -6.2 9.35 -6.1 11.55 -4.45 15.15 M1.0 15.0 Q2.5 10.1 3.0 7.35 L3.35 6.05 M-3.85 0.55 Q-5.25 3.95 -3.9 6.55" fill="none" stroke="#403726" stroke-linecap="round" stroke-linejoin="round" stroke-width="1.0"/>
    <path d="M3.35 6.05 L1.35 2.1 1.65 -1.7 4.8 -1.7 Q4.65 2.0 3.35 6.05 Z" fill="none" stroke="#381d1d" stroke-linecap="round" stroke-linejoin="round" stroke-width="1.0"/>
  </g>
</svg>
