<?xml version="1.0" encoding="UTF-8" standalone="no"?>
<svg xmlns:xlink="http://www.w3.org/1999/xlink" height="36.0px" width="36.0px" xmlns="http://www.w3.org/2000/svg">
  <g transform="matrix(1.0, 0.0, 0.0, 1.0, 18.0, 18.0)">
    <path d="M0.0 -17.5 Q7.15 -17.5 12.25 -12.35 17.5 -7.2 17.5 0.0 17.5 7.25 12.25 12.5 L12.25 12.4 Q7.15 17.5 0.0 17.5 -7.2 17.5 -12.35 12.4 -17.5 7.25 -17.5 0.0 -17.5 -7.2 -12.35 -12.35 -7.2 -17.5 0.0 -17.5 M9.2 -9.3 Q5.4 -13.1 0.0 -13.1 -5.45 -13.1 -9.3 -9.3 -13.1 -5.45 -13.1 0.0 -13.1 5.5 -9.3 9.3 -5.45 13.15 0.0 13.15 5.4 13.15 9.2 9.3 13.15 5.5 13.15 0.0 13.15 -5.45 9.2 -9.3" fill="#ff4444" fill-opacity="0.49803922" fill-rule="evenodd" stroke="none"/>
    <path d="M4.8 -4.8 Q6.8 -2.8 6.8 0.0 6.8 2.9 4.8 4.8 2.9 6.8 0.0 6.8 -2.8 6.8 -4.8 4.8 -6.75 2.9 -6.75 0.0 -6.75 -2.8 -4.8 -4.8 -2.8 -6.75 0.0 -6.75 2.9 -6.75 4.8 -4.8" fill="#ff4444" fill-rule="evenodd" stroke="none"/>
    <path d="M0.0 -17.5 Q-7.2 -17.5 -12.35 -12.35 -17.5 -7.2 -17.5 0.0 -17.5 7.25 -12.35 12.4 -7.2 17.5 0.0 17.5 7.15 17.5 12.25 12.4 L12.25 12.5 Q17.5 7.25 17.5 0.0 17.5 -7.2 12.25 -12.35 7.15 -17.5 0.0 -17.5 M9.2 -9.3 Q13.15 -5.45 13.15 0.0 13.15 5.5 9.2 9.3 5.4 13.15 0.0 13.15 -5.45 13.15 -9.3 9.3 -13.1 5.5 -13.1 0.0 -13.1 -5.45 -9.3 -9.3 -5.45 -13.1 0.0 -13.1 5.4 -13.1 9.2 -9.3" fill="none" stroke="#b10101" stroke-linecap="round" stroke-linejoin="round" stroke-opacity="0.5019608" stroke-width="1.0"/>
    <path d="M4.8 -4.8 Q6.8 -2.8 6.8 0.0 6.8 2.9 4.8 4.8 2.9 6.8 0.0 6.8 -2.8 6.8 -4.8 4.8 -6.75 2.9 -6.75 0.0 -6.75 -2.8 -4.8 -4.8 -2.8 -6.75 0.0 -6.75 2.9 -6.75 4.8 -4.8" fill="none" stroke="#b10101" stroke-linecap="round" stroke-linejoin="round" stroke-width="1.0"/>
  </g>
</svg>
