<?xml version="1.0" encoding="UTF-8" standalone="no"?>
<svg xmlns:xlink="http://www.w3.org/1999/xlink" height="20.8px" width="11.25px" xmlns="http://www.w3.org/2000/svg">
  <g transform="matrix(1.0, 0.0, 0.0, 1.0, 6.35, 4.05)">
    <path d="M1.75 12.6 Q0.7 16.25 -2.4 16.25 -0.85 11.35 1.75 12.6" fill="#474747" fill-rule="evenodd" stroke="none"/>
    <path d="M-1.35 3.6 Q-0.8 4.15 -0.55 4.95 L-0.4 5.8 -0.35 6.05 -0.55 7.6 -0.9 8.25 Q-1.55 9.35 -2.65 9.45 L-4.1 9.15 -4.65 8.7 Q-5.55 7.8 -5.7 6.4 -5.85 5.0 -5.2 3.95 -4.5 2.9 -3.4 2.75 -2.3 2.65 -1.45 3.5 L-1.35 3.6 M-2.4 16.25 Q-5.45 16.4 -5.85 13.1 -3.35 11.55 -2.4 16.25" fill="#999999" fill-rule="evenodd" stroke="none"/>
    <path d="M3.9 1.45 L2.35 1.45 2.45 -0.8 4.3 -1.0 3.9 1.45" fill="#ffffff" fill-rule="evenodd" stroke="none"/>
    <path d="M4.3 -1.0 L2.45 -0.8 2.35 1.45 3.9 1.45 3.7 1.95 Q3.0 4.4 1.75 5.4 L1.55 5.55 Q0.7 6.05 -0.35 6.05 L-0.4 5.8 -0.55 4.95 Q-0.8 4.15 -1.35 3.6 -1.0 2.5 -1.8 1.55 -2.65 0.6 -2.15 -0.5 -1.7 -1.65 -0.1 -3.55 L4.2 -2.35 Q4.5 -2.3 4.3 -1.0 M-0.3 -0.65 L0.55 -2.0 -0.3 -0.65" fill="url(#gradient0)" fill-rule="evenodd" stroke="none"/>
    <path d="M-0.35 6.05 Q0.7 6.05 1.55 5.55 L1.75 5.4 1.65 10.65 1.75 12.6 Q-0.85 11.35 -2.4 16.25 -3.35 11.55 -5.85 13.1 -5.3 11.0 -4.6 9.95 L-4.1 9.15 -2.65 9.45 Q-1.55 9.35 -0.9 8.25 L-0.55 7.6 -0.35 6.05" fill="#777777" fill-rule="evenodd" stroke="none"/>
    <path d="M1.75 12.6 Q0.7 16.25 -2.4 16.25 -0.85 11.35 1.75 12.6" fill="none" stroke="#2b2b2b" stroke-linecap="round" stroke-linejoin="round" stroke-width="1.0"/>
    <path d="M-2.4 16.25 Q-5.45 16.4 -5.85 13.1 -3.35 11.55 -2.4 16.25" fill="none" stroke="#666666" stroke-linecap="round" stroke-linejoin="round" stroke-width="1.0"/>
    <path d="M-1.35 3.6 Q-0.8 4.15 -0.55 4.95 L-0.4 5.8 -0.35 6.05" fill="none" stroke="#737373" stroke-linecap="round" stroke-linejoin="round" stroke-width="1.0"/>
    <path d="M-4.1 9.15 L-2.65 9.45 Q-1.55 9.35 -0.9 8.25 L-0.55 7.6 -0.35 6.05" fill="none" stroke="#626262" stroke-linecap="round" stroke-linejoin="round" stroke-width="1.0"/>
    <path d="M4.2 -2.35 L-0.1 -3.55" fill="none" stroke="#7b7b7b" stroke-linecap="round" stroke-linejoin="round" stroke-width="1.0"/>
    <path d="M0.55 -2.0 L-0.3 -0.65" fill="none" stroke="#595959" stroke-linecap="round" stroke-linejoin="round" stroke-width="1.0"/>
    <path d="M3.9 1.45 L2.35 1.45 2.45 -0.8 4.3 -1.0 3.9 1.45" fill="none" stroke="#829da8" stroke-linecap="round" stroke-linejoin="round" stroke-width="1.0"/>
    <path d="M4.3 -1.0 Q4.5 -2.3 4.2 -2.35 M-0.35 6.05 Q0.7 6.05 1.55 5.55 L1.75 5.4 Q3.0 4.4 3.7 1.95 L3.9 1.45" fill="none" stroke="#555555" stroke-linecap="round" stroke-linejoin="round" stroke-width="1.0"/>
    <path d="M-0.1 -3.55 Q-1.7 -1.65 -2.15 -0.5 -2.65 0.6 -1.8 1.55 -1.0 2.5 -1.35 3.6 L-1.45 3.5 Q-2.3 2.65 -3.4 2.75 -4.5 2.9 -5.2 3.95 -5.85 5.0 -5.7 6.4 -5.55 7.8 -4.65 8.7 L-4.1 9.15 -4.6 9.95 Q-5.3 11.0 -5.85 13.1 M1.75 5.4 L1.65 10.65 1.75 12.6" fill="none" stroke="#515151" stroke-linecap="round" stroke-linejoin="round" stroke-width="1.0"/>
  </g>
  <defs>
    <linearGradient gradientTransform="matrix(0.0036, 9.0E-4, -0.0015, 0.0055, 0.45, 1.4)" gradientUnits="userSpaceOnUse" id="gradient0" spreadMethod="pad" x1="-819.2" x2="819.2">
      <stop offset="0.0" stop-color="#c8c8c8"/>
      <stop offset="0.21176470588235294" stop-color="#888888"/>
      <stop offset="1.0" stop-color="#d9d9d9"/>
    </linearGradient>
  </defs>
</svg>
