<?xml version="1.0" encoding="UTF-8" standalone="no"?>
<svg xmlns:xlink="http://www.w3.org/1999/xlink" height="27.0px" width="18.55px" xmlns="http://www.w3.org/2000/svg">
  <g transform="matrix(1.0, 0.0, 0.0, 1.0, 10.85, 28.9)">
    <path d="M-5.15 -26.75 Q-2.9 -28.4 -0.35 -28.4 2.2 -28.4 3.35 -25.35 -1.6 -27.1 -5.15 -26.75" fill="#2c2c2c" fill-rule="evenodd" stroke="none"/>
    <path d="M-6.25 -25.7 Q-6.0 -26.35 -5.15 -26.75 -1.6 -27.1 3.35 -25.35 7.5 -20.5 7.2 -18.45 6.85 -16.45 4.6 -15.7 L3.55 -13.1 2.95 -13.1 Q2.55 -13.1 2.65 -12.9 -2.95 -12.35 -5.25 -12.75 -6.55 -19.3 -6.25 -25.7" fill="url(#gradient0)" fill-rule="evenodd" stroke="none"/>
    <path d="M2.65 -12.9 Q3.65 -10.45 3.45 -7.5 3.3 -5.3 2.65 -3.9 1.1 -2.15 -3.75 -2.45 -5.6 -3.25 -5.25 -5.2 -4.25 -8.95 -5.25 -12.75 -2.95 -12.35 2.65 -12.9 M-0.65 -9.7 L-2.75 -9.7 -2.75 -6.45 -0.65 -6.45 -0.65 -9.7" fill="url(#gradient1)" fill-rule="evenodd" stroke="none"/>
    <path d="M-0.65 -9.7 L-0.65 -6.45 -2.75 -6.45 -2.75 -9.7 -0.65 -9.7" fill="#7b7b7b" fill-rule="evenodd" stroke="none"/>
    <path d="M-5.25 -12.75 Q-7.55 -13.0 -8.65 -14.2 -11.05 -20.3 -10.1 -23.9 -8.9 -25.55 -6.25 -25.7 -6.55 -19.3 -5.25 -12.75" fill="url(#gradient2)" fill-rule="evenodd" stroke="none"/>
    <path d="M2.65 -12.9 Q3.65 -10.45 3.45 -7.5 3.3 -5.3 2.65 -3.9 1.1 -2.15 -3.75 -2.45 -5.6 -3.25 -5.25 -5.2 -4.25 -8.95 -5.25 -12.75 M-5.15 -26.75 Q-2.9 -28.4 -0.35 -28.4 2.2 -28.4 3.35 -25.35" fill="none" stroke="#000000" stroke-linecap="round" stroke-linejoin="round" stroke-width="1.0"/>
    <path d="M-6.25 -25.7 Q-6.0 -26.35 -5.15 -26.75 -1.6 -27.1 3.35 -25.35 7.5 -20.5 7.2 -18.45 6.85 -16.45 4.6 -15.7 L3.55 -13.1 2.95 -13.1 Q2.55 -13.1 2.65 -12.9 -2.95 -12.35 -5.25 -12.75" fill="none" stroke="#555555" stroke-linecap="round" stroke-linejoin="round" stroke-width="1.0"/>
    <path d="M-0.65 -9.7 L-0.65 -6.45 -2.75 -6.45 -2.75 -9.7 -0.65 -9.7" fill="none" stroke="#484848" stroke-linecap="round" stroke-linejoin="round" stroke-opacity="0.99215686" stroke-width="1.0"/>
    <path d="M-5.25 -12.75 Q-7.55 -13.0 -8.65 -14.2 -11.05 -20.3 -10.1 -23.9 -8.9 -25.55 -6.25 -25.7 -6.55 -19.3 -5.25 -12.75" fill="none" stroke="#404040" stroke-linecap="round" stroke-linejoin="round" stroke-opacity="0.99215686" stroke-width="1.0"/>
  </g>
  <defs>
    <linearGradient gradientTransform="matrix(0.0078, 0.0, 0.0, 0.0088, -1.05, -19.8)" gradientUnits="userSpaceOnUse" id="gradient0" spreadMethod="pad" x1="-819.2" x2="819.2">
      <stop offset="0.0" stop-color="#888888"/>
      <stop offset="0.21176470588235294" stop-color="#737373"/>
      <stop offset="1.0" stop-color="#cccccc"/>
    </linearGradient>
    <linearGradient gradientTransform="matrix(0.0042, 0.0, 0.0, 0.0064, -0.6, -7.65)" gradientUnits="userSpaceOnUse" id="gradient1" spreadMethod="pad" x1="-819.2" x2="819.2">
      <stop offset="0.0" stop-color="#222222"/>
      <stop offset="0.23921568627450981" stop-color="#111111"/>
      <stop offset="0.5254901960784314" stop-color="#2d2d2d"/>
      <stop offset="0.7843137254901961" stop-color="#454545"/>
      <stop offset="1.0" stop-color="#636363"/>
    </linearGradient>
    <linearGradient gradientTransform="matrix(0.0078, 0.0, 0.0, 0.0088, -3.5, -19.7)" gradientUnits="userSpaceOnUse" id="gradient2" spreadMethod="pad" x1="-819.2" x2="819.2">
      <stop offset="0.0" stop-color="#808080"/>
      <stop offset="0.2235294117647059" stop-color="#4d4d4d"/>
      <stop offset="1.0" stop-color="#7b7b7b"/>
    </linearGradient>
  </defs>
</svg>
