<?xml version="1.0" encoding="UTF-8" standalone="no"?>
<svg xmlns:ffdec="https://www.free-decompiler.com/flash" xmlns:xlink="http://www.w3.org/1999/xlink" ffdec:objectType="shape" height="22.0px" width="14.85px" xmlns="http://www.w3.org/2000/svg">
  <g transform="matrix(1.0, 0.0, 0.0, 1.0, 4.2, 3.05)">
    <path d="M-1.5 2.9 Q-1.6 1.95 -1.2 1.2 L-0.3 1.2 1.1 0.1 1.15 0.1 Q2.1 0.05 3.1 1.25 4.8 3.45 6.1 6.45 L3.85 5.9 2.0 2.1 -1.5 2.9 M7.85 16.4 Q9.25 15.8 9.55 15.25 L10.15 16.8 Q10.05 17.3 8.9 18.2 L6.75 18.45 Q5.85 17.75 5.6 16.8 L7.85 16.4 M7.7 10.25 Q6.35 11.0 7.5 12.45 5.5 11.9 4.7 12.75 4.3 12.1 2.4 12.2 L7.7 10.25" fill="#333333" fill-rule="evenodd" stroke="none"/>
    <path d="M-3.7 -0.6 L-2.5 -2.55 -0.75 -1.25 0.95 -1.0 1.15 0.1 1.1 0.1 -0.3 1.2 -2.95 1.3 -3.7 -0.6 M2.0 2.1 L3.85 5.9 6.1 6.45 7.7 10.25 2.4 12.2 Q-0.35 9.0 -2.5 2.95 L-1.5 2.9 2.0 2.1 M-0.4 3.75 L-0.9 4.4 -0.6 5.05 0.2 5.45 0.95 5.15 1.3 4.5 1.0 3.85 Q0.7 3.5 0.35 3.55 L-0.4 3.75 M1.95 7.35 L2.2 6.8 2.0 6.25 1.45 6.05 Q1.2 6.0 0.85 6.25 L0.6 6.75 0.8 7.2 1.4 7.55 1.95 7.35 M4.7 12.75 Q5.5 11.9 7.5 12.45 9.0 13.0 9.3 14.0 9.75 14.9 9.55 15.25 9.25 15.8 7.85 16.4 L5.6 16.8 Q4.9 16.85 3.85 15.55 2.9 14.1 4.7 12.75" fill="url(#gradient0)" fill-rule="evenodd" stroke="none"/>
    <path d="M0.35 3.55 Q0.7 3.5 1.0 3.85 L1.3 4.5 0.95 5.15 0.2 5.45 -0.6 5.05 -0.9 4.4 -0.4 3.75 0.35 3.55 M2.2 6.8 L1.95 7.35 1.4 7.55 0.8 7.2 0.6 6.75 0.85 6.25 Q1.2 6.0 1.45 6.05 L2.0 6.25 2.2 6.8" fill="#44b5ff" fill-rule="evenodd" stroke="none"/>
    <path d="M0.35 3.55 Q0.7 3.5 1.0 3.85 L1.3 4.5 0.95 5.15 0.2 5.45 -0.6 5.05 -0.9 4.4 -0.4 3.75 0.35 3.55 M2.2 6.8 L1.95 7.35 1.4 7.55 0.8 7.2 0.6 6.75 0.85 6.25 Q1.2 6.0 1.45 6.05 L2.0 6.25 2.2 6.8 Z" fill="none" stroke="#1c4f70" stroke-linecap="round" stroke-linejoin="round" stroke-width="1.0"/>
    <path d="M3.1 1.25 Q4.8 3.45 6.1 6.45 M7.7 10.25 Q6.35 11.0 7.5 12.45 M4.7 12.75 Q4.3 12.1 2.4 12.2" fill="none" stroke="#000000" stroke-linecap="round" stroke-linejoin="round" stroke-width="1.0"/>
    <path d="M9.55 15.25 L10.15 16.8 Q10.05 17.3 8.9 18.2 L6.75 18.45 Q5.85 17.75 5.6 16.8" fill="none" stroke="#000000" stroke-linecap="round" stroke-linejoin="round" stroke-opacity="0.99215686" stroke-width="1.0"/>
    <path d="M-1.85 -1.0 L-1.35 -0.75 -1.2 -0.35 -1.45 0.05 -1.9 0.25 -2.35 0.05 -2.55 -0.4 -2.35 -0.85 -1.85 -1.0 M4.9 9.8 L4.35 9.9 M3.95 8.6 L3.25 8.65" fill="none" stroke="#0d1215" stroke-linecap="round" stroke-linejoin="round" stroke-width="1.0"/>
    <path d="M-3.7 -0.6 L-2.95 1.3 -0.3 1.2 1.15 0.1 0.95 -1.0 -0.75 -1.25 -2.5 -2.55 -3.7 -0.6 M-2.5 2.95 L-1.5 2.9 2.0 2.1 3.85 5.9 6.1 6.45 7.7 10.25 2.4 12.2 M7.5 12.45 Q9.0 13.0 9.3 14.0 9.75 14.9 9.55 15.25 9.25 15.8 7.85 16.4 L5.6 16.8 Q4.9 16.85 3.85 15.55 2.9 14.1 4.7 12.75 5.5 11.9 7.5 12.45 Z" fill="none" stroke="#0d1215" stroke-linecap="round" stroke-linejoin="round" stroke-width="1.0"/>
    <path d="M2.4 12.2 Q-0.35 9.0 -2.5 2.95" fill="none" stroke="#080808" stroke-linecap="round" stroke-linejoin="round" stroke-width="1.0"/>
  </g>
  <defs>
    <linearGradient gradientTransform="matrix(0.0059, -2.0E-4, 2.0E-4, 0.0059, 3.75, 7.05)" gradientUnits="userSpaceOnUse" id="gradient0" spreadMethod="pad" x1="-819.2" x2="819.2">
      <stop offset="0.0" stop-color="#1d2b38"/>
      <stop offset="1.0" stop-color="#495d71"/>
    </linearGradient>
  </defs>
</svg>
