<?xml version="1.0" encoding="UTF-8" standalone="no"?>
<svg xmlns:xlink="http://www.w3.org/1999/xlink" height="18.2px" width="18.25px" xmlns="http://www.w3.org/2000/svg">
  <g transform="matrix(1.0, 0.0, 0.0, 1.0, 8.0, 2.05)">
    <path d="M1.6 -0.25 L1.55 2.45 -0.25 2.2 -0.25 1.0 -0.85 1.15 -2.7 1.5 -0.85 1.15 -2.6 1.55 -2.7 1.5 -1.8 -0.2 -1.3 -1.0 -1.8 -0.2 -2.7 1.5 -1.85 -0.3 -1.3 -1.0 1.6 -0.25 M3.95 4.4 L4.0 5.55 3.75 5.7 -2.05 5.0 -2.15 4.2 -1.35 3.75 3.95 4.4 M2.35 7.45 L2.65 9.9 1.25 13.25 Q-2.45 12.95 -4.85 15.65 L-4.85 11.7 0.05 8.1 -0.05 7.2 2.35 7.45" fill="#606263" fill-rule="evenodd" stroke="none"/>
    <path d="M1.6 -0.25 Q3.8 -0.1 6.4 -0.85 L8.35 -1.55 9.75 2.7 7.25 5.35 7.1 5.35 6.2 5.8 5.2 8.2 5.5 9.1 Q4.25 9.85 2.65 9.9 L2.35 7.45 2.25 6.6 3.0 6.15 3.2 6.05 3.75 5.7 4.0 5.55 3.95 4.4 3.9 4.0 1.55 2.95 1.55 2.45 1.6 -0.25 M-0.85 1.15 L-0.25 1.0 -0.25 2.2 -0.3 3.1 -1.35 3.75 -2.15 4.2 -2.05 5.0 -1.95 5.8 -0.1 6.7 -0.05 7.2 0.05 8.1 -4.85 11.7 -6.5 9.65 -6.8 7.4 -7.5 2.6 -5.1 2.1 -4.5 1.95 -4.25 1.9 -4.6 6.7 -6.8 7.4 -4.6 6.7 -4.25 1.9 -2.7 1.55 -2.6 1.55 -0.85 1.15" fill="#cccccc" fill-rule="evenodd" stroke="none"/>
    <path d="M5.5 9.1 L5.2 8.2 6.2 5.8 7.1 5.35 7.75 6.5 6.7 8.85 5.5 9.1" fill="#3cbbe5" fill-rule="evenodd" stroke="none"/>
    <path d="M1.55 2.45 L1.55 2.95 3.9 4.0 3.95 4.4 -1.35 3.75 -0.3 3.1 -0.25 2.2 1.55 2.45 M3.75 5.7 L3.2 6.05 3.0 6.15 2.25 6.6 2.35 7.45 -0.05 7.2 -0.1 6.7 -1.95 5.8 -2.05 5.0 3.75 5.7 M-2.7 1.5 L-2.6 1.55 -2.7 1.55 -2.7 1.5" fill="#989a9b" fill-rule="evenodd" stroke="none"/>
    <path d="M-1.3 -1.0 L-1.8 -0.2 -2.7 1.5 M-4.85 11.7 L-4.85 15.65 M1.6 -0.25 L-1.3 -1.0" fill="none" stroke="#25262b" stroke-linecap="round" stroke-linejoin="round" stroke-width="1.0"/>
    <path d="M5.5 9.1 L5.2 8.2 6.2 5.8 7.1 5.35 7.75 6.5 6.7 8.85 5.5 9.1" fill="none" stroke="#0f566d" stroke-linecap="round" stroke-linejoin="round" stroke-width="1.0"/>
    <path d="M1.6 -0.25 L1.55 2.45 1.55 2.95 3.9 4.0 3.95 4.4 4.0 5.55 3.75 5.7 3.2 6.05 3.0 6.15 2.25 6.6 2.35 7.45 2.65 9.9 M-2.7 1.5 L-0.85 1.15 -0.25 1.0 -0.25 2.2 -0.3 3.1 -1.35 3.75 -2.15 4.2 -2.05 5.0 -1.95 5.8 -0.1 6.7 -0.05 7.2 0.05 8.1 -4.85 11.7" fill="none" stroke="#4b4b4b" stroke-linecap="round" stroke-linejoin="round" stroke-width="1.0"/>
    <path d="M1.25 13.25 L2.65 9.9" fill="none" stroke="#25262b" stroke-linecap="round" stroke-linejoin="miter-clip" stroke-miterlimit="4.0" stroke-width="1.0"/>
    <path d="M-4.5 1.95 L-5.1 2.1 -7.5 2.6 -6.8 7.4 -6.5 9.65 -4.85 11.7 M-2.7 1.5 L-4.5 1.95" fill="none" stroke="#777777" stroke-linecap="round" stroke-linejoin="round" stroke-width="1.0"/>
    <path d="M-6.8 7.4 L-4.6 6.7 -4.25 1.9" fill="none" stroke="#9f9f9f" stroke-linecap="round" stroke-linejoin="round" stroke-width="1.0"/>
    <path d="M7.1 5.35 L7.25 5.35 9.75 2.7 8.35 -1.55 6.4 -0.85 Q3.8 -0.1 1.6 -0.25" fill="none" stroke="#777777" stroke-linecap="round" stroke-linejoin="round" stroke-width="1.0"/>
    <path d="M2.65 9.9 Q4.25 9.85 5.5 9.1" fill="none" stroke="#777777" stroke-linecap="round" stroke-linejoin="round" stroke-width="1.0"/>
  </g>
</svg>
