<?xml version="1.0" encoding="UTF-8" standalone="no"?>
<svg xmlns:ffdec="https://www.free-decompiler.com/flash" xmlns:xlink="http://www.w3.org/1999/xlink" ffdec:objectType="shape" height="23.2px" width="15.05px" xmlns="http://www.w3.org/2000/svg">
  <g transform="matrix(1.0, 0.0, 0.0, 1.0, 6.75, 4.45)">
    <path d="M3.45 -2.45 L5.1 -1.1 5.9 2.1 Q6.65 5.65 6.6 7.5 L6.3 9.65 Q6.6 10.15 6.0 10.15 5.25 10.25 5.2 10.55 L5.9 10.85 Q6.55 11.2 6.6 11.45 L6.25 11.9 5.8 12.3 4.65 16.2 Q4.1 17.8 1.75 18.15 -0.65 18.55 -1.55 17.05 -2.0 15.2 -2.95 13.2 -3.0 13.1 -3.5 12.95 L-4.0 12.65 -4.0 12.05 -4.0 11.45 -4.1 10.6 Q-4.05 10.05 -4.3 9.95 L-5.5 10.3 -5.5 9.9 -5.3 9.3 Q-6.45 3.85 -5.7 -0.55 L-4.6 -1.9 Q-3.1 -3.3 -0.5 -3.55 1.4 -3.75 3.45 -2.45" fill="#22232c" fill-rule="evenodd" stroke="none"/>
    <path d="M3.45 -2.45 Q1.4 -3.75 -0.5 -3.55 -3.1 -3.3 -4.6 -1.9 L-5.7 -0.55 Q-6.45 3.85 -5.3 9.3 L-5.5 9.9 -5.5 10.3 -4.3 9.95 Q-4.05 10.05 -4.1 10.6 L-4.0 11.45 -4.0 12.05 -4.0 12.65 -3.5 12.95 Q-3.0 13.1 -2.95 13.2 -2.0 15.2 -1.55 17.05 -0.65 18.55 1.75 18.15 4.1 17.8 4.65 16.2 L5.8 12.3 6.25 11.9 6.6 11.45 Q6.55 11.2 5.9 10.85 L5.2 10.55 Q5.25 10.25 6.0 10.15 6.6 10.15 6.3 9.65 L6.6 7.5 Q6.65 5.65 5.9 2.1 L5.1 -1.1 3.45 -2.45 Z" fill="none" stroke="#0e0f13" stroke-linecap="round" stroke-linejoin="round" stroke-width="1.05"/>
    <path d="M6.7 6.05 L6.65 8.6 -5.7 8.1 Q-6.05 6.75 -6.2 4.55 L-6.25 2.6 -4.75 2.15 Q-3.2 1.55 -2.65 0.9 -1.95 0.15 -1.35 -2.0 L-0.95 -3.95 1.15 -3.8 1.45 -1.8 Q1.9 0.35 2.65 1.1 3.2 1.75 4.8 2.25 L6.35 2.6 Q6.65 3.3 6.7 6.05" fill="#272f3d" fill-rule="evenodd" stroke="none"/>
    <path d="M6.7 6.05 L6.65 8.6 -5.7 8.1 Q-6.05 6.75 -6.2 4.55 L-6.25 2.6 -4.75 2.15 Q-3.2 1.55 -2.65 0.9 -1.95 0.15 -1.35 -2.0 L-0.95 -3.95 1.15 -3.8 1.45 -1.8 Q1.9 0.35 2.65 1.1 3.2 1.75 4.8 2.25 L6.35 2.6 Q6.65 3.3 6.7 6.05 Z" fill="none" stroke="#080c11" stroke-linecap="round" stroke-linejoin="round" stroke-width="1.05"/>
    <path d="M-1.35 12.4 L-0.2 11.55 Q1.25 10.65 2.8 10.55" fill="none" stroke="#0e0f13" stroke-linecap="round" stroke-linejoin="round" stroke-width="1.05"/>
    <path d="M-2.1 3.75 L2.3 3.55 2.05 10.05 -2.0 9.95 -2.1 3.75" fill="#272f3d" fill-rule="evenodd" stroke="none"/>
    <path d="M-2.1 3.75 L-2.0 9.95 2.05 10.05 2.3 3.55" fill="none" stroke="#080c11" stroke-linecap="round" stroke-linejoin="round" stroke-width="1.05"/>
    <path d="M-2.1 3.75 L2.3 3.55" fill="none" stroke="#181e26" stroke-linecap="round" stroke-linejoin="round" stroke-width="1.05"/>
    <path d="M7.75 6.3 L7.3 8.95 3.95 9.05 Q4.45 6.0 4.2 4.4 5.1 4.15 7.8 4.35 L7.75 6.3" fill="#272f3d" fill-rule="evenodd" stroke="none"/>
    <path d="M7.75 6.3 L7.3 8.95 3.95 9.05 Q4.45 6.0 4.2 4.4 5.1 4.15 7.8 4.35 L7.75 6.3 Z" fill="none" stroke="#080c11" stroke-linecap="round" stroke-linejoin="round" stroke-width="1.05"/>
    <path d="M-4.2 2.4 L-4.15 4.9 -6.15 5.0" fill="none" stroke="#080c11" stroke-linecap="round" stroke-linejoin="round" stroke-width="1.05"/>
    <path d="M0.1 4.1 L-0.05 6.6" fill="none" stroke="#181e26" stroke-linecap="round" stroke-linejoin="round" stroke-width="1.05"/>
    <path d="M-2.15 0.5 L-0.95 1.25 Q0.6 1.85 2.25 0.95" fill="none" stroke="#181e26" stroke-linecap="round" stroke-linejoin="round" stroke-width="1.05"/>
  </g>
</svg>
