<?xml version="1.0" encoding="UTF-8" standalone="no"?>
<svg xmlns:ffdec="https://www.free-decompiler.com/flash" xmlns:xlink="http://www.w3.org/1999/xlink" ffdec:objectType="shape" height="60.3px" width="39.9px" xmlns="http://www.w3.org/2000/svg">
  <g transform="matrix(1.0, 0.0, 0.0, 1.0, 0.0, 0.0)">
    <path d="M33.9 54.5 L29.45 50.55 Q25.9 47.6 22.4 41.1 17.55 32.2 16.7 31.0 L15.1 31.75 11.6 25.3 10.45 25.05 9.25 24.75 Q8.3 22.4 8.25 14.8 8.15 7.35 8.85 5.8 L9.6 3.7 10.95 6.35 Q9.4 14.2 12.15 20.3 14.85 26.3 19.2 25.35 L21.45 31.9 21.3 34.15 25.5 41.5 26.75 42.0 33.9 54.5" fill="#ffbf20" fill-opacity="0.74509805" fill-rule="evenodd" stroke="none"/>
    <path d="M33.9 54.5 L29.45 50.55 Q25.9 47.6 22.4 41.1 17.55 32.2 16.7 31.0 L15.1 31.75 11.6 25.3 10.45 25.05 9.25 24.75 Q8.3 22.4 8.25 14.8 8.15 7.35 8.85 5.8 L9.6 3.7 10.95 6.35 Q9.4 14.2 12.15 20.3 14.85 26.3 19.2 25.35 L21.45 31.9 21.3 34.15 25.5 41.5 26.75 42.0 33.9 54.5 Z" fill="none" stroke="#956f14" stroke-linecap="round" stroke-linejoin="round" stroke-opacity="0.4392157" stroke-width="1.0"/>
    <path d="M33.5 23.35 Q39.55 35.5 39.9 46.05 40.2 56.6 34.55 59.45 28.95 62.25 20.7 55.7 12.5 49.1 6.4 37.0 0.35 24.9 0.0 14.3 -0.35 3.75 5.25 0.85 10.85 -2.0 19.1 4.55 27.35 11.05 33.45 23.15 L33.5 23.35" fill="url(#gradient0)" fill-rule="evenodd" stroke="none"/>
  </g>
  <defs>
    <radialGradient cx="0" cy="0" gradientTransform="matrix(0.0166, -0.0083, 0.0178, 0.0357, 19.95, 30.15)" gradientUnits="userSpaceOnUse" id="gradient0" r="819.2" spreadMethod="pad">
      <stop offset="0.0" stop-color="#ffbf20" stop-opacity="0.36862746"/>
      <stop offset="1.0" stop-color="#ffbf20" stop-opacity="0.0"/>
    </radialGradient>
  </defs>
</svg>
