<?xml version="1.0" encoding="UTF-8" standalone="no"?>
<svg xmlns:ffdec="https://www.free-decompiler.com/flash" xmlns:xlink="http://www.w3.org/1999/xlink" ffdec:objectType="shape" height="28.75px" width="20.15px" xmlns="http://www.w3.org/2000/svg">
  <g transform="matrix(1.0, 0.0, 0.0, 1.0, 6.05, 4.35)">
    <path d="M5.1 -0.45 Q5.6 -0.6 6.35 2.45 L7.2 6.7 Q7.8 12.8 7.35 13.5 6.8 14.25 7.75 14.5 L8.2 16.8 8.5 18.05 Q8.2 18.55 7.25 17.25 6.3 15.9 6.05 14.3 L5.0 6.6 3.85 2.9 2.95 0.7 2.55 0.9 Q2.1 1.35 1.75 2.5 1.55 3.15 1.9 4.8 L2.6 7.6 4.5 14.3 Q5.3 15.55 5.1 17.25 4.9 18.75 4.4 18.55 L3.85 17.05 3.0 14.05 Q1.1 9.45 0.55 6.95 L-0.6 3.35 Q-1.3 1.35 -1.0 0.55 L-0.45 -0.9 2.85 -0.65 4.95 -0.9 5.1 -0.45" fill="#626748" fill-rule="evenodd" stroke="none"/>
    <path d="M5.1 -0.45 Q5.6 -0.6 6.35 2.45 L7.2 6.7 Q7.8 12.8 7.35 13.5 6.8 14.25 7.75 14.5 L8.2 16.8 8.5 18.05 Q8.2 18.55 7.25 17.25 6.3 15.9 6.05 14.3 L5.0 6.6 3.85 2.9 2.95 0.7 2.55 0.9 Q2.1 1.35 1.75 2.5 1.55 3.15 1.9 4.8 L2.6 7.6 4.5 14.3 Q5.3 15.55 5.1 17.25 4.9 18.75 4.4 18.55 L3.85 17.05 3.0 14.05 Q1.1 9.45 0.55 6.95 L-0.6 3.35 Q-1.3 1.35 -1.0 0.55 L-0.45 -0.9 2.85 -0.65 4.95 -0.9 5.1 -0.45 Z" fill="none" stroke="#3d3b3b" stroke-linecap="round" stroke-linejoin="round" stroke-width="1.0"/>
    <path d="M4.15 -2.45 Q5.15 -1.3 5.15 -0.45 5.25 0.45 4.4 0.65 L1.5 1.05 -0.8 0.75 Q-0.9 -0.4 -0.3 -1.8 0.2 -3.15 0.9 -3.55 2.4 -4.5 4.15 -2.45" fill="#605c82" fill-rule="evenodd" stroke="none"/>
    <path d="M4.15 -2.45 Q5.15 -1.3 5.15 -0.45 5.25 0.45 4.4 0.65 L1.5 1.05 -0.8 0.75 Q-0.9 -0.4 -0.3 -1.8 0.2 -3.15 0.9 -3.55 2.4 -4.5 4.15 -2.45 Z" fill="none" stroke="#443f47" stroke-linecap="butt" stroke-linejoin="miter-clip" stroke-miterlimit="15.12109375" stroke-width="1.0"/>
    <path d="M8.6 13.15 L8.45 14.05 Q8.2 15.0 7.35 15.35 L5.0 15.8 Q3.55 15.85 2.9 15.4 2.35 15.0 3.05 14.2 L4.45 12.6 6.8 12.5 8.6 13.15" fill="#4b6c68" fill-rule="evenodd" stroke="none"/>
    <path d="M8.6 13.15 L8.45 14.05 Q8.2 15.0 7.35 15.35 L5.0 15.8 Q3.55 15.85 2.9 15.4 2.35 15.0 3.05 14.2 L4.45 12.6 6.8 12.5 8.6 13.15 Z" fill="none" stroke="#2f4240" stroke-linecap="butt" stroke-linejoin="miter-clip" stroke-miterlimit="15.12109375" stroke-width="1.0"/>
    <path d="M4.75 -1.8 L6.25 1.8 6.9 5.5 Q7.35 8.95 7.55 9.55 7.85 10.95 7.45 12.7 L8.65 13.2 8.6 13.65 8.5 14.25 7.95 15.55 Q8.55 17.25 8.35 17.85 8.2 18.3 7.9 18.25 L7.25 17.3 6.6 16.2 6.3 15.8 5.65 15.7 Q5.1 15.7 5.05 16.2 5.15 18.05 4.8 18.15 L4.45 18.45 4.2 18.05 3.65 15.7 Q2.8 15.65 2.85 15.3 L3.0 14.15 1.05 8.5 0.0 5.35 -0.95 2.55 -0.85 1.2 -0.5 0.1 Q-0.35 -3.0 1.45 -3.5 L2.4 -3.65 4.75 -1.8 Z" fill="none" stroke="#000000" stroke-linecap="butt" stroke-linejoin="miter-clip" stroke-miterlimit="15.12109375" stroke-opacity="0.19607843" stroke-width="1.0"/>
  </g>
</svg>
