<?xml version="1.0" encoding="UTF-8" standalone="no"?>
<svg xmlns:ffdec="https://www.free-decompiler.com/flash" xmlns:xlink="http://www.w3.org/1999/xlink" ffdec:objectType="shape" height="22.05px" width="14.75px" xmlns="http://www.w3.org/2000/svg">
  <g transform="matrix(1.0, 0.0, 0.0, 1.0, 4.1, 3.05)">
    <path d="M-1.1 1.2 L-0.2 1.25 1.15 0.1 1.2 0.1 Q2.25 0.1 3.2 1.3 4.9 3.55 6.15 6.5 L3.95 6.0 2.05 2.15 -1.35 2.9 Q-1.55 1.9 -1.1 1.2 M2.35 12.2 L7.75 10.25 Q6.3 11.0 7.5 12.5 5.45 11.95 4.75 12.75 4.25 12.1 2.35 12.2 M9.55 15.25 L10.15 16.85 Q10.0 17.5 8.8 18.25 L6.7 18.5 Q5.85 17.85 5.55 16.85 L7.85 16.4 Q9.1 15.95 9.55 15.25" fill="#333333" fill-rule="evenodd" stroke="none"/>
    <path d="M-0.6 -1.2 L1.1 -0.95 1.2 0.1 1.15 0.1 -0.2 1.25 -2.75 1.25 -3.6 -0.65 -2.4 -2.55 -0.6 -1.2 M2.05 2.15 L3.95 6.0 6.15 6.5 7.75 10.25 2.35 12.2 Q-0.3 8.9 -2.45 2.95 L-1.35 2.9 2.05 2.15 M-0.3 3.7 L-0.8 4.4 -0.5 5.0 0.2 5.35 1.05 5.2 1.35 4.5 1.1 3.85 Q0.75 3.55 0.45 3.55 L-0.3 3.7 M2.05 6.3 Q1.8 6.0 1.45 6.05 1.15 6.0 0.95 6.3 L0.7 6.75 0.85 7.25 1.4 7.55 2.05 7.35 2.25 6.8 2.05 6.3 M4.75 12.75 Q5.45 11.95 7.5 12.5 9.0 13.05 9.3 14.0 9.75 15.0 9.55 15.25 9.1 15.95 7.85 16.4 L5.55 16.85 Q4.8 16.85 3.85 15.55 2.9 14.1 4.75 12.75" fill="url(#gradient0)" fill-rule="evenodd" stroke="none"/>
    <path d="M1.35 4.5 L1.05 5.2 0.2 5.35 -0.5 5.0 -0.8 4.4 -0.3 3.7 0.45 3.55 Q0.75 3.55 1.1 3.85 L1.35 4.5 M2.05 6.3 L2.25 6.8 2.05 7.35 1.4 7.55 0.85 7.25 0.7 6.75 0.95 6.3 Q1.15 6.0 1.45 6.05 1.8 6.0 2.05 6.3" fill="#ff4444" fill-rule="evenodd" stroke="none"/>
    <path d="M1.35 4.5 L1.05 5.2 0.2 5.35 -0.5 5.0 -0.8 4.4 -0.3 3.7 0.45 3.55 Q0.75 3.55 1.1 3.85 L1.35 4.5 M2.05 6.3 L2.25 6.8 2.05 7.35 1.4 7.55 0.85 7.25 0.7 6.75 0.95 6.3 Q1.15 6.0 1.45 6.05 1.8 6.0 2.05 6.3 Z" fill="none" stroke="#991515" stroke-linecap="round" stroke-linejoin="round" stroke-width="1.0"/>
    <path d="M4.75 12.75 Q4.25 12.1 2.35 12.2 M7.75 10.25 Q6.3 11.0 7.5 12.5 M3.2 1.3 Q4.9 3.55 6.15 6.5" fill="none" stroke="#000000" stroke-linecap="round" stroke-linejoin="round" stroke-width="1.0"/>
    <path d="M9.55 15.25 L10.15 16.85 Q10.0 17.5 8.8 18.25 L6.7 18.5 Q5.85 17.85 5.55 16.85" fill="none" stroke="#000000" stroke-linecap="round" stroke-linejoin="round" stroke-opacity="0.99215686" stroke-width="1.0"/>
    <path d="M-1.25 -0.75 L-1.15 -0.35 -1.3 0.05 -1.85 0.2 -2.2 0.0 -2.4 -0.4 -2.2 -0.85 -1.75 -1.0 -1.25 -0.75 M4.0 8.7 L3.2 8.75 M4.95 9.8 L4.4 9.95" fill="none" stroke="#150d0d" stroke-linecap="round" stroke-linejoin="round" stroke-width="1.0"/>
    <path d="M-2.75 1.25 L-0.2 1.25 1.2 0.1 1.1 -0.95 -0.6 -1.2 -2.4 -2.55 -3.6 -0.65 -2.75 1.25 M-2.45 2.95 L-1.35 2.9 2.05 2.15 3.95 6.0 6.15 6.5 7.75 10.25 2.35 12.2 M4.75 12.75 Q5.45 11.95 7.5 12.5 9.0 13.05 9.3 14.0 9.75 15.0 9.55 15.25 9.1 15.95 7.85 16.4 L5.55 16.85 Q4.8 16.85 3.85 15.55 2.9 14.1 4.75 12.75 Z" fill="none" stroke="#150d0d" stroke-linecap="round" stroke-linejoin="round" stroke-width="1.0"/>
    <path d="M2.35 12.2 Q-0.3 8.9 -2.45 2.95" fill="none" stroke="#080808" stroke-linecap="round" stroke-linejoin="round" stroke-width="1.0"/>
  </g>
  <defs>
    <linearGradient gradientTransform="matrix(0.0029, -1.0E-4, 1.0E-4, 0.0029, 4.95, 7.05)" gradientUnits="userSpaceOnUse" id="gradient0" spreadMethod="pad" x1="-819.2" x2="819.2">
      <stop offset="0.0" stop-color="#3b2424"/>
      <stop offset="1.0" stop-color="#6e4747"/>
    </linearGradient>
  </defs>
</svg>
