<?xml version="1.0" encoding="UTF-8" standalone="no"?>
<svg xmlns:ffdec="https://www.free-decompiler.com/flash" xmlns:xlink="http://www.w3.org/1999/xlink" ffdec:objectType="shape" height="23.3px" width="12.6px" xmlns="http://www.w3.org/2000/svg">
  <g transform="matrix(1.0, 0.0, 0.0, 1.0, 3.7, 4.0)">
    <path d="M5.65 -0.2 L6.2 3.95 6.4 4.7 6.7 6.8 6.85 10.95 7.2 12.15 7.75 14.4 Q7.9 15.2 7.55 16.55 7.2 18.05 6.65 18.65 L5.45 18.6 Q4.7 18.1 4.35 18.0 3.95 17.85 3.7 16.6 L3.2 15.15 Q2.4 14.3 2.45 13.15 L2.65 12.15 0.45 7.8 Q-1.65 3.35 -1.0 2.4 -0.15 1.25 0.85 0.65 L1.55 0.2 2.45 -0.35 Q3.4 -0.85 3.85 -0.85 L4.85 -0.85 Q5.35 -0.85 5.65 -0.2" fill="#434343" fill-rule="evenodd" stroke="none"/>
    <path d="M5.65 -0.2 L6.2 3.95 6.4 4.7 6.7 6.8 6.85 10.95 7.2 12.15 7.75 14.4 Q7.9 15.2 7.55 16.55 7.2 18.05 6.65 18.65 L5.45 18.6 Q4.7 18.1 4.35 18.0 3.95 17.85 3.7 16.6 L3.2 15.15 Q2.4 14.3 2.45 13.15 L2.65 12.15 0.45 7.8 Q-1.65 3.35 -1.0 2.4 -0.15 1.25 0.85 0.65 L1.55 0.2 2.45 -0.35 Q3.4 -0.85 3.85 -0.85 L4.85 -0.85 Q5.35 -0.85 5.65 -0.2 Z" fill="none" stroke="#262626" stroke-linecap="butt" stroke-linejoin="miter-clip" stroke-miterlimit="15.12109375" stroke-width="1.0"/>
    <path d="M5.9 -0.3 Q6.0 0.6 2.85 0.9 L-1.95 2.7 Q-2.8 2.7 -3.15 1.1 -3.05 -3.2 0.85 -3.25 4.7 -3.4 5.9 -0.3" fill="#98938e" fill-rule="evenodd" stroke="none"/>
    <path d="M5.9 -0.3 Q6.0 0.6 2.85 0.9 L-1.95 2.7 Q-2.8 2.7 -3.15 1.1 -3.05 -3.2 0.85 -3.25 4.7 -3.4 5.9 -0.3 Z" fill="none" stroke="#4d4b47" stroke-linecap="round" stroke-linejoin="round" stroke-width="1.0"/>
    <path d="M0.5 3.8 L-0.4 2.15 Q-0.75 0.85 0.45 0.2 L2.9 0.35 3.6 0.85 Q3.9 1.3 3.9 2.25 L3.3 3.55 Q3.1 4.1 1.6 4.25 L0.5 3.8" fill="#84807b" fill-rule="evenodd" stroke="none"/>
    <path d="M0.5 3.8 L1.6 4.25 Q3.1 4.1 3.3 3.55 L3.9 2.25 Q3.9 1.3 3.6 0.85 L2.9 0.35 0.45 0.2 Q-0.75 0.85 -0.4 2.15 L0.5 3.8 Z" fill="none" stroke="#5c5955" stroke-linecap="round" stroke-linejoin="round" stroke-width="1.0"/>
    <path d="M7.65 4.65 L7.85 6.3 7.65 8.8 7.35 9.8 8.2 10.7 8.1 13.8 5.45 15.65 2.65 14.95 2.0 12.1 -0.9 6.9 -0.45 5.5 Q0.55 6.35 1.75 6.0 L4.8 4.45 5.45 3.9 6.2 3.3 6.75 4.0 7.65 4.65" fill="#8a8681" fill-rule="evenodd" stroke="none"/>
    <path d="M5.7 2.9 Q6.25 2.95 6.75 3.5 L7.65 4.65 7.6 8.5 7.2 9.45 8.15 10.4 8.4 14.25 5.75 16.15 2.95 15.45 1.9 11.8 Q0.35 10.4 -0.55 8.4 -1.45 6.35 -1.1 4.9" fill="none" stroke="#4d4b47" stroke-linecap="round" stroke-linejoin="round" stroke-width="1.0"/>
    <path d="M-1.1 4.75 L0.35 5.85 Q3.3 6.6 5.35 4.35 L5.4 3.6 5.5 2.85" fill="none" stroke="#585655" stroke-linecap="round" stroke-linejoin="round" stroke-width="1.0"/>
    <path d="M2.1 12.15 L6.1 11.3 7.4 9.85" fill="none" stroke="#545454" stroke-linecap="round" stroke-linejoin="round" stroke-width="1.0"/>
    <path d="M5.8 9.2 L5.25 9.8" fill="none" stroke="#676463" stroke-linecap="round" stroke-linejoin="round" stroke-width="1.0"/>
    <path d="M5.7 7.25 L5.1 7.95" fill="none" stroke="#676463" stroke-linecap="round" stroke-linejoin="round" stroke-width="1.0"/>
    <path d="M-0.1 7.7 Q1.3 7.65 1.85 8.45 2.4 9.35 1.35 10.9" fill="none" stroke="#735f5f" stroke-linecap="round" stroke-linejoin="miter-clip" stroke-miterlimit="15.12109375" stroke-width="1.0"/>
    <path d="M7.65 9.85 L8.5 13.4 8.05 14.55 5.4 16.4 2.6 15.7 2.45 12.25 6.25 11.35 7.65 9.85" fill="#5f5f5f" fill-opacity="0.32941177" fill-rule="evenodd" stroke="none"/>
    <path d="M5.8 -2.75 L6.2 -0.1 5.65 0.25 5.9 2.6 7.65 4.5 7.6 9.6 8.3 10.3 8.4 14.4 5.7 16.4 2.8 15.8 1.8 12.0 Q0.25 10.15 -0.45 8.6 -1.1 7.15 -1.55 4.75 L-0.8 5.2 -0.95 3.1 -1.35 2.25 -2.65 2.6 -3.15 0.85 -3.05 -0.3 -2.8 -0.85" fill="none" stroke="#000000" stroke-linecap="round" stroke-linejoin="round" stroke-opacity="0.15686275" stroke-width="1.0"/>
  </g>
</svg>
