<?xml version="1.0" encoding="UTF-8" standalone="no"?>
<svg xmlns:xlink="http://www.w3.org/1999/xlink" height="24.6px" width="11.55px" xmlns="http://www.w3.org/2000/svg">
  <g transform="matrix(1.0, 0.0, 0.0, 1.0, 6.25, 4.4)">
    <path d="M-3.8 -0.9 Q-3.2 -2.05 -2.25 -1.85 L0.05 -2.1 1.9 -2.75 3.0 -2.0 Q3.45 -1.3 3.3 0.35 L2.25 6.25 Q1.3 10.6 1.05 13.4 1.0 14.3 1.45 16.3 L2.0 19.15 -1.95 19.5 Q-4.5 19.95 -5.75 19.5 -5.15 18.6 -5.0 12.2 -4.75 4.2 -4.4 1.55 L-3.8 -0.9" fill="#2f3b48" fill-rule="evenodd" stroke="none"/>
    <path d="M-3.8 -0.9 Q-3.2 -2.05 -2.25 -1.85 L0.05 -2.1 1.9 -2.75 3.0 -2.0 Q3.45 -1.3 3.3 0.35 L2.25 6.25 Q1.3 10.6 1.05 13.4 1.0 14.3 1.45 16.3 L2.0 19.15 -1.95 19.5 Q-4.5 19.95 -5.75 19.5 -5.15 18.6 -5.0 12.2 -4.75 4.2 -4.4 1.55 L-3.8 -0.9 Z" fill="none" stroke="#191f26" stroke-linecap="round" stroke-linejoin="round" stroke-width="1.05"/>
    <path d="M1.15 -0.95 Q1.15 0.3 0.15 2.15 L-0.85 3.75" fill="none" stroke="#242f3c" stroke-linecap="round" stroke-linejoin="round" stroke-width="1.05"/>
    <path d="M-4.4 0.1 L-4.2 -0.5 Q-3.9 -1.15 -4.2 -1.55 L-0.1 -2.7 3.65 -3.1 Q3.35 -1.55 3.65 0.2 -2.65 -0.05 -4.4 0.1" fill="#4f4f4f" fill-rule="evenodd" stroke="none"/>
    <path d="M-4.4 0.1 Q-2.65 -0.05 3.65 0.2 3.35 -1.55 3.65 -3.1 L-0.1 -2.7 -4.2 -1.55 Q-3.9 -1.15 -4.2 -0.5 L-4.4 0.1 Z" fill="none" stroke="#272727" stroke-linecap="round" stroke-linejoin="round" stroke-width="1.05"/>
    <path d="M-3.5 8.9 L-2.85 6.75 -2.3 5.9" fill="none" stroke="#242f3c" stroke-linecap="round" stroke-linejoin="round" stroke-width="1.05"/>
    <path d="M-1.25 17.55 Q-2.1 16.4 -1.55 14.45 L-0.85 12.75" fill="none" stroke="#242f3c" stroke-linecap="round" stroke-linejoin="round" stroke-width="1.05"/>
    <path d="M-0.55 -1.1 L2.05 -1.4" fill="none" stroke="#272727" stroke-linecap="round" stroke-linejoin="round" stroke-width="1.05"/>
    <path d="M3.85 0.95 Q1.5 -0.2 1.75 -1.7 2.0 -3.15 4.25 -3.9 4.9 -3.3 4.8 -1.7 4.75 0.0 3.85 0.95" fill="#4f4f4f" fill-rule="evenodd" stroke="none"/>
    <path d="M3.85 0.95 Q4.75 0.0 4.8 -1.7 4.9 -3.3 4.25 -3.9 2.0 -3.15 1.75 -1.7 1.5 -0.2 3.85 0.95 Z" fill="none" stroke="#212121" stroke-linecap="round" stroke-linejoin="round" stroke-width="1.05"/>
  </g>
</svg>
