<?xml version="1.0" encoding="UTF-8" standalone="no"?>
<svg xmlns:ffdec="https://www.free-decompiler.com/flash" xmlns:xlink="http://www.w3.org/1999/xlink" ffdec:objectType="shape" height="27.4px" width="16.35px" xmlns="http://www.w3.org/2000/svg">
  <g transform="matrix(1.0, 0.0, 0.0, 1.0, 3.85, 6.25)">
    <path d="M9.1 12.2 Q9.55 13.5 9.5 15.85 9.35 18.65 8.15 18.95 6.5 19.35 5.75 17.5 L4.85 15.8 Q4.2 13.45 6.0 12.25 L9.1 12.2" fill="#a7825e" fill-rule="evenodd" stroke="none"/>
    <path d="M9.1 12.2 L6.0 12.25 Q4.2 13.45 4.85 15.8 L5.75 17.5 Q6.5 19.35 8.15 18.95 9.35 18.65 9.5 15.85 9.55 13.5 9.1 12.2 Z" fill="none" stroke="#352d25" stroke-linecap="butt" stroke-linejoin="miter-clip" stroke-miterlimit="15.12109375" stroke-width="1.0"/>
    <path d="M3.6 8.35 L3.25 7.55 1.75 7.5 -0.3 7.8 -0.9 7.0 Q-1.3 6.45 -1.7 4.55 L-1.7 3.4 Q-1.75 3.0 -1.4 2.75 0.75 1.7 1.15 2.3 2.65 4.6 7.0 3.55 8.15 4.9 9.05 9.6 9.35 11.9 8.95 12.85 L7.95 13.45 Q8.0 12.35 5.7 11.75 5.3 11.6 4.7 10.25 L3.6 8.35" fill="url(#gradient0)" fill-rule="evenodd" stroke="none"/>
    <path d="M3.6 8.35 L4.7 10.25 Q5.3 11.6 5.7 11.75 8.0 12.35 7.95 13.45 L8.95 12.85 Q9.35 11.9 9.05 9.6 8.15 4.9 7.0 3.55 2.65 4.6 1.15 2.3 0.75 1.7 -1.4 2.75 -1.75 3.0 -1.7 3.4 L-1.7 4.55 Q-1.3 6.45 -0.9 7.0 L-0.3 7.8 1.75 7.5 3.25 7.55 3.6 8.35 Z" fill="none" stroke="#1c1515" stroke-linecap="butt" stroke-linejoin="miter-clip" stroke-miterlimit="15.12109375" stroke-width="1.0"/>
    <path d="M3.3 8.65 Q3.6 8.4 8.25 14.0 7.85 14.6 7.8 15.1 L7.6 15.35 Q7.1 15.6 6.1 14.85 L4.15 13.4 3.05 12.4 2.05 11.1 1.1 10.0 Q0.9 9.7 1.05 9.7 L2.2 9.55 3.1 9.3 Q3.45 9.1 3.3 8.65" fill="url(#gradient1)" fill-rule="evenodd" stroke="none"/>
    <path d="M3.3 8.65 Q3.6 8.4 8.25 14.0 7.85 14.6 7.8 15.1 L7.6 15.35 Q7.1 15.6 6.1 14.85 L4.15 13.4 3.05 12.4 2.05 11.1 1.1 10.0 Q0.9 9.7 1.05 9.7 L2.2 9.55 3.1 9.3 Q3.45 9.1 3.3 8.65 Z" fill="none" stroke="#1c1515" stroke-linecap="butt" stroke-linejoin="miter-clip" stroke-miterlimit="15.12109375" stroke-width="1.0"/>
    <path d="M-2.85 -0.95 L-0.8 -1.15 0.85 -0.25 Q1.8 0.25 2.75 0.05 3.35 -0.05 4.15 -0.5 5.35 -0.55 5.95 0.8 6.5 2.0 6.15 3.0 4.4 4.15 3.15 3.65 L1.25 2.35 Q0.15 1.9 -1.35 2.65 -2.5 3.1 -3.1 1.35 -3.7 -0.35 -2.85 -0.95" fill="url(#gradient2)" fill-rule="evenodd" stroke="none"/>
    <path d="M-2.85 -0.95 L-0.8 -1.15 0.85 -0.25 Q1.8 0.25 2.75 0.05 3.35 -0.05 4.15 -0.5 5.35 -0.55 5.95 0.8 6.5 2.0 6.15 3.0 4.4 4.15 3.15 3.65 L1.25 2.35 Q0.15 1.9 -1.35 2.65 -2.5 3.1 -3.1 1.35 -3.7 -0.35 -2.85 -0.95 Z" fill="none" stroke="#1a1717" stroke-linecap="butt" stroke-linejoin="miter-clip" stroke-miterlimit="15.12109375" stroke-width="1.0"/>
    <path d="M0.45 8.75 L2.6 8.45" fill="none" stroke="#dcc64f" stroke-linecap="round" stroke-linejoin="round" stroke-width="1.0"/>
    <path d="M6.05 12.7 L6.75 11.75 8.9 11.8 Q9.5 12.6 9.65 14.2 9.8 15.85 9.35 16.2 L8.65 16.9 Q8.2 17.05 7.2 16.35 L6.2 14.3 Q5.95 13.55 6.05 12.7" fill="#402b2b" fill-rule="evenodd" stroke="none"/>
    <path d="M6.05 12.7 L6.75 11.75 8.9 11.8 Q9.5 12.6 9.65 14.2 9.8 15.85 9.35 16.2 L8.65 16.9 Q8.2 17.05 7.2 16.35 L6.2 14.3 Q5.95 13.55 6.05 12.7 Z" fill="none" stroke="#1c1515" stroke-linecap="butt" stroke-linejoin="miter-clip" stroke-miterlimit="15.12109375" stroke-width="1.0"/>
  </g>
  <defs>
    <radialGradient cx="0" cy="0" gradientTransform="matrix(-0.0088, 0.0078, -0.0073, -0.0101, 9.05, 5.9)" gradientUnits="userSpaceOnUse" id="gradient0" r="819.2" spreadMethod="pad">
      <stop offset="0.0" stop-color="#241818"/>
      <stop offset="1.0" stop-color="#4d3434"/>
    </radialGradient>
    <radialGradient cx="0" cy="0" gradientTransform="matrix(-0.0016, 0.002, -0.018, -0.018, 6.3, 11.85)" gradientUnits="userSpaceOnUse" id="gradient1" r="819.2" spreadMethod="pad">
      <stop offset="0.0" stop-color="#241818"/>
      <stop offset="1.0" stop-color="#4d3434"/>
    </radialGradient>
    <radialGradient cx="0" cy="0" gradientTransform="matrix(0.0031, -0.0017, 0.0052, 0.011, 1.9, -0.95)" gradientUnits="userSpaceOnUse" id="gradient2" r="819.2" spreadMethod="pad">
      <stop offset="0.0" stop-color="#251d1d"/>
      <stop offset="1.0" stop-color="#493f3f"/>
    </radialGradient>
  </defs>
</svg>
