<?xml version="1.0" encoding="UTF-8" standalone="no"?>
<svg xmlns:xlink="http://www.w3.org/1999/xlink" height="365.5px" width="760.45px" xmlns="http://www.w3.org/2000/svg">
  <g transform="matrix(1.0, 0.0, 0.0, 1.0, -18.0, -19.0)">
    <path d="M567.0 40.0 L18.0 40.0 18.0 19.0 567.0 19.0 567.0 40.0" fill="url(#gradient0)" fill-rule="evenodd" stroke="none"/>
    <path d="M60.65 338.05 L196.7 338.05 196.7 356.05 60.65 356.05 60.65 338.05" fill="#333333" fill-rule="evenodd" stroke="none"/>
    <path d="M777.95 350.0 L391.0 350.0 391.0 77.0 777.95 77.0 777.95 350.0" fill="#132831" fill-rule="evenodd" stroke="none"/>
    <path d="M743.95 384.0 L390.95 384.0 390.95 355.0 743.95 355.0 743.95 384.0" fill="#0c1a1f" fill-rule="evenodd" stroke="none"/>
    <path d="M743.95 384.0 L390.95 384.0 390.95 355.0 743.95 355.0 743.95 384.0 M777.95 350.0 L391.0 350.0 391.0 77.0 777.95 77.0 777.95 350.0" fill="none" stroke="#37748c" stroke-linecap="round" stroke-linejoin="round" stroke-width="1.0"/>
  </g>
  <defs>
    <linearGradient gradientTransform="matrix(0.3351, 0.0, 0.0, 0.0098, 292.45, 28.0)" gradientUnits="userSpaceOnUse" id="gradient0" spreadMethod="pad" x1="-819.2" x2="819.2">
      <stop offset="0.0" stop-color="#66ccff" stop-opacity="0.4117647"/>
      <stop offset="1.0" stop-color="#66ccff" stop-opacity="0.0"/>
    </linearGradient>
  </defs>
</svg>
