<?xml version="1.0" encoding="UTF-8" standalone="no"?>
<svg xmlns:ffdec="https://www.free-decompiler.com/flash" xmlns:xlink="http://www.w3.org/1999/xlink" ffdec:objectType="shape" height="22.75px" width="12.8px" xmlns="http://www.w3.org/2000/svg">
  <g transform="matrix(1.0, 0.0, 0.0, 1.0, 2.95, 5.7)">
    <path d="M4.2 -3.4 L4.7 -2.5 Q6.65 -0.25 7.35 2.8 L7.9 7.0 Q7.25 9.1 5.85 7.85 L4.3 6.1 2.65 4.3 Q2.4 4.3 0.85 3.5 L-0.45 -0.05 Q1.0 -0.75 1.6 -1.75 L2.75 -3.7 4.2 -3.4" fill="url(#gradient0)" fill-rule="evenodd" stroke="none"/>
    <path d="M4.2 -3.4 L4.7 -2.5 Q6.65 -0.25 7.35 2.8 L7.9 7.0 Q7.25 9.1 5.85 7.85 L4.3 6.1 2.65 4.3 Q2.4 4.3 0.85 3.5 L-0.45 -0.05 Q1.0 -0.75 1.6 -1.75 L2.75 -3.7 4.2 -3.4 Z" fill="none" stroke="#5a4528" stroke-linecap="butt" stroke-linejoin="miter-clip" stroke-miterlimit="11.33984375" stroke-width="0.9500000000000001"/>
    <path d="M-1.7 3.65 L-2.3 2.3 Q-2.4 1.7 -1.3 1.65 -1.0 1.6 -0.15 1.0 1.4 2.65 2.4 3.1 L3.4 3.55 Q3.95 3.9 4.5 5.2 L5.4 6.85 Q6.4 7.95 8.0 7.25 L8.5 8.75 Q8.95 10.3 8.75 10.7 8.65 11.15 7.8 11.45 L6.3 11.9 Q5.5 12.15 4.65 11.0 L3.35 8.2 Q2.45 6.8 1.8 6.35 L0.05 5.4 -1.7 3.65" fill="url(#gradient1)" fill-rule="evenodd" stroke="none"/>
    <path d="M-1.7 3.65 L0.05 5.4 1.8 6.35 Q2.45 6.8 3.35 8.2 L4.65 11.0 Q5.5 12.15 6.3 11.9 L7.8 11.45 Q8.65 11.15 8.75 10.7 8.95 10.3 8.5 8.75 L8.0 7.25 Q6.4 7.95 5.4 6.85 L4.5 5.2 Q3.95 3.9 3.4 3.55 L2.4 3.1 Q1.4 2.65 -0.15 1.0 -1.0 1.6 -1.3 1.65 -2.4 1.7 -2.3 2.3 L-1.7 3.65 Z" fill="none" stroke="#353739" stroke-linecap="round" stroke-linejoin="round" stroke-width="0.9500000000000001"/>
    <path d="M4.05 -3.0 Q3.45 -1.55 2.45 -0.65 1.6 0.1 0.05 0.85 -1.95 -1.1 -2.2 -1.7 L-2.4 -3.05 -1.95 -4.45 Q0.1 -5.65 1.85 -5.0 3.35 -4.4 4.05 -3.0" fill="url(#gradient2)" fill-rule="evenodd" stroke="none"/>
    <path d="M4.05 -3.0 Q3.45 -1.55 2.45 -0.65 1.6 0.1 0.05 0.85 -1.95 -1.1 -2.2 -1.7 L-2.4 -3.05 -1.95 -4.45 Q0.1 -5.65 1.85 -5.0 3.35 -4.4 4.05 -3.0 Z" fill="none" stroke="#2b2e30" stroke-linecap="butt" stroke-linejoin="miter-clip" stroke-miterlimit="11.33984375" stroke-width="0.9500000000000001"/>
    <path d="M8.45 9.75 L8.7 10.85 9.0 13.25 Q9.0 14.55 8.35 15.45 7.7 16.35 6.75 16.45 4.45 16.9 4.65 15.4 L4.55 12.35 Q4.55 11.35 5.45 11.0 L7.55 10.35 8.45 9.75" fill="#1a1b20" fill-rule="evenodd" stroke="none"/>
    <path d="M8.45 9.75 L8.7 10.85 9.0 13.25 Q9.0 14.55 8.35 15.45 7.7 16.35 6.75 16.45 4.45 16.9 4.65 15.4 L4.55 12.35 Q4.55 11.35 5.45 11.0 L7.55 10.35 8.45 9.75 Z" fill="none" stroke="#18191b" stroke-linecap="butt" stroke-linejoin="miter-clip" stroke-miterlimit="11.33984375" stroke-width="0.9500000000000001"/>
    <path d="M4.15 -3.4 Q6.45 -0.9 7.4 3.35 L8.85 10.7 Q8.45 10.9 8.6 12.7 8.85 14.8 8.55 15.3 L7.55 16.2 6.25 16.55 Q5.0 16.8 4.75 16.0 L4.8 13.45 4.45 11.35 3.8 9.0 2.95 7.45 1.8 6.35 Q1.6 6.1 0.65 5.7 L-0.6 5.0 -1.25 4.2 -1.7 3.4 -2.2 2.0 Q-2.0 1.75 -0.8 1.45 L-0.05 0.8 -1.85 -1.0 -2.5 -2.6 -2.25 -3.6 -1.9 -4.2" fill="none" stroke="#010100" stroke-linecap="round" stroke-linejoin="round" stroke-opacity="0.20392157" stroke-width="0.9500000000000001"/>
    <path d="M6.1 10.75 L7.45 10.3 8.9 10.0 Q9.1 10.15 9.3 11.6 L9.35 13.5 Q9.25 13.95 6.7 14.85 6.3 14.95 6.0 13.85 L5.75 12.0 Q5.75 11.4 5.9 11.05 L6.1 10.75" fill="url(#gradient3)" fill-rule="evenodd" stroke="none"/>
    <path d="M6.1 10.75 L7.45 10.3 8.9 10.0 Q9.1 10.15 9.3 11.6 L9.35 13.5 Q9.25 13.95 6.7 14.85 6.3 14.95 6.0 13.85 L5.75 12.0 Q5.75 11.4 5.9 11.05 L6.1 10.75 Z" fill="none" stroke="#323334" stroke-linecap="round" stroke-linejoin="round" stroke-width="0.9500000000000001"/>
  </g>
  <defs>
    <radialGradient cx="0" cy="0" gradientTransform="matrix(0.0212, -0.0017, -6.0E-4, 0.0216, -8.35, 0.95)" gradientUnits="userSpaceOnUse" id="gradient0" r="819.2" spreadMethod="pad">
      <stop offset="0.0" stop-color="#8e3a0e"/>
      <stop offset="1.0" stop-color="#dbb531"/>
    </radialGradient>
    <radialGradient cx="0" cy="0" gradientTransform="matrix(0.0182, -0.0015, 2.0E-4, 0.022, 4.6, 3.65)" gradientUnits="userSpaceOnUse" id="gradient1" r="819.2" spreadMethod="pad">
      <stop offset="0.0" stop-color="#444954"/>
      <stop offset="1.0" stop-color="#dbdce1"/>
    </radialGradient>
    <radialGradient cx="0" cy="0" gradientTransform="matrix(0.0211, -0.0025, -2.0E-4, 0.0118, -8.45, -2.05)" gradientUnits="userSpaceOnUse" id="gradient2" r="819.2" spreadMethod="pad">
      <stop offset="0.0" stop-color="#1f1f1f"/>
      <stop offset="1.0" stop-color="#636c6a"/>
    </radialGradient>
    <radialGradient cx="0" cy="0" gradientTransform="matrix(0.0116, -0.0023, 0.0011, 0.0144, 4.0, 12.5)" gradientUnits="userSpaceOnUse" id="gradient3" r="819.2" spreadMethod="pad">
      <stop offset="0.0" stop-color="#444954"/>
      <stop offset="1.0" stop-color="#dbdce1"/>
    </radialGradient>
  </defs>
</svg>
