<?xml version="1.0" encoding="UTF-8" standalone="no"?>
<svg xmlns:ffdec="https://www.free-decompiler.com/flash" xmlns:xlink="http://www.w3.org/1999/xlink" ffdec:objectType="shape" height="19.8px" width="15.85px" xmlns="http://www.w3.org/2000/svg">
  <g transform="matrix(1.0, 0.0, 0.0, 1.0, 10.25, 5.2)">
    <path d="M2.7 3.05 Q3.15 6.95 2.0 9.95 0.8 13.0 -1.5 13.6 -3.85 14.25 -6.25 12.05 -8.7 9.75 -9.2 6.05 -9.95 0.9 -8.7 -1.7 -7.65 -3.75 -5.05 -4.5 -2.45 -5.2 -0.25 -3.4 2.2 -1.35 2.7 3.05" fill="#201f1f" fill-rule="evenodd" stroke="none"/>
    <path d="M2.7 3.05 Q3.15 6.95 2.0 9.95 0.8 13.0 -1.5 13.6 -3.85 14.25 -6.25 12.05 -8.7 9.75 -9.2 6.05 -9.95 0.9 -8.7 -1.7 -7.65 -3.75 -5.05 -4.5 -2.45 -5.2 -0.25 -3.4 2.2 -1.35 2.7 3.05 Z" fill="none" stroke="#000000" stroke-linecap="round" stroke-linejoin="round" stroke-width="1.05"/>
    <path d="M-7.5 11.3 Q-8.8 9.75 -9.4 6.8 L-9.8 4.1 -7.75 1.05 Q-6.45 -1.0 -5.1 -1.1 L-1.8 -0.65 1.2 -0.05 3.3 2.45 4.95 2.6 5.15 4.0 4.35 6.15 Q3.4 8.6 2.95 10.4 L3.25 11.75 Q1.05 14.1 -0.15 14.15 L-3.5 14.1 -6.55 13.85 Q-6.95 12.25 -7.5 11.3" fill="url(#gradient0)" fill-rule="evenodd" stroke="none"/>
    <path d="M3.3 2.45 L2.7 3.05 3.0 4.5 3.8 5.15 3.2 6.95 3.75 7.6" fill="none" stroke="#877b6a" stroke-linecap="round" stroke-linejoin="round" stroke-width="0.9500000000000001"/>
    <path d="M-3.55 7.4 L-1.4 3.9 -1.85 3.05" fill="none" stroke="#2a2928" stroke-linecap="round" stroke-linejoin="round" stroke-width="0.9500000000000001"/>
    <path d="M-9.8 4.1 L-7.75 1.05 Q-6.45 -1.0 -5.1 -1.1 L-1.8 -0.65 1.2 -0.05 3.3 2.45" fill="none" stroke="#756a5c" stroke-linecap="round" stroke-linejoin="round" stroke-width="0.9500000000000001"/>
    <path d="M-7.9 10.65 L-6.3 10.3 -5.45 7.7 -4.5 7.55 -1.85 3.05 -3.3 0.45 -5.2 0.35 -5.9 -0.8 M-3.3 0.45 L-2.35 -0.8 M2.95 10.4 L-0.55 11.0 -3.55 7.4 -4.5 7.55" fill="none" stroke="#756a5c" stroke-linecap="round" stroke-linejoin="round" stroke-width="0.9500000000000001"/>
    <path d="M3.3 2.45 L4.95 2.6 5.15 4.0 4.35 6.15 Q3.4 8.6 2.95 10.4 L3.25 11.75 Q1.05 14.1 -0.15 14.15 L-3.5 14.1 -6.55 13.85 Q-6.95 12.25 -7.5 11.3 -8.8 9.75 -9.4 6.8 L-9.8 4.1" fill="none" stroke="#2c2924" stroke-linecap="round" stroke-linejoin="round" stroke-width="0.9500000000000001"/>
  </g>
  <defs>
    <linearGradient gradientTransform="matrix(0.0097, 0.0, 0.0, 0.0097, -2.35, 6.5)" gradientUnits="userSpaceOnUse" id="gradient0" spreadMethod="pad" x1="-819.2" x2="819.2">
      <stop offset="0.0" stop-color="#95856c"/>
      <stop offset="1.0" stop-color="#ada08e"/>
    </linearGradient>
  </defs>
</svg>
