<?xml version="1.0" encoding="UTF-8" standalone="no"?>
<svg xmlns:ffdec="https://www.free-decompiler.com/flash" xmlns:xlink="http://www.w3.org/1999/xlink" ffdec:objectType="shape" height="21.2px" width="13.9px" xmlns="http://www.w3.org/2000/svg">
  <g transform="matrix(1.0, 0.0, 0.0, 1.0, 3.85, 1.65)">
    <path d="M0.15 8.1 L1.95 7.85 2.0 7.85 2.7 7.6 3.55 7.55 3.6 7.55 4.1 8.2 5.25 9.6 6.3 11.0 7.55 11.05 8.5 10.95 8.75 11.0 Q8.9 11.15 8.95 11.1 9.3 10.55 9.05 9.3 L8.0 6.3 6.55 3.4 5.65 3.45 4.85 3.6 3.3 3.45 2.05 2.6 Q1.7 1.9 0.45 1.8 -0.6 1.7 -1.35 2.15 L-1.8 2.1 M3.6 7.55 L4.1 8.2 M2.0 7.85 L3.6 7.55 M6.3 11.0 L6.25 10.95 5.25 9.6" fill="none" stroke="#191313" stroke-linecap="round" stroke-linejoin="round" stroke-opacity="0.5137255" stroke-width="1.0"/>
    <path d="M4.45 -0.45 Q5.55 -0.4 5.95 0.85 L6.4 3.4 7.3 3.5 8.4 7.1 9.0 9.5 9.1 10.5 9.2 12.4 9.45 13.8 9.5 16.0 8.9 18.45 Q8.0 19.2 7.15 19.0 6.8 18.95 6.15 18.1 L5.3 16.8 Q4.75 15.7 4.65 14.7 L4.35 13.55 3.25 12.15 2.05 11.15 1.4 10.45 1.05 9.8" fill="none" stroke="#000000" stroke-linecap="round" stroke-linejoin="round" stroke-opacity="0.25490198" stroke-width="1.0"/>
    <path d="M-2.95 -1.15 Q-3.7 1.25 -3.05 2.3 L-1.95 3.25 -1.75 4.6 -1.35 6.0 -0.4 7.85" fill="none" stroke="#000000" stroke-linecap="round" stroke-linejoin="round" stroke-opacity="0.3529412" stroke-width="1.0"/>
  </g>
</svg>
