<?xml version="1.0" encoding="UTF-8" standalone="no"?>
<svg xmlns:ffdec="https://www.free-decompiler.com/flash" xmlns:xlink="http://www.w3.org/1999/xlink" ffdec:objectType="shape" height="24.45px" width="15.6px" xmlns="http://www.w3.org/2000/svg">
  <g transform="matrix(1.0, 0.0, 0.0, 1.0, 4.7, -0.5)">
    <path d="M9.25 16.75 L9.5 17.1 Q9.6 18.1 9.0 19.0 L7.15 20.65 6.45 21.15 5.65 20.7 5.3 20.15 6.1 19.25 6.45 18.75 6.4 18.6 Q6.25 18.45 6.2 18.65 L6.0 18.85 5.65 18.95 4.85 18.25 4.25 16.75 Q4.05 16.5 4.35 16.35 L5.9 15.5 6.15 15.1 6.85 15.2 Q8.25 15.6 9.25 16.75" fill="#975b01" fill-rule="evenodd" stroke="none"/>
    <path d="M5.85 15.0 Q6.6 14.75 7.8 15.45 9.0 16.05 9.65 17.05 9.8 18.5 8.65 19.7 L6.5 21.35 Q5.3 20.65 5.0 20.2 L5.9 19.15 4.65 18.15 4.05 16.6 M5.9 19.15 L6.3 18.65" fill="none" stroke="#653d01" stroke-linecap="round" stroke-linejoin="round" stroke-width="0.65"/>
    <path d="M0.1 2.4 Q0.65 2.05 1.65 1.95 3.35 1.8 4.75 3.4 L4.95 3.55 5.0 4.15 Q5.75 6.9 5.35 8.45 L4.9 9.35 Q3.95 11.15 4.75 13.7 L5.1 14.85 Q4.7 15.5 3.85 15.6 L2.65 15.55 Q2.0 15.05 1.3 13.9 -0.25 11.25 -0.95 8.4 L-0.95 7.25 -0.2 3.1 0.1 2.4" fill="#d27e02" fill-rule="evenodd" stroke="none"/>
    <path d="M5.4 7.35 L5.5 7.5 5.3 8.7 4.75 9.6 Q4.4 10.4 4.4 11.6 4.4 12.8 4.9 14.25 L5.05 14.9 Q4.65 15.45 3.7 15.65 L2.75 15.65 1.75 14.65 Q0.9 13.35 0.05 11.25 L-1.0 8.05 -0.85 6.55 Q-0.9 6.15 -0.5 6.2 L4.0 7.35 4.8 7.4 5.05 7.3 5.4 7.35" fill="#000000" fill-opacity="0.32941177" fill-rule="evenodd" stroke="none"/>
    <path d="M0.4 2.3 L-0.15 2.55 Q-0.65 3.55 -0.85 5.2 L-1.15 8.0 Q-0.8 10.0 0.5 12.7 1.85 15.4 2.8 15.8 4.45 15.95 5.25 14.9 4.6 13.4 4.55 11.85 4.45 10.0 5.4 8.9 5.9 7.15 5.2 4.05 L4.9 3.7" fill="none" stroke="#653d01" stroke-linecap="round" stroke-linejoin="round" stroke-width="0.65"/>
    <path d="M5.15 13.85 L5.55 14.3 Q5.85 14.7 5.75 15.2 L5.05 15.7 Q4.0 16.3 3.1 16.25 L2.35 16.15 1.75 15.5 1.65 15.2 1.85 14.95 Q3.75 14.4 4.65 13.75 4.85 13.45 5.15 13.85" fill="#999999" fill-rule="evenodd" stroke="none"/>
    <path d="M1.55 15.55 L2.35 16.35 2.85 16.35 4.45 16.15 Q5.25 15.85 5.9 15.2 L5.7 14.3 4.95 13.35 Q3.85 14.25 1.45 14.9 L1.55 15.55 Z" fill="none" stroke="#1a1a1a" stroke-linecap="round" stroke-linejoin="round" stroke-width="0.65"/>
    <path d="M0.05 2.15 L0.15 2.3 0.1 4.0 -0.35 5.6 -1.0 6.2 -1.75 5.9 -2.3 6.35 Q-2.7 6.65 -3.05 6.55 L-3.75 5.75 -3.95 4.75 -3.15 4.05 Q-2.95 3.55 -3.05 2.55 -3.05 2.15 -3.45 1.85 -3.95 1.6 -3.6 1.3 L-3.25 1.1 -2.9 1.0 0.05 2.15" fill="#434343" fill-rule="evenodd" stroke="none"/>
    <path d="M-0.85 6.3 L-0.2 5.7 Q0.35 3.9 0.35 2.1 L-3.0 0.8 -4.05 1.4 -3.65 1.9 -3.15 2.45 -3.2 3.8 -3.65 4.25 -4.1 4.7 -3.9 5.75 -3.3 6.6" fill="none" stroke="#0e0e0e" stroke-linecap="round" stroke-linejoin="round" stroke-width="0.65"/>
    <path d="M-3.8 7.7 Q-4.0 7.05 -3.3 6.9 L-2.3 6.65 -1.65 6.25 -0.65 6.7 -0.6 6.75 -0.35 7.8 -0.25 8.15 -0.4 8.45 -1.9 8.8 -2.25 8.95 -0.75 14.75 Q-0.6 15.25 -0.95 15.3 -1.55 15.2 -1.8 14.4 -3.45 10.1 -3.8 7.7" fill="#434343" fill-rule="evenodd" stroke="none"/>
    <path d="M-3.8 7.6 L-3.7 7.2 -3.35 6.85 -2.85 6.85 -2.45 6.85 -2.4 6.9 -1.55 8.35 Q-1.4 8.55 -1.6 8.75 L-2.15 8.9 -2.2 9.05 -0.7 15.0 Q-0.65 15.35 -0.95 15.3 -1.45 15.2 -1.7 14.75 -2.1 13.4 -2.65 12.05 -3.55 9.6 -3.8 7.6" fill="#000000" fill-opacity="0.31764707" fill-rule="evenodd" stroke="none"/>
    <path d="M0.1 9.5 L-0.4 6.65 -1.75 6.0 Q-2.4 6.8 -3.45 6.7 L-4.0 7.35 Q-3.6 10.3 -1.75 14.85 -1.4 15.45 -0.85 15.4 L0.1 15.25" fill="none" stroke="#0e0e0e" stroke-linecap="round" stroke-linejoin="round" stroke-width="0.65"/>
    <path d="M-2.9 2.6 L0.0 3.4 M-3.15 3.8 L-2.9 4.5 -0.9 5.05 -0.05 4.65" fill="none" stroke="#0e0e0e" stroke-linecap="round" stroke-linejoin="round" stroke-width="0.65"/>
    <path d="M3.8 15.2 L8.25 23.55 6.55 24.45 2.0 16.05 Q2.85 15.65 3.8 15.2" fill="url(#gradient0)" fill-rule="evenodd" stroke="none"/>
    <path d="M3.8 15.2 L8.25 23.55 6.55 24.45 2.0 16.05" fill="none" stroke="#1a1a1a" stroke-linecap="round" stroke-linejoin="round" stroke-width="0.65"/>
    <path d="M7.8 23.2 L7.25 22.7 6.5 23.1 6.55 23.95" fill="none" stroke="#1a1a1a" stroke-linecap="round" stroke-linejoin="round" stroke-width="0.65"/>
    <path d="M1.15 14.45 L5.65 22.85 3.95 23.65 -0.6 15.3 1.15 14.45" fill="url(#gradient1)" fill-rule="evenodd" stroke="none"/>
    <path d="M1.15 14.45 L5.65 22.85 3.95 23.65 -0.6 15.3" fill="none" stroke="#1a1a1a" stroke-linecap="round" stroke-linejoin="round" stroke-width="0.65"/>
    <path d="M5.2 22.45 L4.65 21.95 3.85 22.35 3.9 23.25" fill="none" stroke="#1a1a1a" stroke-linecap="round" stroke-linejoin="round" stroke-width="0.65"/>
    <path d="M6.1 15.4 L10.6 23.8 8.85 24.65 4.35 16.2 6.1 15.4" fill="url(#gradient2)" fill-rule="evenodd" stroke="none"/>
    <path d="M6.1 15.4 L10.6 23.8 8.85 24.65 4.35 16.2" fill="none" stroke="#1a1a1a" stroke-linecap="round" stroke-linejoin="round" stroke-width="0.65"/>
    <path d="M10.15 23.45 L9.55 22.95 8.8 23.3 8.8 24.2" fill="none" stroke="#1a1a1a" stroke-linecap="round" stroke-linejoin="round" stroke-width="0.65"/>
    <path d="M3.6 8.05 L3.75 8.15 3.95 9.6 9.6 19.75 9.65 20.05 9.45 20.2 3.8 22.45 2.7 22.4 1.3 19.55 Q-0.05 16.45 -1.7 9.85 L-1.75 9.45 -1.6 9.1 3.6 8.05" fill="url(#gradient3)" fill-rule="evenodd" stroke="none"/>
    <path d="M6.3 14.1 L6.4 14.2 9.5 19.6 Q9.85 20.05 9.5 20.15 5.6 21.9 3.8 22.3 L2.85 22.45 2.2 21.45 Q0.9 19.05 -0.15 15.75 L-1.75 9.8 -1.85 9.4 -1.75 9.05 -1.0 9.05 0.65 11.5 4.65 14.65 5.3 14.35 6.3 14.1" fill="#000000" fill-opacity="0.34509805" fill-rule="evenodd" stroke="none"/>
    <path d="M2.75 20.8 L2.25 20.95" fill="none" stroke="#494949" stroke-linecap="round" stroke-linejoin="round" stroke-width="0.65"/>
    <path d="M-1.65 9.15 Q-1.15 12.35 0.2 15.9 L3.0 22.1 Q5.7 21.55 9.6 19.7" fill="none" stroke="#f3f3f3" stroke-linecap="round" stroke-linejoin="round" stroke-width="0.65"/>
    <path d="M-2.15 9.0 L3.85 7.75 4.1 9.55 Q7.65 16.4 9.95 20.1 L6.55 21.55 Q4.6 22.4 2.95 22.65 L2.55 22.45 Q0.95 19.7 -0.25 15.75 L-2.15 9.0 Z" fill="none" stroke="#0e0e0e" stroke-linecap="round" stroke-linejoin="round" stroke-width="0.65"/>
    <path d="M9.2 20.5 L8.95 21.8 8.7 22.8 8.25 22.85 7.7 22.8 Q7.2 23.3 6.4 23.35 L6.1 23.8 5.85 24.1 4.75 23.45 Q4.1 22.8 3.85 22.65" fill="none" stroke="#0e0e0e" stroke-linecap="round" stroke-linejoin="round" stroke-width="0.65"/>
    <path d="M6.2 14.1 L4.7 14.65 0.5 11.25 -0.95 9.0" fill="none" stroke="#0e0e0e" stroke-linecap="round" stroke-linejoin="round" stroke-width="0.65"/>
    <path d="M5.25 15.3 L5.05 15.55 4.05 15.5 2.2 13.85 Q1.3 13.25 0.9 13.25 L0.8 12.9" fill="none" stroke="#540707" stroke-linecap="round" stroke-linejoin="round" stroke-width="0.65"/>
    <path d="M0.55 12.35 Q0.5 12.1 0.6 12.0 L1.15 10.85 Q1.1 10.7 1.2 10.55 L1.45 10.55 2.1 11.3 4.15 13.35 4.9 13.45 5.05 13.6 5.15 14.75 Q5.3 15.1 4.95 15.1 L4.25 15.05 2.65 13.55 Q1.9 12.8 1.05 12.9 0.65 13.05 0.65 12.7 L0.55 12.35" fill="#525252" fill-rule="evenodd" stroke="none"/>
    <path d="M4.25 15.25 L5.3 15.3 5.15 13.35 4.25 13.2 Q2.15 11.3 1.4 10.2 L0.95 10.5 Q1.1 11.4 0.3 12.05 L0.65 13.15 1.5 13.05 Q2.05 13.1 2.75 13.85 L4.25 15.25 Z" fill="none" stroke="#0e0e0e" stroke-linecap="round" stroke-linejoin="round" stroke-width="0.65"/>
    <path d="M-3.35 3.55 Q-5.3 3.35 -0.3 7.55 4.8 11.85 3.45 11.9" fill="none" stroke="#4a0606" stroke-linecap="round" stroke-linejoin="round" stroke-width="0.35000000000000003"/>
    <path d="M-3.3 2.75 Q-4.65 2.6 -4.55 3.7 -4.4 4.75 -3.45 5.5 -2.45 6.3 -0.2 6.9 1.45 7.25 3.3 10.0 4.75 12.0 3.9 12.65" fill="none" stroke="#150202" stroke-linecap="round" stroke-linejoin="round" stroke-width="0.35000000000000003"/>
  </g>
  <defs>
    <linearGradient gradientTransform="matrix(-9.0E-4, 5.0E-4, -5.0E-4, -9.0E-4, 5.05, 19.85)" gradientUnits="userSpaceOnUse" id="gradient0" spreadMethod="pad" x1="-819.2" x2="819.2">
      <stop offset="0.0" stop-color="#333333"/>
      <stop offset="0.6313725490196078" stop-color="#525252"/>
      <stop offset="1.0" stop-color="#333333"/>
    </linearGradient>
    <linearGradient gradientTransform="matrix(-9.0E-4, 5.0E-4, -5.0E-4, -9.0E-4, 2.4, 19.15)" gradientUnits="userSpaceOnUse" id="gradient1" spreadMethod="pad" x1="-819.2" x2="819.2">
      <stop offset="0.0" stop-color="#333333"/>
      <stop offset="0.6313725490196078" stop-color="#525252"/>
      <stop offset="1.0" stop-color="#333333"/>
    </linearGradient>
    <linearGradient gradientTransform="matrix(-9.0E-4, 5.0E-4, -5.0E-4, -9.0E-4, 7.35, 20.0)" gradientUnits="userSpaceOnUse" id="gradient2" spreadMethod="pad" x1="-819.2" x2="819.2">
      <stop offset="0.0" stop-color="#333333"/>
      <stop offset="0.6313725490196078" stop-color="#525252"/>
      <stop offset="1.0" stop-color="#333333"/>
    </linearGradient>
    <linearGradient gradientTransform="matrix(0.0079, 0.0048, -0.0048, 0.0079, 3.25, 15.3)" gradientUnits="userSpaceOnUse" id="gradient3" spreadMethod="pad" x1="-819.2" x2="819.2">
      <stop offset="0.0" stop-color="#999999"/>
      <stop offset="0.19607843137254902" stop-color="#b9b9b9"/>
      <stop offset="0.4627450980392157" stop-color="#999999"/>
      <stop offset="0.7764705882352941" stop-color="#b6b6b6"/>
      <stop offset="1.0" stop-color="#999999"/>
    </linearGradient>
  </defs>
</svg>
