<?xml version="1.0" encoding="UTF-8" standalone="no"?>
<svg xmlns:ffdec="https://www.free-decompiler.com/flash" xmlns:xlink="http://www.w3.org/1999/xlink" ffdec:objectType="shape" height="21.5px" width="15.15px" xmlns="http://www.w3.org/2000/svg">
  <g transform="matrix(1.0, 0.0, 0.0, 1.0, 5.8, 1.25)">
    <path d="M8.0 14.0 L8.95 16.35 7.0 18.3 4.65 19.85 Q3.6 19.15 3.2 18.25 L2.8 16.4 1.95 16.2 Q1.0 15.5 1.65 13.8 L6.0 12.1 Q7.25 12.7 8.0 14.0" fill="#222222" fill-rule="evenodd" stroke="none"/>
    <path d="M6.0 12.1 Q7.25 12.7 8.0 14.0 L8.95 16.35 7.0 18.3 4.65 19.85 Q3.6 19.15 3.2 18.25 L2.8 16.4 1.95 16.2 Q1.0 15.5 1.65 13.8" fill="none" stroke="#08080b" stroke-linecap="round" stroke-linejoin="round" stroke-width="0.8500000000000001"/>
    <path d="M5.0 2.35 Q5.95 8.55 6.75 11.55 L5.5 12.5 2.8 11.9 -0.3 12.0 -3.25 8.35 -3.0 7.6 -3.4 6.15 -3.15 4.55 3.65 1.95 5.0 2.35" fill="#373737" fill-rule="evenodd" stroke="none"/>
    <path d="M-3.1 4.5 L3.7 1.95 5.0 2.35 5.7 6.0 5.5 6.95 5.7 7.95 6.2 8.6 6.75 11.55 5.55 12.5 2.85 11.9 -0.25 12.0 -3.25 8.35 -2.95 7.6 -3.35 6.15 -3.1 4.5 Z" fill="none" stroke="#000000" stroke-linecap="round" stroke-linejoin="round" stroke-width="0.8500000000000001"/>
    <path d="M-1.35 1.4 L-0.75 0.5 3.15 -0.85 3.6 -0.55 4.95 1.8 4.95 2.35 2.15 4.0 -0.2 3.2 -1.35 1.4" fill="#282828" fill-rule="evenodd" stroke="none"/>
    <path d="M-1.35 1.4 L-0.75 0.5 3.15 -0.85 3.6 -0.55 4.95 1.8 4.95 2.35 2.15 4.0 -0.2 3.2 -1.35 1.4 Z" fill="none" stroke="#000000" stroke-linecap="round" stroke-linejoin="round" stroke-width="0.8500000000000001"/>
    <path d="M-4.55 1.4 L-1.15 0.1 -0.45 1.3 2.2 2.75 3.6 7.2 2.5 8.25 3.8 11.2 1.35 11.4 -2.6 5.9 -3.75 6.3 -5.4 4.65 -5.1 3.0 -4.55 1.4" fill="url(#gradient0)" fill-rule="evenodd" stroke="none"/>
    <path d="M-5.0 3.1 L-3.35 4.85 -1.65 4.45 2.25 10.25" fill="none" stroke="#f4f5f7" stroke-linecap="round" stroke-linejoin="round" stroke-width="0.8500000000000001"/>
    <path d="M-4.55 1.4 L-5.1 3.0 -5.4 4.65 -3.75 6.3 -2.6 5.9 1.35 11.4 3.8 11.2 2.5 8.25 3.6 7.2 2.2 2.75 -0.45 1.3 -1.15 0.1 -4.55 1.4 Z" fill="none" stroke="#161616" stroke-linecap="round" stroke-linejoin="round" stroke-width="0.8500000000000001"/>
    <path d="M0.5 11.3 L1.1 10.5 4.95 10.1 7.05 14.4 4.05 16.3 2.1 13.55 0.7 13.55 0.5 11.3" fill="url(#gradient1)" fill-rule="evenodd" stroke="none"/>
    <path d="M2.1 10.55 L2.0 12.0 3.6 12.45 5.45 15.05" fill="none" stroke="#f4f5f7" stroke-linecap="round" stroke-linejoin="round" stroke-width="0.8500000000000001"/>
    <path d="M0.5 11.3 L1.1 10.5 4.95 10.1 7.05 14.4 4.05 16.3 2.1 13.55 0.7 13.55 0.5 11.3 Z" fill="none" stroke="#161616" stroke-linecap="round" stroke-linejoin="round" stroke-width="0.8500000000000001"/>
    <path d="M0.1 6.55 L-0.4 6.8 -0.85 6.55 -0.9 6.0 -0.45 5.7 0.05 5.95 0.1 6.55" fill="#232323" fill-rule="evenodd" stroke="none"/>
    <path d="M0.1 6.55 L-0.4 6.8 -0.85 6.55 -0.9 6.0 -0.45 5.7 0.05 5.95 0.1 6.55 Z" fill="none" stroke="#181818" stroke-linecap="round" stroke-linejoin="bevel" stroke-width="0.2"/>
    <path d="M1.2 8.15 L0.8 8.45 0.25 8.2 0.2 7.65 0.7 7.35 1.15 7.6 1.2 8.15" fill="#232323" fill-rule="evenodd" stroke="none"/>
    <path d="M1.2 8.15 L0.8 8.45 0.25 8.2 0.2 7.65 0.7 7.35 1.15 7.6 1.2 8.15 Z" fill="none" stroke="#181818" stroke-linecap="round" stroke-linejoin="bevel" stroke-width="0.2"/>
    <path d="M1.95 6.4 L1.5 6.7 0.95 6.45 0.95 5.9 1.4 5.55 1.9 5.85 1.95 6.4" fill="#232323" fill-rule="evenodd" stroke="none"/>
    <path d="M1.95 6.4 L1.5 6.7 0.95 6.45 0.95 5.9 1.4 5.55 1.9 5.85 1.95 6.4 Z" fill="none" stroke="#181818" stroke-linecap="round" stroke-linejoin="bevel" stroke-width="0.2"/>
  </g>
  <defs>
    <linearGradient gradientTransform="matrix(0.0047, -2.0E-4, 2.0E-4, 0.0047, -0.6, 6.5)" gradientUnits="userSpaceOnUse" id="gradient0" spreadMethod="pad" x1="-819.2" x2="819.2">
      <stop offset="0.0" stop-color="#2d2d2d"/>
      <stop offset="0.5686274509803921" stop-color="#484848"/>
      <stop offset="1.0" stop-color="#2d2d2d"/>
    </linearGradient>
    <linearGradient gradientTransform="matrix(0.0033, -5.0E-4, 5.0E-4, 0.0033, 3.55, 12.85)" gradientUnits="userSpaceOnUse" id="gradient1" spreadMethod="pad" x1="-819.2" x2="819.2">
      <stop offset="0.0" stop-color="#2d2d2d"/>
      <stop offset="0.5686274509803921" stop-color="#484848"/>
      <stop offset="1.0" stop-color="#2d2d2d"/>
    </linearGradient>
  </defs>
</svg>
