<?xml version="1.0" encoding="UTF-8" standalone="no"?>
<svg xmlns:ffdec="https://www.free-decompiler.com/flash" xmlns:xlink="http://www.w3.org/1999/xlink" ffdec:objectType="shape" height="27.6px" width="15.65px" xmlns="http://www.w3.org/2000/svg">
  <g transform="matrix(1.0, 0.0, 0.0, 1.0, 7.2, 10.1)">
    <path d="M-0.55 -6.55 L2.45 -4.75 Q5.45 -2.5 5.55 -0.3 5.85 4.75 4.5 7.25 L3.2 10.3 Q2.25 12.55 1.7 12.85 L0.35 13.55 Q0.65 3.6 0.25 1.05 -1.05 -4.4 -1.0 -5.3 L-0.75 -6.3 -0.55 -6.55" fill="#50afac" fill-rule="evenodd" stroke="none"/>
    <path d="M0.45 -5.5 L-0.1 -4.05 -0.35 -5.0 -0.6 -5.7 Q-0.75 -6.35 -0.15 -6.15 L2.65 -4.4 5.05 -2.15 Q5.85 -0.55 5.65 1.8 5.45 4.25 5.05 5.7 L3.25 10.5 Q2.8 11.6 1.15 12.85 L4.35 6.1 Q5.3 1.85 4.7 -0.7 4.35 -2.05 2.4 -3.9 L0.45 -5.5" fill="#86a2b8" fill-opacity="0.7294118" fill-rule="evenodd" stroke="none"/>
    <path d="M0.0 -4.1 L-0.35 -4.8 0.0 -5.1 Q0.4 -5.4 0.65 -5.3 L2.25 -4.35 4.05 -2.75 Q5.9 0.15 5.0 5.35 4.6 8.1 2.65 11.0 L0.75 13.35 Q0.8 12.25 1.15 11.4 L3.3 7.45 Q3.95 6.0 4.2 0.35 4.3 -1.7 3.15 -2.85 L2.0 -3.7 0.0 -4.1" fill="#cfe8fd" fill-opacity="0.6431373" fill-rule="evenodd" stroke="none"/>
    <path d="M-0.05 -3.65 L-0.25 -4.25 0.9 -4.0 Q2.3 -3.6 3.2 -2.5 4.3 -1.3 4.45 -0.4 L4.5 3.85 Q4.35 6.6 2.6 9.45 L0.95 11.75 0.7 11.2 2.45 8.4 3.3 5.3 Q3.95 2.25 3.9 0.05 3.8 -2.15 1.85 -3.1 L-0.05 -3.65" fill="#91ced1" fill-opacity="0.4509804" fill-rule="evenodd" stroke="none"/>
    <path d="M0.05 -5.05 L1.2 -4.55 Q2.45 -3.95 3.1 -3.05 L4.15 -1.6 4.8 0.5 4.8 3.15 Q5.0 5.55 3.05 9.4 L1.1 12.8 1.1 11.8 Q3.95 7.0 4.25 5.25 4.6 3.25 4.2 0.7 3.85 -1.6 3.05 -2.9 2.65 -3.6 1.3 -4.4 0.7 -4.7 0.05 -5.05" fill="#e2f1fd" fill-opacity="0.88235295" fill-rule="evenodd" stroke="none"/>
    <path d="M-0.1 -1.65 L1.45 -0.6 Q3.0 0.75 3.0 2.1 2.95 4.9 2.55 6.2 1.85 8.65 0.55 10.25 0.75 3.2 0.25 1.8 -0.1 0.9 -0.1 -0.45 L-0.1 -1.65" fill="#3f8a8b" fill-opacity="0.60784316" fill-rule="evenodd" stroke="none"/>
    <path d="M0.05 -1.65 L1.7 -0.85 Q3.35 0.35 3.3 2.3 3.25 5.6 2.15 7.15 1.65 8.0 1.1 8.1 L0.05 1.95 0.05 -1.65" fill="#368195" fill-opacity="0.45882353" fill-rule="evenodd" stroke="none"/>
    <path d="M0.4 0.4 L1.15 0.6 Q2.0 0.95 2.25 1.6 2.7 2.55 2.45 4.1 2.2 5.75 1.1 7.35 L0.3 8.55 -0.05 0.85 0.4 0.4" fill="#000000" fill-opacity="0.11372549" fill-rule="evenodd" stroke="none"/>
    <path d="M-0.55 -7.85 L0.1 -1.45 0.95 2.55 Q1.55 5.0 1.3 7.5 L0.75 12.5 Q-0.65 12.8 -0.8 12.3 -1.2 10.45 -2.95 6.5 -3.25 5.9 -4.85 4.75 L-6.4 3.3 Q-6.75 1.85 -6.55 0.4 L-6.0 -2.65 Q-5.6 -4.7 -3.0 -6.5 L-0.55 -7.85" fill="#605c82" fill-rule="evenodd" stroke="none"/>
    <path d="M-0.55 -7.85 L0.1 -1.45 0.95 2.55 Q1.55 5.0 1.3 7.5 L0.75 12.5 Q-0.65 12.8 -0.8 12.3 -1.2 10.45 -2.95 6.5 -3.25 5.9 -4.85 4.75 L-6.4 3.3 Q-6.75 1.85 -6.55 0.4 L-6.0 -2.65 Q-5.6 -4.7 -3.0 -6.5 L-0.55 -7.85 Z" fill="none" stroke="#443f47" stroke-linecap="butt" stroke-linejoin="miter-clip" stroke-miterlimit="15.12109375" stroke-width="1.0"/>
    <path d="M-0.9 -6.1 L2.15 -4.2 Q5.25 -1.95 5.65 0.15 5.95 2.0 5.8 4.3 5.7 5.4 4.9 7.15 L3.7 10.05 Q2.9 13.45 0.35 14.1 L0.05 14.45 0.45 13.05 Q0.9 11.5 1.1 8.2 1.3 5.05 1.1 3.4 L0.65 1.0 Q0.25 -0.15 0.3 -1.1 L-0.25 -4.25 -0.9 -6.1 Z" fill="none" stroke="#38504d" stroke-linecap="butt" stroke-linejoin="miter-clip" stroke-miterlimit="15.12109375" stroke-width="1.0"/>
    <path d="M0.3 -1.95 L2.8 -1.85 Q5.3 -1.55 5.55 -0.5 6.05 1.2 6.05 2.45 L1.35 2.95 1.15 6.8 4.3 7.75 3.75 9.85 0.85 10.65" fill="none" stroke="#375551" stroke-linecap="butt" stroke-linejoin="miter-clip" stroke-miterlimit="15.12109375" stroke-opacity="0.5529412" stroke-width="1.0"/>
    <path d="M-4.95 -4.6 L-6.05 -2.85 -6.05 -2.2 -6.0 -2.55 -4.95 -4.6 -3.75 -6.0 -4.65 -4.95 -4.95 -4.6 M-6.05 -2.2 Q-5.95 -1.75 -5.2 -1.5 -4.35 -1.9 -3.2 -1.5 L-1.2 -0.65 M2.6 -4.0 L3.95 -3.0 Q5.35 -1.65 5.75 0.5 6.25 2.75 5.85 4.45 L4.95 7.2 3.7 10.45 Q2.75 12.45 2.0 13.25 L0.7 14.45 0.0 12.75 -1.0 12.1 Q-1.15 10.95 -1.6 9.6 -2.45 6.9 -3.8 5.85 L-5.95 4.2 Q-6.6 3.7 -6.65 2.95 -6.8 0.3 -6.05 -2.2" fill="none" stroke="#000000" stroke-linecap="round" stroke-linejoin="round" stroke-opacity="0.25490198" stroke-width="1.0"/>
  </g>
</svg>
