<?xml version="1.0" encoding="UTF-8" standalone="no"?>
<svg xmlns:ffdec="https://www.free-decompiler.com/flash" xmlns:xlink="http://www.w3.org/1999/xlink" ffdec:objectType="shape" height="23.3px" width="16.4px" xmlns="http://www.w3.org/2000/svg">
  <g transform="matrix(1.0, 0.0, 0.0, 1.0, 5.15, 3.0)">
    <path d="M-1.0 -2.3 L-0.3 -2.3 Q0.6 -2.15 1.1 -1.55 1.95 -0.45 1.95 0.45 5.35 9.1 5.95 9.8 L7.9 13.35 Q9.4 16.4 9.35 17.0 9.2 17.8 6.85 14.95 7.65 17.75 7.45 17.85 L3.8 13.1 0.7 7.7 -2.05 2.7 -2.85 1.1 -3.15 0.35 Q-2.7 -1.15 -2.15 -1.75 L-1.4 -2.2 -1.0 -2.3" fill="#886a4d" fill-rule="evenodd" stroke="none"/>
    <path d="M-3.1 -1.05 L-0.9 -0.35 0.2 1.95 Q0.65 2.8 -0.25 3.4 L-1.95 4.4 Q-3.6 4.35 -4.0 2.7 -4.35 1.4 -3.8 -0.15 L-3.1 -1.05" fill="#f0c468" fill-rule="evenodd" stroke="none"/>
    <path d="M-2.6 -0.5 L-2.95 -0.1 Q-3.3 0.45 -3.0 1.25 L-0.55 5.55 Q2.0 10.1 4.7 14.35 L7.45 17.9 7.0 15.0 9.6 17.0 Q7.8 11.5 6.4 9.95 5.7 9.15 4.65 6.5 L3.15 2.45 2.35 1.0 Q1.7 -0.85 1.15 -1.5 L0.6 -2.1" ffdec:has-small-stroke="true" ffdec:original-stroke-width="0.95" fill="none" stroke="#584a38" stroke-linecap="round" stroke-linejoin="round" stroke-width="1.0"/>
    <path d="M-1.35 -2.0 L-0.7 -2.1 0.75 -1.95 2.4 -1.4 2.95 -0.55 Q3.25 0.35 2.5 1.15 L1.25 2.8 -4.35 4.9 Q-4.35 2.85 -4.5 1.8 -4.6 1.15 -4.0 0.45 L-2.9 -0.6 -1.35 -2.0" fill="#f0c468" fill-rule="evenodd" stroke="none"/>
    <path d="M-1.35 -2.0 L-0.7 -2.1 0.75 -1.95 2.4 -1.4 2.95 -0.55 Q3.25 0.35 2.5 1.15 L1.25 2.8 -4.35 4.9 Q-4.35 2.85 -4.5 1.8 -4.6 1.15 -4.0 0.45 L-2.9 -0.6 -1.35 -2.0 Z" ffdec:has-small-stroke="true" ffdec:original-stroke-width="0.95" fill="none" stroke="#5a4a38" stroke-linecap="butt" stroke-linejoin="miter-clip" stroke-miterlimit="4.0" stroke-width="1.0"/>
    <path d="M2.85 1.0 L4.5 2.05 5.5 3.0 Q5.75 3.55 5.65 4.5 L5.8 6.6 6.05 8.35 6.85 10.1 2.65 13.2 0.65 10.85 -1.0 8.05 -2.15 5.85 -0.1 3.25 2.85 1.0" fill="#dec68f" fill-rule="evenodd" stroke="none"/>
    <path d="M2.85 1.0 L-0.1 3.25 -2.15 5.85 -1.0 8.05 0.65 10.85 2.65 13.2 6.85 10.1 6.05 8.35 5.8 6.6 5.65 4.5 Q5.75 3.55 5.5 3.0 L4.5 2.05 2.85 1.0 Z" ffdec:has-small-stroke="true" ffdec:original-stroke-width="0.95" fill="none" stroke="#524934" stroke-linecap="butt" stroke-linejoin="miter-clip" stroke-miterlimit="4.0" stroke-width="1.0"/>
    <path d="M4.65 11.15 L5.65 12.15 Q6.7 13.0 7.15 13.05 L8.4 13.0 Q9.05 13.05 9.25 13.5 L10.15 15.4 11.1 17.95 Q11.2 19.0 9.5 19.65 L6.6 19.9 Q4.95 19.4 3.25 16.4 L1.8 13.05 Q-1.25 9.85 -2.1 8.65 L-4.25 5.3 Q-2.55 4.55 -0.9 3.65 L-0.2 3.6 2.1 2.6 3.2 5.0 2.85 8.0 4.8 11.15 4.65 11.15 4.5 11.0 3.5 11.1 3.85 11.05 4.65 11.15 M2.0 13.2 L2.0 12.4 2.15 12.0 Q1.5 12.9 2.0 13.2" fill="#cfac5d" fill-rule="evenodd" stroke="none"/>
    <path d="M2.85 14.9 L5.25 14.1 5.95 14.55 7.25 15.0 Q8.0 15.1 9.5 14.45" ffdec:has-small-stroke="true" ffdec:original-stroke-width="0.95" fill="none" stroke="#a4894b" stroke-linecap="round" stroke-linejoin="round" stroke-width="1.0"/>
    <path d="M8.9 13.15 L7.05 13.1 5.9 12.4 5.25 11.75 5.2 11.75 5.4 11.95 4.7 11.95 4.1 12.1 2.4 13.55 Q2.55 13.1 3.45 12.45 L4.1 12.1 4.25 11.95 4.85 11.75 5.2 11.75 Q2.5 9.0 2.85 7.0 3.25 4.65 1.5 2.15 L2.75 0.9 1.7 1.9 -0.25 3.15 -4.1 4.75" ffdec:has-small-stroke="true" ffdec:original-stroke-width="0.95" fill="none" stroke="#715e46" stroke-linecap="round" stroke-linejoin="round" stroke-width="1.0"/>
    <path d="M-4.55 1.1 Q-5.15 4.95 -3.05 7.35 -2.75 9.15 -0.85 10.85 0.2 11.8 2.3 13.35 L3.45 16.75 4.7 18.25 Q6.2 19.8 7.25 19.85 9.15 19.9 10.45 18.95 10.95 18.65 10.7 16.95 10.7 16.4 9.75 14.8 L8.75 13.2 8.0 12.75" ffdec:has-small-stroke="true" ffdec:original-stroke-width="0.95" fill="none" stroke="#524934" stroke-linecap="round" stroke-linejoin="round" stroke-width="1.0"/>
    <path d="M-2.7 7.05 L0.0 6.35 0.75 7.75 -2.4 9.2 -3.3 8.65 -3.55 7.8 -3.5 7.4 -2.7 7.05" fill="#4f79a1" fill-rule="evenodd" stroke="none"/>
    <path d="M-2.7 7.05 L0.0 6.35 0.75 7.75 -2.4 9.2 -3.3 8.65 -3.55 7.8 -3.5 7.4 -2.7 7.05 Z" ffdec:has-small-stroke="true" ffdec:original-stroke-width="0.95" fill="none" stroke="#252c4a" stroke-linecap="round" stroke-linejoin="round" stroke-width="1.0"/>
    <path d="M-0.3 10.3 L1.3 9.6 2.2 10.85 0.55 12.4 Q0.0 12.5 -0.55 12.0 L-0.9 11.2 -0.95 10.75 -0.3 10.3" fill="#4f79a1" fill-rule="evenodd" stroke="none"/>
    <path d="M-0.3 10.3 L1.3 9.6 2.2 10.85 0.55 12.4 Q0.0 12.5 -0.55 12.0 L-0.9 11.2 -0.95 10.75 -0.3 10.3 Z" ffdec:has-small-stroke="true" ffdec:original-stroke-width="0.95" fill="none" stroke="#252c4a" stroke-linecap="round" stroke-linejoin="round" stroke-width="1.0"/>
  </g>
</svg>
