<?xml version="1.0" encoding="UTF-8" standalone="no"?>
<svg xmlns:ffdec="https://www.free-decompiler.com/flash" xmlns:xlink="http://www.w3.org/1999/xlink" ffdec:objectType="shape" height="20.55px" width="15.25px" xmlns="http://www.w3.org/2000/svg">
  <g transform="matrix(1.0, 0.0, 0.0, 1.0, 6.45, 2.65)">
    <path d="M6.05 10.4 Q7.6 11.0 8.2 13.15 8.8 15.1 8.25 16.75 8.0 18.05 6.15 17.4 4.95 17.0 4.1 16.2 3.8 15.9 3.5 14.0 L3.3 12.2 3.8 12.2 6.05 10.4" fill="#1e1e1e" fill-rule="evenodd" stroke="none"/>
    <path d="M3.3 12.2 L3.5 14.0 Q3.8 15.9 4.1 16.2 4.95 17.0 6.15 17.4 8.0 18.05 8.25 16.75 8.8 15.1 8.2 13.15 7.6 11.0 6.05 10.4" fill="none" stroke="#000000" stroke-linecap="round" stroke-linejoin="round" stroke-width="0.6000000000000001"/>
    <path d="M-3.15 -1.75 L1.35 5.7 -1.9 10.1 Q-3.3 5.65 -4.8 3.85 -5.9 2.55 -5.95 1.1 -6.05 -0.7 -4.9 -1.65 L-3.15 -1.75" fill="#5a5a5a" fill-rule="evenodd" stroke="none"/>
    <path d="M-3.15 -1.75 L-1.15 -1.45 Q0.75 -1.0 2.0 0.2 L6.55 6.5 Q5.15 8.15 6.3 10.75 L3.8 12.2 1.25 12.3 -1.0 8.9 1.35 5.7 -3.15 -1.75" fill="#484d51" fill-rule="evenodd" stroke="none"/>
    <path d="M-1.15 -1.45 L-3.15 -1.75 -4.9 -1.65 Q-6.05 -0.7 -5.95 1.1 -5.9 2.55 -4.8 3.85 -3.3 5.65 -1.9 10.1 L-1.0 8.9 1.25 12.3 3.8 12.2 6.3 10.75 Q5.15 8.15 6.55 6.5 L2.0 0.3 Q0.8 -1.0 -1.15 -1.45 M1.35 5.7 L0.55 4.35" fill="none" stroke="#121212" stroke-linecap="round" stroke-linejoin="round" stroke-width="1.0"/>
    <path d="M6.55 6.5 L4.3 6.15 2.25 3.35 -0.35 2.9" fill="none" stroke="#333333" stroke-linecap="round" stroke-linejoin="round" stroke-width="1.0"/>
    <path d="M4.1 16.2 L8.5 15.05" fill="none" stroke="#252525" stroke-linecap="round" stroke-linejoin="round" stroke-width="0.6000000000000001"/>
    <path d="M0.55 4.35 L-3.15 -1.75" fill="none" stroke="#333333" stroke-linecap="round" stroke-linejoin="round" stroke-width="0.6000000000000001"/>
    <path d="M1.35 5.7 L-1.0 8.9" fill="none" stroke="#404040" stroke-linecap="round" stroke-linejoin="round" stroke-width="0.6000000000000001"/>
  </g>
</svg>
