<?xml version="1.0" encoding="UTF-8" standalone="no"?>
<svg xmlns:xlink="http://www.w3.org/1999/xlink" height="41.65px" width="23.45px" xmlns="http://www.w3.org/2000/svg">
  <g transform="matrix(1.0, 0.0, 0.0, 1.0, 13.0, 45.1)">
    <path d="M-11.6 -15.3 Q-12.6 -19.5 -12.45 -23.85 L-12.1 -27.4 -10.25 -25.8 -10.1 -21.5 -9.7 -15.7 -11.2 -15.25 -11.6 -15.3" fill="url(#gradient0)" fill-rule="evenodd" stroke="none"/>
    <path d="M-11.6 -15.3 Q-12.6 -19.5 -12.45 -23.85 L-12.1 -27.4" fill="none" stroke="#a87633" stroke-linecap="round" stroke-linejoin="round" stroke-width="1.0"/>
    <path d="M2.95 -27.8 L2.85 -26.75 2.95 -27.8 Q4.3 -27.4 5.25 -26.7 L1.45 -25.5 0.35 -17.45 -3.0 -17.8 -2.15 -25.75 -5.55 -27.4 Q-3.65 -28.3 -1.7 -28.45 L-0.2 -28.45 -0.2 -27.25 -0.2 -28.45 1.6 -28.25 2.15 -28.1 2.95 -27.8 M1.2 -27.05 Q1.35 -27.85 1.6 -28.25 1.35 -27.85 1.2 -27.05 M6.35 -10.9 L6.1 -9.5 Q5.55 -7.0 5.05 -6.0 -2.5 -1.7 -5.55 -6.5 -5.7 -9.75 -6.0 -11.8 L-5.6 -11.95 -4.75 -12.2 -3.5 -15.3 0.15 -14.85 2.8 -9.5 Q4.5 -9.9 6.35 -10.9 M-2.1 -27.5 L-1.7 -28.45 -2.1 -27.5 M-2.3 -12.7 L-0.7 -12.7 0.55 -9.85 -0.7 -12.7 -2.3 -12.7" fill="#4d4844" fill-rule="evenodd" stroke="none"/>
    <path d="M5.25 -26.7 L6.5 -27.05 6.95 -25.9 5.55 -25.3 6.95 -25.9 8.5 -21.95 8.55 -21.45 8.7 -17.4 8.75 -15.75 7.8 -11.85 6.55 -11.0 6.35 -10.9 Q4.5 -9.9 2.8 -9.5 L0.15 -14.85 -3.5 -15.3 -4.75 -12.2 -5.6 -11.95 -6.0 -11.8 -6.6 -11.25 -7.75 -11.1 -9.45 -11.15 Q-8.4 -11.85 -7.5 -13.4 L-6.8 -14.85 -7.7 -16.0 Q-8.05 -17.2 -8.1 -21.6 L-8.05 -25.75 -6.25 -27.7 -5.55 -27.4 -2.15 -25.75 -3.0 -17.8 0.35 -17.45 1.45 -25.5 5.25 -26.7 M7.4 -21.05 L8.55 -21.45 7.4 -21.05 M5.55 -15.7 L5.55 -19.05 5.55 -15.7 M6.8 -15.75 L6.8 -18.5 6.8 -15.75" fill="#836d5f" fill-rule="evenodd" stroke="none"/>
    <path d="M-9.45 -11.15 Q-11.55 -12.75 -12.1 -15.0 L-9.7 -15.7 -10.1 -21.5 -10.25 -25.8 -12.5 -27.7 -11.0 -29.45 -6.8 -29.45 -6.25 -27.7 -8.05 -25.75 -8.1 -21.6 Q-8.05 -17.2 -7.7 -16.0 L-6.8 -14.85 -7.5 -13.4 Q-8.4 -11.85 -9.45 -11.15" fill="#97856f" fill-rule="evenodd" stroke="none"/>
    <path d="M2.85 -26.75 L2.95 -27.8 Q2.85 -28.4 2.4 -28.6 1.9 -28.75 1.6 -28.25 1.35 -27.85 1.2 -27.05 M-1.7 -28.45 Q-1.2 -29.3 -0.75 -29.15 -0.35 -29.05 -0.2 -28.45 L-0.2 -27.25 M-1.7 -28.45 L-2.1 -27.5" fill="none" stroke="#433a33" stroke-linecap="round" stroke-linejoin="round" stroke-width="1.0"/>
    <path d="M2.95 -27.8 L2.15 -28.1 1.6 -28.25 -0.2 -28.45 -1.7 -28.45 Q-3.65 -28.3 -5.55 -27.4 M2.95 -27.8 Q4.3 -27.4 5.25 -26.7 M6.35 -10.9 L6.1 -9.5 Q5.55 -7.0 5.05 -6.0 -2.5 -1.7 -5.55 -6.5 -5.7 -9.75 -6.0 -11.8 M-12.1 -15.0 L-9.7 -15.7 -10.1 -21.5 -10.25 -25.8 -12.5 -27.7 M-11.0 -29.45 L-12.2 -43.05 M0.55 -9.85 L-0.7 -12.7 -2.3 -12.7" fill="none" stroke="#2b2a29" stroke-linecap="round" stroke-linejoin="round" stroke-width="1.0"/>
    <path d="M5.25 -26.7 L6.5 -27.05 M6.95 -25.9 Q8.35 -26.4 8.6 -25.9 L9.9 -23.1 Q10.2 -22.3 8.8 -21.6 L8.55 -21.45 7.4 -21.05 M7.8 -11.85 L6.55 -11.0 6.35 -10.9 Q4.5 -9.9 2.8 -9.5 L0.15 -14.85 -3.5 -15.3 -4.75 -12.2 -5.6 -11.95 -6.0 -11.8 -6.6 -11.25 -7.75 -11.1 -9.45 -11.15 Q-11.55 -12.75 -12.1 -15.0 M6.95 -25.9 L5.55 -25.3 M-5.55 -27.4 L-2.15 -25.75 -3.0 -17.8 0.35 -17.45 1.45 -25.5 5.25 -26.7 M-6.25 -27.7 L-5.55 -27.4" fill="none" stroke="#473d36" stroke-linecap="round" stroke-linejoin="round" stroke-width="1.0"/>
    <path d="M6.5 -27.05 L6.95 -25.9 8.5 -21.95 8.55 -21.45 8.7 -17.4 M8.75 -15.75 L7.8 -11.85 M-12.5 -27.7 L-11.0 -29.45 -6.8 -29.45 -6.25 -27.7 -8.05 -25.75 -8.1 -21.6 Q-8.05 -17.2 -7.7 -16.0 L-6.8 -14.85 -7.5 -13.4 Q-8.4 -11.85 -9.45 -11.15 M6.8 -18.5 L6.8 -15.75 M5.55 -19.05 L5.55 -15.7" fill="none" stroke="#655347" stroke-linecap="round" stroke-linejoin="round" stroke-width="1.0"/>
    <path d="M8.7 -17.4 L8.75 -15.75" fill="none" stroke="#ecbe3e" stroke-linecap="round" stroke-linejoin="round" stroke-width="1.0"/>
    <path d="M-12.2 -43.05 L-12.3 -44.5" fill="none" stroke="#ecbe3e" stroke-linecap="round" stroke-linejoin="round" stroke-width="1.2000000000000002"/>
  </g>
  <defs>
    <linearGradient gradientTransform="matrix(-0.0022, 0.0, 0.0, 0.0022, -10.65, -21.2)" gradientUnits="userSpaceOnUse" id="gradient0" spreadMethod="pad" x1="-819.2" x2="819.2">
      <stop offset="0.0" stop-color="#9d6837"/>
      <stop offset="0.00392156862745098" stop-color="#9d6837"/>
      <stop offset="0.2235294117647059" stop-color="#9f6b38"/>
      <stop offset="0.396078431372549" stop-color="#a67439"/>
      <stop offset="0.5529411764705883" stop-color="#b2833b"/>
      <stop offset="0.6980392156862745" stop-color="#c2993d"/>
      <stop offset="0.8196078431372549" stop-color="#d7b53e"/>
      <stop offset="1.0" stop-color="#d7b53e"/>
    </linearGradient>
  </defs>
</svg>
