<?xml version="1.0" encoding="UTF-8" standalone="no"?>
<svg xmlns:ffdec="https://www.free-decompiler.com/flash" xmlns:xlink="http://www.w3.org/1999/xlink" ffdec:objectType="shape" height="18.15px" width="11.45px" xmlns="http://www.w3.org/2000/svg">
  <g transform="matrix(1.0, 0.0, 0.0, 1.0, 0.5, 0.5)">
    <path d="M1.5 7.15 Q0.85 6.7 0.2 5.0 -0.1 4.0 0.1 2.8 L0.3 3.15 0.85 4.05 1.1 4.4 1.25 4.55 Q1.85 5.3 2.4 5.5 L3.4 5.65 3.8 5.4 4.15 5.1 Q4.65 4.6 4.55 3.8 L4.35 3.05 4.05 2.6 4.05 2.5 3.9 2.2 2.65 0.75 2.95 0.3 3.1 0.2 3.55 0.05 3.95 0.0 4.05 0.05 Q4.5 -0.1 5.35 1.35 6.15 2.8 6.2 3.45 L5.95 5.75 6.0 6.8 5.8 8.1 5.5 9.05 4.3 7.9 3.35 7.35 1.5 7.15" fill="#3b2323" fill-rule="evenodd" stroke="none"/>
    <path d="M6.2 3.45 L7.1 2.9 8.1 6.25 Q8.35 8.65 9.7 11.65 L8.85 11.55 8.05 11.95 8.0 11.95 Q7.15 12.35 6.8 13.05 L6.75 13.15 5.95 12.3 5.15 11.4 5.05 11.3 1.5 7.15 3.35 7.35 4.3 7.9 5.5 9.05 5.8 8.1 6.0 6.8 5.95 5.75 6.2 3.45" fill="#211313" fill-rule="evenodd" stroke="none"/>
    <path d="M9.7 11.65 L10.1 12.3 10.4 13.2 Q10.6 14.25 10.2 15.3 L8.6 17.15 8.45 17.15 7.45 16.55 Q6.9 16.1 7.05 15.05 L7.05 15.0 7.45 14.45 Q7.9 13.55 8.25 14.05 L8.3 14.1 10.2 15.3 8.3 14.1 8.25 14.05 Q7.9 13.55 7.45 14.45 L7.05 15.0 7.0 15.0 6.75 14.3 Q6.55 13.7 6.75 13.15 L6.8 13.05 Q7.15 12.35 8.0 11.95 L8.05 11.95 8.85 11.55 9.7 11.65 M0.1 2.8 Q0.4 0.6 2.65 0.75 L3.9 2.2 4.05 2.5 4.05 2.6 4.35 3.05 4.55 3.8 Q4.65 4.6 4.15 5.1 L3.8 5.4 3.4 5.65 2.4 5.5 Q1.85 5.3 1.25 4.55 L1.1 4.4 0.85 4.05 0.3 3.15 0.1 2.8 M3.05 4.1 L2.2 2.9 3.05 4.1" fill="#141414" fill-rule="evenodd" stroke="none"/>
    <path d="M6.2 3.45 L7.1 2.9 8.1 6.25 Q8.35 8.65 9.7 11.65 M6.75 13.15 L5.95 12.3 5.15 11.4 5.05 11.3 1.5 7.15 Q0.85 6.7 0.2 5.0 -0.1 4.0 0.1 2.8 M2.65 0.75 L2.95 0.3 3.1 0.2 3.55 0.05 3.95 0.0 4.05 0.05 Q4.5 -0.1 5.35 1.35 6.15 2.8 6.2 3.45 L5.95 5.75 6.0 6.8 5.8 8.1 5.5 9.05 4.3 7.9 3.35 7.35 1.5 7.15" fill="none" stroke="#0e0808" stroke-linecap="round" stroke-linejoin="round" stroke-width="1.0"/>
    <path d="M9.7 11.65 L10.1 12.3 10.4 13.2 Q10.6 14.25 10.2 15.3 L8.6 17.15 8.45 17.15 7.45 16.55 Q6.9 16.1 7.05 15.05 L7.0 15.0 6.75 14.3 Q6.55 13.7 6.75 13.15 L6.8 13.05 Q7.15 12.35 8.0 11.95 L8.05 11.95 8.85 11.55 9.7 11.65 M0.1 2.8 Q0.4 0.6 2.65 0.75 L3.9 2.2 4.05 2.5 4.05 2.6 4.35 3.05 4.55 3.8 Q4.65 4.6 4.15 5.1 L3.8 5.4 3.4 5.65 2.4 5.5 Q1.85 5.3 1.25 4.55 L1.1 4.4 0.85 4.05 0.3 3.15 0.1 2.8 M7.05 15.0 L7.45 14.45 Q7.9 13.55 8.25 14.05 L8.3 14.1 10.2 15.3 M7.05 15.05 L7.05 15.0" fill="none" stroke="#0a0a0a" stroke-linecap="round" stroke-linejoin="round" stroke-width="1.0"/>
    <path d="M2.2 2.9 L3.05 4.1" fill="none" stroke="#ff094f" stroke-linecap="round" stroke-linejoin="round" stroke-width="1.0"/>
  </g>
</svg>
