<?xml version="1.0" encoding="UTF-8" standalone="no"?>
<svg xmlns:ffdec="https://www.free-decompiler.com/flash" xmlns:xlink="http://www.w3.org/1999/xlink" ffdec:objectType="shape" height="24.0px" width="17.25px" xmlns="http://www.w3.org/2000/svg">
  <g transform="matrix(1.0, 0.0, 0.0, 1.0, 12.25, 6.9)">
    <path d="M-8.35 -2.95 L-7.95 -3.0 Q-6.15 -5.55 -3.0 -5.2 L-0.5 -4.45 Q0.65 -3.85 1.3 -3.25 1.5 -2.95 1.3 -2.05 1.05 -1.35 1.45 -1.5 2.05 -0.15 1.95 3.3 L1.7 11.15 1.45 13.35 0.25 14.7 Q-1.2 15.7 -3.7 15.25 -6.05 14.85 -6.65 13.65 L-6.95 11.0 Q-7.15 9.1 -7.4 8.55 -8.25 6.65 -8.5 4.15 L-8.85 -0.05 -8.85 -1.05 Q-8.85 -2.05 -8.4 -2.8 L-8.35 -2.95 Q-8.85 -2.9 -8.5 -3.15 -7.95 -3.65 -8.35 -2.95" fill="#282828" fill-rule="evenodd" stroke="none"/>
    <path d="M0.5 3.45 Q-0.55 1.3 0.45 3.5 1.5 5.85 0.5 3.45" fill="none" stroke="#171717" stroke-linecap="butt" stroke-linejoin="miter-clip" stroke-miterlimit="15.12109375" stroke-width="1.0"/>
    <path d="M-8.35 -2.95 L-7.95 -3.0 Q-6.15 -5.55 -3.0 -5.2 L-0.5 -4.45 Q0.65 -3.85 1.3 -3.25 1.5 -2.95 1.3 -2.05 1.05 -1.35 1.45 -1.5 2.05 -0.15 1.95 3.3 L1.7 11.15 1.45 13.35 0.25 14.7 Q-1.2 15.7 -3.7 15.25 -6.05 14.85 -6.65 13.65 L-6.95 11.0 Q-7.15 9.1 -7.4 8.55 -8.25 6.65 -8.5 4.15 L-8.85 -0.05 -8.85 -1.05 Q-8.85 -2.05 -8.4 -2.8 L-8.35 -2.95 Q-8.85 -2.9 -8.5 -3.15 -7.95 -3.65 -8.35 -2.95" fill="none" stroke="#171717" stroke-linecap="round" stroke-linejoin="miter-clip" stroke-miterlimit="15.12109375" stroke-width="1.0"/>
    <path d="M-6.15 -3.0 Q-4.85 0.1 -4.65 -1.15 -4.55 -1.65 -2.05 -1.95 0.55 -2.35 2.55 -2.0 3.5 -1.8 3.75 -0.6 L4.05 0.9 Q4.65 2.05 -0.05 4.6 L-6.8 7.75 Q-8.25 8.4 -8.95 6.7 -9.5 5.55 -9.6 3.5 -9.55 3.35 -7.65 2.5 L-5.7 1.65 -7.6 2.45 -9.6 3.3 Q-9.2 3.0 -9.3 2.05 -9.4 0.85 -9.0 -0.05 L-7.75 -1.5 -6.15 -3.0" fill="#5c5753" fill-rule="evenodd" stroke="none"/>
    <path d="M-6.15 -3.0 Q-4.85 0.1 -4.65 -1.15 -4.55 -1.65 -2.05 -1.95 0.55 -2.35 2.55 -2.0 3.5 -1.8 3.75 -0.6 L4.05 0.9 Q4.65 2.05 -0.05 4.6 L-6.8 7.75 Q-8.25 8.4 -8.95 6.7 -9.5 5.55 -9.6 3.5 -9.55 3.35 -7.65 2.5 L-5.7 1.65 -7.6 2.45 -9.6 3.3 Q-9.2 3.0 -9.3 2.05 -9.4 0.85 -9.0 -0.05 L-7.75 -1.5 -6.15 -3.0 Z" fill="none" stroke="#413d3b" stroke-linecap="round" stroke-linejoin="round" stroke-width="1.0"/>
    <path d="M0.35 5.1 L3.1 3.3 4.4 5.45 4.5 7.75 3.2 12.85 1.85 15.4 -0.6 13.55 -2.5 11.1 -7.5 10.25 -7.75 8.85 -0.95 8.4 0.25 6.9 0.35 5.1" fill="#5c5753" fill-rule="evenodd" stroke="none"/>
    <path d="M0.35 5.1 L3.1 3.3 4.4 5.45 4.5 7.75 3.2 12.85 1.85 15.4 -0.6 13.55 -2.5 11.1 -7.5 10.25 -7.75 8.85 -0.95 8.4 0.25 6.9 0.35 5.1 Z" fill="none" stroke="#413d3b" stroke-linecap="round" stroke-linejoin="round" stroke-width="1.0"/>
    <path d="M-4.2 -1.2 L-4.15 4.9 -5.75 6.8 -8.6 6.75 -10.8 4.95 -10.25 -2.3 -8.65 -3.3 -4.35 -2.65 -4.2 -1.2" fill="#7b756f" fill-rule="evenodd" stroke="none"/>
    <path d="M-4.2 -1.2 L-4.35 -2.65 -8.65 -3.3 -10.25 -2.3 -10.8 4.95 -8.6 6.75 -5.75 6.8 -4.15 4.9 -4.2 -1.2 Z" fill="none" stroke="#484440" stroke-linecap="round" stroke-linejoin="round" stroke-width="1.0"/>
    <path d="M-10.25 -2.3 L-8.05 -0.85 -8.2 3.15 -10.75 4.95 -11.65 3.55 -11.4 -0.6 -10.25 -2.3" fill="#7b756f" fill-rule="evenodd" stroke="none"/>
    <path d="M-10.25 -2.3 L-8.05 -0.85 -8.2 3.15 -10.75 4.95 -11.65 3.55 -11.4 -0.6 -10.25 -2.3 Z" fill="none" stroke="#5b5958" stroke-linecap="round" stroke-linejoin="round" stroke-width="1.0"/>
    <path d="M3.5 10.7 L3.85 11.75 3.1 14.9 2.25 15.9 0.2 14.05 1.25 11.25 3.5 10.7" fill="#5c5753" fill-rule="evenodd" stroke="none"/>
    <path d="M3.5 10.7 L3.85 11.75 3.1 14.9 2.25 15.9 0.2 14.05 1.25 11.25 3.5 10.7 Z" fill="none" stroke="#3d3b3a" stroke-linecap="round" stroke-linejoin="round" stroke-width="1.0"/>
    <path d="M-4.55 1.05 Q1.6 -1.15 1.85 -1.45 3.2 -2.65 3.45 -1.7 L4.1 1.45 3.55 2.2 Q2.95 2.85 3.0 3.05 L3.6 4.05 Q4.2 4.9 4.2 5.35 L4.45 8.45 3.65 10.75 3.75 11.2 3.75 11.9 3.6 12.85 3.25 14.35 Q2.85 14.95 0.85 15.1 L-2.7 14.9 -4.6 14.75 Q-5.75 14.7 -6.55 14.05 -6.85 13.8 -6.75 12.9 -6.6 12.05 -6.95 11.6 L-7.4 10.45 -7.65 9.45 -7.85 7.85 Q-8.05 7.15 -8.85 6.4 L-9.6 6.15 -10.35 5.8 -11.25 4.3 -11.75 3.25 Q-11.75 0.25 -11.3 -0.8 -10.6 -2.25 -9.8 -2.8 L-7.2 -4.0" fill="none" stroke="#000000" stroke-linecap="round" stroke-linejoin="round" stroke-opacity="0.2" stroke-width="1.0"/>
  </g>
</svg>
