<?xml version="1.0" encoding="UTF-8" standalone="no"?>
<svg xmlns:ffdec="https://www.free-decompiler.com/flash" xmlns:xlink="http://www.w3.org/1999/xlink" ffdec:objectType="shape" height="21.6px" width="17.35px" xmlns="http://www.w3.org/2000/svg">
  <g transform="matrix(1.0, 0.0, 0.0, 1.0, 5.6, 2.9)">
    <path d="M4.3 12.6 L9.0 10.75 Q10.75 11.55 10.6 12.85 L10.1 13.65 11.2 15.35 Q11.55 16.35 11.2 17.7 L8.2 18.2 5.1 18.1 4.15 15.55 Q3.75 14.0 4.3 12.6" fill="#1c1f28" fill-rule="evenodd" stroke="none"/>
    <path d="M4.3 12.6 Q3.75 14.0 4.15 15.55 L5.1 18.1 8.2 18.2 11.2 17.7 Q11.55 16.35 11.2 15.35 L10.1 13.65 10.6 12.85 Q10.75 11.55 9.0 10.75" ffdec:has-small-stroke="true" ffdec:original-stroke-width="0.8" fill="none" stroke="#030508" stroke-linecap="round" stroke-linejoin="round" stroke-width="1.0"/>
    <path d="M6.55 0.95 Q7.9 8.15 8.65 10.7 L7.3 11.75 4.35 11.1 1.0 11.3 -2.3 7.5 -2.0 6.6 -2.55 5.15 -2.2 3.4 5.1 0.5 6.55 0.95" fill="#121619" fill-rule="evenodd" stroke="none"/>
    <path d="M6.55 0.95 L7.45 4.8 7.25 5.8 7.45 6.85 8.0 7.55 8.65 10.7 7.35 11.75 4.45 11.1 1.05 11.25 -2.3 7.5 -2.0 6.6 -2.5 5.15 -2.2 3.4 5.1 0.5 6.55 0.95 Z" ffdec:has-small-stroke="true" ffdec:original-stroke-width="0.8" fill="none" stroke="#000000" stroke-linecap="round" stroke-linejoin="round" stroke-width="1.0"/>
    <path d="M-0.35 0.05 L0.3 -1.0 4.5 -2.5 5.0 -2.2 6.5 0.3 6.5 0.9 3.55 2.7 0.95 1.9 -0.35 0.05" fill="#0d1012" fill-rule="evenodd" stroke="none"/>
    <path d="M-0.35 0.05 L0.3 -1.0 4.5 -2.5 5.0 -2.2 6.5 0.3 6.5 0.9 3.55 2.7 0.95 1.9 -0.35 0.05 Z" ffdec:has-small-stroke="true" ffdec:original-stroke-width="0.8" fill="none" stroke="#000000" stroke-linecap="round" stroke-linejoin="round" stroke-width="1.0"/>
    <path d="M-4.7 -0.15 Q-4.0 -3.55 -0.6 -1.4 L0.15 -0.15 3.1 1.35 4.65 6.1 3.55 7.25 4.9 10.4 2.35 10.6 -2.1 4.85 -3.3 5.25 -5.1 3.45 -5.2 1.35 Q-5.25 0.4 -4.7 -0.15" fill="url(#gradient0)" fill-rule="evenodd" stroke="none"/>
    <path d="M-1.65 4.85 L-0.55 3.9 0.4 5.25 -0.8 6.0 -1.65 4.85" fill="#f8e9cc" fill-rule="evenodd" stroke="none"/>
    <path d="M-4.1 -0.6 L-3.75 2.7 -2.1 4.25 -2.3 4.9 -3.1 5.15 -5.2 3.35 Q-5.55 1.85 -5.1 0.65 -5.25 -0.55 -4.4 -0.7 L-4.1 -0.6" fill="#d2941d" fill-opacity="0.22745098" fill-rule="evenodd" stroke="none"/>
    <path d="M0.1 5.55 L3.2 9.3 2.5 9.9 -0.1 7.0 -0.7 5.6 0.1 5.55" fill="#d2941d" fill-opacity="0.39215687" fill-rule="evenodd" stroke="none"/>
    <path d="M0.45 7.6 L1.55 6.8 2.35 8.1 1.35 8.75 0.45 7.6" fill="#f8e9cc" fill-rule="evenodd" stroke="none"/>
    <path d="M0.9 8.7 L2.35 10.6 4.9 10.4 3.55 7.25 4.65 6.1 3.1 1.35 0.15 -0.15 -0.6 -1.4 Q-3.55 -3.75 -4.9 -0.35 -5.25 0.85 -5.2 1.65 L-5.1 3.45 -3.3 5.25 -2.1 4.85 M-1.2 6.0 L-0.1 7.4" ffdec:has-small-stroke="true" ffdec:original-stroke-width="0.8" fill="none" stroke="#070b0e" stroke-linecap="round" stroke-linejoin="round" stroke-width="1.0"/>
    <path d="M-1.65 4.85 L-0.8 6.0 0.4 5.25" ffdec:has-small-stroke="true" ffdec:original-stroke-width="0.3" fill="none" stroke="#e18c25" stroke-linecap="round" stroke-linejoin="round" stroke-opacity="0.69803923" stroke-width="1.0"/>
    <path d="M0.45 7.6 L1.35 8.75 2.35 8.1" ffdec:has-small-stroke="true" ffdec:original-stroke-width="0.3" fill="none" stroke="#e18c25" stroke-linecap="round" stroke-linejoin="round" stroke-opacity="0.69803923" stroke-width="1.0"/>
    <path d="M1.85 10.55 L2.5 9.7 6.6 9.15 9.1 13.7 5.8 15.8 3.6 12.9 2.1 12.9 1.85 10.55" fill="url(#gradient1)" fill-rule="evenodd" stroke="none"/>
    <path d="M2.15 12.7 L1.85 12.65 1.6 10.5 2.45 9.75 3.2 9.4 4.7 9.5 3.45 10.35 2.15 12.7" fill="#d2941d" fill-opacity="0.20784314" fill-rule="evenodd" stroke="none"/>
    <path d="M1.85 10.55 L2.5 9.7 6.6 9.15 9.1 13.7 5.8 15.8 3.6 12.9 2.1 12.9 1.85 10.55 Z" ffdec:has-small-stroke="true" ffdec:original-stroke-width="0.8" fill="none" stroke="#070b0e" stroke-linecap="round" stroke-linejoin="round" stroke-width="1.0"/>
    <path d="M-1.8 4.85 L-0.7 3.9 0.25 5.25" ffdec:has-small-stroke="true" ffdec:original-stroke-width="0.3" fill="none" stroke="#ae6410" stroke-linecap="round" stroke-linejoin="round" stroke-opacity="0.6509804" stroke-width="1.0"/>
    <path d="M0.45 7.6 L1.55 6.8 2.35 8.1" ffdec:has-small-stroke="true" ffdec:original-stroke-width="0.3" fill="none" stroke="#ae6410" stroke-linecap="round" stroke-linejoin="round" stroke-opacity="0.6" stroke-width="1.0"/>
  </g>
  <defs>
    <linearGradient gradientTransform="matrix(0.0041, -4.0E-4, 4.0E-4, 0.004, 0.8, 4.85)" gradientUnits="userSpaceOnUse" id="gradient0" spreadMethod="pad" x1="-819.2" x2="819.2">
      <stop offset="0.0" stop-color="#282716"/>
      <stop offset="0.5686274509803921" stop-color="#1d2831"/>
      <stop offset="1.0" stop-color="#0b1317"/>
    </linearGradient>
    <linearGradient gradientTransform="matrix(6.0E-4, 0.0034, -0.0034, 6.0E-4, 5.15, 12.2)" gradientUnits="userSpaceOnUse" id="gradient1" spreadMethod="pad" x1="-819.2" x2="819.2">
      <stop offset="0.0" stop-color="#192b34"/>
      <stop offset="0.43137254901960786" stop-color="#1d2831"/>
      <stop offset="1.0" stop-color="#26200e"/>
    </linearGradient>
  </defs>
</svg>
