<?xml version="1.0" encoding="UTF-8" standalone="no"?>
<svg xmlns:ffdec="https://www.free-decompiler.com/flash" xmlns:xlink="http://www.w3.org/1999/xlink" ffdec:objectType="shape" height="21.75px" width="15.55px" xmlns="http://www.w3.org/2000/svg">
  <g transform="matrix(1.0, 0.0, 0.0, 1.0, 6.0, 1.8)">
    <path d="M1.35 0.1 Q3.05 2.85 6.5 10.7 L6.1 10.6 Q5.25 10.4 4.95 11.15 4.15 11.25 1.4 5.85 -0.85 1.4 -0.65 2.9 L-1.45 2.4 -0.65 2.3 Q1.3 2.0 1.35 0.1" fill="#687d84" fill-rule="evenodd" stroke="none"/>
    <path d="M6.1 12.7 Q8.15 13.2 8.6 14.85 9.0 16.25 8.15 17.7 7.3 19.1 6.25 19.05 5.2 19.1 4.8 17.0 4.7 15.15 5.1 14.25 L6.1 12.7" fill="#2a1439" fill-rule="evenodd" stroke="none"/>
    <path d="M-3.25 7.95 Q-5.15 7.2 -5.45 4.85 -5.8 2.6 -4.5 1.0 L-3.8 2.0 -2.2 7.35 -3.25 7.95" fill="#6b489a" fill-rule="evenodd" stroke="none"/>
    <path d="M-4.65 0.65 Q-3.75 0.65 -3.25 0.2 L-2.2 -1.05 Q-0.85 -1.05 0.5 -0.4 L3.1 0.95 -0.2 2.95 Q0.7 3.85 3.4 8.45 5.05 11.25 7.2 11.2 L7.65 12.7 5.5 14.4 Q4.4 15.4 4.05 15.4 3.4 15.4 2.55 14.35 1.7 13.2 0.0 13.05 L-0.8 9.6 Q-2.05 7.95 -3.05 5.3 L-4.65 0.65" fill="#0f172a" fill-rule="evenodd" stroke="none"/>
    <path d="M5.6 3.15 L6.1 6.95 7.5 10.8 5.15 10.95 Q2.4 8.25 -0.1 2.0 1.6 1.15 3.7 1.15 L4.35 2.3 5.6 3.15" fill="#463bb9" fill-opacity="0.4745098" fill-rule="evenodd" stroke="none"/>
    <path d="M-3.55 0.9 Q-2.25 -0.25 -2.6 -1.05 L-1.65 -1.2 -0.85 -1.15 Q0.2 -0.7 0.6 -0.6 L1.4 -0.1 3.55 0.95 1.95 1.05 -0.45 2.95 2.3 5.85 3.2 8.9 Q3.65 10.15 5.2 11.15 L5.45 10.95 6.2 10.9 Q6.9 10.8 7.15 11.15 7.95 12.0 7.9 13.0 8.8 14.3 8.85 15.45 8.9 16.35 8.45 17.65 8.35 17.7 8.15 17.85 7.85 18.0 7.8 18.15 L7.75 18.35 7.2 19.35 Q6.85 19.6 5.35 18.7 L4.85 17.05 4.25 16.15 Q3.9 15.9 3.3 14.9 L2.35 13.6 Q0.3 14.25 -0.5 12.35 -1.25 10.35 -0.3 10.1 L-1.9 7.7 Q-2.05 7.4 -2.05 7.85 -2.0 8.35 -2.25 8.3 -4.8 7.45 -5.3 5.2 -5.7 3.1 -4.35 0.6 L-3.5 2.0 Q-4.15 3.75 -3.75 4.9 -3.5 5.7 -2.05 7.45 L-3.75 4.8 Q-2.4 4.15 1.95 1.05 M7.75 18.35 L6.9 18.1 Q6.1 18.0 5.7 17.7 5.25 17.45 4.9 16.7 L4.55 15.95 Q4.45 14.2 5.65 13.55 6.25 13.2 7.9 13.0 M5.2 11.15 L2.6 13.35 Q3.4 12.4 2.8 11.0 2.2 9.5 0.25 9.85" fill="none" stroke="#080815" stroke-linecap="round" stroke-linejoin="round" stroke-width="1.0"/>
    <path d="M3.45 1.0 L4.05 2.15 4.8 2.65 5.5 3.15 5.85 5.9 5.85 6.35 Q7.5 10.6 7.3 11.0 7.2 11.15 6.85 9.75 L6.05 7.25 4.9 6.3 3.55 5.7 2.7 5.85 2.35 6.05" fill="none" stroke="#090909" stroke-linecap="round" stroke-linejoin="round" stroke-opacity="0.3019608" stroke-width="1.0"/>
    <path d="M5.6 18.65 L4.15 16.05 2.9 14.4 2.45 13.55 Q0.7 14.25 0.0 13.1 L-0.6 12.05 -0.75 11.25 -0.65 10.35 -0.4 9.95 -1.8 7.95 -2.65 8.05 Q-3.8 7.95 -4.6 6.7 -5.4 5.45 -5.5 4.5 L-5.35 3.2 -5.05 1.95 -4.5 0.8 -3.8 1.25 -3.05 0.2 -2.4 -0.9 -1.8 -1.2 -0.15 -1.1 Q0.95 -0.55 2.15 -0.05 L3.6 1.3 4.2 2.45 5.45 3.25 6.0 6.75 8.1 12.95 8.65 14.15 9.05 15.7 8.65 17.05 8.2 18.0 7.75 18.8 7.3 19.45 7.15 19.4 5.7 18.8 5.6 18.75 5.6 18.65 5.7 18.35 7.05 18.85 7.05 19.2 7.15 19.4 M5.6 18.65 L5.7 18.8" fill="none" stroke="#000000" stroke-linecap="round" stroke-linejoin="round" stroke-opacity="0.45490196" stroke-width="1.0"/>
    <path d="M-0.9 7.35 L0.2 7.0 M2.75 3.05 L3.5 3.25 M5.3 9.85 L5.65 9.85 M0.1 9.05 L0.7 8.85 M4.75 8.0 L5.3 8.1" fill="none" stroke="#c7c3ff" stroke-linecap="round" stroke-linejoin="miter-clip" stroke-miterlimit="4.0" stroke-width="1.0"/>
  </g>
</svg>
