<?xml version="1.0" encoding="UTF-8" standalone="no"?>
<svg xmlns:ffdec="https://www.free-decompiler.com/flash" xmlns:xlink="http://www.w3.org/1999/xlink" ffdec:objectType="shape" height="20.05px" width="13.4px" xmlns="http://www.w3.org/2000/svg">
  <g transform="matrix(1.0, 0.0, 0.0, 1.0, 7.85, 7.85)">
    <path d="M-3.4 -7.45 L-1.9 -7.85 -0.2 -7.5 2.4 -6.25 3.3 -4.95 Q3.85 -3.65 3.65 -2.55 4.25 -1.65 4.4 1.15 L4.7 2.6 Q5.05 4.15 5.0 5.35 L4.9 8.95 Q4.7 10.8 4.05 11.05 L0.2 11.25 -2.55 10.55 -3.6 7.9 -4.9 4.55 -5.2 1.2 Q-5.3 -1.55 -5.7 -2.85 -6.15 -4.35 -4.8 -6.05 L-3.4 -7.45" fill="#2f313a" fill-rule="evenodd" stroke="none"/>
    <path d="M-4.35 4.0 Q-6.15 0.45 -6.2 -2.25 -6.3 -5.9 -3.25 -7.2 L-1.45 -7.7 Q2.75 -6.85 3.9 -5.55 5.3 -4.05 4.65 -0.05 4.5 3.35 4.8 5.95 L5.25 8.4 Q5.45 9.45 5.05 10.1 4.65 10.8 3.3 11.2 L0.9 12.1 -1.25 11.05 Q-1.8 10.75 -2.3 9.7 L-4.35 4.0 Z" fill="none" stroke="#111216" stroke-linecap="round" stroke-linejoin="round" stroke-width="0.25"/>
    <path d="M-7.35 -2.75 L-6.1 -4.35 -5.8 -3.45 Q-5.25 -2.25 -4.45 -1.7 -2.1 0.1 1.2 -4.5 2.5 -5.55 3.3 -5.7 L4.8 -5.5 5.15 -3.35 Q5.35 -2.1 5.0 -1.45 4.7 -0.7 3.3 0.1 1.1 1.45 0.6 1.85 L-0.1 2.6 -0.15 3.25 Q-0.15 5.4 -0.3 5.7 -0.55 6.35 -1.95 6.5 L-2.9 6.55 Q-3.45 6.6 -3.9 6.0 -3.95 5.15 -5.2 3.4 L-6.9 0.9 Q-8.35 -0.75 -7.35 -2.75" fill="url(#gradient0)" fill-rule="evenodd" stroke="none"/>
    <path d="M-7.35 -2.75 Q-8.35 -0.75 -6.9 0.9 L-5.2 3.4 Q-3.95 5.15 -3.9 6.0 -3.45 6.6 -2.9 6.55 L-1.95 6.5 Q-0.55 6.35 -0.3 5.7 -0.15 5.4 -0.15 3.25 L-0.1 2.6 0.6 1.85 Q1.1 1.45 3.3 0.1 4.7 -0.7 5.0 -1.45 5.35 -2.1 5.15 -3.35 L4.8 -5.5 3.3 -5.7 Q2.5 -5.55 1.2 -4.5 -2.1 0.1 -4.45 -1.7 -5.25 -2.25 -5.8 -3.45 L-6.1 -4.35 -7.35 -2.75 Z" fill="none" stroke="#563812" stroke-linecap="butt" stroke-linejoin="miter-clip" stroke-miterlimit="4.0" stroke-width="0.25"/>
    <path d="M4.9 -5.55 L5.15 -4.35 5.2 -1.6 Q4.4 1.75 4.7 4.8 L5.4 8.55 Q5.6 9.7 5.15 10.3 4.75 11.05 3.1 11.7 L1.5 11.55 -0.55 11.5 Q-1.45 11.2 -2.15 9.6 L-3.45 6.8 Q-3.4 6.35 -3.7 5.85 L-4.1 5.0 -5.85 2.6 Q-7.1 0.85 -7.65 -1.45 L-7.65 -2.2 -7.4 -2.75 -7.1 -3.25 Q-6.9 -3.4 -7.0 -4.15 L-6.5 -4.7 -5.95 -5.0" fill="none" stroke="#010100" stroke-linecap="round" stroke-linejoin="round" stroke-opacity="0.3647059" stroke-width="0.25"/>
  </g>
  <defs>
    <radialGradient cx="0" cy="0" gradientTransform="matrix(-0.0072, 0.0016, 0.0081, 0.0347, -0.55, 5.05)" gradientUnits="userSpaceOnUse" id="gradient0" r="819.2" spreadMethod="pad">
      <stop offset="0.0" stop-color="#7c3b18"/>
      <stop offset="1.0" stop-color="#ccaa22"/>
    </radialGradient>
  </defs>
</svg>
