<?xml version="1.0" encoding="UTF-8" standalone="no"?>
<svg xmlns:xlink="http://www.w3.org/1999/xlink" height="28.45px" width="24.5px" xmlns="http://www.w3.org/2000/svg">
  <g transform="matrix(1.0, 0.0, 0.0, 1.0, 13.6, 30.5)">
    <path d="M-5.3 -26.8 L-4.75 -26.6 -4.2 -26.45 -2.6 -26.1 0.5 -25.85 3.05 -25.95 3.9 -26.0 5.2 -26.05 5.45 -26.05 6.8 -26.15 7.35 -25.7 9.3 -22.8 9.9 -20.8 8.2 -19.35 5.3 -11.25 1.75 -13.1 1.7 -13.1 1.4 -13.15 1.25 -13.15 0.2 -13.45 Q-0.25 -13.65 -0.35 -13.8 L-0.3 -14.15 Q0.45 -15.95 -0.25 -16.05 -0.95 -16.2 -1.15 -16.45 L-1.2 -16.55 -1.2 -16.95 -1.2 -16.55 -1.15 -16.45 -1.2 -16.45 -1.3 -15.6 -3.25 -15.05 -3.15 -13.65 -5.4 -11.95 -8.0 -12.0 -11.25 -13.0 -11.55 -16.55 -11.0 -17.05 -10.9 -14.4 -10.0 -16.3 -8.4 -18.05 -9.2 -20.8 -9.1 -24.55 -11.55 -27.1 -11.55 -27.6 -7.95 -27.65 -7.15 -27.65 -6.85 -26.9 -5.3 -26.8 M-4.95 -22.3 L-6.85 -26.9 -4.95 -22.3 -5.0 -22.3 -4.75 -21.7 -4.7 -21.65 -4.15 -20.25 -1.7 -19.05 -1.2 -16.95 -0.05 -17.6 0.9 -17.25 1.55 -18.4 -1.45 -20.95 -4.95 -22.3 M6.65 -20.9 L4.5 -21.25 4.2 -20.4 4.5 -21.25 6.65 -20.9 M5.85 -18.4 L3.7 -18.75 3.4 -17.9 3.7 -18.75 5.85 -18.4 M5.1 -15.9 L2.95 -16.25 2.65 -15.4 2.95 -16.25 5.1 -15.9 M1.95 -23.05 L-1.55 -24.45 -4.3 -23.9 -1.55 -24.45 1.95 -23.05 M-1.2 -16.55 L-1.2 -16.45 -1.2 -16.55" fill="#605e4d" fill-rule="evenodd" stroke="none"/>
    <path d="M-4.95 -22.3 L-1.45 -20.95 1.55 -18.4 0.9 -17.25 -0.05 -17.6 -1.2 -16.95 -1.7 -19.05 -4.15 -20.25 -4.7 -21.65 -4.75 -21.7 -5.0 -22.3 -4.95 -22.3 -4.7 -21.65 -4.95 -22.3" fill="#565446" fill-rule="evenodd" stroke="none"/>
    <path d="M-1.15 -16.45 Q-0.95 -16.2 -0.25 -16.05 0.45 -15.95 -0.3 -14.15 L-0.35 -13.8 -1.6 -12.55 -3.8 -12.55 -6.15 -11.1 -7.75 -10.7 -7.85 -11.0 -8.0 -12.0 -5.4 -11.95 -3.15 -13.65 -3.25 -15.05 -1.3 -15.6 -1.2 -16.45 -1.15 -16.45 M1.4 -13.15 L1.7 -13.1 1.45 -13.1 1.4 -13.1 1.45 -13.1 1.1 -12.1 3.0 -11.0 3.6 -8.55 5.35 -7.95 4.8 -6.2 1.25 -8.75 -0.15 -8.8 -0.5 -8.85 -1.6 -8.9 -2.0 -8.95 Q-4.35 -9.15 -5.75 -8.35 -6.6 -7.85 -7.0 -7.0 L-7.05 -7.05 -7.15 -7.45 -7.25 -8.1 -7.25 -8.2 -7.3 -8.35 -7.4 -9.0 -5.95 -9.1 -3.75 -10.05 -2.15 -10.15 -1.1 -10.05 1.4 -13.1 1.4 -13.15 1.45 -13.1 1.4 -13.15 M-0.5 -8.85 L-2.0 -8.95 -0.5 -8.85" fill="#282927" fill-rule="evenodd" stroke="none"/>
    <path d="M-0.35 -13.8 Q-0.25 -13.65 0.2 -13.45 L1.25 -13.15 1.4 -13.15 1.4 -13.1 -1.1 -10.05 -2.15 -10.15 -3.75 -10.05 -5.95 -9.1 -7.4 -9.0 -7.75 -10.7 -6.15 -11.1 -3.8 -12.55 -1.6 -12.55 -0.35 -13.8" fill="#353530" fill-rule="evenodd" stroke="none"/>
    <path d="M1.7 -13.1 L1.75 -13.1 5.3 -11.25 7.35 -10.65 5.6 -8.15 5.35 -7.95 3.6 -8.55 3.0 -11.0 1.1 -12.1 1.45 -13.1 1.7 -13.1 M1.4 -13.1 L1.45 -13.1 1.4 -13.1" fill="#83816a" fill-rule="evenodd" stroke="none"/>
    <path d="M3.9 -26.0 L3.05 -25.95 0.5 -25.85 -2.6 -26.1 -4.2 -26.45 -4.75 -26.6 -5.3 -26.8 Q-1.0 -29.65 3.9 -26.0 M-5.6 -3.9 L-5.85 -4.4 Q-5.55 -5.2 -4.25 -6.05 -3.2 -6.65 -1.85 -6.95 L0.0 -7.05 2.3 -6.4 3.65 -5.55 4.9 -4.1 4.9 -3.95 4.75 -3.7 Q4.5 -3.45 3.75 -3.3 L1.45 -2.75 -0.85 -2.55 -3.3 -3.05 -5.2 -3.7 -5.6 -3.9" fill="#2c2b24" fill-rule="evenodd" stroke="none"/>
    <path d="M4.9 -3.95 L4.9 -4.1 3.65 -5.55 2.3 -6.4 0.0 -7.05 -1.85 -6.95 Q-3.2 -6.65 -4.25 -6.05 -5.55 -5.2 -5.85 -4.4 L-5.6 -3.9 -6.35 -4.15 -7.35 -6.15 -7.0 -7.0 Q-6.6 -7.85 -5.75 -8.35 -4.35 -9.15 -2.0 -8.95 L-1.6 -8.9 -0.5 -8.85 -0.15 -8.8 1.25 -8.75 4.8 -6.2 4.95 -6.1 4.95 -4.1 4.9 -3.95" fill="#454438" fill-rule="evenodd" stroke="none"/>
    <path d="M5.3 -11.25 L8.2 -19.35 9.9 -20.8 10.4 -19.1 8.85 -11.15 7.35 -10.65 5.3 -11.25 M-11.55 -27.1 L-11.6 -27.15 -11.65 -26.05 -12.1 -20.05 -10.65 -18.45 -11.0 -17.05 -11.55 -16.55 -12.1 -16.8 -12.8 -17.15 -13.1 -22.05 -12.55 -28.85 Q-12.2 -29.65 -10.3 -30.0 L-8.3 -30.1 -7.7 -28.6 -7.95 -27.65 -11.55 -27.6 -11.55 -27.1 M-10.3 -30.0 L-8.3 -30.0 -7.7 -28.6 -8.3 -30.0 -10.3 -30.0" fill="#424035" fill-rule="evenodd" stroke="none"/>
    <path d="M-11.65 -26.05 L-11.6 -27.15 -11.55 -27.1 -11.65 -26.05 -11.55 -27.1 -9.1 -24.55 -9.2 -20.8 -8.4 -18.05 -10.0 -16.3 -10.9 -14.4 -11.0 -17.05 -10.65 -18.45 -12.1 -20.05 -11.65 -26.05" fill="#706e5a" fill-rule="evenodd" stroke="none"/>
    <path d="M-5.3 -26.8 L-4.75 -26.6 -4.2 -26.45 -2.6 -26.1 0.5 -25.85 3.05 -25.95 3.9 -26.0 M-6.85 -26.9 L-4.95 -22.3 -4.7 -21.65 -4.15 -20.25 -1.7 -19.05 -1.2 -16.95 -1.2 -16.55 -1.15 -16.45 Q-0.95 -16.2 -0.25 -16.05 0.45 -15.95 -0.3 -14.15 L-0.35 -13.8 Q-0.25 -13.65 0.2 -13.45 L1.25 -13.15 1.4 -13.15 1.7 -13.1 1.75 -13.1 M1.4 -13.1 L1.45 -13.1 1.7 -13.1 M-11.55 -27.1 L-11.55 -27.6 M-7.15 -27.65 L-6.85 -26.9 M-1.2 -16.45 L-1.2 -16.55 M-1.2 -16.45 L-1.3 -15.6 -3.25 -15.05 -3.15 -13.65 -5.4 -11.95 -8.0 -12.0" fill="none" stroke="#444337" stroke-linecap="round" stroke-linejoin="round" stroke-width="1.0"/>
    <path d="M4.9 -3.95 L4.9 -4.1 3.65 -5.55 2.3 -6.4 0.0 -7.05 -1.85 -6.95 Q-3.2 -6.65 -4.25 -6.05 -5.55 -5.2 -5.85 -4.4 L-5.6 -3.9 -5.2 -3.7 -3.3 -3.05 -0.85 -2.55 1.45 -2.75 3.75 -3.3 Q4.5 -3.45 4.75 -3.7 M5.35 -7.95 L4.8 -6.2 M-8.0 -12.0 L-7.85 -11.0 -7.75 -10.7 -7.4 -9.0 -7.3 -8.35 -7.25 -8.2 -7.25 -8.1 -7.15 -7.45 -7.05 -7.05" fill="none" stroke="#1c1d19" stroke-linecap="round" stroke-linejoin="round" stroke-width="1.0"/>
    <path d="M4.95 -6.1 L4.8 -6.2 1.25 -8.75 -0.15 -8.8 -0.5 -8.85 -1.6 -8.9 -2.0 -8.95 Q-4.35 -9.15 -5.75 -8.35 -6.6 -7.85 -7.0 -7.0 M-2.0 -8.95 L-0.5 -8.85" fill="none" stroke="#333329" stroke-linecap="round" stroke-linejoin="round" stroke-width="1.0"/>
    <path d="M3.9 -26.0 Q-1.0 -29.65 -5.3 -26.8" fill="none" stroke="#1c1d19" stroke-linecap="round" stroke-linejoin="round" stroke-width="1.0"/>
    <path d="M-5.3 -26.8 L-6.85 -26.9 M5.3 -11.25 L8.2 -19.35 9.9 -20.8 9.3 -22.8 7.35 -25.7 6.8 -26.15 5.45 -26.05 5.2 -26.05 3.9 -26.0 M7.35 -10.65 L5.3 -11.25 M9.9 -20.8 L10.4 -19.1 8.85 -11.15 7.35 -10.65 M4.75 -3.7 L4.9 -3.95 4.95 -4.1 4.95 -6.1 M-7.0 -7.0 L-7.35 -6.15 -6.35 -4.15 -5.6 -3.9 M-7.95 -27.65 L-7.7 -28.6 -8.3 -30.0 -10.3 -30.0 Q-12.2 -29.65 -12.55 -28.85 L-13.1 -22.05 -12.8 -17.15 -12.1 -16.8 -11.55 -16.55 -11.25 -13.0 -8.0 -12.0 M-7.95 -27.65 L-7.15 -27.65 M-4.3 -23.9 L-1.55 -24.45 1.95 -23.05 M-7.05 -7.05 L-7.0 -7.0" fill="none" stroke="#333229" stroke-linecap="round" stroke-linejoin="round" stroke-width="1.0"/>
    <path d="M-11.55 -27.6 L-7.95 -27.65 M-11.55 -16.55 L-11.0 -17.05 -10.65 -18.45 -12.1 -20.05 -11.65 -26.05 -11.55 -27.1" fill="none" stroke="#3a392f" stroke-linecap="round" stroke-linejoin="round" stroke-width="1.0"/>
    <path d="M5.6 -8.15 L7.35 -10.65" fill="none" stroke="#414033" stroke-linecap="round" stroke-linejoin="round" stroke-width="1.0"/>
    <path d="M1.75 -13.1 L5.3 -11.25 M1.45 -13.1 L1.4 -13.15 M1.45 -13.1 L1.1 -12.1 3.0 -11.0 3.6 -8.55 5.35 -7.95 5.6 -8.15" fill="none" stroke="#46453a" stroke-linecap="round" stroke-linejoin="round" stroke-width="1.0"/>
    <path d="M4.2 -20.4 L4.5 -21.25 6.65 -20.9 M2.65 -15.4 L2.95 -16.25 5.1 -15.9 M3.4 -17.9 L3.7 -18.75 5.85 -18.4" fill="none" stroke="#36352b" stroke-linecap="round" stroke-linejoin="round" stroke-width="1.0"/>
  </g>
</svg>
