<?xml version="1.0" encoding="UTF-8" standalone="no"?>
<svg xmlns:ffdec="https://www.free-decompiler.com/flash" xmlns:xlink="http://www.w3.org/1999/xlink" ffdec:objectType="shape" height="20.65px" width="18.1px" xmlns="http://www.w3.org/2000/svg">
  <g transform="matrix(1.0, 0.0, 0.0, 1.0, 11.9, 2.2)">
    <path d="M2.4 13.45 L1.35 13.05 1.2 11.25 2.55 10.9 2.4 13.45" fill="#65a6db" fill-rule="evenodd" stroke="none"/>
    <path d="M-8.55 6.15 L-7.6 8.0 -6.6 9.85 -8.55 10.65 -11.4 7.8 -10.45 7.25 -8.55 6.15 -10.45 7.25 -10.45 5.15 -9.35 4.65 -8.55 6.15" fill="#cfdadd" fill-rule="evenodd" stroke="none"/>
    <path d="M2.55 10.9 L2.4 13.45" fill="none" stroke="#5b759d" stroke-linecap="round" stroke-linejoin="round" stroke-width="1.0"/>
    <path d="M-8.55 6.15 L-10.45 7.25 -11.4 7.8 -8.55 10.65 -6.6 9.85 M-9.35 4.65 L-10.45 5.15 -10.45 7.25" fill="none" stroke="#65687a" stroke-linecap="round" stroke-linejoin="round" stroke-width="1.0"/>
    <path d="M-6.05 10.9 L-1.85 8.9 -2.35 7.8 -1.85 4.75 0.05 4.0 0.55 0.85 -2.0 -1.35 -1.85 -1.7 4.15 -0.3 4.45 1.35 Q4.95 3.15 5.7 3.8 L5.25 7.6 3.85 8.75 3.5 10.65 1.2 11.25 1.35 13.05 3.25 13.75 3.4 14.5 3.9 15.9 0.15 17.95 -1.2 17.95 -2.5 17.05 -1.8 16.6 Q-1.2 16.0 -1.2 15.15 -1.2 14.35 -1.8 13.75 -2.4 13.15 -3.2 13.15 -4.1 13.15 -4.65 13.75 -5.25 14.35 -5.25 15.15 L-5.05 16.1 -6.4 16.5 -7.6 14.9 Q-6.1 12.55 -6.05 10.9 M3.25 3.05 L1.6 3.45 1.15 6.2 2.05 7.65 1.15 6.2 1.6 3.45 3.25 3.05" fill="#b6a9a2" fill-rule="evenodd" stroke="none"/>
    <path d="M-2.5 17.05 L-1.2 17.95 0.15 17.95 3.9 15.9 3.4 14.5 3.25 13.75 1.35 13.05 1.2 11.25 3.5 10.65 3.85 8.75 5.25 7.6 5.7 3.8 Q4.95 3.15 4.45 1.35 L4.15 -0.3 -1.85 -1.7" fill="none" stroke="#514e4c" stroke-linecap="round" stroke-linejoin="round" stroke-width="1.0"/>
    <path d="M-6.05 10.9 Q-6.1 12.55 -7.6 14.9 L-6.4 16.5 -5.05 16.1" fill="none" stroke="#4f4c4a" stroke-linecap="round" stroke-linejoin="round" stroke-width="1.0"/>
    <path d="M2.05 7.65 L1.15 6.2 1.6 3.45 3.25 3.05" fill="none" stroke="#938982" stroke-linecap="round" stroke-linejoin="round" stroke-width="1.0"/>
    <path d="M-9.5 4.4 L-9.6 4.15 -9.85 3.65 -7.9 1.95 -6.45 1.95 -4.85 0.5 -4.85 -1.0 -2.35 -1.7 -2.0 -1.35 0.55 0.85 0.05 4.0 -1.85 4.75 -2.35 7.8 -1.85 8.9 -6.05 10.9 -6.6 9.85 -7.6 8.0 -9.35 4.65 -9.5 4.4 M-3.95 3.45 L-4.65 1.95 -3.95 3.45 M-5.55 6.9 L-4.95 5.7 -5.95 3.8 -7.2 3.8 -5.55 6.9" fill="#738aa1" fill-rule="evenodd" stroke="none"/>
    <path d="M-7.2 3.8 L-5.95 3.8 -4.95 5.7 -5.55 6.9 -7.2 3.8" fill="#4b5975" fill-rule="evenodd" stroke="none"/>
    <path d="M-1.8 13.75 Q-1.2 14.35 -1.2 15.15 -1.2 16.0 -1.8 16.6 L-2.5 17.05 -3.2 17.2 Q-4.1 17.2 -4.65 16.6 L-5.05 16.1 -5.25 15.15 Q-5.25 14.35 -4.65 13.75 -4.1 13.15 -3.2 13.15 -2.4 13.15 -1.8 13.75" fill="#7f8185" fill-rule="evenodd" stroke="none"/>
    <path d="M-9.35 4.65 L-7.6 8.0 -6.6 9.85 -6.05 10.9 -1.85 8.9 -2.35 7.8 -1.85 4.75 0.05 4.0 0.55 0.85 -2.0 -1.35 -2.35 -1.7 -4.85 -1.0 -4.85 0.5 -6.45 1.95 -7.9 1.95 -9.85 3.65 -9.6 4.15 -9.5 4.4" fill="none" stroke="#3e424d" stroke-linecap="round" stroke-linejoin="round" stroke-width="1.0"/>
    <path d="M-4.65 1.95 L-3.95 3.45 M-5.55 6.9 L-4.95 5.7 -5.95 3.8 -7.2 3.8" fill="none" stroke="#2e2d3f" stroke-linecap="round" stroke-linejoin="round" stroke-width="1.0"/>
    <path d="M-1.8 13.75 Q-2.4 13.15 -3.2 13.15 -4.1 13.15 -4.65 13.75 -5.25 14.35 -5.25 15.15 L-5.05 16.1 -4.65 16.6 Q-4.1 17.2 -3.2 17.2 L-2.5 17.05 -1.8 16.6 Q-1.2 16.0 -1.2 15.15 -1.2 14.35 -1.8 13.75 Z" fill="none" stroke="#414141" stroke-linecap="round" stroke-linejoin="round" stroke-width="1.0"/>
  </g>
</svg>
