<?xml version="1.0" encoding="UTF-8" standalone="no"?>
<svg xmlns:ffdec="https://www.free-decompiler.com/flash" xmlns:xlink="http://www.w3.org/1999/xlink" ffdec:objectType="shape" height="24.0px" width="14.0px" xmlns="http://www.w3.org/2000/svg">
  <g transform="matrix(1.0, 0.0, 0.0, 1.0, 4.85, 2.55)">
    <path d="M-1.3 -2.05 L-1.0 -1.3 1.4 4.35 2.1 6.1 2.65 7.55 -0.2 10.6 -1.35 11.8 Q-1.55 7.5 -4.3 2.7 -4.7 -1.9 -1.3 -2.05" fill="#5a5a5a" fill-rule="evenodd" stroke="none"/>
    <path d="M-1.0 -1.3 Q1.9 -1.0 4.2 1.8 L8.1 9.25 Q7.05 11.25 7.2 13.75 L7.2 13.8 4.45 15.15 3.9 15.1 1.7 14.7 -0.2 10.6 2.65 7.55 2.1 6.1 1.4 4.35 -1.0 -1.3 M8.1 9.25 L5.75 8.55 4.1 5.0 1.4 4.35 4.1 5.0 5.75 8.55 8.1 9.25" fill="#484d51" fill-rule="evenodd" stroke="none"/>
    <path d="M7.2 13.75 Q8.6 15.65 8.65 18.5 L8.2 20.5 5.95 20.55 Q4.6 19.95 3.85 18.75 3.55 16.9 3.9 15.1 L4.45 15.15 7.2 13.8 7.2 13.75 M3.85 18.75 L8.65 18.5 3.85 18.75" fill="#1e1e1e" fill-rule="evenodd" stroke="none"/>
    <path d="M-1.3 -2.05 L-1.0 -1.3 1.4 4.35 4.1 5.0 5.75 8.55 8.1 9.25 M2.65 7.55 L-0.2 10.6 M1.4 4.35 L2.1 6.1" fill="none" stroke="#333333" stroke-linecap="round" stroke-linejoin="round" stroke-width="1.0"/>
    <path d="M-1.0 -1.3 Q1.9 -1.0 4.2 1.8 L8.1 9.25 Q7.05 11.25 7.2 13.75 L7.2 13.8 4.45 15.15 3.9 15.1 1.7 14.7 -0.2 10.6 -1.35 11.8 Q-1.55 7.5 -4.3 2.7 -4.7 -1.9 -1.3 -2.05 M2.1 6.1 L2.65 7.55" fill="none" stroke="#121212" stroke-linecap="round" stroke-linejoin="round" stroke-width="1.0"/>
    <path d="M7.2 13.75 Q8.6 15.65 8.65 18.5 L8.2 20.5 5.95 20.55 Q4.6 19.95 3.85 18.75 3.55 16.9 3.9 15.1" fill="none" stroke="#000000" stroke-linecap="round" stroke-linejoin="round" stroke-width="1.0"/>
    <path d="M8.65 18.5 L3.85 18.75" fill="none" stroke="#252525" stroke-linecap="round" stroke-linejoin="round" stroke-width="1.0"/>
  </g>
</svg>
