<?xml version="1.0" encoding="UTF-8" standalone="no"?>
<svg xmlns:ffdec="https://www.free-decompiler.com/flash" xmlns:xlink="http://www.w3.org/1999/xlink" ffdec:objectType="shape" height="23.95px" width="13.1px" xmlns="http://www.w3.org/2000/svg">
  <g transform="matrix(1.0, 0.0, 0.0, 1.0, -3.95, -0.1)">
    <path d="M11.7 18.9 Q10.3 17.65 8.55 14.9 L8.0 13.7 7.6 12.7 Q7.4 11.8 7.35 10.6 L7.25 8.65 7.25 8.55 6.75 7.85 Q6.15 6.45 6.1 5.35 L6.05 3.25 Q6.15 2.3 7.2 2.2 L8.65 1.95 11.75 1.75 12.95 2.55 13.55 3.95 14.1 5.95 14.2 6.85 Q13.8 7.2 14.25 7.55 L14.85 8.2 14.9 8.9 15.05 9.25 15.15 9.4 Q15.5 10.2 15.5 11.45 L15.25 13.75 Q14.9 16.9 14.9 18.1 L14.05 18.8 11.7 18.9" fill="#313131" fill-rule="evenodd" stroke="none"/>
    <path d="M14.05 18.8 Q15.15 19.0 15.2 19.75 15.35 20.55 14.9 21.35 14.55 22.6 13.6 23.3 12.15 23.9 11.5 23.0 L11.1 22.35 Q10.65 20.65 11.7 18.9 L14.05 18.8" fill="#5d5d5d" fill-rule="evenodd" stroke="none"/>
    <path d="M11.7 18.9 Q10.3 17.65 8.55 14.9 L8.0 13.7 7.6 12.7 Q7.4 11.8 7.35 10.6 L7.25 8.65 7.25 8.55 6.75 7.85 Q6.15 6.45 6.1 5.35 L6.05 3.25 Q6.15 2.3 7.2 2.2 L8.65 1.95 11.75 1.75 12.95 2.55 13.55 3.95 14.1 5.95 14.2 6.85 Q13.8 7.2 14.25 7.55 L14.85 8.2 14.9 8.9 15.05 9.25 15.15 9.4 Q15.5 10.2 15.5 11.45 L15.25 13.75 Q14.9 16.9 14.9 18.1 L14.05 18.8 11.7 18.9" fill="none" stroke="#1e1e1e" stroke-linecap="round" stroke-linejoin="round" stroke-width="1.0"/>
    <path d="M14.05 18.8 Q15.15 19.0 15.2 19.75 15.35 20.55 14.9 21.35 14.55 22.6 13.6 23.3" fill="none" stroke="#2a2a2a" stroke-linecap="round" stroke-linejoin="round" stroke-width="1.0"/>
    <path d="M13.6 23.3 Q12.15 23.9 11.5 23.0 L11.1 22.35 Q10.65 20.65 11.7 18.9" fill="none" stroke="#191919" stroke-linecap="round" stroke-linejoin="round" stroke-width="1.0"/>
    <path d="M16.05 15.4 L15.75 18.75 15.45 22.3 14.85 23.2 13.6 21.4 13.45 19.85 11.15 19.4 10.0 16.9 Q12.6 17.25 14.0 16.9 L15.05 16.3 16.05 15.4 M15.75 18.75 L13.35 19.05 13.45 19.85 13.35 19.05 15.75 18.75" fill="#313131" fill-rule="evenodd" stroke="none"/>
    <path d="M14.8 12.75 L14.2 8.8 14.95 8.55 15.4 8.35 Q16.05 10.25 15.9 12.75 L14.85 13.0 14.8 12.75 M9.6 14.6 Q7.95 12.65 7.35 10.3 L9.8 9.7 10.7 14.35 9.6 14.6" fill="#d2b800" fill-rule="evenodd" stroke="none"/>
    <path d="M10.0 16.9 L9.15 15.75 Q6.35 12.05 6.6 9.3 L5.05 8.15 4.45 4.15 Q4.6 1.9 6.45 0.85 L7.9 0.6 7.85 3.6 10.4 3.5 10.5 8.75 13.0 10.25 14.0 16.9 Q12.6 17.25 10.0 16.9 M7.85 3.6 L7.75 7.7 6.6 9.3 7.75 7.7 7.85 3.6 M9.6 14.6 L10.7 14.35 9.8 9.7 7.35 10.3 Q7.95 12.65 9.6 14.6" fill="#2c2c2c" fill-rule="evenodd" stroke="none"/>
    <path d="M10.4 3.5 L14.1 3.35 Q15.2 4.75 16.1 8.15 17.0 11.45 16.05 15.4 L15.05 16.3 14.0 16.9 13.0 10.25 10.5 8.75 10.4 3.5 M14.95 8.55 L14.85 8.2 13.7 8.65 14.35 12.85 14.8 12.75 14.85 13.0 15.9 12.75 Q16.05 10.25 15.4 8.35 L14.95 8.55" fill="#383838" fill-rule="evenodd" stroke="none"/>
    <path d="M14.8 12.75 L14.2 8.8 14.95 8.55 15.4 8.35 Q16.05 10.25 15.9 12.75 L14.85 13.0 14.8 12.75 M9.6 14.6 Q7.95 12.65 7.35 10.3 L9.8 9.7 10.7 14.35 9.6 14.6" fill="none" stroke="#231c00" stroke-linecap="round" stroke-linejoin="round" stroke-width="1.0"/>
    <path d="M10.4 3.5 L14.1 3.35 Q15.2 4.75 16.1 8.15 17.0 11.45 16.05 15.4 L15.75 18.75 15.45 22.3 14.85 23.2 13.6 21.4 13.45 19.85 11.15 19.4 10.0 16.9 9.15 15.75 Q6.35 12.05 6.6 9.3 L5.05 8.15 4.45 4.15 Q4.6 1.9 6.45 0.85 L7.9 0.6 7.85 3.6 10.4 3.5 10.5 8.75 13.0 10.25 14.0 16.9 15.05 16.3 16.05 15.4 M6.6 9.3 L7.75 7.7 7.85 3.6 M13.45 19.85 L13.35 19.05 15.75 18.75 M10.0 16.9 Q12.6 17.25 14.0 16.9" fill="none" stroke="#1e1e1e" stroke-linecap="round" stroke-linejoin="round" stroke-width="1.0"/>
  </g>
</svg>
