<?xml version="1.0" encoding="UTF-8" standalone="no"?>
<svg xmlns:xlink="http://www.w3.org/1999/xlink" height="25.55px" width="20.85px" xmlns="http://www.w3.org/2000/svg">
  <g transform="matrix(1.0, 0.0, 0.0, 1.0, 10.7, 30.05)">
    <path d="M-4.8 -28.25 L-4.75 -28.4 1.0 -28.55 5.45 -27.75 5.5 -27.75 Q5.25 -26.15 5.55 -24.25 5.6 -22.0 4.3 -20.1 5.85 -19.3 6.35 -17.6 7.05 -16.0 7.15 -13.8 L6.7 -12.05 6.35 -10.9 5.95 -8.2 5.1 -8.45 5.1 -8.5 5.15 -9.6 Q5.0 -9.95 4.15 -9.9 3.8 -9.95 3.75 -8.6 L2.85 -8.7 2.75 -9.75 2.75 -10.05 2.5 -10.0 1.7 -9.85 Q1.55 -9.6 1.55 -8.75 L1.2 -8.75 0.55 -8.85 0.55 -8.95 0.55 -10.05 Q0.45 -10.35 -0.4 -10.35 -0.75 -10.4 -0.8 -9.05 L-1.65 -9.1 -1.8 -10.45 -2.85 -10.25 -3.0 -9.2 -4.1 -9.25 -4.15 -12.1 -4.2 -13.55 -3.5 -17.0 -3.45 -17.3 -4.2 -24.2 Q-4.15 -26.55 -4.8 -28.25 M5.75 -6.6 L5.65 -5.7 Q-0.25 -4.3 -4.15 -5.7 L-4.1 -7.75 -3.1 -7.5 -3.2 -6.5 -0.1 -6.3 Q0.2 -6.35 0.4 -7.05 L0.85 -7.0 1.4 -6.9 1.3 -6.1 4.4 -5.85 Q4.75 -5.9 4.95 -6.6 L5.75 -6.6 M6.55 -15.6 Q4.35 -15.0 3.95 -13.45 L3.9 -13.0 Q0.6 -13.55 -1.1 -15.15 L-1.35 -15.5 Q-2.2 -16.65 -3.5 -17.0 -2.2 -16.65 -1.35 -15.5 L-1.1 -15.15 Q0.6 -13.55 3.9 -13.0 L3.95 -13.45 Q4.35 -15.0 6.55 -15.6 M5.95 -17.8 L4.5 -17.7 Q3.5 -17.7 2.65 -18.3 1.8 -18.9 1.75 -19.6 L4.35 -19.6 1.75 -19.6 Q1.8 -18.9 2.65 -18.3 3.5 -17.7 4.5 -17.7 L5.95 -17.8 M5.25 -23.4 Q3.25 -22.45 2.65 -21.9 1.75 -21.05 1.75 -19.7 L1.75 -19.6 -0.55 -19.6 Q-1.05 -20.6 -1.35 -22.35 L-1.55 -24.45 Q-1.55 -26.7 -0.45 -28.2 -1.55 -26.7 -1.55 -24.45 L-1.35 -22.35 Q-1.05 -20.6 -0.55 -19.6 L1.75 -19.6 1.75 -19.7 Q1.75 -21.05 2.65 -21.9 3.25 -22.45 5.25 -23.4 M3.15 -9.35 L2.75 -9.75 3.15 -9.35 M3.9 -13.0 L3.85 -10.5 3.9 -13.0 M4.25 -12.1 L6.7 -12.05 4.25 -12.1 M-9.75 -25.15 L-9.55 -27.05 -8.5 -28.0 Q-5.65 -22.05 -6.9 -19.6 -5.25 -16.55 -6.1 -13.1 L-7.9 -13.3 -8.2 -16.85 -9.1 -17.95 -9.95 -21.7 -8.05 -21.6 -7.9 -22.75 -9.95 -22.9 -9.85 -23.95 -7.85 -23.85 -7.75 -25.05 -9.75 -25.15 M-0.55 -19.6 L-2.95 -19.7 -0.55 -19.6 M2.5 -10.0 Q0.3 -11.95 -4.15 -12.1 0.3 -11.95 2.5 -10.0" fill="#152026" fill-rule="evenodd" stroke="none"/>
    <path d="M5.95 -8.2 L6.05 -8.05 5.75 -6.65 5.75 -6.6 4.95 -6.6 5.1 -8.45 5.95 -8.2 M2.85 -8.7 L3.75 -8.6 2.9 -8.65 2.85 -8.7 M1.55 -8.75 L1.4 -6.9 0.85 -7.0 0.4 -7.05 0.55 -8.85 1.2 -8.75 1.55 -8.75" fill="#2c2c2c" fill-rule="evenodd" stroke="none"/>
    <path d="M-4.1 -7.75 L-4.1 -7.8 Q-4.55 -9.1 -4.4 -9.3 L-4.1 -9.25 -3.0 -9.2 -2.85 -10.25 -1.8 -10.45 -1.65 -9.1 -0.8 -9.05 Q-0.75 -10.4 -0.4 -10.35 0.45 -10.35 0.55 -10.05 L0.55 -8.95 0.55 -8.85 0.4 -7.05 Q0.2 -6.35 -0.1 -6.3 L-3.2 -6.5 -3.1 -7.5 -4.1 -7.75 M3.75 -8.6 Q3.8 -9.95 4.15 -9.9 5.0 -9.95 5.15 -9.6 L5.1 -8.5 5.1 -8.45 4.95 -6.6 Q4.75 -5.9 4.4 -5.85 L1.3 -6.1 1.4 -6.9 1.55 -8.75 Q1.55 -9.6 1.7 -9.85 L2.5 -10.0 2.75 -10.05 2.75 -9.75 2.85 -8.7 2.9 -8.65 3.75 -8.6 M-3.1 -7.5 L-3.0 -9.2 -3.1 -7.5" fill="#1d2b38" fill-rule="evenodd" stroke="none"/>
    <path d="M-4.8 -28.25 L-4.75 -28.4 1.0 -28.55 5.45 -27.75 5.5 -27.75 M7.15 -13.8 L6.7 -12.05 6.35 -10.9 5.95 -8.2 6.05 -8.05 5.75 -6.65 5.75 -6.6 5.65 -5.7 Q-0.25 -4.3 -4.15 -5.7 L-4.1 -7.75 M-4.1 -9.25 L-4.15 -12.1 -4.2 -13.55 M-0.45 -28.2 Q-1.55 -26.7 -1.55 -24.45 L-1.35 -22.35 Q-1.05 -20.6 -0.55 -19.6 L1.75 -19.6 1.75 -19.7 Q1.75 -21.05 2.65 -21.9 3.25 -22.45 5.25 -23.4 M4.35 -19.6 L1.75 -19.6 Q1.8 -18.9 2.65 -18.3 3.5 -17.7 4.5 -17.7 L5.95 -17.8 M-3.5 -17.0 Q-2.2 -16.65 -1.35 -15.5 L-1.1 -15.15 Q0.6 -13.55 3.9 -13.0 L3.95 -13.45 Q4.35 -15.0 6.55 -15.6 M5.1 -8.45 L5.95 -8.2 M4.95 -6.6 L5.75 -6.6 M2.75 -9.75 L3.15 -9.35 M6.7 -12.05 L4.25 -12.1 M3.85 -10.5 L3.9 -13.0 M-9.75 -25.15 L-9.55 -27.05 -8.5 -28.0 M-6.1 -13.1 L-7.9 -13.3 -8.2 -16.85 -9.1 -17.95 -9.95 -21.7 M-9.95 -22.9 L-9.85 -23.95 M-2.95 -19.7 L-0.55 -19.6 M-4.15 -12.1 Q0.3 -11.95 2.5 -10.0" fill="none" stroke="#0c1113" stroke-linecap="round" stroke-linejoin="round" stroke-width="1.0"/>
    <path d="M-4.1 -7.75 L-4.1 -7.8 Q-4.55 -9.1 -4.4 -9.3 L-4.1 -9.25 -3.0 -9.2 -3.1 -7.5 -3.2 -6.5 -0.1 -6.3 Q0.2 -6.35 0.4 -7.05 L0.55 -8.85 1.2 -8.75 1.55 -8.75 1.4 -6.9 1.3 -6.1 4.4 -5.85 Q4.75 -5.9 4.95 -6.6 L5.1 -8.45 5.1 -8.5 5.15 -9.6 Q5.0 -9.95 4.15 -9.9 3.8 -9.95 3.75 -8.6 L2.9 -8.65 2.85 -8.7 3.75 -8.6 M2.5 -10.0 L2.75 -10.05 2.75 -9.75 2.85 -8.7 M2.5 -10.0 L1.7 -9.85 Q1.55 -9.6 1.55 -8.75 M0.55 -8.85 L0.55 -8.95 0.55 -10.05 Q0.45 -10.35 -0.4 -10.35 -0.75 -10.4 -0.8 -9.05 L-1.65 -9.1 -1.8 -10.45 -2.85 -10.25 -3.0 -9.2 M0.4 -7.05 L0.85 -7.0 1.4 -6.9 M-4.1 -7.75 L-3.1 -7.5" fill="none" stroke="#070a0a" stroke-linecap="round" stroke-linejoin="round" stroke-width="1.0"/>
    <path d="M-7.75 -25.05 L-7.85 -23.85 -9.85 -23.95 -10.0 -24.0 -9.95 -24.2 -9.9 -25.15 -7.75 -25.05 M-8.05 -21.6 L-10.2 -21.7 -10.15 -21.8 -10.1 -22.9 -9.95 -22.9 -7.9 -22.75 -8.05 -21.6" fill="#66c1fd" fill-rule="evenodd" stroke="none"/>
    <path d="M-7.75 -25.05 L-7.85 -23.85 -9.85 -23.95 -10.0 -24.0 -9.95 -24.2 -9.9 -25.15 -7.75 -25.05 M-8.05 -21.6 L-10.2 -21.7 -10.15 -21.8 -10.1 -22.9 -9.95 -22.9 -7.9 -22.75 -8.05 -21.6" fill="none" stroke="#4588b4" stroke-linecap="round" stroke-linejoin="round" stroke-width="1.0"/>
    <path d="M5.5 -27.75 L5.65 -28.6 Q8.85 -26.85 9.6 -23.4 9.8 -20.4 8.75 -17.3 7.45 -14.35 7.1 -11.5 L7.15 -13.8 Q7.05 -16.0 6.35 -17.6 5.85 -19.3 4.3 -20.1 5.6 -22.0 5.55 -24.25 5.25 -26.15 5.5 -27.75 M-4.8 -28.25 Q-4.15 -26.55 -4.2 -24.2 L-3.45 -17.3 -3.5 -17.0 -4.2 -13.55 -4.55 -12.65 Q-4.8 -13.2 -6.75 -11.2 L-6.1 -13.1 Q-5.25 -16.55 -6.9 -19.6 -5.65 -22.05 -8.5 -28.0 L-9.0 -29.05 -5.35 -29.3 -4.8 -28.25" fill="url(#gradient0)" fill-rule="evenodd" stroke="none"/>
    <path d="M5.5 -27.75 Q5.25 -26.15 5.55 -24.25 5.6 -22.0 4.3 -20.1 5.85 -19.3 6.35 -17.6 7.05 -16.0 7.15 -13.8 L7.1 -11.5 Q7.45 -14.35 8.75 -17.3 9.8 -20.4 9.6 -23.4 8.85 -26.85 5.65 -28.6 L5.5 -27.75 M-4.8 -28.25 Q-4.15 -26.55 -4.2 -24.2 L-3.45 -17.3 -3.5 -17.0 -4.2 -13.55 -4.55 -12.65 Q-4.8 -13.2 -6.75 -11.2 L-6.1 -13.1 Q-5.25 -16.55 -6.9 -19.6 -5.65 -22.05 -8.5 -28.0 L-9.0 -29.05 -5.35 -29.3 -4.8 -28.25" fill="none" stroke="#070a0a" stroke-linecap="round" stroke-linejoin="round" stroke-width="1.0"/>
  </g>
  <defs>
    <linearGradient gradientTransform="matrix(0.0141, 0.0, 0.0, 0.0061, -0.9, -13.65)" gradientUnits="userSpaceOnUse" id="gradient0" spreadMethod="pad" x1="-819.2" x2="819.2">
      <stop offset="0.0" stop-color="#152026"/>
      <stop offset="1.0" stop-color="#425668"/>
    </linearGradient>
  </defs>
</svg>
