<?xml version="1.0" encoding="UTF-8" standalone="no"?>
<svg xmlns:ffdec="https://www.free-decompiler.com/flash" xmlns:xlink="http://www.w3.org/1999/xlink" ffdec:objectType="shape" height="37.4px" width="14.9px" xmlns="http://www.w3.org/2000/svg">
  <g transform="matrix(1.0, 0.0, 0.0, 1.0, 0.5, 0.5)">
    <path d="M5.2 10.05 Q4.2 8.75 3.9 9.1 3.35 9.05 3.4 10.7 5.9 17.3 7.0 17.55 7.6 16.65 5.2 10.05 M7.65 9.9 Q8.3 17.55 12.2 26.55 L13.1 26.85 Q14.1 31.75 13.85 36.4 10.6 33.0 8.2 28.7 L8.7 27.85 Q5.85 18.4 1.55 12.1 L0.4 12.4 2.0 9.15 0.75 8.3 Q1.8 6.25 0.0 1.2 -0.05 0.15 0.6 0.1 1.0 -0.3 1.75 0.6 3.55 5.6 5.7 6.45 L5.3 7.9 8.65 9.45 7.65 9.9" fill="#ffffff" fill-rule="evenodd" stroke="none"/>
    <path d="M5.2 10.05 Q4.2 8.75 3.9 9.1 3.35 9.05 3.4 10.7 5.9 17.3 7.0 17.55 7.6 16.65 5.2 10.05 M7.65 9.9 Q8.3 17.55 12.2 26.55 L13.1 26.85 Q14.1 31.75 13.85 36.4 10.6 33.0 8.2 28.7 L8.7 27.85 Q5.85 18.4 1.55 12.1 L0.4 12.4 2.0 9.15 0.75 8.3 Q1.8 6.25 0.0 1.2 -0.05 0.15 0.6 0.1 1.0 -0.3 1.75 0.6 3.55 5.6 5.7 6.45 L5.3 7.9 8.65 9.45 7.65 9.9 Z" fill="none" stroke="#bfbfbf" stroke-linecap="round" stroke-linejoin="round" stroke-width="1.0"/>
  </g>
</svg>
