<?xml version="1.0" encoding="UTF-8" standalone="no"?>
<svg xmlns:xlink="http://www.w3.org/1999/xlink" height="22.95px" width="14.45px" xmlns="http://www.w3.org/2000/svg">
  <g transform="matrix(1.0, 0.0, 0.0, 1.0, 7.55, 3.1)">
    <path d="M-0.15 4.0 L0.85 3.75 Q2.1 3.5 3.4 4.1 4.65 4.7 5.25 5.7 5.4 6.8 3.8 8.0 L1.2 9.85 0.8 13.2 Q0.4 15.95 -0.15 16.15 L-0.55 16.15 Q-1.1 16.05 -2.5 14.1 L-4.9 10.25 -3.3 8.35 Q-1.7 6.6 -1.8 6.2 -1.85 4.6 -0.15 4.0" fill="#161a1e" fill-rule="evenodd" stroke="none"/>
    <path d="M-7.25 2.45 L-5.75 0.05 Q-5.15 -0.8 -3.75 -0.6 -4.25 -0.4 -3.1 -0.05 -1.65 0.45 -1.65 1.0 -1.5 1.7 -3.0 4.0 -5.65 5.55 -7.25 5.9 L-7.25 2.45 M-1.0 19.8 Q-2.65 19.5 -4.05 17.45 L-1.05 16.75 Q0.8 16.35 1.5 17.3 0.95 20.25 -1.0 19.8" fill="#10131a" fill-rule="evenodd" stroke="none"/>
    <path d="M6.45 -1.25 L5.75 4.9 Q5.6 5.15 4.25 4.3 2.9 3.3 2.45 3.9 L0.4 4.35 Q-1.3 4.5 -1.3 5.35 -1.3 6.35 -2.95 8.0 L-4.45 9.75 -4.45 9.85 -4.1 10.75 -2.3 12.35 -1.6 15.3 -0.5 15.8 0.75 15.3 0.6 17.35 Q-2.0 18.25 -2.65 18.2 -3.3 18.15 -3.4 17.3 -3.8 13.35 -6.0 10.85 L-6.25 8.8 Q-6.25 7.9 -7.25 7.85 -6.8 6.4 -5.5 5.55 -5.15 5.25 -3.45 4.45 -3.05 4.35 -1.7 1.55 -0.4 -1.45 0.55 -1.95 4.35 -2.35 5.65 -2.0 6.15 -1.9 6.45 -1.25" fill="url(#gradient0)" fill-rule="evenodd" stroke="none"/>
    <path d="M-6.45 11.25 Q-5.95 11.1 -5.05 12.15 -4.2 13.1 -4.1 12.75 L-3.85 16.25 Q-3.7 17.2 -4.15 17.55 L-5.25 18.35 -5.25 18.25 -6.35 14.35 Q-7.0 12.05 -6.45 11.25" fill="#181621" fill-rule="evenodd" stroke="none"/>
    <path d="M1.5 9.4 Q3.2 8.85 3.95 7.45 L5.2 4.65 Q5.4 2.95 5.9 1.0 L6.4 -1.3 5.9 -1.15 5.4 -0.85 Q5.3 -0.95 5.55 -1.65 5.8 -2.45 5.65 -2.5 5.4 -2.65 4.55 -2.1 L3.2 -1.3 Q2.8 -1.25 3.4 -1.9 4.0 -2.6 3.75 -2.6 L0.95 -1.7 Q-0.7 -1.2 -0.75 0.5 M1.0 9.4 L0.35 12.7 Q0.05 14.65 0.9 16.1 L2.1 18.0 0.65 19.0 Q-0.1 19.45 -0.9 19.35 L-3.2 18.55 Q-4.45 17.95 -4.8 18.1 -5.7 16.85 -6.2 14.2 -6.65 11.5 -6.2 10.15 -7.4 7.3 -6.95 4.1 -6.5 1.15 -5.0 -0.8 -3.65 -0.55 -3.0 0.05 -2.65 0.45 -2.25 1.35" fill="none" stroke="#070a0a" stroke-linecap="round" stroke-linejoin="round" stroke-width="1.0"/>
    <path d="M-6.6 7.9 Q-6.7 5.9 -6.0 5.45 L-3.4 4.8 Q-3.15 4.65 -2.6 3.35 -1.95 2.05 -1.85 1.4 L-1.85 1.3 -2.15 1.85 Q-2.7 3.05 -2.05 1.55 L-1.85 1.3 -1.4 0.7 -0.95 0.4 0.35 0.3 1.45 0.4 Q1.75 0.6 1.15 2.1 0.6 3.55 0.85 3.65 L1.75 3.95 2.05 3.9 2.7 3.7 3.1 3.25 3.3 3.75 4.15 4.2 4.9 4.6 Q3.85 4.6 3.3 3.75 L3.1 3.35 2.7 3.7 1.75 3.95 -1.1 4.35 Q-1.6 4.7 -1.65 5.3 L-1.0 6.65 -0.45 7.8 -0.1 8.6 0.6 9.4 0.7 9.5 1.05 9.55 0.7 9.5 M-0.45 7.8 L0.2 9.2 0.6 9.4 M1.3 16.65 Q1.0 16.5 0.35 17.1 L-0.65 17.65 -3.45 17.05 Q-4.4 16.95 -4.1 17.8 M-6.5 8.85 Q-6.35 10.45 -5.7 11.7 -4.95 13.0 -3.95 13.05 L-3.45 16.6 M-0.45 7.8 L-0.65 7.45 -1.4 6.55 -1.8 6.9 Q-2.1 7.35 -2.55 7.35 -3.25 7.3 -4.75 9.85 -4.95 10.2 -4.05 11.2 -2.95 11.4 -2.15 12.2 -1.95 12.55 -2.0 13.55 L-1.9 15.3 Q-1.7 15.85 -1.3 15.95 L-0.65 16.05 Q-0.45 16.3 0.35 15.4" fill="none" stroke="#0a0e0f" stroke-linecap="round" stroke-linejoin="round" stroke-width="1.0"/>
    <path d="M1.95 4.15 L3.2 6.35 Q3.8 7.4 3.7 7.8 L3.35 8.75 2.6 8.85 0.05 4.25" fill="none" stroke="#070611" stroke-linecap="round" stroke-linejoin="round" stroke-opacity="0.5568628" stroke-width="1.0"/>
    <path d="M3.0 -0.35 L2.75 2.95 3.0 0.95 5.15 0.15 3.05 1.05 5.0 3.05" fill="none" stroke="#8ecdf7" stroke-linecap="round" stroke-linejoin="round" stroke-width="1.0"/>
    <path d="M-0.65 10.1 L-1.9 9.8" fill="none" stroke="#8ecdf7" stroke-linecap="round" stroke-linejoin="round" stroke-width="1.0"/>
    <path d="M-0.6 12.8 L-1.95 12.55" fill="none" stroke="#8ecdf7" stroke-linecap="round" stroke-linejoin="round" stroke-width="1.0"/>
  </g>
  <defs>
    <linearGradient gradientTransform="matrix(0.0084, 0.0, 0.0, 0.0124, -0.4, 8.0)" gradientUnits="userSpaceOnUse" id="gradient0" spreadMethod="pad" x1="-819.2" x2="819.2">
      <stop offset="0.0" stop-color="#121a22"/>
      <stop offset="0.6549019607843137" stop-color="#27363f"/>
      <stop offset="1.0" stop-color="#4d6277"/>
    </linearGradient>
  </defs>
</svg>
