<?xml version="1.0" encoding="UTF-8" standalone="no"?>
<svg xmlns:ffdec="https://www.free-decompiler.com/flash" xmlns:xlink="http://www.w3.org/1999/xlink" ffdec:objectType="shape" height="23.0px" width="14.85px" xmlns="http://www.w3.org/2000/svg">
  <g transform="matrix(1.0, 0.0, 0.0, 1.0, 5.4, 5.35)">
    <path d="M2.1 -2.25 L2.75 0.7 Q2.3 3.0 1.15 3.5 L1.45 4.85 4.0 11.4 5.9 11.1 6.75 10.65 Q7.4 10.4 7.85 9.95 9.25 11.6 8.85 14.05 L8.25 14.1 6.9 14.1 3.85 12.75 3.3 11.4 Q2.05 11.45 1.25 10.45 L-1.25 5.65 -1.85 3.95 -1.05 4.05 -0.15 3.8 Q0.8 2.3 1.25 0.65 1.15 -1.35 -0.35 -3.15 L-4.1 -3.25 -3.55 -4.65 Q-0.5 -5.2 0.5 -4.35 L2.1 -2.25 M4.0 11.4 L3.3 11.4 4.0 11.4 M1.15 3.5 L-0.15 3.8 1.15 3.5" fill="#4d4946" fill-rule="evenodd" stroke="none"/>
    <path d="M2.1 -2.25 L3.55 -2.5 Q5.2 -1.8 5.35 -0.9 L6.1 1.15 5.95 1.35 7.85 6.55 6.75 7.25 7.9 6.7 8.3 8.2 Q8.25 9.25 7.85 9.95 7.4 10.4 6.75 10.65 L5.9 11.1 4.0 11.4 1.45 4.85 1.15 3.5 Q2.3 3.0 2.75 0.7 L2.1 -2.25" fill="url(#gradient0)" fill-rule="evenodd" stroke="none"/>
    <path d="M6.1 1.15 L7.45 2.1 8.6 5.75 7.9 6.7 7.85 6.55 8.1 5.15 Q8.0 3.6 6.8 1.95 L5.95 1.35 6.15 1.4 6.1 1.15" fill="#8a8580" fill-rule="evenodd" stroke="none"/>
    <path d="M7.9 6.7 L6.75 7.25 7.85 6.55 7.9 6.7 M5.95 1.35 L6.1 1.15 6.15 1.4 5.95 1.35" fill="#232323" fill-rule="evenodd" stroke="none"/>
    <path d="M7.85 6.55 L5.95 1.35 6.8 1.95 Q8.0 3.6 8.1 5.15 L7.85 6.55" fill="#666666" fill-rule="evenodd" stroke="none"/>
    <path d="M3.85 12.75 L6.9 14.1 8.25 14.1 8.1 15.3 Q7.55 17.1 7.1 16.95 L4.6 16.75 Q3.55 15.75 3.55 14.5 L3.85 12.75" fill="#333333" fill-rule="evenodd" stroke="none"/>
    <path d="M-1.85 3.95 L-2.55 3.8 -2.95 3.35 -3.95 1.75 -4.5 0.7 -4.65 0.1 -4.85 -1.35 Q-5.15 -1.9 -4.1 -3.25 L-0.35 -3.15 Q1.15 -1.35 1.25 0.65 0.8 2.3 -0.15 3.8 L-1.05 4.05 -1.85 3.95 M-2.3 0.3 L-4.5 0.7 -2.3 0.3" fill="url(#gradient1)" fill-rule="evenodd" stroke="none"/>
    <path d="M6.1 1.15 L5.35 -0.9 Q5.2 -1.8 3.55 -2.5 L2.1 -2.25 2.75 0.7 Q2.3 3.0 1.15 3.5 L1.45 4.85 4.0 11.4 5.9 11.1 6.75 10.65 Q7.4 10.4 7.85 9.95 8.25 9.25 8.3 8.2 L7.9 6.7 6.75 7.25 7.85 6.55 7.9 6.7 8.6 5.75 7.45 2.1 6.1 1.15 M-4.1 -3.25 L-3.55 -4.65 Q-0.5 -5.2 0.5 -4.35 L2.1 -2.25 M3.85 12.75 L3.3 11.4 Q2.05 11.45 1.25 10.45 L-1.25 5.65 -1.85 3.95 -2.55 3.8 -2.95 3.35 -3.95 1.75 -4.5 0.7 -4.65 0.1 -4.85 -1.35 Q-5.15 -1.9 -4.1 -3.25 L-0.35 -3.15 Q1.15 -1.35 1.25 0.65 0.8 2.3 -0.15 3.8 L1.15 3.5 M3.3 11.4 L4.0 11.4 M3.85 12.75 L6.9 14.1 8.25 14.1 8.85 14.05 Q9.25 11.6 7.85 9.95 M8.25 14.1 L8.1 15.3 Q7.55 17.1 7.1 16.95 L4.6 16.75 Q3.55 15.75 3.55 14.5 L3.85 12.75 M-1.85 3.95 L-1.05 4.05 -0.15 3.8" fill="none" stroke="#2b2927" stroke-linecap="round" stroke-linejoin="round" stroke-width="1.0"/>
    <path d="M-4.5 0.7 L-2.3 0.3" fill="none" stroke="#333333" stroke-linecap="round" stroke-linejoin="round" stroke-width="1.0"/>
  </g>
  <defs>
    <radialGradient cx="0" cy="0" gradientTransform="matrix(0.0091, 0.0, 0.0, 0.0091, 5.6, 4.35)" gradientUnits="userSpaceOnUse" id="gradient0" r="819.2" spreadMethod="pad">
      <stop offset="0.0" stop-color="#47423c"/>
      <stop offset="1.0" stop-color="#635547"/>
    </radialGradient>
    <radialGradient cx="0" cy="0" gradientTransform="matrix(0.0072, 0.0, 0.0, 0.0072, -2.6, 1.9)" gradientUnits="userSpaceOnUse" id="gradient1" r="819.2" spreadMethod="pad">
      <stop offset="0.0" stop-color="#47423c"/>
      <stop offset="1.0" stop-color="#635547"/>
    </radialGradient>
  </defs>
</svg>
