<?xml version="1.0" encoding="UTF-8" standalone="no"?>
<svg xmlns:xlink="http://www.w3.org/1999/xlink" height="28.25px" width="26.05px" xmlns="http://www.w3.org/2000/svg">
  <g transform="matrix(1.0, 0.0, 0.0, 1.0, 15.45, 31.75)">
    <path d="M-6.8 -29.55 L-5.95 -30.9 -2.85 -30.5 Q0.7 -29.85 2.8 -28.9 L3.8 -27.95 5.4 -26.1 5.2 -26.15 5.1 -26.15 4.75 -26.25 3.95 -26.4 3.7 -26.4 3.6 -26.45 3.55 -26.45 1.8 -26.75 -0.95 -27.4 -5.3 -27.6 -6.05 -27.5 -7.85 -27.15 -7.6 -27.95 -6.8 -29.55 -7.6 -27.95 -7.85 -27.15 -8.15 -25.8 -8.15 -25.3 -10.65 -25.0 -14.25 -28.15 -12.85 -30.5 -9.3 -31.25 -6.8 -29.55 M7.0 -7.35 L6.85 -6.75 7.0 -7.4 7.0 -7.35 M-13.3 -14.95 L-14.3 -18.1 -14.85 -21.7 -14.9 -22.0 -14.95 -22.6 -14.95 -27.0 -13.2 -24.3 -12.85 -22.7 Q-12.45 -20.45 -12.3 -17.75 L-13.3 -14.95 M0.45 -16.75 L2.1 -15.7 6.65 -12.65 Q4.5 -13.5 2.4 -12.7 L1.1 -12.05 0.65 -11.7 0.8 -10.65 -2.1 -10.7 -1.95 -11.75 -0.3 -14.4 -0.1 -17.1 0.05 -17.0 0.45 -16.75" fill="#444444" fill-rule="evenodd" stroke="none"/>
    <path d="M-7.85 -27.15 L-6.05 -27.5 -5.3 -27.6 -0.95 -27.4 1.8 -26.75 3.55 -26.45 3.6 -26.45 3.7 -26.4 3.95 -26.4 4.75 -26.25 5.1 -26.15 5.2 -26.15 5.4 -26.1 8.75 -25.6 9.85 -19.6 5.9 -19.85 5.55 -18.0 9.75 -17.0 Q9.35 -14.1 7.3 -12.2 L6.75 -12.6 6.65 -12.65 2.1 -15.7 0.45 -16.75 0.05 -17.0 -0.1 -17.1 -0.35 -17.3 0.45 -16.75 -0.35 -17.3 -2.95 -18.8 -5.95 -25.5 -8.15 -25.3 -8.15 -25.8 -7.85 -27.15 M2.15 -6.2 L-3.4 -6.2 -2.5 -7.65 -2.25 -9.45 -2.1 -10.7 0.8 -10.65 1.25 -7.65 2.15 -6.2 M-7.15 -14.5 L-10.65 -12.4 -13.3 -14.95 -12.3 -17.75 Q-12.45 -20.45 -12.85 -22.7 L-13.2 -24.3 -14.95 -27.0 -14.25 -28.15 -10.65 -25.0 -9.8 -19.85 -7.55 -18.5 -7.45 -16.65 -7.15 -14.5 M0.45 -16.75 L0.45 -17.45 -2.55 -19.2 -5.6 -26.1 -7.3 -26.1 -5.6 -26.1 -2.55 -19.2 0.45 -17.45 0.45 -16.75 M-8.15 -25.3 L-7.3 -26.1 -8.15 -25.8 -7.3 -26.1 -8.15 -25.3 M-9.55 -15.6 L-10.35 -14.75 -9.55 -15.6" fill="#323232" fill-rule="evenodd" stroke="none"/>
    <path d="M9.85 -19.6 Q10.2 -18.65 10.05 -17.8 L9.8 -17.05 9.75 -17.0 5.55 -18.0 5.9 -19.85 9.85 -19.6" fill="#df930b" fill-rule="evenodd" stroke="none"/>
    <path d="M7.3 -12.2 L9.9 -11.95 9.75 -8.8 9.7 -8.15 Q9.4 -5.3 8.65 -4.25 L7.2 -4.1 7.0 -7.35 7.35 -8.55 7.25 -9.3 7.1 -10.25 7.25 -9.3 7.35 -8.55 7.0 -7.35 7.0 -7.4 6.85 -6.75 6.8 -6.55 6.6 -5.9 6.6 -5.95 6.1 -4.4 3.45 -4.0 2.15 -6.2 1.25 -7.65 3.4 -7.85 4.75 -9.95 7.1 -10.25 4.75 -9.95 3.4 -7.85 1.25 -7.65 0.8 -10.65 0.65 -11.7 1.1 -12.05 2.4 -12.7 Q4.5 -13.5 6.65 -12.65 L6.75 -12.6 7.3 -12.2 M-3.4 -6.2 L-4.8 -4.0 -7.45 -4.35 -8.6 -8.45 -8.05 -12.55 -7.55 -12.75 -6.85 -12.95 -6.15 -13.05 Q-3.8 -13.2 -1.95 -11.75 L-2.1 -10.7 -2.25 -9.45 -2.5 -7.65 -3.4 -6.2 M6.75 -12.6 L6.75 -12.55 7.1 -10.25 6.75 -12.55 6.75 -12.6 M9.7 -8.15 L7.25 -9.3 9.7 -8.15 M6.8 -6.55 L6.6 -5.95 6.8 -6.55 M-8.6 -8.45 L-5.8 -8.0 -4.45 -9.75 -2.25 -9.45 -4.45 -9.75 -5.8 -8.0 -8.6 -8.45" fill="#2a2a2a" fill-rule="evenodd" stroke="none"/>
    <path d="M-6.85 -12.95 L-7.15 -14.5 -7.45 -16.65 -7.55 -18.5 -9.8 -19.85 -10.65 -25.0 -8.15 -25.3 -5.95 -25.5 -2.95 -18.8 -0.35 -17.3 -0.1 -17.1 -0.3 -14.4 -1.95 -11.75 Q-3.8 -13.2 -6.15 -13.05 L-6.85 -12.95" fill="#282828" fill-rule="evenodd" stroke="none"/>
    <path d="M5.4 -26.1 L3.8 -27.95 2.8 -28.9 Q0.7 -29.85 -2.85 -30.5 L-5.95 -30.9 -6.8 -29.55 -7.6 -27.95 -7.85 -27.15 -6.05 -27.5 -5.3 -27.6 -0.95 -27.4 1.8 -26.75 3.55 -26.45 3.6 -26.45 3.7 -26.4 3.95 -26.4 4.75 -26.25 5.1 -26.15 5.2 -26.15 5.4 -26.1 8.75 -25.6 9.85 -19.6 M9.75 -17.0 Q9.35 -14.1 7.3 -12.2 L6.75 -12.6 M0.45 -16.75 L2.1 -15.7 6.65 -12.65 M0.45 -16.75 L-0.35 -17.3 M7.1 -10.25 L4.75 -9.95 3.4 -7.85 1.25 -7.65 M7.25 -9.3 L9.7 -8.15 M-8.15 -25.8 L-7.85 -27.15 M-8.15 -25.8 L-7.3 -26.1 -8.15 -25.3 M-2.25 -9.45 L-4.45 -9.75 -5.8 -8.0 -8.6 -8.45" fill="none" stroke="#1a1a1a" stroke-linecap="round" stroke-linejoin="round" stroke-width="1.0"/>
    <path d="M-7.15 -14.5 L-10.65 -12.4 -13.3 -14.95 -14.3 -18.1 -14.85 -21.7 -14.9 -22.0 -14.95 -22.6 -14.95 -27.0 -14.25 -28.15 -12.85 -30.5 -9.3 -31.25 -6.8 -29.55 M-14.95 -27.0 L-13.2 -24.3 -12.85 -22.7 Q-12.45 -20.45 -12.3 -17.75 L-13.3 -14.95" fill="none" stroke="#1a1a1a" stroke-linecap="butt" stroke-linejoin="round" stroke-width="1.0"/>
    <path d="M9.85 -19.6 Q10.2 -18.65 10.05 -17.8 L9.8 -17.05" fill="none" stroke="#6b4605" stroke-linecap="round" stroke-linejoin="miter-clip" stroke-miterlimit="4.0" stroke-width="1.0"/>
    <path d="M7.3 -12.2 L9.9 -11.95 9.75 -8.8 9.7 -8.15 Q9.4 -5.3 8.65 -4.25 L7.2 -4.1 7.0 -7.35 6.85 -6.75 6.8 -6.55 6.6 -5.95 6.1 -4.4 3.45 -4.0 2.15 -6.2 1.25 -7.65 0.8 -10.65 0.65 -11.7 1.1 -12.05 2.4 -12.7 Q4.5 -13.5 6.65 -12.65 L6.75 -12.6 6.75 -12.55 7.1 -10.25 7.25 -9.3 7.35 -8.55 7.0 -7.35 7.0 -7.4 M-3.4 -6.2 L-4.8 -4.0 -7.45 -4.35 -8.6 -8.45 -8.05 -12.55 -7.55 -12.75 -6.85 -12.95 -7.15 -14.5 -7.45 -16.65 -7.55 -18.5 -9.8 -19.85 -10.65 -25.0 -8.15 -25.3 -5.95 -25.5 -2.95 -18.8 -0.35 -17.3 -0.1 -17.1 -0.3 -14.4 -1.95 -11.75 -2.1 -10.7 -2.25 -9.45 -2.5 -7.65 -3.4 -6.2 M-14.25 -28.15 L-10.65 -25.0 M-6.85 -12.95 L-6.15 -13.05 Q-3.8 -13.2 -1.95 -11.75 M-10.35 -14.75 L-9.55 -15.6" fill="none" stroke="#131313" stroke-linecap="round" stroke-linejoin="round" stroke-width="1.0"/>
    <path d="M2.15 -6.2 L-3.4 -6.2 M-2.1 -10.7 L0.8 -10.65" fill="none" stroke="#1a1a1a" stroke-linecap="butt" stroke-linejoin="miter-clip" stroke-miterlimit="4.0" stroke-width="1.0"/>
    <path d="M-7.3 -26.1 L-5.6 -26.1 -2.55 -19.2 0.45 -17.45 0.45 -16.75" fill="none" stroke="#444444" stroke-linecap="round" stroke-linejoin="round" stroke-width="1.0"/>
    <path d="M9.75 -17.0 L5.55 -18.0 5.9 -19.85 9.85 -19.6" fill="none" stroke="#1c1202" stroke-linecap="round" stroke-linejoin="round" stroke-width="1.0"/>
    <path d="M9.8 -17.05 L9.75 -17.0" fill="none" stroke="#1c1202" stroke-linecap="round" stroke-linejoin="miter-clip" stroke-miterlimit="4.0" stroke-width="1.0"/>
  </g>
</svg>
