<?xml version="1.0" encoding="UTF-8" standalone="no"?>
<svg xmlns:ffdec="https://www.free-decompiler.com/flash" xmlns:xlink="http://www.w3.org/1999/xlink" ffdec:objectType="shape" height="23.3px" width="14.45px" xmlns="http://www.w3.org/2000/svg">
  <g transform="matrix(1.0, 0.0, 0.0, 1.0, 7.35, 4.2)">
    <path d="M3.6 -1.05 L4.45 1.3 4.9 2.2 5.45 3.85 Q5.65 4.75 5.65 9.4 L4.9 9.4 Q4.15 9.5 3.85 9.9 L3.4 12.1 Q3.05 13.8 2.65 13.7 1.45 13.35 1.05 12.7 L-1.05 8.4 0.2 7.55 1.1 -0.5 3.6 -1.05" fill="#1f1f1f" fill-rule="evenodd" stroke="none"/>
    <path d="M-6.8 -1.55 L-5.15 -3.3 Q-4.65 -3.8 -4.15 -3.8 L-1.95 -3.1 Q-0.35 -2.4 0.15 -1.95 0.9 -1.25 1.2 -0.4 L0.45 7.55 -1.1 8.25 -2.8 7.15 -3.45 2.55 -5.8 0.6 -6.8 -1.55" fill="#282828" fill-rule="evenodd" stroke="none"/>
    <path d="M-1.0 8.5 L0.05 10.7" fill="none" stroke="#0d0d0d" stroke-linecap="round" stroke-linejoin="round" stroke-width="1.0"/>
    <path d="M5.6 9.4 L6.15 10.65 Q6.85 13.6 6.45 14.25 L5.6 15.3 3.95 15.55 2.4 15.3 2.0 14.3 1.9 13.75 2.55 13.65 3.1 11.1 3.7 9.75 5.6 9.4" fill="#1f1f1f" fill-rule="evenodd" stroke="none"/>
    <path d="M1.65 14.0 L5.75 15.4 Q6.25 15.55 5.45 17.15 4.55 18.65 3.25 18.6 2.6 18.6 2.15 17.45 1.6 16.05 1.65 14.0" fill="#141414" fill-rule="evenodd" stroke="none"/>
    <path d="M1.65 14.0 Q1.6 16.05 2.15 17.45 2.6 18.6 3.25 18.6 4.55 18.65 5.45 17.15 6.25 15.55 5.75 15.4" fill="none" stroke="#0d0d0d" stroke-linecap="round" stroke-linejoin="round" stroke-width="1.0"/>
    <path d="M5.75 9.45 L6.6 11.3 6.7 12.6 6.45 14.2 5.95 14.9 Q4.0 16.05 3.45 15.7 L2.35 14.55 1.55 13.6 2.6 13.6 2.8 12.1 Q3.05 10.7 3.45 10.35 3.65 10.1 4.65 9.8 L5.65 9.45 5.75 9.45" fill="#282828" fill-rule="evenodd" stroke="none"/>
    <path d="M-2.75 6.7 L-3.4 2.65 Q-3.45 2.35 -4.9 1.2 -6.45 0.0 -6.85 -1.4 -5.6 -4.2 -2.85 -3.6 -0.35 -3.1 -0.2 -2.3 L1.05 -0.85 0.35 7.75 -1.15 8.35 -2.75 6.7 Z" fill="none" stroke="#111111" stroke-linecap="round" stroke-linejoin="round" stroke-width="1.0"/>
    <path d="M5.6 9.15 Q5.65 5.75 5.35 4.05 5.25 3.0 4.55 1.1 L3.9 -0.65 3.45 -1.1 1.0 -0.6" fill="none" stroke="#0d0d0d" stroke-linecap="round" stroke-linejoin="round" stroke-width="1.0"/>
    <path d="M0.1 10.9 Q1.05 13.0 2.6 13.65" fill="none" stroke="#0d0d0d" stroke-linecap="round" stroke-linejoin="round" stroke-width="1.0"/>
    <path d="M5.95 9.35 L5.05 9.5 Q4.15 9.7 3.8 10.0 3.2 10.55 2.7 13.6" fill="none" stroke="#1a1a1a" stroke-linecap="round" stroke-linejoin="round" stroke-width="1.0"/>
    <path d="M5.75 9.6 Q7.1 11.7 6.25 14.65" fill="none" stroke="#0d0d0d" stroke-linecap="round" stroke-linejoin="round" stroke-width="1.0"/>
    <path d="M1.7 13.35 Q2.4 16.1 4.45 15.75 6.5 15.5 6.2 14.5" fill="none" stroke="#1a1a1a" stroke-linecap="round" stroke-linejoin="round" stroke-width="1.0"/>
    <path d="M5.65 8.4 L3.4 8.0 2.2 4.35 3.4 2.85 Q4.15 1.9 4.15 1.2 L5.35 2.0 6.1 7.75 5.65 8.4" fill="#282828" fill-rule="evenodd" stroke="none"/>
    <path d="M5.65 8.4 L3.4 8.0 2.2 4.35 3.4 2.85 Q4.15 1.9 4.15 1.2 L5.35 2.0 6.1 7.75 5.65 8.4 Z" fill="none" stroke="#1a1a1a" stroke-linecap="round" stroke-linejoin="round" stroke-width="1.0"/>
    <path d="M4.2 3.75 L5.85 3.85 6.2 6.85 4.5 6.8 Q3.8 5.35 4.2 3.75" fill="#f3ab05" fill-rule="evenodd" stroke="none"/>
    <path d="M4.2 3.75 L5.85 3.85 6.2 6.85 4.5 6.8 Q3.8 5.35 4.2 3.75 Z" fill="none" stroke="#261c04" stroke-linecap="round" stroke-linejoin="round" stroke-width="1.0"/>
    <path d="M-4.95 -1.65 Q-2.7 -3.0 -0.4 -0.55 L-4.95 -1.65" fill="#282828" fill-rule="evenodd" stroke="none"/>
    <path d="M-4.95 -1.65 Q-2.7 -3.0 -0.4 -0.55" fill="none" stroke="#212121" stroke-linecap="round" stroke-linejoin="round" stroke-width="1.0"/>
  </g>
</svg>
