<?xml version="1.0" encoding="UTF-8" standalone="no"?>
<svg xmlns:ffdec="https://www.free-decompiler.com/flash" xmlns:xlink="http://www.w3.org/1999/xlink" ffdec:objectType="shape" height="24.6px" width="11.6px" xmlns="http://www.w3.org/2000/svg">
  <g transform="matrix(1.0, 0.0, 0.0, 1.0, 6.3, 4.5)">
    <path d="M-2.3 -1.95 Q-1.15 -1.7 0.0 -2.2 L1.85 -2.85 Q2.55 -2.7 2.95 -2.1 L3.3 -1.1 3.25 0.25 2.2 6.15 Q1.25 10.45 1.0 13.3 0.95 14.2 1.4 16.2 L2.0 19.05 -2.0 19.4 Q-4.55 19.85 -5.8 19.4 -5.15 18.5 -5.0 12.1 -4.8 4.1 -4.45 1.45 -4.2 -0.2 -3.8 -1.0 -3.25 -2.15 -2.3 -1.95" fill="#626575" fill-rule="evenodd" stroke="none"/>
    <path d="M-2.3 -1.95 Q-1.15 -1.7 0.0 -2.2 L1.85 -2.85 Q2.55 -2.7 2.95 -2.1 L3.3 -1.1 3.25 0.25 2.2 6.15 Q1.25 10.45 1.0 13.3 0.95 14.2 1.4 16.2 L2.0 19.05 -2.0 19.4 Q-4.55 19.85 -5.8 19.4 -5.15 18.5 -5.0 12.1 -4.8 4.1 -4.45 1.45 -4.2 -0.2 -3.8 -1.0 -3.25 -2.15 -2.3 -1.95 Z" fill="none" stroke="#393c47" stroke-linecap="round" stroke-linejoin="round" stroke-width="1.05"/>
    <path d="M1.15 -1.05 Q1.1 0.2 0.15 2.05 L-0.85 3.65" fill="none" stroke="#494d5c" stroke-linecap="round" stroke-linejoin="round" stroke-width="1.05"/>
    <path d="M-4.2 -1.65 Q-3.9 -2.05 -0.15 -2.8 L3.6 -3.2 Q3.35 -1.65 3.6 0.1 L-0.4 0.0 -4.45 0.0 -4.25 -0.6 Q-3.95 -1.25 -4.2 -1.65" fill="#626262" fill-rule="evenodd" stroke="none"/>
    <path d="M-4.2 -1.65 Q-3.95 -1.25 -4.25 -0.6 L-4.45 0.0 -0.4 0.0 3.6 0.1 Q3.35 -1.65 3.6 -3.2 L-0.15 -2.8 Q-3.9 -2.05 -4.2 -1.65 Z" fill="none" stroke="#494949" stroke-linecap="round" stroke-linejoin="round" stroke-width="1.05"/>
    <path d="M-3.55 8.8 Q-3.4 7.7 -2.85 6.65 L-2.35 5.8" fill="none" stroke="#494d5c" stroke-linecap="round" stroke-linejoin="round" stroke-width="1.05"/>
    <path d="M-1.25 17.45 Q-2.1 16.3 -1.6 14.35 L-0.85 12.65" fill="none" stroke="#494d5c" stroke-linecap="round" stroke-linejoin="round" stroke-width="1.05"/>
    <path d="M-0.6 -1.2 L2.0 -1.5" fill="none" stroke="#494949" stroke-linecap="round" stroke-linejoin="round" stroke-width="1.05"/>
    <path d="M3.8 0.85 Q1.5 -0.3 1.75 -1.8 1.95 -3.25 4.25 -4.0 4.85 -3.4 4.8 -1.8 4.7 -0.1 3.8 0.85" fill="#626262" fill-rule="evenodd" stroke="none"/>
    <path d="M3.8 0.85 Q4.7 -0.1 4.8 -1.8 4.85 -3.4 4.25 -4.0 1.95 -3.25 1.75 -1.8 1.5 -0.3 3.8 0.85 Z" fill="none" stroke="#3c3c3c" stroke-linecap="round" stroke-linejoin="round" stroke-width="1.05"/>
  </g>
</svg>
