<?xml version="1.0" encoding="UTF-8" standalone="no"?>
<svg xmlns:ffdec="https://www.free-decompiler.com/flash" xmlns:xlink="http://www.w3.org/1999/xlink" ffdec:objectType="shape" height="32.6px" width="84.9px" xmlns="http://www.w3.org/2000/svg">
  <g transform="matrix(1.0, 0.0, 0.0, 1.0, 25.15, 10.1)">
    <path d="M47.3 -5.35 Q59.75 -0.55 59.75 6.2 59.75 12.95 47.3 17.7 34.9 22.5 17.3 22.5 -0.3 22.5 -12.75 17.7 -25.15 12.95 -25.15 6.2 -25.15 -0.55 -12.75 -5.35 -0.3 -10.1 17.3 -10.1 34.9 -10.1 47.3 -5.35" fill="url(#gradient0)" fill-rule="evenodd" stroke="none"/>
    <path d="M31.3 9.45 L-1.4 9.45 -0.1 6.85 35.85 6.8 31.3 9.45 M26.65 4.8 L0.25 4.8 -1.4 2.2 19.85 2.2 26.65 4.8" fill="#ffffff" fill-rule="evenodd" stroke="none"/>
    <path d="M31.3 9.45 L-1.4 9.45 -0.1 6.85 35.85 6.8 31.3 9.45 M26.65 4.8 L0.25 4.8 -1.4 2.2 19.85 2.2 26.65 4.8 Z" fill="none" stroke="#cccccc" stroke-linecap="round" stroke-linejoin="round" stroke-width="1.0"/>
  </g>
  <defs>
    <radialGradient cx="0" cy="0" gradientTransform="matrix(0.0396, 0.0, 0.0, 0.0177, 17.3, 6.2)" gradientUnits="userSpaceOnUse" id="gradient0" r="819.2" spreadMethod="pad">
      <stop offset="0.0" stop-color="#ffffff"/>
      <stop offset="1.0" stop-color="#ffffff" stop-opacity="0.0"/>
    </radialGradient>
  </defs>
</svg>
