<?xml version="1.0" encoding="UTF-8" standalone="no"?>
<svg xmlns:ffdec="https://www.free-decompiler.com/flash" xmlns:xlink="http://www.w3.org/1999/xlink" ffdec:objectType="shape" height="25.05px" width="14.5px" xmlns="http://www.w3.org/2000/svg">
  <g transform="matrix(1.0, 0.0, 0.0, 1.0, 2.7, 3.65)">
    <path d="M-2.25 1.5 L5.85 -1.2 Q6.35 0.45 6.9 1.15 L9.0 3.05 8.75 7.0 9.65 9.95 10.7 14.35 4.95 17.7 Q3.85 16.3 2.3 13.05 L0.95 9.95 -1.9 7.3 Q-1.4 5.55 -2.25 1.5" fill="#2c1b38" fill-rule="evenodd" stroke="none"/>
    <path d="M-2.25 1.5 Q-1.4 5.55 -1.9 7.3 L0.95 9.95 2.3 13.05 Q3.85 16.3 4.95 17.7 L10.7 14.35 9.65 9.95 8.75 7.0 9.0 3.05 6.9 1.15 Q6.35 0.45 5.85 -1.2 L-2.25 1.5 Z" fill="none" stroke="#120c17" stroke-linecap="round" stroke-linejoin="round" stroke-width="0.9500000000000001"/>
    <path d="M-2.25 1.5 L-1.15 -1.6 3.4 -3.2 5.85 -1.2 4.7 3.25 2.2 4.25 -2.25 1.5" fill="#1c1224" fill-rule="evenodd" stroke="none"/>
    <path d="M-2.25 1.5 L-1.15 -1.6 3.4 -3.2 5.85 -1.2 4.7 3.25 2.2 4.25 -2.25 1.5 Z" fill="none" stroke="#08060a" stroke-linecap="round" stroke-linejoin="round" stroke-width="0.9500000000000001"/>
    <path d="M10.3 14.5 L10.6 15.0 11.05 16.15 11.35 19.05 Q11.4 20.6 10.5 20.9 9.3 21.25 7.4 19.35 L5.65 17.35 10.3 14.5" fill="#1c1224" fill-rule="evenodd" stroke="none"/>
    <path d="M10.3 14.5 L10.6 15.0 11.05 16.15 11.35 19.05 Q11.4 20.6 10.5 20.9 9.3 21.25 7.4 19.35 L5.65 17.35 10.3 14.5 Z" fill="none" stroke="#08060a" stroke-linecap="round" stroke-linejoin="round" stroke-width="0.9500000000000001"/>
    <path d="M-1.75 5.0 L-2.25 1.5 2.2 4.25 4.7 3.25 5.6 -0.35 7.45 1.75 6.1 5.6 9.75 14.9 7.0 16.55 2.45 7.15 -1.75 5.0" fill="#2c1b38" fill-rule="evenodd" stroke="none"/>
    <path d="M-1.75 5.0 L2.45 7.15 7.0 16.55 9.75 14.9 6.1 5.6 7.45 1.75 5.6 -0.35 4.7 3.25 2.2 4.25 -2.25 1.5 -1.75 5.0 Z" fill="none" stroke="#120c17" stroke-linecap="round" stroke-linejoin="round" stroke-width="0.9500000000000001"/>
  </g>
</svg>
