<?xml version="1.0" encoding="UTF-8" standalone="no"?>
<svg xmlns:ffdec="https://www.free-decompiler.com/flash" xmlns:xlink="http://www.w3.org/1999/xlink" ffdec:objectType="shape" height="22.5px" width="13.2px" xmlns="http://www.w3.org/2000/svg">
  <g transform="matrix(1.0, 0.0, 0.0, 1.0, 2.75, 3.4)">
    <path d="M-1.75 0.2 L3.9 -0.5 Q8.2 5.5 8.15 13.2 L9.95 17.45 Q8.45 18.05 6.45 14.15 5.75 7.0 2.0 1.8 0.75 2.85 1.05 5.55 7.15 18.1 5.35 18.6 L-1.75 4.55 Q-2.75 1.95 -1.75 0.2" fill="url(#gradient0)" fill-rule="evenodd" stroke="none"/>
    <path d="M-1.75 0.2 Q-2.75 1.95 -1.75 4.55 L5.35 18.6 Q7.15 18.1 1.05 5.55 0.75 2.85 2.0 1.8 5.75 7.0 6.45 14.15 8.45 18.05 9.95 17.45 L8.15 13.2 Q8.2 5.5 3.9 -0.5 L-1.75 0.2 Z" fill="none" stroke="#3d3b3b" stroke-linecap="round" stroke-linejoin="round" stroke-width="1.0"/>
    <path d="M-2.2 1.4 Q-2.15 -0.35 -1.4 -1.9 -0.15 -3.65 2.0 -2.4 3.65 -1.4 4.3 0.1 1.45 1.85 -2.2 1.4" fill="#605c82" fill-rule="evenodd" stroke="none"/>
    <path d="M9.2 12.05 Q8.35 16.55 2.9 15.25 3.4 13.1 5.05 11.45 L9.2 12.05" fill="#4b6c68" fill-rule="evenodd" stroke="none"/>
    <path d="M-2.2 1.4 Q1.45 1.85 4.3 0.1 3.65 -1.4 2.0 -2.4 -0.15 -3.65 -1.4 -1.9 -2.15 -0.35 -2.2 1.4" fill="none" stroke="#443f47" stroke-linecap="round" stroke-linejoin="round" stroke-width="1.0"/>
    <path d="M9.2 12.05 Q8.35 16.55 2.9 15.25 3.4 13.1 5.05 11.45 L9.2 12.05 Z" fill="none" stroke="#2f4240" stroke-linecap="round" stroke-linejoin="round" stroke-width="1.0"/>
  </g>
  <defs>
    <linearGradient gradientTransform="matrix(0.004, -0.0013, 0.0037, 0.0108, 3.2, 8.5)" gradientUnits="userSpaceOnUse" id="gradient0" spreadMethod="pad" x1="-819.2" x2="819.2">
      <stop offset="0.0" stop-color="#6c7145"/>
      <stop offset="0.24313725490196078" stop-color="#5d6041"/>
      <stop offset="0.5333333333333333" stop-color="#5b5e40"/>
      <stop offset="0.7607843137254902" stop-color="#5c5f40"/>
      <stop offset="1.0" stop-color="#6c7145"/>
    </linearGradient>
  </defs>
</svg>
