<?xml version="1.0" encoding="UTF-8" standalone="no"?>
<svg xmlns:xlink="http://www.w3.org/1999/xlink" height="29.1px" width="33.5px" xmlns="http://www.w3.org/2000/svg">
  <g transform="matrix(1.0, 0.0, 0.0, 1.0, 21.35, 28.75)">
    <path d="M-18.15 -12.5 L-16.9 -10.6 -14.85 -7.6 -11.6 -12.45 -9.4 -13.5 -7.05 -12.7 -6.9 -12.65 -11.75 -4.95 -12.65 -3.5 -20.85 -4.35 -20.0 -5.7 -18.95 -7.4 -19.9 -9.5 -18.15 -12.5 M-20.0 -5.7 L-11.75 -4.95 -20.0 -5.7 M-18.95 -7.4 L-16.9 -10.6 -18.95 -7.4" fill="#cfdadd" fill-rule="evenodd" stroke="none"/>
    <path d="M-6.9 -12.65 L-11.75 -4.95 -12.65 -3.5 -20.85 -4.35 -20.0 -5.7 -18.95 -7.4 -19.9 -9.5 -18.15 -12.5 M-16.9 -10.6 L-18.95 -7.4" fill="none" stroke="#65687a" stroke-linecap="round" stroke-linejoin="round" stroke-width="1.0"/>
    <path d="M-11.75 -4.95 L-20.0 -5.7" fill="none" stroke="#424651" stroke-linecap="round" stroke-linejoin="round" stroke-width="1.0"/>
    <path d="M-5.3 -26.85 Q-4.85 -28.0 -3.55 -28.15 L0.2 -27.85 3.25 -26.95 Q4.4 -26.6 4.9 -25.35 L5.85 -22.8 0.85 -23.25 Q-1.3 -23.7 -2.2 -25.0 -2.65 -25.7 -2.7 -26.25 L-5.3 -26.85 M6.05 -7.25 L6.0 -5.3 3.8 -4.95 0.6 -6.6 -2.2 -6.2 -6.45 -7.4 Q-6.0 -10.45 -6.1 -12.4 L-4.0 -11.75 -1.65 -12.5 1.4 -11.7 1.4 -9.5 6.0 -7.25 6.05 -7.25 6.0 -7.25 6.05 -7.3 6.05 -7.25" fill="#2d3240" fill-rule="evenodd" stroke="none"/>
    <path d="M-0.75 -21.8 L1.15 -20.5 0.85 -15.0 -1.55 -14.55 -0.75 -21.8 M-6.75 -21.25 L-5.95 -22.0 -4.55 -21.4 -4.55 -20.45 -6.75 -21.25 M-8.0 -18.5 L-7.15 -19.3 -5.75 -18.7 -5.75 -17.7 -8.0 -18.5 M-9.05 -15.75 L-8.25 -16.5 -6.9 -15.9 -6.9 -14.95 -9.05 -15.75" fill="#4b5975" fill-rule="evenodd" stroke="none"/>
    <path d="M5.85 -22.8 L8.0 -22.6 9.6 -20.25 Q11.25 -17.2 11.65 -13.6 L9.95 -12.85 Q8.15 -11.45 7.65 -8.05 L6.95 -7.7 6.05 -7.3 6.0 -7.25 1.4 -9.5 1.4 -11.7 -1.65 -12.5 -4.0 -11.75 -6.1 -12.4 -9.4 -13.5 -11.6 -12.45 -14.85 -7.6 -18.95 -13.7 -17.0 -17.15 -18.05 -18.85 -15.7 -23.65 -13.75 -24.05 -12.85 -26.15 -10.45 -26.85 -8.05 -25.9 -6.05 -27.05 -5.3 -26.85 -2.7 -26.25 Q-2.65 -25.7 -2.2 -25.0 -1.3 -23.7 0.85 -23.25 L5.85 -22.8 M7.05 -4.3 L7.55 -2.65 5.75 -0.15 5.6 -0.15 5.25 -0.25 4.9 -0.35 -0.1 -1.7 -2.35 -1.5 -7.1 -2.4 Q-7.85 -4.25 -7.45 -5.9 L-7.3 -6.3 -2.45 -4.95 0.35 -5.45 3.55 -3.7 7.05 -4.3 M3.95 -18.0 L4.05 -14.75 11.5 -13.8 Q10.9 -17.85 9.35 -20.5 L8.0 -22.35 2.9 -22.85 Q3.65 -21.5 3.95 -18.0 M-1.55 -14.55 L0.85 -15.0 1.15 -20.5 -0.75 -21.8 -1.55 -14.55 M3.55 -11.0 L4.05 -12.3 3.55 -11.0 M5.55 -10.0 L6.3 -11.95 5.55 -10.0 M5.75 -0.15 L5.25 -0.25 5.75 -0.15 M-9.5 -25.05 L-11.65 -25.3 -13.25 -21.45 -10.5 -18.3 -8.25 -22.8 -9.5 -25.05 M-4.55 -20.45 L-4.55 -21.4 -5.95 -22.0 -6.75 -21.25 -4.55 -20.45 M-5.75 -17.7 L-5.75 -18.7 -7.15 -19.3 -8.0 -18.5 -5.75 -17.7 M-6.9 -14.95 L-6.9 -15.9 -8.25 -16.5 -9.05 -15.75 -6.9 -14.95 M-13.55 -13.75 L-15.3 -16.25 -13.55 -13.75 M-11.9 -16.25 L-13.75 -18.5 -11.9 -16.25" fill="#738aa1" fill-rule="evenodd" stroke="none"/>
    <path d="M3.95 -18.0 Q3.65 -21.5 2.9 -22.85 L8.0 -22.35 9.35 -20.5 Q10.9 -17.85 11.5 -13.8 L4.05 -14.75 3.95 -18.0" fill="#8f9dae" fill-rule="evenodd" stroke="none"/>
    <path d="M6.0 -5.3 L6.75 -5.45 7.2 -4.35 7.05 -4.3 3.55 -3.7 0.35 -5.45 -2.45 -4.95 -7.3 -6.3 -7.6 -6.4 -7.05 -7.6 -6.45 -7.4 -2.2 -6.2 0.6 -6.6 3.8 -4.95 6.0 -5.3" fill="#938982" fill-rule="evenodd" stroke="none"/>
    <path d="M-9.5 -25.05 L-8.25 -22.8 -10.5 -18.3 -13.25 -21.45 -11.65 -25.3 -9.5 -25.05" fill="#b6a9a2" fill-rule="evenodd" stroke="none"/>
    <path d="M-5.3 -26.85 Q-4.85 -28.0 -3.55 -28.15 L0.2 -27.85 3.25 -26.95 Q4.4 -26.6 4.9 -25.35 L5.85 -22.8 M6.05 -7.25 L6.0 -5.3 M-6.45 -7.4 Q-6.0 -10.45 -6.1 -12.4 M6.05 -7.3 L6.05 -7.25" fill="none" stroke="#222226" stroke-linecap="round" stroke-linejoin="round" stroke-width="1.0"/>
    <path d="M-1.55 -14.55 L0.85 -15.0 1.15 -20.5 -0.75 -21.8 M-4.55 -20.45 L-4.55 -21.4 -5.95 -22.0 -6.75 -21.25 M-5.75 -17.7 L-5.75 -18.7 -7.15 -19.3 -8.0 -18.5 M-6.9 -14.95 L-6.9 -15.9 -8.25 -16.5 -9.05 -15.75" fill="none" stroke="#2e2d3f" stroke-linecap="round" stroke-linejoin="round" stroke-width="1.0"/>
    <path d="M5.85 -22.8 L8.0 -22.6 9.6 -20.25 Q11.25 -17.2 11.65 -13.6 L9.95 -12.85 Q8.15 -11.45 7.65 -8.05 L6.95 -7.7 6.05 -7.25 6.0 -7.25 1.4 -9.5 1.4 -11.7 -1.65 -12.5 -4.0 -11.75 -6.1 -12.4 -9.4 -13.5 -11.6 -12.45 -14.85 -7.6 -18.95 -13.7 -17.0 -17.15 -18.05 -18.85 -15.7 -23.65 -13.75 -24.05 -12.85 -26.15 -10.45 -26.85 -8.05 -25.9 -6.05 -27.05 -5.3 -26.85 -2.7 -26.25 Q-2.65 -25.7 -2.2 -25.0 -1.3 -23.7 0.85 -23.25 L5.85 -22.8 M7.05 -4.3 L7.55 -2.65 5.75 -0.15 5.25 -0.25 4.9 -0.35 -0.1 -1.7 -2.35 -1.5 -7.1 -2.4 Q-7.85 -4.25 -7.45 -5.9 L-7.3 -6.3" fill="none" stroke="#424651" stroke-linecap="round" stroke-linejoin="round" stroke-width="1.0"/>
    <path d="M6.3 -11.95 L5.55 -10.0 M4.05 -12.3 L3.55 -11.0" fill="none" stroke="#575d6c" stroke-linecap="round" stroke-linejoin="round" stroke-width="1.0"/>
    <path d="M6.0 -5.3 L6.75 -5.45 7.2 -4.35 7.05 -4.3 3.55 -3.7 0.35 -5.45 -2.45 -4.95 -7.3 -6.3 -7.6 -6.4 -7.05 -7.6 -6.45 -7.4 -2.2 -6.2 0.6 -6.6 3.8 -4.95 6.0 -5.3" fill="none" stroke="#52504e" stroke-linecap="round" stroke-linejoin="round" stroke-width="1.0"/>
    <path d="M-9.5 -25.05 L-8.25 -22.8 -10.5 -18.3 -13.25 -21.45 -11.65 -25.3 -9.5 -25.05 M-13.75 -18.5 L-11.9 -16.25 M-15.3 -16.25 L-13.55 -13.75" fill="none" stroke="#4f4c4a" stroke-linecap="round" stroke-linejoin="round" stroke-width="1.0"/>
  </g>
</svg>
