<?xml version="1.0" encoding="UTF-8" standalone="no"?>
<svg xmlns:xlink="http://www.w3.org/1999/xlink" height="400.0px" width="800.0px" xmlns="http://www.w3.org/2000/svg">
  <g transform="matrix(1.0, 0.0, 0.0, 1.0, 0.0, 0.0)">
    <path d="M800.0 400.0 L0.0 400.0 0.0 0.0 800.0 0.0 800.0 400.0" fill="#000000" fill-opacity="0.6" fill-rule="evenodd" stroke="none"/>
    <path d="M683.0 301.05 L116.0 301.05 116.0 28.0 683.0 28.0 683.0 301.05" fill="#000000" fill-opacity="0.8" fill-rule="evenodd" stroke="none"/>
    <path d="M683.0 301.05 L116.0 301.05 116.0 28.0 683.0 28.0 683.0 301.05 Z" fill="none" stroke="#000000" stroke-linecap="round" stroke-linejoin="round" stroke-width="1.0"/>
    <path d="M667.05 61.95 L417.7 61.95 321.9 61.95 321.9 43.95 667.05 43.95 667.05 61.95 M667.05 233.0 L417.7 233.0 415.9 233.0 340.55 233.0 321.9 233.0 321.9 215.0 340.55 215.0 415.9 215.0 667.05 215.0 667.05 233.0 M667.05 202.0 L417.7 202.0 415.9 202.0 340.55 202.0 321.9 202.0 321.9 184.0 340.55 184.0 415.9 184.0 667.05 184.0 667.05 202.0 M615.85 174.0 L403.45 174.0 321.85 174.0 321.85 156.0 615.85 156.0 615.85 174.0" fill="#333333" fill-rule="evenodd" stroke="none"/>
  </g>
</svg>
