<?xml version="1.0" encoding="UTF-8" standalone="no"?>
<svg xmlns:ffdec="https://www.free-decompiler.com/flash" xmlns:xlink="http://www.w3.org/1999/xlink" ffdec:objectType="shape" height="27.05px" width="14.7px" xmlns="http://www.w3.org/2000/svg">
  <g transform="matrix(1.0, 0.0, 0.0, 1.0, 4.3, 2.55)">
    <path d="M5.1 0.5 L6.25 4.5 6.5 5.25 7.05 7.3 7.85 11.35 8.4 12.45 9.25 14.65 Q9.5 15.4 9.4 16.8 9.25 18.3 8.7 19.0 L7.6 19.1 6.35 18.65 Q6.0 18.55 5.5 17.4 L4.9 16.05 Q3.95 15.3 3.8 14.15 L3.9 13.15 1.05 9.2 Q-1.65 5.0 -1.05 4.05 -0.4 2.8 0.4 2.05 L1.05 1.5 1.85 0.85 3.2 0.1 4.2 -0.05 Q4.7 -0.1 5.1 0.5" fill="#434343" fill-rule="evenodd" stroke="none"/>
    <path d="M5.1 0.5 L6.25 4.5 6.5 5.25 7.05 7.3 7.85 11.35 8.4 12.45 9.25 14.65 Q9.5 15.4 9.4 16.8 9.25 18.3 8.7 19.0 L7.6 19.1 6.35 18.65 Q6.0 18.55 5.5 17.4 L4.9 16.05 Q3.95 15.3 3.8 14.15 L3.9 13.15 1.05 9.2 Q-1.65 5.0 -1.05 4.05 -0.4 2.8 0.4 2.05 L1.05 1.5 1.85 0.85 3.2 0.1 4.2 -0.05 Q4.7 -0.1 5.1 0.5 Z" fill="none" stroke="#262626" stroke-linecap="butt" stroke-linejoin="miter-clip" stroke-miterlimit="15.12109375" stroke-width="1.0"/>
    <path d="M5.35 0.35 Q5.55 1.2 2.5 2.0 L-2.0 4.4 Q-2.9 4.55 -3.4 3.0 -4.0 -1.25 -0.1 -1.9 3.7 -2.55 5.35 0.35" fill="#98938e" fill-rule="evenodd" stroke="none"/>
    <path d="M5.35 0.35 Q5.55 1.2 2.5 2.0 L-2.0 4.4 Q-2.9 4.55 -3.4 3.0 -4.0 -1.25 -0.1 -1.9 3.7 -2.55 5.35 0.35 Z" fill="none" stroke="#4d4b47" stroke-linecap="round" stroke-linejoin="round" stroke-width="1.0"/>
    <path d="M0.5 5.2 L-0.55 3.65 Q-1.1 2.45 0.0 1.65 1.15 0.95 2.45 1.4 3.0 1.6 3.2 1.85 3.55 2.25 3.7 3.25 L3.25 4.5 Q3.1 5.1 1.7 5.45 L0.5 5.2" fill="#84807b" fill-rule="evenodd" stroke="none"/>
    <path d="M0.5 5.2 L1.7 5.45 Q3.1 5.1 3.25 4.5 L3.7 3.25 Q3.55 2.25 3.2 1.85 3.0 1.6 2.45 1.4 1.15 0.95 0.0 1.65 -1.1 2.45 -0.55 3.65 L0.5 5.2 Z" fill="none" stroke="#5c5955" stroke-linecap="round" stroke-linejoin="round" stroke-width="1.0"/>
    <path d="M7.75 5.0 L8.15 6.65 8.3 9.1 8.15 10.15 9.15 10.9 9.5 13.95 7.1 16.2 4.25 15.9 3.2 13.15 -0.4 8.45 -0.2 7.0 2.1 7.15 4.95 5.2 5.45 4.55 6.1 3.85 6.75 4.45 7.75 5.0" fill="#8a8681" fill-rule="evenodd" stroke="none"/>
    <path d="M5.6 3.55 Q6.15 3.55 6.7 4.0 L7.75 5.0 8.2 8.85 8.0 9.9 9.05 10.65 9.85 14.4 7.45 16.65 4.6 16.35 3.1 12.9 Q1.35 11.7 0.15 9.85 -1.0 8.0 -0.85 6.5" fill="none" stroke="#4d4b47" stroke-linecap="round" stroke-linejoin="round" stroke-width="1.0"/>
    <path d="M-0.9 6.35 L0.7 7.3 Q3.75 7.6 5.45 5.05 L5.4 4.25 Q5.25 3.6 5.4 3.55" fill="none" stroke="#585655" stroke-linecap="round" stroke-linejoin="round" stroke-width="1.0"/>
    <path d="M3.3 13.2 L7.15 11.8 8.2 10.2" fill="none" stroke="#545454" stroke-linecap="round" stroke-linejoin="round" stroke-width="1.0"/>
    <path d="M6.5 9.8 L6.1 10.4" fill="none" stroke="#676463" stroke-linecap="round" stroke-linejoin="round" stroke-width="1.0"/>
    <path d="M6.2 7.9 L5.7 8.65" fill="none" stroke="#676463" stroke-linecap="round" stroke-linejoin="round" stroke-width="1.0"/>
    <path d="M0.5 9.15 Q1.9 8.9 2.55 9.65 3.25 10.45 2.45 12.1" fill="none" stroke="#735f5f" stroke-linecap="round" stroke-linejoin="miter-clip" stroke-miterlimit="15.12109375" stroke-width="1.0"/>
    <path d="M8.45 10.2 L9.85 13.55 9.6 14.75 7.2 17.0 4.35 16.7 3.7 13.2 7.3 11.8 8.45 10.2" fill="#5f5f5f" fill-opacity="0.32941177" fill-rule="evenodd" stroke="none"/>
    <path d="M4.9 -2.05 L5.65 0.5 5.15 0.95 5.75 3.2 7.7 4.85 8.4 9.9 9.15 10.5 9.9 14.55 7.5 16.95 4.5 16.75 3.05 13.1 Q1.2 11.45 0.3 10.1 -0.6 8.75 -1.3 6.4 L-0.55 6.75 -0.95 4.7 -1.5 3.85 -2.75 4.45 -3.45 2.8 Q-3.65 2.35 -3.5 1.65 L-3.35 1.05" fill="none" stroke="#000000" stroke-linecap="round" stroke-linejoin="round" stroke-opacity="0.15686275" stroke-width="1.0"/>
  </g>
</svg>
