<?xml version="1.0" encoding="UTF-8" standalone="no"?>
<svg xmlns:xlink="http://www.w3.org/1999/xlink" height="25.8px" width="16.9px" xmlns="http://www.w3.org/2000/svg">
  <g transform="matrix(1.0, 0.0, 0.0, 1.0, 8.9, 28.4)">
    <path d="M-4.6 -9.35 L-5.3 -11.9 Q-7.05 -15.8 -7.2 -19.8 -7.3 -24.0 -5.45 -25.55 -4.05 -26.7 -2.9 -27.25 -1.3 -27.95 0.4 -27.9 1.4 -27.8 2.15 -27.15 L3.45 -25.65 4.15 -24.0 4.75 -22.35 5.75 -20.5 6.2 -19.1 Q6.45 -18.15 6.0 -17.0 5.5 -15.8 4.45 -15.0 3.6 -14.25 3.45 -13.05 3.35 -11.85 3.95 -10.7 L4.4 -9.35 -4.6 -9.35" fill="url(#gradient0)" fill-rule="evenodd" stroke="none"/>
    <path d="M-4.6 -9.35 L4.4 -9.35 Q4.8 -8.25 4.8 -6.85 4.8 -4.9 4.0 -4.2 3.05 -3.4 -0.05 -3.2 L-3.0 -3.1 -4.15 -3.65 Q-4.65 -4.05 -4.65 -4.5 L-4.4 -5.9 Q-4.15 -6.8 -4.2 -7.35 -4.25 -8.25 -4.6 -9.35" fill="url(#gradient1)" fill-rule="evenodd" stroke="none"/>
    <path d="M4.4 -9.35 L3.95 -10.7 Q3.35 -11.85 3.45 -13.05 3.6 -14.25 4.45 -15.0 5.5 -15.8 6.0 -17.0 6.45 -18.15 6.2 -19.1 L5.75 -20.5 4.75 -22.35 4.15 -24.0 3.45 -25.65 2.15 -27.15 Q1.4 -27.8 0.4 -27.9 -1.3 -27.95 -2.9 -27.25 -4.05 -26.7 -5.45 -25.55 -7.3 -24.0 -7.2 -19.8 -7.05 -15.8 -5.3 -11.9 L-4.6 -9.35 Q-4.25 -8.25 -4.2 -7.35 -4.15 -6.8 -4.4 -5.9 L-4.65 -4.5 Q-4.65 -4.05 -4.15 -3.65 L-3.0 -3.1 -0.05 -3.2 Q3.05 -3.4 4.0 -4.2 4.8 -4.9 4.8 -6.85 4.8 -8.25 4.4 -9.35 Z" fill="none" stroke="#4b4b3e" stroke-linecap="round" stroke-linejoin="round" stroke-width="1.05"/>
    <path d="M-1.0 -7.45 Q-0.8 -6.3 -1.9 -5.2 L-3.05 -4.35" fill="none" stroke="#6c6c5e" stroke-linecap="round" stroke-linejoin="round" stroke-width="1.05"/>
    <path d="M0.1 -10.15 Q0.45 -8.6 2.05 -7.5 2.8 -6.95 3.55 -6.75" fill="none" stroke="#6c6c5e" stroke-linecap="round" stroke-linejoin="round" stroke-width="1.05"/>
    <path d="M2.2 -10.85 Q1.35 -11.65 0.2 -12.25 L-0.8 -12.65" fill="none" stroke="#6c6c5e" stroke-linecap="round" stroke-linejoin="round" stroke-width="1.05"/>
    <path d="M-4.2 -21.75 Q-3.9 -19.3 -1.85 -18.4 -0.8 -17.9 0.2 -17.95" fill="none" stroke="#6c6c5e" stroke-linecap="round" stroke-linejoin="round" stroke-width="1.05"/>
    <path d="M-5.7 -26.2 Q-4.85 -26.95 -3.4 -27.1 L0.9 -26.5 Q3.75 -25.9 3.85 -25.45 L5.6 -22.85 Q7.3 -20.55 7.45 -19.4 7.65 -17.7 7.05 -15.55 L6.3 -12.4 6.3 -10.2 6.05 -9.55 Q5.6 -9.15 -0.55 -9.45 -6.7 -9.75 -6.75 -10.35 L-8.1 -16.2 Q-8.95 -21.25 -7.35 -24.1 -6.4 -25.65 -5.7 -26.2 M-5.3 -22.35 L-6.15 -19.75 -5.85 -18.55 -4.3 -14.4 -0.8 -14.05 2.65 -14.35 4.0 -16.65 Q4.35 -17.25 3.9 -19.9 3.5 -22.45 2.95 -23.3 2.65 -23.75 0.5 -24.5 L-2.25 -25.35 Q-3.15 -25.25 -4.05 -24.35 L-5.3 -22.35" fill="#8d8879" fill-rule="evenodd" stroke="none"/>
    <path d="M-5.3 -22.35 L-4.05 -24.35 Q-3.15 -25.25 -2.25 -25.35 L0.5 -24.5 Q2.65 -23.75 2.95 -23.3 3.5 -22.45 3.9 -19.9 4.35 -17.25 4.0 -16.65 L2.65 -14.35 -0.8 -14.05 -4.3 -14.4 -5.85 -18.55 -6.15 -19.75 -5.3 -22.35 M-5.7 -26.2 Q-6.4 -25.65 -7.35 -24.1 -8.95 -21.25 -8.1 -16.2 L-6.75 -10.35 Q-6.7 -9.75 -0.55 -9.45 5.6 -9.15 6.05 -9.55 L6.3 -10.2 6.3 -12.4 7.05 -15.55 Q7.65 -17.7 7.45 -19.4 7.3 -20.55 5.6 -22.85 L3.85 -25.45 Q3.75 -25.9 0.9 -26.5 L-3.4 -27.1 Q-4.85 -26.95 -5.7 -26.2" fill="none" stroke="#504a38" stroke-linecap="round" stroke-linejoin="round" stroke-width="1.05"/>
    <path d="M1.9 -11.1 Q2.05 -11.55 3.15 -11.6 4.25 -11.6 4.4 -11.9 5.05 -13.05 5.2 -14.9 L5.25 -16.5" fill="none" stroke="#797362" stroke-linecap="round" stroke-linejoin="round" stroke-width="1.05"/>
    <path d="M-4.3 -14.4 Q-5.45 -13.1 -5.45 -12.65 -5.5 -11.75 -3.2 -10.95" fill="none" stroke="#797362" stroke-linecap="round" stroke-linejoin="round" stroke-width="1.05"/>
  </g>
  <defs>
    <linearGradient gradientTransform="matrix(0.0038, 2.0E-4, -2.0E-4, 0.0038, -2.55, -13.6)" gradientUnits="userSpaceOnUse" id="gradient0" spreadMethod="pad" x1="-819.2" x2="819.2">
      <stop offset="0.0" stop-color="#6b6a60"/>
      <stop offset="1.0" stop-color="#89877b"/>
    </linearGradient>
    <linearGradient gradientTransform="matrix(0.0038, 1.0E-4, -2.0E-4, 0.0024, -2.55, -12.05)" gradientUnits="userSpaceOnUse" id="gradient1" spreadMethod="pad" x1="-819.2" x2="819.2">
      <stop offset="0.0" stop-color="#6b6a60"/>
      <stop offset="1.0" stop-color="#89877b"/>
    </linearGradient>
  </defs>
</svg>
