<?xml version="1.0" encoding="UTF-8" standalone="no"?>
<svg xmlns:ffdec="https://www.free-decompiler.com/flash" xmlns:xlink="http://www.w3.org/1999/xlink" ffdec:objectType="shape" height="23.8px" width="15.25px" xmlns="http://www.w3.org/2000/svg">
  <g transform="matrix(1.0, 0.0, 0.0, 1.0, 7.55, 3.25)">
    <path d="M-3.5 -0.65 Q-3.7 -2.75 -1.65 -2.75 0.35 -2.75 2.3 -1.9 3.25 -1.35 3.5 0.2 L3.95 2.7 4.0 3.15 3.65 3.4 3.7 4.5 3.2 4.7 3.1 4.7 1.7 4.75 Q1.3 4.15 1.2 4.55 L1.15 4.4 1.0 4.1 0.5 3.15 -0.1 2.35 Q-0.4 1.0 -1.4 -0.1 L-1.45 -0.25 -3.5 -0.65" fill="url(#gradient0)" fill-rule="evenodd" stroke="none"/>
    <path d="M4.0 3.15 L4.1 4.35 3.7 4.5 3.65 3.4 4.0 3.15 M6.4 12.85 Q7.7 14.65 6.75 17.05 L5.35 17.05 2.3 15.6 1.95 14.8 4.3 14.0 5.4 13.65 6.4 12.85 M1.25 14.15 L-0.9 14.3 -1.15 13.8 -1.15 13.65 -1.45 12.8 -2.4 10.4 -2.5 9.95 -3.65 6.65 -3.95 5.95 -4.0 4.45 -3.85 3.75 -3.9 4.0 -5.9 4.75 -6.4 4.95 -6.95 3.4 Q-7.1 2.9 -6.7 1.5 L-6.15 0.35 -5.25 -0.6 -3.5 -0.65 -1.45 -0.25 -1.4 -0.1 Q-0.4 1.0 -0.1 2.35 L0.5 3.15 1.0 4.1 1.15 4.4 1.2 4.55 Q1.3 4.15 1.7 4.75 L3.1 4.7 3.2 4.7 2.8 4.85 3.2 4.7 3.7 4.85 2.8 4.85 1.95 5.15 1.9 5.15 1.9 8.35 2.25 8.8 2.7 9.6 3.15 10.75 3.15 10.85 3.45 12.7 2.35 13.75 1.25 14.15 M-0.1 2.35 L-0.35 2.1 -3.8 3.4 -3.85 3.75 -3.8 3.4 -0.35 2.1 -0.1 2.35 M-3.9 5.9 L-3.75 5.9 -3.8 5.8 -3.9 5.9 M-1.0 7.15 L-1.75 5.1 -1.0 7.15 M-2.05 9.75 L1.9 8.35 -2.05 9.75 M1.5 12.2 L0.95 10.4 1.5 12.2" fill="#191919" fill-rule="evenodd" stroke="none"/>
    <path d="M4.7 4.15 L4.85 4.1 4.85 4.3 4.7 4.15 M6.75 17.05 L6.75 17.1 6.55 18.25 Q5.8 19.95 5.4 19.85 4.0 20.35 2.95 19.55 2.1 18.65 2.0 17.55 L2.0 17.45 2.3 15.6 5.35 17.05 6.75 17.05 M1.75 14.25 L1.25 14.15 2.35 13.75 2.05 14.7 Q2.1 14.3 1.75 14.25 M-1.15 13.8 L-1.35 13.85 -3.0 14.45 -4.25 10.9 -4.35 10.7 -4.95 10.9 -7.05 5.1 -6.4 4.95 -5.9 4.75 -3.9 4.0 -3.85 3.75 -4.0 4.45 -3.95 5.95 -3.65 6.65 -2.5 9.95 -2.4 10.4 -1.45 12.8 -1.15 13.65 -1.15 13.8 M-5.65 5.4 L-5.9 4.75 -5.65 5.4 M-4.45 8.8 L-4.7 8.15 -4.45 8.8 M-4.35 10.7 L-2.5 9.95 -4.35 10.7" fill="#232323" fill-rule="evenodd" stroke="none"/>
    <path d="M-3.9 5.9 L-3.8 5.8 -3.75 5.9 -3.9 5.9" fill="#562626" fill-rule="evenodd" stroke="none"/>
    <path d="M-1.35 13.85 L-0.95 14.7 -0.55 16.05 -0.95 16.2 -1.9 16.5 -2.3 16.7 -2.8 15.3 -2.9 15.4 -4.55 10.9 -4.25 10.9 -3.0 14.45 -1.35 13.85 M-0.95 14.7 L-2.8 15.3 -0.95 14.7" fill="#353535" fill-rule="evenodd" stroke="none"/>
    <path d="M4.85 4.1 L6.2 5.2 7.05 8.05 Q6.7 6.7 6.0 5.75 L5.5 4.95 4.85 4.3 4.85 4.1 M7.1 8.3 L7.2 8.75 7.15 8.9 7.05 8.55 7.1 8.3" fill="#8a8580" fill-rule="evenodd" stroke="none"/>
    <path d="M4.1 4.35 L4.7 4.15 6.0 5.75 Q6.7 6.7 7.05 8.05 L7.1 8.15 7.1 8.25 7.1 8.3 7.05 8.55 6.55 9.65 6.6 9.75 6.9 11.25 Q6.9 12.25 6.4 12.85 L5.4 13.65 4.3 14.0 1.95 14.8 2.05 14.7 2.35 13.75 3.45 12.7 3.15 10.85 3.15 10.75 2.7 9.6 2.25 8.8 1.9 8.35 1.9 5.15 1.95 5.15 2.8 4.85 3.7 4.85 3.7 4.5 4.1 4.35 M6.55 9.65 L5.4 10.2 6.55 9.65" fill="url(#gradient1)" fill-rule="evenodd" stroke="none"/>
    <path d="M3.2 4.7 L3.7 4.5 3.7 4.85 3.2 4.7" fill="url(#gradient2)" fill-rule="evenodd" stroke="none"/>
    <path d="M1.95 14.8 L1.75 14.25 Q2.1 14.3 2.05 14.7 L1.95 14.8" fill="#666666" fill-rule="evenodd" stroke="none"/>
    <path d="M-3.5 -0.65 Q-3.7 -2.75 -1.65 -2.75 0.35 -2.75 2.3 -1.9 3.25 -1.35 3.5 0.2 L3.95 2.7 4.0 3.15 4.1 4.35" fill="none" stroke="#022e33" stroke-linecap="round" stroke-linejoin="round" stroke-width="1.0"/>
    <path d="M4.7 4.15 L4.85 4.1 6.2 5.2 7.05 8.05 M7.1 8.25 L7.1 8.3 7.2 8.75 M7.15 8.9 L6.6 9.75 6.9 11.25 Q6.9 12.25 6.4 12.85 7.7 14.65 6.75 17.05 L6.75 17.1 6.55 18.25 Q5.8 19.95 5.4 19.85 4.0 20.35 2.95 19.55 2.1 18.65 2.0 17.55 L2.0 17.45 2.3 15.6 1.95 14.8 1.75 14.25 1.25 14.15 -0.9 14.3 -1.15 13.8 -1.35 13.85 -0.95 14.7 -0.55 16.05 -0.95 16.2 M-1.9 16.5 L-2.3 16.7 -2.8 15.3 -2.9 15.4 -4.55 10.9 -4.25 10.9 -4.35 10.7 -4.95 10.9 -7.05 5.1 -6.4 4.95 -6.95 3.4 Q-7.1 2.9 -6.7 1.5 L-6.15 0.35 -5.25 -0.6 M-3.85 3.75 L-3.8 3.4 -0.35 2.1 -0.1 2.35 M-2.5 9.95 L-3.65 6.65 -3.95 5.95 -4.0 4.45 -3.85 3.75 -3.9 4.0 -5.9 4.75 -5.65 5.4 M-6.4 4.95 L-5.9 4.75 M-4.7 8.15 L-4.45 8.8 M-2.5 9.95 L-2.4 10.4 -1.45 12.8 -1.15 13.65 -1.15 13.8 M-2.5 9.95 L-4.35 10.7 M-2.8 15.3 L-0.95 14.7 M-4.25 10.9 L-3.0 14.45 -1.35 13.85 M2.35 13.75 L3.45 12.7 3.15 10.85 3.15 10.75 2.7 9.6 2.25 8.8 1.9 8.35 -2.05 9.75 M6.55 9.65 L6.6 9.75 M5.4 10.2 L6.55 9.65 M1.9 8.35 L1.9 5.15 M6.75 17.05 L5.35 17.05 2.3 15.6 M6.4 12.85 L5.4 13.65 4.3 14.0 1.95 14.8 2.05 14.7 Q2.1 14.3 1.75 14.25 M1.25 14.15 L2.35 13.75 2.05 14.7" fill="none" stroke="#0f0f0f" stroke-linecap="round" stroke-linejoin="round" stroke-width="1.0"/>
    <path d="M-1.75 5.1 L-1.0 7.15 M0.95 10.4 L1.5 12.2" fill="none" stroke="#595959" stroke-linecap="round" stroke-linejoin="round" stroke-opacity="0.29803923" stroke-width="1.0"/>
    <path d="M-0.95 16.2 L-1.9 16.5" fill="none" stroke="#ffff99" stroke-linecap="round" stroke-linejoin="round" stroke-width="1.0"/>
    <path d="M3.2 4.7 L3.7 4.5 M1.95 5.15 L2.8 4.85 3.2 4.7" fill="none" stroke="#022e33" stroke-linecap="round" stroke-linejoin="round" stroke-width="0.30000000000000004"/>
  </g>
  <defs>
    <radialGradient cx="0" cy="0" gradientTransform="matrix(0.0087, 0.0, 0.0, 0.0087, -0.6, -0.7)" gradientUnits="userSpaceOnUse" id="gradient0" r="819.2" spreadMethod="pad">
      <stop offset="0.0" stop-color="#e8c06f"/>
      <stop offset="1.0" stop-color="#02b1c3"/>
      <stop offset="1.0" stop-color="#2c1b38"/>
    </radialGradient>
    <radialGradient cx="0" cy="0" gradientTransform="matrix(0.0079, -6.0E-4, 6.0E-4, 0.0079, 4.4, 8.7)" gradientUnits="userSpaceOnUse" id="gradient1" r="819.2" spreadMethod="pad">
      <stop offset="0.0" stop-color="#333333"/>
      <stop offset="1.0" stop-color="#000000"/>
    </radialGradient>
    <radialGradient cx="0" cy="0" gradientTransform="matrix(0.009, -7.0E-4, 7.0E-4, 0.009, -3.25, -1.3)" gradientUnits="userSpaceOnUse" id="gradient2" r="819.2" spreadMethod="pad">
      <stop offset="0.0" stop-color="#e8c06f"/>
      <stop offset="1.0" stop-color="#02b1c3"/>
      <stop offset="1.0" stop-color="#2c1b38"/>
    </radialGradient>
  </defs>
</svg>
