<?xml version="1.0" encoding="UTF-8" standalone="no"?>
<svg xmlns:ffdec="https://www.free-decompiler.com/flash" xmlns:xlink="http://www.w3.org/1999/xlink" ffdec:objectType="shape" height="28.45px" width="14.0px" xmlns="http://www.w3.org/2000/svg">
  <g transform="matrix(1.0, 0.0, 0.0, 1.0, 4.1, 3.45)">
    <path d="M3.65 -0.95 L4.2 0.0 Q6.4 2.5 7.2 5.8 L7.75 10.45 Q7.05 12.75 5.5 11.4 L3.8 9.5 2.0 7.5 0.0 6.6 -1.45 2.65 Q0.25 1.9 0.85 0.8 L2.1 -1.25 3.65 -0.95" fill="url(#gradient0)" fill-rule="evenodd" stroke="none"/>
    <path d="M3.65 -0.95 L4.2 0.0 Q6.4 2.5 7.2 5.8 L7.75 10.45 Q7.05 12.75 5.5 11.4 L3.8 9.5 2.0 7.5 0.0 6.6 -1.45 2.65 Q0.25 1.9 0.85 0.8 L2.1 -1.25 3.65 -0.95 Z" ffdec:has-small-stroke="true" ffdec:original-stroke-width="0.95" fill="none" stroke="#5a4528" stroke-linecap="butt" stroke-linejoin="miter-clip" stroke-miterlimit="11.33984375" stroke-width="1.0"/>
    <path d="M-2.8 6.75 L-3.5 5.25 Q-3.55 4.6 -2.4 4.6 L-1.05 3.9 Q0.65 5.65 1.75 6.15 L2.8 6.65 Q3.4 7.05 4.05 8.45 L5.05 10.3 Q6.1 11.5 7.85 10.75 L8.4 12.35 Q8.95 14.05 8.7 14.55 8.55 15.0 7.6 15.3 L6.0 15.8 Q5.1 16.15 4.2 14.85 L2.7 11.8 Q1.75 10.2 1.1 9.75 L-0.85 8.6 Q-2.05 7.9 -2.8 6.75" fill="url(#gradient1)" fill-rule="evenodd" stroke="none"/>
    <path d="M-2.8 6.75 Q-2.05 7.9 -0.85 8.6 L1.1 9.75 Q1.75 10.2 2.7 11.8 L4.2 14.85 Q5.1 16.15 6.0 15.8 L7.6 15.3 Q8.55 15.0 8.7 14.55 8.95 14.05 8.4 12.35 L7.85 10.75 Q6.1 11.5 5.05 10.3 L4.05 8.45 Q3.4 7.05 2.8 6.65 L1.75 6.15 Q0.65 5.65 -1.05 3.9 L-2.4 4.6 Q-3.55 4.6 -3.5 5.25 L-2.8 6.75 Z" ffdec:has-small-stroke="true" ffdec:original-stroke-width="0.95" fill="none" stroke="#353739" stroke-linecap="round" stroke-linejoin="round" stroke-width="1.0"/>
    <path d="M3.5 -0.5 Q2.85 1.05 1.75 2.0 L-0.9 3.65 Q-3.1 1.55 -3.35 0.85 -3.65 0.45 -3.55 -0.65 -3.4 -1.75 -3.05 -2.1 -0.85 -3.45 1.15 -2.75 2.8 -2.15 3.5 -0.5" fill="url(#gradient2)" fill-rule="evenodd" stroke="none"/>
    <path d="M3.5 -0.5 Q2.85 1.05 1.75 2.0 L-0.9 3.65 Q-3.1 1.55 -3.35 0.85 -3.65 0.45 -3.55 -0.65 -3.4 -1.75 -3.05 -2.1 -0.85 -3.45 1.15 -2.75 2.8 -2.15 3.5 -0.5 Z" ffdec:has-small-stroke="true" ffdec:original-stroke-width="0.95" fill="none" stroke="#2b2e30" stroke-linecap="butt" stroke-linejoin="miter-clip" stroke-miterlimit="11.33984375" stroke-width="1.0"/>
    <path d="M8.35 13.5 L8.7 14.7 9.0 17.35 Q9.05 18.7 8.3 19.75 7.55 20.7 6.5 20.8 4.0 21.35 4.2 19.7 L4.05 16.4 Q4.1 15.2 5.05 14.85 L7.4 14.1 8.35 13.5" fill="#1a1b20" fill-rule="evenodd" stroke="none"/>
    <path d="M8.35 13.5 L8.7 14.7 9.0 17.35 Q9.05 18.7 8.3 19.75 7.55 20.7 6.5 20.8 4.0 21.35 4.2 19.7 L4.05 16.4 Q4.1 15.2 5.05 14.85 L7.4 14.1 8.35 13.5 Z" ffdec:has-small-stroke="true" ffdec:original-stroke-width="0.95" fill="none" stroke="#18191b" stroke-linecap="butt" stroke-linejoin="miter-clip" stroke-miterlimit="11.33984375" stroke-width="1.0"/>
    <path d="M3.6 -0.95 Q6.15 1.75 7.2 6.45 L8.8 14.5 Q8.4 14.7 8.55 16.7 8.8 19.05 8.5 19.55 L7.35 20.6 5.95 20.95 Q4.55 21.2 4.3 20.35 L4.35 17.5 4.0 15.2 3.25 12.65 2.3 10.95 1.1 9.75 Q0.8 9.45 -0.25 9.0 L-1.55 8.2 -2.3 7.4 -2.8 6.45 -3.4 4.95 Q-3.1 4.7 -1.85 4.4 L-1.0 3.65 -3.0 1.6 -3.65 -0.1 -3.4 -1.2 -3.0 -1.85" ffdec:has-small-stroke="true" ffdec:original-stroke-width="0.95" fill="none" stroke="#010100" stroke-linecap="round" stroke-linejoin="round" stroke-opacity="0.20392157" stroke-width="1.0"/>
    <path d="M5.75 14.55 L7.25 14.05 8.9 13.7 Q9.1 13.95 9.3 15.5 L9.4 17.6 Q9.3 18.1 6.4 19.05 6.0 19.2 5.7 18.0 5.35 16.9 5.4 15.95 5.4 15.3 5.55 14.85 L5.75 14.55" fill="url(#gradient3)" fill-rule="evenodd" stroke="none"/>
    <path d="M5.75 14.55 L7.25 14.05 8.9 13.7 Q9.1 13.95 9.3 15.5 L9.4 17.6 Q9.3 18.1 6.4 19.05 6.0 19.2 5.7 18.0 5.35 16.9 5.4 15.95 5.4 15.3 5.55 14.85 L5.75 14.55 Z" ffdec:has-small-stroke="true" ffdec:original-stroke-width="0.95" fill="none" stroke="#323334" stroke-linecap="round" stroke-linejoin="round" stroke-width="1.0"/>
  </g>
  <defs>
    <radialGradient cx="0" cy="0" gradientTransform="matrix(0.0233, -0.0019, -6.0E-4, 0.0238, -10.1, 3.8)" gradientUnits="userSpaceOnUse" id="gradient0" r="819.2" spreadMethod="pad">
      <stop offset="0.0" stop-color="#8e3a0e"/>
      <stop offset="1.0" stop-color="#dbb531"/>
    </radialGradient>
    <radialGradient cx="0" cy="0" gradientTransform="matrix(0.02, -0.0017, 2.0E-4, 0.0242, 4.15, 6.75)" gradientUnits="userSpaceOnUse" id="gradient1" r="819.2" spreadMethod="pad">
      <stop offset="0.0" stop-color="#444954"/>
      <stop offset="1.0" stop-color="#dbdce1"/>
    </radialGradient>
    <radialGradient cx="0" cy="0" gradientTransform="matrix(0.0232, -0.0028, -2.0E-4, 0.013, -10.15, 0.5)" gradientUnits="userSpaceOnUse" id="gradient2" r="819.2" spreadMethod="pad">
      <stop offset="0.0" stop-color="#1f1f1f"/>
      <stop offset="1.0" stop-color="#636c6a"/>
    </radialGradient>
    <radialGradient cx="0" cy="0" gradientTransform="matrix(0.0127, -0.0025, 0.0012, 0.0158, 3.5, 16.5)" gradientUnits="userSpaceOnUse" id="gradient3" r="819.2" spreadMethod="pad">
      <stop offset="0.0" stop-color="#444954"/>
      <stop offset="1.0" stop-color="#dbdce1"/>
    </radialGradient>
  </defs>
</svg>
