<?xml version="1.0" encoding="UTF-8" standalone="no"?>
<svg xmlns:ffdec="https://www.free-decompiler.com/flash" xmlns:xlink="http://www.w3.org/1999/xlink" ffdec:objectType="shape" height="26.75px" width="22.6px" xmlns="http://www.w3.org/2000/svg">
  <g transform="matrix(1.0, 0.0, 0.0, 1.0, 9.0, 3.45)">
    <path d="M9.45 11.65 L9.75 12.05 Q10.05 13.1 9.55 14.2 L7.8 16.25 7.2 16.85 6.25 16.6 5.75 16.0 Q6.05 15.3 6.4 14.95 L6.75 14.3 6.7 14.15 6.5 14.2 6.25 14.5 5.9 14.65 4.95 14.05 4.0 12.55 Q3.75 12.25 4.0 12.0 L5.6 10.85 5.8 10.4 6.6 10.35 Q8.2 10.6 9.45 11.65" fill="#975b01" fill-rule="evenodd" stroke="none"/>
    <path d="M5.45 10.3 L7.6 10.45 Q9.0 10.95 9.95 11.95 10.35 13.45 9.25 14.95 L7.25 17.1 Q5.85 16.6 5.45 16.2 L6.25 14.85 Q5.35 14.7 4.7 13.95 L3.75 12.4 M6.25 14.85 L6.6 14.25" fill="none" stroke="#653d01" stroke-linecap="round" stroke-linejoin="round" stroke-width="1.0"/>
    <path d="M-3.05 -2.35 L-1.45 -3.1 Q0.4 -3.55 2.25 -2.05 2.4 -1.95 2.45 -1.95 L2.6 -1.35 Q3.9 1.6 3.75 3.35 L3.4 4.4 Q2.75 6.5 4.0 9.15 L4.65 10.3 Q4.3 11.05 3.35 11.3 L2.05 11.55 Q1.3 11.0 0.3 9.9 -1.85 7.35 -3.1 4.4 L-3.3 3.1 -3.25 -1.55 -3.05 -2.35" fill="#d27e02" fill-rule="evenodd" stroke="none"/>
    <path d="M3.6 2.1 L3.75 2.25 3.75 3.65 3.3 4.65 Q3.05 5.6 3.25 6.85 3.45 8.2 4.25 9.7 L4.6 10.4 Q4.2 11.0 3.2 11.4 L2.25 11.55 0.9 10.65 -1.55 7.25 -3.25 4.0 -3.3 2.3 Q-3.45 1.85 -3.0 1.85 L2.1 2.3 2.95 2.3 3.25 2.15 3.6 2.1" fill="#000000" fill-opacity="0.32941177" fill-rule="evenodd" stroke="none"/>
    <path d="M-2.7 -2.45 L-3.25 -2.1 Q-3.6 -1.0 -3.55 0.9 L-3.4 3.95 Q-2.7 6.1 -0.8 8.75 1.15 11.45 2.3 11.75 4.1 11.6 4.8 10.3 3.8 8.8 3.45 7.15 3.05 5.15 3.9 3.8 4.15 1.75 2.8 -1.45 L2.45 -1.75" fill="none" stroke="#653d01" stroke-linecap="round" stroke-linejoin="round" stroke-width="1.0"/>
    <path d="M4.5 9.15 L5.0 9.7 Q5.4 10.05 5.35 10.6 L4.65 11.25 Q3.65 12.1 2.6 12.2 L1.8 12.2 1.05 11.65 0.95 11.3 Q0.9 11.05 1.1 10.95 3.0 10.05 3.9 9.2 L4.5 9.15" fill="#999999" fill-rule="evenodd" stroke="none"/>
    <path d="M0.85 11.7 L1.85 12.45 2.45 12.35 Q3.2 12.4 4.15 11.85 L5.55 10.6 5.15 9.65 4.2 8.7 Q3.1 9.85 0.7 11.0 L0.85 11.7 Z" fill="none" stroke="#1a1a1a" stroke-linecap="round" stroke-linejoin="round" stroke-width="1.0"/>
    <path d="M-3.0 -2.0 L-2.8 -1.9 -2.6 0.05 -2.8 1.85 -3.4 2.55 -4.2 2.4 -4.8 2.9 Q-5.15 3.4 -5.6 3.3 L-6.45 2.55 -6.8 1.55 -6.1 0.6 Q-6.0 0.1 -6.25 -1.0 -6.3 -1.45 -6.8 -1.75 -7.45 -1.9 -7.1 -2.25 -6.95 -2.3 -6.75 -2.5 L-6.35 -2.75 -3.0 -2.0" fill="#434343" fill-rule="evenodd" stroke="none"/>
    <path d="M-3.2 2.6 L-2.6 1.9 Q-2.3 -0.15 -2.65 -2.1 L-6.5 -2.95 -7.55 -2.1 -6.95 -1.6 -6.4 -1.15 Q-6.2 -0.4 -6.15 0.35 L-6.55 0.9 -7.05 1.55 -6.65 2.55 -5.8 3.35" fill="none" stroke="#0e0e0e" stroke-linecap="round" stroke-linejoin="round" stroke-width="1.0"/>
    <path d="M-6.2 4.7 Q-6.45 4.1 -5.75 3.75 -4.85 3.5 -4.7 3.25 L-4.1 2.75 -2.9 3.1 -2.8 3.15 -2.4 4.15 -2.25 4.55 Q-2.2 4.8 -2.3 4.95 L-3.9 5.6 -4.25 5.8 -1.6 11.85 Q-1.4 12.3 -1.8 12.4 -2.35 12.45 -2.85 11.7 -5.4 7.2 -6.2 4.7" fill="#434343" fill-rule="evenodd" stroke="none"/>
    <path d="M-6.1 4.15 L-5.8 3.7 -5.3 3.6 -4.85 3.55 -4.75 3.6 -3.55 5.05 Q-3.4 5.25 -3.65 5.4 L-4.15 5.7 -4.2 5.9 -1.5 12.1 Q-1.4 12.45 -1.8 12.4 -2.25 12.45 -2.6 12.0 L-4.15 9.25 Q-5.6 6.75 -6.2 4.6 L-6.1 4.15" fill="#000000" fill-opacity="0.31764707" fill-rule="evenodd" stroke="none"/>
    <path d="M-1.6 6.0 L-2.7 2.95 -4.2 2.55 Q-4.8 3.45 -5.95 3.55 L-6.45 4.35 Q-5.5 7.5 -2.7 12.15 -2.2 12.7 -1.6 12.55 L-0.6 12.15" fill="none" stroke="#0e0e0e" stroke-linecap="round" stroke-linejoin="round" stroke-width="1.0"/>
    <path d="M-6.05 -1.0 L-2.8 -0.6 M-6.1 0.35 L-5.75 1.1 -3.5 1.35 -2.65 0.7" fill="none" stroke="#0e0e0e" stroke-linecap="round" stroke-linejoin="round" stroke-width="1.0"/>
    <path d="M4.95 12.8 L10.55 21.6 8.75 22.7 3.15 13.85 Q4.0 13.35 4.95 12.8" fill="url(#gradient0)" fill-rule="evenodd" stroke="none"/>
    <path d="M4.95 12.8 L10.55 21.6 8.75 22.7 3.15 13.85" fill="none" stroke="#1a1a1a" stroke-linecap="round" stroke-linejoin="round" stroke-width="1.0"/>
    <path d="M10.1 21.3 L9.35 20.75 8.6 21.25 8.75 22.2" fill="none" stroke="#1a1a1a" stroke-linecap="round" stroke-linejoin="round" stroke-width="1.0"/>
    <path d="M2.05 12.2 L7.6 21.0 5.85 22.1 0.2 13.25 2.05 12.2" fill="url(#gradient1)" fill-rule="evenodd" stroke="none"/>
    <path d="M2.05 12.2 L7.6 21.0 5.85 22.1 0.2 13.25" fill="none" stroke="#1a1a1a" stroke-linecap="round" stroke-linejoin="round" stroke-width="1.0"/>
    <path d="M7.15 20.65 L6.45 20.15 5.65 20.65 5.75 21.65" fill="none" stroke="#1a1a1a" stroke-linecap="round" stroke-linejoin="round" stroke-width="1.0"/>
    <path d="M7.55 12.8 L13.1 21.7 11.35 22.8 5.65 13.85 7.55 12.8" fill="url(#gradient2)" fill-rule="evenodd" stroke="none"/>
    <path d="M7.55 12.8 L13.1 21.7 11.35 22.8 5.65 13.85" fill="none" stroke="#1a1a1a" stroke-linecap="round" stroke-linejoin="round" stroke-width="1.0"/>
    <path d="M12.65 21.35 L11.95 20.85 11.1 21.25 11.25 22.25" fill="none" stroke="#1a1a1a" stroke-linecap="round" stroke-linejoin="round" stroke-width="1.0"/>
    <path d="M1.95 3.8 L2.1 3.85 2.6 5.45 10.5 15.5 10.6 15.75 10.4 16.0 Q6.65 18.45 4.6 19.4 L3.5 19.45 1.45 16.7 Q-0.55 13.6 -3.5 6.65 L-3.65 6.25 -3.55 5.8 1.95 3.8" fill="url(#gradient3)" fill-rule="evenodd" stroke="none"/>
    <path d="M5.9 9.9 L6.05 10.05 10.35 15.3 Q10.8 15.7 10.4 15.9 L4.6 19.25 3.65 19.6 2.75 18.6 Q0.9 16.2 -0.8 12.85 L-3.55 6.6 -3.75 6.25 -3.75 5.8 -2.9 5.65 -0.65 8.05 4.2 10.75 4.9 10.4 5.9 9.9" fill="#000000" fill-opacity="0.34509805" fill-rule="evenodd" stroke="none"/>
    <path d="M3.2 17.8 L2.7 18.0" ffdec:has-small-stroke="true" ffdec:original-stroke-width="0.65" fill="none" stroke="#494949" stroke-linecap="round" stroke-linejoin="round" stroke-width="1.0"/>
    <path d="M-3.6 5.9 L-0.45 12.35 3.7 19.2 Q6.6 18.1 10.5 15.4" fill="none" stroke="#f3f3f3" stroke-linecap="round" stroke-linejoin="round" stroke-width="1.0"/>
    <path d="M-4.1 5.8 L2.1 3.4 2.75 5.35 Q7.8 12.2 10.95 15.8 L7.55 17.95 Q5.45 19.2 3.75 19.75 L3.3 19.6 Q1.1 16.9 -0.9 12.9 L-4.1 5.8 Z" fill="none" stroke="#0e0e0e" stroke-linecap="round" stroke-linejoin="round" stroke-width="1.0"/>
    <path d="M10.2 16.3 Q10.1 16.65 10.15 17.75 L10.05 18.95 9.5 19.05 9.0 19.1 Q8.5 19.75 7.65 19.95 L7.4 20.45 7.15 20.85 5.85 20.35 4.7 19.6" fill="none" stroke="#0e0e0e" stroke-linecap="round" stroke-linejoin="round" stroke-width="1.0"/>
    <path d="M5.8 9.9 L4.25 10.75 -0.9 7.8 -2.85 5.65" fill="none" stroke="#0e0e0e" stroke-linecap="round" stroke-linejoin="round" stroke-width="1.0"/>
    <path d="M4.9 11.7 L4.7 12.0 3.65 12.1 Q2.65 11.2 1.35 10.65 0.25 10.15 -0.15 10.25 L-0.35 9.85" fill="none" stroke="#540707" stroke-linecap="round" stroke-linejoin="round" stroke-width="1.0"/>
    <path d="M-0.6 9.0 L-0.65 8.55 Q-0.25 8.0 -0.25 7.3 L-0.2 6.95 0.1 6.85 0.85 7.55 3.45 9.45 4.35 9.45 4.45 9.6 4.8 10.8 Q5.0 11.15 4.6 11.25 L3.9 11.25 1.9 9.9 Q0.9 9.25 0.0 9.5 -0.35 9.75 -0.5 9.35 L-0.6 9.0" fill="#525252" fill-rule="evenodd" stroke="none"/>
    <path d="M3.85 11.5 L5.05 11.35 4.55 9.25 3.55 9.25 Q0.95 7.6 -0.05 6.5 L-0.55 6.9 Q-0.2 7.85 -0.95 8.7 L-0.4 9.85 Q0.2 9.55 0.5 9.6 1.1 9.6 2.0 10.25 L3.85 11.5 Z" fill="none" stroke="#0e0e0e" stroke-linecap="round" stroke-linejoin="round" stroke-width="1.0"/>
    <path d="M-6.45 0.15 Q-8.5 0.25 -2.4 3.95 3.9 7.7 2.4 8.0" fill="none" stroke="#4a0606" stroke-linecap="round" stroke-linejoin="round" stroke-width="1.0"/>
    <path d="M-6.5 -0.75 Q-8.7 -1.6 -8.5 -0.1 -8.3 1.4 -6.5 2.75 -4.7 4.1 -2.35 3.65 0.0 3.2 2.75 5.55 5.5 7.9 3.05 8.75" fill="none" stroke="#150202" stroke-linecap="round" stroke-linejoin="round" stroke-width="1.0"/>
  </g>
  <defs>
    <linearGradient gradientTransform="matrix(-9.0E-4, 6.0E-4, -6.0E-4, -9.0E-4, 6.75, 17.8)" gradientUnits="userSpaceOnUse" id="gradient0" spreadMethod="pad" x1="-819.2" x2="819.2">
      <stop offset="0.0" stop-color="#333333"/>
      <stop offset="0.6313725490196078" stop-color="#525252"/>
      <stop offset="1.0" stop-color="#333333"/>
    </linearGradient>
    <linearGradient gradientTransform="matrix(-9.0E-4, 6.0E-4, -6.0E-4, -9.0E-4, 3.85, 17.2)" gradientUnits="userSpaceOnUse" id="gradient1" spreadMethod="pad" x1="-819.2" x2="819.2">
      <stop offset="0.0" stop-color="#333333"/>
      <stop offset="0.6313725490196078" stop-color="#525252"/>
      <stop offset="1.0" stop-color="#333333"/>
    </linearGradient>
    <linearGradient gradientTransform="matrix(-9.0E-4, 6.0E-4, -6.0E-4, -9.0E-4, 9.3, 17.8)" gradientUnits="userSpaceOnUse" id="gradient2" spreadMethod="pad" x1="-819.2" x2="819.2">
      <stop offset="0.0" stop-color="#333333"/>
      <stop offset="0.6313725490196078" stop-color="#525252"/>
      <stop offset="1.0" stop-color="#333333"/>
    </linearGradient>
    <linearGradient gradientTransform="matrix(0.0094, 0.0038, -0.0038, 0.0094, 2.8, 11.75)" gradientUnits="userSpaceOnUse" id="gradient3" spreadMethod="pad" x1="-819.2" x2="819.2">
      <stop offset="0.0" stop-color="#999999"/>
      <stop offset="0.19607843137254902" stop-color="#b9b9b9"/>
      <stop offset="0.4627450980392157" stop-color="#999999"/>
      <stop offset="0.7764705882352941" stop-color="#b6b6b6"/>
      <stop offset="1.0" stop-color="#999999"/>
    </linearGradient>
  </defs>
</svg>
