<?xml version="1.0" encoding="UTF-8" standalone="no"?>
<svg xmlns:ffdec="https://www.free-decompiler.com/flash" xmlns:xlink="http://www.w3.org/1999/xlink" ffdec:objectType="shape" height="64.5px" width="35.55px" xmlns="http://www.w3.org/2000/svg">
  <g transform="matrix(1.0, 0.0, 0.0, 1.0, 0.05, 0.0)">
    <path d="M35.4 51.45 Q36.05 62.2 31.35 64.15 26.55 66.0 19.45 57.95 12.1 50.25 6.45 36.85 0.8 23.95 0.1 12.9 -0.75 2.4 4.05 0.35 8.75 -1.55 16.05 6.4 23.45 14.55 29.05 27.65 34.65 40.8 35.4 51.45" fill="url(#gradient0)" fill-rule="evenodd" stroke="none"/>
    <path d="M11.35 19.05 L10.55 20.55 14.5 29.85 14.95 30.1 16.0 32.85 17.7 32.15 16.55 29.55 16.75 28.95 12.85 19.5 11.35 19.05 M10.05 15.35 Q9.25 15.65 9.5 16.7 9.9 17.6 10.85 17.25 L11.4 16.7 11.45 15.95 Q11.05 15.0 10.05 15.35 M11.0 10.95 L12.85 11.55 14.25 14.8 13.45 18.05 17.6 28.1 19.4 29.6 22.6 37.25 22.6 42.5 Q22.45 45.45 21.3 47.45 L19.7 46.15 7.3 16.05 11.0 10.95" fill="#ffbc0d" fill-rule="evenodd" stroke="none"/>
    <path d="M21.25 47.45 L19.7 46.1 7.3 16.0 10.95 10.95 12.85 11.55 14.15 14.8 13.4 18.0 17.65 28.05 19.4 29.55 22.6 37.25 22.6 40.1 22.55 43.2 22.6 40.1 22.55 42.45 22.55 43.2 22.5 43.35 21.25 47.45 22.5 43.35 22.45 43.6 Q22.2 45.85 21.25 47.45 M9.7 15.65 Q9.3 15.95 9.5 16.65 L9.65 16.95 9.7 16.95 Q10.1 17.5 10.85 17.25 L11.4 16.75 11.4 16.65 Q11.65 16.25 11.4 15.95 L11.0 15.15 10.1 15.35 9.75 15.55 Q10.2 14.75 11.0 15.15 10.2 14.75 9.75 15.55 L9.7 15.65 M16.0 32.85 L17.6 32.15 16.55 29.55 16.75 28.95 12.9 19.5 11.35 19.05 10.55 20.5 11.55 22.85 14.5 29.85 14.7 30.0 14.95 30.05 16.0 32.85 14.7 30.0 16.0 32.85 M11.0 15.15 Q11.95 16.0 11.4 16.75 11.95 16.0 11.0 15.15" fill="#f9c213" fill-rule="evenodd" stroke="none"/>
    <path d="M22.6 40.1 L22.6 37.25 19.4 29.55 17.65 28.05 13.4 18.0 14.15 14.8 12.85 11.55 10.95 10.95 7.3 16.0 19.7 46.1 21.25 47.45 22.5 43.35 22.55 43.2 22.6 40.1 M9.65 16.95 Q9.35 16.25 9.7 15.65 L9.75 15.55 Q10.2 14.75 11.0 15.15 11.95 16.0 11.4 16.75 L10.85 17.25 Q10.1 17.5 9.7 16.95 M11.55 22.85 L10.55 20.5 11.35 19.05 12.9 19.5 16.75 28.95 16.55 29.55 17.6 32.15 16.0 32.85 14.7 30.0 11.55 22.85 M22.45 43.6 L22.5 43.35" ffdec:has-small-stroke="true" ffdec:original-stroke-width="0.8" fill="none" stroke="#f9c213" stroke-linecap="round" stroke-linejoin="round" stroke-opacity="0.4" stroke-width="1.0"/>
  </g>
  <defs>
    <radialGradient cx="0" cy="0" gradientTransform="matrix(0.0138, -0.0049, 0.0146, 0.0395, 16.1, 30.2)" gradientUnits="userSpaceOnUse" id="gradient0" r="819.2" spreadMethod="pad">
      <stop offset="0.0" stop-color="#ffc96f" stop-opacity="0.7254902"/>
      <stop offset="0.19607843137254902" stop-color="#f49f59" stop-opacity="0.5137255"/>
      <stop offset="1.0" stop-color="#7b6f2b" stop-opacity="0.0"/>
    </radialGradient>
  </defs>
</svg>
