<?xml version="1.0" encoding="UTF-8" standalone="no"?>
<svg xmlns:ffdec="https://www.free-decompiler.com/flash" xmlns:xlink="http://www.w3.org/1999/xlink" ffdec:objectType="shape" height="27.25px" width="14.35px" xmlns="http://www.w3.org/2000/svg">
  <g transform="matrix(1.0, 0.0, 0.0, 1.0, 2.55, 6.6)">
    <path d="M4.45 14.75 L5.45 14.7 8.45 14.5 8.7 14.45 9.3 18.2 8.2 20.15 5.3 20.1 4.45 18.9 5.4 17.55 4.45 16.45 4.45 14.75" fill="#22222c" fill-rule="evenodd" stroke="none"/>
    <path d="M10.7 9.6 L9.8 10.8 7.45 10.0 6.8 8.1 9.7 6.65 10.7 9.6" fill="url(#gradient0)" fill-rule="evenodd" stroke="none"/>
    <path d="M9.3 13.55 L8.45 14.5 M5.45 14.7 Q2.95 6.9 2.65 1.55 5.15 -1.75 8.5 0.95" fill="none" stroke="#0a0c0e" stroke-linecap="round" stroke-linejoin="round" stroke-width="1.0"/>
    <path d="M4.45 14.75 L4.45 16.45 5.4 17.55 4.45 18.9 5.3 20.1 8.2 20.15 9.3 18.2 8.7 14.45 8.45 14.5 5.45 14.7 4.45 14.75" fill="none" stroke="#0c0d1c" stroke-linecap="round" stroke-linejoin="round" stroke-width="1.0"/>
    <path d="M10.7 9.6 L9.8 10.8 7.45 10.0 6.8 8.1 9.7 6.65 10.7 9.6 Z" fill="none" stroke="#173548" stroke-linecap="round" stroke-linejoin="round" stroke-width="1.0"/>
    <path d="M6.45 0.9 L6.6 -0.1 8.6 -1.2 11.3 1.95 10.25 5.4 8.3 5.45 6.45 0.9 M-2.05 4.5 L0.35 5.6 1.0 9.2 0.0 10.0 -2.05 7.15 -2.05 4.5 M3.35 -1.85 L4.75 4.5 1.15 2.4 -0.6 3.05 -2.05 0.05 -1.15 -2.5 -1.8 -6.1 3.35 -1.85" fill="#bbd6f0" fill-opacity="0.75686276" fill-rule="evenodd" stroke="none"/>
    <path d="M6.45 0.9 L6.6 -0.1 8.6 -1.2 11.3 1.95 10.25 5.4 8.3 5.45 6.45 0.9 M3.35 -1.85 L-1.8 -6.1 -1.15 -2.5 -2.05 0.05 -0.6 3.05 1.15 2.4 4.75 4.5 3.35 -1.85 M-2.05 4.5 L-2.05 7.15 0.0 10.0 1.0 9.2 0.35 5.6 -2.05 4.5 Z" fill="none" stroke="#99adcb" stroke-linecap="round" stroke-linejoin="round" stroke-opacity="0.5294118" stroke-width="1.0"/>
    <path d="M0.35 2.45 L-0.4 -1.4 5.35 1.8 9.65 1.8 9.65 6.5 7.05 7.35 7.75 10.0 9.7 10.75 10.35 13.1 9.0 15.1 4.45 13.3 2.5 6.95 0.35 2.45" fill="#252d31" fill-rule="evenodd" stroke="none"/>
    <path d="M0.35 2.45 L2.5 6.95 4.45 13.3 9.0 15.1 10.35 13.1 9.7 10.75 7.75 10.0 7.05 7.35 9.65 6.5 9.65 1.8 5.35 1.8 -0.4 -1.4 0.35 2.45 Z" fill="none" stroke="#171b1e" stroke-linecap="round" stroke-linejoin="round" stroke-width="1.0"/>
    <path d="M5.35 3.8 L5.35 0.35 6.45 -1.75 10.25 2.1 7.7 3.8 5.35 3.8 M0.9 5.2 L1.25 4.5 4.95 5.15 4.8 8.7 2.8 8.15 0.9 5.2" fill="#2f3d46" fill-rule="evenodd" stroke="none"/>
    <path d="M5.35 3.8 L4.25 3.8 2.65 1.55 2.0 -2.8 5.45 -2.8 6.45 -1.75 5.35 0.35 5.35 3.8 M0.9 5.2 L2.8 8.15 4.8 8.7 4.75 9.7 7.1 13.35 4.45 14.75 1.4 13.05 1.75 11.7 -0.2 7.2 0.9 5.2" fill="#253038" fill-rule="evenodd" stroke="none"/>
    <path d="M6.45 -1.75 L5.45 -2.8 2.0 -2.8 2.65 1.55 4.25 3.8 5.35 3.8 7.7 3.8 10.25 2.1 6.45 -1.75 M4.8 8.7 L4.95 5.15 1.25 4.5 0.9 5.2 -0.2 7.2 1.75 11.7 1.4 13.05 4.45 14.75 7.1 13.35 4.75 9.7 4.8 8.7 Z" fill="none" stroke="#1c2327" stroke-linecap="round" stroke-linejoin="round" stroke-width="1.0"/>
  </g>
  <defs>
    <linearGradient gradientTransform="matrix(0.0052, 0.0014, -6.0E-4, 0.0024, 7.2, 9.4)" gradientUnits="userSpaceOnUse" id="gradient0" spreadMethod="pad" x1="-819.2" x2="819.2">
      <stop offset="0.0" stop-color="#136ebf"/>
      <stop offset="0.32941176470588235" stop-color="#c9e6ff"/>
      <stop offset="0.6039215686274509" stop-color="#8dbce2"/>
      <stop offset="1.0" stop-color="#106fb1"/>
    </linearGradient>
  </defs>
</svg>
