<?xml version="1.0" encoding="UTF-8" standalone="no"?>
<svg xmlns:xlink="http://www.w3.org/1999/xlink" height="12.85px" width="13.85px" xmlns="http://www.w3.org/2000/svg">
  <g transform="matrix(1.0, 0.0, 0.0, 1.0, 6.5, 8.1)">
    <path d="M3.9 -4.35 L4.6 -4.65 Q5.0 -4.65 5.3 -4.35 L5.6 -3.7 5.3 -2.95 4.6 -2.65 3.9 -2.95 Q3.6 -3.35 3.6 -3.7 3.6 -4.1 3.9 -4.35" fill="#a47a4d" fill-rule="evenodd" stroke="none"/>
    <path d="M-6.0 -2.85 L-3.85 -2.0 -2.25 -1.65 0.5 -1.4 2.65 -1.4 6.2 -1.8 Q6.1 -1.75 5.75 -0.15 5.35 1.45 3.6 3.0 1.85 4.5 -0.4 4.2 -2.7 3.9 -4.15 2.4 -5.65 0.85 -5.85 -0.65 L-6.0 -2.85" fill="#111111" fill-rule="evenodd" stroke="none"/>
    <path d="M3.9 -4.35 Q3.6 -4.1 3.6 -3.7 3.6 -3.35 3.9 -2.95 L4.6 -2.65 5.3 -2.95 5.6 -3.7 5.3 -4.35 Q5.0 -4.65 4.6 -4.65 L3.9 -4.35 M6.2 -1.8 L2.65 -1.4 0.5 -1.4 -2.25 -1.65 -3.85 -2.0 -6.0 -2.85 Q-5.65 -6.6 -2.35 -7.35 0.9 -8.15 4.5 -6.55 8.05 -4.95 6.2 -1.8" fill="url(#gradient0)" fill-rule="evenodd" stroke="none"/>
    <path d="M-6.0 -2.85 L-5.85 -0.65 Q-5.65 0.85 -4.15 2.4 -2.7 3.9 -0.4 4.2 1.85 4.5 3.6 3.0 5.35 1.45 5.75 -0.15 6.1 -1.75 6.2 -1.8" fill="none" stroke="#000000" stroke-linecap="round" stroke-linejoin="round" stroke-width="1.0"/>
    <path d="M3.9 -4.35 L4.6 -4.65 Q5.0 -4.65 5.3 -4.35 L5.6 -3.7 5.3 -2.95 4.6 -2.65 3.9 -2.95 Q3.6 -3.35 3.6 -3.7 3.6 -4.1 3.9 -4.35 M6.2 -1.8 L2.65 -1.4 0.5 -1.4 -2.25 -1.65 -3.85 -2.0 -6.0 -2.85 Q-5.65 -6.6 -2.35 -7.35 0.9 -8.15 4.5 -6.55 8.05 -4.95 6.2 -1.8 Z" fill="none" stroke="#3a2b1b" stroke-linecap="round" stroke-linejoin="round" stroke-width="1.0"/>
  </g>
  <defs>
    <radialGradient cx="0" cy="0" gradientTransform="matrix(0.0164, 0.0, 0.0, 0.0098, -0.75, -4.6)" gradientUnits="userSpaceOnUse" id="gradient0" r="819.2" spreadMethod="pad">
      <stop offset="0.0" stop-color="#f0c468"/>
      <stop offset="1.0" stop-color="#392e18"/>
    </radialGradient>
  </defs>
</svg>
