<?xml version="1.0" encoding="UTF-8" standalone="no"?>
<svg xmlns:ffdec="https://www.free-decompiler.com/flash" xmlns:xlink="http://www.w3.org/1999/xlink" ffdec:objectType="shape" height="12.45px" width="48.3px" xmlns="http://www.w3.org/2000/svg">
  <g transform="matrix(1.0, 0.0, 0.0, 1.0, 0.5, 0.5)">
    <path d="M0.0 0.0 L5.8 0.0 10.0 0.8 14.55 0.8 17.2 2.65 22.75 1.2 47.3 5.9 29.0 9.7 26.0 8.7 18.1 10.65 13.75 9.25 7.55 11.45 2.35 9.8 5.2 8.65 8.95 8.65 11.35 6.45 9.7 4.0 6.4 4.0 0.0 0.0" fill="#bbd6f0" fill-rule="evenodd" stroke="none"/>
    <path d="M0.0 0.0 L6.4 4.0 9.7 4.0 11.35 6.45 8.95 8.65 5.2 8.65 2.35 9.8 7.55 11.45 13.75 9.25 18.1 10.65 26.0 8.7 29.0 9.7 47.3 5.9 22.75 1.2 17.2 2.65 14.55 0.8 10.0 0.8 5.8 0.0 0.0 0.0 Z" fill="none" stroke="#99adcb" stroke-linecap="round" stroke-linejoin="round" stroke-width="1.0"/>
  </g>
</svg>
