<?xml version="1.0" encoding="UTF-8" standalone="no"?>
<svg xmlns:ffdec="https://www.free-decompiler.com/flash" xmlns:xlink="http://www.w3.org/1999/xlink" ffdec:objectType="shape" height="23.7px" width="17.75px" xmlns="http://www.w3.org/2000/svg">
  <g transform="matrix(1.0, 0.0, 0.0, 1.0, 7.9, 2.95)">
    <path d="M5.2 16.2 L4.95 16.2 4.8 15.05 2.85 14.7 1.1 12.9 0.05 11.25 -1.5 7.55 -1.65 4.55 -2.85 0.45 -2.65 -0.05 0.35 -1.8 3.25 -1.65 5.95 4.55 Q7.45 8.25 7.6 11.2 L8.25 11.7 9.3 15.25 8.45 16.55 6.6 17.4 5.2 16.2" fill="#1f211f" fill-rule="evenodd" stroke="none"/>
    <path d="M-2.9 -0.45 L0.0 -1.85 1.4 -2.0 3.2 -1.9 Q4.8 0.85 6.15 4.95 L8.2 12.15" fill="none" stroke="#111211" stroke-linecap="round" stroke-linejoin="round" stroke-width="0.9500000000000001"/>
    <path d="M4.95 16.0 L9.05 15.55 9.0 17.7 8.5 18.75 7.05 20.2 Q6.35 20.4 5.9 20.2 5.2 19.9 5.0 19.05 L5.0 18.2 5.15 17.4 4.95 16.0" fill="#242924" fill-rule="evenodd" stroke="none"/>
    <path d="M4.95 16.0 L5.15 17.4 5.0 18.2 5.0 19.05 Q5.2 19.9 5.9 20.2 6.35 20.4 7.05 20.2 L8.5 18.75 9.0 17.7 9.05 15.55" fill="none" stroke="#131613" stroke-linecap="round" stroke-linejoin="round" stroke-width="0.9500000000000001"/>
    <path d="M-1.85 6.45 L-0.15 10.9 1.3 13.15 3.15 14.7 4.75 15.45" fill="none" stroke="#111211" stroke-linecap="round" stroke-linejoin="round" stroke-width="0.9500000000000001"/>
    <path d="M-7.4 -1.5 Q-6.65 -2.25 -5.15 -2.45 L-2.9 -2.25 -1.1 3.65 -1.95 6.7 -4.4 5.2 -6.1 2.7 Q-7.7 0.05 -7.4 -1.5" fill="#576056" fill-rule="evenodd" stroke="none"/>
    <path d="M-7.4 -1.5 Q-6.65 -2.25 -5.15 -2.45 L-2.9 -2.25 -1.1 3.65 -1.95 6.7 -4.4 5.2 -6.1 2.7 Q-7.7 0.05 -7.4 -1.5 Z" fill="none" stroke="#272b26" stroke-linecap="round" stroke-linejoin="round" stroke-width="0.9500000000000001"/>
    <path d="M3.4 7.35 L4.45 9.15 1.95 11.05 Q0.75 10.1 0.85 8.9 L3.4 7.35" fill="#242924" fill-rule="evenodd" stroke="none"/>
    <path d="M3.4 7.35 L0.85 8.9 Q0.75 10.1 1.95 11.05 L4.45 9.15 3.4 7.35 Z" fill="none" stroke="#161816" stroke-linecap="round" stroke-linejoin="round" stroke-width="0.9500000000000001"/>
    <path d="M4.5 14.65 Q5.9 12.85 8.8 12.75 L9.45 14.95 Q8.5 16.95 7.2 17.1 6.25 17.15 4.75 16.0 L4.5 14.65" fill="#394039" fill-rule="evenodd" stroke="none"/>
    <path d="M4.4 14.5 L4.9 16.15 6.4 17.2 8.25 16.85 9.4 15.1 8.5 12.2 7.8 11.4" fill="none" stroke="#1c1f1c" stroke-linecap="round" stroke-linejoin="round" stroke-width="0.9500000000000001"/>
    <path d="M4.4 14.6 Q6.0 12.0 8.65 12.75" fill="none" stroke="#1f221e" stroke-linecap="round" stroke-linejoin="round" stroke-width="0.9500000000000001"/>
    <path d="M0.25 1.7 Q1.0 0.55 3.15 -0.05 L6.15 0.1 8.75 8.9 8.15 10.5 6.25 10.8 4.3 9.95 2.85 6.25 1.0 4.75 0.25 1.7" fill="#394039" fill-rule="evenodd" stroke="none"/>
    <path d="M0.25 1.7 Q1.0 0.55 3.15 -0.05 L6.15 0.1 8.75 8.9 8.15 10.5 6.25 10.8 4.3 9.95 2.85 6.25 1.0 4.75 0.25 1.7 Z" fill="none" stroke="#1a1e19" stroke-linecap="round" stroke-linejoin="round" stroke-width="1.0"/>
    <path d="M5.95 8.45 L7.0 8.1" fill="none" stroke="#ffffff" stroke-linecap="round" stroke-linejoin="round" stroke-width="1.0"/>
    <path d="M4.6 6.7 L5.35 6.5" fill="none" stroke="#858585" stroke-linecap="round" stroke-linejoin="round" stroke-width="1.0"/>
  </g>
</svg>
