<?xml version="1.0" encoding="UTF-8" standalone="no"?>
<svg xmlns:ffdec="https://www.free-decompiler.com/flash" xmlns:xlink="http://www.w3.org/1999/xlink" ffdec:objectType="shape" height="23.8px" width="12.25px" xmlns="http://www.w3.org/2000/svg">
  <g transform="matrix(1.0, 0.0, 0.0, 1.0, 1.25, 5.65)">
    <path d="M7.1 -0.3 L8.35 -0.8 8.95 3.65 Q8.8 6.75 9.9 10.85 L8.85 10.55 7.75 10.9 7.7 10.9 Q6.55 11.2 6.0 12.05 L5.95 12.15 0.5 3.5 2.75 4.1 3.85 5.0 5.15 6.7 5.7 5.55 6.2 3.9 6.35 2.6 7.1 -0.3" fill="#211313" fill-rule="evenodd" stroke="none"/>
    <path d="M9.9 10.85 L10.3 11.75 10.5 12.95 Q10.55 14.3 9.85 15.6 L7.45 17.65 7.3 17.6 6.15 16.6 Q5.55 15.95 5.95 14.65 L5.95 14.55 5.9 14.55 5.7 13.65 Q5.55 12.8 5.95 12.15 L6.0 12.05 Q6.55 11.2 7.7 10.9 L7.75 10.9 8.85 10.55 9.9 10.85 M-0.45 -2.3 Q0.35 -5.05 3.2 -4.4 L4.5 -2.3 4.6 -1.9 4.55 -1.8 4.85 -1.15 4.95 -0.2 Q4.9 0.85 4.2 1.4 L3.7 1.75 Q3.45 1.85 3.15 2.0 L1.95 1.6 0.65 0.15 0.5 -0.05 -0.45 -2.3 M3.05 -0.1 L2.2 -1.75 3.05 -0.1 M9.85 15.6 L7.65 13.6 Q7.3 12.9 6.55 13.95 L5.95 14.55 6.55 13.95 Q7.3 12.9 7.65 13.6 L9.85 15.6" fill="#141414" fill-rule="evenodd" stroke="none"/>
    <path d="M3.2 -4.4 L3.65 -4.95 3.85 -5.0 4.45 -5.15 4.95 -5.1 5.05 -5.05 Q5.65 -5.15 6.45 -3.15 7.15 -1.15 7.1 -0.3 L6.35 2.6 6.2 3.9 5.7 5.55 5.15 6.7 3.85 5.0 2.75 4.1 0.5 3.5 Q-0.25 2.8 -0.7 0.5 -0.9 -0.85 -0.45 -2.3 L0.5 -0.05 0.65 0.15 1.95 1.6 3.15 2.0 Q3.45 1.85 3.7 1.75 L4.2 1.4 Q4.9 0.85 4.95 -0.2 L4.85 -1.15 4.55 -1.8 4.6 -1.9 4.5 -2.3 3.2 -4.4" fill="#3b2323" fill-rule="evenodd" stroke="none"/>
    <path d="M3.2 -4.4 L3.65 -4.95 3.85 -5.0 4.45 -5.15 4.95 -5.1 5.05 -5.05 Q5.65 -5.15 6.45 -3.15 7.15 -1.15 7.1 -0.3 L8.35 -0.8 8.95 3.65 Q8.8 6.75 9.9 10.85 M5.95 12.15 L0.5 3.5 Q-0.25 2.8 -0.7 0.5 -0.9 -0.85 -0.45 -2.3 M7.1 -0.3 L6.35 2.6 6.2 3.9 5.7 5.55 5.15 6.7 3.85 5.0 2.75 4.1 0.5 3.5" fill="none" stroke="#0e0808" stroke-linecap="round" stroke-linejoin="round" stroke-width="1.0"/>
    <path d="M2.2 -1.75 L3.05 -0.1" fill="none" stroke="#ff094f" stroke-linecap="round" stroke-linejoin="round" stroke-width="1.0"/>
    <path d="M9.9 10.85 L10.3 11.75 10.5 12.95 Q10.55 14.3 9.85 15.6 L7.45 17.65 7.3 17.6 6.15 16.6 Q5.55 15.95 5.95 14.65 L5.9 14.55 5.7 13.65 Q5.55 12.8 5.95 12.15 L6.0 12.05 Q6.55 11.2 7.7 10.9 L7.75 10.9 8.85 10.55 9.9 10.85 M-0.45 -2.3 Q0.35 -5.05 3.2 -4.4 L4.5 -2.3 4.6 -1.9 4.55 -1.8 4.85 -1.15 4.95 -0.2 Q4.9 0.85 4.2 1.4 L3.7 1.75 Q3.45 1.85 3.15 2.0 L1.95 1.6 0.65 0.15 0.5 -0.05 -0.45 -2.3 M5.95 14.55 L6.55 13.95 Q7.3 12.9 7.65 13.6 L9.85 15.6 M5.95 14.65 L5.95 14.55" fill="none" stroke="#0a0a0a" stroke-linecap="round" stroke-linejoin="round" stroke-width="1.0"/>
  </g>
</svg>
