<?xml version="1.0" encoding="UTF-8" standalone="no"?>
<svg xmlns:ffdec="https://www.free-decompiler.com/flash" xmlns:xlink="http://www.w3.org/1999/xlink" ffdec:objectType="shape" height="11.75px" width="25.9px" xmlns="http://www.w3.org/2000/svg">
  <g transform="matrix(1.0, 0.0, 0.0, 1.0, 0.05, 2.05)">
    <path d="M23.65 0.35 L24.65 0.85 25.25 1.6 Q25.75 2.9 24.15 4.25 L23.05 4.95 Q22.55 5.35 20.5 5.4 L18.95 4.6 19.7 3.75 Q21.6 4.05 23.65 2.3 L23.65 0.35" fill="#2a2c27" fill-rule="evenodd" stroke="none"/>
    <path d="M10.65 -0.75 L10.65 1.75 14.35 1.75 14.35 -0.3 10.65 -0.75 M7.55 -1.45 L17.15 -0.9 17.15 3.4 14.8 3.75 13.25 3.95 11.0 4.05 9.25 4.3 7.55 2.3 7.55 -1.45 M19.1 -0.05 L21.4 -0.5 Q22.9 -0.75 23.65 -0.2 L23.65 0.35 23.65 2.3 Q21.6 4.05 19.7 3.75 20.15 0.8 19.3 0.05 L19.1 -0.05" fill="#54504d" fill-rule="evenodd" stroke="none"/>
    <path d="M1.95 5.1 L1.95 1.55 3.7 0.7 5.15 -0.5 7.55 -1.45 7.55 2.3 9.25 4.3 11.0 4.05 10.9 4.3 13.25 3.95 14.8 3.75 17.15 3.4 17.15 -0.9 19.1 -0.05 19.3 0.05 Q20.15 0.8 19.7 3.75 L18.95 4.6 18.1 5.45 13.95 6.35 Q12.25 7.6 10.0 7.2 L8.85 7.45 7.65 5.7 3.7 5.1 1.95 5.1 M3.7 0.7 Q3.0 3.1 3.7 5.1 3.0 3.1 3.7 0.7 M14.8 3.75 L13.95 6.35 14.8 3.75 M10.9 4.3 L10.0 7.2 10.9 4.3" fill="#746e69" fill-rule="evenodd" stroke="none"/>
    <path d="M7.45 8.1 L4.65 9.2 0.45 7.4 1.95 5.1 3.7 5.1 7.65 5.7 8.85 7.45 7.45 8.1" fill="#4d1d1d" fill-rule="evenodd" stroke="none"/>
    <path d="M10.65 -0.75 L14.35 -0.3 14.35 1.75 10.65 1.75 10.65 -0.75" fill="#ff4343" fill-rule="evenodd" stroke="none"/>
    <path d="M1.95 5.1 L1.95 1.55 3.7 0.7 5.15 -0.5 7.55 -1.45 17.15 -0.9 19.1 -0.05 21.4 -0.5 Q22.9 -0.75 23.65 -0.2 L23.65 0.35 24.65 0.85 25.25 1.6 Q25.75 2.9 24.15 4.25 L23.05 4.95 Q22.55 5.35 20.5 5.4 L18.95 4.6 18.1 5.45 13.95 6.35 Q12.25 7.6 10.0 7.2 L8.85 7.45 8.85 7.5 7.45 8.1 4.65 9.2 0.45 7.4 1.95 5.1 3.7 5.1 Q3.0 3.1 3.7 0.7 M19.7 3.75 Q21.6 4.05 23.65 2.3 L23.65 0.35 M19.7 3.75 L18.95 4.6 M19.1 -0.05 L19.3 0.05 Q20.15 0.8 19.7 3.75 M13.25 3.95 L14.8 3.75 17.15 3.4 17.15 -0.9 M13.25 3.95 L11.0 4.05 10.9 4.3 13.25 3.95 M13.95 6.35 L14.8 3.75 M11.0 4.05 L9.25 4.3 7.55 2.3 7.55 -1.45 M8.85 7.45 L7.45 8.1 M8.85 7.45 L7.65 5.7 3.7 5.1 M10.0 7.2 L10.9 4.3" fill="none" stroke="#21201f" stroke-linecap="round" stroke-linejoin="round" stroke-width="1.0"/>
    <path d="M10.65 -0.75 L10.65 1.75 14.35 1.75 14.35 -0.3 10.65 -0.75 Z" fill="none" stroke="#930d0d" stroke-linecap="round" stroke-linejoin="round" stroke-width="1.0"/>
  </g>
</svg>
