<?xml version="1.0" encoding="UTF-8" standalone="no"?>
<svg xmlns:ffdec="https://www.free-decompiler.com/flash" xmlns:xlink="http://www.w3.org/1999/xlink" ffdec:objectType="shape" height="59.95px" width="42.15px" xmlns="http://www.w3.org/2000/svg">
  <g transform="matrix(1.0, 0.0, 0.0, 1.0, 0.0, 0.0)">
    <path d="M10.35 14.95 L13.1 10.95 18.05 22.9 18.85 23.8 19.65 24.2 20.75 24.2 29.55 45.65 26.95 45.8 Q26.45 45.65 25.3 44.95 L23.7 43.85 21.8 42.35 18.4 34.8 20.0 33.35 17.35 27.0 14.95 26.3 10.35 14.95" fill="#ffffff" fill-opacity="0.8039216" fill-rule="evenodd" stroke="none"/>
    <path d="M10.35 14.95 L14.95 26.3 17.35 27.0 20.0 33.35 18.4 34.8 21.8 42.35 23.7 43.85 25.3 44.95 Q26.45 45.65 26.95 45.8 L29.55 45.65 20.75 24.2 19.65 24.2 18.85 23.8 18.05 22.9 13.1 10.95 10.35 14.95 Z" fill="none" stroke="#a4a4a4" stroke-linecap="round" stroke-linejoin="round" stroke-opacity="0.7490196" stroke-width="1.0"/>
    <path d="M9.3 0.6 Q16.35 -1.8 24.65 5.15 31.55 11.0 35.9 19.75 41.3 30.7 42.05 41.8 43.0 55.45 34.85 58.95 25.25 62.95 14.35 51.3 4.85 41.15 1.25 28.3 -1.0 20.45 0.85 12.15 2.95 2.8 9.3 0.6" fill="url(#gradient0)" fill-rule="evenodd" stroke="none"/>
  </g>
  <defs>
    <radialGradient cx="0" cy="0" gradientTransform="matrix(0.0154, 0.0355, -0.0194, 0.0084, 21.6, 30.15)" gradientUnits="userSpaceOnUse" id="gradient0" r="819.2" spreadMethod="pad">
      <stop offset="0.0" stop-color="#ffffff" stop-opacity="0.44705883"/>
      <stop offset="1.0" stop-color="#ffffff" stop-opacity="0.0"/>
    </radialGradient>
  </defs>
</svg>
