<?xml version="1.0" encoding="UTF-8" standalone="no"?>
<svg xmlns:xlink="http://www.w3.org/1999/xlink" height="22.55px" width="14.95px" xmlns="http://www.w3.org/2000/svg">
  <g transform="matrix(1.0, 0.0, 0.0, 1.0, 7.8, 2.65)">
    <path d="M-0.2 4.15 L0.7 3.95 Q2.0 3.8 3.3 4.5 4.55 5.2 4.95 6.2 5.0 7.35 3.35 8.45 L0.65 10.05 0.0 13.3 Q-0.55 16.05 -1.2 16.2 L-1.55 16.15 Q-2.1 16.05 -3.4 14.05 L-5.45 9.95 -3.65 8.15 Q-2.1 6.65 -2.15 6.15 -1.95 4.55 -0.2 4.15" fill="url(#gradient0)" fill-rule="evenodd" stroke="none"/>
    <path d="M-7.45 5.45 L-7.15 2.0 -5.55 -0.2 Q-4.85 -1.1 -3.55 -0.75 -4.05 -0.6 -2.95 -0.1 -1.55 0.5 -1.6 1.05 -1.55 1.45 -2.25 2.55 L-3.15 3.9 Q-5.95 5.2 -7.45 5.45 M-2.3 19.8 Q-3.9 19.35 -5.15 17.25 L-2.05 16.8 Q-0.25 16.5 0.4 17.5 -0.4 20.35 -2.3 19.8" fill="#131442" fill-rule="evenodd" stroke="none"/>
    <path d="M0.9 -1.8 L5.95 -1.45 6.7 -0.65 5.5 5.45 Q5.35 5.7 4.15 4.7 2.8 3.7 2.35 4.25 L0.3 4.45 Q-1.5 4.5 -1.55 5.4 -1.65 6.35 -3.35 7.9 L-5.05 9.6 -5.05 9.7 -4.65 10.5 -3.05 12.3 -2.55 15.2 -1.5 15.8 -0.2 15.45 -0.5 17.5 Q-3.15 18.2 -3.8 18.1 -4.45 18.0 -4.45 17.1 -4.6 13.15 -6.6 10.45 L-6.7 8.4 Q-6.7 7.55 -7.6 7.35 -7.0 6.0 -5.7 5.2 L-3.6 4.35 Q-3.2 4.25 -1.7 1.55 -0.2 -1.3 0.9 -1.8" fill="#0f172a" fill-rule="evenodd" stroke="none"/>
    <path d="M-7.15 10.9 Q-6.6 10.7 -5.75 11.85 L-4.85 12.5 -4.85 16.05 Q-4.75 16.95 -5.2 17.3 L-6.4 18.05 -6.35 17.95 -7.2 14.05 Q-7.7 11.6 -7.15 10.9" fill="#181621" fill-rule="evenodd" stroke="none"/>
    <path d="M1.0 9.6 Q2.75 9.15 3.6 7.85 L5.05 5.15 Q5.3 3.45 6.0 1.55 L6.65 -0.7 6.15 -0.55 5.55 -0.35 5.8 -1.15 6.0 -2.0 Q5.75 -2.15 4.9 -1.6 L3.4 -0.95 Q3.05 -0.85 3.7 -1.5 L4.15 -2.15 1.25 -1.55 Q-0.55 -1.05 -0.6 0.55 M0.5 9.55 L-0.35 12.75 Q-0.85 14.8 -0.1 16.25 L1.0 18.25 -0.55 19.15 -2.1 19.3 Q-2.9 19.15 -4.4 18.4 -5.6 17.7 -6.0 17.8 -6.8 16.6 -7.05 13.8 -7.3 11.05 -6.8 9.75 -7.7 6.85 -7.05 3.7 -6.4 0.8 -4.7 -1.05 -3.4 -0.7 -2.8 0.0 -2.5 0.35 -2.15 1.35" fill="none" stroke="#040409" stroke-linecap="round" stroke-linejoin="round" stroke-width="1.0"/>
    <path d="M3.25 4.1 L4.0 4.85 4.8 5.05 4.05 4.6 3.25 4.1 3.05 3.75 2.55 4.0 1.55 4.2 -1.2 4.4 Q-1.75 4.7 -1.85 5.35 L-1.8 5.9 -1.35 6.75 -0.7 8.2 -0.5 8.7 0.0 9.55 0.55 9.75 M-7.0 7.45 Q-6.95 5.5 -6.2 5.1 L-3.55 4.7 Q-3.25 4.5 -2.6 3.3 -1.85 1.95 -1.8 1.35 L-1.75 1.25 -2.1 1.8 -1.95 1.5 -1.75 1.25 -1.3 0.8 -0.8 0.5 1.6 0.65 Q1.9 0.85 1.2 2.25 0.55 3.7 0.8 3.85 L1.55 4.2 1.9 4.15 2.55 4.0 3.05 3.65 3.25 4.1 M-0.65 15.45 Q-1.4 16.35 -1.65 16.1 -1.75 16.0 -2.3 15.85 -2.7 15.8 -2.9 15.2 L-2.85 13.5 Q-2.65 12.45 -2.9 12.15 -3.6 11.3 -4.65 11.0 -5.5 9.95 -5.3 9.6 -3.45 7.2 -2.9 7.3 -2.55 7.3 -2.1 6.9 L-1.7 6.55 -0.7 8.2 -0.3 9.3 0.0 9.55 M0.25 16.75 Q-0.05 16.7 -0.7 17.2 -1.45 17.7 -1.75 17.6 L-4.55 16.9 Q-5.45 16.7 -5.2 17.6 M-6.9 8.45 Q-6.95 10.15 -6.35 11.35 -5.7 12.7 -4.7 12.8 L-4.45 16.5" fill="none" stroke="#080815" stroke-linecap="round" stroke-linejoin="round" stroke-width="1.0"/>
    <path d="M1.85 4.35 L2.95 6.7 Q3.45 7.85 3.35 8.25 L2.95 9.1 2.1 9.1 -0.05 4.35" fill="none" stroke="#070611" stroke-linecap="round" stroke-linejoin="round" stroke-opacity="0.5568628" stroke-width="1.0"/>
  </g>
  <defs>
    <linearGradient gradientTransform="matrix(0.0013, 0.0019, -0.0019, 0.0013, -0.45, 9.5)" gradientUnits="userSpaceOnUse" id="gradient0" spreadMethod="pad" x1="-819.2" x2="819.2">
      <stop offset="0.0" stop-color="#2d1d38"/>
      <stop offset="1.0" stop-color="#221c44"/>
    </linearGradient>
  </defs>
</svg>
