<?xml version="1.0" encoding="UTF-8" standalone="no"?>
<svg xmlns:ffdec="https://www.free-decompiler.com/flash" xmlns:xlink="http://www.w3.org/1999/xlink" ffdec:objectType="shape" height="11.6px" width="45.15px" xmlns="http://www.w3.org/2000/svg">
  <g transform="matrix(1.0, 0.0, 0.0, 1.0, 19.15, 17.2)">
    <path d="M20.0 -15.7 L21.7 -15.15 22.45 -16.25 24.3 -16.7 25.35 -15.45 25.15 -13.75 25.5 -12.55 -5.15 -6.1 Q-20.75 -6.35 -18.3 -7.65 L4.85 -12.55 6.8 -11.9 8.25 -13.4 10.0 -12.6 11.25 -13.95 12.7 -13.15 14.15 -14.45 15.85 -13.9 17.05 -15.15 18.6 -14.45 20.0 -15.7" fill="#c60046" fill-rule="evenodd" stroke="none"/>
    <path d="M20.0 -15.7 L21.7 -15.15 22.45 -16.25 24.3 -16.7 25.35 -15.45 25.15 -13.75 25.5 -12.55 -5.15 -6.1 Q-20.75 -6.35 -18.3 -7.65 L4.85 -12.55 6.8 -11.9 8.25 -13.4 10.0 -12.6 11.25 -13.95 12.7 -13.15 14.15 -14.45 15.85 -13.9 17.05 -15.15 18.6 -14.45 20.0 -15.7 Z" fill="none" stroke="#3a000b" stroke-linecap="round" stroke-linejoin="round" stroke-opacity="0.41960785" stroke-width="1.0"/>
  </g>
</svg>
