<?xml version="1.0" encoding="UTF-8" standalone="no"?>
<svg xmlns:xlink="http://www.w3.org/1999/xlink" height="368.5px" width="766.45px" xmlns="http://www.w3.org/2000/svg">
  <g transform="matrix(1.0, 0.0, 0.0, 1.0, -18.0, -19.0)">
    <path d="M567.0 40.0 L18.0 40.0 18.0 19.0 567.0 19.0 567.0 40.0" fill="url(#gradient0)" fill-rule="evenodd" stroke="none"/>
    <path d="M783.95 349.0 L253.0 349.0 253.0 220.0 783.95 220.0 783.95 349.0" fill="#132831" fill-rule="evenodd" stroke="none"/>
    <path d="M745.95 387.0 L253.0 387.0 253.0 358.0 745.95 358.0 745.95 387.0" fill="#0c1a1f" fill-rule="evenodd" stroke="none"/>
    <path d="M745.95 387.0 L253.0 387.0 253.0 358.0 745.95 358.0 745.95 387.0 M783.95 349.0 L253.0 349.0 253.0 220.0 783.95 220.0 783.95 349.0" fill="none" stroke="#37748c" stroke-linecap="round" stroke-linejoin="round" stroke-width="1.0"/>
  </g>
  <defs>
    <linearGradient gradientTransform="matrix(0.3351, 0.0, 0.0, 0.0098, 292.45, 28.0)" gradientUnits="userSpaceOnUse" id="gradient0" spreadMethod="pad" x1="-819.2" x2="819.2">
      <stop offset="0.0" stop-color="#66ccff" stop-opacity="0.4117647"/>
      <stop offset="1.0" stop-color="#66ccff" stop-opacity="0.0"/>
    </linearGradient>
  </defs>
</svg>
