<?xml version="1.0" encoding="UTF-8" standalone="no"?>
<svg xmlns:ffdec="https://www.free-decompiler.com/flash" xmlns:xlink="http://www.w3.org/1999/xlink" ffdec:objectType="shape" height="22.6px" width="15.8px" xmlns="http://www.w3.org/2000/svg">
  <g transform="matrix(1.0, 0.0, 0.0, 1.0, -2.65, -4.25)">
    <path d="M16.15 16.25 L16.85 16.65 17.3 18.1 17.0 18.6 17.5 18.9 17.95 20.15 17.65 20.55 17.4 20.65 10.95 22.8 10.4 22.6 10.0 21.15 10.1 21.1 10.2 21.0 10.4 20.7 10.0 20.6 9.8 20.5 9.75 20.5 9.3 19.2 9.4 19.05 9.45 18.85 9.6 18.45 11.55 17.8 12.9 17.35 12.9 17.4 16.15 16.25 M17.35 21.1 L17.7 22.45 Q17.85 23.15 17.5 23.95 17.65 22.85 17.05 21.2 17.65 22.85 17.5 23.95 L17.25 24.6 Q16.6 25.85 15.9 26.1 L14.1 25.85 13.2 25.3 12.9 25.05 11.7 22.95 12.0 22.85 Q12.5 24.45 13.2 25.3 12.5 24.45 12.0 22.85 L17.05 21.2 17.35 21.1 M10.4 20.7 L17.0 18.6 10.4 20.7" fill="#1b1c1e" fill-rule="evenodd" stroke="none"/>
    <path d="M12.8 5.7 L13.0 5.75 Q14.25 6.6 14.05 7.15 L13.6 6.8 Q12.95 6.35 12.8 5.7 12.95 6.35 13.6 6.8 L14.05 7.15 13.8 7.45 13.7 7.55 13.65 7.6 13.55 7.65 10.15 10.35 Q7.8 12.0 6.5 12.3 L6.45 12.3 6.15 9.9 6.2 9.9 6.15 9.9 5.95 8.1 5.7 6.25 6.65 5.85 7.15 5.65 Q8.95 5.05 12.15 5.6 L12.8 5.7 M13.55 7.65 L13.6 7.55 13.7 7.55 13.6 7.55 13.55 7.65 M11.5 7.3 L12.75 6.35 11.5 7.3 M6.2 9.9 L6.4 10.75 6.45 12.3 6.4 10.75 6.2 9.9 6.15 9.3 5.95 8.1 Q6.5 7.4 8.25 7.3 6.5 7.4 5.95 8.1 L6.15 9.3 6.2 9.9 8.55 9.75 6.2 9.9" fill="#353a6b" fill-rule="evenodd" stroke="none"/>
    <path d="M13.65 7.6 L13.95 8.45 13.7 8.35 11.9 9.4 10.15 10.35 13.55 7.65 13.65 7.6 M17.4 20.65 L17.5 21.0 17.35 21.1 17.05 21.2 12.0 22.85 11.7 22.95 11.1 23.15 10.95 22.8 17.4 20.65 M9.4 19.05 L8.7 17.55 7.75 15.3 7.4 14.35 6.5 12.3 Q8.25 12.05 10.05 11.0 8.25 12.05 6.5 12.3 7.8 12.0 10.15 10.35 L10.05 11.0 9.85 12.35 11.35 13.2 11.55 13.7 12.45 16.1 12.9 17.35 11.55 17.8 9.6 18.45 9.45 18.85 8.9 17.75 8.7 17.55 8.9 17.75 9.45 18.85 9.4 19.05 M10.35 4.85 L11.2 5.0 11.45 5.15 11.55 5.15 12.15 5.6 Q8.95 5.05 7.15 5.65 L6.65 5.85 6.8 5.6 7.5 5.2 9.2 4.6 10.35 4.85 9.45 5.0 6.8 5.6 9.45 5.0 10.35 4.85 M12.65 8.7 L11.9 9.4 12.65 8.7 13.55 7.65 12.65 8.7 M7.75 15.3 L7.8 14.9 Q7.85 14.45 7.55 14.4 L7.4 14.35 7.55 14.4 Q7.85 14.45 7.8 14.9 L7.75 15.3 M12.45 16.1 L12.2 16.7 11.55 17.8 12.2 16.7 12.45 16.1 M10.15 14.85 L11.55 13.7 10.15 14.85 M10.0 20.6 L10.4 20.7 10.2 21.0 10.0 20.6" fill="#2d2b36" fill-rule="evenodd" stroke="none"/>
    <path d="M13.95 8.45 L15.0 8.95 17.25 15.4 16.15 16.25 12.9 17.4 12.9 17.35 12.45 16.1 11.55 13.7 11.35 13.2 9.85 12.35 10.05 11.0 10.15 10.35 11.9 9.4 13.7 8.35 13.95 8.45 M14.9 13.35 L13.1 13.85 14.9 13.35 M15.45 14.6 L13.7 15.15 15.45 14.6" fill="#2a2b43" fill-rule="evenodd" stroke="none"/>
    <path d="M4.8 11.75 L4.1 8.45 4.8 11.75 M3.15 7.3 L3.8 6.45 4.15 5.9 5.7 6.25 5.95 8.1 6.15 9.9 6.45 12.3 6.55 12.9 5.95 13.65 5.9 13.7 5.85 13.65 5.95 13.65 5.85 13.65 4.5 12.8 3.15 7.3 M3.8 6.45 L5.7 6.25 3.8 6.45" fill="#282e68" fill-rule="evenodd" stroke="none"/>
    <path d="M16.15 16.25 L16.85 16.65 17.3 18.1 17.0 18.6 17.5 18.9 17.95 20.15 17.65 20.55 17.4 20.65 10.95 22.8 10.4 22.6 10.0 21.15 10.1 21.1 10.2 21.0 10.4 20.7 10.0 20.6 9.8 20.5 9.75 20.5 9.3 19.2 9.4 19.05 9.45 18.85 9.6 18.45 11.55 17.8 12.9 17.35" fill="none" stroke="#090909" stroke-linecap="round" stroke-linejoin="round" stroke-width="1.0"/>
    <path d="M11.55 5.15 L11.95 5.05 Q12.65 5.0 12.75 5.6 L12.8 5.7 Q12.95 6.35 13.6 6.8 L14.05 7.15 Q14.2 7.5 13.7 7.55 L13.6 7.55 13.55 7.65 12.65 8.7" fill="none" stroke="#1c1e2c" stroke-linecap="round" stroke-linejoin="round" stroke-width="1.0"/>
    <path d="M11.45 5.15 Q12.35 4.55 10.35 4.85 L9.45 5.0 6.8 5.6 Q5.95 5.95 5.7 6.25" fill="none" stroke="#2d3153" stroke-linecap="round" stroke-linejoin="round" stroke-width="1.0"/>
    <path d="M12.75 6.35 L11.5 7.3 M6.2 9.9 L6.15 9.9 M5.95 8.1 Q6.5 7.4 8.25 7.3 M8.55 9.75 L6.2 9.9" fill="none" stroke="#292c48" stroke-linecap="round" stroke-linejoin="round" stroke-width="1.0"/>
    <path d="M11.9 9.4 L12.65 8.7 M6.5 12.3 L6.45 12.3 M10.05 11.0 Q8.25 12.05 6.5 12.3" fill="none" stroke="#22222c" stroke-linecap="round" stroke-linejoin="round" stroke-width="1.0"/>
    <path d="M13.95 8.45 L15.0 8.95 17.25 15.4 16.15 16.25 12.9 17.4 12.9 17.35 12.45 16.1 11.55 13.7 11.35 13.2 9.85 12.35 10.05 11.0 10.15 10.35 11.9 9.4 13.7 8.35 13.95 8.45" fill="none" stroke="#16161b" stroke-linecap="round" stroke-linejoin="round" stroke-width="1.0"/>
    <path d="M3.8 6.45 L3.45 6.5 3.15 7.3 4.5 12.8 5.05 13.8 5.85 13.65 5.95 13.65 6.65 13.55 M5.7 6.25 L3.8 6.45" fill="none" stroke="#13151e" stroke-linecap="round" stroke-linejoin="round" stroke-width="1.0"/>
    <path d="M6.85 14.1 L5.5 14.4 M4.15 5.9 L5.35 5.65" fill="none" stroke="#09090c" stroke-linecap="round" stroke-linejoin="round" stroke-width="1.0"/>
    <path d="M5.95 8.1 L5.7 6.25 M6.45 12.3 L6.4 10.75 6.2 9.9 6.15 9.3 5.95 8.1 M6.45 12.3 L6.55 12.9" fill="none" stroke="#1a1a34" stroke-linecap="round" stroke-linejoin="round" stroke-width="1.0"/>
    <path d="M4.1 8.45 L4.8 11.75" fill="none" stroke="#171a3b" stroke-linecap="round" stroke-linejoin="round" stroke-width="1.0"/>
    <path d="M10.1 21.1 L9.8 20.5 M8.7 17.55 Q7.75 16.1 7.75 15.6 L7.75 15.3 7.8 14.9 Q7.85 14.45 7.55 14.4 L7.4 14.35 6.85 14.1 6.7 13.8 6.65 13.55 6.55 12.9 M8.7 17.55 L8.9 17.75 9.45 18.85" fill="none" stroke="#151515" stroke-linecap="round" stroke-linejoin="round" stroke-width="1.0"/>
    <path d="M11.55 17.8 L12.2 16.7 12.45 16.1 M11.55 13.7 L10.15 14.85" fill="none" stroke="#1c1a23" stroke-linecap="round" stroke-linejoin="round" stroke-width="1.0"/>
    <path d="M13.1 13.85 L14.9 13.35 M13.7 15.15 L15.45 14.6" fill="none" stroke="#1d1828" stroke-linecap="round" stroke-linejoin="round" stroke-width="1.0"/>
    <path d="M17.0 18.6 L10.4 20.7" fill="none" stroke="#0d0d0d" stroke-linecap="round" stroke-linejoin="round" stroke-width="1.0"/>
    <path d="M17.5 23.95 Q17.4 25.7 15.75 26.25 14.3 26.7 13.2 25.3 12.5 24.45 12.0 22.85 M17.05 21.2 Q17.65 22.85 17.5 23.95" fill="none" stroke="#101010" stroke-linecap="round" stroke-linejoin="round" stroke-width="1.0"/>
    <path d="M17.55 14.7 L15.85 9.2" fill="none" stroke="#0c0a11" stroke-linecap="round" stroke-linejoin="round" stroke-width="1.0"/>
  </g>
</svg>
