<?xml version="1.0" encoding="UTF-8" standalone="no"?>
<svg xmlns:xlink="http://www.w3.org/1999/xlink" height="32.9px" width="29.05px" xmlns="http://www.w3.org/2000/svg">
  <g transform="matrix(1.0, 0.0, 0.0, 1.0, 17.5, 32.35)">
    <path d="M-5.6 -30.45 L0.0 -31.05 1.15 -30.6 Q4.15 -29.0 5.3 -26.7 L5.85 -24.8 5.85 -24.7 5.85 -24.55 1.65 -24.6 0.85 -26.65 -2.5 -29.1 -4.45 -29.95 -5.65 -30.45 -5.6 -30.45" fill="#414141" fill-rule="evenodd" stroke="none"/>
    <path d="M-5.6 -30.45 L-5.65 -30.45 -4.45 -29.95 -2.5 -29.1 0.85 -26.65 1.65 -24.6 5.85 -24.55 7.4 -24.55 8.85 -22.55 9.2 -21.7 9.05 -21.55 4.15 -20.9 2.85 -17.2 5.8 -13.9 5.25 -8.55 3.5 -2.15 -4.65 0.05 -10.95 -7.35 -12.2 -15.35 -16.55 -19.1 Q-17.2 -22.2 -16.55 -25.35 -16.05 -27.7 -14.85 -29.2 -12.85 -31.7 -8.8 -31.85 L-5.6 -30.45 M1.0 -7.55 L3.15 -8.8 2.15 -10.35 0.65 -12.6 -2.5 -11.8 -4.25 -8.15 -2.4 -6.9 -0.35 -8.7 1.0 -7.55 M-12.0 -26.2 Q-11.45 -25.65 -10.65 -25.65 -9.85 -25.65 -9.25 -26.2 -8.7 -26.75 -8.7 -27.6 -8.7 -28.4 -9.25 -28.95 -9.85 -29.5 -10.65 -29.5 -11.45 -29.5 -12.0 -28.95 -12.55 -28.4 -12.55 -27.6 -12.55 -26.75 -12.0 -26.2 M-9.75 -12.75 L-1.45 -14.3 0.85 -17.1 -1.45 -14.3 -9.75 -12.75 M1.65 -24.6 Q-5.15 -24.85 -7.95 -20.9 -9.35 -18.95 -9.35 -16.95 L-12.2 -15.35 -9.35 -16.95 Q-9.35 -18.95 -7.95 -20.9 -5.15 -24.85 1.65 -24.6 M-12.1 -23.4 Q-12.1 -24.0 -12.5 -24.4 -12.95 -24.85 -13.5 -24.85 -14.1 -24.85 -14.5 -24.4 -14.95 -24.0 -14.95 -23.4 -14.95 -22.85 -14.5 -22.4 -14.1 -22.0 -13.5 -22.0 -12.95 -22.0 -12.5 -22.4 -12.1 -22.85 -12.1 -23.4 M-9.2 -8.55 L-8.25 -10.9 -5.0 -11.5 -8.25 -10.9 -9.2 -8.55" fill="#596470" fill-rule="evenodd" stroke="none"/>
    <path d="M11.05 -17.9 L10.8 -15.75 9.5 -12.55 9.4 -12.25 9.2 -11.95 8.05 -10.35 7.95 -10.2 6.6 -13.25 8.25 -17.1 11.05 -17.9 8.25 -17.1 6.6 -13.25 7.95 -10.2 7.9 -10.15 7.85 -10.1 7.5 -9.75 5.25 -8.55 5.8 -13.9 2.85 -17.2 4.15 -20.9 9.05 -21.55 9.2 -21.6 11.05 -17.9 M1.0 -7.55 L-0.35 -8.7 -2.4 -6.9 -4.25 -8.15 -2.5 -11.8 0.65 -12.6 2.15 -10.35 3.15 -8.8 1.0 -7.55 M-2.5 -11.8 L-0.35 -8.7 -2.5 -11.8 M-0.35 -8.7 L2.15 -10.35 -0.35 -8.7" fill="#323232" fill-rule="evenodd" stroke="none"/>
    <path d="M-12.0 -26.2 Q-12.55 -26.75 -12.55 -27.6 -12.55 -28.4 -12.0 -28.95 -11.45 -29.5 -10.65 -29.5 -9.85 -29.5 -9.25 -28.95 -8.7 -28.4 -8.7 -27.6 -8.7 -26.75 -9.25 -26.2 -9.85 -25.65 -10.65 -25.65 -11.45 -25.65 -12.0 -26.2 M-12.1 -23.4 Q-12.1 -22.85 -12.5 -22.4 -12.95 -22.0 -13.5 -22.0 -14.1 -22.0 -14.5 -22.4 -14.95 -22.85 -14.95 -23.4 -14.95 -24.0 -14.5 -24.4 -14.1 -24.85 -13.5 -24.85 -12.95 -24.85 -12.5 -24.4 -12.1 -24.0 -12.1 -23.4" fill="#41c2ff" fill-rule="evenodd" stroke="none"/>
    <path d="M1.0 -7.55 L-0.35 -8.7 -2.4 -6.9 -4.25 -8.15 -2.5 -11.8 0.65 -12.6 2.15 -10.35 3.15 -8.8 1.0 -7.55" fill="none" stroke="#191919" stroke-linecap="butt" stroke-linejoin="round" stroke-width="1.0"/>
    <path d="M9.5 -12.55 L10.8 -15.75" fill="none" stroke="#41c2ff" stroke-linecap="round" stroke-linejoin="miter-clip" stroke-miterlimit="4.0" stroke-width="1.0"/>
    <path d="M-12.0 -26.2 Q-12.55 -26.75 -12.55 -27.6 -12.55 -28.4 -12.0 -28.95 -11.45 -29.5 -10.65 -29.5 -9.85 -29.5 -9.25 -28.95 -8.7 -28.4 -8.7 -27.6 -8.7 -26.75 -9.25 -26.2 -9.85 -25.65 -10.65 -25.65 -11.45 -25.65 -12.0 -26.2 M-12.2 -15.35 L-9.35 -16.95 Q-9.35 -18.95 -7.95 -20.9 -5.15 -24.85 1.65 -24.6 M0.85 -17.1 L-1.45 -14.3 -9.75 -12.75 M-12.1 -23.4 Q-12.1 -22.85 -12.5 -22.4 -12.95 -22.0 -13.5 -22.0 -14.1 -22.0 -14.5 -22.4 -14.95 -22.85 -14.95 -23.4 -14.95 -24.0 -14.5 -24.4 -14.1 -24.85 -13.5 -24.85 -12.95 -24.85 -12.5 -24.4 -12.1 -24.0 -12.1 -23.4 M-5.0 -11.5 L-8.25 -10.9 -9.2 -8.55" fill="none" stroke="#454c56" stroke-linecap="round" stroke-linejoin="round" stroke-width="1.0"/>
    <path d="M3.5 -2.15 L-4.65 0.05" fill="none" stroke="#3a4048" stroke-linecap="round" stroke-linejoin="round" stroke-width="1.0"/>
    <path d="M11.05 -17.9 L8.25 -17.1 6.6 -13.25 7.95 -10.2 M-0.35 -8.7 L-2.5 -11.8 M2.15 -10.35 L-0.35 -8.7" fill="none" stroke="#272727" stroke-linecap="round" stroke-linejoin="round" stroke-width="1.0"/>
    <path d="M9.2 -21.7 L8.85 -22.55 7.4 -24.55 5.85 -24.55 M9.2 -21.6 L9.2 -21.7 M5.25 -8.55 L3.5 -2.15 M-4.65 0.05 L-10.95 -7.35 -12.2 -15.35 -16.55 -19.1 Q-17.35 -22.05 -16.75 -25.1 -16.3 -27.6 -14.85 -29.2 -12.85 -31.7 -8.8 -31.85 L-5.6 -30.45" fill="none" stroke="#2e343a" stroke-linecap="round" stroke-linejoin="round" stroke-width="1.0"/>
    <path d="M-5.6 -30.45 L-5.65 -30.45 -4.45 -29.95 -2.5 -29.1 0.85 -26.65 1.65 -24.6 5.85 -24.55" fill="none" stroke="#343a41" stroke-linecap="round" stroke-linejoin="round" stroke-width="1.0"/>
    <path d="M10.8 -15.75 L11.05 -17.9 9.2 -21.6 9.05 -21.55 4.15 -20.9 2.85 -17.2 5.8 -13.9 5.25 -8.55 7.5 -9.75 7.85 -10.1 7.95 -10.2 8.05 -10.35 9.15 -11.85 9.4 -12.25 9.5 -12.55" fill="none" stroke="#232323" stroke-linecap="round" stroke-linejoin="round" stroke-width="1.0"/>
    <path d="M5.85 -24.55 L5.85 -24.7 5.85 -24.8 5.3 -26.7 Q4.15 -29.0 1.15 -30.6 L0.0 -31.05 -5.6 -30.45" fill="none" stroke="#252525" stroke-linecap="butt" stroke-linejoin="round" stroke-width="1.0"/>
  </g>
</svg>
