<?xml version="1.0" encoding="UTF-8" standalone="no"?>
<svg xmlns:xlink="http://www.w3.org/1999/xlink" height="23.05px" width="15.1px" xmlns="http://www.w3.org/2000/svg">
  <g transform="matrix(1.0, 0.0, 0.0, 1.0, 7.95, 3.2)">
    <path d="M-1.0 10.4 L-2.3 9.95" fill="none" stroke="#c2beff" stroke-linecap="round" stroke-linejoin="round" stroke-width="1.0"/>
    <path d="M-1.35 13.1 L-2.65 12.6" fill="none" stroke="#c2beff" stroke-linecap="round" stroke-linejoin="round" stroke-width="1.0"/>
    <path d="M3.25 8.65 L1.65 4.15 0.05 4.5 1.8 9.55" fill="none" stroke="#080815" stroke-linecap="butt" stroke-linejoin="miter-clip" stroke-miterlimit="4.0" stroke-opacity="0.5803922" stroke-width="1.0"/>
    <path d="M-5.35 0.15 L-4.7 -0.7 -3.55 0.35 -2.7 1.65 -2.55 3.8 -3.3 5.6 -6.05 5.75 Q-6.7 6.2 -6.8 8.25 -6.85 9.25 -6.45 10.1 L-7.2 8.15 Q-7.8 5.7 -6.95 3.6 -6.15 1.4 -5.35 0.15" fill="#5e3611" fill-rule="evenodd" stroke="none"/>
    <path d="M-5.35 0.15 L-4.7 -0.7 -3.55 0.35 -2.7 1.65 -2.55 3.8 -3.3 5.6 -6.05 5.75 Q-6.7 6.2 -6.8 8.25 -6.85 9.25 -6.45 10.1 L-7.2 8.15 Q-7.8 5.7 -6.95 3.6 -6.15 1.4 -5.35 0.15 Z" fill="none" stroke="#151108" stroke-linecap="round" stroke-linejoin="round" stroke-width="1.0"/>
    <path d="M1.6 -1.7 L3.95 -2.35 4.55 -1.75 5.6 -2.7 6.15 -1.1 6.65 -0.85 6.1 1.1 5.5 3.55 5.35 5.1 4.35 5.05 4.45 5.5 4.45 6.55 4.05 7.4 3.6 8.3 2.05 9.45 1.3 9.55 Q0.8 9.6 0.7 10.0 L0.3 11.9 -0.2 13.95 Q-0.25 14.9 1.3 17.75 L1.6 18.35 0.2 19.35" fill="none" stroke="#000000" stroke-linecap="round" stroke-linejoin="round" stroke-opacity="0.5568628" stroke-width="1.0"/>
    <path d="M-2.95 1.7 L-4.7 -0.4 -5.8 0.95 Q-6.9 2.6 -7.1 3.95 -7.5 6.25 -7.4 7.75 L-6.5 11.0 -6.55 12.8 -6.45 15.05 -6.15 16.55 -5.95 17.6 -5.2 18.25" fill="none" stroke="#000000" stroke-linecap="round" stroke-linejoin="round" stroke-opacity="0.5568628" stroke-width="1.0"/>
    <path d="M4.4 3.25 L4.35 2.3 2.45 2.0 1.95 2.75 M2.45 2.0 L3.6 0.25 4.1 0.4 4.35 2.3" fill="none" stroke="#e9cdf3" stroke-linecap="round" stroke-linejoin="round" stroke-width="1.0"/>
  </g>
</svg>
