<?xml version="1.0" encoding="UTF-8" standalone="no"?>
<svg xmlns:xlink="http://www.w3.org/1999/xlink" height="22.25px" width="14.4px" xmlns="http://www.w3.org/2000/svg">
  <g transform="matrix(1.0, 0.0, 0.0, 1.0, 7.95, 3.0)">
    <path d="M-0.65 9.8 L-2.05 9.3" fill="none" stroke="#f5c69c" stroke-linecap="round" stroke-linejoin="round" stroke-width="1.0"/>
    <path d="M-1.05 12.45 L-2.45 12.0" fill="none" stroke="#f5c69c" stroke-linecap="round" stroke-linejoin="round" stroke-width="1.0"/>
    <path d="M3.75 7.95 L2.05 3.4 0.45 3.8 2.25 8.9" fill="none" stroke="#0f0d0c" stroke-linecap="butt" stroke-linejoin="miter-clip" stroke-miterlimit="4.0" stroke-opacity="0.49019608" stroke-width="1.0"/>
    <path d="M-3.4 -0.35 L-2.5 0.95 -2.35 3.05 -3.1 4.9 -6.0 5.15 Q-6.65 5.5 -6.8 7.6 L-6.45 9.45 Q-6.9 8.65 -7.15 7.5 -7.85 5.1 -6.95 2.9 L-5.3 -0.6 -4.55 -1.45 -3.4 -0.35" fill="url(#gradient0)" fill-rule="evenodd" stroke="none"/>
    <path d="M-3.4 -0.35 L-2.5 0.95 -2.35 3.05 -3.1 4.9 -6.0 5.15 Q-6.65 5.5 -6.8 7.6 L-6.45 9.45 Q-6.9 8.65 -7.15 7.5 -7.85 5.1 -6.95 2.9 L-5.3 -0.6 -4.55 -1.45 -3.4 -0.35 Z" fill="none" stroke="#17100c" stroke-linecap="round" stroke-linejoin="round" stroke-width="1.0"/>
    <path d="M2.0 -2.4 L4.55 -2.5 Q5.5 -1.25 5.65 -0.55 L5.95 2.2 5.65 3.45 4.9 4.3 5.05 4.85 4.95 5.8 4.65 6.75 4.15 7.6 2.45 8.8 1.7 8.9 Q1.2 8.95 1.15 9.35 L0.65 11.25 Q0.15 12.75 0.15 13.3 0.1 14.3 1.75 17.15 L2.05 17.8 0.55 18.75" fill="none" stroke="#000000" stroke-linecap="round" stroke-linejoin="round" stroke-opacity="0.43137255" stroke-width="1.0"/>
    <path d="M-2.75 0.95 L-4.6 -1.15 -5.75 0.2 Q-6.95 1.85 -7.15 3.25 -7.55 5.8 -7.4 7.05 L-6.45 10.3 -6.5 12.15 Q-6.6 13.8 -6.35 14.45 -6.15 14.95 -6.05 15.95 L-5.85 17.0 -5.05 17.75" fill="none" stroke="#000000" stroke-linecap="round" stroke-linejoin="round" stroke-opacity="0.43137255" stroke-width="1.0"/>
    <path d="M2.1 3.1 L2.3 1.1 2.4 -0.2 M2.3 1.1 L4.55 0.35 2.4 1.2 4.35 3.3" fill="none" stroke="#f2e7ce" stroke-linecap="round" stroke-linejoin="round" stroke-width="1.0"/>
  </g>
  <defs>
    <linearGradient gradientTransform="matrix(0.007, 0.0, 0.0, 0.0067, -2.15, 4.35)" gradientUnits="userSpaceOnUse" id="gradient0" spreadMethod="pad" x1="-819.2" x2="819.2">
      <stop offset="0.0" stop-color="#3c0c00"/>
      <stop offset="1.0" stop-color="#934f41"/>
    </linearGradient>
  </defs>
</svg>
