<?xml version="1.0" encoding="UTF-8" standalone="no"?>
<svg xmlns:ffdec="https://www.free-decompiler.com/flash" xmlns:xlink="http://www.w3.org/1999/xlink" ffdec:objectType="shape" height="21.2px" width="59.2px" xmlns="http://www.w3.org/2000/svg">
  <g transform="matrix(1.0, 0.0, 0.0, 1.0, 9.95, 4.85)">
    <path d="M40.55 -1.75 Q49.25 1.35 49.25 5.75 49.25 10.15 40.55 13.25 31.9 16.35 19.65 16.35 7.4 16.35 -1.3 13.25 -9.95 10.15 -9.95 5.75 -9.95 1.35 -1.3 -1.75 7.4 -4.85 19.65 -4.85 31.9 -4.85 40.55 -1.75" fill="url(#gradient0)" fill-rule="evenodd" stroke="none"/>
    <path d="M25.8 4.05 L38.4 4.05 36.55 6.05 28.0 7.8 25.7 7.8 18.2 7.0 4.95 11.95 2.75 9.45 3.95 8.2 3.3 5.95 0.0 4.05 1.1 1.6 4.0 3.1 7.0 -2.35 14.7 0.0 18.45 2.25 23.65 2.25 25.8 4.05 M15.6 11.35 L12.0 10.75 18.15 8.5 23.2 9.05 15.6 11.35 M14.8 2.6 L7.9 0.55 Q4.55 5.65 6.45 9.05 L8.3 8.3 9.85 5.55 13.1 5.55 14.8 2.6" fill="#ffffff" fill-rule="evenodd" stroke="none"/>
    <path d="M25.8 4.05 L38.4 4.05 36.55 6.05 28.0 7.8 25.7 7.8 18.2 7.0 4.95 11.95 2.75 9.45 3.95 8.2 3.3 5.95 0.0 4.05 1.1 1.6 4.0 3.1 7.0 -2.35 14.7 0.0 18.45 2.25 23.65 2.25 25.8 4.05 M15.6 11.35 L23.2 9.05 18.15 8.5 12.0 10.75 15.6 11.35 M14.8 2.6 L7.9 0.55 Q4.55 5.65 6.45 9.05 L8.3 8.3 9.85 5.55 13.1 5.55 14.8 2.6 Z" fill="none" stroke="#cccccc" stroke-linecap="round" stroke-linejoin="round" stroke-width="1.0"/>
  </g>
  <defs>
    <radialGradient cx="0" cy="0" gradientTransform="matrix(0.0347, 0.0, 0.0, 0.0134, 19.65, 5.75)" gradientUnits="userSpaceOnUse" id="gradient0" r="819.2" spreadMethod="pad">
      <stop offset="0.0" stop-color="#ffffff"/>
      <stop offset="1.0" stop-color="#ffffff" stop-opacity="0.0"/>
    </radialGradient>
  </defs>
</svg>
