<?xml version="1.0" encoding="UTF-8" standalone="no"?>
<svg xmlns:xlink="http://www.w3.org/1999/xlink" height="26.45px" width="16.25px" xmlns="http://www.w3.org/2000/svg">
  <g transform="matrix(1.0, 0.0, 0.0, 1.0, 8.45, 5.85)">
    <path d="M3.05 -2.9 Q3.9 -3.9 4.55 -5.2 L5.2 -5.35 6.65 -5.35 7.3 -3.4 7.0 -1.8 6.2 0.35 4.85 -0.35 3.0 0.65 2.95 -1.0 4.15 -1.9 3.05 -2.9 M5.9 -1.95 L7.0 -1.8 5.9 -1.95 M6.05 -3.55 L7.3 -3.4 6.05 -3.55 M2.95 4.15 L3.6 4.85 5.4 4.85 4.15 8.25 3.55 8.95 3.15 6.6 2.45 5.55 2.95 4.15 M-0.5 -0.65 L-0.5 0.75 0.65 1.5 0.85 4.0 -1.1 4.6 -1.2 2.8 Q-2.55 2.1 -5.15 3.85 -7.75 0.8 -7.0 -3.45 -4.9 -1.55 -3.1 -1.0 L-0.5 -0.65 M-1.15 18.25 L-2.55 18.55 -4.2 20.1 -5.85 20.0 -5.9 16.8 -7.05 15.45 -6.45 14.95 -6.5 13.55 -4.55 11.75 -4.55 12.15 -3.55 11.95 -2.8 15.2 -3.5 16.5 -1.6 17.0 -1.15 18.25 M-4.25 14.9 L-5.0 15.6 -4.25 14.9 M-5.4 0.65 L-5.8 -0.45 -5.4 0.65 M-4.55 13.45 L-5.3 14.15 -4.55 13.45" fill="#222222" fill-rule="evenodd" stroke="none"/>
    <path d="M3.05 -2.9 L4.15 -1.9 2.95 -1.0 3.0 0.65 Q2.0 1.7 2.35 3.55 L2.95 4.15 2.45 5.55 3.15 6.6 3.55 8.95 2.0 10.65 1.9 9.4 1.75 8.1 0.7 6.3 -1.0 5.65 -1.1 4.6 0.85 4.0 0.65 1.5 -0.5 0.75 -0.5 -0.65 0.45 -0.9 Q1.85 -1.45 3.05 -2.9 M1.45 15.2 L2.4 16.75 2.3 18.25 0.1 17.9 -1.15 18.25 -1.6 17.0 -3.5 16.5 -2.8 15.2 -0.95 15.3 0.35 15.6 1.45 15.25 1.45 15.2 M-5.85 20.0 L-7.85 19.8 -7.95 16.15 -7.05 15.45 -5.9 16.8 -5.85 20.0" fill="#111111" fill-rule="evenodd" stroke="none"/>
    <path d="M-1.1 4.6 L-1.0 5.65 0.7 6.3 1.75 8.1 1.9 9.4 2.0 10.65 1.45 15.2 1.45 15.25 0.35 15.6 -0.95 15.3 -2.8 15.2 -3.55 11.95 -4.55 12.15 -4.55 11.75 -4.95 7.8 -5.15 3.85 Q-2.55 2.1 -1.2 2.8 L-1.1 4.6" fill="#060b09" fill-rule="evenodd" stroke="none"/>
    <path d="M3.0 0.65 L4.85 -0.35 Q5.2 2.85 3.6 4.85 L2.95 4.15 2.35 3.55 Q2.0 1.7 3.0 0.65" fill="#000000" fill-opacity="0.4" fill-rule="evenodd" stroke="none"/>
    <path d="M7.3 -3.4 L6.65 -5.35 5.2 -5.35 4.55 -5.2 Q3.9 -3.9 3.05 -2.9 L4.15 -1.9 2.95 -1.0 3.0 0.65 4.85 -0.35 6.2 0.35 7.0 -1.8 5.9 -1.95 M-0.5 -0.65 L0.45 -0.9 Q1.85 -1.45 3.05 -2.9 M7.0 -1.8 L7.3 -3.4 6.05 -3.55 M3.6 4.85 L2.95 4.15 2.45 5.55 3.15 6.6 3.55 8.95 4.15 8.25 5.4 4.85 3.6 4.85 M3.0 0.65 Q2.0 1.7 2.35 3.55 L2.95 4.15 M-0.5 -0.65 L-0.5 0.75 0.65 1.5 0.85 4.0 -1.1 4.6 -1.0 5.65 0.7 6.3 1.75 8.1 1.9 9.4 2.0 10.65 3.55 8.95 M1.45 15.2 L2.4 16.75 2.3 18.25 0.1 17.9 -1.15 18.25 -2.55 18.55 -4.2 20.1 -5.85 20.0 -7.85 19.8 -7.95 16.15 -7.05 15.45 -6.45 14.95 -6.5 13.55 -4.55 11.75 M-5.15 3.85 Q-7.75 0.8 -7.0 -3.45 -4.9 -1.55 -3.1 -1.0 L-0.5 -0.65 M-2.8 15.2 L-0.95 15.3 0.35 15.6 1.45 15.25 M-4.55 12.15 L-3.55 11.95 -2.8 15.2 -3.5 16.5 -1.6 17.0 -1.15 18.25 M-1.1 4.6 L-1.2 2.8 Q-2.55 2.1 -5.15 3.85 M-5.85 20.0 L-5.9 16.8 -7.05 15.45" fill="none" stroke="#070a0a" stroke-linecap="round" stroke-linejoin="round" stroke-width="1.0"/>
    <path d="M1.45 15.25 L1.45 15.2" fill="none" stroke="#17241f" stroke-linecap="round" stroke-linejoin="round" stroke-width="1.0"/>
    <path d="M-4.55 11.75 L-4.95 7.8 -5.15 3.85 M1.45 15.2 L2.0 10.65 M-4.55 12.15 L-4.55 11.75" fill="none" stroke="#000000" stroke-linecap="round" stroke-linejoin="round" stroke-width="1.0"/>
    <path d="M-5.0 15.6 L-4.25 14.9 M-5.3 14.15 L-4.55 13.45 M-5.8 -0.45 L-5.4 0.65" fill="none" stroke="#0b0e0f" stroke-linecap="round" stroke-linejoin="round" stroke-width="1.0"/>
    <path d="M3.6 4.85 Q5.2 2.85 4.85 -0.35" fill="none" stroke="#000000" stroke-linecap="round" stroke-linejoin="round" stroke-opacity="0.5019608" stroke-width="1.0"/>
  </g>
</svg>
