<?xml version="1.0" encoding="UTF-8" standalone="no"?>
<svg xmlns:ffdec="https://www.free-decompiler.com/flash" xmlns:xlink="http://www.w3.org/1999/xlink" ffdec:objectType="shape" height="22.85px" width="13.7px" xmlns="http://www.w3.org/2000/svg">
  <g transform="matrix(1.0, 0.0, 0.0, 1.0, 7.2, 3.3)">
    <path d="M4.0 0.65 Q4.3 2.2 3.25 4.85 L1.65 8.35 0.45 11.3 -0.8 15.2 Q-1.4 17.35 -1.7 17.55 -2.25 18.1 -3.5 18.05 L-5.45 17.5 Q-6.15 16.95 -6.4 13.55 -6.65 10.2 -6.25 6.55 -5.95 3.65 -4.8 2.6 -4.2 2.05 -3.35 1.6 -0.75 -0.3 1.2 -0.7 3.5 -1.3 4.0 0.65" fill="#302c2b" fill-rule="evenodd" stroke="none"/>
    <path d="M4.0 0.65 Q4.3 2.2 3.25 4.85 L1.65 8.35 0.45 11.3 -0.8 15.2 Q-1.4 17.35 -1.7 17.55 -2.25 18.1 -3.5 18.05 L-5.45 17.5 Q-6.15 16.95 -6.4 13.55 -6.65 10.2 -6.25 6.55 -5.95 3.65 -4.8 2.6 -4.2 2.05 -3.35 1.6 -0.75 -0.3 1.2 -0.7 3.5 -1.3 4.0 0.65 Z" fill="none" stroke="#181615" stroke-linecap="round" stroke-linejoin="round" stroke-width="1.0"/>
    <path d="M1.75 -0.15 L-0.5 12.05 -0.15 12.2 -0.2 13.1 Q-0.1 14.15 0.2 14.6 L1.1 16.25 -0.55 17.6 -1.55 17.55 -2.8 17.0 -3.85 16.85 -4.25 12.4 -5.35 11.85 Q-6.6 10.8 -6.7 8.8 L-6.55 5.05 -3.4 4.8 -1.35 0.0 1.75 -0.15" fill="#36211b" fill-rule="evenodd" stroke="none"/>
    <path d="M1.75 -0.15 L-0.5 12.05 -0.15 12.2 -0.2 13.1 Q-0.1 14.15 0.2 14.6 L1.1 16.25 -0.55 17.6 -1.55 17.55 -2.8 17.0 -3.85 16.85 -4.25 12.4 -5.35 11.85 Q-6.6 10.8 -6.7 8.8 L-6.55 5.05 -3.4 4.8 -1.35 0.0 1.75 -0.15 Z" fill="none" stroke="#17100c" stroke-linecap="round" stroke-linejoin="round" stroke-width="1.0"/>
    <path d="M-3.25 7.1 L-2.65 6.95 -1.85 6.45 -0.65 4.4 0.25 4.7 3.15 2.4 3.9 2.45 2.5 4.15 5.0 5.15 4.85 5.65 4.3 6.0 Q3.55 7.45 2.85 7.05 2.05 6.7 2.05 7.3 L2.15 8.0 Q1.1 9.1 0.7 11.35 L0.35 15.05 -0.9 15.95 -2.2 15.2 -2.25 11.85 -4.4 10.6 -5.05 9.55 -4.2 8.25 -3.25 7.1" fill="#572b20" fill-rule="evenodd" stroke="none"/>
    <path d="M-3.25 7.1 L-2.65 6.95 -1.85 6.45 -0.65 4.4 0.25 4.7 3.15 2.4 3.9 2.45 2.5 4.15 5.0 5.15 4.85 5.65 4.3 6.0 Q3.55 7.45 2.85 7.05 2.05 6.7 2.05 7.3 L2.15 8.0 Q1.1 9.1 0.7 11.35 L0.35 15.05 -0.9 15.95 -2.2 15.2 -2.25 11.85 -4.4 10.6 -5.05 9.55 -4.2 8.25 -3.25 7.1 Z" fill="none" stroke="#17100c" stroke-linecap="round" stroke-linejoin="round" stroke-width="1.0"/>
    <path d="M2.75 -2.65 Q3.85 -3.1 4.5 -2.2 6.4 -1.4 5.9 2.1 L5.15 4.5 Q4.95 4.2 4.8 4.25 L3.1 4.1 Q1.65 3.0 0.8 3.4 0.3 3.6 0.55 3.25 L1.0 2.65 1.8 0.05 -1.35 0.0 -0.65 -0.75 0.65 -1.75 2.75 -2.65" fill="url(#gradient0)" fill-rule="evenodd" stroke="none"/>
    <path d="M2.75 -2.65 L0.65 -1.75 -0.65 -0.75 -1.35 0.0 1.8 0.05 1.0 2.65 0.55 3.25 Q0.3 3.6 0.8 3.4 1.65 3.0 3.1 4.1 L4.8 4.25 Q4.95 4.2 5.15 4.5 L5.9 2.1 Q6.4 -1.4 4.5 -2.2 3.85 -3.1 2.75 -2.65 Z" fill="none" stroke="#30180d" stroke-linecap="round" stroke-linejoin="round" stroke-width="1.0"/>
    <path d="M-0.35 19.05 Q-1.2 19.15 -2.25 18.65 -3.25 18.1 -3.5 18.05 L-4.2 17.7 -4.55 17.35 -4.45 16.6 -3.15 16.6 -1.15 17.15 -0.35 17.2 1.05 16.15 1.9 17.25 1.95 17.95 -0.35 19.05" fill="#572b20" fill-rule="evenodd" stroke="none"/>
    <path d="M-0.35 19.05 Q-1.2 19.15 -2.25 18.65 -3.25 18.1 -3.5 18.05 L-4.2 17.7 -4.55 17.35 -4.45 16.6 -3.15 16.6 -1.15 17.15 -0.35 17.2 1.05 16.15 1.9 17.25 1.95 17.95 -0.35 19.05 Z" fill="none" stroke="#17100c" stroke-linecap="round" stroke-linejoin="round" stroke-width="1.0"/>
    <path d="M1.35 9.05 L0.35 9.05 -1.7 4.85 -1.2 3.95 0.15 3.85 2.2 3.45 Q3.6 2.55 4.2 3.65 4.7 4.55 4.65 6.2 4.65 7.6 3.3 8.45 2.45 8.95 1.35 9.05" fill="url(#gradient1)" fill-rule="evenodd" stroke="none"/>
    <path d="M1.35 9.05 L0.35 9.05 -1.7 4.85 -1.2 3.95 0.15 3.85 2.2 3.45 Q3.6 2.55 4.2 3.65 4.7 4.55 4.65 6.2 4.65 7.6 3.3 8.45 2.45 8.95 1.35 9.05 Z" fill="none" stroke="#2e170d" stroke-linecap="round" stroke-linejoin="round" stroke-width="1.0"/>
  </g>
  <defs>
    <linearGradient gradientTransform="matrix(0.0087, 0.0, 0.0, 0.0045, -1.1, 1.65)" gradientUnits="userSpaceOnUse" id="gradient0" spreadMethod="pad" x1="-819.2" x2="819.2">
      <stop offset="0.0" stop-color="#3c0c00"/>
      <stop offset="1.0" stop-color="#934f41"/>
    </linearGradient>
    <linearGradient gradientTransform="matrix(0.0068, 0.0, 0.0, 0.0037, -1.2, 6.1)" gradientUnits="userSpaceOnUse" id="gradient1" spreadMethod="pad" x1="-819.2" x2="819.2">
      <stop offset="0.0" stop-color="#3c0c00"/>
      <stop offset="1.0" stop-color="#934f41"/>
    </linearGradient>
  </defs>
</svg>
