<?xml version="1.0" encoding="UTF-8" standalone="no"?>
<svg xmlns:ffdec="https://www.free-decompiler.com/flash" xmlns:xlink="http://www.w3.org/1999/xlink" ffdec:objectType="shape" height="23.7px" width="11.3px" xmlns="http://www.w3.org/2000/svg">
  <g transform="matrix(1.0, 0.0, 0.0, 1.0, 6.15, 4.6)">
    <path d="M1.4 13.2 Q1.6 13.65 1.3 14.6 L0.7 16.75 Q0.3 17.85 -1.15 18.35 L-1.5 17.45 -2.1 15.2 Q-2.1 14.3 -1.05 14.3 0.05 14.2 0.5 13.35 1.05 12.45 1.4 13.2" fill="#191a1a" fill-rule="evenodd" stroke="none"/>
    <path d="M0.1 1.15 L0.75 5.05 Q1.55 8.9 2.6 7.35 L2.15 9.9 Q0.3 12.7 -0.6 9.45 -1.4 6.1 -1.05 1.0 L0.1 1.15" fill="#181818" fill-rule="evenodd" stroke="none"/>
    <path d="M-3.15 0.7 L-5.05 0.7 Q-5.05 0.2 -3.95 -0.05 L-2.65 -0.3 0.0 -0.55 0.1 1.15 -3.15 0.7" fill="#2f3030" fill-rule="evenodd" stroke="none"/>
    <path d="M3.05 -0.6 Q2.75 -0.3 2.3 -0.3 L2.2 -0.3 1.55 -0.6 Q1.25 -0.9 1.25 -1.35 1.25 -1.8 1.55 -2.1 L2.2 -2.4 2.3 -2.4 3.05 -2.1 3.35 -1.35 3.05 -0.6" fill="#ca8aff" fill-rule="evenodd" stroke="none"/>
    <path d="M2.7 -4.1 Q4.6 -3.65 4.65 -1.15 4.8 1.35 3.3 5.75 L2.6 7.35 Q1.55 8.9 0.75 5.05 L0.1 1.15 0.0 -0.55 Q0.0 -1.5 0.25 -2.25 0.55 -3.5 1.25 -3.9 L2.7 -4.1 M2.3 -2.4 L2.05 -2.4 1.3 -2.1 Q1.0 -1.8 1.0 -1.35 1.0 -0.9 1.3 -0.6 1.6 -0.3 2.05 -0.3 L2.3 -0.3 Q2.75 -0.3 3.05 -0.6 L3.35 -1.35 3.05 -2.1 2.3 -2.4 M1.85 1.55 L2.25 1.7 2.65 1.55 2.8 1.15 2.65 0.75 2.25 0.6 Q2.0 0.6 1.85 0.75 1.7 0.9 1.7 1.15 L1.85 1.55" fill="url(#gradient0)" fill-rule="evenodd" stroke="none"/>
    <path d="M-1.15 18.35 L-4.6 18.6 Q-5.8 18.05 -5.6 16.6 -5.35 15.5 -4.55 15.1 L-3.9 14.95 -2.1 15.2 -1.5 17.45 -1.15 18.35" fill="#0e0e0e" fill-rule="evenodd" stroke="none"/>
    <path d="M2.15 9.9 L1.4 13.2 Q1.05 12.45 0.5 13.35 0.05 14.2 -1.05 14.3 -2.1 14.3 -2.1 15.2 L-3.9 14.95 -4.55 15.1 -5.45 8.65 Q-5.9 4.3 -5.05 0.7 L-3.15 0.7 -1.05 1.0 Q-1.4 6.1 -0.6 9.45 0.3 12.7 2.15 9.9" fill="url(#gradient1)" fill-rule="evenodd" stroke="none"/>
    <path d="M0.0 -0.55 L0.1 1.15 0.75 5.05 Q1.55 8.9 2.6 7.35 L3.3 5.75 Q4.8 1.35 4.65 -1.15 4.6 -3.65 2.7 -4.1 L1.25 -3.9 Q0.55 -3.5 0.25 -2.25 0.0 -1.5 0.0 -0.55 L-2.65 -0.3 -3.95 -0.05 Q-5.05 0.2 -5.05 0.7 L-3.15 0.7 -1.05 1.0 M2.2 -2.4 L1.55 -2.1 Q1.25 -1.8 1.25 -1.35 1.25 -0.9 1.55 -0.6 L2.2 -0.3 2.3 -0.3 Q2.75 -0.3 3.05 -0.6 L3.35 -1.35 3.05 -2.1 2.3 -2.4 2.2 -2.4 M1.85 0.75 Q2.0 0.6 2.25 0.6 L2.65 0.75 2.8 1.15 2.65 1.55 2.25 1.7 1.85 1.55 1.7 1.15 Q1.7 0.9 1.85 0.75 Z" fill="none" stroke="#0a0a0a" stroke-linecap="round" stroke-linejoin="round" stroke-width="1.0"/>
    <path d="M-2.1 15.2 Q-2.1 14.3 -1.05 14.3 0.05 14.2 0.5 13.35 1.05 12.45 1.4 13.2 1.6 13.65 1.3 14.6 L0.7 16.75 Q0.3 17.85 -1.15 18.35 L-4.6 18.6 Q-5.8 18.05 -5.6 16.6 -5.35 15.5 -4.55 15.1 L-3.9 14.95 -2.1 15.2 -1.5 17.45 -1.15 18.35" fill="none" stroke="#0a0a0a" stroke-linecap="round" stroke-linejoin="round" stroke-width="1.0"/>
    <path d="M2.6 7.35 L2.15 9.9 Q0.3 12.7 -0.6 9.45 -1.4 6.1 -1.05 1.0 L0.1 1.15" fill="none" stroke="#0a0a0a" stroke-linecap="round" stroke-linejoin="round" stroke-width="1.0"/>
    <path d="M2.15 9.9 L1.4 13.2 M-4.55 15.1 L-5.45 8.65 Q-5.9 4.3 -5.05 0.7" fill="none" stroke="#0a0a0a" stroke-linecap="round" stroke-linejoin="round" stroke-width="1.0"/>
  </g>
  <defs>
    <radialGradient cx="0" cy="0" gradientTransform="matrix(0.0191, 0.0, 0.0, 0.0191, -5.25, 8.75)" gradientUnits="userSpaceOnUse" id="gradient0" r="819.2" spreadMethod="pad">
      <stop offset="0.0" stop-color="#1d2b38"/>
      <stop offset="0.6588235294117647" stop-color="#232323"/>
      <stop offset="1.0" stop-color="#525252"/>
    </radialGradient>
    <radialGradient cx="0" cy="0" gradientTransform="matrix(0.0321, 0.0, 0.0, 0.0321, -23.45, 6.15)" gradientUnits="userSpaceOnUse" id="gradient1" r="819.2" spreadMethod="pad">
      <stop offset="0.0" stop-color="#111a22"/>
      <stop offset="0.6588235294117647" stop-color="#131414"/>
      <stop offset="1.0" stop-color="#292929"/>
    </radialGradient>
  </defs>
</svg>
