<?xml version="1.0" encoding="UTF-8" standalone="no"?>
<svg xmlns:ffdec="https://www.free-decompiler.com/flash" xmlns:xlink="http://www.w3.org/1999/xlink" ffdec:objectType="shape" height="25.65px" width="15.7px" xmlns="http://www.w3.org/2000/svg">
  <g transform="matrix(1.0, 0.0, 0.0, 1.0, 17.15, 23.8)">
    <path d="M-5.65 -17.2 L-7.4 -16.75 -10.95 -17.2 -11.35 -18.7 -11.45 -19.2 -12.0 -21.2 -12.0 -21.25 -9.35 -20.85 -5.35 -21.7 Q-4.4 -19.55 -4.8 -17.2 L-5.65 -17.2" fill="url(#gradient0)" fill-rule="evenodd" stroke="none"/>
    <path d="M-10.95 -17.2 L-7.4 -16.75 -5.65 -17.2 -5.25 -15.4 Q-4.75 -12.9 -4.65 -10.75 L-10.75 -9.15 Q-12.25 -11.2 -13.4 -14.15 L-10.75 -15.05 -10.65 -15.1 -10.85 -16.45 -10.8 -16.5 -10.9 -17.0 -10.95 -17.2" fill="url(#gradient1)" fill-rule="evenodd" stroke="none"/>
    <path d="M-10.95 -17.2 L-10.9 -17.0 -10.8 -16.5 -10.85 -16.45 -10.65 -15.1 -10.75 -15.05 -11.05 -16.3 -12.7 -23.05 -12.0 -21.2 -11.45 -19.2 -11.35 -18.7 -10.95 -17.2 M-10.9 -17.0 L-10.85 -16.45 -11.05 -16.3 -10.85 -16.45 -10.9 -17.0" fill="#333333" fill-rule="evenodd" stroke="none"/>
    <path d="M-10.75 -15.05 L-13.4 -14.15 -14.95 -15.6 Q-16.55 -17.15 -16.65 -20.6 -16.8 -24.1 -12.7 -23.05 L-11.05 -16.3 -10.75 -15.05" fill="url(#gradient2)" fill-rule="evenodd" stroke="none"/>
    <path d="M-10.75 -9.15 L-4.65 -10.75 -3.95 -10.75 -3.45 -7.55 Q-6.8 -8.75 -8.1 -6.3 L-8.1 -6.25 -9.5 -5.9 -11.25 -9.0 -10.75 -9.15" fill="url(#gradient3)" fill-rule="evenodd" stroke="none"/>
    <path d="M-7.85 -5.65 L-6.35 -1.8 -5.25 -1.65 Q-3.8 -1.6 -2.7 -2.25 L-3.0 -0.05 -6.15 1.35 -7.25 0.7 -7.25 -0.45 -8.85 -4.15 -7.85 -5.65" fill="#191919" fill-rule="evenodd" stroke="none"/>
    <path d="M-5.65 -17.2 L-7.4 -16.75 -10.95 -17.2 -10.9 -17.0 -10.8 -16.5 -10.85 -16.45 -10.65 -15.1 -10.75 -15.05 -13.4 -14.15 Q-12.25 -11.2 -10.75 -9.15 L-4.65 -10.75 Q-4.75 -12.9 -5.25 -15.4 L-5.65 -17.2 -4.8 -17.2 Q-4.4 -19.55 -5.35 -21.7 L-9.35 -20.85 -12.0 -21.25 M-12.0 -21.2 L-11.45 -19.2 -11.35 -18.7 -10.95 -17.2 M-12.7 -23.05 L-11.05 -16.3 -10.85 -16.45 -10.9 -17.0 M-11.05 -16.3 L-10.75 -15.05 M-12.7 -23.05 Q-16.8 -24.1 -16.65 -20.6 -16.55 -17.15 -14.95 -15.6 L-13.4 -14.15 M-8.1 -6.25 L-9.5 -5.9 -11.25 -9.0 -10.75 -9.15 M-4.65 -10.75 L-3.95 -10.75 -3.45 -7.55" fill="none" stroke="#022e33" stroke-linecap="round" stroke-linejoin="round" stroke-width="1.0"/>
    <path d="M-7.85 -5.65 L-8.85 -4.15 -7.25 -0.45 -7.25 0.7 -6.15 1.35 -3.0 -0.05 -2.7 -2.25" fill="none" stroke="#000000" stroke-linecap="round" stroke-linejoin="round" stroke-width="1.0"/>
    <path d="M-3.45 -7.55 L-3.2 -7.45 -1.95 -2.8 -2.7 -2.25 Q-3.8 -1.6 -5.25 -1.65 L-6.35 -1.8 -8.1 -6.25 -8.1 -6.3 Q-6.8 -8.75 -3.45 -7.55" fill="url(#gradient4)" fill-rule="evenodd" stroke="none"/>
    <path d="M-3.45 -7.55 L-3.2 -7.45 -1.95 -2.8 -2.7 -2.25 Q-3.8 -1.6 -5.25 -1.65 L-6.35 -1.8 -8.1 -6.25 -8.1 -6.3 Q-6.8 -8.75 -3.45 -7.55 Z" fill="none" stroke="#022e33" stroke-linecap="round" stroke-linejoin="round" stroke-width="1.0"/>
  </g>
  <defs>
    <radialGradient cx="0" cy="0" gradientTransform="matrix(0.0098, 0.0, 0.0, 0.0098, -4.05, -20.15)" gradientUnits="userSpaceOnUse" id="gradient0" r="819.2" spreadMethod="pad">
      <stop offset="0.0" stop-color="#e8c06f"/>
      <stop offset="1.0" stop-color="#02b1c3"/>
      <stop offset="1.0" stop-color="#2c1b38"/>
    </radialGradient>
    <radialGradient cx="0" cy="0" gradientTransform="matrix(0.0108, 0.0, 0.0, 0.0108, -4.55, -13.95)" gradientUnits="userSpaceOnUse" id="gradient1" r="819.2" spreadMethod="pad">
      <stop offset="0.0" stop-color="#e8c06f"/>
      <stop offset="1.0" stop-color="#02b1c3"/>
      <stop offset="1.0" stop-color="#2c1b38"/>
    </radialGradient>
    <radialGradient cx="0" cy="0" gradientTransform="matrix(0.0125, 0.0, 0.0, 0.0125, -19.3, -20.7)" gradientUnits="userSpaceOnUse" id="gradient2" r="819.2" spreadMethod="pad">
      <stop offset="0.0" stop-color="#e8c06f"/>
      <stop offset="1.0" stop-color="#02b1c3"/>
      <stop offset="1.0" stop-color="#2c1b38"/>
    </radialGradient>
    <radialGradient cx="0" cy="0" gradientTransform="matrix(0.009, 0.0, 0.0, 0.009, -3.9, -9.3)" gradientUnits="userSpaceOnUse" id="gradient3" r="819.2" spreadMethod="pad">
      <stop offset="0.0" stop-color="#e8c06f"/>
      <stop offset="1.0" stop-color="#02b1c3"/>
      <stop offset="1.0" stop-color="#2c1b38"/>
    </radialGradient>
    <radialGradient cx="0" cy="0" gradientTransform="matrix(0.0066, 0.0, 0.0, 0.0066, -2.8, -5.25)" gradientUnits="userSpaceOnUse" id="gradient4" r="819.2" spreadMethod="pad">
      <stop offset="0.0" stop-color="#e8c06f"/>
      <stop offset="1.0" stop-color="#02b1c3"/>
      <stop offset="1.0" stop-color="#2c1b38"/>
    </radialGradient>
  </defs>
</svg>
