<?xml version="1.0" encoding="UTF-8" standalone="no"?>
<svg xmlns:ffdec="https://www.free-decompiler.com/flash" xmlns:xlink="http://www.w3.org/1999/xlink" ffdec:objectType="shape" height="32.3px" width="16.15px" xmlns="http://www.w3.org/2000/svg">
  <g transform="matrix(1.0, 0.0, 0.0, 1.0, 0.5, 0.5)">
    <path d="M4.85 5.15 L2.85 0.4 3.95 0.0 5.3 3.5 4.85 5.15" fill="url(#gradient0)" fill-rule="evenodd" stroke="none"/>
    <path d="M13.9 30.85 L10.5 29.35 0.0 1.3 2.85 0.4 4.85 5.15 4.75 5.45 9.95 19.35 10.0 19.4 Q11.8 25.15 13.9 30.85" fill="url(#gradient1)" fill-rule="evenodd" stroke="none"/>
    <path d="M13.9 30.85 Q11.8 25.15 10.0 19.4 L11.6 20.3 15.15 31.3 13.9 30.85" fill="url(#gradient2)" fill-rule="evenodd" stroke="none"/>
    <path d="M2.85 0.4 L0.0 1.3 10.5 29.35 13.9 30.85 15.15 31.3 11.6 20.3 10.0 19.4 9.95 19.35 4.75 5.45 4.85 5.15 5.3 3.5 3.95 0.0 2.85 0.4 Z" fill="none" stroke="#0e0e0e" stroke-linecap="round" stroke-linejoin="round" stroke-width="1.0"/>
  </g>
  <defs>
    <radialGradient cx="0" cy="0" gradientTransform="matrix(0.0033, 0.0, 0.0, 0.0033, 4.35, 2.65)" gradientUnits="userSpaceOnUse" id="gradient0" r="819.2" spreadMethod="pad">
      <stop offset="0.0" stop-color="#333333"/>
      <stop offset="0.0" stop-color="#333333"/>
      <stop offset="0.5098039215686274" stop-color="#191919"/>
      <stop offset="1.0" stop-color="#333333"/>
    </radialGradient>
    <radialGradient cx="0" cy="0" gradientTransform="matrix(0.0311, 0.0, 0.0, 0.0311, 4.25, 9.25)" gradientUnits="userSpaceOnUse" id="gradient1" r="819.2" spreadMethod="pad">
      <stop offset="0.0" stop-color="#333333"/>
      <stop offset="0.0" stop-color="#333333"/>
      <stop offset="0.5098039215686274" stop-color="#191919"/>
      <stop offset="1.0" stop-color="#333333"/>
    </radialGradient>
    <radialGradient cx="0" cy="0" gradientTransform="matrix(0.0128, 0.0, 0.0, 0.0128, 11.55, 22.45)" gradientUnits="userSpaceOnUse" id="gradient2" r="819.2" spreadMethod="pad">
      <stop offset="0.0" stop-color="#333333"/>
      <stop offset="0.0" stop-color="#333333"/>
      <stop offset="0.5098039215686274" stop-color="#191919"/>
      <stop offset="1.0" stop-color="#333333"/>
    </radialGradient>
  </defs>
</svg>
