<?xml version="1.0" encoding="UTF-8" standalone="no"?>
<svg xmlns:ffdec="https://www.free-decompiler.com/flash" xmlns:xlink="http://www.w3.org/1999/xlink" ffdec:objectType="shape" height="24.2px" width="13.05px" xmlns="http://www.w3.org/2000/svg">
  <g transform="matrix(1.0, 0.0, 0.0, 1.0, 1.8, 1.9)">
    <path d="M4.45 15.6 Q3.2 15.4 2.65 14.35 L2.5 13.8 4.75 13.7 5.15 15.75 4.45 15.6 M2.05 12.35 L1.55 10.75 4.15 10.55 4.45 12.1 2.05 12.35 M1.05 9.15 L0.8 7.3 1.55 7.6 2.45 7.45 3.85 7.45 3.85 8.85 1.05 9.15 M8.65 12.15 L9.85 11.75 9.85 11.8 8.65 12.15 M6.0 7.9 L9.15 6.1 9.15 6.3 6.0 7.9" fill="#232323" fill-rule="evenodd" stroke="none"/>
    <path d="M2.5 13.8 L1.8 13.8 Q1.1 13.3 1.4 12.35 L2.05 12.35 4.45 12.1 4.75 13.7 2.5 13.8 M1.55 10.75 L1.0 10.75 Q0.05 10.1 0.45 9.15 L1.05 9.15 3.85 8.85 4.15 10.55 1.55 10.75" fill="#1c1c1c" fill-rule="evenodd" stroke="none"/>
    <path d="M8.95 19.15 L8.55 20.4 Q7.55 21.95 7.2 21.75 5.75 22.0 4.8 21.05 4.0 19.95 4.15 18.8 L4.75 17.0 7.55 18.9 8.95 19.15" fill="#121212" fill-rule="evenodd" stroke="none"/>
    <path d="M-0.05 -0.2 L0.7 -1.4 Q3.85 -1.45 4.6 -0.4 L5.85 2.0 5.9 5.0 Q5.05 7.15 3.85 7.45 L2.45 7.45 Q3.75 6.25 4.4 4.6 4.7 2.65 3.6 0.65 2.65 0.1 -0.05 -0.2" fill="#252525" fill-rule="evenodd" stroke="none"/>
    <path d="M9.15 6.1 L10.3 7.3 Q10.7 8.85 10.75 11.05 L9.85 11.8 9.85 11.75 8.65 12.15 6.9 12.4 6.0 7.9 9.15 6.3 9.15 6.1 M9.2 15.0 Q10.25 16.95 9.4 19.25 L8.95 19.15 7.55 18.9 4.75 17.0 4.45 15.6 5.15 15.75 8.05 15.6 9.2 15.0 M0.8 7.3 L0.1 7.0 -0.2 6.45 1.3 6.45 1.3 4.8 -0.9 4.8 -1.15 3.6 1.1 3.6 1.1 1.6 -1.2 1.6 Q-1.25 0.95 -0.05 -0.2 2.65 0.1 3.6 0.65 4.7 2.65 4.4 4.6 3.75 6.25 2.45 7.45 L1.55 7.6 0.8 7.3" fill="#1e1e1e" fill-rule="evenodd" stroke="none"/>
    <path d="M-0.2 6.45 L-0.9 4.8 1.3 4.8 1.3 6.45 -0.2 6.45 M-1.15 3.6 L-1.25 3.1 -1.2 1.6 1.1 1.6 1.1 3.6 -1.15 3.6" fill="#191919" fill-rule="evenodd" stroke="none"/>
    <path d="M5.85 2.0 L7.3 2.0 Q8.8 3.0 8.85 3.95 L9.15 6.1 6.0 7.9 6.9 12.4 8.65 12.15 9.85 11.8 10.05 13.4 Q9.8 14.4 9.2 15.0 L8.05 15.6 5.15 15.75 4.75 13.7 4.45 12.1 4.15 10.55 3.85 8.85 3.85 7.45 Q5.05 7.15 5.9 5.0 L5.85 2.0" fill="url(#gradient0)" fill-rule="evenodd" stroke="none"/>
    <path d="M-0.05 -0.2 L0.7 -1.4 Q3.85 -1.45 4.6 -0.4 L5.85 2.0 7.3 2.0 Q8.8 3.0 8.85 3.95 L9.15 6.1 M9.85 11.8 L10.05 13.4 Q9.8 14.4 9.2 15.0 10.25 16.95 9.4 19.25 L8.95 19.15 8.55 20.4 Q7.55 21.95 7.2 21.75 5.75 22.0 4.8 21.05 4.0 19.95 4.15 18.8 L4.75 17.0 4.45 15.6 Q3.2 15.4 2.65 14.35 L2.5 13.8 1.8 13.8 Q1.1 13.3 1.4 12.35 L2.05 12.35 1.55 10.75 1.0 10.75 Q0.05 10.1 0.45 9.15 L1.05 9.15 0.8 7.3 0.1 7.0 -0.2 6.45 -0.9 4.8 -1.15 3.6 -1.25 3.1 -1.2 1.6 Q-1.25 0.95 -0.05 -0.2 2.65 0.1 3.6 0.65 4.7 2.65 4.4 4.6 3.75 6.25 2.45 7.45 L3.85 7.45 Q5.05 7.15 5.9 5.0 L5.85 2.0 M3.85 7.45 L3.85 8.85 4.15 10.55 4.45 12.1 4.75 13.7 5.15 15.75 8.05 15.6 9.2 15.0 M0.8 7.3 L1.55 7.6 2.45 7.45 M2.05 12.35 L4.45 12.1 M1.55 10.75 L4.15 10.55 M1.05 9.15 L3.85 8.85 M8.65 12.15 L9.85 11.75 9.85 11.8 M8.65 12.15 L6.9 12.4 M2.5 13.8 L4.75 13.7 M4.75 17.0 L7.55 18.9 8.95 19.15 M4.45 15.6 L5.15 15.75" fill="none" stroke="#0b0b0b" stroke-linecap="round" stroke-linejoin="round" stroke-width="1.0"/>
    <path d="M9.15 6.1 L10.3 7.3 Q10.7 8.85 10.75 11.05 L9.85 11.8 8.65 12.15 M-1.15 3.6 L1.1 3.6 1.1 1.6 -1.2 1.6 M6.9 12.4 L6.0 7.9 9.15 6.1 M-0.9 4.8 L1.3 4.8 1.3 6.45 -0.2 6.45" fill="none" stroke="#101010" stroke-linecap="round" stroke-linejoin="round" stroke-width="1.0"/>
  </g>
  <defs>
    <radialGradient cx="0" cy="0" gradientTransform="matrix(0.0055, 0.0131, -0.0083, 0.0035, 8.15, 9.45)" gradientUnits="userSpaceOnUse" id="gradient0" r="819.2" spreadMethod="pad">
      <stop offset="0.0" stop-color="#333333"/>
      <stop offset="1.0" stop-color="#070707"/>
    </radialGradient>
  </defs>
</svg>
