<?xml version="1.0" encoding="UTF-8" standalone="no"?>
<svg xmlns:xlink="http://www.w3.org/1999/xlink" height="10.9px" width="11.5px" xmlns="http://www.w3.org/2000/svg">
  <g transform="matrix(1.0, 0.0, 0.0, 1.0, 5.25, 6.65)">
    <path d="M5.35 -1.1 Q4.9 0.8 3.15 2.75 1.15 4.45 -1.5 3.2 -4.7 1.65 -4.75 -2.35 -4.85 -5.05 -2.6 -5.85 -0.9 -6.5 3.1 -5.8 5.5 -5.15 5.75 -3.35 L5.35 -1.1" fill="#132331" fill-rule="evenodd" stroke="none"/>
    <path d="M5.35 -1.1 Q4.9 0.8 3.15 2.75 1.15 4.45 -1.5 3.2 -4.7 1.65 -4.75 -2.35 -4.85 -5.05 -2.6 -5.85 -0.9 -6.5 3.1 -5.8 5.5 -5.15 5.75 -3.35 L5.35 -1.1 Z" fill="none" stroke="#090000" stroke-linecap="round" stroke-linejoin="round" stroke-width="1.0"/>
  </g>
</svg>
