<?xml version="1.0" encoding="UTF-8" standalone="no"?>
<svg xmlns:ffdec="https://www.free-decompiler.com/flash" xmlns:xlink="http://www.w3.org/1999/xlink" ffdec:objectType="shape" height="34.65px" width="6.9px" xmlns="http://www.w3.org/2000/svg">
  <g transform="matrix(1.0, 0.0, 0.0, 1.0, -4.5, -3.55)">
    <path d="M7.7 5.0 L10.35 8.25 10.3 9.05 Q10.3 17.3 8.75 25.8 10.3 17.3 10.3 9.05 L10.35 8.25 7.7 5.0 10.25 7.8 10.35 8.25 Q11.1 12.5 9.15 26.65 L6.45 25.7 Q7.8 10.9 7.75 5.75 L7.7 5.0" fill="url(#gradient0)" fill-rule="evenodd" stroke="none"/>
    <path d="M8.75 25.8 Q10.3 17.3 10.3 9.05 L10.35 8.25 7.7 5.0" fill="none" stroke="#666666" stroke-linecap="round" stroke-linejoin="round" stroke-width="1.0"/>
    <path d="M7.55 4.05 L10.9 7.55 Q10.95 11.1 9.15 26.65 L6.45 25.7 Q7.9 9.75 7.55 4.05 Z" fill="none" stroke="#000000" stroke-linecap="round" stroke-linejoin="round" stroke-width="1.0"/>
    <path d="M6.1 27.75 L7.4 28.1 8.25 27.15 10.0 27.15 10.05 27.15 9.7 28.7 9.0 28.7 8.5 29.7 9.15 30.55 8.5 33.6 7.1 33.6 7.1 34.75 5.65 34.75 6.1 27.75" fill="#232323" fill-rule="evenodd" stroke="none"/>
    <path d="M10.05 27.15 L10.0 27.15 8.25 27.15 7.4 28.1 6.1 27.75 5.75 27.65 5.0 25.9 5.55 24.7 10.55 26.3 10.05 27.15 M5.65 34.75 L7.1 34.75 7.1 33.6 8.5 33.6 8.5 35.15 9.95 36.75 8.35 37.7 5.5 36.55 5.6 34.75 5.65 34.75" fill="#484848" fill-rule="evenodd" stroke="none"/>
    <path d="M6.1 27.75 L7.4 28.1 8.25 27.15 10.0 27.15 10.05 27.15 10.55 26.3 5.55 24.7 5.0 25.9 5.75 27.65 6.1 27.75 M5.65 34.75 L7.1 34.75 7.1 33.6 8.5 33.6 8.5 35.15 9.95 36.75 8.35 37.7 5.5 36.55 5.6 34.75 5.65 34.75" fill="none" stroke="#191919" stroke-linecap="round" stroke-linejoin="round" stroke-width="1.0"/>
    <path d="M6.1 27.75 L5.65 34.75 M8.5 33.6 L9.15 30.55 8.5 29.7 9.0 28.7 9.7 28.7 10.05 27.15" fill="none" stroke="#0e0e0e" stroke-linecap="round" stroke-linejoin="round" stroke-width="1.0"/>
  </g>
  <defs>
    <radialGradient cx="0" cy="0" fx="192.0" fy="0" gradientTransform="matrix(0.0027, 2.0E-4, -0.0018, 0.0196, 8.75, 18.9)" gradientUnits="userSpaceOnUse" id="gradient0" r="819.2" spreadMethod="pad">
      <stop offset="0.0" stop-color="#000000"/>
      <stop offset="0.0" stop-color="#232323"/>
      <stop offset="0.0" stop-color="#383838"/>
      <stop offset="1.0" stop-color="#101010"/>
      <stop offset="1.0" stop-color="#1e1e1e"/>
    </radialGradient>
  </defs>
</svg>
