<?xml version="1.0" encoding="UTF-8" standalone="no"?>
<svg xmlns:xlink="http://www.w3.org/1999/xlink" height="10.05px" width="11.5px" xmlns="http://www.w3.org/2000/svg">
  <g transform="matrix(1.0, 0.0, 0.0, 1.0, 5.4, 5.75)">
    <path d="M-3.75 0.3 L-4.9 0.3 -4.9 -2.7 -3.55 -5.25 4.45 -4.9 5.6 -3.1 5.6 -0.5 3.35 3.35 -0.55 3.8 -0.7 2.9 -1.05 0.8 -3.75 0.3" fill="#666666" fill-rule="evenodd" stroke="none"/>
    <path d="M-0.7 2.9 L-2.65 2.9 -3.75 0.3 -1.05 0.8 -0.7 2.9" fill="#333333" fill-rule="evenodd" stroke="none"/>
    <path d="M-3.75 0.3 L-4.9 0.3 -4.9 -2.7 -3.55 -5.25 4.45 -4.9 5.6 -3.1 5.6 -0.5 3.35 3.35 -0.55 3.8 -0.7 2.9 -2.65 2.9 -3.75 0.3 -1.05 0.8 -0.7 2.9" fill="none" stroke="#1a1a1a" stroke-linecap="round" stroke-linejoin="round" stroke-width="1.0"/>
  </g>
</svg>
