<?xml version="1.0" encoding="UTF-8" standalone="no"?>
<svg xmlns:ffdec="https://www.free-decompiler.com/flash" xmlns:xlink="http://www.w3.org/1999/xlink" ffdec:objectType="shape" height="21.0px" width="22.1px" xmlns="http://www.w3.org/2000/svg">
  <g transform="matrix(1.0, 0.0, 0.0, 1.0, 0.25, 0.85)">
    <path d="M10.15 5.15 L19.7 0.05 21.85 11.7 11.85 11.7 10.15 5.15" fill="url(#gradient0)" fill-rule="evenodd" stroke="none"/>
    <path d="M2.2 5.65 L3.9 7.35 5.95 7.35 9.8 13.0 8.1 13.75 8.3 14.0 7.7 13.95 7.6 13.9 7.65 13.95 6.6 13.75 2.2 8.6 Q1.7 7.4 2.2 5.65 M6.2 12.4 L3.75 9.4 6.2 12.4" fill="#540000" fill-rule="evenodd" stroke="none"/>
    <path d="M11.1 4.85 L10.3 4.95 9.5 6.25 12.0 11.65 13.1 11.65 14.1 13.95 14.1 14.0 14.05 14.25 14.0 14.5 13.6 16.25 12.45 16.55 12.4 16.55 10.9 16.85 10.25 17.0 7.65 13.95 7.6 13.9 7.7 13.95 8.9 14.7 8.3 14.0 8.1 13.75 9.8 13.0 5.95 7.35 3.9 7.35 2.2 5.65 0.55 3.3 0.25 2.85 1.7 -0.35 4.8 1.05 7.55 1.05 7.7 1.2 10.55 3.3 10.65 3.4 11.1 4.85 M0.55 3.3 L2.0 0.45 4.55 1.7 7.7 1.2 4.55 1.7 2.0 0.45 0.55 3.3 M6.5 5.7 L5.2 5.7 6.5 5.7 M11.15 10.95 L8.85 6.2 9.6 5.0 8.85 6.2 11.15 10.95 M6.15 4.5 L4.5 4.5 6.15 4.5" fill="#2c2c2c" fill-rule="evenodd" stroke="none"/>
    <path d="M13.1 11.65 L12.0 11.65 9.5 6.25 10.3 4.95 11.1 4.85 11.9 4.75 Q13.15 7.85 13.65 10.6 L13.1 11.65" fill="#ffd858" fill-rule="evenodd" stroke="none"/>
    <path d="M10.9 16.85 L12.4 16.55 12.45 16.55 13.6 16.25 14.0 14.5 Q15.75 15.35 16.1 17.0 L15.9 18.0 Q15.6 18.95 14.8 19.4 L13.05 19.55 Q11.2 19.35 10.9 16.85" fill="#3c0000" fill-rule="evenodd" stroke="none"/>
    <path d="M5.2 5.7 L6.5 5.7 M4.5 4.5 L6.15 4.5 M9.6 5.0 L8.85 6.2 11.15 10.95" fill="none" stroke="#202020" stroke-linecap="round" stroke-linejoin="round" stroke-width="1.0"/>
    <path d="M14.1 14.0 L14.1 13.95" fill="none" stroke="#1c1c1c" stroke-linecap="round" stroke-linejoin="round" stroke-width="1.0"/>
    <path d="M11.1 4.85 L10.65 3.4 10.55 3.3 7.7 1.2 7.55 1.05 4.8 1.05 1.7 -0.35 0.25 2.85 0.55 3.3 2.2 5.65 M7.6 13.9 L7.65 13.95" fill="none" stroke="#151515" stroke-linecap="round" stroke-linejoin="round" stroke-width="1.0"/>
    <path d="M13.1 11.65 L12.0 11.65 9.5 6.25 10.3 4.95 11.1 4.85 11.9 4.75 Q13.15 7.85 13.65 10.6 L13.1 11.65" fill="none" stroke="#6f5a01" stroke-linecap="round" stroke-linejoin="round" stroke-width="1.0"/>
    <path d="M3.75 9.4 L6.2 12.4" fill="none" stroke="#ffd858" stroke-linecap="round" stroke-linejoin="round" stroke-width="1.0"/>
    <path d="M2.2 5.65 L3.9 7.35 5.95 7.35 9.8 13.0 8.1 13.75 M6.6 13.75 L2.2 8.6 Q1.7 7.4 2.2 5.65" fill="none" stroke="#270000" stroke-linecap="round" stroke-linejoin="round" stroke-width="1.0"/>
    <path d="M7.7 1.2 L4.55 1.7 2.0 0.45 0.55 3.3" fill="none" stroke="#483a00" stroke-linecap="round" stroke-linejoin="round" stroke-width="1.0"/>
    <path d="M10.25 17.0 L10.9 16.85 Q11.2 19.35 13.05 19.55 L14.8 19.4 Q15.6 18.95 15.9 18.0 L16.1 17.0 Q15.75 15.35 14.0 14.5 L14.05 14.25" fill="none" stroke="#2c0404" stroke-linecap="round" stroke-linejoin="round" stroke-width="1.0"/>
    <path d="M7.65 13.95 L10.25 17.0 M10.9 16.85 L12.4 16.55 M12.45 16.55 L13.6 16.25 14.0 14.5 M14.1 13.95 L13.1 11.65" fill="none" stroke="#191919" stroke-linecap="round" stroke-linejoin="round" stroke-width="1.0"/>
    <path d="M2.2 5.65 L0.25 2.85 1.7 -0.35 4.8 1.05 7.7 1.2 10.55 3.3" fill="none" stroke="#151515" stroke-linecap="round" stroke-linejoin="round" stroke-width="1.0"/>
    <path d="M2.2 5.65 L3.9 7.35 5.95 7.35 9.8 13.0 7.6 13.9 6.6 13.75 2.2 8.6 Q1.7 7.4 2.2 5.65" fill="none" stroke="#270000" stroke-linecap="round" stroke-linejoin="round" stroke-width="1.0"/>
    <path d="M10.3 4.95 L9.5 6.25 12.0 11.65 13.1 11.65 13.65 10.6 Q13.15 7.85 11.9 4.75 L10.3 4.95 Z" fill="none" stroke="#6f5a01" stroke-linecap="round" stroke-linejoin="round" stroke-width="1.0"/>
  </g>
  <defs>
    <linearGradient gradientTransform="matrix(0.0059, -0.0016, 0.0012, 0.0047, 13.2, 8.6)" gradientUnits="userSpaceOnUse" id="gradient0" spreadMethod="pad" x1="-819.2" x2="819.2">
      <stop offset="0.0" stop-color="#ffee00" stop-opacity="0.5882353"/>
      <stop offset="1.0" stop-color="#ffd200" stop-opacity="0.0"/>
      <stop offset="1.0" stop-color="#f7ec9a" stop-opacity="0.0"/>
    </linearGradient>
  </defs>
</svg>
