<?xml version="1.0" encoding="UTF-8" standalone="no"?>
<svg xmlns:xlink="http://www.w3.org/1999/xlink" height="27.6px" width="23.55px" xmlns="http://www.w3.org/2000/svg">
  <g transform="matrix(1.0, 0.0, 0.0, 1.0, 14.0, 31.6)">
    <path d="M3.85 -29.05 Q-3.9 -27.35 -5.05 -31.1 -4.55 -30.25 -0.35 -30.35 2.65 -30.1 3.85 -29.05 M-6.85 -29.75 Q-7.95 -28.3 -8.6 -25.2 -9.25 -18.25 -7.35 -14.8 L-6.35 -14.5 Q-2.25 -13.45 4.0 -14.25 L6.0 -18.25 7.0 -18.25 Q7.6 -17.15 6.6 -12.95 5.8 -9.85 4.75 -7.95 L-4.55 -7.75 -5.6 -12.0 Q-5.8 -13.25 -6.35 -13.95 L-6.9 -10.55 -10.55 -9.6 -10.6 -9.6 -12.35 -11.75 -11.05 -12.45 -11.65 -15.9 -9.75 -17.0 -9.75 -18.75 -9.8 -20.5 -9.8 -22.35 -11.7 -23.45 -10.95 -26.65 -12.5 -27.95 -12.4 -28.25 -10.75 -30.7 -8.1 -30.85 -6.85 -29.75 M-13.5 -18.75 L-13.5 -20.5 -11.25 -20.5 -11.25 -18.75 -13.5 -18.75 M-7.35 -14.8 L-6.35 -13.95 -7.35 -14.8 M2.5 -9.25 L-0.5 -9.25 2.5 -9.25 M3.5 -11.25 L-2.5 -11.25 3.5 -11.25" fill="#161b1d" fill-rule="evenodd" stroke="none"/>
    <path d="M8.0 -25.15 L6.55 -23.5 3.25 -23.35 3.5 -26.55 6.85 -27.25 8.0 -25.15 M-12.35 -11.75 L-12.45 -12.0 -13.25 -15.0 -13.5 -18.75 -11.25 -18.75 -11.25 -20.5 -13.5 -20.5 -13.25 -24.35 -12.5 -27.95 -10.95 -26.65 -11.7 -23.45 -9.8 -22.35 -9.8 -20.5 -9.75 -18.75 -9.75 -17.0 -11.65 -15.9 -11.05 -12.45 -12.35 -11.75 M0.3 -22.95 L-6.9 -22.35 -6.9 -25.1 -4.1 -27.15 0.75 -26.45 0.3 -22.95 M-13.25 -24.35 L-11.7 -23.45 -13.25 -24.35 M-11.25 -20.5 L-9.8 -20.5 -11.25 -20.5 M-9.75 -18.75 L-11.25 -18.75 -9.75 -18.75 M-13.25 -15.0 L-11.65 -15.9 -13.25 -15.0" fill="#29435e" fill-rule="evenodd" stroke="none"/>
    <path d="M6.85 -27.25 L3.5 -26.55 3.25 -23.35 6.55 -23.5 8.0 -25.15 9.05 -22.25 7.65 -22.25 8.0 -20.25 9.05 -20.25 9.0 -18.25 7.0 -18.25 6.0 -18.25 4.0 -14.25 Q-2.25 -13.45 -6.35 -14.5 L-7.35 -14.8 Q-9.25 -18.25 -8.6 -25.2 -7.95 -28.3 -6.85 -29.75 -6.05 -30.85 -5.05 -31.1 -3.9 -27.35 3.85 -29.05 L4.4 -29.15 Q5.7 -28.95 6.85 -27.25 M3.65 -20.25 L0.65 -20.25 3.65 -20.25 M4.75 -7.95 Q5.0 -7.65 4.1 -6.15 3.15 -4.65 -0.8 -4.5 -4.75 -4.35 -4.55 -7.75 L4.75 -7.95 M0.3 -22.95 L0.75 -26.45 -4.1 -27.15 -6.9 -25.1 -6.9 -22.35 0.3 -22.95 M-2.35 -20.25 L-4.35 -20.25 -2.35 -20.25 M-3.35 -16.25 L1.65 -16.25 -3.35 -16.25 M2.65 -18.25 L-1.35 -18.25 2.65 -18.25" fill="#24333d" fill-rule="evenodd" stroke="none"/>
    <path d="M7.0 -18.25 Q7.6 -17.15 6.6 -12.95 5.8 -9.85 4.75 -7.95 M-4.55 -7.75 L-5.6 -12.0 Q-5.8 -13.25 -6.35 -13.95 L-6.9 -10.55 -10.55 -9.6 -10.6 -9.6 -12.35 -11.75 M-13.5 -18.75 L-13.5 -20.5 M-12.5 -27.95 L-12.4 -28.25 -10.75 -30.7 -8.1 -30.85 -6.85 -29.75 M3.85 -29.05 Q2.65 -30.1 -0.35 -30.35 -4.55 -30.25 -5.05 -31.1 M-6.35 -13.95 L-7.35 -14.8" fill="none" stroke="#070a0a" stroke-linecap="round" stroke-linejoin="round" stroke-width="1.0"/>
    <path d="M6.85 -27.25 L3.5 -26.55 3.25 -23.35 6.55 -23.5 8.0 -25.15 6.85 -27.25 Q5.7 -28.95 4.4 -29.15 L3.85 -29.05 Q-3.9 -27.35 -5.05 -31.1 -6.05 -30.85 -6.85 -29.75 -7.95 -28.3 -8.6 -25.2 -9.25 -18.25 -7.35 -14.8 L-6.35 -14.5 Q-2.25 -13.45 4.0 -14.25 L6.0 -18.25 7.0 -18.25 9.0 -18.25 9.05 -20.25 8.0 -20.25 7.65 -22.25 9.05 -22.25 8.0 -25.15 M4.75 -7.95 Q5.0 -7.65 4.1 -6.15 3.15 -4.65 -0.8 -4.5 -4.75 -4.35 -4.55 -7.75 L4.75 -7.95 M-12.35 -11.75 L-12.45 -12.0 -13.25 -15.0 -13.5 -18.75 -11.25 -18.75 -11.25 -20.5 -13.5 -20.5 -13.25 -24.35 -12.5 -27.95 -10.95 -26.65 -11.7 -23.45 -9.8 -22.35 -9.8 -20.5 -9.75 -18.75 -9.75 -17.0 -11.65 -15.9 -11.05 -12.45 -12.35 -11.75 M0.3 -22.95 L-6.9 -22.35 -6.9 -25.1 -4.1 -27.15 0.75 -26.45 0.3 -22.95 M-11.7 -23.45 L-13.25 -24.35 M-11.65 -15.9 L-13.25 -15.0 M-11.25 -18.75 L-9.75 -18.75 M-9.8 -20.5 L-11.25 -20.5" fill="none" stroke="#0c1113" stroke-linecap="round" stroke-linejoin="round" stroke-width="1.0"/>
    <path d="M0.65 -20.25 L3.65 -20.25 M-4.35 -20.25 L-2.35 -20.25 M-1.35 -18.25 L2.65 -18.25 M1.65 -16.25 L-3.35 -16.25" fill="none" stroke="#131c20" stroke-linecap="round" stroke-linejoin="round" stroke-width="1.0"/>
    <path d="M-2.5 -11.25 L3.5 -11.25 M-0.5 -9.25 L2.5 -9.25" fill="none" stroke="#0f1213" stroke-linecap="round" stroke-linejoin="round" stroke-width="1.0"/>
  </g>
</svg>
