<?xml version="1.0" encoding="UTF-8" standalone="no"?>
<svg xmlns:ffdec="https://www.free-decompiler.com/flash" xmlns:xlink="http://www.w3.org/1999/xlink" ffdec:objectType="shape" height="21.0px" width="22.1px" xmlns="http://www.w3.org/2000/svg">
  <g transform="matrix(1.0, 0.0, 0.0, 1.0, -0.4, -1.05)">
    <path d="M10.8 7.05 L20.35 1.95 22.5 13.6 12.5 13.6 10.8 7.05" fill="url(#gradient0)" fill-rule="evenodd" stroke="none"/>
    <path d="M2.85 7.55 L4.55 9.25 6.6 9.25 10.45 14.9 8.75 15.65 8.95 15.9 8.35 15.85 8.25 15.8 8.3 15.85 7.25 15.65 2.85 10.5 Q2.35 9.3 2.85 7.55 M6.85 14.3 L4.4 11.3 6.85 14.3" fill="#540000" fill-rule="evenodd" stroke="none"/>
    <path d="M11.75 6.75 L10.95 6.85 10.15 8.15 12.65 13.55 13.75 13.55 14.75 15.85 14.75 15.9 14.7 16.15 14.65 16.4 14.25 18.15 13.1 18.45 13.05 18.45 11.55 18.75 10.9 18.9 8.3 15.85 8.25 15.8 8.35 15.85 9.55 16.6 8.95 15.9 8.75 15.65 10.45 14.9 6.6 9.25 4.55 9.25 2.85 7.55 1.2 5.2 0.9 4.75 2.35 1.55 5.45 2.95 8.2 2.95 8.35 3.1 11.2 5.2 11.3 5.3 11.75 6.75 M1.2 5.2 L2.65 2.35 5.2 3.6 8.35 3.1 5.2 3.6 2.65 2.35 1.2 5.2 M7.15 7.6 L5.85 7.6 7.15 7.6 M6.8 6.4 L5.15 6.4 6.8 6.4 M11.8 12.85 L9.5 8.1 10.25 6.9 9.5 8.1 11.8 12.85" fill="#2c2c2c" fill-rule="evenodd" stroke="none"/>
    <path d="M13.75 13.55 L12.65 13.55 10.15 8.15 10.95 6.85 11.75 6.75 12.55 6.65 Q13.8 9.75 14.3 12.5 L13.75 13.55" fill="#ffd858" fill-rule="evenodd" stroke="none"/>
    <path d="M11.55 18.75 L13.05 18.45 13.1 18.45 14.25 18.15 14.65 16.4 Q16.4 17.25 16.75 18.9 L16.55 19.9 Q16.25 20.85 15.45 21.3 L13.7 21.45 Q11.85 21.25 11.55 18.75" fill="#3c0000" fill-rule="evenodd" stroke="none"/>
    <path d="M5.15 6.4 L6.8 6.4 M5.85 7.6 L7.15 7.6 M10.25 6.9 L9.5 8.1 11.8 12.85" fill="none" stroke="#202020" stroke-linecap="round" stroke-linejoin="round" stroke-width="1.0"/>
    <path d="M14.75 15.9 L14.75 15.85" fill="none" stroke="#1c1c1c" stroke-linecap="round" stroke-linejoin="round" stroke-width="1.0"/>
    <path d="M11.75 6.75 L11.3 5.3 11.2 5.2 8.35 3.1 8.2 2.95 5.45 2.95 2.35 1.55 0.9 4.75 1.2 5.2 2.85 7.55 M8.25 15.8 L8.3 15.85" fill="none" stroke="#151515" stroke-linecap="round" stroke-linejoin="round" stroke-width="1.0"/>
    <path d="M13.75 13.55 L12.65 13.55 10.15 8.15 10.95 6.85 11.75 6.75 12.55 6.65 Q13.8 9.75 14.3 12.5 L13.75 13.55" fill="none" stroke="#6f5a01" stroke-linecap="round" stroke-linejoin="round" stroke-width="1.0"/>
    <path d="M4.4 11.3 L6.85 14.3" fill="none" stroke="#ffd858" stroke-linecap="round" stroke-linejoin="round" stroke-width="1.0"/>
    <path d="M2.85 7.55 L4.55 9.25 6.6 9.25 10.45 14.9 8.75 15.65 M7.25 15.65 L2.85 10.5 Q2.35 9.3 2.85 7.55" fill="none" stroke="#270000" stroke-linecap="round" stroke-linejoin="round" stroke-width="1.0"/>
    <path d="M8.35 3.1 L5.2 3.6 2.65 2.35 1.2 5.2" fill="none" stroke="#483a00" stroke-linecap="round" stroke-linejoin="round" stroke-width="1.0"/>
    <path d="M10.9 18.9 L11.55 18.75 Q11.85 21.25 13.7 21.45 L15.45 21.3 Q16.25 20.85 16.55 19.9 L16.75 18.9 Q16.4 17.25 14.65 16.4 L14.7 16.15" fill="none" stroke="#2c0404" stroke-linecap="round" stroke-linejoin="round" stroke-width="1.0"/>
    <path d="M8.3 15.85 L10.9 18.9 M11.55 18.75 L13.05 18.45 M13.1 18.45 L14.25 18.15 14.65 16.4 M14.75 15.85 L13.75 13.55" fill="none" stroke="#191919" stroke-linecap="round" stroke-linejoin="round" stroke-width="1.0"/>
    <path d="M2.85 7.55 L0.9 4.75 2.35 1.55 5.45 2.95 8.35 3.1 11.2 5.2" fill="none" stroke="#151515" stroke-linecap="round" stroke-linejoin="round" stroke-width="1.0"/>
    <path d="M2.85 7.55 L4.55 9.25 6.6 9.25 10.45 14.9 8.25 15.8 7.25 15.65 2.85 10.5 Q2.35 9.3 2.85 7.55" fill="none" stroke="#270000" stroke-linecap="round" stroke-linejoin="round" stroke-width="1.0"/>
    <path d="M10.95 6.85 L10.15 8.15 12.65 13.55 13.75 13.55 14.3 12.5 Q13.8 9.75 12.55 6.65 L10.95 6.85 Z" fill="none" stroke="#6f5a01" stroke-linecap="round" stroke-linejoin="round" stroke-width="1.0"/>
  </g>
  <defs>
    <linearGradient gradientTransform="matrix(0.0059, -0.0016, 0.0012, 0.0047, 13.85, 10.5)" gradientUnits="userSpaceOnUse" id="gradient0" spreadMethod="pad" x1="-819.2" x2="819.2">
      <stop offset="0.0" stop-color="#ffee00" stop-opacity="0.5882353"/>
      <stop offset="1.0" stop-color="#ffd200" stop-opacity="0.0"/>
      <stop offset="1.0" stop-color="#f7ec9a" stop-opacity="0.0"/>
    </linearGradient>
  </defs>
</svg>
