<?xml version="1.0" encoding="UTF-8" standalone="no"?>
<svg xmlns:ffdec="https://www.free-decompiler.com/flash" xmlns:xlink="http://www.w3.org/1999/xlink" ffdec:objectType="shape" height="22.75px" width="16.45px" xmlns="http://www.w3.org/2000/svg">
  <g transform="matrix(1.0, 0.0, 0.0, 1.0, 6.55, 4.55)">
    <path d="M4.65 -1.45 L4.3 -0.5 4.35 -0.4 Q3.5 1.7 1.5 4.2 L3.9 10.0 Q2.9 10.4 2.05 12.55 L-0.4 11.55 -2.8 5.2 -3.2 5.25 Q-5.6 4.45 -5.95 2.45 -6.6 -1.15 -2.65 -4.05 L2.45 -3.35 4.65 -1.45 M-2.8 5.2 L-0.4 -0.35 -2.65 -4.05 -0.4 -0.35 -2.8 5.2" fill="url(#gradient0)" fill-rule="evenodd" stroke="none"/>
    <path d="M3.9 10.0 L1.5 4.2 Q3.5 1.7 4.35 -0.4 L6.75 6.3 Q7.2 7.95 7.1 9.45 5.4 9.0 3.9 10.0" fill="url(#gradient1)" fill-rule="evenodd" stroke="none"/>
    <path d="M2.05 12.55 Q2.9 10.4 3.9 10.0 5.4 9.0 7.1 9.45 8.85 10.15 8.25 11.85 6.3 14.45 3.55 14.85 1.4 14.25 2.05 12.55" fill="url(#gradient2)" fill-rule="evenodd" stroke="none"/>
    <path d="M3.55 14.85 Q6.3 14.45 8.25 11.85 L8.85 12.8 Q9.7 14.45 9.2 15.85 8.6 17.7 6.45 17.7 5.25 17.7 4.6 16.55 L3.55 14.85" fill="#333333" fill-rule="evenodd" stroke="none"/>
    <path d="M4.65 -1.45 L2.45 -3.35 -2.65 -4.05 -0.4 -0.35 -2.8 5.2 -0.4 11.55 2.05 12.55 M3.9 10.0 L1.5 4.2 Q3.5 1.7 4.35 -0.4 L4.65 -1.45 M-2.8 5.2 L-3.2 5.25 Q-5.6 4.45 -5.95 2.45 -6.6 -1.15 -2.65 -4.05" fill="none" stroke="#666666" stroke-linecap="round" stroke-linejoin="round" stroke-width="1.0"/>
    <path d="M7.1 9.45 Q7.2 7.95 6.75 6.3 L4.35 -0.4 M8.25 11.85 L8.85 12.8 Q9.7 14.45 9.2 15.85 8.6 17.7 6.45 17.7 5.25 17.7 4.6 16.55 L3.55 14.85" fill="none" stroke="#000000" stroke-linecap="round" stroke-linejoin="round" stroke-width="1.0"/>
    <path d="M2.05 12.55 Q2.9 10.4 3.9 10.0 5.4 9.0 7.1 9.45 8.85 10.15 8.25 11.85 6.3 14.45 3.55 14.85 1.4 14.25 2.05 12.55 Z" fill="none" stroke="#323232" stroke-linecap="round" stroke-linejoin="round" stroke-width="1.0"/>
  </g>
  <defs>
    <radialGradient cx="0" cy="0" gradientTransform="matrix(0.0123, 0.0019, -0.0019, 0.0123, -0.4, 4.25)" gradientUnits="userSpaceOnUse" id="gradient0" r="819.2" spreadMethod="pad">
      <stop offset="0.0" stop-color="#ffffff"/>
      <stop offset="1.0" stop-color="#999999"/>
    </radialGradient>
    <linearGradient gradientTransform="matrix(0.0035, 4.0E-4, -0.0011, 0.0075, 3.55, 4.25)" gradientUnits="userSpaceOnUse" id="gradient1" spreadMethod="pad" x1="-819.2" x2="819.2">
      <stop offset="0.0" stop-color="#393c57"/>
      <stop offset="1.0" stop-color="#292930"/>
    </linearGradient>
    <linearGradient gradientTransform="matrix(0.004, -7.0E-4, 5.0E-4, 0.003, 4.8, 11.75)" gradientUnits="userSpaceOnUse" id="gradient2" spreadMethod="pad" x1="-819.2" x2="819.2">
      <stop offset="0.0" stop-color="#595959"/>
      <stop offset="1.0" stop-color="#737373"/>
    </linearGradient>
  </defs>
</svg>
