<?xml version="1.0" encoding="UTF-8" standalone="no"?>
<svg xmlns:ffdec="https://www.free-decompiler.com/flash" xmlns:xlink="http://www.w3.org/1999/xlink" ffdec:objectType="shape" height="21.1px" width="14.6px" xmlns="http://www.w3.org/2000/svg">
  <g transform="matrix(1.0, 0.0, 0.0, 1.0, 4.35, 0.75)">
    <path d="M3.2 0.85 Q3.35 0.75 3.45 0.75 L3.55 0.65 5.9 -0.25 Q6.7 0.9 7.4 2.6 L-2.85 5.95 7.4 2.6 Q8.6 5.25 9.05 9.25 L0.65 12.1 Q-1.6 9.4 -2.85 5.95 L-3.85 2.55 -1.7 2.2 -1.0 2.2 0.55 3.0 1.85 2.65 3.0 2.1 3.05 1.75 3.2 0.85 3.05 1.75 Q2.95 1.6 3.0 1.15 L3.2 0.85 M1.85 2.65 L2.7 2.4 3.0 2.1 2.7 2.4 1.85 2.65" fill="url(#gradient0)" fill-rule="evenodd" stroke="none"/>
    <path d="M8.0 11.55 L7.7 11.5 8.0 11.55 M9.05 9.25 L9.6 11.1 9.45 13.1 8.35 13.25 7.7 13.4 7.05 13.5 4.4 14.35 3.65 14.85 1.75 13.65 Q1.0 12.95 0.65 12.1 L9.05 9.25 M3.3 12.8 L3.0 12.75 3.3 12.8" fill="url(#gradient1)" fill-rule="evenodd" stroke="none"/>
    <path d="M4.4 14.35 L7.05 13.5 7.7 13.4 8.35 13.25 8.45 13.25 8.65 14.45 Q6.45 13.75 4.75 15.35 L4.4 14.35" fill="#0d0d0f" fill-rule="evenodd" stroke="none"/>
    <path d="M8.65 14.45 L9.55 14.7 Q10.15 16.7 8.7 18.3 L6.05 16.05 8.7 18.3 Q7.25 19.35 5.6 19.8 L4.85 19.0 4.5 18.5 4.15 16.95 4.2 16.9 4.45 16.35 4.75 15.35 Q6.45 13.75 8.65 14.45 M4.25 16.9 L6.05 16.05 4.25 16.9 4.15 16.95 4.25 16.9 4.45 16.35 4.25 16.9 4.2 16.9 4.25 16.9" fill="#1a1b1d" fill-rule="evenodd" stroke="none"/>
    <path d="M3.2 0.85 L3.05 1.75 3.0 2.1 2.7 2.4 1.85 2.65 0.55 3.0 -1.0 2.2 -1.65 1.9 -3.85 2.55 M5.9 -0.25 L3.55 0.65 3.45 0.75 3.25 0.75 3.2 0.85" fill="none" stroke="#0f0f0f" stroke-linecap="round" stroke-linejoin="round" stroke-width="1.0"/>
    <path d="M7.4 2.6 Q6.7 0.9 5.9 -0.25 M8.35 13.25 L9.45 13.1 9.6 11.1 9.05 9.25 Q8.6 5.25 7.4 2.6 M0.65 12.1 Q1.0 12.95 1.75 13.65 L3.65 14.85 4.4 14.35 7.05 13.5 7.7 13.4 8.35 13.25 M8.65 14.45 L9.55 14.7 Q10.15 16.7 8.7 18.3 7.25 19.4 5.6 19.85 L4.85 19.0 4.5 18.5 4.15 16.95 4.25 16.9 4.45 16.35 4.75 15.35 Q6.45 13.75 8.65 14.45 M8.7 18.3 L6.05 16.05" fill="none" stroke="#0e0e0e" stroke-linecap="round" stroke-linejoin="bevel" stroke-width="1.0"/>
    <path d="M7.7 11.5 L8.0 11.55 M9.05 9.25 L0.65 12.1 M3.0 12.75 L3.3 12.8" fill="none" stroke="#0e0e0e" stroke-linecap="round" stroke-linejoin="round" stroke-width="1.0"/>
    <path d="M8.45 13.25 L8.65 14.45 M4.75 15.35 L4.4 14.35" fill="none" stroke="#161618" stroke-linecap="round" stroke-linejoin="bevel" stroke-width="0.9"/>
    <path d="M4.25 16.9 L4.2 16.9" fill="none" stroke="#161618" stroke-linecap="round" stroke-linejoin="bevel" stroke-width="1.0"/>
    <path d="M6.05 16.05 L4.25 16.9" fill="none" stroke="#0f0f0f" stroke-linecap="round" stroke-linejoin="bevel" stroke-width="1.0"/>
    <path d="M-2.85 5.95 L7.4 2.6" fill="none" stroke="url(#gradient2)" stroke-linecap="round" stroke-linejoin="round" stroke-width="1.0"/>
    <path d="M-2.85 5.9 Q-1.55 9.4 0.65 12.0" fill="none" stroke="#0e0e0e" stroke-linecap="round" stroke-linejoin="bevel" stroke-width="1.0"/>
    <path d="M-3.85 2.55 L-2.85 5.9" fill="none" stroke="#0e0e0e" stroke-linecap="round" stroke-linejoin="bevel" stroke-width="1.0"/>
  </g>
  <defs>
    <radialGradient cx="0" cy="0" gradientTransform="matrix(0.0135, 4.0E-4, -1.0E-4, 0.0104, 3.1, 6.35)" gradientUnits="userSpaceOnUse" id="gradient0" r="819.2" spreadMethod="pad">
      <stop offset="0.0" stop-color="#333333"/>
      <stop offset="1.0" stop-color="#191919"/>
    </radialGradient>
    <radialGradient cx="0" cy="0" gradientTransform="matrix(0.0135, 4.0E-4, -1.0E-4, 0.0104, 3.1, 6.35)" gradientUnits="userSpaceOnUse" id="gradient1" r="819.2" spreadMethod="pad">
      <stop offset="0.0" stop-color="#333333"/>
      <stop offset="1.0" stop-color="#1c1c1c"/>
    </radialGradient>
    <linearGradient gradientTransform="matrix(0.0098, 0.0012, -0.0017, 0.0134, 2.95, 8.9)" gradientUnits="userSpaceOnUse" id="gradient2" spreadMethod="pad" x1="-819.2" x2="819.2">
      <stop offset="0.0" stop-color="#333333"/>
      <stop offset="1.0" stop-color="#000000"/>
    </linearGradient>
  </defs>
</svg>
