<?xml version="1.0" encoding="UTF-8" standalone="no"?>
<svg xmlns:ffdec="https://www.free-decompiler.com/flash" xmlns:xlink="http://www.w3.org/1999/xlink" ffdec:objectType="shape" height="42.45px" width="35.9px" xmlns="http://www.w3.org/2000/svg">
  <g transform="matrix(1.0, 0.0, 0.0, 1.0, 0.35, 0.5)">
    <path d="M21.6 21.3 L23.1 20.65 26.65 27.1 23.5 28.7 20.1 22.6 19.85 22.15 21.6 21.3" fill="url(#gradient0)" fill-rule="evenodd" stroke="none"/>
    <path d="M7.9 1.5 L10.95 0.0 17.25 11.2 16.1 11.7 14.35 12.6 7.9 1.5" fill="url(#gradient1)" fill-rule="evenodd" stroke="none"/>
    <path d="M13.75 12.9 L11.1 14.2 16.35 23.8 15.15 24.45 23.2 38.85 21.0 38.25 2.0 4.2 5.0 2.95 Q5.2 2.75 5.35 2.7 L7.9 1.5 14.35 12.6 13.75 12.9" fill="url(#gradient2)" fill-rule="evenodd" stroke="none"/>
    <path d="M21.0 38.25 L18.4 37.6 0.0 5.15 2.0 4.2 21.0 38.25" fill="url(#gradient3)" fill-rule="evenodd" stroke="none"/>
    <path d="M19.85 22.15 L19.05 22.55 13.75 12.9 14.35 12.6 16.1 11.7 21.6 21.3 19.85 22.15" fill="#191919" fill-rule="evenodd" stroke="none"/>
    <path d="M26.65 27.1 L32.6 37.5 27.85 36.25 23.5 28.7 26.65 27.1" fill="url(#gradient4)" fill-rule="evenodd" stroke="none"/>
    <path d="M27.85 36.25 L27.95 36.55 32.9 37.85 35.15 41.9 23.6 39.2 15.5 24.75 20.1 22.6 23.5 28.7 27.85 36.25" fill="url(#gradient5)" fill-rule="evenodd" stroke="none"/>
    <path d="M21.75 21.25 L23.3 20.6 26.9 26.95 32.8 37.45 35.05 41.45 23.45 38.7 18.6 37.5 0.15 5.1 8.1 1.35 11.1 0.0 17.45 11.15 16.4 11.65 21.75 21.25 20.0 22.15 23.65 28.65 26.9 26.95 M20.0 22.15 L19.3 22.5 16.65 23.7 15.35 24.3 23.45 38.7 M19.3 22.5 L13.9 12.9 11.2 14.05 16.65 23.7 M16.4 11.65 Q15.5 12.1 14.55 12.5 L13.9 12.9 M8.1 1.35 L14.55 12.5 M23.65 28.65 L27.9 36.2 32.8 37.45" fill="none" stroke="#0e0e0e" stroke-linecap="round" stroke-linejoin="round" stroke-width="1.0"/>
  </g>
  <defs>
    <radialGradient cx="0" cy="0" gradientTransform="matrix(0.0034, 0.006, -0.0066, 0.0031, 23.05, 26.0)" gradientUnits="userSpaceOnUse" id="gradient0" r="819.2" spreadMethod="pad">
      <stop offset="0.0" stop-color="#333333"/>
      <stop offset="1.0" stop-color="#191919"/>
    </radialGradient>
    <radialGradient cx="0" cy="0" gradientTransform="matrix(0.0042, 0.0075, -0.0081, 0.0038, 12.2, 5.7)" gradientUnits="userSpaceOnUse" id="gradient1" r="819.2" spreadMethod="pad">
      <stop offset="0.0" stop-color="#333333"/>
      <stop offset="1.0" stop-color="#191919"/>
    </radialGradient>
    <radialGradient cx="0" cy="0" gradientTransform="matrix(0.0122, 0.0217, -0.0236, 0.0111, 14.6, 20.2)" gradientUnits="userSpaceOnUse" id="gradient2" r="819.2" spreadMethod="pad">
      <stop offset="0.0" stop-color="#333333"/>
      <stop offset="1.0" stop-color="#191919"/>
    </radialGradient>
    <linearGradient gradientTransform="matrix(0.0116, 0.0207, -0.0011, 5.0E-4, 10.3, 21.45)" gradientUnits="userSpaceOnUse" id="gradient3" spreadMethod="pad" x1="-819.2" x2="819.2">
      <stop offset="0.0" stop-color="#333333"/>
      <stop offset="1.0" stop-color="#000000"/>
    </linearGradient>
    <radialGradient cx="0" cy="0" gradientTransform="matrix(0.0043, 0.0077, -0.0084, 0.004, 26.8, 32.35)" gradientUnits="userSpaceOnUse" id="gradient4" r="819.2" spreadMethod="pad">
      <stop offset="0.0" stop-color="#333333"/>
      <stop offset="1.0" stop-color="#191919"/>
    </radialGradient>
    <radialGradient cx="0" cy="0" gradientTransform="matrix(0.0135, 0.0242, -0.0263, 0.0124, 18.7, 25.05)" gradientUnits="userSpaceOnUse" id="gradient5" r="819.2" spreadMethod="pad">
      <stop offset="0.0" stop-color="#333333"/>
      <stop offset="1.0" stop-color="#191919"/>
    </radialGradient>
  </defs>
</svg>
