<?xml version="1.0" encoding="UTF-8" standalone="no"?>
<svg xmlns:ffdec="https://www.free-decompiler.com/flash" xmlns:xlink="http://www.w3.org/1999/xlink" ffdec:objectType="shape" height="14.6px" width="14.25px" xmlns="http://www.w3.org/2000/svg">
  <g transform="matrix(1.0, 0.0, 0.0, 1.0, 0.0, 0.0)">
    <path d="M13.55 6.1 L13.55 4.5 Q14.5 4.15 14.15 5.2 L13.55 6.1 M10.8 3.65 Q11.0 3.1 11.6 3.3 L14.15 8.5 14.15 9.05 10.8 3.65 M9.4 6.75 L10.2 7.8 Q11.4 8.35 12.55 7.8 L12.95 8.5 10.8 8.7 11.95 10.75 11.0 10.6 Q9.05 8.15 7.85 5.55 L8.05 4.85 8.85 6.1 Q9.6 5.75 10.0 5.2 L9.4 6.75 M2.55 5.05 L3.15 6.1 5.9 4.35 Q5.5 4.0 5.7 3.45 3.95 3.8 2.55 5.05 M6.5 2.8 Q7.25 3.3 7.05 4.0 L10.0 2.45 9.05 1.55 6.5 2.8 M1.4 4.35 L9.8 0.0 Q10.0 1.55 11.95 1.75 6.9 4.7 2.15 8.0 1.0 8.15 1.8 7.3 L2.35 6.75 1.6 5.55 0.0 6.1 Q1.2 5.4 1.4 4.35 M3.35 9.05 Q5.1 10.25 5.3 12.35 L6.7 11.45 Q5.7 10.4 4.7 8.15 L3.35 9.05 M1.8 9.05 L7.05 6.45 Q8.65 8.35 9.6 10.75 7.25 12.7 3.55 14.6 4.5 13.75 3.95 13.2 L4.5 12.85 2.55 9.55 Q2.15 9.55 1.4 10.25 1.2 9.4 1.8 9.05 M5.7 8.0 Q6.9 9.4 7.45 10.95 L8.25 10.4 Q8.05 8.7 6.7 7.8 L5.7 8.0" fill="#ffff99" fill-rule="evenodd" stroke="none"/>
  </g>
</svg>
