<?xml version="1.0" encoding="UTF-8" standalone="no"?>
<svg xmlns:ffdec="https://www.free-decompiler.com/flash" xmlns:xlink="http://www.w3.org/1999/xlink" ffdec:objectType="shape" height="37.45px" width="33.65px" xmlns="http://www.w3.org/2000/svg">
  <g transform="matrix(1.0, 0.0, 0.0, 1.0, 0.0, 0.0)">
    <path d="M21.0 7.45 Q26.75 5.0 29.9 0.8 32.3 -0.1 31.7 2.75 L26.4 7.55 Q23.35 10.55 20.45 10.45 19.3 8.55 21.0 7.45 M22.5 23.1 Q18.95 24.05 20.75 21.0 L26.95 17.5 Q30.55 14.6 30.9 11.15 33.35 9.1 33.05 12.6 32.75 14.6 30.9 16.45 27.65 20.15 22.5 23.1 M20.8 33.2 Q26.3 32.1 26.9 29.35 30.9 26.55 30.9 23.15 30.95 21.35 32.55 22.55 33.7 23.75 33.65 25.15 32.35 28.45 29.65 31.2 L21.3 35.7 Q18.55 36.8 20.8 33.2 M6.25 6.95 Q6.1 8.1 4.6 9.2 L16.2 9.2 Q16.9 7.65 14.25 6.95 L6.25 6.95 M4.8 4.7 L16.8 4.7 Q17.3 3.5 15.85 2.45 L4.8 2.45 Q3.95 3.85 4.8 4.7 M2.55 0.0 Q10.85 0.9 20.0 0.0 17.85 5.15 18.85 10.85 L10.9 10.85 Q10.15 12.7 11.75 14.0 16.2 14.75 20.35 14.0 19.85 15.95 20.35 17.1 10.0 15.95 0.6 17.1 1.0 15.2 3.15 14.35 L8.75 14.35 Q9.45 12.8 8.1 10.85 5.35 11.6 2.55 10.85 0.75 5.5 2.55 0.0 M5.35 21.7 L4.1 23.75 Q9.9 22.8 15.1 23.75 15.2 22.25 16.9 21.7 11.6 20.4 5.35 21.7 M5.3 28.5 Q8.95 27.95 6.35 30.0 3.35 32.25 1.85 35.8 -1.0 36.75 0.5 34.1 L5.3 28.5 M14.45 29.25 Q13.9 26.85 15.75 27.8 L17.35 33.65 Q16.85 36.5 15.8 33.35 L14.45 29.25 M2.15 18.95 Q10.45 18.05 19.2 18.9 17.65 22.45 18.5 26.0 15.7 25.2 12.7 26.0 13.3 30.2 11.75 34.6 11.15 36.35 9.7 37.45 8.6 36.25 5.55 36.2 L5.55 34.2 Q7.7 35.15 9.1 34.2 11.0 30.6 10.3 26.0 6.8 24.75 2.15 26.0 2.45 22.55 2.15 18.95" fill="#ffff99" fill-rule="evenodd" stroke="none"/>
  </g>
</svg>
