<?xml version="1.0" encoding="UTF-8" standalone="no"?>
<svg xmlns:xlink="http://www.w3.org/1999/xlink" height="12.85px" width="12.8px" xmlns="http://www.w3.org/2000/svg">
  <g transform="matrix(1.0, 0.0, 0.0, 1.0, 6.15, 8.1)">
    <path d="M3.55 -6.4 Q5.85 -4.65 6.05 -3.1 6.25 -1.6 6.0 -0.05 5.7 1.45 3.95 3.0 2.2 4.5 -0.05 4.2 -2.35 3.9 -3.8 2.4 -5.3 0.85 -5.5 -0.65 L-5.65 -2.85 Q-5.3 -6.6 -2.0 -7.35 1.25 -8.15 3.55 -6.4" fill="#3e4e5d" fill-rule="evenodd" stroke="none"/>
    <path d="M3.55 -6.4 Q1.25 -8.15 -2.0 -7.35 -5.3 -6.6 -5.65 -2.85 L-5.5 -0.65 Q-5.3 0.85 -3.8 2.4 -2.35 3.9 -0.05 4.2 2.2 4.5 3.95 3.0 5.7 1.45 6.0 -0.05 6.25 -1.6 6.05 -3.1 5.85 -4.65 3.55 -6.4 Z" fill="none" stroke="#24242c" stroke-linecap="round" stroke-linejoin="round" stroke-width="1.0"/>
  </g>
</svg>
