<?xml version="1.0" encoding="UTF-8" standalone="no"?>
<svg xmlns:ffdec="https://www.free-decompiler.com/flash" xmlns:xlink="http://www.w3.org/1999/xlink" ffdec:objectType="shape" height="3.95px" width="6.0px" xmlns="http://www.w3.org/2000/svg">
  <g transform="matrix(1.0, 0.0, 0.0, 1.0, 0.0, 0.0)">
    <path d="M3.25 0.65 Q2.85 0.5 3.2 0.45 L5.65 0.2 6.0 2.7 5.75 3.15 5.15 3.25 4.9 2.9 5.55 2.9 5.75 2.45 5.4 0.55 4.6 0.6 4.7 1.85 Q4.75 2.25 4.45 2.5 L3.85 3.5 Q3.6 3.25 3.8 2.9 L4.1 2.4 Q4.5 2.05 4.4 1.7 L4.25 0.65 3.25 0.65 M0.0 1.0 Q0.3 0.75 0.8 0.65 L2.7 0.45 Q2.95 0.45 2.95 0.6 L1.35 2.65 1.7 2.8 2.35 2.95 2.95 2.95 3.5 3.05 2.3 3.25 1.55 3.05 1.05 2.8 Q0.8 2.95 0.45 3.95 0.35 3.2 0.6 2.8 L2.5 0.85 0.0 1.0 M3.45 2.05 L3.7 1.0 Q3.85 0.7 3.9 1.15 L3.7 2.3 Q3.5 3.0 3.45 2.05 M1.2 0.15 L1.4 0.0 Q1.5 0.25 1.8 0.35 L1.45 0.3 1.2 0.15" fill="#ffff99" fill-rule="evenodd" stroke="none"/>
  </g>
</svg>
