<?xml version="1.0" encoding="UTF-8" standalone="no"?>
<svg xmlns:ffdec="https://www.free-decompiler.com/flash" xmlns:xlink="http://www.w3.org/1999/xlink" ffdec:objectType="shape" height="18.6px" width="33.95px" xmlns="http://www.w3.org/2000/svg">
  <g transform="matrix(1.0, 0.0, 0.0, 1.0, 1.1, 0.0)">
    <path d="M9.2 12.1 Q12.85 10.15 15.05 10.95 L18.35 12.2 Q17.7 12.95 15.9 13.5 17.7 12.95 18.35 12.2 L19.2 12.55 19.9 11.1 21.65 13.4 Q20.5 13.45 19.75 14.05 19.4 14.25 19.2 14.6 L19.15 14.6 15.9 13.5 14.65 13.5 Q11.2 13.25 9.2 12.1" fill="#410e0e" fill-rule="evenodd" stroke="none"/>
    <path d="M9.2 12.1 Q11.2 13.25 14.65 13.5 L15.9 13.5 Q17.7 12.95 18.35 12.2 M19.2 14.6 L19.15 14.6 15.9 13.5" fill="none" stroke="#250606" stroke-linecap="round" stroke-linejoin="round" stroke-width="1.0"/>
    <path d="M21.65 13.4 L22.6 14.55 24.7 15.45 Q25.45 16.65 28.35 16.9 27.0 18.25 25.9 18.1 L24.1 17.75 21.6 17.1 Q19.75 16.65 19.2 14.6 19.4 14.25 19.75 14.05 20.5 13.45 21.65 13.4" fill="url(#gradient0)" fill-rule="evenodd" stroke="none"/>
    <path d="M21.05 10.05 L23.85 9.4 Q25.8 9.0 29.0 10.65 32.15 12.3 32.35 15.45 31.3 14.5 29.7 13.9 L29.45 13.85 26.7 14.0 25.95 13.1 25.95 13.15 25.15 13.15 Q23.45 13.2 22.6 14.55 L21.65 13.4 19.9 11.1 20.25 10.4 21.05 10.05" fill="url(#gradient1)" fill-rule="evenodd" stroke="none"/>
    <path d="M21.05 10.05 L20.25 10.4 19.9 11.1 19.2 12.55 15.05 10.95 Q12.85 10.15 9.2 12.1 L8.15 12.65 Q3.55 11.2 0.8 8.3 -1.7 4.35 0.2 1.15 L10.65 0.7 Q14.0 2.15 17.75 5.95 L21.5 9.8 21.05 10.05" fill="url(#gradient2)" fill-rule="evenodd" stroke="none"/>
    <path d="M22.6 14.55 Q23.45 13.2 25.15 13.15 L25.95 13.15 25.95 13.1 26.7 14.0 29.45 13.85 29.7 13.9 Q31.3 14.5 32.35 15.45 32.15 12.3 29.0 10.65 25.8 9.0 23.85 9.4 L21.05 10.05 20.25 10.4 19.9 11.1 21.65 13.4 22.6 14.55 24.7 15.45 Q25.45 16.65 28.35 16.9 27.0 18.25 25.9 18.1 L24.1 17.75 21.6 17.1 Q19.75 16.65 19.2 14.6 19.4 14.25 19.75 14.05 20.5 13.45 21.65 13.4 M19.9 11.1 L19.2 12.55 15.05 10.95 Q12.85 10.15 9.2 12.1 L8.15 12.65 Q3.55 11.2 0.8 8.3 -1.7 4.35 0.2 1.15 L10.65 0.7 Q14.0 2.15 17.75 5.95 L21.5 9.8 21.05 10.05" fill="none" stroke="#040a2e" stroke-linecap="round" stroke-linejoin="round" stroke-width="1.0"/>
    <path d="M25.35 11.1 Q25.4 12.2 23.9 12.1 21.75 11.5 22.65 10.5 23.95 9.15 25.35 11.1 M5.35 8.7 Q7.75 7.75 9.2 10.2 8.9 11.55 6.7 10.85 4.0 9.35 5.35 8.7 M4.2 7.7 Q4.05 8.5 2.65 8.1 1.0 7.15 1.85 6.75 3.3 6.15 4.2 7.7 M2.9 5.75 Q2.8 6.3 1.8 6.0 0.55 5.35 1.2 5.05 2.25 4.6 2.9 5.75 M7.7 1.55 Q8.9 1.2 9.6 2.1 9.5 2.55 8.35 2.3 7.0 1.75 7.7 1.55 M18.15 9.0 Q18.85 10.35 16.95 9.65 14.2 8.15 14.7 7.5 15.6 6.55 18.15 9.0 M13.85 5.15 Q14.9 4.7 15.55 5.85 15.45 6.4 14.45 6.1 13.2 5.45 13.85 5.15" fill="#152569" fill-opacity="0.29803923" fill-rule="evenodd" stroke="none"/>
    <path d="M28.35 11.9 Q28.4 12.45 27.85 12.4 27.1 12.1 27.45 11.6 27.9 10.95 28.35 11.9" fill="#3c0707" fill-opacity="0.29803923" fill-rule="evenodd" stroke="none"/>
  </g>
  <defs>
    <radialGradient cx="0" cy="0" gradientTransform="matrix(0.0111, 0.0, 0.0, 0.0081, 20.25, 14.75)" gradientUnits="userSpaceOnUse" id="gradient0" r="819.2" spreadMethod="pad">
      <stop offset="0.0" stop-color="#3f65ff"/>
      <stop offset="0.5333333333333333" stop-color="#271bc4"/>
      <stop offset="1.0" stop-color="#b41108"/>
    </radialGradient>
    <radialGradient cx="0" cy="0" gradientTransform="matrix(0.0117, 0.0, 0.0, 0.0089, 21.65, 13.4)" gradientUnits="userSpaceOnUse" id="gradient1" r="819.2" spreadMethod="pad">
      <stop offset="0.0" stop-color="#3f65ff"/>
      <stop offset="0.5333333333333333" stop-color="#271bc4"/>
      <stop offset="1.0" stop-color="#b41108"/>
    </radialGradient>
    <radialGradient cx="0" cy="0" gradientTransform="matrix(0.0293, 0.0, 0.0, 0.0198, 5.3, 4.25)" gradientUnits="userSpaceOnUse" id="gradient2" r="819.2" spreadMethod="pad">
      <stop offset="0.0" stop-color="#2fd7c9"/>
      <stop offset="0.2627450980392157" stop-color="#3f65ff"/>
      <stop offset="0.5333333333333333" stop-color="#271bc4"/>
      <stop offset="1.0" stop-color="#b41108"/>
    </radialGradient>
  </defs>
</svg>
