<?xml version="1.0" encoding="UTF-8" standalone="no"?>
<svg xmlns:xlink="http://www.w3.org/1999/xlink" height="13.65px" width="11.75px" xmlns="http://www.w3.org/2000/svg">
  <g transform="matrix(1.0, 0.0, 0.0, 1.0, 6.6, 7.8)">
    <path d="M-0.35 -7.2 Q4.55 -6.65 4.65 -1.85 4.7 2.9 2.7 4.3 0.7 5.65 -1.65 5.3 -4.0 4.9 -5.25 2.5 -6.55 0.05 -5.9 -3.85 -5.25 -7.8 -0.35 -7.2" fill="#23232b" fill-rule="evenodd" stroke="none"/>
    <path d="M-0.35 -7.2 Q4.55 -6.65 4.65 -1.85 4.7 2.9 2.7 4.3 0.7 5.65 -1.65 5.3 -4.0 4.9 -5.25 2.5 -6.55 0.05 -5.9 -3.85 -5.25 -7.8 -0.35 -7.2 Z" fill="none" stroke="#0e0f13" stroke-linecap="round" stroke-linejoin="round" stroke-width="1.0"/>
  </g>
</svg>
