<?xml version="1.0" encoding="UTF-8" standalone="no"?>
<svg xmlns:ffdec="https://www.free-decompiler.com/flash" xmlns:xlink="http://www.w3.org/1999/xlink" ffdec:objectType="shape" height="24.75px" width="12.35px" xmlns="http://www.w3.org/2000/svg">
  <g transform="matrix(1.0, 0.0, 0.0, 1.0, -5.05, -1.55)">
    <path d="M14.8 22.55 Q14.95 23.9 14.25 24.75 L13.85 25.25 Q13.3 25.8 12.5 25.8 11.5 25.95 10.85 25.15 L10.7 25.0 Q9.95 24.2 9.8 22.9 9.7 21.55 10.4 20.6 11.05 19.65 12.1 19.55 13.25 19.5 14.0 20.35 14.75 21.3 14.8 22.55" fill="#191919" fill-rule="evenodd" stroke="none"/>
    <path d="M14.8 22.55 Q14.95 23.9 14.25 24.75 L13.85 25.25 Q13.3 25.8 12.5 25.8 11.5 25.95 10.85 25.15 L10.7 25.0 Q9.95 24.2 9.8 22.9 9.7 21.55 10.4 20.6 11.05 19.65 12.1 19.55 13.25 19.5 14.0 20.35 14.75 21.3 14.8 22.55 Z" fill="none" stroke="#121212" stroke-linecap="round" stroke-linejoin="round" stroke-width="1.0"/>
    <path d="M9.65 20.05 L9.45 19.6 Q9.45 19.35 9.6 19.15 9.8 18.95 10.05 18.9 L10.45 19.1 10.7 19.55 10.5 20.0 10.1 20.2 9.65 20.05" fill="#ff0000" fill-rule="evenodd" stroke="none"/>
    <path d="M7.1 4.25 L6.85 4.05 7.1 4.25 M15.0 3.7 L14.7 3.55 15.0 3.7 M8.15 17.95 L6.8 16.3 Q5.0 8.5 5.75 2.95 10.8 1.45 15.9 2.4 17.35 8.6 16.65 15.45 L15.6 17.35 11.8 17.0 Q9.9 17.1 8.2 17.85 L8.15 17.95 M8.45 15.8 L8.2 15.65 8.45 15.8 M15.25 15.6 L15.0 15.45 15.25 15.6 M8.05 5.9 L9.0 13.0 14.4 12.65 14.4 5.65 8.05 5.9" fill="url(#gradient0)" fill-rule="evenodd" stroke="none"/>
    <path d="M15.6 17.35 L16.05 17.55 16.15 17.6 Q16.8 19.0 16.35 20.35 L15.6 21.5 Q14.05 21.35 12.1 21.45 L9.15 21.8 Q8.3 21.05 8.0 20.15 7.8 19.5 7.95 18.9 L8.15 17.95 8.2 17.85 Q9.9 17.1 11.8 17.0 L15.6 17.35 M9.65 20.05 L10.1 20.2 10.5 20.0 10.7 19.55 10.45 19.1 10.05 18.9 Q9.8 18.95 9.6 19.15 9.45 19.35 9.45 19.6 L9.65 20.05" fill="url(#gradient1)" fill-rule="evenodd" stroke="none"/>
    <path d="M8.05 5.9 L14.4 5.65 14.4 12.65 9.0 13.0 8.05 5.9" fill="url(#gradient2)" fill-rule="evenodd" stroke="none"/>
    <path d="M8.15 17.95 L6.8 16.3 Q5.0 8.5 5.75 2.95 10.8 1.45 15.9 2.4 17.35 8.6 16.65 15.45 L15.6 17.35 16.05 17.55 16.15 17.6 Q16.8 19.0 16.35 20.35 L15.6 21.5 Q14.05 21.35 12.1 21.45 L9.15 21.8 Q8.3 21.05 8.0 20.15 7.8 19.5 7.95 18.9 L8.15 17.95 8.2 17.85 Q9.9 17.1 11.8 17.0 L15.6 17.35" fill="none" stroke="#12100f" stroke-linecap="round" stroke-linejoin="round" stroke-width="1.0"/>
    <path d="M8.05 5.9 L14.4 5.65 14.4 12.65 9.0 13.0 8.05 5.9" fill="none" stroke="#230000" stroke-linecap="round" stroke-linejoin="round" stroke-width="1.0"/>
    <path d="M14.7 3.55 L15.0 3.7 M6.85 4.05 L7.1 4.25 M8.2 15.65 L8.45 15.8 M15.0 15.45 L15.25 15.6" fill="none" stroke="#151515" stroke-linecap="round" stroke-linejoin="round" stroke-width="1.0"/>
  </g>
  <defs>
    <radialGradient cx="0" cy="0" fx="57.6" fy="0" gradientTransform="matrix(0.0107, 0.0038, -0.0038, 0.0107, 12.85, 7.7)" gradientUnits="userSpaceOnUse" id="gradient0" r="819.2" spreadMethod="pad">
      <stop offset="0.0" stop-color="#484848"/>
      <stop offset="0.4470588235294118" stop-color="#2a2a2a"/>
      <stop offset="1.0" stop-color="#171717"/>
      <stop offset="1.0" stop-color="#383838"/>
    </radialGradient>
    <radialGradient cx="0" cy="0" fx="192.0" fy="0" gradientTransform="matrix(0.0053, 0.0019, -0.0019, 0.0053, 13.7, 19.25)" gradientUnits="userSpaceOnUse" id="gradient1" r="819.2" spreadMethod="pad">
      <stop offset="0.0" stop-color="#38322f"/>
      <stop offset="1.0" stop-color="#1e1b19"/>
      <stop offset="1.0" stop-color="#383838"/>
      <stop offset="1.0" stop-color="#2a2a2a"/>
    </radialGradient>
    <linearGradient gradientTransform="matrix(0.0, 0.0054, -0.0048, 0.0, 12.3, 8.45)" gradientUnits="userSpaceOnUse" id="gradient2" spreadMethod="pad" x1="-819.2" x2="819.2">
      <stop offset="0.0" stop-color="#232323"/>
      <stop offset="0.0" stop-color="#383838"/>
      <stop offset="0.0" stop-color="#f50000"/>
      <stop offset="1.0" stop-color="#430101"/>
      <stop offset="1.0" stop-color="#1e1e1e"/>
    </linearGradient>
  </defs>
</svg>
