<?xml version="1.0" encoding="UTF-8" standalone="no"?>
<svg xmlns:ffdec="https://www.free-decompiler.com/flash" xmlns:xlink="http://www.w3.org/1999/xlink" ffdec:objectType="shape" height="45.15px" width="36.05px" xmlns="http://www.w3.org/2000/svg">
  <g transform="matrix(1.0, 0.0, 0.0, 1.0, 19.65, 27.7)">
    <path d="M16.3 -0.65 Q16.95 8.5 12.2 13.65 7.4 18.8 0.05 16.95 -7.35 15.0 -13.15 7.15 -18.85 -0.65 -19.55 -9.7 -20.2 -18.9 -15.4 -24.0 -10.65 -29.1 -3.25 -27.15 4.2 -25.4 9.85 -17.65 15.6 -9.85 16.3 -0.65" fill="url(#gradient0)" fill-rule="evenodd" stroke="none"/>
    <path d="M-6.3 -20.25 L-0.15 -5.55 Q2.35 0.85 6.05 7.25 2.85 7.5 -0.35 2.55 -3.5 -2.35 -4.75 -7.4 L-8.75 -19.25 -6.3 -20.25" fill="#ffffff" fill-rule="evenodd" stroke="none"/>
    <path d="M-6.3 -20.25 L-8.75 -19.25 -4.75 -7.4 Q-3.5 -2.35 -0.35 2.55 2.85 7.5 6.05 7.25 2.35 0.85 -0.15 -5.55 L-6.3 -20.25 Z" fill="none" stroke="#cccccc" stroke-linecap="round" stroke-linejoin="round" stroke-width="1.0"/>
  </g>
  <defs>
    <radialGradient cx="0" cy="0" gradientTransform="matrix(-0.0182, 0.0082, -0.0124, -0.0264, -1.55, -5.2)" gradientUnits="userSpaceOnUse" id="gradient0" r="819.2" spreadMethod="pad">
      <stop offset="0.33725490196078434" stop-color="#ffffff" stop-opacity="0.3019608"/>
      <stop offset="1.0" stop-color="#ffffff" stop-opacity="0.0"/>
    </radialGradient>
  </defs>
</svg>
