<?xml version="1.0" encoding="UTF-8" standalone="no"?>
<svg xmlns:ffdec="https://www.free-decompiler.com/flash" xmlns:xlink="http://www.w3.org/1999/xlink" ffdec:objectType="shape" height="62.25px" width="74.15px" xmlns="http://www.w3.org/2000/svg">
  <g transform="matrix(1.0, 0.0, 0.0, 1.0, 15.15, 16.6)">
    <path d="M44.9 -13.55 Q56.95 -8.7 58.75 0.95 60.5 10.55 51.0 19.4 41.5 28.25 26.25 31.05 11.05 33.85 -1.05 29.0 -13.1 24.15 -14.85 14.55 -16.65 4.9 -7.15 -3.95 2.45 -12.8 17.65 -15.6 32.9 -18.4 44.9 -13.55" fill="url(#gradient0)" fill-rule="evenodd" stroke="none"/>
    <path d="M33.35 -2.6 Q47.15 4.4 53.7 15.55 60.4 26.7 56.0 35.45 51.55 44.15 38.55 45.45 25.7 46.7 11.85 39.65 -2.0 32.65 -8.65 21.5 -15.2 10.3 -10.8 1.55 -6.4 -7.2 6.55 -8.4 19.5 -9.6 33.35 -2.6" fill="url(#gradient1)" fill-rule="evenodd" stroke="none"/>
    <path d="M7.1 -1.3 Q16.2 -6.3 22.95 -7.55 29.65 -8.75 34.35 -7.05 37.9 -5.65 39.4 -2.55 36.05 -4.15 32.7 -3.1 L31.6 -0.5 28.3 -1.7 25.95 0.9 23.3 0.05 20.45 2.45 17.6 1.5 13.8 4.8 12.35 10.0 5.8 13.3 Q3.0 10.1 -2.0 8.35 0.95 2.65 7.1 -1.3 M2.95 13.1 L8.7 15.75 10.3 18.95 13.5 19.05 14.25 21.35 17.65 21.65 18.6 23.9 24.2 24.05 Q25.7 25.7 30.75 27.95 L21.2 28.8 Q10.35 24.85 2.2 17.6 3.35 15.75 2.95 13.1" fill="#ffffff" fill-rule="evenodd" stroke="none"/>
    <path d="M7.1 -1.3 Q0.95 2.65 -2.0 8.35 3.0 10.1 5.8 13.3 L12.35 10.0 13.8 4.8 17.6 1.5 20.45 2.45 23.3 0.05 25.95 0.9 28.3 -1.7 31.6 -0.5 32.7 -3.1 Q36.05 -4.15 39.4 -2.55 37.9 -5.65 34.35 -7.05 29.65 -8.75 22.95 -7.55 16.2 -6.3 7.1 -1.3 M2.95 13.1 L8.7 15.75 10.3 18.95 13.5 19.05 14.25 21.35 17.65 21.65 18.6 23.9 24.2 24.05 Q25.7 25.7 30.75 27.95 L21.2 28.8 Q10.35 24.85 2.2 17.6 3.35 15.75 2.95 13.1 Z" fill="none" stroke="#cccccc" stroke-linecap="round" stroke-linejoin="round" stroke-width="1.0"/>
  </g>
  <defs>
    <radialGradient cx="0" cy="0" gradientTransform="matrix(0.0408, -0.0075, 0.0046, 0.0252, 21.9, 7.65)" gradientUnits="userSpaceOnUse" id="gradient0" r="819.2" spreadMethod="pad">
      <stop offset="0.0" stop-color="#ffffff"/>
      <stop offset="1.0" stop-color="#ffffff" stop-opacity="0.0"/>
      <stop offset="1.0" stop-color="#ffffff" stop-opacity="0.0"/>
    </radialGradient>
    <radialGradient cx="0" cy="0" gradientTransform="matrix(0.037, 0.0188, -0.0116, 0.0228, 22.5, 18.4)" gradientUnits="userSpaceOnUse" id="gradient1" r="819.2" spreadMethod="pad">
      <stop offset="0.0" stop-color="#ffffff"/>
      <stop offset="1.0" stop-color="#ffffff" stop-opacity="0.0"/>
      <stop offset="1.0" stop-color="#ffffff" stop-opacity="0.0"/>
    </radialGradient>
  </defs>
</svg>
