<?xml version="1.0" encoding="UTF-8" standalone="no"?>
<svg xmlns:ffdec="https://www.free-decompiler.com/flash" xmlns:xlink="http://www.w3.org/1999/xlink" ffdec:objectType="shape" height="4.4px" width="12.95px" xmlns="http://www.w3.org/2000/svg">
  <g transform="matrix(1.0, 0.0, 0.0, 1.0, -9.05, -10.5)">
    <path d="M9.55 11.9 Q13.2 9.95 15.4 10.75 L18.7 12.0 Q18.05 12.75 16.25 13.3 18.05 12.75 18.7 12.0 L19.55 12.35 20.25 10.9 22.0 13.2 Q20.85 13.25 20.1 13.85 19.75 14.05 19.55 14.4 L19.5 14.4 16.25 13.3 15.0 13.3 Q11.55 13.05 9.55 11.9" fill="#410e0e" fill-rule="evenodd" stroke="none"/>
    <path d="M9.55 11.9 Q11.55 13.05 15.0 13.3 L16.25 13.3 Q18.05 12.75 18.7 12.0 M19.55 14.4 L19.5 14.4 16.25 13.3" fill="none" stroke="#250606" stroke-linecap="round" stroke-linejoin="round" stroke-width="1.0"/>
  </g>
</svg>
