<?xml version="1.0" encoding="UTF-8" standalone="no"?>
<svg xmlns:ffdec="https://www.free-decompiler.com/flash" xmlns:xlink="http://www.w3.org/1999/xlink" ffdec:objectType="shape" height="18.6px" width="33.95px" xmlns="http://www.w3.org/2000/svg">
  <g transform="matrix(1.0, 0.0, 0.0, 1.0, 0.5, 0.5)">
    <path d="M21.65 9.55 L24.45 8.9 Q26.4 8.5 29.6 10.15 32.75 11.8 32.95 14.95 31.9 14.0 30.3 13.4 L30.05 13.35 27.3 13.5 26.55 12.6 26.55 12.65 25.75 12.65 Q24.05 12.7 23.2 14.05 L22.25 12.9 20.5 10.6 20.85 9.9 21.65 9.55" fill="url(#gradient0)" fill-rule="evenodd" stroke="none"/>
    <path d="M21.65 9.55 L20.85 9.9 20.5 10.6 19.8 12.05 15.65 10.45 Q13.45 9.65 9.8 11.6 L8.75 12.15 Q4.15 10.7 1.4 7.8 -1.1 3.85 0.8 0.65 L11.25 0.2 Q14.6 1.65 18.35 5.45 L22.1 9.3 21.65 9.55" fill="url(#gradient1)" fill-rule="evenodd" stroke="none"/>
    <path d="M22.25 12.9 L23.2 14.05 25.3 14.95 Q26.05 16.15 28.95 16.4 27.6 17.75 26.5 17.6 L24.7 17.25 22.2 16.6 Q20.35 16.15 19.8 14.1 20.0 13.75 20.35 13.55 21.1 12.95 22.25 12.9" fill="url(#gradient2)" fill-rule="evenodd" stroke="none"/>
    <path d="M23.2 14.05 Q24.05 12.7 25.75 12.65 L26.55 12.65 26.55 12.6 27.3 13.5 30.05 13.35 30.3 13.4 Q31.9 14.0 32.95 14.95 32.75 11.8 29.6 10.15 26.4 8.5 24.45 8.9 L21.65 9.55 20.85 9.9 20.5 10.6 22.25 12.9 23.2 14.05 25.3 14.95 Q26.05 16.15 28.95 16.4 27.6 17.75 26.5 17.6 L24.7 17.25 22.2 16.6 Q20.35 16.15 19.8 14.1 20.0 13.75 20.35 13.55 21.1 12.95 22.25 12.9 M20.5 10.6 L19.8 12.05 15.65 10.45 Q13.45 9.65 9.8 11.6 L8.75 12.15 Q4.15 10.7 1.4 7.8 -1.1 3.85 0.8 0.65 L11.25 0.2 Q14.6 1.65 18.35 5.45 L22.1 9.3 21.65 9.55" fill="none" stroke="#040a2e" stroke-linecap="round" stroke-linejoin="round" stroke-width="1.0"/>
    <path d="M25.95 10.6 Q26.0 11.7 24.5 11.6 22.35 11.0 23.25 10.0 24.55 8.65 25.95 10.6 M5.95 8.2 Q8.35 7.25 9.8 9.7 9.5 11.05 7.3 10.35 4.6 8.85 5.95 8.2 M4.8 7.2 Q4.65 8.0 3.25 7.6 1.6 6.65 2.45 6.25 3.9 5.65 4.8 7.2 M3.5 5.25 Q3.4 5.8 2.4 5.5 1.15 4.85 1.8 4.55 2.85 4.1 3.5 5.25 M8.3 1.05 Q9.5 0.7 10.2 1.6 10.1 2.05 8.95 1.8 7.6 1.25 8.3 1.05 M18.75 8.5 Q19.45 9.85 17.55 9.15 14.8 7.65 15.3 7.0 16.2 6.05 18.75 8.5 M14.45 4.65 Q15.5 4.2 16.15 5.35 16.05 5.9 15.05 5.6 13.8 4.95 14.45 4.65" fill="#152569" fill-opacity="0.29803923" fill-rule="evenodd" stroke="none"/>
    <path d="M28.95 11.4 Q29.0 11.95 28.45 11.9 27.7 11.6 28.05 11.1 28.5 10.45 28.95 11.4" fill="#3c0707" fill-opacity="0.29803923" fill-rule="evenodd" stroke="none"/>
  </g>
  <defs>
    <radialGradient cx="0" cy="0" gradientTransform="matrix(0.0117, 0.0, 0.0, 0.0089, 22.25, 12.9)" gradientUnits="userSpaceOnUse" id="gradient0" r="819.2" spreadMethod="pad">
      <stop offset="0.0" stop-color="#3f65ff"/>
      <stop offset="0.5333333333333333" stop-color="#271bc4"/>
      <stop offset="1.0" stop-color="#b41108"/>
    </radialGradient>
    <radialGradient cx="0" cy="0" gradientTransform="matrix(0.0293, 0.0, 0.0, 0.0198, 5.9, 3.75)" gradientUnits="userSpaceOnUse" id="gradient1" r="819.2" spreadMethod="pad">
      <stop offset="0.0" stop-color="#2fd7c9"/>
      <stop offset="0.2627450980392157" stop-color="#3f65ff"/>
      <stop offset="0.5333333333333333" stop-color="#271bc4"/>
      <stop offset="1.0" stop-color="#b41108"/>
    </radialGradient>
    <radialGradient cx="0" cy="0" gradientTransform="matrix(0.0111, 0.0, 0.0, 0.0081, 20.85, 14.25)" gradientUnits="userSpaceOnUse" id="gradient2" r="819.2" spreadMethod="pad">
      <stop offset="0.0" stop-color="#3f65ff"/>
      <stop offset="0.5333333333333333" stop-color="#271bc4"/>
      <stop offset="1.0" stop-color="#b41108"/>
    </radialGradient>
  </defs>
</svg>
