<?xml version="1.0" encoding="UTF-8" standalone="no"?>
<svg xmlns:ffdec="https://www.free-decompiler.com/flash" xmlns:xlink="http://www.w3.org/1999/xlink" ffdec:objectType="shape" height="52.7px" width="71.5px" xmlns="http://www.w3.org/2000/svg">
  <g transform="matrix(1.0, 0.0, 0.0, 1.0, 13.6, 8.95)">
    <path d="M31.55 -4.5 Q45.8 1.7 53.0 12.35 60.45 23.0 56.55 32.1 52.7 41.05 39.8 43.2 27.1 45.3 12.85 39.15 -1.45 33.05 -8.75 22.35 -16.15 11.6 -12.25 2.55 -8.4 -6.45 4.45 -8.45 17.25 -10.5 31.55 -4.5" fill="url(#gradient0)" fill-rule="evenodd" stroke="none"/>
    <path d="M7.1 -1.3 Q16.2 -6.3 22.95 -7.55 29.65 -8.75 34.35 -7.05 37.9 -5.65 39.4 -2.55 36.05 -4.15 32.7 -3.1 L31.6 -0.5 28.3 -1.7 25.95 0.9 23.3 0.05 20.45 2.45 17.6 1.5 13.8 4.8 12.35 10.0 5.8 13.3 Q3.0 10.1 -2.0 8.35 0.95 2.65 7.1 -1.3 M2.95 13.1 L8.7 15.75 10.3 18.95 13.5 19.05 14.25 21.35 17.65 21.65 18.6 23.9 24.2 24.05 Q25.7 25.7 30.75 27.95 L21.2 28.8 Q10.35 24.85 2.2 17.6 3.35 15.75 2.95 13.1" fill="#ffffff" fill-rule="evenodd" stroke="none"/>
    <path d="M7.1 -1.3 Q0.95 2.65 -2.0 8.35 3.0 10.1 5.8 13.3 L12.35 10.0 13.8 4.8 17.6 1.5 20.45 2.45 23.3 0.05 25.95 0.9 28.3 -1.7 31.6 -0.5 32.7 -3.1 Q36.05 -4.15 39.4 -2.55 37.9 -5.65 34.35 -7.05 29.65 -8.75 22.95 -7.55 16.2 -6.3 7.1 -1.3 M2.95 13.1 L8.7 15.75 10.3 18.95 13.5 19.05 14.25 21.35 17.65 21.65 18.6 23.9 24.2 24.05 Q25.7 25.7 30.75 27.95 L21.2 28.8 Q10.35 24.85 2.2 17.6 3.35 15.75 2.95 13.1 Z" fill="none" stroke="#cccccc" stroke-linecap="round" stroke-linejoin="round" stroke-width="1.0"/>
  </g>
  <defs>
    <radialGradient cx="0" cy="0" gradientTransform="matrix(0.0381, 0.0163, -0.0101, 0.0235, 21.95, 17.15)" gradientUnits="userSpaceOnUse" id="gradient0" r="819.2" spreadMethod="pad">
      <stop offset="0.0" stop-color="#ffffff"/>
      <stop offset="1.0" stop-color="#ffffff" stop-opacity="0.0"/>
      <stop offset="1.0" stop-color="#ffffff" stop-opacity="0.0"/>
    </radialGradient>
  </defs>
</svg>
