<?xml version="1.0" encoding="UTF-8" standalone="no"?>
<svg xmlns:ffdec="https://www.free-decompiler.com/flash" xmlns:xlink="http://www.w3.org/1999/xlink" ffdec:objectType="shape" height="23.0px" width="14.95px" xmlns="http://www.w3.org/2000/svg">
  <g transform="matrix(1.0, 0.0, 0.0, 1.0, 8.9, 3.1)">
    <path d="M-8.3 8.15 Q-8.2 6.75 -7.75 6.1 -7.4 5.55 -7.45 4.85 L-6.2 2.55 -5.55 1.75 -4.35 0.8 Q-2.8 -0.2 -1.25 -0.3 L0.9 0.15 2.2 0.7 2.2 3.35 Q2.05 6.7 1.4 10.35 1.0 11.3 1.55 13.0 1.95 14.4 1.55 14.45 L0.85 14.75 Q0.65 14.95 0.45 15.9 0.5 17.4 0.9 18.65 -0.7 19.5 -4.05 19.4 L-7.05 19.15 Q-6.85 17.3 -7.0 16.35 L-7.35 14.65 -7.65 13.65 Q-7.7 12.75 -8.3 11.65 -8.6 11.05 -8.0 10.5 -7.55 10.1 -7.75 9.6 L-8.3 8.15" fill="#444444" fill-rule="evenodd" stroke="none"/>
    <path d="M-8.3 8.15 L-7.75 9.6 Q-7.55 10.1 -8.0 10.5 -8.6 11.05 -8.3 11.65 -7.7 12.75 -7.65 13.65 L-7.35 14.65 -7.0 16.35 Q-6.85 17.3 -7.05 19.15 L-4.05 19.4 Q-0.7 19.5 0.9 18.65 0.5 17.4 0.45 15.9 0.65 14.95 0.85 14.75 L1.55 14.45 Q1.95 14.4 1.55 13.0 1.0 11.3 1.4 10.35 2.05 6.7 2.2 3.35 L2.2 0.7 0.9 0.15 -1.25 -0.3 Q-2.8 -0.2 -4.35 0.8 L-5.55 1.75 -6.2 2.55 -7.45 4.85 Q-7.4 5.55 -7.75 6.1 -8.2 6.75 -8.3 8.15 Z" fill="none" stroke="#1a1a1a" stroke-linecap="round" stroke-linejoin="round" stroke-width="1.05"/>
    <path d="M-1.55 10.35 Q-3.4 10.2 -4.35 9.2 -5.5 7.95 -6.45 7.7 L-4.7 7.45 Q-2.8 6.85 -2.15 4.8 -1.75 4.2 -2.0 3.8 L-2.75 3.2 Q-3.95 2.35 -3.0 0.55" fill="none" stroke="#1a1a1a" stroke-linecap="round" stroke-linejoin="round" stroke-width="1.05"/>
    <path d="M4.2 -2.05 Q5.15 -1.3 5.45 -0.15 5.75 0.95 5.2 2.55 L4.5 5.3 Q4.35 6.7 3.5 7.4 L2.7 7.8 1.9 4.45 Q1.6 3.0 2.45 0.05 L3.3 -2.6 4.2 -2.05" fill="#323232" fill-rule="evenodd" stroke="none"/>
    <path d="M4.2 -2.05 Q5.15 -1.3 5.45 -0.15 5.75 0.95 5.2 2.55 L4.5 5.3 Q4.35 6.7 3.5 7.4 L2.7 7.8 1.9 4.45 Q1.6 3.0 2.45 0.05 L3.3 -2.6 4.2 -2.05 Z" fill="none" stroke="#1a1a1a" stroke-linecap="round" stroke-linejoin="round" stroke-width="1.05"/>
    <path d="M-7.6 5.0 L-7.1 3.6 2.05 3.55 2.15 5.0 -7.6 5.0" fill="#131313" fill-rule="evenodd" stroke="none"/>
    <path d="M-7.6 5.0 L2.15 5.0 2.05 3.55 -7.1 3.6 -7.6 5.0 Z" fill="none" stroke="#131313" stroke-linecap="round" stroke-linejoin="round" stroke-width="1.05"/>
    <path d="M2.75 -0.85 L2.5 0.5 -5.1 0.75 -5.65 -0.7 2.75 -0.85" fill="#131313" fill-rule="evenodd" stroke="none"/>
    <path d="M2.75 -0.85 L-5.65 -0.7 -5.1 0.75 2.5 0.5 2.75 -0.85 Z" fill="none" stroke="#131313" stroke-linecap="round" stroke-linejoin="round" stroke-width="1.05"/>
    <path d="M-5.8 13.75 Q-3.85 15.25 -1.45 15.05" fill="none" stroke="#1a1a1a" stroke-linecap="round" stroke-linejoin="round" stroke-width="1.05"/>
    <path d="M-3.2 17.1 L-7.2 17.1 Q-7.1 16.55 -7.3 16.0 L0.7 16.55 -3.2 17.1" fill="#131313" fill-rule="evenodd" stroke="none"/>
    <path d="M-3.2 17.1 L-7.2 17.1 Q-7.1 16.55 -7.3 16.0 L0.7 16.55 -3.2 17.1 Z" fill="none" stroke="#131313" stroke-linecap="round" stroke-linejoin="round" stroke-width="1.05"/>
  </g>
</svg>
