<?xml version="1.0" encoding="UTF-8" standalone="no"?>
<svg xmlns:ffdec="https://www.free-decompiler.com/flash" xmlns:xlink="http://www.w3.org/1999/xlink" ffdec:objectType="shape" height="35.0px" width="17.65px" xmlns="http://www.w3.org/2000/svg">
  <g transform="matrix(1.0, 0.0, 0.0, 1.0, -0.9, -0.9)">
    <path d="M10.1 13.6 L10.15 13.85 14.3 26.25 15.15 28.6 17.1 33.8 17.5 34.5 13.65 32.8 13.35 32.4 Q12.05 30.45 10.5 26.0 8.85 21.35 6.85 13.9 L7.35 13.85 10.1 13.6 M17.5 34.5 L13.35 32.4 13.05 31.55 Q9.5 23.2 7.35 13.85 9.5 23.2 13.05 31.55 L13.35 32.4 17.5 34.5" fill="url(#gradient0)" fill-rule="evenodd" stroke="none"/>
    <path d="M4.25 5.75 L5.75 5.15 5.25 3.95 6.75 3.3 9.3 10.65 7.8 10.85 7.35 12.2 5.5 12.95 5.45 13.0 5.15 11.25 5.9 10.95 5.95 9.7 4.95 9.15 4.25 5.75" fill="#1b1e13" fill-rule="evenodd" stroke="none"/>
    <path d="M4.25 5.75 L3.6 4.15 1.4 3.15 2.65 1.5 6.15 1.4 6.8 3.3 6.75 3.3 5.25 3.95 5.75 5.15 4.25 5.75 M9.3 10.65 L9.75 10.6 11.25 12.0 11.2 13.5 10.1 13.6 7.35 13.85 6.85 13.9 5.3 14.05 5.45 13.0 5.5 12.95 7.35 12.2 7.8 10.85 9.3 10.65" fill="#282c1f" fill-rule="evenodd" stroke="none"/>
    <path d="M7.35 13.85 Q9.5 23.2 13.05 31.55 L13.35 32.4 17.5 34.5" fill="none" stroke="#666666" stroke-linecap="round" stroke-linejoin="round" stroke-width="1.0"/>
    <path d="M4.25 5.75 L4.95 9.15 5.95 9.7 5.9 10.95 5.15 11.25 5.45 13.0 M9.3 10.65 L6.75 3.3" fill="none" stroke="#0e0e0e" stroke-linecap="round" stroke-linejoin="round" stroke-width="1.0"/>
    <path d="M10.1 13.6 L10.15 13.85 14.3 26.25 15.15 28.6 Q16.85 33.0 18.05 35.4 L13.05 33.3 Q12.2 31.5 10.5 26.0 8.85 21.35 6.85 13.9" fill="none" stroke="#000000" stroke-linecap="round" stroke-linejoin="round" stroke-width="1.0"/>
    <path d="M6.8 3.3 L6.15 1.4 2.65 1.5 1.4 3.15 3.6 4.15 4.25 5.75 5.75 5.15 5.25 3.95 6.75 3.3 6.8 3.3 M5.45 13.0 L5.5 12.95 7.35 12.2 7.8 10.85 9.3 10.65 9.75 10.6 11.25 12.0 11.2 13.5 10.1 13.6 6.85 13.9 5.3 14.05 5.45 13.0 Z" fill="none" stroke="#191e01" stroke-linecap="round" stroke-linejoin="round" stroke-width="1.0"/>
  </g>
  <defs>
    <radialGradient cx="0" cy="0" fx="192.0" fy="0" gradientTransform="matrix(-0.0029, 9.0E-4, -0.0066, -0.0207, 10.35, 20.8)" gradientUnits="userSpaceOnUse" id="gradient0" r="819.2" spreadMethod="pad">
      <stop offset="0.0" stop-color="#000000"/>
      <stop offset="0.0" stop-color="#232323"/>
      <stop offset="0.0" stop-color="#383838"/>
      <stop offset="1.0" stop-color="#101010"/>
      <stop offset="1.0" stop-color="#1e1e1e"/>
    </radialGradient>
  </defs>
</svg>
