<?xml version="1.0" encoding="UTF-8" standalone="no"?>
<svg xmlns:xlink="http://www.w3.org/1999/xlink" height="29.2px" width="23.6px" xmlns="http://www.w3.org/2000/svg">
  <g transform="matrix(1.0, 0.0, 0.0, 1.0, 15.2, 29.05)">
    <path d="M-5.7 -8.45 Q-6.05 -10.3 -6.5 -11.55 -7.15 -13.4 -7.3 -17.25 -7.5 -21.7 -6.55 -23.7 -4.0 -28.9 -0.8 -28.05 1.7 -27.4 3.2 -26.05 L5.95 -22.5 Q7.15 -20.55 7.0 -17.5 6.95 -15.1 5.95 -11.65 5.7 -10.85 5.65 -8.65 L5.65 -8.45 -5.7 -8.45" fill="url(#gradient0)" fill-rule="evenodd" stroke="none"/>
    <path d="M5.65 -8.45 L5.6 -6.25 Q5.4 -3.15 4.1 -2.3 3.3 -1.8 0.2 -1.85 -2.95 -1.85 -3.8 -2.45 -4.25 -2.75 -4.45 -3.6 L-4.7 -5.05 -5.45 -7.65 -5.7 -8.45 5.65 -8.45" fill="url(#gradient1)" fill-rule="evenodd" stroke="none"/>
    <path d="M-5.7 -8.45 Q-6.05 -10.3 -6.5 -11.55 -7.15 -13.4 -7.3 -17.25 -7.5 -21.7 -6.55 -23.7 -4.0 -28.9 -0.8 -28.05 1.7 -27.4 3.2 -26.05 L5.95 -22.5 Q7.15 -20.55 7.0 -17.5 6.95 -15.1 5.95 -11.65 5.7 -10.85 5.65 -8.65 L5.65 -8.45 5.6 -6.25 Q5.4 -3.15 4.1 -2.3 3.3 -1.8 0.2 -1.85 -2.95 -1.85 -3.8 -2.45 -4.25 -2.75 -4.45 -3.6 L-4.7 -5.05 -5.45 -7.65 -5.7 -8.45 Z" fill="none" stroke="#282f2e" stroke-linecap="round" stroke-linejoin="round" stroke-width="1.05"/>
    <path d="M-3.5 -8.9 Q-3.8 -7.25 -2.75 -5.25 L-1.7 -3.6" fill="none" stroke="#434b40" stroke-linecap="round" stroke-linejoin="round" stroke-width="1.05"/>
    <path d="M3.8 -10.75 Q2.7 -11.2 1.6 -12.2 L0.7 -13.2" fill="none" stroke="#434b40" stroke-linecap="round" stroke-linejoin="round" stroke-width="1.05"/>
    <path d="M-4.35 -19.75 Q-3.25 -18.6 -0.85 -18.35 L1.3 -18.3" fill="none" stroke="#434b40" stroke-linecap="round" stroke-linejoin="round" stroke-width="1.05"/>
    <path d="M5.75 -3.35 L5.6 -1.4 0.15 -1.0 -2.95 -1.45 -4.85 -1.9 -5.2 -3.9 -2.8 -3.35 1.3 -2.8 5.75 -3.35" fill="#3b3b3b" fill-rule="evenodd" stroke="none"/>
    <path d="M5.75 -3.35 L1.3 -2.8 -2.8 -3.35 -5.2 -3.9 -4.85 -1.9 -2.95 -1.45 0.15 -1.0 5.6 -1.4 5.75 -3.35 Z" fill="none" stroke="#222222" stroke-linecap="round" stroke-linejoin="round" stroke-width="1.05"/>
    <path d="M-6.15 -4.1 L-3.35 -3.9 -3.65 -0.35 -6.4 -0.6 -6.15 -4.1" fill="#3b3b3b" fill-rule="evenodd" stroke="none"/>
    <path d="M-6.15 -4.1 L-3.35 -3.9 -3.65 -0.35 -6.4 -0.6 -6.15 -4.1 Z" fill="none" stroke="#222222" stroke-linecap="round" stroke-linejoin="round" stroke-width="1.05"/>
    <path d="M-8.0 -15.4 Q-8.6 -21.85 -6.95 -24.85 -5.85 -26.6 -4.1 -27.55 -2.6 -28.35 -0.85 -28.55 -0.25 -28.6 1.9 -27.65 4.2 -26.7 4.5 -26.15 L6.3 -23.45 Q7.75 -21.15 7.85 -19.9 8.05 -18.0 7.55 -12.75 7.0 -7.7 6.65 -6.9 6.2 -6.45 -0.2 -6.75 -6.65 -7.1 -6.7 -7.7 -7.7 -12.0 -8.0 -15.4 M-1.7 -26.45 Q-2.6 -26.35 -3.65 -25.35 L-5.15 -23.45 Q-5.95 -21.35 -6.0 -20.15 -6.05 -19.25 -5.7 -18.3 L-4.4 -13.3 -0.45 -12.9 3.45 -13.2 4.15 -15.45 4.8 -17.4 Q5.05 -18.05 4.5 -20.7 4.0 -23.3 3.45 -24.15 2.85 -24.95 1.1 -25.5 L-1.7 -26.45" fill="#76725d" fill-rule="evenodd" stroke="none"/>
    <path d="M-1.7 -26.45 L1.1 -25.5 Q2.85 -24.95 3.45 -24.15 4.0 -23.3 4.5 -20.7 5.05 -18.05 4.8 -17.4 L4.15 -15.45 3.45 -13.2 -0.45 -12.9 -4.4 -13.3 -5.7 -18.3 Q-6.05 -19.25 -6.0 -20.15 -5.95 -21.35 -5.15 -23.45 L-3.65 -25.35 Q-2.6 -26.35 -1.7 -26.45 M-8.0 -15.4 Q-7.7 -12.0 -6.7 -7.7 -6.65 -7.1 -0.2 -6.75 6.2 -6.45 6.65 -6.9 7.0 -7.7 7.55 -12.75 8.05 -18.0 7.85 -19.9 7.75 -21.15 6.3 -23.45 L4.5 -26.15 Q4.2 -26.7 1.9 -27.65 -0.25 -28.6 -0.85 -28.55 -2.6 -28.35 -4.1 -27.55 -5.85 -26.6 -6.95 -24.85 -8.6 -21.85 -8.0 -15.4 Z" fill="none" stroke="#43402f" stroke-linecap="round" stroke-linejoin="round" stroke-width="1.05"/>
    <path d="M-4.4 -13.3 Q-5.3 -12.25 -5.0 -11.75 -4.6 -11.1 -2.1 -10.25" fill="none" stroke="#625d45" stroke-linecap="round" stroke-linejoin="round" stroke-width="1.05"/>
    <path d="M7.4 -11.45 L5.05 -10.65 0.25 -10.65" fill="none" stroke="#625d45" stroke-linecap="round" stroke-linejoin="round" stroke-width="1.05"/>
    <path d="M4.3 -8.4 L-2.9 -8.7" fill="none" stroke="#625d45" stroke-linecap="round" stroke-linejoin="round" stroke-width="1.05"/>
    <path d="M-3.4 -24.25 L-6.6 -23.5 -6.55 -25.25 -4.45 -26.0 -1.35 -26.75 1.1 -26.6 Q2.45 -26.35 3.3 -25.7 4.05 -25.1 4.7 -23.1 L5.2 -21.25 Q5.25 -19.9 3.7 -17.65 L1.6 -14.8 2.65 -17.4 Q3.6 -20.2 3.35 -21.3 L2.8 -23.45 1.25 -24.6 -3.4 -24.25" fill="#6d7774" fill-rule="evenodd" stroke="none"/>
    <path d="M-3.4 -24.25 L1.25 -24.6 2.8 -23.45 3.35 -21.3 Q3.6 -20.2 2.65 -17.4 L1.6 -14.8 3.7 -17.65 Q5.25 -19.9 5.2 -21.25 L4.7 -23.1 Q4.05 -25.1 3.3 -25.7 2.45 -26.35 1.1 -26.6 L-1.35 -26.75 -4.45 -26.0 -6.55 -25.25 -6.6 -23.5 -3.4 -24.25 Z" fill="none" stroke="#343938" stroke-linecap="round" stroke-linejoin="round" stroke-width="1.05"/>
    <path d="M1.6 -14.8 Q0.1 -13.3 -3.6 -11.95 L-7.0 -10.9 1.6 -14.8" fill="#6d7774" fill-rule="evenodd" stroke="none"/>
    <path d="M-7.0 -10.9 L-3.6 -11.95 Q0.1 -13.3 1.6 -14.8" fill="none" stroke="#343938" stroke-linecap="round" stroke-linejoin="round" stroke-width="1.05"/>
    <path d="M-13.15 -12.1 Q-14.3 -13.1 -14.5 -13.8 -14.95 -15.05 -14.35 -18.45 L-13.65 -21.7 Q-12.3 -23.9 -10.7 -24.3 -8.45 -24.55 -6.55 -25.25 L-7.0 -10.9 -12.1 -11.25 -13.15 -12.1" fill="url(#gradient2)" fill-rule="evenodd" stroke="none"/>
    <path d="M-13.15 -12.1 L-12.1 -11.25 -7.0 -10.9 -6.55 -25.25 Q-8.45 -24.55 -10.7 -24.3 -12.3 -23.9 -13.65 -21.7 L-14.35 -18.45 Q-14.95 -15.05 -14.5 -13.8 -14.3 -13.1 -13.15 -12.1 Z" fill="none" stroke="#343938" stroke-linecap="round" stroke-linejoin="round" stroke-width="1.05"/>
    <path d="M-12.1 -11.25 Q-11.75 -12.55 -11.9 -13.8 -12.15 -16.3 -14.65 -16.2" fill="none" stroke="#343938" stroke-linecap="round" stroke-linejoin="round" stroke-width="1.05"/>
    <path d="M-10.6 -24.35 Q-10.2 -24.8 -8.35 -25.05 L-6.55 -25.25 -6.8 -17.0 -10.85 -17.25 -10.6 -24.35" fill="#5d6461" fill-rule="evenodd" stroke="none"/>
    <path d="M-10.6 -24.35 L-10.85 -17.25 -6.8 -17.0 -6.55 -25.25 -8.35 -25.05 Q-10.2 -24.8 -10.6 -24.35 Z" fill="none" stroke="#343938" stroke-linecap="round" stroke-linejoin="round" stroke-width="1.05"/>
  </g>
  <defs>
    <linearGradient gradientTransform="matrix(0.0044, 4.0E-4, -4.0E-4, 0.0044, -1.8, -12.25)" gradientUnits="userSpaceOnUse" id="gradient0" spreadMethod="pad" x1="-819.2" x2="819.2">
      <stop offset="0.0" stop-color="#495145"/>
      <stop offset="1.0" stop-color="#586254"/>
    </linearGradient>
    <linearGradient gradientTransform="matrix(0.0044, 2.0E-4, -4.0E-4, 0.0025, -1.8, -10.55)" gradientUnits="userSpaceOnUse" id="gradient1" spreadMethod="pad" x1="-819.2" x2="819.2">
      <stop offset="0.0" stop-color="#495145"/>
      <stop offset="1.0" stop-color="#586254"/>
    </linearGradient>
    <linearGradient gradientTransform="matrix(0.0027, 0.0, 0.0, 0.0027, -11.0, -18.05)" gradientUnits="userSpaceOnUse" id="gradient2" spreadMethod="pad" x1="-819.2" x2="819.2">
      <stop offset="0.0" stop-color="#5d6461"/>
      <stop offset="1.0" stop-color="#778480"/>
    </linearGradient>
  </defs>
</svg>
