<?xml version="1.0" encoding="UTF-8" standalone="no"?>
<svg xmlns:ffdec="https://www.free-decompiler.com/flash" xmlns:xlink="http://www.w3.org/1999/xlink" ffdec:objectType="shape" height="51.4px" width="75.1px" xmlns="http://www.w3.org/2000/svg">
  <g transform="matrix(1.0, 0.0, 0.0, 1.0, 14.9, 13.9)">
    <path d="M48.1 -8.1 Q59.45 -1.7 59.9 8.1 60.35 17.9 49.7 25.35 39.1 32.8 23.6 33.55 8.15 34.25 -3.15 27.85 -14.45 21.45 -14.9 11.65 -15.35 1.85 -4.75 -5.6 5.9 -13.1 21.35 -13.8 36.85 -14.55 48.1 -8.1" fill="url(#gradient0)" fill-rule="evenodd" stroke="none"/>
    <path d="M26.95 -10.1 Q42.25 -7.55 51.85 1.1 61.55 9.75 59.95 19.4 58.35 29.05 46.35 34.15 34.45 39.2 19.15 36.65 3.85 34.1 -5.85 25.45 -15.5 16.75 -13.9 7.1 -12.3 -2.55 -0.35 -7.6 11.65 -12.65 26.95 -10.1" fill="url(#gradient1)" fill-rule="evenodd" stroke="none"/>
    <path d="M10.15 -0.8 Q20.15 -3.3 27.0 -2.75 33.75 -2.2 37.9 0.75 40.95 2.95 41.6 6.3 38.8 3.9 35.25 4.1 L33.55 6.35 30.7 4.3 27.7 6.2 25.35 4.7 22.0 6.3 19.5 4.55 14.95 6.8 12.25 11.45 5.05 13.0 Q3.15 9.15 -1.25 6.15 3.1 1.45 10.15 -0.8 M33.3 22.9 Q28.25 24.7 24.0 25.65 12.6 23.95 3.2 18.45 4.0 16.45 3.0 13.95 L9.1 15.35 11.35 18.2 14.55 17.6 15.75 19.75 19.1 19.4 20.55 21.35 26.0 20.4 Q27.8 21.75 33.3 22.9" fill="#ffffff" fill-rule="evenodd" stroke="none"/>
    <path d="M10.15 -0.8 Q3.1 1.45 -1.25 6.15 3.15 9.15 5.05 13.0 L12.25 11.45 14.95 6.8 19.5 4.55 22.0 6.3 25.35 4.7 27.7 6.2 30.7 4.3 33.55 6.35 35.25 4.1 Q38.8 3.9 41.6 6.3 40.95 2.95 37.9 0.75 33.75 -2.2 27.0 -2.75 20.15 -3.3 10.15 -0.8 M33.3 22.9 Q28.25 24.7 24.0 25.65 12.6 23.95 3.2 18.45 4.0 16.45 3.0 13.95 L9.1 15.35 11.35 18.2 14.55 17.6 15.75 19.75 19.1 19.4 20.55 21.35 26.0 20.4 Q27.8 21.75 33.3 22.9 Z" fill="none" stroke="#cccccc" stroke-linecap="round" stroke-linejoin="round" stroke-width="1.0"/>
  </g>
  <defs>
    <radialGradient cx="0" cy="0" gradientTransform="matrix(0.0414, -0.002, 0.0012, 0.0256, 22.45, 9.8)" gradientUnits="userSpaceOnUse" id="gradient0" r="819.2" spreadMethod="pad">
      <stop offset="0.0" stop-color="#ffffff"/>
      <stop offset="1.0" stop-color="#ffffff" stop-opacity="0.0"/>
      <stop offset="1.0" stop-color="#ffffff" stop-opacity="0.0"/>
    </radialGradient>
    <radialGradient cx="0" cy="0" gradientTransform="matrix(0.0409, 0.0068, -0.0042, 0.0252, 22.95, 13.2)" gradientUnits="userSpaceOnUse" id="gradient1" r="819.2" spreadMethod="pad">
      <stop offset="0.0" stop-color="#ffffff"/>
      <stop offset="1.0" stop-color="#ffffff" stop-opacity="0.0"/>
      <stop offset="1.0" stop-color="#ffffff" stop-opacity="0.0"/>
    </radialGradient>
  </defs>
</svg>
