<?xml version="1.0" encoding="UTF-8" standalone="no"?>
<svg xmlns:xlink="http://www.w3.org/1999/xlink" height="30.15px" width="16.85px" xmlns="http://www.w3.org/2000/svg">
  <g transform="matrix(1.0, 0.0, 0.0, 1.0, 8.45, 28.7)">
    <path d="M-5.2 -5.95 L-5.4 -7.15 Q-5.85 -9.9 -6.45 -11.55 -7.15 -13.4 -7.3 -17.25 -7.5 -21.7 -6.5 -23.7 -4.0 -28.95 -0.75 -28.05 1.75 -27.4 3.25 -26.05 4.4 -24.95 5.95 -22.5 7.2 -20.55 7.05 -17.5 6.95 -15.1 5.95 -11.65 5.75 -10.85 5.7 -8.7 L5.65 -5.95 -5.2 -5.95" fill="url(#gradient0)" fill-rule="evenodd" stroke="none"/>
    <path d="M5.65 -5.95 L5.65 -5.45 Q5.45 -3.5 4.1 -2.95 L0.25 -2.65 -3.75 -3.05 Q-4.25 -3.25 -4.4 -3.8 L-4.7 -4.7 -5.2 -5.95 5.65 -5.95" fill="url(#gradient1)" fill-rule="evenodd" stroke="none"/>
    <path d="M5.65 -5.95 L5.65 -5.45 Q5.45 -3.5 4.1 -2.95 L0.25 -2.65 -3.75 -3.05 Q-4.25 -3.25 -4.4 -3.8 L-4.7 -4.7 -5.2 -5.95 -5.4 -7.15 Q-5.85 -9.9 -6.45 -11.55 -7.15 -13.4 -7.3 -17.25 -7.5 -21.7 -6.5 -23.7 -4.0 -28.95 -0.75 -28.05 1.75 -27.4 3.25 -26.05 4.4 -24.95 5.95 -22.5 7.2 -20.55 7.05 -17.5 6.95 -15.1 5.95 -11.65 5.75 -10.85 5.7 -8.7 L5.65 -5.95 Z" fill="none" stroke="#4b4b3e" stroke-linecap="round" stroke-linejoin="round" stroke-width="1.05"/>
    <path d="M-3.35 -9.5 Q-3.65 -7.85 -2.65 -5.9 L-1.55 -4.25" fill="none" stroke="#6c6c5e" stroke-linecap="round" stroke-linejoin="round" stroke-width="1.05"/>
    <path d="M3.8 -10.75 Q2.75 -11.2 1.65 -12.25 L0.7 -13.2" fill="none" stroke="#6c6c5e" stroke-linecap="round" stroke-linejoin="round" stroke-width="1.05"/>
    <path d="M-4.3 -19.75 Q-3.2 -18.6 -0.8 -18.35 L1.35 -18.3" fill="none" stroke="#6c6c5e" stroke-linecap="round" stroke-linejoin="round" stroke-width="1.05"/>
    <path d="M-5.75 -5.4 L-1.4 -4.8 6.05 -4.4 5.9 -1.7 1.55 -1.7 -5.4 -2.4 -5.75 -5.4" fill="#2b2c37" fill-rule="evenodd" stroke="none"/>
    <path d="M-5.75 -5.4 L-1.4 -4.8 6.05 -4.4 5.9 -1.7 1.55 -1.7 -5.4 -2.4 -5.75 -5.4 Z" fill="none" stroke="#131318" stroke-linecap="round" stroke-linejoin="round" stroke-width="1.05"/>
    <path d="M-7.0 -4.15 L-4.5 -3.85 -5.0 0.95 -7.5 0.7 -7.0 -4.15" fill="#2b2c37" fill-rule="evenodd" stroke="none"/>
    <path d="M-7.0 -4.15 L-4.5 -3.85 -5.0 0.95 -7.5 0.7 -7.0 -4.15 Z" fill="none" stroke="#131318" stroke-linecap="round" stroke-linejoin="round" stroke-width="1.05"/>
    <path d="M3.95 -5.25 L6.35 -5.45 6.85 -0.1 4.45 0.15 3.95 -5.25" fill="#2b2c37" fill-rule="evenodd" stroke="none"/>
    <path d="M3.95 -5.25 L6.35 -5.45 6.85 -0.1 4.45 0.15 3.95 -5.25 Z" fill="none" stroke="#131318" stroke-linecap="round" stroke-linejoin="round" stroke-width="1.05"/>
    <path d="M1.2 -12.75 L1.35 -14.85 2.6 -16.65 Q3.9 -18.8 3.95 -20.4 4.05 -22.35 2.95 -23.7 1.95 -24.95 0.45 -25.1 L0.05 -25.1 Q-2.15 -25.1 -3.9 -24.0 -6.1 -22.6 -5.8 -20.1 -5.65 -18.95 -4.05 -17.05 -2.35 -14.95 -2.1 -14.15 L-2.05 -12.75 -2.05 -9.3 0.95 -9.5 1.2 -12.75 2.1 -12.75 1.2 -12.75 M-4.9 -26.4 L-2.45 -26.7 0.5 -26.4 2.95 -25.3 Q5.15 -24.15 5.95 -23.35 L6.25 -19.65 Q6.35 -15.6 5.45 -12.4 5.05 -11.25 5.05 -9.4 L1.65 -9.15 Q-2.7 -8.85 -7.0 -9.1 L-7.15 -10.85 -7.35 -13.1 -6.85 -10.9 -6.45 -13.05 Q-6.1 -15.55 -6.55 -17.35 -6.85 -20.15 -6.35 -22.5 -5.95 -24.35 -4.9 -26.4 M7.15 -12.35 L6.75 -9.6 6.5 -9.55 6.85 -12.35 7.15 -12.35 M-3.25 -12.8 L-2.05 -12.75 -3.25 -12.8" fill="#252425" fill-rule="evenodd" stroke="none"/>
    <path d="M5.95 -23.35 L6.85 -21.7 Q7.6 -20.3 7.85 -18.85 L7.9 -18.1 Q8.0 -16.9 7.55 -14.5 L7.15 -12.35 6.85 -12.35 5.45 -12.4 Q6.35 -15.6 6.25 -19.65 L5.95 -23.35 M6.75 -9.6 L6.7 -9.05 6.7 -8.1 Q3.6 -7.15 -1.9 -7.15 L-2.15 -7.15 -6.75 -7.35 -7.0 -9.1 Q-2.7 -8.85 1.65 -9.15 L5.05 -9.4 6.5 -9.55 6.75 -9.6 M-7.35 -13.1 L-7.7 -15.55 -7.7 -15.7 -7.8 -16.35 Q-8.05 -18.6 -7.9 -20.45 L-7.6 -22.75 -6.95 -24.8 -6.65 -25.35 -4.85 -26.5 -4.9 -26.4 Q-5.95 -24.35 -6.35 -22.5 -6.85 -20.15 -6.55 -17.35 -6.1 -15.55 -6.45 -13.05 L-6.85 -10.9 -7.35 -13.1" fill="#7a8530" fill-rule="evenodd" stroke="none"/>
    <path d="M6.85 -12.35 L6.5 -9.55 5.05 -9.4 Q5.05 -11.25 5.45 -12.4 L6.85 -12.35" fill="#171717" fill-rule="evenodd" stroke="none"/>
    <path d="M-2.05 -12.75 L-2.1 -14.15 Q-2.35 -14.95 -4.05 -17.05 -5.65 -18.95 -5.8 -20.1 -6.1 -22.6 -3.9 -24.0 -2.15 -25.1 0.05 -25.1 L0.45 -25.1 Q1.95 -24.95 2.95 -23.7 4.05 -22.35 3.95 -20.4 3.9 -18.8 2.6 -16.65 L1.35 -14.85 1.2 -12.75 2.1 -12.75 M-4.9 -26.4 L-2.45 -26.7 0.5 -26.4 2.95 -25.3 M7.15 -12.35 L6.75 -9.6 M-7.0 -9.1 L-7.15 -10.85 -7.35 -13.1 M1.2 -12.75 L0.95 -9.5 -2.05 -9.3 -2.05 -12.75 -3.25 -12.8 M-2.05 -12.75 L1.2 -12.75" fill="none" stroke="#090909" stroke-linecap="round" stroke-linejoin="round" stroke-width="1.05"/>
    <path d="M5.95 -23.35 L6.85 -21.7 Q7.6 -20.3 7.85 -18.85 L7.9 -18.1 Q8.0 -16.9 7.55 -14.5 L7.15 -12.35 6.85 -12.35 5.45 -12.4 Q6.35 -15.6 6.25 -19.65 L5.95 -23.35 M6.75 -9.6 L6.7 -9.05 6.7 -8.1 Q3.6 -7.15 -1.9 -7.15 L-2.15 -7.15 -6.75 -7.35 -7.0 -9.1 Q-2.7 -8.85 1.65 -9.15 L5.05 -9.4 6.5 -9.55 6.75 -9.6 M-7.35 -13.1 L-7.7 -15.55 -7.7 -15.7 -7.8 -16.35 Q-8.05 -18.6 -7.9 -20.45 L-7.6 -22.75 -6.95 -24.8 -6.65 -25.35 -4.85 -26.5 -4.9 -26.4 Q-5.95 -24.35 -6.35 -22.5 -6.85 -20.15 -6.55 -17.35 -6.1 -15.55 -6.45 -13.05 L-6.85 -10.9 -7.35 -13.1 Z" fill="none" stroke="#393f16" stroke-linecap="round" stroke-linejoin="round" stroke-width="1.05"/>
  </g>
  <defs>
    <linearGradient gradientTransform="matrix(0.0044, 4.0E-4, -4.0E-4, 0.0044, -1.75, -12.3)" gradientUnits="userSpaceOnUse" id="gradient0" spreadMethod="pad" x1="-819.2" x2="819.2">
      <stop offset="0.0" stop-color="#727066"/>
      <stop offset="1.0" stop-color="#89877b"/>
    </linearGradient>
    <linearGradient gradientTransform="matrix(0.0044, 2.0E-4, -4.0E-4, 0.0016, -1.75, -8.2)" gradientUnits="userSpaceOnUse" id="gradient1" spreadMethod="pad" x1="-819.2" x2="819.2">
      <stop offset="0.0" stop-color="#727066"/>
      <stop offset="1.0" stop-color="#89877b"/>
    </linearGradient>
  </defs>
</svg>
