<?xml version="1.0" encoding="UTF-8" standalone="no"?>
<svg xmlns:ffdec="https://www.free-decompiler.com/flash" xmlns:xlink="http://www.w3.org/1999/xlink" ffdec:objectType="shape" height="79.95px" width="69.55px" xmlns="http://www.w3.org/2000/svg">
  <g transform="matrix(1.0, 0.0, 0.0, 1.0, 15.8, 27.25)">
    <path d="M30.45 -27.25 Q43.45 -27.7 48.9 -19.55 54.4 -11.45 49.2 0.5 44.15 12.35 31.3 21.1 18.5 29.8 5.5 30.15 -7.5 30.6 -12.95 22.5 -18.5 14.35 -13.3 2.45 -8.15 -9.4 4.7 -18.1 17.5 -26.85 30.45 -27.25" fill="url(#gradient0)" fill-rule="evenodd" stroke="none"/>
    <path d="M11.95 -7.45 Q24.85 -5.65 36.7 4.35 48.5 14.45 52.25 26.75 56.2 39.15 49.85 46.65 43.5 54.1 30.55 52.35 17.75 50.55 5.9 40.45 -5.9 30.45 -9.75 18.05 -13.55 5.6 -7.2 -1.85 -0.85 -9.35 11.95 -7.45" fill="url(#gradient1)" fill-rule="evenodd" stroke="none"/>
    <path d="M0.75 -0.65 Q6.95 -8.85 12.6 -12.75 18.25 -16.65 23.2 -17.0 27.05 -17.2 29.65 -14.95 25.95 -15.1 23.3 -12.7 L23.45 -9.9 19.85 -9.65 18.8 -6.3 16.0 -5.95 14.45 -2.7 11.4 -2.35 9.3 2.25 10.1 7.6 5.5 13.3 Q1.65 11.5 -3.65 11.95 -3.25 5.55 0.75 -0.65 M3.95 13.55 L8.45 17.8 9.0 21.4 12.05 22.55 11.95 25.0 15.0 26.35 15.3 28.75 20.45 30.8 Q21.35 32.8 25.45 36.55 20.15 35.65 16.1 34.25 7.15 27.0 1.75 17.55 3.5 16.1 3.95 13.55" fill="#ffffff" fill-rule="evenodd" stroke="none"/>
    <path d="M0.75 -0.65 Q-3.25 5.55 -3.65 11.95 1.65 11.5 5.5 13.3 L10.1 7.6 9.3 2.25 11.4 -2.35 14.45 -2.7 16.0 -5.95 18.8 -6.3 19.85 -9.65 23.45 -9.9 23.3 -12.7 Q25.95 -15.1 29.65 -14.95 27.05 -17.2 23.2 -17.0 18.25 -16.65 12.6 -12.75 6.95 -8.85 0.75 -0.65 M3.95 13.55 L8.45 17.8 9.0 21.4 12.05 22.55 11.95 25.0 15.0 26.35 15.3 28.75 20.45 30.8 Q21.35 32.8 25.45 36.55 20.15 35.65 16.1 34.25 7.15 27.0 1.75 17.55 3.5 16.1 3.95 13.55 Z" fill="none" stroke="#cccccc" stroke-linecap="round" stroke-linejoin="round" stroke-width="1.0"/>
  </g>
  <defs>
    <radialGradient cx="0" cy="0" gradientTransform="matrix(0.0343, -0.0233, 0.0144, 0.0211, 17.9, 1.4)" gradientUnits="userSpaceOnUse" id="gradient0" r="819.2" spreadMethod="pad">
      <stop offset="0.0" stop-color="#ffffff"/>
      <stop offset="1.0" stop-color="#ffffff" stop-opacity="0.0"/>
      <stop offset="1.0" stop-color="#ffffff" stop-opacity="0.0"/>
    </radialGradient>
    <radialGradient cx="0" cy="0" gradientTransform="matrix(0.0316, 0.0269, -0.0166, 0.0195, 21.2, 22.25)" gradientUnits="userSpaceOnUse" id="gradient1" r="819.2" spreadMethod="pad">
      <stop offset="0.0" stop-color="#ffffff"/>
      <stop offset="1.0" stop-color="#ffffff" stop-opacity="0.0"/>
      <stop offset="1.0" stop-color="#ffffff" stop-opacity="0.0"/>
    </radialGradient>
  </defs>
</svg>
