<?xml version="1.0" encoding="UTF-8" standalone="no"?>
<svg xmlns:ffdec="https://www.free-decompiler.com/flash" xmlns:xlink="http://www.w3.org/1999/xlink" ffdec:objectType="shape" height="26.8px" width="12.45px" xmlns="http://www.w3.org/2000/svg">
  <g transform="matrix(1.0, 0.0, 0.0, 1.0, 2.25, 2.0)">
    <path d="M3.0 16.0 L3.0 13.65 Q3.15 15.4 4.35 14.8 5.6 14.1 6.35 14.05 7.0 14.2 7.35 14.5 7.7 14.7 7.7 15.2 L7.5 16.65 7.4 17.15 7.1 17.65 6.35 18.05 4.45 18.3 Q3.65 18.25 3.2 17.2 L2.95 16.25 3.0 16.1 3.0 16.0" fill="#363636" fill-rule="evenodd" stroke="none"/>
    <path d="M7.1 17.65 L6.95 20.05 Q6.5 21.25 5.2 21.35 3.9 21.4 3.25 20.25 2.6 19.15 2.95 16.25 L3.2 17.2 Q3.65 18.25 4.45 18.3 L6.35 18.05 7.1 17.65" fill="#232323" fill-rule="evenodd" stroke="none"/>
    <path d="M7.1 17.65 L6.95 20.05 Q6.5 21.25 5.2 21.35 3.9 21.4 3.25 20.25 2.6 19.15 2.95 16.25 L3.0 16.1 3.0 16.0" fill="none" stroke="#171717" stroke-linecap="round" stroke-linejoin="miter-clip" stroke-miterlimit="10.0" stroke-width="1.0"/>
    <path d="M3.0 16.0 L3.0 13.65 Q3.15 15.4 4.35 14.8 5.6 14.1 6.35 14.05 7.0 14.2 7.35 14.5 7.7 14.7 7.7 15.2 L7.5 16.65 7.4 17.15 7.1 17.65" fill="none" stroke="#171717" stroke-linecap="butt" stroke-linejoin="miter-clip" stroke-miterlimit="10.0" stroke-width="1.0"/>
    <path d="M7.1 17.65 L6.35 18.05 4.45 18.3 Q3.65 18.25 3.2 17.2 L2.95 16.25" fill="none" stroke="#171717" stroke-linecap="round" stroke-linejoin="miter-clip" stroke-miterlimit="10.0" stroke-width="1.0"/>
    <path d="M5.95 0.3 Q5.1 2.4 5.95 4.5 L7.1 6.2 Q7.0 10.0 8.5 11.6 L8.4 12.85 4.15 7.1 4.15 0.15 4.15 7.1 8.4 12.85 8.1 13.35 7.05 14.75 Q6.05 16.1 4.95 15.8 5.3 14.15 4.05 11.65 L4.05 9.95 2.9 8.15 Q1.0 8.5 0.15 5.9 0.4 4.7 0.15 3.25 -0.25 1.3 2.35 0.0 L3.25 0.1 3.15 7.1 8.1 13.35 3.15 7.1 3.25 0.1 4.15 0.15 5.95 0.3" fill="#222222" fill-rule="evenodd" stroke="none"/>
    <path d="M8.5 11.6 Q7.0 10.0 7.1 6.2 L5.95 4.5 Q5.1 2.4 5.95 0.3 L6.15 0.3 Q7.7 1.7 8.1 3.6 8.8 6.6 8.5 11.6 M0.15 5.9 Q1.0 8.5 2.9 8.15 L4.05 9.95 4.05 11.65 Q5.3 14.15 4.95 15.8 L3.8 15.0 2.25 13.7 1.0 10.9 Q-0.75 8.55 -0.1 6.6 L0.15 5.9" fill="#171717" fill-rule="evenodd" stroke="none"/>
    <path d="M4.15 0.15 L4.15 7.1 8.4 12.85 M8.1 13.35 L3.15 7.1 3.25 0.1" fill="none" stroke="#440000" stroke-linecap="round" stroke-linejoin="round" stroke-width="1.0"/>
    <path d="M8.5 11.6 Q8.8 6.6 8.1 3.6 7.7 1.7 6.15 0.3 L5.95 0.3 4.15 0.15 3.25 0.1 2.35 0.0 Q-0.25 1.3 0.15 3.25 0.4 4.7 0.15 5.9 L-0.1 6.6 Q-0.75 8.55 1.0 10.9 L2.25 13.7 3.8 15.0 4.95 15.8 Q6.05 16.1 7.05 14.75 L8.1 13.35 8.4 12.85 8.5 11.6 Z" fill="none" stroke="#0b0b0b" stroke-linecap="round" stroke-linejoin="round" stroke-width="1.0"/>
    <path d="M6.25 2.55 L7.4 -0.15 9.1 1.1 8.4 2.7 8.65 3.5 7.25 4.05 6.25 2.55 7.25 4.05 7.4 5.15 1.7 3.95 2.15 1.55 -1.65 1.85 Q-1.2 -1.05 0.6 -1.5 L2.35 0.0 2.15 1.55 6.25 2.55" fill="#363636" fill-rule="evenodd" stroke="none"/>
    <path d="M7.25 4.05 L8.65 3.5 8.9 4.3 9.7 5.0 9.2 6.7 7.4 6.1 7.4 5.15 7.25 4.05 M1.7 3.95 L1.6 4.45 -0.75 5.45 Q-1.55 4.9 -1.75 3.8 L-1.75 2.55 -1.65 1.85 2.15 1.55 1.7 3.95" fill="#232323" fill-rule="evenodd" stroke="none"/>
    <path d="M8.65 3.5 L8.4 2.7 9.1 1.1 7.4 -0.15 6.25 2.55 7.25 4.05 7.4 5.15 1.7 3.95 1.6 4.45 -0.75 5.45 Q-1.55 4.9 -1.75 3.8 L-1.75 2.55 -1.65 1.85 Q-1.2 -1.05 0.6 -1.5 L2.35 0.0 2.15 1.55 6.25 2.55 M8.65 3.5 L8.9 4.3 9.7 5.0 9.2 6.7 7.4 6.1 7.4 5.15 M1.7 3.95 L2.15 1.55" fill="none" stroke="#171717" stroke-linecap="round" stroke-linejoin="round" stroke-width="1.0"/>
    <path d="M4.95 15.8 Q5.75 11.4 6.05 7.1 L9.2 6.7 9.1 9.05 8.45 9.05 6.75 9.05 6.2 13.7 8.1 13.45 7.5 15.3 4.95 15.8" fill="#363636" fill-rule="evenodd" stroke="none"/>
    <path d="M2.9 10.1 L4.15 7.1 6.05 7.1 Q5.75 11.4 4.95 15.8 L3.0 14.35 1.35 13.65 0.0 11.2 0.0 9.15 2.9 10.1 3.0 14.35 2.9 10.1" fill="#232323" fill-rule="evenodd" stroke="none"/>
    <path d="M9.1 9.05 L8.9 10.75 8.4 12.85 8.1 13.45 6.2 13.7 6.75 9.05 8.45 9.05 9.1 9.05 M8.9 10.75 L8.45 9.05 8.9 10.75 8.1 13.45 8.1 13.35 8.1 13.45 8.1 13.35 8.1 13.45 8.9 10.75" fill="#e42a63" fill-rule="evenodd" stroke="none"/>
    <path d="M6.05 7.1 L4.15 7.1 2.9 10.1 3.0 14.35 4.95 15.8 7.5 15.3 8.1 13.45 8.1 13.35 8.1 13.45 M6.05 7.1 L9.2 6.7 9.1 9.05 8.9 10.75 M2.9 10.1 L0.0 9.15 0.0 11.2 1.35 13.65 3.0 14.35" fill="none" stroke="#171717" stroke-linecap="round" stroke-linejoin="round" stroke-width="1.0"/>
    <path d="M8.45 9.05 L8.9 10.75 8.1 13.45 6.2 13.7 6.75 9.05 8.45 9.05 Z" fill="none" stroke="#580000" stroke-linecap="round" stroke-linejoin="round" stroke-width="1.0"/>
  </g>
</svg>
