<?xml version="1.0" encoding="UTF-8" standalone="no"?>
<svg xmlns:ffdec="https://www.free-decompiler.com/flash" xmlns:xlink="http://www.w3.org/1999/xlink" ffdec:objectType="shape" height="66.25px" width="73.65px" xmlns="http://www.w3.org/2000/svg">
  <g transform="matrix(1.0, 0.0, 0.0, 1.0, 15.75, 22.5)">
    <path d="M37.35 -22.0 Q50.2 -20.1 54.15 -11.15 58.05 -2.15 50.8 8.65 43.65 19.4 29.45 25.65 15.25 31.9 2.4 29.85 -10.4 27.95 -14.35 19.0 -18.3 10.05 -11.05 -0.75 -3.8 -11.5 10.4 -17.75 24.55 -24.0 37.35 -22.0" fill="url(#gradient0)" fill-rule="evenodd" stroke="none"/>
    <path d="M31.55 -4.5 Q45.8 1.7 53.0 12.35 60.45 23.0 56.55 32.1 52.7 41.05 39.8 43.2 27.1 45.3 12.85 39.15 -1.45 33.05 -8.75 22.35 -16.15 11.6 -12.25 2.55 -8.4 -6.45 4.45 -8.45 17.25 -10.5 31.55 -4.5" fill="url(#gradient1)" fill-rule="evenodd" stroke="none"/>
    <path d="M4.4 -1.5 Q12.55 -7.8 19.0 -10.1 25.5 -12.45 30.35 -11.45 34.15 -10.65 36.05 -7.85 32.5 -8.95 29.35 -7.25 L28.75 -4.55 25.2 -5.2 23.35 -2.3 20.55 -2.65 18.2 0.1 15.15 -0.35 11.95 3.5 11.35 8.9 5.4 13.2 Q2.15 10.5 -3.1 9.55 -1.05 3.45 4.4 -1.5 M3.55 13.8 L8.85 17.05 10.05 20.45 13.3 21.0 13.65 23.4 16.95 24.1 17.7 26.45 23.15 27.45 Q24.4 29.2 29.2 32.05 L19.6 31.65 Q9.35 26.35 2.2 18.15 3.65 16.4 3.55 13.8" fill="#ffffff" fill-rule="evenodd" stroke="none"/>
    <path d="M4.4 -1.5 Q-1.05 3.45 -3.1 9.55 2.15 10.5 5.4 13.2 L11.35 8.9 11.95 3.5 15.15 -0.35 18.2 0.1 20.55 -2.65 23.35 -2.3 25.2 -5.2 28.75 -4.55 29.35 -7.25 Q32.5 -8.95 36.05 -7.85 34.15 -10.65 30.35 -11.45 25.5 -12.45 19.0 -10.1 12.55 -7.8 4.4 -1.5 M3.55 13.8 L8.85 17.05 10.05 20.45 13.3 21.0 13.65 23.4 16.95 24.1 17.7 26.45 23.15 27.45 Q24.4 29.2 29.2 32.05 L19.6 31.65 Q9.35 26.35 2.2 18.15 3.65 16.4 3.55 13.8 Z" fill="none" stroke="#cccccc" stroke-linecap="round" stroke-linejoin="round" stroke-width="1.0"/>
  </g>
  <defs>
    <radialGradient cx="0" cy="0" gradientTransform="matrix(0.038, -0.0167, 0.0103, 0.0234, 19.8, 3.85)" gradientUnits="userSpaceOnUse" id="gradient0" r="819.2" spreadMethod="pad">
      <stop offset="0.0" stop-color="#ffffff"/>
      <stop offset="1.0" stop-color="#ffffff" stop-opacity="0.0"/>
      <stop offset="1.0" stop-color="#ffffff" stop-opacity="0.0"/>
    </radialGradient>
    <radialGradient cx="0" cy="0" gradientTransform="matrix(0.0381, 0.0163, -0.0101, 0.0235, 21.95, 17.15)" gradientUnits="userSpaceOnUse" id="gradient1" r="819.2" spreadMethod="pad">
      <stop offset="0.0" stop-color="#ffffff"/>
      <stop offset="1.0" stop-color="#ffffff" stop-opacity="0.0"/>
      <stop offset="1.0" stop-color="#ffffff" stop-opacity="0.0"/>
    </radialGradient>
  </defs>
</svg>
