<?xml version="1.0" encoding="UTF-8" standalone="no"?>
<svg xmlns:ffdec="https://www.free-decompiler.com/flash" xmlns:xlink="http://www.w3.org/1999/xlink" ffdec:objectType="shape" height="25.7px" width="15.0px" xmlns="http://www.w3.org/2000/svg">
  <g transform="matrix(1.0, 0.0, 0.0, 1.0, 5.35, 4.75)">
    <path d="M1.7 -2.9 L1.9 -3.0 2.0 -3.1 4.15 -4.25 5.8 -0.75 -3.7 3.45 5.8 -0.75 Q7.15 2.5 7.95 7.4 L0.15 10.9 Q-2.2 7.6 -3.7 3.45 -4.45 1.45 -4.85 -0.8 L-2.85 -1.25 -2.2 -1.25 -0.65 -0.25 0.55 -0.65 1.65 -1.35 1.65 -1.8 1.7 -2.9 1.65 -1.8 Q1.5 -2.0 1.5 -2.55 L1.7 -2.9 M0.55 -0.65 L1.35 -0.95 1.65 -1.35 1.35 -0.95 0.55 -0.65" fill="url(#gradient0)" fill-rule="evenodd" stroke="none"/>
    <path d="M3.95 13.7 L6.4 12.6 7.0 12.5 Q7.25 12.35 7.6 12.3 L7.7 12.3 8.0 13.85 Q5.9 12.95 4.4 14.9 L3.95 13.7" fill="#0d0d0f" fill-rule="evenodd" stroke="none"/>
    <path d="M7.95 7.4 L8.6 9.65 8.6 12.1 7.6 12.3 Q7.25 12.35 7.0 12.5 L6.4 12.6 3.95 13.7 3.3 14.35 1.35 12.8 0.15 10.9 7.95 7.4 M7.1 10.2 L6.8 10.15 7.1 10.2 M2.75 11.8 L2.5 11.7 2.75 11.8" fill="url(#gradient1)" fill-rule="evenodd" stroke="none"/>
    <path d="M8.0 13.85 L8.85 14.05 Q9.6 16.55 8.35 18.5 L5.65 15.8 8.35 18.5 Q7.05 19.8 5.55 20.4 L5.05 19.8 4.8 19.4 4.4 18.8 3.95 16.9 4.0 16.8 4.2 16.15 4.4 14.9 Q5.9 12.95 8.0 13.85 M4.05 16.8 L5.65 15.8 4.05 16.8 4.2 16.15 4.05 16.8 3.95 16.9 4.05 16.8 4.0 16.8 4.05 16.8" fill="#1a1b1d" fill-rule="evenodd" stroke="none"/>
    <path d="M1.7 -2.9 L1.65 -1.8 1.65 -1.35 1.35 -0.95 0.55 -0.65 -0.65 -0.25 -2.2 -1.25 -2.85 -1.55 -4.85 -0.8 M4.15 -4.25 L2.0 -3.1 1.9 -3.0 1.75 -3.0 1.7 -2.9" fill="none" stroke="#0f0f0f" stroke-linecap="round" stroke-linejoin="round" stroke-width="1.0"/>
    <path d="M5.8 -0.75 L4.15 -4.25 M7.6 12.3 L8.6 12.1 8.6 9.65 7.95 7.4 Q7.15 2.5 5.8 -0.75 M0.15 10.9 L1.35 12.8 3.3 14.35 3.95 13.7 6.4 12.6 7.0 12.5 Q7.25 12.35 7.6 12.3 M8.0 13.85 L8.85 14.05 Q9.6 16.55 8.35 18.5 7.1 19.9 5.55 20.45 L5.05 19.8 4.8 19.4 4.4 18.8 3.95 16.9 4.05 16.8 4.2 16.15 4.4 14.9 Q5.9 12.95 8.0 13.85 M8.35 18.5 L5.65 15.8" fill="none" stroke="#0e0e0e" stroke-linecap="round" stroke-linejoin="bevel" stroke-width="1.0"/>
    <path d="M7.95 7.4 L0.15 10.9 M2.5 11.7 L2.75 11.8 M6.8 10.15 L7.1 10.2" fill="none" stroke="#0e0e0e" stroke-linecap="round" stroke-linejoin="round" stroke-width="1.0"/>
    <path d="M7.7 12.3 L8.0 13.85 M4.4 14.9 L3.95 13.7" ffdec:has-small-stroke="true" ffdec:original-stroke-width="0.9" fill="none" stroke="#161618" stroke-linecap="round" stroke-linejoin="bevel" stroke-width="1.0"/>
    <path d="M4.05 16.8 L4.0 16.8" fill="none" stroke="#161618" stroke-linecap="round" stroke-linejoin="bevel" stroke-width="1.0"/>
    <path d="M5.65 15.8 L4.05 16.8" fill="none" stroke="#0f0f0f" stroke-linecap="round" stroke-linejoin="bevel" stroke-width="1.0"/>
    <path d="M-3.7 3.45 L5.8 -0.75" fill="none" stroke="url(#gradient2)" stroke-linecap="round" stroke-linejoin="round" stroke-width="1.0"/>
    <path d="M-3.55 3.4 Q-2.05 7.7 0.25 10.9" fill="none" stroke="#0e0e0e" stroke-linecap="round" stroke-linejoin="bevel" stroke-width="1.0"/>
    <path d="M-4.8 -0.7 L-3.55 3.4" fill="none" stroke="#0e0e0e" stroke-linecap="round" stroke-linejoin="bevel" stroke-width="1.0"/>
  </g>
  <defs>
    <radialGradient cx="0" cy="0" gradientTransform="matrix(0.0129, 4.0E-4, 7.0E-4, 0.0128, 2.05, 3.8)" gradientUnits="userSpaceOnUse" id="gradient0" r="819.2" spreadMethod="pad">
      <stop offset="0.0" stop-color="#333333"/>
      <stop offset="1.0" stop-color="#191919"/>
    </radialGradient>
    <radialGradient cx="0" cy="0" gradientTransform="matrix(0.0129, 4.0E-4, 7.0E-4, 0.0128, 2.05, 3.8)" gradientUnits="userSpaceOnUse" id="gradient1" r="819.2" spreadMethod="pad">
      <stop offset="0.0" stop-color="#333333"/>
      <stop offset="1.0" stop-color="#1c1c1c"/>
    </radialGradient>
    <linearGradient gradientTransform="matrix(0.0094, 0.0014, -5.0E-4, 0.0164, 2.15, 7.0)" gradientUnits="userSpaceOnUse" id="gradient2" spreadMethod="pad" x1="-819.2" x2="819.2">
      <stop offset="0.0" stop-color="#333333"/>
      <stop offset="1.0" stop-color="#000000"/>
    </linearGradient>
  </defs>
</svg>
