<?xml version="1.0" encoding="UTF-8" standalone="no"?>
<svg xmlns:xlink="http://www.w3.org/1999/xlink" height="11.65px" width="10.85px" xmlns="http://www.w3.org/2000/svg">
  <g transform="matrix(1.0, 0.0, 0.0, 1.0, 5.35, 7.05)">
    <path d="M3.8 2.2 Q2.6 3.7 0.7 4.05 -2.7 4.55 -3.95 1.7 -5.2 -1.15 -4.75 -2.75 -4.3 -4.35 -3.3 -5.4 -2.3 -6.5 0.1 -6.55 L2.55 -6.25 Q0.75 -0.2 3.8 2.2" fill="#2f2f2f" fill-rule="evenodd" stroke="none"/>
    <path d="M2.55 -6.25 Q3.4 -5.95 4.35 -4.6 5.25 -3.25 4.95 -1.05 4.65 1.1 3.8 2.2 0.75 -0.2 2.55 -6.25" fill="#353a40" fill-rule="evenodd" stroke="none"/>
    <path d="M2.55 -6.25 Q3.4 -5.95 4.35 -4.6 5.25 -3.25 4.95 -1.05 4.65 1.1 3.8 2.2 0.75 -0.2 2.55 -6.25" fill="none" stroke="#22262a" stroke-linecap="round" stroke-linejoin="round" stroke-width="1.0"/>
    <path d="M3.8 2.2 Q2.6 3.7 0.7 4.05 -2.7 4.55 -3.95 1.7 -5.2 -1.15 -4.75 -2.75 -4.3 -4.35 -3.3 -5.4 -2.3 -6.5 0.1 -6.55 L2.55 -6.25" fill="none" stroke="#181818" stroke-linecap="round" stroke-linejoin="round" stroke-width="1.0"/>
  </g>
</svg>
