<?xml version="1.0" encoding="UTF-8" standalone="no"?>
<svg xmlns:ffdec="https://www.free-decompiler.com/flash" xmlns:xlink="http://www.w3.org/1999/xlink" ffdec:objectType="shape" height="47.4px" width="74.85px" xmlns="http://www.w3.org/2000/svg">
  <g transform="matrix(1.0, 0.0, 0.0, 1.0, 14.9, 13.3)">
    <path d="M48.95 -6.35 Q59.95 0.6 59.95 10.4 59.95 20.2 48.95 27.15 38.05 34.1 22.55 34.1 7.05 34.1 -3.95 27.15 -14.9 20.2 -14.9 10.4 -14.9 0.6 -3.95 -6.35 7.05 -13.3 22.55 -13.3 38.05 -13.3 48.95 -6.35" fill="url(#gradient0)" fill-rule="evenodd" stroke="none"/>
    <path d="M36.25 9.65 L34.15 11.55 31.7 9.0 28.4 10.35 26.4 8.4 22.8 9.35 20.65 7.2 15.8 8.55 12.25 12.6 4.9 12.75 Q3.75 8.65 0.0 4.9 5.15 1.05 12.45 0.15 22.75 -0.4 29.4 1.4 35.95 3.2 39.45 6.85 42.05 9.6 42.05 13.05 39.75 10.15 36.25 9.65 M26.6 15.55 Q28.65 16.45 34.2 16.35 29.7 19.25 25.8 21.1 14.3 22.0 3.9 18.8 4.2 16.6 2.7 14.4 L9.0 14.4 11.8 16.65 14.8 15.4 16.4 17.2 19.6 16.1 21.45 17.7 26.6 15.55" fill="#ffffff" fill-rule="evenodd" stroke="none"/>
    <path d="M36.25 9.65 Q39.75 10.15 42.05 13.05 42.05 9.6 39.45 6.85 35.95 3.2 29.4 1.4 22.75 -0.4 12.45 0.15 5.15 1.05 0.0 4.9 3.75 8.65 4.9 12.75 L12.25 12.6 15.8 8.55 20.65 7.2 22.8 9.35 26.4 8.4 28.4 10.35 31.7 9.0 34.15 11.55 36.25 9.65 M26.6 15.55 Q28.65 16.45 34.2 16.35 29.7 19.25 25.8 21.1 14.3 22.0 3.9 18.8 4.2 16.6 2.7 14.4 L9.0 14.4 11.8 16.65 14.8 15.4 16.4 17.2 19.6 16.1 21.45 17.7 26.6 15.55 Z" fill="none" stroke="#cccccc" stroke-linecap="round" stroke-linejoin="round" stroke-width="1.0"/>
  </g>
  <defs>
    <radialGradient cx="0" cy="0" gradientTransform="matrix(0.0415, 0.0, 0.0, 0.0256, 22.5, 10.35)" gradientUnits="userSpaceOnUse" id="gradient0" r="819.2" spreadMethod="pad">
      <stop offset="0.0" stop-color="#ffffff"/>
      <stop offset="1.0" stop-color="#ffffff" stop-opacity="0.0"/>
      <stop offset="1.0" stop-color="#ffffff" stop-opacity="0.0"/>
    </radialGradient>
  </defs>
</svg>
