<?xml version="1.0" encoding="UTF-8" standalone="no"?>
<svg xmlns:xlink="http://www.w3.org/1999/xlink" height="20.85px" width="24.6px" xmlns="http://www.w3.org/2000/svg">
  <g transform="matrix(1.0, 0.0, 0.0, 1.0, 12.95, 19.15)">
    <path d="M-0.8 -10.0 Q0.7 -9.95 0.95 -8.15 0.9 -6.7 -0.9 -6.45 -2.4 -6.5 -2.65 -8.3 -2.55 -9.75 -0.8 -10.0" fill="#152026" fill-rule="evenodd" stroke="none"/>
    <path d="M-5.6 -9.35 Q-4.7 -9.5 -4.15 -9.8 L-2.8 -11.45 Q-1.7 -12.65 0.75 -11.5 1.7 -10.95 2.05 -9.05 L2.1 -8.95 2.1 -8.65 Q1.55 -7.1 2.5 -5.5 L2.6 -5.25 Q1.65 -6.15 1.75 -5.75 L0.7 -4.35 -1.7 -4.45 Q-2.45 -5.0 -4.5 -6.0 L-5.2 -6.05 -5.6 -9.35 M-0.8 -10.0 Q-2.55 -9.75 -2.65 -8.3 -2.4 -6.5 -0.9 -6.45 0.9 -6.7 0.95 -8.15 0.7 -9.95 -0.8 -10.0 M-5.15 -2.75 L-5.15 -4.9 Q-3.7 -4.25 -3.7 -3.85 L-5.15 -2.75" fill="#121718" fill-rule="evenodd" stroke="none"/>
    <path d="M-3.5 -1.35 L3.0 -1.0 4.3 -0.7 Q3.9 0.5 4.0 0.9 L0.3 1.2 Q-3.5 1.1 -3.1 0.45 -2.75 -0.2 -3.5 -1.35" fill="#0b0f0f" fill-rule="evenodd" stroke="none"/>
    <path d="M-0.8 -10.0 Q0.7 -9.95 0.95 -8.15 0.9 -6.7 -0.9 -6.45 -2.4 -6.5 -2.65 -8.3 -2.55 -9.75 -0.8 -10.0" fill="none" stroke="#0c1113" stroke-linecap="round" stroke-linejoin="round" stroke-width="1.0"/>
    <path d="M2.5 -5.5 L2.6 -5.25 M-5.2 -6.05 L-5.6 -9.35 M4.3 -0.7 Q3.9 0.5 4.0 0.9 L0.3 1.2 Q-3.5 1.1 -3.1 0.45 -2.75 -0.2 -3.5 -1.35 M-5.15 -2.75 L-5.15 -4.9" fill="none" stroke="#070a0a" stroke-linecap="round" stroke-linejoin="round" stroke-width="1.0"/>
    <path d="M10.45 -11.3 L10.25 -11.8 6.05 -12.15 1.85 -11.65 1.9 -11.35 2.1 -8.95 2.05 -9.05 Q1.7 -10.95 0.75 -11.5 -1.7 -12.65 -2.8 -11.45 L-4.15 -9.8 Q-4.7 -9.5 -5.6 -9.35 L-6.95 -9.25 -9.9 -9.45 Q-6.95 -10.95 -7.2 -11.7 L-12.45 -12.65 Q-10.0 -13.7 -7.5 -14.9 -4.35 -18.0 -0.45 -18.55 4.4 -19.05 6.6 -17.2 L10.5 -14.35 Q10.2 -12.85 10.45 -11.3" fill="url(#gradient0)" fill-rule="evenodd" stroke="none"/>
    <path d="M10.25 -3.95 Q10.25 -2.95 9.9 -2.55 7.8 -0.2 4.3 -0.7 L3.0 -1.0 -3.5 -1.35 -8.95 -1.35 Q-6.7 -1.85 -5.15 -2.75 L-3.7 -3.85 Q-3.7 -4.25 -5.15 -4.9 L-5.65 -5.1 Q-8.15 -5.9 -9.0 -6.4 L-5.2 -6.05 -4.5 -6.0 Q-2.45 -5.0 -1.7 -4.45 L0.7 -4.35 1.75 -5.75 Q1.65 -6.15 2.6 -5.25 L2.85 -5.05 3.35 -4.55 Q4.6 -3.4 6.3 -3.3 L6.35 -3.3 8.3 -3.5 10.25 -3.95" fill="url(#gradient1)" fill-rule="evenodd" stroke="none"/>
    <path d="M10.45 -11.3 Q10.2 -12.85 10.5 -14.35 L6.6 -17.2 Q4.4 -19.05 -0.45 -18.55 -4.35 -18.0 -7.5 -14.9 -10.0 -13.7 -12.45 -12.65 L-7.2 -11.7 Q-6.95 -10.95 -9.9 -9.45 L-6.95 -9.25 -5.6 -9.35 Q-4.7 -9.5 -4.15 -9.8 L-2.8 -11.45 Q-1.7 -12.65 0.75 -11.5 1.7 -10.95 2.05 -9.05 L2.1 -8.95 M2.85 -5.05 L2.6 -5.25 Q1.65 -6.15 1.75 -5.75 L0.7 -4.35 -1.7 -4.45 Q-2.45 -5.0 -4.5 -6.0 L-5.2 -6.05 -9.0 -6.4 Q-8.15 -5.9 -5.65 -5.1 L-5.15 -4.9 Q-3.7 -4.25 -3.7 -3.85 L-5.15 -2.75 Q-6.7 -1.85 -8.95 -1.35 L-3.5 -1.35 3.0 -1.0 4.3 -0.7 Q7.8 -0.2 9.9 -2.55 10.25 -2.95 10.25 -3.95" fill="none" stroke="#070a0a" stroke-linecap="round" stroke-linejoin="round" stroke-width="1.0"/>
    <path d="M1.9 -11.35 L1.85 -11.65 6.05 -12.15 10.25 -11.8 10.45 -11.3 Q11.1 -9.4 11.15 -8.2 11.25 -6.85 10.35 -4.0 L10.25 -3.95 8.3 -3.5 6.35 -3.3 6.3 -3.3 Q4.6 -3.4 3.35 -4.55 L2.85 -5.05 2.65 -5.3 2.5 -5.5 Q1.55 -7.1 2.1 -8.65 L2.1 -8.95 1.9 -11.35" fill="url(#gradient2)" fill-rule="evenodd" stroke="none"/>
    <path d="M1.9 -11.35 L1.85 -11.65 6.05 -12.15 10.25 -11.8 10.45 -11.3 Q11.1 -9.4 11.15 -8.2 11.25 -6.85 10.35 -4.0 L10.25 -3.95 8.3 -3.5 6.35 -3.3 6.3 -3.3 Q4.6 -3.4 3.35 -4.55 L2.85 -5.05 2.65 -5.3 2.5 -5.5 Q1.55 -7.1 2.1 -8.65 L2.1 -8.95 1.9 -11.35 Z" fill="none" stroke="#0e1012" stroke-linecap="round" stroke-linejoin="round" stroke-width="1.0"/>
  </g>
  <defs>
    <linearGradient gradientTransform="matrix(0.0141, 0.0, 0.0, 0.0061, -0.9, -13.65)" gradientUnits="userSpaceOnUse" id="gradient0" spreadMethod="pad" x1="-819.2" x2="819.2">
      <stop offset="0.0" stop-color="#152026"/>
      <stop offset="1.0" stop-color="#425668"/>
    </linearGradient>
    <linearGradient gradientTransform="matrix(0.0117, 0.0, 0.0, 0.0035, 0.6, -3.5)" gradientUnits="userSpaceOnUse" id="gradient1" spreadMethod="pad" x1="-819.2" x2="819.2">
      <stop offset="0.0" stop-color="#152026"/>
      <stop offset="1.0" stop-color="#425668"/>
    </linearGradient>
    <linearGradient gradientTransform="matrix(0.0057, 0.0, 0.0, 0.0054, 6.5, -7.75)" gradientUnits="userSpaceOnUse" id="gradient2" spreadMethod="pad" x1="-819.2" x2="819.2">
      <stop offset="0.0" stop-color="#2c6487"/>
      <stop offset="1.0" stop-color="#418dbf"/>
    </linearGradient>
  </defs>
</svg>
