<?xml version="1.0" encoding="UTF-8" standalone="no"?>
<svg xmlns:xlink="http://www.w3.org/1999/xlink" height="10.8px" width="10.55px" xmlns="http://www.w3.org/2000/svg">
  <g transform="matrix(1.0, 0.0, 0.0, 1.0, 5.5, 6.35)">
    <path d="M4.55 -1.65 Q4.65 2.05 2.85 3.15 1.05 4.2 -1.05 3.9 -3.15 3.6 -4.25 1.75 -5.4 -0.15 -4.8 -3.2 -4.25 -6.25 0.15 -5.8 4.5 -5.35 4.55 -1.65" fill="#89877b" fill-rule="evenodd" stroke="none"/>
    <path d="M4.55 -1.65 Q4.65 2.05 2.85 3.15 1.05 4.2 -1.05 3.9 -3.15 3.6 -4.25 1.75 -5.4 -0.15 -4.8 -3.2 -4.25 -6.25 0.15 -5.8 4.5 -5.35 4.55 -1.65 Z" fill="none" stroke="#4b4b3e" stroke-linecap="round" stroke-linejoin="round" stroke-width="1.0"/>
  </g>
</svg>
