<?xml version="1.0" encoding="UTF-8" standalone="no"?>
<svg xmlns:xlink="http://www.w3.org/1999/xlink" height="20.0px" width="22.95px" xmlns="http://www.w3.org/2000/svg">
  <g transform="matrix(1.0, 0.0, 0.0, 1.0, 8.15, 17.4)">
    <path d="M-6.45 -10.2 L-6.65 -10.5 -7.05 -12.25 -4.4 -13.45 -3.2 -15.3 0.85 -16.0 0.05 -13.95 -0.55 -12.85 -0.55 -12.8 -0.6 -12.8 -0.55 -12.75 -0.25 -12.2 -0.15 -12.05 0.45 -10.85 1.05 -10.1 0.6 -10.1 0.05 -10.05 Q-0.75 -9.9 -1.35 -9.35 L-2.2 -7.85 -2.25 -7.45 -2.3 -7.4 -3.25 -7.45 -5.0 -8.1 -6.45 -10.2 M-3.75 -9.35 L-5.0 -11.7 -3.75 -9.35 M-2.0 -10.3 L-3.25 -12.65 -2.0 -10.3" fill="#3b3a30" fill-rule="evenodd" stroke="none"/>
    <path d="M0.85 -16.0 L0.95 -16.3 0.95 -16.6 1.7 -16.9 5.7 -15.9 8.4 -14.9 10.6 -12.25 12.35 -12.3 14.0 -10.4 14.3 -9.6 10.8 -9.8 7.25 -10.05 5.65 -10.55 3.65 -9.8 3.35 -9.7 3.15 -9.65 2.7 -9.3 Q2.15 -9.85 1.6 -10.0 L1.05 -10.1 0.45 -10.85 -0.15 -12.05 -0.25 -12.2 -0.55 -12.75 -0.6 -12.8 -0.55 -12.8 -0.2 -13.4 0.05 -13.95 0.85 -16.0 M10.4 -3.6 L12.05 -4.05 12.5 -3.65 12.7 -0.1 12.0 0.0 10.4 -0.55 10.35 -1.3 9.95 -2.2 9.2 -2.7 8.35 -2.75 7.6 -2.35 7.1 -1.55 7.1 -0.8 6.45 -0.75 5.5 -0.35 1.6 -0.1 -1.35 -0.4 -0.4 -3.8 2.0 -3.7 Q3.25 -4.25 3.6 -5.55 L3.7 -5.8 4.0 -5.9 5.1 -5.35 5.3 -5.25 7.9 -3.95 10.4 -3.6 M9.65 -12.15 Q6.35 -15.1 1.45 -15.45 6.35 -15.1 9.65 -12.15" fill="url(#gradient0)" fill-rule="evenodd" stroke="none"/>
    <path d="M10.8 -9.8 L11.95 -6.9 Q12.0 -6.2 11.7 -5.45 L10.65 -3.85 10.4 -3.6 7.9 -3.95 5.3 -5.25 5.1 -5.35 4.0 -5.9 3.75 -6.05 3.75 -6.25 3.8 -6.75 3.7 -7.45 2.95 -9.05 2.7 -9.3 3.15 -9.65 3.2 -9.65 3.55 -9.75 3.65 -9.8 5.65 -10.55 7.25 -10.05 10.8 -9.8" fill="url(#gradient1)" fill-rule="evenodd" stroke="none"/>
    <path d="M3.35 -9.7 L3.65 -9.8 3.55 -9.75 3.35 -9.7" fill="url(#gradient2)" fill-rule="evenodd" stroke="none"/>
    <path d="M3.15 -9.65 L3.35 -9.7 3.2 -9.65 3.15 -9.65 M3.7 -5.8 L3.75 -6.05 4.0 -5.9 3.7 -5.8" fill="#605e4d" fill-rule="evenodd" stroke="none"/>
    <path d="M7.15 -0.45 L6.95 -0.45 6.45 -0.2 7.2 1.55 4.65 2.1 0.45 1.8 -1.9 1.05 -1.35 -0.4 1.6 -0.1 5.5 -0.35 6.45 -0.75 7.1 -0.8 7.15 -0.45" fill="#343430" fill-rule="evenodd" stroke="none"/>
    <path d="M10.4 -0.55 L10.35 -0.35 10.3 -0.3 Q10.05 0.45 9.4 0.7 L8.15 0.65 7.25 -0.2 7.15 -0.45 7.1 -0.8 7.1 -1.55 7.6 -2.35 8.35 -2.75 9.2 -2.7 9.95 -2.2 10.35 -1.3 10.4 -0.55" fill="#535450" fill-rule="evenodd" stroke="none"/>
    <path d="M-1.35 -0.4 L-4.95 -2.55 -5.95 -3.7 -5.5 -4.65 Q-5.2 -5.2 -5.8 -6.1 -6.3 -6.8 -7.25 -6.8 L-7.6 -7.95 Q-7.75 -8.65 -7.4 -8.95 -7.05 -9.2 -6.85 -9.6 L-6.45 -10.2 -5.0 -8.1 -3.25 -7.45 -2.3 -7.4 -2.25 -7.35 Q-2.35 -6.65 -2.1 -5.9 L-1.9 -5.4 -1.3 -4.5 -0.4 -3.8 -1.35 -0.4 M-2.1 -5.9 L-3.25 -7.45 -2.1 -5.9" fill="#23241f" fill-rule="evenodd" stroke="none"/>
    <path d="M0.85 -16.0 L0.95 -16.3 0.95 -16.6 M14.3 -9.6 L10.8 -9.8 M0.85 -16.0 L0.05 -13.95 -0.2 -13.4 -0.55 -12.8 -0.6 -12.8 -0.55 -12.75 -0.25 -12.2 -0.15 -12.05 0.45 -10.85 1.05 -10.1 M3.15 -9.65 L3.35 -9.7 3.65 -9.8 M4.0 -5.9 L3.7 -5.8 M5.5 -0.35 L6.45 -0.75 7.1 -0.8 M-0.2 -13.4 L-0.55 -12.85 0.05 -13.95" fill="none" stroke="#444337" stroke-linecap="round" stroke-linejoin="round" stroke-width="1.0"/>
    <path d="M0.95 -16.6 L1.7 -16.9 5.7 -15.9 8.4 -14.9 10.6 -12.25 12.35 -12.3 14.0 -10.4 14.3 -9.6 M12.5 -3.65 L12.7 -0.1 12.0 0.0 10.4 -0.55" fill="none" stroke="#333229" stroke-linecap="round" stroke-linejoin="round" stroke-width="1.0"/>
    <path d="M10.8 -9.8 L11.95 -6.9 Q12.0 -6.2 11.7 -5.45 L10.65 -3.85 10.4 -3.6 7.9 -3.95 5.3 -5.25 5.1 -5.35 4.0 -5.9 3.75 -6.05 M2.7 -9.3 L3.15 -9.65 3.2 -9.65 3.35 -9.7 3.55 -9.75 3.65 -9.8 5.65 -10.55 7.25 -10.05 10.8 -9.8" fill="none" stroke="#543927" stroke-linecap="round" stroke-linejoin="round" stroke-width="1.0"/>
    <path d="M10.4 -0.55 L10.35 -0.35 10.3 -0.3 Q10.05 0.45 9.4 0.7 L8.15 0.65 7.25 -0.2 7.15 -0.45 7.1 -0.8 7.1 -1.55 7.6 -2.35 8.35 -2.75 9.2 -2.7 9.95 -2.2 10.35 -1.3 10.4 -0.55" fill="none" stroke="#3d3d39" stroke-linecap="round" stroke-linejoin="round" stroke-width="1.0"/>
    <path d="M10.4 -3.6 L12.05 -4.05 12.5 -3.65" fill="none" stroke="#37362f" stroke-linecap="round" stroke-linejoin="round" stroke-width="1.0"/>
    <path d="M1.45 -15.45 Q6.35 -15.1 9.65 -12.15" fill="none" stroke="#565545" stroke-linecap="round" stroke-linejoin="round" stroke-width="1.0"/>
    <path d="M6.45 -0.2 L7.2 1.55 4.65 2.1 0.45 1.8 -1.9 1.05 -1.35 -0.4" fill="none" stroke="#1c1c17" stroke-linecap="round" stroke-linejoin="round" stroke-width="1.0"/>
    <path d="M-6.45 -10.2 L-6.65 -10.5 -7.05 -12.25 -4.4 -13.45 -3.2 -15.3 0.85 -16.0 M-2.25 -7.45 L-2.3 -7.4 -3.25 -7.45" fill="none" stroke="#2d2b24" stroke-linecap="round" stroke-linejoin="round" stroke-width="1.0"/>
    <path d="M-6.45 -10.2 L-5.0 -8.1 -3.25 -7.45" fill="none" stroke="#191813" stroke-linecap="round" stroke-linejoin="round" stroke-width="1.0"/>
    <path d="M-5.0 -11.7 L-3.75 -9.35" fill="none" stroke="#2d2c24" stroke-linecap="round" stroke-linejoin="round" stroke-width="1.0"/>
    <path d="M-1.35 -0.4 L-4.95 -2.55 -5.95 -3.7 -5.5 -4.65 Q-5.2 -5.2 -5.8 -6.1 -6.3 -6.8 -7.25 -6.8 L-7.6 -7.95 Q-7.75 -8.65 -7.4 -8.95 -7.05 -9.2 -6.85 -9.6 L-6.45 -10.2 M-3.25 -7.45 L-2.1 -5.9" fill="none" stroke="#1a1a17" stroke-linecap="round" stroke-linejoin="round" stroke-width="1.0"/>
    <path d="M-3.25 -12.65 L-2.0 -10.3" fill="none" stroke="#26251f" stroke-linecap="round" stroke-linejoin="round" stroke-width="1.0"/>
    <path d="M3.8 -6.75 L3.75 -6.25 3.75 -6.05 3.7 -5.8 3.6 -5.55 Q3.25 -4.25 2.0 -3.7 L-0.4 -3.8 -1.3 -4.5 -1.9 -5.4 -2.1 -5.9 Q-2.35 -6.65 -2.25 -7.35 L-2.25 -7.45 -2.2 -7.85 -1.35 -9.35 Q-0.75 -9.9 0.05 -10.05 L0.6 -10.1 1.05 -10.1 1.6 -10.0 Q2.15 -9.85 2.7 -9.3 L2.95 -9.05 3.7 -7.45 3.8 -6.75 -1.85 -6.9 3.8 -6.75" fill="#4c4c4c" fill-rule="evenodd" stroke="none"/>
    <path d="M3.8 -6.75 L3.7 -7.45 2.95 -9.05 2.7 -9.3 Q2.15 -9.85 1.6 -10.0 L1.05 -10.1 0.6 -10.1 0.05 -10.05 Q-0.75 -9.9 -1.35 -9.35 L-2.2 -7.85 -2.25 -7.45 -2.25 -7.35 Q-2.35 -6.65 -2.1 -5.9 L-1.9 -5.4 -1.3 -4.5 -0.4 -3.8 2.0 -3.7 Q3.25 -4.25 3.6 -5.55 L3.7 -5.8 3.75 -6.05 3.75 -6.25 3.8 -6.75" fill="none" stroke="#393a38" stroke-linecap="round" stroke-linejoin="round" stroke-width="1.0"/>
    <path d="M3.8 -6.75 L-1.85 -6.9" fill="none" stroke="#6e6e6e" stroke-linecap="round" stroke-linejoin="round" stroke-width="1.0"/>
    <path d="M6.15 -1.8 L5.9 -1.2 5.5 -0.7 5.15 -0.35 Q4.3 0.35 3.25 0.45 L-0.7 0.0 -0.9 -0.05 -1.25 -0.2 Q-2.6 -0.85 -3.4 -1.85 L-4.25 -3.25 -4.55 -3.8 -4.6 -4.35 -4.15 -4.75 Q-3.7 -4.75 -3.2 -4.1 L-2.45 -2.7 Q-2.05 -2.15 -1.25 -1.75 L-0.85 -1.55 0.25 -1.2 0.55 -1.15 3.0 -1.05 Q3.7 -1.25 4.7 -2.0 5.2 -2.4 5.6 -2.3 L6.15 -1.8" fill="#7e8470" fill-rule="evenodd" stroke="none"/>
    <path d="M6.15 -1.8 L5.9 -1.2 5.5 -0.7 5.15 -0.35 Q4.3 0.35 3.25 0.45 L-0.7 0.0 -0.9 -0.05 -1.25 -0.2 Q-2.6 -0.85 -3.4 -1.85 L-4.25 -3.25 -4.55 -3.8 -4.6 -4.35 -4.15 -4.75 Q-3.7 -4.75 -3.2 -4.1 L-2.45 -2.7 Q-2.05 -2.15 -1.25 -1.75 L-0.85 -1.55 0.25 -1.2 0.55 -1.15 3.0 -1.05 Q3.7 -1.25 4.7 -2.0 5.2 -2.4 5.6 -2.3 L6.15 -1.8 Z" fill="none" stroke="#45483d" stroke-linecap="round" stroke-linejoin="round" stroke-width="1.0"/>
  </g>
  <defs>
    <radialGradient cx="0" cy="0" gradientTransform="matrix(0.0199, 0.0, 0.0, 0.0199, 4.4, -7.9)" gradientUnits="userSpaceOnUse" id="gradient0" r="819.2" spreadMethod="pad">
      <stop offset="0.0" stop-color="#696754"/>
      <stop offset="0.5411764705882353" stop-color="#5c5a4a"/>
      <stop offset="0.8" stop-color="#565445"/>
      <stop offset="1.0" stop-color="#4f4d3f"/>
    </radialGradient>
    <radialGradient cx="0" cy="0" gradientTransform="matrix(0.013, 0.0, 0.0, 0.013, 1.7, -6.6)" gradientUnits="userSpaceOnUse" id="gradient1" r="819.2" spreadMethod="pad">
      <stop offset="0.1568627450980392" stop-color="#c3300e"/>
      <stop offset="1.0" stop-color="#d3a476" stop-opacity="0.99215686"/>
    </radialGradient>
    <linearGradient gradientTransform="matrix(0.0068, 0.0, 0.0, 0.0078, 7.45, -7.2)" gradientUnits="userSpaceOnUse" id="gradient2" spreadMethod="pad" x1="-819.2" x2="819.2">
      <stop offset="0.0" stop-color="#c3300e"/>
      <stop offset="1.0" stop-color="#d3a476" stop-opacity="0.99215686"/>
    </linearGradient>
  </defs>
</svg>
