<?xml version="1.0" encoding="UTF-8" standalone="no"?>
<svg xmlns:xlink="http://www.w3.org/1999/xlink" height="26.15px" width="17.8px" xmlns="http://www.w3.org/2000/svg">
  <g transform="matrix(1.0, 0.0, 0.0, 1.0, 7.9, 29.75)">
    <path d="M-5.8 -10.55 Q-6.55 -12.95 -6.9 -16.2 -7.65 -22.85 -6.85 -26.0 -6.2 -28.5 -3.8 -29.0 L1.3 -29.25 Q5.5 -29.0 6.95 -27.0 L7.85 -25.25 7.15 -25.35 Q5.75 -25.35 3.7 -24.6 1.65 -23.9 2.0 -21.25 L2.45 -15.55 Q2.55 -12.55 5.2 -10.9 6.2 -10.3 6.95 -10.35 L6.4 -9.15 Q5.95 -9.45 5.1 -9.55 4.05 -9.65 3.55 -9.25 L3.5 -9.25 Q2.15 -9.35 1.65 -8.65 L-2.3 -9.45 Q-2.6 -10.4 -4.1 -10.55 L-5.3 -10.45 -5.8 -10.55 M2.25 -5.2 L2.3 -5.1 2.55 -4.7 1.05 -4.2 Q-1.0 -3.8 -2.6 -5.05 L-3.35 -5.7 -3.15 -6.05 -0.7 -5.5 2.25 -5.2" fill="#000033" fill-rule="evenodd" stroke="none"/>
    <path d="M-5.3 -10.45 L-4.1 -10.55 Q-2.6 -10.4 -2.3 -9.45 L-2.25 -9.3 Q-2.1 -8.2 -3.1 -6.15 L-3.15 -6.05 -3.35 -5.7 Q-4.25 -4.45 -5.3 -6.4 L-5.55 -6.85 Q-6.5 -8.8 -6.1 -9.65 -5.9 -10.25 -5.3 -10.45 M1.65 -8.65 Q2.15 -9.35 3.5 -9.25 L3.55 -9.25 Q4.05 -9.65 5.1 -9.55 5.95 -9.45 6.4 -9.15 L6.95 -8.3 Q7.1 -7.2 6.1 -5.15 5.3 -3.6 4.4 -4.65 L2.55 -4.7 2.3 -5.1 2.25 -5.2 Q1.05 -7.4 1.5 -8.35 L1.65 -8.65 M6.95 -10.35 Q6.2 -10.3 5.2 -10.9 2.55 -12.55 2.45 -15.55 L2.0 -21.25 Q1.65 -23.9 3.7 -24.6 5.75 -25.35 7.15 -25.35 L7.85 -25.25 Q8.7 -24.9 9.1 -23.55 9.55 -21.75 9.3 -18.55 9.05 -15.35 8.45 -12.3 8.05 -10.5 6.95 -10.35 M3.55 -9.25 Q5.1 -9.1 5.35 -8.0 5.5 -6.9 4.5 -4.85 L4.4 -4.65 4.5 -4.85 Q5.5 -6.9 5.35 -8.0 5.1 -9.1 3.55 -9.25" fill="#514d80" fill-rule="evenodd" stroke="none"/>
    <path d="M-5.8 -10.55 L-5.3 -10.45 Q-5.9 -10.25 -6.1 -9.65 -6.5 -8.8 -5.55 -6.85 -6.5 -7.3 -6.8 -7.8 -7.7 -9.1 -7.25 -10.1 -7.0 -10.7 -5.8 -10.55 M-2.3 -9.45 L1.65 -8.65 1.5 -8.35 Q1.05 -7.4 2.25 -5.2 L-0.7 -5.5 -3.15 -6.05 -3.1 -6.15 Q-2.1 -8.2 -2.25 -9.3 L-2.3 -9.45" fill="#2f2d4a" fill-rule="evenodd" stroke="none"/>
    <path d="M6.4 -9.15 L6.95 -10.35" fill="none" stroke="#000000" stroke-linecap="round" stroke-linejoin="round" stroke-width="1.0"/>
    <path d="M3.5 -9.25 L3.55 -9.25 Q5.1 -9.1 5.35 -8.0 5.5 -6.9 4.5 -4.85 L4.4 -4.65 M7.15 -25.35 L7.85 -25.25 Q8.7 -24.9 9.1 -23.55 9.55 -21.75 9.3 -18.55 9.05 -15.35 8.45 -12.3 8.05 -10.5 6.95 -10.35 M1.65 -8.65 L1.5 -8.35 Q1.05 -7.4 2.25 -5.2 L2.3 -5.1 2.55 -4.7 M-3.15 -6.05 L-3.1 -6.15 Q-2.1 -8.2 -2.25 -9.3 L-2.3 -9.45 M-5.55 -6.85 Q-6.5 -8.8 -6.1 -9.65 -5.9 -10.25 -5.3 -10.45 M-5.55 -6.85 L-5.3 -6.4 M-3.35 -5.7 L-3.15 -6.05" fill="none" stroke="#1f1d31" stroke-linecap="round" stroke-linejoin="round" stroke-width="1.0"/>
    <path d="M7.85 -25.25 L6.95 -27.0 Q5.5 -29.0 1.3 -29.25 L-3.8 -29.0 Q-6.2 -28.5 -6.85 -26.0 -7.65 -22.85 -6.9 -16.2 -6.55 -12.95 -5.8 -10.55 L-5.3 -10.45 -4.1 -10.55 Q-2.6 -10.4 -2.3 -9.45 L1.65 -8.65 Q2.15 -9.35 3.5 -9.25 M3.55 -9.25 Q4.05 -9.65 5.1 -9.55 5.95 -9.45 6.4 -9.15 L6.95 -8.3 Q7.1 -7.2 6.1 -5.15 5.3 -3.6 4.4 -4.65 L2.55 -4.7 1.05 -4.2 Q-1.0 -3.8 -2.6 -5.05 L-3.35 -5.7 Q-4.25 -4.45 -5.3 -6.4 M6.95 -10.35 Q6.2 -10.3 5.2 -10.9 2.55 -12.55 2.45 -15.55 L2.0 -21.25 Q1.65 -23.9 3.7 -24.6 5.75 -25.35 7.15 -25.35 M-5.8 -10.55 Q-7.0 -10.7 -7.25 -10.1 -7.7 -9.1 -6.8 -7.8 -6.5 -7.3 -5.55 -6.85 M-3.15 -6.05 L-0.7 -5.5 2.25 -5.2" fill="none" stroke="#000017" stroke-linecap="round" stroke-linejoin="round" stroke-width="1.0"/>
  </g>
</svg>
