<?xml version="1.0" encoding="UTF-8" standalone="no"?>
<svg xmlns:ffdec="https://www.free-decompiler.com/flash" xmlns:xlink="http://www.w3.org/1999/xlink" ffdec:objectType="shape" height="22.55px" width="19.5px" xmlns="http://www.w3.org/2000/svg">
  <g transform="matrix(1.0, 0.0, 0.0, 1.0, 0.5, 0.5)">
    <path d="M12.9 3.5 Q13.35 3.0 14.35 2.8 L15.75 4.45 15.15 6.4 12.4 8.2 11.85 7.45 11.75 7.25 Q13.05 5.5 12.9 3.5" fill="#ff0000" fill-rule="evenodd" stroke="none"/>
    <path d="M1.35 4.3 L0.5 2.25 Q0.5 1.15 1.75 0.55 5.1 1.05 8.1 0.0 L10.15 2.5 Q7.35 5.2 4.65 5.2 2.85 5.35 1.7 4.2 L1.35 4.3" fill="url(#gradient0)" fill-rule="evenodd" stroke="none"/>
    <path d="M10.15 2.5 L11.2 2.0 12.9 3.5 Q13.05 5.5 11.75 7.25 L11.85 7.45 6.5 8.8 Q5.25 9.55 5.2 10.95 L4.85 11.55 Q3.35 11.8 2.25 10.75 L0.0 4.45 1.35 4.3 1.7 4.2 Q2.85 5.35 4.65 5.2 7.35 5.2 10.15 2.5 M3.95 9.55 L3.7 9.55 3.95 9.55 M10.15 6.4 L9.9 6.4 10.15 6.4" fill="url(#gradient1)" fill-rule="evenodd" stroke="none"/>
    <path d="M18.15 16.15 Q18.8 18.15 18.3 20.55 17.85 21.3 16.85 21.5 15.6 21.8 14.95 20.65 L14.4 17.85 18.15 16.15" fill="url(#gradient2)" fill-rule="evenodd" stroke="none"/>
    <path d="M17.2 13.85 L18.2 15.3 18.15 16.15 14.4 17.85 13.9 18.1 12.6 16.7 Q15.1 16.0 17.2 13.85" fill="url(#gradient3)" fill-rule="evenodd" stroke="none"/>
    <path d="M15.15 6.4 L16.3 9.6 17.95 11.75 18.0 12.95 17.2 13.85 Q15.1 16.0 12.6 16.7 L12.15 16.8 5.2 10.95 Q5.25 9.55 6.5 8.8 L11.85 7.45 12.4 8.2 15.15 6.4 M16.4 12.25 L16.15 12.25 16.4 12.25 M7.4 10.3 L7.15 10.3 7.4 10.3" fill="url(#gradient4)" fill-rule="evenodd" stroke="none"/>
    <path d="M10.15 2.5 L11.2 2.0 12.9 3.5 M15.15 6.4 L16.3 9.6 17.95 11.75 18.0 12.95 17.2 13.85 18.2 15.3 18.15 16.15 Q18.8 18.15 18.3 20.55 17.85 21.3 16.85 21.5 15.6 21.8 14.95 20.65 L14.4 17.85 13.9 18.1 12.6 16.7 12.15 16.8 5.2 10.95 4.85 11.55 Q3.35 11.8 2.25 10.75 L0.0 4.45 1.35 4.3 0.5 2.25 Q0.5 1.15 1.75 0.55 5.1 1.05 8.1 0.0 L10.15 2.5 Q7.35 5.2 4.65 5.2 2.85 5.35 1.7 4.2 L1.35 4.3 M11.85 7.45 L6.5 8.8 Q5.25 9.55 5.2 10.95 M11.75 7.25 L11.85 7.45 M17.2 13.85 Q15.1 16.0 12.6 16.7 M14.4 17.85 L18.15 16.15" fill="none" stroke="#020202" stroke-linecap="round" stroke-linejoin="round" stroke-width="1.0"/>
    <path d="M12.9 3.5 Q13.35 3.0 14.35 2.8 L15.75 4.45 15.15 6.4 12.4 8.2 11.85 7.45 M11.75 7.25 Q13.05 5.5 12.9 3.5" fill="none" stroke="#230000" stroke-linecap="round" stroke-linejoin="round" stroke-width="1.0"/>
    <path d="M16.15 12.25 L16.4 12.25 M3.7 9.55 L3.95 9.55 M7.15 10.3 L7.4 10.3 M9.9 6.4 L10.15 6.4" fill="none" stroke="#000000" stroke-linecap="round" stroke-linejoin="round" stroke-width="1.0"/>
  </g>
  <defs>
    <radialGradient cx="0" cy="0" fx="192.0" fy="0" gradientTransform="matrix(0.0133, 0.0, 0.0, 0.0133, 11.55, -2.35)" gradientUnits="userSpaceOnUse" id="gradient0" r="819.2" spreadMethod="pad">
      <stop offset="0.0" stop-color="#2e2e2e"/>
      <stop offset="1.0" stop-color="#020202"/>
      <stop offset="1.0" stop-color="#0e0d0d"/>
    </radialGradient>
    <radialGradient cx="0" cy="0" fx="192.0" fy="0" gradientTransform="matrix(0.0317, 0.0, 0.0, 0.0317, 15.45, -1.2)" gradientUnits="userSpaceOnUse" id="gradient1" r="819.2" spreadMethod="pad">
      <stop offset="0.0" stop-color="#2e2e2e"/>
      <stop offset="1.0" stop-color="#020202"/>
      <stop offset="1.0" stop-color="#0e0d0d"/>
    </radialGradient>
    <radialGradient cx="0" cy="0" fx="192.0" fy="0" gradientTransform="matrix(0.0133, 0.0, 0.0, 0.0133, 22.65, 17.15)" gradientUnits="userSpaceOnUse" id="gradient2" r="819.2" spreadMethod="pad">
      <stop offset="0.0" stop-color="#2e2e2e"/>
      <stop offset="1.0" stop-color="#020202"/>
      <stop offset="1.0" stop-color="#0e0d0d"/>
    </radialGradient>
    <radialGradient cx="0" cy="0" fx="192.0" fy="0" gradientTransform="matrix(0.0185, 0.0, 0.0, 0.0185, 21.9, 13.05)" gradientUnits="userSpaceOnUse" id="gradient3" r="819.2" spreadMethod="pad">
      <stop offset="0.0" stop-color="#2e2e2e"/>
      <stop offset="1.0" stop-color="#020202"/>
      <stop offset="1.0" stop-color="#0e0d0d"/>
    </radialGradient>
    <radialGradient cx="0" cy="0" fx="192.0" fy="0" gradientTransform="matrix(0.0328, 0.0, 0.0, 0.0328, 24.5, 5.85)" gradientUnits="userSpaceOnUse" id="gradient4" r="819.2" spreadMethod="pad">
      <stop offset="0.0" stop-color="#2e2e2e"/>
      <stop offset="1.0" stop-color="#020202"/>
      <stop offset="1.0" stop-color="#0e0d0d"/>
    </radialGradient>
  </defs>
</svg>
