<?xml version="1.0" encoding="UTF-8" standalone="no"?>
<svg xmlns:ffdec="https://www.free-decompiler.com/flash" xmlns:xlink="http://www.w3.org/1999/xlink" ffdec:objectType="shape" height="9.35px" width="33.5px" xmlns="http://www.w3.org/2000/svg">
  <g transform="matrix(1.0, 0.0, 0.0, 1.0, -1.05, 0.5)">
    <path d="M21.85 2.2 L13.1 2.2 9.45 4.65 1.55 4.65 2.2 2.45 8.6 2.45 12.4 0.0 26.15 0.0 28.45 0.6 29.4 0.1 32.75 2.95 Q34.45 5.65 33.95 8.35 33.3 4.85 26.8 2.65 L22.75 3.6 21.85 2.2 M21.15 5.45 L12.0 5.45 14.25 3.85 20.5 3.85 21.15 5.45" fill="#ffffff" fill-rule="evenodd" stroke="none"/>
    <path d="M21.15 5.45 L12.0 5.45 14.25 3.85 20.5 3.85 21.15 5.45 M21.85 2.2 L13.1 2.2 9.45 4.65 1.55 4.65 2.2 2.45 8.6 2.45 12.4 0.0 26.15 0.0 28.45 0.6 29.4 0.1 32.75 2.95 Q34.45 5.65 33.95 8.35 33.3 4.85 26.8 2.65 L22.75 3.6 21.85 2.2 Z" fill="none" stroke="#cccccc" stroke-linecap="round" stroke-linejoin="round" stroke-width="1.0"/>
  </g>
</svg>
