<?xml version="1.0" encoding="UTF-8" standalone="no"?>
<svg xmlns:ffdec="https://www.free-decompiler.com/flash" xmlns:xlink="http://www.w3.org/1999/xlink" ffdec:objectType="shape" height="13.25px" width="25.45px" xmlns="http://www.w3.org/2000/svg">
  <g transform="matrix(1.0, 0.0, 0.0, 1.0, 1.3, 2.05)">
    <path d="M5.1 -0.5 L5.1 -0.55 Q11.1 -2.45 16.9 -0.7 L16.9 4.15 16.15 4.45 Q13.0 6.3 9.7 6.95 L9.35 7.0 8.65 6.6 5.1 4.6 5.1 -0.5 M3.5 10.0 L0.35 9.1 Q-1.15 6.1 -0.65 3.05 L1.1 1.9 1.15 6.3 3.5 7.65 3.5 10.0 M7.55 2.6 L13.45 1.65 13.45 0.0 Q10.9 -0.75 7.55 0.5 L7.55 2.6" fill="#272727" fill-rule="evenodd" stroke="none"/>
    <path d="M18.3 0.1 L18.95 -1.15 Q21.0 -1.1 22.5 0.35 L22.5 0.85 21.5 3.3 18.3 3.25 18.3 0.1" fill="#511313" fill-rule="evenodd" stroke="none"/>
    <path d="M9.7 6.95 L10.05 7.15 Q13.8 6.5 17.1 4.1 L17.1 0.15 18.3 0.1 18.3 3.25 21.5 3.3 22.5 0.85 23.65 1.7 Q23.8 4.1 22.65 4.6 20.7 5.4 19.35 5.45 L17.65 4.8 18.0 6.6 5.65 10.7 3.5 10.0 3.5 7.65 1.15 6.3 1.1 1.9 1.05 1.25 1.9 0.4 5.1 -0.5 5.1 4.6 8.65 6.6 9.35 7.0 9.7 6.95 M17.65 4.8 L17.1 4.55 17.65 4.8 M8.65 6.6 L3.5 7.65 8.65 6.6 M12.3 7.2 L7.5 8.75 12.3 7.2" fill="#1c1c1c" fill-rule="evenodd" stroke="none"/>
    <path d="M7.55 2.6 L7.55 0.5 Q10.9 -0.75 13.45 0.0 L13.45 1.65 7.55 2.6" fill="#b11818" fill-rule="evenodd" stroke="none"/>
    <path d="M5.1 -0.5 L5.1 -0.55 Q11.1 -2.45 16.9 -0.7 L16.9 4.15 16.15 4.45 Q13.0 6.3 9.7 6.95 L9.35 7.0 8.65 6.6 5.1 4.6 5.1 -0.5 1.9 0.4 1.05 1.25 1.1 1.9 1.15 6.3 3.5 7.65 8.65 6.6 M17.1 0.15 L18.3 0.1 18.95 -1.15 Q21.0 -1.1 22.5 0.35 L22.5 0.85 23.65 1.7 Q23.8 4.1 22.65 4.6 20.7 5.4 19.35 5.45 L17.65 4.8 18.0 6.6 5.65 10.7 3.5 10.0 0.35 9.1 Q-1.15 6.1 -0.65 3.05 L1.1 1.9 M22.5 0.85 L21.5 3.3 18.3 3.25 18.3 0.1 M17.1 4.55 L17.65 4.8 M3.5 7.65 L3.5 10.0" fill="none" stroke="#020202" stroke-linecap="round" stroke-linejoin="round" stroke-width="1.0"/>
    <path d="M7.55 2.6 L13.45 1.65 13.45 0.0 Q10.9 -0.75 7.55 0.5 L7.55 2.6" fill="none" stroke="#8a1010" stroke-linecap="round" stroke-linejoin="round" stroke-width="1.0"/>
    <path d="M7.5 8.75 L12.3 7.2" fill="none" stroke="#b11818" stroke-linecap="round" stroke-linejoin="round" stroke-width="1.0"/>
  </g>
</svg>
