<?xml version="1.0" encoding="UTF-8" standalone="no"?>
<svg xmlns:ffdec="https://www.free-decompiler.com/flash" xmlns:xlink="http://www.w3.org/1999/xlink" ffdec:objectType="shape" height="22.85px" width="14.6px" xmlns="http://www.w3.org/2000/svg">
  <g transform="matrix(1.0, 0.0, 0.0, 1.0, 7.7, 3.1)">
    <path d="M-0.25 3.85 L0.65 3.65 Q2.0 3.45 3.25 4.05 4.55 4.7 5.05 5.7 5.15 6.75 3.65 8.0 L0.95 9.8 0.5 13.1 Q0.05 15.8 -0.6 16.0 L-0.95 16.0 Q-1.5 15.9 -2.9 13.95 L-5.15 10.0 -3.45 8.15 Q-1.95 6.5 -2.0 6.05 -2.0 4.45 -0.25 3.85" fill="#1e1616" fill-rule="evenodd" stroke="none"/>
    <path d="M-3.15 -0.2 Q-1.75 0.3 -1.75 0.85 -1.6 1.6 -3.35 4.5 L-7.4 5.6 -7.3 2.15 -5.75 -0.15 Q-5.15 -1.0 -3.8 -0.8 -4.25 -0.65 -3.15 -0.2 M-4.45 17.25 L-1.4 16.65 Q0.45 16.25 1.75 17.4 0.45 20.15 -1.5 19.65 -3.15 19.35 -4.45 17.25" fill="#1a1010" fill-rule="evenodd" stroke="none"/>
    <path d="M6.45 -1.2 L5.55 4.95 Q5.45 5.2 4.15 4.2 2.75 3.25 2.35 3.85 L0.25 4.25 Q-1.4 4.35 -1.4 5.2 -1.45 6.2 -3.15 7.8 L-4.75 9.6 -4.35 10.5 -2.65 12.2 -1.95 15.15 -0.85 15.65 0.35 15.2 0.2 17.25 -3.1 18.05 Q-3.7 18.0 -3.75 17.1 -4.1 13.15 -6.25 10.55 L-6.5 8.6 Q-6.5 7.6 -7.45 7.55 -6.95 6.15 -5.65 5.3 L-3.6 4.3 Q-3.2 4.15 -1.85 1.35 -0.4 -1.55 0.55 -2.05 4.35 -2.35 5.6 -2.0 6.15 -1.85 6.45 -1.2" fill="url(#gradient0)" fill-rule="evenodd" stroke="none"/>
    <path d="M-6.8 11.0 Q-6.25 10.75 -5.35 11.9 -4.5 12.85 -4.4 12.55 L-4.25 16.05 Q-4.1 17.0 -4.55 17.35 L-5.65 18.1 -5.65 18.0 -6.7 14.15 Q-7.35 11.85 -6.8 11.0" fill="#211616" fill-rule="evenodd" stroke="none"/>
    <path d="M1.3 9.35 Q3.0 8.75 3.8 7.45 L5.05 4.65 Q5.25 2.95 5.8 1.0 L6.4 -1.3 5.9 -1.1 Q5.45 -0.8 5.3 -0.85 L5.5 -1.65 5.65 -2.5 Q5.4 -2.6 4.55 -2.1 L3.2 -1.35 Q2.8 -1.25 3.4 -1.95 4.05 -2.65 3.75 -2.6 L0.9 -1.8 Q-0.8 -1.25 -0.75 0.35 M0.8 9.3 L0.05 12.6 Q-0.35 14.6 0.55 16.0 L1.65 17.9 0.2 18.95 -1.35 19.15 Q-2.1 19.05 -3.65 18.35 -4.9 17.7 -5.3 17.85 -6.1 16.6 -6.5 13.95 -6.9 11.25 -6.45 9.9 -7.55 7.05 -7.05 3.85 -6.6 0.85 -5.0 -1.0 -3.65 -0.75 -3.05 -0.1 -2.7 0.25 -2.3 1.2" fill="none" stroke="#0a0707" stroke-linecap="round" stroke-linejoin="round" stroke-width="1.0"/>
    <path d="M-6.8 7.6 Q-6.85 5.65 -6.15 5.2 L-3.55 4.65 -2.65 3.15 Q-2.0 1.9 -1.9 1.2 L-1.9 1.05 -2.25 1.7 -2.1 1.35 -1.9 1.05 -1.5 0.6 Q-1.1 0.25 -0.95 0.3 L0.3 0.2 1.45 0.35 Q1.75 0.55 1.1 2.0 0.5 3.4 0.75 3.55 L1.65 3.85 1.95 3.8 2.6 3.6 2.95 3.2 3.2 3.7 4.05 4.15 4.8 4.65 4.95 4.6 Q5.55 5.0 4.8 4.65 3.8 4.6 3.2 3.7 L2.95 3.3 2.6 3.6 1.65 3.85 -1.2 4.25 Q-1.75 4.6 -1.8 5.2 -1.9 5.45 -1.2 6.55 L-0.6 7.7 -0.3 8.45 0.35 9.4 0.85 9.5 M0.35 9.4 L-0.1 9.1 -0.6 7.7 -0.85 7.35 -1.55 6.4 -2.0 6.8 Q-2.4 7.2 -2.75 7.2 -3.45 7.1 -4.95 9.65 -5.2 9.95 -4.3 11.0 -3.25 11.25 -2.5 12.1 -2.2 12.35 -2.3 13.35 L-2.25 15.1 -1.65 15.8 -1.05 15.95 Q-0.8 16.15 0.0 15.25 M-6.7 8.6 Q-6.6 10.25 -5.95 11.5 -5.25 12.75 -4.25 12.85 L-3.8 16.45 M0.9 16.6 Q0.6 16.45 -0.05 17.0 -0.75 17.5 -1.0 17.5 L-3.85 16.85 Q-4.8 16.75 -4.5 17.6" fill="none" stroke="#0f0a0a" stroke-linecap="round" stroke-linejoin="round" stroke-width="1.0"/>
    <path d="M1.85 4.05 L3.0 6.3 Q3.65 7.4 3.55 7.8 L3.2 8.65 2.35 8.75 -0.05 4.15" fill="none" stroke="#110606" stroke-linecap="round" stroke-linejoin="round" stroke-opacity="0.5568628" stroke-width="1.0"/>
    <path d="M-0.85 10.0 L-2.25 9.7" fill="none" stroke="#f7a08e" stroke-linecap="round" stroke-linejoin="round" stroke-width="1.0"/>
    <path d="M-0.95 12.65 L-2.2 12.35" fill="none" stroke="#f7a08e" stroke-linecap="round" stroke-linejoin="round" stroke-width="1.0"/>
    <path d="M4.65 3.0 L4.6 2.05 2.7 1.75 2.2 2.5 M2.7 1.75 L3.85 0.0 4.35 0.15 4.6 2.05" fill="none" stroke="#f5abab" stroke-linecap="round" stroke-linejoin="round" stroke-width="1.0"/>
  </g>
  <defs>
    <linearGradient gradientTransform="matrix(0.0085, 0.0, 0.0, 0.0124, -0.5, 7.9)" gradientUnits="userSpaceOnUse" id="gradient0" spreadMethod="pad" x1="-819.2" x2="819.2">
      <stop offset="0.0" stop-color="#2e1818"/>
      <stop offset="0.6588235294117647" stop-color="#3e2828"/>
      <stop offset="1.0" stop-color="#774d4d"/>
    </linearGradient>
  </defs>
</svg>
