<?xml version="1.0" encoding="UTF-8" standalone="no"?>
<svg xmlns:xlink="http://www.w3.org/1999/xlink" height="27.4px" width="22.65px" xmlns="http://www.w3.org/2000/svg">
  <g transform="matrix(1.0, 0.0, 0.0, 1.0, 12.75, 29.85)">
    <path d="M-5.05 -29.35 Q-4.55 -28.5 -0.35 -28.6 2.65 -28.35 3.85 -27.3 -3.9 -25.6 -5.05 -29.35" fill="#2c2c2c" fill-rule="evenodd" stroke="none"/>
    <path d="M3.85 -27.3 L4.4 -27.4 Q7.05 -26.95 9.05 -20.5 9.9 -16.3 8.75 -11.75 8.5 -9.8 6.25 -9.7 L-6.35 -12.75 -7.35 -13.05 Q-9.25 -16.5 -8.6 -23.45 -7.95 -26.55 -6.85 -28.0 -6.05 -29.1 -5.05 -29.35 -3.9 -25.6 3.85 -27.3 M6.05 -6.3 L7.55 -6.3 Q7.45 -4.55 6.6 -3.95 5.75 -3.4 0.6 -3.0 -4.55 -2.6 -5.55 -6.3 L6.05 -6.3 M-5.05 -19.75 L-4.9 -22.9 -5.05 -19.75 M1.2 -13.9 L1.35 -15.15 1.2 -13.9 M2.7 -12.65 L3.2 -14.75 2.7 -12.65 M6.35 -18.0 L2.85 -18.75 6.35 -18.0 M-6.9 -17.75 L-6.55 -23.0 -6.9 -17.75 M5.7 -15.75 L-0.8 -17.4 5.7 -15.75" fill="#d3b367" fill-rule="evenodd" stroke="none"/>
    <path d="M6.25 -9.7 Q5.9 -7.55 6.05 -6.3 L-5.55 -6.3 Q-5.3 -8.2 -5.6 -10.25 -5.8 -11.5 -6.35 -12.2 L-7.35 -13.05 -6.35 -12.75 6.25 -9.7 M-0.8 -7.75 L-3.15 -7.75 -0.8 -7.75 M-1.55 -9.15 L-1.65 -10.15 -1.55 -9.15" fill="#7e6a3d" fill-rule="evenodd" stroke="none"/>
    <path d="M-6.35 -12.2 L-6.35 -10.4 Q-8.45 -10.8 -12.25 -12.5 L-12.25 -25.2 Q-7.0 -28.25 -6.85 -28.0 -7.95 -26.55 -8.6 -23.45 -9.25 -16.5 -7.35 -13.05 L-6.35 -12.2 M-8.65 -12.65 L-10.55 -13.65 -10.55 -15.9 -10.55 -13.65 -8.65 -12.65 M-10.55 -22.65 L-10.55 -24.25 -10.55 -22.65" fill="#aa844d" fill-rule="evenodd" stroke="none"/>
    <path d="M-5.05 -29.35 Q-4.55 -28.5 -0.35 -28.6 2.65 -28.35 3.85 -27.3" fill="none" stroke="#000000" stroke-linecap="round" stroke-linejoin="round" stroke-width="1.0"/>
    <path d="M2.85 -18.75 L6.35 -18.0 M3.2 -14.75 L2.7 -12.65 M1.35 -15.15 L1.2 -13.9 M-4.9 -22.9 L-5.05 -19.75 M-6.55 -23.0 L-6.9 -17.75 M-0.8 -17.4 L5.7 -15.75" fill="none" stroke="#80704d" stroke-linecap="round" stroke-linejoin="round" stroke-width="1.0"/>
    <path d="M3.85 -27.3 L4.4 -27.4 Q7.05 -26.95 9.05 -20.5 9.9 -16.3 8.75 -11.75 8.5 -9.8 6.25 -9.7 5.9 -7.55 6.05 -6.3 L7.55 -6.3 Q7.45 -4.55 6.6 -3.95 5.75 -3.4 0.6 -3.0 -4.55 -2.6 -5.55 -6.3 -5.3 -8.2 -5.6 -10.25 -5.8 -11.5 -6.35 -12.2 L-6.35 -10.4 Q-8.45 -10.8 -12.25 -12.5 L-12.25 -25.2 Q-7.0 -28.25 -6.85 -28.0 -6.05 -29.1 -5.05 -29.35 M-8.6 -23.45 Q-7.95 -26.55 -6.85 -28.0 M-7.35 -13.05 Q-9.25 -16.5 -8.6 -23.45 M6.25 -9.7 L-6.35 -12.75 -7.35 -13.05 -6.35 -12.2 M-10.55 -24.25 L-10.55 -22.65 M-10.55 -15.9 L-10.55 -13.65 -8.65 -12.65 M-1.65 -10.15 L-1.55 -9.15 M-3.15 -7.75 L-0.8 -7.75 M6.05 -6.3 L-5.55 -6.3" fill="none" stroke="#504630" stroke-linecap="round" stroke-linejoin="round" stroke-width="1.0"/>
    <path d="M3.85 -27.3 Q-3.9 -25.6 -5.05 -29.35" fill="none" stroke="#605439" stroke-linecap="round" stroke-linejoin="round" stroke-width="1.0"/>
  </g>
</svg>
