<?xml version="1.0" encoding="UTF-8" standalone="no"?>
<svg xmlns:ffdec="https://www.free-decompiler.com/flash" xmlns:xlink="http://www.w3.org/1999/xlink" ffdec:objectType="shape" height="68.35px" width="30.9px" xmlns="http://www.w3.org/2000/svg">
  <g transform="matrix(1.0, 0.0, 0.0, 1.0, 9.35, 11.4)">
    <path d="M17.45 -1.2 Q21.8 8.9 21.55 23.05 21.3 37.2 16.6 47.15 11.9 57.1 5.5 56.95 -0.9 56.85 -5.25 46.75 -9.6 36.65 -9.35 22.5 -9.1 8.35 -4.4 -1.6 0.3 -11.55 6.7 -11.4 13.1 -11.3 17.45 -1.2" fill="url(#gradient0)" fill-rule="evenodd" stroke="none"/>
    <path d="M8.55 32.7 L8.1 34.95 9.3 36.75 11.2 37.3 10.75 38.7 Q8.6 39.8 8.4 41.55 L8.55 43.3 3.65 43.6 3.25 41.4 Q3.65 36.05 3.45 30.2 L3.45 30.15 Q3.65 20.6 3.35 17.35 2.9 12.75 2.0 8.2 4.7 5.6 6.45 -0.2 8.35 2.1 9.75 13.5 9.9 20.4 8.6 32.7 L7.65 32.25 8.55 32.7" fill="#ffffff" fill-rule="evenodd" stroke="none"/>
    <path d="M8.6 32.7 Q9.9 20.4 9.75 13.5 8.35 2.1 6.45 -0.2 4.7 5.6 2.0 8.2 2.9 12.75 3.35 17.35 3.65 20.6 3.45 30.15 L3.45 30.2 Q3.65 36.05 3.25 41.4 L3.65 43.6 8.55 43.3 8.4 41.55 Q8.6 39.8 10.75 38.7 L11.2 37.3 9.3 36.75 8.1 34.95 8.55 32.7" fill="none" stroke="#cccccc" stroke-linecap="round" stroke-linejoin="round" stroke-width="1.0"/>
  </g>
  <defs>
    <radialGradient cx="0" cy="0" fx="192.0" fy="0" gradientTransform="matrix(0.001, -0.0396, 0.0171, 4.0E-4, 6.1, 22.7)" gradientUnits="userSpaceOnUse" id="gradient0" r="819.2" spreadMethod="pad">
      <stop offset="0.0" stop-color="#ffffff"/>
      <stop offset="0.0" stop-color="#ffffff"/>
      <stop offset="1.0" stop-color="#ffffff" stop-opacity="0.0"/>
    </radialGradient>
  </defs>
</svg>
