<?xml version="1.0" encoding="UTF-8" standalone="no"?>
<svg xmlns:ffdec="https://www.free-decompiler.com/flash" xmlns:xlink="http://www.w3.org/1999/xlink" ffdec:objectType="shape" height="19.2px" width="57.4px" xmlns="http://www.w3.org/2000/svg">
  <g transform="matrix(1.0, 0.0, 0.0, 1.0, 0.0, 0.0)">
    <path d="M22.05 5.9 L23.55 4.55 45.05 8.6 15.95 8.6 Q15.75 7.2 14.65 6.1 13.35 4.8 11.45 4.8 10.1 4.8 9.0 5.5 L8.8 5.55 Q7.8 2.75 4.75 0.0 11.75 -0.05 17.2 2.65 L19.5 2.65 22.05 5.9 M14.65 12.6 Q15.65 11.65 15.95 10.4 L57.4 10.4 27.35 15.15 Q21.8 14.5 11.25 19.2 L0.0 14.0 Q4.55 13.7 7.25 11.2 7.55 11.95 8.2 12.6 9.55 13.95 11.45 13.95 13.35 13.95 14.65 12.6" fill="#ffffff" fill-rule="evenodd" stroke="none"/>
  </g>
</svg>
