<?xml version="1.0" encoding="UTF-8" standalone="no"?>
<svg xmlns:ffdec="https://www.free-decompiler.com/flash" xmlns:xlink="http://www.w3.org/1999/xlink" ffdec:objectType="shape" height="23.0px" width="14.85px" xmlns="http://www.w3.org/2000/svg">
  <g transform="matrix(1.0, 0.0, 0.0, 1.0, 5.65, 3.6)">
    <path d="M7.65 11.7 Q9.0 13.4 8.6 15.8 L8.1 15.8 6.75 15.85 3.65 14.5 3.05 13.15 Q1.75 13.2 1.05 12.25 L-1.5 7.45 -2.1 5.7 -1.3 5.85 -0.35 5.5 Q0.6 4.1 1.0 2.4 0.9 0.4 -0.55 -1.3 L-4.35 -1.5 -3.8 -2.8 0.25 -2.6 1.9 -0.45 2.5 2.5 Q2.2 4.3 1.4 4.95 L1.05 4.7 1.2 5.15 1.0 5.3 1.25 6.65 3.75 13.1 4.25 13.15 4.3 13.1 5.65 12.85 6.6 12.45 7.65 11.7 M1.0 5.3 L-0.35 5.5 1.0 5.3 M3.75 13.1 L3.05 13.15 3.75 13.1" fill="#4d4946" fill-rule="evenodd" stroke="none"/>
    <path d="M5.9 2.95 L7.2 3.9 Q7.95 5.35 8.4 7.5 L8.15 7.8 7.9 6.95 Q7.8 5.35 6.55 3.75 L5.75 3.1 5.95 3.15 5.9 2.95 M7.8 8.25 L7.7 8.4 7.65 8.35 7.8 8.25 M1.0 5.3 L1.2 5.15 3.0 10.0 4.25 13.15 3.75 13.1 1.25 6.65 1.0 5.3" fill="#8a8580" fill-rule="evenodd" stroke="none"/>
    <path d="M5.75 3.1 L5.9 2.95 5.95 3.15 5.75 3.1 M7.65 8.35 L7.7 8.4 6.55 9.05 7.65 8.35" fill="#232323" fill-rule="evenodd" stroke="none"/>
    <path d="M8.15 7.8 L7.8 8.25 7.65 8.35 5.75 3.1 6.55 3.75 Q7.8 5.35 7.9 6.95 L8.15 7.8 M1.4 4.95 L1.85 5.35 Q3.1 6.95 3.75 8.4 5.65 12.85 4.3 13.1 L4.25 13.15 3.0 10.0 1.2 5.15 1.05 4.7 1.4 4.95" fill="#660000" fill-rule="evenodd" stroke="none"/>
    <path d="M8.1 15.8 L7.9 17.05 Q7.3 18.8 6.9 18.7 5.5 19.15 4.4 18.45 3.4 17.55 3.35 16.35 L3.65 14.5 6.75 15.85 8.1 15.8" fill="#333333" fill-rule="evenodd" stroke="none"/>
    <path d="M-2.1 5.7 L-2.8 5.55 -3.2 5.05 -4.2 3.55 -4.75 2.45 -4.85 1.95 -5.1 0.4 Q-5.3 -0.15 -4.35 -1.5 L-0.55 -1.3 Q0.9 0.4 1.0 2.4 0.6 4.1 -0.35 5.5 L-1.3 5.85 -2.1 5.7 M-2.55 2.0 L-4.75 2.45 -2.55 2.0" fill="url(#gradient0)" fill-rule="evenodd" stroke="none"/>
    <path d="M1.9 -0.45 L3.3 -0.75 Q5.0 0.0 5.15 0.85 L5.9 2.95 5.75 3.1 7.65 8.35 6.55 9.05 7.7 8.4 8.15 9.95 Q8.05 11.0 7.65 11.7 L6.6 12.45 5.65 12.85 4.3 13.1 Q5.65 12.85 3.75 8.4 3.1 6.95 1.85 5.35 L1.4 4.95 Q2.2 4.3 2.5 2.5 L1.9 -0.45" fill="url(#gradient1)" fill-rule="evenodd" stroke="none"/>
    <path d="M1.9 -0.45 L3.3 -0.75 Q5.0 0.0 5.15 0.85 L5.9 2.95 7.2 3.9 Q7.95 5.35 8.4 7.5 L8.15 7.8 7.8 8.25 7.7 8.4 8.15 9.95 Q8.05 11.0 7.65 11.7 9.0 13.4 8.6 15.8 L8.1 15.8 7.9 17.05 Q7.3 18.8 6.9 18.7 5.5 19.15 4.4 18.45 3.4 17.55 3.35 16.35 L3.65 14.5 3.05 13.15 Q1.75 13.2 1.05 12.25 L-1.5 7.45 -2.1 5.7 -2.8 5.55 -3.2 5.05 -4.2 3.55 -4.75 2.45 -4.85 1.95 -5.1 0.4 Q-5.3 -0.15 -4.35 -1.5 L-3.8 -2.8 0.25 -2.6 1.9 -0.45 2.5 2.5 Q2.2 4.3 1.4 4.95 M4.3 13.1 L5.65 12.85 6.6 12.45 7.65 11.7 M-2.1 5.7 L-1.3 5.85 -0.35 5.5 Q0.6 4.1 1.0 2.4 0.9 0.4 -0.55 -1.3 L-4.35 -1.5 M1.0 5.3 L1.2 5.15 M4.25 13.15 L4.3 13.1 M7.65 8.35 L7.7 8.4 6.55 9.05 7.65 8.35 M1.0 5.3 L1.25 6.65 3.75 13.1 4.25 13.15 M3.65 14.5 L6.75 15.85 8.1 15.8 M3.05 13.15 L3.75 13.1 M-0.35 5.5 L1.0 5.3" fill="none" stroke="#2b2927" stroke-linecap="round" stroke-linejoin="round" stroke-width="1.0"/>
    <path d="M-4.75 2.45 L-2.55 2.0" fill="none" stroke="#333333" stroke-linecap="round" stroke-linejoin="round" stroke-width="1.0"/>
  </g>
  <defs>
    <radialGradient cx="0" cy="0" gradientTransform="matrix(0.0105, 0.0, 0.0, 0.0105, 0.65, 1.8)" gradientUnits="userSpaceOnUse" id="gradient0" r="819.2" spreadMethod="pad">
      <stop offset="0.0" stop-color="#8a8580"/>
      <stop offset="1.0" stop-color="#6d6965"/>
      <stop offset="1.0" stop-color="#333333"/>
    </radialGradient>
    <radialGradient cx="0" cy="0" gradientTransform="matrix(0.0108, 0.0, 0.0, 0.0108, 7.05, 7.4)" gradientUnits="userSpaceOnUse" id="gradient1" r="819.2" spreadMethod="pad">
      <stop offset="0.0" stop-color="#8a8580"/>
      <stop offset="1.0" stop-color="#6d6965"/>
      <stop offset="1.0" stop-color="#333333"/>
    </radialGradient>
  </defs>
</svg>
