<?xml version="1.0" encoding="UTF-8" standalone="no"?>
<svg xmlns:ffdec="https://www.free-decompiler.com/flash" xmlns:xlink="http://www.w3.org/1999/xlink" ffdec:objectType="shape" height="23.95px" width="17.25px" xmlns="http://www.w3.org/2000/svg">
  <g transform="matrix(1.0, 0.0, 0.0, 1.0, 13.35, 7.2)">
    <path d="M-5.85 1.35 L-9.35 4.35 -12.75 0.6 Q-12.8 -0.8 -11.75 -1.65 -10.7 -2.45 -9.2 -2.5 L-5.85 1.35" fill="#525150" fill-rule="evenodd" stroke="none"/>
    <path d="M-5.85 1.35 L-9.2 -2.5 Q-10.7 -2.45 -11.75 -1.65 -12.8 -0.8 -12.75 0.6 L-9.35 4.35 -5.85 1.35 Z" fill="none" stroke="#2a2928" stroke-linecap="round" stroke-linejoin="round" stroke-width="0.9500000000000001"/>
    <path d="M-11.25 0.35 L-9.15 2.6" fill="none" stroke="#2a2928" stroke-linecap="round" stroke-linejoin="round" stroke-width="0.7000000000000001"/>
    <path d="M0.85 3.45 L-0.8 3.1 Q-1.0 3.75 -0.6 4.8 L-2.15 5.8 Q-2.6 5.4 -3.75 5.35 L-4.7 5.35 -6.25 10.9 -5.15 12.25 Q-7.2 13.7 -8.0 14.8 L-8.45 15.75 -9.75 16.3 -12.9 12.35 -12.3 6.75 Q-10.85 3.2 -9.5 1.05 L-8.4 -0.4 -9.85 -2.0 -7.7 -2.9 -6.0 -6.25 1.2 -6.45 Q2.7 -6.25 3.4 -5.7 L3.45 -3.95 3.45 -1.55 Q3.4 -0.7 1.8 1.5 1.35 2.25 0.85 3.45" fill="url(#gradient0)" fill-rule="evenodd" stroke="none"/>
    <path d="M1.8 1.5 Q1.35 2.25 0.85 3.45 L-3.05 2.45 -4.0 1.35 -6.4 1.8 -9.85 -2.0 -7.7 -2.9 -6.0 -6.25 1.2 -6.45 Q2.7 -6.25 3.4 -5.7 L3.45 -3.95 3.45 -1.55 Q3.4 -0.7 1.8 1.5" fill="url(#gradient1)" fill-rule="evenodd" stroke="none"/>
    <path d="M-6.4 -5.25 L-3.85 -4.1 Q-1.35 -2.75 -1.4 -1.65 L-1.65 -0.3" fill="none" stroke="#f6cfca" stroke-linecap="round" stroke-linejoin="round" stroke-width="0.9500000000000001"/>
    <path d="M-6.9 -4.45 L-4.65 -3.4 Q-2.4 -2.25 -2.45 -1.7 L-2.65 -0.25 -0.5 0.35 0.1 1.55 1.4 1.95 M-2.65 -0.25 L-2.7 -0.15 -4.0 1.35" fill="none" stroke="#726a5f" stroke-linecap="round" stroke-linejoin="round" stroke-width="0.9500000000000001"/>
    <path d="M-3.05 2.45 L-1.2 3.0 -1.05 4.05 -2.45 3.65 -3.05 2.45" fill="#877b6a" fill-rule="evenodd" stroke="none"/>
    <path d="M-3.05 2.45 L-2.45 3.65 -1.05 4.05 -1.2 3.0" fill="none" stroke="#877b6a" stroke-linecap="round" stroke-linejoin="round" stroke-width="0.9500000000000001"/>
    <path d="M-7.9 8.85 L-6.25 10.9 -7.85 11.4 -8.45 10.7 -7.9 8.85 -6.9 4.75 -9.6 1.65" fill="none" stroke="#877b6a" stroke-linecap="round" stroke-linejoin="round" stroke-width="0.9500000000000001"/>
    <path d="M0.85 3.45 Q1.35 2.25 1.8 1.5 3.4 -0.7 3.45 -1.55 L3.45 -3.95 3.4 -5.7 Q2.7 -6.25 1.2 -6.45 L-6.0 -6.25 -7.7 -2.9 -9.85 -2.0 -8.4 -0.4 -9.55 1.1 Q-11.05 3.2 -12.3 6.75 L-12.9 12.35 -9.75 16.3 -8.45 15.75 -8.0 14.8 Q-7.2 13.7 -5.15 12.25 L-6.25 10.9 -4.7 5.35 -3.75 5.35 Q-2.6 5.4 -2.15 5.8 L-0.6 4.8 Q-1.0 3.75 -0.8 3.1 L0.85 3.45 Z" fill="none" stroke="#2c2924" stroke-linecap="round" stroke-linejoin="round" stroke-width="0.9500000000000001"/>
    <path d="M-8.4 -0.4 L-6.4 1.8 -4.0 1.35 -3.05 2.45 0.85 3.45" fill="none" stroke="#686157" stroke-linecap="round" stroke-linejoin="round" stroke-width="0.9500000000000001"/>
    <path d="M-5.45 1.6 L-4.0 1.35 -3.05 2.45 -4.35 2.7 -5.45 1.6" fill="#222120" fill-rule="evenodd" stroke="none"/>
    <path d="M-6.4 1.8 L-5.45 1.6 -4.0 1.35 -3.05 2.45 -4.35 2.7 -5.45 1.6" fill="none" stroke="#222120" stroke-linecap="round" stroke-linejoin="round" stroke-width="1.25"/>
    <path d="M-3.05 2.45 L0.85 3.45 1.35 4.1" fill="none" stroke="#222120" stroke-linecap="round" stroke-linejoin="round" stroke-width="1.25"/>
    <path d="M-11.65 5.35 L-10.6 2.9 Q-10.35 1.85 -8.4 -0.4" fill="none" stroke="#222120" stroke-linecap="round" stroke-linejoin="round" stroke-width="1.25"/>
    <path d="M-10.6 2.9 L-11.35 3.95 -12.0 3.5 -12.35 2.05 -11.7 1.85 -10.6 2.9" fill="#222120" fill-rule="evenodd" stroke="none"/>
    <path d="M-10.6 2.9 L-11.7 1.85 -12.35 2.05 -12.0 3.5 -11.35 3.95 -10.6 2.9 Z" fill="none" stroke="#222120" stroke-linecap="round" stroke-linejoin="round" stroke-width="1.25"/>
    <path d="M-10.05 11.5 L-10.3 12.8 -11.3 12.0 -10.05 11.5" fill="#2a2928" fill-rule="evenodd" stroke="none"/>
    <path d="M-10.05 11.5 L-10.3 12.8 -11.3 12.0 -10.05 11.5 Z" fill="none" stroke="#2a2928" stroke-linecap="round" stroke-linejoin="round" stroke-width="0.7000000000000001"/>
    <path d="M-10.95 9.2 L-9.9 10.05 -11.15 10.55 -10.95 9.2" fill="#2a2928" fill-rule="evenodd" stroke="none"/>
    <path d="M-10.95 9.2 L-11.15 10.55 -9.9 10.05 -10.95 9.2 Z" fill="none" stroke="#2a2928" stroke-linecap="round" stroke-linejoin="round" stroke-width="0.7000000000000001"/>
    <path d="M-9.5 7.25 L-9.7 8.55 -10.7 7.7 -9.5 7.25" fill="#2a2928" fill-rule="evenodd" stroke="none"/>
    <path d="M-9.5 7.25 L-9.7 8.55 -10.7 7.7 -9.5 7.25 Z" fill="none" stroke="#2a2928" stroke-linecap="round" stroke-linejoin="round" stroke-width="0.7000000000000001"/>
  </g>
  <defs>
    <linearGradient gradientTransform="matrix(0.0058, -0.0027, 0.0027, 0.0058, -9.35, 5.05)" gradientUnits="userSpaceOnUse" id="gradient0" spreadMethod="pad" x1="-819.2" x2="819.2">
      <stop offset="0.0" stop-color="#95856c"/>
      <stop offset="1.0" stop-color="#ada08e"/>
    </linearGradient>
    <linearGradient gradientTransform="matrix(0.0081, -0.0022, 0.0022, 0.0081, -2.6, -1.4)" gradientUnits="userSpaceOnUse" id="gradient1" spreadMethod="pad" x1="-819.2" x2="819.2">
      <stop offset="0.0" stop-color="#95856c"/>
      <stop offset="1.0" stop-color="#ada08e"/>
    </linearGradient>
  </defs>
</svg>
