<?xml version="1.0" encoding="UTF-8" standalone="no"?>
<svg xmlns:ffdec="https://www.free-decompiler.com/flash" xmlns:xlink="http://www.w3.org/1999/xlink" ffdec:objectType="shape" height="24.65px" width="45.35px" xmlns="http://www.w3.org/2000/svg">
  <g transform="matrix(1.0, 0.0, 0.0, 1.0, 2.9, 9.1)">
    <path d="M32.95 -6.9 Q40.55 -3.95 42.1 1.05 43.65 6.05 38.15 10.25 32.7 14.45 23.45 15.3 14.2 16.25 6.6 13.3 -1.0 10.45 -2.55 5.4 -4.1 0.35 1.35 -3.8 6.85 -8.0 16.1 -8.9 25.35 -9.75 32.95 -6.9" fill="url(#gradient0)" fill-rule="evenodd" stroke="none"/>
    <path d="M2.0 3.1 L38.85 1.2 35.3 4.45 2.0 6.4 2.0 3.1" fill="#ffffff" fill-rule="evenodd" stroke="none"/>
    <path d="M2.0 3.1 L38.85 1.2 35.3 4.45 2.0 6.4 2.0 3.1 Z" fill="none" stroke="#cccccc" stroke-linecap="round" stroke-linejoin="round" stroke-width="1.0"/>
  </g>
  <defs>
    <radialGradient cx="0" cy="0" fx="192.0" fy="0" gradientTransform="matrix(0.0289, 0.0, 0.0, 0.0156, 19.75, 3.2)" gradientUnits="userSpaceOnUse" id="gradient0" r="819.2" spreadMethod="pad">
      <stop offset="0.0" stop-color="#ffffff"/>
      <stop offset="1.0" stop-color="#ffffff" stop-opacity="0.0"/>
      <stop offset="1.0" stop-color="#383838"/>
    </radialGradient>
  </defs>
</svg>
