<?xml version="1.0" encoding="UTF-8" standalone="no"?>
<svg xmlns:xlink="http://www.w3.org/1999/xlink" height="19.6px" width="19.35px" xmlns="http://www.w3.org/2000/svg">
  <g transform="matrix(1.0, 0.0, 0.0, 1.0, 7.0, 17.95)">
    <path d="M-2.35 0.75 L-2.4 -1.2 3.5 0.05 3.4 1.15 -2.35 0.75" fill="#23232b" fill-rule="evenodd" stroke="none"/>
    <path d="M-2.4 -1.2 L-2.35 0.75 3.4 1.15 3.5 0.05" fill="none" stroke="#0e0f13" stroke-linecap="round" stroke-linejoin="round" stroke-width="1.05"/>
    <path d="M8.9 -4.2 L8.45 -1.8 Q8.3 -0.85 7.65 -0.6 L3.35 -0.45 -1.75 -1.3 Q-2.8 -1.6 -3.55 -2.9 -4.3 -4.3 -4.45 -6.3 -4.65 -8.55 -4.25 -10.3 -3.8 -12.4 -2.5 -13.4 -0.1 -15.25 2.6 -15.25 5.15 -15.25 7.0 -13.55 8.15 -12.5 8.3 -11.1 L8.65 -8.45 9.45 -7.05 Q10.15 -6.1 10.1 -5.65 10.0 -5.2 9.5 -4.85 L8.9 -4.2" fill="#a87965" fill-rule="evenodd" stroke="none"/>
    <path d="M8.9 -4.2 L9.5 -4.85 Q10.0 -5.2 10.1 -5.65 10.15 -6.1 9.45 -7.05 L8.65 -8.45 8.3 -11.1 Q8.15 -12.5 7.0 -13.55 5.15 -15.25 2.6 -15.25 -0.1 -15.25 -2.5 -13.4 -3.8 -12.4 -4.25 -10.3 -4.65 -8.55 -4.45 -6.3 -4.3 -4.3 -3.55 -2.9 -2.8 -1.6 -1.75 -1.3 L3.35 -0.45 7.65 -0.6 Q8.3 -0.85 8.45 -1.8 L8.9 -4.2 Z" fill="none" stroke="#755242" stroke-linecap="round" stroke-linejoin="round" stroke-width="1.05"/>
    <path d="M8.65 -3.15 L7.2 -3.1" fill="none" stroke="#6f4434" stroke-linecap="round" stroke-linejoin="miter-clip" stroke-miterlimit="4.0" stroke-width="1.05"/>
    <path d="M-1.4 -7.2 Q-1.65 -5.95 -1.05 -4.9 L-0.05 -3.9" fill="none" stroke="#926450" stroke-linecap="round" stroke-linejoin="miter-clip" stroke-miterlimit="4.0" stroke-width="1.05"/>
    <path d="M9.2 -12.5 Q9.0 -11.2 7.65 -11.2 L6.05 -11.4 4.55 -11.35 2.65 -10.7 1.15 -9.9 Q1.0 -9.85 0.9 -8.8 0.75 -7.85 0.3 -7.75 L-0.6 -8.05 -1.65 -8.4 Q-2.5 -8.4 -2.75 -7.25 -3.0 -6.2 -2.85 -5.1 L-3.6 -4.95 Q-4.4 -4.95 -4.85 -5.4 -5.3 -6.3 -5.25 -7.35 L-5.15 -9.2 -4.75 -11.0 -4.3 -12.35 -3.55 -13.6 Q-2.55 -15.05 -0.9 -15.35 L0.7 -15.65 2.35 -15.85 4.5 -15.8 Q5.5 -15.7 6.15 -15.3 L7.8 -14.25 8.65 -13.25 9.2 -12.5" fill="#27180e" fill-rule="evenodd" stroke="none"/>
    <path d="M9.2 -12.5 L8.65 -13.25 7.8 -14.25 6.15 -15.3 Q5.5 -15.7 4.5 -15.8 L2.35 -15.85 0.7 -15.65 -0.9 -15.35 Q-2.55 -15.05 -3.55 -13.6 L-4.3 -12.35 -4.75 -11.0 -5.15 -9.2 -5.25 -7.35 Q-5.3 -6.3 -4.85 -5.4 -4.4 -4.95 -3.6 -4.95 L-2.85 -5.1 Q-3.0 -6.2 -2.75 -7.25 -2.5 -8.4 -1.65 -8.4 L-0.6 -8.05 0.3 -7.75 Q0.75 -7.85 0.9 -8.8 1.0 -9.85 1.15 -9.9 L2.65 -10.7 4.55 -11.35 6.05 -11.4 7.65 -11.2 Q9.0 -11.2 9.2 -12.5 Z" fill="none" stroke="#27180e" stroke-linecap="round" stroke-linejoin="round" stroke-opacity="0.7019608" stroke-width="1.05"/>
    <path d="M0.6 -13.65 L4.7 -13.9 6.6 -13.25" fill="none" stroke="#180f08" stroke-linecap="round" stroke-linejoin="round" stroke-width="1.05"/>
    <path d="M-0.95 -11.55 L-1.7 -10.4 Q-2.6 -9.25 -3.65 -8.9" fill="none" stroke="#180f08" stroke-linecap="round" stroke-linejoin="round" stroke-width="1.05"/>
    <path d="M-5.75 -6.9 L2.15 -9.4 Q1.85 -7.8 2.35 -5.1 L2.95 -2.7 Q3.0 -2.2 2.05 -1.2 L1.15 -0.35 -1.1 -0.65 Q-3.55 -1.15 -4.3 -1.9 L-5.0 -3.35 Q-5.7 -5.2 -5.75 -6.9" fill="#2a2f3f" fill-rule="evenodd" stroke="none"/>
    <path d="M-5.75 -6.9 Q-5.7 -5.2 -5.0 -3.35 L-4.3 -1.9 Q-3.55 -1.15 -1.1 -0.65 L1.15 -0.35 2.05 -1.2 Q3.0 -2.2 2.95 -2.7 L2.35 -5.1 Q1.85 -7.8 2.15 -9.4" fill="none" stroke="#0a1016" stroke-linecap="round" stroke-linejoin="round" stroke-width="1.05"/>
    <path d="M7.4 -10.6 L2.8 -10.4 1.55 -8.4 -0.75 -6.65 -2.9 -6.45 Q-5.35 -6.45 -6.5 -7.35 L-6.45 -10.7 Q-5.8 -13.35 -4.1 -15.3 -2.85 -16.8 -1.95 -17.05 L5.75 -16.75 Q7.7 -16.1 8.8 -15.3 10.05 -14.45 10.7 -12.35 L11.1 -10.4 7.4 -10.6" fill="#3e4b5e" fill-rule="evenodd" stroke="none"/>
    <path d="M7.4 -10.6 L2.8 -10.4 1.55 -8.4 -0.75 -6.65 -2.9 -6.45 Q-5.35 -6.45 -6.5 -7.35 L-6.45 -10.7 Q-5.8 -13.35 -4.1 -15.3 -2.85 -16.8 -1.95 -17.05 L5.75 -16.75 Q7.7 -16.1 8.8 -15.3 10.05 -14.45 10.7 -12.35 L11.1 -10.4 7.4 -10.6 Z" fill="none" stroke="#19202b" stroke-linecap="round" stroke-linejoin="round" stroke-width="1.05"/>
    <path d="M6.45 -8.0 L5.1 -8.05" fill="none" stroke="#755242" stroke-linecap="round" stroke-linejoin="round" stroke-width="1.55"/>
    <path d="M7.45 -5.2 Q3.65 -5.25 2.25 -5.8 2.1 -6.6 2.1 -7.55 2.1 -9.55 2.8 -10.4 L6.0 -10.55 11.4 -10.35 Q11.9 -9.05 11.5 -7.0 L11.0 -5.25 Q9.4 -5.15 7.45 -5.2" fill="#2a2f3f" fill-opacity="0.58431375" fill-rule="evenodd" stroke="none"/>
    <path d="M7.45 -5.2 Q3.65 -5.25 2.25 -5.8 2.1 -6.6 2.1 -7.55 2.1 -9.55 2.8 -10.4 L6.0 -10.55 11.4 -10.35 Q11.9 -9.05 11.5 -7.0 L11.0 -5.25 Q9.4 -5.15 7.45 -5.2 Z" fill="none" stroke="#0a1016" stroke-linecap="round" stroke-linejoin="round" stroke-opacity="0.7019608" stroke-width="1.05"/>
    <path d="M-4.3 -8.75 L-3.85 -10.3" fill="none" stroke="#19202b" stroke-linecap="round" stroke-linejoin="round" stroke-width="1.05"/>
    <path d="M-2.35 -8.85 L-1.95 -10.35" fill="none" stroke="#19202b" stroke-linecap="round" stroke-linejoin="round" stroke-width="1.05"/>
    <path d="M10.6 -7.75 L11.7 -6.9 11.85 -6.3 11.65 -4.75 Q11.25 -2.95 10.5 -1.95 L9.65 -0.9 Q8.65 0.15 7.8 0.3 L6.6 0.5 4.55 0.25 3.9 -0.7 Q3.25 -1.9 3.3 -3.05 3.8 -4.15 4.25 -4.45 L5.95 -4.6 Q6.9 -4.6 8.55 -6.3 10.1 -7.9 10.6 -7.75" fill="#292825" fill-rule="evenodd" stroke="none"/>
    <path d="M10.6 -7.75 Q10.1 -7.9 8.55 -6.3 6.9 -4.6 5.95 -4.6 L4.25 -4.45 Q3.8 -4.15 3.3 -3.05 3.25 -1.9 3.9 -0.7 L4.55 0.25 6.6 0.5 7.8 0.3 Q8.65 0.15 9.65 -0.9 L10.5 -1.95 Q11.25 -2.95 11.65 -4.75 L11.85 -6.3 11.7 -6.9 10.6 -7.75 Z" fill="none" stroke="#0f0e0c" stroke-linecap="round" stroke-linejoin="round" stroke-width="1.05"/>
    <path d="M11.3 -2.25 Q11.35 -1.55 10.8 -0.8 10.25 0.0 9.6 0.05 8.9 0.05 8.3 -0.5 7.65 -1.1 7.65 -1.8 7.6 -2.45 8.05 -2.95 8.5 -3.45 9.2 -3.5 L10.6 -3.2 Q11.25 -2.9 11.3 -2.25" fill="#363531" fill-rule="evenodd" stroke="none"/>
    <path d="M11.3 -2.25 Q11.35 -1.55 10.8 -0.8 10.25 0.0 9.6 0.05 8.9 0.05 8.3 -0.5 7.65 -1.1 7.65 -1.8 7.6 -2.45 8.05 -2.95 8.5 -3.45 9.2 -3.5 L10.6 -3.2 Q11.25 -2.9 11.3 -2.25 Z" fill="none" stroke="#0a0908" stroke-linecap="round" stroke-linejoin="round" stroke-width="1.05"/>
    <path d="M-1.5 -4.2 L5.1 -3.8 4.95 -0.75 Q4.0 -1.7 0.4 -2.25 -3.8 -2.9 -5.55 -3.8 -5.95 -4.25 -6.05 -5.45 L-1.5 -4.2" fill="#292825" fill-rule="evenodd" stroke="none"/>
    <path d="M4.95 -0.75 Q4.0 -1.7 0.4 -2.25 -3.8 -2.9 -5.55 -3.8 -5.95 -4.25 -6.05 -5.45 L-1.5 -4.2 5.1 -3.8" fill="none" stroke="#0b0a09" stroke-linecap="round" stroke-linejoin="round" stroke-width="1.05"/>
    <path d="M5.1 -3.8 Q4.5 -2.9 4.7 -1.7 4.75 -1.15 4.95 -0.75" fill="none" stroke="#181716" stroke-linecap="round" stroke-linejoin="round" stroke-width="1.05"/>
  </g>
</svg>
