<?xml version="1.0" encoding="UTF-8" standalone="no"?>
<svg xmlns:ffdec="https://www.free-decompiler.com/flash" xmlns:xlink="http://www.w3.org/1999/xlink" ffdec:objectType="shape" height="11.2px" width="13.9px" xmlns="http://www.w3.org/2000/svg">
  <g transform="matrix(1.0, 0.0, 0.0, 1.0, 8.1, 0.75)">
    <path d="M-6.0 2.85 L-3.75 4.6 -0.95 5.65 -1.85 6.8 -4.4 6.5 -6.05 7.25 -7.55 7.1 -7.6 4.75 -6.0 2.85" fill="#372c2c" fill-rule="evenodd" stroke="none"/>
    <path d="M-4.15 1.45 L-4.25 1.95 -4.05 2.35 Q-3.9 2.7 -3.6 2.6 L-3.1 2.35 -2.9 1.85 -3.1 1.35 -3.6 1.25 -4.15 1.45 M0.8 9.85 L-2.15 9.0 -1.85 6.8 -0.95 5.65 -3.75 4.6 -6.0 2.85 -6.45 1.05 -5.55 0.05 -3.7 -0.25 1.35 0.6 4.2 0.6 Q6.3 3.2 4.4 5.8 L2.9 6.0 3.7 6.85 3.65 8.4 2.0 9.95 0.85 9.85 0.8 9.85 M-0.15 2.15 Q-0.5 1.8 -0.9 1.8 -1.55 1.9 -1.75 2.3 L-2.0 3.1 -1.65 3.95 -0.9 4.2 -0.25 3.8 0.2 3.0 -0.15 2.15" fill="url(#gradient0)" fill-rule="evenodd" stroke="none"/>
    <path d="M-4.15 1.45 L-3.6 1.25 -3.1 1.35 -2.9 1.85 -3.1 2.35 -3.6 2.6 Q-3.9 2.7 -4.05 2.35 L-4.25 1.95 -4.15 1.45 M-0.15 2.15 L0.2 3.0 -0.25 3.8 -0.9 4.2 -1.65 3.95 -2.0 3.1 -1.75 2.3 Q-1.55 1.9 -0.9 1.8 -0.5 1.8 -0.15 2.15" fill="#ff4444" fill-rule="evenodd" stroke="none"/>
    <path d="M-4.15 1.45 L-3.6 1.25 -3.1 1.35 -2.9 1.85 -3.1 2.35 -3.6 2.6 Q-3.9 2.7 -4.05 2.35 L-4.25 1.95 -4.15 1.45 M-0.15 2.15 L0.2 3.0 -0.25 3.8 -0.9 4.2 -1.65 3.95 -2.0 3.1 -1.75 2.3 Q-1.55 1.9 -0.9 1.8 -0.5 1.8 -0.15 2.15 Z" fill="none" stroke="#211212" stroke-linecap="round" stroke-linejoin="round" stroke-width="1.0"/>
    <path d="M2.85 9.2 L2.0 9.95 0.85 9.85 0.8 9.85 -2.15 9.0 -1.85 6.8 -4.4 6.5 -6.05 7.25 -7.55 7.1 -7.6 4.75 -6.0 2.85 -3.75 4.6 -0.95 5.65 2.45 6.05 2.9 6.0 M3.3 0.55 L1.35 0.6 -3.7 -0.25 -5.55 0.05 M-1.85 6.8 L-0.95 5.65" fill="none" stroke="#150d0d" stroke-linecap="round" stroke-linejoin="round" stroke-width="1.0"/>
    <path d="M-5.55 0.05 L-6.45 1.05 -6.0 2.85 M3.3 0.55 L4.2 0.6 Q6.3 3.2 4.4 5.8 L2.9 6.0 3.7 6.85 3.65 8.4 2.85 9.2" fill="none" stroke="#150d0d" stroke-linecap="round" stroke-linejoin="round" stroke-width="1.0"/>
    <path d="M-5.35 4.9 L-4.75 5.5 M-6.45 5.45 L-5.95 6.05" fill="none" stroke="#1a1a1a" stroke-linecap="round" stroke-linejoin="round" stroke-width="1.0"/>
  </g>
  <defs>
    <linearGradient gradientTransform="matrix(0.0039, 2.0E-4, -2.0E-4, 0.0039, 1.85, 5.05)" gradientUnits="userSpaceOnUse" id="gradient0" spreadMethod="pad" x1="-819.2" x2="819.2">
      <stop offset="0.0" stop-color="#3a2323"/>
      <stop offset="1.0" stop-color="#6e4747"/>
    </linearGradient>
  </defs>
</svg>
