<?xml version="1.0" encoding="UTF-8" standalone="no"?>
<svg xmlns:ffdec="https://www.free-decompiler.com/flash" xmlns:xlink="http://www.w3.org/1999/xlink" ffdec:objectType="shape" height="26.6px" width="17.15px" xmlns="http://www.w3.org/2000/svg">
  <g transform="matrix(1.0, 0.0, 0.0, 1.0, 14.3, 4.1)">
    <path d="M-5.8 -2.4 L-3.75 -2.55 -3.0 -2.15 -2.1 -2.2 -1.35 -3.25 Q-0.85 -3.85 -0.45 -3.4 0.55 -2.2 0.45 2.65 L-0.15 6.25 Q-0.55 8.15 -0.05 8.85 0.75 9.7 1.8 12.05 2.3 13.15 1.15 13.65 L-0.3 14.15 Q-0.55 14.4 -0.25 15.4 -0.05 16.35 -0.3 16.55 -1.7 17.95 -4.4 18.25 L-5.7 15.25 Q-6.95 11.7 -7.05 9.35 -7.1 7.2 -5.7 5.8 -4.15 4.25 -4.05 3.65 -3.8 2.45 -4.8 -0.1 L-5.8 -2.4" fill="#605c82" fill-rule="evenodd" stroke="none"/>
    <path d="M-5.8 -2.4 L-4.8 -0.1 Q-3.8 2.45 -4.05 3.65 -4.15 4.25 -5.7 5.8 -7.1 7.2 -7.05 9.35 -6.95 11.7 -5.7 15.25 L-4.4 18.25 Q-1.7 17.95 -0.3 16.55 -0.05 16.35 -0.25 15.4 -0.55 14.4 -0.3 14.15 L1.15 13.65 Q2.3 13.15 1.8 12.05 0.75 9.7 -0.05 8.85 -0.55 8.15 -0.15 6.25 L0.45 2.65 Q0.55 -2.2 -0.45 -3.4 -0.85 -3.85 -1.35 -3.25 L-2.1 -2.2 -3.0 -2.15 -3.75 -2.55 -5.8 -2.4 Z" fill="none" stroke="#312e32" stroke-linecap="butt" stroke-linejoin="miter-clip" stroke-miterlimit="15.12109375" stroke-opacity="0.7647059" stroke-width="1.0"/>
    <path d="M-4.5 0.1 Q-4.05 0.2 -3.7 0.4 -2.8 1.25 -2.85 3.8 -2.75 5.75 -3.25 9.7 -3.65 12.8 -3.4 13.25 -3.1 13.75 -1.65 14.1 -0.2 14.35 -0.2 14.65 L0.0 16.9 -4.85 18.3 -6.8 11.8 Q-7.15 10.75 -7.05 9.4 -6.95 8.25 -6.55 7.45 L-5.55 5.9 -4.45 4.45 -4.2 3.35 -4.3 2.4 -4.85 0.25 -4.5 0.1" fill="#3e7385" fill-rule="evenodd" stroke="none"/>
    <path d="M-4.5 0.1 Q-4.05 0.2 -3.7 0.4 -2.8 1.25 -2.85 3.8 -2.75 5.75 -3.25 9.7 -3.65 12.8 -3.4 13.25 -3.1 13.75 -1.65 14.1 -0.2 14.35 -0.2 14.65 L0.0 16.9 -4.85 18.3 -6.8 11.8 Q-7.15 10.75 -7.05 9.4 -6.95 8.25 -6.55 7.45 L-5.55 5.9 -4.45 4.45 -4.2 3.35 -4.3 2.4 -4.85 0.25 -4.5 0.1 Z" fill="none" stroke="#312e32" stroke-linecap="butt" stroke-linejoin="miter-clip" stroke-miterlimit="15.12109375" stroke-opacity="0.7647059" stroke-width="1.0"/>
    <path d="M-6.35 8.9 Q-5.75 10.8 -6.55 11.05 -7.05 11.2 -7.65 10.55 L-9.0 9.3 Q-9.65 8.8 -10.2 7.5 L-10.7 6.3 -9.35 7.65 Q-8.1 8.85 -6.35 8.9" fill="#585650" fill-rule="evenodd" stroke="none"/>
    <path d="M-6.35 8.9 Q-8.1 8.85 -9.35 7.65 L-10.7 6.3 -10.2 7.5 Q-9.65 8.8 -9.0 9.3 L-7.65 10.55 Q-7.05 11.2 -6.55 11.05 -5.75 10.8 -6.35 8.9 Z" fill="none" stroke="#464440" stroke-linecap="butt" stroke-linejoin="miter-clip" stroke-miterlimit="15.12109375" stroke-width="1.0"/>
    <path d="M-5.2 14.9 Q-4.6 16.8 -5.4 17.0 -5.85 17.2 -6.5 16.5 L-7.85 15.25 Q-8.5 14.8 -9.05 13.5 L-9.55 12.3 -8.2 13.6 Q-7.0 14.8 -5.2 14.9" fill="#585650" fill-rule="evenodd" stroke="none"/>
    <path d="M-5.2 14.9 Q-7.0 14.8 -8.2 13.6 L-9.55 12.3 -9.05 13.5 Q-8.5 14.8 -7.85 15.25 L-6.5 16.5 Q-5.85 17.2 -5.4 17.0 -4.6 16.8 -5.2 14.9 Z" fill="none" stroke="#464440" stroke-linecap="butt" stroke-linejoin="miter-clip" stroke-miterlimit="15.12109375" stroke-width="1.0"/>
    <path d="M-0.35 -3.1 L-0.05 -2.8 0.4 -1.15 0.75 0.9 Q0.9 1.85 0.7 2.65 L0.05 6.75 0.05 7.7 0.25 9.0 2.35 13.7 -0.6 13.95" fill="none" stroke="#000000" stroke-linecap="round" stroke-linejoin="round" stroke-opacity="0.3764706" stroke-width="1.0"/>
    <path d="M-4.7 18.5 L-5.45 17.15 Q-8.7 15.65 -9.25 14.1 L-9.9 12.05 -8.85 13.4 Q-7.65 14.75 -6.95 14.85 L-5.7 14.9 -7.25 11.25 Q-9.6 9.95 -10.15 8.7 L-10.65 7.0 -10.8 6.3 Q-8.35 8.85 -7.8 8.85 -7.3 9.3 -6.3 7.35 L-4.5 4.3 Q-4.15 3.85 -4.3 3.1 L-4.4 0.55 Q-4.5 -1.4 -5.0 -1.7" fill="none" stroke="#000000" stroke-linecap="round" stroke-linejoin="round" stroke-opacity="0.3764706" stroke-width="1.0"/>
  </g>
</svg>
