<?xml version="1.0" encoding="UTF-8" standalone="no"?>
<svg xmlns:ffdec="https://www.free-decompiler.com/flash" xmlns:xlink="http://www.w3.org/1999/xlink" ffdec:objectType="shape" height="23.15px" width="15.05px" xmlns="http://www.w3.org/2000/svg">
  <g transform="matrix(1.0, 0.0, 0.0, 1.0, 12.0, 3.9)">
    <path d="M-2.2 17.35 L-1.55 18.05 -3.8 18.55 -8.6 18.75 Q-9.05 18.5 -9.6 18.2 L-8.8 16.6 -3.7 16.35 -2.2 17.35" fill="#151515" fill-rule="evenodd" stroke="none"/>
    <path d="M-2.2 17.35 L-1.55 18.05 -3.8 18.55 -8.6 18.75 Q-9.05 18.5 -9.6 18.2 L-8.8 16.6 -3.7 16.35 -2.2 17.35 Z" fill="none" stroke="#151515" stroke-linecap="butt" stroke-linejoin="miter-clip" stroke-miterlimit="15.12109375" stroke-width="1.0"/>
    <path d="M2.15 -1.65 L2.45 -0.75 Q2.7 0.25 2.45 1.25 L1.75 5.45 0.35 7.1 Q-0.25 5.95 -0.75 5.55 -1.6 4.8 -3.2 4.45 L-3.65 -0.25 -1.9 -2.6 -0.15 -3.05 Q0.85 -3.2 1.75 -1.95 L2.15 -1.65" fill="#7b756f" fill-rule="evenodd" stroke="none"/>
    <path d="M-10.85 12.0 Q-11.35 4.9 -10.25 2.2 -8.65 -1.35 -4.2 -0.2 L-3.15 1.65 -2.5 4.0 0.7 5.95 0.55 10.75 Q0.15 14.3 -4.0 13.95 L-6.65 11.0 -8.2 10.5 -10.1 12.65 -10.85 12.0" fill="#5c5753" fill-rule="evenodd" stroke="none"/>
    <path d="M-10.85 12.0 L-10.1 12.65 -8.2 10.5 -6.65 11.0 -4.0 13.95 Q0.15 14.3 0.55 10.75 L0.7 5.95 -2.5 4.0 -3.15 1.65 -4.2 -0.2 Q-8.65 -1.35 -10.25 2.2 -11.35 4.9 -10.85 12.0 Z" fill="none" stroke="#413e3a" stroke-linecap="round" stroke-linejoin="round" stroke-width="1.0"/>
    <path d="M-4.25 11.25 L-4.2 15.05 -5.55 16.7 -7.2 16.85 -8.4 16.9 -9.8 18.75 -11.5 17.2 Q-10.7 16.0 -10.7 14.4 -10.65 13.35 -11.05 11.55 L-10.0 9.35 -8.5 8.05 -6.8 8.2 Q-6.4 8.2 -6.35 8.7 L-5.55 9.8 -4.25 11.25" fill="#5c5753" fill-rule="evenodd" stroke="none"/>
    <path d="M-4.25 11.25 L-4.2 15.05 -5.55 16.7 -7.2 16.85 -8.4 16.9 -9.8 18.75 -11.5 17.2 Q-10.7 16.0 -10.7 14.4 -10.65 13.35 -11.05 11.55 L-10.0 9.35 -8.5 8.05 -6.8 8.2 Q-6.4 8.2 -6.35 8.7 L-5.55 9.8 -4.25 11.25 Z" fill="none" stroke="#302e2a" stroke-linecap="round" stroke-linejoin="round" stroke-width="1.0"/>
    <path d="M0.35 11.85 L0.35 16.0 1.6 16.75 0.05 17.95 -1.7 18.4 -2.5 17.0 -5.45 16.65 -0.8 11.05 0.75 10.35 0.35 11.85" fill="#746e68" fill-rule="evenodd" stroke="none"/>
    <path d="M-1.6 -3.15 L0.4 -3.4 1.75 -1.95 2.15 -1.65 2.5 -0.55 2.55 0.7 2.05 2.8 0.95 4.1 0.7 4.5 0.8 6.5" fill="none" stroke="#3b3834" stroke-linecap="round" stroke-linejoin="round" stroke-width="1.0"/>
    <path d="M-1.9 -2.6 L-3.65 -0.25" fill="none" stroke="#413e3b" stroke-linecap="round" stroke-linejoin="round" stroke-width="1.0"/>
    <path d="M-3.65 -0.25 L-2.7 3.65 -3.95 6.5 -6.5 8.55" fill="none" stroke="#413e3a" stroke-linecap="round" stroke-linejoin="round" stroke-width="1.0"/>
    <path d="M0.45 6.0 Q-0.25 5.2 -1.4 4.8 L-2.5 4.5" fill="none" stroke="#413e3b" stroke-linecap="round" stroke-linejoin="round" stroke-width="1.0"/>
    <path d="M0.7 4.5 Q1.05 6.55 0.55 8.15" fill="none" stroke="#3b3834" stroke-linecap="round" stroke-linejoin="round" stroke-width="1.0"/>
    <path d="M-11.15 16.85 Q-11.0 17.3 -10.75 14.65 -10.5 11.75 -10.85 9.65 -11.55 7.25 -11.1 4.65 -10.55 1.7 -8.5 0.05" fill="none" stroke="#2e2c2a" stroke-linecap="round" stroke-linejoin="round" stroke-width="1.0"/>
    <path d="M0.55 8.35 L0.75 15.6 1.75 16.75 0.15 17.95 -1.3 18.0 -2.7 16.85 -5.9 17.0" fill="none" stroke="#413e3a" stroke-linecap="round" stroke-linejoin="round" stroke-width="1.0"/>
    <path d="M-5.4 17.15 L-4.45 15.4 -3.45 13.7 Q-1.85 13.3 -0.7 11.05 L0.45 10.6" fill="none" stroke="#413e3a" stroke-linecap="round" stroke-linejoin="round" stroke-width="1.0"/>
    <path d="M1.4 -2.3 L2.5 -1.15 2.15 2.55 1.1 3.85 0.6 7.55 0.6 15.3 1.85 16.55" fill="none" stroke="#2e2c2a" stroke-linecap="round" stroke-linejoin="round" stroke-width="1.0"/>
  </g>
</svg>
