<?xml version="1.0" encoding="UTF-8" standalone="no"?>
<svg xmlns:ffdec="https://www.free-decompiler.com/flash" xmlns:xlink="http://www.w3.org/1999/xlink" ffdec:objectType="shape" height="23.75px" width="14.5px" xmlns="http://www.w3.org/2000/svg">
  <g transform="matrix(1.0, 0.0, 0.0, 1.0, 8.8, 3.55)">
    <path d="M-8.05 8.1 Q-8.5 6.95 -8.05 4.45 L-7.05 0.35 Q-6.95 0.05 -5.95 0.85 -4.7 1.75 -3.7 1.5 -3.0 1.5 -0.9 0.7 0.95 0.45 0.9 3.15 0.95 4.6 -0.35 5.25 -1.6 5.85 -1.6 7.1 L-0.6 12.25 Q0.0 14.9 -2.4 16.6 L-6.65 17.15 -6.6 16.45 -6.55 15.55 -7.35 11.95 Q-8.05 9.55 -8.05 8.1" fill="#272727" fill-rule="evenodd" stroke="none"/>
    <path d="M-8.05 8.1 Q-8.05 9.55 -7.35 11.95 L-6.55 15.55 -6.6 16.45 -6.65 17.15 -2.4 16.6 Q0.0 14.9 -0.6 12.25 L-1.6 7.1 Q-1.6 5.85 -0.35 5.25 0.95 4.6 0.9 3.15 0.95 0.45 -0.9 0.7 -3.0 1.5 -3.7 1.5 -4.7 1.75 -5.95 0.85 -6.95 0.05 -7.05 0.35 L-8.05 4.45 Q-8.5 6.95 -8.05 8.1 Z" fill="none" stroke="#1a1a1a" stroke-linecap="round" stroke-linejoin="round" stroke-width="1.0"/>
    <path d="M-4.4 11.25 Q-4.35 10.25 -3.9 8.75 L-3.4 7.4 -1.75 6.7 Q-1.05 6.2 -0.4 5.0 L0.2 3.7 1.1 2.95 1.65 2.55 Q2.0 2.3 2.25 2.3 2.75 2.3 3.0 2.65 L3.45 3.6 Q3.8 4.5 3.7 5.75 3.6 6.95 3.3 7.25 L1.25 8.25 Q0.25 8.65 0.1 9.15 L0.05 9.95 -0.35 11.6 -0.95 12.95 -4.15 15.45 Q-4.1 13.8 -4.4 11.25" fill="url(#gradient0)" fill-rule="evenodd" stroke="none"/>
    <path d="M-4.4 11.25 Q-4.35 10.25 -3.9 8.75 L-3.4 7.4 -1.75 6.7 Q-1.05 6.2 -0.4 5.0 L0.2 3.7 1.1 2.95 1.65 2.55 Q2.0 2.3 2.25 2.3 2.75 2.3 3.0 2.65 L3.45 3.6 Q3.8 4.5 3.7 5.75 3.6 6.95 3.3 7.25 L1.25 8.25 Q0.25 8.65 0.1 9.15 L0.05 9.95 -0.35 11.6 -0.95 12.95 -4.15 15.45 Q-4.1 13.8 -4.4 11.25 Z" fill="none" stroke="#181819" stroke-linecap="butt" stroke-linejoin="miter-clip" stroke-miterlimit="15.12109375" stroke-width="1.0"/>
    <path d="M0.35 10.85 L0.7 10.05 Q0.75 10.55 1.1 10.5 L1.8 10.15 3.3 9.45 Q3.6 9.55 3.3 11.05 L4.1 15.15 5.2 18.3 4.0 18.95 1.95 19.35 -1.45 19.6 -3.95 19.65 Q-4.5 18.65 -4.25 16.35 L-3.65 15.7 Q-1.45 13.95 -1.25 13.3 -0.9 11.9 -0.25 11.25 L0.35 10.85" fill="url(#gradient1)" fill-rule="evenodd" stroke="none"/>
    <path d="M0.35 10.85 L-0.25 11.25 Q-0.9 11.9 -1.25 13.3 -1.45 13.95 -3.65 15.7 L-4.25 16.35 Q-4.5 18.65 -3.95 19.65 L-1.45 19.6 1.95 19.35 4.0 18.95 5.2 18.3 4.1 15.15 3.3 11.05 Q3.6 9.55 3.3 9.45 L1.8 10.15 1.1 10.5 Q0.75 10.55 0.7 10.05 L0.35 10.85 Z" fill="none" stroke="#181819" stroke-linecap="round" stroke-linejoin="round" stroke-width="1.0"/>
    <path d="M-0.9 4.7 Q-1.5 5.0 -2.2 4.5 L-3.4 3.0 Q-3.5 2.35 -2.95 1.35 -1.95 1.0 -1.6 0.4 -1.25 0.1 -1.05 -0.9 1.4 -1.15 2.8 -2.15 3.5 -2.7 3.7 -2.15 L3.8 0.05 Q3.65 1.7 2.95 2.25 1.55 2.0 0.25 3.3 L-0.3 3.95 -0.9 4.7" fill="url(#gradient2)" fill-rule="evenodd" stroke="none"/>
    <path d="M-0.9 4.7 L-0.3 3.95 0.25 3.3 Q1.55 2.0 2.95 2.25 3.65 1.7 3.8 0.05 L3.7 -2.15 Q3.5 -2.7 2.8 -2.15 1.4 -1.15 -1.05 -0.9 -1.25 0.1 -1.6 0.4 -1.95 1.0 -2.95 1.35 -3.5 2.35 -3.4 3.0 L-2.2 4.5 Q-1.5 5.0 -0.9 4.7 Z" fill="none" stroke="#1a1717" stroke-linecap="butt" stroke-linejoin="miter-clip" stroke-miterlimit="15.12109375" stroke-width="1.0"/>
    <path d="M3.15 8.35 L1.05 9.55" fill="none" stroke="#dcc64f" stroke-linecap="round" stroke-linejoin="round" stroke-width="1.0"/>
  </g>
  <defs>
    <radialGradient cx="0" cy="0" gradientTransform="matrix(0.0091, 0.0012, 0.0025, -0.0122, -4.8, 11.15)" gradientUnits="userSpaceOnUse" id="gradient0" r="819.2" spreadMethod="pad">
      <stop offset="0.0" stop-color="#171718"/>
      <stop offset="1.0" stop-color="#5b5b60"/>
    </radialGradient>
    <radialGradient cx="0" cy="0" gradientTransform="matrix(0.0049, 0.0, 1.0E-4, -0.0252, -0.15, 14.3)" gradientUnits="userSpaceOnUse" id="gradient1" r="819.2" spreadMethod="pad">
      <stop offset="0.0" stop-color="#2c2c2e"/>
      <stop offset="1.0" stop-color="#505054"/>
    </radialGradient>
    <radialGradient cx="0" cy="0" gradientTransform="matrix(0.0034, 0.0018, 0.0038, -0.0112, -0.8, 1.1)" gradientUnits="userSpaceOnUse" id="gradient2" r="819.2" spreadMethod="pad">
      <stop offset="0.0" stop-color="#251d1d"/>
      <stop offset="1.0" stop-color="#493f3f"/>
    </radialGradient>
  </defs>
</svg>
