<?xml version="1.0" encoding="UTF-8" standalone="no"?>
<svg xmlns:xlink="http://www.w3.org/1999/xlink" height="29.6px" width="24.3px" xmlns="http://www.w3.org/2000/svg">
  <g transform="matrix(1.0, 0.0, 0.0, 1.0, 15.2, 30.7)">
    <path d="M-5.05 -29.35 Q-4.55 -28.5 -0.35 -28.6 2.65 -28.35 3.85 -27.3 -3.9 -25.6 -5.05 -29.35" fill="#2c2c2c" fill-rule="evenodd" stroke="none"/>
    <path d="M0.55 -14.3 L3.8 -13.9 0.55 -14.3 M0.75 -11.75 L3.25 -11.55 0.75 -11.75 M3.85 -27.3 L6.0 -26.8 Q10.95 -21.8 6.55 -9.15 L4.4 -9.1 -1.7 -9.95 Q-3.55 -10.45 -4.55 -11.15 L-7.35 -13.05 Q-9.25 -16.5 -8.6 -23.45 -7.95 -26.55 -5.05 -29.35 -3.9 -25.6 3.85 -27.3 M4.4 -6.3 L5.55 -6.3 Q5.0 -2.2 3.1 -1.75 L-2.5 -2.0 Q-6.15 -2.7 -6.5 -7.05 L4.4 -6.3" fill="#cccccc" fill-rule="evenodd" stroke="none"/>
    <path d="M4.4 -9.1 L4.4 -6.3 -6.5 -7.05 -9.7 -8.95 -11.25 -19.0 -14.4 -20.95 -14.7 -22.75 -13.05 -29.7 Q-7.65 -30.85 -5.05 -29.35 -7.95 -26.55 -8.6 -23.45 -9.25 -16.5 -7.35 -13.05 L-4.55 -11.15 Q-3.55 -10.45 -1.7 -9.95 L4.4 -9.1 M-7.35 -13.05 Q-6.75 -12.75 -6.5 -7.05 -6.75 -12.75 -7.35 -13.05 M-2.75 -8.1 L-3.3 -9.15 -2.75 -8.1 M-4.1 -8.1 L-4.65 -9.15 -4.1 -8.1" fill="#999999" fill-rule="evenodd" stroke="none"/>
    <path d="M-5.05 -29.35 Q-4.55 -28.5 -0.35 -28.6 2.65 -28.35 3.85 -27.3" fill="none" stroke="#000000" stroke-linecap="round" stroke-linejoin="round" stroke-width="1.0"/>
    <path d="M3.25 -11.55 L0.75 -11.75 M3.8 -13.9 L0.55 -14.3 M6.55 -9.15 L4.4 -9.1 -1.7 -9.95 Q-3.55 -10.45 -4.55 -11.15 L-7.35 -13.05 Q-9.25 -16.5 -8.6 -23.45 -7.95 -26.55 -5.05 -29.35 M-4.65 -9.15 L-4.1 -8.1 M-3.3 -9.15 L-2.75 -8.1 M-6.5 -7.05 Q-6.75 -12.75 -7.35 -13.05 M4.4 -6.3 L-6.5 -7.05" fill="none" stroke="#666666" stroke-linecap="round" stroke-linejoin="round" stroke-width="1.0"/>
    <path d="M3.85 -27.3 L6.0 -26.8 Q10.95 -21.8 6.55 -9.15 M4.4 -9.1 L4.4 -6.3 5.55 -6.3 Q5.0 -2.2 3.1 -1.75 L-2.5 -2.0 Q-6.15 -2.7 -6.5 -7.05 L-9.7 -8.95 M-14.4 -20.95 L-14.7 -22.75 -13.05 -29.7 Q-7.65 -30.85 -5.05 -29.35" fill="none" stroke="#444444" stroke-linecap="round" stroke-linejoin="round" stroke-width="1.0"/>
    <path d="M-9.7 -8.95 L-11.25 -19.0 -14.4 -20.95 M3.85 -27.3 Q-3.9 -25.6 -5.05 -29.35" fill="none" stroke="#5e5e5e" stroke-linecap="round" stroke-linejoin="round" stroke-width="1.0"/>
  </g>
</svg>
