<?xml version="1.0" encoding="UTF-8" standalone="no"?>
<svg xmlns:ffdec="https://www.free-decompiler.com/flash" xmlns:xlink="http://www.w3.org/1999/xlink" ffdec:objectType="shape" height="20.35px" width="18.65px" xmlns="http://www.w3.org/2000/svg">
  <g transform="matrix(1.0, 0.0, 0.0, 1.0, 0.5, 0.5)">
    <path d="M11.7 4.0 L11.8 3.9 11.85 4.05 11.7 4.0 M12.25 13.85 L12.25 14.9 Q12.25 14.4 11.9 14.5 L11.4 14.6 12.25 13.85 M15.05 8.65 L14.9 8.85 15.05 8.65 M3.4 6.15 L3.5 6.85 4.0 8.25 4.4 8.8 6.55 11.7 6.8 12.05 8.4 14.1 8.95 14.8 9.0 14.9 8.85 15.05 7.45 16.1 5.1 13.05 5.0 12.9 4.45 13.3 0.75 8.4 1.3 8.0 1.7 7.7 3.4 6.4 3.4 6.15 M2.15 8.3 L1.7 7.7 2.15 8.3 M4.3 11.15 L3.9 10.6 4.3 11.15 M12.8 15.6 L16.15 16.1 17.5 15.65 17.65 16.9 Q17.5 18.75 17.05 18.75 15.9 19.6 14.65 19.2 13.45 18.5 13.1 17.45 L12.8 15.6 M5.0 12.9 L6.55 11.7 5.0 12.9" fill="#232323" fill-rule="evenodd" stroke="none"/>
    <path d="M13.35 5.05 L12.65 4.45 11.7 4.0 11.85 4.05 11.8 3.9 13.4 4.5 Q14.1 5.3 14.8 6.45 L13.35 5.05 M15.1 7.05 L15.4 7.6 15.4 7.75 15.25 7.4 15.1 7.05 M15.1 8.65 L15.05 8.65 15.1 8.65" fill="#8a8580" fill-rule="evenodd" stroke="none"/>
    <path d="M12.25 14.9 L12.25 14.95 11.9 14.5 Q12.25 14.4 12.25 14.9" fill="#666666" fill-rule="evenodd" stroke="none"/>
    <path d="M9.1 17.75 L8.75 18.05 7.9 16.9 7.8 16.95 4.9 13.2 5.1 13.05 7.45 16.1 8.85 15.05 9.4 15.75 10.25 16.9 9.9 17.15 9.1 17.75 M9.4 15.75 L7.9 16.9 9.4 15.75" fill="#353535" fill-rule="evenodd" stroke="none"/>
    <path d="M4.05 8.2 L4.1 8.05 4.15 8.15 4.05 8.2" fill="#562626" fill-rule="evenodd" stroke="none"/>
    <path d="M11.15 4.35 L9.3 5.75 Q8.65 5.7 8.45 5.45 L8.35 5.3 8.15 5.0 7.35 4.3 6.5 3.7 Q5.8 2.45 4.45 1.6 3.3 1.45 0.75 2.4 L0.85 1.05 Q3.65 -0.4 4.95 0.15 5.95 0.65 6.95 1.75 L8.3 1.15 9.0 1.25 11.15 4.35 M12.25 14.95 Q13.5 13.95 14.25 13.5 L15.15 12.85 15.85 11.8 Q17.7 13.1 17.5 15.65 L16.15 16.1 12.8 15.6 12.25 14.95 M6.95 1.75 Q7.85 3.05 8.4 4.45 L8.45 5.45 8.4 4.45 Q7.85 3.05 6.95 1.75" fill="#191919" fill-rule="evenodd" stroke="none"/>
    <path d="M9.3 5.75 L10.25 8.75 10.75 9.15 11.4 9.75 12.15 10.7 12.2 10.8 13.05 12.55 12.25 13.85 11.4 14.6 Q10.5 15.25 9.35 15.35 L9.0 14.9 8.95 14.8 8.4 14.1 6.8 12.05 6.55 11.7 4.4 8.8 4.0 8.25 3.5 6.85 3.4 6.15 3.35 5.75 6.25 3.55 6.5 3.7 7.35 4.3 8.15 5.0 8.35 5.3 8.45 5.45 Q8.65 5.7 9.3 5.75 M4.05 8.2 L4.15 8.15 4.1 8.05 4.05 8.2 M6.95 11.3 L10.25 8.75 6.95 11.3" fill="url(#gradient0)" fill-rule="evenodd" stroke="none"/>
    <path d="M0.75 2.4 Q3.3 1.45 4.45 1.6 5.8 2.45 6.5 3.7 L6.25 3.55 3.35 5.75 3.4 6.15 3.4 6.4 1.7 7.7 1.3 8.0 0.4 6.75 Q0.05 6.35 0.0 4.85 0.05 3.35 0.75 2.4" fill="url(#gradient1)" fill-rule="evenodd" stroke="none"/>
    <path d="M11.7 4.0 L13.35 5.05 14.8 6.45 15.1 7.05 15.25 7.4 Q15.35 8.05 15.05 8.65 L15.9 10.05 Q16.2 11.05 15.85 11.8 L15.15 12.85 14.25 13.5 Q13.5 13.95 12.25 14.95 L12.25 14.9 12.25 13.85 13.05 12.55 12.2 10.8 12.15 10.7 11.4 9.75 10.75 9.15 10.25 8.75 9.3 5.75 11.15 4.35 11.8 3.9 11.7 4.0 M14.9 8.85 L15.05 8.65 14.9 8.85 14.1 9.5 14.9 8.85" fill="url(#gradient2)" fill-rule="evenodd" stroke="none"/>
    <path d="M11.8 3.9 L11.15 4.35 9.3 5.75 10.25 8.75 10.75 9.15 11.4 9.75 12.15 10.7 12.2 10.8 13.05 12.55 12.25 13.85 12.25 14.9 12.25 14.95 Q13.5 13.95 14.25 13.5 L15.15 12.85 15.85 11.8 Q16.2 11.05 15.9 10.05 L15.05 8.65 14.9 8.85 14.1 9.5 M11.8 3.9 L13.4 4.5 Q14.1 5.3 14.8 6.45 L15.1 7.05 15.4 7.6 M15.4 7.75 L15.1 8.65 M6.95 1.75 L8.55 0.6 9.0 1.25 11.15 4.35 M6.5 3.7 L7.35 4.3 8.15 5.0 8.35 5.3 8.45 5.45 8.4 4.45 Q7.85 3.05 6.95 1.75 5.95 0.65 4.95 0.15 3.65 -0.4 0.85 1.05 L0.75 2.4 Q3.3 1.45 4.45 1.6 5.8 2.45 6.5 3.7 L6.25 3.55 3.35 5.75 3.4 6.15 3.5 6.85 4.0 8.25 4.4 8.8 6.55 11.7 6.8 12.05 8.4 14.1 8.95 14.8 9.0 14.9 9.35 15.35 Q10.5 15.25 11.4 14.6 L12.25 13.85 M8.45 5.45 Q8.65 5.7 9.3 5.75 M1.3 8.0 L0.4 6.75 Q0.05 6.35 0.0 4.85 0.05 3.35 0.75 2.4 M1.7 7.7 L2.15 8.3 M5.1 13.05 L5.0 12.9 4.45 13.3 0.75 8.4 1.3 8.0 1.7 7.7 3.4 6.4 3.4 6.15 M3.9 10.6 L4.3 11.15 M8.85 15.05 L9.0 14.9 M9.1 17.75 L8.75 18.05 7.9 16.9 7.8 16.95 4.9 13.2 5.1 13.05 7.45 16.1 8.85 15.05 9.4 15.75 10.25 16.9 9.9 17.15 M7.9 16.9 L9.4 15.75 M17.5 15.65 L16.15 16.1 12.8 15.6 13.1 17.45 Q13.45 18.5 14.65 19.2 15.9 19.6 17.05 18.75 17.5 18.75 17.65 16.9 L17.5 15.65 Q17.7 13.1 15.85 11.8 M11.9 14.5 L11.4 14.6 M11.9 14.5 Q12.25 14.4 12.25 14.9 M12.25 14.95 L11.9 14.5 M12.8 15.6 L12.25 14.95 M6.55 11.7 L5.0 12.9 M10.25 8.75 L6.95 11.3" fill="none" stroke="#0f0f0f" stroke-linecap="round" stroke-linejoin="round" stroke-width="1.0"/>
    <path d="M9.9 17.15 L9.1 17.75" fill="none" stroke="#ffff99" stroke-linecap="round" stroke-linejoin="round" stroke-width="1.0"/>
  </g>
  <defs>
    <radialGradient cx="0" cy="0" gradientTransform="matrix(0.0089, 0.0, 0.0, 0.0089, 7.5, 9.2)" gradientUnits="userSpaceOnUse" id="gradient0" r="819.2" spreadMethod="pad">
      <stop offset="0.0" stop-color="#333333"/>
      <stop offset="1.0" stop-color="#000000"/>
    </radialGradient>
    <radialGradient cx="0" cy="0" gradientTransform="matrix(0.007, 0.0, 0.0, 0.007, 4.1, 2.95)" gradientUnits="userSpaceOnUse" id="gradient1" r="819.2" spreadMethod="pad">
      <stop offset="0.0" stop-color="#756d5f"/>
      <stop offset="1.0" stop-color="#1f1f1f"/>
      <stop offset="1.0" stop-color="#333333"/>
      <stop offset="1.0" stop-color="#333333"/>
      <stop offset="1.0" stop-color="#202121"/>
      <stop offset="1.0" stop-color="#202121"/>
    </radialGradient>
    <radialGradient cx="0" cy="0" gradientTransform="matrix(0.0092, 0.0, 0.0, 0.0092, 11.5, 7.7)" gradientUnits="userSpaceOnUse" id="gradient2" r="819.2" spreadMethod="pad">
      <stop offset="0.0" stop-color="#756d5f"/>
      <stop offset="1.0" stop-color="#1f1f1f"/>
      <stop offset="1.0" stop-color="#333333"/>
      <stop offset="1.0" stop-color="#333333"/>
      <stop offset="1.0" stop-color="#202121"/>
      <stop offset="1.0" stop-color="#202121"/>
    </radialGradient>
  </defs>
</svg>
