<?xml version="1.0" encoding="UTF-8" standalone="no"?>
<svg xmlns:ffdec="https://www.free-decompiler.com/flash" xmlns:xlink="http://www.w3.org/1999/xlink" ffdec:objectType="shape" height="25.7px" width="15.35px" xmlns="http://www.w3.org/2000/svg">
  <g transform="matrix(1.0, 0.0, 0.0, 1.0, 7.4, 29.2)">
    <path d="M2.35 -15.75 L2.4 -15.6 Q2.4 -14.45 0.0 -14.45 -2.6 -14.45 -3.65 -15.05 L-3.7 -14.35 -3.85 -13.95 Q-5.0 -13.9 -5.0 -11.35 L-5.0 -11.3 -5.55 -14.15 -5.65 -15.25 -5.75 -17.1 Q-5.75 -18.4 -4.05 -18.45 -2.95 -18.4 -3.0 -17.3 L-3.05 -17.1 -2.95 -17.1 -0.05 -16.95 Q2.2 -16.65 2.35 -15.75 M-4.3 -9.75 L-4.25 -9.0 -4.55 -8.55 -4.15 -5.65 -3.9 -5.25 -3.8 -5.3 -3.65 -4.1 Q-3.65 -3.5 -4.1 -3.5 -4.4 -3.5 -4.75 -5.65 L-5.25 -10.1 -5.05 -11.0 -4.8 -11.1 -4.4 -10.85 -4.3 -9.75" fill="#6f6f6f" fill-rule="evenodd" stroke="none"/>
    <path d="M-3.85 -13.95 L-3.8 -13.95 Q-3.3 -13.95 -3.15 -13.5 -3.75 -13.4 -3.7 -12.45 L-3.55 -11.55 -4.3 -9.75 -4.4 -10.85 -4.8 -11.1 -5.05 -11.0 -5.0 -11.3 -5.0 -11.35 Q-5.0 -13.9 -3.85 -13.95 M-1.95 -13.45 Q-1.9 -13.95 -1.0 -13.95 0.6 -13.95 0.6 -13.1 L0.45 -12.8 Q0.35 -12.6 0.0 -12.6 -1.95 -12.6 -1.95 -13.4 L-1.95 -13.45 M-4.25 -9.0 L-4.0 -9.05 Q-3.5 -9.05 -3.45 -8.1 L-3.45 -7.15 Q-3.45 -6.1 -3.6 -5.65 -3.65 -5.35 -3.8 -5.3 L-3.9 -5.25 -4.15 -5.65 -4.55 -8.55 -4.25 -9.0" fill="#2f2f2f" fill-rule="evenodd" stroke="none"/>
    <path d="M5.7 -15.85 Q5.5 -15.25 4.7 -15.25 4.15 -15.25 3.85 -15.5 3.55 -15.8 3.7 -16.45 3.7 -17.9 4.8 -17.9 5.9 -17.9 5.8 -16.3 L5.7 -15.85 M-3.15 -13.5 L-3.05 -13.5 -2.6 -13.3 -1.95 -13.45 -1.95 -13.4 Q-1.95 -12.6 0.0 -12.6 0.35 -12.6 0.45 -12.8 L0.45 -12.45 Q0.45 -11.3 -1.35 -11.3 L-2.65 -11.45 Q-2.8 -11.3 -3.05 -11.3 -3.35 -11.3 -3.55 -11.55 L-3.7 -12.45 Q-3.75 -13.4 -3.15 -13.5" fill="#8c8c8c" fill-rule="evenodd" stroke="none"/>
    <path d="M3.4 -22.75 Q4.95 -23.6 6.1 -23.6 L6.65 -23.45 7.2 -22.9 6.75 -23.0 Q5.7 -22.95 5.5 -21.4 5.25 -19.85 3.9 -19.8 L3.95 -20.15 3.4 -22.75" fill="#aeaeae" fill-rule="evenodd" stroke="none"/>
    <path d="M3.1 -26.8 Q2.3 -26.8 2.25 -25.75 L4.35 -23.45 Q5.0 -23.45 5.0 -24.55 4.0 -26.8 3.1 -26.8 M-6.15 -22.8 L-5.4 -25.3 Q-4.65 -26.95 -3.35 -28.4 L1.05 -28.7 4.7 -25.95 6.65 -23.45 6.1 -23.6 Q4.95 -23.6 3.4 -22.75 2.95 -23.95 2.3 -23.95 1.5 -23.95 1.5 -23.0 L1.6 -21.6 Q0.45 -21.5 0.25 -20.8 L0.0 -20.75 Q-0.45 -22.35 -1.85 -22.4 L-2.35 -22.4 Q-1.95 -22.8 -2.15 -24.35 -1.75 -26.6 -3.15 -26.6 L-4.15 -25.95 -5.0 -24.9 Q-5.0 -24.15 -4.6 -23.45 L-3.75 -22.7 -3.1 -22.3 -4.85 -21.8 Q-5.15 -22.75 -6.0 -22.8 L-6.15 -22.8 M-0.95 -27.2 Q-1.65 -27.2 -1.65 -25.15 -2.1 -22.8 -0.45 -22.8 0.45 -22.75 0.45 -23.85 L-0.95 -27.2" fill="#222222" fill-rule="evenodd" stroke="none"/>
    <path d="M3.1 -26.8 Q4.0 -26.8 5.0 -24.55 5.0 -23.45 4.35 -23.45 L2.25 -25.75 Q2.3 -26.8 3.1 -26.8 M-6.15 -22.8 L-6.0 -22.8 Q-5.15 -22.75 -4.85 -21.8 L-3.1 -22.3 -3.75 -22.7 -4.6 -23.45 Q-5.0 -24.15 -5.0 -24.9 L-4.15 -25.95 -3.15 -26.6 Q-1.75 -26.6 -2.15 -24.35 -1.95 -22.8 -2.35 -22.4 L-1.85 -22.4 Q-0.45 -22.35 0.0 -20.75 L0.25 -20.8 Q0.45 -21.5 1.6 -21.6 L1.5 -23.0 Q1.5 -23.95 2.3 -23.95 2.95 -23.95 3.4 -22.75 L3.95 -20.15 3.9 -19.8 Q5.25 -19.85 5.5 -21.4 5.7 -22.95 6.75 -23.0 L7.2 -22.9 Q8.3 -22.65 7.8 -20.2 7.35 -17.7 7.7 -16.5 L5.7 -15.85 5.8 -16.3 Q5.9 -17.9 4.8 -17.9 3.7 -17.9 3.7 -16.45 3.55 -15.8 3.85 -15.5 L2.35 -15.75 Q2.2 -16.65 -0.05 -16.95 L-0.7 -17.6 -1.5 -17.45 -3.0 -17.3 Q-2.95 -18.4 -4.05 -18.45 -5.75 -18.4 -5.75 -17.1 L-5.65 -15.25 Q-7.05 -15.35 -6.95 -17.65 -7.5 -18.5 -7.4 -20.75 -7.4 -22.65 -6.15 -22.8 M-0.95 -27.2 L0.45 -23.85 Q0.45 -22.75 -0.45 -22.8 -2.1 -22.8 -1.65 -25.15 -1.65 -27.2 -0.95 -27.2" fill="#555555" fill-rule="evenodd" stroke="none"/>
    <path d="M6.65 -23.45 L4.7 -25.95 1.05 -28.7 -3.35 -28.4 Q-4.65 -26.95 -5.4 -25.3 L-6.15 -22.8 M6.65 -23.45 L7.2 -22.9" fill="none" stroke="#000000" stroke-linecap="round" stroke-linejoin="round" stroke-width="1.0"/>
  </g>
</svg>
