<?xml version="1.0" encoding="UTF-8" standalone="no"?>
<svg xmlns:xlink="http://www.w3.org/1999/xlink" height="40.5px" width="25.55px" xmlns="http://www.w3.org/2000/svg">
  <g transform="matrix(1.0, 0.0, 0.0, 1.0, 15.6, 43.75)">
    <path d="M-3.6 -28.05 L2.05 -28.05 Q5.6 -27.25 7.4 -25.4 L2.35 -25.4 1.7 -23.65 -2.4 -23.3 -3.6 -28.05" fill="#e38902" fill-rule="evenodd" stroke="none"/>
    <path d="M-2.4 -23.3 L1.7 -23.65 1.7 -20.95 -2.45 -20.35 -2.4 -23.3 M1.5 -19.05 L2.1 -17.35 6.4 -17.1 6.1 -14.6 3.15 -14.6 2.4 -12.95 2.3 -13.45 -2.25 -13.05 -2.5 -18.3 1.5 -19.05" fill="#996600" fill-rule="evenodd" stroke="none"/>
    <path d="M-3.6 -28.05 L-2.4 -23.3 -2.45 -20.35 -4.65 -20.85 -4.65 -23.15 -7.1 -23.8 -7.1 -25.85 -3.6 -28.05 M-2.5 -18.3 L-2.25 -13.05 -3.65 -13.45 -4.65 -14.05 -4.65 -19.05 -2.5 -18.3" fill="#d27e02" fill-rule="evenodd" stroke="none"/>
    <path d="M5.5 -10.7 Q3.45 -6.65 3.6 -5.7 3.55 -3.35 -1.2 -3.8 L-2.2 -10.6 2.65 -11.65 2.8 -10.7 5.5 -10.7" fill="#764701" fill-rule="evenodd" stroke="none"/>
    <path d="M-1.2 -3.8 Q-3.45 -3.8 -6.05 -5.5 L-7.1 -9.8 -4.65 -10.65 -4.65 -11.65 -2.2 -10.6 -1.2 -3.8" fill="#a76503" fill-rule="evenodd" stroke="none"/>
    <path d="M1.7 -23.65 L2.35 -25.4 7.4 -25.4 9.4 -24.8 9.45 -17.8 6.4 -17.1 2.1 -17.35 1.5 -19.05 1.7 -20.95 1.7 -23.65 M-7.1 -9.8 L-7.1 -8.0 -8.65 -8.3 -8.65 -9.75 -8.65 -8.3 -10.15 -8.55 -11.8 -8.9 -11.8 -9.6 -11.8 -11.2 -14.4 -12.0 -15.1 -12.2 -15.1 -20.0 -14.15 -20.8 -12.4 -22.3 -12.4 -23.7 -12.45 -24.4 -10.9 -25.0 -8.8 -27.0 -7.95 -27.0 -7.1 -27.0 -7.1 -25.85 -7.1 -23.8 -7.1 -9.8 M8.0 -21.85 L8.0 -23.85 3.6 -23.85 3.6 -21.85 8.0 -21.85 M7.5 -18.85 L8.05 -20.85 3.65 -20.85 3.1 -18.85 7.5 -18.85 M2.4 -12.95 L3.15 -14.6 6.1 -14.6 6.7 -14.6 6.7 -10.7 5.5 -10.7 2.8 -10.7 2.65 -11.65 2.6 -11.9 2.5 -12.55 2.4 -12.95 M-10.15 -10.25 L-10.15 -8.55 -10.15 -10.25 M-10.15 -21.75 L-13.1 -19.25 -13.1 -17.5 -10.15 -17.5 -10.15 -21.75 M-10.15 -16.0 L-13.1 -16.0 -13.1 -13.75 -10.15 -12.75 -10.15 -16.0 M-8.75 -14.6 L-8.75 -25.1 -8.75 -14.6" fill="#999999" fill-rule="evenodd" stroke="none"/>
    <path d="M9.45 -17.8 L7.8 -8.55 5.5 -9.55 5.5 -10.7 6.7 -10.7 6.7 -14.6 6.1 -14.6 6.4 -17.1 9.45 -17.8 M1.7 -20.95 L1.5 -19.05 -2.5 -18.3 -4.65 -19.05 -4.65 -14.05 -3.65 -13.45 -2.25 -13.05 2.3 -13.45 2.4 -12.95 2.5 -12.55 2.6 -11.9 2.65 -11.65 -2.2 -10.6 -4.65 -11.65 -4.65 -10.65 -7.1 -9.8 -7.1 -23.8 -4.65 -23.15 -4.65 -20.85 -2.45 -20.35 1.7 -20.95 M-4.65 -20.85 L-4.65 -19.05 -4.65 -20.85 M-4.65 -11.65 L-4.65 -14.05 -4.65 -11.65" fill="#333333" fill-rule="evenodd" stroke="none"/>
    <path d="M7.5 -18.85 L3.1 -18.85 3.65 -20.85 8.05 -20.85 7.5 -18.85 M8.0 -21.85 L3.6 -21.85 3.6 -23.85 8.0 -23.85 8.0 -21.85 M-12.4 -23.7 L-12.4 -22.3 -14.15 -20.8 -14.2 -22.3 -12.4 -23.7 M-14.4 -12.0 L-11.8 -11.2 -11.8 -9.6 -14.4 -10.5 -14.4 -12.0 M-10.15 -21.75 L-10.15 -17.5 -13.1 -17.5 -13.1 -19.25 -10.15 -21.75 M-10.15 -16.0 L-10.15 -12.75 -13.1 -13.75 -13.1 -16.0 -10.15 -16.0" fill="#990000" fill-rule="evenodd" stroke="none"/>
    <path d="M-10.9 -42.1 L-10.9 -42.75" fill="none" stroke="#ff0000" stroke-linecap="round" stroke-linejoin="round" stroke-width="2.0"/>
    <path d="M7.4 -25.4 Q5.6 -27.25 2.05 -28.05 L-3.6 -28.05 -7.1 -25.85 M-1.2 -3.8 Q-3.45 -3.8 -6.05 -5.5 L-7.1 -9.8" fill="none" stroke="#653d01" stroke-linecap="round" stroke-linejoin="round" stroke-width="1.0"/>
    <path d="M5.5 -10.7 Q3.45 -6.65 3.6 -5.7 3.55 -3.35 -1.2 -3.8" fill="none" stroke="#543201" stroke-linecap="round" stroke-linejoin="round" stroke-width="1.0"/>
    <path d="M1.7 -23.65 L2.35 -25.4 7.4 -25.4 M9.45 -17.8 L7.8 -8.55 5.5 -9.55 5.5 -10.7 6.7 -10.7 6.7 -14.6 6.1 -14.6 6.4 -17.1 9.45 -17.8 M-7.1 -9.8 L-7.1 -8.0 M-8.65 -8.3 L-8.65 -6.55 M1.7 -20.95 L1.5 -19.05 2.1 -17.35 6.4 -17.1 M1.7 -20.95 L1.7 -23.65 M-2.25 -13.05 L2.3 -13.45 2.4 -12.95 3.15 -14.6 6.1 -14.6 M2.4 -12.95 L2.5 -12.55 2.6 -11.9 2.65 -11.65 2.8 -10.7 5.5 -10.7 M2.65 -11.65 L-2.2 -10.6 -4.65 -11.65 -4.65 -10.65 -7.1 -9.8 -7.1 -23.8 -4.65 -23.15 -4.65 -20.85 -2.45 -20.35 1.7 -20.95 M-10.15 -8.55 L-10.15 -10.25 M-7.1 -25.85 L-7.1 -23.8 M-4.65 -19.05 L-4.65 -20.85 M-2.5 -18.3 L-4.65 -19.05 -4.65 -14.05 -3.65 -13.45 -2.25 -13.05 M-10.15 -8.55 L-10.15 -7.05 M-8.65 -9.75 L-8.65 -8.3 M-4.65 -14.05 L-4.65 -11.65 M1.5 -19.05 L-2.5 -18.3" fill="none" stroke="#1a1a1a" stroke-linecap="round" stroke-linejoin="round" stroke-width="1.0"/>
    <path d="M7.4 -25.4 L9.4 -24.8 9.45 -17.8 M-7.1 -8.0 L-8.65 -8.3 -10.15 -8.55 -11.8 -8.9 -11.8 -9.6 M-7.1 -25.85 L-7.1 -27.0 -7.95 -27.0 -8.8 -27.0 -10.9 -25.0 -12.45 -24.4 -12.4 -23.7 M-14.15 -20.8 L-15.1 -20.0 -15.1 -12.2 -14.4 -12.0 M-8.75 -25.1 L-8.75 -14.6" fill="none" stroke="#2f2f2f" stroke-linecap="round" stroke-linejoin="round" stroke-width="1.0"/>
    <path d="M7.5 -18.85 L3.1 -18.85 3.65 -20.85 8.05 -20.85 7.5 -18.85 M8.0 -21.85 L3.6 -21.85 3.6 -23.85 8.0 -23.85 8.0 -21.85 M-12.4 -23.7 L-12.4 -22.3 -14.15 -20.8 -14.2 -22.3 -12.4 -23.7 M-14.4 -12.0 L-11.8 -11.2 -11.8 -9.6 -14.4 -10.5 -14.4 -12.0 M-10.15 -21.75 L-10.15 -17.5 -13.1 -17.5 -13.1 -19.25 -10.15 -21.75 M-10.15 -16.0 L-10.15 -12.75 -13.1 -13.75 -13.1 -16.0 -10.15 -16.0" fill="none" stroke="#4b0101" stroke-linecap="round" stroke-linejoin="round" stroke-width="1.0"/>
    <path d="M-10.9 -25.0 L-10.9 -42.1" fill="none" stroke="#000000" stroke-linecap="round" stroke-linejoin="round" stroke-opacity="0.5019608" stroke-width="1.0"/>
    <path d="M-7.95 -27.0 Q-7.65 -28.55 -5.55 -29.1 -3.05 -30.05 -2.65 -31.8" fill="none" stroke="#bb0000" stroke-linecap="round" stroke-linejoin="round" stroke-opacity="0.8" stroke-width="1.0"/>
  </g>
</svg>
