<?xml version="1.0" encoding="UTF-8" standalone="no"?>
<svg xmlns:xlink="http://www.w3.org/1999/xlink" height="28.55px" width="23.55px" xmlns="http://www.w3.org/2000/svg">
  <g transform="matrix(1.0, 0.0, 0.0, 1.0, 14.3, 30.6)">
    <path d="M-5.05 -29.35 Q-2.15 -31.0 0.55 -29.0 2.65 -28.35 3.85 -27.3 -3.9 -25.6 -5.05 -29.35" fill="#2c2c2c" fill-rule="evenodd" stroke="none"/>
    <path d="M6.25 -9.7 Q5.9 -7.55 6.05 -6.3 -1.1 -7.65 -5.55 -6.3 -5.3 -8.2 -5.6 -10.25 -5.8 -11.5 -6.35 -12.2 L-7.35 -13.05 -2.6 -10.95 Q1.6 -9.05 6.25 -9.7" fill="url(#gradient0)" fill-rule="evenodd" stroke="none"/>
    <path d="M3.85 -27.3 L4.4 -27.4 Q5.6 -27.2 6.65 -25.75 L7.65 -24.1 8.65 -21.7 7.65 -20.15 5.7 -18.9 5.7 -14.0 8.0 -12.75 8.75 -11.75 Q8.5 -9.8 6.25 -9.7 1.6 -9.05 -2.6 -10.95 L-7.35 -13.05 Q-9.25 -16.5 -8.6 -23.45 -7.95 -26.55 -6.85 -28.0 -6.05 -29.1 -5.05 -29.35 -3.9 -25.6 3.85 -27.3 M6.05 -6.3 L7.55 -6.3 Q7.3 -2.1 4.3 -2.6 L-1.6 -2.85 Q-4.55 -2.6 -5.55 -6.3 -1.1 -7.65 6.05 -6.3 M-6.35 -12.2 L-6.35 -10.4 Q-5.9 -5.6 -6.7 -6.35 L-8.05 -7.85 -8.05 -10.85 -6.35 -12.2 M-10.5 -7.8 L-11.4 -8.45 Q-12.2 -9.25 -12.25 -10.4 L-12.25 -12.4 -10.5 -10.75 -10.5 -7.8 M3.4 -24.05 Q5.6 -24.35 6.65 -25.75 5.6 -24.35 3.4 -24.05 M4.6 -22.35 Q7.35 -23.05 7.65 -24.1 7.35 -23.05 4.6 -22.35 M-3.55 -18.6 L-5.55 -18.6 -3.55 -18.6 M2.45 -18.6 L-0.55 -18.6 2.45 -18.6 M1.45 -16.6 L-2.55 -16.6 1.45 -16.6 M-4.55 -14.6 L0.45 -14.6 -4.55 -14.6" fill="#f0c468" fill-rule="evenodd" stroke="none"/>
    <path d="M7.65 -20.15 L8.55 -17.05 8.0 -12.75 5.7 -14.0 5.7 -18.9 7.65 -20.15 M-12.25 -12.4 L-12.25 -13.95 -12.25 -15.5 -12.25 -17.25 -12.25 -24.35 -13.1 -25.9 -11.85 -28.55 -9.1 -29.35 Q-8.05 -29.3 -7.25 -28.5 L-6.85 -28.0 Q-7.95 -26.55 -8.6 -23.45 -9.25 -16.5 -7.35 -13.05 L-6.35 -12.2 -8.05 -10.85 -9.2 -11.35 -10.5 -10.75 -12.25 -12.4 M-10.85 -19.5 L-10.85 -23.5 -12.25 -24.35 -10.85 -23.5 -10.85 -19.5 M-9.8 -17.25 L-12.25 -17.25 -9.8 -17.25 M-9.75 -15.5 L-12.25 -15.5 -9.75 -15.5" fill="#a47a4d" fill-rule="evenodd" stroke="none"/>
    <path d="M-8.05 -7.85 Q-8.6 -7.55 -9.3 -7.55 L-10.5 -7.8 -10.5 -10.75 -9.2 -11.35 -8.05 -10.85 -8.05 -7.85" fill="#11e8ff" fill-rule="evenodd" stroke="none"/>
    <path d="M-5.05 -29.35 Q-2.15 -31.0 0.55 -29.0 2.65 -28.35 3.85 -27.3 M6.25 -9.7 Q5.9 -7.55 6.05 -6.3 M-5.55 -6.3 Q-5.3 -8.2 -5.6 -10.25 -5.8 -11.5 -6.35 -12.2" fill="none" stroke="#1a1a1a" stroke-linecap="round" stroke-linejoin="round" stroke-width="1.0"/>
    <path d="M3.85 -27.3 L4.4 -27.4 Q5.6 -27.2 6.65 -25.75 L7.65 -24.1 8.65 -21.7 7.65 -20.15 5.7 -18.9 5.7 -14.0 8.0 -12.75 8.75 -11.75 Q8.5 -9.8 6.25 -9.7 1.6 -9.05 -2.6 -10.95 L-7.35 -13.05 Q-9.25 -16.5 -8.6 -23.45 -7.95 -26.55 -6.85 -28.0 -6.05 -29.1 -5.05 -29.35 -3.9 -25.6 3.85 -27.3 M6.05 -6.3 L7.55 -6.3 Q7.3 -2.1 4.3 -2.6 L-1.6 -2.85 Q-4.55 -2.6 -5.55 -6.3 -1.1 -7.65 6.05 -6.3 M-6.35 -12.2 L-6.35 -10.4 Q-5.9 -5.6 -6.7 -6.35 L-8.05 -7.85 -8.05 -10.85 -6.35 -12.2 M-10.5 -7.8 L-11.4 -8.45 Q-12.2 -9.25 -12.25 -10.4 L-12.25 -12.4 -10.5 -10.75 -10.5 -7.8 M7.65 -24.1 Q7.35 -23.05 4.6 -22.35 M6.65 -25.75 Q5.6 -24.35 3.4 -24.05" fill="none" stroke="#513c1e" stroke-linecap="round" stroke-linejoin="round" stroke-width="1.0"/>
    <path d="M-12.25 -13.95 L-13.8 -12.55 -13.8 -9.05" fill="none" stroke="#000000" stroke-linecap="round" stroke-linejoin="round" stroke-opacity="0.8" stroke-width="1.0"/>
    <path d="M-5.55 -18.6 L-3.55 -18.6 M0.45 -14.6 L-4.55 -14.6 M-2.55 -16.6 L1.45 -16.6 M-0.55 -18.6 L2.45 -18.6" fill="none" stroke="#ab7a32" stroke-linecap="round" stroke-linejoin="round" stroke-width="1.0"/>
    <path d="M7.65 -20.15 L8.55 -17.05 8.0 -12.75 M-12.25 -12.4 L-12.25 -13.95 -12.25 -15.5 -9.75 -15.5 M-6.85 -28.0 L-7.25 -28.5 Q-8.05 -29.3 -9.1 -29.35 L-11.85 -28.55 -13.1 -25.9 -12.25 -24.35 -10.85 -23.5 -10.85 -19.5 M-12.25 -24.35 L-12.25 -17.25 -9.8 -17.25 M-12.25 -17.25 L-12.25 -15.5 M-10.5 -10.75 L-9.2 -11.35 -8.05 -10.85 M-6.35 -12.2 L-7.35 -13.05" fill="none" stroke="#4a3624" stroke-linecap="round" stroke-linejoin="round" stroke-width="1.0"/>
    <path d="M-8.05 -7.85 Q-8.6 -7.55 -9.3 -7.55 L-10.5 -7.8" fill="none" stroke="#015b65" stroke-linecap="round" stroke-linejoin="round" stroke-width="1.0"/>
  </g>
  <defs>
    <radialGradient cx="0" cy="0" gradientTransform="matrix(0.0113, 0.0, 0.0, 0.0221, 0.75, -17.15)" gradientUnits="userSpaceOnUse" id="gradient0" r="819.2" spreadMethod="pad">
      <stop offset="0.0" stop-color="#444444"/>
      <stop offset="1.0" stop-color="#1a1a1a"/>
    </radialGradient>
  </defs>
</svg>
