<?xml version="1.0" encoding="UTF-8" standalone="no"?>
<svg xmlns:ffdec="https://www.free-decompiler.com/flash" xmlns:xlink="http://www.w3.org/1999/xlink" ffdec:objectType="shape" height="23.9px" width="18.55px" xmlns="http://www.w3.org/2000/svg">
  <g transform="matrix(1.0, 0.0, 0.0, 1.0, 2.5, 3.2)">
    <path d="M8.75 4.1 L3.9 6.75 3.4 5.5 Q5.4 4.0 7.95 3.0 L8.75 4.1" fill="#ff0000" fill-rule="evenodd" stroke="none"/>
    <path d="M7.9 16.35 L8.95 15.8 11.75 14.05 12.05 13.4 12.05 12.95 11.85 12.45 Q10.2 8.9 10.9 7.6 L11.8 5.65 13.2 8.55 Q14.15 10.6 13.7 11.55 L13.5 11.75 Q14.65 14.25 13.8 14.75 L9.55 17.05 9.45 17.1 Q8.95 17.3 7.9 16.35 M12.25 9.55 L12.0 9.55 12.25 9.55 M13.5 11.75 L11.85 12.45 13.5 11.75" fill="#313131" fill-rule="evenodd" stroke="none"/>
    <path d="M13.8 14.75 L15.45 16.65 Q15.7 17.3 15.4 18.25 15.1 19.15 14.35 19.75 13.5 20.4 12.45 20.15 11.45 19.85 10.6 19.15 9.65 18.4 9.55 17.05 L13.8 14.75" fill="#191919" fill-rule="evenodd" stroke="none"/>
    <path d="M7.9 16.35 L7.05 16.4 5.8 15.55 3.1 11.7 -1.2 5.0 Q-3.55 1.45 1.15 -1.35 5.8 -4.15 8.35 -1.05 10.85 2.0 11.45 3.5 12.0 5.0 11.8 5.65 L10.9 7.6 Q10.2 8.9 11.85 12.45 L12.05 12.95 12.05 13.4 11.75 14.05 8.95 15.8 7.9 16.35 M1.8 5.1 L1.55 5.1 1.8 5.1 M4.05 9.45 L3.8 9.45 4.05 9.45 M10.4 5.85 L10.15 5.85 10.4 5.85 M8.75 4.1 L7.95 3.0 Q5.4 4.0 3.4 5.5 L3.9 6.75 8.75 4.1 M10.6 13.1 L10.35 13.1 10.6 13.1 M7.35 14.7 L7.1 14.7 7.35 14.7 M6.5 0.0 L6.25 0.0 6.5 0.0" fill="url(#gradient0)" fill-rule="evenodd" stroke="none"/>
    <path d="M11.8 5.65 Q12.0 5.0 11.45 3.5 10.85 2.0 8.35 -1.05 5.8 -4.15 1.15 -1.35 -3.55 1.45 -1.2 5.0 L3.1 11.7 5.8 15.55 7.05 16.4 7.9 16.35 8.95 15.8 11.75 14.05 12.05 13.4 12.05 12.95 11.85 12.45 Q10.2 8.9 10.9 7.6 L11.8 5.65 13.2 8.55 Q14.15 10.6 13.7 11.55 L13.5 11.75 Q14.65 14.25 13.8 14.75 L15.45 16.65 Q15.7 17.3 15.4 18.25 15.1 19.15 14.35 19.75 13.5 20.4 12.45 20.15 11.45 19.85 10.6 19.15 9.65 18.4 9.55 17.05 L9.45 17.1 Q8.95 17.3 7.9 16.35 M11.85 12.45 L13.5 11.75 M13.8 14.75 L9.55 17.05" fill="none" stroke="#0e0e0e" stroke-linecap="round" stroke-linejoin="round" stroke-width="1.0"/>
    <path d="M12.0 9.55 L12.25 9.55 M10.15 5.85 L10.4 5.85 M3.8 9.45 L4.05 9.45 M1.55 5.1 L1.8 5.1 M6.25 0.0 L6.5 0.0 M7.1 14.7 L7.35 14.7 M10.35 13.1 L10.6 13.1" fill="none" stroke="#151515" stroke-linecap="round" stroke-linejoin="round" stroke-width="1.0"/>
    <path d="M8.75 4.1 L3.9 6.75 3.4 5.5 Q5.4 4.0 7.95 3.0 L8.75 4.1 Z" fill="none" stroke="#230000" stroke-linecap="round" stroke-linejoin="round" stroke-width="1.0"/>
  </g>
  <defs>
    <radialGradient cx="0" cy="0" fx="192.0" fy="0" gradientTransform="matrix(0.0162, 0.0, 0.0, 0.0162, 8.0, 5.25)" gradientUnits="userSpaceOnUse" id="gradient0" r="819.2" spreadMethod="pad">
      <stop offset="0.0" stop-color="#484848"/>
      <stop offset="0.4470588235294118" stop-color="#2a2a2a"/>
      <stop offset="1.0" stop-color="#0e0e0e"/>
      <stop offset="1.0" stop-color="#383838"/>
    </radialGradient>
  </defs>
</svg>
