<?xml version="1.0" encoding="UTF-8" standalone="no"?>
<svg xmlns:xlink="http://www.w3.org/1999/xlink" height="31.7px" width="16.3px" xmlns="http://www.w3.org/2000/svg">
  <g transform="matrix(1.0, 0.0, 0.0, 1.0, 0.5, 15.85)">
    <path d="M3.0 -15.35 L4.7 -12.85 4.7 -6.2 6.45 -5.1 6.45 -2.4 4.7 -1.85 4.7 1.85 6.45 2.4 6.45 5.1 4.7 6.2 4.7 12.85 3.0 15.35 0.0 15.35 0.0 -15.35 3.0 -15.35" fill="#767676" fill-rule="evenodd" stroke="none"/>
    <path d="M3.0 -15.35 L0.0 -15.35 0.0 15.35 3.0 15.35 4.7 12.85 4.7 6.2 6.45 5.1 6.45 2.4 4.7 1.85 4.7 -1.85 6.45 -2.4 6.45 -5.1 4.7 -6.2 4.7 -12.85 3.0 -15.35 Z" fill="none" stroke="#464646" stroke-linecap="round" stroke-linejoin="round" stroke-width="1.0"/>
    <path d="M15.3 -3.6 L6.25 -3.6 M15.3 3.6 L6.25 3.6" fill="none" stroke="#2e2e30" stroke-linecap="round" stroke-linejoin="round" stroke-width="1.0"/>
  </g>
</svg>
