<?xml version="1.0" encoding="UTF-8" standalone="no"?>
<svg xmlns:xlink="http://www.w3.org/1999/xlink" height="19.95px" width="23.3px" xmlns="http://www.w3.org/2000/svg">
  <g transform="matrix(1.0, 0.0, 0.0, 1.0, 12.8, 18.05)">
    <path d="M6.5 -13.0 L7.1 -12.7 7.35 -12.1 7.1 -11.5 Q6.85 -11.25 6.5 -11.25 6.15 -11.25 5.85 -11.5 5.6 -11.75 5.6 -12.1 L5.85 -12.7 Q6.15 -13.0 6.5 -13.0 6.15 -13.0 5.85 -12.7 L5.6 -12.1 Q5.6 -11.75 5.85 -11.5 6.15 -11.25 6.5 -11.25 6.85 -11.25 7.1 -11.5 L7.35 -12.1 7.1 -12.7 6.5 -13.0 M0.9 -17.35 L0.9 -14.6 3.95 -14.05 5.4 -16.0 6.95 -15.0 Q9.75 -13.05 10.0 -10.55 L10.0 -10.45 8.45 -9.75 8.3 -9.75 5.45 -9.8 -0.9 -9.9 -2.15 -9.9 -2.5 -9.9 -2.5 -10.05 -5.4 -10.95 -2.5 -10.05 -2.5 -9.9 Q-2.7 -8.35 -2.3 -6.85 L-3.75 -6.35 -5.05 -5.95 -7.45 -7.2 -8.0 -7.5 -9.65 -8.35 -10.25 -8.65 -12.3 -13.1 -7.35 -11.55 -5.4 -10.95 Q-5.2 -12.15 -4.35 -12.5 L-3.2 -12.55 -1.9 -13.7 -1.05 -14.15 -1.85 -17.45 0.9 -17.35 M8.9 -5.45 Q9.8 -4.7 9.5 -2.7 9.15 -0.75 8.25 -0.6 L7.05 -0.7 Q6.95 -0.75 6.8 -0.85 6.5 -1.45 6.5 -2.9 6.7 -4.25 7.4 -5.0 8.1 -5.75 8.9 -5.45 M10.0 -10.55 L8.45 -9.8 5.45 -9.8 8.45 -9.8 10.0 -10.55 M-4.4 -7.75 L-4.4 -9.4 -4.4 -7.75 M-5.95 -8.15 L-5.95 -9.8 -5.95 -8.15" fill="#cbcbcb" fill-rule="evenodd" stroke="none"/>
    <path d="M0.9 -17.35 Q3.2 -17.05 5.4 -16.0 L3.95 -14.05 0.9 -14.6 0.9 -17.35 M8.3 -7.0 L8.6 -7.05 8.9 -5.45 Q8.1 -5.75 7.4 -5.0 6.7 -4.25 6.5 -2.9 L5.6 -3.0 5.3 -3.0 3.35 -3.0 -0.75 -3.4 -1.25 -3.5 -1.85 -3.65 -1.25 -3.5 -0.75 -3.4 -1.3 -3.5 -1.85 -3.65 -2.4 -3.85 -2.55 -3.9 -3.75 -6.35 -2.3 -6.85 Q-2.7 -8.35 -2.5 -9.9 L-2.15 -9.9 -0.9 -9.9 Q-0.95 -8.65 -0.45 -7.95 -0.2 -7.55 0.25 -7.35 L8.3 -7.0 M-7.35 -11.55 Q-6.8 -16.3 -2.25 -17.4 L-1.85 -17.45 -1.05 -14.15 -1.9 -13.7 -3.2 -12.55 -4.35 -12.5 Q-5.2 -12.15 -5.4 -10.95 L-7.35 -11.55" fill="#656564" fill-rule="evenodd" stroke="none"/>
    <path d="M8.3 -9.75 L8.3 -7.15 8.3 -7.0 0.25 -7.35 Q-0.2 -7.55 -0.45 -7.95 -0.95 -8.65 -0.9 -9.9 L5.45 -9.8 8.3 -9.75" fill="url(#gradient0)" fill-rule="evenodd" stroke="none"/>
    <path d="M6.8 -0.85 L6.75 -0.85 3.45 -0.95 Q-0.5 -1.2 -3.3 -1.9 -5.05 -2.6 -6.05 -3.95 L-6.9 -5.55 -7.45 -7.2 -5.05 -5.95 -3.75 -6.35 -2.55 -3.9 -2.4 -3.85 -1.85 -3.65 -1.3 -3.5 -0.75 -3.4 3.35 -3.0 5.3 -3.0 5.6 -3.0 6.5 -2.9 Q6.5 -1.45 6.8 -0.85" fill="#4e4d4d" fill-rule="evenodd" stroke="none"/>
    <path d="M3.45 -0.95 L3.2 0.9 Q3.1 1.6 1.15 1.3 L-2.8 0.65 -3.3 -1.9 Q-0.5 -1.2 3.45 -0.95" fill="#3c3c3c" fill-rule="evenodd" stroke="none"/>
    <path d="M0.9 -17.35 L0.9 -14.6 3.95 -14.05 5.4 -16.0 M8.3 -7.15 L8.3 -7.0 8.6 -7.05 8.9 -5.45 M6.8 -0.85 L6.75 -0.85 3.45 -0.95 Q-0.5 -1.2 -3.3 -1.9 -5.05 -2.6 -6.05 -3.95 L-6.9 -5.55 -7.45 -7.2 M5.45 -9.8 L8.45 -9.8 10.0 -10.55 M5.45 -9.8 L-0.9 -9.9 Q-0.95 -8.65 -0.45 -7.95 -0.2 -7.55 0.25 -7.35 L8.3 -7.0 M-1.85 -17.45 L-1.05 -14.15 -1.9 -13.7 -3.2 -12.55 -4.35 -12.5 Q-5.2 -12.15 -5.4 -10.95 M-2.5 -9.9 L-2.15 -9.9 -0.9 -9.9" fill="none" stroke="#353535" stroke-linecap="round" stroke-linejoin="round" stroke-width="1.0"/>
    <path d="M6.5 -13.0 Q6.15 -13.0 5.85 -12.7 L5.6 -12.1 Q5.6 -11.75 5.85 -11.5 6.15 -11.25 6.5 -11.25 6.85 -11.25 7.1 -11.5 L7.35 -12.1 7.1 -12.7 6.5 -13.0" fill="none" stroke="#808181" stroke-linecap="round" stroke-linejoin="round" stroke-width="1.0"/>
    <path d="M5.4 -16.0 Q3.2 -17.05 0.9 -17.35 L-1.85 -17.45 -2.25 -17.4 Q-6.8 -16.3 -7.35 -11.55 L-5.4 -10.95 -2.5 -10.05 -2.5 -9.9 Q-2.7 -8.35 -2.3 -6.85 M5.4 -16.0 L6.95 -15.0 Q9.75 -13.05 10.0 -10.55 M-7.45 -7.2 L-8.0 -7.5 -9.65 -8.35 -10.25 -8.65 -12.3 -13.1 -7.35 -11.55" fill="none" stroke="#4f4f4f" stroke-linecap="round" stroke-linejoin="round" stroke-width="1.0"/>
    <path d="M8.3 -9.75 L8.3 -7.15" fill="none" stroke="#385885" stroke-linecap="round" stroke-linejoin="round" stroke-width="1.0"/>
    <path d="M-0.75 -3.4 L3.35 -3.0 5.3 -3.0 5.6 -3.0 6.5 -2.9 M-4.4 -9.4 L-4.4 -7.75 M-3.75 -6.35 L-2.55 -3.9 -2.4 -3.85 -1.85 -3.65 -1.25 -3.5 -0.75 -3.4 M-5.95 -9.8 L-5.95 -8.15" fill="none" stroke="#8a8b8b" stroke-linecap="round" stroke-linejoin="round" stroke-width="1.0"/>
    <path d="M8.9 -5.45 Q9.8 -4.7 9.5 -2.7 9.15 -0.75 8.25 -0.6 L7.05 -0.7 Q6.95 -0.75 6.8 -0.85 6.5 -1.45 6.5 -2.9 6.7 -4.25 7.4 -5.0 8.1 -5.75 8.9 -5.45" fill="none" stroke="#4e4e4e" stroke-linecap="round" stroke-linejoin="round" stroke-width="1.0"/>
    <path d="M-2.3 -6.85 L-3.75 -6.35 -5.05 -5.95 -7.45 -7.2" fill="none" stroke="#434343" stroke-linecap="round" stroke-linejoin="round" stroke-width="1.0"/>
    <path d="M3.45 -0.95 L3.2 0.9 Q3.1 1.6 1.15 1.3 L-2.8 0.65 -3.3 -1.9" fill="none" stroke="#272727" stroke-linecap="round" stroke-linejoin="round" stroke-width="1.0"/>
    <path d="M-11.05 -12.05 L-10.0 -9.35" fill="none" stroke="#8a8b8b" stroke-linecap="round" stroke-linejoin="round" stroke-width="1.0"/>
  </g>
  <defs>
    <linearGradient gradientTransform="matrix(-0.0066, 0.0, 0.0, -0.0066, 2.8, -8.45)" gradientUnits="userSpaceOnUse" id="gradient0" spreadMethod="pad" x1="-819.2" x2="819.2">
      <stop offset="0.0" stop-color="#6394ce"/>
      <stop offset="0.37254901960784315" stop-color="#4973aa"/>
      <stop offset="0.7725490196078432" stop-color="#385a8d"/>
      <stop offset="1.0" stop-color="#325284"/>
    </linearGradient>
  </defs>
</svg>
