<?xml version="1.0" encoding="UTF-8" standalone="no"?>
<svg xmlns:ffdec="https://www.free-decompiler.com/flash" xmlns:xlink="http://www.w3.org/1999/xlink" ffdec:objectType="shape" height="21.85px" width="25.9px" xmlns="http://www.w3.org/2000/svg">
  <g transform="matrix(1.0, 0.0, 0.0, 1.0, 2.15, 0.5)">
    <path d="M20.5 14.25 Q22.0 15.1 22.7 16.35 L20.75 17.15 20.2 20.85 20.75 17.15 22.7 16.35 Q23.15 17.15 23.25 18.15 23.4 20.0 21.4 20.85 L20.2 20.85 Q17.05 19.85 16.8 17.1 L19.1 14.8 20.5 14.25" fill="#311616" fill-rule="evenodd" stroke="none"/>
    <path d="M9.45 13.75 L4.85 13.85 0.4 11.25 0.4 8.65 -1.65 7.4 -1.65 4.05 -1.15 4.05 0.0 4.05 0.0 4.1 0.8 4.25 1.4 4.55 1.95 4.85 0.9 5.55 1.4 9.25 1.45 9.25 2.35 10.65 5.2 12.15 5.85 12.15 6.65 12.1 9.45 13.75 M-1.15 4.05 L0.0 4.1 -1.15 4.05 M0.4 8.65 L1.4 9.25 0.4 8.65" fill="#2c0404" fill-rule="evenodd" stroke="none"/>
    <path d="M0.0 4.05 L0.0 1.6 1.1 2.1 2.85 2.85 2.45 4.45 0.85 4.25 0.5 4.05 0.0 4.05 0.5 4.05 0.85 4.25 0.8 4.25 0.0 4.1 0.0 4.05" fill="#311d1d" fill-rule="evenodd" stroke="none"/>
    <path d="M21.15 10.3 L22.1 11.45 22.1 12.7 20.5 14.25 20.15 14.35 19.25 11.85 14.05 10.65 9.8 5.75 14.05 10.65 19.25 11.85 20.15 14.35 12.9 15.85 9.45 13.75 6.65 12.1 5.85 12.15 5.2 12.15 2.35 10.65 1.45 9.25 6.15 8.1 9.2 6.15 9.8 5.75 9.8 2.95 9.75 2.9 9.45 2.7 8.7 2.05 8.55 1.95 11.0 1.0 15.95 4.4 15.75 6.05 17.5 8.65 21.15 10.3 M14.05 10.65 L9.2 6.15 14.05 10.65 M14.0 14.1 L10.05 11.65 5.85 12.15 10.05 11.65 14.0 14.1" fill="#511717" fill-rule="evenodd" stroke="none"/>
    <path d="M21.15 10.3 L17.5 8.65 15.75 6.05 15.95 4.4 21.15 10.3" fill="#ff0000" fill-rule="evenodd" stroke="none"/>
    <path d="M8.7 2.05 L9.45 2.7 9.75 2.9 9.8 2.95 9.8 5.75 9.2 6.15 6.15 8.1 1.45 9.25 1.4 9.25 0.9 5.55 1.95 4.85 3.0 4.1 5.85 5.1 8.2 3.9 8.2 2.7 9.0 2.35 8.7 2.05 M9.8 2.95 L9.45 2.7 9.0 2.35 9.45 2.7 9.8 2.95" fill="#411717" fill-rule="evenodd" stroke="none"/>
    <path d="M0.0 4.1 L-1.15 4.05" fill="none" stroke="#250d0d" stroke-linecap="round" stroke-linejoin="round" stroke-width="1.0"/>
    <path d="M22.7 16.35 Q22.0 15.1 20.5 14.25 M19.1 14.8 L16.8 17.1 Q17.05 19.85 20.2 20.85 L20.75 17.15 22.7 16.35 Q23.15 17.15 23.25 18.15 23.4 20.0 21.4 20.85 L20.2 20.85 M14.3 15.85 L16.8 17.1" fill="none" stroke="#1e1313" stroke-linecap="round" stroke-linejoin="round" stroke-width="1.0"/>
    <path d="M9.2 6.15 L14.05 10.65" fill="none" stroke="#7e2020" stroke-linecap="round" stroke-linejoin="round" stroke-width="1.0"/>
    <path d="M9.8 5.75 L9.2 6.15 6.15 8.1 1.45 9.25" fill="none" stroke="#2a0909" stroke-linecap="round" stroke-linejoin="round" stroke-width="1.0"/>
    <path d="M20.15 14.35 L20.5 14.25 22.1 12.7 22.1 11.45 21.15 10.3 17.5 8.65 15.75 6.05 15.95 4.4 11.0 1.0 8.55 1.95 8.7 2.05 9.45 2.7 9.75 2.9 9.8 2.95 9.8 5.75 14.05 10.65 19.25 11.85 20.15 14.35 12.9 15.85 9.45 13.75 4.85 13.85 0.4 11.25 0.4 8.65 -1.65 7.4 -1.65 4.05 -1.15 4.05 0.0 4.05 0.5 4.05 0.85 4.25 1.4 4.55 0.8 4.25 M1.1 2.1 L3.45 0.0 6.05 0.0 8.55 1.95 9.0 2.35 8.7 2.05 M9.0 2.35 L9.45 2.7 9.8 2.95 M1.95 4.85 L3.0 4.1 5.85 5.1 8.2 3.9 8.2 2.7 9.0 2.35 M1.4 9.25 L0.9 5.55 1.95 4.85 1.4 4.55 M1.45 9.25 L1.4 9.25 0.4 8.65 M9.45 13.75 L6.65 12.1 5.85 12.15 5.2 12.15 2.35 10.65 1.45 9.25 1.4 9.25 M5.85 12.15 L10.05 11.65 14.0 14.1 M21.15 10.3 L15.95 4.4" fill="none" stroke="#190101" stroke-linecap="round" stroke-linejoin="round" stroke-width="1.0"/>
    <path d="M0.0 4.1 L0.0 1.6 2.85 2.85 3.0 4.1" fill="none" stroke="#1e1313" stroke-linecap="round" stroke-linejoin="round" stroke-width="1.0"/>
    <path d="M0.0 4.1 L0.5 4.1 M-1.15 4.1 L0.0 4.1" fill="none" stroke="#250d0d" stroke-linecap="round" stroke-linejoin="round" stroke-width="1.0"/>
  </g>
</svg>
