<?xml version="1.0" encoding="UTF-8" standalone="no"?>
<svg xmlns:ffdec="https://www.free-decompiler.com/flash" xmlns:xlink="http://www.w3.org/1999/xlink" ffdec:objectType="shape" height="43.9px" width="15.2px" xmlns="http://www.w3.org/2000/svg">
  <g transform="matrix(1.0, 0.0, 0.0, 1.0, 0.5, 0.5)">
    <path d="M12.35 36.95 L8.7 42.9 0.0 1.4 5.45 0.0 12.95 35.9 12.35 36.95" fill="url(#gradient0)" fill-rule="evenodd" stroke="none"/>
    <path d="M12.95 35.9 L5.45 0.0 8.1 2.0 14.2 33.75 13.6 34.85 12.95 35.95 12.95 35.9 13.6 34.85 12.95 35.9" fill="url(#gradient1)" fill-rule="evenodd" stroke="none"/>
    <path d="M12.35 36.95 L12.95 35.9 12.95 35.95 12.35 36.95" fill="url(#gradient2)" fill-rule="evenodd" stroke="none"/>
    <path d="M5.45 0.0 L0.0 1.4 8.7 42.9 12.35 36.95 12.95 35.9 13.6 34.85 14.2 33.75 8.1 2.0 5.45 0.0 Z" fill="none" stroke="#0e0e0e" stroke-linecap="round" stroke-linejoin="round" stroke-width="1.0"/>
  </g>
  <defs>
    <radialGradient cx="0" cy="0" gradientTransform="matrix(0.0293, -0.0074, 0.0053, 0.0255, 7.0, 21.4)" gradientUnits="userSpaceOnUse" id="gradient0" r="819.2" spreadMethod="pad">
      <stop offset="0.0" stop-color="#333333"/>
      <stop offset="0.0" stop-color="#333333"/>
      <stop offset="0.5098039215686274" stop-color="#191919"/>
      <stop offset="1.0" stop-color="#333333"/>
    </radialGradient>
    <linearGradient gradientTransform="matrix(-0.005, -0.0262, 0.0025, -3.0E-4, 7.8, 18.65)" gradientUnits="userSpaceOnUse" id="gradient1" spreadMethod="pad" x1="-819.2" x2="819.2">
      <stop offset="0.0" stop-color="#333333"/>
      <stop offset="0.0" stop-color="#333333"/>
      <stop offset="0.5098039215686274" stop-color="#191919"/>
      <stop offset="1.0" stop-color="#333333"/>
    </linearGradient>
    <linearGradient gradientTransform="matrix(0.0081, 0.0036, -5.0E-4, 0.0016, 7.3, 22.85)" gradientUnits="userSpaceOnUse" id="gradient2" spreadMethod="pad" x1="-819.2" x2="819.2">
      <stop offset="0.0" stop-color="#333333"/>
      <stop offset="0.0" stop-color="#333333"/>
      <stop offset="0.5098039215686274" stop-color="#191919"/>
      <stop offset="1.0" stop-color="#333333"/>
    </linearGradient>
  </defs>
</svg>
