<?xml version="1.0" encoding="UTF-8" standalone="no"?>
<svg xmlns:ffdec="https://www.free-decompiler.com/flash" xmlns:xlink="http://www.w3.org/1999/xlink" ffdec:objectType="shape" height="28.35px" width="18.65px" xmlns="http://www.w3.org/2000/svg">
  <g transform="matrix(1.0, 0.0, 0.0, 1.0, 13.1, 2.75)">
    <path d="M-0.25 13.4 L0.3 14.5 3.4 12.35 0.35 14.6 1.2 16.25 1.35 19.0 1.15 16.2 0.3 14.5 0.25 14.5 -0.25 13.4 -0.5 13.0 -0.65 12.65 -0.4 11.45 -0.65 12.55 Q-4.0 16.0 -3.9 14.55 L-3.8 14.0 -4.45 11.35 -4.5 9.6 -4.05 8.2 -3.5 6.9 -2.65 6.5 -1.95 6.3 -1.05 5.25 Q-0.15 4.25 -0.1 3.85 L0.45 2.9 0.95 2.5 2.85 1.85 M-0.4 11.45 L-0.1 9.85 0.25 9.45 Q0.45 9.0 0.6 9.05 L1.15 8.85 3.0 7.9 M1.15 8.85 L0.25 9.45 0.2 9.45 -0.05 9.85 -0.4 11.45 M-3.8 14.0 L-3.8 13.0 Q-3.7 11.35 -4.0 11.1 M-3.8 13.0 L-3.8 14.0" fill="none" stroke="#181819" stroke-linecap="round" stroke-linejoin="round" stroke-opacity="0.5568628" stroke-width="1.0"/>
    <path d="M-1.55 0.0 Q-1.95 1.4 -2.5 1.85 L-3.8 2.65 Q-5.35 2.2 -6.3 3.15 -6.85 4.2 -7.1 4.15 L-7.6 4.0 -8.05 3.85 -8.2 1.6 Q-8.05 0.9 -7.3 -0.45 L-5.4 0.0 -2.3 0.1 -1.55 0.0" fill="#252525" fill-rule="evenodd" stroke="none"/>
    <path d="M-1.55 0.0 Q-1.95 1.4 -2.5 1.85 L-3.8 2.65 Q-5.35 2.2 -6.3 3.15 -6.85 4.2 -7.1 4.15 L-7.6 4.0 -8.05 3.85 -8.2 1.6 Q-8.05 0.9 -7.3 -0.45 L-5.4 0.0 -2.3 0.1 -1.55 0.0 Z" fill="none" stroke="#1a1717" stroke-linecap="butt" stroke-linejoin="miter-clip" stroke-miterlimit="15.12109375" stroke-width="1.0"/>
    <path d="M-6.65 6.5 Q-6.55 6.75 -6.75 7.15 L-6.95 7.75 Q-6.45 9.35 -5.55 10.4 L-3.35 12.3 Q-2.75 13.75 -2.95 14.2 -4.1 15.5 -4.35 17.1 L-4.4 19.55 Q-4.65 19.9 -5.3 19.95 L-6.7 20.0 Q-7.55 20.5 -9.2 20.7 L-11.15 20.5 Q-11.7 19.2 -11.6 18.05 L-11.0 15.4 -11.05 13.3 -11.0 11.05 -10.7 10.6 -10.45 10.3 Q-10.8 8.7 -9.65 6.55 -8.55 4.3 -8.45 4.8 L-6.65 6.5" fill="url(#gradient0)" fill-rule="evenodd" stroke="none"/>
    <path d="M-6.65 6.5 Q-6.55 6.75 -6.75 7.15 L-6.95 7.75 Q-6.45 9.35 -5.55 10.4 L-3.35 12.3 Q-2.75 13.75 -2.95 14.2 -4.1 15.5 -4.35 17.1 L-4.4 19.55 Q-4.65 19.9 -5.3 19.95 L-6.7 20.0 Q-7.55 20.5 -9.2 20.7 L-11.15 20.5 Q-11.7 19.2 -11.6 18.05 L-11.0 15.4 -11.05 13.3 -11.0 11.05 -10.7 10.6 -10.45 10.3 Q-10.8 8.7 -9.65 6.55 -8.55 4.3 -8.45 4.8 L-6.65 6.5 Z" fill="none" stroke="#181819" stroke-linecap="butt" stroke-linejoin="miter-clip" stroke-miterlimit="15.12109375" stroke-width="1.0"/>
    <path d="M-10.55 10.85 L-10.25 10.75 -9.8 11.45 -8.85 12.3 -7.65 12.2 Q-6.65 13.05 -7.0 16.3 -7.4 19.35 -6.55 19.85" fill="none" stroke="#181819" stroke-linecap="round" stroke-linejoin="round" stroke-width="1.0"/>
    <path d="M-9.85 10.15 L-9.1 11.55 -7.7 11.45 -5.95 12.8 -6.05 13.7 -6.05 15.05 Q-5.85 15.7 -6.3 17.0 L-6.25 18.55 -5.9 19.7" fill="none" stroke="#161819" stroke-linecap="round" stroke-linejoin="round" stroke-opacity="0.48235294" stroke-width="1.0"/>
    <path d="M3.8 -2.25 L3.9 -0.4 Q3.95 0.35 3.5 1.35 L2.4 2.35 2.85 2.3 Q3.25 2.35 3.4 2.9 L3.75 5.15 Q3.8 6.35 3.35 7.35" fill="none" stroke="#000000" stroke-linecap="round" stroke-linejoin="round" stroke-opacity="0.25490198" stroke-width="1.0"/>
    <path d="M-6.45 -0.65 L-7.3 -0.4 -7.65 0.3 -7.9 1.1 -8.05 3.5 Q-8.0 4.5 -8.7 4.9 L-9.4 5.75 Q-10.2 6.75 -10.35 7.5 L-10.6 9.4 -10.7 10.65 -10.85 11.15 -11.05 11.75 -11.0 12.7 -11.0 13.7 -11.3 16.25 -11.55 16.7 Q-11.75 17.3 -11.55 17.9 L-11.05 20.0" fill="none" stroke="#000000" stroke-linecap="round" stroke-linejoin="round" stroke-opacity="0.25490198" stroke-width="1.0"/>
    <path d="M3.45 9.4 L3.45 10.55 Q3.5 11.9 4.0 14.2 L4.85 17.6 5.05 18.4" fill="none" stroke="#000000" stroke-linecap="round" stroke-linejoin="round" stroke-opacity="0.25490198" stroke-width="1.0"/>
  </g>
  <defs>
    <radialGradient cx="0" cy="0" gradientTransform="matrix(0.0043, -1.0E-4, 2.0E-4, 0.0306, -7.0, 12.55)" gradientUnits="userSpaceOnUse" id="gradient0" r="819.2" spreadMethod="pad">
      <stop offset="0.0" stop-color="#2c2c2e"/>
      <stop offset="1.0" stop-color="#505054"/>
    </radialGradient>
  </defs>
</svg>
