<?xml version="1.0" encoding="UTF-8" standalone="no"?>
<svg xmlns:ffdec="https://www.free-decompiler.com/flash" xmlns:xlink="http://www.w3.org/1999/xlink" ffdec:objectType="shape" height="16.7px" width="23.2px" xmlns="http://www.w3.org/2000/svg">
  <g transform="matrix(1.0, 0.0, 0.0, 1.0, 4.2, 1.15)">
    <path d="M15.25 7.25 L15.9 8.8 13.45 12.7 11.4 11.65 15.25 7.25 M9.2 10.1 L7.35 9.15 8.6 7.45 10.7 8.95 9.2 10.1" fill="#545343" fill-rule="evenodd" stroke="none"/>
    <path d="M2.4 4.7 L-0.95 1.65 -0.95 1.55 -0.95 1.25 Q-0.8 -0.35 1.8 -0.6 4.4 -0.9 4.85 1.2 L4.4 1.95 5.7 3.1 2.75 5.7 1.8 5.0 2.4 4.7" fill="#202020" fill-rule="evenodd" stroke="none"/>
    <path d="M15.25 7.25 L12.7 6.35 9.65 4.95 8.85 3.9 6.45 2.25 6.45 0.75 7.0 0.75 11.0 2.3 13.5 5.0 Q14.75 6.3 15.25 7.25" fill="#3a392e" fill-rule="evenodd" stroke="none"/>
    <path d="M10.7 8.95 L12.7 7.75 12.7 6.35 12.7 7.75 10.7 8.95 8.6 7.45 8.6 5.6 5.7 3.1 8.6 5.6 8.6 7.45 10.7 8.95 M10.75 11.5 L4.15 8.65 Q2.45 7.2 2.75 5.7 5.0 4.2 5.7 3.1 L4.4 1.95 4.85 1.2 5.3 0.35 6.45 0.75 6.45 2.25 8.85 3.9 9.65 4.95 12.7 6.35 15.25 7.25 15.9 8.8 13.45 12.7 11.4 11.65 10.75 11.5 M-0.95 1.55 L-0.95 1.65 2.4 4.7 1.8 5.0 0.55 5.45 -0.1 5.45 Q-1.2 5.3 -1.95 4.75 L-2.3 4.45 -3.2 3.3 Q-3.65 2.55 -3.7 1.8 -3.75 0.45 -3.2 0.0 L-1.55 0.0 -0.95 1.55 M-2.3 2.4 L-3.2 3.3 -2.3 2.4 M-1.0 3.6 L-1.95 4.75 -1.0 3.6" fill="#191919" fill-rule="evenodd" stroke="none"/>
    <path d="M13.45 12.7 L15.9 8.8 Q18.3 11.35 18.5 12.35 L18.5 12.45 Q18.6 13.35 18.15 14.15 17.6 14.95 16.95 15.05 16.3 15.15 14.8 14.4 L14.55 14.25 Q13.75 13.65 13.45 12.7 M18.5 12.45 L15.7 13.2 14.55 14.25 15.7 13.2 18.5 12.45" fill="#252525" fill-rule="evenodd" stroke="none"/>
    <path d="M10.7 8.95 L8.6 7.45 8.6 5.6 5.7 3.1 4.4 1.95 4.85 1.2 5.3 0.35 6.45 0.75 7.0 0.75 11.0 2.3 13.5 5.0 Q14.75 6.3 15.25 7.25 L12.7 6.35 9.65 4.95 8.85 3.9 6.45 2.25 6.45 0.75 M10.75 11.5 L11.4 11.65 M13.45 12.7 L15.9 8.8 Q18.3 11.35 18.5 12.35 L18.5 12.45 Q18.6 13.35 18.15 14.15 17.6 14.95 16.95 15.05 16.3 15.15 14.8 14.4 L14.55 14.25 Q13.75 13.65 13.45 12.7 M-0.95 1.55 L-0.95 1.65 2.4 4.7 1.8 5.0 2.75 5.7 M1.8 5.0 L0.55 5.45 -0.1 5.45 Q-1.2 5.3 -1.95 4.75 L-2.3 4.45 -3.2 3.3 Q-3.65 2.55 -3.7 1.8 -3.75 0.45 -3.2 0.0 L-1.55 0.0 -0.95 1.55 M14.55 14.25 L15.7 13.2 18.5 12.45 M-1.95 4.75 L-1.0 3.6 M-3.2 3.3 L-2.3 2.4" fill="none" stroke="#191818" stroke-linecap="round" stroke-linejoin="round" stroke-width="1.0"/>
    <path d="M12.7 6.35 L12.7 7.75 10.7 8.95 M5.7 3.1 Q5.0 4.2 2.75 5.7 2.45 7.2 4.15 8.65 L10.75 11.5" fill="none" stroke="#0e0c0c" stroke-linecap="round" stroke-linejoin="round" stroke-width="1.0"/>
    <path d="M11.4 11.65 L13.45 12.7 M15.9 8.8 L15.25 7.25 M-0.95 1.55 L-0.95 1.25 Q-0.8 -0.35 1.8 -0.6 4.4 -0.9 4.85 1.2" fill="none" stroke="#121212" stroke-linecap="round" stroke-linejoin="round" stroke-width="1.0"/>
    <path d="M4.4 1.95 L5.3 0.35 6.45 0.75 7.0 0.75 11.0 2.3 13.5 5.0 Q14.75 6.3 15.25 7.25 L9.65 4.95 8.85 3.9 6.45 2.25 6.45 0.75" fill="none" stroke="#191818" stroke-linecap="round" stroke-linejoin="round" stroke-width="1.0"/>
    <path d="M10.35 3.2 L11.75 4.5" fill="none" stroke="#ffcc66" stroke-linecap="round" stroke-linejoin="round" stroke-width="1.0"/>
    <path d="M15.25 7.25 Q14.1 10.5 11.8 11.85 M18.5 12.45 L18.5 12.35 Q18.3 11.35 15.9 8.8 L13.45 12.7 Q13.75 13.65 14.55 14.25 L15.7 13.2 18.5 12.45 Q18.6 13.35 18.15 14.15 17.6 14.95 16.95 15.05 16.3 15.15 14.8 14.4 L14.55 14.25 M-1.0 3.6 L-1.95 4.75 Q-1.2 5.3 -0.1 5.45 L0.55 5.45 1.8 5.0 2.4 4.7 -0.95 1.65 -0.95 1.55 -1.55 0.0 -3.2 0.0 Q-3.75 0.45 -3.7 1.8 -3.65 2.55 -3.2 3.3 L-2.3 2.4 M1.8 5.0 L2.75 5.7 M-3.2 3.3 L-2.3 4.45 -1.95 4.75" fill="none" stroke="#0e0c0c" stroke-linecap="round" stroke-linejoin="round" stroke-width="1.0"/>
    <path d="M6.45 0.75 L7.0 0.75 11.0 2.3 13.5 5.0 Q14.75 6.3 15.25 7.25 L9.65 4.95 8.85 3.9 6.45 2.25 6.45 0.75 M11.75 4.5 L10.35 3.2 11.75 4.5" fill="#191919" fill-rule="evenodd" stroke="none"/>
    <path d="M6.45 0.75 L7.0 0.75 11.0 2.3 13.5 5.0 Q14.75 6.3 15.25 7.25 L9.65 4.95 8.85 3.9 6.45 2.25 6.45 0.75 5.3 0.35 4.4 1.95 8.6 5.6 8.6 7.45 10.7 8.95" fill="none" stroke="#0e0c0c" stroke-linecap="round" stroke-linejoin="round" stroke-width="1.0"/>
    <path d="M10.35 3.2 L11.75 4.5" fill="none" stroke="#ffffa3" stroke-linecap="round" stroke-linejoin="round" stroke-width="1.0"/>
    <path d="M11.85 2.15 Q12.85 2.75 13.3 3.7 13.55 4.55 13.4 5.2 13.15 5.95 12.25 5.95 11.35 6.0 10.35 5.3 9.45 4.7 9.05 3.8 8.6 2.95 8.9 2.25 9.3 1.55 10.1 1.55 11.05 1.5 11.85 2.15" fill="url(#gradient0)" fill-rule="evenodd" stroke="none"/>
  </g>
  <defs>
    <radialGradient cx="0" cy="0" gradientTransform="matrix(8.0E-4, -0.0016, 0.002, 0.0014, 11.0, 3.65)" gradientUnits="userSpaceOnUse" id="gradient0" r="819.2" spreadMethod="pad">
      <stop offset="0.0" stop-color="#ffffa3" stop-opacity="0.49803922"/>
      <stop offset="1.0" stop-color="#ffffff" stop-opacity="0.0"/>
    </radialGradient>
  </defs>
</svg>
