<?xml version="1.0" encoding="UTF-8" standalone="no"?>
<svg xmlns:ffdec="https://www.free-decompiler.com/flash" xmlns:xlink="http://www.w3.org/1999/xlink" ffdec:objectType="shape" height="23.1px" width="17.25px" xmlns="http://www.w3.org/2000/svg">
  <g transform="matrix(1.0, 0.0, 0.0, 1.0, 9.6, 5.3)">
    <path d="M-1.2 -1.85 Q-1.2 -1.2 0.25 -2.2 1.75 -3.2 1.7 -2.0 1.7 -1.45 2.0 -0.65 2.3 -0.05 2.2 0.95 L1.8 1.65 Q1.45 2.4 1.45 2.85 L1.25 5.7 Q1.35 6.4 1.8 7.25 L2.1 8.1 Q-1.35 14.15 -2.9 8.3 -3.45 6.4 -3.65 3.8 -3.8 1.35 -3.6 1.65 L-2.35 -1.0 Q-1.6 -2.15 -1.2 -1.85" fill="#2f313a" fill-rule="evenodd" stroke="none"/>
    <path d="M-1.2 -1.85 Q-1.2 -1.2 0.25 -2.2 1.75 -3.2 1.7 -2.0 1.7 -1.45 2.0 -0.65 2.3 -0.05 2.2 0.95 L1.8 1.65 Q1.45 2.4 1.45 2.85 L1.25 5.7 Q1.35 6.4 1.8 7.25 L2.1 8.1 Q-1.35 14.15 -2.9 8.3 -3.45 6.4 -3.65 3.8 -3.8 1.35 -3.6 1.65 L-2.35 -1.0 Q-1.6 -2.15 -1.2 -1.85 Z" fill="none" stroke="#111216" stroke-linecap="round" stroke-linejoin="round" stroke-width="0.9500000000000001"/>
    <path d="M-1.5 14.4 L-2.45 15.0 Q-3.0 15.6 -3.9 15.45 L-6.15 15.7 Q-7.2 16.1 -8.75 17.35 L-8.7 16.1 -8.9 13.9 -8.8 12.95 Q-7.45 10.2 -7.75 8.25 L-6.9 9.0 Q-5.95 9.75 -5.2 9.85 -4.05 10.1 0.05 14.35 L-1.5 14.4" fill="url(#gradient0)" fill-rule="evenodd" stroke="none"/>
    <path d="M-1.5 14.4 L-2.45 15.0 Q-3.0 15.6 -3.9 15.45 L-6.15 15.7 Q-7.2 16.1 -8.75 17.35 L-8.7 16.1 -8.9 13.9 -8.8 12.95 Q-7.45 10.2 -7.75 8.25 L-6.9 9.0 Q-5.95 9.75 -5.2 9.85 -4.05 10.1 0.05 14.35 L-1.5 14.4 Z" fill="none" stroke="#2c2c2d" stroke-linecap="round" stroke-linejoin="round" stroke-width="0.9500000000000001"/>
    <path d="M-6.55 10.05 Q-7.2 9.75 -7.35 8.5 -7.45 7.4 -7.2 6.9 L-4.55 7.2 -1.5 7.65 1.25 5.25 0.7 7.1 Q0.15 9.15 0.15 10.15 L1.05 11.75 Q1.9 13.0 1.8 13.2 0.25 15.25 -0.55 15.5 L-1.8 15.5 Q-4.65 14.75 -4.9 13.3 -5.2 11.4 -6.15 10.7 L-6.55 10.05" fill="#4b4b4b" fill-rule="evenodd" stroke="none"/>
    <path d="M-6.55 10.05 Q-7.2 9.75 -7.35 8.5 -7.45 7.4 -7.2 6.9 L-4.55 7.2 -1.5 7.65 1.25 5.25 0.7 7.1 Q0.15 9.15 0.15 10.15 L1.05 11.75 Q1.9 13.0 1.8 13.2 0.25 15.25 -0.55 15.5 L-1.8 15.5 Q-4.65 14.75 -4.9 13.3 -5.2 11.4 -6.15 10.7 L-6.55 10.05 Z" fill="none" stroke="#2e2a25" stroke-linecap="round" stroke-linejoin="round" stroke-width="0.9500000000000001"/>
    <path d="M-3.55 7.45 L-3.95 7.3 Q-7.35 6.05 -5.85 5.65 L-5.6 5.3 -4.85 4.2 Q-4.8 3.95 -5.05 3.75 L-5.2 3.3 Q-4.65 1.75 -4.65 0.1 -4.75 -1.75 -5.55 -3.35 L-3.55 -3.15 -0.25 -3.1 Q-0.1 -3.1 -0.35 -2.85 L-0.55 -2.35 Q-1.4 0.5 -1.5 1.65 -1.65 3.9 -0.5 5.9 L-2.5 7.15 Q-1.3 8.15 -3.3 7.5 L-3.55 7.45 -3.45 6.95 Q-2.95 5.55 -3.15 6.6 L-2.5 7.15 -3.15 7.45 -3.3 7.5 -3.15 7.45 -2.5 7.15 -3.15 6.6 Q-2.95 5.55 -3.45 6.95 L-3.55 7.45" fill="url(#gradient1)" fill-rule="evenodd" stroke="none"/>
    <path d="M-3.55 7.45 L-3.95 7.3 Q-7.35 6.05 -5.85 5.65 L-5.6 5.3 -4.85 4.2 Q-4.8 3.95 -5.05 3.75 L-5.2 3.3 Q-4.65 1.75 -4.65 0.1 -4.75 -1.75 -5.55 -3.35 L-3.55 -3.15 -0.25 -3.1 Q-0.1 -3.1 -0.35 -2.85 L-0.55 -2.35 Q-1.4 0.5 -1.5 1.65 -1.65 3.9 -0.5 5.9 L-2.5 7.15 Q-1.3 8.15 -3.3 7.5 L-3.55 7.45 -3.45 6.95 Q-2.95 5.55 -3.15 6.6 L-2.5 7.15 -3.15 7.45 -3.3 7.5" fill="none" stroke="#212121" stroke-linecap="round" stroke-linejoin="round" stroke-width="0.9500000000000001"/>
    <path d="M-5.1 3.1 Q-4.9 7.0 1.45 5.9 L1.05 9.0 Q0.6 11.1 1.05 11.85 L2.3 12.75 Q3.1 13.1 3.2 13.55 L3.45 14.7 Q3.6 15.5 3.25 15.8 L0.2 16.05 -0.7 15.5 -1.6 13.1 Q-2.6 10.75 -6.95 7.7 -7.1 5.75 -6.55 4.8 L-5.1 3.1" fill="url(#gradient2)" fill-rule="evenodd" stroke="none"/>
    <path d="M-5.1 3.1 Q-4.9 7.0 1.45 5.9 L1.05 9.0 Q0.6 11.1 1.05 11.85 L2.3 12.75 Q3.1 13.1 3.2 13.55 L3.45 14.7 Q3.6 15.5 3.25 15.8 L0.2 16.05 -0.7 15.5 -1.6 13.1 Q-2.6 10.75 -6.95 7.7 -7.1 5.75 -6.55 4.8 L-5.1 3.1 Z" fill="none" stroke="#402c12" stroke-linecap="round" stroke-linejoin="round" stroke-width="0.9500000000000001"/>
    <path d="M3.45 -4.85 Q4.25 0.7 1.55 3.0 L0.55 3.15 Q-0.25 3.1 -1.15 2.0 -1.4 0.5 -2.6 -0.4 -3.8 -1.25 -4.8 -0.7 -6.0 -1.4 -6.05 -1.95 L-5.75 -3.35 -2.75 -3.5 0.0 -3.2 1.05 -3.8 2.45 -4.5 3.45 -4.85" fill="url(#gradient3)" fill-rule="evenodd" stroke="none"/>
    <path d="M3.45 -4.85 L2.45 -4.5 1.05 -3.8 0.0 -3.2 -2.75 -3.5 -5.75 -3.35 -6.05 -1.95 Q-6.0 -1.4 -4.8 -0.7 -3.8 -1.25 -2.6 -0.4 -1.4 0.5 -1.15 2.0 -0.25 3.1 0.55 3.15 L1.55 3.0 Q4.25 0.7 3.45 -4.85 Z" fill="none" stroke="#432f13" stroke-linecap="butt" stroke-linejoin="miter-clip" stroke-miterlimit="15.12109375" stroke-width="0.9500000000000001"/>
    <path d="M0.15 6.3 L1.5 6.4 Q2.65 7.15 2.7 9.0 2.7 9.7 3.0 10.1 3.15 10.75 2.5 11.8 1.85 12.8 1.5 12.6 -0.05 11.75 -0.6 10.8 -1.1 10.1 -1.15 9.0 -1.25 7.25 -0.25 6.35 L-0.1 6.25 0.15 6.3" fill="url(#gradient4)" fill-rule="evenodd" stroke="none"/>
    <path d="M0.15 6.3 L1.5 6.4 Q2.65 7.15 2.7 9.0 2.7 9.7 3.0 10.1 3.15 10.75 2.5 11.8 1.85 12.8 1.5 12.6 -0.05 11.75 -0.6 10.8 -1.1 10.1 -1.15 9.0 -1.25 7.25 -0.25 6.35 L-0.1 6.25 0.15 6.3 Z" fill="none" stroke="#212121" stroke-linecap="butt" stroke-linejoin="miter-clip" stroke-miterlimit="15.12109375" stroke-width="0.9500000000000001"/>
    <path d="M-8.85 17.05 L-9.1 14.65 Q-9.2 13.75 -8.95 13.35 -7.45 10.75 -7.45 7.75 -7.05 7.6 -7.05 6.8 L-7.15 6.1 -6.8 5.1 -6.05 4.05 -5.7 3.95 -5.35 3.5 -5.05 3.15 -4.65 0.95 Q-4.5 -0.45 -5.0 -0.7 -5.9 -1.3 -5.95 -1.95 -6.05 -2.55 -5.5 -3.45" fill="none" stroke="#010100" stroke-linecap="round" stroke-linejoin="round" stroke-opacity="0.3647059" stroke-width="0.9500000000000001"/>
    <path d="M3.8 15.55 Q3.6 15.3 3.35 14.25 3.2 13.45 2.6 13.1 2.5 12.05 2.8 11.45 L2.95 10.5 2.75 9.4 2.3 7.75 1.8 6.6 1.15 4.9 Q0.95 4.1 1.45 3.2 L2.65 1.85 2.85 1.05 3.2 0.25 Q3.95 -0.7 3.45 -4.75" fill="none" stroke="#010100" stroke-linecap="round" stroke-linejoin="round" stroke-opacity="0.3647059" stroke-width="0.9500000000000001"/>
  </g>
  <defs>
    <radialGradient cx="0" cy="0" gradientTransform="matrix(-0.005, -6.0E-4, 0.0038, -0.024, -7.3, 15.85)" gradientUnits="userSpaceOnUse" id="gradient0" r="819.2" spreadMethod="pad">
      <stop offset="0.0" stop-color="#363a43"/>
      <stop offset="1.0" stop-color="#dbdce1"/>
    </radialGradient>
    <radialGradient cx="0" cy="0" gradientTransform="matrix(-0.0046, -8.0E-4, 0.0057, -0.0262, -3.65, 4.55)" gradientUnits="userSpaceOnUse" id="gradient1" r="819.2" spreadMethod="pad">
      <stop offset="0.0" stop-color="#363a43"/>
      <stop offset="1.0" stop-color="#dbdce1"/>
    </radialGradient>
    <radialGradient cx="0" cy="0" gradientTransform="matrix(-0.0079, -6.0E-4, 0.0026, -0.0211, -6.6, 10.05)" gradientUnits="userSpaceOnUse" id="gradient2" r="819.2" spreadMethod="pad">
      <stop offset="0.0" stop-color="#7c3b18"/>
      <stop offset="1.0" stop-color="#ccaa22"/>
    </radialGradient>
    <radialGradient cx="0" cy="0" gradientTransform="matrix(-0.0085, -0.0013, 0.0033, -0.0173, -3.4, -1.4)" gradientUnits="userSpaceOnUse" id="gradient3" r="819.2" spreadMethod="pad">
      <stop offset="0.0" stop-color="#7c3b18"/>
      <stop offset="1.0" stop-color="#ccaa22"/>
    </radialGradient>
    <radialGradient cx="0" cy="0" gradientTransform="matrix(-0.0034, -9.0E-4, 0.0055, -0.0193, 2.4, 9.45)" gradientUnits="userSpaceOnUse" id="gradient4" r="819.2" spreadMethod="pad">
      <stop offset="0.0" stop-color="#1f1f1f"/>
      <stop offset="1.0" stop-color="#636c6a"/>
    </radialGradient>
  </defs>
</svg>
