<?xml version="1.0" encoding="UTF-8" standalone="no"?>
<svg xmlns:xlink="http://www.w3.org/1999/xlink" height="30.2px" width="25.6px" xmlns="http://www.w3.org/2000/svg">
  <g transform="matrix(1.0, 0.0, 0.0, 1.0, 14.45, 30.65)">
    <path d="M-3.3 -25.8 L-0.35 -28.25 Q0.45 -30.65 3.55 -30.0 7.7 -28.3 7.3 -25.2 L7.75 -24.45 2.35 -21.2 -0.4 -21.15 -0.15 -22.55 -2.45 -22.4 -3.3 -25.8 M-4.05 -5.95 L-4.75 -5.95 -5.2 -8.05 -3.1 -10.4 -2.5 -13.25 -1.45 -13.05 -0.95 -14.4 1.75 -13.25 1.55 -6.85 Q0.45 -7.1 -1.0 -8.15 -2.45 -6.6 -4.05 -5.95" fill="#324144" fill-rule="evenodd" stroke="none"/>
    <path d="M-0.4 -21.15 L2.35 -21.2 7.75 -24.45 Q9.0 -22.05 9.25 -20.35 8.7 -19.6 8.9 -18.6 9.1 -17.65 9.95 -17.35 L10.25 -15.85 9.5 -14.1 9.45 -14.05 Q8.7 -13.7 8.45 -12.9 8.15 -12.1 8.5 -11.25 L7.65 -8.7 7.1 -8.4 Q4.75 -7.2 1.55 -6.85 L1.75 -13.25 -0.95 -14.4 -0.7 -15.15 -2.2 -15.7 -2.2 -19.65 -0.75 -19.75 -0.4 -21.15 M2.35 -21.2 L3.7 -16.0 1.75 -13.25 3.7 -16.0 2.35 -21.2" fill="#435f62" fill-rule="evenodd" stroke="none"/>
    <path d="M9.25 -20.35 Q10.35 -20.05 10.6 -19.3 10.9 -18.45 9.95 -17.35 9.1 -17.65 8.9 -18.6 8.7 -19.6 9.25 -20.35 M9.5 -14.1 Q10.6 -13.55 10.2 -12.45 9.8 -11.3 8.5 -11.25 8.15 -12.1 8.45 -12.9 8.7 -13.7 9.45 -14.05 L9.5 -14.1" fill="#445c60" fill-rule="evenodd" stroke="none"/>
    <path d="M7.1 -8.4 L6.7 -4.65 Q6.0 -1.5 1.45 -1.0 -3.1 -0.55 -4.05 -5.95 -2.45 -6.6 -1.0 -8.15 0.45 -7.1 1.55 -6.85 4.75 -7.2 7.1 -8.4" fill="#1e282a" fill-rule="evenodd" stroke="none"/>
    <path d="M-12.1 -24.05 Q-13.15 -26.15 -12.5 -28.1 L-10.25 -28.35 -10.4 -26.0 -12.1 -24.05" fill="url(#gradient0)" fill-rule="evenodd" stroke="none"/>
    <path d="M-10.25 -28.35 L-3.3 -25.8 -4.25 -22.25 -10.4 -26.0 -10.25 -28.35" fill="url(#gradient1)" fill-rule="evenodd" stroke="none"/>
    <path d="M-3.3 -25.8 L-2.45 -22.4 -0.15 -22.55 -0.4 -21.15 -0.75 -19.75 -2.2 -19.65 -2.2 -15.7 -0.7 -15.15 -0.95 -14.4 -1.45 -13.05 -2.5 -13.25 -3.1 -10.4 -5.2 -8.05 -6.85 -9.1 -6.5 -12.15 -7.25 -13.95 -7.55 -15.4 -6.3 -18.1 -7.0 -19.65 -7.0 -21.0 -4.25 -22.25 -3.3 -25.8 M-1.6 -21.3 L-1.7 -20.8 -1.6 -21.3 M-2.15 -14.4 L-2.7 -14.5 -2.15 -14.4" fill="#507679" fill-rule="evenodd" stroke="none"/>
    <path d="M-7.55 -15.4 L-12.2 -15.4 -11.4 -17.85 -6.3 -18.1 -7.55 -15.4" fill="url(#gradient2)" fill-rule="evenodd" stroke="none"/>
    <path d="M-6.85 -9.1 Q-8.6 -9.7 -9.8 -11.45 L-8.95 -13.45 -7.25 -13.95 -6.5 -12.15 -6.85 -9.1" fill="url(#gradient3)" fill-rule="evenodd" stroke="none"/>
    <path d="M-12.1 -19.9 L-7.0 -19.65 -6.3 -18.1 -11.4 -17.85 -11.4 -17.95 -12.1 -19.9" fill="url(#gradient4)" fill-rule="evenodd" stroke="none"/>
    <path d="M-7.0 -21.0 L-12.1 -24.05 -10.4 -26.0 -4.25 -22.25 -7.0 -21.0" fill="url(#gradient5)" fill-rule="evenodd" stroke="none"/>
    <path d="M-12.2 -15.4 Q-14.25 -16.45 -13.9 -19.1 L-12.1 -19.9 -11.4 -17.95 -11.4 -17.85 -12.2 -15.4" fill="url(#gradient6)" fill-rule="evenodd" stroke="none"/>
    <path d="M7.75 -24.45 L7.3 -25.2 Q7.7 -28.3 3.55 -30.0 0.45 -30.65 -0.35 -28.25 L-3.3 -25.8 -2.45 -22.4 -0.15 -22.55 -0.4 -21.15 2.35 -21.2 7.75 -24.45 Q9.0 -22.05 9.25 -20.35 M9.95 -17.35 L10.25 -15.85 9.5 -14.1 9.45 -14.05 M8.5 -11.25 L7.65 -8.7 7.1 -8.4 Q4.75 -7.2 1.55 -6.85 0.45 -7.1 -1.0 -8.15 -2.45 -6.6 -4.05 -5.95 L-4.75 -5.95 -5.2 -8.05 -6.85 -9.1 Q-8.6 -9.7 -9.8 -11.45 L-8.95 -13.45 -7.25 -13.95 -7.55 -15.4 -12.2 -15.4 Q-14.25 -16.45 -13.9 -19.1 L-12.1 -19.9 -7.0 -19.65 -7.0 -21.0 -12.1 -24.05 Q-13.15 -26.15 -12.5 -28.1 L-10.25 -28.35 -3.3 -25.8 M1.75 -13.25 L3.7 -16.0 2.35 -21.2 M1.55 -6.85 L1.75 -13.25 -0.95 -14.4 -1.45 -13.05 -2.5 -13.25 -3.1 -10.4 -5.2 -8.05 M-10.25 -28.35 L-10.4 -26.0 -12.1 -24.05 M-1.7 -20.8 L-1.6 -21.3 M-0.4 -21.15 L-0.75 -19.75 -2.2 -19.65 -2.2 -15.7 -0.7 -15.15 -0.95 -14.4 M-2.7 -14.5 L-2.15 -14.4 M-11.4 -17.85 L-12.2 -15.4 M-11.4 -17.85 L-11.4 -17.95 -12.1 -19.9" fill="none" stroke="#1d3130" stroke-linecap="round" stroke-linejoin="round" stroke-width="1.0"/>
    <path d="M9.25 -20.35 Q10.35 -20.05 10.6 -19.3 10.9 -18.45 9.95 -17.35 9.1 -17.65 8.9 -18.6 8.7 -19.6 9.25 -20.35 M9.5 -14.1 Q10.6 -13.55 10.2 -12.45 9.8 -11.3 8.5 -11.25 8.15 -12.1 8.45 -12.9 8.7 -13.7 9.45 -14.05" fill="none" stroke="#2f4342" stroke-linecap="round" stroke-linejoin="round" stroke-width="1.0"/>
    <path d="M7.1 -8.4 L6.7 -4.65 Q6.0 -1.5 1.45 -1.0 -3.1 -0.55 -4.05 -5.95" fill="none" stroke="#0e1819" stroke-linecap="round" stroke-linejoin="round" stroke-width="1.0"/>
    <path d="M-3.3 -25.8 L-4.25 -22.25 -7.0 -21.0 M-10.4 -26.0 L-4.25 -22.25 M-6.3 -18.1 L-7.55 -15.4 M-7.0 -19.65 L-6.3 -18.1 -11.4 -17.85 M-7.25 -13.95 L-6.5 -12.15 -6.85 -9.1" fill="none" stroke="#355351" stroke-linecap="round" stroke-linejoin="round" stroke-width="1.0"/>
  </g>
  <defs>
    <linearGradient gradientTransform="matrix(0.003, 0.0, 0.0, 0.0026, -8.65, -25.35)" gradientUnits="userSpaceOnUse" id="gradient0" spreadMethod="pad" x1="-819.2" x2="819.2">
      <stop offset="0.0" stop-color="#2b685e"/>
      <stop offset="0.5215686274509804" stop-color="#66b2ac"/>
      <stop offset="1.0" stop-color="#2b685e"/>
    </linearGradient>
    <linearGradient gradientTransform="matrix(0.0024, 0.0, 0.0, 0.0037, -7.8, -25.9)" gradientUnits="userSpaceOnUse" id="gradient1" spreadMethod="pad" x1="-819.2" x2="819.2">
      <stop offset="0.0" stop-color="#2b685e"/>
      <stop offset="0.5215686274509804" stop-color="#66b2ac"/>
      <stop offset="1.0" stop-color="#2b685e"/>
    </linearGradient>
    <linearGradient gradientTransform="matrix(0.0024, 7.0E-4, -4.0E-4, 0.0016, -16.4, 7.6)" gradientUnits="userSpaceOnUse" id="gradient2" spreadMethod="pad" x1="-819.2" x2="819.2">
      <stop offset="0.0" stop-color="#2b685e"/>
      <stop offset="0.5215686274509804" stop-color="#66b2ac"/>
      <stop offset="1.0" stop-color="#2b685e"/>
    </linearGradient>
    <linearGradient gradientTransform="matrix(0.0019, 0.0, 0.0, 0.003, -9.0, -11.95)" gradientUnits="userSpaceOnUse" id="gradient3" spreadMethod="pad" x1="-819.2" x2="819.2">
      <stop offset="0.0" stop-color="#2b685e"/>
      <stop offset="0.5215686274509804" stop-color="#66b2ac"/>
      <stop offset="1.0" stop-color="#2b685e"/>
    </linearGradient>
    <linearGradient gradientTransform="matrix(0.0026, 0.0, 0.0, 0.0013, -8.7, -18.8)" gradientUnits="userSpaceOnUse" id="gradient4" spreadMethod="pad" x1="-819.2" x2="819.2">
      <stop offset="0.0" stop-color="#2b685e"/>
      <stop offset="0.5215686274509804" stop-color="#66b2ac"/>
      <stop offset="1.0" stop-color="#2b685e"/>
    </linearGradient>
    <linearGradient gradientTransform="matrix(0.0019, 0.0019, -0.0022, 0.0022, -7.45, -23.15)" gradientUnits="userSpaceOnUse" id="gradient5" spreadMethod="pad" x1="-819.2" x2="819.2">
      <stop offset="0.0" stop-color="#2b685e"/>
      <stop offset="0.5215686274509804" stop-color="#66b2ac"/>
      <stop offset="1.0" stop-color="#2b685e"/>
    </linearGradient>
    <linearGradient gradientTransform="matrix(0.0027, 0.0, 0.0, 0.0027, -10.05, -17.4)" gradientUnits="userSpaceOnUse" id="gradient6" spreadMethod="pad" x1="-819.2" x2="819.2">
      <stop offset="0.0" stop-color="#2b685e"/>
      <stop offset="0.5215686274509804" stop-color="#66b2ac"/>
      <stop offset="1.0" stop-color="#2b685e"/>
    </linearGradient>
  </defs>
</svg>
