<?xml version="1.0" encoding="UTF-8" standalone="no"?>
<svg xmlns:xlink="http://www.w3.org/1999/xlink" height="35.5px" width="29.65px" xmlns="http://www.w3.org/2000/svg">
  <g transform="matrix(1.0, 0.0, 0.0, 1.0, 15.7, 38.75)">
    <path d="M9.85 -25.15 Q10.65 -25.5 11.5 -24.8 L11.05 -24.1 Q10.15 -23.7 9.6 -24.4 L9.85 -25.15 M-1.1 -29.2 L1.25 -29.6 Q2.55 -29.1 3.3 -28.4 4.4 -27.5 4.15 -26.25 L1.65 -26.8 1.05 -28.05 Q-1.05 -29.0 -3.15 -27.75 L-1.1 -29.2" fill="#21080a" fill-rule="evenodd" stroke="none"/>
    <path d="M9.6 -24.4 L9.05 -24.2 8.4 -23.9 Q7.6 -23.45 7.7 -22.5 7.75 -21.9 8.1 -21.15 L9.1 -19.65 10.1 -18.7 Q9.25 -17.95 8.9 -13.1 L8.7 -9.85 8.65 -8.7 Q8.6 -7.25 7.6 -5.3 6.9 -3.9 5.95 -3.8 4.9 -3.7 3.65 -5.0 8.25 -8.95 3.9 -15.15 L2.65 -16.0 -1.45 -15.75 -3.75 -13.75 -5.45 -13.8 -6.25 -14.25 Q-6.35 -16.0 -7.55 -17.7 L-8.5 -19.9 Q-8.95 -21.55 -8.55 -23.5 L-9.35 -24.0 -10.4 -25.4 -10.0 -25.4 -9.45 -26.25 -7.1 -26.25 -6.95 -27.0 -3.65 -27.6 -3.5 -27.55 -3.15 -27.75 Q-1.05 -29.0 1.05 -28.05 L1.65 -26.8 4.15 -26.25 Q6.35 -26.45 8.75 -25.3 L9.85 -25.15 9.6 -24.4 M0.3 -18.6 L3.3 -18.8 5.75 -18.15 3.3 -18.8 0.3 -18.6 M-5.25 -24.75 L-4.6 -24.75 -3.8 -24.35 Q0.0 -22.1 3.3 -22.25 L5.7 -22.75 Q6.55 -23.15 7.7 -22.5 6.55 -23.15 5.7 -22.75 L3.3 -22.25 Q0.0 -22.1 -3.8 -24.35 L-4.6 -24.75 -5.25 -24.75 M-0.85 -17.3 L3.3 -17.15 5.1 -16.5 3.3 -17.15 -0.85 -17.3" fill="#be0b06" fill-rule="evenodd" stroke="none"/>
    <path d="M-12.25 -10.25 Q-13.05 -12.1 -12.85 -14.5 -14.6 -16.95 -15.05 -19.9 L-15.15 -20.45 Q-15.3 -22.3 -14.65 -24.6 -14.45 -25.75 -13.4 -25.7 L-10.8 -25.45 -10.4 -25.4 -9.35 -24.0 -10.6 -23.5 Q-11.1 -21.6 -10.75 -19.9 -10.45 -18.45 -9.5 -17.15 -7.65 -15.0 -8.2 -13.95 -7.5 -12.65 -6.25 -14.25 L-5.45 -13.8 -3.75 -13.75 -1.45 -15.75 2.65 -16.0 3.9 -15.15 Q8.25 -8.95 3.65 -5.0 L0.95 -5.65 Q1.15 -6.8 -0.2 -9.25 -2.4 -11.35 -5.15 -11.05 L-9.2 -11.25 Q-10.15 -10.45 -12.25 -10.25 M-11.9 -22.4 Q-12.2 -23.85 -13.25 -22.6 -13.65 -21.65 -13.05 -19.9 L-11.7 -16.8 Q-10.7 -14.6 -10.4 -13.35 -9.05 -12.95 -8.9 -14.45 -9.45 -16.15 -10.6 -18.1 L-11.3 -19.9 Q-12.0 -21.8 -11.9 -22.4" fill="#74140e" fill-rule="evenodd" stroke="none"/>
    <path d="M10.05 -10.05 Q10.6 -7.0 8.75 -6.2 8.6 -5.05 8.95 -4.85 7.15 -3.6 5.95 -3.8 6.9 -3.9 7.6 -5.3 8.6 -7.25 8.65 -8.7 L8.7 -9.85 10.05 -10.05 M8.9 -13.1 Q9.25 -17.95 10.1 -18.7 10.3 -15.9 8.9 -13.1" fill="#353435" fill-rule="evenodd" stroke="none"/>
    <path d="M3.65 -5.0 L-4.95 -5.35 -5.95 -6.8 Q-7.35 -6.05 -8.65 -6.6 -11.3 -7.95 -12.25 -10.25 -10.15 -10.45 -9.2 -11.25 L-5.15 -11.05 Q-2.4 -11.35 -0.2 -9.25 1.15 -6.8 0.95 -5.65 L3.65 -5.0 M-8.05 -8.75 L-8.85 -9.05 -8.05 -8.75" fill="#b80d10" fill-rule="evenodd" stroke="none"/>
    <path d="M10.1 -18.7 Q11.4 -17.9 12.8 -19.1 14.95 -14.15 10.05 -10.05 L8.7 -9.85 8.9 -13.1 Q10.3 -15.9 10.1 -18.7" fill="#767576" fill-rule="evenodd" stroke="none"/>
    <path d="M-10.8 -25.45 Q-14.7 -29.1 -11.05 -29.05 L-10.7 -28.05 -9.45 -26.25 -10.7 -28.05 -11.05 -29.05 -10.25 -29.0 -4.6 -27.85 -3.65 -27.6 -6.95 -27.0 -7.1 -26.25 -9.45 -26.25 -10.0 -25.4 -10.4 -25.4 -10.8 -25.45" fill="#580507" fill-rule="evenodd" stroke="none"/>
    <path d="M-1.1 -29.2 L-3.15 -27.75 -3.5 -27.55 -3.65 -27.6 -4.6 -27.85 -10.25 -29.0 -10.05 -29.9 Q-7.4 -32.65 -4.6 -31.8 -3.05 -31.35 -1.5 -29.75 L-1.1 -29.2" fill="#5d81b9" fill-rule="evenodd" stroke="none"/>
    <path d="M-9.35 -24.0 L-8.55 -23.5 Q-8.95 -21.55 -8.5 -19.9 L-7.55 -17.7 Q-6.35 -16.0 -6.25 -14.25 -7.5 -12.65 -8.2 -13.95 -7.65 -15.0 -9.5 -17.15 -10.45 -18.45 -10.75 -19.9 -11.1 -21.6 -10.6 -23.5 L-9.35 -24.0 M-11.9 -22.4 Q-12.0 -21.8 -11.3 -19.9 L-10.6 -18.1 Q-9.45 -16.15 -8.9 -14.45 -9.05 -12.95 -10.4 -13.35 -10.7 -14.6 -11.7 -16.8 L-13.05 -19.9 Q-13.65 -21.65 -13.25 -22.6 -12.2 -23.85 -11.9 -22.4" fill="#537fb3" fill-rule="evenodd" stroke="none"/>
    <path d="M9.85 -25.15 Q10.65 -25.5 11.5 -24.8 L11.05 -24.1" fill="none" stroke="#21080a" stroke-linecap="round" stroke-linejoin="round" stroke-width="1.0"/>
    <path d="M4.15 -26.25 Q4.4 -27.5 3.3 -28.4 2.55 -29.1 1.25 -29.6 L-1.1 -29.2" fill="none" stroke="#0e0304" stroke-linecap="round" stroke-linejoin="round" stroke-width="1.0"/>
    <path d="M9.6 -24.4 L9.05 -24.2 8.4 -23.9 Q7.6 -23.45 7.7 -22.5 7.75 -21.9 8.1 -21.15 L9.1 -19.65 10.1 -18.7 Q9.25 -17.95 8.9 -13.1 L8.7 -9.85 8.65 -8.7 Q8.6 -7.25 7.6 -5.3 6.9 -3.9 5.95 -3.8 4.9 -3.7 3.65 -5.0 L-4.95 -5.35 -5.95 -6.8 Q-7.35 -6.05 -8.65 -6.6 -11.3 -7.95 -12.25 -10.25 -13.05 -12.1 -12.85 -14.5 -14.6 -16.95 -15.05 -19.9 L-15.15 -20.45 Q-15.3 -22.3 -14.65 -24.6 -14.45 -25.75 -13.4 -25.7 L-10.8 -25.45 Q-14.7 -29.1 -11.05 -29.05 L-10.25 -29.0 -4.6 -27.85 -3.65 -27.6 -6.95 -27.0 -7.1 -26.25 -9.45 -26.25 -10.0 -25.4 -10.4 -25.4 -10.8 -25.45 M-1.1 -29.2 L-3.15 -27.75 Q-1.05 -29.0 1.05 -28.05 L1.65 -26.8 4.15 -26.25 Q6.35 -26.45 8.75 -25.3 L9.85 -25.15 9.6 -24.4 M7.7 -22.5 Q6.55 -23.15 5.7 -22.75 L3.3 -22.25 Q0.0 -22.1 -3.8 -24.35 L-4.6 -24.75 -5.25 -24.75 M5.75 -18.15 L3.3 -18.8 0.3 -18.6 M-6.25 -14.25 L-5.45 -13.8 -3.75 -13.75 -1.45 -15.75 2.65 -16.0 3.9 -15.15 Q8.25 -8.95 3.65 -5.0 M5.1 -16.5 L3.3 -17.15 -0.85 -17.3 M-3.15 -27.75 L-3.5 -27.55 -3.65 -27.6 M-9.35 -24.0 L-8.55 -23.5 Q-8.95 -21.55 -8.5 -19.9 L-7.55 -17.7 Q-6.35 -16.0 -6.25 -14.25 M-9.35 -24.0 L-10.4 -25.4" fill="none" stroke="#310206" stroke-linecap="round" stroke-linejoin="round" stroke-width="1.0"/>
    <path d="M12.8 -19.1 Q14.95 -14.15 10.05 -10.05 10.6 -7.0 8.75 -6.2 8.6 -5.05 8.95 -4.85 7.15 -3.6 5.95 -3.8 M8.9 -13.1 Q10.3 -15.9 10.1 -18.7 M10.05 -10.05 L8.7 -9.85" fill="none" stroke="#313131" stroke-linecap="round" stroke-linejoin="round" stroke-width="1.0"/>
    <path d="M-14.0 -37.4 L-14.15 -38.25" fill="none" stroke="#000000" stroke-linecap="round" stroke-linejoin="round" stroke-width="1.0"/>
    <path d="M-11.05 -29.05 L-14.0 -37.4 M-9.45 -26.25 L-10.7 -28.05 -11.05 -29.05" fill="none" stroke="#000000" stroke-linecap="round" stroke-linejoin="round" stroke-opacity="0.5019608" stroke-width="1.0"/>
    <path d="M-10.25 -29.0 L-10.05 -29.9 Q-7.4 -32.65 -4.6 -31.8 -3.05 -31.35 -1.5 -29.75 L-1.1 -29.2 M-6.25 -14.25 Q-7.5 -12.65 -8.2 -13.95 -7.65 -15.0 -9.5 -17.15 -10.45 -18.45 -10.75 -19.9 -11.1 -21.6 -10.6 -23.5 L-9.35 -24.0 M-11.9 -22.4 Q-12.0 -21.8 -11.3 -19.9 L-10.6 -18.1 Q-9.45 -16.15 -8.9 -14.45 -9.05 -12.95 -10.4 -13.35 -10.7 -14.6 -11.7 -16.8 L-13.05 -19.9 Q-13.65 -21.65 -13.25 -22.6 -12.2 -23.85 -11.9 -22.4" fill="none" stroke="#072a48" stroke-linecap="round" stroke-linejoin="round" stroke-width="1.0"/>
    <path d="M-8.85 -9.05 L-8.05 -8.75" fill="none" stroke="#7b0f0c" stroke-linecap="round" stroke-linejoin="round" stroke-width="1.0"/>
    <path d="M11.05 -24.1 L11.55 -23.7 12.7 -22.15 Q13.95 -20.35 12.8 -19.1 11.4 -17.9 10.1 -18.7 9.55 -19.0 9.05 -19.65 L8.1 -21.15 Q7.75 -21.9 7.7 -22.5 7.6 -23.45 8.4 -23.9 L9.05 -24.2 9.6 -24.4 Q10.15 -23.7 11.05 -24.1" fill="#7d1210" fill-rule="evenodd" stroke="none"/>
    <path d="M11.05 -24.1 Q10.15 -23.7 9.6 -24.4 L9.05 -24.2 8.4 -23.9 Q7.6 -23.45 7.7 -22.5 7.75 -21.9 8.1 -21.15 L9.05 -19.65 Q9.55 -19.0 10.1 -18.7 11.4 -17.9 12.8 -19.1 13.95 -20.35 12.7 -22.15 L11.55 -23.7 11.05 -24.1 Z" fill="none" stroke="#310206" stroke-linecap="round" stroke-linejoin="round" stroke-width="1.0"/>
  </g>
</svg>
