<?xml version="1.0" encoding="UTF-8" standalone="no"?>
<svg xmlns:ffdec="https://www.free-decompiler.com/flash" xmlns:xlink="http://www.w3.org/1999/xlink" ffdec:objectType="shape" height="25.5px" width="22.25px" xmlns="http://www.w3.org/2000/svg">
  <g transform="matrix(1.0, 0.0, 0.0, 1.0, 13.5, 28.7)">
    <path d="M5.6 -6.4 L-0.8 -6.4 -0.8 -3.2 -3.95 -3.2 -3.95 -6.4 -7.15 -6.4 -7.15 -9.6 -3.95 -9.6 -3.95 -12.75 -7.15 -12.75 -7.15 -22.3 -7.15 -25.5 -3.95 -25.5 -3.95 -28.7 -0.8 -28.7 -0.8 -25.5 5.6 -25.5 5.6 -28.7 8.75 -28.7 8.75 -9.6 5.6 -9.6 5.6 -6.4" fill="#000080" fill-rule="evenodd" stroke="none"/>
    <path d="M-0.8 -28.7 L5.6 -28.7 5.6 -25.5 -0.8 -25.5 -0.8 -28.7" fill="#808000" fill-rule="evenodd" stroke="none"/>
    <path d="M5.6 -6.4 L5.6 -3.2 -0.8 -3.2 -0.8 -6.4 5.6 -6.4 5.6 -9.6 8.75 -9.6 8.75 -6.4 5.6 -6.4 M-7.15 -9.6 L-10.35 -9.6 -10.35 -12.75 -13.5 -12.75 -13.5 -22.3 -10.35 -22.3 -10.35 -25.5 -7.15 -25.5 -7.15 -28.7 -3.95 -28.7 -3.95 -25.5 -7.15 -25.5 -7.15 -22.3 -10.35 -22.3 -10.35 -12.75 -7.15 -12.75 -3.95 -12.75 -3.95 -9.6 -7.15 -9.6" fill="#808080" fill-rule="evenodd" stroke="none"/>
    <path d="M-7.15 -22.3 L-7.15 -12.75 -10.35 -12.75 -10.35 -22.3 -7.15 -22.3" fill="#c0c0c0" fill-rule="evenodd" stroke="none"/>
  </g>
</svg>
