<?xml version="1.0" encoding="UTF-8" standalone="no"?>
<svg xmlns:ffdec="https://www.free-decompiler.com/flash" xmlns:xlink="http://www.w3.org/1999/xlink" ffdec:objectType="shape" height="4.55px" width="6.65px" xmlns="http://www.w3.org/2000/svg">
  <g transform="matrix(1.0, 0.0, 0.0, 1.0, -55.7, -13.45)">
    <path d="M62.05 16.55 L62.35 17.0 62.15 17.45 61.65 17.5 61.2 17.45 60.65 17.5 60.15 17.2 59.75 17.1 59.3 17.0 59.15 17.15 58.8 17.4 58.1 17.8 Q57.75 18.1 57.35 18.0 L56.85 17.8 56.6 17.85 56.4 17.7 55.8 17.2 55.7 16.85 55.7 16.4 55.85 16.0 56.3 15.15 Q56.2 14.9 56.4 14.6 L56.65 14.1 56.95 13.6 57.0 13.6 57.0 13.5 57.5 13.5 57.8 13.9 57.0 16.0 56.9 16.15 56.75 16.5 56.7 16.7 56.85 16.8 57.4 16.9 57.45 17.0 57.5 16.95 57.55 17.0 58.15 16.65 58.5 16.35 Q58.9 16.05 59.0 16.05 L59.5 15.95 60.5 16.35 60.55 16.45 61.4 16.5 62.05 16.55" fill="#ffffff" fill-rule="evenodd" stroke="none"/>
  </g>
</svg>
