<?xml version="1.0" encoding="UTF-8" standalone="no"?>
<svg xmlns:xlink="http://www.w3.org/1999/xlink" height="42.9px" width="25.7px" xmlns="http://www.w3.org/2000/svg">
  <g transform="matrix(1.0, 0.0, 0.0, 1.0, 14.65, 44.4)">
    <path d="M6.8 -26.35 L4.7 -26.25 2.55 -23.35 2.2 -21.2 3.3 -19.25 Q4.35 -16.85 2.3 -16.2 L1.75 -16.25 0.45 -16.25 -0.05 -15.8 -0.05 -14.55 1.25 -13.15 1.3 -11.9 6.9 -11.3 6.9 -10.25 Q0.85 -10.95 -5.1 -10.5 L-5.6 -14.2 -1.8 -13.85 -0.85 -14.6 -0.45 -18.25 Q-1.85 -18.65 -2.1 -20.05 -4.2 -19.15 -6.1 -19.2 L-6.05 -20.95 -2.15 -21.3 Q-2.05 -23.15 -0.1 -23.6 L-0.35 -26.1 -3.6 -26.4 -2.85 -29.85 -2.6 -30.65 Q3.15 -30.75 6.4 -28.0 L6.8 -26.35 M6.65 -5.25 Q7.0 -1.9 3.65 -2.05 -2.4 -1.75 -6.45 -2.9 -7.2 -4.6 -6.95 -6.75 -4.1 -6.7 -1.95 -4.65 2.8 -5.8 6.65 -5.25 M-13.9 -21.9 L-13.8 -24.55 -10.15 -27.5 -6.55 -26.55 Q-8.0 -25.05 -8.05 -21.4 L-7.55 -21.15 -7.9 -19.5 -8.5 -19.7 -8.6 -18.25 Q-8.65 -16.5 -8.3 -15.35 L-7.9 -14.4 -7.45 -14.35 -6.75 -10.35 -6.75 -10.3 -7.25 -9.05 -9.35 -8.5 Q-9.9 -9.8 -11.2 -9.65 -12.35 -9.5 -12.75 -8.35 L-13.9 -8.9 -14.15 -13.05 -13.65 -13.15 -11.85 -13.5 -11.75 -19.3 -13.55 -21.45 -13.9 -21.9 -10.2 -21.65 -13.9 -21.9 M-10.2 -15.25 L-8.3 -15.35 -10.2 -15.25 M-10.35 -18.15 L-8.6 -18.25 -10.35 -18.15 M-9.25 -25.3 L-9.45 -22.7 -9.25 -25.3 M-11.1 -22.85 L-10.85 -25.6 -11.1 -22.85 M-8.7 -13.0 L-8.7 -10.4 -8.7 -13.0" fill="#454a50" fill-rule="evenodd" stroke="none"/>
    <path d="M7.95 -15.9 L8.3 -17.95 9.85 -18.0 9.25 -15.3 7.95 -15.9 M-13.65 -13.15 L-13.55 -21.45 -11.75 -19.3 -11.85 -13.5 -13.65 -13.15 M-12.75 -8.35 Q-12.35 -9.5 -11.2 -9.65 -9.9 -9.8 -9.35 -8.5 -9.85 -7.7 -11.0 -7.75 -12.05 -7.75 -12.75 -8.35" fill="#067ef9" fill-rule="evenodd" stroke="none"/>
    <path d="M-2.6 -30.65 L-2.85 -29.85 -3.6 -26.4 Q-4.4 -26.65 -5.0 -27.05 L-4.35 -29.8 Q-3.45 -30.6 -2.6 -30.65 M-6.05 -20.95 L-6.1 -19.2 -7.9 -19.5 -7.55 -21.15 -6.05 -20.95 M-5.6 -14.2 L-5.1 -10.5 -6.75 -10.35 -7.45 -14.35 -5.6 -14.2" fill="#2e3033" fill-rule="evenodd" stroke="none"/>
    <path d="M6.8 -26.35 L6.4 -28.0" fill="none" stroke="#1c2023" stroke-linecap="round" stroke-linejoin="round" stroke-width="1.0"/>
    <path d="M-6.95 -6.75 Q-7.2 -4.6 -6.45 -2.9 -2.4 -1.75 3.65 -2.05 7.0 -1.9 6.65 -5.25 M-10.15 -27.5 L-12.4 -42.15" fill="none" stroke="#1a1b1f" stroke-linecap="round" stroke-linejoin="round" stroke-width="1.0"/>
    <path d="M-2.6 -30.65 L-2.85 -29.85 M6.9 -10.25 L6.9 -11.3 M-6.75 -10.3 L-6.75 -10.35" fill="none" stroke="#2b2e33" stroke-linecap="round" stroke-linejoin="round" stroke-width="1.0"/>
    <path d="M-12.6 -43.6 L-12.65 -43.9 M-12.4 -42.15 L-12.55 -43.05" fill="none" stroke="#063d88" stroke-linecap="round" stroke-linejoin="round" stroke-width="1.0"/>
    <path d="M6.4 -28.0 Q3.15 -30.75 -2.6 -30.65 -3.45 -30.6 -4.35 -29.8 L-5.0 -27.05 M-2.85 -29.85 L-3.6 -26.4 M-7.45 -14.35 L-6.75 -10.35" fill="none" stroke="#0c0d0f" stroke-linecap="round" stroke-linejoin="round" stroke-width="1.0"/>
    <path d="M-5.6 -14.2 L-5.1 -10.5 M-6.55 -26.55 L-10.15 -27.5 -13.8 -24.55 -13.9 -21.9 -10.2 -21.65 M-8.3 -15.35 L-10.2 -15.25 M-8.6 -18.25 L-10.35 -18.15 M-13.55 -21.45 L-13.9 -21.9 M-12.75 -8.35 L-13.9 -8.9 -14.15 -13.05 -13.65 -13.15 -11.85 -13.5 -11.75 -19.3 -13.55 -21.45 M-9.35 -8.5 Q-9.9 -9.8 -11.2 -9.65 -12.35 -9.5 -12.75 -8.35 M-9.35 -8.5 L-7.25 -9.05" fill="none" stroke="#1b1c20" stroke-linecap="round" stroke-linejoin="round" stroke-width="1.0"/>
    <path d="M-6.05 -20.95 L-6.1 -19.2 M-7.55 -21.15 L-7.9 -19.5" fill="none" stroke="#0d0e12" stroke-linecap="round" stroke-linejoin="round" stroke-width="1.0"/>
    <path d="M-8.7 -10.4 L-8.7 -13.0 M-10.85 -25.6 L-11.1 -22.85 M-9.45 -22.7 L-9.25 -25.3" fill="none" stroke="#373a41" stroke-linecap="round" stroke-linejoin="round" stroke-width="1.0"/>
    <path d="M8.15 -26.4 Q9.95 -24.5 10.55 -20.1 L10.05 -18.0 8.3 -17.95 7.95 -15.9 9.25 -15.3 8.75 -12.45 7.7 -11.25 6.9 -11.3 1.3 -11.9 1.25 -13.15 -0.05 -14.55 -0.05 -15.8 0.45 -16.25 1.75 -16.25 2.3 -16.2 Q4.35 -16.85 3.3 -19.25 L2.2 -21.2 2.55 -23.35 4.7 -26.25 8.15 -26.4 M9.1 -20.6 L7.25 -20.65 9.1 -20.6 M9.0 -19.25 L7.1 -19.3 9.0 -19.25 M7.25 -21.9 L8.95 -21.9 7.25 -21.9 M2.15 -13.1 L7.05 -12.7 7.55 -13.15 7.8 -14.7 7.55 -13.15 7.05 -12.7 2.15 -13.1 M6.9 -10.25 L7.2 -10.25 Q7.8 -8.75 6.75 -5.25 L6.65 -5.25 Q2.8 -5.8 -1.95 -4.65 -4.1 -6.7 -6.95 -6.75 L-7.4 -6.8 -7.25 -9.05 -6.75 -10.3 -6.75 -10.35 -5.1 -10.5 Q0.85 -10.95 6.9 -10.25 M2.0 -7.5 L2.25 -9.15 2.0 -7.5 M3.65 -7.25 L3.8 -9.0 3.65 -7.25 M-5.4 -27.3 L-5.0 -27.05 Q-4.4 -26.65 -3.6 -26.4 L-0.35 -26.1 -0.1 -23.6 Q-2.05 -23.15 -2.15 -21.3 L-6.05 -20.95 -7.55 -21.15 -8.05 -21.4 Q-8.0 -25.05 -6.55 -26.55 -6.05 -27.05 -5.4 -27.3 M-6.1 -19.2 Q-4.2 -19.15 -2.1 -20.05 -1.85 -18.65 -0.45 -18.25 L-0.85 -14.6 -1.8 -13.85 -7.9 -14.4 -8.3 -15.35 Q-8.65 -16.5 -8.6 -18.25 L-8.5 -19.7 -7.9 -19.5 -6.1 -19.2" fill="#666f78" fill-rule="evenodd" stroke="none"/>
    <path d="M8.15 -26.4 Q9.95 -24.5 10.55 -20.1 L10.05 -18.0 8.3 -17.95 7.95 -15.9 9.25 -15.3 8.75 -12.45 7.7 -11.25 6.9 -11.3 1.3 -11.9 1.25 -13.15 -0.05 -14.55 -0.05 -15.8 0.45 -16.25 1.75 -16.25 2.3 -16.2 Q4.35 -16.85 3.3 -19.25 L2.2 -21.2 2.55 -23.35 4.7 -26.25 8.15 -26.4 M6.9 -10.25 Q0.85 -10.95 -5.1 -10.5 L-6.75 -10.35 -6.75 -10.3 -7.25 -9.05 -7.4 -6.8 -6.95 -6.75 Q-4.1 -6.7 -1.95 -4.65 2.8 -5.8 6.65 -5.25 L6.75 -5.25 Q7.8 -8.75 7.2 -10.25 L6.9 -10.25 M-5.4 -27.3 L-5.0 -27.05 Q-4.4 -26.65 -3.6 -26.4 L-0.35 -26.1 -0.1 -23.6 Q-2.05 -23.15 -2.15 -21.3 L-6.05 -20.95 -7.55 -21.15 -8.05 -21.4 Q-8.0 -25.05 -6.55 -26.55 -6.05 -27.05 -5.4 -27.3 M-6.1 -19.2 Q-4.2 -19.15 -2.1 -20.05 -1.85 -18.65 -0.45 -18.25 L-0.85 -14.6 -1.8 -13.85 -7.9 -14.4 -8.3 -15.35 Q-8.65 -16.5 -8.6 -18.25 L-8.5 -19.7 -7.9 -19.5 -6.1 -19.2" fill="none" stroke="#2b2e33" stroke-linecap="round" stroke-linejoin="round" stroke-width="1.0"/>
    <path d="M8.95 -21.9 L7.25 -21.9 M7.1 -19.3 L9.0 -19.25 M7.25 -20.65 L9.1 -20.6" fill="none" stroke="#484c54" stroke-linecap="round" stroke-linejoin="round" stroke-width="1.0"/>
    <path d="M7.8 -14.7 L7.55 -13.15 7.05 -12.7 2.15 -13.1" fill="none" stroke="#4f565e" stroke-linecap="round" stroke-linejoin="round" stroke-width="1.0"/>
    <path d="M3.8 -9.0 L3.65 -7.25 M2.25 -9.15 L2.0 -7.5" fill="none" stroke="#464d52" stroke-linecap="round" stroke-linejoin="round" stroke-width="1.0"/>
  </g>
</svg>
