<?xml version="1.0" encoding="UTF-8" standalone="no"?>
<svg xmlns:ffdec="https://www.free-decompiler.com/flash" xmlns:xlink="http://www.w3.org/1999/xlink" ffdec:objectType="shape" height="35.0px" width="97.35px" xmlns="http://www.w3.org/2000/svg">
  <g transform="matrix(1.0, 0.0, 0.0, 1.0, 30.3, 15.85)">
    <path d="M57.65 -10.6 Q69.55 -5.3 66.4 1.95 63.25 9.2 47.05 14.3 30.75 19.3 10.9 19.15 -8.95 19.0 -20.9 13.75 -32.75 8.6 -29.65 1.35 -26.5 -5.9 -10.25 -11.05 6.1 -16.15 25.95 -15.85 45.8 -15.85 57.65 -10.6" fill="url(#gradient0)" fill-rule="evenodd" stroke="none"/>
    <path d="M21.05 -1.1 L32.1 -1.1 33.65 -1.1 37.6 -1.05 Q35.85 1.45 30.5 3.45 L10.15 4.0 8.0 2.1 -4.4 2.1 -7.1 -1.1 18.25 -1.1 17.6 0.4 11.2 0.4 12.65 1.95 19.6 1.95 21.05 -1.1" fill="#ffffff" fill-rule="evenodd" stroke="none"/>
    <path d="M21.05 -1.1 L19.6 1.95 12.65 1.95 11.2 0.4 17.6 0.4 18.25 -1.1 -7.1 -1.1 -4.4 2.1 8.0 2.1 10.15 4.0 30.5 3.45 Q35.85 1.45 37.6 -1.05 L33.65 -1.1 32.1 -1.1 21.05 -1.1 Z" fill="none" stroke="#cccccc" stroke-linecap="round" stroke-linejoin="round" stroke-width="1.0"/>
  </g>
  <defs>
    <radialGradient cx="0" cy="0" gradientTransform="matrix(0.0467, 0.0, -0.0064, 0.017, 18.15, 1.55)" gradientUnits="userSpaceOnUse" id="gradient0" r="819.2" spreadMethod="pad">
      <stop offset="0.0" stop-color="#ffffff" stop-opacity="0.49803922"/>
      <stop offset="1.0" stop-color="#ffffff" stop-opacity="0.0"/>
    </radialGradient>
  </defs>
</svg>
