<?xml version="1.0" encoding="UTF-8" standalone="no"?>
<svg xmlns:xlink="http://www.w3.org/1999/xlink" height="32.4px" width="23.9px" xmlns="http://www.w3.org/2000/svg">
  <g transform="matrix(1.0, 0.0, 0.0, 1.0, 15.15, 35.8)">
    <path d="M-5.3 -10.45 L-4.1 -10.55 Q-2.6 -10.4 -2.3 -9.45 L-2.25 -9.3 Q-2.15 -8.4 -2.75 -6.9 L-3.1 -6.15 -3.15 -6.05 -3.35 -5.7 Q-4.25 -4.45 -5.3 -6.4 L-5.55 -6.85 -5.55 -6.9 Q-6.5 -8.75 -6.1 -9.65 -5.9 -10.25 -5.3 -10.45 M1.65 -8.65 Q2.2 -9.3 3.5 -9.25 L3.55 -9.25 Q4.05 -9.6 5.1 -9.55 L6.4 -9.15 6.95 -8.3 Q7.1 -7.2 6.1 -5.15 5.3 -3.6 4.4 -4.65 L2.55 -4.7 2.3 -5.1 2.25 -5.2 Q1.05 -7.35 1.5 -8.35 L1.65 -8.65 M3.55 -9.25 Q5.15 -9.1 5.35 -8.0 5.5 -6.9 4.5 -4.85 L4.4 -4.65 4.5 -4.85 Q5.5 -6.9 5.35 -8.0 5.15 -9.1 3.55 -9.25" fill="#273f37" fill-rule="evenodd" stroke="none"/>
    <path d="M-5.8 -10.55 L-5.3 -10.45 Q-5.9 -10.25 -6.1 -9.65 -6.5 -8.75 -5.55 -6.9 L-5.55 -6.85 -5.65 -6.9 -6.8 -7.8 Q-7.7 -9.1 -7.25 -10.1 -7.0 -10.7 -5.8 -10.55 M-2.3 -9.45 L-1.95 -9.35 1.65 -8.65 1.5 -8.35 Q1.05 -7.35 2.25 -5.2 L-0.7 -5.5 -3.15 -6.05 -3.1 -6.15 -2.75 -6.9 Q-2.15 -8.4 -2.25 -9.3 L-2.3 -9.45" fill="#7b7b7b" fill-rule="evenodd" stroke="none"/>
    <path d="M4.0 -26.0 L4.0 -25.95 3.55 -23.25 Q4.15 -15.3 7.8 -14.65 L6.4 -9.15 5.1 -9.55 Q4.05 -9.6 3.55 -9.25 L3.5 -9.25 Q2.2 -9.3 1.65 -8.65 L-1.95 -9.35 -2.3 -9.45 Q-2.6 -10.4 -4.1 -10.55 L-5.3 -10.45 -5.8 -10.55 -6.25 -12.2 -7.4 -17.9 -7.3 -25.75 -5.1 -28.45 -3.8 -29.0 1.3 -29.25 Q3.2 -29.15 5.35 -28.2 5.45 -27.25 4.0 -26.0 M2.55 -4.7 L1.05 -4.2 Q-1.05 -3.8 -2.6 -5.05 L-3.35 -5.7 -3.15 -6.05 -0.7 -5.5 2.25 -5.2 2.3 -5.1 2.55 -4.7" fill="#182f3d" fill-rule="evenodd" stroke="none"/>
    <path d="M4.0 -25.95 L4.0 -26.0 Q5.45 -27.25 5.35 -28.2 9.4 -22.25 7.8 -14.65 4.15 -15.3 3.55 -23.25 L4.0 -25.95" fill="#666666" fill-rule="evenodd" stroke="none"/>
    <path d="M4.0 -26.0 Q5.45 -27.25 5.35 -28.2 3.2 -29.15 1.3 -29.25 L-3.8 -29.0 -5.1 -28.45 -7.3 -25.75 -7.4 -17.9 -6.25 -12.2 -5.8 -10.55 -5.3 -10.45 M-2.3 -9.45 L-1.95 -9.35 1.65 -8.65 M6.4 -9.15 L7.8 -14.65 Q4.15 -15.3 3.55 -23.25 L4.0 -25.95 M2.55 -4.7 L1.05 -4.2 Q-1.05 -3.8 -2.6 -5.05 L-3.35 -5.7 -3.15 -6.05 -0.7 -5.5 2.25 -5.2 2.3 -5.1 2.55 -4.7" fill="none" stroke="#0f1d24" stroke-linecap="round" stroke-linejoin="round" stroke-width="1.0"/>
    <path d="M-5.3 -10.45 L-4.1 -10.55 Q-2.6 -10.4 -2.3 -9.45 L-2.25 -9.3 Q-2.15 -8.4 -2.75 -6.9 L-3.1 -6.15 -3.15 -6.05 M1.65 -8.65 Q2.2 -9.3 3.5 -9.25 L3.55 -9.25 Q4.05 -9.6 5.1 -9.55 L6.4 -9.15 6.95 -8.3 Q7.1 -7.2 6.1 -5.15 5.3 -3.6 4.4 -4.65 L2.55 -4.7 M-3.35 -5.7 Q-4.25 -4.45 -5.3 -6.4 L-5.55 -6.85 -5.55 -6.9 Q-6.5 -8.75 -6.1 -9.65 -5.9 -10.25 -5.3 -10.45 M2.25 -5.2 Q1.05 -7.35 1.5 -8.35 L1.65 -8.65 M4.4 -4.65 L4.5 -4.85 Q5.5 -6.9 5.35 -8.0 5.15 -9.1 3.55 -9.25 M5.35 -28.2 Q9.4 -22.25 7.8 -14.65" fill="none" stroke="#17241f" stroke-linecap="round" stroke-linejoin="round" stroke-width="1.0"/>
    <path d="M-5.55 -6.85 L-5.65 -6.9 -6.8 -7.8 Q-7.7 -9.1 -7.25 -10.1 -7.0 -10.7 -5.8 -10.55" fill="none" stroke="#1e1e1e" stroke-linecap="round" stroke-linejoin="round" stroke-width="1.0"/>
    <path d="M1.9 -28.65 L4.15 -28.1 5.3 -25.55 3.15 -22.65 1.7 -25.3 0.25 -26.4 -4.3 -26.55 -5.6 -23.8 -5.4 -19.85 Q-4.2 -19.1 -2.7 -18.8 L-1.95 -11.9 -4.65 -11.75 -9.8 -11.65 -10.9 -13.4 -10.25 -14.2 -9.8 -14.75 -7.15 -14.5 -7.1 -17.55 -8.7 -18.2 -9.6 -19.05 -10.5 -20.0 -10.35 -21.35 -9.95 -21.55 -8.9 -22.05 -8.2 -23.6 -9.1 -24.65 -6.3 -27.75 -4.15 -28.95 -4.1 -28.9 0.75 -28.95 1.9 -28.65 M3.25 -15.35 Q1.15 -13.5 -0.6 -12.55 L-0.75 -14.15 0.3 -15.1 0.05 -16.7 -1.0 -16.65 -1.3 -18.65 1.85 -19.0 3.25 -15.35 M-11.55 -24.65 L-12.2 -24.25 -14.55 -25.6 -14.65 -31.95 -11.8 -35.3 -8.4 -34.65 -8.55 -33.5 -8.75 -31.85 -10.85 -30.6 -11.7 -27.5 -10.7 -25.75 -11.55 -24.65" fill="#666666" fill-rule="evenodd" stroke="none"/>
    <path d="M1.9 -28.65 L0.75 -28.95 -4.1 -28.9 -4.15 -28.95 -7.25 -30.05 -8.75 -31.85 -8.55 -33.5 -6.0 -32.65 -1.45 -32.35 1.9 -28.65" fill="#182f3d" fill-rule="evenodd" stroke="none"/>
    <path d="M-4.15 -28.95 L-6.3 -27.75 -9.1 -24.65 -8.2 -23.6 -8.9 -22.05 -9.95 -21.55 -11.55 -24.65 -10.7 -25.75 -11.7 -27.5 -10.85 -30.6 -8.75 -31.85 -7.25 -30.05 -4.15 -28.95 M-9.6 -19.05 L-8.7 -18.2 -7.1 -17.55 -7.15 -14.5 -9.8 -14.75 -10.25 -14.2 -10.8 -16.65 -9.6 -19.05" fill="#333333" fill-rule="evenodd" stroke="none"/>
    <path d="M-10.25 -14.2 L-10.9 -13.4 -9.8 -11.65 -4.65 -11.75 -1.95 -11.9 -2.7 -18.8 Q-4.2 -19.1 -5.4 -19.85 L-5.6 -23.8 -4.3 -26.55 0.25 -26.4 1.7 -25.3 3.15 -22.65 5.3 -25.55 4.15 -28.1 1.9 -28.65 0.75 -28.95 -4.1 -28.9 -4.15 -28.95 -6.3 -27.75 -9.1 -24.65 -8.2 -23.6 -8.9 -22.05 -9.95 -21.55 -10.35 -21.35 -10.5 -20.0 -9.6 -19.05 -8.7 -18.2 -7.1 -17.55 -7.15 -14.5 -9.8 -14.75 -10.25 -14.2 -10.8 -16.65 -9.6 -19.05 M3.25 -15.35 Q1.15 -13.5 -0.6 -12.55 L-0.75 -14.15 0.3 -15.1 0.05 -16.7 -1.0 -16.65 -1.3 -18.65 1.85 -19.0 3.25 -15.35 M-11.55 -24.65 L-12.2 -24.25 -14.55 -25.6 -14.65 -31.95 -11.8 -35.3 -8.4 -34.65 -8.55 -33.5 -6.0 -32.65 -1.45 -32.35 1.9 -28.65 M-8.75 -31.85 L-10.85 -30.6 -11.7 -27.5 -10.7 -25.75 -11.55 -24.65 -9.95 -21.55 M-8.75 -31.85 L-8.55 -33.5 M-4.15 -28.95 L-7.25 -30.05 -8.75 -31.85" fill="none" stroke="#141c1f" stroke-linecap="round" stroke-linejoin="round" stroke-width="1.0"/>
  </g>
</svg>
