<?xml version="1.0" encoding="UTF-8" standalone="no"?>
<svg xmlns:ffdec="https://www.free-decompiler.com/flash" xmlns:xlink="http://www.w3.org/1999/xlink" ffdec:objectType="shape" height="33.3px" width="86.7px" xmlns="http://www.w3.org/2000/svg">
  <g transform="matrix(1.0, 0.0, 0.0, 1.0, 11.9, 4.4)">
    <path d="M74.8 12.25 Q74.8 19.15 62.1 24.0 49.4 28.9 31.45 28.9 13.5 28.9 0.8 24.0 -11.9 19.15 -11.9 12.25 -11.9 5.35 0.8 0.5 13.5 -4.4 31.45 -4.4 49.4 -4.4 62.1 0.5 74.8 5.35 74.8 12.25" fill="url(#gradient0)" fill-rule="evenodd" stroke="none"/>
    <path d="M43.55 19.2 L36.9 19.2 34.1 17.05 23.25 18.25 21.35 19.65 17.5 20.6 15.7 21.65 14.45 20.55 15.9 18.9 Q14.6 18.75 12.95 17.75 L14.1 16.5 Q15.1 17.3 16.5 17.3 18.1 17.3 19.25 16.2 20.4 15.05 20.4 13.4 20.4 11.8 19.25 10.65 18.1 9.5 16.5 9.5 14.85 9.5 13.75 10.65 12.6 11.8 12.6 13.4 L12.6 13.65 12.75 14.55 11.05 14.55 10.95 13.65 10.95 13.4 Q10.95 12.35 11.3 11.45 L8.45 8.4 9.35 7.2 10.75 7.2 11.6 6.35 9.7 4.65 9.7 3.15 11.35 3.15 16.8 4.55 19.4 6.7 23.75 8.55 25.0 10.75 25.2 11.75 48.05 12.95 49.9 11.9 58.2 14.3 54.8 16.4 50.95 18.05 43.55 19.2 M32.7 8.55 L33.5 7.65 35.85 7.65 37.05 8.55 39.55 8.55 40.05 7.5 Q45.45 9.25 46.65 11.4 L27.55 10.25 26.25 8.3 24.45 6.7 28.3 7.55 29.65 8.55 32.7 8.55" fill="#ffffff" fill-rule="evenodd" stroke="none"/>
    <path d="M43.55 19.2 L36.9 19.2 34.1 17.05 23.25 18.25 21.35 19.65 17.5 20.6 15.7 21.65 14.45 20.55 15.9 18.9 Q14.6 18.75 12.95 17.75 L14.1 16.5 Q15.1 17.3 16.5 17.3 18.1 17.3 19.25 16.2 20.4 15.05 20.4 13.4 20.4 11.8 19.25 10.65 18.1 9.5 16.5 9.5 14.85 9.5 13.75 10.65 12.6 11.8 12.6 13.4 L12.6 13.65 12.75 14.55 11.05 14.55 10.95 13.65 10.95 13.4 Q10.95 12.35 11.3 11.45 L8.45 8.4 9.35 7.2 10.75 7.2 11.6 6.35 9.7 4.65 9.7 3.15 11.35 3.15 16.8 4.55 19.4 6.7 23.75 8.55 25.0 10.75 25.2 11.75 48.05 12.95 49.9 11.9 58.2 14.3 54.8 16.4 50.95 18.05 43.55 19.2 M22.65 14.25 L37.4 15.2 39.7 16.65 42.05 16.65 Q46.3 16.3 49.25 14.9 M32.7 8.55 L29.65 8.55 28.3 7.55 24.45 6.7 26.25 8.3 27.55 10.25 46.65 11.4 Q45.45 9.25 40.05 7.5 L39.55 8.55 37.05 8.55 35.85 7.65 33.5 7.65 32.7 8.55 Z" fill="none" stroke="#cccccc" stroke-linecap="round" stroke-linejoin="round" stroke-width="1.0"/>
  </g>
  <defs>
    <radialGradient cx="0" cy="0" gradientTransform="matrix(0.054, 0.0, 0.0, 0.0207, 31.4, 12.25)" gradientUnits="userSpaceOnUse" id="gradient0" r="819.2" spreadMethod="pad">
      <stop offset="0.0" stop-color="#ffffff" stop-opacity="0.49803922"/>
      <stop offset="1.0" stop-color="#ffffff" stop-opacity="0.0"/>
    </radialGradient>
  </defs>
</svg>
