<?xml version="1.0" encoding="UTF-8" standalone="no"?>
<svg xmlns:ffdec="https://www.free-decompiler.com/flash" xmlns:xlink="http://www.w3.org/1999/xlink" ffdec:objectType="shape" height="23.25px" width="16.8px" xmlns="http://www.w3.org/2000/svg">
  <g transform="matrix(1.0, 0.0, 0.0, 1.0, 0.5, 0.5)">
    <path d="M11.65 7.35 L9.3 8.2 10.6 11.65 12.55 10.95 Q12.55 9.15 11.65 7.35 M11.2 4.2 Q13.3 8.75 14.1 13.4 L10.05 14.9 8.9 12.85 6.15 12.95 Q4.4 11.8 3.95 9.55 L7.05 9.4 8.15 11.45 7.25 9.4 6.45 7.85 7.7 5.5 11.2 4.2 M14.0 15.5 L15.2 17.45 Q16.0 18.8 15.75 19.7 L15.2 19.85 13.4 20.55 Q11.05 19.3 10.65 17.4 13.55 16.8 13.95 15.7 L14.0 15.5 M2.35 7.95 Q0.55 6.75 0.2 5.25 -0.3 2.8 0.4 0.7 L3.1 1.25 3.7 2.9 4.5 6.85 3.35 8.55 2.35 7.95 M8.15 11.45 L8.9 12.85 8.15 11.45" fill="#464646" fill-rule="evenodd" stroke="none"/>
    <path d="M3.1 1.25 L6.4 0.0 7.8 1.35 9.45 2.25 11.2 4.2 7.7 5.5 6.45 7.85 7.25 9.4 7.05 9.4 3.95 9.55 3.35 8.55 4.5 6.85 3.7 2.9 3.1 1.25 M14.1 13.4 L14.0 15.5 13.95 15.7 Q13.55 16.8 10.65 17.4 L9.6 17.0 8.5 16.5 6.15 12.95 8.9 12.85 10.05 14.9 14.1 13.4 M7.8 1.35 Q5.3 1.55 3.7 2.9 5.3 1.55 7.8 1.35" fill="#2c2c2c" fill-rule="evenodd" stroke="none"/>
    <path d="M15.2 19.85 L15.1 21.0 14.65 21.8 11.8 21.7 10.7 20.95 Q10.2 20.6 9.4 18.7 L9.6 17.0 10.65 17.4 Q11.05 19.3 13.4 20.55 L15.2 19.85" fill="#2a2c27" fill-rule="evenodd" stroke="none"/>
    <path d="M11.65 7.35 Q12.55 9.15 12.55 10.95 L10.6 11.65 9.3 8.2 11.65 7.35" fill="#ffecff" fill-rule="evenodd" stroke="none"/>
    <path d="M3.1 1.25 L6.4 0.0 7.8 1.35 9.45 2.25 11.2 4.2 Q13.3 8.75 14.1 13.4 L14.0 15.5 15.2 17.45 Q16.0 18.8 15.75 19.7 L15.2 19.85 15.1 21.0 14.65 21.8 11.8 21.7 10.7 20.95 Q10.2 20.6 9.4 18.7 L9.6 17.0 8.5 16.5 6.15 12.95 Q4.4 11.8 3.95 9.55 L3.35 8.55 3.3 8.55 2.35 7.95 Q0.55 6.75 0.2 5.25 -0.3 2.8 0.4 0.7 L3.1 1.25 3.7 2.9 Q5.3 1.55 7.8 1.35 M3.35 8.55 L4.5 6.85 3.7 2.9 M3.35 8.55 L2.35 7.95 M7.25 9.4 L6.45 7.85 7.7 5.5 11.2 4.2 M7.25 9.4 L7.05 9.4 8.15 11.45 7.25 9.4 M3.95 9.55 L7.05 9.4 M6.15 12.95 L8.9 12.85 8.15 11.45 M8.9 12.85 L10.05 14.9 14.1 13.4 M14.0 15.5 L13.95 15.7 Q13.55 16.8 10.65 17.4 11.05 19.3 13.4 20.55 L15.2 19.85 M10.65 17.4 L9.6 17.0" fill="none" stroke="#21201f" stroke-linecap="round" stroke-linejoin="round" stroke-width="1.0"/>
    <path d="M11.65 7.35 L9.3 8.2 10.6 11.65 12.55 10.95 Q12.55 9.15 11.65 7.35 Z" fill="none" stroke="#ecd7ff" stroke-linecap="round" stroke-linejoin="round" stroke-width="1.0"/>
  </g>
</svg>
