<?xml version="1.0" encoding="UTF-8" standalone="no"?>
<svg xmlns:ffdec="https://www.free-decompiler.com/flash" xmlns:xlink="http://www.w3.org/1999/xlink" ffdec:objectType="shape" height="12.25px" width="10.6px" xmlns="http://www.w3.org/2000/svg">
  <g transform="matrix(1.0, 0.0, 0.0, 1.0, -16.6, -9.6)">
    <path d="M27.2 10.15 L26.85 10.65 Q24.1 13.0 22.85 13.55 L21.6 13.6 Q20.95 15.8 19.6 17.85 L18.6 19.4 Q18.0 20.35 17.75 21.05 17.5 21.85 17.1 21.85 16.7 21.95 16.6 21.45 L16.7 20.9 18.0 18.55 18.95 17.1 20.2 14.6 20.6 13.15 20.6 12.55 Q20.6 12.2 20.9 12.1 21.2 12.0 21.6 12.3 22.05 12.65 22.25 12.65 L22.85 12.45 26.05 10.0 Q26.55 9.5 27.0 9.6 L27.2 10.15" fill="#ffffff" fill-rule="evenodd" stroke="none"/>
  </g>
</svg>
