<?xml version="1.0" encoding="UTF-8" standalone="no"?>
<svg xmlns:ffdec="https://www.free-decompiler.com/flash" xmlns:xlink="http://www.w3.org/1999/xlink" ffdec:objectType="shape" height="22.55px" width="12.55px" xmlns="http://www.w3.org/2000/svg">
  <g transform="matrix(1.0, 0.0, 0.0, 1.0, 4.0, 0.5)">
    <path d="M4.85 3.65 L1.85 2.65 -3.5 4.95 -3.45 2.0 Q-1.45 0.25 0.05 0.05 1.65 -0.15 3.45 1.15 L4.85 3.65 M-3.2 7.4 L1.35 5.4 5.8 7.1 6.8 10.4 6.65 11.75 5.6 12.0 1.05 11.65 -2.3 9.75 Q-2.95 8.65 -3.2 7.4" fill="#152026" fill-rule="evenodd" stroke="none"/>
    <path d="M-3.5 4.95 L1.85 2.65 4.85 3.65 5.8 7.1 1.35 5.4 -3.2 7.4 -3.5 4.95" fill="#26353e" fill-rule="evenodd" stroke="none"/>
    <path d="M7.75 19.0 L7.1 21.1 Q5.15 22.95 2.85 17.45 L3.05 15.4 3.5 15.55 Q5.2 15.75 6.15 17.75 6.9 19.75 7.75 19.0" fill="#121718" fill-rule="evenodd" stroke="none"/>
    <path d="M5.6 12.0 L7.9 17.05 Q8.2 17.8 7.9 18.75 L7.75 19.0 Q6.9 19.75 6.15 17.75 5.2 15.75 3.5 15.55 L3.05 15.4 Q1.75 15.2 1.45 14.5 1.05 13.7 1.05 11.65 L5.6 12.0" fill="#26353e" fill-rule="evenodd" stroke="none"/>
    <path d="M1.85 2.65 L4.85 3.65 3.45 1.15 Q1.65 -0.15 0.05 0.05 -1.45 0.25 -3.45 2.0 L-3.5 4.95 1.85 2.65 M-3.5 4.95 L-3.2 7.4 1.35 5.4 5.8 7.1 4.85 3.65 M5.8 7.1 L6.8 10.4 6.65 11.75 5.6 12.0 7.9 17.05 Q8.2 17.8 7.9 18.75 L7.75 19.0 7.1 21.1 Q5.15 22.95 2.85 17.45 L3.05 15.4 Q1.75 15.2 1.45 14.5 1.05 13.7 1.05 11.65 L-2.3 9.75 Q-2.95 8.65 -3.2 7.4 M3.05 15.4 L3.5 15.55 Q5.2 15.75 6.15 17.75 6.9 19.75 7.75 19.0 M1.05 11.65 L5.6 12.0" fill="none" stroke="#070a0a" stroke-linecap="round" stroke-linejoin="round" stroke-width="1.0"/>
  </g>
</svg>
