<?xml version="1.0" encoding="UTF-8" standalone="no"?>
<svg xmlns:ffdec="https://www.free-decompiler.com/flash" xmlns:xlink="http://www.w3.org/1999/xlink" ffdec:objectType="shape" height="6.15px" width="11.7px" xmlns="http://www.w3.org/2000/svg">
  <g transform="matrix(1.0, 0.0, 0.0, 1.0, -32.55, -14.9)">
    <path d="M40.85 17.65 L41.45 17.4 43.05 16.6 43.6 16.35 44.15 16.5 44.1 17.1 43.6 17.5 42.0 18.25 41.6 18.45 41.25 18.85 39.4 20.75 Q38.8 21.15 38.4 21.05 L37.85 20.65 37.45 20.1 36.75 19.4 36.2 18.6 Q35.4 17.45 34.6 16.9 L33.5 17.1 33.1 17.1 32.7 16.8 32.6 16.5 32.6 15.7 Q32.7 15.1 33.1 14.95 L33.55 15.0 33.8 15.3 33.7 15.75 33.6 16.15 34.9 16.0 35.4 16.25 36.55 17.45 37.15 18.3 37.8 19.1 38.65 20.0 Q39.8 19.4 40.5 18.15 L40.85 17.65" fill="#ffffff" fill-rule="evenodd" stroke="none"/>
  </g>
</svg>
