<?xml version="1.0" encoding="UTF-8" standalone="no"?>
<svg xmlns:xlink="http://www.w3.org/1999/xlink" height="28.3px" width="22.85px" xmlns="http://www.w3.org/2000/svg">
  <g transform="matrix(1.0, 0.0, 0.0, 1.0, 13.7, 30.3)">
    <path d="M5.4 -21.7 L6.0 -22.75 7.8 -19.7 8.65 -17.1 Q8.75 -15.6 7.9 -14.05 6.95 -12.25 5.25 -11.5 L4.8 -11.9 2.7 -13.9 1.2 -15.95 -0.45 -15.95 1.2 -15.95 2.7 -13.9 1.3 -13.35 -0.45 -14.3 -0.45 -15.95 -1.3 -16.4 -0.4 -18.05 -1.3 -16.4 -4.95 -16.0 -6.3 -14.95 -6.5 -14.7 -9.9 -13.95 -10.6 -15.6 -9.4 -16.1 -9.3 -17.8 -7.95 -18.8 -8.35 -20.7 -9.25 -20.8 -9.15 -23.55 -8.3 -23.5 -7.6 -25.3 -8.75 -26.5 -8.6 -28.25 -10.6 -29.05 Q-9.4 -29.85 -7.1 -29.8 -5.75 -28.55 -1.4 -27.95 L-1.85 -27.35 Q-3.05 -26.75 -3.85 -24.5 L-3.9 -24.45 -3.65 -20.7 -4.7 -19.05 -7.95 -18.8 -4.7 -19.05 -3.65 -20.7 -0.4 -18.05 Q1.5 -19.25 1.95 -20.5 L4.3 -19.85 5.4 -21.7 M5.7 -14.3 L4.15 -16.05 4.85 -17.95 4.15 -16.05 5.7 -14.3 M-6.2 -9.35 L-7.65 -9.1 -7.85 -11.35 -6.15 -11.7 -5.55 -11.85 -4.6 -14.15 -2.45 -14.15 -1.45 -11.2 -3.5 -10.7 -3.95 -9.8 -6.2 -9.35 M-6.0 -24.5 L-6.6 -23.5 -6.0 -24.5 M-4.6 -26.8 L-5.15 -25.8 -4.6 -26.8" fill="#cccccc" fill-rule="evenodd" stroke="none"/>
    <path d="M5.0 -22.3 L5.0 -22.25 5.4 -21.7 4.3 -19.85 1.95 -20.5 Q1.5 -19.25 -0.4 -18.05 L-3.65 -20.7 -3.9 -24.45 -3.85 -24.5 -3.4 -24.65 Q0.55 -25.5 4.95 -22.35 L5.0 -22.3 M-1.3 -16.4 L-0.45 -15.95 -0.45 -14.3 1.3 -13.35 2.7 -13.9 4.8 -11.9 Q4.25 -10.65 4.6 -6.6 3.55 -7.3 2.15 -7.85 L2.1 -7.9 2.0 -7.95 Q0.2 -8.6 -1.55 -8.65 L-4.15 -8.5 -6.25 -7.95 -6.2 -9.35 -3.95 -9.8 -3.5 -10.7 -1.45 -11.2 -2.45 -14.15 -4.6 -14.15 -5.55 -11.85 -6.15 -11.7 -6.3 -14.95 -4.95 -16.0 -1.3 -16.4 M-0.05 -24.65 Q2.85 -22.9 4.3 -19.85 L5.05 -22.0 -0.05 -24.65 M2.25 -9.5 L2.0 -7.95 2.25 -9.5 M-4.4 -9.05 L-4.15 -8.5 -4.4 -9.05" fill="#dae0e5" fill-rule="evenodd" stroke="none"/>
    <path d="M6.0 -22.75 L5.0 -22.3 4.95 -22.35 Q0.55 -25.5 -3.4 -24.65 L-3.85 -24.5 Q-3.05 -26.75 -1.85 -27.35 L-0.75 -27.35 Q1.5 -27.05 4.0 -24.9 L6.0 -22.75" fill="#7aa1bc" fill-rule="evenodd" stroke="none"/>
    <path d="M5.05 -22.0 L4.3 -19.85 Q2.85 -22.9 -0.05 -24.65 L5.05 -22.0" fill="#ba7b8e" fill-rule="evenodd" stroke="none"/>
    <path d="M-10.6 -15.6 L-11.7 -17.15 Q-12.8 -19.1 -12.95 -20.1 L-11.3 -21.0 -11.15 -23.65 -12.95 -24.75 Q-12.5 -27.6 -10.65 -29.05 L-10.6 -29.05 -8.6 -28.25 -8.75 -26.5 -7.6 -25.3 -8.3 -23.5 -9.15 -23.55 -9.25 -20.8 -8.35 -20.7 -7.95 -18.8 -9.3 -17.8 -9.4 -16.1 -10.6 -15.6 M-9.25 -20.8 L-9.3 -20.8 -11.3 -21.0 -9.3 -20.8 -9.25 -20.8 M-9.15 -23.55 L-11.15 -23.65 -9.15 -23.55" fill="#666666" fill-rule="evenodd" stroke="none"/>
    <path d="M-12.95 -20.1 Q-13.4 -22.5 -12.95 -24.75 L-11.15 -23.65 -11.3 -21.0 -12.95 -20.1" fill="#3cbbe5" fill-rule="evenodd" stroke="none"/>
    <path d="M5.4 -21.7 L6.0 -22.75 M5.4 -21.7 L4.3 -19.85 1.95 -20.5 Q1.5 -19.25 -0.4 -18.05 L-1.3 -16.4 -0.45 -15.95 -0.45 -14.3 1.3 -13.35 2.7 -13.9 4.8 -11.9 5.25 -11.5 M-1.85 -27.35 Q-3.05 -26.75 -3.85 -24.5 L-3.9 -24.45 -3.65 -20.7 -0.4 -18.05 M-6.3 -14.95 L-6.5 -14.7 M-1.4 -27.95 L-1.85 -27.35 M-1.3 -16.4 L-4.95 -16.0 -6.3 -14.95 M-5.55 -11.85 L-4.6 -14.15 -2.45 -14.15 -1.45 -11.2 -3.5 -10.7 -3.95 -9.8" fill="none" stroke="#4b4b4b" stroke-linecap="round" stroke-linejoin="round" stroke-width="1.0"/>
    <path d="M5.25 -11.5 Q6.95 -12.25 7.9 -14.05 8.75 -15.6 8.65 -17.1 L7.8 -19.7 6.0 -22.75 M-6.2 -9.35 L-7.65 -9.1 -7.85 -11.35 -6.15 -11.7 -5.55 -11.85 M-6.5 -14.7 L-9.9 -13.95 -10.6 -15.6 M-10.6 -29.05 Q-9.4 -29.85 -7.1 -29.8 -5.75 -28.55 -1.4 -27.95 M-7.95 -18.8 L-4.7 -19.05 -3.65 -20.7 M-3.95 -9.8 L-6.2 -9.35" fill="none" stroke="#777777" stroke-linecap="butt" stroke-linejoin="round" stroke-width="1.0"/>
    <path d="M5.0 -22.3 L5.0 -22.25 5.4 -21.7 M4.95 -22.35 L5.0 -22.3 M4.8 -11.9 Q4.25 -10.65 4.6 -6.6 M-6.25 -7.95 L-6.2 -9.35 M-6.15 -11.7 L-6.3 -14.95" fill="none" stroke="#626470" stroke-linecap="round" stroke-linejoin="round" stroke-width="1.0"/>
    <path d="M5.05 -22.0 L4.3 -19.85 Q2.85 -22.9 -0.05 -24.65" fill="none" stroke="#5b3647" stroke-linecap="round" stroke-linejoin="round" stroke-width="1.0"/>
    <path d="M-0.45 -15.95 L1.2 -15.95 2.7 -13.9 M4.85 -17.95 L4.15 -16.05 5.7 -14.3 M-5.15 -25.8 L-4.6 -26.8 M-6.6 -23.5 L-6.0 -24.5" fill="none" stroke="#777777" stroke-linecap="round" stroke-linejoin="round" stroke-width="1.0"/>
    <path d="M6.0 -22.75 L5.0 -22.3 M6.0 -22.75 L4.0 -24.9 Q1.5 -27.05 -0.75 -27.35 L-1.85 -27.35 M-3.85 -24.5 L-3.4 -24.65 Q0.55 -25.5 4.95 -22.35" fill="none" stroke="#1b2134" stroke-linecap="round" stroke-linejoin="round" stroke-width="1.0"/>
    <path d="M2.0 -7.95 L2.25 -9.5 M-4.15 -8.5 L-4.4 -9.05" fill="none" stroke="#aaaec2" stroke-linecap="round" stroke-linejoin="round" stroke-width="1.0"/>
    <path d="M-10.6 -15.6 L-11.7 -17.15 Q-12.8 -19.1 -12.95 -20.1 M-12.95 -24.75 Q-12.5 -27.6 -10.65 -29.05 L-10.6 -29.05 -8.6 -28.25 -8.75 -26.5 -7.6 -25.3 -8.3 -23.5 -9.15 -23.55 -9.25 -20.8 -8.35 -20.7 -7.95 -18.8 -9.3 -17.8 -9.4 -16.1 -10.6 -15.6 M-11.3 -21.0 L-9.3 -20.8 -9.25 -20.8 M-11.15 -23.65 L-9.15 -23.55" fill="none" stroke="#373737" stroke-linecap="round" stroke-linejoin="round" stroke-width="1.0"/>
    <path d="M-12.95 -20.1 Q-13.4 -22.5 -12.95 -24.75 L-11.15 -23.65 -11.3 -21.0 -12.95 -20.1 Z" fill="none" stroke="#0f566d" stroke-linecap="round" stroke-linejoin="round" stroke-width="1.0"/>
    <path d="M5.0 -5.6 L3.25 -6.6 0.5 -7.4 -3.3 -7.1 -5.85 -6.35 -6.45 -6.1 -7.1 -5.8 Q-6.85 -7.25 -6.3 -7.8 -5.8 -8.3 -4.2 -8.8 L1.75 -9.1 4.7 -8.0 Q6.1 -7.3 5.65 -5.15 L5.0 -5.6" fill="#7aa1bc" fill-rule="evenodd" stroke="none"/>
    <path d="M-5.85 -6.35 L-3.3 -7.1 0.5 -7.4 3.25 -6.6 5.0 -5.6 Q3.7 -1.85 -0.65 -2.0 -5.1 -2.2 -5.85 -6.35" fill="url(#gradient0)" fill-rule="evenodd" stroke="none"/>
    <path d="M5.0 -5.6 L3.25 -6.6 0.5 -7.4 -3.3 -7.1 -5.85 -6.35 -6.45 -6.1 -7.1 -5.8 Q-6.85 -7.25 -6.3 -7.8 -5.8 -8.3 -4.2 -8.8 L1.75 -9.1 4.7 -8.0 Q6.1 -7.3 5.65 -5.15 L5.0 -5.6 Z" fill="none" stroke="#40566b" stroke-linecap="round" stroke-linejoin="round" stroke-width="1.0"/>
  </g>
  <defs>
    <linearGradient gradientTransform="matrix(-9.0E-4, -0.0077, -0.0069, 0.001, -1.45, -0.45)" gradientUnits="userSpaceOnUse" id="gradient0" spreadMethod="pad" x1="-819.2" x2="819.2">
      <stop offset="0.0" stop-color="#495d7c"/>
      <stop offset="0.0784313725490196" stop-color="#526988"/>
      <stop offset="0.2901960784313726" stop-color="#63829f"/>
      <stop offset="0.4980392156862745" stop-color="#7093af"/>
      <stop offset="0.7294117647058823" stop-color="#789eb9"/>
      <stop offset="1.0" stop-color="#7aa1bc"/>
    </linearGradient>
  </defs>
</svg>
