<?xml version="1.0" encoding="UTF-8" standalone="no"?>
<svg xmlns:ffdec="https://www.free-decompiler.com/flash" xmlns:xlink="http://www.w3.org/1999/xlink" ffdec:objectType="shape" height="22.5px" width="12.4px" xmlns="http://www.w3.org/2000/svg">
  <g transform="matrix(1.0, 0.0, 0.0, 1.0, 3.95, 0.45)">
    <path d="M-3.2 7.4 L1.4 5.4 5.85 7.05 6.7 10.4 6.6 11.75 5.6 12.05 1.05 11.7 -2.3 9.7 Q-2.95 8.6 -3.2 7.4 M4.85 3.7 L1.9 2.65 -3.5 4.9 -3.45 1.95 Q-1.4 0.25 0.1 0.0 1.7 -0.1 3.5 1.2 L4.85 3.7" fill="#1d1616" fill-rule="evenodd" stroke="none"/>
    <path d="M-3.5 4.9 L1.9 2.65 4.85 3.7 5.85 7.05 1.4 5.4 -3.2 7.4 -3.5 4.9" fill="#2a1f1f" fill-rule="evenodd" stroke="none"/>
    <path d="M7.7 19.0 L7.0 21.2 Q5.0 22.95 2.75 17.45 L2.95 15.4 3.5 15.5 Q5.15 15.75 6.05 17.8 6.8 19.75 7.7 19.0" fill="#121718" fill-rule="evenodd" stroke="none"/>
    <path d="M5.6 12.05 L7.85 17.1 Q8.15 17.85 7.8 18.8 L7.7 19.0 Q6.8 19.75 6.05 17.8 5.15 15.75 3.5 15.5 L2.95 15.4 Q1.65 15.15 1.4 14.45 1.0 13.65 1.05 11.7 L5.6 12.05" fill="#2a1f1f" fill-rule="evenodd" stroke="none"/>
    <path d="M5.85 7.05 L4.85 3.7 1.9 2.65 -3.5 4.9 -3.2 7.4 1.4 5.4 5.85 7.05 6.7 10.4 6.6 11.75 5.6 12.05 7.85 17.1 Q8.15 17.85 7.8 18.8 L7.7 19.0 7.0 21.2 Q5.0 22.95 2.75 17.45 L2.95 15.4 Q1.65 15.15 1.4 14.45 1.0 13.65 1.05 11.7 L-2.3 9.7 Q-2.95 8.6 -3.2 7.4 M4.85 3.7 L3.5 1.2 Q1.7 -0.1 0.1 0.0 -1.4 0.25 -3.45 1.95 L-3.5 4.9 M2.95 15.4 L3.5 15.5 Q5.15 15.75 6.05 17.8 6.8 19.75 7.7 19.0 M1.05 11.7 L5.6 12.05" fill="none" stroke="#0a0707" stroke-linecap="round" stroke-linejoin="round" stroke-width="0.9500000000000001"/>
  </g>
</svg>
