<?xml version="1.0" encoding="UTF-8" standalone="no"?>
<svg xmlns:ffdec="https://www.free-decompiler.com/flash" xmlns:xlink="http://www.w3.org/1999/xlink" ffdec:objectType="shape" height="21.05px" width="14.85px" xmlns="http://www.w3.org/2000/svg">
  <g transform="matrix(1.0, 0.0, 0.0, 1.0, 3.05, 5.25)">
    <path d="M-1.0 -3.7 Q-0.65 -4.15 0.05 -4.35 L1.15 -4.65 Q2.7 -5.05 4.7 -4.05 L6.5 -1.85 9.5 4.45 9.55 5.85 8.65 6.3 3.75 6.5 2.25 5.35 3.55 3.75 1.45 -1.65 -1.0 -3.7 M6.25 1.85 L5.3 -0.7 6.5 -1.85 5.3 -0.7 6.25 1.85" fill="url(#gradient0)" fill-rule="evenodd" stroke="none"/>
    <path d="M0.45 4.7 L-0.05 4.5 -0.6 3.6 -1.05 2.25 -2.2 -1.85 -2.55 -3.05 -2.0 -3.05 -2.15 -2.95 -0.95 1.55 Q-0.9 4.05 0.45 4.7" fill="#8a8580" fill-rule="evenodd" stroke="none"/>
    <path d="M1.05 4.9 L0.9 4.85 0.45 4.7 Q-0.9 4.05 -0.95 1.55 L-2.15 -2.95 -2.0 -3.05 -1.65 -3.2 -1.0 -3.7 Q-1.4 -3.1 1.05 4.9" fill="#615e57" fill-rule="evenodd" stroke="none"/>
    <path d="M2.25 5.35 L1.05 4.9 Q-1.4 -3.1 -1.0 -3.7 L1.45 -1.65 3.55 3.75 2.25 5.35" fill="url(#gradient1)" fill-rule="evenodd" stroke="none"/>
    <path d="M8.65 6.3 Q9.55 6.9 8.75 8.6 6.5 8.8 6.85 13.55 3.2 11.5 3.75 6.5 L8.65 6.3" fill="url(#gradient2)" fill-rule="evenodd" stroke="none"/>
    <path d="M8.75 8.6 Q12.1 11.75 11.05 14.2 10.0 16.65 6.85 13.55 6.5 8.8 8.75 8.6" fill="#333333" fill-rule="evenodd" stroke="none"/>
    <path d="M-1.0 -3.7 Q-0.65 -4.15 0.05 -4.35 L1.15 -4.65 Q2.7 -5.05 4.7 -4.05 L6.5 -1.85 9.5 4.45 9.55 5.85 8.65 6.3 Q9.55 6.9 8.75 8.6 12.1 11.75 11.05 14.2 10.0 16.65 6.85 13.55 3.2 11.5 3.75 6.5 L2.25 5.35 1.05 4.9 0.9 4.85 0.45 4.7 -0.05 4.5 -0.6 3.6 -2.2 -1.85 -2.55 -3.05 -2.0 -3.05 -1.65 -3.2 -1.0 -3.7 1.45 -1.65 3.55 3.75 2.25 5.35 M6.5 -1.85 L5.3 -0.7 6.25 1.85 M8.65 6.3 L3.75 6.5 M6.85 13.55 Q6.5 8.8 8.75 8.6" fill="none" stroke="#2b2927" stroke-linecap="round" stroke-linejoin="round" stroke-width="1.0"/>
  </g>
  <defs>
    <radialGradient cx="0" cy="0" gradientTransform="matrix(0.0121, 0.0, 0.0, 0.0121, 3.45, -1.95)" gradientUnits="userSpaceOnUse" id="gradient0" r="819.2" spreadMethod="pad">
      <stop offset="0.0" stop-color="#523b40"/>
      <stop offset="1.0" stop-color="#452d33"/>
      <stop offset="1.0" stop-color="#333333"/>
      <stop offset="1.0" stop-color="#523b40"/>
      <stop offset="1.0" stop-color="#523b40"/>
      <stop offset="1.0" stop-color="#523b40"/>
    </radialGradient>
    <radialGradient cx="0" cy="0" gradientTransform="matrix(0.0064, 0.0, 0.0, 0.0064, 0.7, 1.25)" gradientUnits="userSpaceOnUse" id="gradient1" r="819.2" spreadMethod="pad">
      <stop offset="0.0" stop-color="#4d4946"/>
      <stop offset="1.0" stop-color="#3c3b38"/>
      <stop offset="1.0" stop-color="#333333"/>
    </radialGradient>
    <radialGradient cx="0" cy="0" gradientTransform="matrix(0.006, 0.0, 0.0, 0.006, 6.3, 8.7)" gradientUnits="userSpaceOnUse" id="gradient2" r="819.2" spreadMethod="pad">
      <stop offset="0.0" stop-color="#4d4946"/>
      <stop offset="1.0" stop-color="#3c3b38"/>
      <stop offset="1.0" stop-color="#333333"/>
    </radialGradient>
  </defs>
</svg>
