<?xml version="1.0" encoding="UTF-8" standalone="no"?>
<svg xmlns:ffdec="https://www.free-decompiler.com/flash" xmlns:xlink="http://www.w3.org/1999/xlink" ffdec:objectType="shape" height="6.5px" width="11.6px" xmlns="http://www.w3.org/2000/svg">
  <g transform="matrix(1.0, 0.0, 0.0, 1.0, -44.65, -9.05)">
    <path d="M53.5 10.3 L51.4 10.85 49.3 11.4 47.95 12.0 Q47.65 12.0 47.5 12.15 47.15 12.35 47.4 13.05 L47.5 13.9 Q47.45 14.5 46.8 14.95 L45.55 15.5 45.1 15.55 Q44.8 15.55 44.7 15.3 44.55 15.0 44.8 14.7 L45.6 14.4 Q46.45 14.3 46.5 13.65 L46.3 12.6 46.3 11.9 Q46.45 11.45 47.15 11.25 L49.75 10.2 52.75 9.55 53.65 9.15 Q54.2 9.0 54.6 9.15 54.9 9.25 55.2 9.65 L55.75 10.3 Q56.3 10.75 56.25 11.0 56.25 11.4 55.75 11.4 55.4 11.4 54.95 10.95 L54.65 10.55 54.45 10.25 Q54.3 10.0 53.95 10.1 L53.5 10.3" fill="#ffffff" fill-rule="evenodd" stroke="none"/>
  </g>
</svg>
