<?xml version="1.0" encoding="UTF-8" standalone="no"?>
<svg xmlns:ffdec="https://www.free-decompiler.com/flash" xmlns:xlink="http://www.w3.org/1999/xlink" ffdec:objectType="shape" height="22.85px" width="15.05px" xmlns="http://www.w3.org/2000/svg">
  <g transform="matrix(1.0, 0.0, 0.0, 1.0, 3.75, 3.95)">
    <path d="M3.7 -0.9 L5.1 -1.15 Q6.85 -0.5 7.05 0.35 L7.75 2.45 7.65 2.55 Q8.95 7.35 9.5 8.0 L8.55 8.45 9.5 8.0 9.7 7.85 10.15 9.45 Q10.2 10.5 9.65 11.15 L8.7 11.95 7.65 12.35 5.85 12.65 3.2 6.3 3.0 4.9 Q4.05 4.3 4.35 2.1 L3.7 -0.9" fill="url(#gradient0)" fill-rule="evenodd" stroke="none"/>
    <path d="M-2.5 -1.85 L-2.05 -3.15 2.1 -2.95 3.7 -0.9 4.35 2.1 Q4.05 4.3 3.0 4.9 L1.55 5.1 Q2.55 3.7 2.9 1.95 2.8 -0.05 1.3 -1.65 L-2.5 -1.85" fill="url(#gradient1)" fill-rule="evenodd" stroke="none"/>
    <path d="M-0.1 5.3 L-0.85 5.25 -1.25 4.75 -2.35 3.2 -2.85 2.1 -2.95 1.6 -3.2 0.1 Q-3.4 -0.5 -2.5 -1.85 L1.3 -1.65 Q2.8 -0.05 2.9 1.95 2.55 3.7 1.55 5.1 L0.7 5.45 -0.1 5.3 M-0.6 1.65 L-2.85 2.1 -0.6 1.65" fill="url(#gradient2)" fill-rule="evenodd" stroke="none"/>
    <path d="M7.75 2.45 L9.15 3.4 Q9.9 4.85 10.3 6.95 L10.25 7.1 9.8 6.35 Q9.65 4.75 8.45 3.2 L7.65 2.55 7.8 2.6 7.75 2.45 M9.8 7.85 L9.7 7.85 9.7 7.8 9.8 7.85" fill="#8a8580" fill-rule="evenodd" stroke="none"/>
    <path d="M7.75 2.45 L7.8 2.6 7.65 2.55 7.75 2.45 M9.7 7.85 L9.5 8.0 9.7 7.8 9.7 7.85" fill="#232323" fill-rule="evenodd" stroke="none"/>
    <path d="M10.25 7.1 L9.8 7.85 9.7 7.8 9.5 8.0 Q8.95 7.35 7.65 2.55 L8.45 3.2 Q9.65 4.75 9.8 6.35 L10.25 7.1" fill="#615e57" fill-rule="evenodd" stroke="none"/>
    <path d="M5.1 12.7 Q3.85 12.7 3.1 11.8 L0.45 7.05 -0.1 5.3 0.7 5.45 1.55 5.1 3.0 4.9 3.2 6.3 5.85 12.65 5.1 12.7" fill="url(#gradient3)" fill-rule="evenodd" stroke="none"/>
    <path d="M9.65 11.15 Q11.1 12.85 10.7 15.2 L10.25 15.25 8.85 15.35 5.7 14.05 5.1 12.7 5.85 12.65 7.65 12.35 8.7 11.95 9.65 11.15" fill="url(#gradient4)" fill-rule="evenodd" stroke="none"/>
    <path d="M10.25 15.25 L10.1 16.5 Q9.45 18.25 9.0 18.15 7.65 18.7 6.55 17.95 5.6 17.0 5.55 15.9 L5.7 14.05 8.85 15.35 10.25 15.25" fill="#333333" fill-rule="evenodd" stroke="none"/>
    <path d="M-2.5 -1.85 L-2.05 -3.15 2.1 -2.95 3.7 -0.9 5.1 -1.15 Q6.85 -0.5 7.05 0.35 L7.75 2.45 9.15 3.4 Q9.9 4.85 10.3 6.95 L10.25 7.1 9.8 7.85 9.7 7.85 10.15 9.45 Q10.2 10.5 9.65 11.15 11.1 12.85 10.7 15.2 L10.25 15.25 10.1 16.5 Q9.45 18.25 9.0 18.15 7.65 18.7 6.55 17.95 5.6 17.0 5.55 15.9 L5.7 14.05 5.1 12.7 Q3.85 12.7 3.1 11.8 L0.45 7.05 -0.1 5.3 -0.85 5.25 -1.25 4.75 -2.35 3.2 -2.85 2.1 -2.95 1.6 -3.2 0.1 Q-3.4 -0.5 -2.5 -1.85 L1.3 -1.65 Q2.8 -0.05 2.9 1.95 2.55 3.7 1.55 5.1 L3.0 4.9 Q4.05 4.3 4.35 2.1 L3.7 -0.9 M-0.1 5.3 L0.7 5.45 1.55 5.1 M5.85 12.65 L7.65 12.35 8.7 11.95 9.65 11.15 M9.5 8.0 L8.55 8.45 M9.7 7.85 L9.5 8.0 9.7 7.8 9.7 7.85 M3.0 4.9 L3.2 6.3 5.85 12.65 5.1 12.7 M5.7 14.05 L8.85 15.35 10.25 15.25" fill="none" stroke="#2b2927" stroke-linecap="round" stroke-linejoin="round" stroke-width="1.0"/>
    <path d="M-2.85 2.1 L-0.6 1.65" fill="none" stroke="#333333" stroke-linecap="round" stroke-linejoin="round" stroke-width="1.0"/>
  </g>
  <defs>
    <radialGradient cx="0" cy="0" gradientTransform="matrix(0.0087, 0.0, 0.0, 0.0087, 7.5, 5.45)" gradientUnits="userSpaceOnUse" id="gradient0" r="819.2" spreadMethod="pad">
      <stop offset="0.0" stop-color="#4f524e"/>
      <stop offset="1.0" stop-color="#373836"/>
    </radialGradient>
    <radialGradient cx="0" cy="0" gradientTransform="matrix(0.0093, 0.0, 0.0, 0.0093, 1.5, -2.2)" gradientUnits="userSpaceOnUse" id="gradient1" r="819.2" spreadMethod="pad">
      <stop offset="0.0" stop-color="#4d4946"/>
      <stop offset="1.0" stop-color="#3c3b38"/>
      <stop offset="1.0" stop-color="#333333"/>
    </radialGradient>
    <radialGradient cx="0" cy="0" gradientTransform="matrix(0.0062, 0.0, 0.0, 0.0062, -1.15, 2.1)" gradientUnits="userSpaceOnUse" id="gradient2" r="819.2" spreadMethod="pad">
      <stop offset="0.0" stop-color="#4f524e"/>
      <stop offset="1.0" stop-color="#373836"/>
    </radialGradient>
    <radialGradient cx="0" cy="0" gradientTransform="matrix(0.0061, 0.0, 0.0, 0.0061, 3.15, 9.1)" gradientUnits="userSpaceOnUse" id="gradient3" r="819.2" spreadMethod="pad">
      <stop offset="0.0" stop-color="#4d4946"/>
      <stop offset="1.0" stop-color="#3c3b38"/>
      <stop offset="1.0" stop-color="#333333"/>
    </radialGradient>
    <radialGradient cx="0" cy="0" gradientTransform="matrix(0.0041, 0.0, 0.0, 0.0041, 8.2, 13.05)" gradientUnits="userSpaceOnUse" id="gradient4" r="819.2" spreadMethod="pad">
      <stop offset="0.0" stop-color="#4d4946"/>
      <stop offset="1.0" stop-color="#3c3b38"/>
      <stop offset="1.0" stop-color="#333333"/>
    </radialGradient>
  </defs>
</svg>
