<?xml version="1.0" encoding="UTF-8" standalone="no"?>
<svg xmlns:xlink="http://www.w3.org/1999/xlink" height="27.6px" width="17.05px" xmlns="http://www.w3.org/2000/svg">
  <g transform="matrix(1.0, 0.0, 0.0, 1.0, 9.05, 28.9)">
    <path d="M-5.6 -5.95 L-5.8 -7.0 Q-6.3 -9.75 -6.9 -11.4 -7.55 -13.25 -7.75 -17.1 -7.95 -21.55 -6.95 -23.6 -4.45 -28.8 -1.2 -27.9 1.3 -27.25 2.8 -25.9 4.0 -24.85 5.55 -22.35 6.75 -20.45 6.65 -17.4 6.5 -15.0 5.55 -11.55 5.3 -10.7 5.25 -8.55 L5.2 -5.95 -5.6 -5.95" fill="url(#gradient0)" fill-rule="evenodd" stroke="none"/>
    <path d="M5.2 -5.95 L5.2 -5.3 Q5.0 -2.85 3.7 -2.2 L-0.2 -1.8 -4.2 -2.3 Q-4.65 -2.55 -4.85 -3.25 L-5.1 -4.4 -5.6 -5.95 5.2 -5.95" fill="url(#gradient1)" fill-rule="evenodd" stroke="none"/>
    <path d="M-5.6 -5.95 L-5.8 -7.0 Q-6.3 -9.75 -6.9 -11.4 -7.55 -13.25 -7.75 -17.1 -7.95 -21.55 -6.95 -23.6 -4.45 -28.8 -1.2 -27.9 1.3 -27.25 2.8 -25.9 4.0 -24.85 5.55 -22.35 6.75 -20.45 6.65 -17.4 6.5 -15.0 5.55 -11.55 5.3 -10.7 5.25 -8.55 L5.2 -5.95 5.2 -5.3 Q5.0 -2.85 3.7 -2.2 L-0.2 -1.8 -4.2 -2.3 Q-4.65 -2.55 -4.85 -3.25 L-5.1 -4.4 -5.6 -5.95 Z" fill="none" stroke="#3b3e38" stroke-linecap="round" stroke-linejoin="round" stroke-width="1.05"/>
    <path d="M-3.75 -9.25 Q-4.1 -7.65 -3.1 -5.65 L-2.0 -4.0" fill="none" stroke="#575d53" stroke-linecap="round" stroke-linejoin="round" stroke-width="1.05"/>
    <path d="M3.4 -10.6 Q2.3 -11.05 1.2 -12.1 L0.3 -13.05" fill="none" stroke="#575d53" stroke-linecap="round" stroke-linejoin="round" stroke-width="1.05"/>
    <path d="M-4.75 -19.6 Q-3.65 -18.5 -1.25 -18.2 L0.9 -18.2" fill="none" stroke="#575d53" stroke-linecap="round" stroke-linejoin="round" stroke-width="1.05"/>
    <path d="M-4.05 -25.2 L-5.55 -23.3 Q-6.35 -21.2 -6.4 -20.0 -6.5 -19.15 -6.1 -18.15 L-4.8 -14.0 -0.85 -13.6 3.0 -13.95 4.4 -17.25 Q4.65 -17.95 4.1 -20.55 3.6 -23.2 3.05 -24.0 2.45 -24.8 0.65 -25.4 -1.85 -26.2 -2.05 -26.35 -3.05 -26.25 -4.05 -25.2 M-1.25 -28.4 Q-0.65 -28.45 2.0 -27.25 4.7 -26.0 4.85 -25.4 L6.15 -23.0 Q7.3 -20.95 7.45 -19.8 7.65 -17.9 7.1 -12.85 6.6 -8.0 6.2 -7.2 5.75 -6.75 -0.5 -7.05 -6.8 -7.4 -6.9 -8.0 -8.0 -12.9 -8.3 -15.5 -9.05 -21.75 -7.35 -24.7 -6.3 -26.45 -4.5 -27.45 -3.05 -28.2 -1.25 -28.4" fill="#907b66" fill-rule="evenodd" stroke="none"/>
    <path d="M-1.25 -28.4 Q-3.05 -28.2 -4.5 -27.45 -6.3 -26.45 -7.35 -24.7 -9.05 -21.75 -8.3 -15.5 -8.0 -12.9 -6.9 -8.0 -6.8 -7.4 -0.5 -7.05 5.75 -6.75 6.2 -7.2 6.6 -8.0 7.1 -12.85 7.65 -17.9 7.45 -19.8 7.3 -20.95 6.15 -23.0 L4.85 -25.4 Q4.7 -26.0 2.0 -27.25 -0.65 -28.45 -1.25 -28.4 M-4.05 -25.2 Q-3.05 -26.25 -2.05 -26.35 -1.85 -26.2 0.65 -25.4 2.45 -24.8 3.05 -24.0 3.6 -23.2 4.1 -20.55 4.65 -17.95 4.4 -17.25 L3.0 -13.95 -0.85 -13.6 -4.8 -14.0 -6.1 -18.15 Q-6.5 -19.15 -6.4 -20.0 -6.35 -21.2 -5.55 -23.3 L-4.05 -25.2 Z" fill="none" stroke="#463c31" stroke-linecap="round" stroke-linejoin="round" stroke-width="1.05"/>
    <path d="M7.0 -11.8 L4.3 -11.9 4.0 -8.7" fill="none" stroke="#6d5d4d" stroke-linecap="round" stroke-linejoin="round" stroke-width="1.05"/>
    <path d="M-3.3 -9.55 L1.6 -9.25" fill="none" stroke="#6d5d4d" stroke-linecap="round" stroke-linejoin="round" stroke-width="1.05"/>
    <path d="M-5.4 -12.35 L-3.7 -11.35 -1.5 -11.25" fill="none" stroke="#6d5d4d" stroke-linecap="round" stroke-linejoin="round" stroke-width="1.05"/>
  </g>
  <defs>
    <linearGradient gradientTransform="matrix(0.0044, 4.0E-4, -4.0E-4, 0.0044, -2.2, -12.15)" gradientUnits="userSpaceOnUse" id="gradient0" spreadMethod="pad" x1="-819.2" x2="819.2">
      <stop offset="0.0" stop-color="#61695e"/>
      <stop offset="1.0" stop-color="#787f72"/>
    </linearGradient>
    <linearGradient gradientTransform="matrix(0.0044, 2.0E-4, -4.0E-4, 0.0019, -2.2, -8.7)" gradientUnits="userSpaceOnUse" id="gradient1" spreadMethod="pad" x1="-819.2" x2="819.2">
      <stop offset="0.0" stop-color="#61695e"/>
      <stop offset="1.0" stop-color="#787f72"/>
    </linearGradient>
  </defs>
</svg>
