<?xml version="1.0" encoding="UTF-8" standalone="no"?>
<svg xmlns:ffdec="https://www.free-decompiler.com/flash" xmlns:xlink="http://www.w3.org/1999/xlink" ffdec:objectType="shape" height="33.5px" width="30.3px" xmlns="http://www.w3.org/2000/svg">
  <g transform="matrix(1.0, 0.0, 0.0, 1.0, 17.95, 32.7)">
    <path d="M0.05 -25.7 L5.2 -26.85 5.8 -28.35 7.45 -26.9 8.15 -25.15 6.9 -23.75 8.1 -21.05 10.65 -19.45 11.7 -19.2 11.85 -14.35 9.0 -14.4 7.95 -14.45 3.4 -16.05 1.95 -17.9 1.75 -19.4 -0.05 -21.4 -2.3 -21.95 -3.95 -21.0 -4.4 -17.75 -6.85 -18.55 -8.85 -19.8 -10.0 -20.5 -9.6 -22.2 -12.8 -21.05 -13.15 -18.15 -12.7 -14.3 -9.85 -11.6 -9.85 -10.05 -10.55 -10.1 -11.3 -10.2 -13.3 -8.95 -14.25 -7.25 Q-15.95 -9.45 -16.75 -12.05 -17.45 -14.65 -17.15 -17.05 L-15.85 -17.5 -15.75 -19.5 -17.45 -20.9 Q-16.35 -27.55 -12.8 -28.3 L-12.55 -27.55 -12.3 -26.85 -10.8 -25.9 -8.8 -25.7 -7.7 -26.65 -4.5 -27.05 -3.65 -25.9 0.05 -25.7 M8.2 -12.45 L9.7 -12.1 9.1 -6.45 6.25 -6.15 3.35 -5.9 -0.85 -8.4 -0.4 -11.75 4.4 -13.3 8.2 -12.45 M7.25 -5.35 L7.9 -3.65 6.55 -0.85 5.25 -1.15 4.0 -1.45 3.55 -4.35 7.25 -5.35 M-4.9 -1.25 L-7.1 -1.35 -9.35 -2.9 -9.65 -5.45 -10.3 -7.05 -8.85 -8.1 -6.65 -7.5 -5.55 -5.3 -2.8 -4.7 -1.6 -6.2 1.5 -4.95 1.7 -2.05 -1.75 -1.05 -4.9 -1.25 M4.75 -11.8 L5.6 -11.6 4.75 -11.8 M4.85 -10.4 L5.2 -10.3 4.85 -10.4 M-5.85 -22.75 L-5.45 -24.05 -7.35 -24.85 -7.8 -23.35 -5.85 -22.75 M-6.0 -21.45 L-8.05 -22.2 -8.15 -20.8 -6.15 -20.05 -6.0 -21.45 M-7.7 -15.95 L-4.85 -15.75 -3.9 -14.05 -2.05 -12.6 -2.5 -8.85 -7.95 -9.8 -6.9 -13.15 -7.7 -15.95 M-11.05 -24.1 L-11.7 -24.35 -12.2 -23.35 -12.75 -22.4 -12.2 -23.35 -13.35 -23.7 -12.2 -23.35 -11.7 -24.35 -13.9 -25.3 -11.7 -24.35 -11.05 -24.1 M-8.8 -25.7 L-9.6 -22.2 -8.8 -25.7" fill="#ffffff" fill-rule="evenodd" stroke="none"/>
    <path d="M9.0 -14.4 L8.2 -12.45 4.4 -13.3 -0.4 -11.75 -0.85 -8.4 3.35 -5.9 6.25 -6.15 7.25 -5.35 3.55 -4.35 4.0 -1.45 5.25 -1.15 2.55 0.25 -2.9 0.3 -4.9 -1.25 -1.75 -1.05 1.7 -2.05 1.5 -4.95 -1.6 -6.2 -2.8 -4.7 -5.55 -5.3 -6.65 -7.5 -8.85 -8.1 -10.55 -10.1 -9.85 -10.05 -9.85 -11.6 -8.65 -13.3 -8.85 -19.8 -6.85 -18.55 -4.4 -17.75 -3.95 -21.0 -2.3 -21.95 -0.05 -21.4 1.75 -19.4 1.95 -17.9 3.4 -16.05 7.95 -14.45 9.0 -14.4 M-7.7 -15.95 L-6.9 -13.15 -7.95 -9.8 -2.5 -8.85 -2.05 -12.6 -3.9 -14.05 -4.85 -15.75 -7.7 -15.95" fill="#333333" fill-rule="evenodd" stroke="none"/>
    <path d="M-12.55 -27.55 L-10.8 -28.2 -9.3 -29.35 -6.85 -29.2 -5.4 -28.25 -4.5 -27.05 -7.7 -26.65 -8.8 -25.7 -10.8 -25.9 -12.3 -26.85 -12.55 -27.55" fill="#666666" fill-rule="evenodd" stroke="none"/>
    <path d="M-7.0 -31.7 L-5.7 -31.25 -3.8 -29.55 -2.45 -27.8 0.05 -25.7 -3.65 -25.9 -4.5 -27.05 -5.4 -28.25 -6.85 -29.2 -9.3 -29.35 -9.05 -31.5 -8.3 -32.2 -7.0 -31.7 M7.45 -26.9 L9.1 -25.55 10.25 -22.85 10.65 -19.45 8.1 -21.05 6.9 -23.75 8.15 -25.15 7.45 -26.9 M-8.85 -19.8 L-8.65 -13.3 -9.85 -11.6 -12.7 -14.3 -13.15 -18.15 -12.8 -21.05 -9.6 -22.2 -10.0 -20.5 -8.85 -19.8 M-10.1 -14.2 L-11.6 -15.45 -10.1 -14.2 M-10.1 -18.4 L-11.7 -20.0 -10.1 -18.4 M-10.1 -16.25 L-11.95 -17.95 -10.1 -16.25" fill="#cccccc" fill-rule="evenodd" stroke="none"/>
    <path d="M-2.45 -27.8 L2.4 -28.35 2.9 -29.75 4.05 -29.85 5.3 -30.0 5.8 -28.35 5.2 -26.85 0.05 -25.7 -2.45 -27.8" fill="#999999" fill-rule="evenodd" stroke="none"/>
    <path d="M-5.85 -22.75 L-7.8 -23.35 -7.35 -24.85 -5.45 -24.05 -5.85 -22.75 M-6.0 -21.45 L-6.15 -20.05 -8.15 -20.8 -8.05 -22.2 -6.0 -21.45" fill="#00ccff" fill-rule="evenodd" stroke="none"/>
    <path d="M4.05 -29.85 L2.9 -29.75 2.4 -28.35 -2.45 -27.8 -3.8 -29.55 -5.7 -31.25 -7.0 -31.7 -4.7 -32.15 -1.4 -32.55 2.75 -31.65 4.05 -29.85" fill="#000000" fill-rule="evenodd" stroke="none"/>
    <path d="M-12.55 -27.55 L-10.8 -28.2 -9.3 -29.35 -6.85 -29.2 -5.4 -28.25 -4.5 -27.05 -7.7 -26.65 -8.8 -25.7 -10.8 -25.9 -12.3 -26.85 -12.55 -27.55 M-8.85 -19.8 L-8.65 -13.3 -9.85 -11.6 -9.85 -10.05 -10.55 -10.1 M-8.85 -19.8 L-10.0 -20.5 -9.6 -22.2 -12.8 -21.05 -13.15 -18.15 -12.7 -14.3 -9.85 -11.6 M-9.6 -22.2 L-8.8 -25.7" fill="none" stroke="#4d4d4d" stroke-linecap="round" stroke-linejoin="round" stroke-width="1.0"/>
    <path d="M-11.95 -17.95 L-10.1 -16.25 M-11.7 -20.0 L-10.1 -18.4 M-11.6 -15.45 L-10.1 -14.2" fill="none" stroke="#333333" stroke-linecap="round" stroke-linejoin="round" stroke-width="1.0"/>
    <path d="M7.45 -26.9 L9.1 -25.55 10.25 -22.85 10.65 -19.45" fill="none" stroke="#555555" stroke-linecap="round" stroke-linejoin="round" stroke-width="1.0"/>
    <path d="M5.2 -10.3 L4.85 -10.4 M5.6 -11.6 L4.75 -11.8 M-12.75 -22.4 L-12.2 -23.35 -13.35 -23.7 M-12.2 -23.35 L-11.7 -24.35 -13.9 -25.3 M-11.7 -24.35 L-11.05 -24.1" fill="none" stroke="#808080" stroke-linecap="round" stroke-linejoin="round" stroke-width="1.0"/>
    <path d="M-2.45 -27.8 L2.4 -28.35 2.9 -29.75 4.05 -29.85 5.3 -30.0 5.8 -28.35 7.45 -26.9 8.15 -25.15 6.9 -23.75 8.1 -21.05 10.65 -19.45 11.7 -19.2 11.85 -14.35 9.0 -14.4 7.95 -14.45 3.4 -16.05 1.95 -17.9 1.75 -19.4 -0.05 -21.4 -2.3 -21.95 -3.95 -21.0 -4.4 -17.75 -6.85 -18.55 -8.85 -19.8 M-7.0 -31.7 L-5.7 -31.25 -3.8 -29.55 -2.45 -27.8 0.05 -25.7 5.2 -26.85 5.8 -28.35 M8.2 -12.45 L9.7 -12.1 9.1 -6.45 6.25 -6.15 7.25 -5.35 7.9 -3.65 6.55 -0.85 5.25 -1.15 4.0 -1.45 3.55 -4.35 7.25 -5.35 M-4.9 -1.25 L-7.1 -1.35 -9.35 -2.9 -9.65 -5.45 -10.3 -7.05 -8.85 -8.1 -6.65 -7.5 -5.55 -5.3 -2.8 -4.7 -1.6 -6.2 1.5 -4.95 1.7 -2.05 -1.75 -1.05 -4.9 -1.25 M-10.55 -10.1 L-11.3 -10.2 -13.3 -8.95 -14.25 -7.25 Q-15.95 -9.45 -16.75 -12.05 -17.45 -14.65 -17.15 -17.05 L-15.85 -17.5 -15.75 -19.5 -17.45 -20.9 Q-16.35 -27.55 -12.8 -28.3 L-12.55 -27.55 M-9.3 -29.35 L-9.05 -31.5 -8.3 -32.2 -7.0 -31.7 M8.2 -12.45 L4.4 -13.3 -0.4 -11.75 -0.85 -8.4 3.35 -5.9 6.25 -6.15 M-4.5 -27.05 L-3.65 -25.9 0.05 -25.7 M-7.7 -15.95 L-4.85 -15.75 -3.9 -14.05 -2.05 -12.6 -2.5 -8.85 -7.95 -9.8 -6.9 -13.15 -7.7 -15.95" fill="none" stroke="#666666" stroke-linecap="round" stroke-linejoin="round" stroke-width="1.0"/>
    <path d="M9.0 -14.4 L8.2 -12.45 M5.25 -1.15 L2.55 0.25 -2.9 0.3 -4.9 -1.25 M-8.85 -8.1 L-10.55 -10.1" fill="none" stroke="#222222" stroke-linecap="round" stroke-linejoin="round" stroke-width="1.0"/>
    <path d="M-5.85 -22.75 L-7.8 -23.35 -7.35 -24.85 -5.45 -24.05 -5.85 -22.75 M-6.0 -21.45 L-8.05 -22.2 -8.15 -20.8 -6.15 -20.05 -6.0 -21.45 Z" fill="none" stroke="#0182a0" stroke-linecap="round" stroke-linejoin="round" stroke-width="1.0"/>
  </g>
</svg>
