<?xml version="1.0" encoding="UTF-8" standalone="no"?>
<svg xmlns:ffdec="https://www.free-decompiler.com/flash" xmlns:xlink="http://www.w3.org/1999/xlink" ffdec:objectType="shape" height="7.9px" width="10.25px" xmlns="http://www.w3.org/2000/svg">
  <g transform="matrix(1.0, 0.0, 0.0, 1.0, -6.15, -15.65)">
    <path d="M6.55 17.0 L8.3 15.85 8.75 15.65 Q9.15 15.6 9.6 16.25 L12.2 20.45 Q12.65 21.35 12.65 22.35 14.2 21.9 15.4 20.7 L15.8 20.4 Q16.15 20.3 16.3 20.55 16.55 20.9 16.3 21.25 L15.8 21.75 15.1 22.25 Q14.4 22.75 13.25 23.25 L12.25 23.55 11.8 22.8 11.25 20.75 10.45 19.4 9.75 18.45 8.95 17.05 8.75 16.9 8.4 17.0 7.5 17.6 Q6.9 18.1 6.4 18.05 L6.2 17.8 6.2 17.4 6.55 17.0" fill="#ffffff" fill-rule="evenodd" stroke="none"/>
  </g>
</svg>
