<?xml version="1.0" encoding="UTF-8" standalone="no"?>
<svg xmlns:xlink="http://www.w3.org/1999/xlink" height="26.55px" width="24.4px" xmlns="http://www.w3.org/2000/svg">
  <g transform="matrix(1.0, 0.0, 0.0, 1.0, 16.0, 29.05)">
    <path d="M-5.45 -7.25 Q-5.9 -9.95 -6.5 -11.6 -7.2 -13.45 -7.35 -17.3 -7.55 -21.7 -6.6 -23.75 -4.05 -28.95 -0.8 -28.1 1.65 -27.45 3.15 -26.05 4.35 -25.0 5.9 -22.55 7.1 -20.6 7.0 -17.55 6.9 -15.15 5.9 -11.7 5.7 -10.85 5.65 -8.7 L5.6 -7.25 -5.45 -7.25" fill="url(#gradient0)" fill-rule="evenodd" stroke="none"/>
    <path d="M5.6 -7.25 L5.55 -6.2 Q5.4 -3.95 4.05 -3.35 L0.2 -3.0 -3.85 -3.45 -4.5 -4.3 -4.75 -5.35 -5.45 -7.25 5.6 -7.25" fill="url(#gradient1)" fill-rule="evenodd" stroke="none"/>
    <path d="M-5.45 -7.25 Q-5.9 -9.95 -6.5 -11.6 -7.2 -13.45 -7.35 -17.3 -7.55 -21.7 -6.6 -23.75 -4.05 -28.95 -0.8 -28.1 1.65 -27.45 3.15 -26.05 4.35 -25.0 5.9 -22.55 7.1 -20.6 7.0 -17.55 6.9 -15.15 5.9 -11.7 5.7 -10.85 5.65 -8.7 L5.6 -7.25 5.55 -6.2 Q5.4 -3.95 4.05 -3.35 L0.2 -3.0 -3.85 -3.45 -4.5 -4.3 -4.75 -5.35 -5.45 -7.25 Z" fill="none" stroke="#4b4b3e" stroke-linecap="round" stroke-linejoin="round" stroke-width="1.05"/>
    <path d="M-3.8 -9.9 Q-4.1 -8.25 -3.1 -6.25 L-2.05 -4.6" fill="none" stroke="#6c6c5e" stroke-linecap="round" stroke-linejoin="round" stroke-width="1.05"/>
    <path d="M3.75 -10.75 L1.55 -12.25 0.65 -13.2" fill="none" stroke="#6c6c5e" stroke-linecap="round" stroke-linejoin="round" stroke-width="1.05"/>
    <path d="M-4.4 -19.8 Q-3.25 -18.65 -0.85 -18.4 L1.3 -18.35" fill="none" stroke="#6c6c5e" stroke-linecap="round" stroke-linejoin="round" stroke-width="1.05"/>
    <path d="M3.45 -24.15 Q2.8 -24.95 1.05 -25.55 L-1.7 -26.5 -3.7 -25.4 -5.2 -23.5 Q-6.0 -21.35 -6.05 -20.2 -6.1 -19.3 -5.75 -18.3 L-4.45 -14.15 -0.45 -13.75 3.4 -14.1 4.75 -17.45 Q5.05 -18.1 4.5 -20.75 3.95 -23.35 3.45 -24.15 M6.5 -23.15 Q7.7 -21.1 7.8 -19.95 8.05 -18.05 7.55 -13.15 7.05 -8.45 6.65 -7.65 6.2 -7.2 -0.2 -7.5 -6.6 -7.85 -6.7 -8.45 -7.75 -13.0 -8.0 -15.8 -8.65 -21.9 -7.0 -24.85 -5.9 -26.65 -4.15 -27.6 -2.65 -28.4 -0.9 -28.55 -0.3 -28.6 2.35 -27.4 5.1 -26.2 5.2 -25.6 L6.5 -23.15" fill="#6b7664" fill-rule="evenodd" stroke="none"/>
    <path d="M6.5 -23.15 L5.2 -25.6 Q5.1 -26.2 2.35 -27.4 -0.3 -28.6 -0.9 -28.55 -2.65 -28.4 -4.15 -27.6 -5.9 -26.65 -7.0 -24.85 -8.65 -21.9 -8.0 -15.8 -7.75 -13.0 -6.7 -8.45 -6.6 -7.85 -0.2 -7.5 6.2 -7.2 6.65 -7.65 7.05 -8.45 7.55 -13.15 8.05 -18.05 7.8 -19.95 7.7 -21.1 6.5 -23.15 M3.45 -24.15 Q3.95 -23.35 4.5 -20.75 5.05 -18.1 4.75 -17.45 L3.4 -14.1 -0.45 -13.75 -4.45 -14.15 -5.75 -18.3 Q-6.1 -19.3 -6.05 -20.2 -6.0 -21.35 -5.2 -23.5 L-3.7 -25.4 -1.7 -26.5 1.05 -25.55 Q2.8 -24.95 3.45 -24.15 Z" fill="none" stroke="#31372e" stroke-linecap="round" stroke-linejoin="round" stroke-width="1.05"/>
    <path d="M3.05 -10.8 Q3.2 -11.3 4.3 -11.35 5.45 -11.35 5.6 -11.65 6.2 -12.8 6.35 -15.25 L6.4 -17.45" fill="none" stroke="#525a4c" stroke-linecap="round" stroke-linejoin="round" stroke-width="1.05"/>
    <path d="M-4.45 -14.15 L-5.65 -12.4 Q-5.65 -11.5 -3.35 -10.7" fill="none" stroke="#525a4c" stroke-linecap="round" stroke-linejoin="round" stroke-width="1.05"/>
    <path d="M-15.25 -13.1 L-15.45 -17.3 Q-15.6 -21.6 -15.25 -22.1 L-14.6 -22.65 Q-13.7 -23.3 -12.45 -23.55 L-11.9 -24.45 -10.6 -25.65 -5.7 -26.15 -6.2 -9.45 -12.55 -9.45 -13.85 -10.45 Q-15.15 -11.75 -15.25 -13.1" fill="#3d4c41" fill-rule="evenodd" stroke="none"/>
    <path d="M-15.25 -13.1 Q-15.15 -11.75 -13.85 -10.45 L-12.55 -9.45 -6.2 -9.45 -5.7 -26.15 -10.6 -25.65 -11.9 -24.45 -12.45 -23.55 Q-13.7 -23.3 -14.6 -22.65 L-15.25 -22.1 Q-15.6 -21.6 -15.45 -17.3 L-15.25 -13.1 Z" fill="none" stroke="#1f2621" stroke-linecap="round" stroke-linejoin="round" stroke-width="1.05"/>
    <path d="M4.25 -23.8 L4.75 -21.9 Q4.9 -20.75 3.15 -16.45 L1.35 -12.35 Q2.25 -15.3 2.65 -18.35 3.45 -24.5 0.8 -25.25 L-3.2 -25.05 -5.8 -24.4 -5.7 -26.15 -4.25 -26.8 -1.75 -27.45 0.65 -27.3 Q2.0 -27.05 2.85 -26.4 3.6 -25.8 4.25 -23.8" fill="#3d4c41" fill-rule="evenodd" stroke="none"/>
    <path d="M1.15 -13.1 L3.3 -17.1 Q4.8 -20.5 4.75 -21.9 L4.25 -23.8 Q3.6 -25.8 2.85 -26.4 2.0 -27.05 0.65 -27.3 L-1.75 -27.45 -4.25 -26.8 -5.7 -26.15 -5.8 -24.4 -3.2 -25.05 0.8 -25.25 Q1.9 -24.95 2.35 -24.1 L2.9 -21.95 Q3.1 -21.15 2.15 -17.05 L1.15 -13.1 Q-0.2 -11.6 -3.35 -10.4 L-6.2 -9.45" fill="none" stroke="#1f2621" stroke-linecap="round" stroke-linejoin="round" stroke-width="1.05"/>
    <path d="M-12.45 -23.55 L-12.55 -9.45" fill="none" stroke="#303c33" stroke-linecap="round" stroke-linejoin="round" stroke-width="1.05"/>
    <path d="M-8.25 -25.95 L-8.55 -15.55 -8.95 -15.2 -10.4 -14.9 -10.45 -9.45" fill="none" stroke="#303c33" stroke-linecap="round" stroke-linejoin="round" stroke-width="1.05"/>
    <path d="M-15.5 -18.0 L-8.4 -20.75" fill="none" stroke="#2a342c" stroke-linecap="round" stroke-linejoin="round" stroke-width="1.05"/>
  </g>
  <defs>
    <linearGradient gradientTransform="matrix(0.0044, 4.0E-4, -4.0E-4, 0.0044, -1.8, -12.3)" gradientUnits="userSpaceOnUse" id="gradient0" spreadMethod="pad" x1="-819.2" x2="819.2">
      <stop offset="0.0" stop-color="#727066"/>
      <stop offset="1.0" stop-color="#89877b"/>
    </linearGradient>
    <linearGradient gradientTransform="matrix(0.0044, 2.0E-4, -4.0E-4, 0.0018, -1.8, -9.3)" gradientUnits="userSpaceOnUse" id="gradient1" spreadMethod="pad" x1="-819.2" x2="819.2">
      <stop offset="0.0" stop-color="#727066"/>
      <stop offset="1.0" stop-color="#89877b"/>
    </linearGradient>
  </defs>
</svg>
