<?xml version="1.0" encoding="UTF-8" standalone="no"?>
<svg xmlns:xlink="http://www.w3.org/1999/xlink" height="6.05px" width="21.5px" xmlns="http://www.w3.org/2000/svg">
  <g transform="matrix(1.0, 0.0, 0.0, 1.0, -16.6, 0.75)">
    <path d="M17.5 2.7 L18.05 1.3 23.2 -0.2 29.0 -0.25 29.95 0.15 31.1 0.2 35.8 0.25 36.15 0.25 36.65 0.25 37.6 1.65 35.4 3.55 31.15 4.65 17.75 4.8 17.1 3.65 17.35 3.0 17.5 2.7 M33.85 2.5 L33.9 1.8 27.95 1.85 27.35 3.2 30.8 3.2 33.85 2.5 M26.25 1.5 L24.4 1.0 19.35 2.1 19.1 3.35 25.5 3.2 26.25 1.5" fill="#e2c998" fill-rule="evenodd" stroke="none"/>
    <path d="M33.85 2.5 L30.8 3.2 27.35 3.2 27.95 1.85 33.9 1.8 33.85 2.5" fill="#b69e79" fill-rule="evenodd" stroke="none"/>
    <path d="M26.25 1.5 L25.5 3.2 19.1 3.35 19.35 2.1 24.4 1.0 26.25 1.5" fill="#a6916e" fill-rule="evenodd" stroke="none"/>
    <path d="M17.35 3.0 L17.1 3.65 17.75 4.8 31.15 4.65 35.4 3.55 37.6 1.65 36.65 0.25 36.15 0.25 35.8 0.25 31.1 0.2 29.95 0.15 29.0 -0.25 23.2 -0.2 18.05 1.3 17.5 2.7" fill="none" stroke="#62542d" stroke-linecap="round" stroke-linejoin="round" stroke-width="1.0"/>
  </g>
</svg>
