<?xml version="1.0" encoding="UTF-8" standalone="no"?>
<svg xmlns:ffdec="https://www.free-decompiler.com/flash" xmlns:xlink="http://www.w3.org/1999/xlink" ffdec:objectType="shape" height="8.5px" width="5.85px" xmlns="http://www.w3.org/2000/svg">
  <g transform="matrix(1.0, 0.0, 0.0, 1.0, -27.55, -5.0)">
    <path d="M31.15 5.0 L31.65 5.15 32.9 6.75 33.1 6.95 33.25 7.05 33.4 7.65 33.3 8.75 33.35 9.5 33.15 13.0 33.1 13.3 Q32.95 13.5 32.65 13.5 L32.2 13.2 32.2 11.45 32.25 11.35 Q32.15 11.05 32.3 10.85 L32.35 8.2 32.25 7.55 31.95 7.1 31.25 6.3 29.7 8.2 29.1 8.9 28.55 9.3 27.7 9.35 Q27.4 9.05 27.8 8.6 L28.5 8.1 29.2 7.25 30.85 5.25 31.15 5.0" fill="#ffffff" fill-rule="evenodd" stroke="none"/>
  </g>
</svg>
