<?xml version="1.0" encoding="UTF-8" standalone="no"?>
<svg xmlns:xlink="http://www.w3.org/1999/xlink" height="29.1px" width="21.85px" xmlns="http://www.w3.org/2000/svg">
  <g transform="matrix(1.0, 0.0, 0.0, 1.0, 13.45, 28.75)">
    <path d="M-11.75 -22.55 L-8.7 -24.1 -8.95 -11.0 -11.35 -11.25 -12.75 -13.75 -12.95 -19.85 -11.75 -22.55" fill="#354753" fill-rule="evenodd" stroke="none"/>
    <path d="M-8.7 -24.1 L-11.75 -22.55 -12.95 -19.85 -12.75 -13.75 -11.35 -11.25 -8.95 -11.0" fill="none" stroke="#1e252b" stroke-linecap="round" stroke-linejoin="round" stroke-width="1.05"/>
    <path d="M-12.95 -19.85 L-11.4 -18.05 -9.45 -18.05" fill="none" stroke="#252e37" stroke-linecap="round" stroke-linejoin="round" stroke-width="1.05"/>
    <path d="M-7.1 -7.45 L-7.3 -8.0 -7.95 -10.75 -8.55 -13.5 Q-9.1 -15.7 -8.6 -19.65 L-8.0 -23.1 -5.55 -27.0 Q-4.55 -28.25 -3.85 -28.25 L0.8 -27.7 Q3.2 -27.2 4.0 -26.4 L5.25 -24.1 Q6.55 -21.5 6.85 -20.0 7.2 -18.15 6.6 -15.2 L5.7 -10.35 5.7 -8.1 5.7 -7.45 5.6 -6.8 4.65 -3.75 Q3.2 -2.9 -0.95 -2.95 -5.1 -2.95 -6.25 -3.75 L-6.4 -5.25 Q-6.6 -6.65 -7.1 -7.45" fill="#23232b" fill-rule="evenodd" stroke="none"/>
    <path d="M-7.1 -7.45 Q-6.6 -6.65 -6.4 -5.25 L-6.25 -3.75 Q-5.1 -2.95 -0.95 -2.95 3.2 -2.9 4.65 -3.75 L5.6 -6.8 5.7 -7.45 5.7 -8.1 5.7 -10.35 6.6 -15.2 Q7.2 -18.15 6.85 -20.0 6.55 -21.5 5.25 -24.1 L4.0 -26.4 Q3.2 -27.2 0.8 -27.7 L-3.85 -28.25 Q-4.55 -28.25 -5.55 -27.0 L-8.0 -23.1 -8.6 -19.65 Q-9.1 -15.7 -8.55 -13.5 L-7.95 -10.75 -7.3 -8.0 -7.1 -7.45 Z" fill="none" stroke="#0e0f13" stroke-linecap="round" stroke-linejoin="round" stroke-width="1.05"/>
    <path d="M5.4 -2.15 L1.15 -2.0 -6.8 -2.75 Q-7.2 -4.55 -6.95 -5.65 L-2.7 -5.0 5.65 -4.65 5.65 -3.8 5.4 -2.15" fill="#15151d" fill-rule="evenodd" stroke="none"/>
    <path d="M5.4 -2.15 L1.15 -2.0 -6.8 -2.75 Q-7.2 -4.55 -6.95 -5.65 L-2.7 -5.0 5.65 -4.65 5.65 -3.8 5.4 -2.15 Z" fill="none" stroke="#05080b" stroke-linecap="round" stroke-linejoin="round" stroke-width="1.05"/>
    <path d="M-7.1 -26.6 L0.5 -26.8 5.75 -24.25 6.75 -22.25 Q7.75 -20.05 7.9 -18.85 8.0 -17.75 7.55 -15.9 L6.9 -13.0 6.55 -9.35 2.95 -7.4 -0.2 -8.15 -5.0 -8.95 -8.7 -8.95 Q-9.4 -13.6 -9.4 -16.3 L-9.45 -20.0 Q-9.35 -22.1 -8.9 -23.6 L-7.85 -25.5 -7.1 -26.6" fill="#343d4c" fill-rule="evenodd" stroke="none"/>
    <path d="M-2.5 -7.1 Q-2.15 -5.6 -2.5 -1.15 L-5.7 -1.15 Q-6.0 -3.15 -5.85 -5.3 L-5.7 -7.1 -2.5 -7.1" fill="#15151d" fill-rule="evenodd" stroke="none"/>
    <path d="M-2.5 -7.1 Q-2.15 -5.6 -2.5 -1.15 L-5.7 -1.15 Q-6.0 -3.15 -5.85 -5.3 L-5.7 -7.1 -2.5 -7.1 Z" fill="none" stroke="#030507" stroke-linecap="round" stroke-linejoin="round" stroke-width="1.05"/>
    <path d="M3.5 -5.45 Q3.9 -1.35 3.5 -0.35 1.75 0.05 0.85 -0.35 L0.85 -5.45 3.5 -5.45" fill="#15151d" fill-rule="evenodd" stroke="none"/>
    <path d="M3.5 -5.45 L0.85 -5.45 0.85 -0.35 Q1.75 0.05 3.5 -0.35 3.9 -1.35 3.5 -5.45 Z" fill="none" stroke="#030507" stroke-linecap="round" stroke-linejoin="round" stroke-width="1.05"/>
    <path d="M-5.5 -11.8 L-5.45 -13.45 Q-5.3 -13.75 -4.65 -13.95 L-3.1 -14.45 Q-0.55 -15.3 1.4 -17.25 L0.55 -12.7 Q-0.1 -9.75 -0.15 -8.15 L-5.0 -8.95 Q-5.4 -9.95 -5.5 -11.8" fill="#303741" fill-rule="evenodd" stroke="none"/>
    <path d="M-0.15 -8.15 Q-0.1 -9.75 0.55 -12.7 L1.4 -17.25 Q-0.55 -15.3 -3.1 -14.45 L-4.65 -13.95 Q-5.3 -13.75 -5.45 -13.45 L-5.5 -11.8 Q-5.4 -9.95 -5.0 -8.95" fill="none" stroke="#23232b" stroke-linecap="round" stroke-linejoin="round" stroke-width="1.05"/>
    <path d="M7.3 -20.9 L7.9 -18.25 7.35 -15.2 Q6.75 -12.4 6.7 -11.15 5.15 -11.2 4.2 -11.7 L4.1 -14.65 1.4 -17.25 5.05 -20.1 7.3 -20.9" fill="#3e4b5e" fill-rule="evenodd" stroke="none"/>
    <path d="M0.5 -26.8 L3.25 -25.5 5.75 -24.25 6.75 -22.25 Q7.75 -20.05 7.9 -18.85 8.0 -17.75 7.55 -15.9 L6.9 -13.0 6.55 -9.35 2.95 -7.4 -0.2 -8.15 -5.0 -8.95 -8.7 -8.95 Q-9.4 -13.6 -9.4 -16.3 L-9.45 -20.0 Q-9.35 -22.1 -8.9 -23.6 L-7.9 -25.45 -7.1 -26.55 0.5 -26.8 Z" fill="none" stroke="#19202b" stroke-linecap="round" stroke-linejoin="round" stroke-width="1.05"/>
    <path d="M6.7 -11.15 L5.05 -11.35 4.2 -11.7 4.2 -13.95 4.1 -14.65 2.2 -16.4 1.4 -17.25 3.35 -18.95 Q5.7 -20.7 7.3 -20.9" fill="none" stroke="#272f3b" stroke-linecap="round" stroke-linejoin="round" stroke-width="1.05"/>
    <path d="M0.0 -25.0 Q1.65 -24.4 2.5 -23.2 2.95 -22.9 2.95 -21.75 L2.9 -20.7 1.7 -19.55 Q0.3 -18.4 -0.45 -18.25 L-2.45 -18.1 Q-4.55 -18.05 -5.0 -18.7 L-5.0 -21.0 Q-4.8 -23.45 -4.05 -24.05 L-2.45 -24.7 0.0 -25.0" fill="#23232b" fill-rule="evenodd" stroke="none"/>
    <path d="M0.0 -25.0 Q1.65 -24.4 2.5 -23.2 2.95 -22.9 2.95 -21.75 L2.9 -20.7 1.7 -19.55 Q0.3 -18.4 -0.45 -18.25 L-2.45 -18.1 Q-4.55 -18.05 -5.0 -18.7 L-5.0 -21.0 Q-4.8 -23.45 -4.05 -24.05 L-2.45 -24.7 0.0 -25.0 Z" fill="none" stroke="#19202b" stroke-linecap="round" stroke-linejoin="round" stroke-width="1.05"/>
  </g>
</svg>
