<?xml version="1.0" encoding="UTF-8" standalone="no"?>
<svg xmlns:ffdec="https://www.free-decompiler.com/flash" xmlns:xlink="http://www.w3.org/1999/xlink" ffdec:objectType="shape" height="31.0px" width="25.55px" xmlns="http://www.w3.org/2000/svg">
  <g transform="matrix(1.0, 0.0, 0.0, 1.0, 15.6, 34.6)">
    <path d="M-6.1 -30.95 L-5.05 -32.15 -1.4 -30.9 -1.35 -33.95 0.85 -33.95 1.9 -27.6 3.6 -27.6 2.6 -34.1 3.9 -34.1 5.2 -28.0 5.2 -27.95 6.9 -27.95 9.05 -25.15 6.25 -25.15 0.9 -25.15 0.35 -27.35 -3.0 -29.8 -6.1 -30.95 M0.65 -12.0 L-0.35 -9.9 -0.35 -7.3 0.65 -4.1 -5.7 -4.8 -6.7 -7.3 -7.55 -10.5 -8.35 -13.65 -9.15 -16.8 -1.9 -15.55 0.65 -12.0 -8.35 -13.65 0.65 -12.0 M3.6 -27.6 Q4.5 -27.6 5.2 -28.0 4.5 -27.6 3.6 -27.6 M-0.35 -7.3 L-6.7 -7.3 -0.35 -7.3 M-7.55 -10.5 L-0.35 -9.9 -7.55 -10.5" fill="#121718" fill-rule="evenodd" stroke="none"/>
    <path d="M-14.8 -28.05 Q-13.55 -31.5 -9.35 -32.25 L-6.1 -30.95 -3.0 -29.8 0.35 -27.35 0.9 -25.15 6.25 -25.15 4.85 -21.95 -1.3 -21.95 -5.9 -26.15 -14.8 -28.05" fill="url(#gradient0)" fill-rule="evenodd" stroke="none"/>
    <path d="M5.2 -13.95 L2.4 -11.55 0.65 -12.0 -1.9 -15.55 -9.15 -16.8 -11.95 -17.3 Q-16.05 -21.25 -14.8 -28.05 L-5.9 -26.15 -1.3 -21.95 4.85 -21.95 6.2 -18.75 5.2 -13.95 M0.0 -19.35 L1.75 -18.2 2.2 -16.35 4.2 -16.45 2.2 -16.35 1.75 -18.2 0.0 -19.35 M4.2 -14.75 L2.8 -14.45 4.2 -14.75 M-3.35 -18.25 L-6.7 -19.15 -7.6 -21.75 -6.7 -19.15 -3.35 -18.25 M-8.4 -19.15 L-9.8 -22.35 -8.4 -19.15" fill="url(#gradient1)" fill-rule="evenodd" stroke="none"/>
    <path d="M9.05 -25.15 L9.45 -23.25 Q7.9 -23.45 7.55 -21.95 7.2 -20.0 8.75 -19.15 7.75 -16.85 5.2 -13.95 L6.2 -18.75 4.85 -21.95 6.25 -25.15 9.05 -25.15" fill="#24333d" fill-rule="evenodd" stroke="none"/>
    <path d="M9.45 -23.25 L9.25 -20.9 8.75 -19.15 Q7.2 -20.0 7.55 -21.95 7.9 -23.45 9.45 -23.25" fill="#66c1fd" fill-rule="evenodd" stroke="none"/>
    <path d="M-6.1 -30.95 L-5.05 -32.15 -1.4 -30.9 -1.35 -33.95 0.85 -33.95 1.9 -27.6 3.6 -27.6 2.6 -34.1 3.9 -34.1 5.2 -28.0 5.2 -27.95 6.9 -27.95 9.05 -25.15 M5.2 -13.95 L2.4 -11.55 0.65 -12.0 -0.35 -9.9 -0.35 -7.3 0.65 -4.1 -5.7 -4.8 -6.7 -7.3 -7.55 -10.5 -8.35 -13.65 -9.15 -16.8 -11.95 -17.3 Q-16.05 -21.25 -14.8 -28.05 -13.55 -31.5 -9.35 -32.25 L-6.1 -30.95 -3.0 -29.8 0.35 -27.35 0.9 -25.15 6.25 -25.15 M5.2 -28.0 Q4.5 -27.6 3.6 -27.6 M0.65 -12.0 L-8.35 -13.65 M-0.35 -9.9 L-7.55 -10.5 M-6.7 -7.3 L-0.35 -7.3" fill="none" stroke="#070a0a" stroke-linecap="round" stroke-linejoin="round" stroke-width="1.0"/>
    <path d="M9.05 -25.15 L9.45 -23.25 9.25 -20.9 8.75 -19.15 Q7.75 -16.85 5.2 -13.95 L6.2 -18.75 4.85 -21.95 -1.3 -21.95 -5.9 -26.15 -14.8 -28.05 M6.25 -25.15 L9.05 -25.15 M8.75 -19.15 Q7.2 -20.0 7.55 -21.95 7.9 -23.45 9.45 -23.25 M6.25 -25.15 L4.85 -21.95 M-9.15 -16.8 L-1.9 -15.55 0.65 -12.0" fill="none" stroke="#0c1113" stroke-linecap="round" stroke-linejoin="round" stroke-width="1.0"/>
    <path d="M2.8 -14.45 L4.2 -14.75 M4.2 -16.45 L2.2 -16.35 1.75 -18.2 0.0 -19.35 M-9.8 -22.35 L-8.4 -19.15 M-7.6 -21.75 L-6.7 -19.15 -3.35 -18.25" fill="none" stroke="#131d20" stroke-linecap="round" stroke-linejoin="round" stroke-width="1.0"/>
  </g>
  <defs>
    <radialGradient cx="0" cy="0" gradientTransform="matrix(0.0195, 0.0, 0.0, 0.0195, -0.25, -21.5)" gradientUnits="userSpaceOnUse" id="gradient0" r="819.2" spreadMethod="pad">
      <stop offset="0.0" stop-color="#1d2b38"/>
      <stop offset="0.6588235294117647" stop-color="#27363f"/>
      <stop offset="1.0" stop-color="#4d6277"/>
    </radialGradient>
    <radialGradient cx="0" cy="0" gradientTransform="matrix(0.0299, 0.0, 0.0, 0.0299, 2.4, -11.55)" gradientUnits="userSpaceOnUse" id="gradient1" r="819.2" spreadMethod="pad">
      <stop offset="0.0" stop-color="#1d2b38"/>
      <stop offset="0.6588235294117647" stop-color="#27363f"/>
      <stop offset="1.0" stop-color="#4d6277"/>
    </radialGradient>
  </defs>
</svg>
