<?xml version="1.0" encoding="UTF-8" standalone="no"?>
<svg xmlns:ffdec="https://www.free-decompiler.com/flash" xmlns:xlink="http://www.w3.org/1999/xlink" ffdec:objectType="shape" height="30.85px" width="12.75px" xmlns="http://www.w3.org/2000/svg">
  <g transform="matrix(1.0, 0.0, 0.0, 1.0, 1.7, -1.15)">
    <path d="M2.65 3.1 L3.2 4.55 6.05 4.55 6.05 7.25 4.8 9.3 2.9 9.3 3.4 11.95 6.05 14.4 7.15 13.3 8.7 10.0 9.4 9.4 10.55 9.4 10.35 12.85 8.85 13.5 6.75 15.9 7.7 20.85 8.75 20.95 7.7 20.85 6.75 15.9 8.85 13.5 10.35 12.85 Q10.0 17.55 9.05 22.35 L8.25 22.35 6.35 22.35 6.2 21.65 5.65 19.55 2.05 19.55 0.6 19.55 -1.1 11.4 -0.7 10.05 -0.1 7.75 -0.65 6.95 Q-1.35 4.15 -1.15 1.65 L2.05 1.65 2.65 3.1 M5.25 17.0 L2.15 17.0 1.1 11.2 -0.7 10.05 1.1 11.2 2.15 17.0 5.25 17.0 M6.3 23.45 L8.1 24.05 9.9 24.65 Q10.5 28.1 9.9 29.45 L8.4 29.45 6.3 29.45 6.3 23.45" fill="#350303" fill-rule="evenodd" stroke="none"/>
    <path d="M4.6 23.45 L3.8 23.45 3.8 21.85 6.2 21.65 6.35 22.35 8.25 22.35 8.1 24.05 6.3 23.45 4.6 23.45" fill="#1e1e1e" fill-rule="evenodd" stroke="none"/>
    <path d="M4.6 23.45 L6.3 23.45 6.3 29.45 8.4 29.45 7.3 31.5 5.45 31.5 4.05 29.75 3.5 27.05 4.6 23.45 M6.2 21.65 L3.8 21.85 3.8 21.8 2.75 21.8 2.05 19.55 5.65 19.55 6.2 21.65" fill="#171717" fill-rule="evenodd" stroke="none"/>
    <path d="M8.7 10.0 L7.15 13.3 6.05 14.4 3.4 11.95 2.9 9.3 4.8 9.3 6.05 7.25 6.05 4.55 3.2 4.55 2.65 3.1 7.85 3.65 Q9.05 7.3 8.7 10.0" fill="url(#gradient0)" fill-rule="evenodd" stroke="none"/>
    <path d="M8.7 10.0 Q9.05 7.3 7.85 3.65 L2.65 3.1 M3.8 21.85 L3.8 23.45 4.6 23.45 6.3 23.45 M8.1 24.05 L8.25 22.35 M6.2 21.65 L3.8 21.85 3.8 21.8 2.75 21.8 2.05 19.55 M8.4 29.45 L7.3 31.5 5.45 31.5 4.05 29.75 3.5 27.05 4.6 23.45" fill="none" stroke="#090909" stroke-linecap="round" stroke-linejoin="round" stroke-width="1.0"/>
    <path d="M-0.7 10.05 L1.1 11.2 2.15 17.0 5.25 17.0 M10.35 12.85 L8.85 13.5 6.75 15.9 7.7 20.85 8.75 20.95" fill="none" stroke="#2a0101" stroke-linecap="round" stroke-linejoin="round" stroke-width="1.0"/>
    <path d="M-0.65 6.95 L-0.1 7.75 1.0 9.3 2.9 9.3 4.8 9.3 6.05 7.25 6.05 4.55 3.2 4.55 2.05 1.65 -1.15 1.65 Q-1.35 4.15 -0.65 6.95 M2.9 9.3 L3.4 11.95 6.05 14.4 7.15 13.3 8.7 10.0 9.4 9.4 10.55 9.4 Q10.35 15.8 9.05 22.35 L6.35 22.35 5.65 19.55 0.6 19.55 -1.1 11.4 -0.1 7.75 M9.9 24.65 Q10.5 28.1 9.9 29.45 L6.3 29.45 6.3 23.45 9.9 24.65 M6.05 14.4 L5.0 15.4 5.65 19.55" fill="none" stroke="#190000" stroke-linecap="round" stroke-linejoin="round" stroke-width="1.0"/>
    <path d="M9.55 25.6 L9.5 27.85" fill="none" stroke="#ff0000" stroke-linecap="round" stroke-linejoin="round" stroke-width="1.0"/>
    <path d="M8.2 16.4 L10.0 16.4 9.35 20.85 7.7 20.85 8.2 16.4 M0.6 18.55 L-0.35 13.8 1.6 13.8 1.75 18.7 0.6 18.55" fill="#aa0000" fill-rule="evenodd" stroke="none"/>
    <path d="M8.2 16.4 L7.7 20.85 9.35 20.85 10.0 16.4 8.2 16.4 M0.6 18.55 L-0.35 13.8 1.6 13.8 1.75 18.7 0.6 18.55 Z" fill="none" stroke="#1c0101" stroke-linecap="round" stroke-linejoin="round" stroke-width="1.0"/>
  </g>
  <defs>
    <radialGradient cx="0" cy="0" gradientTransform="matrix(0.0095, 0.0, 0.0, 0.0095, 4.95, 10.3)" gradientUnits="userSpaceOnUse" id="gradient0" r="819.2" spreadMethod="pad">
      <stop offset="0.0" stop-color="#272727"/>
      <stop offset="1.0" stop-color="#121212"/>
      <stop offset="1.0" stop-color="#272727" stop-opacity="0.8"/>
      <stop offset="1.0" stop-color="#ff5151"/>
    </radialGradient>
  </defs>
</svg>
