<?xml version="1.0" encoding="UTF-8" standalone="no"?>
<svg xmlns:xlink="http://www.w3.org/1999/xlink" height="15.35px" width="51.1px" xmlns="http://www.w3.org/2000/svg">
  <g transform="matrix(1.0, 0.0, 0.0, 1.0, 15.1, 5.85)">
    <path d="M12.85 0.3 L18.65 0.3 18.65 1.85 14.55 1.85 12.85 1.85 12.85 0.3" fill="#b0b0b0" fill-rule="evenodd" stroke="none"/>
    <path d="M9.9 -1.3 L9.9 -2.85 9.9 -4.3 12.3 -4.3 13.45 -5.35 18.05 -5.35 19.2 -4.3 21.65 -4.3 21.65 -2.85 21.65 -1.35 19.25 -1.35 18.05 -0.3 13.45 -0.4 12.35 -1.3 9.9 -1.3 M20.65 2.5 L20.65 2.8 23.65 2.8 23.65 2.5 25.65 2.5 25.65 2.45 27.65 2.45 27.65 5.4 25.85 5.4 23.8 5.4 21.7 5.4 19.65 5.4 17.65 5.4 15.85 5.4 15.85 4.9 15.85 3.05 15.85 2.45 18.65 2.45 18.65 2.5 20.65 2.5 M14.6 -1.8 L16.75 -1.8 17.95 -2.8 17.9 -2.85 16.8 -3.9 14.6 -3.9 13.5 -2.85 14.6 -1.8 M13.5 -2.85 L9.9 -2.85 13.5 -2.85 M33.8 -2.1 L35.5 -2.1 35.5 1.75 35.15 1.75 35.15 3.1 33.35 3.6 33.35 3.9 31.3 3.9 Q31.55 3.15 31.4 2.2 L31.75 1.8 31.75 -1.05 33.35 -1.05 33.8 -1.05 33.8 -2.1 M35.15 1.75 L33.35 1.75 33.35 -1.05 33.35 1.75 35.15 1.75 M21.65 -2.85 L17.9 -2.85 21.65 -2.85 M33.35 1.75 L33.35 3.6 33.35 1.75 M23.8 4.15 L23.8 5.4 23.8 4.15 M21.7 4.15 L21.7 5.4 21.7 4.15 M25.85 4.15 L25.85 5.4 25.85 4.15 M19.65 4.15 L19.65 5.4 19.65 4.15 M17.65 4.15 L17.65 5.4 17.65 4.15 M-13.5 7.4 L-13.55 7.35 Q-14.35 6.2 -14.55 4.75 -14.65 3.55 -14.4 2.25 L-13.8 0.45 -13.55 -0.1 -13.5 -0.25 -12.0 0.6 Q-12.7 1.95 -12.8 3.3 L-12.8 3.95 -9.45 3.95 -8.05 2.65 -7.25 4.0 -8.8 5.5 -12.6 5.5 -12.05 6.8 -11.7 7.3 -11.7 7.4 -13.5 7.4 M-12.6 5.45 L-12.6 5.5 -12.6 5.45 -12.8 4.5 -12.8 3.95 -12.8 4.5 -12.6 5.45" fill="#666666" fill-rule="evenodd" stroke="none"/>
    <path d="M5.85 2.4 L5.85 2.5 7.85 2.5 7.85 2.8 10.85 2.8 10.85 2.5 12.85 2.5 12.85 1.85 14.55 1.85 14.55 3.05 15.85 3.05 15.85 4.9 14.55 4.9 14.55 6.85 12.4 9.0 8.7 9.0 7.5 7.0 1.0 7.0 0.55 5.35 -1.85 5.35 -1.85 2.7 5.1 2.7 5.2 2.4 5.85 2.4 M29.5 -3.3 L30.05 -4.55 33.8 -4.55 33.8 -2.1 33.8 -1.05 33.35 -1.05 31.75 -1.05 31.75 -3.3 29.5 -3.3 M11.6 3.85 L11.4 3.85 11.45 3.9 11.4 3.85 11.6 3.85 11.45 3.9 12.05 4.95 13.2 4.95 13.2 3.85 11.6 3.85 M13.0 6.2 L13.2 6.2 12.85 6.5 13.2 6.2 13.0 6.2 11.25 6.15 9.95 3.95 8.05 3.95 9.75 7.75 11.55 7.75 12.85 6.5 13.0 6.2 M14.55 4.9 L14.55 3.05 14.55 4.9 M6.4 4.0 L2.1 4.0 2.55 5.7 6.85 5.7 6.4 4.0 M-13.5 -0.25 L-14.0 -0.55 -12.7 -2.75 -9.05 -0.65 -9.5 0.15 -8.7 1.5 -9.15 2.25 -12.0 0.6 -13.5 -0.25 M-3.15 7.4 L-6.35 7.4 -6.35 4.8 -3.15 5.65 -3.15 7.4" fill="#333333" fill-rule="evenodd" stroke="none"/>
    <path d="M5.85 0.15 L6.0 -0.3 7.85 -0.3 7.85 2.5 5.85 2.5 5.85 2.4 5.85 0.15 M10.85 2.5 L10.85 -0.3 12.85 -0.35 12.85 0.3 12.85 1.85 12.85 2.5 10.85 2.5 M18.65 0.3 L18.65 -0.3 20.65 -0.3 20.65 2.5 18.65 2.5 18.65 2.45 18.65 1.85 18.65 0.3 M23.65 2.5 L23.65 -0.3 25.55 -0.3 25.65 -0.05 25.65 2.45 25.65 2.5 23.65 2.5" fill="#4a2d50" fill-rule="evenodd" stroke="none"/>
    <path d="M12.85 0.3 L18.65 0.3 M9.9 -2.85 L13.5 -2.85 M17.9 -2.85 L21.65 -2.85 M18.65 1.85 L14.55 1.85 12.85 1.85 M-12.6 5.45 L-12.8 4.5 -12.8 3.95" fill="none" stroke="#545454" stroke-linecap="round" stroke-linejoin="round" stroke-width="1.0"/>
    <path d="M9.9 -4.3 L12.3 -4.3 13.45 -5.35 18.05 -5.35 19.2 -4.3 21.65 -4.3 M21.65 -1.35 L19.25 -1.35 18.05 -0.3 13.45 -0.4 12.35 -1.3 9.9 -1.3 M25.65 2.45 L27.65 2.45 M27.65 5.4 L25.85 5.4 23.8 5.4 21.7 5.4 19.65 5.4 17.65 5.4 15.85 5.4 15.85 4.9 15.85 3.05 15.85 2.45 18.65 2.45 M33.8 -2.1 L35.5 -2.1 35.5 1.75 35.15 1.75 35.15 3.1 33.35 3.6 33.35 3.9 31.3 3.9 M33.35 -1.05 L33.35 1.75 35.15 1.75 M33.35 3.6 L33.35 1.75 M-13.5 7.4 L-13.55 7.35 Q-14.35 6.2 -14.55 4.75 -14.65 3.55 -14.4 2.25 L-13.8 0.45 -13.55 -0.1 -13.5 -0.25 M-12.0 0.6 Q-12.7 1.95 -12.8 3.3 L-12.8 3.95 -9.45 3.95 -8.05 2.65 M-7.25 4.0 L-8.8 5.5 -12.6 5.5 -12.05 6.8 -11.7 7.3 -11.7 7.4 M-12.6 5.5 L-12.6 5.45" fill="none" stroke="#3a3a3a" stroke-linecap="round" stroke-linejoin="round" stroke-width="1.0"/>
    <path d="M14.55 4.9 L14.55 6.85 12.4 9.0 8.7 9.0 7.5 7.0 1.0 7.0 0.55 5.35 -1.85 5.35 M29.5 -3.3 L30.05 -4.55 33.8 -4.55 33.8 -2.1 33.8 -1.05 33.35 -1.05 31.75 -1.05 M14.55 1.85 L14.55 3.05 14.55 4.9 M11.45 3.9 L11.4 3.85 11.6 3.85 13.2 3.85 13.2 4.95 12.05 4.95 11.45 3.9 M12.85 6.5 L13.2 6.2 13.0 6.2 11.25 6.15 9.95 3.95 8.05 3.95 9.75 7.75 11.55 7.75 12.85 6.5 M6.4 4.0 L2.1 4.0 2.55 5.7 6.85 5.7 6.4 4.0 M-13.5 -0.25 L-14.0 -0.55 -12.7 -2.75 -9.05 -0.65 M-8.7 1.5 L-9.15 2.25 -12.0 0.6 -13.5 -0.25 M-3.15 7.4 L-3.15 5.65 M-6.35 4.8 L-6.35 7.4" fill="none" stroke="#000000" stroke-linecap="round" stroke-linejoin="round" stroke-width="1.0"/>
    <path d="M5.2 2.4 L5.85 2.4" fill="none" stroke="#333333" stroke-linecap="round" stroke-linejoin="round" stroke-width="1.0"/>
    <path d="M25.85 5.4 L25.85 4.15 M21.7 5.4 L21.7 4.15 M23.8 5.4 L23.8 4.15 M17.65 5.4 L17.65 4.15 M19.65 5.4 L19.65 4.15" fill="none" stroke="#565656" stroke-linecap="round" stroke-linejoin="round" stroke-width="1.0"/>
    <path d="M5.85 0.15 L5.85 2.4 5.85 2.5 7.85 2.5 M10.85 -0.3 L12.85 -0.35 12.85 0.3 12.85 1.85 12.85 2.5 10.85 2.5 M18.65 0.3 L18.65 -0.3 20.65 -0.3 M25.65 -0.05 L25.65 2.45 25.65 2.5 23.65 2.5 M18.65 2.45 L18.65 1.85 18.65 0.3 M18.65 2.45 L18.65 2.5 20.65 2.5" fill="none" stroke="#2c0b2e" stroke-linecap="round" stroke-linejoin="round" stroke-width="1.0"/>
  </g>
</svg>
