<?xml version="1.0" encoding="UTF-8" standalone="no"?>
<svg xmlns:xlink="http://www.w3.org/1999/xlink" height="31.4px" width="26.95px" xmlns="http://www.w3.org/2000/svg">
  <g transform="matrix(1.0, 0.0, 0.0, 1.0, 15.15, 32.35)">
    <path d="M-6.5 -29.2 L-6.7 -26.3 -9.45 -25.7 -10.15 -23.75 -7.4 -19.45 -7.5 -17.9 -7.4 -19.45 -7.35 -19.4 -7.5 -17.9 -8.0 -13.95 -11.1 -15.3 -11.3 -15.8 -14.15 -21.35 -14.65 -22.4 -10.95 -31.2 -8.4 -31.85 -6.5 -29.2 M-14.15 -21.35 L-12.05 -21.6 -10.05 -17.35 -11.3 -15.8 -10.05 -17.35 -12.05 -21.6 -14.15 -21.35" fill="url(#gradient0)" fill-rule="evenodd" stroke="none"/>
    <path d="M5.5 -27.05 Q2.7 -26.65 0.65 -27.0 -0.75 -27.2 -1.8 -27.8 L-3.15 -28.8 -3.45 -29.25 -2.45 -29.45 -0.1 -29.55 Q3.65 -29.4 5.5 -27.05" fill="#000000" fill-rule="evenodd" stroke="none"/>
    <path d="M-3.45 -29.25 L-3.15 -28.8 -1.8 -27.8 Q-0.75 -27.2 0.65 -27.0 2.7 -26.65 5.5 -27.05 L5.9 -26.95 6.8 -26.6 Q8.2 -25.85 8.75 -24.15 7.0 -24.55 5.65 -23.25 3.1 -20.95 4.3 -14.0 L4.45 -13.35 4.6 -12.35 -0.35 -9.2 2.8 -11.3 0.45 -15.15 -3.6 -15.05 -3.9 -12.75 -7.3 -10.4 -8.0 -13.95 -7.5 -17.9 -7.35 -19.4 -7.4 -19.45 -10.15 -23.75 -9.45 -25.7 -6.7 -26.3 -6.5 -29.2 -3.45 -29.25 M-7.2 -20.85 L-7.4 -19.45 -7.2 -20.85 M-5.6 -18.0 L-5.95 -14.95 -5.6 -18.0 M-2.7 -23.9 L-0.35 -22.65 -2.7 -23.9 M-4.65 -27.25 L0.75 -24.4 -4.65 -27.25" fill="#3f474c" fill-rule="evenodd" stroke="none"/>
    <path d="M-0.35 -9.2 L-7.3 -10.4 -3.9 -12.75 -3.6 -15.05 0.45 -15.15 2.8 -11.3 -0.35 -9.2" fill="url(#gradient1)" fill-rule="evenodd" stroke="none"/>
    <path d="M7.25 -11.8 L5.2 -3.6 1.7 -1.45 -7.15 -5.05 -7.3 -10.4 -0.35 -9.2 4.6 -12.35 7.25 -11.8" fill="#242b30" fill-rule="evenodd" stroke="none"/>
    <path d="M11.1 -20.4 L11.15 -20.0 11.35 -18.85 11.4 -17.05 11.35 -18.45 11.3 -18.75 11.15 -20.0 11.3 -18.75 10.45 -22.25 9.8 -23.9 10.45 -22.35 11.1 -20.4 M8.75 -24.15 Q4.45 -24.6 4.1 -18.5 3.95 -16.3 4.3 -14.0 3.1 -20.95 5.65 -23.25 7.0 -24.55 8.75 -24.15" fill="url(#gradient2)" fill-rule="evenodd" stroke="none"/>
    <path d="M8.75 -24.15 L9.8 -23.9 10.45 -22.25 11.3 -18.75 11.35 -18.45 11.4 -17.05 Q11.35 -14.55 9.9 -13.2 L10.4 -14.1 Q11.45 -16.25 11.3 -18.75 11.45 -16.25 10.4 -14.1 L9.9 -13.2 Q8.9 -12.2 7.25 -11.8 L4.6 -12.35 4.45 -13.35 4.3 -14.0 Q3.95 -16.3 4.1 -18.5 4.45 -24.6 8.75 -24.15" fill="url(#gradient3)" fill-rule="evenodd" stroke="none"/>
    <path d="M-3.45 -29.25 L-3.15 -28.8 -1.8 -27.8 Q-0.75 -27.2 0.65 -27.0 2.7 -26.65 5.5 -27.05 L5.9 -26.95 6.8 -26.6 Q8.2 -25.85 8.75 -24.15 L9.8 -23.9 10.3 -22.95 11.1 -20.4 11.15 -20.0 11.3 -18.75 Q11.45 -16.25 10.4 -14.1 L9.9 -13.2 9.8 -13.0 9.25 -12.55 Q8.45 -12.05 7.25 -11.8 L5.2 -3.6 1.7 -1.45 -7.15 -5.05 -7.3 -10.4 -8.0 -13.95 -11.1 -15.3 -11.3 -15.8 -14.15 -21.35 -14.65 -22.4 -10.95 -31.2 -8.4 -31.85 -6.5 -29.2 -3.45 -29.25 M7.25 -11.8 L4.6 -12.35 -0.35 -9.2 -7.3 -10.4" fill="none" stroke="#22262a" stroke-linecap="round" stroke-linejoin="round" stroke-width="1.0"/>
    <path d="M5.5 -27.05 Q3.65 -29.4 -0.1 -29.55 L-2.45 -29.45 -3.45 -29.25" fill="none" stroke="#000000" stroke-linecap="round" stroke-linejoin="round" stroke-width="1.0"/>
    <path d="M-7.4 -19.45 L-7.2 -20.85 M-7.5 -17.9 L-7.4 -19.45 M-7.5 -17.9 L-8.0 -13.95 M-5.95 -14.95 L-5.6 -18.0" fill="none" stroke="#292e33" stroke-linecap="round" stroke-linejoin="miter-clip" stroke-miterlimit="4.0" stroke-width="1.0"/>
    <path d="M-0.35 -22.65 L-2.7 -23.9" fill="none" stroke="url(#gradient4)" stroke-linecap="round" stroke-linejoin="miter-clip" stroke-miterlimit="4.0" stroke-width="1.0"/>
    <path d="M-11.3 -15.8 L-10.05 -17.35 -12.05 -21.6 -14.15 -21.35" fill="none" stroke="url(#gradient5)" stroke-linecap="butt" stroke-linejoin="round" stroke-width="1.0"/>
    <path d="M8.75 -24.15 Q7.0 -24.55 5.65 -23.25 3.1 -20.95 4.3 -14.0 L4.45 -13.35 4.6 -12.35" fill="none" stroke="url(#gradient6)" stroke-linecap="round" stroke-linejoin="miter-clip" stroke-miterlimit="4.0" stroke-width="1.0"/>
    <path d="M0.75 -24.4 L-4.65 -27.25" fill="none" stroke="url(#gradient7)" stroke-linecap="round" stroke-linejoin="miter-clip" stroke-miterlimit="4.0" stroke-width="1.0"/>
  </g>
  <defs>
    <linearGradient gradientTransform="matrix(0.005, 0.0, 0.0, 0.005, 206.1, -22.9)" gradientUnits="userSpaceOnUse" id="gradient0" spreadMethod="pad" x1="-819.2" x2="819.2">
      <stop offset="0.0" stop-color="#353a40"/>
      <stop offset="1.0" stop-color="#000000"/>
    </linearGradient>
    <linearGradient gradientTransform="matrix(0.0062, 0.0, 0.0, 0.0062, 214.45, -12.2)" gradientUnits="userSpaceOnUse" id="gradient1" spreadMethod="pad" x1="-819.2" x2="819.2">
      <stop offset="0.0" stop-color="#353a40"/>
      <stop offset="1.0" stop-color="#000000"/>
    </linearGradient>
    <linearGradient gradientTransform="matrix(1.0E-4, 0.0, 0.0, 1.0E-4, 96.15, -20.5)" gradientUnits="userSpaceOnUse" id="gradient2" spreadMethod="pad" x1="-819.2" x2="819.2">
      <stop offset="0.0" stop-color="#3f474c"/>
      <stop offset="1.0" stop-color="#000000"/>
    </linearGradient>
    <linearGradient gradientTransform="matrix(0.0045, 0.0, 0.0, 0.0045, 224.45, -18.0)" gradientUnits="userSpaceOnUse" id="gradient3" spreadMethod="pad" x1="-819.2" x2="819.2">
      <stop offset="0.0" stop-color="#353a40"/>
      <stop offset="1.0" stop-color="#000000"/>
    </linearGradient>
    <linearGradient gradientTransform="matrix(1.0E-4, 5.0E-4, -5.0E-4, 1.0E-4, 7.2, 62.8)" gradientUnits="userSpaceOnUse" id="gradient4" spreadMethod="pad" x1="-819.2" x2="819.2">
      <stop offset="0.0" stop-color="#292e33"/>
      <stop offset="1.0" stop-color="#000000"/>
    </linearGradient>
    <linearGradient gradientTransform="matrix(1.0E-4, 7.0E-4, -7.0E-4, 1.0E-4, -3.85, 61.15)" gradientUnits="userSpaceOnUse" id="gradient5" spreadMethod="pad" x1="-819.2" x2="819.2">
      <stop offset="0.0" stop-color="#292e33"/>
      <stop offset="1.0" stop-color="#000000"/>
    </linearGradient>
    <linearGradient gradientTransform="matrix(1.0E-4, 9.0E-4, -9.0E-4, 1.0E-4, 14.95, 64.1)" gradientUnits="userSpaceOnUse" id="gradient6" spreadMethod="pad" x1="-819.2" x2="819.2">
      <stop offset="0.0" stop-color="#292e33"/>
      <stop offset="1.0" stop-color="#000000"/>
    </linearGradient>
    <linearGradient gradientTransform="matrix(1.0E-4, 0.001, -0.001, 1.0E-4, 7.0, 62.7)" gradientUnits="userSpaceOnUse" id="gradient7" spreadMethod="pad" x1="-819.2" x2="819.2">
      <stop offset="0.0" stop-color="#292e33"/>
      <stop offset="1.0" stop-color="#000000"/>
    </linearGradient>
  </defs>
</svg>
