<?xml version="1.0" encoding="UTF-8" standalone="no"?>
<svg xmlns:ffdec="https://www.free-decompiler.com/flash" xmlns:xlink="http://www.w3.org/1999/xlink" ffdec:objectType="shape" height="19.5px" width="12.5px" xmlns="http://www.w3.org/2000/svg">
  <g transform="matrix(1.0, 0.0, 0.0, 1.0, -1.2, 2.9)">
    <path d="M8.75 13.05 Q8.75 12.5 9.55 12.45 L11.0 12.3 Q11.65 12.2 12.25 12.75 12.9 13.3 13.1 14.0 13.6 15.7 12.05 16.05 11.25 16.25 10.0 15.1 8.85 14.05 8.75 13.05" fill="#292a2b" fill-rule="evenodd" stroke="none"/>
    <path d="M8.75 13.05 Q8.85 14.05 10.0 15.1 11.25 16.25 12.05 16.05 13.6 15.7 13.1 14.0 12.9 13.3 12.25 12.75 11.65 12.2 11.0 12.3 L9.55 12.45 Q8.75 12.5 8.75 13.05 Z" fill="none" stroke="#101214" stroke-linecap="round" stroke-linejoin="round" stroke-width="1.0"/>
    <path d="M8.7 2.95 L10.1 3.8 10.15 4.65 10.75 4.8 11.0 5.85 11.55 6.75 11.35 7.45 9.8 9.2 8.7 8.75 8.7 9.7 8.05 8.2 7.35 7.8 7.25 6.85 6.35 6.6 6.45 5.8 8.7 2.95" fill="#171a1c" fill-rule="evenodd" stroke="none"/>
    <path d="M8.7 2.95 L10.1 3.8 10.15 4.65 10.75 4.8 11.0 5.85 11.55 6.75 11.35 7.45 9.8 9.2 8.7 8.75 8.7 9.7 8.05 8.2 7.35 7.8 7.25 6.85 6.35 6.6 6.45 5.8 8.7 2.95 Z" fill="none" stroke="#101214" stroke-linecap="round" stroke-linejoin="round" stroke-width="1.0"/>
    <path d="M8.7 4.65 L9.45 5.4" fill="none" stroke="#101214" stroke-linecap="round" stroke-linejoin="round" stroke-width="1.0"/>
    <path d="M9.75 7.65 L9.1 7.6 8.5 7.2 9.75 7.65" fill="#171a1c" fill-rule="evenodd" stroke="none"/>
    <path d="M9.75 7.65 L9.1 7.6 8.5 7.2" fill="none" stroke="#101214" stroke-linecap="round" stroke-linejoin="round" stroke-width="1.0"/>
    <path d="M2.7 -2.4 L5.85 -2.2 9.85 0.7 8.65 5.0 6.65 6.0 1.7 1.9 2.7 -2.4" fill="url(#gradient0)" fill-rule="evenodd" stroke="none"/>
    <path d="M2.7 -2.4 L5.85 -2.2 9.85 0.7 8.65 5.0 6.65 6.0 1.7 1.9 2.7 -2.4 Z" fill="none" stroke="#101214" stroke-linecap="round" stroke-linejoin="round" stroke-width="1.0"/>
    <path d="M2.65 2.65 L6.65 6.0 8.65 5.0 13.1 13.3 9.9 12.25 8.25 13.45 2.4 4.9 2.65 2.65" fill="#292a2b" fill-rule="evenodd" stroke="none"/>
    <path d="M2.65 2.65 L2.4 4.9 8.25 13.45 9.9 12.25 13.1 13.3 8.65 5.0 6.65 6.0 2.65 2.65 Z" fill="none" stroke="#101214" stroke-linecap="round" stroke-linejoin="round" stroke-width="1.0"/>
    <path d="M4.25 7.6 L6.4 8.1 8.15 10.5 7.55 12.4" fill="none" stroke="#2f2f2f" stroke-linecap="round" stroke-linejoin="round" stroke-width="1.0"/>
    <path d="M8.7 8.75 L9.3 6.0 11.6 7.15 12.5 9.75 11.75 12.05 10.45 11.3 8.7 8.75" fill="#292a2b" fill-rule="evenodd" stroke="none"/>
    <path d="M8.7 8.75 L9.3 6.0 11.6 7.15 12.5 9.75 11.75 12.05 10.45 11.3 8.7 8.75 Z" fill="none" stroke="#101214" stroke-linecap="round" stroke-linejoin="round" stroke-width="1.0"/>
    <path d="M3.2 1.65 Q3.15 -0.2 3.75 -0.7 L4.65 -0.95 5.25 -0.95 3.2 1.65" fill="#292a2b" fill-rule="evenodd" stroke="none"/>
    <path d="M3.2 1.65 Q3.15 -0.2 3.75 -0.7 L4.65 -0.95 5.25 -0.95" fill="none" stroke="#181c1e" stroke-linecap="round" stroke-linejoin="round" stroke-width="1.0"/>
    <path d="M7.05 2.75 L6.8 3.85" fill="none" stroke="#181c1e" stroke-linecap="round" stroke-linejoin="round" stroke-width="1.0"/>
  </g>
  <defs>
    <linearGradient gradientTransform="matrix(0.0042, -1.0E-4, 1.0E-4, 0.0042, 5.25, 1.3)" gradientUnits="userSpaceOnUse" id="gradient0" spreadMethod="pad" x1="-819.2" x2="819.2">
      <stop offset="0.0" stop-color="#2e2e2e"/>
      <stop offset="1.0" stop-color="#1e2225"/>
    </linearGradient>
  </defs>
</svg>
