<?xml version="1.0" encoding="UTF-8" standalone="no"?>
<svg xmlns:xlink="http://www.w3.org/1999/xlink" height="27.55px" width="23.85px" xmlns="http://www.w3.org/2000/svg">
  <g transform="matrix(1.0, 0.0, 0.0, 1.0, 14.25, 28.9)">
    <path d="M2.6 -26.05 L3.35 -25.65 Q4.35 -25.05 5.25 -24.25 8.2 -21.75 9.1 -18.25 L7.55 -14.75 6.55 -14.45 3.15 -13.3 1.5 -15.9 -1.0 -15.4 -2.8 -10.15 -3.85 -10.25 -4.75 -10.2 -5.35 -10.1 -5.95 -12.1 -5.95 -13.05 -5.95 -15.85 -9.45 -19.85 -9.05 -22.0 -6.6 -22.7 -6.5 -25.55 -5.15 -25.85 -2.8 -25.6 2.6 -26.05 M-5.85 -16.6 L-5.95 -13.05 -5.85 -16.6 M-3.95 -16.5 L-4.1 -13.6 -3.95 -16.5" fill="#3f474c" fill-rule="evenodd" stroke="none"/>
    <path d="M6.55 -14.45 L5.85 -9.35 5.15 -8.75 4.5 -8.2 Q3.05 -7.1 2.5 -7.3 L1.95 -8.0 0.85 -8.8 Q-0.3 -9.6 -2.8 -10.15 L-1.0 -15.4 1.5 -15.9 3.15 -13.3 6.55 -14.45 M0.4 -2.9 L0.4 -2.85 0.65 -2.0 -2.4 -2.1 -7.6 -1.85 -7.9 -4.05 Q-8.1 -6.5 -7.65 -7.95 L-5.35 -7.9 -4.95 -7.85 -3.15 -7.65 -0.65 -7.15 -0.15 -5.0 0.4 -2.9 M-5.95 -12.1 L-9.9 -12.35 -10.0 -12.55 -13.6 -17.8 Q-13.85 -19.0 -13.7 -20.5 L-13.7 -20.7 -13.65 -20.95 -13.7 -21.15 -13.7 -21.4 -13.65 -21.5 -13.5 -22.55 -13.45 -22.9 -13.4 -22.95 Q-13.05 -25.25 -12.3 -27.0 L-8.9 -28.4 -6.5 -25.55 -6.6 -22.7 -9.05 -22.0 -9.45 -19.85 -5.95 -15.85 -5.95 -13.05 -5.95 -12.1 M-10.0 -12.55 L-8.9 -14.3 -11.6 -18.35 -13.6 -17.8 -11.6 -18.35 -8.9 -14.3 -10.0 -12.55" fill="#353a40" fill-rule="evenodd" stroke="none"/>
    <path d="M5.15 -8.75 Q5.1 -5.6 4.05 -4.35 3.05 -3.2 0.4 -2.9 L-0.15 -5.0 -0.65 -7.15 -3.15 -7.65 -4.95 -7.85 -4.75 -10.2 -3.85 -10.25 -2.8 -10.15 Q-0.3 -9.6 0.85 -8.8 L1.95 -8.0 2.5 -7.3 Q3.05 -7.1 4.5 -8.2 L5.15 -8.75 M-5.15 -25.85 L-4.5 -26.35 -2.65 -27.25 Q0.3 -28.25 2.6 -26.05 L-2.8 -25.6 -5.15 -25.85" fill="#2f2f2f" fill-rule="evenodd" stroke="none"/>
    <path d="M2.6 -26.05 L3.35 -25.65 Q4.35 -25.05 5.25 -24.25 8.2 -21.75 9.1 -18.25 L7.55 -14.75 6.55 -14.45 5.85 -9.35 5.15 -8.75 4.5 -8.2 Q3.05 -7.1 2.5 -7.3 L1.95 -8.0 0.85 -8.8 Q-0.3 -9.6 -2.8 -10.15 L-3.85 -10.25 -4.75 -10.2 -5.35 -10.1 -5.95 -12.1 -9.9 -12.35 -10.0 -12.55 -13.6 -17.8 Q-13.85 -19.0 -13.7 -20.5 L-13.7 -20.7 -13.65 -20.95 -13.7 -21.15 -13.7 -21.4 M0.4 -2.9 L0.4 -2.85 0.65 -2.0 -2.4 -2.1 -7.6 -1.85 -7.9 -4.05 Q-8.1 -6.5 -7.65 -7.95 L-5.35 -7.9 -4.95 -7.85 -3.15 -7.65 -0.65 -7.15 -0.15 -5.0 0.4 -2.9 M-13.65 -21.5 L-13.5 -22.55 -13.45 -22.9 -13.4 -22.95 Q-13.05 -25.25 -12.3 -27.0 L-8.9 -28.4 -6.5 -25.55 -5.15 -25.85 -2.8 -25.6 2.6 -26.05 M6.55 -14.45 L3.15 -13.3 1.5 -15.9 -1.0 -15.4 -2.8 -10.15" fill="none" stroke="#22262a" stroke-linecap="round" stroke-linejoin="round" stroke-width="1.0"/>
    <path d="M5.15 -8.75 Q5.1 -5.6 4.05 -4.35 3.05 -3.2 0.4 -2.9 M-4.95 -7.85 L-4.75 -10.2" fill="none" stroke="#22262a" stroke-linecap="round" stroke-linejoin="miter-clip" stroke-miterlimit="4.0" stroke-width="1.0"/>
    <path d="M-5.15 -25.85 L-4.5 -26.35 -2.65 -27.25 Q0.3 -28.25 2.6 -26.05" fill="none" stroke="#000000" stroke-linecap="round" stroke-linejoin="round" stroke-width="1.0"/>
    <path d="M-4.1 -13.6 L-3.95 -16.5 M-5.95 -13.05 L-5.85 -16.6 M-5.95 -12.1 L-5.95 -13.05" fill="none" stroke="#292e33" stroke-linecap="round" stroke-linejoin="miter-clip" stroke-miterlimit="4.0" stroke-width="1.0"/>
    <path d="M-13.6 -17.8 L-11.6 -18.35 -8.9 -14.3 -10.0 -12.55" fill="none" stroke="#292e33" stroke-linecap="round" stroke-linejoin="round" stroke-width="1.0"/>
  </g>
</svg>
