<?xml version="1.0" encoding="UTF-8" standalone="no"?>
<svg xmlns:ffdec="https://www.free-decompiler.com/flash" xmlns:xlink="http://www.w3.org/1999/xlink" ffdec:objectType="shape" height="31.3px" width="17.7px" xmlns="http://www.w3.org/2000/svg">
  <g transform="matrix(1.0, 0.0, 0.0, 1.0, 0.45, 0.45)">
    <path d="M1.95 0.0 L6.45 8.2 6.3 10.3 16.8 30.05 Q16.2 30.55 14.95 30.35 L12.75 29.8 10.2 25.2 10.05 23.25 7.2 18.25 5.8 17.55 4.05 14.25 4.75 12.3 0.0 3.6 1.95 0.0" fill="#d06513" fill-opacity="0.8509804" fill-rule="evenodd" stroke="none"/>
    <path d="M1.95 0.0 L0.0 3.6 4.75 12.3 4.05 14.25 5.8 17.55 7.2 18.25 10.05 23.25 10.2 25.2 12.75 29.8 14.95 30.35 Q16.2 30.55 16.8 30.05 L6.3 10.3 6.45 8.2 1.95 0.0 Z" fill="none" stroke="#a24e0f" stroke-linecap="round" stroke-linejoin="round" stroke-opacity="0.49411765" stroke-width="0.9500000000000001"/>
  </g>
</svg>
