<?xml version="1.0" encoding="UTF-8" standalone="no"?>
<svg xmlns:ffdec="https://www.free-decompiler.com/flash" xmlns:xlink="http://www.w3.org/1999/xlink" ffdec:objectType="shape" height="23.25px" width="16.8px" xmlns="http://www.w3.org/2000/svg">
  <g transform="matrix(1.0, 0.0, 0.0, 1.0, 0.5, 0.5)">
    <path d="M10.65 17.4 Q13.55 16.8 13.95 15.7 L14.0 15.5 15.2 17.45 Q16.0 18.8 15.75 19.7 L15.2 19.85 13.4 20.55 Q11.05 19.3 10.65 17.4" fill="#3b2b58" fill-rule="evenodd" stroke="none"/>
    <path d="M15.2 19.85 L15.1 21.0 14.65 21.8 11.8 21.7 10.7 20.95 Q10.2 20.6 9.4 18.7 L9.6 17.0 10.65 17.4 Q11.05 19.3 13.4 20.55 L15.2 19.85" fill="url(#gradient0)" fill-rule="evenodd" stroke="none"/>
    <path d="M3.1 1.25 L6.4 0.0 7.8 1.35 Q5.3 1.55 3.7 2.9 L3.1 1.25" fill="url(#gradient1)" fill-rule="evenodd" stroke="none"/>
    <path d="M3.1 1.25 L3.7 2.9 4.5 6.85 3.35 8.55 2.35 7.95 Q0.55 6.75 0.2 5.25 -0.3 2.8 0.4 0.7 L3.1 1.25" fill="url(#gradient2)" fill-rule="evenodd" stroke="none"/>
    <path d="M13.55 10.7 L13.5 10.65 13.55 10.7" fill="url(#gradient3)" fill-rule="evenodd" stroke="none"/>
    <path d="M12.4 7.1 L12.5 7.4 13.4 10.15 13.5 10.65 13.55 10.7 10.6 11.65 9.3 8.2 12.4 7.1" fill="url(#gradient4)" fill-rule="evenodd" stroke="none"/>
    <path d="M12.4 7.1 L9.3 8.2 10.6 11.65 13.55 10.7 14.1 13.4 10.05 14.9 8.9 12.85 8.15 11.45 8.9 12.85 6.15 12.95 Q4.4 11.8 3.95 9.55 L7.05 9.4 8.15 11.45 7.25 9.4 6.45 7.85 7.7 5.5 11.2 4.2 12.4 7.1" fill="#191919" fill-rule="evenodd" stroke="none"/>
    <path d="M7.8 1.35 L9.45 2.25 11.2 4.2 7.7 5.5 6.45 7.85 7.25 9.4 7.05 9.4 3.95 9.55 3.35 8.55 4.5 6.85 3.7 2.9 Q5.3 1.55 7.8 1.35" fill="url(#gradient5)" fill-rule="evenodd" stroke="none"/>
    <path d="M8.9 12.85 L10.05 14.9 14.1 13.4 14.0 15.5 13.95 15.7 Q13.55 16.8 10.65 17.4 L9.6 17.0 8.5 16.5 6.15 12.95 8.9 12.85" fill="url(#gradient6)" fill-rule="evenodd" stroke="none"/>
    <path d="M9.3 8.2 L10.6 11.65" fill="none" stroke="#121212" stroke-linecap="round" stroke-linejoin="round" stroke-width="1.0"/>
    <path d="M13.5 10.65 L13.4 10.15 12.5 7.4" ffdec:has-small-stroke="true" ffdec:original-stroke-width="0.8" fill="none" stroke="#331f8e" stroke-linecap="round" stroke-linejoin="round" stroke-opacity="0.8" stroke-width="1.0"/>
    <path d="M13.55 10.7 L13.5 10.65 M11.2 4.2 L12.4 7.1 M3.1 1.25 L6.4 0.0 7.8 1.35 9.45 2.25 11.2 4.2 7.7 5.5 6.45 7.85 7.25 9.4 8.15 11.45 8.9 12.85 10.05 14.9 14.1 13.4 13.55 10.7 M3.7 2.9 Q5.3 1.55 7.8 1.35 M3.35 8.55 L3.3 8.55 2.35 7.95 M3.95 9.55 L3.35 8.55 M7.25 9.4 L7.05 9.4 8.15 11.45 M3.95 9.55 L7.05 9.4 M6.15 12.95 L8.9 12.85 M9.6 17.0 L8.5 16.5 6.15 12.95 Q4.4 11.8 3.95 9.55 M15.2 19.85 L15.1 21.0 14.65 21.8 11.8 21.7 10.7 20.95 Q10.2 20.6 9.4 18.7 L9.6 17.0 10.65 17.4 M14.0 15.5 L14.1 13.4" fill="none" stroke="#070a0a" stroke-linecap="round" stroke-linejoin="round" stroke-width="1.0"/>
    <path d="M14.0 15.5 L13.95 15.7 Q13.55 16.8 10.65 17.4 11.05 19.3 13.4 20.55 L15.2 19.85 15.75 19.7 Q16.0 18.8 15.2 17.45 L14.0 15.5 Z" fill="none" stroke="#1a1024" stroke-linecap="round" stroke-linejoin="round" stroke-width="1.0"/>
    <path d="M3.1 1.25 L3.7 2.9 4.5 6.85 3.35 8.55 2.35 7.95 Q0.55 6.75 0.2 5.25 -0.3 2.8 0.4 0.7 L3.1 1.25 Z" fill="none" stroke="#1a1024" stroke-linecap="round" stroke-linejoin="round" stroke-width="1.0"/>
    <path d="M10.6 11.65 L13.55 10.7" fill="none" stroke="#121212" stroke-linecap="round" stroke-linejoin="round" stroke-width="1.0"/>
    <path d="M12.4 7.1 L9.3 8.2" fill="none" stroke="#121212" stroke-linecap="round" stroke-linejoin="round" stroke-width="1.0"/>
  </g>
  <defs>
    <radialGradient cx="0" cy="0" gradientTransform="matrix(0.0049, 0.0, 0.0, 0.0049, 11.25, 20.35)" gradientUnits="userSpaceOnUse" id="gradient0" r="819.2" spreadMethod="pad">
      <stop offset="0.0" stop-color="#161616"/>
      <stop offset="1.0" stop-color="#292929"/>
    </radialGradient>
    <radialGradient cx="0" cy="0" gradientTransform="matrix(0.004, 0.0, 0.0, 0.004, 5.2, 1.45)" gradientUnits="userSpaceOnUse" id="gradient1" r="819.2" spreadMethod="pad">
      <stop offset="0.0" stop-color="#161616"/>
      <stop offset="1.0" stop-color="#292929"/>
    </radialGradient>
    <linearGradient gradientTransform="matrix(0.0027, 0.0, 0.0, 0.0048, 2.25, 4.6)" gradientUnits="userSpaceOnUse" id="gradient2" spreadMethod="pad" x1="-819.2" x2="819.2">
      <stop offset="0.0" stop-color="#211a2e"/>
      <stop offset="1.0" stop-color="#3b2b58"/>
    </linearGradient>
    <radialGradient cx="0" cy="0" gradientTransform="matrix(0.0029, 0.0, 0.0, 0.0029, 11.25, 9.55)" gradientUnits="userSpaceOnUse" id="gradient3" r="819.2" spreadMethod="pad">
      <stop offset="0.0" stop-color="#510abb"/>
      <stop offset="0.6" stop-color="#8d4fe9"/>
      <stop offset="1.0" stop-color="#bd66ff"/>
    </radialGradient>
    <linearGradient gradientTransform="matrix(0.0026, 0.0, 0.0, 0.0028, 11.4, 9.35)" gradientUnits="userSpaceOnUse" id="gradient4" spreadMethod="pad" x1="-819.2" x2="819.2">
      <stop offset="0.0" stop-color="#510abb"/>
      <stop offset="0.6" stop-color="#8d4fe9"/>
      <stop offset="1.0" stop-color="#bd66ff"/>
    </linearGradient>
    <radialGradient cx="0" cy="0" gradientTransform="matrix(0.0082, 0.0, 0.0, 0.0082, 4.25, 6.6)" gradientUnits="userSpaceOnUse" id="gradient5" r="819.2" spreadMethod="pad">
      <stop offset="0.0" stop-color="#191919"/>
      <stop offset="0.6588235294117647" stop-color="#1c1c1c"/>
      <stop offset="1.0" stop-color="#5f5f5f"/>
    </radialGradient>
    <radialGradient cx="0" cy="0" gradientTransform="matrix(0.0076, 0.0, 0.0, 0.0076, 8.25, 14.25)" gradientUnits="userSpaceOnUse" id="gradient6" r="819.2" spreadMethod="pad">
      <stop offset="0.0" stop-color="#191919"/>
      <stop offset="0.6588235294117647" stop-color="#1c1c1c"/>
      <stop offset="1.0" stop-color="#5f5f5f"/>
    </radialGradient>
  </defs>
</svg>
