<?xml version="1.0" encoding="UTF-8" standalone="no"?>
<svg xmlns:ffdec="https://www.free-decompiler.com/flash" xmlns:xlink="http://www.w3.org/1999/xlink" ffdec:objectType="shape" height="29.05px" width="18.55px" xmlns="http://www.w3.org/2000/svg">
  <g transform="matrix(1.0, 0.0, 0.0, 1.0, 3.5, 10.05)">
    <path d="M8.05 -3.25 L9.25 -0.15 8.3 1.55 1.85 2.9 0.3 -0.55 1.25 -3.6 4.0 -2.0 6.1 -2.0 8.05 -3.25" fill="#3b4a44" fill-rule="evenodd" stroke="none"/>
    <path d="M2.7 8.25 L8.75 3.35 12.75 13.6 8.1 15.25 2.7 8.25" fill="#666666" fill-rule="evenodd" stroke="none"/>
    <path d="M9.25 5.2 L3.2 10.0 1.3 3.45 9.2 2.0 9.25 5.2 M2.15 -8.95 Q0.5 -7.15 0.3 -5.25 0.2 -3.8 0.85 -1.9 L-1.15 -2.55 -2.75 -4.4 -2.4 -7.95 -0.1 -9.7 2.15 -8.95" fill="#8f8f8f" fill-rule="evenodd" stroke="none"/>
    <path d="M1.2 2.05 L1.65 4.3 1.95 6.35 Q0.4 5.6 -0.4 3.2 -1.2 0.85 -1.15 -2.55 L0.25 -1.8 1.2 2.05" fill="#2d2d2d" fill-rule="evenodd" stroke="none"/>
    <path d="M1.2 2.05 L1.65 4.3 1.95 6.35 Q0.4 5.6 -0.4 3.2 -1.2 0.85 -1.15 -2.55 L0.25 -1.8 1.2 2.05 Z" fill="none" stroke="#1d1d1d" stroke-linecap="butt" stroke-linejoin="miter-clip" stroke-miterlimit="11.33984375" stroke-width="1.05"/>
    <path d="M9.3 4.95 L9.25 1.8 1.35 3.25 3.25 9.8 8.1 15.25 9.55 14.4 Q9.6 13.3 10.05 11.7 L10.85 8.95 9.3 4.95 M-1.15 -2.55 L-3.0 -4.75 -2.4 -7.65 0.0 -9.55 2.15 -8.95 Q0.65 -7.0 0.7 -5.05 0.6 -4.0 0.85 -1.9 L-1.15 -2.55 Z" fill="none" stroke="#323232" stroke-linecap="round" stroke-linejoin="round" stroke-width="1.05"/>
    <path d="M11.3 18.55 L9.45 13.45 10.75 9.15 14.6 17.9 11.3 18.55" fill="#2f2f2f" fill-rule="evenodd" stroke="none"/>
    <path d="M11.3 18.55 L9.45 13.45 10.75 9.15 14.6 17.9 11.3 18.55 Z" fill="none" stroke="#222222" stroke-linecap="round" stroke-linejoin="round" stroke-width="0.9500000000000001"/>
    <path d="M8.0 -3.8 L8.75 -2.85 9.4 0.25 8.55 1.7" fill="none" stroke="#272e2e" stroke-linecap="round" stroke-linejoin="round" stroke-width="1.05"/>
  </g>
</svg>
