<?xml version="1.0" encoding="UTF-8" standalone="no"?>
<svg xmlns:xlink="http://www.w3.org/1999/xlink" height="12.15px" width="44.9px" xmlns="http://www.w3.org/2000/svg">
  <g transform="matrix(1.0, 0.0, 0.0, 1.0, -35.75, 6.15)">
    <path d="M39.3 -4.35 Q41.85 -6.15 45.5 -6.15 L46.1 -6.1 46.65 -6.15 Q50.25 -6.15 52.85 -4.35 55.35 -2.55 55.35 -0.05 55.35 2.45 52.85 4.2 50.25 6.0 46.65 6.0 L46.1 5.95 45.5 6.0 Q41.85 6.0 39.3 4.2 36.7 2.45 36.8 -0.05 36.7 -2.55 39.3 -4.35" fill="url(#gradient0)" fill-rule="evenodd" stroke="none"/>
    <path d="M56.8 -3.75 L58.2 -3.7 59.65 -3.75 74.55 -2.7 Q80.65 -1.65 80.65 -0.2 80.65 1.25 74.55 2.3 L59.65 3.35 58.2 3.3 56.8 3.35 41.9 2.3 Q35.6 1.25 35.75 -0.2 35.6 -1.65 41.9 -2.7 L56.8 -3.75" fill="url(#gradient1)" fill-rule="evenodd" stroke="none"/>
  </g>
  <defs>
    <radialGradient cx="0" cy="0" gradientTransform="matrix(0.0108, 0.0, 0.0, 0.0072, 45.95, -0.15)" gradientUnits="userSpaceOnUse" id="gradient0" r="819.2" spreadMethod="pad">
      <stop offset="0.17647058823529413" stop-color="#ffffff"/>
      <stop offset="1.0" stop-color="#11ff41" stop-opacity="0.0"/>
    </radialGradient>
    <radialGradient cx="0" cy="0" gradientTransform="matrix(0.026, 0.0, 0.0, 0.0042, 57.9, -0.25)" gradientUnits="userSpaceOnUse" id="gradient1" r="819.2" spreadMethod="pad">
      <stop offset="0.17647058823529413" stop-color="#ffffff"/>
      <stop offset="1.0" stop-color="#11ff33" stop-opacity="0.0"/>
    </radialGradient>
  </defs>
</svg>
