<?xml version="1.0" encoding="UTF-8" standalone="no"?>
<svg xmlns:ffdec="https://www.free-decompiler.com/flash" xmlns:xlink="http://www.w3.org/1999/xlink" ffdec:objectType="shape" height="22.55px" width="12.6px" xmlns="http://www.w3.org/2000/svg">
  <g transform="matrix(1.0, 0.0, 0.0, 1.0, 3.95, 0.3)">
    <path d="M4.95 3.85 L1.95 2.8 -3.45 5.15 -3.35 2.2 Q-1.35 0.45 0.15 0.25 1.75 0.05 3.55 1.35 L4.95 3.85 M5.9 7.2 L6.9 10.6 6.8 11.9 5.7 12.2 1.15 11.85 -2.2 9.95 Q-2.85 8.85 -3.1 7.6 L1.45 5.6 5.9 7.2" fill="#152026" fill-rule="evenodd" stroke="none"/>
    <path d="M1.45 5.6 L-3.1 7.6 -3.45 5.15 1.95 2.8 4.95 3.85 5.9 7.2 1.45 5.6" fill="#26353e" fill-rule="evenodd" stroke="none"/>
    <path d="M7.85 19.2 L7.2 21.3 Q5.25 23.15 2.95 17.65 L3.15 15.55 3.65 15.7 Q5.3 15.9 6.25 17.9 6.95 19.95 7.85 19.2" fill="#121718" fill-rule="evenodd" stroke="none"/>
    <path d="M1.55 14.7 Q1.15 13.9 1.15 11.85 L5.7 12.2 8.0 17.25 Q8.3 18.0 8.0 18.95 L7.85 19.2 Q6.95 19.95 6.25 17.9 5.3 15.9 3.65 15.7 L3.15 15.55 Q1.85 15.35 1.55 14.7" fill="#26353e" fill-rule="evenodd" stroke="none"/>
    <path d="M1.95 2.8 L4.95 3.85 3.55 1.35 Q1.75 0.05 0.15 0.25 -1.35 0.45 -3.35 2.2 L-3.45 5.15 1.95 2.8 M-3.45 5.15 L-3.1 7.6 1.45 5.6 5.9 7.2 4.95 3.85 M5.9 7.2 L6.9 10.6 6.8 11.9 5.7 12.2 8.0 17.25 Q8.3 18.0 8.0 18.95 L7.85 19.2 7.2 21.3 Q5.25 23.15 2.95 17.65 L3.15 15.55 Q1.85 15.35 1.55 14.7 1.15 13.9 1.15 11.85 L-2.2 9.95 Q-2.85 8.85 -3.1 7.6 M3.15 15.55 L3.65 15.7 Q5.3 15.9 6.25 17.9 6.95 19.95 7.85 19.2 M1.15 11.85 L5.7 12.2" fill="none" stroke="#070a0a" stroke-linecap="round" stroke-linejoin="round" stroke-width="1.0"/>
  </g>
</svg>
