<?xml version="1.0" encoding="UTF-8" standalone="no"?>
<svg xmlns:ffdec="https://www.free-decompiler.com/flash" xmlns:xlink="http://www.w3.org/1999/xlink" ffdec:objectType="shape" height="22.5px" width="12.4px" xmlns="http://www.w3.org/2000/svg">
  <g transform="matrix(1.0, 0.0, 0.0, 1.0, 3.95, 0.35)">
    <path d="M5.85 7.15 L6.75 10.5 6.6 11.85 5.6 12.15 1.05 11.75 -2.3 9.8 Q-2.95 8.7 -3.2 7.5 L1.4 5.5 5.85 7.15 M4.85 3.75 L1.9 2.75 -3.5 5.0 -3.45 2.05 Q-1.4 0.35 0.1 0.1 1.7 0.0 3.5 1.3 L4.85 3.75" fill="#1d1616" fill-rule="evenodd" stroke="none"/>
    <path d="M1.4 5.5 L-3.2 7.5 -3.5 5.0 1.9 2.75 4.85 3.75 5.85 7.15 1.4 5.5" fill="#2a1f1f" fill-rule="evenodd" stroke="none"/>
    <path d="M3.5 15.6 Q5.15 15.85 6.05 17.9 6.8 19.85 7.7 19.1 L7.05 21.25 Q5.0 23.05 2.75 17.55 L2.95 15.45 3.5 15.6" fill="#121718" fill-rule="evenodd" stroke="none"/>
    <path d="M1.05 11.75 L5.6 12.15 7.85 17.2 Q8.15 17.95 7.8 18.9 L7.7 19.1 Q6.8 19.85 6.05 17.9 5.15 15.85 3.5 15.6 L2.95 15.45 Q1.65 15.25 1.4 14.55 1.0 13.75 1.05 11.75" fill="#2a1f1f" fill-rule="evenodd" stroke="none"/>
    <path d="M1.9 2.75 L-3.5 5.0 -3.2 7.5 1.4 5.5 5.85 7.15 4.85 3.75 1.9 2.75 M4.85 3.75 L3.5 1.3 Q1.7 0.0 0.1 0.1 -1.4 0.35 -3.45 2.05 L-3.5 5.0 M1.4 14.55 Q1.65 15.25 2.95 15.45 L3.5 15.6 Q5.15 15.85 6.05 17.9 6.8 19.85 7.7 19.1 L7.8 18.9 Q8.15 17.95 7.85 17.2 L5.6 12.15 1.05 11.75 Q1.0 13.75 1.4 14.55 M1.05 11.75 L-2.3 9.8 Q-2.95 8.7 -3.2 7.5 M7.7 19.1 L7.05 21.25 Q5.0 23.05 2.75 17.55 L2.95 15.45 M5.85 7.15 L6.75 10.5 6.6 11.85 5.6 12.15" fill="none" stroke="#0a0707" stroke-linecap="round" stroke-linejoin="round" stroke-width="0.9500000000000001"/>
  </g>
</svg>
