<?xml version="1.0" encoding="UTF-8" standalone="no"?>
<svg xmlns:ffdec="https://www.free-decompiler.com/flash" xmlns:xlink="http://www.w3.org/1999/xlink" ffdec:objectType="shape" height="28.25px" width="17.1px" xmlns="http://www.w3.org/2000/svg">
  <g transform="matrix(1.0, 0.0, 0.0, 1.0, 9.05, 28.95)">
    <path d="M-5.9 -7.65 Q-6.3 -10.0 -6.85 -11.45 -7.55 -13.35 -7.7 -17.15 -7.9 -21.6 -6.9 -23.65 -4.4 -28.8 -1.15 -28.0 1.3 -27.3 2.85 -25.95 4.05 -24.9 5.55 -22.4 6.75 -20.5 6.65 -17.45 6.55 -15.0 5.6 -11.6 5.35 -10.75 5.3 -8.6 L5.3 -7.65 -5.9 -7.65" fill="url(#gradient0)" fill-rule="evenodd" stroke="none"/>
    <path d="M5.3 -7.65 L5.2 -5.8 Q5.05 -2.55 3.75 -1.7 L-0.15 -1.2 Q-3.3 -1.2 -4.15 -1.85 -4.65 -2.2 -4.8 -3.1 L-5.1 -4.6 -5.8 -7.3 -5.9 -7.65 5.3 -7.65" fill="url(#gradient1)" fill-rule="evenodd" stroke="none"/>
    <path d="M5.3 -7.65 L5.2 -5.8 Q5.05 -2.55 3.75 -1.7 L-0.15 -1.2 Q-3.3 -1.2 -4.15 -1.85 -4.65 -2.2 -4.8 -3.1 L-5.1 -4.6 -5.8 -7.3 -5.9 -7.65 Q-6.3 -10.0 -6.85 -11.45 -7.55 -13.35 -7.7 -17.15 -7.9 -21.6 -6.9 -23.65 -4.4 -28.8 -1.15 -28.0 1.3 -27.3 2.85 -25.95 4.05 -24.9 5.55 -22.4 6.75 -20.5 6.65 -17.45 6.55 -15.0 5.6 -11.6 5.35 -10.75 5.3 -8.6 L5.3 -7.65 Z" fill="none" stroke="#4b4b3e" stroke-linecap="round" stroke-linejoin="round" stroke-width="1.05"/>
    <path d="M-3.25 -8.4 Q-3.55 -6.8 -2.55 -4.8 L-1.45 -3.15" fill="none" stroke="#6c6c5e" stroke-linecap="round" stroke-linejoin="round" stroke-width="1.05"/>
    <path d="M3.4 -10.65 L1.25 -12.15 0.3 -13.1" fill="none" stroke="#6c6c5e" stroke-linecap="round" stroke-linejoin="round" stroke-width="1.05"/>
    <path d="M-4.7 -19.7 Q-3.6 -18.55 -1.2 -18.25 L0.95 -18.25" fill="none" stroke="#6c6c5e" stroke-linecap="round" stroke-linejoin="round" stroke-width="1.05"/>
    <path d="M3.1 -24.05 Q2.5 -24.85 0.7 -25.45 L-2.05 -26.35 Q-3.0 -26.3 -4.05 -25.3 L-5.5 -23.35 Q-6.3 -21.25 -6.4 -20.05 -6.45 -19.2 -6.1 -18.2 L-4.75 -14.05 -0.8 -13.65 3.05 -14.0 4.4 -17.35 Q4.7 -17.95 4.15 -20.6 3.6 -23.25 3.1 -24.05 M-1.25 -28.45 Q-0.65 -28.5 2.0 -27.3 4.75 -26.05 4.9 -25.45 L6.15 -23.05 Q7.35 -21.0 7.5 -19.85 7.7 -17.95 7.15 -13.85 6.65 -10.0 6.25 -9.15 5.8 -8.75 -0.6 -9.05 -7.0 -9.35 -7.05 -9.95 L-8.4 -16.5 Q-9.0 -21.8 -7.35 -24.75 -6.25 -26.5 -4.45 -27.5 -3.0 -28.25 -1.25 -28.45" fill="#8d8879" fill-rule="evenodd" stroke="none"/>
    <path d="M-1.25 -28.45 Q-3.0 -28.25 -4.45 -27.5 -6.25 -26.5 -7.35 -24.75 -9.0 -21.8 -8.4 -16.5 L-7.05 -9.95 Q-7.0 -9.35 -0.6 -9.05 5.8 -8.75 6.25 -9.15 6.65 -10.0 7.15 -13.85 7.7 -17.95 7.5 -19.85 7.35 -21.0 6.15 -23.05 L4.9 -25.45 Q4.75 -26.05 2.0 -27.3 -0.65 -28.5 -1.25 -28.45 M3.1 -24.05 Q3.6 -23.25 4.15 -20.6 4.7 -17.95 4.4 -17.35 L3.05 -14.0 -0.8 -13.65 -4.75 -14.05 -6.1 -18.2 Q-6.45 -19.2 -6.4 -20.05 -6.3 -21.25 -5.5 -23.35 L-4.05 -25.3 Q-3.0 -26.3 -2.05 -26.35 L0.7 -25.45 Q2.5 -24.85 3.1 -24.05 Z" fill="none" stroke="#504a38" stroke-linecap="round" stroke-linejoin="round" stroke-width="1.05"/>
    <path d="M2.75 -10.7 Q2.85 -11.2 3.95 -11.2 5.1 -11.25 5.25 -11.5 5.85 -12.65 6.05 -15.1 L6.1 -17.3" fill="none" stroke="#797362" stroke-linecap="round" stroke-linejoin="round" stroke-width="1.05"/>
    <path d="M-4.75 -14.05 Q-5.95 -12.75 -5.95 -12.25 -6.0 -11.4 -3.7 -10.6" fill="none" stroke="#797362" stroke-linecap="round" stroke-linejoin="round" stroke-width="1.05"/>
  </g>
  <defs>
    <linearGradient gradientTransform="matrix(0.0044, 4.0E-4, -4.0E-4, 0.0044, -2.15, -12.2)" gradientUnits="userSpaceOnUse" id="gradient0" spreadMethod="pad" x1="-819.2" x2="819.2">
      <stop offset="0.0" stop-color="#727066"/>
      <stop offset="1.0" stop-color="#89877b"/>
    </linearGradient>
    <linearGradient gradientTransform="matrix(0.0044, 2.0E-4, -4.0E-4, 0.0026, -2.15, -10.3)" gradientUnits="userSpaceOnUse" id="gradient1" spreadMethod="pad" x1="-819.2" x2="819.2">
      <stop offset="0.0" stop-color="#727066"/>
      <stop offset="1.0" stop-color="#89877b"/>
    </linearGradient>
  </defs>
</svg>
