<?xml version="1.0" encoding="UTF-8" standalone="no"?>
<svg xmlns:xlink="http://www.w3.org/1999/xlink" height="27.95px" width="17.7px" xmlns="http://www.w3.org/2000/svg">
  <g transform="matrix(1.0, 0.0, 0.0, 1.0, 8.25, 28.7)">
    <path d="M-4.4 -8.05 Q-4.7 -9.8 -5.35 -11.75 -7.05 -15.5 -7.0 -19.6 -6.9 -23.75 -5.0 -25.35 L-2.7 -26.9 0.35 -27.35 Q1.35 -27.25 1.95 -26.8 L3.05 -25.45 3.8 -23.85 Q4.05 -22.85 4.4 -22.15 4.9 -21.15 5.55 -20.3 L6.2 -18.9 Q6.4 -18.0 6.05 -16.85 5.65 -15.7 4.75 -14.65 4.15 -13.9 3.9 -12.7 3.55 -11.35 3.9 -10.5 L4.6 -8.05 -4.4 -8.05" fill="url(#gradient0)" fill-rule="evenodd" stroke="none"/>
    <path d="M-4.4 -8.05 L4.6 -8.05 4.8 -7.05 Q4.8 -5.95 4.0 -5.55 L-0.1 -4.95 -3.0 -4.9 -4.15 -5.2 -4.65 -5.7 -4.4 -6.5 Q-4.15 -7.0 -4.2 -7.3 L-4.4 -8.05" fill="url(#gradient1)" fill-rule="evenodd" stroke="none"/>
    <path d="M4.6 -8.05 L3.9 -10.5 Q3.55 -11.35 3.9 -12.7 4.15 -13.9 4.75 -14.65 5.65 -15.7 6.05 -16.85 6.4 -18.0 6.2 -18.9 L5.55 -20.3 Q4.9 -21.15 4.4 -22.15 4.05 -22.85 3.8 -23.85 L3.05 -25.45 1.95 -26.8 Q1.35 -27.25 0.35 -27.35 L-2.7 -26.9 -5.0 -25.35 Q-6.9 -23.75 -7.0 -19.6 -7.05 -15.5 -5.35 -11.75 -4.7 -9.8 -4.4 -8.05 L-4.2 -7.3 Q-4.15 -7.0 -4.4 -6.5 L-4.65 -5.7 -4.15 -5.2 -3.0 -4.9 -0.1 -4.95 4.0 -5.55 Q4.8 -5.95 4.8 -7.05 L4.6 -8.05 Z" fill="none" stroke="#565149" stroke-linecap="round" stroke-linejoin="round" stroke-width="1.05"/>
    <path d="M-1.3 -9.65 Q-0.95 -8.1 0.6 -7.0 1.4 -6.45 2.15 -6.25" fill="none" stroke="#807a6d" stroke-linecap="round" stroke-linejoin="round" stroke-width="1.05"/>
    <path d="M2.15 -10.65 L0.15 -12.05 -0.85 -12.45" fill="none" stroke="#807a6d" stroke-linecap="round" stroke-linejoin="round" stroke-width="1.05"/>
    <path d="M-4.2 -21.55 Q-3.95 -19.1 -1.85 -18.2 -0.85 -17.7 0.15 -17.75" fill="none" stroke="#807a6d" stroke-linecap="round" stroke-linejoin="round" stroke-width="1.05"/>
    <path d="M-5.0 -7.65 L-1.3 -7.1 5.55 -6.85 5.45 -4.1 Q3.8 -4.0 1.65 -4.05 L-4.65 -4.6 -5.0 -7.65" fill="#2b2c37" fill-rule="evenodd" stroke="none"/>
    <path d="M-5.0 -7.65 L-1.3 -7.1 5.55 -6.85 5.45 -4.1 Q3.8 -4.0 1.65 -4.05 L-4.65 -4.6 -5.0 -7.65 Z" fill="none" stroke="#131318" stroke-linecap="round" stroke-linejoin="round" stroke-width="1.05"/>
    <path d="M-6.2 -6.35 L-3.7 -6.1 -4.2 -1.25 -6.65 -1.5 -6.2 -6.35" fill="#2b2c37" fill-rule="evenodd" stroke="none"/>
    <path d="M-6.2 -6.35 L-3.7 -6.1 -4.2 -1.25 -6.65 -1.5 -6.2 -6.35 Z" fill="none" stroke="#131318" stroke-linecap="round" stroke-linejoin="round" stroke-width="1.05"/>
    <path d="M3.45 -7.65 L5.9 -7.85 6.35 -2.5 3.95 -2.3 3.45 -7.65" fill="#2b2c37" fill-rule="evenodd" stroke="none"/>
    <path d="M3.45 -7.65 L5.9 -7.85 6.35 -2.5 3.95 -2.3 3.45 -7.65 Z" fill="none" stroke="#131318" stroke-linecap="round" stroke-linejoin="round" stroke-width="1.05"/>
    <path d="M1.4 -14.25 L1.55 -16.35 2.8 -18.15 Q4.1 -20.3 4.15 -21.9 4.25 -23.85 3.15 -25.2 2.15 -26.45 0.65 -26.6 L0.25 -26.6 Q-1.95 -26.6 -3.7 -25.5 -5.9 -24.1 -5.6 -21.6 -5.45 -20.45 -3.85 -18.55 -2.15 -16.45 -1.9 -15.65 L-1.85 -14.25 -1.85 -10.8 1.15 -11.0 1.4 -14.25 2.3 -14.25 1.4 -14.25 M-4.7 -27.9 L-2.25 -28.2 0.7 -27.9 3.15 -26.8 Q5.35 -25.65 6.15 -24.85 L6.45 -21.15 Q6.55 -17.1 5.65 -13.9 5.25 -12.75 5.25 -10.9 L1.85 -10.65 Q-2.5 -10.35 -6.8 -10.6 L-6.95 -12.35 -7.15 -14.6 -6.65 -12.4 -6.25 -14.55 Q-5.9 -17.05 -6.35 -18.85 -6.65 -21.65 -6.15 -24.0 -5.75 -25.85 -4.7 -27.9 M7.35 -13.85 L6.95 -11.1 6.7 -11.05 7.05 -13.85 7.35 -13.85 M-3.05 -14.3 L-1.85 -14.25 -3.05 -14.3" fill="#252425" fill-rule="evenodd" stroke="none"/>
    <path d="M6.15 -24.85 L6.8 -23.15 8.85 -19.25 Q9.2 -17.05 8.45 -15.9 L7.35 -13.85 7.05 -13.85 5.65 -13.9 Q6.55 -17.1 6.45 -21.15 L6.15 -24.85 M6.95 -11.1 L6.9 -10.55 6.9 -9.6 Q3.8 -8.65 -1.7 -8.65 L-1.95 -8.65 -6.55 -8.85 -6.8 -10.6 Q-2.5 -10.35 1.85 -10.65 L5.25 -10.9 6.7 -11.05 6.95 -11.1 M-7.15 -14.6 L-7.5 -17.05 -7.5 -17.2 -7.6 -17.85 Q-7.85 -20.1 -7.7 -21.95 L-7.4 -24.25 -6.75 -26.3 -6.45 -26.85 -4.65 -28.0 -4.7 -27.9 Q-5.75 -25.85 -6.15 -24.0 -6.65 -21.65 -6.35 -18.85 -5.9 -17.05 -6.25 -14.55 L-6.65 -12.4 -7.15 -14.6" fill="#7a8530" fill-rule="evenodd" stroke="none"/>
    <path d="M7.05 -13.85 L6.7 -11.05 5.25 -10.9 Q5.25 -12.75 5.65 -13.9 L7.05 -13.85" fill="#171717" fill-rule="evenodd" stroke="none"/>
    <path d="M-1.85 -14.25 L-1.9 -15.65 Q-2.15 -16.45 -3.85 -18.55 -5.45 -20.45 -5.6 -21.6 -5.9 -24.1 -3.7 -25.5 -1.95 -26.6 0.25 -26.6 L0.65 -26.6 Q2.15 -26.45 3.15 -25.2 4.25 -23.85 4.15 -21.9 4.1 -20.3 2.8 -18.15 L1.55 -16.35 1.4 -14.25 2.3 -14.25 M-4.7 -27.9 L-2.25 -28.2 0.7 -27.9 3.15 -26.8 M7.35 -13.85 L6.95 -11.1 M-6.8 -10.6 L-6.95 -12.35 -7.15 -14.6 M1.4 -14.25 L1.15 -11.0 -1.85 -10.8 -1.85 -14.25 -3.05 -14.3 M-1.85 -14.25 L1.4 -14.25" fill="none" stroke="#090909" stroke-linecap="round" stroke-linejoin="round" stroke-width="1.05"/>
    <path d="M6.15 -24.85 L6.8 -23.15 8.85 -19.25 Q9.2 -17.05 8.45 -15.9 L7.35 -13.85 7.05 -13.85 5.65 -13.9 Q6.55 -17.1 6.45 -21.15 L6.15 -24.85 M6.95 -11.1 L6.9 -10.55 6.9 -9.6 Q3.8 -8.65 -1.7 -8.65 L-1.95 -8.65 -6.55 -8.85 -6.8 -10.6 Q-2.5 -10.35 1.85 -10.65 L5.25 -10.9 6.7 -11.05 6.95 -11.1 M-7.15 -14.6 L-7.5 -17.05 -7.5 -17.2 -7.6 -17.85 Q-7.85 -20.1 -7.7 -21.95 L-7.4 -24.25 -6.75 -26.3 -6.45 -26.85 -4.65 -28.0 -4.7 -27.9 Q-5.75 -25.85 -6.15 -24.0 -6.65 -21.65 -6.35 -18.85 -5.9 -17.05 -6.25 -14.55 L-6.65 -12.4 -7.15 -14.6 Z" fill="none" stroke="#393f16" stroke-linecap="round" stroke-linejoin="round" stroke-width="1.05"/>
  </g>
  <defs>
    <linearGradient gradientTransform="matrix(0.0038, 2.0E-4, -2.0E-4, 0.0038, -2.55, -13.25)" gradientUnits="userSpaceOnUse" id="gradient0" spreadMethod="pad" x1="-819.2" x2="819.2">
      <stop offset="0.0" stop-color="#8c8372"/>
      <stop offset="1.0" stop-color="#bcb2a1"/>
    </linearGradient>
    <linearGradient gradientTransform="matrix(0.0038, 1.0E-4, -2.0E-4, 0.0014, -2.55, -9.9)" gradientUnits="userSpaceOnUse" id="gradient1" spreadMethod="pad" x1="-819.2" x2="819.2">
      <stop offset="0.0" stop-color="#8c8372"/>
      <stop offset="1.0" stop-color="#bcb2a1"/>
    </linearGradient>
  </defs>
</svg>
