<?xml version="1.0" encoding="UTF-8" standalone="no"?>
<svg xmlns:xlink="http://www.w3.org/1999/xlink" height="27.85px" width="17.05px" xmlns="http://www.w3.org/2000/svg">
  <g transform="matrix(1.0, 0.0, 0.0, 1.0, 9.05, 28.9)">
    <path d="M5.25 -7.45 L5.2 -5.8 Q5.05 -2.8 3.7 -2.0 L-0.2 -1.55 Q-3.35 -1.55 -4.2 -2.1 L-4.85 -3.25 -5.1 -4.65 -5.8 -7.2 -5.85 -7.45 -3.3 -7.45 5.25 -7.45 M-1.5 -3.45 L-2.55 -4.85 Q-3.45 -6.25 -3.3 -7.45 -3.45 -6.25 -2.55 -4.85 L-1.5 -3.45" fill="url(#gradient0)" fill-rule="evenodd" stroke="none"/>
    <path d="M5.25 -7.45 L-3.3 -7.45 -5.85 -7.45 Q-6.3 -9.9 -6.9 -11.45 -7.55 -13.25 -7.75 -17.1 -7.95 -21.55 -6.95 -23.6 -4.4 -28.8 -1.2 -27.9 1.3 -27.25 2.8 -25.9 4.0 -24.85 5.55 -22.35 6.75 -20.45 6.6 -17.4 6.5 -15.0 5.55 -11.55 5.3 -10.7 5.25 -8.55 L5.25 -7.45 M0.9 -18.2 L-1.25 -18.25 Q-3.65 -18.5 -4.75 -19.65 -3.65 -18.5 -1.25 -18.25 L0.9 -18.2 M0.3 -13.05 L1.2 -12.1 Q2.3 -11.05 3.4 -10.6 2.3 -11.05 1.2 -12.1 L0.3 -13.05 M-3.25 -7.9 L-3.3 -7.45 -3.25 -7.9" fill="url(#gradient1)" fill-rule="evenodd" stroke="none"/>
    <path d="M-5.85 -7.45 L-5.8 -7.2 -5.1 -4.65 -4.85 -3.25 -4.2 -2.1 Q-3.35 -1.55 -0.2 -1.55 L3.7 -2.0 Q5.05 -2.8 5.2 -5.8 L5.25 -7.45 5.25 -8.55 Q5.3 -10.7 5.55 -11.55 6.5 -15.0 6.6 -17.4 6.75 -20.45 5.55 -22.35 4.0 -24.85 2.8 -25.9 1.3 -27.25 -1.2 -27.9 -4.4 -28.8 -6.95 -23.6 -7.95 -21.55 -7.75 -17.1 -7.55 -13.25 -6.9 -11.45 -6.3 -9.9 -5.85 -7.45" fill="none" stroke="#565149" stroke-linecap="round" stroke-linejoin="round" stroke-width="1.05"/>
    <path d="M-3.3 -7.45 Q-3.45 -6.25 -2.55 -4.85 L-1.5 -3.45 M-3.3 -7.45 L-3.25 -7.9 M3.4 -10.6 Q2.3 -11.05 1.2 -12.1 L0.3 -13.05 M-4.75 -19.65 Q-3.65 -18.5 -1.25 -18.25 L0.9 -18.2" fill="none" stroke="#807a6d" stroke-linecap="round" stroke-linejoin="round" stroke-width="1.05"/>
    <path d="M-4.8 -14.0 L-0.8 -13.6 3.05 -13.95 4.4 -17.3 Q4.65 -17.9 4.1 -20.6 3.6 -23.2 3.05 -24.0 2.45 -24.8 0.65 -25.4 L-2.1 -26.35 -4.05 -25.25 -5.55 -23.35 Q-6.35 -21.2 -6.4 -20.05 -6.45 -19.15 -6.1 -18.15 L-4.8 -14.0 Q-6.0 -12.7 -6.0 -12.2 -6.0 -11.3 -3.7 -10.55 -6.0 -11.3 -6.0 -12.2 -6.0 -12.7 -4.8 -14.0 M2.0 -27.25 Q4.75 -26.05 4.85 -25.4 L6.15 -23.0 Q7.35 -20.95 7.45 -19.8 7.65 -17.9 7.15 -13.8 6.65 -10.0 6.25 -9.15 5.8 -8.7 -0.6 -9.0 -7.05 -9.35 -7.1 -9.9 L-8.4 -16.45 Q-9.0 -21.75 -7.35 -24.7 -6.25 -26.5 -4.5 -27.45 -3.0 -28.25 -1.25 -28.4 -0.65 -28.45 2.0 -27.25 M6.05 -17.3 L6.0 -15.1 Q5.85 -12.65 5.2 -11.5 5.05 -11.2 3.9 -11.15 2.8 -11.15 2.7 -10.65 2.8 -11.15 3.9 -11.15 5.05 -11.2 5.2 -11.5 5.85 -12.65 6.0 -15.1 L6.05 -17.3" fill="#5e5e5e" fill-rule="evenodd" stroke="none"/>
    <path d="M2.0 -27.25 Q-0.65 -28.45 -1.25 -28.4 -3.0 -28.25 -4.5 -27.45 -6.25 -26.5 -7.35 -24.7 -9.0 -21.75 -8.4 -16.45 L-7.1 -9.9 Q-7.05 -9.35 -0.6 -9.0 5.8 -8.7 6.25 -9.15 6.65 -10.0 7.15 -13.8 7.65 -17.9 7.45 -19.8 7.35 -20.95 6.15 -23.0 L4.85 -25.4 Q4.75 -26.05 2.0 -27.25 M-4.8 -14.0 L-6.1 -18.15 Q-6.45 -19.15 -6.4 -20.05 -6.35 -21.2 -5.55 -23.35 L-4.05 -25.25 -2.1 -26.35 0.65 -25.4 Q2.45 -24.8 3.05 -24.0 3.6 -23.2 4.1 -20.6 4.65 -17.9 4.4 -17.3 L3.05 -13.95 -0.8 -13.6 -4.8 -14.0" fill="none" stroke="#313131" stroke-linecap="round" stroke-linejoin="round" stroke-width="1.05"/>
    <path d="M-4.8 -14.0 Q-6.0 -12.7 -6.0 -12.2 -6.0 -11.3 -3.7 -10.55 M2.7 -10.65 Q2.8 -11.15 3.9 -11.15 5.05 -11.2 5.2 -11.5 5.85 -12.65 6.0 -15.1 L6.05 -17.3" fill="none" stroke="#474747" stroke-linecap="round" stroke-linejoin="round" stroke-width="1.05"/>
  </g>
  <defs>
    <linearGradient gradientTransform="matrix(0.0044, 2.0E-4, -4.0E-4, 0.0024, -2.2, -10.0)" gradientUnits="userSpaceOnUse" id="gradient0" spreadMethod="pad" x1="-819.2" x2="819.2">
      <stop offset="0.0" stop-color="#8c8372"/>
      <stop offset="1.0" stop-color="#bcb2a1"/>
    </linearGradient>
    <linearGradient gradientTransform="matrix(0.0044, 4.0E-4, -4.0E-4, 0.0044, -2.2, -12.15)" gradientUnits="userSpaceOnUse" id="gradient1" spreadMethod="pad" x1="-819.2" x2="819.2">
      <stop offset="0.0" stop-color="#8c8372"/>
      <stop offset="1.0" stop-color="#bcb2a1"/>
    </linearGradient>
  </defs>
</svg>
