<?xml version="1.0" encoding="UTF-8" standalone="no"?>
<svg xmlns:xlink="http://www.w3.org/1999/xlink" height="18.9px" width="17.25px" xmlns="http://www.w3.org/2000/svg">
  <g transform="matrix(1.0, 0.0, 0.0, 1.0, 7.4, 17.7)">
    <path d="M-2.4 -1.6 L-3.5 -2.1 Q-6.8 -3.55 -6.9 -7.75 -7.05 -12.0 -4.65 -14.65 -2.15 -17.25 1.25 -17.2 4.65 -17.25 7.05 -14.65 8.8 -12.75 9.3 -10.45 L7.5 -10.45 1.0 -10.45 Q-4.4 -9.9 1.05 -6.2 L7.95 -4.75 Q10.95 -5.1 7.55 -1.75 L2.8 -1.35 -2.4 -1.6" fill="#cacaca" fill-rule="evenodd" stroke="none"/>
    <path d="M7.5 -10.45 Q8.15 -9.2 8.15 -7.6 L7.95 -4.75 1.05 -6.2 Q-4.4 -9.9 1.0 -10.45 L7.5 -10.45 M5.4 -8.4 L3.7 -8.4 5.4 -8.4" fill="#bf7c51" fill-rule="evenodd" stroke="none"/>
    <path d="M2.8 -1.35 L2.8 0.7 -0.2 0.6 -2.3 0.3 -2.4 0.25 -2.4 -1.6 2.8 -1.35" fill="#000000" fill-rule="evenodd" stroke="none"/>
    <path d="M2.8 -1.35 L2.8 0.7 -0.2 0.6 -2.3 0.3 -2.4 0.25 -2.4 -1.6" fill="none" stroke="#000000" stroke-linecap="round" stroke-linejoin="round" stroke-width="1.0"/>
    <path d="M3.7 -8.4 L5.4 -8.4" fill="none" stroke="#965225" stroke-linecap="round" stroke-linejoin="round" stroke-width="2.0"/>
    <path d="M7.5 -10.45 Q8.15 -9.2 8.15 -7.6 L7.95 -4.75" fill="none" stroke="#5d3c27" stroke-linecap="round" stroke-linejoin="round" stroke-width="1.0"/>
    <path d="M-2.4 -1.6 L-3.5 -2.1 Q-6.8 -3.55 -6.9 -7.75 -7.05 -12.0 -4.65 -14.65 -2.15 -17.25 1.25 -17.2 4.65 -17.25 7.05 -14.65 8.8 -12.75 9.3 -10.45 L7.5 -10.45 1.0 -10.45 Q-4.4 -9.9 1.05 -6.2 L7.95 -4.75 Q10.95 -5.1 7.55 -1.75 L2.8 -1.35 -2.4 -1.6 Z" fill="none" stroke="#3c3c3c" stroke-linecap="round" stroke-linejoin="round" stroke-width="1.0"/>
  </g>
</svg>
