<?xml version="1.0" encoding="UTF-8" standalone="no"?>
<svg xmlns:xlink="http://www.w3.org/1999/xlink" height="24.15px" width="21.5px" xmlns="http://www.w3.org/2000/svg">
  <g transform="matrix(1.0, 0.0, 0.0, 1.0, -28.65, 10.9)">
    <path d="M36.25 -10.9 Q39.0 -10.9 41.0 -7.35 42.95 -3.8 42.95 1.2 42.95 6.15 41.0 9.7 39.0 13.25 36.25 13.25 L35.8 13.15 35.35 13.25 Q32.55 13.25 30.6 9.7 28.6 6.15 28.65 1.2 28.6 -3.8 30.6 -7.35 32.55 -10.9 35.35 -10.9 L35.8 -10.85 36.25 -10.9" fill="url(#gradient0)" fill-rule="evenodd" stroke="none"/>
    <path d="M39.9 -5.7 L40.55 -5.7 Q44.5 -5.7 47.35 -3.7 50.15 -1.7 50.15 1.1 50.15 3.9 47.35 5.9 44.5 7.9 40.55 7.9 L39.9 7.85 39.25 7.9 Q35.25 7.9 32.45 5.9 29.55 3.9 29.65 1.1 29.55 -1.7 32.45 -3.7 35.25 -5.7 39.25 -5.7 L39.9 -5.7" fill="url(#gradient1)" fill-rule="evenodd" stroke="none"/>
  </g>
  <defs>
    <radialGradient cx="0" cy="0" gradientTransform="matrix(0.0083, 0.0, 0.0, 0.0143, 35.7, 1.0)" gradientUnits="userSpaceOnUse" id="gradient0" r="819.2" spreadMethod="pad">
      <stop offset="0.17647058823529413" stop-color="#ffffff"/>
      <stop offset="1.0" stop-color="#ff1111" stop-opacity="0.0"/>
    </radialGradient>
    <radialGradient cx="0" cy="0" gradientTransform="matrix(0.0119, 0.0, 0.0, 0.0081, 39.75, 1.0)" gradientUnits="userSpaceOnUse" id="gradient1" r="819.2" spreadMethod="pad">
      <stop offset="0.17647058823529413" stop-color="#ffffff"/>
      <stop offset="1.0" stop-color="#ff1111" stop-opacity="0.0"/>
    </radialGradient>
  </defs>
</svg>
