<?xml version="1.0" encoding="UTF-8" standalone="no"?>
<svg xmlns:ffdec="https://www.free-decompiler.com/flash" xmlns:xlink="http://www.w3.org/1999/xlink" ffdec:objectType="shape" height="24.85px" width="16.7px" xmlns="http://www.w3.org/2000/svg">
  <g transform="matrix(1.0, 0.0, 0.0, 1.0, 8.75, 28.4)">
    <path d="M-4.5 -8.75 L-5.35 -11.95 Q-7.1 -15.85 -7.25 -19.85 -7.35 -24.05 -5.5 -25.6 -4.15 -26.75 -2.95 -27.3 -1.4 -28.0 0.35 -27.9 1.35 -27.85 2.1 -27.2 L3.4 -25.65 4.1 -24.05 Q4.35 -23.1 4.7 -22.4 L5.75 -20.5 6.15 -19.15 Q6.4 -18.2 5.95 -17.05 5.45 -15.85 4.4 -15.0 3.55 -14.3 3.4 -13.05 3.3 -11.9 3.9 -10.75 L4.5 -8.75 -4.5 -8.75" fill="url(#gradient0)" fill-rule="evenodd" stroke="none"/>
    <path d="M-4.5 -8.75 L4.5 -8.75 4.8 -7.1 Q4.8 -5.55 3.95 -4.95 3.05 -4.35 -0.1 -4.1 L-3.05 -4.05 -4.2 -4.55 Q-4.7 -4.85 -4.7 -5.2 L-4.4 -6.35 -4.2 -7.5 -4.5 -8.75" fill="url(#gradient1)" fill-rule="evenodd" stroke="none"/>
    <path d="M4.5 -8.75 L3.9 -10.75 Q3.3 -11.9 3.4 -13.05 3.55 -14.3 4.4 -15.0 5.45 -15.85 5.95 -17.05 6.4 -18.2 6.15 -19.15 L5.75 -20.5 4.7 -22.4 Q4.35 -23.1 4.1 -24.05 L3.4 -25.65 2.1 -27.2 Q1.35 -27.85 0.35 -27.9 -1.4 -28.0 -2.95 -27.3 -4.15 -26.75 -5.5 -25.6 -7.35 -24.05 -7.25 -19.85 -7.1 -15.85 -5.35 -11.95 L-4.5 -8.75 -4.2 -7.5 -4.4 -6.35 -4.7 -5.2 Q-4.7 -4.85 -4.2 -4.55 L-3.05 -4.05 -0.1 -4.1 Q3.05 -4.35 3.95 -4.95 4.8 -5.55 4.8 -7.1 L4.5 -8.75 Z" fill="none" stroke="#3b3e38" stroke-linecap="round" stroke-linejoin="round" stroke-width="1.05"/>
    <path d="M-1.05 -8.1 Q-0.85 -6.9 -1.95 -5.85 L-3.1 -5.0" fill="none" stroke="#575d53" stroke-linecap="round" stroke-linejoin="round" stroke-width="1.05"/>
    <path d="M0.1 -10.8 Q0.4 -9.25 2.0 -8.15 2.75 -7.6 3.5 -7.4" fill="none" stroke="#575d53" stroke-linecap="round" stroke-linejoin="round" stroke-width="1.05"/>
    <path d="M2.1 -10.9 L0.15 -12.3 -0.85 -12.7" fill="none" stroke="#575d53" stroke-linecap="round" stroke-linejoin="round" stroke-width="1.05"/>
    <path d="M-4.25 -21.8 Q-3.95 -19.35 -1.9 -18.4 -0.85 -17.95 0.15 -18.0" fill="none" stroke="#575d53" stroke-linecap="round" stroke-linejoin="round" stroke-width="1.05"/>
    <path d="M-5.35 -22.4 L-6.2 -19.8 -5.9 -18.6 -4.35 -14.45 -0.85 -14.05 2.6 -14.4 3.95 -16.7 Q4.35 -17.3 3.85 -19.95 3.45 -22.5 2.9 -23.35 2.6 -23.8 0.45 -24.55 L-2.3 -25.4 Q-3.2 -25.3 -4.1 -24.35 L-5.35 -22.4 M-6.5 -11.15 L-7.65 -15.3 Q-9.0 -21.3 -7.4 -24.15 L-5.75 -26.25 Q-4.9 -27.0 -3.45 -27.15 L0.85 -26.55 Q3.7 -25.95 3.8 -25.45 L5.55 -22.9 Q7.25 -20.6 7.4 -19.45 7.6 -17.75 7.0 -15.6 L6.25 -12.45 6.25 -9.3 Q6.3 -8.05 5.95 -7.75 5.5 -7.3 -0.1 -7.65 -5.75 -7.95 -5.8 -8.55 L-6.5 -11.15" fill="#907b66" fill-rule="evenodd" stroke="none"/>
    <path d="M-6.5 -11.15 L-5.8 -8.55 Q-5.75 -7.95 -0.1 -7.65 5.5 -7.3 5.95 -7.75 6.3 -8.05 6.25 -9.3 L6.25 -12.45 7.0 -15.6 Q7.6 -17.75 7.4 -19.45 7.25 -20.6 5.55 -22.9 L3.8 -25.45 Q3.7 -25.95 0.85 -26.55 L-3.45 -27.15 Q-4.9 -27.0 -5.75 -26.25 L-7.4 -24.15 Q-9.0 -21.3 -7.65 -15.3 L-6.5 -11.15 M-5.35 -22.4 L-4.1 -24.35 Q-3.2 -25.3 -2.3 -25.4 L0.45 -24.55 Q2.6 -23.8 2.9 -23.35 3.45 -22.5 3.85 -19.95 4.35 -17.3 3.95 -16.7 L2.6 -14.4 -0.85 -14.05 -4.35 -14.45 -5.9 -18.6 -6.2 -19.8 -5.35 -22.4 Z" fill="none" stroke="#463c31" stroke-linecap="round" stroke-linejoin="round" stroke-width="1.05"/>
    <path d="M6.25 -12.45 L3.55 -12.55 3.3 -9.35" fill="none" stroke="#6d5d4d" stroke-linecap="round" stroke-linejoin="round" stroke-width="1.05"/>
    <path d="M-3.1 -10.25 L1.45 -10.0" fill="none" stroke="#6d5d4d" stroke-linecap="round" stroke-linejoin="round" stroke-width="1.05"/>
    <path d="M-5.35 -13.05 L-3.65 -12.1 -1.45 -11.95" fill="none" stroke="#6d5d4d" stroke-linecap="round" stroke-linejoin="round" stroke-width="1.05"/>
  </g>
  <defs>
    <linearGradient gradientTransform="matrix(0.0038, 2.0E-4, -2.0E-4, 0.0038, -2.6, -13.65)" gradientUnits="userSpaceOnUse" id="gradient0" spreadMethod="pad" x1="-819.2" x2="819.2">
      <stop offset="0.0" stop-color="#61695e"/>
      <stop offset="1.0" stop-color="#787f72"/>
    </linearGradient>
    <linearGradient gradientTransform="matrix(0.0038, 1.0E-4, -2.0E-4, 0.0019, -2.6, -11.25)" gradientUnits="userSpaceOnUse" id="gradient1" spreadMethod="pad" x1="-819.2" x2="819.2">
      <stop offset="0.0" stop-color="#61695e"/>
      <stop offset="1.0" stop-color="#787f72"/>
    </linearGradient>
  </defs>
</svg>
