<?xml version="1.0" encoding="UTF-8" standalone="no"?>
<svg xmlns:ffdec="https://www.free-decompiler.com/flash" xmlns:xlink="http://www.w3.org/1999/xlink" ffdec:objectType="shape" height="25.1px" width="13.9px" xmlns="http://www.w3.org/2000/svg">
  <g transform="matrix(1.0, 0.0, 0.0, 1.0, 7.3, 5.0)">
    <path d="M-0.5 9.0 L-3.4 0.15 -2.6 -4.15 3.75 -1.85 5.4 2.55 -0.5 9.0" fill="url(#gradient0)" fill-rule="evenodd" stroke="none"/>
    <path d="M-0.15 16.2 L1.05 13.8 5.35 13.05 6.15 14.8 5.25 14.95 0.55 16.05 -0.15 16.2" fill="url(#gradient1)" fill-rule="evenodd" stroke="none"/>
    <path d="M5.25 14.95 Q6.45 17.1 5.45 18.65 4.4 20.15 2.35 19.6 0.4 18.75 0.55 16.05 L5.25 14.95" fill="#2a2a2a" fill-rule="evenodd" stroke="none"/>
    <path d="M-0.15 16.2 L-5.15 2.1 -3.4 0.15 -0.5 9.0 1.05 13.8 -0.15 16.2" fill="url(#gradient2)" fill-rule="evenodd" stroke="none"/>
    <path d="M1.1 13.6 L-0.45 8.75 4.2 3.65 6.05 10.1 5.4 12.85 1.1 13.6" fill="url(#gradient3)" fill-rule="evenodd" stroke="none"/>
    <path d="M-0.45 8.75 L-3.35 0.0 -5.1 1.95 -0.15 16.0 1.1 13.6 -0.45 8.75 4.2 3.65 5.35 2.4 3.8 -2.05 -2.5 -4.3 -3.35 0.0 M1.1 13.6 L5.4 12.85 6.05 10.1 4.2 3.65 M5.4 12.85 L6.1 14.65 5.2 14.8 Q6.45 16.9 5.55 18.45 4.4 20.0 2.4 19.5 0.4 18.6 0.55 15.9 L-0.15 16.0 M0.55 15.9 L5.2 14.8" fill="none" stroke="#000000" stroke-linecap="round" stroke-linejoin="round" stroke-width="1.0"/>
    <path d="M-0.75 -2.0 Q-0.45 -0.6 -1.15 0.45 -1.9 1.55 -3.2 1.65 -4.4 2.05 -5.4 1.25 -6.4 0.55 -6.8 -0.75 L-6.6 -1.45 Q-6.6 -2.3 -6.05 -3.1 -5.45 -4.15 -4.2 -4.45 L-3.15 -4.5 Q-2.5 -4.45 -1.8 -4.05 -0.85 -3.25 -0.75 -2.0 M-2.35 0.2 L-1.85 -0.15 Q-1.5 -0.9 -1.65 -1.7 -1.8 -2.6 -2.45 -3.15 L-3.25 -3.6 -4.1 -3.5 -4.95 -3.1 -5.35 -2.55 -5.75 -1.35 -5.7 -1.0 Q-5.6 -0.05 -4.85 0.5 -4.25 1.05 -3.2 0.7 -2.75 0.65 -2.35 0.2" fill="url(#gradient4)" fill-rule="evenodd" stroke="none"/>
    <path d="M-2.35 0.2 Q-2.75 0.65 -3.2 0.7 -4.25 1.05 -4.85 0.5 -5.6 -0.05 -5.7 -1.0 L-5.75 -1.35 -5.35 -2.55 -4.95 -3.1 -4.1 -3.5 -3.25 -3.6 -2.45 -3.15 Q-1.8 -2.6 -1.65 -1.7 -1.5 -0.9 -1.85 -0.15 L-2.35 0.2" fill="#222222" fill-rule="evenodd" stroke="none"/>
    <path d="M-0.75 -2.0 Q-0.45 -0.6 -1.15 0.45 -1.9 1.55 -3.2 1.65 -4.4 2.05 -5.4 1.25 -6.4 0.55 -6.8 -0.75 L-6.6 -1.45 Q-6.6 -2.3 -6.05 -3.1 -5.45 -4.15 -4.2 -4.45 L-3.15 -4.5 Q-2.5 -4.45 -1.8 -4.05 -0.85 -3.25 -0.75 -2.0 Z" fill="none" stroke="#000000" stroke-linecap="round" stroke-linejoin="round" stroke-width="1.0"/>
  </g>
  <defs>
    <radialGradient cx="0" cy="0" gradientTransform="matrix(0.0159, 0.0129, -0.013, 0.0141, -9.95, 4.4)" gradientUnits="userSpaceOnUse" id="gradient0" r="819.2" spreadMethod="pad">
      <stop offset="0.0" stop-color="#333333"/>
      <stop offset="0.0" stop-color="#333333"/>
      <stop offset="0.5098039215686274" stop-color="#191919"/>
      <stop offset="1.0" stop-color="#333333"/>
    </radialGradient>
    <radialGradient cx="0" cy="0" gradientTransform="matrix(0.0044, 0.0015, -0.0015, 0.0044, 3.25, 14.5)" gradientUnits="userSpaceOnUse" id="gradient1" r="819.2" spreadMethod="pad">
      <stop offset="0.0" stop-color="#756d5f"/>
      <stop offset="1.0" stop-color="#1f1f1f"/>
      <stop offset="1.0" stop-color="#333333"/>
      <stop offset="1.0" stop-color="#333333"/>
      <stop offset="1.0" stop-color="#202121"/>
      <stop offset="1.0" stop-color="#202121"/>
    </radialGradient>
    <radialGradient cx="0" cy="0" gradientTransform="matrix(0.0328, 0.0109, -0.0109, 0.0328, 4.5, 27.2)" gradientUnits="userSpaceOnUse" id="gradient2" r="819.2" spreadMethod="pad">
      <stop offset="0.0" stop-color="#756d5f"/>
      <stop offset="1.0" stop-color="#1f1f1f"/>
      <stop offset="1.0" stop-color="#333333"/>
      <stop offset="1.0" stop-color="#333333"/>
      <stop offset="1.0" stop-color="#202121"/>
      <stop offset="1.0" stop-color="#202121"/>
    </radialGradient>
    <radialGradient cx="0" cy="0" gradientTransform="matrix(0.02, 0.0067, -0.0067, 0.02, 5.35, 20.8)" gradientUnits="userSpaceOnUse" id="gradient3" r="819.2" spreadMethod="pad">
      <stop offset="0.0" stop-color="#333333"/>
      <stop offset="0.0" stop-color="#333333"/>
      <stop offset="0.5098039215686274" stop-color="#191919"/>
      <stop offset="1.0" stop-color="#333333"/>
    </radialGradient>
    <radialGradient cx="0" cy="0" gradientTransform="matrix(0.007, 0.0023, -0.0023, 0.007, -1.55, -0.2)" gradientUnits="userSpaceOnUse" id="gradient4" r="819.2" spreadMethod="pad">
      <stop offset="0.0" stop-color="#756d5f"/>
      <stop offset="1.0" stop-color="#1f1f1f"/>
      <stop offset="1.0" stop-color="#333333"/>
      <stop offset="1.0" stop-color="#333333"/>
      <stop offset="1.0" stop-color="#202121"/>
      <stop offset="1.0" stop-color="#202121"/>
    </radialGradient>
  </defs>
</svg>
