<?xml version="1.0" encoding="UTF-8" standalone="no"?>
<svg xmlns:ffdec="https://www.free-decompiler.com/flash" xmlns:xlink="http://www.w3.org/1999/xlink" ffdec:objectType="shape" height="39.15px" width="26.45px" xmlns="http://www.w3.org/2000/svg">
  <g transform="matrix(1.0, 0.0, 0.0, 1.0, 0.5, 0.5)">
    <path d="M12.25 13.85 L12.25 14.9 Q12.25 14.4 11.9 14.5 L11.4 14.6 12.25 13.85 M15.05 8.65 L14.9 8.85 15.05 8.65 M11.8 3.9 L11.85 4.05 11.7 4.0 11.8 3.9 M1.3 8.0 L1.7 7.7 3.4 6.4 3.4 6.15 3.5 6.85 4.0 8.25 4.4 8.8 6.55 11.7 6.8 12.05 8.4 14.1 8.95 14.8 9.0 14.9 8.85 15.05 7.45 16.1 5.1 13.05 5.0 12.9 4.45 13.3 0.75 8.4 1.3 8.0 M2.15 8.3 L1.7 7.7 2.15 8.3 M4.3 11.15 L3.9 10.6 4.3 11.15 M12.8 15.6 L16.15 16.1 17.5 15.65 17.65 16.9 Q17.5 18.75 17.05 18.75 15.9 19.6 14.65 19.2 13.45 18.5 13.1 17.45 L12.8 15.6 M5.0 12.9 L6.55 11.7 5.0 12.9" fill="#232323" fill-rule="evenodd" stroke="none"/>
    <path d="M11.7 4.0 L11.85 4.05 11.8 3.9 13.4 4.5 Q14.1 5.3 14.8 6.45 L13.35 5.05 12.65 4.45 11.7 4.0 M15.1 7.05 L15.4 7.6 15.4 7.75 15.25 7.4 15.1 7.05 M15.1 8.65 L15.05 8.65 15.1 8.65" fill="#8a8580" fill-rule="evenodd" stroke="none"/>
    <path d="M11.8 3.9 L11.15 4.35 11.8 3.9 11.7 4.0 13.35 5.05 14.8 6.45 15.1 7.05 15.25 7.4 Q15.35 8.05 15.05 8.65 L15.9 10.05 Q16.2 11.05 15.85 11.8 L15.15 12.85 14.25 13.5 Q13.5 13.95 12.25 14.95 L12.25 14.9 12.25 13.85 13.05 12.55 12.2 10.8 12.15 10.7 11.4 9.75 10.75 9.15 10.25 8.75 9.3 5.75 11.15 4.35 9.0 1.25 Q10.2 1.45 10.55 2.1 L11.8 3.9 M14.9 8.85 L15.05 8.65 14.9 8.85 14.1 9.5 14.9 8.85" fill="url(#gradient0)" fill-rule="evenodd" stroke="none"/>
    <path d="M12.25 14.9 L12.25 14.95 11.9 14.5 Q12.25 14.4 12.25 14.9 M6.95 1.75 Q7.85 3.05 8.4 4.45 L8.45 5.45 8.35 5.3 8.15 5.0 7.35 4.3 6.5 3.7 Q5.8 2.45 4.45 1.6 3.3 1.45 0.75 2.4 L0.85 1.05 Q3.65 -0.4 4.95 0.15 5.95 0.65 6.95 1.75" fill="#666666" fill-rule="evenodd" stroke="none"/>
    <path d="M7.9 16.9 L7.8 16.95 4.9 13.2 5.1 13.05 7.45 16.1 8.85 15.05 9.4 15.75 7.9 16.9 9.4 15.75 10.25 16.9 9.1 17.75 8.75 18.05 7.9 16.9" fill="#353535" fill-rule="evenodd" stroke="none"/>
    <path d="M4.05 8.2 L4.1 8.05 4.15 8.15 4.05 8.2" fill="#562626" fill-rule="evenodd" stroke="none"/>
    <path d="M12.25 14.95 Q13.5 13.95 14.25 13.5 L15.15 12.85 15.85 11.8 Q17.7 13.1 17.5 15.65 L16.15 16.1 12.8 15.6 12.25 14.95" fill="url(#gradient1)" fill-rule="evenodd" stroke="none"/>
    <path d="M9.3 5.75 L10.25 8.75 10.75 9.15 11.4 9.75 12.15 10.7 12.2 10.8 13.05 12.55 12.25 13.85 11.4 14.6 Q10.5 15.25 9.35 15.35 L9.0 14.9 8.95 14.8 8.4 14.1 6.8 12.05 6.55 11.7 4.4 8.8 4.0 8.25 3.5 6.85 3.4 6.15 3.35 5.75 6.25 3.55 6.5 3.7 7.35 4.3 8.15 5.0 8.35 5.3 8.45 5.45 Q8.65 5.7 9.3 5.75 M4.05 8.2 L4.15 8.15 4.1 8.05 4.05 8.2 M7.1 8.55 L5.8 6.8 7.1 8.55 M11.05 12.6 L10.0 11.05 11.05 12.6 M6.95 11.3 L10.25 8.75 6.95 11.3" fill="url(#gradient2)" fill-rule="evenodd" stroke="none"/>
    <path d="M9.0 1.25 L11.15 4.35 9.3 5.75 Q8.65 5.7 8.45 5.45 L8.4 4.45 Q7.85 3.05 6.95 1.75 L8.3 1.15 9.0 1.25" fill="url(#gradient3)" fill-rule="evenodd" stroke="none"/>
    <path d="M6.5 3.7 L6.25 3.55 3.35 5.75 3.4 6.15 3.4 6.4 1.7 7.7 1.3 8.0 0.4 6.75 Q0.05 6.35 0.0 4.85 0.05 3.35 0.75 2.4 3.3 1.45 4.45 1.6 5.8 2.45 6.5 3.7" fill="url(#gradient4)" fill-rule="evenodd" stroke="none"/>
    <path d="M9.0 1.25 L11.15 4.35 M9.3 5.75 L10.25 8.75 10.75 9.15 11.4 9.75 12.15 10.7 12.2 10.8 13.05 12.55 12.25 13.85 12.25 14.9 12.25 14.95 11.9 14.5 11.4 14.6 12.25 13.85 M6.95 1.75 L8.55 0.6 9.0 1.25 M6.95 1.75 Q7.85 3.05 8.4 4.45 L8.45 5.45 Q8.65 5.7 9.3 5.75 M6.5 3.7 L7.35 4.3 8.15 5.0 8.35 5.3 8.45 5.45 M3.4 6.15 L3.35 5.75 6.25 3.55 6.5 3.7 Q5.8 2.45 4.45 1.6 3.3 1.45 0.75 2.4 0.05 3.35 0.0 4.85 0.05 6.35 0.4 6.75 L1.3 8.0 1.7 7.7 3.4 6.4 3.4 6.15 3.5 6.85 4.0 8.25 4.4 8.8 6.55 11.7 6.8 12.05 8.4 14.1 8.95 14.8 9.0 14.9 9.35 15.35 Q10.5 15.25 11.4 14.6 M0.75 2.4 L0.85 1.05 Q3.65 -0.4 4.95 0.15 5.95 0.65 6.95 1.75 M1.7 7.7 L2.15 8.3 M5.1 13.05 L5.0 12.9 4.45 13.3 0.75 8.4 1.3 8.0 M3.9 10.6 L4.3 11.15 M8.85 15.05 L9.0 14.9 M8.85 15.05 L7.45 16.1 5.1 13.05 M17.5 15.65 L16.15 16.1 12.8 15.6 13.1 17.45 Q13.45 18.5 14.65 19.2 15.9 19.6 17.05 18.75 17.5 18.75 17.65 16.9 L17.5 15.65 Q17.7 13.1 15.85 11.8 M11.9 14.5 Q12.25 14.4 12.25 14.9 M12.8 15.6 L12.25 14.95 M6.55 11.7 L5.0 12.9 M10.25 8.75 L6.95 11.3" fill="none" stroke="#0f0f0f" stroke-linecap="round" stroke-linejoin="round" stroke-width="1.0"/>
    <path d="M5.1 13.05 L4.9 13.2 7.8 16.95 7.9 16.9 9.4 15.75 8.85 15.05 M9.1 17.75 L8.75 18.05 7.9 16.9 M9.4 15.75 L10.25 16.9" fill="none" stroke="#1c1c1c" stroke-linecap="round" stroke-linejoin="round" stroke-width="1.0"/>
    <path d="M11.15 4.35 L11.8 3.9 13.4 4.5 Q14.1 5.3 14.8 6.45 L15.1 7.05 15.4 7.6 M11.15 4.35 L9.3 5.75 M12.25 14.95 Q13.5 13.95 14.25 13.5 L15.15 12.85 15.85 11.8 Q16.2 11.05 15.9 10.05 L15.05 8.65 14.9 8.85 14.1 9.5 M15.4 7.75 L15.1 8.65" fill="none" stroke="#474747" stroke-linecap="round" stroke-linejoin="round" stroke-width="1.0"/>
    <path d="M9.75 17.65 L25.45 38.15" fill="none" stroke="url(#gradient5)" stroke-linecap="round" stroke-linejoin="round" stroke-width="1.0"/>
    <path d="M5.8 6.8 L7.1 8.55 M10.0 11.05 L11.05 12.6" fill="none" stroke="#0f0f0f" stroke-linecap="round" stroke-linejoin="round" stroke-opacity="0.29803923" stroke-width="1.0"/>
  </g>
  <defs>
    <radialGradient cx="0" cy="0" gradientTransform="matrix(0.0092, 0.0, 0.0, 0.0092, 11.5, 7.7)" gradientUnits="userSpaceOnUse" id="gradient0" r="819.2" spreadMethod="pad">
      <stop offset="0.0" stop-color="#cccccc"/>
      <stop offset="1.0" stop-color="#666666"/>
    </radialGradient>
    <radialGradient cx="0" cy="0" gradientTransform="matrix(0.0052, 0.0, 0.0, 0.0052, 16.45, 13.95)" gradientUnits="userSpaceOnUse" id="gradient1" r="819.2" spreadMethod="pad">
      <stop offset="0.0" stop-color="#333333"/>
      <stop offset="1.0" stop-color="#000000"/>
    </radialGradient>
    <radialGradient cx="0" cy="0" gradientTransform="matrix(0.0084, 0.0, 0.0, 0.0084, 8.7, 10.0)" gradientUnits="userSpaceOnUse" id="gradient2" r="819.2" spreadMethod="pad">
      <stop offset="0.0" stop-color="#333333"/>
      <stop offset="1.0" stop-color="#000000"/>
    </radialGradient>
    <radialGradient cx="0" cy="0" gradientTransform="matrix(0.0043, 0.0, 0.0, 0.0043, 9.9, 3.75)" gradientUnits="userSpaceOnUse" id="gradient3" r="819.2" spreadMethod="pad">
      <stop offset="0.0" stop-color="#161616"/>
      <stop offset="1.0" stop-color="#292929"/>
    </radialGradient>
    <radialGradient cx="0" cy="0" gradientTransform="matrix(0.0063, 0.0, 0.0, 0.0063, 1.55, 4.8)" gradientUnits="userSpaceOnUse" id="gradient4" r="819.2" spreadMethod="pad">
      <stop offset="0.0" stop-color="#161616"/>
      <stop offset="1.0" stop-color="#292929"/>
    </radialGradient>
    <linearGradient gradientTransform="matrix(0.0099, 0.013, -5.0E-4, 4.0E-4, 17.6, 27.85)" gradientUnits="userSpaceOnUse" id="gradient5" spreadMethod="pad" x1="-819.2" x2="819.2">
      <stop offset="0.0392156862745098" stop-color="#ff9933" stop-opacity="0.49803922"/>
      <stop offset="1.0" stop-color="#ff9933" stop-opacity="0.007843138"/>
    </linearGradient>
  </defs>
</svg>
