<?xml version="1.0" encoding="UTF-8" standalone="no"?>
<svg xmlns:xlink="http://www.w3.org/1999/xlink" height="29.4px" width="28.85px" xmlns="http://www.w3.org/2000/svg">
  <g transform="matrix(1.0, 0.0, 0.0, 1.0, 16.05, 31.15)">
    <path d="M4.65 -26.65 L7.0 -24.95 Q8.35 -24.0 8.8 -22.85 10.05 -19.7 6.7 -10.95 6.3 -10.0 6.75 -7.35 L7.2 -4.8 Q5.2 -3.15 1.8 -2.35 L-0.35 -2.65 -2.2 -2.9 Q-3.9 -3.6 -5.0 -5.25 L-6.2 -7.8 Q-6.9 -9.4 -6.85 -10.55 -6.8 -11.5 -6.45 -11.4 -6.15 -11.65 -7.6 -16.95 -8.55 -20.35 -8.05 -23.1 L-6.75 -27.2 Q-6.1 -29.0 -1.95 -28.9 2.25 -28.75 4.65 -26.65" fill="#302c2b" fill-rule="evenodd" stroke="none"/>
    <path d="M4.65 -26.65 L7.0 -24.95 Q8.35 -24.0 8.8 -22.85 10.05 -19.7 6.7 -10.95 6.3 -10.0 6.75 -7.35 L7.2 -4.8 Q5.2 -3.15 1.8 -2.35 L-0.35 -2.65 -2.2 -2.9 Q-3.9 -3.6 -5.0 -5.25 L-6.2 -7.8 Q-6.9 -9.4 -6.85 -10.55 -6.8 -11.5 -6.45 -11.4 -6.15 -11.65 -7.6 -16.95 -8.55 -20.35 -8.05 -23.1 L-6.75 -27.2 Q-6.1 -29.0 -1.95 -28.9 2.25 -28.75 4.65 -26.65 Z" fill="none" stroke="#191614" stroke-linecap="round" stroke-linejoin="round" stroke-width="1.0"/>
    <path d="M2.4 -18.05 Q4.25 -19.0 4.9 -20.25 6.2 -22.4 4.55 -26.4 L5.8 -25.55 Q7.05 -24.5 7.05 -23.8 7.0 -22.8 5.75 -20.45 L5.0 -19.1 7.65 -20.2 6.05 -13.85 -4.95 -11.9 -6.75 -13.95 -9.35 -21.4 -5.95 -25.75 -4.95 -20.9 Q-4.75 -20.15 -4.0 -19.4 L-2.75 -18.35 Q-1.85 -17.45 0.35 -17.3 L0.9 -17.25 3.7 -17.7 Q4.2 -17.85 5.0 -19.1 L2.4 -18.05" fill="#502b15" fill-rule="evenodd" stroke="none"/>
    <path d="M2.4 -18.05 Q4.25 -19.0 4.9 -20.25 6.2 -22.4 4.55 -26.4 L5.8 -25.55 Q7.05 -24.5 7.05 -23.8 7.0 -22.8 5.75 -20.45 L5.0 -19.1 7.65 -20.2 6.05 -13.85 -4.95 -11.9 -6.75 -13.95 -9.35 -21.4 -5.95 -25.75 -4.95 -20.9 Q-4.75 -20.15 -4.0 -19.4 L-2.75 -18.35 Q-1.85 -17.45 0.35 -17.3 L0.9 -17.25 2.4 -18.05 5.0 -19.1 Q4.2 -17.85 3.7 -17.7 L0.9 -17.25" fill="none" stroke="#381c0f" stroke-linecap="round" stroke-linejoin="round" stroke-width="1.0"/>
    <path d="M-12.45 -27.75 Q-12.45 -29.25 -12.1 -29.4 -9.6 -30.5 -9.0 -30.5 L-7.25 -29.0 -5.1 -27.1 Q-4.9 -26.1 -5.9 -21.9 L-7.05 -17.2 Q-7.15 -16.05 -7.95 -15.75 -8.95 -15.8 -9.9 -16.3 -11.85 -17.45 -11.75 -19.85 L-12.75 -26.1 Q-12.45 -26.25 -12.45 -27.75" fill="#41271e" fill-rule="evenodd" stroke="none"/>
    <path d="M-12.45 -27.75 Q-12.45 -29.25 -12.1 -29.4 -9.6 -30.5 -9.0 -30.5 L-7.25 -29.0 -5.1 -27.1 Q-4.9 -26.1 -5.9 -21.9 L-7.05 -17.2 Q-7.15 -16.05 -7.95 -15.75 -8.95 -15.8 -9.9 -16.3 -11.85 -17.45 -11.75 -19.85 L-12.75 -26.1 Q-12.45 -26.25 -12.45 -27.75 Z" fill="none" stroke="#311e18" stroke-linecap="round" stroke-linejoin="round" stroke-width="1.0"/>
    <path d="M4.1 -10.5 L5.85 -8.65 8.6 -8.4 8.7 -6.05 8.45 -5.6 5.65 -5.35 5.35 -5.8 5.0 -6.25 4.3 -6.4 4.1 -6.05 3.85 -5.75 Q2.8 -6.1 2.5 -6.95 2.2 -7.85 2.75 -8.8 L4.1 -10.5" fill="#995237" fill-rule="evenodd" stroke="none"/>
    <path d="M4.1 -10.5 L5.85 -8.65 8.6 -8.4 8.7 -6.05 8.45 -5.6 5.65 -5.35 5.35 -5.8 5.0 -6.25 4.3 -6.4 4.1 -6.05 3.85 -5.75 Q2.8 -6.1 2.5 -6.95 2.2 -7.85 2.75 -8.8 L4.1 -10.5 Z" fill="none" stroke="#381c0f" stroke-linecap="round" stroke-linejoin="round" stroke-width="1.0"/>
    <path d="M10.6 -14.45 L10.55 -14.4 10.4 -12.75 10.35 -12.6 9.45 -11.4 9.1 -11.3 Q9.1 -8.7 8.6 -8.4 L6.5 -8.45 Q6.2 -9.85 6.7 -10.35 L7.85 -11.0 7.8 -11.0 6.65 -10.4 2.9 -6.9 0.45 -6.5 -3.0 -8.0 -4.65 -10.95 -7.55 -12.0 -5.35 -12.9 -2.7 -12.85 -2.65 -12.7 -1.35 -13.3 -1.3 -13.25 -1.9 -14.8 -0.75 -15.45 0.65 -15.35 2.3 -14.05 1.55 -17.65 Q3.4 -19.1 3.85 -20.3 4.4 -21.9 3.3 -24.05 L6.7 -26.3 10.25 -24.25 11.25 -21.2 Q11.55 -19.55 11.4 -17.5 L11.4 -17.45 Q11.15 -15.35 10.6 -14.5 L10.6 -14.45 M10.55 -14.4 L10.5 -14.4 10.6 -14.5 10.5 -14.4 10.55 -14.4 M6.5 -14.55 L10.45 -14.35 10.5 -14.4 6.7 -14.75 6.65 -14.75 2.3 -14.05 6.35 -14.6 6.5 -14.55 3.0 -12.15 6.5 -14.55 M1.9 -9.2 L3.0 -9.5 3.1 -9.55 6.0 -12.25 8.35 -12.55 10.4 -12.75 8.35 -12.55 6.0 -12.25 3.1 -9.55 3.0 -9.5 2.9 -9.45 1.9 -9.2 0.4 -8.9 0.35 -8.9 -1.75 -10.05 -1.85 -10.35 -2.95 -12.55 -2.65 -12.7 -1.85 -10.35 -1.7 -10.05 0.4 -8.9 -1.7 -10.05 -1.85 -10.35 -2.65 -12.7 -2.95 -12.55 -1.85 -10.35 -1.75 -10.05 0.35 -8.9 0.4 -8.9 1.9 -9.2 2.9 -9.45 3.0 -9.5 1.9 -9.2 M7.9 -11.0 L7.95 -11.0 7.85 -11.0 7.9 -11.0 8.15 -11.05 9.1 -11.3 9.1 -11.35 8.15 -11.05 7.95 -11.0 8.0 -11.1 7.8 -11.0 8.0 -11.1 7.95 -11.0 8.15 -11.05 9.1 -11.35 9.1 -11.3 8.15 -11.05 7.9 -11.0 7.85 -11.0 7.95 -11.0 7.9 -11.0 M10.6 -14.5 Q11.8 -17.25 11.25 -21.2 11.8 -17.25 10.6 -14.5 M3.0 -12.15 L1.1 -11.25 -0.8 -12.7 -0.3 -12.15 1.05 -11.15 3.0 -12.15 M-0.8 -12.7 L-1.3 -13.25 -1.25 -13.05 -0.8 -12.7 -1.25 -13.05 -1.3 -13.25 -0.8 -12.7 M3.0 -9.5 L6.0 -12.3 8.35 -12.55 6.0 -12.3 3.0 -9.5" fill="url(#gradient0)" fill-rule="evenodd" stroke="none"/>
    <path d="M10.6 -14.45 L10.55 -14.4 10.4 -12.75 10.35 -12.6 9.45 -11.4 9.1 -11.3 Q9.1 -8.7 8.6 -8.4 L6.5 -8.45 Q6.2 -9.85 6.7 -10.35 L7.85 -11.0 7.8 -11.0 6.65 -10.4 2.9 -6.9 0.45 -6.5 -3.0 -8.0 -4.65 -10.95 -7.55 -12.0 -5.35 -12.9 -2.7 -12.85 -2.65 -12.7 -1.35 -13.3 -1.3 -13.25 -1.9 -14.8 -0.75 -15.45 0.65 -15.35 2.3 -14.05 1.55 -17.65 Q3.4 -19.1 3.85 -20.3 4.4 -21.9 3.3 -24.05 L6.7 -26.3 10.25 -24.25 11.25 -21.2 Q11.55 -19.55 11.4 -17.5 L11.4 -17.45 Q11.3 -15.6 10.6 -14.45 L10.6 -14.5 10.5 -14.4 10.55 -14.4 M6.5 -14.55 L10.45 -14.35 10.5 -14.4 6.7 -14.75 6.5 -14.55 6.35 -14.6 2.3 -14.05 6.65 -14.75 6.7 -14.75 M10.6 -14.5 Q11.15 -15.35 11.4 -17.45 M11.25 -21.2 Q11.8 -17.25 10.6 -14.5 M7.8 -11.0 L8.0 -11.1 7.95 -11.0 8.15 -11.05 9.1 -11.35 9.1 -11.3 8.15 -11.05 7.9 -11.0 7.85 -11.0 7.95 -11.0 7.9 -11.0 M10.4 -12.75 L8.35 -12.55 6.0 -12.25 3.1 -9.55 3.0 -9.5 2.9 -9.45 1.9 -9.2 0.4 -8.9 0.35 -8.9 -1.75 -10.05 -1.85 -10.35 -2.95 -12.55 -2.65 -12.7 -1.85 -10.35 -1.7 -10.05 0.4 -8.9 M3.0 -9.5 L1.9 -9.2 M3.0 -12.15 L1.1 -11.25 -0.8 -12.7 -0.3 -12.15 1.05 -11.15 3.0 -12.15 6.5 -14.55 M8.35 -12.55 L6.0 -12.3 3.0 -9.5 M-0.8 -12.7 L-1.25 -13.05 -1.3 -13.25 -0.8 -12.7 Z" fill="none" stroke="#381c0f" stroke-linecap="round" stroke-linejoin="round" stroke-width="1.0"/>
    <path d="M2.1 -17.45 L3.15 -18.5 4.9 -17.15 5.1 -15.05 2.65 -14.6 2.1 -17.45" fill="#62341a" fill-rule="evenodd" stroke="none"/>
    <path d="M3.15 -18.5 L4.9 -17.15 5.1 -15.05" fill="none" stroke="#381c0f" stroke-linecap="round" stroke-linejoin="round" stroke-width="1.0"/>
    <path d="M-10.0 -14.65 Q-8.5 -15.15 -7.05 -15.75 L-5.1 -15.2 -4.95 -13.1 -6.0 -12.3 -8.75 -12.4 Q-9.9 -13.5 -10.0 -14.65" fill="#532c21" fill-rule="evenodd" stroke="none"/>
    <path d="M-10.0 -14.65 Q-8.5 -15.15 -7.05 -15.75 L-5.1 -15.2 -4.95 -13.1 -6.0 -12.3 -8.75 -12.4 Q-9.9 -13.5 -10.0 -14.65 Z" fill="none" stroke="#311e18" stroke-linecap="round" stroke-linejoin="round" stroke-width="1.0"/>
    <path d="M-11.2 -16.8 L-10.25 -17.05 -5.5 -16.7 -5.1 -15.2 -6.0 -14.25 -9.45 -14.3 Q-10.15 -14.65 -10.7 -15.5 -11.25 -16.3 -11.2 -16.8" fill="#532c21" fill-rule="evenodd" stroke="none"/>
    <path d="M-11.2 -16.8 L-10.25 -17.05 -5.5 -16.7 -5.1 -15.2 -6.0 -14.25 -9.45 -14.3 Q-10.15 -14.65 -10.7 -15.5 -11.25 -16.3 -11.2 -16.8 Z" fill="none" stroke="#311e18" stroke-linecap="round" stroke-linejoin="round" stroke-width="1.0"/>
    <path d="M-11.55 -17.65 L-8.25 -18.65 -6.25 -18.4 -5.85 -16.95 -6.8 -15.95 -8.85 -15.85 Q-10.2 -16.0 -10.7 -16.6 -11.05 -17.35 -11.55 -17.65" fill="#532c21" fill-rule="evenodd" stroke="none"/>
    <path d="M-11.55 -17.65 L-8.25 -18.65 -6.25 -18.4 -5.85 -16.95 -6.8 -15.95 -8.85 -15.85 Q-10.2 -16.0 -10.7 -16.6 -11.05 -17.35 -11.55 -17.65 Z" fill="none" stroke="#311e18" stroke-linecap="round" stroke-linejoin="round" stroke-width="1.0"/>
    <path d="M-4.1 -24.15 L-4.85 -22.2 -4.2 -19.3 -8.25 -18.65 -8.25 -19.85 -9.8 -20.8 -12.1 -20.6 -11.7 -22.45 Q-10.25 -22.85 -8.8 -23.35 L-7.05 -28.4 -7.95 -25.7 -4.1 -24.15" fill="#4e261a" fill-rule="evenodd" stroke="none"/>
    <path d="M-4.1 -24.15 L-7.95 -25.7 -7.05 -28.4 -8.8 -23.35 Q-10.25 -22.85 -11.7 -22.45 L-12.1 -20.6 -9.8 -20.8 -8.25 -19.85 -8.25 -18.65 -4.2 -19.3 -4.85 -22.2 -4.1 -24.15 Z" fill="none" stroke="#311e18" stroke-linecap="butt" stroke-linejoin="round" stroke-width="1.0"/>
    <path d="M-10.0 -27.2 L-9.25 -27.6" fill="none" stroke="#281d18" stroke-linecap="round" stroke-linejoin="round" stroke-width="1.0"/>
    <path d="M-9.8 -25.9 L-9.25 -26.15" fill="none" stroke="#281d18" stroke-linecap="round" stroke-linejoin="round" stroke-width="1.0"/>
    <path d="M-12.05 -24.15 L-9.45 -21.7 -9.4 -20.65 -7.95 -12.35 -8.0 -12.3 -8.05 -12.15 -8.0 -12.3 -7.95 -12.35 -7.95 -12.3 -7.85 -12.35 -7.0 -10.4 -8.5 -9.65 -10.95 -9.75 Q-11.7 -10.7 -12.45 -13.0 -13.0 -14.45 -13.3 -19.85 L-13.5 -25.05 -13.3 -25.25 -12.15 -26.75 -10.45 -25.0 -9.85 -22.25 -12.05 -24.15 -12.3 -24.35 -12.05 -24.15 M-13.05 -25.0 L-13.1 -25.05 -12.3 -24.35 -13.3 -25.25 -13.05 -25.0 -12.9 -24.75 Q-12.35 -23.85 -12.0 -21.95 L-11.3 -16.15 -10.95 -11.95 -10.95 -9.95 -10.95 -11.95 -11.3 -16.15 -12.0 -21.95 Q-12.35 -23.85 -12.9 -24.75 L-13.05 -25.0 -12.45 -23.7 Q-12.15 -22.65 -11.3 -15.8 -11.05 -14.5 -10.95 -9.95 -10.35 -10.2 -9.85 -10.5 -10.35 -10.2 -10.95 -9.95 -11.05 -14.5 -11.3 -15.8 -12.15 -22.65 -12.45 -23.7 L-13.05 -25.0 M-8.05 -12.15 Q-8.65 -11.35 -9.4 -10.8 L-9.85 -10.5 -9.4 -10.8 Q-8.65 -11.35 -8.05 -12.15 L-8.15 -12.0 Q-8.6 -11.2 -9.85 -10.5 -8.6 -11.2 -8.15 -12.0 L-8.05 -12.15 M-9.85 -10.5 L-10.5 -10.1 -10.95 -9.95 -10.5 -10.1 -9.85 -10.5" fill="#572a1d" fill-rule="evenodd" stroke="none"/>
    <path d="M-7.95 -12.35 L-9.4 -20.65 -9.45 -21.7 -12.05 -24.15 -12.3 -24.35 -13.1 -25.05 -13.05 -25.0 -12.9 -24.75 Q-12.35 -23.85 -12.0 -21.95 L-11.3 -16.15 -10.95 -11.95 -10.95 -9.95 Q-10.35 -10.2 -9.85 -10.5 L-9.4 -10.8 Q-8.65 -11.35 -8.05 -12.15 L-8.0 -12.3 -7.95 -12.35 -7.95 -12.4 Q-7.55 -13.05 -7.85 -12.35 L-7.0 -10.4 -8.5 -9.65 -10.95 -9.75 Q-11.7 -10.7 -12.45 -13.0 -13.0 -14.45 -13.3 -19.85 L-13.5 -25.05 -13.3 -25.25 -12.15 -26.75 -10.45 -25.0 -9.85 -22.25 -12.05 -24.15 M-13.05 -25.0 L-13.3 -25.25 -12.3 -24.35 M-13.05 -25.0 L-12.45 -23.7 Q-12.15 -22.65 -11.3 -15.8 -11.05 -14.5 -10.95 -9.95 L-10.5 -10.1 -9.85 -10.5 Q-8.6 -11.2 -8.15 -12.0 L-8.05 -12.15 M-7.85 -12.35 L-7.95 -12.3 -7.95 -12.35 M-7.85 -12.35 L-7.95 -12.4" fill="none" stroke="#311e19" stroke-linecap="round" stroke-linejoin="miter-clip" stroke-miterlimit="4.0" stroke-width="1.0"/>
    <path d="M10.25 -24.55 Q12.1 -23.0 12.3 -20.7 L12.05 -15.8 Q10.0 -15.75 9.65 -16.9 9.0 -19.35 8.6 -19.9 7.85 -20.15 7.6 -21.35 7.3 -22.5 7.55 -22.65 L10.25 -24.55" fill="#874e30" fill-rule="evenodd" stroke="none"/>
    <path d="M10.25 -24.55 L7.55 -22.65 Q7.3 -22.5 7.6 -21.35 7.85 -20.15 8.6 -19.9 9.0 -19.35 9.65 -16.9 10.0 -15.75 12.05 -15.8 L12.3 -20.7 Q12.1 -23.0 10.25 -24.55 Z" fill="none" stroke="#3b2014" stroke-linecap="round" stroke-linejoin="round" stroke-width="1.0"/>
    <path d="M8.4 -10.05 L10.05 -10.65 10.75 -11.05 10.65 -9.85 9.1 -8.55 8.1 -8.65 8.4 -10.05" fill="#494131" fill-rule="evenodd" stroke="none"/>
    <path d="M8.4 -10.05 L10.05 -10.65 10.75 -11.05 10.65 -9.85 9.1 -8.55 8.1 -8.65 8.4 -10.05 Z" fill="none" stroke="#2b2420" stroke-linecap="round" stroke-linejoin="round" stroke-width="1.0"/>
    <path d="M7.7 -6.95 L9.35 -7.6 10.1 -7.95 10.0 -6.75 8.45 -5.45 7.45 -5.55 7.7 -6.95" fill="#494131" fill-rule="evenodd" stroke="none"/>
    <path d="M7.7 -6.95 L9.35 -7.6 10.1 -7.95 10.0 -6.75 8.45 -5.45 7.45 -5.55 7.7 -6.95 Z" fill="none" stroke="#2b2420" stroke-linecap="round" stroke-linejoin="round" stroke-width="1.0"/>
    <path d="M-13.35 -21.35 L-11.65 -20.5 -11.2 -18.65 -13.1 -19.0 Q-15.25 -22.1 -14.55 -21.85 L-13.35 -21.35" fill="#f6d1b3" fill-rule="evenodd" stroke="none"/>
    <path d="M-13.35 -21.35 L-11.65 -20.5 -11.2 -18.65 -13.1 -19.0 Q-15.25 -22.1 -14.55 -21.85 L-13.35 -21.35 Z" fill="none" stroke="#161925" stroke-linecap="round" stroke-linejoin="round" stroke-opacity="0.7372549" stroke-width="1.0"/>
    <path d="M-13.1 -17.3 L-11.45 -16.4 -10.95 -14.55 -12.9 -14.85 Q-14.7 -17.25 -14.25 -17.4 L-13.1 -17.3" fill="#f6d1b3" fill-rule="evenodd" stroke="none"/>
    <path d="M-13.1 -17.3 L-11.45 -16.4 -10.95 -14.55 -12.9 -14.85 Q-14.7 -17.25 -14.25 -17.4 L-13.1 -17.3 Z" fill="none" stroke="#161925" stroke-linecap="round" stroke-linejoin="round" stroke-opacity="0.7372549" stroke-width="1.0"/>
    <path d="M-4.3 -28.7 L-5.9 -28.3 -6.4 -28.3 -9.25 -30.65 -11.0 -29.85 Q-12.4 -29.05 -12.9 -27.25 L-12.9 -26.9 -13.1 -26.1 -13.45 -25.65 -13.55 -25.2 -13.55 -22.8 -13.25 -21.1 -14.75 -21.8 -13.35 -19.3 -13.2 -17.35 -13.8 -16.8 -13.0 -14.95 -12.8 -14.0 -12.2 -12.5 -10.8 -9.5 -8.6 -9.5 -7.35 -10.65 -5.75 -8.1 Q-4.2 -2.8 0.4 -2.55 4.2 -2.25 7.2 -5.0 7.35 -5.7 8.2 -5.9 L9.45 -6.05 10.0 -6.5 10.0 -7.8 8.75 -7.5 8.9 -8.25 10.75 -9.5 10.75 -10.7 9.6 -10.65 9.8 -12.1 10.25 -12.75 11.2 -15.75 11.9 -15.75 Q12.3 -17.75 12.3 -19.4 L12.05 -21.7 11.8 -22.75 10.0 -24.6 9.35 -24.75 6.8 -26.45 5.55 -25.35 Q4.45 -27.3 2.25 -28.05 L-1.75 -28.7 -4.3 -28.7 Z" fill="none" stroke="#000000" stroke-linecap="butt" stroke-linejoin="miter-clip" stroke-miterlimit="4.0" stroke-opacity="0.5803922" stroke-width="1.0"/>
  </g>
  <defs>
    <linearGradient gradientTransform="matrix(0.0116, 0.0, 0.0, 0.0121, 1.95, -16.4)" gradientUnits="userSpaceOnUse" id="gradient0" spreadMethod="pad" x1="-819.2" x2="819.2">
      <stop offset="0.0" stop-color="#663300"/>
      <stop offset="1.0" stop-color="#d07373"/>
    </linearGradient>
  </defs>
</svg>
