<?xml version="1.0" encoding="UTF-8" standalone="no"?>
<svg xmlns:ffdec="https://www.free-decompiler.com/flash" xmlns:xlink="http://www.w3.org/1999/xlink" ffdec:objectType="shape" height="21.85px" width="16.6px" xmlns="http://www.w3.org/2000/svg">
  <g transform="matrix(1.0, 0.0, 0.0, 1.0, 0.5, 0.5)">
    <path d="M13.35 15.8 Q14.4 15.7 14.7 16.4 15.05 17.1 14.85 18.05 14.85 19.35 14.1 20.3 12.85 21.25 11.95 20.55 L11.45 20.05 Q10.55 18.55 11.1 16.55 12.35 16.7 13.35 15.8" fill="#460c0c" fill-rule="evenodd" stroke="none"/>
    <path d="M11.1 16.55 Q9.4 15.7 6.95 13.55 L6.1 12.55 5.45 11.65 Q5.0 10.9 4.65 9.75 L4.05 7.9 4.0 7.8 3.3 7.25 Q2.35 6.05 2.0 5.0 L1.4 3.0 Q1.2 2.05 2.2 1.7 L3.55 1.05 6.45 0.05 7.85 0.45 8.8 1.65 9.9 3.4 10.2 4.3 Q9.95 4.7 10.45 4.9 L11.2 5.4 11.45 6.05 11.65 6.35 11.8 6.5 Q12.4 7.15 12.7 8.35 L13.1 10.65 13.95 14.9 13.35 15.8 Q12.35 16.7 11.1 16.55" fill="#1e1e1e" fill-rule="evenodd" stroke="none"/>
    <path d="M13.35 15.8 Q14.4 15.7 14.7 16.4 15.05 17.1 14.85 18.05" fill="none" stroke="#3c3c3c" stroke-linecap="round" stroke-linejoin="round" stroke-width="1.0"/>
    <path d="M14.85 18.05 Q14.85 19.35 14.1 20.3 12.85 21.25 11.95 20.55 L11.45 20.05 Q10.55 18.55 11.1 16.55" fill="none" stroke="#250909" stroke-linecap="round" stroke-linejoin="round" stroke-width="1.0"/>
    <path d="M11.1 16.55 Q9.4 15.7 6.95 13.55 L6.1 12.55 5.45 11.65 Q5.0 10.9 4.65 9.75 L4.05 7.9 4.0 7.8 3.3 7.25 Q2.35 6.05 2.0 5.0 L1.4 3.0 Q1.2 2.05 2.2 1.7 L3.55 1.05 6.45 0.05 7.85 0.45 8.8 1.65 9.9 3.4 10.2 4.3 Q9.95 4.7 10.45 4.9 L11.2 5.4 11.45 6.05 11.65 6.35 11.8 6.5 Q12.4 7.15 12.7 8.35 L13.1 10.65 13.95 14.9 13.35 15.8 Q12.35 16.7 11.1 16.55 Z" fill="none" stroke="#101010" stroke-linecap="round" stroke-linejoin="round" stroke-width="1.0"/>
    <path d="M3.55 8.7 L1.75 8.0 0.1 4.3 Q-0.35 2.1 1.1 0.6 L2.45 0.0 3.25 2.85 4.25 6.85 3.55 8.7" fill="#2c0101" fill-rule="evenodd" stroke="none"/>
    <path d="M8.9 15.1 L7.75 14.2 Q4.1 11.4 3.55 8.7 L4.25 6.85 3.25 2.85 5.65 2.05 7.2 7.1 10.0 7.9 12.75 14.0 Q11.5 14.75 8.9 15.1 M6.8 8.2 L4.55 9.45 Q5.8 11.55 7.85 12.95 L8.9 12.45 6.8 8.2" fill="#272727" fill-rule="evenodd" stroke="none"/>
    <path d="M12.4 9.8 L12.5 10.0 13.5 9.5 Q12.9 7.05 11.75 5.4 L11.4 5.7 11.2 5.4 10.2 6.15 11.95 10.0 12.4 9.8 M5.65 2.05 L9.15 0.9 Q10.6 2.0 12.4 5.0 14.15 7.95 14.3 12.05 L13.6 13.15 12.75 14.0 10.0 7.9 7.2 7.1 5.65 2.05" fill="#2a0f0f" fill-rule="evenodd" stroke="none"/>
    <path d="M11.4 5.7 L11.75 5.4 Q12.9 7.05 13.5 9.5 L12.5 10.0 12.4 9.8 10.75 6.15 11.4 5.7 M6.8 8.2 L8.9 12.45 7.85 12.95 Q5.8 11.55 4.55 9.45 L6.8 8.2" fill="#aa0000" fill-rule="evenodd" stroke="none"/>
    <path d="M14.3 12.05 L14.95 15.3 15.6 18.8 15.25 19.8 13.6 18.4 13.0 17.0 10.7 17.2 8.9 15.1 Q11.5 14.75 12.75 14.0 L13.6 13.15 14.3 12.05 M14.95 15.3 L12.7 16.25 13.0 17.0 12.7 16.25 14.95 15.3" fill="#1e1e1e" fill-rule="evenodd" stroke="none"/>
    <path d="M5.65 2.05 L7.2 7.1 10.0 7.9 12.75 14.0" fill="none" stroke="#101010" stroke-linecap="round" stroke-linejoin="round" stroke-width="1.0"/>
    <path d="M5.65 2.05 L9.15 0.9 Q10.6 2.0 12.4 5.0 14.15 7.95 14.3 12.05 L14.95 15.3 15.6 18.8 15.25 19.8 13.6 18.4 13.0 17.0 10.7 17.2 8.9 15.1 7.75 14.2 Q4.1 11.4 3.55 8.7 L1.75 8.0 0.1 4.3 Q-0.35 2.1 1.1 0.6 L2.45 0.0 3.25 2.85 5.65 2.05 M12.75 14.0 L13.6 13.15 14.3 12.05 M3.55 8.7 L4.25 6.85 3.25 2.85 M13.0 17.0 L12.7 16.25 14.95 15.3 M8.9 15.1 Q11.5 14.75 12.75 14.0" fill="none" stroke="#090909" stroke-linecap="round" stroke-linejoin="round" stroke-width="1.0"/>
    <path d="M12.4 9.8 L12.5 10.0 13.5 9.5 Q12.9 7.05 11.75 5.4 L11.4 5.7 10.75 6.15 12.4 9.8 M6.8 8.2 L8.9 12.45 7.85 12.95 Q5.8 11.55 4.55 9.45 L6.8 8.2 Z" fill="none" stroke="#1c0101" stroke-linecap="round" stroke-linejoin="round" stroke-width="1.0"/>
  </g>
</svg>
