<?xml version="1.0" encoding="UTF-8" standalone="no"?>
<svg xmlns:ffdec="https://www.free-decompiler.com/flash" xmlns:xlink="http://www.w3.org/1999/xlink" ffdec:objectType="shape" height="21.85px" width="16.6px" xmlns="http://www.w3.org/2000/svg">
  <g transform="matrix(1.0, 0.0, 0.0, 1.0, 0.5, 0.5)">
    <path d="M11.1 16.55 Q9.4 15.7 6.95 13.55 L6.1 12.55 5.45 11.65 Q5.0 10.9 4.65 9.75 L4.05 7.9 4.0 7.8 3.3 7.25 Q2.35 6.05 2.0 5.0 L1.4 3.0 Q1.2 2.05 2.2 1.7 L3.55 1.05 6.45 0.05 7.85 0.45 8.8 1.65 9.9 3.4 10.2 4.3 Q9.95 4.7 10.45 4.9 L11.2 5.4 11.45 6.05 11.65 6.35 11.8 6.5 Q12.4 7.15 12.7 8.35 L13.1 10.65 13.95 14.9 13.35 15.8 Q12.35 16.7 11.1 16.55" fill="#313131" fill-rule="evenodd" stroke="none"/>
    <path d="M13.35 15.8 Q14.4 15.7 14.7 16.4 15.05 17.1 14.85 18.05 14.85 19.35 14.1 20.3 12.85 21.25 11.95 20.55 L11.45 20.05 Q10.55 18.55 11.1 16.55 12.35 16.7 13.35 15.8" fill="#8a0000" fill-rule="evenodd" stroke="none"/>
    <path d="M11.1 16.55 Q9.4 15.7 6.95 13.55 L6.1 12.55 5.45 11.65 Q5.0 10.9 4.65 9.75 L4.05 7.9 4.0 7.8 3.3 7.25 Q2.35 6.05 2.0 5.0 L1.4 3.0 Q1.2 2.05 2.2 1.7 L3.55 1.05 6.45 0.05 7.85 0.45 8.8 1.65 9.9 3.4 10.2 4.3 Q9.95 4.7 10.45 4.9 L11.2 5.4 11.45 6.05 11.65 6.35 11.8 6.5 Q12.4 7.15 12.7 8.35 L13.1 10.65 13.95 14.9 13.35 15.8 Q12.35 16.7 11.1 16.55" fill="none" stroke="#1e1e1e" stroke-linecap="round" stroke-linejoin="round" stroke-width="1.0"/>
    <path d="M13.35 15.8 Q14.4 15.7 14.7 16.4 15.05 17.1 14.85 18.05 14.85 19.35 14.1 20.3 12.85 21.25 11.95 20.55 L11.45 20.05 Q10.55 18.55 11.1 16.55" fill="none" stroke="#250606" stroke-linecap="round" stroke-linejoin="round" stroke-width="1.0"/>
    <path d="M11.4 5.7 L11.75 5.4 Q12.9 7.05 13.5 9.5 L12.5 10.0 12.4 9.8 10.75 6.15 11.4 5.7 M6.8 8.2 L8.9 12.45 7.85 12.95 Q5.8 11.55 4.55 9.45 L6.8 8.2" fill="#790000" fill-rule="evenodd" stroke="none"/>
    <path d="M12.4 9.8 L12.5 10.0 13.5 9.5 Q12.9 7.05 11.75 5.4 L11.4 5.7 11.2 5.4 10.2 6.15 11.95 10.0 12.4 9.8 M5.65 2.05 L9.15 0.9 Q10.6 2.0 12.4 5.0 14.15 7.95 14.3 12.05 L13.6 13.15 12.75 14.0 10.0 7.9 7.2 7.1 5.65 2.05" fill="#aaaaaa" fill-rule="evenodd" stroke="none"/>
    <path d="M14.3 12.05 L14.95 15.3 15.6 18.8 15.25 19.8 13.6 18.4 13.0 17.0 10.7 17.2 8.9 15.1 7.75 14.2 Q4.1 11.4 3.55 8.7 L1.75 8.0 0.1 4.3 Q-0.35 2.1 1.1 0.6 L2.45 0.0 3.25 2.85 5.65 2.05 7.2 7.1 10.0 7.9 12.75 14.0 13.6 13.15 14.3 12.05 M3.25 2.85 L4.25 6.85 3.55 8.7 4.25 6.85 3.25 2.85 M6.8 8.2 L4.55 9.45 Q5.8 11.55 7.85 12.95 L8.9 12.45 6.8 8.2 M12.75 14.0 Q11.5 14.75 8.9 15.1 11.5 14.75 12.75 14.0 M14.95 15.3 L12.7 16.25 13.0 17.0 12.7 16.25 14.95 15.3" fill="#4d0a0a" fill-rule="evenodd" stroke="none"/>
    <path d="M12.4 9.8 L12.5 10.0 13.5 9.5 Q12.9 7.05 11.75 5.4 L11.4 5.7 10.75 6.15 12.4 9.8 M6.8 8.2 L8.9 12.45 7.85 12.95 Q5.8 11.55 4.55 9.45 L6.8 8.2" fill="none" stroke="#2e0000" stroke-linecap="round" stroke-linejoin="round" stroke-width="1.0"/>
    <path d="M5.65 2.05 L9.15 0.9 Q10.6 2.0 12.4 5.0 14.15 7.95 14.3 12.05 L14.95 15.3 15.6 18.8 15.25 19.8 13.6 18.4 13.0 17.0 10.7 17.2 8.9 15.1 7.75 14.2 Q4.1 11.4 3.55 8.7 L1.75 8.0 0.1 4.3 Q-0.35 2.1 1.1 0.6 L2.45 0.0 3.25 2.85 5.65 2.05 M12.75 14.0 L13.6 13.15 14.3 12.05 M3.55 8.7 L4.25 6.85 3.25 2.85 M13.0 17.0 L12.7 16.25 14.95 15.3 M8.9 15.1 Q11.5 14.75 12.75 14.0" fill="none" stroke="#270707" stroke-linecap="round" stroke-linejoin="round" stroke-width="1.0"/>
    <path d="M5.65 2.05 L7.2 7.1 10.0 7.9 12.75 14.0" fill="none" stroke="#350f0f" stroke-linecap="round" stroke-linejoin="round" stroke-width="1.0"/>
    <path d="M10.1 10.45 L10.1 9.65 10.25 9.15 Q10.55 8.9 10.75 9.4 L10.7 8.2 10.75 8.0 Q10.05 6.7 9.95 5.7 L10.2 5.85 10.3 5.95 10.3 5.8 Q10.0 4.3 10.0 2.7 11.0 5.8 11.4 7.9 L11.5 8.35 11.8 9.4 12.45 9.85 13.05 10.65 Q13.05 10.15 13.3 10.2 L13.5 10.35 13.7 10.65 13.75 11.2 Q13.8 11.9 13.3 12.75 12.7 13.8 12.45 13.0 12.15 12.1 12.2 11.5 L11.9 9.95 11.95 10.45 Q12.0 11.55 11.6 12.15 L11.4 12.25 11.25 12.05 10.9 11.2 10.9 11.45 10.8 11.5 10.55 11.35 10.5 11.8 10.4 11.95 9.75 11.45 9.4 10.9 9.35 11.15 9.15 11.0 Q9.0 10.9 8.85 11.2 L8.6 10.7 8.35 10.0 8.25 9.35 8.45 9.2 Q8.25 9.05 8.2 8.4 L8.6 8.45 9.0 8.8 9.3 9.5 9.45 10.1 10.1 10.45 10.5 11.3 10.55 11.35 10.1 10.45 M10.55 12.35 L10.6 12.1 10.9 12.05 11.25 12.55 11.35 12.7 11.45 12.75 11.6 12.9 11.95 13.3 12.05 13.75 12.0 15.45 11.9 15.6 11.85 15.55 11.3 14.45 10.65 12.8 10.55 12.35 M6.6 5.9 L7.65 8.15 Q7.6 8.45 6.7 7.2 L5.4 5.4 Q4.85 4.8 4.75 4.1 L4.7 3.75 Q4.7 3.6 4.8 3.7 L5.35 3.9 6.6 5.9 M9.3 6.1 L9.55 7.15 Q9.75 7.75 9.5 7.75 L9.45 7.85 9.3 7.85 8.95 7.7 8.6 7.0 8.3 6.25 8.0 5.3 7.75 4.75 Q7.7 4.5 7.8 4.35 L8.2 4.35 8.8 5.0 Q9.15 5.4 9.3 6.1 M7.65 6.1 L7.9 6.35 8.05 6.85 8.05 7.25 8.05 7.35 7.9 7.25 7.8 7.15 7.7 7.05 7.65 7.0 7.55 6.85 7.55 6.7 7.5 6.4 7.55 6.15 7.6 6.15 7.65 6.1 M9.2 12.15 L9.3 12.25 9.6 13.15 9.9 13.6 10.25 14.15 10.65 14.3 10.85 14.8 10.75 15.05 10.35 16.55 Q9.6 15.85 9.05 14.7 9.0 14.45 9.1 14.35 9.1 14.25 9.2 14.3 L9.35 14.35 Q9.6 14.25 9.4 14.0 9.05 13.05 8.85 11.5 L9.2 12.15 M6.05 8.65 L6.05 7.95 Q6.05 7.8 6.2 7.85 L6.4 7.95 6.95 8.5 7.05 8.6 7.25 9.5 7.4 9.65 7.4 9.8 7.45 9.8 8.45 11.2 8.4 11.45 8.35 11.6 8.15 11.75 8.0 11.75 Q7.85 11.7 7.85 11.8 L7.4 11.1 7.3 10.5 7.2 10.45 7.15 10.4 6.5 9.85 6.1 9.4 Q6.0 9.1 6.05 8.65 M4.25 5.55 L4.55 5.65 5.45 7.0 5.55 7.55 5.75 8.0 5.8 8.45 Q5.95 8.7 5.65 8.75 L5.45 8.3 5.15 7.9 5.15 7.55 5.0 7.05 4.65 6.3 4.25 5.55" fill="#2e0606" fill-opacity="0.7294118" fill-rule="evenodd" stroke="none"/>
  </g>
</svg>
