<?xml version="1.0" encoding="UTF-8" standalone="no"?>
<svg xmlns:ffdec="https://www.free-decompiler.com/flash" xmlns:xlink="http://www.w3.org/1999/xlink" ffdec:objectType="shape" height="46.2px" width="32.55px" xmlns="http://www.w3.org/2000/svg">
  <g transform="matrix(1.0, 0.0, 0.0, 1.0, 0.5, 0.5)">
    <path d="M20.25 32.05 L16.25 27.45 15.25 22.55 6.5 10.4 3.2 9.6 0.0 5.85 1.85 0.0 29.9 37.1 30.9 42.05 24.15 33.9 20.25 32.05" fill="url(#gradient0)" fill-rule="evenodd" stroke="none"/>
    <path d="M1.85 0.0 L4.3 0.95 29.2 33.75 29.9 37.1 1.85 0.0" fill="url(#gradient1)" fill-rule="evenodd" stroke="none"/>
    <path d="M30.9 42.05 L31.55 45.2 20.25 32.05 24.15 33.9 30.9 42.05" fill="url(#gradient2)" fill-rule="evenodd" stroke="none"/>
    <path d="M20.25 32.05 L16.25 27.45 15.25 22.55 6.5 10.4 3.2 9.6 0.0 5.85 1.85 0.0 4.3 0.95 29.2 33.75 29.9 37.1 30.9 42.05 31.55 45.2 20.25 32.05 Z" fill="none" stroke="#000000" stroke-linecap="round" stroke-linejoin="round" stroke-width="1.0"/>
  </g>
  <defs>
    <radialGradient cx="0" cy="0" gradientTransform="matrix(0.0424, 0.0, 0.0, 0.034, 14.85, 20.6)" gradientUnits="userSpaceOnUse" id="gradient0" r="819.2" spreadMethod="pad">
      <stop offset="0.0" stop-color="#333333"/>
      <stop offset="0.0" stop-color="#333333"/>
      <stop offset="0.5098039215686274" stop-color="#191919"/>
      <stop offset="1.0" stop-color="#333333"/>
    </radialGradient>
    <radialGradient cx="0" cy="0" gradientTransform="matrix(0.0697, 0.0, 0.0, 0.0559, 35.7, 36.75)" gradientUnits="userSpaceOnUse" id="gradient1" r="819.2" spreadMethod="pad">
      <stop offset="0.0" stop-color="#756d5f"/>
      <stop offset="1.0" stop-color="#1f1f1f"/>
      <stop offset="1.0" stop-color="#333333"/>
      <stop offset="1.0" stop-color="#333333"/>
      <stop offset="1.0" stop-color="#202121"/>
      <stop offset="1.0" stop-color="#202121"/>
    </radialGradient>
    <radialGradient cx="0" cy="0" gradientTransform="matrix(0.0135, 0.0, 0.0, 0.0108, 26.05, 37.35)" gradientUnits="userSpaceOnUse" id="gradient2" r="819.2" spreadMethod="pad">
      <stop offset="0.0" stop-color="#333333"/>
      <stop offset="0.0" stop-color="#333333"/>
      <stop offset="0.5098039215686274" stop-color="#191919"/>
      <stop offset="1.0" stop-color="#333333"/>
    </radialGradient>
  </defs>
</svg>
