<?xml version="1.0" encoding="UTF-8" standalone="no"?>
<svg xmlns:ffdec="https://www.free-decompiler.com/flash" xmlns:xlink="http://www.w3.org/1999/xlink" ffdec:objectType="shape" height="19.75px" width="17.2px" xmlns="http://www.w3.org/2000/svg">
  <g transform="matrix(1.0, 0.0, 0.0, 1.0, -0.95, 0.5)">
    <path d="M14.4 4.3 L11.2 2.25 14.4 4.3 12.55 6.5 11.2 2.25 11.15 2.1 14.45 4.25 14.4 4.3 M12.35 6.95 L12.3 7.05 Q13.45 10.0 13.1 11.25 11.0 13.1 9.8 16.2 L8.95 15.3 Q7.1 13.05 5.7 10.55 L5.5 10.6 5.05 9.35 3.6 5.45 5.95 4.85 11.45 6.5 12.55 6.5 12.55 6.55 12.55 6.5 12.55 6.55 12.35 6.95 M5.7 10.55 L5.05 9.35 5.7 10.55" fill="#996600" fill-rule="evenodd" stroke="none"/>
    <path d="M11.15 2.1 L11.2 2.25 12.55 6.5 11.45 6.5 5.95 4.85 11.1 2.15 11.15 2.1 M11.2 2.25 L11.1 2.15 11.2 2.25 12.55 6.5 11.2 2.25" fill="#e38902" fill-rule="evenodd" stroke="none"/>
    <path d="M15.25 13.55 L15.1 13.45 Q15.75 13.6 16.35 14.05 L16.8 14.5 17.0 14.7 16.95 14.65 15.25 13.55 M5.05 9.35 L4.05 7.3 3.6 5.45 Q2.95 2.85 4.5 1.05 L4.85 0.85 Q5.15 0.6 5.5 0.45 L5.65 0.4 Q7.3 -0.35 8.95 0.4 L9.25 0.55 9.85 0.9 11.15 2.1 11.1 2.15 5.95 4.85 3.6 5.45 5.05 9.35 M16.8 14.5 L16.95 14.65 16.8 14.5 M11.1 2.15 L9.85 0.9 11.1 2.15" fill="#d27e02" fill-rule="evenodd" stroke="none"/>
    <path d="M11.25 17.45 L11.3 17.45 11.5 17.6 11.35 17.5 11.25 17.45" fill="#3c3c3c" fill-rule="evenodd" stroke="none"/>
    <path d="M13.1 11.25 L13.2 12.8 13.7 13.5 15.1 13.5 15.25 13.55 16.95 14.65 Q18.25 16.35 17.15 17.45 L14.35 16.3 11.3 17.45 9.8 16.2 Q11.0 13.1 13.1 11.25" fill="#311616" fill-rule="evenodd" stroke="none"/>
    <path d="M17.15 17.45 L15.4 18.75 13.2 18.55 11.8 17.8 11.8 17.75 11.75 17.75 11.65 17.7 11.25 17.45 11.35 17.5 11.5 17.6 11.3 17.45 14.35 16.3 17.15 17.45" fill="#271818" fill-rule="evenodd" stroke="none"/>
    <path d="M11.2 2.25 L14.4 4.3 14.45 4.25 11.15 2.1 11.2 2.25 12.55 6.5 14.4 4.3 14.45 4.35 12.55 6.6 12.35 6.95 12.55 6.55 12.55 6.6 M9.8 16.2 L8.95 15.3 Q7.1 13.05 5.7 10.55 L5.05 9.35 4.05 7.3 3.6 5.45 Q2.95 2.85 4.5 1.05 M9.25 0.55 L9.85 0.9 11.1 2.15 11.2 2.25 12.55 6.5 12.55 6.55 12.55 6.5" fill="none" stroke="#653d01" stroke-linecap="round" stroke-linejoin="round" stroke-width="1.0"/>
    <path d="M15.25 13.55 L15.1 13.45 M11.25 17.45 L11.3 17.45 M11.5 17.6 L11.35 17.5 11.25 17.45" fill="none" stroke="#232323" stroke-linecap="round" stroke-linejoin="round" stroke-width="1.0"/>
    <path d="M17.0 14.7 L16.95 14.65 Q18.25 16.35 17.15 17.45 M11.3 17.45 L9.8 16.2 M15.25 13.55 L16.95 14.65 16.8 14.5" fill="none" stroke="#170404" stroke-linecap="round" stroke-linejoin="round" stroke-width="1.0"/>
    <path d="M17.15 17.45 L15.4 18.75 13.2 18.55 11.8 17.8 M11.5 17.6 L11.3 17.45 14.35 16.3 17.15 17.45" fill="none" stroke="#101010" stroke-linecap="round" stroke-linejoin="round" stroke-width="1.0"/>
    <path d="M11.1 6.85 L9.6 8.4 11.1 10.7 8.9 11.45 7.6 9.75 5.25 9.75 4.15 7.5 6.05 7.5 7.1 7.5 7.0 6.0 11.1 6.85" fill="#272727" fill-rule="evenodd" stroke="none"/>
    <path d="M5.4 0.5 L6.7 1.5 7.0 6.0 7.1 7.5 6.05 7.5 5.4 0.5" fill="#350303" fill-rule="evenodd" stroke="none"/>
    <path d="M11.1 10.7 L12.5 10.2 14.0 12.75 12.8 13.2 10.55 13.95 9.25 14.35 7.9 12.05 8.9 11.45 11.1 10.7" fill="#252525" fill-rule="evenodd" stroke="none"/>
    <path d="M12.8 13.2 L14.0 12.75 12.5 10.2 11.1 10.7 9.6 8.4 11.1 6.85 11.9 6.0 15.55 6.75 16.4 12.75 13.1 13.65 12.8 13.2 M8.9 11.45 L7.9 12.05 9.25 14.35 10.55 13.95 9.0 16.8 5.25 12.25 4.45 9.75 5.25 9.75 7.6 9.75 8.9 11.45 M15.1 11.55 L14.5 7.6 15.1 11.55 M4.15 7.5 L3.1 7.45 Q0.85 3.8 1.7 0.0 L5.4 0.5 6.05 7.5 4.15 7.5" fill="#271818" fill-rule="evenodd" stroke="none"/>
    <path d="M11.1 10.7 L12.5 10.2 14.0 12.75 12.8 13.2 13.1 13.65 16.4 12.75 15.55 6.75 11.9 6.0 11.1 6.85 9.6 8.4 11.1 10.7 8.9 11.45 7.9 12.05 9.25 14.35 10.55 13.95 12.8 13.2 M5.4 0.5 L6.7 1.5 7.0 6.0 11.1 6.85 M4.15 7.5 L3.1 7.45 Q0.85 3.8 1.7 0.0 L5.4 0.5 M6.05 7.5 L7.1 7.5 7.0 6.0 M8.9 11.45 L7.6 9.75 5.25 9.75 4.45 9.75 5.25 12.25 9.0 16.8 10.55 13.95 M5.25 9.75 L4.15 7.5 6.05 7.5" fill="none" stroke="#0e0e0e" stroke-linecap="round" stroke-linejoin="round" stroke-width="1.0"/>
    <path d="M14.5 7.6 L15.1 11.55" fill="none" stroke="#ff0000" stroke-linecap="round" stroke-linejoin="round" stroke-width="1.0"/>
  </g>
</svg>
