<?xml version="1.0" encoding="UTF-8" standalone="no"?>
<svg xmlns:ffdec="https://www.free-decompiler.com/flash" xmlns:xlink="http://www.w3.org/1999/xlink" ffdec:objectType="shape" height="21.85px" width="16.6px" xmlns="http://www.w3.org/2000/svg">
  <g transform="matrix(1.0, 0.0, 0.0, 1.0, 5.1, -0.45)">
    <path d="M6.5 17.5 Q4.8 16.65 2.35 14.5 L1.5 13.5 0.85 12.6 0.05 10.7 -0.55 8.85 -0.6 8.75 -1.3 8.2 Q-2.25 7.0 -2.6 5.95 L-3.2 3.95 Q-3.4 3.0 -2.4 2.65 L-1.05 2.0 1.85 1.0 3.25 1.4 4.2 2.6 5.3 4.35 5.6 5.25 Q5.35 5.65 5.85 5.85 L6.6 6.35 6.85 7.0 7.05 7.3 7.2 7.45 Q7.8 8.1 8.1 9.3 L8.5 11.6 9.35 15.85 8.75 16.75 Q7.75 17.65 6.5 17.5" fill="#313131" fill-rule="evenodd" stroke="none"/>
    <path d="M8.75 16.75 Q9.8 16.65 10.1 17.35 10.45 18.05 10.25 19.0 10.25 20.3 9.5 21.25 8.25 22.2 7.35 21.5 L6.85 21.0 Q5.95 19.5 6.5 17.5 7.75 17.65 8.75 16.75" fill="#707070" fill-rule="evenodd" stroke="none"/>
    <path d="M6.5 17.5 Q4.8 16.65 2.35 14.5 L1.5 13.5 0.85 12.6 0.05 10.7 -0.55 8.85 -0.6 8.75 -1.3 8.2 Q-2.25 7.0 -2.6 5.95 L-3.2 3.95 Q-3.4 3.0 -2.4 2.65 L-1.05 2.0 1.85 1.0 3.25 1.4 4.2 2.6 5.3 4.35 5.6 5.25 Q5.35 5.65 5.85 5.85 L6.6 6.35 6.85 7.0 7.05 7.3 7.2 7.45 Q7.8 8.1 8.1 9.3 L8.5 11.6 9.35 15.85 8.75 16.75 Q7.75 17.65 6.5 17.5" fill="none" stroke="#1e1e1e" stroke-linecap="round" stroke-linejoin="round" stroke-width="1.0"/>
    <path d="M8.75 16.75 Q9.8 16.65 10.1 17.35 10.45 18.05 10.25 19.0 10.25 20.3 9.5 21.25 8.25 22.2 7.35 21.5 L6.85 21.0 Q5.95 19.5 6.5 17.5" fill="none" stroke="#3c3c3c" stroke-linecap="round" stroke-linejoin="round" stroke-width="1.0"/>
    <path d="M9.7 13.0 L10.35 16.25 11.0 19.75 10.65 20.75 9.0 19.35 8.4 17.95 6.1 18.15 4.3 16.05 Q6.9 15.7 8.15 14.95 L9.0 14.1 9.7 13.0 M10.35 16.25 L8.1 17.2 8.4 17.95 8.1 17.2 10.35 16.25" fill="#313131" fill-rule="evenodd" stroke="none"/>
    <path d="M-1.05 9.65 L-2.85 8.95 -4.5 5.25 Q-4.95 3.05 -3.5 1.55 L-2.15 0.95 -1.35 3.8 -0.35 7.8 -1.05 9.65" fill="#3f3f3f" fill-rule="evenodd" stroke="none"/>
    <path d="M4.3 16.05 L3.15 15.15 Q-0.5 12.35 -1.05 9.65 L-0.35 7.8 -1.35 3.8 1.05 3.0 2.6 8.05 5.4 8.85 8.15 14.95 Q6.9 15.7 4.3 16.05 M3.25 13.9 L4.3 13.4 2.2 9.15 -0.05 10.4 Q1.2 12.5 3.25 13.9" fill="#484848" fill-rule="evenodd" stroke="none"/>
    <path d="M1.05 3.0 L4.55 1.85 Q6.0 2.95 7.8 5.95 9.55 8.9 9.7 13.0 L9.0 14.1 8.15 14.95 5.4 8.85 2.6 8.05 1.05 3.0 M6.8 6.65 L6.6 6.35 5.6 7.1 7.35 10.95 7.8 10.75 7.9 10.95 8.9 10.45 Q8.3 8.0 7.15 6.35 L6.8 6.65" fill="#545454" fill-rule="evenodd" stroke="none"/>
    <path d="M7.8 10.75 L6.15 7.1 6.8 6.65 7.15 6.35 Q8.3 8.0 8.9 10.45 L7.9 10.95 7.8 10.75 M3.25 13.9 Q1.2 12.5 -0.05 10.4 L2.2 9.15 4.3 13.4 3.25 13.9" fill="#790000" fill-rule="evenodd" stroke="none"/>
    <path d="M1.05 3.0 L2.6 8.05 5.4 8.85 8.15 14.95" fill="none" stroke="#3f3f3f" stroke-linecap="round" stroke-linejoin="round" stroke-width="1.0"/>
    <path d="M1.05 3.0 L4.55 1.85 Q6.0 2.95 7.8 5.95 9.55 8.9 9.7 13.0 L10.35 16.25 11.0 19.75 10.65 20.75 9.0 19.35 8.4 17.95 6.1 18.15 4.3 16.05 3.15 15.15 Q-0.5 12.35 -1.05 9.65 L-2.85 8.95 -4.5 5.25 Q-4.95 3.05 -3.5 1.55 L-2.15 0.95 -1.35 3.8 1.05 3.0 M8.15 14.95 L9.0 14.1 9.7 13.0 M8.4 17.95 L8.1 17.2 10.35 16.25 M4.3 16.05 Q6.9 15.7 8.15 14.95 M-1.05 9.65 L-0.35 7.8 -1.35 3.8" fill="none" stroke="#252525" stroke-linecap="round" stroke-linejoin="round" stroke-width="1.0"/>
    <path d="M7.8 10.75 L6.15 7.1 6.8 6.65 7.15 6.35 Q8.3 8.0 8.9 10.45 L7.9 10.95 7.8 10.75 M3.25 13.9 Q1.2 12.5 -0.05 10.4 L2.2 9.15 4.3 13.4 3.25 13.9 Z" fill="none" stroke="#2e0000" stroke-linecap="round" stroke-linejoin="round" stroke-width="1.0"/>
  </g>
</svg>
