<?xml version="1.0" encoding="UTF-8" standalone="no"?>
<svg xmlns:ffdec="https://www.free-decompiler.com/flash" xmlns:xlink="http://www.w3.org/1999/xlink" ffdec:objectType="shape" height="32.6px" width="84.9px" xmlns="http://www.w3.org/2000/svg">
  <g transform="matrix(1.0, 0.0, 0.0, 1.0, 20.7, 11.1)">
    <path d="M51.75 -6.35 Q64.2 -1.55 64.2 5.2 64.2 11.95 51.75 16.7 39.35 21.5 21.75 21.5 4.15 21.5 -8.3 16.7 -20.7 11.95 -20.7 5.2 -20.7 -1.55 -8.3 -6.35 4.15 -11.1 21.75 -11.1 39.35 -11.1 51.75 -6.35" fill="url(#gradient0)" fill-rule="evenodd" stroke="none"/>
    <path d="M16.35 0.7 Q22.65 0.5 26.85 1.45 L24.2 3.75 18.4 3.75 16.35 0.7 M2.6 5.05 L0.0 0.15 14.05 0.7 17.25 5.6 24.85 5.6 29.75 1.7 Q42.4 3.5 47.85 8.5 L23.5 8.5 20.4 10.75 0.8 10.75 2.25 7.1 13.4 7.1 11.5 5.05 2.6 5.05" fill="#ffffff" fill-rule="evenodd" stroke="none"/>
    <path d="M16.35 0.7 L18.4 3.75 24.2 3.75 26.85 1.45 Q22.65 0.5 16.35 0.7 M2.6 5.05 L0.0 0.15 14.05 0.7 17.25 5.6 24.85 5.6 29.75 1.7 Q42.4 3.5 47.85 8.5 L23.5 8.5 20.4 10.75 0.8 10.75 2.25 7.1 13.4 7.1 11.5 5.05 2.6 5.05 Z" fill="none" stroke="#cccccc" stroke-linecap="round" stroke-linejoin="round" stroke-width="1.0"/>
  </g>
  <defs>
    <radialGradient cx="0" cy="0" gradientTransform="matrix(0.0396, 0.0, 0.0, 0.0177, 21.75, 5.2)" gradientUnits="userSpaceOnUse" id="gradient0" r="819.2" spreadMethod="pad">
      <stop offset="0.0" stop-color="#ffffff" stop-opacity="0.6"/>
      <stop offset="0.0" stop-color="#ffffff"/>
      <stop offset="1.0" stop-color="#ffffff" stop-opacity="0.0"/>
    </radialGradient>
  </defs>
</svg>
