<?xml version="1.0" encoding="UTF-8" standalone="no"?>
<svg xmlns:xlink="http://www.w3.org/1999/xlink" height="17.0px" width="21.15px" xmlns="http://www.w3.org/2000/svg">
  <g transform="matrix(1.0, 0.0, 0.0, 1.0, 9.25, 14.35)">
    <path d="M5.85 -2.0 Q8.5 -0.55 10.05 -0.95 8.5 -0.55 5.85 -2.0 M9.9 -3.3 L10.05 -0.95 9.85 2.15 Q4.2 -0.3 -0.2 -3.35 -3.35 -5.55 -5.9 -8.0 L-6.85 -8.95 -7.65 -9.8 -8.75 -11.1 -6.6 -12.85 Q-5.25 -13.7 -3.85 -13.8 -1.4 -14.05 1.75 -12.9 4.9 -11.85 7.85 -9.1 6.15 -8.6 5.55 -7.6 4.9 -6.45 5.95 -4.9 7.45 -3.15 9.9 -3.3 M0.5 -6.3 L-0.2 -3.35 0.5 -6.3 -4.25 -10.9 0.5 -6.3" fill="#cccccc" fill-rule="evenodd" stroke="none"/>
    <path d="M7.85 -9.1 L9.0 -9.1 Q7.4 -6.05 11.4 -3.3 L9.9 -3.3 Q7.45 -3.15 5.95 -4.9 4.9 -6.45 5.55 -7.6 6.15 -8.6 7.85 -9.1" fill="#4d4d4d" fill-rule="evenodd" stroke="none"/>
    <path d="M9.0 -9.1 Q11.2 -6.95 11.4 -3.3 7.4 -6.05 9.0 -9.1" fill="#cc0000" fill-rule="evenodd" stroke="none"/>
    <path d="M10.05 -0.95 Q8.5 -0.55 5.85 -2.0" fill="none" stroke="#000000" stroke-linecap="round" stroke-linejoin="round" stroke-width="1.0"/>
    <path d="M9.0 -9.1 Q11.2 -6.95 11.4 -3.3 7.4 -6.05 9.0 -9.1" fill="none" stroke="#760101" stroke-linecap="round" stroke-linejoin="round" stroke-width="1.0"/>
    <path d="M9.9 -3.3 L10.05 -0.95 9.85 2.15 Q4.2 -0.3 -0.2 -3.35 -3.35 -5.55 -5.9 -8.0 L-6.85 -8.95 -7.65 -9.8 -8.75 -11.1 -6.6 -12.85 Q-5.25 -13.7 -3.85 -13.8 -1.4 -14.05 1.75 -12.9 4.9 -11.85 7.85 -9.1 M-0.2 -3.35 L0.5 -6.3" fill="none" stroke="#777777" stroke-linecap="round" stroke-linejoin="round" stroke-width="1.0"/>
    <path d="M7.85 -9.1 L9.0 -9.1 M11.4 -3.3 L9.9 -3.3 Q7.45 -3.15 5.95 -4.9 4.9 -6.45 5.55 -7.6 6.15 -8.6 7.85 -9.1" fill="none" stroke="#373737" stroke-linecap="round" stroke-linejoin="round" stroke-width="1.0"/>
    <path d="M0.5 -6.3 L-4.25 -10.9" fill="none" stroke="#a6a6a6" stroke-linecap="round" stroke-linejoin="round" stroke-width="1.0"/>
  </g>
</svg>
