<?xml version="1.0" encoding="UTF-8" standalone="no"?>
<svg xmlns:xlink="http://www.w3.org/1999/xlink" height="18.35px" width="20.3px" xmlns="http://www.w3.org/2000/svg">
  <g transform="matrix(1.0, 0.0, 0.0, 1.0, 8.65, 16.85)">
    <path d="M7.75 -10.65 L8.45 -8.45 8.7 -6.65 2.35 -5.05 Q1.15 -5.4 -0.3 -6.1 L-1.75 -6.8 -1.8 -9.8 Q1.25 -12.35 7.75 -10.65 M5.4 -8.4 L3.7 -8.4 5.4 -8.4" fill="#cc9933" fill-rule="evenodd" stroke="none"/>
    <path d="M-1.75 -6.8 L-0.3 -6.1 Q1.15 -5.4 2.35 -5.05 3.9 -1.8 5.35 -1.0 L3.1 -1.35 -2.6 -1.6 Q-6.35 -2.4 -7.65 -5.4 L-6.55 -5.55 Q-3.7 -6.1 -1.75 -6.8 M-2.55 -3.1 L-3.35 -4.75 -2.55 -3.1 M-0.45 -2.6 L-0.8 -3.65 -0.45 -2.6" fill="#515151" fill-rule="evenodd" stroke="none"/>
    <path d="M3.1 -1.35 L3.1 0.7 1.6 0.7 -0.2 0.6 -2.5 0.3 -2.6 0.25 -2.6 -1.6 3.1 -1.35" fill="#000000" fill-rule="evenodd" stroke="none"/>
    <path d="M8.45 -3.35 Q7.65 -2.5 6.55 -2.6 7.65 -2.5 8.45 -3.35 M2.35 -5.05 L8.7 -6.65 10.55 -6.65 Q11.8 -2.0 10.35 -0.85 L5.35 -1.0 Q3.9 -1.8 2.35 -5.05" fill="#6f6f6f" fill-rule="evenodd" stroke="none"/>
    <path d="M7.75 -10.65 Q1.25 -12.35 -1.8 -9.8 L-6.55 -12.25 -8.15 -13.15 Q-6.85 -14.55 -4.55 -15.6 -0.05 -17.0 4.0 -15.7 8.0 -14.45 9.75 -10.9 L7.75 -10.65 M-0.1 -13.1 Q-1.9 -13.15 -4.55 -15.6 -1.9 -13.15 -0.1 -13.1" fill="#aeaeae" fill-rule="evenodd" stroke="none"/>
    <path d="M-1.8 -9.8 L-1.75 -6.8 Q-3.7 -6.1 -6.55 -5.55 -7.6 -9.0 -6.55 -12.25 L-1.8 -9.8 M-5.0 -7.3 L-5.0 -8.6 -5.0 -7.3 M-3.5 -7.85 L-3.5 -8.75 -3.5 -7.85" fill="#666666" fill-rule="evenodd" stroke="none"/>
    <path d="M8.7 -6.65 L8.45 -8.45 7.75 -10.65" fill="none" stroke="#5f4429" stroke-linecap="round" stroke-linejoin="round" stroke-width="1.0"/>
    <path d="M7.75 -10.65 Q1.25 -12.35 -1.8 -9.8 L-6.55 -12.25 -8.15 -13.15 Q-6.85 -14.55 -4.55 -15.6 -0.05 -17.0 4.0 -15.7 8.0 -14.45 9.75 -10.9 L7.75 -10.65 M-6.55 -5.55 Q-7.6 -9.0 -6.55 -12.25" fill="none" stroke="#3c3c3c" stroke-linecap="round" stroke-linejoin="round" stroke-width="1.0"/>
    <path d="M8.7 -6.65 L10.55 -6.65 Q11.8 -2.0 10.35 -0.85 L5.35 -1.0 3.1 -1.35 -2.6 -1.6 Q-6.35 -2.4 -7.65 -5.4 M-0.8 -3.65 L-0.45 -2.6 M-3.35 -4.75 L-2.55 -3.1" fill="none" stroke="#2b2b2b" stroke-linecap="round" stroke-linejoin="round" stroke-width="1.0"/>
    <path d="M2.35 -5.05 L8.7 -6.65 M5.35 -1.0 Q3.9 -1.8 2.35 -5.05" fill="none" stroke="#404040" stroke-linecap="round" stroke-linejoin="round" stroke-width="1.0"/>
    <path d="M3.7 -8.4 L5.4 -8.4" fill="none" stroke="#966825" stroke-linecap="round" stroke-linejoin="round" stroke-width="2.0"/>
    <path d="M3.1 -1.35 L3.1 0.7 1.6 0.7 -0.2 0.6 -2.5 0.3 -2.6 0.25 -2.6 -1.6" fill="none" stroke="#000000" stroke-linecap="round" stroke-linejoin="round" stroke-width="1.0"/>
    <path d="M-1.8 -9.8 L-1.75 -6.8 -0.3 -6.1 Q1.15 -5.4 2.35 -5.05 M-7.65 -5.4 L-6.55 -5.55 Q-3.7 -6.1 -1.75 -6.8" fill="none" stroke="#333333" stroke-linecap="round" stroke-linejoin="round" stroke-width="1.0"/>
    <path d="M6.55 -2.6 Q7.65 -2.5 8.45 -3.35 M-3.5 -8.75 L-3.5 -7.85 M-5.0 -8.6 L-5.0 -7.3" fill="none" stroke="#484848" stroke-linecap="round" stroke-linejoin="round" stroke-width="1.0"/>
    <path d="M-4.55 -15.6 Q-1.9 -13.15 -0.1 -13.1" fill="none" stroke="#777777" stroke-linecap="round" stroke-linejoin="round" stroke-width="1.0"/>
    <path d="M0.25 -5.8 Q-2.65 -6.9 -1.6 -10.05 1.6 -11.6 9.65 -10.55 L10.45 -6.45 Q3.15 -4.75 0.25 -5.8" fill="#990000" fill-opacity="0.7019608" fill-rule="evenodd" stroke="none"/>
    <path d="M0.25 -5.8 Q-2.65 -6.9 -1.6 -10.05 1.6 -11.6 9.65 -10.55 L10.45 -6.45 Q3.15 -4.75 0.25 -5.8 Z" fill="none" stroke="#000000" stroke-linecap="round" stroke-linejoin="round" stroke-opacity="0.3019608" stroke-width="1.0"/>
    <path d="M5.9 -2.45 Q6.5 -3.0 7.35 -3.0 8.2 -3.0 8.75 -2.45 9.35 -1.85 9.35 -1.0 9.35 -0.15 8.75 0.4 8.2 1.0 7.35 1.0 6.5 1.0 5.9 0.4 5.35 -0.15 5.35 -1.0 5.35 -1.85 5.9 -2.45" fill="#888888" fill-rule="evenodd" stroke="none"/>
    <path d="M5.9 -2.45 Q6.5 -3.0 7.35 -3.0 8.2 -3.0 8.75 -2.45 9.35 -1.85 9.35 -1.0 9.35 -0.15 8.75 0.4 8.2 1.0 7.35 1.0 6.5 1.0 5.9 0.4 5.35 -0.15 5.35 -1.0 5.35 -1.85 5.9 -2.45 Z" fill="none" stroke="#262626" stroke-linecap="round" stroke-linejoin="round" stroke-width="1.0"/>
  </g>
</svg>
