<?xml version="1.0" encoding="UTF-8" standalone="no"?>
<svg xmlns:xlink="http://www.w3.org/1999/xlink" height="18.85px" width="21.8px" xmlns="http://www.w3.org/2000/svg">
  <g transform="matrix(1.0, 0.0, 0.0, 1.0, 9.0, 16.8)">
    <path d="M2.85 -15.55 L6.15 -14.3 2.5 -11.8 Q0.85 -10.65 1.0 -10.1 1.45 -9.65 1.35 -7.65 L2.95 -4.9 Q4.15 -4.4 5.75 -4.1 6.85 -3.05 8.15 -3.6 L8.95 -3.65 Q9.6 -3.45 9.95 -2.75 8.3 -2.25 8.6 0.6 4.9 -0.05 2.0 -1.5 0.75 -3.1 0.3 -4.25 L-2.05 -3.85 -2.9 -5.1 Q-5.4 -7.95 -3.05 -10.65 L-1.65 -10.8 Q1.0 -13.2 2.85 -15.55 M9.2 -12.0 Q12.05 -11.3 12.3 -9.0 9.1 -11.6 4.1 -9.3 5.7 -11.75 9.2 -12.0 M-2.05 -7.1 L-2.05 -9.1 -2.05 -7.1 M-0.55 -7.2 L-0.65 -9.2 -0.55 -7.2" fill="#333333" fill-rule="evenodd" stroke="none"/>
    <path d="M8.6 -9.55 Q10.1 -7.9 8.95 -3.65 L8.15 -3.6 Q6.85 -3.05 5.75 -4.1 4.55 -5.0 3.55 -7.3 5.25 -8.65 7.75 -9.35 L8.6 -9.55" fill="#00ff00" fill-rule="evenodd" stroke="none"/>
    <path d="M9.95 -2.75 Q10.55 -1.65 10.25 0.4 L8.6 0.6 Q8.3 -2.25 9.95 -2.75 M2.0 -1.5 Q2.15 -0.6 2.7 0.1 0.2 2.95 -3.1 0.15 L-2.9 -1.7 Q-4.0 -2.9 -3.9 -3.85 L-7.15 -4.4 Q-5.9 -6.85 -7.8 -8.3 -8.95 -8.8 -8.25 -10.45 -6.15 -11.1 -6.2 -11.95 L-5.8 -13.15 -4.35 -14.3 Q-3.15 -14.75 -2.15 -15.15 -3.75 -13.65 -3.7 -12.15 -2.4 -11.7 -3.05 -10.65 -5.4 -7.95 -2.9 -5.1 L-2.05 -3.85 0.3 -4.25 Q0.75 -3.1 2.0 -1.5 L-0.95 -1.35 Q-1.55 -1.25 -2.9 -1.7 -1.55 -1.25 -0.95 -1.35 L2.0 -1.5" fill="#222222" fill-rule="evenodd" stroke="none"/>
    <path d="M-2.15 -15.15 Q-1.75 -15.6 -1.75 -16.25 L0.4 -16.1 2.85 -15.55 Q1.0 -13.2 -1.65 -10.8 L-3.05 -10.65 Q-2.4 -11.7 -3.7 -12.15 -3.75 -13.65 -2.15 -15.15 M6.15 -14.3 L8.15 -12.45 Q8.5 -12.25 9.2 -12.0 5.7 -11.75 4.1 -9.3 9.1 -11.6 12.3 -9.0 L8.6 -9.55 7.75 -9.35 Q5.25 -8.65 3.55 -7.3 4.55 -5.0 5.75 -4.1 4.15 -4.4 2.95 -4.9 L1.35 -7.65 Q1.45 -9.65 1.0 -10.1 0.85 -10.65 2.5 -11.8 L6.15 -14.3" fill="#1e1e1e" fill-rule="evenodd" stroke="none"/>
    <path d="M-2.15 -15.15 Q-1.75 -15.6 -1.75 -16.25 L0.4 -16.1 2.85 -15.55 6.15 -14.3 8.15 -12.45 Q8.5 -12.25 9.2 -12.0 12.05 -11.3 12.3 -9.0 L8.6 -9.55 Q10.1 -7.9 8.95 -3.65 9.6 -3.45 9.95 -2.75 10.55 -1.65 10.25 0.4 L8.6 0.6 Q4.9 -0.05 2.0 -1.5 2.15 -0.6 2.7 0.1 0.2 2.95 -3.1 0.15 L-2.9 -1.7 Q-4.0 -2.9 -3.9 -3.85 L-7.15 -4.4 Q-5.9 -6.85 -7.8 -8.3 -8.95 -8.8 -8.25 -10.45 -6.15 -11.1 -6.2 -11.95 L-5.8 -13.15 -4.35 -14.3 Q-3.15 -14.75 -2.15 -15.15 -3.75 -13.65 -3.7 -12.15 -2.4 -11.7 -3.05 -10.65 L-1.65 -10.8 Q1.0 -13.2 2.85 -15.55 M8.6 -9.55 L7.75 -9.35 Q5.25 -8.65 3.55 -7.3 4.55 -5.0 5.75 -4.1 6.85 -3.05 8.15 -3.6 L8.95 -3.65 M6.15 -14.3 L2.5 -11.8 Q0.85 -10.65 1.0 -10.1 1.45 -9.65 1.35 -7.65 L2.95 -4.9 Q4.15 -4.4 5.75 -4.1 M-3.05 -10.65 Q-5.4 -7.95 -2.9 -5.1 L-2.05 -3.85 0.3 -4.25 Q0.75 -3.1 2.0 -1.5 L-0.95 -1.35 Q-1.55 -1.25 -2.9 -1.7 M9.2 -12.0 Q5.7 -11.75 4.1 -9.3 9.1 -11.6 12.3 -9.0 M9.95 -2.75 Q8.3 -2.25 8.6 0.6 M-0.65 -9.2 L-0.55 -7.2 M-2.05 -9.1 L-2.05 -7.1" fill="none" stroke="#000000" stroke-linecap="round" stroke-linejoin="round" stroke-width="1.0"/>
  </g>
</svg>
