<?xml version="1.0" encoding="UTF-8" standalone="no"?>
<svg xmlns:xlink="http://www.w3.org/1999/xlink" height="19.6px" width="20.65px" xmlns="http://www.w3.org/2000/svg">
  <g transform="matrix(1.0, 0.0, 0.0, 1.0, 10.5, 16.6)">
    <path d="M-5.4 -3.65 L-8.75 -5.0 -10.0 -9.2 -6.7 -11.6 -6.8 -10.05 -6.75 -7.3 Q-6.6 -5.7 -5.4 -3.65 M-8.3 -7.85 L-8.4 -8.85 -8.3 -7.85 M-7.85 -5.55 L-8.05 -6.7 -7.85 -5.55" fill="#aa974d" fill-rule="evenodd" stroke="none"/>
    <path d="M0.2 -16.1 L2.85 -13.45 7.1 -13.45 Q8.95 -11.2 7.8 -10.6 0.65 -11.35 -1.3 -9.2 -0.15 -7.8 2.05 -6.9 4.65 -5.9 8.05 -6.05 L9.45 -6.05 9.65 -3.9 6.35 -4.15 5.75 -1.7 8.8 0.9 7.75 2.5 3.0 -1.25 -3.15 -1.25 Q-4.65 -2.5 -5.4 -3.65 -6.6 -5.7 -6.75 -7.3 L-6.8 -10.05 -3.9 -11.2 -2.15 -13.3 -2.85 -15.65 -0.85 -16.05 -0.8 -16.05 0.2 -16.1 M-0.3 -4.9 L-1.85 -6.4 -0.3 -4.9 M-0.8 -2.8 L-3.65 -5.15 -0.8 -2.8" fill="#e1cb73" fill-rule="evenodd" stroke="none"/>
    <path d="M3.0 -1.25 L3.0 0.6 Q0.3 3.35 -3.15 0.55 L-3.15 -1.25 3.0 -1.25" fill="#7e6a3d" fill-rule="evenodd" stroke="none"/>
    <path d="M7.8 -10.6 Q7.5 -9.7 7.55 -8.3 7.6 -6.85 8.05 -6.05 4.65 -5.9 2.05 -6.9 -0.15 -7.8 -1.3 -9.2 0.65 -11.35 7.8 -10.6" fill="url(#gradient0)" fill-rule="evenodd" stroke="none"/>
    <path d="M0.2 -16.1 L0.9 -16.1 2.85 -15.9 Q5.45 -15.4 7.0 -13.55 L7.1 -13.45 2.85 -13.45 0.2 -16.1 M9.65 -3.9 Q9.7 -1.1 8.8 0.9 L5.75 -1.7 6.35 -4.15 9.65 -3.9 M-6.7 -11.6 L-6.2 -12.7 -5.0 -14.35 Q-4.15 -15.2 -2.85 -15.65 L-2.15 -13.3 -3.9 -11.2 -6.8 -10.05 -6.7 -11.6" fill="#af9558" fill-rule="evenodd" stroke="none"/>
    <path d="M0.2 -16.1 L2.85 -13.45 7.1 -13.45 M9.65 -3.9 L6.35 -4.15 5.75 -1.7 8.8 0.9 M-2.85 -15.65 L-2.15 -13.3 -3.9 -11.2 -6.8 -10.05 M-3.65 -5.15 L-0.8 -2.8 M-1.85 -6.4 L-0.3 -4.9" fill="none" stroke="#80704d" stroke-linecap="round" stroke-linejoin="round" stroke-width="1.0"/>
    <path d="M7.1 -13.45 L7.0 -13.55 Q5.45 -15.4 2.85 -15.9 L0.9 -16.1 0.2 -16.1 -0.8 -16.05 -0.85 -16.05 -2.85 -15.65 Q-4.15 -15.2 -5.0 -14.35 L-6.2 -12.7 -6.7 -11.6 M7.1 -13.45 Q8.95 -11.2 7.8 -10.6 M-8.4 -8.85 L-8.3 -7.85 M-8.05 -6.7 L-7.85 -5.55" fill="none" stroke="#504630" stroke-linecap="round" stroke-linejoin="round" stroke-width="1.0"/>
    <path d="M-6.8 -10.05 L-6.75 -7.3 Q-6.6 -5.7 -5.4 -3.65 M-6.7 -11.6 L-6.8 -10.05" fill="none" stroke="#756646" stroke-linecap="round" stroke-linejoin="round" stroke-width="1.0"/>
    <path d="M8.05 -6.05 L9.45 -6.05 9.65 -3.9 Q9.7 -1.1 8.8 0.9 L7.75 2.5 3.0 -1.25 3.0 0.6 Q0.3 3.35 -3.15 0.55 L-3.15 -1.25 Q-4.65 -2.5 -5.4 -3.65 L-8.75 -5.0 -10.0 -9.2 -6.7 -11.6" fill="none" stroke="#453929" stroke-linecap="round" stroke-linejoin="round" stroke-width="1.0"/>
    <path d="M3.0 -1.25 L-3.15 -1.25" fill="none" stroke="#504330" stroke-linecap="round" stroke-linejoin="round" stroke-width="1.0"/>
    <path d="M7.8 -10.6 Q7.5 -9.7 7.55 -8.3 7.6 -6.85 8.05 -6.05 4.65 -5.9 2.05 -6.9 -0.15 -7.8 -1.3 -9.2 0.65 -11.35 7.8 -10.6 Z" fill="none" stroke="#1d3338" stroke-linecap="round" stroke-linejoin="round" stroke-width="1.0"/>
  </g>
  <defs>
    <linearGradient gradientTransform="matrix(0.0071, 0.0, 0.0, 0.0026, 2.3, -9.3)" gradientUnits="userSpaceOnUse" id="gradient0" spreadMethod="pad" x1="-819.2" x2="819.2">
      <stop offset="0.0" stop-color="#2f3e91"/>
      <stop offset="1.0" stop-color="#018bfc"/>
    </linearGradient>
  </defs>
</svg>
