<?xml version="1.0" encoding="UTF-8" standalone="no"?>
<svg xmlns:ffdec="https://www.free-decompiler.com/flash" xmlns:xlink="http://www.w3.org/1999/xlink" ffdec:objectType="shape" height="17.35px" width="20.7px" xmlns="http://www.w3.org/2000/svg">
  <g transform="matrix(1.0, 0.0, 0.0, 1.0, 0.5, 0.35)">
    <path d="M11.2 1.75 L13.4 2.35 13.35 2.4 12.15 5.05 9.8 1.3 11.2 1.75 M6.6 10.7 L6.4 10.85 5.65 9.75 6.6 10.7" fill="#996600" fill-rule="evenodd" stroke="none"/>
    <path d="M16.6 11.15 L16.45 11.1 17.8 11.3 18.35 11.65 18.45 11.75 16.6 11.15 M5.65 9.75 L4.15 8.0 3.25 6.3 5.65 9.75" fill="#d27e02" fill-rule="evenodd" stroke="none"/>
    <path d="M9.8 1.3 L12.15 5.05 11.1 5.35 5.35 5.15 9.6 1.25 9.8 1.3 M13.8 16.0 L13.7 15.95 13.75 15.95 13.85 15.95 13.8 16.0" fill="#3c3c3c" fill-rule="evenodd" stroke="none"/>
    <path d="M3.25 6.3 Q1.95 4.0 2.95 1.85 L3.25 1.55 3.75 1.05 Q3.8 0.95 3.9 0.95 5.3 -0.25 7.1 0.1 L7.45 0.15 8.1 0.3 9.6 1.25 5.35 5.15 3.25 6.3" fill="#333333" fill-rule="evenodd" stroke="none"/>
    <path d="M11.2 1.75 L9.8 1.3 9.75 1.25 11.2 1.75 M12.15 5.05 L12.15 5.1 12.1 5.5 12.05 5.6 Q13.95 8.15 13.9 9.45 12.4 11.8 12.0 15.1 L10.95 14.5 6.6 10.7 5.65 9.75 3.25 6.3 5.35 5.15 11.1 5.35 12.15 5.05" fill="#353535" fill-rule="evenodd" stroke="none"/>
    <path d="M13.9 9.45 L14.4 10.95 15.1 11.5 16.45 11.15 16.6 11.15 18.45 11.75 18.55 11.8 18.5 11.75 Q20.25 13.1 19.4 14.4 L16.4 14.05 13.75 15.95 12.0 15.1 Q12.4 11.8 13.9 9.45" fill="#232323" fill-rule="evenodd" stroke="none"/>
    <path d="M19.4 14.4 L18.1 16.1 15.9 16.5 14.2 16.1 13.8 16.0 13.85 15.95 13.75 15.95 16.4 14.05 19.4 14.4" fill="#4a0000" fill-rule="evenodd" stroke="none"/>
    <path d="M12.15 5.05 L13.35 2.4 13.4 2.35 11.2 1.75 9.8 1.3 9.6 1.25 M12.0 15.1 L10.95 14.5 6.6 10.7 5.65 9.75 4.15 8.0 3.25 6.3 Q1.95 4.0 2.95 1.85" fill="none" stroke="#653d01" stroke-linecap="round" stroke-linejoin="round" stroke-width="1.0"/>
    <path d="M16.6 11.15 L16.45 11.1 M13.8 16.0 L13.7 15.95 13.75 15.95 M13.85 15.95 L13.8 16.0" fill="none" stroke="#232323" stroke-linecap="round" stroke-linejoin="round" stroke-width="1.0"/>
    <path d="M18.35 11.65 L18.45 11.75 18.5 11.75 Q20.25 13.1 19.4 14.4 M13.75 15.95 L12.0 15.1 M18.55 11.8 L18.5 11.75 M16.6 11.15 L18.45 11.75" fill="none" stroke="#170404" stroke-linecap="round" stroke-linejoin="round" stroke-width="1.0"/>
    <path d="M13.75 15.95 L13.85 15.95" fill="none" stroke="#101010" stroke-linecap="round" stroke-linejoin="round" stroke-width="1.0"/>
    <path d="M9.8 1.3 L12.15 5.05 12.15 5.1 12.15 5.15 12.1 5.5 12.15 5.1 M7.45 0.15 L8.1 0.3 9.6 1.25 9.75 1.25 9.8 1.3" fill="none" stroke="#1e1e1e" stroke-linecap="round" stroke-linejoin="round" stroke-width="1.0"/>
    <path d="M19.4 14.4 L18.1 16.1 15.9 16.5 14.2 16.1 13.8 16.0 M13.75 15.95 L16.4 14.05 19.4 14.4" fill="none" stroke="#190000" stroke-linecap="round" stroke-linejoin="round" stroke-width="1.0"/>
    <path d="M5.9 10.05 L4.3 8.2 7.15 7.4 6.65 6.0 10.8 5.75 9.75 7.6 11.8 9.5 9.9 10.75 8.2 9.45 5.9 10.05" fill="#272727" fill-rule="evenodd" stroke="none"/>
    <path d="M10.8 5.75 L11.4 4.7 15.1 4.5 17.5 10.05 14.55 11.8 14.1 11.45 15.15 10.7 13.05 8.6 11.8 9.5 9.75 7.6 10.8 5.75 M12.15 12.7 L11.4 15.9 6.55 12.5 5.15 10.25 5.9 10.05 8.2 9.45 9.9 10.75 9.1 11.6 11.0 13.45 12.15 12.7 M4.3 8.2 L3.3 8.4 Q0.15 5.45 0.0 1.55 L3.7 1.1 5.2 1.7 6.65 6.0 7.15 7.4 4.3 8.2 M15.95 9.25 L14.3 5.6 15.95 9.25" fill="#4a0000" fill-rule="evenodd" stroke="none"/>
    <path d="M14.1 11.45 L12.15 12.7 11.0 13.45 9.1 11.6 9.9 10.75 11.8 9.5 13.05 8.6 15.15 10.7 14.1 11.45" fill="#171717" fill-rule="evenodd" stroke="none"/>
    <path d="M5.9 10.05 L4.3 8.2 M6.65 6.0 L10.8 5.75" fill="none" stroke="#0e0e0e" stroke-linecap="round" stroke-linejoin="round" stroke-width="1.0"/>
    <path d="M14.3 5.6 L15.95 9.25" fill="none" stroke="#ff0000" stroke-linecap="round" stroke-linejoin="round" stroke-width="1.0"/>
    <path d="M10.8 5.75 L11.4 4.7 15.1 4.5 17.5 10.05 14.55 11.8 M12.15 12.7 L11.4 15.9 6.55 12.5 5.15 10.25 5.9 10.05 8.2 9.45 9.9 10.75 M4.3 8.2 L3.3 8.4 Q0.15 5.45 0.0 1.55 L3.7 1.1 5.2 1.7 6.65 6.0 7.15 7.4 4.3 8.2 M10.8 5.75 L9.75 7.6 11.8 9.5" fill="none" stroke="#190000" stroke-linecap="round" stroke-linejoin="round" stroke-width="1.0"/>
    <path d="M14.1 11.45 L12.15 12.7 11.0 13.45 9.1 11.6 9.9 10.75 11.8 9.5 13.05 8.6 15.15 10.7 14.1 11.45 Z" fill="none" stroke="#0b0b0b" stroke-linecap="round" stroke-linejoin="round" stroke-width="1.0"/>
  </g>
</svg>
