<?xml version="1.0" encoding="UTF-8" standalone="no"?>
<svg xmlns:xlink="http://www.w3.org/1999/xlink" height="14.9px" width="19.1px" xmlns="http://www.w3.org/2000/svg">
  <g transform="matrix(1.0, 0.0, 0.0, 1.0, 6.0, 11.8)">
    <path d="M2.0 -0.15 L1.8 0.65 1.1 1.15 -0.65 0.35 -1.9 1.65 Q-2.15 1.8 -3.9 0.95 -3.3 -1.25 -3.5 -3.25 L-0.55 -2.45 -0.45 -1.2 Q0.7 -0.6 2.0 -0.15" fill="#d27e02" fill-rule="evenodd" stroke="none"/>
    <path d="M-2.6 -10.35 L-2.45 -10.05 Q-0.75 -12.1 4.4 -10.75 L4.8 -10.65 5.75 -10.4 6.8 -10.05 6.95 -9.9 Q9.0 -7.7 8.55 -6.8 6.15 -5.35 0.15 -4.8 -2.9 -6.35 -2.8 -8.75 L-2.6 -10.35 M4.1 -8.2 L3.05 -8.45 4.1 -8.2 4.8 -8.0 4.1 -8.2" fill="#e38902" fill-rule="evenodd" stroke="none"/>
    <path d="M8.55 -6.8 L10.0 -6.85 Q11.1 -5.95 12.15 -3.95 13.65 -0.8 10.1 0.55 L9.7 0.65 2.0 -0.15 Q0.7 -0.6 -0.45 -1.2 L-0.55 -2.45 Q-1.05 -4.8 0.15 -4.8 6.15 -5.35 8.55 -6.8 M6.05 -1.95 L8.05 -5.0 6.05 -1.95 M7.8 -1.0 L9.8 -4.0 7.8 -1.0" fill="#999999" fill-rule="evenodd" stroke="none"/>
    <path d="M1.1 1.15 L1.15 1.15 1.15 2.05 -0.75 2.6 -1.9 1.65 -0.65 0.35 1.1 1.15 M-3.5 -3.25 L-4.75 -3.8 Q-6.5 -8.4 -4.15 -9.85 L-2.6 -10.35 -2.8 -8.75 Q-2.9 -6.35 0.15 -4.8 -1.05 -4.8 -0.55 -2.45 L-3.5 -3.25 M-3.15 -5.15 Q-4.45 -6.8 -4.15 -9.85 -4.45 -6.8 -3.15 -5.15" fill="#666666" fill-rule="evenodd" stroke="none"/>
    <path d="M9.8 -4.0 L7.8 -1.0 M8.05 -5.0 L6.05 -1.95" fill="none" stroke="#333333" stroke-linecap="round" stroke-linejoin="round" stroke-width="1.0"/>
    <path d="M3.05 -8.45 L4.1 -8.2" fill="none" stroke="#910000" stroke-linecap="round" stroke-linejoin="round" stroke-width="2.0"/>
    <path d="M4.1 -8.2 L4.8 -8.0" fill="none" stroke="#3c0000" stroke-linecap="round" stroke-linejoin="round" stroke-width="2.0"/>
    <path d="M8.55 -6.8 L10.0 -6.85 Q11.1 -5.95 12.15 -3.95 13.65 -0.8 10.1 0.55 L9.7 0.65 2.0 -0.15 Q0.7 -0.6 -0.45 -1.2 L-0.55 -2.45 M8.55 -6.8 Q6.15 -5.35 0.15 -4.8" fill="none" stroke="#2f2f2f" stroke-linecap="round" stroke-linejoin="round" stroke-width="1.0"/>
    <path d="M-4.15 -9.85 Q-4.45 -6.8 -3.15 -5.15" fill="none" stroke="#1a1a1a" stroke-linecap="round" stroke-linejoin="round" stroke-width="1.0"/>
    <path d="M2.0 -0.15 L1.8 0.65 M-3.9 0.95 Q-3.3 -1.25 -3.5 -3.25 M-2.6 -10.35 L-2.45 -10.05 Q-0.75 -12.1 4.4 -10.75 L4.8 -10.65 5.75 -10.4 6.8 -10.05 6.95 -9.9 Q9.0 -7.7 8.55 -6.8" fill="none" stroke="#653d01" stroke-linecap="round" stroke-linejoin="round" stroke-width="1.0"/>
    <path d="M1.1 1.15 L1.15 1.15 1.15 2.05 -0.75 2.6 -1.9 1.65 -0.65 0.35 1.1 1.15 M-3.5 -3.25 L-4.75 -3.8 Q-6.5 -8.4 -4.15 -9.85 L-2.6 -10.35 -2.8 -8.75 Q-2.9 -6.35 0.15 -4.8 -1.05 -4.8 -0.55 -2.45 L-3.5 -3.25" fill="none" stroke="#262626" stroke-linecap="round" stroke-linejoin="round" stroke-width="1.0"/>
    <path d="M1.8 0.65 L1.1 1.15 M-1.9 1.65 Q-2.15 1.8 -3.9 0.95" fill="none" stroke="#af6a03" stroke-linecap="round" stroke-linejoin="round" stroke-width="1.0"/>
  </g>
</svg>
