<?xml version="1.0" encoding="UTF-8" standalone="no"?>
<svg xmlns:ffdec="https://www.free-decompiler.com/flash" xmlns:xlink="http://www.w3.org/1999/xlink" ffdec:objectType="shape" height="21.75px" width="12.75px" xmlns="http://www.w3.org/2000/svg">
  <g transform="matrix(1.0, 0.0, 0.0, 1.0, 1.7, -1.2)">
    <path d="M8.7 7.5 L9.4 7.1 10.55 7.1 10.35 9.5 8.85 9.95 6.75 11.6 7.7 15.05 8.75 15.15 7.7 15.05 6.75 11.6 8.85 9.95 10.35 9.5 Q10.0 12.75 9.05 16.1 L8.25 16.1 6.35 16.1 6.2 15.6 5.65 14.15 2.05 14.15 0.6 14.15 -1.1 8.5 -0.7 7.55 -0.1 5.95 -0.65 5.4 Q-1.35 3.45 -1.15 1.7 L2.05 1.7 2.65 2.7 3.2 3.7 6.05 3.7 6.05 5.6 4.8 7.0 2.9 7.0 3.4 8.85 6.05 10.55 7.15 9.8 8.7 7.5 M5.25 12.4 L2.15 12.4 1.1 8.35 -0.7 7.55 1.1 8.35 2.15 12.4 5.25 12.4 M8.1 17.3 L9.9 17.7 Q10.5 20.1 9.9 21.05 L8.4 21.05 6.3 21.05 6.3 16.85 8.1 17.3" fill="#350303" fill-rule="evenodd" stroke="none"/>
    <path d="M4.6 16.85 L3.8 16.85 3.8 15.75 6.2 15.6 6.35 16.1 8.25 16.1 8.1 17.3 6.3 16.85 4.6 16.85" fill="#1e1e1e" fill-rule="evenodd" stroke="none"/>
    <path d="M8.4 21.05 L7.3 22.45 5.45 22.45 4.05 21.25 3.5 19.35 4.6 16.85 6.3 16.85 6.3 21.05 8.4 21.05 M3.8 15.75 L3.8 15.7 2.75 15.7 2.05 14.15 5.65 14.15 6.2 15.6 3.8 15.75" fill="#171717" fill-rule="evenodd" stroke="none"/>
    <path d="M8.7 7.5 L7.15 9.8 6.05 10.55 3.4 8.85 2.9 7.0 4.8 7.0 6.05 5.6 6.05 3.7 3.2 3.7 2.65 2.7 7.85 3.1 Q9.05 5.65 8.7 7.5" fill="url(#gradient0)" fill-rule="evenodd" stroke="none"/>
    <path d="M2.65 2.7 L7.85 3.1 Q9.05 5.65 8.7 7.5 M8.4 21.05 L7.3 22.45 5.45 22.45 4.05 21.25 3.5 19.35 4.6 16.85 3.8 16.85 3.8 15.75 3.8 15.7 2.75 15.7 2.05 14.15 M8.1 17.3 L8.25 16.1 M6.3 16.85 L4.6 16.85 M6.2 15.6 L3.8 15.75" fill="none" stroke="#090909" stroke-linecap="round" stroke-linejoin="round" stroke-width="1.0"/>
    <path d="M-0.7 7.55 L1.1 8.35 2.15 12.4 5.25 12.4 M10.35 9.5 L8.85 9.95 6.75 11.6 7.7 15.05 8.75 15.15" fill="none" stroke="#2a0101" stroke-linecap="round" stroke-linejoin="round" stroke-width="1.0"/>
    <path d="M-0.1 5.95 L-0.65 5.4 Q-1.35 3.45 -1.15 1.7 L2.05 1.7 3.2 3.7 6.05 3.7 6.05 5.6 4.8 7.0 2.9 7.0 3.4 8.85 6.05 10.55 7.15 9.8 8.7 7.5 9.4 7.1 10.55 7.1 Q10.35 11.55 9.05 16.1 L6.35 16.1 5.65 14.15 0.6 14.15 -1.1 8.5 -0.1 5.95 1.0 7.0 2.9 7.0 M6.05 10.55 L5.0 11.25 5.65 14.15 M9.9 17.7 Q10.5 20.1 9.9 21.05 L6.3 21.05 6.3 16.85 9.9 17.7" fill="none" stroke="#190000" stroke-linecap="round" stroke-linejoin="round" stroke-width="1.0"/>
    <path d="M9.55 18.35 L9.5 19.95" fill="none" stroke="#ff0000" stroke-linecap="round" stroke-linejoin="round" stroke-width="1.0"/>
    <path d="M8.2 11.95 L10.0 11.95 9.35 15.05 7.7 15.05 8.2 11.95 M0.6 13.45 L-0.35 10.15 1.6 10.15 1.75 13.55 0.6 13.45" fill="#aa0000" fill-rule="evenodd" stroke="none"/>
    <path d="M8.2 11.95 L7.7 15.05 9.35 15.05 10.0 11.95 8.2 11.95 M0.6 13.45 L-0.35 10.15 1.6 10.15 1.75 13.55 0.6 13.45 Z" fill="none" stroke="#1c0101" stroke-linecap="round" stroke-linejoin="round" stroke-width="1.0"/>
  </g>
  <defs>
    <radialGradient cx="0" cy="0" gradientTransform="matrix(0.0095, 0.0, 0.0, 0.0066, 4.95, 7.7)" gradientUnits="userSpaceOnUse" id="gradient0" r="819.2" spreadMethod="pad">
      <stop offset="0.0" stop-color="#272727"/>
      <stop offset="1.0" stop-color="#121212"/>
      <stop offset="1.0" stop-color="#272727" stop-opacity="0.8"/>
      <stop offset="1.0" stop-color="#ff5151"/>
    </radialGradient>
  </defs>
</svg>
