<?xml version="1.0" encoding="UTF-8" standalone="no"?>
<svg xmlns:xlink="http://www.w3.org/1999/xlink" height="19.1px" width="22.25px" xmlns="http://www.w3.org/2000/svg">
  <g transform="matrix(1.0, 0.0, 0.0, 1.0, 9.25, 18.45)">
    <path d="M-6.1 -12.1 L-6.1 -15.3 -2.9 -15.3 -2.9 -18.45 6.65 -18.45 6.65 -15.3 9.85 -15.3 9.85 -12.1 -2.9 -12.1 -2.9 -8.9 3.45 -8.9 3.45 -5.75 3.45 -2.55 -2.9 -2.55 -2.9 -5.75 -6.1 -5.75 -6.1 -12.1 M9.85 -2.55 L9.85 0.65 3.45 0.65 3.45 -2.55 9.85 -2.55" fill="#c0c0c0" fill-rule="evenodd" stroke="none"/>
    <path d="M9.85 -12.1 L9.85 -5.75 3.45 -5.75 3.45 -8.9 -2.9 -8.9 -2.9 -12.1 9.85 -12.1" fill="#ff0000" fill-rule="evenodd" stroke="none"/>
    <path d="M9.85 -5.75 L13.0 -5.75 13.0 -2.55 9.85 -2.55 3.45 -2.55 3.45 -5.75 9.85 -5.75 M3.45 0.65 L-6.1 0.65 -6.1 -5.75 -9.25 -5.75 -9.25 -12.1 -6.1 -12.1 -6.1 -5.75 -2.9 -5.75 -2.9 -2.55 3.45 -2.55 3.45 0.65" fill="#808080" fill-rule="evenodd" stroke="none"/>
  </g>
</svg>
