<?xml version="1.0" encoding="UTF-8" standalone="no"?>
<svg xmlns:ffdec="https://www.free-decompiler.com/flash" xmlns:xlink="http://www.w3.org/1999/xlink" ffdec:objectType="shape" height="15.35px" width="29.3px" xmlns="http://www.w3.org/2000/svg">
  <g transform="matrix(1.0, 0.0, 0.0, 1.0, 6.9, 3.2)">
    <path d="M1.5 2.0 L7.55 1.6 Q9.9 2.15 11.55 3.3 L13.75 5.1 Q14.8 3.9 16.55 3.4 19.45 2.8 21.2 4.55 22.95 6.35 20.35 8.1 L13.25 8.95 12.2 9.0 10.85 8.9 0.4 7.55 Q-0.45 8.25 -1.35 5.65 -2.25 3.0 1.5 2.0 M13.75 5.1 Q14.7 6.3 14.65 7.55 14.55 8.65 13.25 8.95 14.55 8.65 14.65 7.55 14.7 6.3 13.75 5.1" fill="#232121" fill-rule="evenodd" stroke="none"/>
    <path d="M1.5 2.0 L7.55 1.6 Q9.9 2.15 11.55 3.3 L13.75 5.1 Q14.8 3.9 16.55 3.4 19.45 2.8 21.2 4.55 22.95 6.35 20.35 8.1 L13.25 8.95 12.2 9.0 10.85 8.9 0.4 7.55 Q-0.45 8.25 -1.35 5.65 M13.25 8.95 Q14.55 8.65 14.65 7.55 14.7 6.3 13.75 5.1" fill="none" stroke="#17181c" stroke-linecap="round" stroke-linejoin="round" stroke-width="1.0"/>
    <path d="M19.9 8.9 L20.3 8.8 19.9 8.9" fill="#585b6b" fill-rule="evenodd" stroke="none"/>
    <path d="M4.2 -0.5 L2.4 -2.7 Q5.85 -2.25 9.8 0.25 L10.6 1.4 11.0 1.75 4.8 0.25 4.2 -0.5 M8.0 9.9 Q5.8 11.2 2.1 11.65 -2.25 11.5 -6.4 10.05 -3.35 9.45 -2.2 7.95 -0.95 9.2 1.25 9.8 3.55 10.45 8.0 9.9" fill="#434769" fill-rule="evenodd" stroke="none"/>
    <path d="M10.6 1.4 L12.05 2.7 12.0 4.65 11.9 5.15 Q6.0 6.55 1.15 5.7 2.6 4.0 2.1 3.2 L2.9 1.95 2.15 -0.5 4.2 -0.5 4.8 0.25 11.0 1.75 10.6 1.4 M13.7 5.15 L15.4 4.7 Q19.1 4.7 20.0 6.1 20.9 7.45 19.9 8.9 17.0 9.35 15.1 7.25 L13.7 5.15 M8.8 3.95 L6.0 4.8 8.8 3.95" fill="#373943" fill-rule="evenodd" stroke="none"/>
    <path d="M11.9 5.15 L10.7 9.45 8.0 9.9 Q3.55 10.45 1.25 9.8 -0.95 9.2 -2.2 7.95 L-3.05 6.9 Q0.0 7.0 1.15 5.7 6.0 6.55 11.9 5.15 M19.9 8.9 Q18.15 10.1 16.75 10.1 15.3 10.05 13.6 9.15 11.85 8.25 12.0 7.25 12.15 6.2 13.7 5.15 L15.1 7.25 Q17.0 9.35 19.9 8.9 M8.8 6.75 L3.5 8.0 8.8 6.75" fill="#23252e" fill-rule="evenodd" stroke="none"/>
    <path d="M10.6 1.4 L12.05 2.7 12.0 4.65 11.9 5.15 10.7 9.45 8.0 9.9 Q3.55 10.45 1.25 9.8 -0.95 9.2 -2.2 7.95 L-3.05 6.9 Q0.0 7.0 1.15 5.7 2.6 4.0 2.1 3.2 L2.9 1.95 2.15 -0.5 4.2 -0.5 M13.7 5.15 L15.4 4.7 Q19.1 4.7 20.0 6.1 20.9 7.45 19.9 8.9 18.15 10.1 16.75 10.1 15.3 10.05 13.6 9.15 11.85 8.25 12.0 7.25 12.15 6.2 13.7 5.15" fill="none" stroke="#12121c" stroke-linecap="round" stroke-linejoin="round" stroke-width="1.0"/>
    <path d="M4.2 -0.5 L2.4 -2.7 Q5.85 -2.25 9.8 0.25 L10.6 1.4 11.0 1.75 4.8 0.25 4.2 -0.5 M8.0 9.9 Q5.8 11.2 2.1 11.65 -2.25 11.5 -6.4 10.05 -3.35 9.45 -2.2 7.95" fill="none" stroke="#141520" stroke-linecap="round" stroke-linejoin="round" stroke-width="1.0"/>
    <path d="M3.5 8.0 L8.8 6.75 M6.0 4.8 L8.8 3.95" fill="none" stroke="#1b1b20" stroke-linecap="round" stroke-linejoin="round" stroke-width="1.0"/>
  </g>
</svg>
