<?xml version="1.0" encoding="UTF-8" standalone="no"?>
<svg xmlns:ffdec="https://www.free-decompiler.com/flash" xmlns:xlink="http://www.w3.org/1999/xlink" ffdec:objectType="shape" height="48.15px" width="20.05px" xmlns="http://www.w3.org/2000/svg">
  <g transform="matrix(1.0, 0.0, 0.0, 1.0, 0.0, 0.0)">
    <path d="M8.75 29.1 Q6.75 34.2 7.1 38.1 3.3 41.3 0.0 48.15 1.75 42.5 1.75 35.9 L4.55 32.7 Q5.7 24.05 4.15 16.75 L6.9 10.7 7.2 29.2 8.75 29.1 M11.3 29.1 L12.85 29.2 13.15 10.7 15.9 16.75 Q14.35 24.05 15.5 32.7 L18.3 35.9 Q18.3 42.5 20.05 48.15 16.75 41.3 12.95 38.1 13.3 34.2 11.3 29.1 M9.15 25.25 L8.35 7.2 7.35 6.25 9.9 0.0 12.5 6.05 11.4 7.3 10.75 25.25 9.15 25.25 M6.2 41.95 L7.75 40.5 Q9.7 42.65 12.2 40.5 L13.8 41.95 Q10.4 43.9 10.0 47.2 9.75 43.8 6.2 41.95" fill="#ffffff" fill-rule="evenodd" stroke="none"/>
  </g>
</svg>
