<?xml version="1.0" encoding="UTF-8" standalone="no"?>
<svg xmlns:ffdec="https://www.free-decompiler.com/flash" xmlns:xlink="http://www.w3.org/1999/xlink" ffdec:objectType="shape" height="21.45px" width="15.65px" xmlns="http://www.w3.org/2000/svg">
  <g transform="matrix(1.0, 0.0, 0.0, 1.0, 5.2, 2.65)">
    <path d="M2.9 12.3 Q3.35 13.15 3.45 14.5 L3.25 17.0 3.6 17.85 4.15 18.35" ffdec:has-small-stroke="true" ffdec:original-stroke-width="0.95" fill="none" stroke="#080808" stroke-linecap="round" stroke-linejoin="round" stroke-width="1.0"/>
    <path d="M3.65 13.1 L7.7 13.1 Q8.55 14.7 8.1 16.15 L7.15 17.5 6.05 18.25 4.7 18.2 3.85 17.5 3.6 16.3 3.8 14.3 3.65 13.1" fill="#161616" fill-rule="evenodd" stroke="none"/>
    <path d="M3.65 13.1 L3.8 14.3 3.6 16.3 3.85 17.5 4.7 18.2 6.05 18.25 7.15 17.5 8.1 16.15 Q8.55 14.7 7.7 13.1" ffdec:has-small-stroke="true" ffdec:original-stroke-width="0.95" fill="none" stroke="#0d0d0d" stroke-linecap="round" stroke-linejoin="round" stroke-width="1.0"/>
    <path d="M8.0 5.25 L9.2 8.95 7.75 8.85 7.0 6.45 8.0 5.25" fill="#111313" fill-rule="evenodd" stroke="none"/>
    <path d="M-4.45 -2.05 L-1.8 -2.0 0.95 -0.75 3.3 -1.4 5.65 -0.65 7.95 5.3 7.3 6.6 8.05 8.9 9.3 9.15 9.6 9.4 9.9 10.3 9.45 14.1 7.4 15.35 3.75 13.9 1.1 5.8 -0.75 4.85 -2.95 4.5 -4.55 1.4 -4.75 -1.0 -4.45 -2.05" fill="#2d2e2e" fill-rule="evenodd" stroke="none"/>
    <path d="M0.85 -0.85 Q-1.6 -2.55 -4.45 -2.1 -5.1 -0.75 -4.4 1.45 -3.75 3.65 -2.55 4.7" ffdec:has-small-stroke="true" ffdec:original-stroke-width="0.95" fill="none" stroke="#181818" stroke-linecap="round" stroke-linejoin="round" stroke-width="1.0"/>
    <path d="M-2.6 4.55 Q-0.85 4.8 -0.05 5.2 1.2 5.65 1.45 6.9" ffdec:has-small-stroke="true" ffdec:original-stroke-width="0.95" fill="none" stroke="#181818" stroke-linecap="round" stroke-linejoin="round" stroke-width="1.0"/>
    <path d="M1.55 7.0 L4.0 14.0 7.45 15.15" ffdec:has-small-stroke="true" ffdec:original-stroke-width="0.95" fill="none" stroke="#181818" stroke-linecap="round" stroke-linejoin="round" stroke-width="1.0"/>
    <path d="M1.0 -0.85 L3.15 -1.55 Q4.45 -1.1 5.7 -0.75 5.65 0.7 6.35 2.35 L7.7 5.1" ffdec:has-small-stroke="true" ffdec:original-stroke-width="0.95" fill="none" stroke="#090909" stroke-linecap="round" stroke-linejoin="round" stroke-width="1.0"/>
    <path d="M7.8 5.15 L6.95 6.5 7.7 8.9 9.15 8.95" ffdec:has-small-stroke="true" ffdec:original-stroke-width="0.95" fill="none" stroke="#0b0b0b" stroke-linecap="round" stroke-linejoin="round" stroke-width="1.0"/>
    <path d="M9.25 9.0 Q10.6 11.3 9.5 14.1 L7.5 15.2" ffdec:has-small-stroke="true" ffdec:original-stroke-width="0.95" fill="none" stroke="#181818" stroke-linecap="round" stroke-linejoin="round" stroke-width="1.0"/>
    <path d="M-2.65 1.95 L-2.55 2.2" ffdec:has-small-stroke="true" ffdec:original-stroke-width="0.95" fill="none" stroke="#151515" stroke-linecap="round" stroke-linejoin="round" stroke-width="1.0"/>
    <path d="M-0.85 3.2 L-0.75 3.45" ffdec:has-small-stroke="true" ffdec:original-stroke-width="0.95" fill="none" stroke="#212222" stroke-linecap="round" stroke-linejoin="round" stroke-width="1.0"/>
    <path d="M-1.2 0.95 L-1.1 1.25" ffdec:has-small-stroke="true" ffdec:original-stroke-width="0.95" fill="none" stroke="#212222" stroke-linecap="round" stroke-linejoin="round" stroke-width="1.0"/>
    <path d="M-2.75 -0.25 L-2.7 0.05" ffdec:has-small-stroke="true" ffdec:original-stroke-width="0.95" fill="none" stroke="#181818" stroke-linecap="round" stroke-linejoin="round" stroke-width="1.0"/>
    <path d="M5.95 1.65 L4.0 3.65 5.8 8.85 3.25 11.35" ffdec:has-small-stroke="true" ffdec:original-stroke-width="0.95" fill="none" stroke="#212222" stroke-linecap="round" stroke-linejoin="round" stroke-width="1.0"/>
  </g>
</svg>
