<?xml version="1.0" encoding="UTF-8" standalone="no"?>
<svg xmlns:ffdec="https://www.free-decompiler.com/flash" xmlns:xlink="http://www.w3.org/1999/xlink" ffdec:objectType="shape" height="23.25px" width="17.0px" xmlns="http://www.w3.org/2000/svg">
  <g transform="matrix(1.0, 0.0, 0.0, 1.0, 0.5, 0.5)">
    <path d="M11.75 7.35 Q12.7 9.15 12.7 10.95 L10.75 11.7 9.4 8.25 11.75 7.35" fill="#43bbff" fill-rule="evenodd" stroke="none"/>
    <path d="M7.9 1.35 L9.5 2.25 11.3 4.2 7.8 5.55 6.55 7.8 7.4 9.35 7.15 9.35 4.1 9.55 3.45 8.6 4.65 6.85 3.8 2.95 Q5.4 1.55 7.9 1.35" fill="url(#gradient0)" fill-rule="evenodd" stroke="none"/>
    <path d="M3.15 1.3 L6.45 0.0 7.9 1.35 Q5.4 1.55 3.8 2.95 L3.15 1.3 M15.4 19.85 L15.3 20.95 14.85 21.8 12.0 21.7 10.95 20.95 Q10.35 20.6 9.55 18.7 L9.75 16.95 10.85 17.35 Q11.2 19.25 13.6 20.55 L15.4 19.85 M6.35 12.95 Q4.55 11.8 4.1 9.55 L7.15 9.35 8.3 11.45 9.05 12.8 6.35 12.95" fill="#0f1213" fill-rule="evenodd" stroke="none"/>
    <path d="M11.75 7.35 L9.4 8.25 10.75 11.7 12.7 10.95 Q12.7 9.15 11.75 7.35 M11.3 4.2 Q13.45 8.7 14.25 13.3 L10.25 14.9 9.05 12.8 8.3 11.45 7.4 9.35 6.55 7.8 7.8 5.55 11.3 4.2 M14.15 15.45 L15.4 17.4 Q16.2 18.75 15.95 19.65 L15.4 19.85 13.6 20.55 Q11.2 19.25 10.85 17.35 13.75 16.75 14.15 15.65 L14.15 15.45" fill="#161b1d" fill-rule="evenodd" stroke="none"/>
    <path d="M2.15 7.8 Q0.95 7.1 0.3 5.35 -0.4 2.9 0.45 0.75 L3.15 1.3 3.8 2.95 4.65 6.85 3.45 8.6 2.15 7.8" fill="url(#gradient1)" fill-rule="evenodd" stroke="none"/>
    <path d="M14.25 13.3 L14.15 15.45 14.15 15.65 Q13.75 16.75 10.85 17.35 L9.75 16.95 8.65 16.45 6.35 12.95 9.05 12.8 10.25 14.9 14.25 13.3" fill="url(#gradient2)" fill-rule="evenodd" stroke="none"/>
    <path d="M11.75 7.35 L9.4 8.25 10.75 11.7 12.7 10.95 Q12.7 9.15 11.75 7.35" fill="none" stroke="#0e95c2" stroke-linecap="round" stroke-linejoin="round" stroke-width="1.0"/>
    <path d="M3.15 1.3 L6.45 0.0 7.9 1.35 9.5 2.25 11.3 4.2 Q13.45 8.7 14.25 13.3 L14.15 15.45 15.4 17.4 Q16.2 18.75 15.95 19.65 L15.4 19.85 15.3 20.95 14.85 21.8 12.0 21.7 10.95 20.95 Q10.35 20.6 9.55 18.7 L9.75 16.95 8.65 16.45 6.35 12.95 Q4.55 11.8 4.1 9.55 L3.45 8.6 3.4 8.6 2.15 7.8 Q0.95 7.1 0.3 5.35 -0.4 2.9 0.45 0.75 L3.15 1.3 3.8 2.95 Q5.4 1.55 7.9 1.35 M3.45 8.6 L4.65 6.85 3.8 2.95 M3.45 8.6 L2.15 7.8 M7.4 9.35 L6.55 7.8 7.8 5.55 11.3 4.2 M7.4 9.35 L7.15 9.35 8.3 11.45 7.4 9.35 M4.1 9.55 L7.15 9.35 M6.35 12.95 L9.05 12.8 8.3 11.45 M14.15 15.45 L14.15 15.65 Q13.75 16.75 10.85 17.35 11.2 19.25 13.6 20.55 L15.4 19.85 M9.05 12.8 L10.25 14.9 14.25 13.3 M10.85 17.35 L9.75 16.95" fill="none" stroke="#070a0a" stroke-linecap="round" stroke-linejoin="round" stroke-width="1.0"/>
  </g>
  <defs>
    <radialGradient cx="0" cy="0" gradientTransform="matrix(0.0076, 0.0, 0.0, 0.0085, 4.05, 7.05)" gradientUnits="userSpaceOnUse" id="gradient0" r="819.2" spreadMethod="pad">
      <stop offset="0.0" stop-color="#131c2a"/>
      <stop offset="0.6588235294117647" stop-color="#182435"/>
      <stop offset="1.0" stop-color="#324662"/>
    </radialGradient>
    <radialGradient cx="0" cy="0" fx="393.6" fy="0" gradientTransform="matrix(0.0057, 0.0, 0.0, 0.0057, 7.55, -0.85)" gradientUnits="userSpaceOnUse" id="gradient1" r="819.2" spreadMethod="pad">
      <stop offset="0.0" stop-color="#131c2a"/>
      <stop offset="0.6588235294117647" stop-color="#182435"/>
      <stop offset="1.0" stop-color="#324662"/>
    </radialGradient>
    <radialGradient cx="0" cy="0" fx="-262.40000000000003" fy="0" gradientTransform="matrix(0.0043, 0.0, 0.0, 0.0055, 7.9, 12.8)" gradientUnits="userSpaceOnUse" id="gradient2" r="819.2" spreadMethod="pad">
      <stop offset="0.0" stop-color="#131c2a"/>
      <stop offset="0.6588235294117647" stop-color="#182435"/>
      <stop offset="1.0" stop-color="#324662"/>
    </radialGradient>
  </defs>
</svg>
