<?xml version="1.0" encoding="UTF-8" standalone="no"?>
<svg xmlns:ffdec="https://www.free-decompiler.com/flash" xmlns:xlink="http://www.w3.org/1999/xlink" ffdec:objectType="shape" height="6.6px" width="14.65px" xmlns="http://www.w3.org/2000/svg">
  <g transform="matrix(1.0, 0.0, 0.0, 1.0, 7.3, 3.3)">
    <path d="M3.5 -1.75 L6.05 -0.8 Q7.3 -0.25 6.55 2.8 L-0.65 2.75 -6.55 2.8 -6.8 -0.3 Q-6.8 -1.55 -5.75 -2.15 -4.75 -2.75 -2.15 -2.8 L1.35 -2.5 3.5 -1.75" fill="#3c3c3c" fill-rule="evenodd" stroke="none"/>
    <path d="M3.5 -1.75 L6.05 -0.8 Q7.3 -0.25 6.55 2.8 L-0.65 2.75 -6.55 2.8 -6.8 -0.3 Q-6.8 -1.55 -5.75 -2.15 -4.75 -2.75 -2.15 -2.8 L1.35 -2.5 3.5 -1.75 Z" fill="none" stroke="#212121" stroke-linecap="round" stroke-linejoin="round" stroke-width="1.05"/>
  </g>
</svg>
