<?xml version="1.0" encoding="UTF-8" standalone="no"?>
<svg xmlns:ffdec="https://www.free-decompiler.com/flash" xmlns:xlink="http://www.w3.org/1999/xlink" ffdec:objectType="shape" height="25.0px" width="20.75px" xmlns="http://www.w3.org/2000/svg">
  <g transform="matrix(1.0, 0.0, 0.0, 1.0, 8.3, 3.9)">
    <path d="M4.0 -3.25 L3.95 -2.8 4.95 0.55 4.15 2.45 -3.55 4.5 -3.95 3.2 -3.9 -1.15 Q-2.0 -5.2 4.0 -3.25" fill="#46534f" fill-rule="evenodd" stroke="none"/>
    <path d="M4.15 2.45 L4.85 2.25 5.2 5.7 7.2 10.0 6.55 13.05 Q6.15 14.85 6.2 16.1 L4.65 17.1 -1.05 11.55 -3.25 5.6 -3.55 4.5 4.15 2.45" fill="#666666" fill-rule="evenodd" stroke="none"/>
    <path d="M-3.25 5.6 L-2.8 7.85 Q-4.55 7.15 -5.6 4.6 -6.7 2.05 -6.1 -1.5 -4.0 -5.05 -3.9 -1.15 L-3.95 3.2 -3.55 4.5 -3.7 4.5 -3.25 5.6 -3.7 4.5 -3.55 4.5 -3.25 5.6" fill="#2d2d2d" fill-rule="evenodd" stroke="none"/>
    <path d="M4.0 -3.25 L3.95 -2.8 4.95 0.55 4.15 2.45" fill="none" stroke="#262626" stroke-linecap="round" stroke-linejoin="round" stroke-width="1.05"/>
    <path d="M4.15 2.45 L4.85 2.25 5.2 5.7 7.2 10.0 6.55 13.05 Q6.15 14.85 6.2 16.1 L4.65 17.1 -1.05 11.55 -3.25 5.6 -3.7 4.5 -3.55 4.5 4.15 2.45" fill="none" stroke="#323232" stroke-linecap="round" stroke-linejoin="round" stroke-width="1.05"/>
    <path d="M-3.25 5.6 L-2.8 7.85 Q-4.55 7.15 -5.6 4.6 -6.7 2.05 -6.1 -1.5 -4.0 -5.05 -3.9 -1.15 L-3.95 3.2 -3.55 4.5" fill="none" stroke="#1d1d1d" stroke-linecap="round" stroke-linejoin="miter-clip" stroke-miterlimit="11.33984375" stroke-width="1.05"/>
    <path d="M-3.25 5.6 L-3.55 4.5" fill="none" stroke="#1d1d1d" stroke-linecap="round" stroke-linejoin="miter-clip" stroke-miterlimit="11.33984375" stroke-width="1.05"/>
    <path d="M8.45 20.65 L6.0 15.2 7.1 10.35 12.0 19.65 8.45 20.65" fill="#2f2f2f" fill-rule="evenodd" stroke="none"/>
    <path d="M8.45 20.65 L6.0 15.2 7.1 10.35 12.0 19.65 8.45 20.65 Z" ffdec:has-small-stroke="true" ffdec:original-stroke-width="0.95" fill="none" stroke="#222222" stroke-linecap="round" stroke-linejoin="round" stroke-width="1.0"/>
  </g>
</svg>
