<?xml version="1.0" encoding="UTF-8" standalone="no"?>
<svg xmlns:ffdec="https://www.free-decompiler.com/flash" xmlns:xlink="http://www.w3.org/1999/xlink" ffdec:objectType="shape" height="8.8px" width="14.4px" xmlns="http://www.w3.org/2000/svg">
  <g transform="matrix(1.0, 0.0, 0.0, 1.0, 7.2, 4.4)">
    <path d="M0.05 -3.9 L0.45 -2.35 Q0.95 -0.7 1.55 -0.35 L3.15 -0.25 4.8 -0.25 Q6.15 0.25 6.6 1.25 6.85 1.8 6.5 3.1 L3.4 3.75 -0.05 3.8 -1.2 3.35 Q-1.9 2.95 -2.4 3.0 L-3.55 3.4 -4.3 3.75 -6.25 3.75 -6.7 0.5 Q-6.7 -0.35 -5.95 -1.45 -5.05 -2.8 -4.8 -3.9 L0.05 -3.9" fill="#646056" fill-rule="evenodd" stroke="none"/>
    <path d="M0.05 -3.9 L-4.8 -3.9 Q-5.05 -2.8 -5.95 -1.45 -6.7 -0.35 -6.7 0.5 L-6.25 3.75 -4.3 3.75 -3.55 3.4 -2.4 3.0 Q-1.9 2.95 -1.2 3.35 L-0.05 3.8 3.4 3.75 6.5 3.1 Q6.85 1.8 6.6 1.25 6.15 0.25 4.8 -0.25 L3.15 -0.25 1.55 -0.35 Q0.95 -0.7 0.45 -2.35 L0.05 -3.9 Z" fill="none" stroke="#33312c" stroke-linecap="round" stroke-linejoin="round" stroke-width="1.05"/>
  </g>
</svg>
