<?xml version="1.0" encoding="UTF-8" standalone="no"?>
<svg xmlns:ffdec="https://www.free-decompiler.com/flash" xmlns:xlink="http://www.w3.org/1999/xlink" ffdec:objectType="shape" height="84.9px" width="32.6px" xmlns="http://www.w3.org/2000/svg">
  <g transform="matrix(1.0, 0.0, 0.0, 1.0, 4.4, 15.4)">
    <path d="M0.35 -2.95 Q5.15 -15.4 11.9 -15.4 18.65 -15.4 23.4 -2.95 28.2 9.45 28.2 27.05 28.2 44.65 23.4 57.1 18.65 69.5 11.9 69.5 5.15 69.5 0.35 57.1 -4.4 44.65 -4.4 27.05 -4.4 9.45 0.35 -2.95" fill="url(#gradient0)" fill-rule="evenodd" stroke="none"/>
    <path d="M8.75 29.1 Q6.75 34.2 7.1 38.1 3.3 41.3 0.0 48.15 1.75 42.5 1.75 35.9 L4.55 32.7 Q5.7 24.05 4.15 16.75 L6.9 10.7 7.2 29.2 8.75 29.1 M11.3 29.1 L12.85 29.2 13.15 10.7 15.9 16.75 Q14.35 24.05 15.5 32.7 L18.3 35.9 Q18.3 42.5 20.05 48.15 16.75 41.3 12.95 38.1 13.3 34.2 11.3 29.1 M9.15 25.25 L8.35 7.2 7.35 6.25 9.9 0.0 12.5 6.05 11.4 7.3 10.75 25.25 9.15 25.25 M6.2 41.95 L7.75 40.5 Q9.7 42.65 12.2 40.5 L13.8 41.95 Q10.4 43.9 10.0 47.2 9.75 43.8 6.2 41.95" fill="#ffffff" fill-rule="evenodd" stroke="none"/>
    <path d="M8.75 29.1 Q6.75 34.2 7.1 38.1 3.3 41.3 0.0 48.15 1.75 42.5 1.75 35.9 L4.55 32.7 Q5.7 24.05 4.15 16.75 L6.9 10.7 7.2 29.2 8.75 29.1 M11.3 29.1 Q13.3 34.2 12.95 38.1 16.75 41.3 20.05 48.15 18.3 42.5 18.3 35.9 L15.5 32.7 Q14.35 24.05 15.9 16.75 L13.15 10.7 12.85 29.2 11.3 29.1 M9.15 25.25 L8.35 7.2 7.35 6.25 9.9 0.0 12.5 6.05 11.4 7.3 10.75 25.25 9.15 25.25 M6.2 41.95 Q9.75 43.8 10.0 47.2 10.4 43.9 13.8 41.95 L12.2 40.5 Q9.7 42.65 7.75 40.5 L6.2 41.95 Z" fill="none" stroke="#cccccc" stroke-linecap="round" stroke-linejoin="round" stroke-width="1.0"/>
  </g>
  <defs>
    <radialGradient cx="0" cy="0" gradientTransform="matrix(0.0, -0.0437, 0.0196, 0.0, 11.9, 27.05)" gradientUnits="userSpaceOnUse" id="gradient0" r="819.2" spreadMethod="pad">
      <stop offset="0.0" stop-color="#ffffff"/>
      <stop offset="1.0" stop-color="#ffffff" stop-opacity="0.0"/>
    </radialGradient>
  </defs>
</svg>
