<?xml version="1.0" encoding="UTF-8" standalone="no"?>
<svg xmlns:xlink="http://www.w3.org/1999/xlink" height="20.1px" width="21.95px" xmlns="http://www.w3.org/2000/svg">
  <g transform="matrix(1.0, 0.0, 0.0, 1.0, 8.0, 13.9)">
    <path d="M9.75 -7.5 L7.4 -6.8 6.45 -7.85 8.05 -9.75 Q9.55 -9.35 9.75 -7.5" fill="#425f60" fill-rule="evenodd" stroke="none"/>
    <path d="M8.05 -9.75 L6.45 -7.85 7.4 -6.8 9.75 -7.5 10.4 -5.95 Q7.25 -6.0 5.8 -4.6 L6.4 -2.7 Q10.15 -0.1 11.9 -0.9 12.45 -0.4 12.8 1.05 L10.2 2.2 9.25 3.7 Q4.2 2.85 -1.05 -0.35 L-0.5 -1.5 -4.4 -6.25 -4.35 -6.25 Q-4.45 -7.85 -3.4 -9.0 L1.05 -7.9 Q2.45 -7.2 4.8 -8.55 L7.2 -10.4 Q7.9 -10.2 8.05 -9.75 M4.05 -5.35 L0.6 -5.9 -0.35 -4.0 1.95 -0.85 3.65 -0.05 4.85 -1.95 4.05 -5.35 M8.55 1.45 L8.5 0.6 6.1 -0.95 5.3 0.55 7.2 1.85 8.55 1.45" fill="#4f767b" fill-rule="evenodd" stroke="none"/>
    <path d="M7.2 -10.4 L4.8 -8.55 Q2.45 -7.2 1.05 -7.9 L-3.4 -9.0 Q-4.1 -9.1 -4.3 -9.85 L-4.7 -10.8 Q-2.65 -10.65 -1.1 -11.45 L-1.55 -13.4 Q0.55 -12.4 2.6 -12.2 5.05 -11.6 7.2 -10.4 M-4.4 -6.25 L-0.5 -1.5 -1.05 -0.35 Q-2.15 -0.6 -2.25 0.15 -4.55 0.65 -6.2 -0.35 -5.4 -0.3 -5.1 -0.95 -4.8 -1.65 -5.1 -3.25 L-7.5 -3.45 -6.15 -5.2 -4.4 -6.25" fill="#324144" fill-rule="evenodd" stroke="none"/>
    <path d="M4.05 -5.35 L4.85 -1.95 3.65 -0.05 1.95 -0.85 -0.35 -4.0 0.6 -5.9 4.05 -5.35" fill="#435f62" fill-rule="evenodd" stroke="none"/>
    <path d="M11.9 -0.9 Q10.15 -0.1 6.4 -2.7 L5.8 -4.6 Q7.25 -6.0 10.4 -5.95 11.45 -5.0 11.9 -0.9" fill="url(#gradient0)" fill-rule="evenodd" stroke="none"/>
    <path d="M-1.05 -0.35 Q4.2 2.85 9.25 3.7 L10.2 2.2 12.8 1.05 12.95 1.1 13.45 4.25 Q11.95 6.25 9.5 5.5 -1.25 2.4 -2.25 0.15 -2.15 -0.6 -1.05 -0.35 M12.25 4.05 L11.15 4.35 12.25 4.05 M12.0 2.8 L11.15 3.05 12.0 2.8" fill="#6b827a" fill-rule="evenodd" stroke="none"/>
    <path d="M8.55 1.45 L7.2 1.85 5.3 0.55 6.1 -0.95 8.5 0.6 8.55 1.45" fill="url(#gradient1)" fill-rule="evenodd" stroke="none"/>
    <path d="M8.05 -9.75 L6.45 -7.85 7.4 -6.8 9.75 -7.5 Q9.55 -9.35 8.05 -9.75" fill="none" stroke="#2c3f43" stroke-linecap="round" stroke-linejoin="round" stroke-width="1.0"/>
    <path d="M8.05 -9.75 Q7.9 -10.2 7.2 -10.4 L4.8 -8.55 Q2.45 -7.2 1.05 -7.9 L-3.4 -9.0 Q-4.45 -7.85 -4.35 -6.25 L-4.4 -6.25 -0.5 -1.5 -1.05 -0.35 M12.8 1.05 Q12.45 -0.4 11.9 -0.9 M10.4 -5.95 L9.75 -7.5 M7.2 -10.4 Q5.05 -11.6 2.6 -12.2 0.55 -12.4 -1.55 -13.4 L-1.1 -11.45 Q-2.65 -10.65 -4.7 -10.8 L-4.3 -9.85 Q-4.1 -9.1 -3.4 -9.0 M-2.25 0.15 Q-4.55 0.65 -6.2 -0.35 -5.4 -0.3 -5.1 -0.95 -4.8 -1.65 -5.1 -3.25 L-7.5 -3.45 -6.15 -5.2 -4.4 -6.25" fill="none" stroke="#18322f" stroke-linecap="round" stroke-linejoin="round" stroke-width="1.0"/>
    <path d="M4.05 -5.35 L4.85 -1.95 3.65 -0.05 1.95 -0.85 -0.35 -4.0 0.6 -5.9 4.05 -5.35" fill="none" stroke="#333f45" stroke-linecap="round" stroke-linejoin="round" stroke-width="1.0"/>
    <path d="M11.9 -0.9 Q10.15 -0.1 6.4 -2.7 L5.8 -4.6 Q7.25 -6.0 10.4 -5.95 11.45 -5.0 11.9 -0.9 M8.55 1.45 L7.2 1.85 5.3 0.55 6.1 -0.95 8.5 0.6 8.55 1.45" fill="none" stroke="#374f51" stroke-linecap="round" stroke-linejoin="round" stroke-width="1.0"/>
    <path d="M-1.05 -0.35 Q4.2 2.85 9.25 3.7 L10.2 2.2 12.8 1.05 12.95 1.1 13.45 4.25 Q11.95 6.25 9.5 5.5 -1.25 2.4 -2.25 0.15 -2.15 -0.6 -1.05 -0.35 M11.15 3.05 L12.0 2.8 M11.15 4.35 L12.25 4.05" fill="none" stroke="#475c55" stroke-linecap="round" stroke-linejoin="round" stroke-width="1.0"/>
  </g>
  <defs>
    <linearGradient gradientTransform="matrix(0.0048, 0.0, 0.0, 0.0032, 9.65, -2.95)" gradientUnits="userSpaceOnUse" id="gradient0" spreadMethod="pad" x1="-819.2" x2="819.2">
      <stop offset="0.0" stop-color="#2b685e"/>
      <stop offset="0.5215686274509804" stop-color="#66b2ac"/>
    </linearGradient>
    <linearGradient gradientTransform="matrix(0.0012, 7.0E-4, -9.0E-4, 0.0015, 7.1, 0.6)" gradientUnits="userSpaceOnUse" id="gradient1" spreadMethod="pad" x1="-819.2" x2="819.2">
      <stop offset="0.0" stop-color="#3a8c7f"/>
      <stop offset="1.0" stop-color="#6cb2aa"/>
    </linearGradient>
  </defs>
</svg>
