<?xml version="1.0" encoding="UTF-8" standalone="no"?>
<svg xmlns:ffdec="https://www.free-decompiler.com/flash" xmlns:xlink="http://www.w3.org/1999/xlink" ffdec:objectType="shape" height="11.65px" width="26.05px" xmlns="http://www.w3.org/2000/svg">
  <g transform="matrix(1.0, 0.0, 0.0, 1.0, 0.15, 2.15)">
    <path d="M8.3 7.75 L7.55 8.25 Q6.45 9.05 4.6 9.0 2.05 8.75 0.35 7.2 L1.9 4.9 3.65 4.9 7.65 5.55 8.8 7.35 8.3 7.75" fill="url(#gradient0)" fill-rule="evenodd" stroke="none"/>
    <path d="M9.95 7.1 L8.8 7.35 7.65 5.55 3.65 4.9 Q2.95 2.9 3.75 0.5 L5.15 -0.65 7.65 -1.6 7.55 2.15 9.2 4.2 10.95 3.95 10.85 4.15 9.95 7.1" fill="url(#gradient1)" fill-rule="evenodd" stroke="none"/>
    <path d="M18.9 4.6 L18.05 5.45 13.9 6.25 14.8 3.7 17.2 3.4 17.2 -0.9 19.15 0.0 19.35 0.05 Q20.2 0.85 19.65 3.75 L18.9 4.6" fill="url(#gradient2)" fill-rule="evenodd" stroke="none"/>
    <path d="M23.7 0.45 L24.65 0.95 25.3 1.7 Q25.7 3.0 24.15 4.35 L23.05 5.0 20.4 5.45 18.9 4.6 19.65 3.75 Q21.55 4.1 23.7 2.4 L23.7 0.45 M13.9 6.25 Q12.15 7.55 9.95 7.1 L10.85 4.15 13.25 3.9 14.8 3.7 13.9 6.25 M1.9 4.9 L1.95 1.3 3.75 0.5 Q2.95 2.9 3.65 4.9 L1.9 4.9" fill="#130f0f" fill-rule="evenodd" stroke="none"/>
    <path d="M19.15 0.0 L21.4 -0.45 23.7 -0.15 23.7 0.45 23.7 2.4 Q21.55 4.1 19.65 3.75 20.2 0.85 19.35 0.05 L19.15 0.0 M7.65 -1.6 L17.2 -0.9 17.2 3.4 14.8 3.7 13.25 3.9 10.95 3.95 9.2 4.2 7.55 2.15 7.65 -1.6 M10.75 -0.85 L10.7 1.7 14.35 1.75 14.45 -0.35 Q12.75 -1.0 10.75 -0.85" fill="#1d1616" fill-rule="evenodd" stroke="none"/>
    <path d="M10.75 -0.85 Q12.75 -1.0 14.45 -0.35 L14.35 1.75 10.7 1.7 10.75 -0.85" fill="#ff0000" fill-rule="evenodd" stroke="none"/>
    <path d="M19.15 0.0 L21.4 -0.45 23.7 -0.15 23.7 0.45 24.65 0.95 25.3 1.7 Q25.7 3.0 24.15 4.35 L23.05 5.0 20.4 5.45 18.9 4.6 18.05 5.45 13.9 6.25 Q12.15 7.55 9.95 7.1 L8.8 7.35 8.75 7.4 8.3 7.75 7.55 8.25 Q6.45 9.05 4.6 9.0 2.05 8.75 0.35 7.2 L1.9 4.9 1.95 1.3 3.75 0.5 5.15 -0.65 7.65 -1.6 17.2 -0.9 19.15 0.0 19.35 0.05 Q20.2 0.85 19.65 3.75 21.55 4.1 23.7 2.4 L23.7 0.45 M19.65 3.75 L18.9 4.6 M14.8 3.7 L13.25 3.9 10.85 4.15 9.95 7.1 M13.25 3.9 L10.95 3.95 10.85 4.15 M13.9 6.25 L14.8 3.7 17.2 3.4 17.2 -0.9 M10.95 3.95 L9.2 4.2 7.55 2.15 7.65 -1.6 M1.9 4.9 L3.65 4.9 Q2.95 2.9 3.75 0.5 M8.8 7.35 L8.3 7.75 M8.8 7.35 L7.65 5.55 3.65 4.9" fill="none" stroke="#070a0a" stroke-linecap="round" stroke-linejoin="round" stroke-width="1.0"/>
    <path d="M10.75 -0.85 L10.7 1.7 14.35 1.75 14.45 -0.35 Q12.75 -1.0 10.75 -0.85 Z" fill="none" stroke="#7e0808" stroke-linecap="round" stroke-linejoin="round" stroke-width="1.0"/>
  </g>
  <defs>
    <radialGradient cx="0" cy="0" gradientTransform="matrix(0.0021, -0.0052, 0.0052, 0.0021, 1.55, 0.0)" gradientUnits="userSpaceOnUse" id="gradient0" r="819.2" spreadMethod="pad">
      <stop offset="0.0" stop-color="#2a1313"/>
      <stop offset="0.6588235294117647" stop-color="#351818"/>
      <stop offset="1.0" stop-color="#623232"/>
    </radialGradient>
    <radialGradient cx="0" cy="0" gradientTransform="matrix(0.0028, -0.007, 0.0079, 0.0032, 7.55, 6.15)" gradientUnits="userSpaceOnUse" id="gradient1" r="819.2" spreadMethod="pad">
      <stop offset="0.0" stop-color="#2a1313"/>
      <stop offset="0.6588235294117647" stop-color="#351818"/>
      <stop offset="1.0" stop-color="#623232"/>
    </radialGradient>
    <radialGradient cx="0" cy="0" gradientTransform="matrix(0.0016, -0.004, 0.0051, 0.002, 14.3, 4.75)" gradientUnits="userSpaceOnUse" id="gradient2" r="819.2" spreadMethod="pad">
      <stop offset="0.0" stop-color="#2a1313"/>
      <stop offset="0.6588235294117647" stop-color="#351818"/>
      <stop offset="1.0" stop-color="#623232"/>
    </radialGradient>
  </defs>
</svg>
