<?xml version="1.0" encoding="UTF-8" standalone="no"?>
<svg xmlns:xlink="http://www.w3.org/1999/xlink" height="15.85px" width="69.9px" xmlns="http://www.w3.org/2000/svg">
  <g transform="matrix(1.0, 0.0, 0.0, 1.0, 17.05, 7.1)">
    <path d="M-3.05 -3.55 L-3.1 0.0 -5.05 0.1 -6.1 0.8 -8.15 2.05 -15.9 2.85 -15.9 -0.25 -16.55 -5.55 -14.7 -5.55 -13.9 -3.55 -9.25 -3.55 -9.2 -2.15 -5.2 -2.15 -5.2 -3.55 -3.05 -3.55 M22.85 -4.05 L26.35 -4.05 26.35 -1.75 24.5 -0.35 22.75 -0.35 22.85 -4.05 M-13.25 -1.1 L-7.85 -1.1 -7.7 0.3 -6.1 0.8 -7.7 0.3 -7.85 -1.1 -13.25 -1.1" fill="#656565" fill-rule="evenodd" stroke="none"/>
    <path d="M20.9 1.7 L20.9 0.2 19.15 -0.5 12.5 -0.5 11.65 0.75 6.1 0.75 2.4 0.75 -1.8 -0.05 -3.1 0.0 -3.05 -3.55 -3.0 -4.6 -2.85 -4.55 -0.2 -4.55 -0.2 -5.7 3.6 -6.6 22.25 -6.6 26.05 -5.45 52.35 -5.45 52.35 -2.95 38.15 -2.95 28.3 -2.95 28.3 -0.9 38.15 -0.9 52.25 -0.9 52.25 1.7 20.9 1.7 M18.9 -2.6 L20.05 -2.6 18.9 -2.6 18.9 -1.7 18.9 -2.6 18.9 -3.85 18.15 -3.85 18.9 -3.85 18.9 -2.6 M16.5 -4.3 L17.3 -5.5 8.85 -5.5 10.25 -4.15 16.5 -4.3 M22.85 -4.05 L22.75 -0.35 24.5 -0.35 26.35 -1.75 26.35 -4.05 22.85 -4.05 M18.9 -3.85 L20.8 -3.85 18.9 -3.85 M-9.25 -3.55 L-5.2 -3.55 -5.2 -2.15 -9.2 -2.15 -9.25 -3.55 M10.7 -3.0 L-0.95 -3.0 10.7 -3.0 M-1.0 -1.75 L8.4 -1.75 -1.0 -1.75" fill="#373737" fill-rule="evenodd" stroke="none"/>
    <path d="M-3.0 -4.6 L-3.05 -3.55 -5.2 -3.55 -9.25 -3.55 -13.9 -3.55 -14.7 -5.55 -5.5 -5.55 -3.0 -4.6 M16.15 8.25 L16.9 6.0 18.6 6.0 20.65 2.35 20.65 7.0 18.1 8.25 16.15 8.25" fill="#7b7b7b" fill-rule="evenodd" stroke="none"/>
    <path d="M-1.8 -0.05 L2.4 0.75 1.8 2.05 -0.2 5.95 -3.3 4.6 -1.2 1.45 -1.8 -0.05" fill="#262626" fill-rule="evenodd" stroke="none"/>
    <path d="M11.65 0.75 L12.5 -0.5 19.15 -0.5 20.9 0.2 20.9 1.7 20.65 1.7 20.65 2.35 18.6 6.0 16.9 6.0 16.15 8.25 11.65 8.25 11.65 0.75 M14.8 4.1 L14.8 2.1 13.35 2.1 14.8 2.1 19.05 2.1 14.8 2.1 14.8 4.1 17.2 4.1 14.8 4.1 14.8 6.1 14.8 4.1" fill="#595959" fill-rule="evenodd" stroke="none"/>
    <path d="M11.65 0.75 L11.65 8.25 16.15 8.25 16.9 6.0 18.6 6.0 20.65 2.35 20.65 1.7 M20.65 2.35 L20.65 7.0 18.1 8.25 16.15 8.25 M-14.7 -5.55 L-16.55 -5.55 -15.9 -0.25 -15.9 2.85 -8.15 2.05 -6.1 0.8 -7.7 0.3 -7.85 -1.1 -13.25 -1.1 M-14.7 -5.55 L-13.9 -3.55 -9.25 -3.55 M-5.2 -3.55 L-3.05 -3.55 M-3.0 -4.6 L-5.5 -5.55 -14.7 -5.55 M-6.1 0.8 L-5.05 0.1 -3.1 0.0" fill="none" stroke="#3c3c3c" stroke-linecap="round" stroke-linejoin="round" stroke-width="1.0"/>
    <path d="M11.65 0.75 L12.5 -0.5 19.15 -0.5 20.9 0.2 20.9 1.7 20.65 1.7 M-3.0 -4.6 L-3.05 -3.55 -3.1 0.0 M22.85 -4.05 L26.35 -4.05 26.35 -1.75 24.5 -0.35 22.75 -0.35 22.85 -4.05 M-9.25 -3.55 L-5.2 -3.55 -5.2 -2.15 -9.2 -2.15 -9.25 -3.55" fill="none" stroke="#1e1e1e" stroke-linecap="round" stroke-linejoin="round" stroke-width="1.0"/>
    <path d="M13.35 2.1 L14.8 2.1 19.05 2.1 M17.2 4.1 L14.8 4.1 14.8 6.1 M14.8 2.1 L14.8 4.1" fill="none" stroke="#777777" stroke-linecap="round" stroke-linejoin="round" stroke-width="1.0"/>
    <path d="M18.9 -1.7 L18.9 -2.6 18.9 -3.85 18.15 -3.85 M20.05 -2.6 L18.9 -2.6 M20.8 -3.85 L18.9 -3.85" fill="none" stroke="#2b2b2b" stroke-linecap="round" stroke-linejoin="round" stroke-width="1.0"/>
    <path d="M20.9 1.7 L52.25 1.7 52.25 -0.9 38.15 -0.9 28.3 -0.9 28.3 -2.95 38.15 -2.95 52.35 -2.95 52.35 -5.45 26.05 -5.45 22.25 -6.6 3.6 -6.6 -0.2 -5.7 -0.2 -4.55 -2.85 -4.55 -3.0 -4.6 M-3.1 0.0 L-1.8 -0.05 -1.2 1.45 -3.3 4.6 -0.2 5.95 1.8 2.05 5.3 2.05 6.1 0.75 11.65 0.75 M2.4 0.75 L6.1 0.75 M16.5 -4.3 L10.25 -4.15 8.85 -5.5 17.3 -5.5 16.5 -4.3 M2.4 0.75 L1.8 2.05 M8.4 -1.75 L-1.0 -1.75 M-0.95 -3.0 L10.7 -3.0" fill="none" stroke="#262626" stroke-linecap="round" stroke-linejoin="round" stroke-width="1.0"/>
  </g>
</svg>
