<?xml version="1.0" encoding="UTF-8" standalone="no"?>
<svg xmlns:xlink="http://www.w3.org/1999/xlink" height="18.7px" width="44.2px" xmlns="http://www.w3.org/2000/svg">
  <g transform="matrix(1.0, 0.0, 0.0, 1.0, 13.35, 8.45)">
    <path d="M-0.05 9.25 L-5.95 9.5 -9.35 4.0 -1.65 4.6 -0.05 9.25" fill="#333333" fill-rule="evenodd" stroke="none"/>
    <path d="M-12.85 -0.05 L-11.35 -4.2 -6.3 -5.45 -5.45 -1.2 -6.8 0.35 -12.85 -0.05" fill="#666666" fill-rule="evenodd" stroke="none"/>
    <path d="M7.25 4.9 L3.95 3.3 -0.45 3.3 -3.5 -5.45 -1.1 -6.05 1.8 -5.5 3.4 -3.95 3.4 -2.9 1.85 0.5 10.05 0.5 10.8 1.9 11.55 3.3 7.25 4.9 M-0.2 -2.2 L1.8 -5.5 -0.2 -2.2" fill="#777777" fill-rule="evenodd" stroke="none"/>
    <path d="M3.4 -2.9 L8.6 -3.6 10.05 0.5 1.85 0.5 3.4 -2.9 M18.25 -3.9 L21.55 -5.5 22.55 -2.5 19.65 -2.5 18.25 -3.9 M19.75 8.45 L14.15 7.35 8.65 7.3 7.25 4.9 11.55 3.3 10.8 1.9 17.0 3.05 19.75 8.45" fill="#80ff99" fill-rule="evenodd" stroke="none"/>
    <path d="M8.6 -3.6 L8.25 -4.5 12.75 -6.05 17.65 -4.5 18.25 -3.9 19.65 -2.5 22.55 -2.5 21.55 -5.5 21.1 -6.85 26.15 -7.95 30.35 -5.45 30.35 5.3 27.15 6.65 25.7 9.75 20.4 9.75 19.75 8.45 17.0 3.05 10.8 1.9 10.05 0.5 8.6 -3.6 M24.7 5.1 L23.2 0.6 24.7 5.1 M22.2 4.9 L20.6 1.85 22.2 4.9" fill="url(#gradient0)" fill-rule="evenodd" stroke="none"/>
    <path d="M-9.35 4.0 L-12.85 2.9 -12.85 -0.05 -6.8 0.35 -5.45 -1.2 -6.3 -5.45 -3.5 -5.45 -0.45 3.3 -1.65 4.6 -9.35 4.0" fill="url(#gradient1)" fill-rule="evenodd" stroke="none"/>
    <path d="M8.6 -3.6 L8.25 -4.5 12.75 -6.05 17.65 -4.5 18.25 -3.9 19.65 -2.5 22.55 -2.5 21.55 -5.5 21.1 -6.85 26.15 -7.95 30.35 -5.45 30.35 5.3 M27.15 6.65 L25.7 9.75 M7.25 4.9 L3.95 3.3 Q3.3 9.35 -0.05 9.25 M-9.35 4.0 L-12.85 2.9 -12.85 -0.05 -11.35 -4.2 -6.3 -5.45 -3.5 -5.45 -1.1 -6.05 1.8 -5.5 3.4 -3.95 3.4 -2.9 1.85 0.5 10.05 0.5 8.6 -3.6 M20.6 1.85 L22.2 4.9 M23.2 0.6 L24.7 5.1 M7.25 4.9 L11.55 3.3 10.8 1.9 10.05 0.5 M-12.85 -0.05 L-6.8 0.35 -5.45 -1.2 -6.3 -5.45 M-9.35 4.0 L-1.65 4.6 -0.45 3.3 -3.5 -5.45 M1.8 -5.5 L-0.2 -2.2 M3.95 3.3 L-0.45 3.3" fill="none" stroke="#595959" stroke-linecap="round" stroke-linejoin="round" stroke-width="1.0"/>
    <path d="M-0.05 9.25 L-5.95 9.5 -9.35 4.0 M-1.65 4.6 L-0.05 9.25" fill="none" stroke="#000000" stroke-linecap="round" stroke-linejoin="round" stroke-width="1.0"/>
    <path d="M20.4 9.75 L19.75 8.45 17.0 3.05 10.8 1.9" fill="none" stroke="#666666" stroke-linecap="round" stroke-linejoin="round" stroke-width="1.0"/>
    <path d="M30.35 5.3 L27.15 6.65 M25.7 9.75 L20.4 9.75" fill="none" stroke="#3c3c3c" stroke-linecap="round" stroke-linejoin="round" stroke-width="1.0"/>
    <path d="M3.4 -2.9 L8.6 -3.6 M18.25 -3.9 L21.55 -5.5 M19.75 8.45 L14.15 7.35 8.65 7.3 7.25 4.9" fill="none" stroke="#218940" stroke-linecap="round" stroke-linejoin="round" stroke-width="1.0"/>
  </g>
  <defs>
    <linearGradient gradientTransform="matrix(0.0, 0.0135, -0.0108, 0.0, 19.3, 0.9)" gradientUnits="userSpaceOnUse" id="gradient0" spreadMethod="pad" x1="-819.2" x2="819.2">
      <stop offset="0.0" stop-color="#d0d0d0"/>
      <stop offset="1.0" stop-color="#6f6f6f"/>
      <stop offset="1.0" stop-color="#666666"/>
    </linearGradient>
    <linearGradient gradientTransform="matrix(0.0081, 0.0081, -0.0043, 0.0043, -6.65, -0.45)" gradientUnits="userSpaceOnUse" id="gradient1" spreadMethod="pad" x1="-819.2" x2="819.2">
      <stop offset="0.0" stop-color="#ffffff"/>
      <stop offset="1.0" stop-color="#7b7b7b"/>
    </linearGradient>
  </defs>
</svg>
