<?xml version="1.0" encoding="UTF-8" standalone="no"?>
<svg xmlns:ffdec="https://www.free-decompiler.com/flash" xmlns:xlink="http://www.w3.org/1999/xlink" ffdec:objectType="shape" height="61.5px" width="37.05px" xmlns="http://www.w3.org/2000/svg">
  <g transform="matrix(1.0, 0.0, 0.0, 1.0, 0.0, 0.0)">
    <path d="M10.8 24.0 L9.3 16.05 7.65 12.05 7.9 10.75 9.05 10.7 17.05 24.0 16.0 26.8 19.85 35.4 23.05 36.75 26.8 46.4 30.4 49.3 28.75 49.8 Q25.95 49.2 24.05 48.1 21.45 46.6 19.7 43.8 L19.0 41.2 10.8 24.0" fill="#efbb63" fill-opacity="0.84705883" fill-rule="evenodd" stroke="none"/>
    <path d="M10.8 24.0 L19.0 41.2 19.7 43.8 Q21.45 46.6 24.05 48.1 25.95 49.2 28.75 49.8 L30.4 49.3 26.8 46.4 23.05 36.75 19.85 35.4 16.0 26.8 17.05 24.0 9.05 10.7 7.9 10.75 7.65 12.05 9.3 16.05 10.8 24.0 Z" ffdec:has-small-stroke="true" ffdec:original-stroke-width="0.95" fill="none" stroke="#b07512" stroke-linecap="round" stroke-linejoin="round" stroke-opacity="0.69411767" stroke-width="1.0"/>
    <path d="M32.25 60.9 Q27.1 63.3 19.4 56.05 11.8 48.9 6.1 36.45 0.45 23.95 0.05 13.5 -0.35 2.95 4.8 0.6 9.9 -1.8 17.6 5.35 25.25 12.45 30.95 24.9 36.6 37.4 37.0 47.95 37.45 58.5 32.35 60.85 L32.25 60.9" fill="url(#gradient0)" fill-rule="evenodd" stroke="none"/>
  </g>
  <defs>
    <radialGradient cx="0" cy="0" gradientTransform="matrix(0.0177, 0.0386, -0.0124, 0.0057, 17.9, 30.5)" gradientUnits="userSpaceOnUse" id="gradient0" r="819.2" spreadMethod="pad">
      <stop offset="0.0" stop-color="#efbb63" stop-opacity="0.41960785"/>
      <stop offset="1.0" stop-color="#efbb63" stop-opacity="0.0"/>
    </radialGradient>
  </defs>
</svg>
