<?xml version="1.0" encoding="UTF-8" standalone="no"?>
<svg xmlns:xlink="http://www.w3.org/1999/xlink" height="19.35px" width="19.45px" xmlns="http://www.w3.org/2000/svg">
  <g transform="matrix(1.0, 0.0, 0.0, 1.0, 8.4, 17.75)">
    <path d="M4.65 -16.4 L6.0 -15.8 5.3 -12.8 7.25 -12.05 8.8 -13.55 9.55 -11.9 9.15 -11.6 8.7 -11.35 7.9 -10.8 8.2 -7.8 10.05 -7.0 10.05 -6.95 9.45 -5.55 7.6 -6.5 6.3 -5.1 7.8 -3.05 8.0 -2.75 6.75 -1.85 4.55 -3.5 4.55 -4.85 1.85 -6.9 Q2.35 -7.45 2.35 -8.2 2.35 -9.0 1.75 -9.55 L1.65 -9.65 1.65 -10.85 3.95 -12.85 4.65 -16.4 M3.0 -16.3 L3.15 -16.55 3.05 -16.3 3.0 -16.3 M6.4 -9.75 L6.3 -10.45 4.6 -11.65 3.35 -10.15 3.5 -7.3 5.3 -6.25 6.6 -7.8 6.4 -9.75" fill="#70797a" fill-rule="evenodd" stroke="none"/>
    <path d="M4.8 -16.9 L4.65 -16.4 3.95 -12.85 1.65 -10.85 1.65 -9.65 1.45 -9.8 0.35 -10.15 Q-0.45 -10.15 -1.0 -9.55 L-6.3 -11.65 -6.85 -12.9 -6.35 -14.9 Q-5.85 -15.15 -5.4 -15.45 L-5.35 -15.2 -5.25 -14.95 -4.9 -14.35 -4.6 -14.0 -4.15 -13.75 -4.1 -13.7 -4.0 -13.65 -2.95 -13.4 0.35 -13.65 0.75 -14.35 1.1 -14.9 1.85 -15.1 2.65 -15.25 1.85 -15.1 2.15 -15.2 2.65 -15.25 3.05 -16.3 3.15 -16.55 3.35 -17.1 Q3.85 -17.35 4.35 -17.1 L4.8 -16.9 M-4.2 -2.85 L-6.25 -2.9 Q-7.4 -3.95 -7.9 -7.4 L-6.55 -8.95 -1.6 -8.0 -1.6 -7.85 -1.15 -6.95 -1.15 -6.9 -1.6 -7.85 -1.15 -6.9 -4.25 -2.9 -3.25 -2.85 -4.2 -2.85 -4.25 -2.9 -4.2 -2.85 M-5.25 -14.95 L-4.6 -14.0 -5.25 -14.95 M1.85 -6.9 L4.55 -4.85 4.55 -3.5 2.85 -2.55 2.05 -0.75 1.65 0.15 Q-0.6 -0.15 -1.55 -0.7 L-2.2 -2.85 0.0 -6.25 0.35 -6.25 Q1.2 -6.25 1.75 -6.8 L1.85 -6.9 M0.85 -1.6 L1.15 -2.35 0.85 -1.6 M-1.55 -11.85 L0.05 -12.05 -1.55 -11.85 M-0.35 -2.1 L0.05 -3.35 -0.35 -2.1" fill="#cbcbcb" fill-rule="evenodd" stroke="none"/>
    <path d="M-4.9 -14.35 Q-2.8 -16.15 0.45 -16.45 L3.0 -16.3 3.05 -16.3 2.65 -15.25 2.15 -15.2 1.85 -15.1 1.1 -14.9 0.75 -14.35 0.35 -13.65 -2.95 -13.4 -4.0 -13.65 -4.1 -13.7 -4.15 -13.75 -4.6 -14.0 -4.9 -14.35" fill="#a7a7a7" fill-rule="evenodd" stroke="none"/>
    <path d="M6.0 -15.8 L6.05 -16.0 7.1 -15.5 Q8.25 -14.75 8.8 -13.55 L7.25 -12.05 5.3 -12.8 6.0 -15.8" fill="url(#gradient0)" fill-rule="evenodd" stroke="none"/>
    <path d="M9.15 -11.6 L9.85 -12.05 10.3 -10.65 Q10.75 -8.85 10.4 -6.8 L10.05 -6.95 10.05 -7.0 8.2 -7.8 7.9 -10.8 8.7 -11.35 9.15 -11.6" fill="url(#gradient1)" fill-rule="evenodd" stroke="none"/>
    <path d="M6.4 -9.75 L6.6 -7.8 5.3 -6.25 3.5 -7.3 3.35 -10.15 4.6 -11.65 6.3 -10.45 6.4 -9.75" fill="url(#gradient2)" fill-rule="evenodd" stroke="none"/>
    <path d="M1.65 -9.65 L1.75 -9.55 Q2.35 -9.0 2.35 -8.2 2.35 -7.45 1.85 -6.9 L1.75 -6.8 Q1.2 -6.25 0.35 -6.25 L0.0 -6.25 -0.65 -6.5 1.45 -9.8 -0.65 -6.5 -1.0 -6.75 -1.05 -6.8 -1.15 -6.95 -1.6 -7.85 -1.6 -8.0 -1.6 -8.1 -1.6 -8.2 Q-1.6 -9.0 -1.0 -9.55 -0.45 -10.15 0.35 -10.15 L1.45 -9.8 1.65 -9.65" fill="#636363" fill-rule="evenodd" stroke="none"/>
    <path d="M6.75 -1.85 L7.8 -1.15 5.9 -0.2 4.05 -0.5 3.3 0.4 2.6 0.4 1.55 1.1 -1.85 0.35 -4.2 -2.8 -4.2 -2.85 -3.25 -2.85 -4.25 -2.9 -1.15 -6.9 -1.05 -6.8 -1.0 -6.75 -0.65 -6.5 0.0 -6.25 -2.2 -2.85 -1.55 -0.7 Q-0.6 -0.15 1.65 0.15 L2.05 -0.75 2.85 -2.55 4.55 -3.5 6.75 -1.85 M-6.55 -8.95 L-6.6 -9.0 -6.6 -11.05 -6.55 -11.2 -6.5 -11.3 -6.3 -11.6 -6.3 -11.65 -1.0 -9.55 Q-1.6 -9.0 -1.6 -8.2 L-1.6 -8.1 -1.6 -8.0 -6.55 -8.95 M-1.15 -6.95 L-1.05 -6.8 -1.15 -6.9 -1.15 -6.95 M2.05 -0.75 L4.05 -0.5 2.05 -0.75 M-2.2 -2.85 L-3.25 -2.85 -2.2 -2.85" fill="#4b4b4b" fill-rule="evenodd" stroke="none"/>
    <path d="M9.45 -5.55 L10.0 -5.3 9.7 -4.3 Q9.2 -3.2 8.15 -2.55 L7.8 -3.05 6.3 -5.1 7.6 -6.5 9.45 -5.55" fill="url(#gradient3)" fill-rule="evenodd" stroke="none"/>
    <path d="M7.8 -1.15 L5.9 -0.2 4.05 -0.5 2.05 -0.75 2.85 -2.55 4.55 -3.5 M-5.4 -15.45 L-5.35 -15.2 -5.25 -14.95 -4.6 -14.0 -4.15 -13.75 -4.1 -13.7 -4.0 -13.65 -2.95 -13.4 0.35 -13.65 0.75 -14.35 1.1 -14.9 1.85 -15.1 2.65 -15.25 3.05 -16.3 3.15 -16.55 3.35 -17.1 Q3.85 -17.35 4.35 -17.1 L4.8 -16.9 M1.65 -9.65 L1.75 -9.55 Q2.35 -9.0 2.35 -8.2 2.35 -7.45 1.85 -6.9 L1.75 -6.8 Q1.2 -6.25 0.35 -6.25 L0.0 -6.25 -0.65 -6.5 -1.0 -6.75 -1.05 -6.8 -1.15 -6.9 -1.6 -7.85 -1.6 -8.0 -1.6 -8.1 -1.6 -8.2 Q-1.6 -9.0 -1.0 -9.55 -0.45 -10.15 0.35 -10.15 L1.45 -9.8 1.65 -9.65 M1.65 0.15 L2.05 -0.75" fill="none" stroke="#434343" stroke-linecap="round" stroke-linejoin="round" stroke-width="1.0"/>
    <path d="M4.8 -16.9 L4.65 -16.4 3.95 -12.85 1.65 -10.85 1.65 -9.65 M6.75 -1.85 L7.8 -1.15 M3.3 0.4 L2.6 0.4 1.55 1.1 -1.85 0.35 -4.2 -2.8 -4.2 -2.85 -4.25 -2.9 -3.25 -2.85 -2.2 -2.85 0.0 -6.25 M-6.55 -8.95 L-6.6 -9.0 -6.6 -11.05 -6.55 -11.2 -6.5 -11.3 -6.3 -11.65 -1.0 -9.55 M1.85 -6.9 L4.55 -4.85 4.55 -3.5 6.75 -1.85 M-1.15 -6.95 L-1.15 -6.9 -4.25 -2.9 M-4.2 -2.8 L-4.2 -2.85 M-1.6 -8.0 L-6.55 -8.95" fill="none" stroke="#262626" stroke-linecap="round" stroke-linejoin="round" stroke-width="1.0"/>
    <path d="M4.65 -16.4 L6.0 -15.8 M8.8 -13.55 L9.55 -11.9 M10.05 -6.95 L9.45 -5.55 M8.0 -2.75 L6.75 -1.85 M3.0 -16.3 L3.15 -16.55 M10.05 -7.0 L10.05 -6.95" fill="none" stroke="#56534e" stroke-linecap="round" stroke-linejoin="round" stroke-width="1.0"/>
    <path d="M-4.2 -2.85 L-6.25 -2.9 Q-7.4 -3.95 -7.9 -7.4 L-6.55 -8.95 M-6.3 -11.65 L-6.85 -12.9 -6.35 -14.9 Q-5.85 -15.15 -5.4 -15.45 M-4.9 -14.35 Q-2.8 -16.15 0.45 -16.45 L3.0 -16.3 3.05 -16.3 M1.45 -9.8 L-0.65 -6.5 M1.15 -2.35 L0.85 -1.6 M-4.2 -2.85 L-3.25 -2.85 M-2.2 -2.85 L-1.55 -0.7 Q-0.6 -0.15 1.65 0.15 M0.05 -3.35 L-0.35 -2.1 M0.05 -12.05 L-1.55 -11.85" fill="none" stroke="#737373" stroke-linecap="round" stroke-linejoin="round" stroke-width="1.0"/>
    <path d="M6.0 -15.8 L6.05 -16.0 7.1 -15.5 Q8.25 -14.75 8.8 -13.55 L7.25 -12.05 5.3 -12.8 6.0 -15.8 M9.15 -11.6 L9.85 -12.05 10.3 -10.65 Q10.75 -8.85 10.4 -6.8 L10.05 -6.95 M9.45 -5.55 L10.0 -5.3 9.7 -4.3 Q9.2 -3.2 8.15 -2.55 L7.8 -3.05 6.3 -5.1 7.6 -6.5 9.45 -5.55 M9.15 -11.6 L8.7 -11.35 7.9 -10.8 8.2 -7.8 10.05 -7.0 M6.4 -9.75 L6.6 -7.8 5.3 -6.25 3.5 -7.3 3.35 -10.15 4.6 -11.65 6.3 -10.45 6.4 -9.75 Z" fill="none" stroke="#262f40" stroke-linecap="round" stroke-linejoin="round" stroke-width="1.0"/>
  </g>
  <defs>
    <linearGradient gradientTransform="matrix(-0.0015, 0.0013, 0.0013, 0.0015, 6.7, -13.75)" gradientUnits="userSpaceOnUse" id="gradient0" spreadMethod="pad" x1="-819.2" x2="819.2">
      <stop offset="0.0" stop-color="#5b9666"/>
      <stop offset="1.0" stop-color="#253159"/>
    </linearGradient>
    <linearGradient gradientTransform="matrix(-0.0016, 0.0, 0.0, 0.0016, 9.2, -9.45)" gradientUnits="userSpaceOnUse" id="gradient1" spreadMethod="pad" x1="-819.2" x2="819.2">
      <stop offset="0.0" stop-color="#5b9666"/>
      <stop offset="1.0" stop-color="#253159"/>
    </linearGradient>
    <linearGradient gradientTransform="matrix(-0.002, 0.0, 0.0, 0.002, 4.95, -8.95)" gradientUnits="userSpaceOnUse" id="gradient2" spreadMethod="pad" x1="-819.2" x2="819.2">
      <stop offset="0.0" stop-color="#5b9666"/>
      <stop offset="1.0" stop-color="#253159"/>
    </linearGradient>
    <linearGradient gradientTransform="matrix(-0.0017, -0.001, -0.001, 0.0017, 8.0, -4.6)" gradientUnits="userSpaceOnUse" id="gradient3" spreadMethod="pad" x1="-819.2" x2="819.2">
      <stop offset="0.0" stop-color="#5b9666"/>
      <stop offset="1.0" stop-color="#253159"/>
    </linearGradient>
  </defs>
</svg>
