<?xml version="1.0" encoding="UTF-8" standalone="no"?>
<svg xmlns:ffdec="https://www.free-decompiler.com/flash" xmlns:xlink="http://www.w3.org/1999/xlink" ffdec:objectType="shape" height="25.2px" width="31.6px" xmlns="http://www.w3.org/2000/svg">
  <g transform="matrix(1.0, 0.0, 0.0, 1.0, 13.2, 21.0)">
    <path d="M6.6 -16.55 L4.75 -20.5 Q11.4 -20.15 14.85 -15.6 L15.2 -15.1 Q20.1 -9.25 16.05 -6.2 L15.2 -6.6 14.8 -6.8 14.7 -6.85 12.8 -8.3 9.85 -11.15 8.45 -13.3 7.1 -15.6 6.6 -16.55 M9.25 -16.65 L9.35 -17.35 8.9 -17.9 8.25 -18.0 Q7.85 -17.9 7.65 -17.6 7.45 -17.25 7.55 -16.85 7.65 -16.5 8.0 -16.35 8.3 -16.1 8.7 -16.2 L9.25 -16.65 M15.85 -10.3 L15.2 -10.4 14.6 -9.95 Q14.45 -9.6 14.55 -9.25 L14.95 -8.65 15.65 -8.6 16.2 -9.0 Q16.45 -9.4 16.35 -9.75 L15.85 -10.3" fill="#b61313" fill-rule="evenodd" stroke="none"/>
    <path d="M5.05 -15.05 L5.05 -14.95 6.15 -13.25 6.2 -12.7 5.85 -12.25 5.35 -12.15 4.9 -12.5 3.85 -14.25 Q3.65 -14.45 3.75 -14.7 L3.75 -14.75 4.1 -15.25 4.65 -15.35 5.05 -15.05 M1.85 -14.6 L2.15 -15.05 2.7 -15.2 3.2 -14.8 4.15 -13.2 4.25 -12.7 4.0 -12.25 3.35 -12.15 2.9 -12.5 1.95 -14.0 1.85 -14.2 1.85 -14.6 M0.2 -13.2 L0.35 -12.6 0.05 -12.1 -0.45 -12.0 Q-0.8 -12.05 -0.95 -12.3 L-2.1 -13.85 -2.25 -14.35 -1.95 -14.85 -1.4 -15.0 Q-1.1 -14.95 -0.95 -14.7 L0.2 -13.2 M2.2 -13.25 L2.3 -12.65 1.95 -12.2 1.4 -12.1 1.0 -12.4 -0.05 -13.95 -0.15 -14.55 0.15 -14.95 0.7 -15.1 Q1.0 -15.05 1.15 -14.8 L2.2 -13.25" fill="#5181ac" fill-rule="evenodd" stroke="none"/>
    <path d="M3.5 -9.65 L-1.8 -9.8 -7.25 -11.75 Q-12.85 -13.95 -12.7 -14.5 -12.25 -15.3 -5.8 -16.2 L6.6 -16.55 7.1 -15.6 8.45 -13.3 9.85 -11.15 12.8 -8.3 14.7 -6.85 5.7 -9.75 3.5 -9.65 M2.2 -13.25 L1.15 -14.8 Q1.0 -15.05 0.7 -15.1 L0.15 -14.95 -0.15 -14.55 -0.05 -13.95 1.0 -12.4 1.4 -12.1 1.95 -12.2 2.3 -12.65 2.2 -13.25 M0.2 -13.2 L-0.95 -14.7 Q-1.1 -14.95 -1.4 -15.0 L-1.95 -14.85 -2.25 -14.35 -2.1 -13.85 -0.95 -12.3 Q-0.8 -12.05 -0.45 -12.0 L0.05 -12.1 0.35 -12.6 0.2 -13.2 M1.85 -14.6 L1.85 -14.2 1.95 -14.0 2.9 -12.5 3.35 -12.15 4.0 -12.25 4.25 -12.7 4.15 -13.2 3.2 -14.8 2.7 -15.2 2.15 -15.05 1.85 -14.6 M5.05 -15.05 L4.65 -15.35 4.1 -15.25 3.75 -14.75 3.75 -14.7 Q3.65 -14.45 3.85 -14.25 L4.9 -12.5 5.35 -12.15 5.85 -12.25 6.2 -12.7 6.15 -13.25 5.05 -14.95 5.05 -15.05 M-6.0 -14.95 L-6.6 -14.5 -6.65 -13.8 -6.25 -13.2 -5.5 -13.15 -5.0 -13.55 Q-4.75 -13.9 -4.85 -14.3 -4.95 -14.7 -5.35 -14.85 L-6.0 -14.95" fill="#850e10" fill-rule="evenodd" stroke="none"/>
    <path d="M9.25 -16.65 L8.7 -16.2 Q8.3 -16.1 8.0 -16.35 7.65 -16.5 7.55 -16.85 7.45 -17.25 7.65 -17.6 7.85 -17.9 8.25 -18.0 L8.9 -17.9 9.35 -17.35 9.25 -16.65 M15.85 -10.3 L16.35 -9.75 Q16.45 -9.4 16.2 -9.0 L15.65 -8.6 14.95 -8.65 14.55 -9.25 Q14.45 -9.6 14.6 -9.95 L15.2 -10.4 15.85 -10.3 M-6.0 -14.95 L-5.35 -14.85 Q-4.95 -14.7 -4.85 -14.3 -4.75 -13.9 -5.0 -13.55 L-5.5 -13.15 -6.25 -13.2 -6.65 -13.8 -6.6 -14.5 -6.0 -14.95" fill="#300400" fill-rule="evenodd" stroke="none"/>
    <path d="M7.85 -0.1 L6.0 -0.8 3.4 -6.45 3.5 -9.65 5.7 -9.75 14.7 -6.85 14.8 -6.8 7.85 -0.1 M8.55 -8.4 L7.45 -5.8 11.55 -4.15 10.75 -7.8 8.55 -8.4" fill="#71160f" fill-rule="evenodd" stroke="none"/>
    <path d="M14.1 -1.85 L11.8 -1.15 9.6 -0.55 7.85 -0.1 14.8 -6.8 15.2 -6.6 14.1 -1.85" fill="#80171e" fill-rule="evenodd" stroke="none"/>
    <path d="M8.55 -8.4 L10.75 -7.8 11.55 -4.15 7.45 -5.8 8.55 -8.4" fill="#567bb1" fill-rule="evenodd" stroke="none"/>
    <path d="M16.05 -6.2 L14.1 -1.85 15.2 -6.6 16.05 -6.2" fill="#47090f" fill-rule="evenodd" stroke="none"/>
    <path d="M6.6 -16.55 L4.75 -20.5 Q11.4 -20.15 14.85 -15.6 L15.2 -15.1 Q20.1 -9.25 16.05 -6.2 L14.1 -1.85 15.2 -6.6 16.05 -6.2 M-1.8 -9.8 L-7.25 -11.75 Q-12.85 -13.95 -12.7 -14.5 -12.25 -15.3 -5.8 -16.2 L6.6 -16.55 7.1 -15.6 8.45 -13.3 9.85 -11.15 12.8 -8.3 14.7 -6.85 14.8 -6.8 15.2 -6.6" fill="none" stroke="#310206" stroke-linecap="round" stroke-linejoin="round" stroke-width="1.0"/>
    <path d="M2.2 -13.25 L1.15 -14.8 Q1.0 -15.05 0.7 -15.1 L0.15 -14.95 -0.15 -14.55 -0.05 -13.95 1.0 -12.4 1.4 -12.1 1.95 -12.2 2.3 -12.65 2.2 -13.25 M0.2 -13.2 L-0.95 -14.7 Q-1.1 -14.95 -1.4 -15.0 L-1.95 -14.85 -2.25 -14.35 -2.1 -13.85 -0.95 -12.3 Q-0.8 -12.05 -0.45 -12.0 L0.05 -12.1 0.35 -12.6 0.2 -13.2 M1.85 -14.6 L1.85 -14.2 1.95 -14.0 2.9 -12.5 3.35 -12.15 4.0 -12.25 4.25 -12.7 4.15 -13.2 3.2 -14.8 2.7 -15.2 2.15 -15.05 1.85 -14.6 M5.05 -15.05 L4.65 -15.35 4.1 -15.25 3.75 -14.75 3.75 -14.7 Q3.65 -14.45 3.85 -14.25 L4.9 -12.5 5.35 -12.15 5.85 -12.25 6.2 -12.7 6.15 -13.25 5.05 -14.95 5.05 -15.05 M8.55 -8.4 L10.75 -7.8 11.55 -4.15 7.45 -5.8 8.55 -8.4" fill="none" stroke="#072a48" stroke-linecap="round" stroke-linejoin="round" stroke-width="1.0"/>
    <path d="M14.8 -6.8 L7.85 -0.1" fill="none" stroke="#450000" stroke-linecap="round" stroke-linejoin="round" stroke-width="1.0"/>
    <path d="M14.7 -6.85 L5.7 -9.75" fill="none" stroke="#3b0100" stroke-linecap="round" stroke-linejoin="round" stroke-width="1.0"/>
    <path d="M-2.3 -9.7 Q1.7 -11.6 3.25 -11.5 4.9 -11.05 5.2 -9.7 L5.25 -9.05 4.05 -6.95 5.95 -1.95 7.3 -3.9 8.7 -1.5 9.4 -2.25 10.7 -3.1 11.25 -1.1 13.4 -2.15 13.5 -1.75 Q14.0 -1.5 13.25 0.1 11.8 2.2 9.95 2.8 7.65 4.35 5.1 3.2 L2.05 1.35 0.3 -0.4 Q-2.25 -0.35 -3.55 -2.5 -4.5 -4.65 -4.05 -6.3 -3.5 -8.05 -2.3 -9.7 M2.35 -10.4 L-0.2 -9.75 Q-1.55 -8.4 0.8 -7.85 2.55 -1.85 3.15 -2.15 3.7 -2.7 2.4 -8.2 4.7 -10.15 2.35 -10.4 M1.85 -9.85 L2.2 -8.6 1.65 -8.0 0.85 -8.35 0.45 -9.5 1.85 -9.85 M4.6 -1.3 L5.05 -1.25 5.35 -0.85 5.25 -0.4 4.9 -0.05 4.35 -0.15 4.1 -0.5 4.15 -1.0 Q4.3 -1.25 4.6 -1.3 M6.05 -0.6 Q5.85 -1.65 5.15 -1.85 4.45 -2.1 3.8 -1.5 2.85 -0.45 4.6 0.6 6.35 2.1 9.35 2.05 11.25 0.9 12.5 -0.95 L10.6 -0.3 10.2 -1.75 8.8 -0.6 8.2 -0.6 7.25 -2.2 6.55 -0.4 6.05 -0.6 M-1.05 -3.7 Q-1.3 -4.65 -0.8 -5.5 -1.3 -4.65 -1.05 -3.7 M-2.15 -3.65 Q-2.45 -4.75 -1.7 -5.8 -2.45 -4.75 -2.15 -3.65" fill="#2f3332" fill-rule="evenodd" stroke="none"/>
    <path d="M1.85 -9.85 L0.45 -9.5 0.85 -8.35 1.65 -8.0 2.2 -8.6 1.85 -9.85 M2.35 -10.4 Q4.7 -10.15 2.4 -8.2 3.7 -2.7 3.15 -2.15 2.55 -1.85 0.8 -7.85 -1.55 -8.4 -0.2 -9.75 L2.35 -10.4" fill="#747474" fill-rule="evenodd" stroke="none"/>
    <path d="M4.6 -1.3 Q4.3 -1.25 4.15 -1.0 L4.1 -0.5 4.35 -0.15 4.9 -0.05 5.25 -0.4 5.35 -0.85 5.05 -1.25 4.6 -1.3 M6.05 -0.6 L6.55 -0.4 7.25 -2.2 8.2 -0.6 8.8 -0.6 10.2 -1.75 10.6 -0.3 12.5 -0.95 Q11.25 0.9 9.35 2.05 6.35 2.1 4.6 0.6 2.85 -0.45 3.8 -1.5 4.45 -2.1 5.15 -1.85 5.85 -1.65 6.05 -0.6" fill="#747a78" fill-rule="evenodd" stroke="none"/>
    <path d="M9.95 2.8 Q7.65 4.35 5.1 3.2 L2.05 1.35 0.3 -0.4 Q-2.25 -0.35 -3.55 -2.5 -4.5 -4.65 -4.05 -6.3 -3.5 -8.05 -2.3 -9.7 M-1.7 -5.8 Q-2.45 -4.75 -2.15 -3.65 M-0.8 -5.5 Q-1.3 -4.65 -1.05 -3.7" fill="none" stroke="#181b17" stroke-linecap="round" stroke-linejoin="round" stroke-width="1.0"/>
  </g>
</svg>
