<?xml version="1.0" encoding="UTF-8" standalone="no"?>
<svg xmlns:xlink="http://www.w3.org/1999/xlink" height="20.8px" width="23.1px" xmlns="http://www.w3.org/2000/svg">
  <g transform="matrix(1.0, 0.0, 0.0, 1.0, 6.55, 16.7)">
    <path d="M1.55 -15.2 Q-0.25 -13.8 -0.5 -10.9 L-0.8 -10.9 -1.95 -9.9 -4.15 -9.25 -4.1 -10.0 -2.95 -11.1 -2.95 -13.05 0.65 -15.2 1.55 -15.2 M2.45 -10.9 Q2.8 -14.1 5.1 -15.7 11.9 -14.7 13.1 -11.3 10.85 -11.7 9.0 -9.95 L8.0 -9.45 8.0 -8.4 5.4 -7.6 4.65 -8.05 4.65 -8.85 2.45 -10.9 M4.2 0.15 L8.45 0.75 Q8.2 0.75 7.95 0.9 6.35 1.8 4.9 1.75 3.45 1.7 1.55 0.7 -2.9 -1.75 -5.1 -1.85 L-4.0 -3.55 -4.0 -5.45 -2.05 -5.4 4.2 0.15" fill="#3f4c5f" fill-rule="evenodd" stroke="none"/>
    <path d="M1.55 -15.2 Q2.4 -15.85 3.6 -16.2 4.9 -16.2 5.1 -15.7 2.8 -14.1 2.45 -10.9 L-0.5 -10.9 Q-0.25 -13.8 1.55 -15.2" fill="#454f59" fill-rule="evenodd" stroke="none"/>
    <path d="M4.2 0.15 L6.2 -3.1 6.2 -3.5 7.95 -3.55 10.8 -1.5 11.1 -0.65 12.5 -0.35 Q11.2 1.15 11.6 3.2 10.3 3.45 9.0 2.35 9.7 1.8 9.3 1.25 8.9 0.75 8.45 0.75 L4.2 0.15" fill="#373d4b" fill-rule="evenodd" stroke="none"/>
    <path d="M13.1 -11.3 Q14.65 -10.85 16.05 -9.2 L13.9 -9.55 9.0 -9.95 Q10.85 -11.7 13.1 -11.3" fill="#353841" fill-rule="evenodd" stroke="none"/>
    <path d="M11.6 3.2 Q11.2 1.15 12.5 -0.35 L13.5 -0.15 Q13.95 2.65 12.9 3.2 L11.6 3.2" fill="#2a313b" fill-rule="evenodd" stroke="none"/>
    <path d="M5.1 -15.7 Q4.9 -16.2 3.6 -16.2 2.4 -15.85 1.55 -15.2 -0.25 -13.8 -0.5 -10.9 M2.45 -10.9 Q2.8 -14.1 5.1 -15.7 11.9 -14.7 13.1 -11.3 M1.55 -15.2 L0.65 -15.2 -2.95 -13.05 -2.95 -11.1 -4.1 -10.0 -4.15 -9.25 M-4.0 -5.45 L-4.0 -3.55 -5.1 -1.85" fill="none" stroke="#2f323b" stroke-linecap="round" stroke-linejoin="round" stroke-width="1.0"/>
    <path d="M16.05 -9.2 L13.9 -9.55" fill="none" stroke="#222224" stroke-linecap="round" stroke-linejoin="round" stroke-width="1.0"/>
    <path d="M13.1 -11.3 Q14.65 -10.85 16.05 -9.2" fill="none" stroke="#24282c" stroke-linecap="round" stroke-linejoin="round" stroke-width="1.0"/>
    <path d="M9.0 -9.95 Q10.85 -11.7 13.1 -11.3" fill="none" stroke="#1c202c" stroke-linecap="round" stroke-linejoin="round" stroke-width="1.0"/>
    <path d="M11.6 3.2 Q11.2 1.15 12.5 -0.35 M13.5 -0.15 Q13.95 2.65 12.9 3.2 L11.6 3.2" fill="none" stroke="#1e2631" stroke-linecap="round" stroke-linejoin="round" stroke-width="1.0"/>
    <path d="M4.2 0.15 L8.45 0.75 M9.0 2.35 Q10.3 3.45 11.6 3.2" fill="none" stroke="#24272e" stroke-linecap="round" stroke-linejoin="round" stroke-width="1.0"/>
    <path d="M-6.05 -0.8 Q-6.05 -1.65 -5.1 -1.85 -2.9 -1.75 1.55 0.7 3.45 1.7 4.9 1.75 6.35 1.8 7.95 0.9 8.2 0.75 8.45 0.75 8.9 0.75 9.3 1.25 9.7 1.8 9.0 2.35 L8.4 2.75 Q6.9 3.5 5.1 3.6 3.25 3.7 1.2 2.9 -3.7 0.15 -5.25 0.05 -6.0 0.0 -6.05 -0.8" fill="#2a546d" fill-rule="evenodd" stroke="none"/>
    <path d="M-6.05 -0.8 Q-6.0 0.0 -5.25 0.05 -3.7 0.15 1.2 2.9 3.25 3.7 5.1 3.6 6.9 3.5 8.4 2.75 L9.0 2.35 Q9.7 1.8 9.3 1.25 8.9 0.75 8.45 0.75 8.2 0.75 7.95 0.9 6.35 1.8 4.9 1.75 3.45 1.7 1.55 0.7 -2.9 -1.75 -5.1 -1.85 -6.05 -1.65 -6.05 -0.8 Z" fill="none" stroke="#1a2d3b" stroke-linecap="round" stroke-linejoin="round" stroke-width="1.0"/>
    <path d="M6.2 -3.5 L6.2 -7.1 5.4 -7.6 8.0 -8.4 8.0 -9.45 9.0 -9.95 13.9 -9.55 Q15.95 -5.6 13.5 -0.15 L11.1 -0.65 10.8 -1.5 7.95 -3.55 6.2 -3.5" fill="url(#gradient0)" fill-rule="evenodd" stroke="none"/>
    <path d="M5.4 -7.6 L8.0 -8.4 8.0 -9.45 9.0 -9.95 13.9 -9.55 Q15.95 -5.6 13.5 -0.15 L11.1 -0.65 10.8 -1.5 7.95 -3.55 6.2 -3.5" fill="none" stroke="#1a212c" stroke-linecap="round" stroke-linejoin="round" stroke-width="1.0"/>
    <path d="M6.2 -3.1 L4.2 0.15 -2.05 -5.4 -4.0 -5.45 -4.3 -5.5 -4.4 -9.2 -4.15 -9.25 -1.95 -9.9 -0.8 -10.9 2.45 -10.9 4.65 -8.85 4.65 -8.05 6.2 -7.1 6.2 -3.1 M1.4 -8.5 L0.65 -6.35 1.4 -8.5 M3.3 -4.75 Q3.6 -4.45 3.95 -4.45 4.3 -4.45 4.55 -4.75 L4.85 -5.35 4.55 -6.0 3.95 -6.25 3.3 -6.0 3.05 -5.35 Q3.05 -5.0 3.3 -4.75 M0.05 -8.95 L-0.85 -6.8 0.05 -8.95" fill="#363e49" fill-rule="evenodd" stroke="none"/>
    <path d="M3.3 -4.75 Q3.05 -5.0 3.05 -5.35 L3.3 -6.0 3.95 -6.25 4.55 -6.0 4.85 -5.35 4.55 -4.75 Q4.3 -4.45 3.95 -4.45 3.6 -4.45 3.3 -4.75" fill="#293038" fill-rule="evenodd" stroke="none"/>
    <path d="M4.65 -8.05 L4.65 -8.85 2.45 -10.9 -0.8 -10.9 -1.95 -9.9 -4.15 -9.25 -4.4 -9.2 -4.3 -5.5 -4.0 -5.45 -2.05 -5.4 4.2 0.15 6.2 -3.1" fill="none" stroke="#21242b" stroke-linecap="round" stroke-linejoin="round" stroke-width="1.0"/>
    <path d="M0.65 -6.35 L1.4 -8.5 M3.3 -4.75 Q3.05 -5.0 3.05 -5.35 L3.3 -6.0 3.95 -6.25 4.55 -6.0 4.85 -5.35 4.55 -4.75 Q4.3 -4.45 3.95 -4.45 3.6 -4.45 3.3 -4.75 M-0.85 -6.8 L0.05 -8.95" fill="none" stroke="#1b242d" stroke-linecap="round" stroke-linejoin="round" stroke-width="1.0"/>
    <path d="M6.2 -3.1 L6.2 -7.1 4.65 -8.05" fill="none" stroke="#191b20" stroke-linecap="round" stroke-linejoin="round" stroke-width="1.0"/>
  </g>
  <defs>
    <linearGradient gradientTransform="matrix(0.0058, 0.0, 0.0, 0.006, 10.1, -5.05)" gradientUnits="userSpaceOnUse" id="gradient0" spreadMethod="pad" x1="-819.2" x2="819.2">
      <stop offset="0.0" stop-color="#4a5d7e"/>
      <stop offset="1.0" stop-color="#5d80a1"/>
    </linearGradient>
  </defs>
</svg>
