<?xml version="1.0" encoding="UTF-8" standalone="no"?>
<svg xmlns:ffdec="https://www.free-decompiler.com/flash" xmlns:xlink="http://www.w3.org/1999/xlink" ffdec:objectType="shape" height="7.5px" width="13.2px" xmlns="http://www.w3.org/2000/svg">
  <g transform="matrix(1.0, 0.0, 0.0, 1.0, 4.15, 1.05)">
    <path d="M5.85 2.05 Q9.25 2.35 8.4 5.9 L-3.5 5.95 Q-3.95 3.45 -2.85 0.2 L-2.4 -0.05 -1.15 -0.45 Q0.0 -0.75 1.85 0.05 L2.75 0.2 Q3.3 1.75 5.85 2.05" fill="#171717" fill-rule="evenodd" stroke="none"/>
    <path d="M5.85 2.05 Q9.25 2.35 8.4 5.9 L-3.5 5.95 Q-3.95 3.45 -2.85 0.2 L-2.4 -0.05 -1.15 -0.45 Q0.0 -0.75 1.85 0.05 L2.75 0.2 Q3.3 1.75 5.85 2.05 Z" fill="none" stroke="#070707" stroke-linecap="round" stroke-linejoin="round" stroke-width="1.0"/>
  </g>
</svg>
