<?xml version="1.0" encoding="UTF-8" standalone="no"?>
<svg xmlns:ffdec="https://www.free-decompiler.com/flash" xmlns:xlink="http://www.w3.org/1999/xlink" ffdec:objectType="shape" height="9.5px" width="17.4px" xmlns="http://www.w3.org/2000/svg">
  <g transform="matrix(1.0, 0.0, 0.0, 1.0, 2.2, 4.35)">
    <path d="M-1.75 -3.2 L5.5 -3.9 8.6 0.45 13.5 0.45 14.1 2.5 12.65 4.7 7.55 4.55 6.65 3.95 5.75 4.55 -1.3 4.5 -1.75 -3.2" fill="#1c1c1c" fill-rule="evenodd" stroke="none"/>
    <path d="M-1.75 -3.2 L-1.3 4.5 5.75 4.55 6.65 3.95 7.55 4.55 12.65 4.7 14.1 2.5 13.5 0.45 8.6 0.45 5.5 -3.9 -1.75 -3.2 Z" fill="none" stroke="#121212" stroke-linecap="round" stroke-linejoin="round" stroke-width="0.9500000000000001"/>
    <path d="M0.3 -2.15 L3.0 -2.05 4.25 -1.5 5.9 -3.35 8.6 0.45 4.1 1.65 3.55 2.85 0.65 2.9 0.6 1.05 -1.6 -0.2 -1.75 -3.2 0.3 -2.15" fill="#282828" fill-rule="evenodd" stroke="none"/>
    <path d="M0.3 -2.15 L-1.75 -3.2 -1.6 -0.2 0.6 1.05 0.65 2.9 3.55 2.85 4.1 1.65 8.6 0.45 5.9 -3.35 4.25 -1.5 3.0 -2.05 0.3 -2.15 Z" fill="none" stroke="#121212" stroke-linecap="round" stroke-linejoin="round" stroke-width="0.9500000000000001"/>
    <path d="M6.95 0.65 L5.5 -1.35 8.1 -3.2 9.9 -2.2 10.85 -2.05 12.4 -1.7 14.75 -0.2 14.65 2.15 13.75 3.15 11.25 2.85 10.4 1.7 6.9 1.8 6.95 0.65" fill="#282828" fill-rule="evenodd" stroke="none"/>
    <path d="M6.95 0.65 L6.9 1.8 10.4 1.7 11.25 2.85 13.75 3.15 14.65 2.15 14.75 -0.2 12.4 -1.7 10.85 -2.05 9.9 -2.2 8.1 -3.2 5.5 -1.35 6.95 0.65 Z" fill="none" stroke="#121212" stroke-linecap="round" stroke-linejoin="round" stroke-width="0.9500000000000001"/>
  </g>
</svg>
