<?xml version="1.0" encoding="UTF-8" standalone="no"?>
<svg xmlns:xlink="http://www.w3.org/1999/xlink" height="18.25px" width="15.15px" xmlns="http://www.w3.org/2000/svg">
  <g transform="matrix(1.0, 0.0, 0.0, 1.0, 6.05, 17.05)">
    <path d="M3.3 -1.35 L3.3 0.7 1.6 0.7 -0.2 0.6 -3.0 0.3 -3.1 0.25 -3.1 -1.6 3.3 -1.35" fill="#000000" fill-rule="evenodd" stroke="none"/>
    <path d="M7.9 -10.5 Q7.85 -8.35 8.3 -7.65 6.35 -6.35 3.75 -6.8 1.15 -7.25 1.7 -8.9 2.2 -10.6 4.35 -10.8 L7.9 -10.5 M5.9 -8.4 L4.2 -8.4 5.9 -8.4" fill="#cc9933" fill-rule="evenodd" stroke="none"/>
    <path d="M1.6 -16.55 L3.95 -16.2 Q6.0 -15.4 6.95 -13.75 7.9 -12.15 7.9 -10.5 L4.35 -10.8 Q2.2 -10.6 1.7 -8.9 1.15 -7.25 3.75 -6.8 6.35 -6.35 8.3 -7.65 L8.5 -6.6 8.6 -5.6 8.5 -4.75 8.25 -3.5 7.8 -2.35 Q7.5 -1.9 6.2 -1.3 L3.3 -1.35 -3.1 -1.6 Q-4.25 -2.6 -4.95 -4.4 -5.7 -6.2 -5.5 -9.0 -5.3 -11.85 -4.35 -13.5 -3.4 -15.2 -0.75 -16.1 L1.6 -16.55 Q-1.65 -14.4 -1.9 -9.85 L-2.1 -9.85 Q-2.85 -9.85 -3.4 -9.35 -3.9 -8.8 -3.9 -8.05 -3.9 -7.3 -3.4 -6.8 -2.85 -6.25 -2.1 -6.25 -1.35 -6.25 -0.85 -6.8 -0.3 -7.3 -0.3 -8.05 -0.3 -8.8 -0.85 -9.35 -1.3 -9.8 -1.9 -9.85 -1.65 -14.4 1.6 -16.55" fill="#1a1a1a" fill-rule="evenodd" stroke="none"/>
    <path d="M-1.9 -9.85 Q-1.3 -9.8 -0.85 -9.35 -0.3 -8.8 -0.3 -8.05 -0.3 -7.3 -0.85 -6.8 -1.35 -6.25 -2.1 -6.25 -2.85 -6.25 -3.4 -6.8 -3.9 -7.3 -3.9 -8.05 -3.9 -8.8 -3.4 -9.35 -2.85 -9.85 -2.1 -9.85 L-1.9 -9.85" fill="#2b2b2b" fill-rule="evenodd" stroke="none"/>
    <path d="M7.9 -10.5 Q7.9 -12.15 6.95 -13.75 6.0 -15.4 3.95 -16.2 L1.6 -16.55 Q-1.65 -14.4 -1.9 -9.85 -1.3 -9.8 -0.85 -9.35 -0.3 -8.8 -0.3 -8.05 -0.3 -7.3 -0.85 -6.8 -1.35 -6.25 -2.1 -6.25 -2.85 -6.25 -3.4 -6.8 -3.9 -7.3 -3.9 -8.05 -3.9 -8.8 -3.4 -9.35 -2.85 -9.85 -2.1 -9.85 L-1.9 -9.85 M7.9 -10.5 Q7.85 -8.35 8.3 -7.65 L8.5 -6.6 8.6 -5.6 8.5 -4.75 8.25 -3.5 7.8 -2.35 Q7.5 -1.9 6.2 -1.3 L3.3 -1.35 M-3.1 -1.6 Q-4.25 -2.6 -4.95 -4.4 -5.7 -6.2 -5.5 -9.0 -5.3 -11.85 -4.35 -13.5 -3.4 -15.2 -0.75 -16.1 L1.6 -16.55 M8.3 -7.65 Q6.35 -6.35 3.75 -6.8 1.15 -7.25 1.7 -8.9 2.2 -10.6 4.35 -10.8 L7.9 -10.5" fill="none" stroke="#000000" stroke-linecap="round" stroke-linejoin="round" stroke-width="1.0"/>
    <path d="M3.3 -1.35 L3.3 0.7 1.6 0.7 -0.2 0.6 -3.0 0.3 -3.1 0.25 -3.1 -1.6 3.3 -1.35" fill="none" stroke="#000000" stroke-linecap="round" stroke-linejoin="round" stroke-width="1.0"/>
    <path d="M4.2 -8.4 L5.9 -8.4" fill="none" stroke="#966825" stroke-linecap="round" stroke-linejoin="round" stroke-width="2.0"/>
    <path d="M5.15 -3.0 L6.1 -3.0" fill="none" stroke="#000000" stroke-linecap="round" stroke-linejoin="round" stroke-width="2.0"/>
    <path d="M-0.8 -6.25 L5.15 -3.0" fill="none" stroke="#333333" stroke-linecap="round" stroke-linejoin="round" stroke-width="1.0"/>
  </g>
</svg>
