<?xml version="1.0" encoding="UTF-8" standalone="no"?>
<svg xmlns:ffdec="https://www.free-decompiler.com/flash" xmlns:xlink="http://www.w3.org/1999/xlink" ffdec:objectType="shape" height="21.5px" width="18.85px" xmlns="http://www.w3.org/2000/svg">
  <g transform="matrix(1.0, 0.0, 0.0, 1.0, 3.05, -1.8)">
    <path d="M11.95 15.65 L12.8 16.55 12.0 17.1 Q11.1 17.9 10.95 18.65 10.75 18.0 10.9 17.25 L11.5 16.35 11.95 15.65" fill="#13112b" fill-rule="evenodd" stroke="none"/>
    <path d="M14.55 21.25 Q14.35 22.8 13.8 22.8 L12.6 22.45 Q11.85 22.05 11.7 20.75 L12.6 21.5 14.25 21.35 14.55 21.25" fill="#3c3c3c" fill-rule="evenodd" stroke="none"/>
    <path d="M10.9 17.25 L10.45 17.55 10.3 17.55 9.2 17.6 1.95 8.35 1.25 5.6 4.05 3.8 Q6.05 4.6 7.3 5.95 L11.3 12.4 11.5 12.7 11.7 13.1 Q12.35 14.5 11.95 15.65 L11.5 16.35 10.9 17.25" fill="#1e1e1e" fill-rule="evenodd" stroke="none"/>
    <path d="M12.8 16.55 Q13.8 16.05 14.3 17.1 15.55 18.55 15.25 20.4 15.3 21.0 14.55 21.25 L14.25 21.35 12.6 21.5 11.7 20.75 11.2 20.05 Q10.8 19.45 10.95 18.8 L10.95 18.65 Q11.1 17.9 12.0 17.1 L12.8 16.55" fill="url(#gradient0)" fill-rule="evenodd" stroke="none"/>
    <path d="M11.95 15.65 L12.8 16.55 M14.55 21.25 Q14.35 22.8 13.8 22.8 L12.6 22.45 Q11.85 22.05 11.7 20.75 M10.95 18.65 Q10.75 18.0 10.9 17.25" fill="none" stroke="#000000" stroke-linecap="round" stroke-linejoin="round" stroke-width="1.0"/>
    <path d="M10.9 17.25 L10.45 17.55 10.3 17.55 9.2 17.6 1.95 8.35 1.25 5.6 4.05 3.8 Q6.05 4.6 7.3 5.95 L11.3 12.4 11.5 12.7 11.7 13.1 Q12.35 14.5 11.95 15.65 L11.5 16.35 10.9 17.25" fill="none" stroke="#070707" stroke-linecap="round" stroke-linejoin="round" stroke-width="1.0"/>
    <path d="M12.8 16.55 Q13.8 16.05 14.3 17.1 15.55 18.55 15.25 20.4 15.3 21.0 14.55 21.25 L14.25 21.35 12.6 21.5 11.7 20.75 11.2 20.05 Q10.8 19.45 10.95 18.8 L10.95 18.65 Q11.1 17.9 12.0 17.1 L12.8 16.55 Z" fill="none" stroke="#353532" stroke-linecap="round" stroke-linejoin="round" stroke-width="1.0"/>
    <path d="M10.95 11.05 Q11.75 11.5 11.65 13.65 9.95 15.2 9.85 18.4 L8.0 16.65 Q8.0 11.7 10.95 11.05" fill="url(#gradient1)" fill-rule="evenodd" stroke="none"/>
    <path d="M-0.15 4.7 L-0.15 2.3 Q2.1 3.65 5.05 3.3 8.3 5.4 10.15 8.25 L10.45 9.95 9.25 9.95 Q6.45 11.8 6.75 16.1 L3.65 11.6 Q2.5 8.85 3.05 7.85 2.05 5.5 -0.15 4.7 M7.75 8.55 L4.6 5.2 7.75 8.55 M6.3 9.3 L5.15 8.05 6.3 9.3" fill="url(#gradient2)" fill-rule="evenodd" stroke="none"/>
    <path d="M-0.15 4.7 Q2.05 5.5 3.05 7.85 2.5 8.85 3.65 11.6 -0.35 8.25 -2.55 4.05 L-0.15 4.7" fill="url(#gradient3)" fill-rule="evenodd" stroke="none"/>
    <path d="M3.65 11.6 L6.75 16.1 Q6.45 11.8 9.25 9.95 L10.45 9.95 10.15 8.25 Q8.3 5.4 5.05 3.3 2.1 3.65 -0.15 2.3 L-0.15 4.7 Q2.05 5.5 3.05 7.85 2.5 8.85 3.65 11.6 -0.35 8.25 -2.55 4.05 L-0.15 4.7 M10.95 11.05 Q8.0 11.7 8.0 16.65 L9.85 18.4 Q9.95 15.2 11.65 13.65 11.75 11.5 10.95 11.05" fill="none" stroke="#353532" stroke-linecap="round" stroke-linejoin="round" stroke-width="1.0"/>
    <path d="M5.15 8.05 L6.3 9.3 M4.6 5.2 L7.75 8.55" fill="none" stroke="#53534e" stroke-linecap="round" stroke-linejoin="round" stroke-width="1.0"/>
  </g>
  <defs>
    <radialGradient cx="0" cy="0" gradientTransform="matrix(0.0065, 0.0, 0.0, 0.0065, 13.0, 17.35)" gradientUnits="userSpaceOnUse" id="gradient0" r="819.2" spreadMethod="pad">
      <stop offset="0.0" stop-color="#afafa0"/>
      <stop offset="1.0" stop-color="#66665d"/>
    </radialGradient>
    <radialGradient cx="0" cy="0" gradientTransform="matrix(0.0041, 0.0, 0.0, 0.0041, 10.7, 12.6)" gradientUnits="userSpaceOnUse" id="gradient1" r="819.2" spreadMethod="pad">
      <stop offset="0.0" stop-color="#afafa0"/>
      <stop offset="1.0" stop-color="#66665d"/>
    </radialGradient>
    <radialGradient cx="0" cy="0" gradientTransform="matrix(0.0084, 0.0, 0.0, 0.0084, 3.45, 8.7)" gradientUnits="userSpaceOnUse" id="gradient2" r="819.2" spreadMethod="pad">
      <stop offset="0.0" stop-color="#afafa0"/>
      <stop offset="1.0" stop-color="#66665d"/>
    </radialGradient>
    <radialGradient cx="0" cy="0" gradientTransform="matrix(0.0065, 0.0, 0.0, 0.0065, -1.1, 4.25)" gradientUnits="userSpaceOnUse" id="gradient3" r="819.2" spreadMethod="pad">
      <stop offset="0.0" stop-color="#afafa0"/>
      <stop offset="1.0" stop-color="#66665d"/>
    </radialGradient>
  </defs>
</svg>
