<?xml version="1.0" encoding="UTF-8" standalone="no"?>
<svg xmlns:xlink="http://www.w3.org/1999/xlink" height="19.95px" width="23.4px" xmlns="http://www.w3.org/2000/svg">
  <g transform="matrix(1.0, 0.0, 0.0, 1.0, 9.4, 15.65)">
    <path d="M2.15 -14.95 L1.95 -14.95 1.35 -15.05 2.15 -14.95 M-8.3 -9.55 L-6.9 -10.55 -5.9 -14.25 -3.7 -14.7 0.65 -15.15 1.1 -15.05 1.15 -14.9 1.45 -12.7 4.35 -10.55 4.5 -10.5 4.7 -10.4 2.55 -8.95 2.45 -8.8 2.45 -8.6 2.45 -8.4 2.45 -8.35 Q2.6 -7.55 3.9 -6.4 L3.1 -4.55 3.8 -2.6 Q4.65 -0.65 5.6 -0.35 L8.3 -0.85 8.65 -0.75 10.8 -0.3 8.35 3.1 Q7.1 3.15 4.35 2.1 L1.9 0.95 1.3 -2.05 0.55 -7.3 -1.05 -8.3 -3.8 -7.4 -4.6 -7.8 -6.55 -8.7 -8.3 -9.55 M-4.6 -9.65 L-2.65 -8.75 -4.6 -9.65" fill="#3f474c" fill-rule="evenodd" stroke="none"/>
    <path d="M1.35 -15.05 L1.95 -14.95 2.15 -14.95 2.4 -14.9 3.45 -14.75 5.4 -14.25 Q7.25 -13.7 8.55 -12.95 L7.8 -12.35 4.7 -10.4 4.5 -10.5 4.35 -10.55 1.45 -12.7 1.15 -14.9 1.1 -15.05 1.1 -15.1 1.35 -15.05 1.1 -15.05 1.35 -15.05 M-4.35 -2.55 L-5.2 -2.05 -8.45 -3.85 Q-8.95 -4.85 -8.9 -6.35 L-8.8 -7.55 -8.3 -9.55 -6.55 -8.7 -4.6 -7.8 -3.8 -7.4 -1.05 -8.3 0.55 -7.3 1.3 -2.05 -1.9 -4.05 -4.35 -2.55 M3.9 -6.4 L4.65 -6.2 Q5.25 -6.0 5.55 -5.6 L5.65 -5.4 6.7 -2.9 Q7.3 -1.6 7.95 -1.1 L8.25 -0.9 8.3 -0.85 5.6 -0.35 Q4.65 -0.65 3.8 -2.6 L3.1 -4.55 3.9 -6.4" fill="#353a40" fill-rule="evenodd" stroke="none"/>
    <path d="M4.7 -10.4 L7.8 -12.35 10.35 -11.45 11.85 -10.65 Q13.15 -9.8 13.35 -8.5 L13.4 -7.15 Q13.2 -4.95 12.1 -2.1 L11.6 -0.9 10.8 -0.3 8.65 -0.75 8.3 -0.85 8.25 -0.9 7.95 -1.1 Q7.3 -1.6 6.7 -2.9 L5.65 -5.4 5.55 -5.6 Q5.25 -6.0 4.65 -6.2 L3.9 -6.4 Q2.6 -7.55 2.45 -8.35 L2.45 -8.4 2.45 -8.6 2.45 -8.8 2.55 -8.95 4.7 -10.4" fill="url(#gradient0)" fill-rule="evenodd" stroke="none"/>
    <path d="M11.6 -0.9 L12.2 -1.3 Q13.55 0.05 13.5 1.7 L13.2 3.15 Q11.35 4.1 9.7 3.7 8.8 3.5 8.35 3.1 L10.8 -0.3 11.6 -0.9" fill="#505050" fill-rule="evenodd" stroke="none"/>
    <path d="M1.9 0.95 L-2.3 1.3 -4.35 -2.55 -1.9 -4.05 1.3 -2.05 1.9 0.95" fill="#242b30" fill-rule="evenodd" stroke="none"/>
    <path d="M2.15 -14.95 L1.35 -15.05 1.1 -15.05 1.15 -14.9 M1.1 -15.1 L1.1 -15.05 0.65 -15.15 -3.7 -14.7 -5.9 -14.25 -6.9 -10.55 -8.3 -9.55 -8.8 -7.55 -8.9 -6.35 Q-8.95 -4.85 -8.45 -3.85 L-5.2 -2.05 -4.35 -2.55 -1.9 -4.05 1.3 -2.05 1.9 0.95 -2.3 1.3 -4.35 -2.55 M7.8 -12.35 L8.55 -12.95 Q7.25 -13.7 5.4 -14.25 L3.45 -14.75 2.4 -14.9 2.15 -14.95 M4.35 -10.55 L4.5 -10.5 4.7 -10.4 7.8 -12.35 M8.35 3.1 Q7.1 3.15 4.35 2.1 L1.9 0.95 M3.9 -6.4 Q2.6 -7.55 2.45 -8.35 L2.45 -8.4 2.45 -8.6 2.45 -8.8 2.55 -8.95 4.7 -10.4 M8.3 -0.85 L8.25 -0.9 7.95 -1.1 Q7.3 -1.6 6.7 -2.9 L5.65 -5.4 5.55 -5.6 Q5.25 -6.0 4.65 -6.2 L3.9 -6.4 3.1 -4.55 3.8 -2.6 Q4.65 -0.65 5.6 -0.35 L8.3 -0.85 8.65 -0.75 10.8 -0.3" fill="none" stroke="#22262a" stroke-linecap="round" stroke-linejoin="round" stroke-width="1.0"/>
    <path d="M1.15 -14.9 L1.45 -12.7 4.35 -10.55" fill="none" stroke="#292e33" stroke-linecap="round" stroke-linejoin="round" stroke-width="1.0"/>
    <path d="M11.6 -0.9 L12.2 -1.3 Q13.55 0.05 13.5 1.7 L13.2 3.15 Q11.35 4.1 9.7 3.7 8.8 3.5 8.35 3.1 L10.8 -0.3 11.6 -0.9" fill="none" stroke="#212121" stroke-linecap="round" stroke-linejoin="round" stroke-width="1.0"/>
    <path d="M7.8 -12.35 L10.35 -11.45 11.85 -10.65 Q13.15 -9.8 13.35 -8.5 L13.4 -7.15 Q13.2 -4.95 12.1 -2.1 L11.6 -0.9" fill="none" stroke="#228115" stroke-linecap="round" stroke-linejoin="round" stroke-width="1.0"/>
    <path d="M-6.55 -8.7 L-4.6 -7.8 M-2.65 -8.75 L-4.6 -9.65" fill="none" stroke="#2f363a" stroke-linecap="round" stroke-linejoin="round" stroke-width="1.0"/>
  </g>
  <defs>
    <radialGradient cx="0" cy="0" gradientTransform="matrix(0.0317, -0.0053, 0.0053, 0.0317, -9.0, 4.85)" gradientUnits="userSpaceOnUse" id="gradient0" r="819.2" spreadMethod="pad">
      <stop offset="0.7176470588235294" stop-color="#0e7700"/>
      <stop offset="1.0" stop-color="#2bc517"/>
    </radialGradient>
  </defs>
</svg>
