<?xml version="1.0" encoding="UTF-8" standalone="no"?>
<svg xmlns:ffdec="https://www.free-decompiler.com/flash" xmlns:xlink="http://www.w3.org/1999/xlink" ffdec:objectType="shape" height="19.45px" width="18.8px" xmlns="http://www.w3.org/2000/svg">
  <g transform="matrix(1.0, 0.0, 0.0, 1.0, 3.2, 6.55)">
    <path d="M8.9 4.55 L8.6 5.15 8.2 6.1 Q8.2 6.45 8.85 6.85 L-0.15 6.65 Q-1.05 6.75 -1.1 5.95 L-0.95 5.15 3.35 4.8 3.0 4.8 -0.65 4.95 0.55 3.55 Q2.0 2.05 2.9 1.75 L3.75 1.55 3.55 1.55 Q1.7 1.95 1.25 2.5 L0.25 3.45 Q0.05 0.0 1.35 -1.15 2.15 -1.9 3.3 -2.2 L4.6 -2.35 6.2 -1.65 5.8 -0.25 5.5 1.3 5.45 2.0 Q5.55 2.9 6.0 3.5 L6.1 3.6 Q6.75 4.3 8.4 4.45 L8.9 4.55 M8.95 4.55 L10.7 4.75 11.25 4.9 11.9 5.8 Q12.05 6.5 11.55 6.85 L9.8 7.1 Q7.8 6.75 8.6 5.35 L8.95 4.65 8.95 4.55 M3.35 4.8 L5.05 4.2 6.0 3.5 5.05 4.2 3.35 4.8 Q4.8 4.7 6.0 3.5 4.8 4.7 3.35 4.8 M3.75 1.55 L5.5 1.3 3.75 1.55" fill="#423f59" fill-rule="evenodd" stroke="none"/>
    <path d="M8.9 4.55 L8.6 5.15 8.2 6.1 Q8.2 6.45 8.85 6.85 L-0.15 6.65 Q-1.05 6.75 -1.1 5.95 L-0.95 5.15 3.35 4.8 3.0 4.8 -0.65 4.95 0.55 3.55 Q2.0 2.05 2.9 1.75 L3.75 1.55 3.55 1.55 Q1.7 1.95 1.25 2.5 L0.25 3.45 Q0.05 0.0 1.35 -1.15 2.15 -1.9 3.3 -2.2 L4.6 -2.35 6.2 -1.65 5.8 -0.25 5.5 1.3 5.45 2.0 Q5.55 2.9 6.0 3.5 L6.1 3.6 Q6.75 4.3 8.4 4.45 L8.9 4.55 8.95 4.4 8.95 4.55 10.7 4.75 11.25 4.9 11.9 5.8 Q12.05 6.5 11.55 6.85 L9.8 7.1 Q7.8 6.75 8.6 5.35 L8.95 4.65 8.95 4.55 8.9 4.55 M6.0 3.5 L5.05 4.2 3.35 4.8 Q4.8 4.7 6.0 3.5 M5.5 1.3 L3.75 1.55" fill="none" stroke="#28323a" stroke-linecap="round" stroke-linejoin="miter-clip" stroke-miterlimit="15.12109375" stroke-width="1.0"/>
    <path d="M-2.35 5.8 L-2.4 4.8 Q-2.5 2.75 -1.9 2.1 -1.3 1.4 -0.1 0.6 L0.95 0.0 1.8 0.5 2.55 1.4 3.0 2.4 Q3.45 3.7 3.5 5.35 3.5 6.9 3.25 6.85 -1.2 7.3 -2.15 6.4 L-2.15 5.8 Q-2.1 5.05 -0.15 3.45 -2.1 5.0 -2.35 5.8 M1.4 2.25 L0.2 3.1 -0.15 3.45 0.2 3.1 1.4 2.25 2.55 1.4 1.4 2.25 -0.15 3.45 1.4 2.25" fill="#605c82" fill-rule="evenodd" stroke="none"/>
    <path d="M-2.35 5.8 L-2.4 4.8 Q-2.5 2.75 -1.9 2.1 -1.3 1.4 -0.1 0.6 L0.95 0.0 1.8 0.5 2.55 1.4 3.0 2.4 Q3.45 3.7 3.5 5.35 3.5 6.9 3.25 6.85 -1.2 7.3 -2.15 6.4 -2.25 6.95 -2.3 6.25 L-2.15 6.4 -2.15 5.8 Q-2.1 5.05 -0.15 3.45 L1.4 2.25 2.55 1.4 M-2.35 5.8 Q-2.1 5.0 -0.15 3.45 L0.2 3.1 1.4 2.25" fill="none" stroke="#443f47" stroke-linecap="round" stroke-linejoin="miter-clip" stroke-miterlimit="15.12109375" stroke-width="1.0"/>
    <path d="M-2.3 6.25 L-2.35 5.8" fill="none" stroke="#443f47" stroke-linecap="butt" stroke-linejoin="miter-clip" stroke-miterlimit="15.12109375" stroke-width="1.0"/>
    <path d="M11.85 7.1 L7.3 6.9 Q6.65 6.8 7.75 5.4 L9.5 3.5 11.1 3.6 12.65 4.4 Q13.15 4.8 13.35 5.95 13.5 7.2 12.8 7.2 L11.85 7.1" fill="#44707e" fill-rule="evenodd" stroke="none"/>
    <path d="M11.85 7.1 L7.3 6.9 Q6.65 6.8 7.75 5.4 L9.5 3.5 11.1 3.6 12.65 4.4 Q13.15 4.8 13.35 5.95 13.5 7.2 12.8 7.2 L11.85 7.1 Z" fill="none" stroke="#364e4a" stroke-linecap="butt" stroke-linejoin="miter-clip" stroke-miterlimit="15.12109375" stroke-width="1.0"/>
    <path d="M6.05 -1.5 L5.8 -0.35 Q5.5 0.85 5.5 1.6 L5.6 3.1 Q5.8 3.8 6.45 3.95 L8.45 4.45 9.35 3.7 9.8 3.3 Q10.35 2.85 10.7 2.95 12.4 3.6 12.7 4.35 L13.1 5.15 Q13.3 5.5 12.85 5.65 L11.95 6.0 10.65 7.0 9.15 7.2 3.25 6.75 -0.1 7.15 -2.35 6.25 Q-2.7 5.9 -2.7 3.7 L-2.0 2.35 -0.95 1.15 0.45 0.15 1.1 -0.9" fill="none" stroke="#000000" stroke-linecap="round" stroke-linejoin="round" stroke-opacity="0.3764706" stroke-width="1.0"/>
  </g>
</svg>
