<?xml version="1.0" encoding="UTF-8" standalone="no"?>
<svg xmlns:ffdec="https://www.free-decompiler.com/flash" xmlns:xlink="http://www.w3.org/1999/xlink" ffdec:objectType="shape" height="19.8px" width="20.7px" xmlns="http://www.w3.org/2000/svg">
  <g transform="matrix(1.0, 0.0, 0.0, 1.0, -38.95, -24.55)">
    <path d="M51.1 32.6 Q50.9 32.4 50.95 32.1 50.95 31.8 51.25 31.6 L50.0 31.1 50.35 29.6 Q48.65 30.35 47.6 32.25 L47.85 30.5 Q47.4 29.85 46.35 29.6 47.55 27.3 48.75 26.1 L49.35 25.6 50.0 25.75 51.05 25.75 52.1 25.75 Q52.65 25.75 53.35 26.25 54.85 27.6 57.75 28.5 L57.0 28.85 57.4 30.0 Q56.1 28.1 53.4 28.05 L53.6 30.0 53.6 30.6 53.0 31.5 Q52.5 32.25 52.85 32.6 52.0 33.25 51.0 32.85 L51.1 32.6 M54.8 33.65 Q55.3 34.05 55.5 33.85 L55.6 33.6 55.7 33.15 55.75 32.75 Q55.85 31.75 55.5 30.85 56.0 30.65 56.25 31.1 L56.25 30.25 57.1 31.6 Q57.4 32.35 58.25 33.1 57.8 33.1 57.3 33.4 56.8 33.7 56.6 34.1 L56.25 34.85 55.25 35.0 Q54.5 35.0 53.85 34.6 L53.75 34.35 53.85 34.1 54.8 33.65 M52.5 37.75 Q52.85 37.65 53.55 38.05 54.2 38.45 54.6 38.25 L55.05 37.65 Q55.35 37.2 55.6 37.1 L56.25 37.35 56.75 37.75 56.8 37.75 Q55.65 38.75 55.0 40.25 54.35 40.75 53.0 40.75 51.6 40.75 51.1 41.35 L50.75 42.0 50.0 42.0 Q48.8 41.4 47.85 39.5 L47.2 37.85 Q46.9 37.0 47.0 36.25 L48.0 36.85 Q48.6 37.3 49.0 37.35 49.7 37.55 50.35 37.35 L51.1 37.1 51.75 36.5 Q51.9 36.1 52.4 35.9 L52.5 37.75" fill="#7f1cde" fill-rule="evenodd" stroke="none"/>
    <path d="M47.35 36.75 L47.3 36.4 Q47.3 35.4 47.7 34.75 L47.85 34.5 Q47.95 34.35 48.1 34.35 L48.6 34.6 50.45 35.6 Q51.45 36.0 51.85 37.0 51.65 37.2 51.1 37.0 L50.35 36.5 Q49.65 36.15 48.85 37.25 48.1 38.2 47.45 38.1 L47.35 38.1 47.35 38.15 Q47.35 40.05 48.2 40.6 L49.2 41.0 Q50.15 41.15 51.2 42.0 48.1 43.05 45.7 42.75 44.05 42.45 43.45 42.0 42.75 41.3 42.2 39.35 42.55 39.8 43.2 39.95 L44.35 39.85 44.35 39.35 45.45 38.6 Q45.65 37.45 47.35 37.25 47.2 37.0 47.35 36.75 M43.05 31.1 L43.4 30.35 Q43.95 29.15 42.7 29.95 41.45 30.7 41.6 29.3 41.55 29.65 39.65 30.4 39.05 30.5 38.95 30.05 38.85 29.55 39.7 28.3 L40.15 27.55 43.05 26.05 Q43.25 25.75 43.65 25.9 L44.25 25.9 Q44.7 25.9 44.95 26.3 L45.9 27.0 48.65 29.0 46.8 28.3 Q46.6 28.1 46.3 28.05 L45.4 27.95 Q44.75 27.95 44.9 28.65 L45.05 29.95 Q45.05 30.6 45.65 31.05 45.15 31.8 44.9 32.8 L44.9 33.35 44.9 33.4 43.05 31.1" fill="#7f1cde" fill-rule="evenodd" stroke="none"/>
    <path d="M39.15 24.9 L40.4 24.55 42.45 24.55 42.45 25.3 45.0 25.3 Q42.0 27.25 45.0 28.35 L45.6 28.35 46.75 29.05 47.95 29.05 47.95 31.4 48.25 32.15 48.65 32.15 50.2 33.8 Q46.75 34.45 51.1 36.85 51.15 37.2 51.65 37.45 L51.65 37.85 52.35 38.0 52.35 38.5 54.2 39.6 53.15 39.6 53.15 39.9 Q46.2 37.95 47.15 44.35 L44.7 43.2 44.7 42.5 46.1 41.15 46.1 39.15 Q50.9 38.85 47.05 36.85 L44.5 36.45 Q47.15 32.85 45.0 29.8 L41.0 29.05 Q38.9 28.1 41.0 26.1 L40.05 26.1 40.05 25.6 39.75 25.6 39.15 24.9" fill="#2b1a3f" fill-rule="evenodd" stroke="none"/>
    <path d="M52.0 25.2 L52.4 24.8 53.4 25.4 53.65 25.4 53.95 25.75 54.4 25.9 54.65 26.2 54.35 26.85 54.45 27.25 56.15 27.3 Q56.6 27.35 56.7 27.8 L56.85 29.6 57.55 30.05 59.4 30.75 58.75 31.7 59.65 32.8 59.65 33.2 Q52.45 32.3 56.0 36.85 L56.45 36.85 56.45 37.1 55.9 37.7 54.0 38.2 54.0 39.05 50.35 42.75 49.75 42.2 46.25 40.75 47.85 40.05 Q51.25 41.25 51.6 38.75 52.9 38.35 51.6 35.4 54.5 35.3 54.35 32.8 L53.2 32.8 53.2 32.45 53.7 31.55 53.9 31.3 57.6 31.4 Q54.4 28.55 53.6 29.75 52.8 30.9 52.35 30.05 L53.55 27.55 52.2 26.15 52.2 25.55 52.05 25.25 52.0 25.2" fill="#2b1a3f" fill-rule="evenodd" stroke="none"/>
  </g>
</svg>
