<?xml version="1.0" encoding="UTF-8" standalone="no"?>
<svg xmlns:ffdec="https://www.free-decompiler.com/flash" xmlns:xlink="http://www.w3.org/1999/xlink" ffdec:objectType="shape" height="10.3px" width="19.2px" xmlns="http://www.w3.org/2000/svg">
  <g transform="matrix(1.0, 0.0, 0.0, 1.0, 9.35, 3.9)">
    <path d="M-5.65 5.5 L-6.95 1.05 Q-7.3 -0.8 -4.65 -1.65 L0.25 -2.5 3.1 -0.8 3.25 0.3 Q3.6 0.95 5.2 1.15 8.95 1.7 7.85 5.65 L-5.65 5.5" fill="#151515" fill-rule="evenodd" stroke="none"/>
    <path d="M-5.65 5.5 L7.85 5.65 Q8.95 1.7 5.2 1.15 3.6 0.95 3.25 0.3 L3.1 -0.8 0.25 -2.5 -4.65 -1.65 Q-7.3 -0.8 -6.95 1.05 L-5.65 5.5 Z" fill="none" stroke="#090808" stroke-linecap="round" stroke-linejoin="round" stroke-width="1.0"/>
    <path d="M-5.3 1.0 Q-5.3 1.6 -4.75 1.65 -3.2 1.8 -2.0 2.85 -0.85 3.85 -1.35 3.95 L-2.75 4.35 -8.55 4.65 Q-9.2 3.7 -8.35 0.7 -7.5 -2.2 -6.65 -2.65 L-5.9 -1.2 -5.2 0.45 -5.3 1.0" fill="#5a5551" fill-rule="evenodd" stroke="none"/>
    <path d="M-5.3 1.0 Q-5.3 1.6 -4.75 1.65 -3.2 1.8 -2.0 2.85 -0.85 3.85 -1.35 3.95 L-2.75 4.35 -8.55 4.65 Q-9.2 3.7 -8.35 0.7 -7.5 -2.2 -6.65 -2.65 L-5.9 -1.2 -5.2 0.45 -5.3 1.0 Z" fill="none" stroke="#3a3733" stroke-linecap="round" stroke-linejoin="round" stroke-width="1.0"/>
    <path d="M2.65 1.3 L2.35 1.6 Q1.0 2.75 -0.05 2.3 L-1.5 1.25 -2.1 0.35 -1.55 -1.7 Q-0.9 -3.4 -0.3 -3.4 0.8 -3.4 2.3 -1.8 L3.55 -0.3 3.45 0.05 3.4 0.4 2.65 1.3 3.4 0.4 3.45 0.05 3.55 -0.3 3.75 -0.45 5.1 -0.7 Q6.5 -0.5 8.1 1.7 8.95 2.45 8.55 4.15 L1.45 4.75 Q0.8 3.95 1.1 3.15 L2.25 1.75 2.65 1.3 M3.45 0.35 L3.4 0.4 3.4 0.55 3.45 0.35 3.6 -0.25 3.55 -0.3 3.6 -0.25 3.45 0.35 3.4 0.55 3.4 0.4 3.45 0.35" fill="#7b756f" fill-rule="evenodd" stroke="none"/>
    <path d="M3.55 -0.3 L2.3 -1.8 Q0.8 -3.4 -0.3 -3.4 -0.9 -3.4 -1.55 -1.7 L-2.1 0.35 -1.5 1.25 -0.05 2.3 Q1.0 2.75 2.35 1.6 L2.65 1.3 3.4 0.4 3.45 0.05 3.55 -0.3 3.75 -0.45 5.1 -0.7 Q6.5 -0.5 8.1 1.7 8.95 2.45 8.55 4.15 L1.45 4.75 Q0.8 3.95 1.1 3.15 L2.25 1.75 2.65 1.3 M3.55 -0.3 L3.6 -0.25 3.45 0.35 3.4 0.55 3.4 0.4 3.45 0.35" fill="none" stroke="#3c3935" stroke-linecap="round" stroke-linejoin="round" stroke-width="1.0"/>
    <path d="M6.85 3.4 L7.6 2.3 8.55 2.3 9.35 3.35 9.2 5.35 8.15 5.9 7.2 5.85 7.0 5.7 6.3 5.7 6.1 5.9 5.3 5.9 5.1 5.7 4.3 5.7 4.05 5.85 3.3 5.85 3.0 5.7 2.45 5.65 2.2 5.85 1.4 5.85 1.05 5.65 0.8 5.65 0.9 4.3 5.1 4.35 5.4 3.5 6.85 3.4" fill="#4b4943" fill-rule="evenodd" stroke="none"/>
    <path d="M6.85 3.4 L5.4 3.5 5.1 4.35 0.9 4.3 0.8 5.65 1.05 5.65 1.4 5.85 2.2 5.85 2.45 5.65 3.0 5.7 3.3 5.85 4.05 5.85 4.3 5.7 5.1 5.7 5.3 5.9 6.1 5.9 6.3 5.7 7.0 5.7 7.2 5.85 8.15 5.9 9.2 5.35 9.35 3.35 8.55 2.3 7.6 2.3 6.85 3.4 Z" fill="none" stroke="#2c2927" stroke-linecap="round" stroke-linejoin="round" stroke-width="1.0"/>
    <path d="M-3.55 5.6 L-3.8 5.85 -4.7 5.8 -5.0 5.5 -5.65 5.5 -6.0 5.8 -7.75 5.6 -8.65 4.15 0.45 4.2 0.7 4.35 0.65 5.85 -2.25 5.8 -2.45 5.6 -3.55 5.6" fill="#4b4943" fill-rule="evenodd" stroke="none"/>
    <path d="M-3.55 5.6 L-3.8 5.85 -4.7 5.8 -5.0 5.5 -5.65 5.5 -6.0 5.8 -7.75 5.6 -8.65 4.15 0.45 4.2 0.7 4.35 0.65 5.85 -2.25 5.8 -2.45 5.6 -3.55 5.6 Z" fill="none" stroke="#2c2927" stroke-linecap="round" stroke-linejoin="round" stroke-width="1.0"/>
  </g>
</svg>
