<?xml version="1.0" encoding="UTF-8" standalone="no"?>
<svg xmlns:xlink="http://www.w3.org/1999/xlink" height="20.95px" width="17.3px" xmlns="http://www.w3.org/2000/svg">
  <g transform="matrix(1.0, 0.0, 0.0, 1.0, 7.35, 14.95)">
    <path d="M8.15 -1.1 L7.95 0.35 Q7.8 1.9 3.05 0.8 L-1.05 -0.45 Q-2.65 -1.1 -3.2 -2.1 -4.35 -4.25 -3.05 -8.1 -1.8 -11.9 6.75 -10.5 7.65 -9.8 7.85 -7.3 7.95 -6.35 8.2 -5.85 L8.5 -5.35 9.0 -4.75 Q9.7 -4.15 9.35 -3.5 L8.85 -3.2 8.45 -2.9 8.15 -1.75 7.05 -1.7 8.15 -1.1 M5.35 -5.2 L6.35 -5.4 5.6 -6.25 4.35 -6.1 Q4.6 -5.25 5.35 -5.2 M6.05 -7.25 L4.1 -7.45 6.05 -7.25" fill="url(#gradient0)" fill-rule="evenodd" stroke="none"/>
    <path d="M6.35 -5.4 L5.35 -5.2 Q5.1 -5.8 5.6 -6.25 L6.35 -5.4" fill="#000000" fill-rule="evenodd" stroke="none"/>
    <path d="M8.15 -1.1 L7.05 -1.7 8.15 -1.75 8.15 -1.1" fill="#c88d53" fill-rule="evenodd" stroke="none"/>
    <path d="M5.6 -6.25 Q5.1 -5.8 5.35 -5.2 4.6 -5.25 4.35 -6.1 L5.6 -6.25" fill="#60b7db" fill-rule="evenodd" stroke="none"/>
    <path d="M8.15 -1.75 L8.45 -2.9 8.85 -3.2 9.35 -3.5 Q9.7 -4.15 9.0 -4.75 L8.5 -5.35 8.2 -5.85 Q7.95 -6.35 7.85 -7.3 7.65 -9.8 6.75 -10.5 -1.8 -11.9 -3.05 -8.1 -4.35 -4.25 -3.2 -2.1 -2.65 -1.1 -1.05 -0.45 L3.05 0.8 Q7.8 1.9 7.95 0.35 L8.15 -1.1" fill="none" stroke="#795128" stroke-linecap="round" stroke-linejoin="round" stroke-width="1.0"/>
    <path d="M5.35 -5.2 L6.35 -5.4 M5.35 -5.2 Q4.6 -5.25 4.35 -6.1" fill="none" stroke="#3e3528" stroke-linecap="round" stroke-linejoin="round" stroke-width="0.5"/>
    <path d="M8.15 -1.1 L7.05 -1.7 8.15 -1.75 8.15 -1.1" fill="none" stroke="#873d5b" stroke-linecap="round" stroke-linejoin="round" stroke-width="1.0"/>
    <path d="M4.1 -7.45 L6.05 -7.25" fill="none" stroke="#705132" stroke-linecap="round" stroke-linejoin="round" stroke-width="0.5"/>
    <path d="M6.35 -5.4 L5.6 -6.25 4.35 -6.1" fill="none" stroke="#723a78" stroke-linecap="round" stroke-linejoin="round" stroke-width="0.5"/>
    <path d="M5.7 -9.25 Q5.25 -12.0 4.35 -12.35 5.25 -12.0 5.7 -9.25 M5.3 -13.3 Q9.05 -12.55 8.6 -8.15 L7.25 -9.55 6.5 -8.05 Q5.8 -8.65 5.0 -8.6 3.65 -6.05 4.15 -1.3 4.6 3.45 5.5 5.5 L3.4 4.3 1.6 -6.95 1.9 3.7 Q-3.5 3.35 -6.6 1.35 -5.9 -1.35 -6.5 -4.65 -7.05 -8.0 -6.7 -10.3 -6.45 -12.55 -4.95 -13.65 -3.4 -14.8 -1.8 -14.3 2.3 -14.45 5.3 -13.3 M-5.3 -7.7 Q-5.35 -10.65 -4.1 -12.4 -5.35 -10.65 -5.3 -7.7 M-4.2 -6.15 Q-4.65 -9.1 -4.05 -10.45 -4.65 -9.1 -4.2 -6.15 M-3.3 1.45 Q-2.85 0.6 -2.8 -1.3 -2.85 0.6 -3.3 1.45 M-0.15 -0.5 Q-1.4 -8.4 0.15 -11.95 -1.4 -8.4 -0.15 -0.5" fill="#000000" fill-rule="evenodd" stroke="none"/>
    <path d="M5.3 -13.3 Q2.3 -14.45 -1.8 -14.3 -3.4 -14.8 -4.95 -13.65 -6.45 -12.55 -6.7 -10.3 -7.05 -8.0 -6.5 -4.65 -5.9 -1.35 -6.6 1.35 -3.5 3.35 1.9 3.7 L1.6 -6.95 3.4 4.3 5.5 5.5 Q4.6 3.45 4.15 -1.3 3.65 -6.05 5.0 -8.6 5.8 -8.65 6.5 -8.05 L7.25 -9.55 8.6 -8.15 Q9.05 -12.55 5.3 -13.3" fill="none" stroke="#000000" stroke-linecap="round" stroke-linejoin="round" stroke-opacity="0.7019608" stroke-width="1.0"/>
    <path d="M4.35 -12.35 Q5.25 -12.0 5.7 -9.25 M-4.05 -10.45 Q-4.65 -9.1 -4.2 -6.15 M-4.1 -12.4 Q-5.35 -10.65 -5.3 -7.7 M0.15 -11.95 Q-1.4 -8.4 -0.15 -0.5" fill="none" stroke="#171e35" stroke-linecap="round" stroke-linejoin="round" stroke-width="1.0"/>
    <path d="M-2.8 -1.3 Q-2.85 0.6 -3.3 1.45" fill="none" stroke="#101023" stroke-linecap="round" stroke-linejoin="round" stroke-width="1.0"/>
  </g>
  <defs>
    <radialGradient cx="0" cy="0" gradientTransform="matrix(0.0071, 8.0E-4, -0.0011, 0.0096, 6.65, -1.65)" gradientUnits="userSpaceOnUse" id="gradient0" r="819.2" spreadMethod="pad">
      <stop offset="0.6901960784313725" stop-color="#c88d53"/>
      <stop offset="1.0" stop-color="#86592d"/>
    </radialGradient>
  </defs>
</svg>
