<?xml version="1.0" encoding="UTF-8" standalone="no"?>
<svg xmlns:ffdec="https://www.free-decompiler.com/flash" xmlns:xlink="http://www.w3.org/1999/xlink" ffdec:objectType="shape" height="8.8px" width="18.0px" xmlns="http://www.w3.org/2000/svg">
  <g transform="matrix(1.0, 0.0, 0.0, 1.0, 10.4, 0.9)">
    <path d="M-3.15 7.2 L-7.3 6.95 -9.6 6.95 Q-10.15 6.0 -9.65 2.45 -9.55 1.8 -8.4 1.35 -7.15 0.9 -6.95 0.3 -6.7 0.05 -6.9 -0.2 L-5.75 -0.35 -0.25 -0.15 Q3.4 0.3 4.75 1.35 6.7 2.55 7.05 4.25 7.25 5.3 6.8 7.35 L-3.15 7.3 -3.15 7.2 -3.0 6.2 -2.75 4.9 -2.65 3.85 Q-2.6 2.85 -4.05 1.35 -5.35 -0.05 -5.75 -0.1 L-4.4 1.3 Q-2.9 2.95 -2.8 3.95 L-2.75 4.9 -3.0 6.2 -3.15 7.2 -2.85 6.15 -2.75 4.9 -2.85 6.15 -3.15 7.2" fill="url(#gradient0)" fill-rule="evenodd" stroke="none"/>
    <path d="M-3.15 7.2 L-3.15 7.3 6.8 7.35 Q7.25 5.3 7.05 4.25 6.7 2.55 4.75 1.35 3.4 0.3 -0.25 -0.15 L-5.75 -0.35 -6.9 -0.2 Q-6.7 0.05 -6.95 0.3 -7.15 0.9 -8.4 1.35 -9.55 1.8 -9.65 2.45 -10.15 6.0 -9.6 6.95 L-7.3 6.95 -3.15 7.2 -3.0 6.2 -2.75 4.9 -2.8 3.95 Q-2.9 2.95 -4.4 1.3 L-5.75 -0.1 Q-5.35 -0.05 -4.05 1.35 -2.6 2.85 -2.65 3.85 L-2.75 4.9 -2.85 6.15 -3.15 7.2 Z" fill="none" stroke="#171718" stroke-linecap="round" stroke-linejoin="round" stroke-width="1.0"/>
  </g>
  <defs>
    <radialGradient cx="0" cy="0" gradientTransform="matrix(0.0129, 3.0E-4, 0.0, 0.027, 0.7, 4.1)" gradientUnits="userSpaceOnUse" id="gradient0" r="819.2" spreadMethod="pad">
      <stop offset="0.0" stop-color="#28282a"/>
      <stop offset="1.0" stop-color="#545459"/>
    </radialGradient>
  </defs>
</svg>
