<?xml version="1.0" encoding="UTF-8" standalone="no"?>
<svg xmlns:ffdec="https://www.free-decompiler.com/flash" xmlns:xlink="http://www.w3.org/1999/xlink" ffdec:objectType="shape" height="10.75px" width="44.7px" xmlns="http://www.w3.org/2000/svg">
  <g transform="matrix(1.0, 0.0, 0.0, 1.0, -29.25, -29.25)">
    <path d="M40.8 34.65 L40.8 34.6 40.9 34.65 40.8 34.65" fill="#690bf5" fill-rule="evenodd" stroke="none"/>
    <path d="M37.05 33.9 L37.3 33.9 38.45 33.25 37.75 31.95 33.9 32.1 Q37.7 29.45 41.45 29.25 39.9 30.0 38.65 31.0 L40.8 33.7 40.8 34.6 40.8 34.65 40.8 34.85 40.75 35.45 39.95 36.2 39.95 36.45 39.95 37.8 41.7 39.0 Q39.2 40.5 33.9 39.7 L31.05 37.95 Q34.65 38.55 38.35 37.95 L38.35 35.65 36.35 35.65 37.05 33.9" fill="#272727" fill-rule="evenodd" stroke="none"/>
    <path d="M37.05 33.9 L36.35 35.65 29.25 35.65 29.25 34.3 30.65 33.1 33.0 33.1 33.65 33.9 37.05 33.9" fill="#101010" fill-rule="evenodd" stroke="none"/>
    <path d="M40.4 36.2 L40.85 35.6 40.95 34.85 40.95 33.5 39.95 32.3 42.85 30.95 Q43.5 31.45 46.15 32.1 L48.7 32.4 49.2 32.4 67.45 32.4 Q69.0 33.05 71.35 32.4 69.2 34.2 66.35 34.6 L46.6 34.6 Q42.95 35.0 40.4 36.2" fill="url(#gradient0)" fill-rule="evenodd" stroke="none"/>
    <path d="M71.35 32.4 L73.95 31.45 Q67.95 37.45 60.9 38.9 L64.1 36.2 49.2 36.2 Q44.35 36.45 42.7 37.75 L39.95 36.45 40.4 36.2 Q42.95 35.0 46.6 34.6 L66.35 34.6 Q69.2 34.2 71.35 32.4" fill="url(#gradient1)" fill-rule="evenodd" stroke="none"/>
  </g>
  <defs>
    <radialGradient cx="0" cy="0" gradientTransform="matrix(0.0195, 0.0, 0.0, 0.0195, 55.6, 33.6)" gradientUnits="userSpaceOnUse" id="gradient0" r="819.2" spreadMethod="pad">
      <stop offset="0.0" stop-color="#252525"/>
      <stop offset="1.0" stop-color="#0b0b0b"/>
    </radialGradient>
    <linearGradient gradientTransform="matrix(0.0208, 0.0, 0.0, 0.0045, 56.9, 35.1)" gradientUnits="userSpaceOnUse" id="gradient1" spreadMethod="pad" x1="-819.2" x2="819.2">
      <stop offset="0.0" stop-color="#ab00ff"/>
      <stop offset="1.0" stop-color="#5800ff"/>
    </linearGradient>
  </defs>
</svg>
