<?xml version="1.0" encoding="UTF-8" standalone="no"?>
<svg xmlns:ffdec="https://www.free-decompiler.com/flash" xmlns:xlink="http://www.w3.org/1999/xlink" ffdec:objectType="shape" height="10.9px" width="15.25px" xmlns="http://www.w3.org/2000/svg">
  <g transform="matrix(1.0, 0.0, 0.0, 1.0, 7.95, 2.25)">
    <path d="M-7.5 3.3 L-7.15 1.75 Q-7.1 1.65 -6.55 1.95 -5.95 2.25 -5.6 2.75 L-4.55 4.45 -4.1 5.25 Q-4.0 5.0 -4.4 4.35 L-5.3 2.7 -6.05 2.15 -6.8 1.5 Q-5.0 -1.15 -2.7 -1.65 -0.6 -2.15 1.2 -0.65 L4.25 2.2 5.15 3.5 Q5.5 4.45 4.85 4.65 L-6.65 5.6 Q-7.45 4.3 -7.5 3.3" fill="#2f3030" fill-rule="evenodd" stroke="none"/>
    <path d="M-7.5 3.3 L-7.15 1.75 Q-7.1 1.65 -6.55 1.95 -5.95 2.25 -5.6 2.75 L-4.55 4.45 -4.1 5.25 Q-4.0 5.0 -4.4 4.35 L-5.3 2.7 -6.05 2.15 -6.8 1.5 Q-5.0 -1.15 -2.7 -1.65 -0.6 -2.15 1.2 -0.65 L4.25 2.2 5.15 3.5 Q5.5 4.45 4.85 4.65 L-6.65 5.6 Q-7.45 4.3 -7.5 3.3 Z" fill="none" stroke="#212121" stroke-linecap="butt" stroke-linejoin="miter-clip" stroke-miterlimit="11.33984375" stroke-width="0.9500000000000001"/>
    <path d="M-5.6 5.8 L-4.9 3.45 -2.95 3.45 -3.8 5.5 -2.6 3.05 0.55 2.95 Q1.85 2.9 2.75 1.85 L3.4 0.75 3.75 0.8 4.65 1.1 Q5.35 1.55 5.85 2.65 L5.15 2.9 Q4.75 3.05 3.95 4.35 L3.2 5.6 -5.6 5.8" fill="url(#gradient0)" fill-rule="evenodd" stroke="none"/>
    <path d="M-5.6 5.8 L3.2 5.6 3.95 4.35 Q4.75 3.05 5.15 2.9 L5.85 2.65 Q5.35 1.55 4.65 1.1 L3.75 0.8 3.4 0.75 2.75 1.85 Q1.85 2.9 0.55 2.95 L-2.6 3.05 -3.8 5.5 -2.95 3.45 -4.9 3.45 -5.6 5.8 Z" fill="none" stroke="#553f1e" stroke-linecap="round" stroke-linejoin="round" stroke-width="0.9500000000000001"/>
    <path d="M6.0 2.65 L6.8 5.5 3.3 5.6 Q3.75 4.4 4.3 3.7 4.65 3.25 5.3 2.95 L6.0 2.65" fill="#898c93" fill-rule="evenodd" stroke="none"/>
    <path d="M6.0 2.65 L6.8 5.5 3.3 5.6 Q3.75 4.4 4.3 3.7 4.65 3.25 5.3 2.95 L6.0 2.65 Z" fill="none" stroke="#383838" stroke-linecap="round" stroke-linejoin="round" stroke-width="0.9500000000000001"/>
    <path d="M-5.35 4.95 L-5.45 5.65 6.8 5.4 Q6.0 2.2 5.1 1.4 4.55 0.9 3.85 0.8 L3.3 0.75" fill="none" stroke="#010100" stroke-linecap="round" stroke-linejoin="round" stroke-opacity="0.1882353" stroke-width="0.9500000000000001"/>
  </g>
  <defs>
    <radialGradient cx="0" cy="0" gradientTransform="matrix(0.0179, -1.0E-4, 0.0, 0.015, -10.9, 8.15)" gradientUnits="userSpaceOnUse" id="gradient0" r="819.2" spreadMethod="pad">
      <stop offset="0.0" stop-color="#7c3b18"/>
      <stop offset="1.0" stop-color="#ccaa22"/>
    </radialGradient>
  </defs>
</svg>
