<?xml version="1.0" encoding="UTF-8" standalone="no"?>
<svg xmlns:ffdec="https://www.free-decompiler.com/flash" xmlns:xlink="http://www.w3.org/1999/xlink" ffdec:objectType="shape" height="19.45px" width="21.85px" xmlns="http://www.w3.org/2000/svg">
  <g transform="matrix(1.0, 0.0, 0.0, 1.0, -56.0, -23.4)">
    <path d="M73.4 34.6 L73.3 34.5 Q73.2 34.4 73.25 34.55 L73.4 34.6 73.35 34.7 72.85 34.75 Q71.85 34.9 71.15 35.9 L70.85 36.8 70.8 36.85 70.0 38.1 Q69.3 39.45 69.2 41.25 L68.9 42.2 Q68.65 42.6 67.95 42.45 L66.95 41.85 Q66.3 41.05 66.15 40.05 66.0 39.05 66.5 38.1 L67.6 39.4 69.55 34.8 70.0 33.75 70.1 32.65 Q70.05 32.0 69.4 31.4 L68.3 30.45 Q68.75 30.0 68.85 29.2 68.9 28.45 68.6 27.8 68.3 27.05 66.8 25.7 65.45 24.55 65.2 23.4 68.0 24.65 70.75 26.4 L70.5 26.4 Q70.1 26.4 69.85 26.7 L72.6 31.35 70.75 31.65 Q71.55 31.6 72.4 32.25 L73.65 33.5 Q74.4 34.25 75.2 34.5 76.2 34.8 76.8 34.25 76.15 34.9 75.05 35.05 74.05 35.1 73.4 34.6" fill="#7f1cde" fill-rule="evenodd" stroke="none"/>
    <path d="M64.35 41.85 L64.2 41.9 Q65.1 41.65 65.85 40.85 64.3 40.0 62.1 40.0 L60.1 40.1 Q57.7 40.1 56.0 38.25 56.7 37.65 58.9 37.9 61.0 38.1 61.75 37.25 61.5 34.7 61.75 32.25 L60.35 31.5 61.0 30.6 60.5 30.35 56.35 30.85 Q56.1 30.35 57.25 29.75 58.15 29.35 59.2 28.15 L61.0 26.35 Q62.7 25.25 64.75 25.85 66.75 26.45 67.6 28.25 66.25 28.8 66.0 31.85 66.0 34.95 64.5 35.6 L65.85 40.0 Q68.0 40.0 69.35 38.85 L70.85 39.0 Q68.75 39.95 67.35 41.5 L66.65 42.25 65.75 42.85 64.75 42.65 Q64.3 42.3 64.35 41.85" fill="#7f1cde" fill-rule="evenodd" stroke="none"/>
    <path d="M59.5 39.45 L58.7 39.25 Q64.0 38.8 61.3 37.5 L61.5 37.55 61.65 37.55 63.3 37.05 63.9 36.65 63.95 36.5 63.6 36.45 63.8 36.2 Q66.05 34.75 61.1 32.65 L61.15 32.55 61.0 32.2 62.45 32.5 62.5 32.0 62.85 31.95 62.9 31.85 63.25 31.9 62.8 31.45 63.15 30.9 63.3 30.7 63.9 29.75 63.35 29.7 64.4 28.9 Q62.5 29.9 59.2 28.9 60.4 28.1 61.1 28.0 61.8 27.95 62.1 28.5 62.45 29.1 63.9 28.35 65.3 27.55 65.75 27.75 L67.7 28.35 66.95 28.45 66.45 28.8 64.4 31.35 65.5 31.6 64.65 32.35 Q63.65 33.7 65.2 33.85 L67.15 34.2 67.55 35.55 69.0 35.55 67.6 35.75 68.5 39.4 64.0 38.7 63.25 39.0 62.1 39.3 62.05 40.0 61.45 39.85 60.9 40.7 58.65 40.5 58.05 40.35 57.9 40.55 56.45 40.55 59.5 39.45" fill="#2b1a3f" fill-rule="evenodd" stroke="none"/>
    <path d="M68.4 29.95 L67.2 29.65 70.8 28.85 Q69.95 29.15 69.95 29.95 70.3 32.05 72.55 30.5 L74.1 30.35 Q73.9 30.5 72.85 31.2 L73.5 31.3 72.55 32.15 Q72.9 32.5 72.8 33.35 72.6 34.25 72.85 34.55 73.3 35.0 74.45 34.55 L77.85 33.0 Q75.35 34.55 73.2 36.4 73.55 36.4 73.7 36.8 72.2 38.55 70.6 38.7 L67.6 38.5 Q70.3 37.8 71.8 35.7 71.85 30.8 67.65 35.75 68.2 34.45 69.55 32.85 L68.0 32.35 68.2 31.95 67.45 31.55 68.4 29.95" fill="#2b1a3f" fill-rule="evenodd" stroke="none"/>
  </g>
</svg>
