<?xml version="1.0" encoding="UTF-8" standalone="no"?>
<svg xmlns:ffdec="https://www.free-decompiler.com/flash" xmlns:xlink="http://www.w3.org/1999/xlink" ffdec:objectType="shape" height="22.25px" width="24.0px" xmlns="http://www.w3.org/2000/svg">
  <g transform="matrix(1.0, 0.0, 0.0, 1.0, 11.95, 15.15)">
    <path d="M6.75 2.2 Q7.0 2.2 7.85 2.55 L8.85 3.2 9.3 4.2 Q9.55 5.05 9.1 5.1 3.65 5.35 0.0 4.25 -1.8 3.75 -3.75 2.4 L-5.6 1.25 Q-6.6 1.4 -7.4 0.55 -8.2 -0.3 -7.65 -0.8 L-6.35 -1.95 Q-5.5 -2.9 -5.3 -4.55 L-4.8 -8.95 -0.55 -8.35 -0.15 -6.05 Q0.55 -3.3 1.85 -0.9 3.15 1.45 4.95 2.05 L6.75 2.2" fill="#7e6a3d" fill-rule="evenodd" stroke="none"/>
    <path d="M6.75 2.2 Q7.0 2.2 7.85 2.55 L8.85 3.2 9.3 4.2 Q9.55 5.05 9.1 5.1 3.65 5.35 0.0 4.25 -1.8 3.75 -3.75 2.4 L-5.6 1.25 Q-6.6 1.4 -7.4 0.55 -8.2 -0.3 -7.65 -0.8 L-6.35 -1.95 Q-5.5 -2.9 -5.3 -4.55 L-4.8 -8.95 -0.55 -8.35 -0.15 -6.05 Q0.55 -3.3 1.85 -0.9 3.15 1.45 4.95 2.05 L6.75 2.2 Z" fill="none" stroke="#4f4735" stroke-linecap="round" stroke-linejoin="round" stroke-width="1.0"/>
    <path d="M-8.4 -2.15 L-3.6 -2.4 Q-3.15 1.5 -4.3 2.15 L-8.75 5.05 -9.9 0.85 -8.4 -2.15" fill="#70644a" fill-rule="evenodd" stroke="none"/>
    <path d="M-8.4 -2.15 L-3.6 -2.4 Q-3.15 1.5 -4.3 2.15 L-8.75 5.05 -9.9 0.85 -8.4 -2.15 Z" fill="none" stroke="#453d29" stroke-linecap="butt" stroke-linejoin="miter-clip" stroke-miterlimit="4.0" stroke-width="1.0"/>
    <path d="M6.35 0.9 Q5.05 2.8 3.3 2.75 L1.45 2.4 0.8 2.0 -3.25 1.35 -5.15 -2.35 -5.45 -4.35 -1.7 -8.35 2.3 -8.4 2.65 -4.85 Q3.15 -1.2 3.85 -0.45 5.0 0.75 6.35 0.9" fill="#826b39" fill-rule="evenodd" stroke="none"/>
    <path d="M6.35 0.9 Q5.05 2.8 3.3 2.75 L1.45 2.4 0.8 2.0 -3.25 1.35 -5.15 -2.35 -5.45 -4.35 -1.7 -8.35 2.3 -8.4 2.65 -4.85 Q3.15 -1.2 3.85 -0.45 5.0 0.75 6.35 0.9 Z" fill="none" stroke="#59503b" stroke-linecap="round" stroke-linejoin="round" stroke-width="1.0"/>
    <path d="M1.9 2.5 L3.0 1.2 Q4.2 -0.05 4.7 -0.1 L6.05 0.05 7.0 0.65 5.45 2.45 Q4.85 3.15 3.95 3.55 L2.0 3.2 1.9 2.5" fill="#f0c468" fill-rule="evenodd" stroke="none"/>
    <path d="M1.9 2.5 L3.0 1.2 Q4.2 -0.05 4.7 -0.1 L6.05 0.05 7.0 0.65 5.45 2.45 Q4.85 3.15 3.95 3.55 L2.0 3.2 1.9 2.5 Z" fill="none" stroke="#453d29" stroke-linecap="round" stroke-linejoin="round" stroke-width="1.0"/>
    <path d="M9.75 6.45 L6.05 6.3 1.9 5.75 Q1.1 5.45 1.1 4.65 L1.3 2.35 Q3.85 -2.0 7.5 -0.15 11.15 1.6 9.75 6.45" fill="#bc9d58" fill-rule="evenodd" stroke="none"/>
    <path d="M9.75 6.45 L6.05 6.3 1.9 5.75 Q1.1 5.45 1.1 4.65 L1.3 2.35 Q3.85 -2.0 7.5 -0.15 11.15 1.6 9.75 6.45 Z" fill="none" stroke="#4f4735" stroke-linecap="butt" stroke-linejoin="miter-clip" stroke-miterlimit="4.0" stroke-width="1.0"/>
    <path d="M6.8 6.4 Q6.95 3.8 8.95 3.35 11.0 2.85 11.55 6.35 L6.8 6.4" fill="#f0c468" fill-rule="evenodd" stroke="none"/>
    <path d="M6.8 6.4 L11.55 6.35 Q11.0 2.85 8.95 3.35 6.95 3.8 6.8 6.4 Z" fill="none" stroke="#4f4735" stroke-linecap="round" stroke-linejoin="round" stroke-width="1.0"/>
    <path d="M-6.2 4.6 Q-6.25 5.2 -7.3 5.3 -9.75 5.55 -11.0 4.85 -11.5 4.6 -11.45 4.1 L-11.2 3.15 -10.2 1.75 -9.75 1.85 -8.0 1.95 Q-7.35 2.1 -6.95 2.55 -6.1 3.95 -6.2 4.6" fill="#d3b367" fill-rule="evenodd" stroke="none"/>
    <path d="M-6.2 4.6 Q-6.25 5.2 -7.3 5.3 -9.75 5.55 -11.0 4.85 -11.5 4.6 -11.45 4.1 L-11.2 3.15 -10.2 1.75 -9.75 1.85 -8.0 1.95 Q-7.35 2.1 -6.95 2.55 -6.1 3.95 -6.2 4.6 Z" fill="none" stroke="#4f4735" stroke-linecap="butt" stroke-linejoin="miter-clip" stroke-miterlimit="4.0" stroke-width="1.0"/>
    <path d="M-4.65 -5.35 L-2.0 -8.1" fill="none" stroke="#564a32" stroke-linecap="round" stroke-linejoin="round" stroke-width="1.0"/>
    <path d="M-3.8 0.65 L1.85 1.75 4.45 3.55 6.2 6.35" fill="none" stroke="#453d29" stroke-linecap="butt" stroke-linejoin="miter-clip" stroke-miterlimit="4.0" stroke-opacity="0.47058824" stroke-width="1.0"/>
    <path d="M-8.05 -5.65 L-6.55 -4.85 -6.2 -3.35 -6.65 -1.6 -7.4 -1.15 -9.75 -0.75 -10.3 -2.35 -9.45 -5.05 -8.05 -5.65" fill="#4f79a1" fill-rule="evenodd" stroke="none"/>
    <path d="M-8.05 -5.65 L-9.45 -5.05 -10.3 -2.35 -9.75 -0.75 -7.4 -1.15 -6.65 -1.6 -6.2 -3.35 -6.55 -4.85 -8.05 -5.65 Z" fill="none" stroke="#252c4a" stroke-linecap="round" stroke-linejoin="round" stroke-width="1.0"/>
    <path d="M-0.25 -11.15 L-0.15 -10.45 -0.45 -7.7 Q-0.45 -7.1 -1.65 -6.3 L-3.6 -5.7 -6.0 -7.4 -5.5 -12.1 -4.5 -13.4 Q-4.15 -13.8 -3.35 -14.0 L-2.15 -14.25 -0.85 -13.25 0.1 -12.3 Q0.35 -12.25 0.1 -11.75 L-0.25 -11.15" fill="#91815b" fill-rule="evenodd" stroke="none"/>
    <path d="M-0.05 -11.6 Q0.1 -12.35 0.55 -12.5 L2.85 -12.65 Q4.3 -12.55 5.0 -11.9 L5.75 -11.35 5.95 -10.5 Q6.15 -9.4 5.65 -7.25 5.15 -5.05 5.25 -3.9 L4.25 -4.15 3.05 -4.2 1.95 -4.0 0.55 -4.1 Q0.2 -4.15 -0.95 -4.85 L-2.0 -5.5 -1.65 -6.5 -0.2 -10.4 -0.05 -11.6" fill="#d0ba63" fill-rule="evenodd" stroke="none"/>
    <path d="M-7.9 -7.35 Q-7.65 -7.3 -6.75 -8.2 L-5.8 -9.0 -5.1 -7.05 Q-4.95 -6.6 -3.6 -6.45 L-1.65 -6.0 Q-1.0 -5.4 -2.75 -3.7 -4.25 -3.75 -6.0 -2.35 L-8.05 -5.55 -7.9 -7.35" fill="#cfac5d" fill-rule="evenodd" stroke="none"/>
    <path d="M-7.9 -7.35 L-8.05 -5.55 -6.0 -2.35 Q-4.25 -3.75 -2.75 -3.7 -1.0 -5.4 -1.65 -6.0 L-3.6 -6.45 Q-4.95 -6.6 -5.1 -7.05 L-5.8 -9.0 -6.75 -8.2 Q-7.65 -7.3 -7.9 -7.35 Z" fill="none" stroke="#63573b" stroke-linecap="round" stroke-linejoin="round" stroke-width="1.0"/>
    <path d="M5.45 -6.2 L7.2 -4.1 Q7.6 -3.8 8.25 -1.95 L8.8 -0.1 7.35 -0.15 5.8 -0.25 2.65 0.4 Q-5.3 -2.75 -1.2 -6.4 -0.55 -5.35 1.55 -5.15 3.85 -4.85 5.45 -6.2" fill="#dec68f" fill-rule="evenodd" stroke="none"/>
    <path d="M5.45 -6.2 Q3.85 -4.85 1.55 -5.15 -0.55 -5.35 -1.2 -6.4 -5.3 -2.75 2.65 0.4 L5.8 -0.25 7.35 -0.15 8.8 -0.1 8.25 -1.95 Q7.6 -3.8 7.2 -4.1 L5.45 -6.2 Z" fill="none" stroke="#5a4e3c" stroke-linecap="butt" stroke-linejoin="miter-clip" stroke-miterlimit="4.0" stroke-width="1.0"/>
    <path d="M4.1 -3.1 L2.4 -2.75" fill="none" stroke="#9e9059" stroke-linecap="round" stroke-linejoin="round" stroke-width="1.0"/>
    <path d="M-0.55 -3.75 Q0.2 -3.35 0.95 -3.05" fill="none" stroke="#9e9059" stroke-linecap="round" stroke-linejoin="round" stroke-width="1.0"/>
    <path d="M4.45 -13.4 L5.1 -12.75 5.9 -11.85 6.25 -10.7 6.25 -9.95 6.1 -8.75 Q5.5 -6.65 5.95 -5.75" fill="none" stroke="#5a4e3c" stroke-linecap="round" stroke-linejoin="miter-clip" stroke-miterlimit="4.0" stroke-width="1.0"/>
    <path d="M-4.9 -6.7 L-5.65 -8.8 -5.65 -11.5 Q-5.15 -13.0 -4.45 -13.2 L-2.45 -14.65" fill="none" stroke="#63573b" stroke-linecap="round" stroke-linejoin="round" stroke-width="1.0"/>
    <path d="M-0.45 -5.8 Q-1.0 -5.95 -1.0 -6.8 L-0.8 -8.5 0.15 -12.65" fill="none" stroke="#695f48" stroke-linecap="round" stroke-linejoin="round" stroke-width="1.0"/>
  </g>
</svg>
