<?xml version="1.0" encoding="UTF-8" standalone="no"?>
<svg xmlns:ffdec="https://www.free-decompiler.com/flash" xmlns:xlink="http://www.w3.org/1999/xlink" ffdec:objectType="shape" height="16.7px" width="23.9px" xmlns="http://www.w3.org/2000/svg">
  <g transform="matrix(1.0, 0.0, 0.0, 1.0, 7.65, 7.25)">
    <path d="M5.35 -4.15 Q5.85 -3.35 5.75 -3.1 5.6 -1.75 6.3 -0.25 L6.55 0.3 6.8 0.9 6.45 1.7 7.6 2.45 7.75 2.8 7.6 3.2 5.55 4.05 2.65 4.85 0.9 4.5 -1.95 3.65 -2.5 3.0 -2.35 2.4 -3.25 1.8 -3.6 1.6 -3.75 1.2 -2.75 0.25 Q-2.35 -0.25 -2.25 -0.95 -2.25 -1.55 -1.15 -2.3 L0.0 -3.05 0.9 -3.9 1.75 -5.75 2.15 -6.5 2.3 -6.5 Q4.5 -5.45 5.35 -4.15" fill="#d27e02" fill-rule="evenodd" stroke="none"/>
    <path d="M-4.2 1.3 L-3.05 0.35 Q-2.45 -0.25 -2.45 -0.85 -2.45 -1.7 -0.8 -2.65 0.8 -3.65 0.95 -4.45 L2.0 -6.8 Q5.4 -5.2 5.9 -3.2 5.7 -2.25 6.1 -1.05 L7.15 1.1" fill="none" stroke="#653d01" stroke-linecap="round" stroke-linejoin="round" stroke-width="0.9500000000000001"/>
    <path d="M-0.35 2.45 L1.6 1.15 2.2 0.55 2.3 0.55 5.85 1.15 6.2 1.15 6.5 1.3 6.5 1.75 7.25 2.25 7.8 2.7 7.65 3.2 4.65 4.35 2.6 4.85 -0.5 4.15 -1.95 3.65 -2.5 3.1 -2.25 2.6 -1.2 2.65 -0.35 2.45" fill="#252525" fill-rule="evenodd" stroke="none"/>
    <path d="M-2.55 3.8 L-2.15 3.9 0.4 4.65 Q0.55 4.6 0.7 4.8 L0.7 5.15 0.35 5.2 -0.1 5.2 -0.45 5.85 -0.6 6.2 -0.85 6.45 -2.9 5.8 -3.05 5.55 -2.8 5.25 -2.6 5.0 -2.65 4.65 -2.65 4.25 -2.55 3.8" fill="url(#gradient0)" fill-rule="evenodd" stroke="none"/>
    <path d="M-3.25 5.7 L-3.05 6.05 -2.65 6.15 -0.3 6.7 M-2.55 3.45 L-2.0 3.85 3.7 5.3" fill="none" stroke="#050505" stroke-linecap="round" stroke-linejoin="round" stroke-width="0.9500000000000001"/>
    <path d="M-0.5 6.75 L0.05 5.55 1.85 5.3 Q5.15 4.7 7.75 3.4 L8.2 2.55 7.5 2.05 7.05 1.75 6.9 1.35 8.6 0.0 8.7 -0.05 9.4 0.55 10.1 1.0 10.85 1.35 Q13.7 2.35 14.75 5.1 L15.65 8.35 15.5 8.65 15.15 8.7 0.2 7.1 Q-0.5 7.15 -0.5 6.75" fill="#252525" fill-rule="evenodd" stroke="none"/>
    <path d="M-0.3 6.3 Q8.45 6.2 15.5 8.15" fill="none" stroke="#030303" stroke-linecap="round" stroke-linejoin="round" stroke-opacity="0.9764706" stroke-width="0.9500000000000001"/>
    <path d="M-0.15 5.4 Q3.45 5.3 7.75 3.25 L8.05 2.5 6.6 1.65 6.85 1.15 8.8 -0.3 9.9 0.85 Q12.85 1.7 14.3 3.9 15.35 5.5 15.8 8.35 L15.65 9.0 Q6.55 7.55 -0.95 7.2 -0.45 6.5 -0.15 5.4 Z" fill="none" stroke="#050505" stroke-linecap="round" stroke-linejoin="round" stroke-width="0.9500000000000001"/>
    <path d="M-4.6 0.95 L-4.45 0.95 -3.35 2.15 -2.95 2.4 Q-2.8 2.5 -2.8 2.7 L-3.0 4.75 Q-2.95 5.0 -3.35 5.35 L-3.65 5.85 -3.7 6.2 -3.8 6.6 -4.85 6.5 -5.3 6.45 -5.7 6.2 Q-5.75 5.55 -6.65 5.6 L-6.95 5.4 -7.0 5.0 -6.4 3.9 -6.0 2.4 -6.0 1.9 -5.75 1.55 Q-4.75 0.9 -4.6 0.95" fill="#252525" fill-rule="evenodd" stroke="none"/>
    <path d="M-5.2 1.0 L-6.15 1.65 Q-5.9 3.45 -7.2 4.95 L-7.05 5.75 -6.1 5.85 Q-5.8 5.95 -5.75 6.55 L-3.25 6.8 -3.55 6.25 -3.5 5.65 -2.8 5.05 Q-2.9 3.4 -2.5 2.45 -3.95 1.7 -4.4 0.6 L-5.2 1.0 Z" fill="none" stroke="#050505" stroke-linecap="round" stroke-linejoin="round" stroke-width="0.9500000000000001"/>
    <path d="M-2.35 2.4 L-1.2 2.5 0.5 1.9 2.05 0.4 6.85 1.15" fill="none" stroke="#050505" stroke-linecap="round" stroke-linejoin="round" stroke-width="0.9500000000000001"/>
  </g>
  <defs>
    <linearGradient gradientTransform="matrix(0.0, 0.0013, -0.0013, 0.0, -1.15, 5.2)" gradientUnits="userSpaceOnUse" id="gradient0" spreadMethod="pad" x1="-819.2" x2="819.2">
      <stop offset="0.0" stop-color="#797979"/>
      <stop offset="0.5294117647058824" stop-color="#e4e4e4"/>
      <stop offset="1.0" stop-color="#6f6f6f"/>
    </linearGradient>
  </defs>
</svg>
