<?xml version="1.0" encoding="UTF-8" standalone="no"?>
<svg xmlns:ffdec="https://www.free-decompiler.com/flash" xmlns:xlink="http://www.w3.org/1999/xlink" ffdec:objectType="shape" height="12.95px" width="24.2px" xmlns="http://www.w3.org/2000/svg">
  <g transform="matrix(1.0, 0.0, 0.0, 1.0, 8.1, 5.45)">
    <path d="M-5.65 -1.55 L-6.55 -1.85 Q-6.75 -2.4 -6.2 -3.6 L-4.3 -4.95 1.95 -4.6 Q4.05 -2.1 5.35 -1.6 L8.75 -1.3 9.25 -2.3 Q11.8 -1.2 12.15 1.0 8.0 0.6 5.3 4.7 L5.05 4.7 1.2 4.55 Q-0.6 3.85 -2.95 3.75 L-4.85 3.8 -7.25 4.8 Q-7.85 4.3 -7.45 3.0 L-7.35 2.6 -6.2 1.95 -4.15 1.95 -3.8 -1.55 -5.65 -1.55 M13.75 2.7 Q15.95 4.15 15.55 5.8 15.1 7.4 9.4 6.85 L9.4 5.15 Q10.75 2.35 13.75 2.7 M-0.2 -2.5 L-2.25 1.1 -0.2 -2.5 M2.1 -2.4 L0.0 0.95 2.1 -2.4 M2.05 2.0 L4.25 2.1 8.75 -1.3 4.25 2.1 2.05 2.0" fill="#760101" fill-rule="evenodd" stroke="none"/>
    <path d="M12.15 1.0 Q12.45 1.7 13.75 2.7 10.75 2.35 9.4 5.15 L5.05 4.7 5.3 4.7 Q8.0 0.6 12.15 1.0" fill="#202020" fill-rule="evenodd" stroke="none"/>
    <path d="M9.4 6.85 L-5.0 6.85 Q-6.45 6.55 -6.45 5.8 -6.55 5.0 -7.25 4.8 L-4.85 3.8 -2.95 3.75 Q-0.6 3.85 1.2 4.55 L5.05 4.7 9.4 5.15 9.4 6.85" fill="#333333" fill-rule="evenodd" stroke="none"/>
    <path d="M-6.2 1.95 Q-6.15 0.05 -5.65 -1.55 L-3.8 -1.55 -4.15 1.95 -6.2 1.95" fill="#4b0101" fill-rule="evenodd" stroke="none"/>
    <path d="M-5.65 -1.55 L-6.55 -1.85 Q-6.75 -2.4 -6.2 -3.6 L-4.3 -4.95 1.95 -4.6 Q4.05 -2.1 5.35 -1.6 L8.75 -1.3 9.25 -2.3 Q11.8 -1.2 12.15 1.0 8.0 0.6 5.3 4.7 L5.05 4.7 1.2 4.55 Q-0.6 3.85 -2.95 3.75 L-4.85 3.8 -7.25 4.8 Q-7.85 4.3 -7.45 3.0 L-7.35 2.6 -6.2 1.95 -4.15 1.95 -3.8 -1.55 -5.65 -1.55 M13.75 2.7 Q15.95 4.15 15.55 5.8 15.1 7.4 9.4 6.85 M9.4 5.15 Q10.75 2.35 13.75 2.7 M8.75 -1.3 L4.25 2.1 2.05 2.0 M0.0 0.95 L2.1 -2.4 M-2.25 1.1 L-0.2 -2.5" fill="none" stroke="#2b0000" stroke-linecap="round" stroke-linejoin="round" stroke-width="1.0"/>
    <path d="M12.15 1.0 Q12.45 1.7 13.75 2.7 M9.4 6.85 L-5.0 6.85 Q-6.45 6.55 -6.45 5.8 -6.55 5.0 -7.25 4.8 M5.05 4.7 L9.4 5.15 9.4 6.85" fill="none" stroke="#151515" stroke-linecap="round" stroke-linejoin="round" stroke-width="1.0"/>
    <path d="M-6.2 1.95 Q-6.15 0.05 -5.65 -1.55" fill="none" stroke="#290101" stroke-linecap="round" stroke-linejoin="round" stroke-width="1.0"/>
  </g>
</svg>
