<?xml version="1.0" encoding="UTF-8" standalone="no"?>
<svg xmlns:ffdec="https://www.free-decompiler.com/flash" xmlns:xlink="http://www.w3.org/1999/xlink" ffdec:objectType="shape" height="8.5px" width="17.6px" xmlns="http://www.w3.org/2000/svg">
  <g transform="matrix(1.0, 0.0, 0.0, 1.0, 9.8, 0.05)">
    <path d="M1.25 3.75 Q1.5 4.2 2.55 4.3 L3.75 3.95 Q6.45 4.8 7.4 6.5 L7.0 8.05 -0.9 8.05 -1.7 7.1 -3.8 7.1 -4.8 8.05 -9.1 7.75 Q-9.4 7.6 -9.4 6.65 L-9.35 5.75 -8.85 5.0 -7.95 5.0 -6.2 1.6 -0.4 1.5 1.25 3.75" fill="#2c2c2c" fill-rule="evenodd" stroke="none"/>
    <path d="M1.25 3.75 Q1.5 4.2 2.55 4.3 L3.75 3.95 Q6.45 4.8 7.4 6.5 L7.0 8.05 -0.9 8.05 -1.7 7.1 -3.8 7.1 -4.8 8.05 -9.1 7.75 Q-9.4 7.6 -9.4 6.65 L-9.35 5.75 -8.85 5.0 -7.95 5.0 -6.2 1.6 -0.4 1.5 1.25 3.75 Z" fill="none" stroke="#0b0b0b" stroke-linecap="round" stroke-linejoin="round" stroke-width="0.8500000000000001"/>
    <path d="M-5.05 2.2 L-3.05 0.35 -0.65 2.3 Q-0.55 4.2 -0.7 4.85 -1.1 6.2 -2.75 7.1 L-4.8 5.9 Q-5.9 4.7 -5.05 2.2" fill="#2b2b2b" fill-rule="evenodd" stroke="none"/>
    <path d="M-5.05 2.2 Q-5.9 4.7 -4.8 5.9 L-2.75 7.1 Q-1.1 6.2 -0.7 4.85 -0.55 4.2 -0.65 2.3 L-3.05 0.35 -5.05 2.2 Z" fill="none" stroke="#0b0b0b" stroke-linecap="round" stroke-linejoin="round" stroke-width="0.8500000000000001"/>
    <path d="M-7.9 5.2 L-7.2 6.05 -4.75 6.9 -4.1 6.75" fill="none" stroke="#0b0b0b" stroke-linecap="round" stroke-linejoin="round" stroke-width="0.6000000000000001"/>
    <path d="M-1.0 5.8 L1.55 5.5 2.35 4.5 M1.55 5.5 L4.65 7.75" fill="none" stroke="#0b0b0b" stroke-linecap="round" stroke-linejoin="round" stroke-width="0.6000000000000001"/>
    <path d="M3.75 4.2 L4.2 5.15 Q5.15 6.25 7.0 6.7" fill="none" stroke="#7d7d7d" stroke-linecap="round" stroke-linejoin="round" stroke-width="0.6000000000000001"/>
  </g>
</svg>
