<?xml version="1.0" encoding="UTF-8" standalone="no"?>
<svg xmlns:ffdec="https://www.free-decompiler.com/flash" xmlns:xlink="http://www.w3.org/1999/xlink" ffdec:objectType="shape" height="11.75px" width="45.7px" xmlns="http://www.w3.org/2000/svg">
  <g transform="matrix(1.0, 0.0, 0.0, 1.0, -28.75, -28.75)">
    <path d="M39.95 36.45 L39.95 36.2 40.75 35.45 40.8 34.85 40.8 33.7 39.8 32.45 38.65 31.0 Q39.9 30.0 41.45 29.25 37.7 29.45 33.9 32.1 L37.75 31.95 38.45 33.25 37.3 33.9 37.05 33.9 36.35 35.65 38.35 35.65 38.35 37.95 Q34.65 38.55 31.05 37.95 L33.9 39.7 Q39.2 40.5 41.7 39.0 L39.95 37.8 39.95 36.45 42.7 37.75 Q44.35 36.45 49.2 36.2 L64.1 36.2 60.9 38.9 Q67.0 37.65 72.3 33.0 L73.95 31.45 72.3 32.1 71.35 32.4 Q69.0 33.05 67.45 32.4 L49.2 32.4 48.7 32.4 46.15 32.1 Q43.5 31.45 42.85 30.95 L39.8 32.45 M37.05 33.9 L33.65 33.9 33.0 33.1 30.65 33.1 29.25 34.3 29.25 35.65 36.35 35.65" fill="none" stroke="#000000" stroke-linecap="round" stroke-linejoin="round" stroke-width="1.0"/>
  </g>
</svg>
