<?xml version="1.0" encoding="UTF-8" standalone="no"?>
<svg xmlns:xlink="http://www.w3.org/1999/xlink" height="18.55px" width="22.55px" xmlns="http://www.w3.org/2000/svg">
  <g transform="matrix(1.0, 0.0, 0.0, 1.0, 10.5, 13.85)">
    <path d="M-0.05 -13.15 L2.5 -13.05 Q4.35 -12.9 7.95 -11.15 L9.75 -10.05 5.4 -9.9 Q3.4 -9.9 0.95 -8.65 L0.7 -8.9 Q-0.55 -9.05 -2.5 -9.7 -4.6 -10.35 -5.6 -10.9 L-2.2 -11.7 -0.05 -13.15 M3.05 -11.7 L4.0 -10.95 3.05 -11.7 M1.1 -11.8 L2.3 -10.95 1.1 -11.8" fill="url(#gradient0)" fill-rule="evenodd" stroke="none"/>
    <path d="M5.4 -9.9 Q6.45 -9.2 7.25 -7.4 8.4 -4.65 7.2 -1.65 L6.95 -1.6 Q6.25 -1.1 5.8 -1.05 L4.6 -1.65 3.55 -1.25 2.45 -2.65 0.75 -4.3 0.75 -5.9 -0.1 -6.95 0.95 -8.65 Q3.4 -9.9 5.4 -9.9" fill="url(#gradient1)" fill-rule="evenodd" stroke="none"/>
    <path d="M0.7 -8.9 L0.95 -8.65 -0.1 -6.95 -0.55 -6.95 0.7 -8.9 M0.55 -3.95 L0.75 -4.3 2.45 -2.65 3.55 -1.25 3.3 -1.15 2.05 -2.7 0.55 -3.95" fill="#1e1e1e" fill-rule="evenodd" stroke="none"/>
    <path d="M-0.1 -6.95 L0.75 -5.9 0.75 -4.3 0.55 -3.95 -0.55 -3.0 Q-0.95 -2.4 -1.55 -2.4 -3.55 -2.4 -5.0 -3.75 -6.45 -5.15 -6.05 -6.65 L-4.6 -6.65 -2.7 -5.85 -2.25 -5.7 -0.55 -6.95 -0.1 -6.95" fill="url(#gradient2)" fill-rule="evenodd" stroke="none"/>
    <path d="M3.3 -0.9 L4.8 -0.9 5.4 -0.75 8.8 1.1 8.95 2.25 8.5 2.75 7.5 1.9 Q6.45 1.05 4.05 0.65 L0.6 0.8 Q-1.5 1.55 -5.7 -0.75 L-6.2 -0.75 -6.0 -2.2 -1.85 -0.75 3.3 -0.9" fill="#626262" fill-rule="evenodd" stroke="none"/>
    <path d="M-9.45 -1.45 L-9.7 -1.3 -9.9 -1.45 -10.0 -2.25 -9.9 -4.7 -8.95 -4.7 Q-8.3 -3.35 -7.85 -3.15 L-9.45 -1.45 M5.8 -1.05 Q6.25 -1.1 6.95 -1.6 L8.5 -0.4 7.1 -1.15 Q7.95 0.05 8.55 -0.35 L8.8 1.1 5.4 -0.75 5.8 -1.05 M3.3 -1.15 L3.3 -0.9 -1.85 -0.75 2.05 -2.7 3.3 -1.15" fill="#848484" fill-rule="evenodd" stroke="none"/>
    <path d="M-8.95 -4.7 L-8.95 -7.65 -7.0 -8.0 -5.6 -10.9 Q-4.6 -10.35 -2.5 -9.7 -0.55 -9.05 0.7 -8.9 L-0.55 -6.95 -2.25 -5.7 -2.7 -5.85 -4.6 -6.65 -6.05 -6.65 Q-6.45 -5.15 -5.0 -3.75 -3.55 -2.4 -1.55 -2.4 -0.95 -2.4 -0.55 -3.0 L0.55 -3.95 2.05 -2.7 -1.85 -0.75 -6.0 -2.2 -7.85 -3.15 Q-8.3 -3.35 -8.95 -4.7" fill="url(#gradient3)" fill-rule="evenodd" stroke="none"/>
    <path d="M7.2 -1.65 L9.3 -1.5 10.6 -0.2 11.05 1.15 10.2 1.1 Q10.35 2.65 9.85 3.2 L9.9 3.35 9.85 3.4 Q8.95 3.45 7.75 2.85 L7.5 1.9 8.5 2.75 8.95 2.25 8.8 1.1 8.55 -0.35 8.5 -0.4 6.95 -1.6 7.2 -1.65 M-7.85 -0.5 L-8.95 -0.75 Q-9.45 -1.05 -9.45 -1.45 L-7.85 -3.15 -6.0 -2.2 -6.2 -0.75 -5.7 -0.75 -6.05 -0.3 -6.8 -0.35 -7.35 -0.75 -7.45 -1.9 -7.85 -3.15 -7.45 -1.9 -7.35 -0.75 -7.85 -0.5 M9.85 3.2 L9.85 3.4 9.85 3.2" fill="#4b4b4b" fill-rule="evenodd" stroke="none"/>
    <path d="M8.55 -0.35 Q7.95 0.05 7.1 -1.15 L8.5 -0.4 8.55 -0.35" fill="#7c7c7c" fill-rule="evenodd" stroke="none"/>
    <path d="M-7.95 -11.8 L-4.9 -12.85 -0.05 -13.15 -2.2 -11.7 Q-3.35 -12.25 -7.95 -11.8" fill="#a2a2a2" fill-rule="evenodd" stroke="none"/>
    <path d="M-8.95 -7.65 L-9.0 -7.95 Q-9.55 -9.65 -9.0 -11.8 L-7.95 -11.8 Q-3.35 -12.25 -2.2 -11.7 L-5.6 -10.9 -7.0 -8.0 -8.95 -7.65" fill="url(#gradient4)" fill-rule="evenodd" stroke="none"/>
    <path d="M11.05 1.15 L11.05 1.8 11.55 2.15 Q11.55 2.95 11.2 3.6 10.85 4.2 10.35 4.2 L9.9 3.35 9.85 3.2 Q10.35 2.65 10.2 1.1 L11.05 1.15 M-7.15 0.1 L-7.85 -0.5 -7.35 -0.75 -6.8 -0.35 -7.15 0.1" fill="#2b2b29" fill-rule="evenodd" stroke="none"/>
    <path d="M-1.3 2.75 Q-5.45 1.7 -7.15 0.1 L-6.8 -0.35 -6.05 -0.3 -5.7 -0.75 Q-1.5 1.55 0.6 0.8 L1.45 2.55 -1.3 2.75" fill="#737373" fill-rule="evenodd" stroke="none"/>
    <path d="M10.35 4.2 L10.3 4.2 9.85 3.4 9.9 3.35 10.35 4.2" fill="#383838" fill-rule="evenodd" stroke="none"/>
    <path d="M8.15 3.65 L6.9 3.6 5.65 3.1 5.4 3.1 3.45 2.7 1.45 2.55 0.6 0.8 4.05 0.65 Q6.45 1.05 7.5 1.9 L7.75 2.85 8.15 3.65" fill="#6f6f6f" fill-rule="evenodd" stroke="none"/>
    <path d="M10.3 4.2 L8.15 3.65 7.75 2.85 Q8.95 3.45 9.85 3.4 L10.3 4.2" fill="#454545" fill-rule="evenodd" stroke="none"/>
    <path d="M5.4 3.1 L4.0 3.3 1.45 2.55 3.45 2.7 5.4 3.1" fill="#334132" fill-rule="evenodd" stroke="none"/>
    <path d="M4.0 3.3 L-1.3 2.75 1.45 2.55 4.0 3.3" fill="#3f4833" fill-rule="evenodd" stroke="none"/>
    <path d="M-0.05 -13.15 L2.5 -13.05 Q4.35 -12.9 7.95 -11.15 L9.75 -10.05 5.4 -9.9 Q3.4 -9.9 0.95 -8.65 L-0.1 -6.95 -0.55 -6.95 -2.25 -5.7 -2.7 -5.85 -4.6 -6.65 -6.05 -6.65 Q-6.45 -5.15 -5.0 -3.75 -3.55 -2.4 -1.55 -2.4 -0.95 -2.4 -0.55 -3.0 L0.55 -3.95 0.75 -4.3 2.45 -2.65 3.55 -1.25 4.6 -1.65 5.8 -1.05 Q6.25 -1.1 6.95 -1.6 L7.2 -1.65 9.3 -1.5 10.6 -0.2 11.05 1.15 11.05 1.8 11.55 2.15 Q11.55 2.95 11.2 3.6 10.85 4.2 10.35 4.2 L10.3 4.2 8.15 3.65 6.9 3.6 5.65 3.1 5.4 3.1 4.0 3.3 -1.3 2.75 Q-5.45 1.7 -7.15 0.1 L-7.85 -0.5 -8.95 -0.75 Q-9.45 -1.05 -9.45 -1.45 L-9.7 -1.3 -9.9 -1.45 -10.0 -2.25 -9.9 -4.7 -8.95 -4.7 -8.95 -7.65 -9.0 -7.95 Q-9.55 -9.65 -9.0 -11.8 L-7.95 -11.8 -4.9 -12.85 -0.05 -13.15 -2.2 -11.7 -5.6 -10.9 Q-4.6 -10.35 -2.5 -9.7 -0.55 -9.05 0.7 -8.9 L0.95 -8.65 M2.3 -10.95 L1.1 -11.8 M4.0 -10.95 L3.05 -11.7 M0.75 -4.3 L0.75 -5.9 -0.1 -6.95 M3.3 -0.9 L4.8 -0.9 4.6 -1.65 M3.55 -1.25 L3.3 -1.15 3.3 -0.9 -1.85 -0.75 -6.0 -2.2 -6.2 -0.75 -5.7 -0.75 Q-1.5 1.55 0.6 0.8 L4.05 0.65 Q6.45 1.05 7.5 1.9 L8.5 2.75 8.95 2.25 8.8 1.1 5.4 -0.75 4.8 -0.9 M0.55 -3.95 L2.05 -2.7 3.3 -1.15 M5.8 -1.05 L5.4 -0.75 M8.55 -0.35 Q7.95 0.05 7.1 -1.15 L8.5 -0.4 6.95 -1.6 M8.5 -0.4 L8.55 -0.35 8.8 1.1 M11.05 1.15 L10.2 1.1 Q10.35 2.65 9.85 3.2 L9.9 3.35 10.35 4.2 M9.85 3.4 L9.85 3.2 M9.9 3.35 L9.85 3.4 10.3 4.2 M7.75 2.85 Q8.95 3.45 9.85 3.4 M7.5 1.9 L7.75 2.85 8.15 3.65 M0.6 0.8 L1.45 2.55 3.45 2.7 5.4 3.1 M1.45 2.55 L4.0 3.3 M-5.6 -10.9 L-7.0 -8.0 -8.95 -7.65 M-8.95 -4.7 Q-8.3 -3.35 -7.85 -3.15 L-6.0 -2.2 M-7.35 -0.75 L-7.45 -1.9 -7.85 -3.15 -9.45 -1.45 M-5.7 -0.75 L-6.05 -0.3 -6.8 -0.35 -7.15 0.1 M-7.35 -0.75 L-6.8 -0.35 M-7.85 -0.5 L-7.35 -0.75 M-7.95 -11.8 Q-3.35 -12.25 -2.2 -11.7 M-1.85 -0.75 L2.05 -2.7 M-0.55 -6.95 L0.7 -8.9 M1.45 2.55 L-1.3 2.75" fill="none" stroke="#3c3c3c" stroke-linecap="round" stroke-linejoin="round" stroke-opacity="0.99215686" stroke-width="1.0"/>
    <path d="M5.4 -9.9 Q6.45 -9.2 7.25 -7.4 8.4 -4.65 7.2 -1.65" fill="none" stroke="#000000" stroke-linecap="round" stroke-linejoin="round" stroke-width="1.0"/>
  </g>
  <defs>
    <linearGradient gradientTransform="matrix(0.0019, -0.0043, 0.0086, 0.0037, 1.1, -10.1)" gradientUnits="userSpaceOnUse" id="gradient0" spreadMethod="pad" x1="-819.2" x2="819.2">
      <stop offset="0.0" stop-color="#c4c4c4"/>
      <stop offset="0.21176470588235294" stop-color="#848484"/>
      <stop offset="1.0" stop-color="#d0d0d0"/>
    </linearGradient>
    <radialGradient cx="0" cy="0" gradientTransform="matrix(0.0099, 0.0, 0.0, 0.0099, -0.6, -4.55)" gradientUnits="userSpaceOnUse" id="gradient1" r="819.2" spreadMethod="pad">
      <stop offset="0.0" stop-color="#000000"/>
      <stop offset="0.8509803921568627" stop-color="#262626"/>
      <stop offset="1.0" stop-color="#6a6a6a"/>
    </radialGradient>
    <linearGradient gradientTransform="matrix(0.0, -0.0052, 0.0028, 0.0, -3.05, -2.75)" gradientUnits="userSpaceOnUse" id="gradient2" spreadMethod="pad" x1="-819.2" x2="819.2">
      <stop offset="0.0" stop-color="#c4c4c4"/>
      <stop offset="0.21176470588235294" stop-color="#848484"/>
      <stop offset="1.0" stop-color="#d0d0d0"/>
    </linearGradient>
    <linearGradient gradientTransform="matrix(0.0091, 0.0, 0.0, 0.0062, -2.55, -6.55)" gradientUnits="userSpaceOnUse" id="gradient3" spreadMethod="pad" x1="-819.2" x2="819.2">
      <stop offset="0.0" stop-color="#c4c4c4"/>
      <stop offset="0.21176470588235294" stop-color="#848484"/>
      <stop offset="1.0" stop-color="#d0d0d0"/>
    </linearGradient>
    <linearGradient gradientTransform="matrix(0.0026, 0.0045, -0.0023, 0.0013, -7.45, -11.2)" gradientUnits="userSpaceOnUse" id="gradient4" spreadMethod="pad" x1="-819.2" x2="819.2">
      <stop offset="0.0" stop-color="#c4c4c4"/>
      <stop offset="0.21176470588235294" stop-color="#848484"/>
      <stop offset="1.0" stop-color="#d0d0d0"/>
    </linearGradient>
  </defs>
</svg>
