<?xml version="1.0" encoding="UTF-8" standalone="no"?>
<svg xmlns:ffdec="https://www.free-decompiler.com/flash" xmlns:xlink="http://www.w3.org/1999/xlink" ffdec:objectType="shape" height="14.3px" width="20.7px" xmlns="http://www.w3.org/2000/svg">
  <g transform="matrix(1.0, 0.0, 0.0, 1.0, 8.15, 5.35)">
    <path d="M10.4 8.45 L0.65 7.25 -0.5 5.1 -2.6 4.8 -4.2 6.7 -6.85 6.35 -7.65 3.8 -4.65 -3.3 -2.25 -4.85 3.05 -2.75 9.25 3.0 12.05 7.55 10.4 8.45" fill="#202020" fill-rule="evenodd" stroke="none"/>
    <path d="M10.4 8.45 L0.65 7.25 -0.5 5.1 -2.6 4.8 -4.2 6.7 -6.85 6.35 -7.65 3.8 -4.65 -3.3 -2.25 -4.85 3.05 -2.75 9.25 3.0 12.05 7.55 10.4 8.45 Z" fill="none" stroke="#131313" stroke-linecap="round" stroke-linejoin="round" stroke-width="1.0"/>
    <path d="M-7.65 3.8 L-4.2 4.25 -2.9 2.5 -4.25 -0.75 -3.1 -2.25 2.15 -0.15 3.75 3.6 7.95 5.3 10.2 4.4" fill="none" stroke="#343434" stroke-linecap="round" stroke-linejoin="round" stroke-width="1.0"/>
  </g>
</svg>
