<?xml version="1.0" encoding="UTF-8" standalone="no"?>
<svg xmlns:xlink="http://www.w3.org/1999/xlink" height="18.55px" width="22.55px" xmlns="http://www.w3.org/2000/svg">
  <g transform="matrix(1.0, 0.0, 0.0, 1.0, 10.5, 13.85)">
    <path d="M3.8 -6.45 L1.85 -6.65 3.8 -6.45 M2.1 -5.3 Q2.35 -4.45 3.1 -4.4 L4.1 -4.6 3.35 -5.45 2.1 -5.3 M5.9 -0.3 L5.7 1.15 Q5.55 2.7 0.8 1.6 L-3.3 0.35 Q-4.9 -0.3 -5.45 -1.3 -6.6 -3.45 -5.3 -7.3 -4.05 -11.1 4.5 -9.7 5.4 -9.0 5.6 -6.5 5.7 -5.55 5.95 -5.05 L6.25 -4.55 6.75 -3.95 Q7.45 -3.35 7.1 -2.7 L6.6 -2.4 6.2 -2.1 5.9 -0.95 4.8 -0.9 5.9 -0.3" fill="url(#gradient0)" fill-rule="evenodd" stroke="none"/>
    <path d="M3.1 -4.4 Q2.35 -4.45 2.1 -5.3 L3.35 -5.45 Q2.85 -5.0 3.1 -4.4" fill="#60b7db" fill-rule="evenodd" stroke="none"/>
    <path d="M3.1 -4.4 Q2.85 -5.0 3.35 -5.45 L4.1 -4.6 3.1 -4.4" fill="#000000" fill-rule="evenodd" stroke="none"/>
    <path d="M5.9 -0.3 L4.8 -0.9 5.9 -0.95 5.9 -0.3" fill="#c88d53" fill-rule="evenodd" stroke="none"/>
    <path d="M1.85 -6.65 L3.8 -6.45" fill="none" stroke="#705132" stroke-linecap="round" stroke-linejoin="round" stroke-width="0.5"/>
    <path d="M2.1 -5.3 Q2.35 -4.45 3.1 -4.4 L4.1 -4.6" fill="none" stroke="#3e3528" stroke-linecap="round" stroke-linejoin="round" stroke-width="0.5"/>
    <path d="M3.35 -5.45 L2.1 -5.3 M4.1 -4.6 L3.35 -5.45" fill="none" stroke="#723a78" stroke-linecap="round" stroke-linejoin="round" stroke-width="0.5"/>
    <path d="M5.9 -0.3 L4.8 -0.9 5.9 -0.95 5.9 -0.3" fill="none" stroke="#873d5b" stroke-linecap="round" stroke-linejoin="round" stroke-width="1.0"/>
    <path d="M5.9 -0.95 L6.2 -2.1 6.6 -2.4 7.1 -2.7 Q7.45 -3.35 6.75 -3.95 L6.25 -4.55 5.95 -5.05 Q5.7 -5.55 5.6 -6.5 5.4 -9.0 4.5 -9.7 -4.05 -11.1 -5.3 -7.3 -6.6 -3.45 -5.45 -1.3 -4.9 -0.3 -3.3 0.35 L0.8 1.6 Q5.55 2.7 5.7 1.15 L5.9 -0.3" fill="none" stroke="#795128" stroke-linecap="round" stroke-linejoin="round" stroke-width="1.0"/>
    <path d="M-7.95 -11.8 L-4.9 -12.85 -1.1 -13.3 -0.05 -13.15 2.75 -12.9 4.2 -12.6 2.75 -11.5 2.35 -9.95 3.3 -8.5 1.9 -8.5 1.3 -7.8 -1.3 -7.35 -1.55 -6.95 Q-2.45 -6.2 -3.25 -6.2 L-3.6 -6.3 -3.7 -6.35 -4.6 -6.65 -6.05 -6.65 Q-6.5 -5.15 -5.5 -4.0 -4.5 -2.9 -2.55 -2.9 L-1.55 -3.2 -0.45 -3.95 Q1.45 -3.5 2.2 -2.9 L-1.85 -0.75 -4.2 -1.8 -6.5 -2.7 -7.85 -3.15 Q-8.3 -3.35 -8.95 -4.7 L-8.95 -7.65 -7.0 -8.0 -5.6 -10.9 -7.95 -11.8 M-1.1 -13.3 Q-3.55 -12.95 -3.6 -6.3 -3.55 -12.95 -1.1 -13.3" fill="url(#gradient1)" fill-rule="evenodd" stroke="none"/>
    <path d="M4.2 -12.6 Q5.55 -12.85 7.45 -11.75 9.35 -10.65 10.15 -8.65 L7.25 -7.85 4.5 -7.95 3.3 -8.5 2.35 -9.95 2.75 -11.5 4.2 -12.6 M-9.45 -1.45 L-9.7 -1.3 -9.9 -1.45 -10.0 -2.25 -9.9 -4.7 -8.95 -4.7 Q-8.3 -3.35 -7.85 -3.15 L-9.45 -1.45 M-8.95 -7.65 L-9.0 -7.95 Q-9.55 -9.65 -9.4 -10.85 L-7.95 -11.8 -5.6 -10.9 -7.0 -8.0 -8.95 -7.65" fill="#161b1d" fill-rule="evenodd" stroke="none"/>
    <path d="M7.25 -7.85 Q8.4 -4.65 7.85 -1.6 L6.95 -1.6 Q6.25 -1.1 5.8 -1.05 L3.3 -1.15 2.45 -2.65 2.2 -2.9 Q1.45 -3.5 -0.45 -3.95 L-0.25 -5.9 Q-0.9 -7.0 -1.3 -7.35 L1.3 -7.8 1.9 -8.5 3.3 -8.5 4.5 -7.95 7.25 -7.85" fill="url(#gradient2)" fill-rule="evenodd" stroke="none"/>
    <path d="M3.3 -1.15 L3.3 -0.9 -1.85 -0.75 2.2 -2.9 3.3 -1.15" fill="#29435e" fill-rule="evenodd" stroke="none"/>
    <path d="M2.2 -2.9 L2.45 -2.65 3.3 -1.15 2.2 -2.9" fill="#1e1e1e" fill-rule="evenodd" stroke="none"/>
    <path d="M3.3 -0.9 L4.8 -0.9 5.4 -0.75 8.8 1.1 8.95 2.25 8.5 2.75 7.5 1.9 Q6.45 1.05 4.05 0.65 L0.6 0.8 Q-1.5 1.55 -5.7 -0.75 L-6.2 -0.75 -6.5 -2.7 -4.2 -1.8 -1.85 -0.75 3.3 -0.9" fill="#242f39" fill-rule="evenodd" stroke="none"/>
    <path d="M7.85 -1.6 L9.3 -1.5 10.6 -0.2 11.05 1.15 10.2 1.1 Q10.35 2.65 9.85 3.2 L9.85 3.4 Q8.95 3.45 7.75 2.85 L7.5 1.9 8.5 2.75 8.95 2.25 8.8 1.1 8.55 -0.35 8.5 -0.4 6.95 -1.6 7.85 -1.6" fill="#17232d" fill-rule="evenodd" stroke="none"/>
    <path d="M8.55 -0.35 Q7.95 0.05 7.1 -1.15 L8.5 -0.4 8.55 -0.35" fill="#7c7c7c" fill-rule="evenodd" stroke="none"/>
    <path d="M5.8 -1.05 Q6.25 -1.1 6.95 -1.6 L8.5 -0.4 7.1 -1.15 Q7.95 0.05 8.55 -0.35 L8.8 1.1 5.4 -0.75 5.8 -1.05" fill="#18293b" fill-rule="evenodd" stroke="none"/>
    <path d="M-7.85 -0.5 L-8.95 -0.75 Q-9.45 -1.05 -9.45 -1.45 L-7.85 -3.15 -6.5 -2.7 -6.2 -0.75 -5.7 -0.75 -6.05 -0.3 -7.85 -0.5 -7.35 -0.75 -7.45 -1.9 -7.85 -3.15 -7.45 -1.9 -7.35 -0.75 -7.85 -0.5 M-1.3 -7.35 Q-0.9 -7.0 -0.25 -5.9 L-0.45 -3.95 -1.55 -3.2 -2.55 -2.9 Q-4.5 -2.9 -5.5 -4.0 -6.5 -5.15 -6.05 -6.65 L-4.6 -6.65 -3.7 -6.35 -3.6 -6.3 -3.25 -6.2 Q-2.45 -6.2 -1.55 -6.95 L-1.3 -7.35" fill="#152026" fill-rule="evenodd" stroke="none"/>
    <path d="M8.15 3.65 L6.9 3.6 5.65 3.1 5.4 3.1 3.45 2.7 1.45 2.55 0.6 0.8 4.05 0.65 Q6.45 1.05 7.5 1.9 L7.75 2.85 8.15 3.65 M-1.3 2.75 Q-5.45 1.7 -7.15 0.1 L-7.85 -0.5 -6.05 -0.3 -5.7 -0.75 Q-1.5 1.55 0.6 0.8 L1.45 2.55 -1.3 2.75" fill="#273847" fill-rule="evenodd" stroke="none"/>
    <path d="M11.05 1.15 L11.05 1.8 11.55 2.15 Q11.55 2.95 11.2 3.6 10.85 4.2 10.35 4.2 L9.9 3.35 9.85 3.2 Q10.35 2.65 10.2 1.1 L11.05 1.15" fill="#0f151c" fill-rule="evenodd" stroke="none"/>
    <path d="M10.35 4.2 L10.3 4.2 9.85 3.4 9.9 3.35 10.35 4.2" fill="#383838" fill-rule="evenodd" stroke="none"/>
    <path d="M9.85 3.4 L9.85 3.2 9.9 3.35 9.85 3.4" fill="#4b4b4b" fill-rule="evenodd" stroke="none"/>
    <path d="M10.3 4.2 L8.15 3.65 7.75 2.85 Q8.95 3.45 9.85 3.4 L10.3 4.2" fill="#454545" fill-rule="evenodd" stroke="none"/>
    <path d="M5.4 3.1 L4.0 3.3 1.45 2.55 3.45 2.7 5.4 3.1" fill="#334132" fill-rule="evenodd" stroke="none"/>
    <path d="M4.0 3.3 L-1.3 2.75 1.45 2.55 4.0 3.3" fill="#3f4833" fill-rule="evenodd" stroke="none"/>
    <path d="M-7.95 -11.8 L-4.9 -12.85 -1.1 -13.3 -0.05 -13.15 2.75 -12.9 4.2 -12.6 Q5.55 -12.85 7.45 -11.75 9.35 -10.65 10.15 -8.65 L7.25 -7.85 M7.85 -1.6 L9.3 -1.5 10.6 -0.2 11.05 1.15 11.05 1.8 M11.55 2.15 Q11.55 2.95 11.2 3.6 10.85 4.2 10.35 4.2 M10.3 4.2 L8.15 3.65 6.9 3.6 5.65 3.1 M5.4 3.1 L4.0 3.3 -1.3 2.75 Q-5.45 1.7 -7.15 0.1 M-7.85 -0.5 L-8.95 -0.75 Q-9.45 -1.05 -9.45 -1.45 L-9.7 -1.3 -9.9 -1.45 -10.0 -2.25 -9.9 -4.7 -8.95 -4.7 -8.95 -7.65 M-9.0 -7.95 Q-9.55 -9.65 -9.4 -10.85 L-7.95 -11.8" fill="none" stroke="#070a0a" stroke-linecap="round" stroke-linejoin="round" stroke-width="1.0"/>
    <path d="M-7.15 0.1 L-7.85 -0.5 -7.35 -0.75 -7.45 -1.9 -7.85 -3.15 -9.45 -1.45 M-8.95 -7.65 L-9.0 -7.95 M-7.95 -11.8 L-5.6 -10.9 -7.0 -8.0 -8.95 -7.65 M4.2 -12.6 L2.75 -11.5 2.35 -9.95 3.3 -8.5 4.5 -7.95 7.25 -7.85 M-8.95 -4.7 Q-8.3 -3.35 -7.85 -3.15 L-6.5 -2.7 -6.2 -0.75 -5.7 -0.75 -6.05 -0.3 -7.85 -0.5" fill="none" stroke="#0e1314" stroke-linecap="round" stroke-linejoin="round" stroke-width="1.0"/>
    <path d="M3.3 -8.5 L1.9 -8.5 M1.3 -7.8 L-1.3 -7.35" fill="none" stroke="#0e1314" stroke-linecap="round" stroke-linejoin="round" stroke-opacity="0.99215686" stroke-width="1.0"/>
    <path d="M1.9 -8.5 L1.3 -7.8" fill="none" stroke="#0d1214" stroke-linecap="round" stroke-linejoin="round" stroke-width="1.0"/>
    <path d="M10.35 4.2 L10.3 4.2 9.85 3.4 9.85 3.2 M2.2 -2.9 L2.45 -2.65 3.3 -1.15 3.3 -0.9 4.8 -0.9 5.4 -0.75 5.8 -1.05 M6.95 -1.6 L7.85 -1.6 M4.8 -0.9 L3.3 -1.15 M8.5 -0.4 L6.95 -1.6 M8.55 -0.35 Q7.95 0.05 7.1 -1.15 L8.5 -0.4 8.55 -0.35 8.8 1.1 8.95 2.25 8.5 2.75 7.5 1.9 M7.75 2.85 Q8.95 3.45 9.85 3.4 L9.9 3.35 M1.45 2.55 L4.0 3.3 M8.8 1.1 L5.4 -0.75 M-6.5 -2.7 L-4.2 -1.8 -1.85 -0.75 2.2 -2.9 M3.3 -0.9 L-1.85 -0.75" fill="none" stroke="#0d171e" stroke-linecap="round" stroke-linejoin="round" stroke-width="1.0"/>
    <path d="M3.3 -1.15 L5.8 -1.05 Q6.25 -1.1 6.95 -1.6 M2.2 -2.9 L3.3 -1.15" fill="none" stroke="#0d1213" stroke-linecap="round" stroke-linejoin="round" stroke-width="1.0"/>
    <path d="M7.25 -7.85 Q8.4 -4.65 7.85 -1.6" fill="none" stroke="#000000" stroke-linecap="round" stroke-linejoin="round" stroke-opacity="0.3019608" stroke-width="1.0"/>
    <path d="M-1.3 -7.35 Q-0.9 -7.0 -0.25 -5.9 L-0.45 -3.95 -1.55 -3.2 -2.55 -2.9 Q-4.5 -2.9 -5.5 -4.0 -6.5 -5.15 -6.05 -6.65 L-4.6 -6.65 -3.7 -6.35 -3.6 -6.3 -3.25 -6.2 Q-2.45 -6.2 -1.55 -6.95 L-1.3 -7.35" fill="none" stroke="#0e1315" stroke-linecap="round" stroke-linejoin="round" stroke-opacity="0.99215686" stroke-width="1.0"/>
    <path d="M-3.6 -6.3 Q-3.55 -12.95 -1.1 -13.3" fill="none" stroke="#0d1214" stroke-linecap="round" stroke-linejoin="round" stroke-opacity="0.99215686" stroke-width="1.0"/>
    <path d="M11.05 1.8 L11.55 2.15 M9.85 3.2 Q10.35 2.65 10.2 1.1 L11.05 1.15 M9.9 3.35 L9.85 3.2 M10.35 4.2 L9.9 3.35" fill="none" stroke="#0c1216" stroke-linecap="round" stroke-linejoin="round" stroke-width="1.0"/>
    <path d="M5.65 3.1 L5.4 3.1 3.45 2.7 1.45 2.55 0.6 0.8 4.05 0.65 Q6.45 1.05 7.5 1.9 L7.75 2.85 8.15 3.65 M-5.7 -0.75 Q-1.5 1.55 0.6 0.8 M-1.3 2.75 L1.45 2.55" fill="none" stroke="#121c21" stroke-linecap="round" stroke-linejoin="round" stroke-width="1.0"/>
    <path d="M-0.45 -3.95 Q1.45 -3.5 2.2 -2.9" fill="none" stroke="#0e1316" stroke-linecap="round" stroke-linejoin="round" stroke-width="1.0"/>
  </g>
  <defs>
    <radialGradient cx="0" cy="0" gradientTransform="matrix(0.0071, 8.0E-4, -0.0011, 0.0096, 4.4, -0.85)" gradientUnits="userSpaceOnUse" id="gradient0" r="819.2" spreadMethod="pad">
      <stop offset="0.6901960784313725" stop-color="#c88d53"/>
      <stop offset="1.0" stop-color="#86592d"/>
    </radialGradient>
    <radialGradient cx="0" cy="0" gradientTransform="matrix(0.0018, -0.0121, 0.0172, 0.0026, -0.05, -3.0)" gradientUnits="userSpaceOnUse" id="gradient1" r="819.2" spreadMethod="pad">
      <stop offset="0.0" stop-color="#1d2b38"/>
      <stop offset="0.6588235294117647" stop-color="#27363f"/>
      <stop offset="1.0" stop-color="#4d6277"/>
    </radialGradient>
    <radialGradient cx="0" cy="0" gradientTransform="matrix(0.0148, 0.0, 0.0, 0.0148, -3.65, -4.95)" gradientUnits="userSpaceOnUse" id="gradient2" r="819.2" spreadMethod="pad">
      <stop offset="0.0" stop-color="#61befc" stop-opacity="0.4"/>
      <stop offset="0.6196078431372549" stop-color="#67c2fe" stop-opacity="0.7019608"/>
      <stop offset="1.0" stop-color="#70c6fe" stop-opacity="0.8"/>
    </radialGradient>
  </defs>
</svg>
