<?xml version="1.0" encoding="UTF-8" standalone="no"?>
<svg xmlns:xlink="http://www.w3.org/1999/xlink" height="16.7px" width="58.35px" xmlns="http://www.w3.org/2000/svg">
  <g transform="matrix(1.0, 0.0, 0.0, 1.0, 21.75, 6.25)">
    <path d="M-4.7 -0.65 L-4.85 -0.35 -0.6 -0.35 1.55 -3.7 0.9 -3.7 2.45 -5.75 6.65 -5.75 5.1 -3.4 6.65 -5.75 21.35 -5.75 20.1 -0.8 12.15 -0.8 20.1 -0.8 21.35 -5.75 25.45 -5.75 Q28.15 -5.75 31.55 -4.55 L31.8 -4.45 34.4 -3.35 33.2 -1.4 31.4 1.7 29.3 1.7 28.25 3.5 27.95 4.05 26.8 6.0 26.55 6.4 16.2 6.4 15.95 6.0 14.55 3.95 27.95 4.05 14.55 3.95 14.5 3.95 12.0 3.95 10.0 3.95 8.35 3.95 6.25 1.7 5.9 1.7 5.6 1.7 3.1 1.7 0.15 1.7 -2.1 1.7 -5.75 1.7 -8.0 1.7 -9.1 1.7 -12.05 5.3 -12.05 7.6 -12.05 8.8 -17.3 8.8 -17.3 -1.85 -6.8 -1.85 -5.7 -0.65 -4.7 -0.65 -5.7 -0.65 -6.8 -1.85 -6.25 -3.3 -3.65 -3.3 -4.7 -0.65 M8.15 -0.8 L6.25 1.7 8.15 -0.8 12.15 -0.8 12.15 -1.1 12.15 -3.4 14.65 -3.4 14.65 -5.4 14.65 -3.4 12.15 -3.4 5.1 -3.4 3.3 -0.8 8.15 -0.8 M22.85 -2.25 L23.75 -3.85 22.85 -2.25 M24.85 -2.25 L25.75 -3.85 24.85 -2.25 M26.85 -2.25 L27.75 -3.85 26.85 -2.25 M20.1 -0.8 L29.7 -0.8 31.8 -4.45 29.7 -0.8 20.1 -0.8 M-13.4 -0.25 L-13.4 3.9 -13.4 -0.25 M-15.45 -0.25 L-15.45 3.9 -15.45 -0.25" fill="#dedede" fill-rule="evenodd" stroke="none"/>
    <path d="M8.15 -0.8 L3.3 -0.8 5.1 -3.4 12.15 -3.4 12.15 -1.1 12.15 -0.8 8.15 -0.8" fill="#999999" fill-rule="evenodd" stroke="none"/>
    <path d="M-12.05 7.6 L-12.05 5.3 -9.1 1.7 -8.0 1.7 -8.3 2.95 Q-8.5 4.45 -8.0 5.55 L-7.45 6.5 Q-6.6 7.55 -5.4 7.8 L-4.75 6.85 -4.2 5.95 -4.3 4.3 Q-4.65 2.5 -5.75 1.7 L-2.1 1.7 -2.25 2.1 Q-2.45 3.25 -1.9 4.6 L-0.05 4.6 Q0.5 3.25 0.3 2.1 L0.15 1.7 3.1 1.7 3.1 3.75 0.5 6.6 -1.8 6.6 -2.7 8.0 -3.95 9.95 -7.55 9.95 Q-7.8 9.35 -8.45 8.8 -9.8 7.6 -12.05 7.6 M5.6 1.7 L5.9 1.7 7.6 3.25 7.6 7.0 10.0 7.0 10.0 3.95 12.0 3.95 12.0 9.15 5.6 9.15 5.6 1.7 M33.2 -1.4 L36.1 -1.4 36.1 3.5 32.75 3.5 31.3 6.0 28.9 6.0 26.8 6.0 27.95 4.05 28.25 3.5 29.3 1.7 31.4 1.7 33.2 -1.4 M15.95 6.0 L14.5 6.0 14.5 3.95 14.55 3.95 15.95 6.0 M30.35 3.5 L28.25 3.5 30.35 3.5 32.75 3.5 30.35 3.5 28.9 6.0 30.35 3.5 M34.05 -1.15 L34.05 3.2 34.05 -1.15 M-2.7 8.0 L-4.75 6.85 -2.7 8.0" fill="#4a4a4a" fill-rule="evenodd" stroke="none"/>
    <path d="M3.1 1.7 L5.6 1.7 5.6 9.15 3.1 9.15 3.1 3.75 3.1 1.7 M14.5 6.0 L14.5 9.15 12.0 9.15 12.0 3.95 14.5 3.95 14.5 6.0 M8.35 3.95 L10.0 3.95 10.0 7.0 7.6 7.0 7.6 3.25 8.35 3.95" fill="#3e3e3e" fill-rule="evenodd" stroke="none"/>
    <path d="M5.9 1.7 L6.25 1.7 8.35 3.95 7.6 3.25 5.9 1.7" fill="#e6e6e6" fill-rule="evenodd" stroke="none"/>
    <path d="M-4.7 -0.65 L-5.7 -0.65 -6.8 -1.85 M-12.05 5.3 L-9.1 1.7 M5.6 1.7 L5.9 1.7 6.25 1.7 8.15 -0.8 M5.1 -3.4 L6.65 -5.75 M12.15 -0.8 L20.1 -0.8 21.35 -5.75 M12.15 -3.4 L14.65 -3.4 14.65 -5.4 M31.8 -4.45 L29.7 -0.8 20.1 -0.8 M27.95 4.05 L14.55 3.95 14.5 3.95" fill="none" stroke="#b4b4b4" stroke-linecap="round" stroke-linejoin="round" stroke-width="1.05"/>
    <path d="M8.15 -0.8 L3.3 -0.8 5.1 -3.4 12.15 -3.4 12.15 -1.1 M12.15 -0.8 L8.15 -0.8" fill="none" stroke="#7b7b7b" stroke-linecap="round" stroke-linejoin="round" stroke-width="1.05"/>
    <path d="M-6.8 -1.85 L-17.3 -1.85 M-17.3 8.8 L-12.05 8.8 -12.05 7.6 M6.65 -5.75 L2.45 -5.75 0.9 -3.7 M21.35 -5.75 L6.65 -5.75 M31.8 -4.45 L31.55 -4.55 Q28.15 -5.75 25.45 -5.75 L21.35 -5.75 M33.2 -1.4 L34.4 -3.35 31.8 -4.45 M26.8 6.0 L26.55 6.4 16.2 6.4 15.95 6.0 M26.8 6.0 L27.95 4.05 28.25 3.5 29.3 1.7 31.4 1.7 33.2 -1.4 M-3.65 -3.3 L-6.25 -3.3 -6.8 -1.85" fill="none" stroke="#343434" stroke-linecap="round" stroke-linejoin="round" stroke-width="1.05"/>
    <path d="M27.75 -3.85 L26.85 -2.25 M25.75 -3.85 L24.85 -2.25 M23.75 -3.85 L22.85 -2.25 M33.2 -1.4 L36.1 -1.4 36.1 3.5 32.75 3.5 31.3 6.0 28.9 6.0 26.8 6.0 M15.95 6.0 L14.5 6.0 14.5 9.15 12.0 9.15 5.6 9.15 3.1 9.15 3.1 3.75 0.5 6.6 -1.8 6.6 -2.7 8.0 -3.95 9.95 -7.55 9.95 Q-7.8 9.35 -8.45 8.8 -9.8 7.6 -12.05 7.6 M32.75 3.5 L30.35 3.5 28.9 6.0 M28.25 3.5 L30.35 3.5 M14.5 6.0 L14.5 3.95 M12.0 3.95 L12.0 9.15 M7.6 3.25 L7.6 7.0 10.0 7.0 10.0 3.95 M3.1 3.75 L3.1 1.7 M0.15 1.7 L0.3 2.1 Q0.5 3.25 -0.05 4.6 L-1.9 4.6 Q-2.45 3.25 -2.25 2.1 L-2.1 1.7 M5.6 1.7 L5.6 9.15 M34.05 3.2 L34.05 -1.15 M-5.75 1.7 Q-4.65 2.5 -4.3 4.3 L-4.2 5.95 -4.75 6.85 -2.7 8.0 M-4.75 6.85 L-5.4 7.8 Q-6.6 7.55 -7.45 6.5 L-8.0 5.55 Q-8.5 4.45 -8.3 2.95 L-8.0 1.7 M-15.45 3.9 L-15.45 -0.25 M-13.4 3.9 L-13.4 -0.25" fill="none" stroke="#2d2d2d" stroke-linecap="round" stroke-linejoin="round" stroke-width="1.05"/>
    <path d="M-9.1 1.7 L-8.0 1.7 -5.75 1.7 -2.1 1.7 0.15 1.7 3.1 1.7 5.6 1.7 M14.5 3.95 L12.0 3.95 10.0 3.95 8.35 3.95 6.25 1.7" fill="none" stroke="#b3b3b3" stroke-linecap="round" stroke-linejoin="round" stroke-width="1.05"/>
    <path d="M-12.05 7.6 L-12.05 5.3 M14.55 3.95 L15.95 6.0" fill="none" stroke="#989898" stroke-linecap="round" stroke-linejoin="round" stroke-width="1.05"/>
    <path d="M-19.3 9.65 L-20.4 9.65 -21.25 -2.15 -19.3 -2.15 -17.15 -2.15 -17.15 9.65 -19.3 9.65 -19.3 -2.15 -19.3 9.65 M-4.7 0.0 L-3.3 -3.35 1.7 -3.35 -0.45 0.0 -4.7 0.0" fill="#4a4a4a" fill-rule="evenodd" stroke="none"/>
    <path d="M-19.3 9.65 L-20.4 9.65 -21.25 -2.15 -19.3 -2.15 -17.15 -2.15 -17.15 9.65 -19.3 9.65 -19.3 -2.15 M-4.7 0.0 L-3.3 -3.35 1.7 -3.35 -0.45 0.0 -4.7 0.0 Z" fill="none" stroke="#2d2d2d" stroke-linecap="round" stroke-linejoin="round" stroke-width="1.05"/>
    <path d="M12.15 -0.8 L3.3 -0.8 5.1 -3.4 12.15 -3.4 12.15 -1.1 12.15 -0.8" fill="#c0090c" fill-rule="evenodd" stroke="none"/>
    <path d="M12.15 -0.8 L3.3 -0.8 5.1 -3.4 12.15 -3.4 12.15 -1.1" fill="none" stroke="#750303" stroke-linecap="round" stroke-linejoin="round" stroke-width="1.05"/>
  </g>
</svg>
