<?xml version="1.0" encoding="UTF-8" standalone="no"?>
<svg xmlns:ffdec="https://www.free-decompiler.com/flash" xmlns:xlink="http://www.w3.org/1999/xlink" ffdec:objectType="shape" height="19.8px" width="18.55px" xmlns="http://www.w3.org/2000/svg">
  <g transform="matrix(1.0, 0.0, 0.0, 1.0, -35.65, -24.55)">
    <path d="M47.35 36.75 L47.3 36.4 Q47.3 35.4 47.7 34.75 L47.85 34.5 Q47.95 34.35 48.1 34.35 L48.6 34.6 50.45 35.6 Q51.45 36.0 51.85 37.0 51.65 37.2 51.1 37.0 L50.35 36.5 Q49.65 36.15 48.85 37.25 48.1 38.2 47.45 38.1 L47.35 38.1 47.35 38.15 Q47.35 40.05 48.2 40.6 L49.2 41.0 Q50.15 41.15 51.2 42.0 48.1 43.05 45.7 42.75 44.05 42.45 43.45 42.0 42.75 41.3 42.2 39.35 42.55 39.8 43.2 39.95 L44.35 39.85 44.35 39.35 45.45 38.6 Q45.65 37.45 47.35 37.25 47.2 37.0 47.35 36.75 M43.05 31.1 L43.4 30.35 Q43.95 29.15 42.7 29.95 41.45 30.7 41.6 29.3 41.55 29.65 39.65 30.4 39.05 30.5 38.95 30.05 38.85 29.55 39.7 28.3 L40.15 27.55 43.05 26.05 Q43.25 25.75 43.65 25.9 L44.25 25.9 Q44.7 25.9 44.95 26.3 L45.9 27.0 48.65 29.0 46.8 28.3 Q46.6 28.1 46.3 28.05 L45.4 27.95 Q44.75 27.95 44.9 28.65 L45.05 29.95 Q45.05 30.6 45.65 31.05 45.15 31.8 44.9 32.8 L44.9 33.35 44.9 33.4 43.05 31.1" fill="#7f1cde" fill-rule="evenodd" stroke="none"/>
    <path d="M39.85 38.85 L40.15 38.85 41.95 38.85 41.55 39.45 41.55 40.05 41.75 40.05 43.55 41.0 41.75 41.4 41.55 41.35 41.3 41.4 40.05 41.85 40.05 42.05 37.0 41.75 36.45 41.75 36.45 41.55 36.2 41.55 35.65 40.8 36.65 40.8 38.9 41.2 39.05 40.7 38.6 40.05 38.6 39.7 39.6 39.1 39.85 38.85 M38.25 28.0 L38.8 27.95 40.55 27.95 40.55 28.3 42.15 28.3 42.4 28.45 42.6 28.65 42.75 29.0 43.7 29.0 43.75 29.35 44.0 29.35 44.15 29.6 44.15 30.0 44.35 30.5 44.9 31.0 44.9 31.55 45.65 32.35 45.65 32.6 44.45 32.6 43.9 32.15 43.25 32.3 Q43.45 32.6 43.25 32.8 L42.9 33.25 42.9 33.85 42.05 34.2 42.05 35.8 39.25 35.05 Q41.65 34.4 40.85 32.9 40.65 32.25 40.15 32.1 L40.4 31.75 41.05 31.75 41.05 31.5 40.75 31.0 Q40.8 30.65 40.4 30.85 40.5 31.05 40.25 31.05 L40.2 31.05 40.55 30.3 40.05 30.1 40.05 29.3 38.95 29.0 Q39.0 28.75 39.6 28.8 L39.6 28.5 38.75 28.5 38.75 28.35 38.25 28.0" fill="#7f1cde" fill-rule="evenodd" stroke="none"/>
    <path d="M38.2 29.45 L38.2 28.75 39.45 28.75 39.6 29.05 40.2 29.4 40.65 29.55 Q40.9 29.55 40.95 29.7 L40.95 30.0 40.3 30.95 40.85 32.1 42.45 33.0 42.45 35.2 42.6 35.2 42.75 35.5 43.95 35.5 Q41.65 36.75 42.55 38.95 L44.75 38.95 Q43.6 40.95 41.3 40.8 L37.8 40.8 37.8 40.55 37.3 40.55 36.8 39.85 Q37.2 39.9 37.45 40.2 L39.3 40.6 Q39.35 40.4 38.95 40.4 L38.95 40.25 38.3 39.9 Q42.55 39.3 40.8 36.6 L40.3 36.3 39.95 36.3 39.0 36.0 38.45 35.7 38.35 35.3 37.75 35.15 38.35 33.95 37.55 33.95 37.55 33.2 Q41.9 33.6 38.5 29.45 L38.2 29.45" fill="#2b1a3f" fill-rule="evenodd" stroke="none"/>
    <path d="M39.15 24.9 L40.4 24.55 42.45 24.55 42.45 25.3 45.0 25.3 Q42.0 27.25 45.0 28.35 L45.6 28.35 46.75 29.05 47.95 29.05 47.95 31.4 48.25 32.15 48.65 32.15 50.2 33.8 Q46.75 34.45 51.1 36.85 51.15 37.2 51.65 37.45 L51.65 37.85 52.35 38.0 52.35 38.5 54.2 39.6 53.15 39.6 53.15 39.9 Q46.2 37.95 47.15 44.35 L44.7 43.2 44.7 42.5 46.1 41.15 46.1 39.15 Q50.9 38.85 47.05 36.85 L44.5 36.45 Q47.15 32.85 45.0 29.8 L41.0 29.05 Q38.9 28.1 41.0 26.1 L40.05 26.1 40.05 25.6 39.75 25.6 39.15 24.9" fill="#2b1a3f" fill-rule="evenodd" stroke="none"/>
  </g>
</svg>
