<?xml version="1.0" encoding="UTF-8" standalone="no"?>
<svg xmlns:xlink="http://www.w3.org/1999/xlink" height="20.05px" width="20.65px" xmlns="http://www.w3.org/2000/svg">
  <g transform="matrix(1.0, 0.0, 0.0, 1.0, 7.25, 17.2)">
    <path d="M3.65 -0.5 L3.5 0.85 -1.15 0.35 -0.95 -1.7 Q-1.75 -2.05 -2.2 -2.95 -2.7 -4.0 -2.85 -6.05 -3.0 -8.25 -2.6 -9.95 -2.1 -12.0 -0.8 -12.95 1.55 -14.75 4.1 -14.6 6.5 -14.55 8.3 -12.85 9.4 -11.8 9.6 -10.25 L10.1 -7.45 11.0 -6.3 Q11.7 -5.55 11.55 -5.25 11.4 -4.85 10.85 -4.6 10.3 -4.35 10.25 -4.0 L9.9 -1.7 Q9.7 -0.3 9.05 -0.05 L7.85 0.1 7.05 0.05 3.65 -0.5 Q2.4 -0.45 1.9 -1.7 2.4 -0.45 3.65 -0.5" fill="#bf8f7b" fill-rule="evenodd" stroke="none"/>
    <path d="M3.65 -0.5 L7.05 0.05 7.85 0.1 9.05 -0.05 Q9.7 -0.3 9.9 -1.7 L10.25 -4.0 Q10.3 -4.35 10.85 -4.6 11.4 -4.85 11.55 -5.25 11.7 -5.55 11.0 -6.3 L10.1 -7.45 9.6 -10.25 Q9.4 -11.8 8.3 -12.85 6.5 -14.55 4.1 -14.6 1.55 -14.75 -0.8 -12.95 -2.1 -12.0 -2.6 -9.95 -3.0 -8.25 -2.85 -6.05 -2.7 -4.0 -2.2 -2.95 -1.75 -2.05 -0.95 -1.7 L-1.15 0.35 3.5 0.85 3.65 -0.5" fill="none" stroke="#7a5647" stroke-linecap="round" stroke-linejoin="round" stroke-width="1.05"/>
    <path d="M3.65 -0.5 Q2.4 -0.45 1.9 -1.7" fill="none" stroke="#7a5647" stroke-linecap="round" stroke-linejoin="round" stroke-opacity="0.5019608" stroke-width="1.05"/>
    <path d="M10.05 -3.0 L8.5 -2.95 10.0 -2.55 10.05 -3.0 Z" fill="none" stroke="#8f4d44" stroke-linecap="round" stroke-linejoin="round" stroke-width="1.05"/>
    <path d="M-0.35 -6.55 Q-0.6 -5.2 -0.1 -4.25 0.4 -3.35 0.8 -3.85" fill="none" stroke="#976551" stroke-linecap="round" stroke-linejoin="miter-clip" stroke-miterlimit="4.0" stroke-width="1.05"/>
    <path d="M6.6 -6.75 Q5.75 -6.75 6.2 -7.4 L6.9 -7.95 7.7 -7.6 8.2 -7.15 Q8.2 -6.95 7.55 -6.8 L6.6 -6.75" fill="#c3aea1" fill-rule="evenodd" stroke="none"/>
    <path d="M6.95 -6.65 L7.0 -7.75 7.65 -7.8 Q8.2 -7.75 8.15 -7.2 8.15 -6.65 7.6 -6.7 L6.95 -6.65" fill="#000000" fill-rule="evenodd" stroke="none"/>
    <path d="M5.8 -7.4 Q6.15 -6.8 6.9 -6.6 8.0 -6.75 8.2 -7.15" fill="none" stroke="#7c5846" stroke-linecap="round" stroke-linejoin="round" stroke-width="0.5"/>
    <path d="M7.5 -9.05 L5.4 -9.1" fill="none" stroke="#82584c" stroke-linecap="round" stroke-linejoin="miter-clip" stroke-miterlimit="4.0" stroke-width="0.5"/>
    <path d="M8.2 -7.15 L7.15 -7.9 6.35 -7.7 5.8 -7.4" fill="none" stroke="#744e44" stroke-linecap="round" stroke-linejoin="round" stroke-width="0.5"/>
    <path d="M-6.15 -0.1 Q-6.0 -0.85 -6.35 -2.3 -6.65 -3.6 -6.2 -4.45 L-5.05 -6.9 Q-4.1 -8.95 -4.15 -10.15 L-3.4 -6.4 Q-4.1 -4.35 -3.7 -2.95 -3.25 -1.55 -3.35 -1.25 -4.25 1.6 -6.75 2.35 L-6.15 -0.1" fill="#695b3d" fill-rule="evenodd" stroke="none"/>
    <path d="M-6.15 -0.1 L-6.75 2.35 Q-4.25 1.6 -3.35 -1.25 -3.25 -1.55 -3.7 -2.95 -4.1 -4.35 -3.4 -6.4 L-4.15 -10.15 Q-4.1 -8.95 -5.05 -6.9 L-6.2 -4.45 Q-6.65 -3.6 -6.35 -2.3 -6.0 -0.85 -6.15 -0.1 Z" fill="none" stroke="#383020" stroke-linecap="round" stroke-linejoin="round" stroke-opacity="0.5019608" stroke-width="1.05"/>
    <path d="M6.3 -16.4 Q7.0 -16.35 7.95 -15.9 L9.6 -14.85 10.95 -13.15 11.6 -11.3 Q12.1 -9.5 12.9 -7.85 L11.05 -8.15 Q9.1 -8.75 8.35 -10.2 7.4 -10.2 6.05 -10.9 L4.9 -11.65 Q3.95 -10.55 3.9 -8.9 L3.75 -6.95 2.8 -8.85 Q2.3 -7.7 3.05 -3.6 3.75 0.25 2.95 1.2 2.4 -1.7 1.7 -2.8 L0.9 -5.35 0.65 -6.95 0.3 -7.35 -0.65 -7.55 Q-1.75 -7.2 -1.45 -5.15 -1.15 -3.2 -0.3 -2.7 L-2.55 -2.75 Q-3.05 -2.9 -4.0 -5.35 -4.9 -7.8 -4.9 -9.0 L-4.85 -11.8 Q-4.65 -13.5 -3.9 -14.3 -2.05 -16.3 -0.55 -16.55 0.6 -16.8 2.35 -16.55 L4.8 -16.35 6.3 -16.4" fill="#716242" fill-rule="evenodd" stroke="none"/>
    <path d="M6.3 -16.4 L4.8 -16.35 2.35 -16.55 Q0.6 -16.8 -0.55 -16.55 -2.05 -16.3 -3.9 -14.3 -4.65 -13.5 -4.85 -11.8 L-4.9 -9.0 Q-4.9 -7.8 -4.0 -5.35 -3.05 -2.9 -2.55 -2.75 L-0.3 -2.7 Q-1.15 -3.2 -1.45 -5.15 -1.75 -7.2 -0.65 -7.55 L0.3 -7.35 0.65 -6.95 0.9 -5.35 1.7 -2.8 Q2.4 -1.7 2.95 1.2 3.75 0.25 3.05 -3.6 2.3 -7.7 2.8 -8.85 L3.75 -6.95 3.9 -8.9 Q3.95 -10.55 4.9 -11.65 L6.05 -10.9 Q7.4 -10.2 8.35 -10.2 9.1 -8.75 11.05 -8.15 L12.9 -7.85 Q12.1 -9.5 11.6 -11.3 L10.95 -13.15 9.6 -14.85 7.95 -15.9 Q7.0 -16.35 6.3 -16.4 Z" fill="none" stroke="#383020" stroke-linecap="round" stroke-linejoin="round" stroke-opacity="0.5019608" stroke-width="1.05"/>
    <path d="M5.5 -14.0 L6.85 -13.65 Q8.35 -13.0 9.3 -11.45 M0.15 -8.75 Q0.2 -10.1 1.25 -11.3 L2.25 -12.25 M-3.6 -10.8 L-2.7 -13.0 Q-1.45 -15.25 0.35 -15.6" fill="none" stroke="#5e5137" stroke-linecap="round" stroke-linejoin="round" stroke-opacity="0.5019608" stroke-width="1.05"/>
    <path d="M-2.55 -6.35 L-2.45 -7.3 Q-2.45 -8.35 -3.0 -8.75" fill="none" stroke="#64563b" stroke-linecap="round" stroke-linejoin="round" stroke-opacity="0.5019608" stroke-width="1.05"/>
  </g>
</svg>
