<?xml version="1.0" encoding="UTF-8" standalone="no"?>
<svg xmlns:xlink="http://www.w3.org/1999/xlink" height="8.4px" width="13.5px" xmlns="http://www.w3.org/2000/svg">
  <g transform="matrix(1.0, 0.0, 0.0, 1.0, 0.5, 0.5)">
    <path d="M2.2 4.2 L5.45 6.1 Q9.25 7.9 11.9 7.2" fill="none" stroke="#373737" stroke-linecap="round" stroke-linejoin="round" stroke-width="1.05"/>
    <path d="M1.55 0.0 Q2.35 -0.1 2.95 0.55 3.6 1.2 3.7 2.2 3.8 3.2 3.4 3.95 2.9 4.75 2.2 4.85 1.4 4.95 0.8 4.3 0.15 3.65 0.05 2.65 -0.1 1.65 0.35 0.85 0.85 0.1 1.55 0.0" fill="#4d4d4d" fill-rule="evenodd" stroke="none"/>
    <path d="M1.55 0.0 Q2.35 -0.1 2.95 0.55 3.6 1.2 3.7 2.2 3.8 3.2 3.4 3.95 2.9 4.75 2.2 4.85 1.4 4.95 0.8 4.3 0.15 3.65 0.05 2.65 -0.1 1.65 0.35 0.85 0.85 0.1 1.55 0.0 Z" fill="none" stroke="#2b2b2b" stroke-linecap="round" stroke-linejoin="round" stroke-width="1.05"/>
    <path d="M12.5 6.75 L12.25 7.25" fill="none" stroke="#000000" stroke-linecap="round" stroke-linejoin="round" stroke-width="1.05"/>
  </g>
</svg>
