<?xml version="1.0" encoding="UTF-8" standalone="no"?>
<svg xmlns:ffdec="https://www.free-decompiler.com/flash" xmlns:xlink="http://www.w3.org/1999/xlink" ffdec:objectType="shape" height="19.45px" width="18.3px" xmlns="http://www.w3.org/2000/svg">
  <g transform="matrix(1.0, 0.0, 0.0, 1.0, -52.55, -25.45)">
    <path d="M64.35 41.85 L64.2 41.9 Q65.1 41.65 65.85 40.85 64.3 40.0 62.1 40.0 L60.1 40.1 Q57.7 40.1 56.0 38.25 56.7 37.65 58.9 37.9 61.0 38.1 61.75 37.25 61.5 34.7 61.75 32.25 L60.35 31.5 61.0 30.6 60.5 30.35 56.35 30.85 Q56.1 30.35 57.25 29.75 58.15 29.35 59.2 28.15 L61.0 26.35 Q62.7 25.25 64.75 25.85 66.75 26.45 67.6 28.25 66.25 28.8 66.0 31.85 66.0 34.95 64.5 35.6 L65.85 40.0 Q68.0 40.0 69.35 38.85 L70.85 39.0 Q68.75 39.95 67.35 41.5 L66.65 42.25 65.75 42.85 64.75 42.65 Q64.3 42.3 64.35 41.85" fill="#7f1cde" fill-rule="evenodd" stroke="none"/>
    <path d="M57.75 40.2 Q57.9 39.5 57.5 39.05 L57.5 39.0 57.25 38.35 56.6 37.2 56.65 36.6 56.5 36.1 Q56.25 35.85 55.6 35.7 55.05 35.5 54.7 34.55 L54.1 32.95 55.0 34.35 Q55.15 33.5 56.1 33.7 L57.25 34.6 60.35 38.2 Q61.5 39.7 61.1 40.45 60.3 41.25 60.75 42.35 60.35 42.35 60.25 42.2 L61.0 44.45 62.0 44.35 Q61.15 45.0 60.0 44.9 58.85 44.85 58.1 44.1 57.25 43.1 56.75 43.2 L57.35 41.7 57.75 40.2 M61.45 33.6 L61.5 34.35 60.5 34.35 Q60.8 34.15 60.55 33.95 60.2 33.95 60.2 33.1 L60.8 30.7 59.7 30.45 62.3 28.35 59.95 28.95 59.45 29.0 58.95 28.95 58.7 28.65 58.7 28.2 57.8 28.45 Q59.45 26.8 60.3 26.45 L62.55 26.35 Q65.45 26.5 67.3 28.35 L65.7 27.7 66.05 29.45 64.3 29.35 64.3 31.2 Q64.3 32.35 63.45 32.7 L62.2 32.95 61.85 33.35 61.45 33.6" fill="#7f1cde" fill-rule="evenodd" stroke="none"/>
    <path d="M63.35 25.9 L62.65 26.35 62.65 26.85 62.25 26.85 62.25 27.15 62.35 27.55 62.05 27.85 62.6 27.85 62.3 28.35 62.1 28.35 62.1 29.75 60.95 30.7 60.95 30.9 62.65 32.15 59.15 31.85 Q57.35 32.0 56.65 32.65 L55.7 33.45 55.7 33.65 57.6 34.0 57.4 34.5 57.1 34.5 57.1 35.0 57.45 35.4 59.15 36.05 60.25 36.05 59.6 36.4 Q59.15 39.45 64.9 39.45 L64.9 39.6 62.45 40.4 63.35 40.7 63.35 40.9 62.45 41.45 62.95 41.45 62.95 41.9 64.1 42.85 54.6 43.6 59.7 42.35 61.25 41.1 60.2 40.45 59.9 40.45 59.9 40.15 60.25 39.75 59.3 39.35 59.2 39.05 56.95 38.75 57.1 38.5 56.8 37.95 56.8 37.7 57.05 37.7 Q57.1 35.6 54.25 34.85 L54.1 34.85 53.5 33.9 53.2 33.9 52.55 32.35 52.55 31.65 Q56.15 32.85 58.2 31.0 L59.35 30.45 58.4 29.45 59.9 28.8 59.9 28.5 59.2 28.5 Q59.95 26.25 55.55 26.2 L60.3 25.45 63.35 25.9" fill="#2b1a3f" fill-rule="evenodd" stroke="none"/>
    <path d="M59.5 39.45 L58.7 39.25 Q64.0 38.8 61.3 37.5 L61.5 37.55 61.65 37.55 63.3 37.05 63.9 36.65 63.95 36.5 63.6 36.45 63.8 36.2 Q66.05 34.75 61.1 32.65 L61.15 32.55 61.0 32.2 62.45 32.5 62.5 32.0 62.85 31.95 62.9 31.85 63.25 31.9 62.8 31.45 63.15 30.9 63.3 30.7 63.9 29.75 63.35 29.7 64.4 28.9 Q62.5 29.9 59.2 28.9 60.4 28.1 61.1 28.0 61.8 27.95 62.1 28.5 62.45 29.1 63.9 28.35 65.3 27.55 65.75 27.75 L67.7 28.35 66.95 28.45 66.45 28.8 64.4 31.35 65.5 31.6 64.65 32.35 Q63.65 33.7 65.2 33.85 L67.15 34.2 67.55 35.55 69.0 35.55 67.6 35.75 68.5 39.4 64.0 38.7 63.25 39.0 62.1 39.3 62.05 40.0 61.45 39.85 60.9 40.7 58.65 40.5 58.05 40.35 57.9 40.55 56.45 40.55 59.5 39.45" fill="#2b1a3f" fill-rule="evenodd" stroke="none"/>
  </g>
</svg>
