<?xml version="1.0" encoding="UTF-8" standalone="no"?>
<svg xmlns:ffdec="https://www.free-decompiler.com/flash" xmlns:xlink="http://www.w3.org/1999/xlink" ffdec:objectType="shape" height="12.1px" width="18.4px" xmlns="http://www.w3.org/2000/svg">
  <g transform="matrix(1.0, 0.0, 0.0, 1.0, -0.4, -1.55)">
    <path d="M17.55 11.3 L17.75 12.05 16.45 13.15 1.3 13.0 1.5 11.7 1.0 8.4 3.65 9.75 5.0 11.65 7.25 11.6 8.3 10.35 11.25 10.75 12.35 11.35 17.55 11.3 M5.95 2.05 L9.0 2.1 11.6 6.2 9.45 7.9 6.0 4.85 5.95 2.05" fill="#333333" fill-rule="evenodd" stroke="none"/>
    <path d="M1.0 8.4 L0.9 7.75 0.9 6.6 1.45 2.05 5.95 2.05 6.0 4.85 9.45 7.9 8.4 8.8 8.3 10.35 7.25 11.6 5.0 11.65 3.65 9.75 1.0 8.4" fill="url(#gradient0)" fill-rule="evenodd" stroke="none"/>
    <path d="M11.6 6.2 L13.35 6.75 15.7 6.75 Q15.85 6.45 17.4 7.5 L18.3 10.15 17.55 11.3 12.35 11.35 11.25 10.75 8.3 10.35 8.4 8.8 9.45 7.9 11.6 6.2" fill="url(#gradient1)" fill-rule="evenodd" stroke="none"/>
    <path d="M11.6 6.2 L13.35 6.75 15.7 6.75 Q15.85 6.45 17.4 7.5 L18.3 10.15 17.55 11.3 17.75 12.05 16.45 13.15 1.3 13.0 1.5 11.7 1.0 8.4 0.9 7.75 0.9 6.6 1.45 2.05 5.95 2.05 9.0 2.1 11.6 6.2 9.45 7.9 8.4 8.8 8.3 10.35 11.25 10.75 12.35 11.35 17.55 11.3 M5.95 2.05 L6.0 4.85 9.45 7.9 M8.3 10.35 L7.25 11.6 5.0 11.65 3.65 9.75 1.0 8.4" fill="none" stroke="#2b2927" stroke-linecap="round" stroke-linejoin="round" stroke-width="1.0"/>
  </g>
  <defs>
    <radialGradient cx="0" cy="0" gradientTransform="matrix(0.0088, 0.0, 0.0, 0.0088, 5.5, 6.25)" gradientUnits="userSpaceOnUse" id="gradient0" r="819.2" spreadMethod="pad">
      <stop offset="0.0" stop-color="#4d4946"/>
      <stop offset="1.0" stop-color="#3c3b38"/>
      <stop offset="1.0" stop-color="#333333"/>
    </radialGradient>
    <radialGradient cx="0" cy="0" fx="377.6" fy="0" gradientTransform="matrix(0.0104, 0.0, 0.0, 0.0104, 10.1, 7.95)" gradientUnits="userSpaceOnUse" id="gradient1" r="819.2" spreadMethod="pad">
      <stop offset="0.0" stop-color="#47423c"/>
      <stop offset="1.0" stop-color="#635547"/>
      <stop offset="1.0" stop-color="#333333"/>
    </radialGradient>
  </defs>
</svg>
