<?xml version="1.0" encoding="UTF-8" standalone="no"?>
<svg xmlns:ffdec="https://www.free-decompiler.com/flash" xmlns:xlink="http://www.w3.org/1999/xlink" ffdec:objectType="shape" height="11.15px" width="18.3px" xmlns="http://www.w3.org/2000/svg">
  <g transform="matrix(1.0, 0.0, 0.0, 1.0, 4.25, 3.95)">
    <path d="M-1.45 -1.2 L4.7 -1.15 3.8 1.65 6.5 2.8 6.75 6.75 4.1 6.65 3.25 5.55 2.2 6.55 -1.4 6.5 -2.7 3.85 -1.45 -1.2" fill="#1c1224" fill-rule="evenodd" stroke="none"/>
    <path d="M-1.45 -1.2 L-2.7 3.85 -1.4 6.5 2.2 6.55 3.25 5.55 4.1 6.65 6.75 6.75 6.5 2.8 3.8 1.65 4.7 -1.15 -1.45 -1.2 Z" fill="none" stroke="#000000" stroke-linecap="round" stroke-linejoin="round" stroke-width="0.9500000000000001"/>
    <path d="M13.35 3.15 L13.6 5.35 12.55 6.75 6.75 6.75 6.5 2.8 3.8 1.65 3.75 -2.95 6.2 -2.85 7.4 0.0 13.35 3.15" fill="#2c1b38" fill-rule="evenodd" stroke="none"/>
    <path d="M13.35 3.15 L13.6 5.35 12.55 6.75 6.75 6.75 6.5 2.8 3.8 1.65 3.75 -2.95 6.2 -2.85 7.4 0.0 13.35 3.15 Z" fill="none" stroke="#120c17" stroke-linecap="round" stroke-linejoin="round" stroke-width="0.9500000000000001"/>
    <path d="M-2.05 5.15 L-3.8 3.9 -1.85 -1.2 -2.45 -3.1 0.6 -3.5 1.6 -1.15 3.25 5.55 1.75 6.55 -1.4 6.5 -2.05 5.15" fill="#2c1b38" fill-rule="evenodd" stroke="none"/>
    <path d="M-2.05 5.15 L-3.8 3.9 -1.85 -1.2 -2.45 -3.1 0.6 -3.5 1.6 -1.15 3.25 5.55 1.75 6.55 -1.4 6.5 -2.05 5.15 Z" fill="none" stroke="#120c17" stroke-linecap="round" stroke-linejoin="round" stroke-width="0.9500000000000001"/>
  </g>
</svg>
