<?xml version="1.0" encoding="UTF-8" standalone="no"?>
<svg xmlns:ffdec="https://www.free-decompiler.com/flash" xmlns:xlink="http://www.w3.org/1999/xlink" ffdec:objectType="shape" height="19.1px" width="19.35px" xmlns="http://www.w3.org/2000/svg">
  <g transform="matrix(1.0, 0.0, 0.0, 1.0, -65.2, -23.4)">
    <path d="M81.15 32.15 L82.15 32.15 82.2 31.75 82.35 31.5 82.55 31.3 83.45 31.5 84.0 31.5 84.1 31.8 84.1 32.2 84.55 32.95 84.3 32.95 83.55 33.65 83.1 33.65 82.4 32.8 81.95 32.8 80.8 32.35 81.15 32.15 M78.75 31.7 L77.05 31.7 77.35 31.35 77.35 31.1 Q77.75 31.05 77.75 30.85 L77.55 30.65 76.7 29.7 76.7 28.95 76.4 28.65 75.85 26.55 76.85 27.5 76.9 27.2 77.85 27.2 78.05 27.45 78.75 28.45 Q78.75 29.3 79.2 29.65 L78.75 29.65 78.75 31.7 M75.7 38.3 L75.45 37.6 75.7 36.35 76.15 36.3 76.15 35.95 76.4 35.95 77.0 35.05 78.05 35.05 78.9 35.6 78.6 35.75 78.6 35.95 76.95 37.2 77.25 37.5 75.7 38.3" fill="#7f1cde" fill-rule="evenodd" stroke="none"/>
    <path d="M73.4 34.6 L73.3 34.5 Q73.2 34.4 73.25 34.55 L73.4 34.6 73.35 34.7 72.85 34.75 Q71.85 34.9 71.15 35.9 L70.85 36.8 70.8 36.85 70.0 38.1 Q69.3 39.45 69.2 41.25 L68.9 42.2 Q68.65 42.6 67.95 42.45 L66.95 41.85 Q66.3 41.05 66.15 40.05 66.0 39.05 66.5 38.1 L67.6 39.4 69.55 34.8 70.0 33.75 70.1 32.65 Q70.05 32.0 69.4 31.4 L68.3 30.45 Q68.75 30.0 68.85 29.2 68.9 28.45 68.6 27.8 68.3 27.05 66.8 25.7 65.45 24.55 65.2 23.4 68.0 24.65 70.75 26.4 L70.5 26.4 Q70.1 26.4 69.85 26.7 L72.6 31.35 70.75 31.65 Q71.55 31.6 72.4 32.25 L73.65 33.5 Q74.4 34.25 75.2 34.5 76.2 34.8 76.8 34.25 76.15 34.9 75.05 35.05 74.05 35.1 73.4 34.6" fill="#7f1cde" fill-rule="evenodd" stroke="none"/>
    <path d="M68.4 29.95 L67.2 29.65 70.8 28.85 Q69.95 29.15 69.95 29.95 70.3 32.05 72.55 30.5 L74.1 30.35 Q73.9 30.5 72.85 31.2 L73.5 31.3 72.55 32.15 Q72.9 32.5 72.8 33.35 72.6 34.25 72.85 34.55 73.3 35.0 74.45 34.55 L77.85 33.0 Q75.35 34.55 73.2 36.4 73.55 36.4 73.7 36.8 72.2 38.55 70.6 38.7 L67.6 38.5 Q70.3 37.8 71.8 35.7 71.85 30.8 67.65 35.75 68.2 34.45 69.55 32.85 L68.0 32.35 68.2 31.95 67.45 31.55 68.4 29.95" fill="#2b1a3f" fill-rule="evenodd" stroke="none"/>
    <path d="M79.4 27.3 L79.2 27.45 79.95 27.25 80.0 27.5 82.65 28.8 82.95 28.85 83.15 29.6 81.35 28.95 79.2 29.55 80.6 31.35 78.95 31.8 79.15 32.25 77.0 32.0 77.75 31.5 77.35 30.0 77.55 29.3 77.75 29.2 78.4 29.0 78.2 28.2 78.45 27.55 78.35 27.2 78.45 26.95 78.95 26.85 79.0 27.0 79.4 27.3 M75.25 35.45 L76.3 36.0 75.95 36.0 77.0 36.35 Q76.95 37.75 75.7 38.9 74.45 40.05 71.1 39.15 L73.6 38.15 73.7 37.85 Q75.75 39.1 76.25 36.8 L74.3 36.8 73.85 36.2 74.1 36.2 74.2 36.0 75.25 35.45" fill="#2b1a3f" fill-rule="evenodd" stroke="none"/>
  </g>
</svg>
