<?xml version="1.0" encoding="UTF-8" standalone="no"?>
<svg xmlns:xlink="http://www.w3.org/1999/xlink" height="4.3px" width="4.3px" xmlns="http://www.w3.org/2000/svg">
  <g transform="matrix(1.0, 0.0, 0.0, 1.0, 2.15, 2.15)">
    <path d="M1.15 -1.2 Q1.65 -0.7 1.65 0.0 1.65 0.7 1.15 1.15 0.7 1.65 0.0 1.65 -0.7 1.65 -1.2 1.15 L-1.65 0.0 Q-1.65 -0.7 -1.2 -1.2 -0.7 -1.65 0.0 -1.65 L1.15 -1.2" fill="#8e090a" fill-rule="evenodd" stroke="none"/>
    <path d="M1.15 -1.2 Q1.65 -0.7 1.65 0.0 1.65 0.7 1.15 1.15 0.7 1.65 0.0 1.65 -0.7 1.65 -1.2 1.15 L-1.65 0.0 Q-1.65 -0.7 -1.2 -1.2 -0.7 -1.65 0.0 -1.65 L1.15 -1.2 Z" fill="none" stroke="#750303" stroke-linecap="round" stroke-linejoin="round" stroke-width="1.0"/>
  </g>
</svg>
