<?xml version="1.0" encoding="UTF-8" standalone="no"?>
<svg xmlns:ffdec="https://www.free-decompiler.com/flash" xmlns:xlink="http://www.w3.org/1999/xlink" ffdec:objectType="shape" height="9.05px" width="14.3px" xmlns="http://www.w3.org/2000/svg">
  <g transform="matrix(1.0, 0.0, 0.0, 1.0, -76.7, -28.35)">
    <path d="M83.05 31.7 L83.9 31.2 84.15 30.55 84.35 30.15 84.65 29.75 85.3 29.6 85.8 29.3 86.35 28.8 88.45 28.85 Q87.0 28.5 85.55 31.1 L85.35 31.2 84.4 32.6 84.0 32.8 83.8 31.95 83.4 32.2 82.65 32.1 83.05 31.7 M78.75 37.4 L78.55 37.3 78.4 36.8 78.65 36.65 Q78.75 35.4 76.7 36.3 L76.7 35.15 77.95 35.15 79.45 35.65 80.05 35.55 79.9 35.7 81.7 34.85 79.25 36.65 79.45 36.65 78.75 37.4 M89.25 29.8 L89.3 29.7 89.35 30.8 89.6 31.3 Q89.6 31.55 90.0 31.55 L90.6 31.95 91.0 32.05 90.0 32.45 Q89.3 32.45 89.1 31.95 L89.0 31.3 89.25 29.8" fill="#7f1cde" fill-rule="evenodd" stroke="none"/>
    <path d="M78.85 34.5 Q78.85 34.05 79.25 34.15 79.1 34.0 79.2 33.7 L79.7 33.4 80.0 33.35 80.0 31.95 80.5 31.3 81.5 30.25 81.5 29.05 82.7 29.05 84.75 32.6 84.75 32.5 85.15 32.2 85.15 32.65 85.6 32.65 85.75 32.9 86.35 32.9 87.35 31.45 86.25 34.75 85.9 35.05 85.7 35.05 85.05 35.8 84.5 35.35 84.35 35.35 83.0 33.7 84.2 34.35 84.4 34.35 84.4 34.1 84.7 34.1 85.3 33.75 85.3 33.15 Q84.8 33.0 84.75 32.65 82.5 30.2 81.6 31.8 L81.6 32.25 80.95 32.8 80.95 33.6 80.6 34.0 Q81.15 35.4 79.9 36.5 L78.05 36.5 78.05 36.25 78.55 35.05 78.85 34.5" fill="#2b1a3f" fill-rule="evenodd" stroke="none"/>
  </g>
</svg>
