<?xml version="1.0" encoding="UTF-8" standalone="no"?>
<svg xmlns:ffdec="https://www.free-decompiler.com/flash" xmlns:xlink="http://www.w3.org/1999/xlink" ffdec:objectType="shape" height="12.7px" width="18.95px" xmlns="http://www.w3.org/2000/svg">
  <g transform="matrix(1.0, 0.0, 0.0, 1.0, -1.45, -0.75)">
    <path d="M10.75 12.65 L11.95 8.4 15.85 7.15 16.85 7.4 17.35 7.5 Q18.9 8.15 19.5 9.85 L19.9 12.9 10.7 12.95 10.75 12.65" fill="#2d2f4a" fill-rule="evenodd" stroke="none"/>
    <path d="M3.75 7.6 L3.75 5.65 4.35 3.1 5.15 2.2 6.05 1.6 6.8 1.35 Q7.25 1.15 7.55 1.35 L8.4 1.5 10.5 3.1 11.45 4.4 11.9 4.9 13.0 5.3 13.6 5.75 15.45 6.8 16.5 7.15 16.85 7.4 15.85 7.15 11.95 8.4 10.75 12.65 11.35 10.25 8.1 10.3 8.05 11.0 8.1 9.95 5.85 6.7 3.75 7.6" fill="#181818" fill-rule="evenodd" stroke="none"/>
    <path d="M3.75 7.6 L5.85 6.7 8.1 9.95 8.05 11.0 8.1 10.3 11.35 10.25 10.75 12.65 10.7 12.95 7.85 12.95 1.95 12.9 2.95 7.95 3.75 7.6 M8.05 11.0 L8.0 11.65 7.85 12.95 8.0 11.65 8.05 11.0" fill="#202134" fill-rule="evenodd" stroke="none"/>
    <path d="M3.75 7.6 L5.85 6.7 8.1 9.95 8.05 11.0 8.1 10.3 11.35 10.25 10.75 12.65 11.95 8.4 15.85 7.15 16.85 7.4 17.35 7.5 Q18.9 8.15 19.5 9.85 L19.9 12.9 10.7 12.95 7.85 12.95 1.95 12.9 2.95 7.95 3.75 7.6 M7.85 12.95 L8.0 11.65 8.05 11.0 M10.7 12.95 L10.75 12.65" fill="none" stroke="#0d0d14" stroke-linecap="round" stroke-linejoin="round" stroke-width="1.0"/>
    <path d="M16.85 7.4 L16.5 7.15 15.45 6.8 13.6 5.75 13.0 5.3 11.9 4.9 11.45 4.4 10.5 3.1 8.4 1.5 7.55 1.35 Q7.25 1.15 6.8 1.35 L6.05 1.6 5.15 2.2 4.35 3.1 3.75 5.65 3.75 7.6" fill="none" stroke="#030305" stroke-linecap="round" stroke-linejoin="round" stroke-width="1.0"/>
  </g>
</svg>
