<?xml version="1.0" encoding="UTF-8" standalone="no"?>
<svg xmlns:xlink="http://www.w3.org/1999/xlink" height="24.15px" width="27.8px" xmlns="http://www.w3.org/2000/svg">
  <g transform="matrix(1.0, 0.0, 0.0, 1.0, -27.0, 12.9)">
    <path d="M37.8 11.15 L37.35 11.25 Q34.55 11.25 32.6 7.7 30.6 4.15 30.65 -0.8 30.6 -5.8 32.6 -9.35 34.55 -12.9 37.35 -12.9 L37.8 -12.85 37.8 11.15" fill="url(#gradient0)" fill-rule="evenodd" stroke="none"/>
    <path d="M37.8 -12.85 L38.25 -12.9 Q41.0 -12.9 43.0 -9.35 44.95 -5.8 44.95 -0.8 44.95 4.15 43.0 7.7 41.0 11.25 38.25 11.25 L37.8 11.15 37.8 -12.85" fill="url(#gradient1)" fill-rule="evenodd" stroke="none"/>
    <path d="M40.9 7.15 L40.0 7.2 Q34.6 7.2 30.8 4.8 26.95 2.45 27.0 -0.9 26.95 -4.25 30.8 -6.65 34.6 -9.05 40.0 -9.05 L40.9 -9.0 40.9 7.15" fill="url(#gradient2)" fill-rule="evenodd" stroke="none"/>
    <path d="M40.9 -9.0 L41.8 -9.05 Q47.2 -9.05 51.05 -6.65 54.8 -4.25 54.8 -0.9 54.8 2.45 51.05 4.8 47.2 7.2 41.8 7.2 L40.9 7.15 40.9 -9.0" fill="url(#gradient3)" fill-rule="evenodd" stroke="none"/>
  </g>
  <defs>
    <radialGradient cx="0" cy="0" gradientTransform="matrix(0.0, 0.0131, 0.0082, 0.0, 37.35, -0.85)" gradientUnits="userSpaceOnUse" id="gradient0" r="819.2" spreadMethod="pad">
      <stop offset="0.17647058823529413" stop-color="#ffffff"/>
      <stop offset="1.0" stop-color="#139ffd" stop-opacity="0.0"/>
    </radialGradient>
    <radialGradient cx="0" cy="0" gradientTransform="matrix(0.0, 0.0131, -0.0082, 0.0, 38.25, -0.85)" gradientUnits="userSpaceOnUse" id="gradient1" r="819.2" spreadMethod="pad">
      <stop offset="0.17647058823529413" stop-color="#ffffff"/>
      <stop offset="1.0" stop-color="#139ffd" stop-opacity="0.0"/>
    </radialGradient>
    <radialGradient cx="0" cy="0" gradientTransform="matrix(0.0, 0.0088, 0.0159, 0.0, 40.0, -0.95)" gradientUnits="userSpaceOnUse" id="gradient2" r="819.2" spreadMethod="pad">
      <stop offset="0.17647058823529413" stop-color="#ffffff"/>
      <stop offset="1.0" stop-color="#139ffd" stop-opacity="0.0"/>
    </radialGradient>
    <radialGradient cx="0" cy="0" gradientTransform="matrix(0.0, 0.0088, -0.0159, 0.0, 41.75, -0.95)" gradientUnits="userSpaceOnUse" id="gradient3" r="819.2" spreadMethod="pad">
      <stop offset="0.17647058823529413" stop-color="#ffffff"/>
      <stop offset="1.0" stop-color="#139ffd" stop-opacity="0.0"/>
    </radialGradient>
  </defs>
</svg>
