<?xml version="1.0" encoding="UTF-8" standalone="no"?>
<svg xmlns:ffdec="https://www.free-decompiler.com/flash" xmlns:xlink="http://www.w3.org/1999/xlink" ffdec:objectType="shape" height="26.8px" width="27.3px" xmlns="http://www.w3.org/2000/svg">
  <g transform="matrix(1.0, 0.0, 0.0, 1.0, 18.75, 27.8)">
    <path d="M-7.05 -25.7 L-7.05 -25.75 Q-6.6 -26.55 -4.95 -27.05 -2.6 -27.75 1.25 -26.65 L3.45 -25.95 3.9 -25.75 4.75 -24.75 0.3 -25.55 Q-5.0 -26.25 -5.85 -24.8 L-6.65 -25.55 -7.05 -25.7 M3.7 -5.65 L4.1 -5.6 4.25 -4.15 4.45 -4.2 Q5.25 -3.45 4.95 -3.0 L4.4 -2.6 4.35 -2.6 Q-0.9 -1.15 -4.25 -1.6 -5.75 -1.75 -6.45 -2.15 L-6.6 -2.2 -6.7 -2.3 -6.7 -2.35 -6.95 -3.5 -6.85 -3.85 -6.75 -3.8 -7.1 -6.35 Q-4.4 -4.5 0.4 -4.95 L3.7 -5.65 M-6.75 -3.8 L1.05 -3.45 4.25 -4.15 1.05 -3.45 -6.75 -3.8" fill="#4e3e39" fill-rule="evenodd" stroke="none"/>
    <path d="M4.75 -24.75 L6.3 -23.15 Q7.85 -21.5 8.05 -19.55 8.1 -18.35 6.8 -17.25 L5.45 -16.3 4.45 -14.15 5.0 -12.7 3.8 -11.55 Q1.3 -11.2 -2.25 -11.65 L-5.25 -12.25 -5.25 -12.7 -6.05 -13.25 -6.6 -19.95 -5.9 -20.6 -5.85 -24.8 Q-5.0 -26.25 0.3 -25.55 L4.75 -24.75 M3.95 -9.75 L4.85 -8.65 4.4 -7.6 5.45 -6.0 3.7 -5.65 0.4 -4.95 Q-4.4 -4.5 -7.1 -6.35 L-7.95 -6.95 -7.9 -7.15 -6.45 -7.6 -6.25 -7.65 -5.3 -9.2 Q-5.2 -9.5 -5.25 -9.8 L-5.3 -10.05 -5.25 -10.55 0.5 -9.95 3.95 -9.75 M-8.4 -22.4 L-8.4 -19.6 -12.0 -19.5 -12.05 -22.4 -8.4 -22.4 M-8.75 -15.4 L-8.75 -13.1 -11.7 -13.0 -11.75 -15.35 -8.75 -15.4" fill="#917563" fill-rule="evenodd" stroke="none"/>
    <path d="M3.8 -11.55 L4.2 -10.95 Q4.5 -10.2 3.95 -9.75 L0.5 -9.95 -5.25 -10.55 -5.3 -10.05 -5.25 -9.8 Q-5.2 -9.5 -5.3 -9.2 L-6.25 -7.65 -6.45 -7.6 -7.9 -7.15 -7.95 -10.35 -9.6 -9.85 -10.8 -9.85 -11.35 -10.15 -12.75 -10.45 Q-13.9 -10.45 -14.7 -9.9 L-16.05 -9.9 -16.6 -10.5 -16.6 -10.55 Q-17.1 -10.7 -17.5 -11.0 -18.2 -11.6 -18.25 -12.45 -18.35 -13.35 -17.75 -14.05 L-17.65 -14.15 -17.5 -14.25 -17.15 -14.45 -16.75 -14.7 -16.6 -15.75 -16.0 -15.4 -15.2 -15.3 -15.15 -15.3 Q-14.2 -15.35 -13.6 -16.1 -12.95 -16.8 -13.1 -17.8 -13.15 -18.75 -13.85 -19.35 -14.6 -20.0 -15.55 -19.95 L-15.6 -19.95 -15.95 -19.85 -15.6 -21.15 -15.15 -22.4 -14.35 -23.8 -14.2 -24.05 -14.2 -24.1 -13.85 -24.3 -13.8 -24.35 -13.65 -24.5 -13.5 -24.7 -12.75 -25.15 -12.7 -25.2 -10.4 -25.75 -10.25 -25.7 -7.95 -25.85 -7.25 -25.75 -7.05 -25.7 -6.65 -25.55 -5.85 -24.8 -5.9 -20.6 -6.6 -19.95 -6.05 -13.25 -5.25 -12.7 -5.25 -12.25 -2.25 -11.65 Q1.3 -11.2 3.8 -11.55 M-8.9 -16.9 L-9.0 -18.3 -8.9 -16.9 M-12.05 -22.4 L-12.0 -19.5 -8.4 -19.6 -8.4 -22.4 -12.05 -22.4 M-11.75 -15.35 L-11.7 -13.0 -8.75 -13.1 -8.75 -15.4 -11.75 -15.35 M-13.85 -24.3 L-14.2 -24.05 -13.85 -24.3 M-10.65 -16.7 L-10.75 -18.15 -10.65 -16.7 M-16.75 -14.7 L-16.3 -14.75 Q-15.45 -14.85 -14.8 -14.3 -14.1 -13.7 -14.0 -12.8 -13.95 -11.95 -14.55 -11.25 -15.1 -10.6 -15.95 -10.55 L-16.6 -10.55 -15.95 -10.55 Q-15.1 -10.6 -14.55 -11.25 -13.95 -11.95 -14.0 -12.8 -14.1 -13.7 -14.8 -14.3 -15.45 -14.85 -16.3 -14.75 L-16.75 -14.7 M-5.25 -12.25 L-5.25 -10.55 -5.25 -12.25" fill="#b39a82" fill-rule="evenodd" stroke="none"/>
    <path d="M-15.6 -21.15 L-16.9 -21.95 -16.15 -24.55 -14.95 -25.0 -15.15 -24.35 -14.6 -23.65 -14.45 -23.75 -14.4 -23.75 -14.35 -23.8 -14.2 -24.1 -14.2 -24.05 -14.35 -23.8 -15.15 -22.4 -15.6 -21.15" fill="#98a4a4" fill-rule="evenodd" stroke="none"/>
    <path d="M-7.95 -6.95 L-7.9 -6.15 -9.55 -6.5 -10.75 -6.5 -11.25 -6.2 -12.75 -5.9 Q-13.85 -5.9 -14.7 -6.45 L-15.85 -6.45 -17.55 -6.05 -17.6 -10.25 -16.05 -9.9 -14.7 -9.9 Q-13.9 -10.45 -12.75 -10.45 L-11.35 -10.15 -10.8 -9.85 -9.6 -9.85 -7.95 -10.35 -7.9 -7.15 -7.95 -6.95 M-16.6 -15.75 L-16.75 -15.85 Q-17.5 -16.45 -17.6 -17.4 -17.65 -18.4 -17.05 -19.1 L-15.95 -19.85 -15.6 -19.95 -15.55 -19.95 Q-14.6 -20.0 -13.85 -19.35 -13.15 -18.75 -13.1 -17.8 -12.95 -16.8 -13.6 -16.1 -14.2 -15.35 -15.15 -15.3 L-15.2 -15.3 -16.0 -15.4 -16.6 -15.75" fill="#cdbfa3" fill-rule="evenodd" stroke="none"/>
    <path d="M-7.05 -25.7 L-7.05 -25.75 Q-6.6 -26.55 -4.95 -27.05 -2.6 -27.75 1.25 -26.65 L3.45 -25.95 3.9 -25.75 4.75 -24.75 0.3 -25.55 Q-5.0 -26.25 -5.85 -24.8 M4.1 -5.6 L4.25 -4.15 4.45 -4.2 Q5.25 -3.45 4.95 -3.0 L4.4 -2.6 4.35 -2.6 Q-0.9 -1.15 -4.25 -1.6 -5.75 -1.75 -6.45 -2.15 L-6.6 -2.2 M-6.7 -2.3 L-6.7 -2.35 -6.95 -3.5 -6.85 -3.85 -6.75 -3.8 -7.1 -6.35 M4.25 -4.15 L1.05 -3.45 -6.75 -3.8" fill="none" stroke="#252323" stroke-linecap="round" stroke-linejoin="round" stroke-width="1.0"/>
    <path d="M4.75 -24.75 L6.3 -23.15 Q7.85 -21.5 8.05 -19.55 8.1 -18.35 6.8 -17.25 L5.45 -16.3 4.45 -14.15 5.0 -12.7 3.8 -11.55 M3.95 -9.75 L4.85 -8.65 4.4 -7.6 5.45 -6.0 3.7 -5.65 0.4 -4.95 Q-4.4 -4.5 -7.1 -6.35 L-7.95 -6.95 M-14.45 -23.75 L-14.4 -23.75 -14.35 -23.8 -14.2 -24.05 -13.85 -24.3 -13.8 -24.35 -13.65 -24.5 -13.5 -24.7 M-12.05 -22.4 L-12.0 -19.5 -8.4 -19.6 -8.4 -22.4 M-11.75 -15.35 L-11.7 -13.0 -8.75 -13.1 -8.75 -15.4" fill="none" stroke="#56433d" stroke-linecap="round" stroke-linejoin="round" stroke-width="1.0"/>
    <path d="M3.8 -11.55 L4.2 -10.95 Q4.5 -10.2 3.95 -9.75 L0.5 -9.95 -5.25 -10.55 -5.3 -10.05 -5.25 -9.8 Q-5.2 -9.5 -5.3 -9.2 L-6.25 -7.65 -6.45 -7.6 -7.9 -7.15 M-16.05 -9.9 L-16.6 -10.5 -16.6 -10.55 Q-17.1 -10.7 -17.5 -11.0 -18.2 -11.6 -18.25 -12.45 -18.35 -13.35 -17.75 -14.05 L-17.65 -14.15 -17.5 -14.25 -17.15 -14.45 -16.75 -14.7 -16.6 -15.75 M-15.95 -19.85 L-15.6 -21.15 -15.15 -22.4 -14.35 -23.8 M-7.25 -25.75 L-7.05 -25.7 -6.65 -25.55 -5.85 -24.8 -5.9 -20.6 -6.6 -19.95 -6.05 -13.25 -5.25 -12.7 -5.25 -12.25 -2.25 -11.65 Q1.3 -11.2 3.8 -11.55 M-9.0 -18.3 L-8.9 -16.9 M-8.4 -22.4 L-12.05 -22.4 M-8.75 -15.4 L-11.75 -15.35 M-14.2 -24.05 L-14.2 -24.1 M-16.6 -10.55 L-15.95 -10.55 Q-15.1 -10.6 -14.55 -11.25 -13.95 -11.95 -14.0 -12.8 -14.1 -13.7 -14.8 -14.3 -15.45 -14.85 -16.3 -14.75 L-16.75 -14.7 M-10.75 -18.15 L-10.65 -16.7 M-5.25 -10.55 L-5.25 -12.25" fill="none" stroke="#745b52" stroke-linecap="round" stroke-linejoin="round" stroke-width="1.0"/>
    <path d="M-15.6 -21.15 L-16.9 -21.95 -16.15 -24.55 -14.95 -25.0" fill="none" stroke="#4c525b" stroke-linecap="round" stroke-linejoin="round" stroke-width="1.0"/>
    <path d="M-7.95 -6.95 L-7.9 -6.15 -9.55 -6.5 -10.75 -6.5 -11.25 -6.2 -12.75 -5.9 Q-13.85 -5.9 -14.7 -6.45 L-15.85 -6.45 -17.55 -6.05 -17.6 -10.25 -16.05 -9.9 -14.7 -9.9 Q-13.9 -10.45 -12.75 -10.45 L-11.35 -10.15 -10.8 -9.85 -9.6 -9.85 -7.95 -10.35 -7.9 -7.15 -7.95 -6.95 M-16.6 -15.75 L-16.75 -15.85 Q-17.5 -16.45 -17.6 -17.4 -17.65 -18.4 -17.05 -19.1 L-15.95 -19.85 -15.6 -19.95 -15.55 -19.95 Q-14.6 -20.0 -13.85 -19.35 -13.15 -18.75 -13.1 -17.8 -12.95 -16.8 -13.6 -16.1 -14.2 -15.35 -15.15 -15.3 L-15.2 -15.3 -16.0 -15.4 -16.6 -15.75 Z" fill="none" stroke="#95806e" stroke-linecap="round" stroke-linejoin="round" stroke-width="1.0"/>
    <path d="M-15.15 -10.2 L-15.1 -6.05 -16.25 -6.05 -16.3 -10.2 -15.15 -10.2 M-11.0 -10.25 L-9.8 -10.25 -9.75 -6.15 -10.95 -6.15 -11.0 -10.25" fill="#917563" fill-rule="evenodd" stroke="none"/>
    <path d="M-15.15 -10.2 L-15.1 -6.05 -16.25 -6.05 -16.3 -10.2 -15.15 -10.2 M-11.0 -10.25 L-10.95 -6.15 -9.75 -6.15 -9.8 -10.25 -11.0 -10.25 Z" fill="none" stroke="#56433d" stroke-linecap="round" stroke-linejoin="round" stroke-width="1.0"/>
    <path d="M-6.4 -10.35 Q-6.45 -11.15 -5.95 -11.75 -5.45 -12.35 -4.7 -12.4 -3.9 -12.45 -3.3 -11.95 -2.7 -11.45 -2.65 -10.65 -2.55 -9.85 -3.05 -9.25 -3.55 -8.65 -4.35 -8.6 -5.1 -8.55 -5.7 -9.05 -6.3 -9.55 -6.4 -10.35" fill="#917563" fill-rule="evenodd" stroke="none"/>
    <path d="M-6.4 -10.35 Q-6.3 -9.55 -5.7 -9.05 -5.1 -8.55 -4.35 -8.6 -3.55 -8.65 -3.05 -9.25 -2.55 -9.85 -2.65 -10.65 -2.7 -11.45 -3.3 -11.95 -3.9 -12.45 -4.7 -12.4 -5.45 -12.35 -5.95 -11.75 -6.45 -11.15 -6.4 -10.35 Z" fill="none" stroke="#56433d" stroke-linecap="round" stroke-linejoin="round" stroke-width="1.0"/>
    <path d="M-9.3 -26.6 L-7.35 -25.7 -7.45 -25.7 -7.7 -25.75 -10.5 -25.55 Q-13.05 -25.4 -14.75 -23.75 L-14.85 -23.65 -15.45 -24.3 -15.25 -25.0 -14.4 -26.55 -13.7 -27.2 Q-11.6 -27.4 -9.3 -26.6" fill="#917563" fill-rule="evenodd" stroke="none"/>
    <path d="M-9.3 -26.6 Q-11.6 -27.4 -13.7 -27.2 L-14.4 -26.55 -15.25 -25.0 -15.45 -24.3 -14.85 -23.65 -14.75 -23.75 Q-13.05 -25.4 -10.5 -25.55 L-7.7 -25.75 -7.45 -25.7 -7.35 -25.7 -9.3 -26.6 Z" fill="none" stroke="#56433d" stroke-linecap="round" stroke-linejoin="round" stroke-width="1.0"/>
  </g>
</svg>
