<?xml version="1.0" encoding="UTF-8" standalone="no"?>
<svg xmlns:ffdec="https://www.free-decompiler.com/flash" xmlns:xlink="http://www.w3.org/1999/xlink" ffdec:objectType="shape" height="27.0px" width="27.7px" xmlns="http://www.w3.org/2000/svg">
  <g transform="matrix(1.0, 0.0, 0.0, 1.0, 18.9, 27.9)">
    <path d="M3.65 -25.05 L4.4 -24.85 6.35 -22.65 Q7.5 -21.2 7.35 -19.65 L6.7 -17.2 Q6.2 -16.35 5.5 -16.05 L4.5 -13.05 4.3 -10.45 Q4.15 -7.35 4.55 -4.8 L4.65 -3.75 0.2 -3.4 0.05 -3.4 -0.3 -3.35 -0.75 -3.35 -0.9 -3.35 -1.3 -3.35 -1.45 -3.35 -5.4 -3.7 -6.2 -4.05 -6.3 -5.3 1.75 -5.9 1.6 -7.35 -6.55 -6.75 -6.6 -7.4 -6.4 -7.5 -5.35 -9.05 -5.35 -11.0 1.95 -11.55 1.85 -13.0 -5.3 -12.45 -6.15 -13.05 -6.65 -19.8 -5.9 -20.4 -5.8 -24.7 -6.2 -25.1 -5.95 -24.9 Q-5.1 -26.35 0.15 -25.7 L1.0 -25.55 1.25 -25.5 3.65 -25.05 M-8.45 -22.35 L-8.4 -19.45 -12.1 -19.45 -12.1 -22.3 -8.45 -22.35 M-8.8 -15.25 L-8.85 -12.85 -11.8 -12.9 -11.85 -15.25 -8.8 -15.25" fill="#917563" fill-rule="evenodd" stroke="none"/>
    <path d="M4.4 -24.85 L3.65 -25.05 1.25 -25.5 1.0 -25.55 0.15 -25.7 Q-5.1 -26.35 -5.95 -24.9 L-6.2 -25.1 -6.55 -25.5 -6.75 -25.5 -7.2 -25.9 Q-6.65 -26.8 -5.05 -27.2 -1.75 -28.0 3.85 -25.8 L5.15 -24.7 4.85 -24.7 4.4 -24.85 M-5.3 -12.45 L1.85 -13.0 1.95 -11.55 -5.35 -11.0 -5.3 -12.45" fill="#4e3e39" fill-rule="evenodd" stroke="none"/>
    <path d="M-6.2 -4.05 L-5.4 -3.7 -1.45 -3.35 -1.3 -3.35 -0.9 -3.35 -0.75 -3.35 -0.3 -3.35 0.05 -3.4 0.2 -3.4 4.65 -3.75 4.95 -3.75 5.3 -2.2 4.9 -2.05 4.55 -1.95 3.95 -1.85 -1.0 -1.4 -2.15 -1.45 -5.6 -1.65 -6.15 -1.7 -6.45 -3.25 -6.35 -4.15 -6.2 -4.05" fill="#755c52" fill-rule="evenodd" stroke="none"/>
    <path d="M-6.2 -25.1 L-5.8 -24.7 -5.9 -20.4 -6.65 -19.8 -6.15 -13.05 -5.3 -12.45 -5.35 -11.0 -5.35 -9.05 -6.4 -7.5 -6.6 -7.4 Q-7.2 -7.15 -8.0 -7.0 L-8.05 -10.1 -9.7 -9.75 -10.95 -9.8 -11.55 -10.05 -12.95 -10.35 Q-14.1 -10.3 -14.9 -9.75 L-16.25 -9.75 -16.75 -10.45 -17.05 -10.6 -16.15 -10.45 Q-15.25 -10.5 -14.65 -11.15 -14.1 -11.8 -14.15 -12.7 -14.2 -13.55 -14.9 -14.2 -15.55 -14.75 -16.45 -14.7 L-16.9 -14.6 -16.45 -14.7 Q-15.55 -14.75 -14.9 -14.2 -14.2 -13.55 -14.15 -12.7 -14.1 -11.8 -14.65 -11.15 -15.25 -10.5 -16.15 -10.45 L-17.05 -10.6 -17.45 -10.75 -17.65 -10.85 -17.7 -10.95 Q-18.35 -11.5 -18.4 -12.4 -18.45 -13.25 -17.95 -14.0 L-17.75 -14.15 -17.35 -14.45 -16.9 -14.6 -16.85 -15.7 -16.85 -15.75 -16.3 -15.45 -16.25 -15.4 -16.15 -15.4 -15.4 -15.3 -15.25 -15.3 Q-14.3 -15.35 -13.7 -16.05 -13.1 -16.75 -13.15 -17.7 -13.25 -18.7 -13.95 -19.3 -14.65 -19.9 -15.6 -19.85 L-15.65 -19.85 -16.1 -19.75 -15.7 -21.1 -15.15 -22.4 -14.15 -24.15 -12.8 -26.5 -8.75 -26.15 -7.25 -25.7 -6.75 -25.5 -6.55 -25.5 -6.2 -25.1 M-8.95 -16.75 L-9.05 -18.15 -8.95 -16.75 M-12.1 -22.3 L-12.1 -19.45 -8.4 -19.45 -8.45 -22.35 -12.1 -22.3 M-11.85 -15.25 L-11.8 -12.9 -8.85 -12.85 -8.8 -15.25 -11.85 -15.25 M-16.85 -15.7 L-16.3 -15.45 -16.85 -15.7 M-10.8 -16.65 L-10.9 -18.05 -10.8 -16.65" fill="#b39a82" fill-rule="evenodd" stroke="none"/>
    <path d="M-14.15 -24.15 L-15.15 -22.4 -15.7 -21.1 -17.0 -21.9 -16.25 -24.5 -15.0 -25.0 -14.15 -24.15" fill="#98a4a4" fill-rule="evenodd" stroke="none"/>
    <path d="M-16.1 -19.75 L-15.65 -19.85 -15.6 -19.85 Q-14.65 -19.9 -13.95 -19.3 -13.25 -18.7 -13.15 -17.7 -13.1 -16.75 -13.7 -16.05 -14.3 -15.35 -15.25 -15.3 L-15.4 -15.3 -16.15 -15.4 -16.25 -15.4 -16.3 -15.45 -16.85 -15.75 -16.95 -15.8 Q-17.65 -16.4 -17.7 -17.35 -17.8 -18.35 -17.2 -19.05 L-17.0 -19.3 -16.1 -19.75 M-16.25 -9.75 L-14.9 -9.75 Q-14.1 -10.3 -12.95 -10.35 L-11.55 -10.05 -10.95 -9.8 -9.7 -9.75 -8.05 -10.1 -8.0 -7.0 -8.0 -6.0 -9.75 -6.3 -10.9 -6.3 -11.5 -6.05 Q-12.25 -5.75 -12.95 -5.7 -14.05 -5.75 -14.95 -6.25 L-16.1 -6.3 -17.8 -5.95 -17.8 -10.1 -16.25 -9.75" fill="#cdbfa3" fill-rule="evenodd" stroke="none"/>
    <path d="M3.65 -25.05 L1.25 -25.5 1.0 -25.55 0.15 -25.7 Q-5.1 -26.35 -5.95 -24.9 L-6.2 -25.1 M-5.3 -12.45 L1.85 -13.0 1.95 -11.55 -5.35 -11.0 M4.85 -24.7 L5.15 -24.7 3.85 -25.8 Q-1.75 -28.0 -5.05 -27.2 -6.65 -26.8 -7.2 -25.9 L-6.75 -25.5" fill="none" stroke="#252323" stroke-linecap="round" stroke-linejoin="round" stroke-width="1.0"/>
    <path d="M-6.6 -7.4 L-6.55 -6.75 M-6.3 -5.3 L-6.2 -4.05 -5.4 -3.7 -1.45 -3.35 -1.3 -3.35 -0.9 -3.35 -0.75 -3.35 -0.3 -3.35 0.05 -3.4 0.2 -3.4 4.65 -3.75 4.55 -4.8 Q4.15 -7.35 4.3 -10.45 L4.5 -13.05 5.5 -16.05 Q6.2 -16.35 6.7 -17.2 L7.35 -19.65 Q7.5 -21.2 6.35 -22.65 L4.4 -24.85 M4.65 -3.75 L4.95 -3.75 5.3 -2.2 4.9 -2.05 4.55 -1.95 3.95 -1.85 -1.0 -1.4 -2.15 -1.45 -5.6 -1.65 -6.15 -1.7 -6.45 -3.25 -6.35 -4.15 -6.2 -4.05 M-12.1 -22.3 L-12.1 -19.45 -8.4 -19.45 -8.45 -22.35 M-11.85 -15.25 L-11.8 -12.9 -8.85 -12.85 -8.8 -15.25" fill="none" stroke="#56433d" stroke-linecap="round" stroke-linejoin="round" stroke-width="1.0"/>
    <path d="M-6.2 -25.1 L-5.8 -24.7 -5.9 -20.4 -6.65 -19.8 -6.15 -13.05 -5.3 -12.45 -5.35 -11.0 -5.35 -9.05 -6.4 -7.5 -6.6 -7.4 Q-7.2 -7.15 -8.0 -7.0 M-6.75 -25.5 L-6.55 -25.5 -6.2 -25.1 M-14.15 -24.15 L-12.8 -26.5 -8.75 -26.15 -7.25 -25.7 -6.75 -25.5 M-9.05 -18.15 L-8.95 -16.75 M-8.45 -22.35 L-12.1 -22.3 M-8.8 -15.25 L-11.85 -15.25 M-15.7 -21.1 L-15.15 -22.4 -14.15 -24.15 M-15.7 -21.1 L-16.1 -19.75 M-16.85 -15.7 L-16.9 -14.6 -16.45 -14.7 Q-15.55 -14.75 -14.9 -14.2 -14.2 -13.55 -14.15 -12.7 -14.1 -11.8 -14.65 -11.15 -15.25 -10.5 -16.15 -10.45 L-17.05 -10.6 -17.45 -10.75 -17.65 -10.85 -17.7 -10.95 Q-18.35 -11.5 -18.4 -12.4 -18.45 -13.25 -17.95 -14.0 L-17.75 -14.15 -17.35 -14.45 -16.9 -14.6 M-16.75 -10.45 L-16.25 -9.75 M-16.85 -15.75 L-16.85 -15.7 M-10.9 -18.05 L-10.8 -16.65" fill="none" stroke="#745b52" stroke-linecap="round" stroke-linejoin="round" stroke-width="1.0"/>
    <path d="M-16.1 -19.75 L-15.65 -19.85 -15.6 -19.85 Q-14.65 -19.9 -13.95 -19.3 -13.25 -18.7 -13.15 -17.7 -13.1 -16.75 -13.7 -16.05 -14.3 -15.35 -15.25 -15.3 L-15.4 -15.3 -16.15 -15.4 -16.25 -15.4 -16.3 -15.45 -16.85 -15.7 -16.95 -15.8 Q-17.65 -16.4 -17.7 -17.35 -17.8 -18.35 -17.2 -19.05 L-17.0 -19.3 -16.1 -19.75 M-16.25 -9.75 L-14.9 -9.75 Q-14.1 -10.3 -12.95 -10.35 L-11.55 -10.05 -10.95 -9.8 -9.7 -9.75 -8.05 -10.1 -8.0 -7.0 -8.0 -6.0 -9.75 -6.3 -10.9 -6.3 -11.5 -6.05 Q-12.25 -5.75 -12.95 -5.7 -14.05 -5.75 -14.95 -6.25 L-16.1 -6.3 -17.8 -5.95 -17.8 -10.1 -16.25 -9.75" fill="none" stroke="#95806e" stroke-linecap="round" stroke-linejoin="round" stroke-width="1.0"/>
    <path d="M-14.15 -24.15 L-15.0 -25.0 -16.25 -24.5 -17.0 -21.9 -15.7 -21.1" fill="none" stroke="#4c525b" stroke-linecap="round" stroke-linejoin="round" stroke-width="1.0"/>
    <path d="M1.6 -7.35 L1.75 -5.9 -7.1 -5.25 -7.25 -6.7 1.6 -7.35" fill="#4e3e39" fill-rule="evenodd" stroke="none"/>
    <path d="M1.6 -7.35 L-7.25 -6.7 -7.1 -5.25 1.75 -5.9 1.6 -7.35 Z" fill="none" stroke="#252323" stroke-linecap="round" stroke-linejoin="round" stroke-width="1.0"/>
    <path d="M2.65 -22.55 L3.7 -22.25 3.75 -18.05 2.75 -17.45 2.65 -22.55 M-13.9 -27.2 Q-11.75 -27.4 -9.4 -26.55 L-7.5 -25.65 Q-9.0 -25.85 -10.75 -25.65 L-13.1 -25.1 -15.0 -23.65 -15.55 -24.25 Q-15.3 -25.7 -14.6 -26.6 L-13.9 -27.2 M-15.4 -10.15 L-15.4 -5.9 -16.6 -5.9 -16.65 -10.15 -15.4 -10.15 M-11.25 -5.9 L-11.25 -10.2 -10.05 -10.2 -10.05 -5.95 -11.25 -5.9" fill="#917563" fill-rule="evenodd" stroke="none"/>
    <path d="M2.75 -17.45 L3.75 -18.05 3.7 -22.25 2.65 -22.55 2.75 -17.45 M2.05 -24.1 Q3.55 -25.4 4.75 -25.5 L8.3 -20.75 7.25 -15.45 5.2 -14.5 1.6 -16.35 0.85 -17.5 0.75 -22.85 2.05 -24.1 M1.2 -13.9 L5.55 -13.2 4.7 -10.0 1.1 -10.4 0.25 -11.45 0.35 -13.1 1.2 -13.9 M1.15 -8.25 L4.45 -8.7 5.0 -7.45 5.0 -6.4 4.8 -5.2 1.8 -4.8 0.8 -5.2 0.45 -7.35 1.15 -8.25 M2.2 -11.45 L2.35 -12.65 2.2 -11.45 M2.15 -5.95 L2.05 -7.2 2.15 -5.95" fill="#b39a82" fill-rule="evenodd" stroke="none"/>
    <path d="M2.75 -17.45 L3.75 -18.05 3.7 -22.25 2.65 -22.55 M2.05 -7.2 L2.15 -5.95 M2.35 -12.65 L2.2 -11.45 M-13.9 -27.2 L-14.6 -26.6 Q-15.3 -25.7 -15.55 -24.25 L-15.0 -23.65 -13.1 -25.1 -10.75 -25.65 Q-9.0 -25.85 -7.5 -25.65 L-9.4 -26.55 Q-11.75 -27.4 -13.9 -27.2 M-15.4 -10.15 L-15.4 -5.9 -16.6 -5.9 -16.65 -10.15 -15.4 -10.15 M-11.25 -5.9 L-10.05 -5.95 -10.05 -10.2 -11.25 -10.2 -11.25 -5.9" fill="none" stroke="#56433d" stroke-linecap="round" stroke-linejoin="round" stroke-width="1.0"/>
    <path d="M2.05 -24.1 Q3.55 -25.4 4.75 -25.5 L8.3 -20.75 7.25 -15.45 5.2 -14.5 1.6 -16.35 0.85 -17.5 0.75 -22.85 2.05 -24.1 M1.2 -13.9 L5.55 -13.2 4.7 -10.0 1.1 -10.4 0.25 -11.45 0.35 -13.1 1.2 -13.9 M1.15 -8.25 L0.45 -7.35 0.8 -5.2 1.8 -4.8 4.8 -5.2 5.0 -6.4 5.0 -7.45 4.45 -8.7 1.15 -8.25 Z" fill="none" stroke="#745b52" stroke-linecap="round" stroke-linejoin="round" stroke-width="1.0"/>
  </g>
</svg>
