<?xml version="1.0" encoding="UTF-8" standalone="no"?>
<svg xmlns:ffdec="https://www.free-decompiler.com/flash" xmlns:xlink="http://www.w3.org/1999/xlink" ffdec:objectType="shape" height="4.55px" width="5.2px" xmlns="http://www.w3.org/2000/svg">
  <g transform="matrix(1.0, 0.0, 0.0, 1.0, -86.5, -30.05)">
    <path d="M91.55 34.6 L91.0 34.1 91.1 34.15 91.1 34.1 91.25 34.15 91.15 34.05 90.9 33.65 90.9 33.5 90.8 33.35 90.6 32.8 90.95 33.25 90.95 33.2 91.25 33.5 91.35 33.6 91.55 34.0 91.7 34.35 91.55 34.2 91.55 34.6" fill="#7f1cde" fill-rule="evenodd" stroke="none"/>
    <path d="M87.75 31.75 L88.35 31.35 88.45 31.15 89.0 30.5 89.0 30.15 89.2 30.15 89.2 30.05 90.0 30.05 90.3 30.65 90.0 30.65 89.45 30.85 89.25 30.85 89.0 31.5 88.85 31.5 Q87.8 32.0 88.3 32.9 87.05 32.75 86.6 31.6 L86.5 31.6 86.5 31.35 86.9 31.75 87.75 31.75" fill="#2b1a3f" fill-rule="evenodd" stroke="none"/>
  </g>
</svg>
