<?xml version="1.0" encoding="UTF-8" standalone="no"?>
<svg xmlns:ffdec="https://www.free-decompiler.com/flash" xmlns:xlink="http://www.w3.org/1999/xlink" ffdec:objectType="shape" height="9.8px" width="16.25px" xmlns="http://www.w3.org/2000/svg">
  <g transform="matrix(1.0, 0.0, 0.0, 1.0, 0.2, 0.0)">
    <path d="M8.0 2.2 L8.95 1.9 10.2 4.15 14.0 4.65 Q15.5 5.85 15.55 6.5 L15.55 9.3 9.6 9.3 9.55 8.9 9.4 7.3 6.45 5.7 6.2 4.85 5.6 2.8 8.0 2.2 M3.65 8.45 L3.65 9.3 1.0 9.3 0.3 5.7 1.5 5.05 3.3 5.3 3.65 8.45 M14.35 8.0 L11.0 8.0 14.35 8.0" fill="#3c0000" fill-rule="evenodd" stroke="none"/>
    <path d="M8.0 2.2 L5.6 2.8 6.2 4.85 4.15 3.7 3.2 1.15 7.35 0.5 8.0 2.2" fill="#202020" fill-rule="evenodd" stroke="none"/>
    <path d="M6.2 4.85 L6.45 5.7 9.4 7.3 9.55 8.9 3.65 8.45 3.3 5.3 1.5 5.05 1.5 1.4 3.2 1.15 4.15 3.7 6.2 4.85" fill="#2c2c2c" fill-rule="evenodd" stroke="none"/>
    <path d="M9.55 8.9 L3.65 8.45 M1.5 5.05 L1.5 1.4 3.2 1.15 7.35 0.5 8.0 2.2 M3.2 1.15 L4.15 3.7 6.2 4.85" fill="none" stroke="#151515" stroke-linecap="round" stroke-linejoin="round" stroke-width="1.0"/>
    <path d="M9.55 8.9 L9.6 9.3 15.55 9.3 15.55 6.5 Q15.5 5.85 14.0 4.65 L10.2 4.15 8.95 1.9 8.0 2.2 5.6 2.8 6.2 4.85 6.45 5.7 9.4 7.3 9.55 8.9 M3.65 8.45 L3.65 9.3 1.0 9.3 0.3 5.7 1.5 5.05 3.3 5.3 3.65 8.45" fill="none" stroke="#1e0101" stroke-linecap="round" stroke-linejoin="round" stroke-width="1.0"/>
    <path d="M11.0 8.0 L14.35 8.0" fill="none" stroke="#2c0404" stroke-linecap="round" stroke-linejoin="round" stroke-width="1.0"/>
  </g>
</svg>
