<?xml version="1.0" encoding="UTF-8" standalone="no"?>
<svg xmlns:xlink="http://www.w3.org/1999/xlink" height="20.3px" width="20.8px" xmlns="http://www.w3.org/2000/svg">
  <g transform="matrix(1.0, 0.0, 0.0, 1.0, 10.7, 17.6)">
    <path d="M-1.0 -16.35 L2.05 -12.7 8.2 -12.5 Q8.9 -11.15 7.75 -10.55 0.6 -11.3 -1.35 -9.15 L-0.8 -11.35 -2.95 -12.9 -2.6 -14.2 -3.9 -15.4 -2.6 -14.2 -2.95 -12.9 -4.1 -11.5 -7.0 -10.35 Q-6.95 -11.05 -8.0 -13.2 L-8.0 -14.7 -3.9 -15.4 -2.3 -17.1 -1.0 -16.35 M-3.2 -1.2 L-4.7 -2.65 -5.45 -3.6 Q-6.65 -5.65 -6.8 -7.25 L-6.85 -7.65 -3.8 -7.85 -0.15 -4.05 2.55 -3.85 2.55 -0.5 Q-0.4 0.1 -3.2 -1.2 M-0.85 -2.75 L-3.7 -5.1 -0.85 -2.75" fill="#1d1616" fill-rule="evenodd" stroke="none"/>
    <path d="M8.2 -12.5 L2.05 -12.7 -1.0 -16.35 2.95 -15.95 Q5.0 -15.45 8.2 -12.5" fill="#694444" fill-rule="evenodd" stroke="none"/>
    <path d="M-6.6 -3.9 L-8.8 -4.5 -10.2 -9.5 -8.0 -13.2 Q-6.95 -11.05 -7.0 -10.35 L-6.85 -7.65 -6.8 -7.25 Q-6.65 -5.65 -5.45 -3.6 L-6.6 -3.9 M-8.35 -7.8 L-8.45 -8.8 -8.35 -7.8 M-7.9 -5.5 L-8.1 -6.65 -7.9 -5.5" fill="#3a2323" fill-rule="evenodd" stroke="none"/>
    <path d="M-4.7 -2.65 L-5.7 -1.25 -7.15 -2.1 -6.6 -3.9 -5.45 -3.6 -4.7 -2.65" fill="#181212" fill-rule="evenodd" stroke="none"/>
    <path d="M2.55 -0.5 L2.95 0.65 Q0.25 3.4 -3.2 0.6 L-3.2 -1.2 Q-0.4 0.1 2.55 -0.5" fill="#0f0b0b" fill-rule="evenodd" stroke="none"/>
    <path d="M-1.35 -9.15 Q0.6 -11.3 7.75 -10.55 7.45 -9.65 7.5 -8.25 7.55 -6.8 8.0 -6.0 4.6 -5.85 2.0 -6.85 1.55 -7.05 1.2 -7.2 -0.45 -8.05 -1.35 -9.15" fill="#ff0000" fill-rule="evenodd" stroke="none"/>
    <path d="M9.6 -3.85 Q9.65 -1.05 8.75 0.95 L5.7 -1.65 6.3 -4.1 9.6 -3.85" fill="#6c4646" fill-rule="evenodd" stroke="none"/>
    <path d="M-2.95 -12.9 L-0.8 -11.35 -1.35 -9.15 Q-0.45 -8.05 1.2 -7.2 1.55 -7.05 2.0 -6.85 4.6 -5.85 8.0 -6.0 L9.4 -6.0 9.6 -3.85 6.3 -4.1 5.7 -1.65 8.75 0.95 Q8.3 1.85 6.95 2.2 L2.55 -0.5 2.55 -3.85 -0.15 -4.05 -3.8 -7.85 -6.85 -7.65 -7.0 -10.35 -4.1 -11.5 -2.95 -12.9" fill="url(#gradient0)" fill-rule="evenodd" stroke="none"/>
    <path d="M-1.0 -16.35 L2.05 -12.7 8.2 -12.5 M-3.9 -15.4 L-2.6 -14.2 -2.95 -12.9 -4.1 -11.5 -7.0 -10.35 Q-6.95 -11.05 -8.0 -13.2 M9.6 -3.85 L6.3 -4.1 5.7 -1.65 8.75 0.95 M-8.45 -8.8 L-8.35 -7.8 M-6.85 -7.65 L-7.0 -10.35 M-8.1 -6.65 L-7.9 -5.5" fill="none" stroke="#140e0e" stroke-linecap="round" stroke-linejoin="round" stroke-width="1.0"/>
    <path d="M8.2 -12.5 Q5.0 -15.45 2.95 -15.95 L-1.0 -16.35 -2.3 -17.1 -3.9 -15.4 -8.0 -14.7 -8.0 -13.2 -10.2 -9.5 -8.8 -4.5 -6.6 -3.9 -7.15 -2.1 -5.7 -1.25 -4.7 -2.65 -3.2 -1.2 Q-0.4 0.1 2.55 -0.5 L2.95 0.65 Q0.25 3.4 -3.2 0.6 L-3.2 -1.2 M-2.95 -12.9 L-0.8 -11.35 -1.35 -9.15 Q0.6 -11.3 7.75 -10.55 8.9 -11.15 8.2 -12.5 M-1.35 -9.15 Q-0.45 -8.05 1.2 -7.2 1.55 -7.05 2.0 -6.85 4.6 -5.85 8.0 -6.0 L9.4 -6.0 9.6 -3.85 Q9.65 -1.05 8.75 0.95 8.3 1.85 6.95 2.2 L2.55 -0.5 2.55 -3.85 -0.15 -4.05 -3.8 -7.85 -6.85 -7.65 -6.8 -7.25 Q-6.65 -5.65 -5.45 -3.6 L-4.7 -2.65 M-5.45 -3.6 L-6.6 -3.9" fill="none" stroke="#0a0707" stroke-linecap="round" stroke-linejoin="round" stroke-width="1.0"/>
    <path d="M-3.7 -5.1 L-0.85 -2.75" fill="none" stroke="#070a0a" stroke-linecap="round" stroke-linejoin="round" stroke-width="1.0"/>
    <path d="M8.0 -6.0 Q7.55 -6.8 7.5 -8.25 7.45 -9.65 7.75 -10.55" fill="none" stroke="#000000" stroke-linecap="round" stroke-linejoin="round" stroke-opacity="0.3019608" stroke-width="1.0"/>
  </g>
  <defs>
    <radialGradient cx="0" cy="0" gradientTransform="matrix(0.0204, 0.0, 0.0, 0.0204, -3.8, -9.2)" gradientUnits="userSpaceOnUse" id="gradient0" r="819.2" spreadMethod="pad">
      <stop offset="0.0" stop-color="#381d1d"/>
      <stop offset="0.6588235294117647" stop-color="#3e2828"/>
      <stop offset="1.0" stop-color="#774d4d"/>
    </radialGradient>
  </defs>
</svg>
