<?xml version="1.0" encoding="UTF-8" standalone="no"?>
<svg xmlns:ffdec="https://www.free-decompiler.com/flash" xmlns:xlink="http://www.w3.org/1999/xlink" ffdec:objectType="shape" height="14.45px" width="21.05px" xmlns="http://www.w3.org/2000/svg">
  <g transform="matrix(1.0, 0.0, 0.0, 1.0, 7.1, 6.9)">
    <path d="M5.75 -1.35 L7.75 -0.7 10.45 -0.7 Q10.6 -1.05 12.4 0.2 L13.45 3.45 12.55 4.8 6.6 4.85 5.3 4.15 1.95 3.65 2.05 1.75 3.25 0.7 5.75 -1.35" fill="url(#gradient0)" fill-rule="evenodd" stroke="none"/>
    <path d="M-0.8 -6.4 L2.75 -6.3 5.75 -1.35 3.25 0.7 -0.75 -3.0 -0.8 -6.4" fill="url(#gradient1)" fill-rule="evenodd" stroke="none"/>
    <path d="M-6.45 1.3 L-6.6 0.5 -6.6 -0.85 -5.95 -6.4 -0.8 -6.4 -0.75 -3.0 3.25 0.7 2.05 1.75 1.95 3.65 0.7 5.15 -1.85 5.2 -3.4 2.9 -6.45 1.3" fill="url(#gradient2)" fill-rule="evenodd" stroke="none"/>
    <path d="M12.55 4.8 L12.8 5.75 11.3 7.05 -6.1 6.9 -6.45 1.3 -3.4 2.9 -1.85 5.2 0.7 5.15 1.95 3.65 5.3 4.15 6.6 4.85 12.55 4.8" fill="#333333" fill-rule="evenodd" stroke="none"/>
    <path d="M5.75 -1.35 L7.75 -0.7 10.45 -0.7 Q10.6 -1.05 12.4 0.2 L13.45 3.45 12.55 4.8 6.6 4.85 5.3 4.15 1.95 3.65 0.7 5.15 -1.85 5.2 -3.4 2.9 -6.45 1.3 -6.6 0.5 -6.6 -0.85 -5.95 -6.4 -0.8 -6.4 -0.75 -3.0 3.25 0.7 5.75 -1.35 M3.25 0.7 L2.05 1.75 1.95 3.65" fill="none" stroke="#666666" stroke-linecap="round" stroke-linejoin="round" stroke-width="1.0"/>
    <path d="M-0.8 -6.4 L2.75 -6.3 5.75 -1.35" fill="none" stroke="#000000" stroke-linecap="round" stroke-linejoin="round" stroke-width="1.0"/>
    <path d="M12.55 4.8 L12.8 5.75 11.3 7.05 -6.1 6.9 -6.45 1.3" fill="none" stroke="#251b1a" stroke-linecap="round" stroke-linejoin="round" stroke-width="1.0"/>
  </g>
  <defs>
    <radialGradient cx="0" cy="0" gradientTransform="matrix(0.009, 0.0, 0.0, 0.0092, 5.65, 0.75)" gradientUnits="userSpaceOnUse" id="gradient0" r="819.2" spreadMethod="pad">
      <stop offset="0.0" stop-color="#ffffff"/>
      <stop offset="1.0" stop-color="#999999"/>
    </radialGradient>
    <radialGradient cx="0" cy="0" gradientTransform="matrix(0.0059, 0.0, 0.0, 0.0059, 2.5, -2.85)" gradientUnits="userSpaceOnUse" id="gradient1" r="819.2" spreadMethod="pad">
      <stop offset="0.0" stop-color="#393c57"/>
      <stop offset="1.0" stop-color="#292930"/>
    </radialGradient>
    <radialGradient cx="0" cy="0" gradientTransform="matrix(0.0101, 0.0, 0.0, 0.0102, -5.55, -1.05)" gradientUnits="userSpaceOnUse" id="gradient2" r="819.2" spreadMethod="pad">
      <stop offset="0.0" stop-color="#ffffff"/>
      <stop offset="1.0" stop-color="#999999"/>
      <stop offset="1.0" stop-color="#333333"/>
    </radialGradient>
  </defs>
</svg>
