<?xml version="1.0" encoding="UTF-8" standalone="no"?>
<svg xmlns:xlink="http://www.w3.org/1999/xlink" height="21.1px" width="29.0px" xmlns="http://www.w3.org/2000/svg">
  <g transform="matrix(1.0, 0.0, 0.0, 1.0, 8.85, 5.65)">
    <path d="M4.5 2.3 L4.65 3.0 4.6 3.75 Q4.35 5.1 3.45 5.95 2.1 6.95 -0.4 6.6 L-1.7 4.85 Q1.2 6.45 2.25 5.05 3.2 3.6 2.25 2.3 L4.5 2.3" fill="#2e2e2e" fill-rule="evenodd" stroke="none"/>
    <path d="M9.3 8.5 Q11.0 7.85 11.55 6.45 12.15 4.6 13.7 4.1 L15.3 4.6 9.7 10.2 9.3 8.5" fill="url(#gradient0)" fill-rule="evenodd" stroke="none"/>
    <path d="M19.65 -0.75 L19.65 0.55 16.35 0.55 15.75 -0.75 19.65 -0.75 M16.95 -3.55 L14.25 -3.55 14.25 -5.15 16.1 -5.15 16.95 -4.35 16.95 -3.55 M13.7 4.1 Q12.15 4.6 11.55 6.45 11.0 7.85 9.3 8.5 L9.7 10.2 7.95 9.15 8.0 7.4 5.95 7.15 2.6 12.95 Q1.85 14.25 1.25 12.95 L-0.4 6.6 Q2.1 6.95 3.45 5.95 4.35 5.1 4.6 3.75 L4.65 3.0 4.5 2.3 18.75 2.3 18.75 4.6 15.3 4.6 13.7 4.1 M8.2 4.1 L6.2 4.1 Q5.6 5.15 6.3 5.85 L8.55 5.85 9.35 5.85 10.1 6.4 Q11.1 5.45 10.55 4.1 L8.2 4.1 M2.15 11.2 L4.7 6.85 2.15 11.2 M-3.1 -3.55 L-8.35 -3.55 -6.95 -4.4 -6.95 -5.1 -3.65 -5.1 -3.1 -3.55" fill="#353535" fill-rule="evenodd" stroke="none"/>
    <path d="M-0.65 12.75 L-2.25 13.05 -0.65 12.75 M-1.2 10.8 L-2.75 11.15 -1.2 10.8 M-1.7 8.8 L-3.3 9.15 -1.7 8.8 M-2.25 6.85 L-3.8 7.2 -2.25 6.85 M-2.15 5.0 L0.35 14.35 -2.25 14.95 -4.65 5.75 -2.15 5.0" fill="#7e6d53" fill-rule="evenodd" stroke="none"/>
    <path d="M8.55 5.85 L6.3 5.85 Q5.6 5.15 6.2 4.1 L8.2 4.1 Q7.8 5.05 8.55 5.85" fill="#161616" fill-rule="evenodd" stroke="none"/>
    <path d="M8.9 -3.85 L9.25 -3.85 M5.15 -3.85 L5.5 -3.85 M7.0 -3.85 L7.35 -3.85 M3.5 -3.85 L3.85 -3.85 M1.65 -3.85 L2.0 -3.85 M19.65 -0.75 L19.65 0.55 16.35 0.55 15.75 -0.75 19.65 -0.75 M12.4 -3.85 L12.75 -3.85 M10.75 -3.85 L11.1 -3.85 M16.95 -3.55 L16.95 -4.35 16.1 -5.15 14.25 -5.15 14.25 -3.55 M15.3 4.6 L18.75 4.6 18.75 2.3 M-0.4 6.6 L1.25 12.95 Q1.85 14.25 2.6 12.95 L5.95 7.15 8.0 7.4 7.95 9.15 9.7 10.2 15.3 4.6 M8.55 5.85 L6.3 5.85 Q5.6 5.15 6.2 4.1 L8.2 4.1 10.55 4.1 Q11.1 5.45 10.1 6.4 L9.35 5.85 8.55 5.85 M2.25 2.3 Q3.2 3.6 2.25 5.05 1.2 6.45 -1.7 4.85 L-0.4 6.6 M-2.05 -3.85 L-1.7 -3.85 M-3.1 -3.55 L-3.65 -5.1 -6.95 -5.1 -6.95 -4.4 -8.35 -3.55 M-0.2 -3.85 L0.15 -3.85" fill="none" stroke="#202020" stroke-linecap="round" stroke-linejoin="round" stroke-width="1.0"/>
    <path d="M9.3 8.5 Q11.0 7.85 11.55 6.45 12.15 4.6 13.7 4.1 M4.65 3.0 L4.6 3.75 Q4.35 5.1 3.45 5.95 M4.7 6.85 L2.15 11.2" fill="none" stroke="#272727" stroke-linecap="round" stroke-linejoin="round" stroke-width="1.0"/>
    <path d="M-5.45 6.85 L-5.2 5.8" fill="none" stroke="#171717" stroke-linecap="round" stroke-linejoin="round" stroke-width="1.0"/>
    <path d="M-4.65 5.75 L-2.25 14.95 0.35 14.35 -2.15 5.0" fill="none" stroke="#373737" stroke-linecap="round" stroke-linejoin="round" stroke-width="1.0"/>
    <path d="M-2.25 13.05 L-0.65 12.75 M-3.8 7.2 L-2.25 6.85 M-3.3 9.15 L-1.7 8.8 M-2.75 11.15 L-1.2 10.8" fill="none" stroke="#6d6047" stroke-linecap="round" stroke-linejoin="round" stroke-width="1.0"/>
  </g>
  <defs>
    <linearGradient gradientTransform="matrix(0.0037, 0.0, 0.0, 0.0037, 12.3, 7.15)" gradientUnits="userSpaceOnUse" id="gradient0" spreadMethod="pad" x1="-819.2" x2="819.2">
      <stop offset="0.0" stop-color="#353535"/>
      <stop offset="1.0" stop-color="#2d2d2d"/>
    </linearGradient>
  </defs>
</svg>
