<?xml version="1.0" encoding="UTF-8" standalone="no"?>
<svg xmlns:ffdec="https://www.free-decompiler.com/flash" xmlns:xlink="http://www.w3.org/1999/xlink" ffdec:objectType="shape" height="77.4px" width="27.85px" xmlns="http://www.w3.org/2000/svg">
  <g transform="matrix(1.0, 0.0, 0.0, 1.0, 0.5, 13.7)">
    <path d="M13.2 26.3 L13.2 23.25 15.4 23.25 15.4 28.4 15.4 47.25 13.2 48.0 13.2 26.3" fill="url(#gradient0)" fill-rule="evenodd" stroke="none"/>
    <path d="M13.2 26.3 L10.25 24.35 10.25 21.8 9.2 21.2 9.2 17.4 11.7 17.4 16.95 20.95 16.95 26.85 15.4 28.4 15.4 23.25 13.2 23.25 13.2 26.3 M2.6 3.5 L0.0 0.5 5.8 0.0 8.5 2.05 18.0 1.45 19.5 3.9 16.5 5.65 16.85 11.45 19.6 12.2 19.6 16.95 16.7 17.95 10.25 13.75 6.8 13.75 6.8 9.15 8.2 9.15 7.0 7.0 4.65 7.0 2.6 3.5 M15.4 47.25 L15.4 51.3 16.5 52.6 17.05 57.65 18.5 57.65 20.3 58.75 23.25 58.2 21.65 61.3 16.0 63.2 15.35 62.45 9.9 62.45 6.3 59.4 8.0 57.75 10.7 59.5 12.35 59.5 12.35 57.8 11.2 56.75 11.2 53.2 11.7 52.15 11.7 50.3 13.2 49.1 13.2 48.0 15.4 47.25 M15.4 51.8 L15.4 51.3 15.4 51.8" fill="#0e0909" fill-rule="evenodd" stroke="none"/>
    <path d="M2.6 3.5 L4.65 7.0 7.0 7.0 8.2 9.15 6.8 9.15 6.8 13.75 10.25 13.75 16.7 17.95 19.6 16.95 19.6 12.2 16.85 11.45 16.5 5.65 19.5 3.9 18.0 1.45 8.5 2.05 5.8 0.0 0.0 0.5 2.6 3.5 M15.4 28.4 L16.95 26.85 16.95 20.95 11.7 17.4 9.2 17.4 9.2 21.2 10.25 21.8 10.25 24.35 13.2 26.3 13.2 23.25 15.4 23.25 15.4 28.4 15.4 47.25 15.4 51.3 16.5 52.6 17.05 57.65 18.5 57.65 20.3 58.75 23.25 58.2 21.65 61.3 16.0 63.2 15.35 62.45 9.9 62.45 6.3 59.4 8.0 57.75 10.7 59.5 12.35 59.5 12.35 57.8 11.2 56.75 11.2 53.2 11.7 52.15 11.7 50.3 13.2 49.1 13.2 48.0 13.2 26.3 M13.2 48.0 L15.4 47.25 M15.4 51.3 L15.4 51.8" fill="none" stroke="#000000" stroke-linecap="round" stroke-linejoin="round" stroke-width="1.0"/>
    <path d="M10.35 10.3 L10.35 11.35 10.3 10.6 10.35 10.3" fill="#260e0e" fill-rule="evenodd" stroke="none"/>
    <path d="M8.15 -1.5 L8.95 -2.55 Q10.3 -3.9 12.2 -3.9 L12.6 -3.85 Q14.25 -3.75 15.45 -2.55 L15.75 -2.2 Q16.8 -0.95 16.8 0.7 16.8 2.6 15.45 3.95 14.1 5.3 12.2 5.3 10.3 5.3 8.95 3.95 7.6 2.6 7.6 0.7 7.6 -0.5 8.15 -1.5 M10.35 11.35 L10.35 10.3 Q10.4 9.8 10.8 9.4 11.3 8.9 12.0 8.9 12.7 8.9 13.2 9.4 L13.65 10.2 13.7 10.6 13.7 10.65 14.0 13.45 15.65 14.7 15.3 21.2 13.45 21.2 11.4 19.9 10.35 11.35" fill="#202020" fill-rule="evenodd" stroke="none"/>
    <path d="M12.6 -3.85 L14.7 -7.75 18.6 -8.4 19.3 -9.5 19.3 -11.75 26.85 -11.25 26.85 -10.2 23.0 -10.2 21.45 -6.95 16.6 -5.55 15.75 -2.2 15.45 -2.55 Q14.25 -3.75 12.6 -3.85" fill="#191919" fill-rule="evenodd" stroke="none"/>
    <path d="M12.6 -3.85 L12.2 -3.9 Q10.3 -3.9 8.95 -2.55 L8.15 -1.5 5.95 -2.45 1.2 -1.95 1.2 -4.0 4.6 -5.25 6.3 -7.15 11.8 -7.15 13.2 -9.35 10.25 -10.5 10.25 -12.0 Q15.75 -14.2 26.85 -12.35 L26.85 -11.25 19.3 -11.75 19.3 -9.5 18.6 -8.4 14.7 -7.75 12.6 -3.85" fill="url(#gradient1)" fill-rule="evenodd" stroke="none"/>
    <path d="M10.35 11.35 L10.35 10.3 Q10.4 9.8 10.8 9.4 11.3 8.9 12.0 8.9 12.7 8.9 13.2 9.4 L13.65 10.2 13.7 10.6 13.7 10.65 14.0 13.45 15.65 14.7 15.3 21.2 13.45 21.2 11.4 19.9 10.35 11.35" fill="none" stroke="#121212" stroke-linecap="round" stroke-linejoin="round" stroke-width="1.0"/>
    <path d="M8.15 -1.5 L8.95 -2.55 Q10.3 -3.9 12.2 -3.9 L12.6 -3.85 Q14.25 -3.75 15.45 -2.55 L15.75 -2.2 Q16.8 -0.95 16.8 0.7 16.8 2.6 15.45 3.95 14.1 5.3 12.2 5.3 10.3 5.3 8.95 3.95 7.6 2.6 7.6 0.7 7.6 -0.5 8.15 -1.5 L5.95 -2.45 1.2 -1.95 1.2 -4.0 4.6 -5.25 6.3 -7.15 11.8 -7.15 13.2 -9.35 10.25 -10.5 10.25 -12.0 Q15.75 -14.2 26.85 -12.35 L26.85 -11.25 26.85 -10.2 23.0 -10.2 21.45 -6.95 16.6 -5.55 15.75 -2.2" fill="none" stroke="#0e0e0e" stroke-linecap="round" stroke-linejoin="round" stroke-width="1.0"/>
    <path d="M14.7 0.8 Q14.7 1.85 13.95 2.6 13.2 3.35 12.15 3.35 11.1 3.35 10.35 2.6 9.6 1.85 9.6 0.8 9.6 -0.25 10.35 -1.0 11.1 -1.75 12.15 -1.75 13.2 -1.75 13.95 -1.0 14.7 -0.25 14.7 0.8" fill="url(#gradient2)" fill-rule="evenodd" stroke="none"/>
    <path d="M14.7 0.8 Q14.7 1.85 13.95 2.6 13.2 3.35 12.15 3.35 11.1 3.35 10.35 2.6 9.6 1.85 9.6 0.8 9.6 -0.25 10.35 -1.0 11.1 -1.75 12.15 -1.75 13.2 -1.75 13.95 -1.0 14.7 -0.25 14.7 0.8 M20.25 16.15 L20.25 13.05 M2.3 4.25 L3.25 5.95 M12.25 55.7 L12.25 54.25" fill="none" stroke="#fd333e" stroke-linecap="round" stroke-linejoin="round" stroke-width="1.0"/>
  </g>
  <defs>
    <linearGradient gradientTransform="matrix(0.0, 0.0171, -0.0151, 0.0, 14.35, 35.65)" gradientUnits="userSpaceOnUse" id="gradient0" spreadMethod="pad" x1="-819.2" x2="819.2">
      <stop offset="0.0" stop-color="#000000"/>
      <stop offset="0.5137254901960784" stop-color="#4d1c1c"/>
      <stop offset="1.0" stop-color="#040100"/>
    </linearGradient>
    <radialGradient cx="0" cy="0" gradientTransform="matrix(0.0307, 0.0, 0.0, 0.024, 16.45, -5.1)" gradientUnits="userSpaceOnUse" id="gradient1" r="819.2" spreadMethod="pad">
      <stop offset="0.0" stop-color="#191919"/>
      <stop offset="0.5137254901960784" stop-color="#202020"/>
    </radialGradient>
    <radialGradient cx="0" cy="0" gradientTransform="matrix(0.0032, 0.0, 0.0, 0.0032, 12.15, 0.75)" gradientUnits="userSpaceOnUse" id="gradient2" r="819.2" spreadMethod="pad">
      <stop offset="0.0" stop-color="#191919"/>
      <stop offset="0.5137254901960784" stop-color="#202020"/>
    </radialGradient>
  </defs>
</svg>
