<?xml version="1.0" encoding="UTF-8" standalone="no"?>
<svg xmlns:ffdec="https://www.free-decompiler.com/flash" xmlns:xlink="http://www.w3.org/1999/xlink" ffdec:objectType="shape" height="27.6px" width="51.6px" xmlns="http://www.w3.org/2000/svg">
  <g transform="matrix(1.0, 0.0, 0.0, 1.0, 7.45, 3.9)">
    <path d="M44.0 15.25 Q42.9 20.5 34.65 22.65 26.35 24.8 15.7 22.6 5.1 20.35 -1.65 15.1 -8.4 9.85 -7.3 4.6 -6.2 -0.65 2.05 -2.8 10.35 -5.0 20.95 -2.75 31.6 -0.55 38.35 4.75 45.1 10.0 44.0 15.25" fill="url(#gradient0)" fill-rule="evenodd" stroke="none"/>
    <path d="M4.75 12.35 L1.7 13.55 Q1.6 11.45 0.0 9.5 L0.6 7.4 4.1 6.3 5.35 3.8 Q12.4 2.9 18.3 4.35 L20.2 1.7 Q29.9 5.15 36.7 11.7 39.5 14.5 40.05 17.7 31.2 10.2 22.05 9.95 L20.75 8.3 17.3 8.3 16.35 11.25 17.95 13.85 13.05 12.9 12.3 11.25 8.55 10.4 8.35 12.35 4.75 12.35 M9.65 1.85 L9.65 0.0 18.4 1.2 17.75 2.5 9.65 1.85" fill="#cccccc" fill-opacity="0.7294118" fill-rule="evenodd" stroke="none"/>
    <path d="M4.75 12.35 L1.7 13.55 Q1.6 11.45 0.0 9.5 L0.6 7.4 4.1 6.3 5.35 3.8 Q12.4 2.9 18.3 4.35 L20.2 1.7 Q29.9 5.15 36.7 11.7 39.5 14.5 40.05 17.7 31.2 10.2 22.05 9.95 L20.75 8.3 17.3 8.3 16.35 11.25 17.95 13.85 13.05 12.9 12.3 11.25 8.55 10.4 8.35 12.35 4.75 12.35 M9.65 1.85 L9.65 0.0 18.4 1.2 17.75 2.5 9.65 1.85 Z" fill="none" stroke="#ffffff" stroke-linecap="round" stroke-linejoin="round" stroke-width="1.0"/>
  </g>
  <defs>
    <radialGradient cx="0" cy="0" gradientTransform="matrix(0.0249, 0.0052, -0.0032, 0.0155, 18.35, 9.9)" gradientUnits="userSpaceOnUse" id="gradient0" r="819.2" spreadMethod="pad">
      <stop offset="0.0" stop-color="#ffffff"/>
      <stop offset="1.0" stop-color="#ffffff" stop-opacity="0.0"/>
    </radialGradient>
  </defs>
</svg>
