<?xml version="1.0" encoding="UTF-8" standalone="no"?>
<svg xmlns:xlink="http://www.w3.org/1999/xlink" height="20.15px" width="26.15px" xmlns="http://www.w3.org/2000/svg">
  <g transform="matrix(1.0, 0.0, 0.0, 1.0, 11.8, 15.95)">
    <path d="M13.05 -0.35 L12.65 -0.3 9.6 0.9 8.9 -0.9 7.25 -1.4 5.2 -5.0 7.05 -6.25 7.2 -6.35 7.7 -6.65 8.3 -6.9 11.75 -7.6 12.05 -7.2 12.85 -5.7 Q13.9 -3.35 13.25 -0.8 L13.05 -0.35" fill="url(#gradient0)" fill-rule="evenodd" stroke="none"/>
    <path d="M11.75 -7.6 L12.05 -7.2 12.85 -5.7 Q13.9 -3.35 13.25 -0.8 L13.05 -0.35" fill="none" stroke="#228115" stroke-linecap="round" stroke-linejoin="miter-clip" stroke-miterlimit="4.0" stroke-width="1.0"/>
    <path d="M6.0 -13.4 L7.3 -12.85 7.7 -12.55 9.05 -11.5 10.3 -10.45 10.55 -10.15 Q8.55 -9.95 6.45 -8.95 L6.15 -8.85 5.4 -8.6 3.5 -7.6 2.85 -7.1 2.75 -7.05 2.65 -7.1 2.55 -7.1 Q1.85 -7.15 1.45 -7.75 L1.05 -8.35 Q1.55 -9.8 4.35 -12.2 L4.65 -12.45 6.0 -13.4 M2.8 1.0 L1.2 1.3 -0.5 0.9 -2.15 -0.05 -3.1 -2.45 -3.3 -3.5 0.5 -2.45 2.6 0.65 2.7 0.8 2.8 1.0" fill="#242b30" fill-rule="evenodd" stroke="none"/>
    <path d="M-0.85 -14.4 L-0.5 -14.5 -0.4 -14.55 -0.1 -14.65 2.45 -15.1 4.45 -15.1 Q5.55 -15.05 7.0 -14.15 L6.0 -13.4 4.65 -12.45 4.35 -12.2 Q1.55 -9.8 1.05 -8.35 L1.35 -7.75 Q1.75 -7.15 2.55 -7.1 L2.65 -7.1 2.75 -7.05 2.85 -7.1 3.5 -7.6 5.4 -8.6 6.15 -8.85 6.45 -8.95 Q7.35 -9.4 8.4 -9.65 L8.3 -6.9 7.7 -6.65 7.2 -6.35 7.0 -6.3 7.05 -6.25 5.2 -5.0 2.95 -3.4 4.1 -1.35 7.25 -1.4 8.9 -0.9 9.6 0.9 9.6 3.6 3.25 1.7 1.7 -4.65 -2.05 -7.15 -4.9 -5.6 -11.3 -7.3 -8.35 -10.0 -8.3 -10.0 -8.25 -10.05 -7.75 -10.45 -6.85 -9.5 -6.6 -9.25 -4.85 -10.15 -0.45 -11.6 -0.85 -14.4 M-2.2 -8.8 L-3.95 -7.65 -2.2 -8.8 M0.95 -10.65 L-0.85 -9.6 0.95 -10.65" fill="#3f474c" fill-rule="evenodd" stroke="none"/>
    <path d="M7.2 -6.35 L7.05 -6.25 7.0 -6.3 7.2 -6.35" fill="url(#gradient1)" fill-rule="evenodd" stroke="none"/>
    <path d="M8.4 -9.65 L12.05 -10.1 13.35 -7.95 10.35 -7.5 8.3 -6.9 8.4 -9.65 M5.2 -5.0 L7.25 -1.4 4.1 -1.35 2.95 -3.4 5.2 -5.0 M3.25 1.7 L2.8 1.0 2.7 0.8 2.6 0.65 0.5 -2.45 -3.3 -3.5 -3.65 -3.6 -4.7 -1.6 -6.6 -2.35 Q-8.65 -3.2 -10.15 -3.3 L-11.3 -7.3 -4.9 -5.6 -2.05 -7.15 1.7 -4.65 3.25 1.7 M-7.75 -10.5 L-7.75 -10.55 -8.45 -11.3 -6.65 -12.85 -6.35 -13.0 -6.1 -13.1 -6.1 -13.25 -5.45 -13.6 -3.85 -14.55 Q-2.3 -15.35 -1.0 -15.45 L-0.85 -14.4 -0.45 -11.6 -4.85 -10.15 -6.6 -9.25 -6.85 -9.5 -7.75 -10.5 M-5.45 -13.6 L-6.1 -13.1 -5.45 -13.6" fill="#353a40" fill-rule="evenodd" stroke="none"/>
    <path d="M9.6 0.9 L12.65 -0.3 13.0 -0.35 13.05 -0.35 13.7 -0.4 13.85 1.35 13.8 1.7 13.4 2.45 12.15 3.4 11.1 3.65 9.6 3.6 9.6 0.9" fill="#505050" fill-rule="evenodd" stroke="none"/>
    <path d="M13.35 -7.95 L8.3 -6.9 10.35 -7.5 13.35 -7.95" fill="url(#gradient2)" fill-rule="evenodd" stroke="none"/>
    <path d="M7.7 -12.55 L9.2 -11.45 10.3 -10.45 9.05 -11.5 7.7 -12.55" fill="url(#gradient3)" fill-rule="evenodd" stroke="none"/>
    <path d="M-6.85 -9.5 L-7.75 -10.45 -7.75 -10.5 -6.85 -9.5" fill="url(#gradient4)" fill-rule="evenodd" stroke="none"/>
    <path d="M1.2 1.3 Q-0.7 1.3 -2.15 -0.05 L-0.5 0.9 1.2 1.3" fill="url(#gradient5)" fill-rule="evenodd" stroke="none"/>
    <path d="M6.0 -13.4 L7.3 -12.85 7.7 -12.55 9.05 -11.5 10.3 -10.45 10.55 -10.15" fill="none" stroke="#22262a" stroke-linecap="round" stroke-linejoin="miter-clip" stroke-miterlimit="4.0" stroke-width="1.0"/>
    <path d="M-0.85 -14.4 L-0.5 -14.5 -0.4 -14.55 -0.1 -14.65 2.45 -15.1 4.45 -15.1 Q5.55 -15.05 7.0 -14.15 L6.0 -13.4 4.65 -12.45 4.35 -12.2 Q1.55 -9.8 1.05 -8.35 L1.35 -7.75 Q1.75 -7.15 2.55 -7.1 L2.65 -7.1 2.75 -7.05 2.85 -7.1 3.5 -7.6 5.4 -8.6 6.15 -8.85 6.45 -8.95 Q7.35 -9.4 8.4 -9.65 L12.05 -10.1 13.35 -7.95 10.35 -7.5 8.3 -6.9 7.7 -6.65 7.2 -6.35 7.05 -6.25 5.2 -5.0 7.25 -1.4 8.9 -0.9 9.6 0.9 9.6 3.6 3.25 1.7 2.8 1.0 1.2 1.3 -0.5 0.9 -2.15 -0.05 -3.1 -2.45 -3.3 -3.5 -3.65 -3.6 -4.7 -1.6 -6.6 -2.35 Q-8.65 -3.2 -10.15 -3.3 L-11.3 -7.3 -8.35 -10.0 -8.3 -10.0 -8.25 -10.05 -7.75 -10.5 -7.75 -10.55 -8.45 -11.3 -6.65 -12.85 -6.35 -13.0 -6.1 -13.1 -5.45 -13.6 -3.85 -14.55 Q-2.3 -15.35 -1.0 -15.45 L-0.85 -14.4 M2.8 1.0 L2.7 0.8 2.6 0.65 0.5 -2.45 -3.3 -3.5" fill="none" stroke="#22262a" stroke-linecap="round" stroke-linejoin="round" stroke-width="1.0"/>
    <path d="M-0.85 -14.4 L-0.45 -11.6 -4.85 -10.15 -6.6 -9.25 -6.85 -9.5 -7.75 -10.45 M8.3 -6.9 L8.4 -9.65 M7.25 -1.4 L4.1 -1.35 2.95 -3.4 5.2 -5.0" fill="none" stroke="#292e33" stroke-linecap="round" stroke-linejoin="round" stroke-width="1.0"/>
    <path d="M9.6 0.9 L12.65 -0.3 13.0 -0.35 M13.05 -0.35 L13.7 -0.4 13.85 1.35 13.8 1.7 13.4 2.45 12.15 3.4 11.1 3.65 9.95 3.65 9.6 3.6" fill="none" stroke="#212121" stroke-linecap="round" stroke-linejoin="round" stroke-width="1.0"/>
    <path d="M-3.95 -7.65 L-2.2 -8.8 M-0.85 -9.6 L0.95 -10.65" fill="none" stroke="#292e33" stroke-linecap="round" stroke-linejoin="miter-clip" stroke-miterlimit="4.0" stroke-width="1.0"/>
  </g>
  <defs>
    <linearGradient gradientTransform="matrix(0.0044, -5.0E-4, 5.0E-4, 0.0045, 9.15, -3.5)" gradientUnits="userSpaceOnUse" id="gradient0" spreadMethod="pad" x1="-819.2" x2="819.2">
      <stop offset="0.0" stop-color="#0e7700"/>
      <stop offset="1.0" stop-color="#2bc517"/>
    </linearGradient>
    <linearGradient gradientTransform="matrix(0.0044, -5.0E-4, 5.0E-4, 0.0045, 9.15, -3.5)" gradientUnits="userSpaceOnUse" id="gradient1" spreadMethod="pad" x1="-819.2" x2="819.2">
      <stop offset="0.0" stop-color="#0e7700"/>
      <stop offset="1.0" stop-color="#2bc517"/>
    </linearGradient>
    <linearGradient gradientTransform="matrix(0.0031, -4.0E-4, 2.0E-4, 0.0016, 1166.25, -169.85)" gradientUnits="userSpaceOnUse" id="gradient2" spreadMethod="pad" x1="-819.2" x2="819.2">
      <stop offset="0.0" stop-color="#353a40"/>
      <stop offset="1.0" stop-color="#000000"/>
    </linearGradient>
    <linearGradient gradientTransform="matrix(0.0058, -8.0E-4, 5.0E-4, 0.0035, 36.85, -14.75)" gradientUnits="userSpaceOnUse" id="gradient3" spreadMethod="pad" x1="-819.2" x2="819.2">
      <stop offset="0.0" stop-color="#242b30"/>
      <stop offset="1.0" stop-color="#000000"/>
    </linearGradient>
    <linearGradient gradientTransform="matrix(1.0E-4, 0.0, 0.0, 1.0E-4, 4171.55, -587.1)" gradientUnits="userSpaceOnUse" id="gradient4" spreadMethod="pad" x1="-819.2" x2="819.2">
      <stop offset="0.0" stop-color="#3f474c"/>
      <stop offset="1.0" stop-color="#000000"/>
    </linearGradient>
    <linearGradient gradientTransform="matrix(0.0033, -5.0E-4, 5.0E-4, 0.0033, 2.75, -1.7)" gradientUnits="userSpaceOnUse" id="gradient5" spreadMethod="pad" x1="-819.2" x2="819.2">
      <stop offset="0.0" stop-color="#242b30"/>
      <stop offset="1.0" stop-color="#000000"/>
    </linearGradient>
  </defs>
</svg>
