<?xml version="1.0" encoding="UTF-8" standalone="no"?>
<svg xmlns:ffdec="https://www.free-decompiler.com/flash" xmlns:xlink="http://www.w3.org/1999/xlink" ffdec:objectType="shape" height="10.55px" width="27.65px" xmlns="http://www.w3.org/2000/svg">
  <g transform="matrix(1.0, 0.0, 0.0, 1.0, 2.0, 4.8)">
    <path d="M7.15 -2.75 Q9.7 -6.1 13.3 -2.1 L15.05 -0.2 20.75 2.45 4.7 2.45 7.15 -2.75" fill="#410e0e" fill-rule="evenodd" stroke="none"/>
    <path d="M7.15 -2.75 L4.7 2.45 20.75 2.45 15.05 -0.2 13.3 -2.1 Q9.7 -6.1 7.15 -2.75 Z" fill="none" stroke="#250606" stroke-linecap="round" stroke-linejoin="round" stroke-width="1.0"/>
    <path d="M10.9 2.9 L9.45 4.45 Q7.75 3.65 5.6 4.5 2.0 3.65 -1.5 5.25 L-0.4 3.15 Q1.35 0.7 5.15 -0.45 6.5 1.55 10.9 2.9" fill="url(#gradient0)" fill-rule="evenodd" stroke="none"/>
    <path d="M22.7 1.2 Q24.75 2.45 25.15 4.75 22.75 4.15 19.65 4.85 L17.75 4.0 13.95 4.65 Q17.95 2.05 16.8 -1.35 20.5 -0.15 22.7 1.2" fill="url(#gradient1)" fill-rule="evenodd" stroke="none"/>
    <path d="M10.9 2.9 Q6.5 1.55 5.15 -0.45 1.35 0.7 -0.4 3.15 L-1.5 5.25 Q2.0 3.65 5.6 4.5 7.75 3.65 9.45 4.45 L10.9 2.9 M22.7 1.2 Q20.5 -0.15 16.8 -1.35 17.95 2.05 13.95 4.65 L17.75 4.0 19.65 4.85 Q22.75 4.15 25.15 4.75 24.75 2.45 22.7 1.2 Z" fill="none" stroke="#040a2e" stroke-linecap="round" stroke-linejoin="round" stroke-width="1.0"/>
    <path d="M2.3 2.25 Q2.35 1.15 4.05 2.7 4.6 3.6 3.7 3.5 2.15 3.05 2.3 2.25 M4.8 1.15 Q5.25 0.5 5.7 1.45 5.75 2.0 5.2 1.95 4.45 1.65 4.8 1.15 M18.75 0.9 Q19.2 0.25 19.65 1.2 19.7 1.75 19.15 1.7 18.4 1.4 18.75 0.9" fill="#3c0707" fill-opacity="0.29803923" fill-rule="evenodd" stroke="none"/>
  </g>
  <defs>
    <radialGradient cx="0" cy="0" gradientTransform="matrix(0.0313, 0.0, 0.0, 0.0313, 12.5, -13.15)" gradientUnits="userSpaceOnUse" id="gradient0" r="819.2" spreadMethod="pad">
      <stop offset="0.0" stop-color="#2fd7c9"/>
      <stop offset="0.2627450980392157" stop-color="#3f65ff"/>
      <stop offset="0.5333333333333333" stop-color="#271bc4"/>
      <stop offset="1.0" stop-color="#b41108"/>
    </radialGradient>
    <radialGradient cx="0" cy="0" gradientTransform="matrix(0.0224, 0.0, 0.0, 0.0224, 11.6, -7.15)" gradientUnits="userSpaceOnUse" id="gradient1" r="819.2" spreadMethod="pad">
      <stop offset="0.0" stop-color="#2fd7c9"/>
      <stop offset="0.2627450980392157" stop-color="#3f65ff"/>
      <stop offset="0.5333333333333333" stop-color="#271bc4"/>
      <stop offset="0.9686274509803922" stop-color="#aa1215"/>
      <stop offset="1.0" stop-color="#b41108"/>
    </radialGradient>
  </defs>
</svg>
