<?xml version="1.0" encoding="UTF-8" standalone="no"?>
<svg xmlns:ffdec="https://www.free-decompiler.com/flash" xmlns:xlink="http://www.w3.org/1999/xlink" ffdec:objectType="shape" height="17.7px" width="40.05px" xmlns="http://www.w3.org/2000/svg">
  <g transform="matrix(1.0, 0.0, 0.0, 1.0, 0.0, 0.0)">
    <path d="M4.75 12.35 L1.7 13.55 Q1.6 11.45 0.0 9.5 L0.6 7.4 4.1 6.3 5.35 3.8 Q12.4 2.9 18.3 4.35 L20.2 1.7 Q29.9 5.15 36.7 11.7 39.5 14.5 40.05 17.7 31.2 10.2 22.05 9.95 L20.75 8.3 17.3 8.3 16.35 11.25 17.95 13.85 13.05 12.9 12.3 11.25 8.55 10.4 8.35 12.35 4.75 12.35 M9.65 1.85 L9.65 0.0 18.4 1.2 17.75 2.5 9.65 1.85" fill="#ffffff" fill-rule="evenodd" stroke="none"/>
  </g>
</svg>
