<?xml version="1.0" encoding="UTF-8" standalone="no"?>
<svg xmlns:ffdec="https://www.free-decompiler.com/flash" xmlns:xlink="http://www.w3.org/1999/xlink" ffdec:objectType="shape" height="17.0px" width="8.75px" xmlns="http://www.w3.org/2000/svg">
  <g transform="matrix(1.0, 0.0, 0.0, 1.0, 7.05, 2.6)">
    <path d="M-3.75 8.6 L-4.65 5.55 Q-3.8 5.6 -3.6 5.85 L-3.35 6.2 -3.0 6.65 -2.85 6.95 -2.35 6.95 -2.1 7.1 -0.9 7.9 -0.65 7.9 -0.65 8.15 -0.4 8.15 -0.25 8.45 0.3 8.45 0.45 11.7 0.7 11.7 0.7 12.15 1.1 12.15 1.1 12.5 1.25 12.75 1.7 13.05 1.7 13.55 1.5 13.95 1.5 14.35 1.2 14.4 0.85 14.15 0.65 14.15 -0.4 13.25 -2.25 12.65 -2.25 12.15 -2.4 11.85 -2.6 11.65 -2.6 9.65 -2.8 9.65 -3.15 9.5 -3.15 9.1 -3.75 8.6 M-4.65 4.0 L-4.75 3.5 -4.9 3.1 -5.1 2.85 -5.5 2.85 -5.8 2.4 -7.05 2.1 -7.05 0.15 -6.8 0.15 -4.8 -0.9 -4.8 -1.3 -4.65 -1.3 -3.55 -2.6 -4.0 2.15 -3.55 2.65 -3.55 3.0 -3.75 3.25 -4.0 3.4 -4.15 3.65 -4.65 4.0" fill="#ffffff" fill-rule="evenodd" stroke="none"/>
  </g>
</svg>
