<?xml version="1.0" encoding="UTF-8" standalone="no"?>
<svg xmlns:ffdec="https://www.free-decompiler.com/flash" xmlns:xlink="http://www.w3.org/1999/xlink" ffdec:objectType="shape" height="20.3px" width="9.3px" xmlns="http://www.w3.org/2000/svg">
  <g transform="matrix(1.0, 0.0, 0.0, 1.0, 4.25, 5.35)">
    <path d="M-4.25 -2.55 L-2.65 -5.05 Q-2.25 -4.5 -2.0 -5.2 L-0.9 -5.35 -0.2 -3.65 0.5 -3.65 Q0.75 -3.5 1.35 -3.25 L2.7 -1.75 1.8 -0.1 1.8 2.55 1.5 2.55 1.5 3.4 5.05 4.4 5.05 7.8 4.55 7.8 3.7 11.75 Q3.15 13.25 4.4 14.1 L4.5 14.95 3.05 14.95 Q1.65 15.1 1.05 14.2 L1.8 10.2 1.15 9.1 1.15 7.3 0.05 6.25 -1.6 6.25 -2.45 5.55 Q-2.95 5.25 -2.85 4.9 -2.8 4.65 -2.1 4.5 L-2.1 3.3 -1.4 1.85 -2.25 1.85 -2.25 -1.7 -4.25 -2.55" fill="#ffffff" fill-rule="evenodd" stroke="none"/>
  </g>
</svg>
