<?xml version="1.0" encoding="UTF-8" standalone="no"?>
<svg xmlns:ffdec="https://www.free-decompiler.com/flash" xmlns:xlink="http://www.w3.org/1999/xlink" ffdec:objectType="shape" height="29.05px" width="21.85px" xmlns="http://www.w3.org/2000/svg">
  <g transform="matrix(1.0, 0.0, 0.0, 1.0, 13.45, 28.7)">
    <path d="M-12.75 -13.75 L-12.95 -19.85 -11.75 -22.55 -8.7 -24.1 -9.0 -10.95 -11.4 -11.2 -12.75 -13.75" fill="#444444" fill-rule="evenodd" stroke="none"/>
    <path d="M-8.7 -24.1 L-11.75 -22.55 -12.95 -19.85 -12.75 -13.75 -11.4 -11.2 -9.0 -10.95" fill="none" stroke="#1a1a1a" stroke-linecap="round" stroke-linejoin="round" stroke-width="1.05"/>
    <path d="M-12.95 -19.85 L-11.4 -18.0 -9.45 -18.0" fill="none" stroke="#2d2d2d" stroke-linecap="round" stroke-linejoin="round" stroke-width="1.05"/>
    <path d="M5.7 -7.25 L5.6 -6.7 4.65 -3.85 Q3.2 -3.05 -1.0 -3.1 -5.1 -3.1 -6.3 -3.85 L-6.45 -5.2 Q-6.65 -6.5 -7.1 -7.25 L-7.3 -7.95 -7.95 -10.7 -8.55 -13.45 Q-9.1 -15.7 -8.65 -19.6 L-8.05 -23.1 -5.55 -26.95 Q-4.6 -28.25 -3.85 -28.2 L0.75 -27.7 Q3.2 -27.15 4.0 -26.35 L5.25 -24.05 Q6.55 -21.45 6.85 -20.0 7.2 -18.1 6.6 -15.2 L5.7 -10.35 5.65 -8.1 5.7 -7.25" fill="#444444" fill-rule="evenodd" stroke="none"/>
    <path d="M5.7 -7.25 L5.65 -8.1 5.7 -10.35 6.6 -15.2 Q7.2 -18.1 6.85 -20.0 6.55 -21.45 5.25 -24.05 L4.0 -26.35 Q3.2 -27.15 0.75 -27.7 L-3.85 -28.2 Q-4.6 -28.25 -5.55 -26.95 L-8.05 -23.1 -8.65 -19.6 Q-9.1 -15.7 -8.55 -13.45 L-7.95 -10.7 -7.3 -7.95 -7.1 -7.25 Q-6.65 -6.5 -6.45 -5.2 L-6.3 -3.85 Q-5.1 -3.1 -1.0 -3.1 3.2 -3.05 4.65 -3.85 L5.6 -6.7 5.7 -7.25 Z" fill="none" stroke="#1a1a1a" stroke-linecap="round" stroke-linejoin="round" stroke-width="1.05"/>
    <path d="M1.1 -1.95 L-6.8 -2.75 Q-7.25 -4.55 -6.95 -5.65 L-2.7 -5.0 5.6 -4.6 5.6 -3.8 5.4 -2.1 1.1 -1.95" fill="#323232" fill-rule="evenodd" stroke="none"/>
    <path d="M1.1 -1.95 L-6.8 -2.75 Q-7.25 -4.55 -6.95 -5.65 L-2.7 -5.0 5.6 -4.6 5.6 -3.8 5.4 -2.1 1.1 -1.95 Z" fill="none" stroke="#1a1a1a" stroke-linecap="round" stroke-linejoin="round" stroke-width="1.05"/>
    <path d="M-7.1 -26.55 L0.5 -26.75 5.75 -24.2 6.7 -22.25 Q7.75 -20.05 7.85 -18.8 8.0 -17.7 7.55 -15.9 6.95 -13.55 6.9 -13.0 L6.55 -9.3 2.9 -7.4 -0.2 -8.15 -5.05 -8.9 -8.7 -8.9 Q-9.4 -13.55 -9.45 -16.25 L-9.45 -19.95 Q-9.4 -22.05 -8.9 -23.55 L-7.9 -25.5 -7.1 -26.55" fill="#282828" fill-rule="evenodd" stroke="none"/>
    <path d="M-2.55 -1.15 L-5.7 -1.15 Q-6.0 -3.1 -5.9 -5.3 L-5.7 -7.05 -2.55 -7.05 Q-2.15 -5.55 -2.55 -1.15" fill="#2a2a2a" fill-rule="evenodd" stroke="none"/>
    <path d="M-2.55 -1.15 L-5.7 -1.15 Q-6.0 -3.1 -5.9 -5.3 L-5.7 -7.05 -2.55 -7.05 Q-2.15 -5.55 -2.55 -1.15 Z" fill="none" stroke="#131313" stroke-linecap="round" stroke-linejoin="round" stroke-width="1.05"/>
    <path d="M0.85 -5.45 L3.5 -5.45 Q3.85 -1.3 3.5 -0.3 1.7 0.05 0.85 -0.3 L0.85 -5.45" fill="#2a2a2a" fill-rule="evenodd" stroke="none"/>
    <path d="M0.85 -5.45 L0.85 -0.3 Q1.7 0.05 3.5 -0.3 3.85 -1.3 3.5 -5.45 L0.85 -5.45 Z" fill="none" stroke="#131313" stroke-linecap="round" stroke-linejoin="round" stroke-width="1.05"/>
    <path d="M-5.5 -11.75 L-5.5 -13.45 -4.65 -13.95 -3.1 -14.4 Q-0.6 -15.25 1.35 -17.2 L0.55 -12.65 Q-0.1 -9.75 -0.15 -8.15 L-5.05 -8.9 Q-5.45 -9.9 -5.5 -11.75" fill="#212121" fill-rule="evenodd" stroke="none"/>
    <path d="M-0.15 -8.15 Q-0.1 -9.75 0.55 -12.65 L1.35 -17.2 Q-0.6 -15.25 -3.1 -14.4 L-4.65 -13.95 -5.5 -13.45 -5.5 -11.75 Q-5.45 -9.9 -5.05 -8.9" fill="none" stroke="#131313" stroke-linecap="round" stroke-linejoin="round" stroke-width="1.05"/>
    <path d="M7.3 -20.9 L7.9 -18.2 7.35 -15.15 Q6.75 -12.4 6.7 -11.1 5.15 -11.2 4.2 -11.65 L4.1 -14.65 1.35 -17.2 5.0 -20.05 7.3 -20.9" fill="#323232" fill-rule="evenodd" stroke="none"/>
    <path d="M-7.15 -26.55 L0.5 -26.75 3.25 -25.5 5.75 -24.2 6.7 -22.25 Q7.75 -20.05 7.85 -18.8 8.0 -17.7 7.55 -15.9 6.95 -13.55 6.9 -13.0 L6.55 -9.3 2.9 -7.4 -0.2 -8.15 -5.05 -8.9 -8.7 -8.9 Q-9.4 -13.55 -9.45 -16.25 L-9.45 -19.95 Q-9.4 -22.05 -8.9 -23.55 L-7.9 -25.45 -7.15 -26.55 Z" fill="none" stroke="#131313" stroke-linecap="round" stroke-linejoin="round" stroke-width="1.05"/>
    <path d="M6.7 -11.1 L5.0 -11.35 4.2 -11.65 4.15 -13.9 4.1 -14.65 2.15 -16.4 1.35 -17.2 3.35 -18.95 Q5.65 -20.7 7.3 -20.9" fill="none" stroke="#1a1a1a" stroke-linecap="round" stroke-linejoin="round" stroke-width="1.05"/>
    <path d="M-5.0 -21.0 Q-4.85 -23.4 -4.1 -24.0 L-2.5 -24.65 Q-0.75 -25.3 0.0 -25.0 1.65 -24.4 2.5 -23.2 2.9 -22.85 2.95 -21.75 L2.85 -20.7 1.65 -19.55 Q0.3 -18.35 -0.45 -18.2 L-2.45 -18.1 Q-4.55 -18.05 -5.0 -18.7 L-5.0 -21.0" fill="#444444" fill-rule="evenodd" stroke="none"/>
    <path d="M-5.0 -21.0 Q-4.85 -23.4 -4.1 -24.0 L-2.5 -24.65 Q-0.75 -25.3 0.0 -25.0 1.65 -24.4 2.5 -23.2 2.9 -22.85 2.95 -21.75 L2.85 -20.7 1.65 -19.55 Q0.3 -18.35 -0.45 -18.2 L-2.45 -18.1 Q-4.55 -18.05 -5.0 -18.7 L-5.0 -21.0 Z" fill="none" stroke="#131313" stroke-linecap="round" stroke-linejoin="round" stroke-width="1.05"/>
  </g>
</svg>
