<?xml version="1.0" encoding="UTF-8" standalone="no"?>
<svg xmlns:ffdec="https://www.free-decompiler.com/flash" xmlns:xlink="http://www.w3.org/1999/xlink" ffdec:objectType="shape" height="12.1px" width="18.85px" xmlns="http://www.w3.org/2000/svg">
  <g transform="matrix(1.0, 0.0, 0.0, 1.0, 0.5, 0.5)">
    <path d="M10.6 4.15 L12.35 4.7 14.7 3.95 Q17.1 4.4 17.85 5.55 L17.85 8.05 16.55 9.25 11.35 9.3 10.25 8.7 7.3 8.3 7.4 6.75 8.45 5.85 10.6 4.15" fill="#202020" fill-rule="evenodd" stroke="none"/>
    <path d="M16.55 9.25 L16.75 10.0 15.45 11.1 10.7 11.1 9.6 10.15 8.25 9.95 6.75 11.1 0.3 10.95 0.5 9.65 4.0 9.6 6.25 9.55 7.3 8.3 10.25 8.7 11.35 9.3 16.55 9.25" fill="#251616" fill-rule="evenodd" stroke="none"/>
    <path d="M4.95 0.0 L8.0 0.05 8.05 2.05 8.6 2.5 9.6 3.3 10.6 4.15 8.45 5.85 5.0 2.8 4.95 0.0 M8.4 4.2 L9.6 3.3 8.4 4.2 M7.4 3.5 L8.6 2.5 7.4 3.5" fill="#2c2c2c" fill-rule="evenodd" stroke="none"/>
    <path d="M0.0 6.35 L0.0 5.8 1.0 4.55 0.45 0.0 4.95 0.0 5.0 2.8 8.45 5.85 7.4 6.75 7.3 8.3 6.25 9.55 4.0 9.6 2.65 7.7 0.0 6.35" fill="#2a0000" fill-rule="evenodd" stroke="none"/>
    <path d="M0.5 9.65 L0.0 6.35 2.65 7.7 4.0 9.6 0.5 9.65" fill="#1c1c1c" fill-rule="evenodd" stroke="none"/>
    <path d="M10.6 4.15 L12.35 4.7 14.7 3.95 Q17.1 4.4 17.85 5.55 L17.85 8.05 16.55 9.25 16.75 10.0 15.45 11.1 10.7 11.1 9.6 10.15 8.25 9.95 6.75 11.1 0.3 10.95 0.5 9.65 0.0 6.35 0.0 5.8 1.0 4.55 0.45 0.0 4.95 0.0 8.0 0.05 8.05 2.05 8.6 2.5 9.6 3.3 10.6 4.15 8.45 5.85 7.4 6.75 7.3 8.3 10.25 8.7 11.35 9.3 16.55 9.25 M8.6 2.5 L7.4 3.5 M9.6 3.3 L8.4 4.2 M4.95 0.0 L5.0 2.8 8.45 5.85 M0.0 6.35 L2.65 7.7 4.0 9.6 6.25 9.55 7.3 8.3 M4.0 9.6 L0.5 9.65" fill="none" stroke="#100f0f" stroke-linecap="round" stroke-linejoin="round" stroke-width="1.0"/>
  </g>
</svg>
