<?xml version="1.0" encoding="UTF-8" standalone="no"?>
<svg xmlns:ffdec="https://www.free-decompiler.com/flash" xmlns:xlink="http://www.w3.org/1999/xlink" ffdec:objectType="shape" height="23.4px" width="8.6px" xmlns="http://www.w3.org/2000/svg">
  <g transform="matrix(1.0, 0.0, 0.0, 1.0, -1.9, 6.95)">
    <path d="M5.15 -4.6 L4.0 -5.2 3.95 -5.85 5.2 -5.9 7.4 -6.95 7.4 -5.2 8.7 -3.9 8.7 -2.1 8.1 -0.15 8.1 3.5 Q8.85 3.2 9.55 2.85 L10.5 4.3 9.65 5.7 9.65 7.15 10.35 8.55 10.35 9.15 9.25 10.45 8.55 10.4 9.2 11.25 6.75 14.25 5.45 14.25 5.45 14.85 4.9 14.85 4.9 16.35 3.7 16.45 2.85 15.8 4.55 13.3 4.2 12.6 4.75 12.35 5.6 11.05 7.15 11.05 7.95 10.25 7.95 8.05 6.35 8.05 5.75 7.85 5.1 8.3 3.7 7.3 3.1 3.95 3.45 3.25 Q3.15 2.9 2.25 2.5 L2.25 -0.45 1.9 -0.45 Q4.9 -1.2 5.15 -4.6" fill="#ffffff" fill-rule="evenodd" stroke="none"/>
  </g>
</svg>
