<?xml version="1.0" encoding="UTF-8" standalone="no"?>
<svg xmlns:ffdec="https://www.free-decompiler.com/flash" xmlns:xlink="http://www.w3.org/1999/xlink" ffdec:objectType="shape" height="19.75px" width="7.0px" xmlns="http://www.w3.org/2000/svg">
  <g transform="matrix(1.0, 0.0, 0.0, 1.0, -7.75, 4.05)">
    <path d="M9.5 -3.05 L10.2 -3.25 10.95 -3.15 Q11.45 -4.1 12.5 -4.05 L12.25 -2.45 12.55 -1.75 12.5 -1.5 13.3 -0.5 13.45 -0.35 13.35 0.5 13.7 1.0 14.75 1.95 13.85 8.1 14.55 9.1 14.45 9.75 14.05 10.2 13.6 10.55 12.9 11.5 11.65 13.6 11.35 13.6 11.25 14.1 10.55 13.95 10.5 14.6 9.55 14.5 9.15 14.75 8.85 14.7 8.75 15.1 8.55 15.05 8.05 15.7 8.25 14.45 7.75 13.8 8.05 13.55 8.4 13.45 8.55 12.3 10.2 12.55 10.25 12.3 10.6 12.35 Q10.45 11.5 9.55 10.55 9.0 9.9 8.95 9.2 L8.55 5.15 8.65 4.5 9.05 4.45 9.05 4.25 9.75 3.9 10.2 3.7 10.85 2.55 Q11.05 2.0 10.75 1.9 L9.3 1.65 9.7 -0.95 Q8.95 -1.95 9.5 -3.05" fill="#ffffff" fill-rule="evenodd" stroke="none"/>
  </g>
</svg>
