<?xml version="1.0" encoding="UTF-8" standalone="no"?>
<svg xmlns:xlink="http://www.w3.org/1999/xlink" height="20.4px" width="21.0px" xmlns="http://www.w3.org/2000/svg">
  <g transform="matrix(1.0, 0.0, 0.0, 1.0, 6.85, 16.1)">
    <path d="M9.75 -12.7 L11.4 -12.7 11.85 -13.15 12.45 -13.15 12.9 -12.35 13.65 -12.35 13.65 -12.05 13.4 -9.65 11.75 -9.65 11.55 -9.65 9.95 -10.55 9.7 -12.7 9.75 -12.7 M7.65 3.2 L7.6 3.2 Q7.05 3.8 6.2 3.8 5.4 3.8 4.8 3.2 4.2 2.6 4.2 1.8 L4.25 1.5 Q4.35 0.85 4.8 0.4 5.4 -0.2 6.2 -0.2 L6.8 -0.1 7.1 0.0 7.6 0.4 7.7 0.45 Q8.2 1.0 8.2 1.8 L8.0 2.7 7.65 3.2 M12.6 -11.75 L12.2 -11.75 12.6 -11.75" fill="#2a2a2a" fill-rule="evenodd" stroke="none"/>
    <path d="M11.75 -9.65 L11.95 -8.2 11.75 -6.8 10.65 -6.75 6.0 -6.7 5.65 -8.15 5.35 -8.75 Q2.9 -10.1 0.2 -10.8 L-2.05 -11.2 -3.3 -10.3 -3.65 -9.85 Q-4.6 -8.2 -4.95 -6.25 L-5.05 -4.6 -6.35 -8.35 Q-5.05 -12.85 -1.65 -14.6 1.25 -16.15 4.9 -15.3 7.8 -14.6 9.75 -12.7 L9.7 -12.7 9.95 -10.55 11.55 -9.65 11.75 -9.65 M10.55 -3.05 L10.6 -2.55 11.5 -2.9 12.6 -1.0 12.1 0.55 11.0 2.5 Q10.2 3.05 8.3 3.6 L7.65 3.2 8.0 2.7 8.2 1.8 Q8.2 1.0 7.7 0.45 L7.9 0.3 7.1 0.0 6.8 -0.1 4.85 -0.95 Q3.6 -1.55 3.1 -2.15 2.0 -3.45 3.05 -6.65 L3.2 -5.7 Q3.4 -4.65 4.0 -3.9 5.85 -1.5 10.55 -3.05 M11.95 -8.2 L7.55 -9.6 7.15 -11.2 9.7 -12.7 7.15 -11.2 7.55 -9.6 11.95 -8.2 M10.6 -2.55 L9.5 -2.15 9.05 -0.7 7.9 0.3 9.05 -0.7 9.5 -2.15 10.6 -2.55" fill="#323232" fill-rule="evenodd" stroke="none"/>
    <path d="M4.25 1.5 L3.15 1.15 -1.5 -0.45 Q-3.15 -1.45 -3.2 -3.75 L-5.05 -4.6 -4.95 -6.25 Q-4.6 -8.2 -3.65 -9.85 L-3.3 -10.3 -2.05 -11.2 0.2 -10.8 Q2.9 -10.1 5.35 -8.75 L5.65 -8.15 6.0 -6.7 3.05 -6.65 1.4 -6.6 0.8 -5.3 -0.7 -2.7 Q-1.85 -3.15 -3.2 -3.75 -1.85 -3.15 -0.7 -2.7 L0.8 -5.3 1.4 -6.6 3.05 -6.65 Q2.0 -3.45 3.1 -2.15 3.6 -1.55 4.85 -0.95 L6.8 -0.1 6.2 -0.2 Q5.4 -0.2 4.8 0.4 4.35 0.85 4.25 1.5 M4.05 -8.0 Q3.95 -8.05 3.8 -8.15 3.95 -8.05 4.05 -8.0 M-2.05 -5.05 L-3.35 -5.6 -2.05 -5.05 M1.4 -6.6 L-0.25 -7.05 -0.8 -8.8 -3.65 -9.85 -0.8 -8.8 -0.25 -7.05 1.4 -6.6" fill="#444444" fill-rule="evenodd" stroke="none"/>
    <path d="M10.65 -6.75 L10.95 -5.5 Q11.0 -4.1 10.55 -3.05 5.85 -1.5 4.0 -3.9 3.4 -4.65 3.2 -5.7 L3.05 -6.65 6.0 -6.7 10.65 -6.75" fill="url(#gradient0)" fill-rule="evenodd" stroke="none"/>
    <path d="M9.75 -12.7 L11.4 -12.7 11.85 -13.15 12.45 -13.15 12.9 -12.35 13.65 -12.35 13.65 -12.05 13.4 -9.65 11.75 -9.65 11.95 -8.2 11.75 -6.8 10.65 -6.75 M10.55 -3.05 L10.6 -2.55 11.5 -2.9 12.6 -1.0 12.1 0.55 11.0 2.5 Q10.2 3.05 8.3 3.6 L7.65 3.2 7.6 3.2 Q7.05 3.8 6.2 3.8 5.4 3.8 4.8 3.2 4.2 2.6 4.2 1.8 L4.25 1.5 3.15 1.15 -1.5 -0.45 Q-3.15 -1.45 -3.2 -3.75 L-5.05 -4.6 -6.35 -8.35 Q-5.05 -12.85 -1.65 -14.6 1.25 -16.15 4.9 -15.3 7.8 -14.6 9.75 -12.7 L9.7 -12.7 9.95 -10.55 11.55 -9.65 11.75 -9.65 M3.05 -6.65 L1.4 -6.6 0.8 -5.3 -0.7 -2.7 Q-1.85 -3.15 -3.2 -3.75 M7.9 0.3 L9.05 -0.7 9.5 -2.15 10.6 -2.55 M4.25 1.5 Q4.35 0.85 4.8 0.4 5.4 -0.2 6.2 -0.2 L6.8 -0.1 M7.7 0.45 L7.9 0.3 M7.7 0.45 Q8.2 1.0 8.2 1.8 L8.0 2.7 7.65 3.2 M7.1 0.0 L7.6 0.4 7.7 0.45" fill="none" stroke="#1a1a1a" stroke-linecap="round" stroke-linejoin="round" stroke-width="1.0"/>
    <path d="M9.7 -12.7 L7.15 -11.2 7.55 -9.6 11.95 -8.2 M-3.65 -9.85 L-0.8 -8.8 -0.25 -7.05 1.4 -6.6 M-3.35 -5.6 L-2.05 -5.05" fill="none" stroke="#131313" stroke-linecap="round" stroke-linejoin="round" stroke-width="1.0"/>
    <path d="M-5.05 -4.6 L-4.95 -6.25 Q-4.6 -8.2 -3.65 -9.85 L-3.3 -10.3 -2.05 -11.2 0.2 -10.8 Q2.9 -10.1 5.35 -8.75 L5.65 -8.15 6.0 -6.7" fill="none" stroke="#242424" stroke-linecap="round" stroke-linejoin="round" stroke-width="1.0"/>
    <path d="M3.8 -8.15 Q3.95 -8.05 4.05 -8.0 M12.2 -11.75 L12.6 -11.75" fill="none" stroke="#df930b" stroke-linecap="round" stroke-linejoin="round" stroke-width="1.0"/>
    <path d="M3.05 -6.65 Q2.0 -3.45 3.1 -2.15 3.6 -1.55 4.85 -0.95 L6.8 -0.1 7.1 0.0 7.9 0.3" fill="none" stroke="#242424" stroke-linecap="round" stroke-linejoin="miter-clip" stroke-miterlimit="4.0" stroke-width="1.0"/>
    <path d="M6.0 -6.7 L10.65 -6.75 M10.55 -3.05 Q5.85 -1.5 4.0 -3.9 3.4 -4.65 3.2 -5.7 L3.05 -6.65 6.0 -6.7" fill="none" stroke="#1c1202" stroke-linecap="round" stroke-linejoin="round" stroke-width="1.0"/>
    <path d="M10.65 -6.75 L10.95 -5.5 Q11.0 -4.1 10.55 -3.05" fill="none" stroke="#6b4605" stroke-linecap="round" stroke-linejoin="miter-clip" stroke-miterlimit="4.0" stroke-width="1.0"/>
  </g>
  <defs>
    <linearGradient gradientTransform="matrix(0.0048, 0.0, 0.0, 0.0026, 7.0, -4.6)" gradientUnits="userSpaceOnUse" id="gradient0" spreadMethod="pad" x1="-819.2" x2="819.2">
      <stop offset="0.0196078431372549" stop-color="#a6700f"/>
      <stop offset="1.0" stop-color="#faa610"/>
    </linearGradient>
  </defs>
</svg>
