<?xml version="1.0" encoding="UTF-8" standalone="no"?>
<svg xmlns:ffdec="https://www.free-decompiler.com/flash" xmlns:xlink="http://www.w3.org/1999/xlink" ffdec:objectType="shape" height="16.9px" width="7.15px" xmlns="http://www.w3.org/2000/svg">
  <g transform="matrix(1.0, 0.0, 0.0, 1.0, -11.85, 2.25)">
    <path d="M13.45 -1.85 L13.9 -1.55 15.65 -1.05 15.65 -0.85 15.95 -0.85 16.35 -0.3 16.35 0.4 15.9 0.4 15.9 1.1 Q15.6 1.3 15.6 1.75 L15.2 1.75 15.2 2.65 15.7 3.2 16.4 3.7 17.7 3.7 18.0 4.1 18.45 4.1 18.7 4.35 19.0 4.85 19.0 6.15 18.9 6.5 18.45 6.5 18.45 10.85 18.15 11.65 17.9 11.65 17.9 11.85 16.9 12.15 17.05 12.45 16.4 13.0 16.4 13.4 13.5 14.4 13.25 14.4 13.25 14.65 12.95 14.65 Q12.7 14.7 12.75 14.35 L12.5 14.35 12.5 13.85 12.85 13.85 12.85 13.4 13.65 12.25 14.15 11.9 14.65 11.9 14.65 11.75 15.0 11.6 15.0 10.5 15.25 10.25 16.0 10.25 Q16.45 10.05 16.75 10.0 L16.75 8.95 17.3 8.3 17.15 7.9 14.4 7.9 13.35 2.65 13.35 2.35 12.85 2.35 12.85 1.9 12.65 1.95 12.65 1.1 11.85 0.5 13.0 -2.05 13.0 -2.25 13.4 -2.25 13.45 -1.85" fill="#ffffff" fill-rule="evenodd" stroke="none"/>
  </g>
</svg>
