<?xml version="1.0" encoding="UTF-8" standalone="no"?>
<svg xmlns:ffdec="https://www.free-decompiler.com/flash" xmlns:xlink="http://www.w3.org/1999/xlink" ffdec:objectType="shape" height="19.05px" width="9.6px" xmlns="http://www.w3.org/2000/svg">
  <g transform="matrix(1.0, 0.0, 0.0, 1.0, -14.4, 3.7)">
    <path d="M16.6 -0.85 L16.7 -0.9 17.1 -0.95 17.75 -1.15 Q18.55 -1.3 18.85 -1.6 L19.2 -2.45 Q19.3 -3.1 19.5 -3.35 20.0 -3.85 20.8 -3.6 L22.0 -2.75 Q23.6 -0.95 24.0 1.5 L20.5 -1.0 Q20.65 2.2 22.1 4.85 L21.75 6.5 21.35 8.1 Q21.35 8.65 21.7 9.55 L22.25 11.1 Q22.6 12.35 22.0 13.55 21.35 14.8 20.1 15.35 19.55 14.4 19.55 13.25 19.55 12.05 20.1 11.1 19.05 11.4 18.1 9.6 17.55 7.8 16.5 7.6 L15.95 7.55 15.35 7.5 Q14.8 7.4 14.5 6.65 14.25 5.95 14.6 5.5 L17.5 3.5 18.1 2.75 17.6 1.75 Q16.45 0.6 16.6 -0.85" fill="#ffffff" fill-rule="evenodd" stroke="none"/>
  </g>
</svg>
