<?xml version="1.0" encoding="UTF-8" standalone="no"?>
<svg xmlns:xlink="http://www.w3.org/1999/xlink" height="18.85px" width="17.85px" xmlns="http://www.w3.org/2000/svg">
  <g transform="matrix(1.0, 0.0, 0.0, 1.0, 9.5, 9.45)">
    <path d="M2.2 -1.6 L4.65 -1.35 2.2 -1.6 M0.9 7.3 L0.9 8.9 -4.85 8.25 -4.85 5.8 -5.8 4.5 Q-6.5 3.15 -6.6 1.05 -6.7 -1.15 -6.2 -2.9 -5.65 -5.0 -4.3 -5.95 -1.8 -7.65 0.85 -7.5 3.45 -7.35 5.2 -5.6 6.3 -4.5 6.45 -2.9 L6.65 0.0 7.15 1.25 7.6 2.45 6.75 3.3 6.65 3.85 6.1 6.2 Q5.9 7.15 5.25 7.35 3.8 7.85 0.95 7.3 L0.9 7.3 Q-0.4 7.0 -1.05 5.85 -0.4 7.0 0.9 7.3" fill="#a0725e" fill-rule="evenodd" stroke="none"/>
    <path d="M0.9 7.3 L0.95 7.3 Q3.8 7.85 5.25 7.35 5.9 7.15 6.1 6.2 L6.65 3.85 6.75 3.3 7.6 2.45 7.15 1.25 6.65 0.0 6.45 -2.9 Q6.3 -4.5 5.2 -5.6 3.45 -7.35 0.85 -7.5 -1.8 -7.65 -4.3 -5.95 -5.65 -5.0 -6.2 -2.9 -6.7 -1.15 -6.6 1.05 -6.5 3.15 -5.8 4.5 L-4.85 5.8 -4.85 8.25 0.9 8.9 0.9 7.3" fill="none" stroke="#704f41" stroke-linecap="round" stroke-linejoin="round" stroke-width="1.05"/>
    <path d="M0.9 7.3 Q-0.4 7.0 -1.05 5.85" fill="none" stroke="#704f41" stroke-linecap="round" stroke-linejoin="round" stroke-opacity="0.5019608" stroke-width="1.05"/>
    <path d="M4.65 -1.35 L2.2 -1.6" fill="none" stroke="#724d42" stroke-linecap="round" stroke-linejoin="miter-clip" stroke-miterlimit="4.0" stroke-width="0.5"/>
    <path d="M6.35 4.75 L4.8 4.65" fill="none" stroke="#674338" stroke-linecap="round" stroke-linejoin="miter-clip" stroke-miterlimit="4.0" stroke-width="1.05"/>
    <path d="M-3.5 0.35 Q-3.85 1.6 -3.35 2.6 L-2.5 3.6" fill="none" stroke="#886050" stroke-linecap="round" stroke-linejoin="miter-clip" stroke-miterlimit="4.0" stroke-width="1.05"/>
    <path d="M0.7 -8.95 L3.9 -8.45 Q5.2 -8.05 6.15 -7.15 7.05 -6.2 7.65 -4.7 8.2 -3.15 7.4 -2.05 L5.55 -3.8 Q5.3 -3.95 4.9 -3.2 2.2 -4.55 0.35 -3.6 L-0.65 -1.85 Q-0.9 -1.7 -1.0 -0.2 L-1.0 1.25 -1.85 1.75 Q-2.15 0.4 -2.8 -0.3 L-3.5 -0.65 -3.85 -0.65 -4.5 0.1 -4.7 1.0 Q-4.95 2.0 -4.6 3.35 L-4.2 4.45 -4.95 4.9 -6.05 5.15 Q-6.7 4.25 -8.05 3.5 L-8.85 -0.1 Q-9.25 -1.6 -8.45 -3.45 -7.65 -5.3 -6.25 -6.7 -4.9 -8.1 -3.0 -8.55 L0.7 -8.95" fill="#2d221e" fill-rule="evenodd" stroke="none"/>
    <path d="M0.7 -8.95 L-3.0 -8.55 Q-4.9 -8.1 -6.25 -6.7 -7.65 -5.3 -8.45 -3.45 -9.25 -1.6 -8.85 -0.1 L-8.05 3.5 Q-6.7 4.25 -6.05 5.15 L-4.95 4.9 -4.2 4.45 -4.6 3.35 Q-4.95 2.0 -4.7 1.0 L-4.5 0.1 -3.85 -0.65 -3.5 -0.65 -2.8 -0.3 Q-2.15 0.4 -1.85 1.75 L-1.0 1.25 -1.0 -0.2 Q-0.9 -1.7 -0.65 -1.85 L0.35 -3.6 Q2.2 -4.55 4.9 -3.2 5.3 -3.95 5.55 -3.8 L7.4 -2.05 Q8.2 -3.15 7.65 -4.7 7.05 -6.2 6.15 -7.15 5.2 -8.05 3.9 -8.45 L0.7 -8.95 Z" fill="none" stroke="#191311" stroke-linecap="round" stroke-linejoin="round" stroke-opacity="0.5019608" stroke-width="1.05"/>
    <path d="M3.6 -0.3 L4.35 -0.1 Q4.95 0.2 4.95 0.4 L4.25 0.7 3.1 0.8 Q2.45 0.75 2.85 0.2 3.25 -0.35 3.6 -0.3" fill="#c3aea1" fill-rule="evenodd" stroke="none"/>
    <path d="M3.65 0.85 L3.75 -0.2 4.4 -0.2 Q4.95 -0.15 4.9 0.4 4.85 0.9 4.3 0.85 L3.65 0.85" fill="#000000" fill-rule="evenodd" stroke="none"/>
    <path d="M2.55 0.05 L3.1 0.75 3.6 0.95 Q4.6 0.95 4.95 0.4" fill="none" stroke="#815545" stroke-linecap="round" stroke-linejoin="round" stroke-width="0.5"/>
    <path d="M4.95 0.4 Q4.45 -0.35 3.9 -0.4 L3.0 -0.15 2.55 0.05" fill="none" stroke="#815545" stroke-linecap="round" stroke-linejoin="round" stroke-width="0.5"/>
    <path d="M3.1 4.0 L6.6 4.0 Q6.3 6.7 5.6 7.3 L1.7 7.6 Q-0.65 6.8 -1.45 5.15 L-1.4 5.0 Q-1.15 3.7 -1.85 2.2 L-0.7 1.45 Q0.75 4.05 3.1 4.0" fill="#3b3b3b" fill-opacity="0.14901961" fill-rule="evenodd" stroke="none"/>
    <path d="M1.2 -7.1 Q2.2 -6.8 3.0 -5.55 L3.6 -4.4 M-3.6 -7.05 Q-4.4 -6.85 -5.05 -5.85 L-5.55 -4.9 M-1.4 -7.8 L-1.75 -7.0 Q-2.25 -6.05 -2.9 -5.5 -3.7 -4.8 -3.6 -3.15 L-3.3 -1.65 M-6.4 2.55 Q-5.85 1.5 -5.95 -0.5 L-6.2 -2.35" fill="none" stroke="#201815" stroke-linecap="round" stroke-linejoin="round" stroke-opacity="0.5019608" stroke-width="1.05"/>
  </g>
</svg>
