<?xml version="1.0" encoding="UTF-8" standalone="no"?>
<svg xmlns:ffdec="https://www.free-decompiler.com/flash" xmlns:xlink="http://www.w3.org/1999/xlink" ffdec:objectType="shape" height="15.7px" width="6.65px" xmlns="http://www.w3.org/2000/svg">
  <g transform="matrix(1.0, 0.0, 0.0, 1.0, -19.65, 0.8)">
    <path d="M22.05 7.0 L22.05 6.15 22.35 6.15 22.35 5.65 Q22.5 4.4 21.35 3.55 L21.35 3.05 19.8 -0.05 19.65 -0.05 19.65 -0.8 19.9 -0.8 22.2 0.4 22.65 0.4 24.8 3.9 24.35 4.3 Q23.9 6.25 25.2 7.6 L25.55 7.95 25.55 9.9 25.45 10.35 24.85 10.2 Q24.95 11.95 26.3 12.8 L26.3 13.2 25.95 13.9 25.95 14.05 24.85 14.9 23.85 14.9 23.45 11.75 23.45 11.3 23.15 10.3 23.1 10.0 23.3 9.8 23.6 9.8 23.6 8.75 22.95 8.15 22.95 7.95 22.15 7.4 22.05 7.0" fill="#ffffff" fill-rule="evenodd" stroke="none"/>
  </g>
</svg>
