<?xml version="1.0" encoding="UTF-8" standalone="no"?>
<svg xmlns:ffdec="https://www.free-decompiler.com/flash" xmlns:xlink="http://www.w3.org/1999/xlink" ffdec:objectType="shape" height="11.7px" width="8.85px" xmlns="http://www.w3.org/2000/svg">
  <g transform="matrix(1.0, 0.0, 0.0, 1.0, -22.05, -2.95)">
    <path d="M28.7 3.7 L29.0 3.65 29.4 3.3 29.4 2.95 29.85 3.55 30.0 3.8 30.0 4.15 30.15 4.45 30.55 4.8 30.55 5.25 30.8 5.25 30.9 6.2 Q30.95 7.1 30.35 7.7 L29.6 5.45 29.25 4.95 28.05 4.95 28.05 5.3 27.55 6.8 27.3 6.8 27.3 8.05 27.45 8.05 27.45 8.5 27.9 8.9 27.9 9.25 28.05 9.25 28.65 10.05 29.6 12.5 29.6 12.7 29.15 14.65 29.15 14.25 29.05 13.9 27.2 13.9 27.2 13.4 26.85 13.4 26.85 13.2 25.85 11.95 25.85 10.35 22.05 7.4 22.05 7.05 23.15 6.7 23.15 6.4 23.9 6.4 23.9 6.05 25.1 5.3 25.85 4.1 26.2 3.7 28.7 3.7" fill="#ffffff" fill-rule="evenodd" stroke="none"/>
  </g>
</svg>
