<?xml version="1.0" encoding="UTF-8" standalone="no"?>
<svg xmlns:ffdec="https://www.free-decompiler.com/flash" xmlns:xlink="http://www.w3.org/1999/xlink" ffdec:objectType="shape" height="13.45px" width="6.1px" xmlns="http://www.w3.org/2000/svg">
  <g transform="matrix(1.0, 0.0, 0.0, 1.0, -30.8, -4.0)">
    <path d="M32.35 6.9 L31.05 4.0 32.8 4.0 33.6 5.0 33.6 5.45 34.3 5.45 34.4 5.15 35.1 5.15 35.1 4.7 35.35 4.7 35.35 4.45 35.85 4.45 36.15 4.45 36.15 5.25 36.3 5.25 35.85 8.95 35.4 9.2 35.4 9.9 35.95 10.45 36.2 11.2 Q36.7 11.9 36.85 12.8 37.05 14.35 36.25 15.5 L36.25 15.7 34.4 16.25 33.9 16.55 33.9 17.05 33.9 17.35 33.6 17.4 33.35 17.2 33.0 17.2 33.0 16.95 32.85 16.95 32.1 16.25 32.1 15.8 31.05 14.3 30.9 14.3 30.8 13.95 30.8 13.05 31.25 13.05 32.0 13.8 32.3 13.8 32.6 13.5 34.0 13.5 34.25 13.15 33.6 12.5 31.4 11.55 Q31.0 11.5 31.1 11.15 L31.1 10.5 31.35 10.5 31.35 8.9 31.6 8.9 31.6 8.0 31.8 7.7 Q31.7 7.85 31.75 7.6 L31.75 7.55 32.35 6.9" fill="#ffffff" fill-rule="evenodd" stroke="none"/>
  </g>
</svg>
