<?xml version="1.0" encoding="UTF-8" standalone="no"?>
<svg xmlns:xlink="http://www.w3.org/1999/xlink" height="24.2px" width="91.45px" xmlns="http://www.w3.org/2000/svg">
  <g transform="matrix(1.0, 0.0, 0.0, 1.0, 20.55, 11.75)">
    <path d="M33.8 -2.35 Q33.05 -0.55 30.75 -0.1 30.7 -1.2 29.25 -2.35 L33.8 -2.35 M23.05 1.8 L23.25 1.35 23.45 -0.3 23.1 -2.35 25.95 -2.35 Q26.15 -0.4 25.6 1.35 L25.4 1.8 23.05 1.8 M40.85 -2.35 Q40.1 -0.55 37.8 -0.1 37.75 -1.2 36.3 -2.35 L40.85 -2.35 M47.9 -2.35 Q47.15 -0.55 44.85 -0.1 44.8 -1.2 43.35 -2.35 L47.9 -2.35 M50.4 -2.35 L54.95 -2.35 Q54.25 -0.55 51.9 -0.1 51.85 -1.2 50.4 -2.35 M62.05 -2.35 Q61.3 -0.55 58.95 -0.1 58.9 -1.2 57.45 -2.35 L62.05 -2.35 M-6.1 7.9 L-6.6 10.75 Q-9.65 9.65 -11.6 7.5 L-10.15 4.85 Q-9.15 6.65 -6.1 7.9" fill="#353638" fill-rule="evenodd" stroke="none"/>
    <path d="M3.25 1.35 Q1.15 3.2 -1.7 3.2 -4.8 3.2 -7.0 1.05 -9.2 -1.2 -9.2 -4.3 -9.2 -7.0 -7.55 -9.0 L-7.0 -9.6 Q-5.1 -11.55 -2.5 -11.75 L3.25 1.35 M-2.95 -2.6 Q-1.55 -4.1 -1.1 -6.2 -1.55 -4.1 -2.95 -2.6" fill="url(#gradient0)" fill-rule="evenodd" stroke="none"/>
    <path d="M33.8 -2.35 Q33.05 -0.55 30.75 -0.1 30.7 -1.2 29.25 -2.35 M23.05 1.8 L25.4 1.8 25.6 1.35 Q26.15 -0.4 25.95 -2.35 L23.1 -2.35 M36.3 -2.35 Q37.75 -1.2 37.8 -0.1 40.1 -0.55 40.85 -2.35 M43.35 -2.35 Q44.8 -1.2 44.85 -0.1 47.15 -0.55 47.9 -2.35 M50.4 -2.35 Q51.85 -1.2 51.9 -0.1 54.25 -0.55 54.95 -2.35 M57.45 -2.35 Q58.9 -1.2 58.95 -0.1 61.3 -0.55 62.05 -2.35 M67.35 -5.1 L62.9 -5.1 M69.55 -3.45 L64.05 -3.45 M70.4 2.45 L66.55 2.45 M69.65 4.25 L67.0 4.25 M-6.1 7.9 Q-9.15 6.65 -10.15 4.85 L-11.6 7.5 Q-9.65 9.65 -6.6 10.75 L-6.1 7.9" fill="none" stroke="#191718" stroke-linecap="round" stroke-linejoin="round" stroke-width="1.0"/>
    <path d="M3.25 1.35 L4.1 3.3" fill="none" stroke="url(#gradient1)" stroke-linecap="round" stroke-linejoin="round" stroke-width="1.0"/>
    <path d="M-1.1 -6.2 Q-1.55 -4.1 -2.95 -2.6" fill="none" stroke="#11e8ff" stroke-linecap="round" stroke-linejoin="round" stroke-width="1.0"/>
    <path d="M4.0 -3.35 Q2.0 -3.1 1.3 -2.5 0.4 -1.5 -3.4 -1.5 -1.9 -2.85 -1.1 -4.6 -0.65 -5.7 -0.45 -6.95 L14.1 -6.95 12.95 -6.3 11.7 -5.1 11.55 -5.0 11.15 -4.5 10.6 -3.55 11.15 -4.5 11.55 -5.0 11.7 -5.1 12.95 -6.3 14.1 -6.95 14.65 -7.2 Q16.3 -7.9 18.2 -7.65 L18.3 -7.65 18.6 -7.6 20.0 -7.2 Q21.4 -6.7 22.5 -5.6 L23.05 -5.5 24.6 -5.5 Q26.5 -4.15 26.65 -2.75 L22.8 -2.75 21.65 -4.3 19.95 -5.5 17.65 -6.0 Q16.35 -6.0 15.3 -5.5 L14.3 -4.9 13.6 -4.3 12.95 -3.6 Q11.9 -2.15 11.9 -0.25 11.9 2.1 13.6 3.8 14.1 4.35 14.75 4.7 16.0 5.45 17.65 5.5 L19.4 5.2 Q20.65 4.8 21.65 3.8 L22.8 2.25 26.7 2.25 25.2 5.05 24.05 5.05 Q22.95 5.05 22.5 5.95 L21.65 6.65 18.75 7.2 17.45 7.25 15.1 6.9 14.2 6.55 13.6 6.25 13.45 6.15 12.25 5.2 12.1 5.05 11.0 3.75 10.9 3.55 10.1 1.7 Q9.85 0.75 9.9 -0.25 9.85 -2.05 10.6 -3.55 L6.6 -3.55 4.0 -3.35 4.55 -4.95 4.0 -3.35 M7.2 -4.95 L6.6 -3.55 7.2 -4.95 M0.75 -4.6 L-1.1 -4.6 0.75 -4.6 M14.15 8.25 L13.9 10.4 7.7 10.05 7.95 8.05 14.15 8.2 14.15 8.25 M-5.1 3.0 Q-8.1 2.4 -10.15 4.25 L-10.25 4.9 Q-10.6 6.6 -11.7 7.55 L-12.5 8.1 Q-15.55 9.0 -16.3 11.15 -17.65 11.55 -18.15 10.65 -18.5 5.75 -19.8 0.9 L-19.95 0.3 -20.05 -0.05 Q-19.05 -1.05 -17.5 -0.85 -12.55 0.3 -6.2 0.05 -5.9 1.65 -5.1 3.0 M11.15 -4.5 Q12.7 -5.3 14.3 -4.9 12.7 -5.3 11.15 -4.5 M18.75 7.2 Q19.45 6.2 19.4 5.2 19.45 6.2 18.75 7.2 M-19.8 0.9 Q-18.15 0.65 -17.05 1.6 -15.9 5.05 -16.2 8.25 -15.9 5.05 -17.05 1.6 -18.15 0.65 -19.8 0.9 M-13.75 1.55 L-11.35 1.85 Q-11.85 4.45 -13.1 6.1 -11.85 4.45 -11.35 1.85 L-13.75 1.55" fill="#a47a4d" fill-rule="evenodd" stroke="none"/>
    <path d="M-3.4 -1.5 Q0.4 -1.5 1.3 -2.5 2.0 -3.1 4.0 -3.35 L6.6 -3.55 10.6 -3.55 Q9.85 -2.05 9.9 -0.25 9.85 0.75 10.1 1.7 L10.9 3.55 11.0 3.75 12.1 5.05 12.25 5.2 13.45 6.15 13.6 6.25 14.2 6.55 15.1 6.9 Q15.15 7.7 14.15 8.25 L14.15 8.2 7.95 8.05 7.05 8.05 Q7.5 4.2 5.75 4.4 L2.85 4.4 -0.15 4.4 -4.35 4.05 -5.1 3.0 Q-5.9 1.65 -6.2 0.05 L-6.35 -1.55 -5.4 -1.55 -5.1 -1.55 -5.0 -1.55 -4.55 -1.5 -3.4 -1.5 M5.75 -1.6 Q5.45 -1.3 5.45 -0.9 5.45 -0.55 5.75 -0.25 6.0 0.0 6.4 0.05 L7.05 -0.25 7.35 -0.9 7.05 -1.6 6.4 -1.85 5.75 -1.6 M18.6 -7.65 L27.8 -7.65 Q28.75 -6.2 31.6 -5.5 L62.4 -5.5 63.7 -3.8 64.6 -2.3 26.7 -2.3 26.65 -2.75 Q26.5 -4.15 24.6 -5.5 L23.05 -5.5 22.5 -5.6 Q21.4 -6.7 20.0 -7.2 L18.6 -7.6 18.6 -7.65 M29.8 1.85 L34.95 1.85 42.0 1.85 48.55 1.85 56.1 1.85 63.15 1.85 66.3 1.85 67.05 5.05 Q67.2 6.45 66.1 7.05 64.8 5.15 62.0 5.05 L61.8 5.05 38.45 5.05 Q35.75 7.3 33.1 7.55 L21.65 6.65 22.5 5.95 Q22.95 5.05 24.05 5.05 L25.2 5.05 28.1 5.05 29.8 1.85 M19.4 5.2 L17.65 5.5 Q16.0 5.45 14.75 4.7 14.1 4.35 13.6 3.8 11.9 2.1 11.9 -0.25 11.9 -2.15 12.95 -3.6 L13.6 -4.3 14.3 -4.9 15.3 -5.5 Q16.35 -6.0 17.65 -6.0 L19.95 -5.5 21.65 -4.3 22.8 -2.75 23.0 -2.3 Q23.35 -1.35 23.35 -0.25 L23.15 1.4 23.0 1.85 22.8 2.25 21.65 3.8 Q20.65 4.8 19.4 5.2 M17.55 -3.2 L15.15 -1.6 15.15 1.25 17.55 2.8 19.95 1.25 Q17.6 0.6 15.15 1.25 16.9 -0.5 17.55 -3.2 L19.9 -1.6 19.95 1.25 Q18.2 -0.75 17.55 -3.2 18.2 -0.75 19.95 1.25 L19.9 -1.6 17.55 -3.2 Q16.9 -0.5 15.15 1.25 17.6 0.6 19.95 1.25 L17.55 2.8 15.15 1.25 15.15 -1.6 17.55 -3.2 M34.95 1.85 L33.85 3.4 34.95 1.85 M34.8 5.05 L38.45 5.05 34.8 5.05 M56.1 1.85 L55.0 3.4 56.1 1.85 M48.55 1.85 L47.4 3.4 48.55 1.85 M40.85 3.4 L42.0 1.85 40.85 3.4 M62.05 3.4 L63.15 1.85 62.05 3.4 M31.6 -5.5 L24.6 -5.5 31.6 -5.5 M12.25 5.2 L11.15 6.1 12.25 5.2 M-3.4 0.85 Q-1.0 1.15 0.2 -0.05 1.65 1.35 1.55 2.75 1.65 1.35 0.2 -0.05 -1.0 1.15 -3.4 0.85 M11.0 3.75 L9.2 4.95 11.0 3.75 M10.1 1.7 L8.3 2.35 10.1 1.7" fill="#f0c468" fill-rule="evenodd" stroke="none"/>
    <path d="M5.75 -1.6 L6.4 -1.85 7.05 -1.6 7.35 -0.9 7.05 -0.25 6.4 0.05 Q6.0 0.0 5.75 -0.25 5.45 -0.55 5.45 -0.9 5.45 -1.3 5.75 -1.6" fill="#11e8ff" fill-rule="evenodd" stroke="none"/>
    <path d="M26.9 1.85 L29.8 1.85 28.1 5.05 25.2 5.05 26.7 2.25 26.9 1.85 M-1.65 11.85 L-4.65 11.9 -6.8 11.45 -6.7 10.8 -6.15 7.95 Q-5.55 5.65 -4.35 4.05 L-0.15 4.4 Q-0.2 6.5 -1.15 6.65 -2.15 8.7 -1.65 11.85 M-3.75 6.85 Q-4.85 9.35 -4.65 11.9 -4.85 9.35 -3.75 6.85" fill="#353638" fill-rule="evenodd" stroke="none"/>
    <path d="M-3.4 -1.5 Q0.4 -1.5 1.3 -2.5 2.0 -3.1 4.0 -3.35 L4.55 -4.95 M6.6 -3.55 L7.2 -4.95 M4.0 -3.35 L6.6 -3.55 10.6 -3.55 11.15 -4.5 11.55 -5.0 11.7 -5.1 12.95 -6.3 14.1 -6.95 -0.45 -6.95 Q-0.65 -5.7 -1.1 -4.6 L0.75 -4.6 M14.1 -6.95 L14.65 -7.2 Q16.3 -7.9 18.2 -7.65 L18.3 -7.65 18.6 -7.65 27.8 -7.65 Q28.75 -6.2 31.6 -5.5 L62.4 -5.5 63.7 -3.8 64.6 -2.3 26.7 -2.3 26.65 -2.75 Q26.5 -4.15 24.6 -5.5 L23.05 -5.5 22.5 -5.6 Q21.4 -6.7 20.0 -7.2 L18.6 -7.6 18.3 -7.65 M29.8 1.85 L34.95 1.85 42.0 1.85 48.55 1.85 56.1 1.85 63.15 1.85 66.3 1.85 67.05 5.05 Q67.2 6.45 66.1 7.05 64.8 5.15 62.0 5.05 L61.8 5.05 38.45 5.05 Q35.75 7.3 33.1 7.55 L21.65 6.65 18.75 7.2 17.45 7.25 15.1 6.9 Q15.15 7.7 14.15 8.25 L13.9 10.4 7.7 10.05 7.95 8.05 7.05 8.05 Q7.5 4.2 5.75 4.4 L2.85 4.4 -0.15 4.4 -4.35 4.05 -5.1 3.0 Q-8.1 2.4 -10.15 4.25 L-10.25 4.9 Q-10.6 6.6 -11.7 7.55 L-12.5 8.1 Q-15.55 9.0 -16.3 11.15 -17.65 11.55 -18.15 10.65 -18.5 5.75 -19.8 0.9 L-19.95 0.3 -20.05 -0.05 Q-19.05 -1.05 -17.5 -0.85 -12.55 0.3 -6.2 0.05 L-6.35 -1.55 -5.4 -1.55 -5.1 -1.55 -5.0 -1.55 -4.55 -1.5 -3.4 -1.5 Q-1.9 -2.85 -1.1 -4.6 M14.3 -4.9 Q12.7 -5.3 11.15 -4.5 M19.4 5.2 L17.65 5.5 Q16.0 5.45 14.75 4.7 14.1 4.35 13.6 3.8 11.9 2.1 11.9 -0.25 11.9 -2.15 12.95 -3.6 L13.6 -4.3 14.3 -4.9 15.3 -5.5 Q16.35 -6.0 17.65 -6.0 L19.95 -5.5 21.65 -4.3 22.8 -2.75 23.0 -2.3 Q23.35 -1.35 23.35 -0.25 L23.15 1.4 23.0 1.85 22.8 2.25 21.65 3.8 Q20.65 4.8 19.4 5.2 19.45 6.2 18.75 7.2 M10.6 -3.55 Q9.85 -2.05 9.9 -0.25 9.85 0.75 10.1 1.7 L10.9 3.55 11.0 3.75 12.1 5.05 12.25 5.2 13.45 6.15 13.6 6.25 14.2 6.55 15.1 6.9 M24.6 -5.5 L31.6 -5.5 M63.15 1.85 L62.05 3.4 M42.0 1.85 L40.85 3.4 M47.4 3.4 L48.55 1.85 M55.0 3.4 L56.1 1.85 M38.45 5.05 L34.8 5.05 M33.85 3.4 L34.95 1.85 M11.15 6.1 L12.25 5.2 M7.95 8.05 L14.15 8.2 14.15 8.25 M8.3 2.35 L10.1 1.7 M9.2 4.95 L11.0 3.75 M1.55 2.75 Q1.65 1.35 0.2 -0.05 -1.0 1.15 -3.4 0.85 M-5.1 3.0 Q-5.9 1.65 -6.2 0.05 M-13.1 6.1 Q-11.85 4.45 -11.35 1.85 L-13.75 1.55 M-16.2 8.25 Q-15.9 5.05 -17.05 1.6 -18.15 0.65 -19.8 0.9" fill="none" stroke="#513c1e" stroke-linecap="round" stroke-linejoin="round" stroke-width="1.0"/>
    <path d="M5.75 -1.6 L6.4 -1.85 7.05 -1.6 7.35 -0.9 7.05 -0.25 6.4 0.05 Q6.0 0.0 5.75 -0.25 5.45 -0.55 5.45 -0.9 5.45 -1.3 5.75 -1.6 M17.55 -3.2 Q18.2 -0.75 19.95 1.25 L19.9 -1.6 17.55 -3.2 Q16.9 -0.5 15.15 1.25 17.6 0.6 19.95 1.25 L17.55 2.8 15.15 1.25 15.15 -1.6 17.55 -3.2" fill="none" stroke="#015b65" stroke-linecap="round" stroke-linejoin="round" stroke-width="1.0"/>
    <path d="M26.7 -2.3 L25.95 -2.3 Q26.15 -0.35 25.6 1.4 L25.4 1.85 26.9 1.85 29.8 1.85 28.1 5.05 M2.85 4.4 Q3.45 11.35 -1.65 11.85 L-4.65 11.9 -6.8 11.45 -6.7 10.8 -6.15 7.95 Q-5.55 5.65 -4.35 4.05 M26.7 2.25 L26.9 1.85 M25.2 5.05 L26.7 2.25 M-1.65 11.85 Q-2.15 8.7 -1.15 6.65 -0.2 6.5 -0.15 4.4 M-4.65 11.9 Q-4.85 9.35 -3.75 6.85" fill="none" stroke="#191718" stroke-linecap="round" stroke-linejoin="round" stroke-width="1.0"/>
    <path d="M22.8 -2.75 L26.65 -2.75 M22.8 2.25 L26.7 2.25" fill="none" stroke="#191718" stroke-linecap="round" stroke-linejoin="round" stroke-opacity="0.0" stroke-width="1.0"/>
    <path d="M32.7 8.4 L29.75 8.4 27.3 8.4 25.05 8.4 24.05 8.4 Q21.3 8.2 21.6 6.7 L22.45 6.0 Q22.95 5.1 24.05 5.1 L34.75 5.1 Q33.9 5.4 33.05 7.55 L32.7 8.4 M25.4 7.1 L25.05 8.4 25.4 7.1 M27.65 7.1 L27.3 8.4 27.65 7.1 M29.75 8.4 L30.0 7.1 29.75 8.4" fill="#353638" fill-rule="evenodd" stroke="none"/>
    <path d="M32.7 8.4 L29.75 8.4 27.3 8.4 25.05 8.4 24.05 8.4 Q21.3 8.2 21.6 6.7 L22.45 6.0 Q22.95 5.1 24.05 5.1 L34.75 5.1 Q33.9 5.4 33.05 7.55 L32.7 8.4 M26.9 1.85 L29.8 1.85 M30.0 7.1 L29.75 8.4 M27.3 8.4 L27.65 7.1 M25.05 8.4 L25.4 7.1" fill="none" stroke="#191718" stroke-linecap="round" stroke-linejoin="round" stroke-width="1.0"/>
  </g>
  <defs>
    <radialGradient cx="0" cy="0" gradientTransform="matrix(0.0092, 0.0, 0.0, 0.0092, -1.75, -4.3)" gradientUnits="userSpaceOnUse" id="gradient0" r="819.2" spreadMethod="pad">
      <stop offset="0.0" stop-color="#11e8ff" stop-opacity="0.4"/>
      <stop offset="1.0" stop-color="#11e8ff" stop-opacity="0.0"/>
    </radialGradient>
    <radialGradient cx="0" cy="0" gradientTransform="matrix(0.002, 0.0, 0.0, 0.002, -0.8, -8.15)" gradientUnits="userSpaceOnUse" id="gradient1" r="819.2" spreadMethod="pad">
      <stop offset="0.0" stop-color="#ffffff"/>
      <stop offset="1.0" stop-color="#ffffff" stop-opacity="0.0"/>
    </radialGradient>
  </defs>
</svg>
