<?xml version="1.0" encoding="UTF-8" standalone="no"?>
<svg xmlns:ffdec="https://www.free-decompiler.com/flash" xmlns:xlink="http://www.w3.org/1999/xlink" ffdec:objectType="shape" height="7.4px" width="4.3px" xmlns="http://www.w3.org/2000/svg">
  <g transform="matrix(1.0, 0.0, 0.0, 1.0, -38.4, -11.55)">
    <path d="M42.55 12.3 L42.7 13.25 42.7 14.65 42.5 14.95 42.5 15.15 41.8 17.0 41.65 17.0 41.25 17.3 41.25 17.55 Q40.5 18.95 38.85 18.95 L38.85 18.4 38.9 18.05 39.25 18.05 40.8 16.25 40.8 15.5 40.3 15.5 40.3 15.15 39.65 15.15 39.05 14.4 38.4 14.4 38.4 13.75 38.6 13.45 38.9 13.4 38.9 12.95 41.4 11.55 42.55 12.3" fill="#ffffff" fill-rule="evenodd" stroke="none"/>
  </g>
</svg>
