<?xml version="1.0" encoding="UTF-8" standalone="no"?>
<svg xmlns:ffdec="https://www.free-decompiler.com/flash" xmlns:xlink="http://www.w3.org/1999/xlink" ffdec:objectType="shape" height="13.85px" width="20.35px" xmlns="http://www.w3.org/2000/svg">
  <g transform="matrix(1.0, 0.0, 0.0, 1.0, 6.0, 4.95)">
    <path d="M4.0 2.35 L0.15 -1.2 0.1 -4.45 3.5 -4.35 6.4 0.35 4.0 2.35 M-5.4 2.9 L-2.45 4.45 -0.95 6.65 1.55 6.6 2.75 5.15 6.0 5.65 7.25 6.3 13.0 6.25 13.25 7.15 11.8 8.4 -5.05 8.25 -4.85 6.75 -5.4 2.9" fill="#333333" fill-rule="evenodd" stroke="none"/>
    <path d="M4.0 2.35 L6.4 0.35 8.35 1.0 10.95 1.0 Q11.1 0.65 12.85 1.85 L13.85 4.95 13.0 6.25 7.25 6.3 6.0 5.65 2.75 5.15 2.85 3.35 4.0 2.35" fill="url(#gradient0)" fill-rule="evenodd" stroke="none"/>
    <path d="M0.1 -4.45 L0.15 -1.2 4.0 2.35 2.85 3.35 2.75 5.15 1.55 6.6 -0.95 6.65 -2.45 4.45 -5.4 2.9 -5.5 2.15 -5.5 0.85 -4.9 -4.45 0.1 -4.45" fill="url(#gradient1)" fill-rule="evenodd" stroke="none"/>
    <path d="M0.1 -4.45 L0.15 -1.2 4.0 2.35 6.4 0.35 3.5 -4.35 0.1 -4.45 -4.9 -4.45 -5.5 0.85 -5.5 2.15 -5.4 2.9 -2.45 4.45 -0.95 6.65 1.55 6.6 2.75 5.15 2.85 3.35 4.0 2.35 M13.0 6.25 L13.25 7.15 11.8 8.4 -5.05 8.25 -4.85 6.75 -5.4 2.9 M6.4 0.35 L8.35 1.0 10.95 1.0 Q11.1 0.65 12.85 1.85 L13.85 4.95 13.0 6.25 7.25 6.3 6.0 5.65 2.75 5.15" fill="none" stroke="#2b2927" stroke-linecap="round" stroke-linejoin="round" stroke-width="1.0"/>
  </g>
  <defs>
    <radialGradient cx="0" cy="0" gradientTransform="matrix(0.0104, 0.0, 0.0, 0.0104, 6.45, 4.85)" gradientUnits="userSpaceOnUse" id="gradient0" r="819.2" spreadMethod="pad">
      <stop offset="0.0" stop-color="#8a8580"/>
      <stop offset="1.0" stop-color="#6d6965"/>
      <stop offset="1.0" stop-color="#333333"/>
    </radialGradient>
    <radialGradient cx="0" cy="0" gradientTransform="matrix(0.0082, 0.0, 0.0, 0.0082, -1.25, -4.6)" gradientUnits="userSpaceOnUse" id="gradient1" r="819.2" spreadMethod="pad">
      <stop offset="0.0" stop-color="#4d4946"/>
      <stop offset="1.0" stop-color="#3c3b38"/>
      <stop offset="1.0" stop-color="#333333"/>
    </radialGradient>
  </defs>
</svg>
