<?xml version="1.0" encoding="UTF-8" standalone="no"?>
<svg xmlns:ffdec="https://www.free-decompiler.com/flash" xmlns:xlink="http://www.w3.org/1999/xlink" ffdec:objectType="shape" height="21.0px" width="22.95px" xmlns="http://www.w3.org/2000/svg">
  <g transform="matrix(1.0, 0.0, 0.0, 1.0, 9.7, 16.75)">
    <path d="M-5.55 -2.55 Q-4.0 -1.7 -3.0 -1.35 L-1.95 1.15 2.55 2.7 -1.85 2.05 Q-3.25 1.35 -3.4 0.45 -3.55 -0.45 -5.0 -1.3 -5.95 -1.9 -5.55 -2.55" fill="#2d3240" fill-rule="evenodd" stroke="none"/>
    <path d="M2.55 2.7 L-1.85 2.05 Q-3.25 1.35 -3.4 0.45 -3.55 -0.45 -5.0 -1.3 -5.95 -1.9 -5.55 -2.55" fill="none" stroke="#222226" stroke-linecap="round" stroke-linejoin="round" stroke-width="1.0"/>
    <path d="M0.65 -16.1 L0.7 -16.25 3.15 -16.0 5.05 -14.05 7.8 -13.65 9.1 -11.9 6.1 -12.05 3.05 -10.5 -1.3 -11.3 -2.85 -10.8 Q-3.85 -9.1 -4.0 -6.85 L-6.6 -6.05 -4.9 -4.6 -2.9 -5.5 -0.35 -4.95 Q3.3 -1.65 8.75 0.95 L8.7 1.0 7.35 2.2 3.8 1.55 -0.95 0.1 -1.9 -2.2 Q-7.75 -4.4 -9.2 -8.45 -8.55 -8.7 -9.15 -11.9 L-8.55 -12.65 -6.85 -11.7 -5.15 -10.95 -0.4 -13.95 0.0 -14.8 0.1 -15.05 0.65 -16.1 M0.35 -0.7 L1.3 -1.95 0.35 -0.7 M1.0 -12.65 L2.5 -12.3 3.8 -13.3 2.5 -12.3 1.0 -12.65 M2.75 0.1 L3.1 -0.8 2.75 0.1 M4.85 0.6 L5.0 0.15 4.85 0.6 M-6.15 -7.8 L-5.75 -9.5 -6.15 -7.8" fill="#8f9dae" fill-rule="evenodd" stroke="none"/>
    <path d="M-6.85 -11.7 L-6.45 -12.75 Q-6.0 -13.35 -4.9 -13.35 -4.1 -13.5 -3.5 -14.25 L-2.65 -15.5 Q-2.05 -16.05 -0.8 -15.85 L0.35 -15.75 0.35 -15.7 0.1 -15.05 0.0 -14.8 -0.4 -13.95 -5.15 -10.95 -6.85 -11.7" fill="#4b5975" fill-rule="evenodd" stroke="none"/>
    <path d="M9.9 -9.75 Q9.35 -9.25 9.9 -8.25 10.4 -7.3 12.75 -4.5 6.8 -4.5 1.75 -5.6 L1.75 -6.15 1.85 -7.4 1.95 -8.7 4.2 -8.45 6.4 -10.45 9.9 -9.75 M8.85 -9.0 Q8.55 -8.9 8.6 -8.4 L10.75 -5.4 Q11.45 -4.9 11.65 -5.1 L11.65 -5.5 9.15 -9.05 8.85 -9.0" fill="#5c79a3" fill-rule="evenodd" stroke="none"/>
    <path d="M8.85 -9.0 L9.15 -9.05 11.65 -5.5 11.65 -5.1 Q11.45 -4.9 10.75 -5.4 L8.6 -8.4 Q8.55 -8.9 8.85 -9.0" fill="#abc6d8" fill-rule="evenodd" stroke="none"/>
    <path d="M9.1 -11.9 L10.15 -11.65 10.4 -10.3 10.15 -10.0 9.9 -9.75 6.4 -10.45 4.2 -8.45 1.95 -8.7 1.85 -7.4 1.75 -6.15 1.75 -5.6 1.75 -5.5 Q1.95 -4.95 2.8 -4.2 4.35 -2.8 9.25 -0.55 L8.75 0.95 Q3.3 -1.65 -0.35 -4.95 L-2.9 -5.5 -4.9 -4.6 -6.6 -6.05 -4.0 -6.85 Q-3.85 -9.1 -2.85 -10.8 L-1.3 -11.3 3.05 -10.5 6.1 -12.05 9.1 -11.9 M-2.9 -5.5 L-4.0 -6.85 -2.9 -5.5" fill="#b6a9a2" fill-rule="evenodd" stroke="none"/>
    <path d="M12.75 -4.5 Q10.1 -2.55 9.25 -0.55 4.35 -2.8 2.8 -4.2 1.95 -4.95 1.75 -5.5 L1.75 -5.6 Q6.8 -4.5 12.75 -4.5" fill="#32335e" fill-rule="evenodd" stroke="none"/>
    <path d="M8.7 1.0 L9.9 2.55 9.9 3.75 8.75 3.75 7.05 3.3 7.55 2.2 7.35 2.2 8.7 1.0" fill="#7b7b7b" fill-rule="evenodd" stroke="none"/>
    <path d="M7.05 3.3 L2.55 2.7 -1.95 1.15 -3.0 -1.35 Q-4.0 -1.7 -5.55 -2.55 L-8.05 -3.25 Q-9.3 -4.85 -9.2 -8.45 -7.75 -4.4 -1.9 -2.2 L-0.95 0.1 3.8 1.55 7.35 2.2 7.55 2.2 7.05 3.3" fill="#938982" fill-rule="evenodd" stroke="none"/>
    <path d="M0.65 -16.1 L0.7 -16.25 3.15 -16.0 5.05 -14.05 7.8 -13.65 9.1 -11.9 M8.75 0.95 L8.7 1.0 7.35 2.2 M-9.2 -8.45 Q-8.55 -8.7 -9.15 -11.9 L-8.55 -12.65 -6.85 -11.7 -5.15 -10.95 -0.4 -13.95 0.0 -14.8 0.1 -15.05 0.65 -16.1 0.35 -15.7" fill="none" stroke="#424651" stroke-linecap="round" stroke-linejoin="round" stroke-width="1.0"/>
    <path d="M-6.85 -11.7 L-6.45 -12.75 Q-6.0 -13.35 -4.9 -13.35 -4.1 -13.5 -3.5 -14.25 L-2.65 -15.5 Q-2.05 -16.05 -0.8 -15.85 L0.35 -15.75 0.35 -15.7" fill="none" stroke="#2e2d3f" stroke-linecap="round" stroke-linejoin="round" stroke-width="1.0"/>
    <path d="M10.15 -10.0 L9.9 -9.75 Q9.35 -9.25 9.9 -8.25 10.4 -7.3 12.75 -4.5 10.1 -2.55 9.25 -0.55" fill="none" stroke="#2f2e41" stroke-linecap="round" stroke-linejoin="round" stroke-width="1.0"/>
    <path d="M9.1 -11.9 L10.15 -11.65 10.4 -10.3 10.15 -10.0 M9.25 -0.55 L8.75 0.95 Q3.3 -1.65 -0.35 -4.95 L-2.9 -5.5 -4.9 -4.6 -6.6 -6.05 -4.0 -6.85 Q-3.85 -9.1 -2.85 -10.8 L-1.3 -11.3 3.05 -10.5 6.1 -12.05 9.1 -11.9 M9.9 -9.75 L6.4 -10.45 4.2 -8.45 1.95 -8.7 1.85 -7.4 1.75 -6.15 1.75 -5.6 1.75 -5.5 Q1.95 -4.95 2.8 -4.2 4.35 -2.8 9.25 -0.55 M-4.0 -6.85 L-2.9 -5.5" fill="none" stroke="#4a4846" stroke-linecap="round" stroke-linejoin="round" stroke-width="1.0"/>
    <path d="M1.3 -1.95 L0.35 -0.7 M5.0 0.15 L4.85 0.6 M3.1 -0.8 L2.75 0.1" fill="none" stroke="#575d6c" stroke-linecap="round" stroke-linejoin="round" stroke-width="1.0"/>
    <path d="M3.8 -13.3 L2.5 -12.3 1.0 -12.65" fill="none" stroke="#78899c" stroke-linecap="round" stroke-linejoin="round" stroke-width="1.0"/>
    <path d="M7.05 3.3 L2.55 2.7 -1.95 1.15 -3.0 -1.35 Q-4.0 -1.7 -5.55 -2.55 L-8.05 -3.25 Q-9.3 -4.85 -9.2 -8.45 -7.75 -4.4 -1.9 -2.2 L-0.95 0.1 3.8 1.55 7.35 2.2 7.55 2.2 7.05 3.3" fill="none" stroke="#52504e" stroke-linecap="round" stroke-linejoin="round" stroke-width="1.0"/>
    <path d="M8.7 1.0 L9.9 2.55 9.9 3.75 8.75 3.75 7.05 3.3" fill="none" stroke="#3c3c3c" stroke-linecap="round" stroke-linejoin="round" stroke-width="1.0"/>
    <path d="M-5.75 -9.5 L-6.15 -7.8" fill="none" stroke="#b6d1e7" stroke-linecap="round" stroke-linejoin="round" stroke-width="1.0"/>
    <path d="M-2.05 -7.9 Q-2.0 -7.25 -1.6 -6.95 -1.25 -6.55 -0.8 -6.6 -0.4 -6.65 -0.05 -7.15 L0.15 -8.15 -0.3 -9.15 Q-0.75 -9.5 -1.15 -9.45 -1.6 -9.4 -1.85 -8.95 -2.15 -8.5 -2.05 -7.9" fill="#7f8185" fill-rule="evenodd" stroke="none"/>
    <path d="M-2.05 -7.9 Q-2.0 -7.25 -1.6 -6.95 -1.25 -6.55 -0.8 -6.6 -0.4 -6.65 -0.05 -7.15 L0.15 -8.15 -0.3 -9.15 Q-0.75 -9.5 -1.15 -9.45 -1.6 -9.4 -1.85 -8.95 -2.15 -8.5 -2.05 -7.9 Z" fill="none" stroke="#3d3d3d" stroke-linecap="round" stroke-linejoin="round" stroke-width="1.0"/>
  </g>
</svg>
