<?xml version="1.0" encoding="UTF-8" standalone="no"?>
<svg xmlns:xlink="http://www.w3.org/1999/xlink" height="20.6px" width="20.0px" xmlns="http://www.w3.org/2000/svg">
  <g transform="matrix(1.0, 0.0, 0.0, 1.0, 8.5, 18.0)">
    <path d="M-2.55 0.85 Q-1.85 -2.5 -2.7 -4.85 -6.3 -9.3 -2.7 -14.65 -0.05 -16.7 3.9 -16.25 8.1 -15.75 9.4 -12.75 L9.4 -8.5 Q9.35 -7.6 10.9 -5.45 11.2 -4.95 10.55 -4.4 L9.8 -3.9 8.9 -1.1 8.45 -0.4 6.35 -0.25 5.2 -0.6 5.0 -0.45 Q4.05 0.45 3.2 2.1 0.65 1.9 -2.55 0.85 M4.35 -0.75 L5.2 -0.6 4.35 -0.75" fill="#e3bfa5" fill-rule="evenodd" stroke="none"/>
    <path d="M5.2 -0.6 L6.35 -0.25 8.45 -0.4 8.9 -1.1 9.8 -3.9 10.55 -4.4 Q11.2 -4.95 10.9 -5.45 9.35 -7.6 9.4 -8.5 L9.4 -12.75 Q8.1 -15.75 3.9 -16.25 -0.05 -16.7 -2.7 -14.65 -6.3 -9.3 -2.7 -4.85 -1.85 -2.5 -2.55 0.85 M3.2 2.1 Q4.05 0.45 5.0 -0.45 L5.2 -0.6 4.35 -0.75" fill="none" stroke="#907660" stroke-linecap="round" stroke-linejoin="round" stroke-width="1.0"/>
    <path d="M7.0 -8.15 L5.8 -8.1 6.4 -7.2 7.9 -7.3 7.0 -8.15" fill="#b0d2d4" fill-rule="evenodd" stroke="none"/>
    <path d="M7.0 -8.15 L7.9 -7.3 6.4 -7.2 5.8 -8.1 7.0 -8.15 Z" fill="none" stroke="#87786f" stroke-linecap="round" stroke-linejoin="round" stroke-width="0.5"/>
    <path d="M7.9 -7.3 L7.3 -7.95 5.8 -8.1" fill="none" stroke="#6f5d57" stroke-linecap="round" stroke-linejoin="round" stroke-width="0.5"/>
    <path d="M7.1 -7.05 Q7.4 -7.05 7.4 -7.6 7.3 -8.1 7.0 -8.1 6.7 -8.1 6.7 -7.55 6.7 -6.95 7.1 -7.05" fill="#1d1d1d" fill-rule="evenodd" stroke="none"/>
    <path d="M9.0 -2.15 L7.8 -2.2" fill="none" stroke="#64594c" stroke-linecap="round" stroke-linejoin="round" stroke-width="0.75"/>
    <path d="M9.8 -13.05 Q9.5 -14.2 8.3 -15.4 2.25 -14.15 -2.45 -15.9 -4.3 -14.5 -4.6 -11.25 1.75 -11.15 9.8 -13.05 M-5.8 -6.65 Q-7.05 -6.6 -7.65 -7.45 L-8.0 -8.2 -8.0 -8.3 Q-6.05 -9.0 -5.6 -10.6 L-4.85 -13.25 Q-4.35 -14.95 -3.8 -15.55 -2.7 -16.75 -0.9 -17.2 L2.1 -17.45 5.2 -17.3 6.6 -17.0 Q9.5 -16.1 10.35 -13.4 10.9 -11.5 10.45 -9.6 L10.35 -9.25 10.3 -8.95 8.85 -9.0 8.65 -10.05 Q8.3 -11.2 7.8 -11.5 L7.15 -9.35 5.75 -9.75 4.5 -9.7 4.1 -9.25 Q3.55 -7.6 4.25 -5.9 5.05 -4.05 7.0 -3.7 L6.3 -2.9 Q5.7 -2.45 4.75 -2.25 L4.75 -2.2 4.55 -2.2 4.55 -1.35 4.35 -0.75 3.2 0.45 2.55 -0.45 2.45 -0.55 Q1.7 -1.45 0.85 -1.6 L0.5 -0.95 0.45 -0.85 Q0.0 -0.15 -0.9 0.2 L-2.15 0.45 Q-1.9 -0.35 -1.95 -1.2 -1.95 -3.0 -3.1 -3.55 L-3.6 -3.15 -4.1 -1.65 -4.1 -1.55 Q-5.5 -2.25 -5.75 -4.55 L-5.8 -6.65 -5.2 -8.3 -5.8 -6.65 M3.2 -2.3 L4.55 -2.2 3.2 -2.3" fill="#c7b895" fill-rule="evenodd" stroke="none"/>
    <path d="M9.8 -13.05 Q1.75 -11.15 -4.6 -11.25 -4.3 -14.5 -2.45 -15.9 2.25 -14.15 8.3 -15.4 9.5 -14.2 9.8 -13.05" fill="#e0cfa6" fill-rule="evenodd" stroke="none"/>
    <path d="M-5.8 -6.65 Q-7.05 -6.6 -7.65 -7.45 L-8.0 -8.2 -8.0 -8.3 Q-6.05 -9.0 -5.6 -10.6 L-4.85 -13.25 Q-4.35 -14.95 -3.8 -15.55 -2.7 -16.75 -0.9 -17.2 L2.1 -17.45 5.2 -17.3 6.6 -17.0 Q9.5 -16.1 10.35 -13.4 10.9 -11.5 10.45 -9.6 L10.35 -9.25 10.3 -8.95 8.85 -9.0 8.65 -10.05 Q8.3 -11.2 7.8 -11.5 L7.15 -9.35 5.75 -9.75 4.5 -9.7 4.1 -9.25 Q3.55 -7.6 4.25 -5.9 5.05 -4.05 7.0 -3.7 L6.3 -2.9 Q5.7 -2.45 4.75 -2.25 L4.75 -2.2 4.55 -2.2 4.55 -1.35 4.35 -0.75 3.2 0.45 2.55 -0.45 2.45 -0.55 Q1.7 -1.45 0.85 -1.6 L0.5 -0.95 0.45 -0.85 Q0.0 -0.15 -0.9 0.2 L-2.15 0.45 Q-1.9 -0.35 -1.95 -1.2 -1.95 -3.0 -3.1 -3.55 L-3.6 -3.15 -4.1 -1.65 -4.1 -1.55 Q-5.5 -2.25 -5.75 -4.55 L-5.8 -6.65 -5.2 -8.3 M4.55 -2.2 L3.2 -2.3" fill="none" stroke="#64594c" stroke-linecap="round" stroke-linejoin="round" stroke-opacity="0.5019608" stroke-width="1.0"/>
  </g>
</svg>
