<?xml version="1.0" encoding="UTF-8" standalone="no"?>
<svg xmlns:ffdec="https://www.free-decompiler.com/flash" xmlns:xlink="http://www.w3.org/1999/xlink" ffdec:objectType="shape" height="11.75px" width="17.35px" xmlns="http://www.w3.org/2000/svg">
  <g transform="matrix(1.0, 0.0, 0.0, 1.0, 0.5, -0.35)">
    <path d="M10.55 5.55 Q11.85 5.3 14.65 5.6 17.4 5.85 15.7 10.15 L15.1 10.15 9.5 10.15 8.45 8.9 6.15 8.9 7.0 7.1 10.55 5.55 M0.0 8.9 L0.0 5.4 2.35 7.35 3.55 9.45 0.0 8.9" fill="#101010" fill-rule="evenodd" stroke="none"/>
    <path d="M15.1 10.15 L14.5 11.6 8.4 11.6 7.75 10.5 5.5 10.5 4.65 11.15 0.0 10.5 0.0 8.9 3.55 9.45 2.35 7.35 0.0 5.4 0.6 4.0 0.6 0.85 7.2 1.35 7.2 3.35 8.25 3.9 9.3 4.5 9.35 4.55 10.55 5.55 7.0 7.1 6.15 8.9 8.45 8.9 9.5 10.15 15.1 10.15 M8.25 3.9 L6.4 5.2 8.25 3.9 M9.35 4.55 L8.0 5.5 9.35 4.55 M5.6 8.9 L4.5 9.6 3.55 9.45 4.5 9.6 5.6 8.9 6.15 8.9 5.6 8.9" fill="#1e1e1e" fill-rule="evenodd" stroke="none"/>
    <path d="M10.55 5.55 Q11.85 5.3 14.65 5.6 17.4 5.85 15.7 10.15 M0.0 8.9 L0.0 5.4 0.6 4.0 0.6 0.85 7.2 1.35 7.2 3.35 8.25 3.9 9.3 4.5 9.35 4.55 10.55 5.55 7.0 7.1 6.15 8.9 5.6 8.9" fill="none" stroke="#131313" stroke-linecap="round" stroke-linejoin="round" stroke-width="1.0"/>
    <path d="M8.0 5.5 L9.35 4.55 M6.4 5.2 L8.25 3.9 M0.0 5.4 L2.35 7.35 3.55 9.45" fill="none" stroke="#191818" stroke-linecap="round" stroke-linejoin="round" stroke-width="1.0"/>
    <path d="M15.7 10.15 L15.1 10.15 14.5 11.6 8.4 11.6 7.75 10.5 5.5 10.5 4.65 11.15 0.0 10.5 0.0 8.9 3.55 9.45 4.5 9.6 5.6 8.9 M6.15 8.9 L8.45 8.9 9.5 10.15 15.1 10.15" fill="none" stroke="#121212" stroke-linecap="round" stroke-linejoin="round" stroke-width="1.0"/>
  </g>
</svg>
