<?xml version="1.0" encoding="UTF-8" standalone="no"?>
<svg xmlns:ffdec="https://www.free-decompiler.com/flash" xmlns:xlink="http://www.w3.org/1999/xlink" ffdec:objectType="shape" height="14.65px" width="21.25px" xmlns="http://www.w3.org/2000/svg">
  <g transform="matrix(1.0, 0.0, 0.0, 1.0, 7.5, 19.45)">
    <path d="M1.25 -5.1 L-4.1 -6.6 Q-6.0 -7.15 -5.85 -9.15 L3.6 -6.5 Q4.7 -4.1 1.25 -5.1" fill="#000000" fill-opacity="0.101960786" fill-rule="evenodd" stroke="none"/>
    <path d="M-3.3 -16.8 L-3.6 -16.65 -4.15 -16.05 -5.0 -15.2 Q-5.5 -14.7 -5.45 -14.05 L-3.5 -12.4 -0.7 -15.4 -3.3 -16.8" fill="#4e3e39" fill-rule="evenodd" stroke="none"/>
    <path d="M-3.3 -16.8 L-3.6 -16.65 -4.15 -16.05 -5.0 -15.2 Q-5.5 -14.7 -5.45 -14.05 L-3.5 -12.4 -0.7 -15.4 -3.3 -16.8 Z" fill="none" stroke="#252323" stroke-linecap="round" stroke-linejoin="round" stroke-width="1.0"/>
    <path d="M-1.6 -17.95 L-1.05 -14.3 4.55 -14.3 6.05 -17.6 5.25 -18.1 3.75 -18.25 Q3.35 -18.0 2.4 -18.65 1.45 -19.2 0.85 -18.65 0.6 -18.5 -0.15 -18.65 -0.9 -18.75 -1.6 -17.95" fill="#4e3e39" fill-rule="evenodd" stroke="none"/>
    <path d="M-1.6 -17.95 Q-0.9 -18.75 -0.15 -18.65 0.6 -18.5 0.85 -18.65 1.45 -19.2 2.4 -18.65 3.35 -18.0 3.75 -18.25 L5.25 -18.1 6.05 -17.6 4.55 -14.3 -1.05 -14.3 -1.6 -17.95 Z" fill="none" stroke="#252323" stroke-linecap="round" stroke-linejoin="round" stroke-width="1.0"/>
    <path d="M-1.75 -18.55 L-2.65 -18.1 -3.75 -17.35 -2.85 -15.5 -4.1 -13.55 -5.95 -14.35 -6.45 -13.55 -6.6 -12.1 -4.1 -8.3 -2.6 -9.0 1.3 -7.8 3.15 -10.3 Q4.85 -11.1 6.55 -12.0 L10.2 -12.15 11.35 -13.1 Q10.0 -15.75 9.25 -16.6 8.6 -17.45 6.3 -18.2 L4.55 -15.8 -0.1 -16.0 -1.75 -18.55" fill="#b39a82" fill-rule="evenodd" stroke="none"/>
    <path d="M-1.75 -18.55 L-0.1 -16.0 4.55 -15.8 6.3 -18.2 Q8.6 -17.45 9.25 -16.6 10.0 -15.75 11.35 -13.1 L10.2 -12.15 6.55 -12.0 Q4.85 -11.1 3.15 -10.3 L1.3 -7.8 -2.6 -9.0 -4.1 -8.3 -6.6 -12.1 -6.45 -13.55 -5.95 -14.35 -4.1 -13.55 -2.85 -15.5 -3.75 -17.35 -2.65 -18.1 -1.75 -18.55 Z" fill="none" stroke="#745b52" stroke-linecap="round" stroke-linejoin="round" stroke-width="1.0"/>
    <path d="M5.65 -12.4 Q4.95 -11.7 3.45 -11.75 L0.85 -8.85 2.0 -8.0 3.6 -9.85 Q5.2 -9.65 6.35 -10.45 L7.15 -11.3 13.25 -11.3 12.45 -13.1 6.05 -13.1 5.65 -12.4" fill="#858381" fill-rule="evenodd" stroke="none"/>
    <path d="M3.45 -11.75 L0.85 -8.85 2.0 -8.0 3.6 -9.85 Q5.2 -9.65 6.35 -10.45 L7.15 -11.3 13.25 -11.3 12.45 -13.1 6.05 -13.1 5.65 -12.4 Q4.95 -11.7 3.45 -11.75 Z" fill="none" stroke="#50504d" stroke-linecap="round" stroke-linejoin="round" stroke-width="1.0"/>
    <path d="M-4.15 -7.35 L-2.4 -8.15 3.35 -6.0 2.0 -7.7 3.6 -9.75 Q5.2 -9.5 6.35 -10.35 L7.15 -11.3 13.25 -11.3 12.45 -13.1 6.05 -13.1 Q5.75 -12.1 4.55 -11.8 L3.45 -11.75 0.85 -8.85 -2.55 -9.95 -4.0 -9.25 Q-5.2 -10.35 -6.45 -13.55 L-7.0 -11.85 Q-6.6 -9.6 -4.15 -7.35" fill="#917563" fill-rule="evenodd" stroke="none"/>
    <path d="M-4.15 -7.35 Q-6.6 -9.6 -7.0 -11.85 L-6.45 -13.55 Q-5.2 -10.35 -4.0 -9.25 L-2.55 -9.95 0.85 -8.85 3.45 -11.75 4.55 -11.8 Q5.75 -12.1 6.05 -13.1 L12.45 -13.1 13.25 -11.3 7.15 -11.3 6.35 -10.35 Q5.2 -9.5 3.6 -9.75 L2.0 -7.7 3.35 -6.0 -2.4 -8.15 -4.15 -7.35 Z" fill="none" stroke="#56433d" stroke-linecap="round" stroke-linejoin="round" stroke-width="1.0"/>
    <path d="M6.35 -10.35 L7.15 -11.3 10.7 -11.3 Q11.8 -10.2 12.35 -7.95 L12.65 -6.0 5.65 -6.0 4.9 -6.5 Q4.05 -6.8 3.35 -6.0 L2.0 -7.7 3.6 -9.75 Q5.25 -9.5 6.35 -10.35" fill="#88b1b8" fill-opacity="0.8" fill-rule="evenodd" stroke="none"/>
    <path d="M6.35 -10.35 Q5.25 -9.5 3.6 -9.75 L2.0 -7.7 3.35 -6.0 Q4.05 -6.8 4.9 -6.5 L5.65 -6.0 12.65 -6.0 12.35 -7.95 Q11.8 -10.2 10.7 -11.3 L7.15 -11.3 6.35 -10.35 Z" fill="none" stroke="#5b7076" stroke-linecap="round" stroke-linejoin="round" stroke-width="1.0"/>
    <path d="M-1.75 -11.15 L-0.9 -11.05 -0.2 -11.65 0.2 -12.45 Q0.4 -12.85 0.25 -13.25 L-0.3 -13.95 -1.15 -14.05 -1.85 -13.5 -2.25 -12.7 -2.3 -11.8 Q-2.2 -11.35 -1.75 -11.15" fill="#917563" fill-rule="evenodd" stroke="none"/>
    <path d="M-1.75 -11.15 L-0.9 -11.05 -0.2 -11.65 0.2 -12.45 Q0.4 -12.85 0.25 -13.25 L-0.3 -13.95 -1.15 -14.05 -1.85 -13.5 -2.25 -12.7 -2.3 -11.8 Q-2.2 -11.35 -1.75 -11.15 Z" fill="none" stroke="#56433d" stroke-linecap="round" stroke-linejoin="round" stroke-width="1.0"/>
    <path d="M3.95 -14.05 L1.7 -14.05" fill="none" stroke="#745b52" stroke-linecap="round" stroke-linejoin="round" stroke-width="1.0"/>
    <path d="M2.9 -7.7 L3.1 -7.2 Q3.3 -7.05 3.55 -7.05 4.25 -7.05 4.25 -7.7 4.25 -8.4 3.55 -8.4 2.9 -8.4 2.9 -7.7" fill="#6e6d69" fill-rule="evenodd" stroke="none"/>
    <path d="M2.9 -7.7 L3.1 -7.2 Q3.3 -7.05 3.55 -7.05 4.25 -7.05 4.25 -7.7 4.25 -8.4 3.55 -8.4 2.9 -8.4 2.9 -7.7 Z" fill="none" stroke="#393937" stroke-linecap="round" stroke-linejoin="round" stroke-width="1.0"/>
  </g>
</svg>
