<?xml version="1.0" encoding="UTF-8" standalone="no"?>
<svg xmlns:ffdec="https://www.free-decompiler.com/flash" xmlns:xlink="http://www.w3.org/1999/xlink" ffdec:objectType="shape" height="8.75px" width="17.05px" xmlns="http://www.w3.org/2000/svg">
  <g transform="matrix(1.0, 0.0, 0.0, 1.0, 6.85, 2.35)">
    <path d="M6.3 0.5 L3.6 5.85 -2.6 5.85 -4.9 1.95 Q-3.7 -1.0 -2.9 -1.55 L-0.05 -1.7 Q0.75 -1.8 2.65 -0.8 4.8 0.3 6.3 0.5" fill="#212227" fill-rule="evenodd" stroke="none"/>
    <path d="M6.3 0.5 Q4.8 0.3 2.65 -0.8 0.75 -1.8 -0.05 -1.7 L-2.9 -1.55 Q-3.7 -1.0 -4.9 1.95 L-2.6 5.85 3.6 5.85 6.3 0.5 Z" fill="none" stroke="#101116" stroke-linecap="round" stroke-linejoin="round" stroke-width="1.05"/>
    <path d="M-4.2 1.5 L-3.15 2.0 -2.6 5.85 -5.9 5.85 -6.35 4.25 -6.0 2.25 -4.2 1.5" fill="#323642" fill-rule="evenodd" stroke="none"/>
    <path d="M-4.2 1.5 L-6.0 2.25 -6.35 4.25 -5.9 5.85 -2.6 5.85 -3.15 2.0 -4.2 1.5 Z" fill="none" stroke="#101116" stroke-linecap="round" stroke-linejoin="round" stroke-width="1.05"/>
    <path d="M6.3 0.5 L7.6 1.35 Q8.9 2.35 9.05 3.05 L9.7 5.9 3.6 5.85 3.85 3.55 4.85 2.5 6.3 0.5" fill="#323642" fill-rule="evenodd" stroke="none"/>
    <path d="M6.3 0.5 L7.6 1.35 Q8.9 2.35 9.05 3.05 L9.7 5.9 3.6 5.85 3.85 3.55 4.85 2.5 6.3 0.5 Z" fill="none" stroke="#101116" stroke-linecap="round" stroke-linejoin="round" stroke-width="1.05"/>
  </g>
</svg>
