<?xml version="1.0" encoding="UTF-8" standalone="no"?>
<svg xmlns:ffdec="https://www.free-decompiler.com/flash" xmlns:xlink="http://www.w3.org/1999/xlink" ffdec:objectType="shape" height="22.15px" width="14.75px" xmlns="http://www.w3.org/2000/svg">
  <g transform="matrix(1.0, 0.0, 0.0, 1.0, 0.35, 0.35)">
    <path d="M13.3 18.7 L13.15 20.3 10.55 21.3 9.65 20.75 9.6 19.95 8.2 17.05 9.0 16.05 10.3 18.95 10.45 18.95 11.25 19.05 13.3 18.7" fill="#262521" fill-rule="evenodd" stroke="none"/>
    <path d="M9.0 16.05 L8.2 17.05 9.6 19.95 9.65 20.75 10.55 21.3 13.15 20.3 13.3 18.7" fill="none" stroke="#000000" stroke-linecap="round" stroke-linejoin="round" stroke-width="1.0"/>
    <path d="M8.8 15.1 L8.8 15.05 Q9.25 14.2 10.2 14.0 L10.95 13.95 12.3 14.2 12.4 14.2 12.55 14.25 12.8 14.35 13.9 17.9 13.3 18.3 13.25 18.35 11.2 18.7 10.45 18.5 10.35 18.55 8.8 15.1" fill="#111111" fill-rule="evenodd" stroke="none"/>
    <path d="M8.8 15.1 L10.35 18.55 10.45 18.5 11.2 18.7 13.25 18.35 13.3 18.3 13.9 17.9 12.8 14.35 12.55 14.25" fill="none" stroke="#000000" stroke-linecap="round" stroke-linejoin="round" stroke-width="1.0"/>
    <path d="M10.5 13.1 L10.35 13.05 10.25 13.15 10.05 12.9 10.0 12.7 10.25 12.55 10.2 12.55 10.35 12.5 10.55 12.5 10.6 12.6 10.5 12.6 10.65 12.8 10.5 12.85 10.6 13.05 10.5 13.05 10.5 13.1 10.65 13.15 10.55 13.3 10.65 13.4 10.6 13.45 10.7 13.45 10.6 13.6 10.55 13.55 10.55 13.45 10.4 13.3 10.5 13.25 10.5 13.1 M9.1 13.45 L8.9 13.25 8.85 13.0 8.75 12.95 9.0 12.85 9.15 12.9 9.2 13.0 9.25 13.05 9.4 13.25 9.35 13.3 9.3 13.45 9.15 13.4 9.1 13.45 M9.35 13.4 L9.45 13.45 9.55 13.45 9.6 13.65 9.55 13.75 9.8 13.75 9.85 13.9 9.8 14.0 9.75 14.05 9.7 13.95 9.65 13.95 9.65 13.9 9.55 13.8 9.3 13.6 9.35 13.4 M12.25 16.6 L12.0 16.1 11.55 16.1 11.2 15.85 11.0 15.85 10.8 16.05 10.6 16.05 10.45 16.15 9.9 15.9 9.7 15.9 9.65 15.75 9.4 15.75 9.3 15.55 9.2 15.5 9.25 15.45 9.15 15.45 9.2 15.3 9.8 15.15 10.05 15.15 10.15 15.2 10.25 15.1 10.2 15.1 10.25 15.05 10.05 15.0 9.9 15.05 9.8 15.05 10.0 15.0 10.0 14.95 9.95 14.9 10.0 14.9 10.0 14.85 10.05 14.8 10.1 14.7 10.05 14.6 10.2 14.6 10.0 14.55 10.1 14.55 10.0 14.45 9.8 14.35 9.85 14.25 9.85 14.0 10.0 14.05 10.1 14.15 10.25 14.15 10.3 14.2 10.4 14.1 10.5 14.15 10.55 14.1 10.7 14.05 10.7 14.0 10.8 14.05 11.2 14.1 11.1 14.2 11.15 14.25 11.1 14.25 11.2 14.55 11.3 14.55 11.15 14.6 11.25 14.65 11.15 14.65 11.05 14.55 11.1 14.5 11.0 14.55 11.05 14.5 10.85 14.5 10.9 14.55 10.75 14.5 10.7 14.6 10.8 14.65 10.95 14.8 10.75 14.8 10.7 14.7 10.6 14.65 10.4 14.7 10.4 14.9 10.65 15.25 10.7 15.25 10.7 15.4 11.0 15.6 11.05 15.65 11.05 15.6 11.2 15.6 11.3 15.5 11.35 15.35 11.35 15.3 11.4 15.2 11.35 15.2 11.5 15.0 11.55 14.95 11.6 14.85 11.55 14.9 11.6 14.8 11.8 14.75 11.85 14.65 11.95 14.65 12.05 14.55 12.15 14.6 12.15 14.65 12.2 14.7 12.15 14.75 12.25 14.8 12.35 14.95 12.3 15.05 12.25 15.1 12.4 15.35 12.3 15.3 12.2 15.5 12.3 15.6 12.15 16.1 12.25 16.25 12.25 16.6 M13.1 14.25 L13.2 14.25 13.2 14.4 13.1 14.4 13.1 14.25 M11.6 13.45 L11.5 13.4 11.3 13.0 11.35 12.95 11.4 12.85 11.65 12.85 11.9 13.05 11.75 13.4 11.65 13.35 11.6 13.45 M11.55 13.85 L11.55 13.7 11.65 13.7 11.6 13.55 11.55 13.5 11.8 13.5 11.7 13.7 11.75 13.8 11.65 13.75 11.75 13.85 11.6 13.9 11.55 13.85 M11.5 13.9 L11.55 13.9 11.75 13.95 11.7 14.0 11.8 14.0 11.75 14.15 11.55 14.1 11.5 14.05 11.5 13.9 M10.65 13.95 L10.45 13.7 10.5 13.55 10.6 13.7 10.7 13.65 10.8 13.65 10.8 13.85 10.65 13.95 M12.4 15.55 L12.45 15.4 12.5 15.4 12.45 15.55 12.4 15.55 M12.55 15.65 L12.5 15.75 12.6 15.75 12.65 15.9 12.5 15.8 12.45 15.7 12.55 15.65" fill="#000000" fill-opacity="0.6" fill-rule="evenodd" stroke="none"/>
    <path d="M3.0 7.75 L5.75 6.35 7.45 5.2 7.45 5.1 8.35 4.35 9.5 5.05 11.7 12.7 11.9 14.3 11.9 14.35 Q11.1 15.35 10.1 15.7 L8.0 16.3 7.65 16.3 5.25 12.6 5.05 13.3 3.95 10.7 3.35 9.85 3.1 9.4 3.0 7.75" fill="#111111" fill-rule="evenodd" stroke="none"/>
    <path d="M8.35 4.35 L7.45 5.1 7.45 5.2 5.75 6.35 3.0 7.75 1.6 4.55 2.9 4.2 3.5 4.4 3.2 4.05 Q3.85 1.1 4.55 1.1 L5.55 1.45 6.55 1.55 7.2 1.65 8.1 3.85 8.35 4.25 8.35 4.35" fill="#141412" fill-rule="evenodd" stroke="none"/>
    <path d="M3.2 4.05 L3.5 4.4 2.9 4.2 3.2 4.05" fill="url(#gradient0)" fill-rule="evenodd" stroke="none"/>
    <path d="M3.6 10.3 L3.65 10.35 3.95 10.85 3.6 10.3" fill="#242423" fill-rule="evenodd" stroke="none"/>
    <path d="M10.1 9.7 L10.4 10.0 10.25 10.05 10.6 10.85 10.1 10.0 9.6 9.35 9.75 9.65 9.75 9.7 8.05 6.65 8.05 7.05 8.75 9.25 7.7 6.75 7.75 7.0 7.65 6.8 Q7.3 7.2 7.7 8.15 L8.0 8.8 7.9 8.75 8.1 9.6 7.8 9.2 7.85 9.3 6.7 8.05 6.5 6.7 9.4 4.8 10.3 6.05 10.3 6.2 10.6 6.85 10.25 6.45 10.15 6.55 11.2 8.9 9.85 6.6 9.85 6.65 10.05 7.35 9.85 6.95 9.75 7.2 9.85 7.2 10.1 7.55 11.1 9.65 11.15 9.9 10.25 8.1 9.15 7.05 10.05 8.0 10.15 8.35 9.85 8.0 9.75 7.95 9.55 7.75 Q9.15 7.1 10.05 8.85 L10.2 9.2 9.95 8.9 9.95 9.4 10.1 9.7" fill="#000000" fill-opacity="0.4392157" fill-rule="evenodd" stroke="none"/>
    <path d="M3.95 10.65 Q5.05 13.45 6.85 14.85 L7.2 15.55 4.1 15.45 2.1 12.0 3.95 10.65" fill="#111111" fill-rule="evenodd" stroke="none"/>
    <path d="M9.5 5.0 L8.35 4.2 8.35 4.3 7.4 5.05 7.4 5.15 5.75 6.3 4.4 7.05 3.0 7.7 3.0 9.35 3.65 10.3 6.75 10.9 8.65 13.85 8.7 13.85 8.75 13.9 8.8 13.9 9.0 14.1 Q10.65 13.65 11.7 12.65 L9.5 5.0 M4.4 7.05 L3.5 4.35 3.2 4.0 Q3.8 1.05 4.55 1.05 L5.55 1.4 6.55 1.5 7.2 1.6 8.1 3.8 8.35 4.2 M3.95 10.65 L2.1 12.0 4.1 15.45 7.2 15.55 6.85 14.85 Q5.05 13.45 3.95 10.65 L3.65 10.3 M1.6 4.5 L3.0 7.7 M8.65 13.85 L8.6 13.9 6.85 14.85 M7.2 15.55 L7.65 16.25 7.85 16.25 7.95 16.2 10.1 15.65 11.85 14.3 11.9 14.25 11.7 12.65" fill="none" stroke="#000000" stroke-linecap="round" stroke-linejoin="round" stroke-width="1.0"/>
    <path d="M9.75 8.95 L9.65 8.6 9.75 8.65 9.85 7.75 9.9 8.75 10.0 9.55 10.05 9.15 10.1 9.1 10.15 12.65 10.35 12.25 10.75 10.05 10.5 12.6 10.5 12.75 Q11.0 12.45 11.15 11.45 L11.2 10.75 11.3 10.9 11.45 10.05 11.55 10.5 11.55 10.4 11.9 12.05 11.55 13.35 9.45 14.3 7.75 12.15 7.95 11.95 7.85 10.5 7.95 11.25 Q7.95 11.8 8.1 11.8 L8.2 11.75 8.35 9.2 8.35 11.1 8.45 11.85 8.55 11.8 8.75 11.15 8.7 11.5 8.8 11.4 8.85 11.5 8.8 11.3 8.8 10.9 Q8.65 10.55 8.85 8.6 L8.9 8.35 8.9 10.35 8.95 10.6 9.1 10.2 9.15 10.65 9.2 10.7 9.3 10.95 9.4 9.8 9.4 9.55 9.55 9.85 9.7 9.35 9.75 8.95 M10.45 13.25 L10.5 13.25 10.45 13.05 10.45 13.25" fill="#000000" fill-opacity="0.4392157" fill-rule="evenodd" stroke="none"/>
    <path d="M7.95 8.2 L7.65 7.8 7.75 7.75 7.75 7.65 7.95 7.65 8.1 7.7 8.25 7.8 8.2 8.15 8.05 8.15 8.0 8.2 7.95 8.2 8.25 8.3 8.15 8.5 8.15 8.55 8.2 8.55 8.05 8.6 8.15 8.65 8.15 8.7 8.2 8.7 8.15 8.8 7.95 8.75 7.9 8.7 7.95 8.6 8.05 8.6 8.0 8.55 8.0 8.5 8.1 8.45 7.95 8.2 M8.8 11.05 L8.5 10.65 8.4 10.6 8.05 10.6 7.65 10.35 7.5 10.35 7.3 10.55 6.95 10.55 6.2 10.3 6.15 10.2 5.9 10.2 5.8 10.05 5.75 10.0 5.7 9.9 5.6 9.9 5.65 9.8 6.3 9.7 6.45 9.7 6.5 9.65 6.65 9.75 6.7 9.7 6.7 9.6 6.5 9.55 6.45 9.55 6.45 9.5 6.4 9.45 6.5 9.45 6.5 9.3 6.55 9.25 6.5 9.2 6.6 9.15 6.4 9.1 6.6 9.1 6.45 9.05 6.3 8.95 6.35 8.85 6.25 8.7 6.3 8.65 6.45 8.65 6.45 8.7 6.55 8.8 6.7 8.8 6.75 8.85 6.8 8.75 6.95 8.8 7.15 8.7 7.25 8.7 7.6 8.8 7.5 8.85 7.6 8.9 7.55 8.9 7.65 9.15 7.7 9.2 7.6 9.2 7.7 9.3 7.6 9.25 7.5 9.15 7.45 9.15 7.45 9.1 7.35 9.1 7.4 9.15 7.25 9.15 7.15 9.2 7.3 9.3 7.35 9.4 7.25 9.4 7.2 9.3 7.15 9.4 7.1 9.3 7.1 9.25 6.85 9.3 6.9 9.45 7.05 9.7 7.1 9.75 7.2 9.8 7.15 9.95 7.5 10.15 7.7 10.15 7.85 10.05 7.85 9.85 7.9 9.8 7.8 9.75 7.9 9.55 8.1 9.55 8.05 9.5 8.1 9.5 8.15 9.4 8.25 9.35 8.35 9.25 8.45 9.3 8.55 9.2 8.65 9.25 8.6 9.3 8.7 9.35 8.65 9.4 8.75 9.45 8.85 9.6 8.8 9.8 8.9 10.0 8.8 9.9 8.7 10.1 8.8 10.2 8.65 10.6 8.75 10.75 8.8 11.05 M9.55 9.0 L9.65 9.0 9.65 9.15 9.55 9.1 9.55 9.0 M7.05 8.3 L6.95 8.25 6.95 8.15 6.8 8.05 6.9 8.0 6.9 7.9 6.85 7.85 6.75 7.8 6.7 7.85 6.5 7.65 6.4 7.45 6.6 7.35 6.95 7.35 6.95 7.4 6.9 7.45 7.0 7.6 6.95 7.6 7.0 7.8 6.9 7.8 6.9 7.85 7.0 7.9 6.95 8.0 7.05 8.15 7.0 8.15 7.15 8.2 7.05 8.3 M5.5 8.1 L5.25 7.95 5.2 7.7 5.15 7.65 5.35 7.6 5.55 7.65 5.6 7.75 5.8 7.95 5.8 8.0 5.7 8.1 5.5 8.05 5.5 8.1 M5.75 8.1 L5.85 8.1 6.0 8.15 6.0 8.4 6.25 8.4 6.2 8.55 6.2 8.6 6.1 8.55 6.1 8.6 5.95 8.45 5.7 8.25 5.75 8.1 M7.05 8.65 L6.85 8.35 6.9 8.25 7.1 8.4 7.2 8.35 7.25 8.35 7.2 8.55 7.05 8.65 M8.9 10.05 L8.95 10.0 9.0 10.0 8.95 10.1 8.9 10.05 M9.0 10.2 L9.0 10.3 9.1 10.35 9.15 10.45 8.95 10.35 9.0 10.2" fill="#000000" fill-opacity="0.6" fill-rule="evenodd" stroke="none"/>
    <path d="M1.25 7.0 L0.9 3.25 2.25 0.9 4.25 1.1 4.65 7.45 3.35 8.85 1.25 7.0" fill="#111111" fill-rule="evenodd" stroke="none"/>
    <path d="M1.25 7.0 L3.35 8.85 4.65 7.45 4.25 1.1" fill="none" stroke="#000000" stroke-linecap="round" stroke-linejoin="round" stroke-width="1.0"/>
    <path d="M4.25 1.1 L2.25 0.9 0.9 3.25 1.25 7.0" ffdec:has-small-stroke="true" ffdec:original-stroke-width="0.95" fill="none" stroke="#000000" stroke-linecap="round" stroke-linejoin="round" stroke-width="1.0"/>
    <path d="M6.15 1.45 L5.9 0.95 Q5.85 0.45 6.3 0.2 L7.85 0.05 7.95 0.55 Q7.65 1.2 6.95 1.25 L6.8 1.5 6.15 1.45 6.8 1.5 7.25 2.2 7.3 2.95 8.2 3.15 Q8.8 3.45 8.6 3.75 L7.95 4.15 Q7.5 4.2 7.25 3.9 L6.75 3.45 Q6.6 3.85 5.85 3.95 L5.65 4.95 Q5.05 5.4 4.2 5.45 L3.65 5.05 2.95 5.85 Q3.1 6.6 2.8 7.05 L1.75 7.8 0.9 7.75 Q0.55 7.65 0.55 7.25 0.6 6.85 1.1 6.9 1.65 6.9 2.2 5.95 L1.75 5.7 Q1.45 5.2 1.6 4.55 1.2 4.4 0.6 4.95 0.05 5.4 0.0 4.7 0.0 3.9 0.25 3.75 L1.15 3.55 1.9 3.8 Q2.2 3.1 2.65 3.0 2.45 2.4 2.75 1.9 3.4 1.05 4.2 1.25 4.8 1.3 5.05 1.75 L5.1 1.95 Q5.55 1.55 6.15 1.45 M5.15 3.8 Q5.05 3.15 5.6 3.05 5.85 2.8 6.2 2.65 L6.35 2.65 6.2 2.65 Q5.85 2.8 5.6 3.05 L5.65 3.3 6.45 3.15 Q6.25 2.9 6.35 2.65 L6.75 2.7 7.3 2.95 6.75 2.7 6.35 2.65 Q6.25 2.9 6.45 3.15 L5.65 3.3 5.6 3.05 Q5.05 3.15 5.15 3.8 L4.55 3.35 4.6 2.6 4.8 2.3 Q4.65 2.1 4.5 2.15 3.8 2.35 3.3 2.85 L3.45 3.0 Q3.0 2.85 2.65 3.0 3.0 2.85 3.45 3.0 3.85 3.1 3.95 3.6 L3.95 4.35 Q4.75 4.15 5.15 3.8 M6.75 3.45 L6.45 3.15 6.75 3.45 M5.85 3.95 L5.8 3.65 5.65 3.3 5.8 3.65 5.85 3.95 M3.65 5.05 L3.35 4.8 3.1 4.15 Q3.25 3.9 3.55 3.95 3.55 4.35 3.95 4.35 3.55 4.35 3.55 3.95 3.25 3.9 3.1 4.15 L3.35 4.8 3.65 5.05 M3.1 4.15 L2.6 4.8 2.15 5.4 2.3 5.8 2.2 5.95 2.3 5.8 2.15 5.4 2.6 4.8 3.1 4.15 M1.6 4.55 L1.9 3.8 1.6 4.55 M5.1 1.95 L4.8 2.3 5.1 1.95 M2.95 5.85 L2.6 4.8 2.95 5.85" fill="#242423" fill-rule="evenodd" stroke="none"/>
    <path d="M6.8 1.5 L6.95 1.25 Q7.65 1.2 7.95 0.55 L7.85 0.05 6.3 0.2 Q5.85 0.45 5.9 0.95 L6.15 1.45 6.8 1.5 7.25 2.2 7.3 2.95 8.2 3.15 Q8.8 3.45 8.6 3.75 L7.95 4.15 Q7.5 4.2 7.25 3.9 L6.75 3.45 Q6.6 3.85 5.85 3.95 L5.65 4.95 Q5.05 5.4 4.2 5.45 L3.65 5.05 2.95 5.85 Q3.1 6.6 2.8 7.05 L1.75 7.8 0.9 7.75 Q0.55 7.65 0.55 7.25 0.6 6.85 1.1 6.9 1.65 6.9 2.2 5.95 L1.75 5.7 Q1.45 5.2 1.6 4.55 1.2 4.4 0.6 4.95 0.05 5.4 0.0 4.7 0.0 3.9 0.25 3.75 L1.15 3.55 1.9 3.8 Q2.2 3.1 2.65 3.0 2.45 2.4 2.75 1.9 3.4 1.05 4.2 1.25 4.8 1.3 5.05 1.75 L5.1 1.95 Q5.55 1.55 6.15 1.45 M6.35 2.65 L6.2 2.65 Q5.85 2.8 5.6 3.05 L5.65 3.3 6.45 3.15 Q6.25 2.9 6.35 2.65 L6.75 2.7 7.3 2.95 M5.65 3.3 L5.8 3.65 5.85 3.95 M6.45 3.15 L6.75 3.45 M5.6 3.05 Q5.05 3.15 5.15 3.8 4.75 4.15 3.95 4.35 3.55 4.35 3.55 3.95 3.25 3.9 3.1 4.15 L3.35 4.8 3.65 5.05 M3.45 3.0 Q3.0 2.85 2.65 3.0 M4.8 2.3 L4.6 2.6 4.55 3.35 5.15 3.8 M3.45 3.0 L3.3 2.85 Q3.8 2.35 4.5 2.15 4.65 2.1 4.8 2.3 L5.1 1.95 M1.9 3.8 L1.6 4.55 M2.2 5.95 L2.3 5.8 2.15 5.4 2.6 4.8 3.1 4.15 M3.95 4.35 L3.95 3.6 Q3.85 3.1 3.45 3.0 M2.6 4.8 L2.95 5.85" ffdec:has-small-stroke="true" ffdec:original-stroke-width="0.7" fill="none" stroke="#000000" stroke-linecap="round" stroke-linejoin="round" stroke-width="1.0"/>
    <path d="M9.65 8.25 L10.6 8.4 Q11.15 8.7 10.95 9.05 L10.3 9.4 9.6 9.2 9.15 8.7 8.85 8.4 Q8.6 8.15 8.7 7.9 L9.1 7.95 Q9.25 8.2 9.65 8.25 9.25 8.2 9.1 7.95 L8.7 7.9 Q8.6 8.15 8.85 8.4 L9.15 8.7 Q8.95 9.1 8.2 9.2 8.3 9.75 8.0 10.2 7.4 10.65 6.55 10.7 L6.0 10.35 5.35 11.1 5.0 10.05 4.5 10.65 4.7 11.05 4.15 10.95 Q3.8 10.45 4.0 9.8 3.55 9.7 3.35 10.0 3.15 10.25 2.8 9.65 2.5 9.05 2.7 8.95 L3.55 8.85 Q4.15 8.8 4.25 9.05 4.55 8.35 5.0 8.25 4.85 7.65 5.1 7.15 5.8 6.35 6.55 6.5 7.15 6.6 7.4 7.0 L7.5 7.2 Q7.9 6.8 8.5 6.7 L8.3 6.25 Q8.2 5.75 8.65 5.45 L10.2 5.3 Q10.35 5.3 10.3 5.8 10.0 6.45 9.3 6.5 L9.15 6.75 9.65 7.5 9.65 8.25 M6.3 9.6 L5.9 9.25 Q5.6 9.15 5.45 9.4 L5.0 10.05 5.45 9.4 Q5.6 9.15 5.9 9.25 L6.3 9.6 Q7.1 9.45 7.5 9.05 7.05 9.0 6.95 8.6 6.8 8.35 6.95 7.85 L7.2 7.6 6.9 7.4 Q6.2 7.6 5.65 8.1 L5.8 8.3 6.35 8.85 6.3 9.6 M8.5 6.7 L9.15 6.75 8.5 6.7 M8.2 9.2 L8.15 8.9 8.05 8.55 7.95 8.3 Q8.2 8.05 8.55 7.9 L8.7 7.9 8.55 7.9 Q8.2 8.05 7.95 8.3 L8.05 8.55 8.85 8.4 8.05 8.55 8.15 8.9 8.2 9.2 M4.0 9.8 Q4.0 9.4 4.25 9.05 4.0 9.4 4.0 9.8 M5.0 8.25 L5.8 8.3 5.0 8.25 M7.5 7.2 L7.2 7.6 7.5 7.2 M5.45 9.4 L5.75 10.05 6.0 10.35 5.75 10.05 5.45 9.4 M7.95 8.3 Q7.45 8.4 7.5 9.05 7.45 8.4 7.95 8.3" fill="#242423" fill-rule="evenodd" stroke="none"/>
    <path d="M9.15 8.7 L9.6 9.2 10.3 9.4 10.95 9.05 Q11.15 8.7 10.6 8.4 L9.65 8.25 Q9.25 8.2 9.1 7.95 L8.7 7.9 Q8.6 8.15 8.85 8.4 L9.15 8.7 Q8.95 9.1 8.2 9.2 8.3 9.75 8.0 10.2 7.4 10.65 6.55 10.7 L6.0 10.35 5.35 11.1 4.7 11.05 4.15 10.95 Q3.8 10.45 4.0 9.8 3.55 9.7 3.35 10.0 3.15 10.25 2.8 9.65 2.5 9.05 2.7 8.95 L3.55 8.85 Q4.15 8.8 4.25 9.05 4.55 8.35 5.0 8.25 4.85 7.65 5.1 7.15 5.8 6.35 6.55 6.5 7.15 6.6 7.4 7.0 L7.5 7.2 Q7.9 6.8 8.5 6.7 L8.3 6.25 Q8.2 5.75 8.65 5.45 L10.2 5.3 Q10.35 5.3 10.3 5.8 10.0 6.45 9.3 6.5 L9.15 6.75 9.65 7.5 9.65 8.25 M4.7 11.05 L4.5 10.65 5.0 10.05 5.45 9.4 Q5.6 9.15 5.9 9.25 L6.3 9.6 6.35 8.85 5.8 8.3 5.0 8.25 M4.25 9.05 Q4.0 9.4 4.0 9.8 M8.7 7.9 L8.55 7.9 Q8.2 8.05 7.95 8.3 L8.05 8.55 8.85 8.4 M8.05 8.55 L8.15 8.9 8.2 9.2 M9.15 6.75 L8.5 6.7 M5.8 8.3 L5.65 8.1 Q6.2 7.6 6.9 7.4 L7.2 7.6 7.5 7.2 M7.2 7.6 L6.95 7.85 Q6.8 8.35 6.95 8.6 7.05 9.0 7.5 9.05 7.45 8.4 7.95 8.3 M6.0 10.35 L5.75 10.05 5.45 9.4 M7.5 9.05 Q7.1 9.45 6.3 9.6 M5.0 10.05 L5.35 11.1" ffdec:has-small-stroke="true" ffdec:original-stroke-width="0.7" fill="none" stroke="#000000" stroke-linecap="round" stroke-linejoin="round" stroke-width="1.0"/>
  </g>
  <defs>
    <radialGradient cx="0" cy="0" gradientTransform="matrix(0.005, 1.0E-4, -1.0E-4, 0.0049, 4.5, 2.1)" gradientUnits="userSpaceOnUse" id="gradient0" r="819.2" spreadMethod="pad">
      <stop offset="0.0" stop-color="#393c57"/>
      <stop offset="1.0" stop-color="#292930"/>
    </radialGradient>
  </defs>
</svg>
