<?xml version="1.0" encoding="UTF-8" standalone="no"?>
<svg xmlns:xlink="http://www.w3.org/1999/xlink" height="20.15px" width="19.75px" xmlns="http://www.w3.org/2000/svg">
  <g transform="matrix(1.0, 0.0, 0.0, 1.0, 7.75, 18.35)">
    <path d="M-5.85 -10.7 Q-5.65 -14.15 -2.95 -16.2 1.4 -18.85 6.4 -17.25 7.95 -16.75 9.0 -15.95 L2.75 -10.05 -1.7 -9.55 -4.4 -10.3 -5.85 -10.7 M0.8 -11.65 Q1.4 -12.7 2.7 -13.3 L3.9 -13.7 2.7 -13.3 Q1.4 -12.7 0.8 -11.65 M10.6 -14.3 Q11.5 -12.85 11.5 -10.8 L9.85 -11.45 9.85 -11.4 8.65 -8.9 7.05 -10.4 6.3 -10.8 10.6 -14.3 M3.6 -0.75 L3.65 -0.65 3.6 -0.65 Q0.7 -2.05 -0.45 -1.45 L-1.9 -2.85 -3.3 -1.8 -3.15 -4.3 -2.3 -4.4 -1.4 -4.55 1.0 -2.95 Q1.8 -3.05 2.4 -3.55 2.8 -1.9 3.45 -0.95 L3.6 -0.75 M-4.4 -10.3 Q-4.3 -12.9 -2.7 -14.55 -1.7 -15.5 -0.7 -15.85 -1.7 -15.5 -2.7 -14.55 -4.3 -12.9 -4.4 -10.3" fill="url(#gradient0)" fill-rule="evenodd" stroke="none"/>
    <path d="M9.85 -11.4 L10.05 -9.85 Q10.1 -8.8 9.4 -6.55 9.4 -6.1 9.8 -5.55 L10.6 -4.45 9.7 -3.4 Q9.55 -1.0 7.65 0.55 L6.15 0.3 3.6 -0.85 3.6 -0.75 3.45 -0.95 3.6 -0.85 3.45 -0.95 Q2.8 -1.9 2.4 -3.55 1.8 -3.05 1.0 -2.95 L-1.4 -4.55 -2.3 -4.4 -2.2 -5.8 2.85 -4.0 3.2 -4.45 3.45 -4.8 3.8 -5.75 Q4.1 -7.15 3.65 -8.6 L6.3 -10.8 7.05 -10.4 8.65 -8.9 9.85 -11.4 M3.6 -0.65 L3.85 1.3 -2.7 0.85 -2.45 -2.4 -1.9 -2.85 -0.45 -1.45 Q0.7 -2.05 3.6 -0.65 M7.65 -8.15 L5.75 -7.7 5.1 -7.35 5.75 -7.7 7.65 -8.15 Q6.45 -8.0 5.1 -7.35 L4.85 -7.25 4.95 -6.8 Q5.05 -6.25 5.25 -6.05 5.05 -6.25 4.95 -6.8 L4.85 -7.25 5.25 -6.05 5.95 -5.65 6.85 -5.35 7.4 -5.4 Q7.9 -6.4 7.7 -7.9 L7.65 -7.9 7.65 -8.15 M3.65 -4.35 L3.45 -4.8 3.65 -4.35 M5.05 -4.2 L4.45 -5.45 5.05 -4.2 M6.7 -2.2 L7.65 -1.9 6.7 -2.2" fill="#e0cec3" fill-rule="evenodd" stroke="none"/>
    <path d="M7.65 -7.9 L7.7 -7.9 Q7.9 -6.4 7.4 -5.4 L6.85 -5.35 6.5 -5.65 Q6.15 -6.05 6.15 -6.6 6.15 -7.15 6.5 -7.55 6.85 -7.95 7.35 -7.95 L7.65 -7.9 M7.35 -6.2 L7.4 -7.05 7.35 -6.2" fill="url(#gradient1)" fill-rule="evenodd" stroke="none"/>
    <path d="M7.65 -8.15 L7.65 -7.9 7.35 -7.95 Q6.85 -7.95 6.5 -7.55 6.15 -7.15 6.15 -6.6 6.15 -6.05 6.5 -5.65 L6.85 -5.35 5.95 -5.65 5.25 -6.05 4.85 -7.25 5.1 -7.35 Q6.45 -8.0 7.65 -8.15" fill="#ffffff" fill-rule="evenodd" stroke="none"/>
    <path d="M3.9 -13.7 L2.7 -13.3 Q1.4 -12.7 0.8 -11.65 M-0.7 -15.85 Q-1.7 -15.5 -2.7 -14.55 -4.3 -12.9 -4.4 -10.3" fill="none" stroke="#e6e6e6" stroke-linecap="round" stroke-linejoin="miter-clip" stroke-miterlimit="4.0" stroke-opacity="0.21960784" stroke-width="1.0"/>
    <path d="M-5.85 -10.7 Q-5.65 -14.15 -2.95 -16.2 1.4 -18.85 6.4 -17.25 7.95 -16.75 9.0 -15.95 M10.6 -14.3 Q11.5 -12.85 11.5 -10.8 L9.85 -11.45 9.85 -11.4 8.65 -8.9 7.05 -10.4 6.3 -10.8 M3.6 -0.75 L3.65 -0.65 3.6 -0.65 Q0.7 -2.05 -0.45 -1.45 L-1.9 -2.85 -3.3 -1.8 -3.15 -4.3 M3.45 -0.95 L3.6 -0.75 M2.4 -3.55 Q2.8 -1.9 3.45 -0.95" fill="none" stroke="url(#gradient2)" stroke-linecap="round" stroke-linejoin="round" stroke-width="1.0"/>
    <path d="M9.85 -11.4 L10.05 -9.85 Q10.1 -8.8 9.4 -6.55 9.4 -6.1 9.8 -5.55 L10.6 -4.45 9.7 -3.4 Q9.55 -1.0 7.65 0.55 L6.15 0.3 3.6 -0.85 3.6 -0.75 M3.6 -0.65 L3.85 1.3 -2.7 0.85 -2.45 -2.4 M-2.3 -4.4 L-2.2 -5.8 2.85 -4.0 M3.45 -0.95 L3.6 -0.85" fill="none" stroke="#674f4b" stroke-linecap="round" stroke-linejoin="round" stroke-width="1.0"/>
    <path d="M7.4 -7.05 L7.35 -6.2" fill="none" stroke="#000000" stroke-linecap="round" stroke-linejoin="round" stroke-width="0.5"/>
    <path d="M5.1 -7.35 L5.75 -7.7 7.65 -8.15 M5.25 -6.05 Q5.05 -6.25 4.95 -6.8 L4.85 -7.25 5.1 -7.35" fill="none" stroke="#573e31" stroke-linecap="round" stroke-linejoin="round" stroke-width="0.5"/>
    <path d="M4.45 -5.45 L5.05 -4.2 M3.45 -4.8 L3.65 -4.35" fill="none" stroke="#dbb4ba" stroke-linecap="round" stroke-linejoin="round" stroke-width="0.5"/>
    <path d="M7.65 -1.9 L6.7 -2.2" fill="none" stroke="#c9a896" stroke-linecap="round" stroke-linejoin="miter-clip" stroke-miterlimit="4.0" stroke-width="0.5"/>
    <path d="M7.0 -7.3 L6.7 -7.2" fill="none" stroke="#ffffff" stroke-linecap="round" stroke-linejoin="round" stroke-width="1.0"/>
    <path d="M11.1 -14.75 L3.65 -8.6 2.9 -10.1 2.75 -10.05 9.4 -16.35 11.1 -14.75 M-1.4 -4.55 L-5.2 -4.0 Q-6.5 -4.8 -7.0 -6.95 L-7.25 -8.95 -5.95 -10.75 -1.7 -9.55 Q-2.5 -7.55 -2.05 -5.85 L-1.4 -4.55" fill="#cccccc" fill-rule="evenodd" stroke="none"/>
    <path d="M3.65 -8.6 L11.1 -14.75 M9.4 -16.35 L2.75 -10.05 M-5.2 -4.0 L-1.4 -4.55 M-1.7 -9.55 L-5.95 -10.75" fill="none" stroke="#515151" stroke-linecap="round" stroke-linejoin="round" stroke-width="1.0"/>
    <path d="M11.1 -14.75 L9.4 -16.35 M-5.95 -10.75 L-7.25 -8.95 -7.0 -6.95 Q-6.5 -4.8 -5.2 -4.0" fill="none" stroke="#777777" stroke-linecap="round" stroke-linejoin="round" stroke-width="1.0"/>
    <path d="M3.2 -4.45 L2.4 -3.55 Q1.8 -3.05 1.0 -2.95 L-1.4 -4.55 -2.05 -5.85 Q-2.5 -7.55 -1.7 -9.55 L2.9 -10.1 3.65 -8.6 Q4.1 -7.15 3.8 -5.75 L3.45 -4.8 3.2 -4.45 M1.5 -5.5 L1.5 -4.9 1.5 -5.5 M-0.5 -8.05 L-0.6 -7.1 -0.5 -8.05 M1.05 -8.5 L0.9 -7.6 1.05 -8.5" fill="#666666" fill-rule="evenodd" stroke="none"/>
    <path d="M3.2 -4.45 L2.4 -3.55 Q1.8 -3.05 1.0 -2.95 L-1.4 -4.55 -2.05 -5.85 Q-2.5 -7.55 -1.7 -9.55 L2.9 -10.1 3.65 -8.6 Q4.1 -7.15 3.8 -5.75 L3.45 -4.8 3.2 -4.45 M0.9 -7.6 L1.05 -8.5 M-0.6 -7.1 L-0.5 -8.05" fill="none" stroke="#373737" stroke-linecap="round" stroke-linejoin="round" stroke-width="1.0"/>
    <path d="M1.5 -4.9 L1.5 -5.5" fill="none" stroke="#b0ff7b" stroke-linecap="round" stroke-linejoin="round" stroke-width="1.0"/>
  </g>
  <defs>
    <linearGradient gradientTransform="matrix(0.0, -0.0092, -0.0092, 0.0, 2.85, -9.9)" gradientUnits="userSpaceOnUse" id="gradient0" spreadMethod="pad" x1="-819.2" x2="819.2">
      <stop offset="0.0" stop-color="#c88fbf"/>
      <stop offset="0.14901960784313725" stop-color="#ae93be"/>
      <stop offset="0.3411764705882353" stop-color="#8081b0"/>
      <stop offset="0.5411764705882353" stop-color="#738bb4"/>
      <stop offset="0.7490196078431373" stop-color="#799bbc"/>
      <stop offset="1.0" stop-color="#769bbc"/>
    </linearGradient>
    <linearGradient gradientTransform="matrix(-1.0E-4, 7.0E-4, 7.0E-4, 1.0E-4, 6.2, -6.1)" gradientUnits="userSpaceOnUse" id="gradient1" spreadMethod="pad" x1="-819.2" x2="819.2">
      <stop offset="0.0" stop-color="#6ab76b"/>
      <stop offset="1.0" stop-color="#326833"/>
    </linearGradient>
    <linearGradient gradientTransform="matrix(0.0, -0.0121, -0.0121, 0.0, 2.8, -8.45)" gradientUnits="userSpaceOnUse" id="gradient2" spreadMethod="pad" x1="-819.2" x2="819.2">
      <stop offset="0.0" stop-color="#53415d"/>
      <stop offset="0.23137254901960785" stop-color="#484061"/>
      <stop offset="0.5450980392156862" stop-color="#3d3e65"/>
      <stop offset="1.0" stop-color="#3a3e66"/>
    </linearGradient>
  </defs>
</svg>
