<?xml version="1.0" encoding="UTF-8" standalone="no"?>
<svg xmlns:xlink="http://www.w3.org/1999/xlink" height="40.85px" width="40.85px" xmlns="http://www.w3.org/2000/svg">
  <g transform="matrix(1.0, 0.0, 0.0, 1.0, -1.4, 22.35)">
    <path d="M10.75 -6.8 Q13.3 -9.3 16.85 -9.3 20.4 -9.3 22.9 -6.8 25.45 -4.25 25.45 -0.7 25.45 2.85 22.9 5.35 20.4 7.9 16.85 7.9 13.3 7.9 10.75 5.35 8.25 2.85 8.25 -0.7 8.25 -4.25 10.75 -6.8" fill="url(#gradient0)" fill-rule="evenodd" stroke="none"/>
    <path d="M31.65 -19.15 Q38.85 -23.25 41.0 -21.1 43.2 -18.9 39.05 -11.75 34.85 -4.45 26.8 3.6 18.75 11.65 11.55 15.75 4.35 19.95 2.15 17.75 0.0 15.6 4.15 8.35 8.25 1.15 16.3 -6.9 24.35 -14.95 31.65 -19.15" fill="url(#gradient1)" fill-rule="evenodd" stroke="none"/>
    <path d="M27.3 -7.45 Q35.35 0.6 39.55 7.9 43.65 15.1 41.5 17.25 39.3 19.45 32.15 15.3 24.85 11.1 16.8 3.05 8.75 -5.0 4.65 -12.2 0.45 -19.4 2.65 -21.6 4.8 -23.75 12.05 -19.6 19.25 -15.5 27.3 -7.45" fill="url(#gradient2)" fill-rule="evenodd" stroke="none"/>
  </g>
  <defs>
    <radialGradient cx="0" cy="0" gradientTransform="matrix(0.0101, 0.0, 0.0, 0.0101, 16.85, -0.7)" gradientUnits="userSpaceOnUse" id="gradient0" r="819.2" spreadMethod="pad">
      <stop offset="0.0" stop-color="#119efd"/>
      <stop offset="1.0" stop-color="#119efd" stop-opacity="0.0"/>
    </radialGradient>
    <radialGradient cx="0" cy="0" gradientTransform="matrix(0.0245, -0.0245, 0.0066, 0.0066, 21.55, -1.65)" gradientUnits="userSpaceOnUse" id="gradient1" r="819.2" spreadMethod="pad">
      <stop offset="0.2235294117647059" stop-color="#ffffff" stop-opacity="0.8"/>
      <stop offset="1.0" stop-color="#9ad7fe" stop-opacity="0.0"/>
    </radialGradient>
    <radialGradient cx="0" cy="0" gradientTransform="matrix(0.0245, 0.0245, -0.0066, 0.0066, 22.05, -2.2)" gradientUnits="userSpaceOnUse" id="gradient2" r="819.2" spreadMethod="pad">
      <stop offset="0.2235294117647059" stop-color="#ffffff" stop-opacity="0.8"/>
      <stop offset="1.0" stop-color="#9ad7fe" stop-opacity="0.0"/>
    </radialGradient>
  </defs>
</svg>
