<?xml version="1.0" encoding="UTF-8" standalone="no"?>
<svg xmlns:ffdec="https://www.free-decompiler.com/flash" xmlns:xlink="http://www.w3.org/1999/xlink" ffdec:objectType="shape" height="32.7px" width="30.0px" xmlns="http://www.w3.org/2000/svg">
  <g transform="matrix(1.0, 0.0, 0.0, 1.0, 19.65, 31.7)">
    <path d="M-9.0 -12.65 L-2.7 -15.5 3.2 -13.7 Q2.75 -12.3 2.7 -5.45 -2.25 -3.65 -6.25 -5.3 L-9.25 -7.35 -8.8 -10.25 -8.85 -11.85 -9.0 -12.65" fill="#201f1f" fill-rule="evenodd" stroke="none"/>
    <path d="M-9.0 -12.65 L-8.85 -11.85 -8.8 -10.25 -9.25 -7.35 -6.25 -5.3 Q-2.25 -3.65 2.7 -5.45 2.75 -12.3 3.2 -13.7 L-2.7 -15.5 -9.0 -12.65 Z" fill="none" stroke="#000000" stroke-linecap="round" stroke-linejoin="round" stroke-width="0.9500000000000001"/>
    <path d="M-2.7 -15.5 L-1.15 -16.1 -1.15 -17.7 -0.35 -18.45 -0.9 -19.2 Q0.5 -20.4 0.6 -22.35 0.7 -24.0 -0.55 -25.2 -1.8 -26.4 -3.4 -26.4 L-5.05 -26.35 -6.2 -24.9 Q-7.4 -23.3 -7.4 -22.35 -7.4 -21.1 -6.65 -20.0 L-5.7 -17.0 -5.7 -15.95 -4.35 -15.2 -3.55 -12.6 -4.25 -12.4 -5.1 -11.95 -7.7 -13.2 -10.15 -12.3 Q-11.05 -13.7 -11.5 -15.2 L-11.8 -16.45 -12.75 -16.9 -13.5 -16.55 -16.75 -21.25 -16.2 -23.25 -15.25 -23.5 -14.3 -25.0 -14.55 -25.95 -13.95 -28.0 -12.7 -28.3 -9.2 -28.15 -7.95 -27.8 -7.6 -29.1 -6.0 -29.7 -5.35 -28.85 Q-1.95 -28.85 0.55 -27.7 L2.35 -26.6 3.15 -25.4 6.15 -22.45 Q9.3 -19.3 9.9 -18.2 L8.7 -15.25 4.8 -13.4 3.45 -13.8 1.95 -13.9 -0.7 -13.05 -1.8 -13.05 -2.7 -15.5" fill="url(#gradient0)" fill-rule="evenodd" stroke="none"/>
    <path d="M1.0 -17.9 L0.5 -17.4 0.5 -16.65 -1.15 -16.1 -1.15 -17.7 -0.35 -18.45 0.4 -18.95 1.0 -17.9" fill="#877b6a" fill-rule="evenodd" stroke="none"/>
    <path d="M1.0 -17.9 L0.5 -17.4 0.5 -16.65 -1.15 -16.1 -1.15 -17.7 -0.35 -18.45 0.4 -18.95 1.0 -17.9 Z" fill="none" stroke="#877b6a" stroke-linecap="round" stroke-linejoin="round" stroke-width="0.9500000000000001"/>
    <path d="M1.05 -20.45 L2.35 -19.75 Q2.15 -18.85 1.0 -17.9 L0.1 -19.0 Q0.9 -19.6 1.05 -20.45" fill="#464442" fill-rule="evenodd" stroke="none"/>
    <path d="M1.05 -20.45 Q0.75 -19.65 0.1 -19.0 L1.0 -17.9 Q2.15 -18.85 2.35 -19.75 L1.05 -20.45 1.35 -21.55 1.4 -22.8 0.45 -23.65" fill="none" stroke="#2a2928" stroke-linecap="round" stroke-linejoin="round" stroke-width="0.9500000000000001"/>
    <path d="M-6.65 -20.0 Q-7.4 -21.1 -7.4 -22.35 -7.4 -23.3 -6.2 -24.9 L-5.05 -26.35 -3.4 -26.4 Q-1.8 -26.4 -0.55 -25.2 0.7 -24.0 0.6 -22.35 0.5 -20.4 -0.9 -19.2 L-0.35 -18.45 -1.15 -17.7 -1.15 -16.1 -2.7 -15.5 -1.8 -13.05 -3.55 -12.6 -4.35 -15.2 -5.7 -15.95 -5.7 -17.0 -6.65 -20.0" fill="#201f1f" fill-rule="evenodd" stroke="none"/>
    <path d="M-0.15 -24.9 L1.55 -23.5 4.8 -22.7 5.55 -23.4" fill="none" stroke="#877b6a" stroke-linecap="round" stroke-linejoin="round" stroke-width="0.9500000000000001"/>
    <path d="M4.5 -24.7 L6.65 -24.05 6.75 -23.65 6.2 -22.75 4.5 -24.7" fill="#222120" fill-rule="evenodd" stroke="none"/>
    <path d="M4.5 -24.7 L6.65 -24.05 6.75 -23.65 6.2 -22.75 4.5 -24.7 Z" fill="none" stroke="#222120" stroke-linecap="round" stroke-linejoin="round" stroke-width="0.9500000000000001"/>
    <path d="M4.8 -13.4 L4.7 -14.25 2.8 -14.8 2.05 -13.95" fill="none" stroke="#877b6a" stroke-linecap="round" stroke-linejoin="round" stroke-width="0.9500000000000001"/>
    <path d="M4.4 -13.5 L5.4 -13.65 5.05 -13.1 6.05 -11.9 Q4.75 -9.3 5.2 -6.6 L4.15 -6.35 1.95 -8.3 1.75 -8.7 1.65 -9.0 -1.5 -10.5 -1.15 -11.35 -1.8 -13.05 -0.7 -13.05 2.45 -14.0 4.4 -13.5" fill="#9a8a73" fill-rule="evenodd" stroke="none"/>
    <path d="M5.05 -13.1 L6.05 -11.9 M0.8 -9.5 L-1.5 -10.5 -1.15 -11.35 -1.8 -13.05" fill="none" stroke="#453f38" stroke-linecap="round" stroke-linejoin="round" stroke-width="0.9500000000000001"/>
    <path d="M8.2 -15.15 L8.0 -15.6 6.9 -15.0 6.85 -14.55 M9.9 -18.2 L8.0 -17.9 7.45 -16.65 8.0 -15.6" fill="none" stroke="#877b6a" stroke-linecap="round" stroke-linejoin="round" stroke-width="0.9500000000000001"/>
    <path d="M8.7 -15.25 L9.9 -18.2" fill="none" stroke="#453f38" stroke-linecap="round" stroke-linejoin="round" stroke-width="0.9500000000000001"/>
    <path d="M-2.7 -15.5 L-1.8 -13.05 -0.7 -13.05 1.95 -13.9 3.45 -13.8 4.8 -13.4" fill="none" stroke="#756a5c" stroke-linecap="round" stroke-linejoin="round" stroke-width="0.9500000000000001"/>
    <path d="M-10.6 -23.9 L-10.7 -23.0 -10.75 -20.8 Q-10.75 -20.45 -11.8 -20.1 L-12.95 -20.85 -13.0 -22.25 -13.45 -22.55 -12.5 -23.55 -10.6 -23.9" fill="#222120" fill-rule="evenodd" stroke="none"/>
    <path d="M-10.6 -23.9 L-10.7 -23.0 -10.75 -20.8 Q-10.75 -20.45 -11.8 -20.1 L-12.95 -20.85 -13.0 -22.25 -13.45 -22.55 -12.5 -23.55 -10.6 -23.9 Z" fill="none" stroke="#222120" stroke-linecap="round" stroke-linejoin="round" stroke-width="1.25"/>
    <path d="M-8.1 -23.45 L-8.9 -24.05 -11.05 -24.3 -12.6 -24.0 -13.6 -22.45 -15.25 -23.5 M-12.6 -24.0 L-14.3 -25.0 M-6.8 -29.45 L-5.0 -26.85 -5.8 -26.85 -6.15 -26.35" fill="none" stroke="#756a5c" stroke-linecap="round" stroke-linejoin="round" stroke-width="0.9500000000000001"/>
    <path d="M-6.65 -20.0 L-7.25 -19.0 -6.75 -17.5 -5.7 -17.0" fill="none" stroke="#877b6a" stroke-linecap="round" stroke-linejoin="round" stroke-width="0.9500000000000001"/>
    <path d="M9.9 -18.2 Q9.3 -19.3 6.15 -22.45 L3.15 -25.4 2.35 -26.6 0.55 -27.7 Q-1.95 -28.85 -5.35 -28.85 L-6.0 -29.7 -7.6 -29.1 -7.95 -27.8 -9.2 -28.15" fill="none" stroke="#2c2924" stroke-linecap="round" stroke-linejoin="round" stroke-width="0.9500000000000001"/>
    <path d="M4.8 -13.4 L8.7 -15.25" fill="none" stroke="#2c2924" stroke-linecap="round" stroke-linejoin="round" stroke-width="0.9500000000000001"/>
    <path d="M5.3 -10.65 L4.6 -11.4 3.8 -11.25 2.85 -12.4 3.2 -13.7" fill="none" stroke="#756a5c" stroke-linecap="round" stroke-linejoin="round" stroke-width="0.9500000000000001"/>
    <path d="M6.05 -11.9 Q4.75 -9.3 5.2 -6.6 L4.15 -6.35 1.95 -8.3 1.75 -8.7 1.65 -9.0 0.8 -9.5" fill="none" stroke="#2c2924" stroke-linecap="round" stroke-linejoin="round" stroke-width="0.9500000000000001"/>
    <path d="M-6.65 -20.0 L-5.7 -17.0 -5.7 -15.95 -4.35 -15.2 -3.55 -12.6 -4.25 -12.4 -5.1 -11.95" fill="none" stroke="#756a5c" stroke-linecap="round" stroke-linejoin="round" stroke-width="0.9500000000000001"/>
    <path d="M-5.05 -26.35 L-6.15 -26.35 -6.8 -25.6 -8.1 -23.45 -7.45 -22.55" fill="none" stroke="#2a2928" stroke-linecap="round" stroke-linejoin="round" stroke-width="0.9500000000000001"/>
    <path d="M-11.8 -16.45 L-11.65 -18.05 -12.85 -18.55 -13.6 -19.6 -15.1 -18.8" fill="none" stroke="#756a5c" stroke-linecap="round" stroke-linejoin="round" stroke-width="0.9500000000000001"/>
    <path d="M-5.1 -11.95 L-7.7 -13.2 -10.15 -12.3 Q-11.05 -13.7 -11.5 -15.2 L-11.8 -16.45 -12.75 -16.9 -13.5 -16.55 -15.1 -18.8" fill="none" stroke="#453f38" stroke-linecap="round" stroke-linejoin="round" stroke-width="0.9500000000000001"/>
    <path d="M-6.65 -20.0 Q-7.4 -21.1 -7.4 -22.35 -7.4 -23.3 -6.2 -24.9 L-5.05 -26.35 -3.4 -26.4 Q-1.8 -26.4 -0.55 -25.2 0.7 -24.0 0.6 -22.35 0.5 -20.4 -0.9 -19.2" fill="none" stroke="#453f38" stroke-linecap="round" stroke-linejoin="round" stroke-width="0.9500000000000001"/>
    <path d="M-2.7 -15.5 L-1.15 -16.1 -1.15 -17.7 -0.35 -18.45 -0.9 -19.2" fill="none" stroke="#453f38" stroke-linecap="round" stroke-linejoin="round" stroke-width="0.9500000000000001"/>
    <path d="M-15.1 -18.8 L-16.75 -21.25 -16.2 -23.25 -15.25 -23.5 -14.3 -25.0 -14.55 -25.95 -13.95 -28.0 -12.7 -28.3 -9.2 -28.15" fill="none" stroke="#2c2924" stroke-linecap="round" stroke-linejoin="round" stroke-width="0.9500000000000001"/>
    <path d="M4.8 -13.4 L3.4 -13.75 2.05 -13.95 2.8 -14.8 4.7 -14.25 4.8 -13.4" fill="#222120" fill-rule="evenodd" stroke="none"/>
    <path d="M4.8 -13.4 L4.7 -14.25 2.8 -14.8 2.05 -13.95 3.4 -13.75 4.8 -13.4 Z" fill="none" stroke="#222120" stroke-linecap="round" stroke-linejoin="round" stroke-width="1.25"/>
    <path d="M4.8 -13.4 L8.7 -15.25 9.15 -15.05" fill="none" stroke="#222120" stroke-linecap="round" stroke-linejoin="round" stroke-width="1.25"/>
    <path d="M-11.2 -24.2 Q-11.95 -21.95 -11.1 -18.8 L-13.6 -19.6 -17.95 -17.9 Q-19.0 -19.35 -19.2 -21.3 L-19.2 -22.9 -18.2 -23.9 Q-18.1 -27.1 -16.5 -29.5 L-14.95 -31.25 -12.25 -30.75 -11.6 -29.6 -9.05 -28.85 -10.3 -24.7 -11.2 -24.2" fill="#a39580" fill-rule="evenodd" stroke="none"/>
    <path d="M-18.2 -23.85 L-17.45 -24.35 Q-17.3 -26.2 -16.8 -27.3 L-17.15 -28.1" fill="none" stroke="#877b6a" stroke-linecap="round" stroke-linejoin="round" stroke-width="0.9"/>
    <path d="M-12.7 -19.45 L-12.9 -21.75 -12.85 -23.2 -13.6 -23.75 Q-13.5 -25.6 -12.55 -27.8 L-11.6 -29.6 -9.05 -28.85 -10.3 -24.7 -11.2 -24.2 -11.4 -22.4 Q-11.55 -20.25 -11.1 -18.8 L-12.7 -19.45" fill="#ac9f8c" fill-rule="evenodd" stroke="none"/>
    <path d="M-12.15 -30.35 L-13.35 -28.3 Q-14.6 -25.75 -14.55 -23.4 L-13.85 -22.85 -13.9 -21.6 -13.8 -19.6" fill="none" stroke="#f6cfca" stroke-linecap="round" stroke-linejoin="round" stroke-width="0.9"/>
    <path d="M-11.6 -29.6 L-12.55 -27.8 Q-13.5 -25.6 -13.6 -23.75 L-12.85 -23.2 -12.9 -21.75 -12.7 -19.45" fill="none" stroke="#877b6a" stroke-linecap="round" stroke-linejoin="round" stroke-width="0.9"/>
    <path d="M-9.45 -27.5 L-10.3 -24.7" fill="none" stroke="#726a5f" stroke-linecap="round" stroke-linejoin="round" stroke-width="0.9"/>
    <path d="M-10.3 -24.7 L-11.2 -24.2 Q-11.95 -21.95 -11.1 -18.8 L-13.6 -19.6 -17.95 -17.9 Q-19.0 -19.35 -19.2 -21.3 L-19.2 -22.9 -18.2 -23.9 Q-18.1 -27.1 -16.5 -29.5 L-14.95 -31.25 -12.25 -30.75 -11.6 -29.6 -9.05 -28.85 -9.45 -27.5" fill="none" stroke="#2c2924" stroke-linecap="round" stroke-linejoin="round" stroke-width="0.9"/>
    <path d="M-11.1 -18.8 Q-11.8 -22.0 -11.2 -24.2 L-10.3 -24.7 -10.6 -23.05 -11.3 -22.7 -11.1 -18.8 M-13.25 -19.45 L-14.85 -18.75 Q-15.3 -17.75 -15.6 -17.6 L-17.25 -17.0 -18.05 -17.5 -17.95 -17.9 -13.6 -19.6 -11.6 -18.95 -13.25 -19.45" fill="#222120" fill-rule="evenodd" stroke="none"/>
    <path d="M-11.6 -18.95 L-13.25 -19.45 -14.85 -18.75 Q-15.3 -17.75 -15.6 -17.6 L-17.25 -17.0 -18.05 -17.5 -17.95 -17.9 -13.6 -19.6 -11.6 -18.95 -11.1 -18.8 Q-11.6 -21.0 -11.45 -22.7 L-11.2 -24.2 -10.3 -24.7 -10.6 -23.05 -11.45 -22.7" fill="none" stroke="#222120" stroke-linecap="round" stroke-linejoin="round" stroke-width="0.9"/>
    <path d="M-17.25 -21.15 L-16.1 -20.2 -17.45 -19.65 -17.25 -21.15" fill="#222120" fill-rule="evenodd" stroke="none"/>
    <path d="M-17.25 -21.15 L-16.1 -20.2 -17.45 -19.65 -17.25 -21.15 Z" fill="none" stroke="#222120" stroke-linecap="round" stroke-linejoin="round" stroke-width="0.9"/>
    <path d="M3.3 -4.9 Q3.45 -4.65 2.2 -2.55 0.85 -0.35 0.1 0.0 L-2.7 0.55 -3.25 -0.2 Q-8.25 -1.2 -9.95 -2.3 L-10.6 -4.6 -11.95 -5.6 -12.65 -6.25 -12.3 -8.75 -12.0 -9.85 -9.95 -10.55 Q-7.3 -9.15 -1.4 -8.0 L0.05 -6.65 1.55 -7.15 3.3 -4.9" fill="#9b8c75" fill-rule="evenodd" stroke="none"/>
    <path d="M0.05 -6.65 L1.55 -7.15 3.3 -4.9 0.1 0.0 -2.7 0.55 -3.25 -0.2 Q-2.75 -0.45 -1.2 -2.65 L-1.35 -3.75 0.05 -6.65" fill="#ac9f8c" fill-rule="evenodd" stroke="none"/>
    <path d="M0.05 -6.65 L-1.35 -3.75 -1.2 -2.65 Q-2.75 -0.45 -3.25 -0.2" fill="none" stroke="#877b6a" stroke-linecap="round" stroke-linejoin="round" stroke-width="0.9500000000000001"/>
    <path d="M1.55 -7.15 L3.3 -4.9 Q3.45 -4.65 2.2 -2.55 0.85 -0.35 0.1 0.0 L-2.7 0.55 -3.25 -0.2 Q-8.25 -1.2 -9.95 -2.3 L-10.6 -4.6" fill="none" stroke="#453f38" stroke-linecap="round" stroke-linejoin="round" stroke-width="0.9500000000000001"/>
    <path d="M-9.95 -10.55 Q-6.75 -8.85 -3.75 -8.25 L-1.4 -8.0 0.05 -6.65 1.55 -7.15" fill="none" stroke="#686157" stroke-linecap="round" stroke-linejoin="round" stroke-width="0.9500000000000001"/>
    <path d="M-10.6 -4.6 L-11.95 -5.6 -12.65 -6.25 -12.3 -8.75 -12.0 -9.85 -9.95 -10.55" fill="none" stroke="#453f38" stroke-linecap="round" stroke-linejoin="round" stroke-width="0.9500000000000001"/>
    <path d="M-6.1 -10.0 L-2.65 -9.4 -3.45 -5.35 -3.95 -5.15 -4.25 -3.55 -7.15 -4.05 -6.1 -10.0" fill="#8b8072" fill-rule="evenodd" stroke="none"/>
    <path d="M-6.1 -10.0 L-2.65 -9.4 -3.45 -5.35 -3.95 -5.15 -4.25 -3.55 -7.15 -4.05 -6.1 -10.0 Z" fill="none" stroke="#2b2925" stroke-linecap="round" stroke-linejoin="round" stroke-width="0.9500000000000001"/>
    <path d="M-9.55 -10.55 L-6.1 -10.0 -6.9 -5.95 -7.4 -5.7 -7.7 -4.15 -10.6 -4.6 -9.55 -10.55" fill="#8b8072" fill-rule="evenodd" stroke="none"/>
    <path d="M-9.55 -10.55 L-6.1 -10.0 -6.9 -5.95 -7.4 -5.7 -7.7 -4.15 -10.6 -4.6 -9.55 -10.55 Z" fill="none" stroke="#2b2925" stroke-linecap="round" stroke-linejoin="round" stroke-width="0.9500000000000001"/>
  </g>
  <defs>
    <linearGradient gradientTransform="matrix(0.0163, 0.0, 0.0, 0.0163, -3.45, -20.85)" gradientUnits="userSpaceOnUse" id="gradient0" spreadMethod="pad" x1="-819.2" x2="819.2">
      <stop offset="0.0" stop-color="#95856c"/>
      <stop offset="1.0" stop-color="#ada08e"/>
    </linearGradient>
  </defs>
</svg>
