<?xml version="1.0" encoding="UTF-8" standalone="no"?>
<svg xmlns:xlink="http://www.w3.org/1999/xlink" height="18.25px" width="17.3px" xmlns="http://www.w3.org/2000/svg">
  <g transform="matrix(1.0, 0.0, 0.0, 1.0, 8.3, 8.95)">
    <path d="M0.25 7.15 L0.25 8.8 -5.1 8.15 -5.1 5.75 Q-5.45 3.45 -6.1 2.65 -6.75 1.8 -6.8 0.3 -6.9 -1.25 -6.45 -2.95 -5.85 -5.05 -4.55 -6.0 -2.05 -7.75 0.65 -7.6 3.2 -7.45 4.95 -5.65 6.05 -4.55 6.2 -2.95 L6.4 -0.1 7.05 1.05 7.8 2.45 Q8.0 3.05 6.75 3.2 L6.4 3.75 5.85 6.1 Q5.65 7.1 5.0 7.3 3.55 7.75 0.7 7.25 L0.25 7.15 Q-1.6 6.75 -1.7 5.9 -1.6 6.75 0.25 7.15 M1.9 -1.4 L4.5 -1.3 1.9 -1.4" fill="#bf8f7b" fill-rule="evenodd" stroke="none"/>
    <path d="M0.25 7.15 L0.7 7.25 Q3.55 7.75 5.0 7.3 5.65 7.1 5.85 6.1 L6.4 3.75 6.75 3.2 Q8.0 3.05 7.8 2.45 L7.05 1.05 6.4 -0.1 6.2 -2.95 Q6.05 -4.55 4.95 -5.65 3.2 -7.45 0.65 -7.6 -2.05 -7.75 -4.55 -6.0 -5.85 -5.05 -6.45 -2.95 -6.9 -1.25 -6.8 0.3 -6.75 1.8 -6.1 2.65 -5.45 3.45 -5.1 5.75 L-5.1 8.15 0.25 8.8 0.25 7.15" fill="none" stroke="#7a5647" stroke-linecap="round" stroke-linejoin="round" stroke-width="1.05"/>
    <path d="M0.25 7.15 Q-1.6 6.75 -1.7 5.9" fill="none" stroke="#7a5647" stroke-linecap="round" stroke-linejoin="round" stroke-opacity="0.5019608" stroke-width="1.05"/>
    <path d="M4.5 -1.3 L1.9 -1.4" fill="none" stroke="#724d42" stroke-linecap="round" stroke-linejoin="miter-clip" stroke-miterlimit="4.0" stroke-width="0.5"/>
    <path d="M6.15 4.6 L4.55 4.55" fill="none" stroke="#855142" stroke-linecap="round" stroke-linejoin="miter-clip" stroke-miterlimit="4.0" stroke-width="1.05"/>
    <path d="M-3.75 0.3 Q-4.05 1.5 -3.5 2.4 L-2.55 3.35" fill="none" stroke="#916c5d" stroke-linecap="round" stroke-linejoin="miter-clip" stroke-miterlimit="4.0" stroke-width="1.05"/>
    <path d="M4.6 0.4 L3.95 0.7 3.0 0.8 Q2.15 0.7 2.2 0.05 L2.55 -0.4 3.15 -0.4 4.05 -0.1 4.6 0.4" fill="#c3aea1" fill-rule="evenodd" stroke="none"/>
    <path d="M3.35 0.85 L3.45 -0.2 4.1 -0.25 Q4.65 -0.2 4.6 0.35 4.55 0.9 4.0 0.85 L3.35 0.85" fill="#000000" fill-rule="evenodd" stroke="none"/>
    <path d="M2.2 0.05 L2.8 0.75 3.3 0.95 Q4.3 0.95 4.6 0.4" fill="none" stroke="#7b5547" stroke-linecap="round" stroke-linejoin="round" stroke-width="0.5"/>
    <path d="M4.6 0.4 Q4.15 -0.35 3.55 -0.4 L2.7 -0.2 2.2 0.05" fill="none" stroke="#7b5547" stroke-linecap="round" stroke-linejoin="round" stroke-width="0.5"/>
    <path d="M1.7 -8.3 L4.25 -8.0 Q5.05 -8.0 6.1 -6.95 L7.55 -5.7 8.4 -5.3 Q8.75 -5.15 7.55 -3.6 6.35 -2.05 5.9 -2.65 5.45 -3.25 5.0 -3.25 L3.4 -3.65 1.15 -3.55 Q0.05 -3.1 0.0 -2.6 L-0.45 -0.9 Q-0.9 0.6 -1.35 0.4 L-1.95 -0.05 -2.7 -0.55 Q-3.5 -0.95 -3.85 -0.95 -4.75 -1.0 -5.05 0.15 -5.3 1.2 -4.35 5.05 -6.0 4.65 -6.5 3.55 L-7.15 2.0 -7.65 -0.4 Q-7.95 -2.4 -7.7 -4.15 -7.45 -5.85 -5.95 -6.85 -4.5 -7.85 -2.25 -8.25 0.0 -8.65 1.7 -8.3" fill="#715d42" fill-rule="evenodd" stroke="none"/>
    <path d="M1.7 -8.3 Q0.0 -8.65 -2.25 -8.25 -4.5 -7.85 -5.95 -6.85 -7.45 -5.85 -7.7 -4.15 -7.95 -2.4 -7.65 -0.4 L-7.15 2.0 -6.5 3.55 Q-6.0 4.65 -4.35 5.05 -5.3 1.2 -5.05 0.15 -4.75 -1.0 -3.85 -0.95 -3.5 -0.95 -2.7 -0.55 L-1.95 -0.05 -1.35 0.4 Q-0.9 0.6 -0.45 -0.9 L0.0 -2.6 Q0.05 -3.1 1.15 -3.55 L3.4 -3.65 5.0 -3.25 Q5.45 -3.25 5.9 -2.65 6.35 -2.05 7.55 -3.6 8.75 -5.15 8.4 -5.3 L7.55 -5.7 6.1 -6.95 Q5.05 -8.0 4.25 -8.0 L1.7 -8.3 Z" fill="none" stroke="#31281c" stroke-linecap="round" stroke-linejoin="round" stroke-opacity="0.5019608" stroke-width="1.05"/>
    <path d="M-0.2 -6.75 L1.35 -6.65 Q3.0 -6.3 3.7 -5.25 M-5.85 -2.75 L-4.8 -3.25 Q-3.65 -4.05 -3.15 -5.4" fill="none" stroke="#5a4a35" stroke-linecap="round" stroke-linejoin="round" stroke-opacity="0.5019608" stroke-width="1.05"/>
  </g>
</svg>
