<?xml version="1.0" encoding="UTF-8" standalone="no"?>
<svg xmlns:ffdec="https://www.free-decompiler.com/flash" xmlns:xlink="http://www.w3.org/1999/xlink" ffdec:objectType="shape" height="9.7px" width="17.9px" xmlns="http://www.w3.org/2000/svg">
  <g transform="matrix(1.0, 0.0, 0.0, 1.0, 0.5, 0.5)">
    <path d="M6.35 0.55 L7.4 0.0 11.5 3.4 10.95 3.95 9.75 5.1 6.45 4.1 4.3 1.65 6.35 0.55" fill="#54504d" fill-rule="evenodd" stroke="none"/>
    <path d="M16.85 6.2 L16.9 6.4 16.25 8.5 14.45 8.7 4.75 8.7 4.75 8.25 3.15 8.25 3.15 8.7 0.0 8.7 0.0 6.5 1.85 7.15 2.9 6.3 4.2 6.3 5.75 6.9 10.45 6.9 12.25 6.2 16.85 6.2" fill="#232323" fill-rule="evenodd" stroke="none"/>
    <path d="M10.95 3.95 L12.55 3.0 Q14.8 3.4 16.25 4.15 L16.85 6.2 12.25 6.2 10.45 6.9 5.75 6.9 4.2 6.3 2.9 6.3 1.85 7.15 0.0 6.5 0.0 4.75 0.6 4.05 0.6 0.25 6.35 0.25 6.35 0.55 4.3 1.65 6.45 4.1 9.75 5.1 10.95 3.95" fill="#3a3a3a" fill-rule="evenodd" stroke="none"/>
    <path d="M6.35 0.55 L7.4 0.0 11.5 3.4 10.95 3.95 9.75 5.1 6.45 4.1 4.3 1.65 6.35 0.55 6.35 0.25" fill="none" stroke="#21201f" stroke-linecap="round" stroke-linejoin="round" stroke-width="1.0"/>
    <path d="M10.95 3.95 L12.55 3.0 Q14.8 3.4 16.25 4.15 L16.85 6.2 16.9 6.4 16.25 8.5 14.45 8.7 4.75 8.7 4.75 8.25 3.15 8.25 3.15 8.7 0.0 8.7 0.0 6.5 0.0 4.75 0.6 4.05 0.6 0.25 6.35 0.25 M0.0 6.5 L1.85 7.15 2.9 6.3 4.2 6.3 5.75 6.9 10.45 6.9 12.25 6.2 16.85 6.2" fill="none" stroke="#191919" stroke-linecap="round" stroke-linejoin="round" stroke-width="1.0"/>
  </g>
</svg>
