<?xml version="1.0" encoding="UTF-8" standalone="no"?>
<svg xmlns:ffdec="https://www.free-decompiler.com/flash" xmlns:xlink="http://www.w3.org/1999/xlink" ffdec:objectType="shape" height="33.5px" width="30.3px" xmlns="http://www.w3.org/2000/svg">
  <g transform="matrix(1.0, 0.0, 0.0, 1.0, 17.95, 32.7)">
    <path d="M-9.3 -20.1 L-8.8 -14.1 -9.85 -11.6 -9.85 -10.05 -11.3 -10.2 -13.3 -8.95 -14.25 -7.25 Q-15.9 -9.3 -16.75 -12.05 -17.45 -14.7 -17.15 -17.05 L-15.85 -17.5 -15.75 -19.5 -17.45 -20.9 Q-16.35 -27.55 -12.8 -28.3 L-12.3 -26.85 -10.8 -25.9 -8.8 -25.7 -7.7 -26.65 -4.5 -27.05 -3.65 -25.9 0.05 -25.7 5.2 -26.85 5.8 -28.35 7.45 -26.9 8.15 -25.15 6.9 -23.75 8.1 -21.05 10.65 -19.45 11.7 -19.2 11.85 -14.35 7.95 -14.45 3.4 -16.05 1.95 -17.9 1.75 -19.4 -0.05 -21.4 -2.3 -21.95 -3.95 -21.0 -4.4 -17.75 -6.85 -18.55 -9.3 -20.1 -9.35 -20.65 -9.6 -22.2 -10.0 -20.5 -9.3 -20.1 M7.25 -5.35 L7.9 -3.65 6.55 -0.85 4.0 -1.45 3.55 -4.35 7.25 -5.35 M4.4 -13.3 L9.7 -12.1 9.1 -6.45 3.35 -5.9 -0.85 -8.4 -0.4 -11.75 4.4 -13.3 M-5.85 -22.75 L-5.45 -24.05 -7.35 -24.85 -7.8 -23.35 -5.85 -22.75 M-6.0 -21.45 L-8.05 -22.2 -8.15 -20.8 -6.15 -20.05 -6.0 -21.45 M-7.7 -15.95 L-4.85 -15.75 -3.9 -14.05 -2.05 -12.6 -2.5 -8.85 -7.95 -9.8 -6.9 -13.15 -7.7 -15.95 M-1.75 -1.05 L-7.1 -1.35 -9.35 -2.9 -9.65 -5.45 -10.3 -7.05 -8.85 -8.1 -6.65 -7.5 -5.55 -5.3 -2.8 -4.7 -1.6 -6.2 1.5 -4.95 1.7 -2.05 -1.75 -1.05" fill="url(#gradient0)" fill-rule="evenodd" stroke="none"/>
    <path d="M9.0 -14.4 L8.2 -12.45 4.4 -13.3 -0.4 -11.75 -0.85 -8.4 3.35 -5.9 6.25 -6.15 7.25 -5.35 3.55 -4.35 4.0 -1.45 5.25 -1.15 2.55 0.25 -2.9 0.3 -4.9 -1.25 -1.75 -1.05 1.7 -2.05 1.5 -4.95 -1.6 -6.2 -2.8 -4.7 -5.55 -5.3 -6.65 -7.5 -8.85 -8.1 -10.55 -10.1 -9.85 -10.05 -9.85 -11.6 -8.65 -13.3 -8.85 -19.8 -6.85 -18.55 -4.4 -17.75 -3.95 -21.0 -2.3 -21.95 -0.05 -21.4 1.75 -19.4 1.95 -17.9 3.4 -16.05 7.95 -14.45 9.0 -14.4 M-7.7 -15.95 L-6.9 -13.15 -7.95 -9.8 -2.5 -8.85 -2.05 -12.6 -3.9 -14.05 -4.85 -15.75 -7.7 -15.95" fill="#141414" fill-rule="evenodd" stroke="none"/>
    <path d="M-12.55 -27.55 L-10.8 -28.2 -9.3 -29.35 -6.85 -29.2 -5.4 -28.25 -4.5 -27.05 -7.7 -26.65 -8.8 -25.7 -10.8 -25.9 -12.3 -26.85 -12.55 -27.55" fill="#371f1f" fill-rule="evenodd" stroke="none"/>
    <path d="M7.45 -26.9 L9.1 -25.55 10.25 -22.85 10.65 -19.45 8.1 -21.05 6.9 -23.75 8.15 -25.15 7.45 -26.9" fill="#ff4444" fill-rule="evenodd" stroke="none"/>
    <path d="M-8.5 -32.05 L2.4 -28.35 2.9 -29.75 5.3 -30.0 5.8 -28.35 5.2 -26.85 Q-0.7 -25.25 -4.65 -26.5 -5.0 -26.6 -5.35 -27.65 -5.7 -28.75 -6.05 -28.9 -6.4 -29.15 -7.6 -28.9 L-9.1 -29.1 -8.5 -32.05" fill="#3c2626" fill-rule="evenodd" stroke="none"/>
    <path d="M-5.85 -22.75 L-7.8 -23.35 -7.35 -24.85 -5.45 -24.05 -5.85 -22.75 M-6.0 -21.45 L-6.15 -20.05 -8.15 -20.8 -8.05 -22.2 -6.0 -21.45" fill="#ff4444" fill-rule="evenodd" stroke="none"/>
    <path d="M4.05 -29.85 L2.9 -29.75 2.4 -28.35 -2.45 -27.8 -3.8 -29.55 -5.7 -31.25 -7.0 -31.7 -1.4 -32.55 2.75 -31.65 4.05 -29.85" fill="#000000" fill-rule="evenodd" stroke="none"/>
    <path d="M-10.55 -10.1 L-9.85 -10.05 -9.85 -11.6 -12.7 -14.3 -13.15 -18.15 -12.8 -21.05 -9.6 -22.2 -8.8 -25.7 -10.8 -25.9 -12.3 -26.85 -12.55 -27.55 -10.8 -28.2 -9.3 -29.35 -6.85 -29.2 -5.4 -28.25 -4.5 -27.05 -7.7 -26.65 -8.8 -25.7 M-9.85 -11.6 L-8.65 -13.3 -8.85 -19.8 -10.0 -20.5 -9.6 -22.2" fill="none" stroke="#150d0d" stroke-linecap="round" stroke-linejoin="round" stroke-width="1.0"/>
    <path d="M-11.95 -17.95 L-10.1 -16.25 M-11.7 -20.0 L-10.1 -18.4 M-11.6 -15.45 L-10.1 -14.2" fill="none" stroke="#170e0e" stroke-linecap="round" stroke-linejoin="round" stroke-width="1.0"/>
    <path d="M7.45 -26.9 L9.1 -25.55 10.25 -22.85 10.65 -19.45" fill="none" stroke="#232323" stroke-linecap="round" stroke-linejoin="round" stroke-opacity="0.5372549" stroke-width="1.0"/>
    <path d="M-13.9 -25.3 L-11.7 -24.35 -11.05 -24.1 M-13.35 -23.7 L-12.2 -23.35 -11.7 -24.35 M-12.75 -22.4 L-12.2 -23.35 M5.2 -10.3 L4.85 -10.4 M5.6 -11.6 L4.75 -11.8" fill="none" stroke="#211212" stroke-linecap="round" stroke-linejoin="round" stroke-width="1.0"/>
    <path d="M-10.55 -10.1 L-11.3 -10.2 -13.3 -8.95 -14.25 -7.25 Q-15.9 -9.3 -16.75 -12.05 -17.45 -14.7 -17.15 -17.05 L-15.85 -17.5 -15.75 -19.5 -17.45 -20.9 Q-16.35 -27.55 -12.8 -28.3 L-12.55 -27.55 M-4.5 -27.05 L-3.65 -25.9 0.05 -25.7 -2.45 -27.8 -3.8 -29.55 -5.7 -31.25 -8.3 -32.2 -9.05 -31.5 -9.3 -29.35 M-2.45 -27.8 L2.4 -28.35 2.9 -29.75 5.3 -30.0 5.8 -28.35 7.45 -26.9 8.15 -25.15 6.9 -23.75 8.1 -21.05 10.65 -19.45 11.7 -19.2 11.85 -14.35 7.95 -14.45 3.4 -16.05 1.95 -17.9 1.75 -19.4 -0.05 -21.4 -2.3 -21.95 -3.95 -21.0 -4.4 -17.75 -6.85 -18.55 -8.85 -19.8 M7.25 -5.35 L7.9 -3.65 6.55 -0.85 4.0 -1.45 3.55 -4.35 7.25 -5.35 6.25 -6.15 3.35 -5.9 -0.85 -8.4 -0.4 -11.75 4.4 -13.3 9.7 -12.1 9.1 -6.45 6.25 -6.15 M5.8 -28.35 L5.2 -26.85 0.05 -25.7 M-7.7 -15.95 L-4.85 -15.75 -3.9 -14.05 -2.05 -12.6 -2.5 -8.85 -7.95 -9.8 -6.9 -13.15 -7.7 -15.95 M-1.75 -1.05 L-7.1 -1.35 -9.35 -2.9 -9.65 -5.45 -10.3 -7.05 -8.85 -8.1 -6.65 -7.5 -5.55 -5.3 -2.8 -4.7 -1.6 -6.2 1.5 -4.95 1.7 -2.05 -1.75 -1.05 Z" fill="none" stroke="#150d0d" stroke-linecap="round" stroke-linejoin="round" stroke-width="1.0"/>
    <path d="M-8.85 -8.1 L-10.55 -10.1 M5.25 -1.15 L2.55 0.25 -2.9 0.3 -4.9 -1.25 M9.0 -14.4 L8.2 -12.45" fill="none" stroke="#0e0e0e" stroke-linecap="round" stroke-linejoin="round" stroke-width="1.0"/>
    <path d="M-5.85 -22.75 L-7.8 -23.35 -7.35 -24.85 -5.45 -24.05 -5.85 -22.75 M-6.0 -21.45 L-8.05 -22.2 -8.15 -20.8 -6.15 -20.05 -6.0 -21.45 Z" fill="none" stroke="#211212" stroke-linecap="round" stroke-linejoin="round" stroke-width="1.0"/>
  </g>
  <defs>
    <linearGradient gradientTransform="matrix(0.0123, 0.0, 0.0, 0.0123, 1.8, -14.6)" gradientUnits="userSpaceOnUse" id="gradient0" spreadMethod="pad" x1="-819.2" x2="819.2">
      <stop offset="0.0" stop-color="#321e1e"/>
      <stop offset="1.0" stop-color="#6e4747"/>
    </linearGradient>
  </defs>
</svg>
