<?xml version="1.0" encoding="UTF-8" standalone="no"?>
<svg xmlns:ffdec="https://www.free-decompiler.com/flash" xmlns:xlink="http://www.w3.org/1999/xlink" ffdec:objectType="shape" height="7.5px" width="13.2px" xmlns="http://www.w3.org/2000/svg">
  <g transform="matrix(1.0, 0.0, 0.0, 1.0, 3.55, 1.2)">
    <path d="M6.45 1.9 Q9.8 2.25 9.0 5.8 L-2.9 5.8 Q-3.35 3.25 -2.25 0.05 L-1.8 -0.2 -0.55 -0.6 Q0.55 -0.9 2.45 -0.1 L2.85 0.75 Q3.1 1.55 6.45 1.9" fill="#484848" fill-rule="evenodd" stroke="none"/>
    <path d="M6.45 1.9 Q3.1 1.55 2.85 0.75 L2.45 -0.1 Q0.55 -0.9 -0.55 -0.6 L-1.8 -0.2 -2.25 0.05 Q-3.35 3.25 -2.9 5.8 L9.0 5.8 Q9.8 2.25 6.45 1.9 Z" fill="none" stroke="#2b2b2b" stroke-linecap="round" stroke-linejoin="round" stroke-width="1.0"/>
  </g>
</svg>
