<?xml version="1.0" encoding="UTF-8" standalone="no"?>
<svg xmlns:ffdec="https://www.free-decompiler.com/flash" xmlns:xlink="http://www.w3.org/1999/xlink" ffdec:objectType="shape" height="34.8px" width="27.6px" xmlns="http://www.w3.org/2000/svg">
  <g transform="matrix(1.0, 0.0, 0.0, 1.0, 18.1, 33.35)">
    <path d="M5.75 -13.2 L4.6 -9.25 Q3.45 -4.9 3.4 -2.9 3.4 -2.2 2.9 -1.2 1.05 0.45 -1.0 0.75 -4.85 1.35 -8.7 -2.85 -9.25 -4.25 -9.1 -6.15 -8.9 -9.0 -9.05 -10.55 -9.2 -12.25 -10.15 -16.0 -10.8 -18.45 -10.45 -21.85 -10.05 -26.25 -9.4 -27.95 -8.8 -29.6 -7.5 -29.85 -4.35 -30.75 -1.05 -28.95 0.85 -27.9 4.2 -25.5 4.45 -24.1 5.85 -22.5 L4.4 -16.1 5.9 -13.35 5.75 -13.2" fill="#222222" fill-rule="evenodd" stroke="none"/>
    <path d="M5.75 -13.2 L4.6 -9.25 Q3.45 -4.9 3.4 -2.9 3.4 -2.2 2.9 -1.2 1.05 0.45 -1.0 0.75 -4.85 1.35 -8.7 -2.85 -9.25 -4.25 -9.1 -6.15 -8.9 -9.0 -9.05 -10.55 -9.2 -12.25 -10.15 -16.0 -10.8 -18.45 -10.45 -21.85 -10.05 -26.25 -9.4 -27.95 -8.8 -29.6 -7.5 -29.85 -4.35 -30.75 -1.05 -28.95 0.85 -27.9 4.2 -25.5 4.45 -24.1 5.85 -22.5 L4.4 -16.1 5.9 -13.35 5.75 -13.2 Z" fill="none" stroke="#050607" stroke-linecap="butt" stroke-linejoin="miter-clip" stroke-miterlimit="15.12109375" stroke-width="1.0"/>
    <path d="M2.45 -25.0 L5.95 -21.0 Q6.85 -20.05 6.8 -18.0 L6.6 -15.6 Q6.6 -15.1 5.3 -15.85 L3.35 -14.15 -2.1 -15.5 Q-2.8 -15.65 -3.15 -17.6 -3.55 -20.1 -1.95 -22.75 -0.05 -25.05 -0.6 -24.95 L0.95 -25.55 2.45 -25.0" fill="#5c5753" fill-rule="evenodd" stroke="none"/>
    <path d="M3.35 -14.15 L2.65 -11.2 -0.05 -10.7 -4.1 -11.45 -5.05 -14.3 -3.75 -15.4 -0.8 -15.35 3.35 -14.15" fill="#7b756f" fill-rule="evenodd" stroke="none"/>
    <path d="M-4.1 -11.45 L-7.25 -10.75 -9.8 -12.35 -9.5 -15.45 -7.65 -14.45 -5.05 -14.3 -4.1 -11.45" fill="#7b756f" fill-rule="evenodd" stroke="none"/>
    <path d="M6.4 -15.05 L6.75 -14.9 7.15 -14.1 Q7.25 -13.15 6.7 -10.75 L4.4 -10.6 2.65 -11.2 3.35 -14.15 5.3 -15.85 6.4 -15.05" fill="#7b756f" fill-rule="evenodd" stroke="none"/>
    <path d="M-9.55 -18.85 L-10.0 -16.7 -9.35 -14.95 -10.5 -13.55 -11.5 -14.25 -12.85 -15.95 Q-13.45 -22.75 -12.6 -26.2 -12.05 -28.35 -10.75 -30.3 L-9.55 -31.8 -7.1 -31.75 -5.85 -28.65 -6.85 -27.95 Q-8.05 -26.95 -8.75 -25.3 -9.9 -22.6 -9.55 -18.85" fill="#5e5955" fill-rule="evenodd" stroke="none"/>
    <path d="M5.3 -15.85 L3.35 -14.15 -0.8 -15.35" fill="none" stroke="#606d42" stroke-linecap="round" stroke-linejoin="round" stroke-width="1.0"/>
    <path d="M5.3 -15.85 L6.4 -15.05 6.9 -14.5 Q7.4 -13.85 7.3 -13.15 L6.8 -10.85 6.05 -10.35 4.85 -10.55" fill="none" stroke="#494541" stroke-linecap="round" stroke-linejoin="round" stroke-width="1.0"/>
    <path d="M4.85 -10.55 L-0.05 -10.7 -4.1 -11.45 -7.25 -10.75 -9.8 -12.35 -9.6 -14.15" fill="none" stroke="#413e3a" stroke-linecap="round" stroke-linejoin="round" stroke-width="1.0"/>
    <path d="M-4.1 -11.45 L-5.05 -14.3" fill="none" stroke="#474441" stroke-linecap="round" stroke-linejoin="round" stroke-width="1.0"/>
    <path d="M-9.8 -15.3 L-8.2 -15.0 -7.65 -14.45 -5.05 -14.3 -3.75 -15.4 -0.8 -15.35" fill="none" stroke="#474441" stroke-linecap="round" stroke-linejoin="round" stroke-width="1.0"/>
    <path d="M2.2 -25.5 L-0.3 -25.1 -1.85 -23.95 -2.15 -22.1 -3.0 -19.85 -3.2 -18.35 -2.6 -16.45 -2.1 -15.5" fill="none" stroke="#34312f" stroke-linecap="round" stroke-linejoin="round" stroke-width="1.0"/>
    <path d="M-7.0 -31.05 L-5.85 -28.65 -6.95 -28.05 Q-8.2 -27.05 -8.8 -25.2 -9.8 -22.25 -9.3 -19.1 L-10.5 -16.7 -9.35 -14.95 -10.5 -13.55 -11.5 -14.25" fill="none" stroke="#494541" stroke-linecap="round" stroke-linejoin="round" stroke-width="1.0"/>
    <path d="M-7.75 -32.1 L-9.55 -31.8 -10.25 -30.85" fill="none" stroke="#313920" stroke-linecap="round" stroke-linejoin="round" stroke-width="1.0"/>
    <path d="M-11.5 -14.25 L-12.85 -15.95 Q-13.45 -21.25 -12.65 -25.0 -12.2 -27.35 -11.15 -29.35 L-10.25 -30.85" fill="none" stroke="#3c4429" stroke-linecap="round" stroke-linejoin="round" stroke-width="1.0"/>
    <path d="M-0.4 -7.85 L-0.5 -6.25 -1.7 -6.0 -2.1 -3.35 -4.9 -2.65 -9.35 -3.75 -10.15 -4.7 -10.2 -7.95 -9.55 -8.7 -5.3 -7.9 -0.4 -7.85" fill="#7b756f" fill-rule="evenodd" stroke="none"/>
    <path d="M-8.75 -8.55 L-9.55 -8.7 -10.2 -7.95 -10.15 -4.7 -9.35 -3.75 -8.65 -3.3" fill="none" stroke="#494541" stroke-linecap="round" stroke-linejoin="round" stroke-width="1.0"/>
    <path d="M-8.75 -8.55 L-5.3 -7.9 -0.4 -7.85 -0.5 -6.25 -1.7 -6.05 -2.1 -3.35 -4.9 -2.65 -8.65 -3.3" fill="none" stroke="#45413d" stroke-linecap="round" stroke-linejoin="round" stroke-width="1.0"/>
    <path d="M0.6 -2.75 L0.6 -4.55 1.6 -6.35 2.25 -8.15 4.95 -7.4 5.5 -5.55 4.45 -1.45 3.05 -1.3 1.1 -1.7 0.6 -2.75" fill="#66695e" fill-rule="evenodd" stroke="none"/>
    <path d="M4.05 -7.65 L4.95 -7.4 5.5 -5.55 4.55 -2.3 4.45 -1.45 3.05 -1.3" fill="none" stroke="#373833" stroke-linecap="round" stroke-linejoin="round" stroke-width="1.0"/>
    <path d="M-2.1 -3.35 L-1.7 -6.05 -0.5 -6.25 -0.4 -7.85 0.55 -8.5 2.25 -8.15 1.6 -6.35 0.6 -4.55 0.6 -2.75 1.1 -1.7 -0.9 -1.45 -1.65 -2.15 -2.1 -3.35" fill="#7c7c7c" fill-rule="evenodd" stroke="none"/>
    <path d="M4.05 -7.65 L2.25 -8.15" fill="none" stroke="#44453f" stroke-linecap="round" stroke-linejoin="round" stroke-width="1.0"/>
    <path d="M3.0 -1.6 L1.15 -1.75" fill="none" stroke="#44453f" stroke-linecap="round" stroke-linejoin="round" stroke-width="1.0"/>
    <path d="M1.1 -1.7 L-0.9 -1.45 -2.1 -3.35" fill="none" stroke="#3c3c3c" stroke-linecap="round" stroke-linejoin="round" stroke-width="1.0"/>
    <path d="M2.25 -8.15 L0.55 -8.5 -0.4 -7.85" fill="none" stroke="#3c3c3c" stroke-linecap="round" stroke-linejoin="miter-clip" stroke-miterlimit="15.12109375" stroke-width="1.0"/>
    <path d="M-0.4 -7.85 L-0.5 -6.25 -1.7 -6.05 -2.1 -3.35" fill="none" stroke="#313920" stroke-linecap="round" stroke-linejoin="round" stroke-width="1.0"/>
    <path d="M2.25 -8.15 L1.6 -5.95 0.6 -4.55 0.6 -2.75 1.15 -1.75" fill="none" stroke="#272727" stroke-linecap="round" stroke-linejoin="round" stroke-width="1.0"/>
    <path d="M-0.5 -6.25 L0.5 -5.55 0.6 -4.55" fill="none" stroke="#272727" stroke-linecap="round" stroke-linejoin="round" stroke-opacity="0.3647059" stroke-width="1.0"/>
    <path d="M-4.9 -5.85 L-5.3 -7.35 -0.9 -7.35 -0.9 -6.65 -2.0 -6.45 -2.45 -3.75 -4.9 -3.1 -4.85 -4.75 -2.85 -5.15 -4.8 -4.8 -4.9 -5.85" fill="#5c5753" fill-rule="evenodd" stroke="none"/>
    <path d="M-4.85 -5.4 L-5.3 -7.35" fill="none" stroke="#222717" stroke-linecap="round" stroke-linejoin="round" stroke-width="1.0"/>
    <path d="M-4.9 -3.1 L-4.85 -4.75" fill="none" stroke="#222717" stroke-linecap="round" stroke-linejoin="round" stroke-width="1.0"/>
    <path d="M-6.4 -5.25 L-6.9 -7.5" fill="none" stroke="#525844" stroke-linecap="round" stroke-linejoin="round" stroke-width="1.0"/>
    <path d="M-6.45 -3.25 L-6.4 -4.9" fill="none" stroke="#525844" stroke-linecap="round" stroke-linejoin="round" stroke-width="1.0"/>
    <path d="M-4.0 -6.5 L-4.1 -7.05" fill="none" stroke="#68c0bc" stroke-linecap="round" stroke-linejoin="round" stroke-width="1.0"/>
    <path d="M-3.95 -3.65 L-3.85 -4.45" fill="none" stroke="#68c0bc" stroke-linecap="round" stroke-linejoin="round" stroke-width="1.0"/>
    <path d="M2.3 -4.5 L1.75 -3.9 1.8 -3.3" fill="none" stroke="#4a4c44" stroke-linecap="round" stroke-linejoin="round" stroke-width="1.0"/>
    <path d="M3.4 -16.8 L2.1 -16.15" fill="none" stroke="#afb89b" stroke-linecap="round" stroke-linejoin="round" stroke-width="1.0"/>
    <path d="M0.15 -12.6 L-0.8 -12.35 -1.8 -12.55" fill="none" stroke="#635f5a" stroke-linecap="round" stroke-linejoin="round" stroke-width="1.0"/>
    <path d="M2.95 -18.45 L1.65 -17.85" fill="none" stroke="#afb89b" stroke-linecap="round" stroke-linejoin="round" stroke-width="1.0"/>
    <path d="M7.15 -13.9 L7.0 -13.8 Q6.4 -14.15 6.65 -13.85 L6.7 -13.8 3.45 -14.3 Q0.65 -14.7 0.4 -15.1 0.1 -15.55 -0.15 -16.8 L-0.4 -18.55 3.1 -20.75 4.2 -25.85 5.8 -24.6 7.1 -22.8 Q7.85 -21.7 7.8 -20.9 L7.4 -19.8 7.55 -16.15 Q7.55 -14.75 7.15 -13.9 7.55 -14.75 7.55 -16.15 L7.4 -19.8 7.65 -16.85 7.65 -16.35 Q7.65 -14.45 7.15 -13.9" fill="#766f68" fill-rule="evenodd" stroke="none"/>
    <path d="M7.4 -19.8 L7.8 -20.9 Q7.85 -21.7 7.1 -22.8 L5.8 -24.6 4.2 -25.85 3.1 -20.75 -0.4 -18.55 -0.15 -16.8 Q0.1 -15.55 0.4 -15.1 0.65 -14.7 3.45 -14.3 L6.7 -13.8 6.65 -13.85 Q6.4 -14.15 7.0 -13.8 L7.15 -13.9 Q7.55 -14.75 7.55 -16.15 L7.4 -19.8 7.65 -16.85 7.7 -16.4 Q7.8 -14.7 7.05 -13.8 6.9 -13.6 6.7 -13.8 L6.95 -13.8 7.0 -13.8 7.05 -13.8 7.15 -13.9 Q7.65 -14.45 7.65 -16.35 L7.65 -16.85" fill="none" stroke="#33322f" stroke-linecap="round" stroke-linejoin="round" stroke-width="1.0"/>
    <path d="M8.5 -21.6 L9.15 -21.05 9.25 -18.75 Q9.4 -17.85 8.25 -16.35 L6.45 -19.15 6.6 -21.6 8.5 -21.6" fill="#4f4f49" fill-rule="evenodd" stroke="none"/>
    <path d="M7.9 -22.2 L8.95 -20.3 8.85 -17.35 8.25 -16.35" fill="none" stroke="#262624" stroke-linecap="round" stroke-linejoin="round" stroke-width="1.0"/>
    <path d="M7.45 -22.1 L6.6 -21.6 6.85 -19.5 6.6 -17.9 8.25 -16.35" fill="none" stroke="#30302f" stroke-linecap="round" stroke-linejoin="round" stroke-width="1.0"/>
    <path d="M0.1 -18.2 L1.2 -18.95 2.85 -17.25 2.95 -14.75 0.5 -15.3 0.1 -18.2" fill="#3d3b38" fill-opacity="0.5372549" fill-rule="evenodd" stroke="none"/>
    <path d="M1.2 -18.95 L1.3 -14.55 4.0 -14.1" fill="none" stroke="#3f3d3a" stroke-linecap="round" stroke-linejoin="round" stroke-width="1.0"/>
    <path d="M-10.95 -32.7 L-8.7 -32.45 -9.05 -31.5 -9.5 -29.75 -10.1 -28.25 -10.9 -25.85 -11.05 -23.15 -11.15 -21.3 -12.15 -18.5 Q-14.35 -19.65 -17.1 -23.7 -16.9 -27.7 -16.05 -30.0 -15.85 -32.2 -13.85 -32.5 L-10.95 -32.7" fill="#6d6863" fill-rule="evenodd" stroke="none"/>
    <path d="M-10.95 -32.7 L-13.85 -32.5 Q-15.85 -32.2 -16.05 -30.0 -16.9 -27.7 -17.1 -23.7 -14.35 -19.65 -12.15 -18.5 L-11.15 -21.3 -11.05 -23.15 -10.9 -25.85 -10.1 -28.25 -9.5 -29.75 -9.05 -31.5 -8.7 -32.45 -10.95 -32.7 Z" fill="none" stroke="#3c3737" stroke-linecap="round" stroke-linejoin="round" stroke-width="1.0"/>
    <path d="M-12.7 -24.1 L-14.35 -25.45 -16.9 -26.2 -16.35 -29.45 -12.85 -28.25 -9.6 -30.4 -9.9 -28.05 -11.25 -25.8 -10.95 -23.75 -12.7 -24.1" fill="#6d6863" fill-rule="evenodd" stroke="none"/>
    <path d="M-12.7 -24.1 L-14.35 -25.45 -16.9 -26.2 -16.35 -29.45 -12.85 -28.25 -9.6 -30.4 -9.9 -28.05 -11.25 -25.8 -10.95 -23.75 -12.7 -24.1 Z" fill="none" stroke="#3c3737" stroke-linecap="butt" stroke-linejoin="round" stroke-width="1.0"/>
    <path d="M-14.35 -29.1 L-14.25 -30.0" fill="none" stroke="#e80000" stroke-linecap="round" stroke-linejoin="round" stroke-width="1.0"/>
    <path d="M-15.25 -20.8 L-12.6 -19.65 -9.25 -13.85 -9.55 -11.5 Q-9.6 -10.85 -10.05 -10.8 L-12.55 -11.0 -13.95 -11.8 Q-15.2 -12.55 -15.8 -15.9 -16.35 -19.0 -15.9 -20.45 L-15.25 -20.8" fill="#6d6863" fill-rule="evenodd" stroke="none"/>
    <path d="M-15.25 -20.8 L-12.6 -19.65 -9.25 -13.85 -9.55 -11.5 Q-9.6 -10.85 -10.05 -10.8 L-12.55 -11.0 -13.95 -11.8 Q-15.2 -12.55 -15.8 -15.9 -16.35 -19.0 -15.9 -20.45 L-15.25 -20.8 Z" fill="none" stroke="#3c3737" stroke-linecap="round" stroke-linejoin="round" stroke-width="1.0"/>
    <path d="M-17.05 -19.8 L-15.1 -19.2 -14.6 -16.9 -16.85 -14.75 Q-17.85 -17.15 -17.65 -18.0 L-17.65 -19.05 -17.75 -19.55 -17.05 -19.8" fill="#494541" fill-rule="evenodd" stroke="none"/>
    <path d="M-17.05 -19.8 L-17.6 -18.8 -17.55 -15.9 -16.85 -14.75" fill="none" stroke="#181811" stroke-linecap="round" stroke-linejoin="round" stroke-width="1.0"/>
    <path d="M-17.05 -19.8 L-15.1 -19.2 -15.4 -17.3 -15.15 -15.65 -16.85 -14.75" fill="none" stroke="#2e2d2a" stroke-linecap="round" stroke-linejoin="round" stroke-width="1.0"/>
    <path d="M-9.8 -13.7 L-10.25 -11.05 -12.7 -11.75 -12.65 -13.7 -10.45 -15.0 -9.8 -13.7" fill="#494541" fill-opacity="0.6627451" fill-rule="evenodd" stroke="none"/>
    <path d="M-10.6 -14.75 L-12.65 -13.7 -12.7 -11.25" fill="none" stroke="#2e2d2a" stroke-linecap="round" stroke-linejoin="round" stroke-width="1.0"/>
    <path d="M5.65 -24.75 L9.0 -20.35 8.9 -17.15 8.25 -16.55 7.7 -16.2 6.8 -10.75 6.25 -10.4 5.2 -10.4 4.15 -7.9 5.2 -7.25 5.5 -5.35 4.35 -1.45 2.0 -0.85 0.6 0.25 Q-1.15 1.3 -2.85 0.75 -4.65 0.2 -6.45 -0.95 L-8.4 -2.55 -10.0 -4.25 -10.35 -7.5 -9.45 -9.0 -8.8 -9.25 -9.1 -11.85 Q-10.2 -10.75 -10.75 -10.75 L-11.8 -10.75 Q-12.6 -10.9 -13.2 -11.4 L-15.45 -13.25 -15.7 -14.35 -15.8 -15.15 -17.35 -15.75 -16.9 -14.75 -17.6 -15.85 -17.35 -15.75 -17.55 -16.15 -17.4 -19.0 -17.0 -20.05 -15.95 -19.9 -15.7 -20.55 -15.25 -21.0 -17.25 -23.8 -16.6 -27.4 -15.75 -31.4 -14.7 -32.2 -13.9 -32.65 -10.0 -32.85 -9.0 -32.35" fill="none" stroke="#000000" stroke-linecap="round" stroke-linejoin="round" stroke-opacity="0.2" stroke-width="1.0"/>
  </g>
</svg>
