<?xml version="1.0" encoding="UTF-8" standalone="no"?>
<svg xmlns:xlink="http://www.w3.org/1999/xlink" height="18.2px" width="25.95px" xmlns="http://www.w3.org/2000/svg">
  <g transform="matrix(1.0, 0.0, 0.0, 1.0, 7.8, 4.9)">
    <path d="M-3.2 11.95 L-6.0 10.15 -5.75 9.35 -5.5 8.7 -5.45 8.6 -5.3 8.1 -5.15 7.7 -4.8 6.7 -4.75 6.55 -4.55 6.05 -4.5 5.85 -3.8 4.0 M-2.35 7.55 L-4.55 6.05 M-2.6 9.75 L-5.3 8.1" fill="none" stroke="#9d9d9d" stroke-linecap="round" stroke-linejoin="round" stroke-opacity="0.7529412" stroke-width="1.0"/>
    <path d="M-1.55 11.65 L-4.25 10.0 M-0.85 9.6 L-3.55 7.95 M-0.2 7.55 L-2.9 5.9" fill="none" stroke="#000000" stroke-linecap="round" stroke-linejoin="round" stroke-width="1.1"/>
    <path d="M4.3 -2.35 L4.5 -4.1 4.3 -2.35 M2.75 -4.4 L4.5 -4.1 8.55 -3.5 8.8 -3.25 8.95 -2.95 Q8.95 -2.25 9.45 -1.75 10.0 -1.2 10.7 -1.2 11.4 -1.2 11.9 -1.75 12.45 -2.25 12.45 -2.95 L12.45 -3.3 16.6 -3.3 16.7 -2.0 15.4 1.35 14.7 2.6 9.1 2.6 5.1 2.6 4.95 1.95 2.2 1.95 1.4 2.75 Q0.25 3.15 1.1 4.6 L-1.15 10.85 -1.8 12.8 -3.15 12.35 Q-0.7 5.3 -4.25 3.55 L-4.05 2.95 -7.3 2.1 Q-6.6 -0.55 -4.9 -0.6 -3.7 -3.4 -2.3 -3.6 L2.75 -4.4 2.55 -2.65 2.75 -4.4 M3.95 0.05 L7.3 0.05 9.1 2.6 7.3 0.05 3.95 0.05 M-4.05 2.95 L-4.7 -0.6 -4.9 -0.6 -4.7 -0.6 -4.05 2.95 M-2.8 0.1 L-1.05 0.1 -1.05 1.85 -1.05 0.1 -2.8 0.1 M0.7 0.1 L-1.05 0.1 -1.05 -1.65 -1.05 0.1 0.7 0.1" fill="#eeeeee" fill-rule="evenodd" stroke="none"/>
    <path d="M12.45 -3.3 L12.45 -2.95 Q12.45 -2.25 11.9 -1.75 11.4 -1.2 10.7 -1.2 10.0 -1.2 9.45 -1.75 8.95 -2.25 8.95 -2.95 L8.8 -3.25 Q10.2 -2.0 12.45 -3.3 M14.7 2.6 L13.65 4.85 5.65 4.85 5.1 2.6 9.1 2.6 14.7 2.6" fill="#c8c8c8" fill-rule="evenodd" stroke="none"/>
    <path d="M-3.15 12.35 Q-5.1 11.55 -6.55 10.1 L-4.25 3.55 Q-0.7 5.3 -3.15 12.35" fill="#77dd8b" fill-opacity="0.7529412" fill-rule="evenodd" stroke="none"/>
    <path d="M2.2 1.95 Q2.25 4.25 1.1 4.6 0.25 3.15 1.4 2.75 L2.2 1.95" fill="#191719" fill-rule="evenodd" stroke="none"/>
    <path d="M16.7 -2.0 L17.65 -2.0 17.65 1.35 15.4 1.35 16.7 -2.0" fill="#707070" fill-rule="evenodd" stroke="none"/>
    <path d="M8.8 -3.25 L8.55 -3.5 4.5 -4.1 2.75 -4.4 -2.3 -3.6 Q-3.7 -3.4 -4.9 -0.6 L-4.7 -0.6 -4.05 2.95 -7.3 2.1 Q-6.6 -0.55 -4.9 -0.6 M12.45 -3.3 L12.45 -2.95 Q12.45 -2.25 11.9 -1.75 11.4 -1.2 10.7 -1.2 10.0 -1.2 9.45 -1.75 8.95 -2.25 8.95 -2.95 L8.8 -3.25 Q10.2 -2.0 12.45 -3.3 L16.6 -3.3 16.7 -2.0 15.4 1.35 14.7 2.6 13.65 4.85 5.65 4.85 1.1 4.6 -1.15 10.85 -1.8 12.8 -3.15 12.35 M-4.25 3.55 L-4.05 2.95 M5.1 2.6 L5.65 4.85 M14.7 2.6 L9.1 2.6 5.1 2.6 4.95 1.95 2.2 1.95 1.4 2.75 Q0.25 3.15 1.1 4.6 M9.1 2.6 L7.3 0.05 3.95 0.05" fill="none" stroke="#9d9d9d" stroke-linecap="round" stroke-linejoin="round" stroke-width="1.0"/>
    <path d="M16.7 -2.0 L17.65 -2.0 17.65 1.35 15.4 1.35" fill="none" stroke="#595959" stroke-linecap="round" stroke-linejoin="round" stroke-width="1.0"/>
    <path d="M-1.05 1.85 L-1.05 0.1 -2.8 0.1 M-1.05 -1.65 L-1.05 0.1 0.7 0.1" fill="none" stroke="#ff0000" stroke-linecap="round" stroke-linejoin="round" stroke-width="2.0"/>
    <path d="M-3.15 12.35 Q-5.1 11.55 -6.55 10.1 L-4.25 3.55" fill="none" stroke="#2c6547" stroke-linecap="round" stroke-linejoin="round" stroke-width="1.0"/>
    <path d="M-4.25 3.55 Q-0.7 5.3 -3.15 12.35" fill="none" stroke="#6a6a6a" stroke-linecap="round" stroke-linejoin="round" stroke-width="1.0"/>
    <path d="M4.5 -4.1 L4.3 -2.35 M2.75 -4.4 L2.55 -2.65" fill="none" stroke="#b8b8b8" stroke-linecap="round" stroke-linejoin="round" stroke-width="1.0"/>
  </g>
</svg>
