<?xml version="1.0" encoding="UTF-8" standalone="no"?>
<svg xmlns:xlink="http://www.w3.org/1999/xlink" height="14.4px" width="46.3px" xmlns="http://www.w3.org/2000/svg">
  <g transform="matrix(1.0, 0.0, 0.0, 1.0, 11.7, 6.25)">
    <path d="M0.7 -2.85 L1.4 -4.7 Q2.3 -5.75 3.0 -5.75 L7.85 -5.35 Q10.15 -4.95 10.15 -4.1 L10.1 -3.2 10.6 -3.05 11.3 -2.95 13.25 -3.1 17.75 -3.2 Q21.35 -3.15 22.1 -4.3 L22.5 -5.05 Q22.8 -5.4 23.45 -5.4 L24.0 -5.25 24.15 -5.1 24.2 -2.1 27.5 -2.0 30.15 -2.05 34.0 -2.0 34.1 -1.6 33.85 -1.15 33.7 -0.8 30.55 -0.85 25.7 -1.05 19.5 -0.25 12.25 0.45 Q11.75 0.1 11.3 0.1 10.45 0.1 10.45 1.8 L10.75 3.65 7.5 4.85 6.85 3.25 3.55 3.25 Q1.95 4.55 1.6 6.35 1.35 7.65 0.75 7.65 -0.45 7.65 -1.35 7.0 L-2.25 6.0 0.2 3.6 Q1.1 2.35 1.1 1.7 1.1 1.0 0.55 0.35 L-0.55 -0.45 Q-1.15 -0.45 -1.75 0.0 L-2.25 0.65 -2.1 1.35 -2.1 1.8 -6.5 2.95 -6.65 2.0 -7.95 3.7 -8.5 3.6 -7.95 4.1 -9.15 4.6 -10.25 4.8 Q-10.65 4.8 -11.0 1.9 L-11.2 -1.55 Q-11.2 -2.65 -10.15 -2.65 L-1.15 -2.5 -1.15 -2.3 -0.3 -2.45 0.7 -2.85 M4.25 -3.65 Q4.65 -3.25 7.35 -3.1 10.1 -2.9 8.8 -4.35 L4.6 -4.7 Q3.95 -4.25 4.25 -3.65 M12.0 -1.0 L11.05 -2.25 12.0 -1.0 M7.65 -1.3 L4.05 -1.45 3.15 -0.55 1.1 -0.55 3.15 -0.55 4.05 -1.45 7.65 -1.3 M23.2 -3.7 Q23.05 -4.0 22.75 -4.0 L22.35 -3.7 22.1 -3.15 22.35 -2.55 Q22.5 -2.3 22.75 -2.3 23.05 -2.3 23.2 -2.55 L23.35 -3.15 23.2 -3.7 M32.95 -1.5 L33.5 -1.5 33.5 -1.7 32.95 -1.7 32.95 -1.5 M6.6 1.3 L6.25 1.3 5.3 2.15 5.1 2.5 Q4.9 2.4 4.9 1.6 4.8 1.4 4.45 1.3 L4.0 1.75 4.3 2.7 6.35 2.9 Q6.65 2.4 6.6 1.3 M-2.6 -1.3 L-10.1 -1.3 -2.6 -1.3 M-7.7 0.15 L-8.55 0.15 -8.55 0.45 -7.7 0.45 -7.7 0.15" fill="#1d1f1f" fill-rule="evenodd" stroke="none"/>
    <path d="M0.7 -2.85 L-0.3 -2.45 -1.15 -2.3 -1.15 -2.5 -10.15 -2.65 Q-11.2 -2.65 -11.2 -1.55 L-11.0 1.9 Q-10.65 4.8 -10.25 4.8 L-9.15 4.6 -7.95 4.1 -8.5 3.6 -7.95 3.7 -6.65 2.0 -6.5 2.95 -2.1 1.8 -2.1 1.35 -2.25 0.65 -1.75 0.0 Q-1.15 -0.45 -0.55 -0.45 L0.55 0.35 Q1.1 1.0 1.1 1.7 1.1 2.35 0.2 3.6 L-2.25 6.0 -1.35 7.0 Q-0.45 7.65 0.75 7.65 1.35 7.65 1.6 6.35 1.95 4.55 3.55 3.25 L6.85 3.25 7.5 4.85 10.75 3.65 10.45 1.8 Q10.45 0.1 11.3 0.1 11.75 0.1 12.25 0.45 L19.5 -0.25 25.7 -1.05 30.55 -0.85 33.7 -0.8 33.85 -1.15 34.1 -1.6 34.0 -2.0 30.15 -2.05 27.5 -2.0 24.2 -2.1 24.15 -5.1 24.0 -5.25 23.45 -5.4 Q22.8 -5.4 22.5 -5.05 L22.1 -4.3 Q21.35 -3.15 17.75 -3.2 L13.25 -3.1 11.3 -2.95 10.6 -3.05 10.1 -3.2 10.15 -4.1 Q10.15 -4.95 7.85 -5.35 L3.0 -5.75 Q2.3 -5.75 1.4 -4.7 L0.7 -2.85 M4.25 -3.65 Q4.65 -3.25 7.35 -3.1 10.1 -2.9 8.8 -4.35 L4.6 -4.7 Q3.95 -4.25 4.25 -3.65 M1.1 -0.55 L3.15 -0.55 4.05 -1.45 7.65 -1.3 M11.05 -2.25 L12.0 -1.0 M23.2 -3.7 Q23.05 -4.0 22.75 -4.0 L22.35 -3.7 22.1 -3.15 22.35 -2.55 Q22.5 -2.3 22.75 -2.3 23.05 -2.3 23.2 -2.55 L23.35 -3.15 23.2 -3.7 M32.95 -1.5 L32.95 -1.7 33.5 -1.7 33.5 -1.5 32.95 -1.5 M6.6 1.3 L6.25 1.3 5.3 2.15 5.1 2.5 Q4.9 2.4 4.9 1.6 4.8 1.4 4.45 1.3 L4.0 1.75 4.3 2.7 6.35 2.9 Q6.65 2.4 6.6 1.3 M-10.1 -1.3 L-2.6 -1.3 M-7.7 0.15 L-7.7 0.45 -8.55 0.45 -8.55 0.15 -7.7 0.15 Z" fill="none" stroke="#0d0d0d" stroke-linecap="round" stroke-linejoin="round" stroke-width="1.0"/>
  </g>
</svg>
