<?xml version="1.0" encoding="UTF-8" standalone="no"?>
<svg xmlns:ffdec="https://www.free-decompiler.com/flash" xmlns:xlink="http://www.w3.org/1999/xlink" ffdec:objectType="shape" height="10.85px" width="16.4px" xmlns="http://www.w3.org/2000/svg">
  <g transform="matrix(1.0, 0.0, 0.0, 1.0, 3.1, 4.85)">
    <path d="M1.85 -4.35 L4.55 -4.35 6.85 -0.7 4.95 0.85 1.9 -1.9 1.85 -4.35 M12.1 3.85 L12.3 4.55 11.15 5.5 -2.25 5.4 -2.05 4.25 -2.5 1.3 -0.15 2.5 1.0 4.2 3.0 4.15 3.95 3.0 6.55 3.4 7.5 3.9 12.1 3.85" fill="#333333" fill-rule="evenodd" stroke="none"/>
    <path d="M-2.5 1.3 L-2.6 0.7 -2.6 -0.3 -2.1 -4.35 1.85 -4.35 1.9 -1.9 4.95 0.85 4.05 1.65 3.95 3.0 3.0 4.15 1.0 4.2 -0.15 2.5 -2.5 1.3" fill="url(#gradient0)" fill-rule="evenodd" stroke="none"/>
    <path d="M6.85 -0.7 L8.4 -0.2 10.5 -0.2 Q10.6 -0.45 12.0 0.5 L12.8 2.85 12.1 3.85 7.5 3.9 6.55 3.4 3.95 3.0 4.05 1.65 4.95 0.85 6.85 -0.7" fill="url(#gradient1)" fill-rule="evenodd" stroke="none"/>
    <path d="M1.85 -4.35 L4.55 -4.35 6.85 -0.7 8.4 -0.2 10.5 -0.2 Q10.6 -0.45 12.0 0.5 L12.8 2.85 12.1 3.85 12.3 4.55 11.15 5.5 -2.25 5.4 -2.05 4.25 -2.5 1.3 -2.6 0.7 -2.6 -0.3 -2.1 -4.35 1.85 -4.35 1.9 -1.9 4.95 0.85 6.85 -0.7 M3.95 3.0 L3.0 4.15 1.0 4.2 -0.15 2.5 -2.5 1.3 M12.1 3.85 L7.5 3.9 6.55 3.4 3.95 3.0 4.05 1.65 4.95 0.85" fill="none" stroke="#2b2927" stroke-linecap="round" stroke-linejoin="round" stroke-width="1.0"/>
  </g>
  <defs>
    <radialGradient cx="0" cy="0" gradientTransform="matrix(0.0066, 0.0, 0.0, 0.0066, 1.2, -0.05)" gradientUnits="userSpaceOnUse" id="gradient0" r="819.2" spreadMethod="pad">
      <stop offset="0.0" stop-color="#4d4946"/>
      <stop offset="1.0" stop-color="#3c3b38"/>
      <stop offset="1.0" stop-color="#333333"/>
    </radialGradient>
    <radialGradient cx="0" cy="0" gradientTransform="matrix(0.0057, 0.0, 0.0, 0.0057, 8.4, 1.6)" gradientUnits="userSpaceOnUse" id="gradient1" r="819.2" spreadMethod="pad">
      <stop offset="0.0" stop-color="#523b40"/>
      <stop offset="1.0" stop-color="#452d33"/>
      <stop offset="1.0" stop-color="#333333"/>
      <stop offset="1.0" stop-color="#523b40"/>
      <stop offset="1.0" stop-color="#523b40"/>
      <stop offset="1.0" stop-color="#523b40"/>
    </radialGradient>
  </defs>
</svg>
