<?xml version="1.0" encoding="UTF-8" standalone="no"?>
<svg xmlns:ffdec="https://www.free-decompiler.com/flash" xmlns:xlink="http://www.w3.org/1999/xlink" ffdec:objectType="shape" height="13.85px" width="20.35px" xmlns="http://www.w3.org/2000/svg">
  <g transform="matrix(1.0, 0.0, 0.0, 1.0, 2.9, 7.8)">
    <path d="M16.1 3.4 L16.35 4.3 14.9 5.55 -1.95 5.4 -1.75 3.9 -2.3 0.05 0.65 1.6 2.15 3.8 4.65 3.75 5.85 2.3 9.1 2.8 10.35 3.45 16.1 3.4 M3.2 -7.3 L6.6 -7.2 9.5 -2.5 7.1 -0.5 3.25 -4.05 3.2 -7.3" fill="#333333" fill-rule="evenodd" stroke="none"/>
    <path d="M9.5 -2.5 L11.45 -1.85 14.05 -1.85 Q14.2 -2.2 15.95 -1.0 L16.95 2.1 16.1 3.4 10.35 3.45 9.1 2.8 5.85 2.3 5.95 0.5 7.1 -0.5 9.5 -2.5" fill="url(#gradient0)" fill-rule="evenodd" stroke="none"/>
    <path d="M-2.3 0.05 L-2.4 -0.7 -2.4 -2.0 -1.8 -7.3 3.2 -7.3 3.25 -4.05 7.1 -0.5 5.95 0.5 5.85 2.3 4.65 3.75 2.15 3.8 0.65 1.6 -2.3 0.05" fill="url(#gradient1)" fill-rule="evenodd" stroke="none"/>
    <path d="M9.5 -2.5 L11.45 -1.85 14.05 -1.85 Q14.2 -2.2 15.95 -1.0 L16.95 2.1 16.1 3.4 16.35 4.3 14.9 5.55 -1.95 5.4 -1.75 3.9 -2.3 0.05 -2.4 -0.7 -2.4 -2.0 -1.8 -7.3 3.2 -7.3 6.6 -7.2 9.5 -2.5 7.1 -0.5 5.95 0.5 5.85 2.3 9.1 2.8 10.35 3.45 16.1 3.4 M3.2 -7.3 L3.25 -4.05 7.1 -0.5 M5.85 2.3 L4.65 3.75 2.15 3.8 0.65 1.6 -2.3 0.05" fill="none" stroke="#2b2927" stroke-linecap="round" stroke-linejoin="round" stroke-width="1.0"/>
  </g>
  <defs>
    <radialGradient cx="0" cy="0" gradientTransform="matrix(0.0089, 0.0, 0.0, 0.0089, 9.95, 0.05)" gradientUnits="userSpaceOnUse" id="gradient0" r="819.2" spreadMethod="pad">
      <stop offset="0.0" stop-color="#4f524e"/>
      <stop offset="1.0" stop-color="#373836"/>
    </radialGradient>
    <radialGradient cx="0" cy="0" gradientTransform="matrix(0.0099, 0.0, 0.0, 0.0099, -0.9, -1.65)" gradientUnits="userSpaceOnUse" id="gradient1" r="819.2" spreadMethod="pad">
      <stop offset="0.0" stop-color="#4d4946"/>
      <stop offset="1.0" stop-color="#3c3b38"/>
      <stop offset="1.0" stop-color="#333333"/>
    </radialGradient>
  </defs>
</svg>
