<?xml version="1.0" encoding="UTF-8" standalone="no"?>
<svg xmlns:ffdec="https://www.free-decompiler.com/flash" xmlns:xlink="http://www.w3.org/1999/xlink" ffdec:objectType="shape" height="12.95px" width="17.05px" xmlns="http://www.w3.org/2000/svg">
  <g transform="matrix(1.0, 0.0, 0.0, 1.0, 1.75, 4.5)">
    <path d="M13.9 4.4 L14.8 5.8 14.5 7.0 13.9 7.95 Q12.8 7.55 11.55 7.95 10.45 7.65 9.15 7.95 L4.5 7.85 4.5 7.3 4.5 6.6 9.15 6.5 10.35 6.2 11.55 5.9 12.4 4.4 13.9 4.4 M2.7 7.3 L2.7 7.7 Q1.7 7.4 -1.25 7.7 L-1.25 5.5 -0.6 5.5 2.7 6.65 2.7 7.3 M14.5 7.0 L13.4 6.35 14.5 7.0 M11.55 7.95 L11.55 5.9 11.55 7.95 M9.15 6.5 L9.15 7.95 9.15 6.5" fill="#252525" fill-rule="evenodd" stroke="none"/>
    <path d="M4.5 7.3 L2.7 7.3 2.7 6.65 -0.6 5.5 -0.6 3.55 -0.05 2.55 -0.05 -2.2 Q0.45 -2.75 4.2 -3.35 3.9 -1.45 3.9 0.1 3.9 2.2 4.55 3.7 6.7 5.6 10.35 6.2 L9.15 6.5 4.5 6.6 4.5 7.3" fill="#414141" fill-rule="evenodd" stroke="none"/>
    <path d="M6.9 -0.7 L5.25 -1.95 6.9 -0.7 6.9 0.45 7.0 1.4 7.1 2.0 9.05 2.2 10.1 1.55 Q12.15 1.75 13.9 2.85 L13.9 4.4 12.4 4.4 11.55 5.9 10.35 6.2 Q6.7 5.6 4.55 3.7 3.9 2.2 3.9 0.1 3.9 -1.45 4.2 -3.35 3.65 -5.0 7.1 -2.45 L6.9 -0.7 M7.1 2.75 L5.35 1.8 4.2 -3.35 5.35 1.8 7.1 2.75 M7.0 1.4 L5.95 0.55 7.0 1.4 M9.05 2.2 L7.6 2.8 9.05 2.2 M6.9 0.45 L5.65 -0.75 6.9 0.45" fill="#4f4f4f" fill-rule="evenodd" stroke="none"/>
    <path d="M6.9 -0.7 L7.1 -2.45 Q3.65 -5.0 4.2 -3.35 L5.35 1.8 7.1 2.75 M6.9 -0.7 L6.9 0.45 7.0 1.4 7.1 2.0 9.05 2.2 10.1 1.55 Q12.15 1.75 13.9 2.85 L13.9 4.4 14.8 5.8 14.5 7.0 13.9 7.95 Q12.8 7.55 11.55 7.95 10.45 7.65 9.15 7.95 L4.5 7.85 4.5 7.3 2.7 7.3 2.7 7.7 Q1.7 7.4 -1.25 7.7 L-1.25 5.5 -0.6 5.5 -0.6 3.55 -0.05 2.55 -0.05 -2.2 Q0.45 -2.75 4.2 -3.35 M10.35 6.2 L11.55 5.9 12.4 4.4 13.9 4.4 M11.55 5.9 L11.55 7.95 M7.6 2.8 L9.05 2.2 M-0.6 5.5 L2.7 6.65 2.7 7.3 M4.5 7.3 L4.5 6.6 9.15 6.5 10.35 6.2 M9.15 7.95 L9.15 6.5" fill="none" stroke="#070707" stroke-linecap="round" stroke-linejoin="round" stroke-width="1.0"/>
    <path d="M13.4 6.35 L14.5 7.0" fill="none" stroke="#151515" stroke-linecap="round" stroke-linejoin="round" stroke-width="1.0"/>
    <path d="M5.25 -1.95 L6.9 -0.7 M5.95 0.55 L7.0 1.4 M5.65 -0.75 L6.9 0.45" fill="none" stroke="#333333" stroke-linecap="round" stroke-linejoin="round" stroke-width="1.0"/>
  </g>
</svg>
