<?xml version="1.0" encoding="UTF-8" standalone="no"?>
<svg xmlns:ffdec="https://www.free-decompiler.com/flash" xmlns:xlink="http://www.w3.org/1999/xlink" ffdec:objectType="shape" height="8.65px" width="17.55px" xmlns="http://www.w3.org/2000/svg">
  <g transform="matrix(1.0, 0.0, 0.0, 1.0, 6.5, 2.35)">
    <path d="M-4.4 2.45 L1.45 3.75 1.45 5.8 -5.8 5.8 -6.0 3.75 -4.4 2.45" fill="#615a47" fill-rule="evenodd" stroke="none"/>
    <path d="M-4.4 2.45 L-3.4 -1.35 0.5 -1.7 2.75 -1.85 3.95 -0.05 6.15 0.55 3.75 3.45 3.75 5.8 1.45 5.8 1.45 3.75 -4.4 2.45" fill="#484232" fill-rule="evenodd" stroke="none"/>
    <path d="M3.75 5.8 L3.75 3.45 6.15 0.55 8.25 0.55 10.55 3.55 10.55 5.8 3.75 5.8" fill="#7b6b52" fill-rule="evenodd" stroke="none"/>
    <path d="M6.15 0.55 L3.95 -0.05 2.75 -1.85 0.5 -1.7 -3.4 -1.35 -4.4 2.45 1.45 3.75 1.45 5.8 3.75 5.8 3.75 3.45 6.15 0.55 8.25 0.55 10.55 3.55 10.55 5.8 3.75 5.8 M-4.4 2.45 L-6.0 3.75 -5.8 5.8 1.45 5.8" fill="none" stroke="#232018" stroke-linecap="round" stroke-linejoin="round" stroke-width="1.0"/>
  </g>
</svg>
