<?xml version="1.0" encoding="UTF-8" standalone="no"?>
<svg xmlns:xlink="http://www.w3.org/1999/xlink" height="14.05px" width="26.05px" xmlns="http://www.w3.org/2000/svg">
  <g transform="matrix(1.0, 0.0, 0.0, 1.0, 13.0, 7.0)">
    <path d="M-8.8 -7.0 Q-5.05 -6.95 -0.05 -5.6 4.95 -4.3 8.25 -2.45 11.55 -0.6 11.25 0.65 10.9 1.9 7.1 1.85 3.35 1.75 -1.65 0.45 -6.7 -0.9 -9.95 -2.75 -13.3 -4.6 -12.95 -5.85 -12.6 -7.1 -8.8 -7.0" fill="url(#gradient0)" fill-rule="evenodd" stroke="none"/>
    <path d="M-7.05 -1.8 Q-3.3 -1.75 1.75 -0.4 6.75 0.95 10.05 2.75 13.3 4.6 13.0 5.85 12.65 7.1 8.9 7.05 5.1 6.95 0.1 5.65 -4.9 4.3 -8.2 2.45 -11.5 0.6 -11.15 -0.6 -10.85 -1.9 -7.05 -1.8" fill="url(#gradient1)" fill-rule="evenodd" stroke="none"/>
  </g>
  <defs>
    <radialGradient cx="0" cy="0" gradientTransform="matrix(-0.001, 0.0036, -0.0149, -0.004, -0.5, -2.6)" gradientUnits="userSpaceOnUse" id="gradient0" r="819.2" spreadMethod="pad">
      <stop offset="0.0" stop-color="#ffffff"/>
      <stop offset="1.0" stop-color="#ffffff" stop-opacity="0.0"/>
    </radialGradient>
    <radialGradient cx="0" cy="0" gradientTransform="matrix(-0.001, 0.0036, -0.0149, -0.004, 0.9, 2.6)" gradientUnits="userSpaceOnUse" id="gradient1" r="819.2" spreadMethod="pad">
      <stop offset="0.0" stop-color="#ffffff"/>
      <stop offset="1.0" stop-color="#ffffff" stop-opacity="0.0"/>
    </radialGradient>
  </defs>
</svg>
