<?xml version="1.0" encoding="UTF-8" standalone="no"?>
<svg xmlns:ffdec="https://www.free-decompiler.com/flash" xmlns:xlink="http://www.w3.org/1999/xlink" ffdec:objectType="shape" height="10.65px" width="16.4px" xmlns="http://www.w3.org/2000/svg">
  <g transform="matrix(1.0, 0.0, 0.0, 1.0, 3.2, 3.2)">
    <path d="M-1.9 -0.1 L-0.35 0.35 2.5 3.3 5.1 2.25 7.65 3.95 9.75 2.1 12.25 3.95 12.65 5.65 11.85 7.1 4.55 6.85 4.35 6.05 3.8 6.0 3.2 7.0 -1.85 6.85 -2.7 3.6 Q-2.25 2.6 -2.1 1.85 L-1.9 -0.1" fill="#1f1f1f" fill-rule="evenodd" stroke="none"/>
    <path d="M3.9 -0.45 L5.1 2.2 2.55 3.4 Q1.1 1.5 -0.15 0.65 L-2.35 -0.75 -2.5 -2.3 1.0 -2.7 1.65 -1.4 3.9 -0.45" fill="#282828" fill-rule="evenodd" stroke="none"/>
    <path d="M3.9 -0.45 L1.65 -1.4 1.0 -2.7 -2.5 -2.3 -2.35 -0.75 -0.15 0.65 Q1.1 1.5 2.55 3.4 L5.1 2.2" fill="none" stroke="#121212" stroke-linecap="round" stroke-linejoin="round" stroke-width="1.0"/>
    <path d="M-1.6 -0.05 Q-1.35 1.9 -2.1 4.25 L-1.35 6.3 2.9 6.35" fill="none" stroke="#181818" stroke-linecap="round" stroke-linejoin="round" stroke-width="1.0"/>
    <path d="M9.4 1.9 L7.35 3.85 5.0 2.25 3.85 -0.5 5.75 -0.75 7.45 1.1 9.4 1.9" fill="#0f152e" fill-rule="evenodd" stroke="none"/>
    <path d="M-2.05 -0.7 Q0.7 0.85 2.5 3.25 L5.0 2.25" fill="none" stroke="#0f0f0f" stroke-linecap="round" stroke-linejoin="round" stroke-width="1.0"/>
    <path d="M-2.25 -0.55 Q-1.9 1.65 -2.7 4.1 L-1.95 6.6" fill="none" stroke="#0f0f0f" stroke-linecap="round" stroke-linejoin="round" stroke-width="1.0"/>
    <path d="M-1.85 6.8 L3.25 6.85 3.7 6.15 4.3 6.15 4.7 6.9 5.6 6.95 6.1 6.75 6.65 6.95 7.15 6.75 7.6 6.95 8.1 6.75 8.6 6.95 11.9 6.95" fill="none" stroke="#0b0b0b" stroke-linecap="round" stroke-linejoin="round" stroke-width="1.0"/>
    <path d="M12.0 6.85 L12.7 5.6 12.3 4.15 Q11.4 2.95 9.8 2.15 L7.55 1.2 5.75 -0.9" fill="none" stroke="#0f0f0f" stroke-linecap="round" stroke-linejoin="round" stroke-width="1.0"/>
    <path d="M3.9 -0.3 Q4.55 1.9 6.15 3.15 6.95 3.75 7.6 3.9 L9.6 2.1" fill="none" stroke="#080d1c" stroke-linecap="round" stroke-linejoin="round" stroke-width="1.0"/>
    <path d="M12.25 5.25 L4.55 5.15 4.15 5.85" fill="none" stroke="#0b0b0b" stroke-linecap="round" stroke-linejoin="round" stroke-width="1.0"/>
    <path d="M8.45 6.35 Q8.2 6.3 8.2 6.25 L7.8 6.35 7.6 6.4 7.45 6.35 7.15 6.25 6.85 6.3 6.65 6.4 6.45 6.3 5.75 6.35 5.55 6.4 5.0 6.4 4.75 5.95 4.75 5.85 4.85 5.65 12.0 5.75 11.65 6.45 8.65 6.45 8.45 6.35" fill="#181818" fill-rule="evenodd" stroke="none"/>
    <path d="M8.45 6.35 Q8.2 6.3 8.2 6.25 L7.8 6.35 7.6 6.4 7.45 6.35 7.15 6.25 6.85 6.3 6.65 6.4 6.45 6.3 5.75 6.35 5.55 6.4 5.0 6.4 4.75 5.95 4.75 5.85 4.85 5.65 12.0 5.75 11.65 6.45 8.65 6.45 8.45 6.35 Z" fill="none" stroke="#181818" stroke-linecap="round" stroke-linejoin="round" stroke-width="0.05"/>
  </g>
</svg>
