<?xml version="1.0" encoding="UTF-8" standalone="no"?>
<svg xmlns:xlink="http://www.w3.org/1999/xlink" height="15.15px" width="29.6px" xmlns="http://www.w3.org/2000/svg">
  <g transform="matrix(1.0, 0.0, 0.0, 1.0, 9.6, 7.55)">
    <path d="M3.45 -5.25 L6.75 -6.85 8.1 -7.05 10.35 -5.95 7.25 -3.95 5.15 -4.1 4.3 -4.15 3.45 -5.25 M4.05 3.35 L5.95 5.8 5.9 5.8 Q1.0 7.95 -4.2 6.25 -7.85 4.15 -9.0 0.25 L-9.05 0.1 Q-9.35 -1.6 -8.35 -3.15 -6.1 -4.5 -3.25 -5.05 L0.75 -5.05 2.6 -1.85 Q-1.9 -2.0 -5.6 -1.0 -7.25 0.25 -9.05 0.1 -7.25 0.25 -5.6 -1.0 -4.25 2.65 -1.7 3.65 L-4.2 6.25 -1.7 3.65 Q0.65 4.6 4.05 3.35 M6.75 -6.85 Q6.8 -5.4 5.15 -4.1 6.8 -5.4 6.75 -6.85" fill="#c9c9c9" fill-rule="evenodd" stroke="none"/>
    <path d="M10.35 -5.95 L12.0 -4.3 14.9 -4.3 15.4 -3.15 14.9 -1.95 14.6 -1.2 15.0 -0.3 15.45 0.65 15.75 0.85 16.6 1.4 18.35 1.45 19.5 1.65 19.2 3.35 14.9 3.35 12.95 3.35 11.35 3.35 10.8 3.35 5.95 5.8 4.05 3.35 3.55 -0.15 2.6 -1.85 0.75 -5.05 3.45 -5.25 4.3 -4.15 5.15 -4.1 7.25 -3.95 10.35 -5.95 M4.2 -2.1 L4.55 -2.85 4.2 -2.1 M9.0 -1.85 L8.45 -1.6 Q8.25 -1.4 8.2 -1.05 L8.25 -0.85 8.45 -0.5 8.9 -0.3 9.0 -0.3 9.6 -0.5 9.8 -1.05 9.6 -1.6 9.0 -1.85 M5.0 -0.75 L6.3 -2.7 5.0 -0.75 M14.9 -1.95 L12.0 -2.15 14.9 -1.95 M14.25 1.9 L15.75 0.85 14.25 1.9 M11.4 0.85 L15.0 -0.3 11.4 0.85 M6.25 3.55 Q6.0 0.45 8.25 -0.85 6.0 0.45 6.25 3.55 M7.65 3.4 Q7.2 1.4 8.9 -0.3 7.2 1.4 7.65 3.4" fill="#949494" fill-rule="evenodd" stroke="none"/>
    <path d="M9.0 -1.85 L9.6 -1.6 9.8 -1.05 9.6 -0.5 9.0 -0.3 8.9 -0.3 8.45 -0.5 8.25 -0.85 8.2 -1.05 Q8.25 -1.4 8.45 -1.6 L9.0 -1.85" fill="#8e0007" fill-rule="evenodd" stroke="none"/>
    <path d="M15.4 -3.15 Q18.85 -2.65 18.35 1.45 L16.6 1.4 15.75 0.85 15.45 0.65 15.0 -0.3 14.6 -1.2 14.9 -1.95 15.4 -3.15" fill="#119efd" fill-rule="evenodd" stroke="none"/>
    <path d="M10.35 -5.95 L12.0 -4.3 14.9 -4.3 15.4 -3.15 M18.35 1.45 L19.5 1.65 19.2 3.35 14.9 3.35 16.3 5.05 M2.6 -1.85 L3.55 -0.15 4.05 3.35 5.95 5.8 10.8 3.35 11.35 3.35 12.95 3.35 14.9 3.35 M2.6 -1.85 L0.75 -5.05 3.45 -5.25 4.3 -4.15 5.15 -4.1 7.25 -3.95 10.35 -5.95 M4.55 -2.85 L4.2 -2.1 M6.3 -2.7 L5.0 -0.75 M11.35 3.35 L12.75 5.05 M12.95 3.35 L16.05 7.1 M8.9 -0.3 Q7.2 1.4 7.65 3.4 M8.25 -0.85 Q6.0 0.45 6.25 3.55" fill="none" stroke="#2d2d2d" stroke-linecap="round" stroke-linejoin="round" stroke-width="1.0"/>
    <path d="M9.0 -1.85 L8.45 -1.6 Q8.25 -1.4 8.2 -1.05 L8.25 -0.85 8.45 -0.5 8.9 -0.3 9.0 -0.3 9.6 -0.5 9.8 -1.05 9.6 -1.6 9.0 -1.85" fill="none" stroke="#5b0003" stroke-linecap="round" stroke-linejoin="round" stroke-width="1.0"/>
    <path d="M15.4 -3.15 Q18.85 -2.65 18.35 1.45 L16.6 1.4 15.75 0.85 14.25 1.9 M15.4 -3.15 L14.9 -1.95 14.6 -1.2 15.0 -0.3 15.45 0.65 15.75 0.85 M12.0 -2.15 L14.9 -1.95 M15.0 -0.3 L11.4 0.85" fill="none" stroke="#01426b" stroke-linecap="round" stroke-linejoin="round" stroke-width="1.0"/>
    <path d="M3.45 -5.25 L6.75 -6.85 8.1 -7.05 10.35 -5.95 M0.75 -5.05 L-3.25 -5.05 Q-6.1 -4.5 -8.35 -3.15 -9.35 -1.6 -9.05 0.1 -7.25 0.25 -5.6 -1.0 -1.9 -2.0 2.6 -1.85 M5.15 -4.1 Q6.8 -5.4 6.75 -6.85 M5.95 5.8 L5.9 5.8 Q1.0 7.95 -4.2 6.25 -7.85 4.15 -9.0 0.25 L-9.05 0.1 M-4.2 6.25 L-1.7 3.65 Q-4.25 2.65 -5.6 -1.0 M4.05 3.35 Q0.65 4.6 -1.7 3.65" fill="none" stroke="#4f4f4f" stroke-linecap="round" stroke-linejoin="round" stroke-width="1.0"/>
  </g>
</svg>
