<?xml version="1.0" encoding="UTF-8" standalone="no"?>
<svg xmlns:ffdec="https://www.free-decompiler.com/flash" xmlns:xlink="http://www.w3.org/1999/xlink" ffdec:objectType="shape" height="29.25px" width="28.05px" xmlns="http://www.w3.org/2000/svg">
  <g transform="matrix(1.0, 0.0, 0.0, 1.0, 17.35, 34.25)">
    <path d="M-6.0 -30.4 Q-3.7 -32.1 -1.15 -32.1 1.45 -32.1 2.55 -28.95 -2.45 -30.75 -6.0 -30.4" fill="#2c2c2c" fill-rule="evenodd" stroke="none"/>
    <path d="M2.7 -29.45 Q3.1 -28.35 3.0 -20.2 L2.65 -10.65 Q2.5 -8.35 1.85 -7.0 0.3 -5.2 -4.6 -5.5 -6.5 -6.35 -6.1 -8.3 -7.95 -10.2 -8.15 -19.15 -8.3 -27.7 -7.1 -29.65 -5.55 -30.65 -3.7 -30.9 -0.55 -31.3 2.7 -29.45" fill="#2f313a" fill-rule="evenodd" stroke="none"/>
    <path d="M-6.0 -30.4 Q-3.7 -32.1 -1.15 -32.1 1.45 -32.1 2.55 -28.95 M2.75 -21.15 Q3.2 -20.1 3.0 -16.05 L2.65 -10.65 Q2.5 -8.35 1.85 -7.0 0.3 -5.2 -4.6 -5.5 -6.2 -5.15 -7.7 -14.45 -9.25 -23.75 -7.8 -25.55" fill="none" stroke="#111216" stroke-linecap="round" stroke-linejoin="round" stroke-width="0.9"/>
    <path d="M2.55 -28.1 L4.05 -26.3 5.7 -23.95 Q6.0 -23.15 5.9 -22.15 L4.6 -14.45 Q5.2 -13.55 5.1 -12.75 5.05 -11.85 5.3 -11.25 L4.65 -10.75 4.05 -10.25 3.25 -11.15 2.35 -12.55 -0.65 -16.15 Q-1.35 -17.2 -1.15 -18.75 L-0.65 -23.25 Q-0.5 -24.3 0.9 -25.9 1.65 -26.75 2.0 -28.0 L2.55 -28.1" fill="url(#gradient0)" fill-rule="evenodd" stroke="none"/>
    <path d="M2.55 -28.1 L4.05 -26.3 5.7 -23.95 Q6.0 -23.15 5.9 -22.15 L4.6 -14.45 Q5.2 -13.55 5.1 -12.75 5.05 -11.85 5.3 -11.25 L4.65 -10.75 4.05 -10.25 3.25 -11.15 2.35 -12.55 -0.65 -16.15 Q-1.35 -17.2 -1.15 -18.75 L-0.65 -23.25 Q-0.5 -24.3 0.9 -25.9 1.65 -26.75 2.0 -28.0 L2.55 -28.1 Z" fill="none" stroke="#25272a" stroke-linecap="round" stroke-linejoin="round" stroke-width="0.9"/>
    <path d="M9.3 -19.85 Q8.5 -17.8 7.15 -17.4 5.85 -17.05 3.85 -18.1 L3.05 -19.85 Q2.9 -20.9 3.7 -22.05 5.65 -22.9 4.8 -24.6 3.15 -26.85 2.55 -28.35 5.3 -27.75 7.45 -24.65 9.4 -21.85 9.3 -19.85" fill="url(#gradient1)" fill-rule="evenodd" stroke="none"/>
    <path d="M9.3 -19.85 Q8.5 -17.8 7.15 -17.4 5.85 -17.05 3.85 -18.1 L3.05 -19.85 Q2.9 -20.9 3.7 -22.05 5.65 -22.9 4.8 -24.6 3.15 -26.85 2.55 -28.35 5.3 -27.75 7.45 -24.65 9.4 -21.85 9.3 -19.85 Z" fill="none" stroke="#513817" stroke-linecap="butt" stroke-linejoin="miter-clip" stroke-miterlimit="11.33984375" stroke-width="0.9"/>
    <path d="M-7.05 -31.4 L-6.0 -26.95 -4.95 -23.45 Q-4.8 -22.8 -5.45 -20.45 -4.7 -17.35 -7.55 -17.05 -10.35 -16.75 -11.65 -18.65 L-10.55 -19.2 Q-9.75 -19.7 -9.75 -20.8 -9.8 -21.25 -10.15 -21.95 L-10.85 -23.3 Q-11.95 -27.65 -12.55 -29.05 L-10.65 -31.55 -10.4 -31.0 Q-9.95 -30.5 -9.1 -30.5 -7.75 -30.5 -7.05 -31.4" fill="url(#gradient2)" fill-rule="evenodd" stroke="none"/>
    <path d="M-7.05 -31.4 L-6.0 -26.95 -4.95 -23.45 Q-4.8 -22.8 -5.45 -20.45 -4.7 -17.35 -7.55 -17.05 -10.35 -16.75 -11.65 -18.65 L-10.55 -19.2 Q-9.75 -19.7 -9.75 -20.8 -9.8 -21.25 -10.15 -21.95 L-10.85 -23.3 Q-11.95 -27.65 -12.55 -29.05 L-10.65 -31.55 -10.4 -31.0 Q-9.95 -30.5 -9.1 -30.5 -7.75 -30.5 -7.05 -31.4 Z" fill="none" stroke="#25272a" stroke-linecap="round" stroke-linejoin="round" stroke-width="0.9"/>
    <path d="M-4.2 -14.7 Q-5.95 -14.5 -6.25 -14.1 -6.6 -13.8 -6.85 -11.95 L-8.35 -12.15 -11.4 -15.65 Q-11.75 -16.2 -11.7 -17.75 L-11.6 -19.2 -10.85 -19.7 Q-10.05 -20.15 -9.95 -19.7 -7.6 -17.9 -6.75 -17.95 -6.05 -18.0 -6.0 -19.35 -5.4 -20.95 -3.75 -21.25 L-0.6 -21.7 Q-0.55 -21.1 -0.85 -19.25 L-0.9 -17.25 Q-0.6 -16.7 -2.1 -15.75 L-4.2 -14.7" fill="url(#gradient3)" fill-rule="evenodd" stroke="none"/>
    <path d="M-4.2 -14.7 Q-5.95 -14.5 -6.25 -14.1 -6.6 -13.8 -6.85 -11.95 L-8.35 -12.15 -11.4 -15.65 Q-11.75 -16.2 -11.7 -17.75 L-11.6 -19.2 -10.85 -19.7 Q-10.05 -20.15 -9.95 -19.7 -7.6 -17.9 -6.75 -17.95 -6.05 -18.0 -6.0 -19.35 -5.4 -20.95 -3.75 -21.25 L-0.6 -21.7 Q-0.55 -21.1 -0.85 -19.25 L-0.9 -17.25 Q-0.6 -16.7 -2.1 -15.75 L-4.2 -14.7 Z" fill="none" stroke="#25272a" stroke-linecap="butt" stroke-linejoin="miter-clip" stroke-miterlimit="11.33984375" stroke-width="0.9"/>
    <path d="M-12.4 -32.5 L-11.35 -32.05 -10.15 -31.35 -9.75 -29.35 Q-9.4 -27.4 -9.55 -26.65 L-10.65 -25.75 -11.75 -25.15 Q-11.95 -24.75 -13.15 -24.3 L-14.7 -23.9 Q-15.0 -23.9 -15.55 -24.65 L-16.1 -25.45 -16.45 -28.65 Q-16.8 -32.0 -16.5 -32.45 L-14.9 -32.35 -13.6 -31.65 -12.4 -32.5" fill="url(#gradient4)" fill-rule="evenodd" stroke="none"/>
    <path d="M-12.4 -32.5 L-11.35 -32.05 -10.15 -31.35 -9.75 -29.35 Q-9.4 -27.4 -9.55 -26.65 L-10.65 -25.75 -11.75 -25.15 Q-11.95 -24.75 -13.15 -24.3 L-14.7 -23.9 Q-15.0 -23.9 -15.55 -24.65 L-16.1 -25.45 -16.45 -28.65 Q-16.8 -32.0 -16.5 -32.45 L-14.9 -32.35 -13.6 -31.65 -12.4 -32.5 Z" fill="none" stroke="#513817" stroke-linecap="butt" stroke-linejoin="miter-clip" stroke-miterlimit="11.33984375" stroke-width="0.9"/>
    <path d="M-12.95 -32.35 L-10.7 -33.45 -8.5 -33.6 -7.15 -33.2 -6.05 -32.7 -4.75 -31.65 Q-6.25 -25.25 -7.25 -25.25 L-9.6 -25.4 Q-11.15 -25.6 -10.8 -25.9 -8.95 -27.3 -10.25 -30.15 -11.5 -33.0 -12.95 -32.35" fill="url(#gradient5)" fill-rule="evenodd" stroke="none"/>
    <path d="M-12.95 -32.35 L-10.7 -33.45 -8.5 -33.6 -7.15 -33.2 -6.05 -32.7 -4.75 -31.65 Q-6.25 -25.25 -7.25 -25.25 L-9.6 -25.4 Q-11.15 -25.6 -10.8 -25.9 -8.95 -27.3 -10.25 -30.15 -11.5 -33.0 -12.95 -32.35 Z" fill="none" stroke="#25272a" stroke-linecap="round" stroke-linejoin="round" stroke-width="0.9"/>
    <path d="M7.65 -18.2 L6.3 -17.3 Q5.15 -14.95 4.8 -14.8 L3.8 -14.05 3.1 -14.1 2.5 -15.15 Q2.1 -15.95 2.2 -17.0 2.25 -17.8 2.7 -18.7 L3.35 -19.7 Q4.15 -18.9 5.6 -18.55 L7.65 -18.45 7.85 -18.5 7.65 -18.2 7.65 -18.45 7.65 -18.2" fill="url(#gradient6)" fill-rule="evenodd" stroke="none"/>
    <path d="M7.65 -18.2 L6.3 -17.3 Q5.15 -14.95 4.8 -14.8 L3.8 -14.05 3.1 -14.1 2.5 -15.15 Q2.1 -15.95 2.2 -17.0 2.25 -17.8 2.7 -18.7 L3.35 -19.7 Q4.15 -18.9 5.6 -18.55 L7.65 -18.45 7.85 -18.5 7.65 -18.2 7.65 -18.45" fill="none" stroke="#25272a" stroke-linecap="round" stroke-linejoin="miter-clip" stroke-miterlimit="11.33984375" stroke-width="0.9"/>
    <path d="M-13.8 -24.15 L-12.9 -24.45 Q-12.45 -24.45 -11.85 -25.1 -10.85 -24.45 -10.45 -23.4 L-9.8 -21.65 Q-9.55 -20.9 -9.9 -20.25 -10.25 -19.65 -10.6 -19.8 L-12.2 -18.6 Q-14.1 -20.9 -13.8 -24.15" fill="#00dab5" fill-opacity="0.6117647" fill-rule="evenodd" stroke="none"/>
    <path d="M-13.8 -24.15 Q-14.1 -20.9 -12.2 -18.6 L-10.6 -19.8 Q-10.25 -19.65 -9.9 -20.25 -9.55 -20.9 -9.8 -21.65 L-10.45 -23.4 Q-10.85 -24.45 -11.85 -25.1 -12.45 -24.45 -12.9 -24.45 L-13.8 -24.15 Z" fill="none" stroke="#000000" stroke-linecap="butt" stroke-linejoin="miter-clip" stroke-miterlimit="11.33984375" stroke-opacity="0.41960785" stroke-width="0.9"/>
    <path d="M2.5 -10.4 L3.0 -13.3 Q4.55 -13.1 5.2 -14.6 6.0 -16.4 6.35 -16.55 7.7 -17.1 8.45 -18.2 L9.4 -20.3 7.65 -24.15 Q6.2 -26.3 2.85 -28.5" fill="none" stroke="#010100" stroke-linecap="round" stroke-linejoin="round" stroke-opacity="0.3647059" stroke-width="0.9"/>
    <path d="M-7.05 -11.95 L-8.35 -12.15 -9.4 -13.35 Q-10.75 -14.15 -11.1 -16.15 -11.45 -18.15 -11.95 -18.4 -13.5 -20.15 -13.65 -20.85 L-13.65 -24.15 -15.1 -23.95 -15.75 -24.8 -16.15 -25.95 -15.65 -28.7 -14.85 -30.25 -13.75 -31.65 -12.85 -32.65 -9.8 -33.7 Q-9.05 -33.9 -7.45 -33.05" fill="none" stroke="#010100" stroke-linecap="round" stroke-linejoin="round" stroke-opacity="0.3647059" stroke-width="0.9"/>
  </g>
  <defs>
    <radialGradient cx="0" cy="0" gradientTransform="matrix(0.008, 0.0018, -0.0046, 0.0219, 4.15, -23.3)" gradientUnits="userSpaceOnUse" id="gradient0" r="819.2" spreadMethod="pad">
      <stop offset="0.0" stop-color="#151515"/>
      <stop offset="1.0" stop-color="#636c6a"/>
    </radialGradient>
    <radialGradient cx="0" cy="0" gradientTransform="matrix(0.0049, 4.0E-4, -0.0014, 0.0224, 3.7, -24.75)" gradientUnits="userSpaceOnUse" id="gradient1" r="819.2" spreadMethod="pad">
      <stop offset="0.0" stop-color="#8e3a0e"/>
      <stop offset="1.0" stop-color="#dbb531"/>
    </radialGradient>
    <radialGradient cx="0" cy="0" gradientTransform="matrix(0.0054, 2.0E-4, -7.0E-4, 0.0177, -9.55, -26.55)" gradientUnits="userSpaceOnUse" id="gradient2" r="819.2" spreadMethod="pad">
      <stop offset="0.0" stop-color="#151515"/>
      <stop offset="1.0" stop-color="#636c6a"/>
    </radialGradient>
    <radialGradient cx="0" cy="0" gradientTransform="matrix(0.0088, 5.0E-4, -0.0015, 0.0282, -7.3, -18.3)" gradientUnits="userSpaceOnUse" id="gradient3" r="819.2" spreadMethod="pad">
      <stop offset="0.0" stop-color="#363a43"/>
      <stop offset="1.0" stop-color="#dbdce1"/>
    </radialGradient>
    <linearGradient gradientTransform="matrix(0.006, -2.0E-4, 2.0E-4, 0.0061, -13.95, -28.25)" gradientUnits="userSpaceOnUse" id="gradient4" spreadMethod="pad" x1="-819.2" x2="819.2">
      <stop offset="0.0" stop-color="#8e3a0e"/>
      <stop offset="1.0" stop-color="#dbb531"/>
    </linearGradient>
    <radialGradient cx="0" cy="0" gradientTransform="matrix(0.0046, -1.0E-4, 2.0E-4, 0.01, -9.0, -31.4)" gradientUnits="userSpaceOnUse" id="gradient5" r="819.2" spreadMethod="pad">
      <stop offset="0.0" stop-color="#444954"/>
      <stop offset="1.0" stop-color="#dbdce1"/>
    </radialGradient>
    <radialGradient cx="0" cy="0" gradientTransform="matrix(0.0035, 2.0E-4, -0.0015, 0.0218, 5.45, -19.65)" gradientUnits="userSpaceOnUse" id="gradient6" r="819.2" spreadMethod="pad">
      <stop offset="0.0" stop-color="#444954"/>
      <stop offset="1.0" stop-color="#dbdce1"/>
    </radialGradient>
  </defs>
</svg>
