<?xml version="1.0" encoding="UTF-8" standalone="no"?>
<svg xmlns:xlink="http://www.w3.org/1999/xlink" height="42.9px" width="167.95px" xmlns="http://www.w3.org/2000/svg">
  <g transform="matrix(1.0, 0.0, 0.0, 1.0, 78.95, 19.2)">
    <path d="M86.25 -2.45 L86.4 -2.4 85.3 6.7 74.7 6.7 77.05 1.45 82.4 1.45 86.25 -2.45 M-67.45 -12.85 L-59.05 -12.85 -57.95 -9.9 -55.65 -3.9 -64.1 -3.9 -67.45 -12.85" fill="#606060" fill-rule="evenodd" stroke="none"/>
    <path d="M-3.45 -4.6 L10.6 -4.6 14.2 4.55 -1.95 4.55 -3.45 -4.6 M16.05 -4.6 L27.5 -4.6 29.9 -2.5 34.8 -2.5 37.6 4.55 19.65 4.55 16.05 -4.6 M40.25 -2.5 L56.85 -2.5 58.8 2.4 58.0 4.55 43.0 4.55 40.25 -2.5 M62.25 -2.5 L62.85 -4.15 68.4 -4.15 69.05 -7.2 69.3 -8.25 74.1 -8.25 73.9 -7.2 73.25 -4.15 75.55 -4.15 76.2 -7.2 76.4 -8.25 79.1 -8.25 78.8 -7.2 78.2 -4.15 80.5 -4.15 81.1 -7.2 81.4 -8.25 88.0 -8.25 88.0 -4.25 86.25 -2.45 82.4 1.45 77.05 1.45 74.7 6.7 73.9 8.45 63.3 8.45 64.2 6.05 64.2 2.4 62.25 -2.5" fill="#4e4e4e" fill-rule="evenodd" stroke="none"/>
    <path d="M10.6 -4.6 L16.05 -4.6 19.65 4.55 14.2 4.55 10.6 -4.6 M34.8 -2.5 L40.25 -2.5 43.0 4.55 37.6 4.55 34.8 -2.5 M56.85 -2.5 L62.25 -2.5 64.2 2.4 58.8 2.4 56.85 -2.5" fill="#404040" fill-rule="evenodd" stroke="none"/>
    <path d="M62.85 -4.15 L63.8 -6.85 63.9 -7.2 69.05 -7.2 68.4 -4.15 62.85 -4.15 M73.9 -7.2 L76.2 -7.2 75.55 -4.15 73.25 -4.15 73.9 -7.2 M78.8 -7.2 L81.1 -7.2 80.5 -4.15 78.2 -4.15 78.8 -7.2" fill="#000000" fill-rule="evenodd" stroke="none"/>
    <path d="M-72.85 -7.2 L-68.45 -7.2 -65.05 1.75 -69.5 1.75 -72.85 -7.2 M-30.15 -0.05 L-26.85 -0.05 -26.85 13.65 -30.15 13.65 -30.15 7.7 -30.15 -0.05 M-10.5 -0.05 L-10.5 13.65 -13.8 13.65 -13.8 -0.05 -10.5 -0.05 M-18.8 -0.05 L-18.8 13.65 -22.1 13.65 -22.1 -0.05 -18.8 -0.05" fill="#00ffff" fill-rule="evenodd" stroke="none"/>
    <path d="M-51.05 8.3 L-59.45 8.3 -64.1 -3.9 -55.65 -3.9 -51.05 8.3 M-70.9 5.0 L-73.55 3.4 -74.2 0.3 -77.15 -3.5 -76.1 -8.85 -70.9 5.0" fill="#393939" fill-rule="evenodd" stroke="none"/>
    <path d="M-14.1 20.95 L-37.2 20.95 -39.6 19.35 -41.6 12.9 -38.8 12.9 -33.3 17.75 -16.1 17.75 -14.1 20.95" fill="#834101" fill-rule="evenodd" stroke="none"/>
    <path d="M-46.5 -5.5 L-46.3 -5.7 Q-45.5 -6.5 -44.35 -6.5 -43.2 -6.5 -42.4 -5.7 -41.6 -4.9 -41.6 -3.75 L-41.6 -3.5 -41.9 -2.4 -42.4 -1.8 Q-43.2 -1.0 -44.35 -1.0 -45.5 -1.0 -46.3 -1.8 -47.1 -2.6 -47.1 -3.75 -47.1 -4.75 -46.5 -5.5" fill="#02d202" fill-rule="evenodd" stroke="none"/>
    <path d="M-59.45 8.3 L-60.75 12.0 -64.75 12.9 -68.45 11.45 -70.9 5.0 -76.1 -8.85 -77.95 -13.75 -75.85 -16.5 -69.65 -16.5 -67.45 -12.85 -64.1 -3.9 -59.45 8.3 M-72.85 -7.2 L-69.5 1.75 -65.05 1.75 -68.45 -7.2 -72.85 -7.2" fill="url(#gradient0)" fill-rule="evenodd" stroke="none"/>
    <path d="M-7.1 -13.3 L-3.45 -4.6 -1.95 4.55 -0.95 10.45 -0.15 15.25 0.3 18.2 -1.95 22.7 -12.95 22.7 -14.1 20.95 -16.1 17.75 -33.3 17.75 -38.8 12.9 -41.6 12.9 -49.3 12.9 -51.05 8.3 -55.65 -3.9 -57.95 -9.9 -59.05 -12.85 -53.15 -18.2 -38.85 -16.5 -38.8 -16.45 -8.4 -16.45 -7.1 -13.3 M-46.5 -5.5 Q-47.1 -4.75 -47.1 -3.75 -47.1 -2.6 -46.3 -1.8 -45.5 -1.0 -44.35 -1.0 -43.2 -1.0 -42.4 -1.8 L-41.9 -2.4 -41.6 -3.5 -41.6 -3.75 Q-41.6 -4.9 -42.4 -5.7 -43.2 -6.5 -44.35 -6.5 -45.5 -6.5 -46.3 -5.7 L-46.5 -5.5 -50.45 -9.9 -57.95 -9.9 -50.45 -9.9 -46.5 -5.5 M-30.15 -0.05 L-30.15 7.7 -30.15 13.65 -26.85 13.65 -26.85 -0.05 -30.15 -0.05 M-32.6 -11.1 L-30.15 -5.15 -10.5 -5.15 -12.95 -11.1 -32.6 -11.1 M-18.8 -0.05 L-22.1 -0.05 -22.1 13.65 -18.8 13.65 -18.8 -0.05 M-10.5 -0.05 L-13.8 -0.05 -13.8 13.65 -10.5 13.65 -10.5 -0.05 M-30.15 7.7 L-37.35 7.7 -37.35 2.25 -41.9 -2.4 -37.35 2.25 -37.35 7.7 -30.15 7.7" fill="url(#gradient1)" fill-rule="evenodd" stroke="none"/>
    <path d="M-32.6 -11.1 L-12.95 -11.1 -10.5 -5.15 -30.15 -5.15 -32.6 -11.1" fill="url(#gradient2)" fill-rule="evenodd" stroke="none"/>
    <path d="M-7.1 -13.3 L2.95 -13.3 6.0 -9.55 17.6 -9.55 19.55 -13.3 30.7 -13.3 35.5 -9.15 64.55 -9.15 63.8 -6.85 62.85 -4.15 62.25 -2.5 56.85 -2.5 40.25 -2.5 34.8 -2.5 29.9 -2.5 27.5 -4.6 16.05 -4.6 10.6 -4.6 -3.45 -4.6 -7.1 -13.3" fill="url(#gradient3)" fill-rule="evenodd" stroke="none"/>
    <path d="M63.3 8.45 L59.6 18.2 0.3 18.2 -0.15 15.25 7.0 15.25 5.45 10.45 -0.95 10.45 -1.95 4.55 14.2 4.55 19.65 4.55 37.6 4.55 43.0 4.55 58.0 4.55 58.8 2.4 64.2 2.4 64.2 6.05 63.3 8.45 M47.15 15.3 L56.15 15.3 57.55 10.45 45.6 10.45 47.15 15.3 M30.2 10.45 L28.8 15.25 40.75 15.25 39.2 10.45 30.2 10.45 M23.8 10.45 L11.85 10.45 13.4 15.25 22.4 15.25 23.8 10.45" fill="url(#gradient4)" fill-rule="evenodd" stroke="none"/>
    <path d="M0.3 18.2 L-1.95 22.7 -12.95 22.7 -14.1 20.95 -16.1 17.75 -33.3 17.75 -38.8 12.9 -41.6 12.9 -49.3 12.9 -51.05 8.3 M-59.45 8.3 L-60.75 12.0 -64.75 12.9 -68.45 11.45 -70.9 5.0 -73.55 3.4 -74.2 0.3 -77.15 -3.5 -76.1 -8.85 -77.95 -13.75 -75.85 -16.5 -69.65 -16.5 -67.45 -12.85 M-59.05 -12.85 L-53.15 -18.2 -38.85 -16.5 -38.8 -16.45 -8.4 -16.45 -7.1 -13.3 M-32.6 -11.1 L-12.95 -11.1 -10.5 -5.15 -30.15 -5.15 -32.6 -11.1 M-76.1 -8.85 L-70.9 5.0" fill="none" stroke="#1e1e1e" stroke-linecap="round" stroke-linejoin="round" stroke-width="2.0"/>
    <path d="M-30.15 -0.05 L-30.15 7.7 -30.15 13.65 -26.85 13.65 -26.85 -0.05 -30.15 -0.05 M-10.5 -0.05 L-10.5 13.65 -13.8 13.65 -13.8 -0.05 -10.5 -0.05 M-18.8 -0.05 L-18.8 13.65 -22.1 13.65 -22.1 -0.05 -18.8 -0.05" fill="none" stroke="#333333" stroke-linecap="round" stroke-linejoin="round" stroke-width="2.0"/>
    <path d="M63.8 -6.85 L64.55 -9.15 35.5 -9.15 30.7 -13.3 19.55 -13.3 17.6 -9.55 6.0 -9.55 2.95 -13.3 -7.1 -13.3 M-3.45 -4.6 L10.6 -4.6 16.05 -4.6 27.5 -4.6 29.9 -2.5 34.8 -2.5 40.25 -2.5 56.85 -2.5 62.25 -2.5 62.85 -4.15 63.8 -6.85 M63.3 8.45 L59.6 18.2 0.3 18.2 M-51.05 8.3 L-59.45 8.3 M-67.45 -12.85 L-59.05 -12.85 M64.2 2.4 L64.2 6.05 63.3 8.45 M43.0 4.55 L58.0 4.55 58.8 2.4 64.2 2.4 M47.15 15.3 L56.15 15.3 57.55 10.45 45.6 10.45 47.15 15.3 M30.2 10.45 L28.8 15.25 40.75 15.25 39.2 10.45 30.2 10.45 M23.8 10.45 L11.85 10.45 13.4 15.25 22.4 15.25 23.8 10.45 M19.65 4.55 L14.2 4.55 -1.95 4.55 M-0.95 10.45 L5.45 10.45 7.0 15.25 -0.15 15.25 M19.65 4.55 L37.6 4.55 43.0 4.55 M-64.1 -3.9 L-55.65 -3.9 M-46.5 -5.5 L-50.45 -9.9 -57.95 -9.9 M-41.9 -2.4 L-37.35 2.25 -37.35 7.7 -30.15 7.7" fill="none" stroke="#262626" stroke-linecap="round" stroke-linejoin="round" stroke-width="2.0"/>
    <path d="M69.05 -7.2 L69.3 -8.25 74.1 -8.25 73.9 -7.2 73.25 -4.15 75.55 -4.15 76.2 -7.2 76.4 -8.25 79.1 -8.25 78.8 -7.2 78.2 -4.15 80.5 -4.15 81.1 -7.2 81.4 -8.25 88.0 -8.25 88.0 -4.25 86.25 -2.45 82.4 1.45 77.05 1.45 74.7 6.7 73.9 8.45 63.3 8.45 M62.85 -4.15 L68.4 -4.15 69.05 -7.2 M58.8 2.4 L56.85 -2.5 M64.2 2.4 L62.25 -2.5 M37.6 4.55 L34.8 -2.5 M43.0 4.55 L40.25 -2.5 M16.05 -4.6 L19.65 4.55 M14.2 4.55 L10.6 -4.6" fill="none" stroke="#2f2f2f" stroke-linecap="round" stroke-linejoin="round" stroke-width="2.0"/>
    <path d="M86.25 -2.45 L86.4 -2.4" fill="none" stroke="#444444" stroke-linecap="round" stroke-linejoin="round" stroke-width="2.0"/>
    <path d="M86.4 -2.4 L85.3 6.7 74.7 6.7" fill="none" stroke="#3c3c3c" stroke-linecap="round" stroke-linejoin="round" stroke-width="2.0"/>
    <path d="M-72.85 -7.2 L-69.5 1.75 -65.05 1.75 -68.45 -7.2 -72.85 -7.2" fill="none" stroke="#017e7e" stroke-linecap="round" stroke-linejoin="round" stroke-width="2.0"/>
    <path d="M-46.5 -5.5 Q-47.1 -4.75 -47.1 -3.75 -47.1 -2.6 -46.3 -1.8 -45.5 -1.0 -44.35 -1.0 -43.2 -1.0 -42.4 -1.8 L-41.9 -2.4 -41.6 -3.5 -41.6 -3.75 Q-41.6 -4.9 -42.4 -5.7 -43.2 -6.5 -44.35 -6.5 -45.5 -6.5 -46.3 -5.7 L-46.5 -5.5" fill="none" stroke="#025c01" stroke-linecap="round" stroke-linejoin="round" stroke-width="2.0"/>
    <path d="M-14.1 20.95 L-37.2 20.95 -39.6 19.35 -41.6 12.9" fill="none" stroke="#432101" stroke-linecap="round" stroke-linejoin="round" stroke-width="2.0"/>
    <path d="M-0.95 10.45 L-0.15 15.25 M-3.45 -4.6 L-1.95 4.55" fill="none" stroke="#2c2c2c" stroke-linecap="round" stroke-linejoin="round" stroke-width="2.0"/>
    <path d="M-7.1 -13.3 L-3.45 -4.6 M-1.95 4.55 L-0.95 10.45 M-0.15 15.25 L0.3 18.2" fill="none" stroke="#353535" stroke-linecap="round" stroke-linejoin="round" stroke-width="2.0"/>
    <path d="M-67.45 -12.85 L-64.1 -3.9 -59.45 8.3 M-55.65 -3.9 L-57.95 -9.9 -59.05 -12.85 M-51.05 8.3 L-55.65 -3.9" fill="none" stroke="#2a2a2a" stroke-linecap="round" stroke-linejoin="round" stroke-width="2.0"/>
  </g>
  <defs>
    <linearGradient gradientTransform="matrix(0.0087, -0.015, 0.0155, 0.009, -67.9, -1.55)" gradientUnits="userSpaceOnUse" id="gradient0" spreadMethod="pad" x1="-819.2" x2="819.2">
      <stop offset="0.0" stop-color="#3d3d3d"/>
      <stop offset="1.0" stop-color="#5f5f5f"/>
    </linearGradient>
    <radialGradient cx="0" cy="0" gradientTransform="matrix(-0.095, 0.0, 0.0, -0.0584, -28.95, -18.7)" gradientUnits="userSpaceOnUse" id="gradient1" r="819.2" spreadMethod="pad">
      <stop offset="0.08235294117647059" stop-color="#606060"/>
      <stop offset="0.21568627450980393" stop-color="#595959"/>
      <stop offset="0.4235294117647059" stop-color="#414141"/>
      <stop offset="0.5372549019607843" stop-color="#3c3c3c"/>
      <stop offset="0.7294117647058823" stop-color="#4e4e4e"/>
    </radialGradient>
    <linearGradient gradientTransform="matrix(0.0, 0.0025, -0.0036, 0.0, -21.55, -8.1)" gradientUnits="userSpaceOnUse" id="gradient2" spreadMethod="pad" x1="-819.2" x2="819.2">
      <stop offset="0.0" stop-color="#404040"/>
      <stop offset="1.0" stop-color="#4e4e4e"/>
    </linearGradient>
    <linearGradient gradientTransform="matrix(0.0, 0.0105, -0.0066, 0.0, 28.5, -6.35)" gradientUnits="userSpaceOnUse" id="gradient3" spreadMethod="pad" x1="-819.2" x2="819.2">
      <stop offset="0.12941176470588237" stop-color="#464646"/>
      <stop offset="0.30196078431372547" stop-color="#5d5d5d"/>
      <stop offset="0.49411764705882355" stop-color="#5f5f5f"/>
      <stop offset="0.7176470588235294" stop-color="#3f3f3f"/>
    </linearGradient>
    <linearGradient gradientTransform="matrix(0.0, 0.0114, -0.0096, 0.0, 34.9, 8.45)" gradientUnits="userSpaceOnUse" id="gradient4" spreadMethod="pad" x1="-819.2" x2="819.2">
      <stop offset="0.10196078431372549" stop-color="#393939"/>
      <stop offset="0.5019607843137255" stop-color="#5f5f5f"/>
      <stop offset="0.7137254901960784" stop-color="#5c5c5c"/>
      <stop offset="1.0" stop-color="#464646"/>
    </linearGradient>
  </defs>
</svg>
