<?xml version="1.0" encoding="UTF-8" standalone="no"?>
<svg xmlns:xlink="http://www.w3.org/1999/xlink" height="35.0px" width="132.65px" xmlns="http://www.w3.org/2000/svg">
  <g transform="matrix(1.0, 0.0, 0.0, 1.0, 76.35, 17.45)">
    <path d="M11.9 -12.55 Q19.5 -17.45 30.3 -17.45 41.05 -17.45 48.7 -12.55 56.3 -7.65 56.3 -0.7 56.3 6.25 48.7 11.15 41.05 16.05 30.3 16.05 19.5 16.05 11.9 11.15 4.25 6.25 4.25 -0.7 4.25 -7.65 11.9 -12.55" fill="url(#gradient0)" fill-rule="evenodd" stroke="none"/>
    <path d="M-48.85 -15.95 Q-37.5 -15.95 -29.4 -11.05 -21.4 -6.15 -21.4 0.8 -21.4 7.75 -29.4 12.65 -37.5 17.55 -48.85 17.55 -60.25 17.55 -68.25 12.65 -76.35 7.75 -76.35 0.8 -76.35 -6.15 -68.25 -11.05 -60.25 -15.95 -48.85 -15.95" fill="url(#gradient1)" fill-rule="evenodd" stroke="none"/>
  </g>
  <defs>
    <radialGradient cx="0" cy="0" gradientTransform="matrix(0.0328, 0.0, 0.0, 0.0211, 30.3, -0.7)" gradientUnits="userSpaceOnUse" id="gradient0" r="819.2" spreadMethod="pad">
      <stop offset="0.44313725490196076" stop-color="#ffffff"/>
      <stop offset="1.0" stop-color="#fef195" stop-opacity="0.0"/>
    </radialGradient>
    <radialGradient cx="0" cy="0" gradientTransform="matrix(0.0346, 0.0, 0.0, 0.0211, -48.85, 0.8)" gradientUnits="userSpaceOnUse" id="gradient1" r="819.2" spreadMethod="pad">
      <stop offset="0.2235294117647059" stop-color="#ffffff" stop-opacity="0.8"/>
      <stop offset="1.0" stop-color="#fee199" stop-opacity="0.0"/>
    </radialGradient>
  </defs>
</svg>
