<?xml version="1.0" encoding="UTF-8" standalone="no"?>
<svg xmlns:ffdec="https://www.free-decompiler.com/flash" xmlns:xlink="http://www.w3.org/1999/xlink" ffdec:objectType="shape" height="10.9px" width="15.25px" xmlns="http://www.w3.org/2000/svg">
  <g transform="matrix(1.0, 0.0, 0.0, 1.0, 5.15, 1.8)">
    <path d="M-4.7 3.75 L-4.35 2.2 -3.75 2.4 -2.8 3.2 Q-2.3 3.8 -1.75 4.9 L-1.3 5.7 Q-1.2 5.45 -1.6 4.8 L-2.5 3.15 -3.25 2.6 Q-3.95 2.25 -4.0 1.95 -2.2 -0.7 0.1 -1.2 2.2 -1.7 4.0 -0.2 L7.05 2.65 7.95 3.95 Q8.3 4.9 7.65 5.1 L-3.85 6.05 Q-4.65 4.75 -4.7 3.75" fill="#2f3030" fill-rule="evenodd" stroke="none"/>
    <path d="M-4.7 3.75 L-4.35 2.2 -3.75 2.4 -2.8 3.2 Q-2.3 3.8 -1.75 4.9 L-1.3 5.7 Q-1.2 5.45 -1.6 4.8 L-2.5 3.15 -3.25 2.6 Q-3.95 2.25 -4.0 1.95 -2.2 -0.7 0.1 -1.2 2.2 -1.7 4.0 -0.2 L7.05 2.65 7.95 3.95 Q8.3 4.9 7.65 5.1 L-3.85 6.05 Q-4.65 4.75 -4.7 3.75 Z" fill="none" stroke="#212121" stroke-linecap="butt" stroke-linejoin="miter-clip" stroke-miterlimit="11.33984375" stroke-width="0.9500000000000001"/>
    <path d="M-2.8 6.25 L-2.1 3.9 -0.15 3.9 -1.0 5.95 0.2 3.5 3.35 3.4 Q4.65 3.35 5.55 2.3 L6.2 1.2 6.55 1.25 7.45 1.55 Q8.15 2.0 8.65 3.1 L7.95 3.35 Q7.55 3.5 6.75 4.8 L6.0 6.05 -2.8 6.25" fill="url(#gradient0)" fill-rule="evenodd" stroke="none"/>
    <path d="M-2.8 6.25 L6.0 6.05 6.75 4.8 Q7.55 3.5 7.95 3.35 L8.65 3.1 Q8.15 2.0 7.45 1.55 L6.55 1.25 6.2 1.2 5.55 2.3 Q4.65 3.35 3.35 3.4 L0.2 3.5 -1.0 5.95 -0.15 3.9 -2.1 3.9 -2.8 6.25 Z" fill="none" stroke="#553f1e" stroke-linecap="round" stroke-linejoin="round" stroke-width="0.9500000000000001"/>
    <path d="M8.8 3.1 L9.6 5.95 6.1 6.05 Q6.55 4.85 7.1 4.15 L8.1 3.4 8.8 3.1" fill="#898c93" fill-rule="evenodd" stroke="none"/>
    <path d="M8.8 3.1 L9.6 5.95 6.1 6.05 Q6.55 4.85 7.1 4.15 L8.1 3.4 8.8 3.1 Z" fill="none" stroke="#383838" stroke-linecap="round" stroke-linejoin="round" stroke-width="0.9500000000000001"/>
    <path d="M-2.55 5.4 L-2.65 6.1 9.6 5.85 Q8.8 2.65 7.9 1.85 7.35 1.35 6.65 1.25 L6.1 1.2" fill="none" stroke="#010100" stroke-linecap="round" stroke-linejoin="round" stroke-opacity="0.1882353" stroke-width="0.9500000000000001"/>
  </g>
  <defs>
    <radialGradient cx="0" cy="0" gradientTransform="matrix(0.0179, -1.0E-4, 0.0, 0.015, -8.1, 8.6)" gradientUnits="userSpaceOnUse" id="gradient0" r="819.2" spreadMethod="pad">
      <stop offset="0.0" stop-color="#7c3b18"/>
      <stop offset="1.0" stop-color="#ccaa22"/>
    </radialGradient>
  </defs>
</svg>
