<?xml version="1.0" encoding="UTF-8" standalone="no"?>
<svg xmlns:xlink="http://www.w3.org/1999/xlink" height="20.35px" width="22.1px" xmlns="http://www.w3.org/2000/svg">
  <g transform="matrix(1.0, 0.0, 0.0, 1.0, 8.35, 18.0)">
    <path d="M2.25 -3.7 L1.55 -2.5" fill="none" stroke="#c2beff" stroke-linecap="round" stroke-linejoin="round" stroke-width="1.0"/>
    <path d="M4.75 -2.95 L4.05 -1.7" fill="none" stroke="#c2beff" stroke-linecap="round" stroke-linejoin="round" stroke-width="1.0"/>
    <path d="M2.35 -9.0 L-2.3 -8.15 -2.25 -6.6 3.0 -7.45" fill="none" stroke="#151108" stroke-linecap="butt" stroke-linejoin="miter-clip" stroke-miterlimit="4.0" stroke-opacity="0.61960787" stroke-width="1.0"/>
    <path d="M9.35 -8.4 L9.85 -6.0 Q8.6 -5.75 8.25 -4.8 L6.9 -4.6 5.95 -4.75 3.35 -6.25 Q3.85 -8.2 2.75 -9.4 L1.6 -10.5 1.7 -10.65 1.85 -10.6 3.8 -11.75 4.7 -12.5 5.1 -12.25 6.0 -11.95 7.7 -12.05 9.35 -8.4 Z" fill="none" stroke="#ad1ae0" stroke-linecap="butt" stroke-linejoin="miter-clip" stroke-miterlimit="4.0" stroke-opacity="0.33333334" stroke-width="1.0"/>
    <path d="M6.3 1.85 L6.9 1.6 7.8 0.85 Q8.3 0.15 7.8 -0.55 L9.45 -0.7 9.45 0.3 10.45 0.35 11.95 -1.8 12.5 -3.4 Q11.95 -6.0 11.5 -6.0 L10.25 -5.9 9.6 -9.25 8.15 -12.4 9.45 -12.05 11.15 -11.4 11.65 -11.05 Q11.0 -13.25 9.8 -14.25 9.1 -14.85 7.8 -15.25 L6.75 -15.5 4.4 -16.75 0.8 -17.5 -1.6 -17.05 -3.65 -16.1 -4.85 -14.95 -7.0 -15.8 -6.55 -13.4 -7.85 -13.6 -7.45 -11.8 -7.85 -11.05 -7.7 -7.7 -5.95 -5.2 -3.4 -2.3 -2.15 -1.15 -2.35 1.0" fill="none" stroke="#000000" stroke-linecap="round" stroke-linejoin="round" stroke-opacity="0.5176471" stroke-width="1.0"/>
    <path d="M13.2 -11.0 L13.75 -5.6 11.05 -6.2 10.1 -6.15 9.3 -6.3 Q9.45 -6.75 8.4 -9.2 L7.35 -11.35 9.1 -11.7 9.8 -11.5 11.1 -10.75 12.0 -10.2 12.75 -10.7 Q13.0 -11.05 13.2 -11.0" fill="url(#gradient0)" fill-rule="evenodd" stroke="none"/>
  </g>
  <defs>
    <linearGradient gradientTransform="matrix(0.0033, 0.0, 0.0, 0.0033, 10.45, -8.6)" gradientUnits="userSpaceOnUse" id="gradient0" spreadMethod="pad" x1="-819.2" x2="819.2">
      <stop offset="0.0" stop-color="#e9c3f2"/>
      <stop offset="1.0" stop-color="#d5b2dd" stop-opacity="0.043137256"/>
    </linearGradient>
  </defs>
</svg>
