<?xml version="1.0" encoding="UTF-8" standalone="no"?>
<svg xmlns:xlink="http://www.w3.org/1999/xlink" height="150.0px" width="542.9px" xmlns="http://www.w3.org/2000/svg">
  <g transform="matrix(1.0, 0.0, 0.0, 1.0, 239.65, 320.1)">
    <path d="M-164.65 -320.1 Q-133.6 -320.1 -111.65 -298.15 -89.65 -276.15 -89.65 -245.1 -89.65 -214.05 -111.65 -192.1 -133.6 -170.1 -164.65 -170.1 -195.7 -170.1 -217.7 -192.1 -239.65 -214.05 -239.65 -245.1 -239.65 -276.15 -217.7 -298.15 -195.7 -320.1 -164.65 -320.1" fill="url(#gradient0)" fill-rule="evenodd" stroke="none"/>
    <path d="M2.3 -245.1 Q2.3 -238.5 -2.35 -233.8 -7.05 -229.1 -13.7 -229.1 -20.3 -229.1 -25.0 -233.8 -29.7 -238.5 -29.7 -245.1 -29.7 -251.7 -25.0 -256.4 -20.3 -261.1 -13.7 -261.1 -7.05 -261.1 -2.35 -256.4 2.3 -251.7 2.3 -245.1" fill="url(#gradient1)" fill-rule="evenodd" stroke="none"/>
    <path d="M303.25 -245.1 Q303.25 -241.4 300.65 -238.75 298.0 -236.1 294.25 -236.1 290.55 -236.1 287.9 -238.75 285.25 -241.4 285.25 -245.1 285.25 -248.8 287.9 -251.45 290.55 -254.1 294.25 -254.1 298.0 -254.1 300.65 -251.45 303.25 -248.8 303.25 -245.1" fill="url(#gradient2)" fill-rule="evenodd" stroke="none"/>
    <path d="M170.3 -245.1 Q170.3 -242.6 168.55 -240.85 166.8 -239.1 164.3 -239.1 161.85 -239.1 160.05 -240.85 158.3 -242.6 158.3 -245.1 158.3 -247.55 160.05 -249.35 161.85 -251.1 164.3 -251.1 166.8 -251.1 168.55 -249.35 170.3 -247.55 170.3 -245.1" fill="url(#gradient3)" fill-rule="evenodd" stroke="none"/>
    <path d="M98.3 -245.1 Q98.3 -229.0 86.95 -217.55 75.5 -206.1 59.3 -206.1 43.2 -206.1 31.75 -217.55 20.3 -229.0 20.3 -245.1 20.3 -261.2 31.75 -272.65 43.2 -284.1 59.3 -284.1 75.5 -284.1 86.95 -272.65 98.3 -261.2 98.3 -245.1" fill="url(#gradient4)" fill-rule="evenodd" stroke="none"/>
  </g>
  <defs>
    <radialGradient cx="0" cy="0" gradientTransform="matrix(0.0922, 0.0, 0.0, 0.0922, -164.65, -245.1)" gradientUnits="userSpaceOnUse" id="gradient0" r="819.2" spreadMethod="pad">
      <stop offset="0.0" stop-color="#bbebff"/>
      <stop offset="0.13333333333333333" stop-color="#77d7ff" stop-opacity="0.7529412"/>
      <stop offset="0.3607843137254902" stop-color="#33aeff" stop-opacity="0.5019608"/>
      <stop offset="0.5725490196078431" stop-color="#2b95ff" stop-opacity="0.2509804"/>
      <stop offset="0.8941176470588236" stop-color="#2d2dfd" stop-opacity="0.0"/>
      <stop offset="0.9294117647058824" stop-color="#d20202" stop-opacity="0.0"/>
      <stop offset="0.9568627450980393" stop-color="#fe6767" stop-opacity="0.050980393"/>
      <stop offset="1.0" stop-color="#ff0000" stop-opacity="0.0"/>
    </radialGradient>
    <radialGradient cx="0" cy="0" gradientTransform="matrix(0.0197, 0.0, 0.0, 0.0197, -13.7, -245.1)" gradientUnits="userSpaceOnUse" id="gradient1" r="819.2" spreadMethod="pad">
      <stop offset="0.0" stop-color="#fefe67" stop-opacity="0.16078432"/>
      <stop offset="0.32941176470588235" stop-color="#ebe340" stop-opacity="0.03137255"/>
      <stop offset="1.0" stop-color="#ccb700" stop-opacity="0.0"/>
    </radialGradient>
    <radialGradient cx="0" cy="0" gradientTransform="matrix(0.0111, 0.0, 0.0, 0.0111, 294.25, -245.1)" gradientUnits="userSpaceOnUse" id="gradient2" r="819.2" spreadMethod="pad">
      <stop offset="0.0" stop-color="#fefe67" stop-opacity="0.16078432"/>
      <stop offset="0.32941176470588235" stop-color="#ebe340" stop-opacity="0.03137255"/>
      <stop offset="1.0" stop-color="#ccb700" stop-opacity="0.0"/>
    </radialGradient>
    <radialGradient cx="0" cy="0" gradientTransform="matrix(0.0074, 0.0, 0.0, 0.0074, 164.3, -245.1)" gradientUnits="userSpaceOnUse" id="gradient3" r="819.2" spreadMethod="pad">
      <stop offset="0.0" stop-color="#67ccfe" stop-opacity="0.050980393"/>
      <stop offset="1.0" stop-color="#66ccff" stop-opacity="0.101960786"/>
    </radialGradient>
    <radialGradient cx="0" cy="0" gradientTransform="matrix(0.0479, 0.0, 0.0, 0.0479, 59.3, -245.1)" gradientUnits="userSpaceOnUse" id="gradient4" r="819.2" spreadMethod="pad">
      <stop offset="0.0" stop-color="#119f9a" stop-opacity="0.011764706"/>
      <stop offset="0.9294117647058824" stop-color="#2efcfb" stop-opacity="0.023529412"/>
      <stop offset="1.0" stop-color="#009999" stop-opacity="0.0"/>
    </radialGradient>
  </defs>
</svg>
