<?xml version="1.0" encoding="UTF-8" standalone="no"?>
<svg xmlns:xlink="http://www.w3.org/1999/xlink" height="23.0px" width="82.7px" xmlns="http://www.w3.org/2000/svg">
  <g transform="matrix(1.0, 0.0, 0.0, 1.0, 26.55, 8.0)">
    <path d="M17.75 2.7 L18.3 4.85 18.7 6.85 19.65 11.3 14.4 14.5 13.05 12.4 15.35 10.35 13.05 5.75 12.05 4.9 12.85 2.7 17.75 2.7 M-1.75 11.75 L-2.55 13.3 -4.5 13.3 -6.15 13.3 -8.15 13.3 -8.15 10.55 -11.1 9.3 -10.8 6.75 -11.85 4.9 -11.65 1.75 -10.85 1.75 Q-7.9 1.55 -6.15 -1.3 L-5.2 0.35 -4.1 0.15 -0.65 4.65 -2.9 10.25 -1.75 11.75 M16.0 6.3 L18.3 4.85 16.0 6.3 M18.7 6.85 L16.7 8.05 18.7 6.85 M-3.85 5.9 Q-3.85 4.9 -4.55 4.15 -5.25 3.5 -6.25 3.5 -7.2 3.5 -7.95 4.15 -8.65 4.9 -8.65 5.9 -8.65 6.85 -7.95 7.55 -7.2 8.3 -6.25 8.3 -5.25 8.3 -4.55 7.55 -3.85 6.85 -3.85 5.9 M-6.15 11.7 L-6.15 13.3 -6.15 11.7 M-4.5 11.7 L-4.5 13.3 -4.5 11.7" fill="#4c4c4c" fill-rule="evenodd" stroke="none"/>
    <path d="M-6.15 -1.3 L-6.5 -1.95 -4.75 -3.5 0.15 -2.85 -1.55 -0.3 -4.1 0.15 -5.2 0.35 -6.15 -1.3" fill="#605746" fill-rule="evenodd" stroke="none"/>
    <path d="M4.7 -0.15 Q4.35 0.15 4.35 0.65 L4.35 1.3 Q4.35 1.75 4.7 2.1 5.05 2.45 5.5 2.45 L9.7 2.45 10.5 2.1 10.85 1.3 10.85 0.65 Q10.85 0.15 10.5 -0.15 L9.7 -0.5 5.5 -0.5 Q5.05 -0.5 4.7 -0.15 M0.15 -2.85 L9.45 -2.85 20.5 -2.85 42.05 -2.85 41.5 0.55 40.95 3.45 40.7 4.9 30.75 4.9 30.1 4.4 30.0 3.1 29.4 2.7 17.75 2.7 12.85 2.7 12.05 4.9 11.35 6.7 9.3 6.7 4.7 6.7 4.5 6.7 3.55 4.85 0.05 4.85 -0.45 4.85 -0.65 4.65 -4.1 0.15 -1.55 -0.3 0.15 -2.85 M33.35 -0.5 Q32.9 -0.5 32.55 -0.15 32.2 0.15 32.2 0.65 L32.2 1.3 Q32.2 1.75 32.55 2.1 32.9 2.45 33.35 2.45 L37.6 2.45 Q38.05 2.45 38.4 2.1 L38.75 1.3 38.75 0.65 Q38.75 0.15 38.4 -0.15 38.05 -0.5 37.6 -0.5 L33.35 -0.5 M-15.15 9.3 Q-15.25 10.5 -15.95 11.55 L-25.1 11.55 -25.1 8.95 -23.5 7.75 -23.5 0.9 -20.45 0.9 -19.2 -0.1 -17.05 -0.1 -15.5 1.75 -11.65 1.75 -11.85 4.9 -15.15 4.9 -15.15 9.3 M26.75 -0.85 L14.45 -0.85 26.75 -0.85 M-17.85 4.9 L-17.85 4.8 Q-17.85 4.35 -18.15 4.0 -18.5 3.65 -18.95 3.65 L-19.55 3.65 Q-20.0 3.65 -20.35 4.0 -20.7 4.35 -20.7 4.8 L-20.7 8.25 -20.35 9.05 -19.55 9.35 -18.95 9.35 Q-18.5 9.35 -18.15 9.05 -17.85 8.7 -17.85 8.25 L-17.85 4.9 -15.15 4.9 -17.85 4.9" fill="#6b695c" fill-rule="evenodd" stroke="none"/>
    <path d="M-25.1 8.95 L-26.05 7.6 -26.05 0.9 -23.5 0.9 -23.5 7.75 -25.1 8.95" fill="#615642" fill-rule="evenodd" stroke="none"/>
    <path d="M-11.1 9.3 L-15.15 9.3 -15.15 4.9 -11.85 4.9 -10.8 6.75 -11.1 9.3" fill="#59574b" fill-rule="evenodd" stroke="none"/>
    <path d="M13.05 12.4 L9.3 6.7 11.35 6.7 12.05 4.9 13.05 5.75 15.35 10.35 13.05 12.4" fill="#3f3f3f" fill-rule="evenodd" stroke="none"/>
    <path d="M44.55 3.45 L41.9 3.45 40.95 3.45 41.5 0.55 44.55 0.55 44.55 1.5 44.55 3.45" fill="#4b4c50" fill-rule="evenodd" stroke="none"/>
    <path d="M48.6 -4.65 L52.85 -4.65 53.65 -2.75 53.65 2.1 52.7 4.35 46.2 4.35 44.55 3.45 44.55 1.5 44.55 0.55 50.0 0.55 48.6 -4.65" fill="#686a5c" fill-rule="evenodd" stroke="none"/>
    <path d="M53.65 -2.75 L54.45 -2.75 55.65 -2.75 55.65 2.1 54.45 2.1 53.65 2.1 53.65 -2.75" fill="#4b4b4b" fill-rule="evenodd" stroke="none"/>
    <path d="M20.5 -5.3 L20.5 -7.5 27.55 -7.5 28.55 -5.95 34.2 -5.95 36.1 -5.95 38.15 -5.95 48.2 -5.95 48.6 -4.65 50.0 0.55 44.55 0.55 41.5 0.55 42.05 -2.85 20.5 -2.85 20.5 -5.3 M25.85 -5.7 L22.75 -5.7 22.75 -4.5 22.75 -5.7 25.85 -5.7 M47.25 -0.9 L43.65 -0.9 43.65 -2.5 43.65 -0.9 47.25 -0.9" fill="#605845" fill-rule="evenodd" stroke="none"/>
    <path d="M4.7 -0.15 Q5.05 -0.5 5.5 -0.5 L9.7 -0.5 10.5 -0.15 Q10.85 0.15 10.85 0.65 L10.85 1.3 10.5 2.1 9.7 2.45 5.5 2.45 Q5.05 2.45 4.7 2.1 4.35 1.75 4.35 1.3 L4.35 0.65 Q4.35 0.15 4.7 -0.15 M33.35 -0.5 L37.6 -0.5 Q38.05 -0.5 38.4 -0.15 38.75 0.15 38.75 0.65 L38.75 1.3 38.4 2.1 Q38.05 2.45 37.6 2.45 L33.35 2.45 Q32.9 2.45 32.55 2.1 32.2 1.75 32.2 1.3 L32.2 0.65 Q32.2 0.15 32.55 -0.15 32.9 -0.5 33.35 -0.5 M37.4 1.1 L37.4 0.85 37.2 0.5 36.75 0.4 34.35 0.4 33.8 0.5 33.65 0.85 33.65 1.1 33.8 1.45 34.35 1.55 36.75 1.55 37.2 1.45 37.4 1.1 M9.3 1.45 L9.55 1.1 9.55 0.85 9.3 0.5 8.85 0.4 6.45 0.4 5.95 0.5 5.75 0.85 5.75 1.1 5.95 1.45 6.45 1.55 8.85 1.55 9.3 1.45" fill="#87b471" fill-rule="evenodd" stroke="none"/>
    <path d="M37.4 1.1 L37.2 1.45 36.75 1.55 34.35 1.55 33.8 1.45 33.65 1.1 33.65 0.85 33.8 0.5 34.35 0.4 36.75 0.4 37.2 0.5 37.4 0.85 37.4 1.1 M9.3 1.45 L8.85 1.55 6.45 1.55 5.95 1.45 5.75 1.1 5.75 0.85 5.95 0.5 6.45 0.4 8.85 0.4 9.3 0.5 9.55 0.85 9.55 1.1 9.3 1.45" fill="#9fc58a" fill-rule="evenodd" stroke="none"/>
    <path d="M4.7 -0.15 Q4.35 0.15 4.35 0.65 L4.35 1.3 Q4.35 1.75 4.7 2.1 5.05 2.45 5.5 2.45 L9.7 2.45 10.5 2.1 10.85 1.3 10.85 0.65 Q10.85 0.15 10.5 -0.15 L9.7 -0.5 5.5 -0.5 Q5.05 -0.5 4.7 -0.15 M33.35 -0.5 Q32.9 -0.5 32.55 -0.15 32.2 0.15 32.2 0.65 L32.2 1.3 Q32.2 1.75 32.55 2.1 32.9 2.45 33.35 2.45 L37.6 2.45 Q38.05 2.45 38.4 2.1 L38.75 1.3 38.75 0.65 Q38.75 0.15 38.4 -0.15 38.05 -0.5 37.6 -0.5 L33.35 -0.5" fill="none" stroke="#517e3b" stroke-linecap="round" stroke-linejoin="round" stroke-width="1.0"/>
    <path d="M0.15 -2.85 L9.45 -2.85 10.8 -5.3 20.5 -5.3 M34.2 -5.95 L34.2 -7.2 M38.15 -5.95 L38.15 -7.2 M36.1 -5.95 L36.1 -7.2 M48.6 -4.65 L52.85 -4.65 53.65 -2.75 53.65 2.1 52.7 4.35 46.2 4.35 44.55 3.45 M40.95 3.45 L40.7 4.9 30.75 4.9 30.1 4.4 30.0 3.1 29.4 2.7 17.75 2.7 M9.3 6.7 L4.7 6.7 4.5 6.7 3.55 4.85 0.05 4.85 -0.45 4.85 -0.65 4.65 -4.1 0.15 M-15.15 9.3 Q-15.25 10.5 -15.95 11.55 L-25.1 11.55 -25.1 8.95 -26.05 7.6 -26.05 0.9 -23.5 0.9 -20.45 0.9 -19.2 -0.1 -17.05 -0.1 -15.5 1.75 -11.65 1.75 -11.85 4.9 -15.15 4.9 -15.15 9.3 M9.45 -2.85 L20.5 -2.85 42.05 -2.85 41.5 0.55 40.95 3.45 M-17.85 4.9 L-17.85 4.8 Q-17.85 4.35 -18.15 4.0 -18.5 3.65 -18.95 3.65 L-19.55 3.65 Q-20.0 3.65 -20.35 4.0 -20.7 4.35 -20.7 4.8 L-20.7 8.25 -20.35 9.05 -19.55 9.35 -18.95 9.35 Q-18.5 9.35 -18.15 9.05 -17.85 8.7 -17.85 8.25 L-17.85 4.9 -15.15 4.9 M-23.5 0.9 L-23.5 7.75 -25.1 8.95" fill="none" stroke="#3f3d30" stroke-linecap="round" stroke-linejoin="round" stroke-width="1.0"/>
    <path d="M20.5 -5.3 L20.5 -7.5 27.55 -7.5 28.55 -5.95 34.2 -5.95 36.1 -5.95 38.15 -5.95 48.2 -5.95 48.6 -4.65 50.0 0.55 44.55 0.55 41.5 0.55 M20.5 -2.85 L20.5 -5.3 M22.75 -4.5 L22.75 -5.7 25.85 -5.7 M43.65 -2.5 L43.65 -0.9 47.25 -0.9" fill="none" stroke="#463d2c" stroke-linecap="round" stroke-linejoin="round" stroke-width="1.0"/>
    <path d="M14.45 -0.85 L26.75 -0.85" fill="none" stroke="#7f7c6d" stroke-linecap="round" stroke-linejoin="round" stroke-width="1.0"/>
    <path d="M54.45 -2.75 L55.65 -2.75 55.65 2.1 54.45 2.1" fill="none" stroke="#343434" stroke-linecap="round" stroke-linejoin="round" stroke-width="1.0"/>
    <path d="M44.55 3.45 L41.9 3.45 M4.7 6.7 L1.9 11.55 -1.75 11.75 -2.55 13.3 -4.5 13.3 -6.15 13.3 -8.15 13.3 -8.15 10.55 -11.1 9.3 M-11.65 1.75 L-10.85 1.75 Q-7.9 1.55 -6.15 -1.3 M44.55 1.5 L44.55 3.45 M-3.85 5.9 Q-3.85 6.85 -4.55 7.55 -5.25 8.3 -6.25 8.3 -7.2 8.3 -7.95 7.55 -8.65 6.85 -8.65 5.9 -8.65 4.9 -7.95 4.15 -7.2 3.5 -6.25 3.5 -5.25 3.5 -4.55 4.15 -3.85 4.9 -3.85 5.9 M-0.65 4.65 L-2.9 10.25 -1.75 11.75 M-4.5 13.3 L-4.5 11.7 M-6.15 13.3 L-6.15 11.7" fill="none" stroke="#333333" stroke-linecap="round" stroke-linejoin="round" stroke-width="1.0"/>
    <path d="M17.75 2.7 L18.3 4.85 18.7 6.85 19.65 11.3 14.4 14.5 13.05 12.4 9.3 6.7 M12.05 4.9 L13.05 5.75 15.35 10.35 13.05 12.4 M16.7 8.05 L18.7 6.85 M18.3 4.85 L16.0 6.3" fill="none" stroke="#323232" stroke-linecap="round" stroke-linejoin="round" stroke-width="1.0"/>
    <path d="M0.05 4.85 Q-0.3 7.45 0.7 7.7" fill="none" stroke="#353535" stroke-linecap="round" stroke-linejoin="round" stroke-width="1.0"/>
    <path d="M-11.1 9.3 L-15.15 9.3 M-11.85 4.9 L-10.8 6.75 -11.1 9.3" fill="none" stroke="#39362d" stroke-linecap="round" stroke-linejoin="round" stroke-width="1.0"/>
    <path d="M-6.15 -1.3 L-6.5 -1.95 -4.75 -3.5 0.15 -2.85 -1.55 -0.3 -4.1 0.15 -5.2 0.35 -6.15 -1.3" fill="none" stroke="#453e2e" stroke-linecap="round" stroke-linejoin="round" stroke-width="1.0"/>
    <path d="M17.75 2.7 L12.85 2.7 12.05 4.9 11.35 6.7 9.3 6.7" fill="none" stroke="#3b392d" stroke-linecap="round" stroke-linejoin="round" stroke-width="1.0"/>
  </g>
</svg>
