<?xml version="1.0" encoding="UTF-8" standalone="no"?>
<svg xmlns:xlink="http://www.w3.org/1999/xlink" height="50.85px" width="84.0px" xmlns="http://www.w3.org/2000/svg">
  <g transform="matrix(1.0, 0.0, 0.0, 1.0, 42.0, 25.4)">
    <path d="M12.65 -14.55 Q18.1 -14.55 21.95 -8.75 25.85 -2.8 25.85 5.45 25.85 13.7 21.95 19.55 18.1 25.45 12.65 25.45 7.2 25.45 3.3 19.55 -0.55 13.7 -0.55 5.45 -0.55 -2.8 3.3 -8.75 7.2 -14.55 12.65 -14.55" fill="url(#gradient0)" fill-rule="evenodd" stroke="none"/>
    <path d="M30.0 -8.75 Q33.9 -2.8 33.9 5.45 33.9 13.7 30.0 19.55 26.15 25.45 20.7 25.45 15.25 25.45 11.35 19.55 7.5 13.7 7.5 5.45 7.5 -2.8 11.35 -8.75 15.25 -14.55 20.7 -14.55 26.15 -14.55 30.0 -8.75" fill="url(#gradient1)" fill-rule="evenodd" stroke="none"/>
    <path d="M28.8 -14.55 Q34.25 -14.55 38.1 -8.7 42.0 -2.8 42.0 5.45 42.0 13.7 38.1 19.55 34.25 25.45 28.8 25.45 23.35 25.45 19.45 19.55 15.6 13.7 15.6 5.45 15.6 -2.8 19.45 -8.7 23.35 -14.55 28.8 -14.55" fill="url(#gradient2)" fill-rule="evenodd" stroke="none"/>
    <path d="M-40.7 -19.35 Q-38.2 -25.4 -32.75 -25.4 -27.3 -25.4 -22.05 -19.35 -16.7 -13.25 -14.65 -4.7 -12.65 3.85 -15.1 9.9 -17.5 16.0 -22.95 16.0 -28.4 16.0 -33.75 9.9 -39.05 3.85 -41.05 -4.7 -43.1 -13.25 -40.7 -19.35" fill="url(#gradient3)" fill-rule="evenodd" stroke="none"/>
    <path d="M9.45 -5.2 Q9.45 1.3 5.55 5.85 1.7 10.5 -3.75 10.5 -9.2 10.5 -13.1 5.85 -16.95 1.3 -16.95 -5.2 -16.95 -11.7 -13.1 -16.3 -9.2 -20.9 -3.75 -20.9 1.7 -20.9 5.55 -16.3 9.45 -11.7 9.45 -5.2" fill="url(#gradient4)" fill-rule="evenodd" stroke="none"/>
  </g>
  <defs>
    <radialGradient cx="0" cy="0" gradientTransform="matrix(0.0153, 0.0, 0.0, 0.0232, 12.65, 5.45)" gradientUnits="userSpaceOnUse" id="gradient0" r="819.2" spreadMethod="pad">
      <stop offset="0.0" stop-color="#00ffff" stop-opacity="0.14901961"/>
      <stop offset="1.0" stop-color="#00ffff" stop-opacity="0.0"/>
    </radialGradient>
    <radialGradient cx="0" cy="0" gradientTransform="matrix(0.0153, 0.0, 0.0, 0.0232, 20.7, 5.45)" gradientUnits="userSpaceOnUse" id="gradient1" r="819.2" spreadMethod="pad">
      <stop offset="0.0" stop-color="#00ffff" stop-opacity="0.14901961"/>
      <stop offset="1.0" stop-color="#00ffff" stop-opacity="0.0"/>
    </radialGradient>
    <radialGradient cx="0" cy="0" gradientTransform="matrix(0.0153, 0.0, 0.0, 0.0232, 28.8, 5.45)" gradientUnits="userSpaceOnUse" id="gradient2" r="819.2" spreadMethod="pad">
      <stop offset="0.0" stop-color="#00ffff" stop-opacity="0.14901961"/>
      <stop offset="1.0" stop-color="#00ffff" stop-opacity="0.0"/>
    </radialGradient>
    <radialGradient cx="0" cy="0" gradientTransform="matrix(0.0153, 0.0, 0.0057, 0.024, -27.85, -4.7)" gradientUnits="userSpaceOnUse" id="gradient3" r="819.2" spreadMethod="pad">
      <stop offset="0.0" stop-color="#00ffff" stop-opacity="0.14901961"/>
      <stop offset="1.0" stop-color="#00ffff" stop-opacity="0.0"/>
    </radialGradient>
    <radialGradient cx="0" cy="0" gradientTransform="matrix(0.0153, 0.0, 0.0, 0.0182, -3.75, -5.2)" gradientUnits="userSpaceOnUse" id="gradient4" r="819.2" spreadMethod="pad">
      <stop offset="0.0" stop-color="#00ff09" stop-opacity="0.14901961"/>
      <stop offset="1.0" stop-color="#00ff33" stop-opacity="0.0"/>
    </radialGradient>
  </defs>
</svg>
