<?xml version="1.0" encoding="UTF-8" standalone="no"?>
<svg xmlns:ffdec="https://www.free-decompiler.com/flash" xmlns:xlink="http://www.w3.org/1999/xlink" ffdec:objectType="shape" height="10.1px" width="13.45px" xmlns="http://www.w3.org/2000/svg">
  <g transform="matrix(1.0, 0.0, 0.0, 1.0, 0.5, 0.5)">
    <path d="M5.4 0.65 L5.65 0.45 Q5.2 0.6 6.1 0.1 7.05 -0.45 7.05 1.8 7.0 4.05 8.7 4.9 L10.2 5.75 10.3 5.85 10.95 6.3 12.0 7.7 12.3 8.5 12.45 9.1 10.35 9.1 10.2 8.95 6.45 5.8 5.25 4.45 4.95 4.0 4.4 2.25 4.35 1.5 4.4 2.25 4.95 4.0 4.65 3.55 4.45 3.25 4.3 2.9 4.3 2.55 4.4 2.25 4.35 2.2 4.35 2.15 4.35 2.2 4.4 2.25 4.3 2.55 4.35 2.25 4.3 2.15 4.35 2.15 4.35 2.1 4.35 1.5 4.3 1.95 4.35 1.5 4.35 2.1 4.3 1.95 4.2 1.7 4.3 1.5 4.35 1.5 5.4 0.65 M4.35 2.2 L4.35 2.25 4.35 2.2" fill="#211313" fill-rule="evenodd" stroke="none"/>
    <path d="M10.95 6.3 L11.2 6.5 Q11.9 7.05 12.0 7.7 L10.95 6.3 M5.25 4.45 L6.45 5.8 5.85 6.1 5.25 4.45 M4.3 2.9 L4.45 3.25 4.65 3.55 4.25 3.3 4.25 3.25 4.3 3.1 4.3 2.9" fill="#ffffff" fill-rule="evenodd" stroke="none"/>
    <path d="M10.2 8.95 L7.75 8.95 5.4 8.55 5.2 8.55 3.1 8.95 0.45 8.95 Q0.1 8.4 0.05 7.9 -0.1 6.8 0.1 5.65 1.15 4.4 1.8 5.75 2.4 7.0 3.35 7.25 L4.5 7.45 Q5.35 7.2 5.45 6.75 L5.85 6.1 6.45 5.8 10.2 8.95 M1.0 2.6 L1.1 2.15 Q1.25 1.55 1.85 1.15 L3.15 1.0 3.4 1.1 3.55 1.2 4.05 1.65 4.3 1.5 4.2 1.7 4.3 1.95 4.25 2.1 4.35 2.15 4.3 2.15 4.35 2.25 4.3 2.55 4.3 2.9 4.3 3.1 4.25 3.25 4.25 3.3 3.7 4.1 3.55 4.2 3.5 4.2 3.25 4.25 Q2.75 4.45 2.3 4.25 1.7 4.1 1.3 3.75 L1.25 3.6 1.15 3.55 1.05 3.25 1.0 2.6 M5.2 8.55 L4.5 7.45 5.2 8.55" fill="#141414" fill-rule="evenodd" stroke="none"/>
    <path d="M0.1 5.65 L1.0 2.6 1.05 3.25 1.15 3.55 1.25 3.6 1.3 3.75 Q1.7 4.1 2.3 4.25 2.75 4.45 3.25 4.25 L3.5 4.2 3.55 4.2 3.7 4.1 4.25 3.3 4.65 3.55 4.95 4.0 5.25 4.45 5.85 6.1 5.45 6.75 Q5.35 7.2 4.5 7.45 L3.35 7.25 Q2.4 7.0 1.8 5.75 1.15 4.4 0.1 5.65" fill="#3b2323" fill-rule="evenodd" stroke="none"/>
    <path d="M5.4 0.65 L5.65 0.45 Q5.2 0.6 6.1 0.1 7.05 -0.45 7.05 1.8 7.0 4.05 8.7 4.9 L10.2 5.75 10.3 5.85 10.95 6.3 11.2 6.5 Q11.9 7.05 12.0 7.7 L12.3 8.5 12.45 9.1 10.35 9.1 10.2 8.95 6.45 5.8 5.25 4.45 5.85 6.1 M0.1 5.65 L1.0 2.6 M4.05 1.65 L4.35 1.4 Q4.45 1.25 5.4 0.65 L4.35 1.5 4.4 2.25 4.95 4.0 5.25 4.45 M12.0 7.7 L10.95 6.3 M4.3 1.5 L4.35 1.5 4.35 1.4 4.3 1.5 M4.3 1.95 L4.35 1.5 4.35 2.1 4.35 2.15 4.35 2.2 4.4 2.25 4.3 2.55 M4.3 2.9 L4.45 3.25 4.65 3.55 4.95 4.0 M4.35 2.25 L4.35 2.2 M4.35 2.1 L4.3 1.95 M4.25 3.3 L4.65 3.55" fill="none" stroke="#0e0808" stroke-linecap="round" stroke-linejoin="round" stroke-width="1.0"/>
    <path d="M10.2 8.95 L7.75 8.95 5.4 8.55 5.2 8.55 3.1 8.95 0.45 8.95 Q0.1 8.4 0.05 7.9 -0.1 6.8 0.1 5.65 1.15 4.4 1.8 5.75 2.4 7.0 3.35 7.25 L4.5 7.45 5.2 8.55 M1.0 2.6 L1.1 2.15 Q1.25 1.55 1.85 1.15 L3.15 1.0 3.4 1.1 3.55 1.2 4.05 1.65 4.3 1.5 4.2 1.7 4.3 1.95 4.25 2.1 4.35 2.15 4.3 2.15 4.35 2.25 4.3 2.55 4.3 2.9 4.3 3.1 4.25 3.25 4.25 3.3 3.7 4.1 3.55 4.2 3.5 4.2 3.25 4.25 Q2.75 4.45 2.3 4.25 1.7 4.1 1.3 3.75 L1.25 3.6 1.15 3.55 1.05 3.25 1.0 2.6 M5.85 6.1 L6.45 5.8 M5.85 6.1 L5.45 6.75 Q5.35 7.2 4.5 7.45" fill="none" stroke="#0a0a0a" stroke-linecap="round" stroke-linejoin="round" stroke-width="1.0"/>
  </g>
</svg>
