<?xml version="1.0" encoding="UTF-8" standalone="no"?>
<svg xmlns:ffdec="https://www.free-decompiler.com/flash" xmlns:xlink="http://www.w3.org/1999/xlink" ffdec:objectType="shape" height="22.25px" width="21.95px" xmlns="http://www.w3.org/2000/svg">
  <g transform="matrix(1.0, 0.0, 0.0, 1.0, 9.15, 20.4)">
    <path d="M3.2 0.7 Q-0.8 1.95 -2.75 0.8 -4.7 -0.35 -5.9 -1.7 -1.75 -2.75 1.1 0.7 L3.2 0.7" fill="#1a1a1a" fill-rule="evenodd" stroke="none"/>
    <path d="M1.9 -2.75 L2.4 -1.4 4.1 -1.3 2.4 -1.4 1.9 -2.75 M4.95 -7.5 L1.9 -7.5 4.95 -7.5 M-5.3 -12.1 L6.8 -11.5 9.45 -6.7 Q10.25 -4.55 10.85 -1.5 L8.4 0.7 3.2 0.7 1.1 0.7 Q-1.75 -2.75 -5.9 -1.7 -10.05 -10.4 -7.55 -11.6 L-5.3 -12.1 -4.95 -9.65 -5.3 -12.1 M3.65 -9.8 L-2.15 -9.8 3.65 -9.8" fill="#f0c468" fill-rule="evenodd" stroke="none"/>
    <path d="M-5.3 -12.1 L6.8 -11.5 9.45 -6.7 Q10.25 -4.55 10.85 -1.5 L8.4 0.7 3.2 0.7 1.1 0.7 Q-1.75 -2.75 -5.9 -1.7 -10.05 -10.4 -7.55 -11.6 L-5.3 -12.1" fill="none" stroke="#614327" stroke-linecap="round" stroke-linejoin="round" stroke-width="1.0"/>
    <path d="M-5.3 -12.1 L-8.65 -19.9 M-4.95 -9.65 L-5.3 -12.1" fill="none" stroke="#000000" stroke-linecap="round" stroke-linejoin="round" stroke-opacity="0.8" stroke-width="1.0"/>
    <path d="M3.2 0.7 Q-0.8 1.95 -2.75 0.8 -4.7 -0.35 -5.9 -1.7" fill="none" stroke="#151515" stroke-linecap="round" stroke-linejoin="round" stroke-width="1.0"/>
    <path d="M1.9 -7.5 L4.95 -7.5 M4.1 -1.3 L2.4 -1.4 1.9 -2.75 M-2.15 -9.8 L3.65 -9.8" fill="none" stroke="#9d7348" stroke-linecap="round" stroke-linejoin="round" stroke-width="1.0"/>
    <path d="M9.05 -7.0 L9.25 -6.45 8.3 -6.25 Q7.45 -6.25 6.85 -6.85 6.25 -7.45 6.25 -8.3 6.25 -9.15 6.85 -9.75 L7.45 -10.15 7.8 -9.6 11.8 -9.6 12.3 -7.0 9.05 -7.0" fill="#333333" fill-rule="evenodd" stroke="none"/>
    <path d="M7.8 -9.6 L7.45 -10.15 6.85 -9.75 Q6.25 -9.15 6.25 -8.3 6.25 -7.45 6.85 -6.85 7.45 -6.25 8.3 -6.25 L9.25 -6.45 9.05 -7.0" fill="none" stroke="#614327" stroke-linecap="round" stroke-linejoin="round" stroke-width="1.0"/>
    <path d="M9.05 -7.0 L12.3 -7.0 11.8 -9.6 7.8 -9.6" fill="none" stroke="#222222" stroke-linecap="round" stroke-linejoin="round" stroke-width="1.0"/>
    <path d="M10.35 -4.15 L10.45 -3.8 9.9 -3.7 Q9.4 -3.7 9.05 -4.05 8.7 -4.4 8.7 -4.9 8.7 -5.4 9.05 -5.8 L9.4 -6.0 9.6 -5.7 12.0 -5.7 12.25 -4.15 10.35 -4.15" fill="#262626" fill-rule="evenodd" stroke="none"/>
    <path d="M9.6 -5.7 L9.4 -6.0 9.05 -5.8 Q8.7 -5.4 8.7 -4.9 8.7 -4.4 9.05 -4.05 9.4 -3.7 9.9 -3.7 L10.45 -3.8 10.35 -4.15" fill="none" stroke="#614327" stroke-linecap="round" stroke-linejoin="round" stroke-width="1.0"/>
    <path d="M10.35 -4.15 L12.25 -4.15 12.0 -5.7 9.6 -5.7" fill="none" stroke="#1a1a1a" stroke-linecap="round" stroke-linejoin="round" stroke-width="1.0"/>
  </g>
</svg>
