<?xml version="1.0" encoding="UTF-8" standalone="no"?>
<svg xmlns:ffdec="https://www.free-decompiler.com/flash" xmlns:xlink="http://www.w3.org/1999/xlink" ffdec:objectType="shape" height="8.25px" width="16.0px" xmlns="http://www.w3.org/2000/svg">
  <g transform="matrix(1.0, 0.0, 0.0, 1.0, 8.1, 0.95)">
    <path d="M-7.1 5.2 Q-7.45 3.75 -7.15 2.1 L-5.05 3.65 -5.05 5.2 -7.1 5.2 M-5.75 0.0 L-5.05 -0.15 Q-3.95 -0.45 -2.05 0.35 L-1.8 0.5 Q-2.05 1.45 -1.55 1.95 -1.05 2.55 0.5 2.75 L-0.7 5.2 -2.05 5.2 -2.05 3.65 -3.85 1.4 -5.75 0.0" fill="#070f12" fill-rule="evenodd" stroke="none"/>
    <path d="M0.5 2.75 L0.8 0.75 3.75 0.75 6.55 2.85 7.25 4.95 6.5 5.85 4.6 5.85 2.85 5.2 -0.7 5.2 0.5 2.75 M-7.15 2.1 Q-8.05 0.4 -7.2 -0.2 -6.35 -0.8 -5.75 0.0 L-3.85 1.4 -2.05 3.65 -2.05 5.2 -5.05 5.2 -5.05 3.65 -7.15 2.1 M2.6 3.95 L1.45 3.85 2.6 3.95 M5.05 4.7 L4.1 4.35 5.05 4.7" fill="#1a1a1a" fill-rule="evenodd" stroke="none"/>
    <path d="M6.5 5.85 L7.4 6.75 -7.6 6.8 -7.6 5.2 -7.1 5.2 -5.05 5.2 -2.05 5.2 -0.7 5.2 2.85 5.2 4.6 5.85 6.5 5.85" fill="#0d0d0d" fill-rule="evenodd" stroke="none"/>
    <path d="M-7.1 5.2 Q-7.45 3.75 -7.15 2.1 -8.05 0.4 -7.2 -0.2 -6.35 -0.8 -5.75 0.0 L-5.05 -0.15 Q-3.95 -0.45 -2.05 0.35 L-1.8 0.5 Q-2.05 1.45 -1.55 1.95 -1.05 2.55 0.5 2.75" fill="none" stroke="#020506" stroke-linecap="round" stroke-linejoin="round" stroke-width="1.0"/>
    <path d="M0.5 2.75 L0.8 0.75 3.75 0.75 6.55 2.85 7.25 4.95 6.5 5.85 7.4 6.75 -7.6 6.8 -7.6 5.2 -7.1 5.2 -5.05 5.2 -2.05 5.2 -0.7 5.2 2.85 5.2 4.6 5.85 6.5 5.85 M0.5 2.75 L-0.7 5.2 M-5.75 0.0 L-3.85 1.4 -2.05 3.65 -2.05 5.2 M-7.15 2.1 L-5.05 3.65 -5.05 5.2" fill="none" stroke="#070a0a" stroke-linecap="round" stroke-linejoin="round" stroke-width="1.0"/>
    <path d="M4.1 4.35 L5.05 4.7 M1.45 3.85 L2.6 3.95" fill="none" stroke="#0b0e0f" stroke-linecap="round" stroke-linejoin="round" stroke-width="1.0"/>
  </g>
</svg>
