<?xml version="1.0" encoding="UTF-8" standalone="no"?>
<svg xmlns:ffdec="https://www.free-decompiler.com/flash" xmlns:xlink="http://www.w3.org/1999/xlink" ffdec:objectType="shape" height="10.6px" width="24.35px" xmlns="http://www.w3.org/2000/svg">
  <g transform="matrix(1.0, 0.0, 0.0, 1.0, 5.0, 0.5)">
    <path d="M5.2 6.7 L-2.0 6.7 Q-3.5 5.4 -2.6 4.05 L-1.05 3.05 0.8 0.0 6.05 0.7 6.85 1.85 8.0 3.05 14.65 5.05 16.25 7.9 Q10.95 6.35 5.2 6.7" fill="#232121" fill-rule="evenodd" stroke="none"/>
    <path d="M5.2 6.7 L-2.0 6.7 Q-3.5 5.4 -2.6 4.05 L-1.05 3.05 0.8 0.0 6.05 0.7 6.85 1.85 8.0 3.05 14.65 5.05 16.25 7.9 Q10.95 6.35 5.2 6.7 Z" fill="none" stroke="#17181c" stroke-linecap="round" stroke-linejoin="round" stroke-width="1.0"/>
    <path d="M12.25 2.85 L12.25 1.95 Q15.4 3.05 17.2 5.1 19.0 7.1 18.85 9.6 15.25 8.05 12.0 9.15 L6.5 8.65 9.45 6.25 12.25 2.85 M17.0 7.2 L13.1 4.6 17.0 7.2" fill="#7c7f93" fill-rule="evenodd" stroke="none"/>
    <path d="M12.25 2.85 L9.45 6.25 6.5 8.65 Q3.0 6.8 0.55 8.65 L-3.75 8.15 -4.1 6.8 -4.5 2.85 -2.95 1.3 Q-1.05 3.6 0.85 3.15 L1.9 5.15 Q3.8 5.9 6.25 4.8 8.3 3.8 8.8 1.85 L11.5 2.55 12.25 2.85 M-2.8 5.55 L-1.7 4.4 -2.8 5.55 M-2.45 6.95 L-0.35 4.8 -2.45 6.95" fill="#585b6b" fill-rule="evenodd" stroke="none"/>
    <path d="M6.5 8.65 L12.0 9.15 Q15.25 8.05 18.85 9.6 19.0 7.1 17.2 5.1 15.4 3.05 12.25 1.95 L12.25 2.85 9.45 6.25 6.5 8.65 Q3.0 6.8 0.55 8.65 L-3.75 8.15 -4.1 6.8 -4.5 2.85 -2.95 1.3 Q-1.05 3.6 0.85 3.15 L1.9 5.15 Q3.8 5.9 6.25 4.8 8.3 3.8 8.8 1.85 L11.5 2.55 12.25 2.85" fill="none" stroke="#12121c" stroke-linecap="round" stroke-linejoin="round" stroke-width="1.0"/>
    <path d="M13.1 4.6 L17.0 7.2 M-0.35 4.8 L-2.45 6.95 M-1.7 4.4 L-2.8 5.55" fill="none" stroke="#272831" stroke-linecap="round" stroke-linejoin="round" stroke-width="1.0"/>
  </g>
</svg>
