<?xml version="1.0" encoding="UTF-8" standalone="no"?>
<svg xmlns:ffdec="https://www.free-decompiler.com/flash" xmlns:xlink="http://www.w3.org/1999/xlink" ffdec:objectType="shape" height="8.8px" width="18.35px" xmlns="http://www.w3.org/2000/svg">
  <g transform="matrix(1.0, 0.0, 0.0, 1.0, 6.35, 3.6)">
    <path d="M0.35 -3.1 Q2.05 -3.1 3.55 -1.3 4.7 0.05 5.3 3.6 L-3.85 3.35 Q-4.0 -0.05 -3.05 -1.3 L-1.55 -2.6 Q-0.6 -3.15 0.35 -3.1" fill="#171a1c" fill-rule="evenodd" stroke="none"/>
    <path d="M0.35 -3.1 Q-0.6 -3.15 -1.55 -2.6 L-3.05 -1.3 Q-4.0 -0.05 -3.85 3.35 L5.3 3.6 Q4.7 0.05 3.55 -1.3 2.05 -3.1 0.35 -3.1 Z" fill="none" stroke="#101214" stroke-linecap="round" stroke-linejoin="round" stroke-width="1.0"/>
    <path d="M1.75 -0.1 L4.5 -1.25 9.55 0.6 7.3 4.7 2.15 4.6 1.75 -0.1" fill="#2e2e2e" fill-rule="evenodd" stroke="none"/>
    <path d="M1.75 -0.1 L4.5 -1.25 9.55 0.6 7.3 4.7 2.15 4.6 1.75 -0.1 Z" fill="none" stroke="#181c1e" stroke-linecap="round" stroke-linejoin="round" stroke-width="1.0"/>
    <path d="M8.1 0.1 Q9.55 0.2 10.55 1.85 11.25 3.1 11.5 4.7 L7.3 4.7 Q6.9 3.05 6.85 2.25 6.75 0.85 8.1 0.1" fill="#242628" fill-rule="evenodd" stroke="none"/>
    <path d="M8.1 0.1 Q9.55 0.2 10.55 1.85 11.25 3.1 11.5 4.7 L7.3 4.7 Q6.9 3.05 6.85 2.25 6.75 0.85 8.1 0.1 Z" fill="none" stroke="#181c1e" stroke-linecap="round" stroke-linejoin="round" stroke-width="1.0"/>
    <path d="M-3.75 -1.65 L0.15 -0.15 0.15 4.6 -5.85 4.5 -3.75 -1.65" fill="#2e2e2e" fill-rule="evenodd" stroke="none"/>
    <path d="M-3.75 -1.65 L0.15 -0.15 0.15 4.6 -5.85 4.5 -3.75 -1.65 Z" fill="none" stroke="#181c1e" stroke-linecap="round" stroke-linejoin="round" stroke-width="1.0"/>
  </g>
</svg>
