<?xml version="1.0" encoding="UTF-8" standalone="no"?>
<svg xmlns:ffdec="https://www.free-decompiler.com/flash" xmlns:xlink="http://www.w3.org/1999/xlink" ffdec:objectType="shape" height="11.75px" width="19.2px" xmlns="http://www.w3.org/2000/svg">
  <g transform="matrix(1.0, 0.0, 0.0, 1.0, 7.9, 5.7)">
    <path d="M6.35 3.35 L-1.55 2.1 Q-5.85 1.0 -6.0 0.2 L3.1 -0.8 Q5.55 -1.1 5.15 -1.9 L5.85 -1.15 Q8.0 -1.35 9.55 0.2 11.1 1.7 10.8 3.55 L10.7 3.55 Q11.2 3.75 11.0 5.1 L-7.1 5.2 Q-7.4 3.25 -6.4 2.55 L6.35 3.35 6.95 3.4 6.35 3.35" fill="#333333" fill-rule="evenodd" stroke="none"/>
    <path d="M-6.4 2.55 Q-6.25 0.35 -5.7 -1.1 -5.1 -2.75 -1.45 -5.3 L3.45 -5.35 Q3.9 -3.45 5.15 -1.9 6.05 0.0 -6.0 0.2 -5.8 1.25 6.2 1.6 L5.65 3.2 -6.4 2.55" fill="#3f3f3f" fill-rule="evenodd" stroke="none"/>
    <path d="M9.95 3.7 Q11.05 3.4 10.75 5.25 L-7.35 5.35 Q-7.65 3.3 -6.65 2.7 L9.95 3.7 Z" fill="none" stroke="#232323" stroke-linecap="butt" stroke-linejoin="miter-clip" stroke-miterlimit="11.33984375" stroke-width="1.05"/>
    <path d="M-6.6 2.7 Q-6.45 0.3 -5.95 -0.9 -5.3 -2.65 -1.7 -5.15 L3.2 -5.2 Q3.65 -3.3 4.9 -1.75 7.6 -1.35 9.0 -0.45 10.15 0.35 9.9 1.0 L9.9 1.05 6.5 1.05 5.25 3.25 -1.25 3.2 -6.6 2.7 M10.1 1.2 Q11.2 2.35 10.55 4.25" fill="none" stroke="#1f1f1f" stroke-linecap="butt" stroke-linejoin="miter-clip" stroke-miterlimit="11.33984375" stroke-width="1.05"/>
  </g>
</svg>
