<?xml version="1.0" encoding="UTF-8" standalone="no"?>
<svg xmlns:ffdec="https://www.free-decompiler.com/flash" xmlns:xlink="http://www.w3.org/1999/xlink" ffdec:objectType="shape" height="12.95px" width="17.05px" xmlns="http://www.w3.org/2000/svg">
  <g transform="matrix(1.0, 0.0, 0.0, 1.0, 0.5, 0.5)">
    <path d="M12.8 9.9 L13.65 8.4 15.15 8.4 16.05 9.8 15.75 11.0 15.15 11.95 Q14.05 11.55 12.8 11.95 L12.8 9.9 12.8 11.95 Q11.7 11.65 10.4 11.95 L5.75 11.85 5.75 11.3 5.75 10.6 10.4 10.5 11.6 10.2 12.8 9.9 M14.65 10.35 L15.75 11.0 14.65 10.35 M0.65 9.5 L3.95 10.65 3.95 11.3 3.95 11.7 Q2.95 11.4 0.0 11.7 L0.0 9.5 0.65 9.5 M10.4 10.5 L10.4 11.95 10.4 10.5" fill="#252525" fill-rule="evenodd" stroke="none"/>
    <path d="M15.15 8.4 L13.65 8.4 12.8 9.9 11.6 10.2 Q7.95 9.6 5.8 7.7 4.7 5.15 5.45 0.65 4.9 -1.0 8.35 1.55 7.9 3.95 8.35 6.0 L10.3 6.2 Q10.85 5.9 11.35 5.55 13.4 5.75 15.15 6.85 L15.15 8.4 M8.35 6.75 L6.6 5.8 5.45 0.65 6.6 5.8 8.35 6.75 M10.3 6.2 L8.85 6.8 10.3 6.2" fill="url(#gradient0)" fill-rule="evenodd" stroke="none"/>
    <path d="M11.6 10.2 L10.4 10.5 5.75 10.6 5.75 11.3 3.95 11.3 3.95 10.65 0.65 9.5 0.65 7.55 1.2 6.55 1.2 1.8 Q1.7 1.25 5.45 0.65 4.7 5.15 5.8 7.7 7.95 9.6 11.6 10.2" fill="url(#gradient1)" fill-rule="evenodd" stroke="none"/>
    <path d="M15.15 8.4 L13.65 8.4 12.8 9.9 12.8 11.95 Q14.05 11.55 15.15 11.95 L15.75 11.0 16.05 9.8 15.15 8.4 15.15 6.85 Q13.4 5.75 11.35 5.55 10.85 5.9 10.3 6.2 L8.35 6.0 Q7.9 3.95 8.35 1.55 4.9 -1.0 5.45 0.65 1.7 1.25 1.2 1.8 L1.2 6.55 0.65 7.55 0.65 9.5 3.95 10.65 3.95 11.3 5.75 11.3 5.75 11.85 10.4 11.95 10.4 10.5 11.6 10.2 12.8 9.9 M5.75 11.3 L5.75 10.6 10.4 10.5 M12.8 11.95 Q11.7 11.65 10.4 11.95 M5.45 0.65 L6.6 5.8 8.35 6.75 M3.95 11.3 L3.95 11.7 Q2.95 11.4 0.0 11.7 L0.0 9.5 0.65 9.5 M8.85 6.8 L10.3 6.2" fill="none" stroke="#070707" stroke-linecap="round" stroke-linejoin="round" stroke-width="1.0"/>
    <path d="M15.75 11.0 L14.65 10.35" fill="none" stroke="#151515" stroke-linecap="round" stroke-linejoin="round" stroke-width="1.0"/>
    <path d="M6.5 2.05 L8.2 3.35 M7.2 4.55 L8.25 5.4 M6.9 3.25 L8.15 4.45" fill="none" stroke="#333333" stroke-linecap="round" stroke-linejoin="round" stroke-width="1.0"/>
  </g>
  <defs>
    <radialGradient cx="0" cy="0" gradientTransform="matrix(6.0E-4, -0.0021, 0.0038, 0.001, 12.0, 6.25)" gradientUnits="userSpaceOnUse" id="gradient0" r="819.2" spreadMethod="pad">
      <stop offset="0.06274509803921569" stop-color="#464646"/>
      <stop offset="0.596078431372549" stop-color="#252525"/>
      <stop offset="1.0" stop-color="#191919"/>
    </radialGradient>
    <radialGradient cx="0" cy="0" gradientTransform="matrix(6.0E-4, -0.0021, 0.0038, 0.001, 12.0, 6.25)" gradientUnits="userSpaceOnUse" id="gradient1" r="819.2" spreadMethod="pad">
      <stop offset="0.06274509803921569" stop-color="#464646"/>
      <stop offset="0.596078431372549" stop-color="#252525"/>
      <stop offset="1.0" stop-color="#101010"/>
    </radialGradient>
  </defs>
</svg>
