<?xml version="1.0" encoding="UTF-8" standalone="no"?>
<svg xmlns:xlink="http://www.w3.org/1999/xlink" height="24.8px" width="68.6px" xmlns="http://www.w3.org/2000/svg">
  <g transform="matrix(1.0, 0.0, 0.0, 1.0, 20.9, 9.3)">
    <path d="M12.45 -4.1 L12.45 -8.15 13.55 -8.15 Q14.2 -8.1 14.45 -7.1 L14.45 -5.4 Q14.4 -4.2 13.3 -4.1 L12.45 -4.1 M13.15 -0.45 L13.8 -0.7 17.05 -0.7 17.65 -0.45 17.9 0.25 17.9 1.3 17.65 1.95 Q17.4 2.25 17.05 2.25 L15.9 2.25 15.5 1.3 13.8 1.3 Q13.4 1.3 13.15 1.0 12.9 0.75 12.9 0.3 L12.9 0.25 13.15 -0.45" fill="#141414" fill-rule="evenodd" stroke="none"/>
    <path d="M5.85 7.35 L5.6 11.7 Q5.65 12.75 4.55 13.3 L4.25 13.3 2.05 13.0 1.85 10.65 Q1.9 9.0 2.7 7.85 3.45 6.65 3.3 4.75 L6.5 4.75 Q5.95 6.0 5.85 7.35" fill="#483e3d" fill-rule="evenodd" stroke="none"/>
    <path d="M-2.4 13.05 L-15.75 13.05 -16.75 11.9 -15.8 10.65 -9.05 10.65 -5.2 10.65 1.85 10.65 2.05 13.0 -2.4 13.05 M-6.85 1.9 L1.05 1.9 1.15 2.6 2.4 2.6 2.2 4.15 -5.2 4.1 -7.65 4.1 -6.85 1.9" fill="#1e1e1e" fill-rule="evenodd" stroke="none"/>
    <path d="M-16.75 11.9 L-18.35 11.8 -17.65 1.35 -17.65 0.65 -10.0 0.65 Q-7.8 0.5 -6.85 1.9 L-7.65 4.1 -9.05 4.1 -15.5 4.05 Q-16.0 5.25 -16.15 6.5 L-16.2 7.0 Q-16.3 8.8 -15.8 10.65 L-16.75 11.9" fill="#40332b" fill-rule="evenodd" stroke="none"/>
    <path d="M-5.2 4.1 Q-6.05 7.4 -5.2 10.65 L-9.05 10.65 Q-8.6 8.2 -8.8 5.8 L-8.85 5.3 -9.05 4.1 -7.65 4.1 -5.2 4.1" fill="#38302e" fill-rule="evenodd" stroke="none"/>
    <path d="M-2.75 -4.0 L-3.45 -3.7 -8.7 -3.7 Q-8.95 -5.4 -10.8 -5.7 L-10.8 -7.55 Q-10.8 -7.95 -9.85 -8.15 L-3.4 -8.15 -2.75 -7.95 -2.75 -4.0 M-6.35 -6.75 L-8.7 -6.75 -6.35 -6.75" fill="#262626" fill-rule="evenodd" stroke="none"/>
    <path d="M7.55 -7.1 L9.55 -7.1 9.85 -7.1 11.2 -8.15 12.45 -8.15 12.45 -4.1 11.2 -4.1 5.8 -4.1 4.1 -4.1 3.05 -4.85 3.05 -7.2 3.05 -7.25 4.0 -8.15 6.05 -8.15 6.95 -7.1 7.55 -7.1 M-1.15 -7.95 L0.85 -7.95 1.85 -7.2 1.85 -4.85 1.1 -3.95 -1.15 -3.95 -1.15 -7.95" fill="#232323" fill-rule="evenodd" stroke="none"/>
    <path d="M9.55 -7.1 L7.55 -7.1 Q7.55 -8.85 8.55 -8.8 9.5 -8.8 9.55 -7.1 M3.05 -7.2 L3.05 -4.85 1.85 -4.85 1.85 -7.2 3.05 -7.2 M-1.15 -3.95 L-2.75 -4.0 -2.75 -7.95 -1.15 -7.95 -1.15 -3.95" fill="#131313" fill-rule="evenodd" stroke="none"/>
    <path d="M5.8 -4.1 L11.2 -4.1 11.2 -2.1 5.8 -2.0 5.8 -4.1" fill="#141412" fill-rule="evenodd" stroke="none"/>
    <path d="M12.7 4.75 L9.9 4.75 7.0 4.75 6.5 4.75 3.3 4.75 2.2 4.15 2.4 2.6 12.55 2.6 14.1 3.15 15.0 4.05 14.85 4.75 12.7 4.75" fill="#464938" fill-rule="evenodd" stroke="none"/>
    <path d="M27.3 4.05 L19.75 4.05 20.05 2.35 27.3 2.35 27.3 4.05" fill="#6b696a" fill-rule="evenodd" stroke="none"/>
    <path d="M30.95 -0.45 L31.25 -1.05 Q31.65 -1.5 32.15 -1.5 L45.95 -1.5 46.85 -1.05 Q47.2 -0.65 47.2 -0.1 L47.2 1.0 Q47.2 1.55 46.85 1.95 46.45 2.35 45.95 2.35 L32.15 2.35 Q31.65 2.35 31.25 1.95 L30.95 1.3 30.9 1.0 30.9 -0.1 30.95 -0.45 M19.45 11.25 L20.25 13.1 16.05 15.0 Q14.15 10.9 13.9 7.2 L16.3 6.7 16.5 8.9 17.5 12.1 Q18.5 11.7 19.45 11.25" fill="#1c1c1c" fill-rule="evenodd" stroke="none"/>
    <path d="M28.55 -0.45 L30.95 -0.45 30.9 -0.1 30.9 1.0 30.95 1.3 28.75 1.3 28.75 0.8 28.55 -0.45" fill="#151515" fill-rule="evenodd" stroke="none"/>
    <path d="M18.2 6.3 L18.5 8.1 18.95 9.75 19.45 11.25 Q18.5 11.7 17.5 12.1 L16.5 8.9 16.3 6.7 18.2 6.3" fill="#816801" fill-rule="evenodd" stroke="none"/>
    <path d="M-18.35 11.8 L-20.4 11.6 -20.4 9.75 -20.0 8.3 -19.6 6.3 -19.45 3.95 Q-19.45 2.65 -19.75 1.6 L-17.65 1.35 -18.35 11.8" fill="#55504c" fill-rule="evenodd" stroke="none"/>
    <path d="M4.25 13.3 L4.2 14.7 -1.55 14.75 -2.4 13.05 2.05 13.0 4.25 13.3" fill="#4b4b4b" fill-rule="evenodd" stroke="none"/>
    <path d="M18.9 4.05 L18.95 6.15 18.2 6.3 16.3 6.7 13.9 7.2 13.1 7.35 12.7 4.75 14.85 4.75 15.0 4.05 18.9 4.05 M17.55 5.15 L17.15 5.25 17.55 5.15" fill="#7e7673" fill-rule="evenodd" stroke="none"/>
    <path d="M1.05 1.9 L0.05 0.55 Q-0.2 -0.4 0.25 -0.85 L3.8 -2.0 5.8 -2.0 11.2 -2.1 11.4 -2.1 12.35 -2.1 13.25 -2.5 18.05 -2.5 19.25 -1.0 24.3 -1.0 25.25 -1.35 28.0 -1.35 Q28.35 -1.25 28.55 -0.45 L28.75 0.8 28.75 1.3 28.75 2.9 Q28.6 3.75 27.3 4.05 L27.3 2.35 20.05 2.35 19.75 4.05 18.9 4.05 15.0 4.05 14.1 3.15 12.55 2.6 2.4 2.6 1.15 2.6 1.05 1.9 M13.15 -0.45 L12.9 0.25 12.9 0.3 Q12.9 0.75 13.15 1.0 13.4 1.3 13.8 1.3 L15.5 1.3 15.9 2.25 17.05 2.25 Q17.4 2.25 17.65 1.95 L17.9 1.3 17.9 0.25 17.65 -0.45 17.05 -0.7 13.8 -0.7 13.15 -0.45 M21.35 0.45 L21.35 0.85 21.35 0.45 M24.1 0.45 L24.1 0.85 24.1 0.45 M22.7 0.45 L22.7 0.85 22.7 0.45 M25.55 0.45 L25.55 0.85 25.55 0.45 M11.4 -2.1 L9.7 0.4 4.5 0.4 3.8 -2.0 4.5 0.4 9.7 0.4 11.4 -2.1" fill="#51433a" fill-rule="evenodd" stroke="none"/>
    <path d="M7.55 -7.1 L9.55 -7.1 Q9.5 -8.8 8.55 -8.8 7.55 -8.85 7.55 -7.1 L6.95 -7.1 6.05 -8.15 4.0 -8.15 3.05 -7.25 3.05 -7.2 3.05 -4.85 4.1 -4.1 5.8 -4.1 11.2 -4.1 12.45 -4.1 12.45 -8.15 11.2 -8.15 9.85 -7.1 9.55 -7.1 M1.85 -7.2 L3.05 -7.2 M-1.15 -3.95 L-2.75 -4.0 -2.75 -7.95 -1.15 -7.95 -1.15 -3.95 M3.05 -4.85 L1.85 -4.85 1.85 -7.2 M12.45 -8.15 L13.55 -8.15 Q14.2 -8.1 14.45 -7.1 L14.45 -5.4 Q14.4 -4.2 13.3 -4.1 L12.45 -4.1 M28.55 -0.45 L30.95 -0.45 30.9 -0.1 30.9 1.0 30.95 1.3 28.75 1.3 M5.8 -2.0 L11.2 -2.1" fill="none" stroke="#000000" stroke-linecap="round" stroke-linejoin="round" stroke-width="1.0"/>
    <path d="M-1.15 -7.95 L0.85 -7.95 1.85 -7.2 M1.85 -4.85 L1.1 -3.95 -1.15 -3.95 M-2.75 -4.0 L-3.45 -3.7 -8.7 -3.7 Q-8.95 -5.4 -10.8 -5.7 L-10.8 -7.55 Q-10.8 -7.95 -9.85 -8.15 L-3.4 -8.15 -2.75 -7.95 M-8.7 -6.75 L-6.35 -6.75" fill="none" stroke="#141414" stroke-linecap="round" stroke-linejoin="round" stroke-width="1.0"/>
    <path d="M1.05 1.9 L0.05 0.55 Q-0.2 -0.4 0.25 -0.85 L3.8 -2.0 5.8 -2.0 M11.2 -2.1 L11.4 -2.1 12.35 -2.1 13.25 -2.5 18.05 -2.5 24.6 -2.5 25.25 -1.35 28.0 -1.35 Q28.35 -1.25 28.55 -0.45 L28.75 0.8 28.75 1.3 28.75 2.9 Q28.6 3.75 27.3 4.05 L27.3 2.35 20.05 2.35 19.75 4.05 18.9 4.05 15.0 4.05 M4.55 13.3 L4.25 13.3 2.05 13.0 M-16.75 11.9 L-18.35 11.8 -17.65 1.35 -17.65 0.65 -10.0 0.65 Q-7.8 0.5 -6.85 1.9 M18.05 -2.5 L19.25 -1.0 24.3 -1.0 25.25 -1.35 M-5.2 4.1 Q-6.05 7.4 -5.2 10.65 M-7.65 4.1 L-9.05 4.1 -8.85 5.3 -8.8 5.8 Q-8.6 8.2 -9.05 10.65 M-15.8 10.65 Q-16.3 8.8 -16.2 7.0 L-16.15 6.5 Q-16.0 5.25 -15.5 4.05 L-9.05 4.1" fill="none" stroke="#211d1a" stroke-linecap="round" stroke-linejoin="round" stroke-width="1.0"/>
    <path d="M5.8 -2.0 L5.8 -4.1 M11.2 -4.1 L11.2 -2.1" fill="none" stroke="#030502" stroke-linecap="round" stroke-linejoin="round" stroke-width="1.0"/>
    <path d="M12.7 4.75 L9.9 4.75 7.0 4.75 6.5 4.75 3.3 4.75 2.2 4.15 M2.4 2.6 L12.55 2.6 14.1 3.15 15.0 4.05 14.85 4.75 12.7 4.75" fill="none" stroke="#202119" stroke-linecap="round" stroke-linejoin="round" stroke-width="1.0"/>
    <path d="M30.95 -0.45 L31.25 -1.05 Q31.65 -1.5 32.15 -1.5 L45.95 -1.5 46.85 -1.05 Q47.2 -0.65 47.2 -0.1 L47.2 1.0 Q47.2 1.55 46.85 1.95 46.45 2.35 45.95 2.35 L32.15 2.35 Q31.65 2.35 31.25 1.95 L30.95 1.3" fill="none" stroke="#121212" stroke-linecap="round" stroke-linejoin="round" stroke-width="1.0"/>
    <path d="M27.3 4.05 L19.75 4.05" fill="none" stroke="#282627" stroke-linecap="round" stroke-linejoin="round" stroke-width="1.0"/>
    <path d="M18.95 6.15 L18.2 6.3 18.5 8.1 18.95 9.75 19.45 11.25 20.25 13.1 16.05 15.0 Q14.15 10.9 13.9 7.2 M16.3 6.7 L16.5 8.9 17.5 12.1 Q18.5 11.7 19.45 11.25" fill="none" stroke="#111111" stroke-linecap="round" stroke-linejoin="round" stroke-width="1.0"/>
    <path d="M18.9 4.05 L18.95 6.15" fill="none" stroke="#4f4842" stroke-linecap="round" stroke-linejoin="round" stroke-width="1.0"/>
    <path d="M17.15 5.25 L17.55 5.15" fill="none" stroke="#4c4744" stroke-linecap="round" stroke-linejoin="round" stroke-width="1.0"/>
    <path d="M13.9 7.2 L13.1 7.35 12.7 4.75" fill="none" stroke="#4c4441" stroke-linecap="round" stroke-linejoin="round" stroke-width="1.0"/>
    <path d="M9.9 4.75 Q9.55 6.95 8.25 7.35 L5.85 7.35 Q5.95 6.0 6.5 4.75 M-6.85 1.9 L1.05 1.9 1.15 2.6 2.4 2.6 2.2 4.15 -5.2 4.1 -7.65 4.1 -6.85 1.9 M7.0 4.75 Q6.95 5.5 7.4 6.15" fill="none" stroke="#131313" stroke-linecap="round" stroke-linejoin="round" stroke-width="1.0"/>
    <path d="M5.85 7.35 L5.6 11.7 Q5.65 12.75 4.55 13.3 M1.85 10.65 Q1.9 9.0 2.7 7.85 3.45 6.65 3.3 4.75" fill="none" stroke="#2e2926" stroke-linecap="round" stroke-linejoin="round" stroke-width="1.0"/>
    <path d="M4.25 13.3 L4.2 14.7 -1.55 14.75 -2.4 13.05" fill="none" stroke="#282828" stroke-linecap="round" stroke-linejoin="round" stroke-width="1.0"/>
    <path d="M-20.4 11.6 L-20.4 9.75 -20.0 8.3 M-19.45 3.95 Q-19.45 2.65 -19.75 1.6 L-17.65 1.35" fill="none" stroke="#373330" stroke-linecap="round" stroke-linejoin="round" stroke-width="1.0"/>
    <path d="M-8.8 5.8 L-13.65 5.8 Q-14.9 6.05 -15.0 7.0 L-16.2 7.0" fill="none" stroke="#191514" stroke-linecap="round" stroke-linejoin="round" stroke-width="1.0"/>
    <path d="M-19.6 6.3 L-19.45 3.95" fill="none" stroke="#2a2521" stroke-linecap="round" stroke-linejoin="round" stroke-width="1.0"/>
    <path d="M-20.0 8.3 L-19.6 6.3" fill="none" stroke="#2c2723" stroke-linecap="round" stroke-linejoin="round" stroke-width="1.0"/>
    <path d="M-18.35 11.8 L-20.4 11.6" fill="none" stroke="#383431" stroke-linecap="round" stroke-linejoin="round" stroke-width="1.0"/>
    <path d="M18.2 6.3 L16.3 6.7 13.9 7.2" fill="none" stroke="#36332e" stroke-linecap="round" stroke-linejoin="round" stroke-width="1.0"/>
    <path d="M-2.4 13.05 L-15.75 13.05 -16.75 11.9 -15.8 10.65 -9.05 10.65 -5.2 10.65 1.85 10.65 2.05 13.0 -2.4 13.05" fill="none" stroke="#151515" stroke-linecap="round" stroke-linejoin="round" stroke-width="1.0"/>
    <path d="M22.7 0.85 L22.7 0.45 M24.1 0.85 L24.1 0.45 M21.35 0.85 L21.35 0.45 M25.55 0.85 L25.55 0.45 M3.8 -2.0 L4.5 0.4 9.7 0.4 11.4 -2.1" fill="none" stroke="#3a322d" stroke-linecap="round" stroke-linejoin="round" stroke-width="1.0"/>
    <path d="M13.15 -0.45 L12.9 0.25 12.9 0.3 Q12.9 0.75 13.15 1.0 13.4 1.3 13.8 1.3 L15.5 1.3 15.9 2.25 17.05 2.25 Q17.4 2.25 17.65 1.95 L17.9 1.3 17.9 0.25 17.65 -0.45 17.05 -0.7 13.8 -0.7 13.15 -0.45 Z" fill="none" stroke="#352e28" stroke-linecap="round" stroke-linejoin="round" stroke-width="1.0"/>
  </g>
</svg>
