<?xml version="1.0" encoding="UTF-8" standalone="no"?>
<svg xmlns:ffdec="https://www.free-decompiler.com/flash" xmlns:xlink="http://www.w3.org/1999/xlink" ffdec:objectType="shape" height="9.8px" width="16.25px" xmlns="http://www.w3.org/2000/svg">
  <g transform="matrix(1.0, 0.0, 0.0, 1.0, -2.4, 0.0)">
    <path d="M10.6 2.2 L11.55 1.9 12.8 4.15 16.6 4.65 Q18.1 5.85 18.15 6.5 L18.15 9.3 12.2 9.3 12.15 8.9 12.0 7.3 9.05 5.7 8.8 4.85 8.2 2.8 10.6 2.2 M6.25 8.45 L6.25 9.3 3.6 9.3 2.9 5.7 4.1 5.05 5.9 5.3 6.25 8.45 M16.95 8.0 L13.6 8.0 16.95 8.0" fill="#3c0000" fill-rule="evenodd" stroke="none"/>
    <path d="M10.6 2.2 L8.2 2.8 8.8 4.85 6.75 3.7 5.8 1.15 9.95 0.5 10.6 2.2" fill="#202020" fill-rule="evenodd" stroke="none"/>
    <path d="M8.8 4.85 L9.05 5.7 12.0 7.3 12.15 8.9 6.25 8.45 5.9 5.3 4.1 5.05 4.1 1.4 5.8 1.15 6.75 3.7 8.8 4.85" fill="#2c2c2c" fill-rule="evenodd" stroke="none"/>
    <path d="M12.15 8.9 L6.25 8.45 M4.1 5.05 L4.1 1.4 5.8 1.15 9.95 0.5 10.6 2.2 M5.8 1.15 L6.75 3.7 8.8 4.85" fill="none" stroke="#151515" stroke-linecap="round" stroke-linejoin="round" stroke-width="1.0"/>
    <path d="M12.15 8.9 L12.2 9.3 18.15 9.3 18.15 6.5 Q18.1 5.85 16.6 4.65 L12.8 4.15 11.55 1.9 10.6 2.2 8.2 2.8 8.8 4.85 9.05 5.7 12.0 7.3 12.15 8.9 M6.25 8.45 L6.25 9.3 3.6 9.3 2.9 5.7 4.1 5.05 5.9 5.3 6.25 8.45" fill="none" stroke="#1e0101" stroke-linecap="round" stroke-linejoin="round" stroke-width="1.0"/>
    <path d="M13.6 8.0 L16.95 8.0" fill="none" stroke="#2c0404" stroke-linecap="round" stroke-linejoin="round" stroke-width="1.0"/>
  </g>
</svg>
