<?xml version="1.0" encoding="UTF-8" standalone="no"?>
<svg xmlns:ffdec="https://www.free-decompiler.com/flash" xmlns:xlink="http://www.w3.org/1999/xlink" ffdec:objectType="shape" height="7.6px" width="27.65px" xmlns="http://www.w3.org/2000/svg">
  <g transform="matrix(1.0, 0.0, 0.0, 1.0, 0.5, 0.5)">
    <path d="M12.4 4.25 L10.95 5.8 Q9.25 5.0 7.1 5.85 3.5 5.0 0.0 6.6 L1.1 4.5 Q2.85 2.05 6.65 0.9 8.0 2.9 12.4 4.25" fill="url(#gradient0)" fill-rule="evenodd" stroke="none"/>
    <path d="M24.2 2.55 Q26.25 3.8 26.65 6.1 24.25 5.5 21.15 6.2 L19.25 5.35 15.45 6.0 Q19.45 3.4 18.3 0.0 22.0 1.2 24.2 2.55" fill="url(#gradient1)" fill-rule="evenodd" stroke="none"/>
    <path d="M24.2 2.55 Q22.0 1.2 18.3 0.0 19.45 3.4 15.45 6.0 L19.25 5.35 21.15 6.2 Q24.25 5.5 26.65 6.1 26.25 3.8 24.2 2.55 M12.4 4.25 Q8.0 2.9 6.65 0.9 2.85 2.05 1.1 4.5 L0.0 6.6 Q3.5 5.0 7.1 5.85 9.25 5.0 10.95 5.8 L12.4 4.25 Z" fill="none" stroke="#040a2e" stroke-linecap="round" stroke-linejoin="round" stroke-width="1.0"/>
    <path d="M6.3 2.5 Q6.75 1.85 7.2 2.8 7.25 3.35 6.7 3.3 5.95 3.0 6.3 2.5 M3.8 3.6 Q3.85 2.5 5.55 4.05 6.1 4.95 5.2 4.85 3.65 4.4 3.8 3.6 M20.25 2.25 Q20.7 1.6 21.15 2.55 21.2 3.1 20.65 3.05 19.9 2.75 20.25 2.25" fill="#3c0707" fill-opacity="0.29803923" fill-rule="evenodd" stroke="none"/>
  </g>
  <defs>
    <radialGradient cx="0" cy="0" gradientTransform="matrix(0.0313, 0.0, 0.0, 0.0313, 14.0, -11.8)" gradientUnits="userSpaceOnUse" id="gradient0" r="819.2" spreadMethod="pad">
      <stop offset="0.0" stop-color="#2fd7c9"/>
      <stop offset="0.2627450980392157" stop-color="#3f65ff"/>
      <stop offset="0.5333333333333333" stop-color="#271bc4"/>
      <stop offset="1.0" stop-color="#b41108"/>
    </radialGradient>
    <radialGradient cx="0" cy="0" gradientTransform="matrix(0.0224, 0.0, 0.0, 0.0224, 13.1, -5.8)" gradientUnits="userSpaceOnUse" id="gradient1" r="819.2" spreadMethod="pad">
      <stop offset="0.0" stop-color="#2fd7c9"/>
      <stop offset="0.2627450980392157" stop-color="#3f65ff"/>
      <stop offset="0.5333333333333333" stop-color="#271bc4"/>
      <stop offset="0.9686274509803922" stop-color="#aa1215"/>
      <stop offset="1.0" stop-color="#b41108"/>
    </radialGradient>
  </defs>
</svg>
