<?xml version="1.0" encoding="UTF-8" standalone="no"?>
<svg xmlns:ffdec="https://www.free-decompiler.com/flash" xmlns:xlink="http://www.w3.org/1999/xlink" ffdec:objectType="shape" height="20.95px" width="15.0px" xmlns="http://www.w3.org/2000/svg">
  <g transform="matrix(1.0, 0.0, 0.0, 1.0, 7.9, 6.1)">
    <path d="M2.3 -3.8 Q1.65 -4.15 0.7 -4.3 -1.2 -4.55 -2.2 -3.45 L-3.7 -4.05 Q-2.7 -4.95 -0.8 -5.1 1.3 -5.25 2.7 -4.3 L2.3 -3.8 M5.15 2.85 L5.2 5.3 3.1 5.0 1.3 5.3 1.8 7.65 3.55 9.5 5.05 9.45 4.85 11.5 Q4.1 14.7 1.25 14.3 -1.6 13.9 -2.65 11.5 -2.8 10.2 -3.1 9.0 L-1.65 9.85 0.35 7.95 0.0 3.9 2.65 3.9 2.65 2.25 5.15 2.85" fill="#273f37" fill-rule="evenodd" stroke="none"/>
    <path d="M-2.2 -3.45 L-2.1 -1.5 -0.95 -2.15 1.8 -1.85 2.3 -3.8 2.7 -4.3 3.65 -5.6 6.6 -2.3 6.6 2.95 5.15 2.85 2.65 2.25 1.6 0.55 -1.05 -0.05 -2.1 0.4 -1.9 2.75 -2.6 4.7 -2.05 6.7 -3.3 8.9 -4.95 7.95 -4.3 6.05 -4.45 5.2 -5.85 5.7 -6.35 4.25 -4.8 3.65 -5.1 2.3 -7.2 2.25 -7.3 0.0 -5.15 -0.15 -5.05 -1.45 -7.4 -2.3 -6.2 -5.15 -3.7 -4.05 -2.2 -3.45 M5.2 5.3 L6.6 5.5 6.6 9.55 5.05 9.45 3.55 9.5 1.8 7.65 1.3 5.3 3.1 5.0 5.2 5.3 M-2.1 -1.5 L-3.25 -0.9 -3.15 0.85 -2.1 0.4 -3.15 0.85 -3.25 -0.9 -2.1 -1.5" fill="#666666" fill-rule="evenodd" stroke="none"/>
    <path d="M-2.2 -3.45 Q-1.2 -4.55 0.7 -4.3 1.65 -4.15 2.3 -3.8 L1.8 -1.85 -0.95 -2.15 -2.1 -1.5 -2.2 -3.45 M-3.1 9.0 L-3.3 8.9 -2.05 6.7 -2.6 4.7 -1.9 2.75 -2.1 0.4 -1.05 -0.05 1.6 0.55 2.65 2.25 2.65 3.9 0.0 3.9 0.35 7.95 -1.65 9.85 -3.1 9.0" fill="#333333" fill-rule="evenodd" stroke="none"/>
    <path d="M2.3 -3.8 Q1.65 -4.15 0.7 -4.3 -1.2 -4.55 -2.2 -3.45 L-2.1 -1.5 -0.95 -2.15 1.8 -1.85 2.3 -3.8 2.7 -4.3 3.65 -5.6 6.6 -2.3 6.6 2.95 5.15 2.85 2.65 2.25 1.6 0.55 -1.05 -0.05 -2.1 0.4 -1.9 2.75 -2.6 4.7 -2.05 6.7 -3.3 8.9 -4.95 7.95 -4.3 6.05 -4.45 5.2 -5.85 5.7 -6.35 4.25 -4.8 3.65 -5.1 2.3 -7.2 2.25 -7.3 0.0 -5.15 -0.15 -5.05 -1.45 -7.4 -2.3 -6.2 -5.15 -3.7 -4.05 -2.2 -3.45 M5.2 5.3 L6.6 5.5 6.6 9.55 5.05 9.45 3.55 9.5 1.8 7.65 1.3 5.3 3.1 5.0 5.2 5.3 M-3.1 9.0 L-3.3 8.9 M-3.1 9.0 L-1.65 9.85 0.35 7.95 0.0 3.9 2.65 3.9 2.65 2.25 M-2.1 0.4 L-3.15 0.85 -3.25 -0.9 -2.1 -1.5" fill="none" stroke="#141c1f" stroke-linecap="round" stroke-linejoin="round" stroke-width="1.0"/>
    <path d="M2.7 -4.3 Q1.3 -5.25 -0.8 -5.1 -2.7 -4.95 -3.7 -4.05 M5.15 2.85 L5.2 5.3 M5.05 9.45 L4.85 11.5 Q4.1 14.7 1.25 14.3 -1.6 13.9 -2.65 11.5 -2.8 10.2 -3.1 9.0" fill="none" stroke="#17241f" stroke-linecap="round" stroke-linejoin="round" stroke-width="1.0"/>
  </g>
</svg>
