<?xml version="1.0" encoding="UTF-8" standalone="no"?>
<svg xmlns:xlink="http://www.w3.org/1999/xlink" height="20.35px" width="22.3px" xmlns="http://www.w3.org/2000/svg">
  <g transform="matrix(1.0, 0.0, 0.0, 1.0, 9.05, 17.95)">
    <path d="M7.35 -3.85 Q7.5 -2.9 8.05 -2.2 7.75 -1.85 6.7 -1.7 L5.3 -1.25 3.35 0.3 1.35 0.15 -1.1 -4.6 Q-0.2 -4.3 3.5 -5.5 L7.35 -3.85" fill="#2d1d32" fill-rule="evenodd" stroke="none"/>
    <path d="M1.25 -14.05 L4.6 -12.8 1.25 -10.45 0.65 -10.8 -1.7 -11.2 Q-4.6 -12.0 1.25 -14.05" fill="#0d0c22" fill-rule="evenodd" stroke="none"/>
    <path d="M9.7 -13.7 Q11.5 -12.05 11.25 -11.55 L9.0 -12.35 6.35 -12.85 3.2 -13.5 0.1 -13.95 Q-1.55 -13.65 -2.35 -12.0 -3.2 -10.35 -2.4 -8.6 L-2.35 -10.25 0.5 -10.45 Q2.25 -9.7 2.9 -8.1 3.45 -6.65 2.85 -5.85 L1.35 -5.45 Q-0.7 -4.8 -0.65 -4.15 -0.55 -3.3 0.35 -2.0 1.35 -0.6 2.35 0.15 L3.3 0.1 Q4.25 -0.2 5.2 -1.15 L6.5 -1.25 Q7.65 -1.25 7.8 -1.7 7.95 -2.1 7.4 -3.35 6.85 -4.6 7.1 -4.75 8.7 -6.0 11.35 -5.9 13.05 -5.2 12.55 -2.4 12.05 0.4 10.65 0.1 L9.6 -0.3 Q8.7 -0.75 8.75 -0.3 8.75 0.45 8.2 1.2 7.6 1.95 6.75 1.8 L0.7 1.4 -2.4 1.15 -2.35 -0.7 -6.8 -5.45 Q-7.65 -6.55 -7.4 -7.55 -7.15 -8.4 -7.7 -8.85 -8.3 -9.1 -8.3 -9.95 L-7.95 -11.65 Q-7.65 -11.95 -7.4 -13.4 L-7.1 -15.2 -5.4 -14.45 -3.95 -15.6 Q-2.8 -16.0 -1.7 -16.5 -2.75 -17.8 1.65 -17.1 5.85 -16.45 7.2 -15.6 7.95 -15.35 9.7 -13.7" fill="url(#gradient0)" fill-rule="evenodd" stroke="none"/>
    <path d="M8.0 -12.6 L9.45 -9.9 Q10.25 -7.85 10.65 -5.6 L8.85 -4.65 Q8.15 -4.35 5.9 -4.65 3.55 -4.9 3.05 -5.4 3.4 -6.65 2.7 -8.2 1.95 -9.9 0.4 -10.45 1.35 -10.6 2.5 -11.65 L4.55 -13.2 8.0 -12.6" fill="url(#gradient1)" fill-rule="evenodd" stroke="none"/>
    <path d="M5.2 0.85 L5.25 1.0 5.65 1.85 -1.45 1.75 Q-2.6 1.55 -2.05 -0.6 L-5.2 -3.85 Q-7.2 -5.55 -7.45 -7.85 -8.1 -8.05 -8.1 -9.95 L-8.3 -10.7 -8.55 -11.45 -8.15 -11.65 -7.65 -11.75 Q-7.5 -12.05 -7.85 -12.75 L-8.0 -13.6 -7.1 -13.55 -6.75 -13.5 -7.0 -14.65 -7.0 -15.45 -5.1 -14.95 Q-4.2 -16.05 -2.3 -16.8 -0.45 -17.55 0.95 -17.45 L3.45 -16.9 6.65 -15.4 Q10.65 -14.9 11.9 -10.85 9.1 -12.95 7.9 -12.5 L5.5 -12.8 4.4 -13.1 Q2.9 -11.85 1.8 -11.35 L0.65 -10.85 0.55 -10.5 0.45 -10.1 Q2.9 -10.1 2.9 -5.9 3.65 -5.2 5.3 -4.55 L6.45 -4.05 6.7 -4.05 7.25 -3.95 8.9 -4.25 9.25 -4.7 9.65 -5.25 10.6 -5.6 11.95 -5.7 Q12.95 -3.85 12.7 -2.95 L11.35 0.25 10.35 0.25 10.1 -0.25 9.3 -0.65 Q8.75 -0.7 8.9 -0.4 9.15 0.1 8.7 0.85 8.25 1.65 7.2 1.9 L5.95 1.55 5.2 0.85 4.95 0.3 Q4.6 -1.0 5.75 -1.5 L5.9 -1.65 6.7 -1.8 Q7.5 -1.85 8.0 -1.15 M7.25 -3.95 L6.7 -3.9 7.65 -3.25 8.35 -2.55 7.45 -3.85 7.25 -3.95 M6.45 -4.05 L6.7 -3.9 6.35 -4.0 6.45 -4.05 M5.75 -1.5 L5.95 -1.65 6.7 -1.8 M8.35 -2.55 L8.35 -1.4 8.2 -0.9 8.45 -1.4 8.35 -2.55 M5.2 0.85 L4.95 0.2 Q5.0 -1.05 5.75 -1.5" fill="none" stroke="#070714" stroke-linecap="round" stroke-linejoin="round" stroke-width="1.0"/>
    <path d="M11.4 -11.1 L8.65 -12.4 7.05 -12.4 Q6.85 -12.4 7.6 -13.75 8.25 -15.2 8.0 -15.15 M9.85 -0.45 L10.4 -1.75 Q10.85 -2.7 10.8 -3.45 L10.05 -4.65 Q9.5 -5.15 9.7 -5.2 M-3.25 -13.85 L-3.45 -14.0 Q-4.85 -15.15 -4.95 -15.0 L-3.5 -14.0 -3.25 -13.85 -2.1 -13.0 -2.0 -13.0 Q-0.95 -13.75 0.35 -14.1 L2.5 -13.4 3.45 -13.45 M-2.1 -13.0 Q-2.45 -12.6 -2.25 -10.9 L-2.2 -10.65 1.05 -10.55 M-7.7 -8.3 Q-7.75 -8.5 -5.65 -8.9 L-2.8 -9.35 -2.65 -9.4 -2.6 -10.55 -2.2 -10.65 Q-2.15 -9.6 -2.65 -9.4 L-2.55 -5.65 -1.45 -4.5 3.2 -5.7 Q3.3 -5.4 1.55 -5.05 L-1.35 -4.4 -0.8 -3.85 0.25 -2.7 0.65 -1.2 Q0.75 -0.45 1.35 0.0 L3.8 0.05 4.8 -0.8" fill="none" stroke="#070714" stroke-linecap="round" stroke-linejoin="round" stroke-width="1.0"/>
    <path d="M8.35 -12.05 Q9.1 -11.2 9.75 -9.35 10.45 -7.5 10.65 -5.9" fill="none" stroke="#110e4f" stroke-linecap="round" stroke-linejoin="round" stroke-opacity="0.7019608" stroke-width="1.0"/>
    <path d="M1.2 -0.7 Q-0.25 -0.3 -2.0 -1.2 -3.7 -2.1 -4.55 -3.75 -4.25 -4.95 -2.8 -4.4 -2.15 -2.9 -1.05 -2.45 L1.25 -2.2 Q2.4 -2.35 2.35 -1.45 2.35 -0.6 1.2 -0.7" fill="#523675" fill-rule="evenodd" stroke="none"/>
    <path d="M1.2 -0.7 Q-0.25 -0.3 -2.0 -1.2 -3.7 -2.1 -4.55 -3.75 -4.25 -4.95 -2.8 -4.4 -2.15 -2.9 -1.05 -2.45 L1.25 -2.2 Q2.4 -2.35 2.35 -1.45 2.35 -0.6 1.2 -0.7 Z" fill="none" stroke="#1d112c" stroke-linecap="round" stroke-linejoin="round" stroke-width="1.0"/>
    <path d="M9.5 -8.4 Q9.8 -6.9 10.25 -5.7 9.0 -5.95 8.75 -4.7 L7.1 -4.4 Q6.15 -4.55 5.2 -5.0 L3.3 -6.0 Q3.35 -8.35 2.7 -9.3 2.25 -9.95 0.9 -10.5 2.45 -11.0 3.45 -11.75 L4.55 -12.75 5.6 -12.35 7.8 -12.1 8.55 -10.8 9.5 -8.4 Z" fill="none" stroke="#b225e9" stroke-linecap="round" stroke-linejoin="round" stroke-opacity="0.3372549" stroke-width="1.0"/>
  </g>
  <defs>
    <linearGradient gradientTransform="matrix(0.0023, 0.0024, -0.0024, 0.0023, 5.95, -11.55)" gradientUnits="userSpaceOnUse" id="gradient0" spreadMethod="pad" x1="-819.2" x2="819.2">
      <stop offset="0.0" stop-color="#16152b"/>
      <stop offset="1.0" stop-color="#200a3c"/>
    </linearGradient>
    <radialGradient cx="0" cy="0" gradientTransform="matrix(0.0128, -8.0E-4, 7.0E-4, 0.0112, 6.4, -8.55)" gradientUnits="userSpaceOnUse" id="gradient1" r="819.2" spreadMethod="pad">
      <stop offset="0.0" stop-color="#ffffff"/>
      <stop offset="1.0" stop-color="#9845ac"/>
    </radialGradient>
  </defs>
</svg>
