<?xml version="1.0" encoding="UTF-8" standalone="no"?>
<svg xmlns:ffdec="https://www.free-decompiler.com/flash" xmlns:xlink="http://www.w3.org/1999/xlink" ffdec:objectType="shape" height="18.55px" width="19.1px" xmlns="http://www.w3.org/2000/svg">
  <g transform="matrix(1.0, 0.0, 0.0, 1.0, 6.45, 16.15)">
    <path d="M-5.25 -5.25 L-3.85 -4.7 -3.2 -3.05 -0.55 -1.85 0.5 -2.3 3.15 -2.25 3.75 -1.3 3.7 -1.25 Q3.15 -0.7 3.15 0.05 3.15 0.55 3.4 0.95 L0.55 0.9 -1.0 -0.25 -4.15 -0.65 -5.25 -5.25" fill="#444a50" fill-rule="evenodd" stroke="none"/>
    <path d="M-5.55 -8.65 Q-5.4 -11.05 -3.65 -12.9 -2.15 -14.5 -0.35 -14.95 L-0.9 -12.3 -3.75 -9.2 -5.55 -8.65" fill="#44494f" fill-rule="evenodd" stroke="none"/>
    <path d="M-5.25 -5.25 L-4.15 -0.65 -1.0 -0.25 0.55 0.9 3.4 0.95" fill="none" stroke="#181c1f" stroke-linecap="round" stroke-linejoin="round" stroke-width="1.0"/>
    <path d="M-0.35 -14.95 Q-2.15 -14.5 -3.65 -12.9 -5.4 -11.05 -5.55 -8.65" fill="none" stroke="#1c1d21" stroke-linecap="round" stroke-linejoin="round" stroke-width="1.0"/>
    <path d="M1.85 -9.55 L1.55 -9.55 1.85 -9.55 M10.7 -8.15 L4.6 -8.6 3.55 -10.55 1.1 -11.4 3.55 -10.55 4.6 -8.6 10.7 -8.15 M3.2 -7.5 L3.2 -8.3 2.45 -8.5 1.65 -8.2 0.05 -8.8 0.05 -9.8 -0.85 -9.8 -3.2 -7.6 -3.35 -6.0 -2.35 -5.6 -1.9 -4.55 0.0 -3.95 1.0 -4.25 3.2 -4.25 3.2 -5.95 11.25 -5.55 11.65 -5.55 12.05 -4.35 Q12.35 -2.95 11.85 -1.7 L10.5 1.4 Q9.4 1.75 6.25 1.4 L6.3 1.35 Q6.85 0.8 6.85 0.05 6.85 -0.7 6.3 -1.25 5.75 -1.8 5.0 -1.8 4.3 -1.8 3.75 -1.3 L3.15 -2.25 0.5 -2.3 -0.55 -1.85 -3.2 -3.05 -3.85 -4.7 -5.95 -5.55 -5.9 -8.55 -3.75 -9.2 -0.9 -12.3 -0.3 -15.25 Q3.55 -16.35 7.8 -14.5 11.95 -12.1 12.15 -9.15 L11.65 -6.95 11.45 -6.95 3.2 -7.5 M4.6 -3.35 L4.8 -4.65 10.35 -4.35 4.8 -4.65 4.6 -3.35 M8.7 -1.3 L8.25 0.35 8.7 -1.3 M10.1 -1.35 L9.65 0.3 10.1 -1.35" fill="#666e78" fill-rule="evenodd" stroke="none"/>
    <path d="M3.75 -1.3 Q4.3 -1.8 5.0 -1.8 5.75 -1.8 6.3 -1.25 6.85 -0.7 6.85 0.05 6.85 0.8 6.3 1.35 L6.25 1.4 Q5.7 1.9 5.0 1.9 4.25 1.9 3.7 1.35 L3.4 0.95 Q3.15 0.55 3.15 0.05 3.15 -0.7 3.7 -1.25 L3.75 -1.3" fill="#565c64" fill-rule="evenodd" stroke="none"/>
    <path d="M3.2 -7.5 L11.45 -6.95 11.25 -5.55 3.2 -5.95 3.2 -7.5" fill="#1878d9" fill-rule="evenodd" stroke="none"/>
    <path d="M1.55 -9.55 L1.85 -9.55 M3.75 -1.3 Q4.3 -1.8 5.0 -1.8 5.75 -1.8 6.3 -1.25 6.85 -0.7 6.85 0.05 6.85 0.8 6.3 1.35 L6.25 1.4 Q5.7 1.9 5.0 1.9 4.25 1.9 3.7 1.35 L3.4 0.95 Q3.15 0.55 3.15 0.05 3.15 -0.7 3.7 -1.25 L3.75 -1.3" fill="none" stroke="#292c31" stroke-linecap="round" stroke-linejoin="round" stroke-width="1.0"/>
    <path d="M1.1 -11.4 L3.55 -10.55 4.6 -8.6 10.7 -8.15 M10.35 -4.35 L4.8 -4.65 4.6 -3.35" fill="none" stroke="#4e555d" stroke-linecap="round" stroke-linejoin="round" stroke-width="1.0"/>
    <path d="M3.2 -7.5 L11.45 -6.95 11.65 -6.95 12.15 -9.15 Q11.95 -12.1 7.8 -14.5 3.55 -16.35 -0.3 -15.25 M-5.9 -8.55 L-5.95 -5.55 -3.85 -4.7 -3.2 -3.05 -0.55 -1.85 0.5 -2.3 3.15 -2.25 3.75 -1.3 M6.25 1.4 Q9.4 1.75 10.5 1.4 L11.85 -1.7 Q12.35 -2.95 12.05 -4.35 L11.65 -5.55 11.25 -5.55 3.2 -5.95" fill="none" stroke="#2a2d31" stroke-linecap="round" stroke-linejoin="round" stroke-width="1.0"/>
    <path d="M9.65 0.3 L10.1 -1.35 M8.25 0.35 L8.7 -1.3" fill="none" stroke="#2a2e33" stroke-linecap="round" stroke-linejoin="round" stroke-width="1.0"/>
    <path d="M-0.3 -15.25 L-0.9 -12.3 -3.75 -9.2 -5.9 -8.55" fill="none" stroke="#34393d" stroke-linecap="round" stroke-linejoin="round" stroke-width="1.0"/>
    <path d="M2.95 -3.9 L0.75 -3.9 -0.25 -3.6 -2.15 -4.2 -2.6 -5.25 -3.6 -5.65 -3.45 -7.25" fill="none" stroke="#525b66" stroke-linecap="round" stroke-linejoin="round" stroke-width="1.0"/>
    <path d="M0.05 -8.8 L1.65 -8.2 2.45 -8.5 3.2 -8.3 3.2 -4.25 1.0 -4.25 0.0 -3.95 -1.9 -4.55 -2.35 -5.6 -3.35 -6.0 -3.2 -7.6 -0.85 -9.8 0.05 -9.8 0.05 -8.8 M0.8 -7.1 L0.05 -7.4 -0.55 -7.2 -0.7 -7.1 -1.0 -6.35 -0.7 -5.6 Q-0.4 -5.3 0.05 -5.3 L0.45 -5.35 0.8 -5.6 1.1 -6.35 0.8 -7.1" fill="#7a848e" fill-rule="evenodd" stroke="none"/>
    <path d="M0.8 -7.1 L1.1 -6.35 0.8 -5.6 0.45 -5.35 0.05 -5.3 Q-0.4 -5.3 -0.7 -5.6 L-1.0 -6.35 -0.7 -7.1 -0.55 -7.2 0.05 -7.4 0.8 -7.1" fill="#525961" fill-rule="evenodd" stroke="none"/>
    <path d="M0.05 -8.8 L1.65 -8.2 2.45 -8.5 3.2 -8.3 3.2 -4.25 1.0 -4.25 0.0 -3.95 -1.9 -4.55 -2.35 -5.6 -3.35 -6.0 -3.2 -7.6 -0.85 -9.8 0.05 -9.8 0.05 -8.8" fill="none" stroke="#2f343b" stroke-linecap="round" stroke-linejoin="round" stroke-width="1.0"/>
    <path d="M0.8 -7.1 L1.1 -6.35 0.8 -5.6 0.45 -5.35 0.05 -5.3 Q-0.4 -5.3 -0.7 -5.6 L-1.0 -6.35 -0.7 -7.1 -0.55 -7.2 0.05 -7.4 0.8 -7.1 Z" fill="none" stroke="#32373d" stroke-linecap="round" stroke-linejoin="round" stroke-width="1.0"/>
    <path d="M-0.55 -7.2 L0.75 -5.35" fill="none" stroke="#32373d" stroke-linecap="round" stroke-linejoin="round" stroke-width="0.5"/>
  </g>
</svg>
