<?xml version="1.0" encoding="UTF-8" standalone="no"?>
<svg xmlns:ffdec="https://www.free-decompiler.com/flash" xmlns:xlink="http://www.w3.org/1999/xlink" ffdec:objectType="shape" height="12.1px" width="17.2px" xmlns="http://www.w3.org/2000/svg">
  <g transform="matrix(1.0, 0.0, 0.0, 1.0, 0.5, 0.5)">
    <path d="M11.9 4.7 L11.8 4.7 11.5 4.45 11.8 4.7 11.9 4.7 13.6 4.15 Q15.55 4.9 16.2 5.55 L16.2 8.2 15.15 9.25 11.35 9.3 10.25 8.7 7.3 8.3 7.4 6.75 8.45 5.85 10.6 4.15 11.5 4.45 11.9 4.55 11.9 4.7" fill="#202020" fill-rule="evenodd" stroke="none"/>
    <path d="M7.3 8.3 L10.25 8.7 11.35 9.3 15.15 9.25 15.3 10.0 14.3 11.1 10.7 11.1 9.6 10.15 8.25 9.95 6.75 11.1 0.5 11.1 0.5 9.65 4.0 9.6 6.25 9.55 7.3 8.3" fill="#251616" fill-rule="evenodd" stroke="none"/>
    <path d="M10.6 4.15 L8.45 5.85 5.0 2.8 4.95 0.0 8.0 0.05 8.05 2.05 8.6 2.5 9.6 3.3 10.6 4.15 M7.4 3.5 L8.6 2.5 7.4 3.5 M8.4 4.2 L9.6 3.3 8.4 4.2" fill="#2c2c2c" fill-rule="evenodd" stroke="none"/>
    <path d="M8.45 5.85 L7.4 6.75 7.3 8.3 6.25 9.55 4.0 9.6 2.65 7.7 0.0 6.35 0.0 5.8 1.0 4.55 0.45 0.0 4.95 0.0 5.0 2.8 8.45 5.85" fill="#2a0000" fill-rule="evenodd" stroke="none"/>
    <path d="M0.5 9.65 L0.0 6.35 2.65 7.7 4.0 9.6 0.5 9.65" fill="#1c1c1c" fill-rule="evenodd" stroke="none"/>
    <path d="M11.5 4.45 L11.8 4.7 11.9 4.7 13.6 4.15 Q15.55 4.9 16.2 5.55 L16.2 8.2 15.15 9.25 15.3 10.0 14.3 11.1 10.7 11.1 9.6 10.15 8.25 9.95 6.75 11.1 0.5 11.1 0.5 9.65 0.0 6.35 0.0 5.8 1.0 4.55 0.45 0.0 4.95 0.0 8.0 0.05 8.05 2.05 8.6 2.5 9.6 3.3 10.6 4.15 8.45 5.85 7.4 6.75 7.3 8.3 10.25 8.7 11.35 9.3 15.15 9.25 M11.9 4.55 L11.5 4.45 10.6 4.15 M9.6 3.3 L8.4 4.2 M8.6 2.5 L7.4 3.5 M4.95 0.0 L5.0 2.8 8.45 5.85 M4.0 9.6 L0.5 9.65 M0.0 6.35 L2.65 7.7 4.0 9.6 6.25 9.55 7.3 8.3" fill="none" stroke="#090909" stroke-linecap="round" stroke-linejoin="round" stroke-width="1.0"/>
  </g>
</svg>
