<?xml version="1.0" encoding="UTF-8" standalone="no"?>
<svg xmlns:ffdec="https://www.free-decompiler.com/flash" xmlns:xlink="http://www.w3.org/1999/xlink" ffdec:objectType="shape" height="15.25px" width="24.25px" xmlns="http://www.w3.org/2000/svg">
  <g transform="matrix(1.0, 0.0, 0.0, 1.0, 8.85, 8.1)">
    <path d="M3.25 -5.3 L3.75 -4.25 Q3.75 -2.95 4.6 -1.55 L4.95 -1.0 5.2 -0.45 5.0 0.4 6.15 1.0 6.4 1.3 6.2 1.7 4.3 2.8 1.45 3.9 -0.3 3.75 -3.3 3.2 -3.85 2.6 -3.75 2.0 -4.7 1.5 -5.0 1.3 -5.25 0.95 -4.35 -0.1 Q-3.95 -0.6 -3.95 -1.35 -4.0 -1.95 -3.0 -2.8 L-1.95 -3.65 -1.15 -4.6 -0.5 -6.55 -0.15 -7.3 0.0 -7.35 Q2.25 -6.5 3.25 -5.3" fill="#d27e02" fill-rule="evenodd" stroke="none"/>
    <path d="M-5.65 1.1 L-4.6 0.05 Q-4.05 -0.6 -4.15 -1.2 -4.25 -2.1 -2.75 -3.15 -1.2 -4.35 -1.15 -5.15 -0.5 -6.75 -0.35 -7.6 3.2 -6.4 3.95 -4.45 3.8 -3.5 4.35 -2.35 L5.6 -0.3" fill="none" stroke="#653d01" stroke-linecap="round" stroke-linejoin="round" stroke-width="1.0"/>
    <path d="M-1.75 1.8 L0.1 0.35 0.6 -0.35 0.7 -0.35 4.35 -0.1 4.65 -0.1 5.0 0.0 5.05 0.45 5.85 0.85 6.4 1.2 6.25 1.7 3.4 3.2 1.4 3.9 -1.75 3.55 -3.3 3.2 -3.85 2.7 -3.6 2.2 -2.55 2.15 -1.75 1.8" fill="#252525" fill-rule="evenodd" stroke="none"/>
    <path d="M-3.85 3.4 L-3.45 3.45 -0.8 3.95 -0.5 4.05 Q-0.3 4.2 -0.45 4.4 L-0.8 4.5 -1.3 4.55 -1.5 5.2 -1.6 5.6 -1.85 5.85 -3.95 5.5 -4.1 5.2 -3.95 4.9 -3.8 4.6 -3.85 4.25 -3.9 3.85 -3.85 3.4" fill="url(#gradient0)" fill-rule="evenodd" stroke="none"/>
    <path d="M-3.9 3.05 L-3.25 3.4 2.55 4.25 M-4.35 5.35 L-4.05 5.7 -3.65 5.75 -1.25 6.05" fill="none" stroke="#050505" stroke-linecap="round" stroke-linejoin="round" stroke-width="1.0"/>
    <path d="M-1.45 6.1 L-1.05 4.9 0.7 4.45 Q3.95 3.5 6.45 1.95 L6.75 1.05 6.05 0.6 5.6 0.4 Q5.35 0.2 5.4 0.0 L6.95 -1.55 7.05 -1.55 7.8 -1.05 8.5 -0.65 9.3 -0.45 Q12.2 0.3 13.5 2.9 14.45 4.65 14.7 6.05 L14.6 6.35 Q14.5 6.5 14.25 6.45 6.1 6.15 -0.75 6.4 -1.45 6.55 -1.45 6.1" fill="#252525" fill-rule="evenodd" stroke="none"/>
    <path d="M-1.35 5.65 Q7.4 4.65 14.55 5.85" fill="none" stroke="#030303" stroke-linecap="round" stroke-linejoin="round" stroke-opacity="0.9764706" stroke-width="1.0"/>
    <path d="M-1.3 4.75 Q2.35 4.25 6.45 1.75 L6.65 1.05 5.1 0.35 5.25 -0.2 7.1 -1.85 8.3 -0.85 Q11.35 -0.3 13.0 1.7 14.15 3.25 14.9 6.05 L14.85 6.65 Q5.6 6.2 -1.85 6.6 -1.45 5.85 -1.3 4.75 Z" fill="none" stroke="#050505" stroke-linecap="round" stroke-linejoin="round" stroke-width="1.0"/>
    <path d="M-6.1 0.7 L-5.95 0.75 -4.75 1.85 -4.35 2.05 -4.1 2.3 -4.15 4.4 Q-4.05 4.65 -4.5 5.05 L-4.7 5.55 -4.7 5.95 -4.8 6.3 -5.85 6.3 -6.3 6.3 -6.65 6.05 Q-6.85 5.45 -7.7 5.55 L-8.05 5.45 -8.15 5.0 -7.65 3.85 -7.35 2.35 -7.4 1.85 -7.15 1.45 -6.1 0.7" fill="#252525" fill-rule="evenodd" stroke="none"/>
    <path d="M-6.7 0.85 L-7.6 1.6 Q-7.15 3.35 -8.35 5.0 L-8.1 5.75 -7.15 5.75 Q-6.85 5.9 -6.7 6.45 L-4.25 6.5 -4.55 6.0 -4.55 5.35 -3.95 4.7 Q-4.2 3.05 -3.9 2.1 -5.4 1.5 -5.95 0.4 L-6.7 0.85 Z" fill="none" stroke="#050505" stroke-linecap="round" stroke-linejoin="round" stroke-width="1.0"/>
    <path d="M-3.75 2.0 L-2.55 2.0 -0.95 1.15 Q-0.1 0.55 0.45 -0.45 L5.25 -0.2" fill="none" stroke="#050505" stroke-linecap="round" stroke-linejoin="round" stroke-width="1.0"/>
  </g>
  <defs>
    <linearGradient gradientTransform="matrix(2.0E-4, 0.0013, -0.0013, 2.0E-4, -2.2, 4.6)" gradientUnits="userSpaceOnUse" id="gradient0" spreadMethod="pad" x1="-819.2" x2="819.2">
      <stop offset="0.0" stop-color="#797979"/>
      <stop offset="0.5294117647058824" stop-color="#e4e4e4"/>
      <stop offset="1.0" stop-color="#6f6f6f"/>
    </linearGradient>
  </defs>
</svg>
