<?xml version="1.0" encoding="UTF-8" standalone="no"?>
<svg xmlns:xlink="http://www.w3.org/1999/xlink" height="23.55px" width="33.0px" xmlns="http://www.w3.org/2000/svg">
  <g transform="matrix(1.0, 0.0, 0.0, 1.0, -6.9, 12.35)">
    <path d="M32.9 -3.15 Q39.9 -2.05 39.9 -0.45 39.9 1.1 32.9 2.2 L16.0 3.3 14.35 3.3 14.35 -4.25 16.0 -4.25 32.9 -3.15" fill="url(#gradient0)" fill-rule="evenodd" stroke="none"/>
    <path d="M17.7 11.15 L16.95 11.2 Q12.75 11.2 9.8 7.75 6.9 4.25 6.9 -0.55 6.9 -5.45 9.8 -8.9 12.75 -12.35 16.95 -12.35 L17.7 -12.3 17.7 11.15" fill="url(#gradient1)" fill-rule="evenodd" stroke="none"/>
    <path d="M17.7 -12.3 L18.35 -12.35 Q22.5 -12.35 25.5 -8.9 28.45 -5.45 28.45 -0.55 28.45 4.25 25.5 7.75 22.5 11.2 18.35 11.2 L17.7 11.15 17.7 -12.3" fill="url(#gradient2)" fill-rule="evenodd" stroke="none"/>
  </g>
  <defs>
    <radialGradient cx="0" cy="0" gradientTransform="matrix(0.0, 0.0041, -0.0292, 0.0, 15.95, -0.45)" gradientUnits="userSpaceOnUse" id="gradient0" r="819.2" spreadMethod="pad">
      <stop offset="0.17647058823529413" stop-color="#ffffff"/>
      <stop offset="1.0" stop-color="#ffb711" stop-opacity="0.0"/>
    </radialGradient>
    <radialGradient cx="0" cy="0" gradientTransform="matrix(0.0, 0.0128, 0.0123, 0.0, 16.95, -0.6)" gradientUnits="userSpaceOnUse" id="gradient1" r="819.2" spreadMethod="pad">
      <stop offset="0.17647058823529413" stop-color="#ffffff"/>
      <stop offset="1.0" stop-color="#ff8811" stop-opacity="0.0"/>
    </radialGradient>
    <radialGradient cx="0" cy="0" gradientTransform="matrix(0.0, 0.0128, -0.0123, 0.0, 18.35, -0.6)" gradientUnits="userSpaceOnUse" id="gradient2" r="819.2" spreadMethod="pad">
      <stop offset="0.17647058823529413" stop-color="#ffffff"/>
      <stop offset="1.0" stop-color="#ff8811" stop-opacity="0.0"/>
    </radialGradient>
  </defs>
</svg>
