<?xml version="1.0" encoding="UTF-8" standalone="no"?>
<svg xmlns:ffdec="https://www.free-decompiler.com/flash" xmlns:xlink="http://www.w3.org/1999/xlink" ffdec:objectType="shape" height="8.75px" width="18.3px" xmlns="http://www.w3.org/2000/svg">
  <g transform="matrix(1.0, 0.0, 0.0, 1.0, 8.35, 1.6)">
    <path d="M3.15 2.35 Q3.4 2.8 4.5 2.9 L5.75 2.55 Q8.55 3.4 9.55 5.15 L9.15 6.75 0.85 6.75 0.05 5.7 -2.15 5.7 -3.1 6.75 -7.6 6.45 -7.95 5.35 -7.9 4.4 -7.3 3.6 -6.45 3.6 -4.6 0.1 1.45 0.05 3.15 2.35" fill="#13161a" fill-rule="evenodd" stroke="none"/>
    <path d="M8.7 4.05 L9.4 5.1 9.15 6.7 1.1 6.7 0.05 5.7 -2.25 5.7 -3.3 6.85 -7.9 6.25 -7.8 4.55 -3.65 5.3 0.25 4.75 5.25 5.35 8.7 4.05" fill="#0a0d1b" fill-opacity="0.7137255" fill-rule="evenodd" stroke="none"/>
    <path d="M3.15 2.35 Q3.4 2.8 4.5 2.9 L5.75 2.55 Q8.55 3.4 9.55 5.15 L9.15 6.75 0.85 6.75 0.05 5.7 -2.15 5.7 -3.1 6.75 -7.6 6.45 -7.95 5.35 -7.9 4.4 -7.3 3.6 -6.45 3.6 -4.6 0.1 1.45 0.05 3.15 2.35 Z" ffdec:has-small-stroke="true" ffdec:original-stroke-width="0.8" fill="none" stroke="#000000" stroke-linecap="round" stroke-linejoin="round" stroke-width="1.0"/>
    <path d="M-3.45 0.8 L-1.3 -1.2 1.1 0.85 Q1.3 2.7 1.1 3.5 0.75 4.9 -1.05 5.7 L-3.1 4.5 Q-4.3 3.35 -3.45 0.8" fill="#0d1012" fill-rule="evenodd" stroke="none"/>
    <path d="M-3.45 0.8 Q-4.3 3.35 -3.1 4.5 L-1.05 5.7 Q0.75 4.9 1.1 3.5 1.3 2.7 1.1 0.85 L-1.3 -1.2 -3.45 0.8 Z" ffdec:has-small-stroke="true" ffdec:original-stroke-width="0.8" fill="none" stroke="#000000" stroke-linecap="round" stroke-linejoin="round" stroke-width="1.0"/>
  </g>
</svg>
