<?xml version="1.0" encoding="UTF-8" standalone="no"?>
<svg xmlns:xlink="http://www.w3.org/1999/xlink" height="14.7px" width="49.1px" xmlns="http://www.w3.org/2000/svg">
  <g transform="matrix(1.0, 0.0, 0.0, 1.0, -9.75, 7.1)">
    <path d="M19.2 -7.1 L32.4 -6.7 47.25 -4.95 Q58.85 -2.8 58.85 0.25 58.85 3.25 47.25 5.45 L32.4 7.2 19.2 7.6 17.4 7.6 17.05 7.6 17.05 -7.1 17.4 -7.1 19.2 -7.1" fill="url(#gradient0)" fill-rule="evenodd" stroke="none"/>
    <path d="M16.65 5.85 L16.15 5.85 Q13.45 5.85 11.65 4.2 9.75 2.5 9.75 0.15 9.75 -2.2 11.65 -3.85 13.45 -5.55 16.15 -5.55 L16.65 -5.5 16.65 5.85" fill="url(#gradient1)" fill-rule="evenodd" stroke="none"/>
    <path d="M16.65 -5.5 L17.1 -5.55 Q19.75 -5.55 21.65 -3.85 23.55 -2.2 23.55 0.15 23.55 2.5 21.65 4.2 19.75 5.85 17.1 5.85 L16.65 5.85 16.65 -5.5" fill="url(#gradient2)" fill-rule="evenodd" stroke="none"/>
  </g>
  <defs>
    <radialGradient cx="0" cy="0" gradientTransform="matrix(0.0, 0.008, -0.0484, 0.0, 19.15, 0.25)" gradientUnits="userSpaceOnUse" id="gradient0" r="819.2" spreadMethod="pad">
      <stop offset="0.0" stop-color="#ffffff"/>
      <stop offset="0.5372549019607843" stop-color="#ffad33" stop-opacity="0.0"/>
      <stop offset="1.0" stop-color="#000a5e" stop-opacity="0.0"/>
    </radialGradient>
    <radialGradient cx="0" cy="0" gradientTransform="matrix(0.0, 0.0062, 0.0079, 0.0, 16.15, 0.15)" gradientUnits="userSpaceOnUse" id="gradient1" r="819.2" spreadMethod="pad">
      <stop offset="0.17647058823529413" stop-color="#ffffff"/>
      <stop offset="1.0" stop-color="#ff8811" stop-opacity="0.0"/>
    </radialGradient>
    <radialGradient cx="0" cy="0" gradientTransform="matrix(0.0, 0.0062, -0.0079, 0.0, 17.0, 0.15)" gradientUnits="userSpaceOnUse" id="gradient2" r="819.2" spreadMethod="pad">
      <stop offset="0.17647058823529413" stop-color="#ffffff"/>
      <stop offset="1.0" stop-color="#ff8811" stop-opacity="0.0"/>
    </radialGradient>
  </defs>
</svg>
