<?xml version="1.0" encoding="UTF-8" standalone="no"?>
<svg xmlns:ffdec="https://www.free-decompiler.com/flash" xmlns:xlink="http://www.w3.org/1999/xlink" ffdec:objectType="shape" height="12.1px" width="19.4px" xmlns="http://www.w3.org/2000/svg">
  <g transform="matrix(1.0, 0.0, 0.0, 1.0, 7.1, 5.05)">
    <path d="M-6.6 3.75 L-3.45 3.8 -2.4 2.1 -3.8 -0.7 -2.9 -2.1 2.1 -0.55 3.8 2.7 7.95 3.8 9.8 2.8 7.95 3.8 3.8 2.7 2.1 -0.55 -2.9 -2.1 -3.8 -0.7 -2.4 2.1 -3.45 3.8 -6.6 3.75 -4.4 -2.95 -2.25 -4.55 2.75 -3.05 9.15 1.95 9.8 2.8 11.8 5.5 10.5 6.55 1.3 6.3 0.2 4.4 -1.85 4.4 -3.05 5.95 -5.55 5.9 -6.6 3.75" fill="#202020" fill-rule="evenodd" stroke="none"/>
    <path d="M-6.6 3.75 L-5.55 5.9 -3.05 5.95 -1.85 4.4 0.2 4.4 1.3 6.3 10.5 6.55 11.8 5.5 9.8 2.8 9.15 1.95 2.75 -3.05 -2.25 -4.55 -4.4 -2.95 -6.6 3.75" fill="none" stroke="#131313" stroke-linecap="round" stroke-linejoin="round" stroke-width="1.0"/>
    <path d="M9.8 2.8 L7.95 3.8 3.8 2.7 2.1 -0.55 -2.9 -2.1 -3.8 -0.7 -2.4 2.1 -3.45 3.8 -6.6 3.75" fill="none" stroke="#343434" stroke-linecap="round" stroke-linejoin="round" stroke-width="1.0"/>
  </g>
</svg>
