<?xml version="1.0" encoding="UTF-8" standalone="no"?>
<svg xmlns:xlink="http://www.w3.org/1999/xlink" height="18.6px" width="22.4px" xmlns="http://www.w3.org/2000/svg">
  <g transform="matrix(1.0, 0.0, 0.0, 1.0, 9.25, 17.0)">
    <path d="M4.15 -3.2 L3.4 -2.1" fill="none" stroke="#f6c498" stroke-linecap="round" stroke-linejoin="round" stroke-width="1.0"/>
    <path d="M2.5 -4.05 L1.8 -3.0" fill="none" stroke="#f6c498" stroke-linecap="round" stroke-linejoin="round" stroke-width="1.0"/>
    <path d="M9.45 -3.5 L9.3 -2.65" fill="none" stroke="#221e17" stroke-linecap="round" stroke-linejoin="round" stroke-width="1.0"/>
    <path d="M10.9 -3.35 L10.7 -2.45" fill="none" stroke="#221e17" stroke-linecap="round" stroke-linejoin="round" stroke-width="1.0"/>
    <path d="M-5.6 -13.05 L-4.55 -12.05 -4.55 -12.1 -4.45 -12.05 -3.85 -13.15 -4.4 -12.0 -3.85 -11.45 -3.1 -12.0 -4.35 -10.05 M-4.45 -12.05 L-4.5 -12.0 -4.55 -12.05 -5.05 -10.8 -4.4 -12.0 -4.45 -12.05 Z" fill="none" stroke="#3b1f13" stroke-linecap="round" stroke-linejoin="round" stroke-width="1.0"/>
    <path d="M3.15 -7.2 L3.0 -6.1 2.25 -5.65 1.3 -5.2 0.0 -4.85 -0.65 -5.95 Q-1.25 -7.15 -1.1 -7.8 L-0.5 -9.25 0.1 -9.9 1.2 -9.5 2.6 -8.65 Q3.1 -8.25 3.15 -7.2" fill="#a14317" fill-rule="evenodd" stroke="none"/>
    <path d="M3.15 -7.2 L3.0 -6.1 2.25 -5.65 1.3 -5.2 0.0 -4.85 -0.65 -5.95 Q-1.25 -7.15 -1.1 -7.8 L-0.5 -9.25 0.1 -9.9 1.2 -9.5 2.6 -8.65 Q3.1 -8.25 3.15 -7.2 Z" fill="none" stroke="#40281e" stroke-linecap="butt" stroke-linejoin="miter-clip" stroke-miterlimit="4.0" stroke-width="1.0"/>
    <path d="M-0.95 -8.3 L2.55 -8.45 3.15 -7.3 -1.05 -6.7" fill="none" stroke="#29170f" stroke-linecap="butt" stroke-linejoin="miter-clip" stroke-miterlimit="4.0" stroke-opacity="0.58431375" stroke-width="1.0"/>
    <path d="M8.1 0.0 L8.85 0.05 8.85 1.1 9.85 0.95 11.25 0.2 Q11.95 -0.45 12.5 -1.7 L12.65 -2.95 12.5 -4.05 10.65 -6.05 9.7 -5.4 9.45 -8.05 9.3 -9.2 8.85 -10.4 8.45 -11.5 8.35 -12.3 Q9.6 -11.65 10.75 -11.1 11.55 -10.75 11.45 -11.2 L10.05 -13.25 Q9.65 -13.85 8.85 -14.25 L8.0 -14.65 5.55 -15.35 2.2 -16.5 -1.6 -16.1 -3.95 -15.15 -4.8 -14.4 -5.4 -14.45 Q-5.85 -14.45 -6.0 -14.1 L-6.55 -12.45 -6.6 -11.55 -7.4 -12.45 Q-8.2 -13.15 -8.25 -12.7 -8.35 -11.95 -7.95 -10.9 L-7.9 -10.85 -8.25 -10.65 Q-8.7 -10.2 -8.75 -9.35 -8.8 -8.45 -8.3 -7.7 L-7.65 -6.65 -6.7 -4.85 -3.55 -1.9 Q-2.75 -1.2 -0.7 -0.7" fill="none" stroke="#000000" stroke-linecap="round" stroke-linejoin="round" stroke-opacity="0.5176471" stroke-width="1.0"/>
  </g>
</svg>
