<?xml version="1.0" encoding="UTF-8" standalone="no"?>
<svg xmlns:ffdec="https://www.free-decompiler.com/flash" xmlns:xlink="http://www.w3.org/1999/xlink" ffdec:objectType="shape" height="12.65px" width="16.5px" xmlns="http://www.w3.org/2000/svg">
  <g transform="matrix(1.0, 0.0, 0.0, 1.0, 4.55, 5.9)">
    <path d="M-2.85 -4.95 Q0.4 -6.4 1.6 -3.5 L-2.85 -4.95" fill="#1f221f" fill-rule="evenodd" stroke="none"/>
    <path d="M-2.85 -4.95 Q0.4 -6.4 1.6 -3.5" ffdec:has-small-stroke="true" ffdec:original-stroke-width="0.95" fill="none" stroke="#111111" stroke-linecap="round" stroke-linejoin="round" stroke-width="1.0"/>
    <path d="M-3.1 -4.6 L1.6 -3.6 2.2 -1.5 4.8 0.5 2.85 3.5 -3.9 1.85 -3.95 -1.6 -3.85 -2.8 -3.1 -4.6" fill="#394039" fill-rule="evenodd" stroke="none"/>
    <path d="M3.75 4.95 L2.65 4.85 2.3 6.1 -3.9 6.05 -4.35 1.85 2.9 3.4 3.75 4.95" fill="#353b35" fill-rule="evenodd" stroke="none"/>
    <path d="M3.0 3.15 L4.8 0.4 6.9 0.55 8.2 0.8 11.4 4.55 10.6 6.4 4.2 6.25 3.8 5.1 Q3.0 4.45 3.0 3.15" fill="#596157" fill-rule="evenodd" stroke="none"/>
    <path d="M-3.0 -4.85 L-3.5 -3.65 -4.05 -1.55 -3.85 1.85 2.85 3.3 4.7 0.55" ffdec:has-small-stroke="true" ffdec:original-stroke-width="0.95" fill="none" stroke="#1f221e" stroke-linecap="round" stroke-linejoin="round" stroke-width="1.0"/>
    <path d="M-4.1 1.95 L-3.9 6.05 2.45 6.15 2.8 5.1 3.7 5.05" ffdec:has-small-stroke="true" ffdec:original-stroke-width="0.95" fill="none" stroke="#1f221e" stroke-linecap="round" stroke-linejoin="round" stroke-width="1.0"/>
    <path d="M4.9 0.35 L6.2 0.5 8.0 0.9 Q9.4 1.85 11.5 4.6 L10.7 6.3 4.2 6.1 3.95 5.2" ffdec:has-small-stroke="true" ffdec:original-stroke-width="0.95" fill="none" stroke="#313530" stroke-linecap="round" stroke-linejoin="round" stroke-width="1.0"/>
    <path d="M-2.95 -4.85 L1.65 -3.3 2.25 -1.55 4.7 0.4" ffdec:has-small-stroke="true" ffdec:original-stroke-width="0.95" fill="none" stroke="#1f221e" stroke-linecap="round" stroke-linejoin="round" stroke-width="1.0"/>
    <path d="M-3.7 -2.95 L-2.35 -1.3 -0.15 0.55 Q0.9 1.15 3.85 1.4" ffdec:has-small-stroke="true" ffdec:original-stroke-width="0.95" fill="none" stroke="#313530" stroke-linecap="round" stroke-linejoin="round" stroke-width="1.0"/>
    <path d="M-2.75 0.1 L-1.9 0.85" ffdec:has-small-stroke="true" ffdec:original-stroke-width="0.95" fill="none" stroke="#313530" stroke-linecap="round" stroke-linejoin="round" stroke-width="1.0"/>
  </g>
</svg>
