<?xml version="1.0" encoding="UTF-8" standalone="no"?>
<svg xmlns:ffdec="https://www.free-decompiler.com/flash" xmlns:xlink="http://www.w3.org/1999/xlink" ffdec:objectType="shape" height="19.8px" width="20.1px" xmlns="http://www.w3.org/2000/svg">
  <g transform="matrix(1.0, 0.0, 0.0, 1.0, 9.2, 18.6)">
    <path d="M5.4 -8.4 L3.7 -8.4 5.4 -8.4 M7.3 -4.25 L6.45 -4.3 7.3 -4.25 M7.5 -10.45 Q8.05 -9.7 8.4 -7.0 8.7 -4.35 8.25 -2.75 7.75 -1.2 3.3 -1.35 1.15 -5.4 -0.3 -6.1 L-1.75 -6.8 -1.8 -9.8 Q2.25 -11.1 7.5 -10.45" fill="#cc9933" fill-rule="evenodd" stroke="none"/>
    <path d="M3.3 -1.35 L3.3 0.7 1.6 0.7 -0.2 0.6 -2.55 0.3 -2.65 0.25 -3.3 -1.35 3.3 -1.35" fill="#000000" fill-rule="evenodd" stroke="none"/>
    <path d="M-8.7 -5.4 L-8.7 -9.75 Q-6.95 -8.7 -1.8 -9.8 L-1.75 -6.8 Q-5.05 -6.7 -8.7 -5.4" fill="#151515" fill-rule="evenodd" stroke="none"/>
    <path d="M1.0 -12.9 L1.45 -14.0 1.0 -15.1 Q0.55 -15.55 -0.1 -15.55 -0.75 -15.55 -1.2 -15.1 -1.65 -14.65 -1.65 -14.0 -1.65 -13.35 -1.2 -12.9 -0.75 -12.45 -0.1 -12.45 0.55 -12.45 1.0 -12.9 0.55 -12.45 -0.1 -12.45 -0.75 -12.45 -1.2 -12.9 -1.65 -13.35 -1.65 -14.0 -1.65 -14.65 -1.2 -15.1 -0.75 -15.55 -0.1 -15.55 0.55 -15.55 1.0 -15.1 L1.45 -14.0 1.0 -12.9 M-8.7 -9.75 Q-7.85 -15.65 -3.45 -17.25 0.9 -18.9 4.55 -17.25 8.2 -15.65 9.55 -10.5 L7.5 -10.45 Q2.25 -11.1 -1.8 -9.8 -6.95 -8.7 -8.7 -9.75 M-5.2 -13.65 L-5.5 -12.9 -5.2 -12.15 Q-4.9 -11.85 -4.45 -11.85 -4.0 -11.85 -3.7 -12.15 -3.4 -12.45 -3.4 -12.9 -3.4 -13.35 -3.7 -13.65 -4.0 -13.95 -4.45 -13.95 L-5.2 -13.65 -4.45 -13.95 Q-4.0 -13.95 -3.7 -13.65 -3.4 -13.35 -3.4 -12.9 -3.4 -12.45 -3.7 -12.15 -4.0 -11.85 -4.45 -11.85 -4.9 -11.85 -5.2 -12.15 L-5.5 -12.9 -5.2 -13.65" fill="#595959" fill-rule="evenodd" stroke="none"/>
    <path d="M-3.3 -1.35 Q-7.25 -1.95 -8.7 -5.4 -5.05 -6.7 -1.75 -6.8 L-0.3 -6.1 Q1.15 -5.4 3.3 -1.35 L-3.3 -1.35 M-2.55 -3.1 L-3.35 -4.75 -2.55 -3.1 M-0.45 -2.6 L-0.8 -3.65 -0.45 -2.6" fill="#404040" fill-rule="evenodd" stroke="none"/>
    <path d="M3.7 -8.4 L5.4 -8.4" fill="none" stroke="#966825" stroke-linecap="round" stroke-linejoin="round" stroke-width="2.0"/>
    <path d="M6.45 -4.3 L7.3 -4.25" fill="none" stroke="#966825" stroke-linecap="round" stroke-linejoin="round" stroke-width="1.0"/>
    <path d="M7.5 -10.45 Q8.05 -9.7 8.4 -7.0 8.7 -4.35 8.25 -2.75 7.75 -1.2 3.3 -1.35" fill="none" stroke="#5f4429" stroke-linecap="round" stroke-linejoin="round" stroke-width="1.0"/>
    <path d="M1.0 -12.9 Q0.55 -12.45 -0.1 -12.45 -0.75 -12.45 -1.2 -12.9 -1.65 -13.35 -1.65 -14.0 -1.65 -14.65 -1.2 -15.1 -0.75 -15.55 -0.1 -15.55 0.55 -15.55 1.0 -15.1 L1.45 -14.0 1.0 -12.9 M-3.3 -1.35 Q-7.25 -1.95 -8.7 -5.4 M-8.7 -9.75 Q-7.85 -15.65 -3.45 -17.25 0.9 -18.9 4.55 -17.25 8.2 -15.65 9.55 -10.5 L7.5 -10.45 Q2.25 -11.1 -1.8 -9.8 M-5.2 -13.65 L-4.45 -13.95 Q-4.0 -13.95 -3.7 -13.65 -3.4 -13.35 -3.4 -12.9 -3.4 -12.45 -3.7 -12.15 -4.0 -11.85 -4.45 -11.85 -4.9 -11.85 -5.2 -12.15 L-5.5 -12.9 -5.2 -13.65 M-0.8 -3.65 L-0.45 -2.6 M-3.35 -4.75 L-2.55 -3.1" fill="none" stroke="#333333" stroke-linecap="round" stroke-linejoin="round" stroke-width="1.0"/>
    <path d="M3.3 -1.35 L3.3 0.7 1.6 0.7 -0.2 0.6 -2.55 0.3 -2.65 0.25 -3.3 -1.35 3.3 -1.35 Q1.15 -5.4 -0.3 -6.1 L-1.75 -6.8 -1.8 -9.8 Q-6.95 -8.7 -8.7 -9.75 L-8.7 -5.4 Q-5.05 -6.7 -1.75 -6.8" fill="none" stroke="#000000" stroke-linecap="round" stroke-linejoin="round" stroke-width="1.0"/>
    <path d="M9.8 -10.55 Q12.4 0.8 3.7 0.2 3.4 -1.1 -0.15 -5.4 -3.75 -9.75 0.3 -10.25 L9.8 -10.55" fill="#002b55" fill-opacity="0.5137255" fill-rule="evenodd" stroke="none"/>
    <path d="M9.8 -10.55 Q12.4 0.8 3.7 0.2 3.4 -1.1 -0.15 -5.4 -3.75 -9.75 0.3 -10.25 L9.8 -10.55 Z" fill="none" stroke="#000000" stroke-linecap="round" stroke-linejoin="round" stroke-opacity="0.42352942" stroke-width="1.0"/>
  </g>
</svg>
