<?xml version="1.0" encoding="UTF-8" standalone="no"?>
<svg xmlns:ffdec="https://www.free-decompiler.com/flash" xmlns:xlink="http://www.w3.org/1999/xlink" ffdec:objectType="shape" height="8.4px" width="14.4px" xmlns="http://www.w3.org/2000/svg">
  <g transform="matrix(1.0, 0.0, 0.0, 1.0, 5.4, 2.35)">
    <path d="M-2.05 -1.8 Q-0.35 -2.2 -0.4 -0.35 L3.2 2.8 3.35 3.45 3.35 5.4 1.4 5.2 1.4 3.3 -4.35 1.2 -4.45 0.65 Q-3.8 -1.35 -2.05 -1.8" fill="#181621" fill-rule="evenodd" stroke="none"/>
    <path d="M3.15 5.55 L3.15 3.15 -0.85 -0.75 1.7 -2.1 8.7 3.1 8.7 5.4 3.15 5.55" fill="#171431" fill-rule="evenodd" stroke="none"/>
    <path d="M-3.5 1.05 L1.3 3.45 1.3 5.55 -4.95 5.45 -5.15 3.4 -3.5 1.05" fill="#171431" fill-rule="evenodd" stroke="none"/>
    <path d="M3.4 5.3 L3.35 3.15 -0.9 -0.7 M3.35 3.15 L3.9 2.85 5.45 1.7 7.2 1.7 5.45 1.75 3.9 2.85 M-4.45 1.2 L1.4 3.35 1.4 5.4" fill="none" stroke="#0a0a0f" stroke-linecap="round" stroke-linejoin="round" stroke-width="1.0"/>
    <path d="M-3.1 -1.35 L-3.95 -0.65 -4.25 0.75 -4.5 2.7 -4.9 3.45 -4.75 5.5 1.2 5.5 1.55 5.1 2.85 5.1 3.45 5.5 8.5 5.55 8.5 3.15 7.0 1.55 5.1 0.0 1.75 -1.85 0.0 -1.3 -1.85 -1.65 -3.1 -1.35 Z" fill="none" stroke="#060609" stroke-linecap="round" stroke-linejoin="round" stroke-width="1.0"/>
  </g>
</svg>
