<?xml version="1.0" encoding="UTF-8" standalone="no"?>
<svg xmlns:ffdec="https://www.free-decompiler.com/flash" xmlns:xlink="http://www.w3.org/1999/xlink" ffdec:objectType="shape" height="11.2px" width="16.8px" xmlns="http://www.w3.org/2000/svg">
  <g transform="matrix(1.0, 0.0, 0.0, 1.0, 5.3, 3.9)">
    <path d="M7.05 -0.15 Q11.45 1.5 10.95 6.55 L1.6 6.25 Q0.5 5.65 0.6 4.45 L-0.5 5.55 -4.3 5.55 -4.8 4.7 Q-3.85 0.45 -2.15 0.2 L0.65 0.4 0.15 2.65 Q3.15 3.2 7.05 -0.15 M0.15 2.65 L0.6 4.45 0.15 2.65" fill="url(#gradient0)" fill-rule="evenodd" stroke="none"/>
    <path d="M3.75 -2.4 L7.05 -0.15 Q3.15 3.2 0.15 2.65 L0.65 0.4 Q0.95 -2.65 3.75 -2.4" fill="url(#gradient1)" fill-rule="evenodd" stroke="none"/>
    <path d="M-2.15 0.2 Q-0.5 -5.25 3.75 -2.4 0.95 -2.65 0.65 0.4 L-2.15 0.2" fill="#202020" fill-rule="evenodd" stroke="none"/>
    <path d="M3.75 -2.4 L7.05 -0.15 Q11.45 1.5 10.95 6.55 L1.6 6.25 Q0.5 5.65 0.6 4.45 L-0.5 5.55 -4.3 5.55 -4.8 4.7 Q-3.85 0.45 -2.15 0.2 M3.75 -2.4 Q0.95 -2.65 0.65 0.4 L0.15 2.65 Q3.15 3.2 7.05 -0.15 M0.6 4.45 L0.15 2.65" fill="none" stroke="#131313" stroke-linecap="round" stroke-linejoin="round" stroke-width="1.0"/>
    <path d="M-2.15 0.2 Q-0.5 -5.25 3.75 -2.4 M0.65 0.4 L-2.15 0.2" fill="none" stroke="#040404" stroke-linecap="round" stroke-linejoin="round" stroke-width="1.0"/>
  </g>
  <defs>
    <radialGradient cx="0" cy="0" gradientTransform="matrix(0.0114, 0.0, 0.0, 0.0114, 1.45, 6.35)" gradientUnits="userSpaceOnUse" id="gradient0" r="819.2" spreadMethod="pad">
      <stop offset="0.0" stop-color="#222222"/>
      <stop offset="0.6588235294117647" stop-color="#444444"/>
      <stop offset="1.0" stop-color="#676767"/>
    </radialGradient>
    <radialGradient cx="0" cy="0" gradientTransform="matrix(0.0068, 0.0, 0.0, 0.0068, 1.5, -0.9)" gradientUnits="userSpaceOnUse" id="gradient1" r="819.2" spreadMethod="pad">
      <stop offset="0.0" stop-color="#222222"/>
      <stop offset="0.6588235294117647" stop-color="#444444"/>
      <stop offset="1.0" stop-color="#676767"/>
    </radialGradient>
  </defs>
</svg>
