<?xml version="1.0" encoding="UTF-8" standalone="no"?>
<svg xmlns:ffdec="https://www.free-decompiler.com/flash" xmlns:xlink="http://www.w3.org/1999/xlink" ffdec:objectType="shape" height="8.4px" width="14.45px" xmlns="http://www.w3.org/2000/svg">
  <g transform="matrix(1.0, 0.0, 0.0, 1.0, 5.25, 2.35)">
    <path d="M1.7 0.15 L2.05 0.45 4.4 1.6 5.15 1.8 6.3 2.55 6.55 2.95 6.7 3.35 6.75 3.85 6.4 5.2 -3.85 5.1 -4.25 3.8 -4.35 3.05 -4.3 1.65 -4.0 0.05 -3.75 -0.65 -3.1 -1.2 -2.4 -1.55 -1.85 -1.75 -1.25 -1.75 -0.7 -1.65 0.45 -1.0 1.05 -0.6 1.35 -0.2 1.7 0.15" fill="#181621" fill-rule="evenodd" stroke="none"/>
    <path d="M1.7 0.15 L1.35 -0.2 1.05 -0.6 0.45 -1.0 -0.7 -1.65 -1.25 -1.75 -1.85 -1.75 -2.4 -1.55 -3.1 -1.2 -3.75 -0.65 -4.0 0.05 -4.3 1.65 -4.35 3.05 -4.25 3.8 -3.85 5.1 6.4 5.2 6.75 3.85 6.7 3.35 6.55 2.95 6.3 2.55 5.15 1.8 4.4 1.6 2.05 0.45 1.7 0.15 Z" fill="none" stroke="#060609" stroke-linecap="round" stroke-linejoin="round" stroke-width="1.0"/>
    <path d="M3.5 3.15 L5.65 1.75 7.6 1.8 8.7 3.3 8.65 5.55 3.5 5.45 3.5 3.15 M-1.25 2.0 L1.6 3.35 1.6 5.45 -4.6 5.3 -4.75 3.35 -4.45 2.85 -4.1 2.5 -3.8 2.3 -3.3 2.1 -2.8 2.0 -1.25 2.0" fill="url(#gradient0)" fill-rule="evenodd" stroke="none"/>
    <path d="M3.5 3.15 L5.65 1.75 7.6 1.8 8.7 3.3 8.65 5.55 3.5 5.45 3.5 3.15 M-1.25 2.0 L1.6 3.35 1.6 5.45 -4.6 5.3 -4.75 3.35 -4.45 2.85 -4.1 2.5 -3.8 2.3 -3.3 2.1 -2.8 2.0 -1.25 2.0 Z" fill="none" stroke="#151108" stroke-linecap="round" stroke-linejoin="round" stroke-width="1.0"/>
    <path d="M4.3 -0.6 L7.6 1.8 5.65 1.75 3.5 3.15 -0.75 -0.7 1.95 -1.85 2.45 -1.65 3.1 -1.4 4.3 -0.6" fill="#171431" fill-rule="evenodd" stroke="none"/>
    <path d="M4.3 -0.6 L7.6 1.8 5.65 1.75 3.5 3.15 -0.75 -0.7 1.95 -1.85 2.45 -1.65 3.1 -1.4 4.3 -0.6 Z" fill="none" stroke="#060609" stroke-linecap="round" stroke-linejoin="round" stroke-width="1.0"/>
  </g>
  <defs>
    <radialGradient cx="0" cy="0" gradientTransform="matrix(0.0096, 2.0E-4, -3.0E-4, 0.0119, 1.95, 3.6)" gradientUnits="userSpaceOnUse" id="gradient0" r="819.2" spreadMethod="pad">
      <stop offset="0.0" stop-color="#280804"/>
      <stop offset="1.0" stop-color="#f4b736"/>
    </radialGradient>
  </defs>
</svg>
