<?xml version="1.0" encoding="UTF-8" standalone="no"?>
<svg xmlns:xlink="http://www.w3.org/1999/xlink" height="19.0px" width="22.75px" xmlns="http://www.w3.org/2000/svg">
  <g transform="matrix(1.0, 0.0, 0.0, 1.0, 9.25, 16.95)">
    <path d="M-2.8 -9.3 L-4.5 -7.2 -7.25 -6.5 Q-8.8 -8.2 -8.75 -8.9 L-8.55 -11.45 -7.85 -10.9 Q-8.2 -11.7 -8.15 -12.3 L-7.95 -12.75 -7.75 -12.75 -6.3 -11.6 -6.45 -13.7 -6.15 -14.3 -5.85 -14.4 -4.95 -14.7 -1.85 -12.7 Q-1.75 -12.55 -1.95 -11.65 L-2.3 -10.55 -2.8 -9.3" fill="url(#gradient0)" fill-rule="evenodd" stroke="none"/>
    <path d="M-2.8 -9.3 L-4.5 -7.2 -7.25 -6.5 Q-8.8 -8.2 -8.75 -8.9 L-8.55 -11.45 -7.85 -10.9 Q-8.2 -11.7 -8.15 -12.3 L-7.95 -12.75 -7.75 -12.75 -6.3 -11.6 -6.45 -13.7 -6.15 -14.3 -5.85 -14.4 -4.95 -14.7 -1.85 -12.7 Q-1.75 -12.55 -1.95 -11.65 L-2.3 -10.55 -2.8 -9.3 Z" fill="none" stroke="#241a15" stroke-linecap="round" stroke-linejoin="round" stroke-opacity="0.9529412" stroke-width="1.0"/>
    <path d="M7.65 -12.45 L8.4 -14.4 9.6 -13.65 Q10.5 -13.0 11.4 -11.3 11.5 -11.0 11.2 -10.95 10.9 -10.9 10.7 -11.1 L9.55 -11.8 8.15 -12.4 5.95 -12.4 3.35 -12.15 1.25 -11.3 0.0 -10.55 1.45 -13.55 3.9 -12.4 7.65 -12.45" fill="#48423c" fill-rule="evenodd" stroke="none"/>
    <path d="M7.65 -12.45 L3.9 -12.4 1.45 -13.55 0.0 -10.55 1.25 -11.3 3.35 -12.15 5.95 -12.4 8.15 -12.4 9.55 -11.8 10.7 -11.1 Q10.9 -10.9 11.2 -10.95 11.5 -11.0 11.4 -11.3 10.5 -13.0 9.6 -13.65 L8.4 -14.4 7.65 -12.45 Z" fill="none" stroke="#251e1a" stroke-linecap="butt" stroke-linejoin="miter-clip" stroke-miterlimit="4.0" stroke-opacity="0.9529412" stroke-width="1.0"/>
    <path d="M8.15 -14.5 L7.55 -12.45 3.15 -12.75 -2.25 -16.0 -0.3 -16.4 3.1 -16.2 4.85 -15.6 6.45 -15.0 8.15 -14.5" fill="url(#gradient1)" fill-rule="evenodd" stroke="none"/>
    <path d="M8.15 -14.5 L6.45 -15.0 4.85 -15.6 3.1 -16.2 -0.3 -16.4 -2.25 -16.0 3.15 -12.75 7.55 -12.45 8.15 -14.5 Z" fill="none" stroke="#4b2816" stroke-linecap="butt" stroke-linejoin="miter-clip" stroke-miterlimit="4.0" stroke-opacity="0.9529412" stroke-width="1.0"/>
    <path d="M11.35 -3.35 L10.4 -2.1 Q10.0 -1.6 10.0 -0.85 10.0 -0.45 9.6 -0.25 L8.55 0.0 6.45 -1.15 7.75 -1.4 Q8.15 -1.65 7.9 -2.5 L7.15 -3.8 7.85 -4.15 8.7 -4.85 Q9.0 -5.3 9.45 -5.05 L10.55 -4.15 11.35 -3.35" fill="#494131" fill-rule="evenodd" stroke="none"/>
    <path d="M11.35 -3.35 L10.4 -2.1 Q10.0 -1.6 10.0 -0.85 10.0 -0.45 9.6 -0.25 L8.55 0.0 6.45 -1.15 7.75 -1.4 Q8.15 -1.65 7.9 -2.5 L7.15 -3.8 7.85 -4.15 8.7 -4.85 Q9.0 -5.3 9.45 -5.05 L10.55 -4.15 11.35 -3.35 Z" fill="none" stroke="#251b15" stroke-linecap="butt" stroke-linejoin="miter-clip" stroke-miterlimit="4.0" stroke-opacity="0.9529412" stroke-width="1.0"/>
    <path d="M-0.15 -0.5 L-1.7 -1.05 -3.35 -1.55 -5.35 -3.15 -5.85 -3.8 -6.0 -4.1 -5.85 -4.5 -5.0 -4.15 -3.45 -3.2 Q-1.8 -2.15 -1.0 -1.85 L1.75 -0.85 5.0 -0.7 7.3 -1.2 7.65 -0.25 5.15 0.05 Q4.95 0.2 5.1 0.9 5.2 1.45 4.85 1.4 -1.05 1.7 -2.35 1.4 L-2.6 0.4 -2.85 -0.8 Q-2.8 -1.2 -1.35 -0.8 L-0.15 -0.5" fill="#342f2e" fill-rule="evenodd" stroke="none"/>
    <path d="M-0.15 -0.5 L-1.7 -1.05 -3.35 -1.55 -5.35 -3.15 -5.85 -3.8 -6.0 -4.1 -5.85 -4.5 -5.0 -4.15 -3.45 -3.2 Q-1.8 -2.15 -1.0 -1.85 L1.75 -0.85 5.0 -0.7 7.3 -1.2 7.65 -0.25 5.15 0.05 Q4.95 0.2 5.1 0.9 5.2 1.45 4.85 1.4 -1.05 1.7 -2.35 1.4 L-2.6 0.4 -2.85 -0.8 Q-2.8 -1.2 -1.35 -0.8 L-0.15 -0.5 Z" fill="none" stroke="#191513" stroke-linecap="butt" stroke-linejoin="miter-clip" stroke-miterlimit="4.0" stroke-opacity="0.9529412" stroke-width="1.0"/>
    <path d="M2.95 -6.3 Q4.7 -5.4 6.4 -4.6 7.55 -3.85 7.9 -3.3 8.35 -2.3 8.2 -1.9 L7.7 -1.5 7.05 -1.45 5.7 -1.55 Q5.05 -1.6 4.7 -1.15 L3.3 0.75 2.7 1.3 -1.35 -4.35 0.1 -4.8 -0.3 -5.2 0.7 -5.25 2.25 -5.75 2.95 -6.3" fill="url(#gradient2)" fill-rule="evenodd" stroke="none"/>
    <path d="M2.95 -6.3 Q4.7 -5.4 6.4 -4.6 7.55 -3.85 7.9 -3.3 8.35 -2.3 8.2 -1.9 L7.7 -1.5 7.05 -1.45 5.7 -1.55 Q5.05 -1.6 4.7 -1.15 L3.3 0.75 2.7 1.3 -1.35 -4.35 0.1 -4.8 -0.3 -5.2 0.7 -5.25 2.25 -5.75 2.95 -6.3 Z" fill="none" stroke="#331b0f" stroke-linecap="round" stroke-linejoin="round" stroke-opacity="0.9529412" stroke-width="1.0"/>
    <path d="M10.9 -6.25 Q13.25 -4.1 12.45 -1.55 11.6 1.0 8.7 0.95 8.5 0.95 8.7 0.45 8.9 0.0 9.05 -0.05 9.7 -0.2 9.85 -0.45 L9.95 -1.05 10.2 -1.8 11.1 -3.1 11.05 -4.0 9.95 -4.9 9.35 -5.0 9.9 -5.5 10.9 -6.25" fill="#494131" fill-rule="evenodd" stroke="none"/>
    <path d="M10.9 -6.25 Q13.25 -4.1 12.45 -1.55 11.6 1.0 8.7 0.95 8.5 0.95 8.7 0.45 8.9 0.0 9.05 -0.05 9.7 -0.2 9.85 -0.45 L9.95 -1.05 10.2 -1.8 11.1 -3.1 11.05 -4.0 9.95 -4.9 9.35 -5.0 9.9 -5.5 10.9 -6.25 Z" fill="none" stroke="#2b2420" stroke-linecap="butt" stroke-linejoin="miter-clip" stroke-miterlimit="4.0" stroke-width="1.0"/>
    <path d="M-2.65 -2.35 L-4.5 -3.55 -4.15 -3.85 -1.15 -4.05 -0.9 -4.35 0.9 -0.85 -2.65 -2.35" fill="#35382f" fill-rule="evenodd" stroke="none"/>
    <path d="M-2.65 -2.35 L-4.5 -3.55 -4.15 -3.85 -1.15 -4.05 -0.9 -4.35 0.9 -0.85 -2.65 -2.35 Z" fill="none" stroke="#231e19" stroke-linecap="butt" stroke-linejoin="miter-clip" stroke-miterlimit="4.0" stroke-opacity="0.9529412" stroke-width="1.0"/>
    <path d="M1.75 -11.2 L3.05 -12.3 8.15 -12.15 8.7 -10.85 9.4 -8.5 9.65 -5.4 8.25 -5.45 7.1 -4.55 5.6 -4.6 Q5.2 -4.7 4.05 -5.4 L3.05 -6.15 Q2.85 -7.45 2.45 -8.05 L1.7 -8.95 0.85 -9.45 -0.25 -9.75 Q0.65 -10.05 1.75 -11.2" fill="#f1e1be" fill-rule="evenodd" stroke="none"/>
    <path d="M1.75 -11.2 L3.05 -12.3 8.15 -12.15 8.7 -10.85 9.4 -8.5 9.65 -5.4 8.25 -5.45 7.1 -4.55 5.6 -4.6 Q5.2 -4.7 4.05 -5.4 L3.05 -6.15 Q2.85 -7.45 2.45 -8.05 L1.7 -8.95 0.85 -9.45 -0.25 -9.75 Q0.65 -10.05 1.75 -11.2 Z" fill="none" stroke="#005477" stroke-linecap="butt" stroke-linejoin="miter-clip" stroke-miterlimit="4.0" stroke-opacity="0.3764706" stroke-width="1.0"/>
    <path d="M1.4 -13.65 L-1.2 -9.45 Q-1.4 -9.1 -1.25 -7.5 -1.1 -5.75 -0.75 -5.35 L-0.2 -4.65 -2.35 -4.05 Q-3.8 -3.85 -4.5 -4.05 -5.65 -4.4 -5.65 -4.5 L-5.6 -4.55 Q-6.7 -5.0 -6.9 -5.35 L-7.25 -6.05 Q-6.75 -6.3 -6.35 -6.6 -5.4 -7.2 -5.0 -7.25 L-3.9 -7.5 -1.4 -12.6 -4.1 -15.15 -2.7 -16.15 1.4 -13.65" fill="url(#gradient3)" fill-rule="evenodd" stroke="none"/>
    <path d="M1.35 -13.55 L1.4 -13.65 -1.35 -12.65 1.35 -13.55 1.45 -13.6 1.4 -13.65 -2.7 -16.15 -4.1 -15.15 -1.4 -12.6 -3.9 -7.5 -3.6 -7.6 -3.95 -7.5 -3.9 -7.5 -5.0 -7.25 Q-5.4 -7.2 -6.35 -6.6 -6.75 -6.3 -7.25 -6.05 L-6.9 -5.35 Q-6.7 -5.0 -5.6 -4.55 L-5.5 -4.5 -4.45 -6.8 -5.6 -4.55 -5.65 -4.5 Q-5.65 -4.4 -4.5 -4.05 -3.8 -3.85 -2.35 -4.05 L-3.05 -7.3 -3.0 -6.5 -2.35 -4.05 -0.2 -4.65 -0.75 -5.35 Q-1.1 -5.75 -1.25 -7.5 L-1.3 -8.2 -3.6 -7.6 M1.35 -13.55 L-1.2 -9.45 -1.3 -8.2" fill="none" stroke="#2f1e17" stroke-linecap="round" stroke-linejoin="round" stroke-opacity="0.9529412" stroke-width="1.0"/>
    <path d="M-3.3 -6.8 L-4.1 -6.95 Q-4.55 -7.1 -4.7 -7.6 -4.9 -8.4 -4.6 -8.85 L-3.9 -9.5 -3.35 -9.55 -2.6 -9.5 Q-1.8 -9.2 -1.7 -8.6 -1.6 -8.15 -2.45 -7.15 L-2.8 -6.85 -3.3 -6.8" fill="#21140d" fill-rule="evenodd" stroke="none"/>
    <path d="M-3.3 -6.8 L-4.1 -6.95 Q-4.55 -7.1 -4.7 -7.6 -4.9 -8.4 -4.6 -8.85 L-3.9 -9.5 -3.35 -9.55 -2.6 -9.5 Q-1.8 -9.2 -1.7 -8.6 -1.6 -8.15 -2.45 -7.15 L-2.8 -6.85 -3.3 -6.8 Z" fill="none" stroke="#1a110c" stroke-linecap="butt" stroke-linejoin="miter-clip" stroke-miterlimit="4.0" stroke-opacity="0.9529412" stroke-width="1.0"/>
  </g>
  <defs>
    <linearGradient gradientTransform="matrix(0.0062, 0.0028, -0.0027, 0.006, -4.1, -11.15)" gradientUnits="userSpaceOnUse" id="gradient0" spreadMethod="pad" x1="-819.2" x2="819.2">
      <stop offset="0.0" stop-color="#25281e"/>
      <stop offset="1.0" stop-color="#c9552d"/>
    </linearGradient>
    <radialGradient cx="0" cy="0" gradientTransform="matrix(0.0165, 0.0019, -2.0E-4, 0.0019, 2.5, -14.55)" gradientUnits="userSpaceOnUse" id="gradient1" r="819.2" spreadMethod="pad">
      <stop offset="0.0" stop-color="#182527"/>
      <stop offset="1.0" stop-color="#a14317"/>
    </radialGradient>
    <linearGradient gradientTransform="matrix(0.0031, 0.0018, -0.0017, 0.003, 5.3, -3.55)" gradientUnits="userSpaceOnUse" id="gradient2" spreadMethod="pad" x1="-819.2" x2="819.2">
      <stop offset="0.0" stop-color="#a14317"/>
      <stop offset="1.0" stop-color="#cf774a"/>
    </linearGradient>
    <radialGradient cx="0" cy="0" gradientTransform="matrix(0.0088, 5.0E-4, -0.0013, 0.0209, -2.9, -10.05)" gradientUnits="userSpaceOnUse" id="gradient3" r="819.2" spreadMethod="pad">
      <stop offset="0.0" stop-color="#ac472d"/>
      <stop offset="1.0" stop-color="#0a1312"/>
    </radialGradient>
  </defs>
</svg>
