<?xml version="1.0" encoding="UTF-8" standalone="no"?>
<svg xmlns:xlink="http://www.w3.org/1999/xlink" height="20.3px" width="48.9px" xmlns="http://www.w3.org/2000/svg">
  <g transform="matrix(1.0, 0.0, 0.0, 1.0, 20.7, 5.9)">
    <path d="M8.45 -3.15 L8.55 -3.15 Q8.5 -3.9 9.05 -4.8 L13.95 -4.6 Q18.6 -4.45 21.75 -2.9 L22.0 -2.75 Q24.1 -1.5 25.25 1.35 L25.85 3.1 24.95 3.1 12.45 3.1 12.4 1.8 Q12.05 -0.15 11.15 -1.35 10.1 -2.65 8.45 -3.15 10.1 -2.65 11.15 -1.35 12.05 -0.15 12.4 1.8 L12.45 3.1 24.95 3.1 Q24.95 4.8 23.5 6.4 22.75 7.2 21.4 7.5 L20.6 7.65 20.35 5.7 20.6 7.65 18.1 7.8 16.05 7.65 Q13.5 7.25 12.45 5.65 L12.45 3.1 12.45 5.65 Q12.9 7.35 10.05 7.6 7.25 7.85 6.8 6.7 L6.75 6.65 Q6.4 2.85 7.15 1.85 L2.6 1.9 -2.2 1.95 -6.25 1.95 -6.3 1.9 Q-7.85 3.3 -9.2 5.1 L-14.25 5.1 -14.25 6.9 -14.25 8.6 -19.1 8.6 Q-19.7 7.85 -19.95 6.85 -20.25 5.65 -20.15 4.15 L-19.8 2.15 Q-19.4 0.85 -18.55 0.05 L-13.45 0.05 -11.75 0.05 -7.95 0.05 -8.65 -0.7 Q-6.45 -3.75 -0.15 -3.35 L8.45 -3.15 M11.15 -1.35 L8.55 -1.35 11.15 -1.35 M13.8 -2.15 Q14.8 -1.2 14.9 0.7 L19.95 0.7 Q19.55 -1.0 18.2 -2.15 L13.8 -2.15 M12.4 1.8 L10.95 1.8 8.45 1.85 7.15 1.85 8.45 1.85 10.95 1.8 12.4 1.8 M8.45 1.85 L8.65 4.4 Q8.85 5.3 9.65 5.3 10.45 5.3 10.75 4.4 L10.95 1.8 10.75 4.4 Q10.45 5.3 9.65 5.3 8.85 5.3 8.65 4.4 L8.45 1.85 M18.0 5.9 L18.1 7.8 18.0 5.9 M15.9 5.65 L16.05 7.65 15.9 5.65 M-6.3 1.9 L-7.95 0.05 -6.3 1.9 M-19.95 6.85 L-17.55 6.55 Q-18.0 2.9 -16.7 2.25 L-19.8 2.15 -16.7 2.25 Q-18.0 2.9 -17.55 6.55 L-19.95 6.85 M-11.75 1.5 L-11.75 0.05 -11.75 1.5 M-13.45 1.7 L-13.45 0.05 -13.45 1.7" fill="#8c0000" fill-rule="evenodd" stroke="none"/>
    <path d="M9.05 -4.8 Q8.5 -3.9 8.55 -3.15 L8.45 -3.15 -0.15 -3.35 0.65 -4.8 9.05 -4.8 M13.8 -2.15 L18.2 -2.15 Q19.55 -1.0 19.95 0.7 L14.9 0.7 Q14.8 -1.2 13.8 -2.15" fill="#4f75b3" fill-rule="evenodd" stroke="none"/>
    <path d="M25.25 1.35 Q24.1 -1.5 22.0 -2.75 L21.75 -2.9 23.25 -2.9 25.45 -2.9 27.0 -2.9 Q28.35 -0.8 27.15 1.35 L25.25 1.35 M25.7 -1.4 Q25.3 -2.25 25.45 -2.9 25.3 -2.25 25.7 -1.4 M2.6 1.9 L0.95 5.85 0.6 6.75 Q-0.95 7.0 -1.9 6.05 L-1.0 4.55 -2.7 4.1 -1.0 4.55 -1.9 6.05 Q-0.95 7.0 0.6 6.75 L0.35 7.25 -0.4 9.2 -1.0 11.75 Q0.3 12.9 -0.5 13.35 -3.05 14.85 -6.2 12.3 L-6.2 12.35 -7.4 12.25 Q-9.75 7.05 -10.95 6.9 L-14.25 6.9 -14.25 5.1 -9.2 5.1 Q-7.15 8.2 -5.55 9.4 -5.4 7.4 -3.75 5.6 L-2.7 4.1 Q-2.15 3.0 -2.2 1.95 L2.6 1.9 M-3.15 8.7 L-1.9 6.05 -3.15 8.7 Q-1.95 9.6 -0.4 9.2 -1.95 9.6 -3.15 8.7 -3.75 10.4 -3.5 11.5 L-5.55 10.75 -5.55 9.4 -5.55 10.75 -3.5 11.5 Q-3.75 10.4 -3.15 8.7" fill="#353638" fill-rule="evenodd" stroke="none"/>
    <path d="M9.05 -4.8 Q8.5 -3.9 8.55 -3.15 L8.45 -3.15 Q10.1 -2.65 11.15 -1.35 12.05 -0.15 12.4 1.8 L12.45 3.1 24.95 3.1 25.85 3.1 25.25 1.35 Q24.1 -1.5 22.0 -2.75 L21.75 -2.9 Q18.6 -4.45 13.95 -4.6 L9.05 -4.8 M-0.15 -3.35 L8.45 -3.15 M20.6 7.65 L21.4 7.5 Q22.75 7.2 23.5 6.4 24.95 4.8 24.95 3.1 M7.15 1.85 L8.45 1.85 10.95 1.8 12.4 1.8 M12.45 5.65 L12.45 3.1 M16.05 7.65 L18.1 7.8 20.6 7.65 M12.45 5.65 Q13.5 7.25 16.05 7.65 M2.6 1.9 L-2.2 1.95 -6.25 1.95 -6.3 1.9 Q-7.85 3.3 -9.2 5.1 L-14.25 5.1 -14.25 6.9 -14.25 8.6 -19.1 8.6 Q-19.7 7.85 -19.95 6.85 -20.25 5.65 -20.15 4.15 L-19.8 2.15 Q-19.4 0.85 -18.55 0.05 L-13.45 0.05 -11.75 0.05 -7.95 0.05 -8.65 -0.7 Q-6.45 -3.75 -0.15 -3.35 M7.15 1.85 Q6.4 2.85 6.75 6.65 L6.8 6.7 Q7.25 7.85 10.05 7.6 12.9 7.35 12.45 5.65 M2.6 1.9 L7.15 1.85 M-7.95 0.05 L-6.3 1.9" fill="none" stroke="#3e0100" stroke-linecap="round" stroke-linejoin="round" stroke-width="1.0"/>
    <path d="M8.55 -1.35 L11.15 -1.35 M20.6 7.65 L20.35 5.7 M10.95 1.8 L10.75 4.4 Q10.45 5.3 9.65 5.3 8.85 5.3 8.65 4.4 L8.45 1.85 M18.1 7.8 L18.0 5.9 M16.05 7.65 L15.9 5.65 M-13.45 0.05 L-13.45 1.7 M-11.75 0.05 L-11.75 1.5 M-19.8 2.15 L-16.7 2.25 Q-18.0 2.9 -17.55 6.55 L-19.95 6.85" fill="none" stroke="#5f0000" stroke-linecap="round" stroke-linejoin="round" stroke-width="1.0"/>
    <path d="M9.05 -4.8 L0.65 -4.8 -0.15 -3.35 M13.8 -2.15 Q14.8 -1.2 14.9 0.7 L19.95 0.7 Q19.55 -1.0 18.2 -2.15 L13.8 -2.15" fill="none" stroke="#325285" stroke-linecap="round" stroke-linejoin="round" stroke-width="1.0"/>
    <path d="M23.25 -2.9 L23.25 -3.6 23.25 -4.1 23.6 -4.4 26.4 -4.4 Q26.6 -4.9 26.4 -5.4 M21.75 -2.9 L23.25 -2.9 25.45 -2.9 27.0 -2.9 Q28.35 -0.8 27.15 1.35 L25.25 1.35 M0.6 6.75 L0.95 5.85 2.6 1.9 M-2.2 1.95 Q-2.15 3.0 -2.7 4.1 L-3.75 5.6 Q-5.4 7.4 -5.55 9.4 -7.15 8.2 -9.2 5.1 M0.6 6.75 L0.35 7.25 -0.4 9.2 -1.0 11.75 Q0.3 12.9 -0.5 13.35 -3.05 14.85 -6.2 12.3 L-6.2 12.35 -7.4 12.25 Q-9.75 7.05 -10.95 6.9 L-14.25 6.9 M0.95 5.85 Q3.05 8.6 6.8 6.7" fill="none" stroke="#191718" stroke-linecap="round" stroke-linejoin="round" stroke-width="1.0"/>
    <path d="M25.45 -2.9 Q25.3 -2.25 25.7 -1.4 M-2.7 4.1 L-1.0 4.55 -1.9 6.05 Q-0.95 7.0 0.6 6.75 M-0.4 9.2 Q-1.95 9.6 -3.15 8.7 -3.75 10.4 -3.5 11.5 L-5.55 10.75 -5.55 9.4 M-1.9 6.05 L-3.15 8.7" fill="none" stroke="#201e1f" stroke-linecap="round" stroke-linejoin="round" stroke-width="1.0"/>
  </g>
</svg>
