<?xml version="1.0" encoding="UTF-8" standalone="no"?>
<svg xmlns:xlink="http://www.w3.org/1999/xlink" height="18.9px" width="57.6px" xmlns="http://www.w3.org/2000/svg">
  <g transform="matrix(1.0, 0.0, 0.0, 1.0, 25.65, 8.1)">
    <path d="M12.4 2.25 L12.65 4.3 10.0 6.65 7.9 6.75 4.55 10.25 -0.75 10.25 -0.3 8.95 Q1.15 8.15 1.2 7.8 L3.55 7.8 6.85 4.65 6.85 2.6 11.85 2.6 12.0 2.5 12.25 2.15 12.25 1.6 12.95 1.6 12.4 2.25 M-6.85 4.25 L-6.85 4.7 -13.1 4.85 -7.5 3.3 -6.85 4.25" fill="#3e3431" fill-rule="evenodd" stroke="none"/>
    <path d="M8.1 -6.85 L8.1 -5.15 9.45 -4.4 9.5 -3.6 5.5 -4.1 0.45 -3.6 1.6 -5.35 4.6 -5.35 5.5 -4.1 4.6 -5.35 1.6 -5.35 1.6 -6.85 8.1 -6.85 M13.1 -5.05 L13.1 -6.85 14.35 -6.85 14.35 -5.05 13.1 -5.05 M19.3 -0.9 L20.5 -0.9 20.5 0.9 18.85 0.9 18.7 0.25 19.3 -0.9 M19.3 1.65 L21.55 1.65 21.6 1.65 21.6 3.35 19.5 3.35 19.4 2.2 19.3 1.65 M-16.9 3.35 L-16.9 2.0 -14.8 1.95 -14.8 3.35 -16.9 3.35 -14.8 3.35 -14.8 4.2 -16.9 5.35 -16.9 3.35" fill="#272121" fill-rule="evenodd" stroke="none"/>
    <path d="M-19.5 -3.9 L-18.2 -4.15 -13.15 -4.15 -11.8 -3.75 -13.2 -2.9 -17.3 -2.9 -19.5 -3.9 M5.35 2.6 L5.25 2.7 Q4.8 2.95 4.4 4.3 L3.5 5.55 2.5 5.55 2.35 4.65 3.55 2.6 5.35 2.6" fill="#4b4642" fill-rule="evenodd" stroke="none"/>
    <path d="M18.85 0.9 L19.3 1.65 19.4 2.2 12.4 2.25 12.95 1.6 14.5 0.25 18.7 0.25 18.85 0.9 M-0.75 10.25 L-2.8 10.25 Q-2.95 9.05 -2.6 7.2 L-1.7 4.4 -1.2 3.15 2.0 2.55 3.1 1.65 3.25 1.65 4.85 1.25 11.85 1.25 Q12.15 1.4 12.25 1.6 L12.25 2.15 12.0 2.5 11.85 2.6 6.85 2.6 5.35 2.6 3.55 2.6 2.35 4.65 2.05 5.3 1.5 6.75 1.2 7.8 Q1.15 8.15 -0.3 8.95 L-0.75 10.25 M-3.9 3.25 L-6.85 4.25 -7.5 3.3 -6.6 1.95 -8.45 1.55 -5.5 1.55 -3.9 3.25 M-13.1 4.85 Q-13.4 5.2 -13.75 5.35 L-13.95 5.45 -15.45 6.5 -16.6 8.1 -17.75 10.3 -23.3 9.15 -25.05 6.1 -24.5 0.75 -23.9 0.75 -23.9 4.5 -19.55 4.5 -18.5 0.7 -13.2 0.7 -12.45 2.2 -13.1 4.85 M-24.75 0.05 L-25.15 -0.9 -24.7 -1.95 Q-23.15 -3.4 -21.3 -3.75 L-19.5 -3.9 -17.3 -2.9 -13.2 -2.9 -11.8 -3.75 -10.7 -3.6 -9.95 -2.9 -8.8 -1.8 -9.0 -1.8 -10.35 -1.1 -11.1 0.0 -12.5 0.0 -13.3 -1.1 -20.2 -1.1 -21.75 0.0 -24.75 0.05 M-14.8 3.35 L-14.8 1.95 -16.9 2.0 -16.9 3.35 -16.9 5.35 -14.8 4.2 -14.8 3.35" fill="#453832" fill-rule="evenodd" stroke="none"/>
    <path d="M0.25 -0.4 Q-0.4 0.45 0.25 1.8 -1.65 1.5 -1.85 0.6 -1.5 -0.45 0.25 -0.4" fill="#141414" fill-rule="evenodd" stroke="none"/>
    <path d="M9.45 -4.4 L9.9 -5.1 11.0 -5.1 11.35 -4.45 12.5 -4.45 15.5 -1.7 13.6 -1.7 13.35 -1.3 11.9 -1.3 9.5 -3.6 9.45 -4.4 M-1.2 3.15 L-3.6 3.7 -3.9 3.25 -5.5 1.55 -8.45 1.55 -13.2 0.7 -18.5 0.7 -19.55 4.5 -23.9 4.5 -23.9 0.75 -23.55 0.75 -23.25 0.75 -22.55 0.75 -18.5 0.7 -22.55 0.75 -23.25 0.75 -23.55 0.75 -23.9 0.75 -24.5 0.75 -24.75 0.05 -21.75 0.0 -20.2 -1.1 -13.3 -1.1 -12.5 0.0 -11.1 0.0 -10.35 -1.1 -9.0 -1.8 -8.8 -1.8 -9.95 -2.9 -6.85 -4.8 -5.8 -4.8 -4.95 -3.9 -3.1 -3.6 -3.75 -1.8 3.1 -1.3 3.1 1.65 2.0 2.55 -1.2 3.15 M-8.8 -1.8 L-3.75 -1.8 -8.8 -1.8 M-20.2 2.0 L-20.0 1.95 -19.95 1.8 -20.0 1.65 -20.2 1.55 -20.35 1.65 -20.45 1.8 -20.35 1.95 -20.2 2.0 M-22.8 3.1 L-22.85 3.25 -22.8 3.45 -22.65 3.5 -22.5 3.45 -22.4 3.25 -22.5 3.1 -22.65 3.05 -22.8 3.1 M-22.4 1.8 L-22.5 1.65 -22.7 1.55 -22.85 1.65 -22.9 1.8 -22.85 1.95 -22.7 2.0 -22.5 1.95 -22.4 1.8 M0.25 -0.4 Q-1.5 -0.45 -1.85 0.6 -1.65 1.5 0.25 1.8 -0.4 0.45 0.25 -0.4" fill="#342a27" fill-rule="evenodd" stroke="none"/>
    <path d="M-8.45 1.55 L-6.6 1.95 -7.5 3.3 -13.1 4.85 -12.45 2.2 -13.2 0.7 -8.45 1.55" fill="#3c302a" fill-rule="evenodd" stroke="none"/>
    <path d="M8.1 -6.85 L9.05 -7.55 13.1 -7.6 13.1 -6.85 13.1 -5.05 13.1 -5.0 12.5 -4.45 11.35 -4.45 11.0 -5.1 9.9 -5.1 9.45 -4.4 8.1 -5.15 8.1 -6.85 M-6.85 -4.8 L-6.85 -6.1 -5.6 -7.55 0.9 -7.55 1.6 -6.85 1.6 -5.35 0.45 -3.6 -3.1 -3.6 -4.95 -3.9 -5.8 -4.8 -6.85 -4.8 M-2.0 -5.7 L-3.35 -5.7 -3.95 -5.15 -3.35 -5.7 -2.0 -5.7" fill="#19140f" fill-rule="evenodd" stroke="none"/>
    <path d="M-20.2 2.0 L-20.35 1.95 -20.45 1.8 -20.35 1.65 -20.2 1.55 -20.0 1.65 -19.95 1.8 -20.0 1.95 -20.2 2.0 M-22.4 1.8 L-22.5 1.95 -22.7 2.0 -22.85 1.95 -22.9 1.8 -22.85 1.65 -22.7 1.55 -22.5 1.65 -22.4 1.8 M-22.8 3.1 L-22.65 3.05 -22.5 3.1 -22.4 3.25 -22.5 3.45 -22.65 3.5 -22.8 3.45 -22.85 3.25 -22.8 3.1" fill="#201915" fill-rule="evenodd" stroke="none"/>
    <path d="M-19.5 -3.9 L-18.2 -4.15 -13.15 -4.15 -11.8 -3.75 -13.2 -2.9 -17.3 -2.9 -19.5 -3.9 M19.4 2.2 L19.3 1.65" fill="none" stroke="#2c2826" stroke-linecap="round" stroke-linejoin="round" stroke-width="1.0"/>
    <path d="M0.25 -0.4 Q-1.5 -0.45 -1.85 0.6 -1.65 1.5 0.25 1.8 -0.4 0.45 0.25 -0.4" fill="none" stroke="#000000" stroke-linecap="round" stroke-linejoin="round" stroke-width="1.0"/>
    <path d="M5.35 2.6 L5.25 2.7 Q4.8 2.95 4.4 4.3 L3.5 5.55 2.5 5.55 2.35 4.65 M-14.8 3.35 L-14.8 1.95 -16.9 2.0 -16.9 3.35 -14.8 3.35 -14.8 4.2 -16.9 5.35 -16.9 3.35" fill="none" stroke="#100c0d" stroke-linecap="round" stroke-linejoin="round" stroke-width="1.0"/>
    <path d="M-1.2 3.15 L-3.6 3.7 -3.9 3.25 -5.5 1.55 -8.45 1.55 -13.2 0.7 -18.5 0.7 -22.55 0.75 -23.25 0.75 -23.55 0.75 -23.9 0.75 -24.5 0.75 -24.75 0.05 -25.15 -0.9 -24.7 -1.95 M3.1 1.65 L2.0 2.55 -1.2 3.15 M3.1 -1.3 L-3.75 -1.8 M-8.8 -1.8 L-9.0 -1.8 -10.35 -1.1 -11.1 0.0 -12.5 0.0 -13.3 -1.1 -20.2 -1.1 -21.75 0.0 -24.75 0.05 M-23.9 0.75 L-23.9 4.5 -19.55 4.5 -18.5 0.7" fill="none" stroke="#1e1816" stroke-linecap="round" stroke-linejoin="round" stroke-width="1.0"/>
    <path d="M18.85 0.9 L19.3 1.65 M-0.75 10.25 L-2.8 10.25 Q-2.95 9.05 -2.6 7.2 L-1.7 4.4 -1.2 3.15 M-3.9 3.25 L-6.85 4.25 -7.5 3.3 -13.1 4.85 Q-13.4 5.2 -13.75 5.35 L-13.95 5.45 -15.45 6.5 -16.6 8.1 -17.75 10.3 -23.3 9.15 -25.05 6.1 -24.5 0.75 M-6.85 4.7 L-13.1 4.85 M-24.7 -1.95 Q-23.15 -3.4 -21.3 -3.75 L-19.5 -3.9 M-11.8 -3.75 L-10.7 -3.6 -9.95 -2.9 M18.7 0.25 L18.85 0.9 M12.95 1.6 L12.4 2.25 M12.25 1.6 L12.25 2.15 12.0 2.5 11.85 2.6 6.85 2.6 5.35 2.6 3.55 2.6 2.35 4.65 2.05 5.3 1.5 6.75 1.2 7.8 Q1.15 8.15 -0.3 8.95 L-0.75 10.25" fill="none" stroke="#271d1c" stroke-linecap="round" stroke-linejoin="round" stroke-width="1.0"/>
    <path d="M-6.85 4.25 L-6.85 4.7" fill="none" stroke="#2a2321" stroke-linecap="round" stroke-linejoin="round" stroke-width="1.0"/>
    <path d="M12.65 4.3 L10.0 6.65 7.9 6.75 4.55 10.25 -0.75 10.25 M6.85 2.6 L6.85 4.65 3.55 7.8 1.2 7.8" fill="none" stroke="#27201e" stroke-linecap="round" stroke-linejoin="round" stroke-width="1.0"/>
    <path d="M13.1 -6.85 L14.35 -6.85 14.35 -5.05 13.1 -5.05 M1.6 -6.85 L8.1 -6.85 M0.45 -3.6 L5.5 -4.1 9.5 -3.6 11.9 -1.3 M9.5 -3.6 L9.45 -4.4 M15.5 -1.7 L12.5 -4.45 M19.3 -0.9 L20.5 -0.9 M20.5 0.9 L18.85 0.9 M19.3 1.65 L21.55 1.65 21.6 1.65 M21.6 3.35 L19.5 3.35 M-9.95 -2.9 L-6.85 -4.8 M-3.75 -1.8 L-8.8 -1.8 -9.95 -2.9 M-3.1 -3.6 L-3.75 -1.8" fill="none" stroke="#120f0f" stroke-linecap="round" stroke-linejoin="round" stroke-width="1.0"/>
    <path d="M5.5 -4.1 L4.6 -5.35 1.6 -5.35" fill="none" stroke="#191515" stroke-linecap="round" stroke-linejoin="round" stroke-width="1.0"/>
    <path d="M13.1 -6.85 L13.1 -7.6 9.05 -7.55 8.1 -6.85 8.1 -5.15 9.45 -4.4 9.9 -5.1 11.0 -5.1 11.35 -4.45 12.5 -4.45 13.1 -5.0 13.1 -5.05 13.1 -6.85 M-6.85 -4.8 L-6.85 -6.1 -5.6 -7.55 0.9 -7.55 1.6 -6.85 1.6 -5.35 0.45 -3.6 -3.1 -3.6 -4.95 -3.9 -5.8 -4.8 -6.85 -4.8 M-3.95 -5.15 L-3.35 -5.7 -2.0 -5.7" fill="none" stroke="#100c0a" stroke-linecap="round" stroke-linejoin="round" stroke-width="1.0"/>
    <path d="M20.5 -0.9 L21.2 -1.35 31.45 -1.35 31.45 -0.9 31.45 0.6 31.45 0.95 20.5 0.9 20.5 -0.9" fill="#4b4642" fill-rule="evenodd" stroke="none"/>
    <path d="M20.5 -0.9 L20.5 0.9 31.45 0.95 31.45 0.6 31.45 -0.9 31.45 -1.35 21.2 -1.35 20.5 -0.9 Z" fill="none" stroke="#2c2826" stroke-linecap="round" stroke-linejoin="round" stroke-width="1.0"/>
    <path d="M21.6 1.4 L24.7 1.45 24.7 2.9 24.7 3.35 24.35 3.9 21.6 3.9 21.6 3.35 21.6 1.65 21.6 1.4" fill="#4b4642" fill-rule="evenodd" stroke="none"/>
    <path d="M21.6 1.4 L21.6 1.65 21.6 3.35 21.6 3.9 24.35 3.9 24.7 3.35 24.7 2.9 24.7 1.45 21.6 1.4 Z" fill="none" stroke="#2c2826" stroke-linecap="round" stroke-linejoin="round" stroke-width="1.0"/>
    <path d="M-20.9 -1.5 L-21.65 -2.05 -21.4 -2.9" fill="none" stroke="#382c29" stroke-linecap="round" stroke-linejoin="round" stroke-width="1.0"/>
    <path d="M3.1 -1.3 L11.9 -1.3 13.35 -1.3 13.6 -1.7 15.5 -1.7 18.15 -1.7 19.3 -0.9 18.7 0.25 14.5 0.25 12.95 1.6 12.25 1.6 Q12.15 1.4 11.85 1.25 L4.85 1.25 3.25 1.65 3.1 1.65 3.1 -1.3 M12.45 -0.05 L9.5 -0.05 12.45 -0.05 M7.8 -0.05 L4.85 -0.05 7.8 -0.05 M17.4 3.7 L17.4 2.55 17.4 3.7 M19.4 2.2 L19.5 3.35 18.75 4.85 16.95 4.85 15.5 5.5 12.65 4.3 12.4 2.25 19.4 2.2" fill="#4b4642" fill-rule="evenodd" stroke="none"/>
    <path d="M4.85 -0.05 L7.8 -0.05 M9.5 -0.05 L12.45 -0.05" fill="none" stroke="#000000" stroke-linecap="round" stroke-linejoin="round" stroke-width="1.0"/>
    <path d="M3.1 -1.3 L11.9 -1.3 M15.5 -1.7 L18.15 -1.7 19.3 -0.9 M12.95 1.6 L12.25 1.6 M17.4 2.55 L17.4 3.7 M19.5 3.35 L18.75 4.85 16.95 4.85 15.5 5.5 12.65 4.3 12.4 2.25" fill="none" stroke="#2c2826" stroke-linecap="round" stroke-linejoin="round" stroke-width="1.0"/>
    <path d="M11.9 -1.3 L13.35 -1.3 13.6 -1.7 15.5 -1.7" fill="none" stroke="#120f0f" stroke-linecap="round" stroke-linejoin="round" stroke-width="1.0"/>
    <path d="M19.3 -0.9 L18.7 0.25 M19.4 2.2 L19.5 3.35" fill="none" stroke="#1c1918" stroke-linecap="round" stroke-linejoin="round" stroke-width="1.0"/>
    <path d="M18.7 0.25 L14.5 0.25 12.95 1.6 M12.25 1.6 Q12.15 1.4 11.85 1.25 L4.85 1.25 3.25 1.65 3.1 1.65 M12.4 2.25 L19.4 2.2" fill="none" stroke="#271d1c" stroke-linecap="round" stroke-linejoin="round" stroke-width="1.0"/>
    <path d="M3.1 1.65 L3.1 -1.3" fill="none" stroke="#1e1816" stroke-linecap="round" stroke-linejoin="round" stroke-width="1.0"/>
  </g>
</svg>
