<?xml version="1.0" encoding="UTF-8" standalone="no"?>
<svg xmlns:ffdec="https://www.free-decompiler.com/flash" xmlns:xlink="http://www.w3.org/1999/xlink" ffdec:objectType="shape" height="12.4px" width="18.0px" xmlns="http://www.w3.org/2000/svg">
  <g transform="matrix(1.0, 0.0, 0.0, 1.0, 0.9, -0.35)">
    <path d="M16.6 10.7 L16.6 12.25 8.4 11.6 7.75 10.5 5.5 10.5 4.65 11.15 0.0 10.5 0.0 8.9 3.55 9.45 2.35 7.35 0.0 5.4 0.6 4.0 0.6 0.85 7.2 1.35 7.2 3.35 9.05 4.75 5.55 5.8 6.15 8.9 8.45 8.9 9.5 10.15 16.6 10.7 M5.6 8.9 L4.5 9.6 3.55 9.45 4.5 9.6 5.6 8.9 6.15 8.9 5.6 8.9" fill="#1e1e1e" fill-rule="evenodd" stroke="none"/>
    <path d="M0.0 8.9 Q-0.75 7.05 0.0 5.4 L2.35 7.35 3.55 9.45 0.0 8.9" fill="url(#gradient0)" fill-rule="evenodd" stroke="none"/>
    <path d="M9.05 4.75 Q10.95 5.95 13.7 7.15 16.4 8.3 16.6 10.7 L9.5 10.15 8.45 8.9 6.15 8.9 5.55 5.8 9.05 4.75" fill="url(#gradient1)" fill-rule="evenodd" stroke="none"/>
    <path d="M5.6 8.9 L6.15 8.9" fill="none" stroke="#131313" stroke-linecap="round" stroke-linejoin="round" stroke-width="1.0"/>
    <path d="M16.6 10.7 L16.6 12.25 8.4 11.6 7.75 10.5 5.5 10.5 4.65 11.15 0.0 10.5 0.0 8.9 M3.55 9.45 L4.5 9.6 5.6 8.9" fill="none" stroke="#121212" stroke-linecap="round" stroke-linejoin="round" stroke-width="1.0"/>
    <path d="M9.05 4.75 Q10.95 5.95 13.7 7.15 16.4 8.3 16.6 10.7 L9.5 10.15 8.45 8.9 6.15 8.9 5.55 5.8 9.05 4.75 7.2 3.35 7.2 1.35 0.6 0.85 0.6 4.0 0.0 5.4 Q-0.75 7.05 0.0 8.9 L3.55 9.45 2.35 7.35 0.0 5.4" fill="none" stroke="#0e0e0e" stroke-linecap="round" stroke-linejoin="round" stroke-width="1.0"/>
  </g>
  <defs>
    <radialGradient cx="0" cy="0" gradientTransform="matrix(0.0033, 0.0, 0.0, 0.0033, 1.8, 7.4)" gradientUnits="userSpaceOnUse" id="gradient0" r="819.2" spreadMethod="pad">
      <stop offset="0.0" stop-color="#333333"/>
      <stop offset="1.0" stop-color="#1c1c1c"/>
    </radialGradient>
    <radialGradient cx="0" cy="0" gradientTransform="matrix(0.0065, 0.0, 0.0, 0.0065, 10.95, 7.85)" gradientUnits="userSpaceOnUse" id="gradient1" r="819.2" spreadMethod="pad">
      <stop offset="0.0" stop-color="#333333"/>
      <stop offset="1.0" stop-color="#1c1c1c"/>
    </radialGradient>
  </defs>
</svg>
