<?xml version="1.0" encoding="UTF-8" standalone="no"?>
<svg xmlns:xlink="http://www.w3.org/1999/xlink" height="18.2px" width="50.1px" xmlns="http://www.w3.org/2000/svg">
  <g transform="matrix(1.0, 0.0, 0.0, 1.0, 14.65, 7.4)">
    <path d="M-14.15 -0.25 L0.2 -0.25 0.95 -1.15 11.4 0.2 9.6 3.5 3.7 6.8 -0.4 8.1 -2.2 5.8 -6.7 9.85 -9.05 9.85 -11.15 7.85 -14.15 -0.25 M-3.15 1.85 L-9.6 1.85 -8.85 6.2 -7.85 7.65 -4.45 4.85 -3.15 1.85 M5.0 4.55 L7.95 2.6 5.4 1.75 5.0 4.55 M3.15 5.3 L3.7 1.75 -0.05 2.15 0.05 6.35 3.15 5.3" fill="#333333" fill-rule="evenodd" stroke="none"/>
    <path d="M0.95 -1.15 L0.2 -0.25 -14.15 -0.25 -13.25 -3.5 -5.4 -3.5 -4.95 -6.05 0.4 -6.05 2.2 -2.65 0.95 -1.15 M9.6 3.5 L11.4 0.2 14.3 0.6 11.35 5.65 9.6 3.5 M31.35 -3.55 L34.35 -3.55 34.95 -2.15 33.5 -1.15 33.5 2.1 34.55 3.0 34.55 4.45 29.5 4.45 32.1 2.2 31.35 -3.55 M-2.95 -1.75 L-0.8 -3.9 -2.95 -1.75 M-4.8 -1.9 L-2.8 -3.9 -4.8 -1.9 M28.3 5.7 L27.2 8.9 25.05 8.9 22.8 8.9 20.25 8.9 18.1 8.9 16.65 5.65 18.25 2.8 26.3 2.85 28.3 5.7 M22.8 6.35 L22.8 8.9 22.8 6.35 M24.85 6.95 L25.05 8.9 24.85 6.95 M20.25 6.55 L20.25 8.9 20.25 6.55" fill="#666666" fill-rule="evenodd" stroke="none"/>
    <path d="M-4.95 -6.05 L-5.4 -3.5 -13.25 -3.5 Q-12.2 -4.8 -9.75 -5.65 -7.35 -6.55 -4.95 -6.05 M19.9 -4.0 L27.35 -4.0 26.05 -2.1 21.45 -2.1 19.9 -4.0" fill="#80bfff" fill-rule="evenodd" stroke="none"/>
    <path d="M0.95 -1.15 L2.2 -2.65 0.4 -6.05 1.9 -6.9 15.45 -6.9 17.95 -5.0 19.05 -5.0 19.9 -4.0 21.45 -2.1 26.05 -2.1 27.35 -4.0 28.05 -5.0 29.4 -5.0 31.35 -3.55 32.1 2.2 29.5 4.45 28.9 5.05 28.3 5.7 26.3 2.85 18.25 2.8 16.65 5.65 11.35 5.65 14.3 0.6 11.4 0.2 0.95 -1.15 M5.3 -4.05 L15.45 -3.8 13.45 -5.3 4.45 -5.6 5.3 -4.05 M13.35 -1.5 L17.05 -1.5 18.4 -2.5 17.05 -1.5 19.7 1.25 25.6 1.25 19.7 1.25 17.05 -1.5 13.35 -1.5 M15.45 0.75 L14.3 0.6 15.45 0.75" fill="#b0b0b0" fill-rule="evenodd" stroke="none"/>
    <path d="M11.4 0.2 L0.95 -1.15 M0.4 -6.05 L1.9 -6.9 15.45 -6.9 17.95 -5.0 19.05 -5.0 M28.05 -5.0 L29.4 -5.0 31.35 -3.55 M29.5 4.45 L28.9 5.05 28.3 5.7 M5.3 -4.05 L15.45 -3.8 13.45 -5.3 4.45 -5.6 5.3 -4.05 M18.4 -2.5 L17.05 -1.5 19.7 1.25 25.6 1.25 M17.05 -1.5 L13.35 -1.5 M16.65 5.65 L11.35 5.65 9.6 3.5 M11.4 0.2 L14.3 0.6 15.45 0.75 M11.35 5.65 L14.3 0.6" fill="none" stroke="#595959" stroke-linecap="round" stroke-linejoin="round" stroke-width="1.0"/>
    <path d="M-14.15 -0.25 L0.2 -0.25 0.95 -1.15 M-14.15 -0.25 L-11.15 7.85 -9.05 9.85 -6.7 9.85 -2.2 5.8 -0.4 8.1 3.7 6.8 9.6 3.5 11.4 0.2 M-3.15 1.85 L-9.6 1.85 -8.85 6.2 -7.85 7.65 -4.45 4.85 -3.15 1.85 M5.0 4.55 L7.95 2.6 5.4 1.75 5.0 4.55 M3.15 5.3 L0.05 6.35 -0.05 2.15 3.7 1.75 3.15 5.3" fill="none" stroke="#000000" stroke-linecap="round" stroke-linejoin="round" stroke-width="1.0"/>
    <path d="M0.4 -6.05 L-4.95 -6.05 -5.4 -3.5 -13.25 -3.5 -14.15 -0.25 M19.05 -5.0 L19.9 -4.0 21.45 -2.1 26.05 -2.1 27.35 -4.0 28.05 -5.0 M31.35 -3.55 L34.35 -3.55 34.95 -2.15 33.5 -1.15 33.5 2.1 34.55 3.0 34.55 4.45 29.5 4.45 32.1 2.2 31.35 -3.55 M28.9 5.05 L31.15 7.3 31.15 10.3 32.85 10.3 M-2.8 -3.9 L-4.8 -1.9 M-0.8 -3.9 L-2.95 -1.75 M28.3 5.7 L27.2 8.9 25.05 8.9 22.8 8.9 20.25 8.9 18.1 8.9 16.65 5.65 18.25 2.8 26.3 2.85 28.3 5.7 M20.25 8.9 L20.25 6.55 M25.05 8.9 L24.85 6.95 M22.8 8.9 L22.8 6.35" fill="none" stroke="#3c3c3c" stroke-linecap="round" stroke-linejoin="round" stroke-width="1.0"/>
    <path d="M19.9 -4.0 L27.35 -4.0 M-13.25 -3.5 Q-12.2 -4.8 -9.75 -5.65 -7.35 -6.55 -4.95 -6.05" fill="none" stroke="#026fdb" stroke-linecap="round" stroke-linejoin="round" stroke-width="1.0"/>
    <path d="M0.95 -1.15 L2.2 -2.65 0.4 -6.05" fill="none" stroke="#515151" stroke-linecap="round" stroke-linejoin="round" stroke-width="1.0"/>
  </g>
</svg>
