<?xml version="1.0" encoding="UTF-8" standalone="no"?>
<svg xmlns:ffdec="https://www.free-decompiler.com/flash" xmlns:xlink="http://www.w3.org/1999/xlink" ffdec:objectType="shape" height="18.7px" width="19.6px" xmlns="http://www.w3.org/2000/svg">
  <g transform="matrix(1.0, 0.0, 0.0, 1.0, 9.0, 10.45)">
    <path d="M7.85 -2.95 L9.7 5.6 6.5 6.55 3.2 6.35 3.1 5.55 1.85 4.5 -0.8 3.7 -3.55 2.15 -4.85 0.5 -4.85 0.4 -3.9 -1.25 -2.0 -3.6 -1.15 -5.9 -1.9 -8.1 -2.55 -9.3 -0.95 -9.95 Q4.7 -10.1 6.2 -6.95 L7.85 -2.95" fill="url(#gradient0)" fill-rule="evenodd" stroke="none"/>
    <path d="M7.85 -2.95 L9.7 5.6 6.5 6.55 3.2 6.35 3.1 5.55 1.85 4.5 -0.8 3.7 -3.55 2.15 -4.85 0.5 -4.85 0.4 -3.9 -1.25 -2.0 -3.6 -1.15 -5.9 -1.9 -8.1 -2.55 -9.3 -0.95 -9.95 Q4.7 -10.1 6.2 -6.95 L7.85 -2.95 M2.6 2.85 L5.45 3.4 Q5.8 -0.1 4.15 -4.65" fill="none" stroke="#0d1215" stroke-linecap="round" stroke-linejoin="round" stroke-width="1.0"/>
    <path d="M-3.55 2.15 L-0.8 3.7 1.85 4.5 3.1 5.55 3.3 7.55 0.65 7.6 -1.05 5.85 -5.3 4.25 -8.4 3.6 Q-8.85 -0.15 -6.65 -3.9 L-4.85 0.4 -4.9 0.4 -4.85 0.5 -3.55 2.15" fill="#191919" fill-rule="evenodd" stroke="none"/>
    <path d="M-4.85 0.4 L-6.65 -3.9 -4.8 -6.9 -4.05 -9.5 -2.55 -9.3 -1.9 -8.1 -1.15 -5.9 -2.0 -3.6 -3.9 -1.25 -4.85 0.4 M3.2 6.35 L6.5 6.55 9.7 5.6 10.05 7.75 3.3 7.55 3.2 6.35 M0.65 7.6 L-0.35 7.6 -8.5 5.3 -8.4 3.6 -5.3 4.25 -1.05 5.85 0.65 7.6" fill="#2f3337" fill-rule="evenodd" stroke="none"/>
    <path d="M-4.85 0.4 L-6.65 -3.9 -4.8 -6.9 -4.05 -9.5 -2.55 -9.3 -1.9 -8.1 -1.15 -5.9 -2.0 -3.6 -3.9 -1.25 -4.85 0.4 M3.2 6.35 L6.5 6.55 9.7 5.6 10.05 7.75 3.3 7.55 3.2 6.35 M0.65 7.6 L-0.35 7.6 -8.5 5.3 -8.4 3.6 -5.3 4.25 -1.05 5.85 0.65 7.6 Z" fill="none" stroke="#131313" stroke-linecap="butt" stroke-linejoin="miter-clip" stroke-miterlimit="4.0" stroke-width="1.0"/>
    <path d="M-0.35 7.6 L0.65 7.6 -1.05 5.85 -5.3 4.25 -8.4 3.6 Q-8.85 -0.15 -6.65 -3.9 L-4.85 0.4 -4.85 0.5 -3.55 2.15 -0.8 3.7 1.85 4.5 3.1 5.55 3.3 7.55 0.65 7.6 M-4.85 0.5 L-4.9 0.4 -4.85 0.4 M6.2 -6.95 Q4.7 -10.1 -0.95 -9.95 L-2.55 -9.3 -4.05 -9.5" fill="none" stroke="#080808" stroke-linecap="round" stroke-linejoin="round" stroke-width="1.0"/>
    <path d="M4.15 -4.65 Q5.8 -0.1 5.45 3.4" fill="none" stroke="#101619" stroke-linecap="round" stroke-linejoin="round" stroke-width="1.0"/>
    <path d="M-6.65 -3.9 L-4.8 -6.9 -4.05 -9.5 M-0.35 7.6 L-8.5 5.3 -8.4 3.6 M9.7 5.6 L10.05 7.75 3.3 7.55" fill="none" stroke="#222222" stroke-linecap="round" stroke-linejoin="round" stroke-width="1.0"/>
    <path d="M5.45 3.4 L2.6 2.85" fill="none" stroke="#101619" stroke-linecap="round" stroke-linejoin="round" stroke-width="1.0"/>
  </g>
  <defs>
    <linearGradient gradientTransform="matrix(0.0044, 0.0, 0.0, 0.0044, 3.0, -1.7)" gradientUnits="userSpaceOnUse" id="gradient0" spreadMethod="pad" x1="-819.2" x2="819.2">
      <stop offset="0.0" stop-color="#1d2b38"/>
      <stop offset="1.0" stop-color="#495d71"/>
    </linearGradient>
  </defs>
</svg>
