<?xml version="1.0" encoding="UTF-8" standalone="no"?>
<svg xmlns:ffdec="https://www.free-decompiler.com/flash" xmlns:xlink="http://www.w3.org/1999/xlink" ffdec:objectType="shape" height="10.2px" width="16.35px" xmlns="http://www.w3.org/2000/svg">
  <g transform="matrix(1.0, 0.0, 0.0, 1.0, 5.35, 3.25)">
    <path d="M-1.25 6.0 L-1.95 6.0 Q-2.5 3.6 -2.3 1.5 L2.95 0.6 -2.3 1.5 -1.95 -0.35 Q0.5 -4.05 3.7 -2.1 L2.95 0.6 2.9 0.8 Q2.85 2.0 3.4 2.75 L4.6 3.7 8.9 4.3 8.9 6.0 -1.25 6.0 3.4 2.75 -1.25 6.0" fill="#423f59" fill-rule="evenodd" stroke="none"/>
    <path d="M-1.25 6.0 L3.4 2.75 Q2.85 2.0 2.9 0.8 L2.95 0.6 -2.3 1.5 -1.95 -0.35 Q0.5 -4.05 3.7 -2.1 L2.95 0.6 M-1.25 6.0 L8.9 6.0 8.9 4.3 4.6 3.7 3.4 2.75" fill="none" stroke="#28323a" stroke-linecap="round" stroke-linejoin="round" stroke-width="1.0"/>
    <path d="M-2.3 1.5 Q-2.5 3.6 -1.95 6.0 L-1.25 6.0" fill="none" stroke="#ff0000" stroke-linecap="round" stroke-linejoin="round" stroke-width="1.0"/>
    <path d="M10.4 6.45 L4.4 6.25 Q4.2 5.15 7.0 2.65 11.1 2.9 10.4 6.45" fill="#44707e" fill-rule="evenodd" stroke="none"/>
    <path d="M0.1 0.75 Q0.95 2.35 0.75 6.25 L-2.95 6.25 Q-3.8 6.2 -4.25 5.8 -4.9 5.25 -4.8 4.05 -5.15 0.75 -1.4 -0.4 -0.45 -0.25 0.1 0.75 -5.3 4.3 -4.25 5.8 -5.3 4.3 0.1 0.75" fill="#605c82" fill-rule="evenodd" stroke="none"/>
    <path d="M10.4 6.45 L4.4 6.25 Q4.2 5.15 7.0 2.65 11.1 2.9 10.4 6.45" fill="none" stroke="#364e4a" stroke-linecap="round" stroke-linejoin="round" stroke-width="1.0"/>
    <path d="M0.1 0.75 Q0.95 2.35 0.75 6.25 L-2.95 6.25 Q-3.8 6.2 -4.25 5.8 -4.9 5.25 -4.8 4.05 -5.15 0.75 -1.4 -0.4 -0.45 -0.25 0.1 0.75 -5.3 4.3 -4.25 5.8" fill="none" stroke="#443f47" stroke-linecap="round" stroke-linejoin="round" stroke-width="1.0"/>
  </g>
</svg>
