<?xml version="1.0" encoding="UTF-8" standalone="no"?>
<svg xmlns:ffdec="https://www.free-decompiler.com/flash" xmlns:xlink="http://www.w3.org/1999/xlink" ffdec:objectType="shape" height="10.3px" width="19.2px" xmlns="http://www.w3.org/2000/svg">
  <g transform="matrix(1.0, 0.0, 0.0, 1.0, 6.05, 3.6)">
    <path d="M-2.35 5.8 L-3.65 1.35 Q-4.0 -0.5 -1.35 -1.35 L3.55 -2.2 6.4 -0.5 6.55 0.6 Q6.9 1.25 8.5 1.45 12.25 2.0 11.15 5.95 L-2.35 5.8" fill="#151515" fill-rule="evenodd" stroke="none"/>
    <path d="M-2.35 5.8 L11.15 5.95 Q12.25 2.0 8.5 1.45 6.9 1.25 6.55 0.6 L6.4 -0.5 3.55 -2.2 -1.35 -1.35 Q-4.0 -0.5 -3.65 1.35 L-2.35 5.8 Z" fill="none" stroke="#090808" stroke-linecap="round" stroke-linejoin="round" stroke-width="1.0"/>
    <path d="M-2.0 1.3 Q-2.0 1.9 -1.45 1.95 0.1 2.1 1.3 3.15 2.45 4.15 1.95 4.25 L0.55 4.65 -5.25 4.95 Q-5.9 4.0 -5.05 1.0 -4.2 -1.9 -3.35 -2.35 -3.3 -2.55 -2.6 -0.9 L-1.9 0.75 -2.0 1.3" fill="#5a5551" fill-rule="evenodd" stroke="none"/>
    <path d="M-2.0 1.3 Q-2.0 1.9 -1.45 1.95 0.1 2.1 1.3 3.15 2.45 4.15 1.95 4.25 L0.55 4.65 -5.25 4.95 Q-5.9 4.0 -5.05 1.0 -4.2 -1.9 -3.35 -2.35 -3.3 -2.55 -2.6 -0.9 L-1.9 0.75 -2.0 1.3 Z" fill="none" stroke="#3a3733" stroke-linecap="round" stroke-linejoin="round" stroke-width="1.0"/>
    <path d="M5.95 1.6 L5.65 1.9 Q4.3 3.05 3.25 2.6 L1.8 1.55 Q1.15 0.9 1.2 0.65 L1.75 -1.4 Q2.4 -3.1 3.0 -3.1 4.1 -3.1 5.6 -1.5 L6.85 0.0 6.75 0.35 6.7 0.7 5.95 1.6 6.7 0.7 6.75 0.35 6.85 0.0 7.05 -0.15 8.4 -0.4 Q9.8 -0.2 11.4 2.0 12.25 2.75 11.85 4.45 L4.75 5.05 Q4.1 4.25 4.4 3.45 L5.55 2.05 5.95 1.6 M6.75 0.65 L6.7 0.7 6.7 0.85 6.75 0.65 6.9 0.05 6.85 0.0 6.9 0.05 6.75 0.65 6.7 0.85 6.7 0.7 6.75 0.65" fill="#7b756f" fill-rule="evenodd" stroke="none"/>
    <path d="M6.85 0.0 L5.6 -1.5 Q4.1 -3.1 3.0 -3.1 2.4 -3.1 1.75 -1.4 L1.2 0.65 Q1.15 0.9 1.8 1.55 L3.25 2.6 Q4.3 3.05 5.65 1.9 L5.95 1.6 6.7 0.7 6.75 0.35 6.85 0.0 7.05 -0.15 8.4 -0.4 Q9.8 -0.2 11.4 2.0 12.25 2.75 11.85 4.45 L4.75 5.05 Q4.1 4.25 4.4 3.45 L5.55 2.05 5.95 1.6 M6.85 0.0 L6.9 0.05 6.75 0.65 6.7 0.85 6.7 0.7 6.75 0.65" fill="none" stroke="#3c3935" stroke-linecap="round" stroke-linejoin="round" stroke-width="1.0"/>
    <path d="M10.15 3.7 L10.9 2.6 11.85 2.6 12.65 3.65 12.5 5.65 11.45 6.2 10.5 6.15 10.3 6.0 9.6 6.0 9.4 6.2 8.6 6.2 8.4 6.0 7.6 6.0 7.35 6.15 6.6 6.15 6.3 6.0 5.75 5.95 5.5 6.15 4.7 6.15 4.35 5.95 4.1 5.95 4.2 4.6 8.4 4.65 8.7 3.8 10.15 3.7" fill="#4b4943" fill-rule="evenodd" stroke="none"/>
    <path d="M10.15 3.7 L8.7 3.8 8.4 4.65 4.2 4.6 4.1 5.95 4.35 5.95 4.7 6.15 5.5 6.15 5.75 5.95 6.3 6.0 6.6 6.15 7.35 6.15 7.6 6.0 8.4 6.0 8.6 6.2 9.4 6.2 9.6 6.0 10.3 6.0 10.5 6.15 11.45 6.2 12.5 5.65 12.65 3.65 11.85 2.6 10.9 2.6 10.15 3.7 Z" fill="none" stroke="#2c2927" stroke-linecap="round" stroke-linejoin="round" stroke-width="1.0"/>
    <path d="M-0.5 6.15 L-1.4 6.1 -1.7 5.8 -2.35 5.8 -2.7 6.1 -4.45 5.9 -5.35 4.45 3.75 4.5 4.0 4.65 3.95 6.15 1.05 6.1 0.85 5.9 -0.25 5.9 -0.5 6.15" fill="#4b4943" fill-rule="evenodd" stroke="none"/>
    <path d="M-0.5 6.15 L-1.4 6.1 -1.7 5.8 -2.35 5.8 -2.7 6.1 -4.45 5.9 -5.35 4.45 3.75 4.5 4.0 4.65 3.95 6.15 1.05 6.1 0.85 5.9 -0.25 5.9 -0.5 6.15 Z" fill="none" stroke="#2c2927" stroke-linecap="round" stroke-linejoin="round" stroke-width="1.0"/>
  </g>
</svg>
