<?xml version="1.0" encoding="UTF-8" standalone="no"?>
<svg xmlns:ffdec="https://www.free-decompiler.com/flash" xmlns:xlink="http://www.w3.org/1999/xlink" ffdec:objectType="shape" height="8.75px" width="18.05px" xmlns="http://www.w3.org/2000/svg">
  <g transform="matrix(1.0, 0.0, 0.0, 1.0, 5.5, 1.9)">
    <path d="M1.75 6.2 L-2.35 6.05 -4.65 6.1 Q-5.25 5.1 -4.75 1.6 -4.65 0.95 -3.5 0.5 -2.25 -0.05 -2.15 -0.6 -1.9 -0.85 -2.1 -1.15 L-0.95 -1.3 4.6 -1.1 Q8.25 -0.7 9.65 0.3 11.55 1.5 11.95 3.2 12.2 4.25 11.7 6.25 L1.75 6.3 1.75 6.2 1.9 5.2 2.2 3.9 2.25 2.9 Q2.3 1.9 0.8 0.45 L-0.95 -1.0 0.45 0.4 Q1.95 2.0 2.1 3.0 L2.2 3.9 1.9 5.2 1.75 6.2 2.05 5.15 2.2 3.9 2.05 5.15 1.75 6.2" fill="url(#gradient0)" fill-rule="evenodd" stroke="none"/>
    <path d="M1.75 6.2 L1.75 6.3 11.7 6.25 Q12.2 4.25 11.95 3.2 11.55 1.5 9.65 0.3 8.25 -0.7 4.6 -1.1 L-0.95 -1.3 -2.1 -1.15 Q-1.9 -0.85 -2.15 -0.6 -2.25 -0.05 -3.5 0.5 -4.65 0.95 -4.75 1.6 -5.25 5.1 -4.65 6.1 L-2.35 6.05 1.75 6.2 1.9 5.2 2.2 3.9 2.1 3.0 Q1.95 2.0 0.45 0.4 L-0.95 -1.0 0.8 0.45 Q2.3 1.9 2.25 2.9 L2.2 3.9 2.05 5.15 1.75 6.2 Z" fill="none" stroke="#171718" stroke-linecap="round" stroke-linejoin="round" stroke-width="1.0"/>
  </g>
  <defs>
    <radialGradient cx="0" cy="0" gradientTransform="matrix(0.0129, 1.0E-4, 4.0E-4, 0.027, 5.55, 3.1)" gradientUnits="userSpaceOnUse" id="gradient0" r="819.2" spreadMethod="pad">
      <stop offset="0.0" stop-color="#28282a"/>
      <stop offset="1.0" stop-color="#545459"/>
    </radialGradient>
  </defs>
</svg>
