<?xml version="1.0" encoding="UTF-8" standalone="no"?>
<svg xmlns:ffdec="https://www.free-decompiler.com/flash" xmlns:xlink="http://www.w3.org/1999/xlink" ffdec:objectType="shape" height="22.9px" width="26.0px" xmlns="http://www.w3.org/2000/svg">
  <g transform="matrix(1.0, 0.0, 0.0, 1.0, 12.15, 13.9)">
    <path d="M6.8 -3.9 L6.3 -2.15 1.8 -2.55 6.3 -2.15 Q5.95 -0.1 6.45 2.3 L3.0 4.75 1.7 4.75 -6.0 2.8 -6.45 -2.65 Q-7.05 -9.25 -3.85 -10.9 -4.4 -5.8 -2.7 -3.7 -1.85 -2.5 0.05 -2.3 L1.8 -2.55 3.35 -6.4 6.8 -3.9 M0.05 -2.3 Q-0.45 2.1 1.7 4.75 -0.45 2.1 0.05 -2.3" fill="#cfac5d" fill-rule="evenodd" stroke="none"/>
    <path d="M3.35 -6.4 L1.8 -2.55 0.05 -2.3 Q-1.85 -2.5 -2.7 -3.7 -4.4 -5.8 -3.85 -10.9 L-1.5 -13.4 2.3 -10.85 Q4.1 -9.7 3.35 -6.4" fill="#f0c468" fill-rule="evenodd" stroke="none"/>
    <path d="M6.8 -3.9 L3.35 -6.4 1.8 -2.55 6.3 -2.15 M-1.5 -13.4 L2.3 -10.85 Q4.1 -9.7 3.35 -6.4 M-3.85 -10.9 Q-4.4 -5.8 -2.7 -3.7 -1.85 -2.5 0.05 -2.3 L1.8 -2.55 M1.7 4.75 Q-0.45 2.1 0.05 -2.3" fill="none" stroke="#796850" stroke-linecap="round" stroke-linejoin="round" stroke-width="1.0"/>
    <path d="M6.3 -2.15 L6.8 -3.9 M6.3 -2.15 Q5.95 -0.1 6.45 2.3 L3.0 4.75 1.7 4.75 -6.0 2.8 -6.45 -2.65 Q-7.05 -9.25 -3.85 -10.9 L-1.5 -13.4" fill="none" stroke="#3f3626" stroke-linecap="round" stroke-linejoin="round" stroke-width="1.0"/>
    <path d="M3.65 6.95 Q-0.05 7.15 -4.75 4.45 L-8.45 1.15 -0.35 1.75 3.65 6.95" fill="#7e6a3d" fill-rule="evenodd" stroke="none"/>
    <path d="M3.65 6.95 Q-0.05 7.15 -4.75 4.45 L-8.45 1.15 -0.35 1.75 3.65 6.95 Z" fill="none" stroke="#453d29" stroke-linecap="round" stroke-linejoin="round" stroke-width="1.0"/>
    <path d="M3.3 3.8 Q5.2 2.55 7.8 2.6 10.25 3.15 11.4 5.8 L9.05 8.5 3.05 8.2 Q1.6 8.0 1.9 6.45 2.05 4.95 3.3 3.8" fill="#bc9d58" fill-rule="evenodd" stroke="none"/>
    <path d="M-6.65 6.05 L-10.85 5.35 -8.45 1.15 -3.35 1.55 Q-2.15 4.9 -6.65 6.05" fill="#5e543e" fill-rule="evenodd" stroke="none"/>
    <path d="M3.3 3.8 Q5.2 2.55 7.8 2.6 10.25 3.15 11.4 5.8 L9.05 8.5 3.05 8.2 Q1.6 8.0 1.9 6.45 2.05 4.95 3.3 3.8 M-6.65 6.05 L-10.85 5.35 -8.45 1.15 -3.35 1.55 Q-2.15 4.9 -6.65 6.05 Z" fill="none" stroke="#453d29" stroke-linecap="round" stroke-linejoin="round" stroke-width="1.0"/>
    <path d="M-0.4 -9.85 Q-0.05 -9.8 0.15 -9.6 L0.3 -9.05 0.0 -8.55 -0.55 -8.35 -1.05 -8.65 -1.2 -9.2 -0.95 -9.7 -0.4 -9.85 M-0.45 -7.5 L-0.15 -8.0 0.4 -8.15 0.9 -7.9 1.05 -7.35 0.8 -6.85 0.25 -6.7 Q-0.1 -6.7 -0.3 -6.95 L-0.45 -7.5 M-1.45 -11.55 L-0.9 -11.7 Q-0.6 -11.65 -0.4 -11.4 L-0.25 -10.85 Q-0.25 -10.55 -0.5 -10.35 L-1.05 -10.2 -1.6 -10.5 -1.75 -11.05 -1.45 -11.55 M-2.9 -10.1 L-2.35 -10.25 -1.85 -10.0 -1.7 -9.45 -2.0 -8.95 -2.55 -8.8 -3.05 -9.1 -3.2 -9.6 -2.9 -10.1 M-2.3 -8.35 L-1.75 -8.5 Q-1.45 -8.45 -1.25 -8.2 L-1.1 -7.65 -1.4 -7.15 -1.95 -7.0 -2.45 -7.3 -2.6 -7.8 -2.3 -8.35 M-1.75 -6.1 L-1.5 -6.65 -0.9 -6.75 -0.4 -6.5 -0.25 -5.95 -0.55 -5.45 Q-0.8 -5.25 -1.1 -5.3 -1.4 -5.35 -1.6 -5.6 L-1.75 -6.1" fill="#caa75f" fill-rule="evenodd" stroke="none"/>
    <path d="M-7.5 -3.9 L-6.2 -4.7 -4.6 -2.8 -4.25 -0.65 -5.1 0.4 -7.4 0.3 -8.45 -2.5 -7.5 -3.9" fill="#4f79a1" fill-rule="evenodd" stroke="none"/>
    <path d="M5.95 0.3 Q5.95 1.1 6.95 2.65 4.1 2.75 2.4 4.9 L0.3 2.45 -0.7 1.6 -0.1 -0.2 5.95 0.3" fill="#dec68f" fill-rule="evenodd" stroke="none"/>
    <path d="M-7.5 -3.9 L-6.2 -4.7 -4.6 -2.8 -4.25 -0.65 -5.1 0.4 -7.4 0.3 -8.45 -2.5 -7.5 -3.9" fill="none" stroke="#252c4a" stroke-linecap="round" stroke-linejoin="round" stroke-width="1.0"/>
    <path d="M5.95 0.3 Q5.95 1.1 6.95 2.65 4.1 2.75 2.4 4.9 L0.3 2.45 -0.7 1.6 -0.1 -0.2 5.95 0.3 Z" fill="none" stroke="#544634" stroke-linecap="round" stroke-linejoin="round" stroke-width="1.0"/>
    <path d="M11.4 5.8 Q13.05 6.45 13.35 8.5 L8.05 8.5 Q8.5 5.85 11.4 5.8 M-7.05 7.75 L-11.55 7.3 Q-11.75 7.05 -11.6 6.3 -11.6 5.2 -10.45 4.85 -8.65 4.35 -6.9 5.4 -6.25 5.85 -6.15 6.7 -6.05 7.45 -7.05 7.75" fill="#f0c468" fill-rule="evenodd" stroke="none"/>
    <path d="M11.4 5.8 Q8.5 5.85 8.05 8.5 L13.35 8.5 Q13.05 6.45 11.4 5.8 M-7.05 7.75 L-11.55 7.3 Q-11.75 7.05 -11.6 6.3 -11.6 5.2 -10.45 4.85 -8.65 4.35 -6.9 5.4 -6.25 5.85 -6.15 6.7 -6.05 7.45 -7.05 7.75" fill="none" stroke="#453d29" stroke-linecap="round" stroke-linejoin="round" stroke-width="1.0"/>
    <path d="M-3.2 3.6 Q5.2 4.15 6.95 8.45" fill="none" stroke="#453d29" stroke-linecap="round" stroke-linejoin="round" stroke-opacity="0.5019608" stroke-width="1.0"/>
  </g>
</svg>
