<?xml version="1.0" encoding="UTF-8" standalone="no"?>
<svg xmlns:ffdec="https://www.free-decompiler.com/flash" xmlns:xlink="http://www.w3.org/1999/xlink" ffdec:objectType="shape" height="14.5px" width="19.2px" xmlns="http://www.w3.org/2000/svg">
  <g transform="matrix(1.0, 0.0, 0.0, 1.0, 0.5, 0.5)">
    <path d="M8.8 12.55 L5.7 12.55 4.85 13.5 0.0 13.5 0.5 7.0 1.6 6.9 1.75 2.85 Q2.95 1.2 4.2 0.55 7.0 -1.0 10.1 2.0 L10.25 3.2 11.0 3.2 12.15 5.7 11.95 6.55 11.2 8.65 8.9 9.15 8.8 12.55 M10.1 7.45 L9.85 7.45 10.1 7.45 M10.25 3.2 L5.95 3.2 Q4.5 4.25 4.2 5.55 L4.1 6.5 1.6 6.9 4.1 6.5 4.2 5.55 Q4.5 4.25 5.95 3.2 L10.25 3.2" fill="#1e1e1e" fill-rule="evenodd" stroke="none"/>
    <path d="M12.15 5.7 L15.8 6.55 17.25 7.05 Q18.9 9.4 17.65 11.8 L17.6 13.45 8.9 13.5 8.8 12.55 8.9 9.15 11.2 8.65 11.95 6.55 12.15 5.7 M13.35 7.35 L13.1 7.35 13.35 7.35 M10.5 10.3 L10.25 10.3 10.5 10.3" fill="url(#gradient0)" fill-rule="evenodd" stroke="none"/>
    <path d="M8.8 12.55 L5.7 12.55 4.85 13.5 0.0 13.5 0.5 7.0 1.6 6.9 1.75 2.85 Q2.95 1.2 4.2 0.55 7.0 -1.0 10.1 2.0 L10.25 3.2 11.0 3.2 12.15 5.7 15.8 6.55 17.25 7.05 Q18.9 9.4 17.65 11.8 L17.6 13.45 8.9 13.5 8.8 12.55 8.9 9.15 11.2 8.65 11.95 6.55 12.15 5.7 M1.6 6.9 L4.1 6.5 4.2 5.55 Q4.5 4.25 5.95 3.2 L10.25 3.2" fill="none" stroke="#101010" stroke-linecap="round" stroke-linejoin="round" stroke-width="1.0"/>
    <path d="M10.25 10.3 L10.5 10.3 M13.1 7.35 L13.35 7.35 M9.85 7.45 L10.1 7.45" fill="none" stroke="#151515" stroke-linecap="round" stroke-linejoin="round" stroke-width="1.0"/>
  </g>
  <defs>
    <radialGradient cx="0" cy="0" fx="57.6" fy="0" gradientTransform="matrix(0.0066, 0.0, 0.0, 0.0066, 15.75, 7.9)" gradientUnits="userSpaceOnUse" id="gradient0" r="819.2" spreadMethod="pad">
      <stop offset="0.0" stop-color="#484848"/>
      <stop offset="0.4470588235294118" stop-color="#2a2a2a"/>
      <stop offset="1.0" stop-color="#171717"/>
      <stop offset="1.0" stop-color="#383838"/>
    </radialGradient>
  </defs>
</svg>
