<?xml version="1.0" encoding="UTF-8" standalone="no"?>
<svg xmlns:xlink="http://www.w3.org/1999/xlink" height="19.6px" width="82.55px" xmlns="http://www.w3.org/2000/svg">
  <g transform="matrix(1.0, 0.0, 0.0, 1.0, 33.8, 8.9)">
    <path d="M2.2 -1.4 L2.9 -0.75 5.3 2.3 11.8 2.3 5.3 2.3 2.9 -0.75 2.2 -1.4 M4.35 -2.8 L4.95 -2.5 6.7 0.2 12.55 0.2 14.85 -2.85 26.1 -2.85 27.65 -1.7 28.2 -1.3 24.3 3.2 23.65 3.9 23.25 3.9 14.2 3.9 13.7 4.35 13.15 4.75 12.9 4.75 6.15 4.75 5.15 4.75 4.5 4.75 3.55 3.65 1.35 1.0 Q0.5 -0.2 -0.4 -0.4 L-3.3 -0.4 -5.65 2.35 -7.85 1.0 -9.15 0.2 -5.15 -3.9 2.25 -3.9 4.35 -2.8 M20.8 1.4 L21.75 -0.55 20.8 1.4 M18.8 1.4 L19.75 -0.55 18.8 1.4 M16.5 1.4 L17.45 -0.55 16.5 1.4" fill="#dcdcdc" fill-rule="evenodd" stroke="none"/>
    <path d="M8.7 -7.65 L7.95 -6.45 8.7 -7.65 M-0.2 -7.75 L0.95 -5.55 1.6 -5.55 5.6 -5.55 4.35 -2.8 2.25 -3.9 -5.15 -3.9 -5.5 -4.35 -6.9 -6.15 -7.1 -7.5 -7.15 -7.75 -0.2 -7.75 M5.6 -5.6 L5.6 -8.1 11.25 -8.1 9.65 -5.6 5.6 -5.6 M1.6 -5.55 L2.25 -3.9 1.6 -5.55 M5.15 4.75 L6.15 4.75 6.8 6.85 12.9 6.85 12.9 9.0 5.15 9.0 5.15 4.75 M-32.95 4.8 L-33.3 5.15 -33.3 -1.1 -30.4 -3.4 -27.15 -3.4 -26.15 -2.1 -18.85 -2.1 -17.4 -3.35 -13.9 -3.35 -11.3 -0.05 -11.3 0.95 -11.65 1.25 -12.35 1.9 -8.6 7.1 -7.5 7.1 -7.0 7.75 -5.9 9.1 Q-5.7 9.95 -7.05 10.2 L-9.3 10.2 Q-10.45 10.2 -11.6 9.1 L-12.35 8.1 -13.55 6.45 -16.45 2.45 -17.35 1.35 -26.45 1.35 -27.4 0.7 -30.1 0.7 -31.35 1.75 -31.35 3.15 -32.95 4.8 M-5.05 -6.3 L-4.35 -5.65 -1.3 -5.65 -4.35 -5.65 -5.05 -6.3 M-15.4 1.2 L-9.95 8.65 -8.0 8.65 -9.95 8.65 -15.4 1.2" fill="#dbdbdb" fill-rule="evenodd" stroke="none"/>
    <path d="M-0.2 -7.75 L-0.45 -8.4 5.6 -8.4 5.6 -8.1 5.6 -5.6 5.6 -5.55 1.6 -5.55 0.95 -5.55 -0.2 -7.75" fill="#8c8c8c" fill-rule="evenodd" stroke="none"/>
    <path d="M6.6 -1.65 L7.7 -2.75 11.9 -2.75 13.0 -1.85 12.1 -0.55 7.35 -0.55 6.6 -1.65" fill="#930809" fill-rule="evenodd" stroke="none"/>
    <path d="M-7.85 1.0 L-5.65 2.35 -3.3 -0.4 -0.4 -0.4 Q0.5 -0.2 1.35 1.0 L3.55 3.65 0.7 3.95 -3.1 4.35 -4.55 4.5 -5.9 6.3 -7.0 7.75 -7.5 7.1 -8.6 7.1 -12.35 1.9 -11.65 1.25 -10.0 3.15 -7.85 1.0 M13.7 4.35 L14.2 3.9 23.25 3.9 21.2 5.7 15.25 5.7 13.7 4.35 M-1.35 0.6 Q-2.05 0.6 -2.55 1.05 -3.0 1.55 -3.0 2.25 -3.0 2.95 -2.55 3.4 -2.05 3.9 -1.35 3.9 -0.65 3.9 -0.2 3.4 0.3 2.95 0.3 2.25 0.3 1.55 -0.2 1.05 -0.65 0.6 -1.35 0.6 M-12.35 8.1 Q-17.45 11.45 -23.8 6.7 L-24.8 7.45 -31.65 7.45 -32.95 6.5 -32.95 4.8 -31.35 3.15 -31.35 1.75 -30.1 0.7 -27.4 0.7 -26.45 1.35 -17.35 1.35 -16.45 2.45 -20.75 2.45 -23.0 4.25 Q-18.9 8.8 -13.55 6.45 L-12.35 8.1 M-30.9 4.15 L-30.9 5.95 -28.85 5.95 -25.65 5.95 -25.65 4.15 -28.85 4.15 -30.9 4.15 M-30.55 2.9 L-25.75 2.9 -30.55 2.9" fill="#3e3e3e" fill-rule="evenodd" stroke="none"/>
    <path d="M29.8 -1.2 L41.35 -1.2 41.35 1.3 27.6 1.25 29.8 -1.2" fill="#222222" fill-rule="evenodd" stroke="none"/>
    <path d="M41.35 -1.2 L41.35 -2.05 48.25 -2.05 48.25 2.5 41.35 2.5 41.35 1.3 41.35 -1.2 M47.0 -0.7 L42.55 -0.7 42.55 1.05 42.55 -0.7 47.0 -0.7" fill="#dedede" fill-rule="evenodd" stroke="none"/>
    <path d="M6.15 4.75 L12.9 4.75 12.9 6.85 6.8 6.85 6.15 4.75" fill="#999999" fill-rule="evenodd" stroke="none"/>
    <path d="M-5.9 6.3 L-4.55 4.5 -3.1 4.35 -3.05 6.65 -4.9 7.6 -5.9 6.3" fill="#8e090a" fill-rule="evenodd" stroke="none"/>
    <path d="M24.3 3.2 L28.2 -1.3 27.65 -1.7 29.5 -2.7 30.5 -2.05 29.8 -1.2 27.6 1.25 26.0 3.1 24.3 3.2" fill="#272727" fill-rule="evenodd" stroke="none"/>
    <path d="M-5.5 -4.35 L-11.85 -2.8 -11.85 -8.2 -7.1 -7.5 -6.9 -6.15 -5.5 -4.35" fill="url(#gradient0)" fill-rule="evenodd" stroke="none"/>
    <path d="M5.6 -8.1 L11.25 -8.1 9.65 -5.6 5.6 -5.6" fill="none" stroke="#757575" stroke-linecap="round" stroke-linejoin="round" stroke-width="1.0"/>
    <path d="M7.95 -6.45 L8.7 -7.65 M17.45 -0.55 L16.5 1.4 M19.75 -0.55 L18.8 1.4 M21.75 -0.55 L20.8 1.4" fill="none" stroke="#2d2d2d" stroke-linecap="round" stroke-linejoin="round" stroke-width="1.0"/>
    <path d="M27.65 -1.7 L29.5 -2.7 30.5 -2.05 29.8 -1.2 27.6 1.25 26.0 3.1 24.3 3.2 M23.25 3.9 L21.2 5.7 15.25 5.7 13.7 4.35 M-3.1 4.35 L0.7 3.95 3.55 3.65 M-11.65 1.25 L-10.0 3.15 -7.85 1.0 M-5.9 6.3 L-4.55 4.5 -3.1 4.35 M-4.9 7.6 Q-2.3 10.15 0.7 3.95 M-12.35 8.1 Q-17.45 11.45 -23.8 6.7 L-24.8 7.45 -31.65 7.45 -32.95 6.5 -32.95 4.8 M-7.0 7.75 L-5.9 6.3 -4.9 7.6 M-30.9 4.15 L-28.85 4.15 -25.65 4.15 -25.65 5.95 -28.85 5.95 -30.9 5.95 -30.9 4.15 M-28.85 5.95 L-28.85 4.15 M-16.45 2.45 L-20.75 2.45 -23.0 4.25 Q-18.9 8.8 -13.55 6.45" fill="none" stroke="#272727" stroke-linecap="round" stroke-linejoin="round" stroke-width="1.0"/>
    <path d="M5.15 4.75 L5.15 9.0 12.9 9.0 12.9 6.85 12.9 4.75" fill="none" stroke="#3b3b3b" stroke-linecap="round" stroke-linejoin="round" stroke-width="1.0"/>
    <path d="M-3.1 4.35 L-3.05 6.65 -4.9 7.6" fill="none" stroke="#730607" stroke-linecap="round" stroke-linejoin="round" stroke-width="1.0"/>
    <path d="M11.8 2.3 L5.3 2.3 2.9 -0.75 2.2 -1.4 M42.55 1.05 L42.55 -0.7 47.0 -0.7 M-1.3 -5.65 L-4.35 -5.65 -5.05 -6.3 M-8.0 8.65 L-9.95 8.65 -15.4 1.2" fill="none" stroke="#9e9e9e" stroke-linecap="round" stroke-linejoin="round" stroke-width="1.0"/>
    <path d="M29.8 -1.2 L41.35 -1.2 M41.35 1.3 L27.6 1.25" fill="none" stroke="#101010" stroke-linecap="round" stroke-linejoin="round" stroke-width="1.0"/>
    <path d="M-25.75 2.9 L-30.55 2.9" fill="none" stroke="#4b4b4b" stroke-linecap="round" stroke-linejoin="round" stroke-width="1.0"/>
    <path d="M13.0 -1.85 L11.9 -2.75 7.7 -2.75 6.6 -1.65" fill="none" stroke="#590303" stroke-linecap="round" stroke-linejoin="round" stroke-width="1.0"/>
    <path d="M6.6 -1.65 L7.35 -0.55 12.1 -0.55 13.0 -1.85" fill="none" stroke="#282828" stroke-linecap="round" stroke-linejoin="round" stroke-width="1.0"/>
    <path d="M2.25 -3.9 L1.6 -5.55" fill="none" stroke="#adadad" stroke-linecap="round" stroke-linejoin="round" stroke-width="1.0"/>
    <path d="M27.65 -1.7 L26.1 -2.85 14.85 -2.85 12.55 0.2 6.7 0.2 4.95 -2.5 4.35 -2.8 2.25 -3.9 -5.15 -3.9 -9.15 0.2 -7.85 1.0 -5.65 2.35 -3.3 -0.4 -0.4 -0.4 Q0.5 -0.2 1.35 1.0 L3.55 3.65 4.5 4.75 5.15 4.75 6.15 4.75 12.9 4.75 13.15 4.75 13.7 4.35 14.2 3.9 23.25 3.9 23.65 3.9 24.3 3.2 28.2 -1.3 27.65 -1.7 M5.6 -5.55 L4.35 -2.8 M23.65 3.9 L25.45 7.5 27.7 7.85 28.5 9.7 M-32.95 4.8 L-33.3 5.15 -33.3 -1.1 -30.4 -3.4 -27.15 -3.4 -26.15 -2.1 -18.85 -2.1 -17.4 -3.35 -13.9 -3.35 -11.3 -0.05 -11.3 0.95 -11.65 1.25 -12.35 1.9 -8.6 7.1 -7.5 7.1 -7.0 7.75 -5.9 9.1 Q-5.7 9.95 -7.05 10.2 L-9.3 10.2 Q-10.45 10.2 -11.6 9.1 L-12.35 8.1 -13.55 6.45 -16.45 2.45 -17.35 1.35 -26.45 1.35 -27.4 0.7 -30.1 0.7 -31.35 1.75 -31.35 3.15 -32.95 4.8 M-7.1 -7.5 L-7.15 -7.75 -0.2 -7.75 M-7.1 -7.5 L-6.9 -6.15 -5.5 -4.35 -5.15 -3.9" fill="none" stroke="#747474" stroke-linecap="round" stroke-linejoin="round" stroke-width="1.0"/>
    <path d="M5.6 -8.1 L5.6 -8.4 -0.45 -8.4 -0.2 -7.75 0.95 -5.55 1.6 -5.55 5.6 -5.55 5.6 -5.6 5.6 -8.1" fill="none" stroke="#565656" stroke-linecap="round" stroke-linejoin="round" stroke-width="1.0"/>
    <path d="M41.35 -1.2 L41.35 -2.05 48.25 -2.05 48.25 2.5 41.35 2.5 41.35 1.3 41.35 -1.2 Z" fill="none" stroke="#7b7b7b" stroke-linecap="round" stroke-linejoin="round" stroke-width="1.0"/>
  </g>
  <defs>
    <linearGradient gradientTransform="matrix(0.0039, 0.0, 0.0, 0.0033, -8.7, -5.5)" gradientUnits="userSpaceOnUse" id="gradient0" spreadMethod="pad" x1="-819.2" x2="819.2">
      <stop offset="0.0" stop-color="#ff0000" stop-opacity="0.0"/>
      <stop offset="1.0" stop-color="#ff0000" stop-opacity="0.3019608"/>
    </linearGradient>
  </defs>
</svg>
