<?xml version="1.0" encoding="UTF-8" standalone="no"?>
<svg xmlns:ffdec="https://www.free-decompiler.com/flash" xmlns:xlink="http://www.w3.org/1999/xlink" ffdec:objectType="shape" height="11.1px" width="24.6px" xmlns="http://www.w3.org/2000/svg">
  <g transform="matrix(1.0, 0.0, 0.0, 1.0, 0.5, 0.5)">
    <path d="M7.2 6.2 L9.75 5.1 11.8 8.8 8.5 9.3 7.2 6.2" fill="#996600" fill-rule="evenodd" stroke="none"/>
    <path d="M14.05 3.35 L13.65 3.25 12.0 6.35 15.35 9.35 11.8 8.8 9.75 5.1 7.2 6.2 6.55 4.6 3.65 3.75 Q4.25 2.0 7.55 0.0 L12.5 0.0 Q13.05 2.25 14.05 3.35" fill="#333333" fill-rule="evenodd" stroke="none"/>
    <path d="M15.35 9.35 L12.0 6.35 13.65 3.25 14.05 3.35 19.25 4.85 21.8 9.6 15.6 9.6 15.35 9.35 M3.65 3.75 L6.55 4.6 7.2 6.2 8.5 9.3 8.6 9.6 0.9 9.6 1.85 4.8 3.65 3.75" fill="#350303" fill-rule="evenodd" stroke="none"/>
    <path d="M11.8 8.8 L15.35 9.35 M8.5 9.3 L11.8 8.8" fill="none" stroke="#653d01" stroke-linecap="round" stroke-linejoin="round" stroke-width="1.0"/>
    <path d="M14.05 3.35 Q13.05 2.25 12.5 0.0 L7.55 0.0 Q4.25 2.0 3.65 3.75" fill="none" stroke="#1e1e1e" stroke-linecap="round" stroke-linejoin="round" stroke-width="1.0"/>
    <path d="M15.35 9.35 L12.0 6.35 13.65 3.25 14.05 3.35 19.25 4.85 21.8 9.6 15.6 9.6 15.35 9.35 M3.65 3.75 L6.55 4.6 7.2 6.2 8.5 9.3 8.6 9.6 0.9 9.6 1.85 4.8 3.65 3.75 Z" fill="none" stroke="#190000" stroke-linecap="round" stroke-linejoin="round" stroke-width="1.0"/>
    <path d="M13.7 7.85 L18.15 7.85 18.95 6.5 21.85 6.5 23.6 9.15 23.6 10.1 13.7 10.1 13.7 8.95 13.7 7.85 M9.3 9.15 L9.6 10.05 0.0 10.05 0.3 7.3 2.55 7.3 3.7 8.3 8.2 8.3 8.95 8.3 9.3 9.15" fill="#151515" fill-rule="evenodd" stroke="none"/>
    <path d="M13.7 8.95 L11.8 8.8 9.3 9.15 8.95 8.3 8.2 8.3 6.85 5.4 12.35 5.7 12.0 6.35 13.7 7.85 13.7 8.95" fill="#252525" fill-rule="evenodd" stroke="none"/>
    <path d="M13.7 7.85 L18.15 7.85 18.95 6.5 21.85 6.5 23.6 9.15 23.6 10.1 13.7 10.1 13.7 8.95 11.8 8.8 9.3 9.15 9.6 10.05 0.0 10.05 0.3 7.3 2.55 7.3 3.7 8.3 8.2 8.3 6.85 5.4 12.35 5.7 12.0 6.35 13.7 7.85 13.7 8.95 M8.2 8.3 L8.95 8.3 9.3 9.15" fill="none" stroke="#070707" stroke-linecap="round" stroke-linejoin="round" stroke-width="1.0"/>
  </g>
</svg>
