<?xml version="1.0" encoding="UTF-8" standalone="no"?>
<svg xmlns:xlink="http://www.w3.org/1999/xlink" height="15.95px" width="31.85px" xmlns="http://www.w3.org/2000/svg">
  <g transform="matrix(1.0, 0.0, 0.0, 1.0, 8.85, 6.15)">
    <path d="M10.25 3.4 L7.05 3.4 7.05 6.6 10.25 6.6 10.25 9.8 7.05 9.8 7.05 6.6 3.9 6.6 3.9 3.4 0.7 3.4 0.7 6.6 -2.5 6.6 -2.5 9.8 -8.85 9.8 -8.85 0.25 -5.65 0.25 -5.65 -2.95 16.6 -2.95 16.6 -6.15 19.8 -6.15 19.8 -2.95 23.0 -2.95 23.0 0.25 13.45 0.25 10.25 0.25 10.25 3.4 M-2.5 6.6 L-2.5 3.4 -5.65 3.4 -5.65 6.6 -2.5 6.6" fill="#000000" fill-rule="evenodd" stroke="none"/>
    <path d="M13.45 0.25 L13.45 3.4 10.25 3.4 10.25 0.25 13.45 0.25" fill="#ff0000" fill-rule="evenodd" stroke="none"/>
  </g>
</svg>
