<?xml version="1.0" encoding="UTF-8" standalone="no"?>
<svg xmlns:ffdec="https://www.free-decompiler.com/flash" xmlns:xlink="http://www.w3.org/1999/xlink" ffdec:objectType="shape" height="12.25px" width="23.2px" xmlns="http://www.w3.org/2000/svg">
  <g transform="matrix(1.0, 0.0, 0.0, 1.0, -1.35, 0.5)">
    <path d="M22.05 10.65 L21.95 11.25 17.8 11.25 15.5 11.25 15.5 10.5 15.55 8.85 13.15 8.35 12.35 6.8 11.4 4.75 11.05 4.1 10.1 2.25 14.1 0.0 16.15 3.8 17.05 5.5 18.2 3.8 19.9 4.35 22.9 5.35 22.75 6.25 Q22.75 7.9 22.05 10.65 M6.7 10.5 L6.0 11.2 2.6 11.2 1.85 7.7 2.65 6.7 3.95 4.55 4.9 4.55 8.5 7.2 7.6 8.85 6.7 10.5 M16.15 3.8 L13.85 5.3 11.4 4.75 13.85 5.3 16.15 3.8 M17.8 11.25 L17.85 8.05 19.9 4.35 17.85 8.05 17.8 11.25" fill="#350303" fill-rule="evenodd" stroke="none"/>
    <path d="M15.5 10.5 L6.7 10.5 7.6 8.85 10.8 8.85 12.35 6.8 13.15 8.35 15.55 8.85 15.5 10.5 M22.75 6.25 L24.05 7.1 23.25 10.65 22.05 10.65 Q22.75 7.9 22.75 6.25" fill="#191919" fill-rule="evenodd" stroke="none"/>
    <path d="M4.9 4.55 L5.55 1.0 8.0 1.55 8.45 4.1 11.05 4.1 11.4 4.75 12.35 6.8 10.8 8.85 7.6 8.85 8.5 7.2 4.9 4.55" fill="url(#gradient0)" fill-rule="evenodd" stroke="none"/>
    <path d="M22.05 10.65 L21.95 11.25 M15.5 10.5 L6.7 10.5 M4.9 4.55 L5.55 1.0 8.0 1.55 8.45 4.1 11.05 4.1 M22.75 6.25 L24.05 7.1 23.25 10.65 22.05 10.65 M7.6 8.85 L10.8 8.85 12.35 6.8" fill="none" stroke="#090909" stroke-linecap="round" stroke-linejoin="round" stroke-width="1.0"/>
    <path d="M11.4 4.75 L13.85 5.3 16.15 3.8 M19.9 4.35 L17.85 8.05 17.8 11.25" fill="none" stroke="#2a0101" stroke-linecap="round" stroke-linejoin="round" stroke-width="1.0"/>
    <path d="M17.05 5.5 L18.2 3.8 22.9 5.35 22.75 6.25 Q22.75 7.9 21.95 11.25 L15.5 11.25 15.55 8.85 13.15 8.35 10.1 2.25 14.1 0.0 17.05 5.5 15.6 7.65 15.55 8.85 M6.7 10.5 L6.0 11.2 2.6 11.2 1.85 7.7 2.65 6.7 3.95 4.55 4.9 4.55 8.5 7.2 6.7 10.5 Z" fill="none" stroke="#190000" stroke-linecap="round" stroke-linejoin="round" stroke-width="1.0"/>
  </g>
  <defs>
    <radialGradient cx="0" cy="0" gradientTransform="matrix(0.0078, 0.0, 0.0, 0.0078, 9.65, 5.85)" gradientUnits="userSpaceOnUse" id="gradient0" r="819.2" spreadMethod="pad">
      <stop offset="0.0" stop-color="#272727"/>
      <stop offset="1.0" stop-color="#121212"/>
      <stop offset="1.0" stop-color="#272727" stop-opacity="0.8"/>
      <stop offset="1.0" stop-color="#ff5151"/>
    </radialGradient>
  </defs>
</svg>
