<?xml version="1.0" encoding="UTF-8" standalone="no"?>
<svg xmlns:xlink="http://www.w3.org/1999/xlink" height="9.0px" width="26.45px" xmlns="http://www.w3.org/2000/svg">
  <g transform="matrix(1.0, 0.0, 0.0, 1.0, 10.55, 3.75)">
    <path d="M10.2 0.7 L9.45 -0.55 8.7 -1.8 15.4 -1.8 15.4 -0.55 15.4 0.7 10.2 0.7 M-6.15 -3.25 L-6.15 -0.25 -7.35 1.25 -10.05 1.25 -10.05 -1.45 -6.15 -3.25 M-3.55 2.75 L3.45 2.75 1.45 4.75 -1.55 4.75 -3.55 2.75 M9.45 -0.55 L15.4 -0.55 9.45 -0.55" fill="#333333" fill-rule="evenodd" stroke="none"/>
    <path d="M8.7 -1.8 L9.45 -0.55 10.2 0.7 11.4 2.75 3.45 2.75 -3.55 2.75 -8.6 2.75 -7.35 1.25 -6.15 -0.25 -6.15 -3.25 7.85 -3.25 8.7 -1.8 M1.05 -0.65 L-0.95 1.35 1.05 -0.65 M-0.95 -0.75 L-2.95 1.25 -0.95 -0.75 M-3.0 -0.75 L-5.0 1.25 -3.0 -0.75" fill="#cccccc" fill-rule="evenodd" stroke="none"/>
    <path d="M15.4 -0.55 L9.45 -0.55" fill="none" stroke="#1c1c1c" stroke-linecap="round" stroke-linejoin="round" stroke-width="1.0"/>
    <path d="M10.2 0.7 L15.4 0.7 15.4 -0.55 15.4 -1.8 8.7 -1.8 M3.45 2.75 L1.45 4.75 -1.55 4.75 -3.55 2.75 M-7.35 1.25 L-10.05 1.25 -10.05 -1.45 -6.15 -3.25" fill="none" stroke="#1c1c1c" stroke-linecap="round" stroke-linejoin="round" stroke-width="1.0"/>
    <path d="M8.7 -1.8 L7.85 -3.25 -6.15 -3.25 M-7.35 1.25 L-8.6 2.75 -3.55 2.75 M3.45 2.75 L11.4 2.75 10.2 0.7 M-5.0 1.25 L-3.0 -0.75 M-2.95 1.25 L-0.95 -0.75 M-0.95 1.35 L1.05 -0.65" fill="none" stroke="#4a4a4a" stroke-linecap="round" stroke-linejoin="round" stroke-width="1.0"/>
    <path d="M10.2 0.7 L9.45 -0.55 8.7 -1.8 M-6.15 -3.25 L-6.15 -0.25 -7.35 1.25 M-3.55 2.75 L3.45 2.75" fill="none" stroke="#232323" stroke-linecap="round" stroke-linejoin="round" stroke-width="1.0"/>
  </g>
</svg>
