<?xml version="1.0" encoding="UTF-8" standalone="no"?>
<svg xmlns:xlink="http://www.w3.org/1999/xlink" height="12.45px" width="37.1px" xmlns="http://www.w3.org/2000/svg">
  <g transform="matrix(1.0, 0.0, 0.0, 1.0, 17.85, 4.05)">
    <path d="M9.4 -1.65 L7.7 -1.65 7.7 -2.1 7.7 -1.65 -9.45 -1.65 -10.0 -3.55 17.1 -3.55 17.75 -2.6 17.75 -1.65 16.1 -1.65 14.45 -1.65 12.8 -1.65 11.05 -1.65 9.4 -1.65 9.4 -2.1 9.4 -1.65 M14.45 -2.1 L14.45 -1.65 14.45 -2.1 M12.8 -2.1 L12.8 -1.65 12.8 -2.1 M16.1 -2.1 L16.1 -1.65 16.1 -2.1 M11.05 -2.1 L11.05 -1.65 11.05 -2.1" fill="#3f464c" fill-rule="evenodd" stroke="none"/>
    <path d="M9.4 -1.65 L9.4 -0.95 9.4 -1.65 11.05 -1.65 12.8 -1.65 14.45 -1.65 16.1 -1.65 17.75 -1.65 17.75 -0.5 18.75 1.3 18.75 2.3 -1.5 2.3 -1.6 2.2 -1.7 3.6 -5.35 4.55 -8.3 4.55 -8.3 6.0 -8.95 6.2 -10.7 6.2 -17.35 7.9 -17.35 6.6 Q-16.45 6.65 -15.0 5.9 L-14.95 2.65 Q-16.35 2.0 -17.35 2.15 L-17.35 -0.65 -14.4 -0.15 Q-12.5 -1.45 -9.45 -1.65 L7.7 -1.65 9.4 -1.65 M7.7 -0.95 L7.7 -1.65 7.7 -0.95 M11.05 -1.65 L11.05 -0.95 11.05 -1.65 M14.45 -1.65 L14.45 -0.95 14.45 -1.65 M12.8 -1.65 L12.8 -0.95 12.8 -1.65 M16.1 -1.65 L16.1 -0.95 16.1 -1.65 M-3.7 -0.85 L-5.95 -0.85 -5.95 0.75 -3.7 0.75 -3.7 -0.85 M-2.45 -0.7 L-2.45 1.3 -1.6 2.2 -2.45 1.3 -2.45 -0.7 M-10.4 2.9 L-10.75 1.2 -10.4 2.9 M-11.9 2.9 L-12.25 1.2 -11.9 2.9 M-8.85 2.9 L-9.2 1.2 -8.85 2.9" fill="#353a40" fill-rule="evenodd" stroke="none"/>
    <path d="M-10.0 -3.55 L-9.45 -1.65 Q-12.5 -1.45 -14.4 -0.15 L-17.35 -0.65 -17.35 -2.9 -10.0 -3.55" fill="#262d33" fill-rule="evenodd" stroke="none"/>
    <path d="M-3.7 -0.85 L-3.7 0.75 -5.95 0.75 -5.95 -0.85 -3.7 -0.85" fill="#23282c" fill-rule="evenodd" stroke="none"/>
    <path d="M9.4 -0.95 L9.4 -1.65 9.4 -2.1 M7.7 -1.65 L7.7 -0.95 M7.7 -1.65 L7.7 -2.1 M14.45 -1.65 L14.45 -2.1 M12.8 -1.65 L12.8 -2.1 M16.1 -1.65 L16.1 -2.1 M11.05 -0.95 L11.05 -1.65 11.05 -2.1 M12.8 -0.95 L12.8 -1.65 M14.45 -0.95 L14.45 -1.65 M16.1 -0.95 L16.1 -1.65" fill="none" stroke="#2a2f35" stroke-linecap="round" stroke-linejoin="round" stroke-width="1.0"/>
    <path d="M17.75 -1.65 L17.75 -2.6 17.1 -3.55 -10.0 -3.55 -17.35 -2.9 M17.75 -1.65 L17.75 -0.5 18.75 1.3 18.75 2.3 -1.5 2.3 -1.6 2.2 -1.7 3.6 M-8.3 6.0 L-8.95 6.2 -10.7 6.2 -17.35 7.9 M-17.35 6.6 Q-16.45 6.65 -15.0 5.9 L-14.95 2.65 Q-16.35 2.0 -17.35 2.15 M-3.7 -0.85 L-3.7 0.75 -5.95 0.75 -5.95 -0.85 -3.7 -0.85 M-1.6 2.2 L-2.45 1.3 -2.45 -0.7" fill="none" stroke="#23282c" stroke-linecap="round" stroke-linejoin="round" stroke-width="1.0"/>
    <path d="M6.95 2.8 L8.45 2.75 Q8.15 3.5 7.45 2.75" fill="none" stroke="#161616" stroke-linecap="round" stroke-linejoin="round" stroke-width="1.0"/>
    <path d="M-1.7 3.6 L-5.35 4.55 -8.3 4.55 -8.3 6.0" fill="none" stroke="#272c32" stroke-linecap="round" stroke-linejoin="round" stroke-width="1.0"/>
    <path d="M-9.2 1.2 L-8.85 2.9 M-12.25 1.2 L-11.9 2.9 M-10.75 1.2 L-10.4 2.9" fill="none" stroke="#262d33" stroke-linecap="round" stroke-linejoin="round" stroke-width="1.0"/>
  </g>
</svg>
