<?xml version="1.0" encoding="UTF-8" standalone="no"?>
<svg xmlns:ffdec="https://www.free-decompiler.com/flash" xmlns:xlink="http://www.w3.org/1999/xlink" ffdec:objectType="shape" height="12.1px" width="18.95px" xmlns="http://www.w3.org/2000/svg">
  <g transform="matrix(1.0, 0.0, 0.0, 1.0, -0.4, -1.55)">
    <path d="M17.55 11.3 L12.35 11.35 11.25 10.75 8.3 10.35 8.4 8.8 9.45 7.9 6.0 4.85 5.95 2.05 9.0 2.1 9.05 4.1 11.6 6.2 13.35 6.75 15.7 6.0 Q18.1 6.45 18.85 7.6 L18.85 10.1 17.55 11.3 M5.0 11.65 L1.5 11.7 1.0 8.4 3.65 9.75 5.0 11.65 M11.6 6.2 L9.45 7.9 11.6 6.2" fill="#1c1c1c" fill-rule="evenodd" stroke="none"/>
    <path d="M8.3 10.35 L7.25 11.6 5.0 11.65 3.65 9.75 1.0 8.4 0.9 7.75 2.0 6.6 1.45 2.05 5.95 2.05 6.0 4.85 9.45 7.9 8.4 8.8 8.3 10.35" fill="#251d1d" fill-rule="evenodd" stroke="none"/>
    <path d="M17.55 11.3 L17.75 12.05 16.45 13.15 11.6 13.0 10.6 12.2 9.25 12.0 7.75 13.15 1.3 13.0 1.5 11.7 5.0 11.65 7.25 11.6 8.3 10.35 11.25 10.75 12.35 11.35 17.55 11.3" fill="#352f2f" fill-rule="evenodd" stroke="none"/>
    <path d="M1.5 11.7 L1.0 8.4 M5.95 2.05 L9.0 2.1 9.05 4.1 11.6 6.2" fill="none" stroke="#191818" stroke-linecap="round" stroke-linejoin="round" stroke-width="1.0"/>
    <path d="M1.5 11.7 L1.3 13.0 7.75 13.15 9.25 12.0 10.6 12.2 11.6 13.0 16.45 13.15 17.75 12.05 17.55 11.3" fill="none" stroke="#050505" stroke-linecap="round" stroke-linejoin="round" stroke-width="1.0"/>
    <path d="M17.55 11.3 L12.35 11.35 11.25 10.75 8.3 10.35 7.25 11.6 5.0 11.65 1.5 11.7 M1.0 8.4 L0.9 7.75 2.0 6.6 1.45 2.05 5.95 2.05 6.0 4.85 9.45 7.9 11.6 6.2 13.35 6.75 15.7 6.0 Q18.1 6.45 18.85 7.6 L18.85 10.1 17.55 11.3 M5.0 11.65 L3.65 9.75 1.0 8.4 M9.45 7.9 L8.4 8.8 8.3 10.35" fill="none" stroke="#040404" stroke-linecap="round" stroke-linejoin="round" stroke-width="1.0"/>
  </g>
</svg>
