<?xml version="1.0" encoding="UTF-8" standalone="no"?>
<svg xmlns:ffdec="https://www.free-decompiler.com/flash" xmlns:xlink="http://www.w3.org/1999/xlink" ffdec:objectType="shape" height="13.2px" width="21.05px" xmlns="http://www.w3.org/2000/svg">
  <g transform="matrix(1.0, 0.0, 0.0, 1.0, 8.3, 6.05)">
    <path d="M12.3 6.75 L3.7 6.75 2.5 4.75 3.9 0.95 3.85 -0.4 1.75 -5.45 3.25 -4.75 3.5 -4.7 3.8 -4.35 5.5 -2.45 7.55 -0.65 Q8.1 -0.25 9.55 -0.1 L12.0 3.45 12.3 6.75" fill="#2d2e2e" fill-rule="evenodd" stroke="none"/>
    <path d="M-0.7 5.4 L-3.45 -0.75 -2.0 -2.3 Q-0.45 -3.8 0.15 -3.6 1.5 -3.2 3.85 1.35 L2.1 5.5 -0.7 5.4" fill="#131414" fill-rule="evenodd" stroke="none"/>
    <path d="M-0.7 5.4 L2.1 5.5 3.85 1.35 Q1.5 -3.2 0.15 -3.6 -0.45 -3.8 -2.0 -2.3 L-3.45 -0.75 -0.7 5.4 Z" fill="none" stroke="#000000" stroke-linecap="round" stroke-linejoin="round" stroke-width="0.9"/>
    <path d="M-5.55 -0.8 L-2.05 -0.7 -0.55 0.7 -0.6 6.6 -7.85 6.4 Q-8.0 5.05 -7.05 3.5 -5.9 1.45 -5.55 -0.8" fill="#212222" fill-rule="evenodd" stroke="none"/>
    <path d="M-5.55 -0.8 Q-5.9 1.45 -7.05 3.5 -8.0 5.05 -7.85 6.4 L-0.6 6.6 -0.55 0.7 -2.05 -0.7 -5.55 -0.8 Z" fill="none" stroke="#0d0d0d" stroke-linecap="round" stroke-linejoin="round" stroke-width="0.9"/>
    <path d="M-6.25 4.8 L-6.25 5.1" fill="none" stroke="#0d0d0d" stroke-linecap="round" stroke-linejoin="round" stroke-width="0.9"/>
    <path d="M-4.7 4.8 L-4.7 5.05" fill="none" stroke="#161616" stroke-linecap="round" stroke-linejoin="round" stroke-width="0.9"/>
    <path d="M-5.05 3.2 L-5.05 3.5" fill="none" stroke="#161616" stroke-linecap="round" stroke-linejoin="round" stroke-width="0.9"/>
    <path d="M3.8 0.45 Q3.85 1.25 3.35 1.85 L2.3 2.75 Q-3.3 2.05 -3.95 -0.85 -4.45 -3.35 -1.9 -5.05 L1.3 -5.6 Q1.8 -5.3 2.75 -3.05 3.75 -0.75 3.8 0.45" fill="#2d2e2e" fill-rule="evenodd" stroke="none"/>
    <path d="M3.8 0.45 Q3.75 -0.75 2.75 -3.05 1.8 -5.3 1.3 -5.6 L-1.9 -5.05 Q-4.45 -3.35 -3.95 -0.85 -3.3 2.05 2.3 2.75 L3.35 1.85 Q3.85 1.25 3.8 0.45 Z" fill="none" stroke="#0d0d0d" stroke-linecap="round" stroke-linejoin="round" stroke-width="0.9"/>
    <path d="M-3.95 2.1 L-3.95 2.4" fill="none" stroke="#161616" stroke-linecap="round" stroke-linejoin="round" stroke-width="0.9"/>
    <path d="M-0.95 -2.95 Q-2.55 -1.65 -0.95 -0.25" fill="none" stroke="#181818" stroke-linecap="round" stroke-linejoin="round" stroke-width="0.9500000000000001"/>
    <path d="M-0.65 -3.0 Q0.7 -2.2 0.65 -1.55 0.6 -0.95 -0.6 -0.15" fill="none" stroke="#131313" stroke-linecap="round" stroke-linejoin="round" stroke-width="0.9500000000000001"/>
    <path d="M12.05 6.65 L3.9 6.7 2.15 5.25" fill="none" stroke="#171717" stroke-linecap="round" stroke-linejoin="round" stroke-width="0.9"/>
    <path d="M12.3 6.6 L11.8 3.25 Q11.2 1.35 9.3 -0.1 5.25 -0.45 4.15 -4.2" fill="none" stroke="#171717" stroke-linecap="round" stroke-linejoin="round" stroke-width="0.9"/>
    <path d="M3.85 -4.35 L0.2 -5.45" fill="none" stroke="#171717" stroke-linecap="round" stroke-linejoin="round" stroke-width="0.9"/>
    <path d="M4.9 -0.55 L5.95 1.65 Q5.0 0.95 4.9 -0.55" fill="#494a4a" fill-rule="evenodd" stroke="none"/>
    <path d="M4.9 -0.55 Q5.0 0.95 5.95 1.65" fill="none" stroke="#171717" stroke-linecap="round" stroke-linejoin="round" stroke-width="0.9"/>
    <path d="M6.25 1.85 Q9.1 3.65 9.0 5.5" fill="none" stroke="#262626" stroke-linecap="round" stroke-linejoin="round" stroke-width="0.9"/>
  </g>
</svg>
