<?xml version="1.0" encoding="UTF-8" standalone="no"?>
<svg xmlns:ffdec="https://www.free-decompiler.com/flash" xmlns:xlink="http://www.w3.org/1999/xlink" ffdec:objectType="shape" height="12.35px" width="19.2px" xmlns="http://www.w3.org/2000/svg">
  <g transform="matrix(1.0, 0.0, 0.0, 1.0, 7.35, 5.35)">
    <path d="M6.9 4.3 L-1.0 3.05 Q-5.3 1.95 -5.45 1.15 L3.65 0.15 Q6.1 -0.15 5.7 -0.95 L6.4 -0.2 Q8.55 -0.4 10.1 1.15 11.65 2.65 11.35 4.5 L11.25 4.5 Q11.75 4.7 11.55 6.05 L-6.55 6.15 Q-6.85 4.2 -5.85 3.5 L6.9 4.3" fill="#333333" fill-rule="evenodd" stroke="none"/>
    <path d="M6.2 4.15 L-5.85 3.5 Q-5.7 1.3 -5.15 -0.15 -4.55 -1.8 -0.9 -4.35 L4.0 -4.4 Q4.45 -2.5 5.7 -0.95 6.6 0.95 -5.45 1.15 -5.25 2.2 6.75 2.55 L6.2 4.15" fill="#3f3f3f" fill-rule="evenodd" stroke="none"/>
    <path d="M10.5 4.65 Q11.6 4.35 11.3 6.2 L-6.8 6.3 Q-7.1 4.25 -6.1 3.65 L10.5 4.65 Z" fill="none" stroke="#232323" stroke-linecap="butt" stroke-linejoin="miter-clip" stroke-miterlimit="11.33984375" stroke-width="1.05"/>
    <path d="M5.8 4.2 L-0.7 4.15 -6.05 3.65 Q-5.9 1.25 -5.4 0.05 -4.75 -1.7 -1.15 -4.2 1.2 -5.5 3.75 -4.25 5.25 -2.65 5.45 -0.8 8.15 -0.4 9.55 0.5 10.7 1.3 10.45 1.95 L10.45 2.0 7.05 2.0 5.8 4.2 M10.65 2.15 Q11.75 3.3 11.1 5.2" fill="none" stroke="#1f1f1f" stroke-linecap="butt" stroke-linejoin="miter-clip" stroke-miterlimit="11.33984375" stroke-width="1.05"/>
  </g>
</svg>
