<?xml version="1.0" encoding="UTF-8" standalone="no"?>
<svg xmlns:ffdec="https://www.free-decompiler.com/flash" xmlns:xlink="http://www.w3.org/1999/xlink" ffdec:objectType="shape" height="13.2px" width="20.45px" xmlns="http://www.w3.org/2000/svg">
  <g transform="matrix(1.0, 0.0, 0.0, 1.0, 1.45, 2.8)">
    <path d="M9.1 -0.75 L12.35 8.45 5.75 8.4 1.75 3.0 2.25 1.9 3.3 0.95 3.3 -1.3 7.25 -2.3 9.1 -0.75" fill="#252d31" fill-rule="evenodd" stroke="none"/>
    <path d="M9.1 -0.75 L7.25 -2.3 3.3 -1.3 3.3 0.95 2.25 1.9 1.75 3.0 5.75 8.4 12.35 8.45 9.1 -0.75 Z" fill="none" stroke="#131719" stroke-linecap="round" stroke-linejoin="round" stroke-width="1.0"/>
    <path d="M11.55 2.3 L10.2 2.3 8.7 0.0 12.65 -2.1 11.55 2.3 M12.55 4.9 L16.25 5.85 18.5 8.45 13.1 8.45 11.15 6.15 12.55 4.9" fill="#2f3d46" fill-rule="evenodd" stroke="none"/>
    <path d="M11.55 2.3 L11.35 2.95 10.95 4.5 8.45 4.0 10.95 4.5 11.35 2.95 12.55 4.9 11.15 6.15 13.1 8.45 18.5 8.45 18.5 9.65 11.7 9.65 9.75 7.35 8.3 7.35 6.8 4.95 8.45 4.0 7.2 3.2 5.7 -0.45 8.2 0.25 8.7 0.0 10.2 2.3 11.55 2.3 M1.5 7.25 L0.1 5.45 -0.95 3.0 2.25 3.0 4.2 4.45 6.5 7.5 4.85 9.9 2.05 9.9 1.5 7.25 M11.15 6.15 L9.75 7.35 11.15 6.15" fill="#253038" fill-rule="evenodd" stroke="none"/>
    <path d="M11.35 2.95 L11.55 2.3 12.65 -2.1 8.7 0.0 8.2 0.25 5.7 -0.45 7.2 3.2 8.45 4.0 10.95 4.5 11.35 2.95 12.55 4.9 16.25 5.85 18.5 8.45 18.5 9.65 11.7 9.65 9.75 7.35 8.3 7.35 6.8 4.95 8.45 4.0 M11.15 6.15 L12.55 4.9 M1.5 7.25 L0.1 5.45 -0.95 3.0 2.25 3.0 4.2 4.45 6.5 7.5 4.85 9.9 2.05 9.9 1.5 7.25 M9.75 7.35 L11.15 6.15" fill="none" stroke="#1c2327" stroke-linecap="round" stroke-linejoin="round" stroke-width="1.0"/>
  </g>
</svg>
