<?xml version="1.0" encoding="UTF-8" standalone="no"?>
<svg xmlns:ffdec="https://www.free-decompiler.com/flash" xmlns:xlink="http://www.w3.org/1999/xlink" ffdec:objectType="shape" height="9.7px" width="17.9px" xmlns="http://www.w3.org/2000/svg">
  <g transform="matrix(1.0, 0.0, 0.0, 1.0, -2.15, 0.65)">
    <path d="M13.6 3.8 L15.2 2.85 Q17.45 3.25 18.9 4.0 L19.5 6.05 19.55 6.25 18.9 8.35 17.1 8.55 7.4 8.55 7.4 8.1 5.8 8.1 5.8 8.55 2.65 8.55 2.65 6.35 2.65 4.6 3.25 3.9 3.25 0.1 9.0 0.1 9.0 0.4 6.95 1.5 9.1 3.95 12.4 4.95 13.6 3.8 M19.5 6.05 L14.9 6.05 13.1 6.75 8.4 6.75 6.85 6.15 5.55 6.15 4.5 7.0 2.65 6.35 4.5 7.0 5.55 6.15 6.85 6.15 8.4 6.75 13.1 6.75 14.9 6.05 19.5 6.05" fill="#161b1d" fill-rule="evenodd" stroke="none"/>
    <path d="M9.0 0.4 L10.05 -0.15 14.15 3.25 13.6 3.8 12.4 4.95 9.1 3.95 6.95 1.5 9.0 0.4" fill="url(#gradient0)" fill-rule="evenodd" stroke="none"/>
    <path d="M13.6 3.8 L15.2 2.85 Q17.45 3.25 18.9 4.0 L19.5 6.05 19.55 6.25 18.9 8.35 17.1 8.55 7.4 8.55 7.4 8.1 5.8 8.1 5.8 8.55 2.65 8.55 2.65 6.35 2.65 4.6 3.25 3.9 3.25 0.1 9.0 0.1 9.0 0.4 10.05 -0.15 14.15 3.25 13.6 3.8 12.4 4.95 9.1 3.95 6.95 1.5 9.0 0.4 M2.65 6.35 L4.5 7.0 5.55 6.15 6.85 6.15 8.4 6.75 13.1 6.75 14.9 6.05 19.5 6.05" fill="none" stroke="#070a0a" stroke-linecap="round" stroke-linejoin="round" stroke-width="1.0"/>
  </g>
  <defs>
    <radialGradient cx="0" cy="0" gradientTransform="matrix(0.0062, 0.0, 0.0, 0.0045, 8.6, 4.6)" gradientUnits="userSpaceOnUse" id="gradient0" r="819.2" spreadMethod="pad">
      <stop offset="0.0" stop-color="#131c2a"/>
      <stop offset="0.6588235294117647" stop-color="#182435"/>
      <stop offset="1.0" stop-color="#324662"/>
    </radialGradient>
  </defs>
</svg>
