<?xml version="1.0" encoding="UTF-8" standalone="no"?>
<svg xmlns:ffdec="https://www.free-decompiler.com/flash" xmlns:xlink="http://www.w3.org/1999/xlink" ffdec:objectType="shape" height="9.7px" width="17.9px" xmlns="http://www.w3.org/2000/svg">
  <g transform="matrix(1.0, 0.0, 0.0, 1.0, -2.15, 0.7)">
    <path d="M9.0 0.35 L10.05 -0.2 14.15 3.2 13.6 3.75 12.4 4.9 9.1 3.9 6.95 1.45 9.0 0.35" fill="url(#gradient0)" fill-rule="evenodd" stroke="none"/>
    <path d="M13.6 3.75 L15.2 2.8 Q17.45 3.2 18.9 3.95 L19.5 6.0 19.55 6.2 18.9 8.3 17.1 8.5 7.4 8.5 7.4 8.05 5.8 8.05 5.8 8.5 2.65 8.5 2.65 6.3 2.65 4.55 3.25 3.85 3.25 0.05 9.0 0.05 9.0 0.35 6.95 1.45 9.1 3.9 12.4 4.9 13.6 3.75 M19.5 6.0 L14.9 6.0 13.1 6.7 8.4 6.7 6.85 6.1 5.55 6.1 4.5 6.95 2.65 6.3 4.5 6.95 5.55 6.1 6.85 6.1 8.4 6.7 13.1 6.7 14.9 6.0 19.5 6.0" fill="#1d1616" fill-rule="evenodd" stroke="none"/>
    <path d="M13.6 3.75 L15.2 2.8 Q17.45 3.2 18.9 3.95 L19.5 6.0 19.55 6.2 18.9 8.3 17.1 8.5 7.4 8.5 7.4 8.05 5.8 8.05 5.8 8.5 2.65 8.5 2.65 6.3 2.65 4.55 3.25 3.85 3.25 0.05 9.0 0.05 9.0 0.35 10.05 -0.2 14.15 3.2 13.6 3.75 12.4 4.9 9.1 3.9 6.95 1.45 9.0 0.35 M2.65 6.3 L4.5 6.95 5.55 6.1 6.85 6.1 8.4 6.7 13.1 6.7 14.9 6.0 19.5 6.0" fill="none" stroke="#0a0707" stroke-linecap="round" stroke-linejoin="round" stroke-width="1.0"/>
  </g>
  <defs>
    <radialGradient cx="0" cy="0" gradientTransform="matrix(0.0045, 0.0, 0.0, 0.0045, 10.55, 2.35)" gradientUnits="userSpaceOnUse" id="gradient0" r="819.2" spreadMethod="pad">
      <stop offset="0.0" stop-color="#2a1313"/>
      <stop offset="0.6588235294117647" stop-color="#351818"/>
      <stop offset="1.0" stop-color="#623232"/>
    </radialGradient>
  </defs>
</svg>
