<?xml version="1.0" encoding="UTF-8" standalone="no"?>
<svg xmlns:xlink="http://www.w3.org/1999/xlink" height="101.0px" width="101.0px" xmlns="http://www.w3.org/2000/svg">
  <g transform="matrix(1.0, 0.0, 0.0, 1.0, 50.5, 50.5)">
    <path d="M1.3 -50.0 Q21.1 -49.55 35.2 -35.45 49.55 -21.1 50.0 -1.25 L50.0 1.3 Q49.55 21.15 35.2 35.25 21.1 49.55 1.3 50.0 L-1.3 50.0 Q-21.15 49.55 -35.45 35.25 -49.55 21.15 -50.0 1.3 L-50.0 -1.25 Q-49.55 -21.1 -35.45 -35.45 -21.15 -49.55 -1.3 -50.0 L1.3 -50.0" fill="#ff0000" fill-opacity="0.5019608" fill-rule="evenodd" stroke="none"/>
    <path d="M1.3 -50.0 L50.0 -50.0 50.0 -1.25 Q49.55 -21.1 35.2 -35.45 21.1 -49.55 1.3 -50.0 M50.0 1.3 L50.0 50.0 1.3 50.0 Q21.1 49.55 35.2 35.25 49.55 21.15 50.0 1.3 M-1.3 50.0 L-50.0 50.0 -50.0 1.3 Q-49.55 21.15 -35.45 35.25 -21.15 49.55 -1.3 50.0 M-50.0 -1.25 L-50.0 -50.0 -1.3 -50.0 Q-21.15 -49.55 -35.45 -35.45 -49.55 -21.1 -50.0 -1.25" fill="#00ff33" fill-opacity="0.2" fill-rule="evenodd" stroke="none"/>
    <path d="M50.0 -1.25 L50.0 -50.0 1.3 -50.0 M50.0 1.3 L50.0 50.0 1.3 50.0 M-1.3 50.0 L-50.0 50.0 -50.0 1.3 M-50.0 -1.25 L-50.0 -50.0 -1.3 -50.0" fill="none" stroke="#000000" stroke-linecap="round" stroke-linejoin="round" stroke-width="0.1"/>
    <path d="M1.3 -50.0 Q21.1 -49.55 35.2 -35.45 49.55 -21.1 50.0 -1.25 L50.0 1.3 Q49.55 21.15 35.2 35.25 21.1 49.55 1.3 50.0 L-1.3 50.0 Q-21.15 49.55 -35.45 35.25 -49.55 21.15 -50.0 1.3 L-50.0 -1.25 Q-49.55 -21.1 -35.45 -35.45 -21.15 -49.55 -1.3 -50.0 L1.3 -50.0" fill="none" stroke="#000000" stroke-linecap="round" stroke-linejoin="round" stroke-width="1.0"/>
  </g>
</svg>
