<?xml version="1.0" encoding="UTF-8" standalone="no"?>
<svg xmlns:xlink="http://www.w3.org/1999/xlink" height="6.7px" width="19.8px" xmlns="http://www.w3.org/2000/svg">
  <g transform="matrix(1.0, 0.0, 0.0, 1.0, -3.55, 0.5)">
    <path d="M4.25 3.1 L5.2 0.0 6.3 0.85 Q7.2 1.7 8.3 1.55 9.4 1.4 22.75 1.6 L22.85 4.55 21.2 4.55 19.1 4.9 14.05 4.9 11.95 4.95 10.85 4.95 9.65 5.0 Q6.0 4.5 4.05 5.7 L4.25 3.1 M20.0 3.9 L20.5 2.5 20.0 3.9 M7.4 3.9 L7.9 2.5 7.4 3.9 M5.95 3.9 L6.45 2.5 5.95 3.9 M8.95 3.9 L9.45 2.5 8.95 3.9 M18.45 3.9 L18.95 2.5 18.45 3.9" fill="#b0b5bb" fill-rule="evenodd" stroke="none"/>
    <path d="M21.2 4.55 L19.1 4.9 14.05 4.9 M9.65 5.0 Q6.0 4.5 4.05 5.7" fill="none" stroke="#313435" stroke-linecap="round" stroke-linejoin="round" stroke-width="1.0"/>
    <path d="M4.25 3.1 L5.2 0.0 6.3 0.85 Q7.2 1.7 8.3 1.55 9.4 1.4 22.75 1.6 L22.85 4.55 21.2 4.55 M14.05 4.9 L11.95 4.95 10.85 4.95 9.65 5.0" fill="none" stroke="#414547" stroke-linecap="round" stroke-linejoin="round" stroke-width="1.0"/>
    <path d="M18.95 2.5 L18.45 3.9 M9.45 2.5 L8.95 3.9 M6.45 2.5 L5.95 3.9 M7.9 2.5 L7.4 3.9 M20.5 2.5 L20.0 3.9" fill="none" stroke="#737a84" stroke-linecap="round" stroke-linejoin="round" stroke-width="1.0"/>
    <path d="M4.05 5.7 L4.25 3.1" fill="none" stroke="#636869" stroke-linecap="round" stroke-linejoin="round" stroke-width="1.0"/>
  </g>
</svg>
