<?xml version="1.0" encoding="UTF-8" standalone="no"?>
<svg xmlns:ffdec="https://www.free-decompiler.com/flash" xmlns:xlink="http://www.w3.org/1999/xlink" ffdec:objectType="shape" height="23.55px" width="31.55px" xmlns="http://www.w3.org/2000/svg">
  <g transform="matrix(1.0, 0.0, 0.0, 1.0, -4.85, 12.35)">
    <path d="M12.5 -4.25 L29.4 -3.15 Q36.4 -2.05 36.4 -0.45 36.4 1.1 29.4 2.2 L12.5 3.3 10.85 3.3 10.85 -4.25 12.5 -4.25" fill="url(#gradient0)" fill-rule="evenodd" stroke="none"/>
    <path d="M11.55 11.15 L11.1 11.2 Q8.5 11.2 6.65 7.75 4.85 4.25 4.85 -0.55 4.85 -5.45 6.65 -8.9 8.5 -12.35 11.1 -12.35 L11.55 -12.3 11.55 11.15" fill="url(#gradient1)" fill-rule="evenodd" stroke="none"/>
    <path d="M11.55 -12.3 L11.95 -12.35 Q14.55 -12.35 16.4 -8.9 18.25 -5.45 18.25 -0.55 18.25 4.25 16.4 7.75 14.55 11.2 11.95 11.2 L11.55 11.15 11.55 -12.3" fill="url(#gradient2)" fill-rule="evenodd" stroke="none"/>
  </g>
  <defs>
    <radialGradient cx="0" cy="0" gradientTransform="matrix(0.0, 0.0041, -0.0292, 0.0, 12.45, -0.45)" gradientUnits="userSpaceOnUse" id="gradient0" r="819.2" spreadMethod="pad">
      <stop offset="0.17647058823529413" stop-color="#ffffff"/>
      <stop offset="1.0" stop-color="#fe6767" stop-opacity="0.0"/>
    </radialGradient>
    <radialGradient cx="0" cy="0" gradientTransform="matrix(0.0, 0.0128, 0.0076, 0.0, 11.1, -0.6)" gradientUnits="userSpaceOnUse" id="gradient1" r="819.2" spreadMethod="pad">
      <stop offset="0.17647058823529413" stop-color="#ffffff"/>
      <stop offset="1.0" stop-color="#fe8181" stop-opacity="0.0"/>
    </radialGradient>
    <radialGradient cx="0" cy="0" gradientTransform="matrix(0.0, 0.0128, -0.0076, 0.0, 11.95, -0.6)" gradientUnits="userSpaceOnUse" id="gradient2" r="819.2" spreadMethod="pad">
      <stop offset="0.17647058823529413" stop-color="#ffffff"/>
      <stop offset="1.0" stop-color="#fe8181" stop-opacity="0.0"/>
    </radialGradient>
  </defs>
</svg>
