<?xml version="1.0" encoding="UTF-8" standalone="no"?>
<svg xmlns:ffdec="https://www.free-decompiler.com/flash" xmlns:xlink="http://www.w3.org/1999/xlink" ffdec:objectType="shape" height="11.85px" width="18.25px" xmlns="http://www.w3.org/2000/svg">
  <g transform="matrix(1.0, 0.0, 0.0, 1.0, -0.5, 1.85)">
    <path d="M10.45 9.35 L10.45 6.15 12.15 4.95 12.15 2.85 12.15 2.4 Q13.95 2.4 16.1 3.35 17.65 4.15 18.15 5.7 18.65 7.25 17.0 9.3 14.05 9.6 10.7 9.4 L10.45 9.35" fill="url(#gradient0)" fill-rule="evenodd" stroke="none"/>
    <path d="M9.6 3.3 L9.0 2.85 6.4 2.4 5.0 -0.85 4.75 -1.35 8.4 -1.35 Q9.8 0.25 9.6 3.3" fill="url(#gradient1)" fill-rule="evenodd" stroke="none"/>
    <path d="M10.45 9.35 L10.05 9.35 6.45 9.35 6.25 8.6 4.55 8.65 4.05 9.45 1.0 9.45 1.65 -0.85 5.0 -0.85 6.4 2.4 9.0 2.85 9.6 3.3 12.15 2.85 12.15 4.95 10.45 6.15 10.45 9.35" fill="#1e1e1e" fill-rule="evenodd" stroke="none"/>
    <path d="M5.0 -0.85 L1.65 -0.85 1.0 9.45 4.05 9.45 4.55 8.65 6.25 8.6 6.45 9.35 10.05 9.35 10.45 9.35 10.45 6.15 12.15 4.95 12.15 2.85 9.6 3.3 9.0 2.85 6.4 2.4 5.0 -0.85 4.75 -1.35 8.4 -1.35 Q9.8 0.25 9.6 3.3 M12.15 2.4 Q13.95 2.4 16.1 3.35 17.65 4.15 18.15 5.7 18.65 7.25 17.0 9.3 14.05 9.6 10.7 9.4 L10.45 9.4 10.05 9.35 M10.45 9.35 L10.45 9.4 M10.45 9.35 L10.7 9.4" fill="none" stroke="#0e0e0e" stroke-linecap="round" stroke-linejoin="round" stroke-width="1.0"/>
  </g>
  <defs>
    <radialGradient cx="0" cy="0" fx="192.0" fy="0" gradientTransform="matrix(0.0073, 0.002, -0.0016, 0.0061, 15.05, 3.7)" gradientUnits="userSpaceOnUse" id="gradient0" r="819.2" spreadMethod="pad">
      <stop offset="0.0" stop-color="#484848"/>
      <stop offset="0.4470588235294118" stop-color="#2a2a2a"/>
      <stop offset="1.0" stop-color="#0e0e0e"/>
      <stop offset="1.0" stop-color="#383838"/>
    </radialGradient>
    <radialGradient cx="0" cy="0" fx="192.0" fy="0" gradientTransform="matrix(0.0029, 0.005, -0.0036, 0.0021, 8.6, -0.35)" gradientUnits="userSpaceOnUse" id="gradient1" r="819.2" spreadMethod="pad">
      <stop offset="0.0" stop-color="#484848"/>
      <stop offset="0.4470588235294118" stop-color="#2a2a2a"/>
      <stop offset="0.984313725490196" stop-color="#151515"/>
      <stop offset="1.0" stop-color="#1e1e1e"/>
      <stop offset="1.0" stop-color="#383838"/>
    </radialGradient>
  </defs>
</svg>
