<?xml version="1.0" encoding="UTF-8" standalone="no"?>
<svg xmlns:ffdec="https://www.free-decompiler.com/flash" xmlns:xlink="http://www.w3.org/1999/xlink" ffdec:objectType="shape" height="13.55px" width="31.55px" xmlns="http://www.w3.org/2000/svg">
  <g transform="matrix(1.0, 0.0, 0.0, 1.0, -3.6, 7.35)">
    <path d="M11.25 -4.25 L28.15 -3.15 Q35.15 -2.05 35.15 -0.45 35.15 1.1 28.15 2.2 L11.25 3.3 9.6 3.3 9.6 -4.25 11.25 -4.25" fill="url(#gradient0)" fill-rule="evenodd" stroke="none"/>
    <path d="M10.3 6.15 L9.85 6.2 Q7.25 6.2 5.4 4.2 3.6 2.2 3.6 -0.55 3.6 -3.4 5.4 -5.35 7.25 -7.35 9.85 -7.35 L10.3 -7.3 10.3 6.15" fill="url(#gradient1)" fill-rule="evenodd" stroke="none"/>
    <path d="M10.3 -7.3 L10.7 -7.35 Q13.3 -7.35 15.15 -5.35 17.0 -3.4 17.0 -0.55 17.0 2.2 15.15 4.2 13.3 6.2 10.7 6.2 L10.3 6.15 10.3 -7.3" fill="url(#gradient2)" fill-rule="evenodd" stroke="none"/>
  </g>
  <defs>
    <radialGradient cx="0" cy="0" gradientTransform="matrix(0.0, 0.0041, -0.0292, 0.0, 11.2, -0.45)" gradientUnits="userSpaceOnUse" id="gradient0" r="819.2" spreadMethod="pad">
      <stop offset="0.17647058823529413" stop-color="#ffffff"/>
      <stop offset="1.0" stop-color="#ffb711" stop-opacity="0.0"/>
    </radialGradient>
    <radialGradient cx="0" cy="0" gradientTransform="matrix(0.0, 0.0073, 0.0076, 0.0, 9.85, -0.6)" gradientUnits="userSpaceOnUse" id="gradient1" r="819.2" spreadMethod="pad">
      <stop offset="0.17647058823529413" stop-color="#ffffff"/>
      <stop offset="1.0" stop-color="#ff8811" stop-opacity="0.0"/>
    </radialGradient>
    <radialGradient cx="0" cy="0" gradientTransform="matrix(0.0, 0.0073, -0.0076, 0.0, 10.7, -0.6)" gradientUnits="userSpaceOnUse" id="gradient2" r="819.2" spreadMethod="pad">
      <stop offset="0.17647058823529413" stop-color="#ffffff"/>
      <stop offset="1.0" stop-color="#ff8811" stop-opacity="0.0"/>
    </radialGradient>
  </defs>
</svg>
