<?xml version="1.0" encoding="UTF-8" standalone="no"?>
<svg xmlns:ffdec="https://www.free-decompiler.com/flash" xmlns:xlink="http://www.w3.org/1999/xlink" ffdec:objectType="shape" height="23.15px" width="22.2px" xmlns="http://www.w3.org/2000/svg">
  <g transform="matrix(1.0, 0.0, 0.0, 1.0, 7.3, 19.9)">
    <path d="M3.65 -0.55 L3.45 1.0 -2.25 0.35 -2.1 -1.95 Q-2.45 -3.9 -3.1 -4.75 -3.8 -5.6 -3.95 -7.3 -4.1 -9.05 -3.65 -10.8 -3.05 -12.9 -1.7 -13.85 0.8 -15.55 3.45 -15.4 6.0 -15.3 7.8 -13.5 8.9 -12.4 9.0 -10.4 L9.05 -7.75 9.9 -6.6 10.45 -5.4 Q10.35 -4.95 9.85 -4.65 L9.25 -4.1 8.7 -1.75 Q8.5 -0.75 7.85 -0.55 6.45 -0.05 3.65 -0.55 1.65 -0.95 1.55 -2.1 1.65 -0.95 3.65 -0.55 M5.55 -3.95 Q7.65 -5.0 7.8 -3.05 7.65 -5.0 5.55 -3.95" fill="#ad7a68" fill-rule="evenodd" stroke="none"/>
    <path d="M3.65 -0.55 Q6.45 -0.05 7.85 -0.55 8.5 -0.75 8.7 -1.75 L9.25 -4.1 9.85 -4.65 Q10.35 -4.95 10.45 -5.4 L9.9 -6.6 9.05 -7.75 9.0 -10.4 Q8.9 -12.4 7.8 -13.5 6.0 -15.3 3.45 -15.4 0.8 -15.55 -1.7 -13.85 -3.05 -12.9 -3.65 -10.8 -4.1 -9.05 -3.95 -7.3 -3.8 -5.6 -3.1 -4.75 -2.45 -3.9 -2.1 -1.95 L-2.25 0.35 3.45 1.0 3.65 -0.55" fill="none" stroke="#724b3e" stroke-linecap="round" stroke-linejoin="round" stroke-width="1.05"/>
    <path d="M7.8 -3.05 Q7.65 -5.0 5.55 -3.95" fill="none" stroke="#805546" stroke-linecap="round" stroke-linejoin="round" stroke-opacity="0.5019608" stroke-width="1.05"/>
    <path d="M3.65 -0.55 Q1.65 -0.95 1.55 -2.1" fill="none" stroke="#724b3e" stroke-linecap="round" stroke-linejoin="round" stroke-opacity="0.5019608" stroke-width="1.05"/>
    <path d="M-0.9 -7.55 Q-1.25 -6.35 -0.8 -5.35 -0.45 -4.6 0.1 -4.35" fill="none" stroke="#966351" stroke-linecap="round" stroke-linejoin="miter-clip" stroke-miterlimit="4.0" stroke-width="1.05"/>
    <path d="M4.65 -16.2 L6.5 -15.45 Q7.9 -14.8 8.6 -14.05 9.35 -13.25 9.75 -12.0 L8.1 -11.95 Q7.85 -12.05 7.6 -11.5 L7.4 -10.9 6.5 -11.1 5.35 -11.35 3.45 -10.8 1.9 -10.1 Q1.65 -9.95 1.5 -9.0 L1.35 -8.05 0.55 -7.5 -0.05 -8.45 Q-0.15 -8.8 -0.7 -8.95 L-1.25 -9.0 Q-2.0 -9.05 -2.4 -7.4 -2.6 -6.7 -2.3 -5.5 L-2.0 -4.35 -2.75 -3.9 -3.25 -4.45 Q-3.85 -4.9 -4.4 -4.85 L-4.9 -5.75 Q-5.35 -6.7 -5.0 -7.3 -4.75 -7.8 -4.85 -9.55 -4.95 -11.35 -4.7 -12.0 L-3.95 -13.95 -2.6 -15.45 -1.55 -16.1 -0.5 -16.5 2.6 -16.55 4.65 -16.2" fill="#3d2a22" fill-rule="evenodd" stroke="none"/>
    <path d="M4.65 -16.2 L2.6 -16.55 -0.5 -16.5 -1.55 -16.1 -2.6 -15.45 -3.95 -13.95 -4.7 -12.0 Q-4.95 -11.35 -4.85 -9.55 -4.75 -7.8 -5.0 -7.3 -5.35 -6.7 -4.9 -5.75 L-4.4 -4.85 Q-3.85 -4.9 -3.25 -4.45 L-2.75 -3.9 -2.0 -4.35 -2.3 -5.5 Q-2.6 -6.7 -2.4 -7.4 -2.0 -9.05 -1.25 -9.0 L-0.7 -8.95 Q-0.15 -8.8 -0.05 -8.45 L0.55 -7.5 1.35 -8.05 1.5 -9.0 Q1.65 -9.95 1.9 -10.1 L3.45 -10.8 5.35 -11.35 6.5 -11.1 7.4 -10.9 7.6 -11.5 Q7.85 -12.05 8.1 -11.95 L9.75 -12.0 Q9.35 -13.25 8.6 -14.05 7.9 -14.8 6.5 -15.45 L4.65 -16.2 Z" fill="none" stroke="#19110e" stroke-linecap="round" stroke-linejoin="round" stroke-opacity="0.5019608" stroke-width="1.05"/>
    <path d="M5.1 -7.85 Q5.15 -7.45 5.7 -7.15 5.95 -7.0 6.15 -6.95 7.2 -6.95 7.5 -7.5" fill="none" stroke="#805546" stroke-linecap="round" stroke-linejoin="round" stroke-width="0.5"/>
    <path d="M-3.8 -5.7 Q-3.4 -6.85 -3.45 -7.8 L-3.6 -8.45" fill="none" stroke="#2e1f1b" stroke-linecap="round" stroke-linejoin="round" stroke-opacity="0.5019608" stroke-width="1.05"/>
    <path d="M0.05 -11.1 L2.25 -10.9 0.5 -8.6 -2.25 -7.8 -5.15 -7.8 -5.15 -9.05 -1.35 -9.4 0.05 -11.1" fill="#5c5c5c" fill-rule="evenodd" stroke="none"/>
    <path d="M2.25 -10.9 L0.5 -8.6 -2.25 -7.8 -5.15 -7.8 -5.15 -9.05 -1.35 -9.4 0.05 -11.1" fill="none" stroke="#313131" stroke-linecap="round" stroke-linejoin="round" stroke-width="1.05"/>
    <path d="M10.1 -10.4 L1.7 -10.85 -2.95 -10.4 -5.45 -9.65 -6.8 -10.45 -6.3 -12.85 Q-5.55 -15.45 -4.25 -16.65 -1.3 -19.35 3.45 -18.6 5.2 -18.3 6.8 -17.25 8.45 -16.2 9.4 -14.7 9.9 -13.95 10.05 -12.1 L10.1 -10.4" fill="#858530" fill-rule="evenodd" stroke="none"/>
    <path d="M8.45 -10.45 L12.35 -10.35" fill="none" stroke="#4a4a1b" stroke-linecap="round" stroke-linejoin="round" stroke-width="1.05"/>
    <path d="M-4.45 -10.35 L-4.6 -12.0 -2.0 -12.3 -1.8 -10.65 -4.45 -10.35" fill="#9e9e39" fill-rule="evenodd" stroke="none"/>
    <path d="M-4.45 -10.35 L-4.6 -12.0 -2.0 -12.3 -1.8 -10.65" fill="none" stroke="#56561f" stroke-linecap="round" stroke-linejoin="round" stroke-width="1.05"/>
    <path d="M3.2 -10.8 L0.55 -10.95 0.7 -12.55 3.3 -12.45 3.2 -10.8" fill="#9e9e39" fill-rule="evenodd" stroke="none"/>
    <path d="M0.55 -10.95 L0.7 -12.55 3.3 -12.45 3.2 -10.8" fill="none" stroke="#56561f" stroke-linecap="round" stroke-linejoin="round" stroke-width="1.05"/>
    <path d="M5.8 -10.55 L5.9 -12.2 8.55 -12.1 8.45 -10.45 5.8 -10.55" fill="#9e9e39" fill-rule="evenodd" stroke="none"/>
    <path d="M5.8 -10.55 L5.9 -12.2 8.55 -12.1 8.45 -10.45" fill="none" stroke="#56561f" stroke-linecap="round" stroke-linejoin="round" stroke-width="1.05"/>
    <path d="M10.1 -10.4 L10.05 -12.1 Q9.9 -13.95 9.4 -14.7 8.45 -16.2 6.8 -17.25 5.2 -18.3 3.45 -18.6 -1.5 -19.4 -4.35 -16.7 -5.7 -15.5 -6.35 -12.85 L-6.8 -10.45 -5.45 -9.65 -2.95 -10.4 1.7 -10.85 10.1 -10.4 Z" fill="none" stroke="#4a4a1b" stroke-linecap="round" stroke-linejoin="round" stroke-width="1.05"/>
    <path d="M1.3 -17.9 Q-0.1 -17.75 -3.05 -16.2 L-5.75 -14.65 -4.75 -16.25 Q-3.2 -18.05 -0.45 -19.1 L2.05 -19.4 Q3.6 -19.3 4.4 -18.75 L5.1 -18.15 1.3 -17.9" fill="#858530" fill-rule="evenodd" stroke="none"/>
    <path d="M1.3 -17.9 Q-0.1 -17.75 -3.05 -16.2 L-5.75 -14.65 -4.75 -16.25 Q-3.2 -18.05 -0.45 -19.1 L2.05 -19.4 Q3.6 -19.3 4.4 -18.75 L5.1 -18.15 1.3 -17.9 Z" fill="none" stroke="#4a4a1b" stroke-linecap="round" stroke-linejoin="round" stroke-width="1.05"/>
    <path d="M8.4 -17.8 Q10.25 -17.0 11.45 -14.45 L12.95 -10.0 Q13.75 -7.2 12.3 -3.4 L9.65 2.75 7.55 2.15 Q5.25 1.4 4.65 0.75 4.1 0.15 3.95 -2.2 3.8 -4.6 3.25 -5.25 L0.0 -9.2 1.7 -13.45 4.75 -15.65 Q7.9 -17.85 8.4 -17.8" fill="url(#gradient0)" fill-rule="evenodd" stroke="none"/>
    <path d="M8.4 -17.8 Q7.9 -17.85 4.75 -15.65 L1.7 -13.45 0.0 -9.2 3.25 -5.25 Q3.8 -4.6 3.95 -2.2 4.1 0.15 4.65 0.75 5.25 1.4 7.55 2.15 L9.65 2.75 12.3 -3.4 Q13.75 -7.2 12.95 -10.0 L11.45 -14.45 Q10.25 -17.0 8.4 -17.8 Z" fill="none" stroke="#0d1116" stroke-linecap="round" stroke-linejoin="round" stroke-width="1.05"/>
    <path d="M11.95 -4.65 L12.2 -9.6 14.4 -9.45 14.15 -4.5 11.95 -4.65" fill="#10141b" fill-rule="evenodd" stroke="none"/>
    <path d="M11.95 -4.65 L14.15 -4.5 14.4 -9.45 12.2 -9.6" fill="none" stroke="#070a0e" stroke-linecap="round" stroke-linejoin="round" stroke-width="1.05"/>
    <path d="M2.2 -11.5 Q2.7 -11.5 3.05 -11.15 L3.4 -10.35 Q3.4 -9.85 3.05 -9.5 2.7 -9.15 2.2 -9.15 1.75 -9.15 1.4 -9.5 1.05 -9.85 1.05 -10.35 1.05 -10.8 1.4 -11.15 1.75 -11.5 2.2 -11.5" fill="#1a1d23" fill-rule="evenodd" stroke="none"/>
    <path d="M2.2 -11.5 Q2.7 -11.5 3.05 -11.15 L3.4 -10.35 Q3.4 -9.85 3.05 -9.5 2.7 -9.15 2.2 -9.15 1.75 -9.15 1.4 -9.5 1.05 -9.85 1.05 -10.35 1.05 -10.8 1.4 -11.15 1.75 -11.5 2.2 -11.5 Z" fill="none" stroke="#070a0e" stroke-linecap="round" stroke-linejoin="round" stroke-width="1.05"/>
  </g>
  <defs>
    <linearGradient gradientTransform="matrix(0.0078, -6.0E-4, 6.0E-4, 0.0078, 7.55, -7.65)" gradientUnits="userSpaceOnUse" id="gradient0" spreadMethod="pad" x1="-819.2" x2="819.2">
      <stop offset="0.0" stop-color="#2f343f"/>
      <stop offset="1.0" stop-color="#15181d"/>
    </linearGradient>
  </defs>
</svg>
