<?xml version="1.0" encoding="UTF-8" standalone="no"?>
<svg xmlns:ffdec="https://www.free-decompiler.com/flash" xmlns:xlink="http://www.w3.org/1999/xlink" ffdec:objectType="shape" height="12.95px" width="17.05px" xmlns="http://www.w3.org/2000/svg">
  <g transform="matrix(1.0, 0.0, 0.0, 1.0, 0.5, 0.5)">
    <path d="M15.15 8.4 L13.65 8.4 12.8 9.9 10.4 10.5 5.75 10.6 5.75 11.3 3.95 11.3 3.95 10.65 0.65 9.5 0.65 7.55 1.2 6.55 1.2 1.8 Q1.7 1.25 5.45 0.65 4.9 -1.0 8.35 1.55 L8.15 3.3 8.15 4.45 8.25 5.4 8.35 6.0 10.3 6.2 Q10.85 5.9 11.35 5.55 13.4 5.75 15.15 6.85 L15.15 8.4" fill="#8e8e8e" fill-rule="evenodd" stroke="none"/>
    <path d="M5.75 11.3 L5.75 10.6 10.4 10.5 12.8 9.9 13.65 8.4 15.15 8.4 16.05 9.8 15.75 11.0 15.15 11.95 Q14.05 11.55 12.8 11.95 11.7 11.65 10.4 11.95 L5.75 11.85 5.75 11.3 M0.65 9.5 L3.95 10.65 3.95 11.3 3.95 11.7 Q2.95 11.4 0.0 11.7 L0.0 9.5 0.65 9.5" fill="#3a0404" fill-rule="evenodd" stroke="none"/>
    <path d="M5.8 5.95 L7.55 7.3 7.7 7.5 8.05 7.75 8.35 7.75 8.75 7.85 8.75 7.65 8.85 7.65 9.0 7.7 9.15 7.9 9.4 8.55 Q9.45 9.05 9.15 8.8 L8.75 8.35 8.35 8.05 8.65 8.7 8.6 8.8 8.5 8.8 8.2 8.6 8.25 8.7 8.2 8.7 8.25 8.95 8.25 9.15 Q9.1 9.25 9.6 9.6 L9.7 9.7 9.95 9.45 10.05 9.45 10.1 9.3 10.3 8.95 10.3 8.6 10.35 8.45 10.4 8.3 10.55 8.5 10.65 8.6 10.9 8.5 11.6 8.75 11.4 8.55 11.35 8.05 11.25 8.1 11.25 8.05 10.8 8.05 10.55 7.9 10.55 7.25 10.55 6.6 10.65 6.4 10.75 6.35 11.1 6.45 11.2 6.5 11.3 7.15 11.4 7.2 11.4 7.35 11.45 7.3 11.8 7.6 11.8 7.4 Q11.9 6.8 13.2 7.0 14.25 7.15 14.5 7.6 L14.65 7.95 14.4 8.2 14.25 8.5 13.65 8.4 13.05 9.3 12.25 10.05 12.3 10.85 12.3 11.15 11.6 10.2 Q11.15 13.4 11.1 11.9 L11.25 11.55 11.1 11.45 10.75 10.75 10.7 10.95 10.65 11.2 10.6 11.3 10.35 11.3 10.4 11.4 10.45 11.5 10.4 11.75 10.1 11.85 9.9 11.5 9.85 11.2 9.65 11.05 9.35 10.55 9.5 10.35 9.0 10.25 9.05 10.05 9.05 9.95 9.1 9.9 8.25 9.25 8.0 9.2 7.6 8.75 7.2 8.45 7.5 9.1 7.45 9.2 7.35 9.2 7.05 9.0 7.1 9.1 6.95 9.1 6.55 8.9 6.35 8.6 6.3 8.45 Q6.35 8.25 6.55 8.4 L6.2 8.0 6.2 7.9 5.35 7.3 5.5 7.3 5.55 7.35 5.55 7.3 4.6 6.3 6.4 7.7 6.55 7.9 6.9 8.15 7.2 8.15 7.5 8.2 7.45 8.05 Q7.5 7.85 7.7 8.0 L7.35 7.6 7.35 7.5 Q6.8 7.25 6.5 6.9 L6.65 6.9 6.7 6.95 6.7 6.9 5.8 5.95 5.8 6.1 Q5.8 6.4 5.2 5.9 4.65 5.2 4.35 5.15 4.0 5.0 3.95 4.4 L3.95 4.15 4.0 4.05 Q4.2 3.8 4.35 3.8 L5.15 4.75 5.8 5.95 M12.0 8.5 L11.95 8.45 11.9 8.6 11.8 8.7 11.7 8.8 12.1 9.3 12.3 9.6 12.0 8.5 M9.4 5.65 L9.6 5.55 10.15 6.15 10.2 6.6 10.35 6.85 10.4 7.2 10.3 7.65 10.15 7.3 Q10.0 7.35 9.95 7.2 L9.95 6.9 9.85 6.5 9.65 6.1 9.4 5.65 M6.15 2.2 L6.55 2.4 6.85 3.05 7.0 3.8 7.0 4.4 6.95 4.55 6.85 4.65 6.65 4.75 6.4 4.4 6.2 3.9 6.05 3.2 5.85 2.9 5.9 2.5 6.15 2.2 M5.75 4.35 L5.8 4.3 5.8 4.2 Q5.9 4.1 5.95 4.3 L6.05 4.65 6.05 5.0 6.05 5.1 5.95 5.1 5.9 5.05 5.8 5.05 5.75 5.0 5.75 4.85 5.7 4.55 5.75 4.35" fill="#410000" fill-opacity="0.50980395" fill-rule="evenodd" stroke="none"/>
    <path d="M15.75 11.0 L16.05 9.8 15.15 8.4 13.65 8.4 12.8 9.9 12.8 11.95 Q14.05 11.55 15.15 11.95 L15.75 11.0 M15.15 8.4 L15.15 6.85 Q13.4 5.75 11.35 5.55 10.85 5.9 10.3 6.2 L8.85 6.8 M8.35 6.75 L6.6 5.8 5.45 0.65 Q1.7 1.25 1.2 1.8 L1.2 6.55 0.65 7.55 0.65 9.5 3.95 10.65 3.95 11.3 5.75 11.3 5.75 10.6 10.4 10.5 12.8 9.9 M12.8 11.95 Q11.7 11.65 10.4 11.95 L5.75 11.85 5.75 11.3 M10.4 11.95 L10.4 10.5 M5.45 0.65 Q4.9 -1.0 8.35 1.55 L8.15 3.3 8.15 4.45 8.25 5.4 8.35 6.0 10.3 6.2 M3.95 11.3 L3.95 11.7 Q2.95 11.4 0.0 11.7 L0.0 9.5 0.65 9.5" fill="none" stroke="#070707" stroke-linecap="round" stroke-linejoin="round" stroke-width="1.0"/>
    <path d="M15.75 11.0 L14.65 10.35" fill="none" stroke="#151515" stroke-linecap="round" stroke-linejoin="round" stroke-width="1.0"/>
    <path d="M6.9 3.25 L8.15 4.45 M7.2 4.55 L8.25 5.4 M6.5 2.05 L8.15 3.3" fill="none" stroke="#484848" stroke-linecap="round" stroke-linejoin="round" stroke-width="1.0"/>
  </g>
</svg>
