<?xml version="1.0" encoding="UTF-8" standalone="no"?>
<svg xmlns:xlink="http://www.w3.org/1999/xlink" height="92.45px" width="219.6px" xmlns="http://www.w3.org/2000/svg">
  <g transform="matrix(1.0, 0.0, 0.0, 1.0, 103.15, 39.55)">
    <path d="M-91.85 1.4 L-97.55 1.4 -97.55 -3.65 -91.85 -3.65 -86.45 -7.15 -80.75 -3.65 -78.4 -11.2 -75.35 -11.2 -69.45 -11.2 -64.15 -11.2 -64.15 1.4 -69.45 1.4 -75.35 1.4 -80.75 1.4 -86.45 1.4 -91.85 1.4 -91.85 -3.65 -91.85 1.4 M-86.45 1.4 L-86.45 -7.15 -86.45 1.4 M-69.45 1.4 L-69.45 -11.2 -69.45 1.4 M-75.35 -11.2 L-75.35 1.4 -75.35 -11.2 M-80.75 1.4 L-80.75 -3.65 -80.75 1.4" fill="url(#gradient0)" fill-rule="evenodd" stroke="none"/>
    <path d="M-65.45 5.1 L-60.15 5.1 -60.15 17.7 -65.45 17.7 -71.35 17.7 -76.75 17.7 -82.45 17.7 -87.85 9.85 -93.55 9.85 -93.55 5.1 -87.85 5.1 -82.45 5.1 -76.75 5.1 -71.35 5.1 -65.45 5.1 -65.45 17.7 -65.45 5.1 M-71.35 17.7 L-71.35 5.1 -71.35 17.7 M-76.75 5.1 L-76.75 17.7 -76.75 5.1 M-82.45 17.7 L-82.45 5.1 -82.45 17.7 M-87.85 9.85 L-87.85 5.1 -87.85 9.85" fill="url(#gradient1)" fill-rule="evenodd" stroke="none"/>
    <path d="M-75.4 41.85 L-80.3 44.05 -85.5 46.35 -90.65 34.85 -85.45 32.55 -80.55 30.35 -75.35 28.0 -70.4 25.8 -65.05 23.4 -60.2 21.25 -55.05 32.75 -59.9 34.9 -65.25 37.3 -70.2 39.5 -75.4 41.85 -80.55 30.35 -75.4 41.85 M-59.9 34.9 L-65.05 23.4 -59.9 34.9 M-70.2 39.5 L-75.35 28.0 -70.2 39.5 M-70.4 25.8 L-65.25 37.3 -70.4 25.8 M-85.45 32.55 L-80.3 44.05 -85.45 32.55" fill="url(#gradient2)" fill-rule="evenodd" stroke="none"/>
    <path d="M-91.85 1.4 L-97.55 1.4 -97.55 -3.65 -91.85 -3.65 -86.45 -7.15 -80.75 -3.65 -78.4 -11.2 -75.35 -11.2 -69.45 -11.2 -64.15 -11.2 -64.15 1.4 -69.45 1.4 -75.35 1.4 -80.75 1.4 -86.45 1.4 -91.85 1.4 -91.85 -3.65 M-65.45 5.1 L-60.15 5.1 -60.15 17.7 -65.45 17.7 -71.35 17.7 -76.75 17.7 -82.45 17.7 -87.85 9.85 -93.55 9.85 -93.55 5.1 -87.85 5.1 -82.45 5.1 -76.75 5.1 -71.35 5.1 -65.45 5.1 -65.45 17.7 M-76.75 17.7 L-76.75 5.1 M-71.35 5.1 L-71.35 17.7 M-75.4 41.85 L-80.3 44.05 -85.5 46.35 -90.65 34.85 -85.45 32.55 -80.55 30.35 -75.35 28.0 -70.4 25.8 -65.05 23.4 -60.2 21.25 -55.05 32.75 -59.9 34.9 -65.25 37.3 -70.2 39.5 -75.4 41.85 -80.55 30.35 M-65.25 37.3 L-70.4 25.8 M-75.35 28.0 L-70.2 39.5 M-65.05 23.4 L-59.9 34.9 M-87.85 5.1 L-87.85 9.85 M-82.45 5.1 L-82.45 17.7 M-80.3 44.05 L-85.45 32.55 M-80.75 -3.65 L-80.75 1.4 M-75.35 1.4 L-75.35 -11.2 M-69.45 -11.2 L-69.45 1.4 M-86.45 -7.15 L-86.45 1.4" fill="none" stroke="#1e1e1e" stroke-linecap="round" stroke-linejoin="round" stroke-width="2.0"/>
    <path d="M-22.4 -32.25 Q-31.45 -26.8 -33.6 -26.3 -35.75 -25.8 -35.0 -19.2 -34.25 -12.6 -33.3 -11.5 -31.55 -9.5 -27.25 -9.5 L-18.8 -8.95 Q-16.6 -8.1 -14.0 -7.5 L1.25 -12.15 Q4.85 -5.0 10.25 -5.0 14.0 -5.0 15.8 -6.05 18.15 -7.4 27.1 -11.15 L25.25 -7.5 Q26.0 -7.0 27.0 -7.0 L35.75 -5.45 Q37.5 -3.5 39.1 -3.5 41.05 -3.5 42.1 -5.05 42.75 -5.95 46.5 -8.15 L57.25 -8.7 Q61.05 -9.55 63.9 -7.85 66.7 -6.2 66.15 -4.1 60.9 -0.2 49.3 2.95 37.65 6.1 21.95 7.05 L-5.9 7.9 -11.7 -4.8 -42.15 -5.75 Q-39.9 -22.65 -37.85 -31.8 L-22.4 -32.25" fill="url(#gradient3)" fill-rule="evenodd" stroke="none"/>
    <path d="M-5.9 7.9 L21.95 7.05 Q37.65 6.1 49.3 2.95 60.9 -0.2 66.15 -4.1 68.45 -5.75 69.5 -7.6 77.6 -2.8 84.45 3.4 68.75 9.4 62.65 22.1 54.75 37.9 48.15 45.4 L12.95 45.4 Q24.25 41.9 14.85 21.9 10.45 16.15 -5.9 7.9 M62.65 11.6 L65.15 8.6 62.65 11.6 M42.25 42.5 L46.25 42.5 46.25 39.3 42.25 39.3 42.25 35.7 46.25 35.7 42.25 35.7 42.25 39.3 46.25 39.3 46.25 42.5 42.25 42.5 M26.65 13.6 L10.85 13.6 7.55 9.4 10.85 13.6 26.65 13.6 M58.25 11.1 L62.45 6.4 58.25 11.1 M38.95 40.4 L38.95 42.6 35.45 42.6 35.45 35.6 38.95 35.6 35.45 35.6 35.45 42.6 38.95 42.6 38.95 40.4 M32.35 35.9 L30.05 35.9 30.05 42.5 30.05 35.9 27.75 35.9 30.05 35.9 32.35 35.9" fill="url(#gradient4)" fill-rule="evenodd" stroke="none"/>
    <path d="M84.45 3.4 L87.45 0.3 Q89.15 1.65 94.55 7.35 L94.55 15.6 99.05 17.0 102.8 25.1 102.8 18.15 105.2 18.85 Q110.85 26.55 115.45 35.8 L98.35 33.2 Q79.35 34.5 79.35 49.5 67.95 55.8 48.15 45.4 54.75 37.9 62.65 22.1 68.75 9.4 84.45 3.4" fill="url(#gradient5)" fill-rule="evenodd" stroke="none"/>
    <path d="M-42.15 -5.75 L-11.7 -4.8 -5.9 7.9 Q10.45 16.15 14.85 21.9 24.25 41.9 12.95 45.4 -12.55 55.1 -36.45 46.0 -40.75 29.1 -53.65 29.5 L-74.65 29.5 Q-71.75 5.9 -76.75 -8.0 L-51.95 -6.85 -42.15 -5.75 M-34.25 14.5 Q-32.95 15.8 -31.15 15.8 -29.35 15.8 -28.05 14.5 -26.75 13.2 -26.75 11.4 -26.75 9.6 -28.05 8.3 -29.35 7.0 -31.15 7.0 -32.95 7.0 -34.25 8.3 -35.55 9.6 -35.55 11.4 -35.55 13.2 -34.25 14.5 M-13.15 44.7 L-13.15 37.5 -13.15 44.7 M-8.95 42.5 L-8.95 36.8 -8.95 42.5 M-17.15 46.2 L-17.15 38.3 -17.15 46.2" fill="url(#gradient6)" fill-rule="evenodd" stroke="none"/>
    <path d="M-76.75 -8.0 Q-80.45 -23.55 -102.15 -25.15 -98.2 -30.0 -82.9 -30.9 L-77.65 -38.55 Q-70.75 -32.5 -64.65 -31.2 -64.75 -24.0 -73.85 -19.8 -73.25 -13.4 -76.75 -8.0" fill="url(#gradient7)" fill-rule="evenodd" stroke="none"/>
    <path d="M-37.85 -31.8 Q-39.9 -22.65 -42.15 -5.75 L-51.95 -6.85 -76.75 -8.0 Q-73.25 -13.4 -73.85 -19.8 -64.75 -24.0 -64.65 -31.2 L-37.85 -31.8 M-64.85 -19.6 L-67.15 -15.8 -64.85 -19.6 -62.65 -23.5 -64.85 -19.6 -60.25 -17.6 -64.85 -19.6" fill="url(#gradient8)" fill-rule="evenodd" stroke="none"/>
    <path d="M-34.25 14.5 Q-35.55 13.2 -35.55 11.4 -35.55 9.6 -34.25 8.3 -32.95 7.0 -31.15 7.0 -29.35 7.0 -28.05 8.3 -26.75 9.6 -26.75 11.4 -26.75 13.2 -28.05 14.5 -29.35 15.8 -31.15 15.8 -32.95 15.8 -34.25 14.5" fill="#000000" fill-rule="evenodd" stroke="none"/>
    <path d="M-5.9 7.9 L21.95 7.05 Q37.65 6.1 49.3 2.95 60.9 -0.2 66.15 -4.1 68.45 -5.75 69.5 -7.6 77.6 -2.8 84.45 3.4 M65.15 8.6 L62.65 11.6 M62.45 6.4 L58.25 11.1 M7.55 9.4 L10.85 13.6 26.65 13.6" fill="none" stroke="#111111" stroke-linecap="round" stroke-linejoin="round" stroke-width="2.0"/>
    <path d="M-22.4 -32.25 L-37.85 -31.8 M66.15 -4.1 Q66.7 -6.2 63.9 -7.85 M48.15 45.4 L12.95 45.4 M-76.75 -8.0 Q-80.45 -23.55 -102.15 -25.15 -98.2 -30.0 -82.9 -30.9 L-77.65 -38.55 Q-70.75 -32.5 -64.65 -31.2 M46.25 35.7 L42.25 35.7 42.25 39.3 46.25 39.3 46.25 42.5 42.25 42.5 M30.05 42.5 L30.05 35.9 27.75 35.9 M30.05 35.9 L32.35 35.9 M38.95 35.6 L35.45 35.6 35.45 42.6 38.95 42.6 38.95 40.4" fill="none" stroke="#000000" stroke-linecap="round" stroke-linejoin="round" stroke-width="2.0"/>
    <path d="M-37.85 -31.8 Q-39.9 -22.65 -42.15 -5.75 L-11.7 -4.8 -5.9 7.9 Q10.45 16.15 14.85 21.9 24.25 41.9 12.95 45.4 -12.55 55.1 -36.45 46.0 -40.75 29.1 -53.65 29.5 L-74.65 29.5 Q-71.75 5.9 -76.75 -8.0 L-51.95 -6.85 -42.15 -5.75 M84.45 3.4 L87.45 0.3 Q89.15 1.65 94.55 7.35 L94.55 15.6 99.05 17.0 102.8 25.1 102.8 18.15 105.2 18.85 Q110.85 26.55 115.45 35.8 L98.35 33.2 Q79.35 34.5 79.35 49.5 67.95 55.8 48.15 45.4 54.75 37.9 62.65 22.1 68.75 9.4 84.45 3.4 M-64.65 -31.2 L-37.85 -31.8 M-62.65 -23.5 L-64.85 -19.6 -60.25 -17.6 M-67.15 -15.8 L-64.85 -19.6 M-76.75 -8.0 Q-73.25 -13.4 -73.85 -19.8 -64.75 -24.0 -64.65 -31.2 M-34.25 14.5 Q-35.55 13.2 -35.55 11.4 -35.55 9.6 -34.25 8.3 -32.95 7.0 -31.15 7.0 -29.35 7.0 -28.05 8.3 -26.75 9.6 -26.75 11.4 -26.75 13.2 -28.05 14.5 -29.35 15.8 -31.15 15.8 -32.95 15.8 -34.25 14.5 M-17.15 38.3 L-17.15 46.2 M-8.95 36.8 L-8.95 42.5 M-13.15 37.5 L-13.15 44.7" fill="none" stroke="#151515" stroke-linecap="round" stroke-linejoin="round" stroke-width="2.0"/>
  </g>
  <defs>
    <linearGradient gradientTransform="matrix(0.0, 0.0073, -0.0204, 0.0, -80.85, -4.8)" gradientUnits="userSpaceOnUse" id="gradient0" spreadMethod="pad" x1="-819.2" x2="819.2">
      <stop offset="0.0" stop-color="#5e5e5e"/>
      <stop offset="0.33725490196078434" stop-color="#222222"/>
      <stop offset="1.0" stop-color="#515151"/>
    </linearGradient>
    <linearGradient gradientTransform="matrix(0.0, 0.0073, -0.0204, 0.0, -76.85, 11.5)" gradientUnits="userSpaceOnUse" id="gradient1" spreadMethod="pad" x1="-819.2" x2="819.2">
      <stop offset="0.0" stop-color="#5e5e5e"/>
      <stop offset="0.33725490196078434" stop-color="#222222"/>
      <stop offset="1.0" stop-color="#515151"/>
    </linearGradient>
    <linearGradient gradientTransform="matrix(0.003, 0.0066, -0.0186, 0.0083, -72.8, 33.9)" gradientUnits="userSpaceOnUse" id="gradient2" spreadMethod="pad" x1="-819.2" x2="819.2">
      <stop offset="0.0" stop-color="#5e5e5e"/>
      <stop offset="0.33725490196078434" stop-color="#222222"/>
      <stop offset="1.0" stop-color="#515151"/>
    </linearGradient>
    <radialGradient cx="0" cy="0" gradientTransform="matrix(0.0083, -0.0472, 0.0924, 0.0163, 3.6, 8.2)" gradientUnits="userSpaceOnUse" id="gradient3" r="819.2" spreadMethod="pad">
      <stop offset="0.0" stop-color="#000000" stop-opacity="0.8"/>
      <stop offset="1.0" stop-color="#000000" stop-opacity="0.5019608"/>
    </radialGradient>
    <radialGradient cx="0" cy="0" gradientTransform="matrix(0.0, 0.0739, -0.1393, 0.0, 27.8, 1.6)" gradientUnits="userSpaceOnUse" id="gradient4" r="819.2" spreadMethod="pad">
      <stop offset="0.0" stop-color="#3c3c3c"/>
      <stop offset="1.0" stop-color="#000000"/>
    </radialGradient>
    <radialGradient cx="0" cy="0" gradientTransform="matrix(0.0454, -0.0454, 0.0703, 0.0703, 45.55, -15.3)" gradientUnits="userSpaceOnUse" id="gradient5" r="819.2" spreadMethod="pad">
      <stop offset="0.0" stop-color="#555555"/>
      <stop offset="1.0" stop-color="#151515"/>
    </radialGradient>
    <radialGradient cx="0" cy="0" gradientTransform="matrix(0.1069, 0.0, 0.0, 0.1069, -6.45, -30.6)" gradientUnits="userSpaceOnUse" id="gradient6" r="819.2" spreadMethod="pad">
      <stop offset="0.0" stop-color="#555555"/>
      <stop offset="1.0" stop-color="#151515"/>
    </radialGradient>
    <radialGradient cx="0" cy="0" gradientTransform="matrix(0.0372, -0.0443, 0.105, 0.0883, -80.45, -52.9)" gradientUnits="userSpaceOnUse" id="gradient7" r="819.2" spreadMethod="pad">
      <stop offset="0.0" stop-color="#565656"/>
      <stop offset="1.0" stop-color="#000000"/>
    </radialGradient>
    <radialGradient cx="0" cy="0" gradientTransform="matrix(0.0351, -0.0351, 0.0417, 0.0417, -42.45, 3.1)" gradientUnits="userSpaceOnUse" id="gradient8" r="819.2" spreadMethod="pad">
      <stop offset="0.0" stop-color="#484848"/>
      <stop offset="0.6313725490196078" stop-color="#1a1a1a"/>
      <stop offset="1.0" stop-color="#404040"/>
    </radialGradient>
  </defs>
</svg>
