<?xml version="1.0" encoding="UTF-8" standalone="no"?>
<svg xmlns:ffdec="https://www.free-decompiler.com/flash" xmlns:xlink="http://www.w3.org/1999/xlink" ffdec:objectType="shape" height="12.95px" width="17.05px" xmlns="http://www.w3.org/2000/svg">
  <g transform="matrix(1.0, 0.0, 0.0, 1.0, -1.9, 5.65)">
    <path d="M7.85 -4.5 Q7.55 -2.6 7.55 -1.05 7.55 1.05 8.2 2.5 10.3 4.4 13.95 5.0 L12.75 5.3 8.15 5.45 8.15 6.15 6.35 6.15 6.4 5.5 3.1 4.3 3.05 2.35 3.6 1.4 3.65 -3.35 Q4.1 -3.9 7.85 -4.5" fill="#070707" fill-rule="evenodd" stroke="none"/>
    <path d="M8.85 -3.1 L10.5 -1.85 8.85 -3.1 M9.25 -1.9 L10.5 -0.7 9.25 -1.9 M7.85 -4.5 Q7.3 -6.2 10.7 -3.6 L10.5 -1.85 10.5 -0.7 10.6 0.25 10.7 0.9 12.65 1.05 13.7 0.4 Q15.75 0.6 17.55 1.65 L17.5 3.2 16.0 3.25 15.15 4.75 13.95 5.0 Q10.3 4.4 8.2 2.5 7.55 1.05 7.55 -1.05 7.55 -2.6 7.85 -4.5 L8.95 0.7 10.7 1.6 8.95 0.7 7.85 -4.5 M11.2 1.6 L12.65 1.05 11.2 1.6 M9.55 -0.6 L10.6 0.25 9.55 -0.6" fill="#121212" fill-rule="evenodd" stroke="none"/>
    <path d="M3.1 4.3 L6.4 5.5 6.35 6.15 6.35 6.55 Q5.4 6.25 2.4 6.55 L2.45 4.35 3.1 4.3 M8.15 6.15 L8.15 5.45 12.75 5.3 13.95 5.0 15.15 4.75 16.0 3.25 17.5 3.2 18.45 4.6 18.1 5.8 17.5 6.8 Q16.45 6.35 15.15 6.8 L12.75 6.75 Q10.5 6.3 8.15 6.7 L8.15 6.15 M18.1 5.8 L17.05 5.2 18.1 5.8 M15.15 6.8 L15.15 4.75 15.15 6.8 M12.75 5.3 L12.75 6.75 12.75 5.3" fill="#0e0e0e" fill-rule="evenodd" stroke="none"/>
    <path d="M17.05 5.2 L18.1 5.8" fill="none" stroke="#151515" stroke-linecap="round" stroke-linejoin="round" stroke-width="1.0"/>
    <path d="M10.5 -1.85 L10.7 -3.6 Q7.3 -6.2 7.85 -4.5 L8.95 0.7 10.7 1.6 M10.5 -0.7 L10.5 -1.85 M7.85 -4.5 Q4.1 -3.9 3.65 -3.35 L3.6 1.4 3.05 2.35 3.1 4.3 6.4 5.5 6.35 6.15 8.15 6.15 8.15 5.45 12.75 5.3 13.95 5.0 15.15 4.75 16.0 3.25 17.5 3.2 17.55 1.65 Q15.75 0.6 13.7 0.4 L12.65 1.05 11.2 1.6 M18.1 5.8 L18.45 4.6 17.5 3.2 M12.65 1.05 L10.7 0.9 10.6 0.25 10.5 -0.7 M18.1 5.8 L17.5 6.8 Q16.45 6.35 15.15 6.8 L12.75 6.75 Q10.5 6.3 8.15 6.7 L8.15 6.15 M12.75 6.75 L12.75 5.3 M15.15 4.75 L15.15 6.8 M3.1 4.3 L2.45 4.35 2.4 6.55 Q5.4 6.25 6.35 6.55 L6.35 6.15" fill="none" stroke="#020202" stroke-linecap="round" stroke-linejoin="round" stroke-width="1.0"/>
    <path d="M10.5 -0.7 L9.25 -1.9 M10.5 -1.85 L8.85 -3.1 M10.6 0.25 L9.55 -0.6" fill="none" stroke="#3a3a3a" stroke-linecap="round" stroke-linejoin="round" stroke-width="1.0"/>
  </g>
</svg>
