<?xml version="1.0" encoding="UTF-8" standalone="no"?>
<svg xmlns:ffdec="https://www.free-decompiler.com/flash" xmlns:xlink="http://www.w3.org/1999/xlink" ffdec:objectType="shape" height="12.95px" width="17.05px" xmlns="http://www.w3.org/2000/svg">
  <g transform="matrix(1.0, 0.0, 0.0, 1.0, 0.5, 0.5)">
    <path d="M13.25 9.15 L13.65 8.4 15.15 8.4 16.05 9.8 15.75 11.0 15.15 11.95 Q14.05 11.55 12.8 11.95 11.7 11.65 10.4 11.95 L5.75 11.85 5.75 11.3 3.95 11.3 3.95 11.7 Q2.95 11.4 0.0 11.7 L0.0 9.5 0.65 9.5 0.65 8.5 Q4.4 10.6 13.25 9.15 L12.8 9.9 12.8 11.95 12.8 9.9 13.25 9.15 M12.8 9.9 L10.4 10.5 10.4 11.95 10.4 10.5 5.75 10.6 5.75 11.3 5.75 10.6 10.4 10.5 12.8 9.9 M15.75 11.0 L14.65 10.35 15.75 11.0 M0.65 9.5 L3.95 10.65 3.95 11.3 3.95 10.65 0.65 9.5" fill="#4a4a4a" fill-rule="evenodd" stroke="none"/>
    <path d="M10.3 6.2 Q10.85 5.9 11.35 5.55 13.4 5.75 15.15 6.85 L15.15 8.4 13.65 8.4 13.25 9.15 Q4.4 10.6 0.65 8.5 L0.65 7.55 1.2 6.55 1.2 1.8 Q1.7 1.25 5.45 0.65 4.9 -1.0 8.35 1.55 L8.15 3.3 8.15 4.45 8.25 5.4 8.35 6.0 10.3 6.2 8.85 6.8 10.3 6.2 M7.2 4.55 L8.25 5.4 7.2 4.55 M6.9 3.25 L8.15 4.45 6.9 3.25 M8.35 6.75 L6.6 5.8 5.45 0.65 6.6 5.8 8.35 6.75 M6.5 2.05 L8.15 3.3 6.5 2.05" fill="#1c1c1c" fill-rule="evenodd" stroke="none"/>
    <path d="M15.15 8.4 L15.15 6.85 Q13.4 5.75 11.35 5.55 10.85 5.9 10.3 6.2 L8.85 6.8 M13.25 9.15 L13.65 8.4 15.15 8.4 16.05 9.8 15.75 11.0 15.15 11.95 Q14.05 11.55 12.8 11.95 11.7 11.65 10.4 11.95 L5.75 11.85 5.75 11.3 3.95 11.3 3.95 11.7 Q2.95 11.4 0.0 11.7 L0.0 9.5 0.65 9.5 0.65 8.5 0.65 7.55 1.2 6.55 1.2 1.8 Q1.7 1.25 5.45 0.65 4.9 -1.0 8.35 1.55 L8.15 3.3 8.15 4.45 8.25 5.4 8.35 6.0 10.3 6.2 M10.4 11.95 L10.4 10.5 5.75 10.6 5.75 11.3 M13.25 9.15 L12.8 9.9 12.8 11.95 M10.4 10.5 L12.8 9.9 M5.45 0.65 L6.6 5.8 8.35 6.75 M3.95 11.3 L3.95 10.65 0.65 9.5" fill="none" stroke="#070707" stroke-linecap="round" stroke-linejoin="round" stroke-width="1.0"/>
    <path d="M14.65 10.35 L15.75 11.0" fill="none" stroke="#151515" stroke-linecap="round" stroke-linejoin="round" stroke-width="1.0"/>
    <path d="M8.15 4.45 L6.9 3.25 M8.25 5.4 L7.2 4.55 M8.15 3.3 L6.5 2.05" fill="none" stroke="#4f4f4f" stroke-linecap="round" stroke-linejoin="round" stroke-width="1.0"/>
  </g>
</svg>
