<?xml version="1.0" encoding="UTF-8" standalone="no"?>
<svg xmlns:ffdec="https://www.free-decompiler.com/flash" xmlns:xlink="http://www.w3.org/1999/xlink" ffdec:objectType="shape" height="19.55px" width="19.35px" xmlns="http://www.w3.org/2000/svg">
  <g transform="matrix(1.0, 0.0, 0.0, 1.0, 7.0, 17.95)">
    <path d="M-2.4 -1.2 L3.5 0.0 3.4 1.1 -2.4 0.75 -2.4 -1.2" fill="#212121" fill-rule="evenodd" stroke="none"/>
    <path d="M-2.4 -1.2 L-2.4 0.75 3.4 1.1 3.5 0.0" fill="none" stroke="#131313" stroke-linecap="round" stroke-linejoin="round" stroke-width="1.05"/>
    <path d="M7.0 -13.55 Q8.15 -12.5 8.3 -11.1 L8.6 -8.45 9.45 -7.1 Q10.1 -6.15 10.05 -5.65 L9.5 -4.85 8.9 -4.2 8.45 -1.85 Q8.3 -0.85 7.65 -0.6 L3.35 -0.45 -1.75 -1.35 Q-2.8 -1.6 -3.55 -2.95 -4.3 -4.3 -4.5 -6.35 -4.7 -8.6 -4.3 -10.35 -3.8 -12.45 -2.5 -13.45 -0.1 -15.3 2.55 -15.25 5.15 -15.25 7.0 -13.55" fill="#a87965" fill-rule="evenodd" stroke="none"/>
    <path d="M7.0 -13.55 Q5.15 -15.25 2.55 -15.25 -0.1 -15.3 -2.5 -13.45 -3.8 -12.45 -4.3 -10.35 -4.7 -8.6 -4.5 -6.35 -4.3 -4.3 -3.55 -2.95 -2.8 -1.6 -1.75 -1.35 L3.35 -0.45 7.65 -0.6 Q8.3 -0.85 8.45 -1.85 L8.9 -4.2 9.5 -4.85 10.05 -5.65 Q10.1 -6.15 9.45 -7.1 L8.6 -8.45 8.3 -11.1 Q8.15 -12.5 7.0 -13.55 Z" fill="none" stroke="#755242" stroke-linecap="round" stroke-linejoin="round" stroke-width="1.05"/>
    <path d="M8.6 -3.15 L7.15 -3.15" fill="none" stroke="#6f4434" stroke-linecap="round" stroke-linejoin="miter-clip" stroke-miterlimit="4.0" stroke-width="1.05"/>
    <path d="M-1.4 -7.2 Q-1.65 -6.0 -1.05 -4.95 L-0.05 -3.95" fill="none" stroke="#926450" stroke-linecap="round" stroke-linejoin="miter-clip" stroke-miterlimit="4.0" stroke-width="1.05"/>
    <path d="M9.2 -12.55 L8.9 -11.8 Q8.5 -11.2 7.65 -11.2 L6.05 -11.4 4.55 -11.35 Q3.95 -11.35 2.65 -10.75 L1.15 -9.95 0.85 -8.8 Q0.75 -7.85 0.3 -7.8 -0.05 -7.7 -0.65 -8.05 L-1.65 -8.45 Q-2.55 -8.45 -2.8 -7.3 -3.0 -6.25 -2.85 -5.1 L-3.6 -4.95 Q-4.4 -4.95 -4.9 -5.45 -5.35 -6.3 -5.3 -7.4 L-5.2 -9.2 -4.8 -11.0 -4.3 -12.4 -3.55 -13.6 Q-2.6 -15.1 -0.9 -15.35 L0.7 -15.7 2.3 -15.9 4.5 -15.85 Q5.45 -15.75 6.1 -15.35 L7.75 -14.25 8.65 -13.3 9.2 -12.55" fill="#27180e" fill-rule="evenodd" stroke="none"/>
    <path d="M9.2 -12.55 L8.65 -13.3 7.75 -14.25 6.1 -15.35 Q5.45 -15.75 4.5 -15.85 L2.3 -15.9 0.7 -15.7 -0.9 -15.35 Q-2.6 -15.1 -3.55 -13.6 L-4.3 -12.4 -4.8 -11.0 -5.2 -9.2 -5.3 -7.4 Q-5.35 -6.3 -4.9 -5.45 -4.4 -4.95 -3.6 -4.95 L-2.85 -5.1 Q-3.0 -6.25 -2.8 -7.3 -2.55 -8.45 -1.65 -8.45 L-0.65 -8.05 Q-0.05 -7.7 0.3 -7.8 0.75 -7.85 0.85 -8.8 L1.15 -9.95 2.65 -10.75 Q3.95 -11.35 4.55 -11.35 L6.05 -11.4 7.65 -11.2 Q8.5 -11.2 8.9 -11.8 L9.2 -12.55 Z" fill="none" stroke="#27180e" stroke-linecap="round" stroke-linejoin="round" stroke-opacity="0.7019608" stroke-width="1.05"/>
    <path d="M0.6 -13.7 L4.7 -13.9 6.6 -13.3" fill="none" stroke="#180f08" stroke-linecap="round" stroke-linejoin="round" stroke-width="1.05"/>
    <path d="M-1.0 -11.55 L-1.7 -10.45 Q-2.6 -9.25 -3.7 -8.95" fill="none" stroke="#180f08" stroke-linecap="round" stroke-linejoin="round" stroke-width="1.05"/>
    <path d="M2.15 -9.45 Q1.85 -7.85 2.35 -5.1 L2.95 -2.75 Q3.0 -2.25 2.05 -1.25 L1.15 -0.35 -1.15 -0.7 Q-3.55 -1.2 -4.35 -1.9 L-5.0 -3.4 Q-5.7 -5.25 -5.75 -6.95 L2.15 -9.45" fill="#323232" fill-rule="evenodd" stroke="none"/>
    <path d="M-5.75 -6.95 Q-5.7 -5.25 -5.0 -3.4 L-4.35 -1.9 Q-3.55 -1.2 -1.15 -0.7 L1.15 -0.35 2.05 -1.25 Q3.0 -2.25 2.95 -2.75 L2.35 -5.1 Q1.85 -7.85 2.15 -9.45" fill="none" stroke="#1a1a1a" stroke-linecap="round" stroke-linejoin="round" stroke-width="1.05"/>
    <path d="M10.7 -12.35 L11.05 -10.4 7.4 -10.6 2.75 -10.45 1.55 -8.45 -0.8 -6.65 -2.95 -6.5 Q-5.35 -6.5 -6.5 -7.4 L-6.45 -10.7 Q-5.85 -13.35 -4.15 -15.35 -2.85 -16.85 -1.95 -17.05 L5.75 -16.75 Q7.65 -16.15 8.8 -15.35 10.05 -14.5 10.7 -12.35" fill="#444444" fill-rule="evenodd" stroke="none"/>
    <path d="M10.7 -12.35 L11.05 -10.4 7.4 -10.6 2.75 -10.45 1.55 -8.45 -0.8 -6.65 -2.95 -6.5 Q-5.35 -6.5 -6.5 -7.4 L-6.45 -10.7 Q-5.85 -13.35 -4.15 -15.35 -2.85 -16.85 -1.95 -17.05 L5.75 -16.75 Q7.65 -16.15 8.8 -15.35 10.05 -14.5 10.7 -12.35 Z" fill="none" stroke="#1a1a1a" stroke-linecap="round" stroke-linejoin="round" stroke-width="1.05"/>
    <path d="M6.45 -8.0 L5.1 -8.05" fill="none" stroke="#755242" stroke-linecap="round" stroke-linejoin="round" stroke-width="1.55"/>
    <path d="M11.5 -7.05 L11.0 -5.3 Q9.35 -5.2 7.45 -5.25 3.65 -5.25 2.25 -5.85 2.1 -6.6 2.1 -7.6 2.1 -9.55 2.75 -10.45 L5.95 -10.6 11.4 -10.35 Q11.9 -9.05 11.5 -7.05" fill="#c28b28" fill-opacity="0.58431375" fill-rule="evenodd" stroke="none"/>
    <path d="M11.5 -7.05 L11.0 -5.3 Q9.35 -5.2 7.45 -5.25 3.65 -5.25 2.25 -5.85 2.1 -6.6 2.1 -7.6 2.1 -9.55 2.75 -10.45 L5.95 -10.6 11.4 -10.35 Q11.9 -9.05 11.5 -7.05 Z" fill="none" stroke="#5d4213" stroke-linecap="round" stroke-linejoin="round" stroke-opacity="0.7019608" stroke-width="1.05"/>
    <path d="M-4.3 -8.8 L-3.9 -10.3" fill="none" stroke="#131313" stroke-linecap="round" stroke-linejoin="round" stroke-width="1.05"/>
    <path d="M-2.4 -8.85 L-2.0 -10.4" fill="none" stroke="#131313" stroke-linecap="round" stroke-linejoin="round" stroke-width="1.05"/>
    <path d="M11.7 -6.95 L11.85 -6.35 11.65 -4.75 Q11.25 -2.95 10.5 -2.0 L9.65 -0.95 Q8.6 0.15 7.75 0.3 L6.6 0.5 4.55 0.25 3.9 -0.75 Q3.25 -1.9 3.3 -3.05 3.8 -4.2 4.25 -4.45 L5.95 -4.65 Q6.85 -4.65 8.5 -6.35 10.05 -7.95 10.6 -7.8 L11.7 -6.95" fill="#292825" fill-rule="evenodd" stroke="none"/>
    <path d="M11.7 -6.95 L10.6 -7.8 Q10.05 -7.95 8.5 -6.35 6.85 -4.65 5.95 -4.65 L4.25 -4.45 Q3.8 -4.2 3.3 -3.05 3.25 -1.9 3.9 -0.75 L4.55 0.25 6.6 0.5 7.75 0.3 Q8.6 0.15 9.65 -0.95 L10.5 -2.0 Q11.25 -2.95 11.65 -4.75 L11.85 -6.35 11.7 -6.95 Z" fill="none" stroke="#0f0e0c" stroke-linecap="round" stroke-linejoin="round" stroke-width="1.05"/>
    <path d="M10.55 -3.25 Q11.25 -2.9 11.3 -2.3 11.3 -1.55 10.8 -0.8 10.25 0.0 9.6 0.0 8.9 0.05 8.3 -0.55 7.65 -1.1 7.6 -1.8 7.6 -2.5 8.05 -3.0 8.5 -3.5 9.15 -3.5 L10.55 -3.25" fill="#363531" fill-rule="evenodd" stroke="none"/>
    <path d="M10.55 -3.25 Q11.25 -2.9 11.3 -2.3 11.3 -1.55 10.8 -0.8 10.25 0.0 9.6 0.0 8.9 0.05 8.3 -0.55 7.65 -1.1 7.6 -1.8 7.6 -2.5 8.05 -3.0 8.5 -3.5 9.15 -3.5 L10.55 -3.25 Z" fill="none" stroke="#0a0908" stroke-linecap="round" stroke-linejoin="round" stroke-width="1.05"/>
    <path d="M5.05 -3.85 L4.95 -0.75 Q4.0 -1.7 0.35 -2.3 -3.8 -2.95 -5.55 -3.85 -5.95 -4.25 -6.05 -5.45 L-1.5 -4.25 5.05 -3.85" fill="#292825" fill-rule="evenodd" stroke="none"/>
    <path d="M4.95 -0.75 Q4.0 -1.7 0.35 -2.3 -3.8 -2.95 -5.55 -3.85 -5.95 -4.25 -6.05 -5.45 L-1.5 -4.25 5.05 -3.85" fill="none" stroke="#0b0a09" stroke-linecap="round" stroke-linejoin="round" stroke-width="1.05"/>
    <path d="M5.05 -3.85 Q4.5 -2.9 4.65 -1.75 L4.95 -0.75" fill="none" stroke="#181716" stroke-linecap="round" stroke-linejoin="round" stroke-width="1.05"/>
  </g>
</svg>
