<?xml version="1.0" encoding="UTF-8" standalone="no"?>
<svg xmlns:ffdec="https://www.free-decompiler.com/flash" xmlns:xlink="http://www.w3.org/1999/xlink" ffdec:objectType="shape" height="19.1px" width="8.6px" xmlns="http://www.w3.org/2000/svg">
  <g transform="matrix(1.0, 0.0, 0.0, 1.0, 5.05, 5.55)">
    <path d="M0.2 -4.9 Q1.9 -4.5 2.45 -3.8 L3.05 -2.6 2.95 0.1 2.6 5.15 Q2.45 8.05 2.8 10.4 3.15 12.7 1.1 13.0 -1.05 13.35 -0.55 11.15 L-1.3 9.0 Q-1.55 8.25 -2.9 6.1 L-3.65 4.05 -4.05 2.55 Q-5.3 -4.05 -3.4 -4.65 L0.2 -4.9" fill="#1e1e1e" fill-rule="evenodd" stroke="none"/>
    <path d="M0.2 -4.9 L-3.4 -4.65 Q-5.3 -4.05 -4.05 2.55 L-3.65 4.05 -2.9 6.1 Q-1.55 8.25 -1.3 9.0 L-0.55 11.15 Q-1.05 13.35 1.1 13.0 3.15 12.7 2.8 10.4 2.45 8.05 2.6 5.15 L2.95 0.1 3.05 -2.6 2.45 -3.8 Q1.9 -4.5 0.2 -4.9 Z" fill="none" stroke="#111111" stroke-linecap="round" stroke-linejoin="round" stroke-width="1.0"/>
  </g>
</svg>
