<?xml version="1.0" encoding="UTF-8" standalone="no"?>
<svg xmlns:ffdec="https://www.free-decompiler.com/flash" xmlns:xlink="http://www.w3.org/1999/xlink" ffdec:objectType="shape" height="20.9px" width="14.3px" xmlns="http://www.w3.org/2000/svg">
  <g transform="matrix(1.0, 0.0, 0.0, 1.0, 7.3, 2.95)">
    <path d="M-5.9 6.4 Q-7.85 3.2 -6.7 0.55 1.6 -5.55 6.1 1.35 6.45 7.8 4.1 10.1 2.1 12.1 -1.1 10.75 -4.1 9.4 -5.9 6.4" fill="#131d26" fill-rule="evenodd" stroke="none"/>
    <path d="M5.3 10.3 L-2.75 11.85 -2.75 11.8 Q-4.2 11.15 -3.55 9.5 -5.65 6.6 -4.1 5.4 -1.85 4.45 -1.35 3.55 -0.35 3.95 1.2 5.55 L3.65 8.35 4.35 8.5 5.1 8.55 Q5.55 8.8 5.55 9.2 L5.3 10.3 M-0.5 16.5 L-2.0 15.0 Q-0.9 14.45 5.6 13.85 L3.25 16.55 Q2.15 17.6 1.3 17.45 0.55 17.4 -0.5 16.5" fill="#0f1213" fill-rule="evenodd" stroke="none"/>
    <path d="M-2.25 14.8 L-1.75 11.1 2.1 11.35 6.15 10.2 Q6.7 11.8 6.25 13.25 1.55 15.3 -2.25 14.8" fill="#161e26" fill-rule="evenodd" stroke="none"/>
    <path d="M0.35 -2.45 L2.7 -1.9 Q4.15 -1.3 5.4 0.95 6.35 2.35 6.45 3.35 L6.15 7.15 5.25 7.9 Q5.5 8.35 5.4 9.4 L5.35 10.3 6.35 10.1 6.5 10.8 6.35 13.4 5.4 13.8 Q4.85 15.65 3.55 16.7 2.35 17.6 1.3 17.45 -0.35 17.3 -1.25 15.95 L-2.4 14.35 Q-2.8 12.2 -3.75 9.9 L-5.0 5.9 -5.85 5.95 Q-6.15 4.65 -6.8 3.0 -6.85 1.05 -5.65 -0.1 -4.0 -1.65 0.1 -2.45" fill="none" stroke="#070a0a" stroke-linecap="round" stroke-linejoin="round" stroke-width="1.0"/>
    <path d="M5.65 13.6 Q4.9 13.65 2.7 14.35 L-0.9 14.85 M-1.2 14.8 L-2.45 14.2 -1.85 11.0 1.3 11.6 5.65 10.4" fill="none" stroke="#0a0e0f" stroke-linecap="round" stroke-linejoin="round" stroke-width="1.0"/>
    <path d="M-5.05 5.85 L-3.15 4.7 Q-1.4 3.5 -1.25 3.7 L-0.15 4.4 Q0.9 4.85 1.0 5.0 L3.6 2.1 5.2 1.45 M1.0 5.0 L3.05 8.65 5.25 7.85" fill="none" stroke="#0a0e0f" stroke-linecap="round" stroke-linejoin="round" stroke-width="1.0"/>
  </g>
</svg>
