<?xml version="1.0" encoding="UTF-8" standalone="no"?>
<svg xmlns:ffdec="https://www.free-decompiler.com/flash" xmlns:xlink="http://www.w3.org/1999/xlink" ffdec:objectType="shape" height="9.95px" width="17.75px" xmlns="http://www.w3.org/2000/svg">
  <g transform="matrix(1.0, 0.0, 0.0, 1.0, -0.3, 0.5)">
    <path d="M12.1 3.3 L12.05 3.5 Q11.9 5.5 9.45 6.65 L10.7 8.0 7.3 7.3 7.4 6.6 7.5 5.6 10.6 2.7 12.1 3.3" fill="url(#gradient0)" fill-rule="evenodd" stroke="none"/>
    <path d="M2.8 1.65 L4.5 1.9 Q5.75 2.55 5.65 3.35 L5.45 4.3 6.05 5.3 5.7 6.3 5.35 7.05 1.95 6.5 Q1.0 6.45 0.8 4.8 L1.7 1.5 2.8 1.65" fill="url(#gradient1)" fill-rule="evenodd" stroke="none"/>
    <path d="M10.6 2.7 L7.5 5.6 7.4 6.6 5.7 6.3 6.05 5.3 5.45 4.3 5.65 3.35 Q5.75 2.55 4.5 1.9 L2.8 1.65 3.0 1.3 5.0 0.0 Q6.45 1.4 7.9 1.3 L10.25 2.7 10.6 2.7" fill="url(#gradient2)" fill-rule="evenodd" stroke="none"/>
    <path d="M10.7 8.0 L9.45 6.65 Q11.9 5.5 12.05 3.5 L12.1 3.3 12.15 2.5 Q16.65 3.0 17.25 4.85 17.85 6.7 17.25 7.5 L15.75 8.95 10.8 8.1 10.7 8.0" fill="url(#gradient3)" fill-rule="evenodd" stroke="none"/>
    <path d="M12.1 3.3 L12.05 3.5 Q11.9 5.5 9.45 6.65 L10.7 8.0 10.8 8.1 15.75 8.95 17.25 7.5 Q17.85 6.7 17.25 4.85 16.65 3.0 12.15 2.5 L12.1 3.3 10.6 2.7 7.5 5.6 7.4 6.6 7.3 7.3 10.7 8.0 M2.8 1.65 L3.0 1.3 5.0 0.0 Q6.45 1.4 7.9 1.3 L10.25 2.7 10.6 2.7 M2.8 1.65 L4.5 1.9 Q5.75 2.55 5.65 3.35 L5.45 4.3 6.05 5.3 5.7 6.3 7.4 6.6 M5.7 6.3 L5.35 7.05 1.95 6.5 Q1.0 6.45 0.8 4.8 L1.7 1.5 2.8 1.65" fill="none" stroke="#020202" stroke-linecap="round" stroke-linejoin="round" stroke-width="1.0"/>
  </g>
  <defs>
    <radialGradient cx="0" cy="0" fx="192.0" fy="0" gradientTransform="matrix(0.0135, 0.0, 0.0, 0.0135, 13.15, 0.7)" gradientUnits="userSpaceOnUse" id="gradient0" r="819.2" spreadMethod="pad">
      <stop offset="0.0" stop-color="#2e2e2e"/>
      <stop offset="1.0" stop-color="#020202"/>
      <stop offset="1.0" stop-color="#0e0d0d"/>
    </radialGradient>
    <radialGradient cx="0" cy="0" fx="192.0" fy="0" gradientTransform="matrix(0.0129, 0.0, 0.0, 0.0129, 8.5, -0.15)" gradientUnits="userSpaceOnUse" id="gradient1" r="819.2" spreadMethod="pad">
      <stop offset="0.0" stop-color="#2e2e2e"/>
      <stop offset="1.0" stop-color="#020202"/>
      <stop offset="1.0" stop-color="#0e0d0d"/>
    </radialGradient>
    <radialGradient cx="0" cy="0" fx="192.0" fy="0" gradientTransform="matrix(0.0147, 0.0, 0.0, 0.0147, 10.1, -3.05)" gradientUnits="userSpaceOnUse" id="gradient2" r="819.2" spreadMethod="pad">
      <stop offset="0.0" stop-color="#2e2e2e"/>
      <stop offset="1.0" stop-color="#020202"/>
      <stop offset="1.0" stop-color="#0e0d0d"/>
    </radialGradient>
    <radialGradient cx="0" cy="0" fx="192.0" fy="0" gradientTransform="matrix(0.0149, 0.0, 0.0, 0.0149, 20.8, 0.85)" gradientUnits="userSpaceOnUse" id="gradient3" r="819.2" spreadMethod="pad">
      <stop offset="0.0" stop-color="#2e2e2e"/>
      <stop offset="1.0" stop-color="#020202"/>
      <stop offset="1.0" stop-color="#0e0d0d"/>
    </radialGradient>
  </defs>
</svg>
