<?xml version="1.0" encoding="UTF-8" standalone="no"?>
<svg xmlns:ffdec="https://www.free-decompiler.com/flash" xmlns:xlink="http://www.w3.org/1999/xlink" ffdec:objectType="shape" height="11.75px" width="16.45px" xmlns="http://www.w3.org/2000/svg">
  <g transform="matrix(1.0, 0.0, 0.0, 1.0, 0.5, -0.35)">
    <path d="M15.1 10.15 L14.5 11.6 8.4 11.6 7.75 10.5 5.5 10.5 4.65 11.15 0.0 10.5 0.0 8.9 3.55 9.45 4.5 9.6 5.6 8.9 6.15 8.9 8.45 8.9 9.5 10.15 15.1 10.15" fill="#1e1e1e" fill-rule="evenodd" stroke="none"/>
    <path d="M0.0 5.4 L0.05 3.95 0.75 0.85 7.2 1.35 7.2 3.35 9.3 4.5 9.35 4.55 10.55 5.55 7.0 7.1 6.15 8.9 5.6 8.9 4.5 9.6 3.55 9.45 2.35 7.35 0.0 5.4" fill="#191919" fill-rule="evenodd" stroke="none"/>
    <path d="M0.0 8.9 L0.0 5.4 2.35 7.35 3.55 9.45 0.0 8.9" fill="url(#gradient0)" fill-rule="evenodd" stroke="none"/>
    <path d="M10.55 5.55 Q11.75 5.45 14.0 6.45 16.2 7.4 15.1 10.15 L9.5 10.15 8.45 8.9 6.15 8.9 7.0 7.1 10.55 5.55" fill="url(#gradient1)" fill-rule="evenodd" stroke="none"/>
    <path d="M0.0 5.4 L0.05 3.95 0.75 0.85 7.2 1.35 7.2 3.35 9.3 4.5 9.35 4.55 10.55 5.55 M6.15 8.9 L5.6 8.9" fill="none" stroke="#131313" stroke-linecap="round" stroke-linejoin="round" stroke-width="1.0"/>
    <path d="M15.1 10.15 L14.5 11.6 8.4 11.6 7.75 10.5 5.5 10.5 4.65 11.15 0.0 10.5 0.0 8.9 M5.6 8.9 L4.5 9.6 3.55 9.45" fill="none" stroke="#121212" stroke-linecap="round" stroke-linejoin="round" stroke-width="1.0"/>
    <path d="M0.0 8.9 L0.0 5.4 2.35 7.35 3.55 9.45 0.0 8.9 M10.55 5.55 Q11.75 5.45 14.0 6.45 16.2 7.4 15.1 10.15 L9.5 10.15 8.45 8.9 6.15 8.9 7.0 7.1 10.55 5.55 Z" fill="none" stroke="#0f0f0f" stroke-linecap="round" stroke-linejoin="round" stroke-width="1.0"/>
  </g>
  <defs>
    <radialGradient cx="0" cy="0" gradientTransform="matrix(0.0054, 0.0, 0.0, 0.0054, -0.7, 8.3)" gradientUnits="userSpaceOnUse" id="gradient0" r="819.2" spreadMethod="pad">
      <stop offset="0.0" stop-color="#756d5f"/>
      <stop offset="1.0" stop-color="#1f1f1f"/>
      <stop offset="1.0" stop-color="#333333"/>
      <stop offset="1.0" stop-color="#333333"/>
      <stop offset="1.0" stop-color="#202121"/>
      <stop offset="1.0" stop-color="#202121"/>
    </radialGradient>
    <radialGradient cx="0" cy="0" gradientTransform="matrix(0.0121, 0.0, 0.0, 0.0121, 15.8, 6.7)" gradientUnits="userSpaceOnUse" id="gradient1" r="819.2" spreadMethod="pad">
      <stop offset="0.0" stop-color="#756d5f"/>
      <stop offset="1.0" stop-color="#1f1f1f"/>
      <stop offset="1.0" stop-color="#333333"/>
      <stop offset="1.0" stop-color="#333333"/>
      <stop offset="1.0" stop-color="#202121"/>
      <stop offset="1.0" stop-color="#202121"/>
    </radialGradient>
  </defs>
</svg>
