<?xml version="1.0" encoding="UTF-8" standalone="no"?>
<svg xmlns:xlink="http://www.w3.org/1999/xlink" height="150.0px" width="542.9px" xmlns="http://www.w3.org/2000/svg">
  <g transform="matrix(1.0, 0.0, 0.0, 1.0, 329.05, 374.1)">
    <path d="M-57.65 -326.65 Q-46.2 -338.1 -30.1 -338.1 -13.9 -338.1 -2.45 -326.65 8.9 -315.2 8.9 -299.1 8.9 -283.0 -2.45 -271.55 -13.9 -260.1 -30.1 -260.1 -46.2 -260.1 -57.65 -271.55 -69.1 -283.0 -69.1 -299.1 -69.1 -315.2 -57.65 -326.65" fill="url(#gradient0)" fill-rule="evenodd" stroke="none"/>
    <path d="M-179.05 -299.1 Q-179.05 -268.05 -201.05 -246.1 -223.0 -224.1 -254.05 -224.1 -285.1 -224.1 -307.1 -246.1 -329.05 -268.05 -329.05 -299.1 -329.05 -330.15 -307.1 -352.15 -285.1 -374.1 -254.05 -374.1 -223.0 -374.1 -201.05 -352.15 -179.05 -330.15 -179.05 -299.1" fill="url(#gradient1)" fill-rule="evenodd" stroke="none"/>
    <path d="M-87.1 -299.1 Q-87.1 -292.5 -91.75 -287.8 -96.45 -283.1 -103.1 -283.1 -109.7 -283.1 -114.4 -287.8 -119.1 -292.5 -119.1 -299.1 -119.1 -305.7 -114.4 -310.4 -109.7 -315.1 -103.1 -315.1 -96.45 -315.1 -91.75 -310.4 -87.1 -305.7 -87.1 -299.1" fill="url(#gradient2)" fill-rule="evenodd" stroke="none"/>
    <path d="M198.5 -305.45 Q201.15 -308.1 204.85 -308.1 208.6 -308.1 211.25 -305.45 213.85 -302.8 213.85 -299.1 213.85 -295.4 211.25 -292.75 208.6 -290.1 204.85 -290.1 201.15 -290.1 198.5 -292.75 195.85 -295.4 195.85 -299.1 195.85 -302.8 198.5 -305.45" fill="url(#gradient3)" fill-rule="evenodd" stroke="none"/>
    <path d="M80.9 -299.1 Q80.9 -296.6 79.15 -294.85 77.4 -293.1 74.9 -293.1 72.45 -293.1 70.65 -294.85 68.9 -296.6 68.9 -299.1 68.9 -301.55 70.65 -303.35 72.45 -305.1 74.9 -305.1 77.4 -305.1 79.15 -303.35 80.9 -301.55 80.9 -299.1" fill="url(#gradient4)" fill-rule="evenodd" stroke="none"/>
  </g>
  <defs>
    <radialGradient cx="0" cy="0" gradientTransform="matrix(0.0479, 0.0, 0.0, 0.0479, -30.1, -299.1)" gradientUnits="userSpaceOnUse" id="gradient0" r="819.2" spreadMethod="pad">
      <stop offset="0.0" stop-color="#119f9a" stop-opacity="0.011764706"/>
      <stop offset="0.9294117647058824" stop-color="#2efcfb" stop-opacity="0.023529412"/>
      <stop offset="1.0" stop-color="#009999" stop-opacity="0.0"/>
    </radialGradient>
    <radialGradient cx="0" cy="0" gradientTransform="matrix(0.0922, 0.0, 0.0, 0.0922, -254.05, -299.1)" gradientUnits="userSpaceOnUse" id="gradient1" r="819.2" spreadMethod="pad">
      <stop offset="0.0" stop-color="#bbebff"/>
      <stop offset="0.13333333333333333" stop-color="#77d7ff" stop-opacity="0.7529412"/>
      <stop offset="0.3607843137254902" stop-color="#33aeff" stop-opacity="0.5019608"/>
      <stop offset="0.5725490196078431" stop-color="#2b95ff" stop-opacity="0.2509804"/>
      <stop offset="0.8941176470588236" stop-color="#2d2dfd" stop-opacity="0.0"/>
      <stop offset="0.9294117647058824" stop-color="#d20202" stop-opacity="0.0"/>
      <stop offset="0.9568627450980393" stop-color="#fe6767" stop-opacity="0.050980393"/>
      <stop offset="1.0" stop-color="#ff0000" stop-opacity="0.0"/>
    </radialGradient>
    <radialGradient cx="0" cy="0" gradientTransform="matrix(0.0197, 0.0, 0.0, 0.0197, -103.1, -299.1)" gradientUnits="userSpaceOnUse" id="gradient2" r="819.2" spreadMethod="pad">
      <stop offset="0.0" stop-color="#fefe67" stop-opacity="0.16078432"/>
      <stop offset="0.32941176470588235" stop-color="#ebe340" stop-opacity="0.03137255"/>
      <stop offset="1.0" stop-color="#ccb700" stop-opacity="0.0"/>
    </radialGradient>
    <radialGradient cx="0" cy="0" gradientTransform="matrix(0.0111, 0.0, 0.0, 0.0111, 204.85, -299.1)" gradientUnits="userSpaceOnUse" id="gradient3" r="819.2" spreadMethod="pad">
      <stop offset="0.0" stop-color="#fefe67" stop-opacity="0.16078432"/>
      <stop offset="0.32941176470588235" stop-color="#ebe340" stop-opacity="0.03137255"/>
      <stop offset="1.0" stop-color="#ccb700" stop-opacity="0.0"/>
    </radialGradient>
    <radialGradient cx="0" cy="0" gradientTransform="matrix(0.0074, 0.0, 0.0, 0.0074, 74.9, -299.1)" gradientUnits="userSpaceOnUse" id="gradient4" r="819.2" spreadMethod="pad">
      <stop offset="0.0" stop-color="#67ccfe" stop-opacity="0.050980393"/>
      <stop offset="1.0" stop-color="#66ccff" stop-opacity="0.101960786"/>
    </radialGradient>
  </defs>
</svg>
