<?xml version="1.0" encoding="UTF-8" standalone="no"?>
<svg xmlns:ffdec="https://www.free-decompiler.com/flash" xmlns:xlink="http://www.w3.org/1999/xlink" ffdec:objectType="shape" height="22.1px" width="18.0px" xmlns="http://www.w3.org/2000/svg">
  <g transform="matrix(1.0, 0.0, 0.0, 1.0, 9.35, 5.55)">
    <path d="M-7.25 -4.15 Q-5.85 -5.2 -3.2 -5.1 -0.45 -4.95 3.1 -3.6 L5.1 -1.15 7.3 11.85 6.05 14.6 Q3.3 16.25 0.6 16.1 L-3.8 15.2 -5.6 12.4 -7.5 -0.6 -7.25 -4.15" fill="#0f152e" fill-rule="evenodd" stroke="none"/>
    <path d="M-7.25 -4.15 L-7.5 -0.6 -5.6 12.4 -3.8 15.2 0.6 16.1 Q3.3 16.25 6.05 14.6 L7.3 11.85 5.1 -1.15 3.1 -3.6 Q-0.45 -4.95 -3.2 -5.1 -5.85 -5.2 -7.25 -4.15 Z" fill="none" stroke="#080b19" stroke-linecap="round" stroke-linejoin="round" stroke-width="0.9500000000000001"/>
    <path d="M7.3 13.65 L2.7 13.55 1.2 12.5 0.25 7.2 6.8 8.95 7.3 11.85 7.3 13.65" fill="#1c1c1c" fill-rule="evenodd" stroke="none"/>
    <path d="M7.3 13.65 L7.3 11.85 6.8 8.95 0.25 7.2 1.2 12.5 2.7 13.55 7.3 13.65 Z" fill="none" stroke="#121212" stroke-linecap="round" stroke-linejoin="round" stroke-width="0.9500000000000001"/>
    <path d="M3.75 3.45 Q1.9 2.6 0.05 1.7 L0.5 -3.15 6.35 -2.7 7.45 -0.1 Q8.2 1.75 8.2 4.0 L7.95 7.95 6.8 8.95 5.0 8.5 3.75 3.45" fill="#282828" fill-rule="evenodd" stroke="none"/>
    <path d="M3.75 3.45 L5.0 8.5 6.8 8.95 7.95 7.95 8.2 4.0 Q8.2 1.75 7.45 -0.1 L6.35 -2.7 0.5 -3.15 0.05 1.7 Q1.9 2.6 3.75 3.45 Z" fill="none" stroke="#121212" stroke-linecap="round" stroke-linejoin="round" stroke-width="0.9500000000000001"/>
    <path d="M-3.85 -3.5 L-2.85 3.75 0.25 7.2 1.3 13.55 -4.7 13.8 -7.15 10.95 -8.4 2.2 -3.85 -3.5" fill="#282828" fill-rule="evenodd" stroke="none"/>
    <path d="M-3.85 -3.5 L-2.85 3.75 0.25 7.2 1.3 13.55 -4.7 13.8 -7.15 10.95 -8.4 2.2 -3.85 -3.5 Z" fill="none" stroke="#121212" stroke-linecap="round" stroke-linejoin="round" stroke-width="0.9500000000000001"/>
    <path d="M-8.4 2.2 L-7.3 -3.65 -5.7 -3.6 -3.85 -3.5 -2.1 -0.9 -2.75 3.2 0.25 7.2 -3.55 7.65 -4.95 5.95 -7.75 6.55 Q-9.65 4.9 -8.4 2.2" fill="#282828" fill-rule="evenodd" stroke="none"/>
    <path d="M-8.4 2.2 Q-9.65 4.9 -7.75 6.55 L-4.95 5.95 -3.55 7.65 0.25 7.2 -2.75 3.2 -2.1 -0.9 -3.85 -3.5 -5.7 -3.6 -7.3 -3.65 -8.4 2.2 Z" fill="none" stroke="#121212" stroke-linecap="round" stroke-linejoin="round" stroke-width="0.9500000000000001"/>
    <path d="M-7.45 8.85 L-2.9 8.95 -2.6 10.5 -7.2 10.45 -7.45 8.85" fill="#f3ab05" fill-rule="evenodd" stroke="none"/>
    <path d="M-7.45 8.85 L-2.9 8.95 -2.6 10.5 -7.2 10.45 -7.45 8.85 Z" fill="none" stroke="#503803" stroke-linecap="round" stroke-linejoin="round" stroke-width="0.9500000000000001"/>
  </g>
</svg>
