<?xml version="1.0" encoding="UTF-8" standalone="no"?>
<svg xmlns:xlink="http://www.w3.org/1999/xlink" height="21.9px" width="70.55px" xmlns="http://www.w3.org/2000/svg">
  <g transform="matrix(1.0, 0.0, 0.0, 1.0, 27.75, 8.45)">
    <path d="M-25.35 -0.85 L-23.0 -0.85 -23.8 -0.15 -23.2 1.95 Q-12.9 -0.05 -2.95 1.95 L-2.95 4.35 -4.3 4.3 -4.5 7.25 Q-5.6 7.35 -6.85 8.0 -8.45 8.85 -9.5 10.95 L-11.35 10.3 -9.25 5.5 -9.35 5.4 -9.25 5.5 Q-7.9 2.4 -11.85 4.3 L-20.1 8.0 Q-21.6 8.75 -22.45 8.3 L-23.25 7.55 -23.15 7.5 -25.35 -0.85 M0.6 7.4 Q1.6 5.75 0.55 4.3 L0.85 4.0 2.8 4.0 4.75 7.05 Q2.85 8.0 1.4 8.15 L1.25 7.5 0.6 7.4 M-22.25 3.65 L-21.55 6.0 -16.65 3.65 -22.25 3.65" fill="#9a896f" fill-rule="evenodd" stroke="none"/>
    <path d="M-2.65 7.5 L0.6 7.4 1.25 7.5 1.4 8.15 Q-1.5 8.45 -5.1 8.25 L-6.65 11.2 -8.65 11.2 -9.5 10.95 Q-8.45 8.85 -6.85 8.0 -5.6 7.35 -4.5 7.25 L-2.65 7.5 M-9.35 5.4 Q-9.6 4.3 -11.85 4.3 -7.9 2.4 -9.25 5.5 L-9.35 5.4 M-22.25 3.65 L-16.65 3.65 -21.55 6.0 -22.25 3.65" fill="#80715e" fill-rule="evenodd" stroke="none"/>
    <path d="M-2.95 4.35 L-2.1 4.35 Q-3.15 5.6 -2.65 7.5 L-4.5 7.25 -4.3 4.3 -2.95 4.35" fill="#191919" fill-rule="evenodd" stroke="none"/>
    <path d="M-6.65 11.2 L-5.75 11.65 -6.15 12.95 -9.5 12.6 -12.6 11.65 -12.4 10.6 -11.35 10.3 -9.5 10.95 -8.65 11.2 -6.65 11.2" fill="#595959" fill-rule="evenodd" stroke="none"/>
    <path d="M-25.35 -0.85 L-23.0 -0.85 M4.75 7.05 Q2.85 8.0 1.4 8.15 -1.5 8.45 -5.1 8.25 L-6.65 11.2 M-11.35 10.3 L-9.25 5.5 -9.35 5.4 M-11.85 4.3 L-20.1 8.0 Q-21.6 8.75 -22.45 8.3 L-23.25 7.55" fill="none" stroke="#645947" stroke-linecap="round" stroke-linejoin="round" stroke-width="1.0"/>
    <path d="M-2.65 7.5 L0.6 7.4 Q1.6 5.75 0.55 4.3 M-2.95 4.35 L-4.3 4.3 -4.5 7.25 -2.65 7.5" fill="none" stroke="#877664" stroke-linecap="round" stroke-linejoin="round" stroke-width="1.0"/>
    <path d="M-9.35 5.4 Q-9.6 4.3 -11.85 4.3 M-9.35 5.4 L-9.25 5.5" fill="none" stroke="#4b4434" stroke-linecap="round" stroke-linejoin="round" stroke-width="1.0"/>
    <path d="M-6.65 11.2 L-5.75 11.65 -6.15 12.95 -9.5 12.6 -12.6 11.65 -12.4 10.6 -11.35 10.3 -9.5 10.95 -8.65 11.2 -6.65 11.2 Z" fill="none" stroke="#434343" stroke-linecap="round" stroke-linejoin="round" stroke-width="1.0"/>
    <path d="M-25.05 -2.25 L-25.4 -0.95 -23.15 7.5 -23.25 7.55 -24.8 8.1 -27.25 -0.3 -27.25 -2.25 -25.05 -2.25" fill="#595959" fill-rule="evenodd" stroke="none"/>
    <path d="M-25.05 -2.25 L-25.4 -0.95 -23.15 7.5 -23.25 7.55 -24.8 8.1 -27.25 -0.3 -27.25 -2.25 -25.05 -2.25 Z" fill="none" stroke="#434343" stroke-linecap="round" stroke-linejoin="round" stroke-width="1.0"/>
    <path d="M7.6 -0.35 L8.9 -0.35 9.75 -1.8 12.05 -1.8 15.05 -1.8 16.35 0.4 17.85 0.4 17.4 2.55 8.45 2.55 7.85 1.45 7.2 1.45 7.6 -0.35 M-15.8 -3.2 L-5.55 -3.2 -6.85 -0.75 -8.4 -0.75 -9.45 -1.8 -14.75 -1.8 -15.8 -3.2 M19.8 -1.0 L19.9 -1.3 22.2 -1.3 27.5 -1.3 28.9 -0.2 27.5 1.65 19.1 1.65 19.8 -1.0 M11.7 0.05 L10.3 0.05 11.7 0.05 M14.5 0.05 L13.05 0.05 14.5 0.05" fill="#545454" fill-rule="evenodd" stroke="none"/>
    <path d="M1.65 -0.7 L4.5 -0.75 4.7 -0.35 7.6 -0.35 7.2 1.45 2.2 1.45 1.65 -0.7" fill="#606060" fill-rule="evenodd" stroke="none"/>
    <path d="M-4.25 -3.2 L-3.9 -2.6 0.4 -2.6 0.9 -0.7 1.65 -0.7 2.2 1.45 7.2 1.45 7.85 1.45 8.45 2.55 17.4 2.55 17.85 0.4 16.35 0.4 15.05 -1.8 12.05 -1.8 12.9 -3.2 15.9 -3.2 16.4 -4.0 16.9 -4.95 18.2 -4.95 18.4 -4.25 20.25 -4.25 20.8 -3.4 22.2 -1.3 19.9 -1.3 19.8 -1.0 17.15 -1.0 15.9 -3.2 17.15 -1.0 19.8 -1.0 19.1 1.65 27.5 1.65 28.9 -0.2 39.7 -0.2 39.75 -0.2 40.0 -0.2 40.3 -0.2 41.05 -0.2 40.85 0.9 40.65 1.8 39.05 4.5 37.9 4.5 35.8 6.5 33.05 6.5 33.8 4.5 32.1 4.5 30.0 6.5 27.25 6.5 28.0 4.5 24.1 4.5 21.65 3.25 21.55 3.45 21.6 3.3 18.65 3.3 19.1 1.65 18.65 3.3 17.15 3.3 17.4 2.55 17.15 3.3 16.8 4.3 8.0 4.3 7.1 2.75 2.15 2.75 0.85 4.0 0.55 4.3 -2.95 4.35 -2.95 1.95 -7.1 1.95 -7.5 1.25 -17.5 1.25 -18.25 1.95 -23.2 1.95 -23.8 -0.15 -23.0 -0.85 -21.3 -2.45 -19.3 -2.45 -18.0 -3.2 -15.8 -3.2 -14.75 -1.8 -9.45 -1.8 -8.4 -0.75 -6.85 -0.75 -5.55 -3.2 -4.25 -3.2 M7.55 7.55 L5.1 7.55 2.8 4.0 5.75 4.0 7.55 7.55 M28.0 4.5 L32.1 4.5 28.0 4.5 M35.5 1.25 L34.05 1.25 35.5 1.25 M33.8 4.5 L37.9 4.5 33.8 4.5 M32.25 1.25 L30.8 1.25 32.25 1.25 M38.7 1.25 L37.3 1.25 38.7 1.25 M-16.25 0.3 L-15.5 -0.35 -10.65 -0.35 -15.5 -0.35 -16.25 0.3 M-3.9 -2.6 L-4.65 -0.75 -4.05 -0.1 -4.65 -0.75 -3.9 -2.6 M-0.65 -0.65 L-2.05 -0.65 -0.65 -0.65 M-7.5 1.25 L-5.6 -0.1 -4.05 -0.1 -5.6 -0.1 -7.5 1.25 M-0.1 0.8 L-1.5 0.8 -0.1 0.8 M-4.05 -0.1 L-2.95 1.95 -4.05 -0.1 M-19.3 -2.45 L-17.5 1.25 -19.3 -2.45" fill="#484848" fill-rule="evenodd" stroke="none"/>
    <path d="M20.8 -3.4 L24.2 -3.4 28.45 -3.4 32.65 -3.4 36.9 -3.4 39.85 -3.4 40.3 -2.5 42.3 -2.5 42.3 0.2 41.85 0.9 40.85 0.9 41.05 -0.2 40.3 -0.2 40.0 -0.2 39.75 -0.2 39.7 -0.2 28.9 -0.2 27.5 -1.3 22.2 -1.3 20.8 -3.4 M21.55 3.45 L20.0 6.0 19.85 6.2 18.8 7.55 16.2 7.55 12.2 7.55 9.15 7.55 7.55 7.55 5.75 4.0 2.8 4.0 0.85 4.0 2.15 2.75 7.1 2.75 8.0 4.3 16.8 4.3 17.15 3.3 18.65 3.3 21.6 3.3 21.55 3.45 M24.2 -3.4 L25.05 -2.15 24.2 -3.4 M28.45 -3.4 L29.3 -2.15 28.45 -3.4 M32.65 -3.4 L33.55 -2.15 32.65 -3.4 M40.3 -0.2 L40.3 -2.5 40.3 -0.2 M36.9 -3.4 L37.75 -2.15 36.9 -3.4 M15.4 5.8 L16.2 7.55 15.4 5.8 M11.4 5.8 L12.2 7.55 11.4 5.8" fill="#262626" fill-rule="evenodd" stroke="none"/>
    <path d="M7.55 7.55 L5.1 7.55 2.8 4.0 M-2.95 1.95 L-7.1 1.95 -7.5 1.25 -17.5 1.25 -18.25 1.95 -23.2 1.95 -23.8 -0.15 -23.0 -0.85 M17.4 2.55 L17.85 0.4 16.35 0.4 15.05 -1.8 12.05 -1.8 M19.8 -1.0 L19.9 -1.3 22.2 -1.3 M19.1 1.65 L18.65 3.3 M37.3 1.25 L38.7 1.25 M30.8 1.25 L32.25 1.25 M37.9 4.5 L33.8 4.5 M34.05 1.25 L35.5 1.25 M32.1 4.5 L28.0 4.5 M17.15 3.3 L17.4 2.55 M19.1 1.65 L19.8 -1.0 M-15.8 -3.2 L-14.75 -1.8 -9.45 -1.8 -8.4 -0.75 -6.85 -0.75 -5.55 -3.2 M-2.05 -0.65 L-0.65 -0.65 M-1.5 0.8 L-0.1 0.8 M-17.5 1.25 L-19.3 -2.45" fill="none" stroke="#313131" stroke-linecap="round" stroke-linejoin="round" stroke-width="1.0"/>
    <path d="M16.9 -4.95 L18.2 -4.95 18.4 -4.25 20.25 -4.25 20.8 -3.4 M40.85 0.9 L40.65 1.8 39.05 4.5 37.9 4.5 35.8 6.5 33.05 6.5 33.8 4.5 32.1 4.5 30.0 6.5 27.25 6.5 28.0 4.5 24.1 4.5 21.65 3.25 21.55 3.45 M0.85 4.0 L0.55 4.3 -2.95 4.35 -2.95 1.95 -4.05 -0.1 -4.65 -0.75 -3.9 -2.6 M-23.0 -0.85 L-21.3 -2.45 -19.3 -2.45 -18.0 -3.2 -15.8 -3.2 -5.55 -3.2 -4.25 -3.2 M40.3 -0.2 L41.05 -0.2 40.85 0.9 M13.05 0.05 L14.5 0.05 M10.3 0.05 L11.7 0.05" fill="none" stroke="#232323" stroke-linecap="round" stroke-linejoin="round" stroke-width="1.0"/>
    <path d="M15.9 -3.2 L17.15 -1.0 19.8 -1.0" fill="none" stroke="#3a3939" stroke-linecap="round" stroke-linejoin="round" stroke-width="1.0"/>
    <path d="M19.85 6.2 L18.8 7.55 16.2 7.55 12.2 7.55 9.15 7.55 7.55 7.55 5.75 4.0 2.8 4.0 0.85 4.0 M29.3 -2.15 L28.45 -3.4 M25.05 -2.15 L24.2 -3.4 M33.55 -2.15 L32.65 -3.4 M37.75 -2.15 L36.9 -3.4 M12.2 7.55 L11.4 5.8 M16.2 7.55 L15.4 5.8" fill="none" stroke="#151515" stroke-linecap="round" stroke-linejoin="miter-clip" stroke-miterlimit="4.0" stroke-width="1.0"/>
    <path d="M20.8 -3.4 L24.2 -3.4 28.45 -3.4 32.65 -3.4 36.9 -3.4 39.85 -3.4 40.3 -2.5 42.3 -2.5 42.3 0.2 41.85 0.9 40.85 0.9 M21.55 3.45 L20.0 6.0 19.85 6.2 M22.2 -1.3 L20.8 -3.4 M28.9 -0.2 L27.5 -1.3 22.2 -1.3 M40.3 -0.2 L40.0 -0.2 39.75 -0.2 39.7 -0.2 28.9 -0.2 M18.65 3.3 L21.6 3.3 21.55 3.45 M40.3 -2.5 L40.3 -0.2 M17.15 3.3 L18.65 3.3 M0.85 4.0 L2.15 2.75 7.1 2.75 8.0 4.3 16.8 4.3 17.15 3.3" fill="none" stroke="#151515" stroke-linecap="round" stroke-linejoin="round" stroke-width="1.0"/>
    <path d="M-10.65 -0.35 L-15.5 -0.35 -16.25 0.3" fill="none" stroke="#383838" stroke-linecap="round" stroke-linejoin="round" stroke-width="1.0"/>
    <path d="M-4.05 -0.1 L-5.6 -0.1 -7.5 1.25" fill="none" stroke="#3c3b3b" stroke-linecap="round" stroke-linejoin="round" stroke-width="1.0"/>
    <path d="M3.4 -5.45 L2.0 -5.45 3.4 -5.45 M0.55 -7.05 L0.55 -4.0 0.4 -2.6 0.55 -4.0 0.55 -7.05 11.2 -7.05 12.6 -7.95 17.5 -7.95 17.5 -5.95 16.4 -4.0 15.9 -3.2 12.9 -3.2 12.05 -1.8 9.75 -1.8 8.9 -0.35 8.2 -0.35 6.7 -0.35 4.7 -0.35 4.5 -0.75 1.65 -0.7 0.9 -0.7 0.4 -2.6 -3.9 -2.6 -5.0 -4.55 -3.7 -7.95 -2.1 -7.95 -1.85 -7.45 -0.25 -7.45 0.55 -7.05 M6.7 -3.85 L6.7 -0.35 6.7 -3.85 8.2 -3.8 9.75 -3.8 12.05 -3.8 9.75 -3.8 8.2 -3.8 6.7 -3.85 M8.2 -3.8 L8.2 -0.35 8.2 -3.8 M9.75 -3.8 L9.75 -1.8 9.75 -3.8 M6.1 -5.4 L4.7 -5.4 6.1 -5.4 M5.15 -2.45 L2.0 -2.45 5.15 -2.45 M11.2 -7.05 L11.2 -6.0 12.9 -3.2 11.2 -6.0 11.2 -7.05 M-3.2 -4.85 L-2.7 -6.3 -3.2 -4.85" fill="#232323" fill-rule="evenodd" stroke="none"/>
    <path d="M2.0 -5.45 L3.4 -5.45 M4.7 -5.4 L6.1 -5.4" fill="none" stroke="#101010" stroke-linecap="round" stroke-linejoin="round" stroke-width="1.0"/>
    <path d="M0.4 -2.6 L0.55 -4.0 0.55 -7.05 -0.25 -7.45 -1.85 -7.45 -2.1 -7.95 -3.7 -7.95 -5.0 -4.55 -3.9 -2.6 0.4 -2.6 0.9 -0.7 1.65 -0.7 4.5 -0.75 4.7 -0.35 6.7 -0.35 8.2 -0.35 8.9 -0.35 9.75 -1.8 12.05 -1.8 12.9 -3.2 11.2 -6.0 11.2 -7.05 12.6 -7.95 17.5 -7.95 17.5 -5.95 16.4 -4.0 15.9 -3.2 12.9 -3.2 M6.7 -3.85 L8.2 -3.8 9.75 -3.8 12.05 -3.8 M2.0 -2.45 L5.15 -2.45 M0.55 -7.05 L11.2 -7.05" fill="none" stroke="#171717" stroke-linecap="round" stroke-linejoin="round" stroke-width="1.0"/>
    <path d="M6.7 -0.35 L6.7 -3.85 M8.2 -0.35 L8.2 -3.8 M9.75 -1.8 L9.75 -3.8 M-2.7 -6.3 L-3.2 -4.85" fill="none" stroke="#171717" stroke-linecap="round" stroke-linejoin="miter-clip" stroke-miterlimit="4.0" stroke-width="1.0"/>
    <path d="M-18.15 9.1 L-15.95 9.55 -14.7 9.75 -13.75 9.95 -13.75 11.0 -18.85 11.0 -19.15 8.85 -18.85 11.0 -20.75 11.0 -22.6 11.0 -23.05 8.1 -21.1 8.45 -19.15 8.85 -18.15 9.1 M-20.75 11.0 L-21.1 8.45 -20.75 11.0" fill="#595959" fill-rule="evenodd" stroke="none"/>
    <path d="M-18.15 9.1 L-19.15 8.85 -21.1 8.45 -14.7 5.6 -14.7 9.75 -15.95 9.55 -15.95 7.9 -18.15 9.1" fill="#3f3f3f" fill-rule="evenodd" stroke="none"/>
    <path d="M-15.95 9.55 L-18.15 9.1 -19.15 8.85 M-14.7 9.75 L-15.95 9.55 -15.95 7.9 -18.15 9.1 M-14.7 5.6 L-21.1 8.45" fill="none" stroke="#282828" stroke-linecap="round" stroke-linejoin="round" stroke-width="1.0"/>
    <path d="M-19.15 8.85 L-18.85 11.0" fill="none" stroke="#434343" stroke-linecap="round" stroke-linejoin="miter-clip" stroke-miterlimit="4.0" stroke-width="1.0"/>
    <path d="M-18.85 11.0 L-13.75 11.0 -13.75 9.95 -14.7 9.75 M-18.85 11.0 L-20.75 11.0 -22.6 11.0 -23.05 8.1 -21.1 8.45 -20.75 11.0" fill="none" stroke="#434343" stroke-linecap="round" stroke-linejoin="round" stroke-width="1.0"/>
    <path d="M-14.7 9.75 L-14.7 5.6 M-21.1 8.45 L-19.15 8.85" fill="none" stroke="#282828" stroke-linecap="round" stroke-linejoin="miter-clip" stroke-miterlimit="4.0" stroke-width="1.0"/>
  </g>
</svg>
