<?xml version="1.0" encoding="UTF-8" standalone="no"?>
<svg xmlns:ffdec="https://www.free-decompiler.com/flash" xmlns:xlink="http://www.w3.org/1999/xlink" ffdec:objectType="shape" height="25.75px" width="16.6px" xmlns="http://www.w3.org/2000/svg">
  <g transform="matrix(1.0, 0.0, 0.0, 1.0, 8.4, 6.95)">
    <path d="M-3.5 -6.45 L-0.3 -3.3 1.55 -2.65 3.8 -2.45 4.7 -0.5 4.75 -0.4 Q6.2 0.8 6.85 3.05 L6.8 3.1 7.7 9.7 Q7.55 13.75 6.0 15.1 L5.4 15.0 3.8 14.45 1.65 13.3 -0.45 10.35 -1.95 5.05 -4.6 3.4 -5.9 1.95 -5.9 0.5 -7.6 0.45 -6.8 -4.55 -3.5 -6.45 M2.9 2.45 L3.7 5.65 2.15 7.15 2.9 12.05 4.3 11.9 4.35 9.8 5.85 9.1 5.6 4.7 4.7 2.05 2.9 2.45" fill="url(#gradient0)" fill-rule="evenodd" stroke="none"/>
    <path d="M-3.5 -6.45 L-0.3 -3.3 1.55 -2.65 3.8 -2.45 4.7 -0.5 4.75 -0.4 Q6.2 0.8 6.85 3.05 L6.8 3.1 7.7 9.7 Q7.55 13.75 6.0 15.1 L5.4 15.0 3.8 14.45 1.65 13.3 -0.45 10.35 -1.95 5.05 -4.6 3.4 -5.9 1.95 -5.9 0.5 -7.6 0.45 -6.8 -4.55 -3.5 -6.45 M2.9 2.45 L3.7 5.65 2.15 7.15 2.9 12.05 4.3 11.9 4.35 9.8 5.85 9.1 5.6 4.7 4.7 2.05 2.9 2.45 M-4.45 1.8 L-3.6 2.6 -2.35 2.5 -1.45 1.75 Q-1.15 1.15 -1.5 0.6 L-4.45 1.8 -4.45 1.75 -4.5 0.6 Q-4.15 0.05 -3.6 -0.15 -2.95 -0.35 -2.35 -0.15 L-1.5 0.6 M0.05 0.8 L0.95 1.65 0.3 3.5 -1.2 3.65" fill="none" stroke="#150d0d" stroke-linecap="round" stroke-linejoin="round" stroke-width="1.0"/>
    <path d="M-0.45 10.35 L0.55 12.5 1.65 13.3 3.8 14.45 5.4 15.0 5.0 16.65 2.55 18.3 -2.35 16.4 -3.6 10.2 -2.15 9.55 -2.75 7.65 -4.0 6.65 -4.45 5.3 -4.6 3.4 -1.95 5.05 -0.45 10.35" fill="#191919" fill-rule="evenodd" stroke="none"/>
    <path d="M4.7 2.05 L5.6 4.7 5.85 9.1 4.35 9.8 4.3 11.9 2.9 12.05 2.15 7.15 3.7 5.65 2.9 2.45 4.7 2.05 M-5.9 1.95 L-4.6 3.4 -4.45 5.3 -4.0 6.65 -2.75 7.65 -2.15 9.55 -3.6 10.2 -5.9 8.85 -7.9 1.55 -5.9 0.5 -5.9 1.95" fill="#ff4444" fill-rule="evenodd" stroke="none"/>
    <path d="M2.6 -2.6 L1.25 -2.7 -1.95 -3.95 -2.75 -5.1 Q0.7 -5.25 2.6 -2.6" fill="#000000" fill-rule="evenodd" stroke="none"/>
    <path d="M2.6 -2.6 Q0.7 -5.25 -2.75 -5.1" fill="none" stroke="#000000" stroke-linecap="round" stroke-linejoin="round" stroke-width="1.0"/>
    <path d="M-4.45 5.3 L-6.9 5.15 -5.9 8.85 -3.6 10.2 M-6.9 5.15 L-7.9 1.55 -5.9 0.5" fill="none" stroke="#701c1c" stroke-linecap="round" stroke-linejoin="round" stroke-width="1.0"/>
    <path d="M4.7 2.05 L5.6 4.7 5.85 9.1 4.35 9.8 4.3 11.9 2.9 12.05 2.15 7.15 3.7 5.65 2.9 2.45 4.7 2.05 M-3.6 10.2 L-2.15 9.55 -2.75 7.65 -4.0 6.65 -4.45 5.3 -4.6 3.4" fill="none" stroke="#2a1a1a" stroke-linecap="round" stroke-linejoin="round" stroke-width="1.0"/>
    <path d="M-5.9 0.5 L-5.9 1.95 -4.6 3.4" fill="none" stroke="#6f2727" stroke-linecap="round" stroke-linejoin="round" stroke-width="1.0"/>
    <path d="M-5.9 0.5 L-5.95 -1.1 -4.9 -2.4 -3.8 -2.5 -1.7 -1.0 0.05 -0.45 2.85 -0.9 4.7 -0.5 M-4.6 3.4 L-1.95 5.05 -0.45 10.35 1.65 13.3 3.8 14.45 5.4 15.0 5.0 16.65 2.55 18.3 -2.35 16.4 -3.6 10.2" fill="none" stroke="#080808" stroke-linecap="round" stroke-linejoin="round" stroke-width="1.0"/>
    <path d="M0.95 1.65 L0.05 0.8 M0.3 3.5 L-1.2 3.65" fill="none" stroke="#150d0d" stroke-linecap="round" stroke-linejoin="round" stroke-width="1.0"/>
    <path d="M-1.5 0.6 L-2.35 -0.15 Q-2.95 -0.35 -3.6 -0.15 -4.15 0.05 -4.5 0.6 L-4.45 1.75 -4.45 1.8 -1.5 0.6 Q-1.15 1.15 -1.45 1.75 L-2.35 2.5 -3.6 2.6 -4.45 1.8" fill="none" stroke="#150d0d" stroke-linecap="round" stroke-linejoin="round" stroke-width="1.0"/>
  </g>
  <defs>
    <linearGradient gradientTransform="matrix(0.0057, 0.0, 0.0, 0.0057, 2.7, 4.3)" gradientUnits="userSpaceOnUse" id="gradient0" spreadMethod="pad" x1="-819.2" x2="819.2">
      <stop offset="0.0" stop-color="#321e1e"/>
      <stop offset="1.0" stop-color="#6e4747"/>
    </linearGradient>
  </defs>
</svg>
