<?xml version="1.0" encoding="UTF-8" standalone="no"?>
<svg xmlns:ffdec="https://www.free-decompiler.com/flash" xmlns:xlink="http://www.w3.org/1999/xlink" ffdec:objectType="shape" height="28.1px" width="18.4px" xmlns="http://www.w3.org/2000/svg">
  <g transform="matrix(1.0, 0.0, 0.0, 1.0, 9.7, 9.25)">
    <path d="M0.9 -3.95 Q2.4 -3.25 3.1 -1.9 2.85 -1.8 3.5 2.25 4.1 6.45 3.7 6.9 3.15 7.55 2.7 9.65 2.25 11.85 1.85 12.35 L0.35 12.5 -1.35 11.95 -3.6 8.55 -5.65 5.55 Q-7.25 0.2 -5.25 -2.65 -4.4 -4.05 -2.2 -4.45 -0.6 -4.7 0.9 -3.95 M-3.65 13.65 Q0.6 11.4 2.1 14.1 1.25 15.4 -0.5 15.25 -2.5 15.05 -3.65 13.65" fill="#272727" fill-rule="evenodd" stroke="none"/>
    <path d="M0.9 -3.95 Q2.4 -3.25 3.1 -1.9 2.85 -1.8 3.5 2.25 4.1 6.45 3.7 6.9 3.15 7.55 2.7 9.65 2.25 11.85 1.85 12.35 L0.35 12.5 -1.35 11.95 -3.6 8.55 -5.65 5.55 Q-7.25 0.2 -5.25 -2.65 -4.4 -4.05 -2.2 -4.45 -0.6 -4.7 0.9 -3.95 M-3.65 13.65 Q0.6 11.4 2.1 14.1 1.25 15.4 -0.5 15.25 -2.5 15.05 -3.65 13.65 Z" fill="none" stroke="#1f1d1b" stroke-linecap="butt" stroke-linejoin="miter-clip" stroke-miterlimit="15.12109375" stroke-width="1.0"/>
    <path d="M-0.4 14.7 Q-0.1 13.8 -1.05 12.5 -1.9 11.25 -1.3 10.4 -0.95 10.0 0.55 9.1 1.35 7.9 3.0 7.15 L4.4 6.8 Q5.85 6.8 6.05 8.4 L5.5 11.1 4.8 13.55 Q4.55 14.4 3.9 14.55 L2.85 15.0 Q1.95 15.95 1.2 15.8 0.6 15.7 -0.4 14.7" fill="url(#gradient0)" fill-rule="evenodd" stroke="none"/>
    <path d="M-0.4 14.7 Q-0.1 13.8 -1.05 12.5 -1.9 11.25 -1.3 10.4 -0.95 10.0 0.55 9.1 1.35 7.9 3.0 7.15 L4.4 6.8 Q5.85 6.8 6.05 8.4 L5.5 11.1 4.8 13.55 Q4.55 14.4 3.9 14.55 L2.85 15.0 Q1.95 15.95 1.2 15.8 0.6 15.7 -0.4 14.7 Z" fill="none" stroke="#181819" stroke-linecap="butt" stroke-linejoin="miter-clip" stroke-miterlimit="15.12109375" stroke-width="1.0"/>
    <path d="M1.7 7.55 Q0.85 3.4 -4.0 1.95 -4.65 1.75 -5.25 0.75 L-6.15 -0.95 -5.75 -1.95 Q-5.6 -2.45 -5.25 -2.35 L-3.5 -1.35 -2.05 -0.45 Q-1.3 -0.25 0.6 -1.05 L3.6 -2.65 Q5.55 -1.8 6.3 0.65 7.0 3.05 6.35 6.25 L6.2 7.1 Q6.05 9.1 5.5 9.3 L5.0 9.05 Q4.85 8.4 3.7 7.95 L1.7 7.55" fill="url(#gradient1)" fill-rule="evenodd" stroke="none"/>
    <path d="M1.7 7.55 Q0.85 3.4 -4.0 1.95 -4.65 1.75 -5.25 0.75 L-6.15 -0.95 -5.75 -1.95 Q-5.6 -2.45 -5.25 -2.35 L-3.5 -1.35 -2.05 -0.45 Q-1.3 -0.25 0.6 -1.05 L3.6 -2.65 Q5.55 -1.8 6.3 0.65 7.0 3.05 6.35 6.25 L6.2 7.1 Q6.05 9.1 5.5 9.3 L5.0 9.05 Q4.85 8.4 3.7 7.95 L1.7 7.55 Z" fill="none" stroke="#1b1616" stroke-linecap="butt" stroke-linejoin="miter-clip" stroke-miterlimit="15.12109375" stroke-width="1.0"/>
    <path d="M5.7 6.7 L5.3 6.6 Q5.25 4.9 4.5 4.4 4.05 4.05 3.5 3.95 L3.15 3.95 2.05 2.1 Q2.65 1.0 2.55 0.4 L2.5 -1.0 Q2.4 -1.65 2.6 -1.95 L3.25 -2.55" fill="none" stroke="#1b1616" stroke-linecap="round" stroke-linejoin="round" stroke-width="1.0"/>
    <path d="M-3.9 2.8 L-3.5 2.75 Q-2.15 3.25 -1.6 3.9 0.5 5.25 1.1 7.85 1.45 8.2 2.5 8.3 3.65 8.45 4.25 8.95 L4.6 9.55 5.0 9.95 5.75 9.8 6.05 9.4 6.25 8.1 5.9 7.6 5.5 7.45 5.0 7.1 Q4.9 5.9 4.5 5.5 4.1 4.95 2.95 4.6 L1.55 2.65 2.0 0.5 1.9 -0.9 2.5 -1.5" fill="none" stroke="#191919" stroke-linecap="round" stroke-linejoin="round" stroke-opacity="0.45490196" stroke-width="1.0"/>
    <path d="M0.85 8.75 Q-0.9 10.15 -0.8 11.65 -0.75 12.65 0.05 13.3 L-0.65 15.05 -4.85 14.25 Q-4.45 13.85 -5.05 11.3 L-5.85 8.6 -6.7 7.05 Q-7.5 5.75 -7.6 4.85 L-7.7 2.9 Q-7.5 1.7 -7.1 1.15 L-6.4 0.5 -4.4 2.55 Q-3.7 5.2 -2.55 6.5 -1.65 7.45 0.85 8.75" fill="url(#gradient2)" fill-rule="evenodd" stroke="none"/>
    <path d="M0.85 8.75 Q-0.9 10.15 -0.8 11.65 -0.75 12.65 0.05 13.3 L-0.65 15.05 -4.85 14.25 Q-4.45 13.85 -5.05 11.3 L-5.85 8.6 -6.7 7.05 Q-7.5 5.75 -7.6 4.85 L-7.7 2.9 Q-7.5 1.7 -7.1 1.15 L-6.4 0.5 -4.4 2.55 Q-3.7 5.2 -2.55 6.5 -1.65 7.45 0.85 8.75 Z" fill="none" stroke="#181819" stroke-linecap="butt" stroke-linejoin="miter-clip" stroke-miterlimit="15.12109375" stroke-width="1.0"/>
    <path d="M4.55 14.2 Q6.15 9.4 6.5 4.85 6.7 2.15 6.35 0.7 6.1 -0.35 5.15 -1.7 L3.8 -2.7 3.25 -2.7 2.0 -1.9" fill="none" stroke="#000000" stroke-linecap="round" stroke-linejoin="round" stroke-opacity="0.25490198" stroke-width="1.0"/>
    <path d="M-6.7 0.1 Q-7.25 0.45 -7.4 1.0 L-7.65 2.1 -7.8 3.05 Q-7.85 3.95 -7.45 4.2 L-6.65 4.95 -6.25 5.3 -5.75 5.35 Q-5.1 5.1 -4.6 4.1 L-4.2 3.35 Q-4.65 5.15 -5.7 5.35 L-5.75 5.35 M-6.25 5.3 L-7.05 4.85 -7.65 4.25 -7.45 6.0 -6.7 7.25 -5.7 8.95 -5.0 12.05 -4.85 13.65 -5.1 14.5" fill="none" stroke="#000000" stroke-linecap="round" stroke-linejoin="round" stroke-opacity="0.25490198" stroke-width="1.0"/>
  </g>
  <defs>
    <radialGradient cx="0" cy="0" gradientTransform="matrix(0.0041, 0.0, 0.0, 0.0193, 2.15, 11.5)" gradientUnits="userSpaceOnUse" id="gradient0" r="819.2" spreadMethod="pad">
      <stop offset="0.0" stop-color="#28282a"/>
      <stop offset="1.0" stop-color="#545459"/>
    </radialGradient>
    <radialGradient cx="0" cy="0" gradientTransform="matrix(-0.0062, 1.0E-4, -1.0E-4, -0.0294, 2.65, 1.9)" gradientUnits="userSpaceOnUse" id="gradient1" r="819.2" spreadMethod="pad">
      <stop offset="0.0" stop-color="#251d1d"/>
      <stop offset="1.0" stop-color="#493f3f"/>
    </radialGradient>
    <radialGradient cx="0" cy="0" gradientTransform="matrix(0.004, -9.0E-4, 0.0046, 0.0268, -2.95, 9.6)" gradientUnits="userSpaceOnUse" id="gradient2" r="819.2" spreadMethod="pad">
      <stop offset="0.0" stop-color="#28282a"/>
      <stop offset="1.0" stop-color="#545459"/>
    </radialGradient>
  </defs>
</svg>
