<?xml version="1.0" encoding="UTF-8" standalone="no"?>
<svg xmlns:ffdec="https://www.free-decompiler.com/flash" xmlns:xlink="http://www.w3.org/1999/xlink" ffdec:objectType="shape" height="20.75px" width="14.1px" xmlns="http://www.w3.org/2000/svg">
  <g transform="matrix(1.0, 0.0, 0.0, 1.0, 9.2, 6.45)">
    <path d="M-3.45 12.35 L-4.6 9.7 -5.85 6.35 Q-6.1 5.7 -6.15 3.0 -6.25 0.25 -6.65 -1.05 -7.15 -2.6 -5.75 -4.3 L-4.4 -5.65 -2.95 -6.05 -1.15 -5.7 1.4 -4.45 2.3 -3.15 Q2.85 -1.85 2.7 -0.75 3.25 0.15 3.4 2.95 L3.8 4.35 4.05 7.15 3.95 10.75 Q3.75 12.6 3.05 12.85 L-0.75 13.05 -3.45 12.35" fill="#2f313a" fill-rule="evenodd" stroke="none"/>
    <path d="M-5.35 5.8 Q-7.15 2.25 -7.15 -0.45 -7.25 -4.1 -4.25 -5.4 L-2.45 -5.9 Q1.8 -5.05 3.0 -3.8 4.3 -2.25 3.7 1.75 3.5 5.15 3.85 7.75 L4.25 10.2 Q4.45 11.25 4.15 11.9 3.7 12.6 2.3 13.0 L-0.1 13.85 -2.25 12.85 -3.3 11.5 -5.35 5.8 Z" fill="none" stroke="#2a2b35" stroke-linecap="round" stroke-linejoin="round" stroke-width="0.9"/>
    <path d="M-8.3 -1.0 L-7.1 -2.5 -6.75 -1.65 Q-6.25 -0.5 -5.5 0.1 -3.1 1.9 0.25 -2.75 L2.25 -3.9 3.8 -3.7 4.2 -1.55 4.1 0.3 Q3.7 1.1 2.35 1.9 L-0.4 3.65 -1.1 4.4 -1.15 5.05 -1.25 7.5 Q-1.5 8.15 -2.9 8.3 L-3.9 8.35 Q-4.35 8.35 -4.9 7.8 -4.9 6.95 -6.2 5.2 L-7.85 2.75 Q-9.25 1.05 -8.3 -1.0" fill="url(#gradient0)" fill-rule="evenodd" stroke="none"/>
    <path d="M-8.3 -1.0 Q-9.25 1.05 -7.85 2.75 L-6.2 5.2 Q-4.9 6.95 -4.9 7.8 -4.35 8.35 -3.9 8.35 L-2.9 8.3 Q-1.5 8.15 -1.25 7.5 L-1.15 5.05 -1.1 4.4 -0.4 3.65 2.35 1.9 Q3.7 1.1 4.1 0.3 L4.2 -1.55 3.8 -3.7 2.25 -3.9 0.25 -2.75 Q-3.1 1.9 -5.5 0.1 -6.25 -0.5 -6.75 -1.65 L-7.1 -2.5 -8.3 -1.0 Z" fill="none" stroke="#533f22" stroke-linecap="butt" stroke-linejoin="miter-clip" stroke-miterlimit="11.33984375" stroke-width="0.9"/>
    <path d="M3.9 -3.75 L4.2 -2.55 Q4.4 -1.1 4.2 0.25 3.4 3.6 3.75 6.55 3.9 8.2 4.4 10.3 4.6 11.5 4.25 12.05 3.75 12.85 2.05 13.5 L0.45 13.35 -1.5 13.3 Q-2.45 13.0 -3.1 11.4 L-4.4 8.6 Q-4.35 8.15 -4.65 7.65 L-5.1 6.8 -6.8 4.4 Q-8.1 2.7 -8.7 0.4 L-8.7 0.0 -8.65 -0.4 -8.05 -1.45 Q-7.9 -1.6 -8.0 -2.35 L-7.45 -2.9 -6.9 -3.2" fill="none" stroke="#010100" stroke-linecap="round" stroke-linejoin="round" stroke-opacity="0.3647059" stroke-width="0.9"/>
  </g>
  <defs>
    <radialGradient cx="0" cy="0" gradientTransform="matrix(-0.0307, 0.0073, 0.0111, 0.034, -15.25, 8.05)" gradientUnits="userSpaceOnUse" id="gradient0" r="819.2" spreadMethod="pad">
      <stop offset="0.0" stop-color="#7c3b18"/>
      <stop offset="1.0" stop-color="#ccaa22"/>
    </radialGradient>
  </defs>
</svg>
