<?xml version="1.0" encoding="UTF-8" standalone="no"?>
<svg xmlns:ffdec="https://www.free-decompiler.com/flash" xmlns:xlink="http://www.w3.org/1999/xlink" ffdec:objectType="shape" height="9.7px" width="17.9px" xmlns="http://www.w3.org/2000/svg">
  <g transform="matrix(1.0, 0.0, 0.0, 1.0, 0.5, 0.5)">
    <path d="M16.85 6.2 L16.9 6.4 16.25 8.5 14.45 8.7 4.75 8.7 4.75 8.25 3.15 8.25 3.15 8.7 0.0 8.7 0.0 6.5 1.85 7.15 2.9 6.3 4.2 6.3 5.75 6.9 10.45 6.9 12.25 6.2 16.85 6.2" fill="#232323" fill-rule="evenodd" stroke="none"/>
    <path d="M10.95 3.95 L12.55 3.0 Q14.8 3.4 16.25 4.15 L16.85 6.2 12.25 6.2 10.45 6.9 5.75 6.9 4.2 6.3 2.9 6.3 1.85 7.15 0.0 6.5 0.0 4.75 0.6 4.05 0.6 0.25 6.35 0.25 6.35 0.55 4.3 1.65 6.45 4.1 9.75 5.1 10.95 3.95" fill="url(#gradient0)" fill-rule="evenodd" stroke="none"/>
    <path d="M6.35 0.25 L6.35 0.55" fill="none" stroke="#21201f" stroke-linecap="round" stroke-linejoin="round" stroke-width="1.0"/>
    <path d="M10.95 3.95 L12.55 3.0 Q14.8 3.4 16.25 4.15 L16.85 6.2 16.9 6.4 16.25 8.5 14.45 8.7 4.75 8.7 4.75 8.25 3.15 8.25 3.15 8.7 0.0 8.7 0.0 6.5 0.0 4.75 0.6 4.05 0.6 0.25 6.35 0.25 M0.0 6.5 L1.85 7.15 2.9 6.3 4.2 6.3 5.75 6.9 10.45 6.9 12.25 6.2 16.85 6.2" fill="none" stroke="#101010" stroke-linecap="round" stroke-linejoin="round" stroke-width="1.0"/>
    <path d="M4.3 1.65 L7.4 0.0 11.5 3.4 9.75 5.1 6.45 4.1 4.3 1.65" fill="url(#gradient1)" fill-rule="evenodd" stroke="none"/>
    <path d="M4.3 1.65 L7.4 0.0 11.5 3.4 9.75 5.1 6.45 4.1 4.3 1.65 Z" fill="none" stroke="#1a1024" stroke-linecap="round" stroke-linejoin="round" stroke-width="1.0"/>
  </g>
  <defs>
    <radialGradient cx="0" cy="0" gradientTransform="matrix(0.0176, 0.0, 0.0, 0.0176, 14.25, 4.95)" gradientUnits="userSpaceOnUse" id="gradient0" r="819.2" spreadMethod="pad">
      <stop offset="0.0" stop-color="#161616"/>
      <stop offset="1.0" stop-color="#292929"/>
    </radialGradient>
    <linearGradient gradientTransform="matrix(0.0044, 0.0, 0.0, 0.0031, 7.9, 2.55)" gradientUnits="userSpaceOnUse" id="gradient1" spreadMethod="pad" x1="-819.2" x2="819.2">
      <stop offset="0.0" stop-color="#211a2e"/>
      <stop offset="1.0" stop-color="#3b2b58"/>
    </linearGradient>
  </defs>
</svg>
