<?xml version="1.0" encoding="UTF-8" standalone="no"?>
<svg xmlns:ffdec="https://www.free-decompiler.com/flash" xmlns:xlink="http://www.w3.org/1999/xlink" ffdec:objectType="shape" height="24.85px" width="18.1px" xmlns="http://www.w3.org/2000/svg">
  <g transform="matrix(1.0, 0.0, 0.0, 1.0, 10.3, 9.7)">
    <path d="M-6.05 -8.95 L-1.95 -9.0 0.15 -9.1 Q2.0 -8.95 2.5 -8.05 3.1 -3.6 2.8 1.65 2.6 7.0 1.5 11.3 1.3 11.55 2.05 12.2 2.95 12.95 2.9 13.4 2.8 13.7 1.1 14.85 0.7 15.3 -0.6 15.1 L-2.4 14.9 Q-3.7 15.15 -4.95 12.25 -6.15 9.35 -6.15 6.0 -6.1 4.95 -7.55 -1.7 -8.5 -6.25 -6.85 -8.85 L-6.05 -8.95" fill="#91815b" fill-rule="evenodd" stroke="none"/>
    <path d="M1.3 -9.0 Q3.35 -8.45 4.6 -7.0 5.55 -6.0 6.4 -4.2 6.95 -2.85 6.5 -0.65 L5.8 2.4 Q7.0 8.4 5.85 10.9 L2.85 14.15 Q1.4 12.5 0.45 10.85 -1.85 6.85 -2.95 2.6 -4.4 -2.9 -2.15 -4.65 -1.3 -5.35 -0.4 -6.6 L1.3 -9.0" fill="#c0a76e" fill-rule="evenodd" stroke="none"/>
    <path d="M1.3 -9.0 Q3.35 -8.45 4.6 -7.0 5.55 -6.0 6.4 -4.2 6.95 -2.85 6.5 -0.65 L5.8 2.4 Q7.0 8.4 5.85 10.9 L2.85 14.15 Q1.4 12.5 0.45 10.85 -1.85 6.85 -2.95 2.6 -4.4 -2.9 -2.15 -4.65 -1.3 -5.35 -0.4 -6.6 L1.3 -9.0 Z" fill="none" stroke="#716448" stroke-linecap="round" stroke-linejoin="round" stroke-width="1.0"/>
    <path d="M6.2 -4.45 Q7.4 -2.1 7.25 0.55 7.15 2.7 6.2 4.3 L3.7 2.2 Q2.95 1.3 2.85 -0.05 2.85 -2.2 4.35 -3.55 5.55 -4.5 6.2 -4.45" fill="#947f55" fill-rule="evenodd" stroke="none"/>
    <path d="M6.2 -4.45 Q7.4 -2.1 7.25 0.55 7.15 2.7 6.2 4.3 L3.7 2.2 Q2.95 1.3 2.85 -0.05 2.85 -2.2 4.35 -3.55 5.55 -4.5 6.2 -4.45 Z" fill="none" stroke="#716448" stroke-linecap="round" stroke-linejoin="round" stroke-width="1.0"/>
    <path d="M-6.35 -8.4 Q-6.6 -7.9 -5.0 -6.05 -3.4 -4.25 -2.65 -4.7 -2.25 -4.9 -2.15 -4.3 L-2.1 -3.6 Q-0.6 -0.7 -0.45 3.1 -0.3 6.75 -1.45 7.25 L-2.75 7.3 Q-4.25 7.5 -5.2 8.4 -5.85 9.5 -6.35 8.6 -6.95 7.05 -7.45 6.25 -9.8 2.7 -9.75 -1.65 -9.75 -6.1 -7.3 -7.9 L-6.7 -8.75 -6.55 -9.15 -6.35 -8.4" fill="#dec68f" fill-rule="evenodd" stroke="none"/>
    <path d="M-6.35 -8.4 Q-6.6 -7.9 -5.0 -6.05 -3.4 -4.25 -2.65 -4.7 -2.25 -4.9 -2.15 -4.3 L-2.1 -3.6 Q-0.6 -0.7 -0.45 3.1 -0.3 6.75 -1.45 7.25 L-2.75 7.3 Q-4.25 7.5 -5.2 8.4 -5.85 9.5 -6.35 8.6 -6.95 7.05 -7.45 6.25 -9.8 2.7 -9.75 -1.65 -9.75 -6.1 -7.3 -7.9 L-6.7 -8.75 -6.55 -9.15 -6.35 -8.4 Z" fill="none" stroke="#716448" stroke-linecap="round" stroke-linejoin="round" stroke-width="1.0"/>
    <path d="M-7.6 1.6 L-6.45 1.35" fill="none" stroke="#9d8c65" stroke-linecap="round" stroke-linejoin="miter-clip" stroke-miterlimit="4.0" stroke-width="1.0"/>
    <path d="M-6.2 3.05 L-7.1 3.5" fill="none" stroke="#9d8c65" stroke-linecap="round" stroke-linejoin="miter-clip" stroke-miterlimit="4.0" stroke-width="1.0"/>
    <path d="M5.7 11.15 Q6.2 10.7 6.3 8.75 L6.3 4.9 7.3 0.95 6.5 -4.6 5.4 -5.9 Q4.15 -7.65 2.2 -8.35 0.7 -9.3 -0.1 -9.15 L-5.45 -8.75 Q-8.2 -8.35 -9.4 -5.3 -10.15 -3.35 -9.55 0.2 -9.0 3.65 -7.4 6.8 L-6.35 8.75 -6.05 10.05 -5.65 11.3" fill="none" stroke="#564b3a" stroke-linecap="round" stroke-linejoin="round" stroke-width="1.0"/>
  </g>
</svg>
