<?xml version="1.0" encoding="UTF-8" standalone="no"?>
<svg xmlns:ffdec="https://www.free-decompiler.com/flash" xmlns:xlink="http://www.w3.org/1999/xlink" ffdec:objectType="shape" height="27.3px" width="18.35px" xmlns="http://www.w3.org/2000/svg">
  <g transform="matrix(1.0, 0.0, 0.0, 1.0, 8.85, 9.0)">
    <path d="M-5.7 6.6 L-5.65 6.1 -3.9 4.8 -3.35 4.5 -3.2 4.55 -1.9 5.95 Q-1.55 6.2 -1.9 6.5 L-2.65 6.9 -3.6 8.1 -4.15 8.15 -4.7 8.0 -5.7 6.6 M-5.55 5.85 L-5.9 5.9 -6.1 5.75 -6.2 5.05 -6.15 4.25 -5.7 3.7 -5.3 3.35 -4.35 3.4 -4.25 3.4 -3.75 3.95 Q-3.5 4.2 -3.75 4.4 L-5.55 5.85" fill="url(#gradient0)" fill-rule="evenodd" stroke="none"/>
    <path d="M-6.25 5.9 L-6.3 4.25 -5.35 3.15 -2.9 2.95 -0.6 4.45 -0.95 7.05 -3.5 8.45 -4.75 8.1 -6.25 5.95 -6.25 5.9 -5.7 6.05 -3.5 4.4" fill="none" stroke="#6d1919" stroke-linecap="round" stroke-linejoin="round" stroke-width="0.7000000000000001"/>
    <path d="M3.05 6.3 L4.15 6.4 7.4 8.25 7.9 9.95 5.65 15.8 4.75 16.9 2.35 17.85 0.45 16.55 -1.65 13.55 -2.6 9.8 1.0 8.65 3.05 6.3" fill="#2f2f2f" fill-rule="evenodd" stroke="none"/>
    <path d="M3.05 6.3 L1.0 8.65 -2.6 9.8 -1.25 13.85 0.9 17.0 2.35 17.85 4.75 16.95 5.65 15.85 Q7.25 13.2 7.9 9.95 L7.4 8.25 4.15 6.4 3.05 6.3 Z" fill="none" stroke="#060606" stroke-linecap="round" stroke-linejoin="round" stroke-width="0.9500000000000001"/>
    <path d="M-2.3 -5.5 Q-2.9 -6.0 -1.7 -6.65 L1.3 -7.15 Q6.1 -6.7 6.5 -0.6 L-2.3 -5.5" fill="#1b1b1b" fill-rule="evenodd" stroke="none"/>
    <path d="M-1.25 -7.1 L2.3 -7.0 Q5.75 -5.95 6.2 -1.45" fill="none" stroke="#000000" stroke-linecap="round" stroke-linejoin="round" stroke-width="0.9500000000000001"/>
    <path d="M-6.5 1.7 L-5.6 -0.05 -3.15 -2.55 -0.4 -0.95 3.75 3.5 3.25 8.65 -1.3 10.3 -2.9 9.75 -3.7 8.6 -2.55 7.05 -1.3 6.4 -4.2 3.2 -5.25 3.1 -6.5 1.7" fill="#1b1b1b" fill-rule="evenodd" stroke="none"/>
    <path d="M-6.5 1.7 L-5.25 3.1 -4.2 3.2 -1.3 6.4 -2.55 7.05 -3.7 8.6 -2.9 9.75 -1.3 10.3 3.25 8.65 3.75 3.5 -0.4 -0.95 -3.15 -2.55 -5.6 -0.05 -6.5 1.7 Z" fill="none" stroke="#010101" stroke-linecap="round" stroke-linejoin="round" stroke-width="0.9500000000000001"/>
    <path d="M-8.4 -2.8 L-5.7 -7.2 -1.75 -8.55 -0.5 -5.55 3.95 -4.4 9.05 1.85 8.15 4.8 7.9 8.8 7.5 9.7 4.8 9.2 2.6 8.45 1.0 2.75 -2.1 2.4 -2.8 0.4 -6.4 1.85 -7.95 0.3 -8.4 -2.8" fill="#2f2f2f" fill-rule="evenodd" stroke="none"/>
    <path d="M-5.65 -7.35 L-1.5 -8.75 -0.45 -5.7 4.05 -4.5 8.95 1.85 8.05 4.9 8.15 8.8 7.8 9.55 4.9 9.15 4.8 0.75 2.9 -0.6 -0.7 -0.4 -1.55 -2.1 -2.3 -4.4 -4.35 -4.6 -5.65 -7.35" fill="#000000" fill-opacity="0.19607843" fill-rule="evenodd" stroke="none"/>
    <path d="M-2.6 0.4 L-1.55 -1.95 3.35 -2.85 3.85 -4.2" fill="none" stroke="#0c0c0c" stroke-linecap="round" stroke-linejoin="round" stroke-width="0.9500000000000001"/>
    <path d="M-8.4 -2.8 L-7.95 0.3 -6.4 1.85 -2.8 0.4 -2.1 2.4 1.0 2.75 2.6 8.45 4.8 9.2 7.5 9.7 7.9 8.8 8.15 4.8 9.05 1.85 3.95 -4.4 -0.5 -5.55 -1.75 -8.55 -5.7 -7.2 -8.4 -2.8 Z" fill="none" stroke="#060606" stroke-linecap="round" stroke-linejoin="round" stroke-width="0.9500000000000001"/>
    <path d="M-5.85 4.75 L-5.9 5.25" fill="none" stroke="#ffffff" stroke-linecap="round" stroke-linejoin="round" stroke-width="0.9500000000000001"/>
    <path d="M4.85 8.95 L7.5 9.45 8.1 9.95 5.7 16.1 4.5 17.35 1.75 17.65 0.35 16.55 -0.3 15.45 3.2 15.95 4.5 14.15 4.85 8.95" fill="#000000" fill-opacity="0.19607843" fill-rule="evenodd" stroke="none"/>
  </g>
  <defs>
    <linearGradient gradientTransform="matrix(-0.0031, -0.0025, 0.0025, -0.0031, -4.3, 5.65)" gradientUnits="userSpaceOnUse" id="gradient0" spreadMethod="pad" x1="-819.2" x2="819.2">
      <stop offset="0.0" stop-color="#4c1010"/>
      <stop offset="1.0" stop-color="#f13f3f"/>
    </linearGradient>
  </defs>
</svg>
