<?xml version="1.0" encoding="UTF-8" standalone="no"?>
<svg xmlns:xlink="http://www.w3.org/1999/xlink" height="15.45px" width="31.85px" xmlns="http://www.w3.org/2000/svg">
  <g transform="matrix(1.0, 0.0, 0.0, 1.0, -37.4, 7.9)">
    <path d="M40.2 -5.65 Q42.25 -7.9 45.25 -7.9 L45.7 -7.9 46.2 -7.9 Q49.1 -7.9 51.25 -5.65 53.3 -3.35 53.3 -0.15 53.3 3.0 51.25 5.3 49.1 7.55 46.2 7.55 L45.7 7.5 45.25 7.55 Q42.25 7.55 40.2 5.3 38.05 3.0 38.1 -0.15 38.05 -3.35 40.2 -5.65" fill="url(#gradient0)" fill-rule="evenodd" stroke="none"/>
    <path d="M64.9 -2.9 Q69.25 -1.85 69.25 -0.4 69.25 1.05 64.9 2.1 60.45 3.15 54.35 3.15 L53.35 3.1 52.35 3.15 Q46.1 3.15 41.75 2.1 37.3 1.05 37.4 -0.4 37.3 -1.85 41.75 -2.9 46.1 -3.95 52.35 -3.95 L53.35 -3.9 54.35 -3.95 Q60.45 -3.95 64.9 -2.9" fill="url(#gradient1)" fill-rule="evenodd" stroke="none"/>
  </g>
  <defs>
    <radialGradient cx="0" cy="0" gradientTransform="matrix(0.0088, 0.0, 0.0, 0.0092, 45.6, -0.3)" gradientUnits="userSpaceOnUse" id="gradient0" r="819.2" spreadMethod="pad">
      <stop offset="0.17647058823529413" stop-color="#ffffff"/>
      <stop offset="1.0" stop-color="#11ff19" stop-opacity="0.0"/>
    </radialGradient>
    <radialGradient cx="0" cy="0" gradientTransform="matrix(0.0185, 0.0, 0.0, 0.0042, 53.1, -0.45)" gradientUnits="userSpaceOnUse" id="gradient1" r="819.2" spreadMethod="pad">
      <stop offset="0.17647058823529413" stop-color="#ffffff"/>
      <stop offset="1.0" stop-color="#15ff11" stop-opacity="0.0"/>
    </radialGradient>
  </defs>
</svg>
