<?xml version="1.0" encoding="UTF-8" standalone="no"?>
<svg xmlns:ffdec="https://www.free-decompiler.com/flash" xmlns:xlink="http://www.w3.org/1999/xlink" ffdec:objectType="shape" height="23.65px" width="15.75px" xmlns="http://www.w3.org/2000/svg">
  <g transform="matrix(1.0, 0.0, 0.0, 1.0, 7.8, 7.0)">
    <path d="M-4.95 9.8 L1.95 9.7 4.55 12.7 4.0 14.3 3.1 15.95 2.45 16.25 Q-0.85 15.95 -2.1 15.35 -3.25 14.9 -4.15 13.55 L-4.95 9.8" fill="#232323" fill-rule="evenodd" stroke="none"/>
    <path d="M-4.95 9.8 L-4.15 13.55 Q-3.25 14.9 -2.1 15.35 -0.85 15.95 2.45 16.25 L3.1 15.95 4.0 14.3 4.55 12.7 1.95 9.7 -4.95 9.8 Z" fill="none" stroke="#090909" stroke-linecap="round" stroke-linejoin="round" stroke-width="0.8500000000000001"/>
    <path d="M1.85 -5.8 L4.1 -1.55 4.35 4.35 1.3 11.95 -3.6 10.1 -4.95 5.9 -6.85 3.1 -7.2 -1.9 -6.15 -2.9 -5.8 -4.6 -5.15 -5.55 -3.75 -6.4 0.95 -6.4 1.85 -5.8" fill="#232323" fill-rule="evenodd" stroke="none"/>
    <path d="M1.85 -5.8 L0.95 -6.4 -3.75 -6.4 -5.15 -5.55 -5.8 -4.6 -6.15 -2.9 -7.2 -1.9 -6.85 3.1 -4.95 5.9 -3.6 10.1 1.3 11.95 4.35 4.35 4.1 -1.55 1.85 -5.8 Z" fill="none" stroke="#0a0a0a" stroke-linecap="round" stroke-linejoin="round" stroke-width="0.8500000000000001"/>
    <path d="M3.55 3.15 L2.7 9.05 -0.8 10.75 -2.9 10.75 -5.65 4.2 -5.5 3.45 -4.1 2.9 -3.1 1.2 2.65 -1.7 3.55 3.15 Z" fill="none" stroke="#090909" stroke-linecap="round" stroke-linejoin="round" stroke-width="0.8500000000000001"/>
    <path d="M-6.85 2.6 L-4.55 2.65 -3.55 3.75 -3.25 6.15 -3.75 7.05 -3.4 9.0 0.7 10.5 0.1 12.4 -1.2 11.95 -2.5 12.2 -3.75 11.65 -4.4 10.55 -5.55 10.2 -6.25 6.35 -7.05 6.1 -7.4 3.5 -6.85 2.6" fill="#363636" fill-rule="evenodd" stroke="none"/>
    <path d="M-6.85 2.6 L-7.4 3.5 -7.05 6.1 -6.25 6.35 -5.55 10.2 -4.4 10.55 -3.75 11.65 -2.5 12.2 -1.2 11.95 0.1 12.4 0.7 10.5 -3.4 9.0 -3.75 7.05 -3.25 6.15 -3.55 3.75 -4.55 2.65 -6.85 2.6 Z" fill="none" stroke="#161616" stroke-linecap="round" stroke-linejoin="round" stroke-width="0.8500000000000001"/>
    <path d="M1.85 -2.0 L0.7 -3.75 0.65 -4.0 1.05 -5.7 1.9 -6.6 3.45 -6.25 4.2 -5.0 6.15 -3.85 6.9 -1.85 7.55 8.65 6.65 10.05 5.15 14.4 3.65 14.75 0.35 14.15 -0.8 12.35 -1.5 11.6 -1.6 10.0 -1.1 9.2 0.8 7.75 2.65 1.3 Q2.45 -0.85 1.85 -2.0" fill="url(#gradient0)" fill-rule="evenodd" stroke="none"/>
    <path d="M-1.4 10.85 L0.1 10.8 0.9 12.05 2.25 12.3 4.95 1.5 3.1 -4.0 1.3 -5.6 M2.85 13.45 L2.25 12.3" fill="none" stroke="#1f1f1f" stroke-linecap="round" stroke-linejoin="round" stroke-width="0.6000000000000001"/>
    <path d="M1.85 -2.0 L0.7 -3.75 0.65 -4.0 1.05 -5.7 1.9 -6.6 3.45 -6.25 4.2 -5.0 6.15 -3.85 6.9 -1.85 7.55 8.65 6.65 10.05 5.15 14.4 3.65 14.75 0.35 14.15 -0.8 12.35 -1.5 11.6 -1.6 10.0 -1.1 9.2 0.8 7.75 2.65 1.3 Q2.45 -0.85 1.85 -2.0 Z" fill="none" stroke="#161616" stroke-linecap="round" stroke-linejoin="round" stroke-width="0.8500000000000001"/>
  </g>
  <defs>
    <linearGradient gradientTransform="matrix(0.0044, -8.0E-4, 8.0E-4, 0.0044, 3.6, 4.15)" gradientUnits="userSpaceOnUse" id="gradient0" spreadMethod="pad" x1="-819.2" x2="819.2">
      <stop offset="0.0" stop-color="#292929"/>
      <stop offset="0.596078431372549" stop-color="#474747"/>
      <stop offset="1.0" stop-color="#2e2e2e"/>
    </linearGradient>
  </defs>
</svg>
