<?xml version="1.0" encoding="UTF-8" standalone="no"?>
<svg xmlns:ffdec="https://www.free-decompiler.com/flash" xmlns:xlink="http://www.w3.org/1999/xlink" ffdec:objectType="shape" height="9.3px" width="18.8px" xmlns="http://www.w3.org/2000/svg">
  <g transform="matrix(1.0, 0.0, 0.0, 1.0, 3.3, 0.6)">
    <path d="M-0.25 0.65 L4.7 0.65 6.3 2.7 12.65 3.25 14.1 7.0 -0.25 7.0 -0.25 0.65" fill="#1e1e1e" fill-rule="evenodd" stroke="none"/>
    <path d="M-0.25 0.65 L4.7 0.65 6.3 2.7 12.65 3.25 14.1 7.0 -0.25 7.0 -0.25 0.65 Z" fill="none" stroke="#070707" stroke-linecap="round" stroke-linejoin="round" stroke-width="1.0"/>
    <path d="M7.4 2.45 L10.6 1.8 Q13.1 2.55 14.5 4.35 L14.45 5.85 15.0 8.2 6.3 8.2 4.9 5.7 10.4 5.7 9.4 3.65 7.4 2.45" fill="url(#gradient0)" fill-rule="evenodd" stroke="none"/>
    <path d="M-0.1 0.65 Q0.1 2.8 2.7 2.9 L3.45 5.3 -2.75 3.2 Q-3.0 1.75 -2.2 0.9 L-0.1 0.65 -2.2 0.9 Q-1.55 0.2 -0.15 -0.1 L-0.1 0.65" fill="url(#gradient1)" fill-rule="evenodd" stroke="none"/>
    <path d="M-1.8 8.2 L-2.35 4.9 2.65 6.45 3.75 8.2 -1.8 8.2" fill="url(#gradient2)" fill-rule="evenodd" stroke="none"/>
    <path d="M7.4 2.45 L9.4 3.65 10.4 5.7 4.9 5.7 6.3 8.2 15.0 8.2 14.45 5.85 14.5 4.35 Q13.1 2.55 10.6 1.8 L7.4 2.45 M-2.2 0.9 Q-3.0 1.75 -2.75 3.2 L3.45 5.3 2.7 2.9 Q0.1 2.8 -0.1 0.65 L-0.15 -0.1 Q-1.55 0.2 -2.2 0.9 M-1.8 8.2 L3.75 8.2 2.65 6.45 -2.35 4.9 -1.8 8.2 Z" fill="none" stroke="#353532" stroke-linecap="round" stroke-linejoin="round" stroke-width="1.0"/>
  </g>
  <defs>
    <radialGradient cx="0" cy="0" gradientTransform="matrix(0.0082, 0.0, 0.0, 0.0082, 12.6, 1.9)" gradientUnits="userSpaceOnUse" id="gradient0" r="819.2" spreadMethod="pad">
      <stop offset="0.0" stop-color="#afafa0"/>
      <stop offset="1.0" stop-color="#66665d"/>
    </radialGradient>
    <radialGradient cx="0" cy="0" gradientTransform="matrix(0.0063, 0.0, 0.0, 0.0063, -2.3, 0.6)" gradientUnits="userSpaceOnUse" id="gradient1" r="819.2" spreadMethod="pad">
      <stop offset="0.0" stop-color="#afafa0"/>
      <stop offset="1.0" stop-color="#66665d"/>
    </radialGradient>
    <radialGradient cx="0" cy="0" gradientTransform="matrix(0.0049, 0.0, 0.0, 0.0049, -2.1, 4.85)" gradientUnits="userSpaceOnUse" id="gradient2" r="819.2" spreadMethod="pad">
      <stop offset="0.0" stop-color="#afafa0"/>
      <stop offset="1.0" stop-color="#66665d"/>
    </radialGradient>
  </defs>
</svg>
