<?xml version="1.0" encoding="UTF-8" standalone="no"?>
<svg xmlns:ffdec="https://www.free-decompiler.com/flash" xmlns:xlink="http://www.w3.org/1999/xlink" ffdec:objectType="shape" height="15.5px" width="10.85px" xmlns="http://www.w3.org/2000/svg">
  <g transform="matrix(1.0, 0.0, 0.0, 1.0, 0.5, 0.5)">
    <path d="M8.55 2.7 L9.5 4.3 9.85 5.8 9.85 5.95 9.65 7.7 Q9.05 8.45 9.0 8.85 L8.75 9.85 8.6 11.9 8.6 11.75 8.45 12.5 8.45 12.65 8.15 14.0 4.35 12.75 3.0 10.7 4.75 7.5 4.75 5.1 5.35 4.05 6.35 2.7 Q7.5 1.6 8.55 2.7" fill="#211313" fill-rule="evenodd" stroke="none"/>
    <path d="M0.5 9.25 L0.0 6.7 Q-0.15 5.35 0.8 3.35 1.7 1.35 2.5 0.5 3.3 -0.35 5.55 0.2 7.8 0.75 8.55 2.7 7.5 1.6 6.35 2.7 L5.35 4.05 4.75 5.1 4.75 7.5 3.0 10.7 0.5 9.25 M3.3 7.0 L2.45 8.7 3.3 7.0" fill="#141414" fill-rule="evenodd" stroke="none"/>
    <path d="M8.15 14.0 L4.15 14.15 Q4.2 14.85 2.95 13.45 1.6 11.95 1.15 10.9 L0.5 9.25 3.0 10.7 4.35 12.75 8.15 14.0" fill="#3b2323" fill-rule="evenodd" stroke="none"/>
    <path d="M8.55 2.7 L9.5 4.3 9.85 5.8 9.85 5.95 9.65 7.7 9.2 9.15 Q8.75 10.45 8.6 11.9 L8.6 11.75 8.45 12.5 8.45 12.65 8.15 14.0 4.15 14.15 Q4.2 14.85 2.95 13.45 1.6 11.95 1.15 10.9 L0.5 9.25 M8.55 2.7 Q7.5 1.6 6.35 2.7 L5.35 4.05 4.75 5.1 4.75 7.5 3.0 10.7 4.35 12.75 8.15 14.0" fill="none" stroke="#0e0808" stroke-linecap="round" stroke-linejoin="round" stroke-width="1.0"/>
    <path d="M0.5 9.25 L0.0 6.7 Q-0.15 5.35 0.8 3.35 1.7 1.35 2.5 0.5 3.3 -0.35 5.55 0.2 7.8 0.75 8.55 2.7 M3.0 10.7 L0.5 9.25" fill="none" stroke="#0a0a0a" stroke-linecap="round" stroke-linejoin="round" stroke-width="1.0"/>
    <path d="M2.45 8.7 L3.3 7.0" fill="none" stroke="#ff094f" stroke-linecap="round" stroke-linejoin="round" stroke-width="1.0"/>
  </g>
</svg>
