<?xml version="1.0" encoding="UTF-8" standalone="no"?>
<svg xmlns:xlink="http://www.w3.org/1999/xlink" height="25.15px" width="59.65px" xmlns="http://www.w3.org/2000/svg">
  <g transform="matrix(1.0, 0.0, 0.0, 1.0, 22.65, 9.4)">
    <path d="M32.5 1.7 L32.5 4.1 29.1 4.95 26.35 6.05 26.25 6.05 23.15 6.65 20.45 6.35 20.45 1.7 32.5 1.7 M-2.2 15.0 L-4.75 14.95 -4.75 12.95 -2.8 13.2 -2.2 15.0 M-2.45 7.15 Q-2.15 5.75 -3.9 5.25 L-2.55 3.8 2.7 3.8 2.7 5.2 1.9 8.65 -0.55 8.65 -1.35 7.15 -2.45 7.15 M-5.2 -3.05 L-4.3 -4.4 -4.3 -5.85 -2.95 -5.85 -2.3 -5.85 -2.3 -4.5 2.25 -4.5 3.1 -3.05 2.55 -3.05 0.95 -3.05 -5.2 -3.05 M29.1 3.6 L29.1 4.95 29.1 3.6 M23.15 4.9 L23.15 6.65 23.15 4.9 M26.25 6.05 L26.25 4.35 26.25 6.05 M-8.65 2.2 L-9.5 3.5 -12.35 3.5 -17.25 3.5 -17.7 2.2 -8.65 2.2" fill="#484848" fill-rule="evenodd" stroke="none"/>
    <path d="M7.4 -3.05 L13.5 -3.05 14.4 -4.4 16.45 -4.4 17.0 -3.6 33.35 -2.8 33.85 -1.55 32.75 1.1 32.5 1.7 20.45 1.7 20.05 1.5 20.45 1.7 20.45 6.35 20.45 13.35 18.35 13.35 18.35 6.2 18.35 1.5 16.95 0.15 12.0 0.15 12.65 -0.6 13.5 -3.05 12.65 -0.6 12.0 0.15 10.45 1.45 10.45 6.2 10.45 13.35 8.7 13.35 8.7 8.65 8.7 5.2 8.7 1.6 7.45 1.65 7.4 -3.05 M-13.05 4.85 L-17.2 4.85 -17.8 11.05 -20.95 10.1 Q-20.65 3.55 -22.15 -2.3 L-19.3 -2.35 -18.65 -0.6 -14.4 -1.4 -6.95 -3.15 -6.95 1.95 -6.85 1.95 -8.65 2.2 -17.7 2.2 -17.25 3.5 -17.15 3.85 -17.2 4.85 -17.15 3.85 -17.25 3.5 -12.35 3.5 -13.05 4.85 M-5.65 -3.05 L-5.2 -3.05 0.95 -3.05 -0.4 1.85 -5.65 1.95 -5.65 -3.05 M3.1 -3.05 L5.05 -3.05 4.95 1.7 2.6 1.75 2.55 -3.05 3.1 -3.05 M20.05 1.5 L18.35 1.5 20.05 1.5 M30.35 -1.05 L28.6 -1.05 30.35 -1.05 M25.45 -1.05 L23.6 -1.05 25.45 -1.05 M10.3 1.55 L10.45 1.45 10.3 1.55 8.7 1.6 10.3 1.55 M9.3 -1.7 L9.3 0.35 9.3 -1.7 M-4.05 -1.2 L-3.1 -1.2 -3.1 0.25 -4.0 0.25 -3.1 0.25 -3.1 -1.2 -4.05 -1.2 M-18.65 -0.6 L-17.7 2.2 -18.65 -0.6 M-9.95 0.15 L-13.25 0.15 -14.4 -1.4 -13.25 0.15 -9.95 0.15" fill="#cccccc" fill-rule="evenodd" stroke="none"/>
    <path d="M5.05 -3.05 L7.4 -3.05 7.45 1.65 4.95 1.7 5.05 -3.05 M0.95 -3.05 L2.55 -3.05 2.6 1.75 -0.4 1.85 0.95 -3.05" fill="#a5a56b" fill-rule="evenodd" stroke="none"/>
    <path d="M33.85 -1.55 L36.5 -1.55 36.5 1.1 32.75 1.1 33.85 -1.55 M18.35 13.35 Q14.3 15.25 10.45 13.35 L10.45 6.2 10.45 1.45 12.0 0.15 16.95 0.15 18.35 1.5 18.35 6.2 10.45 6.2 18.35 6.2 18.35 13.35 M2.3 8.65 L1.8 10.55 1.45 12.15 1.05 13.7 0.9 14.35 -0.15 15.25 -2.1 15.25 -2.2 15.0 -2.8 13.2 -4.75 12.95 -5.15 12.85 Q-4.55 9.4 -2.85 7.15 L-2.45 7.15 -1.35 7.15 -0.55 8.65 1.9 8.65 2.3 8.65 M-6.95 -3.15 L-5.65 -3.15 -5.65 -3.05 -5.65 1.95 -6.85 1.95 -6.95 1.95 -6.95 -3.15 M17.45 1.95 L16.8 1.15 12.15 1.15 11.35 1.8 11.35 5.3 17.45 5.3 17.45 1.95 M15.7 10.85 L14.9 10.05 15.7 10.85 M14.9 8.8 L15.75 7.95 14.9 8.8 M12.95 10.8 L13.65 10.05 12.95 10.8 M13.65 8.85 L12.85 8.0 13.65 8.85 M0.0 12.15 L1.45 12.15 0.0 12.15 M0.25 10.55 L1.8 10.55 0.25 10.55 M14.7 12.5 L11.65 12.5 14.7 12.5 M-0.3 13.7 L1.05 13.7 -0.3 13.7" fill="#2b2b2b" fill-rule="evenodd" stroke="none"/>
    <path d="M17.45 1.95 L17.45 5.3 11.35 5.3 11.35 1.8 12.15 1.15 16.8 1.15 17.45 1.95 M15.3 3.4 L13.35 3.4 15.3 3.4" fill="#b7b780" fill-rule="evenodd" stroke="none"/>
    <path d="M-3.9 5.25 L-10.15 5.25 -11.7 6.0 Q-12.4 6.4 -13.05 4.85 L-12.35 3.5 -9.5 3.5 -8.65 2.2 -6.85 1.95 -5.65 1.95 -0.4 1.85 2.6 1.75 4.95 1.7 7.45 1.65 8.7 1.6 8.7 5.2 3.75 5.2 2.7 5.2 2.7 3.8 -2.55 3.8 -3.9 5.25 M6.3 3.45 L5.85 3.45 6.3 3.45 M5.85 3.45 L5.1 3.45 5.85 3.45" fill="#999999" fill-rule="evenodd" stroke="none"/>
    <path d="M13.5 -3.05 L14.4 -4.4 16.45 -4.4 17.0 -3.6 33.35 -2.8 33.85 -1.55 32.75 1.1 32.5 1.7 32.5 4.1 29.1 4.95 26.35 6.05 26.25 6.05 23.15 6.65 20.45 6.35 20.45 13.35 18.35 13.35 M10.45 13.35 L8.7 13.35 8.7 8.65 2.3 8.65 M-2.2 15.0 L-4.75 14.95 -4.75 12.95 M-2.45 7.15 Q-2.15 5.75 -3.9 5.25 L-10.15 5.25 -11.7 6.0 Q-12.4 6.4 -13.05 4.85 L-17.2 4.85 -17.8 11.05 -20.95 10.1 Q-20.65 3.55 -22.15 -2.3 L-19.3 -2.35 -18.65 -0.6 -14.4 -1.4 -6.95 -3.15 M-5.65 -3.05 L-5.2 -3.05 -4.3 -4.4 -4.3 -5.85 -2.95 -5.85 -2.3 -5.85 -2.3 -4.5 2.25 -4.5 3.1 -3.05 M20.05 1.5 L20.45 1.7 32.5 1.7 M23.6 -1.05 L25.45 -1.05 M28.6 -1.05 L30.35 -1.05 M26.25 4.35 L26.25 6.05 M23.15 6.65 L23.15 4.9 M29.1 4.95 L29.1 3.6 M20.45 1.7 L20.45 6.35 M10.45 1.45 L10.3 1.55 M8.7 5.2 L8.7 8.65 M5.1 3.45 L5.85 3.45 M2.7 5.2 L3.75 5.2 8.7 5.2 M-3.9 5.25 L-2.55 3.8 2.7 3.8 2.7 5.2 1.9 8.65 M-12.35 3.5 L-13.05 4.85 M-17.25 3.5 L-17.15 3.85 -17.2 4.85" fill="none" stroke="#333333" stroke-linecap="round" stroke-linejoin="round" stroke-width="1.0"/>
    <path d="M5.05 -3.05 L4.95 1.7 M7.45 1.65 L7.4 -3.05 M2.55 -3.05 L2.6 1.75 M-0.4 1.85 L0.95 -3.05" fill="none" stroke="#7b7b51" stroke-linecap="round" stroke-linejoin="round" stroke-width="1.0"/>
    <path d="M17.45 1.95 L16.8 1.15 12.15 1.15 11.35 1.8 11.35 5.3 17.45 5.3 17.45 1.95 M13.35 3.4 L15.3 3.4" fill="none" stroke="#7a7a4f" stroke-linecap="round" stroke-linejoin="round" stroke-width="1.0"/>
    <path d="M12.85 8.0 L13.65 8.85 M13.65 10.05 L12.95 10.8 M15.75 7.95 L14.9 8.8 M14.9 10.05 L15.7 10.85" fill="none" stroke="#cccccc" stroke-linecap="round" stroke-linejoin="round" stroke-width="1.0"/>
    <path d="M2.3 8.65 L1.8 10.55 1.45 12.15 1.05 13.7 0.9 14.35 -0.15 15.25 -2.1 15.25 -2.2 15.0 -2.8 13.2 -4.75 12.95 -5.15 12.85 Q-4.55 9.4 -2.85 7.15 L-2.45 7.15 -1.35 7.15 -0.55 8.65 1.9 8.65 2.3 8.65 M1.8 10.55 L0.25 10.55 M1.45 12.15 L0.0 12.15 M3.75 5.2 Q3.75 6.8 4.6 7.3 M1.05 13.7 L-0.3 13.7" fill="none" stroke="#1e1e1e" stroke-linecap="round" stroke-linejoin="round" stroke-width="1.0"/>
    <path d="M5.85 3.45 L6.3 3.45" fill="none" stroke="#d3d3d3" stroke-linecap="round" stroke-linejoin="round" stroke-width="1.0"/>
    <path d="M11.65 12.5 L14.7 12.5 M9.3 0.35 L9.3 -1.7" fill="none" stroke="#22d2d2" stroke-linecap="round" stroke-linejoin="round" stroke-width="1.0"/>
    <path d="M-2.95 -5.85 L-2.05 -8.9" fill="none" stroke="#e8d8d4" stroke-linecap="round" stroke-linejoin="round" stroke-width="1.0"/>
    <path d="M4.95 1.7 L7.45 1.65 8.7 1.6 8.7 5.2 M2.6 1.75 L4.95 1.7 M13.5 -3.05 L12.65 -0.6 12.0 0.15 16.95 0.15 18.35 1.5 20.05 1.5 M10.3 1.55 L8.7 1.6 M12.0 0.15 L10.45 1.45 10.45 6.2 M18.35 6.2 L18.35 1.5 M-4.0 0.25 L-3.1 0.25 -3.1 -1.2 -4.05 -1.2 M-6.85 1.95 L-8.65 2.2 M-0.4 1.85 L-5.65 1.95 M-17.7 2.2 L-18.65 -0.6 M-14.4 -1.4 L-13.25 0.15 -9.95 0.15 M2.6 1.75 L-0.4 1.85" fill="none" stroke="#696969" stroke-linecap="round" stroke-linejoin="round" stroke-width="1.0"/>
    <path d="M33.85 -1.55 L36.5 -1.55 36.5 1.1 32.75 1.1" fill="none" stroke="#1c1c1c" stroke-linecap="round" stroke-linejoin="round" stroke-width="1.0"/>
    <path d="M18.35 13.35 Q14.3 15.25 10.45 13.35 L10.45 6.2 18.35 6.2 18.35 13.35" fill="none" stroke="#212121" stroke-linecap="round" stroke-linejoin="round" stroke-width="1.0"/>
    <path d="M5.05 -3.05 L7.4 -3.05 13.5 -3.05 M3.1 -3.05 L5.05 -3.05 M2.55 -3.05 L3.1 -3.05 M0.95 -3.05 L2.55 -3.05 M-8.65 2.2 L-9.5 3.5 -12.35 3.5 -17.25 3.5 -17.7 2.2 -8.65 2.2 M0.95 -3.05 L-5.2 -3.05" fill="none" stroke="#353535" stroke-linecap="round" stroke-linejoin="round" stroke-width="1.0"/>
    <path d="M-6.95 -3.15 L-5.65 -3.15 -5.65 -3.05 -5.65 1.95 -6.85 1.95 -6.95 1.95 -6.95 -3.15 Z" fill="none" stroke="#191919" stroke-linecap="round" stroke-linejoin="round" stroke-width="1.0"/>
    <path d="M14.15 -1.85 L15.0 -2.45 32.65 -1.85 M-2.05 -1.45 L11.9 -1.45" fill="none" stroke="#ffffff" stroke-linecap="round" stroke-linejoin="round" stroke-opacity="0.3019608" stroke-width="1.0"/>
    <path d="M31.9 0.75 L18.8 0.75 17.35 -0.85 13.8 -0.85" fill="none" stroke="#000000" stroke-linecap="round" stroke-linejoin="round" stroke-opacity="0.101960786" stroke-width="1.0"/>
  </g>
</svg>
