<?xml version="1.0" encoding="UTF-8" standalone="no"?>
<svg xmlns:xlink="http://www.w3.org/1999/xlink" height="17.8px" width="17.8px" xmlns="http://www.w3.org/2000/svg">
  <g transform="matrix(1.0, 0.0, 0.0, 1.0, 9.0, 8.95)">
    <path d="M8.8 -0.05 Q8.8 3.65 6.2 6.25 3.6 8.85 -0.1 8.85 -3.8 8.85 -6.4 6.25 -9.0 3.65 -9.0 -0.05 -9.0 -3.75 -6.4 -6.35 -3.8 -8.95 -0.1 -8.95 3.6 -8.95 6.2 -6.35 8.8 -3.75 8.8 -0.05" fill="url(#gradient0)" fill-rule="evenodd" stroke="none"/>
    <path d="M1.15 -1.2 Q1.65 -0.7 1.65 0.0 1.65 0.7 1.15 1.15 0.7 1.65 0.0 1.65 -0.7 1.65 -1.2 1.15 L-1.65 0.0 Q-1.65 -0.7 -1.2 -1.2 -0.7 -1.65 0.0 -1.65 L1.15 -1.2" fill="#00ffe9" fill-rule="evenodd" stroke="none"/>
    <path d="M1.15 -1.2 Q1.65 -0.7 1.65 0.0 1.65 0.7 1.15 1.15 0.7 1.65 0.0 1.65 -0.7 1.65 -1.2 1.15 L-1.65 0.0 Q-1.65 -0.7 -1.2 -1.2 -0.7 -1.65 0.0 -1.65 L1.15 -1.2 Z" fill="none" stroke="#00a5aa" stroke-linecap="round" stroke-linejoin="round" stroke-width="1.0"/>
  </g>
  <defs>
    <radialGradient cx="0" cy="0" gradientTransform="matrix(0.0102, 0.0, 0.0, 0.0102, -0.1, -0.05)" gradientUnits="userSpaceOnUse" id="gradient0" r="819.2" spreadMethod="pad">
      <stop offset="0.0" stop-color="#00ffe9" stop-opacity="0.3019608"/>
      <stop offset="1.0" stop-color="#00ffe9" stop-opacity="0.0"/>
    </radialGradient>
  </defs>
</svg>
