<?xml version="1.0" encoding="UTF-8" standalone="no"?>
<svg xmlns:ffdec="https://www.free-decompiler.com/flash" xmlns:xlink="http://www.w3.org/1999/xlink" ffdec:objectType="shape" height="19.7px" width="17.1px" xmlns="http://www.w3.org/2000/svg">
  <g transform="matrix(1.0, 0.0, 0.0, 1.0, 8.35, 5.8)">
    <path d="M1.7 -5.25 Q3.65 -5.1 4.6 -3.4 L2.75 -3.1 0.95 0.45 -5.85 -0.5 Q-5.5 -3.0 -3.85 -4.15 -2.5 -5.1 0.6 -5.3 L1.7 -5.25" fill="#333333" fill-rule="evenodd" stroke="none"/>
    <path d="M1.7 -5.25 L0.6 -5.3 Q-2.5 -5.1 -3.85 -4.15 -5.5 -3.0 -5.85 -0.5 L0.95 0.45 2.75 -3.1 4.6 -3.4 Q3.65 -5.1 1.7 -5.25 Z" fill="none" stroke="#2b2927" stroke-linecap="round" stroke-linejoin="round" stroke-width="1.0"/>
    <path d="M5.3 -3.4 L6.45 -2.05 Q7.75 -0.25 8.05 1.55 8.45 4.4 8.1 8.4 L4.95 13.4 0.85 13.0 1.1 8.25 -1.75 4.85 2.75 -3.1 5.3 -3.4" fill="url(#gradient0)" fill-rule="evenodd" stroke="none"/>
    <path d="M0.85 12.95 L4.95 13.4 8.1 8.35 3.75 4.85 5.3 -3.45 6.45 -2.1 Q7.7 -0.3 8.0 1.55 8.45 4.35 8.1 8.35" fill="none" stroke="#2b2927" stroke-linecap="round" stroke-linejoin="round" stroke-width="1.0"/>
    <path d="M-6.05 5.45 L-1.8 4.85 1.0 8.25 0.8 13.0 -4.5 12.5 -6.05 5.45" fill="#333333" fill-rule="evenodd" stroke="none"/>
    <path d="M0.65 0.5 L-1.85 4.8 -6.25 5.45 Q-9.15 3.05 -6.7 0.15 L-5.95 -0.5 0.65 0.5" fill="url(#gradient1)" fill-rule="evenodd" stroke="none"/>
    <path d="M-1.85 4.8 L-6.05 5.4 -4.5 12.45 1.0 12.95" fill="none" stroke="#2b2927" stroke-linecap="round" stroke-linejoin="round" stroke-width="1.0"/>
    <path d="M-6.05 5.4 L-7.85 4.15 -7.5 0.65 -5.9 -0.5 0.6 0.45" fill="none" stroke="#2b2927" stroke-linecap="round" stroke-linejoin="round" stroke-width="1.0"/>
    <path d="M5.25 -3.45 L2.7 -3.1 -1.85 4.85 1.0 8.2 3.6 4.95 M1.0 8.2 L0.75 12.95" fill="none" stroke="#2b2927" stroke-linecap="round" stroke-linejoin="round" stroke-width="1.0"/>
  </g>
  <defs>
    <radialGradient cx="0" cy="0" gradientTransform="matrix(0.0138, 0.0, 0.0, 0.0138, 3.3, 7.7)" gradientUnits="userSpaceOnUse" id="gradient0" r="819.2" spreadMethod="pad">
      <stop offset="0.0" stop-color="#4d4946"/>
      <stop offset="1.0" stop-color="#3c3b38"/>
      <stop offset="1.0" stop-color="#333333"/>
    </radialGradient>
    <radialGradient cx="0" cy="0" gradientTransform="matrix(0.0057, 0.0, 0.0, 0.0057, -3.6, 2.5)" gradientUnits="userSpaceOnUse" id="gradient1" r="819.2" spreadMethod="pad">
      <stop offset="0.0" stop-color="#47423c"/>
      <stop offset="1.0" stop-color="#635547"/>
    </radialGradient>
  </defs>
</svg>
