<?xml version="1.0" encoding="UTF-8" standalone="no"?>
<svg xmlns:ffdec="https://www.free-decompiler.com/flash" xmlns:xlink="http://www.w3.org/1999/xlink" ffdec:objectType="shape" height="20.45px" width="18.85px" xmlns="http://www.w3.org/2000/svg">
  <g transform="matrix(1.0, 0.0, 0.0, 1.0, 9.2, 5.05)">
    <path d="M-6.2 -3.5 L-2.65 -1.5 2.65 -2.05 5.95 -4.5 6.85 -1.45 0.95 1.7 1.05 10.2 -3.8 9.95 -6.7 6.05 -6.45 3.4 -7.25 1.7 -6.2 -3.5" fill="#2c1b38" fill-rule="evenodd" stroke="none"/>
    <path d="M-6.2 -3.5 L-7.25 1.7 -6.45 3.4 -6.7 6.05 -3.8 9.95 1.05 10.2 0.95 1.7 6.85 -1.45 5.95 -4.5 2.65 -2.05 -2.65 -1.5 -6.2 -3.5 Z" fill="none" stroke="#08060a" stroke-linecap="round" stroke-linejoin="round" stroke-width="0.9500000000000001"/>
    <path d="M0.95 1.7 L7.7 -2.1 9.2 10.85 3.0 11.3 1.05 10.2 0.95 1.7" fill="url(#gradient0)" fill-rule="evenodd" stroke="none"/>
    <path d="M0.95 1.7 L1.05 10.2 3.0 11.3 9.2 10.85 7.7 -2.1 0.95 1.7 Z" fill="none" stroke="#120c17" stroke-linecap="round" stroke-linejoin="round" stroke-width="0.9500000000000001"/>
    <path d="M-6.2 -3.5 L-2.9 -2.55 2.25 -4.6 5.95 -4.5 6.85 -1.45 0.95 1.7 0.95 4.75 -6.6 4.75 -8.75 2.5 -6.2 -3.5" fill="#1c1224" fill-rule="evenodd" stroke="none"/>
    <path d="M-6.2 -3.5 L-8.75 2.5 -6.6 4.75 0.95 4.75 0.95 1.7 6.85 -1.45 5.95 -4.5 2.25 -4.6 -2.9 -2.55 -6.2 -3.5 Z" fill="none" stroke="#120c17" stroke-linecap="round" stroke-linejoin="round" stroke-width="0.9500000000000001"/>
    <path d="M-4.7 8.7 L0.95 8.1 2.65 10.85 8.35 11.45 7.8 14.75 -2.65 14.95 -4.7 8.7" fill="#1c1224" fill-rule="evenodd" stroke="none"/>
    <path d="M-4.7 8.7 L-2.65 14.95 7.8 14.75 8.35 11.45 2.65 10.85 0.95 8.1 -4.7 8.7 Z" fill="none" stroke="#120c17" stroke-linecap="round" stroke-linejoin="round" stroke-width="0.9500000000000001"/>
    <path d="M2.75 0.75 L-7.45 -0.5 -6.2 -3.5 -2.9 -2.55 2.25 -4.6 5.95 -4.5 6.85 -1.45 2.75 0.75" fill="#2c1b38" fill-rule="evenodd" stroke="none"/>
    <path d="M2.75 0.75 L-7.45 -0.5 -6.2 -3.5 -2.9 -2.55 2.25 -4.6 5.95 -4.5 6.85 -1.45 2.75 0.75 Z" fill="none" stroke="#120c17" stroke-linecap="round" stroke-linejoin="round" stroke-width="0.9500000000000001"/>
  </g>
  <defs>
    <radialGradient cx="0" cy="0" gradientTransform="matrix(0.0057, 0.0, 0.0, 0.0087, 6.45, 9.1)" gradientUnits="userSpaceOnUse" id="gradient0" r="819.2" spreadMethod="pad">
      <stop offset="0.0" stop-color="#3e234c"/>
      <stop offset="1.0" stop-color="#2c1b38"/>
    </radialGradient>
  </defs>
</svg>
