<?xml version="1.0" encoding="UTF-8" standalone="no"?>
<svg xmlns:ffdec="https://www.free-decompiler.com/flash" xmlns:xlink="http://www.w3.org/1999/xlink" ffdec:objectType="shape" height="22.05px" width="15.4px" xmlns="http://www.w3.org/2000/svg">
  <g transform="matrix(1.0, 0.0, 0.0, 1.0, 1.15, 3.6)">
    <path d="M2.95 9.05 Q1.9 7.65 1.25 5.6 0.3 2.55 1.05 -0.2 1.95 -2.9 4.6 -3.05 7.2 -3.25 9.0 -2.0 10.8 -0.8 11.6 2.1 12.1 3.9 12.0 5.6 L12.4 6.7 12.85 10.7 Q13.1 13.65 12.0 15.75 10.85 17.8 8.6 17.95 6.3 18.05 4.65 16.35 2.95 14.55 2.85 11.3 L2.95 9.05 Q3.2 7.15 4.15 5.65 5.7 3.25 8.35 3.8 10.55 4.3 12.0 5.6 10.55 4.3 8.35 3.8 5.7 3.25 4.15 5.65 3.2 7.15 2.95 9.05" fill="#252721" fill-rule="evenodd" stroke="none"/>
    <path d="M2.95 9.05 Q3.2 7.15 4.15 5.65 5.7 3.25 8.35 3.8 10.55 4.3 12.0 5.6" fill="none" stroke="#202319" stroke-linecap="round" stroke-linejoin="round" stroke-width="1.0"/>
    <path d="M2.95 9.05 Q1.9 7.65 1.25 5.6 0.3 2.55 1.05 -0.2 1.95 -2.9 4.6 -3.05 7.2 -3.25 9.0 -2.0 10.8 -0.8 11.6 2.1 12.1 3.9 12.0 5.6" fill="none" stroke="#1c1d10" stroke-linecap="round" stroke-linejoin="round" stroke-width="1.0"/>
    <path d="M12.0 5.6 L12.4 6.7 12.85 10.7 Q13.1 13.65 12.0 15.75 10.85 17.8 8.6 17.95 6.3 18.05 4.65 16.35 2.95 14.55 2.85 11.3 L2.95 9.05" fill="none" stroke="#21201f" stroke-linecap="round" stroke-linejoin="round" stroke-width="1.0"/>
    <path d="M10.9 3.65 L11.95 12.3 9.7 14.1 8.8 10.65 8.1 8.15 7.4 5.75 0.0 5.75 -0.65 3.15 Q0.3 0.65 4.0 0.1 8.5 0.2 10.75 2.55 L10.9 3.65" fill="#746e69" fill-rule="evenodd" stroke="none"/>
    <path d="M9.7 14.1 L3.05 14.1 2.05 14.1 1.15 10.6 0.55 8.15 0.0 5.75 7.4 5.75 8.1 8.15 8.8 10.65 9.7 14.1 M0.55 8.15 L8.1 8.15 0.55 8.15 M8.8 10.65 L1.15 10.6 8.8 10.65" fill="#54504d" fill-rule="evenodd" stroke="none"/>
    <path d="M9.7 14.1 L11.95 12.3 10.9 3.65 12.9 5.05 13.75 13.05 10.45 15.75 3.5 15.75 3.05 14.1 9.7 14.1" fill="#855f3d" fill-rule="evenodd" stroke="none"/>
    <path d="M10.9 3.65 L11.95 12.3 9.7 14.1 3.05 14.1 3.5 15.75 10.45 15.75 13.75 13.05 12.9 5.05 10.9 3.65 10.75 2.55 Q8.5 0.2 4.0 0.1 0.3 0.65 -0.65 3.15 L0.0 5.75 7.4 5.75 8.1 8.15 8.8 10.65 9.7 14.1 M1.15 10.6 L8.8 10.65 M8.1 8.15 L0.55 8.15 1.15 10.6 2.05 14.1 3.05 14.1 M0.55 8.15 L0.0 5.75" fill="none" stroke="#21201f" stroke-linecap="round" stroke-linejoin="round" stroke-width="1.0"/>
  </g>
</svg>
