<?xml version="1.0" encoding="UTF-8" standalone="no"?>
<svg xmlns:ffdec="https://www.free-decompiler.com/flash" xmlns:xlink="http://www.w3.org/1999/xlink" ffdec:objectType="shape" height="32.7px" width="18.2px" xmlns="http://www.w3.org/2000/svg">
  <g transform="matrix(1.0, 0.0, 0.0, 1.0, -2.15, 2.5)">
    <path d="M16.7 6.65 L17.1 7.4 Q17.5 8.25 17.35 9.25 17.1 15.1 15.5 20.65 L14.9 22.45 Q14.35 23.8 13.2 24.75 11.75 25.65 10.0 25.35 9.0 25.3 7.55 22.8 L7.45 22.45 Q6.6 18.7 6.75 13.85 L7.05 9.65 Q7.85 7.4 8.85 6.55 L14.6 5.5 Q15.85 5.5 16.7 6.65" fill="url(#gradient0)" fill-rule="evenodd" stroke="none"/>
    <path d="M16.7 6.65 L17.1 7.4 Q17.5 8.25 17.35 9.25 17.1 15.1 15.5 20.65 L14.9 22.45 Q14.35 23.8 13.2 24.75 11.75 25.65 10.0 25.35 9.0 25.3 7.55 22.8 L7.45 22.45 Q6.6 18.7 6.75 13.85 L7.05 9.65 Q7.85 7.4 8.85 6.55 L14.6 5.5 Q15.85 5.5 16.7 6.65 Z" fill="none" stroke="#070707" stroke-linecap="round" stroke-linejoin="round" stroke-width="1.0"/>
    <path d="M19.5 9.9 L18.8 14.55 Q17.9 18.65 16.3 22.4 11.65 25.85 7.0 22.45 L6.05 14.75 7.1 13.05 Q8.7 10.65 10.55 9.35 14.2 7.7 18.45 7.8 19.55 8.85 19.5 9.9" fill="url(#gradient1)" fill-rule="evenodd" stroke="none"/>
    <path d="M19.5 9.9 Q19.55 8.85 18.45 7.8 14.2 7.7 10.55 9.35 8.7 10.65 7.1 13.05 L6.05 14.75 7.0 22.45 Q11.65 25.85 16.3 22.4 17.9 18.65 18.8 14.55 L19.5 9.9 Z" fill="none" stroke="#0b0b0b" stroke-linecap="round" stroke-linejoin="round" stroke-width="1.0"/>
    <path d="M19.85 12.0 L19.1 15.0 Q14.9 16.6 10.7 15.65 L11.35 13.05 Q16.75 13.05 19.85 12.0 M18.7 16.95 L17.8 19.8 Q13.8 21.45 10.65 19.8 L10.65 17.7 18.7 16.95" fill="#171717" fill-rule="evenodd" stroke="none"/>
    <path d="M18.7 16.95 L10.65 17.7 10.65 19.8 Q13.8 21.45 17.8 19.8 L18.7 16.95 M19.85 12.0 Q16.75 13.05 11.35 13.05 L10.7 15.65 Q14.9 16.6 19.1 15.0 L19.85 12.0 Z" fill="none" stroke="#0b0b0b" stroke-linecap="round" stroke-linejoin="round" stroke-width="1.0"/>
    <path d="M14.25 1.8 L14.8 0.35 14.0 -1.7 15.85 -2.0 18.15 0.15 17.35 1.75 17.3 1.7 15.95 1.2 15.6 2.3 14.25 1.8 M14.35 8.15 L14.75 8.35 14.7 10.25 13.85 11.2 13.0 10.5 10.75 8.75 9.75 7.9 10.45 7.25 10.55 7.3 12.15 7.95 13.35 7.3 14.35 8.15" fill="#484848" fill-rule="evenodd" stroke="none"/>
    <path d="M14.25 1.8 L15.6 2.3 15.95 1.2 17.3 1.7 14.35 8.15 13.35 7.3 12.15 7.95 10.55 7.3 10.45 7.25 11.35 5.95 12.05 6.2 12.8 5.45 12.55 4.4 14.25 1.8" fill="#232323" fill-rule="evenodd" stroke="none"/>
    <path d="M13.0 10.5 L10.85 15.05 7.2 22.85 4.55 29.7 2.65 25.25 Q3.3 23.45 5.75 18.55 7.55 14.6 10.75 8.75 L13.0 10.5" fill="#1c1c1c" fill-rule="evenodd" stroke="none"/>
    <path d="M13.0 10.5 L10.85 15.05 7.2 22.85 4.55 29.7 2.65 25.25 Q3.3 23.45 5.75 18.55 7.55 14.6 10.75 8.75" fill="none" stroke="#000000" stroke-linecap="round" stroke-linejoin="round" stroke-width="1.0"/>
    <path d="M17.3 1.7 L17.35 1.75 18.15 0.15 15.85 -2.0 14.0 -1.7 14.8 0.35 14.25 1.8 15.6 2.3 15.95 1.2 17.3 1.7 M14.35 8.15 L14.75 8.35 14.7 10.25 13.85 11.2 13.0 10.5 10.75 8.75 9.75 7.9 10.45 7.25 10.55 7.3 12.15 7.95 13.35 7.3 14.35 8.15" fill="none" stroke="#191919" stroke-linecap="round" stroke-linejoin="round" stroke-width="1.0"/>
    <path d="M17.3 1.7 L14.35 8.15 M10.45 7.25 L11.35 5.95 12.05 6.2 12.8 5.45 12.55 4.4 14.25 1.8" fill="none" stroke="#0e0e0e" stroke-linecap="round" stroke-linejoin="round" stroke-width="1.0"/>
  </g>
  <defs>
    <radialGradient cx="0" cy="0" gradientTransform="matrix(0.0056, 0.0142, -0.0118, 0.0047, 9.2, 17.45)" gradientUnits="userSpaceOnUse" id="gradient0" r="819.2" spreadMethod="pad">
      <stop offset="0.0" stop-color="#000000"/>
      <stop offset="1.0" stop-color="#202020"/>
    </radialGradient>
    <radialGradient cx="0" cy="0" gradientTransform="matrix(-0.006, 0.0162, -0.0113, -0.0042, 14.7, 16.0)" gradientUnits="userSpaceOnUse" id="gradient1" r="819.2" spreadMethod="pad">
      <stop offset="0.0" stop-color="#333333"/>
      <stop offset="1.0" stop-color="#070707"/>
    </radialGradient>
  </defs>
</svg>
