<?xml version="1.0" encoding="UTF-8" standalone="no"?>
<svg xmlns:ffdec="https://www.free-decompiler.com/flash" xmlns:xlink="http://www.w3.org/1999/xlink" ffdec:objectType="shape" height="21.3px" width="13.8px" xmlns="http://www.w3.org/2000/svg">
  <g transform="matrix(1.0, 0.0, 0.0, 1.0, 1.1, 2.5)">
    <path d="M2.2 -0.9 Q5.0 -2.6 8.25 -1.7 10.05 -0.7 10.35 1.85 L10.1 14.95 Q9.95 16.7 8.55 17.95 6.4 18.65 4.5 17.95 3.35 17.3 2.85 15.0 L0.85 2.3 Q0.85 0.4 2.2 -0.9" fill="#231d1d" fill-rule="evenodd" stroke="none"/>
    <path d="M2.2 -0.9 Q0.85 0.4 0.85 2.3 L2.85 15.0 Q3.35 17.3 4.5 17.95 6.4 18.65 8.55 17.95 9.95 16.7 10.1 14.95 L10.35 1.85 Q10.05 -0.7 8.25 -1.7 5.0 -2.6 2.2 -0.9 Z" fill="none" stroke="#151111" stroke-linecap="round" stroke-linejoin="round" stroke-width="1.0"/>
    <path d="M3.75 12.3 L3.75 14.0 3.6 14.0 Q3.25 14.1 3.15 14.25 L3.1 14.25 2.85 14.5 2.6 14.95 2.55 15.2 2.5 15.2 2.45 15.3 2.4 15.35 2.2 15.65 1.65 15.55 1.4 15.6 0.25 11.7 Q-0.8 7.45 -0.55 3.55 L2.2 2.8 2.55 4.55 3.0 7.75 3.75 12.3 M4.9 4.15 L4.9 2.5 Q7.0 1.55 9.2 1.05 L11.9 1.05 Q12.6 8.05 11.75 13.55 L10.8 15.75 9.0 15.7 Q7.55 15.05 5.85 12.95 L5.7 11.7 4.9 4.15 M6.7 2.4 L7.4 7.85 9.0 9.35 9.0 15.7 9.0 9.35 7.4 7.85 6.7 2.4 M0.25 11.7 L1.5 10.8 1.5 8.65 3.0 7.75 1.5 8.65 1.5 10.8 0.25 11.7 M10.9 2.45 L9.05 2.45 10.9 2.45" fill="#3c0000" fill-rule="evenodd" stroke="none"/>
    <path d="M2.55 4.55 L4.9 4.15 5.7 11.7 3.75 12.3 3.0 7.75 2.55 4.55" fill="#272727" fill-rule="evenodd" stroke="none"/>
    <path d="M3.0 7.75 L1.5 8.65 1.5 10.8 0.25 11.7 M9.0 15.7 L9.0 9.35 7.4 7.85 6.7 2.4" fill="none" stroke="#2c0404" stroke-linecap="round" stroke-linejoin="round" stroke-width="1.0"/>
    <path d="M2.55 4.55 L4.9 4.15 M5.7 11.7 L3.75 12.3" fill="none" stroke="#0e0e0e" stroke-linecap="round" stroke-linejoin="round" stroke-width="1.0"/>
    <path d="M9.05 2.45 L10.9 2.45" fill="none" stroke="#ffd858" stroke-linecap="round" stroke-linejoin="round" stroke-width="1.0"/>
    <path d="M3.75 12.3 L3.75 13.75 Q3.0 15.3 2.2 15.35 L1.3 15.35 Q-0.9 9.7 -0.55 3.55 L2.2 2.8 3.75 12.3 M4.9 4.15 L5.85 12.95 Q8.65 16.5 10.8 15.75 L11.75 13.55 Q12.6 8.05 11.9 1.05 L9.2 1.05 Q7.0 1.55 4.9 2.5 L4.9 4.15 Z" fill="none" stroke="#1e0101" stroke-linecap="round" stroke-linejoin="round" stroke-width="1.0"/>
  </g>
</svg>
