<?xml version="1.0" encoding="UTF-8" standalone="no"?>
<svg xmlns:xlink="http://www.w3.org/1999/xlink" height="21.2px" width="48.55px" xmlns="http://www.w3.org/2000/svg">
  <g transform="matrix(1.0, 0.0, 0.0, 1.0, 23.15, 6.45)">
    <path d="M22.95 0.85 L22.95 -1.8 22.85 -2.25 24.15 -2.25 Q24.85 -2.25 24.9 -0.7 24.9 0.85 24.15 0.85 L22.95 0.85" fill="#40403e" fill-rule="evenodd" stroke="none"/>
    <path d="M-22.55 -1.85 L-20.3 -1.85 -19.65 -1.1 -10.3 -1.1 -9.4 -2.05 -5.05 -2.05 -5.05 -1.1 Q-5.3 0.9 -8.5 0.95 L-22.65 0.95 -22.6 -1.9 -22.55 -1.85" fill="#323335" fill-rule="evenodd" stroke="none"/>
    <path d="M6.55 5.8 L6.55 10.55 -3.05 10.55 Q-2.3 10.1 -2.0 8.7 L1.6 8.7 Q5.0 8.8 6.55 5.8" fill="#47545e" fill-rule="evenodd" stroke="none"/>
    <path d="M7.35 11.7 L9.25 12.0 11.0 11.7 11.0 14.25 7.35 14.25 7.35 11.7" fill="#606060" fill-rule="evenodd" stroke="none"/>
    <path d="M4.45 -5.95 L4.45 -5.25 6.3 -5.25 6.3 -5.95 M4.45 -5.25 L2.7 -5.25 1.05 -5.25 -0.5 -5.25 -0.55 -5.25 -3.0 -5.25 -4.1 -3.05 M2.7 -5.25 L2.7 -5.95 M6.3 -5.25 L9.2 -5.25 M1.05 -5.25 L1.05 -5.95 M-1.85 6.0 L1.45 6.0 Q2.75 5.95 2.85 4.65 L3.05 2.65 M-22.55 -1.85 L-22.6 -1.9 M-0.55 -5.25 L-0.55 -5.95 M-0.1 2.65 Q-0.35 3.85 0.3 4.55" fill="none" stroke="#25292c" stroke-linecap="round" stroke-linejoin="round" stroke-width="1.0"/>
    <path d="M22.95 0.85 L24.15 0.85 Q24.9 0.85 24.9 -0.7 24.85 -2.25 24.15 -2.25 L22.85 -2.25" fill="none" stroke="#2b2b2b" stroke-linecap="round" stroke-linejoin="round" stroke-width="1.0"/>
    <path d="M7.35 11.7 L7.35 14.25 11.0 14.25 11.0 11.7" fill="none" stroke="#333333" stroke-linecap="round" stroke-linejoin="round" stroke-width="1.0"/>
    <path d="M-5.05 -2.05 L-9.4 -2.05 -10.3 -1.1 -19.65 -1.1 -20.3 -1.85 -22.55 -1.85 M-22.65 0.95 L-8.5 0.95" fill="none" stroke="#1d1d1d" stroke-linecap="round" stroke-linejoin="round" stroke-width="1.0"/>
    <path d="M6.55 10.55 L-3.05 10.55 M-2.0 8.7 L1.6 8.7 Q5.0 8.8 6.55 5.8" fill="none" stroke="#293237" stroke-linecap="round" stroke-linejoin="round" stroke-width="1.0"/>
  </g>
</svg>
