<?xml version="1.0" encoding="UTF-8" standalone="no"?>
<svg xmlns:ffdec="https://www.free-decompiler.com/flash" xmlns:xlink="http://www.w3.org/1999/xlink" ffdec:objectType="shape" height="23.6px" width="14.2px" xmlns="http://www.w3.org/2000/svg">
  <g transform="matrix(1.0, 0.0, 0.0, 1.0, 6.95, 7.15)">
    <path d="M5.2 10.05 Q5.65 12.55 5.55 13.9 3.0 15.95 1.9 15.95 0.6 15.95 -0.75 14.9 -2.15 13.85 -3.1 9.65 L-4.15 6.5 -4.3 5.85 Q-4.8 4.8 -4.8 3.6 L-4.9 3.0 -4.95 1.6 -5.1 0.4 -5.1 -1.85 0.1 2.5 Q1.15 3.35 2.1 5.7 2.4 6.05 3.15 9.9 L2.9 12.45 2.9 12.5 Q2.4 12.55 3.4 12.55 4.45 12.55 5.2 10.05 M5.55 13.9 Q3.1 14.8 0.3 13.2 -2.5 11.6 -3.1 9.65 -2.5 11.6 0.3 13.2 3.1 14.8 5.55 13.9 M2.1 5.7 Q-0.5 5.45 -2.55 4.2 -4.45 3.0 -4.95 1.6 -4.45 3.0 -2.55 4.2 -0.5 5.45 2.1 5.7 M-4.3 5.85 Q-3.8 7.05 -2.6 8.05 -0.45 9.9 3.15 9.9 -0.45 9.9 -2.6 8.05 -3.8 7.05 -4.3 5.85" fill="#261414" fill-rule="evenodd" stroke="none"/>
    <path d="M5.2 10.05 Q5.65 12.55 5.55 13.9 3.0 15.95 1.9 15.95 0.6 15.95 -0.75 14.9 -2.15 13.85 -3.1 9.65 L-4.15 6.5 -4.3 5.85 Q-4.8 4.8 -4.8 3.6 L-4.9 3.0 -4.95 1.6 -5.1 0.4 -5.1 -1.85 M3.15 9.9 Q-0.45 9.9 -2.6 8.05 -3.8 7.05 -4.3 5.85 M-4.95 1.6 Q-4.45 3.0 -2.55 4.2 -0.5 5.45 2.1 5.7 M-3.1 9.65 Q-2.5 11.6 0.3 13.2 3.1 14.8 5.55 13.9" fill="none" stroke="#0a0606" stroke-linecap="round" stroke-linejoin="round" stroke-width="1.0"/>
    <path d="M3.35 -4.95 Q3.7 -4.1 4.7 -3.0 6.4 -0.35 6.75 7.9 5.5 9.15 5.35 10.15 L5.45 10.9 Q5.2 11.75 4.15 12.85 L2.6 13.0 Q2.4 12.8 2.95 10.25 L2.9 9.95 Q2.8 8.4 2.05 6.2 L0.95 3.5 Q-0.05 2.3 -3.8 -0.6 L-5.2 -1.85 -5.25 -1.9 Q-6.55 -3.2 -6.45 -3.75 -1.75 -2.15 0.95 -4.95 2.1 -6.85 2.2 -6.6 L3.35 -4.95" fill="url(#gradient0)" fill-rule="evenodd" stroke="none"/>
    <path d="M3.35 -4.95 Q3.7 -4.1 4.7 -3.0 6.4 -0.35 6.75 7.9 5.5 9.15 5.35 10.15 L5.45 10.9 Q5.2 11.75 4.15 12.85 L2.6 13.0 Q2.4 12.8 2.95 10.25 L2.9 9.95 Q2.8 8.4 2.05 6.2 L0.95 3.5 Q-0.05 2.3 -3.8 -0.6 L-5.2 -1.85 -5.25 -1.9 Q-6.55 -3.2 -6.45 -3.75 -1.75 -2.15 0.95 -4.95 2.1 -6.85 2.2 -6.6 L3.35 -4.95 Z" fill="none" stroke="#0a0707" stroke-linecap="round" stroke-linejoin="round" stroke-width="1.0"/>
  </g>
  <defs>
    <linearGradient gradientTransform="matrix(0.0141, 0.0, 0.0, 0.0061, -0.9, -13.65)" gradientUnits="userSpaceOnUse" id="gradient0" spreadMethod="pad" x1="-819.2" x2="819.2">
      <stop offset="0.0" stop-color="#261313"/>
      <stop offset="1.0" stop-color="#683f3f"/>
    </linearGradient>
  </defs>
</svg>
