<?xml version="1.0" encoding="UTF-8" standalone="no"?>
<svg xmlns:xlink="http://www.w3.org/1999/xlink" height="25.45px" width="60.35px" xmlns="http://www.w3.org/2000/svg">
  <g transform="matrix(1.0, 0.0, 0.0, 1.0, 31.95, 8.75)">
    <path d="M6.45 -6.7 L11.65 -6.7 11.65 -5.1 6.45 -5.1 6.45 -6.7 M23.75 -6.45 L23.15 -6.45 23.75 -6.45 M22.75 -6.95 L23.45 -7.85 25.35 -5.05 21.3 -5.05 22.0 -6.05 21.35 -6.95 22.75 -6.95 23.35 -6.95 22.75 -6.95 M-3.35 -6.95 L-2.15 -5.05 -6.15 -5.05 -5.45 -6.05 -6.1 -6.95 -4.7 -6.95 -4.0 -7.85 -3.4 -7.05 -3.35 -6.95 M-3.65 -6.5 L-4.3 -6.5 -3.65 -6.5" fill="#191719" fill-rule="evenodd" stroke="none"/>
    <path d="M8.6 -2.25 L6.45 -2.25 5.8 -4.9 26.05 -4.9 27.6 -3.25 26.1 -0.65 22.05 -0.65 21.85 -1.4 21.35 -1.9 20.55 -2.2 20.25 -2.25 18.35 -2.25 20.25 -2.25 20.55 -2.2 18.35 -2.25 14.55 -2.25 11.1 -2.25 8.6 -2.25 M7.5 6.95 L8.1 4.75 27.0 4.75 26.95 4.8 Q26.0 5.95 25.75 7.45 L23.95 7.65 21.85 6.95 7.5 6.95" fill="#332f32" fill-rule="evenodd" stroke="none"/>
    <path d="M6.45 -2.25 L8.6 -2.25 9.55 0.8 8.6 -2.25 11.1 -2.25 14.55 -2.25 14.55 2.0 12.5 2.0 12.25 2.0 12.2 1.95 11.7 0.8 9.55 0.8 7.15 0.8 6.55 -1.75 6.5 -1.85 6.45 -2.25 M11.1 -2.25 L12.5 2.0 11.1 -2.25" fill="#1e1e1e" fill-rule="evenodd" stroke="none"/>
    <path d="M7.15 0.8 L9.55 0.8 11.7 0.8 12.2 1.95 12.25 2.0 13.15 2.85 13.9 3.05 14.55 3.05 14.7 3.05 15.2 3.05 15.6 3.05 16.2 3.05 20.55 3.05 21.3 2.8 Q22.15 2.4 22.35 1.4 L26.4 1.4 26.9 2.15 27.1 2.45 27.35 2.9 27.9 3.95 27.0 4.75 8.1 4.75 7.45 1.95 7.15 0.8" fill="#262326" fill-rule="evenodd" stroke="none"/>
    <path d="M-12.7 2.55 L-12.2 2.5 -10.65 2.5 -12.7 2.55" fill="#60585f" fill-rule="evenodd" stroke="none"/>
    <path d="M-0.4 6.4 L-0.6 6.3 -2.9 6.0 -3.1 5.65 -3.3 4.95 -3.1 2.55 -0.05 2.55 Q-0.55 3.55 -0.55 4.95 L-0.5 5.55 -0.5 5.8 -0.4 6.4" fill="#376378" fill-rule="evenodd" stroke="none"/>
    <path d="M6.45 -2.25 L6.5 -1.85 6.55 -1.75 7.15 0.8 7.45 1.95 8.1 4.75 7.5 6.95 7.4 7.4 6.45 7.4 3.2 7.4 3.2 4.85 3.75 2.85 3.7 2.55 3.35 1.5 -4.15 1.5 -5.25 0.4 -16.4 0.4 -16.3 -0.1 -18.0 -0.2 -18.9 -0.05 -19.1 0.4 -21.55 0.4 -21.55 -0.35 -23.0 -0.45 -23.75 -0.4 -24.2 0.4 -27.1 0.4 -27.15 -0.35 -26.2 -2.05 6.45 -2.25 M6.05 5.25 L5.85 4.8 Q5.7 4.6 5.4 4.6 L4.85 4.8 4.7 5.25 4.85 5.7 5.4 5.9 Q5.7 5.9 5.85 5.7 L6.05 5.25 M2.2 0.25 L0.5 0.25 2.2 0.25 M-1.45 0.25 L-3.05 0.25 -1.45 0.25" fill="#353a40" fill-rule="evenodd" stroke="none"/>
    <path d="M5.8 -4.9 L6.45 -2.25 -26.2 -2.05 -26.2 -2.15 -27.0 -3.65 -27.5 -4.4 -24.35 -4.4 Q-23.75 -3.85 -23.5 -3.3 L-22.1 -3.25 Q-20.55 -3.1 -19.65 -2.2 L-11.1 -2.2 -10.85 -4.9 5.8 -4.9" fill="#3f464c" fill-rule="evenodd" stroke="none"/>
    <path d="M-26.2 -2.05 L-27.15 -0.35 -27.1 0.4 -26.25 4.25 -25.95 5.2 -25.5 6.65 -25.95 7.8 -26.25 8.45 Q-27.65 8.6 -28.35 9.35 L-28.75 10.1 -30.65 9.85 -30.95 9.4 Q-30.35 7.65 -30.15 5.15 -29.8 -0.05 -31.45 -4.55 L-30.95 -4.95 -29.35 -5.65 Q-28.4 -5.4 -27.5 -4.4 L-27.0 -3.65 -26.2 -2.15 -26.2 -2.05 M-24.35 -4.4 L-24.7 -4.9 -25.4 -5.75 -24.75 -6.0 -21.6 -5.8 Q-18.55 -5.4 -15.75 -6.3 -14.3 -6.75 -13.55 -7.3 L-11.0 -7.0 Q-10.8 -6.1 -10.85 -4.9 L-11.1 -2.2 -19.65 -2.2 Q-20.55 -3.1 -22.1 -3.25 L-23.5 -3.3 Q-23.75 -3.85 -24.35 -4.4" fill="#262a2d" fill-rule="evenodd" stroke="none"/>
    <path d="M-27.1 0.4 L-24.2 0.4 -24.35 1.45 -24.15 2.45 -23.75 2.8 -22.75 3.25 -22.2 3.35 Q-21.85 2.5 -21.6 1.05 L-21.55 0.4 -19.1 0.4 -19.6 2.8 -19.65 4.5 -17.1 6.4 Q-17.3 4.5 -16.9 1.95 L-16.4 0.4 -5.25 0.4 -4.15 1.5 3.35 1.5 3.7 2.55 -0.05 2.55 -3.1 2.55 -3.3 4.95 -3.1 5.65 -2.9 6.0 -4.5 6.15 Q-6.25 6.7 -7.35 9.0 -8.35 11.2 -7.2 12.65 L-5.8 13.65 -11.1 16.2 -17.45 12.7 -17.45 11.95 -17.3 8.75 -23.45 5.2 -25.95 5.2 -26.25 4.25 -27.1 0.4 M3.2 7.4 L6.45 7.4 5.3 11.65 3.25 11.65 3.2 7.4 M-12.7 2.55 Q-13.05 2.65 -13.4 2.9 L-13.95 3.5 Q-14.5 4.1 -14.65 4.8 L-14.65 5.5 -14.65 5.55 -13.45 9.3 -12.5 10.8 -10.35 10.8 -8.25 7.4 -7.5 5.9 Q-6.2 2.85 -8.15 2.5 L-10.1 2.5 -10.65 2.5 -12.2 2.5 -12.7 2.55 M-15.3 10.9 L-15.7 11.1 -15.9 11.55 -15.7 11.95 -15.3 12.2 Q-15.0 12.2 -14.85 11.95 L-14.65 11.55 -14.85 11.1 Q-15.0 10.9 -15.3 10.9 M-10.3 13.9 Q-10.3 13.65 -10.45 13.4 L-10.85 13.25 -11.35 13.4 -11.5 13.9 -11.35 14.35 -10.85 14.6 -10.45 14.35 -10.3 13.9" fill="#353535" fill-rule="evenodd" stroke="none"/>
    <path d="M-6.8 11.15 L-6.25 11.3 -6.15 11.85 -6.25 12.3 -6.8 12.5 -7.2 12.3 -7.45 11.85 -7.2 11.3 Q-7.0 11.15 -6.8 11.15 M-15.3 10.9 Q-15.0 10.9 -14.85 11.1 L-14.65 11.55 -14.85 11.95 Q-15.0 12.2 -15.3 12.2 L-15.7 11.95 -15.9 11.55 -15.7 11.1 -15.3 10.9 M-10.3 13.9 L-10.45 14.35 -10.85 14.6 -11.35 14.35 -11.5 13.9 -11.35 13.4 -10.85 13.25 -10.45 13.4 Q-10.3 13.65 -10.3 13.9" fill="#202020" fill-rule="evenodd" stroke="none"/>
    <path d="M6.05 5.25 L5.85 5.7 Q5.7 5.9 5.4 5.9 L4.85 5.7 4.7 5.25 4.85 4.8 5.4 4.6 Q5.7 4.6 5.85 4.8 L6.05 5.25" fill="#23282c" fill-rule="evenodd" stroke="none"/>
    <path d="M-2.9 6.0 L-3.6 7.65 -3.6 7.7 -3.8 8.25 Q-4.75 10.85 -4.7 13.05 L-4.8 13.15 -4.9 13.2 -5.5 13.4 -5.8 13.65 -7.2 12.65 Q-8.35 11.2 -7.35 9.0 -6.25 6.7 -4.5 6.15 L-2.9 6.0 M-6.8 11.15 Q-7.0 11.15 -7.2 11.3 L-7.45 11.85 -7.2 12.3 -6.8 12.5 -6.25 12.3 -6.15 11.85 -6.25 11.3 -6.8 11.15" fill="#2e2e2e" fill-rule="evenodd" stroke="none"/>
    <path d="M-24.2 0.4 L-23.75 -0.4 -23.0 -0.45 -21.55 -0.35 -21.55 0.4 -21.6 1.05 Q-21.85 2.5 -22.2 3.35 L-22.75 3.25 -23.75 2.8 -24.15 2.45 -24.35 1.45 -24.2 0.4 M-19.1 0.4 L-18.9 -0.05 -18.0 -0.2 -16.3 -0.1 -16.4 0.4 -16.9 1.95 Q-17.3 4.5 -17.1 6.4 L-19.65 4.5 -19.6 2.8 -19.1 0.4" fill="#743b31" fill-rule="evenodd" stroke="none"/>
    <path d="M-3.35 -6.95 L-2.15 -5.05 M-6.15 -5.05 L-5.45 -6.05 -6.1 -6.95 -4.7 -6.95 -4.0 -7.85 -3.4 -7.05" fill="none" stroke="#191719" stroke-linecap="butt" stroke-linejoin="round" stroke-width="1.0"/>
    <path d="M21.35 -6.95 L-3.35 -6.95 -3.4 -7.05 M22.75 -6.95 L23.35 -6.95 M21.35 -6.95 L22.75 -6.95" fill="none" stroke="#191719" stroke-linecap="round" stroke-linejoin="round" stroke-width="1.0"/>
    <path d="M8.6 -2.25 L6.45 -2.25 6.5 -1.85 6.55 -1.75 7.15 0.8 9.55 0.8 11.7 0.8 12.2 1.95 12.25 2.0 13.15 2.85 13.9 3.05 14.55 3.05 14.7 3.05 15.2 3.05 15.6 3.05 16.2 3.05 20.55 3.05 21.3 2.8 Q22.15 2.4 22.35 1.4 L26.4 1.4 26.9 2.15 M8.6 -2.25 L11.1 -2.25 14.55 -2.25 18.35 -2.25 20.25 -2.25 20.55 -2.2 21.35 -1.9 21.85 -1.4 22.05 -0.65 26.1 -0.65 27.6 -3.25 26.05 -4.9 5.8 -4.9 6.45 -2.25 M3.2 7.4 L6.45 7.4 7.4 7.4 7.5 6.95 8.1 4.75 7.45 1.95 7.15 0.8 M6.45 -6.7 L11.65 -6.7 11.65 -5.1 6.45 -5.1 6.45 -6.7 M22.75 -6.95 L23.45 -7.85 25.35 -5.05 M21.3 -5.05 L22.0 -6.05 21.35 -6.95 M27.1 2.45 L27.35 2.9 27.9 3.95 27.0 4.75 26.95 4.8 Q26.0 5.95 25.75 7.45 L23.95 7.65 21.85 6.95 7.5 6.95" fill="none" stroke="#191719" stroke-linecap="round" stroke-linejoin="round" stroke-width="1.0"/>
    <path d="M14.55 -2.25 L14.55 2.0 12.5 2.0 12.25 2.0" fill="none" stroke="#121212" stroke-linecap="butt" stroke-linejoin="round" stroke-width="1.0"/>
    <path d="M-0.05 2.55 Q-0.55 3.55 -0.55 4.95 L-0.5 5.55 -0.5 5.8 -0.4 6.4" fill="none" stroke="#1c323d" stroke-linecap="butt" stroke-linejoin="miter-clip" stroke-miterlimit="4.0" stroke-width="1.0"/>
    <path d="M0.5 0.25 L2.2 0.25" fill="none" stroke="#bc2b2b" stroke-linecap="round" stroke-linejoin="miter-clip" stroke-miterlimit="4.0" stroke-width="1.0"/>
    <path d="M9.55 0.8 L8.6 -2.25 M12.5 2.0 L11.1 -2.25" fill="none" stroke="#121212" stroke-linecap="butt" stroke-linejoin="miter-clip" stroke-miterlimit="4.0" stroke-width="1.0"/>
    <path d="M-27.1 0.4 L-24.2 0.4 M-21.55 0.4 L-19.1 0.4 M-16.4 0.4 L-5.25 0.4 -4.15 1.5 3.35 1.5 3.7 2.55 3.75 2.85 3.2 4.85 3.2 7.4" fill="none" stroke="#23282c" stroke-linecap="round" stroke-linejoin="round" stroke-width="1.0"/>
    <path d="M3.2 7.4 Q1.2 7.55 0.25 6.75 L-0.4 6.4 -0.6 6.3 -2.9 6.0 -3.6 7.65 -3.6 7.7 -3.8 8.25 Q-4.75 10.85 -4.7 13.05 L-4.8 13.15 -4.9 13.2 -5.5 13.4 -5.8 13.65 -11.1 16.2 -17.45 12.7 -17.45 11.95 -17.3 8.75 -23.45 5.2 -25.95 5.2 M3.25 11.65 L3.2 7.4 M6.45 7.4 L5.3 11.65 3.25 11.65 M-0.05 2.55 L-3.1 2.55 -3.3 4.95 -3.1 5.65 -2.9 6.0 M3.7 2.55 L-0.05 2.55" fill="none" stroke="#202020" stroke-linecap="round" stroke-linejoin="round" stroke-width="1.0"/>
    <path d="M-4.7 13.05 L-2.6 12.35 3.25 11.65" fill="none" stroke="#202020" stroke-linecap="round" stroke-linejoin="miter-clip" stroke-miterlimit="4.0" stroke-width="1.0"/>
    <path d="M-3.05 0.25 L-1.45 0.25" fill="none" stroke="#3f6677" stroke-linecap="round" stroke-linejoin="miter-clip" stroke-miterlimit="4.0" stroke-width="1.0"/>
    <path d="M-10.65 2.5 L-10.1 2.5 -8.15 2.5 Q-6.2 2.85 -7.5 5.9 L-8.25 7.4 -10.35 10.8 -12.5 10.8 -13.45 9.3 -14.65 5.55 -14.65 5.5 -14.65 4.8 Q-14.5 4.1 -13.95 3.5 L-13.4 2.9 Q-13.05 2.65 -12.7 2.55 L-12.2 2.5 -10.65 2.5" fill="none" stroke="#202020" stroke-linecap="butt" stroke-linejoin="round" stroke-width="1.0"/>
    <path d="M9.25 -7.6 L9.9 -7.6 M7.1 -7.6 L7.75 -7.6 M2.8 -7.6 L3.45 -7.6 M0.65 -7.6 L1.3 -7.6 M4.95 -7.6 L5.6 -7.6 M13.55 -7.6 L14.2 -7.6 M11.4 -7.6 L12.05 -7.6 M15.7 -7.6 L16.35 -7.6 M17.85 -7.6 L18.5 -7.6 M20.0 -7.6 L20.65 -7.6 M-1.5 -7.6 L-0.85 -7.6" fill="none" stroke="#191719" stroke-linecap="round" stroke-linejoin="miter-clip" stroke-miterlimit="4.0" stroke-width="1.0"/>
    <path d="M-23.75 -0.4 L-23.0 -0.45 -21.55 -0.35 M-18.9 -0.05 L-18.0 -0.2 -16.3 -0.1 M-19.65 4.5 L-17.1 6.4 M-24.15 2.45 L-23.75 2.8 -22.75 3.25 -22.2 3.35" fill="none" stroke="#ba5a4a" stroke-linecap="round" stroke-linejoin="round" stroke-width="1.0"/>
    <path d="M-24.2 0.4 L-23.75 -0.4 M-21.55 -0.35 L-21.55 0.4 -21.6 1.05 Q-21.85 2.5 -22.2 3.35 M-19.1 0.4 L-18.9 -0.05 M-16.3 -0.1 L-16.4 0.4 -16.9 1.95 Q-17.3 4.5 -17.1 6.4 M-19.1 0.4 L-19.6 2.8 -19.65 4.5 M-24.2 0.4 L-24.35 1.45 -24.15 2.45" fill="none" stroke="#8c4337" stroke-linecap="round" stroke-linejoin="round" stroke-width="1.0"/>
    <path d="M-17.45 11.95 L-22.25 8.75 Q-24.1 7.65 -25.95 7.8" fill="none" stroke="#202020" stroke-linecap="round" stroke-linejoin="round" stroke-width="1.0"/>
    <path d="M-27.5 -4.4 L-24.35 -4.4 M-10.85 -4.9 L5.8 -4.9" fill="none" stroke="#23282c" stroke-linecap="round" stroke-linejoin="round" stroke-width="1.0"/>
    <path d="M-26.2 -2.05 L-27.15 -0.35 -27.1 0.4 -26.25 4.25 -25.95 5.2 -25.5 6.65 -25.95 7.8 -26.25 8.45 Q-27.65 8.6 -28.35 9.35 L-28.75 10.1 -30.65 9.85 -30.95 9.4 Q-30.35 7.65 -30.15 5.15 -29.8 -0.05 -31.45 -4.55 L-30.95 -4.95 -29.35 -5.65 Q-28.4 -5.4 -27.5 -4.4 L-27.0 -3.65 -26.2 -2.15 -26.2 -2.05 M-24.35 -4.4 L-24.7 -4.9 -25.4 -5.75 -24.75 -6.0 -21.6 -5.8 Q-18.55 -5.4 -15.75 -6.3 -14.3 -6.75 -13.55 -7.3 L-11.0 -7.0 Q-10.8 -6.1 -10.85 -4.9 L-11.1 -2.2 -19.65 -2.2 Q-20.55 -3.1 -22.1 -3.25 L-23.5 -3.3 Q-23.75 -3.85 -24.35 -4.4" fill="none" stroke="#151517" stroke-linecap="round" stroke-linejoin="round" stroke-width="1.0"/>
    <path d="M23.15 -6.45 L23.75 -6.45 M-4.3 -6.5 L-3.65 -6.5" fill="none" stroke="#294b5a" stroke-linecap="round" stroke-linejoin="miter-clip" stroke-miterlimit="4.0" stroke-width="1.0"/>
    <path d="M23.2 -8.2 L23.75 -8.2 M-4.3 -8.25 L-3.65 -8.25" fill="none" stroke="#93f997" stroke-linecap="round" stroke-linejoin="miter-clip" stroke-miterlimit="4.0" stroke-width="1.0"/>
  </g>
</svg>
