<?xml version="1.0" encoding="UTF-8" standalone="no"?>
<svg xmlns:ffdec="https://www.free-decompiler.com/flash" xmlns:xlink="http://www.w3.org/1999/xlink" ffdec:objectType="shape" height="11.1px" width="24.6px" xmlns="http://www.w3.org/2000/svg">
  <g transform="matrix(1.0, 0.0, 0.0, 1.0, 0.5, 0.5)">
    <path d="M20.15 6.5 L21.85 6.5 23.6 9.15 23.6 10.1 13.7 10.1 13.7 9.1 13.7 8.95 13.7 7.85 18.15 7.85 18.95 6.5 20.15 6.5 M9.3 9.2 L9.6 10.05 0.0 10.05 0.3 7.3 1.35 7.3 2.55 7.3 3.7 8.3 8.1 8.3 8.2 8.3 8.95 8.3 9.3 9.15 9.3 9.2" fill="#151515" fill-rule="evenodd" stroke="none"/>
    <path d="M13.7 9.1 L11.8 8.8 13.7 8.95 13.7 9.1 M3.65 3.75 Q4.25 2.0 7.55 0.0 L12.5 0.0 Q13.05 2.25 14.05 3.35 L13.65 3.25 12.35 5.7 10.0 5.6 9.75 5.1 8.85 5.5 6.9 5.4 6.55 4.6 3.65 3.75 M7.05 5.85 L7.25 6.2 7.2 6.2 7.05 5.85" fill="#333333" fill-rule="evenodd" stroke="none"/>
    <path d="M13.7 7.85 L13.7 8.95 11.8 8.8 9.3 9.15 8.95 8.3 8.2 8.3 7.25 6.2 7.05 5.85 6.85 5.4 6.9 5.4 8.85 5.5 10.0 5.6 12.35 5.7 12.0 6.35 13.7 7.85" fill="#252525" fill-rule="evenodd" stroke="none"/>
    <path d="M11.8 8.8 L9.3 9.2 9.3 9.15 11.8 8.8 M10.0 5.6 L8.85 5.5 9.75 5.1 10.0 5.6 M7.25 6.2 L8.2 8.3 8.1 8.3 7.2 6.2 7.25 6.2" fill="#996600" fill-rule="evenodd" stroke="none"/>
    <path d="M1.35 7.3 L1.85 4.8 3.65 3.75 6.55 4.6 6.9 5.4 6.85 5.4 7.05 5.85 7.2 6.2 8.1 8.3 3.7 8.3 2.55 7.3 1.35 7.3 M14.05 3.35 L19.25 4.85 20.15 6.5 18.95 6.5 18.15 7.85 13.7 7.85 12.0 6.35 12.35 5.7 13.65 3.25 14.05 3.35" fill="#4a0000" fill-rule="evenodd" stroke="none"/>
    <path d="M20.15 6.5 L21.85 6.5 23.6 9.15 23.6 10.1 13.7 10.1 13.7 9.1 11.8 8.8 9.3 9.2 9.6 10.05 0.0 10.05 0.3 7.3 1.35 7.3 2.55 7.3 3.7 8.3 8.1 8.3 8.2 8.3 8.95 8.3 9.3 9.15 9.3 9.2 M20.15 6.5 L18.95 6.5 18.15 7.85 13.7 7.85 13.7 8.95 13.7 9.1 M13.7 8.95 L11.8 8.8 9.3 9.15 M13.7 7.85 L12.0 6.35 12.35 5.7 10.0 5.6 8.85 5.5 6.9 5.4 6.85 5.4 7.05 5.85 7.25 6.2 8.2 8.3" fill="none" stroke="#070707" stroke-linecap="round" stroke-linejoin="round" stroke-width="1.0"/>
    <path d="M1.35 7.3 L1.85 4.8 M19.25 4.85 L20.15 6.5 M13.65 3.25 L14.05 3.35 M6.55 4.6 L6.9 5.4 M8.1 8.3 L7.2 6.2 7.05 5.85" fill="none" stroke="#190000" stroke-linecap="round" stroke-linejoin="round" stroke-width="1.0"/>
    <path d="M3.65 3.75 Q4.25 2.0 7.55 0.0 L12.5 0.0 Q13.05 2.25 14.05 3.35" fill="none" stroke="#1e1e1e" stroke-linecap="round" stroke-linejoin="round" stroke-width="1.0"/>
    <path d="M1.85 4.8 L3.65 3.75 6.55 4.6 M14.05 3.35 L19.25 4.85 M12.35 5.7 L13.65 3.25" fill="none" stroke="#150000" stroke-linecap="round" stroke-linejoin="round" stroke-width="1.0"/>
  </g>
</svg>
