<?xml version="1.0" encoding="UTF-8" standalone="no"?>
<svg xmlns:ffdec="https://www.free-decompiler.com/flash" xmlns:xlink="http://www.w3.org/1999/xlink" ffdec:objectType="shape" height="24.55px" width="17.25px" xmlns="http://www.w3.org/2000/svg">
  <g transform="matrix(1.0, 0.0, 0.0, 1.0, 8.65, 9.85)">
    <path d="M-5.95 0.55 L-4.1 -0.8 -3.65 -2.7 2.15 -3.6 3.4 -1.8 5.0 -1.35 8.05 -0.95 Q8.4 6.6 5.8 12.7 2.45 14.8 -2.0 13.95 -6.7 8.15 -8.15 1.85 L-5.95 0.55" fill="url(#gradient0)" fill-rule="evenodd" stroke="none"/>
    <path d="M5.0 -1.35 L3.4 -1.8 2.15 -3.6 -3.65 -2.7 -4.1 -0.8 -5.95 0.55 -7.1 -3.65 Q-6.9 -5.85 -5.45 -7.55 -2.3 -10.05 0.85 -9.1 3.85 -8.1 5.1 -5.05 L5.0 -1.35" fill="url(#gradient1)" fill-rule="evenodd" stroke="none"/>
    <path d="M-5.95 0.55 L-8.15 1.85 Q-6.7 8.15 -2.0 13.95 2.45 14.8 5.8 12.7 8.4 6.6 8.05 -0.95 L5.0 -1.35" fill="none" stroke="#666666" stroke-linecap="round" stroke-linejoin="round" stroke-width="1.0"/>
    <path d="M5.0 -1.35 L3.4 -1.8 2.15 -3.6 -3.65 -2.7 -4.1 -0.8 -5.95 0.55 -7.1 -3.65 Q-6.9 -5.85 -5.45 -7.55 -2.3 -10.05 0.85 -9.1 3.85 -8.1 5.1 -5.05 L5.0 -1.35 Z" fill="none" stroke="#000000" stroke-linecap="round" stroke-linejoin="round" stroke-width="1.0"/>
  </g>
  <defs>
    <radialGradient cx="0" cy="0" gradientTransform="matrix(0.0115, -0.0018, 0.0018, 0.0115, 0.55, 5.1)" gradientUnits="userSpaceOnUse" id="gradient0" r="819.2" spreadMethod="pad">
      <stop offset="0.0" stop-color="#ffffff"/>
      <stop offset="1.0" stop-color="#999999"/>
      <stop offset="1.0" stop-color="#595959"/>
    </radialGradient>
    <linearGradient gradientTransform="matrix(0.0073, -0.0011, 8.0E-4, 0.0054, -1.3, -4.85)" gradientUnits="userSpaceOnUse" id="gradient1" spreadMethod="pad" x1="-819.2" x2="819.2">
      <stop offset="0.0" stop-color="#393c57"/>
      <stop offset="1.0" stop-color="#292930"/>
      <stop offset="1.0" stop-color="#595959"/>
    </linearGradient>
  </defs>
</svg>
