<?xml version="1.0" encoding="UTF-8" standalone="no"?>
<svg xmlns:ffdec="https://www.free-decompiler.com/flash" xmlns:xlink="http://www.w3.org/1999/xlink" ffdec:objectType="shape" height="20.75px" width="16.7px" xmlns="http://www.w3.org/2000/svg">
  <g transform="matrix(1.0, 0.0, 0.0, 1.0, -0.2, -0.25)">
    <path d="M10.05 1.05 L9.25 1.95 Q7.65 4.8 7.1 8.35 L7.15 9.05 1.05 8.85 1.15 5.0 3.05 1.7 Q7.05 0.6 10.05 1.05 M7.25 11.45 Q7.25 13.95 8.85 16.45 6.45 16.95 2.25 15.55 L1.7 15.35 1.15 11.1 7.25 11.45 M4.0 3.35 L3.7 3.35 4.0 3.35 M3.5 14.25 L3.2 14.25 3.5 14.25" fill="#1e1e1e" fill-rule="evenodd" stroke="none"/>
    <path d="M8.85 16.45 Q10.1 18.3 11.75 18.35 L13.35 18.25 Q13.25 19.45 12.0 19.95 L4.3 19.75 Q3.7 19.4 2.7 17.55 L2.25 15.55 Q6.45 16.95 8.85 16.45" fill="#191919" fill-rule="evenodd" stroke="none"/>
    <path d="M7.15 9.05 L7.25 11.45 1.15 11.1 Q0.3 10.0 1.05 8.85 L7.15 9.05" fill="#2c2c2c" fill-rule="evenodd" stroke="none"/>
    <path d="M10.05 1.05 L13.25 0.75 Q15.35 1.6 16.1 3.15 17.1 10.9 14.8 17.55 L13.35 18.25 11.75 18.35 Q10.1 18.3 8.85 16.45 7.25 13.95 7.25 11.45 L7.15 9.05 7.1 8.35 Q7.65 4.8 9.25 1.95 L10.05 1.05 M11.2 2.75 L10.9 2.75 11.2 2.75 M9.15 10.1 L8.85 10.1 9.15 10.1 M11.2 16.45 L10.9 16.45 11.2 16.45" fill="url(#gradient0)" fill-rule="evenodd" stroke="none"/>
    <path d="M13.35 18.25 L14.8 17.55 Q17.1 10.9 16.1 3.15 15.35 1.6 13.25 0.75 L10.05 1.05 9.25 1.95 Q7.65 4.8 7.1 8.35 L7.15 9.05 7.25 11.45 Q7.25 13.95 8.85 16.45 10.1 18.3 11.75 18.35 L13.35 18.25 Q13.25 19.45 12.0 19.95 L4.3 19.75 Q3.7 19.4 2.7 17.55 L2.25 15.55 1.7 15.35 1.15 11.1 M1.05 8.85 L1.15 5.0 3.05 1.7 Q7.05 0.6 10.05 1.05 M2.25 15.55 Q6.45 16.95 8.85 16.45" fill="none" stroke="#0e0e0e" stroke-linecap="round" stroke-linejoin="round" stroke-width="1.0"/>
    <path d="M1.15 11.1 Q0.3 10.0 1.05 8.85 L7.15 9.05 M10.9 2.75 L11.2 2.75 M3.7 3.35 L4.0 3.35 M8.85 10.1 L9.15 10.1 M7.25 11.45 L1.15 11.1 M3.2 14.25 L3.5 14.25 M10.9 16.45 L11.2 16.45" fill="none" stroke="#151515" stroke-linecap="round" stroke-linejoin="round" stroke-width="1.0"/>
    <path d="M9.25 1.95 Q7.65 4.8 7.1 8.35 L7.25 11.45 Q7.25 13.95 8.85 16.45" fill="none" stroke="#0e0e0e" stroke-linecap="round" stroke-linejoin="round" stroke-width="1.0"/>
  </g>
  <defs>
    <radialGradient cx="0" cy="0" fx="147.20000000000002" fy="0" gradientTransform="matrix(-0.0034, 0.0398, -0.0201, -0.0017, 15.3, 2.25)" gradientUnits="userSpaceOnUse" id="gradient0" r="819.2" spreadMethod="pad">
      <stop offset="0.0" stop-color="#353535"/>
      <stop offset="0.4470588235294118" stop-color="#1c1b1b"/>
      <stop offset="1.0" stop-color="#090909"/>
      <stop offset="1.0" stop-color="#383838"/>
    </radialGradient>
  </defs>
</svg>
