<?xml version="1.0" encoding="UTF-8" standalone="no"?>
<svg xmlns:ffdec="https://www.free-decompiler.com/flash" xmlns:xlink="http://www.w3.org/1999/xlink" ffdec:objectType="shape" height="25.3px" width="18.45px" xmlns="http://www.w3.org/2000/svg">
  <g transform="matrix(1.0, 0.0, 0.0, 1.0, 2.4, 0.6)">
    <path d="M13.5 13.85 Q14.45 19.75 12.4 23.8 10.95 24.65 8.6 23.8 6.0 22.65 4.3 19.95 1.9 16.15 1.0 12.25 L1.95 5.0 8.95 5.0 13.5 13.85" fill="#410e0e" fill-rule="evenodd" stroke="none"/>
    <path d="M13.5 13.85 Q14.45 19.75 12.4 23.8 10.95 24.65 8.6 23.8 6.0 22.65 4.3 19.95 1.9 16.15 1.0 12.25 L1.95 5.0 8.95 5.0 13.5 13.85 Z" fill="none" stroke="#250606" stroke-linecap="round" stroke-linejoin="round" stroke-width="1.0"/>
    <path d="M6.75 16.65 L3.9 14.65 Q-0.05 8.95 -1.9 2.7 2.9 0.0 8.5 -0.1 L13.5 4.0 Q15.4 10.1 15.1 15.75 13.85 14.2 12.1 14.5 L6.75 16.65" fill="url(#gradient0)" fill-rule="evenodd" stroke="none"/>
    <path d="M1.0 15.5 L-0.7 10.05 3.2 16.05 5.5 17.65 Q5.25 20.2 8.55 22.95 2.35 21.35 1.0 15.5" fill="url(#gradient1)" fill-rule="evenodd" stroke="none"/>
    <path d="M8.75 21.5 Q6.95 19.95 6.8 17.95 L12.35 15.6 Q16.0 14.8 15.5 19.45 14.85 22.25 13.6 22.9 11.45 23.8 8.75 21.5" fill="url(#gradient2)" fill-rule="evenodd" stroke="none"/>
    <path d="M6.75 16.65 L12.1 14.5 Q13.85 14.2 15.1 15.75 15.4 10.1 13.5 4.0 L8.5 -0.1 Q2.9 0.0 -1.9 2.7 -0.05 8.95 3.9 14.65 L6.75 16.65 M8.75 21.5 Q11.45 23.8 13.6 22.9 14.85 22.25 15.5 19.45 16.0 14.8 12.35 15.6 L6.8 17.95 Q6.95 19.95 8.75 21.5 M1.0 15.5 L-0.7 10.05 3.2 16.05 5.5 17.65 Q5.25 20.2 8.55 22.95 2.35 21.35 1.0 15.5 Z" fill="none" stroke="#040a2e" stroke-linecap="round" stroke-linejoin="round" stroke-width="1.0"/>
    <path d="M10.6 20.05 Q12.4 19.85 12.85 21.4 12.4 22.05 11.1 21.4 9.6 20.15 10.6 20.05 M3.4 6.45 Q5.2 6.25 5.65 7.8 5.2 8.45 3.9 7.8 2.4 6.55 3.4 6.45 M0.55 3.25 Q3.1 3.0 3.75 5.15 3.15 6.1 1.25 5.15 -0.85 3.4 0.55 3.25 M10.85 11.65 Q11.75 9.25 13.8 10.95 14.3 12.0 12.55 13.15 9.95 14.05 10.85 11.65" fill="#3d7595" fill-opacity="0.29803923" fill-rule="evenodd" stroke="none"/>
  </g>
  <defs>
    <radialGradient cx="0" cy="0" gradientTransform="matrix(0.0293, -0.0057, 0.0062, 0.0316, -0.3, 10.7)" gradientUnits="userSpaceOnUse" id="gradient0" r="819.2" spreadMethod="pad">
      <stop offset="0.0" stop-color="#17d7c6"/>
      <stop offset="0.34901960784313724" stop-color="#1fcb8d"/>
      <stop offset="0.5882352941176471" stop-color="#c4b81b"/>
      <stop offset="1.0" stop-color="#910000"/>
      <stop offset="1.0" stop-color="#fff23f"/>
      <stop offset="1.0" stop-color="#ff1305"/>
    </radialGradient>
    <radialGradient cx="0" cy="0" gradientTransform="matrix(0.0067, -0.0038, 0.0108, 0.0188, 4.1, 16.35)" gradientUnits="userSpaceOnUse" id="gradient1" r="819.2" spreadMethod="pad">
      <stop offset="0.0" stop-color="#17d7c6"/>
      <stop offset="0.34901960784313724" stop-color="#1fcb8d"/>
      <stop offset="0.5882352941176471" stop-color="#c4b81b"/>
      <stop offset="1.0" stop-color="#910000"/>
      <stop offset="1.0" stop-color="#fff23f"/>
      <stop offset="1.0" stop-color="#ff1305"/>
    </radialGradient>
    <radialGradient cx="0" cy="0" gradientTransform="matrix(0.0203, 0.0, 0.0, 0.0203, 4.95, 19.4)" gradientUnits="userSpaceOnUse" id="gradient2" r="819.2" spreadMethod="pad">
      <stop offset="0.0" stop-color="#17d7c6"/>
      <stop offset="0.34901960784313724" stop-color="#1fcb8d"/>
      <stop offset="0.5882352941176471" stop-color="#c4b81b"/>
      <stop offset="1.0" stop-color="#910000"/>
      <stop offset="1.0" stop-color="#fff23f"/>
      <stop offset="1.0" stop-color="#ff1305"/>
    </radialGradient>
  </defs>
</svg>
