<?xml version="1.0" encoding="UTF-8" standalone="no"?>
<svg xmlns:xlink="http://www.w3.org/1999/xlink" height="44.0px" width="55.0px" xmlns="http://www.w3.org/2000/svg">
  <g transform="matrix(1.0, 0.0, 0.0, 1.0, -30.0, 22.6)">
    <path d="M35.3 -22.6 Q37.5 -22.6 39.0 -16.25 40.6 -9.7 40.6 -0.6 40.6 8.3 39.0 14.85 37.5 21.4 35.3 21.4 33.1 21.4 31.6 14.85 30.0 8.3 30.0 -0.6 30.0 -9.7 31.6 -16.25 33.1 -22.6 35.3 -22.6" fill="url(#gradient0)" fill-rule="evenodd" stroke="none"/>
    <path d="M72.6 -5.25 Q85.0 -3.35 85.0 -0.5 85.0 2.2 72.6 4.1 60.25 6.0 42.7 6.0 L37.0 6.0 37.0 -7.0 42.7 -7.15 Q60.25 -7.15 72.6 -5.25" fill="url(#gradient1)" fill-rule="evenodd" stroke="none"/>
  </g>
  <defs>
    <radialGradient cx="0" cy="0" gradientTransform="matrix(0.0066, 0.0, 0.0, 0.0275, 35.3, -0.6)" gradientUnits="userSpaceOnUse" id="gradient0" r="819.2" spreadMethod="pad">
      <stop offset="0.36470588235294116" stop-color="#ffffff"/>
      <stop offset="1.0" stop-color="#00ccff" stop-opacity="0.0"/>
    </radialGradient>
    <radialGradient cx="0" cy="0" gradientTransform="matrix(0.0517, 0.0, 0.0, 0.008, 42.85, -0.65)" gradientUnits="userSpaceOnUse" id="gradient1" r="819.2" spreadMethod="pad">
      <stop offset="0.36470588235294116" stop-color="#ffffff"/>
      <stop offset="1.0" stop-color="#00e6ff" stop-opacity="0.0"/>
    </radialGradient>
  </defs>
</svg>
