<?xml version="1.0" encoding="UTF-8" standalone="no"?>
<svg xmlns:xlink="http://www.w3.org/1999/xlink" height="24.5px" width="57.4px" xmlns="http://www.w3.org/2000/svg">
  <g transform="matrix(1.0, 0.0, 0.0, 1.0, 20.75, 11.15)">
    <path d="M14.45 -3.85 L14.45 -4.75 13.15 -5.35 9.6 -5.35 9.6 -4.65 4.65 -4.65 4.65 -5.2 -0.35 -5.2 -1.35 -4.35 -1.35 -3.85 -5.1 -3.85 -5.1 -4.95 -4.1 -5.75 -3.7 -6.05 -3.6 -6.15 18.2 -6.15 18.5 -5.3 18.5 -3.85 14.45 -3.85" fill="#202020" fill-rule="evenodd" stroke="none"/>
    <path d="M10.85 2.15 L15.1 0.9 15.25 0.9 17.55 0.85 24.3 1.5 Q24.9 2.5 24.6 4.2 24.3 5.0 22.9 5.25 L22.5 5.3 20.85 5.1 Q20.95 3.55 21.45 3.3 L22.95 3.5 Q23.3 3.8 22.9 5.25 23.3 3.8 22.95 3.5 L21.45 3.3 Q20.95 3.55 20.85 5.1 L19.5 5.1 17.1 5.55 Q17.05 3.6 17.55 3.15 L19.45 3.1 Q19.85 3.45 19.5 5.1 19.85 3.45 19.45 3.1 L17.55 3.15 Q17.05 3.6 17.1 5.55 L16.05 5.95 Q14.85 6.5 13.75 7.35 L13.55 7.4 Q12.9 6.2 13.15 5.0 13.85 3.9 15.45 4.05 15.8 4.1 16.05 5.95 15.8 4.1 15.45 4.05 13.85 3.9 13.15 5.0 12.9 6.2 13.55 7.4 12.45 7.7 12.15 6.85 L10.95 2.4 10.85 2.15 M23.65 2.3 L23.4 2.4 23.3 2.65 23.4 2.9 23.65 3.0 23.9 2.9 24.0 2.65 23.9 2.4 23.65 2.3 M11.85 3.05 L11.95 3.3 12.2 3.4 12.45 3.3 12.55 3.05 12.45 2.8 12.2 2.7 11.95 2.8 11.85 3.05 M-17.55 4.1 L-19.25 4.05 Q-20.6 4.05 -20.15 2.7 -19.75 0.95 -19.95 -0.95 -20.45 -2.2 -19.95 -3.45 -19.1 -4.45 -18.65 -3.1 -18.45 0.8 -17.45 3.15 L-17.55 4.1 M-17.4 -3.85 L-17.6 -4.5 Q-17.8 -5.0 -17.1 -5.0 -13.3 -4.2 -10.3 -4.95 -9.7 -4.85 -9.25 -3.85 L-10.5 -2.2 -10.6 -2.25 -12.95 -3.05 -16.0 -2.95 -16.9 -2.75 -17.4 -3.85 M-16.6 -3.55 L-16.35 -3.45 -16.1 -3.55 -16.0 -3.8 -16.1 -4.05 -16.35 -4.15 -16.6 -4.05 -16.7 -3.8 -16.6 -3.55 M-11.15 -3.3 L-11.05 -3.05 -10.8 -2.95 -10.55 -3.05 -10.45 -3.3 -10.55 -3.55 -10.8 -3.65 -11.05 -3.55 -11.15 -3.3 M-18.75 2.75 L-19.0 2.85 -19.1 3.1 -19.0 3.35 -18.75 3.45 -18.5 3.35 -18.4 3.1 -18.5 2.85 -18.75 2.75" fill="#262a2d" fill-rule="evenodd" stroke="none"/>
    <path d="M-7.9 -1.85 L3.15 -1.85 20.15 -1.85 21.4 -2.65 21.65 -2.3 23.85 0.85 24.3 1.5 17.55 0.85 15.25 0.9 8.35 -0.05 4.4 -0.05 3.9 0.4 -8.4 0.4 -8.8 2.1 -9.05 2.05 -13.95 1.2 -15.5 2.95 -17.45 3.15 Q-18.45 0.8 -18.65 -3.1 L-17.7 -3.85 -17.4 -3.85 -16.9 -2.75 -16.0 -2.95 -12.95 -3.05 -10.6 -2.25 -9.95 -1.85 -7.9 -1.85 -7.9 -1.5 -7.9 -1.85 M3.15 -1.85 L3.15 -1.5 -7.9 -1.5 3.15 -1.5 3.15 -1.85" fill="#353a40" fill-rule="evenodd" stroke="none"/>
    <path d="M3.9 0.4 L4.35 1.5 4.4 3.05 6.1 9.1 -1.45 11.15 -1.35 8.25 Q-1.55 7.2 0.2 6.6 1.85 6.05 2.2 4.4 L2.15 2.8 -0.45 2.8 -3.15 2.8 Q-3.95 3.2 -3.35 4.7 -6.35 8.4 -6.1 10.3 L-11.4 8.9 -8.35 4.9 Q-7.45 2.8 -9.05 2.05 L-8.8 2.1 -8.4 0.4 3.9 0.4 M-17.6 4.25 L-17.55 4.1 -17.45 3.15 -15.5 2.95 -15.2 4.4 -17.6 4.25 M3.2 3.55 L3.2 3.0 3.2 3.55 M4.6 8.3 L4.35 8.2 4.1 8.3 4.0 8.55 4.1 8.8 4.35 8.9 4.6 8.8 4.7 8.55 4.6 8.3 M0.1 8.1 L0.0 7.85 -0.25 7.75 -0.5 7.85 -0.6 8.1 -0.5 8.35 -0.25 8.45 0.0 8.35 0.1 8.1 M0.1 9.8 L0.0 9.55 -0.25 9.45 -0.5 9.55 -0.6 9.8 -0.5 10.05 -0.25 10.15 0.0 10.05 0.1 9.8 M-5.35 3.2 Q-6.3 2.65 -6.75 3.0 -7.3 4.6 -8.2 6.0 -9.0 7.25 -8.65 8.1 -7.65 9.7 -6.7 7.95 L-5.45 6.0 Q-4.75 4.6 -5.35 3.2" fill="#353535" fill-rule="evenodd" stroke="none"/>
    <path d="M-0.45 2.8 Q-1.25 4.1 -1.1 5.1 L-3.35 4.7 Q-3.95 3.2 -3.15 2.8 L-0.45 2.8" fill="#ba5a4a" fill-rule="evenodd" stroke="none"/>
    <path d="M21.4 -2.65 L20.65 -3.3 35.65 -3.3 Q36.15 -3.3 36.15 -2.8 L36.15 0.4 35.65 0.85 23.85 0.85 21.65 -2.3 21.4 -2.65 M34.35 -0.65 L33.75 -1.6 34.35 -0.65 M33.1 -0.3 L32.1 -1.9 33.1 -0.3 M31.6 -0.3 L30.6 -1.9 31.6 -0.3" fill="#191919" fill-rule="evenodd" stroke="none"/>
    <path d="M0.1 9.8 L0.0 10.05 -0.25 10.15 -0.5 10.05 -0.6 9.8 -0.5 9.55 -0.25 9.45 0.0 9.55 0.1 9.8 M0.1 8.1 L0.0 8.35 -0.25 8.45 -0.5 8.35 -0.6 8.1 -0.5 7.85 -0.25 7.75 0.0 7.85 0.1 8.1 M4.6 8.3 L4.7 8.55 4.6 8.8 4.35 8.9 4.1 8.8 4.0 8.55 4.1 8.3 4.35 8.2 4.6 8.3 M-5.35 3.2 Q-4.75 4.6 -5.45 6.0 L-6.7 7.95 Q-7.65 9.7 -8.65 8.1 -9.0 7.25 -8.2 6.0 -7.3 4.6 -6.75 3.0 -6.3 2.65 -5.35 3.2" fill="#272727" fill-rule="evenodd" stroke="none"/>
    <path d="M23.65 2.3 L23.9 2.4 24.0 2.65 23.9 2.9 23.65 3.0 23.4 2.9 23.3 2.65 23.4 2.4 23.65 2.3 M11.85 3.05 L11.95 2.8 12.2 2.7 12.45 2.8 12.55 3.05 12.45 3.3 12.2 3.4 11.95 3.3 11.85 3.05 M-16.6 -3.55 L-16.7 -3.8 -16.6 -4.05 -16.35 -4.15 -16.1 -4.05 -16.0 -3.8 -16.1 -3.55 -16.35 -3.45 -16.6 -3.55 M-11.15 -3.3 L-11.05 -3.55 -10.8 -3.65 -10.55 -3.55 -10.45 -3.3 -10.55 -3.05 -10.8 -2.95 -11.05 -3.05 -11.15 -3.3 M-18.75 2.75 L-18.5 2.85 -18.4 3.1 -18.5 3.35 -18.75 3.45 -19.0 3.35 -19.1 3.1 -19.0 2.85 -18.75 2.75" fill="#1f2023" fill-rule="evenodd" stroke="none"/>
    <path d="M5.05 3.75 L10.0 2.45 12.4 10.9 11.85 12.0 8.75 12.85 7.8 12.3 5.05 3.75" fill="#2e2e2e" fill-rule="evenodd" stroke="none"/>
    <path d="M-1.35 -3.85 L14.45 -3.85 18.5 -3.85 18.95 -3.85 Q20.0 -3.75 20.65 -3.3 L21.4 -2.65 20.15 -1.85 3.15 -1.85 -7.9 -1.85 -7.9 -2.1 -7.9 -1.85 -9.95 -1.85 -10.6 -2.25 -10.5 -2.2 -9.25 -3.85 -5.1 -3.85 -1.35 -3.85 M-7.9 -2.1 L3.15 -2.1 3.15 -1.85 3.15 -2.1 -7.9 -2.1 M16.8 -2.35 L15.75 -2.35 16.8 -2.35 M19.4 -2.35 L18.35 -2.35 19.4 -2.35 M14.1 -2.35 L13.05 -2.35 14.1 -2.35" fill="#3f464c" fill-rule="evenodd" stroke="none"/>
    <path d="M5.0 -9.65 L2.9 -9.65 2.9 -10.5 5.0 -10.5 5.0 -9.65 M3.55 -7.65 Q3.4 -7.45 3.15 -7.45 2.9 -7.45 2.7 -7.65 2.55 -7.85 2.55 -8.15 L2.7 -8.65 3.15 -8.85 3.55 -8.65 3.75 -8.15 3.55 -7.65" fill="#932727" fill-rule="evenodd" stroke="none"/>
    <path d="M8.5 -6.75 Q8.6 -7.4 8.1 -8.1 7.6 -8.8 7.7 -9.65 7.6 -8.8 8.1 -8.1 8.6 -7.4 8.5 -6.75 L1.2 -6.75 -0.4 -6.75 -1.7 -6.75 Q-2.3 -7.9 -2.1 -9.0 L-0.8 -9.0 0.55 -9.0 0.6 -9.1 0.85 -9.65 2.9 -9.65 5.0 -9.65 7.7 -9.65 9.2 -10.65 15.75 -10.65 15.75 -8.1 Q15.75 -7.45 15.05 -6.75 15.75 -7.45 15.75 -8.1 L15.75 -10.65 16.85 -10.65 16.85 -6.75 15.05 -6.75 8.5 -6.75 M1.2 -6.75 Q0.6 -7.9 0.6 -9.1 0.6 -7.9 1.2 -6.75 M3.55 -7.65 L3.75 -8.15 3.55 -8.65 3.15 -8.85 2.7 -8.65 2.55 -8.15 Q2.55 -7.85 2.7 -7.65 2.9 -7.45 3.15 -7.45 3.4 -7.45 3.55 -7.65 M-0.8 -9.0 Q-1.0 -7.9 -0.4 -6.75 -1.0 -7.9 -0.8 -9.0" fill="#1e1e1e" fill-rule="evenodd" stroke="none"/>
    <path d="M3.9 0.4 L4.4 -0.05 8.35 -0.05 15.25 0.9 15.1 0.9 10.85 2.15 10.0 2.45 5.05 3.75 4.35 1.5 3.9 0.4" fill="url(#gradient0)" fill-rule="evenodd" stroke="none"/>
    <path d="M-1.35 -3.85 L14.45 -3.85 18.5 -3.85 18.95 -3.85 Q20.0 -3.75 20.65 -3.3 L21.4 -2.65 21.65 -2.3 23.85 0.85 24.3 1.5 M-5.1 -3.85 L-1.35 -3.85 M-18.65 -3.1 L-17.7 -3.85 -17.4 -3.85 M-9.25 -3.85 L-5.1 -3.85 M-9.05 2.05 L-13.95 1.2 -15.5 2.95 -17.45 3.15 M-8.8 2.1 L-9.05 2.05" fill="none" stroke="#23282c" stroke-linecap="round" stroke-linejoin="round" stroke-width="1.0"/>
    <path d="M3.9 0.4 L4.35 1.5 5.05 3.75 10.0 2.45 10.85 2.15 15.1 0.9 15.25 0.9 17.55 0.85 24.3 1.5 Q24.9 2.5 24.6 4.2 24.3 5.0 22.9 5.25 L22.5 5.3 20.85 5.1 19.5 5.1 17.1 5.55 16.05 5.95 Q14.85 6.5 13.75 7.35 L13.55 7.4 Q12.45 7.7 12.15 6.85 L10.95 2.4 10.85 2.15 10.95 2.4 M-17.55 4.1 L-19.25 4.05 Q-20.6 4.05 -20.15 2.7 -19.75 0.95 -19.95 -0.95 -20.45 -2.2 -19.95 -3.45 -19.1 -4.45 -18.65 -3.1 -18.45 0.8 -17.45 3.15 M-17.4 -3.85 L-17.6 -4.5 Q-17.8 -5.0 -17.1 -5.0 -13.3 -4.2 -10.3 -4.95 -9.7 -4.85 -9.25 -3.85 L-10.5 -2.2 -10.6 -2.25 -12.95 -3.05 -16.0 -2.95 -16.9 -2.75 -17.4 -3.85 M3.9 0.4 L-8.4 0.4 -8.8 2.1" fill="none" stroke="#141517" stroke-linecap="round" stroke-linejoin="round" stroke-width="1.0"/>
    <path d="M3.15 -1.85 L3.15 -2.1 -7.9 -2.1 M-7.9 -1.5 L3.15 -1.5 3.15 -1.85 M13.05 -2.35 L14.1 -2.35 M18.35 -2.35 L19.4 -2.35 M15.75 -2.35 L16.8 -2.35" fill="none" stroke="#262d33" stroke-linecap="round" stroke-linejoin="round" stroke-width="1.0"/>
    <path d="M4.35 1.5 L4.4 3.05 6.1 9.1 -1.45 11.15 -2.15 11.35 -6.1 10.3 -11.4 8.9 -13.25 8.4 -15.65 6.15 -17.6 4.25 -17.55 4.1 -17.45 3.15 M0.2 6.6 Q1.85 6.05 2.2 4.4 L2.15 2.8 -0.45 2.8 -3.15 2.8 Q-3.95 3.2 -3.35 4.7 -6.35 8.4 -6.1 10.3 M-1.1 5.1 Q-0.25 5.6 0.2 6.6 -1.55 7.2 -1.35 8.25 L-1.45 11.15 M-1.1 5.1 L-3.35 4.7 M-11.4 8.9 L-8.35 4.9 Q-7.45 2.8 -9.05 2.05 M-15.5 2.95 L-15.2 4.4 Q-16.7 4.75 -15.65 6.15 M-17.6 4.25 L-15.2 4.4" fill="none" stroke="#202020" stroke-linecap="round" stroke-linejoin="round" stroke-width="1.0"/>
    <path d="M-7.9 -2.1 L-7.9 -1.85 -7.9 -1.5" fill="none" stroke="#1e2428" stroke-linecap="round" stroke-linejoin="round" stroke-width="1.0"/>
    <path d="M22.9 5.25 Q23.3 3.8 22.95 3.5 L21.45 3.3 Q20.95 3.55 20.85 5.1 M19.5 5.1 Q19.85 3.45 19.45 3.1 L17.55 3.15 Q17.05 3.6 17.1 5.55 M16.05 5.95 Q15.8 4.1 15.45 4.05 13.85 3.9 13.15 5.0 12.9 6.2 13.55 7.4" fill="none" stroke="#1f2023" stroke-linecap="round" stroke-linejoin="round" stroke-width="1.0"/>
    <path d="M-0.45 2.8 Q-1.25 4.1 -1.1 5.1" fill="none" stroke="#7f3d33" stroke-linecap="round" stroke-linejoin="round" stroke-width="1.0"/>
    <path d="M23.85 0.85 L35.65 0.85 36.15 0.4 36.15 -2.8 Q36.15 -3.3 35.65 -3.3 L20.65 -3.3" fill="none" stroke="#070c07" stroke-linecap="round" stroke-linejoin="round" stroke-width="1.0"/>
    <path d="M30.6 -1.9 L31.6 -0.3 M32.1 -1.9 L33.1 -0.3 M33.75 -1.6 L34.35 -0.65" fill="none" stroke="#111111" stroke-linecap="round" stroke-linejoin="round" stroke-width="1.0"/>
    <path d="M18.5 -5.3 L18.2 -6.15 M-3.7 -6.05 L-4.1 -5.75" fill="none" stroke="#93fd98" stroke-linecap="round" stroke-linejoin="round" stroke-width="1.0"/>
    <path d="M5.05 3.75 L7.8 12.3 8.75 12.85 11.85 12.0 12.4 10.9 10.0 2.45" fill="none" stroke="#191919" stroke-linecap="round" stroke-linejoin="round" stroke-width="1.0"/>
    <path d="M5.0 -9.65 L5.0 -10.5 2.9 -10.5 2.9 -9.65 M3.2 3.0 L3.2 3.55" fill="none" stroke="#932727" stroke-linecap="round" stroke-linejoin="round" stroke-width="1.0"/>
    <path d="M7.7 -9.65 Q7.6 -8.8 8.1 -8.1 8.6 -7.4 8.5 -6.75 L15.05 -6.75 Q15.75 -7.45 15.75 -8.1 L15.75 -10.65 9.2 -10.65 7.7 -9.65 5.0 -9.65 2.9 -9.65 0.85 -9.65 0.6 -9.1 Q0.6 -7.9 1.2 -6.75 L8.5 -6.75 M1.2 -6.75 L-0.4 -6.75 -1.7 -6.75 Q-2.3 -7.9 -2.1 -9.0 L-0.8 -9.0 0.55 -9.0 0.6 -9.1 M1.1 -6.45 L9.65 -6.45 M15.05 -6.75 L16.85 -6.75 16.85 -10.65 15.75 -10.65 M-0.4 -6.75 Q-1.0 -7.9 -0.8 -9.0" fill="none" stroke="#161616" stroke-linecap="round" stroke-linejoin="round" stroke-width="1.0"/>
    <path d="M8.75 0.55 L7.6 -1.05 6.7 0.65 8.75 0.55 Z" fill="none" stroke="#ba5a4a" stroke-linecap="round" stroke-linejoin="round" stroke-width="0.7000000000000001"/>
  </g>
  <defs>
    <linearGradient gradientTransform="matrix(0.0069, 0.0, 0.0, 0.0027, 9.55, 1.5)" gradientUnits="userSpaceOnUse" id="gradient0" spreadMethod="pad" x1="-819.2" x2="819.2">
      <stop offset="0.0" stop-color="#2c3035"/>
      <stop offset="1.0" stop-color="#353a40"/>
    </linearGradient>
  </defs>
</svg>
