<?xml version="1.0" encoding="UTF-8" standalone="no"?>
<svg xmlns:ffdec="https://www.free-decompiler.com/flash" xmlns:xlink="http://www.w3.org/1999/xlink" ffdec:objectType="shape" height="23.55px" width="16.95px" xmlns="http://www.w3.org/2000/svg">
  <g transform="matrix(1.0, 0.0, 0.0, 1.0, -0.5, 0.45)">
    <path d="M5.0 10.1 L5.05 10.5 5.25 11.05 5.4 11.3 5.55 11.4 5.75 11.35 5.9 11.25 6.0 11.1 6.05 11.25 6.05 11.4 6.0 11.45 5.9 11.4 5.45 11.55 5.7 11.8 6.05 11.7 6.35 11.6 6.5 11.4 6.55 11.2 6.45 10.9 6.0 9.7 5.55 9.85 5.55 9.95 5.4 9.9 5.25 9.95 5.0 10.1 M10.2 9.9 L10.4 9.85 10.35 9.6 10.15 9.65 10.1 9.45 9.8 8.65 9.95 8.6 9.85 8.35 9.7 8.4 9.6 8.15 9.15 8.3 9.25 8.55 9.15 8.6 9.25 8.85 9.35 8.8 9.65 9.6 9.75 9.85 9.85 10.0 10.0 10.0 10.2 9.9 M2.1 8.35 Q1.75 6.0 2.1 3.65 2.95 1.4 6.25 0.1 10.45 -0.55 13.85 5.7 17.5 20.2 14.75 21.2 L10.75 22.6 Q5.45 17.25 2.35 9.95 2.15 9.15 2.1 8.35 M8.05 10.0 L8.15 9.8 8.25 10.15 8.25 10.35 8.15 10.3 8.1 10.2 8.05 10.0 M5.6 10.15 L5.65 10.25 5.85 10.75 5.9 10.95 5.85 11.0 5.8 11.0 5.75 10.85 5.55 10.3 5.5 10.2 5.55 10.15 5.6 10.15 M6.75 9.4 L7.05 10.5 6.5 9.5 6.1 9.65 6.85 10.85 6.9 11.0 6.9 11.05 6.75 11.15 6.85 11.4 7.1 11.25 7.4 11.15 7.5 11.0 7.55 10.85 7.45 10.4 7.15 9.25 6.75 9.4 M8.4 9.1 L8.15 8.95 7.75 9.0 7.45 9.2 7.4 9.45 7.45 9.75 7.45 9.85 7.9 9.7 7.8 9.4 7.85 9.3 7.9 9.35 8.0 9.45 8.0 9.6 7.8 9.8 7.6 10.05 7.65 10.35 7.7 10.45 7.9 10.7 8.15 10.7 8.3 10.6 8.35 10.4 8.4 10.55 8.85 10.4 8.6 9.6 8.4 9.1 M8.85 8.4 L8.4 8.6 8.5 8.85 8.4 8.85 8.5 9.1 8.6 9.1 8.9 9.9 9.0 10.1 9.15 10.25 9.25 10.25 9.5 10.15 9.65 10.1 9.6 9.85 9.45 9.9 9.35 9.7 9.05 8.9 9.2 8.85 9.1 8.6 8.95 8.65 8.85 8.4" fill="url(#gradient0)" fill-rule="evenodd" stroke="none"/>
    <path d="M10.2 9.9 L10.0 10.0 9.85 10.0 9.75 9.85 9.65 9.6 9.35 8.8 9.25 8.85 9.15 8.6 9.25 8.55 9.15 8.3 9.6 8.15 9.7 8.4 9.85 8.35 9.95 8.6 9.8 8.65 10.1 9.45 10.15 9.65 10.35 9.6 10.4 9.85 10.2 9.9 M5.0 10.1 L5.25 9.95 5.4 9.9 5.55 9.95 5.55 9.85 6.0 9.7 6.45 10.9 6.55 11.2 6.5 11.4 6.35 11.6 6.05 11.7 5.7 11.8 5.45 11.55 5.9 11.4 6.0 11.45 6.05 11.4 6.05 11.25 6.0 11.1 5.9 11.25 5.75 11.35 5.55 11.4 5.4 11.3 5.25 11.05 5.05 10.5 5.0 10.1 M8.85 8.4 L8.95 8.65 9.1 8.6 9.2 8.85 9.05 8.9 9.35 9.7 9.45 9.9 9.6 9.85 9.65 10.1 9.5 10.15 9.25 10.25 9.15 10.25 9.0 10.1 8.9 9.9 8.6 9.1 8.5 9.1 8.4 8.85 8.5 8.85 8.4 8.6 8.85 8.4 M8.4 9.1 L8.6 9.6 8.85 10.4 8.4 10.55 8.35 10.4 8.3 10.6 8.15 10.7 7.9 10.7 7.7 10.45 7.65 10.35 7.6 10.05 7.8 9.8 8.0 9.6 8.0 9.45 7.9 9.35 7.85 9.3 7.8 9.4 7.9 9.7 7.45 9.85 7.45 9.75 7.4 9.45 7.45 9.2 7.75 9.0 8.15 8.95 8.4 9.1 M6.75 9.4 L7.15 9.25 7.45 10.4 7.55 10.85 7.5 11.0 7.4 11.15 7.1 11.25 6.85 11.4 6.75 11.15 6.9 11.05 6.9 11.0 6.85 10.85 6.1 9.65 6.5 9.5 7.05 10.5 6.75 9.4 M5.6 10.15 L5.55 10.15 5.5 10.2 5.55 10.3 5.75 10.85 5.8 11.0 5.85 11.0 5.9 10.95 5.85 10.75 5.65 10.25 5.6 10.15 M8.05 10.0 L8.1 10.2 8.15 10.3 8.25 10.35 8.25 10.15 8.15 9.8 8.05 10.0" fill="#ff0000" fill-rule="evenodd" stroke="none"/>
    <path d="M2.1 8.35 Q1.75 6.0 2.1 3.65 2.95 1.4 6.25 0.1 10.45 -0.55 13.85 5.7 17.5 20.2 14.75 21.2 L10.75 22.6 Q5.45 17.25 2.35 9.95 2.15 9.15 2.1 8.35 Z" fill="none" stroke="#020202" stroke-linecap="round" stroke-linejoin="round" stroke-width="1.0"/>
    <path d="M1.9 14.6 L1.8 14.3 Q1.2 12.25 1.0 10.15 L1.7 9.35 10.6 7.55 11.55 8.05 12.05 10.45 15.55 9.7 Q16.75 11.35 16.75 12.5 L12.7 13.1 13.0 14.45 16.75 13.9 Q17.2 15.05 16.65 16.15 L13.55 16.85 13.6 17.25 12.4 19.35 6.15 20.8 4.35 20.9 Q2.75 17.85 1.9 14.6 L4.05 16.8 Q7.4 16.85 10.4 15.45 L10.4 13.2 12.1 11.75 10.4 13.2 10.4 15.45 Q7.4 16.85 4.05 16.8 L1.9 14.6 M7.85 10.7 L7.6 9.7 7.85 10.7 M13.55 16.85 L13.0 14.45 13.55 16.85 M8.95 14.75 L8.3 12.3 8.95 14.75 M12.7 13.1 L12.05 10.45 12.7 13.1" fill="#1c1d1a" fill-rule="evenodd" stroke="none"/>
    <path d="M1.9 14.6 L1.8 14.3 Q1.2 12.25 1.0 10.15 L1.7 9.35 10.6 7.55 11.55 8.05 12.05 10.45 15.55 9.7 Q16.75 11.35 16.75 12.5 L12.7 13.1 13.0 14.45 16.75 13.9 Q17.2 15.05 16.65 16.15 L13.55 16.85 13.6 17.25 12.4 19.35 6.15 20.8 4.35 20.9 Q2.75 17.85 1.9 14.6 L4.05 16.8 Q7.4 16.85 10.4 15.45 L10.4 13.2 12.1 11.75 M13.0 14.45 L13.55 16.85 M12.05 10.45 L12.7 13.1" fill="none" stroke="#0e0e0e" stroke-linecap="round" stroke-linejoin="round" stroke-width="1.0"/>
    <path d="M7.6 9.7 L7.85 10.7 M8.3 12.3 L8.95 14.75" fill="none" stroke="#ff0000" stroke-linecap="round" stroke-linejoin="round" stroke-width="1.0"/>
  </g>
  <defs>
    <radialGradient cx="0" cy="0" fx="192.0" fy="0" gradientTransform="matrix(0.0099, -0.0037, 0.0128, 0.0339, 5.5, -1.65)" gradientUnits="userSpaceOnUse" id="gradient0" r="819.2" spreadMethod="pad">
      <stop offset="0.0" stop-color="#1e1e1e"/>
      <stop offset="0.4470588235294118" stop-color="#171717"/>
      <stop offset="1.0" stop-color="#0e0e0e"/>
      <stop offset="1.0" stop-color="#383838"/>
    </radialGradient>
  </defs>
</svg>
