<?xml version="1.0" encoding="UTF-8" standalone="no"?>
<svg xmlns:ffdec="https://www.free-decompiler.com/flash" xmlns:xlink="http://www.w3.org/1999/xlink" ffdec:objectType="shape" height="12.7px" width="17.05px" xmlns="http://www.w3.org/2000/svg">
  <g transform="matrix(1.0, 0.0, 0.0, 1.0, 0.0, 3.85)">
    <path d="M10.7 6.3 L12.1 6.55 11.0 6.85 10.7 6.3" fill="url(#gradient0)" fill-rule="evenodd" stroke="none"/>
    <path d="M6.05 -1.95 Q5.4 -4.65 8.6 -2.05 9.3 -1.55 8.85 2.35 L10.8 2.55 11.85 1.9 Q13.9 2.1 15.65 3.2 L15.65 4.75 14.15 4.75 13.3 6.25 12.1 6.55 10.7 6.3 Q8.2 5.65 6.55 4.25 L7.1 2.15 6.05 -1.95 M8.85 3.1 L7.1 2.15 8.85 3.1 M10.7 6.3 L10.35 5.35 11.25 3.85 9.95 3.2 11.25 3.85 10.35 5.35 10.7 6.3 M10.8 2.55 L9.35 3.15 10.8 2.55" fill="url(#gradient1)" fill-rule="evenodd" stroke="none"/>
    <path d="M6.05 -1.95 L7.1 2.15 6.55 4.25 3.9 2.7 1.65 3.05 3.9 2.7 6.55 4.25 Q8.2 5.65 10.7 6.3 L11.0 6.85 10.9 6.85 6.25 6.95 6.25 7.65 4.45 7.65 2.8 6.1 1.15 5.85 1.15 3.9 1.65 3.05 1.7 2.9 1.7 -1.85 6.05 -1.95" fill="#151515" fill-rule="evenodd" stroke="none"/>
    <path d="M15.65 4.75 L16.55 6.15 16.25 7.35 15.65 8.3 Q14.55 7.9 13.3 8.3 12.2 8.0 10.9 8.3 L6.25 8.2 6.25 7.65 6.25 6.95 10.9 6.85 10.9 8.3 10.9 6.85 11.0 6.85 12.1 6.55 13.3 6.25 14.15 4.75 15.65 4.75 M4.45 7.65 L4.45 8.05 Q3.45 7.75 0.5 8.05 L0.5 5.85 1.15 5.85 2.8 6.1 4.45 7.65 M13.3 8.3 L13.3 6.25 13.3 8.3" fill="#111111" fill-rule="evenodd" stroke="none"/>
    <path d="M15.65 4.75 L16.55 6.15 16.25 7.35 15.65 8.3 Q14.55 7.9 13.3 8.3 12.2 8.0 10.9 8.3 L6.25 8.2 6.25 7.65 4.45 7.65 4.45 8.05 Q3.45 7.75 0.5 8.05 L0.5 5.85 1.15 5.85 2.8 6.1 4.45 7.65 M15.65 4.75 L14.15 4.75 13.3 6.25 13.3 8.3 M12.1 6.55 L13.3 6.25 M10.9 8.3 L10.9 6.85 6.25 6.95 6.25 7.65 M11.0 6.85 L12.1 6.55 M10.9 6.85 L11.0 6.85" fill="none" stroke="#070707" stroke-linecap="round" stroke-linejoin="round" stroke-width="1.0"/>
    <path d="M11.0 6.85 L10.7 6.3" fill="none" stroke="#070707" stroke-linecap="round" stroke-linejoin="miter-clip" stroke-miterlimit="3.0" stroke-width="1.0"/>
    <path d="M10.8 2.55 L8.85 2.35 Q9.3 -1.55 8.6 -2.05 5.4 -4.65 6.05 -1.95 L7.1 2.15 8.85 3.1 M6.05 -1.95 L1.7 -1.85 1.7 2.9 1.65 3.05 3.9 2.7 6.55 4.25 7.1 2.15 M1.15 5.85 L1.15 3.9 1.65 3.05 M10.8 2.55 L11.85 1.9 Q13.9 2.1 15.65 3.2 L15.65 4.75 M9.95 3.2 L11.25 3.85 10.35 5.35 10.7 6.3 M9.35 3.15 L10.8 2.55" fill="none" stroke="#0d0d0c" stroke-linecap="round" stroke-linejoin="round" stroke-width="1.0"/>
    <path d="M13.15 3.95 L13.1 4.0 11.5 4.0 10.05 3.0 11.75 2.05 13.95 2.4 13.15 3.95 M5.4 4.4 L4.15 4.55 3.3 4.3 2.1 4.55 1.85 4.6 0.75 4.25 0.75 3.2 2.7 2.1 4.9 2.5 5.5 4.35 5.5 4.4 5.4 4.4" fill="#111111" fill-rule="evenodd" stroke="none"/>
    <path d="M13.15 3.95 L13.95 2.4 11.75 2.05 10.05 3.0 11.5 4.0 13.1 4.0 13.15 3.95 14.15 4.8 15.65 4.8 16.55 6.2 16.25 7.4 15.65 8.35 Q14.55 7.95 13.3 8.35 12.2 8.05 10.9 8.35 L6.25 8.25 6.25 7.7 4.45 7.7 4.45 8.1 Q3.45 7.8 0.5 8.1 L0.5 5.9 1.15 5.9 2.8 6.15 4.45 7.7 M10.9 8.35 L10.9 6.9 6.25 7.0 6.25 7.05 6.25 7.7 M10.9 6.9 L11.0 6.9 13.3 6.3 14.15 4.8 M13.3 6.3 L13.3 8.35 M5.4 4.4 L5.5 4.4 5.5 4.35 4.9 2.5 2.7 2.1 0.75 3.2 0.75 4.25 1.85 4.6 2.1 4.55 3.3 4.3 4.15 4.55 5.4 4.4 6.25 7.05 M2.1 4.55 L1.7 5.7" fill="none" stroke="#070707" stroke-linecap="round" stroke-linejoin="round" stroke-width="1.0"/>
    <path d="M1.75 -0.3 L3.1 -0.3 3.85 -1.95" fill="none" stroke="#0d0d0c" stroke-linecap="round" stroke-linejoin="round" stroke-width="1.0"/>
  </g>
  <defs>
    <radialGradient cx="0" cy="0" gradientTransform="matrix(6.0E-4, -0.0021, 0.0038, 0.001, 12.5, 2.6)" gradientUnits="userSpaceOnUse" id="gradient0" r="819.2" spreadMethod="pad">
      <stop offset="0.06274509803921569" stop-color="#464646"/>
      <stop offset="0.596078431372549" stop-color="#252525"/>
      <stop offset="1.0" stop-color="#101010"/>
    </radialGradient>
    <radialGradient cx="0" cy="0" gradientTransform="matrix(0.0354, 0.0, 0.0, 0.0354, 30.7, -11.65)" gradientUnits="userSpaceOnUse" id="gradient1" r="819.2" spreadMethod="pad">
      <stop offset="0.06274509803921569" stop-color="#464646"/>
      <stop offset="0.596078431372549" stop-color="#252525"/>
      <stop offset="1.0" stop-color="#191919"/>
    </radialGradient>
  </defs>
</svg>
