<?xml version="1.0" encoding="UTF-8" standalone="no"?>
<svg xmlns:ffdec="https://www.free-decompiler.com/flash" xmlns:xlink="http://www.w3.org/1999/xlink" ffdec:objectType="shape" height="19.7px" width="16.95px" xmlns="http://www.w3.org/2000/svg">
  <g transform="matrix(1.0, 0.0, 0.0, 1.0, 8.55, 7.05)">
    <path d="M0.4 -0.85 L0.35 -0.85 -1.25 -1.05 -6.05 -1.75 Q-5.65 -4.25 -4.05 -5.4 -2.75 -6.35 0.35 -6.55 L1.4 -6.5 Q3.35 -6.35 4.3 -4.65 L3.05 -4.45 2.35 -4.35 0.4 -0.85 2.35 -4.35 3.05 -4.45 2.6 -4.35 2.4 -4.35 0.45 -0.8 0.4 -0.85 M0.45 11.7 L0.45 11.75 -4.75 11.25 -6.3 4.2 -6.25 4.2 -4.7 11.2 0.45 11.7 -4.7 11.2 -6.25 4.2 -2.1 3.6 -1.4 4.45 0.65 7.0 0.55 9.35 0.45 11.7" fill="#333333" fill-rule="evenodd" stroke="none"/>
    <path d="M3.65 12.05 L2.8 12.0 0.5 11.75 0.5 11.7 3.65 12.05" fill="#4d4946" fill-rule="evenodd" stroke="none"/>
    <path d="M-6.25 4.2 L-6.45 4.2 -7.15 3.55 -6.25 4.2 -6.25 4.15 -5.2 4.0 -6.25 4.2 M-7.95 2.1 L-8.0 1.15 -7.7 0.15 -7.95 2.1 M-6.65 -1.3 L-6.15 -1.75 -6.1 -1.75 -6.65 -1.3 M0.35 -0.75 L-0.2 0.3 0.35 -0.75" fill="#8a8580" fill-rule="evenodd" stroke="none"/>
    <path d="M-6.1 -1.75 L-2.9 -1.25 0.3 -0.75 0.35 -0.75 -0.2 0.3 -1.45 2.45 -2.1 3.55 -5.2 4.0 -6.25 4.15 -6.25 4.2 -7.15 3.55 Q-7.75 2.8 -7.95 2.1 L-7.7 0.15 -7.25 -0.7 -6.95 -1.1 -6.65 -1.3 -6.1 -1.75" fill="url(#gradient0)" fill-rule="evenodd" stroke="none"/>
    <path d="M3.95 -4.55 L4.85 -4.65 4.9 -4.65 4.95 -4.6 3.45 3.6 0.7 6.95 -0.35 5.7 -2.05 3.6 0.45 -0.8 2.4 -4.35 2.6 -4.35 3.95 -4.55" fill="url(#gradient1)" fill-rule="evenodd" stroke="none"/>
    <path d="M4.95 -4.6 L6.05 -3.3 Q7.3 -1.5 7.6 0.3 8.05 3.1 7.7 7.1 L3.45 3.6 4.95 -4.6" fill="url(#gradient2)" fill-rule="evenodd" stroke="none"/>
    <path d="M4.6 12.15 L3.65 12.05 0.5 11.7 0.75 7.0 0.7 6.95 3.45 3.6 7.7 7.1 7.7 7.15 4.6 12.15" fill="url(#gradient3)" fill-rule="evenodd" stroke="none"/>
    <path d="M3.05 -4.45 L4.3 -4.65 Q3.35 -6.35 1.4 -6.5 L0.35 -6.55 Q-2.75 -6.35 -4.05 -5.4 -5.65 -4.25 -6.05 -1.75 L-1.25 -1.05 0.35 -0.85 0.4 -0.85 2.35 -4.35 3.05 -4.45 3.95 -4.55 4.85 -4.65 M4.95 -4.6 L4.95 -4.7 6.1 -3.35 Q7.35 -1.55 7.65 0.3 8.1 3.1 7.75 7.1 L4.65 12.15 4.6 12.15 3.65 12.05 2.8 12.0 M0.5 11.7 L0.45 11.7 -4.7 11.2 -6.25 4.2 -7.15 3.55 -8.05 2.9 -7.95 2.1 -7.7 0.15 -7.65 -0.6 -6.65 -1.3 -6.1 -1.75 -2.9 -1.25 -1.25 -1.05 M3.05 -4.45 L2.6 -4.35 M0.4 -0.85 L0.35 -0.75 -0.2 0.3 -1.45 2.45 -2.1 3.6 -1.4 4.45 -0.35 5.7 0.7 6.95 0.55 9.35 0.45 11.7 M0.45 -0.8 L0.4 -0.85 M4.95 -4.6 L3.45 3.6 7.7 7.1 7.75 7.1 M0.5 11.7 L3.65 12.05 M0.7 6.95 L3.45 3.6 M-2.1 3.55 L-5.2 4.0 -6.25 4.15 -6.25 4.2" fill="none" stroke="#2b2927" stroke-linecap="round" stroke-linejoin="round" stroke-width="1.0"/>
  </g>
  <defs>
    <radialGradient cx="0" cy="0" gradientTransform="matrix(0.0088, 0.0, 0.0, 0.0088, -3.2, 0.85)" gradientUnits="userSpaceOnUse" id="gradient0" r="819.2" spreadMethod="pad">
      <stop offset="0.0" stop-color="#8a8580"/>
      <stop offset="1.0" stop-color="#6d6965"/>
      <stop offset="1.0" stop-color="#333333"/>
    </radialGradient>
    <radialGradient cx="0" cy="0" gradientTransform="matrix(0.0053, 0.0, 0.0, 0.0053, 2.6, 3.1)" gradientUnits="userSpaceOnUse" id="gradient1" r="819.2" spreadMethod="pad">
      <stop offset="0.0" stop-color="#4d4946"/>
      <stop offset="1.0" stop-color="#3c3b38"/>
      <stop offset="1.0" stop-color="#333333"/>
    </radialGradient>
    <radialGradient cx="0" cy="0" gradientTransform="matrix(0.0092, 0.0, 0.0, 0.0092, 3.35, 3.95)" gradientUnits="userSpaceOnUse" id="gradient2" r="819.2" spreadMethod="pad">
      <stop offset="0.0" stop-color="#4d4946"/>
      <stop offset="1.0" stop-color="#3c3b38"/>
      <stop offset="1.0" stop-color="#333333"/>
    </radialGradient>
    <radialGradient cx="0" cy="0" gradientTransform="matrix(0.0098, 0.0, 0.0, 0.0098, 2.55, 1.3)" gradientUnits="userSpaceOnUse" id="gradient3" r="819.2" spreadMethod="pad">
      <stop offset="0.0" stop-color="#4d4946"/>
      <stop offset="1.0" stop-color="#3c3b38"/>
      <stop offset="1.0" stop-color="#333333"/>
    </radialGradient>
  </defs>
</svg>
