<?xml version="1.0" encoding="UTF-8" standalone="no"?>
<svg xmlns:ffdec="https://www.free-decompiler.com/flash" xmlns:xlink="http://www.w3.org/1999/xlink" ffdec:objectType="shape" height="19.6px" width="11.15px" xmlns="http://www.w3.org/2000/svg">
  <g transform="matrix(1.0, 0.0, 0.0, 1.0, 4.95, 3.95)">
    <path d="M5.0 -2.0 Q5.7 -1.25 5.7 0.5 L5.35 3.45 Q4.95 4.95 4.65 9.2 L4.45 13.15 Q4.15 15.2 1.7 15.15 -0.75 15.1 -1.6 13.15 L-3.15 9.05 Q-4.6 4.65 -4.45 2.75 -4.2 -0.1 -3.55 -1.4 -2.75 -3.0 -0.95 -3.3 0.45 -3.55 1.95 -3.3 4.0 -3.0 5.0 -2.0" fill="url(#gradient0)" fill-rule="evenodd" stroke="none"/>
    <path d="M5.0 -2.0 Q5.7 -1.25 5.7 0.5 L5.35 3.45 Q4.95 4.95 4.65 9.2 L4.45 13.15 Q4.15 15.2 1.7 15.15 -0.75 15.1 -1.6 13.15 L-3.15 9.05 Q-4.6 4.65 -4.45 2.75 -4.2 -0.1 -3.55 -1.4 -2.75 -3.0 -0.95 -3.3 0.45 -3.55 1.95 -3.3 4.0 -3.0 5.0 -2.0 Z" fill="none" stroke="#191f26" stroke-linecap="round" stroke-linejoin="round" stroke-width="1.05"/>
    <path d="M-1.5 2.6 L-1.5 0.8 -1.3 -0.7 2.2 -0.4 2.2 1.95 2.05 2.65" fill="none" stroke="#242f3c" stroke-linecap="round" stroke-linejoin="round" stroke-width="1.05"/>
    <path d="M-1.8 6.6 Q-1.8 8.55 -0.65 10.4 L0.5 11.8" fill="none" stroke="#242f3c" stroke-linecap="round" stroke-linejoin="round" stroke-width="1.05"/>
    <path d="M3.75 4.35 Q3.4 7.15 2.4 8.45 L1.75 9.1 1.5 9.2" fill="none" stroke="#242f3c" stroke-linecap="round" stroke-linejoin="round" stroke-width="1.05"/>
  </g>
  <defs>
    <linearGradient gradientTransform="matrix(0.0037, 2.0E-4, -2.0E-4, 0.0033, -2.15, 5.65)" gradientUnits="userSpaceOnUse" id="gradient0" spreadMethod="pad" x1="-819.2" x2="819.2">
      <stop offset="0.0" stop-color="#212c39"/>
      <stop offset="1.0" stop-color="#333f4d"/>
    </linearGradient>
  </defs>
</svg>
