<?xml version="1.0" encoding="UTF-8" standalone="no"?>
<svg xmlns:ffdec="https://www.free-decompiler.com/flash" xmlns:xlink="http://www.w3.org/1999/xlink" ffdec:objectType="shape" height="22.05px" width="15.4px" xmlns="http://www.w3.org/2000/svg">
  <g transform="matrix(1.0, 0.0, 0.0, 1.0, 0.5, 0.5)">
    <path d="M13.35 17.05 L12.65 18.85 Q11.5 20.9 9.25 21.05 6.95 21.15 5.3 19.45 L4.8 18.85 11.1 18.85 13.35 17.05 M1.45 4.4 L1.7 2.9 Q2.6 0.2 5.25 0.05 7.85 -0.15 9.65 1.1 11.45 2.3 12.25 5.2 L12.65 7.55 11.55 6.75 11.4 5.65 Q9.15 3.3 4.65 3.2 2.6 3.5 1.45 4.4" fill="#252721" fill-rule="evenodd" stroke="none"/>
    <path d="M0.65 8.85 L0.0 6.25 Q0.45 5.1 1.45 4.4 2.6 3.5 4.65 3.2 9.15 3.3 11.4 5.65 L11.55 6.75 12.6 15.4 10.35 17.2 9.45 13.75 8.75 11.25 8.05 8.85 0.65 8.85" fill="#746e69" fill-rule="evenodd" stroke="none"/>
    <path d="M12.65 7.55 L13.55 8.15 14.4 16.15 13.35 17.05 11.1 18.85 4.8 18.85 4.15 18.85 3.7 17.2 10.35 17.2 12.6 15.4 11.55 6.75 12.65 7.55" fill="#855f3d" fill-rule="evenodd" stroke="none"/>
    <path d="M3.7 17.2 L2.7 17.2 1.8 13.7 1.2 11.25 0.65 8.85 8.05 8.85 8.75 11.25 9.45 13.75 10.35 17.2 3.7 17.2 M9.45 13.75 L1.8 13.7 9.45 13.75 M1.2 11.25 L8.75 11.25 1.2 11.25" fill="#54504d" fill-rule="evenodd" stroke="none"/>
    <path d="M12.65 7.55 L13.55 8.15 14.4 16.15 13.35 17.05 12.65 18.85 Q11.5 20.9 9.25 21.05 6.95 21.15 5.3 19.45 L4.8 18.85 4.15 18.85 3.7 17.2 2.7 17.2 1.8 13.7 1.2 11.25 0.65 8.85 0.0 6.25 Q0.45 5.1 1.45 4.4 2.6 3.5 4.65 3.2 9.15 3.3 11.4 5.65 L11.55 6.75 12.6 15.4 10.35 17.2 3.7 17.2 M12.65 7.55 L11.55 6.75 M0.65 8.85 L8.05 8.85 8.75 11.25 9.45 13.75 10.35 17.2 M8.75 11.25 L1.2 11.25 M1.8 13.7 L9.45 13.75 M4.8 18.85 L11.1 18.85 13.35 17.05" fill="none" stroke="#21201f" stroke-linecap="round" stroke-linejoin="round" stroke-width="1.0"/>
    <path d="M1.45 4.4 L1.7 2.9 Q2.6 0.2 5.25 0.05 7.85 -0.15 9.65 1.1 11.45 2.3 12.25 5.2 L12.65 7.55" fill="none" stroke="#1c1d10" stroke-linecap="round" stroke-linejoin="round" stroke-width="1.0"/>
  </g>
</svg>
