<?xml version="1.0" encoding="UTF-8" standalone="no"?>
<svg xmlns:ffdec="https://www.free-decompiler.com/flash" xmlns:xlink="http://www.w3.org/1999/xlink" ffdec:objectType="shape" height="23.75px" width="15.0px" xmlns="http://www.w3.org/2000/svg">
  <g transform="matrix(1.0, 0.0, 0.0, 1.0, 7.5, 11.85)">
    <path d="M-5.0 -2.9 L-4.95 -4.9 Q-4.9 -6.5 -4.35 -7.5 L-3.45 -9.25 Q-2.75 -10.35 -1.95 -10.8 -0.5 -11.55 1.3 -11.3 3.15 -11.1 4.15 -9.85 L5.65 -7.65 Q6.3 -6.5 6.4 -5.5 L6.3 -4.25 6.2 -2.75 6.0 -0.5 5.7 1.35 5.4 2.65 Q5.05 3.6 5.05 4.15 L4.95 6.4 Q4.95 7.7 4.6 8.45 4.0 9.85 3.25 10.5 2.4 11.25 1.1 11.4 -0.15 11.5 -1.2 10.7 L-2.75 8.75 -3.35 6.85 -3.85 4.15 -4.5 0.9 Q-5.1 -1.8 -5.0 -2.9" fill="url(#gradient0)" fill-rule="evenodd" stroke="none"/>
    <path d="M-5.0 -2.9 Q-5.1 -1.8 -4.5 0.9 L-3.85 4.15 -3.35 6.85 -2.75 8.75 -1.2 10.7 Q-0.15 11.5 1.1 11.4 2.4 11.25 3.25 10.5 4.0 9.85 4.6 8.45 4.95 7.7 4.95 6.4 L5.05 4.15 Q5.05 3.6 5.4 2.65 L5.7 1.35 6.0 -0.5 6.2 -2.75 6.3 -4.25 6.4 -5.5 Q6.3 -6.5 5.65 -7.65 L4.15 -9.85 Q3.15 -11.1 1.3 -11.3 -0.5 -11.55 -1.95 -10.8 -2.75 -10.35 -3.45 -9.25 L-4.35 -7.5 Q-4.9 -6.5 -4.95 -4.9 L-5.0 -2.9 Z" fill="none" stroke="#201f1c" stroke-linecap="round" stroke-linejoin="round" stroke-width="1.05"/>
    <path d="M-2.05 -6.9 L2.5 -7.15 2.85 -1.15 -1.7 -0.85 -2.05 -6.9" fill="#44433d" fill-rule="evenodd" stroke="none"/>
    <path d="M-2.05 -6.9 L2.5 -7.15 2.85 -1.15 -1.7 -0.85 -2.05 -6.9 Z" fill="none" stroke="#201f1c" stroke-linecap="round" stroke-linejoin="round" stroke-width="1.05"/>
    <path d="M-2.35 -6.85 L2.75 -7.2 2.85 -5.5 -2.25 -5.2 -2.35 -6.85" fill="#44433d" fill-rule="evenodd" stroke="none"/>
    <path d="M-2.35 -6.85 L2.75 -7.2 2.85 -5.5 -2.25 -5.2 -2.35 -6.85 Z" fill="none" stroke="#201f1c" stroke-linecap="round" stroke-linejoin="round" stroke-width="1.05"/>
    <path d="M-6.1 -4.35 L-4.15 -4.35 Q-4.15 -2.3 -3.35 1.65 L-5.3 1.65 Q-6.1 -2.25 -6.1 -4.35" fill="#44433d" fill-rule="evenodd" stroke="none"/>
    <path d="M-6.1 -4.35 Q-6.1 -2.25 -5.3 1.65 L-3.35 1.65 Q-4.15 -2.3 -4.15 -4.35 L-6.1 -4.35 Z" fill="none" stroke="#201f1c" stroke-linecap="round" stroke-linejoin="round" stroke-width="1.05"/>
    <path d="M-7.0 -4.85 L-4.1 -5.1 -3.95 -3.45 -6.85 -3.15 -7.0 -4.85" fill="#44433d" fill-rule="evenodd" stroke="none"/>
    <path d="M-7.0 -4.85 L-4.1 -5.1 -3.95 -3.45 -6.85 -3.15 -7.0 -4.85 Z" fill="none" stroke="#201f1c" stroke-linecap="round" stroke-linejoin="round" stroke-width="1.05"/>
    <path d="M-0.75 3.8 L-0.85 1.45 1.8 1.35 1.8 3.9" fill="none" stroke="#201f1c" stroke-linecap="round" stroke-linejoin="round" stroke-width="1.05"/>
    <path d="M7.0 -2.0 L6.9 0.75 Q6.0 1.3 5.2 2.3 L4.6 3.15 4.95 -1.75 7.0 -2.0" fill="#46453f" fill-rule="evenodd" stroke="none"/>
    <path d="M4.95 -1.75 L7.0 -2.0 6.9 0.75 Q6.0 1.3 5.2 2.3 L4.6 3.15" fill="none" stroke="#201f1c" stroke-linecap="round" stroke-linejoin="round" stroke-width="1.05"/>
  </g>
  <defs>
    <linearGradient gradientTransform="matrix(0.0053, -3.0E-4, 3.0E-4, 0.0053, -1.25, -0.05)" gradientUnits="userSpaceOnUse" id="gradient0" spreadMethod="pad" x1="-819.2" x2="819.2">
      <stop offset="0.0" stop-color="#2d2d25"/>
      <stop offset="1.0" stop-color="#46453f"/>
    </linearGradient>
  </defs>
</svg>
