<?xml version="1.0" encoding="UTF-8" standalone="no"?>
<svg xmlns:ffdec="https://www.free-decompiler.com/flash" xmlns:xlink="http://www.w3.org/1999/xlink" ffdec:objectType="shape" height="25.95px" width="28.95px" xmlns="http://www.w3.org/2000/svg">
  <g transform="matrix(1.0, 0.0, 0.0, 1.0, 15.7, 23.15)">
    <path d="M4.45 1.55 L3.45 1.15 1.35 -0.25 -0.2 -0.05 -0.95 -0.9 -0.25 -1.4 -0.1 -3.0 1.15 -2.35 4.7 0.35 4.45 1.55" fill="#7e7467" fill-rule="evenodd" stroke="none"/>
    <path d="M-0.95 -0.9 L-0.2 -0.05 1.35 -0.25 3.2 1.0 3.9 1.35 4.45 1.55" fill="none" stroke="#544f46" stroke-linecap="round" stroke-linejoin="round" stroke-width="0.9500000000000001"/>
    <path d="M-0.05 -2.35 L-0.25 -1.4 -1.6 -0.45 -1.9 0.1 -2.5 0.0 -4.0 0.6 Q-4.75 0.4 -5.6 -0.4 L-7.0 -1.8 -7.0 -2.65 -7.1 -3.35 -7.25 -3.75 -3.45 -3.95 -0.45 -2.45 -0.05 -2.35" fill="#7e7467" fill-rule="evenodd" stroke="none"/>
    <path d="M-7.25 -3.75 L-0.05 -2.35 -0.25 -1.4 -1.6 -0.45 -1.9 0.1 -2.5 0.0 -4.0 0.6 Q-4.75 0.4 -5.6 -0.4 L-7.0 -1.8 -7.0 -2.65 -7.1 -3.35 -7.25 -3.75" fill="#7e7467" fill-rule="evenodd" stroke="none"/>
    <path d="M-0.05 -2.35 L-0.25 -1.4 -1.6 -0.45 -1.9 0.1 -2.5 0.0 -4.0 0.6 Q-4.75 0.4 -5.6 -0.4 L-7.0 -1.8 -7.0 -2.65 -7.1 -3.35 -7.25 -3.75 -3.45 -3.95 -0.45 -2.45 -0.05 -2.35 Z" fill="none" stroke="#453f38" stroke-linecap="round" stroke-linejoin="round" stroke-width="0.9500000000000001"/>
    <path d="M-7.25 -3.75 L-7.1 -3.35 -7.0 -2.65 -7.0 -1.8 -5.6 -0.4 Q-4.75 0.4 -4.0 0.6 L-2.5 0.0 -1.9 0.1 -1.6 -0.45 -0.25 -1.4 -0.05 -2.35" fill="none" stroke="#453f38" stroke-linecap="round" stroke-linejoin="round" stroke-width="0.9500000000000001"/>
    <path d="M-2.05 -17.25 L-1.8 -17.25 Q1.9 -16.55 3.85 -15.15 L4.8 -13.9 4.35 -12.1 -1.0 -10.65 -1.15 -8.8 0.1 -7.6 Q0.2 -7.2 1.55 -6.55 L3.85 -5.3 4.8 -4.5 8.1 -0.9 9.0 -1.0 10.05 -0.1 Q8.85 2.05 8.25 2.25 L5.85 1.9 6.1 1.25 0.9 -2.45 -0.95 -2.95 -2.05 -3.05 -2.6 -4.5 -7.05 -4.05 -8.85 -3.6 -9.8 -4.55 -9.3 -6.35 -4.3 -7.55 Q-3.1 -9.0 -2.35 -10.85 L-2.25 -11.65 -4.4 -13.75 -10.7 -14.35 -10.25 -15.1 -10.0 -15.3 -5.9 -16.0 -4.5 -16.6 -2.05 -17.25" fill="url(#gradient0)" fill-rule="evenodd" stroke="none"/>
    <path d="M-1.75 -11.85 Q-2.05 -10.75 -2.6 -9.55 -3.2 -8.15 -3.7 -7.75 -4.4 -7.15 -14.5 -5.5 -15.7 -7.95 -14.95 -8.45 L-6.4 -13.15 -5.0 -13.25 -3.85 -13.2 -1.65 -12.6 -1.75 -11.85" fill="#a39580" fill-rule="evenodd" stroke="none"/>
    <path d="M3.8 -5.3 L2.1 -4.65 -1.85 -5.2 -2.6 -4.5" fill="none" stroke="#72685b" stroke-linecap="round" stroke-linejoin="round" stroke-width="0.9500000000000001"/>
    <path d="M-8.05 -11.25 L-14.1 -7.85 -14.95 -8.45" fill="none" stroke="#f6cfca" stroke-linecap="round" stroke-linejoin="round" stroke-width="0.9500000000000001"/>
    <path d="M9.0 -1.0 L8.1 -0.9 Q5.05 -4.5 3.85 -5.3 0.3 -7.05 0.1 -7.6 L-0.6 -8.4 -1.15 -8.8 -1.2 -10.2 -1.0 -10.65 4.35 -12.1 4.8 -13.9 Q7.7 -12.75 10.55 -10.5 L12.8 -8.45 11.85 -5.9 11.0 -4.4 10.1 -3.75 Q9.4 -3.3 9.35 -3.1 L9.0 -1.0" fill="url(#gradient1)" fill-rule="evenodd" stroke="none"/>
    <path d="M3.8 -5.3 L6.05 -6.25 6.75 -7.5 5.2 -10.7 4.35 -12.1 M6.05 -6.25 L8.35 -4.75 8.45 -3.6 9.3 -3.1" fill="none" stroke="#2a2928" stroke-linecap="round" stroke-linejoin="round" stroke-opacity="0.22352941" stroke-width="0.9500000000000001"/>
    <path d="M-1.9 -10.8 L-1.0 -10.65" fill="none" stroke="#72685b" stroke-linecap="round" stroke-linejoin="round" stroke-width="0.9500000000000001"/>
    <path d="M0.1 -7.6 L-0.45 -8.25 -1.15 -8.8 -1.2 -9.75 -1.0 -10.65 4.35 -12.1 4.8 -13.9" fill="none" stroke="#72685b" stroke-linecap="round" stroke-linejoin="round" stroke-width="0.9500000000000001"/>
    <path d="M4.8 -13.9 L3.85 -15.15 Q1.9 -16.55 -1.8 -17.25 L-4.35 -16.7 -5.9 -16.0 -10.0 -15.3 -10.25 -15.1 -10.7 -14.35" fill="none" stroke="#453f38" stroke-linecap="round" stroke-linejoin="round" stroke-width="0.9500000000000001"/>
    <path d="M-2.55 -16.55 L-3.9 -16.3 -4.55 -16.4 -6.4 -15.9 -11.85 -19.2 -11.7 -20.85 -14.95 -22.6 -14.35 -22.55 -2.85 -17.2 -2.55 -16.55" fill="#2a2928" fill-rule="evenodd" stroke="none"/>
    <path d="M-2.55 -16.55 L-2.85 -17.2 -14.35 -22.55 -14.95 -22.6 -11.7 -20.85 -11.85 -19.2 -6.4 -15.9 -4.55 -16.4 -3.9 -16.3 -2.55 -16.55 Z" fill="none" stroke="#2a2928" stroke-linecap="round" stroke-linejoin="round" stroke-width="0.9500000000000001"/>
    <path d="M-5.3 -18.4 L-14.05 -22.65 -14.8 -22.6" fill="none" stroke="#464442" stroke-linecap="round" stroke-linejoin="round" stroke-width="0.9500000000000001"/>
    <path d="M-14.95 -22.6 L-14.3 -22.7" fill="none" stroke="#6bde90" stroke-linecap="round" stroke-linejoin="round" stroke-width="0.9500000000000001"/>
    <path d="M-1.65 -12.6 L-2.0 -11.2 -3.55 -11.7 -6.95 -11.9 -7.7 -11.5 -12.6 -14.05 -12.25 -14.95 -11.7 -15.45 -3.8 -14.75 -1.65 -12.6" fill="#a39580" fill-rule="evenodd" stroke="none"/>
    <path d="M-3.75 -14.25 L-4.35 -13.85 -6.1 -14.05 -6.45 -14.7" fill="none" stroke="#877b6a" stroke-linecap="round" stroke-linejoin="round" stroke-width="0.9500000000000001"/>
    <path d="M-7.7 -11.5 L-7.75 -10.8 -7.4 -10.5 -6.2 -10.15 -5.25 -11.25 -5.75 -11.35 -6.95 -11.9 M-5.25 -11.25 Q-4.25 -11.15 -3.55 -11.7 L-2.0 -11.2" fill="none" stroke="#72685b" stroke-linecap="round" stroke-linejoin="round" stroke-width="0.9500000000000001"/>
    <path d="M-3.4 -14.5 L-2.9 -14.85 -0.8 -12.85 -0.95 -12.1 -1.75 -11.85" fill="none" stroke="#2a2928" stroke-linecap="round" stroke-linejoin="round" stroke-width="0.9500000000000001"/>
    <path d="M-9.35 -6.35 L-5.8 -7.1 Q-3.95 -7.55 -3.7 -7.75 -3.2 -8.15 -2.6 -9.55 -2.05 -10.75 -1.75 -11.85" fill="none" stroke="#665c4f" stroke-linecap="round" stroke-linejoin="round" stroke-width="0.9500000000000001"/>
    <path d="M-10.0 -15.3 L-3.8 -14.75 -1.65 -12.6 -1.75 -11.85" fill="none" stroke="#544f46" stroke-linecap="round" stroke-linejoin="round" stroke-width="0.9500000000000001"/>
    <path d="M-6.0 -4.05 L-7.05 -4.05 -8.85 -3.6 -9.8 -4.55 -9.3 -6.35" fill="none" stroke="#453f38" stroke-linecap="round" stroke-linejoin="round" stroke-width="0.9500000000000001"/>
    <path d="M-8.7 -11.95 L-14.95 -8.45 Q-15.7 -7.95 -14.5 -5.5 L-9.3 -6.35" fill="none" stroke="#2c2924" stroke-linecap="round" stroke-linejoin="round" stroke-width="0.9500000000000001"/>
    <path d="M-12.2 -14.65 L-7.65 -12.35 -7.7 -11.5" fill="none" stroke="#f6cfca" stroke-linecap="round" stroke-linejoin="round" stroke-width="0.9500000000000001"/>
    <path d="M-6.95 -11.9 L-7.7 -11.5 -12.6 -14.05 -12.25 -14.95 -11.7 -15.45 -10.0 -15.3 -8.8 -15.5" fill="none" stroke="#2c2924" stroke-linecap="round" stroke-linejoin="round" stroke-width="0.9500000000000001"/>
    <path d="M0.1 -7.6 Q0.2 -7.2 1.55 -6.55 L3.8 -5.3" fill="none" stroke="#72685b" stroke-linecap="round" stroke-linejoin="miter-clip" stroke-miterlimit="3.78125" stroke-width="0.9500000000000001"/>
    <path d="M3.8 -5.3 L4.75 -4.5 8.1 -0.9 9.0 -1.0" fill="none" stroke="#72685b" stroke-linecap="round" stroke-linejoin="round" stroke-width="0.9500000000000001"/>
    <path d="M2.7 -1.6 L3.85 -2.15 4.95 -1.35 4.55 -0.15" fill="none" stroke="#72685b" stroke-linecap="round" stroke-linejoin="round" stroke-width="0.9500000000000001"/>
    <path d="M9.0 -1.0 L10.05 -0.1 Q8.75 2.25 8.15 2.2 L5.85 1.9" fill="none" stroke="#2c2924" stroke-linecap="round" stroke-linejoin="round" stroke-width="0.9500000000000001"/>
    <path d="M9.0 -1.0 L9.35 -3.1 Q9.4 -3.3 10.1 -3.75 L11.0 -4.4 11.85 -5.9 12.8 -8.45 10.55 -10.5 Q7.7 -12.75 4.8 -13.9" fill="none" stroke="#2a2928" stroke-linecap="round" stroke-linejoin="round" stroke-width="0.9500000000000001"/>
    <path d="M4.05 -0.25 L4.65 2.2 5.85 2.15 6.1 1.25 4.05 -0.25 0.95 -2.5 -0.45 -2.45 Q-1.75 -1.4 -2.2 -1.4 L-2.55 -1.4 -3.7 -3.45 -6.1 -3.45 -5.9 -4.0 -7.05 -4.05 -8.85 -3.6 -9.3 -3.9 M-5.9 -4.0 L-5.75 -4.5 -2.6 -4.5 -2.25 -3.45 -1.35 -3.45 -0.8 -3.4 0.8 -2.65 0.95 -2.5 M-2.25 -3.45 L-3.7 -3.45" fill="none" stroke="#222120" stroke-linecap="round" stroke-linejoin="round" stroke-width="1.25"/>
    <path d="M-3.7 -3.35 L0.05 -3.4 -0.45 -2.45 -2.1 -1.4 -2.55 -1.4 -3.7 -3.35" fill="#222120" fill-rule="evenodd" stroke="none"/>
    <path d="M4.0 -0.25 L6.1 1.25 5.85 2.15 4.65 2.2 4.0 -0.25" fill="#222120" fill-rule="evenodd" stroke="none"/>
    <path d="M4.0 -0.25 L4.65 2.2 5.85 2.15 6.1 1.25 4.0 -0.25 Z" fill="none" stroke="#222120" stroke-linecap="butt" stroke-linejoin="miter-clip" stroke-miterlimit="3.78125" stroke-width="0.2"/>
    <path d="M-6.1 -3.45 L-5.75 -4.5 -2.6 -4.5 -2.25 -3.5 -6.1 -3.45" fill="#222120" fill-rule="evenodd" stroke="none"/>
    <path d="M1.6 -9.95 L1.3 -8.5 0.2 -9.5 1.6 -9.95" fill="#2a2928" fill-rule="evenodd" stroke="none"/>
    <path d="M1.6 -9.95 L1.3 -8.5 0.2 -9.5 1.6 -9.95 Z" fill="none" stroke="#2a2928" stroke-linecap="round" stroke-linejoin="round" stroke-width="0.7000000000000001"/>
    <path d="M2.8 -9.65 L2.5 -8.2" fill="none" stroke="#2a2928" stroke-linecap="round" stroke-linejoin="miter-clip" stroke-miterlimit="3.78125" stroke-width="0.7000000000000001"/>
  </g>
  <defs>
    <radialGradient cx="0" cy="0" gradientTransform="matrix(0.0189, 0.0203, -0.0098, 0.0091, -8.25, -8.6)" gradientUnits="userSpaceOnUse" id="gradient0" r="819.2" spreadMethod="pad">
      <stop offset="0.0" stop-color="#95856c"/>
      <stop offset="1.0" stop-color="#ada08e"/>
    </radialGradient>
    <radialGradient cx="0" cy="0" gradientTransform="matrix(0.0144, 0.0107, -0.0044, 0.0059, 3.55, -7.75)" gradientUnits="userSpaceOnUse" id="gradient1" r="819.2" spreadMethod="pad">
      <stop offset="0.0" stop-color="#464442"/>
      <stop offset="0.5058823529411764" stop-color="#464442"/>
      <stop offset="1.0" stop-color="#545352"/>
    </radialGradient>
  </defs>
</svg>
