<?xml version="1.0" encoding="UTF-8" standalone="no"?>
<svg xmlns:ffdec="https://www.free-decompiler.com/flash" xmlns:xlink="http://www.w3.org/1999/xlink" ffdec:objectType="shape" height="22.1px" width="31.45px" xmlns="http://www.w3.org/2000/svg">
  <g transform="matrix(1.0, 0.0, 0.0, 1.0, 14.05, 18.4)">
    <path d="M11.8 -4.35 Q8.0 -3.95 3.0 -6.05 -2.35 -9.45 -0.25 -14.2 L0.1 -14.85 Q4.4 -14.0 7.6 -11.3 11.2 -8.3 11.8 -4.35" fill="#202c5f" fill-rule="evenodd" stroke="none"/>
    <path d="M11.8 -4.7 L9.8 -4.6 Q9.9 -5.75 9.3 -7.3 8.1 -10.35 4.7 -12.3 2.6 -13.5 1.0 -13.15 L-0.2 -12.5 0.55 -14.8 3.05 -14.15 Q5.8 -13.25 7.05 -12.15 10.05 -9.35 11.25 -6.8 11.9 -5.5 11.8 -4.7" fill="#2eb3ef" fill-opacity="0.99215686" fill-rule="evenodd" stroke="none"/>
    <path d="M-0.05 -12.2 L0.15 -12.15 -0.1 -12.55 -0.2 -12.95 0.75 -13.15 1.85 -13.25 2.85 -13.15 3.8 -12.95 5.0 -12.25 6.6 -11.2 8.55 -9.0 9.9 -7.1 Q10.55 -6.0 10.8 -4.6 L7.35 -5.1 Q7.1 -5.5 7.2 -5.9 7.35 -6.45 6.05 -8.4 4.75 -10.35 2.1 -10.55 0.8 -10.65 0.55 -9.85 L0.55 -9.05 -0.1 -10.65 -0.05 -12.2" fill="#1a67aa" fill-rule="evenodd" stroke="none"/>
    <path d="M8.85 -4.6 L5.8 -5.4 5.9 -6.05 5.65 -7.1 5.2 -8.05 4.2 -8.8 2.7 -9.4 Q2.15 -9.5 1.7 -8.8 L1.35 -8.1 0.5 -9.15 0.2 -9.45 -0.1 -9.95 0.25 -10.9 0.85 -11.65 3.0 -11.75 Q3.75 -11.55 4.95 -10.8 L7.2 -8.85 Q8.45 -7.3 8.85 -4.6" fill="#1d4883" fill-opacity="0.61960787" fill-rule="evenodd" stroke="none"/>
    <path d="M10.8 -4.65 L9.9 -4.5 8.9 -7.1 Q7.65 -9.95 6.1 -11.05 4.55 -12.15 3.4 -12.45 L1.6 -12.65 0.25 -12.3 -0.15 -11.85 0.15 -13.65 2.1 -13.6 Q4.35 -13.3 5.95 -12.1 7.65 -10.85 9.0 -8.7 L10.4 -6.1 10.8 -4.65" fill="#3fa2e6" fill-opacity="0.5764706" fill-rule="evenodd" stroke="none"/>
    <path d="M3.05 -10.8 L4.35 -10.25 6.4 -8.8 Q7.4 -7.6 7.95 -4.75 4.3 -5.8 3.65 -6.2 L2.2 -7.1 Q1.25 -7.7 1.2 -8.0 L0.5 -8.5 Q0.0 -8.75 0.1 -9.0 L0.15 -9.8 Q0.1 -10.35 0.4 -10.45 L1.95 -11.05 3.05 -10.8" fill="#202c5f" fill-opacity="0.49411765" fill-rule="evenodd" stroke="none"/>
    <path d="M-4.05 -4.55 L-0.1 -3.75 Q3.7 -2.55 3.1 -0.85 2.55 0.6 0.5 0.3 -1.3 0.05 -3.15 -1.1 L-4.05 -4.55" fill="#000000" fill-rule="evenodd" stroke="none"/>
    <path d="M-4.05 -4.55 L-3.15 -1.1 Q-1.3 0.05 0.5 0.3 2.55 0.6 3.1 -0.85 3.7 -2.55 -0.1 -3.75 L-4.05 -4.55 Z" fill="none" stroke="#000000" stroke-linecap="round" stroke-linejoin="round" stroke-width="1.0"/>
    <path d="M11.95 -4.5 L12.9 -4.5 Q15.2 -2.95 16.1 -0.95 L16.45 0.05 16.55 2.0 9.85 3.1 8.95 2.7 6.1 3.2 4.65 2.95 Q2.15 -1.15 -3.65 -3.3 L-4.65 -2.95 -5.2 -2.25 -7.3 -2.85 -11.2 -4.8 -13.25 -6.55 -13.2 -9.85 -11.95 -12.05 -10.85 -11.6 -9.8 -10.05 -6.85 -9.9 -3.9 -8.5 -7.55 -13.2 -9.7 -13.55 -10.45 -14.15 -11.25 -14.6 -10.1 -16.65 -7.6 -17.7 Q-4.65 -18.1 -2.55 -17.6 -0.35 -17.1 0.65 -15.7 L-0.1 -14.35 Q-2.2 -9.6 3.15 -6.2 8.3 -4.05 11.95 -4.5" fill="url(#gradient0)" fill-rule="evenodd" stroke="none"/>
    <path d="M-10.85 -11.6 L-10.45 -14.15 -9.7 -13.55 -7.55 -13.2 -3.9 -8.5 -6.85 -9.9 -9.8 -10.05 -10.85 -11.6" fill="#1b1b1b" fill-rule="evenodd" stroke="none"/>
    <path d="M11.95 -4.5 Q11.35 -8.45 7.75 -11.45 4.55 -14.15 0.25 -15.0" fill="none" stroke="#255674" stroke-linecap="round" stroke-linejoin="round" stroke-width="1.0"/>
    <path d="M11.55 2.9 L16.9 2.3 16.8 1.0 16.45 0.05 11.55 0.7 11.55 2.9 Z" fill="none" stroke="#0d1215" stroke-linecap="round" stroke-linejoin="round" stroke-width="1.0"/>
    <path d="M16.45 0.05 L16.1 -0.95 Q15.2 -2.95 12.9 -4.5 L11.95 -4.5 Q8.3 -4.05 3.15 -6.2 -2.2 -9.6 -0.1 -14.35 L0.65 -15.7 Q-0.35 -17.1 -2.55 -17.6 -4.65 -18.1 -7.6 -17.7 L-10.1 -16.65 -11.25 -14.6 -10.45 -14.15 M11.55 2.9 L9.85 3.1 8.95 2.7 6.1 3.2 4.65 2.95 Q2.15 -1.15 -3.65 -3.3 L-4.65 -2.95 -5.2 -2.25 -8.25 -3.15 -12.9 -5.65 -13.55 -6.7 -13.25 -9.85 -12.25 -9.75 -11.95 -12.05 -10.85 -11.6 M4.45 -1.65 L5.15 -1.35 5.45 -0.65 5.15 0.05 4.45 0.35 3.75 0.05 Q3.45 -0.25 3.45 -0.65 3.45 -1.05 3.75 -1.35 L4.45 -1.65 M7.65 -3.1 L8.2 -3.1 M7.75 2.4 Q7.15 2.4 6.7 1.95 6.3 1.6 6.3 0.95 6.3 0.3 6.7 -0.1 7.2 -0.5 7.75 -0.5 8.25 -0.5 8.75 -0.1 9.2 0.35 9.2 0.95 9.2 1.6 8.75 1.95 L7.75 2.4 Z" fill="none" stroke="#0d1215" stroke-linecap="round" stroke-linejoin="round" stroke-width="1.0"/>
    <path d="M-10.45 -14.15 L-9.7 -13.55 -7.55 -13.2 -3.9 -8.5 -6.85 -9.9 -9.8 -10.05 -10.85 -11.6 M-12.25 -9.75 L-11.15 -7.85 -7.95 -6.65 -7.35 -5.0 -7.3 -2.85 M-8.25 -17.4 Q-8.85 -16.35 -6.45 -15.65 M-10.1 -16.65 Q-10.35 -15.35 -7.6 -14.6" fill="none" stroke="#0d1215" stroke-linecap="round" stroke-linejoin="round" stroke-width="1.0"/>
    <path d="M-2.2 -14.6 L-4.15 -15.35 -4.65 -14.2 -3.65 -13.6 M-4.65 -14.2 L-5.2 -13.1 M-4.95 -15.65 L-4.15 -15.35" fill="none" stroke="#44b7ff" stroke-linecap="round" stroke-linejoin="round" stroke-width="1.0"/>
    <path d="M-1.95 -4.7 L0.5 -3.45" fill="none" stroke="#0d1215" stroke-linecap="round" stroke-linejoin="round" stroke-width="1.0"/>
  </g>
  <defs>
    <linearGradient gradientTransform="matrix(0.0119, -5.0E-4, 5.0E-4, 0.0119, 6.6, -7.1)" gradientUnits="userSpaceOnUse" id="gradient0" spreadMethod="pad" x1="-819.2" x2="819.2">
      <stop offset="0.0" stop-color="#1d2b38"/>
      <stop offset="1.0" stop-color="#495d71"/>
    </linearGradient>
  </defs>
</svg>
