<?xml version="1.0" encoding="UTF-8" standalone="no"?>
<svg xmlns:ffdec="https://www.free-decompiler.com/flash" xmlns:xlink="http://www.w3.org/1999/xlink" ffdec:objectType="shape" height="8.75px" width="30.55px" xmlns="http://www.w3.org/2000/svg">
  <g transform="matrix(1.0, 0.0, 0.0, 1.0, 15.4, 4.75)">
    <path d="M-13.05 -3.7 Q-10.7 -4.75 -7.4 -4.75 -4.1 -4.75 -1.75 -3.7 0.6 -2.6 0.6 -1.05 0.6 0.5 -1.75 1.55 -4.1 2.65 -7.4 2.65 -10.7 2.65 -13.05 1.55 -15.4 0.5 -15.4 -1.05 -15.4 -2.6 -13.05 -3.7" fill="url(#gradient0)" fill-rule="evenodd" stroke="none"/>
    <path d="M9.1 -3.4 Q11.6 -3.4 13.35 -2.35 15.15 -1.25 15.15 0.3 15.15 1.85 13.35 2.9 11.6 4.0 9.1 4.0 6.6 4.0 4.8 2.9 3.05 1.85 3.05 0.3 3.05 -1.25 4.8 -2.35 6.6 -3.4 9.1 -3.4" fill="url(#gradient1)" fill-rule="evenodd" stroke="none"/>
    <path d="M6.9 -0.55 L7.9 1.05 M8.4 -0.55 L9.4 1.05 M10.05 -0.25 L10.65 0.7" fill="none" stroke="#8ccbcb" stroke-linecap="round" stroke-linejoin="round" stroke-width="1.0"/>
    <path d="M-5.35 -1.05 L-4.3 -1.05 M-7.95 -1.05 L-6.9 -1.05 M-10.65 -1.05 L-9.6 -1.05" fill="none" stroke="#8ccbcb" stroke-linecap="round" stroke-linejoin="round" stroke-width="1.0"/>
  </g>
  <defs>
    <radialGradient cx="0" cy="0" gradientTransform="matrix(0.0, 0.0041, -0.0093, 0.0, -7.4, -1.05)" gradientUnits="userSpaceOnUse" id="gradient0" r="819.2" spreadMethod="pad">
      <stop offset="0.0" stop-color="#8ccbcb" stop-opacity="0.4"/>
      <stop offset="1.0" stop-color="#8ccbcb" stop-opacity="0.0"/>
    </radialGradient>
    <radialGradient cx="0" cy="0" gradientTransform="matrix(0.0, 0.0041, -0.007, 0.0, 9.1, 0.3)" gradientUnits="userSpaceOnUse" id="gradient1" r="819.2" spreadMethod="pad">
      <stop offset="0.0" stop-color="#8ccbcb" stop-opacity="0.4"/>
      <stop offset="1.0" stop-color="#8ccbcb" stop-opacity="0.0"/>
    </radialGradient>
  </defs>
</svg>
