<?xml version="1.0" encoding="UTF-8" standalone="no"?>
<svg xmlns:ffdec="https://www.free-decompiler.com/flash" xmlns:xlink="http://www.w3.org/1999/xlink" ffdec:objectType="shape" height="20.95px" width="17.25px" xmlns="http://www.w3.org/2000/svg">
  <g transform="matrix(1.0, 0.0, 0.0, 1.0, 7.45, 6.1)">
    <path d="M-5.5 0.05 L-2.25 0.05 -0.85 5.25 -1.95 12.7 -4.15 12.7 -5.5 9.1 -6.9 5.4 -6.95 5.35 -6.95 0.05 -5.5 0.05 M2.1 -1.15 L5.55 -3.4 6.95 -4.4 7.75 -2.0 5.6 0.0 6.5 3.75 9.3 4.7 9.3 11.45 4.6 11.45 3.15 10.25 3.15 5.15 2.1 -1.15 M-3.45 8.55 L-5.5 9.1 -3.45 8.55 -4.25 6.25 -6.9 5.4 -4.25 6.25 -3.45 8.55 -3.05 10.45 -4.15 12.7 -3.05 10.45 -3.45 8.55" fill="#615a47" fill-rule="evenodd" stroke="none"/>
    <path d="M-5.5 0.05 L-4.75 -1.75 -3.75 -3.7 Q-2.85 -5.15 0.4 -5.55 3.65 -5.95 5.55 -3.4 L2.1 -1.15 0.3 0.05 -2.25 0.05 -5.5 0.05 M4.6 11.45 Q3.5 14.65 1.25 14.3 -0.85 14.0 -1.95 12.7 L3.15 10.25 4.6 11.45" fill="#453f2f" fill-rule="evenodd" stroke="none"/>
    <path d="M-2.25 0.05 L0.3 0.05 2.1 -1.15 3.15 5.15 3.15 10.25 -1.95 12.7 -0.85 5.25 -2.25 0.05 M7.75 -2.0 Q8.8 1.4 9.3 4.65 L9.3 4.7 6.5 3.75 5.6 0.0 7.75 -2.0" fill="#7c705a" fill-rule="evenodd" stroke="none"/>
    <path d="M5.55 -3.4 Q3.65 -5.95 0.4 -5.55 -2.85 -5.15 -3.75 -3.7 L-4.75 -1.75 -5.5 0.05 -2.25 0.05 0.3 0.05 2.1 -1.15 5.55 -3.4 6.95 -4.4 7.75 -2.0 Q8.8 1.4 9.3 4.65 L9.3 4.7 9.3 11.45 4.6 11.45 Q3.5 14.65 1.25 14.3 -0.85 14.0 -1.95 12.7 L-4.15 12.7 -5.5 9.1 -6.9 5.4 -6.95 5.35 -6.95 0.05 -5.5 0.05 M9.3 4.7 L6.5 3.75 5.6 0.0 7.75 -2.0 M3.15 10.25 L4.6 11.45 M2.1 -1.15 L3.15 5.15 3.15 10.25 -1.95 12.7 -0.85 5.25 -2.25 0.05 M-6.9 5.4 L-4.25 6.25 -3.45 8.55 -3.05 10.45 -4.15 12.7 M-5.5 9.1 L-3.45 8.55" fill="none" stroke="#232018" stroke-linecap="round" stroke-linejoin="round" stroke-width="1.0"/>
  </g>
</svg>
