<?xml version="1.0" encoding="UTF-8" standalone="no"?>
<svg xmlns:ffdec="https://www.free-decompiler.com/flash" xmlns:xlink="http://www.w3.org/1999/xlink" ffdec:objectType="shape" height="18.9px" width="21.3px" xmlns="http://www.w3.org/2000/svg">
  <g transform="matrix(1.0, 0.0, 0.0, 1.0, 11.1, 16.0)">
    <path d="M-5.5 -3.65 Q-6.15 -4.45 -6.35 -6.2 -6.65 -8.7 -5.25 -10.45 -3.75 -12.35 -0.45 -12.45 2.8 -12.6 4.35 -11.0 6.55 -8.7 6.9 -7.35 6.6 -6.5 6.9 -5.45 L7.55 -3.7 Q7.5 -3.3 6.6 -3.05 6.6 -2.6 7.05 -1.45 L6.85 -0.8 6.5 0.15 Q6.25 0.95 5.2 1.0 L1.4 0.7 Q-0.3 2.4 -1.85 1.85 -3.2 1.4 -3.9 -0.5 -4.55 -2.5 -5.5 -3.65" fill="#a7825e" fill-rule="evenodd" stroke="none"/>
    <path d="M-5.5 -3.65 Q-6.15 -4.45 -6.35 -6.2 -6.65 -8.7 -5.25 -10.45 -3.75 -12.35 -0.45 -12.45 2.8 -12.6 4.35 -11.0 6.55 -8.7 6.9 -7.35 6.6 -6.5 6.9 -5.45 L7.55 -3.7 Q7.5 -3.3 6.6 -3.05 6.6 -2.6 7.05 -1.45 L6.85 -0.8 6.5 0.15 Q6.25 0.95 5.2 1.0 L1.4 0.7 Q-0.3 2.4 -1.85 1.85 -3.2 1.4 -3.9 -0.5 -4.55 -2.5 -5.5 -3.65 Z" fill="none" stroke="#43372c" stroke-linecap="round" stroke-linejoin="round" stroke-width="1.0"/>
    <path d="M6.9 -1.7 L6.05 -1.7" fill="none" stroke="#2f221b" stroke-linecap="round" stroke-linejoin="round" stroke-opacity="0.65882355" stroke-width="1.0"/>
    <path d="M3.3 -5.95 L3.4 -6.25 Q3.65 -6.55 4.25 -6.5 L5.4 -6.25 Q5.6 -6.25 5.25 -5.95 L4.5 -5.75 3.9 -5.7 3.3 -5.9 3.3 -5.95" fill="#dab29c" fill-rule="evenodd" stroke="none"/>
    <path d="M4.2 -5.75 L4.3 -6.55 5.25 -6.3 5.45 -6.3 5.4 -6.05 5.05 -5.9 4.2 -5.75" fill="#1c110b" fill-rule="evenodd" stroke="none"/>
    <path d="M3.35 -5.75 L4.65 -5.6 Q5.2 -5.65 5.3 -5.9" fill="none" stroke="#3b2b22" stroke-linecap="round" stroke-linejoin="round" stroke-width="0.45"/>
    <path d="M3.1 -6.4 L3.85 -6.65 4.55 -6.65 5.15 -6.35 Q5.4 -6.15 5.45 -6.2" fill="none" stroke="#3b2b22" stroke-linecap="round" stroke-linejoin="round" stroke-width="0.45"/>
    <path d="M5.35 -7.0 L4.25 -7.15 2.95 -7.35 2.3 -7.1" fill="none" stroke="#1d1511" stroke-linecap="round" stroke-linejoin="round" stroke-opacity="0.39215687" stroke-width="0.45"/>
    <path d="M-2.45 -0.05 L-6.35 -0.75 Q-8.25 -1.45 -8.0 -3.45 L-7.95 -4.3 Q-7.7 -4.95 -7.8 -5.4 -8.0 -6.85 -6.15 -7.15 L-4.25 -7.1 Q-2.3 -6.3 -1.65 -4.75 -2.9 -3.9 -3.3 -2.85 -3.8 -1.45 -2.45 -0.05" fill="url(#gradient0)" fill-rule="evenodd" stroke="none"/>
    <path d="M-2.45 -0.05 Q-3.8 -1.45 -3.3 -2.85 -2.9 -3.9 -1.65 -4.75 -2.3 -6.3 -4.25 -7.1 L-6.15 -7.15 Q-8.0 -6.85 -7.8 -5.4 -7.7 -4.95 -7.95 -4.3 L-8.0 -3.45 Q-8.25 -1.45 -6.35 -0.75 L-2.45 -0.05 Z" fill="none" stroke="#1a1717" stroke-linecap="butt" stroke-linejoin="miter-clip" stroke-miterlimit="15.12109375" stroke-width="1.0"/>
    <path d="M0.95 -10.05 L1.75 -8.8 1.8 -8.2 -0.35 -7.9 Q-2.35 -7.7 -3.55 -6.75 L-3.55 -6.0 -3.65 -5.3 Q-4.85 -3.7 -8.65 -2.85 -9.6 -3.65 -9.65 -6.65 L-9.95 -6.95 -10.3 -7.4 -10.2 -8.45 -9.95 -9.25 Q-9.75 -11.9 -4.6 -15.05 L-4.4 -14.9 Q-4.3 -14.7 -4.2 -14.75 -2.8 -15.55 -2.55 -14.6 L-1.5 -12.05 0.05 -10.85 0.95 -10.05" fill="url(#gradient1)" fill-rule="evenodd" stroke="none"/>
    <path d="M0.95 -10.05 L0.05 -10.85 -1.5 -12.05 -2.55 -14.6 Q-2.8 -15.55 -4.2 -14.75 -4.3 -14.7 -4.4 -14.9 L-4.6 -15.05 Q-9.75 -11.9 -9.95 -9.25 L-10.2 -8.45 -10.3 -7.4 -9.95 -6.95 -9.65 -6.65 Q-9.6 -3.65 -8.65 -2.85 -4.85 -3.7 -3.65 -5.3 L-3.55 -6.0 -3.55 -6.75 Q-2.35 -7.7 -0.35 -7.9 L1.8 -8.2 1.75 -8.8 0.95 -10.05 Z" fill="none" stroke="#1c1515" stroke-linecap="butt" stroke-linejoin="miter-clip" stroke-miterlimit="15.12109375" stroke-width="1.0"/>
    <path d="M-9.8 -7.0 L-9.45 -6.9 -8.95 -7.6 Q-8.3 -8.3 -7.7 -8.35 L-6.25 -8.1 -4.4 -9.1 -4.4 -9.75 -4.15 -10.75 -3.5 -11.85 -4.2 -14.85" fill="none" stroke="#1e1616" stroke-linecap="round" stroke-linejoin="round" stroke-width="1.0"/>
    <path d="M-2.2 -9.65 L-3.85 -9.75 -4.6 -10.45 -3.2 -11.55 -2.05 -12.25 Q-1.6 -12.35 -0.3 -12.95 L0.7 -12.95 1.7 -12.8 3.15 -12.9 4.85 -12.7 5.35 -12.8 5.6 -13.3 Q7.35 -12.75 8.95 -9.9 L6.2 -9.85 5.3 -9.55 Q4.7 -9.15 3.95 -7.95 L2.0 -8.2 0.35 -9.15 Q-0.95 -9.9 -2.2 -9.65" fill="url(#gradient2)" fill-rule="evenodd" stroke="none"/>
    <path d="M-2.2 -9.65 Q-0.95 -9.9 0.35 -9.15 L2.0 -8.2 3.95 -7.95 Q4.7 -9.15 5.3 -9.55 L6.2 -9.85 8.95 -9.9 Q7.35 -12.75 5.6 -13.3 L5.35 -12.8 4.85 -12.7 3.15 -12.9 1.7 -12.8 0.7 -12.95 -0.3 -12.95 Q-1.6 -12.35 -2.05 -12.25 L-3.2 -11.55 -4.6 -10.45 -3.85 -9.75 -2.2 -9.65 Z" fill="none" stroke="#1c1515" stroke-linecap="round" stroke-linejoin="round" stroke-width="0.25"/>
    <path d="M-4.35 -13.35 L-4.45 -15.1 Q3.65 -16.65 5.3 -13.1 4.95 -12.65 3.4 -12.75 L-2.1 -12.4 Q-4.65 -11.85 -4.35 -13.35" fill="url(#gradient3)" fill-rule="evenodd" stroke="none"/>
    <path d="M-4.35 -13.35 L-4.45 -15.1 Q3.65 -16.65 5.3 -13.1 4.95 -12.65 3.4 -12.75 L-2.1 -12.4 Q-4.65 -11.85 -4.35 -13.35 Z" fill="none" stroke="#1c1515" stroke-linecap="butt" stroke-linejoin="miter-clip" stroke-miterlimit="4.0" stroke-width="0.25"/>
    <path d="M-0.3 -4.15 L1.45 -3.85 Q3.85 -2.05 5.55 -2.65 L8.75 -3.8 Q10.1 -2.5 9.5 -0.15 8.9 2.2 7.35 2.25 6.5 2.5 2.95 1.25 1.4 1.1 -0.25 0.3 -1.65 -0.35 -2.55 -0.25 -4.55 -2.65 -1.55 -4.95 L-0.75 -4.4 -0.3 -4.15" fill="url(#gradient4)" fill-rule="evenodd" stroke="none"/>
    <path d="M-0.3 -4.15 L1.45 -3.85 Q3.85 -2.05 5.55 -2.65 L8.75 -3.8 Q10.1 -2.5 9.5 -0.15 8.9 2.2 7.35 2.25 6.5 2.5 2.95 1.25 1.4 1.1 -0.25 0.3 -1.65 -0.35 -2.55 -0.25 -4.55 -2.65 -1.55 -4.95 L-0.75 -4.4 -0.3 -4.15 Z" fill="none" stroke="#1a1717" stroke-linecap="butt" stroke-linejoin="miter-clip" stroke-miterlimit="15.12109375" stroke-width="1.0"/>
    <path d="M-3.4 -11.65 L-2.45 -10.05 Q-1.85 -8.95 -2.0 -8.3 -1.85 -6.9 -2.6 -5.6 -4.15 -5.1 -5.25 -3.9 -6.35 -2.7 -6.45 -1.25 -8.5 -1.45 -8.95 -1.8 -10.25 -2.75 -10.35 -3.5 L-10.2 -4.45 -10.05 -5.25 -9.8 -5.55 -8.4 -5.85 Q-7.2 -6.15 -7.15 -6.65 L-7.25 -7.35 -6.95 -8.8 -6.5 -9.95 -4.45 -13.15 Q-3.95 -13.95 -2.05 -15.2 -2.15 -13.4 -2.8 -12.65 L-3.4 -11.65" fill="url(#gradient5)" fill-rule="evenodd" stroke="none"/>
    <path d="M-3.4 -11.65 L-2.45 -10.05 Q-1.85 -8.95 -2.0 -8.3 -1.85 -6.9 -2.6 -5.6 -4.15 -5.1 -5.25 -3.9 -6.35 -2.7 -6.45 -1.25 -8.5 -1.45 -8.95 -1.8 -10.25 -2.75 -10.35 -3.5 L-10.2 -4.45 -10.05 -5.25 -9.8 -5.55 -8.4 -5.85 Q-7.2 -6.15 -7.15 -6.65 L-7.25 -7.35 -6.95 -8.8 -6.5 -9.95 -4.45 -13.15 Q-3.95 -13.95 -2.05 -15.2 -2.15 -13.4 -2.8 -12.65 L-3.4 -11.65 Z" fill="none" stroke="#1c1515" stroke-linecap="butt" stroke-linejoin="miter-clip" stroke-miterlimit="4.0" stroke-width="0.25"/>
    <path d="M-7.65 -7.4 Q-7.75 -7.85 -8.2 -7.75 L-9.1 -7.35 Q-9.45 -7.15 -10.0 -7.1 L-10.75 -7.2 -10.85 -8.2 -10.75 -9.55 Q-10.25 -10.3 -9.65 -12.1 -9.15 -13.6 -8.4 -14.15 L-6.9 -14.75 -5.25 -15.3 -4.1 -15.65 -4.55 -15.15 -5.45 -14.05 Q-6.4 -12.85 -7.1 -10.0 L-7.65 -7.4" fill="url(#gradient6)" fill-rule="evenodd" stroke="none"/>
    <path d="M-7.65 -7.4 L-7.1 -10.0 Q-6.4 -12.85 -5.45 -14.05 L-4.55 -15.15 -4.1 -15.65 -5.25 -15.3 -6.9 -14.75 -8.4 -14.15 Q-9.15 -13.6 -9.65 -12.1 -10.25 -10.3 -10.75 -9.55 L-10.85 -8.2 -10.75 -7.2 -10.0 -7.1 Q-9.45 -7.15 -9.1 -7.35 L-8.2 -7.75 Q-7.75 -7.85 -7.65 -7.4 Z" fill="none" stroke="#1c1515" stroke-linecap="butt" stroke-linejoin="miter-clip" stroke-miterlimit="4.0" stroke-width="0.25"/>
    <path d="M-9.95 -6.2 L-8.1 -6.95" fill="none" stroke="#dcc64f" stroke-linecap="round" stroke-linejoin="round" stroke-width="0.25"/>
    <path d="M-7.05 -10.45 Q-6.4 -14.4 -4.15 -15.65 -3.2 -16.2 -0.05 -15.6 L-0.7 -13.2 -2.45 -12.2 Q-3.3 -11.65 -3.95 -10.75 -4.3 -10.35 -4.6 -10.25 L-5.65 -10.3 -7.05 -10.45" fill="#402b2b" fill-rule="evenodd" stroke="none"/>
    <path d="M-7.05 -10.45 L-5.65 -10.3 -4.6 -10.25 Q-4.3 -10.35 -3.95 -10.75 -3.3 -11.65 -2.45 -12.2 L-0.7 -13.2 -0.05 -15.6 Q-3.2 -16.2 -4.15 -15.65 -6.4 -14.4 -7.05 -10.45 Z" fill="none" stroke="#1c1515" stroke-linecap="butt" stroke-linejoin="miter-clip" stroke-miterlimit="4.0" stroke-width="0.25"/>
  </g>
  <defs>
    <radialGradient cx="0" cy="0" gradientTransform="matrix(0.0017, 1.0E-4, 3.0E-4, -0.0187, -6.0, -2.2)" gradientUnits="userSpaceOnUse" id="gradient0" r="819.2" spreadMethod="pad">
      <stop offset="0.0" stop-color="#251d1d"/>
      <stop offset="1.0" stop-color="#493f3f"/>
    </radialGradient>
    <radialGradient cx="0" cy="0" gradientTransform="matrix(0.0043, 4.0E-4, 0.0021, -0.0268, -5.6, -9.4)" gradientUnits="userSpaceOnUse" id="gradient1" r="819.2" spreadMethod="pad">
      <stop offset="0.0" stop-color="#241818"/>
      <stop offset="1.0" stop-color="#4d3434"/>
    </radialGradient>
    <radialGradient cx="0" cy="0" gradientTransform="matrix(0.002, -0.0108, 0.0108, 0.0022, 1.95, -7.7)" gradientUnits="userSpaceOnUse" id="gradient2" r="819.2" spreadMethod="pad">
      <stop offset="0.0" stop-color="#241818"/>
      <stop offset="1.0" stop-color="#4d3434"/>
    </radialGradient>
    <radialGradient cx="0" cy="0" gradientTransform="matrix(0.0, -0.0023, 0.0229, 8.0E-4, 0.6, -13.35)" gradientUnits="userSpaceOnUse" id="gradient3" r="819.2" spreadMethod="pad">
      <stop offset="0.0" stop-color="#241818"/>
      <stop offset="1.0" stop-color="#4d3434"/>
    </radialGradient>
    <radialGradient cx="0" cy="0" gradientTransform="matrix(0.0086, 1.0E-4, -4.0E-4, 0.0107, 2.15, -1.3)" gradientUnits="userSpaceOnUse" id="gradient4" r="819.2" spreadMethod="pad">
      <stop offset="0.0" stop-color="#252527"/>
      <stop offset="1.0" stop-color="#5b5b60"/>
    </radialGradient>
    <radialGradient cx="0" cy="0" gradientTransform="matrix(-0.0113, -0.0013, -0.001, 0.0107, -1.5, -8.25)" gradientUnits="userSpaceOnUse" id="gradient5" r="819.2" spreadMethod="pad">
      <stop offset="0.0" stop-color="#241818"/>
      <stop offset="1.0" stop-color="#4d3434"/>
    </radialGradient>
    <radialGradient cx="0" cy="0" gradientTransform="matrix(-0.0023, -7.0E-4, -0.0059, 0.0214, -6.75, -11.15)" gradientUnits="userSpaceOnUse" id="gradient6" r="819.2" spreadMethod="pad">
      <stop offset="0.0" stop-color="#241818"/>
      <stop offset="1.0" stop-color="#4d3434"/>
    </radialGradient>
  </defs>
</svg>
