<?xml version="1.0" encoding="UTF-8" standalone="no"?>
<svg xmlns:ffdec="https://www.free-decompiler.com/flash" xmlns:xlink="http://www.w3.org/1999/xlink" ffdec:objectType="shape" height="19.1px" width="8.6px" xmlns="http://www.w3.org/2000/svg">
  <g transform="matrix(1.0, 0.0, 0.0, 1.0, 5.05, 5.55)">
    <path d="M0.2 -4.9 Q1.9 -4.5 2.45 -3.8 L3.05 -2.6 2.95 0.1 2.6 5.5 Q2.35 8.65 2.8 10.3 3.2 11.95 2.4 12.5 -0.95 14.05 -0.55 11.15 L-1.3 9.0 Q-1.55 8.25 -2.9 6.1 L-3.65 4.05 -4.05 2.55 Q-5.3 -4.05 -3.4 -4.65 L0.2 -4.9" fill="#161b1d" fill-rule="evenodd" stroke="none"/>
    <path d="M0.2 -4.9 L-3.4 -4.65 Q-5.3 -4.05 -4.05 2.55 L-3.65 4.05 -2.9 6.1 Q-1.55 8.25 -1.3 9.0 L-0.55 11.15 Q-0.95 14.05 2.4 12.5 3.2 11.95 2.8 10.3 2.35 8.65 2.6 5.5 L2.95 0.1 3.05 -2.6 2.45 -3.8 Q1.9 -4.5 0.2 -4.9 Z" fill="none" stroke="#070a0a" stroke-linecap="round" stroke-linejoin="round" stroke-width="1.0"/>
  </g>
</svg>
