<?xml version="1.0" encoding="UTF-8" standalone="no"?>
<svg xmlns:ffdec="https://www.free-decompiler.com/flash" xmlns:xlink="http://www.w3.org/1999/xlink" ffdec:objectType="shape" height="18.75px" width="15.3px" xmlns="http://www.w3.org/2000/svg">
  <g transform="matrix(1.0, 0.0, 0.0, 1.0, 7.45, 5.65)">
    <path d="M1.55 -5.1 Q3.25 -4.95 4.1 -3.35 L2.45 -3.05 0.9 0.35 -6.2 0.35 Q-6.1 -2.6 -4.55 -3.9 -3.0 -5.3 0.6 -5.15 L1.55 -5.1" fill="#333333" fill-rule="evenodd" stroke="none"/>
    <path d="M1.55 -5.1 L0.6 -5.15 Q-3.0 -5.3 -4.55 -3.9 -6.1 -2.6 -6.2 0.35 L0.9 0.35 2.45 -3.05 4.1 -3.35 Q3.25 -4.95 1.55 -5.1 Z" fill="none" stroke="#2b2927" stroke-linecap="round" stroke-linejoin="round" stroke-width="1.0"/>
    <path d="M5.75 -2.05 Q6.85 -0.35 7.1 1.4 7.5 4.1 7.2 7.9 L4.4 12.75 0.75 12.3 1.0 7.75 -1.55 4.55 2.45 -3.05 4.7 -3.4 5.75 -2.05" fill="#4d4946" fill-rule="evenodd" stroke="none"/>
    <path d="M0.75 12.15 L4.4 12.6 7.2 7.75 3.35 4.45 4.75 -3.5 5.75 -2.2 Q6.85 -0.5 7.15 1.25 7.5 3.95 7.2 7.75" fill="none" stroke="#2b2927" stroke-linecap="round" stroke-linejoin="round" stroke-width="1.0"/>
    <path d="M-5.35 5.2 L-1.55 4.65 0.9 7.85 0.7 12.4 -3.95 11.95 -5.35 5.2" fill="#333333" fill-rule="evenodd" stroke="none"/>
    <path d="M-1.6 5.1 L-5.35 5.65 -6.95 4.45 -6.6 1.1 -5.25 -0.05 0.6 0.9 -1.6 5.1" fill="url(#gradient0)" fill-rule="evenodd" stroke="none"/>
    <path d="M-1.6 4.4 L-5.3 4.95 -3.95 11.7 0.9 12.15" fill="none" stroke="#2b2927" stroke-linecap="round" stroke-linejoin="round" stroke-width="1.0"/>
    <path d="M-5.35 4.95 L-6.95 3.8 -6.6 0.4 -5.2 -0.7 0.55 0.25" fill="none" stroke="#2b2927" stroke-linecap="round" stroke-linejoin="round" stroke-width="1.0"/>
    <path d="M4.7 -3.3 L2.45 -2.95 -1.55 4.6 1.0 7.85 3.3 4.7 M1.0 7.85 L0.75 12.4" fill="none" stroke="#2b2927" stroke-linecap="round" stroke-linejoin="round" stroke-width="1.0"/>
  </g>
  <defs>
    <radialGradient cx="0" cy="0" gradientTransform="matrix(0.2995, 0.0, 0.0, 0.2806, 237.4, 25.2)" gradientUnits="userSpaceOnUse" id="gradient0" r="819.2" spreadMethod="pad">
      <stop offset="0.0" stop-color="#523b40"/>
      <stop offset="1.0" stop-color="#452d33"/>
      <stop offset="1.0" stop-color="#333333"/>
      <stop offset="1.0" stop-color="#523b40"/>
      <stop offset="1.0" stop-color="#523b40"/>
      <stop offset="1.0" stop-color="#523b40"/>
    </radialGradient>
  </defs>
</svg>
