<?xml version="1.0" encoding="UTF-8" standalone="no"?>
<svg xmlns:ffdec="https://www.free-decompiler.com/flash" xmlns:xlink="http://www.w3.org/1999/xlink" ffdec:objectType="shape" height="21.85px" width="18.25px" xmlns="http://www.w3.org/2000/svg">
  <g transform="matrix(1.0, 0.0, 0.0, 1.0, 8.2, 7.85)">
    <path d="M-5.55 -2.0 Q-5.2 -4.8 -3.45 -6.1 -2.0 -7.15 1.35 -7.35 L2.5 -7.3 Q4.6 -7.15 5.65 -5.25 L3.9 -4.95 3.55 -4.9 2.55 -2.9 3.55 -4.9 3.9 -4.95 3.6 -4.9 2.55 -2.9 1.45 -0.95 -1.6 -1.4 -5.55 -2.0 M1.5 13.0 L1.5 13.05 -4.15 12.5 -5.85 4.65 -5.8 4.65 -4.15 12.45 1.5 13.0 -4.15 12.45 -5.8 4.65 -1.3 3.95 1.75 7.75 1.65 10.4 1.5 13.0" fill="#333333" fill-rule="evenodd" stroke="none"/>
    <path d="M-5.55 -2.0 L-1.6 -1.4 1.35 -0.9 1.4 -0.9 -1.3 3.9 -4.65 4.4 -5.8 4.6 -6.75 3.9 Q-7.45 3.1 -7.45 0.3 L-6.5 -1.3 -5.95 -1.75 -5.6 -2.0 -5.55 -2.0" fill="url(#gradient0)" fill-rule="evenodd" stroke="none"/>
    <path d="M1.45 -0.95 L2.55 -2.9 3.6 -4.9 6.35 -5.25 4.75 3.95 1.8 7.7 -1.25 3.95 1.45 -0.95" fill="url(#gradient1)" fill-rule="evenodd" stroke="none"/>
    <path d="M6.35 -5.25 L7.6 -3.75 Q8.95 -1.75 9.25 0.3 9.75 3.4 9.35 7.9 L4.75 3.95 6.35 -5.25" fill="url(#gradient2)" fill-rule="evenodd" stroke="none"/>
    <path d="M9.1 8.5 L8.95 8.65 6.0 13.5 3.8 13.3 1.55 13.0 1.85 7.75 1.8 7.7 4.75 3.95 9.35 7.9 9.35 7.95 9.1 8.5" fill="url(#gradient3)" fill-rule="evenodd" stroke="none"/>
    <path d="M3.8 13.3 L1.55 13.05 1.55 13.0 3.8 13.3" fill="#4d4946" fill-rule="evenodd" stroke="none"/>
    <path d="M-5.85 4.65 L-6.0 4.65 -6.75 3.9 -5.8 4.6 -4.65 4.4 -5.8 4.65 -5.85 4.65 M-5.95 -1.75 L-5.65 -2.0 -5.6 -2.0 -5.95 -1.75 M-5.8 4.6 L-5.8 4.65 -5.8 4.6" fill="#8a8580" fill-rule="evenodd" stroke="none"/>
    <path d="M3.9 -4.95 L5.65 -5.25 Q4.6 -7.15 2.5 -7.3 L1.35 -7.35 Q-2.0 -7.15 -3.45 -6.1 -5.2 -4.8 -5.55 -2.0 L-1.6 -1.4 1.45 -0.95 2.55 -2.9 3.55 -4.9 3.9 -4.95 6.35 -5.3 7.6 -3.8 Q9.0 -1.8 9.3 0.3 9.75 3.4 9.4 7.9 L9.1 8.5 8.95 8.65 6.0 13.5 3.8 13.3 1.55 13.0 1.5 13.0 1.65 10.4 1.8 7.7 -1.25 3.95 1.45 -0.95 M-6.75 3.9 L-7.7 3.2 -7.45 0.3 -7.35 -0.7 -5.95 -1.75 -5.6 -2.0 -5.55 -2.0 M-1.3 3.9 L-4.65 4.4 -5.8 4.6 -6.75 3.9 M3.6 -4.9 L3.9 -4.95 M6.35 -5.25 L6.35 -5.3 M9.35 7.9 L9.4 7.9 M1.8 7.7 L4.75 3.95 6.35 -5.25 M4.75 3.95 L9.35 7.9 M-5.8 4.65 L-5.8 4.6 M1.5 13.0 L-4.15 12.45 -5.8 4.65 M-1.6 -1.4 L1.35 -0.9" fill="none" stroke="#2b2927" stroke-linecap="round" stroke-linejoin="round" stroke-width="1.0"/>
  </g>
  <defs>
    <radialGradient cx="0" cy="0" gradientTransform="matrix(0.0082, 0.0, 0.0, 0.0098, -5.3, 1.35)" gradientUnits="userSpaceOnUse" id="gradient0" r="819.2" spreadMethod="pad">
      <stop offset="0.0" stop-color="#4f524e"/>
      <stop offset="1.0" stop-color="#373836"/>
    </radialGradient>
    <radialGradient cx="0" cy="0" gradientTransform="matrix(0.0101, 0.0, 0.0, 0.012, 1.65, 2.85)" gradientUnits="userSpaceOnUse" id="gradient1" r="819.2" spreadMethod="pad">
      <stop offset="0.0" stop-color="#4d4946"/>
      <stop offset="1.0" stop-color="#3c3b38"/>
      <stop offset="1.0" stop-color="#333333"/>
    </radialGradient>
    <radialGradient cx="0" cy="0" gradientTransform="matrix(0.0082, 0.0, 0.0, 0.0098, 6.95, -0.2)" gradientUnits="userSpaceOnUse" id="gradient2" r="819.2" spreadMethod="pad">
      <stop offset="0.0" stop-color="#4d4946"/>
      <stop offset="1.0" stop-color="#3c3b38"/>
      <stop offset="1.0" stop-color="#333333"/>
    </radialGradient>
    <radialGradient cx="0" cy="0" gradientTransform="matrix(0.0061, 0.0, 0.0, 0.0073, 4.05, 7.65)" gradientUnits="userSpaceOnUse" id="gradient3" r="819.2" spreadMethod="pad">
      <stop offset="0.0" stop-color="#4f524e"/>
      <stop offset="1.0" stop-color="#373836"/>
    </radialGradient>
  </defs>
</svg>
