<?xml version="1.0" encoding="UTF-8" standalone="no"?>
<svg xmlns:xlink="http://www.w3.org/1999/xlink" height="7.3px" width="21.65px" xmlns="http://www.w3.org/2000/svg">
  <g transform="matrix(1.0, 0.0, 0.0, 1.0, 10.8, 3.65)">
    <path d="M-8.6 1.85 L-10.3 1.85 -10.3 -1.85 -8.6 -1.85 -8.6 1.85" fill="#46433a" fill-rule="evenodd" stroke="none"/>
    <path d="M-8.6 1.85 L-10.3 1.85 -10.3 -1.85 -8.6 -1.85" fill="none" stroke="#312e29" stroke-linecap="round" stroke-linejoin="round" stroke-width="1.0"/>
    <path d="M9.5 1.05 L5.65 2.4 2.85 3.05 1.05 3.15 -6.2 2.05 -7.8 2.5 Q-8.85 3.0 -8.6 1.85 L-8.6 -1.85 Q-8.85 -3.0 -7.8 -2.5 L-6.2 -2.05 1.05 -3.15 2.85 -3.05 5.65 -2.4 9.5 -1.05 Q9.9 -0.65 9.9 0.0 9.9 0.65 9.5 1.05 M1.05 3.15 L1.05 -3.15 1.05 3.15 M2.85 -3.05 L2.85 3.05 2.85 -3.05" fill="#565447" fill-rule="evenodd" stroke="none"/>
    <path d="M9.5 1.05 L5.65 2.4 2.85 3.05 1.05 3.15 -6.2 2.05 -7.8 2.5 Q-8.85 3.0 -8.6 1.85 L-8.6 -1.85 Q-8.85 -3.0 -7.8 -2.5 L-6.2 -2.05 1.05 -3.15 2.85 -3.05 5.65 -2.4 9.5 -1.05 9.7 -1.0 Q10.35 -0.65 10.35 0.0 10.35 0.65 9.7 1.0 L9.5 1.05 Q9.9 0.65 9.9 0.0 9.9 -0.65 9.5 -1.05 M2.85 3.05 L2.85 -3.05 M1.05 -3.15 L1.05 3.15" fill="none" stroke="#3b382f" stroke-linecap="round" stroke-linejoin="round" stroke-width="1.0"/>
  </g>
</svg>
