<?xml version="1.0" encoding="UTF-8" standalone="no"?>
<svg xmlns:ffdec="https://www.free-decompiler.com/flash" xmlns:xlink="http://www.w3.org/1999/xlink" ffdec:objectType="shape" height="20.85px" width="23.1px" xmlns="http://www.w3.org/2000/svg">
  <g transform="matrix(1.0, 0.0, 0.0, 1.0, 11.35, 17.1)">
    <path d="M-0.05 -13.35 L-2.25 -11.65 -2.8 -11.05 -2.55 -11.3 -1.55 -8.45 Q-1.4 -7.9 -1.55 -7.15 L-1.75 -6.3 Q-1.8 -5.8 -2.25 -5.25 -2.45 -5.05 -3.8 -4.55 L-5.05 -3.7 -5.65 -2.55 -6.05 -1.3 -6.6 -0.95 -6.95 -1.1 M-2.8 -11.05 L-3.75 -10.1 -4.15 -9.8 Q-4.4 -9.65 -4.6 -9.65 L-6.1 -9.6 -6.5 -8.25 -6.75 -7.2 -6.8 -7.2 -7.4 -7.45 -8.25 -7.5 -8.4 -7.45 -9.5 -7.0 -10.15 -6.75 M-6.8 -7.2 L-7.25 -7.4 -7.4 -7.45 -7.75 -7.6 -8.25 -7.5 M-9.5 -7.0 L-9.05 -7.2 Q-8.65 -7.35 -8.4 -7.45 M-6.8 -7.2 L-6.5 -8.25 -6.15 -9.7 -4.45 -9.7 -4.15 -9.8 -3.35 -10.6 -2.8 -11.05" fill="none" stroke="#191313" stroke-linecap="round" stroke-linejoin="round" stroke-opacity="0.5137255" stroke-width="0.25"/>
    <path d="M8.25 -5.4 L9.15 -5.15 9.6 -4.1 10.05 -2.3 Q7.05 -1.1 8.3 2.15 7.4 3.15 3.05 1.5 3.05 -0.35 3.7 -1.65 4.2 -2.8 5.5 -3.95 L8.25 -5.4" fill="url(#gradient0)" fill-rule="evenodd" stroke="none"/>
    <path d="M8.25 -5.4 L5.5 -3.95 Q4.2 -2.8 3.7 -1.65 3.05 -0.35 3.05 1.5 7.4 3.15 8.3 2.15 7.05 -1.1 10.05 -2.3 L9.6 -4.1 9.15 -5.15 8.25 -5.4 Z" fill="none" stroke="#1a1717" stroke-linecap="round" stroke-linejoin="round" stroke-width="1.0"/>
    <path d="M2.6 -16.4 L3.3 -14.65 Q3.4 -13.5 2.5 -12.3 1.95 -11.7 1.4 -11.9 0.9 -12.05 0.7 -12.7 L1.65 -13.8 2.6 -16.4" fill="#493f3f" fill-rule="evenodd" stroke="none"/>
    <path d="M2.6 -16.4 L3.3 -14.65 Q3.4 -13.5 2.5 -12.3 1.95 -11.7 1.4 -11.9 0.9 -12.05 0.7 -12.7 L1.65 -13.8 2.6 -16.4 Z" fill="none" stroke="#1b1616" stroke-linecap="round" stroke-linejoin="round" stroke-width="1.0"/>
    <path d="M5.85 -16.25 L6.55 -14.5 Q6.65 -13.35 5.75 -12.15 5.2 -11.55 4.65 -11.75 4.15 -11.9 3.95 -12.55 L4.9 -13.65 5.85 -16.25" fill="#493f3f" fill-rule="evenodd" stroke="none"/>
    <path d="M5.85 -16.25 L6.55 -14.5 Q6.65 -13.35 5.75 -12.15 5.2 -11.55 4.65 -11.75 4.15 -11.9 3.95 -12.55 L4.9 -13.65 5.85 -16.25 Z" fill="none" stroke="#1b1616" stroke-linecap="round" stroke-linejoin="round" stroke-width="1.0"/>
    <path d="M6.05 -11.45 Q5.3 -11.0 4.4 -11.15 3.85 -11.25 3.65 -11.7 L3.55 -12.15 3.05 -12.2 Q2.35 -11.15 1.5 -11.3 1.0 -11.35 0.5 -11.7 L0.1 -12.05" fill="none" stroke="#1c1515" stroke-linecap="round" stroke-linejoin="round" stroke-opacity="0.40392157" stroke-width="1.0"/>
    <path d="M2.7 -0.05 L3.5 -1.25 3.85 -2.05 5.65 -0.7 6.7 0.7 Q7.1 1.8 6.95 2.5 L3.2 1.7 Q3.15 0.95 3.25 0.15 L3.0 0.7 2.7 -0.05 2.5 -0.05 2.1 -0.55 1.9 -0.85 1.55 -1.2 0.8 -1.65 0.65 -1.85 -0.2 -2.75 -0.55 -3.95 Q-0.5 -4.05 -0.2 -2.85 L0.65 -1.85 0.9 -1.7 1.6 -1.2 1.9 -0.85 2.7 -0.05 Z" fill="none" stroke="#1a1717" stroke-linecap="round" stroke-linejoin="round" stroke-opacity="0.5411765" stroke-width="1.0"/>
    <path d="M3.75 -0.35 L4.85 0.35 5.55 1.4 5.5 2.65 Q5.05 3.1 4.25 3.25 3.6 3.35 2.9 2.65 2.15 1.9 2.5 1.85 L2.55 1.2 Q2.6 0.5 2.8 0.2 L3.4 -0.25 3.75 -0.35" fill="#262628" fill-rule="evenodd" stroke="none"/>
    <path d="M3.75 -0.35 L4.85 0.35 5.55 1.4 5.5 2.65 Q5.05 3.1 4.25 3.25 3.6 3.35 2.9 2.65 2.15 1.9 2.5 1.85 L2.55 1.2 Q2.6 0.5 2.8 0.2 L3.4 -0.25 3.75 -0.35 Z" fill="none" stroke="#171414" stroke-linecap="butt" stroke-linejoin="miter-clip" stroke-miterlimit="15.12109375" stroke-width="1.0"/>
    <path d="M4.9 -7.95 L3.9 -8.1 5.2 -9.65 6.45 -9.9 9.1 -10.0 9.4 -9.45 9.7 -8.65 Q9.6 -8.05 8.3 -7.95 L4.9 -7.95" fill="#2d2222" fill-rule="evenodd" stroke="none"/>
    <path d="M4.9 -7.95 L8.3 -7.95 Q9.6 -8.05 9.7 -8.65 L9.4 -9.45 9.1 -10.0 6.45 -9.9 5.2 -9.65 3.9 -8.1 4.9 -7.95 Z" fill="none" stroke="#1c1515" stroke-linecap="round" stroke-linejoin="round" stroke-width="1.0"/>
    <path d="M-1.7 -9.25 L-1.05 -9.15 0.25 -8.75 2.4 -7.8 4.7 -7.5 7.9 -7.5 8.2 -6.15 8.3 -5.85 5.7 -4.2 4.25 -2.6 3.4 -2.8 Q2.5 -2.85 1.45 -3.8 L-0.1 -4.3 Q-1.25 -4.5 -1.85 -6.0 L-2.25 -7.5 -1.7 -9.25" fill="url(#gradient1)" fill-rule="evenodd" stroke="none"/>
    <path d="M-1.7 -9.25 L-1.05 -9.15 0.25 -8.75 2.4 -7.8 4.7 -7.5 7.9 -7.5 8.2 -6.15 8.3 -5.85 5.7 -4.2 4.25 -2.6 3.4 -2.8 Q2.5 -2.85 1.45 -3.8 L-0.1 -4.3 Q-1.25 -4.5 -1.85 -6.0 L-2.25 -7.5 -1.7 -9.25 Z" fill="none" stroke="#1a1717" stroke-linecap="butt" stroke-linejoin="miter-clip" stroke-miterlimit="15.12109375" stroke-opacity="0.6313726" stroke-width="1.0"/>
    <path d="M1.6 1.45 Q-1.85 3.75 -4.5 0.15 L-1.35 0.4 Q1.15 0.9 1.6 1.45" fill="#2d2525" fill-rule="evenodd" stroke="none"/>
    <path d="M1.6 1.45 Q-1.85 3.75 -4.5 0.15 L-1.35 0.4 Q1.15 0.9 1.6 1.45 Z" fill="none" stroke="#1a1717" stroke-linecap="round" stroke-linejoin="miter-clip" stroke-miterlimit="15.12109375" stroke-width="1.0"/>
    <path d="M-10.6 -7.15 L-10.85 -7.55 -10.7 -9.4 -9.35 -12.65 -8.6 -14.2 -4.35 -15.7 -3.75 -15.85 -1.85 -15.85 0.25 -15.65 2.25 -15.3 2.75 -16.6 3.05 -15.8 3.55 -15.0 5.0 -13.9 5.35 -14.65 5.85 -16.3 6.1 -15.95 6.45 -14.9 Q6.6 -14.0 6.3 -13.0 L6.95 -12.55 8.05 -11.45 8.9 -10.1 9.25 -10.0 Q9.8 -8.75 9.6 -8.55 9.3 -8.1 8.65 -8.0 L7.9 -7.9 8.3 -5.45 9.25 -5.15 10.05 -2.55 9.95 -2.25 9.45 -2.05 9.6 -1.65 9.6 -0.55 Q9.45 0.35 8.8 1.45 L8.35 2.0 Q8.35 2.45 7.75 2.5 L6.45 2.45 5.55 2.3 4.85 3.1 3.9 3.1 3.0 2.6 2.25 1.35 1.2 0.85" fill="none" stroke="#000000" stroke-linecap="round" stroke-linejoin="round" stroke-opacity="0.25490198" stroke-width="1.0"/>
    <path d="M-9.95 -5.35 L-10.2 -4.75 -10.35 -3.75 -10.2 -3.25 Q-9.9 -2.35 -9.35 -1.95 -9.0 -1.7 -7.55 -1.15" fill="none" stroke="#000000" stroke-linecap="round" stroke-linejoin="round" stroke-opacity="0.38039216" stroke-width="1.0"/>
  </g>
  <defs>
    <radialGradient cx="0" cy="0" gradientTransform="matrix(0.003, -3.0E-4, 0.0017, 0.0181, 6.85, -1.6)" gradientUnits="userSpaceOnUse" id="gradient0" r="819.2" spreadMethod="pad">
      <stop offset="0.0" stop-color="#251d1d"/>
      <stop offset="1.0" stop-color="#493f3f"/>
    </radialGradient>
    <radialGradient cx="0" cy="0" gradientTransform="matrix(0.007, -0.0012, 0.0024, 0.0136, 1.95, -6.05)" gradientUnits="userSpaceOnUse" id="gradient1" r="819.2" spreadMethod="pad">
      <stop offset="0.0" stop-color="#050217" stop-opacity="0.5019608"/>
      <stop offset="0.6588235294117647" stop-color="#c29a3d" stop-opacity="0.6901961"/>
      <stop offset="0.7490196078431373" stop-color="#feefcd" stop-opacity="0.8392157"/>
      <stop offset="0.8235294117647058" stop-color="#feefcd" stop-opacity="0.8"/>
      <stop offset="0.9254901960784314" stop-color="#e4a81b" stop-opacity="0.5686275"/>
      <stop offset="1.0" stop-color="#e3d31c" stop-opacity="0.6745098"/>
    </radialGradient>
  </defs>
</svg>
