<?xml version="1.0" encoding="UTF-8" standalone="no"?>
<svg xmlns:xlink="http://www.w3.org/1999/xlink" height="28.55px" width="66.6px" xmlns="http://www.w3.org/2000/svg">
  <g transform="matrix(1.0, 0.0, 0.0, 1.0, 46.85, 12.5)">
    <path d="M12.05 10.55 L13.45 10.55 12.05 10.55 M14.15 6.35 L13.45 10.55 13.1 12.7 12.7 15.45 9.25 14.85 Q8.45 11.75 9.35 10.25 10.2 8.8 9.5 6.35 L14.15 6.35 M10.8 12.7 L13.1 12.7 10.8 12.7 M-35.4 -2.65 L-8.1 -2.65 -8.1 2.55 -16.85 2.55 -17.65 1.6 -25.45 1.6 -26.6 2.55 -35.4 2.55 -35.4 -2.65 M-32.15 -0.2 L-32.15 -0.75 -32.15 -0.2 M-33.5 0.8 L-33.5 -0.75 -33.5 0.8" fill="#565447" fill-rule="evenodd" stroke="none"/>
    <path d="M12.45 -9.75 L14.9 -10.65 19.25 -10.65 19.25 -8.7 Q19.05 -8.05 18.05 -7.7 17.05 -7.45 16.75 -5.9 L10.75 -5.9 10.8 -5.95 11.35 -9.75 12.45 -9.75" fill="#3f3f3f" fill-rule="evenodd" stroke="none"/>
    <path d="M3.15 -3.8 L3.9 -5.2 10.2 -5.2 10.45 -5.2 9.4 -3.2 4.55 -3.2 3.5 -3.8 3.15 -3.8" fill="#3e3e3e" fill-rule="evenodd" stroke="none"/>
    <path d="M-3.35 10.9 L-4.35 12.15 -5.35 13.55 -8.15 12.45 Q-9.0 10.0 -7.15 8.2 -5.45 6.35 -4.85 4.3 L0.0 4.3 -2.15 6.95 Q-2.95 7.8 -2.25 9.35 L-3.35 10.9 -4.35 10.1 -3.35 10.9 M-5.25 11.5 L-4.35 12.15 -5.25 11.5" fill="#605f4d" fill-rule="evenodd" stroke="none"/>
    <path d="M3.9 -5.2 L3.15 -3.8 M9.4 -3.2 L10.45 -5.2 M12.45 -9.75 L14.9 -10.65 19.25 -10.65 19.25 -8.7 Q19.05 -8.05 18.05 -7.7 17.05 -7.45 16.75 -5.9" fill="none" stroke="#212121" stroke-linecap="round" stroke-linejoin="round" stroke-width="1.0"/>
    <path d="M10.45 -5.2 L10.2 -5.2" fill="none" stroke="#292929" stroke-linecap="round" stroke-linejoin="round" stroke-width="1.0"/>
    <path d="M16.75 -5.9 L10.75 -5.9 M11.35 -9.75 L12.45 -9.75" fill="none" stroke="#1e1e1e" stroke-linecap="round" stroke-linejoin="round" stroke-width="1.0"/>
    <path d="M-8.1 -2.65 L-35.4 -2.65 M-35.4 2.55 L-26.6 2.55 M-32.15 -0.75 L-32.15 -0.2 M-33.5 -0.75 L-33.5 0.8" fill="none" stroke="#404036" stroke-linecap="round" stroke-linejoin="round" stroke-width="1.0"/>
    <path d="M-26.6 2.55 L-25.45 1.6 -17.65 1.6 -16.85 2.55 -8.1 2.55" fill="none" stroke="#424033" stroke-linecap="round" stroke-linejoin="round" stroke-width="1.0"/>
    <path d="M-4.85 4.3 Q-5.45 6.35 -7.15 8.2 -9.0 10.0 -8.15 12.45 M-2.15 6.95 L0.0 4.3" fill="none" stroke="#3f3c33" stroke-linecap="round" stroke-linejoin="round" stroke-width="1.0"/>
    <path d="M-4.35 12.15 L-3.35 10.9 -4.35 10.1 M-8.15 12.45 L-5.35 13.55 -4.35 12.15 -5.25 11.5 M-3.35 10.9 L-2.25 9.35 Q-2.95 7.8 -2.15 6.95" fill="none" stroke="#3e3b32" stroke-linecap="round" stroke-linejoin="round" stroke-width="1.0"/>
    <path d="M13.45 10.55 L12.05 10.55 M14.15 6.35 L13.45 10.55 13.1 12.7 12.7 15.45 13.65 15.55 Q15.55 15.25 16.15 12.8 L17.5 6.35 M12.7 15.45 L9.25 14.85 Q8.45 11.75 9.35 10.25 10.2 8.8 9.5 6.35 M13.1 12.7 L10.8 12.7" fill="none" stroke="#39372b" stroke-linecap="round" stroke-linejoin="round" stroke-width="1.0"/>
    <path d="M-0.15 6.15 L0.75 5.05" fill="none" stroke="#620301" stroke-linecap="round" stroke-linejoin="round" stroke-width="1.0"/>
    <path d="M-39.05 3.45 L-39.05 2.5 Q-39.05 1.95 -39.45 1.55 -39.8 1.15 -40.3 1.15 L-40.35 1.15 Q-40.9 1.15 -41.3 1.55 -41.65 1.95 -41.65 2.5 L-41.65 3.45 -44.85 3.45 -44.85 1.6 Q-45.05 0.0 -46.35 -0.95 L-46.0 -3.8 -37.8 -3.8 -35.6 -3.0 -35.4 -2.65 -35.4 2.6 -36.5 3.45 -39.05 3.45 M-38.4 -1.9 L-44.6 -1.9 -38.4 -1.9" fill="#4c4c4c" fill-rule="evenodd" stroke="none"/>
    <path d="M-39.05 3.45 L-36.5 3.45 -35.4 2.6 -35.4 -2.65 -35.6 -3.0 -37.8 -3.8 -46.0 -3.8 -46.35 -0.95 Q-45.05 0.0 -44.85 1.6 L-44.85 3.45 -41.65 3.45 -41.65 2.5 Q-41.65 1.95 -41.3 1.55 -40.9 1.15 -40.35 1.15 L-40.3 1.15 Q-39.8 1.15 -39.45 1.55 -39.05 1.95 -39.05 2.5 L-39.05 3.45 -39.05 4.05 Q-39.05 4.6 -39.45 5.0 -39.8 5.4 -40.3 5.4 L-40.35 5.4 Q-40.9 5.4 -41.3 5.0 -41.65 4.6 -41.65 4.05 L-41.65 3.45" fill="none" stroke="#2a2a2a" stroke-linecap="round" stroke-linejoin="round" stroke-width="1.0"/>
    <path d="M-44.6 -1.9 L-38.4 -1.9" fill="none" stroke="#585858" stroke-linecap="round" stroke-linejoin="round" stroke-width="1.0"/>
    <path d="M4.0 -10.35 L11.35 -10.35 11.35 -9.75 10.8 -5.9 10.75 -5.85 10.2 -5.15 3.9 -5.15 3.65 -6.45 -2.45 -6.45 -1.4 -9.8 2.45 -8.95 4.0 -10.35 M6.5 -8.8 L6.25 -7.5 6.5 -8.8 M8.7 -8.8 L8.45 -7.5 8.7 -8.8" fill="#4c4c4c" fill-rule="evenodd" stroke="none"/>
    <path d="M4.0 -10.35 L2.45 -8.95 -1.4 -9.8 -2.45 -10.35 -1.75 -12.0 2.9 -12.0 4.0 -10.35" fill="#404040" fill-rule="evenodd" stroke="none"/>
    <path d="M-1.4 -9.8 L-2.45 -6.45 Q-3.6 -5.55 -5.2 -6.1 L-5.2 -10.35 -2.45 -10.35 -1.4 -9.8" fill="#3f3f3f" fill-rule="evenodd" stroke="none"/>
    <path d="M8.45 -7.5 L8.7 -8.8 M6.25 -7.5 L6.5 -8.8" fill="none" stroke="#3d3d3d" stroke-linecap="round" stroke-linejoin="round" stroke-width="1.0"/>
    <path d="M4.0 -10.35 L2.45 -8.95 M2.9 -12.0 L4.0 -10.35" fill="none" stroke="#232323" stroke-linecap="round" stroke-linejoin="round" stroke-width="1.0"/>
    <path d="M-2.45 -6.45 L3.65 -6.45 3.9 -5.15 10.2 -5.15 10.75 -5.85 10.8 -5.9 11.35 -9.75 11.35 -10.35 4.0 -10.35" fill="none" stroke="#292929" stroke-linecap="round" stroke-linejoin="round" stroke-width="1.0"/>
    <path d="M2.45 -8.95 L-1.4 -9.8 -2.45 -6.45 Q-3.6 -5.55 -5.2 -6.1 L-5.2 -10.35 -2.45 -10.35 -1.75 -12.0 2.9 -12.0 M-1.4 -9.8 L-2.45 -10.35" fill="none" stroke="#212121" stroke-linecap="round" stroke-linejoin="round" stroke-width="1.0"/>
    <path d="M3.6 -1.6 L4.55 -1.6 Q5.15 -1.6 5.55 -1.15 6.05 -0.7 6.05 0.0 L6.05 0.05 Q6.05 0.75 5.55 1.15 5.15 1.65 4.55 1.65 L3.6 1.65 3.6 -1.6" fill="url(#gradient0)" fill-rule="evenodd" stroke="none"/>
    <path d="M7.6 4.3 L0.0 4.3 -4.85 4.3 -5.25 4.3 -8.1 2.85 -8.1 2.6 -8.1 -2.65 -5.75 -3.8 3.15 -3.8 3.5 -3.8 4.55 -3.15 9.4 -3.15 12.3 -3.15 18.35 -3.15 18.9 -3.15 18.9 -2.35 18.9 -0.05 18.9 2.2 18.9 3.0 9.4 3.0 7.6 4.3 M3.6 1.65 L4.55 1.65 Q5.15 1.65 5.55 1.15 6.05 0.75 6.05 0.05 L6.05 0.0 Q6.05 -0.7 5.55 -1.15 5.15 -1.6 4.55 -1.6 L3.6 -1.6 -2.2 -1.6 Q-2.85 -1.6 -3.3 -1.15 -3.7 -0.7 -3.7 0.0 L-3.7 0.05 Q-3.7 0.75 -3.3 1.15 -2.85 1.65 -2.2 1.65 L3.6 1.65 M16.05 -1.25 L9.8 -1.25 16.05 -1.25 M16.65 1.0 L16.4 0.45 Q16.2 0.2 15.9 0.2 15.6 0.2 15.35 0.45 L15.15 1.0 15.35 1.55 15.9 1.8 16.4 1.55 16.65 1.0 M13.35 0.2 L12.8 0.45 12.6 1.0 12.8 1.55 13.35 1.8 13.85 1.55 14.1 1.0 13.85 0.45 13.35 0.2 M10.7 0.2 Q10.4 0.2 10.15 0.45 9.9 0.65 9.9 1.0 L10.15 1.55 10.7 1.8 11.2 1.55 11.45 1.0 11.2 0.45 Q10.95 0.2 10.7 0.2" fill="#4c4c4c" fill-rule="evenodd" stroke="none"/>
    <path d="M16.65 1.0 L16.4 1.55 15.9 1.8 15.35 1.55 15.15 1.0 15.35 0.45 Q15.6 0.2 15.9 0.2 16.2 0.2 16.4 0.45 L16.65 1.0" fill="url(#gradient1)" fill-rule="evenodd" stroke="none"/>
    <path d="M13.35 0.2 L13.85 0.45 14.1 1.0 13.85 1.55 13.35 1.8 12.8 1.55 12.6 1.0 12.8 0.45 13.35 0.2" fill="url(#gradient2)" fill-rule="evenodd" stroke="none"/>
    <path d="M10.7 0.2 Q10.95 0.2 11.2 0.45 L11.45 1.0 11.2 1.55 10.7 1.8 10.15 1.55 9.9 1.0 Q9.9 0.65 10.15 0.45 10.4 0.2 10.7 0.2" fill="url(#gradient3)" fill-rule="evenodd" stroke="none"/>
    <path d="M7.6 4.3 L9.4 3.0 18.9 3.0 17.95 6.4 17.5 6.4 8.8 6.4 7.6 4.3" fill="#3f3f3f" fill-rule="evenodd" stroke="none"/>
    <path d="M3.6 -1.6 L3.6 1.65 -2.2 1.65 Q-2.85 1.65 -3.3 1.15 -3.7 0.75 -3.7 0.05 L-3.7 0.0 Q-3.7 -0.7 -3.3 -1.15 -2.85 -1.6 -2.2 -1.6 L3.6 -1.6" fill="url(#gradient4)" fill-rule="evenodd" stroke="none"/>
    <path d="M18.9 3.0 L18.9 2.2 18.9 -0.05 18.9 -2.35 18.9 -3.15 18.35 -3.15 12.3 -3.15 9.4 -3.15 4.55 -3.15 3.5 -3.8 3.15 -3.8 -5.75 -3.8 -8.1 -2.65 -8.1 2.6 -8.1 2.85 -5.25 4.3 -4.85 4.3 0.0 4.3 7.6 4.3 M3.6 1.65 L4.55 1.65 Q5.15 1.65 5.55 1.15 6.05 0.75 6.05 0.05 L6.05 0.0 Q6.05 -0.7 5.55 -1.15 5.15 -1.6 4.55 -1.6 L3.6 -1.6 -2.2 -1.6 Q-2.85 -1.6 -3.3 -1.15 -3.7 -0.7 -3.7 0.0 L-3.7 0.05 Q-3.7 0.75 -3.3 1.15 -2.85 1.65 -2.2 1.65 L3.6 1.65" fill="none" stroke="#292929" stroke-linecap="round" stroke-linejoin="round" stroke-width="1.0"/>
    <path d="M9.8 -1.25 L16.05 -1.25" fill="none" stroke="#646265" stroke-linecap="round" stroke-linejoin="round" stroke-width="1.0"/>
    <path d="M17.95 6.4 L17.5 6.4" fill="none" stroke="#222024" stroke-linecap="round" stroke-linejoin="round" stroke-width="1.0"/>
    <path d="M7.6 4.3 L9.4 3.0 18.9 3.0 17.95 6.4 M17.5 6.4 L8.8 6.4 7.3 6.85 -1.45 6.85 M8.8 6.4 L7.6 4.3" fill="none" stroke="#222023" stroke-linecap="round" stroke-linejoin="round" stroke-width="1.0"/>
  </g>
  <defs>
    <linearGradient gradientTransform="matrix(0.0, 0.0011, -0.0019, 0.0, 4.35, 0.85)" gradientUnits="userSpaceOnUse" id="gradient0" spreadMethod="reflect" x1="-819.2" x2="819.2">
      <stop offset="0.0" stop-color="#8e3131"/>
      <stop offset="1.0" stop-color="#511c1c"/>
    </linearGradient>
    <radialGradient cx="0" cy="0" gradientTransform="matrix(0.0012, 0.0, 0.0, 0.0013, 15.9, 1.0)" gradientUnits="userSpaceOnUse" id="gradient1" r="819.2" spreadMethod="reflect">
      <stop offset="0.34509803921568627" stop-color="#8e3131"/>
      <stop offset="1.0" stop-color="#511c1c"/>
    </radialGradient>
    <radialGradient cx="0" cy="0" gradientTransform="matrix(0.0012, 0.0, 0.0, 0.0013, 13.35, 1.0)" gradientUnits="userSpaceOnUse" id="gradient2" r="819.2" spreadMethod="reflect">
      <stop offset="0.34509803921568627" stop-color="#8e3131"/>
      <stop offset="1.0" stop-color="#511c1c"/>
    </radialGradient>
    <radialGradient cx="0" cy="0" gradientTransform="matrix(0.0012, 0.0, 0.0, 0.0013, 10.7, 1.0)" gradientUnits="userSpaceOnUse" id="gradient3" r="819.2" spreadMethod="reflect">
      <stop offset="0.34509803921568627" stop-color="#8e3131"/>
      <stop offset="1.0" stop-color="#511c1c"/>
    </radialGradient>
    <linearGradient gradientTransform="matrix(0.0, 0.001, -0.0019, 0.0, 0.45, 0.8)" gradientUnits="userSpaceOnUse" id="gradient4" spreadMethod="reflect" x1="-819.2" x2="819.2">
      <stop offset="0.0" stop-color="#58a152"/>
      <stop offset="1.0" stop-color="#325b2f"/>
    </linearGradient>
  </defs>
</svg>
