<?xml version="1.0" encoding="UTF-8" standalone="no"?>
<svg xmlns:ffdec="https://www.free-decompiler.com/flash" xmlns:xlink="http://www.w3.org/1999/xlink" ffdec:objectType="shape" height="19.8px" width="27.65px" xmlns="http://www.w3.org/2000/svg">
  <g transform="matrix(1.0, 0.0, 0.0, 1.0, 12.0, 19.6)">
    <path d="M-2.7 -3.55 Q-3.3 -4.15 -5.3 -5.0 -7.6 -6.0 -8.1 -7.5 L-8.4 -9.8 Q-8.7 -11.8 -6.6 -13.3 -4.85 -14.55 -1.95 -15.15 -2.45 -14.75 -1.9 -14.8 -1.05 -14.9 -1.05 -14.4 L-0.1 -13.4 Q0.2 -12.7 -0.1 -12.25 0.4 -12.3 1.3 -13.45 2.1 -14.5 2.5 -14.35 6.15 -13.05 6.25 -8.55 6.3 -6.2 5.6 -3.25 5.7 -2.95 3.15 -2.4 0.65 -1.9 1.05 -1.3 L-0.95 -3.0 Q-1.6 -3.0 -2.7 -3.55" fill="#282931" fill-rule="evenodd" stroke="none"/>
    <path d="M-2.7 -3.55 Q-3.3 -4.15 -5.3 -5.0 -7.6 -6.0 -8.1 -7.5 L-8.4 -9.8 Q-8.7 -11.8 -6.6 -13.3 -4.85 -14.55 -1.95 -15.15 -2.45 -14.75 -1.9 -14.8 -1.05 -14.9 -1.05 -14.4 L-0.1 -13.4 Q0.2 -12.7 -0.1 -12.25 0.4 -12.3 1.3 -13.45 2.1 -14.5 2.5 -14.35 6.15 -13.05 6.25 -8.55 6.3 -6.2 5.6 -3.25 5.7 -2.95 3.15 -2.4 0.65 -1.9 1.05 -1.3 L-0.95 -3.0 Q-1.6 -3.0 -2.7 -3.55 Z" fill="none" stroke="#111216" stroke-linecap="round" stroke-linejoin="round" stroke-width="1.0"/>
    <path d="M1.05 -1.3 L1.15 -0.9 1.45 -0.55 -2.15 -0.45 Q-4.05 -0.8 -4.95 -1.75 L-4.8 -4.55 -2.85 -4.0 Q0.4 -2.75 1.05 -1.3" fill="#2d2e33" fill-rule="evenodd" stroke="none"/>
    <path d="M1.05 -1.3 L1.15 -0.9 1.45 -0.55 -2.15 -0.45 Q-4.05 -0.8 -4.95 -1.75 L-4.8 -4.55 -2.85 -4.0 Q0.4 -2.75 1.05 -1.3 Z" fill="none" stroke="#111216" stroke-linecap="round" stroke-linejoin="round" stroke-width="1.0"/>
    <path d="M7.85 -5.7 L5.35 -5.65 Q3.15 -6.5 3.45 -7.5 3.6 -8.0 -0.85 -10.5 L-0.35 -11.4 Q0.35 -12.3 1.25 -12.2 2.55 -12.3 2.55 -13.75 2.6 -15.45 2.8 -15.65 5.85 -15.45 7.2 -12.7 8.55 -9.95 7.85 -5.7" fill="url(#gradient0)" fill-rule="evenodd" stroke="none"/>
    <path d="M7.85 -5.7 L5.35 -5.65 Q3.15 -6.5 3.45 -7.5 3.6 -8.0 -0.85 -10.5 L-0.35 -11.4 Q0.35 -12.3 1.25 -12.2 2.55 -12.3 2.55 -13.75 2.6 -15.45 2.8 -15.65 5.85 -15.45 7.2 -12.7 8.55 -9.95 7.85 -5.7 Z" fill="none" stroke="#000000" stroke-linecap="butt" stroke-linejoin="miter-clip" stroke-miterlimit="15.12109375" stroke-opacity="0.5411765" stroke-width="1.0"/>
    <path d="M-5.7 -14.55 L-1.55 -12.35 1.3 -12.05 0.35 -11.55 -0.65 -10.85 Q-0.7 -10.65 -0.05 -10.0 L0.6 -9.4 Q-2.2 -8.9 -2.95 -8.05 -3.65 -7.65 -4.85 -7.7 L-6.55 -7.75 Q-9.6 -7.5 -9.95 -9.8 -10.3 -12.15 -7.6 -14.9 L-5.7 -14.55" fill="url(#gradient1)" fill-rule="evenodd" stroke="none"/>
    <path d="M-5.7 -14.55 L-1.55 -12.35 1.3 -12.05 0.35 -11.55 -0.65 -10.85 Q-0.7 -10.65 -0.05 -10.0 L0.6 -9.4 Q-2.2 -8.9 -2.95 -8.05 -3.65 -7.65 -4.85 -7.7 L-6.55 -7.75 Q-9.6 -7.5 -9.95 -9.8 -10.3 -12.15 -7.6 -14.9 L-5.7 -14.55 Z" fill="none" stroke="#513817" stroke-linecap="butt" stroke-linejoin="miter-clip" stroke-miterlimit="15.12109375" stroke-width="1.0"/>
    <path d="M-7.35 -14.85 L-6.6 -16.05 Q-5.7 -17.35 -4.9 -17.7 L-2.75 -17.9 -1.0 -17.55 Q-0.6 -17.5 0.4 -15.95 1.5 -14.2 1.85 -13.95 2.7 -13.3 1.7 -13.35 L0.75 -11.95 Q-0.1 -11.05 -1.2 -11.6 L-4.2 -13.45 Q-6.45 -14.85 -6.8 -14.85 L-7.35 -14.85" fill="url(#gradient2)" fill-rule="evenodd" stroke="none"/>
    <path d="M-7.35 -14.85 L-6.6 -16.05 Q-5.7 -17.35 -4.9 -17.7 L-2.75 -17.9 -1.0 -17.55 Q-0.6 -17.5 0.4 -15.95 1.5 -14.2 1.85 -13.95 2.7 -13.3 1.7 -13.35 L0.75 -11.95 Q-0.1 -11.05 -1.2 -11.6 L-4.2 -13.45 Q-6.45 -14.85 -6.8 -14.85 L-7.35 -14.85 Z" fill="none" stroke="#242528" stroke-linecap="butt" stroke-linejoin="miter-clip" stroke-miterlimit="15.12109375" stroke-width="1.0"/>
    <path d="M-0.95 -17.55 Q2.2 -18.1 5.25 -16.1 4.05 -15.45 3.9 -15.15 L2.35 -12.6 Q1.65 -11.8 1.0 -12.3 0.8 -15.1 -0.05 -16.15 L-0.95 -17.55" fill="url(#gradient3)" fill-rule="evenodd" stroke="none"/>
    <path d="M-0.95 -17.55 Q2.2 -18.1 5.25 -16.1 4.05 -15.45 3.9 -15.15 L2.35 -12.6 Q1.65 -11.8 1.0 -12.3 0.8 -15.1 -0.05 -16.15 L-0.95 -17.55 Z" fill="none" stroke="#513817" stroke-linecap="round" stroke-linejoin="round" stroke-width="1.0"/>
    <path d="M3.6 -7.6 L3.75 -7.3 3.75 -7.0 4.2 -6.3 Q5.3 -5.55 8.1 -5.4 9.25 -5.3 8.55 -3.55 7.85 -1.8 5.25 -1.45 L2.55 -1.0 Q2.45 -3.25 2.2 -3.55 1.95 -3.8 2.0 -4.9 2.0 -6.05 2.3 -6.4 L3.6 -7.6" fill="url(#gradient4)" fill-rule="evenodd" stroke="none"/>
    <path d="M3.6 -7.6 L2.3 -6.4 Q2.0 -6.05 2.0 -4.9 1.95 -3.8 2.2 -3.55 2.45 -3.25 2.55 -1.0 L5.25 -1.45 Q7.85 -1.8 8.55 -3.55 9.25 -5.3 8.1 -5.4 5.3 -5.55 4.2 -6.3 L3.75 -7.0 3.75 -7.3 3.6 -7.6 Z" fill="none" stroke="#513817" stroke-linecap="butt" stroke-linejoin="miter-clip" stroke-miterlimit="15.12109375" stroke-width="1.0"/>
    <path d="M1.3 -2.6 Q2.25 -3.65 3.2 -3.1 4.15 -2.55 3.5 -1.05 L2.85 -0.5 1.8 -0.45 Q1.4 -0.6 1.25 -1.35 1.15 -2.05 1.3 -2.6" fill="#474747" fill-rule="evenodd" stroke="none"/>
    <path d="M1.3 -2.6 Q1.15 -2.05 1.25 -1.35 1.4 -0.6 1.8 -0.45 L2.85 -0.5 3.5 -1.05 Q4.15 -2.55 3.2 -3.1 2.25 -3.65 1.3 -2.6 Z" fill="none" stroke="#1c1c1c" stroke-linecap="butt" stroke-linejoin="miter-clip" stroke-miterlimit="15.12109375" stroke-width="1.0"/>
    <path d="M-1.6 -8.95 L0.2 -9.65 2.5 -8.45 3.45 -7.4 Q3.45 -7.0 2.3 -6.05 L1.9 -5.15 Q-0.7 -7.1 -1.65 -7.25 L-4.2 -8.0 -4.35 -8.05 Q-5.35 -9.6 -5.3 -10.75 L-4.85 -12.45 -4.45 -13.3 -1.2 -11.8 -0.05 -10.55 0.4 -9.75 -1.6 -8.95 -2.8 -8.45 -4.2 -8.0 -2.8 -8.45 -1.6 -8.95 -4.2 -8.0 -1.6 -8.95" fill="url(#gradient5)" fill-rule="evenodd" stroke="none"/>
    <path d="M-1.6 -8.95 L0.2 -9.65 2.5 -8.45 3.45 -7.4 Q3.45 -7.0 2.3 -6.05 L1.9 -5.15 Q-0.7 -7.1 -1.65 -7.25 L-4.2 -8.0 -4.35 -8.05 Q-5.35 -9.6 -5.3 -10.75 L-4.85 -12.45 -4.45 -13.3 -1.2 -11.8 -0.05 -10.55 0.4 -9.75 -1.6 -8.95 -2.8 -8.45 -4.2 -8.0 -1.6 -8.95" fill="none" stroke="#242528" stroke-linecap="round" stroke-linejoin="miter-clip" stroke-miterlimit="15.12109375" stroke-width="1.0"/>
    <path d="M3.85 -1.35 L5.15 -1.45 Q6.55 -1.65 7.35 -2.15 L8.45 -3.15 8.65 -4.2 Q8.7 -4.75 8.4 -5.1 L8.1 -5.4 7.9 -5.75 8.05 -8.2 Q8.05 -11.0 7.15 -12.65 6.25 -14.3 5.2 -15.1 L4.3 -15.55 5.25 -16.15 Q3.9 -17.25 2.3 -17.6 L0.15 -17.7 -0.85 -17.5 -3.5 -18.05 Q-4.95 -18.05 -6.25 -16.35 L-7.7 -14.75 -8.85 -13.55 -9.7 -11.65 -10.0 -9.65 -9.45 -8.45 -8.6 -7.85 -7.95 -7.75 -7.95 -7.0 Q-7.8 -6.2 -6.95 -5.75 L-4.9 -4.6 -4.75 -1.65" fill="none" stroke="#010100" stroke-linecap="round" stroke-linejoin="round" stroke-opacity="0.3647059" stroke-width="1.0"/>
    <path d="M-8.9 -12.45 Q-7.1 -12.05 -7.25 -10.5 -7.45 -8.95 -9.4 -9.05 -9.7 -9.15 -9.75 -9.9 L-9.65 -11.1 -8.9 -12.45" fill="url(#gradient6)" fill-rule="evenodd" stroke="none"/>
    <path d="M-8.9 -12.45 Q-7.1 -12.05 -7.25 -10.5 -7.45 -8.95 -9.4 -9.05 -9.7 -9.15 -9.75 -9.9 L-9.65 -11.1 -8.9 -12.45 Z" fill="none" stroke="#000000" stroke-linecap="round" stroke-linejoin="round" stroke-opacity="0.40392157" stroke-width="1.0"/>
  </g>
  <defs>
    <radialGradient cx="0" cy="0" gradientTransform="matrix(0.0082, -0.0021, 0.0028, 0.0109, 1.45, -9.0)" gradientUnits="userSpaceOnUse" id="gradient0" r="819.2" spreadMethod="pad">
      <stop offset="0.0" stop-color="#073d54" stop-opacity="0.5019608"/>
      <stop offset="0.6588235294117647" stop-color="#3dc2ab" stop-opacity="0.6901961"/>
      <stop offset="0.7490196078431373" stop-color="#a6fbfd" stop-opacity="0.7882353"/>
      <stop offset="0.8235294117647058" stop-color="#a6f6fe" stop-opacity="0.7058824"/>
      <stop offset="0.9254901960784314" stop-color="#1bdae4" stop-opacity="0.5686275"/>
      <stop offset="1.0" stop-color="#1c8ce3" stop-opacity="0.67058825"/>
    </radialGradient>
    <radialGradient cx="0" cy="0" gradientTransform="matrix(0.0082, 0.0012, -0.0033, 0.0236, -3.65, -11.2)" gradientUnits="userSpaceOnUse" id="gradient1" r="819.2" spreadMethod="pad">
      <stop offset="0.0" stop-color="#7c3b18"/>
      <stop offset="1.0" stop-color="#f5df27"/>
    </radialGradient>
    <radialGradient cx="0" cy="0" gradientTransform="matrix(0.0064, 5.0E-4, -0.0014, 0.0197, -2.55, -14.7)" gradientUnits="userSpaceOnUse" id="gradient2" r="819.2" spreadMethod="pad">
      <stop offset="0.0" stop-color="#1f1f1f"/>
      <stop offset="1.0" stop-color="#636c6a"/>
    </radialGradient>
    <radialGradient cx="0" cy="0" gradientTransform="matrix(0.0043, 6.0E-4, -0.0033, 0.0236, 0.8, -15.45)" gradientUnits="userSpaceOnUse" id="gradient3" r="819.2" spreadMethod="pad">
      <stop offset="0.0" stop-color="#7c3b18"/>
      <stop offset="1.0" stop-color="#f5df27"/>
    </radialGradient>
    <radialGradient cx="0" cy="0" gradientTransform="matrix(0.0046, 0.0013, -0.0074, 0.0269, 5.35, -4.3)" gradientUnits="userSpaceOnUse" id="gradient4" r="819.2" spreadMethod="pad">
      <stop offset="0.0" stop-color="#7c3b18"/>
      <stop offset="1.0" stop-color="#f5df27"/>
    </radialGradient>
    <radialGradient cx="0" cy="0" gradientTransform="matrix(0.0058, 0.0014, -0.0063, 0.0266, -0.9, -9.1)" gradientUnits="userSpaceOnUse" id="gradient5" r="819.2" spreadMethod="pad">
      <stop offset="0.0" stop-color="#363a43"/>
      <stop offset="1.0" stop-color="#dbdce1"/>
    </radialGradient>
    <radialGradient cx="0" cy="0" gradientTransform="matrix(0.0011, -2.0E-4, 2.0E-4, 0.0013, -8.85, -10.6)" gradientUnits="userSpaceOnUse" id="gradient6" r="819.2" spreadMethod="pad">
      <stop offset="0.0" stop-color="#126d6d"/>
      <stop offset="1.0" stop-color="#24d9d9"/>
    </radialGradient>
  </defs>
</svg>
