<?xml version="1.0" encoding="UTF-8" standalone="no"?>
<svg xmlns:ffdec="https://www.free-decompiler.com/flash" xmlns:xlink="http://www.w3.org/1999/xlink" ffdec:objectType="shape" height="20.45px" width="14.0px" xmlns="http://www.w3.org/2000/svg">
  <g transform="matrix(1.0, 0.0, 0.0, 1.0, 6.25, 5.3)">
    <path d="M3.45 -1.8 Q3.3 -3.55 0.85 -4.0 -1.55 -4.3 -2.3 -2.8 -3.25 -0.8 -1.9 2.5 -1.0 4.4 0.0 4.55 1.05 4.7 1.95 3.15 3.6 0.0 3.45 -1.8 M4.45 -1.3 Q5.55 2.35 4.75 11.8 4.05 15.05 1.35 14.6 -1.3 14.25 -2.35 11.8 -2.5 10.15 -3.0 8.35 -4.55 3.45 -4.55 -0.45 L-4.45 -1.45 -3.85 -3.2 Q-2.85 -4.55 -0.6 -4.8 3.25 -5.1 4.45 -1.3" fill="#171717" fill-rule="evenodd" stroke="none"/>
    <path d="M3.45 -1.8 Q3.3 -3.55 0.85 -4.0 -1.55 -4.3 -2.3 -2.8 -3.25 -0.8 -1.9 2.5 -1.0 4.4 0.0 4.55 1.05 4.7 1.95 3.15 3.6 0.0 3.45 -1.8 M4.45 -1.3 Q5.55 2.35 4.75 11.8 4.05 15.05 1.35 14.6 -1.3 14.25 -2.35 11.8 -2.5 10.15 -3.0 8.35 -4.55 3.45 -4.55 -0.45 L-4.45 -1.45 -3.85 -3.2 Q-2.85 -4.55 -0.6 -4.8 3.25 -5.1 4.45 -1.3 Z" fill="none" stroke="#000000" stroke-linecap="butt" stroke-linejoin="miter-clip" stroke-miterlimit="4.0" stroke-width="1.0"/>
    <path d="M3.45 -1.8 Q3.6 0.0 1.95 3.15 1.05 4.7 0.0 4.55 -1.0 4.4 -1.9 2.5 -3.25 -0.8 -2.3 -2.8 -1.55 -4.3 0.85 -4.0 3.3 -3.55 3.45 -1.8" fill="url(#gradient0)" fill-rule="evenodd" stroke="none"/>
    <path d="M3.45 -1.8 Q3.6 0.0 1.95 3.15 1.05 4.7 0.0 4.55 -1.0 4.4 -1.9 2.5 -3.25 -0.8 -2.3 -2.8 -1.55 -4.3 0.85 -4.0 3.3 -3.55 3.45 -1.8 Z" fill="none" stroke="#0a0a0a" stroke-linecap="round" stroke-linejoin="round" stroke-width="1.0"/>
    <path d="M6.65 13.8 L1.8 12.25 -2.85 13.2 Q-5.15 7.35 -5.75 0.6 -3.1 4.95 -1.2 6.05 0.7 7.1 2.7 4.7 4.75 2.4 5.45 -2.05 8.3 3.65 6.65 13.8" fill="url(#gradient1)" fill-rule="evenodd" stroke="none"/>
    <path d="M6.65 13.8 Q8.3 3.65 5.45 -2.05 4.75 2.4 2.7 4.7 0.7 7.1 -1.2 6.05 -3.1 4.95 -5.75 0.6 -5.15 7.35 -2.85 13.2 L1.8 12.25 6.65 13.8 Z" fill="none" stroke="#0a0a0a" stroke-linecap="round" stroke-linejoin="round" stroke-width="1.0"/>
  </g>
  <defs>
    <radialGradient cx="0" cy="0" gradientTransform="matrix(0.0423, 0.0, 0.0, 0.0446, -24.4, 18.9)" gradientUnits="userSpaceOnUse" id="gradient0" r="819.2" spreadMethod="pad">
      <stop offset="0.0" stop-color="#111111"/>
      <stop offset="0.6588235294117647" stop-color="#050505"/>
      <stop offset="1.0" stop-color="#404040"/>
    </radialGradient>
    <radialGradient cx="0" cy="0" gradientTransform="matrix(0.0338, 0.0, 0.0, 0.0356, -18.4, 12.75)" gradientUnits="userSpaceOnUse" id="gradient1" r="819.2" spreadMethod="pad">
      <stop offset="0.0" stop-color="#0a0a0a"/>
      <stop offset="0.6588235294117647" stop-color="#171717"/>
      <stop offset="1.0" stop-color="#303030"/>
    </radialGradient>
  </defs>
</svg>
