<?xml version="1.0" encoding="UTF-8" standalone="no"?>
<svg xmlns:ffdec="https://www.free-decompiler.com/flash" xmlns:xlink="http://www.w3.org/1999/xlink" ffdec:objectType="shape" height="25.85px" width="16.4px" xmlns="http://www.w3.org/2000/svg">
  <g transform="matrix(1.0, 0.0, 0.0, 1.0, 8.65, 6.65)">
    <path d="M-3.65 -6.15 L-0.5 -2.95 1.25 -2.35 3.55 -2.05 4.4 0.0 4.45 0.05 Q5.9 1.25 6.5 3.55 L6.45 3.55 7.25 10.2 Q7.05 14.2 5.45 15.55 L4.85 15.45 3.25 14.9 1.1 13.75 -0.9 10.7 -2.3 5.4 -4.95 3.65 -6.25 2.2 -6.2 0.8 -7.85 0.75 -7.05 -4.35 -3.65 -6.15 M2.6 2.85 L3.35 6.1 1.75 7.55 2.45 12.45 3.85 12.3 3.9 10.25 5.4 9.5 5.2 5.2 4.4 2.45 2.6 2.85" fill="url(#gradient0)" fill-rule="evenodd" stroke="none"/>
    <path d="M-3.65 -6.15 L-0.5 -2.95 1.25 -2.35 3.55 -2.05 4.4 0.0 4.45 0.05 Q5.9 1.25 6.5 3.55 L6.45 3.55 7.25 10.2 Q7.05 14.2 5.45 15.55 L4.85 15.45 3.25 14.9 1.1 13.75 -0.9 10.7 -2.3 5.4 -4.95 3.65 -6.25 2.2 -6.2 0.8 -7.85 0.75 -7.05 -4.35 -3.65 -6.15 M2.6 2.85 L3.35 6.1 1.75 7.55 2.45 12.45 3.85 12.3 3.9 10.25 5.4 9.5 5.2 5.2 4.4 2.45 2.6 2.85 M-3.9 2.85 L-4.75 2.1 -4.7 2.05 Q-5.0 1.5 -4.75 0.9 -4.55 0.35 -3.85 0.15 -3.25 -0.05 -2.65 0.15 L-1.8 0.95 Q-1.55 1.45 -1.75 2.15 L-2.65 2.85 -3.9 2.85 M-0.3 1.15 L0.65 2.0 -0.05 3.85 -1.5 3.95 M-1.8 0.95 L-4.75 2.1" fill="none" stroke="#0d1215" stroke-linecap="round" stroke-linejoin="round" stroke-width="1.0"/>
    <path d="M-4.95 3.65 L-2.3 5.4 -0.9 10.7 0.0 12.85 1.1 13.75 3.25 14.9 4.85 15.45 4.4 17.1 2.0 18.7 -2.95 16.75 -4.05 10.45 -2.6 9.9 -3.15 8.0 -4.45 6.95 -4.85 5.6 -4.95 3.65" fill="#191919" fill-rule="evenodd" stroke="none"/>
    <path d="M4.4 2.45 L5.2 5.2 5.4 9.5 3.9 10.25 3.85 12.3 2.45 12.45 1.75 7.55 3.35 6.1 2.6 2.85 4.4 2.45 M-6.2 0.8 L-6.25 2.2 -4.95 3.65 -4.85 5.6 -4.45 6.95 -3.15 8.0 -2.6 9.9 -4.05 10.45 -6.4 9.15 -8.15 1.75 -6.2 0.8" fill="#44b5ff" fill-rule="evenodd" stroke="none"/>
    <path d="M2.35 -2.2 L1.0 -2.3 -2.2 -3.6 -2.95 -4.85 Q0.55 -4.9 2.35 -2.2" fill="#000000" fill-rule="evenodd" stroke="none"/>
    <path d="M2.35 -2.2 Q0.55 -4.9 -2.95 -4.85" fill="none" stroke="#000000" stroke-linecap="round" stroke-linejoin="round" stroke-width="1.0"/>
    <path d="M-4.85 5.6 L-7.2 5.45 -6.4 9.15 -4.05 10.45 M-7.2 5.45 L-8.15 1.75 -6.2 0.8" fill="none" stroke="#1c5470" stroke-linecap="round" stroke-linejoin="round" stroke-width="1.0"/>
    <path d="M4.4 2.45 L5.2 5.2 5.4 9.5 3.9 10.25 3.85 12.3 2.45 12.45 1.75 7.55 3.35 6.1 2.6 2.85 4.4 2.45 M-4.05 10.45 L-2.6 9.9 -3.15 8.0 -4.45 6.95 -4.85 5.6 -4.95 3.65" fill="none" stroke="#1a242a" stroke-linecap="round" stroke-linejoin="round" stroke-width="1.0"/>
    <path d="M-6.2 0.8 L-6.25 2.2 -4.95 3.65" fill="none" stroke="#27536f" stroke-linecap="round" stroke-linejoin="round" stroke-width="1.0"/>
    <path d="M-6.2 0.8 L-6.2 -0.85 -5.1 -2.15 -4.0 -2.2 -2.05 -0.7 -0.2 -0.05 2.55 -0.5 4.4 0.0 M-4.95 3.65 L-2.3 5.4 -0.9 10.7 1.1 13.75 3.25 14.9 4.85 15.45 4.4 17.1 2.0 18.7 -2.95 16.75 -4.05 10.45" fill="none" stroke="#080808" stroke-linecap="round" stroke-linejoin="round" stroke-width="1.0"/>
    <path d="M0.65 2.0 L-0.3 1.15 M-0.05 3.85 L-1.5 3.95" fill="none" stroke="#101619" stroke-linecap="round" stroke-linejoin="round" stroke-width="1.0"/>
    <path d="M-4.75 2.1 L-4.7 2.05 Q-5.0 1.5 -4.75 0.9 -4.55 0.35 -3.85 0.15 -3.25 -0.05 -2.65 0.15 L-1.8 0.95 Q-1.55 1.45 -1.75 2.15 L-2.65 2.85 -3.9 2.85 -4.75 2.1 -1.8 0.95" fill="none" stroke="#101619" stroke-linecap="round" stroke-linejoin="round" stroke-width="1.0"/>
  </g>
  <defs>
    <linearGradient gradientTransform="matrix(0.0062, 1.0E-4, -1.0E-4, 0.0062, 0.9, 4.7)" gradientUnits="userSpaceOnUse" id="gradient0" spreadMethod="pad" x1="-819.2" x2="819.2">
      <stop offset="0.0" stop-color="#1d2b38"/>
      <stop offset="1.0" stop-color="#495d71"/>
    </linearGradient>
  </defs>
</svg>
