<?xml version="1.0" encoding="UTF-8" standalone="no"?>
<svg xmlns:ffdec="https://www.free-decompiler.com/flash" xmlns:xlink="http://www.w3.org/1999/xlink" ffdec:objectType="shape" height="25.9px" width="16.35px" xmlns="http://www.w3.org/2000/svg">
  <g transform="matrix(1.0, 0.0, 0.0, 1.0, 8.6, 6.75)">
    <path d="M-3.5 -6.25 L-0.35 -3.05 1.45 -2.35 3.65 -2.05 4.55 -0.05 4.6 0.05 Q6.05 1.3 6.6 3.55 L6.55 3.6 7.25 10.2 Q7.05 14.3 5.4 15.55 L4.8 15.45 3.2 14.9 1.1 13.7 -0.9 10.65 -2.25 5.3 -4.9 3.55 -6.1 2.15 -6.05 0.65 -7.75 0.6 -6.85 -4.45 -3.5 -6.25 M2.65 2.8 L3.35 6.05 1.75 7.5 2.4 12.4 3.8 12.3 3.9 10.2 5.45 9.55 5.35 5.15 4.5 2.45 2.65 2.8" fill="url(#gradient0)" fill-rule="evenodd" stroke="none"/>
    <path d="M-3.5 -6.25 L-0.35 -3.05 1.45 -2.35 3.65 -2.05 4.55 -0.05 4.6 0.05 Q6.05 1.3 6.6 3.55 L6.55 3.6 7.25 10.2 Q7.05 14.3 5.4 15.55 L4.8 15.45 3.2 14.9 1.1 13.7 -0.9 10.65 -2.25 5.3 -4.9 3.55 -6.1 2.15 -6.05 0.65 -7.75 0.6 -6.85 -4.45 -3.5 -6.25 M2.65 2.8 L3.35 6.05 1.75 7.5 2.4 12.4 3.8 12.3 3.9 10.2 5.45 9.55 5.35 5.15 4.5 2.45 2.65 2.8 M-0.15 1.15 L0.8 2.0 0.05 3.75 -1.45 3.9 M-3.85 2.8 L-4.65 2.0 -4.65 1.95 -4.7 0.8 Q-4.35 0.3 -3.75 0.05 L-2.55 0.1 -1.7 0.9 Q-1.35 1.45 -1.7 2.05 L-2.55 2.75 -3.85 2.8 M-1.7 0.9 L-4.65 2.0" fill="none" stroke="#150d0d" stroke-linecap="round" stroke-linejoin="round" stroke-width="1.0"/>
    <path d="M-0.9 10.65 L0.0 12.8 1.1 13.7 3.2 14.9 4.8 15.45 4.35 17.05 1.95 18.65 -3.0 16.6 -4.05 10.4 -2.6 9.75 -3.1 7.9 -4.4 6.85 -4.85 5.45 -4.9 3.55 -2.25 5.3 -0.9 10.65" fill="#191919" fill-rule="evenodd" stroke="none"/>
    <path d="M4.5 2.45 L5.35 5.15 5.45 9.55 3.9 10.2 3.8 12.3 2.4 12.4 1.75 7.5 3.35 6.05 2.65 2.8 4.5 2.45 M-6.1 2.15 L-4.9 3.55 -4.85 5.45 -4.4 6.85 -3.1 7.9 -2.6 9.75 -4.05 10.4 -6.3 9.0 -8.1 1.65 -6.05 0.65 -6.1 2.15" fill="#ff4444" fill-rule="evenodd" stroke="none"/>
    <path d="M2.45 -2.25 L1.1 -2.35 -2.05 -3.7 -2.8 -4.85 Q0.65 -4.9 2.45 -2.25" fill="#000000" fill-rule="evenodd" stroke="none"/>
    <path d="M2.45 -2.25 Q0.65 -4.9 -2.8 -4.85" fill="none" stroke="#000000" stroke-linecap="round" stroke-linejoin="round" stroke-width="1.0"/>
    <path d="M-4.05 10.4 L-6.3 9.0 -7.2 5.3 -8.1 1.65 -6.05 0.65 M-4.85 5.45 L-7.2 5.3" fill="none" stroke="#701c1c" stroke-linecap="round" stroke-linejoin="round" stroke-width="1.0"/>
    <path d="M4.5 2.45 L5.35 5.15 5.45 9.55 3.9 10.2 3.8 12.3 2.4 12.4 1.75 7.5 3.35 6.05 2.65 2.8 4.5 2.45 M-4.05 10.4 L-2.6 9.75 -3.1 7.9 -4.4 6.85 -4.85 5.45 -4.9 3.55" fill="none" stroke="#2a1a1a" stroke-linecap="round" stroke-linejoin="round" stroke-width="1.0"/>
    <path d="M-6.05 0.65 L-6.1 2.15 -4.9 3.55" fill="none" stroke="#6f2727" stroke-linecap="round" stroke-linejoin="round" stroke-width="1.0"/>
    <path d="M-6.05 0.65 L-6.1 -0.95 -5.0 -2.2 -3.9 -2.3 -1.85 -0.8 -0.1 -0.1 2.65 -0.5 4.55 -0.05 M-4.9 3.55 L-2.25 5.3 -0.9 10.65 1.1 13.7 3.2 14.9 4.8 15.45 4.35 17.05 1.95 18.65 -3.0 16.6 -4.05 10.4" fill="none" stroke="#080808" stroke-linecap="round" stroke-linejoin="round" stroke-width="1.0"/>
    <path d="M0.05 3.75 L-1.45 3.9 M0.8 2.0 L-0.15 1.15" fill="none" stroke="#150d0d" stroke-linecap="round" stroke-linejoin="round" stroke-width="1.0"/>
    <path d="M-2.55 0.1 L-1.7 0.9 Q-1.35 1.45 -1.7 2.05 L-2.55 2.75 -3.85 2.8 -4.65 2.0 -4.65 1.95 -4.7 0.8 Q-4.35 0.3 -3.75 0.05 L-2.55 0.1 M-4.65 2.0 L-1.7 0.9" fill="none" stroke="#150d0d" stroke-linecap="round" stroke-linejoin="round" stroke-width="1.0"/>
  </g>
  <defs>
    <linearGradient gradientTransform="matrix(0.0056, 1.0E-4, -1.0E-4, 0.0056, 2.4, 4.7)" gradientUnits="userSpaceOnUse" id="gradient0" spreadMethod="pad" x1="-819.2" x2="819.2">
      <stop offset="0.0" stop-color="#321e1e"/>
      <stop offset="1.0" stop-color="#6e4747"/>
    </linearGradient>
  </defs>
</svg>
