<?xml version="1.0" encoding="UTF-8" standalone="no"?>
<svg xmlns:ffdec="https://www.free-decompiler.com/flash" xmlns:xlink="http://www.w3.org/1999/xlink" ffdec:objectType="shape" height="23.15px" width="14.85px" xmlns="http://www.w3.org/2000/svg">
  <g transform="matrix(1.0, 0.0, 0.0, 1.0, 1.5, 1.65)">
    <path d="M11.25 14.85 L11.0 15.6 Q10.8 16.2 10.7 17.95 10.65 19.45 10.0 20.25 8.7 20.95 6.05 21.0 L3.6 20.4 2.2 19.4 2.0 17.25 1.9 16.15 1.3 13.9 Q0.5 10.35 0.65 9.7 1.2 7.9 0.4 6.5 L0.25 6.25 Q-0.3 5.35 0.4 4.05 0.5 2.25 1.4 1.6 L2.2 1.1 3.6 0.45 3.7 0.4 3.8 0.35 4.0 0.3 Q5.65 -0.3 7.95 0.3 L8.05 0.3 Q10.4 0.9 10.65 1.6 L10.65 1.95 Q10.65 2.5 11.0 3.25 L11.75 4.95 Q12.25 6.05 12.2 7.25 L11.65 9.45 Q12.15 10.65 12.0 11.75 L11.85 12.5 11.75 12.7 11.6 13.05 11.6 13.1 11.55 13.15 11.35 13.65 11.2 14.05 Q11.4 14.2 11.25 14.85 L11.15 14.3 11.2 14.05 M3.4 7.55 L7.95 7.55 8.2 6.5 8.2 5.35 5.7 5.0 2.6 5.35 2.6 6.5 3.55 11.0 4.1 11.8 5.7 12.1 7.4 11.8 7.95 7.55" fill="none" stroke="#252525" stroke-linecap="round" stroke-linejoin="round" stroke-width="1.0"/>
    <path d="M3.45 15.25 L3.8 15.4 7.0 16.1 Q8.1 16.5 8.75 17.1 L5.0 18.2 4.95 18.2 Q5.6 19.6 7.25 19.25" fill="none" stroke="#252525" stroke-linecap="round" stroke-linejoin="round" stroke-width="0.8"/>
    <path d="M2.75 3.65 L3.85 -0.8 Q5.65 -1.5 6.9 -0.8 L6.2 3.45 Q9.45 3.55 12.85 4.6 L12.85 11.75 Q5.25 13.9 -1.0 11.75 L-1.0 4.5 2.75 3.65 6.2 3.45 2.75 3.65" fill="#434343" fill-rule="evenodd" stroke="none"/>
    <path d="M2.75 3.65 L3.85 -0.8 Q5.65 -1.5 6.9 -0.8 L6.2 3.45 Q9.45 3.55 12.85 4.6 L12.85 11.75 Q5.25 13.9 -1.0 11.75 L-1.0 4.5 2.75 3.65 6.2 3.45" fill="none" stroke="#202020" stroke-linecap="round" stroke-linejoin="round" stroke-width="1.0"/>
    <path d="M11.6 10.75 L9.15 10.75 9.15 9.75 11.6 9.75 11.6 10.75 11.65 9.85 11.65 10.85 11.6 10.85 11.6 10.75 M1.65 10.75 L1.7 10.75 1.65 10.75 -0.7 10.75 -0.7 9.75 1.75 9.75 1.75 10.75 1.7 10.75 1.7 10.85 1.65 10.85 1.65 10.75 M5.05 10.65 L5.1 9.75 5.1 10.75 5.05 10.75 5.05 10.65 2.6 10.65 2.6 9.65 5.05 9.65 5.05 10.65 M8.35 10.6 L5.9 10.6 5.9 9.6 8.35 9.6 8.35 10.6 8.4 9.7 8.4 10.7 8.35 10.7 8.35 10.6" fill="#959595" fill-rule="evenodd" stroke="none"/>
    <path d="M11.6 6.65 L9.2 6.65 9.2 5.45 Q10.4 3.95 11.6 5.45 L11.6 6.65 M8.35 5.3 L8.35 6.5 5.95 6.5 5.95 5.3 Q7.15 3.8 8.35 5.3 M5.05 5.35 L5.05 6.55 2.65 6.55 2.65 5.35 Q3.85 3.85 5.05 5.35 M1.75 6.65 L-0.65 6.65 -0.65 5.45 Q0.55 3.95 1.75 5.45 L1.75 6.65" fill="#989898" fill-rule="evenodd" stroke="none"/>
    <path d="M11.6 9.2 L9.15 9.2 9.15 6.75 11.6 6.75 11.6 9.2 M2.6 9.1 L2.6 6.65 5.05 6.65 5.05 9.1 2.6 9.1 M1.75 9.2 L-0.7 9.2 -0.7 6.75 1.75 6.75 1.75 9.2 M8.35 9.05 L5.9 9.05 5.9 6.6 8.35 6.6 8.35 9.05" fill="#434343" fill-rule="evenodd" stroke="none"/>
    <path d="M11.6 6.65 L9.2 6.65 9.2 5.45 Q10.4 3.95 11.6 5.45 L11.6 6.65 M11.6 10.75 L9.15 10.75 9.15 9.75 11.6 9.75 11.6 10.75 M8.35 5.3 L8.35 6.5 5.95 6.5 5.95 5.3 Q7.15 3.8 8.35 5.3 M5.05 5.35 L5.05 6.55 2.65 6.55 2.65 5.35 Q3.85 3.85 5.05 5.35 M1.7 10.75 L1.65 10.75 -0.7 10.75 -0.7 9.75 1.75 9.75 1.75 10.75 1.7 10.75 M5.05 10.65 L2.6 10.65 2.6 9.65 5.05 9.65 5.05 10.65 M8.35 10.6 L5.9 10.6 5.9 9.6 8.35 9.6 8.35 10.6 M1.75 6.65 L-0.65 6.65 -0.65 5.45 Q0.55 3.95 1.75 5.45 L1.75 6.65" fill="none" stroke="#333333" stroke-linecap="round" stroke-linejoin="round" stroke-width="0.8"/>
    <path d="M11.6 9.2 L9.15 9.2 9.15 6.75 11.6 6.75 11.6 9.2 M2.6 9.1 L2.6 6.65 5.05 6.65 5.05 9.1 2.6 9.1 M1.75 9.2 L-0.7 9.2 -0.7 6.75 1.75 6.75 1.75 9.2 M8.35 9.05 L5.9 9.05 5.9 6.6 8.35 6.6 8.35 9.05 Z" fill="none" stroke="#202020" stroke-linecap="round" stroke-linejoin="round" stroke-width="0.8"/>
  </g>
</svg>
