<?xml version="1.0" encoding="UTF-8" standalone="no"?>
<svg xmlns:ffdec="https://www.free-decompiler.com/flash" xmlns:xlink="http://www.w3.org/1999/xlink" ffdec:objectType="shape" height="22.9px" width="15.8px" xmlns="http://www.w3.org/2000/svg">
  <g transform="matrix(1.0, 0.0, 0.0, 1.0, 8.05, 5.7)">
    <path d="M-3.8 -1.55 L-5.55 -3.1 -3.8 -1.55 M-7.45 2.05 Q-7.15 -0.95 -5.55 -3.1 -3.95 -4.7 -2.45 -5.2 L-1.35 -0.95 Q3.75 6.2 1.35 14.95 L0.0 14.8 Q-2.9 8.15 -5.95 7.6 -7.1 7.05 -7.4 5.65 L-7.45 2.05 Q-5.95 0.55 -2.25 1.85 -5.95 0.55 -7.45 2.05 M-5.7 4.75 L-7.4 5.65 -5.7 4.75 M-5.0 6.05 L-5.95 7.6 -5.0 6.05" fill="#605c82" fill-rule="evenodd" stroke="none"/>
    <path d="M-5.95 7.6 Q-2.9 8.15 0.0 14.8 L1.35 14.95 Q3.75 6.2 -1.35 -0.95 L-2.45 -5.2 Q-3.95 -4.7 -5.55 -3.1 -7.15 -0.95 -7.45 2.05 L-7.4 5.65 Q-7.1 7.05 -5.95 7.6" fill="none" stroke="#3c383f" stroke-linecap="round" stroke-linejoin="round" stroke-width="1.0"/>
    <path d="M-5.55 -3.1 L-3.8 -1.55 M-7.4 5.65 L-5.7 4.75 M-5.95 7.6 L-5.0 6.05" fill="none" stroke="#ff0000" stroke-linecap="round" stroke-linejoin="round" stroke-opacity="0.0" stroke-width="1.0"/>
    <path d="M-7.45 2.05 Q-5.95 0.55 -2.25 1.85" fill="none" stroke="#474460" stroke-linecap="round" stroke-linejoin="round" stroke-width="1.0"/>
    <path d="M4.9 9.75 L1.4 9.15 4.9 9.75 4.5 10.95 4.4 11.8 1.5 13.0 4.4 11.8 Q3.8 15.6 1.1 16.7 L1.5 13.0 1.4 9.15 1.2 8.0 0.65 5.5 5.55 4.15 0.65 5.5 -0.75 1.75 -1.0 0.55 Q-1.55 -1.75 -2.7 -3.7 L1.25 -1.9 Q3.0 -0.95 4.0 0.35 5.3 1.95 5.55 4.15 5.85 6.55 4.9 9.75 M-1.0 0.55 L4.0 0.35 -1.0 0.55" fill="url(#gradient0)" fill-rule="evenodd" stroke="none"/>
    <path d="M1.25 -1.9 L2.5 -4.2 M7.25 11.75 L4.5 10.95 M-2.3 2.0 L-0.75 1.75 M-0.7 8.6 L1.2 8.0" fill="none" stroke="#ff0000" stroke-linecap="round" stroke-linejoin="round" stroke-opacity="0.0" stroke-width="1.0"/>
    <path d="M1.4 9.15 L4.9 9.75 M5.55 4.15 L0.65 5.5 M1.5 13.0 L4.4 11.8 M4.0 0.35 L-1.0 0.55" fill="none" stroke="#38504a" stroke-linecap="round" stroke-linejoin="round" stroke-opacity="0.5019608" stroke-width="1.0"/>
    <path d="M4.9 9.75 Q5.85 6.55 5.55 4.15 5.3 1.95 4.0 0.35 3.0 -0.95 1.25 -1.9 L-2.7 -3.7 Q-1.55 -1.75 -1.0 0.55 L-0.75 1.75 0.65 5.5 1.2 8.0 1.4 9.15 1.5 13.0 1.1 16.7 Q3.8 15.6 4.4 11.8 L4.5 10.95 4.9 9.75 Z" fill="none" stroke="#38504a" stroke-linecap="round" stroke-linejoin="round" stroke-width="1.0"/>
  </g>
  <defs>
    <radialGradient cx="0" cy="0" gradientTransform="matrix(0.0045, -2.0E-4, 5.0E-4, 0.0116, 1.05, 6.55)" gradientUnits="userSpaceOnUse" id="gradient0" r="819.2" spreadMethod="pad">
      <stop offset="0.0" stop-color="#436870"/>
      <stop offset="0.22745098039215686" stop-color="#456d74"/>
      <stop offset="0.5176470588235295" stop-color="#5eaeab"/>
      <stop offset="0.7411764705882353" stop-color="#6eb5b5"/>
      <stop offset="0.8470588235294118" stop-color="#c6e0f1"/>
      <stop offset="1.0" stop-color="#d4e7fb"/>
    </radialGradient>
  </defs>
</svg>
