<?xml version="1.0" encoding="UTF-8" standalone="no"?>
<svg xmlns:ffdec="https://www.free-decompiler.com/flash" xmlns:xlink="http://www.w3.org/1999/xlink" ffdec:objectType="shape" height="24.0px" width="17.25px" xmlns="http://www.w3.org/2000/svg">
  <g transform="matrix(1.0, 0.0, 0.0, 1.0, 9.75, 6.75)">
    <path d="M-5.85 -2.8 L-5.45 -2.85 Q-3.65 -5.4 -0.5 -5.05 L2.0 -4.3 3.8 -3.1 Q4.0 -2.8 3.8 -1.9 3.55 -1.2 3.95 -1.35 4.55 0.0 4.45 3.45 L4.2 11.3 3.95 13.5 2.75 14.85 Q1.3 15.85 -1.2 15.4 -3.55 15.0 -4.15 13.8 L-4.45 11.15 Q-4.65 9.25 -4.9 8.7 -5.75 6.8 -6.0 4.3 L-6.35 0.1 -6.35 -0.9 -5.9 -2.65 -5.85 -2.8 Q-6.35 -2.75 -6.0 -3.0 -5.45 -3.5 -5.85 -2.8" fill="#282828" fill-rule="evenodd" stroke="none"/>
    <path d="M3.0 3.6 Q1.95 1.45 2.95 3.65 4.0 6.0 3.0 3.6" fill="none" stroke="#171717" stroke-linecap="butt" stroke-linejoin="miter-clip" stroke-miterlimit="15.12109375" stroke-width="1.0"/>
    <path d="M-5.85 -2.8 L-5.45 -2.85 Q-3.65 -5.4 -0.5 -5.05 L2.0 -4.3 3.8 -3.1 Q4.0 -2.8 3.8 -1.9 3.55 -1.2 3.95 -1.35 4.55 0.0 4.45 3.45 L4.2 11.3 3.95 13.5 2.75 14.85 Q1.3 15.85 -1.2 15.4 -3.55 15.0 -4.15 13.8 L-4.45 11.15 Q-4.65 9.25 -4.9 8.7 -5.75 6.8 -6.0 4.3 L-6.35 0.1 -6.35 -0.9 -5.9 -2.65 -5.85 -2.8 Q-6.35 -2.75 -6.0 -3.0 -5.45 -3.5 -5.85 -2.8" fill="none" stroke="#171717" stroke-linecap="round" stroke-linejoin="miter-clip" stroke-miterlimit="15.12109375" stroke-width="1.0"/>
    <path d="M2.45 4.75 Q-0.55 6.35 -4.3 7.9 -5.75 8.55 -6.45 6.85 -7.0 5.7 -7.1 3.65 -7.05 3.5 -5.15 2.65 L-3.2 1.8 -5.1 2.6 -7.1 3.45 Q-6.7 3.15 -6.8 2.2 -6.9 1.0 -6.5 0.1 L-5.25 -1.35 -3.65 -2.85 Q-2.35 0.25 -2.15 -1.0 -2.05 -1.5 0.45 -1.8 3.05 -2.2 5.05 -1.85 6.0 -1.65 6.25 -0.45 L6.55 1.05 Q7.15 2.2 2.45 4.75" fill="#5c5753" fill-rule="evenodd" stroke="none"/>
    <path d="M2.45 4.75 Q-0.55 6.35 -4.3 7.9 -5.75 8.55 -6.45 6.85 -7.0 5.7 -7.1 3.65 -7.05 3.5 -5.15 2.65 L-3.2 1.8 -5.1 2.6 -7.1 3.45 Q-6.7 3.15 -6.8 2.2 -6.9 1.0 -6.5 0.1 L-5.25 -1.35 -3.65 -2.85 Q-2.35 0.25 -2.15 -1.0 -2.05 -1.5 0.45 -1.8 3.05 -2.2 5.05 -1.85 6.0 -1.65 6.25 -0.45 L6.55 1.05 Q7.15 2.2 2.45 4.75 Z" fill="none" stroke="#413d3b" stroke-linecap="round" stroke-linejoin="round" stroke-width="1.0"/>
    <path d="M2.85 5.25 L5.6 3.45 6.9 5.6 7.0 7.9 5.7 13.0 4.35 15.55 1.9 13.7 0.0 11.25 -5.0 10.4 -5.25 9.0 1.55 8.55 2.75 7.05 2.85 5.25" fill="#5c5753" fill-rule="evenodd" stroke="none"/>
    <path d="M2.85 5.25 L5.6 3.45 6.9 5.6 7.0 7.9 5.7 13.0 4.35 15.55 1.9 13.7 0.0 11.25 -5.0 10.4 -5.25 9.0 1.55 8.55 2.75 7.05 2.85 5.25 Z" fill="none" stroke="#413d3b" stroke-linecap="round" stroke-linejoin="round" stroke-width="1.0"/>
    <path d="M-1.7 -1.05 L-1.65 5.05 -3.25 6.95 -6.1 6.9 -8.3 5.1 -7.75 -2.15 -6.15 -3.15 -1.85 -2.5 -1.7 -1.05" fill="#7b756f" fill-rule="evenodd" stroke="none"/>
    <path d="M-1.7 -1.05 L-1.85 -2.5 -6.15 -3.15 -7.75 -2.15 -8.3 5.1 -6.1 6.9 -3.25 6.95 -1.65 5.05 -1.7 -1.05 Z" fill="none" stroke="#484440" stroke-linecap="round" stroke-linejoin="round" stroke-width="1.0"/>
    <path d="M-7.75 -2.15 L-5.55 -0.7 -5.7 3.3 -8.25 5.1 -9.15 3.7 -8.9 -0.45 -7.75 -2.15" fill="#7b756f" fill-rule="evenodd" stroke="none"/>
    <path d="M-7.75 -2.15 L-5.55 -0.7 -5.7 3.3 -8.25 5.1 -9.15 3.7 -8.9 -0.45 -7.75 -2.15 Z" fill="none" stroke="#5b5958" stroke-linecap="round" stroke-linejoin="round" stroke-width="1.0"/>
    <path d="M6.0 10.85 L6.35 11.9 5.6 15.05 4.75 16.05 2.7 14.2 3.75 11.4 6.0 10.85" fill="#5c5753" fill-rule="evenodd" stroke="none"/>
    <path d="M6.0 10.85 L6.35 11.9 5.6 15.05 4.75 16.05 2.7 14.2 3.75 11.4 6.0 10.85 Z" fill="none" stroke="#3d3b3a" stroke-linecap="round" stroke-linejoin="round" stroke-width="1.0"/>
    <path d="M-2.05 1.2 Q4.1 -1.0 4.35 -1.3 5.7 -2.5 5.95 -1.55 L6.6 1.6 6.05 2.35 Q5.45 3.0 5.5 3.2 L6.1 4.2 Q6.7 5.05 6.7 5.5 L6.95 8.6 6.15 10.9 6.25 11.35 6.25 12.05 6.1 13.0 5.75 14.5 Q5.35 15.1 3.35 15.25 L-0.2 15.05 -2.1 14.9 Q-3.25 14.85 -4.05 14.2 -4.35 13.95 -4.25 13.05 -4.1 12.2 -4.45 11.75 L-4.9 10.6 -5.15 9.6 -5.35 8.0 Q-5.55 7.3 -6.35 6.55 L-7.1 6.3 -7.85 5.95 -8.75 4.45 -9.25 3.4 Q-9.25 0.4 -8.8 -0.65 -8.1 -2.1 -7.3 -2.65 L-4.7 -3.85" fill="none" stroke="#000000" stroke-linecap="round" stroke-linejoin="round" stroke-opacity="0.2" stroke-width="1.0"/>
  </g>
</svg>
