<?xml version="1.0" encoding="UTF-8" standalone="no"?>
<svg xmlns:ffdec="https://www.free-decompiler.com/flash" xmlns:xlink="http://www.w3.org/1999/xlink" ffdec:objectType="shape" height="28.1px" width="18.05px" xmlns="http://www.w3.org/2000/svg">
  <g transform="matrix(1.0, 0.0, 0.0, 1.0, 9.45, 8.5)">
    <path d="M1.15 -3.2 Q2.65 -2.5 3.35 -1.15 3.1 -1.05 3.75 3.0 4.35 7.2 3.95 7.65 3.4 8.3 2.95 10.4 2.5 12.6 2.1 13.1 L0.6 13.25 -1.1 12.7 -3.35 9.3 Q-5.25 6.25 -5.4 6.3 -7.0 0.95 -5.0 -1.9 -4.15 -3.3 -1.95 -3.7 -0.35 -3.95 1.15 -3.2 M-3.4 14.4 Q0.85 12.15 2.35 14.85 1.5 16.15 -0.25 16.0 -2.25 15.8 -3.4 14.4" fill="#272727" fill-rule="evenodd" stroke="none"/>
    <path d="M1.15 -3.2 Q2.65 -2.5 3.35 -1.15 3.1 -1.05 3.75 3.0 4.35 7.2 3.95 7.65 3.4 8.3 2.95 10.4 2.5 12.6 2.1 13.1 L0.6 13.25 -1.1 12.7 -3.35 9.3 Q-5.25 6.25 -5.4 6.3 -7.0 0.95 -5.0 -1.9 -4.15 -3.3 -1.95 -3.7 -0.35 -3.95 1.15 -3.2 M-3.4 14.4 Q0.85 12.15 2.35 14.85 1.5 16.15 -0.25 16.0 -2.25 15.8 -3.4 14.4 Z" fill="none" stroke="#1f1d1b" stroke-linecap="butt" stroke-linejoin="miter-clip" stroke-miterlimit="15.12109375" stroke-width="1.0"/>
    <path d="M-0.15 15.45 Q0.15 14.55 -0.8 13.25 -1.65 12.0 -1.05 11.15 L0.8 9.85 Q1.6 8.65 3.25 7.9 L4.65 7.55 Q6.1 7.55 6.3 9.15 L5.75 11.85 5.05 14.3 Q4.8 15.15 4.15 15.3 L2.65 15.65 1.45 15.8 -0.15 15.45" fill="url(#gradient0)" fill-rule="evenodd" stroke="none"/>
    <path d="M-0.15 15.45 Q0.15 14.55 -0.8 13.25 -1.65 12.0 -1.05 11.15 L0.8 9.85 Q1.6 8.65 3.25 7.9 L4.65 7.55 Q6.1 7.55 6.3 9.15 L5.75 11.85 5.05 14.3 Q4.8 15.15 4.15 15.3 L2.65 15.65 1.45 15.8 -0.15 15.45 Z" fill="none" stroke="#181819" stroke-linecap="butt" stroke-linejoin="miter-clip" stroke-miterlimit="15.12109375" stroke-width="1.0"/>
    <path d="M1.95 8.3 Q1.1 4.15 -3.75 2.7 -4.4 2.5 -5.0 1.5 L-5.9 -0.2 -5.5 -1.2 Q-5.35 -1.7 -5.0 -1.6 L-3.25 -0.6 -1.8 0.3 Q-1.05 0.5 0.85 -0.3 2.65 -1.05 3.85 -1.9 5.8 -1.05 6.55 1.4 7.25 3.8 6.6 7.0 L6.45 7.85 Q6.3 9.85 5.75 10.05 L5.25 9.8 Q5.1 9.15 3.95 8.7 L1.95 8.3" fill="url(#gradient1)" fill-rule="evenodd" stroke="none"/>
    <path d="M1.95 8.3 Q1.1 4.15 -3.75 2.7 -4.4 2.5 -5.0 1.5 L-5.9 -0.2 -5.5 -1.2 Q-5.35 -1.7 -5.0 -1.6 L-3.25 -0.6 -1.8 0.3 Q-1.05 0.5 0.85 -0.3 2.65 -1.05 3.85 -1.9 5.8 -1.05 6.55 1.4 7.25 3.8 6.6 7.0 L6.45 7.85 Q6.3 9.85 5.75 10.05 L5.25 9.8 Q5.1 9.15 3.95 8.7 L1.95 8.3 Z" fill="none" stroke="#1b1616" stroke-linecap="butt" stroke-linejoin="miter-clip" stroke-miterlimit="15.12109375" stroke-width="1.0"/>
    <path d="M5.95 7.45 L5.55 7.35 Q5.5 5.65 4.75 5.15 L3.75 4.7 3.4 4.7 2.3 2.85 Q2.9 1.75 2.8 1.15 L2.75 -0.25 Q2.65 -0.9 2.85 -1.2 L3.5 -1.8" fill="none" stroke="#1b1616" stroke-linecap="round" stroke-linejoin="round" stroke-width="1.0"/>
    <path d="M-3.65 3.55 L-3.25 3.5 Q-1.9 4.0 -1.35 4.65 0.75 6.0 1.35 8.6 1.7 8.95 2.75 9.05 3.9 9.2 4.5 9.7 L4.85 10.3 5.25 10.7 6.0 10.55 6.3 10.15 6.5 8.85 6.15 8.35 5.75 8.2 5.25 7.85 Q5.15 6.65 4.75 6.25 4.35 5.7 3.2 5.35 L1.8 3.4 2.25 1.25 2.15 -0.15 2.75 -0.75" fill="none" stroke="#191919" stroke-linecap="round" stroke-linejoin="round" stroke-opacity="0.45490196" stroke-width="1.0"/>
    <path d="M1.1 9.5 Q-0.65 10.9 -0.55 12.4 -0.5 13.4 0.3 14.05 L-0.4 15.8 -4.6 15.0 Q-4.2 14.6 -4.8 12.05 L-5.6 9.35 -6.45 7.8 Q-7.25 6.5 -7.35 5.6 L-7.45 3.65 Q-7.25 2.45 -6.85 1.9 L-6.15 1.25 -4.15 3.3 Q-3.45 5.95 -2.3 7.25 -1.4 8.2 1.1 9.5" fill="url(#gradient2)" fill-rule="evenodd" stroke="none"/>
    <path d="M1.1 9.5 Q-0.65 10.9 -0.55 12.4 -0.5 13.4 0.3 14.05 L-0.4 15.8 -4.6 15.0 Q-4.2 14.6 -4.8 12.05 L-5.6 9.35 -6.45 7.8 Q-7.25 6.5 -7.35 5.6 L-7.45 3.65 Q-7.25 2.45 -6.85 1.9 L-6.15 1.25 -4.15 3.3 Q-3.45 5.95 -2.3 7.25 -1.4 8.2 1.1 9.5 Z" fill="none" stroke="#181819" stroke-linecap="butt" stroke-linejoin="miter-clip" stroke-miterlimit="15.12109375" stroke-width="1.0"/>
    <path d="M4.8 14.95 Q6.4 10.15 6.75 5.6 6.95 2.9 6.6 1.45 6.35 0.4 5.4 -0.95 L4.05 -1.95 3.5 -1.95 2.25 -1.15" fill="none" stroke="#000000" stroke-linecap="round" stroke-linejoin="round" stroke-opacity="0.25490198" stroke-width="1.0"/>
    <path d="M-6.45 0.85 Q-7.0 1.2 -7.15 1.75 L-7.4 2.85 -7.55 3.8 Q-7.6 4.7 -7.2 4.95 L-6.4 5.7 -6.0 6.05 -5.5 6.1 Q-4.85 5.85 -4.35 4.85 L-3.95 4.1 Q-4.4 5.9 -5.45 6.1 L-5.5 6.1 M-6.0 6.05 L-6.8 5.6 -7.4 5.0 -7.2 6.75 -6.45 8.0 -5.45 9.7 -4.75 12.8 -4.6 14.4 -4.85 15.25" fill="none" stroke="#000000" stroke-linecap="round" stroke-linejoin="round" stroke-opacity="0.25490198" stroke-width="1.0"/>
  </g>
  <defs>
    <radialGradient cx="0" cy="0" gradientTransform="matrix(0.0041, 0.0, 0.0, 0.0193, 2.35, 12.2)" gradientUnits="userSpaceOnUse" id="gradient0" r="819.2" spreadMethod="pad">
      <stop offset="0.0" stop-color="#28282a"/>
      <stop offset="1.0" stop-color="#545459"/>
    </radialGradient>
    <radialGradient cx="0" cy="0" gradientTransform="matrix(-0.0062, 1.0E-4, -1.0E-4, -0.0294, 2.9, 2.65)" gradientUnits="userSpaceOnUse" id="gradient1" r="819.2" spreadMethod="pad">
      <stop offset="0.0" stop-color="#251d1d"/>
      <stop offset="1.0" stop-color="#493f3f"/>
    </radialGradient>
    <radialGradient cx="0" cy="0" gradientTransform="matrix(0.004, -9.0E-4, 0.0046, 0.0268, -2.7, 10.35)" gradientUnits="userSpaceOnUse" id="gradient2" r="819.2" spreadMethod="pad">
      <stop offset="0.0" stop-color="#28282a"/>
      <stop offset="1.0" stop-color="#545459"/>
    </radialGradient>
  </defs>
</svg>
