<?xml version="1.0" encoding="UTF-8" standalone="no"?>
<svg xmlns:ffdec="https://www.free-decompiler.com/flash" xmlns:xlink="http://www.w3.org/1999/xlink" ffdec:objectType="shape" height="22.55px" width="14.1px" xmlns="http://www.w3.org/2000/svg">
  <g transform="matrix(1.0, 0.0, 0.0, 1.0, 8.25, 6.65)">
    <path d="M-2.5 13.95 L-3.65 11.3 -4.9 7.95 Q-5.15 7.3 -5.2 4.6 -5.3 1.85 -6.45 1.1 -7.65 0.35 -6.75 -2.85 L-4.8 -5.15 -2.25 -6.15 0.8 -5.6 3.5 -3.8 Q4.1 -2.3 4.0 -1.25 L3.65 0.85 Q4.2 1.75 4.35 4.55 L4.75 5.95 5.0 8.75 4.9 12.35 Q4.7 14.2 4.0 14.45 L0.2 14.65 -2.5 13.95" fill="#2f313a" fill-rule="evenodd" stroke="none"/>
    <path d="M-4.4 7.4 Q-6.15 4.0 -7.05 1.1 -7.95 -1.85 -5.8 -4.2 -4.0 -6.15 -1.2 -6.2 2.95 -5.1 4.1 -2.85 5.25 -0.65 4.65 3.35 4.45 6.75 4.8 9.35 L5.2 11.8 Q5.4 12.85 5.1 13.5 4.65 14.2 3.25 14.6 L0.85 15.45 -1.3 14.45 Q-1.85 14.15 -2.35 13.1 L-4.4 7.4 Z" fill="none" stroke="#2a2b35" stroke-linecap="round" stroke-linejoin="round" stroke-width="0.9"/>
    <path d="M-7.35 0.6 L-6.15 -0.9 -5.8 -0.05 Q-5.3 1.1 -4.55 1.7 -2.15 3.5 1.2 -1.15 L3.2 -2.3 4.75 -2.1 5.15 0.05 5.05 1.9 Q4.65 2.7 3.3 3.5 L0.55 5.25 -0.15 6.0 -0.2 6.65 -0.3 9.1 Q-0.55 9.75 -1.95 9.9 L-2.95 9.95 Q-3.4 9.95 -3.95 9.4 -3.95 8.55 -5.25 6.8 L-6.9 4.35 Q-8.3 2.65 -7.35 0.6" fill="url(#gradient0)" fill-rule="evenodd" stroke="none"/>
    <path d="M-7.35 0.6 Q-8.3 2.65 -6.9 4.35 L-5.25 6.8 Q-3.95 8.55 -3.95 9.4 -3.4 9.95 -2.95 9.95 L-1.95 9.9 Q-0.55 9.75 -0.3 9.1 L-0.2 6.65 -0.15 6.0 0.55 5.25 3.3 3.5 Q4.65 2.7 5.05 1.9 L5.15 0.05 4.75 -2.1 3.2 -2.3 1.2 -1.15 Q-2.15 3.5 -4.55 1.7 -5.3 1.1 -5.8 -0.05 L-6.15 -0.9 -7.35 0.6 Z" fill="none" stroke="#533f22" stroke-linecap="butt" stroke-linejoin="miter-clip" stroke-miterlimit="11.33984375" stroke-width="0.9"/>
    <path d="M4.85 -2.15 L5.15 -0.95 Q5.35 0.5 5.15 1.85 4.35 5.2 4.7 8.15 4.85 9.8 5.35 11.9 5.55 13.1 5.2 13.65 4.7 14.45 3.0 15.1 L1.4 14.95 -0.55 14.9 Q-1.5 14.6 -2.15 13.0 L-3.45 10.2 Q-3.4 9.75 -3.7 9.25 L-4.15 8.4 -5.85 6.0 Q-7.15 4.3 -7.75 2.0 L-7.75 1.6 -7.7 1.2 -7.1 0.15 Q-6.95 0.0 -7.05 -0.75 L-6.5 -1.3 -5.95 -1.6" fill="none" stroke="#010100" stroke-linecap="round" stroke-linejoin="round" stroke-opacity="0.3647059" stroke-width="0.9"/>
  </g>
  <defs>
    <radialGradient cx="0" cy="0" gradientTransform="matrix(-0.0307, 0.0073, 0.0111, 0.034, -14.3, 9.65)" gradientUnits="userSpaceOnUse" id="gradient0" r="819.2" spreadMethod="pad">
      <stop offset="0.0" stop-color="#7c3b18"/>
      <stop offset="1.0" stop-color="#ccaa22"/>
    </radialGradient>
  </defs>
</svg>
