<?xml version="1.0" encoding="UTF-8" standalone="no"?>
<svg xmlns:xlink="http://www.w3.org/1999/xlink" height="33.5px" width="106.9px" xmlns="http://www.w3.org/2000/svg">
  <g transform="matrix(1.0, 0.0, 0.0, 1.0, 63.95, 17.45)">
    <path d="M38.05 -12.55 Q42.95 -7.65 42.95 -0.7 42.95 6.25 38.05 11.15 33.15 16.05 26.2 16.05 19.25 16.05 14.35 11.15 9.45 6.25 9.45 -0.7 9.45 -7.65 14.35 -12.55 19.25 -17.45 26.2 -17.45 33.15 -17.45 38.05 -12.55" fill="url(#gradient0)" fill-rule="evenodd" stroke="none"/>
    <path d="M-59.05 -12.55 Q-54.15 -17.45 -47.2 -17.45 -40.25 -17.45 -35.35 -12.55 -30.45 -7.65 -30.45 -0.7 -30.45 6.25 -35.35 11.15 -40.25 16.05 -47.2 16.05 -54.15 16.05 -59.05 11.15 -63.95 6.25 -63.95 -0.7 -63.95 -7.65 -59.05 -12.55" fill="url(#gradient1)" fill-rule="evenodd" stroke="none"/>
  </g>
  <defs>
    <radialGradient cx="0" cy="0" gradientTransform="matrix(0.0211, 0.0, 0.0, 0.0211, 26.2, -0.7)" gradientUnits="userSpaceOnUse" id="gradient0" r="819.2" spreadMethod="pad">
      <stop offset="0.44313725490196076" stop-color="#ffffff"/>
      <stop offset="1.0" stop-color="#fee595" stop-opacity="0.0"/>
    </radialGradient>
    <radialGradient cx="0" cy="0" gradientTransform="matrix(0.0211, 0.0, 0.0, 0.0211, -47.2, -0.7)" gradientUnits="userSpaceOnUse" id="gradient1" r="819.2" spreadMethod="pad">
      <stop offset="0.44313725490196076" stop-color="#ffffff"/>
      <stop offset="1.0" stop-color="#fee595" stop-opacity="0.0"/>
    </radialGradient>
  </defs>
</svg>
