<?xml version="1.0" encoding="UTF-8" standalone="no"?>
<svg xmlns:ffdec="https://www.free-decompiler.com/flash" xmlns:xlink="http://www.w3.org/1999/xlink" ffdec:objectType="shape" height="24.55px" width="17.75px" xmlns="http://www.w3.org/2000/svg">
  <g transform="matrix(1.0, 0.0, 0.0, 1.0, 10.2, 7.85)">
    <path d="M-6.65 6.45 L-6.95 6.55 -7.2 6.4 -7.3 5.7 -7.3 4.95 -6.85 4.45 -6.5 4.05 -5.6 4.05 -5.5 4.05 -5.0 4.6 Q-4.7 4.8 -5.0 5.0 L-6.65 6.45 M-6.7 7.15 Q-6.9 6.95 -6.7 6.65 L-5.1 5.4 Q-4.75 5.05 -4.6 5.1 L-4.5 5.15 -3.15 6.45 Q-2.85 6.65 -3.15 6.9 L-3.8 7.35 -4.7 8.55 -5.2 8.6 -5.7 8.5 -6.7 7.15" fill="url(#gradient0)" fill-rule="evenodd" stroke="none"/>
    <path d="M-7.3 6.55 L-7.4 4.95 -6.5 3.9 -4.25 3.6 -2.0 4.95 -2.2 7.4 -4.6 8.8 -5.75 8.55 -7.3 6.6 -7.3 6.55 -6.75 6.65 -4.75 4.95" fill="none" stroke="#6d1919" stroke-linecap="round" stroke-linejoin="round" stroke-width="1.0"/>
    <path d="M1.5 6.55 L2.55 6.6 5.75 8.25 6.25 9.8 4.35 15.45 3.65 16.0 -0.55 15.9 -2.65 13.6 -3.7 10.1 -0.35 8.85 1.5 6.55" fill="#2f2f2f" fill-rule="evenodd" stroke="none"/>
    <path d="M1.5 6.55 L-0.35 8.85 -3.7 10.1 -2.3 13.9 -0.55 15.75 1.35 16.2 3.45 15.8 4.2 15.25 Q5.8 12.9 6.25 9.8 L5.75 8.25 2.55 6.6 1.5 6.55 Z" fill="none" stroke="#060606" stroke-linecap="round" stroke-linejoin="round" stroke-width="1.0"/>
    <path d="M-4.0 -4.4 Q-4.6 -4.9 -3.5 -5.55 L-0.7 -6.1 Q3.9 -5.9 4.5 -0.15 L-4.0 -4.4" fill="#1b1b1b" fill-rule="evenodd" stroke="none"/>
    <path d="M-3.05 -5.95 L0.25 -6.0 Q3.6 -5.2 4.2 -0.95" fill="none" stroke="#000000" stroke-linecap="round" stroke-linejoin="round" stroke-width="1.0"/>
    <path d="M-6.4 3.85 L-7.75 2.6 -6.95 0.9 -4.75 -1.6 -2.05 -0.25 2.05 3.85 1.8 8.75 -2.4 10.55 -3.95 10.1 -4.8 9.0 -3.75 7.5 -2.6 6.8 -5.4 3.95 -6.4 3.85" fill="#1b1b1b" fill-rule="evenodd" stroke="none"/>
    <path d="M-6.4 3.85 L-5.4 3.95 -2.6 6.8 -3.75 7.5 -4.8 9.0 -3.95 10.1 -2.4 10.55 1.8 8.75 2.05 3.85 -2.05 -0.25 -4.75 -1.6 -6.95 0.9 -7.75 2.6 -6.4 3.85 Z" fill="none" stroke="#010101" stroke-linecap="round" stroke-linejoin="round" stroke-width="1.0"/>
    <path d="M-9.7 -1.65 L-7.35 -5.95 -3.6 -7.35 -2.3 -4.55 1.95 -3.65 7.05 2.1 6.3 4.9 6.3 8.7 5.95 9.55 3.35 9.2 1.2 8.6 -0.55 3.25 -3.45 3.1 -4.25 1.25 -7.65 2.75 -9.15 1.3 -9.7 -1.65" fill="#2f2f2f" fill-rule="evenodd" stroke="none"/>
    <path d="M-7.3 -6.1 L-3.4 -7.55 -2.3 -4.7 2.1 -3.8 6.95 2.1 6.2 5.0 6.5 8.7 6.2 9.4 3.45 9.15 3.05 1.25 1.1 -0.05 -2.35 0.3 -3.2 -1.25 -4.0 -3.35 -5.9 -3.5 -7.3 -6.1" fill="#000000" fill-opacity="0.19607843" fill-rule="evenodd" stroke="none"/>
    <path d="M-4.1 1.2 L-3.2 -1.1 1.45 -2.15 1.85 -3.45" fill="none" stroke="#0c0c0c" stroke-linecap="round" stroke-linejoin="round" stroke-width="1.0"/>
    <path d="M-9.7 -1.65 L-9.15 1.3 -7.65 2.75 -4.25 1.25 -3.45 3.1 -0.55 3.25 1.2 8.6 3.35 9.2 5.95 9.55 6.3 8.7 6.3 4.9 7.05 2.1 1.95 -3.65 -2.3 -4.55 -3.6 -7.35 -7.35 -5.95 -9.7 -1.65 Z" fill="none" stroke="#060606" stroke-linecap="round" stroke-linejoin="round" stroke-width="1.0"/>
    <path d="M-6.95 5.2 L-7.0 5.9" fill="none" stroke="#ffffff" stroke-linecap="round" stroke-linejoin="round" stroke-width="0.75"/>
    <path d="M3.5 8.95 L5.6 9.45 6.45 8.6 4.4 14.55 3.3 15.8 0.7 16.15 -0.65 15.2 -1.35 14.15 2.05 14.5 3.15 12.75 3.5 8.95" fill="#000000" fill-opacity="0.19607843" fill-rule="evenodd" stroke="none"/>
  </g>
  <defs>
    <linearGradient gradientTransform="matrix(-0.0031, -0.0023, 0.0023, -0.0031, -5.45, 6.25)" gradientUnits="userSpaceOnUse" id="gradient0" spreadMethod="pad" x1="-819.2" x2="819.2">
      <stop offset="0.0" stop-color="#4c1010"/>
      <stop offset="1.0" stop-color="#f13f3f"/>
    </linearGradient>
  </defs>
</svg>
