<?xml version="1.0" encoding="UTF-8" standalone="no"?>
<svg xmlns:ffdec="https://www.free-decompiler.com/flash" xmlns:xlink="http://www.w3.org/1999/xlink" ffdec:objectType="shape" height="20.45px" width="11.5px" xmlns="http://www.w3.org/2000/svg">
  <g transform="matrix(1.0, 0.0, 0.0, 1.0, 5.3, 5.5)">
    <path d="M4.35 -3.7 Q5.15 -3.0 5.5 -0.7 5.85 1.35 5.6 2.85 5.2 5.35 5.4 12.2 5.35 13.2 4.35 13.8 L2.15 14.45 -0.35 14.1 Q-1.6 13.65 -2.1 12.75 L-3.45 8.75 Q-4.8 4.35 -4.8 2.45 -4.85 -3.35 -1.7 -4.55 L1.3 -5.0 Q2.95 -4.9 4.35 -3.7" fill="url(#gradient0)" fill-rule="evenodd" stroke="none"/>
    <path d="M4.35 -3.7 Q5.15 -3.0 5.5 -0.7 5.85 1.35 5.6 2.85 5.2 5.35 5.4 12.2 5.35 13.2 4.35 13.8 L2.15 14.45 -0.35 14.1 Q-1.6 13.65 -2.1 12.75 L-3.45 8.75 Q-4.8 4.35 -4.8 2.45 -4.85 -3.35 -1.7 -4.55 L1.3 -5.0 Q2.95 -4.9 4.35 -3.7 Z" fill="none" stroke="#393c47" stroke-linecap="round" stroke-linejoin="round" stroke-width="1.05"/>
    <path d="M-1.75 0.9 L-1.9 -0.9 -1.8 -2.45 1.75 -2.3 1.85 0.1 1.75 0.8" fill="none" stroke="#494d5c" stroke-linecap="round" stroke-linejoin="round" stroke-width="1.05"/>
    <path d="M-2.2 5.2 Q-1.95 7.2 -0.55 8.9 L0.8 10.2" fill="none" stroke="#494d5c" stroke-linecap="round" stroke-linejoin="round" stroke-width="1.05"/>
    <path d="M3.85 2.35 Q3.9 5.2 3.05 6.6 L2.25 7.45" fill="none" stroke="#494d5c" stroke-linecap="round" stroke-linejoin="round" stroke-width="1.05"/>
  </g>
  <defs>
    <linearGradient gradientTransform="matrix(0.0034, -5.0E-4, 5.0E-4, 0.003, -2.3, 4.55)" gradientUnits="userSpaceOnUse" id="gradient0" spreadMethod="pad" x1="-819.2" x2="819.2">
      <stop offset="0.0" stop-color="#4a5159"/>
      <stop offset="1.0" stop-color="#626575"/>
    </linearGradient>
  </defs>
</svg>
