<?xml version="1.0" encoding="UTF-8" standalone="no"?>
<svg xmlns:ffdec="https://www.free-decompiler.com/flash" xmlns:xlink="http://www.w3.org/1999/xlink" ffdec:objectType="shape" height="22.2px" width="14.0px" xmlns="http://www.w3.org/2000/svg">
  <g transform="matrix(1.0, 0.0, 0.0, 1.0, 7.65, 6.25)">
    <path d="M5.2 5.8 L5.8 11.3 3.6 15.4 -1.05 14.8 -5.3 10.9 -6.65 6.65 -5.0 6.05 -4.05 9.0 -0.15 10.7 2.3 5.75 5.2 5.8 M-2.55 -4.6 Q0.75 -4.7 2.7 -2.35 L0.95 -1.85 -2.1 -3.4 -2.55 -4.6" fill="#1b1b1b" fill-rule="evenodd" stroke="none"/>
    <path d="M2.7 -2.35 L3.6 -2.55 Q5.75 0.15 5.85 5.75 L5.2 5.8 2.3 5.75 0.95 -1.85 2.3 5.75 -0.15 10.7 -4.05 9.0 -5.0 6.05 -7.0 -0.2 Q-7.4 -1.15 -6.7 -2.1 L-2.9 -5.75 -2.55 -4.6 -2.1 -3.4 0.95 -1.85 2.7 -2.35" fill="#404040" fill-rule="evenodd" stroke="none"/>
    <path d="M2.7 -2.35 L3.6 -2.55 Q5.75 0.15 5.85 5.75 L5.2 5.8 2.3 5.75 -0.15 10.7 -4.05 9.0 -5.0 6.05 -7.0 -0.2 Q-7.4 -1.15 -6.7 -2.1 L-2.9 -5.75 -2.55 -4.6 -2.1 -3.4 0.95 -1.85 2.7 -2.35" fill="none" stroke="#1f1f1f" stroke-linecap="round" stroke-linejoin="round" stroke-width="1.0"/>
    <path d="M5.2 5.8 L5.8 11.3 3.6 15.4 -1.05 14.8 -5.3 10.9 -6.65 6.65 -5.0 6.05" fill="none" stroke="#000000" stroke-linecap="round" stroke-linejoin="round" stroke-width="1.1"/>
    <path d="M0.95 -1.85 L2.3 5.75" fill="none" stroke="#343434" stroke-linecap="round" stroke-linejoin="round" stroke-width="1.0"/>
    <path d="M-2.55 -4.6 Q0.75 -4.7 2.7 -2.35" fill="none" stroke="#000000" stroke-linecap="round" stroke-linejoin="round" stroke-width="1.0"/>
  </g>
</svg>
