<?xml version="1.0" encoding="UTF-8" standalone="no"?>
<svg xmlns:ffdec="https://www.free-decompiler.com/flash" xmlns:xlink="http://www.w3.org/1999/xlink" ffdec:objectType="shape" height="22.05px" width="13.65px" xmlns="http://www.w3.org/2000/svg">
  <g transform="matrix(1.0, 0.0, 0.0, 1.0, 2.3, 8.2)">
    <path d="M2.85 3.15 L3.6 -0.05 3.6 -2.45 4.2 -3.5 5.2 -4.85 Q5.85 -5.75 9.05 -5.35 11.1 1.4 10.8 6.15 L4.1 5.25 2.85 3.15" fill="#211313" fill-rule="evenodd" stroke="none"/>
    <path d="M1.5 -7.35 L3.0 -5.4 1.5 -7.35 4.8 -7.6 Q7.45 -7.3 9.05 -5.35 5.85 -5.75 5.2 -4.85 L4.2 -3.5 3.6 -2.45 3.6 -0.05 2.85 3.15 -0.65 1.7 Q-1.5 0.4 -1.7 -0.85 -2.0 -2.65 -1.3 -4.5 -0.6 -6.4 0.35 -6.95 L1.5 -7.35 M2.15 -0.55 L1.3 1.15 2.15 -0.55" fill="#141414" fill-rule="evenodd" stroke="none"/>
    <path d="M-0.65 1.7 L2.85 3.15 4.1 5.25 10.8 6.15 Q10.5 12.55 8.1 13.15 6.4 13.75 2.95 12.4 2.55 8.15 2.05 6.8 L1.45 5.1 -0.65 1.7 M8.1 13.15 L6.2 10.55 8.1 13.15 M2.05 6.8 L5.0 6.5 2.05 6.8" fill="#3b2323" fill-rule="evenodd" stroke="none"/>
    <path d="M2.85 3.15 L3.6 -0.05 3.6 -2.45 4.2 -3.5 5.2 -4.85 Q5.85 -5.75 9.05 -5.35 11.1 1.4 10.8 6.15 10.5 12.55 8.1 13.15 6.4 13.75 2.95 12.4 2.55 8.15 2.05 6.8 L1.45 5.1 -0.65 1.7 M2.85 3.15 L4.1 5.25 10.8 6.15" fill="none" stroke="#0e0808" stroke-linecap="round" stroke-linejoin="round" stroke-width="1.0"/>
    <path d="M1.5 -7.35 L0.35 -6.95 Q-0.6 -6.4 -1.3 -4.5 -2.0 -2.65 -1.7 -0.85 -1.5 0.4 -0.65 1.7 L2.85 3.15 M9.05 -5.35 Q7.45 -7.3 4.8 -7.6 L1.5 -7.35" fill="none" stroke="#0a0a0a" stroke-linecap="round" stroke-linejoin="round" stroke-width="1.0"/>
    <path d="M3.0 -5.4 L1.5 -7.35 M5.0 6.5 L2.05 6.8 M6.2 10.55 L8.1 13.15" fill="none" stroke="#0e0808" stroke-linecap="round" stroke-linejoin="round" stroke-opacity="0.0" stroke-width="1.0"/>
    <path d="M1.3 1.15 L2.15 -0.55" fill="none" stroke="#ff094f" stroke-linecap="round" stroke-linejoin="round" stroke-width="1.0"/>
  </g>
</svg>
