<?xml version="1.0" encoding="UTF-8" standalone="no"?>
<svg xmlns:ffdec="https://www.free-decompiler.com/flash" xmlns:xlink="http://www.w3.org/1999/xlink" ffdec:objectType="shape" height="20.0px" width="11.15px" xmlns="http://www.w3.org/2000/svg">
  <g transform="matrix(1.0, 0.0, 0.0, 1.0, 4.95, 4.85)">
    <path d="M5.0 -2.85 Q5.7 -2.1 5.7 -0.3 L5.35 2.7 Q4.95 4.25 4.65 8.6 L4.45 12.6 Q4.15 14.7 1.7 14.65 -0.75 14.6 -1.6 12.6 L-3.1 8.45 Q-4.6 3.9 -4.45 1.95 -4.2 -0.9 -3.55 -2.25 -2.75 -3.9 -0.95 -4.2 0.45 -4.45 2.0 -4.2 4.0 -3.9 5.0 -2.85" fill="url(#gradient0)" fill-rule="evenodd" stroke="none"/>
    <path d="M5.0 -2.85 Q5.7 -2.1 5.7 -0.3 L5.35 2.7 Q4.95 4.25 4.65 8.6 L4.45 12.6 Q4.15 14.7 1.7 14.65 -0.75 14.6 -1.6 12.6 L-3.1 8.45 Q-4.6 3.9 -4.45 1.95 -4.2 -0.9 -3.55 -2.25 -2.75 -3.9 -0.95 -4.2 0.45 -4.45 2.0 -4.2 4.0 -3.9 5.0 -2.85 Z" fill="none" stroke="#393c47" stroke-linecap="round" stroke-linejoin="round" stroke-width="1.05"/>
    <path d="M-1.45 1.85 L-1.5 0.0 -1.3 -1.55 2.25 -1.25 2.2 1.2 2.05 1.9" fill="none" stroke="#494d5c" stroke-linecap="round" stroke-linejoin="round" stroke-width="1.05"/>
    <path d="M-1.8 5.9 Q-1.8 7.95 -0.65 9.8 L0.5 11.25" fill="none" stroke="#494d5c" stroke-linecap="round" stroke-linejoin="round" stroke-width="1.05"/>
    <path d="M3.75 3.65 Q3.45 6.5 2.45 7.85 L1.75 8.45 1.5 8.6" fill="none" stroke="#494d5c" stroke-linecap="round" stroke-linejoin="round" stroke-width="1.05"/>
  </g>
  <defs>
    <linearGradient gradientTransform="matrix(0.0037, 2.0E-4, -2.0E-4, 0.0033, -2.1, 4.95)" gradientUnits="userSpaceOnUse" id="gradient0" spreadMethod="pad" x1="-819.2" x2="819.2">
      <stop offset="0.0" stop-color="#4a5159"/>
      <stop offset="1.0" stop-color="#626575"/>
    </linearGradient>
  </defs>
</svg>
