<?xml version="1.0" encoding="UTF-8" standalone="no"?>
<svg xmlns:ffdec="https://www.free-decompiler.com/flash" xmlns:xlink="http://www.w3.org/1999/xlink" ffdec:objectType="shape" height="20.55px" width="15.05px" xmlns="http://www.w3.org/2000/svg">
  <g transform="matrix(1.0, 0.0, 0.0, 1.0, 7.65, 4.45)">
    <path d="M2.55 -2.45 L4.2 -1.1 5.0 2.1 Q5.75 5.65 5.7 7.5 L5.4 9.65 Q5.7 10.15 5.1 10.15 4.35 10.25 4.3 10.55 L5.0 10.85 5.7 11.45 5.35 11.9 4.9 12.3 Q4.2 14.15 3.3 14.85 2.35 15.55 0.5 15.6 L-2.15 15.4 Q-2.9 15.1 -3.4 14.1 -3.9 13.1 -4.4 12.95 L-4.9 12.65 -4.9 12.05 -4.9 11.45 -5.0 10.6 Q-4.95 10.05 -5.2 9.95 L-6.4 10.3 -6.4 9.9 -6.2 9.3 Q-7.35 3.85 -6.6 -0.55 L-5.5 -1.9 Q-4.0 -3.3 -1.4 -3.55 0.5 -3.75 2.55 -2.45" fill="#22232c" fill-rule="evenodd" stroke="none"/>
    <path d="M2.55 -2.45 Q0.5 -3.75 -1.4 -3.55 -4.0 -3.3 -5.5 -1.9 L-6.6 -0.55 Q-7.35 3.85 -6.2 9.3 L-6.4 9.9 -6.4 10.3 -5.2 9.95 Q-4.95 10.05 -5.0 10.6 L-4.9 11.45 -4.9 12.05 -4.9 12.65 -4.4 12.95 Q-3.9 13.1 -3.4 14.1 -2.9 15.1 -2.15 15.4 L0.5 15.6 Q2.35 15.55 3.3 14.85 4.2 14.15 4.9 12.3 L5.35 11.9 5.7 11.45 5.0 10.85 4.3 10.55 Q4.35 10.25 5.1 10.15 5.7 10.15 5.4 9.65 L5.7 7.5 Q5.75 5.65 5.0 2.1 L4.2 -1.1 2.55 -2.45 Z" fill="none" stroke="#0e0f13" stroke-linecap="round" stroke-linejoin="round" stroke-width="1.05"/>
    <path d="M5.8 6.05 L5.75 8.6 -6.6 8.1 Q-6.95 6.75 -7.1 4.55 L-7.15 2.6 -5.65 2.15 Q-4.1 1.55 -3.55 0.9 -2.85 0.15 -2.25 -2.0 L-1.85 -3.95 0.25 -3.8 0.55 -1.8 Q1.0 0.35 1.75 1.1 2.3 1.75 3.9 2.25 L5.45 2.6 Q5.75 3.3 5.8 6.05" fill="#272f3d" fill-rule="evenodd" stroke="none"/>
    <path d="M5.8 6.05 L5.75 8.6 -6.6 8.1 Q-6.95 6.75 -7.1 4.55 L-7.15 2.6 -5.65 2.15 Q-4.1 1.55 -3.55 0.9 -2.85 0.15 -2.25 -2.0 L-1.85 -3.95 0.25 -3.8 0.55 -1.8 Q1.0 0.35 1.75 1.1 2.3 1.75 3.9 2.25 L5.45 2.6 Q5.75 3.3 5.8 6.05 Z" fill="none" stroke="#080c11" stroke-linecap="round" stroke-linejoin="round" stroke-width="1.05"/>
    <path d="M-2.25 12.4 L-1.1 11.55 Q0.35 10.65 1.9 10.55" fill="none" stroke="#0e0f13" stroke-linecap="round" stroke-linejoin="round" stroke-width="1.05"/>
    <path d="M-3.0 3.75 L1.4 3.55 1.15 10.05 -2.9 9.95 -3.0 3.75" fill="#272f3d" fill-rule="evenodd" stroke="none"/>
    <path d="M-3.0 3.75 L-2.9 9.95 1.15 10.05 1.4 3.55" fill="none" stroke="#080c11" stroke-linecap="round" stroke-linejoin="round" stroke-width="1.05"/>
    <path d="M-3.0 3.75 L1.4 3.55" fill="none" stroke="#181e26" stroke-linecap="round" stroke-linejoin="round" stroke-width="1.05"/>
    <path d="M6.85 6.3 L6.4 8.95 3.05 9.05 Q3.55 6.0 3.3 4.4 4.2 4.15 6.9 4.35 L6.85 6.3" fill="#272f3d" fill-rule="evenodd" stroke="none"/>
    <path d="M6.85 6.3 L6.4 8.95 3.05 9.05 Q3.55 6.0 3.3 4.4 4.2 4.15 6.9 4.35 L6.85 6.3 Z" fill="none" stroke="#080c11" stroke-linecap="round" stroke-linejoin="round" stroke-width="1.05"/>
    <path d="M-5.1 2.4 L-5.05 4.9 -7.05 5.0" fill="none" stroke="#080c11" stroke-linecap="round" stroke-linejoin="round" stroke-width="1.05"/>
    <path d="M-0.8 4.1 L-0.95 6.6" fill="none" stroke="#181e26" stroke-linecap="round" stroke-linejoin="round" stroke-width="1.05"/>
    <path d="M-3.05 0.5 L-1.85 1.25 Q-0.3 1.85 1.35 0.95" fill="none" stroke="#181e26" stroke-linecap="round" stroke-linejoin="round" stroke-width="1.05"/>
  </g>
</svg>
