<?xml version="1.0" encoding="UTF-8" standalone="no"?>
<svg xmlns:ffdec="https://www.free-decompiler.com/flash" xmlns:xlink="http://www.w3.org/1999/xlink" ffdec:objectType="shape" height="23.5px" width="16.55px" xmlns="http://www.w3.org/2000/svg">
  <g transform="matrix(1.0, 0.0, 0.0, 1.0, 4.35, 4.2)">
    <path d="M8.3 15.55 Q5.85 21.95 2.3 15.8 -1.3 9.55 0.75 0.2 4.2 -3.55 8.1 0.85 9.85 8.75 8.3 15.55" fill="#22222c" fill-rule="evenodd" stroke="none"/>
    <path d="M8.3 15.55 Q5.85 21.95 2.3 15.8 -1.3 9.55 0.75 0.2 4.2 -3.55 8.1 0.85 9.85 8.75 8.3 15.55 Z" fill="none" stroke="#0c0d1c" stroke-linecap="round" stroke-linejoin="round" stroke-width="1.0"/>
    <path d="M9.35 4.35 L11.25 8.4 9.35 13.2 7.8 13.2 7.8 5.2 Q8.6 4.8 9.35 4.35" fill="url(#gradient0)" fill-rule="evenodd" stroke="none"/>
    <path d="M-2.35 1.0 L1.0 5.35 0.15 7.0 -2.7 8.25 -3.85 4.25 -2.35 1.0" fill="url(#gradient1)" fill-rule="evenodd" stroke="none"/>
    <path d="M9.35 4.35 L11.25 8.4 9.35 13.2 7.8 13.2 7.8 5.2 Q8.6 4.8 9.35 4.35 M-2.35 1.0 L-3.85 4.25 -2.7 8.25 0.15 7.0 1.0 5.35 -2.35 1.0 Z" fill="none" stroke="#173548" stroke-linecap="round" stroke-linejoin="round" stroke-width="1.0"/>
    <path d="M2.75 3.65 L5.1 1.2 4.65 -0.25 6.15 -3.7 10.25 0.1 9.8 2.55 10.4 3.4 10.05 5.8 8.3 8.4 2.5 7.1 2.3 6.6 2.55 5.1 2.75 3.65 2.55 5.1 0.0 5.9 0.15 9.3 -2.5 9.75 -3.85 8.35 -2.15 7.25 -2.3 6.45 -1.25 4.85 -0.85 2.45 -2.85 0.55 1.3 -0.25 2.75 3.65" fill="#252d31" fill-rule="evenodd" stroke="none"/>
    <path d="M2.55 5.1 L2.3 6.6 2.5 7.1 8.3 8.4 10.05 11.4 10.4 13.85 7.35 17.4 2.85 18.4 1.0 15.75 2.8 13.3 3.6 13.15 1.25 13.6 -2.5 9.75 0.15 9.3 0.0 5.9 2.55 5.1 M2.5 7.1 L4.85 12.85 3.85 13.1 3.6 13.15 3.85 13.1 4.85 12.85 2.5 7.1 M0.55 12.6 L1.25 13.6 1.1 13.3 0.55 12.6" fill="#1d2327" fill-rule="evenodd" stroke="none"/>
    <path d="M8.3 8.4 L10.05 5.8 10.4 3.4 9.8 2.55 10.25 0.1 6.15 -3.7 4.65 -0.25 5.1 1.2 2.75 3.65 2.55 5.1 2.3 6.6 2.5 7.1 4.85 12.85 3.85 13.1 3.6 13.15 1.25 13.6 -2.5 9.75 -3.85 8.35 -2.15 7.25 -2.3 6.45 -1.25 4.85 -0.85 2.45 -2.85 0.55 1.3 -0.25 2.75 3.65 M8.3 8.4 L10.05 11.4 10.4 13.85 7.35 17.4 2.85 18.4 1.0 15.75 2.8 13.3 3.6 13.15 M1.25 13.6 L1.1 13.3 0.55 12.6" fill="none" stroke="#131719" stroke-linecap="round" stroke-linejoin="round" stroke-width="1.0"/>
    <path d="M11.7 4.7 L6.35 1.95 9.2 -0.05 11.7 4.7" fill="#2f3d46" fill-rule="evenodd" stroke="none"/>
    <path d="M11.7 4.7 L9.65 7.55 7.8 7.3 5.9 2.25 6.35 1.95 11.7 4.7 M7.8 9.15 L10.4 12.15 10.9 14.35 10.0 16.2 7.3 14.5 7.8 9.15 M2.3 12.85 L3.5 14.7 0.1 14.65 -2.15 11.2 2.3 12.85" fill="#253038" fill-rule="evenodd" stroke="none"/>
    <path d="M6.35 1.95 L5.9 2.25 7.8 7.3 9.65 7.55 11.7 4.7 9.2 -0.05 6.35 1.95 M7.8 9.15 L10.4 12.15 10.9 14.35 10.0 16.2 7.3 14.5 7.8 9.15 M2.3 12.85 L-2.15 11.2 0.1 14.65 3.5 14.7 2.3 12.85 Z" fill="none" stroke="#1c2327" stroke-linecap="round" stroke-linejoin="round" stroke-width="1.0"/>
  </g>
  <defs>
    <linearGradient gradientTransform="matrix(-0.0081, 0.0011, -5.0E-4, -0.0053, 5.8, 9.25)" gradientUnits="userSpaceOnUse" id="gradient0" spreadMethod="pad" x1="-819.2" x2="819.2">
      <stop offset="0.0" stop-color="#136ebf"/>
      <stop offset="0.32941176470588235" stop-color="#c9e6ff"/>
      <stop offset="0.6039215686274509" stop-color="#8dbce2"/>
      <stop offset="1.0" stop-color="#106fb1"/>
    </linearGradient>
    <linearGradient gradientTransform="matrix(0.0073, -0.0032, 0.0016, 0.0038, 0.05, 3.2)" gradientUnits="userSpaceOnUse" id="gradient1" spreadMethod="pad" x1="-819.2" x2="819.2">
      <stop offset="0.0" stop-color="#136ebf"/>
      <stop offset="0.32941176470588235" stop-color="#c9e6ff"/>
      <stop offset="0.6039215686274509" stop-color="#8dbce2"/>
      <stop offset="1.0" stop-color="#106fb1"/>
    </linearGradient>
  </defs>
</svg>
