<?xml version="1.0" encoding="UTF-8" standalone="no"?>
<svg xmlns:xlink="http://www.w3.org/1999/xlink" height="21.4px" width="47.25px" xmlns="http://www.w3.org/2000/svg">
  <g transform="matrix(1.0, 0.0, 0.0, 1.0, -42.35, 11.05)">
    <path d="M48.35 -11.05 Q50.9 -11.05 52.6 -8.0 54.4 -4.8 54.4 -0.35 54.4 3.95 52.6 7.15 50.9 10.35 48.35 10.35 45.85 10.35 44.15 7.15 42.35 3.95 42.35 -0.35 42.35 -4.8 44.15 -8.0 45.85 -11.05 48.35 -11.05" fill="url(#gradient0)" fill-rule="evenodd" stroke="none"/>
    <path d="M79.45 -5.65 Q89.6 -3.45 89.6 -0.25 89.6 2.85 79.45 5.0 69.35 7.15 55.0 7.15 L50.35 7.15 50.35 -7.65 55.0 -7.8 Q69.35 -7.8 79.45 -5.65" fill="url(#gradient1)" fill-rule="evenodd" stroke="none"/>
  </g>
  <defs>
    <radialGradient cx="0" cy="0" gradientTransform="matrix(0.0075, 0.0, 0.0, 0.0134, 48.35, -0.35)" gradientUnits="userSpaceOnUse" id="gradient0" r="819.2" spreadMethod="pad">
      <stop offset="0.36470588235294116" stop-color="#ffffff"/>
      <stop offset="1.0" stop-color="#ffe600" stop-opacity="0.0"/>
    </radialGradient>
    <radialGradient cx="0" cy="0" gradientTransform="matrix(0.0423, 0.0, 0.0, 0.0091, 55.1, -0.4)" gradientUnits="userSpaceOnUse" id="gradient1" r="819.2" spreadMethod="pad">
      <stop offset="0.36470588235294116" stop-color="#ffffff"/>
      <stop offset="1.0" stop-color="#ffcc00" stop-opacity="0.0"/>
    </radialGradient>
  </defs>
</svg>
