<?xml version="1.0" encoding="UTF-8" standalone="no"?>
<svg xmlns:xlink="http://www.w3.org/1999/xlink" height="11.0px" width="5.1px" xmlns="http://www.w3.org/2000/svg">
  <g transform="matrix(1.0, 0.0, 0.0, 1.0, 27.2, 4.5)">
    <path d="M-24.3 -4.0 Q-22.55 -3.7 -22.6 -1.9 L-22.7 1.65 Q-24.3 1.7 -24.5 3.4 L-24.7 4.9 Q-25.1 6.55 -26.15 5.7 L-26.7 5.1 -26.25 -2.35 Q-26.0 -4.1 -24.3 -4.0 M-25.8 -1.65 L-25.95 1.4 -25.8 -1.65" fill="#3f4b54" fill-rule="evenodd" stroke="none"/>
    <path d="M-24.3 -4.0 Q-26.0 -4.1 -26.25 -2.35 L-26.7 5.1 -26.15 5.7 Q-25.1 6.55 -24.7 4.9 L-24.5 3.4 Q-24.3 1.7 -22.7 1.65 L-22.6 -1.9 Q-22.55 -3.7 -24.3 -4.0 M-25.95 1.4 L-25.8 -1.65" fill="none" stroke="#25292c" stroke-linecap="round" stroke-linejoin="round" stroke-width="1.0"/>
  </g>
</svg>
