<?xml version="1.0" encoding="UTF-8" standalone="no"?>
<svg xmlns:ffdec="https://www.free-decompiler.com/flash" xmlns:xlink="http://www.w3.org/1999/xlink" ffdec:objectType="shape" height="19.5px" width="32.45px" xmlns="http://www.w3.org/2000/svg">
  <g transform="matrix(1.0, 0.0, 0.0, 1.0, 9.0, 7.0)">
    <path d="M6.0 -0.45 Q6.0 -0.05 6.3 0.3 6.65 0.65 7.05 0.65 L10.75 0.65 Q11.15 0.65 11.45 0.3 L11.8 -0.45 11.45 -1.3 10.75 -1.6 7.05 -1.6 6.3 -1.3 Q6.0 -0.9 6.0 -0.45 M-1.1 -2.0 L4.1 -2.0 Q4.0 -3.35 5.4 -3.4 L7.35 -3.4 Q9.15 -3.3 9.2 -5.25 L14.15 -5.25 15.1 -6.1 Q16.15 -6.95 16.7 -5.95 17.3 -3.25 18.25 -3.1 L21.6 -3.1 Q22.6 -3.1 22.85 -2.3 L22.95 -1.8 22.95 0.85 22.95 2.8 Q22.8 4.0 21.05 3.85 19.05 3.85 18.85 2.75 L13.6 2.75 Q13.15 4.1 11.8 4.5 L11.1 4.55 Q9.65 4.6 9.25 4.15 8.9 3.85 8.85 2.65 L6.55 2.65 -0.1 2.65 Q-1.25 2.75 -1.95 4.6 -4.45 4.4 -3.7 2.3 L-1.1 -2.0 M20.2 -1.05 L15.4 -1.05 20.2 -1.05 M17.9 0.55 L15.15 0.55 17.9 0.55" fill="url(#gradient0)" fill-rule="evenodd" stroke="none"/>
    <path d="M6.0 -0.45 Q6.0 -0.9 6.3 -1.3 L7.05 -1.6 10.75 -1.6 11.45 -1.3 11.8 -0.45 11.45 0.3 Q11.15 0.65 10.75 0.65 L7.05 0.65 Q6.65 0.65 6.3 0.3 6.0 -0.05 6.0 -0.45" fill="#4e5861" fill-rule="evenodd" stroke="none"/>
    <path d="M11.8 4.5 L11.8 10.5 Q11.6 11.3 11.0 11.7 L9.25 12.0 7.35 11.7 Q6.7 11.4 6.55 10.55 L6.55 2.65 8.85 2.65 Q8.9 3.85 9.25 4.15 9.65 4.6 11.1 4.55 L11.8 4.5 M10.0 7.0 L10.0 6.7 10.0 7.0 10.0 8.55 10.0 7.0 M10.0 8.95 L10.0 8.55 10.0 8.95" fill="#60604e" fill-rule="evenodd" stroke="none"/>
    <path d="M-6.55 2.3 L-8.5 2.3 -8.5 0.95 Q-5.3 0.9 -5.05 -1.1 L-5.05 -2.05 -5.05 -3.05 -2.15 -3.05 Q-1.0 -2.9 -1.1 -2.0 L-3.7 2.3 -6.55 2.3" fill="#667987" fill-rule="evenodd" stroke="none"/>
    <path d="M-1.95 4.6 L-1.85 6.0 Q-1.85 7.6 -2.0 8.7 -2.3 10.15 -3.05 10.55 L-3.6 10.7 -6.4 9.75 -5.95 8.05 Q-4.75 4.75 -6.15 4.25 -6.55 4.1 -6.65 3.35 L-6.55 2.3 -3.7 2.3 Q-4.45 4.4 -1.95 4.6" fill="#3f4b54" fill-rule="evenodd" stroke="none"/>
    <path d="M-1.1 -2.0 L4.1 -2.0 Q4.0 -3.35 5.4 -3.4 L7.35 -3.4 Q9.15 -3.3 9.2 -5.25 L14.15 -5.25 15.1 -6.1 Q16.15 -6.95 16.7 -5.95 17.3 -3.25 18.25 -3.1 L21.6 -3.1 Q22.6 -3.1 22.85 -2.3 M22.95 -1.8 L22.95 0.85 22.95 2.8 Q22.8 4.0 21.05 3.85 19.05 3.85 18.85 2.75 L13.6 2.75 Q13.15 4.1 11.8 4.5 L11.1 4.55 Q9.65 4.6 9.25 4.15 8.9 3.85 8.85 2.65 L6.55 2.65 -0.1 2.65 Q-1.25 2.75 -1.95 4.6 -4.45 4.4 -3.7 2.3" fill="none" stroke="#293237" stroke-linecap="round" stroke-linejoin="round" stroke-width="1.0"/>
    <path d="M6.0 -0.45 Q6.0 -0.05 6.3 0.3 6.65 0.65 7.05 0.65 L10.75 0.65 Q11.15 0.65 11.45 0.3 L11.8 -0.45 11.45 -1.3 10.75 -1.6 7.05 -1.6 6.3 -1.3 Q6.0 -0.9 6.0 -0.45" fill="none" stroke="#212a2f" stroke-linecap="round" stroke-linejoin="round" stroke-width="1.0"/>
    <path d="M15.4 -1.05 L20.2 -1.05 M15.15 0.55 L17.9 0.55" fill="none" stroke="#39444a" stroke-linecap="round" stroke-linejoin="round" stroke-width="1.0"/>
    <path d="M22.85 -2.3 L22.95 -1.8 M-1.95 4.6 L-1.85 6.0 Q-1.85 7.6 -2.0 8.7 -2.3 10.15 -3.05 10.55 L-3.6 10.7 -6.4 9.75 -5.95 8.05 Q-4.75 4.75 -6.15 4.25 -6.55 4.1 -6.65 3.35 L-6.55 2.3" fill="none" stroke="#25292c" stroke-linecap="round" stroke-linejoin="round" stroke-width="1.0"/>
    <path d="M11.8 4.5 L11.8 10.5 Q11.6 11.3 11.0 11.7 L9.25 12.0 7.35 11.7 Q6.7 11.4 6.55 10.55 L6.55 2.65" fill="none" stroke="#323429" stroke-linecap="round" stroke-linejoin="round" stroke-width="1.0"/>
    <path d="M10.0 6.7 L10.0 7.0 M10.0 8.55 L10.0 8.95" fill="none" stroke="#4a4b3d" stroke-linecap="round" stroke-linejoin="round" stroke-width="1.1"/>
    <path d="M10.0 7.0 L10.0 8.55" fill="none" stroke="#4a4b3d" stroke-linecap="round" stroke-linejoin="round" stroke-width="0.5"/>
    <path d="M-6.55 2.3 L-8.5 2.3 -8.5 0.95 M-5.05 -2.05 L-5.05 -3.05 -2.15 -3.05 Q-1.0 -2.9 -1.1 -2.0 L-3.7 2.3 -6.55 2.3" fill="none" stroke="#46535b" stroke-linecap="round" stroke-linejoin="round" stroke-width="1.0"/>
    <path d="M-8.5 0.95 Q-5.3 0.9 -5.05 -1.1 L-5.05 -2.05" fill="none" stroke="#313e46" stroke-linecap="round" stroke-linejoin="round" stroke-width="1.0"/>
  </g>
  <defs>
    <linearGradient gradientTransform="matrix(0.0, 0.0069, -0.0063, 0.0, 9.6, -0.9)" gradientUnits="userSpaceOnUse" id="gradient0" spreadMethod="pad" x1="-819.2" x2="819.2">
      <stop offset="0.0" stop-color="#70808e"/>
      <stop offset="1.0" stop-color="#4a555f"/>
    </linearGradient>
  </defs>
</svg>
