<?xml version="1.0" encoding="UTF-8" standalone="no"?>
<svg xmlns:ffdec="https://www.free-decompiler.com/flash" xmlns:xlink="http://www.w3.org/1999/xlink" ffdec:objectType="shape" height="32.55px" width="18.1px" xmlns="http://www.w3.org/2000/svg">
  <g transform="matrix(1.0, 0.0, 0.0, 1.0, -2.25, 4.95)">
    <path d="M16.7 6.65 L17.1 7.4 Q17.5 8.25 17.35 9.25 17.1 15.1 15.5 20.65 L14.9 22.45 Q14.35 23.8 13.2 24.75 11.75 25.65 10.0 25.35 9.0 25.3 7.55 22.8 L7.45 22.45 Q6.6 18.7 6.75 13.85 L7.05 9.65 Q7.85 7.4 8.85 6.55 L14.6 5.5 Q15.85 5.5 16.7 6.65" fill="url(#gradient0)" fill-rule="evenodd" stroke="none"/>
    <path d="M16.7 6.65 L17.1 7.4 Q17.5 8.25 17.35 9.25 17.1 15.1 15.5 20.65 L14.9 22.45 Q14.35 23.8 13.2 24.75 11.75 25.65 10.0 25.35 9.0 25.3 7.55 22.8 L7.45 22.45 Q6.6 18.7 6.75 13.85 L7.05 9.65 Q7.85 7.4 8.85 6.55 L14.6 5.5 Q15.85 5.5 16.7 6.65 Z" fill="none" stroke="#070707" stroke-linecap="round" stroke-linejoin="round" stroke-width="1.0"/>
    <path d="M19.5 9.9 L18.8 14.55 Q17.9 18.65 16.3 22.4 11.65 25.85 7.0 22.45 L6.05 14.75 7.1 13.05 Q8.7 10.65 10.55 9.35 14.2 7.7 18.45 7.8 19.55 8.85 19.5 9.9" fill="url(#gradient1)" fill-rule="evenodd" stroke="none"/>
    <path d="M19.5 9.9 Q19.55 8.85 18.45 7.8 14.2 7.7 10.55 9.35 8.7 10.65 7.1 13.05 L6.05 14.75 7.0 22.45 Q11.65 25.85 16.3 22.4 17.9 18.65 18.8 14.55 L19.5 9.9 Z" fill="none" stroke="#0b0b0b" stroke-linecap="round" stroke-linejoin="round" stroke-width="1.0"/>
    <path d="M19.85 12.0 L19.1 15.0 Q14.9 16.6 10.7 15.65 L11.35 13.05 Q16.75 13.05 19.85 12.0 M18.7 16.95 L17.8 19.8 Q13.8 21.45 10.65 19.8 L10.65 17.7 18.7 16.95" fill="#171717" fill-rule="evenodd" stroke="none"/>
    <path d="M18.7 16.95 L10.65 17.7 10.65 19.8 Q13.8 21.45 17.8 19.8 L18.7 16.95 M19.85 12.0 Q16.75 13.05 11.35 13.05 L10.7 15.65 Q14.9 16.6 19.1 15.0 L19.85 12.0 Z" fill="none" stroke="#0b0b0b" stroke-linecap="round" stroke-linejoin="round" stroke-width="1.0"/>
    <path d="M14.65 -0.65 L15.2 -2.1 14.4 -4.2 16.25 -4.45 18.55 -2.3 17.75 -0.7 17.7 -0.75 16.35 -1.25 15.95 -0.15 14.65 -0.65 M14.65 5.7 L15.05 5.9 14.95 7.8 14.1 8.7 13.25 8.0 11.05 6.25 10.05 5.35 10.75 4.75 10.85 4.8 12.45 5.45 13.65 4.8 14.65 5.7" fill="#484848" fill-rule="evenodd" stroke="none"/>
    <path d="M14.65 -0.65 L15.95 -0.15 16.35 -1.25 17.7 -0.75 14.65 5.7 13.65 4.8 12.45 5.45 10.85 4.8 10.75 4.75 11.7 3.45 12.35 3.7 13.15 2.95 12.9 1.9 14.65 -0.65" fill="#232323" fill-rule="evenodd" stroke="none"/>
    <path d="M13.25 8.0 L11.05 12.55 Q8.8 17.05 7.3 20.3 5.4 24.65 4.6 27.1 L2.75 22.65 Q3.4 20.85 5.9 15.95 7.75 12.05 11.05 6.25 L13.25 8.0" fill="#1c1c1c" fill-rule="evenodd" stroke="none"/>
    <path d="M13.25 8.0 L11.05 12.55 Q8.8 17.05 7.3 20.3 5.4 24.65 4.6 27.1 L2.75 22.65 Q3.4 20.85 5.9 15.95 7.75 12.05 11.05 6.25" fill="none" stroke="#000000" stroke-linecap="round" stroke-linejoin="round" stroke-width="1.0"/>
    <path d="M17.7 -0.75 L17.75 -0.7 18.55 -2.3 16.25 -4.45 14.4 -4.2 15.2 -2.1 14.65 -0.65 15.95 -0.15 16.35 -1.25 17.7 -0.75 M14.65 5.7 L15.05 5.9 14.95 7.8 14.1 8.7 13.25 8.0 11.05 6.25 10.05 5.35 10.75 4.75 10.85 4.8 12.45 5.45 13.65 4.8 14.65 5.7" fill="none" stroke="#191919" stroke-linecap="round" stroke-linejoin="round" stroke-width="1.0"/>
    <path d="M17.7 -0.75 L14.65 5.7 M10.75 4.75 L11.7 3.45 12.35 3.7 13.15 2.95 12.9 1.9 14.65 -0.65" fill="none" stroke="#0e0e0e" stroke-linecap="round" stroke-linejoin="round" stroke-width="1.0"/>
  </g>
  <defs>
    <radialGradient cx="0" cy="0" gradientTransform="matrix(0.0056, 0.0142, -0.0118, 0.0047, 9.2, 17.45)" gradientUnits="userSpaceOnUse" id="gradient0" r="819.2" spreadMethod="pad">
      <stop offset="0.0" stop-color="#000000"/>
      <stop offset="1.0" stop-color="#202020"/>
    </radialGradient>
    <radialGradient cx="0" cy="0" gradientTransform="matrix(-0.006, 0.0162, -0.0113, -0.0042, 14.7, 16.0)" gradientUnits="userSpaceOnUse" id="gradient1" r="819.2" spreadMethod="pad">
      <stop offset="0.0" stop-color="#333333"/>
      <stop offset="1.0" stop-color="#070707"/>
    </radialGradient>
  </defs>
</svg>
