<?xml version="1.0" encoding="UTF-8" standalone="no"?>
<svg xmlns:ffdec="https://www.free-decompiler.com/flash" xmlns:xlink="http://www.w3.org/1999/xlink" ffdec:objectType="shape" height="21.0px" width="18.2px" xmlns="http://www.w3.org/2000/svg">
  <g transform="matrix(1.0, 0.0, 0.0, 1.0, 6.2, 5.5)">
    <path d="M-3.15 -2.6 L5.8 -4.15 Q6.65 -2.2 8.7 1.1 10.1 5.0 8.85 13.6 L4.25 14.9 Q1.5 15.3 -0.85 14.3 -3.0 9.3 -3.55 6.05 -4.25 1.9 -3.15 -2.6" fill="#171a1c" fill-rule="evenodd" stroke="none"/>
    <path d="M-3.15 -2.6 Q-4.25 1.9 -3.55 6.05 -3.0 9.3 -0.85 14.3 1.5 15.3 4.25 14.9 L8.85 13.6 Q10.1 5.0 8.7 1.1 6.65 -2.2 5.8 -4.15 L-3.15 -2.6 Z" fill="none" stroke="#101214" stroke-linecap="round" stroke-linejoin="round" stroke-width="1.0"/>
    <path d="M-4.3 -5.0 Q-3.9 -4.85 0.65 -1.15 3.65 1.35 6.4 -0.4 L9.2 -0.3 Q12.05 3.9 11.35 9.05 L4.75 9.55 3.0 4.95 -5.45 4.0 -5.7 -0.35 Q-5.6 -3.1 -4.3 -5.0" fill="url(#gradient0)" fill-rule="evenodd" stroke="none"/>
    <path d="M-4.3 -5.0 Q-5.6 -3.1 -5.7 -0.35 L-5.45 4.0 3.0 4.95 4.75 9.55 11.35 9.05 Q12.05 3.9 9.2 -0.3 L6.4 -0.4 Q3.65 1.35 0.65 -1.15 -3.9 -4.85 -4.3 -5.0 Z" fill="none" stroke="#101214" stroke-linecap="round" stroke-linejoin="round" stroke-width="1.0"/>
    <path d="M-1.25 4.45 L3.0 4.95 4.75 9.55 8.05 9.25 8.85 13.6 4.35 14.9 1.15 12.3 -1.25 4.45" fill="#292a2b" fill-rule="evenodd" stroke="none"/>
    <path d="M-1.25 4.45 L1.15 12.3 4.35 14.9 8.85 13.6 8.05 9.25 4.75 9.55 3.0 4.95 -1.25 4.45 Z" fill="none" stroke="#101214" stroke-linecap="round" stroke-linejoin="round" stroke-width="1.0"/>
    <path d="M8.05 3.25 Q7.6 3.35 7.25 3.85 7.0 4.4 7.1 4.85 7.2 5.35 7.8 5.65 L8.95 5.85 9.5 5.3 9.65 4.45 Q9.55 3.95 9.05 3.55 8.55 3.2 8.05 3.25 Z" fill="none" stroke="#101214" stroke-linecap="round" stroke-linejoin="round" stroke-width="1.0"/>
    <path d="M1.5 8.3 L2.7 8.3" fill="none" stroke="#181c1e" stroke-linecap="round" stroke-linejoin="round" stroke-width="1.0"/>
  </g>
  <defs>
    <linearGradient gradientTransform="matrix(0.0056, -0.0019, 0.0019, 0.0056, 2.3, 2.95)" gradientUnits="userSpaceOnUse" id="gradient0" spreadMethod="pad" x1="-819.2" x2="819.2">
      <stop offset="0.0" stop-color="#2e2e2e"/>
      <stop offset="1.0" stop-color="#1e2225"/>
    </linearGradient>
  </defs>
</svg>
