<?xml version="1.0" encoding="UTF-8" standalone="no"?>
<svg xmlns:ffdec="https://www.free-decompiler.com/flash" xmlns:xlink="http://www.w3.org/1999/xlink" ffdec:objectType="shape" height="24.25px" width="16.4px" xmlns="http://www.w3.org/2000/svg">
  <g transform="matrix(1.0, 0.0, 0.0, 1.0, 6.25, 9.4)">
    <path d="M1.05 7.0 L4.8 5.85 3.45 -2.05 -2.0 -1.7 1.05 7.0 M6.35 11.3 L5.3 8.3 2.15 9.3 3.25 12.35 6.35 11.3 M-4.5 -2.8 Q-1.95 -7.9 2.6 -7.2 6.55 -6.4 7.05 -2.45 L8.45 11.7 Q7.7 13.55 5.75 14.1 L1.0 13.9 -1.25 10.4 -3.45 7.05 Q-5.4 2.35 -5.3 -0.2 L-4.5 -2.8 M4.6 -3.5 L4.5 -5.55 2.3 -5.5 2.4 -3.3 4.6 -3.5 M0.6 -3.15 L0.4 -5.3 -1.7 -5.15 -1.6 -3.05 0.6 -3.15" fill="#333333" fill-rule="evenodd" stroke="none"/>
    <path d="M0.6 -3.15 L-1.6 -3.05 -1.7 -5.15 0.4 -5.3 0.6 -3.15 M4.6 -3.5 L2.4 -3.3 2.3 -5.5 4.5 -5.55 4.6 -3.5 M-4.5 -2.8 L-5.3 -0.2 Q-5.4 2.35 -3.45 7.05 L-1.25 10.4 1.0 13.9 5.75 14.1 Q7.7 13.55 8.45 11.7 L7.05 -2.45 Q6.55 -6.4 2.6 -7.2 -1.95 -7.9 -4.5 -2.8 M6.35 11.3 L3.25 12.35 2.15 9.3 5.3 8.3 6.35 11.3 M1.05 7.0 L-2.0 -1.7 3.45 -2.05 4.8 5.85 1.05 7.0 Z" fill="none" stroke="#171717" stroke-linecap="round" stroke-linejoin="round" stroke-width="1.05"/>
    <path d="M-4.25 -6.5 L-2.1 -5.4 0.25 0.2 3.3 -0.45 2.7 -6.4 4.3 -8.75 6.6 -6.6 Q7.65 -5.25 8.2 -3.45 L9.6 3.8 9.55 8.7 2.3 10.25 0.5 7.8 -3.75 6.65 -5.35 2.55 Q-6.05 0.4 -5.55 -2.75 -5.1 -5.65 -4.25 -6.5" fill="#494d4f" fill-rule="evenodd" stroke="none"/>
    <path d="M-4.25 -6.5 Q-5.1 -5.65 -5.55 -2.75 -6.05 0.4 -5.35 2.55 L-3.75 6.65 0.5 7.8 2.3 10.25 9.55 8.7 9.6 3.8 8.2 -3.45 Q7.65 -5.25 6.6 -6.6 L4.3 -8.75 2.7 -6.4 3.3 -0.45 0.25 0.2 -2.1 -5.4 -4.25 -6.5 Z" fill="none" stroke="#2c2c2c" stroke-linecap="round" stroke-linejoin="round" stroke-width="1.05"/>
    <path d="M-2.1 -5.4 L2.7 -6.4 Q4.4 -2.05 4.8 2.15 L3.85 3.9 1.95 4.35 0.45 3.45 Q0.2 2.0 -0.45 0.4 -1.25 -1.6 -2.1 -5.4" fill="#464646" fill-rule="evenodd" stroke="none"/>
    <path d="M-2.1 -5.4 L2.7 -6.4 Q4.4 -2.05 4.8 2.15 L3.85 3.9 1.95 4.35 0.45 3.45 Q0.2 2.0 -0.45 0.4 -1.25 -1.6 -2.1 -5.4 Z" fill="none" stroke="#373737" stroke-linecap="round" stroke-linejoin="round" stroke-width="1.05"/>
    <path d="M1.75 -6.2 L0.5 -5.7 Q-1.55 -4.9 -2.1 -5.4 L1.75 -6.2 -2.1 -5.4 -4.25 -6.5 Q-2.7 -7.9 -0.05 -8.55 L4.3 -8.4 2.7 -6.4 1.75 -6.2" fill="#3c3c3c" fill-rule="evenodd" stroke="none"/>
    <path d="M-2.1 -5.4 Q-1.55 -4.9 0.5 -5.7 L1.75 -6.2 -2.1 -5.4 -4.25 -6.5 Q-2.7 -7.9 -0.05 -8.55 L4.3 -8.4 2.7 -6.4 1.75 -6.2" fill="none" stroke="#303030" stroke-linecap="round" stroke-linejoin="round" stroke-width="1.05"/>
    <path d="M8.25 -3.15 L9.05 -1.7 9.65 1.35 7.0 1.25 6.2 -1.1 8.25 -3.15" fill="#484848" fill-rule="evenodd" stroke="none"/>
    <path d="M8.25 -3.15 L6.2 -1.1 7.0 1.25 9.65 1.35 9.05 -1.7 8.25 -3.15 Z" fill="none" stroke="#393939" stroke-linecap="round" stroke-linejoin="round" stroke-width="1.05"/>
    <path d="M2.3 7.0 L4.35 6.45 6.05 6.7 7.7 8.4 8.9 10.0 Q9.15 10.7 8.9 11.2 L6.05 13.95 Q5.6 14.3 5.0 13.95 L3.6 13.1 Q2.35 12.45 1.65 11.1 0.85 9.5 1.05 8.8 1.1 7.95 2.3 7.0" fill="#3e3e3e" fill-rule="evenodd" stroke="none"/>
    <path d="M2.3 7.0 L4.35 6.45 6.05 6.7 7.7 8.4 8.9 10.0 Q9.15 10.7 8.9 11.2 L6.05 13.95 Q5.6 14.3 5.0 13.95 L3.6 13.1 Q2.35 12.45 1.65 11.1 0.85 9.5 1.05 8.8 1.1 7.95 2.3 7.0 Z" fill="none" stroke="#2d2d2d" stroke-linecap="round" stroke-linejoin="round" stroke-width="1.05"/>
    <path d="M3.0 0.1 L0.65 0.35 0.5 -1.8 2.75 -2.0 3.0 0.1" fill="#56e8ff" fill-rule="evenodd" stroke="none"/>
    <path d="M3.0 0.1 L2.75 -2.0 0.5 -1.8 0.65 0.35 3.0 0.1 Z" fill="none" stroke="#21416d" stroke-linecap="round" stroke-linejoin="round" stroke-opacity="0.8784314" stroke-width="1.05"/>
  </g>
</svg>
