<?xml version="1.0" encoding="UTF-8" standalone="no"?>
<svg xmlns:ffdec="https://www.free-decompiler.com/flash" xmlns:xlink="http://www.w3.org/1999/xlink" ffdec:objectType="shape" height="36.25px" width="19.8px" xmlns="http://www.w3.org/2000/svg">
  <g transform="matrix(1.0, 0.0, 0.0, 1.0, -10.75, 6.45)">
    <path d="M26.9 4.95 L27.3 5.7 Q27.7 6.55 27.55 7.55 27.3 13.4 25.7 18.95 L25.1 20.75 Q24.55 22.1 23.4 23.05 21.95 23.95 20.2 23.65 19.2 23.6 17.75 21.1 L17.65 20.75 Q16.8 17.0 16.95 12.15 L17.25 7.95 Q18.05 5.7 19.05 4.85 L24.8 3.8 Q26.05 3.8 26.9 4.95" fill="#181c15" fill-rule="evenodd" stroke="none"/>
    <path d="M26.9 4.95 L27.3 5.7 Q27.7 6.55 27.55 7.55 27.3 13.4 25.7 18.95 L25.1 20.75 Q24.55 22.1 23.4 23.05 21.95 23.95 20.2 23.65 19.2 23.6 17.75 21.1 L17.65 20.75 Q16.8 17.0 16.95 12.15 L17.25 7.95 Q18.05 5.7 19.05 4.85 L24.8 3.8 Q26.05 3.8 26.9 4.95 Z" fill="none" stroke="#070707" stroke-linecap="round" stroke-linejoin="round" stroke-width="1.0"/>
    <path d="M29.7 8.2 L29.0 12.85 Q28.1 16.95 26.5 20.7 21.85 24.15 17.2 20.75 L16.25 13.05 17.3 11.35 Q18.9 8.95 20.75 7.65 24.4 6.0 28.65 6.1 29.75 7.15 29.7 8.2" fill="url(#gradient0)" fill-rule="evenodd" stroke="none"/>
    <path d="M29.7 8.2 Q29.75 7.15 28.65 6.1 24.4 6.0 20.75 7.65 18.9 8.95 17.3 11.35 L16.25 13.05 17.2 20.75 Q21.85 24.15 26.5 20.7 28.1 16.95 29.0 12.85 L29.7 8.2 Z" fill="none" stroke="#0f120f" stroke-linecap="round" stroke-linejoin="round" stroke-width="1.0"/>
    <path d="M30.05 10.3 L29.3 13.3 Q25.1 14.9 20.9 13.95 L21.55 11.35 Q26.95 11.35 30.05 10.3 M28.9 15.25 L28.0 18.1 Q24.0 19.75 20.85 18.1 L20.85 16.0 28.9 15.25" fill="#1b1c14" fill-rule="evenodd" stroke="none"/>
    <path d="M28.9 15.25 L20.85 16.0 20.85 18.1 Q24.0 19.75 28.0 18.1 L28.9 15.25 M30.05 10.3 Q26.95 11.35 21.55 11.35 L20.9 13.95 Q25.1 14.9 29.3 13.3 L30.05 10.3 Z" fill="none" stroke="#0b0b0b" stroke-linecap="round" stroke-linejoin="round" stroke-width="1.0"/>
    <path d="M23.55 6.4 L22.4 8.6 17.7 17.8 Q16.0 21.25 14.65 24.25 L14.5 24.7 13.4 27.05 12.5 29.3 11.25 24.0 Q12.95 20.0 16.5 13.4 18.7 9.0 21.3 4.55 L23.55 6.4" fill="#282828" fill-rule="evenodd" stroke="none"/>
    <path d="M25.1 -2.25 L25.65 -3.65 25.0 -5.75 26.8 -5.95 29.0 -3.75 28.15 -2.2 28.1 -2.2 26.75 -2.7 26.35 -1.7 25.1 -2.25 M24.95 4.1 L25.25 4.35 25.3 6.2 24.35 7.1 23.55 6.4 21.3 4.55 20.3 3.65 21.1 3.1 21.15 3.15 22.75 3.8 23.95 3.25 24.95 4.1" fill="#3c4334" fill-rule="evenodd" stroke="none"/>
    <path d="M25.1 -2.25 L26.35 -1.7 26.75 -2.7 28.1 -2.2 24.95 4.1 23.95 3.25 22.75 3.8 21.15 3.15 21.1 3.1 22.05 1.85 22.7 2.1 23.55 1.4 23.3 0.3 25.1 -2.25" fill="#2c3123" fill-rule="evenodd" stroke="none"/>
    <path d="M23.55 6.4 L22.4 8.6 17.7 17.8 Q16.0 21.25 14.65 24.25 L14.5 24.7 13.4 27.05 12.5 29.3 11.25 24.0 Q12.95 20.0 16.5 13.4 18.7 9.0 21.3 4.55" fill="none" stroke="#000000" stroke-linecap="round" stroke-linejoin="round" stroke-width="1.0"/>
    <path d="M28.1 -2.2 L28.15 -2.2 29.0 -3.75 26.8 -5.95 25.0 -5.75 25.65 -3.65 25.1 -2.25 26.35 -1.7 26.75 -2.7 28.1 -2.2 M24.95 4.1 L25.25 4.35 25.3 6.2 24.35 7.1 23.55 6.4 21.3 4.55 20.3 3.65 21.1 3.1 21.15 3.15 22.75 3.8 23.95 3.25 24.95 4.1" fill="none" stroke="#191919" stroke-linecap="round" stroke-linejoin="round" stroke-width="1.0"/>
    <path d="M28.1 -2.2 L24.95 4.1 M21.1 3.1 L22.05 1.85 22.7 2.1 23.55 1.4 23.3 0.3 25.1 -2.25" fill="none" stroke="#0e0e0e" stroke-linecap="round" stroke-linejoin="round" stroke-width="1.0"/>
  </g>
  <defs>
    <radialGradient cx="0" cy="0" gradientTransform="matrix(-0.0029, 0.0157, -0.0118, -0.0022, 25.2, 14.3)" gradientUnits="userSpaceOnUse" id="gradient0" r="819.2" spreadMethod="pad">
      <stop offset="0.0" stop-color="#3b4133"/>
      <stop offset="1.0" stop-color="#0c100a"/>
    </radialGradient>
  </defs>
</svg>
