<?xml version="1.0" encoding="UTF-8" standalone="no"?>
<svg xmlns:xlink="http://www.w3.org/1999/xlink" height="15.5px" width="52.75px" xmlns="http://www.w3.org/2000/svg">
  <g transform="matrix(1.0, 0.0, 0.0, 1.0, -9.85, 7.75)">
    <path d="M22.7 -1.05 L18.6 -1.05 23.05 -7.25 25.35 -6.7 23.6 -5.35 22.7 -1.05 M18.6 1.05 L22.7 1.05 23.6 5.35 25.35 6.7 23.05 7.25 18.6 1.05" fill="#636363" fill-rule="evenodd" stroke="none"/>
    <path d="M18.6 -1.05 L22.7 -1.05 25.65 -1.05 Q26.0 -0.7 25.95 0.0 26.0 0.7 25.65 1.05 L22.7 1.05 18.6 1.05 10.35 1.05 10.35 -1.05 18.6 -1.05" fill="#828282" fill-rule="evenodd" stroke="none"/>
    <path d="M22.7 -1.05 L18.6 -1.05 10.35 -1.05 M10.35 1.05 L18.6 1.05 22.7 1.05 25.65 1.05 Q26.0 0.7 25.95 0.0 26.0 -0.7 25.65 -1.05 L22.7 -1.05" fill="none" stroke="#4f4f4f" stroke-linecap="round" stroke-linejoin="round" stroke-width="1.0"/>
    <path d="M10.35 -1.05 L10.35 1.05 M22.7 -1.05 L23.6 -5.35 25.35 -6.7 23.05 -7.25 18.6 -1.05 M22.7 1.05 L23.6 5.35 25.35 6.7 23.05 7.25 18.6 1.05" fill="none" stroke="#444444" stroke-linecap="round" stroke-linejoin="round" stroke-width="1.0"/>
    <path d="M26.9 -3.95 L52.2 -2.8 Q62.6 -1.65 62.6 0.0 62.6 1.65 52.2 2.8 L26.9 3.95 25.95 3.95 25.95 -3.95 26.9 -3.95" fill="url(#gradient0)" fill-rule="evenodd" stroke="none"/>
  </g>
  <defs>
    <radialGradient cx="0" cy="0" gradientTransform="matrix(0.0442, 0.0, 0.0, 0.0049, 26.9, 0.0)" gradientUnits="userSpaceOnUse" id="gradient0" r="819.2" spreadMethod="pad">
      <stop offset="0.41568627450980394" stop-color="#ffffff"/>
      <stop offset="1.0" stop-color="#ffd595" stop-opacity="0.0"/>
    </radialGradient>
  </defs>
</svg>
