<?xml version="1.0" encoding="UTF-8" standalone="no"?>
<svg xmlns:xlink="http://www.w3.org/1999/xlink" height="7.9px" width="9.3px" xmlns="http://www.w3.org/2000/svg">
  <g transform="matrix(1.0, 0.0, 0.0, 1.0, 5.2, 6.3)">
    <path d="M-3.75 -5.8 L1.75 -5.8 3.6 -3.65 3.6 1.1 1.8 1.1 1.8 -0.95 0.65 -0.95 0.65 1.1 -1.35 1.1 -1.35 -0.95 -2.45 -0.95 -2.45 1.1 -3.45 1.1 -4.7 0.1 -4.7 -2.15 -1.95 -2.15 -1.95 -3.65 -3.75 -5.8" fill="#cfb666" fill-rule="evenodd" stroke="none"/>
    <path d="M-2.45 1.1 L-2.45 -0.95 -1.35 -0.95 -1.35 1.1 -2.45 1.1 M0.65 1.1 L0.65 -0.95 1.8 -0.95 1.8 1.1 0.65 1.1" fill="#947950" fill-rule="evenodd" stroke="none"/>
    <path d="M1.8 1.1 L3.6 1.1 3.6 -3.65 1.75 -5.8 -3.75 -5.8 M-4.7 -2.15 L-4.7 0.1 -3.45 1.1 -2.45 1.1 -1.35 1.1 0.65 1.1 1.8 1.1" fill="none" stroke="#ab824d" stroke-linecap="round" stroke-linejoin="round" stroke-width="1.0"/>
  </g>
</svg>
