<?xml version="1.0" encoding="UTF-8" standalone="no"?>
<svg xmlns:ffdec="https://www.free-decompiler.com/flash" xmlns:xlink="http://www.w3.org/1999/xlink" ffdec:objectType="shape" height="26.0px" width="16.2px" xmlns="http://www.w3.org/2000/svg">
  <g transform="matrix(1.0, 0.0, 0.0, 1.0, 7.8, 7.9)">
    <path d="M-6.65 3.5 L-5.7 -2.2 Q-5.2 -4.4 -3.7 -6.05 -0.55 -8.3 2.25 -6.85 4.9 -5.4 5.6 -2.15 L6.7 2.55 3.7 1.1 2.75 -0.95 Q0.05 -2.35 -2.7 -0.75 L-3.25 1.3 -6.65 3.5" fill="#191919" fill-rule="evenodd" stroke="none"/>
    <path d="M7.6 5.8 Q6.85 10.55 5.2 14.45 L4.2 16.55 Q0.9 18.35 -3.1 17.0 -5.9 11.75 -6.9 6.35 L-2.25 3.55 -1.2 1.4 1.85 1.4 2.75 3.55 7.6 5.8 M-4.6 7.0 L-4.95 7.0 -4.6 7.0 M5.8 7.0 L5.45 7.0 5.8 7.0 M1.9 16.75 L-2.05 11.35 -5.0 11.35 -2.05 11.35 1.9 16.75" fill="url(#gradient0)" fill-rule="evenodd" stroke="none"/>
    <path d="M6.7 2.55 L7.9 2.55 7.6 5.8 2.75 3.55 1.85 1.4 -1.2 1.4 -2.25 3.55 -6.9 6.35 -7.3 3.5 -6.65 3.5 -3.25 1.3 -2.7 -0.75 Q0.05 -2.35 2.75 -0.95 L3.7 1.1 6.7 2.55" fill="url(#gradient1)" fill-rule="evenodd" stroke="none"/>
    <path d="M-6.65 3.5 L-5.7 -2.2 Q-5.2 -4.4 -3.7 -6.05 -0.55 -8.3 2.25 -6.85 4.9 -5.4 5.6 -2.15 L6.7 2.55" fill="none" stroke="#000000" stroke-linecap="round" stroke-linejoin="round" stroke-width="1.0"/>
    <path d="M-5.0 11.35 L-2.05 11.35 1.9 16.75" fill="none" stroke="url(#gradient2)" stroke-linecap="round" stroke-linejoin="round" stroke-width="1.0"/>
    <path d="M5.45 7.0 L5.8 7.0 M-4.95 7.0 L-4.6 7.0" fill="none" stroke="#0e0e0e" stroke-linecap="round" stroke-linejoin="round" stroke-width="1.0"/>
    <path d="M7.55 5.8 L2.75 3.55 1.85 1.4 -1.25 1.4 -2.25 3.55 -6.9 6.35" fill="none" stroke="url(#gradient3)" stroke-linecap="round" stroke-linejoin="round" stroke-width="1.0"/>
    <path d="M7.55 5.8 L7.9 2.55 6.7 2.55 3.7 1.1 2.75 -0.95 Q0.05 -2.35 -2.7 -0.7 L-3.25 1.3 -6.65 3.5 -7.3 3.5 -6.9 6.35 Q-5.95 11.75 -3.1 17.0 0.9 18.35 4.2 16.55 L5.15 14.45 Q6.85 10.55 7.55 5.8 Z" fill="none" stroke="#0e0e0e" stroke-linecap="round" stroke-linejoin="round" stroke-width="1.0"/>
  </g>
  <defs>
    <radialGradient cx="0" cy="0" gradientTransform="matrix(0.0119, 0.0, 0.0, 0.013, 0.3, 7.75)" gradientUnits="userSpaceOnUse" id="gradient0" r="819.2" spreadMethod="pad">
      <stop offset="0.0" stop-color="#333333"/>
      <stop offset="1.0" stop-color="#1c1c1c"/>
    </radialGradient>
    <radialGradient cx="0" cy="0" gradientTransform="matrix(0.0119, 0.0, 0.0, 0.013, -1.2, 1.05)" gradientUnits="userSpaceOnUse" id="gradient1" r="819.2" spreadMethod="pad">
      <stop offset="0.0" stop-color="#333333"/>
      <stop offset="1.0" stop-color="#1c1c1c"/>
    </radialGradient>
    <linearGradient gradientTransform="matrix(0.0099, 0.0, 0.0, 0.0159, 0.3, 4.85)" gradientUnits="userSpaceOnUse" id="gradient2" spreadMethod="pad" x1="-819.2" x2="819.2">
      <stop offset="0.0" stop-color="#333333"/>
      <stop offset="1.0" stop-color="#000000"/>
    </linearGradient>
    <linearGradient gradientTransform="matrix(0.0099, 0.0, 0.0, 0.0121, 0.3, 7.0)" gradientUnits="userSpaceOnUse" id="gradient3" spreadMethod="pad" x1="-819.2" x2="819.2">
      <stop offset="0.0" stop-color="#333333"/>
      <stop offset="1.0" stop-color="#000000"/>
    </linearGradient>
  </defs>
</svg>
