<?xml version="1.0" encoding="UTF-8" standalone="no"?>
<svg xmlns:ffdec="https://www.free-decompiler.com/flash" xmlns:xlink="http://www.w3.org/1999/xlink" ffdec:objectType="shape" height="21.65px" width="13.55px" xmlns="http://www.w3.org/2000/svg">
  <g transform="matrix(1.0, 0.0, 0.0, 1.0, 7.15, 4.45)">
    <path d="M-4.45 1.75 L-4.4 1.75 -4.45 1.75 M1.0 15.0 Q-2.5 18.3 -4.45 15.15 L1.0 15.0" fill="#4d4433" fill-rule="evenodd" stroke="none"/>
    <path d="M2.55 9.5 L1.3 14.0 -0.7 12.65 0.05 9.6 2.55 9.5" fill="#4a4531" fill-rule="evenodd" stroke="none"/>
    <path d="M-4.45 1.75 Q-4.8 0.75 -4.55 -1.4 -0.3 -3.45 2.3 -3.85 4.85 -4.3 5.9 -2.35 6.1 0.9 3.95 4.15 L2.75 4.15 Q1.6 4.0 -0.5 3.25 L-3.1 2.3 -4.4 1.75 -4.45 1.75 -4.4 1.75 -4.45 1.75" fill="#756b57" fill-rule="evenodd" stroke="none"/>
    <path d="M-4.45 1.75 L-4.4 1.75 -3.1 2.3 -3.9 5.8 -6.55 8.0 Q-6.15 2.85 -4.45 1.75 M-0.5 3.25 Q1.6 4.0 2.75 4.15 L3.95 4.15 3.45 5.8 3.0 7.35 2.55 9.5 0.05 9.6 -0.7 12.65 1.3 14.0 1.0 15.0 -4.45 15.15 -5.45 13.75 -6.65 11.9 -1.25 7.6 -0.5 3.25" fill="#5a4f3f" fill-rule="evenodd" stroke="none"/>
    <path d="M-3.1 2.3 L-0.5 3.25 -1.25 7.6 -6.65 11.9 -6.55 8.0 -3.9 5.8 -3.1 2.3" fill="#756857" fill-rule="evenodd" stroke="none"/>
    <path d="M3.95 4.15 Q6.1 0.9 5.9 -2.35 4.85 -4.3 2.3 -3.85 -0.3 -3.45 -4.55 -1.4 -4.8 0.75 -4.45 1.75 L-4.4 1.75 -4.45 1.75 -4.4 1.75 -3.1 2.3 -0.5 3.25 Q1.6 4.0 2.75 4.15 L3.95 4.15 3.45 5.8 3.0 7.35 2.55 9.5 1.3 14.0 1.0 15.0 Q-2.5 18.3 -4.45 15.15 L-5.45 13.75 -6.65 11.9 -6.55 8.0 Q-6.15 2.85 -4.45 1.75 M2.55 9.5 L0.05 9.6 -0.7 12.65 1.3 14.0 M-3.1 2.3 L-3.9 5.8 -6.55 8.0 M-6.65 11.9 L-1.25 7.6 -0.5 3.25 M1.0 15.0 L-4.45 15.15" fill="none" stroke="#232018" stroke-linecap="round" stroke-linejoin="round" stroke-width="1.0"/>
  </g>
</svg>
