<?xml version="1.0" encoding="UTF-8" standalone="no"?>
<svg xmlns:ffdec="https://www.free-decompiler.com/flash" xmlns:xlink="http://www.w3.org/1999/xlink" ffdec:objectType="shape" height="20.25px" width="15.0px" xmlns="http://www.w3.org/2000/svg">
  <g transform="matrix(1.0, 0.0, 0.0, 1.0, 8.6, 5.7)">
    <path d="M5.75 -1.3 L5.9 0.1 6.0 1.6 Q6.0 3.35 5.25 8.1 L1.25 8.2 -0.95 4.0 -2.2 2.3 -3.55 1.95 Q-3.45 0.1 -3.05 -0.45 L-1.4 -2.4 5.75 -1.3" fill="#282828" fill-rule="evenodd" stroke="none"/>
    <path d="M-7.6 0.3 L-7.9 -2.05 -7.35 -4.55 -5.6 -4.4 -3.4 -4.05 Q-2.75 -3.75 -1.55 -2.15 L-3.35 0.0 Q-4.05 0.8 -3.75 2.05 L-7.6 0.3" fill="#282828" fill-rule="evenodd" stroke="none"/>
    <path d="M-4.4 11.7 L-6.5 7.0 -7.0 4.9 -7.05 3.4 -7.0 1.35 -3.6 1.8 -1.85 2.75 1.25 8.3 3.9 8.05 3.85 10.5 3.1 12.55 2.0 13.5 0.15 13.8 -2.0 13.95 -3.05 13.3 -4.4 11.7" fill="#1f1f1f" fill-rule="evenodd" stroke="none"/>
    <path d="M-7.3 -4.4 Q-8.2 -3.15 -8.1 -1.4 -8.05 0.05 -7.6 0.55 L-4.05 1.9" fill="none" stroke="#1a1a1a" stroke-linecap="round" stroke-linejoin="round" stroke-width="1.0"/>
    <path d="M4.4 -1.7 L-1.9 -2.25 Q-2.5 -3.4 -3.2 -3.75 L-5.85 -4.55 -5.3 -4.9 -3.55 -5.05 -1.2 -5.1 Q0.4 -4.9 1.25 -4.5 L3.7 -2.95 4.4 -1.7" fill="#161616" fill-rule="evenodd" stroke="none"/>
    <path d="M-5.95 -4.6 L-0.05 -5.05 Q3.0 -4.45 4.55 -1.85" fill="none" stroke="#0d0d0d" stroke-linecap="round" stroke-linejoin="round" stroke-width="1.0"/>
    <path d="M-1.35 -2.3 Q-3.4 -0.55 -3.7 1.95" fill="none" stroke="#1a1a1a" stroke-linecap="round" stroke-linejoin="round" stroke-width="1.0"/>
    <path d="M-1.05 -2.3 L2.1 -2.0 5.6 -1.4 Q6.05 -0.95 5.8 3.5 5.55 7.95 5.0 7.95 L1.3 8.15 -0.8 4.7 Q-2.3 2.1 -3.75 2.0" fill="none" stroke="#121212" stroke-linecap="round" stroke-linejoin="round" stroke-width="1.0"/>
    <path d="M-4.45 11.85 L-6.85 5.2 -5.65 5.45 Q-3.8 6.2 -3.55 6.6 L-3.15 7.2 -3.05 8.1 -3.35 9.8 -3.65 10.9 -4.45 11.85" fill="#0f152e" fill-rule="evenodd" stroke="none"/>
    <path d="M4.2 8.0 L3.95 10.4 3.2 12.45 Q0.95 14.0 -0.65 14.05 -2.75 14.15 -4.4 12.0 L-6.4 6.95 Q-7.3 3.75 -6.8 1.05" fill="none" stroke="#0d0d0d" stroke-linecap="round" stroke-linejoin="round" stroke-width="1.0"/>
    <path d="M-7.15 -4.5 Q-2.8 -4.3 -1.7 -2.15" fill="none" stroke="#1a1a1a" stroke-linecap="round" stroke-linejoin="round" stroke-width="1.0"/>
    <path d="M4.5 0.9 L1.8 0.45" fill="none" stroke="#1a1a1a" stroke-linecap="round" stroke-linejoin="round" stroke-width="1.0"/>
    <path d="M-6.8 5.2 Q-1.35 6.45 -4.3 11.6" fill="none" stroke="#070915" stroke-linecap="round" stroke-linejoin="round" stroke-width="1.0"/>
  </g>
</svg>
