<?xml version="1.0" encoding="UTF-8" standalone="no"?>
<svg xmlns:ffdec="https://www.free-decompiler.com/flash" xmlns:xlink="http://www.w3.org/1999/xlink" ffdec:objectType="shape" height="7.6px" width="20.65px" xmlns="http://www.w3.org/2000/svg">
  <g transform="matrix(1.0, 0.0, 0.0, 1.0, 2.6, 4.4)">
    <path d="M15.2 -3.9 L16.4 -3.9 Q16.85 -3.8 17.15 -3.05 L17.55 -0.6 17.55 1.3 16.65 2.7 -1.25 2.7 Q-1.9 2.7 -2.1 2.3 L-2.1 -0.5 Q-1.7 -1.55 -0.35 -1.55 L4.75 -1.6 5.6 -2.85 7.7 -2.85 9.8 -3.9 10.2 -3.9 10.2 -2.2 12.05 -2.2 15.2 -2.2 15.2 -3.9 M4.75 -1.6 L4.8 -1.6 6.4 -0.6 17.55 -0.6 6.4 -0.6 4.8 -1.6 4.75 -1.6" fill="#4c4c4c" fill-rule="evenodd" stroke="none"/>
    <path d="M10.2 -3.9 L12.05 -3.9 12.05 -2.2 10.2 -2.2 10.2 -3.9" fill="#272727" fill-rule="evenodd" stroke="none"/>
    <path d="M12.05 -3.9 L15.2 -3.9 15.2 -2.2 12.05 -2.2 12.05 -3.9" fill="#505050" fill-rule="evenodd" stroke="none"/>
    <path d="M15.2 -3.9 L16.4 -3.9 Q16.85 -3.8 17.15 -3.05 L17.55 -0.6 17.55 1.3 16.65 2.7 -1.25 2.7 Q-1.9 2.7 -2.1 2.3 L-2.1 -0.5 Q-1.7 -1.55 -0.35 -1.55 L4.75 -1.6 5.6 -2.85 7.7 -2.85 9.8 -3.9 10.2 -3.9 12.05 -3.9 15.2 -3.9 15.2 -2.2 12.05 -2.2 10.2 -2.2 10.2 -3.9 M17.55 -0.6 L6.4 -0.6 4.8 -1.6 4.75 -1.6 M12.05 -2.2 L12.05 -3.9" fill="none" stroke="#272727" stroke-linecap="round" stroke-linejoin="round" stroke-width="1.0"/>
  </g>
</svg>
