<?xml version="1.0" encoding="UTF-8" standalone="no"?>
<svg xmlns:ffdec="https://www.free-decompiler.com/flash" xmlns:xlink="http://www.w3.org/1999/xlink" ffdec:objectType="shape" height="8.4px" width="12.1px" xmlns="http://www.w3.org/2000/svg">
  <g transform="matrix(1.0, 0.0, 0.0, 1.0, -16.6, 4.4)">
    <path d="M19.1 3.0 L17.1 2.1 17.55 1.3 17.55 -0.6 17.15 -3.05 21.85 -3.05 23.15 -3.9 24.95 -3.9 26.0 -3.1 26.9 -3.1 28.1 -1.6 28.15 0.5 23.05 0.5 23.05 3.05 21.1 3.05 19.1 3.0 19.1 0.5 19.1 3.0 M21.1 3.05 L21.1 0.55 21.1 3.05" fill="#605f4d" fill-rule="evenodd" stroke="none"/>
    <path d="M28.15 0.5 L28.2 2.95 26.2 3.5 24.05 3.05 23.05 3.05 23.05 0.5 28.15 0.5" fill="#565447" fill-rule="evenodd" stroke="none"/>
    <path d="M19.1 3.0 L17.1 2.1 17.55 1.3 17.55 -0.6 17.15 -3.05 21.85 -3.05 23.15 -3.9 24.95 -3.9 26.0 -3.1 26.9 -3.1 28.1 -1.6 28.15 0.5" fill="none" stroke="#444138" stroke-linecap="round" stroke-linejoin="round" stroke-width="1.0"/>
    <path d="M28.15 0.5 L28.2 2.95 26.2 3.5 24.05 3.05 23.05 3.05 21.1 3.05 19.1 3.0 19.1 0.5 M21.1 0.55 L21.1 3.05 M23.05 3.05 L23.05 0.5 28.15 0.5" fill="none" stroke="#39362d" stroke-linecap="round" stroke-linejoin="round" stroke-width="1.0"/>
  </g>
</svg>
