<?xml version="1.0" encoding="UTF-8" standalone="no"?>
<svg xmlns:ffdec="https://www.free-decompiler.com/flash" xmlns:xlink="http://www.w3.org/1999/xlink" ffdec:objectType="shape" height="21.65px" width="14.2px" xmlns="http://www.w3.org/2000/svg">
  <g transform="matrix(1.0, 0.0, 0.0, 1.0, 7.8, 4.45)">
    <path d="M1.35 -3.6 L2.3 -3.85 Q4.85 -4.3 5.9 -2.35 6.05 0.05 4.9 2.45 4.55 3.6 3.1 4.15 L2.75 4.15 Q1.6 4.0 -0.3 0.15 -0.1 -0.5 -0.3 -1.45 -0.3 -3.05 1.35 -3.6 M-4.45 1.75 L-4.4 1.75 -3.95 1.75 -4.4 1.75 -4.45 1.75 -4.4 1.75 -4.45 1.75" fill="#333333" fill-rule="evenodd" stroke="none"/>
    <path d="M1.35 -3.6 Q-0.3 -3.05 -0.3 -1.45 -0.1 -0.5 -0.3 0.15 -2.95 1.6 -3.95 1.75 L-4.4 1.75 -4.4 -1.35 Q-2.0 -4.15 1.35 -3.6 M3.1 4.15 Q4.55 3.6 4.9 2.45 4.8 7.85 3.6 8.85 L2.55 9.65 2.55 9.55 Q1.85 6.15 3.1 4.15 M1.0 15.0 Q-2.5 18.3 -4.45 15.15 L1.0 15.0 M-6.1 13.2 L-7.3 6.1 Q-4.85 6.3 -3.8 8.55 -3.15 14.25 -6.1 13.2" fill="#262626" fill-rule="evenodd" stroke="none"/>
    <path d="M-0.3 0.15 Q1.6 4.0 2.75 4.15 L3.1 4.15 Q1.85 6.15 2.55 9.55 L2.55 9.65 1.0 15.0 -4.45 15.15 Q-5.95 15.3 -6.4 14.7 -6.85 14.05 -6.1 13.2 -3.15 14.25 -3.8 8.55 -4.85 6.3 -7.3 6.1 -6.15 2.85 -4.45 1.75 L-4.4 1.75 -3.95 1.75 Q-2.95 1.6 -0.3 0.15" fill="#1e1e1e" fill-rule="evenodd" stroke="none"/>
    <path d="M4.9 2.45 Q6.05 0.05 5.9 -2.35 4.85 -4.3 2.3 -3.85 L1.35 -3.6 Q-0.3 -3.05 -0.3 -1.45 -0.1 -0.5 -0.3 0.15 1.6 4.0 2.75 4.15 L3.1 4.15 Q4.55 3.6 4.9 2.45 4.8 7.85 3.6 8.85 L2.55 9.65 1.0 15.0 Q-2.5 18.3 -4.45 15.15 -5.95 15.3 -6.4 14.7 -6.85 14.05 -6.1 13.2 L-7.3 6.1 Q-6.15 2.85 -4.45 1.75 L-4.4 1.75 -4.4 -1.35 Q-2.0 -4.15 1.35 -3.6 M3.1 4.15 Q1.85 6.15 2.55 9.55 L2.55 9.65 M-4.4 1.75 L-3.95 1.75 -4.4 1.75 -4.45 1.75 -4.4 1.75 M-0.3 0.15 Q-2.95 1.6 -3.95 1.75 M-6.1 13.2 Q-3.15 14.25 -3.8 8.55 -4.85 6.3 -7.3 6.1 M1.0 15.0 L-4.45 15.15" fill="none" stroke="#000000" stroke-linecap="round" stroke-linejoin="round" stroke-width="1.0"/>
  </g>
</svg>
