<?xml version="1.0" encoding="UTF-8" standalone="no"?>
<svg xmlns:ffdec="https://www.free-decompiler.com/flash" xmlns:xlink="http://www.w3.org/1999/xlink" ffdec:objectType="shape" height="19.85px" width="15.9px" xmlns="http://www.w3.org/2000/svg">
  <g transform="matrix(1.0, 0.0, 0.0, 1.0, 2.4, 0.95)">
    <path d="M10.7 2.3 Q8.2 2.8 6.3 5.65 L4.65 18.4 4.05 18.4 Q1.45 18.6 0.6 16.85 -1.65 9.85 0.0 2.05 0.55 0.7 2.55 -0.05 6.05 -0.9 8.6 0.0 10.1 0.8 10.7 2.3" fill="#171717" fill-rule="evenodd" stroke="none"/>
    <path d="M4.65 18.4 L6.3 5.65 Q8.2 2.8 10.7 2.3 11.45 6.35 10.7 9.55 9.8 13.7 8.3 16.65 6.9 18.2 4.65 18.4" fill="#333333" fill-rule="evenodd" stroke="none"/>
    <path d="M10.7 2.3 Q10.1 0.8 8.6 0.0 6.05 -0.9 2.55 -0.05 0.55 0.7 0.0 2.05 -1.65 9.85 0.6 16.85 1.45 18.6 4.05 18.4 L4.65 18.4 Q6.9 18.2 8.3 16.65 9.8 13.7 10.7 9.55 11.45 6.35 10.7 2.3" fill="none" stroke="#090909" stroke-linecap="round" stroke-linejoin="round" stroke-width="1.0"/>
    <path d="M4.65 18.4 L6.3 5.65 Q8.2 2.8 10.7 2.3" fill="none" stroke="#440000" stroke-linecap="round" stroke-linejoin="round" stroke-width="1.0"/>
    <path d="M1.2 3.05 Q2.2 2.4 3.15 1.7 8.25 0.2 11.35 1.55 L12.45 4.8 Q13.25 7.1 12.9 9.25 L12.9 9.4 Q12.4 11.85 11.5 13.95 10.9 15.35 8.05 15.65 5.0 14.8 4.85 14.5 L3.85 13.35 3.85 10.85 2.35 9.3 2.2 9.4 -1.9 9.3 -1.9 6.85 1.5 6.5 1.2 3.05 1.8 6.15 1.2 3.05 M12.45 4.8 Q7.7 3.4 1.8 6.15 7.7 3.4 12.45 4.8 M2.35 9.3 L1.8 6.15 2.35 9.3 M12.9 9.25 L9.95 9.4 Q6.6 9.75 3.85 10.85 6.6 9.75 9.95 9.4 L12.9 9.25" fill="#363636" fill-rule="evenodd" stroke="none"/>
    <path d="M1.8 6.15 Q7.7 3.4 12.45 4.8 M3.85 10.85 Q6.6 9.75 9.95 9.4 L12.9 9.25" fill="none" stroke="#262626" stroke-linecap="round" stroke-linejoin="round" stroke-width="1.0"/>
    <path d="M1.2 3.05 Q2.2 2.4 3.15 1.7 8.25 0.2 11.35 1.55 L12.45 4.8 Q13.25 7.1 12.9 9.25 L12.9 9.4 Q12.4 11.85 11.5 13.95 10.9 15.35 8.05 15.65 5.0 14.8 4.85 14.5 L3.85 13.35 3.85 10.85 2.35 9.3 2.2 9.4 -1.9 9.3 -1.9 6.85 1.5 6.5 1.2 3.05 1.8 6.15 2.35 9.3" fill="none" stroke="#202020" stroke-linecap="round" stroke-linejoin="round" stroke-width="1.0"/>
    <path d="M6.05 8.2 L6.05 4.6 7.55 4.3 7.8 4.3 10.15 4.65 10.2 8.2 9.8 8.2 9.8 10.2 6.35 10.15 6.35 8.2 6.05 8.2 M1.8 8.2 L1.8 4.6 3.25 4.35 3.5 4.3 5.85 4.6 5.85 8.2 5.55 8.2 5.5 10.2 2.05 10.2 2.05 8.15 1.8 8.2 M9.8 8.2 L7.75 8.55 7.5 8.55 6.35 8.2 7.5 8.55 7.75 8.55 9.8 8.2 M5.55 8.2 L3.45 8.55 3.2 8.5 2.05 8.15 3.2 8.5 3.45 8.55 5.55 8.2" fill="#2a2a2a" fill-rule="evenodd" stroke="none"/>
    <path d="M6.05 8.2 L6.05 4.6 7.55 4.3 7.8 4.3 10.15 4.65 10.2 8.2 M9.8 8.2 L9.8 10.2 6.35 10.15 6.35 8.2 7.5 8.55 7.75 8.55 9.8 8.2 M1.8 8.2 L1.8 4.6 3.25 4.35 3.5 4.3 5.85 4.6 5.85 8.2 M5.55 8.2 L5.5 10.2 2.05 10.2 2.05 8.15 3.2 8.5 3.45 8.55 5.55 8.2 Z" fill="none" stroke="#1e1e1e" stroke-linecap="round" stroke-linejoin="round" stroke-width="1.0"/>
  </g>
</svg>
