<?xml version="1.0" encoding="UTF-8" standalone="no"?>
<svg xmlns:ffdec="https://www.free-decompiler.com/flash" xmlns:xlink="http://www.w3.org/1999/xlink" ffdec:objectType="shape" height="18.45px" width="12.7px" xmlns="http://www.w3.org/2000/svg">
  <g transform="matrix(1.0, 0.0, 0.0, 1.0, 5.25, 2.55)">
    <path d="M-3.0 6.0 L-1.65 5.95 -0.2 7.45 4.85 7.7 4.9 7.65 5.05 7.4 5.4 6.8 5.75 8.8 4.4 9.45 3.05 9.5 3.15 10.05 3.4 11.5 4.8 12.75 4.9 13.7 5.75 13.65 Q5.3 15.05 4.05 15.3 2.2 15.65 0.95 14.45 L1.75 12.9 1.35 11.65 0.95 10.2 0.8 9.65 -1.7 8.45 -1.75 8.45 -2.1 8.55 -3.0 6.0 M0.95 10.2 L3.15 10.05 0.95 10.2 M1.35 11.65 L3.4 11.5 1.35 11.65" fill="#4e3e39" fill-rule="evenodd" stroke="none"/>
    <path d="M5.4 6.8 L5.75 8.8 M5.75 13.65 Q5.3 15.05 4.05 15.3 2.2 15.65 0.95 14.45 M-2.1 8.55 L-3.0 6.0 M3.4 11.5 L1.35 11.65 M3.15 10.05 L0.95 10.2" fill="none" stroke="#252323" stroke-linecap="round" stroke-linejoin="round" stroke-width="1.0"/>
    <path d="M4.85 7.7 L-0.2 7.45 -1.95 5.6 -3.95 5.35 Q-4.35 4.6 -4.6 2.3 L-4.75 0.1 -2.9 -1.95 0.0 -2.05 3.95 -1.6 Q4.9 -1.15 5.8 0.7 L6.6 2.5 Q6.55 4.3 5.7 6.2 L5.55 6.5 5.4 6.8 5.05 7.4 4.9 7.65 4.85 7.7 M3.05 9.5 L4.4 9.45 6.4 8.45 6.95 10.8 6.6 13.55 4.9 13.7 4.8 12.75 3.4 11.5 3.05 9.5" fill="#b39a82" fill-rule="evenodd" stroke="none"/>
    <path d="M0.75 14.9 L-1.25 12.5 -2.85 8.7 -1.75 8.45 -1.7 8.45 0.8 9.65 1.75 12.9 0.75 14.9" fill="#917563" fill-rule="evenodd" stroke="none"/>
    <path d="M5.05 7.4 L5.4 6.8 5.55 6.5 5.7 6.2 Q6.55 4.3 6.6 2.5 L5.8 0.7 Q4.9 -1.15 3.95 -1.6 L0.0 -2.05 -2.9 -1.95 -4.75 0.1 -4.6 2.3 Q-4.35 4.6 -3.95 5.35 L-1.95 5.6 -0.2 7.45 4.85 7.7 M3.05 9.5 L3.4 11.5 4.8 12.75 4.9 13.7 6.6 13.55 6.95 10.8 6.4 8.45 4.4 9.45 3.05 9.5" fill="none" stroke="#745b52" stroke-linecap="round" stroke-linejoin="round" stroke-width="1.0"/>
    <path d="M0.75 14.9 L-1.25 12.5 -2.85 8.7 -1.75 8.45 -1.7 8.45 0.8 9.65 1.75 12.9 0.75 14.9 Z" fill="none" stroke="#56433d" stroke-linecap="round" stroke-linejoin="round" stroke-width="1.0"/>
  </g>
</svg>
