<?xml version="1.0" encoding="UTF-8" standalone="no"?>
<svg xmlns:ffdec="https://www.free-decompiler.com/flash" xmlns:xlink="http://www.w3.org/1999/xlink" ffdec:objectType="shape" height="23.55px" width="16.95px" xmlns="http://www.w3.org/2000/svg">
  <g transform="matrix(1.0, 0.0, 0.0, 1.0, -0.5, 0.45)">
    <path d="M3.7 12.8 Q2.15 9.1 2.1 8.35 1.75 6.0 2.1 3.65 2.95 1.4 6.25 0.1 10.45 -0.55 13.85 5.7 17.5 20.2 14.75 21.2 L10.75 22.6 Q6.55 18.4 3.75 12.85 L3.7 12.8" fill="url(#gradient0)" fill-rule="evenodd" stroke="none"/>
    <path d="M3.7 12.8 Q2.15 9.1 2.1 8.35 1.75 6.0 2.1 3.65 2.95 1.4 6.25 0.1 10.45 -0.55 13.85 5.7 17.5 20.2 14.75 21.2 L10.75 22.6 Q6.55 18.4 3.75 12.85" fill="none" stroke="#020202" stroke-linecap="round" stroke-linejoin="round" stroke-width="1.0"/>
    <path d="M13.55 16.85 L13.6 17.25 12.4 19.35 6.15 20.8 4.35 20.9 Q2.75 17.85 1.9 14.6 L1.8 14.3 Q1.2 12.25 1.0 10.15 L1.7 9.35 10.6 7.55 11.55 8.05 12.05 10.45 15.55 9.7 Q16.75 11.35 16.75 12.5 L12.7 13.1 13.0 14.45 16.75 13.9 Q17.2 15.05 16.65 16.15 L13.55 16.85 13.0 14.45 13.55 16.85 M7.85 10.7 L7.6 9.7 7.85 10.7 M12.1 11.75 L10.4 13.2 10.4 15.45 Q7.4 16.85 4.05 16.8 L1.9 14.6 4.05 16.8 Q7.4 16.85 10.4 15.45 L10.4 13.2 12.1 11.75 M8.95 14.75 L8.3 12.3 8.95 14.75 M12.7 13.1 L12.05 10.45 12.7 13.1" fill="#1c1d1a" fill-rule="evenodd" stroke="none"/>
    <path d="M13.55 16.85 L13.6 17.25 12.4 19.35 6.15 20.8 4.35 20.9 Q2.75 17.85 1.9 14.6 L1.8 14.3 Q1.2 12.25 1.0 10.15 L1.7 9.35 10.6 7.55 11.55 8.05 12.05 10.45 15.55 9.7 Q16.75 11.35 16.75 12.5 L12.7 13.1 13.0 14.45 16.75 13.9 Q17.2 15.05 16.65 16.15 L13.55 16.85 13.0 14.45 M1.9 14.6 L4.05 16.8 Q7.4 16.85 10.4 15.45 L10.4 13.2 12.1 11.75 M12.05 10.45 L12.7 13.1" fill="none" stroke="#0e0e0e" stroke-linecap="round" stroke-linejoin="round" stroke-width="1.0"/>
    <path d="M7.6 9.7 L7.85 10.7 M8.3 12.3 L8.95 14.75" fill="none" stroke="#ff0000" stroke-linecap="round" stroke-linejoin="round" stroke-width="1.0"/>
  </g>
  <defs>
    <radialGradient cx="0" cy="0" fx="192.0" fy="0" gradientTransform="matrix(0.0099, -0.0037, 0.0128, 0.0339, 5.5, -1.65)" gradientUnits="userSpaceOnUse" id="gradient0" r="819.2" spreadMethod="pad">
      <stop offset="0.0" stop-color="#1e1e1e"/>
      <stop offset="0.4470588235294118" stop-color="#171717"/>
      <stop offset="1.0" stop-color="#0e0e0e"/>
      <stop offset="1.0" stop-color="#383838"/>
    </radialGradient>
  </defs>
</svg>
