<?xml version="1.0" encoding="UTF-8" standalone="no"?>
<svg xmlns:ffdec="https://www.free-decompiler.com/flash" xmlns:xlink="http://www.w3.org/1999/xlink" ffdec:objectType="shape" height="22.85px" width="15.1px" xmlns="http://www.w3.org/2000/svg">
  <g transform="matrix(1.0, 0.0, 0.0, 1.0, 1.25, 1.35)">
    <path d="M10.95 15.75 L10.7 17.95 10.5 19.25 Q7.6 18.65 6.85 17.65 L8.75 17.1 7.85 16.5 7.0 16.1 5.45 15.7 Q4.7 15.0 7.9 13.9 9.25 13.45 10.95 15.75 M4.5 0.15 L7.95 0.3 8.05 0.3 Q10.05 0.8 10.55 1.4 11.0 2.65 5.3 2.95 3.3 2.45 4.5 0.15 M7.75 9.15 L7.55 10.75 7.4 11.8 6.35 12.1 5.7 12.1 4.1 11.8 3.7 11.2 3.55 11.0 3.3 9.7 Q5.2 11.1 7.75 9.15" fill="#808080" fill-rule="evenodd" stroke="none"/>
    <path d="M11.6 13.05 L11.6 13.1 11.55 13.15 11.35 13.65 11.2 14.05 11.15 14.3 11.25 14.85 11.0 15.6 10.95 15.75 Q9.25 13.45 7.9 13.9 4.6 14.05 6.35 12.1 L7.4 11.8 7.55 10.75 Q10.8 9.3 11.6 13.05 M10.5 19.25 L10.0 20.25 Q8.7 20.95 6.05 21.0 L3.6 20.4 2.2 19.4 2.05 18.35 4.95 18.2 5.0 18.2 6.85 17.65 Q7.6 18.65 10.5 19.25 M0.85 9.0 Q1.05 7.6 0.4 6.5 L0.25 6.25 Q-0.3 5.35 0.4 4.05 0.5 2.25 1.3 1.65 L3.6 0.45 3.7 0.4 3.8 0.35 4.0 0.3 4.5 0.15 Q3.3 2.45 5.3 2.95 L8.2 5.35 5.7 5.0 2.6 5.35 2.6 6.5 3.3 9.7 3.55 11.0 3.7 11.2 Q3.2 13.9 0.85 9.0 M7.25 19.25 Q5.6 19.6 4.95 18.2 5.6 19.6 7.25 19.25" fill="#4f4f4f" fill-rule="evenodd" stroke="none"/>
    <path d="M10.55 1.4 L10.65 1.6 10.65 1.95 Q10.65 2.5 11.0 3.25 L11.75 4.95 Q12.25 6.05 12.2 7.25 L11.65 9.45 Q12.15 10.65 12.0 11.75 L11.85 12.5 11.75 12.7 11.6 13.05 Q10.8 9.3 7.55 10.75 L7.75 9.15 7.95 7.55 8.2 6.5 8.2 5.35 5.3 2.95 Q11.0 2.65 10.55 1.4 M2.05 18.35 L2.0 17.25 1.9 16.15 1.3 13.9 Q0.5 10.35 0.65 9.7 L0.85 9.0 Q3.2 13.9 3.7 11.2 L4.1 11.8 5.7 12.1 6.35 12.1 Q4.6 14.05 7.9 13.9 4.7 15.0 5.45 15.7 L7.0 16.1 7.85 16.5 8.75 17.1 6.85 17.65 5.0 18.2 4.95 18.2 2.05 18.35 M5.45 15.7 L3.8 15.4 3.45 15.25 3.8 15.4 5.45 15.7" fill="#272727" fill-rule="evenodd" stroke="none"/>
    <path d="M8.2 5.35 L8.2 6.5 7.95 7.55 7.75 9.15 Q5.2 11.1 3.3 9.7 L2.6 6.5 2.6 5.35 5.7 5.0 8.2 5.35 M3.4 7.55 L7.95 7.55 3.4 7.55" fill="#484848" fill-rule="evenodd" stroke="none"/>
    <path d="M10.55 1.4 L10.65 1.6 10.65 1.95 Q10.65 2.5 11.0 3.25 L11.75 4.95 Q12.25 6.05 12.2 7.25 L11.65 9.45 Q12.15 10.65 12.0 11.75 L11.85 12.5 11.75 12.7 11.6 13.05 11.6 13.1 11.55 13.15 11.35 13.65 11.2 14.05 Q11.4 14.2 11.25 14.85 L11.0 15.6 10.95 15.75 10.7 17.95 10.5 19.25 10.0 20.25 Q8.7 20.95 6.05 21.0 L3.6 20.4 2.2 19.4 2.05 18.35 2.0 17.25 1.9 16.15 1.3 13.9 Q0.5 10.35 0.65 9.7 L0.85 9.0 Q1.05 7.6 0.4 6.5 L0.25 6.25 Q-0.3 5.35 0.4 4.05 0.5 2.25 1.3 1.65 L3.6 0.45 3.7 0.4 3.8 0.35 4.0 0.3 4.5 0.15 7.95 0.3 8.05 0.3 Q10.05 0.8 10.55 1.4 M8.2 5.35 L8.2 6.5 7.95 7.55 7.75 9.15 7.55 10.75 7.4 11.8 6.35 12.1 5.7 12.1 4.1 11.8 3.7 11.2 3.55 11.0 3.3 9.7 2.6 6.5 2.6 5.35 5.7 5.0 8.2 5.35 M7.95 7.55 L3.4 7.55 M11.2 14.05 L11.15 14.3 11.25 14.85" fill="none" stroke="#1c1c1c" stroke-linecap="round" stroke-linejoin="round" stroke-width="1.0"/>
    <path d="M5.45 15.7 L7.0 16.1 7.85 16.5 8.75 17.1 6.85 17.65 5.0 18.2 M4.95 18.2 Q5.6 19.6 7.25 19.25 M3.45 15.25 L3.8 15.4 5.45 15.7" ffdec:has-small-stroke="true" ffdec:original-stroke-width="0.8" fill="none" stroke="#1c1c1c" stroke-linecap="round" stroke-linejoin="round" stroke-width="1.0"/>
    <path d="M11.3 6.35 L11.3 8.95 9.75 8.95 9.75 6.35 11.3 6.35 M11.35 13.6 L11.35 13.65 9.65 13.65 9.65 13.6 9.65 11.35 11.35 11.35 11.35 13.6" fill="#8a8a8a" fill-rule="evenodd" stroke="none"/>
    <path d="M11.3 8.95 L11.3 6.35 13.1 6.35 Q13.75 7.65 12.6 8.95 L11.3 8.95 M9.75 6.35 L9.75 8.95 8.2 8.95 8.2 11.35 9.65 11.35 9.65 13.6 8.2 13.6 8.2 14.05 1.6 14.05 1.6 13.6 0.5 13.6 Q-0.6 12.5 0.0 11.35 L1.6 11.35 1.6 8.95 -0.05 8.95 Q-1.1 7.55 -0.55 6.35 L1.6 6.35 1.6 3.85 3.25 3.85 3.25 0.05 Q4.4 -1.3 5.5 -0.6 L5.5 3.85 8.2 3.85 8.2 6.35 9.75 6.35 M11.35 11.35 L12.65 11.35 Q13.05 12.5 12.1 13.6 L11.35 13.6 11.35 11.35 M8.2 8.95 L8.2 6.35 8.2 8.95 M1.6 6.35 L1.6 8.95 1.6 6.35 M1.6 11.35 L1.6 13.6 1.6 11.35 M8.2 13.6 L8.2 11.35 8.2 13.6 M5.5 3.85 L3.25 3.85 5.5 3.85" fill="#1e1e1e" fill-rule="evenodd" stroke="none"/>
    <path d="M11.3 8.95 L12.6 8.95 Q13.75 7.65 13.1 6.35 L11.3 6.35 M11.35 11.35 L12.65 11.35 Q13.05 12.5 12.1 13.6 L11.35 13.6" fill="none" stroke="#252525" stroke-linecap="round" stroke-linejoin="round" stroke-width="1.0"/>
    <path d="M9.65 13.6 L8.2 13.6 8.2 14.05 1.6 14.05 1.6 13.6 0.5 13.6 Q-0.6 12.5 0.0 11.35 L1.6 11.35 1.6 8.95 -0.05 8.95 Q-1.1 7.55 -0.55 6.35 L1.6 6.35 1.6 3.85 3.25 3.85 3.25 0.05 Q4.4 -1.3 5.5 -0.6 L5.5 3.85 8.2 3.85 8.2 6.35 9.75 6.35 M1.6 8.95 L1.6 6.35 M8.2 6.35 L8.2 8.95 9.75 8.95 M8.2 8.95 L8.2 11.35 9.65 11.35 M3.25 3.85 L5.5 3.85 M8.2 11.35 L8.2 13.6 M1.6 13.6 L1.6 11.35" fill="none" stroke="#151515" stroke-linecap="round" stroke-linejoin="round" stroke-width="1.0"/>
    <path d="M11.3 6.35 L11.3 8.95 9.75 8.95 9.75 6.35 11.3 6.35 M11.35 13.6 L11.35 13.65 9.65 13.65 9.65 13.6 9.65 11.35 11.35 11.35 11.35 13.6 Z" fill="none" stroke="#383838" stroke-linecap="round" stroke-linejoin="round" stroke-width="1.0"/>
    <path d="M5.25 5.5 L5.25 4.3 7.75 4.3 7.75 5.5 5.25 5.5 M1.6 4.4 L4.1 4.4 4.1 5.6 1.6 5.6 1.6 4.4 M1.6 6.55 L4.1 6.55 4.1 7.75 1.6 7.75 1.6 6.55 M1.6 12.1 L1.6 10.9 4.1 10.9 4.1 12.1 1.6 12.1 M1.6 8.7 L4.1 8.7 4.1 9.9 1.6 9.9 1.6 8.7 M5.25 6.45 L7.75 6.45 7.75 7.65 5.25 7.65 5.25 6.45 M5.25 12.0 L5.25 10.8 7.75 10.8 7.75 12.0 5.25 12.0 M5.25 9.8 L5.25 8.6 7.75 8.6 7.75 9.8 5.25 9.8" fill="#511212" fill-rule="evenodd" stroke="none"/>
    <path d="M5.25 4.3 L7.75 4.3 7.75 5.5 5.25 5.5 M1.6 4.4 L4.1 4.4 4.1 5.6 1.6 5.6 M1.6 6.55 L4.1 6.55 4.1 7.75 1.6 7.75 M1.6 10.9 L4.1 10.9 4.1 12.1 1.6 12.1 M1.6 8.7 L4.1 8.7 4.1 9.9 1.6 9.9 M5.25 6.45 L7.75 6.45 7.75 7.65 5.25 7.65 M5.25 10.8 L7.75 10.8 7.75 12.0 5.25 12.0 M5.25 8.6 L7.75 8.6 7.75 9.8 5.25 9.8" ffdec:has-small-stroke="true" ffdec:original-stroke-width="0.8" fill="none" stroke="#330f0f" stroke-linecap="round" stroke-linejoin="round" stroke-width="1.0"/>
    <path d="M5.25 5.5 L5.25 4.3 M1.6 5.6 L1.6 4.4 M1.6 7.75 L1.6 6.55 M1.6 12.1 L1.6 10.9 M1.6 9.9 L1.6 8.7 M5.25 7.65 L5.25 6.45 M5.25 12.0 L5.25 10.8 M5.25 9.8 L5.25 8.6" ffdec:has-small-stroke="true" ffdec:original-stroke-width="0.8" fill="none" stroke="#c49701" stroke-linecap="round" stroke-linejoin="round" stroke-width="1.0"/>
    <path d="M6.9 4.15 L6.85 12.9 M3.25 3.9 L3.2 12.05" fill="none" stroke="#151515" stroke-linecap="round" stroke-linejoin="round" stroke-width="1.5"/>
  </g>
</svg>
