<?xml version="1.0" encoding="UTF-8" standalone="no"?>
<svg xmlns:ffdec="https://www.free-decompiler.com/flash" xmlns:xlink="http://www.w3.org/1999/xlink" ffdec:objectType="shape" height="22.7px" width="12.05px" xmlns="http://www.w3.org/2000/svg">
  <g transform="matrix(1.0, 0.0, 0.0, 1.0, 6.3, 5.7)">
    <path d="M-2.55 -4.9 Q1.2 -6.1 3.35 -2.6 5.45 0.95 5.25 8.0 5.0 14.95 3.15 15.8 1.1 16.65 -0.15 16.45 -1.8 15.35 -3.6 11.15 -5.35 6.95 -5.75 1.55 -6.25 -3.7 -2.55 -4.9" fill="#191919" fill-rule="evenodd" stroke="none"/>
    <path d="M-2.55 -4.9 Q-6.25 -3.7 -5.75 1.55 -5.35 6.95 -3.6 11.15 -1.8 15.35 -0.15 16.45 1.1 16.65 3.15 15.8 5.0 14.95 5.25 8.0 5.45 0.95 3.35 -2.6 1.2 -6.1 -2.55 -4.9 Z" fill="none" stroke="#0f0f0f" stroke-linecap="round" stroke-linejoin="round" stroke-width="1.0"/>
  </g>
</svg>
