<?xml version="1.0" encoding="UTF-8" standalone="no"?>
<svg xmlns:ffdec="https://www.free-decompiler.com/flash" xmlns:xlink="http://www.w3.org/1999/xlink" ffdec:objectType="shape" height="19.6px" width="11.2px" xmlns="http://www.w3.org/2000/svg">
  <g transform="matrix(1.0, 0.0, 0.0, 1.0, 4.95, 4.3)">
    <path d="M5.0 -2.35 Q5.7 -1.6 5.75 0.15 5.75 1.55 5.35 3.1 4.95 4.6 4.65 8.85 L4.45 12.8 Q4.2 14.8 1.7 14.8 -0.75 14.75 -1.6 12.8 L-3.15 8.75 Q-4.6 4.3 -4.45 2.4 -4.2 -0.45 -3.55 -1.75 -2.75 -3.35 -0.95 -3.65 0.4 -3.9 2.0 -3.65 4.05 -3.4 5.0 -2.35" fill="url(#gradient0)" fill-rule="evenodd" stroke="none"/>
    <path d="M5.0 -2.35 Q5.7 -1.6 5.75 0.15 5.75 1.55 5.35 3.1 4.95 4.6 4.65 8.85 L4.45 12.8 Q4.2 14.8 1.7 14.8 -0.75 14.75 -1.6 12.8 L-3.15 8.75 Q-4.6 4.3 -4.45 2.4 -4.2 -0.45 -3.55 -1.75 -2.75 -3.35 -0.95 -3.65 0.4 -3.9 2.0 -3.65 4.05 -3.4 5.0 -2.35 Z" fill="none" stroke="#333333" stroke-linecap="round" stroke-linejoin="round" stroke-width="1.05"/>
    <path d="M-1.45 2.25 L-1.5 0.45 -1.3 -1.05 2.25 -0.75 2.25 1.6 2.05 2.3" fill="none" stroke="#4d4d4d" stroke-linecap="round" stroke-linejoin="round" stroke-width="1.05"/>
    <path d="M-1.8 6.25 Q-1.8 8.2 -0.65 10.05 L0.5 11.45" fill="none" stroke="#4d4d4d" stroke-linecap="round" stroke-linejoin="round" stroke-width="1.05"/>
    <path d="M3.75 4.0 Q3.45 6.8 2.45 8.1 L1.75 8.75 1.5 8.9" fill="none" stroke="#4d4d4d" stroke-linecap="round" stroke-linejoin="round" stroke-width="1.05"/>
  </g>
  <defs>
    <linearGradient gradientTransform="matrix(0.0037, 2.0E-4, -2.0E-4, 0.0033, -2.1, 5.35)" gradientUnits="userSpaceOnUse" id="gradient0" spreadMethod="pad" x1="-819.2" x2="819.2">
      <stop offset="0.0" stop-color="#4b4b4b"/>
      <stop offset="1.0" stop-color="#646464"/>
    </linearGradient>
  </defs>
</svg>
