<?xml version="1.0" encoding="UTF-8" standalone="no"?>
<svg xmlns:ffdec="https://www.free-decompiler.com/flash" xmlns:xlink="http://www.w3.org/1999/xlink" ffdec:objectType="shape" height="20.35px" width="16.4px" xmlns="http://www.w3.org/2000/svg">
  <g transform="matrix(1.0, 0.0, 0.0, 1.0, 8.8, 4.25)">
    <path d="M2.45 -1.7 L6.0 -3.75 7.1 -1.4 7.05 1.95 5.8 3.9 2.25 1.2 2.45 -1.7" fill="#527174" fill-rule="evenodd" stroke="none"/>
    <path d="M5.8 3.9 L5.05 6.45 5.05 8.8 2.75 14.85 1.2 15.3 1.35 8.75 -1.4 6.9 -2.3 8.55 -2.7 15.55 -4.95 15.1 -5.35 12.2 -4.65 10.2 -5.9 8.65 -5.9 7.15 -4.65 5.75 -5.55 4.1 -5.05 2.95 -3.15 2.4 -3.15 0.65 Q-1.7 -0.95 2.45 -1.7 L2.25 1.2 5.8 3.9" fill="#435f62" fill-rule="evenodd" stroke="none"/>
    <path d="M1.2 15.3 L-2.7 15.55 -2.3 8.55 -1.4 6.9 1.35 8.75 1.2 15.3" fill="#4d7071" fill-rule="evenodd" stroke="none"/>
    <path d="M-5.05 2.95 L-7.05 1.8 -5.25 0.15 -3.15 0.65 -3.15 2.4 -5.05 2.95" fill="url(#gradient0)" fill-rule="evenodd" stroke="none"/>
    <path d="M-5.9 7.15 L-8.3 6.75 -8.0 4.65 -5.55 4.1 -4.65 5.75 -5.9 7.15" fill="url(#gradient1)" fill-rule="evenodd" stroke="none"/>
    <path d="M-5.35 12.2 L-6.8 10.4 -5.9 8.65 -4.65 10.2 -5.35 12.2" fill="url(#gradient2)" fill-rule="evenodd" stroke="none"/>
    <path d="M2.45 -1.7 L6.0 -3.75 7.1 -1.4 7.05 1.95 5.8 3.9 2.25 1.2 2.45 -1.7 M-2.7 15.55 L-2.3 8.55 -1.4 6.9 1.35 8.75 1.2 15.3" fill="none" stroke="#2f4245" stroke-linecap="round" stroke-linejoin="round" stroke-width="1.0"/>
    <path d="M5.8 3.9 L5.05 6.45 5.05 8.8 2.75 14.85 1.2 15.3 -2.7 15.55 -4.95 15.1 -5.35 12.2 -6.8 10.4 -5.9 8.65 -5.9 7.15 -8.3 6.75 -8.0 4.65 -5.55 4.1 -5.05 2.95 -7.05 1.8 -5.25 0.15 -3.15 0.65 Q-1.7 -0.95 2.45 -1.7" fill="none" stroke="#1c312f" stroke-linecap="round" stroke-linejoin="round" stroke-width="1.0"/>
    <path d="M-3.15 0.65 L-3.15 2.4 -5.05 2.95 M-5.55 4.1 L-4.65 5.75 -5.9 7.15 M-5.9 8.65 L-4.65 10.2 -5.35 12.2" fill="none" stroke="#3b5152" stroke-linecap="round" stroke-linejoin="round" stroke-width="1.0"/>
  </g>
  <defs>
    <linearGradient gradientTransform="matrix(0.0013, 0.0, 0.0, 0.0018, -5.2, 1.65)" gradientUnits="userSpaceOnUse" id="gradient0" spreadMethod="pad" x1="-819.2" x2="819.2">
      <stop offset="0.0" stop-color="#2b685e"/>
      <stop offset="0.5215686274509804" stop-color="#66b2ac"/>
      <stop offset="1.0" stop-color="#2b685e"/>
    </linearGradient>
    <linearGradient gradientTransform="matrix(0.0015, -4.0E-4, 5.0E-4, 0.0019, -5.45, 7.1)" gradientUnits="userSpaceOnUse" id="gradient1" spreadMethod="pad" x1="-819.2" x2="819.2">
      <stop offset="0.0" stop-color="#2b685e"/>
      <stop offset="0.5215686274509804" stop-color="#66b2ac"/>
      <stop offset="1.0" stop-color="#2b685e"/>
    </linearGradient>
    <linearGradient gradientTransform="matrix(0.0011, 0.0, 0.0, 0.002, -6.4, 12.25)" gradientUnits="userSpaceOnUse" id="gradient2" spreadMethod="pad" x1="-819.2" x2="819.2">
      <stop offset="0.0" stop-color="#2b685e"/>
      <stop offset="0.5215686274509804" stop-color="#66b2ac"/>
      <stop offset="1.0" stop-color="#2b685e"/>
    </linearGradient>
  </defs>
</svg>
