<?xml version="1.0" encoding="UTF-8" standalone="no"?>
<svg xmlns:ffdec="https://www.free-decompiler.com/flash" xmlns:xlink="http://www.w3.org/1999/xlink" ffdec:objectType="shape" height="20.6px" width="15.1px" xmlns="http://www.w3.org/2000/svg">
  <g transform="matrix(1.0, 0.0, 0.0, 1.0, 6.6, 4.95)">
    <path d="M-5.0 4.55 L-1.6 5.95 4.2 5.3 4.5 8.6 6.2 10.2 5.95 12.15 4.7 13.25 -2.5 12.9 -4.8 10.45 -5.3 5.85 -5.0 4.55" fill="#313731" fill-rule="evenodd" stroke="none"/>
    <path d="M5.4 3.0 L7.2 2.7 7.75 3.4 8.0 6.85 7.55 8.45 6.5 10.3 4.9 9.35 3.8 7.0 4.05 4.35 5.1 3.0 5.4 3.0" fill="url(#gradient0)" fill-rule="evenodd" stroke="none"/>
    <path d="M-5.3 -3.25 L-0.3 -4.45 2.55 -4.4 6.7 -2.9 7.25 -0.45 6.8 2.55 5.1 2.95 4.2 3.7 4.0 4.85 2.15 5.3 2.15 1.8 0.5 1.55 -0.35 1.95 -0.7 6.05 -2.1 5.8 Q-4.15 4.8 -6.25 3.85 L-5.8 2.6 -5.95 -1.15 -5.9 -2.3 -5.3 -3.25" fill="#394039" fill-rule="evenodd" stroke="none"/>
    <path d="M-1.65 5.95 L-0.85 5.95 -0.5 2.0 -0.1 1.7 0.9 1.5 2.05 1.9 2.0 3.35 Q1.95 4.8 2.05 5.15 L2.2 5.3 2.25 5.15 4.05 4.8 4.55 9.15 2.7 10.15 1.6 11.7 -1.5 12.4 -2.5 12.5 -3.55 12.45 -3.95 11.25 -4.55 10.4 -3.85 9.95 -2.3 8.25 -1.65 5.95" fill="#151715" fill-rule="evenodd" stroke="none"/>
    <path d="M-5.0 -3.5 Q-5.95 -2.65 -5.7 0.05 -5.5 2.85 -6.15 3.85 L-1.9 5.9" ffdec:has-small-stroke="true" ffdec:original-stroke-width="0.95" fill="none" stroke="#272b26" stroke-linecap="round" stroke-linejoin="round" stroke-width="1.0"/>
    <path d="M2.15 5.05 L2.15 1.9 -0.5 1.8 -1.05 5.95" ffdec:has-small-stroke="true" ffdec:original-stroke-width="0.95" fill="none" stroke="#000000" stroke-linecap="round" stroke-linejoin="round" stroke-width="1.0"/>
    <path d="M-5.15 4.45 L-5.2 8.25 Q-4.95 10.55 -3.2 12.7" ffdec:has-small-stroke="true" ffdec:original-stroke-width="0.95" fill="none" stroke="#101210" stroke-linecap="round" stroke-linejoin="round" stroke-width="1.0"/>
    <path d="M6.8 -2.75 L7.25 -0.05 6.95 2.3" ffdec:has-small-stroke="true" ffdec:original-stroke-width="0.95" fill="none" stroke="#272b26" stroke-linecap="round" stroke-linejoin="round" stroke-width="1.0"/>
    <path d="M7.05 2.55 L5.1 2.95 4.2 3.8 4.0 4.65 2.35 5.35" ffdec:has-small-stroke="true" ffdec:original-stroke-width="0.95" fill="none" stroke="#161b16" stroke-linecap="round" stroke-linejoin="round" stroke-width="1.0"/>
    <path d="M7.5 2.85 L8.05 5.5 7.7 8.1 6.65 10.05" ffdec:has-small-stroke="true" ffdec:original-stroke-width="0.95" fill="none" stroke="#272b26" stroke-linecap="round" stroke-linejoin="round" stroke-width="1.0"/>
    <path d="M4.2 5.0 Q3.95 7.05 4.2 7.95 4.55 9.15 6.25 10.3" ffdec:has-small-stroke="true" ffdec:original-stroke-width="0.95" fill="none" stroke="#111211" stroke-linecap="round" stroke-linejoin="round" stroke-width="1.0"/>
    <path d="M4.4 8.95 L2.75 9.95 1.9 11.65 0.1 12.0 -1.8 12.7" ffdec:has-small-stroke="true" ffdec:original-stroke-width="0.95" fill="none" stroke="#111211" stroke-linecap="round" stroke-linejoin="round" stroke-width="1.0"/>
    <path d="M-4.75 -3.6 L-0.1 -4.5 Q2.9 -4.6 6.8 -2.8" ffdec:has-small-stroke="true" ffdec:original-stroke-width="0.95" fill="none" stroke="#111211" stroke-linecap="round" stroke-linejoin="round" stroke-width="1.0"/>
    <path d="M-1.25 5.85 Q-1.25 9.0 -4.6 10.55" ffdec:has-small-stroke="true" ffdec:original-stroke-width="0.95" fill="none" stroke="#101210" stroke-linecap="round" stroke-linejoin="round" stroke-width="1.0"/>
    <path d="M6.35 10.5 L6.15 12.05 4.5 13.55" ffdec:has-small-stroke="true" ffdec:original-stroke-width="0.95" fill="none" stroke="#101210" stroke-linecap="round" stroke-linejoin="round" stroke-width="1.0"/>
    <path d="M-3.1 12.55 L5.2 13.0 4.55 14.65 2.35 15.2 -1.3 14.9 -2.45 14.25 -3.1 13.75 -3.1 12.55" fill="#313731" fill-rule="evenodd" stroke="none"/>
    <path d="M-3.1 12.55 L-3.1 13.75 -2.45 14.25 -1.3 14.9 2.35 15.2 4.55 14.65 5.2 13.0 -3.1 12.55 Z" ffdec:has-small-stroke="true" ffdec:original-stroke-width="0.95" fill="none" stroke="#101210" stroke-linecap="round" stroke-linejoin="round" stroke-width="1.0"/>
    <path d="M-4.9 -3.25 L-1.4 -0.7 3.35 -0.75 6.25 -3.0" ffdec:has-small-stroke="true" ffdec:original-stroke-width="0.95" fill="none" stroke="#1f221f" stroke-linecap="round" stroke-linejoin="round" stroke-opacity="0.39215687" stroke-width="1.0"/>
  </g>
  <defs>
    <linearGradient gradientTransform="matrix(0.0025, 0.0, 0.0, 0.0023, 5.9, 6.5)" gradientUnits="userSpaceOnUse" id="gradient0" spreadMethod="pad" x1="-819.2" x2="819.2">
      <stop offset="0.0" stop-color="#515a4f"/>
      <stop offset="1.0" stop-color="#5c645b"/>
    </linearGradient>
  </defs>
</svg>
