<?xml version="1.0" encoding="UTF-8" standalone="no"?>
<svg xmlns:xlink="http://www.w3.org/1999/xlink" height="10.95px" width="15.75px" xmlns="http://www.w3.org/2000/svg">
  <g transform="matrix(1.0, 0.0, 0.0, 1.0, 7.85, 5.55)">
    <path d="M0.45 -0.45 Q0.45 -1.1 0.0 -1.55 -0.45 -2.0 -1.1 -2.0 -1.75 -2.0 -2.2 -1.55 -2.65 -1.1 -2.65 -0.45 -2.65 0.2 -2.2 0.65 -1.75 1.1 -1.1 1.1 -0.45 1.1 0.0 0.65 0.45 0.2 0.45 -0.45 M0.1 4.75 L-0.15 4.7 Q-2.9 4.55 -4.9 3.25 -6.95 1.9 -7.15 -0.55 -7.4 -3.0 -5.2 -4.05 -3.05 -5.15 -0.05 -4.8 2.95 -4.5 5.0 -3.2 7.1 -1.85 7.25 0.5 L7.2 1.2 Q7.0 3.0 5.2 3.85 3.0 4.85 0.1 4.75" fill="#39c529" fill-opacity="0.9019608" fill-rule="evenodd" stroke="none"/>
    <path d="M0.45 -0.45 Q0.45 0.2 0.0 0.65 -0.45 1.1 -1.1 1.1 -1.75 1.1 -2.2 0.65 -2.65 0.2 -2.65 -0.45 -2.65 -1.1 -2.2 -1.55 -1.75 -2.0 -1.1 -2.0 -0.45 -2.0 0.0 -1.55 0.45 -1.1 0.45 -0.45" fill="#32a824" fill-rule="evenodd" stroke="none"/>
    <path d="M0.1 4.75 L-0.15 4.7 Q-2.9 4.55 -4.9 3.25 -6.95 1.9 -7.15 -0.55 -7.4 -3.0 -5.2 -4.05 -3.05 -5.15 -0.05 -4.8 2.95 -4.5 5.0 -3.2 7.1 -1.85 7.25 0.5 L7.2 1.2 Q7.0 3.0 5.2 3.85 3.0 4.85 0.1 4.75 Z" fill="none" stroke="#3c3322" stroke-linecap="square" stroke-linejoin="round" stroke-opacity="0.7529412" stroke-width="1.0"/>
  </g>
</svg>
