<?xml version="1.0" encoding="UTF-8" standalone="no"?>
<svg xmlns:ffdec="https://www.free-decompiler.com/flash" xmlns:xlink="http://www.w3.org/1999/xlink" ffdec:objectType="shape" height="21.0px" width="15.0px" xmlns="http://www.w3.org/2000/svg">
  <g transform="matrix(1.0, 0.0, 0.0, 1.0, 7.5, 4.55)">
    <path d="M-1.3 -3.7 Q0.6 -3.85 2.65 -2.55 L4.35 -1.25 5.1 1.95 Q5.9 5.55 5.8 7.35 L5.55 9.55 Q5.85 10.0 5.25 10.05 4.5 10.1 4.45 10.4 L5.1 10.7 5.8 11.35 5.5 11.75 5.0 12.15 Q4.1 14.35 3.15 14.95 L0.4 15.9 Q-1.4 16.25 -2.5 14.8 -2.75 15.05 -3.7 13.1 -3.8 13.0 -4.25 12.85 L-4.75 12.55 -4.75 11.9 Q-4.65 11.5 -4.8 11.3 L-4.85 10.5 Q-4.8 9.95 -5.05 9.85 L-6.3 10.15 -6.3 9.75 -6.05 9.2 -6.65 5.1 Q-6.9 1.95 -6.45 -0.65 L-5.4 -2.0 Q-3.85 -3.45 -1.3 -3.7" fill="#444444" fill-rule="evenodd" stroke="none"/>
    <path d="M-1.3 -3.7 Q-3.85 -3.45 -5.4 -2.0 L-6.45 -0.65 Q-6.9 1.95 -6.65 5.1 L-6.05 9.2 -6.3 9.75 -6.3 10.15 -5.05 9.85 Q-4.8 9.95 -4.85 10.5 L-4.8 11.3 Q-4.65 11.5 -4.75 11.9 L-4.75 12.55 -4.25 12.85 Q-3.8 13.0 -3.7 13.1 -2.75 15.05 -2.5 14.8 -1.4 16.25 0.4 15.9 L3.15 14.95 Q4.1 14.35 5.0 12.15 L5.5 11.75 5.8 11.35 5.1 10.7 4.45 10.4 Q4.5 10.1 5.25 10.05 5.85 10.0 5.55 9.55 L5.8 7.35 Q5.9 5.55 5.1 1.95 L4.35 -1.25 2.65 -2.55 Q0.6 -3.85 -1.3 -3.7 Z" fill="none" stroke="#1a1a1a" stroke-linecap="round" stroke-linejoin="round" stroke-width="1.05"/>
    <path d="M-1.7 -4.05 L0.4 -3.95 0.7 -1.95 Q1.15 0.2 1.85 1.0 2.4 1.6 4.05 2.1 L5.55 2.5 Q5.9 3.2 5.95 5.9 L5.9 8.45 -6.45 7.95 Q-6.8 6.65 -6.95 4.45 L-7.0 2.5 -5.55 2.0 Q-3.95 1.4 -3.4 0.8 -2.7 0.0 -2.1 -2.1 L-1.7 -4.05" fill="#323232" fill-rule="evenodd" stroke="none"/>
    <path d="M-1.7 -4.05 L0.4 -3.95 0.7 -1.95 Q1.15 0.2 1.85 1.0 2.4 1.6 4.05 2.1 L5.55 2.5 Q5.9 3.2 5.95 5.9 L5.9 8.45 -6.45 7.95 Q-6.8 6.65 -6.95 4.45 L-7.0 2.5 -5.55 2.0 Q-3.95 1.4 -3.4 0.8 -2.7 0.0 -2.1 -2.1 L-1.7 -4.05 Z" fill="none" stroke="#1a1a1a" stroke-linecap="round" stroke-linejoin="round" stroke-width="1.05"/>
    <path d="M-2.1 12.3 L-0.95 11.4 Q0.45 10.55 2.05 10.4" fill="none" stroke="#1a1a1a" stroke-linecap="round" stroke-linejoin="round" stroke-width="1.05"/>
    <path d="M-2.9 3.6 L1.55 3.45 1.3 9.9 -2.75 9.85 -2.9 3.6" fill="#2a2a2a" fill-rule="evenodd" stroke="none"/>
    <path d="M-2.9 3.6 L-2.75 9.85 1.3 9.9 1.55 3.45" fill="none" stroke="#131313" stroke-linecap="round" stroke-linejoin="round" stroke-width="1.05"/>
    <path d="M-2.9 3.6 L1.55 3.45" fill="none" stroke="#1a1a1a" stroke-linecap="round" stroke-linejoin="round" stroke-width="1.05"/>
    <path d="M6.95 6.2 Q6.9 8.2 6.55 8.85 L3.2 8.9 Q3.65 5.85 3.4 4.3 4.35 4.0 7.0 4.25 L6.95 6.2" fill="#2a2a2a" fill-rule="evenodd" stroke="none"/>
    <path d="M6.95 6.2 Q6.9 8.2 6.55 8.85 L3.2 8.9 Q3.65 5.85 3.4 4.3 4.35 4.0 7.0 4.25 L6.95 6.2 Z" fill="none" stroke="#131313" stroke-linecap="round" stroke-linejoin="round" stroke-width="1.05"/>
    <path d="M-5.0 2.3 L-4.95 4.75 -6.9 4.85" fill="none" stroke="#1a1a1a" stroke-linecap="round" stroke-linejoin="round" stroke-width="1.05"/>
    <path d="M-0.7 3.95 L-0.8 6.45" fill="none" stroke="#1a1a1a" stroke-linecap="round" stroke-linejoin="round" stroke-width="1.05"/>
    <path d="M-2.9 0.4 L-1.7 1.15 Q-0.15 1.75 1.5 0.85" fill="none" stroke="#292929" stroke-linecap="round" stroke-linejoin="round" stroke-width="1.05"/>
  </g>
</svg>
