<?xml version="1.0" encoding="UTF-8" standalone="no"?>
<svg xmlns:xlink="http://www.w3.org/1999/xlink" height="22.1px" width="22.1px" xmlns="http://www.w3.org/2000/svg">
  <g transform="matrix(1.0, 0.0, 0.0, 1.0, 11.5, 10.55)">
    <path d="M-0.45 -10.55 Q4.1 -10.55 7.35 -7.3 10.6 -4.1 10.6 0.5 10.6 5.1 7.35 8.3 4.1 11.55 -0.45 11.55 -5.05 11.55 -8.3 8.3 -11.5 5.1 -11.5 0.5 -11.5 -4.1 -8.3 -7.3 -5.05 -10.55 -0.45 -10.55" fill="url(#gradient0)" fill-rule="evenodd" stroke="none"/>
    <path d="M-0.25 -2.15 Q1.25 -2.15 2.3 -1.5 3.35 -0.8 3.35 0.25 3.35 1.3 2.3 2.0 1.25 2.7 -0.25 2.7 -1.75 2.7 -2.8 2.0 -3.85 1.3 -3.85 0.25 -3.85 -0.8 -2.8 -1.5 -1.75 -2.15 -0.25 -2.15" fill="#ffffff" fill-rule="evenodd" stroke="none"/>
    <path d="M-0.25 -2.15 Q1.25 -2.15 2.3 -1.5 3.35 -0.8 3.35 0.25 3.35 1.3 2.3 2.0 1.25 2.7 -0.25 2.7 -1.75 2.7 -2.8 2.0 -3.85 1.3 -3.85 0.25 -3.85 -0.8 -2.8 -1.5 -1.75 -2.15 -0.25 -2.15 Z" fill="none" stroke="#def2fe" stroke-linecap="round" stroke-linejoin="round" stroke-width="1.0"/>
  </g>
  <defs>
    <radialGradient cx="0" cy="0" gradientTransform="matrix(0.0136, 0.0, 0.0, 0.0136, -0.45, 0.5)" gradientUnits="userSpaceOnUse" id="gradient0" r="819.2" spreadMethod="pad">
      <stop offset="0.23529411764705882" stop-color="#ffffff" stop-opacity="0.4509804"/>
      <stop offset="0.611764705882353" stop-color="#ebf9ff" stop-opacity="0.12156863"/>
      <stop offset="1.0" stop-color="#d5f2ff" stop-opacity="0.0"/>
    </radialGradient>
  </defs>
</svg>
