<?xml version="1.0" encoding="UTF-8" standalone="no"?>
<svg xmlns:ffdec="https://www.free-decompiler.com/flash" xmlns:xlink="http://www.w3.org/1999/xlink" ffdec:objectType="shape" height="20.15px" width="12.1px" xmlns="http://www.w3.org/2000/svg">
  <g transform="matrix(1.0, 0.0, 0.0, 1.0, 6.3, 5.7)">
    <path d="M-2.7 -4.75 Q0.9 -6.1 3.0 -3.2 5.1 -0.15 5.25 6.2 5.55 12.6 3.55 13.35 1.6 14.25 -0.1 13.8 -1.8 12.95 -3.55 9.35 -5.2 5.8 -5.75 1.1 -6.25 -3.5 -2.7 -4.75" fill="#191919" fill-rule="evenodd" stroke="none"/>
    <path d="M-2.7 -4.75 Q-6.25 -3.5 -5.75 1.1 -5.2 5.8 -3.55 9.35 -1.8 12.95 -0.1 13.8 1.6 14.25 3.55 13.35 5.55 12.6 5.25 6.2 5.1 -0.15 3.0 -3.2 0.9 -6.1 -2.7 -4.75 Z" fill="none" stroke="#0f0f0f" stroke-linecap="round" stroke-linejoin="round" stroke-width="1.0"/>
  </g>
</svg>
