<?xml version="1.0" encoding="UTF-8" standalone="no"?>
<svg xmlns:ffdec="https://www.free-decompiler.com/flash" xmlns:xlink="http://www.w3.org/1999/xlink" ffdec:objectType="shape" height="22.85px" width="15.45px" xmlns="http://www.w3.org/2000/svg">
  <g transform="matrix(1.0, 0.0, 0.0, 1.0, 1.6, 1.35)">
    <path d="M6.05 21.0 L3.6 20.4 4.3 16.65 5.0 18.2 5.0 18.25 7.75 17.9 8.5 18.55 6.05 21.0 M2.2 1.1 L3.6 0.45 3.7 0.4 3.8 0.35 4.0 0.3 5.4 2.4 8.05 2.25 8.05 0.3 Q10.4 0.9 10.65 1.6 L10.65 1.95 Q10.65 2.5 11.0 3.25 L11.75 4.95 Q12.25 6.05 12.2 7.25 L9.6 9.35 9.6 5.45 8.2 5.95 8.2 5.35 5.7 5.0 8.2 5.35 8.2 5.95 6.9 6.35 5.7 5.0 2.2 1.1 M5.0 18.2 L4.95 18.2 Q5.6 19.6 7.25 19.25 5.6 19.6 4.95 18.2 L5.0 18.2" fill="#6d6d6d" fill-rule="evenodd" stroke="none"/>
    <path d="M4.0 0.3 Q5.65 -0.3 7.95 0.3 L8.05 0.3 8.05 2.25 5.4 2.4 4.0 0.3 M7.65 9.9 L8.4 11.2 9.55 13.9 7.0 16.0 7.0 16.1 7.0 17.3 7.3 17.55 7.75 17.9 5.0 18.25 5.0 18.2 4.3 16.65 3.8 15.4 7.0 16.1 3.8 15.4 3.65 15.1 5.7 13.85 5.7 12.1 5.7 9.4 6.85 8.5 7.65 9.9 7.4 11.8 5.7 12.1 7.4 11.8 7.65 9.9 M7.3 17.55 L5.0 18.2 7.3 17.55" fill="#3f3f3f" fill-rule="evenodd" stroke="none"/>
    <path d="M12.2 7.25 L11.65 9.45 Q12.15 10.65 12.0 11.75 L9.55 13.9 8.4 11.2 7.65 9.9 7.95 7.55 8.2 6.5 8.2 5.95 8.2 6.5 7.95 7.55 7.65 9.9 6.85 8.5 7.95 7.55 6.9 6.35 8.2 5.95 9.6 5.45 9.6 9.35 12.2 7.25 M3.6 20.4 L2.2 19.4 2.0 17.25 1.9 16.15 3.45 15.25 3.8 15.4 3.45 15.25 3.65 15.1 3.8 15.4 4.3 16.65 3.6 20.4" fill="#4d4d4d" fill-rule="evenodd" stroke="none"/>
    <path d="M12.0 11.75 L11.85 12.5 11.75 12.7 11.6 13.05 11.6 13.1 11.55 13.15 11.35 13.65 11.15 14.3 11.15 14.4 11.25 14.85 11.0 15.6 Q10.8 16.2 10.7 17.95 10.65 19.45 10.0 20.25 8.7 20.95 6.05 21.0 L8.5 18.55 7.75 17.9 7.3 17.55 7.0 17.3 7.0 16.1 Q8.1 16.5 8.75 17.1 L7.3 17.55 8.75 17.1 Q8.1 16.5 7.0 16.1 L7.0 16.0 9.55 13.9 12.0 11.75 M1.9 16.15 L1.5 14.4 1.3 13.9 Q0.5 10.35 0.65 9.7 1.2 7.9 0.4 6.5 L0.25 6.25 Q-0.3 5.35 0.4 4.05 0.5 2.25 1.3 1.65 L1.4 1.6 2.05 1.2 2.2 1.1 5.7 5.0 6.9 6.35 7.95 7.55 6.85 8.5 5.7 9.4 5.7 12.1 4.1 11.8 3.55 11.0 2.6 6.5 2.6 5.35 5.7 5.0 2.6 5.35 2.6 6.5 3.55 11.0 4.1 11.8 5.7 12.1 5.7 13.85 3.65 15.1 3.45 15.25 1.9 16.15 M3.4 7.55 L7.95 7.55 3.4 7.55" fill="#808080" fill-rule="evenodd" stroke="none"/>
    <path d="M12.2 7.25 L11.65 9.45 Q12.15 10.65 12.0 11.75 L11.85 12.5 11.75 12.7 11.6 13.05 11.6 13.1 11.55 13.15 11.35 13.65 11.2 14.05 11.35 14.4 11.25 14.85 11.0 15.6 Q10.8 16.2 10.7 17.95 10.65 19.45 10.0 20.25 8.7 20.95 6.05 21.0 L3.6 20.4 2.2 19.4 2.0 17.25 1.9 16.15 1.5 14.4 1.3 13.9 Q0.5 10.35 0.65 9.7 1.2 7.9 0.4 6.5 L0.25 6.25 Q-0.3 5.35 0.4 4.05 0.5 2.25 1.3 1.65 M1.4 1.6 L2.05 1.2 M2.2 1.1 L3.6 0.45 3.7 0.4 3.8 0.35 4.0 0.3 Q5.65 -0.3 7.95 0.3 L8.05 0.3 Q10.4 0.9 10.65 1.6 L10.65 1.95 Q10.65 2.5 11.0 3.25 L11.75 4.95 Q12.25 6.05 12.2 7.25 M8.2 5.95 L8.2 6.5 7.95 7.55 7.65 9.9 7.4 11.8 5.7 12.1 4.1 11.8 3.55 11.0 2.6 6.5 2.6 5.35 5.7 5.0 8.2 5.35 8.2 5.95 M7.95 7.55 L3.4 7.55 M11.15 14.3 L11.15 14.4 11.25 14.85 M11.2 14.05 L11.15 14.3" fill="none" stroke="#252525" stroke-linecap="round" stroke-linejoin="round" stroke-width="1.0"/>
    <path d="M7.3 17.55 L8.75 17.1 Q8.1 16.5 7.0 16.1 L3.8 15.4 3.45 15.25 M5.0 18.2 L7.3 17.55 M7.25 19.25 Q5.6 19.6 4.95 18.2 L5.0 18.2" fill="none" stroke="#252525" stroke-linecap="round" stroke-linejoin="round" stroke-width="0.8"/>
    <path d="M13.1 6.3 Q13.65 7.55 13.05 8.8 L13.0 8.8 10.6 8.8 10.6 11.2 12.85 11.2 Q13.4 12.3 12.85 13.4 L12.85 13.45 10.6 13.45 10.6 13.9 0.35 13.9 0.35 13.45 -0.65 13.5 Q-1.3 11.85 -0.7 11.25 L0.35 11.2 0.35 8.8 -0.65 8.85 Q-1.45 7.4 -0.75 6.3 L0.35 6.2 0.35 3.7 3.4 3.7 3.4 0.05 Q4.55 -1.3 5.65 -0.6 L5.65 3.7 10.6 3.7 10.6 6.2 13.0 6.2 13.1 6.3 M10.6 8.8 L10.6 6.2 10.6 8.8 M10.6 13.45 L10.6 11.2 10.6 13.45 M0.35 11.2 L0.35 13.45 0.35 11.2 M0.35 6.2 L0.35 8.8 0.35 6.2 M5.65 3.7 L3.4 3.7 5.65 3.7" fill="#353535" fill-rule="evenodd" stroke="none"/>
    <path d="M13.05 8.8 Q13.65 7.55 13.1 6.3 M13.0 6.2 L10.6 6.2 10.6 8.8 13.0 8.8 M10.6 8.8 L10.6 11.2 12.85 11.2 Q13.4 12.3 12.85 13.4 M12.85 13.45 L10.6 13.45 10.6 13.9 0.35 13.9 0.35 13.45 -0.65 13.5 Q-1.3 11.85 -0.7 11.25 L0.35 11.2 0.35 8.8 -0.65 8.85 Q-1.45 7.4 -0.75 6.3 L0.35 6.2 0.35 3.7 3.4 3.7 3.4 0.05 Q4.55 -1.3 5.65 -0.6 L5.65 3.7 10.6 3.7 10.6 6.2 M3.4 3.7 L5.65 3.7 M0.35 8.8 L0.35 6.2 M0.35 13.45 L0.35 11.2 M10.6 11.2 L10.6 13.45" fill="none" stroke="#070606" stroke-linecap="round" stroke-linejoin="round" stroke-width="1.0"/>
    <path d="M5.9 9.9 L5.9 12.35 2.95 12.35 2.95 9.9 Q4.55 11.7 5.9 9.9 M3.35 5.0 L5.55 5.0 5.55 8.55 Q4.5 10.05 3.35 8.45 L3.35 5.0 M7.0 5.0 L9.2 5.0 9.2 8.55 Q8.15 10.05 7.0 8.45 L7.0 5.0 M9.55 9.9 L9.55 12.35 6.6 12.35 6.6 9.9 Q8.25 11.7 9.55 9.9 M2.2 9.9 L2.2 12.35 -0.7 12.35 -0.7 9.9 Q0.9 11.7 2.2 9.9 M-0.3 5.0 L1.9 5.0 1.9 8.55 Q0.85 10.05 -0.3 8.45 L-0.3 5.0" fill="#272727" fill-rule="evenodd" stroke="none"/>
    <path d="M5.55 5.0 L6.15 5.0 6.15 8.65 5.9 9.1 5.9 9.9 Q4.55 11.7 2.95 9.9 L2.95 9.05 2.7 8.65 2.7 5.0 3.35 5.0 3.35 8.45 Q4.5 10.05 5.55 8.55 L5.55 5.0 M6.6 9.9 L6.6 9.05 6.35 8.65 6.35 5.0 7.0 5.0 7.0 8.45 Q8.15 10.05 9.2 8.55 L9.2 5.0 9.8 5.0 9.8 8.65 9.55 9.1 9.55 9.9 Q8.25 11.7 6.6 9.9 M1.9 5.0 L2.5 5.0 2.5 8.65 2.2 9.1 2.2 9.9 Q0.9 11.7 -0.7 9.9 L-0.7 9.05 -0.95 8.65 -0.95 5.0 -0.3 5.0 -0.3 8.45 Q0.85 10.05 1.9 8.55 L1.9 5.0 M9.8 8.65 L9.25 9.45 8.3 10.15 7.85 10.1 7.0 9.45 6.35 8.65 7.0 9.45 7.85 10.1 8.3 10.15 9.25 9.45 9.8 8.65 M6.15 8.65 L5.55 9.45 4.65 10.15 4.2 10.1 3.35 9.45 2.7 8.65 3.35 9.45 4.2 10.1 4.65 10.15 5.55 9.45 6.15 8.65 M2.5 8.65 L1.9 9.45 1.0 10.15 0.55 10.1 -0.3 9.45 -0.95 8.65 -0.3 9.45 0.55 10.1 1.0 10.15 1.9 9.45 2.5 8.65" fill="#3f1313" fill-rule="evenodd" stroke="none"/>
    <path d="M5.55 5.0 L6.15 5.0 6.15 8.65 5.9 9.1 5.9 9.9 5.9 12.35 2.95 12.35 2.95 9.9 2.95 9.05 2.7 8.65 2.7 5.0 3.35 5.0 5.55 5.0 M6.6 9.9 L6.6 9.05 6.35 8.65 6.35 5.0 7.0 5.0 9.2 5.0 9.8 5.0 9.8 8.65 9.55 9.1 9.55 9.9 9.55 12.35 6.6 12.35 6.6 9.9 M1.9 5.0 L2.5 5.0 2.5 8.65 2.2 9.1 2.2 9.9 2.2 12.35 -0.7 12.35 -0.7 9.9 -0.7 9.05 -0.95 8.65 -0.95 5.0 -0.3 5.0 1.9 5.0 M-0.95 8.65 L-0.3 9.45 0.55 10.1 1.0 10.15 1.9 9.45 2.5 8.65 M2.7 8.65 L3.35 9.45 4.2 10.1 4.65 10.15 5.55 9.45 6.15 8.65 M6.35 8.65 L7.0 9.45 7.85 10.1 8.3 10.15 9.25 9.45 9.8 8.65" fill="none" stroke="#090909" stroke-linecap="round" stroke-linejoin="round" stroke-width="0.8"/>
  </g>
</svg>
