<?xml version="1.0" encoding="UTF-8" standalone="no"?>
<svg xmlns:ffdec="https://www.free-decompiler.com/flash" xmlns:xlink="http://www.w3.org/1999/xlink" ffdec:objectType="shape" height="24.65px" width="15.25px" xmlns="http://www.w3.org/2000/svg">
  <g transform="matrix(1.0, 0.0, 0.0, 1.0, 7.6, 7.0)">
    <path d="M-6.5 4.55 L-6.25 -0.95 Q-5.95 -3.05 -4.75 -4.75 -2.0 -7.25 0.75 -6.15 3.45 -5.1 4.45 -2.1 L5.95 2.25 3.0 1.2 1.9 -0.65 Q-0.8 -1.65 -3.25 0.15 L-3.5 2.15 -6.5 4.55" fill="#191919" fill-rule="evenodd" stroke="none"/>
    <path d="M7.15 5.2 Q7.0 9.75 5.85 13.65 L5.15 15.7 Q2.2 17.75 -1.7 16.95 -4.9 12.3 -6.4 7.3 L-2.3 4.15 -1.6 2.0 1.3 1.65 2.4 3.6 7.15 5.2 M5.6 6.55 L5.3 6.55 5.6 6.55 M3.0 16.15 L-1.35 11.45 -4.1 11.8 -1.35 11.45 3.0 16.15 M-4.2 7.65 L-4.5 7.7 -4.2 7.65" fill="url(#gradient0)" fill-rule="evenodd" stroke="none"/>
    <path d="M5.95 2.25 L7.1 2.1 7.15 5.2 2.4 3.6 1.3 1.65 -1.6 2.0 -2.3 4.15 -6.4 7.3 -7.1 4.65 -6.5 4.55 -3.5 2.15 -3.25 0.15 Q-0.8 -1.65 1.9 -0.65 L3.0 1.2 5.95 2.25" fill="url(#gradient1)" fill-rule="evenodd" stroke="none"/>
    <path d="M-6.5 4.55 L-6.25 -0.95 Q-5.95 -3.05 -4.75 -4.75 -2.0 -7.25 0.75 -6.15 3.45 -5.1 4.45 -2.1 L5.95 2.25" fill="none" stroke="#000000" stroke-linecap="round" stroke-linejoin="round" stroke-width="1.0"/>
    <path d="M5.3 6.55 L5.6 6.55 M-4.5 7.7 L-4.2 7.65" fill="none" stroke="#0e0e0e" stroke-linecap="round" stroke-linejoin="round" stroke-width="1.0"/>
    <path d="M-4.1 11.8 L-1.35 11.45 3.0 16.15" fill="none" stroke="url(#gradient2)" stroke-linecap="round" stroke-linejoin="round" stroke-width="1.0"/>
    <path d="M7.15 5.2 L2.4 3.6 1.3 1.65 -1.65 2.0 -2.3 4.15 -6.4 7.3" fill="none" stroke="url(#gradient3)" stroke-linecap="round" stroke-linejoin="round" stroke-width="1.0"/>
    <path d="M7.15 5.2 L7.1 2.1 5.95 2.25 3.0 1.2 1.9 -0.65 Q-0.8 -1.65 -3.25 0.2 L-3.5 2.15 -6.5 4.55 -7.1 4.65 -6.4 7.3 Q-4.95 12.3 -1.7 16.95 2.2 17.75 5.15 15.7 L5.8 13.65 Q7.0 9.75 7.15 5.2 Z" fill="none" stroke="#0e0e0e" stroke-linecap="round" stroke-linejoin="round" stroke-width="1.0"/>
  </g>
  <defs>
    <radialGradient cx="0" cy="0" gradientTransform="matrix(0.0112, -0.0013, 0.0014, 0.0122, 0.55, 7.8)" gradientUnits="userSpaceOnUse" id="gradient0" r="819.2" spreadMethod="pad">
      <stop offset="0.0" stop-color="#333333"/>
      <stop offset="1.0" stop-color="#1c1c1c"/>
    </radialGradient>
    <radialGradient cx="0" cy="0" gradientTransform="matrix(0.0113, -0.0013, 0.0014, 0.0123, -1.65, 1.7)" gradientUnits="userSpaceOnUse" id="gradient1" r="819.2" spreadMethod="pad">
      <stop offset="0.0" stop-color="#333333"/>
      <stop offset="1.0" stop-color="#1c1c1c"/>
    </radialGradient>
    <linearGradient gradientTransform="matrix(0.0093, -0.0011, 0.0017, 0.015, 0.2, 5.1)" gradientUnits="userSpaceOnUse" id="gradient2" spreadMethod="pad" x1="-819.2" x2="819.2">
      <stop offset="0.0" stop-color="#333333"/>
      <stop offset="1.0" stop-color="#000000"/>
    </linearGradient>
    <linearGradient gradientTransform="matrix(0.0093, -0.0011, 0.0013, 0.0114, 0.45, 7.1)" gradientUnits="userSpaceOnUse" id="gradient3" spreadMethod="pad" x1="-819.2" x2="819.2">
      <stop offset="0.0" stop-color="#333333"/>
      <stop offset="1.0" stop-color="#000000"/>
    </linearGradient>
  </defs>
</svg>
