<?xml version="1.0" encoding="UTF-8" standalone="no"?>
<svg xmlns:ffdec="https://www.free-decompiler.com/flash" xmlns:xlink="http://www.w3.org/1999/xlink" ffdec:objectType="shape" height="24.25px" width="18.45px" xmlns="http://www.w3.org/2000/svg">
  <g transform="matrix(1.0, 0.0, 0.0, 1.0, 0.5, 0.5)">
    <path d="M8.65 16.75 L5.8 14.75 Q1.85 9.05 0.0 2.8 4.8 0.1 10.4 0.0 L15.4 4.1 Q17.3 10.2 17.0 15.85 15.75 14.3 14.0 14.6 L8.65 16.75" fill="url(#gradient0)" fill-rule="evenodd" stroke="none"/>
    <path d="M10.65 21.6 Q8.85 20.05 8.7 18.05 L14.25 15.7 Q17.9 14.9 17.4 19.55 16.75 22.35 15.5 23.0 13.35 23.9 10.65 21.6" fill="url(#gradient1)" fill-rule="evenodd" stroke="none"/>
    <path d="M2.9 15.6 L1.2 10.15 5.1 16.15 7.4 17.75 Q7.15 20.3 10.45 23.05 4.25 21.45 2.9 15.6" fill="url(#gradient2)" fill-rule="evenodd" stroke="none"/>
    <path d="M8.65 16.75 L14.0 14.6 Q15.75 14.3 17.0 15.85 17.3 10.2 15.4 4.1 L10.4 0.0 Q4.8 0.1 0.0 2.8 1.85 9.05 5.8 14.75 L8.65 16.75 M10.65 21.6 Q13.35 23.9 15.5 23.0 16.75 22.35 17.4 19.55 17.9 14.9 14.25 15.7 L8.7 18.05 Q8.85 20.05 10.65 21.6 M2.9 15.6 L1.2 10.15 5.1 16.15 7.4 17.75 Q7.15 20.3 10.45 23.05 4.25 21.45 2.9 15.6 Z" fill="none" stroke="#040a2e" stroke-linecap="round" stroke-linejoin="round" stroke-width="1.0"/>
    <path d="M12.5 20.15 Q14.3 19.95 14.75 21.5 14.3 22.15 13.0 21.5 11.5 20.25 12.5 20.15 M5.3 6.55 Q7.1 6.35 7.55 7.9 7.1 8.55 5.8 7.9 4.3 6.65 5.3 6.55 M2.45 3.35 Q5.0 3.1 5.65 5.25 5.05 6.2 3.15 5.25 1.05 3.5 2.45 3.35 M12.75 11.75 Q13.65 9.35 15.7 11.05 16.2 12.1 14.45 13.25 11.85 14.15 12.75 11.75" fill="#3d7595" fill-opacity="0.29803923" fill-rule="evenodd" stroke="none"/>
  </g>
  <defs>
    <radialGradient cx="0" cy="0" gradientTransform="matrix(0.0293, -0.0057, 0.0062, 0.0316, 1.6, 10.8)" gradientUnits="userSpaceOnUse" id="gradient0" r="819.2" spreadMethod="pad">
      <stop offset="0.0" stop-color="#17d7c6"/>
      <stop offset="0.34901960784313724" stop-color="#1fcb8d"/>
      <stop offset="0.5882352941176471" stop-color="#c4b81b"/>
      <stop offset="1.0" stop-color="#910000"/>
      <stop offset="1.0" stop-color="#fff23f"/>
      <stop offset="1.0" stop-color="#ff1305"/>
    </radialGradient>
    <radialGradient cx="0" cy="0" gradientTransform="matrix(0.0203, 0.0, 0.0, 0.0203, 6.85, 19.5)" gradientUnits="userSpaceOnUse" id="gradient1" r="819.2" spreadMethod="pad">
      <stop offset="0.0" stop-color="#17d7c6"/>
      <stop offset="0.34901960784313724" stop-color="#1fcb8d"/>
      <stop offset="0.5882352941176471" stop-color="#c4b81b"/>
      <stop offset="1.0" stop-color="#910000"/>
      <stop offset="1.0" stop-color="#fff23f"/>
      <stop offset="1.0" stop-color="#ff1305"/>
    </radialGradient>
    <radialGradient cx="0" cy="0" gradientTransform="matrix(0.0067, -0.0038, 0.0108, 0.0188, 6.0, 16.45)" gradientUnits="userSpaceOnUse" id="gradient2" r="819.2" spreadMethod="pad">
      <stop offset="0.0" stop-color="#17d7c6"/>
      <stop offset="0.34901960784313724" stop-color="#1fcb8d"/>
      <stop offset="0.5882352941176471" stop-color="#c4b81b"/>
      <stop offset="1.0" stop-color="#910000"/>
      <stop offset="1.0" stop-color="#fff23f"/>
      <stop offset="1.0" stop-color="#ff1305"/>
    </radialGradient>
  </defs>
</svg>
