<?xml version="1.0" encoding="UTF-8" standalone="no"?>
<svg xmlns:xlink="http://www.w3.org/1999/xlink" height="7.9px" width="51.3px" xmlns="http://www.w3.org/2000/svg">
  <g transform="matrix(1.0, 0.0, 0.0, 1.0, 8.2, 3.95)">
    <path d="M0.5 -2.3 L6.35 -2.1 6.45 -2.1 6.45 2.15 6.1 2.15 0.5 2.25 0.5 -2.3" fill="#666666" fill-rule="evenodd" stroke="none"/>
    <path d="M0.5 2.25 L0.0 2.25 -5.45 1.6 -6.55 1.2 Q-7.7 0.7 -7.7 0.0 -7.7 -0.95 -5.45 -1.6 L0.15 -2.3 0.5 -2.3 0.5 2.25" fill="#999999" fill-rule="evenodd" stroke="none"/>
    <path d="M0.5 -2.3 L6.35 -2.1 M6.45 -2.1 L6.45 2.15 6.1 2.15 0.5 2.25" fill="none" stroke="#444444" stroke-linecap="round" stroke-linejoin="round" stroke-width="1.0"/>
    <path d="M0.5 2.25 L0.0 2.25 -5.45 1.6 -6.55 1.2 Q-7.7 0.7 -7.7 0.0 -7.7 -0.95 -5.45 -1.6 L0.15 -2.3 0.5 -2.3" fill="none" stroke="#595959" stroke-linecap="round" stroke-linejoin="round" stroke-width="1.0"/>
    <path d="M32.7 -2.8 Q43.1 -1.65 43.1 0.0 43.1 1.65 32.7 2.8 L7.4 3.95 6.45 3.95 6.45 -3.95 7.4 -3.95 32.7 -2.8" fill="url(#gradient0)" fill-rule="evenodd" stroke="none"/>
  </g>
  <defs>
    <radialGradient cx="0" cy="0" gradientTransform="matrix(0.0442, 0.0, 0.0, 0.0049, 7.4, 0.0)" gradientUnits="userSpaceOnUse" id="gradient0" r="819.2" spreadMethod="pad">
      <stop offset="0.41568627450980394" stop-color="#ffffff"/>
      <stop offset="1.0" stop-color="#99ccff" stop-opacity="0.0"/>
    </radialGradient>
  </defs>
</svg>
