<?xml version="1.0" encoding="UTF-8" standalone="no"?>
<svg xmlns:xlink="http://www.w3.org/1999/xlink" height="21.9px" width="61.95px" xmlns="http://www.w3.org/2000/svg">
  <g transform="matrix(1.0, 0.0, 0.0, 1.0, 18.1, 8.15)">
    <path d="M3.05 -4.2 Q3.8 -1.5 5.7 0.75 3.1 0.0 0.4 0.75 L3.05 2.45 5.7 0.75 5.7 -2.45 3.05 -4.2 Q2.35 -1.2 0.4 0.75 L0.4 -2.45 3.05 -4.2 0.4 -2.45 0.4 0.75 Q2.35 -1.2 3.05 -4.2 L5.7 -2.45 5.7 0.75 3.05 2.45 0.4 0.75 Q3.1 0.0 5.7 0.75 3.8 -1.5 3.05 -4.2 M7.65 -5.1 Q8.3 -3.4 9.6 -1.6 L10.45 -0.5 Q11.7 1.1 13.9 1.5 13.5 2.0 13.5 2.65 13.5 3.5 14.1 4.1 14.7 4.65 15.5 4.65 16.35 4.65 16.95 4.1 L17.15 3.8 18.65 4.25 Q19.25 4.5 19.75 4.9 21.05 5.95 21.35 7.7 19.85 7.8 18.9 8.7 L18.6 8.95 17.25 9.55 8.6 9.55 Q6.35 8.2 6.35 7.2 6.3 5.2 4.85 4.1 3.6 4.5 1.0 3.45 L0.2 3.1 Q-2.7 1.6 -3.8 2.4 -2.55 -0.4 -2.3 -3.9 -2.55 -0.4 -3.8 2.4 -4.95 4.8 -7.15 5.7 L-9.0 5.7 Q-7.8 3.35 -7.8 0.85 -5.85 1.25 -5.05 -0.5 -4.9 -1.65 -5.35 -2.5 -4.2 -3.8 -2.3 -3.9 L-2.25 -5.65 -2.25 -5.85 2.4 -6.5 7.35 -5.85 7.65 -5.1 M20.0 -6.35 L20.8 -6.4 25.8 -6.2 25.85 -6.0 26.15 -5.25 26.2 -5.1 26.2 -5.05 26.2 -5.0 26.8 -1.4 Q23.65 -2.0 20.0 -6.35 M36.55 -6.0 L36.5 -6.25 Q38.4 -6.55 40.15 -6.25 L41.65 2.15 42.0 3.85 Q40.75 0.7 37.4 -1.25 L37.1 -2.95 37.05 -3.1 36.55 -6.0" fill="#840000" fill-rule="evenodd" stroke="none"/>
    <path d="M9.6 -1.6 Q8.3 -3.4 7.65 -5.1 L16.6 -5.1 Q16.7 -3.7 16.45 -3.1 L9.6 -1.6 M-3.8 2.4 Q-2.7 1.6 0.2 3.1 -1.45 5.0 -1.9 6.95 L-2.0 8.45 -1.85 9.7 Q-1.9 11.1 -2.55 12.05 L-4.0 13.25 Q-7.25 12.7 -9.05 11.0 -7.35 8.6 -7.15 5.7 -4.95 4.8 -3.8 2.4 M25.85 -6.0 L36.55 -6.0 37.05 -3.1 37.1 -2.95 37.4 -1.25 37.8 1.25 Q38.4 4.55 39.3 7.8 L29.15 7.8 Q28.0 4.3 27.25 0.8 L26.8 -1.4 26.2 -5.0 26.2 -5.05 26.2 -5.1 26.15 -5.25 25.85 -6.0 M28.35 -3.2 Q28.2 -1.8 29.1 -0.7 L35.4 -0.7 Q35.35 -1.8 34.6 -3.2 L28.35 -3.2 M36.6 4.9 Q36.55 3.8 35.8 2.4 L29.55 2.4 Q29.4 3.8 30.3 4.9 L36.6 4.9 M-1.85 9.7 Q-4.05 8.6 -4.3 6.95 -4.05 8.6 -1.85 9.7 M-5.25 9.7 Q-4.65 11.7 -2.55 12.05 -4.65 11.7 -5.25 9.7" fill="#353638" fill-rule="evenodd" stroke="none"/>
    <path d="M-2.25 -5.85 L-2.25 -5.65 -2.3 -3.9 Q-4.2 -3.8 -5.35 -2.5 -4.9 -1.65 -5.05 -0.5 -5.85 1.25 -7.8 0.85 -7.8 3.35 -9.0 5.7 -13.2 5.55 -15.75 4.25 L-16.1 3.4 -16.65 1.7 Q-17.25 -0.4 -17.45 -2.65 L-17.5 -3.15 -17.55 -4.4 -17.55 -5.15 Q-17.25 -6.45 -15.4 -7.15 L-11.4 -7.5 -8.85 -7.55 -6.45 -7.4 Q-3.85 -7.1 -2.55 -6.1 L-2.25 -5.85 M21.35 7.7 Q21.05 5.95 19.75 4.9 19.25 4.5 18.65 4.25 L17.15 3.8 16.95 4.1 Q16.35 4.65 15.5 4.65 14.7 4.65 14.1 4.1 13.5 3.5 13.5 2.65 13.5 2.0 13.9 1.5 11.7 1.1 10.45 -0.5 L9.6 -1.6 16.45 -3.1 Q16.7 -3.7 16.6 -5.1 L18.4 -5.95 20.0 -6.35 Q23.65 -2.0 26.8 -1.4 L27.25 0.8 Q28.0 4.3 29.15 7.8 L29.5 8.85 Q25.95 9.4 21.45 8.25 L21.4 7.95 21.35 7.7 M42.0 3.85 L42.65 6.6 43.35 9.0 Q41.75 10.1 39.65 9.0 L39.3 7.8 Q38.4 4.55 37.8 1.25 L37.4 -1.25 Q40.75 0.7 42.0 3.85 M17.15 3.8 L17.5 2.65 17.15 3.8 M16.35 0.85 L15.5 0.65 14.9 0.75 14.1 1.25 13.9 1.5 14.1 1.25 14.9 0.75 15.5 0.65 16.35 0.85 M26.1 6.45 Q25.6 4.55 24.4 3.1 25.6 4.55 26.1 6.45 M23.65 6.8 Q23.15 4.9 21.95 3.45 23.15 4.9 23.65 6.8 M-10.85 0.6 Q-11.25 0.25 -11.75 0.25 -12.25 0.25 -12.65 0.6 -13.0 1.0 -13.0 1.5 L-12.65 2.4 Q-12.25 2.75 -11.75 2.75 -11.25 2.75 -10.85 2.4 -10.5 2.0 -10.5 1.5 -10.5 1.0 -10.85 0.6" fill="#a30007" fill-rule="evenodd" stroke="none"/>
    <path d="M28.35 -3.2 L34.6 -3.2 Q35.35 -1.8 35.4 -0.7 L29.1 -0.7 Q28.2 -1.8 28.35 -3.2 M36.6 4.9 L30.3 4.9 Q29.4 3.8 29.55 2.4 L35.8 2.4 Q36.55 3.8 36.6 4.9" fill="#ffffff" fill-rule="evenodd" stroke="none"/>
    <path d="M0.2 3.1 L1.0 3.45 0.0 6.55 -1.95 7.2 -1.9 6.95 Q-1.45 5.0 0.2 3.1" fill="#191718" fill-rule="evenodd" stroke="none"/>
    <path d="M-10.85 0.6 Q-10.5 1.0 -10.5 1.5 -10.5 2.0 -10.85 2.4 -11.25 2.75 -11.75 2.75 -12.25 2.75 -12.65 2.4 L-13.0 1.5 Q-13.0 1.0 -12.65 0.6 -12.25 0.25 -11.75 0.25 -11.25 0.25 -10.85 0.6" fill="#4f75b2" fill-rule="evenodd" stroke="none"/>
    <path d="M9.6 -1.6 Q8.3 -3.4 7.65 -5.1 L7.35 -5.85 2.4 -6.5 -2.25 -5.85 -2.25 -5.65 -2.3 -3.9 Q-2.55 -0.4 -3.8 2.4 -2.7 1.6 0.2 3.1 M6.35 7.2 Q6.35 8.2 8.6 9.55 L17.25 9.55 18.6 8.95 18.9 8.7 Q19.85 7.8 21.35 7.7 21.05 5.95 19.75 4.9 19.25 4.5 18.65 4.25 L17.15 3.8 16.95 4.1 Q16.35 4.65 15.5 4.65 14.7 4.65 14.1 4.1 13.5 3.5 13.5 2.65 13.5 2.0 13.9 1.5 11.7 1.1 10.45 -0.5 L9.6 -1.6 16.45 -3.1 Q16.7 -3.7 16.6 -5.1 L18.4 -5.95 20.0 -6.35 20.8 -6.4 25.8 -6.2 25.85 -6.0 26.15 -5.25 26.2 -5.1 M36.55 -6.0 L36.5 -6.25 Q38.4 -6.55 40.15 -6.25 L41.65 2.15 42.0 3.85 42.65 6.6 43.35 9.0 Q41.75 10.1 39.65 9.0 L39.3 7.8 Q38.4 4.55 37.8 1.25 L37.4 -1.25 Q40.75 0.7 42.0 3.85 M29.15 7.8 L29.5 8.85 Q25.95 9.4 21.45 8.25 L21.4 7.95 21.35 7.7 M26.2 -5.05 L26.2 -5.0 26.8 -1.4 27.25 0.8 Q28.0 4.3 29.15 7.8 M37.4 -1.25 L37.1 -2.95 37.05 -3.1 36.55 -6.0 M26.8 -1.4 Q23.65 -2.0 20.0 -6.35 M21.95 3.45 Q23.15 4.9 23.65 6.8 M24.4 3.1 Q25.6 4.55 26.1 6.45 M13.9 1.5 L14.1 1.25 14.9 0.75 15.5 0.65 16.35 0.85 M17.5 2.65 L17.15 3.8 M-2.25 -5.85 L-2.55 -6.1 Q-3.85 -7.1 -6.45 -7.4 L-8.85 -7.55 -11.4 -7.5 -15.4 -7.15 Q-17.25 -6.45 -17.55 -5.15 L-17.55 -4.4 -17.5 -3.15 -17.45 -2.65 Q-17.25 -0.4 -16.65 1.7 L-16.1 3.4 -15.75 4.25 Q-13.2 5.55 -9.0 5.7 -7.8 3.35 -7.8 0.85 -5.85 1.25 -5.05 -0.5 -4.9 -1.65 -5.35 -2.5 -4.2 -3.8 -2.3 -3.9 M-7.15 5.7 L-9.0 5.7 M-7.15 5.7 Q-4.95 4.8 -3.8 2.4" fill="none" stroke="#430102" stroke-linecap="round" stroke-linejoin="round" stroke-width="1.0"/>
    <path d="M3.05 -4.2 L0.4 -2.45 0.4 0.75 Q2.35 -1.2 3.05 -4.2 L5.7 -2.45 5.7 0.75 3.05 2.45 0.4 0.75 Q3.1 0.0 5.7 0.75 3.8 -1.5 3.05 -4.2 M-10.85 0.6 Q-10.5 1.0 -10.5 1.5 -10.5 2.0 -10.85 2.4 -11.25 2.75 -11.75 2.75 -12.25 2.75 -12.65 2.4 L-13.0 1.5 Q-13.0 1.0 -12.65 0.6 -12.25 0.25 -11.75 0.25 -11.25 0.25 -10.85 0.6" fill="none" stroke="#325185" stroke-linecap="round" stroke-linejoin="round" stroke-width="1.0"/>
    <path d="M4.85 4.1 Q6.3 5.2 6.35 7.2 M16.6 -5.1 L7.65 -5.1 M25.85 -6.0 L36.55 -6.0 M39.3 7.8 L29.15 7.8 M28.35 -3.2 L34.6 -3.2 Q35.35 -1.8 35.4 -0.7 L29.1 -0.7 Q28.2 -1.8 28.35 -3.2 M36.6 4.9 L30.3 4.9 Q29.4 3.8 29.55 2.4 L35.8 2.4 Q36.55 3.8 36.6 4.9 M-1.95 7.2 L0.0 6.55 1.0 3.45 M-2.0 8.45 L-1.85 9.7 Q-1.9 11.1 -2.55 12.05 L-4.0 13.25 Q-7.25 12.7 -9.05 11.0 -7.35 8.6 -7.15 5.7 M-4.3 6.95 Q-4.05 8.6 -1.85 9.7 M-2.55 12.05 Q-4.65 11.7 -5.25 9.7" fill="none" stroke="#191718" stroke-linecap="round" stroke-linejoin="round" stroke-width="1.0"/>
    <path d="M17.25 1.85 L16.8 1.15 16.7 1.05 20.15 -0.95 Q21.0 -0.5 20.9 0.3 L17.35 2.35 17.35 2.3 17.25 1.85" fill="#353638" fill-rule="evenodd" stroke="none"/>
    <path d="M17.25 1.85 L17.35 2.3 17.35 2.35 20.9 0.3 Q21.0 -0.5 20.15 -0.95 L16.7 1.05 16.8 1.15 17.25 1.85 M10.65 4.5 L10.15 9.45 M13.1 6.05 L12.75 9.45 M15.75 7.8 L15.6 9.4 M0.05 3.0 Q-2.35 5.5 -2.15 8.35 2.0 8.8 6.2 7.1 6.15 5.1 4.8 4.1 3.25 4.45 0.05 3.0 M-12.05 -3.6 Q-11.9 -5.05 -10.6 -7.65 M-9.95 -3.75 Q-9.75 -5.2 -8.5 -7.65 M-14.45 -3.5 Q-14.3 -4.95 -13.05 -7.5" fill="none" stroke="#191718" stroke-linecap="round" stroke-linejoin="round" stroke-width="1.0"/>
    <path d="M-7.05 -2.8 Q-5.25 -1.0 -5.25 1.6 -5.25 4.2 -7.05 6.0 -8.9 7.85 -11.5 7.85 -14.1 7.85 -15.9 6.0 -17.1 4.85 -17.5 3.4 L-17.75 1.6 -17.5 -0.2 Q-17.1 -1.7 -15.9 -2.8 -14.1 -4.65 -11.5 -4.65 -8.9 -4.65 -7.05 -2.8" fill="url(#gradient0)" fill-rule="evenodd" stroke="none"/>
  </g>
  <defs>
    <radialGradient cx="0" cy="0" gradientTransform="matrix(0.0078, 0.0, 0.0, 0.0078, -11.6, 1.65)" gradientUnits="userSpaceOnUse" id="gradient0" r="819.2" spreadMethod="pad">
      <stop offset="0.0" stop-color="#4f75b2"/>
      <stop offset="1.0" stop-color="#4f75b2" stop-opacity="0.0"/>
    </radialGradient>
  </defs>
</svg>
