<?xml version="1.0" encoding="UTF-8" standalone="no"?>
<svg xmlns:ffdec="https://www.free-decompiler.com/flash" xmlns:xlink="http://www.w3.org/1999/xlink" ffdec:objectType="shape" height="21.8px" width="16.55px" xmlns="http://www.w3.org/2000/svg">
  <g transform="matrix(1.0, 0.0, 0.0, 1.0, 0.5, 0.5)">
    <path d="M11.3 4.15 L11.05 4.15 11.3 4.15 M11.7 2.4 L14.35 1.1 Q15.85 4.5 15.5 8.15 L15.5 8.45 Q15.35 13.65 13.7 18.1 12.9 18.65 11.7 18.8 L8.75 18.8 Q7.7 18.65 8.3 17.05 L8.65 15.75 Q8.85 14.3 7.8 14.05 6.3 13.75 5.15 12.95 4.45 11.1 5.45 9.75 L9.4 8.4 9.45 6.95 9.55 3.4 11.7 2.4 M9.95 17.4 L9.7 17.4 9.95 17.4 M6.8 11.6 L6.55 11.6 6.8 11.6" fill="url(#gradient0)" fill-rule="evenodd" stroke="none"/>
    <path d="M2.3 16.35 L1.65 16.25 Q0.55 16.1 0.25 14.6 L0.0 9.1 0.1 8.45 Q0.35 7.1 1.0 6.55 L2.25 5.95 3.35 6.15 3.95 6.95 9.45 6.95 9.4 8.4 5.45 9.75 Q4.45 11.1 5.15 12.95 6.3 13.75 7.8 14.05 8.85 14.3 8.65 15.75 L8.3 17.05 2.3 16.35 M2.15 7.85 L1.9 7.85 2.15 7.85 M2.2 14.7 L1.95 14.7 2.2 14.7" fill="url(#gradient1)" fill-rule="evenodd" stroke="none"/>
    <path d="M11.7 18.8 Q11.4 20.0 9.75 20.6 L5.85 20.75 Q3.15 20.15 2.6 18.25 L2.3 16.35 8.3 17.05 Q7.7 18.65 8.75 18.8 L11.7 18.8 M2.25 5.95 L2.85 3.05 Q3.45 0.7 5.35 0.25 7.6 -0.25 9.75 0.25 11.6 0.45 11.7 2.4 L9.55 3.4 9.45 6.95 3.95 6.95 3.35 6.15 2.25 5.95" fill="#1e1e1e" fill-rule="evenodd" stroke="none"/>
    <path d="M11.7 2.4 L14.35 1.1 Q15.85 4.5 15.5 8.15 L15.5 8.45 Q15.35 13.65 13.7 18.1 12.9 18.65 11.7 18.8 11.4 20.0 9.75 20.6 L5.85 20.75 Q3.15 20.15 2.6 18.25 L2.3 16.35 1.65 16.25 Q0.55 16.1 0.25 14.6 L0.0 9.1 0.1 8.45 Q0.35 7.1 1.0 6.55 L2.25 5.95 2.85 3.05 Q3.45 0.7 5.35 0.25 7.6 -0.25 9.75 0.25 11.6 0.45 11.7 2.4 L9.55 3.4 9.45 6.95 9.4 8.4 5.45 9.75 Q4.45 11.1 5.15 12.95 6.3 13.75 7.8 14.05 8.85 14.3 8.65 15.75 L8.3 17.05 Q7.7 18.65 8.75 18.8 L11.7 18.8 M2.25 5.95 L3.35 6.15 3.95 6.95 9.45 6.95 M2.3 16.35 L8.3 17.05" fill="none" stroke="#101010" stroke-linecap="round" stroke-linejoin="round" stroke-width="1.0"/>
    <path d="M11.05 4.15 L11.3 4.15 M1.9 7.85 L2.15 7.85 M6.55 11.6 L6.8 11.6 M9.7 17.4 L9.95 17.4 M1.95 14.7 L2.2 14.7" fill="none" stroke="#151515" stroke-linecap="round" stroke-linejoin="round" stroke-width="1.0"/>
  </g>
  <defs>
    <radialGradient cx="0" cy="0" fx="192.0" fy="0" gradientTransform="matrix(0.0136, 0.0, 0.0, 0.0221, 13.45, 10.1)" gradientUnits="userSpaceOnUse" id="gradient0" r="819.2" spreadMethod="pad">
      <stop offset="0.0" stop-color="#484848"/>
      <stop offset="0.4470588235294118" stop-color="#2a2a2a"/>
      <stop offset="1.0" stop-color="#1e1e1e"/>
      <stop offset="1.0" stop-color="#383838"/>
    </radialGradient>
    <radialGradient cx="0" cy="0" fx="192.0" fy="0" gradientTransform="matrix(0.011, 0.0, 0.0, 0.0047, 9.35, 11.95)" gradientUnits="userSpaceOnUse" id="gradient1" r="819.2" spreadMethod="pad">
      <stop offset="0.0" stop-color="#484848"/>
      <stop offset="0.4470588235294118" stop-color="#2a2a2a"/>
      <stop offset="1.0" stop-color="#1e1e1e"/>
      <stop offset="1.0" stop-color="#383838"/>
    </radialGradient>
  </defs>
</svg>
