<?xml version="1.0" encoding="UTF-8" standalone="no"?>
<svg xmlns:xlink="http://www.w3.org/1999/xlink" height="9.1px" width="11.7px" xmlns="http://www.w3.org/2000/svg">
  <g transform="matrix(1.0, 0.0, 0.0, 1.0, -30.1, 5.95)">
    <path d="M33.8 3.15 Q32.4 2.9 31.55 1.8 30.1 0.55 30.1 -1.35 30.1 -3.2 31.55 -4.55 32.4 -5.7 33.8 -5.8 L33.8 3.15" fill="url(#gradient0)" fill-rule="evenodd" stroke="none"/>
    <path d="M33.8 -5.8 L33.9 -5.8 34.9 -5.95 Q37.75 -5.95 39.75 -4.55 41.8 -3.2 41.8 -1.35 41.8 0.55 39.75 1.8 37.75 3.15 34.9 3.15 L33.9 3.15 33.8 3.15 33.8 -5.8" fill="url(#gradient1)" fill-rule="evenodd" stroke="none"/>
  </g>
  <defs>
    <radialGradient cx="0" cy="0" gradientTransform="matrix(0.0, 0.0049, -0.0052, 0.0, 34.4, -1.35)" gradientUnits="userSpaceOnUse" id="gradient0" r="819.2" spreadMethod="pad">
      <stop offset="0.17647058823529413" stop-color="#ff4343"/>
      <stop offset="0.5529411764705883" stop-color="#ff0000" stop-opacity="0.76862746"/>
      <stop offset="1.0" stop-color="#ff0000" stop-opacity="0.0"/>
    </radialGradient>
    <radialGradient cx="0" cy="0" gradientTransform="matrix(0.0, 0.0049, -0.0085, 0.0, 34.9, -1.35)" gradientUnits="userSpaceOnUse" id="gradient1" r="819.2" spreadMethod="pad">
      <stop offset="0.17647058823529413" stop-color="#ff4343"/>
      <stop offset="0.5529411764705883" stop-color="#ff0000" stop-opacity="0.76862746"/>
      <stop offset="1.0" stop-color="#ff0000" stop-opacity="0.0"/>
    </radialGradient>
  </defs>
</svg>
