<?xml version="1.0" encoding="UTF-8" standalone="no"?>
<svg xmlns:ffdec="https://www.free-decompiler.com/flash" xmlns:xlink="http://www.w3.org/1999/xlink" ffdec:objectType="shape" height="22.55px" width="14.85px" xmlns="http://www.w3.org/2000/svg">
  <g transform="matrix(1.0, 0.0, 0.0, 1.0, 1.45, 0.65)">
    <path d="M10.95 19.55 Q9.75 21.35 7.35 21.4 4.95 21.45 4.15 19.55 3.2 17.25 2.1 13.1 L0.2 6.6 Q-0.85 2.7 3.85 0.65 8.5 -1.4 10.95 2.95 12.3 4.75 10.95 19.55" fill="#1e1e1e" fill-rule="evenodd" stroke="none"/>
    <path d="M10.95 19.55 Q12.3 4.75 10.95 2.95 8.5 -1.4 3.85 0.65 -0.85 2.7 0.2 6.6 L2.1 13.1 Q3.2 17.25 4.15 19.55 4.95 21.45 7.35 21.4 9.75 21.35 10.95 19.55 Z" fill="none" stroke="#0e0e0e" stroke-linecap="round" stroke-linejoin="round" stroke-width="1.0"/>
    <path d="M12.9 14.95 L12.9 15.65 8.8 15.65 8.05 15.65 5.95 2.2 6.55 1.9 8.65 14.65 12.9 14.95 M8.65 14.65 L8.8 15.65 8.65 14.65" fill="#383838" fill-rule="evenodd" stroke="none"/>
    <path d="M5.55 16.7 L5.15 17.75 5.15 19.3 4.4 19.3 1.75 19.3 -0.45 13.2 0.2 10.5 -0.8 6.4 -0.95 5.9 3.85 4.75 5.9 15.65 5.55 16.7 5.25 15.45 4.3 17.75 4.4 19.3 4.3 17.75 5.25 15.45 5.55 16.7 M5.25 15.45 L3.0 5.5 -0.8 6.4 3.0 5.5 5.25 15.45" fill="#272727" fill-rule="evenodd" stroke="none"/>
    <path d="M11.2 1.35 L12.35 3.2 9.1 4.65 8.3 2.85 11.2 1.35" fill="#ff0000" fill-rule="evenodd" stroke="none"/>
    <path d="M11.2 1.35 L8.3 2.85 9.1 4.65 12.35 3.2 12.9 4.1 12.9 7.5 11.65 9.05 11.65 12.45 12.9 13.65 12.9 14.95 8.65 14.65 6.55 1.9 10.25 -0.15 11.2 1.35" fill="#271818" fill-rule="evenodd" stroke="none"/>
    <path d="M8.8 15.65 L8.65 14.65 6.55 1.9 M5.55 16.7 L5.25 15.45 4.3 17.75 4.4 19.3 M-0.8 6.4 L3.0 5.5 5.25 15.45 M12.9 14.95 L8.65 14.65" fill="none" stroke="#350303" stroke-linecap="round" stroke-linejoin="round" stroke-width="1.0"/>
    <path d="M12.35 3.2 L11.2 1.35 8.3 2.85 9.1 4.65 12.35 3.2 12.9 4.1 12.9 7.5 11.65 9.05 11.65 12.45 12.9 13.65 12.9 15.65 8.05 15.65 5.95 2.2 10.25 -0.15 11.2 1.35 M1.75 19.3 L-0.45 13.2 0.2 10.5 -0.95 5.9 3.85 4.75 5.9 15.65 5.15 17.75 5.15 19.3 1.75 19.3 Z" fill="none" stroke="#0e0e0e" stroke-linecap="round" stroke-linejoin="round" stroke-width="1.0"/>
  </g>
</svg>
