<?xml version="1.0" encoding="UTF-8" standalone="no"?>
<svg xmlns:ffdec="https://www.free-decompiler.com/flash" xmlns:xlink="http://www.w3.org/1999/xlink" ffdec:objectType="shape" height="23.25px" width="15.1px" xmlns="http://www.w3.org/2000/svg">
  <g transform="matrix(1.0, 0.0, 0.0, 1.0, 1.65, 1.75)">
    <path d="M7.95 7.55 L7.4 11.8 5.7 12.1 4.1 11.8 3.55 11.0 2.6 6.5 2.6 5.35 5.7 5.0 8.2 5.35 8.2 6.5 7.95 7.55 3.4 7.55 7.95 7.55" fill="#252525" fill-rule="evenodd" stroke="none"/>
    <path d="M2.2 1.1 L3.6 0.45 3.7 0.4 3.8 0.35 4.0 0.3 Q5.65 -0.3 7.95 0.3 L8.05 0.3 Q10.4 0.9 10.65 1.6 L10.65 1.95 Q10.65 2.5 11.0 3.25 L11.75 4.95 Q12.25 6.05 12.2 7.25 L11.65 9.45 Q12.15 10.65 12.0 11.75 L11.85 12.5 11.75 12.7 11.6 13.05 11.6 13.1 11.55 13.15 11.35 13.65 11.15 14.3 11.25 14.85 11.0 15.6 Q10.8 16.2 10.7 17.95 10.65 19.45 10.0 20.25 8.7 20.95 6.05 21.0 L3.6 20.4 2.2 19.4 2.0 17.25 1.9 16.15 1.3 13.9 Q0.5 10.35 0.65 9.7 1.2 7.9 0.4 6.5 L0.25 6.25 Q-0.3 5.35 0.4 4.05 0.5 2.25 1.3 1.65 L1.4 1.6 2.05 1.2 2.2 1.1 M7.95 7.55 L8.2 6.5 8.2 5.35 5.7 5.0 2.6 5.35 2.6 6.5 3.55 11.0 4.1 11.8 5.7 12.1 7.4 11.8 7.95 7.55 M7.25 19.25 Q5.6 19.6 4.95 18.2 L5.0 18.2 8.75 17.1 Q8.1 16.5 7.0 16.1 L3.8 15.4 3.45 15.25 3.8 15.4 7.0 16.1 Q8.1 16.5 8.75 17.1 L5.0 18.2 4.95 18.2 Q5.6 19.6 7.25 19.25" fill="#1c1c1c" fill-rule="evenodd" stroke="none"/>
    <path d="M2.2 1.1 L3.6 0.45 3.7 0.4 3.8 0.35 4.0 0.3 Q5.65 -0.3 7.95 0.3 L8.05 0.3 Q10.4 0.9 10.65 1.6 L10.65 1.95 Q10.65 2.5 11.0 3.25 L11.75 4.95 Q12.25 6.05 12.2 7.25 L11.65 9.45 Q12.15 10.65 12.0 11.75 L11.85 12.5 11.75 12.7 11.6 13.05 11.6 13.1 11.55 13.15 11.35 13.65 11.2 14.05 Q11.4 14.2 11.25 14.85 L11.0 15.6 Q10.8 16.2 10.7 17.95 10.65 19.45 10.0 20.25 8.7 20.95 6.05 21.0 L3.6 20.4 2.2 19.4 2.0 17.25 1.9 16.15 1.3 13.9 Q0.5 10.35 0.65 9.7 1.2 7.9 0.4 6.5 L0.25 6.25 Q-0.3 5.35 0.4 4.05 0.5 2.25 1.3 1.65 M1.4 1.6 L2.05 1.2 M7.95 7.55 L8.2 6.5 8.2 5.35 5.7 5.0 2.6 5.35 2.6 6.5 3.55 11.0 4.1 11.8 5.7 12.1 7.4 11.8 7.95 7.55 3.4 7.55 M11.15 14.3 L11.25 14.85 M11.2 14.05 L11.15 14.3" fill="none" stroke="#0e0e0e" stroke-linecap="round" stroke-linejoin="round" stroke-width="1.0"/>
    <path d="M3.45 15.25 L3.8 15.4 7.0 16.1 Q8.1 16.5 8.75 17.1 L5.0 18.2 4.95 18.2 Q5.6 19.6 7.25 19.25" ffdec:has-small-stroke="true" ffdec:original-stroke-width="0.8" fill="none" stroke="#0e0e0e" stroke-linecap="round" stroke-linejoin="round" stroke-width="1.0"/>
    <path d="M9.25 13.2 L7.8 13.2 7.8 13.65 1.2 13.65 1.2 13.2 0.1 13.2 Q-1.0 12.1 -0.4 10.95 L1.2 10.95 1.2 8.55 -0.45 8.55 Q-1.5 7.15 -0.95 5.95 L1.2 5.95 1.2 3.45 2.85 3.45 2.85 -0.35 Q4.0 -1.7 5.1 -1.0 L5.1 3.45 7.8 3.45 7.8 5.95 9.35 5.95 9.35 8.55 7.8 8.55 7.8 10.95 9.25 10.95 9.25 13.2 M10.9 5.95 L12.7 5.95 Q13.35 7.25 12.2 8.55 L10.9 8.55 10.9 5.95 M10.95 10.95 L12.25 10.95 Q12.65 12.1 11.7 13.2 L10.95 13.2 10.95 10.95 M1.2 5.95 L1.2 8.55 1.2 5.95 M7.8 8.55 L7.8 5.95 7.8 8.55 M5.1 3.45 L2.85 3.45 5.1 3.45 M1.2 10.95 L1.2 13.2 1.2 10.95 M7.8 13.2 L7.8 10.95 7.8 13.2" fill="#1c1c1c" fill-rule="evenodd" stroke="none"/>
    <path d="M9.35 5.95 L10.9 5.95 10.9 8.55 9.35 8.55 9.35 5.95 M9.25 10.95 L10.95 10.95 10.95 13.2 10.95 13.25 9.25 13.25 9.25 13.2 9.25 10.95" fill="#232323" fill-rule="evenodd" stroke="none"/>
    <path d="M9.25 13.2 L7.8 13.2 7.8 13.65 1.2 13.65 1.2 13.2 0.1 13.2 Q-1.0 12.1 -0.4 10.95 L1.2 10.95 1.2 8.55 -0.45 8.55 Q-1.5 7.15 -0.95 5.95 L1.2 5.95 1.2 3.45 2.85 3.45 2.85 -0.35 Q4.0 -1.7 5.1 -1.0 L5.1 3.45 7.8 3.45 7.8 5.95 9.35 5.95 M10.9 5.95 L12.7 5.95 Q13.35 7.25 12.2 8.55 L10.9 8.55 M9.35 8.55 L7.8 8.55 7.8 10.95 9.25 10.95 M10.95 10.95 L12.25 10.95 Q12.65 12.1 11.7 13.2 L10.95 13.2 M2.85 3.45 L5.1 3.45 M7.8 5.95 L7.8 8.55 M1.2 8.55 L1.2 5.95 M7.8 10.95 L7.8 13.2 M1.2 13.2 L1.2 10.95" fill="none" stroke="#0e0e0e" stroke-linecap="round" stroke-linejoin="round" stroke-width="1.0"/>
    <path d="M9.35 5.95 L10.9 5.95 10.9 8.55 9.35 8.55 9.35 5.95 M9.25 10.95 L10.95 10.95 10.95 13.2 10.95 13.25 9.25 13.25 9.25 13.2 9.25 10.95 Z" fill="none" stroke="#101010" stroke-linecap="round" stroke-linejoin="round" stroke-width="1.0"/>
    <path d="M5.05 9.4 L4.05 9.9 3.35 9.85 2.5 9.4 5.05 9.4" fill="#747474" fill-rule="evenodd" stroke="none"/>
    <path d="M6.15 8.4 L5.8 8.85 5.8 12.1 1.6 12.1 1.6 8.8 1.2 8.4 2.4 9.35 1.2 8.4 1.2 4.75 6.15 4.75 6.15 8.4 5.05 9.4 6.15 8.4 M2.5 9.4 L3.35 9.85 4.05 9.9 5.05 9.4 5.05 7.45 2.4 7.45 2.4 9.35 2.4 9.4 2.5 9.4" fill="#232323" fill-rule="evenodd" stroke="none"/>
    <path d="M2.5 9.4 L2.4 9.4 2.4 9.35 2.4 7.45 5.05 7.45 5.05 9.4 2.5 9.4" fill="#3c1414" fill-rule="evenodd" stroke="none"/>
    <path d="M1.2 8.4 L1.6 8.8 1.6 12.1 5.8 12.1 5.8 8.85 6.15 8.4 5.05 9.4 4.05 9.9 3.35 9.85 2.5 9.4 M2.4 9.35 L1.2 8.4 1.2 4.75 6.15 4.75 6.15 8.4" fill="none" stroke="#0e0e0e" stroke-linecap="round" stroke-linejoin="round" stroke-width="1.0"/>
  </g>
</svg>
