<?xml version="1.0" encoding="UTF-8" standalone="no"?>
<svg xmlns:ffdec="https://www.free-decompiler.com/flash" xmlns:xlink="http://www.w3.org/1999/xlink" ffdec:objectType="shape" height="23.2px" width="18.1px" xmlns="http://www.w3.org/2000/svg">
  <g transform="matrix(1.0, 0.0, 0.0, 1.0, 8.85, 7.05)">
    <path d="M-4.6 -6.35 L-0.5 -6.4 1.6 -6.45 Q3.45 -6.35 3.95 -5.5 4.55 -1.35 4.25 3.55 4.05 8.5 2.95 12.55 2.75 12.8 3.5 13.4 4.4 14.05 4.35 14.5 4.25 14.75 2.55 15.85 L0.85 16.1 -0.95 15.9 Q-2.25 16.1 -3.5 13.4 -4.7 10.75 -4.7 7.6 -4.65 6.6 -6.1 0.45 -7.05 -3.85 -5.4 -6.25 L-4.6 -6.35" fill="#91815b" fill-rule="evenodd" stroke="none"/>
    <path d="M2.75 -6.4 Q4.8 -5.9 6.05 -4.55 L7.85 -1.85 Q8.4 -0.6 7.95 1.4 L7.25 4.25 Q8.45 9.8 7.3 12.2 L4.3 15.2 Q2.85 13.65 1.9 12.1 -0.4 8.4 -1.5 4.45 -2.95 -0.7 -0.7 -2.3 L1.05 -4.2 2.75 -6.4" fill="#c0a76e" fill-rule="evenodd" stroke="none"/>
    <path d="M2.75 -6.4 Q4.8 -5.9 6.05 -4.55 L7.85 -1.85 Q8.4 -0.6 7.95 1.4 L7.25 4.25 Q8.45 9.8 7.3 12.2 L4.3 15.2 Q2.85 13.65 1.9 12.1 -0.4 8.4 -1.5 4.45 -2.95 -0.7 -0.7 -2.3 L1.05 -4.2 2.75 -6.4 Z" fill="none" stroke="#716448" stroke-linecap="round" stroke-linejoin="round" stroke-width="1.0"/>
    <path d="M7.65 -2.1 Q8.85 0.05 8.7 2.55 8.6 4.5 7.65 6.0 L5.15 4.05 Q4.4 3.2 4.3 1.95 4.3 -0.05 5.8 -1.3 7.0 -2.2 7.65 -2.1" fill="#947f55" fill-rule="evenodd" stroke="none"/>
    <path d="M7.65 -2.1 Q8.85 0.05 8.7 2.55 8.6 4.5 7.65 6.0 L5.15 4.05 Q4.4 3.2 4.3 1.95 4.3 -0.05 5.8 -1.3 7.0 -2.2 7.65 -2.1 Z" fill="none" stroke="#716448" stroke-linecap="round" stroke-linejoin="round" stroke-width="1.0"/>
    <path d="M-4.9 -5.8 Q-5.15 -5.35 -3.55 -3.65 -1.95 -1.95 -1.2 -2.35 -0.8 -2.55 -0.7 -2.0 L-0.65 -1.35 Q0.85 1.35 1.0 4.9 1.15 8.3 0.0 8.75 L-1.3 8.75 Q-2.8 8.95 -3.75 9.8 -4.4 10.85 -4.9 10.0 L-6.0 7.75 Q-8.35 4.55 -8.3 0.45 -8.3 -3.7 -5.85 -5.35 L-5.25 -6.15 -5.1 -6.5 -4.9 -5.8" fill="#dec68f" fill-rule="evenodd" stroke="none"/>
    <path d="M-4.9 -5.8 Q-5.15 -5.35 -3.55 -3.65 -1.95 -1.95 -1.2 -2.35 -0.8 -2.55 -0.7 -2.0 L-0.65 -1.35 Q0.85 1.35 1.0 4.9 1.15 8.3 0.0 8.75 L-1.3 8.75 Q-2.8 8.95 -3.75 9.8 -4.4 10.85 -4.9 10.0 L-6.0 7.75 Q-8.35 4.55 -8.3 0.45 -8.3 -3.7 -5.85 -5.35 L-5.25 -6.15 -5.1 -6.5 -4.9 -5.8 Z" fill="none" stroke="#716448" stroke-linecap="round" stroke-linejoin="round" stroke-width="1.0"/>
    <path d="M-6.15 3.5 L-5.0 3.25" fill="none" stroke="#9d8c65" stroke-linecap="round" stroke-linejoin="miter-clip" stroke-miterlimit="4.0" stroke-width="1.0"/>
    <path d="M-4.75 4.85 L-5.65 5.25" fill="none" stroke="#9d8c65" stroke-linecap="round" stroke-linejoin="miter-clip" stroke-miterlimit="4.0" stroke-width="1.0"/>
    <path d="M7.15 12.4 Q7.65 11.95 7.75 10.2 L7.75 6.55 8.75 2.9 7.95 -2.3 6.85 -3.55 Q5.6 -5.1 3.65 -5.8 2.15 -6.65 1.35 -6.55 L-4.0 -6.15 Q-6.75 -5.75 -7.95 -2.95 -8.7 -1.1 -8.1 2.2 -7.55 5.4 -5.95 8.3 L-4.9 10.2 -4.6 11.4 -4.2 12.55" fill="none" stroke="#564b3a" stroke-linecap="round" stroke-linejoin="round" stroke-width="1.0"/>
  </g>
</svg>
