<?xml version="1.0" encoding="UTF-8" standalone="no"?>
<svg xmlns:ffdec="https://www.free-decompiler.com/flash" xmlns:xlink="http://www.w3.org/1999/xlink" ffdec:objectType="shape" height="22.85px" width="14.05px" xmlns="http://www.w3.org/2000/svg">
  <g transform="matrix(1.0, 0.0, 0.0, 1.0, 7.75, 5.1)">
    <path d="M5.0 9.25 L3.8 15.65 Q1.75 17.65 0.25 17.3 -1.8 16.85 -2.85 15.4 L-5.55 8.05 Q-7.0 3.8 -7.2 0.45 L-6.4 -0.45 Q-6.0 -3.2 -4.05 -4.45 -2.5 -4.9 0.85 -4.45 2.7 -3.25 4.65 -0.9 L5.2 3.15 Q5.55 8.0 5.0 9.25" fill="#0d1012" fill-rule="evenodd" stroke="none"/>
    <path d="M5.0 9.25 L3.8 15.65 Q1.75 17.65 0.25 17.3 -1.8 16.85 -2.85 15.4 L-5.55 8.05 Q-7.0 3.8 -7.2 0.45 L-6.4 -0.45 Q-6.0 -3.2 -4.05 -4.45 -2.5 -4.9 0.85 -4.45 2.7 -3.25 4.65 -0.9" ffdec:has-small-stroke="true" ffdec:original-stroke-width="0.8" fill="none" stroke="#000000" stroke-linecap="round" stroke-linejoin="round" stroke-width="1.0"/>
    <path d="M-7.35 0.25 L-5.85 -0.7 -4.75 -2.45 3.45 -3.7 Q4.75 -3.05 5.75 -1.15 L6.3 8.85 -3.8 12.75 Q-7.1 5.0 -7.35 0.25" fill="url(#gradient0)" fill-rule="evenodd" stroke="none"/>
    <path d="M5.55 1.4 L5.85 3.3 -6.1 7.05 -6.35 5.9 4.65 2.5 5.55 1.4" fill="#000000" fill-opacity="0.5058824" fill-rule="evenodd" stroke="none"/>
    <path d="M-2.55 -2.7 L-3.35 0.05 -4.45 0.9 -4.5 4.25 -3.15 6.75 -2.6 9.1 -1.5 9.8 0.25 9.25 0.65 8.4 5.55 7.05 5.45 8.9 -3.75 12.7 -5.9 6.65 Q-7.0 3.2 -7.35 0.4 L-5.85 -0.75 -5.0 -2.15 -2.55 -2.7" fill="#090c11" fill-opacity="0.4627451" fill-rule="evenodd" stroke="none"/>
    <path d="M-7.35 0.25 L-5.85 -0.7 -4.75 -2.45 3.45 -3.7 Q4.95 -2.9 5.75 -1.15 L5.8 3.9 5.7 8.95 -3.8 12.75 Q-7.1 5.0 -7.35 0.25 Z" ffdec:has-small-stroke="true" ffdec:original-stroke-width="0.8" fill="none" stroke="#000000" stroke-linecap="round" stroke-linejoin="round" stroke-width="1.0"/>
    <path d="M5.9 3.0 L6.1 4.8 -5.3 8.3 -5.6 7.25 5.0 4.05 5.9 3.0" fill="#000000" fill-opacity="0.5058824" fill-rule="evenodd" stroke="none"/>
  </g>
  <defs>
    <linearGradient gradientTransform="matrix(0.0092, 4.0E-4, -4.0E-4, 0.009, 0.05, 4.55)" gradientUnits="userSpaceOnUse" id="gradient0" spreadMethod="pad" x1="-819.2" x2="819.2">
      <stop offset="0.0" stop-color="#0d1012"/>
      <stop offset="0.30196078431372547" stop-color="#10161d"/>
      <stop offset="0.5647058823529412" stop-color="#151b25"/>
      <stop offset="1.0" stop-color="#202831"/>
    </linearGradient>
  </defs>
</svg>
