<?xml version="1.0" encoding="UTF-8" standalone="no"?>
<svg xmlns:ffdec="https://www.free-decompiler.com/flash" xmlns:xlink="http://www.w3.org/1999/xlink" ffdec:objectType="shape" height="20.5px" width="17.25px" xmlns="http://www.w3.org/2000/svg">
  <g transform="matrix(1.0, 0.0, 0.0, 1.0, 0.7, 0.5)">
    <path d="M10.25 0.6 L11.1 0.0 13.95 0.85 13.95 6.4 12.85 17.5 11.15 17.35 10.3 17.05 10.7 14.7 8.4 11.1 8.4 5.1 10.25 4.2 10.25 0.6 10.25 4.2 8.4 5.1 8.4 11.1 10.7 14.7 10.3 17.05 9.5 16.75 6.6 12.65 6.6 8.2 5.7 6.95 5.7 3.8 9.45 1.15 10.25 0.6 M3.9 17.6 L0.6 12.8 -0.2 7.4 0.2 6.75 1.1 5.2 5.0 9.3 5.0 13.25 7.75 17.1 3.9 17.6 M5.95 15.5 L4.45 15.5 3.1 13.85 3.1 9.7 0.2 6.75 3.1 9.7 3.1 13.85 4.45 15.5 5.95 15.5" fill="#350303" fill-rule="evenodd" stroke="none"/>
    <path d="M10.3 17.05 L11.15 17.35 10.65 19.5 4.7 19.5 3.9 17.6 7.75 17.1 5.0 13.25 5.0 9.3 1.1 5.2 1.1 3.45 Q3.35 0.35 6.95 0.0 L9.45 1.15 5.7 3.8 5.7 6.95 6.6 8.2 6.6 12.65 9.5 16.75 10.3 17.05" fill="url(#gradient0)" fill-rule="evenodd" stroke="none"/>
    <path d="M11.15 17.35 L10.65 19.5 4.7 19.5 3.9 17.6 M1.1 5.2 L1.1 3.45 Q3.35 0.35 6.95 0.0 L9.45 1.15" fill="none" stroke="#090909" stroke-linecap="round" stroke-linejoin="round" stroke-width="1.0"/>
    <path d="M10.25 0.6 L10.25 4.2 8.4 5.1 8.4 11.1 10.7 14.7 10.3 17.05 M0.2 6.75 L3.1 9.7 3.1 13.85 4.45 15.5 5.95 15.5" fill="none" stroke="#2a0101" stroke-linecap="round" stroke-linejoin="round" stroke-width="1.0"/>
    <path d="M11.1 0.0 L5.7 3.8 5.7 6.95 6.6 8.2 6.6 12.65 9.5 16.75 11.15 17.35 12.85 17.5 13.95 6.4 13.95 0.85 11.1 0.0 M5.0 9.3 L5.0 13.25 7.75 17.1 3.9 17.6 0.6 12.8 -0.2 7.4 1.1 5.2 5.0 9.3" fill="none" stroke="#190000" stroke-linecap="round" stroke-linejoin="round" stroke-width="1.0"/>
    <path d="M0.65 8.45 L1.35 11.75 M7.25 3.85 L9.5 2.25" fill="none" stroke="#ff0000" stroke-linecap="round" stroke-linejoin="round" stroke-width="1.0"/>
    <path d="M15.0 14.35 L16.55 14.35 15.25 14.85 14.95 14.85 14.3 14.8 13.15 14.35 15.0 14.35 14.95 14.85 15.0 14.35 M5.35 14.35 L8.75 14.35 7.45 14.85 6.5 14.8 5.35 14.35" fill="#747474" fill-rule="evenodd" stroke="none"/>
    <path d="M14.95 14.85 L14.75 17.05 11.95 17.05 11.95 13.75 11.45 13.35 11.45 9.7 15.4 9.7 15.15 12.4 13.05 12.4 13.05 14.3 13.05 14.35 13.15 14.35 14.3 14.8 14.95 14.85 M11.45 13.35 L12.3 13.9 13.05 14.3 12.3 13.9 11.45 13.35 M8.75 14.35 L8.75 12.4 5.25 12.4 5.25 14.3 4.5 13.9 3.65 13.35 4.5 13.9 5.25 14.3 5.25 14.35 5.35 14.35 6.5 14.8 7.45 14.85 8.75 14.35 10.25 13.35 8.75 14.35 M3.65 13.35 L3.65 9.7 10.25 9.7 10.25 13.35 9.75 13.8 9.75 17.05 4.15 17.05 4.15 13.75 3.65 13.35" fill="#1e1e1e" fill-rule="evenodd" stroke="none"/>
    <path d="M15.15 12.4 L15.0 14.35 13.15 14.35 13.05 14.35 13.05 14.3 13.05 12.4 15.15 12.4 M5.25 14.3 L5.25 12.4 8.75 12.4 8.75 14.35 5.35 14.35 5.25 14.35 5.25 14.3" fill="#1e0808" fill-rule="evenodd" stroke="none"/>
    <path d="M14.95 14.85 L14.75 17.05 11.95 17.05 11.95 13.75 11.45 13.35 11.45 9.7 15.4 9.7 15.15 12.4 15.0 14.35 14.95 14.85 14.3 14.8 13.15 14.35 M13.05 14.3 L12.3 13.9 11.45 13.35 M8.75 14.35 L10.25 13.35 10.25 9.7 3.65 9.7 3.65 13.35 4.5 13.9 5.25 14.3 M8.75 14.35 L7.45 14.85 6.5 14.8 5.35 14.35 M3.65 13.35 L4.15 13.75 4.15 17.05 9.75 17.05 9.75 13.8 10.25 13.35" fill="none" stroke="#0b0b0b" stroke-linecap="round" stroke-linejoin="round" stroke-width="1.0"/>
  </g>
  <defs>
    <radialGradient cx="0" cy="0" gradientTransform="matrix(0.0211, 0.0, 0.0, 0.0211, 6.6, 9.75)" gradientUnits="userSpaceOnUse" id="gradient0" r="819.2" spreadMethod="pad">
      <stop offset="0.0" stop-color="#272727"/>
      <stop offset="1.0" stop-color="#121212"/>
      <stop offset="1.0" stop-color="#272727" stop-opacity="0.8"/>
      <stop offset="1.0" stop-color="#ff5151"/>
    </radialGradient>
  </defs>
</svg>
