<?xml version="1.0" encoding="UTF-8" standalone="no"?>
<svg xmlns:ffdec="https://www.free-decompiler.com/flash" xmlns:xlink="http://www.w3.org/1999/xlink" ffdec:objectType="shape" height="32.8px" width="58.75px" xmlns="http://www.w3.org/2000/svg">
  <g transform="matrix(1.0, 0.0, 0.0, 1.0, -43.5, 16.6)">
    <path d="M57.85 16.2 Q56.7 15.4 54.55 11.25 51.85 6.75 49.15 -0.05 46.45 -6.75 45.4 -11.7 44.25 -15.8 44.9 -16.2 L57.85 16.2" fill="url(#gradient0)" fill-rule="evenodd" stroke="none"/>
    <path d="M44.9 -16.2 L44.95 -16.2 Q44.95 -16.6 45.1 -16.6 46.1 -16.6 48.7 -11.7 51.35 -6.75 54.05 -0.05 56.75 6.75 57.85 11.25 59.2 16.2 58.2 16.2 L57.9 16.2 Q57.75 15.8 57.85 16.2 L44.9 -16.2" fill="url(#gradient1)" fill-rule="evenodd" stroke="none"/>
    <path d="M57.9 -16.2 L58.45 -16.6 Q59.55 -16.6 58.2 -11.7 56.85 -6.75 53.9 -0.05 50.95 6.75 48.15 11.25 45.2 16.2 44.1 16.2 L43.7 16.2 57.9 -16.2" fill="url(#gradient2)" fill-rule="evenodd" stroke="none"/>
    <path d="M43.7 16.2 Q43.1 15.4 44.3 11.25 45.3 6.75 48.25 -0.05 51.2 -6.75 54.35 -11.7 56.75 -15.8 57.9 -16.2 L43.7 16.2" fill="url(#gradient3)" fill-rule="evenodd" stroke="none"/>
    <path d="M53.1 6.2 Q50.35 5.9 48.7 4.5 45.9 2.95 45.9 0.6 45.9 -1.7 48.7 -3.4 50.35 -4.8 53.1 -4.95 L53.1 6.2" fill="url(#gradient4)" fill-rule="evenodd" stroke="none"/>
    <path d="M53.1 -4.95 L53.65 -4.95 59.7 -5.1 Q77.4 -5.1 89.55 -3.4 102.25 -1.7 102.25 0.6 102.25 2.95 89.55 4.5 77.4 6.2 59.7 6.2 L53.65 6.2 Q53.65 6.05 53.1 6.2 L53.1 -4.95" fill="url(#gradient5)" fill-rule="evenodd" stroke="none"/>
    <path d="M50.15 13.0 Q48.5 12.35 47.55 9.2 45.8 5.7 45.8 0.5 45.8 -4.65 47.55 -8.45 48.5 -11.6 50.15 -11.9 L50.15 13.0" fill="url(#gradient6)" fill-rule="evenodd" stroke="none"/>
    <path d="M50.15 -11.9 L50.25 -11.9 Q50.75 -12.25 51.3 -12.25 54.4 -12.25 56.55 -8.45 58.75 -4.65 58.75 0.5 58.75 5.7 56.55 9.2 54.4 13.0 51.3 13.0 L50.25 13.0 Q50.25 12.7 50.15 13.0 L50.15 -11.9" fill="url(#gradient7)" fill-rule="evenodd" stroke="none"/>
  </g>
  <defs>
    <radialGradient cx="0" cy="0" gradientTransform="matrix(0.0071, 0.0178, -0.0031, 0.0, 51.7, -0.05)" gradientUnits="userSpaceOnUse" id="gradient0" r="819.2" spreadMethod="pad">
      <stop offset="0.17647058823529413" stop-color="#ffd2d2"/>
      <stop offset="0.5529411764705883" stop-color="#ff9898" stop-opacity="0.76862746"/>
      <stop offset="1.0" stop-color="#d92727" stop-opacity="0.0"/>
    </radialGradient>
    <radialGradient cx="0" cy="0" gradientTransform="matrix(0.0071, 0.0178, -0.0029, 0.0, 51.7, -0.05)" gradientUnits="userSpaceOnUse" id="gradient1" r="819.2" spreadMethod="pad">
      <stop offset="0.17647058823529413" stop-color="#ffd2d2"/>
      <stop offset="0.5529411764705883" stop-color="#ff9898" stop-opacity="0.76862746"/>
      <stop offset="1.0" stop-color="#d92727" stop-opacity="0.0"/>
    </radialGradient>
    <radialGradient cx="0" cy="0" gradientTransform="matrix(-0.0078, 0.0178, -0.0033, 0.0, 51.2, -0.05)" gradientUnits="userSpaceOnUse" id="gradient2" r="819.2" spreadMethod="pad">
      <stop offset="0.17647058823529413" stop-color="#ffd2d2"/>
      <stop offset="0.5529411764705883" stop-color="#ff9898" stop-opacity="0.76862746"/>
      <stop offset="1.0" stop-color="#d92727" stop-opacity="0.0"/>
    </radialGradient>
    <radialGradient cx="0" cy="0" gradientTransform="matrix(-0.0078, 0.0178, -0.0036, 0.0, 51.15, -0.05)" gradientUnits="userSpaceOnUse" id="gradient3" r="819.2" spreadMethod="pad">
      <stop offset="0.17647058823529413" stop-color="#ffd2d2"/>
      <stop offset="0.5529411764705883" stop-color="#ff9898" stop-opacity="0.76862746"/>
      <stop offset="1.0" stop-color="#d92727" stop-opacity="0.0"/>
    </radialGradient>
    <radialGradient cx="0" cy="0" gradientTransform="matrix(0.0, 0.0061, -0.0101, 0.0, 54.2, 0.6)" gradientUnits="userSpaceOnUse" id="gradient4" r="819.2" spreadMethod="pad">
      <stop offset="0.17647058823529413" stop-color="#ffd2d2"/>
      <stop offset="0.5529411764705883" stop-color="#ff9898" stop-opacity="0.76862746"/>
      <stop offset="1.0" stop-color="#d92727" stop-opacity="0.0"/>
    </radialGradient>
    <radialGradient cx="0" cy="0" gradientTransform="matrix(0.0, 0.0061, -0.0521, 0.0, 59.7, 0.6)" gradientUnits="userSpaceOnUse" id="gradient5" r="819.2" spreadMethod="pad">
      <stop offset="0.17647058823529413" stop-color="#ffd2d2"/>
      <stop offset="0.5529411764705883" stop-color="#ff9898" stop-opacity="0.76862746"/>
      <stop offset="1.0" stop-color="#d92727" stop-opacity="0.0"/>
    </radialGradient>
    <radialGradient cx="0" cy="0" gradientTransform="matrix(0.0, 0.0137, -0.0061, 0.0, 50.85, 0.5)" gradientUnits="userSpaceOnUse" id="gradient6" r="819.2" spreadMethod="pad">
      <stop offset="0.17647058823529413" stop-color="#ffd2d2"/>
      <stop offset="0.5529411764705883" stop-color="#ff9898" stop-opacity="0.76862746"/>
      <stop offset="1.0" stop-color="#d92727" stop-opacity="0.0"/>
    </radialGradient>
    <radialGradient cx="0" cy="0" gradientTransform="matrix(0.0, 0.0137, -0.0091, 0.0, 51.3, 0.5)" gradientUnits="userSpaceOnUse" id="gradient7" r="819.2" spreadMethod="pad">
      <stop offset="0.17647058823529413" stop-color="#ffd2d2"/>
      <stop offset="0.5529411764705883" stop-color="#ff9898" stop-opacity="0.76862746"/>
      <stop offset="1.0" stop-color="#d92727" stop-opacity="0.0"/>
    </radialGradient>
  </defs>
</svg>
