<?xml version="1.0" encoding="UTF-8" standalone="no"?>
<svg xmlns:xlink="http://www.w3.org/1999/xlink" height="19.1px" width="55.7px" xmlns="http://www.w3.org/2000/svg">
  <g transform="matrix(1.0, 0.0, 0.0, 1.0, 21.85, 5.95)">
    <path d="M4.0 -0.2 L4.2 -0.3 4.25 -0.45 4.2 -0.6 4.0 -0.7 3.85 -0.6 3.8 -0.45 3.85 -0.3 4.0 -0.2 M1.75 -0.3 L1.95 -0.2 2.1 -0.3 2.2 -0.45 2.1 -0.6 1.95 -0.7 1.75 -0.6 1.7 -0.45 1.75 -0.3 M-3.85 -3.45 L-4.85 -2.25 -10.35 -2.25 -12.55 -4.65 -7.05 -4.65 -5.95 -3.45 -3.85 -3.45 M-15.85 -4.65 L-14.1 1.3 -19.7 -1.65 -14.1 1.3 Q-14.45 4.1 -15.65 5.75 L-19.65 3.5 -15.65 5.75 -16.2 6.35 Q-18.05 8.2 -21.35 8.0 -20.15 6.75 -19.75 4.2 L-19.65 3.5 Q-19.4 1.3 -19.7 -1.65 -18.2 -3.95 -15.85 -4.65 M-0.1 2.8 L3.35 2.8 Q2.3 6.25 0.9 8.7 L-1.55 5.65 0.9 8.7 Q-0.25 10.8 -1.65 12.1 L-2.3 12.65 -2.25 12.1 Q-2.25 9.2 -4.65 6.4 -3.0 6.65 -1.55 5.65 -0.15 3.6 -0.1 2.8 M11.9 4.95 L14.0 2.85 17.45 2.85 15.65 -0.2 15.65 -0.25 17.35 -0.25 17.95 0.8 18.15 1.15 18.65 2.0 19.15 2.8 19.15 2.85 20.1 2.85 20.2 3.05 21.9 3.05 21.8 2.85 22.8 2.85 22.9 3.05 24.6 3.05 24.5 2.85 26.65 2.85 24.6 4.9 11.9 4.95 M18.3 -0.2 L18.3 -0.25 20.0 -0.25 20.55 0.75 20.75 1.05 21.25 1.9 21.75 2.75 21.8 2.85 20.1 2.85 20.05 2.75 18.3 -0.2 M21.0 -0.25 L22.65 -0.25 23.1 0.5 23.55 1.25 24.0 2.0 24.5 2.85 22.8 2.85 22.75 2.75 22.15 1.85 20.95 -0.2 20.95 -0.25 21.0 -0.25 M31.6 -3.4 L33.3 -3.4 33.35 1.75 30.5 1.75 31.6 -0.15 31.6 -3.4 M17.45 2.85 L17.6 3.1 19.3 3.1 19.15 2.85 17.45 2.85 M5.55 0.75 L0.65 0.75 -0.1 -1.5 6.35 -1.5 5.55 0.75" fill="#ab824d" fill-rule="evenodd" stroke="none"/>
    <path d="M1.75 -0.3 L1.7 -0.45 1.75 -0.6 1.95 -0.7 2.1 -0.6 2.2 -0.45 2.1 -0.3 1.95 -0.2 1.75 -0.3 M4.0 -0.2 L3.85 -0.3 3.8 -0.45 3.85 -0.6 4.0 -0.7 4.2 -0.6 4.25 -0.45 4.2 -0.3 4.0 -0.2" fill="#4a4628" fill-rule="evenodd" stroke="none"/>
    <path d="M-3.85 -3.45 L2.4 -3.45 3.6 -5.45 11.0 -5.45 8.9 -1.35 13.05 -0.55 15.45 -0.55 15.65 -0.2 17.45 2.85 14.0 2.85 11.9 4.95 11.3 5.5 6.7 5.5 Q6.75 2.5 3.35 2.8 L-0.1 2.8 -3.95 2.8 -7.4 2.8 -11.05 0.45 Q-13.1 0.45 -14.1 1.3 -13.1 0.45 -11.05 0.45 L-7.4 2.8 -10.55 0.9 -11.15 0.8 -11.2 0.8 -12.1 0.75 -12.65 0.8 -13.35 1.0 -14.1 1.3 -15.85 -4.65 -12.55 -4.65 -10.35 -2.25 -4.85 -2.25 -3.85 -3.45 M17.35 -0.25 L17.15 -0.55 18.1 -0.55 18.3 -0.2 20.05 2.75 20.1 2.85 19.15 2.85 19.15 2.8 18.65 2.0 18.15 1.15 17.95 0.8 17.35 -0.25 M20.0 -0.25 L19.8 -0.55 20.8 -0.55 21.0 -0.25 20.95 -0.25 20.95 -0.2 22.15 1.85 22.7 2.75 22.75 2.75 22.8 2.85 21.8 2.85 21.75 2.75 21.25 1.9 20.75 1.05 20.55 0.75 20.0 -0.25 M23.1 0.5 L22.5 -0.55 24.65 -0.55 27.5 -5.45 30.45 -5.45 31.6 -4.75 31.6 -3.4 31.6 -0.15 30.5 1.75 30.45 1.85 29.9 2.75 29.85 2.85 26.65 2.85 24.5 2.85 24.0 2.0 23.55 1.25 23.1 0.5 M5.55 0.75 L6.35 -1.5 -0.1 -1.5 0.65 0.75 5.55 0.75 M-3.95 1.35 L-6.95 1.35 -8.85 0.1 -6.95 1.35 -3.95 1.35" fill="#cfb666" fill-rule="evenodd" stroke="none"/>
    <path d="M27.15 4.75 L27.2 4.8 27.15 4.8 27.15 4.75 M24.5 2.85 L24.6 3.05 22.9 3.05 22.8 2.85 24.5 2.85 M21.8 2.85 L21.9 3.05 20.2 3.05 20.1 2.85 21.8 2.85 M19.15 2.85 L19.3 3.1 17.6 3.1 17.45 2.85 19.15 2.85" fill="#949494" fill-rule="evenodd" stroke="none"/>
    <path d="M-7.4 2.8 L-3.95 2.8 Q-6.0 3.05 -6.4 4.0 L-7.4 2.8" fill="#2d2d2d" fill-rule="evenodd" stroke="none"/>
    <path d="M11.0 -5.45 L3.6 -5.45 2.4 -3.45 -3.85 -3.45 -5.95 -3.45 -7.05 -4.65 -12.55 -4.65 -15.85 -4.65 Q-18.2 -3.95 -19.7 -1.65 -19.4 1.3 -19.65 3.5 L-19.75 4.2 Q-20.15 6.75 -21.35 8.0 -18.05 8.2 -16.2 6.35 L-15.65 5.75 Q-14.45 4.1 -14.1 1.3 -13.1 0.45 -11.05 0.45 L-7.4 2.8 -3.95 2.8 -0.1 2.8 Q-0.15 3.6 -1.55 5.65 -3.0 6.65 -4.65 6.4 L-4.7 6.4 -6.4 4.0 Q-6.0 3.05 -3.95 2.8 M3.35 2.8 Q6.75 2.5 6.7 5.5 L11.3 5.5 11.9 4.95 14.0 2.85 17.45 2.85 19.15 2.85 20.1 2.85 21.8 2.85 22.8 2.85 24.5 2.85 26.65 2.85 24.6 4.9 11.9 4.95 M27.5 -5.45 L30.45 -5.45 31.6 -4.75 31.6 -3.4 33.3 -3.4 33.35 1.75 30.5 1.75 31.6 -0.15 31.6 -3.4 M30.45 1.85 L29.9 2.75 M29.85 2.85 L26.65 2.85 M0.9 8.7 Q2.3 6.25 3.35 2.8 M5.55 0.75 L6.35 -1.5 -0.1 -1.5 0.65 0.75 5.55 0.75 M-7.4 2.8 L-6.4 4.0 M0.9 8.7 Q-0.25 10.8 -1.65 12.1 L-2.3 12.65 -2.25 12.1 Q-2.25 9.2 -4.65 6.4" fill="none" stroke="#4a4628" stroke-linecap="round" stroke-linejoin="round" stroke-width="1.0"/>
    <path d="M-8.85 0.1 L-6.95 1.35 -3.95 1.35" fill="none" stroke="#4d4832" stroke-linecap="round" stroke-linejoin="round" stroke-width="1.0"/>
    <path d="M-19.7 -1.65 L-14.1 1.3 M-1.55 5.65 L0.9 8.7 M-19.65 3.5 L-15.65 5.75" fill="none" stroke="#64583a" stroke-linecap="round" stroke-linejoin="round" stroke-width="1.0"/>
    <path d="M-15.85 -4.65 L-14.1 1.3 M-0.1 2.8 L3.35 2.8" fill="none" stroke="#72593b" stroke-linecap="round" stroke-linejoin="round" stroke-width="1.0"/>
  </g>
</svg>
