<?xml version="1.0" encoding="UTF-8" standalone="no"?>
<svg xmlns:ffdec="https://www.free-decompiler.com/flash" xmlns:xlink="http://www.w3.org/1999/xlink" ffdec:objectType="shape" height="29.75px" width="16.85px" xmlns="http://www.w3.org/2000/svg">
  <g transform="matrix(1.0, 0.0, 0.0, 1.0, 0.5, 0.95)">
    <path d="M11.45 3.25 Q13.35 13.35 11.95 23.1 L5.1 22.05 Q2.15 14.9 1.5 6.4 2.05 1.7 3.55 -0.4 9.05 -0.8 11.45 3.25" fill="#232121" fill-rule="evenodd" stroke="none"/>
    <path d="M11.45 3.25 Q9.05 -0.8 3.55 -0.4 2.05 1.7 1.5 6.4 2.15 14.9 5.1 22.05 L11.95 23.1 Q13.35 13.35 11.45 3.25 Z" fill="none" stroke="#17181c" stroke-linecap="round" stroke-linejoin="round" stroke-width="1.0"/>
    <path d="M12.5 12.3 L11.2 11.15 12.5 12.3 M10.15 15.35 Q7.6 12.7 2.75 12.45 L1.1 12.45 Q-0.25 9.5 0.05 5.95 1.1 8.05 3.5 8.0 L6.45 9.95 8.65 8.75 Q10.1 7.85 9.85 4.4 12.05 3.25 13.3 0.55 L14.5 13.5 Q12.75 17.0 10.15 15.35 M12.55 14.35 L8.35 11.0 12.55 14.35" fill="#373943" fill-rule="evenodd" stroke="none"/>
    <path d="M14.5 13.5 L14.75 16.1 13.65 23.75 Q12.05 27.0 9.45 28.3 L9.45 25.5 5.75 24.1 Q3.45 22.45 2.65 20.25 L7.2 21.6 8.25 20.2 10.1 19.15 11.35 16.9 Q10.85 16.05 10.15 15.35 12.75 17.0 14.5 13.5 M10.95 24.6 L8.2 23.45 10.95 24.6" fill="#23252e" fill-rule="evenodd" stroke="none"/>
    <path d="M8.2 23.45 L10.95 24.6" fill="none" stroke="#272831" stroke-linecap="round" stroke-linejoin="round" stroke-width="1.0"/>
    <path d="M10.15 15.35 Q7.6 12.7 2.75 12.45 L1.1 12.45 Q-0.25 9.5 0.05 5.95 1.1 8.05 3.5 8.0 L6.45 9.95 8.65 8.75 Q10.1 7.85 9.85 4.4 12.05 3.25 13.3 0.55 L14.5 13.5 14.75 16.1 13.65 23.75 Q12.05 27.0 9.45 28.3 L9.45 25.5 5.75 24.1 Q3.45 22.45 2.65 20.25 L7.2 21.6 8.25 20.2 10.1 19.15 11.35 16.9 Q10.85 16.05 10.15 15.35" fill="none" stroke="#12121c" stroke-linecap="round" stroke-linejoin="round" stroke-width="1.0"/>
    <path d="M11.2 11.15 L12.5 12.3 M8.35 11.0 L12.55 14.35" fill="none" stroke="#1b1b20" stroke-linecap="round" stroke-linejoin="round" stroke-width="1.0"/>
    <path d="M15.65 9.2 L14.5 13.9 Q13.45 10.9 11.45 9.45 L12.0 6.45 Q13.85 6.9 14.8 2.45 16.25 5.85 15.65 9.2 M13.55 16.8 L15.8 14.95 Q15.95 18.9 13.9 22.15 L13.05 22.15 Q13.8 20.0 13.55 16.8" fill="#434769" fill-rule="evenodd" stroke="none"/>
    <path d="M15.65 9.2 L14.5 13.9 Q13.45 10.9 11.45 9.45 L12.0 6.45 Q13.85 6.9 14.8 2.45 16.25 5.85 15.65 9.2 M13.55 16.8 L15.8 14.95 Q15.95 18.9 13.9 22.15 L13.05 22.15 Q13.8 20.0 13.55 16.8 Z" fill="none" stroke="#141520" stroke-linecap="round" stroke-linejoin="round" stroke-width="1.0"/>
  </g>
</svg>
