<?xml version="1.0" encoding="UTF-8" standalone="no"?>
<svg xmlns:ffdec="https://www.free-decompiler.com/flash" xmlns:xlink="http://www.w3.org/1999/xlink" ffdec:objectType="shape" height="23.35px" width="12.8px" xmlns="http://www.w3.org/2000/svg">
  <g transform="matrix(1.0, 0.0, 0.0, 1.0, 7.5, 5.7)">
    <path d="M2.85 -3.25 L2.9 -3.2 2.85 -3.25 3.05 -3.15 2.9 -3.2 Q3.4 -2.95 4.3 -0.7 5.2 1.65 4.4 8.9 3.6 16.15 1.45 16.8 L-2.0 16.9 Q-3.35 16.3 -3.25 13.05 -3.15 9.8 -5.85 4.8 -8.6 -0.2 -4.75 -4.1 -1.0 -6.7 2.85 -3.25" fill="#171717" fill-rule="evenodd" stroke="none"/>
    <path d="M2.9 -3.2 L2.85 -3.25 Q-1.0 -6.7 -4.75 -4.1 -8.6 -0.2 -5.85 4.8 -3.15 9.8 -3.25 13.05 -3.35 16.3 -2.0 16.9 L1.45 16.8 Q3.6 16.15 4.4 8.9 5.2 1.65 4.3 -0.7 3.4 -2.95 2.9 -3.2 L3.05 -3.15" fill="none" stroke="#000000" stroke-linecap="round" stroke-linejoin="round" stroke-width="1.0"/>
  </g>
</svg>
