<?xml version="1.0" encoding="UTF-8" standalone="no"?>
<svg xmlns:ffdec="https://www.free-decompiler.com/flash" xmlns:xlink="http://www.w3.org/1999/xlink" ffdec:objectType="shape" height="19.95px" width="13.05px" xmlns="http://www.w3.org/2000/svg">
  <g transform="matrix(1.0, 0.0, 0.0, 1.0, 5.1, 4.8)">
    <path d="M-4.05 9.05 L-3.9 0.65 -3.45 -0.4 -2.4 -1.8 -0.2 -2.65 2.15 -2.5 Q3.35 -2.3 5.5 -0.55 L5.7 8.85 Q5.0 15.1 0.3 14.7 -1.6 14.5 -2.85 13.05 -4.2 11.4 -4.05 9.05" fill="#121313" fill-rule="evenodd" stroke="none"/>
    <path d="M-4.05 9.05 Q-4.2 11.4 -2.85 13.05 -1.6 14.5 0.3 14.7 5.0 15.1 5.7 8.85 L5.5 -0.55 Q3.35 -2.3 2.15 -2.5 L-0.2 -2.65 -2.4 -1.8 -3.45 -0.4 -3.9 0.65 -4.05 9.05 Z" fill="none" stroke="#000000" stroke-linecap="round" stroke-linejoin="round" stroke-width="0.9500000000000001"/>
    <path d="M0.3 3.75 L-1.5 2.9 -2.35 3.8 -3.05 3.55 -4.65 2.45 -4.45 -1.0 Q-4.05 -2.8 -3.15 -3.45 -1.55 -4.6 1.55 -4.3 3.15 -4.15 4.85 -3.05 5.65 -2.55 6.5 -0.95 7.45 1.75 7.5 4.8 7.6 8.8 5.9 11.7 3.55 12.95 1.4 11.65 L-0.25 9.55 0.55 7.8 0.75 5.05 0.3 3.75" fill="#272828" fill-rule="evenodd" stroke="none"/>
    <path d="M0.3 3.75 L-1.5 2.9 -2.35 3.8 -3.05 3.55 -4.65 2.45 -4.45 -1.0 Q-4.05 -2.8 -3.15 -3.45 -1.55 -4.6 1.55 -4.3 3.15 -4.15 4.85 -3.05 5.65 -2.55 6.5 -0.95 7.45 1.75 7.5 4.8 7.6 8.8 5.9 11.7 3.55 12.95 1.4 11.65 L-0.25 9.55 0.55 7.8 0.75 5.05 0.3 3.75 Z" fill="none" stroke="#181818" stroke-linecap="round" stroke-linejoin="round" stroke-width="0.9500000000000001"/>
    <path d="M-2.1 -1.3 L-1.4 -2.4 -0.6 -1.5 -2.1 -1.3" fill="#272828" fill-rule="evenodd" stroke="none"/>
    <path d="M-2.1 -1.3 L-1.4 -2.4 -0.6 -1.5" fill="none" stroke="#181818" stroke-linecap="round" stroke-linejoin="round" stroke-width="0.9500000000000001"/>
    <path d="M5.05 7.9 L5.05 8.45" fill="none" stroke="#181818" stroke-linecap="round" stroke-linejoin="round" stroke-width="0.9500000000000001"/>
    <path d="M3.9 9.4 L3.9 10.0" fill="none" stroke="#181818" stroke-linecap="round" stroke-linejoin="round" stroke-width="0.9500000000000001"/>
    <path d="M2.25 7.7 L2.25 8.3" fill="none" stroke="#181818" stroke-linecap="round" stroke-linejoin="round" stroke-width="0.9500000000000001"/>
  </g>
</svg>
