<?xml version="1.0" encoding="UTF-8" standalone="no"?>
<svg xmlns:ffdec="https://www.free-decompiler.com/flash" xmlns:xlink="http://www.w3.org/1999/xlink" ffdec:objectType="shape" height="20.7px" width="14.2px" xmlns="http://www.w3.org/2000/svg">
  <g transform="matrix(1.0, 0.0, 0.0, 1.0, -3.35, -5.15)">
    <path d="M15.4 10.4 L16.25 10.4 16.9 10.85 16.9 11.85 17.0 15.45 16.25 21.45 15.1 21.7 12.6 22.05 11.2 20.75 12.6 22.05 15.1 21.7 14.55 23.8 11.7 23.55 10.2 21.25 Q10.55 21.55 11.2 20.75 L11.8 19.75 12.2 19.0 12.3 18.8 Q13.1 17.25 13.3 16.0 L13.3 14.65 13.45 12.0 13.45 10.5 15.4 10.4 M13.3 16.0 L13.65 15.0 13.45 10.5 13.65 15.0 13.3 16.0 M13.65 20.15 L15.25 20.0 13.65 20.15 M14.65 18.65 L15.65 18.6 14.65 18.65" fill="#3b3b5d" fill-rule="evenodd" stroke="none"/>
    <path d="M15.4 10.4 L13.45 10.5 13.45 12.0 13.3 14.65 13.3 16.0 Q13.1 17.25 12.3 18.8 L12.2 19.0 11.8 19.75 11.2 20.75 Q10.55 21.55 10.2 21.25 L11.7 23.55 14.55 23.8 14.2 24.1 13.95 24.25 Q13.25 25.1 11.85 25.3 L10.2 25.25 Q8.1 25.05 7.05 23.45 8.1 25.05 10.2 25.25 L11.85 25.3 9.3 25.35 Q7.7 24.85 7.05 23.45 6.7 22.65 6.6 21.7 L6.5 21.3 6.7 21.45 7.6 22.05 8.9 20.75 9.7 19.65 Q10.7 18.3 11.65 14.8 10.7 18.3 9.7 19.65 L8.9 20.75 10.0 19.0 11.65 14.8 12.15 12.95 11.85 9.0 10.15 9.5 9.5 7.95 8.15 8.0 7.7 10.15 6.6 10.25 6.05 8.55 4.8 8.2 6.3 6.65 4.8 8.2 4.65 9.2 Q4.55 10.2 4.6 11.3 L4.3 11.2 4.25 11.2 Q4.2 9.15 4.8 8.2 4.2 9.15 4.25 11.2 4.1 9.5 4.55 8.65 5.15 7.3 6.3 6.65 L7.15 6.25 9.85 5.9 Q13.0 5.95 15.4 10.4 M11.8 19.75 Q11.1 20.85 10.2 21.25 11.1 20.85 11.8 19.75 M13.3 16.0 L12.35 18.65 12.3 18.8 12.35 18.65 13.3 16.0" fill="#181818" fill-rule="evenodd" stroke="none"/>
    <path d="M6.05 8.55 L6.6 10.25 7.7 10.15 8.15 8.0 9.5 7.95 10.15 9.5 11.85 9.0 12.15 12.95 11.65 14.8 10.0 19.0 8.9 20.75 7.6 22.05 6.7 21.45 6.5 21.3 6.15 21.05 5.8 19.3 6.0 19.25 7.6 19.0 9.45 15.9 10.2 13.15 9.4 11.85 8.8 11.75 7.7 13.05 6.05 13.05 5.4 11.75 4.6 11.3 Q4.55 10.2 4.65 9.2 L4.8 8.2 6.05 8.55 M7.6 22.05 L8.15 21.55 8.9 20.75 8.15 21.55 7.6 22.05" fill="#2e2e3d" fill-rule="evenodd" stroke="none"/>
    <path d="M4.25 11.2 L4.3 11.2 4.6 11.3 5.4 11.75 6.05 13.05 7.7 13.05 8.8 11.75 9.4 11.85 10.2 13.15 9.45 15.9 7.6 19.0 6.0 19.25 5.8 19.3 5.65 19.3 5.25 19.35 Q4.25 16.25 4.0 14.7 L3.9 13.7 3.9 11.75 3.9 11.1 4.25 11.2 M6.3 16.2 L7.05 16.2 6.3 16.2 M6.05 15.0 L7.15 14.95 6.05 15.0" fill="#383848" fill-rule="evenodd" stroke="none"/>
    <path d="M16.9 11.85 L16.9 10.85 16.25 10.4 15.4 10.4 M15.1 21.7 L16.25 21.45 17.0 15.45 17.05 14.85 16.9 11.85 M14.55 23.8 L15.1 21.7" fill="none" stroke="#15151d" stroke-linecap="round" stroke-linejoin="miter-clip" stroke-miterlimit="4.0" stroke-width="1.0"/>
    <path d="M15.4 10.4 L13.45 10.5 13.65 15.0 13.3 16.0 12.35 18.65 12.3 18.8 12.2 19.0 11.8 19.75 Q11.1 20.85 10.2 21.25 L11.7 23.55 14.55 23.8" fill="none" stroke="#0e0d13" stroke-linecap="round" stroke-linejoin="round" stroke-width="1.0"/>
    <path d="M15.4 10.4 Q15.0 7.05 11.25 5.95 8.35 5.05 6.3 6.65 L4.8 8.2" fill="none" stroke="#0e0e0e" stroke-linecap="round" stroke-linejoin="round" stroke-width="1.0"/>
    <path d="M6.05 8.55 L6.6 10.25 7.7 10.15 8.15 8.0 9.5 7.95 10.15 9.5 11.85 9.0 12.15 12.95 11.65 14.8 Q10.7 18.3 9.7 19.65 L8.9 20.75 8.15 21.55 7.6 22.05" fill="none" stroke="#0d0d0e" stroke-linecap="round" stroke-linejoin="round" stroke-width="1.0"/>
    <path d="M7.6 22.05 L6.7 21.45 M4.8 8.2 L6.05 8.55 M4.8 8.2 Q4.2 9.15 4.25 11.2 M5.65 19.3 L6.15 21.05" fill="none" stroke="#030305" stroke-linecap="round" stroke-linejoin="round" stroke-width="1.0"/>
    <path d="M4.25 11.2 L4.3 11.2 M4.25 11.2 L3.9 11.1 3.9 11.75 3.85 14.05 4.0 14.7 Q4.25 16.25 5.25 19.35 L5.65 19.3 5.8 19.3 6.0 19.25" fill="none" stroke="#17171c" stroke-linecap="round" stroke-linejoin="round" stroke-width="1.0"/>
    <path d="M4.3 11.2 L4.6 11.3 5.4 11.75 6.05 13.05 7.7 13.05 8.8 11.75 9.4 11.85 10.2 13.15 9.45 15.9 7.6 19.0 6.0 19.25" fill="none" stroke="#20202a" stroke-linecap="round" stroke-linejoin="round" stroke-width="1.0"/>
    <path d="M7.15 14.95 L6.05 15.0 M15.65 18.6 L14.65 18.65 M15.25 20.0 L13.65 20.15" fill="none" stroke="#1e1e27" stroke-linecap="round" stroke-linejoin="round" stroke-width="1.0"/>
    <path d="M7.05 16.2 L6.3 16.2" fill="none" stroke="#00d8bf" stroke-linecap="round" stroke-linejoin="round" stroke-width="1.0"/>
    <path d="M11.2 20.75 L12.6 22.05 15.1 21.7" fill="none" stroke="#252538" stroke-linecap="round" stroke-linejoin="round" stroke-width="1.0"/>
    <path d="M7.05 23.45 Q8.1 25.05 10.2 25.25 L11.85 25.3 Q13.25 25.1 13.95 24.25 L14.2 24.1 M6.15 21.05 Q6.4 22.5 7.05 23.45" fill="none" stroke="#111111" stroke-linecap="round" stroke-linejoin="round" stroke-width="1.0"/>
  </g>
</svg>
