<?xml version="1.0" encoding="UTF-8" standalone="no"?>
<svg xmlns:ffdec="https://www.free-decompiler.com/flash" xmlns:xlink="http://www.w3.org/1999/xlink" ffdec:objectType="shape" height="22.05px" width="15.4px" xmlns="http://www.w3.org/2000/svg">
  <g transform="matrix(1.0, 0.0, 0.0, 1.0, 0.5, 0.5)">
    <path d="M13.35 17.05 L12.65 18.85 Q11.5 20.9 9.25 21.05 6.95 21.15 5.3 19.45 L4.8 18.85 11.1 18.85 13.35 17.05 M1.45 4.4 L1.7 2.9 Q2.6 0.2 5.25 0.05 7.85 -0.15 9.65 1.1 11.45 2.3 12.25 5.2 L12.65 7.55 11.55 6.75 11.4 5.65 Q9.15 3.3 4.65 3.2 2.6 3.5 1.45 4.4" fill="#202020" fill-rule="evenodd" stroke="none"/>
    <path d="M0.65 8.85 L0.0 6.25 Q0.45 5.1 1.45 4.4 2.6 3.5 4.65 3.2 9.15 3.3 11.4 5.65 L11.55 6.75 12.6 15.4 10.35 17.2 9.45 13.75 8.75 11.25 8.05 8.85 0.65 8.85" fill="url(#gradient0)" fill-rule="evenodd" stroke="none"/>
    <path d="M12.65 7.55 L13.55 8.15 14.4 16.15 13.35 17.05 11.1 18.85 4.8 18.85 4.15 18.85 3.7 17.2 10.35 17.2 12.6 15.4 11.55 6.75 12.65 7.55" fill="url(#gradient1)" fill-rule="evenodd" stroke="none"/>
    <path d="M1.8 13.7 L1.2 11.25 8.75 11.25 9.45 13.75 1.8 13.7" fill="url(#gradient2)" fill-rule="evenodd" stroke="none"/>
    <path d="M1.2 11.25 L0.65 8.85 8.05 8.85 8.75 11.25 1.2 11.25" fill="url(#gradient3)" fill-rule="evenodd" stroke="none"/>
    <path d="M3.7 17.2 L2.7 17.2 1.8 13.7 9.45 13.75 10.35 17.2 3.7 17.2" fill="url(#gradient4)" fill-rule="evenodd" stroke="none"/>
    <path d="M12.65 7.55 L13.55 8.15 14.4 16.15 13.35 17.05 12.65 18.85 Q11.5 20.9 9.25 21.05 6.95 21.15 5.3 19.45 L4.8 18.85 4.15 18.85 3.7 17.2 M0.65 8.85 L0.0 6.25 Q0.45 5.1 1.45 4.4 L1.7 2.9 Q2.6 0.2 5.25 0.05 7.85 -0.15 9.65 1.1 11.45 2.3 12.25 5.2 L12.65 7.55 11.55 6.75 12.6 15.4 10.35 17.2 M1.45 4.4 Q2.6 3.5 4.65 3.2 9.15 3.3 11.4 5.65 L11.55 6.75 M4.8 18.85 L11.1 18.85 13.35 17.05" fill="none" stroke="#121212" stroke-linecap="round" stroke-linejoin="round" stroke-width="1.0"/>
    <path d="M1.2 11.25 L0.65 8.85 8.05 8.85 8.75 11.25 9.45 13.75 10.35 17.2 2.7 17.2 1.8 13.7 1.2 11.25 8.75 11.25 M1.8 13.7 L9.45 13.75" fill="none" stroke="#1e132a" stroke-linecap="round" stroke-linejoin="round" stroke-width="1.0"/>
  </g>
  <defs>
    <linearGradient gradientTransform="matrix(0.0077, 0.0, 0.0, 0.0085, 6.3, 10.2)" gradientUnits="userSpaceOnUse" id="gradient0" spreadMethod="pad" x1="-819.2" x2="819.2">
      <stop offset="0.0" stop-color="#161616"/>
      <stop offset="1.0" stop-color="#292929"/>
    </linearGradient>
    <linearGradient gradientTransform="matrix(0.0065, 0.0, 0.0, 0.0074, 9.05, 12.8)" gradientUnits="userSpaceOnUse" id="gradient1" spreadMethod="pad" x1="-819.2" x2="819.2">
      <stop offset="0.0" stop-color="#161616"/>
      <stop offset="1.0" stop-color="#292929"/>
    </linearGradient>
    <linearGradient gradientTransform="matrix(0.005, 0.0, 0.0, 0.0015, 5.3, 12.5)" gradientUnits="userSpaceOnUse" id="gradient2" spreadMethod="pad" x1="-819.2" x2="819.2">
      <stop offset="0.0" stop-color="#211a2e"/>
      <stop offset="1.0" stop-color="#3b2b58"/>
    </linearGradient>
    <linearGradient gradientTransform="matrix(0.0049, 0.0, 0.0, 0.0015, 4.7, 10.05)" gradientUnits="userSpaceOnUse" id="gradient3" spreadMethod="pad" x1="-819.2" x2="819.2">
      <stop offset="0.0" stop-color="#211a2e"/>
      <stop offset="1.0" stop-color="#3b2b58"/>
    </linearGradient>
    <linearGradient gradientTransform="matrix(0.0052, 0.0, 0.0, 0.0021, 6.05, 15.45)" gradientUnits="userSpaceOnUse" id="gradient4" spreadMethod="pad" x1="-819.2" x2="819.2">
      <stop offset="0.0" stop-color="#211a2e"/>
      <stop offset="1.0" stop-color="#3b2b58"/>
    </linearGradient>
  </defs>
</svg>
