<?xml version="1.0" encoding="UTF-8" standalone="no"?>
<svg xmlns:xlink="http://www.w3.org/1999/xlink" height="5.25px" width="11.7px" xmlns="http://www.w3.org/2000/svg">
  <g transform="matrix(1.0, 0.0, 0.0, 1.0, 5.85, 2.6)">
    <path d="M-3.75 -2.1 L5.15 -2.1 5.35 -0.3 5.1 0.65 4.8 1.25 4.2 2.15 0.95 2.15 -2.35 2.15 -4.7 2.15 -5.35 1.45 -4.75 -1.55 -4.4 -1.75 -4.35 -1.75 -3.75 -2.1 M1.35 -0.2 L0.95 2.15 1.35 -0.2 M-1.95 -0.2 L-2.35 2.15 -1.95 -0.2" fill="#333333" fill-rule="evenodd" stroke="none"/>
    <path d="M-3.75 -2.1 L5.15 -2.1 5.35 -0.3 5.1 0.65 4.8 1.25 4.2 2.15 0.95 2.15 -2.35 2.15 -4.7 2.15 -5.35 1.45 -4.75 -1.55 -4.4 -1.75 -4.35 -1.75 -3.75 -2.1 M-2.35 2.15 L-1.95 -0.2 M0.95 2.15 L1.35 -0.2" fill="none" stroke="#222222" stroke-linecap="round" stroke-linejoin="round" stroke-width="1.0"/>
  </g>
</svg>
