<?xml version="1.0" encoding="UTF-8" standalone="no"?>
<svg xmlns:ffdec="https://www.free-decompiler.com/flash" xmlns:xlink="http://www.w3.org/1999/xlink" ffdec:objectType="shape" height="22.05px" width="15.4px" xmlns="http://www.w3.org/2000/svg">
  <g transform="matrix(1.0, 0.0, 0.0, 1.0, 1.15, 3.6)">
    <path d="M0.8 1.3 Q1.95 0.4 4.0 0.1 8.5 0.2 10.75 2.55 L10.9 3.65 11.95 12.3 9.7 14.1 8.8 10.65 8.1 8.15 7.4 5.75 0.0 5.75 -0.65 3.15 Q-0.2 2.0 0.8 1.3" fill="url(#gradient0)" fill-rule="evenodd" stroke="none"/>
    <path d="M10.9 3.65 L12.0 4.45 12.9 5.05 13.75 13.05 12.7 13.95 10.45 15.75 4.15 15.75 3.5 15.75 3.05 14.1 2.05 14.1 1.15 10.6 0.55 8.15 0.0 5.75 7.4 5.75 8.1 8.15 8.8 10.65 9.7 14.1 11.95 12.3 10.9 3.65 M3.05 14.1 L9.7 14.1 3.05 14.1 M0.55 8.15 L8.1 8.15 0.55 8.15 M8.8 10.65 L1.15 10.6 8.8 10.65" fill="#261515" fill-rule="evenodd" stroke="none"/>
    <path d="M0.8 1.3 L1.05 -0.2 Q1.95 -2.9 4.6 -3.05 7.2 -3.25 9.0 -2.0 10.8 -0.8 11.6 2.1 L12.0 4.45 10.9 3.65 10.75 2.55 Q8.5 0.2 4.0 0.1 1.95 0.4 0.8 1.3 M12.7 13.95 L12.0 15.75 Q10.85 17.8 8.6 17.95 6.3 18.05 4.65 16.35 L4.15 15.75 10.45 15.75 12.7 13.95" fill="#1d1616" fill-rule="evenodd" stroke="none"/>
    <path d="M12.0 4.45 L11.6 2.1 Q10.8 -0.8 9.0 -2.0 7.2 -3.25 4.6 -3.05 1.95 -2.9 1.05 -0.2 L0.8 1.3 Q1.95 0.4 4.0 0.1 8.5 0.2 10.75 2.55 L10.9 3.65 12.0 4.45 12.9 5.05 13.75 13.05 12.7 13.95 12.0 15.75 Q10.85 17.8 8.6 17.95 6.3 18.05 4.65 16.35 L4.15 15.75 3.5 15.75 3.05 14.1 2.05 14.1 1.15 10.6 0.55 8.15 0.0 5.75 -0.65 3.15 Q-0.2 2.0 0.8 1.3 M0.0 5.75 L7.4 5.75 8.1 8.15 8.8 10.65 9.7 14.1 11.95 12.3 10.9 3.65 M1.15 10.6 L8.8 10.65 M8.1 8.15 L0.55 8.15 M9.7 14.1 L3.05 14.1 M4.15 15.75 L10.45 15.75 12.7 13.95" fill="none" stroke="#0a0707" stroke-linecap="round" stroke-linejoin="round" stroke-width="1.0"/>
  </g>
  <defs>
    <radialGradient cx="0" cy="0" gradientTransform="matrix(0.0101, 0.0, 0.0, 0.0101, 5.65, 7.1)" gradientUnits="userSpaceOnUse" id="gradient0" r="819.2" spreadMethod="pad">
      <stop offset="0.0" stop-color="#2a1313"/>
      <stop offset="0.6588235294117647" stop-color="#351818"/>
      <stop offset="1.0" stop-color="#623232"/>
    </radialGradient>
  </defs>
</svg>
