<?xml version="1.0" encoding="UTF-8" standalone="no"?>
<svg xmlns:ffdec="https://www.free-decompiler.com/flash" xmlns:xlink="http://www.w3.org/1999/xlink" ffdec:objectType="shape" height="20.55px" width="19.0px" xmlns="http://www.w3.org/2000/svg">
  <g transform="matrix(1.0, 0.0, 0.0, 1.0, 10.75, 6.25)">
    <path d="M3.2 10.45 L1.55 9.55 0.6 4.5 -1.65 -1.45 2.55 -5.55 3.75 -3.35 2.05 -1.0 3.6 2.5 6.55 2.95 7.8 9.55 3.2 10.45 M-5.7 0.5 L-3.35 5.35 -3.0 12.9 -5.2 13.3 -9.25 6.65 -9.3 6.6 -10.3 1.4 -5.7 0.5" fill="#1d1616" fill-rule="evenodd" stroke="none"/>
    <path d="M-8.95 7.15 L-6.5 7.0 -4.5 10.9 -5.4 12.9 -8.95 7.15" fill="#ff0000" fill-rule="evenodd" stroke="none"/>
    <path d="M-8.8 7.1 L-5.3 12.85" ffdec:has-small-stroke="true" ffdec:original-stroke-width="0.95" fill="none" stroke="#ab0000" stroke-linecap="round" stroke-linejoin="round" stroke-width="1.0"/>
    <path d="M1.35 -4.3 L-3.15 0.05 -8.85 1.15 -7.85 -2.9 Q-7.25 -4.45 -4.1 -5.45 -1.0 -6.5 1.35 -4.3 M1.55 9.55 L3.2 10.45 Q2.65 13.8 0.45 13.85 -1.65 14.0 -3.0 12.9 L1.55 9.55" fill="#121718" fill-rule="evenodd" stroke="none"/>
    <path d="M6.55 2.95 L3.6 2.5 2.05 -1.0 3.75 -3.35 Q5.4 -0.35 6.55 2.9 L6.55 2.95 M-1.65 -1.45 L0.6 4.5 1.55 9.55 -3.0 12.9 -3.35 5.35 -5.7 0.5 -3.15 0.05 -1.65 -1.45" fill="#2a1f1f" fill-rule="evenodd" stroke="none"/>
    <path d="M7.8 9.55 L3.2 10.45 Q2.65 13.8 0.45 13.85 -1.65 14.0 -3.0 12.9 L-5.2 13.3 -4.5 10.9 -5.25 9.1 -6.5 7.0 -9.25 6.65 -9.3 6.6 -10.3 1.4 -8.85 1.15 -7.85 -2.9 Q-7.25 -4.45 -4.1 -5.45 -1.0 -6.5 1.35 -4.3 L2.55 -5.55 3.75 -3.35 Q5.4 -0.35 6.55 2.9 L6.55 2.95 7.8 9.55 M6.55 2.95 L3.6 2.5 2.05 -1.0 3.75 -3.35 M-8.85 1.15 L-5.7 0.5 -3.15 0.05 -1.65 -1.45 1.35 -4.3 M-1.65 -1.45 L0.6 4.5 1.55 9.55 3.2 10.45 M-3.0 12.9 L-3.35 5.35 -5.7 0.5 M1.55 9.55 L-3.0 12.9" ffdec:has-small-stroke="true" ffdec:original-stroke-width="0.95" fill="none" stroke="#0a0707" stroke-linecap="round" stroke-linejoin="round" stroke-width="1.0"/>
  </g>
</svg>
