<?xml version="1.0" encoding="UTF-8" standalone="no"?>
<svg xmlns:ffdec="https://www.free-decompiler.com/flash" xmlns:xlink="http://www.w3.org/1999/xlink" ffdec:objectType="shape" height="21.3px" width="14.9px" xmlns="http://www.w3.org/2000/svg">
  <g transform="matrix(1.0, 0.0, 0.0, 1.0, 8.05, 5.55)">
    <path d="M2.65 -4.6 L-0.4 -2.25 0.95 -3.6 2.65 -4.6 M-1.15 1.55 L-1.1 1.55 -1.2 1.95 -1.15 1.55" fill="url(#gradient0)" fill-rule="evenodd" stroke="none"/>
    <path d="M2.65 -4.6 L2.75 -4.5 6.35 -0.75 6.15 4.1 6.15 6.05 2.9 4.95 1.8 2.15 -1.1 1.55 -1.05 1.3 -1.1 1.55 -1.15 1.55 -1.05 1.3 -0.4 -0.55 -0.4 -2.25 2.65 -4.6" fill="url(#gradient1)" fill-rule="evenodd" stroke="none"/>
    <path d="M-1.1 1.55 L1.8 2.15 2.9 4.95 6.15 6.05 4.7 13.4 3.4 13.4 2.0 12.75 Q0.85 12.25 -0.1 10.65 -1.35 8.45 -1.35 6.25 L-1.45 3.55 -1.25 2.2 -1.2 1.95 -1.1 1.55" fill="url(#gradient2)" fill-rule="evenodd" stroke="none"/>
    <path d="M3.4 13.4 L0.3 15.25 -2.7 13.65 Q-4.25 12.7 -4.6 11.7 L-5.25 9.85 Q-2.0 11.05 -0.1 10.65 0.85 12.25 2.0 12.75 L3.4 13.4" fill="url(#gradient3)" fill-rule="evenodd" stroke="none"/>
    <path d="M-5.75 8.6 L-7.55 0.05 -3.95 -5.05 -0.65 -5.05 0.95 -3.6 -0.4 -2.25 -0.85 0.0 -4.1 1.8 -4.1 7.1 -5.75 8.6" fill="url(#gradient4)" fill-rule="evenodd" stroke="none"/>
    <path d="M-0.4 -2.25 L-0.4 -0.55 -1.05 1.3 -0.85 0.0 -0.4 -2.25" fill="#1e1e1e" fill-rule="evenodd" stroke="none"/>
    <path d="M-5.25 9.85 L-5.65 9.7 -5.75 8.6 -4.1 7.1 -4.1 1.8 -0.85 0.0 -1.05 1.3 -1.15 1.55 -1.2 1.95 -1.25 2.2 -1.45 3.55 -1.35 6.25 Q-1.35 8.45 -0.1 10.65 -2.0 11.05 -5.25 9.85" fill="url(#gradient5)" fill-rule="evenodd" stroke="none"/>
    <path d="M6.15 6.05 L6.15 4.1 6.35 -0.75 2.75 -4.5 2.65 -4.6 -0.4 -2.25 -0.85 0.0 -1.05 1.3 -1.1 1.55 -1.2 1.95 -1.25 2.2 -1.45 3.55 -1.35 6.25 Q-1.35 8.45 -0.1 10.65 -2.0 11.05 -5.25 9.85 L-5.65 9.7 -5.75 8.6 -7.55 0.05 -3.95 -5.05 -0.65 -5.05 0.95 -3.6 M1.8 2.15 L2.9 4.95 6.15 6.05 M4.7 13.4 L3.4 13.4 2.0 12.75 Q0.85 12.25 -0.1 10.65 M-2.7 13.65 Q-4.25 12.7 -4.6 11.7 L-5.25 9.85 M-1.15 1.55 L-1.1 1.55 M-0.85 0.0 L-4.1 1.8 -4.1 7.1 -5.75 8.6" fill="none" stroke="#0e0e0e" stroke-linecap="round" stroke-linejoin="round" stroke-width="1.0"/>
    <path d="M-1.1 1.55 L1.8 2.15 M6.15 6.05 L4.7 13.4 M3.4 13.4 L0.3 15.25 -2.7 13.65" fill="none" stroke="#000000" stroke-linecap="round" stroke-linejoin="round" stroke-width="1.0"/>
  </g>
  <defs>
    <radialGradient cx="0" cy="0" fx="147.20000000000002" fy="0" gradientTransform="matrix(-0.0026, 0.0349, -0.0156, -0.0015, 4.75, -1.95)" gradientUnits="userSpaceOnUse" id="gradient0" r="819.2" spreadMethod="pad">
      <stop offset="0.0" stop-color="#353535"/>
      <stop offset="0.4470588235294118" stop-color="#1c1b1b"/>
      <stop offset="1.0" stop-color="#090909"/>
      <stop offset="1.0" stop-color="#383838"/>
    </radialGradient>
    <radialGradient cx="0" cy="0" gradientTransform="matrix(0.0226, 0.0, 0.0, 0.0222, 4.3, 13.4)" gradientUnits="userSpaceOnUse" id="gradient1" r="819.2" spreadMethod="pad">
      <stop offset="0.0" stop-color="#333333"/>
      <stop offset="0.0" stop-color="#333333"/>
      <stop offset="0.5098039215686274" stop-color="#191919"/>
      <stop offset="1.0" stop-color="#333333"/>
    </radialGradient>
    <radialGradient cx="0" cy="0" gradientTransform="matrix(0.0302, 0.0, 0.0, 0.0302, 4.15, 25.7)" gradientUnits="userSpaceOnUse" id="gradient2" r="819.2" spreadMethod="pad">
      <stop offset="0.0" stop-color="#333333"/>
      <stop offset="0.0" stop-color="#333333"/>
      <stop offset="0.5098039215686274" stop-color="#191919"/>
      <stop offset="1.0" stop-color="#333333"/>
    </radialGradient>
    <radialGradient cx="0" cy="0" gradientTransform="matrix(0.0167, 0.0, 0.0, 0.0167, -0.95, 22.8)" gradientUnits="userSpaceOnUse" id="gradient3" r="819.2" spreadMethod="pad">
      <stop offset="0.0" stop-color="#333333"/>
      <stop offset="0.0" stop-color="#333333"/>
      <stop offset="0.5098039215686274" stop-color="#191919"/>
      <stop offset="1.0" stop-color="#333333"/>
    </radialGradient>
    <radialGradient cx="0" cy="0" gradientTransform="matrix(0.03, 0.0, 0.0, 0.0265, -2.65, 16.0)" gradientUnits="userSpaceOnUse" id="gradient4" r="819.2" spreadMethod="pad">
      <stop offset="0.0" stop-color="#333333"/>
      <stop offset="0.0" stop-color="#333333"/>
      <stop offset="0.5098039215686274" stop-color="#191919"/>
      <stop offset="1.0" stop-color="#333333"/>
    </radialGradient>
    <radialGradient cx="0" cy="0" gradientTransform="matrix(0.0102, 0.0, 0.0, 0.0102, -1.55, 2.5)" gradientUnits="userSpaceOnUse" id="gradient5" r="819.2" spreadMethod="pad">
      <stop offset="0.0" stop-color="#756d5f"/>
      <stop offset="1.0" stop-color="#1f1f1f"/>
      <stop offset="1.0" stop-color="#333333"/>
      <stop offset="1.0" stop-color="#333333"/>
      <stop offset="1.0" stop-color="#202121"/>
      <stop offset="1.0" stop-color="#202121"/>
    </radialGradient>
  </defs>
</svg>
