<?xml version="1.0" encoding="UTF-8" standalone="no"?>
<svg xmlns:xlink="http://www.w3.org/1999/xlink" height="21.3px" width="104.1px" xmlns="http://www.w3.org/2000/svg">
  <g transform="matrix(1.0, 0.0, 0.0, 1.0, 22.25, 7.1)">
    <path d="M-1.25 -4.7 L0.0 -6.6 2.65 -6.6 2.95 -4.7 3.2 -3.1 4.4 -3.1 4.7 -2.1 7.85 -2.1 7.65 -1.25 Q7.65 -0.5 8.3 0.15 7.65 -0.5 7.65 -1.25 L7.85 -2.1 12.0 -2.1 13.5 -4.7 24.25 -4.7 24.25 -1.8 24.25 -0.05 24.25 1.25 24.2 1.25 24.1 1.25 Q22.1 1.4 21.3 3.15 L20.95 4.45 20.9 5.05 18.75 5.05 18.75 4.95 18.75 4.9 18.7 4.75 18.7 4.7 18.65 4.4 18.65 4.35 18.35 3.1 11.3 3.1 8.3 0.15 0.4 0.15 0.05 0.15 -1.25 -4.7 0.05 0.15 -0.5 0.15 -1.35 0.15 -2.7 0.15 -3.75 0.15 -5.4 0.2 -6.2 0.2 -6.2 -1.5 -12.75 -1.5 -12.25 -2.0 -11.8 -3.3 -8.15 -3.45 -5.0 -3.75 -1.25 -4.7 M20.1 -0.2 L18.2 -0.2 20.1 -0.2 M16.1 -0.2 L14.15 -0.2 16.1 -0.2 M12.3 -0.2 L10.4 -0.2 12.3 -0.2 M-11.05 0.4 L-12.55 2.6 -16.5 2.65 -14.4 0.85 -13.9 0.4 -11.05 0.4" fill="#bababa" fill-rule="evenodd" stroke="none"/>
    <path d="M24.25 -1.8 L29.05 -1.8 29.05 -0.05 24.25 -0.05 24.25 -1.8" fill="#505051" fill-rule="evenodd" stroke="none"/>
    <path d="M18.75 5.05 L18.75 5.15 18.8 5.35 19.0 6.3 8.5 6.3 8.45 5.7 8.3 5.15 8.25 4.95 8.25 4.85 8.25 4.75 8.2 4.75 8.2 4.65 7.9 3.1 11.3 3.1 18.35 3.1 18.65 4.35 18.65 4.4 18.7 4.7 18.7 4.75 18.75 4.9 18.75 4.95 18.75 5.05 M-5.1 10.9 L-4.7 11.9 -9.2 13.7 -10.1 10.9 -5.1 10.9 M15.1 4.6 L15.35 5.95 15.1 4.6 M11.7 4.6 L11.95 5.95 11.7 4.6" fill="#46494e" fill-rule="evenodd" stroke="none"/>
    <path d="M0.05 0.15 L0.4 0.15 8.3 0.15 11.3 3.1 7.9 3.1 8.2 4.65 8.2 4.75 8.25 4.75 8.25 4.85 8.25 4.95 8.3 5.15 6.05 5.15 6.05 4.65 6.05 2.1 3.9 2.1 3.0 2.1 -1.35 2.1 -5.4 2.1 -5.4 0.2 -3.75 0.15 -2.7 0.15 -1.35 0.15 -0.5 0.15 0.05 0.15" fill="#4a4d54" fill-rule="evenodd" stroke="none"/>
    <path d="M2.05 4.65 Q1.45 6.4 1.1 8.4 L0.65 11.3 -2.15 9.65 -3.7 9.65 -3.7 7.6 -4.3 6.0 -3.85 6.1 -3.1 5.85 Q-1.9 5.05 -1.35 2.1 L3.0 2.1 2.55 3.2 2.05 4.65 M-12.35 7.35 L-12.35 7.45 -17.0 4.75 -17.2 4.85 -17.4 5.0 -17.55 5.05 -17.55 5.1 -17.65 5.15 -17.8 5.2 -19.05 6.8 -19.9 8.3 -21.75 7.45 Q-20.6 4.5 -20.35 0.95 L-20.4 -2.0 -12.25 -2.0 -12.75 -1.5 -13.65 0.0 -13.8 0.25 -13.85 0.3 -13.95 0.4 -13.9 0.4 -14.4 0.85 -16.5 2.65 -12.55 2.6 -13.55 4.0 -12.35 7.35 M-17.55 5.05 L-17.65 5.15 -17.55 5.05 M-17.0 4.75 L-16.5 2.65 -17.0 4.75" fill="#49484e" fill-rule="evenodd" stroke="none"/>
    <path d="M-3.7 9.65 L-3.7 10.9 -5.1 10.9 -10.1 10.9 -11.1 10.9 -12.35 7.35 -13.55 4.0 -12.55 2.6 -11.05 0.4 -10.85 0.2 -6.2 0.2 -5.4 0.2 -5.4 2.1 -5.4 3.35 -4.3 6.0 -3.7 7.6 -3.7 9.65 M-8.2 9.2 L-8.75 7.85 -9.6 9.0 -8.2 9.2 M-10.65 3.1 L-11.5 4.3 -10.05 4.45 -10.65 3.1 M-10.9 5.95 L-10.4 7.25 -9.45 6.15 -10.9 5.95" fill="#6c6b71" fill-rule="evenodd" stroke="none"/>
    <path d="M-12.75 -1.5 L-6.2 -1.5 -6.2 0.2 -10.85 0.2 -11.05 0.4 -13.9 0.4 -13.95 0.4 -13.85 0.3 -13.8 0.25 -13.65 0.0 -12.75 -1.5" fill="#52785a" fill-rule="evenodd" stroke="none"/>
    <path d="M-8.2 9.2 L-9.6 9.0 -8.75 7.85 -8.2 9.2 M-10.65 3.1 L-10.05 4.45 -11.5 4.3 -10.65 3.1 M-10.9 5.95 L-9.45 6.15 -10.4 7.25 -10.9 5.95" fill="#373737" fill-rule="evenodd" stroke="none"/>
    <path d="M7.85 -2.1 L4.7 -2.1 4.4 -3.1 3.2 -3.1 2.95 -4.7 2.65 -6.6 0.0 -6.6 -1.25 -4.7 -5.0 -3.75 -8.15 -3.45 -11.8 -3.3 -12.25 -2.0 -12.75 -1.5 M0.4 0.15 L8.3 0.15 11.3 3.1 18.35 3.1 18.65 4.35 18.65 4.4 18.7 4.7 18.7 4.75 M7.85 -2.1 L12.0 -2.1 13.5 -4.7 24.25 -4.7 24.25 -1.8 24.25 -0.05 24.25 1.25 24.2 1.25 24.1 1.25 Q22.1 1.4 21.3 3.15 L20.95 4.45 20.9 5.05 18.75 5.05 18.75 4.95 M24.25 -0.05 L29.05 -0.05 29.05 -1.8 24.25 -1.8 M8.3 5.15 L6.05 5.15 6.05 4.65 6.05 2.1 3.9 2.1 3.0 2.1 -1.35 2.1 -5.4 2.1 -5.4 3.35 -4.3 6.0 -3.7 7.6 -3.7 9.65 -3.7 10.9 -5.1 10.9 -10.1 10.9 -11.1 10.9 -12.35 7.35 -13.55 4.0 -12.55 2.6 -11.05 0.4 -10.85 0.2 -6.2 0.2 -5.4 0.2 -3.75 0.15 -2.7 0.15 -1.35 0.15 -0.5 0.15 0.05 0.15 M-12.35 7.45 L-17.0 4.75 -16.5 2.65 -12.55 2.6 M11.3 3.1 L7.9 3.1 8.2 4.65 8.2 4.75 M8.25 4.75 L8.25 4.85 M8.25 4.95 L8.3 5.15 M-5.4 0.2 L-5.4 2.1 M-8.2 9.2 L-9.6 9.0 -8.75 7.85 -8.2 9.2 M-13.9 0.4 L-14.4 0.85 -16.5 2.65 M-10.65 3.1 L-10.05 4.45 -11.5 4.3 -10.65 3.1 M-10.9 5.95 L-9.45 6.15 -10.4 7.25 -10.9 5.95" fill="none" stroke="#373737" stroke-linecap="round" stroke-linejoin="round" stroke-width="1.0"/>
    <path d="M8.3 0.15 Q7.65 -0.5 7.65 -1.25 L7.85 -2.1" fill="none" stroke="#666666" stroke-linecap="round" stroke-linejoin="miter-clip" stroke-miterlimit="4.0" stroke-width="1.0"/>
    <path d="M13.5 -4.7 L2.95 -4.7" fill="none" stroke="#373737" stroke-linecap="round" stroke-linejoin="miter-clip" stroke-miterlimit="4.0" stroke-width="1.0"/>
    <path d="M10.4 -0.2 L12.3 -0.2 M14.15 -0.2 L16.1 -0.2 M18.2 -0.2 L20.1 -0.2" fill="none" stroke="#8b8b8b" stroke-linecap="round" stroke-linejoin="miter-clip" stroke-miterlimit="4.0" stroke-width="1.0"/>
    <path d="M18.75 5.05 L18.75 5.15 18.8 5.35 19.0 6.3 8.5 6.3 8.45 5.7 8.3 5.15 M-5.1 10.9 L-4.7 11.9 -9.2 13.7 -10.1 10.9 M-17.2 4.85 L-17.4 5.0 -17.55 5.05 -17.65 5.15 M-17.8 5.2 L-19.05 6.8 -19.9 8.3 -21.75 7.45 Q-20.6 4.5 -20.35 0.95 L-20.4 -2.0 -12.25 -2.0 M-12.75 -1.5 L-6.2 -1.5 -6.2 0.2 M-11.05 0.4 L-13.9 0.4 -13.95 0.4 -13.85 0.3 -13.8 0.25 -13.65 0.0 -12.75 -1.5" fill="none" stroke="#202324" stroke-linecap="round" stroke-linejoin="round" stroke-width="1.0"/>
    <path d="M-17.0 4.75 L-17.2 4.85 M-17.4 5.0 L-17.55 5.1 -17.65 5.15 -17.8 5.2 M11.95 5.95 L11.7 4.6 M15.35 5.95 L15.1 4.6" fill="none" stroke="#202324" stroke-linecap="round" stroke-linejoin="miter-clip" stroke-miterlimit="4.0" stroke-width="1.0"/>
    <path d="M2.05 4.65 Q1.45 6.4 1.1 8.4 L0.65 11.3 -2.15 9.65 -3.7 9.65 M2.05 4.65 L2.55 3.2 3.0 2.1" fill="none" stroke="#232323" stroke-linecap="round" stroke-linejoin="round" stroke-width="1.0"/>
    <path d="M6.05 4.65 L2.05 4.65 M-1.35 2.1 Q-1.9 5.05 -3.1 5.85 L-3.85 6.1 -4.3 6.0" fill="none" stroke="#232323" stroke-linecap="round" stroke-linejoin="miter-clip" stroke-miterlimit="4.0" stroke-width="1.0"/>
    <path d="M-1.25 -4.7 L0.05 0.15" fill="none" stroke="#666666" stroke-linecap="round" stroke-linejoin="round" stroke-width="1.0"/>
    <path d="M3.9 2.1 L3.8 3.25" fill="none" stroke="#1e1e1e" stroke-linecap="round" stroke-linejoin="round" stroke-width="1.0"/>
    <path d="M22.35 2.8 L81.35 2.8" fill="none" stroke="url(#gradient0)" stroke-linecap="round" stroke-linejoin="round" stroke-width="1.0"/>
  </g>
  <defs>
    <linearGradient gradientTransform="matrix(0.0556, 0.0, 0.0, 0.0095, 36.85, -4.5)" gradientUnits="userSpaceOnUse" id="gradient0" spreadMethod="pad" x1="-819.2" x2="819.2">
      <stop offset="0.0" stop-color="#ff0000" stop-opacity="0.5019608"/>
      <stop offset="1.0" stop-color="#ff0000" stop-opacity="0.101960786"/>
    </linearGradient>
  </defs>
</svg>
