<?xml version="1.0" encoding="UTF-8" standalone="no"?>
<svg xmlns:ffdec="https://www.free-decompiler.com/flash" xmlns:xlink="http://www.w3.org/1999/xlink" ffdec:objectType="shape" height="21.3px" width="16.6px" xmlns="http://www.w3.org/2000/svg">
  <g transform="matrix(1.0, 0.0, 0.0, 1.0, 3.1, 2.5)">
    <path d="M2.2 -0.9 Q5.0 -2.6 8.25 -1.7 10.05 -0.7 10.35 1.85 L10.1 14.95 Q9.95 16.7 8.55 17.95 6.4 18.65 4.5 17.95 3.35 17.3 2.85 15.0 L0.85 2.3 Q0.85 0.4 2.2 -0.9" fill="#231d1d" fill-rule="evenodd" stroke="none"/>
    <path d="M2.2 -0.9 Q0.85 0.4 0.85 2.3 L2.85 15.0 Q3.35 17.3 4.5 17.95 6.4 18.65 8.55 17.95 9.95 16.7 10.1 14.95 L10.35 1.85 Q10.05 -0.7 8.25 -1.7 5.0 -2.6 2.2 -0.9 Z" fill="none" stroke="#151111" stroke-linecap="round" stroke-linejoin="round" stroke-width="1.0"/>
    <path d="M10.65 1.05 L13.0 2.65 13.0 10.85 12.3 15.6 10.0 15.9 9.95 15.9 9.0 15.7 8.45 15.4 8.35 15.35 Q7.2 14.6 5.65 11.25 L4.9 4.15 4.9 2.5 Q7.0 1.55 9.2 1.05 L10.65 1.05 M3.75 12.3 L3.75 13.75 3.75 14.0 3.65 14.0 3.6 14.0 Q3.25 14.1 3.15 14.25 L3.1 14.25 2.85 14.5 2.6 14.95 2.55 15.2 2.5 15.2 2.45 15.3 2.4 15.35 2.2 15.65 1.65 15.55 1.4 15.6 1.3 15.35 Q0.6 13.55 0.2 11.75 L0.15 11.65 -1.7 9.65 -2.05 6.6 -2.3 4.9 -2.6 2.35 1.15 1.3 2.2 2.8 2.95 7.4 3.0 7.75 3.05 8.05 3.75 12.3 M3.0 7.75 L1.5 8.65 1.5 10.8 0.2 11.75 1.5 10.8 1.5 8.65 3.0 7.75 M6.7 2.4 L7.4 7.85 9.0 9.35 9.0 15.7 9.0 9.35 7.4 7.85 6.7 2.4 M8.45 15.4 L9.0 15.7 9.95 15.9 9.0 15.7 8.45 15.4 M3.65 14.0 L3.75 13.75 3.65 14.0 M1.3 15.35 L2.2 15.35 2.45 15.3 2.2 15.35 1.3 15.35 M11.7 3.7 L9.85 2.5 11.7 3.7 M-2.3 4.9 L0.45 3.95 -2.3 4.9 M-2.05 6.6 L0.4 5.55 -2.05 6.6" fill="#3c0000" fill-rule="evenodd" stroke="none"/>
    <path d="M5.65 11.25 L3.75 12.3 3.05 8.05 3.0 7.75 2.95 7.4 2.55 4.55 4.9 4.15 5.65 11.25" fill="#272727" fill-rule="evenodd" stroke="none"/>
    <path d="M0.2 11.75 L1.5 10.8 1.5 8.65 3.0 7.75 M9.0 15.7 L9.0 9.35 7.4 7.85 6.7 2.4 M0.4 5.55 L-2.05 6.6 M0.45 3.95 L-2.3 4.9" fill="none" stroke="#2c0404" stroke-linecap="round" stroke-linejoin="round" stroke-width="1.0"/>
    <path d="M5.65 11.25 L3.75 12.3 M2.55 4.55 L4.9 4.15" fill="none" stroke="#0e0e0e" stroke-linecap="round" stroke-linejoin="round" stroke-width="1.0"/>
    <path d="M9.85 2.5 L11.7 3.7" fill="none" stroke="#ffd858" stroke-linecap="round" stroke-linejoin="round" stroke-width="1.0"/>
    <path d="M10.65 1.05 L13.0 2.65 13.0 10.85 12.3 15.6 10.0 15.9 9.95 15.9 9.0 15.7 8.45 15.4 8.35 15.35 Q7.2 14.6 5.65 11.25 L4.9 4.15 4.9 2.5 Q7.0 1.55 9.2 1.05 L10.65 1.05 10.1 0.7 M3.75 12.3 L3.75 13.75 3.65 14.0 Q3.05 15.05 2.45 15.3 L2.2 15.35 1.3 15.35 Q0.6 13.55 0.2 11.75 L0.15 11.65 -1.7 9.65 -2.05 6.6 -2.3 4.9 -2.6 2.35 1.15 1.3 2.2 2.8 2.95 7.4 M3.05 8.05 L3.75 12.3" fill="none" stroke="#1e0101" stroke-linecap="round" stroke-linejoin="round" stroke-width="1.0"/>
  </g>
</svg>
