<?xml version="1.0" encoding="UTF-8" standalone="no"?>
<svg xmlns:ffdec="https://www.free-decompiler.com/flash" xmlns:xlink="http://www.w3.org/1999/xlink" ffdec:objectType="shape" height="24.15px" width="11.6px" xmlns="http://www.w3.org/2000/svg">
  <g transform="matrix(1.0, 0.0, 0.0, 1.0, 6.3, 4.5)">
    <path d="M2.95 -2.1 L3.3 -1.1 3.25 0.3 2.2 6.15 Q1.25 10.45 1.05 13.3 0.95 14.2 1.4 16.15 L2.0 19.05 -2.0 19.1 -5.7 18.8 Q-5.9 17.8 -5.75 10.9 -5.6 4.05 -4.75 0.9 -3.95 -2.3 -2.25 -1.95 L0.05 -2.2 1.85 -2.8 Q2.55 -2.7 2.95 -2.1 M-0.9 12.65 L-1.6 14.4 Q-2.1 16.3 -1.25 17.45 -2.1 16.3 -1.6 14.4 L-0.9 12.65 M-2.3 5.8 L-2.85 6.65 Q-3.4 7.7 -3.55 8.75 -3.4 7.7 -2.85 6.65 L-2.3 5.8 M-0.85 3.65 L0.15 2.05 Q1.1 0.2 1.15 -1.05 1.1 0.2 0.15 2.05 L-0.85 3.65" fill="#636363" fill-rule="evenodd" stroke="none"/>
    <path d="M2.95 -2.1 L3.3 -1.1 3.25 0.3 2.2 6.15 Q1.25 10.45 1.05 13.3 0.95 14.2 1.4 16.15 L2.0 19.05 -2.0 19.1 -5.7 18.8 Q-5.9 17.8 -5.75 10.9 -5.6 4.05 -4.75 0.9 -3.95 -2.3 -2.25 -1.95 L0.05 -2.2 1.85 -2.8 Q2.55 -2.7 2.95 -2.1" fill="none" stroke="#333333" stroke-linecap="round" stroke-linejoin="round" stroke-width="1.05"/>
    <path d="M1.15 -1.05 Q1.1 0.2 0.15 2.05 L-0.85 3.65 M-3.55 8.75 Q-3.4 7.7 -2.85 6.65 L-2.3 5.8 M-1.25 17.45 Q-2.1 16.3 -1.6 14.4 L-0.9 12.65" fill="none" stroke="#4d4d4d" stroke-linecap="round" stroke-linejoin="round" stroke-width="1.05"/>
    <path d="M-4.2 -1.65 L-0.1 -2.8 3.6 -3.15 Q3.3 -1.7 3.6 0.1 L-0.4 0.0 -4.4 -0.05 -4.25 -0.55 Q-3.95 -1.25 -4.2 -1.65" fill="#4d514e" fill-rule="evenodd" stroke="none"/>
    <path d="M-4.2 -1.65 Q-3.95 -1.25 -4.25 -0.55 L-4.4 -0.05 -0.4 0.0 3.6 0.1 Q3.3 -1.7 3.6 -3.15 L-0.1 -2.8 -4.2 -1.65 Z" fill="none" stroke="#2a2c2b" stroke-linecap="round" stroke-linejoin="round" stroke-width="1.05"/>
    <path d="M-0.6 -1.2 L2.0 -1.5" fill="none" stroke="#2a2c2b" stroke-linecap="round" stroke-linejoin="round" stroke-width="1.05"/>
    <path d="M3.8 0.85 Q1.5 -0.3 1.75 -1.8 2.0 -3.2 4.2 -4.0 4.85 -3.4 4.8 -1.8 4.7 -0.1 3.8 0.85" fill="#4d514e" fill-rule="evenodd" stroke="none"/>
    <path d="M3.8 0.85 Q4.7 -0.1 4.8 -1.8 4.85 -3.4 4.2 -4.0 2.0 -3.2 1.75 -1.8 1.5 -0.3 3.8 0.85 Z" fill="none" stroke="#252927" stroke-linecap="round" stroke-linejoin="round" stroke-width="1.05"/>
  </g>
</svg>
