<?xml version="1.0" encoding="UTF-8" standalone="no"?>
<svg xmlns:ffdec="https://www.free-decompiler.com/flash" xmlns:xlink="http://www.w3.org/1999/xlink" ffdec:objectType="shape" height="23.65px" width="15.05px" xmlns="http://www.w3.org/2000/svg">
  <g transform="matrix(1.0, 0.0, 0.0, 1.0, 1.35, 2.15)">
    <path d="M11.25 14.85 L11.0 15.6 Q10.8 16.2 10.7 17.95 10.65 19.45 10.0 20.25 8.7 20.95 6.05 21.0 L3.6 20.4 2.2 19.4 2.0 17.25 1.9 16.15 1.3 13.9 Q0.5 10.35 0.65 9.7 1.2 7.9 0.4 6.5 L0.25 6.25 Q-0.3 5.35 0.4 4.05 0.5 2.25 1.4 1.6 L2.2 1.1 3.6 0.45 3.7 0.4 3.8 0.35 4.0 0.3 Q5.65 -0.3 7.95 0.3 L8.05 0.3 Q10.4 0.9 10.65 1.6 L10.65 1.95 Q10.65 2.5 11.0 3.25 L11.75 4.95 Q12.25 6.05 12.2 7.25 L11.65 9.45 Q12.15 10.65 12.0 11.75 L11.85 12.5 11.75 12.7 11.6 13.05 11.6 13.1 11.55 13.15 11.35 13.65 11.2 14.05 Q11.4 14.2 11.25 14.85 L11.15 14.3 11.2 14.05 M3.4 7.55 L7.95 7.55 8.2 6.5 8.2 5.35 5.7 5.0 2.6 5.35 2.6 6.5 3.55 11.0 4.1 11.8 5.7 12.1 7.4 11.8 7.95 7.55" fill="none" stroke="#252525" stroke-linecap="round" stroke-linejoin="round" stroke-width="1.0"/>
    <path d="M3.45 15.25 L3.8 15.4 7.0 16.1 Q8.1 16.5 8.75 17.1 L5.0 18.2 4.95 18.2 Q5.6 19.6 7.25 19.25" ffdec:has-small-stroke="true" ffdec:original-stroke-width="0.8" fill="none" stroke="#252525" stroke-linecap="round" stroke-linejoin="round" stroke-width="1.0"/>
    <path d="M3.0 1.65 L3.9 -0.9 Q5.55 -2.5 7.25 -0.7 L6.45 1.45 Q9.7 1.55 13.1 2.6 13.6 7.5 11.75 11.05 6.15 14.75 0.85 11.05 -1.25 7.85 -0.75 2.5 1.1 1.9 3.0 1.65 L6.45 1.45 3.0 1.65" fill="#434343" fill-rule="evenodd" stroke="none"/>
    <path d="M3.0 1.65 L3.9 -0.9 Q5.55 -2.5 7.25 -0.7 L6.45 1.45 Q9.7 1.55 13.1 2.6 13.6 7.5 11.75 11.05 6.15 14.75 0.85 11.05 -1.25 7.85 -0.75 2.5 1.1 1.9 3.0 1.65 L6.45 1.45" fill="none" stroke="#202020" stroke-linecap="round" stroke-linejoin="round" stroke-width="1.0"/>
    <path d="M10.8 10.35 L1.4 10.35 1.5 8.75 10.9 8.9 10.8 10.35 M1.15 6.3 L1.15 4.45 11.1 4.45 11.1 6.3 1.15 6.3" fill="#272727" fill-rule="evenodd" stroke="none"/>
    <path d="M1.15 6.3 L11.1 6.3 11.1 4.45 1.15 4.45 1.15 6.3 M10.8 10.35 L10.9 8.9 1.5 8.75 1.4 10.35 10.8 10.35 Z" fill="none" stroke="#202020" stroke-linecap="round" stroke-linejoin="round" stroke-width="1.0"/>
    <path d="M12.55 10.35 L10.1 10.35 10.1 9.35 12.55 9.35 12.55 10.35 M1.9 10.15 L-0.55 10.15 -0.55 9.15 1.9 9.15 1.9 10.15 M5.35 9.75 L2.9 9.75 2.9 8.75 5.35 8.75 5.35 9.75 M9.0 9.0 L9.0 9.95 9.05 9.1 9.05 10.1 9.0 10.1 9.0 10.0 6.55 10.0 6.55 9.95 6.55 9.0 9.0 9.0 M6.55 9.95 L9.0 9.95 6.55 9.95" fill="#959595" fill-rule="evenodd" stroke="none"/>
    <path d="M12.55 6.25 L10.15 6.25 10.15 5.05 Q11.35 3.55 12.55 5.05 L12.55 6.25 M5.35 4.45 L5.35 5.65 2.95 5.65 2.95 4.45 Q4.15 2.95 5.35 4.45 M9.0 4.65 L9.0 5.85 6.6 5.85 6.6 4.65 Q7.8 3.15 9.0 4.65 M1.9 6.05 L-0.5 6.05 -0.5 4.85 Q0.7 3.35 1.9 4.85 L1.9 6.05" fill="#989898" fill-rule="evenodd" stroke="none"/>
    <path d="M12.55 8.8 L10.1 8.8 10.1 6.35 12.55 6.35 12.55 8.8 M9.0 8.4 L6.55 8.4 6.55 5.95 9.0 5.95 9.0 8.4 M2.9 8.2 L2.9 5.75 5.35 5.75 5.35 8.2 2.9 8.2 M1.9 8.6 L-0.55 8.6 -0.55 6.15 1.9 6.15 1.9 8.6" fill="#434343" fill-rule="evenodd" stroke="none"/>
    <path d="M12.55 6.25 L10.15 6.25 10.15 5.05 Q11.35 3.55 12.55 5.05 L12.55 6.25 M12.55 10.35 L10.1 10.35 10.1 9.35 12.55 9.35 12.55 10.35 M5.35 4.45 L5.35 5.65 2.95 5.65 2.95 4.45 Q4.15 2.95 5.35 4.45 M9.0 4.65 L9.0 5.85 6.6 5.85 6.6 4.65 Q7.8 3.15 9.0 4.65 M1.9 6.05 L-0.5 6.05 -0.5 4.85 Q0.7 3.35 1.9 4.85 L1.9 6.05 M1.9 10.15 L-0.55 10.15 -0.55 9.15 1.9 9.15 1.9 10.15 M5.35 9.75 L2.9 9.75 2.9 8.75 5.35 8.75 5.35 9.75 M6.55 9.0 L6.55 8.95 9.0 8.95 9.0 9.0 9.0 9.95 6.55 9.95 6.55 9.0" ffdec:has-small-stroke="true" ffdec:original-stroke-width="0.8" fill="none" stroke="#333333" stroke-linecap="round" stroke-linejoin="round" stroke-width="1.0"/>
    <path d="M12.55 8.8 L10.1 8.8 10.1 6.35 12.55 6.35 12.55 8.8 M9.0 8.4 L6.55 8.4 6.55 5.95 9.0 5.95 9.0 8.4 M2.9 8.2 L2.9 5.75 5.35 5.75 5.35 8.2 2.9 8.2 M1.9 8.6 L-0.55 8.6 -0.55 6.15 1.9 6.15 1.9 8.6 Z" ffdec:has-small-stroke="true" ffdec:original-stroke-width="0.8" fill="none" stroke="#202020" stroke-linecap="round" stroke-linejoin="round" stroke-width="1.0"/>
  </g>
</svg>
