<?xml version="1.0" encoding="UTF-8" standalone="no"?>
<svg xmlns:ffdec="https://www.free-decompiler.com/flash" xmlns:xlink="http://www.w3.org/1999/xlink" ffdec:objectType="shape" height="22.85px" width="15.35px" xmlns="http://www.w3.org/2000/svg">
  <g transform="matrix(1.0, 0.0, 0.0, 1.0, 1.05, 1.35)">
    <path d="M4.5 20.6 L3.6 20.4 2.2 19.4 2.0 17.25 1.9 16.15 1.3 13.9 Q0.5 10.35 0.65 9.7 1.2 7.9 0.4 6.5 L0.25 6.25 Q-0.3 5.35 0.4 4.05 0.5 2.25 1.4 1.6 L2.2 1.1 3.6 0.45 3.7 0.4 3.8 0.35 4.0 0.3 Q5.65 -0.3 7.95 0.3 L8.05 0.3 Q10.4 0.9 10.65 1.6 L10.65 1.95 Q10.65 2.5 11.0 3.25 L11.2 3.65 9.8 7.75 6.0 10.4 4.5 20.6" fill="#202020" fill-rule="evenodd" stroke="none"/>
    <path d="M11.2 3.65 L11.75 4.95 Q12.25 6.05 12.2 7.25 L11.65 9.45 Q12.15 10.65 12.0 11.75 L11.85 12.5 11.75 12.7 11.6 13.05 11.6 13.1 11.55 13.15 11.35 13.65 11.2 14.05 11.15 14.3 11.25 14.85 11.0 15.6 Q10.8 16.2 10.7 17.95 10.65 19.45 10.0 20.25 8.7 20.95 6.05 21.0 L4.5 20.6 6.0 10.4 9.8 7.75 11.2 3.65" fill="#2c0101" fill-rule="evenodd" stroke="none"/>
    <path d="M11.2 3.65 L9.8 7.75 6.0 10.4" fill="none" stroke="#2c0101" stroke-linecap="round" stroke-linejoin="round" stroke-width="1.0"/>
    <path d="M11.25 14.85 L11.0 15.6 Q10.8 16.2 10.7 17.95 10.65 19.45 10.0 20.25 8.7 20.95 6.05 21.0 L3.6 20.4 2.2 19.4 2.0 17.25 1.9 16.15 1.3 13.9 Q0.5 10.35 0.65 9.7 1.2 7.9 0.4 6.5 L0.25 6.25 Q-0.3 5.35 0.4 4.05 0.5 2.25 1.4 1.6 L2.2 1.1 3.6 0.45 3.7 0.4 3.8 0.35 4.0 0.3 Q5.65 -0.3 7.95 0.3 L8.05 0.3 Q10.4 0.9 10.65 1.6 L10.65 1.95 Q10.65 2.5 11.0 3.25 L11.75 4.95 Q12.25 6.05 12.2 7.25 L11.65 9.45 Q12.15 10.65 12.0 11.75 L11.85 12.5 11.75 12.7 11.6 13.05 11.6 13.1 11.55 13.15 11.35 13.65 11.2 14.05 Q11.4 14.2 11.25 14.85 L11.15 14.3 11.2 14.05 M3.4 7.55 L7.95 7.55 8.2 6.5 8.2 5.35 5.7 5.0 2.6 5.35 2.6 6.5 3.55 11.0 4.1 11.8 5.7 12.1 7.4 11.8 7.95 7.55" fill="none" stroke="#020202" stroke-linecap="round" stroke-linejoin="round" stroke-width="1.0"/>
    <path d="M3.45 15.25 L3.8 15.4 7.0 16.1 Q8.1 16.5 8.75 17.1 L5.0 18.2 4.95 18.2 Q5.6 19.6 7.25 19.25" ffdec:has-small-stroke="true" ffdec:original-stroke-width="0.8" fill="none" stroke="#020202" stroke-linecap="round" stroke-linejoin="round" stroke-width="1.0"/>
    <path d="M11.8 11.35 L13.1 11.35 Q13.5 12.5 12.55 13.6 L11.8 13.6 11.8 11.35 M10.1 13.6 L8.65 13.6 8.65 14.05 2.05 14.05 2.05 13.6 0.95 13.6 Q-0.15 12.5 0.45 11.35 L2.05 11.35 2.05 8.95 0.4 8.95 Q-0.65 7.55 -0.1 6.35 L2.05 6.35 2.05 3.85 3.7 3.85 3.7 0.05 Q4.85 -1.3 5.95 -0.6 L5.95 3.85 8.65 3.85 8.65 6.35 10.2 6.35 10.2 8.95 8.65 8.95 8.65 11.35 10.1 11.35 10.1 13.6 M11.75 6.35 L13.55 6.35 Q14.2 7.65 13.05 8.95 L11.75 8.95 11.75 6.35 M2.05 11.35 L2.05 13.6 2.05 11.35 M8.65 13.6 L8.65 11.35 8.65 13.6 M5.95 3.85 L3.7 3.85 5.95 3.85 M8.65 8.95 L8.65 6.35 8.65 8.95 M2.05 6.35 L2.05 8.95 2.05 6.35" fill="#232323" fill-rule="evenodd" stroke="none"/>
    <path d="M11.8 13.6 L11.8 13.65 10.1 13.65 10.1 13.6 10.1 11.35 11.8 11.35 11.8 13.6 M10.2 6.35 L11.75 6.35 11.75 8.95 10.2 8.95 10.2 6.35" fill="#2e0909" fill-rule="evenodd" stroke="none"/>
    <path d="M11.8 11.35 L13.1 11.35 Q13.5 12.5 12.55 13.6 L11.8 13.6 M10.1 13.6 L8.65 13.6 8.65 14.05 2.05 14.05 2.05 13.6 0.95 13.6 Q-0.15 12.5 0.45 11.35 L2.05 11.35 2.05 8.95 0.4 8.95 Q-0.65 7.55 -0.1 6.35 L2.05 6.35 2.05 3.85 3.7 3.85 3.7 0.05 Q4.85 -1.3 5.95 -0.6 L5.95 3.85 8.65 3.85 8.65 6.35 10.2 6.35 M11.75 6.35 L13.55 6.35 Q14.2 7.65 13.05 8.95 L11.75 8.95 M10.2 8.95 L8.65 8.95 8.65 11.35 10.1 11.35 M2.05 8.95 L2.05 6.35 M8.65 6.35 L8.65 8.95 M3.7 3.85 L5.95 3.85 M8.65 11.35 L8.65 13.6 M2.05 13.6 L2.05 11.35" fill="none" stroke="#121212" stroke-linecap="round" stroke-linejoin="round" stroke-width="1.0"/>
    <path d="M11.8 13.6 L11.8 13.65 10.1 13.65 10.1 13.6 10.1 11.35 11.8 11.35 11.8 13.6 M10.2 6.35 L11.75 6.35 11.75 8.95 10.2 8.95 10.2 6.35 Z" fill="none" stroke="#170000" stroke-linecap="round" stroke-linejoin="round" stroke-width="1.0"/>
    <path d="M5.85 5.0 L6.45 5.0 6.45 8.65 6.2 9.1 6.2 9.9 Q4.85 11.7 3.25 9.9 L3.25 9.05 3.0 8.65 3.0 5.0 3.65 5.0 3.65 8.45 Q4.8 10.05 5.85 8.55 L5.85 5.0 M6.9 9.9 L6.9 9.05 6.65 8.65 6.65 5.0 7.3 5.0 7.3 8.45 Q8.45 10.05 9.5 8.55 L9.5 5.0 10.1 5.0 10.1 8.65 9.85 9.1 9.85 9.9 Q8.55 11.7 6.9 9.9 M2.2 5.0 L2.8 5.0 2.8 8.65 2.5 9.1 2.5 9.9 Q1.2 11.7 -0.4 9.9 L-0.4 9.05 -0.65 8.65 -0.65 5.0 0.0 5.0 0.0 8.45 Q1.15 10.05 2.2 8.55 L2.2 5.0 M10.1 8.65 L9.55 9.45 8.6 10.15 8.15 10.1 7.3 9.45 6.65 8.65 7.3 9.45 8.15 10.1 8.6 10.15 9.55 9.45 10.1 8.65 M6.45 8.65 L5.85 9.45 4.95 10.15 4.5 10.1 3.65 9.45 3.0 8.65 3.65 9.45 4.5 10.1 4.95 10.15 5.85 9.45 6.45 8.65 M2.8 8.65 L2.2 9.45 Q1.7 10.0 1.3 10.15 L0.85 10.1 0.0 9.45 -0.65 8.65 0.0 9.45 0.85 10.1 1.3 10.15 Q1.7 10.0 2.2 9.45 L2.8 8.65" fill="#3f1313" fill-rule="evenodd" stroke="none"/>
    <path d="M6.2 9.9 L6.2 12.35 3.25 12.35 3.25 9.9 Q4.85 11.7 6.2 9.9 M3.65 5.0 L5.85 5.0 5.85 8.55 Q4.8 10.05 3.65 8.45 L3.65 5.0 M7.3 5.0 L9.5 5.0 9.5 8.55 Q8.45 10.05 7.3 8.45 L7.3 5.0 M9.85 9.9 L9.85 12.35 6.9 12.35 6.9 9.9 Q8.55 11.7 9.85 9.9 M2.5 9.9 L2.5 12.35 -0.4 12.35 -0.4 9.9 Q1.2 11.7 2.5 9.9 M0.0 5.0 L2.2 5.0 2.2 8.55 Q1.15 10.05 0.0 8.45 L0.0 5.0" fill="#191919" fill-rule="evenodd" stroke="none"/>
    <path d="M5.85 5.0 L6.45 5.0 6.45 8.65 6.2 9.1 6.2 9.9 6.2 12.35 3.25 12.35 3.25 9.9 3.25 9.05 3.0 8.65 3.0 5.0 3.65 5.0 5.85 5.0 M6.9 9.9 L6.9 9.05 6.65 8.65 6.65 5.0 7.3 5.0 9.5 5.0 10.1 5.0 10.1 8.65 9.85 9.1 9.85 9.9 9.85 12.35 6.9 12.35 6.9 9.9 M2.2 5.0 L2.8 5.0 2.8 8.65 2.5 9.1 2.5 9.9 2.5 12.35 -0.4 12.35 -0.4 9.9 -0.4 9.05 -0.65 8.65 -0.65 5.0 0.0 5.0 2.2 5.0 M-0.65 8.65 L0.0 9.45 0.85 10.1 1.3 10.15 Q1.7 10.0 2.2 9.45 L2.8 8.65 M3.0 8.65 L3.65 9.45 4.5 10.1 4.95 10.15 5.85 9.45 6.45 8.65 M6.65 8.65 L7.3 9.45 8.15 10.1 8.6 10.15 9.55 9.45 10.1 8.65" ffdec:has-small-stroke="true" ffdec:original-stroke-width="0.8" fill="none" stroke="#101010" stroke-linecap="round" stroke-linejoin="round" stroke-width="1.0"/>
  </g>
</svg>
