<?xml version="1.0" encoding="UTF-8" standalone="no"?>
<svg xmlns:ffdec="https://www.free-decompiler.com/flash" xmlns:xlink="http://www.w3.org/1999/xlink" ffdec:objectType="shape" height="22.65px" width="15.8px" xmlns="http://www.w3.org/2000/svg">
  <g transform="matrix(1.0, 0.0, 0.0, 1.0, 2.15, 5.8)">
    <path d="M1.4 11.35 L-0.35 4.0 Q-1.3 0.95 -0.55 -1.8 0.35 -4.5 3.0 -4.65 5.6 -4.85 7.4 -3.6 9.2 -2.4 10.0 0.5 L10.75 4.0 Q10.55 4.15 10.8 5.1 L11.25 9.1 Q11.5 12.05 10.4 14.15 9.25 16.2 7.0 16.35 4.7 16.45 3.05 14.75 1.8 13.4 1.4 11.25 L1.4 11.35" fill="#2c2c2c" fill-rule="evenodd" stroke="none"/>
    <path d="M1.4 11.35 L-0.35 4.0 Q-1.3 0.95 -0.55 -1.8 0.35 -4.5 3.0 -4.65 5.6 -4.85 7.4 -3.6 9.2 -2.4 10.0 0.5 L10.75 4.0 Q10.55 4.15 10.8 5.1 L11.25 9.1 Q11.5 12.05 10.4 14.15 9.25 16.2 7.0 16.35 4.7 16.45 3.05 14.75 1.8 13.4 1.4 11.25 L1.4 11.35 Z" fill="none" stroke="#101010" stroke-linecap="round" stroke-linejoin="round" stroke-width="1.0"/>
    <path d="M12.35 7.85 L12.25 9.15 11.9 12.35 8.15 13.35 6.2 15.4 2.75 16.2 1.35 12.65 2.1 12.4 4.7 11.55 6.55 9.25 11.95 7.95 12.25 7.9 12.35 7.85 M12.25 9.15 L11.95 7.95 12.25 9.15" fill="#272727" fill-rule="evenodd" stroke="none"/>
    <path d="M-0.65 2.4 L4.5 0.8 6.3 -5.3 6.8 -5.3 8.9 -5.0 Q11.7 1.35 12.25 7.9 L11.95 7.95 6.55 9.25 4.7 11.55 2.1 12.4 Q-0.5 7.5 -0.65 2.4" fill="#1c1c1c" fill-rule="evenodd" stroke="none"/>
    <path d="M8.9 -5.0 L10.3 -4.85 Q12.6 1.0 13.15 6.9 L12.35 7.85 12.25 7.9 Q11.7 1.35 8.9 -5.0 M1.35 12.65 L0.9 12.75 Q-1.35 8.0 -1.65 2.7 L-0.65 2.4 Q-0.5 7.5 2.1 12.4 L1.35 12.65" fill="#511313" fill-rule="evenodd" stroke="none"/>
    <path d="M8.9 -5.0 L10.3 -4.85 Q12.6 1.0 13.15 6.9 L12.35 7.85 12.25 9.15 11.9 12.35 8.15 13.35 6.2 15.4 2.75 16.2 1.35 12.65 0.9 12.75 Q-1.35 8.0 -1.65 2.7 L-0.65 2.4 4.5 0.8 6.3 -5.3 6.8 -5.3 8.9 -5.0 M12.25 7.9 L12.35 7.85 M12.25 7.9 L11.95 7.95 12.25 9.15 M11.95 7.95 L6.55 9.25 4.7 11.55 2.1 12.4 1.35 12.65" fill="none" stroke="#020202" stroke-linecap="round" stroke-linejoin="round" stroke-width="1.0"/>
    <path d="M5.25 3.9 L4.5 1.55 8.65 0.1 9.35 2.4 8.25 3.1 6.4 3.75 5.25 3.9 M9.4 3.4 L10.3 6.15 6.55 7.4 5.7 4.7 Q7.9 5.5 9.4 3.4 M4.2 4.15 L3.15 4.95 1.25 5.6 0.0 5.7 -0.75 3.35 3.45 1.9 4.2 4.15 M0.45 6.45 Q2.8 7.2 4.2 5.15 L5.1 7.85 1.3 9.15 0.45 6.45" fill="#121212" fill-rule="evenodd" stroke="none"/>
    <path d="M9.35 2.4 L9.6 3.1 9.4 3.4 Q7.9 5.5 5.7 4.7 L5.45 4.55 5.25 3.9 6.4 3.75 8.25 3.1 9.35 2.4 M0.0 5.7 L1.25 5.6 3.15 4.95 4.2 4.15 4.4 4.9 4.2 5.15 Q2.8 7.2 0.45 6.45 L0.2 6.3 0.0 5.7" fill="#511313" fill-rule="evenodd" stroke="none"/>
    <path d="M5.25 3.9 L4.5 1.55 8.65 0.1 9.35 2.4 9.6 3.1 9.4 3.4 10.3 6.15 6.55 7.4 5.7 4.7 5.45 4.55 5.25 3.9 M9.4 3.4 Q7.9 5.5 5.7 4.7 M4.2 4.15 L3.45 1.9 -0.75 3.35 0.0 5.7 0.2 6.3 0.45 6.45 Q2.8 7.2 4.2 5.15 L4.4 4.9 4.2 4.15 M4.2 5.15 L5.1 7.85 1.3 9.15 0.45 6.45" fill="none" stroke="#040404" stroke-linecap="round" stroke-linejoin="round" stroke-width="1.0"/>
  </g>
</svg>
