<?xml version="1.0" encoding="UTF-8" standalone="no"?>
<svg xmlns:ffdec="https://www.free-decompiler.com/flash" xmlns:xlink="http://www.w3.org/1999/xlink" ffdec:objectType="shape" height="19.6px" width="17.8px" xmlns="http://www.w3.org/2000/svg">
  <g transform="matrix(1.0, 0.0, 0.0, 1.0, 10.7, 3.45)">
    <path d="M-7.6 2.95 L-7.3 0.8 -5.75 1.65 -1.75 0.5 -1.7 0.5 -0.5 -0.5 1.8 0.0 1.0 3.0 -1.35 5.85 -1.05 3.8 -2.0 3.3 -6.05 3.45 -7.6 2.95" fill="#a47a4d" fill-rule="evenodd" stroke="none"/>
    <path d="M1.8 0.0 L3.0 -2.3 Q3.85 -3.1 5.3 -2.9 6.55 -1.85 6.6 0.05 6.0 2.35 4.05 4.3 L4.0 4.3 1.2 6.65 -1.35 5.85 1.0 3.0 1.8 0.0 M-0.35 10.15 L1.5 10.95 1.75 12.1 2.0 13.3 2.3 14.7 0.6 15.65 -1.55 14.6 -4.45 15.55 -5.45 13.6 -8.05 12.55 -9.75 12.7 Q-10.65 11.8 -9.75 11.05 L-6.1 11.4 -5.4 10.65 -2.65 10.95 -1.8 10.35 -0.35 10.15 M0.1 12.3 L1.75 12.1 0.1 12.3 M0.95 13.45 L2.0 13.3 0.95 13.45 M-5.45 13.6 L-2.25 13.05 -5.45 13.6 M-2.65 10.95 L-2.25 13.05 -1.55 14.6 -2.25 13.05 -2.65 10.95" fill="#f0c468" fill-rule="evenodd" stroke="none"/>
    <path d="M1.2 6.65 Q-0.3 7.35 -0.4 8.95 L-0.45 9.0 -0.35 10.15 -1.8 10.35 -2.65 10.95 -5.4 10.65 -6.1 11.4 -9.75 11.05 -9.75 10.45 -9.75 10.35 -9.7 10.35 Q-8.45 3.9 -7.6 2.95 L-6.05 3.45 -2.0 3.3 -1.05 3.8 -1.35 5.85 Q-2.85 6.95 -2.95 9.45 L-2.65 10.95 -2.95 9.45 Q-2.85 6.95 -1.35 5.85 L1.2 6.65 M-7.3 0.8 L-7.25 -0.35 Q-7.25 -2.55 -2.65 -0.9 L-1.8 -2.25 Q2.5 -3.25 1.8 0.0 L-0.5 -0.5 -1.7 0.5 -1.75 0.5 -5.75 1.65 -7.3 0.8 M-9.7 10.35 L-9.75 10.45 -9.7 10.35 M-2.65 -0.9 L-1.75 0.5 -2.65 -0.9" fill="#1a1a1a" fill-rule="evenodd" stroke="none"/>
    <path d="M1.2 6.65 Q-0.3 7.35 -0.4 8.95 M-0.45 9.0 L-0.35 10.15 M-9.75 11.05 L-9.75 10.45 -9.75 10.35 M-9.7 10.35 Q-8.45 3.9 -7.6 2.95 M-7.3 0.8 L-7.25 -0.35 Q-7.25 -2.55 -2.65 -0.9 L-1.8 -2.25 M-9.75 10.45 L-9.7 10.35 M-2.65 10.95 L-2.95 9.45 Q-2.85 6.95 -1.35 5.85 M-1.75 0.5 L-2.65 -0.9" fill="none" stroke="#0d0d0d" stroke-linecap="round" stroke-linejoin="round" stroke-width="1.0"/>
    <path d="M-7.6 2.95 L-7.3 0.8 -5.75 1.65 -1.75 0.5 -1.7 0.5 -0.5 -0.5 1.8 0.0 M-1.35 5.85 L-1.05 3.8 -2.0 3.3 -6.05 3.45 -7.6 2.95" fill="none" stroke="#36271f" stroke-linecap="round" stroke-linejoin="round" stroke-width="1.0"/>
    <path d="M1.8 0.0 L3.0 -2.3 Q3.85 -3.1 5.3 -2.9 6.55 -1.85 6.6 0.05 6.0 2.35 4.05 4.3 L4.0 4.3 1.2 6.65 -1.35 5.85 1.0 3.0 1.8 0.0 M-0.35 10.15 L1.5 10.95 1.75 12.1 2.0 13.3 2.3 14.7 0.6 15.65 -1.55 14.6 -2.25 13.05 -2.65 10.95 -1.8 10.35 -0.35 10.15 M1.75 12.1 L0.1 12.3 M2.0 13.3 L0.95 13.45" fill="none" stroke="#5a4425" stroke-linecap="round" stroke-linejoin="round" stroke-width="1.0"/>
    <path d="M-1.55 14.6 L-4.45 15.55 -5.45 13.6 -8.05 12.55 -9.75 12.7 Q-10.65 11.8 -9.75 11.05 L-6.1 11.4 -5.4 10.65 -2.65 10.95 M-2.25 13.05 L-5.45 13.6" fill="none" stroke="#5a4425" stroke-linecap="round" stroke-linejoin="round" stroke-opacity="0.99215686" stroke-width="1.0"/>
    <path d="M3.95 -1.15 L4.6 -0.95 4.95 -0.3 4.75 0.3 4.15 0.65 3.5 0.45 3.2 -0.15 3.35 -0.8 3.95 -1.15" fill="#0099ff" fill-rule="evenodd" stroke="none"/>
    <path d="M3.95 -1.15 L4.6 -0.95 4.95 -0.3 4.75 0.3 4.15 0.65 3.5 0.45 3.2 -0.15 3.35 -0.8 3.95 -1.15 Z" fill="none" stroke="#5a4425" stroke-linecap="round" stroke-linejoin="round" stroke-width="1.0"/>
    <path d="M3.7 1.0 Q4.05 1.25 4.05 1.65 L3.85 2.25 3.25 2.6 2.6 2.4 2.3 1.8 Q2.25 1.45 2.45 1.15 L3.05 0.8 3.7 1.0" fill="#0099ff" fill-rule="evenodd" stroke="none"/>
    <path d="M3.7 1.0 Q4.05 1.25 4.05 1.65 L3.85 2.25 3.25 2.6 2.6 2.4 2.3 1.8 Q2.25 1.45 2.45 1.15 L3.05 0.8 3.7 1.0 Z" fill="none" stroke="#5a4425" stroke-linecap="round" stroke-linejoin="round" stroke-width="1.0"/>
  </g>
</svg>
