<?xml version="1.0" encoding="UTF-8" standalone="no"?>
<svg xmlns:ffdec="https://www.free-decompiler.com/flash" xmlns:xlink="http://www.w3.org/1999/xlink" ffdec:objectType="shape" height="58.1px" width="60.4px" xmlns="http://www.w3.org/2000/svg">
  <g transform="matrix(1.0, 0.0, 0.0, 1.0, 30.45, 29.6)">
    <path d="M22.4 -23.1 Q27.85 -16.35 26.35 -3.4 25.75 9.65 19.3 19.15 12.75 26.6 1.35 25.0 -12.1 25.8 -21.35 18.0 -28.85 8.2 -26.55 -5.0 -26.4 -16.8 -17.8 -22.35 -7.7 -27.35 5.15 -26.05 16.85 -27.8 22.4 -23.1" fill="url(#gradient0)" fill-rule="evenodd" stroke="none"/>
    <path d="M22.4 -23.1 Q27.85 -16.35 26.35 -3.4 25.75 9.65 19.3 19.15 12.75 26.6 1.35 25.0 -12.1 25.8 -21.35 18.0 -28.85 8.2 -26.55 -5.0 -26.4 -16.8 -17.8 -22.35 -7.7 -27.35 5.15 -26.05 16.85 -27.8 22.4 -23.1" fill="none" stroke="#3a1701" stroke-linecap="round" stroke-linejoin="round" stroke-width="2.0"/>
    <path d="M27.25 -18.8 L28.4 -11.5 M13.5 -28.1 L19.25 -27.65 M21.8 -26.65 L25.7 -22.65 M1.3 -27.95 Q5.45 -27.35 9.1 -27.9 M26.85 6.1 Q25.45 10.2 24.4 14.25 M14.65 25.6 L8.6 26.85 M22.7 18.1 L18.15 23.6 M28.45 -7.35 Q27.95 -3.35 27.8 0.7 M-3.15 -27.9 L-11.5 -27.05 M-24.5 -19.25 L-27.25 -13.3 M-16.3 -25.65 L-22.35 -21.85 M-28.2 -8.9 Q-28.35 -5.3 -28.95 -1.1 M-28.95 3.45 L-27.85 11.9 M-16.7 24.3 L-8.45 26.35 M-25.9 16.75 Q-23.45 19.8 -20.55 22.45 M-3.05 26.8 Q1.4 26.6 4.95 27.0" fill="none" stroke="#291101" stroke-linecap="round" stroke-linejoin="round" stroke-width="3.0"/>
    <path d="M6.75 -4.35 L5.7 -5.7 Q3.3 -8.1 0.0 -8.0 -3.2 -8.1 -5.6 -5.7 L-6.85 -4.1 Q-8.0 -2.25 -8.0 0.0 -8.0 3.2 -5.6 5.6 -3.2 7.9 0.0 8.0 3.3 7.9 5.7 5.6 8.0 3.2 8.0 0.0 8.0 -2.4 6.75 -4.35 M14.1 -14.2 Q20.0 -8.3 20.0 0.0 20.0 8.3 14.1 14.1 8.3 20.0 0.0 20.0 -8.3 20.0 -14.2 14.1 -20.0 8.3 -20.0 0.0 -20.0 -8.3 -14.2 -14.2 -8.3 -20.0 0.0 -20.0 8.3 -20.0 14.1 -14.2" fill="url(#gradient1)" fill-rule="evenodd" stroke="none"/>
    <path d="M6.75 -4.35 L3.8 -0.15 -3.55 -0.15 -6.85 -4.1 -5.6 -5.7 Q-3.2 -8.1 0.0 -8.0 3.3 -8.1 5.7 -5.7 L6.75 -4.35" fill="#444444" fill-rule="evenodd" stroke="none"/>
    <path d="M-6.85 -4.1 L-3.55 -0.15 3.8 -0.15 6.75 -4.35 Q8.0 -2.4 8.0 0.0 8.0 3.2 5.7 5.6 3.3 7.9 0.0 8.0 -3.2 7.9 -5.6 5.6 -8.0 3.2 -8.0 0.0 -8.0 -2.25 -6.85 -4.1" fill="#2f2f2f" fill-rule="evenodd" stroke="none"/>
    <path d="M14.1 -14.2 Q20.0 -8.3 20.0 0.0 20.0 8.3 14.1 14.1 8.3 20.0 0.0 20.0 -8.3 20.0 -14.2 14.1 -20.0 8.3 -20.0 0.0 -20.0 -8.3 -14.2 -14.2 -8.3 -20.0 0.0 -20.0 8.3 -20.0 14.1 -14.2" fill="none" stroke="#321401" stroke-linecap="round" stroke-linejoin="round" stroke-width="2.0"/>
    <path d="M-6.85 -4.1 L-3.55 -0.15 3.8 -0.15 6.75 -4.35 5.7 -5.7 Q3.3 -8.1 0.0 -8.0 -3.2 -8.1 -5.6 -5.7 L-6.85 -4.1 Q-8.0 -2.25 -8.0 0.0 -8.0 3.2 -5.6 5.6 -3.2 7.9 0.0 8.0 3.3 7.9 5.7 5.6 8.0 3.2 8.0 0.0 8.0 -2.4 6.75 -4.35" fill="none" stroke="#1e1e1e" stroke-linecap="round" stroke-linejoin="round" stroke-width="2.0"/>
  </g>
  <defs>
    <radialGradient cx="0" cy="0" gradientTransform="matrix(0.0348, 0.001, -0.0033, 0.0349, -0.5, -0.65)" gradientUnits="userSpaceOnUse" id="gradient0" r="819.2" spreadMethod="pad">
      <stop offset="0.9098039215686274" stop-color="#542b01"/>
      <stop offset="1.0" stop-color="#4b2601"/>
    </radialGradient>
    <radialGradient cx="0" cy="0" gradientTransform="matrix(0.0249, 0.0, 0.0, 0.0249, 0.3, 0.0)" gradientUnits="userSpaceOnUse" id="gradient1" r="819.2" spreadMethod="pad">
      <stop offset="0.6588235294117647" stop-color="#444444"/>
      <stop offset="1.0" stop-color="#1a1a1a"/>
    </radialGradient>
  </defs>
</svg>
