<?xml version="1.0" encoding="UTF-8" standalone="no"?>
<svg xmlns:xlink="http://www.w3.org/1999/xlink" height="2.7px" width="2.7px" xmlns="http://www.w3.org/2000/svg">
  <g transform="matrix(1.0, 0.0, 0.0, 1.0, 1.35, 1.4)">
    <path d="M1.15 -0.1 L0.8 0.75 0.0 1.05 -0.8 0.75 -1.15 -0.1 -0.8 -0.9 Q-0.5 -1.25 0.0 -1.25 0.45 -1.25 0.8 -0.9 L1.15 -0.1" fill="#ffffff" fill-opacity="0.0" fill-rule="evenodd" stroke="none"/>
    <path d="M0.95 -1.0 Q1.35 -0.65 1.35 -0.05 1.35 0.5 0.95 0.9 L0.0 1.3 -0.95 0.9 Q-1.35 0.5 -1.35 -0.05 -1.35 -0.65 -0.95 -1.0 -0.6 -1.45 0.0 -1.4 0.5 -1.45 0.95 -1.0" fill="#4d95ff" fill-opacity="0.0" fill-rule="evenodd" stroke="none"/>
  </g>
</svg>
