<?xml version="1.0" encoding="UTF-8" standalone="no"?>
<svg xmlns:ffdec="https://www.free-decompiler.com/flash" xmlns:xlink="http://www.w3.org/1999/xlink" ffdec:objectType="shape" height="22.55px" width="14.85px" xmlns="http://www.w3.org/2000/svg">
  <g transform="matrix(1.0, 0.0, 0.0, 1.0, 0.5, 0.5)">
    <path d="M11.9 19.7 Q10.7 21.5 8.3 21.55 5.9 21.6 5.1 19.7 4.15 17.4 3.05 13.25 L1.15 6.75 Q0.1 2.85 4.8 0.8 9.45 -1.25 11.9 3.1 13.25 4.9 11.9 19.7" fill="#191919" fill-rule="evenodd" stroke="none"/>
    <path d="M11.9 19.7 Q13.25 4.9 11.9 3.1 9.45 -1.25 4.8 0.8 0.1 2.85 1.15 6.75 L3.05 13.25 Q4.15 17.4 5.1 19.7 5.9 21.6 8.3 21.55 10.7 21.5 11.9 19.7 Z" fill="none" stroke="#0e0e0e" stroke-linecap="round" stroke-linejoin="round" stroke-width="1.0"/>
    <path d="M10.05 15.8 Q12.05 15.75 13.85 15.1 L13.85 15.8 10.05 15.8" fill="#383838" fill-rule="evenodd" stroke="none"/>
    <path d="M6.5 16.85 L6.2 15.6 3.95 5.65 0.15 6.55 3.95 5.65 6.2 15.6 6.5 16.85 6.1 17.9 6.1 19.45 5.35 19.45 2.7 19.45 0.5 13.35 1.15 10.65 0.15 6.55 0.0 6.05 4.8 4.9 6.85 15.8 6.5 16.85 M6.2 15.6 L5.25 17.9 5.35 19.45 5.25 17.9 6.2 15.6" fill="#272727" fill-rule="evenodd" stroke="none"/>
    <path d="M13.3 3.35 L10.05 4.8 9.25 3.0 12.15 1.5 13.3 3.35" fill="#ff0000" fill-rule="evenodd" stroke="none"/>
    <path d="M13.3 3.35 L13.85 4.25 13.85 7.65 12.6 9.2 12.6 12.6 13.85 13.8 13.85 15.1 Q12.05 15.75 10.05 15.8 L9.0 15.8 6.9 2.35 11.2 0.0 12.15 1.5 9.25 3.0 10.05 4.8 13.3 3.35" fill="#350303" fill-rule="evenodd" stroke="none"/>
    <path d="M0.15 6.55 L3.95 5.65 6.2 15.6 6.5 16.85 M5.35 19.45 L5.25 17.9 6.2 15.6" fill="none" stroke="#350303" stroke-linecap="round" stroke-linejoin="round" stroke-width="1.0"/>
    <path d="M0.0 6.05 L4.8 4.9 6.85 15.8 6.1 17.9 6.1 19.45 2.7 19.45 0.5 13.35 1.15 10.65 0.0 6.05" fill="#350303" fill-rule="evenodd" stroke="none"/>
    <path d="M13.3 3.35 L12.15 1.5 9.25 3.0 10.05 4.8 13.3 3.35 13.85 4.25 13.85 7.65 12.6 9.2 12.6 12.6 13.85 13.8 13.85 15.8 9.0 15.8 6.9 2.35 11.2 0.0 12.15 1.5 M0.0 6.05 L4.8 4.9 6.85 15.8 6.1 17.9 6.1 19.45 2.7 19.45 0.5 13.35 1.15 10.65 0.0 6.05 Z" fill="none" stroke="#190000" stroke-linecap="round" stroke-linejoin="round" stroke-width="1.0"/>
  </g>
</svg>
