<?xml version="1.0" encoding="UTF-8" standalone="no"?>
<svg xmlns:ffdec="https://www.free-decompiler.com/flash" xmlns:xlink="http://www.w3.org/1999/xlink" ffdec:objectType="shape" height="22.45px" width="13.6px" xmlns="http://www.w3.org/2000/svg">
  <g transform="matrix(1.0, 0.0, 0.0, 1.0, 7.25, 5.95)">
    <path d="M-0.85 14.95 Q-0.1 12.3 -0.5 9.7 L-2.95 5.9 -1.85 0.25 Q-1.5 -1.15 -1.05 -1.5 L1.1 -2.85 2.8 -3.15 Q3.65 -3.0 4.4 -1.7 5.45 0.35 5.75 2.4 L5.8 3.55 5.85 5.8 5.75 8.75 5.45 11.6 Q5.2 13.15 3.45 14.6 1.65 16.0 0.7 16.0 L-0.8 14.95 -0.85 14.95 M5.3 8.5 L0.95 6.1 1.0 2.45 -1.85 0.25 1.0 2.45 0.95 6.1 5.3 8.5" fill="url(#gradient0)" fill-rule="evenodd" stroke="none"/>
    <path d="M-6.65 2.55 L-6.3 -0.55 -6.05 -1.4 Q-4.8 -5.85 -0.7 -5.4 L0.3 -5.3 Q1.95 -5.1 2.8 -3.15 L1.1 -2.85 -1.05 -1.5 Q-1.5 -1.15 -1.85 0.25 L-2.95 5.9 -0.5 9.7 Q-0.1 12.3 -0.85 14.95 L-5.45 14.35 -5.45 14.2 Q-6.65 10.6 -6.7 6.55 L-6.65 2.55" fill="#191919" fill-rule="evenodd" stroke="none"/>
    <path d="M-6.65 2.55 L-6.7 6.55 -6.85 6.55 Q-7.1 6.3 -6.65 2.55" fill="#8a8580" fill-rule="evenodd" stroke="none"/>
    <path d="M-5.45 14.35 L-0.85 14.95 -0.85 15.05 -5.45 14.45 -5.45 14.35" fill="#333333" fill-rule="evenodd" stroke="none"/>
    <path d="M0.7 16.0 L-0.8 15.05 -0.8 14.95 0.7 16.0" fill="#4d4946" fill-rule="evenodd" stroke="none"/>
    <path d="M2.8 -3.15 Q1.95 -5.1 0.3 -5.3 L-0.7 -5.4 Q-4.8 -5.85 -6.05 -1.4 L-6.3 -0.55 -6.65 2.55 -6.7 6.55 Q-6.65 10.6 -5.45 14.2 L-5.45 14.35 -0.85 14.95 Q-0.1 12.3 -0.5 9.7 L-2.95 5.9 M-0.8 14.95 L-0.85 14.95 M-0.8 14.95 L0.7 16.0" fill="none" stroke="#0f0f0f" stroke-linecap="round" stroke-linejoin="round" stroke-width="1.0"/>
    <path d="M-1.85 0.25 L1.0 2.45 0.95 6.1 5.3 8.5" fill="none" stroke="url(#gradient1)" stroke-linecap="round" stroke-linejoin="round" stroke-width="1.0"/>
    <path d="M1.1 -2.85 L2.8 -3.15" fill="none" stroke="#0f0f0f" stroke-linecap="round" stroke-linejoin="round" stroke-width="1.0"/>
    <path d="M-2.95 5.9 L-1.85 0.25" fill="none" stroke="#0f0f0f" stroke-linecap="round" stroke-linejoin="round" stroke-width="1.0"/>
    <path d="M-1.85 0.25 Q-1.5 -1.15 -1.05 -1.5 L1.1 -2.85" fill="none" stroke="#0f0f0f" stroke-linecap="round" stroke-linejoin="round" stroke-width="1.0"/>
    <path d="M0.7 16.0 Q1.65 16.0 3.45 14.6 5.2 13.15 5.45 11.6 L5.75 8.75 5.85 5.8 5.8 3.55 5.75 2.4 Q5.45 0.35 4.4 -1.7 3.65 -3.0 2.8 -3.15" fill="none" stroke="#0f0f0f" stroke-linecap="round" stroke-linejoin="round" stroke-width="1.0"/>
  </g>
  <defs>
    <radialGradient cx="0" cy="0" gradientTransform="matrix(0.0172, 0.0, 0.0, 0.0172, 7.5, 3.65)" gradientUnits="userSpaceOnUse" id="gradient0" r="819.2" spreadMethod="pad">
      <stop offset="0.0" stop-color="#756d5f"/>
      <stop offset="1.0" stop-color="#1f1f1f"/>
      <stop offset="1.0" stop-color="#333333"/>
      <stop offset="1.0" stop-color="#333333"/>
      <stop offset="1.0" stop-color="#202121"/>
      <stop offset="1.0" stop-color="#202121"/>
    </radialGradient>
    <linearGradient gradientTransform="matrix(0.0084, 0.0, 0.0, 0.0137, -0.55, 5.25)" gradientUnits="userSpaceOnUse" id="gradient1" spreadMethod="pad" x1="-819.2" x2="819.2">
      <stop offset="0.0" stop-color="#3f3f40"/>
      <stop offset="1.0" stop-color="#000000"/>
      <stop offset="1.0" stop-color="#333333"/>
      <stop offset="1.0" stop-color="#333333"/>
      <stop offset="1.0" stop-color="#202121"/>
      <stop offset="1.0" stop-color="#202121"/>
    </linearGradient>
  </defs>
</svg>
