<?xml version="1.0" encoding="UTF-8" standalone="no"?>
<svg xmlns:ffdec="https://www.free-decompiler.com/flash" xmlns:xlink="http://www.w3.org/1999/xlink" ffdec:objectType="shape" height="19.6px" width="12.8px" xmlns="http://www.w3.org/2000/svg">
  <g transform="matrix(1.0, 0.0, 0.0, 1.0, 5.7, 5.6)">
    <path d="M5.9 11.35 Q4.5 14.55 0.15 12.95 -5.45 4.05 -5.2 -0.6 -3.4 -5.5 1.5 -3.3 5.35 -0.7 5.9 11.35 M-3.6 2.35 L-1.85 6.7 0.8 5.7 -0.3 1.1 -3.6 2.35" fill="url(#gradient0)" fill-rule="evenodd" stroke="none"/>
    <path d="M-5.2 -0.6 Q-5.05 -3.1 -3.25 -4.35 -2.3 -5.0 -0.8 -5.1 3.3 -5.4 5.25 -0.55 7.15 4.3 6.35 9.65 L5.9 11.35 Q5.35 -0.7 1.5 -3.3 -3.4 -5.5 -5.2 -0.6" fill="url(#gradient1)" fill-rule="evenodd" stroke="none"/>
    <path d="M-3.6 2.35 L-0.3 1.1 0.8 5.7 -1.85 6.7 -3.6 2.35" fill="url(#gradient2)" fill-rule="evenodd" stroke="none"/>
    <path d="M1.5 -3.3 Q5.35 -0.7 5.9 11.35" fill="none" stroke="#666666" stroke-linecap="round" stroke-linejoin="round" stroke-width="1.0"/>
    <path d="M-5.2 -0.6 Q-5.05 -3.1 -3.25 -4.35 -2.3 -5.0 -0.8 -5.1 3.3 -5.4 5.25 -0.55 7.15 4.3 6.35 9.65 L5.9 11.35 Q4.5 14.55 0.15 12.95 -5.45 4.05 -5.2 -0.6" fill="none" stroke="#090909" stroke-linecap="round" stroke-linejoin="round" stroke-width="1.0"/>
    <path d="M-3.6 2.35 L-0.3 1.1 0.8 5.7 -1.85 6.7 -3.6 2.35 Z" fill="none" stroke="#222222" stroke-linecap="round" stroke-linejoin="round" stroke-width="1.0"/>
  </g>
  <defs>
    <radialGradient cx="0" cy="0" gradientTransform="matrix(0.0147, 0.0, 0.0, 0.0147, -1.9, 7.9)" gradientUnits="userSpaceOnUse" id="gradient0" r="819.2" spreadMethod="pad">
      <stop offset="0.0" stop-color="#222222"/>
      <stop offset="0.6588235294117647" stop-color="#444444"/>
      <stop offset="1.0" stop-color="#676767"/>
      <stop offset="1.0" stop-color="#4dcbde"/>
    </radialGradient>
    <radialGradient cx="0" cy="0" gradientTransform="matrix(0.0147, 0.0, 0.0, 0.0147, -1.9, 7.9)" gradientUnits="userSpaceOnUse" id="gradient1" r="819.2" spreadMethod="pad">
      <stop offset="0.0" stop-color="#222222"/>
      <stop offset="0.6588235294117647" stop-color="#666666"/>
      <stop offset="1.0" stop-color="#999999"/>
    </radialGradient>
    <linearGradient gradientTransform="matrix(-0.0012, -0.0031, 0.002, -8.0E-4, -0.3, 6.0)" gradientUnits="userSpaceOnUse" id="gradient2" spreadMethod="pad" x1="-819.2" x2="819.2">
      <stop offset="0.0" stop-color="#222222"/>
      <stop offset="0.6588235294117647" stop-color="#444444"/>
      <stop offset="1.0" stop-color="#676767"/>
    </linearGradient>
  </defs>
</svg>
