<?xml version="1.0" encoding="UTF-8" standalone="no"?>
<svg xmlns:ffdec="https://www.free-decompiler.com/flash" xmlns:xlink="http://www.w3.org/1999/xlink" ffdec:objectType="shape" height="20.65px" width="14.05px" xmlns="http://www.w3.org/2000/svg">
  <g transform="matrix(1.0, 0.0, 0.0, 1.0, -1.05, 1.55)">
    <path d="M2.4 2.05 L2.4 1.4 Q3.05 -0.1 4.85 -0.7 L5.7 -0.95 Q8.2 -1.45 9.95 0.35 L5.5 1.5 5.45 1.5 2.4 2.05 M13.75 14.85 Q14.0 16.65 12.65 17.8 11.75 18.55 10.15 18.6 L8.6 18.45 Q6.4 18.3 6.2 16.2 L13.75 14.85" fill="#252525" fill-rule="evenodd" stroke="none"/>
    <path d="M2.4 2.05 L2.4 1.4 Q3.05 -0.1 4.85 -0.7 L5.7 -0.95 Q8.2 -1.45 9.95 0.35 M6.2 16.2 Q6.4 18.3 8.6 18.45 L10.15 18.6 Q11.75 18.55 12.65 17.8 14.0 16.65 13.75 14.85" fill="none" stroke="#0e0c0c" stroke-linecap="round" stroke-linejoin="round" stroke-width="1.0"/>
    <path d="M14.2 8.15 L14.6 11.95 14.6 15.15 Q10.9 16.55 5.75 15.8 L3.85 13.0 1.8 6.35 3.75 6.35 6.65 12.1 Q9.75 13.45 12.65 11.5 L12.75 8.25 14.2 8.15" fill="#191919" fill-rule="evenodd" stroke="none"/>
    <path d="M14.2 8.15 L12.75 8.25 12.65 11.5 Q9.75 13.45 6.65 12.1 L3.75 6.35 1.8 6.35 Q1.3 4.5 1.8 2.65 4.9 -0.9 11.25 1.05 13.5 4.3 14.2 8.15" fill="#1c1c1c" fill-rule="evenodd" stroke="none"/>
    <path d="M1.8 6.35 L3.85 13.0 5.75 15.8 Q10.9 16.55 14.6 15.15 L14.6 11.95 14.2 8.15 12.75 8.25 12.65 11.5 Q9.75 13.45 6.65 12.1 L3.75 6.35 1.8 6.35 Q1.3 4.5 1.8 2.65 4.9 -0.9 11.25 1.05 13.5 4.3 14.2 8.15" fill="none" stroke="#0e0c0c" stroke-linecap="round" stroke-linejoin="round" stroke-width="1.0"/>
    <path d="M11.35 11.25 Q11.4 12.0 10.85 12.5 10.4 13.05 9.65 13.05 8.95 13.15 8.5 12.6 8.0 12.05 7.95 11.3 7.95 10.6 8.4 10.05 8.9 9.55 9.6 9.45 10.35 9.45 10.8 10.0 11.35 10.55 11.35 11.25" fill="#ffffa3" fill-rule="evenodd" stroke="none"/>
    <path d="M11.35 11.25 Q11.4 12.0 10.85 12.5 10.4 13.05 9.65 13.05 8.95 13.15 8.5 12.6 8.0 12.05 7.95 11.3 7.95 10.6 8.4 10.05 8.9 9.55 9.6 9.45 10.35 9.45 10.8 10.0 11.35 10.55 11.35 11.25 Z" fill="none" stroke="#b1b171" stroke-linecap="round" stroke-linejoin="round" stroke-width="1.0"/>
    <path d="M13.2 11.0 Q13.2 12.35 12.25 13.3 11.35 14.3 10.0 14.3 8.7 14.3 7.7 13.35 6.75 12.45 6.75 11.1 6.75 9.8 7.7 8.8 8.65 7.85 9.95 7.85 11.3 7.85 12.25 8.75 13.2 9.7 13.2 11.0" fill="url(#gradient0)" fill-rule="evenodd" stroke="none"/>
  </g>
  <defs>
    <radialGradient cx="0" cy="0" gradientTransform="matrix(0.004, 0.0, 0.0, 0.004, 9.95, 11.05)" gradientUnits="userSpaceOnUse" id="gradient0" r="819.2" spreadMethod="pad">
      <stop offset="0.0" stop-color="#ffffa3" stop-opacity="0.49803922"/>
      <stop offset="1.0" stop-color="#ffffff" stop-opacity="0.0"/>
    </radialGradient>
  </defs>
</svg>
