<?xml version="1.0" encoding="UTF-8" standalone="no"?>
<svg xmlns:ffdec="https://www.free-decompiler.com/flash" xmlns:xlink="http://www.w3.org/1999/xlink" ffdec:objectType="shape" height="23.6px" width="20.2px" xmlns="http://www.w3.org/2000/svg">
  <g transform="matrix(1.0, 0.0, 0.0, 1.0, 0.5, 2.1)">
    <path d="M13.3 3.75 Q13.75 5.85 12.95 7.9 12.15 10.0 10.2 10.7 8.25 11.4 6.3 10.35 4.35 9.3 3.25 7.4 2.1 5.5 2.05 2.9 2.0 0.25 5.7 -1.05 9.35 -2.4 11.1 -0.4 12.85 1.6 13.3 3.75" fill="#070707" fill-rule="evenodd" stroke="none"/>
    <path d="M13.3 3.75 Q13.75 5.85 12.95 7.9 12.15 10.0 10.2 10.7 8.25 11.4 6.3 10.35 4.35 9.3 3.25 7.4 2.1 5.5 2.05 2.9 2.0 0.25 5.7 -1.05 9.35 -2.4 11.1 -0.4 12.85 1.6 13.3 3.75 Z" fill="none" stroke="#170505" stroke-linecap="round" stroke-linejoin="round" stroke-width="1.0"/>
    <path d="M7.2 17.65 L7.2 19.3 7.25 19.35 7.7 19.95 5.25 21.0 4.05 20.0 4.05 18.15 1.55 15.65 1.55 13.15 3.75 13.15 3.75 13.9 5.7 15.7 7.2 17.65" fill="#311616" fill-rule="evenodd" stroke="none"/>
    <path d="M5.6 6.2 L6.95 6.7 9.4 4.25 9.4 2.5 13.2 0.75 16.15 3.25 19.2 13.2 18.2 15.05 18.15 17.15 14.95 19.0 14.9 19.0 9.4 17.5 7.75 12.0 5.8 11.65 5.6 6.2 5.8 11.65 2.35 11.0 0.0 5.0 0.7 3.75 3.35 3.75 4.2 5.65 5.6 6.2" fill="#511717" fill-rule="evenodd" stroke="none"/>
    <path d="M5.6 6.2 L5.8 11.65" fill="none" stroke="#481414" stroke-linecap="round" stroke-linejoin="round" stroke-width="1.0"/>
    <path d="M8.2 5.45 L6.95 6.7 4.2 5.65 3.35 3.75 0.7 3.75 0.0 5.0 2.35 11.0 3.75 11.25 7.75 12.0 9.4 17.5 11.15 18.0 11.2 18.0 14.9 19.0 18.55 17.0 18.2 15.05 19.2 13.2 16.15 3.25 13.2 0.75 9.4 2.5 9.4 4.25 8.2 5.45 M3.75 11.25 L3.75 13.15 3.75 13.9 5.7 15.7 7.2 17.65 7.2 19.3 7.25 19.35 11.15 18.0 M3.75 13.15 L1.55 13.15 1.55 15.65 4.05 18.15 4.05 20.0 5.25 21.0 7.7 19.95 7.25 19.35" fill="none" stroke="#250d0d" stroke-linecap="round" stroke-linejoin="round" stroke-width="1.0"/>
    <path d="M8.2 5.45 L13.05 10.1 13.6 10.6 M13.05 10.1 L14.3 13.95" fill="none" stroke="#7e2020" stroke-linecap="round" stroke-linejoin="round" stroke-width="1.0"/>
    <path d="M8.6 5.05 L13.45 10.05 14.25 14.0 18.2 15.05" fill="none" stroke="#2c0404" stroke-linecap="round" stroke-linejoin="round" stroke-width="1.0"/>
    <path d="M11.15 18.0 L11.2 18.0 M3.75 11.25 L3.75 13.15 3.75 13.9 5.7 15.7 7.2 17.65 7.2 19.3 7.25 19.35 11.15 18.0 M3.75 13.15 L1.55 13.15 1.55 15.65 4.05 18.15 4.05 20.0 5.25 21.0 7.7 19.95 7.25 19.35" fill="none" stroke="#250d0d" stroke-linecap="round" stroke-linejoin="round" stroke-width="1.0"/>
    <path d="M3.75 11.25 L7.75 12.0 9.4 17.5 11.15 18.0" fill="none" stroke="#1c0f0f" stroke-linecap="round" stroke-linejoin="round" stroke-width="1.0"/>
    <path d="M11.2 18.0 L14.9 19.0 18.55 17.0 18.2 15.05 19.2 13.2 16.15 3.25 13.2 0.75 9.4 2.5 9.4 4.25 6.95 6.7 4.2 5.65 3.35 3.75 0.7 3.75 0.0 5.0 2.35 11.0 3.75 11.25" fill="none" stroke="#170505" stroke-linecap="round" stroke-linejoin="round" stroke-width="1.0"/>
  </g>
</svg>
