<?xml version="1.0" encoding="UTF-8" standalone="no"?>
<svg xmlns:xlink="http://www.w3.org/1999/xlink" height="19.6px" width="54.2px" xmlns="http://www.w3.org/2000/svg">
  <g transform="matrix(1.0, 0.0, 0.0, 1.0, 22.3, 6.35)">
    <path d="M2.05 -2.55 L1.65 -1.95 -2.3 -1.95 -2.65 -2.55 -2.75 -2.7 -2.2 -3.85 0.05 -3.85 0.75 -5.85 2.05 -5.85 2.05 -2.55 M-4.9 -1.35 L-4.9 -0.45 -4.9 1.95 -2.4 1.95 -2.4 3.6 -2.1 3.95 -1.15 4.9 -1.55 5.95 -1.7 6.25 -2.45 8.3 -3.3 10.4 -6.5 8.7 -3.95 4.25 -3.95 4.05 -4.25 3.45 -4.3 3.3 -4.45 3.25 -4.55 3.25 -5.55 3.05 -5.85 2.95 -5.85 2.3 -5.95 2.35 -7.1 2.35 -8.75 2.65 -9.55 3.15 Q-10.0 3.55 -10.05 4.0 L-12.15 4.0 -16.45 7.25 -19.25 7.25 -19.2 3.2 -17.5 1.5 -17.45 1.5 -17.45 5.1 -16.6 5.1 -13.65 2.75 -13.65 1.5 -7.1 1.5 -7.1 0.2 -7.1 -0.95 -7.1 -1.35 -4.9 -1.35 M8.4 0.55 L8.4 0.1 8.4 -1.2 8.4 -2.15 23.95 -2.15 27.1 -2.15 27.1 -1.15 31.4 -1.15 31.4 0.6 27.1 0.6 27.1 1.65 24.8 1.65 24.25 1.65 23.8 1.65 22.45 1.7 22.45 3.7 20.7 3.7 20.7 4.95 19.1 4.95 Q19.1 4.25 18.75 3.95 L18.35 3.85 16.6 4.0 Q16.0 4.1 15.5 4.35 L14.9 4.6 14.4 4.9 12.2 6.75 10.2 6.75 9.7 6.1 9.7 5.7 9.3 4.55 8.85 4.05 9.45 1.65 9.45 0.55 9.35 0.55 8.4 0.55 M25.4 -0.6 L23.3 -0.6 25.4 -0.6 M14.15 -0.6 L12.0 -0.6 14.15 -0.6 M17.9 -0.6 L15.8 -0.6 17.9 -0.6 M5.35 4.9 L7.65 4.4 7.7 4.95 7.9 6.65 8.1 8.05 8.4 9.3 8.6 10.1 9.05 11.55 4.8 12.75 4.7 12.75 Q4.3 11.95 4.05 10.55 L3.95 10.25 6.2 9.75 5.85 8.3 Q5.55 6.5 5.55 4.9 L4.3 5.15 5.35 4.9 M21.65 -0.6 L19.5 -0.6 21.65 -0.6 M22.45 1.65 L23.8 1.65 22.45 1.65 22.45 1.7 22.45 1.65 20.7 1.65 20.7 3.7 20.7 1.65 22.45 1.65 M12.35 3.85 L13.35 5.6 12.35 3.85 M14.4 3.15 L14.9 4.6 14.4 3.15 M16.55 2.9 L16.6 4.0 16.55 2.9 M12.2 6.75 L12.6 6.25 13.35 5.6 13.75 5.3 14.4 4.9 13.75 5.3 13.35 5.6 12.6 6.25 12.2 6.75 M9.35 0.55 L9.45 0.55 9.45 1.65 9.35 0.55 M20.7 1.65 L9.45 1.65 20.7 1.65 M27.1 -1.15 L27.1 0.6 27.1 -1.15 M8.1 8.05 L7.85 6.5 7.7 4.95 7.85 6.5 8.1 8.05 M-4.55 3.25 L-4.6 3.2 -5.55 3.05 -4.6 3.2 -4.55 3.25 M-6.5 8.7 L-4.25 4.8 -3.95 4.25 -4.25 4.8 -6.5 8.7 M-7.1 1.5 L-7.1 2.35 -7.1 1.5 M-5.85 2.3 L-5.85 1.95 -4.9 1.95 -5.85 1.95 -5.85 2.3 M-2.9 5.6 L-1.7 6.25 -2.9 5.6 M-3.75 7.6 L-2.45 8.3 -3.75 7.6 M-10.05 4.0 Q-10.05 3.55 -9.7 3.2 -9.35 2.8 -8.75 2.65 -9.35 2.8 -9.7 3.2 -10.05 3.55 -10.05 4.0" fill="#333333" fill-rule="evenodd" stroke="none"/>
    <path d="M-0.2 3.9 L0.25 5.3 -0.15 4.4 -0.2 3.9" fill="#4c4c4c" fill-opacity="0.9411765" fill-rule="evenodd" stroke="none"/>
    <path d="M8.4 -1.2 L2.75 -1.2 2.75 -0.45 -1.15 -0.45 -3.35 -0.45 -4.9 -0.45 -4.9 -1.35 -3.6 -2.55 -2.65 -2.55 -2.3 -1.95 1.65 -1.95 2.05 -2.55 8.3 -2.55 8.4 -1.2 M27.1 -2.15 L23.95 -2.15 23.95 -3.85 25.8 -3.85 27.1 -2.15 M-17.5 -0.95 L-7.1 -0.95 -7.1 0.2 -17.5 0.2 -17.5 -0.95" fill="#c0c0c0" fill-rule="evenodd" stroke="none"/>
    <path d="M-4.9 -0.45 L-3.35 -0.45 -1.15 -0.45 2.75 -0.45 2.75 0.55 1.4 1.2 -2.3 1.2 -2.4 1.35 -2.4 1.95 -4.9 1.95 -4.9 -0.45 M-7.1 1.5 L-13.65 1.5 -17.45 1.5 -17.5 1.5 -17.5 0.2 -7.1 0.2 -7.1 1.5" fill="#a8a8a8" fill-rule="evenodd" stroke="none"/>
    <path d="M-19.25 7.25 L-20.45 6.95 Q-21.75 6.2 -21.8 4.7 L-21.8 -1.5 -17.5 -1.5 -17.5 -0.95 -17.5 0.2 -17.5 1.5 -19.2 3.2 -19.25 7.25" fill="#202020" fill-rule="evenodd" stroke="none"/>
    <path d="M2.75 -0.45 L2.75 -1.2 8.4 -1.2 8.4 0.1 8.4 0.55 2.75 0.55 2.75 -0.45" fill="#52785a" fill-rule="evenodd" stroke="none"/>
    <path d="M3.95 10.25 Q3.35 7.7 3.55 5.35 L4.3 5.15 5.55 4.9 Q5.55 6.5 5.85 8.3 L6.2 9.75 3.95 10.25" fill="#8c7a2e" fill-rule="evenodd" stroke="none"/>
    <path d="M2.75 0.55 L8.4 0.55 9.35 0.55 9.45 1.65 8.85 4.05 5.35 4.9 4.3 5.15 3.55 5.35 3.2 5.4 3.2 2.9 1.0 2.9 0.2 2.9 -0.2 3.9 -0.15 4.4 0.25 5.3 -0.7 5.3 -2.1 3.95 -2.4 3.6 -2.4 1.95 -2.4 1.35 -2.3 1.2 1.4 1.2 2.75 0.55" fill="#4c4c4c" fill-rule="evenodd" stroke="none"/>
    <path d="M8.3 -2.55 L2.05 -2.55 M-2.65 -2.55 L-3.6 -2.55 -4.9 -1.35 -4.9 -0.45 -4.9 1.95 M8.4 -2.15 L8.3 -2.55 M27.1 -2.15 L23.95 -2.15 23.95 -3.85 25.8 -3.85 27.1 -2.15" fill="none" stroke="#828282" stroke-linecap="round" stroke-linejoin="round" stroke-width="1.0"/>
    <path d="M2.05 -2.55 L1.65 -1.95 -2.3 -1.95 -2.65 -2.55 -2.75 -2.7 -2.2 -3.85 0.05 -3.85 0.75 -5.85 2.05 -5.85 2.05 -2.55 M8.4 -1.2 L8.4 -2.15 23.95 -2.15 M27.1 -2.15 L27.1 -1.15 31.4 -1.15 31.4 0.6 27.1 0.6 27.1 1.65 24.8 1.65 24.25 1.65 23.8 1.65 22.45 1.65 20.7 1.65 20.7 3.7 20.7 4.95 19.1 4.95 Q19.1 4.25 18.75 3.95 L18.35 3.85 16.6 4.0 Q16.0 4.1 15.5 4.35 L14.9 4.6 14.4 4.9 13.75 5.3 13.35 5.6 12.6 6.25 12.2 6.75 10.2 6.75 9.7 6.1 9.7 5.7 9.3 4.55 8.85 4.05 9.45 1.65 9.45 0.55 9.35 0.55 8.4 0.55 M22.45 1.7 L22.45 3.7 20.7 3.7 M7.65 4.4 L7.7 4.95 7.85 6.5 8.1 8.05 8.4 9.3 8.6 10.1 9.05 11.55 4.8 12.75 4.7 12.75 Q4.3 11.95 4.05 10.55 L3.95 10.25 Q3.35 7.7 3.55 5.35 M-2.1 3.95 L-1.15 4.9 -1.55 5.95 -1.7 6.25 -2.45 8.3 -3.3 10.4 -6.5 8.7 -4.25 4.8 -3.95 4.25 -3.95 4.05 -4.25 3.45 -4.45 3.25 -4.55 3.25 -4.6 3.2 -5.55 3.05 -5.85 2.95 -5.85 2.3 -5.85 1.95 -4.9 1.95 -2.4 1.95 M-5.95 2.35 L-7.1 2.35 -8.75 2.65 Q-9.35 2.8 -9.7 3.2 -10.05 3.55 -10.05 4.0 L-12.15 4.0 -16.45 7.25 -19.25 7.25 M-7.1 -0.95 L-7.1 -1.35 -4.9 -1.35 M22.45 1.7 L22.45 1.65 M9.45 1.65 L20.7 1.65 M3.95 10.25 L6.2 9.75 5.85 8.3 Q5.55 6.5 5.55 4.9 M27.1 0.6 L27.1 -1.15 M-4.45 3.25 L-4.3 3.3 -4.25 3.45 M-7.1 2.35 L-7.1 1.5 -7.1 0.2 M-13.65 1.5 L-13.65 2.75 -16.6 5.1 -17.45 5.1 -17.45 1.5 M-2.45 8.3 L-3.75 7.6 M-1.7 6.25 L-2.9 5.6" fill="none" stroke="#212121" stroke-linecap="round" stroke-linejoin="round" stroke-width="1.0"/>
    <path d="M-3.35 -0.45 L-1.15 -0.45 M-17.5 -0.95 L-7.1 -0.95 M-7.1 1.5 L-13.65 1.5 -17.45 1.5 -17.5 1.5" fill="none" stroke="#828282" stroke-linecap="round" stroke-linejoin="miter-clip" stroke-miterlimit="4.0" stroke-width="1.0"/>
    <path d="M2.75 -0.45 L2.75 -1.2 8.4 -1.2 8.4 0.1 8.4 0.55 2.75 0.55 2.75 -0.45" fill="none" stroke="#202324" stroke-linecap="round" stroke-linejoin="round" stroke-width="1.0"/>
    <path d="M15.8 -0.6 L17.9 -0.6 M12.0 -0.6 L14.15 -0.6 M23.3 -0.6 L25.4 -0.6 M19.5 -0.6 L21.65 -0.6" fill="none" stroke="#191919" stroke-linecap="round" stroke-linejoin="miter-clip" stroke-miterlimit="4.0" stroke-width="1.0"/>
    <path d="M-19.25 7.25 L-20.45 6.95 Q-21.75 6.2 -21.8 4.7 L-21.8 -1.5 -17.5 -1.5 -17.5 -0.95 -17.5 0.2 -17.5 1.5 -19.2 3.2 -19.25 7.25" fill="none" stroke="#101010" stroke-linecap="round" stroke-linejoin="round" stroke-width="1.0"/>
    <path d="M16.6 4.0 L16.55 2.9 M14.9 4.6 L14.4 3.15 M13.35 5.6 L12.35 3.85 M-7.1 -0.95 L-7.1 0.2" fill="none" stroke="#212121" stroke-linecap="round" stroke-linejoin="miter-clip" stroke-miterlimit="4.0" stroke-width="1.0"/>
    <path d="M8.85 4.05 L5.35 4.9 4.3 5.15 3.55 5.35 3.2 5.4 3.2 2.9 1.0 2.9 0.2 2.9 -0.2 3.9 -0.15 4.4 0.25 5.3 -0.7 5.3 -2.1 3.95 -2.4 3.6 -2.4 1.95 -2.4 1.35 -2.3 1.2 1.4 1.2 2.75 0.55" fill="none" stroke="#2f2f2f" stroke-linecap="round" stroke-linejoin="round" stroke-width="1.0"/>
    <path d="M3.2 5.4 L0.25 5.3 M1.0 2.9 L1.4 4.15" fill="none" stroke="#2f2f2f" stroke-linecap="round" stroke-linejoin="miter-clip" stroke-miterlimit="4.0" stroke-width="1.0"/>
  </g>
</svg>
