<?xml version="1.0" encoding="UTF-8" standalone="no"?>
<svg xmlns:ffdec="https://www.free-decompiler.com/flash" xmlns:xlink="http://www.w3.org/1999/xlink" ffdec:objectType="shape" height="20.65px" width="19.1px" xmlns="http://www.w3.org/2000/svg">
  <g transform="matrix(1.0, 0.0, 0.0, 1.0, 10.8, 6.3)">
    <path d="M3.8 -3.35 L2.05 -1.0 3.65 2.5 6.55 2.95 7.8 9.55 3.2 10.45 1.55 9.55 0.6 4.5 -1.6 -1.45 2.55 -5.55 3.8 -3.35 M-10.3 1.4 L-5.65 0.5 -3.3 5.35 -3.0 12.9 -5.15 13.3 -9.25 6.65 -9.3 6.6 -10.3 1.4" fill="#152026" fill-rule="evenodd" stroke="none"/>
    <path d="M-9.05 6.95 L-6.45 7.0 -4.5 10.9 -5.45 12.85 -9.05 6.95" fill="#65bcf6" fill-rule="evenodd" stroke="none"/>
    <path d="M1.35 -4.3 L-3.15 0.05 -8.85 1.15 -7.85 -2.9 Q-7.25 -4.45 -4.1 -5.45 -1.0 -6.5 1.35 -4.3 M1.55 9.55 L3.2 10.45 Q2.75 13.75 0.45 13.85 -1.6 14.0 -3.0 12.9 L1.55 9.55" fill="#121718" fill-rule="evenodd" stroke="none"/>
    <path d="M-1.6 -1.45 L0.6 4.5 1.55 9.55 -3.0 12.9 -3.3 5.35 -5.65 0.5 -3.15 0.05 -1.6 -1.45 M6.55 2.95 L3.65 2.5 2.05 -1.0 3.8 -3.35 Q5.45 -0.25 6.55 2.9 L6.55 2.95" fill="#26353e" fill-rule="evenodd" stroke="none"/>
    <path d="M-8.9 6.95 L-5.25 12.85" fill="none" stroke="#4b89b1" stroke-linecap="round" stroke-linejoin="round" stroke-width="1.0"/>
    <path d="M3.8 -3.35 L2.55 -5.55 1.35 -4.3 -1.6 -1.45 0.6 4.5 1.55 9.55 3.2 10.45 7.8 9.55 6.55 2.95 3.65 2.5 2.05 -1.0 3.8 -3.35 Q5.45 -0.25 6.55 2.9 L6.55 2.95 M1.35 -4.3 Q-1.0 -6.5 -4.1 -5.45 -7.25 -4.45 -7.85 -2.9 L-8.85 1.15 -5.65 0.5 -3.15 0.05 -1.6 -1.45 M-8.85 1.15 L-10.3 1.4 -9.3 6.6 -9.25 6.65 -6.45 7.0 -5.25 9.1 -4.5 10.9 -5.15 13.3 -3.0 12.9 -3.3 5.35 -5.65 0.5 M1.55 9.55 L-3.0 12.9 Q-1.6 14.0 0.45 13.85 2.75 13.75 3.2 10.45" fill="none" stroke="#070a0a" stroke-linecap="round" stroke-linejoin="round" stroke-width="1.0"/>
  </g>
</svg>
