<?xml version="1.0" encoding="UTF-8" standalone="no"?>
<svg xmlns:xlink="http://www.w3.org/1999/xlink" height="7.9px" width="48.45px" xmlns="http://www.w3.org/2000/svg">
  <g transform="matrix(1.0, 0.0, 0.0, 1.0, 6.05, 3.9)">
    <path d="M4.2 -1.55 L4.2 1.55 -4.0 1.55 Q-4.65 1.55 -5.1 1.1 -5.55 0.65 -5.55 0.0 -5.55 -0.65 -5.1 -1.1 -4.65 -1.55 -4.0 -1.55 L4.2 -1.55" fill="#738aa1" fill-rule="evenodd" stroke="none"/>
    <path d="M4.2 -1.55 L-4.0 -1.55 Q-4.65 -1.55 -5.1 -1.1 -5.55 -0.65 -5.55 0.0 -5.55 0.65 -5.1 1.1 -4.65 1.55 -4.0 1.55 L4.2 1.55 4.2 -1.55 Z" fill="none" stroke="#424651" stroke-linecap="round" stroke-linejoin="round" stroke-width="1.0"/>
    <path d="M5.45 -1.9 L5.45 2.05 3.7 2.05 3.7 -1.9 5.45 -1.9" fill="#4b5975" fill-rule="evenodd" stroke="none"/>
    <path d="M5.45 -1.9 L3.7 -1.9 3.7 2.05 5.45 2.05 5.45 -1.9 Z" fill="none" stroke="#2e2d3f" stroke-linecap="round" stroke-linejoin="round" stroke-width="1.0"/>
    <path d="M-2.75 -1.4 L1.1 -2.25 1.85 -1.4 1.85 1.55 1.1 2.4 -2.75 1.55 -2.75 -1.4" fill="#cfdadd" fill-rule="evenodd" stroke="none"/>
    <path d="M-2.75 -1.4 L1.1 -2.25 1.85 -1.4 1.85 1.55 1.1 2.4 -2.75 1.55 -2.75 -1.4 Z" fill="none" stroke="#65687a" stroke-linecap="round" stroke-linejoin="round" stroke-width="1.0"/>
    <path d="M6.7 -3.9 L32.0 -2.75 Q42.4 -1.6 42.4 0.05 42.4 1.7 32.0 2.85 L6.7 4.0 5.75 4.0 5.75 -3.9 6.7 -3.9" fill="url(#gradient0)" fill-rule="evenodd" stroke="none"/>
  </g>
  <defs>
    <radialGradient cx="0" cy="0" gradientTransform="matrix(0.0442, 0.0, 0.0, 0.0049, 6.7, 0.05)" gradientUnits="userSpaceOnUse" id="gradient0" r="819.2" spreadMethod="pad">
      <stop offset="0.41568627450980394" stop-color="#ffffff"/>
      <stop offset="1.0" stop-color="#99ccff" stop-opacity="0.0"/>
    </radialGradient>
  </defs>
</svg>
