<?xml version="1.0" encoding="UTF-8" standalone="no"?>
<svg xmlns:xlink="http://www.w3.org/1999/xlink" height="26.0px" width="70.1px" xmlns="http://www.w3.org/2000/svg">
  <g transform="matrix(1.0, 0.0, 0.0, 1.0, 23.9, 12.35)">
    <path d="M32.95 -1.6 L35.8 -1.6 35.8 -1.05 37.6 -1.05 37.6 0.2 37.6 1.45 35.8 1.45 35.8 1.85 32.95 1.85 32.95 -1.6 M44.0 -1.15 L45.7 -1.15 45.7 1.35 44.0 1.35 44.0 0.15 44.0 -1.15 M35.8 1.45 L35.8 -1.05 35.8 1.45" fill="#404040" fill-rule="evenodd" stroke="none"/>
    <path d="M11.55 -6.9 L7.1 -6.9 5.55 -7.85 4.15 -7.85 2.75 -6.6 0.65 -6.6 -2.2 -9.2 0.65 -6.6 2.75 -6.6 4.15 -7.85 5.55 -7.85 7.1 -6.9 11.55 -6.9 11.45 -6.75 10.45 -5.05 5.9 -5.0 5.2 -3.9 -1.5 -3.95 -4.25 -4.0 -4.25 -7.25 -4.25 -8.35 -3.25 -8.35 -2.2 -9.2 6.7 -9.2 11.85 -7.45 11.55 -6.9 M-2.75 -6.7 L-3.25 -8.35 -2.75 -6.7 -3.3 -6.5 -3.5 -5.95 -3.3 -5.45 -2.75 -5.2 Q-2.45 -5.2 -2.25 -5.45 -2.0 -5.65 -2.0 -5.95 L-2.25 -6.5 -2.75 -6.7 M3.25 2.55 L5.5 2.9 11.25 2.9 11.25 4.3 11.25 5.05 10.35 4.8 7.55 4.55 4.6 5.55 3.25 2.55 M24.9 -3.5 L27.4 -3.5 27.4 -2.0 24.9 -2.0 24.9 -3.5 M37.6 -1.05 L37.6 -1.65 40.85 -2.15 44.0 -1.65 44.0 -1.15 44.0 0.15 44.0 1.35 44.0 1.95 40.45 2.35 37.6 1.95 37.6 1.45 37.6 0.2 37.6 -1.05 M-0.45 -5.55 L-1.05 -5.55 -0.45 -5.55 M37.6 0.2 L39.6 0.2 40.45 2.35 39.6 0.2 37.6 0.2 M44.0 0.15 L41.75 0.15 40.85 -2.15 41.75 0.15 44.0 0.15" fill="#7f0000" fill-rule="evenodd" stroke="none"/>
    <path d="M3.75 -1.75 L3.75 -0.8 3.75 -1.75 6.1 -1.75 7.55 -1.75 9.25 -2.75 10.15 -2.75 12.0 -2.75 13.0 -2.75 14.65 -2.2 14.65 -1.75 14.65 -1.4 11.25 2.9 5.5 2.9 3.25 2.55 1.05 1.9 0.2 2.2 -0.6 2.5 -3.35 3.3 -15.5 3.3 -18.35 0.2 -12.2 0.2 -12.0 0.0 -5.55 1.75 -4.65 2.0 Q-3.85 2.0 -3.3 1.4 -2.7 0.85 -2.7 0.05 -2.7 -0.75 -3.3 -1.35 -3.85 -1.9 -4.65 -1.9 L-9.95 -2.05 -8.7 -3.3 -2.05 -3.3 -0.4 -1.75 3.75 -1.75 M6.1 -0.8 L6.1 -1.75 6.1 -0.8 M12.0 -1.8 L12.0 -2.75 12.0 -1.8 M10.15 -1.8 L10.15 -2.75 10.15 -1.8 M7.1 1.65 L8.05 0.7 7.15 -0.2 8.05 0.7 7.1 1.65 M10.65 1.6 L9.75 0.7 10.6 -0.15 9.75 0.7 10.65 1.6" fill="#9b0000" fill-rule="evenodd" stroke="none"/>
    <path d="M-9.95 -2.05 L-4.65 -1.9 Q-5.45 -1.9 -6.05 -1.35 -6.6 -0.75 -6.6 0.05 -6.6 0.85 -6.05 1.4 L-5.55 1.75 -12.0 0.0 -9.95 -2.05" fill="#ce0000" fill-rule="evenodd" stroke="none"/>
    <path d="M-2.75 -6.7 L-2.25 -6.5 -2.0 -5.95 Q-2.0 -5.65 -2.25 -5.45 -2.45 -5.2 -2.75 -5.2 L-3.3 -5.45 -3.5 -5.95 -3.3 -6.5 -2.75 -6.7 M11.45 -6.75 L12.85 -6.25 12.85 -3.7 9.1 -3.7 6.8 -2.45 -0.1 -2.45 -1.5 -3.95 5.2 -3.9 5.9 -5.0 10.45 -5.05 11.45 -6.75 M-4.25 -4.0 L-5.3 -4.0 -5.3 -7.25 -4.25 -7.25 -4.25 -4.0 M12.3 4.75 L12.1 4.75 12.1 3.15 15.6 -1.3 15.6 -2.9 17.8 -2.9 19.6 -1.85 24.4 -1.85 24.65 -1.35 28.15 -1.35 28.15 -2.45 31.7 -2.45 32.95 -1.6 32.95 1.85 32.95 2.15 28.5 1.5 27.55 4.5 25.1 4.8 24.9 1.55 22.4 1.55 22.05 4.2 19.95 4.8 19.4 1.55 17.25 1.5 16.75 1.5 15.15 4.35 12.3 4.75 M-23.4 -2.35 L-20.75 -2.35 -23.4 -2.35 -23.0 -3.35 -21.25 -3.85 -9.6 -3.85 -12.5 -0.7 -18.0 -0.7 Q-19.05 -0.75 -19.25 -0.25 -19.45 0.25 -18.9 0.95 L-16.2 4.0 -12.45 4.0 -12.5 4.1 -13.6 5.45 -13.8 5.7 -16.2 5.9 -19.1 7.45 -20.2 7.15 -21.1 5.15 -21.35 2.7 -21.4 2.6 Q-21.75 1.5 -22.6 0.1 L-22.95 -0.45 -23.4 -2.35 M-20.7 0.1 L-22.6 0.1 -20.7 0.1 M-10.2 4.1 L-10.3 4.0 -3.5 4.0 Q-3.9 5.4 -3.05 6.0 L-3.15 6.1 Q-4.3 7.1 -4.55 9.2 -4.85 11.4 -6.55 13.15 L-8.8 13.15 -11.35 12.9 Q-12.05 12.35 -11.2 10.9 L-9.45 7.5 Q-8.6 5.6 -10.2 4.1 M-0.15 6.25 Q1.65 4.1 -0.25 2.75 1.45 2.6 2.65 3.25 L3.85 5.65 Q3.55 6.1 1.35 7.45 L-0.15 6.25 M-19.7 5.1 L-21.1 5.15 -19.7 5.1 M-19.95 2.7 L-21.35 2.7 -19.95 2.7 M-10.3 4.0 Q-6.7 4.5 -6.3 6.35 -9.55 9.65 -8.8 13.15 -9.55 9.65 -6.3 6.35 -6.7 4.5 -10.3 4.0 M10.35 4.8 L10.35 6.1 7.55 6.1 7.55 5.55 7.55 4.55 7.55 5.55 7.55 6.1 10.35 6.1 10.35 8.85 10.35 10.5 4.6 10.5 4.6 5.55 7.55 4.55 10.35 4.8 M6.05 7.7 L6.05 8.55 6.05 7.7 M7.55 6.1 L7.55 8.85 10.35 8.85 7.55 8.85 7.55 6.1" fill="#303030" fill-rule="evenodd" stroke="none"/>
    <path d="M32.95 2.15 L32.3 3.7 27.55 4.5 28.5 1.5 32.95 2.15 M25.1 4.8 L22.05 4.2 22.4 1.55 24.9 1.55 25.1 4.8 M19.95 4.8 L17.9 4.4 17.25 4.4 16.45 4.4 15.25 4.4 15.15 4.35 16.75 1.5 17.25 1.5 19.4 1.55 19.95 4.8" fill="#252525" fill-rule="evenodd" stroke="none"/>
    <path d="M-4.65 -1.9 Q-3.85 -1.9 -3.3 -1.35 -2.7 -0.75 -2.7 0.05 -2.7 0.85 -3.3 1.4 -3.85 2.0 -4.65 2.0 L-5.55 1.75 -6.05 1.4 Q-6.6 0.85 -6.6 0.05 -6.6 -0.75 -6.05 -1.35 -5.45 -1.9 -4.65 -1.9" fill="url(#gradient0)" fill-rule="evenodd" stroke="none"/>
    <path d="M37.6 -1.05 L37.6 -1.65 M44.0 -1.65 L44.0 -1.15 M44.0 1.35 L44.0 1.95 M37.6 1.95 L37.6 1.45 M-4.25 -4.0 L-4.25 -7.25 M11.25 5.05 L10.35 4.8" fill="none" stroke="#720000" stroke-linecap="round" stroke-linejoin="round" stroke-width="1.0"/>
    <path d="M-2.75 -6.7 L-2.25 -6.5 -2.0 -5.95 Q-2.0 -5.65 -2.25 -5.45 -2.45 -5.2 -2.75 -5.2 L-3.3 -5.45 -3.5 -5.95 -3.3 -6.5 -2.75 -6.7 M11.45 -6.75 L12.85 -6.25 12.85 -3.7 9.1 -3.7 6.8 -2.45 -0.1 -2.45 -1.5 -3.95 -4.25 -4.0 -5.3 -4.0 -5.3 -7.25 -4.25 -7.25 M12.3 4.75 L12.1 4.75 12.1 3.15 15.6 -1.3 15.6 -2.9 17.8 -2.9 19.6 -1.85 24.4 -1.85 24.65 -1.35 28.15 -1.35 28.15 -2.45 31.7 -2.45 32.95 -1.6 32.95 1.85 32.95 2.15 32.3 3.7 27.55 4.5 25.1 4.8 22.05 4.2 19.95 4.8 17.9 4.4 17.25 4.4 16.45 4.4 14.7 6.15 12.3 6.15 12.3 4.75 15.15 4.35 16.75 1.5 17.25 1.5 19.4 1.55 19.95 4.8 M-20.75 -2.35 L-23.4 -2.35 -22.95 -0.45 -22.6 0.1 -20.7 0.1 M-23.4 -2.35 L-23.0 -3.35 -21.25 -3.85 -9.6 -3.85 -12.5 -0.7 -18.0 -0.7 Q-19.05 -0.75 -19.25 -0.25 -19.45 0.25 -18.9 0.95 L-16.2 4.0 -12.45 4.0 -12.5 4.1 -10.4 4.1 -10.2 4.1 -10.3 4.0 -3.5 4.0 Q-3.9 5.4 -3.05 6.0 L-3.15 6.1 -0.15 6.25 Q1.65 4.1 -0.25 2.75 1.45 2.6 2.65 3.25 L3.85 5.65 Q3.55 6.1 1.35 7.45 L-0.15 6.25 M-1.6 5.45 Q-2.45 4.4 -2.25 3.45 M-3.15 6.1 Q-4.3 7.1 -4.55 9.2 -4.85 11.4 -6.55 13.15 L-8.8 13.15 -11.35 12.9 Q-12.05 12.35 -11.2 10.9 L-9.45 7.5 Q-8.6 5.6 -10.2 4.1 M-13.6 5.45 L-13.8 5.7 -16.2 5.9 -19.1 7.45 -20.2 7.15 -21.1 5.15 -21.35 2.7 -21.4 2.6 Q-21.75 1.5 -22.6 0.1 M-13.6 5.45 L-11.75 5.45 -10.4 4.1 M-12.5 4.1 L-13.6 5.45 M-8.8 13.15 Q-9.55 9.65 -6.3 6.35 -6.7 4.5 -10.3 4.0 M-21.35 2.7 L-19.95 2.7 M-21.1 5.15 L-19.7 5.1 M25.1 4.8 L24.9 1.55 22.4 1.55 22.05 4.2 M32.95 2.15 L28.5 1.5 27.55 4.5 M15.15 4.35 L15.25 4.4 16.45 4.4 M10.35 6.1 L10.35 4.8 7.55 4.55 7.55 5.55 7.55 6.1 10.35 6.1 10.35 8.85 10.35 10.5 4.6 10.5 4.6 5.55 7.55 4.55 M10.35 8.85 L7.55 8.85 7.55 6.1" fill="none" stroke="#1e1e1e" stroke-linecap="round" stroke-linejoin="round" stroke-width="1.0"/>
    <path d="M13.6 -6.1 L13.6 -3.7 M-6.25 -4.05 L-6.25 -7.05" fill="none" stroke="#20eaeb" stroke-linecap="round" stroke-linejoin="round" stroke-width="1.0"/>
    <path d="M32.95 -1.6 L35.8 -1.6 35.8 -1.05 37.6 -1.05 M44.0 -1.15 L45.7 -1.15 45.7 1.35 44.0 1.35 M37.6 1.45 L35.8 1.45 35.8 1.85 32.95 1.85 M35.8 -1.05 L35.8 1.45" fill="none" stroke="#303030" stroke-linecap="round" stroke-linejoin="round" stroke-width="1.0"/>
    <path d="M-4.2 -11.45 L-4.3 -11.85" fill="none" stroke="#30f5f5" stroke-linecap="round" stroke-linejoin="round" stroke-width="1.0"/>
    <path d="M-1.05 -5.55 L-0.45 -5.55" fill="none" stroke="#23e3e3" stroke-linecap="round" stroke-linejoin="round" stroke-width="1.0"/>
    <path d="M6.05 8.55 L6.05 7.7" fill="none" stroke="#179797" stroke-linecap="round" stroke-linejoin="round" stroke-width="1.0"/>
    <path d="M-3.25 -8.35 L-2.75 -6.7 M-3.25 -8.35 L-4.2 -11.45" fill="none" stroke="#000000" stroke-linecap="round" stroke-linejoin="round" stroke-opacity="0.5019608" stroke-width="0.5"/>
    <path d="M7.15 -0.2 L8.05 0.7 7.1 1.65 M10.6 -0.15 L9.75 0.7 10.65 1.6" fill="none" stroke="#cba0a0" stroke-linecap="round" stroke-linejoin="round" stroke-width="1.0"/>
    <path d="M11.55 -6.9 L11.85 -7.45 6.7 -9.2 -2.2 -9.2 -3.25 -8.35 -4.25 -8.35 -4.25 -7.25 M3.75 -0.8 L3.75 -1.75 -0.4 -1.75 -2.05 -3.3 -8.7 -3.3 -9.95 -2.05 M-12.0 0.0 L-12.2 0.2 -18.35 0.2 -15.5 3.3 -3.35 3.3 -0.6 2.5 0.2 2.2 1.05 1.9 3.25 2.55 4.6 5.55 M11.25 2.9 L14.65 -1.4 14.65 -1.75 14.65 -2.2 13.0 -2.75 12.0 -2.75 12.0 -1.8 M6.1 -1.75 L6.1 -0.8 M10.15 -2.75 L9.25 -2.75 7.55 -1.75 6.1 -1.75 3.75 -1.75 M11.45 -6.75 L10.45 -5.05 5.9 -5.0 5.2 -3.9 -1.5 -3.95 M11.55 -6.9 L11.45 -6.75 M12.0 -2.75 L10.15 -2.75 10.15 -1.8 M19.6 -1.85 L21.05 -3.5 24.9 -3.5 27.4 -3.5 27.4 -2.0 24.9 -2.0 24.9 -3.5 M37.6 -1.65 L40.85 -2.15 44.0 -1.65 M44.0 1.95 L40.45 2.35 37.6 1.95 M44.0 -1.15 L44.0 0.15 44.0 1.35 M37.6 0.2 L37.6 1.45 M11.25 5.05 L11.25 4.3 11.25 2.9 M37.6 0.2 L37.6 -1.05" fill="none" stroke="#3e0100" stroke-linecap="round" stroke-linejoin="round" stroke-width="1.0"/>
    <path d="M-9.95 -2.05 L-4.65 -1.9 Q-3.85 -1.9 -3.3 -1.35 -2.7 -0.75 -2.7 0.05 -2.7 0.85 -3.3 1.4 -3.85 2.0 -4.65 2.0 L-5.55 1.75 -12.0 0.0 -9.95 -2.05 M-5.55 1.75 L-6.05 1.4 Q-6.6 0.85 -6.6 0.05 -6.6 -0.75 -6.05 -1.35 -5.45 -1.9 -4.65 -1.9" fill="none" stroke="#7e0000" stroke-linecap="round" stroke-linejoin="round" stroke-width="1.0"/>
    <path d="M-2.2 -9.2 L0.65 -6.6 2.75 -6.6 4.15 -7.85 5.55 -7.85 7.1 -6.9 11.55 -6.9 M3.25 2.55 L5.5 2.9 11.25 2.9 M40.85 -2.15 L41.75 0.15 44.0 0.15 M40.45 2.35 L39.6 0.2 37.6 0.2" fill="none" stroke="#5f0000" stroke-linecap="round" stroke-linejoin="round" stroke-width="1.0"/>
    <path d="M26.5 5.6 L31.15 6.5 31.65 7.3 32.3 8.3 34.25 8.3 34.25 9.5 30.6 9.5 28.85 7.65 26.25 7.65 25.7 9.5 21.7 9.5 21.7 8.2 23.65 8.2 23.6 6.65 25.3 6.05 26.5 5.6" fill="#303030" fill-rule="evenodd" stroke="none"/>
    <path d="M23.6 6.65 L23.4 5.9 23.35 5.45 Q24.35 5.0 25.3 4.5 L26.5 5.6 25.3 6.05 23.6 6.65" fill="#ce0000" fill-rule="evenodd" stroke="none"/>
    <path d="M26.5 5.6 L31.15 6.5 31.65 7.3 32.3 8.3 34.25 8.3 34.25 9.5 30.6 9.5 28.85 7.65 26.25 7.65 25.7 9.5 21.7 9.5 21.7 8.2 23.65 8.2 23.6 6.65" fill="none" stroke="#1e1e1e" stroke-linecap="round" stroke-linejoin="round" stroke-width="1.0"/>
    <path d="M23.6 6.65 L23.4 5.9 23.35 5.45 Q24.35 5.0 25.3 4.5 L26.5 5.6 25.3 6.05 23.6 6.65 Z" fill="none" stroke="#4f1515" stroke-linecap="round" stroke-linejoin="round" stroke-width="1.0"/>
  </g>
  <defs>
    <radialGradient cx="0" cy="0" gradientTransform="matrix(0.0021, 0.0, 0.0, 0.0021, -4.65, 0.05)" gradientUnits="userSpaceOnUse" id="gradient0" r="819.2" spreadMethod="pad">
      <stop offset="0.47058823529411764" stop-color="#303030" stop-opacity="0.96862745"/>
      <stop offset="0.6235294117647059" stop-color="#2de1e1" stop-opacity="0.96862745"/>
      <stop offset="0.788235294117647" stop-color="#2de1e1" stop-opacity="0.96862745"/>
      <stop offset="1.0" stop-color="#ce0000"/>
    </radialGradient>
  </defs>
</svg>
