<?xml version="1.0" encoding="UTF-8" standalone="no"?>
<svg xmlns:ffdec="https://www.free-decompiler.com/flash" xmlns:xlink="http://www.w3.org/1999/xlink" ffdec:objectType="shape" height="20.85px" width="17.6px" xmlns="http://www.w3.org/2000/svg">
  <g transform="matrix(1.0, 0.0, 0.0, 1.0, 1.1, 0.15)">
    <path d="M4.75 17.1 L3.05 4.15 Q2.8 2.75 3.7 1.55 6.1 -0.55 10.2 0.95 12.55 1.8 12.75 4.05 L12.25 17.1 Q11.9 18.75 10.65 19.55 L6.8 19.4 Q5.25 18.7 4.75 17.1" fill="#1e1e1e" fill-rule="evenodd" stroke="none"/>
    <path d="M4.75 17.1 L3.05 4.15 Q2.8 2.75 3.7 1.55 6.1 -0.55 10.2 0.95 12.55 1.8 12.75 4.05 L12.25 17.1 Q11.9 18.75 10.65 19.55 L6.8 19.4 Q5.25 18.7 4.75 17.1 Z" fill="none" stroke="#070707" stroke-linecap="round" stroke-linejoin="round" stroke-width="1.0"/>
    <path d="M7.15 5.8 Q8.05 6.55 7.45 8.1 L4.45 8.1 Q3.6 7.15 4.1 5.8 L7.15 5.8" fill="url(#gradient0)" fill-rule="evenodd" stroke="none"/>
    <path d="M7.45 10.15 Q8.25 10.8 8.3 12.15 L4.5 13.75 Q4.05 12.55 4.9 10.75 L7.45 10.15" fill="url(#gradient1)" fill-rule="evenodd" stroke="none"/>
    <path d="M4.5 13.75 L2.85 14.9 2.55 14.5 Q3.0 11.55 0.8 8.6 1.65 7.05 1.0 4.8 L-0.6 1.8 Q2.2 3.6 4.1 2.75 L4.1 5.8 Q3.6 7.15 4.45 8.1 L4.9 10.75 Q4.05 12.55 4.5 13.75" fill="url(#gradient2)" fill-rule="evenodd" stroke="none"/>
    <path d="M14.0 8.55 L13.1 9.2 10.85 7.65 11.5 4.35 13.7 2.45 16.0 0.45 Q14.85 4.25 15.25 7.75 L14.0 8.55" fill="url(#gradient3)" fill-rule="evenodd" stroke="none"/>
    <path d="M7.15 5.8 L7.8 3.6 Q10.85 2.55 13.15 0.4 L13.7 2.45 11.5 4.35 10.85 7.65 13.1 9.2 14.0 8.55 Q13.95 13.75 11.85 19.9 8.55 20.7 6.6 19.3 L9.45 16.95 9.45 13.75 8.3 12.15 Q8.25 10.8 7.45 10.15 L7.45 8.1 Q8.05 6.55 7.15 5.8 M11.7 11.0 L10.85 9.5 11.7 11.0 M11.55 13.3 L9.25 9.05 11.55 13.3" fill="url(#gradient4)" fill-rule="evenodd" stroke="none"/>
    <path d="M13.7 2.45 L13.15 0.4 Q10.85 2.55 7.8 3.6 L7.15 5.8 Q8.05 6.55 7.45 8.1 L7.45 10.15 Q8.25 10.8 8.3 12.15 L9.45 13.75 9.45 16.95 6.6 19.3 Q8.55 20.7 11.85 19.9 13.95 13.75 14.0 8.55 L13.1 9.2 10.85 7.65 11.5 4.35 13.7 2.45 16.0 0.45 Q14.85 4.25 15.25 7.75 L14.0 8.55 M4.1 5.8 L4.1 2.75 Q2.2 3.6 -0.6 1.8 L1.0 4.8 Q1.65 7.05 0.8 8.6 3.0 11.55 2.55 14.5 L2.85 14.9 4.5 13.75 Q4.05 12.55 4.9 10.75 L4.45 8.1 Q3.6 7.15 4.1 5.8 L7.15 5.8 M4.45 8.1 L7.45 8.1 M4.9 10.75 L7.45 10.15 M4.5 13.75 L8.3 12.15" fill="none" stroke="#353532" stroke-linecap="round" stroke-linejoin="round" stroke-width="1.0"/>
    <path d="M10.85 9.5 L11.7 11.0 M9.25 9.05 L11.55 13.3" fill="none" stroke="#53534e" stroke-linecap="round" stroke-linejoin="round" stroke-width="1.0"/>
  </g>
  <defs>
    <radialGradient cx="0" cy="0" gradientTransform="matrix(0.005, 0.0, 0.0, 0.005, 9.8, 7.4)" gradientUnits="userSpaceOnUse" id="gradient0" r="819.2" spreadMethod="pad">
      <stop offset="0.0" stop-color="#afafa0"/>
      <stop offset="1.0" stop-color="#66665d"/>
    </radialGradient>
    <radialGradient cx="0" cy="0" gradientTransform="matrix(0.0048, 0.0, 0.0, 0.0048, 9.55, 9.25)" gradientUnits="userSpaceOnUse" id="gradient1" r="819.2" spreadMethod="pad">
      <stop offset="0.0" stop-color="#afafa0"/>
      <stop offset="1.0" stop-color="#66665d"/>
    </radialGradient>
    <radialGradient cx="0" cy="0" gradientTransform="matrix(0.0093, 0.0, 0.0, 0.0093, -1.15, 6.0)" gradientUnits="userSpaceOnUse" id="gradient2" r="819.2" spreadMethod="pad">
      <stop offset="0.0" stop-color="#afafa0"/>
      <stop offset="1.0" stop-color="#66665d"/>
    </radialGradient>
    <radialGradient cx="0" cy="0" gradientTransform="matrix(0.0088, 0.0, 0.0, 0.0088, 16.7, 1.5)" gradientUnits="userSpaceOnUse" id="gradient3" r="819.2" spreadMethod="pad">
      <stop offset="0.0" stop-color="#afafa0"/>
      <stop offset="1.0" stop-color="#66665d"/>
    </radialGradient>
    <radialGradient cx="0" cy="0" gradientTransform="matrix(0.0078, 0.0, 0.0, 0.0145, 15.05, 9.25)" gradientUnits="userSpaceOnUse" id="gradient4" r="819.2" spreadMethod="pad">
      <stop offset="0.0" stop-color="#afafa0"/>
      <stop offset="1.0" stop-color="#66665d"/>
    </radialGradient>
  </defs>
</svg>
