<?xml version="1.0" encoding="UTF-8" standalone="no"?>
<svg xmlns:ffdec="https://www.free-decompiler.com/flash" xmlns:xlink="http://www.w3.org/1999/xlink" ffdec:objectType="shape" height="22.0px" width="13.2px" xmlns="http://www.w3.org/2000/svg">
  <g transform="matrix(1.0, 0.0, 0.0, 1.0, -0.1, 2.45)">
    <path d="M6.3 3.05 L2.8 -0.85 4.2 -1.5 4.3 -1.55 4.4 -1.6 4.6 -1.65 6.0 0.45 8.65 0.3 8.65 -1.65 Q11.0 -1.05 11.25 -0.35 L11.25 0.0 Q11.25 0.55 11.6 1.3 L12.35 3.0 Q12.85 4.1 12.8 5.3 L10.2 7.4 10.2 3.5 8.8 4.0 7.5 4.4 6.3 3.05 8.8 3.4 8.8 4.0 8.8 3.4 6.3 3.05 M6.65 19.05 L4.2 18.45 4.9 14.7 5.6 16.25 5.6 16.3 8.35 15.95 9.1 16.6 6.65 19.05 M7.85 17.3 Q6.2 17.65 5.55 16.25 L5.6 16.25 5.55 16.25 Q6.2 17.65 7.85 17.3" fill="#6d6d6d" fill-rule="evenodd" stroke="none"/>
    <path d="M4.25 13.15 L6.3 11.9 6.3 10.15 6.3 7.45 7.45 6.55 8.25 7.95 9.0 9.25 10.15 11.95 7.6 14.05 7.6 14.15 7.6 15.35 7.9 15.6 8.35 15.95 5.6 16.3 5.6 16.25 7.9 15.6 5.6 16.25 4.9 14.7 4.4 13.45 4.25 13.15 M4.6 -1.65 Q6.25 -2.25 8.55 -1.65 L8.65 -1.65 8.65 0.3 6.0 0.45 4.6 -1.65 M6.3 10.15 L8.0 9.85 8.25 7.95 8.0 9.85 6.3 10.15 M7.6 14.15 L4.4 13.45 7.6 14.15" fill="#3f3f3f" fill-rule="evenodd" stroke="none"/>
    <path d="M2.5 14.2 L4.05 13.3 4.25 13.15 4.4 13.45 4.05 13.3 4.4 13.45 4.9 14.7 4.2 18.45 2.8 17.45 2.6 15.3 2.5 14.2 M12.8 5.3 L12.25 7.5 Q12.75 8.7 12.6 9.8 L10.15 11.95 9.0 9.25 8.25 7.95 7.45 6.55 8.55 5.6 8.25 7.95 8.55 5.6 7.5 4.4 8.8 4.0 10.2 3.5 10.2 7.4 12.8 5.3 M8.8 4.0 L8.8 4.55 8.55 5.6 8.8 4.55 8.8 4.0" fill="#4d4d4d" fill-rule="evenodd" stroke="none"/>
    <path d="M1.9 -0.3 L2.0 -0.35 2.65 -0.75 2.8 -0.85 6.3 3.05 3.2 3.4 3.2 4.55 4.15 9.05 4.7 9.85 6.3 10.15 4.7 9.85 4.15 9.05 3.2 4.55 3.2 3.4 6.3 3.05 7.5 4.4 8.55 5.6 7.45 6.55 6.3 7.45 6.3 10.15 6.3 11.9 4.25 13.15 4.05 13.3 2.5 14.2 1.9 11.95 Q1.1 8.4 1.25 7.75 1.8 5.95 1.0 4.55 L0.85 4.3 Q0.3 3.4 1.0 2.1 1.1 0.3 1.9 -0.3 M12.6 9.8 L12.45 10.55 12.35 10.75 12.2 11.1 12.2 11.15 12.15 11.2 11.95 11.7 11.75 12.35 11.85 12.9 11.6 13.65 Q11.4 14.25 11.3 16.0 11.25 17.5 10.6 18.3 9.3 19.0 6.65 19.05 L9.1 16.6 8.35 15.95 7.9 15.6 9.35 15.15 Q8.7 14.55 7.6 14.15 8.7 14.55 9.35 15.15 L7.9 15.6 7.6 15.35 7.6 14.15 7.6 14.05 10.15 11.95 12.6 9.8 M4.0 5.6 L8.55 5.6 4.0 5.6" fill="#808080" fill-rule="evenodd" stroke="none"/>
    <path d="M1.9 -0.3 Q1.1 0.3 1.0 2.1 0.3 3.4 0.85 4.3 L1.0 4.55 Q1.8 5.95 1.25 7.75 1.1 8.4 1.9 11.95 L2.5 14.2 2.6 15.3 2.8 17.45 4.2 18.45 6.65 19.05 Q9.3 19.0 10.6 18.3 11.25 17.5 11.3 16.0 11.4 14.25 11.6 13.65 L11.85 12.9 Q12.0 12.25 11.8 12.1 L11.95 11.7 12.15 11.2 12.2 11.15 12.2 11.1 12.35 10.75 12.45 10.55 12.6 9.8 Q12.75 8.7 12.25 7.5 L12.8 5.3 Q12.85 4.1 12.35 3.0 L11.6 1.3 Q11.25 0.55 11.25 0.0 L11.25 -0.35 Q11.0 -1.05 8.65 -1.65 L8.55 -1.65 Q6.25 -2.25 4.6 -1.65 L4.4 -1.6 4.3 -1.55 4.2 -1.5 2.8 -0.85 M6.3 10.15 L4.7 9.85 4.15 9.05 3.2 4.55 3.2 3.4 6.3 3.05 8.8 3.4 8.8 4.0 8.8 4.55 8.55 5.6 4.0 5.6 M2.65 -0.75 L2.0 -0.35 M11.75 12.35 L11.8 12.1 M11.75 12.35 L11.85 12.9 M8.25 7.95 L8.55 5.6 M8.25 7.95 L8.0 9.85 6.3 10.15" fill="none" stroke="#252525" stroke-linecap="round" stroke-linejoin="round" stroke-width="1.0"/>
    <path d="M7.6 14.15 Q8.7 14.55 9.35 15.15 L7.9 15.6 5.6 16.25 5.55 16.25 Q6.2 17.65 7.85 17.3 M4.05 13.3 L4.4 13.45 7.6 14.15" ffdec:has-small-stroke="true" ffdec:original-stroke-width="0.8" fill="none" stroke="#252525" stroke-linecap="round" stroke-linejoin="round" stroke-width="1.0"/>
  </g>
</svg>
