<?xml version="1.0" encoding="UTF-8" standalone="no"?>
<svg xmlns:xlink="http://www.w3.org/1999/xlink" height="20.2px" width="48.9px" xmlns="http://www.w3.org/2000/svg">
  <g transform="matrix(1.0, 0.0, 0.0, 1.0, 15.25, 9.1)">
    <path d="M-12.35 8.0 Q-13.5 8.0 -13.85 7.2 -13.6 3.95 -14.75 -0.4 -14.4 -1.4 -12.95 -2.4 L-12.7 -0.35 Q-11.75 4.2 -12.35 8.0" fill="#1c1710" fill-rule="evenodd" stroke="none"/>
    <path d="M-12.95 -2.4 L-10.95 -2.2 -10.75 -0.9 -12.7 -0.35 -12.95 -2.4" fill="#28201d" fill-rule="evenodd" stroke="none"/>
    <path d="M9.25 -8.0 L9.85 -8.5 10.75 -8.5 11.45 -7.9 11.65 -6.6 12.15 -5.5 13.45 -5.6 17.15 -5.45 16.85 -3.15 9.25 -3.8 9.25 -8.0 M10.85 -5.7 L10.55 -5.7 10.85 -5.7" fill="#392e2c" fill-rule="evenodd" stroke="none"/>
    <path d="M5.15 -3.5 L7.45 -3.5 9.25 -3.8 16.85 -3.15 16.7 -2.0 16.55 -1.2 6.65 -1.2 4.05 -1.4 5.15 -3.5 M6.65 -1.2 L7.45 -3.5 6.65 -1.2" fill="#392e2a" fill-rule="evenodd" stroke="none"/>
    <path d="M17.15 -5.45 L22.15 -5.3 23.05 -4.3 25.1 -2.1 25.35 -1.8 24.8 -1.55 24.25 -1.3 22.15 -1.2 21.95 -0.2 20.35 -0.3 Q19.7 -2.4 16.7 -2.0 L16.85 -3.15 17.15 -5.45 M18.45 -4.1 L18.15 -4.1 18.45 -4.1 M21.65 -4.2 L21.35 -4.2 21.65 -4.2 M21.15 -1.8 L20.85 -1.8 21.15 -1.8 M23.05 -2.5 L22.65 -2.5 23.05 -2.5" fill="#3b302e" fill-rule="evenodd" stroke="none"/>
    <path d="M-5.55 -3.7 L-6.35 -3.9 Q-6.85 -4.5 -6.75 -6.25 -6.7 -8.0 -6.05 -8.2 L-4.65 -8.2 -2.1 -8.2 -0.8 -8.2 0.45 -8.2 1.45 -8.6 5.05 -8.6 5.95 -8.0 9.25 -8.0 9.25 -3.8 7.45 -3.5 5.15 -3.5 -0.45 -3.65 Q-1.4 -5.05 -0.8 -8.2 -1.4 -5.05 -0.45 -3.65 L-2.75 -3.4 -4.85 -3.6 -5.55 -3.7 M11.45 -7.9 L13.05 -7.9 13.65 -7.4 13.45 -5.6 12.15 -5.5 11.65 -6.6 11.45 -7.9 M-4.65 -8.2 Q-5.7 -5.9 -4.85 -3.6 -5.7 -5.9 -4.65 -8.2 M0.45 -4.5 L1.25 -7.4 0.45 -4.5 M3.15 -4.4 L4.2 -7.6 3.15 -4.4 M1.75 -4.4 L2.8 -7.7 1.75 -4.4 M4.45 -4.4 L5.35 -7.2 4.45 -4.4 M-2.75 -3.4 L-2.1 -8.2 -2.75 -3.4" fill="#453832" fill-rule="evenodd" stroke="none"/>
    <path d="M23.05 -4.3 L26.75 -4.0 26.75 -2.6 25.1 -2.1 23.05 -4.3 M28.4 -0.95 L31.75 -0.95 31.75 -1.25 33.15 -1.25 33.15 0.6 31.75 0.6 31.75 0.3 28.75 0.3 28.4 -0.95 M31.75 -0.95 L31.75 0.3 31.75 -0.95" fill="#4b4642" fill-rule="evenodd" stroke="none"/>
    <path d="M16.35 1.6 L15.05 2.7 12.95 2.8 11.85 1.7 9.45 1.6 8.55 2.7 8.85 4.9 9.05 5.3 9.55 6.3 3.85 9.0 3.15 9.6 1.65 10.6 -3.4 8.7 -5.45 8.7 -7.25 9.05 -1.05 0.9 Q0.0 -0.55 3.55 0.0 L4.05 -1.4 6.65 -1.2 16.55 -1.2 16.7 -2.0 Q19.7 -2.4 20.35 -0.3 L21.95 -0.2 22.15 -1.2 24.25 -1.3 24.8 -1.55 24.05 0.2 18.05 0.3 16.35 1.6 M3.55 0.0 L5.95 0.1 6.65 -1.2 5.95 0.1 3.55 0.0 M15.75 -0.3 L15.15 -0.3 15.75 -0.3 M-2.0 6.55 L0.5 7.25 0.85 5.6 1.75 5.1 1.85 3.7 0.15 3.7 -1.35 4.3 -2.0 6.55 M0.3 2.5 L-0.7 2.5 0.3 2.5 M1.65 10.6 L3.05 2.5 8.55 2.7 3.05 2.5 1.65 10.6 M5.45 3.95 L4.3 3.95 5.45 3.95 M3.15 9.6 L3.35 8.0 9.05 5.3 3.35 8.0 3.15 9.6" fill="#272121" fill-rule="evenodd" stroke="none"/>
    <path d="M-7.25 9.05 L-10.95 8.0 Q-9.6 7.9 -8.35 7.15 -7.15 6.35 -5.15 4.2 L-1.85 0.1 Q-0.65 -1.45 1.35 -1.5 L4.05 -1.4 3.55 0.0 Q0.0 -0.55 -1.05 0.9 L-7.25 9.05" fill="#2f2523" fill-rule="evenodd" stroke="none"/>
    <path d="M25.35 -1.8 L28.15 -1.7 28.4 -0.95 28.75 0.3 29.05 1.4 16.35 1.6 18.05 0.3 24.05 0.2 24.8 -1.55 25.35 -1.8 M26.85 -0.1 L26.85 -0.4 26.85 -0.1 M25.55 -0.1 L25.65 -0.6 25.55 -0.1" fill="#1b1517" fill-rule="evenodd" stroke="none"/>
    <path d="M-2.5 -0.55 L-2.45 -1.5 -1.45 -1.6 -1.65 -0.7 -2.5 -0.55 M-9.15 -1.0 L-3.55 -1.4 -3.95 0.7 -9.45 0.8 -9.15 -1.0" fill="#141414" fill-rule="evenodd" stroke="none"/>
    <path d="M-10.95 8.0 L-12.35 8.0 Q-11.75 4.2 -12.7 -0.35 L-10.75 -0.9 -10.95 -2.2 -9.45 -2.15 Q-6.95 -2.3 -5.55 -3.7 L-4.85 -3.6 -2.75 -3.4 -0.45 -3.65 5.15 -3.5 4.05 -1.4 1.35 -1.5 Q-0.65 -1.45 -1.85 0.1 L-5.15 4.2 Q-7.15 6.35 -8.35 7.15 -9.6 7.9 -10.95 8.0 M-2.5 -0.55 L-1.65 -0.7 -1.45 -1.6 -2.45 -1.5 -2.5 -0.55 M-9.15 -1.0 L-9.45 0.8 -3.95 0.7 -3.55 -1.4 -9.15 -1.0" fill="url(#gradient0)" fill-rule="evenodd" stroke="none"/>
    <path d="M12.95 2.8 L11.85 1.7 M25.65 -0.6 L25.55 -0.1 M26.85 -0.4 L26.85 -0.1 M-9.15 -1.0 L-9.45 0.8 -3.95 0.7 -3.55 -1.4 -9.15 -1.0" fill="none" stroke="#000000" stroke-linecap="round" stroke-linejoin="round" stroke-width="1.0"/>
    <path d="M-4.85 -3.6 Q-5.7 -5.9 -4.65 -8.2 M-0.45 -3.65 Q-1.4 -5.05 -0.8 -8.2 M-2.1 -8.2 L-2.75 -3.4" fill="none" stroke="#29211e" stroke-linecap="round" stroke-linejoin="round" stroke-width="1.0"/>
    <path d="M-12.7 -0.35 L-10.75 -0.9 -10.95 -2.2" fill="none" stroke="#1e1613" stroke-linecap="round" stroke-linejoin="round" stroke-width="1.0"/>
    <path d="M18.15 -4.1 L18.45 -4.1 M21.35 -4.2 L21.65 -4.2 M20.85 -1.8 L21.15 -1.8 M22.65 -2.5 L23.05 -2.5" fill="none" stroke="#281e1c" stroke-linecap="round" stroke-linejoin="round" stroke-width="1.0"/>
    <path d="M10.55 -5.7 L10.85 -5.7" fill="none" stroke="#291f1d" stroke-linecap="round" stroke-linejoin="round" stroke-width="1.0"/>
    <path d="M-12.95 -2.4 L-10.95 -2.2 -9.45 -2.15" fill="none" stroke="#191412" stroke-linecap="round" stroke-linejoin="round" stroke-width="1.0"/>
    <path d="M-5.55 -3.7 L-6.35 -3.9 Q-6.85 -4.5 -6.75 -6.25 -6.7 -8.0 -6.05 -8.2 L-4.65 -8.2 -2.1 -8.2 -0.8 -8.2 0.45 -8.2 1.45 -8.6 5.05 -8.6 5.95 -8.0 9.25 -8.0 M11.45 -7.9 L13.05 -7.9 13.65 -7.4 13.45 -5.6 M9.05 5.3 L9.55 6.3 3.85 9.0" fill="none" stroke="#271d1c" stroke-linecap="round" stroke-linejoin="round" stroke-width="1.0"/>
    <path d="M9.25 -8.0 L9.85 -8.5 10.75 -8.5 11.45 -7.9 11.65 -6.6 12.15 -5.5 13.45 -5.6 17.15 -5.45 M-5.55 -3.7 L-4.85 -3.6 -2.75 -3.4 -0.45 -3.65 5.15 -3.5 7.45 -3.5 9.25 -3.8 9.25 -8.0 M7.45 -3.5 L6.65 -1.2 M16.85 -3.15 L9.25 -3.8 M5.15 -3.5 L4.05 -1.4" fill="none" stroke="#231c1b" stroke-linecap="round" stroke-linejoin="round" stroke-width="1.0"/>
    <path d="M17.15 -5.45 L22.15 -5.3 23.05 -4.3 25.1 -2.1 25.35 -1.8 24.8 -1.55 24.25 -1.3 22.15 -1.2 21.95 -0.2 20.35 -0.3 Q19.7 -2.4 16.7 -2.0 L16.85 -3.15 17.15 -5.45 M15.15 -0.3 L15.75 -0.3" fill="none" stroke="#1e1817" stroke-linecap="round" stroke-linejoin="round" stroke-width="1.0"/>
    <path d="M23.05 -4.3 L26.75 -4.0 26.75 -2.6 25.1 -2.1 M28.4 -0.95 L31.75 -0.95 31.75 -1.25 33.15 -1.25 33.15 0.6 31.75 0.6 31.75 0.3 28.75 0.3 M31.75 0.3 L31.75 -0.95" fill="none" stroke="#2c2826" stroke-linecap="round" stroke-linejoin="round" stroke-width="1.0"/>
    <path d="M-9.45 -2.15 Q-6.95 -2.3 -5.55 -3.7" fill="none" stroke="#1e1816" stroke-linecap="round" stroke-linejoin="round" stroke-width="1.0"/>
    <path d="M-7.25 9.05 L-10.95 8.0 -12.35 8.0 M6.65 -1.2 L16.55 -1.2 16.7 -2.0 M4.05 -1.4 L6.65 -1.2 5.95 0.1 3.55 0.0 Q0.0 -0.55 -1.05 0.9 L-7.25 9.05 M4.05 -1.4 L3.55 0.0 M-2.5 -0.55 L-2.45 -1.5 -1.45 -1.6 -1.65 -0.7 -2.5 -0.55" fill="none" stroke="#231b1a" stroke-linecap="round" stroke-linejoin="round" stroke-width="1.0"/>
    <path d="M-12.35 8.0 Q-13.5 8.0 -13.85 7.2 -13.6 3.95 -14.75 -0.4 -14.4 -1.4 -12.95 -2.4 L-12.7 -0.35 Q-11.75 4.2 -12.35 8.0" fill="none" stroke="#100d08" stroke-linecap="round" stroke-linejoin="round" stroke-width="1.0"/>
    <path d="M16.35 1.6 L15.05 2.7 12.95 2.8 M11.85 1.7 L9.45 1.6 8.55 2.7 8.85 4.9 9.05 5.3 M3.85 9.0 L3.15 9.6 1.65 10.6 -3.4 8.7 -5.45 8.7 -7.25 9.05 M-2.0 6.55 L0.5 7.25 0.85 5.6 1.75 5.1 1.85 3.7 0.15 3.7 -1.35 4.3 -2.0 6.55" fill="none" stroke="#100d0d" stroke-linecap="round" stroke-linejoin="round" stroke-width="1.0"/>
    <path d="M9.05 5.3 L3.35 8.0 3.15 9.6 M4.3 3.95 L5.45 3.95 M8.55 2.7 L3.05 2.5 1.65 10.6 M-0.7 2.5 L0.3 2.5" fill="none" stroke="#1e1818" stroke-linecap="round" stroke-linejoin="round" stroke-width="1.0"/>
    <path d="M25.35 -1.8 L28.15 -1.7 28.4 -0.95 28.75 0.3 29.05 1.4 16.35 1.6 18.05 0.3 24.05 0.2 24.8 -1.55" fill="none" stroke="#100c0d" stroke-linecap="round" stroke-linejoin="round" stroke-width="1.0"/>
    <path d="M5.35 -7.2 L4.45 -4.4 M2.8 -7.7 L1.75 -4.4 M4.2 -7.6 L3.15 -4.4 M1.25 -7.4 L0.45 -4.5" fill="none" stroke="#382d29" stroke-linecap="round" stroke-linejoin="round" stroke-width="1.0"/>
  </g>
  <defs>
    <linearGradient gradientTransform="matrix(0.0038, 0.0, 0.0, 0.0071, -8.65, 3.25)" gradientUnits="userSpaceOnUse" id="gradient0" spreadMethod="pad" x1="-819.2" x2="819.2">
      <stop offset="0.0" stop-color="#28201d"/>
      <stop offset="1.0" stop-color="#392e2a"/>
    </linearGradient>
  </defs>
</svg>
