<?xml version="1.0" encoding="UTF-8" standalone="no"?>
<svg xmlns:ffdec="https://www.free-decompiler.com/flash" xmlns:xlink="http://www.w3.org/1999/xlink" ffdec:objectType="shape" height="22.7px" width="16.25px" xmlns="http://www.w3.org/2000/svg">
  <g transform="matrix(1.0, 0.0, 0.0, 1.0, 8.7, 6.35)">
    <path d="M5.15 0.9 L3.9 12.9 2.45 15.9 1.0 15.25 -2.2 15.1 -3.35 6.6 0.7 -0.05 0.75 -3.9 4.15 -5.25 5.15 0.9" fill="#0f152e" fill-rule="evenodd" stroke="none"/>
    <path d="M5.15 0.9 L3.9 12.9 2.45 15.9 1.0 15.25 -2.2 15.1 -3.35 6.6 0.7 -0.05 0.75 -3.9 4.15 -5.25 5.15 0.9 Z" fill="none" stroke="#080b1a" stroke-linecap="round" stroke-linejoin="round" stroke-width="0.9500000000000001"/>
    <path d="M-2.35 4.95 L0.0 5.2 2.15 8.9 2.25 15.35 -2.2 15.1 -3.35 6.6 -2.35 4.95" fill="#282828" fill-rule="evenodd" stroke="none"/>
    <path d="M-2.35 4.95 L0.0 5.2 2.15 8.9 2.25 15.35 -2.2 15.1 -3.35 6.6 -2.35 4.95 Z" fill="none" stroke="#121212" stroke-linecap="round" stroke-linejoin="round" stroke-width="0.9500000000000001"/>
    <path d="M-6.95 -5.9 L-0.45 -5.9 0.7 -0.05 -3.35 6.6 -4.6 2.05 -8.25 -1.05 -6.95 -5.9" fill="#282828" fill-rule="evenodd" stroke="none"/>
    <path d="M-6.95 -5.9 L-8.25 -1.05 -4.6 2.05 -3.35 6.6 0.7 -0.05 -0.45 -5.9 -6.95 -5.9 Z" fill="none" stroke="#121212" stroke-linecap="round" stroke-linejoin="round" stroke-width="0.9500000000000001"/>
    <path d="M-4.6 2.05 L-3.35 6.6 -1.85 15.15 -4.7 13.75 -7.9 2.3 -6.9 0.0 -4.6 2.05" fill="#282828" fill-rule="evenodd" stroke="none"/>
    <path d="M-4.6 2.05 L-6.9 0.0 -7.9 2.3 -4.7 13.75 -1.85 15.15 -3.35 6.6 -4.6 2.05 Z" fill="none" stroke="#121212" stroke-linecap="round" stroke-linejoin="round" stroke-width="0.9500000000000001"/>
    <path d="M-0.35 -5.45 L4.15 -5.8 6.6 -3.6 5.5 -3.0 0.35 -1.7 -0.35 -5.45" fill="#1c1c1c" fill-rule="evenodd" stroke="none"/>
    <path d="M-0.35 -5.45 L4.15 -5.8 6.6 -3.6 5.5 -3.0 0.35 -1.7 -0.35 -5.45 Z" fill="none" stroke="#121212" stroke-linecap="round" stroke-linejoin="round" stroke-width="0.9500000000000001"/>
    <path d="M4.45 6.45 L2.9 6.0 -0.15 1.3 0.7 -0.05 0.35 -1.7 5.9 -3.1 6.5 -3.55 Q7.05 -3.75 7.1 -2.3 7.15 0.75 4.45 6.45" fill="#282828" fill-rule="evenodd" stroke="none"/>
    <path d="M4.45 6.45 L2.9 6.0 -0.15 1.3 0.7 -0.05 0.35 -1.7 5.9 -3.1 6.5 -3.55 Q7.05 -3.75 7.1 -2.3 7.15 0.75 4.45 6.45 Z" fill="none" stroke="#121212" stroke-linecap="round" stroke-linejoin="round" stroke-width="0.9500000000000001"/>
    <path d="M-5.7 -3.9 L-6.35 -1.95" fill="none" stroke="#121212" stroke-linecap="round" stroke-linejoin="round" stroke-width="0.9500000000000001"/>
  </g>
</svg>
