<?xml version="1.0" encoding="UTF-8" standalone="no"?>
<svg xmlns:ffdec="https://www.free-decompiler.com/flash" xmlns:xlink="http://www.w3.org/1999/xlink" ffdec:objectType="shape" height="22.0px" width="13.35px" xmlns="http://www.w3.org/2000/svg">
  <g transform="matrix(1.0, 0.0, 0.0, 1.0, 0.5, 0.5)">
    <path d="M12.2 7.4 L11.65 9.45 12.0 10.8 9.5 10.3 9.7 8.35 10.05 5.5 12.2 7.4 M0.85 7.85 L0.4 6.5 0.25 6.25 Q-0.25 5.4 0.35 4.2 L1.6 5.9 2.8 7.2 0.85 7.85" fill="#afafaf" fill-rule="evenodd" stroke="none"/>
    <path d="M11.4 13.5 L11.35 13.65 11.15 14.3 11.25 14.85 11.05 15.45 11.0 15.6 10.75 17.5 8.65 18.4 8.55 16.65 9.8 15.45 7.4 13.8 7.8 12.6 11.4 13.5 M1.75 15.5 L1.3 13.9 0.95 12.3 2.5 12.1 2.5 10.65 5.25 9.75 5.25 7.65 6.55 6.7 9.7 8.35 9.5 10.3 9.35 11.25 8.15 11.4 4.1 11.9 4.1 13.95 2.95 14.75 1.75 15.5 M2.3 1.1 L3.6 0.45 3.7 0.4 3.8 0.35 4.0 0.3 7.4 0.2 5.85 1.8 4.05 2.5 2.3 1.1" fill="#aaaaaa" fill-rule="evenodd" stroke="none"/>
    <path d="M10.75 17.5 L10.7 17.95 Q10.65 19.45 10.0 20.25 L9.65 20.45 8.15 19.35 8.65 18.4 10.75 17.5 M7.4 0.2 L7.95 0.3 8.05 0.3 9.9 0.95 9.9 3.2 8.45 4.1 10.05 5.5 9.7 8.35 6.55 6.7 5.25 7.65 4.0 8.5 2.8 7.2 1.6 5.9 7.95 3.65 5.85 1.8 7.4 0.2 M4.1 13.95 L7.0 15.05 7.4 13.8 9.8 15.45 8.55 16.65 6.25 17.7 5.5 18.0 4.45 16.65 2.95 14.75 4.1 13.95" fill="#b8b8b8" fill-rule="evenodd" stroke="none"/>
    <path d="M4.75 20.7 L3.6 20.4 2.2 19.4 4.45 16.65 5.5 18.0 6.25 17.7 6.25 19.75 4.75 20.7 M0.75 9.45 L0.85 7.85 2.8 7.2 4.0 8.5 5.25 7.65 5.25 9.75 2.5 10.65 2.5 10.2 0.75 9.45 M8.15 11.4 L7.8 12.6 7.4 13.8 7.0 15.05 4.1 13.95 4.1 11.9 8.15 11.4" fill="#a3a3a3" fill-rule="evenodd" stroke="none"/>
    <path d="M9.9 0.95 L10.65 1.6 10.65 1.95 Q10.65 2.5 11.0 3.25 L11.75 4.95 Q12.25 6.05 12.2 7.25 L12.2 7.4 10.05 5.5 8.45 4.1 9.9 3.2 9.9 0.95 M12.0 10.8 L12.0 11.75 11.85 12.5 11.75 12.7 11.6 13.05 11.6 13.1 11.55 13.15 11.4 13.5 7.8 12.6 8.15 11.4 9.35 11.25 9.5 10.3 12.0 10.8 M9.65 20.45 L6.05 21.0 4.75 20.7 6.25 19.75 6.25 17.7 8.55 16.65 8.65 18.4 8.15 19.35 9.65 20.45 M2.2 19.4 L2.0 17.25 1.9 16.15 1.75 15.5 2.95 14.75 4.45 16.65 2.2 19.4 M0.95 12.3 Q0.55 10.2 0.65 9.7 L0.75 9.45 2.5 10.2 2.5 10.65 2.5 12.1 0.95 12.3 M0.35 4.2 L0.4 4.05 Q0.5 2.25 1.3 1.65 L1.4 1.6 2.05 1.2 2.2 1.1 2.3 1.1 4.05 2.5 5.85 1.8 7.95 3.65 1.6 5.9 0.35 4.2" fill="#a8a8a8" fill-rule="evenodd" stroke="none"/>
    <path d="M10.75 11.45 Q11.4 12.45 11.45 13.75 L10.0 14.15 9.7 14.3 9.45 13.9 9.55 13.2 9.35 12.6 9.15 12.05 8.65 11.4 8.6 11.2 8.3 10.55 Q9.45 11.15 10.0 11.85 10.1 12.15 10.3 11.85 L10.35 11.6 10.5 11.4 10.75 11.45 M6.3 2.35 L6.65 3.1 7.05 3.75 7.4 4.0 Q7.6 4.0 7.65 4.15 L7.85 4.6 8.0 5.1 Q7.85 5.45 7.7 5.25 L7.4 5.05 7.15 4.7 6.75 4.45 6.2 2.8 Q6.2 2.4 6.3 2.35 M7.15 5.55 L7.7 5.65 8.3 5.85 8.4 6.6 8.4 7.75 8.4 7.85 8.45 7.95 8.85 8.25 9.15 9.0 9.05 9.25 8.9 9.55 8.7 9.75 8.5 9.85 8.3 9.85 Q7.9 8.85 7.8 8.05 L7.8 8.0 7.7 7.95 7.6 7.75 7.0 7.3 7.0 7.1 6.95 6.05 6.95 5.75 7.15 5.55 M6.65 12.4 L7.05 13.3 7.05 13.7 6.95 13.85 6.75 13.85 7.2 14.5 7.25 14.8 7.05 15.1 Q6.3 15.65 5.45 15.4 L5.05 15.2 6.1 16.0 Q6.65 16.0 7.2 16.6 7.7 17.1 6.5 17.85 5.45 18.55 4.9 18.35 L4.5 18.15 4.4 17.85 4.4 17.5 Q4.5 17.05 4.85 17.2 L4.65 16.05 4.7 14.95 4.0 14.35 3.7 14.05 0.25 11.1 Q1.6 11.3 2.65 12.05 L2.8 12.05 2.8 11.8 2.8 11.45 Q3.55 11.75 4.2 13.0 L4.4 13.05 5.3 13.3 Q5.1 12.85 5.45 12.45 5.6 12.25 6.0 12.25 L6.65 12.4 6.75 11.3 6.35 11.0 6.0 10.4 5.95 9.7 6.1 9.1 Q6.65 9.25 6.6 9.65 L6.85 9.3 Q7.2 9.3 7.35 9.55 L7.8 10.05 8.0 10.55 7.7 10.95 7.65 11.35 7.45 11.4 7.65 12.0 Q7.85 12.9 7.65 13.1 L7.45 13.3 7.05 13.3 7.05 13.2 6.65 12.4 M3.4 7.8 L3.7 8.2 4.3 8.9 4.75 9.5 5.1 10.15 4.95 10.75 4.9 10.95 4.75 11.1 Q4.65 11.4 4.25 11.0 L3.55 10.5 Q3.05 10.1 2.95 9.5 2.8 9.3 2.8 8.45 L3.05 7.8 Q3.25 7.65 3.4 7.8 M4.7 7.65 L4.9 7.65 5.15 7.75 5.25 7.8 5.3 8.0 5.35 8.05 5.35 8.2 5.35 8.45 5.35 8.65 5.25 8.65 4.95 8.6 4.65 8.25 4.6 7.8 4.65 7.75 4.7 7.65 M4.25 3.8 Q4.2 3.4 4.4 2.95 L4.5 2.75 4.75 2.95 Q5.25 3.2 5.45 4.15 L6.1 6.5 Q6.55 8.15 6.3 8.15 6.0 8.0 5.15 6.05 L4.25 3.8 M7.9 13.5 L8.2 13.65 9.15 14.95 Q9.6 15.45 9.7 16.05 L9.7 16.15 9.5 16.25 8.1 16.05 7.8 15.75 Q7.65 15.65 7.65 15.2 L7.65 14.95 7.65 14.8 7.6 14.6 Q7.45 14.35 7.45 13.95 L7.65 13.45 7.9 13.5" fill="#310404" fill-opacity="0.24705882" fill-rule="evenodd" stroke="none"/>
    <path d="M11.2 3.65 L11.75 4.95 Q12.25 6.05 12.2 7.25 L11.7 9.3 11.65 9.45 Q12.15 10.65 12.0 11.75 L11.85 12.5 11.75 12.7 11.6 13.05 11.6 13.1 11.55 13.15 11.35 13.65 11.2 14.05 Q11.4 14.2 11.25 14.85 L11.0 15.6 Q10.8 16.2 10.7 17.95 10.65 19.45 10.0 20.25 8.7 20.95 6.05 21.0 L3.6 20.4 2.2 19.4 2.0 17.25 1.9 16.15 1.3 13.9 Q0.5 10.35 0.65 9.7 L0.75 9.3 Q1.1 7.75 0.4 6.5 L0.25 6.25 Q-0.3 5.35 0.4 4.05 L0.45 3.65 Q0.6 2.2 1.4 1.6 L2.2 1.1 3.6 0.45 3.7 0.4 3.8 0.35 4.0 0.3 Q5.65 -0.3 7.95 0.3 L8.05 0.3 Q10.4 0.9 10.65 1.6 L10.65 1.95 Q10.65 2.5 11.0 3.25 L11.2 3.65 M3.4 7.55 L7.95 7.55 8.2 6.5 8.2 5.35 5.7 5.0 2.6 5.35 2.6 6.5 3.2 9.3 3.55 11.0 4.1 11.8 5.7 12.1 7.4 11.8 7.75 9.3 7.95 7.55 M11.2 14.05 L11.15 14.3 11.25 14.85" fill="none" stroke="#3c3c3c" stroke-linecap="round" stroke-linejoin="round" stroke-width="1.0"/>
    <path d="M3.45 15.25 L3.8 15.4 7.0 16.1 Q8.1 16.5 8.75 17.1 L5.0 18.2 4.95 18.2 Q5.6 19.6 7.25 19.25" ffdec:has-small-stroke="true" ffdec:original-stroke-width="0.8" fill="none" stroke="#3c3c3c" stroke-linecap="round" stroke-linejoin="round" stroke-width="1.0"/>
    <path d="M9.55 5.6 L12.0 5.6 Q12.65 6.55 12.1 7.85 L9.8 7.85 9.55 5.6 M9.7 11.1 L12.05 11.1 11.6 13.1 8.75 13.1 9.45 12.55 9.7 11.1 M3.05 13.05 L1.1 13.0 0.75 11.1 2.25 11.1 2.5 12.6 3.05 13.05 M1.95 7.85 L1.05 7.85 Q0.05 6.9 0.0 5.6 L1.95 5.6 1.95 7.85 M5.25 7.9 L6.3 7.9 6.3 11.95 5.25 11.95 5.25 7.9" fill="#4d0909" fill-rule="evenodd" stroke="none"/>
    <path d="M9.8 7.85 L9.7 11.1 9.45 12.55 8.75 13.1 Q5.85 15.05 3.05 13.05 L2.5 12.6 2.25 11.1 1.95 7.85 1.95 5.6 2.0 4.85 2.25 5.6 3.35 7.85 3.35 7.9 5.25 7.9 5.25 11.95 6.3 11.95 6.3 7.9 8.25 7.9 8.3 7.85 9.35 5.6 9.45 5.15 9.55 5.6 9.8 7.85" fill="#989898" fill-rule="evenodd" stroke="none"/>
    <path d="M2.0 4.85 L1.8 3.8 Q5.8 3.0 9.75 3.8 L9.45 5.15 9.35 5.6 8.3 7.85 8.25 7.9 6.3 7.9 5.25 7.9 3.35 7.9 3.35 7.85 2.25 5.6 2.0 4.85" fill="#afafaf" fill-rule="evenodd" stroke="none"/>
    <path d="M9.55 5.6 L12.0 5.6 Q12.65 6.55 12.1 7.85 L9.8 7.85 M9.7 11.1 L12.05 11.1 11.6 13.1 8.75 13.1 M3.05 13.05 L1.1 13.0 0.75 11.1 2.25 11.1 M1.95 7.85 L1.05 7.85 Q0.05 6.9 0.0 5.6 L1.95 5.6" fill="none" stroke="#3a0606" stroke-linecap="round" stroke-linejoin="round" stroke-width="1.0"/>
    <path d="M9.8 7.85 L9.7 11.1 9.45 12.55 8.75 13.1 Q5.85 15.05 3.05 13.05 L2.5 12.6 2.25 11.1 1.95 7.85 1.95 5.6 2.0 4.85 1.8 3.8 Q5.8 3.0 9.75 3.8 L9.45 5.15 9.55 5.6 9.8 7.85 M6.3 7.9 L8.25 7.9 8.3 7.85 9.35 5.6 9.45 5.15 M2.0 4.85 L2.25 5.6 3.35 7.85 3.35 7.9 5.25 7.9 6.3 7.9 6.3 11.95 5.25 11.95 5.25 7.9" fill="none" stroke="#2c0404" stroke-linecap="round" stroke-linejoin="round" stroke-width="1.0"/>
    <path d="M7.15 4.55 L7.45 5.05 7.7 5.25 7.9 5.35 10.4 6.85 Q9.2 7.35 8.15 6.1 8.05 6.35 7.95 6.2 L7.7 6.05 7.5 5.8 7.2 5.6 6.8 4.35 6.85 4.0 7.15 4.55 M4.75 10.2 L3.2 8.55 Q1.95 7.2 2.9 7.45 L4.2 7.85 4.65 8.15 4.9 8.45 5.35 9.0 5.7 9.45 5.95 9.95 5.85 10.4 5.8 10.55 5.7 10.65 5.3 10.6 4.75 10.2 M5.2 4.35 L5.7 6.15 Q6.05 7.4 5.6 7.05 5.15 6.7 4.5 5.2 3.85 3.7 4.05 3.75 L4.4 3.45 Q4.4 3.3 4.5 3.3 L4.7 3.45 Q5.05 3.65 5.2 4.35 M8.4 6.65 L8.45 7.25 8.45 8.1 8.45 8.2 8.5 8.25 8.8 8.5 9.05 9.05 8.95 9.25 8.85 9.5 8.7 9.65 8.55 9.7 8.4 9.7 8.0 8.35 8.0 8.3 7.95 8.25 7.85 8.1 7.4 7.75 7.4 7.6 7.35 6.8 7.35 6.6 7.5 6.45 7.95 6.5 8.4 6.65 M7.1 9.55 L7.3 9.3 Q7.55 9.3 7.65 9.5 L8.0 9.85 8.15 10.25 7.95 10.55 7.9 10.85 7.75 10.9 7.9 11.35 7.9 12.2 7.75 12.35 7.45 12.35 7.45 12.25 7.15 11.65 Q7.1 11.2 7.2 10.8 L6.9 10.6 6.65 10.15 6.6 9.6 6.7 9.15 7.1 9.55 M5.8 8.05 L6.0 8.1 6.05 8.15 6.1 8.3 6.15 8.35 6.15 8.45 6.15 8.65 6.15 8.8 6.05 8.8 5.85 8.75 5.6 8.5 5.55 8.15 5.6 8.1 5.65 8.05 5.8 8.05 M9.9 10.8 L9.95 11.05 10.05 10.9 10.25 10.95 Q10.75 11.7 10.8 12.7 L9.7 13.0 9.45 13.1 9.25 12.8 9.35 12.25 9.2 11.8 9.05 11.4 8.65 10.9 8.6 10.75 8.4 10.25 Q9.35 9.35 9.6 9.9 L9.9 10.8 M7.9 13.6 L7.9 13.5 7.85 13.35 7.75 12.85 7.9 12.45 8.1 12.5 8.3 12.6 9.05 13.6 9.45 14.45 9.45 14.5 9.3 14.6 8.25 14.45 8.0 14.2 7.9 13.8 7.9 13.6 M5.8 15.1 Q5.95 14.95 6.25 14.95 L6.75 15.05 7.05 15.75 7.05 16.05 6.95 16.15 6.8 16.15 7.15 16.65 7.2 16.9 7.05 17.1 5.8 17.35 5.5 17.2 6.3 17.8 Q6.75 17.8 7.15 18.25 7.55 18.65 6.6 19.2 5.8 19.75 5.4 19.6 L5.1 19.45 5.0 19.2 5.0 18.95 Q5.1 18.6 5.35 18.7 5.2 18.45 5.2 17.85 L5.25 17.0 4.7 16.55 4.5 16.3 1.85 14.05 Q2.9 14.2 3.7 14.8 L3.8 14.8 3.8 14.6 4.2 14.35 Q4.6 14.25 4.85 14.8 L5.15 15.45 5.7 15.75 Q5.55 15.4 5.8 15.1" fill="#480202" fill-opacity="0.45882353" fill-rule="evenodd" stroke="none"/>
  </g>
</svg>
