<?xml version="1.0" encoding="UTF-8" standalone="no"?>
<svg xmlns:ffdec="https://www.free-decompiler.com/flash" xmlns:xlink="http://www.w3.org/1999/xlink" ffdec:objectType="shape" height="26.6px" width="17.15px" xmlns="http://www.w3.org/2000/svg">
  <g transform="matrix(1.0, 0.0, 0.0, 1.0, 12.0, 3.65)">
    <path d="M-3.5 -1.95 L-1.45 -2.1 -0.7 -1.7 0.2 -1.75 0.95 -2.8 Q1.45 -3.4 1.85 -2.95 2.85 -1.75 2.75 3.1 L2.15 6.7 Q1.75 8.6 2.25 9.3 3.05 10.15 4.1 12.5 4.6 13.6 3.45 14.1 L2.0 14.6 Q1.75 14.85 2.05 15.85 2.25 16.8 2.0 17.0 0.6 18.4 -2.1 18.7 L-3.4 15.7 Q-4.65 12.15 -4.75 9.8 -4.8 7.65 -3.4 6.25 -1.85 4.7 -1.75 4.1 -1.5 2.9 -2.5 0.35 L-3.5 -1.95" fill="#605c82" fill-rule="evenodd" stroke="none"/>
    <path d="M-3.5 -1.95 L-2.5 0.35 Q-1.5 2.9 -1.75 4.1 -1.85 4.7 -3.4 6.25 -4.8 7.65 -4.75 9.8 -4.65 12.15 -3.4 15.7 L-2.1 18.7 Q0.6 18.4 2.0 17.0 2.25 16.8 2.05 15.85 1.75 14.85 2.0 14.6 L3.45 14.1 Q4.6 13.6 4.1 12.5 3.05 10.15 2.25 9.3 1.75 8.6 2.15 6.7 L2.75 3.1 Q2.85 -1.75 1.85 -2.95 1.45 -3.4 0.95 -2.8 L0.2 -1.75 -0.7 -1.7 -1.45 -2.1 -3.5 -1.95 Z" fill="none" stroke="#312e32" stroke-linecap="butt" stroke-linejoin="miter-clip" stroke-miterlimit="15.12109375" stroke-opacity="0.7647059" stroke-width="1.0"/>
    <path d="M-2.2 0.55 L-1.4 0.85 Q-0.5 1.7 -0.55 4.25 -0.45 6.2 -0.95 10.15 -1.35 13.25 -1.1 13.7 -0.8 14.2 0.65 14.55 2.1 14.8 2.1 15.1 L2.3 17.35 -2.55 18.75 -4.5 12.25 Q-4.85 11.2 -4.75 9.85 -4.65 8.7 -4.25 7.9 L-3.25 6.35 -2.15 4.9 -1.9 3.8 -2.0 2.85 -2.55 0.7 -2.2 0.55" fill="#3e7385" fill-rule="evenodd" stroke="none"/>
    <path d="M-2.2 0.55 L-1.4 0.85 Q-0.5 1.7 -0.55 4.25 -0.45 6.2 -0.95 10.15 -1.35 13.25 -1.1 13.7 -0.8 14.2 0.65 14.55 2.1 14.8 2.1 15.1 L2.3 17.35 -2.55 18.75 -4.5 12.25 Q-4.85 11.2 -4.75 9.85 -4.65 8.7 -4.25 7.9 L-3.25 6.35 -2.15 4.9 -1.9 3.8 -2.0 2.85 -2.55 0.7 -2.2 0.55 Z" fill="none" stroke="#312e32" stroke-linecap="butt" stroke-linejoin="miter-clip" stroke-miterlimit="15.12109375" stroke-opacity="0.7647059" stroke-width="1.0"/>
    <path d="M-4.05 9.35 Q-3.45 11.25 -4.25 11.5 -4.75 11.65 -5.35 11.0 L-6.7 9.75 Q-7.35 9.25 -7.9 7.95 L-8.4 6.75 -7.05 8.1 Q-5.8 9.3 -4.05 9.35" fill="#585650" fill-rule="evenodd" stroke="none"/>
    <path d="M-4.05 9.35 Q-5.8 9.3 -7.05 8.1 L-8.4 6.75 -7.9 7.95 Q-7.35 9.25 -6.7 9.75 L-5.35 11.0 Q-4.75 11.65 -4.25 11.5 -3.45 11.25 -4.05 9.35 Z" fill="none" stroke="#464440" stroke-linecap="butt" stroke-linejoin="miter-clip" stroke-miterlimit="15.12109375" stroke-width="1.0"/>
    <path d="M-2.9 15.35 Q-2.3 17.25 -3.1 17.45 -3.55 17.65 -4.2 16.95 L-5.55 15.7 Q-6.2 15.25 -6.75 13.95 L-7.25 12.75 -5.9 14.05 Q-4.7 15.25 -2.9 15.35" fill="#585650" fill-rule="evenodd" stroke="none"/>
    <path d="M-2.9 15.35 Q-4.7 15.25 -5.9 14.05 L-7.25 12.75 -6.75 13.95 Q-6.2 15.25 -5.55 15.7 L-4.2 16.95 Q-3.55 17.65 -3.1 17.45 -2.3 17.25 -2.9 15.35 Z" fill="none" stroke="#464440" stroke-linecap="butt" stroke-linejoin="miter-clip" stroke-miterlimit="15.12109375" stroke-width="1.0"/>
    <path d="M1.95 -2.65 L2.25 -2.35 2.7 -0.7 3.05 1.35 Q3.2 2.3 3.0 3.1 L2.35 7.2 2.35 8.15 2.55 9.45 4.65 14.15 1.7 14.4" fill="none" stroke="#000000" stroke-linecap="round" stroke-linejoin="round" stroke-opacity="0.3764706" stroke-width="1.0"/>
    <path d="M-2.4 18.95 L-3.15 17.6 Q-6.4 16.1 -6.95 14.55 L-7.6 12.5 -6.55 13.85 -4.65 15.3 -3.4 15.35 -4.95 11.7 Q-7.3 10.4 -7.85 9.15 L-8.35 7.45 -8.5 6.75 Q-6.05 9.3 -5.5 9.3 -5.0 9.75 -4.0 7.8 L-2.2 4.75 Q-1.85 4.3 -2.0 3.55 L-2.1 1.0 Q-2.2 -0.95 -2.7 -1.25" fill="none" stroke="#000000" stroke-linecap="round" stroke-linejoin="round" stroke-opacity="0.3764706" stroke-width="1.0"/>
  </g>
</svg>
