<?xml version="1.0" encoding="UTF-8" standalone="no"?>
<svg xmlns:ffdec="https://www.free-decompiler.com/flash" xmlns:xlink="http://www.w3.org/1999/xlink" ffdec:objectType="shape" height="22.65px" width="14.5px" xmlns="http://www.w3.org/2000/svg">
  <g transform="matrix(1.0, 0.0, 0.0, 1.0, 0.5, 1.15)">
    <path d="M8.6 0.6 Q10.5 1.2 10.65 1.6 L10.65 1.95 Q10.65 2.5 11.0 3.25 L11.75 4.95 Q12.25 6.05 12.2 7.25 L11.65 9.45 Q12.15 10.65 12.0 11.75 L11.85 12.5 11.75 12.7 11.6 13.05 11.6 13.1 11.55 13.15 11.35 13.65 11.15 14.3 11.25 14.85 11.0 15.6 Q10.8 16.2 10.7 17.95 10.65 19.45 10.0 20.25 8.7 20.95 6.05 21.0 L5.6 20.9 Q10.9 12.75 8.6 0.6 M1.95 16.75 L1.65 15.4 1.4 14.2 Q0.55 10.15 0.65 9.7 1.2 7.9 0.4 6.5 L0.25 6.25 Q-0.3 5.35 0.4 4.05 0.5 2.25 1.3 1.65 L1.4 1.6 2.05 1.2 2.2 1.1 3.1 0.7 Q4.85 8.3 2.0 16.95 L1.95 16.75" fill="#2a2a2a" fill-rule="evenodd" stroke="none"/>
    <path d="M5.6 20.9 L3.6 20.4 2.2 19.4 2.0 17.25 1.95 16.75 2.0 16.95 Q4.85 8.3 3.1 0.7 L3.6 0.45 3.7 0.4 3.8 0.35 4.0 0.3 Q5.65 -0.3 7.95 0.3 L8.05 0.3 Q9.15 0.6 8.6 0.6 10.9 12.75 5.6 20.9" fill="#7e7e7e" fill-rule="evenodd" stroke="none"/>
    <path d="M11.25 14.85 L11.0 15.6 Q10.8 16.2 10.7 17.95 10.65 19.45 10.0 20.25 8.7 20.95 6.05 21.0 L3.6 20.4 2.2 19.4 2.0 17.25 1.9 16.15 1.3 13.9 Q0.5 10.35 0.65 9.7 1.2 7.9 0.4 6.5 L0.25 6.25 Q-0.3 5.35 0.4 4.05 0.5 2.25 1.4 1.6 L2.2 1.1 3.6 0.45 3.7 0.4 3.8 0.35 4.0 0.3 Q5.65 -0.3 7.95 0.3 L8.05 0.3 Q10.4 0.9 10.65 1.6 L10.65 1.95 Q10.65 2.5 11.0 3.25 L11.75 4.95 Q12.25 6.05 12.2 7.25 L11.65 9.45 Q12.15 10.65 12.0 11.75 L11.85 12.5 11.75 12.7 11.6 13.05 11.6 13.1 11.55 13.15 11.35 13.65 11.2 14.05 Q11.4 14.2 11.25 14.85 L11.15 14.3 11.2 14.05 M3.4 7.55 L7.95 7.55 8.2 6.5 8.2 5.35 5.7 5.0 2.6 5.35 2.6 6.5 3.55 11.0 4.1 11.8 5.7 12.1 7.4 11.8 7.95 7.55" fill="none" stroke="#121212" stroke-linecap="round" stroke-linejoin="round" stroke-width="1.0"/>
    <path d="M3.45 15.25 L3.8 15.4 7.0 16.1 Q8.1 16.5 8.75 17.1 L5.0 18.2 4.95 18.2 Q5.6 19.6 7.25 19.25" ffdec:has-small-stroke="true" ffdec:original-stroke-width="0.8" fill="none" stroke="#121212" stroke-linecap="round" stroke-linejoin="round" stroke-width="1.0"/>
    <path d="M6.4 9.0 L6.4 -0.65 7.85 -0.65 7.85 2.1 12.1 7.75 12.0 9.0 12.0 10.9 0.8 10.9 Q0.1 9.95 0.8 9.0 L2.1 9.0 2.1 0.1 Q2.95 -0.6 3.75 -0.55 L3.75 9.0 6.4 9.0 7.85 9.0 6.4 9.0 M7.85 5.1 L7.85 9.0 11.05 9.0 7.85 5.1 7.85 2.1 7.85 5.1 M3.75 9.0 L2.1 9.0 3.75 9.0 M12.0 9.0 L11.05 9.0 12.0 9.0 M1.05 12.8 L12.1 12.8 Q12.5 13.55 12.1 14.3 L1.05 14.3 Q0.4 13.65 1.05 12.8" fill="#8c8c8c" fill-rule="evenodd" stroke="none"/>
    <path d="M6.4 9.0 L6.4 -0.65 7.85 -0.65 7.85 2.1 12.1 7.75 12.0 9.0 12.0 10.9 0.8 10.9 Q0.1 9.95 0.8 9.0 L2.1 9.0 2.1 0.1 Q2.95 -0.6 3.75 -0.55 L3.75 9.0 6.4 9.0 7.85 9.0 7.85 5.1 7.85 2.1 M11.05 9.0 L12.0 9.0 M2.1 9.0 L3.75 9.0 M1.05 12.8 L12.1 12.8 Q12.5 13.55 12.1 14.3 L1.05 14.3 Q0.4 13.65 1.05 12.8 M7.85 9.0 L11.05 9.0 7.85 5.1" fill="none" stroke="#252525" stroke-linecap="round" stroke-linejoin="round" stroke-width="1.0"/>
    <path d="M11.35 11.85 L11.25 11.85 11.25 11.8 11.25 9.9 13.5 9.9 13.5 11.85 11.35 11.85 M2.85 4.9 L2.85 3.0 6.35 3.0 6.35 4.95 2.95 4.95 2.85 4.95 2.85 4.9 M3.2 12.75 L3.2 10.85 6.7 10.85 6.7 12.8 3.3 12.8 3.2 12.8 3.2 12.75" fill="#313131" fill-rule="evenodd" stroke="none"/>
    <path d="M13.05 12.35 L12.85 12.35 12.5 12.3 11.35 11.85 13.5 11.85 13.5 12.35 13.45 12.35 13.05 12.35 M6.35 4.95 L5.05 5.45 4.1 5.4 2.95 4.95 6.35 4.95 M6.7 12.8 L5.4 13.3 4.45 13.25 3.3 12.8 6.7 12.8" fill="#747474" fill-rule="evenodd" stroke="none"/>
    <path d="M11.25 11.8 L10.5 11.4 9.65 10.85 9.65 7.2 13.5 7.2 13.5 9.9 11.25 9.9 11.25 11.8 M1.25 3.95 L1.25 0.3 7.85 0.3 7.85 3.95 6.35 4.95 6.35 3.0 2.85 3.0 2.85 4.9 2.1 4.5 1.25 3.95 M1.6 11.8 L1.6 8.15 8.2 8.15 8.2 11.8 6.7 12.8 6.7 10.85 3.2 10.85 3.2 12.75 2.45 12.35 1.6 11.8" fill="#8a8a8a" fill-rule="evenodd" stroke="none"/>
    <path d="M9.65 10.85 L10.5 11.4 11.25 11.8 11.25 11.85 11.35 11.85 12.5 12.3 12.85 12.35 13.05 12.35 12.85 14.55 10.15 14.55 10.15 11.25 9.65 10.85 M7.85 3.95 L7.35 4.4 7.35 7.65 1.75 7.65 1.75 4.35 1.25 3.95 2.1 4.5 2.85 4.9 2.85 4.95 2.95 4.95 4.1 5.4 5.05 5.45 6.35 4.95 7.85 3.95 M8.2 11.8 L7.7 12.25 7.7 15.5 2.1 15.5 2.1 12.2 1.6 11.8 2.45 12.35 3.2 12.75 3.2 12.8 3.3 12.8 4.45 13.25 5.4 13.3 6.7 12.8 8.2 11.8" fill="#5d5d5d" fill-rule="evenodd" stroke="none"/>
    <path d="M11.25 11.8 L10.5 11.4 9.65 10.85 10.15 11.25 10.15 14.55 12.85 14.55 13.05 12.35 12.85 12.35 12.5 12.3 11.35 11.85 M13.5 9.9 L13.5 7.2 9.65 7.2 9.65 10.85 M13.5 11.85 L13.5 9.9 M13.05 12.35 L13.45 12.35 13.5 12.35 13.5 11.85 M1.25 3.95 L1.25 0.3 7.85 0.3 7.85 3.95 7.35 4.4 7.35 7.65 1.75 7.65 1.75 4.35 1.25 3.95 2.1 4.5 2.85 4.9 M6.35 4.95 L7.85 3.95 M2.95 4.95 L4.1 5.4 5.05 5.45 6.35 4.95 M1.6 11.8 L1.6 8.15 8.2 8.15 8.2 11.8 7.7 12.25 7.7 15.5 2.1 15.5 2.1 12.2 1.6 11.8 2.45 12.35 3.2 12.75 M6.7 12.8 L8.2 11.8 M3.3 12.8 L4.45 13.25 5.4 13.3 6.7 12.8" fill="none" stroke="#1c1c1c" stroke-linecap="round" stroke-linejoin="round" stroke-width="1.0"/>
  </g>
</svg>
