<?xml version="1.0" encoding="UTF-8" standalone="no"?>
<svg xmlns:ffdec="https://www.free-decompiler.com/flash" xmlns:xlink="http://www.w3.org/1999/xlink" ffdec:objectType="shape" height="23.15px" width="15.05px" xmlns="http://www.w3.org/2000/svg">
  <g transform="matrix(1.0, 0.0, 0.0, 1.0, 10.25, 4.2)">
    <path d="M3.5 -2.25 L3.9 -1.95 4.2 -1.05 Q4.45 -0.05 4.2 0.95 L3.5 5.15 2.1 6.8 Q1.5 5.65 1.0 5.25 0.15 4.5 -1.45 4.15 L-1.9 -0.55 -0.15 -2.9 1.6 -3.35 Q2.6 -3.5 3.5 -2.25" fill="#7b756f" fill-rule="evenodd" stroke="none"/>
    <path d="M-2.45 -0.5 L-1.4 1.35 -0.75 3.7 2.45 5.65 2.3 10.45 Q1.9 14.0 -2.25 13.65 L-4.9 10.7 -6.45 10.2 -8.35 12.35 -9.1 11.7 Q-9.6 4.6 -8.5 1.9 -6.9 -1.65 -2.45 -0.5" fill="#5c5753" fill-rule="evenodd" stroke="none"/>
    <path d="M-2.45 -0.5 Q-6.9 -1.65 -8.5 1.9 -9.6 4.6 -9.1 11.7 L-8.35 12.35 -6.45 10.2 -4.9 10.7 -2.25 13.65 Q1.9 14.0 2.3 10.45 L2.45 5.65 -0.75 3.7 -1.4 1.35 -2.45 -0.5 Z" fill="none" stroke="#413e3a" stroke-linecap="round" stroke-linejoin="round" stroke-width="1.0"/>
    <path d="M-3.8 9.5 L-2.5 10.95 -2.45 14.75 -3.8 16.4 -5.45 16.55 -6.65 16.6 -8.05 18.45 -9.75 16.9 Q-8.95 15.7 -8.95 14.1 -8.9 13.05 -9.3 11.25 L-8.25 9.05 -6.75 7.75 -5.05 7.9 Q-4.65 7.9 -4.6 8.4 L-3.8 9.5" fill="#5c5753" fill-rule="evenodd" stroke="none"/>
    <path d="M-3.8 9.5 L-2.5 10.95 -2.45 14.75 -3.8 16.4 -5.45 16.55 -6.65 16.6 -8.05 18.45 -9.75 16.9 Q-8.95 15.7 -8.95 14.1 -8.9 13.05 -9.3 11.25 L-8.25 9.05 -6.75 7.75 -5.05 7.9 Q-4.65 7.9 -4.6 8.4 L-3.8 9.5 Z" fill="none" stroke="#302e2a" stroke-linecap="round" stroke-linejoin="round" stroke-width="1.0"/>
    <path d="M2.1 11.55 L2.1 15.7 3.35 16.45 1.8 17.65 0.05 18.1 -0.75 16.7 -3.7 16.35 0.95 10.75 2.5 10.05 2.1 11.55" fill="#746e68" fill-rule="evenodd" stroke="none"/>
    <path d="M0.15 -3.45 L2.15 -3.7 3.5 -2.25 3.9 -1.95 4.25 -0.85 4.3 0.4 3.8 2.5 2.7 3.8 2.45 4.2 2.55 6.2" fill="none" stroke="#3b3834" stroke-linecap="round" stroke-linejoin="round" stroke-width="1.0"/>
    <path d="M-0.15 -2.9 L-1.9 -0.55" fill="none" stroke="#413e3b" stroke-linecap="round" stroke-linejoin="round" stroke-width="1.0"/>
    <path d="M-1.9 -0.55 L-0.95 3.35 -2.2 6.2 -4.75 8.25" fill="none" stroke="#413e3a" stroke-linecap="round" stroke-linejoin="round" stroke-width="1.0"/>
    <path d="M2.2 5.7 Q1.5 4.9 0.35 4.5 L-0.75 4.2" fill="none" stroke="#413e3b" stroke-linecap="round" stroke-linejoin="round" stroke-width="1.0"/>
    <path d="M2.45 4.2 Q2.8 6.25 2.3 7.85" fill="none" stroke="#3b3834" stroke-linecap="round" stroke-linejoin="round" stroke-width="1.0"/>
    <path d="M-9.4 16.55 Q-9.25 17.0 -9.0 14.35 -8.75 11.45 -9.1 9.35 -9.8 6.95 -9.35 4.35 -8.8 1.4 -6.75 -0.25" fill="none" stroke="#2e2c2a" stroke-linecap="round" stroke-linejoin="round" stroke-width="1.0"/>
    <path d="M2.3 8.05 L2.5 15.3 3.5 16.45 1.9 17.65 0.45 17.7 -0.95 16.55 -4.15 16.7" fill="none" stroke="#413e3a" stroke-linecap="round" stroke-linejoin="round" stroke-width="1.0"/>
    <path d="M-3.65 16.85 L-2.7 15.1 -1.7 13.4 Q-0.1 13.0 1.05 10.75 L2.2 10.3" fill="none" stroke="#413e3a" stroke-linecap="round" stroke-linejoin="round" stroke-width="1.0"/>
    <path d="M3.15 -2.6 L4.25 -1.45 3.9 2.25 2.85 3.55 2.35 7.25 2.35 15.0 3.6 16.25" fill="none" stroke="#2e2c2a" stroke-linecap="round" stroke-linejoin="round" stroke-width="1.0"/>
  </g>
</svg>
