<?xml version="1.0" encoding="UTF-8" standalone="no"?>
<svg xmlns:ffdec="https://www.free-decompiler.com/flash" xmlns:xlink="http://www.w3.org/1999/xlink" ffdec:objectType="shape" height="23.75px" width="14.5px" xmlns="http://www.w3.org/2000/svg">
  <g transform="matrix(1.0, 0.0, 0.0, 1.0, 7.9, 3.95)">
    <path d="M-7.15 4.05 L-6.15 -0.05 Q-6.05 -0.35 -5.05 0.45 -3.8 1.35 -2.8 1.1 -2.1 1.1 0.0 0.3 1.85 0.05 1.8 2.75 1.85 4.2 0.55 4.85 -0.7 5.45 -0.7 6.7 L0.3 11.85 Q0.9 14.5 -1.5 16.2 L-5.75 16.75 -5.7 16.05 -5.65 15.15 -6.45 11.55 Q-7.15 9.15 -7.15 7.7 -7.6 6.55 -7.15 4.05" fill="#272727" fill-rule="evenodd" stroke="none"/>
    <path d="M-7.15 4.05 Q-7.6 6.55 -7.15 7.7 -7.15 9.15 -6.45 11.55 L-5.65 15.15 -5.7 16.05 -5.75 16.75 -1.5 16.2 Q0.9 14.5 0.3 11.85 L-0.7 6.7 Q-0.7 5.45 0.55 4.85 1.85 4.2 1.8 2.75 1.85 0.05 0.0 0.3 -2.1 1.1 -2.8 1.1 -3.8 1.35 -5.05 0.45 -6.05 -0.35 -6.15 -0.05 L-7.15 4.05 Z" fill="none" stroke="#1a1a1a" stroke-linecap="round" stroke-linejoin="round" stroke-width="1.0"/>
    <path d="M3.15 1.9 Q3.65 1.9 3.9 2.25 L4.35 3.2 Q4.7 4.1 4.6 5.35 4.5 6.55 4.2 6.85 L2.15 7.85 Q1.15 8.25 1.0 8.75 L0.95 9.55 0.55 11.2 -0.05 12.55 Q-3.2 15.15 -3.25 15.05 -3.2 13.4 -3.5 10.85 -3.45 9.85 -3.0 8.35 L-2.5 7.0 -0.85 6.3 0.5 4.6 1.1 3.3 2.0 2.55 2.55 2.15 Q2.9 1.9 3.15 1.9" fill="url(#gradient0)" fill-rule="evenodd" stroke="none"/>
    <path d="M3.15 1.9 Q3.65 1.9 3.9 2.25 L4.35 3.2 Q4.7 4.1 4.6 5.35 4.5 6.55 4.2 6.85 L2.15 7.85 Q1.15 8.25 1.0 8.75 L0.95 9.55 0.55 11.2 -0.05 12.55 Q-3.2 15.15 -3.25 15.05 -3.2 13.4 -3.5 10.85 -3.45 9.85 -3.0 8.35 L-2.5 7.0 -0.85 6.3 0.5 4.6 1.1 3.3 2.0 2.55 2.55 2.15 Q2.9 1.9 3.15 1.9 Z" fill="none" stroke="#181819" stroke-linecap="butt" stroke-linejoin="miter-clip" stroke-miterlimit="15.12109375" stroke-width="1.0"/>
    <path d="M1.25 10.45 L1.6 9.65 Q1.65 10.15 2.0 10.1 L2.7 9.75 4.2 9.05 Q4.5 9.15 4.2 10.65 L5.0 14.75 6.1 17.9 4.9 18.55 2.85 18.95 -0.55 19.2 -3.05 19.25 Q-3.6 18.25 -3.35 15.95 L-2.75 15.3 Q-0.55 13.55 -0.35 12.9 0.0 11.5 0.65 10.85 L1.25 10.45" fill="url(#gradient1)" fill-rule="evenodd" stroke="none"/>
    <path d="M1.25 10.45 L0.65 10.85 Q0.0 11.5 -0.35 12.9 -0.55 13.55 -2.75 15.3 L-3.35 15.95 Q-3.6 18.25 -3.05 19.25 L-0.55 19.2 2.85 18.95 4.9 18.55 6.1 17.9 5.0 14.75 4.2 10.65 Q4.5 9.15 4.2 9.05 L2.7 9.75 2.0 10.1 Q1.65 10.15 1.6 9.65 L1.25 10.45 Z" fill="none" stroke="#181819" stroke-linecap="round" stroke-linejoin="round" stroke-width="1.0"/>
    <path d="M0.0 4.3 Q-0.6 4.6 -1.3 4.1 L-2.5 2.6 Q-2.6 1.95 -2.05 0.95 -1.05 0.6 -0.7 0.0 -0.35 -0.3 -0.15 -1.3 2.3 -1.55 3.7 -2.55 4.4 -3.1 4.6 -2.55 L4.7 -0.35 Q4.55 1.3 3.85 1.85 2.45 1.6 1.15 2.9 L0.6 3.55 0.0 4.3" fill="url(#gradient2)" fill-rule="evenodd" stroke="none"/>
    <path d="M0.0 4.3 L0.6 3.55 1.15 2.9 Q2.45 1.6 3.85 1.85 4.55 1.3 4.7 -0.35 L4.6 -2.55 Q4.4 -3.1 3.7 -2.55 2.3 -1.55 -0.15 -1.3 -0.35 -0.3 -0.7 0.0 -1.05 0.6 -2.05 0.95 -2.6 1.95 -2.5 2.6 L-1.3 4.1 Q-0.6 4.6 0.0 4.3 Z" fill="none" stroke="#1a1717" stroke-linecap="butt" stroke-linejoin="miter-clip" stroke-miterlimit="15.12109375" stroke-width="1.0"/>
    <path d="M4.05 7.95 L1.95 9.15" fill="none" stroke="#dcc64f" stroke-linecap="round" stroke-linejoin="round" stroke-width="1.0"/>
  </g>
  <defs>
    <radialGradient cx="0" cy="0" gradientTransform="matrix(0.0091, 0.0012, 0.0025, -0.0122, -3.9, 10.75)" gradientUnits="userSpaceOnUse" id="gradient0" r="819.2" spreadMethod="pad">
      <stop offset="0.0" stop-color="#171718"/>
      <stop offset="1.0" stop-color="#5b5b60"/>
    </radialGradient>
    <radialGradient cx="0" cy="0" gradientTransform="matrix(0.0049, 0.0, 1.0E-4, -0.0252, 0.75, 13.9)" gradientUnits="userSpaceOnUse" id="gradient1" r="819.2" spreadMethod="pad">
      <stop offset="0.0" stop-color="#2c2c2e"/>
      <stop offset="1.0" stop-color="#505054"/>
    </radialGradient>
    <radialGradient cx="0" cy="0" gradientTransform="matrix(0.0034, 0.0018, 0.0038, -0.0112, 0.1, 0.7)" gradientUnits="userSpaceOnUse" id="gradient2" r="819.2" spreadMethod="pad">
      <stop offset="0.0" stop-color="#251d1d"/>
      <stop offset="1.0" stop-color="#493f3f"/>
    </radialGradient>
  </defs>
</svg>
