<?xml version="1.0" encoding="UTF-8" standalone="no"?>
<svg xmlns:xlink="http://www.w3.org/1999/xlink" height="6.75px" width="14.05px" xmlns="http://www.w3.org/2000/svg">
  <g transform="matrix(1.0, 0.0, 0.0, 1.0, 6.5, 3.25)">
    <path d="M3.55 -2.15 L3.55 -2.75 Q5.4 -2.65 6.15 -1.9 6.75 -1.4 7.05 -0.05 6.7 1.4 6.15 2.0 5.4 2.7 3.55 3.0 L3.55 2.85 3.55 2.3 3.55 -2.15 M-2.5 2.4 L-2.5 3.0 Q-4.35 2.85 -5.1 2.15 -5.7 1.6 -6.0 0.25 -5.65 -1.15 -5.05 -1.75 -4.3 -2.5 -2.5 -2.75 L-2.5 -2.15 -2.5 2.4" fill="#555555" fill-rule="evenodd" stroke="none"/>
    <path d="M3.55 -2.15 L3.55 2.3 -2.5 2.4 -2.5 -2.15 3.55 -2.15" fill="#666666" fill-rule="evenodd" stroke="none"/>
    <path d="M3.55 2.3 L3.55 2.85 3.55 3.0 Q5.4 2.7 6.15 2.0 6.7 1.4 7.05 -0.05 6.75 -1.4 6.15 -1.9 5.4 -2.65 3.55 -2.75 L3.55 -2.15 3.55 2.3 M-2.5 2.4 L-2.5 3.0 Q-4.35 2.85 -5.1 2.15 -5.7 1.6 -6.0 0.25 -5.65 -1.15 -5.05 -1.75 -4.3 -2.5 -2.5 -2.75 L-2.5 -2.15 -2.5 2.4" fill="none" stroke="#3c3c3c" stroke-linecap="round" stroke-linejoin="round" stroke-width="1.0"/>
    <path d="M3.55 2.3 L-2.5 2.4 M-2.5 -2.15 L3.55 -2.15" fill="none" stroke="#444444" stroke-linecap="round" stroke-linejoin="round" stroke-width="1.0"/>
  </g>
</svg>
