<?xml version="1.0" encoding="UTF-8" standalone="no"?>
<svg xmlns:xlink="http://www.w3.org/1999/xlink" height="22.0px" width="82.0px" xmlns="http://www.w3.org/2000/svg">
  <g transform="matrix(1.0, 0.0, 0.0, 1.0, 0.0, 0.0)">
    <path d="M41.0 0.0 L76.05 0.0 78.0 0.0 Q82.0 0.0 82.0 4.0 L82.0 4.95 82.0 16.05 82.0 18.0 Q82.0 22.0 78.0 22.0 L76.05 22.0 41.0 22.0 41.0 21.0 76.05 21.0 78.15 21.0 Q81.0 20.95 81.0 18.0 L81.0 16.05 81.0 4.95 81.0 4.0 Q81.0 1.05 78.15 1.0 L76.05 1.0 41.0 1.0 41.0 0.0" fill="url(#gradient0)" fill-rule="evenodd" stroke="none"/>
    <path d="M41.0 22.0 L4.05 22.0 Q0.0 22.0 0.0 18.0 L0.0 16.05 0.0 4.95 0.0 4.0 Q0.0 0.0 4.05 0.0 L41.0 0.0 41.0 1.0 3.95 1.0 3.9 1.0 Q1.0 1.05 1.0 4.0 L1.0 4.95 1.0 16.05 1.0 18.0 Q1.0 20.95 3.9 21.0 L3.95 21.0 41.0 21.0 41.0 22.0" fill="url(#gradient1)" fill-rule="evenodd" stroke="none"/>
    <path d="M41.05 1.0 L76.05 1.0 78.15 1.0 Q81.05 1.05 81.05 4.0 L81.05 4.95 81.05 16.05 81.05 18.0 Q81.05 20.95 78.15 21.0 L76.05 21.0 41.05 21.0 41.05 16.05 41.05 4.95 41.05 1.0" fill="url(#gradient2)" fill-rule="evenodd" stroke="none"/>
    <path d="M41.05 21.0 L3.95 21.0 3.9 21.0 Q1.0 20.95 1.05 18.0 L1.05 16.05 1.05 4.95 1.05 4.0 Q1.0 1.05 3.9 1.0 L3.95 1.0 41.05 1.0 41.05 4.95 41.05 16.05 41.05 21.0" fill="url(#gradient3)" fill-rule="evenodd" stroke="none"/>
    <path d="M41.0 1.0 L76.05 1.0 78.0 1.0 Q80.95 1.0 81.0 4.0 L81.0 4.95 81.0 12.0 76.05 12.0 41.0 12.0 41.0 4.95 41.0 1.0" fill="url(#gradient4)" fill-rule="evenodd" stroke="none"/>
    <path d="M41.0 12.0 L3.95 12.0 1.0 12.0 1.0 4.95 1.0 4.0 Q1.0 1.0 4.0 1.0 L41.0 1.0 41.0 4.95 41.0 12.0" fill="url(#gradient5)" fill-rule="evenodd" stroke="none"/>
  </g>
  <defs>
    <linearGradient gradientTransform="matrix(0.0, -0.0134, 0.0134, 0.0, 71.0, 11.0)" gradientUnits="userSpaceOnUse" id="gradient0" spreadMethod="pad" x1="-819.2" x2="819.2">
      <stop offset="0.0" stop-color="#0075bf"/>
      <stop offset="0.9921568627450981" stop-color="#009dff"/>
    </linearGradient>
    <linearGradient gradientTransform="matrix(0.0, -0.0134, -0.0134, 0.0, 11.05, 11.0)" gradientUnits="userSpaceOnUse" id="gradient1" spreadMethod="pad" x1="-819.2" x2="819.2">
      <stop offset="0.0" stop-color="#0075bf"/>
      <stop offset="0.9921568627450981" stop-color="#009dff"/>
    </linearGradient>
    <linearGradient gradientTransform="matrix(0.0, -0.0134, 0.0134, 0.0, 71.0, 11.0)" gradientUnits="userSpaceOnUse" id="gradient2" spreadMethod="pad" x1="-819.2" x2="819.2">
      <stop offset="0.0" stop-color="#99d7fe"/>
      <stop offset="1.0" stop-color="#d9f0fe"/>
    </linearGradient>
    <linearGradient gradientTransform="matrix(0.0, -0.0134, -0.0134, 0.0, 11.05, 11.0)" gradientUnits="userSpaceOnUse" id="gradient3" spreadMethod="pad" x1="-819.2" x2="819.2">
      <stop offset="0.0" stop-color="#99d7fe"/>
      <stop offset="1.0" stop-color="#d9f0fe"/>
    </linearGradient>
    <linearGradient gradientTransform="matrix(0.0, -0.004, 0.0183, 0.0, 80.5, 4.75)" gradientUnits="userSpaceOnUse" id="gradient4" spreadMethod="pad" x1="-819.2" x2="819.2">
      <stop offset="0.0" stop-color="#cccccc" stop-opacity="0.0"/>
      <stop offset="1.0" stop-color="#ffffff" stop-opacity="0.3019608"/>
    </linearGradient>
    <linearGradient gradientTransform="matrix(0.0, -0.0064, 0.0183, 0.0, 61.55, 6.75)" gradientUnits="userSpaceOnUse" id="gradient5" spreadMethod="pad" x1="-819.2" x2="819.2">
      <stop offset="0.0" stop-color="#cccccc" stop-opacity="0.0"/>
      <stop offset="1.0" stop-color="#ffffff" stop-opacity="0.3019608"/>
    </linearGradient>
  </defs>
</svg>
