<?xml version="1.0" encoding="UTF-8" standalone="no"?>
<svg xmlns:ffdec="https://www.free-decompiler.com/flash" xmlns:xlink="http://www.w3.org/1999/xlink" ffdec:objectType="shape" height="28.35px" width="18.65px" xmlns="http://www.w3.org/2000/svg">
  <g transform="matrix(1.0, 0.0, 0.0, 1.0, 12.2, 3.15)">
    <path d="M0.65 13.0 L1.2 14.1 4.3 11.95 1.25 14.2 2.1 15.85 2.25 18.6 2.05 15.8 1.2 14.1 1.15 14.1 0.65 13.0 0.4 12.6 0.25 12.25 0.5 11.05 0.25 12.15 Q-3.1 15.6 -3.0 14.15 L-2.9 13.6 -3.55 10.95 -3.6 9.2 -3.15 7.8 -2.6 6.5 -1.75 6.1 -1.05 5.9 -0.15 4.85 0.8 3.45 1.35 2.5 1.85 2.1 3.75 1.45 M3.9 7.5 L2.05 8.45 1.15 9.05 1.1 9.05 0.85 9.45 0.5 11.05 0.8 9.45 1.15 9.05 Q1.35 8.6 1.5 8.65 L2.05 8.45 M-3.1 10.7 Q-2.8 10.95 -2.9 12.6 L-2.9 13.6 -2.9 12.6" fill="none" stroke="#181819" stroke-linecap="round" stroke-linejoin="round" stroke-opacity="0.5568628" stroke-width="1.0"/>
    <path d="M-7.3 1.2 Q-7.15 0.5 -6.4 -0.85 L-4.5 -0.4 -1.4 -0.3 -0.65 -0.4 Q-1.05 1.0 -1.6 1.45 L-2.9 2.25 Q-4.45 1.8 -5.4 2.75 -5.95 3.8 -6.2 3.75 L-6.7 3.6 -7.15 3.45 -7.3 1.2" fill="#252525" fill-rule="evenodd" stroke="none"/>
    <path d="M-7.3 1.2 Q-7.15 0.5 -6.4 -0.85 L-4.5 -0.4 -1.4 -0.3 -0.65 -0.4 Q-1.05 1.0 -1.6 1.45 L-2.9 2.25 Q-4.45 1.8 -5.4 2.75 -5.95 3.8 -6.2 3.75 L-6.7 3.6 -7.15 3.45 -7.3 1.2 Z" fill="none" stroke="#1a1717" stroke-linecap="butt" stroke-linejoin="miter-clip" stroke-miterlimit="15.12109375" stroke-width="1.0"/>
    <path d="M-5.75 6.1 Q-5.65 6.35 -5.85 6.75 L-6.05 7.35 Q-5.55 8.95 -4.65 10.0 L-2.45 11.9 Q-1.85 13.35 -2.05 13.8 -3.2 15.1 -3.45 16.7 L-3.5 19.15 Q-3.75 19.5 -4.4 19.55 L-5.8 19.6 -8.3 20.3 -10.25 20.1 Q-10.8 18.8 -10.7 17.65 L-10.1 15.0 -10.15 12.9 -10.1 10.65 -9.8 10.2 -9.55 9.9 Q-9.9 8.3 -8.75 6.15 -7.65 3.9 -7.55 4.4 L-5.75 6.1" fill="url(#gradient0)" fill-rule="evenodd" stroke="none"/>
    <path d="M-5.75 6.1 Q-5.65 6.35 -5.85 6.75 L-6.05 7.35 Q-5.55 8.95 -4.65 10.0 L-2.45 11.9 Q-1.85 13.35 -2.05 13.8 -3.2 15.1 -3.45 16.7 L-3.5 19.15 Q-3.75 19.5 -4.4 19.55 L-5.8 19.6 -8.3 20.3 -10.25 20.1 Q-10.8 18.8 -10.7 17.65 L-10.1 15.0 -10.15 12.9 -10.1 10.65 -9.8 10.2 -9.55 9.9 Q-9.9 8.3 -8.75 6.15 -7.65 3.9 -7.55 4.4 L-5.75 6.1 Z" fill="none" stroke="#181819" stroke-linecap="butt" stroke-linejoin="miter-clip" stroke-miterlimit="15.12109375" stroke-width="1.0"/>
    <path d="M-9.65 10.45 L-9.35 10.35 -8.9 11.05 -7.95 11.9 -6.75 11.8 Q-5.75 12.65 -6.1 15.9 -6.5 18.95 -5.65 19.45" fill="none" stroke="#181819" stroke-linecap="round" stroke-linejoin="round" stroke-width="1.0"/>
    <path d="M-8.95 9.75 L-8.2 11.15 -6.8 11.05 -5.05 12.4 -5.15 13.3 -5.15 14.65 Q-4.95 15.3 -5.4 16.6 L-5.35 18.15 -5.0 19.3" fill="none" stroke="#161819" stroke-linecap="round" stroke-linejoin="round" stroke-opacity="0.48235294" stroke-width="1.0"/>
    <path d="M4.7 -2.65 L4.8 -0.8 Q4.85 -0.05 4.4 0.95 L3.3 1.95 3.75 1.9 Q4.15 1.95 4.3 2.5 L4.65 4.75 Q4.7 5.95 4.25 6.95" fill="none" stroke="#000000" stroke-linecap="round" stroke-linejoin="round" stroke-opacity="0.25490198" stroke-width="1.0"/>
    <path d="M-5.55 -1.05 L-6.4 -0.8 -6.75 -0.1 -7.0 0.7 -7.15 3.1 Q-7.1 4.1 -7.8 4.5 L-8.5 5.35 Q-9.3 6.35 -9.45 7.1 L-9.7 9.0 -9.8 10.25 -9.95 10.75 -10.15 11.35 -10.1 12.3 -10.1 13.3 -10.4 15.85 -10.65 16.3 Q-10.85 16.9 -10.65 17.5 L-10.15 19.6" fill="none" stroke="#000000" stroke-linecap="round" stroke-linejoin="round" stroke-opacity="0.25490198" stroke-width="1.0"/>
    <path d="M4.35 9.0 L4.35 10.15 Q4.4 11.5 4.9 13.8 L5.75 17.2 5.95 18.0" fill="none" stroke="#000000" stroke-linecap="round" stroke-linejoin="round" stroke-opacity="0.25490198" stroke-width="1.0"/>
  </g>
  <defs>
    <radialGradient cx="0" cy="0" gradientTransform="matrix(0.0043, -1.0E-4, 2.0E-4, 0.0306, -6.1, 12.15)" gradientUnits="userSpaceOnUse" id="gradient0" r="819.2" spreadMethod="pad">
      <stop offset="0.0" stop-color="#2c2c2e"/>
      <stop offset="1.0" stop-color="#505054"/>
    </radialGradient>
  </defs>
</svg>
