<?xml version="1.0" encoding="UTF-8" standalone="no"?>
<svg xmlns:ffdec="https://www.free-decompiler.com/flash" xmlns:xlink="http://www.w3.org/1999/xlink" ffdec:objectType="shape" height="23.55px" width="13.85px" xmlns="http://www.w3.org/2000/svg">
  <g transform="matrix(1.0, 0.0, 0.0, 1.0, 8.65, 3.55)">
    <path d="M-3.1 3.7 L-1.95 1.0 Q-1.3 -0.15 -0.9 0.1 -0.9 0.7 0.55 -0.3 2.0 -1.4 2.0 -0.15 L2.4 1.1 Q2.7 1.75 2.65 2.7 L2.25 3.45 Q1.95 4.2 1.95 4.65 L1.85 7.45 2.4 9.05 2.8 9.85 Q-0.35 16.05 -2.15 10.25 -2.8 8.35 -3.1 5.8 -3.35 3.4 -3.1 3.7" fill="#2f313a" fill-rule="evenodd" stroke="none"/>
    <path d="M-3.1 3.7 L-1.95 1.0 Q-1.3 -0.15 -0.9 0.1 -0.9 0.7 0.55 -0.3 2.0 -1.4 2.0 -0.15 L2.4 1.1 Q2.7 1.75 2.65 2.7 L2.25 3.45 Q1.95 4.2 1.95 4.65 L1.85 7.45 2.4 9.05 2.8 9.85 Q-0.35 16.05 -2.15 10.25 -2.8 8.35 -3.1 5.8 -3.35 3.4 -3.1 3.7 Z" fill="none" stroke="#20232a" stroke-linecap="round" stroke-linejoin="round" stroke-width="0.9500000000000001"/>
    <path d="M-4.45 11.95 Q-3.25 12.15 1.0 16.2 L-0.55 16.3 Q-0.9 16.25 -1.45 16.95 -2.0 17.55 -2.85 17.45 -4.1 17.3 -5.15 17.8 -6.2 18.25 -7.7 19.55 L-7.75 18.3 Q-8.2 15.85 -7.9 15.15 -6.65 12.35 -7.0 10.4 L-6.2 11.1 Q-5.2 11.8 -4.45 11.95" fill="url(#gradient0)" fill-rule="evenodd" stroke="none"/>
    <path d="M-4.45 11.95 Q-3.25 12.15 1.0 16.2 L-0.55 16.3 Q-0.9 16.25 -1.45 16.95 -2.0 17.55 -2.85 17.45 -4.1 17.3 -5.15 17.8 -6.2 18.25 -7.7 19.55 L-7.75 18.3 Q-8.2 15.85 -7.9 15.15 -6.65 12.35 -7.0 10.4 L-6.2 11.1 Q-5.2 11.8 -4.45 11.95 Z" fill="none" stroke="#2c2c2d" stroke-linecap="round" stroke-linejoin="round" stroke-width="0.9500000000000001"/>
    <path d="M-5.85 12.2 Q-6.5 11.9 -6.7 10.7 L-6.6 9.0 -3.85 9.2 -0.8 9.55 1.85 7.05 1.4 8.9 Q0.9 11.0 0.9 12.05 L1.8 13.55 Q2.75 14.8 2.7 15.0 1.2 17.1 0.45 17.35 L-0.8 17.4 Q-3.75 16.75 -4.05 15.35 -4.4 13.5 -5.4 12.8 L-5.85 12.2" fill="#4b4b4b" fill-rule="evenodd" stroke="none"/>
    <path d="M-5.85 12.2 Q-6.5 11.9 -6.7 10.7 L-6.6 9.0 -3.85 9.2 -0.8 9.55 1.85 7.05 1.4 8.9 Q0.9 11.0 0.9 12.05 L1.8 13.55 Q2.75 14.8 2.7 15.0 1.2 17.1 0.45 17.35 L-0.8 17.4 Q-3.75 16.75 -4.05 15.35 -4.4 13.5 -5.4 12.8 L-5.85 12.2 Z" fill="none" stroke="#2d2d32" stroke-linecap="round" stroke-linejoin="round" stroke-width="0.9500000000000001"/>
    <path d="M-2.8 9.45 L-3.25 9.3 Q-6.75 8.15 -5.25 7.7 L-5.0 7.35 -4.3 6.25 Q-4.2 6.0 -4.5 5.8 L-4.65 5.35 Q-4.15 3.8 -4.25 2.15 -4.4 0.35 -5.25 -1.25 L-3.25 -1.1 0.0 -1.2 -0.05 -0.9 -0.25 -0.45 -1.05 3.55 Q-1.1 5.8 0.1 7.8 L-1.8 9.05 Q-0.55 10.0 -2.6 9.45 L-2.8 9.45 -2.8 8.95 Q-2.3 7.5 -2.5 8.55 L-1.8 9.05 -2.4 9.4 -2.6 9.45 -2.4 9.4 -1.8 9.05 -2.5 8.55 Q-2.3 7.5 -2.8 8.95 L-2.8 9.45" fill="url(#gradient1)" fill-rule="evenodd" stroke="none"/>
    <path d="M-2.8 9.45 L-3.25 9.3 Q-6.75 8.15 -5.25 7.7 L-5.0 7.35 -4.3 6.25 Q-4.2 6.0 -4.5 5.8 L-4.65 5.35 Q-4.15 3.8 -4.25 2.15 -4.4 0.35 -5.25 -1.25 L-3.25 -1.1 0.0 -1.2 -0.05 -0.9 -0.25 -0.45 -1.05 3.55 Q-1.1 5.8 0.1 7.8 L-1.8 9.05 Q-0.55 10.0 -2.6 9.45 L-2.8 9.45 -2.8 8.95 Q-2.3 7.5 -2.5 8.55 L-1.8 9.05 -2.4 9.4 -2.6 9.45" fill="none" stroke="#2b2b2b" stroke-linecap="round" stroke-linejoin="round" stroke-width="0.9500000000000001"/>
    <path d="M-4.6 5.15 Q-4.2 9.0 2.1 7.65 L1.75 10.8 Q1.45 12.9 1.9 13.65 2.2 14.15 3.15 14.5 4.0 14.8 4.1 15.25 L4.35 16.45 Q4.5 17.25 4.25 17.55 L1.2 17.9 Q0.7 17.7 0.3 17.35 L-0.7 15.0 Q-1.75 12.75 -6.3 9.8 -6.5 7.85 -6.0 6.95 L-4.6 5.15" fill="url(#gradient2)" fill-rule="evenodd" stroke="none"/>
    <path d="M-4.6 5.15 Q-4.2 9.0 2.1 7.65 L1.75 10.8 Q1.45 12.9 1.9 13.65 2.2 14.15 3.15 14.5 4.0 14.8 4.1 15.25 L4.35 16.45 Q4.5 17.25 4.25 17.55 L1.2 17.9 Q0.7 17.7 0.3 17.35 L-0.7 15.0 Q-1.75 12.75 -6.3 9.8 -6.5 7.85 -6.0 6.95 L-4.6 5.15 Z" fill="none" stroke="#553f1e" stroke-linecap="round" stroke-linejoin="round" stroke-width="0.9500000000000001"/>
    <path d="M-4.4 1.4 Q-5.7 0.75 -5.75 0.2 L-5.45 -1.3 -2.5 -1.5 0.25 -1.3 1.25 -1.95 2.65 -2.75 Q3.4 -3.2 3.65 -3.1 4.65 2.4 2.1 4.8 L1.05 5.0 Q0.25 5.0 -0.65 3.95 -1.0 2.4 -2.2 1.6 -3.4 0.75 -4.4 1.4" fill="url(#gradient3)" fill-rule="evenodd" stroke="none"/>
    <path d="M-4.4 1.4 Q-3.4 0.75 -2.2 1.6 -1.0 2.4 -0.65 3.95 0.25 5.0 1.05 5.0 L2.1 4.8 Q4.65 2.4 3.65 -3.1 3.4 -3.2 2.65 -2.75 L1.25 -1.95 0.25 -1.3 -2.5 -1.5 -5.45 -1.3 -5.75 0.2 Q-5.7 0.75 -4.4 1.4 Z" fill="none" stroke="#533f22" stroke-linecap="butt" stroke-linejoin="miter-clip" stroke-miterlimit="11.33984375" stroke-width="0.9500000000000001"/>
    <path d="M2.15 8.15 Q3.3 8.85 3.45 10.75 3.5 11.5 3.8 11.85 3.95 12.5 3.35 13.55 2.7 14.6 2.4 14.4 0.8 13.6 0.15 12.7 -0.3 12.0 -0.4 10.85 -0.55 9.15 0.35 8.15 0.65 7.85 0.8 7.85 L0.75 8.1 2.15 8.15" fill="url(#gradient4)" fill-rule="evenodd" stroke="none"/>
    <path d="M2.15 8.15 Q3.3 8.85 3.45 10.75 3.5 11.5 3.8 11.85 3.95 12.5 3.35 13.55 2.7 14.6 2.4 14.4 0.8 13.6 0.15 12.7 -0.3 12.0 -0.4 10.85 -0.55 9.15 0.35 8.15 0.65 7.85 0.8 7.85 L0.75 8.1 2.15 8.15 Z" fill="none" stroke="#2f2f2f" stroke-linecap="butt" stroke-linejoin="miter-clip" stroke-miterlimit="11.33984375" stroke-width="0.9500000000000001"/>
    <path d="M-7.75 19.3 L-8.15 16.85 Q-8.3 15.95 -8.05 15.55 -6.65 12.9 -6.8 9.9 -6.4 9.7 -6.45 8.9 L-6.55 8.2 -6.25 7.25 Q-5.95 6.5 -5.5 6.15 L-5.2 6.05 -4.9 5.6 -4.55 5.25 Q-4.25 4.3 -4.2 3.05 -4.1 1.6 -4.6 1.4 -5.6 0.85 -5.65 0.2 -5.8 -0.4 -5.2 -1.4" fill="none" stroke="#000000" stroke-linecap="round" stroke-linejoin="round" stroke-opacity="0.18039216" stroke-width="0.9500000000000001"/>
    <path d="M4.75 17.25 L4.3 15.95 Q4.1 15.15 3.5 14.85 3.35 13.85 3.65 13.2 L3.75 12.25 3.5 11.2 3.0 9.5 2.45 8.35 1.7 6.7 Q1.5 5.95 1.95 5.0 L2.5 4.35 3.1 3.6 3.3 2.8 3.6 1.95 Q4.35 1.0 3.7 -3.0" fill="none" stroke="#010100" stroke-linecap="round" stroke-linejoin="round" stroke-opacity="0.22352941" stroke-width="0.9500000000000001"/>
  </g>
  <defs>
    <radialGradient cx="0" cy="0" gradientTransform="matrix(-0.0169, 6.0E-4, 0.003, -0.0244, -8.3, 17.15)" gradientUnits="userSpaceOnUse" id="gradient0" r="819.2" spreadMethod="pad">
      <stop offset="0.0" stop-color="#363a43"/>
      <stop offset="1.0" stop-color="#dbdce1"/>
    </radialGradient>
    <radialGradient cx="0" cy="0" gradientTransform="matrix(-0.0237, -0.0018, 0.007, -0.0264, -8.0, 4.9)" gradientUnits="userSpaceOnUse" id="gradient1" r="819.2" spreadMethod="pad">
      <stop offset="0.0" stop-color="#363a43"/>
      <stop offset="1.0" stop-color="#dbdce1"/>
    </radialGradient>
    <radialGradient cx="0" cy="0" gradientTransform="matrix(-0.0135, -1.0E-4, 0.002, -0.0212, -10.7, 11.85)" gradientUnits="userSpaceOnUse" id="gradient2" r="819.2" spreadMethod="pad">
      <stop offset="0.0" stop-color="#7c3b18"/>
      <stop offset="1.0" stop-color="#bda131"/>
    </radialGradient>
    <radialGradient cx="0" cy="0" gradientTransform="matrix(-0.0284, 0.004, 0.0, -0.0178, -15.2, 0.8)" gradientUnits="userSpaceOnUse" id="gradient3" r="819.2" spreadMethod="pad">
      <stop offset="0.0" stop-color="#7c3b18"/>
      <stop offset="1.0" stop-color="#bda131"/>
    </radialGradient>
    <radialGradient cx="0" cy="0" gradientTransform="matrix(-0.0151, -0.0029, 0.0058, -0.0193, 7.75, 12.45)" gradientUnits="userSpaceOnUse" id="gradient4" r="819.2" spreadMethod="pad">
      <stop offset="0.0" stop-color="#1f1f1f"/>
      <stop offset="1.0" stop-color="#636c6a"/>
    </radialGradient>
  </defs>
</svg>
