<?xml version="1.0" encoding="UTF-8" standalone="no"?>
<svg xmlns:ffdec="https://www.free-decompiler.com/flash" xmlns:xlink="http://www.w3.org/1999/xlink" ffdec:objectType="shape" height="15.15px" width="16.35px" xmlns="http://www.w3.org/2000/svg">
  <g transform="matrix(1.0, 0.0, 0.0, 1.0, 10.85, 7.6)">
    <path d="M0.0 -5.5 Q1.05 -4.15 1.95 0.9 0.15 3.5 0.1 6.65 L-2.35 6.55 Q-4.6 6.75 -5.95 6.5 -8.3 6.1 -9.1 5.5 L-9.15 3.0 -9.25 0.7 Q-9.4 -0.8 -8.85 -1.15 L-7.65 -1.4 Q-4.25 -1.25 -2.95 -2.9 -2.5 -3.35 -2.15 -4.55 -1.85 -5.65 -1.55 -5.75 -0.5 -6.2 0.0 -5.5" fill="#91815b" fill-rule="evenodd" stroke="none"/>
    <path d="M-8.7 -2.75 Q-8.45 -2.85 -8.4 -2.45 -6.25 -4.05 -3.6 -2.3 -3.2 -2.05 -2.8 -2.95 L-2.2 -4.65 Q-2.0 -5.05 -1.5 -5.0 L-0.6 -5.15 Q0.2 -6.05 0.45 -5.05 L0.95 -2.6 1.85 -1.85 2.65 -1.15 Q2.9 0.35 1.8 3.8 1.4 4.95 1.45 6.0 0.7 6.7 -1.75 6.75 L-3.95 6.5 Q-4.2 5.25 -5.05 3.75 -6.75 2.55 -8.05 2.65 -9.4 2.8 -9.4 4.25 -10.2 2.4 -10.4 0.55 -10.5 -0.45 -9.95 -1.45 -9.3 -2.5 -8.7 -2.75" fill="#caad6d" fill-rule="evenodd" stroke="none"/>
    <path d="M1.25 6.4 L-1.4 6.9 -4.15 7.0 -5.1 5.8 Q-5.85 4.55 -6.75 3.9 L-8.6 3.6 Q-6.25 2.9 -5.0 1.4 -4.05 0.1 -3.6 -1.8" fill="none" stroke="#8d7c51" stroke-linecap="round" stroke-linejoin="round" stroke-width="0.9500000000000001"/>
    <path d="M-0.9 -6.3 Q-0.05 -7.05 1.25 -7.2 1.75 -7.5 3.0 -6.65 L4.1 -5.7 4.45 -1.75 Q4.35 0.85 3.15 3.35 L0.2 3.75 Q-1.3 3.1 -2.15 0.85 -3.2 -1.75 -2.45 -4.2 L-0.9 -6.3" fill="#f0c468" fill-rule="evenodd" stroke="none"/>
    <path d="M-9.35 2.8 Q-5.75 2.6 -4.3 5.65 -4.1 5.95 -4.2 7.1" fill="none" stroke="#695f48" stroke-linecap="round" stroke-linejoin="round" stroke-width="0.9500000000000001"/>
    <path d="M4.7 -5.1 L4.3 -5.8 3.85 -6.55 Q0.95 -8.1 -1.1 -5.7 L-3.1 -2.0 -2.9 -1.35 -1.65 1.6 Q-0.8 3.15 0.55 4.0 L2.3 4.0 M-3.1 -2.0 L-3.05 -2.45 -3.4 -2.65 -5.55 -3.35 -6.45 -3.35 Q-7.8 -3.3 -8.6 -2.6 -7.5 -3.7 -6.05 -3.45 L-5.55 -3.35 M-3.05 -2.45 L-2.95 -2.7 -3.1 -2.55 -3.4 -2.65" fill="none" stroke="#716448" stroke-linecap="round" stroke-linejoin="round" stroke-width="0.9500000000000001"/>
    <path d="M2.05 6.85 L1.95 6.25 2.05 4.35 2.35 3.85 2.55 3.5 2.8 3.2 3.0 3.05 4.65 -0.85 4.7 -2.5 Q4.7 -3.7 4.5 -4.0" fill="none" stroke="#564b3a" stroke-linecap="round" stroke-linejoin="round" stroke-width="0.9500000000000001"/>
    <path d="M-7.95 -3.05 L-8.7 -2.75 -9.2 -2.35 -10.05 -1.2 Q-10.65 0.7 -10.15 1.95 L-9.65 2.85 -9.15 2.95 -9.05 6.3" fill="none" stroke="#564c36" stroke-linecap="round" stroke-linejoin="round" stroke-width="0.9500000000000001"/>
    <path d="M4.6 -2.5 L0.5 -2.8 -0.45 -4.0 0.7 -4.8 4.7 -5.1 4.9 -4.55 5.05 -3.6 4.6 -2.5" fill="#4f79a1" fill-rule="evenodd" stroke="none"/>
    <path d="M4.6 -2.5 L0.5 -2.8 -0.45 -4.0 0.7 -4.8 4.7 -5.1 4.9 -4.55 5.05 -3.6 4.6 -2.5 Z" fill="none" stroke="#252c4a" stroke-linecap="butt" stroke-linejoin="round" stroke-width="0.9500000000000001"/>
    <path d="M4.85 -0.1 L4.4 1.95 3.15 2.35 1.4 1.5 1.05 -0.05 1.0 -0.4 1.25 -0.85 4.4 -0.9 4.65 -0.75 4.85 -0.1" fill="#4f79a1" fill-rule="evenodd" stroke="none"/>
    <path d="M4.85 -0.1 L4.4 1.95 3.15 2.35 1.4 1.5 1.05 -0.05 1.0 -0.4 1.25 -0.85 4.4 -0.9 4.65 -0.75 4.85 -0.1 Z" fill="none" stroke="#252c4a" stroke-linecap="butt" stroke-linejoin="round" stroke-width="0.9500000000000001"/>
  </g>
</svg>
