<?xml version="1.0" encoding="UTF-8" standalone="no"?>
<svg xmlns:ffdec="https://www.free-decompiler.com/flash" xmlns:xlink="http://www.w3.org/1999/xlink" ffdec:objectType="shape" height="22.05px" width="17.25px" xmlns="http://www.w3.org/2000/svg">
  <g transform="matrix(1.0, 0.0, 0.0, 1.0, 8.7, 3.85)">
    <path d="M-6.8 15.45 L-6.65 15.0 -4.95 14.55 Q-4.4 14.55 -3.7 15.1 L-3.15 15.7 -3.8 17.15 -4.4 17.35 -6.4 17.25 -6.95 16.85 -6.7 15.9 -6.8 15.45" fill="#252525" fill-rule="evenodd" stroke="none"/>
    <path d="M-0.55 0.85 Q-0.4 1.15 -0.55 1.25 L-2.15 1.8 -2.7 2.0 Q-3.05 2.1 -3.2 1.85 -3.45 -0.15 -3.2 -0.65 L-2.9 -1.2 -2.45 -1.6 -2.3 -1.55 Q-1.8 -1.35 -0.8 0.4 L-0.55 0.85" fill="#515151" fill-rule="evenodd" stroke="none"/>
    <path d="M-2.55 -2.05 Q-3.35 -1.15 -3.5 0.55 -3.65 1.85 -3.45 2.85" fill="none" stroke="#0e0e0e" stroke-linecap="round" stroke-linejoin="round" stroke-width="0.9500000000000001"/>
    <path d="M-0.25 1.55 L-0.15 1.55 1.9 2.45 2.25 2.8 2.35 3.35 2.45 4.15 2.4 4.9 1.5 5.7 Q0.8 6.1 0.6 6.45 L-0.05 7.1 -0.85 7.7 -1.45 9.7 -1.3 10.6 -0.9 11.55 Q-1.05 11.95 -0.25 12.8 0.25 13.25 0.0 13.7 -0.55 15.0 -1.1 15.15 L-2.5 15.35 -3.2 15.2 -3.65 14.7 -4.2 14.4 -4.85 14.1 -6.15 12.65 -7.5 11.3 -7.85 10.85 -7.85 10.3 -6.45 9.45 Q-6.2 9.1 -5.35 8.9 L-4.15 8.45 Q-3.75 7.95 -3.4 6.7 -3.4 6.35 -3.7 5.95 L-4.25 5.25 -3.95 3.8 Q-3.85 3.0 -3.55 2.65 L-0.25 1.55" fill="#2d2d2d" fill-rule="evenodd" stroke="none"/>
    <path d="M0.1 13.25 L-0.2 14.2 -0.8 15.05 -2.25 15.3 -2.95 15.35 -3.95 14.55 Q-4.5 14.35 -4.15 14.05 -3.05 13.25 -2.75 12.45 -2.55 12.0 -2.8 11.35 L-3.05 10.7 -2.3 7.7 -2.05 7.45 -1.6 7.55 -0.95 7.95 -1.3 9.35 -1.45 10.05 -0.95 11.2 -0.9 11.55 -0.9 11.9 0.1 13.25 M1.2 2.25 L1.5 2.3 2.25 2.7 2.45 3.95 2.45 4.9 1.5 5.7 0.55 6.55 -0.2 7.2 -0.85 7.55 -2.0 7.05 Q-2.25 6.8 -1.9 6.45 L0.55 4.5 0.95 2.8 Q1.0 2.4 1.2 2.25" fill="#000000" fill-opacity="0.1882353" fill-rule="evenodd" stroke="none"/>
    <path d="M6.0 -1.55 L6.25 -1.55 7.1 -0.85 Q8.2 1.6 7.85 3.8 L7.4 4.65 7.0 4.9 6.55 4.95 5.6 4.05 Q5.0 1.85 5.0 1.05 4.95 -0.2 5.3 -0.75 L6.0 -1.55" fill="url(#gradient0)" fill-rule="evenodd" stroke="none"/>
    <path d="M6.0 -1.95 L7.25 -1.0 Q8.55 1.85 7.95 4.45 L6.7 5.3" fill="none" stroke="#6d1919" stroke-linecap="round" stroke-linejoin="round" stroke-width="0.8500000000000001"/>
    <path d="M6.75 4.7 L7.55 4.2 Q7.75 2.75 7.5 1.45 L5.05 1.8 M6.05 -1.45 L6.75 -0.8 7.45 1.3 7.5 1.45" fill="none" stroke="#300b0b" stroke-linecap="round" stroke-linejoin="round" stroke-width="0.9500000000000001"/>
    <path d="M7.1 -0.6 L7.3 0.1" fill="none" stroke="#ffffff" stroke-linecap="round" stroke-linejoin="round" stroke-width="0.8"/>
    <path d="M5.0 -3.0 Q5.35 -3.05 5.5 -2.75 L5.7 -2.15 5.25 -1.25 4.75 -0.4 Q4.45 0.8 5.05 3.6 5.05 4.05 5.6 4.6 L6.45 5.45 6.05 11.2 Q5.75 14.4 5.05 16.85 5.1 17.45 4.25 17.25 L1.15 16.9 -2.05 17.1 -2.7 17.35 -3.25 17.25 -2.75 15.85 -1.8 15.5 -0.7 15.35 0.35 13.7 Q0.55 13.25 0.15 12.7 L-0.55 11.85 Q-1.9 9.8 -0.55 7.9 -0.45 7.55 0.2 7.05 L1.2 6.25 Q2.55 5.5 2.75 4.95 2.85 3.75 2.5 2.6 2.25 2.25 1.4 1.9 0.45 1.55 0.15 1.25 L-0.7 -0.05 -1.75 -1.2 -2.4 -1.55 Q-2.85 -1.7 -2.9 -1.9 L-2.45 -2.95 -2.35 -2.95 1.75 -1.8 5.0 -3.0" fill="url(#gradient1)" fill-rule="evenodd" stroke="none"/>
    <path d="M6.45 10.35 L6.6 10.35 7.2 10.85 7.05 12.3 Q7.05 12.5 6.45 12.85 5.9 13.1 5.65 12.55 L5.75 11.2 Q5.7 10.8 6.45 10.35" fill="#999999" fill-rule="evenodd" stroke="none"/>
    <path d="M1.05 16.9 L0.75 16.8 Q0.6 16.6 0.75 16.45 1.6 15.9 2.1 15.7 L4.85 16.15 5.15 16.3 5.1 16.6 5.0 17.05 4.7 17.25 1.05 16.9 M3.0 9.15 L3.15 9.2 4.2 10.05 5.4 11.05 5.3 12.45 Q5.25 12.65 5.55 12.9 L5.8 13.25 5.5 15.1 5.4 15.6 5.1 15.9 3.05 15.5 2.6 15.45 2.25 15.2 2.75 9.9 2.85 9.15 3.0 9.15 M5.2 -3.1 L5.5 -2.95 5.75 -2.0 4.85 -0.6 Q4.6 0.15 4.7 1.05 4.7 2.05 5.2 3.95 L5.8 4.65 6.5 5.4 6.3 9.25 6.25 9.75 6.15 10.2 Q5.9 10.35 5.8 10.45 L5.45 10.5 3.9 9.35 2.9 8.5 2.8 6.55 2.25 5.95 Q2.0 5.7 2.45 5.3 2.9 5.05 2.85 4.5 L2.5 2.6 Q2.35 2.35 0.95 1.75 L0.2 1.3 Q0.15 0.75 -1.25 -0.4 -2.65 -1.6 -2.7 -2.1 L-2.85 -2.6 -2.7 -3.0 1.7 -1.85 Q2.95 -2.2 5.2 -3.1" fill="#010101" fill-opacity="0.27450982" fill-rule="evenodd" stroke="none"/>
    <path d="M5.55 -3.4 L1.75 -2.0 -2.65 -3.35 -3.2 -1.6 Q-1.95 -1.3 -1.25 -0.45 L-0.15 1.25 1.15 2.0 2.4 2.7 2.65 4.8 1.7 5.7 0.7 6.65 -0.05 7.35 -0.8 8.0 -1.3 9.8 -1.0 10.8 Q-0.65 11.4 -0.75 11.75 L-0.2 12.55 Q0.4 13.2 0.25 13.4 0.1 14.3 -0.6 15.1 L-1.75 15.35 -2.9 15.65 -3.35 16.65 -3.85 17.5 -3.25 17.75 Q-1.3 16.9 1.1 17.05 L5.1 17.45 6.0 13.25 5.75 12.85 5.45 12.5 5.6 10.95 6.05 10.5 6.4 10.0 6.7 5.3 5.4 4.1 4.95 1.95 Q4.7 0.65 5.0 -0.5 L6.0 -1.95 5.55 -3.4 Z" fill="none" stroke="#060606" stroke-linecap="round" stroke-linejoin="round" stroke-width="0.9500000000000001"/>
    <path d="M-0.7 15.35 Q3.05 15.45 5.15 16.1" fill="none" stroke="#060606" stroke-linecap="round" stroke-linejoin="round" stroke-width="0.9500000000000001"/>
    <path d="M5.45 10.75 L2.7 8.6 -0.55 7.9" fill="none" stroke="#060606" stroke-linecap="round" stroke-linejoin="round" stroke-width="0.9500000000000001"/>
    <path d="M6.65 10.0 L7.35 10.75 7.1 12.65 6.1 13.15" fill="none" stroke="#121212" stroke-linecap="round" stroke-linejoin="round" stroke-width="0.8500000000000001"/>
    <path d="M0.15 1.25 L-3.8 2.55 -4.45 5.1 -3.95 5.9 Q-3.45 6.45 -3.5 6.65 L-4.2 8.25 Q-4.35 8.45 -5.2 8.7 L-6.3 9.05 Q-7.15 9.9 -8.25 10.2 -7.95 11.3 -6.75 12.35 -5.3 13.6 -4.9 14.4 -4.1 14.5 -3.65 14.85 L-2.75 15.85" fill="none" stroke="#060606" stroke-linecap="round" stroke-linejoin="round" stroke-width="0.9500000000000001"/>
    <path d="M-3.4 6.7 L-0.85 7.7" fill="none" stroke="#060606" stroke-linecap="round" stroke-linejoin="round" stroke-width="0.9500000000000001"/>
    <path d="M-4.9 14.4 L-7.1 14.95 Q-6.8 15.6 -6.9 16.05 L-7.25 16.9 -6.55 17.5 -3.85 17.5" fill="none" stroke="#060606" stroke-linecap="round" stroke-linejoin="round" stroke-width="0.9500000000000001"/>
  </g>
  <defs>
    <linearGradient gradientTransform="matrix(0.0017, -1.0E-4, 1.0E-4, 0.0014, 6.45, 1.7)" gradientUnits="userSpaceOnUse" id="gradient0" spreadMethod="pad" x1="-819.2" x2="819.2">
      <stop offset="0.0" stop-color="#4c1010"/>
      <stop offset="1.0" stop-color="#f13f3f"/>
    </linearGradient>
    <linearGradient gradientTransform="matrix(0.005, -3.0E-4, 4.0E-4, 0.0043, 2.45, 7.1)" gradientUnits="userSpaceOnUse" id="gradient1" spreadMethod="pad" x1="-819.2" x2="819.2">
      <stop offset="0.0" stop-color="#282828"/>
      <stop offset="1.0" stop-color="#3c3c3c"/>
    </linearGradient>
  </defs>
</svg>
