<?xml version="1.0" encoding="UTF-8" standalone="no"?>
<svg xmlns:ffdec="https://www.free-decompiler.com/flash" xmlns:xlink="http://www.w3.org/1999/xlink" ffdec:objectType="shape" height="22.3px" width="15.85px" xmlns="http://www.w3.org/2000/svg">
  <g transform="matrix(1.0, 0.0, 0.0, 1.0, 10.35, 1.3)">
    <path d="M3.2 -0.3 L3.8 -0.1 Q4.35 -0.1 4.35 0.4 L3.45 5.35 Q3.45 6.0 3.0 5.9 2.25 5.9 2.25 5.45 L2.5 3.9 -2.25 2.5 -2.6 1.7 -2.5 0.6 -1.75 0.2 2.55 0.3 Q2.9 -0.3 3.2 -0.3" fill="#324050" fill-rule="evenodd" stroke="none"/>
    <path d="M-3.65 0.35 L-3.1 0.45 -2.75 0.75 -2.6 2.45 1.75 3.75 Q2.35 3.85 2.35 4.25 L0.55 13.75 -0.55 14.85 -0.9 16.35 Q-1.2 18.15 -1.85 19.1 -2.8 20.45 -3.7 20.5 -4.7 20.6 -5.2 19.65 -5.9 18.65 -6.0 17.2 L-5.6 14.55 -5.6 11.65 -5.75 11.2 -6.1 10.75 -7.2 9.1 Q-7.8 8.1 -7.2 7.1 L-7.4 6.0 -5.45 0.85 -4.45 0.25 -3.65 0.35" fill="#324050" fill-rule="evenodd" stroke="none"/>
    <path d="M-7.15 5.9 L-5.35 6.55 -4.85 10.0 -5.55 10.6" fill="none" stroke="#212932" stroke-linecap="round" stroke-linejoin="round" stroke-width="0.8500000000000001"/>
    <path d="M2.1 5.0 L1.6 5.15 0.1 14.1" fill="none" stroke="#6c86a5" stroke-linecap="round" stroke-linejoin="round" stroke-width="0.8500000000000001"/>
    <path d="M-1.8 0.2 L-1.5 0.2 Q-1.1 0.2 -1.05 0.4 L-0.5 1.6 3.5 2.75 Q3.85 2.85 3.85 3.25 L3.45 5.5 3.1 5.9 2.6 5.85 Q2.2 5.85 2.2 5.4 L2.5 3.95 2.4 3.85 -2.15 2.55 -2.55 2.2 -2.65 0.95 -2.4 0.5 -1.8 0.2" fill="#212932" fill-rule="evenodd" stroke="none"/>
    <path d="M-4.4 0.15 L-2.7 0.5 -2.55 2.45 2.45 3.9 0.55 13.8 -0.55 14.9 -1.1 17.55 Q-2.2 20.8 -4.05 20.55 -5.9 20.25 -6.05 16.9 -5.3 13.6 -5.65 11.35 L-6.1 10.85 -6.4 9.8 -7.4 9.35 -7.8 8.05 -7.2 7.15 -7.5 6.1 -5.45 0.8 -4.4 0.15 Z" fill="none" stroke="#11161b" stroke-linecap="round" stroke-linejoin="round" stroke-width="0.8500000000000001"/>
    <path d="M-2.75 0.7 L-1.8 0.15 2.55 0.3 2.95 -0.4 4.45 0.0 3.4 6.0 2.4 5.85" fill="none" stroke="#11161b" stroke-linecap="round" stroke-linejoin="round" stroke-width="0.8500000000000001"/>
    <path d="M1.85 6.2 L2.3 8.5 0.1 16.6 0.55 18.3 -0.35 20.6 -3.7 20.6 -6.7 20.05 -8.35 20.1 -8.9 18.15 -7.35 16.95 -7.65 9.8 -5.0 4.2 -1.9 4.1 1.85 6.2" fill="url(#gradient0)" fill-rule="evenodd" stroke="none"/>
    <path d="M-2.65 6.1 L-2.9 8.15 -3.55 8.75 -3.0 9.65 -3.55 14.15 -5.15 14.8 -5.85 15.3 -5.85 18.95 -5.65 20.05 -3.9 20.55 M-6.05 19.9 L-7.0 19.75 -7.25 18.75" fill="none" stroke="#1f1f1f" stroke-linecap="round" stroke-linejoin="round" stroke-width="0.6000000000000001"/>
    <path d="M1.85 6.2 L2.3 8.5 0.1 16.6 0.55 18.3 -0.35 20.6 -3.7 20.6 -6.7 20.05 -8.35 20.1 -8.9 18.15 -7.35 16.95 -7.65 9.8 -5.0 4.2 -1.9 4.1 1.85 6.2 Z" fill="none" stroke="#0b0b0b" stroke-linecap="round" stroke-linejoin="round" stroke-width="0.8500000000000001"/>
    <path d="M5.1 0.1 L3.75 6.6 2.25 7.5 -1.1 7.5 -2.55 5.8 -3.4 2.85 -3.05 1.4 -2.7 0.8 1.45 -0.1 2.05 1.0 3.05 0.65 3.15 -0.7 4.7 -0.9 5.1 0.1" fill="#383838" fill-rule="evenodd" stroke="none"/>
    <path d="M5.1 0.1 L3.75 6.6 2.25 7.5 -1.1 7.5 -2.55 5.8 -3.4 2.85 -3.05 1.4 -2.7 0.8 1.45 -0.1 2.05 1.0 3.05 0.65 3.15 -0.7 4.7 -0.9 5.1 0.1 Z" fill="none" stroke="#161616" stroke-linecap="round" stroke-linejoin="round" stroke-width="0.8500000000000001"/>
    <path d="M-3.4 0.0 L-2.3 0.9 -1.75 4.2 -2.4 5.8 -3.6 6.0 -7.0 10.75 -7.95 10.65 -9.9 7.35 -9.95 6.45 -6.5 0.55 -5.25 -0.2 -3.4 0.0" fill="#383838" fill-rule="evenodd" stroke="none"/>
    <path d="M-6.65 0.85 L-6.7 2.05 -4.35 6.0 -2.85 5.95" fill="none" stroke="#262626" stroke-linecap="round" stroke-linejoin="round" stroke-width="0.6000000000000001"/>
    <path d="M-6.4 0.7 L-6.45 1.85 -4.1 5.8 -2.6 5.75" fill="none" stroke="#161616" stroke-linecap="round" stroke-linejoin="round" stroke-width="0.6000000000000001"/>
    <path d="M-9.15 5.05 L-6.15 9.45" fill="none" stroke="#262626" stroke-linecap="round" stroke-linejoin="round" stroke-width="0.6000000000000001"/>
    <path d="M-8.05 3.55 L-5.1 7.9" fill="none" stroke="#262626" stroke-linecap="round" stroke-linejoin="round" stroke-width="0.6000000000000001"/>
    <path d="M-3.4 0.0 L-5.25 -0.2 -6.5 0.55 -9.95 6.45 -9.9 7.35 -7.95 10.65 -7.0 10.75 -3.6 6.0 -2.4 5.8 -1.75 4.2 -2.3 0.9 -3.4 0.0 Z" fill="none" stroke="#161616" stroke-linecap="round" stroke-linejoin="round" stroke-width="0.8500000000000001"/>
    <path d="M-7.8 3.35 L-4.75 7.7" fill="none" stroke="#161616" stroke-linecap="round" stroke-linejoin="round" stroke-width="0.6000000000000001"/>
    <path d="M-8.95 4.85 L-5.95 9.2" fill="none" stroke="#161616" stroke-linecap="round" stroke-linejoin="round" stroke-width="0.6000000000000001"/>
    <path d="M4.6 2.45 L3.4 2.0 1.75 3.65 2.45 5.85 3.6 6.45" fill="none" stroke="#161616" stroke-linecap="round" stroke-linejoin="round" stroke-width="0.8500000000000001"/>
    <path d="M-3.45 18.75 L-3.85 19.35 -4.5 19.35 -4.85 18.7 -4.5 18.15 -3.8 18.15 -3.45 18.75 Z" fill="none" stroke="#12161d" stroke-linecap="round" stroke-linejoin="bevel" stroke-width="0.15000000000000002"/>
    <path d="M-1.0 18.85 L-1.35 19.45 -2.05 19.4 -2.35 18.8 -2.0 18.25 -1.3 18.25 -1.0 18.85 Z" fill="none" stroke="#12161d" stroke-linecap="round" stroke-linejoin="bevel" stroke-width="0.15000000000000002"/>
    <path d="M-2.25 16.75 L-2.6 17.35 -3.3 17.3 -3.65 16.7 -3.3 16.1 -2.6 16.15 -2.25 16.75 Z" fill="none" stroke="#12161d" stroke-linecap="round" stroke-linejoin="bevel" stroke-width="0.15000000000000002"/>
  </g>
  <defs>
    <linearGradient gradientTransform="matrix(0.0059, 8.0E-4, -8.0E-4, 0.0059, -3.2, 12.4)" gradientUnits="userSpaceOnUse" id="gradient0" spreadMethod="pad" x1="-819.2" x2="819.2">
      <stop offset="0.0" stop-color="#292929"/>
      <stop offset="0.596078431372549" stop-color="#474747"/>
      <stop offset="1.0" stop-color="#2e2e2e"/>
    </linearGradient>
  </defs>
</svg>
