<?xml version="1.0" encoding="UTF-8" standalone="no"?>
<svg xmlns:ffdec="https://www.free-decompiler.com/flash" xmlns:xlink="http://www.w3.org/1999/xlink" ffdec:objectType="shape" height="29.65px" width="14.8px" xmlns="http://www.w3.org/2000/svg">
  <g transform="matrix(1.0, 0.0, 0.0, 1.0, 9.7, 7.2)">
    <path d="M-9.15 17.0 L-4.1 11.95 -0.95 14.5 0.25 17.2 -4.1 21.95 -8.35 21.6 -9.15 17.0" fill="#585858" fill-rule="evenodd" stroke="none"/>
    <path d="M-9.15 17.0 L-4.1 11.95 -0.95 14.5 0.25 17.2 -4.1 21.95 -8.35 21.6 -9.15 17.0 Z" fill="none" stroke="#2a8c81" stroke-linecap="round" stroke-linejoin="round" stroke-width="1.0"/>
    <path d="M-9.2 13.1 L-8.05 4.8 -4.35 6.0 -4.1 11.95 -7.4 15.3 -9.2 13.1" fill="#1e1e1e" fill-rule="evenodd" stroke="none"/>
    <path d="M-9.2 13.1 L-7.4 15.3 -4.1 11.95 -4.35 6.0 -8.05 4.8 -9.2 13.1 Z" fill="none" stroke="#2a8c81" stroke-linecap="round" stroke-linejoin="round" stroke-width="1.0"/>
    <path d="M-7.4 15.3 L-9.2 13.1 -8.05 4.8" fill="none" stroke="#000000" stroke-linecap="round" stroke-linejoin="round" stroke-width="1.0"/>
    <path d="M2.7 -6.7 L3.45 -3.65 Q4.2 -0.15 4.25 2.0 L4.6 11.15 -0.95 14.5 -4.1 11.95 -4.35 6.0 -9.0 4.55 -7.45 -3.4 2.7 -6.7" fill="#3b3b3b" fill-rule="evenodd" stroke="none"/>
    <path d="M2.7 -6.7 L3.45 -3.65 Q4.2 -0.15 4.25 2.0 L4.6 11.15 -0.95 14.5 -4.1 11.95 -4.35 6.0 -9.0 4.55 -7.45 -3.4 2.7 -6.7 Z" fill="none" stroke="#272727" stroke-linecap="round" stroke-linejoin="round" stroke-width="1.0"/>
    <path d="M-2.2 -5.1 L-3.2 -0.05 3.75 -1.6 M-4.35 6.0 L-3.2 -0.05" fill="none" stroke="#313131" stroke-linecap="round" stroke-linejoin="round" stroke-width="1.0"/>
    <path d="M-1.1 8.45 L0.55 7.15 2.6 7.75 0.9 9.05 -1.1 8.45" fill="#ff6060" fill-rule="evenodd" stroke="none"/>
    <path d="M-1.1 8.45 L0.55 7.15 2.6 7.75 0.9 9.05 -1.1 8.45 Z" fill="none" stroke="#751c1c" stroke-linecap="round" stroke-linejoin="round" stroke-width="1.0"/>
    <path d="M-1.4 3.6 L0.3 2.3 2.35 2.9 0.7 4.2 -1.4 3.6" fill="#ff6060" fill-rule="evenodd" stroke="none"/>
    <path d="M-1.4 3.6 L0.3 2.3 2.35 2.9 0.7 4.2 -1.4 3.6 Z" fill="none" stroke="#751c1c" stroke-linecap="round" stroke-linejoin="round" stroke-width="1.0"/>
    <path d="M-0.95 14.5 L0.25 17.2 -4.1 21.95 -8.35 21.6 -9.15 17.0 -4.1 11.95" fill="none" stroke="#393939" stroke-linecap="round" stroke-linejoin="round" stroke-width="1.0"/>
  </g>
</svg>
