<?xml version="1.0" encoding="UTF-8" standalone="no"?>
<svg xmlns:ffdec="https://www.free-decompiler.com/flash" xmlns:xlink="http://www.w3.org/1999/xlink" ffdec:objectType="shape" height="19.45px" width="11.0px" xmlns="http://www.w3.org/2000/svg">
  <g transform="matrix(1.0, 0.0, 0.0, 1.0, 0.0, 0.5)">
    <path d="M1.1 8.35 L1.45 5.9 1.85 3.7 Q2.05 2.95 2.4 2.3 2.85 1.2 3.6 0.3 L3.85 0.0 6.3 0.55 8.65 0.9 Q9.7 0.6 10.2 0.9 10.5 1.1 10.5 1.65 L10.35 2.8 Q4.25 4.25 1.1 8.35 M10.2 0.9 L8.15 1.0 8.65 0.9 8.15 1.0 10.2 0.9 8.45 1.45 6.75 2.1 5.6 2.65 4.05 3.75 2.5 4.95 1.45 5.9 2.5 4.95 4.05 3.75 5.6 2.65 6.75 2.1 8.45 1.45 10.2 0.9" fill="#141414" fill-rule="evenodd" stroke="none"/>
    <path d="M10.35 2.8 L9.6 5.2 7.4 5.75 Q6.5 6.05 5.15 7.2 L3.25 8.95 Q0.9 11.25 0.95 9.8 L1.0 9.3 1.1 8.35 Q4.25 4.25 10.35 2.8" fill="#211313" fill-rule="evenodd" stroke="none"/>
    <path d="M9.6 5.2 L8.6 7.4 8.45 7.7 5.4 14.2 5.15 14.85 4.45 14.1 4.45 11.15 4.45 10.05 5.15 7.2 Q6.5 6.05 7.4 5.75 L9.6 5.2" fill="#3b2323" fill-rule="evenodd" stroke="none"/>
    <path d="M0.65 12.55 L0.95 9.8 Q0.9 11.25 3.25 8.95 L5.15 7.2 4.45 10.05 4.45 11.15 2.75 12.2 Q1.5 12.75 0.65 12.55 M2.75 12.2 L3.0 11.15 2.75 12.2" fill="#232323" fill-rule="evenodd" stroke="none"/>
    <path d="M5.15 14.85 L4.2 17.4 4.05 17.7 Q3.5 18.85 2.65 18.25 L2.25 18.0 1.85 17.85 1.15 17.6 0.95 17.55 Q0.7 17.5 0.5 18.15 L0.5 14.4 0.65 12.65 0.65 12.55 Q1.5 12.75 2.75 12.2 L4.45 11.15 4.45 14.1 5.15 14.85 M2.75 12.8 L2.75 12.2 2.75 12.8" fill="#2d2d2d" fill-rule="evenodd" stroke="none"/>
    <path d="M1.1 8.35 L1.45 5.9 1.85 3.7 Q2.05 2.95 2.4 2.3 2.85 1.2 3.6 0.3 L3.85 0.0 6.3 0.55 8.65 0.9 Q9.7 0.6 10.2 0.9 10.5 1.1 10.5 1.65 L10.35 2.8 M8.65 0.9 L8.15 1.0 10.2 0.9" fill="none" stroke="#0a0a0a" stroke-linecap="round" stroke-linejoin="round" stroke-width="1.0"/>
    <path d="M10.2 0.9 L8.45 1.45 6.75 2.1 5.6 2.65 4.05 3.75 2.5 4.95 1.45 5.9" fill="none" stroke="#0f0f0f" stroke-linecap="round" stroke-linejoin="round" stroke-width="1.0"/>
    <path d="M10.35 2.8 L9.6 5.2 8.6 7.4 8.45 7.7 5.4 14.2 5.15 14.85 4.45 14.1 4.45 11.15 4.45 10.05 5.15 7.2 3.25 8.95 Q0.9 11.25 0.95 9.8 L1.0 9.3 1.1 8.35 Q4.25 4.25 10.35 2.8 M5.15 7.2 Q6.5 6.05 7.4 5.75 L9.6 5.2" fill="none" stroke="#0e0808" stroke-linecap="round" stroke-linejoin="round" stroke-width="1.0"/>
    <path d="M3.0 11.15 L2.75 12.2 2.75 12.8" fill="none" stroke="#ff094f" stroke-linecap="round" stroke-linejoin="round" stroke-width="1.0"/>
    <path d="M5.15 14.85 L4.2 17.4 4.05 17.7 Q3.5 18.85 2.65 18.25 L2.25 18.0 1.85 17.85 1.15 17.6 0.95 17.55 Q0.7 17.5 0.5 18.15 L0.5 14.4 0.65 12.65 0.65 12.55 0.95 9.8" fill="none" stroke="#0c0c0c" stroke-linecap="round" stroke-linejoin="round" stroke-width="1.0"/>
    <path d="M5.15 7.2 Q6.5 6.05 7.4 5.75 L9.6 5.2 10.35 2.8 Q4.25 4.25 1.1 8.35 L1.0 9.3 0.95 9.8 Q0.9 11.25 3.25 8.95 L5.15 7.2 4.45 10.05 4.45 14.1 5.15 14.85 5.4 14.2 8.45 7.7 8.6 7.4 9.6 5.2" fill="none" stroke="#0e0808" stroke-linecap="round" stroke-linejoin="round" stroke-width="1.0"/>
    <path d="M1.1 8.35 L1.45 5.9 1.85 3.7 Q2.05 2.95 2.4 2.3 2.85 1.2 3.6 0.3 L3.85 0.0 6.3 0.55 8.65 0.9 Q9.7 0.6 10.2 0.9 10.5 1.1 10.5 1.65 L10.35 2.8 M10.2 0.9 L8.15 1.0 8.65 0.9" fill="none" stroke="#0a0a0a" stroke-linecap="round" stroke-linejoin="round" stroke-width="1.0"/>
  </g>
</svg>
