<?xml version="1.0" encoding="UTF-8" standalone="no"?>
<svg xmlns:ffdec="https://www.free-decompiler.com/flash" xmlns:xlink="http://www.w3.org/1999/xlink" ffdec:objectType="shape" height="21.8px" width="13.5px" xmlns="http://www.w3.org/2000/svg">
  <g transform="matrix(1.0, 0.0, 0.0, 1.0, 0.4, 0.35)">
    <path d="M1.95 14.4 L1.35 12.0 Q1.2 9.9 1.6 7.9 5.05 5.1 9.75 7.1 11.0 8.4 11.45 9.95 12.25 13.5 12.05 16.35 L8.0 16.85 4.15 14.05 3.75 13.2 1.95 14.4 M6.35 8.55 L5.95 11.8 3.75 13.2 5.95 11.8 6.35 8.55 M7.2 9.4 Q8.15 12.5 9.75 15.5 L9.9 11.45 8.0 8.85 6.95 8.35 7.2 9.4" fill="#262521" fill-rule="evenodd" stroke="none"/>
    <path d="M1.95 14.4 L3.75 13.2 4.15 14.05 8.0 16.85 12.05 16.35 11.15 17.4 11.15 17.9 10.7 19.9 5.35 20.95 3.7 18.4 2.85 16.65 1.95 14.4 M7.2 9.4 L6.95 8.35 8.0 8.85 9.9 11.45 9.75 15.5 Q8.15 12.5 7.2 9.4 M11.15 17.4 L7.75 18.6 3.7 18.4 7.75 18.6 11.15 17.4" fill="#141412" fill-rule="evenodd" stroke="none"/>
    <path d="M12.05 16.35 Q12.25 13.5 11.45 9.95 11.0 8.4 9.75 7.1 5.05 5.1 1.6 7.9 1.2 9.9 1.35 12.0 L1.95 14.4 3.75 13.2 5.95 11.8 6.35 8.55 M12.05 16.35 L11.15 17.4 11.15 17.9 10.7 19.9 5.35 20.95 3.7 18.4 2.85 16.65 1.95 14.4 M3.7 18.4 L7.75 18.6 11.15 17.4" fill="none" stroke="#000000" stroke-linecap="round" stroke-linejoin="round" stroke-width="1.0"/>
    <path d="M12.5 2.85 Q12.65 6.25 11.05 9.25 7.75 11.85 7.5 19.2 4.3 15.75 1.2 16.05 -0.25 8.45 0.25 4.15 0.85 0.0 5.3 0.0 8.6 0.1 12.5 2.85" fill="#260e0e" fill-rule="evenodd" stroke="none"/>
    <path d="M10.2 1.45 L11.35 2.1 12.5 2.8 Q13.0 6.3 11.0 9.2 7.75 11.85 7.5 19.2 4.3 15.7 1.2 16.0 -0.3 8.45 0.25 4.1 L0.35 3.55 0.55 2.85 Q0.8 2.15 1.2 1.65 2.25 0.3 4.1 0.15 7.5 -0.05 10.2 1.45 Z" fill="none" stroke="#000000" stroke-linecap="round" stroke-linejoin="round" stroke-width="1.0"/>
    <path d="M6.1 6.0 L6.1 5.7 6.35 5.2 6.6 5.25 6.75 5.4 6.7 5.6 6.65 5.65 6.5 6.1 6.25 6.1 6.2 6.0 6.1 6.0 M7.3 7.25 L7.25 7.2 7.35 7.05 7.3 7.05 7.35 6.85 7.5 6.8 7.65 6.65 7.6 6.5 7.5 6.45 7.55 6.1 7.75 5.8 8.05 5.8 8.2 5.85 8.35 6.05 8.3 6.15 8.2 6.2 8.1 6.4 8.0 6.45 7.85 6.7 7.7 6.65 7.7 6.8 7.55 6.85 7.5 7.1 7.4 7.15 7.45 7.3 7.3 7.25 M2.55 9.9 L2.5 9.85 2.6 9.5 2.75 9.45 2.95 8.95 3.0 8.85 3.05 8.65 3.05 8.5 3.6 7.35 3.6 7.25 3.65 7.05 3.6 6.75 3.7 6.65 3.8 6.65 4.0 6.7 4.0 6.85 4.05 7.0 4.05 7.1 4.15 7.3 4.1 7.5 4.15 7.6 4.15 7.7 4.05 7.75 4.0 7.8 3.95 7.7 3.75 7.65 3.75 7.85 3.8 7.9 3.65 7.95 3.4 8.6 3.35 8.55 3.45 8.15 3.6 8.05 3.7 7.7 3.65 7.65 3.75 7.55 3.8 7.55 3.75 7.5 3.65 7.5 3.35 8.0 3.4 8.1 3.35 8.1 3.3 8.2 3.25 8.25 3.25 8.35 3.2 8.55 3.1 8.6 3.2 8.65 3.1 8.9 3.0 8.9 2.9 9.1 2.95 9.2 2.55 9.9 M6.7 11.1 L6.75 10.9 6.85 10.75 6.85 10.7 6.9 10.5 6.85 10.6 6.55 10.7 6.45 10.95 6.05 11.2 5.95 11.25 5.3 10.8 5.25 10.7 5.2 10.4 5.05 10.3 4.75 10.3 4.55 10.2 4.4 10.2 4.15 9.8 4.1 9.5 4.05 9.35 4.05 9.15 3.9 8.9 4.0 8.75 3.9 8.65 4.0 8.4 3.95 8.4 4.15 8.2 4.85 8.6 4.95 8.75 5.05 8.8 5.1 8.9 5.2 8.95 5.25 8.9 5.25 8.8 5.3 8.8 5.3 8.65 5.25 8.65 5.2 8.6 5.05 8.55 5.0 8.4 5.2 8.55 5.25 8.5 5.25 8.35 5.3 8.4 5.4 8.3 5.45 8.35 5.5 8.25 5.65 8.2 5.6 8.1 5.7 8.15 5.8 8.15 5.7 7.95 5.8 8.0 5.8 7.6 5.95 7.5 6.05 7.35 6.15 7.35 6.25 7.4 6.15 7.5 6.25 7.5 6.2 7.6 6.3 7.7 6.3 7.75 6.5 7.8 6.55 7.85 6.65 7.9 6.65 7.85 6.75 7.95 6.9 7.85 6.9 7.95 7.15 8.35 7.05 8.35 7.0 8.5 7.05 8.55 6.95 8.5 6.8 8.8 6.75 8.85 6.75 8.95 6.7 8.9 6.6 8.9 6.6 9.05 6.55 8.9 6.55 8.8 6.65 8.75 6.6 8.75 6.6 8.7 6.45 8.6 6.45 8.7 6.35 8.6 6.25 8.6 6.3 8.75 6.25 8.8 6.3 8.85 6.2 9.0 6.05 8.85 6.15 8.75 6.1 8.7 6.1 8.6 5.9 8.5 5.85 8.55 5.65 8.7 5.65 9.05 5.5 9.25 5.45 9.3 5.4 9.5 5.4 10.05 5.8 10.05 6.0 9.9 6.0 9.85 6.15 9.8 6.15 9.7 6.45 9.6 6.6 9.65 6.7 9.5 6.75 9.5 6.8 9.45 7.0 9.5 7.2 9.4 7.3 9.5 7.5 9.5 7.5 9.65 7.4 9.65 7.45 9.85 7.35 9.85 7.35 10.1 7.2 10.2 7.2 10.25 7.0 10.35 6.9 10.7 6.9 10.85 6.85 10.85 6.75 10.95 6.7 11.1 6.65 11.2 6.6 11.25 6.6 11.35 6.5 11.4 6.5 11.3 6.6 11.15 6.7 11.1 M8.25 7.85 L8.25 7.7 8.45 7.15 8.6 7.1 8.7 7.0 8.9 7.1 9.0 7.2 8.95 7.4 8.95 7.5 8.4 8.0 8.35 7.9 8.25 7.85 M7.6 8.4 L7.7 8.4 7.75 8.35 7.75 8.3 7.9 8.2 8.0 8.2 8.15 7.95 8.15 7.9 8.25 7.95 8.35 8.05 8.05 8.35 8.0 8.3 7.95 8.5 7.8 8.4 7.8 8.55 7.75 8.65 7.65 8.75 7.5 8.55 7.5 8.5 7.6 8.4 M7.65 9.3 L7.75 9.25 7.85 9.3 7.9 9.3 7.95 9.25 8.2 9.2 8.35 9.2 8.4 9.4 8.3 9.4 7.95 9.5 7.9 9.5 7.65 9.4 7.65 9.3 M8.45 9.4 L8.45 9.05 8.6 8.95 9.0 8.9 9.1 8.9 9.2 9.05 9.1 9.3 9.0 9.35 8.85 9.7 8.7 9.75 8.8 9.65 8.9 9.45 8.9 9.35 8.75 9.4 8.7 9.55 8.65 9.55 8.35 10.2 8.35 10.3 8.1 10.95 7.9 11.05 7.85 11.15 7.9 11.3 7.8 11.4 7.75 11.5 7.7 11.45 7.7 11.4 7.8 11.25 7.8 11.2 7.9 10.95 8.05 10.95 8.3 10.3 8.25 10.15 8.35 9.85 8.45 9.8 8.55 9.5 8.45 9.4 M6.35 6.2 L6.4 6.35 6.4 6.45 6.3 6.65 6.2 6.75 6.3 6.85 6.3 7.15 6.1 7.25 6.0 7.2 6.05 7.15 6.05 7.05 6.0 7.0 6.1 6.9 6.05 6.85 6.1 6.8 6.15 6.85 6.15 6.4 6.35 6.2 M6.9 7.75 L6.9 7.65 6.95 7.4 7.05 7.3 7.15 7.25 7.15 7.4 7.1 7.45 7.25 7.5 7.2 7.5 7.35 7.55 7.25 7.6 7.2 7.75 7.15 7.75 7.05 7.85 6.9 7.75 M8.65 9.85 L8.75 10.0 8.6 10.15 8.55 10.05 8.65 9.85" fill="#000000" fill-rule="evenodd" stroke="none"/>
    <path d="M6.6 9.2 L6.55 8.85 6.6 8.9 6.8 8.05 6.75 9.0 6.75 9.8 6.85 9.4 6.9 9.4 6.6 12.9 6.85 12.55 7.4 10.35 6.8 13.55 6.85 13.55 6.95 12.8 6.95 13.0 Q7.5 12.8 7.7 11.8 L7.85 11.1 7.9 11.25 8.15 10.45 8.2 10.9 8.25 10.8 8.4 12.5 7.1 17.3 7.1 18.6 Q4.55 16.35 1.1 15.45 4.45 12.45 4.3 12.15 L4.45 12.0 4.55 10.55 4.55 11.3 Q4.55 11.85 4.65 11.85 L4.75 11.8 5.15 9.3 5.0 11.95 5.1 11.95 5.3 11.25 5.25 11.65 5.4 11.55 5.4 11.5 5.45 11.65 5.4 11.45 5.45 11.05 Q5.35 10.7 5.7 8.75 L5.8 8.55 5.55 10.5 5.85 11.95 5.65 10.7 5.75 10.35 5.8 10.85 5.85 10.9 5.9 11.15 6.15 10.0 6.2 9.7 6.25 10.05 6.55 9.55 6.6 9.2" fill="#000000" fill-opacity="0.4392157" fill-rule="evenodd" stroke="none"/>
    <path d="M2.9 10.7 L3.3 10.1 3.35 10.55 3.05 12.35 3.15 12.1 2.85 15.85 3.1 13.75 4.4 7.8 Q6.05 0.85 5.65 3.4 L5.45 4.85 4.05 12.0 3.7 14.5 3.75 14.25 4.1 13.35 4.45 12.6 4.3 13.55 4.5 12.7 4.6 12.95 4.55 13.35 4.6 13.2 5.2 11.85 Q5.75 10.65 6.85 3.2 L5.85 11.8 6.15 10.55 6.05 11.25 5.9 13.9 6.1 13.55 6.0 13.9 6.4 12.85 6.5 12.9 8.75 3.6 6.85 12.7 6.9 12.75 7.3 12.0 7.45 12.05 7.35 12.35 Q7.35 14.35 8.25 14.0 L6.9 16.5 5.65 16.5 5.1 16.5 Q1.95 16.3 0.45 13.9 L2.25 11.4 1.6 14.95 2.45 11.85 2.55 11.85 2.65 11.9 2.9 10.7" fill="#0a0807" fill-opacity="0.31764707" fill-rule="evenodd" stroke="none"/>
    <path d="M3.3 4.8 L3.8 5.05 3.5 5.2 2.3 5.35 2.5 5.4 0.05 6.0 1.45 5.8 5.45 5.6 Q10.25 5.55 8.55 5.75 L7.6 5.95 2.8 6.25 1.1 6.55 1.35 6.55 1.95 6.65 2.55 6.85 1.85 6.85 2.5 6.9 2.35 7.1 2.2 7.1 3.2 7.4 8.9 7.0 3.4 8.05 4.25 8.0 3.75 8.15 2.1 8.6 2.35 8.65 2.1 8.7 2.85 8.85 2.85 8.95 9.25 9.0 3.05 9.25 3.05 9.3 3.6 9.55 3.6 9.75 3.4 9.7 Q2.2 10.2 2.65 11.55 L0.65 10.2 0.4 8.95 0.25 8.4 Q-0.4 5.25 0.7 3.1 2.7 4.1 2.65 4.3 L0.3 4.55 2.45 4.65 2.5 4.7 2.5 4.9 3.3 4.8" fill="#0a0807" fill-opacity="0.31764707" fill-rule="evenodd" stroke="none"/>
    <path d="M8.35 1.9 L8.35 2.3 8.45 2.45 8.85 4.3 8.95 4.4 9.0 4.7 9.25 5.05 9.2 5.2 9.1 5.35 8.85 5.4 8.75 5.25 8.55 5.15 8.5 4.95 8.25 4.8 8.2 4.55 8.0 4.45 7.95 4.4 8.0 4.15 8.0 4.1 8.15 4.15 8.35 4.1 8.3 3.8 8.2 3.8 8.25 3.65 8.05 2.65 8.2 2.65 8.35 3.25 8.25 3.4 8.35 4.0 8.45 4.0 8.5 4.15 8.4 4.25 8.5 4.25 8.55 4.3 8.65 4.2 8.55 3.65 8.55 3.35 8.4 3.25 8.45 3.2 8.5 3.05 8.5 2.9 8.35 2.85 8.35 2.55 8.4 2.45 8.3 2.4 8.2 2.05 8.3 1.95 8.25 1.6 8.1 1.55 8.1 1.3 8.25 1.3 8.35 1.9 M5.8 5.3 L6.1 5.8 6.0 6.05 6.05 6.25 5.95 6.4 5.8 6.4 5.8 6.2 5.7 6.25 5.65 6.1 5.45 6.05 5.4 6.05 5.2 6.1 5.05 6.05 4.9 6.1 4.9 6.15 4.75 6.2 4.65 6.4 4.55 6.35 4.4 6.2 4.0 6.0 4.1 5.9 4.05 5.7 3.9 5.65 4.1 5.65 4.05 5.1 4.1 5.05 4.0 5.0 4.1 4.95 4.15 4.85 4.1 4.75 4.3 4.8 4.35 4.95 4.3 5.05 4.35 5.05 4.4 5.15 4.55 5.15 4.55 5.1 4.5 5.05 4.7 5.05 4.85 4.95 4.65 4.8 4.65 4.75 4.6 4.7 4.6 4.45 4.75 4.5 4.8 4.5 4.85 4.75 4.95 4.7 4.95 4.75 5.0 4.8 5.0 4.9 5.35 4.8 5.35 4.75 5.4 4.35 5.15 3.9 5.15 3.55 5.2 3.4 5.15 3.15 4.7 2.6 4.65 2.5 4.6 2.6 4.45 2.65 4.2 2.85 4.1 3.15 4.1 3.25 4.0 3.4 4.05 3.5 3.8 3.95 3.6 4.0 3.6 4.25 3.55 4.25 3.55 4.4 3.25 4.5 3.05 4.75 3.0 4.75 2.7 4.85 2.6 4.75 2.65 4.6 2.55 4.4 2.65 4.35 2.5 4.25 2.45 4.05 2.5 3.8 2.45 3.75 2.6 3.45 2.45 2.9 2.35 2.75 2.4 2.55 2.3 2.35 2.35 2.15 2.35 2.05 2.3 1.95 2.3 1.75 2.45 1.85 2.45 2.15 2.35 2.3 2.45 2.55 2.45 2.85 2.5 2.9 2.6 3.15 2.85 2.65 2.75 2.3 3.05 1.55 4.2 1.55 4.35 1.65 4.55 1.95 4.8 1.95 5.2 1.7 5.5 1.65 5.65 1.55 6.25 1.8 6.8 2.25 6.95 2.5 7.25 2.65 7.3 2.9 7.4 3.0 7.5 3.35 7.6 3.4 7.6 3.55 7.5 3.75 6.45 3.85 6.2 3.75 6.05 3.75 5.9 3.7 5.8 3.7 5.75 3.8 5.85 3.9 5.75 4.0 5.85 4.1 6.0 4.1 6.25 4.05 6.4 4.2 6.1 4.2 6.0 4.25 6.2 4.4 6.1 4.45 6.0 4.6 5.95 4.65 5.95 4.75 5.85 4.95 5.9 5.05 5.85 5.05 5.7 5.15 5.95 5.3 5.8 5.3 M1.9 6.0 L1.95 6.15 1.85 6.45 1.5 6.8 1.4 6.95 1.1 6.8 1.0 6.45 1.15 6.25 1.0 5.7 1.1 5.55 1.1 5.4 0.9 5.35 0.9 5.05 0.95 5.0 1.1 5.05 1.15 5.55 1.15 5.7 1.2 6.1 1.25 6.2 1.4 6.05 1.3 5.75 1.4 5.7 1.2 4.75 1.1 4.65 0.85 3.65 1.05 3.35 1.0 3.15 0.85 3.05 0.85 2.65 0.95 2.7 0.95 2.75 1.0 3.05 1.05 3.1 1.1 3.45 0.95 3.6 1.25 4.55 1.35 4.7 1.45 5.1 1.4 5.3 1.55 5.7 1.65 5.8 1.65 5.7 1.9 6.0 M2.65 5.25 L2.6 5.4 2.45 5.4 2.4 5.5 2.35 5.55 2.15 5.8 1.95 5.9 1.8 5.75 1.85 5.65 2.2 5.2 2.3 5.2 2.6 5.1 2.65 5.25 M3.4 6.3 L3.35 6.4 3.3 6.45 3.05 6.35 3.1 6.25 3.05 6.1 3.1 5.95 3.45 6.05 3.5 6.1 3.4 6.15 3.4 6.3 M4.75 6.55 L4.8 6.7 4.95 7.0 4.95 7.2 4.85 7.35 4.75 7.2 4.75 7.05 4.6 7.1 4.55 7.05 4.45 7.1 4.45 6.7 4.5 6.6 4.75 6.55 M4.65 7.4 L4.8 7.45 4.8 7.7 4.9 8.0 4.8 8.3 4.8 8.4 4.95 8.55 5.15 8.55 5.3 9.0 5.35 9.35 5.3 9.55 4.95 9.85 4.9 9.8 4.8 9.85 4.45 9.75 4.45 9.6 4.5 9.5 4.45 9.15 4.5 9.0 4.5 8.6 4.7 8.5 4.7 8.45 4.55 8.3 4.65 8.1 4.55 7.75 4.65 7.65 4.5 7.55 4.65 7.4 M3.35 6.6 L3.25 6.85 3.15 6.9 3.2 7.25 3.2 7.35 2.85 7.35 3.0 6.85 3.0 6.7 3.1 6.75 3.0 6.5 3.25 6.45 3.35 6.6 M3.15 7.5 L3.3 7.65 3.45 8.5 3.35 8.7 3.3 8.85 3.0 8.9 2.8 8.8 2.6 8.45 2.85 7.45 3.0 7.55 3.15 7.5 M6.6 7.9 L6.3 7.7 6.25 7.35 6.35 7.15 6.15 7.1 6.05 7.0 5.95 6.75 6.05 6.45 6.2 6.45 6.2 6.55 6.25 6.7 6.35 6.7 6.35 6.9 6.45 6.9 6.45 7.05 6.35 7.05 6.7 7.55 6.6 7.9 M7.0 7.95 L7.25 8.35 7.35 8.95 7.35 9.1 7.0 9.3 6.75 9.2 6.65 8.95 6.65 8.85 6.55 8.35 6.55 8.15 6.75 8.0 6.95 8.05 7.0 7.95" fill="#000000" fill-rule="evenodd" stroke="none"/>
  </g>
</svg>
