<?xml version="1.0" encoding="UTF-8" standalone="no"?>
<svg xmlns:ffdec="https://www.free-decompiler.com/flash" xmlns:xlink="http://www.w3.org/1999/xlink" ffdec:objectType="shape" height="22.0px" width="16.05px" xmlns="http://www.w3.org/2000/svg">
  <g transform="matrix(1.0, 0.0, 0.0, 1.0, 10.45, 5.7)">
    <path d="M2.25 -4.6 L2.25 -4.55 Q4.65 -4.0 5.1 -2.4 L4.55 2.0 1.9 4.55 1.85 4.4 1.85 4.35 1.75 4.35 Q1.3 0.75 -0.75 -0.55 L-0.75 -0.65 -0.8 -0.75 -0.8 -0.65 -2.2 -1.15 -4.0 -1.8 -7.0 -2.85 -8.2 -3.35 -4.35 -5.2 -2.25 -4.45 1.15 -4.8 1.65 -4.75 1.6 -4.7 Q1.2 -4.25 2.25 -4.6" fill="url(#gradient0)" fill-rule="evenodd" stroke="none"/>
    <path d="M-0.8 -0.65 L-0.8 -0.75 -0.75 -0.65 -0.75 -0.55 -0.8 -0.55 -0.8 -0.65 -0.75 -0.65 -0.8 -0.65 M1.75 4.35 L1.85 4.35 1.85 4.4 1.7 4.6 1.7 4.3 1.75 4.35 1.85 4.4 1.75 4.35" fill="#6b6b83" fill-rule="evenodd" stroke="none"/>
    <path d="M-0.75 -0.55 Q1.3 0.75 1.75 4.35 L1.7 4.3 1.7 4.6 1.85 4.4 1.9 4.55 1.85 4.75 2.05 4.85 1.6 8.35 1.55 8.6 1.55 8.65 1.55 8.75 3.85 13.05 Q4.05 14.35 1.9 15.35 L-2.45 15.5 -2.2 14.95 -1.1 8.95 -1.35 8.55 -1.25 8.8 -4.2 6.0 -5.85 0.4 -5.8 0.4 -4.0 -1.75 -0.8 -0.55 -0.75 -0.55 M0.9 8.95 L0.75 8.95 0.75 9.0 0.9 8.95" fill="url(#gradient1)" fill-rule="evenodd" stroke="none"/>
    <path d="M0.9 8.95 L0.75 9.0 0.75 8.95 0.9 8.95 M-1.1 8.95 L-1.25 9.0 -1.25 8.8 -1.35 8.55 -1.1 8.95 -1.25 8.8 -1.1 8.95" fill="#242530" fill-rule="evenodd" stroke="none"/>
    <path d="M-4.35 -5.2 L-8.2 -3.35 -7.0 -2.85 -8.2 -3.3 -7.0 -2.85 -4.95 -2.05 -4.8 -2.0 -4.0 -1.75 -5.8 0.4 -5.85 0.4 -4.2 6.0 -7.9 1.35 -8.7 1.4 -8.2 -3.3 -8.2 -3.35 -5.35 -5.0 -4.35 -5.2" fill="#333333" fill-rule="evenodd" stroke="none"/>
    <path d="M1.15 -4.8 L-2.25 -4.45 -1.85 -4.75 -1.85 -4.55 -0.25 -4.9 -0.3 -5.1 1.15 -4.8 M-7.85 13.4 L-8.55 12.45 -8.95 9.7 -7.85 13.4 M-9.45 5.7 L-9.95 2.05 -9.35 1.85 -9.45 5.7" fill="#8a8580" fill-rule="evenodd" stroke="none"/>
    <path d="M-7.0 -2.85 L-4.0 -1.8 -2.2 -1.15 -4.0 -1.75 -4.8 -2.0 -4.95 -2.05 -7.0 -2.85 M-4.0 -1.8 L-4.0 -1.75 -4.0 -1.8" fill="url(#gradient2)" fill-rule="evenodd" stroke="none"/>
    <path d="M-2.2 -1.15 L-0.8 -0.65 -0.8 -0.55 -4.0 -1.75 -2.2 -1.15" fill="#4d4946" fill-rule="evenodd" stroke="none"/>
    <path d="M-7.05 14.25 L-7.65 13.55 -7.8 13.6 -7.85 13.4 -8.95 9.7 -9.45 5.7 -9.35 1.85 -8.35 1.75 -6.65 14.7 -7.05 14.25" fill="#666666" fill-rule="evenodd" stroke="none"/>
    <path d="M-2.45 15.5 L-5.95 15.6 -7.05 14.25 -6.65 14.7 -8.35 1.75 -9.35 1.85 -7.9 1.35 -4.2 6.0 -1.25 8.8 -1.25 9.0 -1.1 8.95 -2.2 14.95 -2.45 15.5" fill="url(#gradient3)" fill-rule="evenodd" stroke="none"/>
    <path d="M1.9 4.55 L4.55 2.0 5.1 -2.4 Q4.65 -4.0 2.25 -4.55 L2.25 -4.6 1.65 -4.75 1.15 -4.8 -2.25 -4.45 -4.35 -5.2 -8.2 -3.35 -8.2 -3.3 -7.0 -2.85 -4.0 -1.8 -2.2 -1.15 -0.8 -0.65 -0.75 -0.65 M-0.75 -0.55 Q1.3 0.75 1.75 4.35 L1.85 4.4 1.9 4.55 2.05 4.85 1.6 8.35 M1.55 8.75 L3.85 13.05 Q4.05 14.35 1.9 15.35 L-2.45 15.5 -5.95 15.6 -7.05 14.25 -7.65 13.55 M-7.85 13.4 L-8.55 12.45 -8.95 9.7 -9.45 5.7 -9.95 2.05 -9.35 1.85 -7.9 1.35 -8.7 1.4 -8.2 -3.3 M1.9 4.55 L1.85 4.75 2.05 4.85 M-4.0 -1.75 L-4.0 -1.8 M-0.8 -0.55 L-0.75 -0.55 M-5.8 0.4 L-4.0 -1.75 M-1.25 8.8 L-4.2 6.0 -7.9 1.35 M-1.1 8.95 L-2.2 14.95 -2.45 15.5 M-1.1 8.95 L-1.25 8.8 M-4.2 6.0 L-5.85 0.4" fill="none" stroke="#2b2927" stroke-linecap="round" stroke-linejoin="round" stroke-width="1.0"/>
  </g>
  <defs>
    <radialGradient cx="0" cy="0" gradientTransform="matrix(0.0134, -0.0013, 0.0015, 0.012, 2.6, -3.1)" gradientUnits="userSpaceOnUse" id="gradient0" r="819.2" spreadMethod="pad">
      <stop offset="0.0" stop-color="#47423c"/>
      <stop offset="1.0" stop-color="#635547"/>
    </radialGradient>
    <radialGradient cx="0" cy="0" gradientTransform="matrix(0.0183, -0.0019, 0.0021, 0.0164, -2.55, 2.65)" gradientUnits="userSpaceOnUse" id="gradient1" r="819.2" spreadMethod="pad">
      <stop offset="0.0" stop-color="#4d4946"/>
      <stop offset="1.0" stop-color="#3c3b38"/>
      <stop offset="1.0" stop-color="#333333"/>
    </radialGradient>
    <radialGradient cx="0" cy="0" gradientTransform="matrix(0.0134, -0.0013, 0.0015, 0.012, 2.6, -3.1)" gradientUnits="userSpaceOnUse" id="gradient2" r="819.2" spreadMethod="pad">
      <stop offset="0.0" stop-color="#8a8580"/>
      <stop offset="1.0" stop-color="#6d6965"/>
      <stop offset="1.0" stop-color="#333333"/>
    </radialGradient>
    <radialGradient cx="0" cy="0" gradientTransform="matrix(0.014, -0.0014, 0.0016, 0.0125, -3.25, 10.2)" gradientUnits="userSpaceOnUse" id="gradient3" r="819.2" spreadMethod="pad">
      <stop offset="0.0" stop-color="#47423c"/>
      <stop offset="1.0" stop-color="#635547"/>
    </radialGradient>
  </defs>
</svg>
