<?xml version="1.0" encoding="UTF-8" standalone="no"?>
<svg xmlns:ffdec="https://www.free-decompiler.com/flash" xmlns:xlink="http://www.w3.org/1999/xlink" ffdec:objectType="shape" height="22.15px" width="15.5px" xmlns="http://www.w3.org/2000/svg">
  <g transform="matrix(1.0, 0.0, 0.0, 1.0, 8.1, 3.35)">
    <path d="M-6.0 0.65 L-1.8 0.65 -0.35 -0.8 2.0 8.0 4.6 8.65 4.4 17.5 -3.0 18.3 -7.65 9.5 -6.0 0.65" fill="#1c1224" fill-rule="evenodd" stroke="none"/>
    <path d="M-6.0 0.65 L-7.65 9.5 -3.0 18.3 4.4 17.5 4.6 8.65 2.0 8.0 -0.35 -0.8 -1.8 0.65 -6.0 0.65 Z" fill="none" stroke="#08060a" stroke-linecap="round" stroke-linejoin="round" stroke-width="0.9500000000000001"/>
    <path d="M4.25 11.65 L-0.95 11.85 -1.5 5.6 -4.35 4.15 -4.25 -0.7 -0.65 -0.65 0.6 -2.8 6.95 -2.9 6.25 4.25 4.95 5.2 4.25 11.65" fill="url(#gradient0)" fill-rule="evenodd" stroke="none"/>
    <path d="M4.25 11.65 L4.95 5.2 6.25 4.25 6.95 -2.9 0.6 -2.8 -0.65 -0.65 -4.25 -0.7 -4.35 4.15 -1.5 5.6 -0.95 11.85 4.25 11.65 Z" fill="none" stroke="#120c17" stroke-linecap="round" stroke-linejoin="round" stroke-width="0.9500000000000001"/>
    <path d="M2.55 -2.5 L1.9 3.85 4.95 5.2" fill="none" stroke="#1f1329" stroke-linecap="round" stroke-linejoin="round" stroke-width="0.9500000000000001"/>
    <path d="M-6.9 12.9 L-3.65 12.0 -1.4 14.15 2.15 13.9 2.65 17.7 -3.55 18.35 -6.9 12.9" fill="#2c1b38" fill-rule="evenodd" stroke="none"/>
    <path d="M-6.9 12.9 L-3.65 12.0 -1.4 14.15 2.15 13.9 2.65 17.7 -3.55 18.35 -6.9 12.9 Z" fill="none" stroke="#120c17" stroke-linecap="round" stroke-linejoin="round" stroke-width="0.9500000000000001"/>
  </g>
  <defs>
    <radialGradient cx="0" cy="0" gradientTransform="matrix(0.008, -0.001, 0.001, 0.0096, 5.55, -1.1)" gradientUnits="userSpaceOnUse" id="gradient0" r="819.2" spreadMethod="pad">
      <stop offset="0.0" stop-color="#3c264b"/>
      <stop offset="1.0" stop-color="#2c1b38"/>
    </radialGradient>
  </defs>
</svg>
