<?xml version="1.0" encoding="UTF-8" standalone="no"?>
<svg xmlns:ffdec="https://www.free-decompiler.com/flash" xmlns:xlink="http://www.w3.org/1999/xlink" ffdec:objectType="shape" height="25.15px" width="17.05px" xmlns="http://www.w3.org/2000/svg">
  <g transform="matrix(1.0, 0.0, 0.0, 1.0, 2.85, -2.15)">
    <path d="M11.45 11.8 L11.45 20.55 10.85 21.25 10.25 21.9 9.75 21.9 6.45 21.35 6.45 18.6 8.85 17.95 8.85 11.05 11.45 11.8" fill="#54504d" fill-rule="evenodd" stroke="none"/>
    <path d="M11.4 9.05 L11.45 9.05 11.45 11.8 8.85 11.05 8.85 17.95 6.45 18.6 6.45 14.55 5.75 13.0 5.75 9.0 6.85 8.6 8.0 8.15 6.85 8.6 0.45 7.0 0.7 4.8 Q4.0 3.45 6.05 4.8 L5.65 5.6 8.0 8.15 11.4 9.05 M10.85 21.25 L11.9 23.55 10.8 26.8 4.05 24.5 1.2 23.45 1.2 19.9 -0.35 19.3 -2.35 14.2 -1.65 9.4 2.2 10.4 2.8 19.1 2.0 19.5 2.8 21.85 4.25 22.95 4.65 19.95 6.45 18.6 6.45 21.35 9.75 21.9 10.25 21.9 10.85 21.25 M4.05 24.5 L4.25 22.95 4.05 24.5 M1.2 19.9 L2.0 19.5 1.2 19.9" fill="#746e69" fill-rule="evenodd" stroke="none"/>
    <path d="M-1.65 9.4 L-1.45 6.55 0.45 7.0 6.85 8.6 5.75 9.0 5.75 13.0 6.45 14.55 6.45 18.6 4.65 19.95 4.25 22.95 2.8 21.85 2.0 19.5 2.8 19.1 2.2 10.4 -1.65 9.4" fill="#333333" fill-rule="evenodd" stroke="none"/>
    <path d="M11.45 9.05 L11.4 9.05 8.0 8.15 5.65 5.6 6.05 4.8 7.0 2.65 9.9 2.65 13.7 3.6 Q13.4 6.3 11.45 9.05" fill="#4d1d1d" fill-rule="evenodd" stroke="none"/>
    <path d="M11.45 9.05 L11.4 9.05 11.45 9.05 Q13.4 6.3 13.7 3.6 L9.9 2.65 7.0 2.65 6.05 4.8 5.65 5.6 8.0 8.15 11.4 9.05 M11.45 9.05 L11.45 11.8 11.45 20.55 10.85 21.25 11.9 23.55 10.8 26.8 4.05 24.5 1.2 23.45 1.2 19.9 -0.35 19.3 -2.35 14.2 -1.65 9.4 -1.45 6.55 0.45 7.0 0.7 4.8 Q4.0 3.45 6.05 4.8 M6.85 8.6 L5.75 9.0 5.75 13.0 6.45 14.55 6.45 18.6 8.85 17.95 8.85 11.05 11.45 11.8 M8.0 8.15 L6.85 8.6 0.45 7.0 M-1.65 9.4 L2.2 10.4 2.8 19.1 2.0 19.5 2.8 21.85 4.25 22.95 4.65 19.95 6.45 18.6 6.45 21.35 9.75 21.9 10.25 21.9 10.85 21.25 M2.0 19.5 L1.2 19.9 M4.25 22.95 L4.05 24.5" fill="none" stroke="#21201f" stroke-linecap="round" stroke-linejoin="round" stroke-width="1.0"/>
  </g>
</svg>
