<?xml version="1.0" encoding="UTF-8" standalone="no"?>
<svg xmlns:xlink="http://www.w3.org/1999/xlink" height="12.15px" width="14.3px" xmlns="http://www.w3.org/2000/svg">
  <g transform="matrix(1.0, 0.0, 0.0, 1.0, 19.0, 2.15)">
    <path d="M-12.95 -1.35 Q-12.05 -1.2 -11.35 -0.5 -10.5 0.35 -10.5 1.55 -10.5 2.8 -11.35 3.65 L-11.4 3.7 Q-12.1 4.4 -13.0 4.5 L-13.45 4.5 Q-14.65 4.5 -15.55 3.65 -16.4 2.8 -16.4 1.55 L-16.35 1.3 -18.1 1.55 -18.5 -0.7 -13.0 -1.65 -12.95 -1.35 -13.45 -1.35 Q-14.65 -1.35 -15.55 -0.5 -16.3 0.2 -16.35 1.3 -16.3 0.2 -15.55 -0.5 -14.65 -1.35 -13.45 -1.35 L-12.95 -1.35 M-10.15 5.5 L-9.9 5.45 -9.25 5.55 -8.45 6.05 -7.95 6.85 -7.9 7.5 Q-7.9 8.3 -8.45 8.9 -9.05 9.5 -9.9 9.5 -10.75 9.5 -11.35 8.9 -11.9 8.3 -11.9 7.5 L-11.65 6.5 -11.35 6.05 Q-10.85 5.55 -10.15 5.5 M-7.05 2.85 L-7.25 1.95 Q-7.25 1.15 -6.65 0.55 -6.05 0.0 -5.2 0.0 L-5.2 4.0 -5.65 3.95 Q-6.2 3.85 -6.65 3.45 L-7.05 2.85" fill="#becdd1" fill-rule="evenodd" stroke="none"/>
    <path d="M-11.4 3.7 L-10.15 5.5 Q-10.85 5.55 -11.35 6.05 L-11.65 6.5 -13.0 4.5 Q-12.1 4.4 -11.4 3.7 M-9.25 5.55 L-7.05 2.85 -6.65 3.45 Q-6.2 3.85 -5.65 3.95 L-7.95 6.85 -8.45 6.05 -9.25 5.55" fill="#757e8a" fill-rule="evenodd" stroke="none"/>
    <path d="M-12.95 -1.35 Q-12.05 -1.2 -11.35 -0.5 -10.5 0.35 -10.5 1.55 -10.5 2.8 -11.35 3.65 L-11.4 3.7 Q-12.1 4.4 -13.0 4.5 L-13.45 4.5 Q-14.65 4.5 -15.55 3.65 -16.4 2.8 -16.4 1.55 L-16.35 1.3 -18.1 1.55 -18.5 -0.7 M-10.15 5.5 L-9.9 5.45 -9.25 5.55 -8.45 6.05 -7.95 6.85 -7.9 7.5 Q-7.9 8.3 -8.45 8.9 -9.05 9.5 -9.9 9.5 -10.75 9.5 -11.35 8.9 -11.9 8.3 -11.9 7.5 L-11.65 6.5 -11.35 6.05 Q-10.85 5.55 -10.15 5.5 M-7.05 2.85 L-7.25 1.95 Q-7.25 1.15 -6.65 0.55 -6.05 0.0 -5.2 0.0 M-12.95 -1.35 L-13.45 -1.35 Q-14.65 -1.35 -15.55 -0.5 -16.3 0.2 -16.35 1.3 M-5.65 3.95 Q-6.2 3.85 -6.65 3.45 L-7.05 2.85" fill="none" stroke="#4f5a64" stroke-linecap="round" stroke-linejoin="round" stroke-width="1.0"/>
    <path d="M-11.4 3.7 L-10.15 5.5 M-9.25 5.55 L-7.05 2.85 M-5.2 4.0 L-5.65 3.95 -7.95 6.85 M-11.65 6.5 L-13.0 4.5 M-13.0 -1.65 L-12.95 -1.35 Z" fill="none" stroke="#2d3339" stroke-linecap="round" stroke-linejoin="round" stroke-width="1.0"/>
  </g>
</svg>
