<?xml version="1.0" encoding="UTF-8" standalone="no"?>
<svg xmlns:ffdec="https://www.free-decompiler.com/flash" xmlns:xlink="http://www.w3.org/1999/xlink" ffdec:objectType="shape" height="21.4px" width="21.5px" xmlns="http://www.w3.org/2000/svg">
  <g transform="matrix(1.0, 0.0, 0.0, 1.0, 5.65, -0.45)">
    <path d="M6.2 14.35 L-4.2 14.35 -5.65 5.75 5.35 12.7 6.2 14.35" fill="url(#gradient0)" fill-rule="evenodd" stroke="none"/>
    <path d="M4.65 3.8 L6.85 1.3 10.95 2.85 9.55 5.8 10.4 7.45 9.25 12.15 5.7 9.45 4.65 3.8" fill="#202020" fill-rule="evenodd" stroke="none"/>
    <path d="M10.8 19.95 Q10.55 20.95 8.9 21.3 6.95 21.5 5.0 20.25 4.05 19.15 4.1 17.5 L9.55 18.9 10.8 19.95 M2.55 3.5 Q4.35 2.85 4.65 3.8 L4.0 3.65 2.55 3.5" fill="#231d1d" fill-rule="evenodd" stroke="none"/>
    <path d="M12.8 14.75 L12.15 20.4 11.65 20.35 12.8 14.75 M4.1 17.5 L3.5 17.45 3.05 14.7 3.85 14.9 6.2 15.45 6.2 12.55 3.6 11.4 2.8 10.55 2.55 3.5 4.0 3.65 4.65 3.8 5.7 9.45 9.25 12.15 8.85 13.65 9.55 18.9 4.1 17.5" fill="#353535" fill-rule="evenodd" stroke="none"/>
    <path d="M3.85 14.9 L3.6 11.4 6.2 12.55 6.2 15.45 3.85 14.9" fill="#ffd858" fill-rule="evenodd" stroke="none"/>
    <path d="M10.95 2.85 L11.55 1.65 13.95 0.95 15.35 2.5 15.2 5.15 14.95 6.35 14.7 7.6 13.3 6.75 10.95 2.85 13.3 6.75 14.7 7.6 13.65 10.55 12.8 14.75 11.65 20.35 10.9 20.0 10.8 19.95 9.55 18.9 8.85 13.65 9.25 12.15 10.4 7.45 9.55 5.8 10.95 2.85 M10.65 17.15 L10.1 13.85 10.65 17.15" fill="#3c0000" fill-rule="evenodd" stroke="none"/>
    <path d="M4.1 17.5 L9.55 18.9" fill="none" stroke="#0e0e0e" stroke-linecap="round" stroke-linejoin="round" stroke-width="1.0"/>
    <path d="M4.1 17.5 L3.5 17.45 M4.65 3.8 L6.85 1.3 10.95 2.85 M4.65 3.8 L4.0 3.65 M9.25 12.15 L5.7 9.45 4.65 3.8" fill="none" stroke="#151515" stroke-linecap="round" stroke-linejoin="round" stroke-width="1.0"/>
    <path d="M10.8 19.95 Q10.55 20.95 8.9 21.3 6.95 21.5 5.0 20.25 4.05 19.15 4.1 17.5 M4.0 3.65 L2.55 3.5" fill="none" stroke="#151111" stroke-linecap="round" stroke-linejoin="round" stroke-width="1.0"/>
    <path d="M3.85 14.9 L3.6 11.4" fill="none" stroke="#4c3d02" stroke-linecap="round" stroke-linejoin="round" stroke-width="1.0"/>
    <path d="M10.95 2.85 L13.3 6.75 14.7 7.6 M10.1 13.85 L10.65 17.15" fill="none" stroke="#2c0404" stroke-linecap="round" stroke-linejoin="round" stroke-width="1.0"/>
    <path d="M6.2 15.45 L3.05 14.7 3.5 17.45" fill="none" stroke="#0e0e0e" stroke-linecap="round" stroke-linejoin="round" stroke-width="1.0"/>
    <path d="M9.55 18.9 L4.1 17.5 M2.55 3.5 L2.8 10.55 3.6 11.4 6.2 13.15 6.2 15.45" fill="none" stroke="#151515" stroke-linecap="round" stroke-linejoin="round" stroke-width="1.0"/>
    <path d="M9.55 18.9 L8.85 13.65 10.4 7.45 9.55 5.8 11.55 1.65 13.95 0.95 15.35 2.5 Q15.4 6.5 13.65 10.55 L11.65 20.35 10.8 19.95 9.55 18.9 M13.65 10.55 L10.4 7.45" fill="none" stroke="#1e0101" stroke-linecap="round" stroke-linejoin="round" stroke-width="1.0"/>
  </g>
  <defs>
    <linearGradient gradientTransform="matrix(-0.0054, 4.0E-4, -3.0E-4, -0.0034, 2.65, 16.05)" gradientUnits="userSpaceOnUse" id="gradient0" spreadMethod="pad" x1="-819.2" x2="819.2">
      <stop offset="0.0" stop-color="#ffee00" stop-opacity="0.5882353"/>
      <stop offset="1.0" stop-color="#ffd200" stop-opacity="0.0"/>
      <stop offset="1.0" stop-color="#f7ec9a" stop-opacity="0.0"/>
    </linearGradient>
  </defs>
</svg>
