<?xml version="1.0" encoding="UTF-8" standalone="no"?>
<svg xmlns:ffdec="https://www.free-decompiler.com/flash" xmlns:xlink="http://www.w3.org/1999/xlink" ffdec:objectType="shape" height="26.35px" width="16.6px" xmlns="http://www.w3.org/2000/svg">
  <g transform="matrix(1.0, 0.0, 0.0, 1.0, 9.5, 9.65)">
    <path d="M-3.35 -6.6 Q3.3 -8.9 5.15 -9.15 7.0 -9.45 6.45 -4.9 5.85 -0.4 5.6 -0.8 L3.65 0.8 2.65 1.1 -0.55 -0.15 -2.25 -4.05 -3.35 -6.6 M3.65 -3.3 L3.3 -3.3 3.65 -3.3 M5.1 -4.6 L4.75 -4.6 5.1 -4.6 M4.2 -6.15 L3.85 -6.15 4.2 -6.15" fill="url(#gradient0)" fill-rule="evenodd" stroke="none"/>
    <path d="M-3.35 -6.6 L-2.25 -4.05 -4.5 -0.45 -1.15 5.3 Q0.55 4.65 2.4 5.3 L2.15 8.55 -0.9 8.55 -2.25 10.95 -5.05 10.95 -5.05 6.35 -8.1 1.8 -8.65 0.9 -8.65 -4.25 Q-8.05 -6.15 -5.7 -6.6 L-3.35 -6.6" fill="url(#gradient1)" fill-rule="evenodd" stroke="none"/>
    <path d="M-2.25 -4.05 L-0.55 -0.15 2.65 1.1 3.65 0.8 2.4 5.3 Q0.55 4.65 -1.15 5.3 L-4.5 -0.45 -2.25 -4.05" fill="url(#gradient2)" fill-rule="evenodd" stroke="none"/>
    <path d="M-8.25 11.0 Q-8.9 6.1 -8.1 1.8 L-5.05 6.35 -5.05 10.95 -8.25 11.0" fill="url(#gradient3)" fill-rule="evenodd" stroke="none"/>
    <path d="M2.15 8.55 L2.55 8.55 3.85 10.3 Q3.1 13.95 -0.3 16.2 L-6.65 16.2 Q-8.95 13.8 -9.0 11.0 L-8.25 11.0 -5.05 10.95 -2.25 10.95 -0.9 8.55 2.15 8.55" fill="url(#gradient4)" fill-rule="evenodd" stroke="none"/>
    <path d="M3.65 0.8 L5.6 -0.8 Q5.85 -0.4 6.45 -4.9 7.0 -9.45 5.15 -9.15 3.3 -8.9 -3.35 -6.6 L-2.25 -4.05 -0.55 -0.15 2.65 1.1 3.65 0.8 M3.85 -6.15 L4.2 -6.15 M4.75 -4.6 L5.1 -4.6 M3.3 -3.3 L3.65 -3.3" fill="none" stroke="#323232" stroke-linecap="round" stroke-linejoin="round" stroke-width="1.0"/>
    <path d="M2.4 5.3 L2.15 8.55 -0.9 8.55 -2.25 10.95 -5.05 10.95 -5.05 6.35 -8.1 1.8 -8.65 0.9 -8.65 -4.25 Q-8.05 -6.15 -5.7 -6.6 L-3.35 -6.6 M2.55 8.55 L3.85 10.3 Q3.1 13.95 -0.3 16.2 L-6.65 16.2 Q-8.95 13.8 -9.0 11.0 L-8.25 11.0 -5.05 10.95 M-2.25 -4.05 L-4.5 -0.45 -1.15 5.3 Q0.55 4.65 2.4 5.3" fill="none" stroke="#666666" stroke-linecap="round" stroke-linejoin="round" stroke-width="1.0"/>
    <path d="M3.65 0.8 L2.4 5.3 M2.15 8.55 L2.55 8.55 M-8.25 11.0 Q-8.9 6.1 -8.1 1.8" fill="none" stroke="#000000" stroke-linecap="round" stroke-linejoin="round" stroke-width="1.0"/>
  </g>
  <defs>
    <linearGradient gradientTransform="matrix(0.006, 0.0, 0.0, 0.0067, 1.6, -4.4)" gradientUnits="userSpaceOnUse" id="gradient0" spreadMethod="pad" x1="-819.2" x2="819.2">
      <stop offset="0.0" stop-color="#595959"/>
      <stop offset="1.0" stop-color="#737373"/>
      <stop offset="1.0" stop-color="#595959"/>
    </linearGradient>
    <radialGradient cx="0" cy="0" gradientTransform="matrix(0.0186, 0.0, 0.0, 0.0186, -3.2, 8.4)" gradientUnits="userSpaceOnUse" id="gradient1" r="819.2" spreadMethod="pad">
      <stop offset="0.0" stop-color="#ffffff"/>
      <stop offset="1.0" stop-color="#999999"/>
      <stop offset="1.0" stop-color="#595959"/>
    </radialGradient>
    <radialGradient cx="0" cy="0" gradientTransform="matrix(0.0096, 0.0, 0.0, 0.0096, -0.6, 3.6)" gradientUnits="userSpaceOnUse" id="gradient2" r="819.2" spreadMethod="pad">
      <stop offset="0.0" stop-color="#393c57"/>
      <stop offset="1.0" stop-color="#292930"/>
      <stop offset="1.0" stop-color="#595959"/>
    </radialGradient>
    <radialGradient cx="0" cy="0" gradientTransform="matrix(0.0088, 0.0, 0.0, 0.0088, -5.5, 8.35)" gradientUnits="userSpaceOnUse" id="gradient3" r="819.2" spreadMethod="pad">
      <stop offset="0.0" stop-color="#393c57"/>
      <stop offset="1.0" stop-color="#292930"/>
      <stop offset="1.0" stop-color="#595959"/>
    </radialGradient>
    <radialGradient cx="0" cy="0" gradientTransform="matrix(0.0087, 0.0, 0.0, 0.0087, -2.75, 12.9)" gradientUnits="userSpaceOnUse" id="gradient4" r="819.2" spreadMethod="pad">
      <stop offset="0.0" stop-color="#ffffff"/>
      <stop offset="1.0" stop-color="#999999"/>
      <stop offset="1.0" stop-color="#595959"/>
    </radialGradient>
  </defs>
</svg>
