<?xml version="1.0" encoding="UTF-8" standalone="no"?>
<svg xmlns:xlink="http://www.w3.org/1999/xlink" height="59.9px" width="59.8px" xmlns="http://www.w3.org/2000/svg">
  <g transform="matrix(1.0, 0.0, 0.0, 1.0, 29.65, 29.9)">
    <path d="M29.2 -28.85 Q31.35 -26.6 24.35 -16.6 17.3 -6.45 5.25 5.6 -6.85 17.7 -16.9 24.65 -26.95 31.7 -29.15 29.5 -31.25 27.3 -24.35 17.2 -17.4 7.15 -5.3 -4.95 6.75 -17.0 16.9 -24.05 27.0 -30.95 29.2 -28.85" fill="url(#gradient0)" fill-rule="evenodd" stroke="none"/>
    <path d="M-16.4 -24.45 Q-6.4 -17.55 5.7 -5.45 17.8 6.55 24.85 16.8 31.75 26.7 29.65 28.9 27.35 31.1 17.4 24.15 7.25 17.1 -4.85 5.0 -16.95 -7.1 -23.9 -17.15 -30.85 -27.1 -28.65 -29.4 -26.45 -31.5 -16.4 -24.45" fill="url(#gradient1)" fill-rule="evenodd" stroke="none"/>
  </g>
  <defs>
    <radialGradient cx="0" cy="0" gradientTransform="matrix(0.0367, -0.0367, 0.0066, 0.0066, -0.05, 0.4)" gradientUnits="userSpaceOnUse" id="gradient0" r="819.2" spreadMethod="pad">
      <stop offset="0.0" stop-color="#9ad7fe" stop-opacity="0.8"/>
      <stop offset="1.0" stop-color="#9ad7fe" stop-opacity="0.0"/>
    </radialGradient>
    <radialGradient cx="0" cy="0" gradientTransform="matrix(0.0367, 0.0367, -0.0066, 0.0066, 0.5, -0.25)" gradientUnits="userSpaceOnUse" id="gradient1" r="819.2" spreadMethod="pad">
      <stop offset="0.0" stop-color="#9ad7fe" stop-opacity="0.8"/>
      <stop offset="1.0" stop-color="#9ad7fe" stop-opacity="0.0"/>
    </radialGradient>
  </defs>
</svg>
