<?xml version="1.0" encoding="UTF-8" standalone="no"?>
<svg xmlns:ffdec="https://www.free-decompiler.com/flash" xmlns:xlink="http://www.w3.org/1999/xlink" ffdec:objectType="shape" height="25.8px" width="13.3px" xmlns="http://www.w3.org/2000/svg">
  <g transform="matrix(1.0, 0.0, 0.0, 1.0, 6.9, 5.65)">
    <path d="M-3.95 14.3 L-4.75 11.4 -5.45 7.65 -6.15 3.15 Q-6.3 0.7 -5.65 -0.35 L-5.45 -0.6 Q-5.75 0.2 -5.55 0.65 -4.35 1.45 -1.7 1.95 L0.9 2.35 1.3 4.1 Q1.75 13.7 1.95 15.35 L1.7 16.85 Q1.35 18.05 -0.65 18.35 L-1.05 18.35 -0.75 15.25 -1.85 13.25 -3.4 13.4 -3.95 14.3 M1.4 14.1 Q0.45 14.15 -1.35 11.25 -3.2 8.35 -5.35 7.65 L-5.45 7.65 -5.35 7.65 Q-2.95 8.35 -1.2 6.95 0.6 5.6 1.0 4.35 0.6 5.6 -1.2 6.95 -2.95 8.35 -5.35 7.65 -3.2 8.35 -1.35 11.25 0.45 14.15 1.4 14.1" fill="#152026" fill-rule="evenodd" stroke="none"/>
    <path d="M-1.05 18.35 L-1.15 19.65 -2.7 19.6 -3.35 17.8 -5.1 17.5 -6.4 16.9 -5.8 15.2 -4.25 14.65 -3.95 14.3 -3.4 13.4 -1.85 13.25 -0.75 15.25 -1.05 18.35 M-3.55 16.1 Q-3.15 16.8 -2.55 16.55 -1.75 16.15 -2.05 15.5 -2.5 14.8 -3.15 15.1 -3.8 15.5 -3.55 16.1" fill="#1d2b38" fill-rule="evenodd" stroke="none"/>
    <path d="M-3.55 16.1 Q-3.8 15.5 -3.15 15.1 -2.5 14.8 -2.05 15.5 -1.75 16.15 -2.55 16.55 -3.15 16.8 -3.55 16.1" fill="#66c1fd" fill-rule="evenodd" stroke="none"/>
    <path d="M-3.95 14.3 L-4.75 11.4 -5.45 7.65 -6.15 3.15 Q-6.3 0.7 -5.65 -0.35 L-5.45 -0.6 M1.95 15.35 L1.7 16.85 Q1.35 18.05 -0.65 18.35 L-1.05 18.35 -1.15 19.65 -2.7 19.6 -3.35 17.8 -5.1 17.5 -6.4 16.9 -5.8 15.2 -4.25 14.65 -3.95 14.3 -3.4 13.4 -1.85 13.25 -0.75 15.25 -1.05 18.35 M-5.45 7.65 L-5.35 7.65 Q-2.95 8.35 -1.2 6.95 0.6 5.6 1.0 4.35 M-5.35 7.65 Q-3.2 8.35 -1.35 11.25 0.45 14.15 1.4 14.1" fill="none" stroke="#070a0a" stroke-linecap="round" stroke-linejoin="round" stroke-width="1.0"/>
    <path d="M-3.55 16.1 Q-3.8 15.5 -3.15 15.1 -2.5 14.8 -2.05 15.5 -1.75 16.15 -2.55 16.55 -3.15 16.8 -3.55 16.1 Z" fill="none" stroke="#417ba3" stroke-linecap="round" stroke-linejoin="round" stroke-width="1.0"/>
    <path d="M0.9 2.35 L-1.7 1.95 Q-4.35 1.45 -5.55 0.65 -5.75 0.2 -5.45 -0.6 L-5.4 -0.8 -5.2 -0.9 -2.3 -1.75 0.45 -2.25 0.7 -2.4 2.35 -2.3 Q1.35 -0.5 -0.6 -0.7 0.35 0.1 0.9 2.15 L0.9 2.35 M0.45 -2.25 Q-1.35 -1.15 -0.85 0.6 -0.05 1.95 0.9 2.15 -0.05 1.95 -0.85 0.6 -1.35 -1.15 0.45 -2.25" fill="#212f3a" fill-rule="evenodd" stroke="none"/>
    <path d="M0.9 2.35 L-1.7 1.95 Q-4.35 1.45 -5.55 0.65 -5.75 0.2 -5.45 -0.6 L-5.4 -0.8 -5.2 -0.9 -2.3 -1.75 0.45 -2.25 0.7 -2.4 2.35 -2.3 M0.9 2.15 Q-0.05 1.95 -0.85 0.6 -1.35 -1.15 0.45 -2.25" fill="none" stroke="#0c1113" stroke-linecap="round" stroke-linejoin="round" stroke-width="1.0"/>
    <path d="M3.8 -5.15 Q4.6 -3.1 5.85 -1.15 6.25 1.9 4.5 4.05 L2.9 15.1 Q2.75 16.2 1.95 15.35 1.75 13.7 1.3 4.1 L0.9 2.35 0.9 2.15 Q0.35 0.1 -0.6 -0.7 1.35 -0.5 2.35 -2.3 L2.4 -2.5 3.8 -5.15" fill="url(#gradient0)" fill-rule="evenodd" stroke="none"/>
    <path d="M3.8 -5.15 Q4.6 -3.1 5.85 -1.15 6.25 1.9 4.5 4.05 L2.9 15.1 Q2.75 16.2 1.95 15.35 1.75 13.7 1.3 4.1 L0.9 2.35 0.9 2.15 Q0.35 0.1 -0.6 -0.7 1.35 -0.5 2.35 -2.3 L2.4 -2.5 3.8 -5.15 Z" fill="none" stroke="#070a0a" stroke-linecap="round" stroke-linejoin="round" stroke-width="1.0"/>
  </g>
  <defs>
    <linearGradient gradientTransform="matrix(0.0141, 0.0, 0.0, 0.0061, -0.9, -13.65)" gradientUnits="userSpaceOnUse" id="gradient0" spreadMethod="pad" x1="-819.2" x2="819.2">
      <stop offset="0.0" stop-color="#152026"/>
      <stop offset="1.0" stop-color="#425668"/>
    </linearGradient>
  </defs>
</svg>
