<?xml version="1.0" encoding="UTF-8" standalone="no"?>
<svg xmlns:xlink="http://www.w3.org/1999/xlink" height="27.5px" width="41.5px" xmlns="http://www.w3.org/2000/svg">
  <g transform="matrix(1.0, 0.0, 0.0, 1.0, 20.75, 26.75)">
    <path d="M-9.15 -25.55 L9.15 -25.55 9.15 -25.15 9.15 -21.65 -9.15 -21.65 -9.15 -25.15 -9.15 -25.55 M4.95 -14.95 Q2.85 -16.85 0.0 -16.85 -2.85 -16.85 -4.95 -14.95 -6.95 -12.85 -6.95 -10.0 -6.95 -7.15 -4.95 -5.05 -2.85 -3.15 0.0 -3.15 2.85 -3.15 4.95 -5.05 6.85 -7.15 6.85 -10.0 6.85 -12.85 4.95 -14.95 M9.15 -19.05 L9.15 -16.2 11.4 -16.2 11.4 -0.35 -11.4 -0.35 -11.4 -16.2 -9.15 -16.2 -9.15 -19.05 9.15 -19.05 M-9.15 -25.15 L9.15 -25.15 -9.15 -25.15" fill="#d1756c" fill-rule="evenodd" stroke="none"/>
    <path d="M-13.75 -25.15 L-13.75 -26.0 -9.15 -26.0 -9.15 -25.55 -9.15 -25.15 -9.15 -21.65 -9.15 -19.05 -9.15 -16.2 -11.4 -16.2 -13.75 -16.2 -13.75 -19.05 -13.75 -21.65 -13.75 -25.15 M9.15 -25.55 L9.15 -26.0 13.65 -26.0 13.65 -25.15 13.65 -21.65 13.65 -19.05 13.65 -16.2 11.4 -16.2 9.15 -16.2 9.15 -19.05 9.15 -21.65 9.15 -25.15 9.15 -25.55" fill="#babec7" fill-rule="evenodd" stroke="none"/>
    <path d="M13.65 -25.15 L20.0 -25.15 20.0 -21.65 13.65 -21.65 13.65 -25.15 M20.0 -19.05 L20.0 -3.65 15.35 -3.65 13.15 -0.35 20.0 0.0 -20.0 0.0 -13.15 -0.35 -15.35 -3.65 -20.0 -3.65 -20.0 -19.05 -13.75 -19.05 -13.75 -16.2 -11.4 -16.2 -11.4 -0.35 11.4 -0.35 11.4 -16.2 13.65 -16.2 13.65 -19.05 20.0 -19.05 M-20.0 -21.65 L-20.0 -25.15 -13.75 -25.15 -13.75 -21.65 -20.0 -21.65" fill="#d2ccc0" fill-rule="evenodd" stroke="none"/>
    <path d="M20.0 -3.65 L20.0 0.0 13.15 -0.35 15.35 -3.65 20.0 -3.65 M-20.0 0.0 L-20.0 -3.65 -15.35 -3.65 -13.15 -0.35 -20.0 0.0" fill="#877e77" fill-rule="evenodd" stroke="none"/>
    <path d="M4.95 -14.95 Q6.85 -12.85 6.85 -10.0 6.85 -7.15 4.95 -5.05 2.85 -3.15 0.0 -3.15 -2.85 -3.15 -4.95 -5.05 -6.95 -7.15 -6.95 -10.0 -6.95 -12.85 -4.95 -14.95 -2.85 -16.85 0.0 -16.85 2.85 -16.85 4.95 -14.95 M1.0 -14.75 Q0.55 -15.2 -0.05 -15.2 -0.65 -15.2 -1.1 -14.75 -1.55 -14.3 -1.55 -13.7 L-1.55 -11.5 -3.95 -11.5 Q-4.55 -11.5 -5.0 -11.05 -5.45 -10.6 -5.45 -10.0 -5.45 -9.4 -5.0 -8.95 -4.55 -8.5 -3.95 -8.5 L-1.55 -8.5 -1.55 -6.1 Q-1.55 -5.5 -1.1 -5.05 -0.65 -4.6 -0.05 -4.6 0.55 -4.6 1.0 -5.05 1.45 -5.5 1.45 -6.1 L1.45 -8.5 3.75 -8.5 Q4.35 -8.5 4.8 -8.95 5.25 -9.4 5.25 -10.0 L4.8 -11.05 Q4.35 -11.5 3.75 -11.5 L1.45 -11.5 1.45 -13.7 1.0 -14.75" fill="#eaeaeb" fill-rule="evenodd" stroke="none"/>
    <path d="M20.0 -21.65 L20.0 -19.05 13.65 -19.05 13.65 -21.65 20.0 -21.65 M-20.0 -19.05 L-20.0 -21.65 -13.75 -21.65 -13.75 -19.05 -20.0 -19.05 M9.15 -21.65 L9.15 -19.05 -9.15 -19.05 -9.15 -21.65 9.15 -21.65" fill="#797369" fill-rule="evenodd" stroke="none"/>
    <path d="M1.0 -14.75 L1.45 -13.7 1.45 -11.5 3.75 -11.5 Q4.35 -11.5 4.8 -11.05 L5.25 -10.0 Q5.25 -9.4 4.8 -8.95 4.35 -8.5 3.75 -8.5 L1.45 -8.5 1.45 -6.1 Q1.45 -5.5 1.0 -5.05 0.55 -4.6 -0.05 -4.6 -0.65 -4.6 -1.1 -5.05 -1.55 -5.5 -1.55 -6.1 L-1.55 -8.5 -3.95 -8.5 Q-4.55 -8.5 -5.0 -8.95 -5.45 -9.4 -5.45 -10.0 -5.45 -10.6 -5.0 -11.05 -4.55 -11.5 -3.95 -11.5 L-1.55 -11.5 -1.55 -13.7 Q-1.55 -14.3 -1.1 -14.75 -0.65 -15.2 -0.05 -15.2 0.55 -15.2 1.0 -14.75" fill="#e5302e" fill-rule="evenodd" stroke="none"/>
    <path d="M13.65 -25.15 L20.0 -25.15 20.0 -21.65 M20.0 -19.05 L20.0 -3.65 20.0 0.0 -20.0 0.0 -20.0 -3.65 -20.0 -19.05 M-20.0 -21.65 L-20.0 -25.15 -13.75 -25.15 M20.0 -3.65 L15.35 -3.65 13.15 -0.35 M9.15 -25.15 L-9.15 -25.15 M-13.15 -0.35 L-15.35 -3.65 -20.0 -3.65" fill="none" stroke="#59504a" stroke-linecap="round" stroke-linejoin="round" stroke-width="1.5"/>
    <path d="M-13.75 -25.15 L-13.75 -26.0 -9.15 -26.0 -9.15 -25.55 -9.15 -25.15 -9.15 -21.65 -9.15 -19.05 -9.15 -16.2 -11.4 -16.2 -13.75 -16.2 -13.75 -19.05 -13.75 -21.65 -13.75 -25.15 M9.15 -25.55 L9.15 -26.0 13.65 -26.0 13.65 -25.15 13.65 -21.65 13.65 -19.05 13.65 -16.2 11.4 -16.2 9.15 -16.2 9.15 -19.05 9.15 -21.65 9.15 -25.15 9.15 -25.55" fill="none" stroke="#616371" stroke-linecap="round" stroke-linejoin="round" stroke-width="1.5"/>
    <path d="M20.0 -21.65 L20.0 -19.05 13.65 -19.05 M-20.0 -19.05 L-20.0 -21.65 -13.75 -21.65 M13.65 -21.65 L20.0 -21.65 M-13.75 -19.05 L-20.0 -19.05 M-9.15 -21.65 L9.15 -21.65 M-9.15 -19.05 L9.15 -19.05" fill="none" stroke="#35312e" stroke-linecap="round" stroke-linejoin="round" stroke-width="1.5"/>
    <path d="M4.95 -14.95 Q6.85 -12.85 6.85 -10.0 6.85 -7.15 4.95 -5.05 2.85 -3.15 0.0 -3.15 -2.85 -3.15 -4.95 -5.05 -6.95 -7.15 -6.95 -10.0 -6.95 -12.85 -4.95 -14.95 -2.85 -16.85 0.0 -16.85 2.85 -16.85 4.95 -14.95" fill="none" stroke="#a2a1a1" stroke-linecap="round" stroke-linejoin="round" stroke-width="1.5"/>
  </g>
</svg>
