<?xml version="1.0" encoding="UTF-8" standalone="no"?>
<svg xmlns:ffdec="https://www.free-decompiler.com/flash" xmlns:xlink="http://www.w3.org/1999/xlink" ffdec:objectType="shape" height="30.5px" width="17.65px" xmlns="http://www.w3.org/2000/svg">
  <g transform="matrix(1.0, 0.0, 0.0, 1.0, 2.75, 0.1)">
    <path d="M10.35 17.9 L9.1 20.05 Q10.35 24.0 9.2 27.55 7.95 28.9 5.55 28.35 2.2 27.6 1.3 24.95 L0.8 14.35 Q0.9 10.5 2.35 7.65 L10.85 11.75 10.85 16.8 10.35 17.9 M8.85 20.45 L9.1 20.05 8.85 20.45" fill="#410e0e" fill-rule="evenodd" stroke="none"/>
    <path d="M10.35 17.9 L9.1 20.05 Q10.35 24.0 9.2 27.55 7.95 28.9 5.55 28.35 2.2 27.6 1.3 24.95 L0.8 14.35 Q0.9 10.5 2.35 7.65 L10.85 11.75 10.85 16.8 10.35 17.9 M9.1 20.05 L8.85 20.45" fill="none" stroke="#250606" stroke-linecap="round" stroke-linejoin="round" stroke-width="1.0"/>
    <path d="M1.05 23.4 Q3.7 25.35 7.15 21.7 7.95 23.9 10.3 24.35 9.6 30.6 6.1 29.8 2.55 28.95 1.05 25.65 L1.05 23.4" fill="url(#gradient0)" fill-rule="evenodd" stroke="none"/>
    <path d="M7.15 21.7 Q3.7 25.35 1.05 23.4 0.15 22.75 -0.65 21.5 -3.55 15.75 -1.2 9.9 0.95 10.1 4.05 11.95 7.9 17.75 7.15 21.7" fill="url(#gradient1)" fill-rule="evenodd" stroke="none"/>
    <path d="M6.0 0.4 Q8.05 4.85 14.1 6.0 14.85 11.05 13.75 14.25 11.8 20.15 8.85 21.1 9.35 16.2 5.9 11.3 4.8 9.75 0.9 8.9 0.15 6.2 0.9 3.85 2.4 0.65 6.0 0.4" fill="url(#gradient2)" fill-rule="evenodd" stroke="none"/>
    <path d="M6.0 0.4 Q8.05 4.85 14.1 6.0 14.85 11.05 13.75 14.25 11.8 20.15 8.85 21.1 9.35 16.2 5.9 11.3 4.8 9.75 0.9 8.9 0.15 6.2 0.9 3.85 2.4 0.65 6.0 0.4 M7.15 21.7 Q3.7 25.35 1.05 23.4 L1.05 25.65 Q2.55 28.95 6.1 29.8 9.6 30.6 10.3 24.35 7.95 23.9 7.15 21.7 7.9 17.75 4.05 11.95 0.95 10.1 -1.2 9.9 -3.55 15.75 -0.65 21.5 0.15 22.75 1.05 23.4" fill="none" stroke="#040a2e" stroke-linecap="round" stroke-linejoin="round" stroke-width="1.0"/>
    <path d="M12.2 13.3 Q11.65 13.75 10.9 12.5 10.6 10.95 11.55 11.45 12.6 11.9 12.2 13.3 M11.25 14.05 Q12.6 15.2 11.4 17.2 10.45 17.55 9.75 15.4 9.95 12.95 11.25 14.05 M1.5 18.9 Q2.9 19.55 2.35 21.6 1.6 22.1 0.55 20.4 0.1 18.25 1.5 18.9 M0.35 13.7 Q2.4 14.65 1.6 17.6 0.5 18.3 -1.05 15.85 -1.7 12.75 0.35 13.7 M2.2 4.8 Q3.75 5.05 3.75 6.85 3.2 7.45 2.2 6.4 1.25 4.75 2.2 4.8 M5.15 2.1 Q7.2 3.05 6.4 6.0 5.3 6.7 3.75 4.25 3.1 1.15 5.15 2.1" fill="#152569" fill-opacity="0.29803923" fill-rule="evenodd" stroke="none"/>
  </g>
  <defs>
    <radialGradient cx="0" cy="0" gradientTransform="matrix(0.0195, 0.0, 0.0, 0.0195, 10.85, 21.7)" gradientUnits="userSpaceOnUse" id="gradient0" r="819.2" spreadMethod="pad">
      <stop offset="0.0" stop-color="#3f65ff"/>
      <stop offset="0.5333333333333333" stop-color="#271bc4"/>
      <stop offset="1.0" stop-color="#b41108"/>
    </radialGradient>
    <radialGradient cx="0" cy="0" gradientTransform="matrix(0.0222, -0.0033, 0.0033, 0.0222, 10.85, 12.7)" gradientUnits="userSpaceOnUse" id="gradient1" r="819.2" spreadMethod="pad">
      <stop offset="0.0" stop-color="#49e571"/>
      <stop offset="0.27450980392156865" stop-color="#2cbb87"/>
      <stop offset="0.5019607843137255" stop-color="#2082c6"/>
      <stop offset="0.9058823529411765" stop-color="#0400ff"/>
      <stop offset="1.0" stop-color="#ff1305"/>
    </radialGradient>
    <radialGradient cx="0" cy="0" fx="32.0" fy="0" gradientTransform="matrix(0.0272, -0.0072, 0.0096, 0.036, 16.4, 5.65)" gradientUnits="userSpaceOnUse" id="gradient2" r="819.2" spreadMethod="pad">
      <stop offset="0.0" stop-color="#49e571"/>
      <stop offset="0.27450980392156865" stop-color="#2cbb87"/>
      <stop offset="0.5019607843137255" stop-color="#2082c6"/>
      <stop offset="0.9058823529411765" stop-color="#0400ff"/>
      <stop offset="1.0" stop-color="#ff1305"/>
    </radialGradient>
  </defs>
</svg>
