<?xml version="1.0" encoding="UTF-8" standalone="no"?>
<svg xmlns:ffdec="https://www.free-decompiler.com/flash" xmlns:xlink="http://www.w3.org/1999/xlink" ffdec:objectType="shape" height="27.35px" width="15.9px" xmlns="http://www.w3.org/2000/svg">
  <g transform="matrix(1.0, 0.0, 0.0, 1.0, 1.85, 0.05)">
    <path d="M5.7 5.65 L7.55 3.25 9.5 3.25 10.9 1.4 13.55 4.0 11.75 8.35 11.45 9.05 11.4 9.05 11.0 8.95 8.0 8.15 11.0 8.95 10.9 20.2 9.35 21.85 9.75 21.9 10.25 21.9 10.85 21.25 11.9 23.55 10.8 26.8 4.05 24.5 4.25 22.95 4.65 19.95 6.45 18.6 6.45 14.55 5.75 13.0 5.75 9.0 6.85 8.6 8.0 8.15 5.7 5.65 M2.35 10.85 L4.6 17.1 2.0 19.5 1.6 19.7 -0.45 11.15 2.35 10.85 M9.35 21.85 L6.45 21.35 6.45 18.6 6.45 21.35 9.35 21.85" fill="#272727" fill-rule="evenodd" stroke="none"/>
    <path d="M13.55 4.0 L10.9 1.4 9.5 3.25 7.55 3.25 5.7 5.65 8.0 8.15 6.85 8.6 0.45 7.0 0.7 4.8 Q4.0 3.45 6.05 4.8 L7.0 2.65 9.25 2.65 10.85 0.45 13.7 3.6 13.55 3.95 13.55 4.0 M11.0 8.95 L11.4 9.05 11.45 9.05 11.45 20.55 10.85 21.25 10.25 21.9 9.75 21.9 9.35 21.85 10.9 20.2 11.0 8.95 M5.7 5.65 L5.65 5.6 6.05 4.8 5.65 5.6 5.7 5.65 M4.05 24.5 L1.2 23.45 1.2 19.9 -1.35 10.4 2.2 10.4 2.35 10.85 -0.45 11.15 1.6 19.7 2.0 19.5 2.8 21.85 4.25 22.95 4.05 24.5 M1.2 19.9 L1.6 19.7 1.2 19.9" fill="#1c1c1c" fill-rule="evenodd" stroke="none"/>
    <path d="M-1.35 10.4 L0.45 7.0 6.85 8.6 5.75 9.0 5.75 13.0 6.45 14.55 6.45 18.6 4.65 19.95 4.25 22.95 2.8 21.85 2.0 19.5 4.6 17.1 2.35 10.85 2.2 10.4 -1.35 10.4" fill="#171717" fill-rule="evenodd" stroke="none"/>
    <path d="M5.7 5.65 L8.0 8.15 11.0 8.95 11.4 9.05 11.45 9.05 11.75 8.35 M10.85 0.45 L9.25 2.65 7.0 2.65 6.05 4.8 5.65 5.6 5.7 5.65 M11.45 9.05 L11.45 20.55 10.85 21.25 11.9 23.55 10.8 26.8 4.05 24.5 1.2 23.45 1.2 19.9 -1.35 10.4 0.45 7.0 0.7 4.8 Q4.0 3.45 6.05 4.8 M11.4 9.05 L11.45 9.05 M-1.35 10.4 L2.2 10.4 2.35 10.85 4.6 17.1 2.0 19.5 2.8 21.85 4.25 22.95 4.65 19.95 6.45 18.6 6.45 14.55 5.75 13.0 5.75 9.0 6.85 8.6 0.45 7.0 M8.0 8.15 L6.85 8.6 M2.0 19.5 L1.6 19.7 1.2 19.9 M4.25 22.95 L4.05 24.5 M9.35 21.85 L9.75 21.9 10.25 21.9 10.85 21.25 M6.45 18.6 L6.45 21.35 9.35 21.85" fill="none" stroke="#101010" stroke-linecap="round" stroke-linejoin="round" stroke-width="1.0"/>
    <path d="M13.55 4.0 L13.55 3.95" fill="none" stroke="#3d1351" stroke-linecap="round" stroke-linejoin="round" stroke-width="1.0"/>
    <path d="M13.55 4.0 L10.9 1.4 9.5 3.25 7.55 3.25 5.7 5.65 M9.35 21.85 L10.9 20.2 11.0 8.95 M2.35 10.85 L-0.45 11.15 1.6 19.7" fill="none" stroke="#5a1313" stroke-linecap="round" stroke-linejoin="round" stroke-width="1.0"/>
    <path d="M11.45 9.05 L11.4 9.05 11.45 9.05 11.45 20.55 10.85 21.25 11.9 23.55 10.8 26.8 4.05 24.5 1.2 23.45 1.2 19.9 -1.35 10.4 0.45 7.0 0.7 4.8 Q4.0 3.45 6.05 4.8 L7.0 2.65 9.25 2.65 10.85 0.45 13.55 4.0 Q13.25 6.5 11.75 8.35 M6.05 4.8 L5.65 5.6 8.0 8.15 11.4 9.05 M8.0 8.15 L6.85 8.6 5.75 9.0 5.75 13.0 6.45 14.55 6.45 18.6 6.45 21.35 9.75 21.9 10.25 21.9 10.85 21.25 M0.45 7.0 L6.85 8.6 M-1.35 10.4 L2.2 10.4 4.6 17.1 2.0 19.5 2.8 21.85 4.25 22.95 4.65 19.95 6.45 18.6 M2.0 19.5 L1.2 19.9 M4.05 24.5 L4.25 22.95" fill="none" stroke="#101010" stroke-linecap="round" stroke-linejoin="round" stroke-width="1.0"/>
  </g>
</svg>
