<?xml version="1.0" encoding="UTF-8" standalone="no"?>
<svg xmlns:ffdec="https://www.free-decompiler.com/flash" xmlns:xlink="http://www.w3.org/1999/xlink" ffdec:objectType="shape" height="22.5px" width="14.6px" xmlns="http://www.w3.org/2000/svg">
  <g transform="matrix(1.0, 0.0, 0.0, 1.0, 9.25, 3.85)">
    <path d="M-2.75 3.05 L-3.5 2.3 Q-4.1 1.35 -3.65 0.45 L-2.2 -1.8 -1.2 -3.0 Q1.5 -3.85 3.45 -2.65 L4.85 -1.25 4.8 -0.25 1.9 0.4 1.05 2.6 2.75 3.6 1.05 2.6 1.9 0.4 4.8 -0.25 4.5 1.65 4.05 3.25 2.75 3.6 Q1.85 6.6 0.2 7.45 L0.0 12.0 Q0.15 13.55 -1.05 15.45 -2.15 17.35 -5.1 18.1 -7.25 18.35 -8.25 16.5 L-8.7 15.2 -8.75 14.7 -8.45 13.85 -5.55 13.3 -3.7 7.15 -5.2 5.4 -2.75 3.05 -2.45 3.35 -2.4 3.5 Q-2.3 4.0 -2.85 4.7 L-2.05 5.6 Q-1.35 6.65 -1.7 7.65 L-0.05 7.55 0.2 7.45 -0.05 7.55 -1.7 7.65 Q-1.35 6.65 -2.05 5.6 L-2.85 4.7 Q-2.3 4.0 -2.4 3.5 L-2.45 3.35 -2.75 3.05" fill="#3f474c" fill-rule="evenodd" stroke="none"/>
    <path d="M-8.45 13.85 L-5.2 5.4 -3.7 7.15 -5.55 13.3 -8.45 13.85" fill="#353a40" fill-rule="evenodd" stroke="none"/>
    <path d="M4.8 -0.25 L4.85 -1.25 3.45 -2.65 Q1.5 -3.85 -1.2 -3.0 L-2.2 -1.8 -3.65 0.45 Q-4.1 1.35 -3.5 2.3 L-2.75 3.05 -2.45 3.35 -2.4 3.5 Q-2.3 4.0 -2.85 4.7 L-2.05 5.6 Q-1.35 6.65 -1.7 7.65 L-0.05 7.55 0.2 7.45 Q1.85 6.6 2.75 3.6 L4.05 3.25 4.5 1.65 4.8 -0.25 M0.2 7.45 L0.0 12.0 Q0.15 13.55 -1.05 15.45 -2.15 17.35 -5.1 18.1 -7.25 18.35 -8.25 16.5 L-8.7 15.2 -8.75 14.7 -8.45 13.85 -5.2 5.4 -2.75 3.05" fill="none" stroke="#22262a" stroke-linecap="round" stroke-linejoin="round" stroke-width="1.0"/>
    <path d="M2.75 3.6 L1.05 2.6 1.9 0.4 4.8 -0.25 M-8.45 13.85 L-5.55 13.3 -3.7 7.15 -5.2 5.4" fill="none" stroke="#292e33" stroke-linecap="round" stroke-linejoin="round" stroke-width="1.0"/>
  </g>
</svg>
