<?xml version="1.0" encoding="UTF-8" standalone="no"?>
<svg xmlns:xlink="http://www.w3.org/1999/xlink" height="5.95px" width="50.75px" xmlns="http://www.w3.org/2000/svg">
  <g transform="matrix(1.0, 0.0, 0.0, 1.0, 23.8, 2.9)">
    <path d="M-14.3 -1.05 L-6.95 -1.35 -6.85 -1.35 -6.8 -1.35 -6.45 -1.35 4.75 -0.9 19.2 0.0 2.3 1.15 2.25 1.15 -6.8 1.5 -6.85 1.5 -6.95 1.5 -7.25 1.5 -16.35 1.0 Q-20.0 0.7 -20.85 -0.05 -21.35 -0.5 -14.35 -1.05 L-14.3 -1.05" fill="#ffffff" fill-rule="evenodd" stroke="none"/>
    <path d="M0.65 -2.55 L26.0 -1.15 26.15 -1.15 Q26.5 -1.1 26.7 -0.85 L26.95 -0.15 26.75 0.55 Q26.6 0.85 26.25 0.9 L24.7 1.0 24.65 1.0 11.9 1.9 -0.95 2.85 -6.8 3.05 -6.85 3.05 -6.95 3.05 -7.05 3.05 -13.05 2.75 -21.1 1.2 Q-26.2 -0.1 -21.6 -1.25 L-13.15 -2.65 -6.95 -2.85 -6.85 -2.85 -6.8 -2.85 -6.7 -2.85 -6.65 -2.85 0.65 -2.55 M-14.3 -1.05 L-14.35 -1.05 Q-21.35 -0.5 -20.85 -0.05 -20.0 0.7 -16.35 1.0 L-7.25 1.5 -6.95 1.5 -6.85 1.5 -6.8 1.5 2.25 1.15 2.3 1.15 19.2 0.0 4.75 -0.9 -6.45 -1.35 -6.8 -1.35 -6.85 -1.35 -6.95 -1.35 -14.3 -1.05" fill="#ffffff" fill-opacity="0.5019608" fill-rule="evenodd" stroke="none"/>
  </g>
</svg>
