<?xml version="1.0" encoding="UTF-8" standalone="no"?>
<svg xmlns:xlink="http://www.w3.org/1999/xlink" height="15.45px" width="77.0px" xmlns="http://www.w3.org/2000/svg">
  <g transform="matrix(1.0, 0.0, 0.0, 1.0, 38.5, 10.6)">
    <path d="M12.25 -7.35 Q10.85 -5.75 8.35 -4.9 5.5 -3.95 0.0 -3.6 L0.0 -10.1 7.6 -9.35 Q10.0 -8.75 12.25 -7.35" fill="url(#gradient0)" fill-rule="evenodd" stroke="none"/>
    <path d="M0.0 -3.6 Q5.5 -3.95 8.35 -4.9 10.85 -5.75 12.25 -7.35 12.8 -7.35 14.9 -8.3 17.0 -9.25 17.5 -9.2 L18.25 -7.5 19.0 -5.75 32.4 -5.75 34.5 -5.75 Q37.8 -4.9 38.0 -0.4 L34.1 3.15 Q33.2 3.75 23.1 4.35 24.0 1.9 0.0 0.5 L0.0 -3.6" fill="url(#gradient1)" fill-rule="evenodd" stroke="none"/>
    <path d="M0.0 -10.1 L0.0 -3.6 Q-5.5 -3.95 -8.4 -4.9 -10.85 -5.75 -12.25 -7.35 -10.0 -8.75 -7.6 -9.35 L0.0 -10.1" fill="url(#gradient2)" fill-rule="evenodd" stroke="none"/>
    <path d="M32.4 -5.75 L19.0 -5.75 18.25 -7.5 22.75 -9.15 28.75 -8.0 32.4 -5.75" fill="url(#gradient3)" fill-rule="evenodd" stroke="none"/>
    <path d="M0.0 -3.6 L0.0 0.5 Q-24.0 1.9 -23.1 4.35 -33.2 3.75 -34.1 3.15 L-38.0 -0.4 Q-37.6 -3.95 -34.5 -5.75 L-32.4 -5.75 -19.0 -5.75 -18.25 -7.5 -17.5 -9.2 Q-17.0 -9.25 -14.9 -8.3 -12.8 -7.35 -12.25 -7.35 -10.85 -5.75 -8.4 -4.9 -5.5 -3.95 0.0 -3.6" fill="url(#gradient4)" fill-rule="evenodd" stroke="none"/>
    <path d="M-18.25 -7.5 L-19.0 -5.75 -32.4 -5.75 -28.75 -8.0 -22.75 -9.15 -18.25 -7.5" fill="url(#gradient5)" fill-rule="evenodd" stroke="none"/>
    <path d="M12.25 -7.35 Q10.85 -5.75 8.35 -4.9 5.5 -3.95 0.0 -3.6 L0.0 0.5 Q24.0 1.9 23.1 4.35 33.2 3.75 34.1 3.15 L38.0 -0.4 Q37.8 -4.9 34.5 -5.75 L32.4 -5.75 19.0 -5.75 18.25 -7.5 17.5 -9.2 Q17.0 -9.25 14.9 -8.3 12.8 -7.35 12.25 -7.35 10.0 -8.75 7.6 -9.35 L0.0 -10.1 -7.6 -9.35 Q-10.0 -8.75 -12.25 -7.35 -12.8 -7.35 -14.9 -8.3 -17.0 -9.25 -17.5 -9.2 L-18.25 -7.5 -19.0 -5.75 -32.4 -5.75 -34.5 -5.75 Q-37.6 -3.95 -38.0 -0.4 L-34.1 3.15 Q-33.2 3.75 -23.1 4.35 -24.0 1.9 0.0 0.5 M0.0 -3.6 Q-5.5 -3.95 -8.4 -4.9 -10.85 -5.75 -12.25 -7.35 M32.4 -5.75 L28.75 -8.0 22.75 -9.15 18.25 -7.5 M-32.4 -5.75 L-28.75 -8.0 -22.75 -9.15 -18.25 -7.5" fill="none" stroke="#515151" stroke-linecap="round" stroke-linejoin="round" stroke-width="1.0"/>
  </g>
  <defs>
    <linearGradient gradientTransform="matrix(0.0, 0.0034, -0.0087, 0.0, 7.25, -8.85)" gradientUnits="userSpaceOnUse" id="gradient0" spreadMethod="pad" x1="-819.2" x2="819.2">
      <stop offset="0.0" stop-color="#a2a2a2"/>
      <stop offset="1.0" stop-color="#cccccc"/>
    </linearGradient>
    <linearGradient gradientTransform="matrix(0.0, 0.0103, -0.0342, 0.0, 28.1, -4.1)" gradientUnits="userSpaceOnUse" id="gradient1" spreadMethod="pad" x1="-819.2" x2="819.2">
      <stop offset="0.41568627450980394" stop-color="#777777"/>
      <stop offset="1.0" stop-color="#eeeeee"/>
    </linearGradient>
    <linearGradient gradientTransform="matrix(0.0, 0.0034, 0.0087, 0.0, -7.25, -8.85)" gradientUnits="userSpaceOnUse" id="gradient2" spreadMethod="pad" x1="-819.2" x2="819.2">
      <stop offset="0.0" stop-color="#a2a2a2"/>
      <stop offset="1.0" stop-color="#cccccc"/>
    </linearGradient>
    <linearGradient gradientTransform="matrix(0.0, -0.0058, 0.0031, 0.0, 25.35, -7.45)" gradientUnits="userSpaceOnUse" id="gradient3" spreadMethod="pad" x1="-819.2" x2="819.2">
      <stop offset="0.0" stop-color="#a2a2a2"/>
      <stop offset="1.0" stop-color="#cccccc"/>
    </linearGradient>
    <linearGradient gradientTransform="matrix(0.0, 0.0103, 0.0342, 0.0, -28.1, -4.1)" gradientUnits="userSpaceOnUse" id="gradient4" spreadMethod="pad" x1="-819.2" x2="819.2">
      <stop offset="0.41568627450980394" stop-color="#777777"/>
      <stop offset="1.0" stop-color="#eeeeee"/>
    </linearGradient>
    <linearGradient gradientTransform="matrix(0.0, -0.0058, 0.0031, 0.0, -25.35, -7.45)" gradientUnits="userSpaceOnUse" id="gradient5" spreadMethod="pad" x1="-819.2" x2="819.2">
      <stop offset="0.0" stop-color="#a2a2a2"/>
      <stop offset="1.0" stop-color="#cccccc"/>
    </linearGradient>
  </defs>
</svg>
