<?xml version="1.0" encoding="UTF-8" standalone="no"?>
<svg xmlns:ffdec="https://www.free-decompiler.com/flash" xmlns:xlink="http://www.w3.org/1999/xlink" ffdec:objectType="shape" height="27.9px" width="15.15px" xmlns="http://www.w3.org/2000/svg">
  <g transform="matrix(1.0, 0.0, 0.0, 1.0, -0.3, 4.55)">
    <path d="M10.15 1.9 Q11.6 2.9 12.2 4.6 L10.4 17.65 9.35 20.75 3.8 20.55 3.05 19.55 2.75 4.65 Q3.0 2.9 4.95 1.75 L8.45 1.4 9.35 1.6 10.15 1.9" fill="url(#gradient0)" fill-rule="evenodd" stroke="none"/>
    <path d="M10.15 1.9 L9.35 1.6 8.45 1.4 4.95 1.75 Q3.0 2.9 2.75 4.65 L3.05 19.55 3.8 20.55 9.35 20.75 10.4 17.65 12.2 4.6 Q11.6 2.9 10.15 1.9 Z" fill="none" stroke="#020202" stroke-linecap="round" stroke-linejoin="round" stroke-width="1.0"/>
    <path d="M5.05 21.9 Q3.2 22.0 1.95 20.9 L0.9 21.5 Q0.4 19.3 2.2 17.8 L7.25 19.05 4.9 20.5 Q4.75 21.0 4.9 21.5 L5.05 21.9" fill="url(#gradient1)" fill-rule="evenodd" stroke="none"/>
    <path d="M7.95 6.1 L1.4 7.05 1.1 5.0 2.15 4.85 7.95 3.9 7.95 6.1" fill="url(#gradient2)" fill-rule="evenodd" stroke="none"/>
    <path d="M2.15 4.85 Q1.8 3.5 2.45 2.6 L8.2 0.8 9.95 -4.05 10.0 -4.0 13.1 -2.1 Q13.55 -1.3 13.5 -0.4 L12.2 -0.25 11.45 1.0 10.05 1.1 9.9 1.15 9.25 1.45 Q8.5 1.75 8.05 2.35 L7.95 3.9 2.15 4.85" fill="url(#gradient3)" fill-rule="evenodd" stroke="none"/>
    <path d="M13.5 -0.4 L14.25 0.0 14.9 1.15 14.95 2.25 12.8 8.65 10.75 9.4 9.2 9.4 Q8.0 8.45 7.95 7.2 L7.95 6.1 7.95 3.9 8.05 2.35 Q8.5 1.75 9.25 1.45 L9.9 1.15 10.05 1.1 11.45 1.0 12.2 -0.25 13.5 -0.4 M11.0 7.8 L10.75 7.8 11.0 7.8 M13.25 2.0 L13.0 2.0 13.25 2.0" fill="url(#gradient4)" fill-rule="evenodd" stroke="none"/>
    <path d="M5.05 21.9 L4.9 21.5 Q4.75 21.0 4.9 20.5 L7.25 19.05 10.65 16.7 10.7 16.7 11.65 16.0 Q12.3 16.85 12.25 17.55 L11.85 19.6 11.2 22.15 10.95 22.85 5.3 22.35 5.05 21.9 M10.4 20.95 L10.15 20.95 10.4 20.95 M11.25 17.8 L11.0 17.8 11.25 17.8 M7.25 20.95 L7.0 20.95 7.25 20.95" fill="url(#gradient5)" fill-rule="evenodd" stroke="none"/>
    <path d="M2.15 4.85 Q1.8 3.5 2.45 2.6 L8.2 0.8 9.95 -4.05 10.0 -4.0 13.1 -2.1 Q13.55 -1.3 13.5 -0.4 L14.25 0.0 14.9 1.15 14.95 2.25 12.8 8.65 10.75 9.4 9.2 9.4 Q8.0 8.45 7.95 7.2 L7.95 6.1 1.4 7.05 1.1 5.0 2.15 4.85 7.95 3.9 8.05 2.35 Q8.5 1.75 9.25 1.45 L9.9 1.15 10.05 1.1 11.45 1.0 12.2 -0.25 13.5 -0.4 M7.95 3.9 L7.95 6.1 M7.25 19.05 L2.2 17.8 Q0.4 19.3 0.9 21.5 L1.95 20.9 Q3.2 22.0 5.05 21.9 L4.9 21.5 Q4.75 21.0 4.9 20.5 L7.25 19.05 10.65 16.7 10.7 16.7 11.65 16.0 Q12.3 16.85 12.25 17.55 L11.85 19.6 11.2 22.15 10.95 22.85 5.3 22.35 5.05 21.9" fill="none" stroke="#020202" stroke-linecap="round" stroke-linejoin="round" stroke-width="1.0"/>
    <path d="M13.0 2.0 L13.25 2.0 M10.75 7.8 L11.0 7.8 M7.0 20.95 L7.25 20.95 M11.0 17.8 L11.25 17.8 M10.15 20.95 L10.4 20.95" fill="none" stroke="#000000" stroke-linecap="round" stroke-linejoin="round" stroke-width="1.0"/>
  </g>
  <defs>
    <radialGradient cx="0" cy="0" fx="192.0" fy="0" gradientTransform="matrix(0.006, 0.0, 0.0, 0.0124, 8.8, 9.3)" gradientUnits="userSpaceOnUse" id="gradient0" r="819.2" spreadMethod="pad">
      <stop offset="0.0" stop-color="#1e1e1e"/>
      <stop offset="0.4470588235294118" stop-color="#171717"/>
      <stop offset="1.0" stop-color="#0e0e0e"/>
      <stop offset="1.0" stop-color="#383838"/>
    </radialGradient>
    <radialGradient cx="0" cy="0" fx="192.0" fy="0" gradientTransform="matrix(0.0103, 0.0, 0.0, 0.0103, 9.95, 17.85)" gradientUnits="userSpaceOnUse" id="gradient1" r="819.2" spreadMethod="pad">
      <stop offset="0.0" stop-color="#2e2e2e"/>
      <stop offset="1.0" stop-color="#020202"/>
      <stop offset="1.0" stop-color="#0e0d0d"/>
    </radialGradient>
    <radialGradient cx="0" cy="0" fx="192.0" fy="0" gradientTransform="matrix(0.0116, 0.0, 0.0, 0.0116, 8.65, 0.6)" gradientUnits="userSpaceOnUse" id="gradient2" r="819.2" spreadMethod="pad">
      <stop offset="0.0" stop-color="#2e2e2e"/>
      <stop offset="1.0" stop-color="#020202"/>
      <stop offset="1.0" stop-color="#0e0d0d"/>
    </radialGradient>
    <radialGradient cx="0" cy="0" fx="192.0" fy="0" gradientTransform="matrix(0.026, 0.0, 0.0, 0.0119, 16.0, -3.95)" gradientUnits="userSpaceOnUse" id="gradient3" r="819.2" spreadMethod="pad">
      <stop offset="0.0" stop-color="#202020"/>
      <stop offset="1.0" stop-color="#121212"/>
      <stop offset="1.0" stop-color="#0e0d0d"/>
    </radialGradient>
    <radialGradient cx="0" cy="0" fx="192.0" fy="0" gradientTransform="matrix(0.0156, 0.0, 0.0, 0.0156, 16.6, 0.65)" gradientUnits="userSpaceOnUse" id="gradient4" r="819.2" spreadMethod="pad">
      <stop offset="0.0" stop-color="#2e2e2e"/>
      <stop offset="1.0" stop-color="#020202"/>
      <stop offset="1.0" stop-color="#0e0d0d"/>
    </radialGradient>
    <radialGradient cx="0" cy="0" fx="192.0" fy="0" gradientTransform="matrix(0.0181, 0.0, 0.0, 0.0181, 16.05, 16.3)" gradientUnits="userSpaceOnUse" id="gradient5" r="819.2" spreadMethod="pad">
      <stop offset="0.0" stop-color="#2e2e2e"/>
      <stop offset="1.0" stop-color="#020202"/>
      <stop offset="1.0" stop-color="#0e0d0d"/>
    </radialGradient>
  </defs>
</svg>
