<?xml version="1.0" encoding="UTF-8" standalone="no"?>
<svg xmlns:ffdec="https://www.free-decompiler.com/flash" xmlns:xlink="http://www.w3.org/1999/xlink" ffdec:objectType="shape" height="22.4px" width="16.7px" xmlns="http://www.w3.org/2000/svg">
  <g transform="matrix(1.0, 0.0, 0.0, 1.0, 11.6, 5.4)">
    <path d="M2.4 1.35 L2.4 5.15 2.4 6.2 2.4 12.6 2.1 12.95 2.1 1.6 0.7 0.9 2.35 1.35 2.4 1.35 M-4.85 16.5 L-5.2 16.35 Q-4.8 16.0 -4.65 15.05 L-4.85 16.5 M-7.65 13.25 L-7.65 12.0 -6.85 11.6 Q-7.45 12.35 -7.65 13.25" fill="#746e69" fill-rule="evenodd" stroke="none"/>
    <path d="M2.1 12.95 L2.1 13.0 2.05 13.0 1.15 13.85 Q0.45 11.05 0.7 0.9 L2.1 1.6 2.1 12.95" fill="#660000" fill-rule="evenodd" stroke="none"/>
    <path d="M-5.2 16.35 Q-5.95 17.0 -7.65 15.45 L-7.65 13.25 Q-7.45 12.35 -6.85 11.6 L-6.05 11.2 -6.65 2.7 -10.4 1.7 -8.35 -0.65 -2.1 0.9 -3.15 1.3 -3.15 5.25 -2.5 6.75 -2.5 10.7 -4.25 12.05 -4.65 14.95 -4.65 15.05 Q-4.8 16.0 -5.2 16.35 L-7.65 15.45 -5.2 16.35" fill="#333333" fill-rule="evenodd" stroke="none"/>
    <path d="M2.05 13.0 L1.85 13.3 1.8 13.3 0.95 15.2 -4.85 16.5 -4.65 15.05 -4.65 14.95 -4.25 12.05 -2.5 10.7 -2.5 6.75 -3.15 5.25 -3.15 1.3 -2.1 0.9 -0.95 0.5 0.7 0.9 Q0.45 11.05 1.15 13.85 L2.05 13.0" fill="url(#gradient0)" fill-rule="evenodd" stroke="none"/>
    <path d="M-8.35 -0.65 L-8.1 -2.8 Q-4.9 -4.1 -2.9 -2.8 L-3.25 -2.0 -0.95 0.5 -2.1 0.9 -8.35 -0.65" fill="url(#gradient1)" fill-rule="evenodd" stroke="none"/>
    <path d="M-7.65 12.0 L-9.15 11.4 -11.1 6.4 -10.4 1.7 -6.65 2.7 -6.05 11.2 -6.85 11.6 -7.65 12.0" fill="url(#gradient2)" fill-rule="evenodd" stroke="none"/>
    <path d="M-2.9 -2.8 L-1.95 -4.9 0.9 -4.9 4.6 -4.0 Q4.3 -1.35 2.4 1.35 L2.35 1.35 0.7 0.9 -0.95 0.5 -3.25 -2.0 -2.9 -2.8" fill="url(#gradient3)" fill-rule="evenodd" stroke="none"/>
    <path d="M-2.9 -2.8 L-1.95 -4.9 0.9 -4.9 4.6 -4.0 Q4.3 -1.35 2.4 1.35 L2.4 5.15 2.4 6.2 2.4 12.6 2.1 12.95 M2.05 13.0 L1.85 13.3 1.8 13.3 0.95 15.2 -4.85 16.5 -5.2 16.35 -7.65 15.45 -7.65 13.25 -7.65 12.0 -9.15 11.4 -11.1 6.4 -10.4 1.7 -8.35 -0.65 -8.1 -2.8 Q-4.9 -4.1 -2.9 -2.8 L-3.25 -2.0 -0.95 0.5 0.7 0.9 2.35 1.35 2.4 1.35 M-2.1 0.9 L-3.15 1.3 -3.15 5.25 -2.5 6.75 -2.5 10.7 -4.25 12.05 -4.65 14.95 -4.65 15.05 -4.85 16.5 M-0.95 0.5 L-2.1 0.9 -8.35 -0.65 M-6.85 11.6 L-7.65 12.0 M-10.4 1.7 L-6.65 2.7 -6.05 11.2 -6.85 11.6" fill="none" stroke="#2b2927" stroke-linecap="round" stroke-linejoin="round" stroke-width="1.0"/>
  </g>
  <defs>
    <radialGradient cx="0" cy="0" gradientTransform="matrix(0.0121, 0.0, 0.0, 0.0121, -1.0, 7.3)" gradientUnits="userSpaceOnUse" id="gradient0" r="819.2" spreadMethod="pad">
      <stop offset="0.0" stop-color="#8a8580"/>
      <stop offset="1.0" stop-color="#6d6965"/>
      <stop offset="1.0" stop-color="#333333"/>
    </radialGradient>
    <radialGradient cx="0" cy="0" gradientTransform="matrix(0.006, 0.0, 0.0, 0.006, -5.5, -1.35)" gradientUnits="userSpaceOnUse" id="gradient1" r="819.2" spreadMethod="pad">
      <stop offset="0.0" stop-color="#8a8580"/>
      <stop offset="1.0" stop-color="#6d6965"/>
      <stop offset="1.0" stop-color="#333333"/>
    </radialGradient>
    <radialGradient cx="0" cy="0" gradientTransform="matrix(0.0093, 0.0, 0.0, 0.0093, -6.5, 5.95)" gradientUnits="userSpaceOnUse" id="gradient2" r="819.2" spreadMethod="pad">
      <stop offset="0.0" stop-color="#8a8580"/>
      <stop offset="1.0" stop-color="#6d6965"/>
      <stop offset="1.0" stop-color="#333333"/>
    </radialGradient>
    <radialGradient cx="0" cy="0" gradientTransform="matrix(0.0081, 0.0, 0.0, 0.0081, 3.15, -2.9)" gradientUnits="userSpaceOnUse" id="gradient3" r="819.2" spreadMethod="pad">
      <stop offset="0.0" stop-color="#4d4946"/>
      <stop offset="1.0" stop-color="#3c3b38"/>
      <stop offset="1.0" stop-color="#333333"/>
    </radialGradient>
  </defs>
</svg>
