<?xml version="1.0" encoding="UTF-8" standalone="no"?>
<svg xmlns:ffdec="https://www.free-decompiler.com/flash" xmlns:xlink="http://www.w3.org/1999/xlink" ffdec:objectType="shape" height="22.05px" width="82.95px" xmlns="http://www.w3.org/2000/svg">
  <g transform="matrix(1.0, 0.0, 0.0, 1.0, 36.25, 10.85)">
    <path d="M45.3 -1.7 L45.4 -1.7 44.85 2.8 39.6 2.8 40.8 0.2 43.4 0.2 45.3 -1.7 M-30.55 -6.85 L-26.4 -6.85 -25.85 -5.4 -24.7 -2.45 -28.9 -2.45 -30.55 -6.85" fill="#606060" fill-rule="evenodd" stroke="none"/>
    <path d="M36.85 -4.05 L36.95 -4.55 39.35 -4.55 39.25 -4.05 38.9 -2.55 40.05 -2.55 40.35 -4.05 40.45 -4.55 41.8 -4.55 41.65 -4.05 41.35 -2.55 42.5 -2.55 42.8 -4.05 42.95 -4.55 46.2 -4.55 46.2 -2.6 45.3 -1.7 43.4 0.2 40.8 0.2 39.6 2.8 39.25 3.65 34.0 3.65 34.45 2.5 34.45 0.7 33.5 -1.75 33.75 -2.55 36.5 -2.55 36.85 -4.05 M1.05 -2.75 L8.0 -2.75 9.75 1.75 1.8 1.75 1.05 -2.75 M10.65 -2.75 L16.3 -2.75 17.5 -1.75 19.95 -1.75 21.3 1.75 12.45 1.75 10.65 -2.75 M22.6 -1.75 L30.8 -1.75 31.75 0.7 31.4 1.75 24.0 1.75 22.6 -1.75" fill="#4e4e4e" fill-rule="evenodd" stroke="none"/>
    <path d="M8.0 -2.75 L10.65 -2.75 12.45 1.75 9.75 1.75 8.0 -2.75 M19.95 -1.75 L22.6 -1.75 24.0 1.75 21.3 1.75 19.95 -1.75 M30.8 -1.75 L33.5 -1.75 34.45 0.7 31.75 0.7 30.8 -1.75" fill="#404040" fill-rule="evenodd" stroke="none"/>
    <path d="M34.3 -4.05 L36.85 -4.05 36.5 -2.55 33.75 -2.55 34.3 -4.05 M39.25 -4.05 L40.35 -4.05 40.05 -2.55 38.9 -2.55 39.25 -4.05 M41.65 -4.05 L42.8 -4.05 42.5 -2.55 41.35 -2.55 41.65 -4.05" fill="#000000" fill-rule="evenodd" stroke="none"/>
    <path d="M-33.2 -4.05 L-31.05 -4.05 -29.35 0.35 -31.55 0.35 -33.2 -4.05 M-12.15 3.3 L-12.15 -0.5 -10.5 -0.5 -10.5 6.25 -12.15 6.25 -12.15 3.3 M-6.55 -0.5 L-6.55 6.25 -8.15 6.25 -8.15 -0.5 -6.55 -0.5 M-2.45 -0.5 L-2.45 6.25 -4.05 6.25 -4.05 -0.5 -2.45 -0.5" fill="#00ffff" fill-rule="evenodd" stroke="none"/>
    <path d="M-22.45 3.6 L-26.6 3.6 -28.9 -2.45 -24.7 -2.45 -22.45 3.6 M-32.25 1.95 L-33.55 1.2 -33.9 -0.35 -35.35 -2.25 -34.8 -4.85 -32.25 1.95" fill="#393939" fill-rule="evenodd" stroke="none"/>
    <path d="M-4.2 9.85 L-15.6 9.85 -16.8 9.05 -17.8 5.85 -16.4 5.85 -13.7 8.25 -5.2 8.25 -4.2 9.85" fill="#834101" fill-rule="evenodd" stroke="none"/>
    <path d="M-20.2 -3.2 L-20.1 -3.3 Q-19.7 -3.7 -19.15 -3.7 -18.55 -3.7 -18.2 -3.3 -17.8 -2.9 -17.8 -2.35 L-17.8 -2.25 -17.95 -1.7 -18.2 -1.4 Q-18.55 -1.0 -19.15 -1.0 -19.7 -1.0 -20.1 -1.4 -20.5 -1.8 -20.5 -2.35 L-20.2 -3.2" fill="#02d202" fill-rule="evenodd" stroke="none"/>
    <path d="M6.6 -5.2 L9.05 -5.2 9.25 -5.2 11.45 -5.2 12.4 -7.05 17.9 -7.05 20.25 -5.0 34.6 -5.0 34.3 -4.05 33.75 -2.55 33.5 -1.75 30.8 -1.75 22.6 -1.75 19.95 -1.75 17.5 -1.75 16.3 -2.75 10.65 -2.75 8.0 -2.75 1.05 -2.75 -0.75 -7.05 4.2 -7.05 5.7 -5.2 6.6 -5.2" fill="url(#gradient0)" fill-rule="evenodd" stroke="none"/>
    <path d="M34.0 3.65 L32.15 8.5 2.9 8.5 2.7 7.05 6.2 7.05 5.45 4.65 2.3 4.65 1.8 1.75 9.75 1.75 12.45 1.75 21.3 1.75 24.0 1.75 31.4 1.75 31.75 0.7 34.45 0.7 34.45 2.5 34.0 3.65 M31.15 4.65 L25.25 4.65 26.0 7.05 30.45 7.05 31.15 4.65 M22.1 4.65 L17.65 4.65 16.95 7.05 22.85 7.05 22.1 4.65 M14.5 4.65 L8.6 4.65 9.35 7.05 13.8 7.05 14.5 4.65" fill="url(#gradient1)" fill-rule="evenodd" stroke="none"/>
    <path d="M2.9 8.5 L1.8 10.7 -3.65 10.7 -4.2 9.85 -5.2 8.25 -13.7 8.25 -16.4 5.85 -17.8 5.85 -21.6 5.85 -22.45 3.6 -24.7 -2.45 -25.85 -5.4 -26.4 -6.85 -23.5 -9.5 -16.45 -8.65 -16.4 -8.6 -1.4 -8.6 -0.75 -7.05 1.05 -2.75 1.8 1.75 2.3 4.65 2.7 7.05 2.9 8.5 M-20.2 -3.2 L-22.15 -5.4 -25.85 -5.4 -22.15 -5.4 -20.2 -3.2 -20.5 -2.35 Q-20.5 -1.8 -20.1 -1.4 -19.7 -1.0 -19.15 -1.0 -18.55 -1.0 -18.2 -1.4 L-17.95 -1.7 -17.8 -2.25 -17.8 -2.35 Q-17.8 -2.9 -18.2 -3.3 -18.55 -3.7 -19.15 -3.7 -19.7 -3.7 -20.1 -3.3 L-20.2 -3.2 M-12.15 3.3 L-15.7 3.3 -15.7 0.6 -17.95 -1.7 -15.7 0.6 -15.7 3.3 -12.15 3.3 -12.15 6.25 -10.5 6.25 -10.5 -0.5 -12.15 -0.5 -12.15 3.3 M-13.35 -6.0 L-12.15 -3.05 -2.45 -3.05 -3.65 -6.0 -13.35 -6.0 M-2.45 -0.5 L-4.05 -0.5 -4.05 6.25 -2.45 6.25 -2.45 -0.5 M-6.55 -0.5 L-8.15 -0.5 -8.15 6.25 -6.55 6.25 -6.55 -0.5" fill="url(#gradient2)" fill-rule="evenodd" stroke="none"/>
    <path d="M-26.6 3.6 L-27.25 5.4 -29.2 5.85 -31.05 5.15 -32.25 1.95 -34.8 -4.85 -35.75 -7.3 -34.7 -8.65 -31.65 -8.65 -30.55 -6.85 -28.9 -2.45 -26.6 3.6 M-33.2 -4.05 L-31.55 0.35 -29.35 0.35 -31.05 -4.05 -33.2 -4.05" fill="url(#gradient3)" fill-rule="evenodd" stroke="none"/>
    <path d="M-13.35 -6.0 L-3.65 -6.0 -2.45 -3.05 -12.15 -3.05 -13.35 -6.0" fill="url(#gradient4)" fill-rule="evenodd" stroke="none"/>
    <path d="M7.95 -7.9 L8.2 -7.55 Q8.65 -7.1 9.35 -7.1 L9.75 -7.1 9.95 -7.05 9.05 -5.2 6.6 -5.2 7.95 -7.9" fill="#737373" fill-rule="evenodd" stroke="none"/>
    <path d="M6.6 -5.2 L9.05 -5.2 9.25 -5.2 11.45 -5.2 12.4 -7.05 17.9 -7.05 20.25 -5.0 34.6 -5.0 34.3 -4.05 33.75 -2.55 33.5 -1.75 30.8 -1.75 22.6 -1.75 19.95 -1.75 17.5 -1.75 16.3 -2.75 10.65 -2.75 8.0 -2.75 1.05 -2.75 M-0.75 -7.05 L4.2 -7.05 5.7 -5.2 6.6 -5.2 M34.0 3.65 L32.15 8.5 2.9 8.5 M-22.45 3.6 L-26.6 3.6 M-30.55 -6.85 L-26.4 -6.85 M31.15 4.65 L25.25 4.65 26.0 7.05 30.45 7.05 31.15 4.65 M31.75 0.7 L34.45 0.7 34.45 2.5 34.0 3.65 M24.0 1.75 L31.4 1.75 31.75 0.7 M22.1 4.65 L17.65 4.65 16.95 7.05 22.85 7.05 22.1 4.65 M21.3 1.75 L24.0 1.75 M14.5 4.65 L8.6 4.65 9.35 7.05 13.8 7.05 14.5 4.65 M2.3 4.65 L5.45 4.65 6.2 7.05 2.7 7.05 M1.8 1.75 L9.75 1.75 12.45 1.75 21.3 1.75 M-24.7 -2.45 L-28.9 -2.45 M-25.85 -5.4 L-22.15 -5.4 -20.2 -3.2 M-17.95 -1.7 L-15.7 0.6 -15.7 3.3 -12.15 3.3" fill="none" stroke="#262626" stroke-linecap="round" stroke-linejoin="round" stroke-width="1.0"/>
    <path d="M36.85 -4.05 L36.95 -4.55 39.35 -4.55 39.25 -4.05 38.9 -2.55 40.05 -2.55 40.35 -4.05 40.45 -4.55 41.8 -4.55 41.65 -4.05 41.35 -2.55 42.5 -2.55 42.8 -4.05 42.95 -4.55 46.2 -4.55 46.2 -2.6 45.3 -1.7 43.4 0.2 40.8 0.2 39.6 2.8 39.25 3.65 34.0 3.65 M33.75 -2.55 L36.5 -2.55 36.85 -4.05 M34.45 0.7 L33.5 -1.75 M31.75 0.7 L30.8 -1.75 M24.0 1.75 L22.6 -1.75 M9.75 1.75 L8.0 -2.75 M12.45 1.75 L10.65 -2.75 M21.3 1.75 L19.95 -1.75" fill="none" stroke="#2f2f2f" stroke-linecap="round" stroke-linejoin="round" stroke-width="1.0"/>
    <path d="M45.3 -1.7 L45.4 -1.7" fill="none" stroke="#444444" stroke-linecap="round" stroke-linejoin="round" stroke-width="1.0"/>
    <path d="M-0.75 -7.05 L1.05 -2.75 M1.8 1.75 L2.3 4.65 M2.7 7.05 L2.9 8.5" fill="none" stroke="#353535" stroke-linecap="round" stroke-linejoin="round" stroke-width="1.0"/>
    <path d="M2.9 8.5 L1.8 10.7 -3.65 10.7 -4.2 9.85 -5.2 8.25 -13.7 8.25 -16.4 5.85 -17.8 5.85 -21.6 5.85 -22.45 3.6 M-26.6 3.6 L-27.25 5.4 -29.2 5.85 -31.05 5.15 -32.25 1.95 -33.55 1.2 -33.9 -0.35 -35.35 -2.25 -34.8 -4.85 -35.75 -7.3 -34.7 -8.65 -31.65 -8.65 -30.55 -6.85 M-26.4 -6.85 L-23.5 -9.5 -16.45 -8.65 -16.4 -8.6 -1.4 -8.6 -0.75 -7.05 M-13.35 -6.0 L-3.65 -6.0 -2.45 -3.05 -12.15 -3.05 -13.35 -6.0 M-32.25 1.95 L-34.8 -4.85" fill="none" stroke="#1e1e1e" stroke-linecap="round" stroke-linejoin="round" stroke-width="1.0"/>
    <path d="M2.3 4.65 L2.7 7.05 M1.05 -2.75 L1.8 1.75" fill="none" stroke="#2c2c2c" stroke-linecap="round" stroke-linejoin="round" stroke-width="1.0"/>
    <path d="M45.4 -1.7 L44.85 2.8 39.6 2.8" fill="none" stroke="#3c3c3c" stroke-linecap="round" stroke-linejoin="round" stroke-width="1.0"/>
    <path d="M-28.9 -2.45 L-26.6 3.6 M-24.7 -2.45 L-25.85 -5.4 -26.4 -6.85 M-30.55 -6.85 L-28.9 -2.45 M-22.45 3.6 L-24.7 -2.45" fill="none" stroke="#2a2a2a" stroke-linecap="round" stroke-linejoin="round" stroke-width="1.0"/>
    <path d="M-20.2 -3.2 L-20.1 -3.3 Q-19.7 -3.7 -19.15 -3.7 -18.55 -3.7 -18.2 -3.3 -17.8 -2.9 -17.8 -2.35 L-17.8 -2.25 -17.95 -1.7 -18.2 -1.4 Q-18.55 -1.0 -19.15 -1.0 -19.7 -1.0 -20.1 -1.4 -20.5 -1.8 -20.5 -2.35 L-20.2 -3.2" fill="none" stroke="#025c01" stroke-linecap="round" stroke-linejoin="round" stroke-width="1.0"/>
    <path d="M-4.2 9.85 L-15.6 9.85 -16.8 9.05 -17.8 5.85" fill="none" stroke="#432101" stroke-linecap="round" stroke-linejoin="round" stroke-width="1.0"/>
    <path d="M-33.2 -4.05 L-31.55 0.35 -29.35 0.35 -31.05 -4.05 -33.2 -4.05" fill="none" stroke="#017e7e" stroke-linecap="round" stroke-linejoin="round" stroke-width="1.0"/>
    <path d="M7.95 -7.9 L6.6 -5.2 M9.05 -5.2 L9.95 -7.05 M-12.15 3.3 L-12.15 -0.5 -10.5 -0.5 -10.5 6.25 -12.15 6.25 -12.15 3.3 M-6.55 -0.5 L-6.55 6.25 -8.15 6.25 -8.15 -0.5 -6.55 -0.5 M-2.45 -0.5 L-2.45 6.25 -4.05 6.25 -4.05 -0.5 -2.45 -0.5 Z" fill="none" stroke="#333333" stroke-linecap="round" stroke-linejoin="round" stroke-width="1.0"/>
    <path d="M8.2 -7.55 L7.95 -7.9 7.7 -8.7 Q7.7 -9.4 8.2 -9.85 8.65 -10.35 9.35 -10.35 10.05 -10.35 10.5 -9.85 11.0 -9.4 11.0 -8.7 11.0 -8.05 10.5 -7.55 L9.8 -7.15 9.75 -7.1 9.35 -7.1 Q8.65 -7.1 8.2 -7.55" fill="#3a3a3a" fill-rule="evenodd" stroke="none"/>
    <path d="M8.2 -7.55 L7.95 -7.9 7.7 -8.7 Q7.7 -9.4 8.2 -9.85 8.65 -10.35 9.35 -10.35 10.05 -10.35 10.5 -9.85 11.0 -9.4 11.0 -8.7 11.0 -8.05 10.5 -7.55 L9.8 -7.15 9.75 -7.1 9.35 -7.1 Q8.65 -7.1 8.2 -7.55 Z" fill="none" stroke="#1e1e1e" stroke-linecap="round" stroke-linejoin="round" stroke-width="1.0"/>
  </g>
  <defs>
    <linearGradient gradientTransform="matrix(0.0, 0.0052, -0.0033, 0.0, 16.8, -3.65)" gradientUnits="userSpaceOnUse" id="gradient0" spreadMethod="pad" x1="-819.2" x2="819.2">
      <stop offset="0.12941176470588237" stop-color="#464646"/>
      <stop offset="0.30196078431372547" stop-color="#5d5d5d"/>
      <stop offset="0.49411764705882355" stop-color="#5f5f5f"/>
      <stop offset="0.7176470588235294" stop-color="#3f3f3f"/>
    </linearGradient>
    <linearGradient gradientTransform="matrix(0.0, 0.0056, -0.0047, 0.0, 20.0, 3.65)" gradientUnits="userSpaceOnUse" id="gradient1" spreadMethod="pad" x1="-819.2" x2="819.2">
      <stop offset="0.10196078431372549" stop-color="#393939"/>
      <stop offset="0.5019607843137255" stop-color="#5f5f5f"/>
      <stop offset="0.7137254901960784" stop-color="#5c5c5c"/>
      <stop offset="1.0" stop-color="#464646"/>
    </linearGradient>
    <radialGradient cx="0" cy="0" gradientTransform="matrix(-0.0469, 0.0, 0.0, -0.0288, -11.55, -9.75)" gradientUnits="userSpaceOnUse" id="gradient2" r="819.2" spreadMethod="pad">
      <stop offset="0.08235294117647059" stop-color="#606060"/>
      <stop offset="0.21568627450980393" stop-color="#595959"/>
      <stop offset="0.4235294117647059" stop-color="#414141"/>
      <stop offset="0.5372549019607843" stop-color="#3c3c3c"/>
      <stop offset="0.7294117647058823" stop-color="#4e4e4e"/>
    </radialGradient>
    <linearGradient gradientTransform="matrix(0.0043, -0.0074, 0.0076, 0.0044, -30.75, -1.25)" gradientUnits="userSpaceOnUse" id="gradient3" spreadMethod="pad" x1="-819.2" x2="819.2">
      <stop offset="0.0" stop-color="#3d3d3d"/>
      <stop offset="1.0" stop-color="#5f5f5f"/>
    </linearGradient>
    <linearGradient gradientTransform="matrix(0.0, 0.0012, -0.0018, 0.0, -7.9, -4.5)" gradientUnits="userSpaceOnUse" id="gradient4" spreadMethod="pad" x1="-819.2" x2="819.2">
      <stop offset="0.0" stop-color="#404040"/>
      <stop offset="1.0" stop-color="#4e4e4e"/>
    </linearGradient>
  </defs>
</svg>
