<?xml version="1.0" encoding="UTF-8" standalone="no"?>
<svg xmlns:ffdec="https://www.free-decompiler.com/flash" xmlns:xlink="http://www.w3.org/1999/xlink" ffdec:objectType="shape" height="23.65px" width="12.95px" xmlns="http://www.w3.org/2000/svg">
  <g transform="matrix(1.0, 0.0, 0.0, 1.0, 7.2, 3.5)">
    <path d="M2.3 -1.85 L3.4 -1.15 Q3.85 -0.4 3.5 1.75 L2.6 11.05 1.8 19.15 Q-3.35 20.35 -6.7 18.75 -5.25 15.2 -5.35 10.55 -5.45 5.9 -5.0 2.75 L-4.65 0.45 Q-4.3 -0.65 -3.4 -0.45 -2.25 -0.2 -0.3 -0.95 L2.3 -1.85 M-2.25 6.8 L-2.8 7.6 Q-3.35 8.7 -3.45 9.75 -3.35 8.7 -2.8 7.6 L-2.25 6.8 M-0.45 13.65 L-1.15 15.35 Q-1.7 17.3 -0.85 18.4 -1.7 17.3 -1.15 15.35 L-0.45 13.65 M-0.4 4.6 L0.55 3.05 Q1.55 1.2 1.55 -0.05 1.55 1.2 0.55 3.05 L-0.4 4.6" fill="#2f3b48" fill-rule="evenodd" stroke="none"/>
    <path d="M2.3 -1.85 L-0.3 -0.95 Q-2.25 -0.2 -3.4 -0.45 -4.3 -0.65 -4.65 0.45 L-5.0 2.75 Q-5.45 5.9 -5.35 10.55 -5.25 15.2 -6.7 18.75 -3.35 20.35 1.8 19.15 L2.6 11.05 3.5 1.75 Q3.85 -0.4 3.4 -1.15 L2.3 -1.85" fill="none" stroke="#191f26" stroke-linecap="round" stroke-linejoin="round" stroke-width="1.05"/>
    <path d="M1.55 -0.05 Q1.55 1.2 0.55 3.05 L-0.4 4.6 M-0.85 18.4 Q-1.7 17.3 -1.15 15.35 L-0.45 13.65 M-3.45 9.75 Q-3.35 8.7 -2.8 7.6 L-2.25 6.8" fill="none" stroke="#242f3c" stroke-linecap="round" stroke-linejoin="round" stroke-width="1.05"/>
    <path d="M-5.0 -0.25 Q-4.7 -0.65 -0.3 -1.6 4.1 -2.6 4.05 -2.2 3.75 -0.6 4.05 1.1 L-0.55 1.15 -5.2 1.35 -5.0 0.8 Q-4.7 0.15 -5.0 -0.25" fill="#4f4f4f" fill-rule="evenodd" stroke="none"/>
    <path d="M-5.0 -0.25 Q-4.7 0.15 -5.0 0.8 L-5.2 1.35 -0.55 1.15 4.05 1.1 Q3.75 -0.6 4.05 -2.2 4.1 -2.6 -0.3 -1.6 -4.7 -0.65 -5.0 -0.25 Z" fill="none" stroke="#272727" stroke-linecap="round" stroke-linejoin="round" stroke-width="1.05"/>
    <path d="M-0.15 -0.2 L2.45 -0.55" fill="none" stroke="#272727" stroke-linecap="round" stroke-linejoin="round" stroke-width="1.05"/>
    <path d="M4.65 -3.0 Q5.3 -2.4 5.25 -0.8 5.15 0.85 4.25 1.8 1.9 0.7 2.15 -0.8 2.4 -2.25 4.65 -3.0" fill="#4f4f4f" fill-rule="evenodd" stroke="none"/>
    <path d="M4.65 -3.0 Q2.4 -2.25 2.15 -0.8 1.9 0.7 4.25 1.8 5.15 0.85 5.25 -0.8 5.3 -2.4 4.65 -3.0 Z" fill="none" stroke="#212121" stroke-linecap="round" stroke-linejoin="round" stroke-width="1.05"/>
  </g>
</svg>
