<?xml version="1.0" encoding="UTF-8" standalone="no"?>
<svg xmlns:ffdec="https://www.free-decompiler.com/flash" xmlns:xlink="http://www.w3.org/1999/xlink" ffdec:objectType="shape" height="25.15px" width="17.05px" xmlns="http://www.w3.org/2000/svg">
  <g transform="matrix(1.0, 0.0, 0.0, 1.0, 0.5, 0.5)">
    <path d="M13.8 9.15 L13.8 17.9 13.2 18.6 12.6 19.25 12.1 19.25 8.8 18.7 8.8 15.95 11.2 15.3 11.2 8.4 13.8 9.15" fill="#54504d" fill-rule="evenodd" stroke="none"/>
    <path d="M8.4 2.15 L8.0 2.95 10.35 5.5 13.75 6.4 13.8 6.4 13.8 9.15 11.2 8.4 11.2 15.3 8.8 15.95 8.8 11.9 8.1 10.35 8.1 6.35 9.2 5.95 2.8 4.35 3.05 2.15 Q6.35 0.8 8.4 2.15 M13.2 18.6 L14.25 20.9 13.15 24.15 6.4 21.85 3.55 20.8 3.55 17.25 2.0 16.65 0.0 11.55 0.7 6.75 4.55 7.75 5.15 16.45 4.35 16.85 5.15 19.2 6.6 20.3 7.0 17.3 8.8 15.95 8.8 18.7 12.1 19.25 12.6 19.25 13.2 18.6 M6.4 21.85 L6.6 20.3 6.4 21.85 M3.55 17.25 L4.35 16.85 3.55 17.25 M9.2 5.95 L10.35 5.5 9.2 5.95" fill="#746e69" fill-rule="evenodd" stroke="none"/>
    <path d="M0.7 6.75 L0.9 3.9 2.8 4.35 9.2 5.95 8.1 6.35 8.1 10.35 8.8 11.9 8.8 15.95 7.0 17.3 6.6 20.3 5.15 19.2 4.35 16.85 5.15 16.45 4.55 7.75 0.7 6.75" fill="#333333" fill-rule="evenodd" stroke="none"/>
    <path d="M8.4 2.15 L9.35 0.0 12.25 0.0 16.05 0.95 Q15.75 3.65 13.8 6.4 L13.75 6.4 10.35 5.5 8.0 2.95 8.4 2.15" fill="#446679" fill-rule="evenodd" stroke="none"/>
    <path d="M13.8 6.4 Q15.75 3.65 16.05 0.95 L12.25 0.0 9.35 0.0 8.4 2.15 8.0 2.95 10.35 5.5 13.75 6.4 13.8 6.4 13.8 9.15 13.8 17.9 13.2 18.6 14.25 20.9 13.15 24.15 6.4 21.85 3.55 20.8 3.55 17.25 2.0 16.65 0.0 11.55 0.7 6.75 0.9 3.9 2.8 4.35 3.05 2.15 Q6.35 0.8 8.4 2.15 M8.8 15.95 L11.2 15.3 11.2 8.4 13.8 9.15 M0.7 6.75 L4.55 7.75 5.15 16.45 4.35 16.85 5.15 19.2 6.6 20.3 7.0 17.3 8.8 15.95 8.8 11.9 8.1 10.35 8.1 6.35 9.2 5.95 2.8 4.35 M4.35 16.85 L3.55 17.25 M6.6 20.3 L6.4 21.85 M8.8 15.95 L8.8 18.7 12.1 19.25 12.6 19.25 13.2 18.6 M10.35 5.5 L9.2 5.95" fill="none" stroke="#21201f" stroke-linecap="round" stroke-linejoin="round" stroke-width="1.0"/>
  </g>
</svg>
