<?xml version="1.0" encoding="UTF-8" standalone="no"?>
<svg xmlns:xlink="http://www.w3.org/1999/xlink" height="40.15px" width="98.85px" xmlns="http://www.w3.org/2000/svg">
  <g transform="matrix(1.0, 0.0, 0.0, 1.0, 49.4, 20.1)">
    <path d="M-40.6 -5.55 Q-39.25 -8.0 -39.8 -10.3 -27.65 -13.2 -17.0 -14.65 L-13.0 -7.25 -12.25 -2.25 -13.3 10.0 -9.5 -0.85 -10.6 -7.95 -12.2 -18.85 Q-4.75 -19.65 4.65 -18.05 L18.85 -15.15 19.85 -8.75 23.2 -12.9 26.75 -13.4 Q33.1 -11.65 38.25 -8.7 L43.25 -5.45 48.45 -0.9 43.9 0.05 38.25 1.3 Q7.65 8.45 -10.4 19.05 L-25.45 19.05 Q-40.9 15.4 -40.6 -5.55 M-24.8 0.3 L-18.3 -1.3 -12.25 -2.25 -18.3 -1.3 -24.8 0.3 M-19.95 -6.2 L-16.55 -7.0 -13.0 -7.25 -16.55 -7.0 -19.95 -6.2 M-4.0 0.4 Q-6.65 -0.5 -9.5 -0.85 -6.65 -0.5 -4.0 0.4 M10.55 -7.45 Q-1.5 -8.9 -10.6 -7.95 -1.5 -8.9 10.55 -7.45" fill="url(#gradient0)" fill-rule="evenodd" stroke="none"/>
    <path d="M-25.45 19.05 L-39.85 19.05 Q-40.95 11.15 -47.5 1.75 -44.95 2.25 -42.25 -2.3 L-40.75 -5.3 -40.65 -5.4 -40.6 -5.55 Q-40.9 15.4 -25.45 19.05" fill="url(#gradient1)" fill-rule="evenodd" stroke="none"/>
    <path d="M-39.85 19.05 L-48.4 19.05 -48.4 1.6 -47.5 1.75 Q-40.95 11.15 -39.85 19.05" fill="url(#gradient2)" fill-rule="evenodd" stroke="none"/>
    <path d="M-40.6 -5.55 Q-39.25 -8.0 -39.8 -10.3 -27.65 -13.2 -17.0 -14.65 L-13.0 -7.25 -12.25 -2.25 -13.3 10.0 -9.5 -0.85 -10.6 -7.95 -12.2 -18.85 Q-4.75 -19.65 4.65 -18.05 L18.85 -15.15 19.85 -8.75 23.2 -12.9 26.75 -13.4 Q33.1 -11.65 38.25 -8.7 L43.25 -5.45 48.45 -0.9 43.9 0.05 38.25 1.3 Q7.65 8.45 -10.4 19.05 L-25.45 19.05 -39.85 19.05 -48.4 19.05 M-48.4 1.6 L-47.5 1.75 Q-44.95 2.25 -42.25 -2.3 L-40.75 -5.3 -40.65 -5.4 -40.6 -5.55 M-13.0 -7.25 L-16.55 -7.0 -19.95 -6.2 M-12.25 -2.25 L-18.3 -1.3 -24.8 0.3 M-47.5 1.75 Q-40.95 11.15 -39.85 19.05 M-10.6 -7.95 Q-1.5 -8.9 10.55 -7.45 M-9.5 -0.85 Q-6.65 -0.5 -4.0 0.4" fill="none" stroke="#000000" stroke-linecap="round" stroke-linejoin="round" stroke-width="2.0"/>
  </g>
  <defs>
    <radialGradient cx="0" cy="0" gradientTransform="matrix(0.003, 0.0639, 0.0904, -0.0043, -5.15, 36.5)" gradientUnits="userSpaceOnUse" id="gradient0" r="819.2" spreadMethod="pad">
      <stop offset="0.0" stop-color="#7e0101"/>
      <stop offset="1.0" stop-color="#3c0000"/>
    </radialGradient>
    <radialGradient cx="0" cy="0" gradientTransform="matrix(-0.043, 0.0473, 0.067, 0.0609, -43.2, 56.6)" gradientUnits="userSpaceOnUse" id="gradient1" r="819.2" spreadMethod="pad">
      <stop offset="0.0" stop-color="#7e0101"/>
      <stop offset="1.0" stop-color="#3c0000"/>
    </radialGradient>
    <radialGradient cx="0" cy="0" gradientTransform="matrix(-0.1446, -0.039, -0.0111, 0.0412, -92.45, 11.75)" gradientUnits="userSpaceOnUse" id="gradient2" r="819.2" spreadMethod="pad">
      <stop offset="0.0" stop-color="#222222"/>
      <stop offset="1.0" stop-color="#000000"/>
    </radialGradient>
  </defs>
</svg>
