<?xml version="1.0" encoding="UTF-8" standalone="no"?>
<svg xmlns:xlink="http://www.w3.org/1999/xlink" height="8.2px" width="14.7px" xmlns="http://www.w3.org/2000/svg">
  <g transform="matrix(1.0, 0.0, 0.0, 1.0, 7.35, 4.1)">
    <path d="M4.05 -2.45 L4.05 2.4 -3.95 2.5 -3.95 -2.45 4.05 -2.45" fill="#555555" fill-rule="evenodd" stroke="none"/>
    <path d="M4.05 2.4 L-3.95 2.5 M-3.95 -2.45 L4.05 -2.45" fill="none" stroke="#444444" stroke-linecap="round" stroke-linejoin="round" stroke-width="1.0"/>
    <path d="M-0.95 -1.0 L1.05 -1.0 1.05 1.0 -0.95 1.0 -0.95 -1.0" fill="#ffffff" fill-rule="evenodd" stroke="none"/>
    <path d="M-0.95 -1.0 L1.05 -1.0 1.05 1.0 -0.95 1.0 -0.95 -1.0 Z" fill="none" stroke="#ccffff" stroke-linecap="round" stroke-linejoin="round" stroke-width="1.0"/>
    <path d="M4.2 -3.6 L4.2 -1.05 6.65 -1.05 Q7.1 0.0 6.65 1.05 L4.2 1.05 4.2 3.6 3.55 3.55 2.55 3.5 2.55 -3.5 3.55 -3.55 4.2 -3.6 M-6.6 -1.05 L-4.15 -1.05 -4.15 -3.6 -3.45 -3.55 -2.5 -3.5 -2.5 3.5 -3.45 3.55 -4.15 3.6 -4.15 1.05 -6.6 1.05 Q-7.05 0.0 -6.6 -1.05" fill="#a2a2a2" fill-rule="evenodd" stroke="none"/>
    <path d="M4.2 -3.6 L3.55 -3.55 2.55 -3.5 2.55 3.5 3.55 3.55 4.2 3.6 M6.65 1.05 Q7.1 0.0 6.65 -1.05 M-4.15 -3.6 L-3.45 -3.55 -2.5 -3.5 -2.5 3.5 -3.45 3.55 -4.15 3.6 M-6.6 1.05 Q-7.05 0.0 -6.6 -1.05" fill="none" stroke="#7b7b7b" stroke-linecap="round" stroke-linejoin="round" stroke-width="1.0"/>
    <path d="M4.2 -3.6 Q5.2 -3.25 5.75 -2.6 6.3 -2.1 6.65 -1.05 L4.2 -1.05 4.2 -3.6 M5.75 2.6 Q5.2 3.25 4.2 3.6 L4.2 1.05 6.65 1.05 Q6.3 2.1 5.75 2.6 M-4.15 -1.05 L-6.6 -1.05 Q-6.25 -2.1 -5.7 -2.6 -5.15 -3.25 -4.15 -3.6 L-4.15 -1.05 M-4.15 3.6 Q-5.15 3.25 -5.7 2.6 -6.25 2.1 -6.6 1.05 L-4.15 1.05 -4.15 3.6" fill="#ffffff" fill-rule="evenodd" stroke="none"/>
    <path d="M4.2 -3.6 L4.2 -1.05 6.65 -1.05 Q6.3 -2.1 5.75 -2.6 5.2 -3.25 4.2 -3.6 M5.75 2.6 Q5.2 3.25 4.2 3.6 L4.2 1.05 6.65 1.05 Q6.3 2.1 5.75 2.6 M-4.15 -1.05 L-4.15 -3.6 Q-5.15 -3.25 -5.7 -2.6 -6.25 -2.1 -6.6 -1.05 L-4.15 -1.05 M-4.15 3.6 Q-5.15 3.25 -5.7 2.6 -6.25 2.1 -6.6 1.05 L-4.15 1.05 -4.15 3.6 Z" fill="none" stroke="#ccffff" stroke-linecap="round" stroke-linejoin="round" stroke-width="1.0"/>
  </g>
</svg>
