<?xml version="1.0" encoding="UTF-8" standalone="no"?>
<svg xmlns:ffdec="https://www.free-decompiler.com/flash" xmlns:xlink="http://www.w3.org/1999/xlink" ffdec:objectType="shape" height="24.45px" width="15.05px" xmlns="http://www.w3.org/2000/svg">
  <g transform="matrix(1.0, 0.0, 0.0, 1.0, 9.3, 6.4)">
    <path d="M2.45 2.4 L3.05 5.4 2.5 5.25 1.5 5.4 0.25 6.45 0.25 9.45 -0.6 12.65 -1.8 12.1 -3.6 12.55 Q-4.95 9.25 -5.0 8.2 L-5.3 5.9 -1.05 4.15 0.3 4.75 1.25 3.3 2.45 2.4" fill="#1f1f1f" fill-rule="evenodd" stroke="none"/>
    <path d="M2.7 5.35 L2.65 13.15 -0.05 13.65 -0.85 12.9 0.25 9.9 0.05 7.05 0.6 6.1 1.7 5.45 2.7 5.35" fill="#161616" fill-rule="evenodd" stroke="none"/>
    <path d="M-5.15 6.05 Q-5.25 6.8 -4.75 8.75 -4.3 10.75 -3.45 12.75" fill="none" stroke="#0d0d0d" stroke-linecap="round" stroke-linejoin="round" stroke-width="1.0"/>
    <path d="M2.55 2.55 Q3.05 3.25 2.85 6.95 L2.65 13.3" fill="none" stroke="#0f0f0f" stroke-linecap="round" stroke-linejoin="round" stroke-width="1.0"/>
    <path d="M-0.95 4.2 L-6.2 6.05 Q-10.15 1.25 -8.15 -2.0 L-4.6 -1.35 -0.8 -1.45 -0.95 4.2" fill="#282828" fill-rule="evenodd" stroke="none"/>
    <path d="M-0.95 4.2 L-6.2 6.05 Q-10.15 1.25 -8.15 -2.0 L-4.6 -1.35 -0.8 -1.45" fill="none" stroke="#121212" stroke-linecap="round" stroke-linejoin="round" stroke-width="1.0"/>
    <path d="M-5.1 2.9 L-1.3 2.2" fill="none" stroke="#172148" stroke-linecap="round" stroke-linejoin="round" stroke-width="1.0"/>
    <path d="M4.15 1.95 L4.15 2.0 Q2.7 1.9 1.8 2.9 L0.2 4.9 -2.35 3.3 Q-0.8 2.25 -0.7 -0.85 L-0.75 -3.8 0.4 -4.65 1.05 -5.9 4.5 -5.55 4.9 -1.8 Q4.9 0.0 4.15 1.95" fill="#282828" fill-rule="evenodd" stroke="none"/>
    <path d="M4.15 1.95 Q4.9 0.0 4.9 -1.8 L4.5 -5.55 1.05 -5.9 0.4 -4.65 -0.75 -3.8 -0.7 -0.85 Q-0.8 2.25 -2.35 3.3 L0.2 4.9 1.8 2.9 Q2.7 1.9 4.15 1.95 Z" fill="none" stroke="#1a1a1a" stroke-linecap="round" stroke-linejoin="round" stroke-width="1.0"/>
    <path d="M2.85 13.1 L3.2 13.4 Q3.95 14.0 4.25 15.0 L4.5 16.7 1.95 17.05 -0.1 16.65 -1.95 17.1 -3.75 17.55 -4.7 13.4 -1.6 12.05 -0.05 13.65 2.85 13.1" fill="#282828" fill-rule="evenodd" stroke="none"/>
    <path d="M2.85 13.1 L-0.05 13.65 -1.6 12.05 -4.7 13.4 -3.75 17.55 -1.95 17.1 -0.1 16.65 1.95 17.05 4.5 16.7 4.25 15.0 Q3.95 14.0 3.2 13.4 L2.85 13.1 Z" fill="none" stroke="#121212" stroke-linecap="round" stroke-linejoin="round" stroke-width="1.0"/>
    <path d="M3.05 -3.7 L5.0 -3.6 5.25 -1.55 4.6 0.95 2.65 0.7 3.05 -3.7" fill="#8e6303" fill-rule="evenodd" stroke="none"/>
    <path d="M3.05 -3.7 L2.65 0.7 4.6 0.95 5.25 -1.55 5.0 -3.6 3.05 -3.7 Z" fill="none" stroke="#261c04" stroke-linecap="round" stroke-linejoin="round" stroke-width="1.0"/>
    <path d="M2.65 5.25 Q2.0 4.95 1.0 5.75 -0.1 6.7 0.15 8.05 0.3 9.2 0.05 10.55 L-0.55 12.85" fill="none" stroke="#0f0f0f" stroke-linecap="round" stroke-linejoin="round" stroke-width="1.0"/>
    <path d="M3.15 -2.4 L4.7 -2.3" fill="none" stroke="#cb8f04" stroke-linecap="round" stroke-linejoin="round" stroke-width="1.0"/>
    <path d="M3.1 -0.65 L4.65 -0.5" fill="none" stroke="#cb8f04" stroke-linecap="round" stroke-linejoin="round" stroke-width="1.0"/>
    <path d="M-7.3 -0.5 L-2.15 0.05 Q-4.7 0.8 -7.3 -0.5" fill="#282828" fill-rule="evenodd" stroke="none"/>
    <path d="M-7.3 -0.5 Q-4.7 0.8 -2.15 0.05" fill="none" stroke="#242424" stroke-linecap="round" stroke-linejoin="round" stroke-width="1.0"/>
    <path d="M-2.75 14.2 L-1.6 13.75" fill="none" stroke="#0f0f0f" stroke-linecap="round" stroke-linejoin="round" stroke-width="1.0"/>
  </g>
</svg>
