<?xml version="1.0" encoding="UTF-8" standalone="no"?>
<svg xmlns:ffdec="https://www.free-decompiler.com/flash" xmlns:xlink="http://www.w3.org/1999/xlink" ffdec:objectType="shape" height="24.65px" width="11.5px" xmlns="http://www.w3.org/2000/svg">
  <g transform="matrix(1.0, 0.0, 0.0, 1.0, 5.75, 3.7)">
    <path d="M2.3 -2.0 L3.4 -1.3 3.75 -0.25 3.7 1.1 2.6 7.25 Q1.65 11.9 1.45 14.7 1.35 15.6 1.7 17.15 L2.25 19.55 Q1.1 19.4 -1.55 20.1 L-5.2 20.3 Q-4.65 19.45 -5.0 13.15 -5.45 5.7 -5.0 2.6 L-4.65 0.25 Q-4.3 -0.8 -3.4 -0.6 -2.25 -0.35 -0.3 -1.1 L2.3 -2.0" fill="#424b48" fill-rule="evenodd" stroke="none"/>
    <path d="M2.3 -2.0 L3.4 -1.3 3.75 -0.25 3.7 1.1 2.6 7.25 Q1.65 11.9 1.45 14.7 1.35 15.6 1.7 17.15 L2.25 19.55 Q1.1 19.4 -1.55 20.1 L-5.2 20.3 Q-4.65 19.45 -5.0 13.15 -5.45 5.7 -5.0 2.6 L-4.65 0.25 Q-4.3 -0.8 -3.4 -0.6 -2.25 -0.35 -0.3 -1.1 L2.3 -2.0 Z" fill="none" stroke="#212625" stroke-linecap="round" stroke-linejoin="round" stroke-width="1.05"/>
    <path d="M1.6 -0.2 Q1.55 1.05 0.6 2.9 L-0.45 4.45" fill="none" stroke="#333936" stroke-linecap="round" stroke-linejoin="round" stroke-width="1.05"/>
    <path d="M-5.0 -0.4 Q-4.65 -0.8 -0.3 -1.8 L4.05 -2.35 Q3.8 -0.8 4.05 0.95 L-0.55 1.0 -5.2 1.2 -5.0 0.65 Q-4.7 0.0 -5.0 -0.4" fill="#3b3b3b" fill-rule="evenodd" stroke="none"/>
    <path d="M-5.0 -0.4 Q-4.7 0.0 -5.0 0.65 L-5.2 1.2 -0.55 1.0 4.05 0.95 Q3.8 -0.8 4.05 -2.35 L-0.3 -1.8 Q-4.65 -0.8 -5.0 -0.4 Z" fill="none" stroke="#222222" stroke-linecap="round" stroke-linejoin="round" stroke-width="1.05"/>
    <path d="M-3.45 9.6 Q-3.35 8.5 -2.8 7.45 L-2.25 6.65" fill="none" stroke="#333936" stroke-linecap="round" stroke-linejoin="round" stroke-width="1.05"/>
    <path d="M-0.85 18.3 Q-1.65 17.15 -1.15 15.2 L-0.45 13.5" fill="none" stroke="#333936" stroke-linecap="round" stroke-linejoin="round" stroke-width="1.05"/>
    <path d="M-0.15 -0.35 L2.45 -0.65" fill="none" stroke="#222222" stroke-linecap="round" stroke-linejoin="round" stroke-width="1.05"/>
    <path d="M4.25 1.65 Q1.95 0.55 2.2 -0.95 2.45 -2.4 4.7 -3.2 5.3 -2.55 5.25 -1.0 5.15 0.7 4.25 1.65" fill="#3b3b3b" fill-rule="evenodd" stroke="none"/>
    <path d="M4.25 1.65 Q5.15 0.7 5.25 -1.0 5.3 -2.55 4.7 -3.2 2.45 -2.4 2.2 -0.95 1.95 0.55 4.25 1.65 Z" fill="none" stroke="#1d1d1d" stroke-linecap="round" stroke-linejoin="round" stroke-width="1.05"/>
  </g>
</svg>
