<?xml version="1.0" encoding="UTF-8" standalone="no"?>
<svg xmlns:ffdec="https://www.free-decompiler.com/flash" xmlns:xlink="http://www.w3.org/1999/xlink" ffdec:objectType="shape" height="29.1px" width="19.35px" xmlns="http://www.w3.org/2000/svg">
  <g transform="matrix(1.0, 0.0, 0.0, 1.0, 7.45, 0.6)">
    <path d="M2.35 19.3 L2.9 20.2 2.85 20.2 2.9 20.2 3.45 21.2 2.85 20.2 2.35 19.3" fill="#3a392e" fill-rule="evenodd" stroke="none"/>
    <path d="M1.8 2.4 L6.55 0.95 8.75 0.25 10.8 3.95 10.25 10.3 6.65 8.55 5.75 5.25 2.35 4.4 5.75 5.25 6.65 8.55 10.25 10.3 10.05 12.55 8.65 14.2 8.2 14.7 7.1 15.0 6.8 15.05 6.2 15.2 4.25 12.9 3.9 12.5 3.55 11.1 4.9 8.7 4.5 7.15 2.85 6.45 2.35 4.4 1.8 2.4" fill="#25241a" fill-rule="evenodd" stroke="none"/>
    <path d="M-2.15 17.25 L-2.85 16.9 -2.75 13.0 -1.0 12.15 3.1 14.5 1.25 17.4 1.8 18.35 2.35 19.3 1.8 18.35 2.35 19.3 -2.15 17.25 M-4.15 8.55 L-6.35 8.55 -6.95 4.85 -6.15 2.3 -3.65 2.3 -3.85 4.15 -4.9 4.15 -4.9 6.25 -4.0 6.6 -4.15 8.55" fill="#311616" fill-rule="evenodd" stroke="none"/>
    <path d="M8.65 14.2 L8.4 17.55 8.2 21.05 6.35 22.15 5.55 22.6 4.5 21.9 3.45 21.2 2.9 20.2 2.35 19.3 1.8 18.35 1.25 17.4 4.25 12.9 1.25 17.4 3.1 14.5 4.25 12.9 6.2 15.2 6.8 15.05 6.85 15.1 7.1 15.0 8.2 14.7 8.65 14.2 M8.4 17.55 L6.15 17.7 2.9 20.2 6.15 17.7 8.4 17.55" fill="#511717" fill-rule="evenodd" stroke="none"/>
    <path d="M0.15 4.3 L0.5 4.55 Q1.0 5.05 1.0 5.75 1.0 6.45 0.5 6.9 L0.2 7.15 0.7 10.75 3.9 12.5 4.25 12.9 3.1 14.5 -1.0 12.15 -1.8 7.4 -4.0 6.6 -4.9 6.25 -4.9 4.15 -3.85 4.15 -1.1 4.15 -0.65 4.1 -0.2 4.15 0.15 4.3 M0.2 7.15 L-0.65 7.4 -1.5 7.2 -1.85 6.9 -2.3 5.75 Q-2.3 5.05 -1.85 4.55 L-1.1 4.15 -1.85 4.55 Q-2.3 5.05 -2.3 5.75 L-1.85 6.9 -1.5 7.2 -0.65 7.4 0.2 7.15 M-1.5 7.2 L-1.8 7.4 -1.5 7.2" fill="#3a2a2a" fill-rule="evenodd" stroke="none"/>
    <path d="M6.35 22.15 L7.65 25.05 Q7.8 26.5 7.15 26.8 6.65 27.5 5.25 27.9 4.0 28.25 2.85 27.3 L2.7 27.0 -2.65 25.35 -3.85 23.1 -3.0 21.6 2.15 23.45 Q2.9 22.15 4.5 21.9 L5.55 22.6 6.35 22.15 M2.7 27.0 L1.6 25.15 Q1.75 24.15 2.15 23.45 1.75 24.15 1.6 25.15 L2.7 27.0" fill="#1e1313" fill-rule="evenodd" stroke="none"/>
    <path d="M1.8 2.4 L2.35 4.4 2.85 6.45 4.5 7.15 4.9 8.7 3.55 11.1 3.9 12.5 0.7 10.75 0.2 7.15 0.5 6.9 Q1.0 6.45 1.0 5.75 1.0 5.05 0.5 4.55 L0.15 4.3 0.25 4.15 1.8 2.4" fill="#411717" fill-rule="evenodd" stroke="none"/>
    <path d="M-3.0 21.6 L-3.75 20.3 -2.55 19.6 -2.15 17.25 2.35 19.3 2.85 20.2 3.45 21.2 4.5 21.9 Q2.9 22.15 2.15 23.45 L-3.0 21.6" fill="#331f1f" fill-rule="evenodd" stroke="none"/>
    <path d="M0.25 4.15 L0.15 4.3 M3.9 12.5 L4.25 12.9" fill="none" stroke="#000000" stroke-linecap="round" stroke-linejoin="round" stroke-width="1.0"/>
    <path d="M0.15 4.3 L-0.2 4.15 0.25 4.15 M-1.8 7.4 L-1.5 7.2" fill="none" stroke="#0e1314" stroke-linecap="round" stroke-linejoin="round" stroke-width="1.0"/>
    <path d="M2.35 4.4 L5.75 5.25 6.65 8.55 10.25 10.3" fill="none" stroke="#1e1d17" stroke-linecap="round" stroke-linejoin="round" stroke-width="1.0"/>
    <path d="M10.25 10.3 L10.8 3.95 8.75 0.25 6.55 0.95 1.8 2.4 2.35 4.4 2.85 6.45 4.5 7.15 4.9 8.7 3.55 11.1 3.9 12.5 M10.25 10.3 L10.05 12.55 8.65 14.2 8.2 14.7 7.1 15.0 6.8 15.05 6.2 15.2 4.25 12.9 M-2.75 13.0 L-4.65 10.35 -4.15 8.55 -6.35 8.55 -6.95 4.85 -6.15 2.3 -3.65 2.3 -2.55 1.6 Q-1.3 0.65 1.0 0.2 4.15 -0.1 6.55 0.95 M-3.85 4.15 L-3.65 2.3 M-4.15 8.55 L-4.0 6.6" fill="none" stroke="#191818" stroke-linecap="round" stroke-linejoin="round" stroke-width="1.0"/>
    <path d="M8.65 14.2 L8.4 17.55 8.2 21.05 6.35 22.15 5.55 22.6 4.5 21.9 3.45 21.2 2.85 20.2 2.9 20.2 M-2.85 16.9 L-2.75 13.0 -1.0 12.15 M4.25 12.9 L1.25 17.4 1.8 18.35 2.35 19.3 2.85 20.2" fill="none" stroke="#170505" stroke-linecap="round" stroke-linejoin="round" stroke-width="1.0"/>
    <path d="M0.15 4.3 L0.5 4.55 Q1.0 5.05 1.0 5.75 1.0 6.45 0.5 6.9 L0.2 7.15 0.7 10.75 3.9 12.5 M1.8 2.4 L0.25 4.15 M-0.2 4.15 L-0.65 4.1 -1.1 4.15 -1.85 4.55 Q-2.3 5.05 -2.3 5.75 L-1.85 6.9 -1.5 7.2 -0.65 7.4 0.2 7.15 M3.1 14.5 L-1.0 12.15 -1.8 7.4 -4.0 6.6 -4.9 6.25 -4.9 4.15 -3.85 4.15 -1.1 4.15" fill="none" stroke="#190101" stroke-linecap="round" stroke-linejoin="round" stroke-width="1.0"/>
    <path d="M2.9 20.2 L6.15 17.7 8.4 17.55" fill="none" stroke="#2c0404" stroke-linecap="round" stroke-linejoin="round" stroke-width="1.0"/>
    <path d="M-3.0 21.6 L-3.75 20.3 -2.55 19.6 -2.15 17.25" fill="none" stroke="#231a1a" stroke-linecap="round" stroke-linejoin="round" stroke-width="1.0"/>
    <path d="M6.35 22.15 L7.65 25.05 Q7.8 26.5 7.15 26.8 6.65 27.5 5.25 27.9 4.0 28.25 2.85 27.3 L2.7 27.0 -2.65 25.35 -3.85 23.1 -3.0 21.6 2.15 23.45 Q2.9 22.15 4.5 21.9 M-2.15 17.25 L-2.85 16.9 M2.15 23.45 Q1.75 24.15 1.6 25.15 L2.7 27.0 M2.35 19.3 L-2.15 17.25" fill="none" stroke="#190000" stroke-linecap="round" stroke-linejoin="round" stroke-width="1.0"/>
    <path d="M10.2 12.0 L10.7 12.25 10.25 12.75 10.2 12.0" fill="#312222" fill-rule="evenodd" stroke="none"/>
    <path d="M10.25 12.75 L8.2 14.75 6.2 15.25 4.3 13.0 3.55 11.2 4.9 8.8 4.5 7.15 2.9 6.5 1.8 2.4 9.2 -0.1 11.4 3.95 10.8 3.95 7.65 5.65 7.65 10.75 10.2 12.0 10.25 12.75" fill="#511717" fill-rule="evenodd" stroke="none"/>
    <path d="M10.8 3.95 Q11.1 7.7 10.2 12.0 L7.65 10.75 7.65 5.65 10.8 3.95" fill="#ff0000" fill-rule="evenodd" stroke="none"/>
    <path d="M10.8 3.95 Q11.1 7.7 10.2 12.0 L10.7 12.25 10.25 12.75 8.2 14.75 6.2 15.25 4.3 13.0 3.55 11.2 M1.8 2.4 L9.2 -0.1 11.4 3.95 10.8 3.95 7.65 5.65 7.65 10.75 10.2 12.0 10.25 12.75" fill="none" stroke="#170505" stroke-linecap="round" stroke-linejoin="round" stroke-width="1.0"/>
    <path d="M3.55 11.2 L4.9 8.8 4.5 7.15 2.9 6.5 1.8 2.4" fill="none" stroke="#2c0404" stroke-linecap="round" stroke-linejoin="round" stroke-width="1.0"/>
    <path d="M1.8 2.4 L9.2 -0.1 11.4 3.95 10.8 3.95 Q11.1 7.7 10.2 12.0 L10.7 12.25 10.25 12.75 8.2 14.75 6.2 15.25 4.3 13.0 3.55 11.2 M10.8 3.95 L7.65 5.65 7.65 10.75 10.2 12.0 10.25 12.75" fill="none" stroke="#170505" stroke-linecap="round" stroke-linejoin="round" stroke-width="1.0"/>
  </g>
</svg>
