<?xml version="1.0" encoding="UTF-8" standalone="no"?>
<svg xmlns:ffdec="https://www.free-decompiler.com/flash" xmlns:xlink="http://www.w3.org/1999/xlink" ffdec:objectType="shape" height="11.2px" width="13.9px" xmlns="http://www.w3.org/2000/svg">
  <g transform="matrix(1.0, 0.0, 0.0, 1.0, 8.1, 0.75)">
    <path d="M-6.05 2.9 L-3.75 4.6 -0.95 5.65 -1.8 6.8 -4.4 6.55 -6.0 7.3 -7.5 7.15 -7.6 4.8 -6.05 2.9" fill="#2c3037" fill-rule="evenodd" stroke="none"/>
    <path d="M-3.65 1.25 L-4.15 1.5 -4.3 1.95 -4.1 2.4 Q-3.9 2.7 -3.6 2.6 L-3.15 2.4 -2.9 1.85 -3.15 1.35 -3.65 1.25 M-6.5 1.1 L-5.6 0.1 -3.75 -0.25 1.3 0.55 4.15 0.5 Q6.3 3.1 4.4 5.75 L2.9 5.95 3.75 6.8 3.7 8.35 2.05 9.95 0.9 9.85 0.85 9.8 -2.1 9.0 -1.8 6.8 -0.95 5.65 -3.75 4.6 -6.05 2.9 -6.5 1.1 M-0.15 2.1 Q-0.6 1.8 -0.95 1.8 -1.55 1.85 -1.75 2.3 L-2.0 3.1 Q-2.05 3.6 -1.7 3.95 L-0.9 4.2 -0.25 3.75 Q0.15 3.45 0.15 2.95 L-0.15 2.1" fill="url(#gradient0)" fill-rule="evenodd" stroke="none"/>
    <path d="M-2.9 1.85 L-3.15 2.4 -3.6 2.6 Q-3.9 2.7 -4.1 2.4 L-4.3 1.95 -4.15 1.5 -3.65 1.25 -3.15 1.35 -2.9 1.85 M-1.75 2.3 Q-1.55 1.85 -0.95 1.8 -0.6 1.8 -0.15 2.1 L0.15 2.95 Q0.15 3.45 -0.25 3.75 L-0.9 4.2 -1.7 3.95 Q-2.05 3.6 -2.0 3.1 L-1.75 2.3" fill="#44b5ff" fill-rule="evenodd" stroke="none"/>
    <path d="M-2.9 1.85 L-3.15 2.4 -3.6 2.6 Q-3.9 2.7 -4.1 2.4 L-4.3 1.95 -4.15 1.5 -3.65 1.25 -3.15 1.35 -2.9 1.85 M-1.75 2.3 Q-1.55 1.85 -0.95 1.8 -0.6 1.8 -0.15 2.1 L0.15 2.95 Q0.15 3.45 -0.25 3.75 L-0.9 4.2 -1.7 3.95 Q-2.05 3.6 -2.0 3.1 L-1.75 2.3 Z" fill="none" stroke="#121921" stroke-linecap="round" stroke-linejoin="round" stroke-width="1.0"/>
    <path d="M2.85 9.15 L2.05 9.95 0.9 9.85 0.85 9.8 -2.1 9.0 -1.8 6.8 -4.4 6.55 -6.0 7.3 -7.5 7.15 -7.6 4.8 -6.05 2.9 -3.75 4.6 -0.95 5.65 2.5 6.0 2.9 5.95 M-0.95 5.65 L-1.8 6.8 M3.25 0.5 L1.3 0.55 -3.75 -0.25 -5.6 0.1" fill="none" stroke="#0d1215" stroke-linecap="round" stroke-linejoin="round" stroke-width="1.0"/>
    <path d="M3.25 0.5 L4.15 0.5 Q6.3 3.1 4.4 5.75 L2.9 5.95 3.75 6.8 3.7 8.35 2.85 9.15 M-5.6 0.1 L-6.5 1.1 -6.05 2.9" fill="none" stroke="#0d1215" stroke-linecap="round" stroke-linejoin="round" stroke-width="1.0"/>
    <path d="M-6.45 5.5 L-5.95 6.1 M-5.35 4.95 L-4.75 5.55" fill="none" stroke="#1a1a1a" stroke-linecap="round" stroke-linejoin="round" stroke-width="1.0"/>
  </g>
  <defs>
    <linearGradient gradientTransform="matrix(0.0035, 4.0E-4, -4.0E-4, 0.0035, 0.45, 4.85)" gradientUnits="userSpaceOnUse" id="gradient0" spreadMethod="pad" x1="-819.2" x2="819.2">
      <stop offset="0.0" stop-color="#1d2b38"/>
      <stop offset="1.0" stop-color="#495d71"/>
    </linearGradient>
  </defs>
</svg>
