<?xml version="1.0" encoding="UTF-8" standalone="no"?>
<svg xmlns:ffdec="https://www.free-decompiler.com/flash" xmlns:xlink="http://www.w3.org/1999/xlink" ffdec:objectType="shape" height="23.15px" width="15.05px" xmlns="http://www.w3.org/2000/svg">
  <g transform="matrix(1.0, 0.0, 0.0, 1.0, 8.95, 4.25)">
    <path d="M5.2 -2.0 L5.5 -1.1 Q5.75 -0.1 5.5 0.9 L4.8 5.1 3.4 6.75 2.3 5.2 Q1.45 4.45 -0.15 4.1 L-0.6 -0.6 1.15 -2.95 2.9 -3.4 Q3.9 -3.55 4.8 -2.3 L5.2 -2.0" fill="#7b756f" fill-rule="evenodd" stroke="none"/>
    <path d="M-1.15 -0.55 L-0.1 1.3 0.55 3.65 3.75 5.6 3.6 10.4 Q3.2 13.95 -0.95 13.6 L-3.6 10.65 -5.15 10.15 -7.05 12.3 -7.8 11.65 Q-8.3 4.55 -7.2 1.85 -5.6 -1.7 -1.15 -0.55" fill="#5c5753" fill-rule="evenodd" stroke="none"/>
    <path d="M-1.15 -0.55 Q-5.6 -1.7 -7.2 1.85 -8.3 4.55 -7.8 11.65 L-7.05 12.3 -5.15 10.15 -3.6 10.65 -0.95 13.6 Q3.2 13.95 3.6 10.4 L3.75 5.6 0.55 3.65 -0.1 1.3 -1.15 -0.55 Z" fill="none" stroke="#413e3a" stroke-linecap="round" stroke-linejoin="round" stroke-width="1.0"/>
    <path d="M-2.5 9.45 L-1.2 10.9 -1.15 14.7 -2.5 16.35 -4.15 16.5 -5.35 16.55 -6.75 18.4 -8.45 16.85 Q-7.65 15.65 -7.65 14.05 -7.6 13.0 -8.0 11.2 L-6.95 9.0 -5.45 7.7 -3.75 7.85 Q-3.35 7.85 -3.3 8.35 L-2.5 9.45" fill="#5c5753" fill-rule="evenodd" stroke="none"/>
    <path d="M-2.5 9.45 L-1.2 10.9 -1.15 14.7 -2.5 16.35 -4.15 16.5 -5.35 16.55 -6.75 18.4 -8.45 16.85 Q-7.65 15.65 -7.65 14.05 -7.6 13.0 -8.0 11.2 L-6.95 9.0 -5.45 7.7 -3.75 7.85 Q-3.35 7.85 -3.3 8.35 L-2.5 9.45 Z" fill="none" stroke="#302e2a" stroke-linecap="round" stroke-linejoin="round" stroke-width="1.0"/>
    <path d="M3.4 11.5 L3.4 15.65 4.65 16.4 3.1 17.6 1.35 18.05 0.55 16.65 -2.4 16.3 2.25 10.7 3.8 10.0 3.4 11.5" fill="#746e68" fill-rule="evenodd" stroke="none"/>
    <path d="M1.45 -3.5 L3.45 -3.75 4.8 -2.3 5.2 -2.0 5.55 -0.9 5.6 0.35 5.1 2.45 4.0 3.75 3.75 4.15 3.85 6.15" fill="none" stroke="#3b3834" stroke-linecap="round" stroke-linejoin="round" stroke-width="1.0"/>
    <path d="M1.15 -2.95 L-0.6 -0.6" fill="none" stroke="#413e3b" stroke-linecap="round" stroke-linejoin="round" stroke-width="1.0"/>
    <path d="M-0.6 -0.6 L0.35 3.3 -0.9 6.15 -3.45 8.2" fill="none" stroke="#413e3a" stroke-linecap="round" stroke-linejoin="round" stroke-width="1.0"/>
    <path d="M3.5 5.65 Q2.8 4.85 1.65 4.45 L0.55 4.15" fill="none" stroke="#413e3b" stroke-linecap="round" stroke-linejoin="round" stroke-width="1.0"/>
    <path d="M3.75 4.15 Q4.1 6.2 3.6 7.8" fill="none" stroke="#3b3834" stroke-linecap="round" stroke-linejoin="round" stroke-width="1.0"/>
    <path d="M-8.1 16.5 Q-7.95 16.95 -7.7 14.3 -7.45 11.4 -7.8 9.3 -8.5 6.9 -8.05 4.3 -7.5 1.35 -5.45 -0.3" fill="none" stroke="#2e2c2a" stroke-linecap="round" stroke-linejoin="round" stroke-width="1.0"/>
    <path d="M3.6 8.0 L3.8 15.25 4.8 16.4 3.2 17.6 1.75 17.65 0.35 16.5 -2.85 16.65" fill="none" stroke="#413e3a" stroke-linecap="round" stroke-linejoin="round" stroke-width="1.0"/>
    <path d="M-2.35 16.8 Q-2.2 16.75 -1.4 15.05 L-0.4 13.35 Q1.2 12.95 2.35 10.7 L3.5 10.25" fill="none" stroke="#413e3a" stroke-linecap="round" stroke-linejoin="round" stroke-width="1.0"/>
    <path d="M4.45 -2.65 L5.55 -1.5 5.2 2.2 4.15 3.5 3.65 7.2 3.65 14.95 4.9 16.2" fill="none" stroke="#2e2c2a" stroke-linecap="round" stroke-linejoin="round" stroke-width="1.0"/>
  </g>
</svg>
