<?xml version="1.0" encoding="UTF-8" standalone="no"?>
<svg xmlns:ffdec="https://www.free-decompiler.com/flash" xmlns:xlink="http://www.w3.org/1999/xlink" ffdec:objectType="shape" height="21.65px" width="13.25px" xmlns="http://www.w3.org/2000/svg">
  <g transform="matrix(1.0, 0.0, 0.0, 1.0, 7.15, 4.4)">
    <path d="M1.05 15.05 Q-2.3 18.4 -4.4 15.25 L1.05 15.05" fill="#26353e" fill-rule="evenodd" stroke="none"/>
    <path d="M2.45 9.45 L1.4 14.0 -0.7 12.7 0.0 9.6 2.45 9.45" fill="#65bcf6" fill-rule="evenodd" stroke="none"/>
    <path d="M-4.7 1.9 Q-5.1 0.85 -4.85 -1.25 -0.6 -3.35 1.95 -3.85 4.45 -4.35 5.6 -2.45 5.85 0.85 3.75 4.1 L2.6 4.1 -0.7 3.3 -4.65 1.9 -4.7 1.9" fill="url(#gradient0)" fill-rule="evenodd" stroke="none"/>
    <path d="M-0.7 3.3 L2.6 4.1 3.75 4.1 2.45 9.45 0.0 9.6 -0.7 12.7 1.4 14.0 1.05 15.05 -4.4 15.25 -6.7 12.1 -1.35 7.65 -0.7 3.3 M-4.7 1.9 L-4.65 1.9 -3.3 2.45 -4.0 5.9 -6.6 8.15 Q-6.35 3.0 -4.7 1.9" fill="#152026" fill-rule="evenodd" stroke="none"/>
    <path d="M-3.3 2.45 L-0.7 3.3 -1.35 7.65 -6.7 12.1 -6.6 8.15 -4.0 5.9 -3.3 2.45" fill="#26353e" fill-rule="evenodd" stroke="none"/>
    <path d="M3.75 4.1 Q5.85 0.85 5.6 -2.45 4.45 -4.35 1.95 -3.85 -0.6 -3.35 -4.85 -1.25 -5.1 0.85 -4.7 1.9 L-4.65 1.9 -3.3 2.45 -0.7 3.3 2.6 4.1 3.75 4.1 2.45 9.45 1.4 14.0 1.05 15.05 Q-2.3 18.4 -4.4 15.25 L-6.7 12.1 -6.6 8.15 Q-6.35 3.0 -4.7 1.9 M-6.7 12.1 L-1.35 7.65 -0.7 3.3 M-3.3 2.45 L-4.0 5.9 -6.6 8.15 M2.45 9.45 L0.0 9.6 -0.7 12.7 1.4 14.0 M1.05 15.05 L-4.4 15.25" fill="none" stroke="#070a0a" stroke-linecap="round" stroke-linejoin="round" stroke-width="0.9500000000000001"/>
  </g>
  <defs>
    <radialGradient cx="0" cy="0" gradientTransform="matrix(0.0064, -1.0E-4, 1.0E-4, 0.0049, 2.65, -0.75)" gradientUnits="userSpaceOnUse" id="gradient0" r="819.2" spreadMethod="pad">
      <stop offset="0.0" stop-color="#485b70"/>
      <stop offset="1.0" stop-color="#273741"/>
    </radialGradient>
  </defs>
</svg>
