<?xml version="1.0" encoding="UTF-8" standalone="no"?>
<svg xmlns:ffdec="https://www.free-decompiler.com/flash" xmlns:xlink="http://www.w3.org/1999/xlink" ffdec:objectType="shape" height="24.05px" width="17.45px" xmlns="http://www.w3.org/2000/svg">
  <g transform="matrix(1.0, 0.0, 0.0, 1.0, 6.4, 5.75)">
    <path d="M-5.2 3.6 L-4.9 -0.6 Q-4.9 -0.95 -3.75 -0.35 -2.4 0.4 -1.45 -0.1 -0.75 -0.2 1.15 -1.4 2.9 -2.0 3.35 0.7 3.65 2.1 2.55 2.95 1.4 3.8 1.6 5.05 1.7 5.65 3.55 9.95 4.6 12.4 2.55 14.45 L-1.5 15.8 -1.6 15.15 -1.75 14.2 Q-2.0 13.25 -3.15 10.8 L-4.5 7.2 Q-5.2 6.1 -5.2 3.6" fill="#272727" fill-rule="evenodd" stroke="none"/>
    <path d="M-5.2 3.6 Q-5.2 6.1 -4.5 7.2 L-3.15 10.8 Q-2.0 13.25 -1.75 14.2 L-1.6 15.15 -1.5 15.8 2.55 14.45 Q4.6 12.4 3.55 9.95 1.7 5.65 1.6 5.05 1.4 3.8 2.55 2.95 3.65 2.1 3.35 0.7 2.9 -2.0 1.15 -1.4 -0.75 -0.2 -1.45 -0.1 -2.4 0.4 -3.75 -0.35 -4.9 -0.95 -4.9 -0.6 L-5.2 3.6 Z" fill="none" stroke="#1a1a1a" stroke-linecap="round" stroke-linejoin="round" stroke-width="1.0"/>
    <path d="M4.5 -0.4 L5.35 -0.2 5.9 0.65 Q6.4 1.5 6.55 2.8 6.75 3.9 6.45 4.25 L4.65 5.6 Q3.7 6.25 3.7 6.75 L3.8 7.55 3.6 9.25 Q3.55 10.25 3.3 10.7 L0.65 13.7 -0.4 9.6 -0.3 7.1 -0.1 5.65 1.4 4.7 Q2.05 4.0 2.5 2.7 L2.8 1.3 3.55 0.45 4.0 -0.05 4.5 -0.4" fill="url(#gradient0)" fill-rule="evenodd" stroke="none"/>
    <path d="M4.5 -0.4 L5.35 -0.2 5.9 0.65 Q6.4 1.5 6.55 2.8 6.75 3.9 6.45 4.25 L4.65 5.6 Q3.7 6.25 3.7 6.75 L3.8 7.55 3.6 9.25 Q3.55 10.25 3.3 10.7 L0.65 13.7 -0.4 9.6 -0.3 7.1 -0.1 5.65 1.4 4.7 Q2.05 4.0 2.5 2.7 L2.8 1.3 3.55 0.45 4.0 -0.05 4.5 -0.4 Z" fill="none" stroke="#181819" stroke-linecap="butt" stroke-linejoin="miter-clip" stroke-miterlimit="15.12109375" stroke-width="1.0"/>
    <path d="M4.25 8.35 L4.4 7.5 Q4.55 7.95 4.9 7.85 L5.55 7.35 6.85 6.45 Q7.2 6.45 7.15 8.05 L8.65 11.9 10.35 14.8 9.25 15.65 7.35 16.4 4.1 17.3 1.65 17.8 Q0.9 16.95 0.7 14.55 0.85 14.15 1.15 13.85 3.0 11.75 3.1 11.1 3.2 9.65 3.7 8.85 L4.25 8.35" fill="url(#gradient1)" fill-rule="evenodd" stroke="none"/>
    <path d="M4.25 8.35 L3.7 8.85 Q3.2 9.65 3.1 11.1 3.0 11.75 1.15 13.85 0.85 14.15 0.7 14.55 0.9 16.95 1.65 17.8 L4.1 17.3 7.35 16.4 9.25 15.65 10.35 14.8 8.65 11.9 7.15 8.05 Q7.2 6.45 6.85 6.45 L5.55 7.35 4.9 7.85 Q4.55 7.95 4.4 7.5 L4.25 8.35 Z" fill="none" stroke="#181819" stroke-linecap="round" stroke-linejoin="round" stroke-width="1.0"/>
    <path d="M1.9 2.5 L0.55 2.55 -0.9 1.35 Q-1.1 0.75 -0.7 -0.35 L0.45 -1.55 0.7 -2.95 Q3.1 -3.6 4.25 -4.85 4.85 -5.55 5.2 -5.05 L5.7 -2.9 Q5.85 -1.2 5.2 -0.6 3.8 -0.5 2.8 1.0 L2.3 1.7 1.9 2.5" fill="url(#gradient2)" fill-rule="evenodd" stroke="none"/>
    <path d="M1.9 2.5 L2.3 1.7 2.8 1.0 Q3.8 -0.5 5.2 -0.6 5.85 -1.2 5.7 -2.9 L5.2 -5.05 Q4.85 -5.55 4.25 -4.85 3.1 -3.6 0.7 -2.95 L0.45 -1.55 -0.7 -0.35 Q-1.1 0.75 -0.9 1.35 L0.55 2.55 1.9 2.5 Z" fill="none" stroke="#1a1717" stroke-linecap="butt" stroke-linejoin="miter-clip" stroke-miterlimit="15.12109375" stroke-width="1.0"/>
    <path d="M6.5 5.4 L4.7 6.9" fill="none" stroke="#dcc64f" stroke-linecap="round" stroke-linejoin="round" stroke-width="1.0"/>
  </g>
  <defs>
    <radialGradient cx="0" cy="0" gradientTransform="matrix(0.0092, -5.0E-4, 3.0E-4, -0.0125, -0.75, 9.55)" gradientUnits="userSpaceOnUse" id="gradient0" r="819.2" spreadMethod="pad">
      <stop offset="0.0" stop-color="#171718"/>
      <stop offset="1.0" stop-color="#5b5b60"/>
    </radialGradient>
    <radialGradient cx="0" cy="0" gradientTransform="matrix(0.0048, -9.0E-4, -0.0045, -0.0248, 4.35, 11.8)" gradientUnits="userSpaceOnUse" id="gradient1" r="819.2" spreadMethod="pad">
      <stop offset="0.0" stop-color="#2c2c2e"/>
      <stop offset="1.0" stop-color="#505054"/>
    </radialGradient>
    <radialGradient cx="0" cy="0" gradientTransform="matrix(0.0037, 0.0011, 0.0017, -0.0117, 1.3, -0.95)" gradientUnits="userSpaceOnUse" id="gradient2" r="819.2" spreadMethod="pad">
      <stop offset="0.0" stop-color="#251d1d"/>
      <stop offset="1.0" stop-color="#493f3f"/>
    </radialGradient>
  </defs>
</svg>
