<?xml version="1.0" encoding="UTF-8" standalone="no"?>
<svg xmlns:ffdec="https://www.free-decompiler.com/flash" xmlns:xlink="http://www.w3.org/1999/xlink" ffdec:objectType="shape" height="21.65px" width="13.15px" xmlns="http://www.w3.org/2000/svg">
  <g transform="matrix(1.0, 0.0, 0.0, 1.0, 7.15, 4.4)">
    <path d="M0.95 15.0 Q-2.4 18.4 -4.45 15.3 L0.95 15.0" fill="#1d1616" fill-rule="evenodd" stroke="none"/>
    <path d="M2.45 9.5 L1.3 14.05 -0.75 12.75 -0.05 9.65 2.45 9.5" fill="#ff0000" fill-rule="evenodd" stroke="none"/>
    <path d="M-4.75 1.95 Q-5.15 0.8 -4.95 -1.25 -0.7 -3.4 1.85 -3.85 4.55 -4.3 5.5 -2.4 5.8 0.8 3.75 4.15 L2.5 4.15 -0.75 3.3 -4.7 1.9 -4.75 1.95" fill="url(#gradient0)" fill-rule="evenodd" stroke="none"/>
    <path d="M-4.75 1.95 L-4.7 1.9 -3.35 2.4 -4.1 5.95 -6.7 8.25 Q-6.45 3.1 -4.75 1.95 M-0.75 3.3 L2.5 4.15 3.75 4.15 2.45 9.5 -0.05 9.65 -0.75 12.75 1.3 14.05 0.95 15.0 -4.45 15.3 -6.7 12.1 -1.35 7.65 -0.75 3.3" fill="#1d1616" fill-rule="evenodd" stroke="none"/>
    <path d="M-3.35 2.4 L-0.75 3.3 -1.35 7.65 -6.7 12.1 -6.7 8.25 -4.1 5.95 -3.35 2.4" fill="#2a1f1f" fill-rule="evenodd" stroke="none"/>
    <path d="M-3.35 2.4 L-0.75 3.3 2.5 4.15 3.75 4.15 Q5.8 0.8 5.5 -2.4 4.55 -4.3 1.85 -3.85 -0.7 -3.4 -4.95 -1.25 -5.15 0.8 -4.75 1.95 L-4.7 1.9 -3.35 2.4 -4.1 5.95 -6.7 8.25 -6.7 12.1 -1.35 7.65 -0.75 3.3 M3.75 4.15 L2.45 9.5 1.3 14.05 0.95 15.0 Q-2.4 18.4 -4.45 15.3 L-6.7 12.1 M2.45 9.5 L-0.05 9.65 -0.75 12.75 1.3 14.05 M0.95 15.0 L-4.45 15.3 M-6.7 8.25 Q-6.45 3.1 -4.75 1.95" fill="none" stroke="#0a0707" stroke-linecap="round" stroke-linejoin="round" stroke-width="0.9500000000000001"/>
  </g>
  <defs>
    <radialGradient cx="0" cy="0" gradientTransform="matrix(0.0064, -1.0E-4, 1.0E-4, 0.0049, 2.6, -0.8)" gradientUnits="userSpaceOnUse" id="gradient0" r="819.2" spreadMethod="pad">
      <stop offset="0.0" stop-color="#644040"/>
      <stop offset="1.0" stop-color="#452c2c"/>
    </radialGradient>
  </defs>
</svg>
