<?xml version="1.0" encoding="UTF-8" standalone="no"?>
<svg xmlns:ffdec="https://www.free-decompiler.com/flash" xmlns:xlink="http://www.w3.org/1999/xlink" ffdec:objectType="shape" height="24.0px" width="15.25px" xmlns="http://www.w3.org/2000/svg">
  <g transform="matrix(1.0, 0.0, 0.0, 1.0, 8.2, 7.15)">
    <path d="M5.75 -5.6 L-4.65 -4.15 -0.8 -6.2 -0.75 -6.2 4.7 -6.25 5.7 -5.65 5.75 -5.6 M4.6 6.85 L4.5 7.15 2.55 11.7 Q2.3 13.8 0.65 14.6 L0.65 14.65 0.5 14.65 3.45 6.4 3.75 6.5 4.6 6.85" fill="#615e57" fill-rule="evenodd" stroke="none"/>
    <path d="M4.6 6.8 L4.6 6.85 3.75 6.5 4.6 6.8 M4.5 7.15 L3.0 11.45 2.05 13.7 0.65 14.6 Q2.3 13.8 2.55 11.7 L4.5 7.15 M5.7 -5.65 L4.7 -6.25 -0.75 -6.2 3.0 -6.65 Q4.65 -6.75 5.7 -5.65" fill="#746e69" fill-rule="evenodd" stroke="none"/>
    <path d="M5.75 -5.6 L6.45 -4.3 6.4 -0.85 Q3.45 -0.9 2.3 -0.25 0.4 0.8 -1.0 1.95 L-5.3 -3.0 -5.05 -3.9 -4.65 -4.15 5.75 -5.6" fill="url(#gradient0)" fill-rule="evenodd" stroke="none"/>
    <path d="M-1.0 1.95 Q0.4 0.8 2.3 -0.25 3.45 -0.9 6.4 -0.85 6.65 -1.25 6.45 2.45 5.95 6.65 4.6 6.8 L3.75 6.5 3.45 6.4 Q0.35 5.5 -0.95 5.9 -1.05 5.0 -1.4 4.25 L-2.15 3.1 -1.0 1.95" fill="url(#gradient1)" fill-rule="evenodd" stroke="none"/>
    <path d="M0.5 14.65 Q-1.25 15.4 -4.8 16.35 -5.45 15.45 -5.55 13.7 L-5.15 9.3 -2.55 9.05 Q-1.3 8.25 -1.05 6.8 L-0.95 5.9 Q0.35 5.5 3.45 6.4 L0.5 14.65" fill="url(#gradient2)" fill-rule="evenodd" stroke="none"/>
    <path d="M-5.3 -3.0 L-1.0 1.95 -2.15 3.1 Q-2.65 2.65 -3.5 2.3 L-5.15 2.35 -5.7 -3.4 -5.3 -3.0" fill="url(#gradient3)" fill-rule="evenodd" stroke="none"/>
    <path d="M-5.15 9.3 Q-6.6 8.8 -7.25 7.5 -7.85 6.15 -7.65 4.8 -7.3 3.55 -5.9 2.7 L-5.15 2.35 -3.5 2.3 Q-2.65 2.65 -2.15 3.1 L-1.4 4.25 Q-1.05 5.0 -0.95 5.9 L-1.05 6.8 Q-1.3 8.25 -2.55 9.05 L-5.15 9.3" fill="#333333" fill-rule="evenodd" stroke="none"/>
    <path d="M6.4 -0.85 L6.45 -4.3 5.75 -5.6 5.7 -5.65 Q4.65 -6.75 3.0 -6.65 L-0.75 -6.2 -0.8 -6.2 -4.65 -4.15 -5.05 -3.9 -5.7 -3.4 -5.3 -3.0 -1.0 1.95 Q0.4 0.8 2.3 -0.25 3.45 -0.9 6.4 -0.85 6.65 -1.25 6.45 2.45 5.95 6.65 4.6 6.8 L4.6 6.85 M4.5 7.15 L3.0 11.45 2.05 13.7 0.65 14.6 0.65 14.65 0.5 14.65 Q-1.25 15.4 -4.8 16.35 -5.45 15.45 -5.55 13.7 L-5.15 9.3 Q-6.6 8.8 -7.25 7.5 -7.85 6.15 -7.65 4.8 -7.3 3.55 -5.9 2.7 L-5.15 2.35 -5.7 -3.4 M3.45 6.4 L3.75 6.5 4.6 6.8 M3.45 6.4 Q0.35 5.5 -0.95 5.9 L-1.05 6.8 Q-1.3 8.25 -2.55 9.05 L-5.15 9.3 M-2.15 3.1 L-1.4 4.25 Q-1.05 5.0 -0.95 5.9 M-5.15 2.35 L-3.5 2.3 Q-2.65 2.65 -2.15 3.1 L-1.0 1.95" fill="none" stroke="#2b2927" stroke-linecap="round" stroke-linejoin="round" stroke-width="1.0"/>
  </g>
  <defs>
    <radialGradient cx="0" cy="0" gradientTransform="matrix(0.0079, 0.0, 0.0, 0.0079, 0.6, -1.8)" gradientUnits="userSpaceOnUse" id="gradient0" r="819.2" spreadMethod="pad">
      <stop offset="0.0" stop-color="#523b40"/>
      <stop offset="1.0" stop-color="#452d33"/>
      <stop offset="1.0" stop-color="#333333"/>
      <stop offset="1.0" stop-color="#523b40"/>
      <stop offset="1.0" stop-color="#523b40"/>
      <stop offset="1.0" stop-color="#523b40"/>
    </radialGradient>
    <radialGradient cx="0" cy="0" gradientTransform="matrix(0.007, 0.0, 0.0, 0.007, 2.4, 2.75)" gradientUnits="userSpaceOnUse" id="gradient1" r="819.2" spreadMethod="pad">
      <stop offset="0.0" stop-color="#4d4946"/>
      <stop offset="1.0" stop-color="#3c3b38"/>
      <stop offset="1.0" stop-color="#333333"/>
    </radialGradient>
    <radialGradient cx="0" cy="0" gradientTransform="matrix(0.0079, 0.0, 0.0, 0.0079, -1.75, 9.4)" gradientUnits="userSpaceOnUse" id="gradient2" r="819.2" spreadMethod="pad">
      <stop offset="0.0" stop-color="#523b40"/>
      <stop offset="1.0" stop-color="#452d33"/>
      <stop offset="1.0" stop-color="#333333"/>
      <stop offset="1.0" stop-color="#523b40"/>
      <stop offset="1.0" stop-color="#523b40"/>
      <stop offset="1.0" stop-color="#523b40"/>
    </radialGradient>
    <radialGradient cx="0" cy="0" gradientTransform="matrix(0.0049, 0.0, 0.0, 0.0049, -3.35, -0.15)" gradientUnits="userSpaceOnUse" id="gradient3" r="819.2" spreadMethod="pad">
      <stop offset="0.0" stop-color="#523b40"/>
      <stop offset="1.0" stop-color="#452d33"/>
      <stop offset="1.0" stop-color="#333333"/>
      <stop offset="1.0" stop-color="#523b40"/>
      <stop offset="1.0" stop-color="#523b40"/>
      <stop offset="1.0" stop-color="#523b40"/>
    </radialGradient>
  </defs>
</svg>
