<?xml version="1.0" encoding="UTF-8" standalone="no"?>
<svg xmlns:ffdec="https://www.free-decompiler.com/flash" xmlns:xlink="http://www.w3.org/1999/xlink" ffdec:objectType="shape" height="22.4px" width="16.7px" xmlns="http://www.w3.org/2000/svg">
  <g transform="matrix(1.0, 0.0, 0.0, 1.0, 9.65, 6.5)">
    <path d="M-0.95 -3.9 L0.0 -6.0 2.85 -6.0 6.55 -5.1 Q6.25 -2.45 4.35 0.25 L4.3 0.25 1.0 -0.6 -1.3 -3.1 -0.95 -3.9" fill="url(#gradient0)" fill-rule="evenodd" stroke="none"/>
    <path d="M-6.4 -1.75 L-6.15 -3.9 Q-2.95 -5.2 -0.95 -3.9 L-1.3 -3.1 1.0 -0.6 -0.15 -0.2 -6.4 -1.75" fill="url(#gradient1)" fill-rule="evenodd" stroke="none"/>
    <path d="M-3.25 15.25 Q-4.0 15.9 -5.7 14.35 L-5.7 12.15 Q-5.5 11.25 -4.9 10.5 L-4.1 10.1 -4.7 1.6 -8.45 0.6 -6.4 -1.75 -0.15 -0.2 -1.2 0.2 -1.2 4.15 -0.55 5.65 -0.55 9.6 -2.3 10.95 -2.7 13.85 -2.7 13.95 Q-2.85 14.9 -3.25 15.25 L-5.7 14.35 -3.25 15.25" fill="#333333" fill-rule="evenodd" stroke="none"/>
    <path d="M4.35 0.25 L4.35 4.05 4.35 5.1 4.35 11.5 4.05 11.85 4.05 0.5 3.1 0.5 3.1 12.75 4.0 11.9 3.8 12.2 3.75 12.2 2.9 14.1 -2.9 15.4 -2.7 13.95 -2.7 13.85 -2.3 10.95 -0.55 9.6 -0.55 5.65 -1.2 4.15 -1.2 0.2 -0.15 -0.2 1.0 -0.6 4.3 0.25 4.35 0.25" fill="url(#gradient2)" fill-rule="evenodd" stroke="none"/>
    <path d="M-5.7 10.9 L-7.2 10.3 -9.15 5.3 -8.45 0.6 -4.7 1.6 -4.1 10.1 -4.9 10.5 -5.7 10.9" fill="url(#gradient3)" fill-rule="evenodd" stroke="none"/>
    <path d="M-2.9 15.4 L-3.25 15.25 Q-2.85 14.9 -2.7 13.95 L-2.9 15.4 M-5.7 12.15 L-5.7 10.9 -4.9 10.5 Q-5.5 11.25 -5.7 12.15" fill="#746e69" fill-rule="evenodd" stroke="none"/>
    <path d="M4.05 11.85 L4.05 11.9 4.0 11.9 3.1 12.75 3.1 0.5 4.05 0.5 4.05 11.85" fill="#615e57" fill-rule="evenodd" stroke="none"/>
    <path d="M-0.95 -3.9 L0.0 -6.0 2.85 -6.0 6.55 -5.1 Q6.25 -2.45 4.35 0.25 L4.35 4.05 4.35 5.1 4.35 11.5 4.05 11.85 M4.0 11.9 L3.8 12.2 3.75 12.2 2.9 14.1 -2.9 15.4 -3.25 15.25 -5.7 14.35 -5.7 12.15 -5.7 10.9 -7.2 10.3 -9.15 5.3 -8.45 0.6 -6.4 -1.75 -6.15 -3.9 Q-2.95 -5.2 -0.95 -3.9 L-1.3 -3.1 1.0 -0.6 4.3 0.25 4.35 0.25 M-0.15 -0.2 L-6.4 -1.75 M-0.15 -0.2 L-1.2 0.2 -1.2 4.15 -0.55 5.65 -0.55 9.6 -2.3 10.95 -2.7 13.85 -2.7 13.95 -2.9 15.4 M-8.45 0.6 L-4.7 1.6 -4.1 10.1 -4.9 10.5 -5.7 10.9 M1.0 -0.6 L-0.15 -0.2" fill="none" stroke="#2b2927" stroke-linecap="round" stroke-linejoin="round" stroke-width="1.0"/>
  </g>
  <defs>
    <radialGradient cx="0" cy="0" gradientTransform="matrix(0.0095, 0.0, 0.0, 0.0095, 2.55, -3.15)" gradientUnits="userSpaceOnUse" id="gradient0" r="819.2" spreadMethod="pad">
      <stop offset="0.0" stop-color="#4d4946"/>
      <stop offset="1.0" stop-color="#3c3b38"/>
      <stop offset="1.0" stop-color="#333333"/>
    </radialGradient>
    <radialGradient cx="0" cy="0" gradientTransform="matrix(0.006, 0.0, 0.0, 0.006, -3.15, -3.25)" gradientUnits="userSpaceOnUse" id="gradient1" r="819.2" spreadMethod="pad">
      <stop offset="0.0" stop-color="#4f524e"/>
      <stop offset="1.0" stop-color="#373836"/>
    </radialGradient>
    <radialGradient cx="0" cy="0" gradientTransform="matrix(0.0137, 0.0, 0.0, 0.0137, 1.45, 5.0)" gradientUnits="userSpaceOnUse" id="gradient2" r="819.2" spreadMethod="pad">
      <stop offset="0.0" stop-color="#4f524e"/>
      <stop offset="1.0" stop-color="#373836"/>
    </radialGradient>
    <radialGradient cx="0" cy="0" gradientTransform="matrix(0.007, 0.0, 0.0, 0.007, -7.1, 5.3)" gradientUnits="userSpaceOnUse" id="gradient3" r="819.2" spreadMethod="pad">
      <stop offset="0.0" stop-color="#4f524e"/>
      <stop offset="1.0" stop-color="#373836"/>
    </radialGradient>
  </defs>
</svg>
