<?xml version="1.0" encoding="UTF-8" standalone="no"?>
<svg xmlns:ffdec="https://www.free-decompiler.com/flash" xmlns:xlink="http://www.w3.org/1999/xlink" ffdec:objectType="shape" height="23.15px" width="14.3px" xmlns="http://www.w3.org/2000/svg">
  <g transform="matrix(1.0, 0.0, 0.0, 1.0, 7.2, 3.0)">
    <path d="M3.5 1.35 Q3.8 2.85 2.7 5.55 L1.25 9.05 0.05 12.0 -1.15 15.85 Q-1.7 17.95 -2.0 18.2 -2.55 18.65 -3.65 18.6 -4.8 18.6 -5.55 18.05 -6.25 17.55 -6.45 14.15 -6.65 10.85 -6.25 7.25 -5.9 4.35 -4.9 3.35 -4.4 2.8 -3.5 2.3 -0.95 0.45 0.85 0.0 3.05 -0.6 3.5 1.35" fill="#211b10" fill-rule="evenodd" stroke="none"/>
    <path d="M3.5 1.35 Q3.8 2.85 2.7 5.55 L1.25 9.05 0.05 12.0 -1.15 15.85 Q-1.7 17.95 -2.0 18.2 -2.55 18.65 -3.65 18.6 -4.8 18.6 -5.55 18.05 -6.25 17.55 -6.45 14.15 -6.65 10.85 -6.25 7.25 -5.9 4.35 -4.9 3.35 -4.4 2.8 -3.5 2.3 -0.95 0.45 0.85 0.0 3.05 -0.6 3.5 1.35 Z" fill="none" stroke="#211b10" stroke-linecap="round" stroke-linejoin="round" stroke-width="1.0"/>
    <path d="M-1.55 0.7 L1.3 0.6 -0.8 12.7 Q-0.55 12.75 -0.45 12.85 L-0.45 13.75 Q-0.45 14.75 -0.15 15.2 L0.7 16.9 -0.9 18.2 -1.85 18.15 -3.05 17.6 -4.0 17.5 -4.35 13.1 -5.45 12.5 Q-6.55 11.5 -6.7 9.45 L-6.55 5.7 -3.45 5.55 -1.55 0.7" fill="#211b10" fill-rule="evenodd" stroke="none"/>
    <path d="M-1.55 0.7 L1.3 0.6 -0.8 12.7 Q-0.55 12.75 -0.45 12.85 L-0.45 13.75 Q-0.45 14.75 -0.15 15.2 L0.7 16.9 -0.9 18.2 -1.85 18.15 -3.05 17.6 -4.0 17.5 -4.35 13.1 -5.45 12.5 Q-6.55 11.5 -6.7 9.45 L-6.55 5.7 -3.45 5.55 -1.55 0.7 Z" fill="none" stroke="#151108" stroke-linecap="round" stroke-linejoin="round" stroke-width="1.0"/>
    <path d="M3.7 6.7 Q3.05 8.1 2.35 7.7 1.7 7.35 1.65 8.0 L1.75 8.65 Q0.75 9.75 0.3 12.0 L-0.05 15.7 -1.25 16.55 -2.4 15.9 -2.5 12.5 -4.55 11.3 -5.15 10.15 -4.35 8.95 -3.4 7.8 -2.8 7.7 -2.1 7.15 -0.95 5.1 -0.15 5.45 2.7 3.15 3.4 3.15 2.05 4.9 4.4 5.8 4.3 6.35 3.7 6.7" fill="url(#gradient0)" fill-rule="evenodd" stroke="none"/>
    <path d="M3.7 6.7 Q3.05 8.1 2.35 7.7 1.7 7.35 1.65 8.0 L1.75 8.65 Q0.75 9.75 0.3 12.0 L-0.05 15.7 -1.25 16.55 -2.4 15.9 -2.5 12.5 -4.55 11.3 -5.15 10.15 -4.35 8.95 -3.4 7.8 -2.8 7.7 -2.1 7.15 -0.95 5.1 -0.15 5.45 2.7 3.15 3.4 3.15 2.05 4.9 4.4 5.8 4.3 6.35 3.7 6.7 Z" fill="none" stroke="#151108" stroke-linecap="round" stroke-linejoin="round" stroke-width="1.0"/>
    <path d="M0.35 -1.05 L4.15 -2.15 3.2 -0.9 4.05 -1.45 5.85 -2.5 Q6.35 -2.55 5.5 -0.35 L6.05 -1.0 Q7.0 -1.8 6.3 0.5 5.25 3.95 5.25 5.2 L4.25 4.9 2.55 4.6 Q1.3 3.7 0.45 4.1 0.0 4.25 0.2 4.0 L0.6 3.35 1.45 0.8 -1.55 0.7 -0.9 0.0 0.35 -1.05" fill="url(#gradient1)" fill-rule="evenodd" stroke="none"/>
    <path d="M0.35 -1.05 L-0.9 0.0 -1.55 0.7 1.45 0.8 0.6 3.35 0.2 4.0 Q0.0 4.25 0.45 4.1 1.3 3.7 2.55 4.6 L4.25 4.9 5.25 5.2 Q5.25 3.95 6.3 0.5 7.0 -1.8 6.05 -1.0 L5.5 -0.35 Q6.35 -2.55 5.85 -2.5 L4.05 -1.45 3.2 -0.9 4.15 -2.15 0.35 -1.05 Z" fill="none" stroke="#151108" stroke-linecap="round" stroke-linejoin="round" stroke-width="1.0"/>
    <path d="M0.7 16.75 L1.45 17.8 1.45 18.55 Q-0.1 19.5 -0.75 19.65 L-2.5 19.2 -3.65 18.6 -4.3 18.25 -4.7 18.0 -4.55 17.25 -3.4 17.2 -1.45 17.75 -0.65 17.8 0.7 16.75" fill="#131442" fill-rule="evenodd" stroke="none"/>
    <path d="M0.7 16.75 L1.45 17.8 1.45 18.55 Q-0.1 19.5 -0.75 19.65 L-2.5 19.2 -3.65 18.6 -4.3 18.25 -4.7 18.0 -4.55 17.25 -3.4 17.2 -1.45 17.75 -0.65 17.8 0.7 16.75 Z" fill="none" stroke="#080815" stroke-linecap="round" stroke-linejoin="round" stroke-width="1.0"/>
    <path d="M2.85 3.5 L4.1 6.9 Q4.15 8.35 2.8 9.15 2.0 9.65 0.95 9.75 L0.1 9.75 -1.95 5.55 -1.45 4.65 1.8 4.25 2.85 3.5" fill="#623e13" fill-rule="evenodd" stroke="none"/>
    <path d="M2.85 3.5 L4.1 6.9 Q4.15 8.35 2.8 9.15 2.0 9.65 0.95 9.75 L0.1 9.75 -1.95 5.55 -1.45 4.65 1.8 4.25 2.85 3.5 Z" fill="none" stroke="#151108" stroke-linecap="round" stroke-linejoin="round" stroke-width="1.0"/>
  </g>
  <defs>
    <radialGradient cx="0" cy="0" gradientTransform="matrix(0.0059, 0.0014, -0.005, 0.0209, -0.5, 9.65)" gradientUnits="userSpaceOnUse" id="gradient0" r="819.2" spreadMethod="pad">
      <stop offset="0.0" stop-color="#280804"/>
      <stop offset="1.0" stop-color="#f4b736"/>
    </radialGradient>
    <radialGradient cx="0" cy="0" gradientTransform="matrix(0.0061, 7.0E-4, -0.0023, 0.0204, 2.45, 0.95)" gradientUnits="userSpaceOnUse" id="gradient1" r="819.2" spreadMethod="pad">
      <stop offset="0.0" stop-color="#280804"/>
      <stop offset="1.0" stop-color="#f4b736"/>
    </radialGradient>
  </defs>
</svg>
