<?xml version="1.0" encoding="UTF-8" standalone="no"?>
<svg xmlns:ffdec="https://www.free-decompiler.com/flash" xmlns:xlink="http://www.w3.org/1999/xlink" ffdec:objectType="shape" height="67.0px" width="67.0px" xmlns="http://www.w3.org/2000/svg">
  <g transform="matrix(1.0, 0.0, 0.0, 1.0, 33.5, 33.5)">
    <path d="M-6.85 -4.1 L-3.55 -0.15 3.8 -0.15 6.75 -4.35 Q8.0 -2.4 8.0 0.0 8.0 3.2 5.7 5.6 3.3 7.9 0.0 8.0 -3.2 7.9 -5.6 5.6 -8.0 3.2 -8.0 0.0 -8.0 -2.25 -6.85 -4.1" fill="#515151" fill-rule="evenodd" stroke="none"/>
    <path d="M14.1 -14.2 Q8.3 -20.0 0.0 -20.0 -8.3 -20.0 -14.2 -14.2 -20.0 -8.3 -20.0 0.0 -20.0 8.3 -14.2 14.1 -8.3 20.0 0.0 20.0 8.3 20.0 14.1 14.1 20.0 8.3 20.0 0.0 20.0 -8.3 14.1 -14.2 M21.2 -21.2 Q30.0 -12.4 30.0 0.0 30.0 12.4 21.2 21.2 12.4 30.0 0.0 30.0 -12.4 30.0 -21.2 21.2 -30.0 12.4 -30.0 0.0 -30.0 -12.4 -21.2 -21.2 -12.4 -30.0 0.0 -30.0 12.4 -30.0 21.2 -21.2" fill="url(#gradient0)" fill-rule="evenodd" stroke="none"/>
    <path d="M-6.85 -4.1 L-5.6 -5.7 Q-3.2 -8.1 0.0 -8.0 3.3 -8.1 5.7 -5.7 L6.75 -4.35 3.8 -0.15 -3.55 -0.15 -6.85 -4.1" fill="#626262" fill-rule="evenodd" stroke="none"/>
    <path d="M14.1 -14.2 Q20.0 -8.3 20.0 0.0 20.0 8.3 14.1 14.1 8.3 20.0 0.0 20.0 -8.3 20.0 -14.2 14.1 -20.0 8.3 -20.0 0.0 -20.0 -8.3 -14.2 -14.2 -8.3 -20.0 0.0 -20.0 8.3 -20.0 14.1 -14.2 M6.75 -4.35 L5.7 -5.7 Q3.3 -8.1 0.0 -8.0 -3.2 -8.1 -5.6 -5.7 L-6.85 -4.1 Q-8.0 -2.25 -8.0 0.0 -8.0 3.2 -5.6 5.6 -3.2 7.9 0.0 8.0 3.3 7.9 5.7 5.6 8.0 3.2 8.0 0.0 8.0 -2.4 6.75 -4.35" fill="url(#gradient1)" fill-rule="evenodd" stroke="none"/>
    <path d="M14.1 -14.2 Q20.0 -8.3 20.0 0.0 20.0 8.3 14.1 14.1 8.3 20.0 0.0 20.0 -8.3 20.0 -14.2 14.1 -20.0 8.3 -20.0 0.0 -20.0 -8.3 -14.2 -14.2 -8.3 -20.0 0.0 -20.0 8.3 -20.0 14.1 -14.2 M21.2 -21.2 Q30.0 -12.4 30.0 0.0 30.0 12.4 21.2 21.2 12.4 30.0 0.0 30.0 -12.4 30.0 -21.2 21.2 -30.0 12.4 -30.0 0.0 -30.0 -12.4 -21.2 -21.2 -12.4 -30.0 0.0 -30.0 12.4 -30.0 21.2 -21.2" fill="none" stroke="#432101" stroke-linecap="round" stroke-linejoin="round" stroke-width="2.0"/>
    <path d="M6.75 -4.35 L5.7 -5.7 Q3.3 -8.1 0.0 -8.0 -3.2 -8.1 -5.6 -5.7 L-6.85 -4.1 -3.55 -0.15 3.8 -0.15 6.75 -4.35 Q8.0 -2.4 8.0 0.0 8.0 3.2 5.7 5.6 3.3 7.9 0.0 8.0 -3.2 7.9 -5.6 5.6 -8.0 3.2 -8.0 0.0 -8.0 -2.25 -6.85 -4.1" fill="none" stroke="#404040" stroke-linecap="round" stroke-linejoin="round" stroke-width="2.0"/>
    <path d="M28.25 -15.5 L31.15 -8.1 M9.0 -30.95 L16.3 -27.75 M19.8 -25.5 L25.5 -19.8 M-8.1 -31.15 L-15.5 -28.25 M-27.75 -16.3 L-30.95 -9.0 M-19.8 -25.5 L-25.5 -19.8 M-31.15 8.1 L-28.25 15.5 M-16.3 27.75 L-9.0 30.95 M-25.5 19.8 L-19.8 25.5 M30.95 9.0 L27.75 16.3 M15.5 28.25 L8.1 31.15 M25.5 19.8 L19.8 25.5 M-4.0 32.0 L4.0 32.0 M-4.0 -32.0 L4.0 -32.0 M-32.0 -4.0 L-32.0 4.0 M32.0 -4.0 L32.0 4.0" fill="none" stroke="#321401" stroke-linecap="round" stroke-linejoin="round" stroke-width="3.0"/>
  </g>
  <defs>
    <radialGradient cx="0" cy="0" gradientTransform="matrix(0.0369, 0.0, 0.0, 0.0369, 0.0, 0.0)" gradientUnits="userSpaceOnUse" id="gradient0" r="819.2" spreadMethod="pad">
      <stop offset="0.6588235294117647" stop-color="#864302"/>
      <stop offset="0.9098039215686274" stop-color="#7e4001"/>
      <stop offset="1.0" stop-color="#3c1e00"/>
    </radialGradient>
    <radialGradient cx="0" cy="0" gradientTransform="matrix(0.0249, 0.0, 0.0, 0.0249, 0.3, 0.0)" gradientUnits="userSpaceOnUse" id="gradient1" r="819.2" spreadMethod="pad">
      <stop offset="0.6588235294117647" stop-color="#6f6f6f"/>
      <stop offset="1.0" stop-color="#333333"/>
    </radialGradient>
  </defs>
</svg>
