<?xml version="1.0" encoding="UTF-8" standalone="no"?>
<svg xmlns:xlink="http://www.w3.org/1999/xlink" height="39.9px" width="48.8px" xmlns="http://www.w3.org/2000/svg">
  <g transform="matrix(1.0, 0.0, 0.0, 1.0, 24.15, 20.5)">
    <path d="M3.65 -16.0 L1.65 -20.0 15.15 -14.95 24.15 2.5 13.5 -6.5 1.65 -2.5 2.55 -8.55 -2.05 -8.55 -1.15 -2.5 -13.0 -6.5 -23.65 2.5 -14.65 -14.95 -1.15 -20.0 -3.15 -16.0 -2.5 -11.55 3.0 -11.55 3.65 -16.0 M11.8 -12.55 L6.85 -13.55 4.9 -6.6 11.8 -12.55 M-11.1 -12.55 L-4.15 -6.6 -6.15 -13.55 -11.1 -12.55" fill="url(#gradient0)" fill-rule="evenodd" stroke="none"/>
    <path d="M13.5 -6.5 L11.65 -4.55 3.65 -0.55 -3.15 -0.55 -11.15 -4.55 -13.0 -6.5 -1.15 -2.5 -2.05 -8.55 2.55 -8.55 1.65 -2.5 13.5 -6.5 M11.8 -12.55 L4.9 -6.6 6.85 -13.55 11.8 -12.55 M-11.1 -12.55 L-6.15 -13.55 -4.15 -6.6 -11.1 -12.55" fill="#1e1e1e" fill-rule="evenodd" stroke="none"/>
    <path d="M11.65 -4.55 L14.1 -1.5 11.4 0.3 14.45 2.1 13.6 7.4 13.55 7.4 3.65 -0.55 11.65 -4.55" fill="url(#gradient1)" fill-rule="evenodd" stroke="none"/>
    <path d="M-3.15 -16.0 Q0.25 -19.25 3.65 -16.0 L3.0 -11.55 -2.5 -11.55 -3.15 -16.0" fill="url(#gradient2)" fill-rule="evenodd" stroke="none"/>
    <path d="M14.45 2.1 L14.45 2.15 20.0 3.35 17.65 11.4 13.6 7.4 14.45 2.1" fill="url(#gradient3)" fill-rule="evenodd" stroke="none"/>
    <path d="M17.65 11.4 L17.65 11.45 9.8 18.9 9.8 8.9 9.75 8.9 13.65 7.5 13.6 7.45 13.55 7.4 13.6 7.4 13.6 7.45 13.6 7.4 17.65 11.4" fill="url(#gradient4)" fill-rule="evenodd" stroke="none"/>
    <path d="M-3.15 -0.55 L-13.1 7.45 -13.95 2.15 -10.9 0.3 -13.6 -1.5 -11.15 -4.55 -3.15 -0.55" fill="url(#gradient5)" fill-rule="evenodd" stroke="none"/>
    <path d="M-13.1 7.45 L-9.2 8.9 -9.3 8.9 -9.3 18.9 -17.15 11.45 -17.15 11.4 -13.1 7.45" fill="url(#gradient6)" fill-rule="evenodd" stroke="none"/>
    <path d="M-17.15 11.4 L-19.5 3.35 -13.95 2.15 -13.1 7.45 -17.15 11.4" fill="url(#gradient7)" fill-rule="evenodd" stroke="none"/>
    <path d="M3.65 -16.0 L1.65 -20.0 15.15 -14.95 24.15 2.5 13.5 -6.5 1.65 -2.5 2.55 -8.55 -2.05 -8.55 -1.15 -2.5 -13.0 -6.5 -23.65 2.5 -14.65 -14.95 -1.15 -20.0 -3.15 -16.0 -2.5 -11.55 3.0 -11.55 3.65 -16.0 M14.45 2.1 L14.45 2.15 20.0 3.35 17.65 11.4 13.6 7.4 14.45 2.1 M-17.15 11.4 L-19.5 3.35 -13.95 2.15 -13.1 7.45 -17.15 11.4 M11.8 -12.55 L6.85 -13.55 4.9 -6.6 11.8 -12.55 M-11.1 -12.55 L-6.15 -13.55 -4.15 -6.6 -11.1 -12.55" fill="none" stroke="#414141" stroke-linecap="round" stroke-linejoin="round" stroke-width="1.0"/>
    <path d="M11.65 -4.55 L14.1 -1.5 11.4 0.3 14.45 2.1 M17.65 11.4 L17.65 11.45 9.8 18.9 M9.75 8.9 L13.65 7.5 13.6 7.45 13.6 7.4 13.55 7.4 3.65 -0.55 11.65 -4.55 M-3.15 -0.55 L-13.1 7.45 -9.2 8.9 M-9.3 18.9 L-17.15 11.45 -17.15 11.4 M-13.95 2.15 L-10.9 0.3 -13.6 -1.5 -11.15 -4.55 -3.15 -0.55" fill="none" stroke="#202020" stroke-linecap="round" stroke-linejoin="round" stroke-width="1.0"/>
    <path d="M13.5 -6.5 L11.65 -4.55 M13.6 7.45 L13.55 7.4 M-11.15 -4.55 L-13.0 -6.5 M-3.15 -16.0 Q0.25 -19.25 3.65 -16.0 Z" fill="none" stroke="#000000" stroke-linecap="round" stroke-linejoin="round" stroke-width="1.0"/>
  </g>
  <defs>
    <radialGradient cx="0" cy="0" gradientTransform="matrix(0.0373, 0.0, 0.0, 0.0373, 0.85, 10.5)" gradientUnits="userSpaceOnUse" id="gradient0" r="819.2" spreadMethod="pad">
      <stop offset="0.48627450980392156" stop-color="#ffffff"/>
      <stop offset="1.0" stop-color="#858585"/>
    </radialGradient>
    <radialGradient cx="0" cy="0" gradientTransform="matrix(-0.0311, 0.0, 0.0, 0.0311, 0.65, 15.5)" gradientUnits="userSpaceOnUse" id="gradient1" r="819.2" spreadMethod="pad">
      <stop offset="0.48627450980392156" stop-color="#4d4d4d"/>
      <stop offset="1.0" stop-color="#373737"/>
    </radialGradient>
    <radialGradient cx="0" cy="0" gradientTransform="matrix(0.0069, 0.0, 0.0, 0.0069, 0.25, -12.55)" gradientUnits="userSpaceOnUse" id="gradient2" r="819.2" spreadMethod="pad">
      <stop offset="0.0" stop-color="#162891"/>
      <stop offset="0.3058823529411765" stop-color="#005eb1"/>
      <stop offset="0.3803921568627451" stop-color="#000000" stop-opacity="0.45882353"/>
      <stop offset="0.43137254901960786" stop-color="#000000" stop-opacity="0.0"/>
      <stop offset="0.788235294117647" stop-color="#000000" stop-opacity="0.45882353"/>
      <stop offset="1.0" stop-color="#000000"/>
    </radialGradient>
    <radialGradient cx="0" cy="0" gradientTransform="matrix(-0.0311, 0.0, 0.0, 0.0311, 0.65, 15.5)" gradientUnits="userSpaceOnUse" id="gradient3" r="819.2" spreadMethod="pad">
      <stop offset="0.48627450980392156" stop-color="#ffffff"/>
      <stop offset="1.0" stop-color="#797979"/>
    </radialGradient>
    <radialGradient cx="0" cy="0" gradientTransform="matrix(-0.0311, 0.0, 0.0, 0.0311, 0.65, 15.5)" gradientUnits="userSpaceOnUse" id="gradient4" r="819.2" spreadMethod="pad">
      <stop offset="0.48627450980392156" stop-color="#595959"/>
      <stop offset="1.0" stop-color="#000000"/>
    </radialGradient>
    <radialGradient cx="0" cy="0" gradientTransform="matrix(0.0311, 0.0, 0.0, 0.0311, -0.15, 15.5)" gradientUnits="userSpaceOnUse" id="gradient5" r="819.2" spreadMethod="pad">
      <stop offset="0.48627450980392156" stop-color="#4d4d4d"/>
      <stop offset="1.0" stop-color="#373737"/>
    </radialGradient>
    <radialGradient cx="0" cy="0" gradientTransform="matrix(0.0311, 0.0, 0.0, 0.0311, -0.15, 15.5)" gradientUnits="userSpaceOnUse" id="gradient6" r="819.2" spreadMethod="pad">
      <stop offset="0.48627450980392156" stop-color="#595959"/>
      <stop offset="1.0" stop-color="#000000"/>
    </radialGradient>
    <radialGradient cx="0" cy="0" gradientTransform="matrix(0.0311, 0.0, 0.0, 0.0311, -0.15, 15.5)" gradientUnits="userSpaceOnUse" id="gradient7" r="819.2" spreadMethod="pad">
      <stop offset="0.48627450980392156" stop-color="#ffffff"/>
      <stop offset="1.0" stop-color="#797979"/>
    </radialGradient>
  </defs>
</svg>
