<?xml version="1.0" encoding="UTF-8" standalone="no"?>
<svg xmlns:xlink="http://www.w3.org/1999/xlink" height="33.4px" width="127.35px" xmlns="http://www.w3.org/2000/svg">
  <g transform="matrix(1.0, 0.0, 0.0, 1.0, 123.75, 41.65)">
    <path d="M-117.55 -21.65 L-117.9 -21.05 -121.1 -23.5 -122.75 -34.65 -122.75 -34.7 -121.4 -36.85 -118.4 -36.9 -116.3 -39.75 -93.5 -39.75 -88.45 -37.7 -83.55 -35.7 Q-70.35 -35.5 -57.15 -35.85 L-46.45 -36.65 Q-40.45 -37.05 -29.55 -39.8 L-11.6 -40.35 -6.2 -39.35 -1.25 -35.75 Q2.5 -30.1 2.6 -25.2 -2.1 -23.85 0.05 -19.0 -5.15 -18.7 -6.7 -12.35 L-6.7 -12.0 -8.0 -11.8 Q-9.65 -11.6 -11.6 -11.75 L-29.0 -13.55 -30.8 -11.75 -39.6 -10.05 -49.2 -10.05 -89.4 -9.25 -90.4 -11.25 -94.2 -19.15 -97.7 -19.15 -93.75 -11.25 -92.7 -9.25 -96.2 -9.3 -97.2 -11.25 -101.0 -19.15 -104.5 -19.15 -100.5 -11.25 -99.5 -9.3 -104.6 -9.3 -105.6 -11.25 -109.45 -19.2 -117.55 -21.65 M-80.0 -19.35 L-60.6 -19.35 -49.2 -10.05 -60.6 -19.35 -80.0 -19.35 M-42.25 -12.7 L-40.8 -15.2 -42.25 -17.75 -45.15 -17.75 -46.6 -15.2 -45.15 -12.7 -42.25 -12.7 M-22.7 -20.45 Q-20.65 -18.4 -17.75 -18.4 -14.85 -18.4 -12.85 -20.45 -10.8 -22.45 -10.8 -25.35 L-10.8 -25.65 -10.8 -25.35 Q-10.8 -22.45 -12.85 -20.45 -14.85 -18.4 -17.75 -18.4 -20.65 -18.4 -22.7 -20.45 M-16.6 -32.2 L-17.75 -32.3 Q-20.65 -32.3 -22.7 -30.3 -20.65 -32.3 -17.75 -32.3 L-16.6 -32.2 M-35.5 -21.0 L-37.75 -21.0 -38.9 -19.0 -37.75 -17.05 -35.5 -17.05 -34.35 -19.0 -35.5 -21.0" fill="url(#gradient0)" fill-rule="evenodd" stroke="none"/>
    <path d="M-117.55 -21.65 L-109.45 -19.2 -105.6 -11.25 -112.1 -13.4 -117.55 -21.65 M-100.5 -11.25 L-104.5 -19.15 -101.0 -19.15 -97.2 -11.25 -100.5 -11.25 M-93.75 -11.25 L-97.7 -19.15 -94.2 -19.15 -90.4 -11.25 -93.75 -11.25 M-57.15 -35.85 Q-70.35 -35.5 -83.55 -35.7 L-88.45 -37.7 -63.6 -37.7 -57.15 -35.85 M-42.25 -12.7 L-45.15 -12.7 -46.6 -15.2 -45.15 -17.75 -42.25 -17.75 -40.8 -15.2 -42.25 -12.7 M-35.5 -21.0 L-34.35 -19.0 -35.5 -17.05 -37.75 -17.05 -38.9 -19.0 -37.75 -21.0 -35.5 -21.0" fill="#80b3cc" fill-rule="evenodd" stroke="none"/>
    <path d="M-88.45 -37.7 L-93.5 -39.75 -116.3 -39.75 -118.4 -36.9 -121.4 -36.85 -122.75 -34.7 -122.75 -34.65 -121.1 -23.5 -117.9 -21.05 -117.55 -21.65 -109.45 -19.2 -105.6 -11.25 -104.6 -9.3 -99.5 -9.3 -100.5 -11.25 -104.5 -19.15 -101.0 -19.15 -97.2 -11.25 -96.2 -9.3 -92.7 -9.25 -93.75 -11.25 -97.7 -19.15 -94.2 -19.15 -90.4 -11.25 -89.4 -9.25 -49.2 -10.05 -60.6 -19.35 -80.0 -19.35 M-57.15 -35.85 Q-70.35 -35.5 -83.55 -35.7 L-88.45 -37.7 -63.6 -37.7 -57.15 -35.85 -46.45 -36.65 Q-40.45 -37.05 -29.55 -39.8 L-11.6 -40.35 -6.2 -39.35 -1.25 -35.75 Q2.5 -30.1 2.6 -25.2 M-6.7 -12.0 L-8.0 -11.8 Q-9.65 -11.6 -11.6 -11.75 L-29.0 -13.55 -30.8 -11.75 -39.6 -10.05 -49.2 -10.05 M-117.55 -21.65 L-112.1 -13.4 -105.6 -11.25 M-100.5 -11.25 L-97.2 -11.25 M-93.75 -11.25 L-90.4 -11.25 M-42.25 -12.7 L-45.15 -12.7 -46.6 -15.2 -45.15 -17.75 -42.25 -17.75 -40.8 -15.2 -42.25 -12.7 M-22.7 -30.3 Q-20.65 -32.3 -17.75 -32.3 L-16.6 -32.2 M-10.8 -25.65 L-10.8 -25.35 Q-10.8 -22.45 -12.85 -20.45 -14.85 -18.4 -17.75 -18.4 -20.65 -18.4 -22.7 -20.45 M-35.5 -21.0 L-34.35 -19.0 -35.5 -17.05 -37.75 -17.05 -38.9 -19.0 -37.75 -21.0 -35.5 -21.0" fill="none" stroke="#232323" stroke-linecap="round" stroke-linejoin="round" stroke-width="2.0"/>
  </g>
  <defs>
    <linearGradient gradientTransform="matrix(0.0, 0.0105, -0.0765, 0.0, -64.45, -20.55)" gradientUnits="userSpaceOnUse" id="gradient0" spreadMethod="reflect" x1="-819.2" x2="819.2">
      <stop offset="0.0" stop-color="#424242"/>
      <stop offset="1.0" stop-color="#343434"/>
    </linearGradient>
  </defs>
</svg>
