<?xml version="1.0" encoding="UTF-8" standalone="no"?>
<svg xmlns:ffdec="https://www.free-decompiler.com/flash" xmlns:xlink="http://www.w3.org/1999/xlink" ffdec:objectType="shape" height="22.6px" width="14.3px" xmlns="http://www.w3.org/2000/svg">
  <g transform="matrix(1.0, 0.0, 0.0, 1.0, 0.5, 0.45)">
    <path d="M5.15 0.85 Q5.8 5.65 6.1 6.1 L6.2 6.25 6.35 6.75 6.3 6.95 6.2 7.1 6.0 7.25 5.6 7.55 5.9 11.8 5.1 11.25 4.75 10.5 Q4.55 10.2 3.7 9.85 2.95 9.5 2.75 9.1 2.9 8.7 3.4 8.45 L4.35 8.1 5.05 7.8 5.6 7.55 5.05 7.8 4.35 8.1 3.4 8.45 Q2.9 8.7 2.75 9.1 2.95 9.5 3.7 9.85 4.55 10.2 4.75 10.5 L5.1 11.25 5.9 11.8 6.25 16.75 6.35 16.75 7.25 16.55 7.5 16.35 7.25 16.65 6.3 17.45 6.3 17.6 6.45 19.55 7.8 21.4 7.0 21.6 5.25 21.35 3.35 20.6 Q2.75 20.45 2.25 20.0 1.95 19.65 1.75 18.95 1.5 18.3 1.4 17.25 1.25 17.1 1.25 16.75 1.35 15.4 0.75 13.3 L0.0 11.1 0.4 10.5 0.9 10.0 0.8 9.1 0.7 8.65 0.65 8.35 0.6 7.7 0.65 7.1 1.0 5.9 Q1.5 4.3 2.5 2.5 2.9 2.4 3.2 1.9 L3.75 1.1 4.95 0.85 5.25 3.8 5.25 3.55 5.25 3.8 4.95 0.85 5.0 0.85 5.15 0.85 M6.25 16.75 L6.3 17.45 6.25 16.75 Q5.05 16.45 4.35 15.85 L3.85 15.25 3.1 14.35 3.85 15.25 4.35 15.85 Q5.05 16.45 6.25 16.75 M5.25 3.55 L5.2 3.0 5.25 3.55 5.6 7.55 5.25 3.55 M5.2 3.0 L5.0 0.85 5.2 3.0" fill="#202020" fill-rule="evenodd" stroke="none"/>
    <path d="M8.65 0.75 Q9.95 0.45 10.4 1.1 11.0 1.7 10.8 3.0 L10.4 7.1 10.15 8.35 10.15 8.4 10.1 8.6 10.1 8.7 10.55 8.0 10.9 10.55 10.95 12.85 10.95 13.05 10.95 13.25 11.0 13.35 11.5 14.25 11.1 15.65 Q10.55 16.55 10.5 17.0 10.35 17.35 10.6 18.25 10.9 19.15 10.35 19.5 L8.7 20.75 7.8 21.4 6.45 19.55 6.3 17.6 6.3 17.45 7.25 16.65 7.5 16.35 7.25 16.55 6.35 16.75 6.25 16.75 5.9 11.8 5.6 7.55 6.0 7.25 6.2 7.1 6.3 6.95 6.35 6.75 6.2 6.25 6.1 6.1 Q5.8 5.65 5.15 0.85 L5.85 0.8 6.2 0.8 8.15 0.75 8.65 0.75 M7.5 12.25 L6.2 11.95 5.9 11.8 6.2 11.95 7.5 12.25" fill="#2c0101" fill-rule="evenodd" stroke="none"/>
    <path d="M10.1 8.7 L10.1 8.6 10.15 8.4 10.15 8.35 10.4 7.1 10.8 3.0 Q11.0 1.7 10.4 1.1 9.95 0.45 8.65 0.75" fill="none" stroke="#171717" stroke-linecap="round" stroke-linejoin="round" stroke-width="1.0"/>
    <path d="M8.15 0.75 L6.2 0.8 5.85 0.8 5.15 0.85 5.0 0.85 4.95 0.85 3.75 1.1 3.2 1.9 Q2.9 2.4 2.5 2.5 1.5 4.3 1.0 5.9 L0.65 7.1 0.6 7.7 0.65 8.35 0.7 8.65 0.8 9.1 0.9 10.0 0.4 10.5 0.0 11.1 0.75 13.3 Q1.35 15.4 1.25 16.75 1.25 17.1 1.4 17.25 1.5 18.3 1.75 18.95 1.95 19.65 2.25 20.0 2.75 20.45 3.35 20.6 L5.25 21.35 7.0 21.6 7.8 21.4 8.7 20.75 10.35 19.5 Q10.9 19.15 10.6 18.25 10.35 17.35 10.5 17.0 10.55 16.55 11.1 15.65 L11.5 14.25 11.0 13.35 10.95 13.25 10.95 13.05 10.95 12.85 10.9 10.55 10.55 8.0" fill="none" stroke="#020202" stroke-linecap="round" stroke-linejoin="round" stroke-width="1.0"/>
    <path d="M5.25 3.55 L5.25 3.8 4.95 0.85 M5.2 3.0 L5.25 3.55" fill="none" stroke="#020202" stroke-linecap="round" stroke-linejoin="round" stroke-width="0.8"/>
    <path d="M6.3 17.45 L6.25 16.75 M5.25 3.55 L5.6 7.55 M5.0 0.85 L5.2 3.0" fill="none" stroke="#2c0101" stroke-linecap="round" stroke-linejoin="round" stroke-width="1.0"/>
    <path d="M5.15 0.85 Q5.8 5.65 6.1 6.1 L6.2 6.25 6.35 6.75 6.3 6.95 6.2 7.1 6.0 7.25 5.6 7.55 5.05 7.8 4.35 8.1 3.4 8.45 Q2.9 8.7 2.75 9.1 2.95 9.5 3.7 9.85 4.55 10.2 4.75 10.5 L5.1 11.25 5.9 11.8 6.2 11.95 7.5 12.25 M6.3 17.6 L6.3 17.45 7.25 16.65 7.5 16.35 7.25 16.55 6.35 16.75 6.25 16.75 Q5.05 16.45 4.35 15.85 L3.85 15.25 3.1 14.35" fill="none" stroke="#070606" stroke-linecap="round" stroke-linejoin="round" stroke-width="0.8"/>
    <path d="M11.1 8.65 L11.1 4.4 9.1 2.8 9.35 2.35 10.05 1.85 Q11.0 1.25 11.85 1.2 L12.8 1.7 Q13.95 5.35 12.4 8.65 L11.1 8.65" fill="#2c0101" fill-rule="evenodd" stroke="none"/>
    <path d="M9.1 2.8 L11.1 4.4 11.1 8.65 10.25 8.65 8.9 7.7 8.8 7.4 Q8.1 5.2 8.8 3.45 L9.1 2.8" fill="#252525" fill-rule="evenodd" stroke="none"/>
    <path d="M11.85 1.2 Q11.0 1.25 10.05 1.85 L9.35 2.35 9.1 2.8 8.8 3.45 Q8.1 5.2 8.8 7.4 L8.9 7.7 10.25 8.65 10.25 9.25 9.3 9.35 9.05 9.35 8.8 9.35 8.35 9.4 2.9 8.6 1.95 8.45 0.55 8.2 Q-0.2 4.25 1.2 0.85 L6.2 0.05 Q7.5 0.75 7.85 0.75 L8.1 0.75 8.8 0.75 11.8 0.9 11.85 1.2" fill="#191919" fill-rule="evenodd" stroke="none"/>
    <path d="M9.1 2.8 L11.1 4.4 11.1 8.65 12.4 8.65 Q13.95 5.35 12.8 1.7 L11.85 1.2 Q11.0 1.25 10.05 1.85 L9.35 2.35 9.1 2.8 8.8 3.45 Q8.1 5.2 8.8 7.4 L8.9 7.7 10.25 8.65 11.1 8.65 M10.25 8.65 L10.25 9.25 9.3 9.35 9.05 9.35 8.8 9.35 8.35 9.4 2.9 8.6 6.2 9.5 M2.9 8.6 L1.95 8.45 0.55 8.2 Q-0.2 4.25 1.2 0.85 L6.2 0.05 Q7.5 0.75 7.85 0.75 L8.1 0.75 8.8 0.75 11.8 0.9 11.85 1.2" fill="none" stroke="#070707" stroke-linecap="round" stroke-linejoin="round" stroke-width="1.0"/>
  </g>
</svg>
