<?xml version="1.0" encoding="UTF-8" standalone="no"?>
<svg xmlns:ffdec="https://www.free-decompiler.com/flash" xmlns:xlink="http://www.w3.org/1999/xlink" ffdec:objectType="shape" height="22.0px" width="12.8px" xmlns="http://www.w3.org/2000/svg">
  <g transform="matrix(1.0, 0.0, 0.0, 1.0, 0.5, 0.5)">
    <path d="M11.8 1.85 L9.35 1.85 11.5 4.9 11.35 6.45 11.1 7.7 11.1 7.75 11.05 7.9 11.05 7.95 10.9 9.9 10.85 10.2 10.95 12.2 10.95 12.4 10.95 12.6 11.0 12.7 11.5 13.55 11.5 13.6 11.1 15.0 Q10.55 15.9 10.5 16.35 10.35 16.7 10.6 17.6 10.9 18.5 10.35 18.85 L8.7 20.1 Q7.75 20.9 7.0 20.95 L5.25 20.7 3.35 19.95 Q2.75 19.8 2.25 19.35 1.95 19.0 1.75 18.3 1.5 17.65 1.4 16.6 1.25 16.45 1.25 16.1 1.35 14.75 0.75 12.65 L0.0 10.45 0.4 9.85 0.9 9.35 0.8 8.45 0.7 8.0 0.65 7.7 0.6 7.05 0.65 6.45 1.0 5.25 Q1.5 3.65 2.5 1.85 L2.85 1.7 Q1.55 8.5 3.85 16.15 L6.1 16.95 7.75 16.95 Q5.85 8.45 7.75 0.1 L9.6 0.1 Q10.9 -0.2 11.35 0.45 11.85 0.95 11.8 1.85" fill="#2a2a2a" fill-rule="evenodd" stroke="none"/>
    <path d="M11.8 1.85 L11.75 2.35 11.5 4.9 9.35 1.85 11.8 1.85 M2.85 1.7 L3.2 1.25 3.75 0.45 5.0 0.2 5.85 0.15 7.75 0.1 Q5.85 8.45 7.75 16.95 L6.1 16.95 3.85 16.15 Q1.55 8.5 2.85 1.7" fill="#7e7e7e" fill-rule="evenodd" stroke="none"/>
    <path d="M10.9 9.9 L11.05 7.95 11.1 7.75 11.1 7.7 11.35 6.45 11.75 2.35 Q11.95 1.05 11.35 0.45 10.9 -0.2 9.6 0.1 L5.85 0.15 5.0 0.2 3.75 0.45 3.2 1.25 Q2.9 1.75 2.5 1.85 1.5 3.65 1.0 5.25 L0.65 6.45 0.6 7.05 0.65 7.7 0.7 8.0 0.8 8.45 0.9 9.35 0.4 9.85 0.0 10.45 0.75 12.65 Q1.35 14.75 1.25 16.1 1.25 16.45 1.4 16.6 1.5 17.65 1.75 18.3 1.95 19.0 2.25 19.35 2.75 19.8 3.35 19.95 L5.25 20.7 7.0 20.95 Q7.75 20.9 8.7 20.1 L10.35 18.85 Q10.9 18.5 10.6 17.6 10.35 16.7 10.5 16.35 10.55 15.9 11.1 15.0 L11.5 13.6 11.5 13.55 11.05 12.75 10.95 12.65 10.9 12.55 10.95 12.6 10.95 12.4 10.95 12.2 10.85 10.2 M10.95 12.65 L10.95 12.6" fill="none" stroke="#121212" stroke-linecap="round" stroke-linejoin="round" stroke-width="1.0"/>
    <path d="M5.25 2.35 L5.25 3.45 Q5.4 4.45 6.1 5.45 L6.35 6.1 6.3 6.3 6.0 6.6 5.05 7.15 4.35 7.45 3.4 7.8 Q2.9 8.05 2.75 8.45 2.95 8.85 3.7 9.2 4.55 9.55 4.75 9.85 L5.1 10.6 Q5.7 11.3 7.5 11.6 M3.1 13.7 L3.85 14.6 4.35 15.2 Q5.1 15.8 6.35 16.1 L7.25 15.9 7.5 15.7 7.25 16.0 6.1 16.95" fill="none" stroke="#1e1e1e" stroke-linecap="round" stroke-linejoin="round" stroke-width="0.8"/>
  </g>
</svg>
