<?xml version="1.0" encoding="UTF-8" standalone="no"?>
<svg xmlns:ffdec="https://www.free-decompiler.com/flash" xmlns:xlink="http://www.w3.org/1999/xlink" ffdec:objectType="shape" height="21.05px" width="12.95px" xmlns="http://www.w3.org/2000/svg">
  <g transform="matrix(1.0, 0.0, 0.0, 1.0, 0.85, 3.85)">
    <path d="M9.4 -2.4 L9.7 -2.45 11.35 -2.4 Q11.65 -2.2 11.6 -1.55 L11.35 -0.3 Q4.75 1.05 1.15 5.45 L1.7 2.7 2.3 2.2 2.75 0.15 3.4 -1.2 Q3.85 -2.25 4.7 -3.05 L5.0 -3.35 9.4 -2.4 9.5 -2.4 10.3 -2.1 7.6 -1.25 6.35 -0.7 2.9 1.7 2.3 2.2 2.9 1.7 6.35 -0.7 7.6 -1.25 10.3 -2.1 9.5 -2.4 9.4 -2.4 M11.35 -2.4 L10.3 -2.1 11.35 -2.4" fill="#141414" fill-rule="evenodd" stroke="none"/>
    <path d="M11.35 -0.3 L10.4 2.35 8.0 2.85 Q7.05 3.15 5.55 4.35 L3.4 6.2 Q0.75 8.6 0.9 7.0 L1.15 5.45 Q4.75 1.05 11.35 -0.3" fill="#211313" fill-rule="evenodd" stroke="none"/>
    <path d="M10.4 2.35 L5.05 12.8 4.35 11.95 4.55 8.65 4.65 7.45 5.55 4.35 Q7.05 3.15 8.0 2.85 L10.4 2.35" fill="#3b2323" fill-rule="evenodd" stroke="none"/>
    <path d="M5.05 12.8 L3.9 15.6 3.7 15.95 Q3.05 17.15 2.2 16.45 L1.75 16.15 0.6 15.65 0.4 15.6 0.0 15.55 -0.35 15.55 0.4 10.05 2.65 9.75 4.55 8.65 4.35 11.95 5.05 12.8 M2.6 10.45 L2.65 9.75 2.6 10.45" fill="#2d2d2d" fill-rule="evenodd" stroke="none"/>
    <path d="M0.4 10.05 L0.9 7.0 Q0.75 8.6 3.4 6.2 L5.55 4.35 4.65 7.45 4.55 8.65 2.65 9.75 0.4 10.05 M2.65 9.75 L3.0 8.65 2.65 9.75" fill="#232323" fill-rule="evenodd" stroke="none"/>
    <path d="M11.35 -2.4 Q11.65 -2.2 11.6 -1.55 L11.35 -0.3 M1.15 5.45 L1.7 2.7 M2.3 2.2 L2.75 0.15 3.4 -1.2 Q3.85 -2.25 4.7 -3.05 L5.0 -3.35 9.4 -2.4 9.5 -2.4 10.3 -2.1" fill="none" stroke="#0a0a0a" stroke-linecap="round" stroke-linejoin="round" stroke-width="1.0"/>
    <path d="M11.35 -0.3 L10.4 2.35 5.05 12.8 4.35 11.95 4.55 8.65 4.65 7.45 5.55 4.35 3.4 6.2 Q0.75 8.6 0.9 7.0 L1.15 5.45 Q4.75 1.05 11.35 -0.3 M5.55 4.35 Q7.05 3.15 8.0 2.85 L10.4 2.35" fill="none" stroke="#0e0808" stroke-linecap="round" stroke-linejoin="round" stroke-width="1.0"/>
    <path d="M5.05 12.8 L3.9 15.6 3.7 15.95 Q3.05 17.15 2.2 16.45 L1.75 16.15 0.6 15.65 0.4 15.6 0.0 15.55 -0.35 15.55 0.4 10.05 0.9 7.0" fill="none" stroke="#0c0c0c" stroke-linecap="round" stroke-linejoin="round" stroke-width="1.0"/>
    <path d="M2.65 9.75 L2.6 10.45 M3.0 8.65 L2.65 9.75" fill="none" stroke="#ff094f" stroke-linecap="round" stroke-linejoin="round" stroke-width="1.0"/>
    <path d="M1.7 2.7 L2.3 2.2 2.9 1.7 6.35 -0.7 7.6 -1.25 10.3 -2.1 11.35 -2.4" fill="none" stroke="#0f0f0f" stroke-linecap="round" stroke-linejoin="round" stroke-width="1.0"/>
    <path d="M5.6 4.35 L4.65 7.45 4.4 11.9 5.1 12.8 5.4 12.1 10.4 2.3 8.1 2.8 Q7.05 3.1 5.6 4.35 L3.4 6.15 Q0.75 8.6 0.9 7.0 L1.15 5.4 Q4.75 1.0 11.35 -0.3 L10.4 2.3" fill="none" stroke="#0e0808" stroke-linecap="round" stroke-linejoin="round" stroke-width="1.0"/>
  </g>
</svg>
