<?xml version="1.0" encoding="UTF-8" standalone="no"?>
<svg xmlns:xlink="http://www.w3.org/1999/xlink" height="45.8px" width="91.6px" xmlns="http://www.w3.org/2000/svg">
  <g transform="matrix(1.0, 0.0, 0.0, 1.0, 45.8, 22.95)">
    <path d="M0.5 -1.85 L0.15 -1.85 -10.55 -1.45 -10.6 -1.45 -25.25 -0.3 -30.15 0.15 -13.45 1.3 -0.5 2.0 Q-0.2 1.85 0.15 2.0 L10.55 1.6 10.65 1.6 30.15 0.0 26.35 -0.3 13.4 -1.3 0.5 -1.85 M0.3 -4.15 L9.0 -3.75 38.9 -1.75 39.1 -1.75 39.7 -1.3 40.0 -0.3 39.8 0.7 39.25 1.1 37.35 1.3 22.25 2.55 7.1 3.85 0.15 4.15 -0.2 4.15 -0.3 4.15 -8.9 3.75 -38.85 1.75 -39.05 1.75 -39.7 1.3 -40.0 0.4 -39.85 -0.3 -39.7 -0.55 -39.1 -1.1 -37.3 -1.3 -37.25 -1.3 -22.2 -2.55 -7.0 -3.85 0.15 -4.15 0.3 -4.15" fill="#6fa8ff" fill-opacity="0.3019608" fill-rule="evenodd" stroke="none"/>
    <path d="M0.5 -1.85 L13.4 -1.3 26.35 -0.3 30.15 0.0 10.65 1.6 10.55 1.6 0.15 2.0 Q-0.2 1.85 -0.5 2.0 L-13.45 1.3 -30.15 0.15 -25.25 -0.3 -10.6 -1.45 -10.55 -1.45 0.15 -1.85 0.5 -1.85" fill="#f3f9ff" fill-rule="evenodd" stroke="none"/>
    <path d="M32.4 -16.25 Q45.8 -9.55 45.8 -0.05 45.8 9.5 32.4 16.15 19.0 22.85 0.0 22.85 -19.0 22.85 -32.4 16.15 -45.8 9.5 -45.8 -0.05 -45.8 -9.55 -32.4 -16.25 -19.0 -22.95 0.0 -22.95 19.0 -22.95 32.4 -16.25" fill="url(#gradient0)" fill-rule="evenodd" stroke="none"/>
  </g>
  <defs>
    <radialGradient cx="0" cy="0" gradientTransform="matrix(0.0546, 0.0, 0.0, 0.0273, 0.0, -0.05)" gradientUnits="userSpaceOnUse" id="gradient0" r="819.2" spreadMethod="pad">
      <stop offset="0.0" stop-color="#ffffff" stop-opacity="0.2"/>
      <stop offset="0.19215686274509805" stop-color="#ffffff" stop-opacity="0.101960786"/>
      <stop offset="1.0" stop-color="#ffffff" stop-opacity="0.0"/>
    </radialGradient>
  </defs>
</svg>
