<?xml version="1.0" encoding="UTF-8" standalone="no"?>
<svg xmlns:ffdec="https://www.free-decompiler.com/flash" xmlns:xlink="http://www.w3.org/1999/xlink" ffdec:objectType="shape" height="21.25px" width="13.0px" xmlns="http://www.w3.org/2000/svg">
  <g transform="matrix(1.0, 0.0, 0.0, 1.0, 5.95, 2.8)">
    <path d="M4.25 4.1 L3.9 6.05 Q2.3 10.4 2.05 15.1 1.9 17.95 1.05 17.95 -3.5 17.85 -4.7 17.1 -5.2 16.75 -5.45 15.1 -5.55 14.35 -4.9 13.95 -4.4 13.6 -4.75 12.95 -5.3 12.15 -4.85 11.3 L-3.85 9.65 Q-3.55 8.9 -3.65 6.3 L-3.95 3.85 Q-3.35 1.05 -2.7 0.05 L-2.2 0.15 -0.7 0.6 1.15 3.4 3.45 4.0 4.25 4.1" fill="#b39a82" fill-rule="evenodd" stroke="none"/>
    <path d="M-2.2 0.15 L-2.7 0.05 -3.3 -0.15 -2.2 0.15" fill="#917563" fill-rule="evenodd" stroke="none"/>
    <path d="M-2.7 0.05 Q-3.35 1.05 -3.95 3.85 L-3.65 6.3 Q-3.55 8.9 -3.85 9.65 L-4.85 11.3 Q-5.3 12.15 -4.75 12.95 -4.4 13.6 -4.9 13.95 -5.55 14.35 -5.45 15.1 -5.2 16.75 -4.7 17.1 -3.5 17.85 1.05 17.95 1.9 17.95 2.05 15.1 2.3 10.4 3.9 6.05 L4.25 4.1" fill="none" stroke="#745b52" stroke-linecap="round" stroke-linejoin="round" stroke-width="1.0"/>
    <path d="M-0.65 4.9 L-2.5 5.25 -0.65 4.9 -1.25 7.55 -2.8 6.5 -1.25 7.55 -1.5 8.4 -1.95 8.3 -2.25 8.25 -3.2 8.0 -2.8 6.5 -2.5 5.25 -2.05 3.25 -0.35 3.65 -0.65 4.9" fill="#917563" fill-rule="evenodd" stroke="none"/>
    <path d="M-2.25 8.25 L-1.95 8.3 -1.65 8.4 -1.15 8.5 -2.4 13.85 Q-3.2 15.75 -4.3 16.55 -4.9 16.95 -5.3 17.0 L-5.2 14.15 -4.2 9.8 Q-3.4 8.9 -3.2 8.05 L-3.2 8.0 -2.25 8.25 -1.95 8.35 -1.65 8.4 -1.95 8.35 -2.25 8.25 M-1.95 8.35 L-3.2 8.05 -1.95 8.35" fill="#98a4a4" fill-rule="evenodd" stroke="none"/>
    <path d="M-2.5 5.25 L-0.65 4.9 -0.35 3.65 -2.05 3.25 -2.5 5.25 -2.8 6.5 -1.25 7.55 -0.65 4.9 M-1.5 8.4 L-1.25 7.55 M-3.2 8.0 L-2.8 6.5" fill="none" stroke="#56433d" stroke-linecap="round" stroke-linejoin="round" stroke-width="1.0"/>
    <path d="M-2.25 8.25 L-1.95 8.35 -1.65 8.4 -1.15 8.5 -2.4 13.85 Q-3.2 15.75 -4.3 16.55 -4.9 16.95 -5.3 17.0 L-5.2 14.15 -4.2 9.8 Q-3.4 8.9 -3.2 8.05 L-3.2 8.0 -2.25 8.25" fill="none" stroke="#4c525b" stroke-linecap="round" stroke-linejoin="round" stroke-width="1.0"/>
    <path d="M-1.15 8.5 L0.15 8.85 M-4.45 7.75 L-3.2 8.05 -1.95 8.35" fill="none" stroke="#252323" stroke-linecap="round" stroke-linejoin="round" stroke-width="1.0"/>
    <path d="M2.8 11.4 L2.95 12.15 Q2.95 13.0 2.25 13.55 L-0.85 12.85 Q-4.2 11.95 -5.2 10.9 -5.6 10.45 -5.15 9.8 L-4.6 9.15 Q-0.8 10.95 2.8 11.4" fill="#917563" fill-rule="evenodd" stroke="none"/>
    <path d="M2.8 11.4 Q-0.8 10.95 -4.6 9.15 L-5.15 9.8 Q-5.6 10.45 -5.2 10.9 -4.2 11.95 -0.85 12.85 L2.25 13.55 Q2.95 13.0 2.95 12.15 L2.8 11.4 Z" fill="none" stroke="#56433d" stroke-linecap="round" stroke-linejoin="round" stroke-width="1.0"/>
    <path d="M5.55 -1.1 L6.55 0.45 4.85 1.95 5.25 3.15 4.45 4.2 3.3 4.15 1.0 3.55 -0.85 0.7 -3.45 0.0 Q-3.85 -1.15 -3.1 -2.1 -2.65 -2.65 0.25 -1.75 L3.0 -0.85 5.55 -1.1" fill="#917563" fill-rule="evenodd" stroke="none"/>
    <path d="M5.55 -1.1 L6.55 0.45 4.85 1.95 5.25 3.15 4.45 4.2 3.3 4.15 1.0 3.55 -0.85 0.7 -3.45 0.0 Q-3.85 -1.15 -3.1 -2.1 -2.65 -2.65 0.25 -1.75 L3.0 -0.85 5.55 -1.1 Z" fill="none" stroke="#56433d" stroke-linecap="round" stroke-linejoin="round" stroke-width="1.0"/>
  </g>
</svg>
