<?xml version="1.0" encoding="UTF-8" standalone="no"?>
<svg xmlns:ffdec="https://www.free-decompiler.com/flash" xmlns:xlink="http://www.w3.org/1999/xlink" ffdec:objectType="shape" height="19.35px" width="11.4px" xmlns="http://www.w3.org/2000/svg">
  <g transform="matrix(1.0, 0.0, 0.0, 1.0, 6.7, 1.8)">
    <path d="M-4.5 12.35 L-4.25 10.05 -5.2 5.9 -3.6 1.25 -0.2 -1.3 1.9 -0.55 4.2 -0.75 3.8 6.8 2.6 8.4 Q2.2 9.7 2.7 13.5 1.75 15.2 0.5 16.3 -0.15 16.85 -0.7 17.05 L-3.15 16.5 -2.55 16.1 -2.45 16.0 -2.25 15.75 Q-1.8 14.9 -1.95 14.05 -2.2 13.1 -3.0 12.7 L-4.5 12.35 M-0.55 13.7 L0.25 12.8 0.7 7.95 -0.3 7.05 0.25 2.1 1.85 1.25 0.25 2.1 -0.3 7.05 0.7 7.95 0.25 12.8 -0.55 13.7 M-1.95 5.5 L-2.75 5.55 -1.95 5.5 -1.9 4.0 -1.95 5.5 -1.95 6.8 -3.1 7.05 -1.95 6.8 -1.95 5.5" fill="#b39a82" fill-rule="evenodd" stroke="none"/>
    <path d="M-3.15 16.5 L-0.7 17.05 Q-0.15 16.85 0.5 16.3 1.75 15.2 2.7 13.5 2.2 9.7 2.6 8.4 L3.8 6.8 4.2 -0.75 1.9 -0.55 -0.2 -1.3 -3.6 1.25 -5.2 5.9 -4.25 10.05 -4.5 12.35 M-1.9 4.0 L-1.95 5.5 -1.95 6.8 -3.1 7.05 M-2.75 5.55 L-1.95 5.5" fill="none" stroke="#745b52" stroke-linecap="round" stroke-linejoin="round" stroke-width="1.0"/>
    <path d="M1.85 1.25 L0.25 2.1 -0.3 7.05 0.7 7.95 0.25 12.8 -0.55 13.7" fill="none" stroke="#95806e" stroke-linecap="round" stroke-linejoin="round" stroke-width="1.0"/>
    <path d="M-4.55 12.3 L-4.4 12.25 Q-3.6 12.2 -2.85 12.6 -2.1 13.05 -1.8 13.95 -1.7 14.75 -2.1 15.6 L-2.35 15.9 -2.4 16.0 -3.0 16.4 -3.5 16.6 Q-4.4 16.85 -5.15 16.35 -5.95 15.8 -6.1 15.0 -6.35 14.1 -5.9 13.3 -5.45 12.55 -4.55 12.3" fill="#cdbfa3" fill-rule="evenodd" stroke="none"/>
    <path d="M-4.55 12.3 Q-5.45 12.55 -5.9 13.3 -6.35 14.1 -6.1 15.0 -5.95 15.8 -5.15 16.35 -4.4 16.85 -3.5 16.6 L-3.0 16.4 -2.4 16.0 -2.35 15.9 -2.1 15.6 Q-1.7 14.75 -1.8 13.95 -2.1 13.05 -2.85 12.6 -3.6 12.2 -4.4 12.25 L-4.55 12.3 Z" fill="none" stroke="#95806e" stroke-linecap="round" stroke-linejoin="round" stroke-width="1.0"/>
  </g>
</svg>
