<?xml version="1.0" encoding="UTF-8" standalone="no"?>
<svg xmlns:xlink="http://www.w3.org/1999/xlink" height="5.4px" width="67.0px" xmlns="http://www.w3.org/2000/svg">
  <g transform="matrix(1.0, 0.0, 0.0, 1.0, 33.5, 2.7)">
    <path d="M14.05 -1.05 L27.65 -0.2 31.7 0.0 11.15 1.25 11.1 1.25 0.15 1.65 Q-0.25 1.5 -0.55 1.65 L-14.15 1.05 -31.65 0.15 -26.55 -0.2 -11.2 -1.15 -11.05 -1.15 0.15 -1.5 0.6 -1.5 14.05 -1.05" fill="#ffffff" fill-rule="evenodd" stroke="none"/>
    <path d="M0.25 -2.7 L7.55 -2.4 32.6 -1.1 32.75 -1.1 33.25 -0.85 33.5 -0.15 33.35 0.45 32.85 0.75 31.3 0.85 18.65 1.65 5.95 2.5 0.15 2.7 -0.15 2.7 -0.25 2.7 -7.45 2.4 -32.55 1.1 -32.7 1.1 -33.25 0.85 -33.5 0.3 -33.35 -0.15 -33.25 -0.4 -32.75 -0.75 -31.25 -0.85 -31.2 -0.85 -18.6 -1.65 -5.85 -2.5 0.15 -2.7 0.25 -2.7 M14.05 -1.05 L0.6 -1.5 0.15 -1.5 -11.05 -1.15 -11.2 -1.15 -26.55 -0.2 -31.65 0.15 -14.15 1.05 -0.55 1.65 Q-0.25 1.5 0.15 1.65 L11.1 1.25 11.15 1.25 31.7 0.0 27.65 -0.2 14.05 -1.05" fill="#0909ff" fill-opacity="0.2" fill-rule="evenodd" stroke="none"/>
  </g>
</svg>
