<?xml version="1.0" encoding="UTF-8" standalone="no"?>
<svg xmlns:xlink="http://www.w3.org/1999/xlink" height="200.0px" width="200.0px" xmlns="http://www.w3.org/2000/svg">
  <g transform="matrix(1.0, 0.0, 0.0, 1.0, 100.0, 100.0)">
    <path d="M55.4 -55.4 Q32.4 -78.25 0.0 -78.25 -32.55 -78.25 -55.4 -55.4 -78.25 -32.4 -78.25 0.0 -78.25 32.55 -55.4 55.4 -32.55 78.25 0.0 78.25 32.4 78.25 55.4 55.4 78.25 32.55 78.25 0.0 78.25 -32.4 55.4 -55.4 M70.7 -70.7 Q100.0 -41.4 100.0 0.0 100.0 41.4 70.7 71.35 41.4 100.0 0.0 100.0 -40.75 100.0 -70.05 71.35 -100.0 41.4 -100.0 0.0 -100.0 -41.4 -70.05 -70.7 -40.75 -100.0 0.0 -100.0 41.4 -100.0 70.7 -70.7" fill="url(#gradient0)" fill-rule="evenodd" stroke="none"/>
  </g>
  <defs>
    <radialGradient cx="0" cy="0" gradientTransform="matrix(0.1217, 0.0, 0.0, 0.1217, 0.0, 0.0)" gradientUnits="userSpaceOnUse" id="gradient0" r="819.2" spreadMethod="pad">
      <stop offset="0.8156862745098039" stop-color="#ffffff" stop-opacity="0.0"/>
      <stop offset="0.8549019607843137" stop-color="#ffffff" stop-opacity="0.50980395"/>
      <stop offset="0.9725490196078431" stop-color="#ffffff" stop-opacity="0.8"/>
      <stop offset="1.0" stop-color="#9f9f9f" stop-opacity="0.2"/>
      <stop offset="1.0" stop-color="#959595" stop-opacity="0.2"/>
    </radialGradient>
  </defs>
</svg>
