<?xml version="1.0" encoding="UTF-8" standalone="no"?>
<svg xmlns:ffdec="https://www.free-decompiler.com/flash" xmlns:xlink="http://www.w3.org/1999/xlink" ffdec:objectType="shape" height="21.65px" width="14.95px" xmlns="http://www.w3.org/2000/svg">
  <g transform="matrix(1.0, 0.0, 0.0, 1.0, -3.05, -5.4)">
    <path d="M13.3 8.9 L14.7 8.3 15.4 7.7 15.5 7.6 16.8 6.45 17.4 9.65 17.0 11.25 17.4 9.65 17.5 10.1 17.0 11.25 14.55 16.2 14.45 16.1 14.55 16.2 14.4 16.4 14.45 16.1 14.55 15.35 13.4 15.15 13.4 14.4 13.35 14.1 13.2 13.25 13.3 8.9 M12.7 11.7 L12.8 10.75 12.85 10.95 12.7 11.7 12.85 10.95 13.2 13.25 13.2 13.5 12.7 11.7" fill="#6b6b83" fill-rule="evenodd" stroke="none"/>
    <path d="M14.7 8.3 L13.3 8.9 13.2 13.25 13.35 14.1 13.4 14.4 13.3 14.6 13.2 14.75 13.2 14.85 12.8 14.35 13.2 14.85 13.1 15.05 12.05 14.7 10.8 14.55 10.45 14.55 10.35 14.3 Q9.8 13.1 10.05 11.8 10.15 11.1 10.55 10.35 12.3 7.85 12.3 7.05 L13.2 5.9 12.3 7.05 Q12.3 7.85 10.55 10.35 10.4 9.7 11.05 9.2 L11.75 8.2 12.25 6.7 12.25 6.55 Q12.4 5.85 13.2 5.9 14.7 6.1 15.45 7.05 L15.45 7.1 Q14.95 7.5 14.7 8.3 14.95 7.5 15.45 7.1 L15.45 7.2 15.5 7.6 15.4 7.7 14.7 8.3 M12.8 14.35 L10.8 14.55 12.8 14.35 M12.7 11.7 L13.3 14.6 12.7 11.7 13.2 13.5 13.2 13.25 12.85 10.95 12.8 10.75 12.7 11.7 M13.3 8.9 L12.85 10.95 13.3 8.9 M15.4 7.7 L15.45 7.2 15.4 7.7" fill="#3d3d5d" fill-rule="evenodd" stroke="none"/>
    <path d="M6.6 7.45 L8.55 8.2 10.75 7.05 12.25 6.7 11.75 8.2 11.05 9.2 Q10.4 9.7 10.55 10.35 8.45 12.4 6.5 12.5 L6.1 12.2 6.5 12.5 6.4 12.5 6.1 12.3 6.1 12.2 6.1 12.0 Q6.1 9.55 6.6 7.45 M5.15 16.9 L6.05 17.35 6.9 17.95 6.95 18.0 7.8 19.45 7.85 19.45 7.9 19.75 7.95 19.85 7.95 19.9 7.95 19.95 8.0 20.3 8.0 20.35 8.0 20.4 8.0 20.65 Q8.15 22.95 6.5 23.95 L6.0 24.25 5.9 24.25 4.85 17.0 5.15 16.9" fill="#181818" fill-rule="evenodd" stroke="none"/>
    <path d="M4.75 11.55 L6.1 12.3 6.4 12.5 9.95 14.6 9.25 15.9 Q7.15 15.55 4.4 17.1 7.15 15.55 9.25 15.9 L5.15 16.9 4.85 17.0 4.4 17.1 3.65 17.05 3.55 15.55 4.75 11.55" fill="#2d2f4a" fill-rule="evenodd" stroke="none"/>
    <path d="M13.4 14.4 L13.4 15.15 13.1 15.05 13.2 14.85 13.2 14.75 13.3 14.6 13.4 14.4 M10.55 10.35 Q10.15 11.1 10.05 11.8 9.8 13.1 10.35 14.3 L10.45 14.55 9.95 14.6 7.2 12.9 6.5 12.5 7.2 12.9 9.95 14.6 Q9.6 13.5 10.05 11.8 9.6 13.5 9.95 14.6 L6.4 12.5 6.5 12.5 Q8.45 12.4 10.55 10.35 M7.95 19.9 L7.95 19.85 7.9 19.75 7.85 19.45 7.8 19.45 6.95 18.0 6.9 17.95 6.05 17.35 5.15 16.9 9.25 15.9 9.95 17.25 11.3 19.95 11.3 20.0 11.85 20.95 11.3 20.45 11.2 21.95 11.45 22.25 Q9.45 23.7 9.05 24.8 L8.9 24.95 9.0 25.05 8.9 24.95 9.05 24.8 9.0 25.05 Q8.9 25.75 9.65 26.25 L5.9 26.45 Q4.45 25.75 5.35 24.45 L5.9 24.25 6.0 24.25 6.5 23.95 Q8.15 22.95 8.0 20.65 L8.0 20.4 8.0 20.35 8.0 20.3 7.95 19.95 7.95 19.9 M13.1 20.7 L13.1 20.65 13.2 20.65 13.1 20.7 M8.95 18.3 Q9.75 19.7 9.55 21.4 9.75 19.7 8.95 18.3 M13.4 15.15 L13.2 14.85 13.4 15.15 13.3 14.6 13.4 15.15 M11.3 20.0 L11.3 20.45 11.3 20.0" fill="#242530" fill-rule="evenodd" stroke="none"/>
    <path d="M13.4 15.15 L14.55 15.35 14.45 16.1 14.4 16.4 14.4 16.55 13.8 20.4 13.3 20.6 13.2 20.65 13.1 20.65 13.1 20.7 12.1 21.1 12.05 21.1 11.95 21.05 11.85 20.95 11.3 20.0 11.3 19.95 Q11.15 19.2 10.4 18.0 L9.95 17.25 10.4 18.0 Q11.15 19.2 11.3 19.95 L9.95 17.25 9.25 15.9 9.95 14.6 10.45 14.55 10.8 14.55 12.05 14.7 13.1 15.05 13.4 15.15 14.45 16.1 13.4 15.15 M9.95 14.6 L10.8 14.55 9.95 14.6" fill="#2c2d47" fill-rule="evenodd" stroke="none"/>
    <path d="M11.85 20.95 L11.95 21.05 12.05 21.1 12.1 21.1 13.1 20.7 13.2 20.65 13.3 20.6 13.8 20.4 13.8 20.45 14.55 25.05 12.55 26.1 10.4 26.55 9.65 26.25 Q8.9 25.75 9.0 25.05 L10.4 26.55 9.0 25.05 9.05 24.8 Q9.45 23.7 11.45 22.25 L11.2 21.95 11.3 20.45 11.85 20.95 M10.4 26.55 L14.55 25.05 10.4 26.55 M11.45 22.25 L9.05 24.8 11.45 22.25" fill="#232439" fill-rule="evenodd" stroke="none"/>
    <path d="M17.0 11.25 L17.4 9.65 17.5 9.25 16.8 6.45 Q16.0 6.6 15.45 7.1 14.95 7.5 14.7 8.3 M14.6 16.25 L16.3 13.65 17.0 11.25 M14.4 16.55 L14.6 16.25" fill="none" stroke="#2a283b" stroke-linecap="round" stroke-linejoin="round" stroke-width="1.0"/>
    <path d="M15.45 7.1 L15.45 7.05 Q14.7 6.1 13.2 5.9 L12.3 7.05 Q12.3 7.85 10.55 10.35 10.15 11.1 10.05 11.8 9.6 13.5 9.95 14.6 M6.5 12.5 Q8.45 12.4 10.55 10.35 M15.45 7.1 L15.45 7.2 15.4 7.7 M6.4 12.5 L6.5 12.5 M9.65 26.25 L5.9 26.45 Q4.45 25.75 5.35 24.45 L5.9 24.25 M9.55 21.4 Q9.75 19.7 8.95 18.3" fill="none" stroke="#0e0d13" stroke-linecap="round" stroke-linejoin="round" stroke-width="1.0"/>
    <path d="M14.7 8.3 L13.3 8.9 12.85 10.95 12.7 11.7 13.3 14.6 13.4 15.15" fill="none" stroke="#1e1e2e" stroke-linecap="round" stroke-linejoin="round" stroke-width="1.0"/>
    <path d="M4.75 11.55 L6.1 12.0 M3.65 17.05 L3.55 15.55 4.75 11.55" fill="none" stroke="#1e1e36" stroke-linecap="round" stroke-linejoin="round" stroke-width="1.0"/>
    <path d="M6.1 12.0 L6.1 12.2 6.5 12.5 7.2 12.9 9.95 14.6 9.25 15.9 Q7.15 15.55 4.4 17.1 L3.65 17.05" fill="none" stroke="#13131d" stroke-linecap="round" stroke-linejoin="round" stroke-width="1.0"/>
    <path d="M6.6 7.45 Q6.1 9.55 6.1 12.0 M6.1 12.3 L6.1 12.2 M4.85 17.0 L5.9 24.25" fill="none" stroke="#030305" stroke-linecap="round" stroke-linejoin="round" stroke-width="1.0"/>
    <path d="M10.8 14.55 L12.8 14.35 M9.25 15.9 L9.95 17.25 10.4 18.0 Q11.15 19.2 11.3 19.95 L11.3 20.0 11.3 20.45 M10.8 14.55 L9.95 14.6" fill="none" stroke="#12121d" stroke-linecap="round" stroke-linejoin="round" stroke-width="1.0"/>
    <path d="M7.95 19.9 L7.95 19.85 7.9 19.75 7.85 19.45 7.8 19.45 6.95 18.0 6.9 17.95 6.05 17.35 5.15 16.9 M5.9 24.25 L6.0 24.25 6.5 23.95 Q8.15 22.95 8.0 20.65 L8.0 20.4 M8.0 20.35 L8.0 20.3 7.95 19.95" fill="none" stroke="#121114" stroke-linecap="round" stroke-linejoin="round" stroke-width="1.0"/>
    <path d="M14.45 16.1 L14.55 16.2 14.6 16.25 14.75 16.4 13.8 20.4 M12.8 14.35 L13.2 14.85 13.4 15.15 14.45 16.1" fill="none" stroke="#1c1b27" stroke-linecap="round" stroke-linejoin="round" stroke-width="1.0"/>
    <path d="M11.85 20.95 L11.95 21.05 12.05 21.1 12.1 21.1 13.1 20.7 13.2 20.65 13.3 20.6 M9.0 25.05 L8.9 24.95 9.05 24.8 11.45 22.25 11.2 21.95 11.3 20.45 11.85 20.95 M10.4 26.55 L9.0 25.05" fill="none" stroke="#11111a" stroke-linecap="round" stroke-linejoin="round" stroke-width="1.0"/>
    <path d="M13.8 20.4 L13.8 20.45 14.55 25.05 10.4 26.55" fill="none" stroke="#181621" stroke-linecap="round" stroke-linejoin="round" stroke-width="1.0"/>
  </g>
</svg>
