<?xml version="1.0" encoding="UTF-8" standalone="no"?>
<svg xmlns:ffdec="https://www.free-decompiler.com/flash" xmlns:xlink="http://www.w3.org/1999/xlink" ffdec:objectType="shape" height="21.5px" width="15.2px" xmlns="http://www.w3.org/2000/svg">
  <g transform="matrix(1.0, 0.0, 0.0, 1.0, 4.4, 5.05)">
    <path d="M-2.5 0.6 L2.8 1.25 6.95 2.65 4.65 7.1 2.05 15.25 -0.75 15.95 -3.6 13.85 -3.9 4.8 -2.5 0.6" fill="#292a2b" fill-rule="evenodd" stroke="none"/>
    <path d="M-2.5 0.6 L-3.9 4.8 -3.6 13.85 -0.75 15.95 2.05 15.25 4.65 7.1 6.95 2.65 2.8 1.25 -2.5 0.6 Z" fill="none" stroke="#101214" stroke-linecap="round" stroke-linejoin="round" stroke-width="1.0"/>
    <path d="M-0.85 -2.9 L3.95 -2.2 Q5.35 -4.5 7.3 -4.55 8.95 -4.65 10.3 -3.35 L10.0 3.35 7.45 5.15 4.25 2.35 3.55 2.25 -1.75 3.15 -2.8 -0.3 -0.85 -2.9" fill="#292a2b" fill-rule="evenodd" stroke="none"/>
    <path d="M-0.85 -2.9 L-2.8 -0.3 -1.75 3.15 3.55 2.25 4.25 2.35 7.45 5.15 10.0 3.35 10.3 -3.35 Q8.95 -4.65 7.3 -4.55 5.35 -4.5 3.95 -2.2 L-0.85 -2.9 Z" fill="none" stroke="#101214" stroke-linecap="round" stroke-linejoin="round" stroke-width="1.0"/>
    <path d="M5.3 -1.3 Q5.95 -2.45 6.7 -2.8 L8.8 -2.85 5.3 -1.3" fill="#292a2b" fill-rule="evenodd" stroke="none"/>
    <path d="M5.3 -1.3 Q5.95 -2.45 6.7 -2.8 L8.8 -2.85" fill="none" stroke="#181c1e" stroke-linecap="round" stroke-linejoin="round" stroke-width="1.0"/>
    <path d="M8.75 0.6 L6.55 0.65" fill="none" stroke="#d06513" stroke-linecap="round" stroke-linejoin="round" stroke-width="1.0"/>
    <path d="M2.85 4.8 L4.95 6.5 2.25 15.15 0.7 15.6 1.4 7.6 2.85 4.8" fill="#2f2f2f" fill-rule="evenodd" stroke="none"/>
    <path d="M2.85 4.8 L4.95 6.5 2.25 15.15 0.7 15.6 1.4 7.6 2.85 4.8 Z" fill="none" stroke="#101214" stroke-linecap="round" stroke-linejoin="round" stroke-width="1.0"/>
    <path d="M-2.5 4.6 L-0.9 5.2" fill="none" stroke="#181c1e" stroke-linecap="round" stroke-linejoin="round" stroke-width="1.0"/>
    <path d="M-2.25 6.55 L-1.0 7.0" fill="none" stroke="#181c1e" stroke-linecap="round" stroke-linejoin="round" stroke-width="1.0"/>
  </g>
</svg>
