<?xml version="1.0" encoding="UTF-8" standalone="no"?>
<svg xmlns:ffdec="https://www.free-decompiler.com/flash" xmlns:xlink="http://www.w3.org/1999/xlink" ffdec:objectType="shape" height="25.2px" width="16.6px" xmlns="http://www.w3.org/2000/svg">
  <g transform="matrix(1.0, 0.0, 0.0, 1.0, 8.05, 7.7)">
    <path d="M-3.35 -1.25 L-2.6 -4.4 Q1.6 -2.1 3.65 -3.75 L5.7 -5.3 7.05 -6.8 3.85 16.4 Q1.75 15.0 -0.45 14.8 -3.0 14.5 -4.65 15.9 L-3.5 12.8 0.3 12.8 0.35 8.15 -3.45 8.1 -3.4 2.85 0.4 2.9 0.4 -1.2 -3.35 -1.25 M4.1 4.2 L1.85 4.2 1.8 6.55 4.05 6.55 4.1 4.2 M1.55 7.95 L1.55 10.25 3.8 10.3 3.85 7.95 1.55 7.95 M3.55 11.75 L1.3 11.7 1.3 14.05 3.55 14.1 3.55 11.75" fill="#333333" fill-rule="evenodd" stroke="none"/>
    <path d="M7.05 -6.8 L3.85 16.4 Q1.75 15.0 -0.45 14.8 -3.0 14.5 -4.65 15.9 L-3.5 12.8 0.3 12.8 0.35 8.15 -3.45 8.1 -3.4 2.85 0.4 2.9 0.4 -1.2 -3.35 -1.25 -2.6 -4.4 M4.1 4.2 L1.85 4.2 1.8 6.55 4.05 6.55 4.1 4.2 M1.55 7.95 L1.55 10.25 3.8 10.3 3.85 7.95 1.55 7.95 M3.55 11.75 L1.3 11.7 1.3 14.05 3.55 14.1 3.55 11.75" fill="none" stroke="#212121" stroke-linecap="butt" stroke-linejoin="miter-clip" stroke-miterlimit="11.33984375" stroke-width="1.05"/>
    <path d="M-2.6 -4.4 Q1.6 -2.1 3.65 -3.75 L5.7 -5.3 7.05 -6.8" fill="none" stroke="#212121" stroke-linecap="round" stroke-linejoin="miter-clip" stroke-miterlimit="11.33984375" stroke-width="1.05"/>
    <path d="M3.0 13.05 Q1.45 15.85 -1.5 13.1 -3.0 11.7 -2.0 9.8 -0.35 6.6 -0.25 6.05 0.3 2.75 1.7 1.8 2.9 1.0 4.0 2.45 6.8 6.3 3.0 13.05" fill="#313131" fill-rule="evenodd" stroke="none"/>
    <path d="M3.0 13.05 Q1.45 15.85 -1.5 13.1 -3.0 11.7 -2.0 9.8 -0.35 6.6 -0.25 6.05 0.3 2.75 1.7 1.8 2.9 1.0 4.0 2.45 6.8 6.3 3.0 13.05 Z" fill="none" stroke="#242424" stroke-linecap="round" stroke-linejoin="round" stroke-width="1.05"/>
    <path d="M6.4 5.3 Q5.7 6.85 4.85 7.0 L3.5 6.85 Q2.25 5.8 1.3 2.65 1.15 2.05 1.15 1.05 L1.15 -0.6 Q1.15 -1.1 2.7 -2.05 4.3 -3.05 4.35 -3.4 L4.8 -5.15 Q5.4 -6.65 6.5 -6.4 7.5 -6.2 7.55 -5.6 7.85 -2.15 7.15 1.6 L6.4 5.3" fill="#494d4f" fill-rule="evenodd" stroke="none"/>
    <path d="M6.4 5.3 Q5.7 6.85 4.85 7.0 L3.5 6.85 Q2.25 5.8 1.3 2.65 1.15 2.05 1.15 1.05 L1.15 -0.6 Q1.15 -1.1 2.7 -2.05 4.3 -3.05 4.35 -3.4 L4.8 -5.15 Q5.4 -6.65 6.5 -6.4 7.5 -6.2 7.55 -5.6 7.85 -2.15 7.15 1.6 L6.4 5.3 Z" fill="none" stroke="#2d2d2d" stroke-linecap="butt" stroke-linejoin="miter-clip" stroke-miterlimit="11.33984375" stroke-width="1.05"/>
    <path d="M2.4 16.85 L1.0 16.2 -0.7 16.05 Q-1.7 15.9 -2.6 14.95 L-4.45 12.45 -4.8 6.85 Q-4.85 3.15 -4.4 -0.15 0.0 1.25 1.0 2.85 L1.15 5.1 0.8 5.8 -0.25 6.9 -1.3 8.25 0.2 11.05 2.05 10.3 4.55 10.6 4.25 14.5 4.4 16.1 4.2 16.85 2.4 16.85" fill="#3e3e3e" fill-rule="evenodd" stroke="none"/>
    <path d="M2.4 16.85 L1.0 16.2 -0.7 16.05 Q-1.7 15.9 -2.6 14.95 L-4.45 12.45 -4.8 6.85 Q-4.85 3.15 -4.4 -0.15 0.0 1.25 1.0 2.85 L1.15 5.1 0.8 5.8 -0.25 6.9 -1.3 8.25 0.2 11.05 2.05 10.3 4.55 10.6 4.25 14.5 4.4 16.1 4.2 16.85 2.4 16.85 Z" fill="none" stroke="#232323" stroke-linecap="round" stroke-linejoin="round" stroke-width="1.05"/>
    <path d="M-3.3 2.55 L-2.15 3.2" fill="none" stroke="#777777" stroke-linecap="round" stroke-linejoin="round" stroke-width="1.05"/>
    <path d="M-4.3 11.55 L-1.15 8.25 M-1.2 13.95 L0.4 11.15" fill="none" stroke="#232323" stroke-linecap="round" stroke-linejoin="round" stroke-opacity="0.28235295" stroke-width="1.05"/>
    <path d="M1.15 -1.35 L1.5 -1.45 2.55 -1.2 Q3.2 -0.9 4.05 0.7 L2.95 2.3 1.45 3.0 1.15 -1.35" fill="#2d2d2d" fill-opacity="0.5372549" fill-rule="evenodd" stroke="none"/>
    <path d="M-4.55 2.5 Q-6.8 1.4 -6.4 -0.05 -5.95 -1.5 -3.4 -1.7 L-0.25 -1.75 0.9 -0.9 1.35 1.6 0.85 3.2 -1.25 4.0 -4.55 2.5 M-5.5 16.8 Q-7.75 17.25 -7.55 14.4 -7.4 11.55 -4.55 11.7 L-1.4 14.1 -0.85 16.2 -5.5 16.8" fill="#4f4f4f" fill-rule="evenodd" stroke="none"/>
    <path d="M-4.55 2.5 Q-6.8 1.4 -6.4 -0.05 -5.95 -1.5 -3.4 -1.7 L-0.25 -1.75 0.9 -0.9 1.35 1.6 0.85 3.2 -1.25 4.0 -4.55 2.5 M-5.5 16.8 Q-7.75 17.25 -7.55 14.4 -7.4 11.55 -4.55 11.7 L-1.4 14.1 -0.85 16.2 -5.5 16.8 Z" fill="none" stroke="#303031" stroke-linecap="round" stroke-linejoin="round" stroke-width="1.05"/>
    <path d="M4.2 12.3 L4.2 14.65 1.9 14.6 1.95 12.3 4.2 12.3 M2.3 7.4 L4.55 7.4 4.55 9.75 2.3 9.7 2.3 7.4" fill="#56e8ff" fill-rule="evenodd" stroke="none"/>
    <path d="M4.2 12.3 L4.2 14.65 1.9 14.6 1.95 12.3 4.2 12.3 M2.3 7.4 L4.55 7.4 4.55 9.75 2.3 9.7 2.3 7.4 Z" fill="none" stroke="#083573" stroke-linecap="round" stroke-linejoin="round" stroke-opacity="0.7294118" stroke-width="1.05"/>
  </g>
</svg>
