<?xml version="1.0" encoding="UTF-8" standalone="no"?>
<svg xmlns:ffdec="https://www.free-decompiler.com/flash" xmlns:xlink="http://www.w3.org/1999/xlink" ffdec:objectType="shape" height="24.7px" width="13.7px" xmlns="http://www.w3.org/2000/svg">
  <g transform="matrix(1.0, 0.0, 0.0, 1.0, 6.85, 12.35)">
    <path d="M-5.55 0.45 Q-5.55 0.1 -5.75 0.0 L-6.25 -0.4 -6.2 -0.95 -5.65 -1.85 -5.45 -2.85 -5.25 -4.1 -4.65 -6.5 -4.2 -7.85 2.3 -7.4 3.15 -6.8 3.95 -5.7 3.95 -3.45 Q3.95 -1.7 3.45 -1.6 3.2 -0.55 2.9 1.85 L2.2 3.85 Q1.5 5.2 1.05 6.7 L-4.55 6.85 Q-5.55 2.55 -5.55 0.45" fill="#3f3e37" fill-rule="evenodd" stroke="none"/>
    <path d="M-5.55 0.45 Q-5.55 2.55 -4.55 6.85 L1.05 6.7 Q1.5 5.2 2.2 3.85 L2.9 1.85 Q3.2 -0.55 3.45 -1.6 3.95 -1.7 3.95 -3.45 L3.95 -5.7 3.15 -6.8 2.3 -7.4 -4.2 -7.85 -4.65 -6.5 -5.25 -4.1 -5.45 -2.85 -5.65 -1.85 -6.2 -0.95 -6.25 -0.4 -5.75 0.0 Q-5.55 0.1 -5.55 0.45 Z" fill="none" stroke="#201f1c" stroke-linecap="round" stroke-linejoin="round" stroke-width="1.05"/>
    <path d="M-3.4 -1.95 L-2.3 -4.25 Q-0.95 -6.55 0.45 -6.6 L1.15 -3.4 -0.45 -2.45 Q-2.3 -1.55 -3.4 -1.95" fill="#313129" fill-rule="evenodd" stroke="none"/>
    <path d="M-5.05 -6.7 L-4.75 -7.4 Q-4.5 -8.2 -4.8 -8.6 -3.95 -9.3 -0.5 -10.0 L4.2 -10.55 Q4.0 -9.2 4.4 -6.75 L-0.35 -6.8 -5.05 -6.7" fill="url(#gradient0)" fill-rule="evenodd" stroke="none"/>
    <path d="M-5.05 -6.7 L-0.35 -6.8 4.4 -6.75 Q4.0 -9.2 4.2 -10.55 L-0.5 -10.0 Q-3.95 -9.3 -4.8 -8.6 -4.5 -8.2 -4.75 -7.4 L-5.05 -6.7 Z" fill="none" stroke="#626262" stroke-linecap="round" stroke-linejoin="round" stroke-width="1.05"/>
    <path d="M1.05 10.45 Q0.05 11.1 -1.3 11.5 -3.95 12.35 -5.6 11.1 -5.6 9.45 -6.05 7.1 -6.4 5.45 -5.95 3.8 L2.35 4.15 Q1.35 6.65 1.1 8.8 L1.05 10.45" fill="#2b2c37" fill-rule="evenodd" stroke="none"/>
    <path d="M-4.65 0.05 L-2.05 0.25 1.2 -0.6 1.0 0.65 Q0.75 2.0 0.3 2.35 L-2.05 2.55 -3.6 2.2 -4.65 0.05" fill="#313129" fill-rule="evenodd" stroke="none"/>
    <path d="M2.35 -10.45 L4.75 -11.85 Q5.5 -11.85 5.9 -10.9 6.3 -10.05 6.35 -8.8 6.35 -5.7 4.8 -5.4 L2.4 -6.8 2.35 -10.45" fill="url(#gradient1)" fill-rule="evenodd" stroke="none"/>
    <path d="M0.1 -8.3 L2.65 -8.6" fill="none" stroke="#63564b" stroke-linecap="round" stroke-linejoin="round" stroke-width="1.05"/>
    <path d="M2.35 -10.45 L4.75 -11.85" fill="none" stroke="#695645" stroke-linecap="round" stroke-linejoin="round" stroke-width="1.05"/>
    <path d="M2.4 -6.8 L4.8 -5.4" fill="none" stroke="#695645" stroke-linecap="round" stroke-linejoin="round" stroke-width="1.05"/>
    <path d="M4.8 -5.4 Q6.35 -5.7 6.35 -8.8 6.3 -10.05 5.9 -10.9 5.5 -11.85 4.75 -11.85" fill="none" stroke="#604125" stroke-linecap="round" stroke-linejoin="round" stroke-width="1.05"/>
    <path d="M1.05 8.35 L-3.0 8.65 -5.7 8.4 -6.0 6.6 -0.95 6.9 1.2 6.8 1.05 8.35" fill="#7a8530" fill-rule="evenodd" stroke="none"/>
    <path d="M-5.6 11.1 Q-5.6 9.45 -6.05 7.1 -6.4 5.45 -5.95 3.8 L2.35 4.15 Q1.35 6.65 1.1 8.8 L1.05 10.45" fill="none" stroke="#131318" stroke-linecap="round" stroke-linejoin="round" stroke-width="1.05"/>
    <path d="M-5.6 11.1 L-5.1 11.4 -3.8 11.8 Q-1.45 12.15 1.05 10.45" fill="none" stroke="#1f1f27" stroke-linecap="round" stroke-linejoin="round" stroke-width="1.05"/>
  </g>
  <defs>
    <linearGradient gradientTransform="matrix(0.0027, 1.0E-4, -1.0E-4, 0.0027, 0.1, -8.55)" gradientUnits="userSpaceOnUse" id="gradient0" spreadMethod="pad" x1="-819.2" x2="819.2">
      <stop offset="0.0" stop-color="#9c989c"/>
      <stop offset="1.0" stop-color="#a38b79"/>
    </linearGradient>
    <linearGradient gradientTransform="matrix(0.0025, 1.0E-4, -1.0E-4, 0.0025, 3.35, -8.6)" gradientUnits="userSpaceOnUse" id="gradient1" spreadMethod="pad" x1="-819.2" x2="819.2">
      <stop offset="0.0" stop-color="#9c989c"/>
      <stop offset="1.0" stop-color="#b6681e"/>
    </linearGradient>
  </defs>
</svg>
