<?xml version="1.0" encoding="UTF-8" standalone="no"?>
<svg xmlns:ffdec="https://www.free-decompiler.com/flash" xmlns:xlink="http://www.w3.org/1999/xlink" ffdec:objectType="shape" height="22.15px" width="18.35px" xmlns="http://www.w3.org/2000/svg">
  <g transform="matrix(1.0, 0.0, 0.0, 1.0, 0.65, 0.9)">
    <path d="M4.8 2.3 Q7.7 3.35 12.15 1.55 L12.45 18.6 Q7.2 21.9 6.65 17.35 3.2 11.0 4.8 2.3" fill="#22222c" fill-rule="evenodd" stroke="none"/>
    <path d="M4.8 2.3 Q3.2 11.0 6.65 17.35 7.2 21.9 12.45 18.6 L12.15 1.55 Q7.7 3.35 4.8 2.3 Z" fill="none" stroke="#131719" stroke-linecap="round" stroke-linejoin="round" stroke-width="1.0"/>
    <path d="M8.45 2.1 L9.05 0.75 16.25 0.95 14.35 8.45 13.8 9.45 13.3 12.5 11.05 15.65 8.2 13.0 7.75 10.65 8.65 8.0 7.15 5.7 8.45 2.1" fill="#252d31" fill-rule="evenodd" stroke="none"/>
    <path d="M8.45 2.1 L7.15 5.7 8.65 8.0 7.75 10.65 8.2 13.0 7.65 14.65 8.55 18.45 4.85 18.45 2.9 14.4 3.7 12.9 2.95 10.55 4.7 10.15 1.55 5.3 4.2 1.55 8.45 2.1" fill="#1d2327" fill-rule="evenodd" stroke="none"/>
    <path d="M8.2 13.0 L11.05 15.65 13.3 12.5 13.8 9.45 14.35 8.45 16.25 0.95 9.05 0.75 8.45 2.1 7.15 5.7 8.65 8.0 7.75 10.65 8.2 13.0 7.65 14.65 8.55 18.45 4.85 18.45 2.9 14.4 3.7 12.9 2.95 10.55 4.7 10.15 1.55 5.3 4.2 1.55 8.45 2.1" fill="none" stroke="#131719" stroke-linecap="round" stroke-linejoin="round" stroke-width="1.0"/>
    <path d="M0.45 4.95 L1.4 2.7 4.4 4.8 4.4 5.8 3.25 7.3 4.15 8.25 2.55 8.25 0.45 4.95" fill="#2f3d46" fill-rule="evenodd" stroke="none"/>
    <path d="M4.15 8.25 L4.35 8.5 5.45 10.3 5.45 12.7 0.7 10.35 -0.15 6.3 0.45 4.95 2.55 8.25 4.15 8.25" fill="#253038" fill-rule="evenodd" stroke="none"/>
    <path d="M0.45 4.95 L1.4 2.7 4.4 4.8 4.4 5.8 3.25 7.3 4.15 8.25 4.35 8.5 5.45 10.3 5.45 12.7 0.7 10.35 -0.15 6.3 0.45 4.95 Z" fill="none" stroke="#1c2327" stroke-linecap="round" stroke-linejoin="round" stroke-width="1.0"/>
    <path d="M15.4 5.0 L14.9 7.45 13.85 9.4 13.6 9.2 12.0 7.5 12.0 5.45 12.75 4.5 12.95 4.35 14.4 5.6 15.4 5.0" fill="url(#gradient0)" fill-rule="evenodd" stroke="none"/>
    <path d="M15.4 5.0 L14.4 5.6 12.95 4.35 12.75 4.5 12.0 4.85 10.5 3.8 9.8 1.2 17.2 -0.4 15.6 4.85 15.4 5.0 M13.6 9.2 L13.85 9.4 14.55 9.95 14.55 13.55 13.65 14.25 12.9 10.75 10.8 8.4 11.45 7.55 13.6 9.2" fill="#2f3d46" fill-rule="evenodd" stroke="none"/>
    <path d="M13.65 14.25 L12.4 20.15 8.1 20.75 7.15 19.95 7.15 17.05 6.2 13.95 7.9 13.95 9.4 12.05 9.55 10.1 10.8 8.4 12.9 10.75 13.65 14.25" fill="#253038" fill-rule="evenodd" stroke="none"/>
    <path d="M13.85 9.4 L14.9 7.45 15.4 5.0 M12.75 4.5 L12.0 5.45 12.0 7.5 13.6 9.2" fill="none" stroke="#173548" stroke-linecap="round" stroke-linejoin="round" stroke-width="1.0"/>
    <path d="M15.4 5.0 L14.4 5.6 12.95 4.35 12.75 4.5 12.0 4.85 10.5 3.8 9.8 1.2 17.2 -0.4 15.6 4.85 15.4 5.0 M13.6 9.2 L13.85 9.4 14.55 9.95 14.55 13.55 13.65 14.25 12.4 20.15 8.1 20.75 7.15 19.95 7.15 17.05 6.2 13.95 7.9 13.95 9.4 12.05 9.55 10.1 10.8 8.4 11.45 7.55 13.6 9.2 Z" fill="none" stroke="#1c2327" stroke-linecap="round" stroke-linejoin="round" stroke-width="1.0"/>
  </g>
  <defs>
    <linearGradient gradientTransform="matrix(0.0071, 0.0, 0.0, 0.0037, 13.7, 6.9)" gradientUnits="userSpaceOnUse" id="gradient0" spreadMethod="pad" x1="-819.2" x2="819.2">
      <stop offset="0.0" stop-color="#136ebf"/>
      <stop offset="0.32941176470588235" stop-color="#c9e6ff"/>
      <stop offset="0.6039215686274509" stop-color="#8dbce2"/>
      <stop offset="1.0" stop-color="#106fb1"/>
    </linearGradient>
  </defs>
</svg>
