<?xml version="1.0" encoding="UTF-8" standalone="no"?>
<svg xmlns:xlink="http://www.w3.org/1999/xlink" height="27.8px" width="55.6px" xmlns="http://www.w3.org/2000/svg">
  <g transform="matrix(1.0, 0.0, 0.0, 1.0, 27.8, 13.95)">
    <path d="M18.2 3.05 L-13.95 3.05 -13.95 -3.05 18.2 -3.05 18.2 3.05" fill="url(#gradient0)" fill-rule="evenodd" stroke="none"/>
    <path d="M18.2 -3.05 Q19.45 -3.05 20.35 -2.15 21.25 -1.25 21.25 0.0 21.25 1.25 20.35 2.1 19.45 3.05 18.2 3.05 L18.2 -3.05" fill="url(#gradient1)" fill-rule="evenodd" stroke="none"/>
    <path d="M-13.95 3.05 Q-15.2 3.05 -16.1 2.1 -17.0 1.25 -17.0 0.0 -17.0 -1.25 -16.1 -2.15 -15.2 -3.05 -13.95 -3.05 L-13.95 3.05" fill="url(#gradient2)" fill-rule="evenodd" stroke="none"/>
    <path d="M27.8 -0.05 Q27.8 5.75 19.65 9.8 11.55 13.85 0.0 13.85 -11.55 13.85 -19.65 9.8 -27.8 5.75 -27.8 -0.05 -27.8 -5.8 -19.65 -9.85 -11.55 -13.95 0.0 -13.95 11.55 -13.95 19.65 -9.85 27.8 -5.8 27.8 -0.05" fill="url(#gradient3)" fill-rule="evenodd" stroke="none"/>
  </g>
  <defs>
    <linearGradient gradientTransform="matrix(0.0, 0.0035, -0.0052, 0.0, 2.1, 0.0)" gradientUnits="userSpaceOnUse" id="gradient0" spreadMethod="pad" x1="-819.2" x2="819.2">
      <stop offset="0.0" stop-color="#ff0000" stop-opacity="0.0"/>
      <stop offset="0.21568627450980393" stop-color="#ff0000" stop-opacity="0.43529412"/>
      <stop offset="0.43137254901960786" stop-color="#ffffff"/>
      <stop offset="0.5725490196078431" stop-color="#ffffff"/>
      <stop offset="0.7529411764705882" stop-color="#ff0000" stop-opacity="0.4862745"/>
      <stop offset="1.0" stop-color="#ff0000" stop-opacity="0.0"/>
    </linearGradient>
    <radialGradient cx="0" cy="0" gradientTransform="matrix(0.0035, 0.0, 0.0, 0.0035, 18.2, 0.0)" gradientUnits="userSpaceOnUse" id="gradient1" r="819.2" spreadMethod="pad">
      <stop offset="0.13333333333333333" stop-color="#ffffff"/>
      <stop offset="0.5333333333333333" stop-color="#ff0000" stop-opacity="0.46666667"/>
      <stop offset="1.0" stop-color="#ff0000" stop-opacity="0.0"/>
    </radialGradient>
    <radialGradient cx="0" cy="0" gradientTransform="matrix(0.0035, 0.0, 0.0, 0.0035, -13.95, 0.0)" gradientUnits="userSpaceOnUse" id="gradient2" r="819.2" spreadMethod="pad">
      <stop offset="0.13333333333333333" stop-color="#ffffff"/>
      <stop offset="0.5333333333333333" stop-color="#ff0000" stop-opacity="0.46666667"/>
      <stop offset="1.0" stop-color="#ff0000" stop-opacity="0.0"/>
    </radialGradient>
    <radialGradient cx="0" cy="0" gradientTransform="matrix(0.0332, 0.0, 0.0, 0.0166, 0.0, -0.05)" gradientUnits="userSpaceOnUse" id="gradient3" r="819.2" spreadMethod="pad">
      <stop offset="0.19215686274509805" stop-color="#fe0000" stop-opacity="0.2"/>
      <stop offset="1.0" stop-color="#fd0000" stop-opacity="0.0"/>
    </radialGradient>
  </defs>
</svg>
