<?xml version="1.0" encoding="UTF-8" standalone="no"?>
<svg xmlns:xlink="http://www.w3.org/1999/xlink" height="115.05px" width="80.55px" xmlns="http://www.w3.org/2000/svg">
  <g transform="matrix(1.0, 0.0, 0.0, 1.0, 36.4, 114.05)">
    <path d="M-12.85 -33.8 L-5.7 -35.95 -5.0 -36.6 -2.5 -33.55 2.65 -24.55 3.9 -24.9 9.05 -28.9 9.05 -28.75 15.35 -26.1 11.15 -17.9 9.8 -12.5 10.6 -6.25 14.1 0.0 -13.75 0.0 -7.5 -13.85 -6.5 -21.2 -7.5 -25.8 -12.85 -33.8 M4.7 -7.75 L2.65 -11.6 4.7 -7.75 M7.65 -23.25 L6.0 -19.55 7.65 -23.25 M-2.7 -16.95 L-2.7 -10.9 -5.65 -6.25 -2.7 -10.9 -2.7 -16.95" fill="#7f634e" fill-rule="evenodd" stroke="none"/>
    <path d="M-12.85 -33.8 L-13.1 -33.75 -17.7 -33.75 -21.4 -32.25 -25.25 -33.75 -29.5 -29.9 -33.0 -30.8 -33.0 -35.95 -29.5 -42.95 -32.8 -45.75 -32.8 -51.1 -31.55 -58.45 -35.4 -63.65 -32.8 -72.5 -35.4 -73.4 -35.25 -73.55 -30.25 -79.65 -30.3 -79.65 -35.4 -83.75 -35.2 -83.8 -23.95 -88.5 -23.95 -88.65 -24.5 -95.9 -22.7 -99.95 -16.4 -99.95 -14.2 -105.5 -14.15 -105.5 -4.25 -103.45 -2.6 -104.75 0.55 -110.85 0.6 -110.85 17.7 -106.05 20.85 -113.05 27.5 -105.1 34.3 -103.45 37.25 -97.95 35.1 -92.15 34.4 -90.2 34.3 -90.0 38.15 -88.5 43.15 -77.25 39.3 -75.05 37.6 -67.85 39.3 -61.1 39.3 -61.05 35.6 -53.5 39.3 -45.8 39.3 -45.75 36.75 -41.9 36.7 -41.85 36.7 -34.5 31.7 -31.7 31.7 -26.55 19.0 -24.55 15.35 -26.1 9.05 -28.75 9.05 -28.9 7.55 -35.95 3.5 -34.3 -2.6 -38.9 -5.0 -36.6 -5.7 -35.95 -12.85 -33.8" fill="url(#gradient0)" fill-rule="evenodd" stroke="none"/>
    <path d="M6.0 -19.55 L7.65 -23.25 M2.65 -11.6 L4.7 -7.75" fill="none" stroke="#6e5545" stroke-linecap="round" stroke-linejoin="round" stroke-width="2.0"/>
    <path d="M-5.65 -6.25 L-2.7 -10.9 -2.7 -16.95" fill="none" stroke="#63463b" stroke-linecap="round" stroke-linejoin="round" stroke-width="2.0"/>
    <path d="M15.35 -26.1 L11.15 -17.9 9.8 -12.5 10.6 -6.25 14.1 0.0 -13.75 0.0 -7.5 -13.85 -6.5 -21.2 -7.5 -25.8 -12.85 -33.8 M9.05 -28.9 L3.9 -24.9 2.65 -24.55 -2.5 -33.55 -5.0 -36.6" fill="none" stroke="#352926" stroke-linecap="round" stroke-linejoin="round" stroke-width="2.0"/>
    <path d="M15.35 -26.1 L19.0 -24.55 31.7 -26.55 31.7 -31.7 36.7 -34.5 36.7 -41.85 36.75 -41.9 39.3 -45.75 39.3 -45.8 35.6 -53.5 39.3 -61.05 39.3 -61.1 37.6 -67.85 39.3 -75.05 43.15 -77.25 38.15 -88.5 34.3 -90.0 34.4 -90.2 35.1 -92.15 37.25 -97.95 34.3 -103.45 27.5 -105.1 20.85 -113.05 17.7 -106.05 0.6 -110.85 0.55 -110.85 -2.6 -104.75 -4.25 -103.45 -14.15 -105.5 -14.2 -105.5 -16.4 -99.95 -22.7 -99.95 -24.5 -95.9 -23.95 -88.65 -23.95 -88.5 -35.2 -83.8 -35.4 -83.75 -30.3 -79.65 -30.25 -79.65 -35.25 -73.55 -35.4 -73.4 -32.8 -72.5 -35.4 -63.65 -31.55 -58.45 -32.8 -51.1 -32.8 -45.75 -29.5 -42.95 -33.0 -35.95 -33.0 -30.8 -29.5 -29.9 -25.25 -33.75 -21.4 -32.25 -17.7 -33.75 -13.1 -33.75 -12.85 -33.8 -5.7 -35.95 -5.0 -36.6 -2.6 -38.9 3.5 -34.3 7.55 -35.95 9.05 -28.9 9.05 -28.75 15.35 -26.1" fill="none" stroke="#16201c" stroke-linecap="round" stroke-linejoin="round" stroke-width="2.0"/>
    <path d="M13.9 -68.95 L12.25 -63.8 9.5 -67.7 13.9 -68.95 M14.3 -93.15 L25.7 -90.2 22.4 -85.55 20.0 -89.1 15.75 -88.15 14.3 -93.15 M24.8 -52.55 L27.2 -49.05 22.4 -47.4 24.25 -39.85 17.25 -42.25 14.3 -40.0 9.5 -42.05 24.8 -52.55 M-4.0 -57.9 L-0.5 -48.7 -5.1 -51.25 -7.1 -45.2 -13.55 -50.9 -18.0 -49.6 -18.2 -54.95 -22.95 -56.45 -17.8 -59.95 -4.0 -57.9 M-0.65 -83.9 L-10.45 -80.05 -11.7 -83.9 -0.65 -83.9" fill="#1d2e20" fill-opacity="0.2" fill-rule="evenodd" stroke="none"/>
    <path d="M9.5 -67.7 L12.25 -63.8 13.9 -68.95 M14.3 -93.15 L15.75 -88.15 20.0 -89.1 22.4 -85.55 25.7 -90.2 M9.5 -42.05 L14.3 -40.0 17.25 -42.25 24.25 -39.85 22.4 -47.4 27.2 -49.05 24.8 -52.55 M-17.8 -59.95 L-22.95 -56.45 -18.2 -54.95 -18.0 -49.6 -13.55 -50.9 -7.1 -45.2 -5.1 -51.25 -0.5 -48.7 -4.0 -57.9 M-11.7 -83.9 L-10.45 -80.05 -0.65 -83.9" fill="none" stroke="#1d2b24" stroke-linecap="round" stroke-linejoin="round" stroke-width="2.0"/>
  </g>
  <defs>
    <linearGradient gradientTransform="matrix(0.0, -0.0851, 0.054, 0.0, 3.85, -68.6)" gradientUnits="userSpaceOnUse" id="gradient0" spreadMethod="pad" x1="-819.2" x2="819.2">
      <stop offset="0.0" stop-color="#1e432f"/>
      <stop offset="0.25882352941176473" stop-color="#2e5a3c"/>
      <stop offset="0.5058823529411764" stop-color="#3b6b46"/>
      <stop offset="0.7490196078431373" stop-color="#47794f"/>
      <stop offset="1.0" stop-color="#4c7f52"/>
    </linearGradient>
  </defs>
</svg>
