<?xml version="1.0" encoding="UTF-8" standalone="no"?>
<svg xmlns:xlink="http://www.w3.org/1999/xlink" height="72.1px" width="72.1px" xmlns="http://www.w3.org/2000/svg">
  <g transform="matrix(1.0, 0.0, 0.0, 1.0, 36.5, 35.55)">
    <path d="M7.05 -2.25 Q10.05 -1.3 10.05 0.05 10.05 1.4 7.05 2.3 4.25 3.25 0.0 3.25 -4.25 3.25 -7.2 2.3 -10.05 1.4 -10.05 0.05 -10.05 -1.3 -7.2 -2.25 -4.25 -3.15 0.0 -3.15 4.25 -3.15 7.05 -2.25" fill="#ffffff" fill-rule="evenodd" stroke="none"/>
    <path d="M7.05 -2.25 Q10.05 -1.3 10.05 0.05 10.05 1.4 7.05 2.3 4.25 3.25 0.0 3.25 -4.25 3.25 -7.2 2.3 -10.05 1.4 -10.05 0.05 -10.05 -1.3 -7.2 -2.25 -4.25 -3.15 0.0 -3.15 4.25 -3.15 7.05 -2.25 Z" fill="none" stroke="#ffff00" stroke-linecap="round" stroke-linejoin="round" stroke-width="1.0"/>
    <path d="M-0.45 -35.55 Q14.5 -35.55 25.05 -25.0 35.6 -14.45 35.6 0.5 35.6 15.45 25.05 26.0 14.5 36.55 -0.45 36.55 -15.4 36.55 -25.95 26.0 -36.5 15.45 -36.5 0.5 -36.5 -14.45 -25.95 -25.0 -15.4 -35.55 -0.45 -35.55" fill="url(#gradient0)" fill-rule="evenodd" stroke="none"/>
  </g>
  <defs>
    <radialGradient cx="0" cy="0" gradientTransform="matrix(0.0443, 0.0, 0.0, 0.0443, -0.45, 0.5)" gradientUnits="userSpaceOnUse" id="gradient0" r="819.2" spreadMethod="pad">
      <stop offset="0.0" stop-color="#ffffff" stop-opacity="0.4"/>
      <stop offset="1.0" stop-color="#ffffff" stop-opacity="0.0"/>
    </radialGradient>
  </defs>
</svg>
