<?xml version="1.0" encoding="UTF-8" standalone="no"?>
<svg xmlns:ffdec="https://www.free-decompiler.com/flash" xmlns:xlink="http://www.w3.org/1999/xlink" ffdec:objectType="shape" height="22.55px" width="14.5px" xmlns="http://www.w3.org/2000/svg">
  <g transform="matrix(1.0, 0.0, 0.0, 1.0, 8.85, 3.1)">
    <path d="M-0.6 0.15 L-0.85 -2.2 Q0.45 -2.65 2.15 -1.4 L3.2 -1.45 4.0 -2.4 Q4.6 -2.9 5.1 -1.9 5.2 3.2 3.1 7.5 2.15 9.1 2.9 10.7 L3.65 13.05 Q4.05 14.85 2.75 15.1 L0.95 15.5 Q-1.3 15.05 -1.95 13.6 0.15 7.95 1.0 2.45 1.05 0.3 -0.6 0.15" fill="#605c82" fill-rule="evenodd" stroke="none"/>
    <path d="M0.95 15.5 L1.2 17.2 Q1.25 18.2 -0.3 18.5 L-4.5 18.95 -5.3 12.1 Q-5.3 7.85 -3.1 6.35 0.5 5.15 -0.6 0.15 1.05 0.3 1.0 2.45 0.15 7.95 -1.95 13.6 -1.3 15.05 0.95 15.5" fill="url(#gradient0)" fill-rule="evenodd" stroke="none"/>
    <path d="M-0.6 0.15 L-0.85 -2.2 Q0.45 -2.65 2.15 -1.4 L3.2 -1.45 4.0 -2.4 Q4.6 -2.9 5.1 -1.9 5.2 3.2 3.1 7.5 2.15 9.1 2.9 10.7 L3.65 13.05 Q4.05 14.85 2.75 15.1 L0.95 15.5 Q-1.3 15.05 -1.95 13.6 0.15 7.95 1.0 2.45 1.05 0.3 -0.6 0.15" fill="none" stroke="#3c383f" stroke-linecap="round" stroke-linejoin="round" stroke-width="1.1"/>
    <path d="M0.95 15.5 L1.2 17.2 Q1.25 18.2 -0.3 18.5 L-4.5 18.95 -5.3 12.1 Q-5.3 7.85 -3.1 6.35 0.5 5.15 -0.6 0.15" fill="none" stroke="#38504a" stroke-linecap="round" stroke-linejoin="round" stroke-width="1.0"/>
    <path d="M-4.15 15.25 Q-3.65 16.55 -4.7 17.3 -6.3 16.25 -7.3 14.7 -8.05 13.45 -8.35 11.85 L-7.5 12.95 Q-6.1 14.45 -4.15 15.25 M-4.8 11.15 Q-7.8 8.8 -8.3 5.65 -6.3 8.55 -4.15 8.85 -3.55 10.35 -4.8 11.15" fill="#585650" fill-rule="evenodd" stroke="none"/>
    <path d="M-4.15 15.25 Q-3.65 16.55 -4.7 17.3 -6.3 16.25 -7.3 14.7 -8.05 13.45 -8.35 11.85 L-7.5 12.95 Q-6.1 14.45 -4.15 15.25 M-4.8 11.15 Q-7.8 8.8 -8.3 5.65 -6.3 8.55 -4.15 8.85 -3.55 10.35 -4.8 11.15 Z" fill="none" stroke="#41403f" stroke-linecap="round" stroke-linejoin="round" stroke-width="1.0"/>
  </g>
  <defs>
    <linearGradient gradientTransform="matrix(0.0045, 0.0, 0.0, 0.0112, -1.8, 9.4)" gradientUnits="userSpaceOnUse" id="gradient0" spreadMethod="pad" x1="-819.2" x2="819.2">
      <stop offset="0.0" stop-color="#3a99a3"/>
      <stop offset="1.0" stop-color="#605c82"/>
    </linearGradient>
  </defs>
</svg>
