<?xml version="1.0" encoding="UTF-8" standalone="no"?>
<svg xmlns:ffdec="https://www.free-decompiler.com/flash" xmlns:xlink="http://www.w3.org/1999/xlink" ffdec:objectType="shape" height="12.85px" width="13.0px" xmlns="http://www.w3.org/2000/svg">
  <g transform="matrix(1.0, 0.0, 0.0, 1.0, 6.4, 6.95)">
    <path d="M-0.5 -6.3 L4.8 -6.05 Q7.05 -5.4 5.45 0.25 3.85 5.9 0.6 5.35 -2.7 4.75 -4.3 2.05 -5.95 -0.7 -5.9 -2.15 -5.85 -3.6 -4.7 -4.75 -3.6 -5.9 -0.5 -6.3" fill="#d3b367" fill-rule="evenodd" stroke="none"/>
    <path d="M-0.5 -6.3 L4.8 -6.05 Q7.05 -5.4 5.45 0.25 3.85 5.9 0.6 5.35 -2.7 4.75 -4.3 2.05 -5.95 -0.7 -5.9 -2.15 -5.85 -3.6 -4.7 -4.75 -3.6 -5.9 -0.5 -6.3 Z" fill="none" stroke="#504630" stroke-linecap="round" stroke-linejoin="round" stroke-width="1.0"/>
  </g>
</svg>
