<?xml version="1.0" encoding="UTF-8" standalone="no"?>
<svg xmlns:xlink="http://www.w3.org/1999/xlink" height="8.7px" width="12.6px" xmlns="http://www.w3.org/2000/svg">
  <g transform="matrix(1.0, 0.0, 0.0, 1.0, 6.3, 4.35)">
    <path d="M-1.1 1.55 L-2.05 2.9 -5.8 1.3 -5.4 -1.9 -3.0 -3.85 0.7 -3.35 1.85 -1.3 1.3 1.2 -0.55 0.8 -1.1 1.55" fill="#a6ff4d" fill-rule="evenodd" stroke="none"/>
    <path d="M1.85 -1.3 L4.55 -1.3 5.8 0.85 4.05 2.7 2.65 1.95 0.85 2.0 -0.4 2.05 -1.1 1.55 -0.55 0.8 1.3 1.2 1.85 -1.3" fill="#333333" fill-rule="evenodd" stroke="none"/>
    <path d="M-1.1 1.55 L-2.05 2.9 -5.8 1.3 -5.4 -1.9 -3.0 -3.85 0.7 -3.35 1.85 -1.3 1.3 1.2 -0.55 0.8 -1.1 1.55" fill="none" stroke="#59b101" stroke-linecap="round" stroke-linejoin="round" stroke-width="1.0"/>
    <path d="M1.85 -1.3 L4.55 -1.3 5.8 0.85 4.05 2.7 2.65 1.95 0.85 2.0 1.05 3.5 M-0.4 2.05 L-0.4 3.85 M-0.4 2.05 L-1.1 1.55 M0.85 2.0 L-0.4 2.05" fill="none" stroke="#000000" stroke-linecap="round" stroke-linejoin="round" stroke-width="1.0"/>
  </g>
</svg>
