<?xml version="1.0" encoding="UTF-8" standalone="no"?>
<svg xmlns:ffdec="https://www.free-decompiler.com/flash" xmlns:xlink="http://www.w3.org/1999/xlink" ffdec:objectType="shape" height="30.5px" width="17.65px" xmlns="http://www.w3.org/2000/svg">
  <g transform="matrix(1.0, 0.0, 0.0, 1.0, 0.5, 0.5)">
    <path d="M8.25 0.0 Q10.3 4.45 16.35 5.6 17.1 10.65 16.0 13.85 14.05 19.75 11.1 20.7 11.6 15.8 8.15 10.9 7.05 9.35 3.15 8.5 2.4 5.8 3.15 3.45 4.65 0.25 8.25 0.0" fill="url(#gradient0)" fill-rule="evenodd" stroke="none"/>
    <path d="M3.3 23.0 Q5.95 24.95 9.4 21.3 10.2 23.5 12.55 23.95 11.85 30.2 8.35 29.4 4.8 28.55 3.3 25.25 L3.3 23.0" fill="url(#gradient1)" fill-rule="evenodd" stroke="none"/>
    <path d="M9.4 21.3 Q5.95 24.95 3.3 23.0 2.4 22.35 1.6 21.1 -1.3 15.35 1.05 9.5 3.2 9.7 6.3 11.55 10.15 17.35 9.4 21.3" fill="url(#gradient2)" fill-rule="evenodd" stroke="none"/>
    <path d="M8.25 0.0 Q10.3 4.45 16.35 5.6 17.1 10.65 16.0 13.85 14.05 19.75 11.1 20.7 11.6 15.8 8.15 10.9 7.05 9.35 3.15 8.5 2.4 5.8 3.15 3.45 4.65 0.25 8.25 0.0 M9.4 21.3 Q5.95 24.95 3.3 23.0 L3.3 25.25 Q4.8 28.55 8.35 29.4 11.85 30.2 12.55 23.95 10.2 23.5 9.4 21.3 10.15 17.35 6.3 11.55 3.2 9.7 1.05 9.5 -1.3 15.35 1.6 21.1 2.4 22.35 3.3 23.0" fill="none" stroke="#040a2e" stroke-linecap="round" stroke-linejoin="round" stroke-width="1.0"/>
    <path d="M13.5 13.65 Q14.85 14.8 13.65 16.8 12.7 17.15 12.0 15.0 12.2 12.55 13.5 13.65 M14.45 12.9 Q13.9 13.35 13.15 12.1 12.85 10.55 13.8 11.05 14.85 11.5 14.45 12.9 M2.6 13.3 Q4.65 14.25 3.85 17.2 2.75 17.9 1.2 15.45 0.55 12.35 2.6 13.3 M3.75 18.5 Q5.15 19.15 4.6 21.2 3.85 21.7 2.8 20.0 2.35 17.85 3.75 18.5 M7.4 1.7 Q9.45 2.65 8.65 5.6 7.55 6.3 6.0 3.85 5.35 0.75 7.4 1.7 M4.45 4.4 Q6.0 4.65 6.0 6.45 5.45 7.05 4.45 6.0 3.5 4.35 4.45 4.4" fill="#152569" fill-opacity="0.29803923" fill-rule="evenodd" stroke="none"/>
  </g>
  <defs>
    <radialGradient cx="0" cy="0" fx="32.0" fy="0" gradientTransform="matrix(0.0272, -0.0072, 0.0096, 0.036, 18.65, 5.25)" gradientUnits="userSpaceOnUse" id="gradient0" r="819.2" spreadMethod="pad">
      <stop offset="0.0" stop-color="#49e571"/>
      <stop offset="0.27450980392156865" stop-color="#2cbb87"/>
      <stop offset="0.5019607843137255" stop-color="#2082c6"/>
      <stop offset="0.9058823529411765" stop-color="#0400ff"/>
      <stop offset="1.0" stop-color="#ff1305"/>
    </radialGradient>
    <radialGradient cx="0" cy="0" gradientTransform="matrix(0.0195, 0.0, 0.0, 0.0195, 13.1, 21.3)" gradientUnits="userSpaceOnUse" id="gradient1" r="819.2" spreadMethod="pad">
      <stop offset="0.0" stop-color="#3f65ff"/>
      <stop offset="0.5333333333333333" stop-color="#271bc4"/>
      <stop offset="1.0" stop-color="#b41108"/>
    </radialGradient>
    <radialGradient cx="0" cy="0" gradientTransform="matrix(0.0222, -0.0033, 0.0033, 0.0222, 13.1, 12.3)" gradientUnits="userSpaceOnUse" id="gradient2" r="819.2" spreadMethod="pad">
      <stop offset="0.0" stop-color="#49e571"/>
      <stop offset="0.27450980392156865" stop-color="#2cbb87"/>
      <stop offset="0.5019607843137255" stop-color="#2082c6"/>
      <stop offset="0.9058823529411765" stop-color="#0400ff"/>
      <stop offset="1.0" stop-color="#ff1305"/>
    </radialGradient>
  </defs>
</svg>
