<?xml version="1.0" encoding="UTF-8" standalone="no"?>
<svg xmlns:ffdec="https://www.free-decompiler.com/flash" xmlns:xlink="http://www.w3.org/1999/xlink" ffdec:objectType="shape" height="72.1px" width="72.1px" xmlns="http://www.w3.org/2000/svg">
  <g transform="matrix(1.0, 0.0, 0.0, 1.0, 36.5, 35.55)">
    <path d="M-0.45 -35.55 Q14.5 -35.55 25.05 -25.0 35.6 -14.45 35.6 0.5 35.6 15.45 25.05 26.0 14.5 36.55 -0.45 36.55 -15.4 36.55 -25.95 26.0 -36.5 15.45 -36.5 0.5 -36.5 -14.45 -25.95 -25.0 -15.4 -35.55 -0.45 -35.55" fill="url(#gradient0)" fill-rule="evenodd" stroke="none"/>
    <path d="M8.4 -4.35 Q11.95 -2.55 11.95 0.05 11.95 2.6 8.4 4.35 5.05 6.15 0.0 6.15 -5.05 6.15 -8.55 4.35 -11.95 2.6 -11.95 0.05 -11.95 -2.55 -8.55 -4.35 -5.05 -6.05 0.0 -6.05 5.05 -6.05 8.4 -4.35" fill="#ffffff" fill-rule="evenodd" stroke="none"/>
    <path d="M8.4 -4.35 Q11.95 -2.55 11.95 0.05 11.95 2.6 8.4 4.35 5.05 6.15 0.0 6.15 -5.05 6.15 -8.55 4.35 -11.95 2.6 -11.95 0.05 -11.95 -2.55 -8.55 -4.35 -5.05 -6.05 0.0 -6.05 5.05 -6.05 8.4 -4.35 Z" fill="none" stroke="#6fff7c" stroke-linecap="round" stroke-linejoin="round" stroke-width="1.0"/>
  </g>
  <defs>
    <radialGradient cx="0" cy="0" gradientTransform="matrix(0.0443, 0.0, 0.0, 0.0443, -0.45, 0.5)" gradientUnits="userSpaceOnUse" id="gradient0" r="819.2" spreadMethod="pad">
      <stop offset="0.0" stop-color="#d5ffd9" stop-opacity="0.7019608"/>
      <stop offset="1.0" stop-color="#d5ffd5" stop-opacity="0.0"/>
    </radialGradient>
  </defs>
</svg>
