<?xml version="1.0" encoding="UTF-8" standalone="no"?>
<svg xmlns:ffdec="https://www.free-decompiler.com/flash" xmlns:xlink="http://www.w3.org/1999/xlink" ffdec:objectType="shape" height="24.0px" width="13.9px" xmlns="http://www.w3.org/2000/svg">
  <g transform="matrix(1.0, 0.0, 0.0, 1.0, 6.5, 5.15)">
    <path d="M-1.45 2.4 L-0.4 -0.35 Q0.3 -1.55 0.65 -1.3 0.7 -0.7 2.1 -1.75 L3.55 -1.7 3.95 -0.4 Q4.3 0.2 4.25 1.2 L3.95 1.95 Q3.65 2.7 3.65 3.15 L3.65 5.95 4.3 7.5 4.7 8.3 Q1.75 14.6 -0.25 8.9 -1.0 7.05 -1.35 4.5 -1.7 2.1 -1.45 2.4" fill="#2f313a" fill-rule="evenodd" stroke="none"/>
    <path d="M-1.45 2.4 L-0.4 -0.35 Q0.3 -1.55 0.65 -1.3 0.7 -0.7 2.1 -1.75 L3.55 -1.7 3.95 -0.4 Q4.3 0.2 4.25 1.2 L3.95 1.95 Q3.65 2.7 3.65 3.15 L3.65 5.95 4.3 7.5 4.7 8.3 Q1.75 14.6 -0.25 8.9 -1.0 7.05 -1.35 4.5 -1.7 2.1 -1.45 2.4 Z" ffdec:has-small-stroke="true" ffdec:original-stroke-width="0.95" fill="none" stroke="#20232a" stroke-linecap="round" stroke-linejoin="round" stroke-width="1.0"/>
    <path d="M-2.45 10.65 Q-1.3 10.8 3.1 14.75 L1.6 14.9 Q1.2 14.85 0.65 15.55 0.15 16.2 -0.7 16.15 -1.95 16.0 -2.95 16.55 -4.0 17.05 -5.45 18.4 L-5.55 17.15 Q-6.1 14.75 -5.8 14.05 -4.7 11.15 -5.15 9.2 L-4.25 9.9 Q-3.25 10.6 -2.45 10.65" fill="url(#gradient0)" fill-rule="evenodd" stroke="none"/>
    <path d="M-2.45 10.65 Q-1.3 10.8 3.1 14.75 L1.6 14.9 Q1.2 14.85 0.65 15.55 0.15 16.2 -0.7 16.15 -1.95 16.0 -2.95 16.55 -4.0 17.05 -5.45 18.4 L-5.55 17.15 Q-6.1 14.75 -5.8 14.05 -4.7 11.15 -5.15 9.2 L-4.25 9.9 Q-3.25 10.6 -2.45 10.65 Z" ffdec:has-small-stroke="true" ffdec:original-stroke-width="0.95" fill="none" stroke="#2c2c2d" stroke-linecap="round" stroke-linejoin="round" stroke-width="1.0"/>
    <path d="M-3.9 11.0 Q-4.55 10.7 -4.75 9.5 -4.9 8.4 -4.7 7.8 L-1.95 7.9 1.1 8.15 3.65 5.6 3.25 7.4 Q2.8 9.55 2.9 10.55 2.9 10.85 3.85 12.1 L4.8 13.45 Q3.35 15.6 2.6 15.9 L1.35 16.0 Q-1.6 15.45 -1.95 14.05 -2.35 12.2 -3.4 11.55 L-3.9 11.0" fill="#4b4b4b" fill-rule="evenodd" stroke="none"/>
    <path d="M-3.9 11.0 Q-4.55 10.7 -4.75 9.5 -4.9 8.4 -4.7 7.8 L-1.95 7.9 1.1 8.15 3.65 5.6 3.25 7.4 Q2.8 9.55 2.9 10.55 2.9 10.85 3.85 12.1 L4.8 13.45 Q3.35 15.6 2.6 15.9 L1.35 16.0 Q-1.6 15.45 -1.95 14.05 -2.35 12.2 -3.4 11.55 L-3.9 11.0 Z" ffdec:has-small-stroke="true" ffdec:original-stroke-width="0.95" fill="none" stroke="#2d2d32" stroke-linecap="round" stroke-linejoin="round" stroke-width="1.0"/>
    <path d="M-0.95 8.1 L-1.4 7.95 Q-4.9 7.0 -3.45 6.5 L-3.2 6.1 -2.5 5.0 Q-2.45 4.7 -2.75 4.5 -3.0 4.35 -2.9 4.05 -2.5 2.55 -2.65 0.9 -2.85 -0.95 -3.7 -2.45 L-1.75 -2.45 1.5 -2.6 1.45 -2.35 1.25 -1.85 Q0.65 1.0 0.65 2.2 0.65 4.4 1.95 6.35 L0.05 7.7 Q1.35 8.6 -0.75 8.15 L-0.95 8.1 -0.95 7.6 Q-0.5 6.2 -0.65 7.2 L0.05 7.7 -0.55 8.05 -0.75 8.15 -0.55 8.05 0.05 7.7 -0.65 7.2 Q-0.5 6.2 -0.95 7.6 L-0.95 8.1" fill="url(#gradient1)" fill-rule="evenodd" stroke="none"/>
    <path d="M-0.95 8.1 L-1.4 7.95 Q-4.9 7.0 -3.45 6.5 L-3.2 6.1 -2.5 5.0 Q-2.45 4.7 -2.75 4.5 -3.0 4.35 -2.9 4.05 -2.5 2.55 -2.65 0.9 -2.85 -0.95 -3.7 -2.45 L-1.75 -2.45 1.5 -2.6 1.45 -2.35 1.25 -1.85 Q0.65 1.0 0.65 2.2 0.65 4.4 1.95 6.35 L0.05 7.7 Q1.35 8.6 -0.75 8.15 L-0.95 8.1 -0.95 7.6 Q-0.5 6.2 -0.65 7.2 L0.05 7.7 -0.55 8.05 -0.75 8.15" ffdec:has-small-stroke="true" ffdec:original-stroke-width="0.95" fill="none" stroke="#2b2b2b" stroke-linecap="round" stroke-linejoin="round" stroke-width="1.0"/>
    <path d="M-2.85 3.85 Q-2.3 7.7 3.9 6.15 L3.7 9.3 Q3.45 11.45 3.9 12.2 L5.25 13.0 Q6.1 13.2 6.2 13.65 L6.5 14.85 Q6.7 15.65 6.4 15.95 5.45 16.4 3.35 16.45 L2.45 15.9 1.4 13.65 Q0.25 11.35 -4.35 8.6 -4.7 6.7 -4.2 5.7 L-2.85 3.85" fill="url(#gradient2)" fill-rule="evenodd" stroke="none"/>
    <path d="M-2.85 3.85 Q-2.3 7.7 3.9 6.15 L3.7 9.3 Q3.45 11.45 3.9 12.2 L5.25 13.0 Q6.1 13.2 6.2 13.65 L6.5 14.85 Q6.7 15.65 6.4 15.95 5.45 16.4 3.35 16.45 L2.45 15.9 1.4 13.65 Q0.25 11.35 -4.35 8.6 -4.7 6.7 -4.2 5.7 L-2.85 3.85 Z" ffdec:has-small-stroke="true" ffdec:original-stroke-width="0.95" fill="none" stroke="#553f1e" stroke-linecap="round" stroke-linejoin="round" stroke-width="1.0"/>
    <path d="M-2.8 0.15 Q-4.1 -0.5 -4.2 -1.0 -3.95 -1.8 -3.95 -2.55 L-1.0 -2.8 1.75 -2.75 2.75 -3.45 4.05 -4.25 Q4.8 -4.75 5.05 -4.7 6.25 0.8 3.8 3.3 L2.75 3.5 Q2.0 3.5 1.05 2.5 0.65 1.0 -0.6 0.25 L-2.8 0.15" fill="url(#gradient3)" fill-rule="evenodd" stroke="none"/>
    <path d="M-2.8 0.15 L-0.6 0.25 Q0.65 1.0 1.05 2.5 2.0 3.5 2.75 3.5 L3.8 3.3 Q6.25 0.8 5.05 -4.7 4.8 -4.75 4.05 -4.25 L2.75 -3.45 1.75 -2.75 -1.0 -2.8 -3.95 -2.55 Q-3.95 -1.8 -4.2 -1.0 -4.1 -0.5 -2.8 0.15 Z" ffdec:has-small-stroke="true" ffdec:original-stroke-width="0.95" fill="none" stroke="#533f22" stroke-linecap="butt" stroke-linejoin="miter-clip" stroke-miterlimit="11.33984375" stroke-width="1.0"/>
    <path d="M4.0 6.65 Q5.15 7.3 5.35 9.2 L5.75 10.25 Q5.95 10.95 5.35 12.0 4.8 13.1 4.45 12.9 2.85 12.15 2.15 11.25 1.65 10.55 1.5 9.45 1.35 7.75 2.2 6.7 L2.6 6.4 2.6 6.65 Q3.1 6.1 4.0 6.65" fill="url(#gradient4)" fill-rule="evenodd" stroke="none"/>
    <path d="M4.0 6.65 Q5.15 7.3 5.35 9.2 L5.75 10.25 Q5.95 10.95 5.35 12.0 4.8 13.1 4.45 12.9 2.85 12.15 2.15 11.25 1.65 10.55 1.5 9.45 1.35 7.75 2.2 6.7 L2.6 6.4 2.6 6.65 Q3.1 6.1 4.0 6.65 Z" ffdec:has-small-stroke="true" ffdec:original-stroke-width="0.95" fill="none" stroke="#2f2f2f" stroke-linecap="butt" stroke-linejoin="miter-clip" stroke-miterlimit="11.33984375" stroke-width="1.0"/>
    <path d="M-5.55 18.15 Q-5.6 17.35 -6.0 15.7 -6.15 14.85 -5.95 14.4 -4.7 11.7 -4.85 8.7 -4.5 8.5 -4.55 7.65 L-4.7 7.0 -4.45 6.0 -3.75 4.9 -3.4 4.75 -3.1 4.3 -2.8 3.95 Q-2.55 3.05 -2.55 1.8 -2.55 0.3 -3.05 0.15 -4.0 -0.45 -4.1 -1.05 -4.25 -1.6 -3.7 -2.65" ffdec:has-small-stroke="true" ffdec:original-stroke-width="0.95" fill="none" stroke="#000000" stroke-linecap="round" stroke-linejoin="round" stroke-opacity="0.18039216" stroke-width="1.0"/>
    <path d="M6.95 15.65 L6.4 14.35 Q6.2 13.55 5.6 13.3 5.35 12.3 5.65 11.65 L5.7 10.65 5.45 9.6 4.85 8.0 4.3 6.85 3.5 5.25 Q3.25 4.45 3.7 3.5 L4.2 2.8 4.8 2.05 4.9 1.3 Q5.0 0.65 5.2 0.45 5.9 -0.55 5.1 -4.6" ffdec:has-small-stroke="true" ffdec:original-stroke-width="0.95" fill="none" stroke="#010100" stroke-linecap="round" stroke-linejoin="round" stroke-opacity="0.22352941" stroke-width="1.0"/>
  </g>
  <defs>
    <radialGradient cx="0" cy="0" gradientTransform="matrix(-0.0169, 0.0012, 0.0021, -0.0244, -6.1, 16.0)" gradientUnits="userSpaceOnUse" id="gradient0" r="819.2" spreadMethod="pad">
      <stop offset="0.0" stop-color="#363a43"/>
      <stop offset="1.0" stop-color="#dbdce1"/>
    </radialGradient>
    <radialGradient cx="0" cy="0" gradientTransform="matrix(-0.0238, -9.0E-4, 0.006, -0.0266, -6.3, 3.75)" gradientUnits="userSpaceOnUse" id="gradient1" r="819.2" spreadMethod="pad">
      <stop offset="0.0" stop-color="#363a43"/>
      <stop offset="1.0" stop-color="#dbdce1"/>
    </radialGradient>
    <radialGradient cx="0" cy="0" gradientTransform="matrix(-0.0135, 3.0E-4, 0.0012, -0.0212, -8.7, 10.8)" gradientUnits="userSpaceOnUse" id="gradient2" r="819.2" spreadMethod="pad">
      <stop offset="0.0" stop-color="#7c3b18"/>
      <stop offset="1.0" stop-color="#bda131"/>
    </radialGradient>
    <radialGradient cx="0" cy="0" gradientTransform="matrix(-0.0283, 0.005, -6.0E-4, -0.0178, -13.6, -0.05)" gradientUnits="userSpaceOnUse" id="gradient3" r="819.2" spreadMethod="pad">
      <stop offset="0.0" stop-color="#7c3b18"/>
      <stop offset="1.0" stop-color="#bda131"/>
    </radialGradient>
    <radialGradient cx="0" cy="0" gradientTransform="matrix(-0.0152, -0.0024, 0.0051, -0.0195, 9.7, 10.75)" gradientUnits="userSpaceOnUse" id="gradient4" r="819.2" spreadMethod="pad">
      <stop offset="0.0" stop-color="#1f1f1f"/>
      <stop offset="1.0" stop-color="#636c6a"/>
    </radialGradient>
  </defs>
</svg>
