<?xml version="1.0" encoding="UTF-8" standalone="no"?>
<svg xmlns:xlink="http://www.w3.org/1999/xlink" height="17.75px" width="32.35px" xmlns="http://www.w3.org/2000/svg">
  <g transform="matrix(1.0, 0.0, 0.0, 1.0, 16.15, 17.25)">
    <path d="M-4.85 -7.35 L-9.95 -7.35 -8.45 -11.1 -4.8 -14.1 0.15 -15.2 4.95 -14.1 8.65 -11.1 10.15 -7.35 5.0 -7.35 -4.85 -7.35 M7.9 -3.05 L10.3 -5.1 13.15 -5.1 15.7 0.0 9.3 0.0 7.9 -3.05 M1.75 0.0 L-1.65 0.0 -1.65 -4.15 -1.65 -5.1 1.75 -5.1 1.75 -4.15 1.75 0.0 M-9.15 0.0 L-15.65 0.0 -13.05 -5.1 -10.2 -5.1 -7.8 -3.05 -9.15 0.0 M1.65 -9.1 Q2.35 -9.1 2.85 -9.6 3.35 -10.15 3.35 -10.85 3.35 -11.55 2.85 -12.05 2.35 -12.55 1.65 -12.55 L-1.45 -12.55 Q-2.15 -12.55 -2.7 -12.05 -3.2 -11.55 -3.2 -10.85 -3.2 -10.15 -2.7 -9.6 -2.15 -9.1 -1.45 -9.1 L1.65 -9.1" fill="#cdcccd" fill-rule="evenodd" stroke="none"/>
    <path d="M1.65 -9.1 L-1.45 -9.1 Q-2.15 -9.1 -2.7 -9.6 -3.2 -10.15 -3.2 -10.85 -3.2 -11.55 -2.7 -12.05 -2.15 -12.55 -1.45 -12.55 L1.65 -12.55 Q2.35 -12.55 2.85 -12.05 3.35 -11.55 3.35 -10.85 3.35 -10.15 2.85 -9.6 2.35 -9.1 1.65 -9.1" fill="#2b7bbf" fill-rule="evenodd" stroke="none"/>
    <path d="M-4.85 -7.35 L5.0 -7.35 5.0 -4.15 1.75 -4.15 1.75 -5.1 -1.65 -5.1 -1.65 -4.15 -4.85 -4.15 -4.85 -7.35" fill="#3c3c3c" fill-rule="evenodd" stroke="none"/>
    <path d="M5.0 -4.15 L7.4 -4.15 7.9 -3.05 9.3 0.0 1.75 0.0 1.75 -4.15 5.0 -4.15 M-1.65 0.0 L-9.15 0.0 -7.8 -3.05 -7.3 -4.15 -4.85 -4.15 -1.65 -4.15 -1.65 0.0" fill="#6e6e6e" fill-rule="evenodd" stroke="none"/>
    <path d="M4.95 -14.1 L6.1 -16.75 M1.65 -9.1 L-1.45 -9.1 Q-2.15 -9.1 -2.7 -9.6 -3.2 -10.15 -3.2 -10.85 -3.2 -11.55 -2.7 -12.05 -2.15 -12.55 -1.45 -12.55 L1.65 -12.55 Q2.35 -12.55 2.85 -12.05 3.35 -11.55 3.35 -10.85 3.35 -10.15 2.85 -9.6 2.35 -9.1 1.65 -9.1 M-4.8 -14.1 L-5.9 -16.65" fill="none" stroke="#30587f" stroke-linecap="round" stroke-linejoin="round" stroke-width="1.0"/>
    <path d="M5.0 -7.35 L10.15 -7.35 8.65 -11.1 4.95 -14.1 0.15 -15.2 -4.8 -14.1 -8.45 -11.1 -9.95 -7.35 -4.85 -7.35 M7.9 -3.05 L10.3 -5.1 13.15 -5.1 15.7 0.0 9.3 0.0 M1.75 0.0 L-1.65 0.0 M-9.15 0.0 L-15.65 0.0 -13.05 -5.1 -10.2 -5.1 -7.8 -3.05 M-1.65 -4.15 L-1.65 -5.1 1.75 -5.1 1.75 -4.15" fill="none" stroke="#777676" stroke-linecap="round" stroke-linejoin="round" stroke-width="1.0"/>
    <path d="M5.0 -7.35 L5.0 -4.15 7.4 -4.15 M-7.3 -4.15 L-4.85 -4.15 -4.85 -7.35 M5.0 -4.15 L1.75 -4.15 M-1.65 -4.15 L-4.85 -4.15" fill="none" stroke="#292929" stroke-linecap="round" stroke-linejoin="round" stroke-width="1.0"/>
    <path d="M7.4 -4.15 L7.9 -3.05 9.3 0.0 1.75 0.0 M-1.65 0.0 L-9.15 0.0 -7.8 -3.05 -7.3 -4.15" fill="none" stroke="#3c3c3c" stroke-linecap="round" stroke-linejoin="round" stroke-width="1.0"/>
    <path d="M1.75 -4.15 L1.75 0.0 M-1.65 0.0 L-1.65 -4.15" fill="none" stroke="#515151" stroke-linecap="round" stroke-linejoin="round" stroke-width="1.0"/>
    <path d="M-4.85 -7.35 L5.0 -7.35" fill="none" stroke="#5d5d5d" stroke-linecap="round" stroke-linejoin="round" stroke-width="1.0"/>
  </g>
</svg>
