<?xml version="1.0" encoding="UTF-8" standalone="no"?>
<svg xmlns:ffdec="https://www.free-decompiler.com/flash" xmlns:xlink="http://www.w3.org/1999/xlink" ffdec:objectType="shape" height="23.15px" width="13.7px" xmlns="http://www.w3.org/2000/svg">
  <g transform="matrix(1.0, 0.0, 0.0, 1.0, 0.5, 0.5)">
    <path d="M7.35 5.0 Q9.8 4.95 11.1 8.65 10.8 10.1 8.2 11.5 L5.1 11.5 4.75 10.75 Q4.55 10.45 3.7 10.1 2.95 9.75 2.75 9.35 2.9 8.95 3.4 8.7 L4.35 8.35 5.05 8.05 6.0 7.5 6.3 7.2 6.35 7.0 6.1 6.35 5.95 6.1 7.35 5.0 M6.15 21.85 L5.25 21.6 3.35 20.85 Q2.75 20.7 2.25 20.25 1.95 19.9 1.75 19.2 L1.45 17.95 Q1.1 14.55 4.1 15.85 L4.35 16.1 Q5.1 16.7 6.35 17.0 L7.25 16.8 7.5 16.6 7.25 16.9 6.1 17.85 Q8.2 17.7 8.1 19.05 8.4 20.95 6.15 21.85" fill="#808080" fill-rule="evenodd" stroke="none"/>
    <path d="M8.45 1.0 Q12.2 2.4 7.35 5.0 L5.95 6.1 Q5.4 5.2 5.25 4.35 L5.25 3.25 5.25 4.35 Q5.4 5.2 5.95 6.1 L6.1 6.35 6.35 7.0 6.3 7.2 6.0 7.5 5.05 8.05 Q2.35 8.35 1.2 5.65 1.65 4.25 2.5 2.75 2.9 2.65 3.2 2.15 L3.75 1.35 5.0 1.1 5.85 1.05 8.45 1.0 M11.05 16.0 Q10.55 16.85 10.5 17.25 10.35 17.6 10.6 18.5 10.9 19.4 10.35 19.75 L8.7 21.0 Q7.75 21.8 7.0 21.85 L6.15 21.85 Q8.4 20.95 8.1 19.05 8.2 17.7 6.1 17.85 L7.25 16.9 7.5 16.6 7.25 16.8 6.35 17.0 Q5.1 16.7 4.35 16.1 L4.1 15.85 Q1.7 12.05 5.1 11.5 L6.3 12.2 7.2 12.45 7.45 12.6 Q8.7 13.6 8.7 14.75 12.05 14.15 11.05 16.0" fill="#272727" fill-rule="evenodd" stroke="none"/>
    <path d="M8.45 1.0 L9.6 1.0 Q10.9 0.7 11.35 1.35 11.95 1.95 11.75 3.25 L11.35 7.35 11.1 8.6 11.1 8.65 Q9.8 4.95 7.35 5.0 12.2 2.4 8.45 1.0 M11.1 8.65 L11.05 8.85 10.9 10.8 10.95 13.1 10.95 13.3 10.95 13.5 10.9 13.45 10.95 13.55 11.0 13.6 11.5 14.45 11.5 14.5 11.1 15.9 11.05 16.0 Q12.05 14.15 8.7 14.75 8.7 13.6 7.45 12.6 L7.2 12.45 6.3 12.2 5.1 11.5 8.2 11.5 Q10.8 10.1 11.1 8.65 M1.45 17.95 L1.4 17.5 Q1.25 17.35 1.25 17.0 1.35 15.65 0.75 13.55 L0.0 11.35 0.4 10.75 0.9 10.25 0.8 9.35 0.7 8.9 0.65 8.6 0.6 7.95 0.65 7.35 1.0 6.15 1.2 5.65 Q2.35 8.35 5.05 8.05 L4.35 8.35 3.4 8.7 Q2.9 8.95 2.75 9.35 2.95 9.75 3.7 10.1 4.55 10.45 4.75 10.75 L5.1 11.5 Q1.7 12.05 4.1 15.85 1.1 14.55 1.45 17.95 M3.1 14.6 L3.85 15.5 4.1 15.85 3.85 15.5 3.1 14.6" fill="#4f4f4f" fill-rule="evenodd" stroke="none"/>
    <path d="M11.1 8.65 L11.1 8.6 11.35 7.35 11.75 3.25 Q11.95 1.95 11.35 1.35 10.9 0.7 9.6 1.0 L8.45 1.0 5.85 1.05 5.0 1.1 3.75 1.35 3.2 2.15 Q2.9 2.65 2.5 2.75 1.65 4.25 1.2 5.65 L1.0 6.15 0.65 7.35 0.6 7.95 0.65 8.6 0.7 8.9 0.8 9.35 0.9 10.25 0.4 10.75 0.0 11.35 0.75 13.55 Q1.35 15.65 1.25 17.0 1.25 17.35 1.4 17.5 L1.45 17.95 1.75 19.2 Q1.95 19.9 2.25 20.25 2.75 20.7 3.35 20.85 L5.25 21.6 6.15 21.85 7.0 21.85 Q7.75 21.8 8.7 21.0 L10.35 19.75 Q10.9 19.4 10.6 18.5 10.35 17.6 10.5 17.25 10.55 16.85 11.05 16.0 L11.1 15.9 11.5 14.5 11.5 14.45 11.0 13.6 10.95 13.55 10.9 13.45 10.95 13.5 10.95 13.55 M11.1 8.65 L11.05 8.85 10.9 10.8 10.95 13.1 10.95 13.3 10.95 13.5" fill="none" stroke="#1c1c1c" stroke-linecap="round" stroke-linejoin="round" stroke-width="1.0"/>
    <path d="M5.25 3.25 L5.25 4.35 Q5.4 5.2 5.95 6.1 L6.1 6.35 6.35 7.0 6.3 7.2 6.0 7.5 5.05 8.05 4.35 8.35 3.4 8.7 Q2.9 8.95 2.75 9.35 2.95 9.75 3.7 10.1 4.55 10.45 4.75 10.75 L5.1 11.5 6.3 12.2 7.2 12.45 7.45 12.6 M6.1 17.85 L7.25 16.9 7.5 16.6 7.25 16.8 6.35 17.0 Q5.1 16.7 4.35 16.1 L4.1 15.85 3.85 15.5 3.1 14.6" ffdec:has-small-stroke="true" ffdec:original-stroke-width="0.8" fill="none" stroke="#1c1c1c" stroke-linecap="round" stroke-linejoin="round" stroke-width="1.0"/>
    <path d="M2.35 19.7 Q1.25 19.35 1.45 18.0 6.05 16.7 10.6 16.95 L11.55 18.1 11.55 19.15 10.85 19.2 10.85 21.15 9.15 22.15 1.55 21.5 Q1.25 20.6 2.35 19.7 L10.85 19.2 2.35 19.7" fill="#383838" fill-rule="evenodd" stroke="none"/>
    <path d="M12.35 5.95 L10.5 3.1 8.45 2.2 8.65 1.05 8.45 2.2 Q8.3 3.35 8.5 4.75 L8.6 5.35 Q8.95 6.85 9.95 7.25 L4.2 6.5 Q2.1 5.8 2.05 4.1 2.25 2.8 3.15 1.65 L8.65 1.05 Q9.6 -0.05 10.05 0.0 L12.15 0.0 Q13.05 2.7 12.5 5.35 L12.35 5.95" fill="#646464" fill-rule="evenodd" stroke="none"/>
    <path d="M8.45 2.2 L10.5 3.1 12.35 5.95 11.85 7.25 9.95 7.25 Q8.95 6.85 8.6 5.35 L8.5 4.75 Q8.3 3.35 8.45 2.2" fill="#4a4a4a" fill-rule="evenodd" stroke="none"/>
    <path d="M8.65 1.05 L3.15 1.65 Q2.25 2.8 2.05 4.1 2.1 5.8 4.2 6.5 L9.95 7.25" fill="none" stroke="#1e1e1e" stroke-linecap="round" stroke-linejoin="round" stroke-width="1.0"/>
    <path d="M2.35 19.7 Q1.25 19.35 1.45 18.0 6.05 16.7 10.6 16.95 L11.55 18.1 11.55 19.15 10.85 19.2 10.85 21.15 9.15 22.15 1.55 21.5 Q1.25 20.6 2.35 19.7 L10.85 19.2" fill="none" stroke="#151515" stroke-linecap="round" stroke-linejoin="round" stroke-width="1.0"/>
    <path d="M8.45 2.2 L10.5 3.1 12.35 5.95" fill="none" stroke="#464646" stroke-linecap="round" stroke-linejoin="round" stroke-width="1.0"/>
    <path d="M12.35 5.95 L12.5 5.35 Q13.05 2.7 12.15 0.0 L10.05 0.0 Q9.6 -0.05 8.65 1.05 L8.45 2.2 Q8.3 3.35 8.5 4.75 L8.6 5.35 Q8.95 6.85 9.95 7.25 L11.85 7.25 12.35 5.95 Z" fill="none" stroke="#232323" stroke-linecap="round" stroke-linejoin="round" stroke-width="1.0"/>
  </g>
</svg>
