<?xml version="1.0" encoding="UTF-8" standalone="no"?>
<svg xmlns:xlink="http://www.w3.org/1999/xlink" height="22.8px" width="42.5px" xmlns="http://www.w3.org/2000/svg">
  <g transform="matrix(1.0, 0.0, 0.0, 1.0, 5.5, 9.3)">
    <path d="M25.05 1.5 L33.65 0.15 36.5 3.6 23.6 5.8 22.95 4.5 25.05 1.5" fill="#61aca6" fill-rule="evenodd" stroke="none"/>
    <path d="M4.6 -0.4 L0.05 -3.2 3.9 -5.4 0.05 -3.2 -0.1 -5.1 0.05 -6.65 0.3 -7.9 0.5 -8.8 5.0 -8.55 Q8.65 -6.9 12.3 -5.3 L12.3 -5.2 10.5 -2.55 4.6 -0.4 M3.9 -5.4 L10.5 -2.55 3.9 -5.4 5.0 -8.55 3.9 -5.4" fill="url(#gradient0)" fill-rule="evenodd" stroke="none"/>
    <path d="M18.45 4.9 L19.95 6.15 18.35 9.2 15.05 7.9 16.65 4.95 18.45 4.9" fill="url(#gradient1)" fill-rule="evenodd" stroke="none"/>
    <path d="M8.65 5.7 L5.15 10.1 8.65 5.7 9.5 6.15 9.7 7.05 9.7 7.2 9.85 7.65 6.2 12.55 5.85 13.0 2.9 12.6 2.05 8.6 6.75 4.55 8.65 5.7 M6.2 12.55 L5.15 10.1 2.05 8.6 5.15 10.1 6.2 12.55" fill="url(#gradient2)" fill-rule="evenodd" stroke="none"/>
    <path d="M-0.2 -2.7 L-1.5 -3.2 -1.85 -1.65 -4.15 -1.95 -5.0 -5.15 -2.1 -5.95 -0.2 -2.7" fill="url(#gradient3)" fill-rule="evenodd" stroke="none"/>
    <path d="M0.05 -3.2 L4.6 -0.4 M3.9 -5.4 L0.05 -3.2 -0.1 -5.1 0.05 -6.65 0.3 -7.9 0.5 -8.8 5.0 -8.55 Q8.65 -6.9 12.3 -5.3 M5.0 -8.55 L3.9 -5.4 M25.05 1.5 L33.65 0.15 36.5 3.6 23.6 5.8 22.95 4.5 25.05 1.5 M18.45 4.9 L19.95 6.15 18.35 9.2 15.05 7.9 M2.05 8.6 L5.15 10.1 6.2 12.55 9.85 7.65 M6.2 12.55 L5.85 13.0 2.9 12.6 2.05 8.6 M-4.15 -1.95 L-5.0 -5.15 -2.1 -5.95 -0.2 -2.7" fill="none" stroke="#1a2e2d" stroke-linecap="round" stroke-linejoin="round" stroke-width="1.0"/>
    <path d="M4.6 -0.4 L10.5 -2.55 12.3 -5.2 M15.05 7.9 L16.65 4.95 18.45 4.9 M8.65 5.7 L6.75 4.55 2.05 8.6 M9.85 7.65 L9.7 7.2 9.7 7.05 9.5 6.15 8.65 5.7 M-0.2 -2.7 L-1.5 -3.2 -1.85 -1.65 -4.15 -1.95" fill="none" stroke="#27433c" stroke-linecap="round" stroke-linejoin="round" stroke-width="1.0"/>
    <path d="M10.5 -2.55 L3.9 -5.4 M5.15 10.1 L8.65 5.7" fill="none" stroke="#34594f" stroke-linecap="round" stroke-linejoin="miter-clip" stroke-miterlimit="4.0" stroke-width="1.0"/>
  </g>
  <defs>
    <linearGradient gradientTransform="matrix(0.0043, -0.0013, 0.0013, 0.0043, 6.85, -3.4)" gradientUnits="userSpaceOnUse" id="gradient0" spreadMethod="pad" x1="-819.2" x2="819.2">
      <stop offset="0.0" stop-color="#286258"/>
      <stop offset="0.4980392156862745" stop-color="#5faaa3"/>
      <stop offset="1.0" stop-color="#286258"/>
    </linearGradient>
    <linearGradient gradientTransform="matrix(0.001, -6.0E-4, 6.0E-4, 0.001, 17.5, 6.85)" gradientUnits="userSpaceOnUse" id="gradient1" spreadMethod="pad" x1="-819.2" x2="819.2">
      <stop offset="0.0" stop-color="#286258"/>
      <stop offset="1.0" stop-color="#5faaa3"/>
    </linearGradient>
    <linearGradient gradientTransform="matrix(0.0016, 0.002, -0.002, 0.0016, 6.1, 8.25)" gradientUnits="userSpaceOnUse" id="gradient2" spreadMethod="pad" x1="-819.2" x2="819.2">
      <stop offset="0.0" stop-color="#286258"/>
      <stop offset="0.4980392156862745" stop-color="#5faaa3"/>
      <stop offset="1.0" stop-color="#286258"/>
    </linearGradient>
    <linearGradient gradientTransform="matrix(-4.0E-4, 0.0011, -0.0011, -4.0E-4, -2.75, -3.7)" gradientUnits="userSpaceOnUse" id="gradient3" spreadMethod="pad" x1="-819.2" x2="819.2">
      <stop offset="0.0" stop-color="#286258"/>
      <stop offset="1.0" stop-color="#5faaa3"/>
    </linearGradient>
  </defs>
</svg>
