<?xml version="1.0" encoding="UTF-8" standalone="no"?>
<svg xmlns:xlink="http://www.w3.org/1999/xlink" height="19.8px" width="55.3px" xmlns="http://www.w3.org/2000/svg">
  <g transform="matrix(1.0, 0.0, 0.0, 1.0, 17.65, 7.85)">
    <path d="M6.3 -1.7 L11.5 -1.7 11.5 -0.35 6.3 -0.35 6.3 -1.7" fill="#526f41" fill-rule="evenodd" stroke="none"/>
    <path d="M7.5 -5.1 Q7.5 -4.45 8.5 -3.8 L2.95 -3.8 Q4.15 -3.9 4.4 -5.1 L4.4 -5.3 4.4 -6.65 Q4.45 -7.3 5.85 -7.3 7.2 -7.3 7.5 -6.65 L7.5 -5.1 M6.05 -5.7 L6.05 -6.0 6.05 -5.7" fill="#515151" fill-rule="evenodd" stroke="none"/>
    <path d="M7.5 -6.65 L8.6 -6.65 9.15 -7.35 11.9 -7.25 Q12.25 -6.45 10.95 -4.75 L7.5 -5.1 7.5 -6.65 M4.4 -6.65 L4.4 -5.3 2.35 -5.3 2.8 -6.65 4.4 -6.65" fill="#3a3a3a" fill-rule="evenodd" stroke="none"/>
    <path d="M1.3 -3.45 L-1.15 -0.35 -3.4 -0.35 Q-5.55 -0.75 -6.35 0.5 -7.15 1.65 -6.0 2.95 L-15.3 2.95 -15.2 -0.65 -16.1 -1.35 -15.4 -1.95 -9.2 -1.95 Q-7.1 -2.0 -5.9 -2.8 -4.7 -3.6 -2.75 -3.45 L1.3 -3.45 M-14.1 1.7 L-10.95 1.75 -9.1 -0.25 -10.95 1.75 -14.1 1.7" fill="#6a6663" fill-rule="evenodd" stroke="none"/>
    <path d="M8.5 -3.8 L9.9 -3.8 13.75 -3.3 16.9 -2.9 19.15 -2.8 19.15 -2.75 19.15 -0.9 12.65 1.55 12.65 1.9 12.45 4.4 11.9 4.5 7.45 5.35 6.15 5.4 5.5 5.4 5.45 4.3 5.4 2.2 2.6 2.15 1.8 2.15 1.3 4.15 0.3 8.4 -3.5 6.0 -2.95 4.0 Q-1.05 2.6 -3.0 1.6 -3.5 0.9 -3.4 -0.35 L-1.15 -0.35 1.3 -3.45 1.55 -3.8 2.95 -3.8 8.5 -3.8 M4.4 -1.6 L3.75 -0.8 1.65 -0.8 3.75 -0.8 4.4 -1.6 M6.3 -1.7 L6.3 -0.35 11.5 -0.35 11.5 -1.7 6.3 -1.7 M11.1 2.05 L10.25 1.35 6.6 1.35 6.6 4.1 6.6 1.35 10.25 1.35 11.1 2.05 M0.45 2.35 L0.45 2.05 0.45 2.35 M14.15 -1.55 L12.75 0.05 14.15 -1.55" fill="#6a6964" fill-rule="evenodd" stroke="none"/>
    <path d="M32.45 1.65 L24.8 1.65 25.5 0.7 31.4 0.8 32.45 1.65" fill="#353637" fill-rule="evenodd" stroke="none"/>
    <path d="M24.25 1.9 Q24.35 3.25 22.35 3.55 L21.65 3.55 20.25 3.55 20.25 2.75 20.25 3.55 18.9 3.55 17.4 3.55 16.05 3.55 16.05 2.75 16.05 3.55 14.4 3.55 12.45 4.4 12.65 1.9 24.25 1.9 M21.65 2.75 L21.65 3.55 21.65 2.75 M17.4 2.75 L17.4 3.55 17.4 2.75 M18.9 2.75 L18.9 3.55 18.9 2.75" fill="#3b393a" fill-rule="evenodd" stroke="none"/>
    <path d="M6.15 5.4 L7.45 5.35 7.45 5.6 7.45 6.95 7.45 7.15 8.65 8.35 11.85 8.5 11.85 9.75 5.9 9.4 6.15 5.4" fill="#535353" fill-rule="evenodd" stroke="none"/>
    <path d="M11.85 9.75 L11.8 11.45 5.8 10.9 5.9 9.4 11.85 9.75" fill="#3d3d3d" fill-rule="evenodd" stroke="none"/>
    <path d="M7.45 5.35 L11.9 4.5 11.9 5.8 11.9 7.1 11.85 8.5 8.65 8.35 7.45 7.15 7.45 6.95 7.45 5.6 7.45 5.35 M11.9 5.8 L7.45 5.6 11.9 5.8 M7.45 6.95 L11.9 7.1 7.45 6.95" fill="#645a59" fill-rule="evenodd" stroke="none"/>
    <path d="M-3.5 6.0 L0.3 8.4 -4.2 8.3 -4.15 8.2 -3.65 6.4 -3.5 6.0" fill="#595957" fill-rule="evenodd" stroke="none"/>
    <path d="M-4.15 8.2 Q-6.1 7.6 -7.75 6.65 -9.45 5.7 -11.55 5.7 L-14.6 5.3 Q-10.95 2.6 -3.65 6.4 L-4.15 8.2" fill="#4f4e4c" fill-rule="evenodd" stroke="none"/>
    <path d="M-2.95 4.0 L-3.5 6.0 -3.65 6.4 Q-10.95 2.6 -14.6 5.3 -15.55 4.95 -15.35 3.85 L-15.3 2.95 -6.0 2.95 -5.9 3.05 Q-4.45 3.95 -2.95 4.0" fill="#3e3a39" fill-rule="evenodd" stroke="none"/>
    <path d="M-16.1 -1.35 L-15.2 -0.65 -15.3 2.95 -16.0 2.95 Q-17.15 3.1 -17.15 2.15 L-16.1 -1.35" fill="#3d3938" fill-rule="evenodd" stroke="none"/>
    <path d="M19.15 -2.75 L34.65 -2.75 35.75 -2.25 37.15 1.3 36.65 2.0 32.9 2.05 32.45 1.65 31.4 0.8 25.5 0.7 24.8 1.65 24.6 1.9 24.25 1.9 12.65 1.9 12.65 1.55 19.15 -0.9 19.15 -2.75 M23.7 -0.7 L22.4 -0.7 23.7 -0.7 M26.95 -0.7 L25.65 -0.7 26.95 -0.7 M30.4 -0.7 L29.1 -0.7 30.4 -0.7 M33.65 -0.7 L32.35 -0.7 33.65 -0.7" fill="#83807e" fill-rule="evenodd" stroke="none"/>
    <path d="M7.5 -6.65 L8.6 -6.65 9.15 -7.35 11.9 -7.25 Q12.25 -6.45 10.95 -4.75 L7.5 -5.1 M4.4 -5.3 L4.4 -5.1 M4.4 -6.65 L2.8 -6.65 2.35 -5.3 4.4 -5.3" fill="none" stroke="#161616" stroke-linecap="round" stroke-linejoin="round" stroke-width="1.0"/>
    <path d="M7.5 -5.1 Q7.5 -4.45 8.5 -3.8 M7.5 -6.65 Q7.2 -7.3 5.85 -7.3 4.45 -7.3 4.4 -6.65 L4.4 -5.3 M4.4 -5.1 Q4.15 -3.9 2.95 -3.8 M7.5 -5.1 L7.5 -6.65 M5.9 9.4 L11.85 9.75" fill="none" stroke="#262626" stroke-linecap="round" stroke-linejoin="round" stroke-width="1.0"/>
    <path d="M8.5 -3.8 L9.9 -3.8 13.75 -3.3 16.9 -2.9 19.15 -2.8 19.15 -2.75 M36.65 2.0 L32.9 2.05 32.45 1.65 M24.8 1.65 L24.6 1.9 24.25 1.9 12.65 1.9 12.65 1.55 M1.55 -3.8 L1.3 -3.45 -2.75 -3.45 Q-4.7 -3.6 -5.9 -2.8 -7.1 -2.0 -9.2 -1.95 L-15.4 -1.95 -16.1 -1.35 -15.2 -0.65 -15.3 2.95 -16.0 2.95 M-3.4 -0.35 Q-3.5 0.9 -3.0 1.6 -1.05 2.6 -2.95 4.0 L-3.5 6.0 -3.65 6.4 -4.15 8.2 -4.2 8.3 0.3 8.4 1.3 4.15 1.8 2.15 2.6 2.15 5.4 2.2 5.45 4.3 5.5 5.4 6.15 5.4 7.45 5.35 11.9 4.5 12.45 4.4 12.65 1.9 M7.45 5.6 L7.45 5.35 M5.45 4.3 L1.3 4.15 M-6.0 2.95 Q-7.15 1.65 -6.35 0.5 -5.55 -0.75 -3.4 -0.35 M-15.35 3.85 L-15.3 2.95" fill="none" stroke="#2f2f2d" stroke-linecap="round" stroke-linejoin="round" stroke-width="1.0"/>
    <path d="M6.6 4.1 L6.6 1.35 10.25 1.35 11.1 2.05 M0.45 2.05 L0.45 2.35 M12.75 0.05 L14.15 -1.55" fill="none" stroke="#575651" stroke-linecap="round" stroke-linejoin="round" stroke-width="1.0"/>
    <path d="M32.35 -0.7 L33.65 -0.7 M29.1 -0.7 L30.4 -0.7 M25.65 -0.7 L26.95 -0.7 M22.4 -0.7 L23.7 -0.7" fill="none" stroke="#696461" stroke-linecap="round" stroke-linejoin="round" stroke-width="1.0"/>
    <path d="M19.15 -2.75 L34.65 -2.75 35.75 -2.25 37.15 1.3 36.65 2.0" fill="none" stroke="#3f413e" stroke-linecap="round" stroke-linejoin="round" stroke-width="1.0"/>
    <path d="M24.25 1.9 Q24.35 3.25 22.35 3.55 L21.65 3.55 21.65 3.95 M20.25 3.55 L21.65 3.55 M20.25 3.55 L20.25 3.95 M20.25 3.55 L18.9 3.55 18.9 3.95 M16.05 3.55 L17.4 3.55 18.9 3.55 M16.05 3.55 L16.05 3.95 M17.4 3.55 L17.4 3.95 M12.45 4.4 L14.4 3.55 16.05 3.55" fill="none" stroke="#1b1a1b" stroke-linecap="round" stroke-linejoin="round" stroke-width="1.0"/>
    <path d="M32.45 1.65 L24.8 1.65" fill="none" stroke="#1a1819" stroke-linecap="round" stroke-linejoin="round" stroke-width="1.0"/>
    <path d="M11.9 4.5 L11.9 5.8 M11.85 8.5 L11.85 9.75" fill="none" stroke="#242525" stroke-linecap="round" stroke-linejoin="round" stroke-width="1.0"/>
    <path d="M11.85 9.75 L11.8 11.45 5.8 10.9 5.9 9.4" fill="none" stroke="#17191a" stroke-linecap="round" stroke-linejoin="round" stroke-width="1.0"/>
    <path d="M2.6 2.15 Q2.3 2.9 2.5 3.35" fill="none" stroke="#202020" stroke-linecap="round" stroke-linejoin="round" stroke-width="1.0"/>
    <path d="M5.9 9.4 L6.15 5.4" fill="none" stroke="#252525" stroke-linecap="round" stroke-linejoin="round" stroke-width="1.0"/>
    <path d="M-6.0 2.95 L-5.9 3.05 Q-4.45 3.95 -2.95 4.0" fill="none" stroke="#202122" stroke-linecap="round" stroke-linejoin="round" stroke-width="1.0"/>
    <path d="M-15.3 2.95 L-6.0 2.95 M-4.15 8.2 Q-6.1 7.6 -7.75 6.65 -9.45 5.7 -11.55 5.7 L-14.6 5.3 Q-15.55 4.95 -15.35 3.85 M-16.0 2.95 Q-17.15 3.1 -17.15 2.15" fill="none" stroke="#201f1d" stroke-linecap="round" stroke-linejoin="round" stroke-width="1.0"/>
    <path d="M-17.15 2.15 L-16.1 -1.35" fill="none" stroke="#232223" stroke-linecap="round" stroke-linejoin="round" stroke-width="1.0"/>
    <path d="M21.65 3.55 L21.65 2.75 M20.25 2.75 L20.25 3.55 M17.4 3.55 L17.4 2.75 M18.9 3.55 L18.9 2.75 M16.05 3.55 L16.05 2.75" fill="none" stroke="#2e2d2d" stroke-linecap="round" stroke-linejoin="round" stroke-width="1.0"/>
    <path d="M1.3 -3.45 L-1.15 -0.35 -3.4 -0.35" fill="none" stroke="#484843" stroke-linecap="round" stroke-linejoin="round" stroke-width="1.0"/>
    <path d="M12.65 1.55 L19.15 -0.9 19.15 -2.75" fill="none" stroke="#4a4a47" stroke-linecap="round" stroke-linejoin="round" stroke-width="1.0"/>
    <path d="M6.05 -6.0 L6.05 -5.7" fill="none" stroke="#3d3f3f" stroke-linecap="round" stroke-linejoin="round" stroke-width="1.0"/>
    <path d="M-9.1 -0.25 L-10.95 1.75 -14.1 1.7" fill="none" stroke="#4a4641" stroke-linecap="round" stroke-linejoin="round" stroke-width="1.0"/>
    <path d="M-3.65 6.4 Q-10.95 2.6 -14.6 5.3" fill="none" stroke="#23211f" stroke-linecap="round" stroke-linejoin="round" stroke-width="1.0"/>
    <path d="M-3.5 6.0 L0.3 8.4" fill="none" stroke="#3a3634" stroke-linecap="round" stroke-linejoin="round" stroke-width="1.0"/>
    <path d="M2.95 -3.8 L8.5 -3.8 M2.95 -3.8 L1.55 -3.8 M32.45 1.65 L31.4 0.8 25.5 0.7 24.8 1.65" fill="none" stroke="#3f3f3c" stroke-linecap="round" stroke-linejoin="round" stroke-width="1.0"/>
    <path d="M6.3 -1.7 L11.5 -1.7 11.5 -0.35 6.3 -0.35 6.3 -1.7" fill="none" stroke="#283f1e" stroke-linecap="round" stroke-linejoin="round" stroke-width="1.0"/>
    <path d="M7.45 6.95 L7.45 7.15 8.65 8.35 11.85 8.5 M7.45 6.95 L7.45 5.6 M11.9 7.1 L7.45 6.95" fill="none" stroke="#413b3a" stroke-linecap="round" stroke-linejoin="round" stroke-width="1.0"/>
    <path d="M11.9 5.8 L11.9 7.1 11.85 8.5 M7.45 5.6 L11.9 5.8" fill="none" stroke="#353030" stroke-linecap="round" stroke-linejoin="round" stroke-width="1.0"/>
    <path d="M1.65 -0.8 L3.75 -0.8 4.4 -1.6" fill="none" stroke="#575651" stroke-linecap="round" stroke-linejoin="round" stroke-width="0.9"/>
  </g>
</svg>
