<?xml version="1.0" encoding="UTF-8" standalone="no"?>
<svg xmlns:ffdec="https://www.free-decompiler.com/flash" xmlns:xlink="http://www.w3.org/1999/xlink" ffdec:objectType="shape" height="26.8px" width="14.8px" xmlns="http://www.w3.org/2000/svg">
  <g transform="matrix(1.0, 0.0, 0.0, 1.0, 1.25, -0.75)">
    <path d="M2.8 23.2 L2.7 22.6 3.05 22.4 2.8 23.2" fill="url(#gradient0)" fill-rule="evenodd" stroke="none"/>
    <path d="M6.15 2.5 L6.25 2.9 Q6.95 5.4 6.9 6.1 6.75 8.1 7.25 10.2 L7.6 10.55 10.45 13.6 11.0 13.4 Q9.65 16.75 10.25 21.0 L9.75 21.75 9.65 21.6 8.7 22.4 8.6 22.45 Q7.75 22.95 6.65 22.85 L5.55 22.6 Q5.35 22.5 5.05 23.15 L5.0 23.2 4.7 21.5 4.55 20.95 6.0 20.05 4.75 16.35 5.9 14.45 4.9 9.65 3.35 2.6 6.15 2.5" fill="#191919" fill-rule="evenodd" stroke="none"/>
    <path d="M0.1 14.7 Q-0.05 13.8 0.2 12.25 L0.45 10.9 1.85 9.65 4.9 9.65 5.9 14.45 4.75 16.35 6.0 20.05 4.55 20.95 2.35 15.7 0.1 14.7" fill="url(#gradient1)" fill-rule="evenodd" stroke="none"/>
    <path d="M6.15 2.5 L8.55 1.25 12.45 1.25 13.05 5.85 13.05 7.25 10.6 7.25 7.6 10.55 7.25 10.2 Q6.75 8.1 6.9 6.1 6.95 5.4 6.25 2.9 L6.15 2.5" fill="url(#gradient2)" fill-rule="evenodd" stroke="none"/>
    <path d="M7.6 10.55 L10.6 7.25 13.05 7.25 12.55 11.2 12.1 12.9 11.0 13.4 10.45 13.6 7.6 10.55" fill="url(#gradient3)" fill-rule="evenodd" stroke="none"/>
    <path d="M1.75 5.35 L2.1 4.5 Q2.5 3.5 3.35 2.6 L4.9 9.65 1.85 9.65 1.65 7.5 1.65 7.4 1.55 6.4 1.75 5.35" fill="url(#gradient4)" fill-rule="evenodd" stroke="none"/>
    <path d="M2.15 19.7 L0.8 17.9 0.1 14.7 2.35 15.7 4.55 20.95 4.7 21.5 5.0 23.2 5.05 23.15 5.35 24.6 3.8 21.35 3.8 21.5 4.1 22.7 4.0 22.5 2.15 19.7" fill="url(#gradient5)" fill-rule="evenodd" stroke="none"/>
    <path d="M6.3 26.05 L5.05 26.3 2.95 24.05 2.8 23.2 3.05 22.4 2.7 22.6 2.15 19.7 4.0 22.5 Q4.1 23.3 4.9 24.15 L5.3 24.6 5.6 25.05 6.3 26.05" fill="url(#gradient6)" fill-rule="evenodd" stroke="none"/>
    <path d="M9.75 21.75 L11.0 23.75 Q11.5 24.85 11.05 25.8 9.9 27.15 8.35 27.05 7.2 27.0 6.3 26.05 L5.6 25.05 5.3 24.6 5.1 24.15 4.45 23.2 4.1 22.7 3.8 21.5 3.8 21.35 5.35 24.6 5.05 23.15 Q5.35 22.5 5.55 22.6 L6.65 22.85 Q7.75 22.95 8.6 22.45 L8.7 22.4 9.65 21.6 9.75 21.75" fill="url(#gradient7)" fill-rule="evenodd" stroke="none"/>
    <path d="M11.0 13.4 Q9.65 16.75 10.25 21.0 L9.75 21.75 M0.1 14.7 Q-0.05 13.8 0.2 12.25 L0.45 10.9 1.85 9.65 M2.35 15.7 L4.55 20.95 6.0 20.05 4.75 16.35 5.9 14.45 4.9 9.65 M4.55 20.95 L4.7 21.5 5.0 23.2" fill="none" stroke="#0e0c0c" stroke-linecap="round" stroke-linejoin="round" stroke-width="1.0"/>
    <path d="M0.2 12.25 L-0.5 11.0 Q-0.85 10.25 -0.7 9.3 -0.6 8.3 -0.05 8.05 L0.05 8.0 Q-0.05 7.5 0.15 6.75 0.35 6.0 0.9 5.75 L1.6 5.45 1.75 5.35 M1.65 7.4 L0.95 7.75 0.05 8.0 0.25 8.6 0.95 9.85" fill="none" stroke="#080807" stroke-linecap="round" stroke-linejoin="round" stroke-opacity="0.8784314" stroke-width="1.0"/>
    <path d="M13.05 7.25 L13.05 5.85 12.45 1.25 8.55 1.25 6.15 2.5 6.25 2.9 Q6.95 5.4 6.9 6.1 6.75 8.1 7.25 10.2 L7.6 10.55 10.6 7.25 13.05 7.25 12.55 11.2 12.1 12.9 11.0 13.4 10.45 13.6 7.6 10.55 M9.75 21.75 L11.0 23.75 Q11.5 24.85 11.05 25.8 9.9 27.15 8.35 27.05 7.2 27.0 6.3 26.05 L5.05 26.3 2.95 24.05 2.8 23.2 2.7 22.6 2.15 19.7 0.8 17.9 0.1 14.7 M1.75 5.35 L2.1 4.5 Q2.5 3.5 3.35 2.6 L4.9 9.65 M1.65 7.4 L1.55 6.4 1.75 5.35 M1.85 9.65 L1.65 7.5 1.65 7.4 M5.0 23.2 L5.05 23.15 Q5.35 22.5 5.55 22.6 L6.65 22.85 Q7.75 22.95 8.6 22.45 L8.7 22.4 9.65 21.6 9.75 21.75 M4.1 22.7 L4.45 23.2 5.3 24.6 5.6 25.05 6.3 26.05 M4.0 22.5 L4.1 22.7 M2.15 19.7 L4.0 22.5" fill="none" stroke="#022e33" stroke-linecap="round" stroke-linejoin="round" stroke-width="1.0"/>
  </g>
  <defs>
    <radialGradient cx="0" cy="0" gradientTransform="matrix(0.0057, 0.0, 0.0, 0.0057, 7.55, 24.35)" gradientUnits="userSpaceOnUse" id="gradient0" r="819.2" spreadMethod="pad">
      <stop offset="0.0" stop-color="#cccccc"/>
      <stop offset="1.0" stop-color="#666666"/>
    </radialGradient>
    <radialGradient cx="0" cy="0" gradientTransform="matrix(0.0107, 0.0, 0.0, 0.0107, 4.55, 18.05)" gradientUnits="userSpaceOnUse" id="gradient1" r="819.2" spreadMethod="pad">
      <stop offset="0.0" stop-color="#333333"/>
      <stop offset="1.0" stop-color="#000000"/>
    </radialGradient>
    <linearGradient gradientTransform="matrix(0.0042, 0.0, 0.0, 0.0057, 9.6, 5.9)" gradientUnits="userSpaceOnUse" id="gradient2" spreadMethod="pad" x1="-819.2" x2="819.2">
      <stop offset="0.0" stop-color="#e8c06f"/>
      <stop offset="1.0" stop-color="#02b1c3"/>
      <stop offset="1.0" stop-color="#2c1b38"/>
    </linearGradient>
    <linearGradient gradientTransform="matrix(0.0033, 0.0, 0.0, 0.0039, 10.3, 10.4)" gradientUnits="userSpaceOnUse" id="gradient3" spreadMethod="pad" x1="-819.2" x2="819.2">
      <stop offset="0.0" stop-color="#e8c06f"/>
      <stop offset="1.0" stop-color="#02b1c3"/>
      <stop offset="1.0" stop-color="#2c1b38"/>
    </linearGradient>
    <linearGradient gradientTransform="matrix(0.002, 0.0, 0.0, 0.0043, 3.2, 6.1)" gradientUnits="userSpaceOnUse" id="gradient4" spreadMethod="pad" x1="-819.2" x2="819.2">
      <stop offset="0.0" stop-color="#e8c06f"/>
      <stop offset="1.0" stop-color="#02b1c3"/>
      <stop offset="1.0" stop-color="#2c1b38"/>
    </linearGradient>
    <linearGradient gradientTransform="matrix(0.0032, 0.0, 0.0, 0.006, 2.7, 19.65)" gradientUnits="userSpaceOnUse" id="gradient5" spreadMethod="pad" x1="-819.2" x2="819.2">
      <stop offset="0.0" stop-color="#e8c06f"/>
      <stop offset="1.0" stop-color="#02b1c3"/>
      <stop offset="1.0" stop-color="#2c1b38"/>
    </linearGradient>
    <linearGradient gradientTransform="matrix(0.0025, 0.0, 0.0, 0.004, 4.2, 23.0)" gradientUnits="userSpaceOnUse" id="gradient6" spreadMethod="pad" x1="-819.2" x2="819.2">
      <stop offset="0.0" stop-color="#e8c06f"/>
      <stop offset="1.0" stop-color="#02b1c3"/>
      <stop offset="1.0" stop-color="#2c1b38"/>
    </linearGradient>
    <linearGradient gradientTransform="matrix(0.0045, 0.0, 0.0, 0.0035, 7.5, 24.2)" gradientUnits="userSpaceOnUse" id="gradient7" spreadMethod="pad" x1="-819.2" x2="819.2">
      <stop offset="0.0" stop-color="#e8c06f"/>
      <stop offset="1.0" stop-color="#02b1c3"/>
      <stop offset="1.0" stop-color="#2c1b38"/>
    </linearGradient>
  </defs>
</svg>
