<?xml version="1.0" encoding="UTF-8" standalone="no"?>
<svg xmlns:xlink="http://www.w3.org/1999/xlink" height="19.45px" width="59.5px" xmlns="http://www.w3.org/2000/svg">
  <g transform="matrix(1.0, 0.0, 0.0, 1.0, 18.4, 6.85)">
    <path d="M-0.2 -2.7 L0.0 -2.6 0.05 -2.55 0.2 -2.5 2.55 -1.5 2.8 -1.35 3.25 0.15 Q4.3 2.5 4.7 3.05 5.4 4.25 6.75 4.55 L3.75 7.1 3.5 7.4 0.45 4.75 0.45 2.55 -2.75 2.55 -3.15 0.9 -8.2 -0.05 -8.85 -1.9 -11.65 -0.45 -13.65 2.3 -14.75 1.9 -14.9 1.9 Q-15.1 3.4 -15.8 5.15 L-16.45 6.55 -16.45 6.6 -16.55 6.65 -17.9 4.9 Q-17.5 4.25 -17.2 2.8 L-16.95 1.1 Q-16.8 -1.05 -17.2 -3.8 L-8.55 -5.5 -6.35 -3.25 -5.05 -1.95 -4.15 -1.95 -1.85 -1.65 -1.5 -3.2 -0.2 -2.7 M21.55 -4.65 L23.55 -5.55 25.45 -4.55 33.0 -4.2 29.3 -0.5 23.5 -1.75 21.55 -4.65 M22.1 -0.6 L21.05 2.2 17.4 2.4 14.65 -1.85 22.1 -0.6 M13.8 5.95 L9.3 3.85 8.25 0.65 12.0 -1.0 15.4 3.35 13.8 5.95 M-6.35 -3.25 L-8.85 -1.9 -6.35 -3.25 M-14.75 1.9 L-16.95 1.1 -14.75 1.9" fill="#425e61" fill-rule="evenodd" stroke="none"/>
    <path d="M3.25 0.15 L4.6 -0.4 10.5 -2.55 12.3 -5.2 12.3 -5.3 13.05 -6.35 18.4 -3.35 21.55 -4.65 23.5 -1.75 29.3 -0.5 33.0 -4.2 40.6 -3.8 38.15 3.25 36.5 3.6 33.65 0.15 25.05 1.5 22.95 4.5 18.45 4.9 16.65 4.95 15.05 7.9 14.95 8.15 10.05 8.75 9.85 7.65 9.7 7.2 9.7 7.05 9.5 6.15 6.75 4.55 Q5.4 4.25 4.7 3.05 4.3 2.5 3.25 0.15 M13.8 5.95 L15.4 3.35 12.0 -1.0 8.25 0.65 9.3 3.85 13.8 5.95 M22.1 -0.6 L14.65 -1.85 17.4 2.4 21.05 2.2 22.1 -0.6" fill="#4e757a" fill-rule="evenodd" stroke="none"/>
    <path d="M3.5 7.4 L3.2 7.7 2.05 8.6 1.95 8.75 0.45 10.05 -0.35 12.1 -4.25 10.6 -4.65 10.4 -5.05 10.25 -6.15 9.85 -8.2 9.1 Q-12.4 7.7 -15.55 7.9 L-16.55 6.65 -16.45 6.6 -16.45 6.55 -15.8 5.15 Q-15.1 3.4 -14.9 1.9 L-14.75 1.9 -13.65 2.3 -11.65 -0.45 -8.85 -1.9 -8.2 -0.05 -3.15 0.9 -2.75 2.55 -2.95 4.1 -4.7 5.05 -5.0 6.7 -2.65 7.5 0.45 4.75 3.5 7.4 M-8.2 5.95 L-7.35 2.35 -11.4 2.2 -11.4 3.85 Q-10.65 3.9 -10.4 4.3 L-10.2 4.75 -10.2 5.4 -8.2 5.95 M-15.55 7.9 Q-12.7 7.45 -8.2 9.0 L-6.15 9.85 -8.2 9.0 Q-12.7 7.45 -15.55 7.9" fill="#313d43" fill-rule="evenodd" stroke="none"/>
    <path d="M-0.2 -2.7 L0.0 -2.6 0.05 -2.55 0.2 -2.5 2.55 -1.5 M2.8 -1.35 L3.25 0.15 4.6 -0.4" fill="none" stroke="#27433c" stroke-linecap="round" stroke-linejoin="round" stroke-width="1.0"/>
    <path d="M12.3 -5.3 L13.05 -6.35 18.4 -3.35 21.55 -4.65 23.55 -5.55 25.45 -4.55 33.0 -4.2 40.6 -3.8 38.15 3.25 36.5 3.6 M22.95 4.5 L18.45 4.9 M15.05 7.9 L14.95 8.15 10.05 8.75 9.85 7.65 M1.95 8.75 L0.45 10.05 -0.35 12.1 -4.25 10.6 -4.65 10.4 -5.05 10.25 -6.15 9.85 -8.2 9.0 Q-12.7 7.45 -15.55 7.9 L-16.55 6.65 -17.9 4.9 Q-17.5 4.25 -17.2 2.8 L-16.95 1.1 Q-16.8 -1.05 -17.2 -3.8 L-8.55 -5.5 -6.35 -3.25 -5.05 -1.95 -4.15 -1.95 M-2.75 2.55 L0.45 2.55 0.45 4.75 3.5 7.4 M-8.85 -1.9 L-6.35 -3.25 M-8.85 -1.9 L-8.2 -0.05 -3.15 0.9 -2.75 2.55 -2.95 4.1 -4.7 5.05 -5.0 6.7 -2.65 7.5 0.45 4.75 M-14.75 1.9 L-13.65 2.3 -11.65 -0.45 -8.85 -1.9 M-16.95 1.1 L-14.75 1.9" fill="none" stroke="#1a2e2d" stroke-linecap="round" stroke-linejoin="round" stroke-width="1.0"/>
    <path d="M22.1 -0.6 L21.05 2.2 17.4 2.4 14.65 -1.85 22.1 -0.6 M13.8 5.95 L9.3 3.85 8.25 0.65 12.0 -1.0 15.4 3.35 13.8 5.95" fill="none" stroke="#313d43" stroke-linecap="butt" stroke-linejoin="round" stroke-width="1.0"/>
    <path d="M-8.2 5.95 L-10.2 5.4 -10.2 4.75 -10.4 4.3 Q-10.65 3.9 -11.4 3.85 L-11.4 2.2 -7.35 2.35 -8.2 5.95" fill="none" stroke="#1a2e2d" stroke-linecap="butt" stroke-linejoin="round" stroke-width="1.0"/>
    <path d="M-14.9 1.9 Q-15.1 3.4 -15.8 5.15 L-16.45 6.55 -16.45 6.6 -16.55 6.65" fill="none" stroke="#1a2e2d" stroke-linecap="butt" stroke-linejoin="miter-clip" stroke-miterlimit="4.0" stroke-width="1.0"/>
  </g>
</svg>
