<?xml version="1.0" encoding="UTF-8" standalone="no"?>
<svg xmlns:ffdec="https://www.free-decompiler.com/flash" xmlns:xlink="http://www.w3.org/1999/xlink" ffdec:objectType="shape" height="27.45px" width="14.25px" xmlns="http://www.w3.org/2000/svg">
  <g transform="matrix(1.0, 0.0, 0.0, 1.0, 0.7, -0.1)">
    <path d="M6.9 6.1 L9.85 7.25 11.15 10.85 12.55 11.2 12.1 12.9 11.0 13.4 10.45 13.6 7.25 10.2 Q6.75 8.1 6.9 6.1 M6.3 26.05 L5.05 26.3 2.95 24.05 2.15 19.7 0.8 17.9 0.1 14.7 2.35 15.7 4.55 20.95 3.55 21.55 4.2 22.65 5.6 25.05 6.3 26.05 M2.15 19.7 L3.55 21.55 2.15 19.7" fill="#191919" fill-rule="evenodd" stroke="none"/>
    <path d="M10.65 2.0 L9.85 2.0 7.15 4.6 6.9 6.1 Q6.75 8.1 7.25 10.2 L10.45 13.6 11.0 13.4 10.25 21.0 9.75 21.75 11.0 23.75 Q11.5 24.85 11.05 25.8 9.9 27.15 8.35 27.05 7.2 27.0 6.3 26.05 L5.6 25.05 4.2 22.65 4.5 23.1 3.85 22.0 3.55 21.55 4.55 20.95 6.0 20.05 4.75 16.35 5.9 14.45 4.2 10.35 2.05 9.4 1.85 9.65 1.55 6.4 Q1.8 4.3 3.35 2.6 L6.15 2.5 Q6.9 1.6 9.8 0.6 11.0 1.4 10.65 2.0 M9.75 21.75 L9.65 21.6 8.7 22.4 8.6 22.45 Q7.75 22.95 6.65 22.85 L5.55 22.6 5.15 22.45 4.55 20.95 5.15 22.45 5.55 22.6 6.65 22.85 Q7.75 22.95 8.6 22.45 L8.7 22.4 9.65 21.6 9.75 21.75 M5.15 22.45 L4.85 22.3 4.1 21.85 Q3.85 21.75 3.85 22.0 3.85 21.75 4.1 21.85 L4.85 22.3 5.15 22.45" fill="#151515" fill-rule="evenodd" stroke="none"/>
    <path d="M10.65 2.0 L11.5 1.95 Q12.85 3.55 13.05 5.85 13.05 8.5 12.55 11.2 L11.15 10.85 9.85 7.25 6.9 6.1 7.15 4.6 9.85 2.0 10.65 2.0 M0.1 14.7 L-0.2 12.2 1.85 9.65 2.05 9.4 4.2 10.35 5.9 14.45 4.75 16.35 6.0 20.05 4.55 20.95 2.35 15.7 0.1 14.7" fill="#1c1c1c" fill-rule="evenodd" stroke="none"/>
    <path d="M12.55 11.2 Q13.05 8.5 13.05 5.85 12.85 3.55 11.5 1.95 L10.65 2.0 9.85 2.0 7.15 4.6 6.9 6.1 9.85 7.25 11.15 10.85 12.55 11.2 12.1 12.9 11.0 13.4 10.25 21.0 9.75 21.75 11.0 23.75 Q11.5 24.85 11.05 25.8 9.9 27.15 8.35 27.05 7.2 27.0 6.3 26.05 L5.05 26.3 2.95 24.05 2.15 19.7 0.8 17.9 0.1 14.7 -0.2 12.2 1.85 9.65 1.55 6.4 Q1.8 4.3 3.35 2.6 L6.15 2.5 Q6.9 1.6 9.8 0.6 11.0 1.4 10.65 2.0 M4.55 20.95 L6.0 20.05 4.75 16.35 5.9 14.45 4.2 10.35 2.05 9.4 1.85 9.65 M6.9 6.1 Q6.75 8.1 7.25 10.2 L10.45 13.6 11.0 13.4 M0.1 14.7 L2.35 15.7 4.55 20.95 5.15 22.45 5.55 22.6 6.65 22.85 Q7.75 22.95 8.6 22.45 L8.7 22.4 9.65 21.6 9.75 21.75 M3.55 21.55 L4.55 20.95 M3.85 22.0 Q3.85 21.75 4.1 21.85 L4.85 22.3 5.15 22.45 M4.2 22.65 L4.5 23.1 3.85 22.0 4.2 22.65 3.55 21.55 2.15 19.7 M3.55 21.55 L3.85 22.0 M4.2 22.65 L5.6 25.05 6.3 26.05" fill="none" stroke="#0e0c0c" stroke-linecap="round" stroke-linejoin="round" stroke-width="1.0"/>
    <path d="M5.0 12.05 Q5.4 12.45 5.4 12.95 5.45 13.5 5.05 13.9 4.7 14.3 4.15 14.3 3.65 14.35 3.3 13.95 2.95 13.55 2.9 13.0 2.9 12.5 3.25 12.1 3.6 11.7 4.1 11.65 4.65 11.65 5.0 12.05 M6.7 17.75 L6.4 18.4 Q6.15 18.7 5.75 18.7 L5.1 18.4 Q4.8 18.1 4.8 17.75 4.8 17.35 5.05 17.1 5.35 16.8 5.7 16.8 6.1 16.8 6.4 17.1 L6.7 17.75" fill="#ffffa3" fill-rule="evenodd" stroke="none"/>
    <path d="M5.0 12.05 Q5.4 12.45 5.4 12.95 5.45 13.5 5.05 13.9 4.7 14.3 4.15 14.3 3.65 14.35 3.3 13.95 2.95 13.55 2.9 13.0 2.9 12.5 3.25 12.1 3.6 11.7 4.1 11.65 4.65 11.65 5.0 12.05 M6.7 17.75 L6.4 18.4 Q6.15 18.7 5.75 18.7 L5.1 18.4 Q4.8 18.1 4.8 17.75 4.8 17.35 5.05 17.1 5.35 16.8 5.7 16.8 6.1 16.8 6.4 17.1 L6.7 17.75 Z" fill="none" stroke="#b1b171" stroke-linecap="round" stroke-linejoin="round" stroke-width="1.0"/>
    <path d="M4.15 16.25 L4.1 16.25 Q2.8 16.25 1.8 15.3 0.85 14.4 0.85 13.05 0.85 11.75 1.8 10.75 2.75 9.8 4.05 9.8 5.4 9.8 6.35 10.7 7.3 11.65 7.3 12.95 7.3 14.3 6.35 15.25 L6.05 15.6 5.75 15.55 Q4.85 15.55 4.2 16.2 L4.15 16.25" fill="url(#gradient0)" fill-rule="evenodd" stroke="none"/>
    <path d="M6.05 15.6 Q6.8 15.65 7.35 16.15 8.0 16.8 8.0 17.7 8.0 18.65 7.35 19.3 L6.9 19.7 6.4 19.95 5.8 20.0 Q4.9 20.0 4.2 19.35 3.55 18.7 3.55 17.8 3.55 16.95 4.15 16.25 L4.2 16.2 Q4.85 15.55 5.75 15.55 L6.05 15.6" fill="url(#gradient1)" fill-rule="evenodd" stroke="none"/>
  </g>
  <defs>
    <radialGradient cx="0" cy="0" gradientTransform="matrix(0.004, 0.0, 0.0, 0.004, 4.05, 13.0)" gradientUnits="userSpaceOnUse" id="gradient0" r="819.2" spreadMethod="pad">
      <stop offset="0.0" stop-color="#ffffa3" stop-opacity="0.49803922"/>
      <stop offset="1.0" stop-color="#ffffff" stop-opacity="0.0"/>
    </radialGradient>
    <radialGradient cx="0" cy="0" gradientTransform="matrix(0.0027, 0.0, 0.0, 0.0027, 5.75, 17.7)" gradientUnits="userSpaceOnUse" id="gradient1" r="819.2" spreadMethod="pad">
      <stop offset="0.0" stop-color="#ffffa3" stop-opacity="0.49803922"/>
      <stop offset="1.0" stop-color="#ffffff" stop-opacity="0.0"/>
    </radialGradient>
  </defs>
</svg>
