<?xml version="1.0" encoding="UTF-8" standalone="no"?>
<svg xmlns:ffdec="https://www.free-decompiler.com/flash" xmlns:xlink="http://www.w3.org/1999/xlink" ffdec:objectType="shape" height="24.3px" width="14.9px" xmlns="http://www.w3.org/2000/svg">
  <g transform="matrix(1.0, 0.0, 0.0, 1.0, 8.35, 4.75)">
    <path d="M3.65 -4.1 L3.85 -4.25 3.95 -4.35 4.45 -4.3 4.75 -4.25 5.8 -1.65 5.95 -1.35 6.1 -0.95 6.1 -0.9 5.95 -1.35 6.1 -0.9 6.0 -0.6 5.6 0.95 5.25 2.25 4.25 3.95 3.5 4.8 3.15 5.1 2.7 5.5 4.1 4.1 5.25 2.15 5.6 0.95 5.25 2.15 4.1 4.1 2.7 5.5 2.1 5.95 1.7 6.05 0.45 3.35 0.15 0.9 0.45 3.35 0.35 3.15 0.3 3.05 0.3 2.7 0.2 1.4 0.15 0.9 0.1 0.6 0.2 0.5 0.5 0.2 0.7 -0.05 0.9 -0.3 1.15 -0.7 1.25 -0.95 1.7 -1.3 1.15 -0.7 1.7 -1.3 1.75 -1.35 2.1 -2.45 2.25 -3.0 2.3 -3.0 2.1 -2.45 2.3 -3.0 3.2 -3.75 3.65 -4.1 M4.45 -4.3 L3.85 -4.25 4.45 -4.3" fill="#586157" fill-rule="evenodd" stroke="none"/>
    <path d="M2.65 6.35 L2.55 7.0 2.25 7.85 1.9 9.5 1.6 12.6 1.6 12.65 1.55 13.2 -0.05 12.8 -0.15 12.8 -2.2 12.95 -1.6 11.85 -2.2 12.95 -2.35 12.95 -1.6 11.85 -1.3 11.35 -1.35 10.0 -1.4 9.25 -1.45 9.25 -1.45 9.3 Q-1.75 9.5 -1.6 10.2 -1.45 11.05 -1.6 11.25 -2.3 12.2 -2.45 13.35 L-2.5 13.85 -2.65 16.05 -3.8 15.65 -4.7 15.35 -5.6 14.65 -6.2 13.6 -5.85 13.25 -5.05 12.45 -4.95 12.35 -3.95 11.35 -4.15 10.45 -4.4 9.45 -4.0 7.6 -3.95 7.4 -2.95 7.0 -2.85 6.95 -2.8 6.9 -2.85 6.95 -2.95 7.0 -2.9 6.95 -2.8 6.9 -2.7 6.85 -2.1 6.3 -1.85 5.85 -1.9 4.6 -2.7 3.85 -3.25 3.15 -3.35 3.05 -3.35 3.0 -3.7 2.4 -3.75 2.0 -3.75 1.9 -2.4 1.2 -2.35 1.15 -1.9 1.0 -1.8 0.8 -1.85 0.8 -4.95 2.45 -7.0 2.3 -7.0 2.2 -7.3 0.45 -7.75 0.0 -8.0 -0.25 -7.85 -1.5 -6.95 -3.85 -6.0 -3.4 -5.45 -3.15 -5.3 -3.15 -4.0 -3.4 -3.7 -3.45 -3.65 -3.45 -1.55 -1.3 -1.55 -1.2 -1.55 -1.1 -1.65 -0.25 -1.45 -0.6 -0.95 -0.35 -0.35 -0.1 0.2 0.05 0.2 0.1 0.2 0.5 0.1 0.6 0.15 0.9 0.2 1.4 0.15 1.85 0.3 2.7 0.3 3.05 0.35 3.15 0.35 3.2 0.45 3.55 0.5 3.75 0.45 3.6 0.45 3.55 0.45 3.6 0.5 3.75 0.65 4.2 1.6 5.95 1.55 6.1 1.7 6.15 1.8 6.1 2.2 6.05 2.75 5.75 2.65 6.35 2.15 7.6 2.05 8.3 1.75 9.8 1.6 12.6 1.75 9.8 2.05 8.3 2.15 7.6 2.65 6.35 M-6.0 -3.4 L-6.7 -3.65 -7.75 -1.5 -7.9 -0.3 -7.75 0.0 -7.9 -0.3 -7.75 -1.5 -6.7 -3.65 -6.0 -3.4 M-4.0 -3.4 L-5.25 -3.15 -5.3 -3.15 -5.25 -3.15 -4.0 -3.4 M0.2 0.1 L-0.8 -0.2 -0.95 -0.35 -0.8 -0.2 0.2 0.1 M-1.55 -1.2 L-3.7 -3.45 -1.55 -1.2 M-3.75 2.0 L-3.4 1.85 -2.4 1.2 -3.4 1.85 -3.75 2.0 M-3.8 15.65 L-4.5 15.4 -5.5 14.65 -6.2 13.6 -5.5 14.65 -4.5 15.4 -3.8 15.65 M-1.65 -0.25 L-1.85 0.8 -1.65 -0.25 M2.05 8.3 Q0.1 7.6 -1.4 9.25 0.1 7.6 2.05 8.3" fill="#394039" fill-rule="evenodd" stroke="none"/>
    <path d="M1.7 13.3 L1.75 13.3 1.9 14.8 1.95 15.35 2.0 15.4 3.25 17.2 2.95 17.9 2.45 18.95 0.25 18.85 0.15 18.85 -2.2 16.05 -2.3 15.9 -2.25 15.2 -2.15 13.55 -1.9 13.2 0.1 12.85 0.5 12.95 1.7 13.3 1.9 14.8 1.7 13.3 M0.25 18.85 L-2.1 16.1 -2.25 15.2 -2.1 16.1 0.25 18.85 M2.0 15.4 L3.15 17.2 2.95 17.9 3.15 17.2 2.0 15.4" fill="#596157" fill-rule="evenodd" stroke="none"/>
    <path d="M-7.1 7.3 L-7.5 6.7 -7.3 5.05 -7.05 2.5 -5.3 2.55 -3.95 2.25 -3.9 2.25 -3.35 3.0 -3.35 3.05 -3.25 3.15 -2.85 3.75 -2.7 3.85 -1.9 4.6 -1.95 5.7 -2.2 4.55 -3.95 2.25 -2.2 4.55 -1.95 5.7 -1.95 5.9 -1.95 6.0 -2.7 6.85 -2.8 6.9 -2.9 6.95 -4.0 6.95 -4.0 7.2 -4.2 7.2 -4.5 9.1 -4.2 7.2 -4.0 7.2 -4.0 7.6 -4.5 9.1 -4.55 9.2 -4.55 9.25 -4.15 10.45 -3.95 11.35 -4.95 12.35 -5.05 12.45 -6.15 13.5 -6.5 8.1 -7.1 7.3 -7.45 6.6 -7.3 5.05 -7.45 6.6 -7.1 7.3 M-1.95 5.9 L-2.8 6.9 -1.95 5.9 M-4.95 12.35 L-4.05 11.3 -4.55 9.25 -4.05 11.3 -4.95 12.35" fill="url(#gradient0)" fill-rule="evenodd" stroke="none"/>
    <path d="M0.5 0.2 L0.7 -0.05 0.9 -0.5 1.15 -0.7 1.7 -1.3 2.1 -2.45 2.3 -3.0 2.35 -3.25 3.2 -3.75 3.65 -4.1 M0.2 0.5 L0.5 0.2" ffdec:has-small-stroke="true" ffdec:original-stroke-width="0.95" fill="none" stroke="#1d201d" stroke-linecap="round" stroke-linejoin="round" stroke-width="1.0"/>
    <path d="M4.45 -4.3 L4.8 -4.3 5.8 -1.65 5.95 -1.35 6.1 -0.9 6.0 -0.6 5.6 0.95 5.25 2.15 4.1 4.1 2.7 5.5 2.2 6.05 M2.95 17.9 L2.55 19.1 M-7.0 2.2 L-7.45 0.75 -7.75 0.0 -7.9 -0.3 -7.75 -1.5 -6.7 -3.65 -6.0 -3.4 -5.3 -3.15 -5.25 -3.15 -4.0 -3.4 -3.7 -3.45 -1.55 -1.2 M3.85 -4.25 L4.45 -4.3 M2.95 17.9 L3.15 17.2 2.0 15.4" ffdec:has-small-stroke="true" ffdec:original-stroke-width="0.95" fill="none" stroke="#272b26" stroke-linecap="round" stroke-linejoin="round" stroke-width="1.0"/>
    <path d="M-1.55 -1.1 L-1.55 -1.05 -0.95 -0.35 -0.8 -0.2 0.2 0.1 0.5 0.2" ffdec:has-small-stroke="true" ffdec:original-stroke-width="0.95" fill="none" stroke="#000000" stroke-linecap="round" stroke-linejoin="round" stroke-width="1.0"/>
    <path d="M0.15 0.9 L0.45 3.35 0.45 3.55 0.45 3.6 0.5 3.75 1.6 5.95 1.7 6.15 M-2.8 6.9 L-2.85 6.95 -2.95 7.0 -4.0 7.2 -4.2 7.2 -4.5 9.1 -4.55 9.25 -4.05 11.3 -4.95 12.35 -5.05 12.45 -5.85 13.25 M-3.95 2.25 L-2.2 4.55 -1.95 5.7 -1.9 5.85 -1.95 5.9 -2.8 6.9 M-4.0 2.1 L-3.95 2.25" ffdec:has-small-stroke="true" ffdec:original-stroke-width="0.95" fill="none" stroke="#252925" stroke-linecap="round" stroke-linejoin="round" stroke-width="1.0"/>
    <path d="M3.15 5.1 L2.65 6.35 2.15 7.6 2.05 8.3 1.75 9.8 1.6 12.6 1.6 12.65 1.7 13.3 1.9 14.8 2.0 15.4 M-6.2 13.6 L-6.65 8.1 -7.1 7.3 -7.45 6.6 -7.3 5.05 -7.1 2.35 M-1.6 11.85 L-2.2 12.95 M-1.6 11.85 L-1.35 11.35 -1.35 10.0 -1.4 9.25" ffdec:has-small-stroke="true" ffdec:original-stroke-width="0.95" fill="none" stroke="#1f221e" stroke-linecap="round" stroke-linejoin="round" stroke-width="1.0"/>
    <path d="M1.7 13.3 L0.5 12.95 M-1.9 13.2 L-0.15 12.8 0.1 12.85" ffdec:has-small-stroke="true" ffdec:original-stroke-width="0.95" fill="none" stroke="#262b26" stroke-linecap="round" stroke-linejoin="round" stroke-width="1.0"/>
    <path d="M2.55 19.1 L0.35 19.0 0.25 18.85 -2.1 16.1 -2.25 15.2 -2.3 14.95 -2.45 13.35" ffdec:has-small-stroke="true" ffdec:original-stroke-width="0.95" fill="none" stroke="#1e221e" stroke-linecap="round" stroke-linejoin="round" stroke-width="1.0"/>
    <path d="M-2.2 16.05 L-2.65 16.05 -3.8 15.65 -4.5 15.4 -5.5 14.65 -6.2 13.6 M-7.1 2.35 L-4.95 2.45 -4.0 2.1 -3.75 2.0 -3.4 1.85 -2.4 1.2 -2.35 1.15 -1.85 0.8 -1.65 -0.25 -1.55 -1.05" ffdec:has-small-stroke="true" ffdec:original-stroke-width="0.95" fill="none" stroke="#161b16" stroke-linecap="round" stroke-linejoin="round" stroke-width="1.0"/>
    <path d="M-1.4 9.25 Q0.1 7.6 2.05 8.3" fill="none" stroke="#1f221e" stroke-linecap="round" stroke-linejoin="round" stroke-width="1.0"/>
    <path d="M-0.3 5.5 L0.25 6.65" ffdec:has-small-stroke="true" ffdec:original-stroke-width="0.95" fill="none" stroke="#ffffff" stroke-linecap="round" stroke-linejoin="round" stroke-width="1.0"/>
  </g>
  <defs>
    <linearGradient gradientTransform="matrix(0.0033, 2.0E-4, -2.0E-4, 0.0033, -4.8, 7.85)" gradientUnits="userSpaceOnUse" id="gradient0" spreadMethod="pad" x1="-819.2" x2="819.2">
      <stop offset="0.0" stop-color="#515a4f"/>
      <stop offset="1.0" stop-color="#5c645b"/>
    </linearGradient>
  </defs>
</svg>
