<?xml version="1.0" encoding="UTF-8" standalone="no"?>
<svg xmlns:ffdec="https://www.free-decompiler.com/flash" xmlns:xlink="http://www.w3.org/1999/xlink" ffdec:objectType="shape" height="9.9px" width="15.2px" xmlns="http://www.w3.org/2000/svg">
  <g transform="matrix(1.0, 0.0, 0.0, 1.0, 8.2, 6.8)">
    <path d="M-4.5 -1.45 Q-8.0 -1.95 -7.65 -4.05 -7.35 -6.2 -5.35 -6.3 -0.5 -3.85 2.7 -5.55 3.95 -5.55 4.25 -4.95 L4.3 -4.25 Q4.3 -1.8 3.7 -0.7 0.0 -1.8 -3.85 -1.5 L-4.5 -1.45" fill="#3a2323" fill-rule="evenodd" stroke="none"/>
    <path d="M4.25 -4.95 Q6.45 -4.5 6.5 -2.05 6.55 0.35 5.6 0.25 L3.7 -0.7 1.85 2.15 Q-1.1 3.5 -4.05 0.75 L-4.5 -1.45 -3.85 -1.5 Q0.0 -1.8 3.7 -0.7 4.3 -1.8 4.3 -4.25 L4.25 -4.95" fill="#181212" fill-rule="evenodd" stroke="none"/>
    <path d="M-4.5 -1.45 L-3.85 -1.5 Q0.0 -1.8 3.7 -0.7 4.3 -1.8 4.3 -4.25 L4.25 -4.95" fill="none" stroke="#100a0a" stroke-linecap="round" stroke-linejoin="round" stroke-width="1.0"/>
    <path d="M-4.5 -1.45 Q-8.0 -1.95 -7.65 -4.05 -7.35 -6.2 -5.35 -6.3 -0.5 -3.85 2.7 -5.55 3.95 -5.55 4.25 -4.95 6.45 -4.5 6.5 -2.05 6.55 0.35 5.6 0.25 L3.7 -0.7 1.85 2.15 Q-1.1 3.5 -4.05 0.75 L-4.5 -1.45 Z" fill="none" stroke="#0a0707" stroke-linecap="round" stroke-linejoin="round" stroke-width="1.0"/>
  </g>
</svg>
