<?xml version="1.0" encoding="UTF-8" standalone="no"?>
<svg xmlns:xlink="http://www.w3.org/1999/xlink" height="15.6px" width="104.95px" xmlns="http://www.w3.org/2000/svg">
  <g transform="matrix(1.0, 0.0, 0.0, 1.0, 10.45, 3.15)">
    <path d="M10.55 3.8 L14.9 3.8 14.55 4.0 14.15 6.05 10.5 6.05 10.55 3.8 M16.7 3.45 L18.85 2.2 32.4 2.2 32.45 2.1 33.15 2.1 33.25 2.1 33.45 2.1 34.35 2.1 34.35 3.95 26.4 3.95 26.4 4.5 30.4 4.5 30.4 6.4 26.1 6.4 25.7 6.8 16.45 6.8 Q16.9 5.85 16.35 5.15 L17.8 3.95 17.75 3.45 16.7 3.45 M32.8 1.3 L31.15 -0.4 35.75 -0.4 35.75 1.3 32.8 1.3 M30.1 -1.45 L26.8 -1.45 26.8 -2.65 28.85 -2.65 30.1 -1.45 M26.4 4.5 L26.4 6.1 26.1 6.4 26.4 6.1 26.4 4.5 M-2.6 6.25 Q-4.8 7.8 -4.75 9.2 L-4.85 11.35 -6.25 11.95 -6.7 10.4 -8.05 9.8 -8.45 8.25 -8.05 6.9 Q-7.45 5.6 -9.15 4.95 L-9.15 1.8 -7.6 1.2 -6.8 4.2 -3.9 4.2 -2.6 6.25 M17.8 3.95 L26.4 3.95 17.8 3.95" fill="#333333" fill-rule="evenodd" stroke="none"/>
    <path d="M14.6 -2.65 L14.95 -1.45 17.9 -1.45 20.95 -1.45 23.9 -1.45 26.8 -1.45 30.1 -1.45 31.15 -0.4 32.8 1.3 32.5 1.95 32.4 2.2 18.85 2.2 16.7 3.45 16.15 3.8 14.9 3.8 10.55 3.8 10.55 3.35 10.55 2.4 9.8 1.25 10.55 2.4 10.55 3.35 5.7 3.35 5.7 2.05 6.8 2.05 6.8 1.25 9.8 1.25 8.2 -1.25 11.15 -2.65 14.6 -2.65 M17.35 0.5 L11.85 0.5 17.35 0.5 M-6.25 11.95 Q-8.1 12.0 -9.2 11.25 -11.0 8.9 -8.45 8.25 L-8.05 9.8 -6.7 10.4 -6.25 11.95" fill="#b3987f" fill-rule="evenodd" stroke="none"/>
    <path d="M17.9 -1.45 L14.95 -1.45 14.6 -2.65 17.9 -2.65 17.9 -1.45 17.9 -2.65 20.95 -2.65 23.9 -2.65 23.9 -1.45 20.95 -1.45 17.9 -1.45 M8.2 -1.25 L9.8 1.25 6.8 1.25 6.8 0.35 5.95 -0.5 1.15 -0.5 0.1 0.3 0.1 1.45 0.75 2.05 5.7 2.05 5.7 3.35 10.55 3.35 10.55 3.8 10.5 6.05 5.85 7.2 2.45 4.25 -0.95 4.2 -1.95 4.2 Q-2.65 4.45 -2.7 5.4 L-2.6 6.25 -3.9 4.2 -6.8 4.2 -7.6 1.2 -2.5 -0.4 -0.5 -0.4 0.5 -1.25 8.2 -1.25 M26.8 -1.45 L23.9 -1.45 23.9 -2.65 26.8 -2.65 26.8 -1.45 M20.95 -1.45 L20.95 -2.65 20.95 -1.45 M-3.8 0.95 L-4.05 1.55 -3.8 2.15 -3.2 2.35 -2.6 2.15 -2.35 1.55 Q-2.35 1.2 -2.6 0.95 -2.85 0.7 -3.2 0.7 L-3.8 0.95" fill="#242424" fill-rule="evenodd" stroke="none"/>
    <path d="M5.7 2.05 L0.75 2.05 0.1 1.45 0.1 0.3 1.15 -0.5 5.95 -0.5 6.8 0.35 6.8 1.25 6.8 2.05 5.7 2.05" fill="#1f1f1f" fill-rule="evenodd" stroke="none"/>
    <path d="M-3.8 0.95 L-3.2 0.7 Q-2.85 0.7 -2.6 0.95 -2.35 1.2 -2.35 1.55 L-2.6 2.15 -3.2 2.35 -3.8 2.15 -4.05 1.55 -3.8 0.95" fill="#00bcfa" fill-rule="evenodd" stroke="none"/>
    <path d="M26.8 -2.65 L28.85 -2.65 30.1 -1.45 M26.8 -1.45 L26.8 -2.65 M31.15 -0.4 L35.75 -0.4 35.75 1.3 32.8 1.3 M32.45 2.1 L33.15 2.1 33.25 2.1 33.45 2.1 34.35 2.1 34.35 3.95 26.4 3.95 26.4 4.5 30.4 4.5 30.4 6.4 26.1 6.4 25.7 6.8 16.45 6.8 M32.5 1.95 L32.45 2.1 M26.1 6.4 L26.4 6.1 26.4 4.5 M-2.6 6.25 Q-4.8 7.8 -4.75 9.2 L-4.85 11.35 -6.25 11.95 M-8.45 8.25 L-8.05 6.9 Q-7.45 5.6 -9.15 4.95 L-9.15 1.8 -7.6 1.2 M26.4 3.95 L17.8 3.95" fill="none" stroke="#222222" stroke-linecap="round" stroke-linejoin="round" stroke-width="1.0"/>
    <path d="M17.9 -1.45 L17.9 -2.65 M20.95 -2.65 L20.95 -1.45 M23.9 -1.45 L23.9 -2.65 M10.5 6.05 L14.15 6.05" fill="none" stroke="#222222" stroke-linecap="round" stroke-linejoin="round" stroke-width="1.0"/>
    <path d="M14.6 -2.65 L14.95 -1.45 17.9 -1.45 20.95 -1.45 23.9 -1.45 26.8 -1.45 30.1 -1.45 31.15 -0.4 32.8 1.3 32.5 1.95 32.4 2.2 18.85 2.2 16.7 3.45 16.15 3.8 14.9 3.8 10.55 3.8 M14.6 -2.65 L11.15 -2.65 8.2 -1.25 M32.45 2.1 L32.4 2.2 M-6.25 11.95 Q-8.1 12.0 -9.2 11.25 -11.0 8.9 -8.45 8.25" fill="none" stroke="#71564d" stroke-linecap="round" stroke-linejoin="round" stroke-width="1.0"/>
    <path d="M9.8 1.25 L10.55 2.4 10.55 3.35 M11.85 0.5 L17.35 0.5" fill="none" stroke="#987367" stroke-linecap="round" stroke-linejoin="round" stroke-width="1.0"/>
    <path d="M8.2 -1.25 L9.8 1.25 6.8 1.25 M10.55 3.35 L10.55 3.8 M5.7 2.05 L5.7 3.35 10.55 3.35 M-6.25 11.95 L-6.7 10.4 -8.05 9.8 -8.45 8.25" fill="none" stroke="#59443d" stroke-linecap="round" stroke-linejoin="round" stroke-width="1.0"/>
    <path d="M-7.6 1.2 L-2.5 -0.4 -0.5 -0.4 0.5 -1.25 8.2 -1.25 M2.45 4.25 Q1.85 4.5 1.4 5.1 L0.75 6.25 -2.6 6.25 -2.7 5.4 Q-2.65 4.45 -1.95 4.2 L-0.95 4.2 2.45 4.25 5.85 7.2 10.5 6.05 M-0.95 4.2 L-1.4 5.25" fill="none" stroke="#171717" stroke-linecap="round" stroke-linejoin="round" stroke-width="1.0"/>
    <path d="M10.55 3.8 L10.5 6.05 M-7.6 1.2 L-6.8 4.2 -3.9 4.2 -2.6 6.25" fill="none" stroke="#191919" stroke-linecap="round" stroke-linejoin="round" stroke-width="1.0"/>
    <path d="M6.8 1.25 L6.8 0.35 5.95 -0.5 1.15 -0.5 0.1 0.3 0.1 1.45 0.75 2.05 5.7 2.05 6.8 2.05 6.8 1.25 Z" fill="none" stroke="#0a0a0a" stroke-linecap="butt" stroke-linejoin="round" stroke-width="1.0"/>
    <path d="M35.0 3.2 L94.0 3.2" fill="none" stroke="url(#gradient0)" stroke-linecap="round" stroke-linejoin="round" stroke-width="1.0"/>
  </g>
  <defs>
    <linearGradient gradientTransform="matrix(0.0556, 0.0, 0.0, 0.0095, 49.5, -4.1)" gradientUnits="userSpaceOnUse" id="gradient0" spreadMethod="pad" x1="-819.2" x2="819.2">
      <stop offset="0.0" stop-color="#00bcfa" stop-opacity="0.49803922"/>
      <stop offset="1.0" stop-color="#00bcfa" stop-opacity="0.09803922"/>
    </linearGradient>
  </defs>
</svg>
