<?xml version="1.0" encoding="UTF-8" standalone="no"?>
<svg xmlns:ffdec="https://www.free-decompiler.com/flash" xmlns:xlink="http://www.w3.org/1999/xlink" ffdec:objectType="shape" height="25.15px" width="17.05px" xmlns="http://www.w3.org/2000/svg">
  <g transform="matrix(1.0, 0.0, 0.0, 1.0, 0.5, 0.5)">
    <path d="M10.35 5.5 L13.75 6.4 13.8 6.4 13.8 9.15 11.2 8.4 11.2 15.3 8.8 15.95 8.8 11.9 8.1 10.35 8.1 6.35 9.2 5.95 10.35 5.5 9.2 5.95 2.8 4.35 3.05 2.15 Q6.35 0.8 8.4 2.15 L8.0 2.95 10.35 5.5 M8.4 2.15 L8.0 2.95 8.4 2.15 M4.35 16.85 L5.15 19.2 6.6 20.3 7.0 17.3 8.8 15.95 8.8 18.7 12.1 19.25 12.6 19.25 13.2 18.6 14.25 20.9 13.15 24.15 6.4 21.85 3.55 20.8 3.55 17.25 4.35 16.85 M6.6 20.3 L6.4 21.85 6.6 20.3" fill="#1c1c1c" fill-rule="evenodd" stroke="none"/>
    <path d="M9.2 5.95 L8.1 6.35 8.1 10.35 8.8 11.9 8.8 15.95 7.0 17.3 6.6 20.3 5.15 19.2 4.35 16.85 5.15 16.45 4.55 7.75 0.7 6.75 0.9 3.9 2.8 4.35 9.2 5.95" fill="#121212" fill-rule="evenodd" stroke="none"/>
    <path d="M13.8 6.4 L13.75 6.4 10.35 5.5 8.0 2.95 8.4 2.15 9.1 0.55 9.35 0.0 12.25 0.0 16.05 0.95 Q15.75 3.65 13.8 6.4" fill="url(#gradient0)" fill-rule="evenodd" stroke="none"/>
    <path d="M8.8 15.95 L11.2 15.3 11.2 8.4 13.8 9.15 13.8 17.9 12.6 19.25 13.8 17.9 13.2 18.6 12.6 19.25 12.1 19.25 8.8 18.7 8.8 15.95" fill="url(#gradient1)" fill-rule="evenodd" stroke="none"/>
    <path d="M0.7 6.75 L4.55 7.75 5.15 16.45 4.35 16.85 3.55 17.25 2.0 16.65 0.0 11.55 0.7 6.75" fill="url(#gradient2)" fill-rule="evenodd" stroke="none"/>
    <path d="M10.35 5.5 L9.2 5.95 8.1 6.35 8.1 10.35 8.8 11.9 8.8 15.95 7.0 17.3 6.6 20.3 5.15 19.2 4.35 16.85 M13.8 9.15 L13.8 6.4 M9.35 0.0 L9.1 0.55 8.4 2.15 8.0 2.95 M8.4 2.15 Q6.35 0.8 3.05 2.15 L2.8 4.35 9.2 5.95 M0.7 6.75 L0.9 3.9 2.8 4.35 M3.55 17.25 L3.55 20.8 6.4 21.85 6.6 20.3 M13.2 18.6 L14.25 20.9 13.15 24.15 6.4 21.85 M13.2 18.6 L12.6 19.25 M13.8 17.9 L13.2 18.6" fill="none" stroke="#070a0a" stroke-linecap="round" stroke-linejoin="round" stroke-width="1.0"/>
    <path d="M13.8 6.4 L13.75 6.4 10.35 5.5 8.0 2.95 8.4 2.15 9.1 0.55 M8.8 15.95 L11.2 15.3 11.2 8.4 13.8 9.15 13.8 17.9 12.6 19.25 12.1 19.25 8.8 18.7 8.8 15.95 M13.8 6.4 Q15.75 3.65 16.05 0.95 L12.25 0.0 9.35 0.0 M0.7 6.75 L4.55 7.75 5.15 16.45 4.35 16.85 3.55 17.25 2.0 16.65 0.0 11.55 0.7 6.75 Z" fill="none" stroke="#181220" stroke-linecap="round" stroke-linejoin="round" stroke-width="1.0"/>
    <path d="M15.9 2.5 L15.9 2.65 15.7 3.3 15.55 3.75 15.3 4.4 15.15 4.6 14.85 4.95 14.8 5.0 14.7 5.05 14.6 5.1 14.2 4.8 13.05 4.0 14.05 1.85 15.9 1.95 15.95 2.1 Q15.85 2.3 15.9 2.45 L15.9 2.5 15.9 2.45 Q15.85 2.3 15.95 2.1 L15.95 2.15 15.95 2.35 15.9 2.5 M14.65 4.65 L15.0 4.5 15.3 4.2 15.55 3.75 15.3 4.2 15.0 4.5 14.65 4.65" fill="url(#gradient3)" fill-rule="evenodd" stroke="none"/>
    <path d="M15.55 3.75 L15.6 3.65 15.9 2.5 15.9 2.45 Q15.85 2.3 15.95 2.1 M15.55 3.75 L15.3 4.2 15.0 4.5 14.65 4.65" fill="none" stroke="#331f8e" stroke-linecap="round" stroke-linejoin="round" stroke-width="0.8"/>
    <path d="M15.9 1.95 L14.05 1.85 13.05 4.0 14.2 4.8" fill="none" stroke="#181220" stroke-linecap="round" stroke-linejoin="round" stroke-width="1.0"/>
  </g>
  <defs>
    <radialGradient cx="0" cy="0" gradientTransform="matrix(0.0091, 0.0, 0.0, 0.0091, 10.15, 2.35)" gradientUnits="userSpaceOnUse" id="gradient0" r="819.2" spreadMethod="pad">
      <stop offset="0.34901960784313724" stop-color="#211a2e"/>
      <stop offset="1.0" stop-color="#624f85"/>
    </radialGradient>
    <radialGradient cx="0" cy="0" gradientTransform="matrix(0.0111, 0.0, 0.0, 0.0154, 9.55, 14.1)" gradientUnits="userSpaceOnUse" id="gradient1" r="819.2" spreadMethod="pad">
      <stop offset="0.34901960784313724" stop-color="#211a2e"/>
      <stop offset="1.0" stop-color="#624f85"/>
    </radialGradient>
    <radialGradient cx="0" cy="0" gradientTransform="matrix(0.0064, 0.0, 0.0, 0.0166, 4.3, 9.2)" gradientUnits="userSpaceOnUse" id="gradient2" r="819.2" spreadMethod="pad">
      <stop offset="0.34901960784313724" stop-color="#211a2e"/>
      <stop offset="1.0" stop-color="#624f85"/>
    </radialGradient>
    <linearGradient gradientTransform="matrix(0.0017, 0.0, 0.0, 0.002, 14.45, 3.45)" gradientUnits="userSpaceOnUse" id="gradient3" spreadMethod="pad" x1="-819.2" x2="819.2">
      <stop offset="0.0" stop-color="#510abb"/>
      <stop offset="0.6" stop-color="#8d4fe9"/>
      <stop offset="1.0" stop-color="#bd66ff"/>
    </linearGradient>
  </defs>
</svg>
