<?xml version="1.0" encoding="UTF-8" standalone="no"?>
<svg xmlns:xlink="http://www.w3.org/1999/xlink" height="27.3px" width="72.2px" xmlns="http://www.w3.org/2000/svg">
  <g transform="matrix(1.0, 0.0, 0.0, 1.0, 31.5, 13.75)">
    <path d="M29.55 -9.85 Q40.35 -5.8 40.7 -0.1 41.1 5.6 30.45 9.55 19.85 13.55 4.8 13.55 -10.25 13.55 -20.85 9.55 L-23.8 8.35 Q-31.5 4.75 -31.5 -0.05 -31.5 -4.85 -23.8 -8.45 L-20.85 -9.65 Q-10.25 -13.65 4.2 -13.75 18.7 -13.85 29.55 -9.85" fill="url(#gradient0)" fill-rule="evenodd" stroke="none"/>
    <path d="M26.5 -0.2 Q-5.6 5.85 -13.15 0.0 -5.6 -5.9 26.5 -0.2" fill="#faf7ee" fill-rule="evenodd" stroke="none"/>
    <path d="M26.5 -0.2 Q-5.6 5.85 -13.15 0.0 -5.6 -5.9 26.5 -0.2 Z" fill="none" stroke="#fda35c" stroke-linecap="round" stroke-linejoin="round" stroke-width="2.0"/>
  </g>
  <defs>
    <radialGradient cx="0" cy="0" gradientTransform="matrix(0.0, 0.0156, -0.0401, 0.0, 4.8, -0.05)" gradientUnits="userSpaceOnUse" id="gradient0" r="819.2" spreadMethod="reflect">
      <stop offset="0.0" stop-color="#fad2ac" stop-opacity="0.49803922"/>
      <stop offset="1.0" stop-color="#fad4b0" stop-opacity="0.0"/>
    </radialGradient>
  </defs>
</svg>
