<?xml version="1.0" encoding="UTF-8" standalone="no"?>
<svg xmlns:ffdec="https://www.free-decompiler.com/flash" xmlns:xlink="http://www.w3.org/1999/xlink" ffdec:objectType="shape" height="41.2px" width="41.2px" xmlns="http://www.w3.org/2000/svg">
  <g transform="matrix(1.0, 0.0, 0.0, 1.0, 21.05, 20.1)">
    <path d="M-0.45 -20.1 Q8.1 -20.1 14.1 -14.1 20.15 -8.05 20.15 0.5 20.15 9.05 14.1 15.05 8.1 21.1 -0.45 21.1 -9.0 21.1 -15.05 15.05 -21.05 9.05 -21.05 0.5 -21.05 -8.05 -15.05 -14.1 -9.0 -20.1 -0.45 -20.1" fill="url(#gradient0)" fill-rule="evenodd" stroke="none"/>
    <path d="M4.9 -2.55 Q6.95 -1.5 6.95 0.05 6.95 1.5 4.9 2.55 2.95 3.6 0.0 3.6 -2.95 3.6 -5.0 2.55 -6.95 1.5 -6.95 0.05 -6.95 -1.5 -5.0 -2.55 -2.95 -3.55 0.0 -3.55 2.95 -3.55 4.9 -2.55" fill="#ffffff" fill-rule="evenodd" stroke="none"/>
    <path d="M4.9 -2.55 Q6.95 -1.5 6.95 0.05 6.95 1.5 4.9 2.55 2.95 3.6 0.0 3.6 -2.95 3.6 -5.0 2.55 -6.95 1.5 -6.95 0.05 -6.95 -1.5 -5.0 -2.55 -2.95 -3.55 0.0 -3.55 2.95 -3.55 4.9 -2.55 Z" fill="none" stroke="#6fff7c" stroke-linecap="round" stroke-linejoin="round" stroke-width="1.0"/>
  </g>
  <defs>
    <radialGradient cx="0" cy="0" gradientTransform="matrix(0.0253, 0.0, 0.0, 0.0253, -0.45, 0.5)" gradientUnits="userSpaceOnUse" id="gradient0" r="819.2" spreadMethod="pad">
      <stop offset="0.0" stop-color="#d5ffd9" stop-opacity="0.4509804"/>
      <stop offset="1.0" stop-color="#d5ffd5" stop-opacity="0.0"/>
    </radialGradient>
  </defs>
</svg>
