<?xml version="1.0" encoding="UTF-8" standalone="no"?>
<svg xmlns:xlink="http://www.w3.org/1999/xlink" height="45.8px" width="67.0px" xmlns="http://www.w3.org/2000/svg">
  <g transform="matrix(1.0, 0.0, 0.0, 1.0, 33.5, 22.95)">
    <path d="M0.35 -0.65 L0.1 -0.65 -7.85 -0.5 -7.9 -0.5 -18.8 -0.1 -22.4 0.05 -10.0 0.45 -0.35 0.7 0.1 0.7 7.85 0.55 7.9 0.55 22.4 0.0 19.6 -0.1 9.95 -0.45 0.35 -0.65 M0.1 -1.45 L0.2 -1.45 6.7 -1.3 28.95 -0.6 29.1 -0.6 29.55 -0.45 29.75 -0.1 29.6 0.25 29.2 0.4 27.8 0.45 16.55 0.9 5.3 1.35 0.1 1.45 -0.15 1.45 -0.2 1.45 -6.6 1.3 -28.9 0.6 -29.05 0.6 -29.55 0.45 -29.75 0.15 -29.65 -0.1 -29.55 -0.2 -29.1 -0.4 -27.75 -0.45 -27.7 -0.45 -16.5 -0.9 -5.2 -1.35 0.1 -1.45" fill="#139ffd" fill-opacity="0.2" fill-rule="evenodd" stroke="none"/>
    <path d="M0.35 -0.65 L9.95 -0.45 19.6 -0.1 22.4 0.0 7.9 0.55 7.85 0.55 0.1 0.7 -0.35 0.7 -10.0 0.45 -22.4 0.05 -18.8 -0.1 -7.9 -0.5 -7.85 -0.5 0.1 -0.65 0.35 -0.65" fill="#eef5ff" fill-rule="evenodd" stroke="none"/>
    <path d="M33.5 -0.05 Q33.5 9.5 23.7 16.15 13.9 22.85 0.0 22.85 -13.9 22.85 -23.7 16.15 -33.5 9.5 -33.5 -0.05 -33.5 -9.55 -23.7 -16.25 -13.9 -22.95 0.0 -22.95 13.9 -22.95 23.7 -16.25 33.5 -9.55 33.5 -0.05" fill="url(#gradient0)" fill-rule="evenodd" stroke="none"/>
  </g>
  <defs>
    <radialGradient cx="0" cy="0" gradientTransform="matrix(0.04, 0.0, 0.0, 0.0273, 0.0, -0.05)" gradientUnits="userSpaceOnUse" id="gradient0" r="819.2" spreadMethod="pad">
      <stop offset="0.0" stop-color="#ffffff" stop-opacity="0.5019608"/>
      <stop offset="0.19215686274509805" stop-color="#ffffff" stop-opacity="0.2"/>
      <stop offset="1.0" stop-color="#ffffff" stop-opacity="0.0"/>
    </radialGradient>
  </defs>
</svg>
