<?xml version="1.0" encoding="UTF-8" standalone="no"?>
<svg xmlns:ffdec="https://www.free-decompiler.com/flash" xmlns:xlink="http://www.w3.org/1999/xlink" ffdec:objectType="shape" height="26.8px" width="14.8px" xmlns="http://www.w3.org/2000/svg">
  <g transform="matrix(1.0, 0.0, 0.0, 1.0, 1.25, -0.75)">
    <path d="M6.3 26.05 L5.05 26.3 2.95 24.05 2.15 19.7 0.8 17.9 0.1 14.7 2.35 15.7 4.55 20.95 3.55 21.55 4.2 22.65 5.6 25.05 6.3 26.05 M2.15 19.7 L3.55 21.55 2.15 19.7" fill="#999999" fill-rule="evenodd" stroke="none"/>
    <path d="M9.75 21.75 L11.0 23.75 Q11.5 24.85 11.05 25.8 9.9 27.15 8.35 27.05 7.2 27.0 6.3 26.05 L5.6 25.05 4.2 22.65 4.5 23.1 3.85 22.0 Q3.85 21.75 4.1 21.85 L4.85 22.3 5.7 22.55 6.65 22.85 Q7.75 22.95 8.6 22.45 L8.7 22.4 9.65 21.6 9.75 21.75" fill="url(#gradient0)" fill-rule="evenodd" stroke="none"/>
    <path d="M6.15 2.5 L8.55 1.25 12.1 1.25 Q12.85 3.55 13.05 5.85 L13.05 7.25 10.6 7.25 7.6 10.55 10.6 7.25 13.05 7.25 12.55 11.2 12.1 12.9 11.0 13.4 10.45 13.6 7.6 10.55 7.25 10.2 Q6.75 8.1 6.9 6.1 L6.15 2.5" fill="url(#gradient1)" fill-rule="evenodd" stroke="none"/>
    <path d="M1.75 5.35 L2.1 4.5 Q2.5 3.5 3.35 2.6 L4.9 9.65 1.85 9.65 1.65 7.5 1.65 7.4 1.55 6.4 1.75 5.35" fill="url(#gradient2)" fill-rule="evenodd" stroke="none"/>
    <path d="M6.15 2.5 L6.9 6.1 Q6.75 8.1 7.25 10.2 L7.6 10.55 10.45 13.6 11.0 13.4 Q9.9 17.0 10.25 21.0 L9.75 21.75 9.65 21.6 8.7 22.4 8.6 22.45 Q7.75 22.95 6.65 22.85 L5.7 22.55 4.55 20.95 6.0 20.05 4.75 16.35 5.9 14.45 4.9 9.65 3.35 2.6 6.15 2.5" fill="#191919" fill-rule="evenodd" stroke="none"/>
    <path d="M0.1 14.7 Q-0.05 13.8 0.2 12.25 L0.45 10.9 1.85 9.65 4.9 9.65 5.9 14.45 4.75 16.35 6.0 20.05 4.55 20.95 2.35 15.7 0.1 14.7" fill="url(#gradient3)" fill-rule="evenodd" stroke="none"/>
    <path d="M7.25 10.2 L7.6 10.55 M11.0 13.4 Q9.9 17.0 10.25 21.0 L9.75 21.75 9.65 21.6 8.7 22.4 8.6 22.45 Q7.75 22.95 6.65 22.85 L5.7 22.55 4.55 20.95 6.0 20.05 4.75 16.35 5.9 14.45 4.9 9.65 1.85 9.65 0.45 10.9 0.2 12.25 Q-0.05 13.8 0.1 14.7 L2.35 15.7 4.55 20.95 M3.35 2.6 L6.15 2.5 M1.65 7.5 L1.65 7.4" fill="none" stroke="#0e0c0c" stroke-linecap="round" stroke-linejoin="round" stroke-width="1.0"/>
    <path d="M0.2 12.25 L-0.5 11.0 Q-0.85 10.25 -0.7 9.3 -0.6 8.3 -0.05 8.05 L0.05 8.0 0.05 6.9 Q0.15 5.9 0.7 5.65 L1.7 5.35 1.75 5.35 M1.65 7.4 L0.95 7.75 0.05 8.0 0.25 8.6 0.95 9.85" fill="none" stroke="#080807" stroke-linecap="round" stroke-linejoin="round" stroke-opacity="0.8784314" stroke-width="1.0"/>
    <path d="M13.05 7.25 L13.05 5.85 Q12.85 3.55 12.1 1.25 L8.55 1.25 6.15 2.5 6.9 6.1 Q6.75 8.1 7.25 10.2 M7.6 10.55 L10.6 7.25 13.05 7.25 12.55 11.2 12.1 12.9 11.0 13.4 10.45 13.6 7.6 10.55 M9.75 21.75 L11.0 23.75 Q11.5 24.85 11.05 25.8 9.9 27.15 8.35 27.05 7.2 27.0 6.3 26.05 L5.05 26.3 2.95 24.05 2.15 19.7 0.8 17.9 0.1 14.7 M1.75 5.35 L2.1 4.5 Q2.5 3.5 3.35 2.6 L4.9 9.65 M1.65 7.4 L1.55 6.4 1.75 5.35 M1.85 9.65 L1.65 7.5 M4.2 22.65 L4.5 23.1 3.85 22.0 4.2 22.65 3.55 21.55 2.15 19.7 M3.55 21.55 L3.85 22.0 M4.2 22.65 L5.6 25.05 6.3 26.05" fill="none" stroke="#474747" stroke-linecap="round" stroke-linejoin="round" stroke-width="1.0"/>
  </g>
  <defs>
    <radialGradient cx="0" cy="0" gradientTransform="matrix(0.0057, 0.0, 0.0, 0.0057, 7.55, 24.35)" gradientUnits="userSpaceOnUse" id="gradient0" r="819.2" spreadMethod="pad">
      <stop offset="0.0" stop-color="#cccccc"/>
      <stop offset="1.0" stop-color="#666666"/>
    </radialGradient>
    <radialGradient cx="0" cy="0" gradientTransform="matrix(0.0081, 0.0, 0.0, 0.0081, 11.4, 7.85)" gradientUnits="userSpaceOnUse" id="gradient1" r="819.2" spreadMethod="pad">
      <stop offset="0.0" stop-color="#cccccc"/>
      <stop offset="1.0" stop-color="#666666"/>
    </radialGradient>
    <radialGradient cx="0" cy="0" gradientTransform="matrix(0.0048, 0.0, 0.0, 0.0048, 3.2, 6.1)" gradientUnits="userSpaceOnUse" id="gradient2" r="819.2" spreadMethod="pad">
      <stop offset="0.0" stop-color="#cccccc"/>
      <stop offset="1.0" stop-color="#666666"/>
    </radialGradient>
    <radialGradient cx="0" cy="0" gradientTransform="matrix(0.0078, 0.0, 0.0, 0.0078, 4.05, 15.6)" gradientUnits="userSpaceOnUse" id="gradient3" r="819.2" spreadMethod="pad">
      <stop offset="0.0" stop-color="#333333"/>
      <stop offset="1.0" stop-color="#000000"/>
    </radialGradient>
  </defs>
</svg>
