<?xml version="1.0" encoding="UTF-8" standalone="no"?>
<svg xmlns:xlink="http://www.w3.org/1999/xlink" height="45.8px" width="91.6px" xmlns="http://www.w3.org/2000/svg">
  <g transform="matrix(1.0, 0.0, 0.0, 1.0, 45.8, 22.95)">
    <path d="M0.5 -1.15 L13.4 -0.8 26.35 -0.2 30.15 0.0 10.65 1.0 10.55 1.0 0.15 1.25 -0.5 1.25 -13.45 0.8 -30.15 0.1 -25.25 -0.2 -10.6 -0.9 -10.55 -0.9 Q-5.1 -1.35 0.15 -1.15 L0.5 -1.15" fill="#d7eeff" fill-rule="evenodd" stroke="none"/>
    <path d="M0.5 -1.15 L0.15 -1.15 Q-5.1 -1.35 -10.55 -0.9 L-10.6 -0.9 -25.25 -0.2 -30.15 0.1 -13.45 0.8 -0.5 1.25 0.15 1.25 10.55 1.0 10.65 1.0 30.15 0.0 26.35 -0.2 13.4 -0.8 0.5 -1.15 M0.3 -2.6 L9.0 -2.35 38.9 -1.1 39.1 -1.1 39.7 -0.8 40.0 -0.2 39.8 0.45 39.25 0.7 37.35 0.8 22.25 1.6 7.1 2.4 0.15 2.6 -0.2 2.6 -0.3 2.6 -8.9 2.35 -38.85 1.1 -39.05 1.1 Q-39.4 1.1 -39.7 0.8 L-40.0 0.25 -39.85 -0.2 -39.7 -0.35 -39.1 -0.7 -37.3 -0.8 -37.25 -0.8 -22.2 -1.6 -7.0 -2.4 0.15 -2.6 0.3 -2.6" fill="#6fa8ff" fill-opacity="0.3019608" fill-rule="evenodd" stroke="none"/>
    <path d="M32.4 -16.25 Q45.8 -9.55 45.8 -0.05 45.8 9.5 32.4 16.15 19.0 22.85 0.0 22.85 -19.0 22.85 -32.4 16.15 -45.8 9.5 -45.8 -0.05 -45.8 -9.55 -32.4 -16.25 -19.0 -22.95 0.0 -22.95 19.0 -22.95 32.4 -16.25" fill="url(#gradient0)" fill-rule="evenodd" stroke="none"/>
  </g>
  <defs>
    <radialGradient cx="0" cy="0" gradientTransform="matrix(0.0546, 0.0, 0.0, 0.0273, 0.0, -0.05)" gradientUnits="userSpaceOnUse" id="gradient0" r="819.2" spreadMethod="pad">
      <stop offset="0.0" stop-color="#ffffff" stop-opacity="0.2"/>
      <stop offset="0.19215686274509805" stop-color="#ffffff" stop-opacity="0.101960786"/>
      <stop offset="1.0" stop-color="#ffffff" stop-opacity="0.0"/>
    </radialGradient>
  </defs>
</svg>
