<?xml version="1.0" encoding="UTF-8" standalone="no"?>
<svg xmlns:xlink="http://www.w3.org/1999/xlink" height="26.4px" width="8.0px" xmlns="http://www.w3.org/2000/svg">
  <g transform="matrix(1.0, 0.0, 0.0, 1.0, -52.55, 13.8)">
    <path d="M52.6 12.6 Q52.35 11.95 53.0 8.65 53.45 5.0 55.0 -0.45 56.5 -5.85 58.2 -9.8 59.4 -13.15 59.95 -13.45 L52.6 12.6" fill="url(#gradient0)" fill-rule="evenodd" stroke="none"/>
    <path d="M59.95 -13.45 L60.0 -13.45 60.3 -13.8 Q60.85 -13.8 60.15 -9.8 59.45 -5.85 57.95 -0.45 56.4 5.0 54.95 8.65 53.4 12.6 52.85 12.6 L52.65 12.6 Q52.75 12.3 52.6 12.6 L59.95 -13.45" fill="url(#gradient1)" fill-rule="evenodd" stroke="none"/>
  </g>
  <defs>
    <radialGradient cx="0" cy="0" gradientTransform="matrix(-0.004, 0.0143, -0.0018, 0.0, 56.5, -0.45)" gradientUnits="userSpaceOnUse" id="gradient0" r="819.2" spreadMethod="pad">
      <stop offset="0.17647058823529413" stop-color="#ffffff"/>
      <stop offset="0.5529411764705883" stop-color="#ffffff" stop-opacity="0.77254903"/>
      <stop offset="1.0" stop-color="#ffcccc" stop-opacity="0.0"/>
    </radialGradient>
    <radialGradient cx="0" cy="0" gradientTransform="matrix(-0.004, 0.0143, -0.0017, 0.0, 56.55, -0.45)" gradientUnits="userSpaceOnUse" id="gradient1" r="819.2" spreadMethod="pad">
      <stop offset="0.17647058823529413" stop-color="#ffffff"/>
      <stop offset="0.5529411764705883" stop-color="#ffffff" stop-opacity="0.77254903"/>
      <stop offset="1.0" stop-color="#ffcccc" stop-opacity="0.0"/>
    </radialGradient>
  </defs>
</svg>
