<?xml version="1.0" encoding="UTF-8" standalone="no"?>
<svg xmlns:xlink="http://www.w3.org/1999/xlink" height="6.5px" width="43.8px" xmlns="http://www.w3.org/2000/svg">
  <g transform="matrix(1.0, 0.0, 0.0, 1.0, 3.9, 3.25)">
    <path d="M29.5 -2.3 Q39.9 -1.35 39.9 0.0 39.9 1.35 29.5 2.3 L4.2 3.25 3.25 3.25 3.25 -3.25 4.2 -3.25 29.5 -2.3" fill="url(#gradient0)" fill-rule="evenodd" stroke="none"/>
    <path d="M-2.2 -1.3 L3.05 -1.3 3.05 1.15 -2.2 1.15 Q-2.7 1.15 -3.05 0.8 -3.4 0.45 -3.4 -0.05 L-3.05 -0.95 Q-2.7 -1.3 -2.2 -1.3" fill="#a3a3a3" fill-rule="evenodd" stroke="none"/>
    <path d="M-2.2 -1.3 Q-2.7 -1.3 -3.05 -0.95 L-3.4 -0.05 Q-3.4 0.45 -3.05 0.8 -2.7 1.15 -2.2 1.15 L3.05 1.15 3.05 -1.3 -2.2 -1.3 Z" fill="none" stroke="#353536" stroke-linecap="round" stroke-linejoin="round" stroke-width="1.0"/>
    <path d="M4.15 -0.1 L0.95 -0.05" fill="none" stroke="#2d2f33" stroke-linecap="round" stroke-linejoin="round" stroke-width="1.0"/>
    <path d="M4.15 1.6 L0.95 1.6" fill="none" stroke="#2d2f33" stroke-linecap="round" stroke-linejoin="round" stroke-width="1.0"/>
    <path d="M4.15 -1.75 L0.95 -1.75" fill="none" stroke="#2d2f33" stroke-linecap="round" stroke-linejoin="round" stroke-width="1.0"/>
    <path d="M-1.45 1.15 L-1.45 -1.15" fill="none" stroke="#2d2f33" stroke-linecap="round" stroke-linejoin="round" stroke-width="1.0"/>
  </g>
  <defs>
    <radialGradient cx="0" cy="0" gradientTransform="matrix(0.0442, 0.0, 0.0, 0.004, 4.2, 0.0)" gradientUnits="userSpaceOnUse" id="gradient0" r="819.2" spreadMethod="pad">
      <stop offset="0.0" stop-color="#fff9d4"/>
      <stop offset="1.0" stop-color="#ffad5d" stop-opacity="0.0"/>
    </radialGradient>
  </defs>
</svg>
