<?xml version="1.0" encoding="UTF-8" standalone="no"?>
<svg xmlns:xlink="http://www.w3.org/1999/xlink" height="14.8px" width="39.0px" xmlns="http://www.w3.org/2000/svg">
  <g transform="matrix(1.0, 0.0, 0.0, 1.0, 10.2, 5.65)">
    <path d="M2.5 -0.8 L1.85 -0.8 1.85 -2.15 1.85 -0.8 2.5 -0.8 M5.7 -0.8 L5.7 -2.1 4.7 -1.45 3.7 -2.1 3.7 -0.8 3.7 -2.1 4.7 -1.45 5.7 -2.1 5.7 -0.8 M15.45 -3.5 L15.8 -3.5 18.05 -0.15 19.05 0.5 28.3 0.5 28.3 4.0 27.95 4.55 27.35 4.55 27.35 2.25 16.9 2.25 15.55 2.25 14.5 3.35 10.35 3.25 9.2 2.1 10.35 3.25 14.5 3.35 15.55 2.25 16.9 2.25 16.9 4.25 16.1 4.3 15.35 4.9 9.05 4.9 8.5 4.9 8.1 4.45 7.85 4.2 7.95 1.95 5.1 1.85 4.15 1.8 3.15 4.45 1.8 7.9 Q1.15 8.8 -0.45 8.6 L-1.9 7.65 Q-3.4 6.75 -5.25 6.75 -6.95 5.25 -9.7 4.5 L-8.25 -2.45 -7.7 -2.6 -0.7 -2.6 0.25 -3.5 7.35 -3.5 8.3 -3.5 9.05 -3.5 10.25 -3.5 11.25 -3.5 12.25 -3.5 13.25 -3.5 14.2 -3.5 15.45 -3.5 M15.05 -0.25 L14.4 -1.05 10.3 -1.05 10.3 0.8 15.05 0.8 15.05 -0.25 15.05 0.8 10.3 0.8 10.3 -1.05 14.4 -1.05 15.05 -0.25 M0.85 1.65 Q1.0 1.0 0.3 0.75 L-1.5 0.7 Q-2.3 1.2 -2.3 1.7 L-2.2 2.45 -2.3 3.05 -2.4 4.05 Q-2.35 4.8 -1.8 5.05 L-1.25 5.0 0.0 3.3 0.85 1.65 M-8.1 3.0 L-8.1 2.75 -8.1 3.0 M-7.2 -0.95 L-7.2 -1.2 -7.2 -0.95 M-6.65 3.25 L-5.65 -1.4 -6.65 3.25 M-4.0 -1.45 L-4.6 1.2 -4.0 -1.45" fill="#292929" fill-rule="evenodd" stroke="none"/>
    <path d="M9.05 -3.5 L9.05 -5.15 15.45 -5.15 15.45 -3.5 14.2 -3.5 13.25 -3.5 13.25 -3.75 13.25 -3.5 12.25 -3.5 11.25 -3.5 10.25 -3.5 9.05 -3.5 M15.35 4.9 L15.35 8.1 9.15 8.15 9.05 4.9 15.35 4.9 M10.25 -3.75 L10.25 -3.5 10.25 -3.75 M12.25 -3.75 L12.25 -3.5 12.25 -3.75 M14.2 -3.75 L14.2 -3.5 14.2 -3.75 M11.25 -3.75 L11.25 -3.5 11.25 -3.75" fill="#272924" fill-rule="evenodd" stroke="none"/>
    <path d="M27.35 4.55 L26.7 5.25 17.9 5.25 16.9 4.25 16.9 2.25 27.35 2.25 27.35 4.55" fill="#333333" fill-rule="evenodd" stroke="none"/>
    <path d="M3.7 -0.8 L3.7 -2.1 4.7 -1.45 5.7 -2.1 5.7 -0.8 M1.85 -2.15 L1.85 -0.8 2.5 -0.8 M16.9 2.25 L15.55 2.25 14.5 3.35 10.35 3.25 9.2 2.1 M-7.2 -1.2 L-7.2 -0.95 M-8.1 2.75 L-8.1 3.0" fill="none" stroke="#1e1e1e" stroke-linecap="round" stroke-linejoin="round" stroke-width="1.0"/>
    <path d="M9.05 -3.5 L9.05 -5.15 15.45 -5.15 15.45 -3.5 15.8 -3.5 18.05 -0.15 19.05 0.5 28.3 0.5 28.3 4.0 27.95 4.55 27.35 4.55 M16.9 4.25 L16.1 4.3 15.35 4.9 15.35 8.1 9.15 8.15 9.05 4.9 8.5 4.9 8.1 4.45 3.15 4.45 1.8 7.9 Q1.15 8.8 -0.45 8.6 L-1.9 7.65 Q-3.4 6.75 -5.25 6.75 -6.95 5.25 -9.7 4.5 L-8.25 -2.45 -7.7 -2.6 -0.7 -2.6 0.25 -3.5 7.35 -3.5 7.35 -3.75 M8.3 -3.5 L9.05 -3.5 10.25 -3.5 10.25 -3.75 M7.35 -3.5 L8.3 -3.5 8.3 -3.75 M13.25 -3.5 L14.2 -3.5 14.2 -3.75 M13.25 -3.5 L13.25 -3.75 M12.25 -3.5 L12.25 -3.75 M11.25 -3.5 L12.25 -3.5 13.25 -3.5 M10.25 -3.5 L11.25 -3.5 11.25 -3.75 M15.05 -0.25 L15.05 0.8 10.3 0.8 10.3 -1.05 14.4 -1.05 15.05 -0.25 M14.2 -3.5 L15.45 -3.5 M5.25 2.9 L5.1 1.85 4.15 1.8 3.15 4.45 M5.1 1.85 L7.95 1.95 7.85 4.2 8.1 4.45 M0.85 1.65 L0.0 3.3 -1.25 5.0 -1.8 5.05 Q-2.35 4.8 -2.4 4.05 L-2.3 3.05 -2.2 2.45 -2.3 1.7 Q-2.3 1.2 -1.5 0.7 L0.3 0.75 Q1.0 1.0 0.85 1.65 M9.05 4.9 L15.35 4.9" fill="none" stroke="#121212" stroke-linecap="round" stroke-linejoin="round" stroke-width="1.0"/>
    <path d="M27.35 4.55 L26.7 5.25 17.9 5.25 16.9 4.25 16.9 2.25 27.35 2.25 27.35 4.55" fill="none" stroke="#191919" stroke-linecap="round" stroke-linejoin="round" stroke-width="1.0"/>
    <path d="M-4.6 1.2 L-4.0 -1.45 M-5.65 -1.4 L-6.65 3.25" fill="none" stroke="#0b0b0b" stroke-linecap="round" stroke-linejoin="round" stroke-width="1.0"/>
  </g>
</svg>
