<?xml version="1.0" encoding="UTF-8" standalone="no"?>
<svg xmlns:xlink="http://www.w3.org/1999/xlink" height="9.15px" width="9.2px" xmlns="http://www.w3.org/2000/svg">
  <g transform="matrix(1.0, 0.0, 0.0, 1.0, 4.6, 4.65)">
    <path d="M2.9 -2.95 Q4.1 -1.8 4.1 -0.1 4.1 1.6 2.9 2.8 1.7 4.0 0.0 4.0 -1.7 4.0 -2.9 2.8 -4.1 1.6 -4.1 -0.1 -4.1 -1.8 -2.9 -2.95 -1.7 -4.15 0.0 -4.15 1.7 -4.15 2.9 -2.95 M-1.6 1.5 L-1.6 -1.45 -1.6 1.5" fill="#b4afaf" fill-rule="evenodd" stroke="none"/>
    <path d="M2.9 -2.95 Q4.1 -1.8 4.1 -0.1 4.1 1.6 2.9 2.8 1.7 4.0 0.0 4.0 -1.7 4.0 -2.9 2.8 -4.1 1.6 -4.1 -0.1 -4.1 -1.8 -2.9 -2.95 -1.7 -4.15 0.0 -4.15 1.7 -4.15 2.9 -2.95 M-1.6 -1.45 L-1.6 1.5" fill="none" stroke="#746d6d" stroke-linecap="round" stroke-linejoin="round" stroke-width="1.0"/>
  </g>
</svg>
