<?xml version="1.0" encoding="UTF-8" standalone="no"?>
<svg xmlns:ffdec="https://www.free-decompiler.com/flash" xmlns:xlink="http://www.w3.org/1999/xlink" ffdec:objectType="shape" height="23.75px" width="15.95px" xmlns="http://www.w3.org/2000/svg">
  <g transform="matrix(1.0, 0.0, 0.0, 1.0, 0.5, 0.5)">
    <path d="M1.15 16.65 L0.55 16.65 Q-0.5 15.05 0.55 12.85 L1.05 13.05 3.5 13.05 3.5 16.65 1.15 16.65" fill="#2c2c2c" fill-rule="evenodd" stroke="none"/>
    <path d="M9.9 5.6 Q10.9 8.3 12.1 9.4 8.4 11.1 3.5 11.1 L1.05 11.1 0.4 10.4 Q-0.05 8.45 0.85 7.35 L2.3 6.7 9.9 5.6" fill="url(#gradient0)" fill-rule="evenodd" stroke="none"/>
    <path d="M9.6 1.3 Q9.2 3.65 9.9 5.6 L2.3 6.7 2.8 5.3 Q6.5 4.85 9.6 1.3" fill="url(#gradient1)" fill-rule="evenodd" stroke="none"/>
    <path d="M5.55 19.45 Q2.45 20.1 2.65 22.75 L1.15 21.1 1.15 16.65 3.5 16.65 3.5 19.45 5.55 19.45 M1.05 13.05 L1.05 11.1 3.5 11.1 3.5 13.05 1.05 13.05" fill="#191919" fill-rule="evenodd" stroke="none"/>
    <path d="M12.1 9.4 L10.3 20.95 Q9.0 22.3 6.7 20.95 L5.55 19.45 3.5 19.45 3.5 16.65 3.5 13.05 3.5 11.1 Q8.4 11.1 12.1 9.4" fill="url(#gradient2)" fill-rule="evenodd" stroke="none"/>
    <path d="M9.9 5.6 L9.6 1.3 Q6.5 4.85 2.8 5.3 L2.3 6.7 9.9 5.6 M12.1 9.4 L10.3 20.95 Q9.0 22.3 6.7 20.95 L5.55 19.45 Q2.45 20.1 2.65 22.75 L1.15 21.1 1.15 16.65 0.55 16.65 M1.05 13.05 L1.05 11.1 0.4 10.4 Q-0.05 8.45 0.85 7.35 L2.3 6.7 M1.05 11.1 L3.5 11.1 Q8.4 11.1 12.1 9.4 M3.5 16.65 L3.5 13.05 3.5 11.1 M5.55 19.45 L3.5 19.45 3.5 16.65" fill="none" stroke="#0e0e0e" stroke-linecap="round" stroke-linejoin="round" stroke-width="1.0"/>
    <path d="M0.55 16.65 Q-0.5 15.05 0.55 12.85 L1.05 13.05 3.5 13.05 M1.15 16.65 L3.5 16.65" fill="none" stroke="#151515" stroke-linecap="round" stroke-linejoin="round" stroke-width="1.0"/>
    <path d="M2.3 6.7 L9.9 5.6 9.6 1.3 Q6.5 4.85 2.8 5.3 L2.3 6.7 0.85 7.35 Q-0.05 8.45 0.4 10.4 L1.05 11.1 3.5 11.1 Q8.4 11.1 12.1 9.4 L10.3 20.95 Q9.0 22.3 6.7 20.95 L5.55 19.45 Q2.45 20.1 2.65 22.75 L1.15 21.1 1.15 17.35 M3.5 11.1 L3.5 19.45 5.55 19.45" fill="none" stroke="#0e0e0e" stroke-linecap="round" stroke-linejoin="round" stroke-width="1.0"/>
    <path d="M4.6 12.05 L4.9 12.05 M1.75 7.95 L2.05 7.95 M1.75 9.9 L2.05 9.9 M1.15 13.8 L1.45 13.8 M1.15 15.8 L1.45 15.8 M4.6 17.95 L4.9 17.95 M8.9 20.25 L9.2 20.25" fill="none" stroke="#151515" stroke-linecap="round" stroke-linejoin="round" stroke-width="1.0"/>
    <path d="M13.95 1.25 Q15.35 2.2 14.75 4.25 13.2 9.85 11.75 11.55 L10.15 10.35 9.2 2.45 Q8.95 0.6 10.65 0.0 12.5 -0.2 13.95 1.25 M11.55 9.65 L11.25 9.65 11.55 9.65 M10.95 1.6 L10.65 1.6 10.95 1.6" fill="#282828" fill-rule="evenodd" stroke="none"/>
    <path d="M13.95 1.25 Q12.5 -0.2 10.65 0.0 8.95 0.6 9.2 2.45 L10.15 10.35 11.75 11.55 Q13.2 9.85 14.75 4.25 15.35 2.2 13.95 1.25" fill="none" stroke="#0e0e0e" stroke-linecap="round" stroke-linejoin="round" stroke-width="1.0"/>
    <path d="M10.65 1.6 L10.95 1.6 M11.25 9.65 L11.55 9.65" fill="none" stroke="#151515" stroke-linecap="round" stroke-linejoin="round" stroke-width="1.0"/>
  </g>
  <defs>
    <radialGradient cx="0" cy="0" fx="336.0" fy="0" gradientTransform="matrix(0.0089, -8.0E-4, 7.0E-4, 0.0076, 7.25, 7.45)" gradientUnits="userSpaceOnUse" id="gradient0" r="819.2" spreadMethod="pad">
      <stop offset="0.0" stop-color="#484848"/>
      <stop offset="0.4470588235294118" stop-color="#2a2a2a"/>
      <stop offset="1.0" stop-color="#1e1e1e"/>
      <stop offset="1.0" stop-color="#383838"/>
    </radialGradient>
    <radialGradient cx="0" cy="0" fx="192.0" fy="0" gradientTransform="matrix(0.0062, 0.0, 0.0, 0.0062, 8.5, 3.8)" gradientUnits="userSpaceOnUse" id="gradient1" r="819.2" spreadMethod="pad">
      <stop offset="0.0" stop-color="#484848"/>
      <stop offset="0.4470588235294118" stop-color="#2a2a2a"/>
      <stop offset="1.0" stop-color="#1e1e1e"/>
      <stop offset="1.0" stop-color="#383838"/>
    </radialGradient>
    <radialGradient cx="0" cy="0" fx="57.6" fy="0" gradientTransform="matrix(0.0108, -0.0011, 0.0015, 0.0139, 10.25, 13.9)" gradientUnits="userSpaceOnUse" id="gradient2" r="819.2" spreadMethod="pad">
      <stop offset="0.0" stop-color="#484848"/>
      <stop offset="0.4470588235294118" stop-color="#2a2a2a"/>
      <stop offset="1.0" stop-color="#171717"/>
      <stop offset="1.0" stop-color="#383838"/>
    </radialGradient>
  </defs>
</svg>
