<?xml version="1.0" encoding="UTF-8" standalone="no"?>
<svg xmlns:ffdec="https://www.free-decompiler.com/flash" xmlns:xlink="http://www.w3.org/1999/xlink" ffdec:objectType="shape" height="23.15px" width="13.7px" xmlns="http://www.w3.org/2000/svg">
  <g transform="matrix(1.0, 0.0, 0.0, 1.0, 3.5, -1.0)">
    <path d="M2.25 5.85 L5.15 5.85 6.6 2.5 Q7.9 2.2 8.35 2.85 8.95 3.45 8.75 4.75 L8.35 8.85 8.1 10.1 8.1 10.15 8.05 10.3 6.0 9.65 4.2 10.7 4.2 9.55 3.3 8.7 3.35 8.5 3.1 7.85 Q2.4 6.85 2.25 5.85 2.4 6.85 3.1 7.85 L3.35 8.5 3.3 8.7 1.6 7.15 1.95 5.85 2.25 5.85 M8.5 15.95 L8.5 16.0 8.1 17.4 Q7.55 18.3 7.5 18.75 7.35 19.1 7.6 20.0 7.9 20.9 7.35 21.25 L5.7 22.5 Q4.75 23.3 4.0 23.35 L2.25 23.1 4.25 20.85 4.25 18.4 4.5 18.1 4.25 18.3 4.5 18.1 4.25 18.4 4.25 18.3 4.25 17.95 6.4 17.95 8.5 15.95 M-2.25 15.05 L-3.0 12.85 -2.6 12.25 -2.1 11.75 -2.2 10.85 -2.3 10.4 -0.25 11.75 0.45 12.8 -0.6 15.9 -2.25 15.05" fill="#808080" fill-rule="evenodd" stroke="none"/>
    <path d="M3.3 8.7 L4.2 9.55 2.05 9.55 3.0 9.0 3.3 8.7 3.0 9.0 2.05 9.55 0.45 9.55 -2.0 7.65 -0.5 4.25 Q-0.1 4.15 0.2 3.65 L0.75 2.85 2.0 2.6 2.85 2.55 2.25 4.75 1.95 5.85 1.6 7.15 3.3 8.7 M5.3 13.95 L7.9 12.3 7.85 12.6 7.95 14.6 7.95 14.8 7.95 15.0 7.9 14.95 7.9 15.2 6.75 15.35 5.3 13.95 M4.25 20.85 L2.25 23.1 0.35 22.35 Q-0.25 22.2 -0.75 21.75 L-1.25 20.7 -0.2 17.85 1.7 19.5 4.25 20.85" fill="#4d4d4d" fill-rule="evenodd" stroke="none"/>
    <path d="M6.6 2.5 L5.15 5.85 2.25 5.85 2.25 4.75 2.25 5.85 1.95 5.85 2.25 4.75 2.85 2.55 6.6 2.5 M4.2 9.55 L4.2 10.7 4.2 11.9 5.3 13.95 6.75 15.35 7.9 15.2 7.9 14.95 7.95 15.0 8.0 15.1 8.5 15.95 6.4 17.95 4.25 17.95 4.25 18.3 3.35 18.5 Q2.1 18.2 1.35 17.6 L0.85 17.0 1.35 17.6 Q2.1 18.2 3.35 18.5 L4.25 18.3 4.25 18.4 4.25 20.85 1.7 19.5 -0.2 17.85 0.1 17.0 0.85 17.0 1.15 17.0 1.15 13.8 0.45 12.8 -0.25 11.75 -2.3 10.4 -2.35 10.1 -2.4 9.45 -2.35 8.85 -2.0 7.65 0.45 9.55 2.05 9.55 4.2 9.55 M4.5 14.0 Q2.7 13.7 2.1 13.0 L1.75 12.25 Q1.55 11.95 0.7 11.6 -0.05 11.25 -0.25 10.85 -0.1 10.45 0.4 10.2 L1.35 9.85 2.05 9.55 1.35 9.85 0.4 10.2 Q-0.1 10.45 -0.25 10.85 -0.05 11.25 0.7 11.6 1.55 11.95 1.75 12.25 L2.1 13.0 Q2.7 13.7 4.5 14.0 M3.1 19.35 L4.25 18.4 3.1 19.35" fill="#3f3f3f" fill-rule="evenodd" stroke="none"/>
    <path d="M4.2 10.7 L6.0 9.65 8.05 10.3 8.05 10.35 7.9 12.3 5.3 13.95 4.2 11.9 4.2 10.7 M-1.25 20.7 L-1.6 19.0 -1.75 18.5 Q-1.65 17.15 -2.25 15.05 L-0.6 15.9 0.45 12.8 1.15 13.8 1.15 17.0 0.85 17.0 0.1 17.0 -0.2 17.85 -1.25 20.7 M0.85 17.0 L0.1 16.1 0.85 17.0" fill="#6d6d6d" fill-rule="evenodd" stroke="none"/>
    <path d="M8.1 10.15 L8.1 10.1 8.35 8.85 8.75 4.75 Q8.95 3.45 8.35 2.85 7.9 2.2 6.6 2.5 L2.85 2.55 2.0 2.6 0.75 2.85 0.2 3.65 Q-0.1 4.15 -0.5 4.25 L-2.0 7.65 -2.35 8.85 -2.4 9.45 -2.35 10.1 -2.3 10.4 -2.2 10.85 -2.1 11.75 -2.6 12.25 -3.0 12.85 -2.25 15.05 Q-1.65 17.15 -1.75 18.5 L-1.6 19.0 -1.25 20.7 -0.75 21.75 Q-0.25 22.2 0.35 22.35 L2.25 23.1 4.0 23.35 Q4.75 23.3 5.7 22.5 L7.35 21.25 Q7.9 20.9 7.6 20.0 7.35 19.1 7.5 18.75 7.55 18.3 8.1 17.4 L8.5 16.0 8.5 15.95 8.0 15.1 7.95 15.0 7.9 14.95 7.9 15.2 M7.9 12.3 L8.05 10.35 8.1 10.15 M7.85 12.6 L7.95 14.6 7.95 14.8 7.95 15.0" fill="none" stroke="#252525" stroke-linecap="round" stroke-linejoin="round" stroke-width="1.0"/>
    <path d="M2.25 5.85 Q2.4 6.85 3.1 7.85 L3.35 8.5 3.3 8.7 3.0 9.0 2.05 9.55 1.35 9.85 0.4 10.2 Q-0.1 10.45 -0.25 10.85 -0.05 11.25 0.7 11.6 1.55 11.95 1.75 12.25 L2.1 13.0 Q2.7 13.7 4.5 14.0 M2.25 4.75 L2.25 5.85 M4.25 18.3 L4.5 18.1 4.25 18.4 3.1 19.35 M0.85 17.0 L1.35 17.6 Q2.1 18.2 3.35 18.5 L4.25 18.3 M0.1 16.1 L0.85 17.0" fill="none" stroke="#252525" stroke-linecap="round" stroke-linejoin="round" stroke-width="0.8"/>
    <path d="M5.65 2.55 L5.45 3.7 Q5.3 4.85 5.5 6.25 5.75 8.3 6.95 8.75 L1.2 8.0 Q-0.9 7.3 -0.95 5.6 -0.75 4.3 0.15 3.15 L5.65 2.55" fill="#202020" fill-rule="evenodd" stroke="none"/>
    <path d="M9.35 7.45 L7.5 4.6 5.45 3.7 5.65 2.55 Q6.6 1.45 7.05 1.5 L9.15 1.5 Q10.15 4.5 9.35 7.45" fill="#858585" fill-rule="evenodd" stroke="none"/>
    <path d="M5.45 3.7 L7.5 4.6 9.35 7.45 8.85 8.75 6.95 8.75 Q5.75 8.3 5.5 6.25 5.3 4.85 5.45 3.7" fill="#666666" fill-rule="evenodd" stroke="none"/>
    <path d="M-0.65 21.2 Q-1.75 20.85 -1.55 19.5 3.05 18.2 7.6 18.45 L8.55 19.6 8.55 20.65 7.85 20.7 7.85 22.65 6.15 23.65 -1.45 23.0 Q-1.75 22.1 -0.65 21.2 L7.85 20.7 -0.65 21.2" fill="#878787" fill-rule="evenodd" stroke="none"/>
    <path d="M5.65 2.55 L0.15 3.15 Q-0.75 4.3 -0.95 5.6 -0.9 7.3 1.2 8.0 L6.95 8.75" fill="none" stroke="#1e1e1e" stroke-linecap="round" stroke-linejoin="round" stroke-width="1.0"/>
    <path d="M-0.65 21.2 Q-1.75 20.85 -1.55 19.5 3.05 18.2 7.6 18.45 L8.55 19.6 8.55 20.65 7.85 20.7 7.85 22.65 6.15 23.65 -1.45 23.0 Q-1.75 22.1 -0.65 21.2 L7.85 20.7" fill="none" stroke="#414141" stroke-linecap="round" stroke-linejoin="round" stroke-width="1.0"/>
    <path d="M5.45 3.7 L7.5 4.6 9.35 7.45" fill="none" stroke="#565656" stroke-linecap="round" stroke-linejoin="round" stroke-width="1.0"/>
    <path d="M9.35 7.45 Q10.15 4.5 9.15 1.5 L7.05 1.5 Q6.6 1.45 5.65 2.55 L5.45 3.7 Q5.3 4.85 5.5 6.25 5.75 8.3 6.95 8.75 L8.85 8.75 9.35 7.45 Z" fill="none" stroke="#333333" stroke-linecap="round" stroke-linejoin="round" stroke-width="1.0"/>
  </g>
</svg>
