<?xml version="1.0" encoding="UTF-8" standalone="no"?>
<svg xmlns:ffdec="https://www.free-decompiler.com/flash" xmlns:xlink="http://www.w3.org/1999/xlink" ffdec:objectType="shape" height="28.55px" width="20.7px" xmlns="http://www.w3.org/2000/svg">
  <g transform="matrix(1.0, 0.0, 0.0, 1.0, 9.95, 5.6)">
    <path d="M4.1 10.95 L4.85 11.9 7.5 9.3 4.95 12.05 6.1 13.45 6.7 16.2 6.0 13.45 4.85 11.9 4.8 11.95 4.1 10.95 3.8 10.65 3.6 10.35 3.6 9.1 3.55 10.25 Q0.95 14.2 0.75 12.8 L0.7 12.2 Q0.5 12.1 -0.35 9.7 L-0.75 8.0 -0.55 6.55 -0.3 5.2 0.45 4.65 1.1 4.25 1.85 3.1 2.55 1.55 2.85 0.5 3.3 0.05 5.05 -0.95 M6.3 5.0 L4.65 6.25 3.9 6.95 3.85 7.0 3.65 7.4 3.6 9.1 3.6 7.45 Q3.6 7.2 3.9 6.95 L4.15 6.55 4.65 6.25 M0.0 9.35 Q0.35 9.6 0.55 11.25 L0.7 12.2 0.55 11.25" fill="none" stroke="#181819" stroke-linecap="round" stroke-linejoin="round" stroke-opacity="0.5568628" stroke-width="1.0"/>
    <path d="M-5.85 0.8 L-5.4 -1.35 -3.4 -1.3 Q-1.7 -1.15 -0.35 -1.75 L0.4 -2.0 Q0.25 -0.5 -0.25 0.05 L-1.35 1.1 Q-2.95 0.9 -3.7 2.05 L-4.3 3.15 -4.85 3.1 -5.3 3.0 Q-5.85 1.6 -5.85 0.8" fill="#252525" fill-rule="evenodd" stroke="none"/>
    <path d="M-5.85 0.8 L-5.4 -1.35 -3.4 -1.3 Q-1.7 -1.15 -0.35 -1.75 L0.4 -2.0 Q0.25 -0.5 -0.25 0.05 L-1.35 1.1 Q-2.95 0.9 -3.7 2.05 L-4.3 3.15 -4.85 3.1 -5.3 3.0 Q-5.85 1.6 -5.85 0.8 Z" fill="none" stroke="#1a1717" stroke-linecap="butt" stroke-linejoin="miter-clip" stroke-miterlimit="15.12109375" stroke-width="1.0"/>
    <path d="M-3.5 5.3 Q-3.35 5.55 -3.45 6.05 L-3.5 6.65 Q-2.75 8.1 -1.6 8.95 -0.95 9.5 0.9 10.45 1.7 11.75 1.55 12.3 0.7 13.75 0.75 15.4 L1.1 17.8 0.3 18.35 -1.05 18.65 Q-1.75 19.3 -3.3 19.75 L-5.3 20.0 Q-6.1 18.8 -6.2 17.55 L-6.1 14.9 -6.5 12.9 -6.95 10.6 -6.65 10.15 -6.45 9.75 Q-7.1 8.3 -6.4 5.95 -5.7 3.55 -5.55 4.0 L-3.5 5.3" fill="url(#gradient0)" fill-rule="evenodd" stroke="none"/>
    <path d="M-3.5 5.3 Q-3.35 5.55 -3.45 6.05 L-3.5 6.65 Q-2.75 8.1 -1.6 8.95 -0.95 9.5 0.9 10.45 1.7 11.75 1.55 12.3 0.7 13.75 0.75 15.4 L1.1 17.8 0.3 18.35 -1.05 18.65 Q-1.75 19.3 -3.3 19.75 L-5.3 20.0 Q-6.1 18.8 -6.2 17.55 L-6.1 14.9 -6.5 12.9 -6.95 10.6 -6.65 10.15 -6.45 9.75 Q-7.1 8.3 -6.4 5.95 -5.7 3.55 -5.55 4.0 L-3.5 5.3 Z" fill="none" stroke="#181819" stroke-linecap="butt" stroke-linejoin="miter-clip" stroke-miterlimit="15.12109375" stroke-width="1.0"/>
    <path d="M-6.45 10.3 Q-6.25 10.25 -6.2 10.2 L-5.65 10.8 Q-5.0 11.45 -4.55 11.45 -3.75 11.45 -3.4 11.1 -2.25 11.85 -2.0 15.05 -1.8 18.1 -0.95 18.45" fill="none" stroke="#181819" stroke-linecap="round" stroke-linejoin="round" stroke-width="1.0"/>
    <path d="M-5.9 9.5 L-4.95 10.8 -3.55 10.4 -1.65 11.45 -1.55 12.35 -1.3 13.7 Q-1.0 14.25 -1.2 15.6 L-0.9 17.15 -0.35 18.2" fill="none" stroke="#161819" stroke-linecap="round" stroke-linejoin="round" stroke-opacity="0.48235294" stroke-width="1.0"/>
    <path d="M5.25 -5.1 L5.7 -3.35 Q5.85 -2.65 5.6 -1.55 5.5 -1.05 4.7 -0.35 L5.15 -0.5 5.75 0.0 6.5 2.15 6.55 4.4" fill="none" stroke="#000000" stroke-linecap="round" stroke-linejoin="round" stroke-opacity="0.25490198" stroke-width="1.0"/>
    <path d="M-4.55 -1.7 L-5.35 -1.35 -5.6 -0.55 -5.65 0.25 -5.35 2.7 Q-5.15 3.65 -5.75 4.1 L-6.25 5.15 Q-6.85 6.25 -6.85 7.0 L-6.8 8.9 -6.65 10.2 -6.75 10.65 -6.85 11.3 -6.6 12.25 -6.4 13.3 -6.25 15.8 -6.4 16.3 Q-6.5 16.9 -6.2 17.4 L-5.3 19.45" fill="none" stroke="#000000" stroke-linecap="round" stroke-linejoin="round" stroke-opacity="0.25490198" stroke-width="1.0"/>
    <path d="M7.0 6.35 L7.2 7.5 8.4 11.0 9.9 14.2 10.25 14.95" fill="none" stroke="#000000" stroke-linecap="round" stroke-linejoin="round" stroke-opacity="0.25490198" stroke-width="1.0"/>
  </g>
  <defs>
    <radialGradient cx="0" cy="0" gradientTransform="matrix(0.0042, -9.0E-4, 0.0057, 0.0301, -2.75, 11.4)" gradientUnits="userSpaceOnUse" id="gradient0" r="819.2" spreadMethod="pad">
      <stop offset="0.0" stop-color="#2c2c2e"/>
      <stop offset="1.0" stop-color="#505054"/>
    </radialGradient>
  </defs>
</svg>
