<?xml version="1.0" encoding="UTF-8" standalone="no"?>
<svg xmlns:xlink="http://www.w3.org/1999/xlink" height="14.3px" width="15.55px" xmlns="http://www.w3.org/2000/svg">
  <g transform="matrix(1.0, 0.0, 0.0, 1.0, 15.05, 7.0)">
    <path d="M-0.35 -1.95 L-0.35 2.35 -4.85 2.35 -4.85 -1.95 -0.35 -1.95" fill="#ffffff" fill-rule="evenodd" stroke="none"/>
    <path d="M-5.7 -1.95 L-5.7 2.35 -8.45 2.35 Q-12.4 2.4 -14.55 0.85 L-14.55 -0.5 Q-12.4 -2.0 -8.45 -1.95 L-5.7 -1.95" fill="#a47a4d" fill-rule="evenodd" stroke="none"/>
    <path d="M-0.35 -1.95 L-0.35 2.35 -4.85 2.35 -4.85 -1.95 -0.35 -1.95" fill="none" stroke="#191718" stroke-linecap="round" stroke-linejoin="round" stroke-width="1.0"/>
    <path d="M-5.7 -1.95 L-5.7 2.35 -8.45 2.35 Q-12.4 2.4 -14.55 0.85 L-14.55 -0.5 Q-12.4 -2.0 -8.45 -1.95 L-5.7 -1.95 Z" fill="none" stroke="#513c1e" stroke-linecap="round" stroke-linejoin="round" stroke-width="1.0"/>
    <path d="M-2.55 -7.0 Q-1.4 -7.0 -0.55 -5.25 L-0.45 -4.95 Q0.5 -2.85 0.5 0.15 0.5 3.1 -0.45 5.2 L-0.55 5.6 Q-1.4 7.3 -2.55 7.3 -3.8 7.3 -4.75 5.2 -5.6 3.1 -5.6 0.15 -5.6 -2.85 -4.75 -4.95 -3.8 -7.0 -2.55 -7.0" fill="url(#gradient0)" fill-rule="evenodd" stroke="none"/>
  </g>
  <defs>
    <radialGradient cx="0" cy="0" gradientTransform="matrix(-0.0036, 0.0, 0.0, -0.0089, -2.55, 0.15)" gradientUnits="userSpaceOnUse" id="gradient0" r="819.2" spreadMethod="pad">
      <stop offset="0.0" stop-color="#ffffff"/>
      <stop offset="1.0" stop-color="#ffffff" stop-opacity="0.0"/>
    </radialGradient>
  </defs>
</svg>
