<?xml version="1.0" encoding="UTF-8" standalone="no"?>
<svg xmlns:ffdec="https://www.free-decompiler.com/flash" xmlns:xlink="http://www.w3.org/1999/xlink" ffdec:objectType="shape" height="13.85px" width="17.05px" xmlns="http://www.w3.org/2000/svg">
  <g transform="matrix(1.0, 0.0, 0.0, 1.0, 9.55, 2.05)">
    <path d="M-8.6 2.35 Q-8.1 1.1 -6.15 0.85 L3.2 1.9 3.45 9.95 Q0.7 12.85 -2.8 9.45 -4.9 5.2 -8.85 6.6 -9.4 4.3 -8.6 2.35" fill="#dec68f" fill-rule="evenodd" stroke="none"/>
    <path d="M-8.6 2.35 Q-8.1 1.1 -6.15 0.85 L3.2 1.9 3.45 9.95 Q0.7 12.85 -2.8 9.45 -4.9 5.2 -8.85 6.6 -9.4 4.3 -8.6 2.35 Z" fill="none" stroke="#403726" stroke-linecap="round" stroke-linejoin="round" stroke-width="1.0"/>
    <path d="M3.85 -1.25 L4.45 -1.55 Q7.35 1.95 6.65 5.1 L6.65 5.15 6.45 5.95 5.65 7.4 5.45 7.75 Q4.4 9.05 2.4 8.55 L1.05 7.2 -2.25 4.05 -2.2 1.3 3.85 -1.25" fill="#f0c468" fill-rule="evenodd" stroke="none"/>
    <path d="M3.85 -1.25 L4.45 -1.55 Q7.35 1.95 6.65 5.1 L6.65 5.15 6.45 5.95 5.65 7.4 5.45 7.75 Q4.4 9.05 2.4 8.55 L1.05 7.2" fill="none" stroke="#3f3626" stroke-linecap="round" stroke-linejoin="round" stroke-width="1.0"/>
    <path d="M1.05 7.2 L-2.25 4.05 -2.2 1.3 3.85 -1.25" fill="none" stroke="#544634" stroke-linecap="round" stroke-linejoin="round" stroke-width="1.0"/>
    <path d="M6.9 0.1 L7.0 2.1 Q6.7 3.0 5.65 2.85 L2.35 2.6 Q1.65 2.05 2.05 1.15 L5.95 -0.75 Q6.75 -0.8 6.9 0.1 M3.55 4.6 L5.45 4.35 Q6.6 4.6 6.45 5.6 L6.05 7.45 Q5.0 8.5 4.15 8.1 L3.0 6.95 Q2.3 5.5 3.55 4.6" fill="#4f79a1" fill-rule="evenodd" stroke="none"/>
    <path d="M6.9 0.1 L7.0 2.1 Q6.7 3.0 5.65 2.85 L2.35 2.6 Q1.65 2.05 2.05 1.15 L5.95 -0.75 Q6.75 -0.8 6.9 0.1 M3.55 4.6 L5.45 4.35 Q6.6 4.6 6.45 5.6 L6.05 7.45 Q5.0 8.5 4.15 8.1 L3.0 6.95 Q2.3 5.5 3.55 4.6 Z" fill="none" stroke="#252c4a" stroke-linecap="round" stroke-linejoin="round" stroke-width="1.0"/>
  </g>
</svg>
