<?xml version="1.0" encoding="UTF-8" standalone="no"?>
<svg xmlns:ffdec="https://www.free-decompiler.com/flash" xmlns:xlink="http://www.w3.org/1999/xlink" ffdec:objectType="shape" height="21.0px" width="11.8px" xmlns="http://www.w3.org/2000/svg">
  <g transform="matrix(1.0, 0.0, 0.0, 1.0, 0.0, -0.9)">
    <path d="M11.5 14.45 L11.5 14.5 11.1 15.9 Q10.55 16.8 10.5 17.25 10.35 17.6 10.6 18.5 10.9 19.4 10.35 19.75 L8.7 21.0 Q7.75 21.8 7.0 21.85 L5.25 21.6 7.25 19.35 7.25 16.45 9.4 16.45 11.5 14.45 M0.75 13.55 L0.0 11.35 0.4 10.75 0.9 10.25 0.8 9.35 0.7 8.9 2.75 10.25 3.45 11.3 2.4 14.4 0.75 13.55 M9.6 1.0 Q10.9 0.7 11.35 1.35 11.95 1.95 11.75 3.25 L11.35 7.35 11.1 8.6 11.1 8.65 11.05 8.8 9.0 8.15 7.2 9.2 7.2 8.05 4.6 5.65 4.95 4.35 8.15 4.35 9.6 1.0" fill="#808080" fill-rule="evenodd" stroke="none"/>
    <path d="M10.9 10.8 L10.85 11.1 10.95 13.1 10.95 13.3 10.95 13.5 10.9 13.45 10.9 13.7 9.75 13.85 8.3 12.45 10.9 10.8 M5.25 21.6 L3.35 20.85 Q2.75 20.7 2.25 20.25 1.95 19.9 1.75 19.2 L2.8 16.35 4.7 18.0 7.25 19.35 5.25 21.6 M1.0 6.15 Q1.5 4.55 2.5 2.75 2.9 2.65 3.2 2.15 L3.75 1.35 5.0 1.1 5.85 1.05 4.95 4.35 4.6 5.65 7.2 8.05 3.45 8.05 1.0 6.15" fill="#4d4d4d" fill-rule="evenodd" stroke="none"/>
    <path d="M8.3 12.45 L9.75 13.85 10.9 13.7 10.9 13.45 10.95 13.5 11.0 13.6 11.5 14.45 9.4 16.45 7.25 16.45 7.25 19.35 4.7 18.0 2.8 16.35 3.1 15.5 4.15 15.5 4.15 12.3 3.45 11.3 2.75 10.25 0.7 8.9 0.65 8.6 0.6 7.95 0.65 7.35 1.0 6.15 3.45 8.05 7.2 8.05 7.2 9.2 7.2 10.4 8.3 12.45 M5.85 1.05 L9.6 1.0 8.15 4.35 4.95 4.35 5.85 1.05" fill="#3f3f3f" fill-rule="evenodd" stroke="none"/>
    <path d="M10.9 10.8 L8.3 12.45 7.2 10.4 7.2 9.2 9.0 8.15 11.05 8.8 11.05 8.85 10.9 10.8 M1.75 19.2 Q1.5 18.55 1.4 17.5 1.25 17.35 1.25 17.0 1.35 15.65 0.75 13.55 L2.4 14.4 3.45 11.3 4.15 12.3 4.15 15.5 3.1 15.5 2.8 16.35 1.75 19.2" fill="#6d6d6d" fill-rule="evenodd" stroke="none"/>
  </g>
</svg>
