<?xml version="1.0" encoding="UTF-8" standalone="no"?>
<svg xmlns:ffdec="https://www.free-decompiler.com/flash" xmlns:xlink="http://www.w3.org/1999/xlink" ffdec:objectType="shape" height="22.15px" width="17.3px" xmlns="http://www.w3.org/2000/svg">
  <g transform="matrix(1.0, 0.0, 0.0, 1.0, 8.75, 4.15)">
    <path d="M-6.8 15.2 L-6.65 14.75 -4.95 14.3 Q-4.4 14.3 -3.7 14.85 L-3.15 15.45 -3.8 16.9 -4.4 17.1 -6.4 17.0 -6.95 16.6 -6.7 15.65 -6.8 15.2" fill="#252525" fill-rule="evenodd" stroke="none"/>
    <path d="M-0.55 0.6 Q-0.4 0.9 -0.55 1.0 L-2.15 1.55 -2.7 1.75 Q-3.05 1.85 -3.2 1.6 -3.45 -0.4 -3.2 -0.9 L-2.9 -1.45 -2.45 -1.85 -2.3 -1.8 Q-1.8 -1.6 -0.8 0.15 L-0.55 0.6" fill="#515151" fill-rule="evenodd" stroke="none"/>
    <path d="M-2.55 -2.3 Q-3.35 -1.4 -3.5 0.3 -3.65 1.6 -3.45 2.6" fill="none" stroke="#0e0e0e" stroke-linecap="round" stroke-linejoin="round" stroke-width="1.0"/>
    <path d="M-0.25 1.3 L-0.15 1.3 1.9 2.2 2.25 2.55 2.35 3.1 2.45 3.9 2.4 4.65 1.5 5.45 Q0.8 5.85 0.6 6.2 L-0.05 6.85 -0.85 7.45 -1.45 9.45 -1.3 10.35 -0.9 11.3 Q-1.05 11.7 -0.25 12.55 0.25 13.0 0.0 13.45 -0.55 14.75 -1.1 14.9 L-2.5 15.1 -3.2 14.95 -3.65 14.45 -4.2 14.15 -4.85 13.85 -6.15 12.4 -7.5 11.05 -7.85 10.6 -7.85 10.05 -6.45 9.2 Q-6.2 8.85 -5.35 8.65 L-4.15 8.2 Q-3.75 7.7 -3.4 6.45 -3.4 6.1 -3.7 5.7 L-4.25 5.0 -3.95 3.55 Q-3.85 2.75 -3.55 2.4 L-0.25 1.3" fill="#2d2d2d" fill-rule="evenodd" stroke="none"/>
    <path d="M0.1 13.0 L-0.2 13.95 -0.8 14.8 -2.25 15.05 -2.95 15.1 -3.95 14.3 Q-4.5 14.1 -4.15 13.8 -3.05 13.0 -2.75 12.2 -2.55 11.75 -2.8 11.1 L-3.05 10.45 -2.3 7.45 -2.05 7.2 -1.6 7.3 -0.95 7.7 -1.3 9.1 -1.45 9.8 -0.95 10.95 -0.9 11.3 -0.9 11.65 0.1 13.0 M1.2 2.0 L1.5 2.05 2.25 2.45 2.45 3.7 2.45 4.65 1.5 5.45 0.55 6.3 -0.2 6.95 -0.85 7.3 -2.0 6.8 Q-2.25 6.55 -1.9 6.2 L0.55 4.25 0.95 2.55 Q1.0 2.15 1.2 2.0" fill="#000000" fill-opacity="0.1882353" fill-rule="evenodd" stroke="none"/>
    <path d="M6.0 -1.8 L6.25 -1.8 7.1 -1.1 Q8.2 1.35 7.85 3.55 L7.4 4.4 7.0 4.65 6.55 4.7 5.6 3.8 Q5.0 1.6 5.0 0.8 4.95 -0.45 5.3 -1.0 L6.0 -1.8" fill="url(#gradient0)" fill-rule="evenodd" stroke="none"/>
    <path d="M6.0 -2.2 L7.25 -1.25 Q8.55 1.6 7.95 4.2 L6.7 5.05" ffdec:has-small-stroke="true" ffdec:original-stroke-width="0.85" fill="none" stroke="#6d1919" stroke-linecap="round" stroke-linejoin="round" stroke-width="1.0"/>
    <path d="M6.05 -1.7 L6.75 -1.05 7.45 1.05 7.5 1.2 Q7.75 2.5 7.55 3.95 L6.75 4.45 M7.5 1.2 L5.05 1.55" fill="none" stroke="#300b0b" stroke-linecap="round" stroke-linejoin="round" stroke-width="1.0"/>
    <path d="M7.1 -0.85 L7.3 -0.15" ffdec:has-small-stroke="true" ffdec:original-stroke-width="0.75" fill="none" stroke="#ffffff" stroke-linecap="round" stroke-linejoin="round" stroke-width="1.0"/>
    <path d="M5.0 -3.25 Q5.35 -3.3 5.5 -3.0 L5.7 -2.4 5.25 -1.5 4.75 -0.65 Q4.45 0.55 5.05 3.35 5.05 3.8 5.6 4.35 L6.45 5.2 6.05 10.95 Q5.75 14.15 5.05 16.6 5.1 17.2 4.25 17.0 L1.15 16.65 -2.05 16.85 -2.7 17.1 -3.25 17.0 -2.75 15.6 -1.8 15.25 -0.7 15.1 0.35 13.45 Q0.55 13.0 0.15 12.45 L-0.55 11.6 Q-1.9 9.55 -0.55 7.65 -0.45 7.3 0.2 6.8 L1.2 6.0 Q2.55 5.25 2.75 4.7 2.85 3.5 2.5 2.35 2.25 2.0 1.4 1.65 0.45 1.3 0.15 1.0 L-0.7 -0.3 -1.75 -1.45 -2.4 -1.8 Q-2.85 -1.95 -2.9 -2.15 L-2.45 -3.2 -2.35 -3.2 1.75 -2.05 5.0 -3.25" fill="url(#gradient1)" fill-rule="evenodd" stroke="none"/>
    <path d="M6.45 10.1 L6.6 10.1 7.2 10.6 7.05 12.05 Q7.05 12.25 6.45 12.6 5.9 12.85 5.65 12.3 L5.75 10.95 Q5.7 10.55 6.45 10.1" fill="#999999" fill-rule="evenodd" stroke="none"/>
    <path d="M1.05 16.65 L0.75 16.55 Q0.6 16.35 0.75 16.2 1.6 15.65 2.1 15.45 L4.85 15.9 5.15 16.05 5.1 16.35 5.0 16.8 4.7 17.0 1.05 16.65 M3.0 8.9 L3.15 8.95 4.2 9.8 5.4 10.8 5.3 12.2 Q5.25 12.4 5.55 12.65 L5.8 13.0 5.5 14.85 5.4 15.35 5.1 15.65 3.05 15.25 2.6 15.2 2.25 14.95 2.75 9.65 2.85 8.9 3.0 8.9 M5.2 -3.35 L5.5 -3.2 5.75 -2.25 4.85 -0.85 Q4.6 -0.1 4.7 0.8 4.7 1.8 5.2 3.7 L5.8 4.4 6.5 5.15 6.3 9.0 6.25 9.5 6.15 9.95 Q5.9 10.1 5.8 10.2 L5.45 10.25 3.9 9.1 2.9 8.25 2.8 6.3 2.25 5.7 Q2.0 5.45 2.45 5.05 2.9 4.8 2.85 4.25 L2.5 2.35 Q2.35 2.1 0.95 1.5 L0.2 1.05 Q0.15 0.5 -1.25 -0.65 -2.65 -1.85 -2.7 -2.35 L-2.85 -2.85 -2.7 -3.25 1.7 -2.1 Q2.95 -2.45 5.2 -3.35" fill="#010101" fill-opacity="0.27450982" fill-rule="evenodd" stroke="none"/>
    <path d="M5.55 -3.65 L1.75 -2.25 -2.65 -3.6 -3.2 -1.85 Q-1.95 -1.55 -1.25 -0.7 L-0.15 1.0 1.15 1.75 2.4 2.45 2.65 4.55 1.7 5.45 0.7 6.4 -0.05 7.1 -0.8 7.75 -1.3 9.55 -1.0 10.55 Q-0.65 11.15 -0.75 11.5 L-0.2 12.3 Q0.4 12.95 0.25 13.15 0.1 14.05 -0.6 14.85 L-1.75 15.1 -2.9 15.4 -3.35 16.4 -3.85 17.25 -3.25 17.5 Q-1.3 16.65 1.1 16.8 L5.1 17.2 6.0 13.0 5.75 12.6 5.45 12.25 5.6 10.7 6.05 10.25 6.4 9.75 6.7 5.05 5.4 3.85 4.95 1.7 Q4.7 0.4 5.0 -0.75 L6.0 -2.2 5.55 -3.65 Z" fill="none" stroke="#060606" stroke-linecap="round" stroke-linejoin="round" stroke-width="1.0"/>
    <path d="M-0.7 15.1 Q3.05 15.2 5.15 15.85" ffdec:has-small-stroke="true" ffdec:original-stroke-width="0.95" fill="none" stroke="#060606" stroke-linecap="round" stroke-linejoin="round" stroke-width="1.0"/>
    <path d="M5.55 10.85 L2.7 8.35 -0.55 7.65" fill="none" stroke="#060606" stroke-linecap="round" stroke-linejoin="round" stroke-width="1.0"/>
    <path d="M6.65 9.75 L7.35 10.5 7.1 12.4 6.1 12.9" ffdec:has-small-stroke="true" ffdec:original-stroke-width="0.85" fill="none" stroke="#121212" stroke-linecap="round" stroke-linejoin="round" stroke-width="1.0"/>
    <path d="M0.15 1.0 L-3.8 2.3 -4.45 4.85 -3.95 5.65 Q-3.45 6.2 -3.5 6.4 L-4.2 8.0 Q-4.35 8.2 -5.2 8.45 L-6.3 8.8 Q-7.15 9.65 -8.25 9.95 -7.95 11.05 -6.75 12.1 -5.3 13.35 -4.9 14.15 -4.1 14.25 -3.65 14.6 L-2.9 15.45" fill="none" stroke="#060606" stroke-linecap="round" stroke-linejoin="round" stroke-width="1.0"/>
    <path d="M-3.4 6.45 L-0.85 7.45" fill="none" stroke="#060606" stroke-linecap="round" stroke-linejoin="round" stroke-width="1.0"/>
    <path d="M-4.9 14.15 L-7.1 14.7 Q-6.8 15.35 -6.9 15.8 L-7.25 16.65 -6.55 17.25 -3.85 17.25" fill="none" stroke="#060606" stroke-linecap="round" stroke-linejoin="round" stroke-width="1.0"/>
  </g>
  <defs>
    <linearGradient gradientTransform="matrix(0.0017, -1.0E-4, 1.0E-4, 0.0014, 6.45, 1.45)" gradientUnits="userSpaceOnUse" id="gradient0" spreadMethod="pad" x1="-819.2" x2="819.2">
      <stop offset="0.0" stop-color="#4c1010"/>
      <stop offset="1.0" stop-color="#f13f3f"/>
    </linearGradient>
    <linearGradient gradientTransform="matrix(0.005, -3.0E-4, 4.0E-4, 0.0043, 2.45, 6.85)" gradientUnits="userSpaceOnUse" id="gradient1" spreadMethod="pad" x1="-819.2" x2="819.2">
      <stop offset="0.0" stop-color="#282828"/>
      <stop offset="1.0" stop-color="#3c3c3c"/>
    </linearGradient>
  </defs>
</svg>
