<?xml version="1.0" encoding="UTF-8" standalone="no"?>
<svg xmlns:ffdec="https://www.free-decompiler.com/flash" xmlns:xlink="http://www.w3.org/1999/xlink" ffdec:objectType="shape" height="22.85px" width="16.4px" xmlns="http://www.w3.org/2000/svg">
  <g transform="matrix(1.0, 0.0, 0.0, 1.0, 7.2, 3.7)">
    <path d="M1.85 14.3 L5.85 11.35 6.15 15.8 1.85 18.4 0.8 17.25 1.85 14.3" fill="url(#gradient0)" fill-rule="evenodd" stroke="none"/>
    <path d="M1.95 15.3 L1.45 15.25 1.45 13.9 3.4 12.6 Q4.6 11.8 5.9 11.65 L6.35 14.6 5.15 13.35 4.65 13.45 1.95 15.3" fill="#e6b45a" fill-opacity="0.22745098" fill-rule="evenodd" stroke="none"/>
    <path d="M-0.3 1.15 L1.1 6.25 -0.35 13.15 -2.7 14.95 -5.85 13.55 Q-5.3 9.35 -2.25 2.1 -1.15 1.15 -0.3 1.15" fill="#13161a" fill-rule="evenodd" stroke="none"/>
    <path d="M-0.55 0.55 Q-2.65 2.2 -2.9 3.1 L-5.85 13.55 -2.7 14.95 -0.35 13.15 1.1 6.25 Q0.35 2.55 -0.55 0.55 Z" ffdec:has-small-stroke="true" ffdec:original-stroke-width="0.8" fill="none" stroke="#000000" stroke-linecap="round" stroke-linejoin="round" stroke-width="1.0"/>
    <path d="M-0.9 6.55 L-0.85 5.1 Q-1.3 3.5 -0.45 0.55 L2.4 0.25 Q3.55 -0.25 4.55 -2.15 L6.25 -2.75 8.1 -3.05 Q8.6 -1.8 8.5 -0.1 L8.25 2.8 Q7.2 3.15 6.8 4.3 6.55 5.0 6.4 6.45 4.8 7.45 3.5 10.7 L1.7 15.0 -0.9 6.55" fill="url(#gradient1)" fill-rule="evenodd" stroke="none"/>
    <path d="M-1.2 1.45 L-0.7 0.75 -0.25 0.45 Q-0.95 1.8 -1.05 3.8 L-1.1 7.4 -1.75 7.5 -3.7 12.95 -5.85 13.25 -5.2 11.65 -4.0 11.1 -2.35 6.95 -1.2 1.45" fill="#000615" fill-opacity="0.32941177" fill-rule="evenodd" stroke="none"/>
    <path d="M4.1 4.7 L6.65 3.8 6.4 6.55 1.8 13.8 -0.2 7.55 Q-0.05 7.35 0.9 9.4 1.8 11.4 1.9 11.2 3.5 8.4 5.1 6.35 L5.15 5.65 4.1 4.7" fill="#e6b45a" fill-opacity="0.22745098" fill-rule="evenodd" stroke="none"/>
    <path d="M8.25 2.8 L6.6 3.4 6.25 4.0 2.05 4.8 1.3 5.75 -0.7 6.15" ffdec:has-small-stroke="true" ffdec:original-stroke-width="0.8" fill="none" stroke="#020202" stroke-linecap="round" stroke-linejoin="round" stroke-width="1.0"/>
    <path d="M1.5 14.85 Q3.35 9.4 6.45 6.55 L5.9 11.7 Q4.45 12.15 3.4 13.15 L1.5 14.85" fill="url(#gradient2)" fill-rule="evenodd" stroke="none"/>
    <path d="M6.45 6.55 L5.9 11.7" ffdec:has-small-stroke="true" ffdec:original-stroke-width="0.8" fill="none" stroke="#ae6410" stroke-linecap="round" stroke-linejoin="round" stroke-opacity="0.6" stroke-width="1.0"/>
    <path d="M5.9 11.7 L6.35 14.4 6.2 15.75 5.35 15.8 1.85 18.4 0.8 17.25 1.3 14.5" ffdec:has-small-stroke="true" ffdec:original-stroke-width="0.8" fill="none" stroke="#000000" stroke-linecap="round" stroke-linejoin="round" stroke-width="1.0"/>
    <path d="M1.7 15.0 L-1.05 7.35 -0.9 5.3 -1.35 3.8 -1.25 2.35 -0.45 0.55 2.4 0.25 Q3.55 -0.25 4.55 -2.15 L7.55 -3.3 Q8.9 -2.65 8.8 -2.15 L8.15 2.85 7.45 3.4 6.65 3.95 6.4 6.45" ffdec:has-small-stroke="true" ffdec:original-stroke-width="0.8" fill="none" stroke="#000000" stroke-linecap="round" stroke-linejoin="round" stroke-width="1.0"/>
    <path d="M5.9 11.7 Q3.4 12.8 1.5 14.85 3.05 10.1 6.4 6.45" ffdec:has-small-stroke="true" ffdec:original-stroke-width="0.8" fill="none" stroke="#845012" stroke-linecap="round" stroke-linejoin="round" stroke-opacity="0.8117647" stroke-width="1.0"/>
    <path d="M-1.7 7.5 L-0.25 7.45 2.5 17.2 1.6 18.6 -3.75 18.75 -6.6 16.35 -6.1 13.0 -3.75 12.8 -1.7 7.5" fill="#13161a" fill-rule="evenodd" stroke="none"/>
    <path d="M-1.7 7.5 L-0.25 7.45 2.5 17.2 1.6 18.6 -3.75 18.75 -6.8 16.45 -6.3 13.05 -3.75 12.8 -1.7 7.5 Z" ffdec:has-small-stroke="true" ffdec:original-stroke-width="0.8" fill="none" stroke="#000000" stroke-linecap="round" stroke-linejoin="round" stroke-width="1.0"/>
    <path d="M4.85 8.75 L6.0 7.45 6.0 8.25" ffdec:has-small-stroke="true" ffdec:original-stroke-width="0.2" fill="none" stroke="#ffffff" stroke-linecap="round" stroke-linejoin="round" stroke-width="1.0"/>
    <path d="M-5.35 16.15 L-4.95 14.15 -2.65 13.7 -1.5 10.25 -0.6 10.2 1.1 16.3 0.45 17.25 -2.95 17.3 -5.35 16.15" fill="#31363d" fill-rule="evenodd" stroke="none"/>
  </g>
  <defs>
    <linearGradient gradientTransform="matrix(0.0011, -0.0014, 0.0015, 0.0011, 3.65, 14.7)" gradientUnits="userSpaceOnUse" id="gradient0" spreadMethod="pad" x1="-819.2" x2="819.2">
      <stop offset="0.0" stop-color="#1a1813"/>
      <stop offset="1.0" stop-color="#13161a"/>
    </linearGradient>
    <linearGradient gradientTransform="matrix(-0.0013, 0.0063, -0.0065, -0.0013, 4.1, 3.7)" gradientUnits="userSpaceOnUse" id="gradient1" spreadMethod="pad" x1="-819.2" x2="819.2">
      <stop offset="0.0" stop-color="#1a1813"/>
      <stop offset="1.0" stop-color="#13161a"/>
    </linearGradient>
    <radialGradient cx="0" cy="0" gradientTransform="matrix(0.003, -1.0E-4, 1.0E-4, 0.005, 4.0, 10.7)" gradientUnits="userSpaceOnUse" id="gradient2" r="819.2" spreadMethod="pad">
      <stop offset="0.0" stop-color="#f9e4c0"/>
      <stop offset="1.0" stop-color="#e69c1f"/>
    </radialGradient>
  </defs>
</svg>
