<?xml version="1.0" encoding="UTF-8" standalone="no"?>
<svg xmlns:ffdec="https://www.free-decompiler.com/flash" xmlns:xlink="http://www.w3.org/1999/xlink" ffdec:objectType="shape" height="23.25px" width="14.9px" xmlns="http://www.w3.org/2000/svg">
  <g transform="matrix(1.0, 0.0, 0.0, 1.0, 0.85, 4.5)">
    <path d="M5.9 17.75 L4.7 17.0 3.1 16.1 0.0 4.9 2.15 1.6 2.25 0.0 5.55 0.0 6.75 11.65 5.9 17.75" fill="#171717" fill-rule="evenodd" stroke="none"/>
    <path d="M5.9 17.75 L6.75 11.65 5.55 0.0 8.9 0.0 10.55 3.05 10.55 14.0 Q10.7 16.4 9.55 18.05 7.7 18.6 5.9 17.75" fill="#333333" fill-rule="evenodd" stroke="none"/>
    <path d="M5.9 17.75 L6.75 11.65 5.55 0.0" fill="none" stroke="#440000" stroke-linecap="round" stroke-linejoin="round" stroke-width="1.0"/>
    <path d="M5.55 0.0 L2.25 0.0 2.15 1.6 0.0 4.9 3.1 16.1 4.7 17.0 5.9 17.75 Q7.7 18.6 9.55 18.05 10.7 16.4 10.55 14.0 L10.55 3.05 8.9 0.0 5.55 0.0 Z" fill="none" stroke="#070707" stroke-linecap="round" stroke-linejoin="round" stroke-width="1.0"/>
    <path d="M5.1 1.9 L0.0 1.45 0.0 -1.0 4.85 -1.0 4.85 -1.5 6.3 -2.85 10.1 -4.0 12.2 -3.2 12.5 -0.05 12.2 3.15 11.35 5.45 11.05 5.45 11.4 11.6 11.55 14.8 10.15 14.8 Q8.0 14.85 6.4 11.75 L1.5 12.6 0.85 10.8 5.9 9.55 5.4 7.35 0.4 8.65 -0.35 6.55 4.9 5.15 5.55 2.6 5.1 1.9 4.85 1.55 4.85 -1.0 4.85 1.55 5.1 1.9 M6.95 4.2 L6.05 3.35 5.55 2.6 6.05 3.35 6.95 4.2 9.4 0.95 12.5 -0.05 9.4 0.95 6.95 4.2 Q7.95 5.0 9.05 5.45 L11.05 5.45 9.05 5.45 Q7.95 5.0 6.95 4.2 M6.4 11.75 L5.9 9.55 6.4 11.75 M11.4 11.6 L8.75 10.35 8.75 8.75 5.9 7.35 8.75 8.75 8.75 10.35 11.4 11.6 M5.4 7.35 L4.9 5.15 5.4 7.35" fill="#363636" fill-rule="evenodd" stroke="none"/>
    <path d="M6.95 4.2 L9.4 0.95 12.5 -0.05 M5.9 7.35 L8.75 8.75 8.75 10.35 11.4 11.6" fill="none" stroke="#313131" stroke-linecap="round" stroke-linejoin="round" stroke-width="1.0"/>
    <path d="M5.1 1.9 L0.0 1.45 0.0 -1.0 4.85 -1.0 4.85 -1.5 6.3 -2.85 10.1 -4.0 12.2 -3.2 12.5 -0.05 12.2 3.15 11.35 5.45 11.05 5.45 11.4 11.6 11.55 14.8 10.15 14.8 Q8.0 14.85 6.4 11.75 L1.5 12.6 0.85 10.8 5.9 9.55 5.4 7.35 0.4 8.65 -0.35 6.55 4.9 5.15 5.55 2.6 5.1 1.9 4.85 1.55 4.85 -1.0 M5.55 2.6 L6.05 3.35 6.95 4.2 Q7.95 5.0 9.05 5.45 L11.05 5.45 M5.9 9.55 L6.4 11.75 M4.9 5.15 L5.4 7.35" fill="none" stroke="#202020" stroke-linecap="round" stroke-linejoin="round" stroke-width="1.0"/>
    <path d="M6.4 11.75 L4.9 5.15 5.55 2.6 5.1 1.9 0.0 1.45 0.0 -1.0 4.85 -1.0 4.85 -1.5 6.3 -2.85 10.1 -4.0 12.2 -3.2 12.5 -0.05 12.2 3.15 11.35 5.45 9.05 5.45 Q7.95 5.0 6.95 4.2 L6.05 3.35 5.55 2.6 M4.85 -1.0 L4.85 1.55 5.1 1.9" fill="none" stroke="#202020" stroke-linecap="round" stroke-linejoin="round" stroke-width="1.0"/>
    <path d="M10.8 -1.65 L12.35 -2.15 Q13.65 -0.85 13.55 0.65 13.4 2.35 12.2 3.15 L10.8 1.55 10.8 -1.65" fill="#ff3333" fill-rule="evenodd" stroke="none"/>
    <path d="M10.8 -1.65 L10.8 1.55 12.2 3.15 Q13.4 2.35 13.55 0.65 13.65 -0.85 12.35 -2.15 L10.8 -1.65 Z" fill="none" stroke="#580000" stroke-linecap="round" stroke-linejoin="round" stroke-width="1.0"/>
  </g>
</svg>
