<?xml version="1.0" encoding="UTF-8" standalone="no"?>
<svg xmlns:ffdec="https://www.free-decompiler.com/flash" xmlns:xlink="http://www.w3.org/1999/xlink" ffdec:objectType="shape" height="24.5px" width="17.9px" xmlns="http://www.w3.org/2000/svg">
  <g transform="matrix(1.0, 0.0, 0.0, 1.0, 11.4, 2.9)">
    <path d="M1.25 -2.25 L6.0 -2.4 5.75 2.15 -0.8 1.8 1.25 -2.25 -0.8 1.8 5.75 2.15 Q5.1 7.95 3.15 13.75 L-2.7 15.3 -4.7 12.35 -3.4 7.0 -6.4 5.0 -7.25 4.45 -3.75 -2.1 1.25 -2.25 M-0.15 5.6 L1.4 6.7 3.3 5.95 1.6 4.85 -0.15 5.6 M0.5 11.05 L2.4 10.3 0.7 9.2 -1.05 9.95 0.5 11.05 M-0.8 1.8 L-3.4 7.0 -0.8 1.8" fill="#3b3b3b" fill-rule="evenodd" stroke="none"/>
    <path d="M0.5 11.05 L-1.05 9.95 0.7 9.2 2.4 10.3 0.5 11.05 M-0.15 5.6 L1.6 4.85 3.3 5.95 1.4 6.7 -0.15 5.6" fill="#ff6060" fill-rule="evenodd" stroke="none"/>
    <path d="M-8.35 14.45 L-9.5 12.05 -6.4 5.0 -3.4 7.0 -4.7 12.35 -8.35 14.45" fill="#1e1e1e" fill-rule="evenodd" stroke="none"/>
    <path d="M-2.7 15.3 L-2.25 17.95 -7.2 21.1 -10.9 19.8 -10.55 15.7 -8.35 14.45 -4.7 12.35 -2.7 15.3" fill="#585858" fill-rule="evenodd" stroke="none"/>
    <path d="M5.75 2.15 L6.0 -2.4 1.25 -2.25 -3.75 -2.1 -7.25 4.45 -6.4 5.0 -3.4 7.0 -4.7 12.35 -2.7 15.3 3.15 13.75 Q5.1 7.95 5.75 2.15" fill="none" stroke="#272727" stroke-linecap="round" stroke-linejoin="round" stroke-width="1.0"/>
    <path d="M0.5 11.05 L-1.05 9.95 0.7 9.2 2.4 10.3 0.5 11.05 M-0.15 5.6 L1.6 4.85 3.3 5.95 1.4 6.7 -0.15 5.6" fill="none" stroke="#751c1c" stroke-linecap="round" stroke-linejoin="round" stroke-width="1.0"/>
    <path d="M1.25 -2.25 L-0.8 1.8 5.75 2.15 M-3.4 7.0 L-0.8 1.8" fill="none" stroke="#323232" stroke-linecap="round" stroke-linejoin="round" stroke-width="1.0"/>
    <path d="M-8.35 14.45 L-9.5 12.05 -6.4 5.0" fill="none" stroke="#000000" stroke-linecap="round" stroke-linejoin="round" stroke-width="1.0"/>
    <path d="M-2.7 15.3 L-2.25 17.95 -7.2 21.1 -10.9 19.8 -10.55 15.7 -8.35 14.45 -4.7 12.35" fill="none" stroke="#393939" stroke-linecap="round" stroke-linejoin="round" stroke-width="1.0"/>
  </g>
</svg>
