<?xml version="1.0" encoding="UTF-8" standalone="no"?>
<svg xmlns:ffdec="https://www.free-decompiler.com/flash" xmlns:xlink="http://www.w3.org/1999/xlink" ffdec:objectType="shape" height="24.75px" width="16.55px" xmlns="http://www.w3.org/2000/svg">
  <g transform="matrix(1.0, 0.0, 0.0, 1.0, -0.1, -0.5)">
    <path d="M11.25 3.5 L13.5 1.3 13.6 1.3 Q14.55 0.5 15.15 1.75 15.75 2.7 16.0 6.25 L16.15 8.45 Q15.8 10.4 15.25 11.0 L14.65 12.2 13.2 11.3 13.45 10.35 12.7 8.3 10.55 8.45 Q10.4 8.15 10.35 7.15 L10.4 5.85 Q10.65 4.5 11.25 3.5 M11.9 6.95 L11.65 6.95 11.9 6.95" fill="#282828" fill-rule="evenodd" stroke="none"/>
    <path d="M5.95 23.6 L3.35 23.75 2.9 23.65 Q2.35 23.45 2.2 22.85 L0.6 14.25 Q0.75 13.0 1.55 12.2 L1.55 12.15 Q1.2 9.1 1.6 6.75 2.5 6.0 4.1 5.3 L6.2 5.65 3.75 9.05 4.15 11.9 5.5 20.85 5.85 22.9 5.95 23.6 M1.55 12.15 L4.15 11.9 1.55 12.15 M4.2 6.55 L3.95 6.55 4.2 6.55 M3.35 14.45 L3.1 14.45 3.35 14.45 M3.9 17.6 L3.65 17.6 3.9 17.6" fill="#1e1e1e" fill-rule="evenodd" stroke="none"/>
    <path d="M13.5 13.9 L13.05 24.05 Q11.35 24.95 6.8 24.7 L5.95 23.6 5.85 22.9 5.5 20.85 4.15 11.9 3.75 9.05 6.2 5.65 Q6.05 4.5 7.4 3.95 L11.25 3.5 Q10.65 4.5 10.4 5.85 L10.35 7.15 9.15 7.65 Q8.2 8.35 8.1 9.75 8.3 12.05 10.05 12.4 L13.5 13.9 M7.8 5.4 L7.55 5.4 7.8 5.4 M6.05 14.3 L5.8 14.3 6.05 14.3 M6.6 17.8 L6.35 17.8 6.6 17.8 M7.15 21.45 L6.9 21.45 7.15 21.45" fill="url(#gradient0)" fill-rule="evenodd" stroke="none"/>
    <path d="M14.65 12.2 L14.8 13.7 13.5 13.9 10.05 12.4 Q8.3 12.05 8.1 9.75 8.2 8.35 9.15 7.65 L10.35 7.15 Q10.4 8.15 10.55 8.45 L12.7 8.3 13.45 10.35 13.2 11.3 14.65 12.2 M11.9 9.5 L11.65 9.5 11.9 9.5" fill="url(#gradient1)" fill-rule="evenodd" stroke="none"/>
    <path d="M11.25 3.5 L13.5 1.3 13.6 1.3 Q14.55 0.5 15.15 1.75 15.75 2.7 16.0 6.25 L16.15 8.45 Q15.8 10.4 15.25 11.0 L14.65 12.2 14.8 13.7 13.5 13.9 13.05 24.05 Q11.35 24.95 6.8 24.7 L5.95 23.6 3.35 23.75 2.9 23.65 Q2.35 23.45 2.2 22.85 L0.6 14.25 Q0.75 13.0 1.55 12.2 L1.55 12.15 Q1.2 9.1 1.6 6.75 2.5 6.0 4.1 5.3 L6.2 5.65 Q6.05 4.5 7.4 3.95 L11.25 3.5 Q10.65 4.5 10.4 5.85 L10.35 7.15 Q10.4 8.15 10.55 8.45 L12.7 8.3 13.45 10.35 13.2 11.3 14.65 12.2 M6.2 5.65 L3.75 9.05 4.15 11.9 5.5 20.85 5.85 22.9 5.95 23.6 M4.15 11.9 L1.55 12.15 M10.35 7.15 L9.15 7.65 Q8.2 8.35 8.1 9.75 8.3 12.05 10.05 12.4 L13.5 13.9" fill="none" stroke="#101010" stroke-linecap="round" stroke-linejoin="round" stroke-width="1.0"/>
    <path d="M11.65 9.5 L11.9 9.5 M11.65 6.95 L11.9 6.95 M7.55 5.4 L7.8 5.4 M3.95 6.55 L4.2 6.55 M6.35 17.8 L6.6 17.8 M5.8 14.3 L6.05 14.3 M3.65 17.6 L3.9 17.6 M3.1 14.45 L3.35 14.45 M6.9 21.45 L7.15 21.45" fill="none" stroke="#151515" stroke-linecap="round" stroke-linejoin="round" stroke-width="1.0"/>
  </g>
  <defs>
    <radialGradient cx="0" cy="0" fx="57.6" fy="0" gradientTransform="matrix(0.0114, -0.0022, 0.0036, 0.019, 12.95, 14.9)" gradientUnits="userSpaceOnUse" id="gradient0" r="819.2" spreadMethod="pad">
      <stop offset="0.0" stop-color="#484848"/>
      <stop offset="0.4470588235294118" stop-color="#2a2a2a"/>
      <stop offset="1.0" stop-color="#171717"/>
      <stop offset="1.0" stop-color="#383838"/>
    </radialGradient>
    <radialGradient cx="0" cy="0" fx="57.6" fy="0" gradientTransform="matrix(0.0054, 0.0, 0.0, 0.0054, 12.85, 9.8)" gradientUnits="userSpaceOnUse" id="gradient1" r="819.2" spreadMethod="pad">
      <stop offset="0.0" stop-color="#484848"/>
      <stop offset="0.4470588235294118" stop-color="#2a2a2a"/>
      <stop offset="1.0" stop-color="#171717"/>
      <stop offset="1.0" stop-color="#383838"/>
    </radialGradient>
  </defs>
</svg>
