<?xml version="1.0" encoding="UTF-8" standalone="no"?>
<svg xmlns:ffdec="https://www.free-decompiler.com/flash" xmlns:xlink="http://www.w3.org/1999/xlink" ffdec:objectType="shape" height="23.35px" width="14.3px" xmlns="http://www.w3.org/2000/svg">
  <g transform="matrix(1.0, 0.0, 0.0, 1.0, 0.5, 0.25)">
    <path d="M6.35 4.35 L6.7 5.1 7.1 5.75 7.45 6.0 7.7 6.15 7.9 6.6 8.05 7.1 Q7.9 7.45 7.75 7.25 L7.45 7.05 7.2 6.7 6.8 6.45 6.25 4.8 6.35 4.35 M2.85 10.45 L3.1 9.8 Q3.3 9.65 3.45 9.8 L3.75 10.2 4.35 10.9 4.8 11.5 5.15 12.15 5.0 12.75 4.95 12.95 4.8 13.1 Q4.7 13.4 4.3 13.0 L3.6 12.5 Q3.1 12.1 3.0 11.5 2.85 11.3 2.85 10.45 M5.0 10.6 L4.7 10.25 4.65 9.8 4.7 9.75 4.75 9.65 4.95 9.65 5.2 9.75 5.3 9.8 5.35 10.0 5.4 10.05 5.4 10.2 5.4 10.45 5.4 10.65 5.3 10.65 5.0 10.6 M4.3 5.8 L4.45 4.95 4.55 4.75 4.8 4.95 Q5.3 5.2 5.5 6.15 L6.15 8.5 Q6.6 10.15 6.35 10.15 6.05 10.0 5.2 8.05 L4.3 5.8 M8.45 8.6 L8.45 9.75 8.45 9.85 8.5 9.95 8.9 10.25 9.2 11.0 9.1 11.25 8.95 11.55 8.75 11.75 8.55 11.85 8.35 11.85 7.85 10.05 7.85 10.0 7.75 9.95 7.65 9.75 7.05 9.3 7.05 9.1 7.0 8.05 7.0 7.75 7.2 7.55 7.75 7.65 8.35 7.85 8.45 8.6 M7.1 15.3 L7.1 15.7 7.0 15.85 6.8 15.85 7.25 16.5 7.3 16.8 7.1 17.1 Q6.35 17.65 5.5 17.4 L5.1 17.2 6.15 18.0 Q6.7 18.0 7.25 18.6 7.75 19.1 6.55 19.85 5.5 20.55 4.95 20.35 4.75 20.35 4.55 20.15 L4.45 19.85 4.45 19.5 Q4.55 19.05 4.9 19.2 L4.7 18.05 4.75 16.95 4.05 16.35 3.75 16.05 0.3 13.1 Q1.65 13.3 2.7 14.05 L2.85 14.05 2.85 13.8 2.85 13.45 Q3.6 13.75 4.25 15.0 L4.45 15.05 5.35 15.3 Q5.15 14.85 5.5 14.45 L6.05 14.25 6.7 14.4 7.1 15.3 7.1 15.2 6.7 14.4 6.8 13.3 6.4 13.0 6.05 12.4 6.0 11.7 6.15 11.1 Q6.7 11.25 6.65 11.65 L6.9 11.3 Q7.25 11.3 7.4 11.55 L7.85 12.05 8.05 12.55 Q7.75 12.7 7.75 12.95 L7.7 13.35 7.5 13.4 7.7 14.0 Q7.9 14.9 7.7 15.1 L7.5 15.3 7.1 15.3 M8.65 13.2 L8.35 12.55 Q9.5 13.15 10.05 13.85 10.15 14.15 10.35 13.85 L10.4 13.6 10.55 13.4 10.8 13.45 Q11.45 14.45 11.5 15.75 L10.05 16.15 9.75 16.3 9.5 15.9 9.6 15.2 9.4 14.6 9.2 14.05 8.7 13.4 8.65 13.2 M7.7 16.8 L7.65 16.6 Q7.5 16.35 7.5 15.95 L7.7 15.45 7.95 15.5 8.25 15.65 9.2 16.95 9.75 18.05 9.75 18.15 9.55 18.25 8.15 18.05 7.85 17.75 Q7.7 17.65 7.7 17.2 L7.7 16.95 7.7 16.8" fill="#272727" fill-opacity="0.6784314" fill-rule="evenodd" stroke="none"/>
    <path d="M4.8 12.2 L3.25 10.55 Q2.0 9.2 2.95 9.45 L4.25 9.85 4.7 10.15 4.95 10.45 5.4 11.0 5.75 11.45 6.0 11.95 5.9 12.4 5.85 12.55 5.75 12.65 5.35 12.6 4.8 12.2 M4.1 5.75 L4.45 5.45 4.55 5.3 4.75 5.45 Q5.1 5.65 5.25 6.35 L5.75 8.15 Q6.1 9.4 5.65 9.05 5.2 8.7 4.55 7.2 3.9 5.7 4.1 5.75 M8.5 9.25 L8.5 10.1 8.5 10.2 8.55 10.25 8.85 10.5 9.1 11.05 9.0 11.25 8.9 11.5 8.75 11.65 8.6 11.7 8.45 11.7 8.05 10.35 8.05 10.3 8.0 10.25 7.9 10.1 7.45 9.75 7.45 9.6 7.4 8.8 7.4 8.6 7.55 8.45 8.0 8.5 Q8.3 8.5 8.45 8.65 L8.5 9.25 M7.75 8.05 L7.55 7.8 7.25 7.6 6.85 6.35 6.9 6.0 7.2 6.55 7.5 7.05 7.75 7.25 7.95 7.35 10.45 8.85 Q9.25 9.35 8.2 8.1 8.1 8.35 8.0 8.2 L7.75 8.05 M7.5 14.35 L7.5 14.65 7.4 14.75 7.25 14.75 7.6 15.25 7.65 15.5 7.5 15.7 6.25 15.95 5.95 15.8 6.75 16.4 Q7.2 16.4 7.6 16.85 8.0 17.25 7.05 17.8 6.25 18.35 5.85 18.2 L5.55 18.05 5.45 17.8 5.45 17.55 Q5.55 17.2 5.8 17.3 5.65 17.05 5.65 16.45 L5.7 15.6 5.15 15.15 4.95 14.9 2.3 12.65 Q3.35 12.8 4.15 13.4 L4.25 13.4 4.25 13.2 Q4.25 13.0 4.65 12.95 5.05 12.85 5.3 13.4 L5.6 14.05 Q5.65 14.2 6.15 14.35 6.0 14.0 6.25 13.7 6.4 13.55 6.7 13.55 L7.2 13.65 7.5 14.35 7.5 14.25 7.2 13.65 Q7.15 13.2 7.25 12.8 L6.95 12.6 6.7 12.15 6.65 11.6 6.75 11.15 7.15 11.55 7.35 11.3 Q7.6 11.3 7.7 11.5 L8.05 11.85 8.2 12.25 8.0 12.55 7.95 12.85 7.8 12.9 7.95 13.35 7.95 14.2 7.8 14.35 7.5 14.35 M5.7 10.05 L5.85 10.05 6.05 10.1 6.1 10.15 6.15 10.3 6.2 10.35 6.2 10.45 6.2 10.65 6.2 10.8 6.1 10.8 5.9 10.75 5.65 10.5 5.6 10.15 5.65 10.1 5.7 10.05 M9.65 11.9 L9.95 12.8 10.0 13.05 10.1 12.9 10.3 12.95 Q10.8 13.7 10.85 14.7 L9.75 15.0 9.5 15.1 9.3 14.8 9.4 14.25 9.25 13.8 9.1 13.4 8.7 12.9 8.65 12.75 8.45 12.25 Q9.4 11.35 9.65 11.9 M8.35 14.6 L9.1 15.6 9.5 16.45 9.5 16.5 9.35 16.6 8.3 16.45 8.05 16.2 7.95 15.8 7.95 15.6 7.95 15.5 7.9 15.35 7.8 14.85 7.95 14.45 8.15 14.5 8.35 14.6" fill="#191919" fill-opacity="0.5294118" fill-rule="evenodd" stroke="none"/>
    <path d="M10.9 10.8 L11.05 8.85 11.1 8.65 11.1 8.6 11.35 7.35 11.75 3.25 Q11.95 1.95 11.35 1.35 10.9 0.7 9.6 1.0 L5.85 1.05 5.0 1.1 3.75 1.35 3.2 2.15 Q2.9 2.65 2.5 2.75 1.5 4.55 1.0 6.15 L0.65 7.35 0.6 7.95 0.65 8.6 0.7 8.9 0.8 9.35 0.9 10.25 0.4 10.75 0.0 11.35 0.75 13.55 Q1.35 15.65 1.25 17.0 1.25 17.35 1.4 17.5 1.5 18.55 1.75 19.2 1.95 19.9 2.25 20.25 2.75 20.7 3.35 20.85 L5.25 21.6 7.0 21.85 Q7.75 21.8 8.7 21.0 L10.35 19.75 Q10.9 19.4 10.6 18.5 10.35 17.6 10.5 17.25 10.55 16.8 11.1 15.9 L11.5 14.5 11.5 14.45 11.05 13.65 11.0 13.6 10.95 13.55 10.9 13.45 10.95 13.5 10.95 13.3 10.95 13.1 10.85 11.1 M10.95 13.55 L10.95 13.5" fill="none" stroke="#252525" stroke-linecap="round" stroke-linejoin="round" stroke-width="1.0"/>
    <path d="M5.25 3.25 L5.25 4.35 Q5.4 5.35 6.1 6.35 L6.35 7.0 6.3 7.2 6.0 7.5 5.05 8.05 4.35 8.35 3.4 8.7 Q2.9 8.95 2.75 9.35 2.95 9.75 3.7 10.1 4.55 10.45 4.75 10.75 L5.1 11.5 Q5.7 12.2 7.5 12.5 M3.1 14.6 L3.85 15.5 4.35 16.1 Q5.1 16.7 6.35 17.0 L7.25 16.8 7.5 16.6 7.25 16.9 6.1 17.85" fill="none" stroke="#252525" stroke-linecap="round" stroke-linejoin="round" stroke-width="0.8"/>
    <path d="M9.2 1.5 L8.7 3.15 1.3 2.85 2.05 1.35 9.2 1.5 M8.6 5.25 Q8.8 6.35 9.35 7.2 L9.45 7.3 9.3 7.3 0.4 6.5 0.8 5.05 8.6 5.25 M9.3 7.3 L9.35 7.2 9.3 7.3" fill="#232323" fill-rule="evenodd" stroke="none"/>
    <path d="M1.7 19.6 L10.65 19.15 10.65 19.35 10.65 19.6 10.65 21.35 7.6 22.15 Q4.0 23.3 1.45 21.5 L1.7 19.6" fill="#3a3a3a" fill-rule="evenodd" stroke="none"/>
    <path d="M11.9 8.25 L11.55 8.3 Q10.5 8.25 9.8 7.05 9.05 5.95 9.15 4.25 9.2 2.55 10.05 1.4 10.9 0.3 11.55 0.3 L11.6 0.3 Q12.25 0.35 12.75 1.65 13.3 3.0 13.3 4.45 13.35 5.85 12.95 7.1 12.6 8.05 11.9 8.25" fill="url(#gradient0)" fill-rule="evenodd" stroke="none"/>
    <path d="M9.45 7.3 L10.2 8.2 11.45 8.55 11.9 8.25 M11.6 0.3 Q10.6 0.0 9.3 1.15 L9.2 1.5 8.7 3.15 8.5 4.35 8.6 5.25 Q8.8 6.35 9.35 7.2 L9.45 7.3 9.3 7.3 0.4 6.5 0.8 5.05 8.6 5.25 M8.7 3.15 L1.3 2.85 2.05 1.35 9.2 1.5 M9.35 7.2 L9.3 7.3" fill="none" stroke="#101010" stroke-linecap="round" stroke-linejoin="round" stroke-width="1.0"/>
    <path d="M1.7 19.6 L10.65 19.15 10.65 19.35 10.65 19.6 10.65 21.35 7.6 22.15 Q4.0 23.3 1.45 21.5 L1.7 19.6" fill="none" stroke="#1c1c1c" stroke-linecap="round" stroke-linejoin="round" stroke-width="1.0"/>
    <path d="M11.9 8.25 L11.55 8.3 Q10.5 8.25 9.8 7.05 9.05 5.95 9.15 4.25 9.2 2.55 10.05 1.4 10.9 0.3 11.55 0.3 L11.6 0.3 Q12.25 0.35 12.75 1.65 13.3 3.0 13.3 4.45 13.35 5.85 12.95 7.1 12.6 8.05 11.9 8.25 Z" fill="none" stroke="#2e2e2e" stroke-linecap="round" stroke-linejoin="round" stroke-width="1.0"/>
  </g>
  <defs>
    <radialGradient cx="0" cy="0" gradientTransform="matrix(0.0016, 0.0065, -0.0045, 0.0017, 12.7, 2.1)" gradientUnits="userSpaceOnUse" id="gradient0" r="819.2" spreadMethod="pad">
      <stop offset="0.0" stop-color="#797979"/>
      <stop offset="1.0" stop-color="#515151"/>
    </radialGradient>
  </defs>
</svg>
