<?xml version="1.0" encoding="UTF-8" standalone="no"?>
<svg xmlns:xlink="http://www.w3.org/1999/xlink" height="46.1px" width="46.1px" xmlns="http://www.w3.org/2000/svg">
  <g transform="matrix(1.0, 0.0, 0.0, 1.0, 23.5, 22.55)">
    <path d="M-0.45 -22.55 Q9.1 -22.55 15.85 -15.8 22.6 -9.05 22.6 0.5 22.6 10.1 15.85 16.8 9.1 23.55 -0.45 23.55 -10.0 23.55 -16.75 16.8 -23.5 10.1 -23.5 0.5 -23.5 -9.05 -16.75 -15.8 -10.0 -22.55 -0.45 -22.55" fill="url(#gradient0)" fill-rule="evenodd" stroke="none"/>
    <path d="M5.3 -3.65 Q7.5 -2.15 7.5 0.05 7.5 2.2 5.3 3.65 3.15 5.15 0.0 5.15 -3.15 5.15 -5.35 3.65 -7.5 2.2 -7.5 0.05 -7.5 -2.15 -5.35 -3.65 -3.15 -5.05 0.0 -5.05 3.15 -5.05 5.3 -3.65" fill="#ffffff" fill-rule="evenodd" stroke="none"/>
    <path d="M5.3 -3.65 Q7.5 -2.15 7.5 0.05 7.5 2.2 5.3 3.65 3.15 5.15 0.0 5.15 -3.15 5.15 -5.35 3.65 -7.5 2.2 -7.5 0.05 -7.5 -2.15 -5.35 -3.65 -3.15 -5.05 0.0 -5.05 3.15 -5.05 5.3 -3.65 Z" fill="none" stroke="#fcdefe" stroke-linecap="round" stroke-linejoin="round" stroke-width="1.0"/>
  </g>
  <defs>
    <radialGradient cx="0" cy="0" gradientTransform="matrix(0.0283, 0.0, 0.0, 0.0283, -0.45, 0.5)" gradientUnits="userSpaceOnUse" id="gradient0" r="819.2" spreadMethod="pad">
      <stop offset="0.23529411764705882" stop-color="#ffffff" stop-opacity="0.4509804"/>
      <stop offset="0.611764705882353" stop-color="#faebff" stop-opacity="0.12941177"/>
      <stop offset="1.0" stop-color="#fdd5ff" stop-opacity="0.0"/>
    </radialGradient>
  </defs>
</svg>
