<?xml version="1.0" encoding="UTF-8" standalone="no"?>
<svg xmlns:ffdec="https://www.free-decompiler.com/flash" xmlns:xlink="http://www.w3.org/1999/xlink" ffdec:objectType="shape" height="23.3px" width="12.8px" xmlns="http://www.w3.org/2000/svg">
  <g transform="matrix(1.0, 0.0, 0.0, 1.0, 0.5, -0.3)">
    <path d="M10.9 10.7 L10.85 11.0 10.95 13.0 10.95 13.2 10.95 13.4 11.0 13.5 11.5 14.35 11.5 14.4 11.1 15.8 Q10.55 16.7 10.5 17.15 10.35 17.5 10.6 18.4 10.9 19.3 10.35 19.65 L8.7 20.9 Q7.75 21.7 7.0 21.75 L5.25 21.5 3.35 20.75 Q2.75 20.6 2.25 20.15 1.95 19.8 1.75 19.1 1.5 18.45 1.4 17.4 1.25 17.25 1.25 16.9 1.35 15.55 0.75 13.45 L0.0 11.25 0.4 10.65 0.9 10.15 0.8 9.25 0.7 8.8 0.65 8.5 0.6 7.85 0.65 7.25 1.0 6.05 Q1.5 4.45 2.5 2.65 2.9 2.55 3.2 2.05 L3.75 1.25 5.0 1.0 5.85 0.95 9.6 0.9 Q10.9 0.6 11.35 1.25 11.95 1.85 11.75 3.15 L11.35 7.25 11.1 8.5 11.1 8.55 11.05 8.7 11.05 8.75 10.9 10.7" fill="#1c1c1c" fill-rule="evenodd" stroke="none"/>
    <path d="M2.2 20.1 L7.15 19.85 10.3 19.7 10.9 19.65 10.9 19.85 10.9 20.1 10.9 21.85 7.85 22.65 Q4.25 23.8 1.7 22.0 L1.95 20.1 2.2 20.1" fill="#252525" fill-rule="evenodd" stroke="none"/>
    <path d="M6.95 12.3 Q7.85 9.0 7.7 4.45 L11.75 3.85 11.35 7.25 11.1 8.5 11.1 8.55 11.05 8.75 10.9 10.7 10.95 13.0 10.95 13.2 10.95 13.4 10.9 13.35 10.95 13.45 11.0 13.5 11.05 13.55 11.5 14.35 11.5 14.4 11.1 15.8 Q10.55 16.7 10.5 17.15 10.35 17.5 10.6 18.4 10.9 19.3 10.35 19.65 L10.3 19.7 7.15 19.85 6.25 19.5 6.45 17.5 7.25 16.8 7.5 16.5 7.25 16.7 6.5 16.9 Q6.45 14.7 6.95 12.3 L7.5 12.4 6.95 12.3" fill="#401212" fill-rule="evenodd" stroke="none"/>
    <path d="M10.3 19.7 L10.35 19.65 Q10.9 19.3 10.6 18.4 10.35 17.5 10.5 17.15 10.55 16.7 11.1 15.8 L11.5 14.4 11.5 14.35 11.05 13.55 11.0 13.5 10.95 13.45 10.9 13.35 10.95 13.4 10.95 13.2 10.95 13.0 10.9 10.7 11.05 8.75 11.1 8.55 11.1 8.5 11.35 7.25 11.75 3.85 7.7 4.45 Q7.85 9.0 6.95 12.3 6.45 14.7 6.5 16.9 L6.45 17.5 6.25 19.5 7.15 19.85 M11.75 3.85 L11.75 3.15 Q11.95 1.85 11.35 1.25 10.9 0.6 9.6 0.9 L5.85 0.95 5.0 1.0 3.75 1.25 3.2 2.05 Q2.9 2.55 2.5 2.65 1.5 4.45 1.0 6.05 L0.65 7.25 0.6 7.85 0.65 8.5 0.7 8.8 0.8 9.25 0.9 10.15 0.4 10.65 0.0 11.25 0.75 13.45 Q1.35 15.55 1.25 16.9 1.25 17.25 1.4 17.4 1.5 18.45 1.75 19.1 L2.2 20.1 M10.95 13.45 L10.95 13.4" fill="none" stroke="#0e0e0e" stroke-linecap="round" stroke-linejoin="round" stroke-width="1.0"/>
    <path d="M6.95 12.3 L7.5 12.4 M6.45 17.5 L6.1 17.75 M5.25 3.15 L5.25 4.25 Q5.4 5.25 6.1 6.25 L6.35 6.9 6.3 7.1 6.0 7.4 5.05 7.95 4.35 8.25 3.4 8.6 Q2.9 8.85 2.75 9.25 2.95 9.65 3.7 10.0 4.55 10.35 4.75 10.65 L5.1 11.4 Q5.6 12.0 6.95 12.3 M6.5 16.9 L7.25 16.7 7.5 16.5 7.25 16.8 6.45 17.5 M6.5 16.9 L6.35 16.9 Q5.1 16.6 4.35 16.0 L3.85 15.4 3.1 14.5" ffdec:has-small-stroke="true" ffdec:original-stroke-width="0.8" fill="none" stroke="#0e0e0e" stroke-linecap="round" stroke-linejoin="round" stroke-width="1.0"/>
    <path d="M2.2 20.1 L7.15 19.85 10.3 19.7 10.9 19.65 10.9 19.85 10.9 20.1 10.9 21.85 7.85 22.65 Q4.25 23.8 1.7 22.0 L1.95 20.1 2.2 20.1 Z" fill="none" stroke="#101010" stroke-linecap="round" stroke-linejoin="round" stroke-width="1.0"/>
  </g>
</svg>
