<?xml version="1.0" encoding="UTF-8" standalone="no"?>
<svg xmlns:ffdec="https://www.free-decompiler.com/flash" xmlns:xlink="http://www.w3.org/1999/xlink" ffdec:objectType="shape" height="24.25px" width="14.65px" xmlns="http://www.w3.org/2000/svg">
  <g transform="matrix(1.0, 0.0, 0.0, 1.0, 0.5, 1.6)">
    <path d="M1.05 14.6 L0.75 13.55 0.3 12.2 1.55 11.1 2.9 11.85 1.75 14.75 1.05 14.6" fill="#858585" fill-rule="evenodd" stroke="none"/>
    <path d="M6.3 5.45 L8.5 5.45 8.1 6.75 4.85 8.45 3.15 7.3 0.65 7.7 0.65 7.35 1.0 6.15 1.15 5.75 1.5 4.8 2.0 3.8 4.1 5.4 6.3 5.45 M11.45 15.1 L11.1 15.9 Q10.55 16.8 10.5 17.25 L10.45 17.65 9.05 17.65 7.75 19.05 6.8 18.5 5.9 19.8 2.75 18.75 1.9 19.6 1.75 19.2 Q1.5 18.55 1.4 17.5 1.25 17.35 1.25 17.0 L1.05 14.6 1.75 14.75 2.45 14.85 3.4 17.3 6.05 17.45 6.9 14.8 11.45 15.1" fill="#b8b8b8" fill-rule="evenodd" stroke="none"/>
    <path d="M6.8 3.9 L6.3 5.45 4.1 5.4 2.0 3.8 2.2 3.3 2.45 2.85 2.5 2.75 Q2.9 2.65 3.2 2.15 L3.75 1.35 5.0 1.1 5.45 1.1 5.1 3.2 6.8 3.9 M4.85 8.45 L5.9 10.65 8.0 10.25 7.75 9.5 9.85 8.3 11.3 7.75 11.1 8.6 11.1 8.65 11.05 8.8 11.05 8.85 10.9 10.8 10.85 11.1 10.9 11.5 9.55 11.25 8.6 13.25 6.45 13.9 5.1 11.65 4.3 12.65 2.9 11.85 1.55 11.1 0.3 12.2 Q0.1 11.05 0.4 10.75 L0.9 10.25 0.8 9.35 0.7 8.9 0.65 8.6 0.6 7.95 0.65 7.7 3.15 7.3 4.85 8.45 M10.45 17.65 L10.6 18.5 Q10.9 19.4 10.35 19.75 L9.7 20.2 7.75 19.05 9.05 17.65 10.45 17.65" fill="#a3a3a3" fill-rule="evenodd" stroke="none"/>
    <path d="M7.7 1.0 L9.6 1.0 Q10.9 0.7 11.35 1.35 11.95 1.95 11.75 3.25 L11.35 7.35 11.3 7.75 9.85 8.3 7.75 9.5 8.0 10.25 5.9 10.65 4.85 8.45 8.1 6.75 8.5 5.45 6.3 5.45 6.8 3.9 7.7 1.0 M2.9 11.85 L4.3 12.65 5.1 11.65 6.45 13.9 6.9 14.8 6.05 17.45 3.4 17.3 2.45 14.85 1.75 14.75 2.9 11.85" fill="#aaaaaa" fill-rule="evenodd" stroke="none"/>
    <path d="M7.7 1.0 L6.8 3.9 5.1 3.2 5.45 1.1 5.85 1.05 7.7 1.0 M10.9 11.5 L10.95 13.1 10.95 13.3 10.95 13.5 11.0 13.6 11.5 14.45 11.5 14.5 11.45 15.1 6.9 14.8 6.45 13.9 8.6 13.25 9.55 11.25 10.9 11.5 M9.7 20.2 L8.7 21.0 Q7.75 21.8 7.0 21.85 L5.25 21.6 3.35 20.85 Q2.75 20.7 2.25 20.25 L1.9 19.6 2.75 18.75 5.9 19.8 6.8 18.5 7.75 19.05 9.7 20.2" fill="#a8a8a8" fill-rule="evenodd" stroke="none"/>
    <path d="M10.9 10.8 L11.05 8.85 11.1 8.65 11.1 8.6 11.35 7.35 11.75 3.25 Q11.95 1.95 11.35 1.35 10.9 0.7 9.6 1.0 L5.85 1.05 5.0 1.1 3.75 1.35 3.2 2.15 Q2.9 2.65 2.5 2.75 1.5 4.55 1.0 6.15 L0.65 7.35 0.6 7.95 0.65 8.6 0.7 8.9 0.8 9.35 0.9 10.25 0.4 10.75 0.0 11.35 0.75 13.55 Q1.35 15.65 1.25 17.0 1.25 17.35 1.4 17.5 1.5 18.55 1.75 19.2 1.95 19.9 2.25 20.25 2.75 20.7 3.35 20.85 L5.25 21.6 7.0 21.85 Q7.75 21.8 8.7 21.0 L10.35 19.75 Q10.9 19.4 10.6 18.5 10.35 17.6 10.5 17.25 10.55 16.8 11.1 15.9 L11.5 14.5 11.5 14.45 11.05 13.65 11.0 13.6 10.95 13.55 10.9 13.45 10.95 13.5 10.95 13.3 10.95 13.1 10.85 11.1 M10.95 13.55 L10.95 13.5" fill="none" stroke="#3c3c3c" stroke-linecap="round" stroke-linejoin="round" stroke-width="1.0"/>
    <path d="M5.25 3.25 L5.25 4.35 Q5.4 5.35 6.1 6.35 L6.35 7.0 6.3 7.2 6.0 7.5 5.05 8.05 4.35 8.35 3.4 8.7 Q2.9 8.95 2.75 9.35 2.95 9.75 3.7 10.1 4.55 10.45 4.75 10.75 L5.1 11.5 Q5.7 12.2 7.5 12.5 M3.1 14.6 L3.85 15.5 4.35 16.1 Q5.1 16.7 6.35 17.0 L7.25 16.8 7.5 16.6 7.25 16.9 6.1 17.85" fill="none" stroke="#3c3c3c" stroke-linecap="round" stroke-linejoin="round" stroke-width="0.8"/>
    <path d="M7.8 12.45 L7.8 11.65 7.95 11.15 Q8.25 10.9 8.45 11.4 L8.4 10.2 8.45 10.0 Q7.75 8.7 7.65 7.7 L7.9 7.85 8.0 7.95 8.0 7.8 Q7.7 6.3 7.7 4.7 8.7 7.8 9.1 9.9 L9.2 10.35 9.5 11.4 10.15 11.85 10.75 12.65 Q10.75 12.15 11.0 12.2 L11.2 12.35 11.4 12.65 11.45 13.2 Q11.5 13.9 11.0 14.75 10.4 15.8 10.15 15.0 9.85 14.1 9.9 13.5 L9.6 11.95 9.65 12.45 Q9.7 13.55 9.3 14.15 L9.1 14.25 8.95 14.05 8.6 13.2 8.6 13.45 8.5 13.5 8.25 13.35 8.2 13.8 8.1 13.95 7.45 13.45 7.1 12.9 7.05 13.15 6.85 13.0 Q6.7 12.9 6.55 13.2 L6.3 12.7 6.05 12.0 5.95 11.35 6.15 11.2 Q5.95 11.05 5.9 10.4 L6.3 10.45 6.7 10.8 7.0 11.5 7.15 12.1 7.8 12.45 8.2 13.3 8.25 13.35 7.8 12.45 M3.05 5.9 L4.3 7.9 5.35 10.15 Q5.3 10.45 4.4 9.2 L3.1 7.4 Q2.55 6.8 2.45 6.1 L2.4 5.75 Q2.4 5.6 2.5 5.7 L3.05 5.9 M3.9 9.85 L4.1 9.95 4.65 10.5 4.75 10.6 4.95 11.5 5.1 11.65 5.1 11.8 5.15 11.8 6.15 13.2 6.1 13.45 6.05 13.6 5.85 13.75 5.7 13.75 Q5.55 13.7 5.55 13.8 L5.1 13.1 5.0 12.5 4.9 12.45 4.85 12.4 4.2 11.85 3.8 11.4 Q3.7 11.1 3.75 10.65 L3.75 9.95 Q3.75 9.8 3.9 9.85 M1.95 7.55 L2.25 7.65 3.15 9.0 3.25 9.55 3.45 10.0 3.5 10.45 Q3.65 10.7 3.35 10.75 L3.15 10.3 2.85 9.9 2.85 9.55 2.7 9.05 2.35 8.3 1.95 7.55 M5.9 6.35 L6.5 7.0 Q6.85 7.4 7.0 8.1 L7.25 9.15 Q7.45 9.75 7.2 9.75 L7.15 9.85 7.0 9.85 6.65 9.7 6.3 9.0 6.0 8.25 5.7 7.3 5.45 6.75 Q5.4 6.5 5.5 6.35 L5.9 6.35 M5.25 8.15 L5.3 8.15 5.35 8.1 5.6 8.35 5.75 8.85 5.75 9.25 5.75 9.35 5.6 9.25 5.5 9.15 5.4 9.05 5.35 9.0 5.25 8.85 5.25 8.7 5.2 8.4 5.25 8.15 M6.9 14.15 L7.0 14.25 7.3 15.15 7.6 15.6 7.95 16.15 8.35 16.3 8.55 16.8 8.45 17.05 8.05 18.55 6.75 16.7 Q6.7 16.45 6.8 16.35 6.8 16.25 6.9 16.3 L7.05 16.35 Q7.3 16.25 7.1 16.0 6.75 15.05 6.55 13.5 L6.9 14.15 M8.35 14.8 L8.25 14.35 8.3 14.1 8.6 14.05 8.95 14.55 9.05 14.7 9.15 14.75 9.3 14.9 9.65 15.3 9.75 15.75 9.7 17.45 9.6 17.6 9.55 17.55 9.0 16.45 8.35 14.8" fill="#410000" fill-opacity="0.50980395" fill-rule="evenodd" stroke="none"/>
    <path d="M2.35 19.7 Q1.25 19.35 1.45 18.0 6.05 16.7 10.6 16.95 L11.55 18.1 11.55 19.15 10.85 19.2 10.85 21.15 9.15 22.15 1.55 21.5 Q1.25 20.6 2.35 19.7 L10.85 19.2 2.35 19.7" fill="#5b1e1e" fill-rule="evenodd" stroke="none"/>
    <path d="M9.7 0.1 L9.7 4.7 1.2 4.2 Q1.1 2.1 2.3 0.6 L9.7 0.1" fill="#1c1c1c" fill-rule="evenodd" stroke="none"/>
    <path d="M9.7 0.1 L9.7 -0.75 12.9 -1.1 Q14.45 2.35 12.9 6.0 L11.25 6.0 9.7 4.8 9.7 4.7 9.7 0.1 M11.3 1.3 L10.95 1.0 11.3 1.3 M11.3 4.1 L10.95 3.8 11.3 4.1" fill="#adadad" fill-rule="evenodd" stroke="none"/>
    <path d="M2.35 19.7 Q1.25 19.35 1.45 18.0 6.05 16.7 10.6 16.95 L11.55 18.1 11.55 19.15 10.85 19.2 10.85 21.15 9.15 22.15 1.55 21.5 Q1.25 20.6 2.35 19.7 L10.85 19.2" fill="none" stroke="#250e0e" stroke-linecap="round" stroke-linejoin="round" stroke-width="1.0"/>
    <path d="M9.7 4.7 L1.2 4.2 Q1.1 2.1 2.3 0.6 L9.7 0.1" fill="none" stroke="#121212" stroke-linecap="round" stroke-linejoin="round" stroke-width="1.0"/>
    <path d="M9.7 4.7 L9.7 4.8 11.25 6.0 12.9 6.0 Q14.45 2.35 12.9 -1.1 L9.7 -0.75 9.7 0.1 9.7 4.7" fill="none" stroke="#4a4a4a" stroke-linecap="round" stroke-linejoin="round" stroke-width="1.0"/>
    <path d="M10.95 3.8 L11.3 4.1 M10.95 1.0 L11.3 1.3" fill="none" stroke="#707070" stroke-linecap="round" stroke-linejoin="round" stroke-width="1.0"/>
  </g>
</svg>
