<?xml version="1.0" encoding="UTF-8" standalone="no"?>
<svg xmlns:ffdec="https://www.free-decompiler.com/flash" xmlns:xlink="http://www.w3.org/1999/xlink" ffdec:objectType="shape" height="13.7px" width="14.1px" xmlns="http://www.w3.org/2000/svg">
  <g transform="matrix(1.0, 0.0, 0.0, 1.0, 7.85, 7.85)">
    <path d="M-0.2 -7.25 Q6.1 -6.7 5.75 -1.9 5.35 2.85 3.05 4.25 0.7 5.65 -1.65 5.3 -4.0 4.9 -5.9 2.45 -7.85 0.0 -7.2 -3.9 -6.55 -7.85 -0.2 -7.25" fill="#181621" fill-rule="evenodd" stroke="none"/>
    <path d="M-0.2 -7.25 Q6.1 -6.7 5.75 -1.9 5.35 2.85 3.05 4.25 0.7 5.65 -1.65 5.3 -4.0 4.9 -5.9 2.45 -7.85 0.0 -7.2 -3.9 -6.55 -7.85 -0.2 -7.25 Z" fill="none" stroke="#040309" stroke-linecap="round" stroke-linejoin="round" stroke-width="1.0"/>
  </g>
</svg>
