<?xml version="1.0" encoding="UTF-8" standalone="no"?>
<svg xmlns:ffdec="https://www.free-decompiler.com/flash" xmlns:xlink="http://www.w3.org/1999/xlink" ffdec:objectType="shape" height="22.0px" width="14.75px" xmlns="http://www.w3.org/2000/svg">
  <g transform="matrix(1.0, 0.0, 0.0, 1.0, 0.5, 0.5)">
    <path d="M11.6 2.6 L11.65 2.6 Q12.65 2.65 13.0 3.75 13.35 4.8 13.2 6.45 13.0 8.05 12.3 9.15 L11.45 10.05 11.0 10.25 Q10.45 10.25 9.95 9.05 9.4 7.8 9.35 6.3 9.25 4.75 9.95 3.7 10.65 2.65 11.6 2.6" fill="#999999" fill-rule="evenodd" stroke="none"/>
    <path d="M11.6 2.6 Q10.65 2.65 9.95 3.7 9.25 4.75 9.35 6.3 9.4 7.8 9.95 9.05 10.45 10.25 11.0 10.25 L11.45 10.05 Q10.85 15.25 8.7 20.3 5.35 18.55 0.55 19.7 0.4 17.6 2.15 17.25 L2.65 17.25 1.05 8.75 1.0 1.1 Q3.6 2.6 7.2 2.1 9.6 -0.9 11.35 0.4 L11.6 2.6" fill="#191919" fill-rule="evenodd" stroke="none"/>
    <path d="M11.65 2.6 L11.6 2.6" fill="none" stroke="#2f2f2f" stroke-linecap="round" stroke-linejoin="round" stroke-width="1.0"/>
    <path d="M11.6 2.6 Q10.65 2.65 9.95 3.7 9.25 4.75 9.35 6.3 9.4 7.8 9.95 9.05 10.45 10.25 11.0 10.25 L11.45 10.05 Q10.85 15.25 8.7 20.3 5.35 18.55 0.55 19.7 0.4 17.6 2.15 17.25 L2.65 17.25 1.05 8.75 1.0 1.1 Q3.6 2.6 7.2 2.1 9.6 -0.9 11.35 0.4 L11.6 2.6 Z" fill="none" stroke="#0e0e0e" stroke-linecap="round" stroke-linejoin="round" stroke-width="1.0"/>
    <path d="M4.8 4.55 L5.75 4.75 6.35 6.3 6.15 7.35 5.7 6.45 4.8 4.55" fill="#272727" fill-rule="evenodd" stroke="none"/>
    <path d="M12.85 10.45 L12.65 10.95 12.05 10.7 9.4 20.1 7.55 21.0 4.9 19.3 7.85 6.05 7.5 4.55 7.95 4.0 10.5 1.0 13.4 1.0 Q13.65 6.05 12.85 10.45 L8.95 8.8 9.1 9.5 8.95 8.8 12.85 10.45 M8.95 8.8 L7.95 4.0 8.95 8.8 M6.15 7.35 L4.7 14.05 3.75 14.05 3.7 17.9 3.1 17.75 1.6 17.4 1.05 11.7 0.0 9.35 0.0 3.5 4.8 4.55 5.7 6.45 6.15 7.35 M4.2 13.35 L5.7 6.45 4.2 13.35 M5.5 19.3 L7.85 8.45 5.5 19.3 M3.1 17.75 L3.25 13.6 3.1 17.75" fill="#350303" fill-rule="evenodd" stroke="none"/>
    <path d="M12.85 10.45 L8.95 8.8 9.1 9.5 M7.95 4.0 L8.95 8.8 M6.15 7.35 L5.7 6.45 4.2 13.35 M4.8 4.55 L5.7 6.45 M3.25 13.6 L3.1 17.75 M7.85 8.45 L5.5 19.3" fill="none" stroke="#350303" stroke-linecap="round" stroke-linejoin="round" stroke-width="1.0"/>
    <path d="M0.0 7.3 L0.0 5.25 3.35 6.3 2.85 8.4 0.0 7.3" fill="#ff0000" fill-rule="evenodd" stroke="none"/>
    <path d="M12.05 10.7 L12.65 10.95 13.6 7.55 12.9 6.75 12.9 3.45 13.75 3.25 13.4 1.0 10.5 1.0 7.5 4.55 7.85 6.05 8.55 9.25 12.05 10.7 11.15 14.0 9.8 18.75 9.4 20.1 7.55 21.0 4.9 19.3 5.6 16.2 6.65 11.4 7.85 6.05 M0.0 5.25 L0.0 3.5 5.75 4.75 6.35 6.3 4.7 14.05 3.75 14.05 3.7 17.9 1.6 17.4 1.05 11.7 0.0 9.35 0.0 7.3 0.0 5.25 3.35 6.3 2.85 8.4 0.0 7.3 M5.6 16.2 L9.8 18.75 M3.75 14.05 L1.05 11.7 M6.65 11.4 L11.15 14.0" fill="none" stroke="#190000" stroke-linecap="round" stroke-linejoin="round" stroke-width="1.0"/>
  </g>
</svg>
