<?xml version="1.0" encoding="UTF-8" standalone="no"?>
<svg xmlns:ffdec="https://www.free-decompiler.com/flash" xmlns:xlink="http://www.w3.org/1999/xlink" ffdec:objectType="shape" height="22.85px" width="14.3px" xmlns="http://www.w3.org/2000/svg">
  <g transform="matrix(1.0, 0.0, 0.0, 1.0, -2.15, 2.4)">
    <path d="M9.4 0.5 L9.4 1.6 10.4 2.85 4.05 4.35 3.3 4.5 2.65 3.65 2.65 2.3 9.4 0.5 M10.9 5.15 L10.0 6.75 10.8 7.6 5.0 9.2 4.3 9.4 3.95 8.1 4.05 7.0 4.7 6.85 10.9 5.15 M7.15 11.9 L9.6 11.2 9.6 16.65 8.1 16.65 8.45 14.85 7.15 11.9" fill="#1c1c1c" fill-rule="evenodd" stroke="none"/>
    <path d="M10.4 2.85 L10.95 5.05 10.9 5.15 4.7 6.85 4.05 4.35 10.4 2.85" fill="url(#gradient0)" fill-rule="evenodd" stroke="none"/>
    <path d="M8.1 16.65 L9.6 16.65 9.55 17.4 11.15 18.5 11.85 18.8 9.9 19.9 8.65 19.95 7.1 18.55 Q7.75 18.0 8.1 16.65" fill="url(#gradient1)" fill-rule="evenodd" stroke="none"/>
    <path d="M11.2 8.05 L14.4 8.1 Q15.75 8.8 15.7 9.9 16.2 13.4 15.7 16.85 14.65 18.95 12.6 19.15 L11.85 18.8 11.15 18.5 9.55 17.4 9.6 16.65 9.6 11.2 9.55 10.1 11.2 8.05" fill="url(#gradient2)" fill-rule="evenodd" stroke="none"/>
    <path d="M9.4 0.5 L9.4 -0.65 Q11.35 -2.3 13.5 -1.75 L14.4 -0.1 12.5 1.85 13.05 4.75 15.2 6.6 14.4 8.1 11.2 8.05 10.8 7.6 10.0 6.75 10.9 5.15 10.95 5.05 10.4 2.85 9.4 1.6 9.4 0.5" fill="url(#gradient3)" fill-rule="evenodd" stroke="none"/>
    <path d="M7.1 18.55 L6.6 18.9 Q4.75 16.25 3.65 12.85 L3.65 10.65 4.6 10.7 Q6.2 10.9 7.15 11.9 L8.45 14.85 8.1 16.65 Q7.75 18.0 7.1 18.55" fill="url(#gradient4)" fill-rule="evenodd" stroke="none"/>
    <path d="M10.8 7.6 L11.2 8.05 9.55 10.1 9.6 11.2 7.15 11.9 Q6.2 10.9 4.6 10.7 L5.0 9.2 10.8 7.6 M15.2 6.6 L13.05 4.75 12.5 1.85 14.4 -0.1 Q16.25 3.45 15.4 6.2 L15.2 6.6" fill="#1e1e1e" fill-rule="evenodd" stroke="none"/>
    <path d="M4.6 10.7 L5.0 9.2 M4.7 6.85 L4.05 4.35 M7.1 18.55 L8.65 19.95 9.9 19.9 11.85 18.8" fill="none" stroke="#070707" stroke-linecap="round" stroke-linejoin="round" stroke-width="1.0"/>
    <path d="M14.4 -0.1 L13.5 -1.75 Q11.35 -2.3 9.4 -0.65 L9.4 0.5 9.4 1.6 10.4 2.85 10.95 5.05 10.9 5.15 10.0 6.75 10.8 7.6 11.2 8.05 14.4 8.1 15.2 6.6 13.05 4.75 12.5 1.85 14.4 -0.1 Q16.25 3.45 15.4 6.2 L15.2 6.6 M11.85 18.8 L12.6 19.15 Q14.65 18.95 15.7 16.85 16.2 13.4 15.7 9.9 15.75 8.8 14.4 8.1 M9.4 0.5 L2.65 2.3 2.65 3.65 3.3 4.5 4.05 4.35 10.4 2.85 M5.0 9.2 L4.3 9.4 3.95 8.1 4.05 7.0 4.7 6.85 10.9 5.15 M7.1 18.55 L6.6 18.9 Q4.75 16.25 3.65 12.85 L3.65 10.65 4.6 10.7 Q6.2 10.9 7.15 11.9 L9.6 11.2 9.55 10.1 11.2 8.05 M9.6 16.65 L8.1 16.65 Q7.75 18.0 7.1 18.55 M11.85 18.8 L11.15 18.5 9.55 17.4 9.6 16.65 9.6 11.2 M8.1 16.65 L8.45 14.85 7.15 11.9 M10.8 7.6 L5.0 9.2" fill="none" stroke="#0b0b0b" stroke-linecap="round" stroke-linejoin="round" stroke-width="1.0"/>
  </g>
  <defs>
    <radialGradient cx="0" cy="0" gradientTransform="matrix(0.0043, 0.0, 0.0, 0.0043, 7.5, 4.85)" gradientUnits="userSpaceOnUse" id="gradient0" r="819.2" spreadMethod="pad">
      <stop offset="0.0" stop-color="#000000"/>
      <stop offset="0.0" stop-color="#232323"/>
      <stop offset="0.9686274509803922" stop-color="#1e1e1e"/>
      <stop offset="1.0" stop-color="#414141"/>
    </radialGradient>
    <radialGradient cx="0" cy="0" gradientTransform="matrix(0.0029, 0.0, 0.0, 0.0029, 9.5, 18.3)" gradientUnits="userSpaceOnUse" id="gradient1" r="819.2" spreadMethod="pad">
      <stop offset="0.0" stop-color="#000000"/>
      <stop offset="0.0" stop-color="#232323"/>
      <stop offset="0.9686274509803922" stop-color="#1e1e1e"/>
      <stop offset="1.0" stop-color="#414141"/>
    </radialGradient>
    <radialGradient cx="0" cy="0" gradientTransform="matrix(0.0026, 0.0096, -0.0068, 0.0018, 15.6, 10.8)" gradientUnits="userSpaceOnUse" id="gradient2" r="819.2" spreadMethod="pad">
      <stop offset="0.0" stop-color="#333333"/>
      <stop offset="1.0" stop-color="#070707"/>
    </radialGradient>
    <radialGradient cx="0" cy="0" fx="172.8" fy="0" gradientTransform="matrix(0.0, 0.0089, -0.0065, 0.0, 14.5, 1.15)" gradientUnits="userSpaceOnUse" id="gradient3" r="819.2" spreadMethod="pad">
      <stop offset="0.0" stop-color="#333333"/>
      <stop offset="1.0" stop-color="#070707"/>
    </radialGradient>
    <radialGradient cx="0" cy="0" gradientTransform="matrix(0.006, 0.0, 0.0, 0.006, 8.7, 12.95)" gradientUnits="userSpaceOnUse" id="gradient4" r="819.2" spreadMethod="pad">
      <stop offset="0.0" stop-color="#202020"/>
      <stop offset="1.0" stop-color="#070707"/>
    </radialGradient>
  </defs>
</svg>
