<?xml version="1.0" encoding="UTF-8" standalone="no"?>
<svg xmlns:ffdec="https://www.free-decompiler.com/flash" xmlns:xlink="http://www.w3.org/1999/xlink" ffdec:objectType="shape" height="10.85px" width="11.95px" xmlns="http://www.w3.org/2000/svg">
  <g transform="matrix(1.0, 0.0, 0.0, 1.0, 7.95, 6.65)">
    <path d="M0.55 2.65 Q-0.7 3.25 -1.1 0.9 -1.7 -2.2 -0.8 -3.2 0.05 -4.2 1.9 -3.4 2.7 -3.05 3.1 -2.6 2.7 -3.05 1.9 -3.4 0.05 -4.2 -0.8 -3.2 -1.7 -2.2 -1.1 0.9 -0.7 3.25 0.55 2.65 -1.5 4.45 -4.2 3.2 -7.4 1.65 -7.45 -2.35 -7.55 -5.05 -5.3 -5.85 -3.6 -6.5 0.4 -5.8 2.8 -5.15 3.05 -3.35 L3.1 -2.6 Q3.6 -2.05 3.5 -1.25 3.3 0.05 1.35 2.0 L0.55 2.65" fill="#323232" fill-rule="evenodd" stroke="none"/>
    <path d="M3.1 -2.6 Q2.7 -3.05 1.9 -3.4 0.05 -4.2 -0.8 -3.2 -1.7 -2.2 -1.1 0.9 -0.7 3.25 0.55 2.65 L1.35 2.0 Q3.3 0.05 3.5 -1.25 3.6 -2.05 3.1 -2.6 L3.05 -3.35 Q2.8 -5.15 0.4 -5.8 -3.6 -6.5 -5.3 -5.85 -7.55 -5.05 -7.45 -2.35 -7.4 1.65 -4.2 3.2 -1.5 4.45 0.55 2.65" fill="none" stroke="#323232" stroke-linecap="round" stroke-linejoin="round" stroke-width="1.0"/>
  </g>
</svg>
