<?xml version="1.0" encoding="UTF-8" standalone="no"?>
<svg xmlns:ffdec="https://www.free-decompiler.com/flash" xmlns:xlink="http://www.w3.org/1999/xlink" ffdec:objectType="shape" height="21.55px" width="15.05px" xmlns="http://www.w3.org/2000/svg">
  <g transform="matrix(1.0, 0.0, 0.0, 1.0, -2.15, 2.45)">
    <path d="M5.95 15.0 L6.75 13.35 6.25 10.15 8.8 10.1 7.4 15.4 5.95 15.0" fill="#1c1c1c" fill-rule="evenodd" stroke="none"/>
    <path d="M11.75 2.25 L11.75 4.55 11.65 4.55 5.25 4.6 5.2 2.05 11.75 2.25 M10.95 6.95 L11.15 7.5 9.05 9.0 8.8 10.1 6.25 10.15 Q5.65 8.95 4.15 8.35 L4.9 7.0 10.95 6.95 M15.45 7.15 L13.8 4.8 14.0 1.85 16.4 0.45 Q17.25 4.35 15.75 6.8 L15.45 7.15 M4.5 16.55 Q5.3 16.2 5.95 15.0 L7.4 15.4 7.15 16.05 8.4 17.55 9.05 18.0 6.85 18.55 5.65 18.3 4.5 16.55" fill="#1b1c14" fill-rule="evenodd" stroke="none"/>
    <path d="M11.4 -0.25 L11.15 0.8 11.75 2.25 5.2 2.05 4.5 2.0 4.05 1.05 4.4 -0.3 11.4 -0.25 M11.65 4.55 L10.35 5.9 10.95 6.95 4.9 7.0 4.15 7.0 4.15 5.6 4.55 4.6 5.25 4.6 11.65 4.55" fill="#1a1e13" fill-rule="evenodd" stroke="none"/>
    <path d="M11.4 -0.25 L11.7 -1.4 Q14.0 -2.45 15.95 -1.4 L16.4 0.45 14.0 1.85 13.8 4.8 15.45 7.15 14.25 8.35 11.15 7.5 10.95 6.95 10.35 5.9 11.65 4.55 11.75 4.55 11.75 2.25 11.15 0.8 11.4 -0.25" fill="url(#gradient0)" fill-rule="evenodd" stroke="none"/>
    <path d="M11.15 7.5 L14.25 8.35 Q15.35 9.4 15.05 10.4 14.65 13.95 13.25 17.15 11.7 18.9 9.65 18.55 L9.05 18.0 8.4 17.55 7.15 16.05 7.4 15.4 8.8 10.1 9.05 9.0 11.15 7.5" fill="url(#gradient1)" fill-rule="evenodd" stroke="none"/>
    <path d="M4.5 16.55 L3.95 16.75 Q2.85 13.75 2.65 10.15 L3.25 8.05 4.15 8.35 Q5.65 8.95 6.25 10.15 L6.75 13.35 5.95 15.0 Q5.3 16.2 4.5 16.55" fill="url(#gradient2)" fill-rule="evenodd" stroke="none"/>
    <path d="M5.2 2.05 L5.25 4.6 M4.15 8.35 L4.9 7.0 M9.05 18.0 L6.85 18.55 5.65 18.3 4.5 16.55" fill="none" stroke="#070707" stroke-linecap="round" stroke-linejoin="round" stroke-width="1.0"/>
    <path d="M16.4 0.45 L15.95 -1.4 Q14.0 -2.45 11.7 -1.4 L11.4 -0.25 11.15 0.8 11.75 2.25 11.75 4.55 11.65 4.55 10.35 5.9 10.95 6.95 11.15 7.5 14.25 8.35 15.45 7.15 13.8 4.8 14.0 1.85 16.4 0.45 Q17.25 4.35 15.75 6.8 L15.45 7.15 M11.4 -0.25 L4.4 -0.3 4.05 1.05 4.5 2.0 5.2 2.05 11.75 2.25 M9.05 18.0 L9.65 18.55 Q11.7 18.9 13.25 17.15 14.65 13.95 15.05 10.4 15.35 9.4 14.25 8.35 M5.25 4.6 L11.65 4.55 M4.9 7.0 L4.15 7.0 4.15 5.6 4.55 4.6 5.25 4.6 M4.15 8.35 L3.25 8.05 2.65 10.15 Q2.85 13.75 3.95 16.75 L4.5 16.55 Q5.3 16.2 5.95 15.0 L6.75 13.35 6.25 10.15 Q5.65 8.95 4.15 8.35 M4.9 7.0 L10.95 6.95 M6.25 10.15 L8.8 10.1 9.05 9.0 11.15 7.5 M5.95 15.0 L7.4 15.4 8.8 10.1 M7.4 15.4 L7.15 16.05 8.4 17.55 9.05 18.0" fill="none" stroke="#0b0b0b" stroke-linecap="round" stroke-linejoin="round" stroke-width="1.0"/>
  </g>
  <defs>
    <radialGradient cx="0" cy="0" gradientTransform="matrix(0.0, 0.0104, -0.0066, 0.0, 15.15, 2.45)" gradientUnits="userSpaceOnUse" id="gradient0" r="819.2" spreadMethod="pad">
      <stop offset="0.0" stop-color="#2e3328"/>
      <stop offset="1.0" stop-color="#070707"/>
    </radialGradient>
    <radialGradient cx="0" cy="0" gradientTransform="matrix(-0.0031, 0.0116, -0.0072, -0.0019, 13.35, 12.15)" gradientUnits="userSpaceOnUse" id="gradient1" r="819.2" spreadMethod="pad">
      <stop offset="0.0" stop-color="#2e3328"/>
      <stop offset="1.0" stop-color="#070707"/>
    </radialGradient>
    <radialGradient cx="0" cy="0" gradientTransform="matrix(0.0021, 0.0078, -0.0058, 0.0015, 6.6, 11.2)" gradientUnits="userSpaceOnUse" id="gradient2" r="819.2" spreadMethod="pad">
      <stop offset="0.0" stop-color="#2e3328"/>
      <stop offset="1.0" stop-color="#070707"/>
    </radialGradient>
  </defs>
</svg>
