<?xml version="1.0" encoding="UTF-8" standalone="no"?>
<svg xmlns:ffdec="https://www.free-decompiler.com/flash" xmlns:xlink="http://www.w3.org/1999/xlink" ffdec:objectType="shape" height="20.25px" width="19.8px" xmlns="http://www.w3.org/2000/svg">
  <g transform="matrix(1.0, 0.0, 0.0, 1.0, 2.2, -0.45)">
    <path d="M6.9 12.2 L-0.55 13.75 -2.2 8.05 7.05 10.15 6.9 12.2" fill="url(#gradient0)" fill-rule="evenodd" stroke="none"/>
    <path d="M8.8 3.75 L8.9 2.65 11.0 2.15 15.35 0.95 16.2 2.25 16.7 7.85 15.55 9.5 14.55 9.1 14.3 12.85 15.0 12.6 17.1 17.75 15.05 19.4 11.85 18.9 8.6 18.45 8.3 17.6 7.4 15.0 11.25 13.8 10.3 9.65 11.05 7.75 8.55 6.6 8.8 3.75 M16.7 7.85 L11.95 4.85 11.0 2.15 11.95 4.85 16.7 7.85 M13.0 17.25 L10.55 17.1 13.0 17.25" fill="#3c0000" fill-rule="evenodd" stroke="none"/>
    <path d="M5.8 15.95 L5.15 13.75 6.25 12.65 8.5 12.8 8.0 10.25 5.55 9.4 4.05 8.1 3.65 5.2 8.8 3.75 8.55 6.6 11.05 7.75 10.3 9.65 11.25 13.8 7.4 15.0 8.3 17.6 6.35 17.55 5.8 15.95" fill="#202020" fill-rule="evenodd" stroke="none"/>
    <path d="M11.85 18.9 L9.0 20.2 5.5 19.1 3.45 18.95 2.3 16.5 5.8 15.95 6.35 17.55 8.3 17.6 8.6 18.45 11.85 18.9" fill="#353535" fill-rule="evenodd" stroke="none"/>
    <path d="M6.25 12.65 L5.55 9.4 8.0 10.25 8.5 12.8 6.25 12.65" fill="#ffd858" fill-rule="evenodd" stroke="none"/>
    <path d="M11.85 18.9 L9.0 20.2 5.5 19.1 3.45 18.95 2.3 16.5 5.8 15.95 5.15 13.75 M4.05 8.1 L3.65 5.2 8.8 3.75 M5.8 15.95 L6.35 17.55 8.3 17.6" fill="none" stroke="#151515" stroke-linecap="round" stroke-linejoin="round" stroke-width="1.0"/>
    <path d="M6.25 12.65 L5.55 9.4" fill="none" stroke="#4c3d02" stroke-linecap="round" stroke-linejoin="round" stroke-width="1.0"/>
    <path d="M11.0 2.15 L11.95 4.85 16.7 7.85 M10.55 17.1 L13.0 17.25" fill="none" stroke="#2c0404" stroke-linecap="round" stroke-linejoin="round" stroke-width="1.0"/>
    <path d="M5.15 13.75 L6.25 12.65 8.5 12.8 8.0 10.25 5.55 9.4 4.05 8.1" fill="none" stroke="#121212" stroke-linecap="round" stroke-linejoin="round" stroke-width="1.0"/>
    <path d="M10.3 9.65 L11.05 7.75 8.55 6.6 8.9 2.65 15.35 0.95 16.2 2.25 Q16.9 5.0 16.7 7.85 L15.55 9.5 14.55 9.1 14.3 12.85 15.0 12.6 17.1 17.75 15.05 19.4 8.6 18.45 7.4 15.0 11.25 13.8 10.3 9.65 M11.05 7.75 L14.55 9.1 M11.25 13.8 L14.3 12.85" fill="none" stroke="#1e0101" stroke-linecap="round" stroke-linejoin="round" stroke-width="1.0"/>
    <path d="M12.95 2.4 L15.0 1.85" fill="none" stroke="#ffd858" stroke-linecap="round" stroke-linejoin="round" stroke-width="1.0"/>
  </g>
  <defs>
    <linearGradient gradientTransform="matrix(-0.0093, -0.0026, -1.0E-4, -0.0035, 8.0, 13.75)" gradientUnits="userSpaceOnUse" id="gradient0" spreadMethod="pad" x1="-819.2" x2="819.2">
      <stop offset="0.0" stop-color="#ffee00" stop-opacity="0.49803922"/>
      <stop offset="1.0" stop-color="#ffd200" stop-opacity="0.0"/>
      <stop offset="1.0" stop-color="#f7ec9a" stop-opacity="0.0"/>
    </linearGradient>
  </defs>
</svg>
