<?xml version="1.0" encoding="UTF-8" standalone="no"?>
<svg xmlns:ffdec="https://www.free-decompiler.com/flash" xmlns:xlink="http://www.w3.org/1999/xlink" ffdec:objectType="shape" height="28.5px" width="22.2px" xmlns="http://www.w3.org/2000/svg">
  <g transform="matrix(1.0, 0.0, 0.0, 1.0, 0.5, 0.5)">
    <path d="M12.35 6.8 L14.85 9.4 15.15 14.6 Q15.2 19.7 14.15 24.4 13.55 27.2 12.2 27.45 10.1 27.7 7.4 25.95 6.0 24.8 5.9 23.25 L3.95 11.75 Q4.15 9.9 5.35 8.6 9.25 5.7 12.35 6.8" fill="#232121" fill-rule="evenodd" stroke="none"/>
    <path d="M12.35 6.8 Q9.25 5.7 5.35 8.6 4.15 9.9 3.95 11.75 L5.9 23.25 Q6.0 24.8 7.4 25.95 10.1 27.7 12.2 27.45 13.55 27.2 14.15 24.4 15.2 19.7 15.15 14.6 L14.85 9.4 12.35 6.8 Z" fill="none" stroke="#17181c" stroke-linecap="round" stroke-linejoin="round" stroke-width="1.0"/>
    <path d="M9.35 5.55 L10.55 5.75 10.55 6.0 9.35 5.55" fill="#7c7f93" fill-rule="evenodd" stroke="none"/>
    <path d="M12.2 5.9 Q14.7 5.15 16.65 2.1 L18.0 0.0 18.0 5.55 16.9 8.6 17.4 10.55 16.65 11.25 16.6 11.55 15.75 8.8 12.7 7.2 12.2 5.9 M15.5 14.2 Q15.85 17.05 16.75 19.7 16.25 22.3 15.4 24.2 15.15 21.7 13.95 19.7 L11.35 18.15 Q11.05 15.7 9.4 14.65 L10.65 13.5 12.95 12.65 Q13.7 13.85 14.05 15.2 14.9 15.0 15.5 14.2" fill="#373943" fill-rule="evenodd" stroke="none"/>
    <path d="M12.2 5.9 L12.7 7.2 15.75 8.8 16.6 11.55 16.5 11.9 Q16.1 13.35 15.5 14.2 14.9 15.0 14.05 15.2 13.7 13.85 12.95 12.65 L11.25 10.6 10.35 10.0 8.4 10.05 6.95 8.6 Q5.05 8.6 3.65 9.65 3.8 8.0 4.9 6.2 7.4 6.5 8.95 5.75 L10.55 6.0 11.35 6.05 12.15 5.9 12.2 5.9 M15.4 24.2 L13.95 26.75 Q12.45 23.8 9.75 23.2 L7.5 24.9 Q7.35 22.45 4.75 21.75 2.45 16.7 2.2 11.95 4.2 15.35 7.15 16.9 L9.4 14.65 Q11.05 15.7 11.35 18.15 L13.95 19.7 Q15.15 21.7 15.4 24.2" fill="#23252e" fill-rule="evenodd" stroke="none"/>
    <path d="M16.6 11.55 L16.65 11.25 17.4 10.55 16.9 8.6 18.0 5.55 18.0 0.0 16.65 2.1 Q14.7 5.15 12.2 5.9 L12.15 5.9 11.35 6.05 10.55 6.0 9.35 5.55 8.95 5.75 Q7.4 6.5 4.9 6.2 3.8 8.0 3.65 9.65 5.05 8.6 6.95 8.6 L8.4 10.05 10.35 10.0 11.25 10.6 12.95 12.65 Q13.7 13.85 14.05 15.2 14.9 15.0 15.5 14.2 15.85 17.05 16.75 19.7 16.25 22.3 15.4 24.2 L13.95 26.75 Q12.45 23.8 9.75 23.2 L7.5 24.9 Q7.35 22.45 4.75 21.75 2.45 16.7 2.2 11.95 4.2 15.35 7.15 16.9 L9.4 14.65 10.65 13.5 12.95 12.65 M16.6 11.55 L16.5 11.9 Q16.1 13.35 15.5 14.2" fill="none" stroke="#12121c" stroke-linecap="round" stroke-linejoin="round" stroke-width="1.0"/>
    <path d="M18.0 3.65 L21.2 1.0 20.1 6.75 17.4 10.55 16.9 8.6 18.0 5.55 18.0 3.65 M2.8 16.3 L4.5 21.1 2.15 19.5 0.0 14.5 Q1.35 15.5 2.8 16.3 M15.75 15.8 L17.8 14.9 Q17.75 17.85 16.45 18.8 L15.75 15.8" fill="#434769" fill-rule="evenodd" stroke="none"/>
    <path d="M18.0 3.65 L21.2 1.0 20.1 6.75 17.4 10.55 16.9 8.6 18.0 5.55 18.0 3.65 M2.8 16.3 Q1.35 15.5 0.0 14.5 L2.15 19.5 4.5 21.1 2.8 16.3 M15.75 15.8 L17.8 14.9 Q17.75 17.85 16.45 18.8 L15.75 15.8" fill="none" stroke="#141520" stroke-linecap="round" stroke-linejoin="round" stroke-width="1.0"/>
    <path d="M15.6 6.3 L14.4 9.0 M7.55 18.85 L8.85 21.55 M4.95 17.5 L6.35 20.4" fill="none" stroke="#1b1b20" stroke-linecap="round" stroke-linejoin="round" stroke-width="1.0"/>
  </g>
</svg>
