<?xml version="1.0" encoding="UTF-8" standalone="no"?>
<svg xmlns:ffdec="https://www.free-decompiler.com/flash" xmlns:xlink="http://www.w3.org/1999/xlink" ffdec:objectType="shape" height="22.85px" width="17.95px" xmlns="http://www.w3.org/2000/svg">
  <g transform="matrix(1.0, 0.0, 0.0, 1.0, 10.75, 3.95)">
    <path d="M4.7 -1.3 L4.35 -1.25 4.7 -1.3 M4.75 7.0 L4.15 7.1 -0.75 6.25 -1.8 6.25 -4.6 3.25 Q-5.5 2.3 -5.85 0.55 L-6.0 -0.8 Q2.0 -3.2 4.4 -3.45 6.85 -3.7 6.7 0.85 6.55 5.3 6.25 4.95 L4.75 7.0 M-1.55 6.0 L-1.8 6.25 -1.55 6.0 M5.0 0.95 L4.65 1.0 5.0 0.95 M5.95 4.25 L1.6 3.4 -0.95 -1.6 1.6 3.4 5.95 4.25" fill="url(#gradient0)" fill-rule="evenodd" stroke="none"/>
    <path d="M-5.85 0.55 Q-5.5 2.3 -4.6 3.25 -6.05 3.75 -5.45 6.5 L-0.8 11.75 Q0.7 12.85 3.35 11.3 1.4 12.95 2.5 14.6 L-1.4 15.8 -2.05 18.25 -4.65 17.7 Q-3.05 15.6 -4.75 13.2 -5.55 12.1 -6.75 11.2 -7.5 8.15 -7.5 4.8 L-7.45 4.1 Q-7.3 1.8 -5.85 0.55" fill="#1e1e1e" fill-rule="evenodd" stroke="none"/>
    <path d="M4.75 7.0 L3.35 11.3 Q0.7 12.85 -0.8 11.75 L-5.45 6.5 Q-6.05 3.75 -4.6 3.25 L-1.8 6.25 -0.75 6.25 4.15 7.1 4.75 7.0 M-3.8 7.8 L-1.8 6.25 -3.8 7.8" fill="url(#gradient1)" fill-rule="evenodd" stroke="none"/>
    <path d="M-4.65 17.7 Q-5.55 17.85 -7.35 16.45 -9.2 15.0 -7.95 10.45 L-7.9 10.45 -6.75 11.2 Q-5.55 12.1 -4.75 13.2 -3.05 15.6 -4.65 17.7" fill="url(#gradient2)" fill-rule="evenodd" stroke="none"/>
    <path d="M2.5 14.6 Q4.0 19.15 -2.05 18.25 L-1.4 15.8 2.5 14.6" fill="url(#gradient3)" fill-rule="evenodd" stroke="none"/>
    <path d="M4.35 -1.25 L4.7 -1.3" fill="none" stroke="#131313" stroke-linecap="round" stroke-linejoin="round" stroke-width="1.0"/>
    <path d="M-0.95 -1.6 L1.6 3.4 5.95 4.25" fill="none" stroke="url(#gradient4)" stroke-linecap="round" stroke-linejoin="round" stroke-width="1.0"/>
    <path d="M4.65 1.0 L5.0 0.95" fill="none" stroke="#101010" stroke-linecap="round" stroke-linejoin="round" stroke-width="1.0"/>
    <path d="M3.35 11.3 Q1.4 12.95 2.5 14.6 M-7.95 10.45 L-7.9 10.45 M-6.75 11.2 Q-7.5 8.15 -7.5 4.8 L-7.45 4.1 Q-7.3 1.8 -5.85 0.55" fill="none" stroke="#000000" stroke-linecap="round" stroke-linejoin="round" stroke-width="1.0"/>
    <path d="M4.75 7.0 L4.15 7.1" fill="none" stroke="#121417" stroke-linecap="round" stroke-linejoin="round" stroke-width="1.0"/>
    <path d="M-7.45 4.1 L-8.35 4.45 -9.4 4.7 -9.15 5.3 -8.35 6.55 M-9.2 8.95 L-10.0 7.7 Q-10.4 6.95 -10.2 6.0 -10.1 5.0 -9.5 4.75 L-9.4 4.7 -9.4 3.6 Q-9.25 2.6 -8.65 2.35 L-7.5 2.05" fill="none" stroke="#080807" stroke-linecap="round" stroke-linejoin="round" stroke-opacity="0.8784314" stroke-width="1.0"/>
    <path d="M2.5 14.6 Q4.0 19.15 -2.05 18.25 L-1.4 15.8 2.5 14.6 M-4.65 17.7 Q-5.55 17.85 -7.35 16.45 -9.2 15.0 -7.95 10.45 M-7.9 10.45 L-6.75 11.2 Q-5.55 12.1 -4.75 13.2 -3.05 15.6 -4.65 17.7" fill="none" stroke="#0e0e0e" stroke-linecap="round" stroke-linejoin="round" stroke-width="1.0"/>
    <path d="M-1.8 6.25 L-3.8 7.8 M-1.8 6.25 L-1.55 6.0" fill="none" stroke="url(#gradient5)" stroke-linecap="round" stroke-linejoin="round" stroke-width="1.0"/>
    <path d="M-9.5 9.3 Q-9.45 8.1 -8.45 7.4 L-7.95 7.1 -6.85 7.1 Q-4.85 8.5 -3.7 10.2 -2.35 13.15 -4.05 15.75 L-8.25 15.75 Q-9.45 14.65 -9.5 13.6 L-9.5 9.3" fill="#232323" fill-rule="evenodd" stroke="none"/>
    <path d="M-9.5 9.3 L-9.5 13.6 Q-9.45 14.65 -8.25 15.75 L-4.05 15.75 Q-2.35 13.15 -3.7 10.2 -4.85 8.5 -6.85 7.1 L-7.95 7.1 -8.45 7.4 Q-9.45 8.1 -9.5 9.3 Z" fill="none" stroke="#0f0f0f" stroke-linecap="round" stroke-linejoin="round" stroke-width="1.0"/>
    <path d="M-1.8 6.25 L-4.6 3.25 Q-6.05 3.75 -5.45 6.5 -2.5 8.8 -0.8 11.75 0.7 12.85 3.35 11.3 L4.75 7.0 6.25 4.95 Q6.55 5.3 6.7 0.85 6.85 -3.7 4.4 -3.45 2.0 -3.2 -6.0 -0.8 L-5.85 0.55 Q-5.5 2.3 -4.6 3.25" fill="none" stroke="#0e0e0e" stroke-linecap="round" stroke-linejoin="round" stroke-width="1.0"/>
    <path d="M-1.8 6.25 L-0.75 6.25 4.15 7.1" fill="none" stroke="#0e0e0e" stroke-linecap="round" stroke-linejoin="round" stroke-width="1.0"/>
  </g>
  <defs>
    <radialGradient cx="0" cy="0" gradientTransform="matrix(0.0117, 0.0, 0.0, 0.0104, -2.0, 1.4)" gradientUnits="userSpaceOnUse" id="gradient0" r="819.2" spreadMethod="pad">
      <stop offset="0.0" stop-color="#333333"/>
      <stop offset="1.0" stop-color="#1c1c1c"/>
    </radialGradient>
    <radialGradient cx="0" cy="0" gradientTransform="matrix(0.0092, -9.0E-4, 9.0E-4, 0.0076, -2.8, 7.6)" gradientUnits="userSpaceOnUse" id="gradient1" r="819.2" spreadMethod="pad">
      <stop offset="0.0" stop-color="#333333"/>
      <stop offset="1.0" stop-color="#1c1c1c"/>
    </radialGradient>
    <radialGradient cx="0" cy="0" gradientTransform="matrix(0.0071, 0.0, 0.0, 0.0071, -5.65, 15.75)" gradientUnits="userSpaceOnUse" id="gradient2" r="819.2" spreadMethod="pad">
      <stop offset="0.0" stop-color="#333333"/>
      <stop offset="1.0" stop-color="#1c1c1c"/>
    </radialGradient>
    <radialGradient cx="0" cy="0" gradientTransform="matrix(0.004, 0.0, 0.0, 0.0036, -0.25, 16.35)" gradientUnits="userSpaceOnUse" id="gradient3" r="819.2" spreadMethod="pad">
      <stop offset="0.0" stop-color="#333333"/>
      <stop offset="1.0" stop-color="#1c1c1c"/>
    </radialGradient>
    <linearGradient gradientTransform="matrix(0.011, 0.0, 0.0, 0.0139, -1.8, 7.45)" gradientUnits="userSpaceOnUse" id="gradient4" spreadMethod="pad" x1="-819.2" x2="819.2">
      <stop offset="0.5529411764705883" stop-color="#333333"/>
      <stop offset="1.0" stop-color="#000000"/>
    </linearGradient>
    <linearGradient gradientTransform="matrix(0.011, 0.0, 0.0, 0.0139, -1.55, 7.2)" gradientUnits="userSpaceOnUse" id="gradient5" spreadMethod="pad" x1="-819.2" x2="819.2">
      <stop offset="0.3176470588235294" stop-color="#333333"/>
      <stop offset="1.0" stop-color="#000000"/>
    </linearGradient>
  </defs>
</svg>
