<?xml version="1.0" encoding="UTF-8" standalone="no"?>
<svg xmlns:ffdec="https://www.free-decompiler.com/flash" xmlns:xlink="http://www.w3.org/1999/xlink" ffdec:objectType="shape" height="21.85px" width="11.05px" xmlns="http://www.w3.org/2000/svg">
  <g transform="matrix(1.0, 0.0, 0.0, 1.0, -0.3, -7.15)">
    <path d="M10.35 17.9 L9.1 20.05 Q10.35 24.0 9.2 27.55 7.95 28.9 5.55 28.35 2.2 27.6 1.3 24.95 L0.8 14.35 Q0.9 10.5 2.35 7.65 L10.85 11.75 10.85 16.8 10.35 17.9 M8.85 20.45 L9.1 20.05 8.85 20.45" fill="#410e0e" fill-rule="evenodd" stroke="none"/>
    <path d="M10.35 17.9 L9.1 20.05 Q10.35 24.0 9.2 27.55 7.95 28.9 5.55 28.35 2.2 27.6 1.3 24.95 L0.8 14.35 Q0.9 10.5 2.35 7.65 L10.85 11.75 10.85 16.8 10.35 17.9 M9.1 20.05 L8.85 20.45" fill="none" stroke="#250606" stroke-linecap="round" stroke-linejoin="round" stroke-width="1.0"/>
  </g>
</svg>
