<?xml version="1.0" encoding="UTF-8" standalone="no"?>
<svg xmlns:ffdec="https://www.free-decompiler.com/flash" xmlns:xlink="http://www.w3.org/1999/xlink" ffdec:objectType="shape" height="21.6px" width="13.25px" xmlns="http://www.w3.org/2000/svg">
  <g transform="matrix(1.0, 0.0, 0.0, 1.0, 7.3, 4.5)">
    <path d="M0.9 14.9 Q-2.45 18.3 -4.55 15.15 L0.9 14.9" fill="#26353e" fill-rule="evenodd" stroke="none"/>
    <path d="M2.3 9.35 L1.2 13.9 -0.85 12.6 -0.15 9.5 2.3 9.35" fill="#65bcf6" fill-rule="evenodd" stroke="none"/>
    <path d="M-4.85 1.8 Q-5.25 0.75 -5.0 -1.35 -0.75 -3.45 1.8 -3.95 4.3 -4.45 5.45 -2.55 5.7 0.75 3.6 4.0 L2.45 4.0 Q1.35 3.95 -0.85 3.15 L-4.8 1.8 -4.85 1.8" fill="url(#gradient0)" fill-rule="evenodd" stroke="none"/>
    <path d="M-1.5 7.55 L-0.85 3.15 Q1.35 3.95 2.45 4.0 L3.6 4.0 2.3 9.35 -0.15 9.5 -0.85 12.6 1.2 13.9 0.9 14.9 -4.55 15.15 -6.85 12.0 -1.5 7.55 M-4.85 1.8 L-4.8 1.8 -3.45 2.35 -4.15 5.8 -6.75 8.05 Q-6.5 2.9 -4.85 1.8" fill="#152026" fill-rule="evenodd" stroke="none"/>
    <path d="M-3.45 2.35 L-0.85 3.15 -1.5 7.55 -6.85 12.0 -6.75 8.05 -4.15 5.8 -3.45 2.35" fill="#26353e" fill-rule="evenodd" stroke="none"/>
    <path d="M3.6 4.0 Q5.7 0.75 5.45 -2.55 4.3 -4.45 1.8 -3.95 -0.75 -3.45 -5.0 -1.35 -5.25 0.75 -4.85 1.8 L-4.8 1.8 -3.45 2.35 -0.85 3.15 Q1.35 3.95 2.45 4.0 L3.6 4.0 2.3 9.35 1.2 13.9 0.9 14.9 Q-2.45 18.3 -4.55 15.15 L-6.85 12.0 -6.75 8.05 Q-6.5 2.9 -4.85 1.8 M-3.45 2.35 L-4.15 5.8 -6.75 8.05 M-6.85 12.0 L-1.5 7.55 -0.85 3.15 M2.3 9.35 L-0.15 9.5 -0.85 12.6 1.2 13.9 M0.9 14.9 L-4.55 15.15" ffdec:has-small-stroke="true" ffdec:original-stroke-width="0.95" fill="none" stroke="#070a0a" stroke-linecap="round" stroke-linejoin="round" stroke-width="1.0"/>
  </g>
  <defs>
    <radialGradient cx="0" cy="0" gradientTransform="matrix(0.0064, -1.0E-4, 1.0E-4, 0.0049, 2.5, -0.85)" gradientUnits="userSpaceOnUse" id="gradient0" r="819.2" spreadMethod="pad">
      <stop offset="0.0" stop-color="#485b70"/>
      <stop offset="1.0" stop-color="#273741"/>
    </radialGradient>
  </defs>
</svg>
