<?xml version="1.0" encoding="UTF-8" standalone="no"?>
<svg xmlns:ffdec="https://www.free-decompiler.com/flash" xmlns:xlink="http://www.w3.org/1999/xlink" ffdec:objectType="shape" height="24.75px" width="16.0px" xmlns="http://www.w3.org/2000/svg">
  <g transform="matrix(1.0, 0.0, 0.0, 1.0, 7.85, 4.7)">
    <path d="M3.15 14.4 L-0.75 17.05 -1.3 18.95 -4.0 19.55 -6.5 18.3 -7.65 14.5 -5.2 10.4 -0.2 12.75 2.2 10.6 3.45 8.3 Q4.1 7.7 4.85 10.05 L4.45 12.3 3.15 14.4" fill="#272828" fill-rule="evenodd" stroke="none"/>
    <path d="M2.45 10.85 Q1.55 12.3 0.7 12.4 L-0.45 12.4 -1.85 11.85 -3.95 11.05 -5.15 10.7 -4.45 9.55 -3.3 8.65 Q-2.45 7.95 -2.4 7.35 L-1.55 2.2 -4.45 1.05 -3.55 -0.65 0.2 -1.55 2.2 -0.3 3.35 -0.5 4.85 -2.15 7.4 -0.35 7.15 2.2 5.15 4.9 3.05 5.75 2.8 7.5 2.25 9.1 2.45 10.85" fill="#1b1c1c" fill-rule="evenodd" stroke="none"/>
    <path d="M-5.2 0.35 L-1.1 1.85 -1.1 3.45 Q-1.25 5.25 -1.8 6.55 L-4.2 9.6 Q-5.95 9.15 -6.05 8.25 L-6.65 3.9 -5.2 0.35" fill="#272828" fill-rule="evenodd" stroke="none"/>
    <path d="M-1.35 18.7 Q-3.1 20.2 -5.25 19.2 -7.55 18.15 -7.35 15.2" fill="none" stroke="#0d0d0d" stroke-linecap="round" stroke-linejoin="round" stroke-width="0.9500000000000001"/>
    <path d="M1.15 5.05 L0.5 3.6 0.3 1.05 0.25 -0.95 1.4 -2.8 4.05 -4.2 5.7 -3.4 5.9 -3.65 7.3 -1.5 7.5 -0.75 7.45 0.5 6.6 2.35 6.4 2.7 Q6.0 3.65 5.05 4.25 3.5 5.4 1.6 5.3 L1.35 5.3 1.15 5.05" fill="#2d2e2e" fill-rule="evenodd" stroke="none"/>
    <path d="M-7.35 15.3 Q-7.55 13.8 -6.5 12.35 -5.25 10.65 -5.15 9.95" fill="none" stroke="#181818" stroke-linecap="round" stroke-linejoin="round" stroke-width="0.9500000000000001"/>
    <path d="M5.3 5.0 L4.6 11.7 Q4.5 9.7 3.75 9.6 L2.3 10.05 3.25 5.7 5.3 5.0" fill="#0e0f0f" fill-rule="evenodd" stroke="none"/>
    <path d="M5.45 4.65 L4.75 11.5" fill="none" stroke="#000000" stroke-linecap="round" stroke-linejoin="round" stroke-width="0.9500000000000001"/>
    <path d="M-1.35 18.8 L-0.7 16.95 3.8 13.9" fill="none" stroke="#0d0d0d" stroke-linecap="round" stroke-linejoin="round" stroke-width="0.9500000000000001"/>
    <path d="M4.0 14.0 Q5.25 11.4 5.0 8.85" fill="none" stroke="#080808" stroke-linecap="round" stroke-linejoin="round" stroke-width="0.9500000000000001"/>
    <path d="M5.25 10.4 Q2.0 9.5 2.3 7.75 L3.4 5.6" fill="none" stroke="#080808" stroke-linecap="round" stroke-linejoin="round" stroke-width="0.9500000000000001"/>
    <path d="M1.0 5.75 Q2.55 6.05 4.3 5.3 6.3 4.4 7.0 2.7" fill="none" stroke="#181818" stroke-linecap="round" stroke-linejoin="round" stroke-width="0.9500000000000001"/>
    <path d="M-4.6 9.9 Q-6.6 8.75 -6.85 5.45 -7.15 2.1 -5.3 0.65" fill="none" stroke="#0d0d0d" stroke-linecap="round" stroke-linejoin="round" stroke-width="0.9500000000000001"/>
    <path d="M-5.45 0.7 L-1.95 1.95" fill="none" stroke="#181818" stroke-linecap="round" stroke-linejoin="round" stroke-width="0.9500000000000001"/>
    <path d="M-4.95 10.15 Q-1.5 7.6 -1.5 2.1" fill="none" stroke="#181818" stroke-linecap="round" stroke-linejoin="round" stroke-width="0.9500000000000001"/>
    <path d="M0.3 -1.5 Q1.25 -3.0 2.7 -3.8 4.5 -4.8 5.85 -3.55" fill="none" stroke="#000000" stroke-linecap="round" stroke-linejoin="round" stroke-width="0.9500000000000001"/>
    <path d="M-4.4 0.9 Q-3.9 -0.4 -2.4 -1.0 L0.45 -1.45" fill="none" stroke="#101010" stroke-linecap="round" stroke-linejoin="round" stroke-width="0.9500000000000001"/>
    <path d="M5.9 -3.55 Q7.3 -2.95 7.65 -1.2 7.9 0.5 7.1 2.5" fill="none" stroke="#181818" stroke-linecap="round" stroke-linejoin="round" stroke-width="0.9500000000000001"/>
    <path d="M-4.85 10.6 Q-1.5 12.3 -0.7 12.4 1.55 12.6 2.7 9.3" fill="none" stroke="#191919" stroke-linecap="round" stroke-linejoin="round" stroke-width="0.9500000000000001"/>
    <path d="M-5.85 15.45 Q-5.9 17.35 -3.75 17.6" fill="none" stroke="#1a1a1a" stroke-linecap="round" stroke-linejoin="round" stroke-width="0.9500000000000001"/>
    <path d="M5.45 8.75 Q5.8 10.0 5.0 11.45 L3.1 11.0 3.5 8.85 5.45 8.75" fill="#ed8b41" fill-rule="evenodd" stroke="none"/>
    <path d="M5.45 8.75 L3.5 8.85 3.1 11.0 5.0 11.45 Q5.8 10.0 5.45 8.75 Z" fill="none" stroke="#67462d" stroke-linecap="round" stroke-linejoin="round" stroke-width="0.9500000000000001"/>
    <path d="M-4.45 12.45 Q-2.95 14.0 -0.85 13.7" fill="none" stroke="#222222" stroke-linecap="round" stroke-linejoin="round" stroke-width="0.9500000000000001"/>
    <path d="M0.1 -1.0 L-0.15 2.45 Q-0.1 4.45 1.1 5.85" fill="none" stroke="#080808" stroke-linecap="round" stroke-linejoin="round" stroke-width="0.9500000000000001"/>
    <path d="M-5.05 3.05 L-5.15 3.65" fill="none" stroke="#080808" stroke-linecap="round" stroke-linejoin="round" stroke-width="0.9500000000000001"/>
    <path d="M-4.35 5.0 L-4.45 5.65" fill="none" stroke="#1c1c1c" stroke-linecap="round" stroke-linejoin="round" stroke-width="0.9500000000000001"/>
    <path d="M3.9 -2.7 Q5.85 -2.45 6.1 -0.5 L3.9 -2.7" fill="#2d2e2e" fill-rule="evenodd" stroke="none"/>
    <path d="M3.9 -2.7 Q5.85 -2.45 6.1 -0.5" fill="none" stroke="#181818" stroke-linecap="round" stroke-linejoin="round" stroke-width="0.9500000000000001"/>
  </g>
</svg>
