<?xml version="1.0" encoding="UTF-8" standalone="no"?>
<svg xmlns:ffdec="https://www.free-decompiler.com/flash" xmlns:xlink="http://www.w3.org/1999/xlink" ffdec:objectType="shape" height="24.5px" width="17.2px" xmlns="http://www.w3.org/2000/svg">
  <g transform="matrix(1.0, 0.0, 0.0, 1.0, 6.45, 2.2)">
    <path d="M7.7 21.65 L6.0 21.8 4.3 21.5 3.8 17.35 5.25 15.65 4.5 12.95 2.95 11.2 1.25 9.5 0.8 5.95 4.75 6.85 0.8 5.95 -1.05 5.5 -1.85 4.35 -1.0 2.75 -0.15 1.2 2.75 1.45 5.35 -1.35 8.3 -1.7 8.4 5.7 7.55 7.35 4.75 6.85 5.85 8.45 7.2 8.65 8.55 18.15 8.75 19.7 7.7 21.65 M-0.25 19.35 L-1.35 19.5 -3.45 14.75 -1.85 13.75 -1.1 13.7 0.9 16.05 1.95 19.05 -0.25 19.35 M8.55 18.15 L5.65 17.15 5.25 15.65 5.65 17.15 8.55 18.15 M-0.7 18.05 L-1.95 15.4 -0.7 18.05" fill="#272727" fill-rule="evenodd" stroke="none"/>
    <path d="M8.3 -1.7 L9.8 -0.95 9.85 5.8 8.65 8.85 9.9 17.0 9.85 17.0 10.25 20.0 9.3 21.35 7.7 21.65 8.75 19.7 8.55 18.15 7.2 8.65 5.85 8.45 4.75 6.85 7.55 7.35 8.4 5.7 8.3 -1.7 M8.65 8.85 L7.2 8.65 8.65 8.85 M9.85 17.0 L8.55 18.15 9.85 17.0" fill="#5a1313" fill-rule="evenodd" stroke="none"/>
    <path d="M-2.1 12.3 L-2.7 12.4 -5.85 9.0 -5.95 3.45 -1.0 2.75 -1.85 4.35 -1.05 5.5 0.8 5.95 1.25 9.5 2.95 11.2 -2.1 12.3" fill="#1c1c1c" fill-rule="evenodd" stroke="none"/>
    <path d="M4.3 21.5 L0.0 20.8 -0.25 19.35 1.95 19.05 0.9 16.05 -1.1 13.7 -1.85 13.75 -2.1 12.3 2.95 11.2 4.5 12.95 5.25 15.65 3.8 17.35 4.3 21.5" fill="#171717" fill-rule="evenodd" stroke="none"/>
    <path d="M-1.95 15.4 L-0.7 18.05" fill="none" stroke="#b11818" stroke-linecap="round" stroke-linejoin="round" stroke-width="1.0"/>
    <path d="M8.3 -1.7 L9.8 -0.95 9.85 5.8 8.65 8.85 9.9 17.0 9.85 17.0 10.25 20.0 9.3 21.35 7.7 21.65 6.0 21.8 4.3 21.5 0.0 20.8 -0.25 19.35 -1.35 19.5 -3.45 14.75 -1.85 13.75 -2.1 12.3 -2.7 12.4 -5.85 9.0 -5.95 3.45 -1.0 2.75 -0.15 1.2 2.75 1.45 5.35 -1.35 8.3 -1.7 M4.75 6.85 L5.85 8.45 7.2 8.65 8.65 8.85 M0.8 5.95 L1.25 9.5 2.95 11.2 4.5 12.95 5.25 15.65 5.65 17.15 8.55 18.15 9.85 17.0 M4.75 6.85 L0.8 5.95 -1.05 5.5 -1.85 4.35 -1.0 2.75 M-1.85 13.75 L-1.1 13.7 0.9 16.05 1.95 19.05 -0.25 19.35 M5.25 15.65 L3.8 17.35 4.3 21.5 M-2.1 12.3 L2.95 11.2" fill="none" stroke="#020202" stroke-linecap="round" stroke-linejoin="round" stroke-width="1.0"/>
  </g>
</svg>
