<?xml version="1.0" encoding="UTF-8" standalone="no"?>
<svg xmlns:xlink="http://www.w3.org/1999/xlink" height="105.75px" width="83.1px" xmlns="http://www.w3.org/2000/svg">
  <g transform="matrix(1.0, 0.0, 0.0, 1.0, 41.4, 134.75)">
    <path d="M-12.85 -80.8 L-16.4 -82.75 -18.45 -79.75 -22.6 -80.85 -24.3 -84.7 -28.25 -82.25 -32.75 -82.3 -32.5 -89.5 -35.55 -89.65 -35.3 -95.6 -40.4 -94.6 -40.25 -94.8 -35.8 -104.3 -38.9 -105.85 -38.75 -106.0 -32.5 -114.75 -32.55 -114.75 -36.45 -114.95 -31.95 -119.7 -21.15 -122.15 -25.85 -124.55 -13.75 -125.55 -17.0 -128.7 -8.65 -128.2 -8.45 -133.75 -8.35 -133.7 -0.15 -130.25 1.65 -133.3 8.45 -130.95 16.85 -131.75 25.5 -127.8 31.05 -127.55 28.35 -125.55 32.25 -122.5 38.7 -112.35 34.3 -116.55 37.1 -107.95 40.7 -102.55 38.7 -98.55 38.5 -91.35 38.45 -91.1 32.85 -94.95 32.65 -89.4 32.6 -89.2 23.8 -88.5 23.7 -88.5 23.65 -84.7 23.6 -84.45 18.2 -86.85 19.1 -80.5 18.0 -73.45 11.35 -77.05 11.15 -71.5 8.35 -73.15 5.6 -74.8 2.8 -70.4 1.1 -72.55 0.7 -73.1 0.65 -73.1 -0.45 -70.5 -3.05 -76.5 -4.65 -73.35 -6.05 -70.65 -6.65 -71.15 -9.6 -73.9 -9.9 -76.2 -10.35 -79.4 -12.85 -80.8" fill="url(#gradient0)" fill-rule="evenodd" stroke="none"/>
    <path d="M-12.85 -80.8 L-10.35 -79.4 -9.9 -76.2 -12.85 -80.8 M-6.65 -71.15 L-6.05 -70.65 -4.65 -73.35 -3.15 -70.3 -0.15 -67.8 1.1 -72.55 2.8 -70.4 5.6 -74.8 8.35 -73.15 3.85 -62.05 5.0 -61.2 6.75 -62.75 8.4 -61.8 8.0 -60.25 7.85 -56.75 7.2 -55.2 4.9 -50.35 4.1 -36.95 8.5 -30.0 -7.9 -30.0 -4.55 -42.5 -4.1 -49.9 -6.1 -57.35 -5.95 -58.6 -4.2 -64.55 -4.2 -67.35 -6.65 -71.15 M3.55 -68.9 L2.0 -65.75 3.55 -68.9 M2.0 -32.8 L0.95 -38.45 2.0 -32.8 M0.4 -55.65 L1.45 -52.05 0.4 -55.65 M-0.85 -49.75 L-0.05 -46.3 -1.6 -42.6 -2.5 -36.85 -1.6 -42.6 -0.05 -46.3 -0.85 -49.75 M-1.6 -59.8 L-2.5 -56.2 -1.6 -59.8" fill="#7f634e" fill-rule="evenodd" stroke="none"/>
    <path d="M8.35 -73.15 L11.15 -71.5 11.35 -77.05 18.0 -73.45 19.1 -80.5 18.2 -86.85 23.6 -84.45 23.65 -84.7 23.7 -88.5 23.8 -88.5 32.6 -89.2 32.65 -89.4 32.85 -94.95 38.45 -91.1 38.5 -91.35 38.7 -98.55 40.7 -102.55 37.1 -107.95 34.3 -116.55 38.7 -112.35 32.25 -122.5 28.35 -125.55 31.05 -127.55 25.5 -127.8 16.85 -131.75 8.45 -130.95 1.65 -133.3 -0.15 -130.25 -8.35 -133.7 -8.45 -133.75 -8.65 -128.2 -17.0 -128.7 -13.75 -125.55 -25.85 -124.55 -21.15 -122.15 -31.95 -119.7 -36.45 -114.95 -32.55 -114.75 -32.5 -114.75 -38.75 -106.0 -38.9 -105.85 -35.8 -104.3 -40.25 -94.8 -40.4 -94.6 -35.3 -95.6 -35.55 -89.65 -32.5 -89.5 -32.75 -82.3 -28.25 -82.25 -24.3 -84.7 -22.6 -80.85 -18.45 -79.75 -16.4 -82.75 -12.85 -80.8 -10.35 -79.4 -9.9 -76.2 -9.6 -73.9 -6.65 -71.15 -6.05 -70.65 -4.65 -73.35 -3.05 -76.5 -0.45 -70.5 0.65 -73.1 0.7 -73.1 1.1 -72.55 2.8 -70.4 5.6 -74.8 8.35 -73.15" fill="none" stroke="#16201c" stroke-linecap="round" stroke-linejoin="round" stroke-width="2.0"/>
    <path d="M2.0 -65.75 L3.55 -68.9 M-2.5 -56.2 L-1.6 -59.8 M-2.5 -36.85 L-1.6 -42.6 -0.05 -46.3 -0.85 -49.75" fill="none" stroke="#63463b" stroke-linecap="round" stroke-linejoin="round" stroke-width="2.0"/>
    <path d="M8.35 -73.15 L3.85 -62.05 5.0 -61.2 6.75 -62.75 8.4 -61.8 8.0 -60.25 7.85 -56.75 7.2 -55.2 4.9 -50.35 4.1 -36.95 8.5 -30.0 -7.9 -30.0 -4.55 -42.5 -4.1 -49.9 -6.1 -57.35 -5.95 -58.6 -4.2 -64.55 -4.2 -67.35 -6.65 -71.15 M-12.85 -80.8 L-9.9 -76.2 M1.1 -72.55 L-0.15 -67.8 -3.15 -70.3 -4.65 -73.35" fill="none" stroke="#352926" stroke-linecap="round" stroke-linejoin="round" stroke-width="2.0"/>
    <path d="M1.45 -52.05 L0.4 -55.65 M0.95 -38.45 L2.0 -32.8" fill="none" stroke="#6e5545" stroke-linecap="round" stroke-linejoin="round" stroke-width="2.0"/>
  </g>
  <defs>
    <linearGradient gradientTransform="matrix(0.0, -0.0387, 0.0387, 0.0, 0.2, -102.0)" gradientUnits="userSpaceOnUse" id="gradient0" spreadMethod="pad" x1="-819.2" x2="819.2">
      <stop offset="0.0" stop-color="#25532f"/>
      <stop offset="0.20392156862745098" stop-color="#325d35"/>
      <stop offset="0.5058823529411764" stop-color="#3e673b"/>
      <stop offset="0.7215686274509804" stop-color="#446c3e"/>
      <stop offset="1.0" stop-color="#466e3e"/>
    </linearGradient>
  </defs>
</svg>
