<?xml version="1.0" encoding="UTF-8" standalone="no"?>
<svg xmlns:xlink="http://www.w3.org/1999/xlink" height="10.65px" width="30.85px" xmlns="http://www.w3.org/2000/svg">
  <g transform="matrix(1.0, 0.0, 0.0, 1.0, 23.2, -1.65)">
    <path d="M-3.8 3.7 Q-4.8 4.05 -5.0 5.9 -5.15 7.8 -3.95 8.15 -3.05 8.4 -2.05 6.85 -1.1 5.35 -1.55 4.6 -1.9 3.85 -2.65 3.65 L-3.8 3.7 M2.3 6.55 L1.7 9.45 Q0.8 11.55 -1.45 11.8 -3.7 12.05 -6.75 9.5 L-9.35 6.85 -15.6 6.8 -20.2 6.45 Q-20.9 6.25 -21.85 4.95 L-22.7 3.7 -8.15 3.7 -7.65 3.15 Q-6.9 2.6 -5.85 2.4 L1.6 2.15 2.85 2.35 Q4.3 2.65 5.35 3.25 3.7 3.05 2.5 3.8 1.0 4.7 2.3 6.55" fill="#3e3a39" fill-rule="evenodd" stroke="none"/>
    <path d="M2.3 6.55 L7.15 6.7 M2.3 6.55 Q1.0 4.7 2.5 3.8 3.7 3.05 5.35 3.25 4.3 2.65 2.85 2.35 L1.6 2.15 -5.85 2.4 Q-6.9 2.6 -7.65 3.15 L-8.15 3.7 -22.7 3.7 -21.85 4.95 Q-20.9 6.25 -20.2 6.45 L-15.6 6.8 -9.35 6.85 -6.75 9.5 Q-3.7 12.05 -1.45 11.8 0.8 11.55 1.7 9.45 L2.3 6.55 M-3.8 3.7 L-2.65 3.65 Q-1.9 3.85 -1.55 4.6 -1.1 5.35 -2.05 6.85 -3.05 8.4 -3.95 8.15 -5.15 7.8 -5.0 5.9 -4.8 4.05 -3.8 3.7" fill="none" stroke="#201f1d" stroke-linecap="round" stroke-linejoin="round" stroke-width="1.0"/>
  </g>
</svg>
