<?xml version="1.0" encoding="UTF-8" standalone="no"?>
<svg xmlns:xlink="http://www.w3.org/1999/xlink" height="20.35px" width="50.45px" xmlns="http://www.w3.org/2000/svg">
  <g transform="matrix(1.0, 0.0, 0.0, 1.0, 21.2, 6.0)">
    <path d="M12.65 -2.55 L13.2 -3.8 21.45 -3.8 24.4 -3.8 25.2 -2.55 12.65 -2.55 M25.4 -2.55 L28.75 -2.55 28.75 -0.35 25.4 -0.35 25.4 -2.55 M2.35 4.25 Q0.5 7.25 0.75 10.6 -1.65 9.35 -4.05 9.25 L-3.95 6.4 Q-0.9 4.85 -0.9 1.95 L-5.6 1.95 -5.6 0.05 0.25 0.05 7.75 0.05 10.55 2.95 7.65 2.95 7.65 3.35 7.1 2.85 Q6.3 1.9 5.7 1.95 L4.15 1.95 2.9 1.95 2.35 4.25 M-11.05 7.25 L-15.75 4.35 -14.85 2.65 -11.5 2.65 -12.05 3.9 -11.05 7.25 M-19.85 8.65 L-20.7 8.15 -18.55 -1.85 -17.4 -1.85 Q-18.0 5.05 -19.85 8.65 M2.9 1.95 L-0.9 1.95 2.9 1.95" fill="#666666" fill-rule="evenodd" stroke="none"/>
    <path d="M12.1 -1.25 L12.65 -2.55 25.2 -2.55 25.4 -2.55 25.4 -0.35 25.4 0.35 25.4 2.2 Q23.1 2.35 22.55 4.4 L18.1 4.4 Q18.35 5.15 17.65 5.2 L14.5 5.2 Q12.0 5.2 10.45 6.45 L8.85 6.45 Q7.95 5.2 7.8 4.25 L7.65 3.35 7.65 2.95 10.55 2.95 14.5 2.95 14.85 2.95 17.45 2.95 18.1 4.4 17.45 2.95 14.85 2.95 13.15 0.35 25.4 0.35 13.15 0.35 12.1 -1.25 M15.3 -1.25 L13.7 -1.25 15.3 -1.25 M18.3 -1.25 L16.7 -1.25 18.3 -1.25 M24.3 -1.25 L22.7 -1.25 24.3 -1.25 M-4.05 9.25 L-4.1 10.4 -6.7 10.4 -9.05 10.4 -10.15 10.4 -11.05 7.25 -12.05 3.9 -11.5 2.65 -9.8 0.05 -5.6 0.05 -5.6 1.95 -5.6 3.4 -3.95 6.4 -4.05 9.25 M-15.75 4.35 L-17.3 7.35 -17.85 9.35 -19.85 8.65 Q-18.0 5.05 -17.4 -1.85 L-10.45 -1.85 -12.35 0.05 -14.7 2.3 -14.85 2.65 -15.75 4.35 M21.3 -1.25 L19.7 -1.25 21.3 -1.25 M14.5 5.2 L14.5 2.95 14.5 5.2 M-7.7 8.0 L-8.15 7.45 -8.6 8.0 -7.7 8.0 M-9.1 6.05 L-9.7 5.8 -9.5 6.55 -9.1 6.05 M-9.2 3.9 L-9.6 3.4 -9.8 4.15 -9.2 3.9" fill="#333333" fill-rule="evenodd" stroke="none"/>
    <path d="M-10.45 -1.85 L-5.6 -1.85 -5.6 0.05 -9.8 0.05 -12.35 0.05 -10.45 -1.85" fill="#52785a" fill-rule="evenodd" stroke="none"/>
    <path d="M2.7 -3.8 L3.0 -2.45 4.5 -1.25 7.75 -1.25 12.1 -1.25 13.15 0.35 14.85 2.95 14.5 2.95 10.55 2.95 7.75 0.05 0.25 0.05 -5.6 0.05 -5.6 -1.85 -10.45 -1.85 -9.6 -2.8 Q-4.55 -2.6 -1.05 -3.8 L-0.5 -3.8 0.65 -5.5 2.25 -5.5 2.7 -3.8 -0.5 -3.8 2.7 -3.8 M-4.1 10.4 L-3.45 12.0 -5.65 12.95 -7.9 13.85 -9.05 10.4 -6.7 10.4 -4.1 10.4 M7.75 0.05 L7.75 -1.25 7.75 0.05 M-12.35 0.05 L-9.8 0.05 -11.5 2.65 -14.85 2.65 -14.7 2.3 -12.35 0.05 M-5.65 12.95 L-6.7 10.4 -5.65 12.95 M-1.05 -3.8 L0.25 0.05 -1.05 -3.8" fill="#b3987f" fill-rule="evenodd" stroke="none"/>
    <path d="M24.4 -3.8 L21.45 -3.8 22.15 -5.05 23.7 -5.05 24.4 -3.8" fill="#323232" fill-rule="evenodd" stroke="none"/>
    <path d="M12.65 -2.55 L13.2 -3.8 21.45 -3.8 M25.2 -2.55 L24.4 -3.8 M25.4 -0.35 L28.75 -0.35 28.75 -2.55 25.4 -2.55 M-11.05 7.25 L-15.75 4.35 M-19.85 8.65 L-20.7 8.15 -18.55 -1.85 -17.4 -1.85 M-14.85 2.65 L-11.5 2.65" fill="none" stroke="#353535" stroke-linecap="round" stroke-linejoin="round" stroke-width="1.0"/>
    <path d="M24.4 -3.8 L21.45 -3.8 22.15 -5.05 23.7 -5.05 24.4 -3.8" fill="none" stroke="#222222" stroke-linecap="round" stroke-linejoin="round" stroke-width="1.0"/>
    <path d="M4.15 1.95 Q3.7 3.05 4.15 3.8 M-9.2 3.9 L-9.8 4.15 -9.6 3.4 -9.2 3.9 M-9.1 6.05 L-9.5 6.55 -9.7 5.8 -9.1 6.05 M-7.7 8.0 L-8.6 8.0 -8.15 7.45 -7.7 8.0" fill="none" stroke="#151515" stroke-linecap="round" stroke-linejoin="round" stroke-width="1.0"/>
    <path d="M16.7 -1.25 L18.3 -1.25 M13.7 -1.25 L15.3 -1.25 M22.7 -1.25 L24.3 -1.25 M19.7 -1.25 L21.3 -1.25" fill="none" stroke="#00bcfa" stroke-linecap="round" stroke-linejoin="round" stroke-width="1.0"/>
    <path d="M2.7 -3.8 L3.0 -2.45 4.5 -1.25 7.75 -1.25 12.1 -1.25 M13.2 -3.8 L2.7 -3.8 2.25 -5.5 0.65 -5.5 -0.5 -3.8 2.7 -3.8 M-4.1 10.4 L-3.45 12.0 -5.65 12.95 -7.9 13.85 -9.05 10.4 M-10.45 -1.85 L-9.6 -2.8 Q-4.55 -2.6 -1.05 -3.8 L-0.5 -3.8 M7.75 -1.25 L7.75 0.05 M-6.7 10.4 L-5.65 12.95 M0.25 0.05 L-1.05 -3.8" fill="none" stroke="#71564d" stroke-linecap="round" stroke-linejoin="round" stroke-width="1.0"/>
    <path d="M7.8 4.25 L2.35 4.25 Q0.5 7.25 0.75 10.6 -1.65 9.35 -4.05 9.25 M7.65 3.35 L7.1 2.85 Q6.3 1.9 5.7 1.95 L4.15 1.95 2.9 1.95 2.35 4.25 M10.55 2.95 L7.75 0.05 0.25 0.05 -5.6 0.05 M-5.6 1.95 L-0.9 1.95 2.9 1.95 M-3.95 6.4 Q-0.9 4.85 -0.9 1.95" fill="none" stroke="#333333" stroke-linecap="round" stroke-linejoin="round" stroke-width="1.0"/>
    <path d="M12.1 -1.25 L12.65 -2.55 25.2 -2.55 25.4 -2.55 25.4 -0.35 25.4 0.35 25.4 2.2 Q23.1 2.35 22.55 4.4 L18.1 4.4 Q18.35 5.15 17.65 5.2 L14.5 5.2 Q12.0 5.2 10.45 6.45 L8.85 6.45 Q7.95 5.2 7.8 4.25 L7.65 3.35 7.65 2.95 10.55 2.95 14.5 2.95 14.5 5.2 M-4.05 9.25 L-4.1 10.4 -6.7 10.4 -9.05 10.4 -10.15 10.4 -11.05 7.25 -12.05 3.9 -11.5 2.65 -9.8 0.05 -5.6 0.05 -5.6 1.95 -5.6 3.4 -3.95 6.4 -4.05 9.25 M-15.75 4.35 L-17.3 7.35 -17.85 9.35 -19.85 8.65 Q-18.0 5.05 -17.4 -1.85 L-10.45 -1.85 -12.35 0.05 -9.8 0.05 M14.85 2.95 L17.45 2.95 18.1 4.4 M14.85 2.95 L14.5 2.95 M13.15 0.35 L14.85 2.95 M13.15 0.35 L25.4 0.35 M12.1 -1.25 L13.15 0.35 M-5.6 0.05 L-5.6 -1.85 -10.45 -1.85 M-14.85 2.65 L-14.7 2.3 -12.35 0.05 M-15.75 4.35 L-14.85 2.65" fill="none" stroke="#1e1e1e" stroke-linecap="round" stroke-linejoin="round" stroke-width="1.0"/>
  </g>
</svg>
