<?xml version="1.0" encoding="UTF-8" standalone="no"?>
<svg xmlns:ffdec="https://www.free-decompiler.com/flash" xmlns:xlink="http://www.w3.org/1999/xlink" ffdec:objectType="shape" height="31.65px" width="24.4px" xmlns="http://www.w3.org/2000/svg">
  <g transform="matrix(1.0, 0.0, 0.0, 1.0, 13.25, 30.6)">
    <path d="M-3.65 -29.45 L0.6 -30.1 5.85 -28.95 Q-0.6 -26.85 -3.65 -29.45" fill="#2c333c" fill-rule="evenodd" stroke="none"/>
    <path d="M-3.65 -29.45 Q-0.6 -26.85 5.85 -28.95 9.0 -27.9 9.45 -26.2 L7.45 -26.2 5.2 -24.0 6.6 -22.55 10.45 -23.05 10.65 -21.9 7.15 -20.85 5.4 -18.45 5.4 -14.45 4.9 -11.85 1.35 -10.85 0.25 -4.6 -1.8 -4.6 -1.8 -9.15 -3.4 -12.85 -5.45 -12.65 -6.1 -11.25 -5.7 -18.6 -4.05 -19.15 -2.2 -22.95 -4.5 -24.2 -6.25 -23.6 -7.25 -29.05 -4.9 -29.05 -3.65 -29.45 M1.55 -14.6 L1.55 -19.15 1.55 -14.6 M-1.15 -16.9 L-1.15 -18.4 -1.15 -16.9" fill="#363e49" fill-rule="evenodd" stroke="none"/>
    <path d="M9.45 -26.2 L10.45 -23.05 6.6 -22.55 5.2 -24.0 7.45 -26.2 9.45 -26.2 M10.65 -21.9 L10.65 -21.65 9.75 -14.55 7.75 -10.35 7.15 -10.3 Q4.4 -10.15 2.4 -9.05 L1.35 -4.1 Q4.1 -3.55 7.05 -5.0 8.55 -2.75 7.05 -0.35 -0.85 1.55 -6.75 -0.6 -8.35 -2.6 -6.55 -4.95 -7.7 -6.65 -6.55 -8.35 L-6.1 -9.3 -6.1 -11.25 -5.45 -12.65 -3.4 -12.85 -1.8 -9.15 -1.8 -4.6 0.25 -4.6 1.35 -10.85 4.9 -11.85 5.4 -14.45 5.4 -18.45 7.15 -20.85 10.65 -21.9 M-6.25 -23.6 L-4.5 -24.2 -2.2 -22.95 -4.05 -19.15 -5.7 -18.6 -6.85 -20.6 -6.25 -23.6 M-1.8 -9.15 L-6.1 -9.3 -1.8 -9.15 M-6.55 -4.95 L-1.8 -4.6 -6.55 -4.95" fill="#3e4e5d" fill-rule="evenodd" stroke="none"/>
    <path d="M7.15 -10.3 L7.05 -5.0 Q4.1 -3.55 1.35 -4.1 L2.4 -9.05 Q4.4 -10.15 7.15 -10.3" fill="#24242c" fill-rule="evenodd" stroke="none"/>
    <path d="M-11.65 -28.3 L-8.6 -30.1 -7.25 -29.05 -6.25 -23.6 -6.85 -20.6 -7.7 -20.6 -8.2 -23.95 -11.65 -28.3" fill="#404d5e" fill-rule="evenodd" stroke="none"/>
    <path d="M-6.55 -8.35 L-6.95 -8.4 -8.25 -10.3 -10.2 -10.3 -12.0 -12.25 -10.9 -14.8 -11.1 -23.3 -12.55 -26.0 Q-12.35 -27.15 -11.65 -28.3 L-8.2 -23.95 -7.7 -20.6 -7.65 -20.15 -7.7 -20.6 -6.85 -20.6 -5.7 -18.6 -6.1 -11.25 -6.1 -9.3 -6.55 -8.35 M-7.7 -12.2 L-7.4 -14.4 -8.2 -15.85 -7.65 -20.15 -8.2 -15.85 -7.4 -14.4 -7.7 -12.2 M-9.2 -20.85 L-9.2 -21.1 -9.2 -20.85 M-9.45 -22.6 L-9.45 -22.85 -9.45 -22.6 M-9.55 -12.0 L-9.55 -12.25 -9.55 -12.0" fill="#353e4d" fill-rule="evenodd" stroke="none"/>
    <path d="M-12.0 -12.25 Q-13.15 -19.3 -12.55 -26.0 L-11.1 -23.3 -10.9 -14.8 -12.0 -12.25" fill="#222328" fill-rule="evenodd" stroke="none"/>
    <path d="M5.85 -28.95 L0.6 -30.1 -3.65 -29.45" fill="none" stroke="#191a1e" stroke-linecap="round" stroke-linejoin="round" stroke-width="1.0"/>
    <path d="M9.45 -26.2 L10.45 -23.05 6.6 -22.55 5.2 -24.0 7.45 -26.2 9.45 -26.2 M10.65 -21.9 L10.65 -21.65 9.75 -14.55 7.75 -10.35 7.15 -10.3 M7.05 -5.0 Q8.55 -2.75 7.05 -0.35 -0.85 1.55 -6.75 -0.6 -8.35 -2.6 -6.55 -4.95 -7.7 -6.65 -6.55 -8.35 L-6.1 -9.3 -6.1 -11.25 -5.45 -12.65 -3.4 -12.85 -1.8 -9.15 -1.8 -4.6 0.25 -4.6 1.35 -10.85 4.9 -11.85 5.4 -14.45 5.4 -18.45 7.15 -20.85 10.65 -21.9 M-6.25 -23.6 L-4.5 -24.2 -2.2 -22.95 -4.05 -19.15 -5.7 -18.6 -6.85 -20.6 -6.25 -23.6" fill="none" stroke="#24242c" stroke-linecap="round" stroke-linejoin="round" stroke-width="1.0"/>
    <path d="M5.85 -28.95 Q9.0 -27.9 9.45 -26.2 M10.45 -23.05 L10.65 -21.9 M-6.55 -8.35 L-6.95 -8.4 -8.25 -10.3 -10.2 -10.3 -12.0 -12.25 Q-13.15 -19.3 -12.55 -26.0 -12.35 -27.15 -11.65 -28.3 L-8.6 -30.1 -7.25 -29.05 -4.9 -29.05 -3.65 -29.45 M-7.7 -20.6 L-7.65 -20.15 M-6.85 -20.6 L-7.7 -20.6 M-12.0 -12.25 L-10.9 -14.8 -11.1 -23.3 -12.55 -26.0" fill="none" stroke="#222328" stroke-linecap="round" stroke-linejoin="round" stroke-width="1.0"/>
    <path d="M1.55 -19.15 L1.55 -14.6 M-1.15 -18.4 L-1.15 -16.9" fill="none" stroke="#2e353f" stroke-linecap="round" stroke-linejoin="round" stroke-width="1.0"/>
    <path d="M7.15 -10.3 Q4.4 -10.15 2.4 -9.05 L1.35 -4.1 Q4.1 -3.55 7.05 -5.0" fill="none" stroke="#1e1e25" stroke-linecap="round" stroke-linejoin="round" stroke-width="1.0"/>
    <path d="M7.15 -10.3 L7.05 -5.0" fill="none" stroke="#17181c" stroke-linecap="round" stroke-linejoin="round" stroke-width="1.0"/>
    <path d="M-9.45 -22.85 L-9.45 -22.6 M-9.2 -21.1 L-9.2 -20.85 M-9.55 -12.25 L-9.55 -12.0" fill="none" stroke="#1a242e" stroke-linecap="round" stroke-linejoin="round" stroke-width="1.0"/>
    <path d="M-7.65 -20.15 L-8.2 -15.85 -7.4 -14.4 -7.7 -12.2 M-7.7 -20.6 L-8.2 -23.95 -11.65 -28.3" fill="none" stroke="#26282e" stroke-linecap="round" stroke-linejoin="round" stroke-width="1.0"/>
    <path d="M-6.1 -9.3 L-1.8 -9.15 M-1.8 -4.6 L-6.55 -4.95" fill="none" stroke="#2b3641" stroke-linecap="round" stroke-linejoin="round" stroke-width="1.0"/>
    <path d="M-5.7 -18.6 L-6.1 -11.25 M-6.25 -23.6 L-7.25 -29.05" fill="none" stroke="#28303c" stroke-linecap="round" stroke-linejoin="round" stroke-width="1.0"/>
    <path d="M-3.65 -29.45 Q-0.6 -26.85 5.85 -28.95" fill="none" stroke="#262d35" stroke-linecap="round" stroke-linejoin="round" stroke-width="1.0"/>
  </g>
</svg>
