<?xml version="1.0" encoding="UTF-8" standalone="no"?>
<svg xmlns:ffdec="https://www.free-decompiler.com/flash" xmlns:xlink="http://www.w3.org/1999/xlink" ffdec:objectType="shape" height="21.65px" width="13.2px" xmlns="http://www.w3.org/2000/svg">
  <g transform="matrix(1.0, 0.0, 0.0, 1.0, 7.4, 4.45)">
    <path d="M0.75 15.0 Q-2.6 18.35 -4.65 15.25 L0.75 15.0" fill="#1d1616" fill-rule="evenodd" stroke="none"/>
    <path d="M2.25 9.45 L1.1 14.0 -0.95 12.7 -0.25 9.6 2.25 9.45" fill="#ff0000" fill-rule="evenodd" stroke="none"/>
    <path d="M-4.95 1.9 Q-5.35 0.75 -5.15 -1.3 -0.9 -3.45 1.65 -3.9 4.25 -4.35 5.3 -2.45 5.55 0.75 3.5 4.1 L2.3 4.1 -0.95 3.3 -4.9 1.85 -4.95 1.9" fill="url(#gradient0)" fill-rule="evenodd" stroke="none"/>
    <path d="M-3.55 2.35 L-4.3 5.9 -6.9 8.2 Q-6.65 3.05 -4.95 1.9 L-4.9 1.85 -3.55 2.35 M-1.65 7.65 L-0.95 3.3 2.3 4.1 3.5 4.1 2.25 9.45 -0.25 9.6 -0.95 12.7 1.1 14.0 0.75 15.0 -4.65 15.25 -6.95 12.05 -1.65 7.65" fill="#1d1616" fill-rule="evenodd" stroke="none"/>
    <path d="M-3.55 2.35 L-0.95 3.3 -1.65 7.65 -6.95 12.05 -6.9 8.2 -4.3 5.9 -3.55 2.35" fill="#2a1f1f" fill-rule="evenodd" stroke="none"/>
    <path d="M3.5 4.1 Q5.55 0.75 5.3 -2.45 4.25 -4.35 1.65 -3.9 -0.9 -3.45 -5.15 -1.3 -5.35 0.75 -4.95 1.9 L-4.9 1.85 -3.55 2.35 -0.95 3.3 2.3 4.1 3.5 4.1 2.25 9.45 1.1 14.0 0.75 15.0 Q-2.6 18.35 -4.65 15.25 L-6.95 12.05 -6.9 8.2 Q-6.65 3.05 -4.95 1.9 M-3.55 2.35 L-4.3 5.9 -6.9 8.2 M2.25 9.45 L-0.25 9.6 -0.95 12.7 1.1 14.0 M0.75 15.0 L-4.65 15.25 M-6.95 12.05 L-1.65 7.65 -0.95 3.3" ffdec:has-small-stroke="true" ffdec:original-stroke-width="0.95" fill="none" stroke="#0a0707" stroke-linecap="round" stroke-linejoin="round" stroke-width="1.0"/>
  </g>
  <defs>
    <radialGradient cx="0" cy="0" gradientTransform="matrix(0.0064, -1.0E-4, 1.0E-4, 0.0049, 2.35, -0.85)" gradientUnits="userSpaceOnUse" id="gradient0" r="819.2" spreadMethod="pad">
      <stop offset="0.0" stop-color="#644040"/>
      <stop offset="1.0" stop-color="#452c2c"/>
    </radialGradient>
  </defs>
</svg>
