<?xml version="1.0" encoding="UTF-8" standalone="no"?>
<svg xmlns:xlink="http://www.w3.org/1999/xlink" height="111.0px" width="17.0px" xmlns="http://www.w3.org/2000/svg">
  <g transform="matrix(1.0, 0.0, 0.0, 1.0, 2.15, 55.5)">
    <path d="M4.35 -48.85 Q6.2 -48.1 8.0 -47.4 13.05 -45.35 14.2 -39.1 L14.35 -38.4 9.6 -37.1 6.45 -32.0 2.4 -35.15 Q1.65 -38.15 -1.65 -38.4 L-1.65 -44.5 Q4.65 -46.25 4.35 -48.85" fill="url(#gradient0)" fill-rule="evenodd" stroke="none"/>
    <path d="M2.4 -35.15 L6.45 -32.0 6.45 0.0 4.05 0.0 Q4.05 -1.1 2.7 -1.85 1.3 -2.6 -0.65 -2.6 L-1.65 -2.55 -1.65 -32.9 2.4 -35.15" fill="url(#gradient1)" fill-rule="evenodd" stroke="none"/>
    <path d="M-1.65 2.55 L-1.65 -2.55 -0.65 -2.6 Q1.3 -2.6 2.7 -1.85 4.05 -1.1 4.05 0.0 4.05 1.1 2.7 1.85 1.3 2.6 -0.65 2.6 L-1.65 2.55" fill="url(#gradient2)" fill-rule="evenodd" stroke="none"/>
    <path d="M6.45 0.0 L6.45 32.0 2.4 35.15 -1.65 32.9 -1.65 2.55 -0.65 2.6 Q1.3 2.6 2.7 1.85 4.05 1.1 4.05 0.0 L6.45 0.0" fill="url(#gradient3)" fill-rule="evenodd" stroke="none"/>
    <path d="M6.45 32.0 L9.6 37.1 14.35 38.4 14.2 39.1 Q13.05 45.35 8.0 47.4 6.2 48.15 4.35 48.85 4.65 46.25 -1.65 44.5 L-1.65 38.4 Q1.65 38.15 2.4 35.15 L6.45 32.0" fill="url(#gradient4)" fill-rule="evenodd" stroke="none"/>
    <path d="M-1.65 -38.4 Q1.65 -38.15 2.4 -35.15 L-1.65 -32.9 -1.65 -38.4" fill="url(#gradient5)" fill-rule="evenodd" stroke="none"/>
    <path d="M4.35 -48.85 Q4.65 -46.25 -1.65 -44.5 L-1.65 -55.0 Q2.65 -53.75 4.35 -48.85" fill="url(#gradient6)" fill-rule="evenodd" stroke="none"/>
    <path d="M-1.65 38.4 L-1.65 32.9 2.4 35.15 Q1.65 38.15 -1.65 38.4" fill="url(#gradient7)" fill-rule="evenodd" stroke="none"/>
    <path d="M4.35 48.85 Q2.65 53.75 -1.65 55.0 L-1.65 44.5 Q4.65 46.25 4.35 48.85" fill="url(#gradient8)" fill-rule="evenodd" stroke="none"/>
    <path d="M6.45 -32.0 L9.6 -37.1 14.35 -38.4 14.2 -39.1 Q13.05 -45.35 8.0 -47.4 6.2 -48.1 4.35 -48.85 4.65 -46.25 -1.65 -44.5 L-1.65 -38.4 Q1.65 -38.15 2.4 -35.15 M6.45 32.0 L9.6 37.1 14.35 38.4 14.2 39.1 Q13.05 45.35 8.0 47.4 6.2 48.15 4.35 48.85 2.65 53.75 -1.65 55.0 L-1.65 44.5 -1.65 38.4 -1.65 32.9 M-1.65 2.55 L-1.65 -2.55 M-1.65 -32.9 L-1.65 -38.4 M2.4 35.15 Q1.65 38.15 -1.65 38.4 M-1.65 -44.5 L-1.65 -55.0 Q2.65 -53.75 4.35 -48.85 M-1.65 44.5 Q4.65 46.25 4.35 48.85" fill="none" stroke="#515151" stroke-linecap="round" stroke-linejoin="round" stroke-width="1.0"/>
    <path d="M2.4 -35.15 L6.45 -32.0 6.45 0.0 6.45 32.0 2.4 35.15 -1.65 32.9 M-1.65 2.55 L-0.65 2.6 Q1.3 2.6 2.7 1.85 4.05 1.1 4.05 0.0 4.05 -1.1 2.7 -1.85 1.3 -2.6 -0.65 -2.6 L-1.65 -2.55 M6.45 0.0 L4.05 0.0 M-1.65 -32.9 L2.4 -35.15" fill="none" stroke="#262626" stroke-linecap="round" stroke-linejoin="round" stroke-width="1.0"/>
    <path d="M-1.65 32.9 L-1.65 2.55 M-1.65 -2.55 L-1.65 -32.9" fill="none" stroke="#151515" stroke-linecap="round" stroke-linejoin="round" stroke-width="1.0"/>
  </g>
  <defs>
    <linearGradient gradientTransform="matrix(0.0, -0.0103, -0.0098, 0.0, 6.35, -40.4)" gradientUnits="userSpaceOnUse" id="gradient0" spreadMethod="pad" x1="-819.2" x2="819.2">
      <stop offset="0.0" stop-color="#a9a9a9"/>
      <stop offset="1.0" stop-color="#6d6d6d"/>
    </linearGradient>
    <linearGradient gradientTransform="matrix(-0.0039, 0.0, 0.0, 0.0215, 2.4, -17.6)" gradientUnits="userSpaceOnUse" id="gradient1" spreadMethod="pad" x1="-819.2" x2="819.2">
      <stop offset="0.0" stop-color="#4d4d4d"/>
      <stop offset="1.0" stop-color="#262626"/>
    </linearGradient>
    <linearGradient gradientTransform="matrix(-0.0032, 0.0, 0.0, -0.0057, 1.2, -1.85)" gradientUnits="userSpaceOnUse" id="gradient2" spreadMethod="pad" x1="-819.2" x2="819.2">
      <stop offset="0.0" stop-color="#ffffff"/>
      <stop offset="1.0" stop-color="#9d9d9d"/>
    </linearGradient>
    <linearGradient gradientTransform="matrix(-0.0039, 0.0, 0.0, -0.0215, 2.4, 17.6)" gradientUnits="userSpaceOnUse" id="gradient3" spreadMethod="pad" x1="-819.2" x2="819.2">
      <stop offset="0.0" stop-color="#4d4d4d"/>
      <stop offset="1.0" stop-color="#262626"/>
    </linearGradient>
    <linearGradient gradientTransform="matrix(0.0, 0.0103, -0.0098, 0.0, 6.35, 40.4)" gradientUnits="userSpaceOnUse" id="gradient4" spreadMethod="pad" x1="-819.2" x2="819.2">
      <stop offset="0.0" stop-color="#a9a9a9"/>
      <stop offset="1.0" stop-color="#6d6d6d"/>
    </linearGradient>
    <linearGradient gradientTransform="matrix(0.0, -0.0034, -0.0025, 0.0, 0.4, -35.65)" gradientUnits="userSpaceOnUse" id="gradient5" spreadMethod="pad" x1="-819.2" x2="819.2">
      <stop offset="0.0" stop-color="#ffffff"/>
      <stop offset="1.0" stop-color="#9d9d9d"/>
    </linearGradient>
    <linearGradient gradientTransform="matrix(0.0, -0.0064, -0.0037, 0.0, 1.35, -49.75)" gradientUnits="userSpaceOnUse" id="gradient6" spreadMethod="pad" x1="-819.2" x2="819.2">
      <stop offset="0.0" stop-color="#ffffff"/>
      <stop offset="1.0" stop-color="#9d9d9d"/>
    </linearGradient>
    <linearGradient gradientTransform="matrix(0.0, 0.0034, -0.0025, 0.0, 0.4, 35.65)" gradientUnits="userSpaceOnUse" id="gradient7" spreadMethod="pad" x1="-819.2" x2="819.2">
      <stop offset="0.0" stop-color="#ffffff"/>
      <stop offset="1.0" stop-color="#9d9d9d"/>
    </linearGradient>
    <linearGradient gradientTransform="matrix(0.0, 0.0064, -0.0037, 0.0, 1.35, 49.75)" gradientUnits="userSpaceOnUse" id="gradient8" spreadMethod="pad" x1="-819.2" x2="819.2">
      <stop offset="0.0" stop-color="#ffffff"/>
      <stop offset="1.0" stop-color="#9d9d9d"/>
    </linearGradient>
  </defs>
</svg>
