<?xml version="1.0" encoding="UTF-8" standalone="no"?>
<svg xmlns:ffdec="https://www.free-decompiler.com/flash" xmlns:xlink="http://www.w3.org/1999/xlink" ffdec:objectType="shape" height="26.65px" width="15.0px" xmlns="http://www.w3.org/2000/svg">
  <g transform="matrix(1.0, 0.0, 0.0, 1.0, 8.3, 6.0)">
    <path d="M-2.85 -1.7 L-1.8 -2.6 5.2 -5.5 Q6.15 -3.7 6.2 -1.95 5.75 -0.5 5.0 0.55 L3.1 3.55 -2.85 -1.7" fill="url(#gradient0)" fill-rule="evenodd" stroke="none"/>
    <path d="M3.1 3.55 L4.35 8.15 2.0 14.2 0.45 11.55 2.0 8.1 1.1 6.1 0.75 5.25 0.4 4.5 0.15 3.95 -5.05 1.25 -5.1 1.2 -5.9 0.8 -6.85 0.3 -6.75 -2.0 -2.85 -1.7 3.1 3.55 M-5.9 0.75 L-6.85 0.3 -5.9 0.75 -5.1 1.2 -5.9 0.75 -5.9 0.8 -5.9 0.75" fill="url(#gradient1)" fill-rule="evenodd" stroke="none"/>
    <path d="M-6.9 3.05 L-5.9 0.8 -5.1 1.2 -5.05 1.25 0.15 3.95 0.4 4.5 0.75 5.25 1.1 6.1 2.0 8.1 0.45 11.55 -2.05 5.55 -6.9 3.05" fill="url(#gradient2)" fill-rule="evenodd" stroke="none"/>
    <path d="M2.0 14.2 L3.0 15.5 3.3 18.05 -4.1 17.0 -7.25 10.85 -7.75 9.95 -7.75 9.9 -7.2 3.35 -7.2 3.1 -6.9 3.05 -7.2 3.35 -6.9 3.05 -2.05 5.55 0.45 11.55 2.0 14.2 M-7.25 10.85 L-7.75 9.9 -7.25 10.85" fill="url(#gradient3)" fill-rule="evenodd" stroke="none"/>
    <path d="M-2.85 -1.7 L-1.8 -2.6 5.2 -5.5 Q6.15 -3.7 6.2 -1.95 5.75 -0.5 5.0 0.55 L3.1 3.55 -2.85 -1.7 M-5.05 1.25 L0.15 3.95 0.4 4.5 0.75 5.25 1.1 6.1" fill="none" stroke="#101010" stroke-linecap="round" stroke-linejoin="round" stroke-width="1.0"/>
    <path d="M-6.75 -2.0 L-2.85 -1.7" fill="none" stroke="#0b0b0b" stroke-linecap="round" stroke-linejoin="round" stroke-width="1.0"/>
    <path d="M3.1 3.55 L4.35 8.15 2.0 14.2 3.0 15.5 3.3 18.05 -4.1 17.0 -7.25 10.85 -7.75 9.9 -7.8 3.9 -7.2 3.35 -6.9 3.05 -2.05 5.55 0.45 11.55 2.0 14.2 M-6.9 3.05 L-5.9 0.8 -5.9 0.75 -5.1 1.2 M-6.85 0.3 L-6.75 -2.0 M1.1 6.1 L2.0 8.1 0.45 11.55 M-6.85 0.3 L-5.9 0.75" fill="none" stroke="#000000" stroke-linecap="round" stroke-linejoin="round" stroke-width="1.0"/>
    <path d="M-0.55 15.45 Q0.2 16.7 -0.15 17.9 -0.5 19.15 -1.7 19.7 -2.7 20.4 -3.9 20.0 -5.1 19.65 -5.85 18.5 L-5.95 17.85 Q-6.2 17.0 -5.95 16.1 -5.65 14.9 -4.6 14.2 -4.15 13.95 -3.6 13.85 -2.95 13.65 -2.2 13.85 -1.0 14.25 -0.55 15.45 M-1.35 18.05 L-1.05 17.55 Q-0.9 16.75 -1.3 16.0 -1.7 15.2 -2.5 14.9 L-3.4 14.75 -4.2 15.1 -4.85 15.75 -5.1 16.35 -5.1 17.6 -4.9 17.95 Q-4.5 18.85 -3.65 19.1 -2.9 19.4 -2.05 18.8 L-1.35 18.05" fill="url(#gradient4)" fill-rule="evenodd" stroke="none"/>
    <path d="M-1.35 18.05 L-2.05 18.8 Q-2.9 19.4 -3.65 19.1 -4.5 18.85 -4.9 17.95 L-5.1 17.6 -5.1 16.35 -4.85 15.75 -4.2 15.1 -3.4 14.75 -2.5 14.9 Q-1.7 15.2 -1.3 16.0 -0.9 16.75 -1.05 17.55 L-1.35 18.05" fill="#222222" fill-rule="evenodd" stroke="none"/>
    <path d="M-0.55 15.45 Q0.2 16.7 -0.15 17.9 -0.5 19.15 -1.7 19.7 -2.7 20.4 -3.9 20.0 -5.1 19.65 -5.85 18.5 L-5.95 17.85 Q-6.2 17.0 -5.95 16.1 -5.65 14.9 -4.6 14.2 -4.15 13.95 -3.6 13.85 -2.95 13.65 -2.2 13.85 -1.0 14.25 -0.55 15.45 Z" fill="none" stroke="#000000" stroke-linecap="round" stroke-linejoin="round" stroke-width="1.0"/>
  </g>
  <defs>
    <radialGradient cx="0" cy="0" gradientTransform="matrix(0.0074, 3.0E-4, -1.0E-4, 0.0061, 3.05, -0.9)" gradientUnits="userSpaceOnUse" id="gradient0" r="819.2" spreadMethod="pad">
      <stop offset="0.0" stop-color="#414141"/>
      <stop offset="1.0" stop-color="#0b0b0b"/>
    </radialGradient>
    <radialGradient cx="0" cy="0" gradientTransform="matrix(0.0361, -0.0054, 0.0055, 0.0393, 8.9, 25.85)" gradientUnits="userSpaceOnUse" id="gradient1" r="819.2" spreadMethod="pad">
      <stop offset="0.0" stop-color="#333333"/>
      <stop offset="0.0" stop-color="#333333"/>
      <stop offset="0.5098039215686274" stop-color="#191919"/>
      <stop offset="1.0" stop-color="#333333"/>
    </radialGradient>
    <radialGradient cx="0" cy="0" gradientTransform="matrix(0.0181, 0.0, 0.0, 0.0181, 3.3, 12.4)" gradientUnits="userSpaceOnUse" id="gradient2" r="819.2" spreadMethod="pad">
      <stop offset="0.0" stop-color="#756d5f"/>
      <stop offset="1.0" stop-color="#1f1f1f"/>
      <stop offset="1.0" stop-color="#333333"/>
      <stop offset="1.0" stop-color="#333333"/>
      <stop offset="1.0" stop-color="#202121"/>
      <stop offset="1.0" stop-color="#202121"/>
    </radialGradient>
    <radialGradient cx="0" cy="0" gradientTransform="matrix(0.0304, -0.0045, 0.0046, 0.0331, -1.65, 29.85)" gradientUnits="userSpaceOnUse" id="gradient3" r="819.2" spreadMethod="pad">
      <stop offset="0.0" stop-color="#333333"/>
      <stop offset="0.0" stop-color="#333333"/>
      <stop offset="0.5098039215686274" stop-color="#191919"/>
      <stop offset="1.0" stop-color="#333333"/>
    </radialGradient>
    <radialGradient cx="0" cy="0" gradientTransform="matrix(0.0074, 0.0, 0.0, 0.0074, -0.6, 17.5)" gradientUnits="userSpaceOnUse" id="gradient4" r="819.2" spreadMethod="pad">
      <stop offset="0.0" stop-color="#756d5f"/>
      <stop offset="1.0" stop-color="#1f1f1f"/>
      <stop offset="1.0" stop-color="#333333"/>
      <stop offset="1.0" stop-color="#333333"/>
      <stop offset="1.0" stop-color="#202121"/>
      <stop offset="1.0" stop-color="#202121"/>
    </radialGradient>
  </defs>
</svg>
