<?xml version="1.0" encoding="UTF-8" standalone="no"?>
<svg xmlns:ffdec="https://www.free-decompiler.com/flash" xmlns:xlink="http://www.w3.org/1999/xlink" ffdec:objectType="shape" height="22.0px" width="14.75px" xmlns="http://www.w3.org/2000/svg">
  <g transform="matrix(1.0, 0.0, 0.0, 1.0, 0.5, 0.5)">
    <path d="M1.05 3.75 L1.0 1.1 Q3.6 2.6 7.2 2.1 9.6 -0.9 11.35 0.4 L11.45 1.0 10.5 1.0 7.5 4.55 7.85 6.05 6.65 11.4 5.7 15.85 5.5 16.6 4.9 19.3 0.55 19.7 Q0.4 17.95 1.65 17.4 L3.7 17.9 3.75 14.05 4.7 14.05 5.9 8.6 6.15 7.35 6.35 6.3 5.75 4.75 4.8 4.55 1.05 3.75" fill="#191919" fill-rule="evenodd" stroke="none"/>
    <path d="M6.15 7.35 L5.9 8.6 6.15 7.35 M5.5 16.6 L5.7 15.85 5.6 16.2 5.5 16.6 M13.45 3.35 L13.3 7.2 12.9 6.75 12.9 3.45 13.45 3.35 M12.9 10.3 L12.85 10.45 12.7 10.9 12.85 10.45 12.9 10.3" fill="#350303" fill-rule="evenodd" stroke="none"/>
    <path d="M0.0 5.25 L3.35 6.3 2.85 8.4 0.0 7.3 0.0 5.25" fill="#ff0000" fill-rule="evenodd" stroke="none"/>
    <path d="M4.8 4.55 L5.75 4.75 6.35 6.3 6.15 7.35 6.35 6.3 6.15 7.35 Q6.1 5.55 4.8 4.55" fill="#272727" fill-rule="evenodd" stroke="none"/>
    <path d="M1.05 3.75 L4.8 4.55 Q6.1 5.55 6.15 7.35 L5.9 8.6 4.7 14.05 3.75 14.05 3.7 17.9 1.65 17.4 1.6 17.4 1.05 11.7 0.0 9.35 0.0 7.3 2.85 8.4 3.35 6.3 0.0 5.25 0.0 3.5 1.05 3.75 M4.9 19.3 L5.5 16.6 5.6 16.2 5.7 15.85 6.65 11.4 7.85 6.05 7.5 4.55 10.5 1.0 11.45 1.0 13.4 1.0 13.45 3.35 12.9 3.45 12.9 6.75 13.3 7.2 12.9 10.3 12.85 10.45 12.7 10.9 12.65 10.95 12.05 10.7 11.6 12.35 11.15 14.0 6.65 11.4 11.15 14.0 9.8 18.75 9.5 19.8 9.4 20.1 7.55 21.0 4.9 19.3 M12.05 10.7 L11.0 10.25 10.65 10.1 8.55 9.25 7.85 6.05 8.55 9.25 10.65 10.1 11.0 10.25 12.05 10.7 M3.75 14.05 L1.05 11.7 3.75 14.05 M5.6 16.2 L9.8 18.75 5.6 16.2" fill="#4a0000" fill-rule="evenodd" stroke="none"/>
    <path d="M11.45 1.0 L11.35 0.4 Q9.6 -0.9 7.2 2.1 3.6 2.6 1.0 1.1 L1.05 3.75 M1.65 17.4 Q0.4 17.95 0.55 19.7 L4.9 19.3" fill="none" stroke="#0e0e0e" stroke-linecap="round" stroke-linejoin="round" stroke-width="1.0"/>
    <path d="M1.05 3.75 L4.8 4.55 5.75 4.75 6.35 6.3 6.15 7.35 5.9 8.6 4.7 14.05 3.75 14.05 3.7 17.9 1.65 17.4 1.6 17.4 1.05 11.7 3.75 14.05 M4.9 19.3 L5.5 16.6 5.6 16.2 5.7 15.85 6.65 11.4 7.85 6.05 7.5 4.55 10.5 1.0 11.45 1.0 13.4 1.0 13.75 3.25 13.45 3.35 12.9 3.45 12.9 6.75 13.3 7.2 13.6 7.55 12.9 10.3 12.85 10.45 12.7 10.9 12.65 10.95 12.05 10.7 11.6 12.35 11.15 14.0 9.8 18.75 9.5 19.8 9.4 20.1 7.55 21.0 4.9 19.3 M7.85 6.05 L8.55 9.25 10.65 10.1 11.0 10.25 12.05 10.7 M0.0 5.25 L0.0 3.5 1.05 3.75 M0.0 5.25 L3.35 6.3 2.85 8.4 0.0 7.3 0.0 9.35 1.05 11.7 M0.0 7.3 L0.0 5.25 M9.8 18.75 L5.6 16.2 M6.65 11.4 L11.15 14.0" fill="none" stroke="#190000" stroke-linecap="round" stroke-linejoin="round" stroke-width="1.0"/>
  </g>
</svg>
