<?xml version="1.0" encoding="UTF-8" standalone="no"?>
<svg xmlns:xlink="http://www.w3.org/1999/xlink" height="10.4px" width="14.4px" xmlns="http://www.w3.org/2000/svg">
  <g transform="matrix(1.0, 0.0, 0.0, 1.0, -54.85, 5.2)">
    <path d="M56.7 5.2 Q56.0 4.95 55.6 3.65 54.85 2.2 54.85 0.05 54.85 -2.1 55.6 -3.65 56.0 -4.95 56.7 -5.1 L56.7 5.2" fill="url(#gradient0)" fill-rule="evenodd" stroke="none"/>
    <path d="M56.7 -5.1 L56.85 -5.1 58.4 -5.2 Q62.9 -5.2 66.0 -3.65 69.25 -2.1 69.25 0.05 69.25 2.2 66.0 3.65 62.9 5.2 58.4 5.2 L56.85 5.2 56.7 5.2 56.7 -5.1" fill="url(#gradient1)" fill-rule="evenodd" stroke="none"/>
  </g>
  <defs>
    <radialGradient cx="0" cy="0" gradientTransform="matrix(0.0, 0.0057, -0.0026, 0.0, 57.0, 0.05)" gradientUnits="userSpaceOnUse" id="gradient0" r="819.2" spreadMethod="pad">
      <stop offset="0.17647058823529413" stop-color="#ffffff"/>
      <stop offset="0.5529411764705883" stop-color="#ffffff" stop-opacity="0.77254903"/>
      <stop offset="1.0" stop-color="#ffcccc" stop-opacity="0.0"/>
    </radialGradient>
    <radialGradient cx="0" cy="0" gradientTransform="matrix(0.0, 0.0057, -0.0133, 0.0, 58.4, 0.05)" gradientUnits="userSpaceOnUse" id="gradient1" r="819.2" spreadMethod="pad">
      <stop offset="0.17647058823529413" stop-color="#ffffff"/>
      <stop offset="0.5529411764705883" stop-color="#ffffff" stop-opacity="0.77254903"/>
      <stop offset="1.0" stop-color="#ffcccc" stop-opacity="0.0"/>
    </radialGradient>
  </defs>
</svg>
