<?xml version="1.0" encoding="UTF-8" standalone="no"?>
<svg xmlns:ffdec="https://www.free-decompiler.com/flash" xmlns:xlink="http://www.w3.org/1999/xlink" ffdec:objectType="shape" height="23.2px" width="14.35px" xmlns="http://www.w3.org/2000/svg">
  <g transform="matrix(1.0, 0.0, 0.0, 1.0, 0.5, 0.5)">
    <path d="M9.6 1.0 Q10.9 0.7 11.35 1.35 11.95 1.95 11.75 3.25 L11.35 7.35 11.1 8.6 11.1 8.65 11.05 8.8 9.0 8.15 7.2 9.2 7.2 8.05 6.3 7.2 6.35 7.0 6.1 6.35 Q5.4 5.35 5.25 4.35 5.4 5.35 6.1 6.35 L6.35 7.0 6.3 7.2 4.6 5.65 4.95 4.35 5.25 4.35 8.15 4.35 9.6 1.0 M11.5 14.45 L11.5 14.5 11.1 15.9 Q10.55 16.8 10.5 17.25 10.35 17.6 10.6 18.5 10.9 19.4 10.35 19.75 L8.7 21.0 Q7.75 21.8 7.0 21.85 L5.25 21.6 7.25 19.35 7.25 16.9 7.25 16.8 7.25 16.45 9.4 16.45 11.5 14.45 M0.75 13.55 L0.0 11.35 0.4 10.75 0.9 10.25 0.8 9.35 0.7 8.9 2.75 10.25 3.45 11.3 2.4 14.4 0.75 13.55 M7.25 16.9 L7.5 16.6 7.25 16.8 7.5 16.6 7.25 16.9" fill="#808080" fill-rule="evenodd" stroke="none"/>
    <path d="M6.3 7.2 L7.2 8.05 5.05 8.05 3.45 8.05 1.0 6.15 Q1.5 4.55 2.5 2.75 2.9 2.65 3.2 2.15 L3.75 1.35 5.0 1.1 5.85 1.05 5.25 3.25 4.95 4.35 4.6 5.65 6.3 7.2 6.0 7.5 5.05 8.05 6.0 7.5 6.3 7.2 M10.9 10.8 L10.85 11.1 10.95 13.1 10.95 13.3 10.95 13.5 10.9 13.45 10.9 13.7 9.75 13.85 8.3 12.45 10.9 10.8 M5.25 21.6 L3.35 20.85 Q2.75 20.7 2.25 20.25 1.95 19.9 1.75 19.2 L2.8 16.35 4.7 18.0 7.25 19.35 5.25 21.6" fill="#4d4d4d" fill-rule="evenodd" stroke="none"/>
    <path d="M9.6 1.0 L8.15 4.35 5.25 4.35 5.25 3.25 5.25 4.35 4.95 4.35 5.25 3.25 5.85 1.05 7.9 1.0 9.6 1.0 M7.2 8.05 L7.2 9.2 7.2 10.4 8.3 12.45 9.75 13.85 10.9 13.7 10.9 13.45 10.95 13.5 11.0 13.6 11.5 14.45 9.4 16.45 7.25 16.45 7.25 16.8 7.25 16.9 7.25 19.35 4.7 18.0 2.8 16.35 3.1 15.5 3.85 15.5 4.15 15.5 4.15 12.3 3.45 11.3 2.75 10.25 0.7 8.9 0.65 8.6 0.6 7.95 0.65 7.35 1.0 6.15 3.45 8.05 5.05 8.05 7.2 8.05 M7.5 12.5 Q5.7 12.2 5.1 11.5 L4.75 10.75 Q4.55 10.45 3.7 10.1 2.95 9.75 2.75 9.35 2.9 8.95 3.4 8.7 L4.35 8.35 5.05 8.05 4.35 8.35 3.4 8.7 Q2.9 8.95 2.75 9.35 2.95 9.75 3.7 10.1 4.55 10.45 4.75 10.75 L5.1 11.5 Q5.7 12.2 7.5 12.5 M7.25 16.8 L6.35 17.0 Q5.1 16.7 4.35 16.1 L3.85 15.5 4.35 16.1 Q5.1 16.7 6.35 17.0 L7.25 16.8 M6.1 17.85 L7.25 16.9 6.1 17.85" fill="#3f3f3f" fill-rule="evenodd" stroke="none"/>
    <path d="M7.2 9.2 L9.0 8.15 11.05 8.8 11.05 8.85 10.9 10.8 8.3 12.45 7.2 10.4 7.2 9.2 M1.75 19.2 Q1.5 18.55 1.4 17.5 1.25 17.35 1.25 17.0 1.35 15.65 0.75 13.55 L2.4 14.4 3.45 11.3 4.15 12.3 4.15 15.5 3.85 15.5 3.1 15.5 2.8 16.35 1.75 19.2 M3.85 15.5 L3.1 14.6 3.85 15.5" fill="#6d6d6d" fill-rule="evenodd" stroke="none"/>
    <path d="M11.1 8.65 L11.1 8.6 11.35 7.35 11.75 3.25 Q11.95 1.95 11.35 1.35 10.9 0.7 9.6 1.0 L7.9 1.0 5.85 1.05 5.0 1.1 3.75 1.35 3.2 2.15 Q2.9 2.65 2.5 2.75 1.5 4.55 1.0 6.15 L0.65 7.35 0.6 7.95 0.65 8.6 0.7 8.9 0.8 9.35 0.9 10.25 0.4 10.75 0.0 11.35 0.75 13.55 Q1.35 15.65 1.25 17.0 1.25 17.35 1.4 17.5 1.5 18.55 1.75 19.2 1.95 19.9 2.25 20.25 2.75 20.7 3.35 20.85 L5.25 21.6 7.0 21.85 Q7.75 21.8 8.7 21.0 L10.35 19.75 Q10.9 19.4 10.6 18.5 10.35 17.6 10.5 17.25 10.55 16.8 11.1 15.9 L11.5 14.5 11.5 14.45 11.0 13.6 10.95 13.5 10.95 13.3 10.95 13.1 10.85 11.1 M11.1 8.65 L11.05 8.85 10.9 10.8 M10.9 13.7 L10.9 13.45 10.95 13.5" fill="none" stroke="#252525" stroke-linecap="round" stroke-linejoin="round" stroke-width="1.0"/>
    <path d="M5.25 4.35 Q5.4 5.35 6.1 6.35 L6.35 7.0 6.3 7.2 6.0 7.5 5.05 8.05 4.35 8.35 3.4 8.7 Q2.9 8.95 2.75 9.35 2.95 9.75 3.7 10.1 4.55 10.45 4.75 10.75 L5.1 11.5 Q5.7 12.2 7.5 12.5 M5.25 3.25 L5.25 4.35 M3.85 15.5 L4.35 16.1 Q5.1 16.7 6.35 17.0 L7.25 16.8 7.5 16.6 7.25 16.9 6.1 17.85 M3.1 14.6 L3.85 15.5" ffdec:has-small-stroke="true" ffdec:original-stroke-width="0.8" fill="none" stroke="#252525" stroke-linecap="round" stroke-linejoin="round" stroke-width="1.0"/>
    <path d="M5.6 15.8 L5.5 15.8 5.6 15.85 5.9 16.15 5.75 15.95 5.6 15.8 6.2 16.1 6.45 16.2 7.35 16.75 7.15 16.0 Q8.5 15.55 9.85 17.25 L9.9 17.25 10.5 18.2 10.65 19.45 Q9.45 19.45 7.7 18.7 L7.35 20.55 5.3 17.6 4.2 16.35 Q3.5 15.65 3.5 14.9 4.65 14.9 5.6 15.8 M11.4 7.45 L11.45 7.6 11.4 7.8 Q11.4 8.0 11.1 7.8 L9.95 7.6 10.1 7.9 9.65 7.6 10.5 9.1 10.6 10.1 9.65 9.1 Q9.0 8.45 7.1 7.6 L7.25 7.9 7.7 9.65 8.05 9.95 8.95 10.75 9.4 11.75 9.5 12.75 9.0 12.4 10.65 14.35 11.1 15.05 10.65 14.9 8.05 13.45 Q7.85 14.05 8.5 15.15 L8.45 15.15 6.7 14.05 5.45 13.1 5.2 12.55 4.75 12.15 4.6 12.05 4.35 11.75 4.25 11.65 4.1 11.45 3.4 10.0 Q3.75 10.0 3.9 10.25 L4.8 10.75 4.2 9.7 4.1 9.65 3.4 8.45 2.8 6.75 4.75 8.35 5.1 8.7 Q4.45 7.8 4.8 6.75 6.25 6.5 6.9 7.3 L8.25 7.45 8.2 7.3 8.2 7.25 8.25 7.4 8.3 7.45 8.3 7.4 8.6 6.5 8.3 5.95 8.3 5.8 8.25 5.8 5.8 3.5 5.15 2.2 Q5.8 2.45 6.4 3.1 L6.55 3.25 6.05 2.45 Q5.75 1.85 6.6 3.1 L7.5 4.4 8.0 4.8 8.75 5.15 8.75 4.8 9.3 5.3 9.65 5.8 10.1 6.25 11.4 7.45 M3.1 14.6 L2.1 14.6 2.6 16.0 2.6 16.35 1.6 15.35 1.6 15.6 0.35 13.4 0.0 12.75 0.5 13.1 0.5 12.85 Q0.75 12.85 0.75 13.0 L0.8 12.95 0.8 12.65 1.6 13.5 1.75 13.6 1.6 13.25 1.8 13.2 2.0 13.25 2.1 13.5 2.7 14.0 3.1 14.6" fill="#0e0e0e" fill-opacity="0.32941177" fill-rule="evenodd" stroke="none"/>
    <path d="M2.9 12.05 L2.3 10.35 4.25 11.95 5.2 12.95 6.8 15.1 8.0 17.35 8.05 17.4 7.55 17.05 Q7.35 17.65 8.0 18.75 L7.95 18.75 6.2 17.65 4.95 16.7 4.7 16.15 4.25 15.75 4.1 15.65 3.85 15.35 3.75 15.25 2.15 13.7 Q0.55 12.3 2.9 13.6 3.25 13.6 3.4 13.85 L4.3 14.35 3.7 13.3 3.6 13.25 2.9 12.05 M3.0 5.05 L3.2 5.25 Q2.55 4.35 2.9 3.3 4.8 2.95 5.35 4.45 L5.8 6.2 6.3 7.0 6.95 7.9 7.5 8.55 7.6 9.3 7.1 8.95 8.75 10.9 9.2 11.6 8.75 11.45 6.65 10.35 6.6 10.3 4.8 8.15 Q3.65 6.75 3.0 5.05" fill="#101010" fill-opacity="0.32941177" fill-rule="evenodd" stroke="none"/>
    <path d="M9.6 1.0 Q10.4 0.8 10.9 1.0 11.2 1.1 11.35 1.35 11.95 1.95 11.75 3.25 L11.55 5.3 2.5 4.6 1.6 4.05 2.5 4.6 5.45 6.45 4.25 8.05 1.05 6.0 0.4 5.6 1.2 3.8 1.6 4.05 Q2.8 2.25 2.55 0.95 L7.45 1.0 7.9 1.0 8.75 1.0 9.6 1.0 M1.75 19.2 L10.7 18.75 10.7 18.95 10.7 19.2 10.7 20.95 7.65 21.75 Q4.05 22.9 1.5 21.1 L1.75 19.2" fill="#3a3a3a" fill-rule="evenodd" stroke="none"/>
    <path d="M11.55 5.3 L11.75 3.25 Q11.95 1.95 11.35 1.35 11.2 1.1 10.9 1.0 10.4 0.8 9.6 1.0 M11.55 5.3 L11.35 7.35 11.1 8.6 11.1 8.65 11.05 8.85 10.9 10.8 M1.05 6.0 L1.0 6.15 0.65 7.35 0.6 7.95 0.65 8.6 0.7 8.9 0.8 9.35 0.9 10.25 0.4 10.75 0.0 11.35 0.65 13.2 0.75 13.55 Q1.35 15.65 1.25 17.0 1.25 17.35 1.4 17.5 1.5 18.55 1.75 19.2 M10.7 18.75 L10.6 18.5 Q10.35 17.6 10.5 17.25 10.55 16.8 11.1 15.9 L11.5 14.5 11.5 14.45 11.05 13.65 11.0 13.6 10.95 13.55 10.9 13.45 10.95 13.5 10.95 13.3 10.95 13.2 10.95 13.1 10.85 11.1 M10.95 13.55 L10.95 13.5" fill="none" stroke="#252525" stroke-linecap="round" stroke-linejoin="round" stroke-width="1.0"/>
    <path d="M9.6 1.0 L8.75 1.0 7.9 1.0 7.45 1.0 2.55 0.95 Q2.8 2.25 1.6 4.05 L2.5 4.6 11.55 5.3 M1.75 19.2 L10.7 18.75 10.7 18.95 10.7 19.2 10.7 20.95 7.65 21.75 Q4.05 22.9 1.5 21.1 L1.75 19.2 M1.05 6.0 L0.4 5.6 1.2 3.8 1.6 4.05 M2.5 4.6 L5.45 6.45 4.25 8.05 1.05 6.0" fill="none" stroke="#1c1c1c" stroke-linecap="round" stroke-linejoin="round" stroke-width="1.0"/>
    <path d="M7.95 0.0 L9.75 4.6 12.4 6.55 12.1 6.95 8.5 6.55 7.15 6.4 8.0 18.75 11.05 21.5 11.0 22.0 6.35 22.0 4.3 18.95 Q6.15 13.6 4.25 8.05 L5.8 6.25 4.95 4.35 Q4.2 1.8 5.85 0.0 L7.95 0.0" fill="#1e1e1e" fill-rule="evenodd" stroke="none"/>
    <path d="M7.95 0.0 L12.5 0.0 Q14.2 3.6 12.4 6.55 L9.75 4.6 7.95 0.0 M12.1 6.95 Q11.9 14.05 11.05 21.5 L8.0 18.75 7.15 6.4 8.5 6.55 12.1 6.95" fill="#2a2a2a" fill-rule="evenodd" stroke="none"/>
    <path d="M7.45 8.05 L11.75 9.0 11.35 10.3 7.55 9.6 7.45 8.05 M7.5 15.3 L11.55 16.2 11.4 17.55 7.6 16.85 7.5 15.3 M7.4 11.7 L11.7 12.65 11.3 13.95 7.5 13.25 7.4 11.7" fill="#380000" fill-rule="evenodd" stroke="none"/>
    <path d="M7.45 8.05 L11.75 9.0 11.35 10.3 7.55 9.6 7.45 8.05 M7.5 15.3 L11.55 16.2 11.4 17.55 7.6 16.85 7.5 15.3 M7.4 11.7 L11.7 12.65 11.3 13.95 7.5 13.25 7.4 11.7 Z" fill="none" stroke="#1c0000" stroke-linecap="round" stroke-linejoin="round" stroke-width="1.0"/>
    <path d="M12.1 6.95 L12.4 6.55 Q14.2 3.6 12.5 0.0 L5.85 0.0 Q4.2 1.8 4.95 4.35 L5.8 6.25 8.5 6.55 12.1 6.95 Q11.9 14.05 11.05 21.5 L11.0 22.0 6.35 22.0 4.3 18.95 Q6.15 13.6 4.25 8.05 L5.8 6.25" fill="none" stroke="#090909" stroke-linecap="round" stroke-linejoin="round" stroke-width="1.0"/>
  </g>
</svg>
