<?xml version="1.0" encoding="UTF-8" standalone="no"?>
<svg xmlns:ffdec="https://www.free-decompiler.com/flash" xmlns:xlink="http://www.w3.org/1999/xlink" ffdec:objectType="shape" height="28.25px" width="18.4px" xmlns="http://www.w3.org/2000/svg">
  <g transform="matrix(1.0, 0.0, 0.0, 1.0, 8.4, 11.1)">
    <path d="M3.45 3.6 L1.3 3.6 1.25 6.0 3.4 6.0 3.45 3.6 M-0.05 -1.65 L0.05 -1.6 1.35 -1.25 Q1.8 -1.2 2.45 -1.65 3.15 -2.2 4.1 -2.35 4.7 -2.45 4.95 -2.95 L3.1 14.95 Q1.25 13.65 -1.1 13.85 -3.35 14.05 -5.05 15.6 L-3.95 12.35 -0.3 12.45 -0.2 7.6 -3.85 7.5 -3.75 2.1 -0.1 2.2 -0.05 -1.65 -0.7 -2.05 -4.9 -2.25 Q-3.85 -3.6 -2.35 -3.0 L-0.7 -2.05 -0.05 -2.05 -0.05 -1.65 M2.9 11.4 L0.75 11.35 0.7 13.75 2.9 13.8 2.9 11.4 M1.0 7.45 L0.95 9.85 3.15 9.9 3.2 7.5 1.0 7.45" fill="#333333" fill-rule="evenodd" stroke="none"/>
    <path d="M3.45 3.6 L1.3 3.6 1.25 6.0 3.4 6.0 3.45 3.6 M2.9 11.4 L0.75 11.35 0.7 13.75 2.9 13.8 2.9 11.4 M1.0 7.45 L0.95 9.85 3.15 9.9 3.2 7.5 1.0 7.45" fill="none" stroke="#212121" stroke-linecap="butt" stroke-linejoin="miter-clip" stroke-miterlimit="11.33984375" stroke-width="1.05"/>
    <path d="M-0.05 -1.65 L0.05 -1.6 1.35 -1.25 Q1.8 -1.2 2.45 -1.65 3.15 -2.2 4.1 -2.35 4.7 -2.45 4.95 -2.95 L3.1 14.95 Q1.25 13.65 -1.1 13.85 -3.35 14.05 -5.05 15.6 L-3.95 12.35 -0.3 12.45 -0.2 7.6 -3.85 7.5 -3.75 2.1 -0.1 2.2 -0.05 -1.65 -0.7 -2.05 -4.9 -2.25 Q-3.85 -3.6 -2.35 -3.0 L-0.7 -2.05 -0.05 -2.05 -0.05 -1.65" fill="none" stroke="#212121" stroke-linecap="round" stroke-linejoin="miter-clip" stroke-miterlimit="11.33984375" stroke-width="1.05"/>
    <path d="M2.4 12.75 Q0.85 15.6 -2.0 12.7 -3.65 11.0 -3.85 9.8 L-3.5 6.5 Q-2.95 3.1 -1.15 2.0 0.4 1.0 2.0 2.3 3.6 3.6 3.85 6.25 4.2 9.35 2.4 12.75" fill="#313131" fill-rule="evenodd" stroke="none"/>
    <path d="M2.4 12.75 Q0.85 15.6 -2.0 12.7 -3.65 11.0 -3.85 9.8 L-3.5 6.5 Q-2.95 3.1 -1.15 2.0 0.4 1.0 2.0 2.3 3.6 3.6 3.85 6.25 4.2 9.35 2.4 12.75 Z" fill="none" stroke="#242424" stroke-linecap="round" stroke-linejoin="round" stroke-width="1.05"/>
    <path d="M5.65 4.75 Q5.0 6.35 4.2 6.55 L2.9 6.35 Q1.65 5.2 0.8 1.95 L0.2 -0.1 Q-0.05 -1.35 0.65 -1.4 2.85 -1.55 3.9 -2.75 4.65 -3.55 5.75 -5.65 6.4 -6.85 6.8 -6.5 7.25 -6.1 7.3 -5.15 L7.3 -3.75 Q7.3 -1.9 6.7 0.6 L5.65 4.75" fill="#494d4f" fill-rule="evenodd" stroke="none"/>
    <path d="M5.65 4.75 Q5.0 6.35 4.2 6.55 L2.9 6.35 Q1.65 5.2 0.8 1.95 L0.2 -0.1 Q-0.05 -1.35 0.65 -1.4 2.85 -1.55 3.9 -2.75 4.65 -3.55 5.75 -5.65 6.4 -6.85 6.8 -6.5 7.25 -6.1 7.3 -5.15 L7.3 -3.75 Q7.3 -1.9 6.7 0.6 L5.65 4.75 Z" fill="none" stroke="#262626" stroke-linecap="butt" stroke-linejoin="miter-clip" stroke-miterlimit="11.33984375" stroke-width="1.05"/>
    <path d="M1.75 16.6 L0.55 16.55 Q-0.2 16.45 -1.25 15.8 L-4.15 14.85 Q-6.1 13.9 -7.1 12.45 -7.6 10.1 -6.9 6.6 -5.65 0.5 -5.5 -1.05 -0.45 0.55 0.45 2.2 0.6 3.75 -1.2 4.3 -3.15 4.6 -3.4 4.85 L-3.65 6.6 Q-3.65 8.15 -3.95 8.6 L-0.35 10.6 1.45 9.9 3.85 10.25 4.65 12.5 Q5.05 14.3 4.4 15.35 3.95 16.1 3.5 15.8 3.0 15.4 2.85 15.5 L1.75 16.6" fill="#3e3e3e" fill-rule="evenodd" stroke="none"/>
    <path d="M1.75 16.6 L0.55 16.55 Q-0.2 16.45 -1.25 15.8 L-4.15 14.85 Q-6.1 13.9 -7.1 12.45 -7.6 10.1 -6.9 6.6 -5.65 0.5 -5.5 -1.05 -0.45 0.55 0.45 2.2 0.6 3.75 -1.2 4.3 -3.15 4.6 -3.4 4.85 L-3.65 6.6 Q-3.65 8.15 -3.95 8.6 L-0.35 10.6 1.45 9.9 3.85 10.25 4.65 12.5 Q5.05 14.3 4.4 15.35 3.95 16.1 3.5 15.8 3.0 15.4 2.85 15.5 L1.75 16.6 Z" fill="none" stroke="#1f1f1f" stroke-linecap="round" stroke-linejoin="round" stroke-width="1.05"/>
    <path d="M-3.7 1.8 L-2.55 2.5" fill="none" stroke="#777777" stroke-linecap="round" stroke-linejoin="round" stroke-width="1.05"/>
    <path d="M-1.7 13.55 L-0.15 10.7 M-4.65 11.1 L-3.7 8.0" fill="none" stroke="#232323" stroke-linecap="round" stroke-linejoin="round" stroke-opacity="0.28235295" stroke-width="1.05"/>
    <path d="M0.65 -2.15 L0.95 -2.25 2.0 -2.0 3.95 0.15 3.55 3.35 2.5 4.35 2.05 5.05 Q1.15 3.9 0.9 1.7 L0.65 -2.15" fill="#2d2d2d" fill-opacity="0.5372549" fill-rule="evenodd" stroke="none"/>
    <path d="M-4.85 1.7 Q-7.1 0.55 -6.65 -0.95 -6.25 -2.45 -3.8 -2.6 L-1.95 -2.85 0.3 -1.75 0.85 0.85 0.35 2.5 -1.75 3.3 -4.85 1.7 M-5.9 16.5 Q-8.05 16.9 -7.9 14.0 -7.75 11.05 -4.95 11.25 L-1.9 13.75 -1.4 15.9 -5.9 16.5" fill="#4f4f4f" fill-rule="evenodd" stroke="none"/>
    <path d="M-4.85 1.7 Q-7.1 0.55 -6.65 -0.95 -6.25 -2.45 -3.8 -2.6 L-1.95 -2.85 0.3 -1.75 0.85 0.85 0.35 2.5 -1.75 3.3 -4.85 1.7 M-5.9 16.5 Q-8.05 16.9 -7.9 14.0 -7.75 11.05 -4.95 11.25 L-1.9 13.75 -1.4 15.9 -5.9 16.5 Z" fill="none" stroke="#212121" stroke-linecap="round" stroke-linejoin="round" stroke-width="1.05"/>
    <path d="M2.05 6.45 L4.1 7.0 3.9 9.3 1.65 9.05 2.05 6.45 M4.8 12.15 L4.75 14.55 2.6 14.5 2.6 12.1 4.8 12.15" fill="#56e8ff" fill-rule="evenodd" stroke="none"/>
    <path d="M2.05 6.45 L4.1 7.0 3.9 9.3 1.65 9.05 2.05 6.45 M4.8 12.15 L4.75 14.55 2.6 14.5 2.6 12.1 4.8 12.15 Z" fill="none" stroke="#183555" stroke-linecap="round" stroke-linejoin="round" stroke-width="1.05"/>
  </g>
</svg>
