<?xml version="1.0" encoding="UTF-8" standalone="no"?>
<svg xmlns:xlink="http://www.w3.org/1999/xlink" height="50.4px" width="41.0px" xmlns="http://www.w3.org/2000/svg">
  <g transform="matrix(1.0, 0.0, 0.0, 1.0, 20.5, 48.95)">
    <path d="M19.5 -3.15 L19.5 0.45 -19.5 0.45 -19.5 -3.15 19.5 -3.15" fill="url(#gradient0)" fill-rule="evenodd" stroke="none"/>
    <path d="M19.5 -3.15 L19.5 0.45 -19.5 0.45 -19.5 -3.15 19.5 -3.15 Z" fill="none" stroke="#505050" stroke-linecap="round" stroke-linejoin="round" stroke-width="2.0"/>
    <path d="M3.45 -27.55 L3.45 -28.2 3.45 -27.55 M5.55 -25.75 L-5.55 -25.75 -5.55 -30.15 5.55 -30.15 5.55 -25.75 M1.15 -27.55 L1.15 -28.2 1.15 -27.55 M-3.35 -27.55 L-3.35 -28.2 -3.35 -27.55 M-1.1 -27.55 L-1.1 -28.2 -1.1 -27.55" fill="#530908" fill-rule="evenodd" stroke="none"/>
    <path d="M6.0 -46.55 L6.0 -45.65 Q5.8 -40.35 0.5 -40.15 L-0.4 -40.15 -0.45 -40.15 Q-5.75 -40.35 -5.95 -45.65 L-5.95 -46.55 -5.95 -47.95 6.0 -47.95 6.0 -46.55" fill="#e1bf53" fill-rule="evenodd" stroke="none"/>
    <path d="M-0.4 -40.15 L0.5 -40.15 Q5.8 -40.35 6.0 -45.65 L6.0 -46.55 14.1 -46.55 Q18.75 -40.6 19.5 -35.05 L19.5 -24.25 8.0 -24.25 8.0 -33.15 -8.05 -33.15 -8.05 -24.25 -19.5 -24.25 -19.5 -35.05 Q-18.75 -40.6 -14.1 -46.55 L-5.95 -46.55 -5.95 -45.65 Q-5.75 -40.35 -0.45 -40.15 L-0.4 -40.15" fill="url(#gradient1)" fill-rule="evenodd" stroke="none"/>
    <path d="M5.55 -25.75 L5.55 -30.15 -5.55 -30.15 -5.55 -25.75 5.55 -25.75 M8.0 -24.25 L8.0 -14.75 -8.05 -14.75 -8.05 -24.25 -8.05 -33.15 8.0 -33.15 8.0 -24.25 M1.05 -16.65 L3.6 -20.25 6.1 -16.65 3.6 -20.25 1.05 -16.65 M6.1 -23.9 L3.6 -20.25 1.25 -23.6 3.6 -20.25 6.1 -23.9 M-6.25 -21.0 L-0.5 -21.0 -6.25 -21.0 M-6.05 -19.35 L-3.85 -19.35 -6.05 -19.35 M-2.25 -18.45 L-2.25 -19.4 -2.25 -18.45 M-6.25 -23.75 L-0.5 -23.75 -6.25 -23.75 M-6.25 -22.35 L-0.5 -22.35 -6.25 -22.35 M-0.85 -18.9 L-0.85 -19.35 -0.85 -18.9" fill="#929292" fill-rule="evenodd" stroke="none"/>
    <path d="M3.45 -28.2 L3.45 -27.55 M1.15 -28.2 L1.15 -27.55 M-1.1 -28.2 L-1.1 -27.55 M-3.35 -28.2 L-3.35 -27.55" fill="none" stroke="#330000" stroke-linecap="round" stroke-linejoin="round" stroke-width="2.0"/>
    <path d="M-0.4 -40.15 L0.5 -40.15 Q5.8 -40.35 6.0 -45.65 L6.0 -46.55 6.0 -47.95 -5.95 -47.95 -5.95 -46.55 -5.95 -45.65 Q-5.75 -40.35 -0.45 -40.15" fill="none" stroke="#b59a43" stroke-linecap="round" stroke-linejoin="round" stroke-width="2.0"/>
    <path d="M5.55 -25.75 L-5.55 -25.75 -5.55 -30.15 5.55 -30.15 5.55 -25.75" fill="none" stroke="#6d4545" stroke-linecap="round" stroke-linejoin="round" stroke-width="1.0"/>
    <path d="M-0.45 -40.15 L-0.4 -40.15 M6.0 -46.55 L14.1 -46.55 Q18.75 -40.6 19.5 -35.05 L19.5 -24.25 8.0 -24.25 M-8.05 -24.25 L-19.5 -24.25 -19.5 -35.05 Q-18.75 -40.6 -14.1 -46.55 L-5.95 -46.55" fill="none" stroke="#505050" stroke-linecap="round" stroke-linejoin="round" stroke-width="2.0"/>
    <path d="M1.25 -23.6 L3.6 -20.25 6.1 -23.9 M6.1 -16.65 L3.6 -20.25 1.05 -16.65 M-0.85 -19.35 L-0.85 -18.9 M-0.5 -22.35 L-6.25 -22.35 M-0.5 -23.75 L-6.25 -23.75 M-2.25 -19.4 L-2.25 -18.45 M-3.85 -19.35 L-6.05 -19.35 M-0.5 -21.0 L-6.25 -21.0" fill="none" stroke="#5b5b5b" stroke-linecap="round" stroke-linejoin="round" stroke-width="1.0"/>
    <path d="M8.0 -24.25 L8.0 -14.75 -8.05 -14.75 -8.05 -24.25 -8.05 -33.15 8.0 -33.15 8.0 -24.25 Z" fill="none" stroke="#323232" stroke-linecap="round" stroke-linejoin="round" stroke-width="2.0"/>
  </g>
  <defs>
    <linearGradient gradientTransform="matrix(0.0238, 0.0, 0.0, 0.0287, 0.0, -23.05)" gradientUnits="userSpaceOnUse" id="gradient0" spreadMethod="pad" x1="-819.2" x2="819.2">
      <stop offset="0.0" stop-color="#646464"/>
      <stop offset="0.12941176470588237" stop-color="#7e7e7e"/>
      <stop offset="0.25882352941176473" stop-color="#898989"/>
      <stop offset="0.3254901960784314" stop-color="#8f8f8f"/>
      <stop offset="0.5254901960784314" stop-color="#969696"/>
      <stop offset="0.7215686274509804" stop-color="#8f8f8f"/>
      <stop offset="0.792156862745098" stop-color="#878787"/>
      <stop offset="0.8901960784313725" stop-color="#787878"/>
      <stop offset="1.0" stop-color="#606060"/>
    </linearGradient>
    <linearGradient gradientTransform="matrix(0.0238, 0.0, 0.0, 0.0287, 0.0, -23.05)" gradientUnits="userSpaceOnUse" id="gradient1" spreadMethod="pad" x1="-819.2" x2="819.2">
      <stop offset="0.0" stop-color="#646464"/>
      <stop offset="0.12941176470588237" stop-color="#7e7e7e"/>
      <stop offset="0.25882352941176473" stop-color="#898989"/>
      <stop offset="0.3254901960784314" stop-color="#8f8f8f"/>
      <stop offset="0.5254901960784314" stop-color="#969696"/>
      <stop offset="0.7215686274509804" stop-color="#8f8f8f"/>
      <stop offset="0.792156862745098" stop-color="#878787"/>
      <stop offset="0.8901960784313725" stop-color="#787878"/>
      <stop offset="1.0" stop-color="#606060"/>
    </linearGradient>
  </defs>
</svg>
