<?xml version="1.0" encoding="UTF-8" standalone="no"?>
<svg xmlns:xlink="http://www.w3.org/1999/xlink" height="4.3px" width="4.3px" xmlns="http://www.w3.org/2000/svg">
  <g transform="matrix(1.0, 0.0, 0.0, 1.0, -29.4, -1.55)">
    <path d="M33.2 3.7 Q33.2 4.4 32.7 4.85 32.25 5.35 31.55 5.35 30.85 5.35 30.35 4.85 29.9 4.4 29.9 3.7 29.9 3.0 30.35 2.55 30.85 2.05 31.55 2.05 32.25 2.05 32.7 2.55 33.2 3.05 33.2 3.7" fill="#7f8185" fill-rule="evenodd" stroke="none"/>
    <path d="M33.2 3.7 Q33.2 4.4 32.7 4.85 32.25 5.35 31.55 5.35 30.85 5.35 30.35 4.85 29.9 4.4 29.9 3.7 29.9 3.0 30.35 2.55 30.85 2.05 31.55 2.05 32.25 2.05 32.7 2.55 33.2 3.05 33.2 3.7 Z" fill="none" stroke="#3d3d3d" stroke-linecap="round" stroke-linejoin="round" stroke-width="1.0"/>
  </g>
</svg>
