<?xml version="1.0" encoding="UTF-8" standalone="no"?>
<svg xmlns:ffdec="https://www.free-decompiler.com/flash" xmlns:xlink="http://www.w3.org/1999/xlink" ffdec:objectType="shape" height="27.3px" width="21.45px" xmlns="http://www.w3.org/2000/svg">
  <g transform="matrix(1.0, 0.0, 0.0, 1.0, 3.1, 0.5)">
    <path d="M3.5 24.2 Q1.5 10.9 2.55 6.0 L10.95 6.0 Q10.6 14.15 9.15 23.4 6.6 22.65 3.5 24.2" fill="#1e1e1e" fill-rule="evenodd" stroke="none"/>
    <path d="M3.5 24.2 Q6.6 22.65 9.15 23.4 10.6 14.15 10.95 6.0 L2.55 6.0 Q1.5 10.9 3.5 24.2 Z" fill="none" stroke="#070707" stroke-linecap="round" stroke-linejoin="round" stroke-width="1.0"/>
    <path d="M16.25 5.05 Q15.7 2.95 14.25 1.95 15.7 2.95 16.25 5.05 M10.2 2.8 L14.6 0.0 Q17.4 2.6 17.85 6.55 L14.7 6.6 Q13.7 4.7 10.65 5.6 L10.2 2.8" fill="url(#gradient0)" fill-rule="evenodd" stroke="none"/>
    <path d="M14.7 6.6 Q11.4 13.25 11.3 20.15 L9.85 24.9 9.85 26.3 5.45 24.7 Q8.1 23.3 8.7 18.55 L8.6 14.25 Q9.95 13.15 8.8 11.7 8.95 10.35 9.25 9.25 10.45 7.65 10.65 5.6 13.7 4.7 14.7 6.6" fill="url(#gradient1)" fill-rule="evenodd" stroke="none"/>
    <path d="M2.3 23.6 L1.75 21.7 2.3 23.6 M5.4 22.1 L2.9 25.4 Q-0.8 24.75 -2.6 21.7 -0.35 22.35 0.9 20.8 L1.45 18.9 4.4 17.3 Q3.25 20.35 5.4 22.1" fill="url(#gradient2)" fill-rule="evenodd" stroke="none"/>
    <path d="M8.6 14.25 Q5.55 14.45 2.9 12.65 L1.8 9.7 Q5.5 12.15 8.8 11.7 9.95 13.15 8.6 14.25" fill="url(#gradient3)" fill-rule="evenodd" stroke="none"/>
    <path d="M9.25 9.25 L8.3 7.9 8.15 7.05 5.9 5.9 6.45 3.05 6.65 2.05 10.2 2.8 10.65 5.6 Q10.45 7.65 9.25 9.25" fill="url(#gradient4)" fill-rule="evenodd" stroke="none"/>
    <path d="M8.15 7.05 L2.3 7.55 0.45 4.5 Q3.35 5.45 6.45 3.05 L5.9 5.9 8.15 7.05" fill="url(#gradient5)" fill-rule="evenodd" stroke="none"/>
    <path d="M10.2 2.8 L14.6 0.0 Q17.4 2.6 17.85 6.55 L14.7 6.6 Q11.4 13.25 11.3 20.15 L9.85 24.9 9.85 26.3 5.45 24.7 Q8.1 23.3 8.7 18.55 L8.6 14.25 Q5.55 14.45 2.9 12.65 L1.8 9.7 Q5.5 12.15 8.8 11.7 8.95 10.35 9.25 9.25 L8.3 7.9 8.15 7.05 2.3 7.55 0.45 4.5 Q3.35 5.45 6.45 3.05 L6.65 2.05 10.2 2.8 10.65 5.6 Q13.7 4.7 14.7 6.6 M8.15 7.05 L5.9 5.9 6.45 3.05 M5.4 22.1 Q3.25 20.35 4.4 17.3 L1.45 18.9 0.9 20.8 Q-0.35 22.35 -2.6 21.7 -0.8 24.75 2.9 25.4 L5.4 22.1 M8.8 11.7 Q9.95 13.15 8.6 14.25 M10.65 5.6 Q10.45 7.65 9.25 9.25" fill="none" stroke="#353532" stroke-linecap="round" stroke-linejoin="round" stroke-width="1.0"/>
    <path d="M14.25 1.95 Q15.7 2.95 16.25 5.05 M1.75 21.7 L2.3 23.6" fill="none" stroke="#53534e" stroke-linecap="round" stroke-linejoin="round" stroke-width="1.0"/>
  </g>
  <defs>
    <radialGradient cx="0" cy="0" gradientTransform="matrix(0.0059, 0.0, 0.0, 0.0059, 15.9, 3.4)" gradientUnits="userSpaceOnUse" id="gradient0" r="819.2" spreadMethod="pad">
      <stop offset="0.0" stop-color="#afafa0"/>
      <stop offset="1.0" stop-color="#66665d"/>
    </radialGradient>
    <radialGradient cx="0" cy="0" gradientTransform="matrix(0.0212, 0.0, 0.0, 0.0212, 18.85, 13.6)" gradientUnits="userSpaceOnUse" id="gradient1" r="819.2" spreadMethod="pad">
      <stop offset="0.0" stop-color="#afafa0"/>
      <stop offset="1.0" stop-color="#66665d"/>
    </radialGradient>
    <radialGradient cx="0" cy="0" gradientTransform="matrix(0.0077, 0.0, 0.0, 0.0077, 5.2, 19.3)" gradientUnits="userSpaceOnUse" id="gradient2" r="819.2" spreadMethod="pad">
      <stop offset="0.0" stop-color="#afafa0"/>
      <stop offset="1.0" stop-color="#66665d"/>
    </radialGradient>
    <radialGradient cx="0" cy="0" fx="400.0" fy="0" gradientTransform="matrix(0.0067, 0.0, 0.0, 0.0067, 7.4, 7.75)" gradientUnits="userSpaceOnUse" id="gradient3" r="819.2" spreadMethod="pad">
      <stop offset="0.0" stop-color="#afafa0"/>
      <stop offset="1.0" stop-color="#66665d"/>
    </radialGradient>
    <radialGradient cx="0" cy="0" gradientTransform="matrix(0.008, 0.0, 0.0, 0.008, 12.45, 1.7)" gradientUnits="userSpaceOnUse" id="gradient4" r="819.2" spreadMethod="pad">
      <stop offset="0.0" stop-color="#afafa0"/>
      <stop offset="1.0" stop-color="#66665d"/>
    </radialGradient>
    <radialGradient cx="0" cy="0" gradientTransform="matrix(0.0064, 0.0, 0.0, 0.0064, 7.8, 2.9)" gradientUnits="userSpaceOnUse" id="gradient5" r="819.2" spreadMethod="pad">
      <stop offset="0.0" stop-color="#afafa0"/>
      <stop offset="1.0" stop-color="#66665d"/>
    </radialGradient>
  </defs>
</svg>
