<?xml version="1.0" encoding="UTF-8" standalone="no"?>
<svg xmlns:xlink="http://www.w3.org/1999/xlink" height="265.95px" width="75.15px" xmlns="http://www.w3.org/2000/svg">
  <g transform="matrix(1.0, 0.0, 0.0, 1.0, 37.55, 132.95)">
    <path d="M-23.55 -65.0 Q-20.1 -88.4 -35.05 -128.05 L-36.55 -131.95 Q-30.85 -130.75 -25.6 -128.05 -2.7 -116.1 13.85 -69.25 9.15 -67.5 8.95 -58.4 -8.3 -76.9 -23.55 -65.0 M-1.6 -75.55 Q-5.1 -85.85 -11.85 -91.3 -5.1 -85.85 -1.6 -75.55 M1.0 -82.4 Q-2.1 -92.95 -12.95 -106.25 -2.1 -92.95 1.0 -82.4" fill="url(#gradient0)" fill-rule="evenodd" stroke="none"/>
    <path d="M10.9 -41.6 Q28.25 -26.6 28.05 9.5 L28.05 9.55 Q23.5 8.7 15.4 13.0 18.45 -2.5 13.55 -29.05 L10.9 -41.6" fill="url(#gradient1)" fill-rule="evenodd" stroke="none"/>
    <path d="M28.05 9.55 Q34.3 10.75 33.7 21.9 33.05 42.15 28.5 72.5 45.6 101.7 26.55 132.0 L22.85 124.8 23.25 111.6 18.25 99.9 9.35 97.4 Q7.75 87.75 14.15 68.9 12.0 23.9 15.4 13.0 23.5 8.7 28.05 9.55 M23.15 23.5 L22.55 46.05 23.15 23.5 M22.55 46.05 L28.0 42.55 22.55 46.05" fill="url(#gradient2)" fill-rule="evenodd" stroke="none"/>
    <path d="M13.55 -29.05 Q18.45 -2.5 15.4 13.0 12.0 23.9 14.15 68.9 10.45 69.9 7.3 71.25 0.35 53.65 3.65 26.75 6.25 5.0 13.55 -29.05" fill="url(#gradient3)" fill-rule="evenodd" stroke="none"/>
    <path d="M11.9 103.7 Q-3.65 105.1 -9.9 85.8 5.25 88.45 7.3 71.25 10.45 69.9 14.15 68.9 7.75 87.75 9.35 97.4 9.95 101.3 11.9 103.7" fill="url(#gradient4)" fill-rule="evenodd" stroke="none"/>
    <path d="M-9.9 85.8 Q-7.55 64.8 -9.5 47.8 -10.45 39.7 -12.4 32.5 -8.25 22.45 -1.05 24.45 1.15 25.05 3.65 26.75 0.35 53.65 7.3 71.25 5.25 88.45 -9.9 85.8" fill="url(#gradient5)" fill-rule="evenodd" stroke="none"/>
    <path d="M-18.8 0.35 Q-22.95 3.5 -25.8 0.35 -26.1 -43.3 -22.9 -52.0 -12.8 -67.65 -2.1 -54.3 4.15 -37.95 -4.05 -1.1 -8.5 2.05 -11.65 -1.1 -14.6 -6.2 -18.8 0.35 -21.25 -20.65 -18.8 -42.9 -21.25 -20.65 -18.8 0.35 M-7.6 -42.7 Q-4.55 -30.95 -11.65 -1.1 -4.55 -30.95 -7.6 -42.7" fill="url(#gradient6)" fill-rule="evenodd" stroke="none"/>
    <path d="M-9.5 47.8 L-11.5 56.45 Q-13.4 65.0 -13.15 98.2 -17.35 100.5 -21.5 98.2 L-21.5 10.95 Q-15.6 20.45 -12.4 32.5 -10.45 39.7 -9.5 47.8" fill="url(#gradient7)" fill-rule="evenodd" stroke="none"/>
    <path d="M8.95 -58.4 Q8.8 -51.9 10.9 -41.6 L13.55 -29.05 Q6.25 5.0 3.65 26.75 1.15 25.05 -1.05 24.45 -8.25 22.45 -12.4 32.5 -15.6 20.45 -21.5 10.95 -25.25 4.95 -30.05 0.0 -32.0 -45.5 -23.55 -65.0 -8.3 -76.9 8.95 -58.4 M-18.8 0.35 Q-14.6 -6.2 -11.65 -1.1 -8.5 2.05 -4.05 -1.1 4.15 -37.95 -2.1 -54.3 -12.8 -67.65 -22.9 -52.0 -26.1 -43.3 -25.8 0.35 -22.95 3.5 -18.8 0.35" fill="url(#gradient8)" fill-rule="evenodd" stroke="none"/>
    <path d="M22.85 124.8 L11.9 103.7 Q9.95 101.3 9.35 97.4 L18.25 99.9 23.25 111.6 22.85 124.8" fill="#3e3e3e" fill-rule="evenodd" stroke="none"/>
    <path d="M8.95 -58.4 Q8.8 -51.9 10.9 -41.6 28.25 -26.6 28.05 9.5 L28.05 9.55 M10.9 -41.6 L13.55 -29.05" fill="none" stroke="#000000" stroke-linecap="round" stroke-linejoin="round" stroke-width="2.0"/>
    <path d="M-23.55 -65.0 Q-20.1 -88.4 -35.05 -128.05 L-36.55 -131.95 Q-30.85 -130.75 -25.6 -128.05 -2.7 -116.1 13.85 -69.25 9.15 -67.5 8.95 -58.4 -8.3 -76.9 -23.55 -65.0 M28.05 9.55 Q34.3 10.75 33.7 21.9 33.05 42.15 28.5 72.5 45.6 101.7 26.55 132.0 L22.85 124.8 23.25 111.6 18.25 99.9 9.35 97.4 Q9.95 101.3 11.9 103.7 M13.55 -29.05 Q18.45 -2.5 15.4 13.0 23.5 8.7 28.05 9.55 M-18.8 0.35 Q-22.95 3.5 -25.8 0.35 -26.1 -43.3 -22.9 -52.0 -12.8 -67.65 -2.1 -54.3 4.15 -37.95 -4.05 -1.1 -8.5 2.05 -11.65 -1.1 -14.6 -6.2 -18.8 0.35 -21.25 -20.65 -18.8 -42.9 M-11.85 -91.3 Q-5.1 -85.85 -1.6 -75.55 M-11.65 -1.1 Q-4.55 -30.95 -7.6 -42.7 M28.0 42.55 L22.55 46.05 M9.35 97.4 Q7.75 87.75 14.15 68.9 10.45 69.9 7.3 71.25 M15.4 13.0 Q12.0 23.9 14.15 68.9 M3.65 26.75 Q6.25 5.0 13.55 -29.05 M-12.95 -106.25 Q-2.1 -92.95 1.0 -82.4" fill="none" stroke="#430101" stroke-linecap="round" stroke-linejoin="round" stroke-width="2.0"/>
    <path d="M-9.9 85.8 Q-7.55 64.8 -9.5 47.8 -10.45 39.7 -12.4 32.5 -8.25 22.45 -1.05 24.45 1.15 25.05 3.65 26.75 0.35 53.65 7.3 71.25 5.25 88.45 -9.9 85.8" fill="none" stroke="#2b0000" stroke-linecap="round" stroke-linejoin="round" stroke-width="2.0"/>
    <path d="M22.55 46.05 L23.15 23.5" fill="none" stroke="#640202" stroke-linecap="round" stroke-linejoin="round" stroke-width="2.0"/>
    <path d="M22.85 124.8 L11.9 103.7 Q-3.65 105.1 -9.9 85.8 M-9.5 47.8 L-11.5 56.45 Q-13.4 65.0 -13.15 98.2 -17.35 100.5 -21.5 98.2 L-21.5 10.95 Q-25.25 4.95 -30.05 0.0 -32.0 -45.5 -23.55 -65.0" fill="none" stroke="#1e1e1e" stroke-linecap="round" stroke-linejoin="round" stroke-width="2.0"/>
    <path d="M-12.4 32.5 Q-15.6 20.45 -21.5 10.95" fill="none" stroke="#1a1a1a" stroke-linecap="round" stroke-linejoin="round" stroke-width="2.0"/>
  </g>
  <defs>
    <radialGradient cx="0" cy="0" gradientTransform="matrix(-0.0502, 0.029, -0.041, -0.071, -38.8, -72.8)" gradientUnits="userSpaceOnUse" id="gradient0" r="819.2" spreadMethod="pad">
      <stop offset="0.0" stop-color="#ff0000"/>
      <stop offset="1.0" stop-color="#760101"/>
    </radialGradient>
    <radialGradient cx="0" cy="0" gradientTransform="matrix(0.0392, 0.0, 0.0, 0.0654, -4.05, 5.9)" gradientUnits="userSpaceOnUse" id="gradient1" r="819.2" spreadMethod="pad">
      <stop offset="0.34901960784313724" stop-color="#000000" stop-opacity="0.0"/>
      <stop offset="0.8392156862745098" stop-color="#000000" stop-opacity="0.101960786"/>
      <stop offset="1.0" stop-color="#000000" stop-opacity="0.5019608"/>
    </radialGradient>
    <radialGradient cx="0" cy="0" gradientTransform="matrix(-0.0541, -0.0098, 0.015, -0.0828, -5.35, 40.35)" gradientUnits="userSpaceOnUse" id="gradient2" r="819.2" spreadMethod="pad">
      <stop offset="0.0" stop-color="#ff0000"/>
      <stop offset="1.0" stop-color="#760101"/>
    </radialGradient>
    <radialGradient cx="0" cy="0" gradientTransform="matrix(-0.0399, 0.0074, -0.0169, -0.091, 13.45, 46.85)" gradientUnits="userSpaceOnUse" id="gradient3" r="819.2" spreadMethod="pad">
      <stop offset="0.0" stop-color="#9e0303"/>
      <stop offset="1.0" stop-color="#430101"/>
    </radialGradient>
    <radialGradient cx="0" cy="0" gradientTransform="matrix(-0.0399, 0.0074, -0.0169, -0.091, 13.45, 46.85)" gradientUnits="userSpaceOnUse" id="gradient4" r="819.2" spreadMethod="pad">
      <stop offset="0.0" stop-color="#515151"/>
      <stop offset="1.0" stop-color="#222222"/>
    </radialGradient>
    <radialGradient cx="0" cy="0" gradientTransform="matrix(-0.0399, 0.0074, -0.0169, -0.091, 13.45, 46.85)" gradientUnits="userSpaceOnUse" id="gradient5" r="819.2" spreadMethod="pad">
      <stop offset="0.0" stop-color="#640202"/>
      <stop offset="1.0" stop-color="#320101"/>
    </radialGradient>
    <radialGradient cx="0" cy="0" gradientTransform="matrix(-0.0196, 0.0, 0.0, -0.0539, -13.45, -36.4)" gradientUnits="userSpaceOnUse" id="gradient6" r="819.2" spreadMethod="pad">
      <stop offset="0.0" stop-color="#ea0404"/>
      <stop offset="1.0" stop-color="#430101"/>
    </radialGradient>
    <radialGradient cx="0" cy="0" gradientTransform="matrix(-0.0199, 0.0, 0.0, -0.067, -18.0, 54.95)" gradientUnits="userSpaceOnUse" id="gradient7" r="819.2" spreadMethod="pad">
      <stop offset="0.0" stop-color="#2b2b2b"/>
      <stop offset="1.0" stop-color="#262626"/>
    </radialGradient>
    <radialGradient cx="0" cy="0" gradientTransform="matrix(-0.0461, 0.0059, -0.0089, -0.0697, -8.6, -20.45)" gradientUnits="userSpaceOnUse" id="gradient8" r="819.2" spreadMethod="pad">
      <stop offset="0.0" stop-color="#484848"/>
      <stop offset="1.0" stop-color="#262626"/>
    </radialGradient>
  </defs>
</svg>
