<?xml version="1.0" encoding="UTF-8" standalone="no"?>
<svg xmlns:xlink="http://www.w3.org/1999/xlink" height="17.0px" width="111.0px" xmlns="http://www.w3.org/2000/svg">
  <g transform="matrix(1.0, 0.0, 0.0, 1.0, 55.5, 14.85)">
    <path d="M35.15 -2.4 L32.0 -6.45 37.1 -9.6 38.4 -14.35 39.1 -14.2 Q45.35 -13.05 47.4 -8.0 L48.85 -4.35 Q46.25 -4.65 44.5 1.65 L38.4 1.65 Q38.15 -1.65 35.15 -2.4" fill="url(#gradient0)" fill-rule="evenodd" stroke="none"/>
    <path d="M48.85 -4.35 Q53.75 -2.65 55.0 1.65 L44.5 1.65 Q46.25 -4.65 48.85 -4.35" fill="url(#gradient1)" fill-rule="evenodd" stroke="none"/>
    <path d="M32.9 1.65 L35.15 -2.4 Q38.15 -1.65 38.4 1.65 L32.9 1.65" fill="url(#gradient2)" fill-rule="evenodd" stroke="none"/>
    <path d="M2.55 1.65 L2.6 0.65 Q2.6 -1.3 1.85 -2.7 1.1 -4.05 0.0 -4.05 L0.0 -6.45 32.0 -6.45 35.15 -2.4 32.9 1.65 2.55 1.65" fill="url(#gradient3)" fill-rule="evenodd" stroke="none"/>
    <path d="M-48.85 -4.35 L-47.4 -8.0 Q-45.35 -13.05 -39.1 -14.2 L-38.4 -14.35 -37.1 -9.6 -32.0 -6.45 -35.15 -2.4 Q-38.15 -1.65 -38.4 1.65 L-44.5 1.65 Q-46.25 -4.65 -48.85 -4.35" fill="url(#gradient4)" fill-rule="evenodd" stroke="none"/>
    <path d="M0.0 -4.05 Q-1.1 -4.05 -1.85 -2.7 -2.6 -1.3 -2.6 0.65 L-2.55 1.65 -32.9 1.65 -35.15 -2.4 -32.0 -6.45 0.0 -6.45 0.0 -4.05" fill="url(#gradient5)" fill-rule="evenodd" stroke="none"/>
    <path d="M-38.4 1.65 Q-38.15 -1.65 -35.15 -2.4 L-32.9 1.65 -38.4 1.65" fill="url(#gradient6)" fill-rule="evenodd" stroke="none"/>
    <path d="M-48.85 -4.35 Q-46.25 -4.65 -44.5 1.65 L-55.0 1.65 Q-53.75 -2.65 -48.85 -4.35" fill="url(#gradient7)" fill-rule="evenodd" stroke="none"/>
    <path d="M0.0 -4.05 Q1.1 -4.05 1.85 -2.7 2.6 -1.3 2.6 0.65 L2.55 1.65 -2.55 1.65 -2.6 0.65 Q-2.6 -1.3 -1.85 -2.7 -1.1 -4.05 0.0 -4.05" fill="url(#gradient8)" fill-rule="evenodd" stroke="none"/>
    <path d="M-2.55 1.65 L2.55 1.65 M48.85 -4.35 L47.4 -8.0 Q45.35 -13.05 39.1 -14.2 L38.4 -14.35 37.1 -9.6 32.0 -6.45 M44.5 1.65 L55.0 1.65 Q53.75 -2.65 48.85 -4.35 46.25 -4.65 44.5 1.65 L38.4 1.65 32.9 1.65 M35.15 -2.4 Q38.15 -1.65 38.4 1.65 M-32.0 -6.45 L-37.1 -9.6 -38.4 -14.35 -39.1 -14.2 Q-45.35 -13.05 -47.4 -8.0 L-48.85 -4.35 Q-46.25 -4.65 -44.5 1.65 L-38.4 1.65 Q-38.15 -1.65 -35.15 -2.4 M-38.4 1.65 L-32.9 1.65 M-48.85 -4.35 Q-53.75 -2.65 -55.0 1.65 L-44.5 1.65" fill="none" stroke="#515151" stroke-linecap="round" stroke-linejoin="round" stroke-width="1.0"/>
    <path d="M2.55 1.65 L2.6 0.65 Q2.6 -1.3 1.85 -2.7 1.1 -4.05 0.0 -4.05 -1.1 -4.05 -1.85 -2.7 -2.6 -1.3 -2.6 0.65 L-2.55 1.65 M32.9 1.65 L35.15 -2.4 32.0 -6.45 0.0 -6.45 0.0 -4.05 M-35.15 -2.4 L-32.0 -6.45 0.0 -6.45 M-32.9 1.65 L-35.15 -2.4" fill="none" stroke="#262626" stroke-linecap="round" stroke-linejoin="round" stroke-width="1.0"/>
    <path d="M2.55 1.65 L32.9 1.65 M-32.9 1.65 L-2.55 1.65" fill="none" stroke="#151515" stroke-linecap="round" stroke-linejoin="round" stroke-width="1.0"/>
  </g>
  <defs>
    <linearGradient gradientTransform="matrix(0.0103, 0.0, 0.0, 0.0098, 40.4, -6.35)" gradientUnits="userSpaceOnUse" id="gradient0" spreadMethod="pad" x1="-819.2" x2="819.2">
      <stop offset="0.0" stop-color="#a9a9a9"/>
      <stop offset="1.0" stop-color="#6d6d6d"/>
    </linearGradient>
    <linearGradient gradientTransform="matrix(0.0064, 0.0, 0.0, 0.0037, 49.75, -1.35)" gradientUnits="userSpaceOnUse" id="gradient1" spreadMethod="pad" x1="-819.2" x2="819.2">
      <stop offset="0.0" stop-color="#ffffff"/>
      <stop offset="1.0" stop-color="#9d9d9d"/>
    </linearGradient>
    <linearGradient gradientTransform="matrix(0.0034, 0.0, 0.0, 0.0025, 35.65, -0.4)" gradientUnits="userSpaceOnUse" id="gradient2" spreadMethod="pad" x1="-819.2" x2="819.2">
      <stop offset="0.0" stop-color="#ffffff"/>
      <stop offset="1.0" stop-color="#9d9d9d"/>
    </linearGradient>
    <linearGradient gradientTransform="matrix(0.0, 0.0039, -0.0215, 0.0, 17.6, -2.4)" gradientUnits="userSpaceOnUse" id="gradient3" spreadMethod="pad" x1="-819.2" x2="819.2">
      <stop offset="0.0" stop-color="#4d4d4d"/>
      <stop offset="1.0" stop-color="#262626"/>
    </linearGradient>
    <linearGradient gradientTransform="matrix(-0.0103, 0.0, 0.0, 0.0098, -40.4, -6.35)" gradientUnits="userSpaceOnUse" id="gradient4" spreadMethod="pad" x1="-819.2" x2="819.2">
      <stop offset="0.0" stop-color="#a9a9a9"/>
      <stop offset="1.0" stop-color="#6d6d6d"/>
    </linearGradient>
    <linearGradient gradientTransform="matrix(0.0, 0.0039, 0.0215, 0.0, -17.6, -2.4)" gradientUnits="userSpaceOnUse" id="gradient5" spreadMethod="pad" x1="-819.2" x2="819.2">
      <stop offset="0.0" stop-color="#4d4d4d"/>
      <stop offset="1.0" stop-color="#262626"/>
    </linearGradient>
    <linearGradient gradientTransform="matrix(-0.0034, 0.0, 0.0, 0.0025, -35.65, -0.4)" gradientUnits="userSpaceOnUse" id="gradient6" spreadMethod="pad" x1="-819.2" x2="819.2">
      <stop offset="0.0" stop-color="#ffffff"/>
      <stop offset="1.0" stop-color="#9d9d9d"/>
    </linearGradient>
    <linearGradient gradientTransform="matrix(-0.0064, 0.0, 0.0, 0.0037, -49.75, -1.35)" gradientUnits="userSpaceOnUse" id="gradient7" spreadMethod="pad" x1="-819.2" x2="819.2">
      <stop offset="0.0" stop-color="#ffffff"/>
      <stop offset="1.0" stop-color="#9d9d9d"/>
    </linearGradient>
    <linearGradient gradientTransform="matrix(0.0, 0.0032, -0.0057, 0.0, -1.85, -1.2)" gradientUnits="userSpaceOnUse" id="gradient8" spreadMethod="pad" x1="-819.2" x2="819.2">
      <stop offset="0.0" stop-color="#ffffff"/>
      <stop offset="1.0" stop-color="#9d9d9d"/>
    </linearGradient>
  </defs>
</svg>
