<?xml version="1.0" encoding="UTF-8" standalone="no"?>
<svg xmlns:xlink="http://www.w3.org/1999/xlink" height="84.05px" width="184.35px" xmlns="http://www.w3.org/2000/svg">
  <g transform="matrix(1.0, 0.0, 0.0, 1.0, 87.7, 43.5)">
    <path d="M27.85 -14.3 L27.9 -14.3 34.25 -12.8 31.0 -9.45 Q30.9 -9.3 30.7 -9.3 L30.4 -6.35 Q34.5 -5.7 37.7 -4.75 38.2 -4.65 38.05 -3.8 L38.3 -2.05 48.0 -2.8 52.0 2.05 Q61.05 1.15 67.3 7.4 L67.4 7.75 Q68.8 7.95 70.1 12.15 L66.0 10.35 Q38.55 -1.15 21.1 -1.4 27.7 -9.2 27.85 -14.3 M72.65 13.3 Q72.85 7.95 73.05 7.9 76.55 11.75 78.95 16.15 L72.65 13.3" fill="url(#gradient0)" fill-rule="evenodd" stroke="none"/>
    <path d="M-77.5 -19.0 L-86.7 -26.6 Q-85.25 -27.2 -83.95 -28.0 L-84.1 -31.65 -80.3 -42.5 -76.55 -32.05 Q-73.75 -32.4 -71.25 -33.4 -65.65 -35.85 -57.2 -29.5 L-59.25 -37.15 Q-58.65 -39.45 -57.7 -41.45 -48.4 -37.25 -39.95 -29.5 -6.2 -27.4 15.85 -23.3 27.95 -21.3 27.85 -14.3 27.7 -9.2 21.1 -1.4 8.55 -0.35 -39.45 -13.25 -70.05 -9.8 -77.5 -19.0" fill="url(#gradient1)" fill-rule="evenodd" stroke="none"/>
    <path d="M70.1 12.15 L70.1 23.2 72.65 13.3 78.95 16.15 Q88.85 20.65 95.65 22.1 L95.65 39.55 93.4 39.55 Q92.3 36.5 89.55 33.15 73.4 22.65 31.75 22.8 27.35 26.8 29.95 31.05 34.75 35.35 26.7 38.4 L25.55 39.55 15.4 39.55 14.7 38.8 14.7 38.75 Q5.8 30.15 -6.35 23.9 5.4 21.8 4.9 13.55 4.75 11.1 3.55 7.95 27.6 10.2 66.0 10.35 L70.1 12.15" fill="url(#gradient2)" fill-rule="evenodd" stroke="none"/>
    <path d="M93.4 39.55 L30.2 39.55 26.7 38.4 Q34.75 35.35 29.95 31.05 27.35 26.8 31.75 22.8 73.4 22.65 89.55 33.15 92.3 36.5 93.4 39.55 M75.75 36.4 Q63.8 30.35 29.95 31.05 63.8 30.35 75.75 36.4" fill="url(#gradient3)" fill-rule="evenodd" stroke="none"/>
    <path d="M-22.25 17.25 Q-40.1 11.1 -63.3 8.7 -62.6 -8.25 -43.6 -6.45 -41.35 -9.55 -39.45 -13.25 8.55 -0.35 21.1 -1.4 38.55 -1.15 66.0 10.35 27.6 10.2 3.55 7.95 4.75 11.1 4.9 13.55 5.4 21.8 -6.35 23.9 -13.75 20.15 -22.25 17.25 M-43.6 -6.45 Q-26.3 5.2 3.55 7.95 -26.3 5.2 -43.6 -6.45" fill="url(#gradient4)" fill-rule="evenodd" stroke="none"/>
    <path d="M14.7 38.8 L-26.95 29.75 -26.95 23.4 -29.95 29.1 -79.4 18.35 Q-80.85 13.3 -77.4 9.3 -41.7 17.35 -32.0 17.25 L-22.25 17.25 Q-13.75 20.15 -6.35 23.9 5.8 30.15 14.7 38.75 L14.7 38.8" fill="url(#gradient5)" fill-rule="evenodd" stroke="none"/>
    <path d="M30.2 39.55 L25.55 39.55 26.7 38.4 30.2 39.55" fill="url(#gradient6)" fill-rule="evenodd" stroke="none"/>
    <path d="M-63.3 8.7 Q-82.6 -2.6 -77.5 -19.0 -70.05 -9.8 -39.45 -13.25 -41.35 -9.55 -43.6 -6.45 -62.6 -8.25 -63.3 8.7" fill="url(#gradient7)" fill-rule="evenodd" stroke="none"/>
    <path d="M27.85 -14.3 L27.9 -14.3 34.25 -12.8 31.0 -9.45 Q30.9 -9.3 30.7 -9.3 L30.4 -6.35 Q34.5 -5.7 37.7 -4.75 38.2 -4.65 38.05 -3.8 L38.3 -2.05 48.0 -2.8 52.0 2.05 Q61.05 1.15 67.3 7.4 L67.4 7.75 Q68.8 7.95 70.1 12.15 L70.1 23.2 72.65 13.3 Q72.85 7.95 73.05 7.9 76.55 11.75 78.95 16.15 88.85 20.65 95.65 22.1 M95.65 39.55 L93.4 39.55 30.2 39.55 26.7 38.4 25.55 39.55 15.4 39.55 14.7 38.8 -26.95 29.75 -26.95 23.4 -29.95 29.1 -79.4 18.35 Q-80.85 13.3 -77.4 9.3 -41.7 17.35 -32.0 17.25 L-22.25 17.25 Q-40.1 11.1 -63.3 8.7 -82.6 -2.6 -77.5 -19.0 L-86.7 -26.6 Q-85.25 -27.2 -83.95 -28.0 L-84.1 -31.65 -80.3 -42.5 -76.55 -32.05 Q-73.75 -32.4 -71.25 -33.4 -65.65 -35.85 -57.2 -29.5 L-59.25 -37.15 Q-58.65 -39.45 -57.7 -41.45 -48.4 -37.25 -39.95 -29.5 -6.2 -27.4 15.85 -23.3 27.95 -21.3 27.85 -14.3 27.7 -9.2 21.1 -1.4 38.55 -1.15 66.0 10.35 L70.1 12.15 M93.4 39.55 Q92.3 36.5 89.55 33.15 73.4 22.65 31.75 22.8 27.35 26.8 29.95 31.05 63.8 30.35 75.75 36.4 M78.95 16.15 L72.65 13.3 M66.0 10.35 Q27.6 10.2 3.55 7.95 4.75 11.1 4.9 13.55 5.4 21.8 -6.35 23.9 5.8 30.15 14.7 38.75 L14.7 38.8 M29.95 31.05 Q34.75 35.35 26.7 38.4 M-63.3 8.7 Q-62.6 -8.25 -43.6 -6.45 -41.35 -9.55 -39.45 -13.25 -70.05 -9.8 -77.5 -19.0 M-6.35 23.9 Q-13.75 20.15 -22.25 17.25 M3.55 7.95 Q-26.3 5.2 -43.6 -6.45 M-39.45 -13.25 Q8.55 -0.35 21.1 -1.4" fill="none" stroke="#000000" stroke-linecap="round" stroke-linejoin="round" stroke-width="2.0"/>
  </g>
  <defs>
    <radialGradient cx="0" cy="0" gradientTransform="matrix(0.0092, -0.0422, -0.0705, -0.0154, 24.2, 21.1)" gradientUnits="userSpaceOnUse" id="gradient0" r="819.2" spreadMethod="pad">
      <stop offset="0.34901960784313724" stop-color="#000000" stop-opacity="0.0"/>
      <stop offset="0.8392156862745098" stop-color="#000000" stop-opacity="0.101960786"/>
      <stop offset="1.0" stop-color="#000000" stop-opacity="0.5019608"/>
    </radialGradient>
    <radialGradient cx="0" cy="0" gradientTransform="matrix(-0.0022, 0.0606, 0.0928, 0.0033, -13.25, 14.45)" gradientUnits="userSpaceOnUse" id="gradient1" r="819.2" spreadMethod="pad">
      <stop offset="0.0" stop-color="#7e0101"/>
      <stop offset="1.0" stop-color="#3c0000"/>
    </radialGradient>
    <radialGradient cx="0" cy="0" gradientTransform="matrix(-0.1446, -0.039, -0.0111, 0.0412, 51.6, 32.25)" gradientUnits="userSpaceOnUse" id="gradient2" r="819.2" spreadMethod="pad">
      <stop offset="0.0" stop-color="#222222"/>
      <stop offset="1.0" stop-color="#000000"/>
    </radialGradient>
    <radialGradient cx="0" cy="0" gradientTransform="matrix(-0.0046, 0.0212, 0.0581, 0.0126, 67.55, 41.25)" gradientUnits="userSpaceOnUse" id="gradient3" r="819.2" spreadMethod="pad">
      <stop offset="0.0" stop-color="#3a0101"/>
      <stop offset="1.0" stop-color="#1a0000"/>
    </radialGradient>
    <radialGradient cx="0" cy="0" gradientTransform="matrix(-0.0173, 0.0413, 0.0942, 0.0396, -15.8, -7.3)" gradientUnits="userSpaceOnUse" id="gradient4" r="819.2" spreadMethod="pad">
      <stop offset="0.0" stop-color="#3a0101"/>
      <stop offset="1.0" stop-color="#1a0000"/>
    </radialGradient>
    <radialGradient cx="0" cy="0" gradientTransform="matrix(-0.0025, 0.0116, 0.207, 0.0451, -31.95, 24.7)" gradientUnits="userSpaceOnUse" id="gradient5" r="819.2" spreadMethod="pad">
      <stop offset="0.0" stop-color="#222222"/>
      <stop offset="1.0" stop-color="#000000"/>
    </radialGradient>
    <radialGradient cx="0" cy="0" gradientTransform="matrix(-0.0046, 0.0212, 0.0581, 0.0126, 67.55, 41.25)" gradientUnits="userSpaceOnUse" id="gradient6" r="819.2" spreadMethod="pad">
      <stop offset="0.0" stop-color="#ea0404"/>
      <stop offset="1.0" stop-color="#430101"/>
    </radialGradient>
    <radialGradient cx="0" cy="0" gradientTransform="matrix(-0.0173, 0.0413, 0.0942, 0.0396, -32.95, -6.6)" gradientUnits="userSpaceOnUse" id="gradient7" r="819.2" spreadMethod="pad">
      <stop offset="0.0" stop-color="#222222"/>
      <stop offset="1.0" stop-color="#000000"/>
    </radialGradient>
  </defs>
</svg>
