<?xml version="1.0" encoding="UTF-8" standalone="no"?>
<svg xmlns:ffdec="https://www.free-decompiler.com/flash" xmlns:xlink="http://www.w3.org/1999/xlink" ffdec:objectType="shape" height="27.85px" width="16.05px" xmlns="http://www.w3.org/2000/svg">
  <g transform="matrix(1.0, 0.0, 0.0, 1.0, 2.3, 0.6)">
    <path d="M2.45 6.95 L2.35 5.8 2.25 4.2 6.95 3.15 10.0 -0.1 13.25 -0.1 11.55 6.55 10.9 9.2 11.55 10.3 11.45 11.55 10.35 23.25 8.6 24.15 6.9 25.0 6.1 17.4 4.35 16.15 4.35 9.7 2.65 9.7 2.45 6.95 M0.35 18.75 L-0.45 18.75 -1.8 15.65 -1.25 12.0 -0.1 12.0 1.85 12.55 2.15 18.75 0.35 18.75 M11.55 6.55 L7.7 8.65 5.05 7.85 5.05 5.2 2.35 5.8 5.05 5.2 5.05 7.85 7.7 8.65 11.55 6.55 M7.2 22.45 L8.65 21.4 8.65 12.9 11.45 11.55 8.65 12.9 8.65 21.4 7.2 22.45" fill="#350303" fill-rule="evenodd" stroke="none"/>
    <path d="M4.95 26.3 L2.3 26.3 1.2 20.4 3.85 21.6 4.95 26.3" fill="#171717" fill-rule="evenodd" stroke="none"/>
    <path d="M8.6 24.15 L8.6 26.75 4.95 26.3 3.85 21.6 1.2 20.4 0.8 20.4 0.35 18.75 2.15 18.75 1.85 12.55 -0.1 12.0 0.7 8.1 2.45 6.95 2.65 9.7 4.35 9.7 4.35 16.15 6.1 17.4 6.9 25.0 8.6 24.15" fill="url(#gradient0)" fill-rule="evenodd" stroke="none"/>
    <path d="M8.6 24.15 L8.6 26.75 4.95 26.3 2.3 26.3 1.2 20.4 0.8 20.4 0.35 18.75 -0.45 18.75 M-0.1 12.0 L0.7 8.1 2.45 6.95 M1.2 20.4 L3.85 21.6 4.95 26.3" fill="none" stroke="#090909" stroke-linecap="round" stroke-linejoin="round" stroke-width="1.0"/>
    <path d="M-0.45 18.75 L-1.8 15.65 -1.25 12.0 -0.1 12.0 1.85 12.55 2.15 18.75 0.35 18.75" fill="none" stroke="#190000" stroke-linecap="round" stroke-linejoin="round" stroke-width="1.0"/>
    <path d="M2.35 5.8 L5.05 5.2 5.05 7.85 7.7 8.65 11.55 6.55 M11.45 11.55 L8.65 12.9 8.65 21.4 7.2 22.45" fill="none" stroke="#2a0101" stroke-linecap="round" stroke-linejoin="round" stroke-width="1.0"/>
    <path d="M4.35 9.7 L2.65 9.7 2.25 4.2 6.95 3.15 10.0 -0.1 13.25 -0.1 10.9 9.2 11.55 10.3 10.35 23.25 6.9 25.0 6.1 17.4 4.35 16.15 4.35 9.7 5.75 9.7 7.8 10.7 10.9 9.2" fill="none" stroke="#190000" stroke-linecap="round" stroke-linejoin="round" stroke-width="1.0"/>
    <path d="M-0.7 12.9 L-0.25 12.9" fill="none" stroke="#ff0000" stroke-linecap="round" stroke-linejoin="round" stroke-width="1.0"/>
  </g>
  <defs>
    <radialGradient cx="0" cy="0" gradientTransform="matrix(0.0109, 0.0, 0.0, 0.0109, 5.65, 20.7)" gradientUnits="userSpaceOnUse" id="gradient0" r="819.2" spreadMethod="pad">
      <stop offset="0.0" stop-color="#272727"/>
      <stop offset="1.0" stop-color="#121212"/>
      <stop offset="1.0" stop-color="#272727" stop-opacity="0.8"/>
      <stop offset="1.0" stop-color="#ff5151"/>
    </radialGradient>
  </defs>
</svg>
