<?xml version="1.0" encoding="UTF-8" standalone="no"?>
<svg xmlns:xlink="http://www.w3.org/1999/xlink" height="12.5px" width="26.1px" xmlns="http://www.w3.org/2000/svg">
  <g transform="matrix(1.0, 0.0, 0.0, 1.0, 13.05, 6.25)">
    <path d="M-10.6 -5.0 Q-9.15 -4.1 2.35 -2.0 12.75 -0.1 12.0 3.35 7.55 5.25 1.9 5.25 -2.7 5.25 -7.75 1.2 -12.05 -2.25 -12.05 -3.4 -12.05 -5.9 -10.6 -5.0" fill="#3c0000" fill-rule="evenodd" stroke="none"/>
    <path d="M-10.6 -5.0 Q-9.15 -4.1 2.35 -2.0 12.75 -0.1 12.0 3.35 7.55 5.25 1.9 5.25 -2.7 5.25 -7.75 1.2 -12.05 -2.25 -12.05 -3.4 -12.05 -5.9 -10.6 -5.0 Z" fill="none" stroke="#000000" stroke-linecap="round" stroke-linejoin="round" stroke-width="2.0"/>
  </g>
</svg>
