<?xml version="1.0" encoding="UTF-8" standalone="no"?>
<svg xmlns:ffdec="https://www.free-decompiler.com/flash" xmlns:xlink="http://www.w3.org/1999/xlink" ffdec:objectType="shape" height="13.65px" width="13.55px" xmlns="http://www.w3.org/2000/svg">
  <g transform="matrix(1.0, 0.0, 0.0, 1.0, 7.0, 7.8)">
    <path d="M6.05 -1.85 Q6.15 2.9 3.8 4.3 1.45 5.65 -1.3 5.3 -4.05 4.9 -5.5 2.5 -7.0 0.05 -6.25 -3.85 -5.5 -7.8 0.25 -7.2 5.95 -6.65 6.05 -1.85" fill="url(#gradient0)" fill-rule="evenodd" stroke="none"/>
    <path d="M6.05 -1.85 Q6.15 2.9 3.8 4.3 1.45 5.65 -1.3 5.3 -4.05 4.9 -5.5 2.5 -7.0 0.05 -6.25 -3.85 -5.5 -7.8 0.25 -7.2 5.95 -6.65 6.05 -1.85 Z" fill="none" stroke="#242d42" stroke-linecap="round" stroke-linejoin="round" stroke-width="1.0"/>
  </g>
  <defs>
    <linearGradient gradientTransform="matrix(0.0011, -0.0077, -0.0077, -0.0011, 24.35, 4.4)" gradientUnits="userSpaceOnUse" id="gradient0" spreadMethod="pad" x1="-819.2" x2="819.2">
      <stop offset="0.0" stop-color="#495d7c"/>
      <stop offset="0.0784313725490196" stop-color="#526988"/>
      <stop offset="0.2901960784313726" stop-color="#63829f"/>
      <stop offset="0.4980392156862745" stop-color="#7093af"/>
      <stop offset="0.7294117647058823" stop-color="#789eb9"/>
      <stop offset="1.0" stop-color="#7aa1bc"/>
    </linearGradient>
  </defs>
</svg>
