<?xml version="1.0" encoding="UTF-8" standalone="no"?>
<svg xmlns:ffdec="https://www.free-decompiler.com/flash" xmlns:xlink="http://www.w3.org/1999/xlink" ffdec:objectType="shape" height="20.6px" width="18.55px" xmlns="http://www.w3.org/2000/svg">
  <g transform="matrix(1.0, 0.0, 0.0, 1.0, 0.7, 0.25)">
    <path d="M8.1 0.25 L6.15 6.55 7.4 11.05 10.1 12.55 9.45 13.15 6.6 14.9 3.2 13.25 3.6 6.9 8.1 0.25 M11.45 4.7 L11.95 3.65 12.25 4.65 12.1 7.7 9.55 10.9 Q10.3 7.6 11.45 4.7" fill="#141412" fill-rule="evenodd" stroke="none"/>
    <path d="M8.1 0.25 L14.65 4.25 14.45 7.45 10.1 12.55 7.4 11.05 6.15 6.55 8.1 0.25 M11.45 4.7 Q10.3 7.6 9.55 10.9 L12.1 7.7 12.25 4.65 11.95 3.65 11.45 4.7" fill="#262521" fill-rule="evenodd" stroke="none"/>
    <path d="M12.1 3.85 L12.25 3.85 11.95 5.4 12.05 5.55 11.9 7.0 11.95 7.2 11.9 7.4 12.0 7.8 11.9 8.0 11.6 7.9 11.6 7.8 11.4 7.65 11.4 7.5 11.2 7.2 11.3 7.05 11.05 6.95 11.1 6.8 11.2 6.65 11.5 6.75 11.55 6.5 11.5 6.45 11.5 6.3 11.65 5.55 11.75 5.55 11.7 6.05 11.55 6.15 11.6 6.7 11.65 6.7 11.65 6.85 11.55 6.85 11.65 6.95 11.7 6.9 11.85 6.2 11.75 6.1 11.85 6.1 11.9 5.95 11.95 5.9 11.8 5.8 11.9 5.5 12.0 5.5 11.9 5.4 11.95 5.15 12.0 5.1 12.0 4.8 11.9 4.75 12.1 3.85 M6.75 3.95 L6.8 4.15 6.8 4.05 7.15 3.85 7.1 3.55 7.5 3.2 7.7 2.9 7.7 2.65 7.8 2.45 7.9 2.05 7.85 2.95 7.95 3.05 8.4 3.3 8.7 3.6 8.75 3.9 9.0 4.0 9.4 3.85 9.7 3.95 9.85 3.95 10.3 4.3 10.45 4.7 10.65 4.8 10.65 5.05 10.9 5.25 10.85 5.5 10.95 5.65 10.95 5.85 11.05 5.95 10.85 6.15 9.9 5.9 9.6 5.75 9.5 5.65 9.4 5.6 9.35 5.65 9.4 5.75 9.35 5.8 9.4 5.9 9.5 6.0 9.75 6.0 9.8 6.15 9.55 6.05 9.45 6.1 9.55 6.25 9.45 6.25 9.35 6.35 9.3 6.35 9.3 6.45 9.1 6.6 9.15 6.7 9.05 6.65 8.95 6.65 9.1 6.85 9.0 6.8 9.1 7.0 9.15 7.25 9.05 7.4 9.0 7.6 8.9 7.65 8.65 7.6 8.75 7.5 8.65 7.4 8.45 7.25 8.45 7.2 8.3 7.25 8.15 7.15 7.85 7.15 7.75 7.25 7.25 6.75 7.4 6.7 7.4 6.55 7.3 6.45 7.45 6.5 7.55 6.1 7.6 6.05 7.5 5.95 7.6 6.0 7.7 5.95 7.7 5.8 7.8 5.95 7.85 6.1 7.75 6.1 7.8 6.15 7.8 6.2 7.95 6.3 8.0 6.25 8.0 6.2 8.15 6.25 8.25 6.25 8.1 6.05 8.15 6.0 8.15 5.85 8.3 5.85 8.35 5.9 8.35 6.05 8.45 6.05 8.4 6.1 8.45 6.25 8.7 6.3 8.9 5.95 8.8 5.55 8.95 5.2 8.95 4.95 8.75 4.45 8.7 4.35 8.65 4.4 8.5 4.35 8.25 4.4 8.1 4.65 8.05 4.7 7.9 4.8 7.95 4.9 7.65 5.15 7.45 5.15 7.35 5.3 7.35 5.25 7.3 5.4 7.05 5.35 Q6.95 5.45 6.8 5.5 L6.75 5.45 6.5 5.5 6.4 5.35 6.45 5.25 6.45 5.1 6.55 5.05 6.4 4.95 6.5 4.6 6.55 4.55 6.75 4.4 6.75 3.95 M7.8 1.2 L7.75 1.0 7.9 0.0 8.05 0.05 8.2 0.35 7.9 1.45 7.85 1.65 7.8 1.2 M6.75 3.45 L6.85 3.25 6.8 3.15 6.9 3.0 7.0 3.15 6.95 3.35 6.75 3.45 6.8 3.65 6.75 3.85 6.7 3.8 6.75 3.6 6.75 3.45 M4.95 5.35 L4.85 5.65 4.8 5.95 4.85 6.05 5.0 5.9 5.05 5.7 5.1 5.7 5.2 4.85 5.15 4.75 5.15 3.95 5.4 3.8 5.4 3.65 5.3 3.5 5.4 3.2 5.5 3.3 5.45 3.5 5.45 3.65 5.4 3.9 5.25 4.0 5.3 4.8 5.35 4.85 5.35 5.25 5.2 5.35 5.2 5.8 5.35 5.85 5.5 6.05 5.55 6.2 5.3 6.4 4.9 6.5 4.8 6.6 4.6 6.4 4.6 6.1 4.8 6.0 4.75 5.6 4.9 5.45 4.95 5.35 4.8 5.25 4.85 5.0 4.9 5.0 5.05 5.1 4.95 5.35 M6.4 5.75 L5.6 6.05 5.45 5.85 5.55 5.8 5.95 5.55 6.0 5.6 6.35 5.6 6.4 5.75 M7.75 7.4 L7.8 7.55 7.8 7.9 7.7 8.0 7.65 7.85 7.7 7.8 7.55 7.8 7.5 7.75 7.4 7.7 7.4 7.65 7.55 7.4 7.75 7.4 M9.0 9.05 L8.9 8.95 8.8 8.8 8.9 8.5 9.0 8.45 8.85 8.3 8.75 8.25 8.75 8.0 8.9 7.75 9.05 7.8 9.0 7.85 9.1 8.05 9.15 8.05 9.05 8.2 9.15 8.25 9.1 8.35 9.05 8.35 9.3 8.85 9.0 9.05 M9.4 9.25 L9.55 9.6 9.45 10.1 9.4 10.25 9.05 10.25 8.85 10.1 8.85 9.9 8.9 9.8 8.9 9.2 9.15 9.15 9.3 9.25 9.4 9.25 M6.7 6.8 L6.6 6.9 6.4 6.65 6.5 6.65 6.45 6.55 6.55 6.4 6.8 6.55 6.85 6.7 6.75 6.65 6.7 6.8 M6.6 7.0 L6.45 7.15 6.3 7.15 6.25 7.45 6.25 7.5 6.1 7.5 5.95 7.4 6.2 7.05 6.25 6.95 6.35 7.05 6.35 6.85 6.55 6.85 6.6 7.0 M6.15 7.6 L6.3 7.75 6.2 8.45 6.05 8.55 6.0 8.65 5.7 8.6 5.55 8.45 5.45 8.1 5.95 7.5 6.05 7.6 6.15 7.6 M7.55 8.0 L7.6 8.1 7.55 8.2 7.6 8.55 7.45 8.65 7.35 8.85 7.45 9.0 7.6 9.05 7.65 9.45 7.7 9.5 7.6 9.75 7.5 9.9 7.1 10.0 7.15 9.95 7.0 9.95 6.7 9.8 6.75 9.65 6.85 9.65 6.9 9.3 7.05 9.25 7.1 8.95 7.2 8.95 7.25 8.9 7.25 8.85 7.15 8.7 7.35 8.6 7.35 8.25 7.45 8.2 7.4 8.1 7.55 8.0" fill="#000000" fill-opacity="0.6" fill-rule="evenodd" stroke="none"/>
    <path d="M10.45 4.7 L10.3 4.45 10.25 4.2 10.15 4.2 10.15 4.4 10.2 4.5 10.15 4.55 10.6 5.2 10.7 5.25 11.1 5.85 11.05 6.15 11.1 6.3 11.25 6.25 11.35 6.4 11.4 6.6 11.25 6.55 11.2 6.35 11.05 6.3 10.95 6.1 11.0 5.9 10.55 5.35 10.5 5.4 10.3 5.1 10.3 4.9 10.05 4.6 9.9 4.65 9.7 4.65 9.6 4.55 9.65 4.25 9.85 3.9 9.85 3.8 10.15 3.75 10.3 3.95 10.25 4.1 10.45 4.4 10.45 4.7 10.6 4.7 10.7 4.9 10.65 4.9 10.6 4.95 10.45 4.7 M10.35 7.5 L10.2 7.35 10.15 7.15 10.2 7.15 10.25 7.35 10.35 7.5 10.4 7.7 10.45 7.7 10.55 7.95 10.35 7.85 10.3 7.7 10.35 7.5 M10.5 9.3 L10.4 9.35 9.95 8.6 9.8 8.65 9.35 8.85 9.05 8.8 8.8 8.7 8.6 8.8 8.4 9.2 8.2 9.35 8.05 9.5 7.55 9.55 7.25 9.4 7.1 9.5 6.95 9.3 6.65 9.4 6.5 9.2 6.4 9.15 6.25 9.0 6.2 9.05 6.2 8.9 6.15 8.75 6.9 8.2 7.15 8.1 7.2 8.05 7.3 8.05 7.4 8.0 7.4 7.9 7.3 7.85 7.3 7.8 7.1 7.75 7.1 7.8 7.05 7.7 6.95 7.65 7.05 7.6 7.0 7.45 7.05 7.35 7.05 7.15 7.0 7.15 7.0 7.1 7.15 6.95 6.85 7.0 7.05 6.9 6.6 6.7 6.6 6.5 6.55 6.35 6.55 6.2 6.7 6.1 6.75 6.2 6.85 6.25 7.05 6.2 7.1 6.2 7.2 6.0 7.35 6.0 7.4 5.9 7.55 5.8 7.55 5.7 7.65 5.55 8.15 5.55 8.1 5.7 8.15 5.85 8.1 5.9 8.3 6.35 8.45 6.3 8.3 6.45 8.45 6.55 8.25 6.55 8.2 6.45 8.2 6.35 8.15 6.4 8.1 6.35 7.95 6.4 7.9 6.45 7.95 6.5 7.85 6.55 7.8 6.7 7.95 6.7 8.05 6.85 8.05 6.9 7.95 7.05 7.8 6.9 7.8 6.95 7.65 6.85 7.45 7.0 7.5 7.45 7.85 7.65 7.9 7.9 7.95 7.95 8.05 8.1 8.45 8.3 8.55 8.4 8.55 8.3 8.7 8.2 8.85 7.95 8.85 7.65 8.8 7.6 8.85 7.45 8.75 7.4 8.8 6.95 8.95 6.85 8.9 6.65 8.95 6.7 8.9 6.55 9.1 6.35 9.2 6.1 9.3 6.05 9.35 5.8 9.5 5.85 9.55 5.95 9.6 6.0 9.55 6.1 9.75 6.1 9.9 6.45 9.85 6.55 9.85 6.8 10.1 7.1 9.95 7.05 9.95 7.5 10.05 7.6 10.0 8.55 10.2 8.7 10.25 8.95 10.4 9.3 10.5 9.3 11.05 9.9 11.55 10.6 11.45 10.7 11.2 10.6 11.05 10.2 10.75 9.75 10.65 9.5 10.5 9.3 M8.4 4.1 L8.25 4.1 7.9 3.55 7.95 3.4 7.9 3.2 8.1 3.05 8.3 3.05 8.5 3.25 8.6 4.0 8.45 4.0 8.4 4.1 M7.25 4.9 L7.15 4.9 7.1 4.7 6.95 4.6 6.95 4.3 6.9 4.25 6.75 4.2 6.65 4.3 6.35 4.05 6.35 4.0 6.3 3.75 6.2 3.65 6.4 3.3 6.4 3.35 6.55 3.2 6.8 3.05 6.85 3.25 6.75 3.3 7.0 3.55 6.9 3.7 7.05 3.95 6.95 4.05 6.95 4.15 7.15 4.2 7.1 4.4 7.2 4.5 7.15 4.7 7.35 4.7 7.25 4.9 M5.65 5.4 L5.9 5.35 6.0 5.4 6.1 5.65 6.1 5.85 6.25 5.75 6.35 5.8 6.5 5.9 6.45 6.2 6.4 6.2 6.4 6.15 6.2 6.15 6.2 6.05 6.15 6.05 6.05 5.95 6.2 5.9 6.05 5.9 5.7 5.75 5.65 5.4 M5.35 5.55 L5.05 5.4 4.9 5.05 4.75 4.9 5.05 4.55 5.3 4.5 5.35 4.65 5.4 4.7 5.65 5.0 5.65 5.2 5.6 5.45 5.4 5.45 5.35 5.55 M7.45 5.5 L7.1 5.2 7.15 5.0 7.25 5.05 7.25 5.15 7.4 5.05 7.45 5.05 7.5 5.0 7.6 5.3 7.6 5.4 7.45 5.5 M8.55 4.85 L8.45 4.65 8.6 4.55 8.45 4.35 8.4 4.25 8.5 4.2 8.65 4.15 8.65 4.55 8.7 4.65 8.65 4.65 8.7 4.8 8.6 4.85 8.55 4.85 M8.5 5.2 L8.5 4.9 8.75 4.95 8.75 5.0 8.8 5.05 8.8 5.25 8.55 5.35 8.45 5.25 8.5 5.2 M9.3 5.5 L9.5 5.2 9.6 4.95 9.65 4.75 9.9 4.75 9.85 4.85 9.7 5.35 9.7 5.4 9.4 5.6 9.3 5.5 M6.7 11.3 L6.6 11.35 5.85 10.15 5.75 10.05 5.0 8.95 4.9 8.9 4.5 8.6 4.45 8.45 4.45 8.35 4.7 8.2 4.8 8.2 4.95 8.15 5.1 8.3 5.3 8.25 5.35 8.5 5.55 8.4 5.6 8.45 5.65 8.7 5.5 8.75 5.4 8.8 5.5 9.0 5.6 9.05 5.65 9.15 6.05 9.8 5.95 9.85 5.65 9.5 5.7 9.35 5.35 8.9 5.3 9.0 5.25 8.9 5.3 8.8 5.2 8.8 5.15 8.9 5.45 9.5 5.6 9.55 5.55 9.55 5.6 9.7 5.65 9.8 5.75 9.75 5.85 9.95 5.85 10.05 5.9 10.1 6.0 10.25 6.0 10.3 6.2 10.55 6.25 10.5 6.7 11.3 M7.0 8.0 L6.85 7.95 7.1 7.8 7.0 8.0" fill="#000000" fill-opacity="0.6" fill-rule="evenodd" stroke="none"/>
    <path d="M9.0 13.25 L9.65 12.6 13.95 7.6 14.25 4.35 7.7 0.45 3.15 7.05 2.9 9.8 5.75 12.35 9.0 13.25 Q7.6 14.15 6.15 15.0 L2.8 13.4 2.9 9.8" fill="none" stroke="#000000" stroke-linecap="round" stroke-linejoin="round" stroke-width="1.0"/>
    <path d="M13.4 3.05 Q13.4 5.25 12.85 6.1 12.35 6.75 11.95 6.5 8.95 4.85 6.4 2.65 6.3 1.1 7.65 0.25 9.45 0.85 13.4 3.05" fill="#111111" fill-rule="evenodd" stroke="none"/>
    <path d="M13.4 3.05 Q13.4 5.25 12.85 6.1 12.35 6.75 11.95 6.5 8.95 4.85 6.4 2.65 6.3 1.1 7.65 0.25 9.45 0.85 13.4 3.05 Z" fill="none" stroke="#000000" stroke-linecap="round" stroke-linejoin="round" stroke-width="1.0"/>
    <path d="M10.95 7.2 L12.15 5.95 13.35 2.2 13.55 1.85 15.25 2.95 16.35 3.25 17.35 4.45 16.4 7.55 13.7 8.8 10.95 7.2" fill="#111111" fill-rule="evenodd" stroke="none"/>
    <path d="M10.95 7.2 L13.7 8.8 12.0 8.25 10.95 7.2" fill="#343329" fill-rule="evenodd" stroke="none"/>
    <path d="M13.7 8.8 L16.4 7.55 17.35 4.45 16.35 3.25 15.25 2.95 13.55 1.85 13.35 2.2 12.15 5.95 10.95 7.2 12.0 8.25 13.7 8.8 Z" fill="none" stroke="#000000" stroke-linecap="round" stroke-linejoin="round" stroke-width="1.0"/>
    <path d="M5.6 14.3 L5.6 14.25 7.4 14.25 8.75 15.45 7.65 16.3 7.55 16.95 7.0 17.55 5.65 19.75 4.05 18.95 4.45 17.8 5.5 17.25 5.75 16.8 5.3 15.9 5.6 14.3" fill="#212121" fill-rule="evenodd" stroke="none"/>
    <path d="M5.6 14.3 L5.3 15.9 5.75 16.8 5.5 17.25 4.45 17.8 4.05 18.95 0.15 16.05 1.45 14.65 1.65 14.25 1.9 12.6 4.85 14.3 5.6 14.3" fill="#111111" fill-rule="evenodd" stroke="none"/>
    <path d="M1.45 14.65 L1.45 14.6 1.65 14.25 1.45 14.65" fill="#232423" fill-rule="evenodd" stroke="none"/>
    <path d="M1.1 14.6 L3.0 15.45 4.5 14.3 1.6 12.6 1.3 14.2 1.1 14.6 1.1 14.55 1.3 14.2 M1.1 14.6 L-0.2 15.95 3.75 18.9" fill="none" stroke="#000000" stroke-linecap="round" stroke-linejoin="round" stroke-width="1.0"/>
    <path d="M5.15 14.45 L4.75 16.1 5.2 17.0 5.0 17.35 3.95 17.9 3.55 19.05 5.15 19.85 6.5 17.7 7.1 17.1 7.1 16.45 8.25 15.6 6.9 14.35 5.15 14.45 4.35 14.45" fill="none" stroke="#000000" stroke-linecap="round" stroke-linejoin="round" stroke-width="1.0"/>
    <path d="M7.3 16.75 L7.0 16.6 5.9 15.65" ffdec:has-small-stroke="true" ffdec:original-stroke-width="0.7" fill="none" stroke="#333333" stroke-linecap="round" stroke-linejoin="round" stroke-width="1.0"/>
    <path d="M6.45 18.3 Q6.25 18.3 6.15 18.15 L5.05 17.2" ffdec:has-small-stroke="true" ffdec:original-stroke-width="0.7" fill="none" stroke="#333333" stroke-linecap="round" stroke-linejoin="round" stroke-width="1.0"/>
  </g>
</svg>
