<?xml version="1.0" encoding="UTF-8" standalone="no"?>
<svg xmlns:ffdec="https://www.free-decompiler.com/flash" xmlns:xlink="http://www.w3.org/1999/xlink" ffdec:objectType="shape" height="10.0px" width="18.1px" xmlns="http://www.w3.org/2000/svg">
  <g transform="matrix(1.0, 0.0, 0.0, 1.0, 9.05, 5.0)">
    <path d="M7.05 -0.4 Q6.75 1.15 -2.1 3.2 -10.95 5.2 -6.6 2.1 -2.25 -1.0 -1.25 -2.1 -0.25 -3.25 4.2 -3.8 8.6 -4.4 7.95 -3.15 7.3 -1.95 7.05 -0.4" fill="#3c0000" fill-rule="evenodd" stroke="none"/>
    <path d="M7.05 -0.4 Q6.75 1.15 -2.1 3.2 -10.95 5.2 -6.6 2.1 -2.25 -1.0 -1.25 -2.1 -0.25 -3.25 4.2 -3.8 8.6 -4.4 7.95 -3.15 7.3 -1.95 7.05 -0.4 Z" fill="none" stroke="#000000" stroke-linecap="round" stroke-linejoin="round" stroke-width="2.0"/>
  </g>
</svg>
