<?xml version="1.0" encoding="UTF-8" standalone="no"?>
<svg xmlns:xlink="http://www.w3.org/1999/xlink" height="60.8px" width="118.0px" xmlns="http://www.w3.org/2000/svg">
  <g transform="matrix(1.0, 0.0, 0.0, 1.0, 69.1, 34.8)">
    <path d="M44.1 24.15 Q42.3 26.0 39.7 26.0 37.15 26.0 35.3 24.15 33.5 22.35 33.5 19.75 L33.7 18.15 30.85 16.8 Q27.9 13.0 33.3 12.8 L36.25 14.65 Q37.75 13.6 39.7 13.6 42.3 13.6 44.1 15.4 45.9 17.2 45.9 19.8 45.9 22.35 44.1 24.15 M-36.4 14.45 L-32.3 10.9 Q-25.95 9.7 -29.5 14.3 L-33.75 17.5 Q-33.35 18.55 -33.35 19.8 -33.35 22.35 -35.15 24.15 -36.95 26.0 -39.55 26.0 -42.1 26.0 -43.95 24.15 -45.75 22.35 -45.75 19.75 -45.75 17.2 -43.95 15.4 -42.1 13.6 -39.55 13.6 -37.8 13.6 -36.4 14.45" fill="#000000" fill-rule="evenodd" stroke="none"/>
    <path d="M1.6 -4.25 L6.15 -5.2 8.55 -5.7 6.15 -5.2 11.25 -3.85 6.15 -5.2 1.6 -4.25 M-31.3 -16.8 Q-7.65 -14.1 3.2 -15.05 10.0 -11.75 15.3 -2.85 L14.5 -2.85 Q-4.1 -2.3 -22.7 -7.25 -25.1 -8.35 -26.8 -9.9 -30.25 -12.6 -31.3 -16.8" fill="url(#gradient0)" fill-rule="evenodd" stroke="none"/>
    <path d="M14.75 18.85 Q18.05 15.1 22.0 7.2 25.05 0.85 30.95 -0.85 L34.6 -4.5 Q42.85 2.95 48.4 14.05 L39.85 12.75 Q30.35 13.4 30.35 20.9 24.65 24.05 14.75 18.85" fill="url(#gradient1)" fill-rule="evenodd" stroke="none"/>
    <path d="M-47.75 -7.85 L-47.05 -9.1 -46.9 -9.45 Q-46.1 -11.45 -46.3 -13.75 -41.75 -15.85 -41.7 -19.45 L-36.75 -19.75 Q-31.45 -17.3 -33.7 -3.05 -37.6 -5.8 -41.45 -6.95 L-44.1 -7.6 -47.05 -7.85 -47.75 -7.85 M-40.7 -15.6 L-41.8 -13.65 -42.95 -11.75 -41.8 -13.65 -40.7 -15.6 M-41.8 -13.65 L-39.5 -12.65 -41.8 -13.65" fill="url(#gradient2)" fill-rule="evenodd" stroke="none"/>
    <path d="M-41.7 -19.45 Q-41.75 -15.85 -46.3 -13.75 -46.1 -11.45 -46.9 -9.45 L-47.05 -9.1 -47.75 -7.85 -49.35 -9.45 Q-65.9 -25.7 -68.6 -34.3 -59.65 -25.2 -41.7 -19.45" fill="url(#gradient3)" fill-rule="evenodd" stroke="none"/>
    <path d="M-49.35 -9.45 L-47.75 -7.85 -47.05 -5.5 -46.6 -3.15 -47.05 -3.15 -47.05 -5.5 -47.05 -3.15 -49.75 -3.15 -52.6 -3.15 -55.3 -3.15 -55.3 -9.45 -55.3 -3.15 -58.15 -3.15 -58.15 -9.45 -55.3 -9.45 -52.6 -9.45 -49.75 -9.45 -49.35 -9.45 M-52.6 -9.45 L-52.6 -3.15 -52.6 -9.45 M-49.75 -9.45 L-49.75 -3.15 -49.75 -9.45" fill="url(#gradient4)" fill-rule="evenodd" stroke="none"/>
    <path d="M-46.35 -1.3 Q-46.1 1.6 -46.2 5.0 L-47.75 5.0 -50.6 5.0 -53.3 5.0 -56.15 5.0 -56.15 -1.3 -53.3 -1.3 -53.3 5.0 -53.3 -1.3 -50.6 -1.3 -47.75 -1.3 -46.35 -1.3 M-50.6 -1.3 L-50.6 5.0 -50.6 -1.3 M-47.75 5.0 L-47.75 -1.3 -47.75 5.0" fill="url(#gradient5)" fill-rule="evenodd" stroke="none"/>
    <path d="M-31.7 -20.1 Q-31.7 -18.35 -31.3 -16.8 -30.25 -12.6 -26.8 -9.9 -25.1 -8.35 -22.7 -7.25 -18.05 3.75 -1.9 7.1 2.8 17.1 -2.85 18.85 -15.65 23.7 -27.6 19.15 -29.75 10.7 -36.2 10.9 L-37.45 10.9 -40.1 10.9 -43.05 10.9 -45.75 10.9 -46.7 10.9 -46.3 7.15 -46.2 5.0 Q-46.1 1.6 -46.35 -1.3 L-46.6 -3.15 -47.05 -5.5 -47.75 -7.85 -47.05 -7.85 -44.1 -7.6 -41.45 -6.95 Q-37.6 -5.8 -33.7 -3.05 -31.45 -17.3 -36.75 -19.75 L-31.7 -20.1 M-13.85 17.4 L-13.85 14.55 -13.85 17.4 M-15.95 18.5 L-15.95 14.9 -15.95 18.5 M-17.95 19.25 L-17.95 15.3 -17.95 19.25 M-24.95 4.05 Q-24.05 4.05 -23.4 3.4 -22.75 2.75 -22.75 1.85 -22.75 0.95 -23.4 0.3 -24.05 -0.35 -24.95 -0.35 -25.85 -0.35 -26.5 0.3 -27.15 0.95 -27.15 1.85 -27.15 2.75 -26.5 3.4 -25.85 4.05 -24.95 4.05" fill="url(#gradient6)" fill-rule="evenodd" stroke="none"/>
    <path d="M-24.95 4.05 Q-25.85 4.05 -26.5 3.4 -27.15 2.75 -27.15 1.85 -27.15 0.95 -26.5 0.3 -25.85 -0.35 -24.95 -0.35 -24.05 -0.35 -23.4 0.3 -22.75 0.95 -22.75 1.85 -22.75 2.75 -23.4 3.4 -24.05 4.05 -24.95 4.05" fill="url(#gradient7)" fill-rule="evenodd" stroke="none"/>
    <path d="M-46.3 7.15 L-46.7 10.9 -45.75 10.9 -43.05 10.9 -40.1 10.9 -37.45 10.9 -40.1 12.2 -40.1 10.9 -40.1 12.2 -43.05 13.2 -45.75 13.45 -48.6 13.45 -48.6 7.15 -48.6 13.45 -51.3 13.45 -54.15 13.45 -54.15 7.15 -51.3 7.15 -48.6 7.15 -46.3 7.15 M-45.75 10.9 L-45.75 13.45 -45.75 10.9 M-51.3 13.45 L-51.3 7.15 -51.3 13.45 M-43.05 10.9 L-43.05 13.2 -43.05 10.9" fill="url(#gradient8)" fill-rule="evenodd" stroke="none"/>
    <path d="M3.2 -15.05 L6.9 -15.55 Q15.3 -11.0 24.2 -2.7 L15.3 -2.85 Q10.0 -11.75 3.2 -15.05" fill="url(#gradient9)" fill-rule="evenodd" stroke="none"/>
    <path d="M15.3 -2.85 L24.2 -2.7 30.95 -0.85 Q25.05 0.85 22.0 7.2 18.05 15.1 14.75 18.85 L-2.85 18.85 Q2.8 17.1 -1.9 7.1 -18.05 3.75 -22.7 -7.25 -4.1 -2.3 14.5 -2.85 L15.3 -2.85 M19.8 1.7 L21.9 -0.65 19.8 1.7 M22.0 1.95 L23.25 0.45 22.0 1.95 M4.0 2.95 L-3.9 2.95 -5.55 0.85 -3.9 2.95 4.0 2.95" fill="url(#gradient10)" fill-rule="evenodd" stroke="none"/>
    <path d="M6.9 -15.55 L3.2 -15.05 Q-7.65 -14.1 -31.3 -16.8 -31.7 -18.35 -31.7 -20.1 L-26.8 -20.1 Q-12.2 -20.1 6.9 -15.55" fill="url(#gradient11)" fill-rule="evenodd" stroke="none"/>
    <path d="M8.55 -5.7 L6.15 -5.2 11.25 -3.85 M6.15 -5.2 L1.6 -4.25 M6.9 -15.55 Q-12.2 -20.1 -26.8 -20.1 L-31.7 -20.1 M-31.3 -16.8 Q-7.65 -14.1 3.2 -15.05 M15.3 -2.85 L14.5 -2.85 Q-4.1 -2.3 -22.7 -7.25 M-2.85 18.85 L14.75 18.85 M30.95 -0.85 L24.2 -2.7 M23.25 0.45 L22.0 1.95 M21.9 -0.65 L19.8 1.7 M-41.7 -19.45 Q-41.75 -15.85 -46.3 -13.75 -46.1 -11.45 -46.9 -9.45 L-47.05 -9.1 -47.75 -7.85 -49.35 -9.45 Q-65.9 -25.7 -68.6 -34.3 -59.65 -25.2 -41.7 -19.45 L-36.75 -19.75 M-42.95 -11.75 L-41.8 -13.65 -40.7 -15.6 M-55.3 -3.15 L-52.6 -3.15 -52.6 -9.45 -55.3 -9.45 -55.3 -3.15 -58.15 -3.15 -58.15 -9.45 -55.3 -9.45 M-53.3 -1.3 L-56.15 -1.3 -56.15 5.0 -53.3 5.0 -53.3 -1.3 -50.6 -1.3 -47.75 -1.3 -46.35 -1.3 M-52.6 -9.45 L-49.75 -9.45 -49.35 -9.45 M-47.05 -3.15 L-46.6 -3.15 M-47.05 -5.5 L-47.05 -3.15 -49.75 -3.15 -52.6 -3.15 M-49.75 -3.15 L-49.75 -9.45 M-39.5 -12.65 L-41.8 -13.65 M-5.55 0.85 L-3.9 2.95 4.0 2.95 M-40.1 10.9 L-40.1 12.2 -37.45 10.9 M-46.3 7.15 L-48.6 7.15 -48.6 13.45 -45.75 13.45 -45.75 10.9 M-46.2 5.0 L-47.75 5.0 -50.6 5.0 -53.3 5.0 M-48.6 13.45 L-51.3 13.45 -54.15 13.45 -54.15 7.15 -51.3 7.15 -48.6 7.15 M-45.75 13.45 L-43.05 13.2 -43.05 10.9 M-51.3 7.15 L-51.3 13.45 M-43.05 13.2 L-40.1 12.2 M-47.75 -1.3 L-47.75 5.0 M-50.6 5.0 L-50.6 -1.3" fill="none" stroke="#191919" stroke-linecap="round" stroke-linejoin="round" stroke-width="1.0"/>
    <path d="M3.2 -15.05 L6.9 -15.55 Q15.3 -11.0 24.2 -2.7 L15.3 -2.85 Q10.0 -11.75 3.2 -15.05 M-31.7 -20.1 Q-31.7 -18.35 -31.3 -16.8 -30.25 -12.6 -26.8 -9.9 -25.1 -8.35 -22.7 -7.25 -18.05 3.75 -1.9 7.1 2.8 17.1 -2.85 18.85 -15.65 23.7 -27.6 19.15 -29.75 10.7 -36.2 10.9 L-37.45 10.9 -40.1 10.9 -43.05 10.9 -45.75 10.9 -46.7 10.9 -46.3 7.15 -46.2 5.0 Q-46.1 1.6 -46.35 -1.3 L-46.6 -3.15 -47.05 -5.5 -47.75 -7.85 -47.05 -7.85 -44.1 -7.6 -41.45 -6.95 Q-37.6 -5.8 -33.7 -3.05 -31.45 -17.3 -36.75 -19.75 L-31.7 -20.1 M14.75 18.85 Q18.05 15.1 22.0 7.2 25.05 0.85 30.95 -0.85 L34.6 -4.5 Q42.85 2.95 48.4 14.05 L39.85 12.75 Q30.35 13.4 30.35 20.9 24.65 24.05 14.75 18.85 M-17.95 15.3 L-17.95 19.25 M-15.95 14.9 L-15.95 18.5 M-13.85 14.55 L-13.85 17.4 M-24.95 4.05 Q-25.85 4.05 -26.5 3.4 -27.15 2.75 -27.15 1.85 -27.15 0.95 -26.5 0.3 -25.85 -0.35 -24.95 -0.35 -24.05 -0.35 -23.4 0.3 -22.75 0.95 -22.75 1.85 -22.75 2.75 -23.4 3.4 -24.05 4.05 -24.95 4.05 Z" fill="none" stroke="#313131" stroke-linecap="round" stroke-linejoin="round" stroke-width="1.0"/>
  </g>
  <defs>
    <radialGradient cx="0" cy="0" gradientTransform="matrix(0.0057, -0.0215, 0.0482, 0.0128, -1.5, -0.4)" gradientUnits="userSpaceOnUse" id="gradient0" r="819.2" spreadMethod="pad">
      <stop offset="0.0" stop-color="#ffffff"/>
      <stop offset="0.7725490196078432" stop-color="#bfd9d3"/>
      <stop offset="1.0" stop-color="#fef5b4"/>
    </radialGradient>
    <radialGradient cx="0" cy="0" gradientTransform="matrix(0.0227, -0.0227, 0.0352, 0.0352, 13.45, -11.5)" gradientUnits="userSpaceOnUse" id="gradient1" r="819.2" spreadMethod="pad">
      <stop offset="0.5019607843137255" stop-color="#ffffff"/>
      <stop offset="1.0" stop-color="#808080"/>
    </radialGradient>
    <radialGradient cx="0" cy="0" gradientTransform="matrix(0.0175, -0.0175, 0.0208, 0.0208, -30.6, -2.3)" gradientUnits="userSpaceOnUse" id="gradient2" r="819.2" spreadMethod="pad">
      <stop offset="0.0" stop-color="#7b7b7b"/>
      <stop offset="0.6313725490196078" stop-color="#393939"/>
      <stop offset="1.0" stop-color="#5e5e5e"/>
    </radialGradient>
    <radialGradient cx="0" cy="0" fx="-761.6" fy="0" gradientTransform="matrix(0.0186, -0.0221, 0.0525, 0.0441, -49.6, -30.3)" gradientUnits="userSpaceOnUse" id="gradient3" r="819.2" spreadMethod="pad">
      <stop offset="0.0" stop-color="#565656"/>
      <stop offset="1.0" stop-color="#000000"/>
    </radialGradient>
    <linearGradient gradientTransform="matrix(0.0, 0.0036, -0.0102, 0.0, -49.8, -6.25)" gradientUnits="userSpaceOnUse" id="gradient4" spreadMethod="pad" x1="-819.2" x2="819.2">
      <stop offset="0.0" stop-color="#9d9d9d"/>
      <stop offset="0.33725490196078434" stop-color="#555555"/>
      <stop offset="1.0" stop-color="#777777"/>
    </linearGradient>
    <linearGradient gradientTransform="matrix(0.0, 0.0036, -0.0102, 0.0, -47.8, 1.9)" gradientUnits="userSpaceOnUse" id="gradient5" spreadMethod="pad" x1="-819.2" x2="819.2">
      <stop offset="0.0" stop-color="#9d9d9d"/>
      <stop offset="0.33725490196078434" stop-color="#555555"/>
      <stop offset="1.0" stop-color="#777777"/>
    </linearGradient>
    <radialGradient cx="0" cy="0" gradientTransform="matrix(0.0535, 0.0, 0.0, 0.0534, -12.6, -19.15)" gradientUnits="userSpaceOnUse" id="gradient6" r="819.2" spreadMethod="pad">
      <stop offset="0.5215686274509804" stop-color="#ffffff"/>
      <stop offset="0.8313725490196079" stop-color="#8a8a8a"/>
      <stop offset="1.0" stop-color="#777777"/>
    </radialGradient>
    <radialGradient cx="0" cy="0" gradientTransform="matrix(0.0535, 0.0, 0.0, 0.0534, -12.6, -19.15)" gradientUnits="userSpaceOnUse" id="gradient7" r="819.2" spreadMethod="pad">
      <stop offset="0.0" stop-color="#ffffff"/>
      <stop offset="1.0" stop-color="#000000"/>
    </radialGradient>
    <linearGradient gradientTransform="matrix(0.0, 0.0036, -0.0102, 0.0, -45.8, 10.35)" gradientUnits="userSpaceOnUse" id="gradient8" spreadMethod="pad" x1="-819.2" x2="819.2">
      <stop offset="0.0" stop-color="#9d9d9d"/>
      <stop offset="0.33725490196078434" stop-color="#555555"/>
      <stop offset="1.0" stop-color="#777777"/>
    </linearGradient>
    <radialGradient cx="0" cy="0" gradientTransform="matrix(0.0116, -0.0143, 0.0209, 0.017, 3.15, -3.0)" gradientUnits="userSpaceOnUse" id="gradient9" r="819.2" spreadMethod="pad">
      <stop offset="0.0" stop-color="#eeeeee"/>
      <stop offset="1.0" stop-color="#797979"/>
    </radialGradient>
    <radialGradient cx="0" cy="0" gradientTransform="matrix(0.0, 0.0369, -0.0697, 0.0, 5.45, -5.05)" gradientUnits="userSpaceOnUse" id="gradient10" r="819.2" spreadMethod="pad">
      <stop offset="0.0" stop-color="#6a6a6a"/>
      <stop offset="1.0" stop-color="#202020"/>
    </radialGradient>
    <radialGradient cx="0" cy="0" gradientTransform="matrix(-0.001, 0.0101, -0.0417, -0.0042, -18.6, -19.3)" gradientUnits="userSpaceOnUse" id="gradient11" r="819.2" spreadMethod="pad">
      <stop offset="0.0" stop-color="#5e5e5e"/>
      <stop offset="1.0" stop-color="#4a4a4a"/>
    </radialGradient>
  </defs>
</svg>
