<?xml version="1.0" encoding="UTF-8" standalone="no"?>
<svg xmlns:xlink="http://www.w3.org/1999/xlink" height="24.7px" width="15.5px" xmlns="http://www.w3.org/2000/svg">
  <g transform="matrix(1.0, 0.0, 0.0, 1.0, 0.5, 12.35)">
    <path d="M1.6 -7.25 Q3.15 -8.9 5.25 -8.9 7.45 -8.9 9.0 -7.25 10.5 -5.6 10.5 -3.3 L10.5 3.45 Q10.5 5.8 9.0 7.45 7.45 9.05 5.25 9.05 3.15 9.05 1.6 7.45 0.0 5.8 0.0 3.45 L0.0 -3.3 Q0.0 -5.6 1.6 -7.25" fill="#ffffff" fill-rule="evenodd" stroke="none"/>
    <path d="M1.6 -7.25 Q3.15 -8.9 5.25 -8.9 7.45 -8.9 9.0 -7.25 10.5 -5.6 10.5 -3.3 L10.5 3.45 Q10.5 5.8 9.0 7.45 7.45 9.05 5.25 9.05 3.15 9.05 1.6 7.45 0.0 5.8 0.0 3.45 L0.0 -3.3 Q0.0 -5.6 1.6 -7.25 Z" fill="none" stroke="#fffed4" stroke-linecap="round" stroke-linejoin="round" stroke-width="1.0"/>
    <path d="M1.85 -11.85 L6.7 -11.45 Q9.5 -11.15 11.7 -9.3 13.9 -7.5 14.25 -4.3 14.75 0.4 14.3 4.45 13.9 7.5 11.65 9.4 9.4 11.25 6.65 11.55 L1.85 11.85 1.85 -11.85" fill="url(#gradient0)" fill-rule="evenodd" stroke="none"/>
    <path d="M1.85 -11.85 L6.7 -11.45 Q9.5 -11.15 11.7 -9.3 13.9 -7.5 14.25 -4.3 14.75 0.4 14.3 4.45 13.9 7.5 11.65 9.4 9.4 11.25 6.65 11.55 L1.85 11.85" fill="none" stroke="#4a4a4a" stroke-linecap="round" stroke-linejoin="round" stroke-opacity="0.3019608" stroke-width="1.0"/>
  </g>
  <defs>
    <radialGradient cx="0" cy="0" gradientTransform="matrix(0.0126, 0.0, 0.0, 0.0175, 6.45, 0.0)" gradientUnits="userSpaceOnUse" id="gradient0" r="819.2" spreadMethod="pad">
      <stop offset="0.0" stop-color="#ffffff" stop-opacity="0.5019608"/>
      <stop offset="1.0" stop-color="#ffffff" stop-opacity="0.2"/>
    </radialGradient>
  </defs>
</svg>
