<?xml version="1.0" encoding="UTF-8" standalone="no"?>
<svg xmlns:ffdec="https://www.free-decompiler.com/flash" xmlns:xlink="http://www.w3.org/1999/xlink" ffdec:objectType="shape" height="10.8px" width="10.95px" xmlns="http://www.w3.org/2000/svg">
  <g transform="matrix(1.0, 0.0, 0.0, 1.0, 4.95, 5.6)">
    <path d="M5.25 -4.25 L5.5 -1.8 5.5 -1.7 Q5.6 -0.05 5.2 1.2 L4.7 2.75 Q4.4 3.65 3.35 4.25 2.25 4.8 0.95 4.65 L0.9 4.65 0.5 4.55 Q-2.7 3.7 -3.3 2.65 -4.15 1.65 -4.4 -0.8 -4.55 -1.95 -4.1 -3.1 L-3.9 -3.7 -3.85 -4.0 Q-3.2 -4.95 -2.35 -4.95 2.05 -5.45 5.25 -4.25" fill="#2f313a" fill-rule="evenodd" stroke="none"/>
    <path d="M5.25 -4.25 L5.5 -1.8 5.5 -1.7 Q5.6 -0.05 5.2 1.2 L4.7 2.75 Q4.4 3.65 3.35 4.25 2.25 4.8 0.95 4.65 L0.9 4.65 0.5 4.55 Q-2.7 3.7 -3.3 2.65 -4.15 1.65 -4.4 -0.8 -4.55 -1.95 -4.1 -3.1 L-3.9 -3.7 -3.85 -4.0 Q-3.2 -4.95 -2.35 -4.95 2.05 -5.45 5.25 -4.25 Z" fill="none" stroke="#111216" stroke-linecap="round" stroke-linejoin="round" stroke-width="1.0"/>
  </g>
</svg>
