<?xml version="1.0" encoding="UTF-8" standalone="no"?>
<svg xmlns:ffdec="https://www.free-decompiler.com/flash" xmlns:xlink="http://www.w3.org/1999/xlink" ffdec:objectType="shape" height="12.3px" width="17.3px" xmlns="http://www.w3.org/2000/svg">
  <g transform="matrix(1.0, 0.0, 0.0, 1.0, 11.3, 6.4)">
    <path d="M-7.65 -0.05 L-8.85 0.25 -10.75 -2.6 -10.65 -3.65 -10.05 -4.4 -4.35 -5.9 3.15 -4.95 5.5 -2.4 Q3.85 1.2 4.15 3.45 L0.85 5.4 -2.55 5.0 -2.65 4.1 -2.8 2.85 -6.45 -0.3 -7.65 -0.05" fill="#323232" fill-rule="evenodd" stroke="none"/>
    <path d="M-2.65 4.1 L-6.5 3.1 -7.65 -0.05 -6.45 -0.3 -2.8 2.85 -2.65 4.1" fill="#000000" fill-rule="evenodd" stroke="none"/>
    <path d="M-7.65 -0.05 L-8.85 0.25 -10.75 -2.6 -10.65 -3.65 -10.05 -4.4 -4.35 -5.9 3.15 -4.95 5.5 -2.4 Q3.85 1.2 4.15 3.45 L0.85 5.4 -2.55 5.0 -2.65 4.1 -2.8 2.85 -6.45 -0.3 -7.65 -0.05" fill="none" stroke="#1f1f1f" stroke-linecap="round" stroke-linejoin="round" stroke-width="1.0"/>
    <path d="M-2.65 4.1 L-6.5 3.1 -7.65 -0.05" fill="none" stroke="#000000" stroke-linecap="round" stroke-linejoin="round" stroke-width="1.1"/>
  </g>
</svg>
