<?xml version="1.0" encoding="UTF-8" standalone="no"?>
<svg xmlns:ffdec="https://www.free-decompiler.com/flash" xmlns:xlink="http://www.w3.org/1999/xlink" ffdec:objectType="shape" height="10.85px" width="11.95px" xmlns="http://www.w3.org/2000/svg">
  <g transform="matrix(1.0, 0.0, 0.0, 1.0, 5.6, 6.85)">
    <path d="M2.9 2.45 Q0.85 4.25 -1.85 3.0 -5.05 1.45 -5.1 -2.55 -5.2 -5.25 -2.95 -6.05 -1.25 -6.7 2.75 -6.0 5.15 -5.35 5.4 -3.55 L5.45 -2.8 4.25 -3.6 Q2.4 -4.4 1.55 -3.4 0.65 -2.4 1.25 0.7 1.65 3.05 2.9 2.45" fill="#191919" fill-rule="evenodd" stroke="none"/>
    <path d="M5.45 -2.8 Q5.95 -2.25 5.85 -1.45 5.65 -0.15 3.7 1.8 L2.9 2.45 Q1.65 3.05 1.25 0.7 0.65 -2.4 1.55 -3.4 2.4 -4.4 4.25 -3.6 L5.45 -2.8" fill="#6fe8c0" fill-rule="evenodd" stroke="none"/>
    <path d="M2.9 2.45 Q0.85 4.25 -1.85 3.0 -5.05 1.45 -5.1 -2.55 -5.2 -5.25 -2.95 -6.05 -1.25 -6.7 2.75 -6.0 5.15 -5.35 5.4 -3.55 L5.45 -2.8" fill="none" stroke="#0f0f0f" stroke-linecap="round" stroke-linejoin="round" stroke-width="1.0"/>
    <path d="M5.45 -2.8 Q5.95 -2.25 5.85 -1.45 5.65 -0.15 3.7 1.8 L2.9 2.45 Q1.65 3.05 1.25 0.7 0.65 -2.4 1.55 -3.4 2.4 -4.4 4.25 -3.6 L5.45 -2.8 Z" fill="none" stroke="#022e33" stroke-linecap="round" stroke-linejoin="round" stroke-width="1.0"/>
  </g>
</svg>
