<?xml version="1.0" encoding="UTF-8" standalone="no"?>
<svg xmlns:ffdec="https://www.free-decompiler.com/flash" xmlns:xlink="http://www.w3.org/1999/xlink" ffdec:objectType="shape" height="12.85px" width="12.8px" xmlns="http://www.w3.org/2000/svg">
  <g transform="matrix(1.0, 0.0, 0.0, 1.0, 6.65, 8.05)">
    <path d="M5.55 -3.05 Q5.75 -1.55 5.5 0.0 5.2 1.5 3.45 3.05 1.7 4.55 -0.55 4.25 -2.85 3.95 -4.3 2.45 -5.8 0.9 -6.0 -0.6 L-6.15 -2.8 Q-5.8 -6.55 -2.5 -7.3 0.75 -8.1 3.05 -6.35 5.35 -4.6 5.55 -3.05" fill="#1a1a1a" fill-rule="evenodd" stroke="none"/>
    <path d="M5.55 -3.05 Q5.35 -4.6 3.05 -6.35 0.75 -8.1 -2.5 -7.3 -5.8 -6.55 -6.15 -2.8 L-6.0 -0.6 Q-5.8 0.9 -4.3 2.45 -2.85 3.95 -0.55 4.25 1.7 4.55 3.45 3.05 5.2 1.5 5.5 0.0 5.75 -1.55 5.55 -3.05 Z" fill="none" stroke="#000000" stroke-linecap="round" stroke-linejoin="round" stroke-width="1.0"/>
  </g>
</svg>
