<?xml version="1.0" encoding="UTF-8" standalone="no"?>
<svg xmlns:ffdec="https://www.free-decompiler.com/flash" xmlns:xlink="http://www.w3.org/1999/xlink" ffdec:objectType="shape" height="30.8px" width="64.2px" xmlns="http://www.w3.org/2000/svg">
  <g transform="matrix(1.0, 0.0, 0.0, 1.0, 25.0, 15.4)">
    <path d="M39.2 -0.6 L39.2 1.25 5.7 1.25 Q4.2 0.35 5.7 -0.6 L39.2 -0.6" fill="url(#gradient0)" fill-rule="evenodd" stroke="none"/>
    <path d="M1.55 -0.5 Q2.2 0.35 1.55 1.2 L-0.65 0.3 1.55 -0.5" fill="#353638" fill-rule="evenodd" stroke="none"/>
    <path d="M1.55 -0.5 L-0.65 0.3 1.55 1.2 Q2.2 0.35 1.55 -0.5 Z" fill="none" stroke="#191718" stroke-linecap="round" stroke-linejoin="round" stroke-width="1.0"/>
    <path d="M3.65 -2.2 L4.35 -2.25 Q1.55 0.05 4.4 2.85 -1.5 2.65 -2.95 0.3 -1.6 -1.9 3.65 -2.2" fill="#11e8ff" fill-opacity="0.7529412" fill-rule="evenodd" stroke="none"/>
    <path d="M3.65 -2.2 Q-1.6 -1.9 -2.95 0.3 -1.5 2.65 4.4 2.85 1.55 0.05 4.35 -2.25 L3.65 -2.2 Z" fill="none" stroke="#11e8ff" stroke-linecap="round" stroke-linejoin="round" stroke-opacity="0.7529412" stroke-width="1.0"/>
    <path d="M25.0 15.4 L-25.0 15.4 -25.0 -15.4 25.0 -15.4 25.0 15.4" fill="url(#gradient1)" fill-rule="evenodd" stroke="none"/>
  </g>
  <defs>
    <linearGradient gradientTransform="matrix(0.0204, 0.0, 0.0, 0.0011, 22.45, 0.3)" gradientUnits="userSpaceOnUse" id="gradient0" spreadMethod="pad" x1="-819.2" x2="819.2">
      <stop offset="0.0" stop-color="#65e7f8" stop-opacity="0.5019608"/>
      <stop offset="1.0" stop-color="#65e7f8" stop-opacity="0.0"/>
    </linearGradient>
    <radialGradient cx="0" cy="0" gradientTransform="matrix(0.0, 0.0173, -0.0301, 0.0, 0.0, 0.0)" gradientUnits="userSpaceOnUse" id="gradient1" r="819.2" spreadMethod="pad">
      <stop offset="0.0" stop-color="#5deafb" stop-opacity="0.4"/>
      <stop offset="0.32941176470588235" stop-color="#5deafb" stop-opacity="0.2"/>
      <stop offset="1.0" stop-color="#5deafb" stop-opacity="0.0"/>
    </radialGradient>
  </defs>
</svg>
