<?xml version="1.0" encoding="UTF-8" standalone="no"?>
<svg xmlns:xlink="http://www.w3.org/1999/xlink" height="5.25px" width="5.25px" xmlns="http://www.w3.org/2000/svg">
  <g transform="matrix(1.0, 0.0, 0.0, 1.0, 3.15, 3.05)">
    <path d="M2.05 -0.85 L2.1 -0.65 2.1 -0.45 2.05 -0.1 Q1.95 0.75 1.3 1.45 L1.2 1.55 Q0.45 2.2 -0.45 2.2 L-0.85 2.15 Q-1.7 2.05 -2.35 1.5 L-2.5 1.35 -2.55 1.2 Q-3.2 0.45 -3.15 -0.45 L-3.15 -0.6 Q-3.1 -1.55 -2.5 -2.2 -1.3 -3.0 -0.6 -3.05 L-0.2 -3.05 0.7 -2.75 1.3 -2.25 1.6 -1.9 2.05 -0.85" fill="#2666c5" fill-opacity="0.0" fill-rule="evenodd" stroke="none"/>
  </g>
</svg>
