<?xml version="1.0" encoding="UTF-8" standalone="no"?>
<svg xmlns:ffdec="https://www.free-decompiler.com/flash" xmlns:xlink="http://www.w3.org/1999/xlink" ffdec:objectType="shape" height="45.8px" width="91.6px" xmlns="http://www.w3.org/2000/svg">
  <g transform="matrix(1.0, 0.0, 0.0, 1.0, 45.8, 22.95)">
    <path d="M30.0 5.0 L-23.0 5.0 -23.0 -5.0 30.0 -5.0 30.0 5.0" fill="url(#gradient0)" fill-rule="evenodd" stroke="none"/>
    <path d="M30.0 -5.0 Q32.05 -5.0 33.5 -3.55 35.0 -2.05 35.0 0.0 35.0 2.05 33.5 3.5 32.05 5.0 30.0 5.0 L30.0 -5.0" fill="url(#gradient1)" fill-rule="evenodd" stroke="none"/>
    <path d="M-23.0 5.0 Q-25.05 5.0 -26.5 3.5 -28.0 2.05 -28.0 0.0 -28.0 -2.05 -26.5 -3.55 -25.05 -5.0 -23.0 -5.0 L-23.0 5.0" fill="url(#gradient2)" fill-rule="evenodd" stroke="none"/>
    <path d="M32.4 -16.25 Q45.8 -9.55 45.8 -0.05 45.8 9.5 32.4 16.15 19.0 22.85 0.0 22.85 -19.0 22.85 -32.4 16.15 -45.8 9.5 -45.8 -0.05 -45.8 -9.55 -32.4 -16.25 -19.0 -22.95 0.0 -22.95 19.0 -22.95 32.4 -16.25" fill="url(#gradient3)" fill-rule="evenodd" stroke="none"/>
  </g>
  <defs>
    <linearGradient gradientTransform="matrix(0.0, 0.0058, -0.0085, 0.0, 3.5, 0.0)" gradientUnits="userSpaceOnUse" id="gradient0" spreadMethod="pad" x1="-819.2" x2="819.2">
      <stop offset="0.0" stop-color="#ff0000" stop-opacity="0.0"/>
      <stop offset="0.21568627450980393" stop-color="#ff0000" stop-opacity="0.43529412"/>
      <stop offset="0.43137254901960786" stop-color="#ffffff"/>
      <stop offset="0.5725490196078431" stop-color="#ffffff"/>
      <stop offset="0.7529411764705882" stop-color="#ff0000" stop-opacity="0.4862745"/>
      <stop offset="1.0" stop-color="#ff0000" stop-opacity="0.0"/>
    </linearGradient>
    <radialGradient cx="0" cy="0" gradientTransform="matrix(0.0057, 0.0, 0.0, 0.0057, 30.0, 0.0)" gradientUnits="userSpaceOnUse" id="gradient1" r="819.2" spreadMethod="pad">
      <stop offset="0.13333333333333333" stop-color="#ffffff"/>
      <stop offset="0.5333333333333333" stop-color="#ff0000" stop-opacity="0.46666667"/>
      <stop offset="1.0" stop-color="#ff0000" stop-opacity="0.0"/>
    </radialGradient>
    <radialGradient cx="0" cy="0" gradientTransform="matrix(0.0057, 0.0, 0.0, 0.0057, -23.0, 0.0)" gradientUnits="userSpaceOnUse" id="gradient2" r="819.2" spreadMethod="pad">
      <stop offset="0.13333333333333333" stop-color="#ffffff"/>
      <stop offset="0.5333333333333333" stop-color="#ff0000" stop-opacity="0.46666667"/>
      <stop offset="1.0" stop-color="#ff0000" stop-opacity="0.0"/>
    </radialGradient>
    <radialGradient cx="0" cy="0" gradientTransform="matrix(0.0546, 0.0, 0.0, 0.0273, 0.0, -0.05)" gradientUnits="userSpaceOnUse" id="gradient3" r="819.2" spreadMethod="pad">
      <stop offset="0.19215686274509805" stop-color="#fe0000" stop-opacity="0.2"/>
      <stop offset="1.0" stop-color="#fd0000" stop-opacity="0.0"/>
    </radialGradient>
  </defs>
</svg>
