<?xml version="1.0" encoding="UTF-8" standalone="no"?>
<svg xmlns:ffdec="https://www.free-decompiler.com/flash" xmlns:xlink="http://www.w3.org/1999/xlink" ffdec:objectType="shape" height="27.1px" width="20.05px" xmlns="http://www.w3.org/2000/svg">
  <g transform="matrix(1.0, 0.0, 0.0, 1.0, 9.8, 30.3)">
    <path d="M3.7 -8.85 Q4.2 -9.3 5.25 -9.15 L6.4 -8.85 3.7 -8.85" fill="#999999" fill-rule="evenodd" stroke="none"/>
    <path d="M2.45 -4.7 L2.4 -4.8 Q1.2 -7.05 1.65 -7.95 L1.8 -8.25 Q2.2 -8.75 3.0 -8.85 L3.7 -8.85 Q5.3 -8.7 5.5 -7.6 5.65 -6.6 4.65 -4.45 L4.55 -4.25 2.7 -4.3 2.45 -4.7 M-2.15 -9.05 L-2.1 -8.9 Q-1.95 -7.9 -2.95 -5.75 L-3.2 -5.3 Q-4.1 -4.1 -5.15 -6.0 L-5.4 -6.45 Q-6.35 -8.35 -5.95 -9.25 L-5.2 -10.0 -2.3 -9.35 -2.15 -9.05" fill="#181a1b" fill-rule="evenodd" stroke="none"/>
    <path d="M-5.4 -24.7 Q-5.4 -24.25 -5.8 -23.75 -6.2 -23.35 -6.75 -23.35 L-7.05 -23.35 -7.7 -23.75 Q-8.1 -24.25 -8.1 -24.7 -8.1 -25.25 -7.7 -25.65 -7.35 -26.05 -6.75 -26.05 L-6.55 -26.05 -5.8 -25.65 Q-5.4 -25.25 -5.4 -24.7 M-7.1 -19.45 Q-7.65 -19.45 -8.05 -19.85 -8.45 -20.35 -8.45 -20.8 -8.45 -21.35 -8.05 -21.75 -7.7 -22.15 -7.1 -22.15 -6.5 -22.15 -6.15 -21.75 -5.75 -21.35 -5.75 -20.8 -5.75 -20.35 -6.15 -19.85 -6.55 -19.45 -7.05 -19.45 L-7.1 -19.45" fill="#ca8aff" fill-rule="evenodd" stroke="none"/>
    <path d="M4.0 -16.9 L7.8 -15.95 7.55 -13.9 2.05 -14.85 0.85 -8.85 3.0 -8.85 Q2.2 -8.75 1.8 -8.25 L-2.15 -9.05 -2.3 -9.35 -1.35 -9.15 -0.2 -14.6 -6.05 -13.25 -6.55 -14.45 -3.9 -15.7 Q-4.4 -21.05 -3.05 -26.55 L-5.5 -27.7 Q-4.0 -28.65 -2.55 -29.65 L2.2 -29.8 6.15 -27.55 Q4.45 -26.8 3.5 -24.8 L4.0 -16.9" fill="#111111" fill-rule="evenodd" stroke="none"/>
    <path d="M0.85 -8.85 L2.05 -14.85 7.55 -13.9 6.4 -8.85 5.25 -9.15 Q4.2 -9.3 3.7 -8.85 L0.85 -8.85" fill="#202020" fill-rule="evenodd" stroke="none"/>
    <path d="M-1.35 -9.15 L-5.55 -10.1 -6.05 -13.25 -0.2 -14.6 -1.35 -9.15" fill="#1e1e1e" fill-rule="evenodd" stroke="none"/>
    <path d="M6.15 -27.55 L8.0 -28.0 Q10.3 -24.35 9.55 -15.55 L4.0 -16.9 3.5 -24.8 Q4.45 -26.8 6.15 -27.55" fill="url(#gradient0)" fill-rule="evenodd" stroke="none"/>
    <path d="M-5.4 -24.7 Q-5.4 -25.25 -5.8 -25.65 L-6.55 -26.05 -6.75 -26.05 Q-7.35 -26.05 -7.7 -25.65 -8.1 -25.25 -8.1 -24.7 -8.1 -24.25 -7.7 -23.75 L-7.05 -23.35 -6.75 -23.35 Q-6.2 -23.35 -5.8 -23.75 -5.4 -24.25 -5.4 -24.7 M-8.05 -21.75 Q-8.45 -21.35 -8.45 -20.8 -8.45 -20.35 -8.05 -19.85 -7.65 -19.45 -7.1 -19.45 L-7.05 -19.45 Q-6.55 -19.45 -6.15 -19.85 -5.75 -20.35 -5.75 -20.8 -5.75 -21.35 -6.15 -21.75 -6.5 -22.15 -7.1 -22.15 -7.7 -22.15 -8.05 -21.75 M-3.05 -26.55 Q-4.4 -21.05 -3.9 -15.7 L-8.45 -13.6 Q-10.55 -23.15 -7.6 -28.65 L-3.05 -26.55" fill="#1d1d1d" fill-rule="evenodd" stroke="none"/>
    <path d="M1.65 -7.95 Q1.2 -7.05 2.4 -4.8 L-0.55 -5.1 -3.0 -5.65 -2.95 -5.75 Q-1.95 -7.9 -2.1 -8.9 L-2.15 -9.05 1.8 -8.25 1.65 -7.95 M6.4 -8.85 L6.55 -8.75 7.1 -7.9 Q7.25 -6.9 6.25 -4.75 5.4 -3.25 4.55 -4.25 L4.65 -4.45 Q5.65 -6.6 5.5 -7.6 5.3 -8.7 3.7 -8.85 L6.4 -8.85 M-5.55 -10.1 L-5.2 -10.0 -5.95 -9.25 Q-6.35 -8.35 -5.4 -6.45 -6.3 -6.85 -6.65 -7.4 -7.55 -8.75 -7.1 -9.7 -6.85 -10.3 -5.65 -10.15 L-5.55 -10.1" fill="#0e0e0e" fill-rule="evenodd" stroke="none"/>
    <path d="M2.7 -4.3 L1.2 -3.8 Q-0.85 -3.4 -2.45 -4.65 L-3.2 -5.3 -3.0 -5.65 -0.55 -5.1 2.4 -4.8 2.45 -4.7 2.7 -4.3" fill="#0f0f0f" fill-rule="evenodd" stroke="none"/>
    <path d="M0.85 -8.85 L3.0 -8.85 3.7 -8.85 Q4.2 -9.3 5.25 -9.15 L6.4 -8.85 6.55 -8.75 7.1 -7.9 Q7.25 -6.9 6.25 -4.75 5.4 -3.25 4.55 -4.25 L2.7 -4.3 2.45 -4.7 2.4 -4.8 -0.55 -5.1 -3.0 -5.65 -3.2 -5.3 Q-4.1 -4.1 -5.15 -6.0 L-5.4 -6.45 Q-6.3 -6.85 -6.65 -7.4 -7.55 -8.75 -7.1 -9.7 -6.85 -10.3 -5.65 -10.15 L-5.55 -10.1 -5.6 -10.4 M3.0 -8.85 Q2.2 -8.75 1.8 -8.25 L1.65 -7.95 Q1.2 -7.05 2.4 -4.8 M6.4 -8.85 L3.7 -8.85 Q5.3 -8.7 5.5 -7.6 5.65 -6.6 4.65 -4.45 L4.55 -4.25 M-5.4 -6.45 Q-6.35 -8.35 -5.95 -9.25 L-5.2 -10.0 -5.55 -10.1 M-3.0 -5.65 L-2.95 -5.75 Q-1.95 -7.9 -2.1 -8.9 L-2.15 -9.05 -2.3 -9.35 -5.2 -10.0 M1.8 -8.25 L-2.15 -9.05 M-2.3 -9.35 L-1.35 -9.15" fill="none" stroke="#090909" stroke-linecap="round" stroke-linejoin="round" stroke-width="1.0"/>
    <path d="M-5.4 -24.7 Q-5.4 -24.25 -5.8 -23.75 -6.2 -23.35 -6.75 -23.35 L-7.05 -23.35 -7.7 -23.75 Q-8.1 -24.25 -8.1 -24.7 -8.1 -25.25 -7.7 -25.65 -7.35 -26.05 -6.75 -26.05 L-6.55 -26.05 -5.8 -25.65 Q-5.4 -25.25 -5.4 -24.7 M-7.1 -19.45 Q-7.65 -19.45 -8.05 -19.85 -8.45 -20.35 -8.45 -20.8 -8.45 -21.35 -8.05 -21.75 -7.7 -22.15 -7.1 -22.15 -6.5 -22.15 -6.15 -21.75 -5.75 -21.35 -5.75 -20.8 -5.75 -20.35 -6.15 -19.85 -6.55 -19.45 -7.05 -19.45 L-7.1 -19.45 Z" fill="none" stroke="#100e14" stroke-linecap="round" stroke-linejoin="round" stroke-width="1.0"/>
    <path d="M2.7 -4.3 L1.2 -3.8 Q-0.85 -3.4 -2.45 -4.65 L-3.2 -5.3 M7.8 -15.95 L7.55 -13.9 M-5.5 -27.7 Q-4.0 -28.65 -2.55 -29.65 L2.2 -29.8 6.15 -27.55 M-6.05 -13.25 L-6.55 -14.45 M-5.65 -10.15 L-5.6 -10.4" fill="none" stroke="#000000" stroke-linecap="round" stroke-linejoin="round" stroke-width="1.0"/>
    <path d="M6.15 -27.55 L8.0 -28.0 Q10.3 -24.35 9.55 -15.55 L4.0 -16.9 3.5 -24.8 Q4.45 -26.8 6.15 -27.55 M-5.6 -10.4 L-6.05 -13.25 -0.2 -14.6 -1.35 -9.15 M0.85 -8.85 L2.35 -16.6 7.55 -13.9 6.4 -8.85 M-3.05 -26.55 Q-4.4 -21.05 -3.9 -15.7 L-8.45 -13.6 Q-10.55 -23.15 -7.6 -28.65 L-3.05 -26.55 Z" fill="none" stroke="#040404" stroke-linecap="round" stroke-linejoin="round" stroke-width="1.0"/>
  </g>
  <defs>
    <linearGradient gradientTransform="matrix(0.0038, 1.0E-4, -1.0E-4, 0.0038, 5.35, -21.7)" gradientUnits="userSpaceOnUse" id="gradient0" spreadMethod="pad" x1="-819.2" x2="819.2">
      <stop offset="0.0" stop-color="#161616"/>
      <stop offset="1.0" stop-color="#292929"/>
    </linearGradient>
  </defs>
</svg>
