<?xml version="1.0" encoding="UTF-8" standalone="no"?>
<svg xmlns:ffdec="https://www.free-decompiler.com/flash" xmlns:xlink="http://www.w3.org/1999/xlink" ffdec:objectType="shape" height="12.05px" width="16.15px" xmlns="http://www.w3.org/2000/svg">
  <g transform="matrix(1.0, 0.0, 0.0, 1.0, 8.15, 6.6)">
    <path d="M5.45 3.05 Q5.1 4.5 3.25 4.8 1.4 5.1 0.8 4.8 L-0.5 4.3 -1.55 3.95 -1.85 3.8 Q-4.6 2.35 -5.35 -0.9 L-5.4 -1.25 -5.5 -2.0 -5.55 -2.2 -1.2 -1.6 2.9 -1.6 Q2.9 2.15 5.45 3.05 M-1.2 -1.6 L-1.85 3.8 -1.2 -1.6" fill="#242b30" fill-rule="evenodd" stroke="none"/>
    <path d="M-5.55 -2.2 L-7.65 -2.4 Q-7.7 -3.95 -7.2 -6.05 0.15 -6.4 7.5 -4.45 7.5 -2.35 7.05 -0.35 6.6 1.65 5.45 3.05 2.9 2.15 2.9 -1.6 L-1.2 -1.6 -5.55 -2.2" fill="#353a40" fill-rule="evenodd" stroke="none"/>
    <path d="M5.45 3.05 Q5.1 4.5 3.25 4.8 1.4 5.1 0.8 4.8 L-0.5 4.3 -1.55 3.95 -1.85 3.8 Q-4.6 2.35 -5.35 -0.9 L-5.4 -1.25 -5.5 -2.0 -5.55 -2.2 -1.2 -1.6 2.9 -1.6 Q2.9 2.15 5.45 3.05 M-1.85 3.8 L-1.2 -1.6" fill="none" stroke="#22262a" stroke-linecap="round" stroke-linejoin="round" stroke-width="1.0"/>
    <path d="M-5.55 -2.2 L-7.65 -2.4 Q-7.7 -3.95 -7.2 -6.05 0.15 -6.4 7.5 -4.45 7.5 -2.35 7.05 -0.35 6.6 1.65 5.45 3.05" fill="none" stroke="#292e33" stroke-linecap="round" stroke-linejoin="round" stroke-width="1.0"/>
  </g>
</svg>
