<?xml version="1.0" encoding="UTF-8" standalone="no"?>
<svg xmlns:ffdec="https://www.free-decompiler.com/flash" xmlns:xlink="http://www.w3.org/1999/xlink" ffdec:objectType="shape" height="5.6px" width="13.45px" xmlns="http://www.w3.org/2000/svg">
  <g transform="matrix(1.0, 0.0, 0.0, 1.0, 7.6, 2.95)">
    <path d="M5.35 -2.35 L5.35 2.05 5.0 2.05 -2.6 2.15 Q-6.55 1.95 -7.1 0.1 -6.5 -1.95 -2.6 -2.4 L5.35 -2.35 M1.85 -2.0 L-1.75 -2.0 -1.75 1.6 1.85 1.6 1.85 -2.0" fill="#999999" fill-rule="evenodd" stroke="none"/>
    <path d="M1.85 -2.0 L1.85 1.6 -1.75 1.6 -1.75 -2.0 1.85 -2.0" fill="#bf9023" fill-rule="evenodd" stroke="none"/>
    <path d="M5.35 -2.35 L5.35 2.05 5.0 2.05 -2.6 2.15 Q-6.55 1.95 -7.1 0.1 -6.5 -1.95 -2.6 -2.4 L5.35 -2.35" fill="none" stroke="#666666" stroke-linecap="round" stroke-linejoin="round" stroke-width="1.0"/>
    <path d="M1.85 -2.0 L1.85 1.6 -1.75 1.6 -1.75 -2.0 1.85 -2.0 Z" fill="none" stroke="#69521b" stroke-linecap="round" stroke-linejoin="round" stroke-width="1.0"/>
  </g>
</svg>
