<?xml version="1.0" encoding="UTF-8" standalone="no"?>
<svg xmlns:ffdec="https://www.free-decompiler.com/flash" xmlns:xlink="http://www.w3.org/1999/xlink" ffdec:objectType="shape" height="27.3px" width="26.6px" xmlns="http://www.w3.org/2000/svg">
  <g transform="matrix(1.0, 0.0, 0.0, 1.0, 15.55, 31.1)">
    <path d="M4.95 -6.2 Q3.9 -5.3 2.65 -5.1 L-0.05 -4.95 -3.45 -5.45 -5.5 -6.1 -7.3 -10.25 -8.45 -11.45 -8.0 -29.25 3.35 -29.0 7.95 -24.15 8.0 -10.75 Q6.25 -7.25 4.95 -6.2" fill="#0f152e" fill-rule="evenodd" stroke="none"/>
    <path d="M4.95 -6.2 Q3.9 -5.3 2.65 -5.1 L-0.05 -4.95 -3.45 -5.45 -5.5 -6.1 -7.3 -10.25 -8.45 -11.45 -8.0 -29.25 3.35 -29.0 7.95 -24.15 8.0 -10.75 Q6.25 -7.25 4.95 -6.2 Z" fill="none" stroke="#080b19" stroke-linecap="round" stroke-linejoin="round" stroke-width="1.0"/>
    <path d="M10.1 -23.7 Q11.05 -21.6 10.15 -16.2 L9.0 -11.25 6.2 -8.9 0.6 -13.7 -2.1 -13.9 -2.1 -17.45 -3.85 -22.8 -3.1 -27.0 0.0 -27.1 3.4 -22.7 5.0 -24.35 Q6.75 -26.05 7.4 -26.0 8.25 -25.95 9.05 -25.25 L10.1 -23.7" fill="#282828" fill-rule="evenodd" stroke="none"/>
    <path d="M10.1 -23.7 Q11.05 -21.6 10.15 -16.2 L9.0 -11.25 6.2 -8.9 0.6 -13.7 -2.1 -13.9 -2.1 -17.45 -3.85 -22.8 -3.1 -27.0 0.0 -27.1 3.4 -22.7 5.0 -24.35 Q6.75 -26.05 7.4 -26.0 8.25 -25.95 9.05 -25.25 L10.1 -23.7 Z" fill="none" stroke="#121212" stroke-linecap="round" stroke-linejoin="round" stroke-width="0.9500000000000001"/>
    <path d="M3.6 -22.3 L4.1 -16.6 9.25 -12.2" fill="none" stroke="#121212" stroke-linecap="round" stroke-linejoin="round" stroke-width="0.9500000000000001"/>
    <path d="M9.85 -22.6 L10.55 -21.8 10.55 -19.85 10.4 -17.85 9.8 -17.2 8.25 -18.5 8.3 -20.9 9.85 -22.6" fill="#f3ab05" fill-rule="evenodd" stroke="none"/>
    <path d="M9.85 -22.6 L8.3 -20.9 8.25 -18.5 9.8 -17.2 10.4 -17.85 10.55 -19.85 10.55 -21.8 9.85 -22.6 Z" fill="none" stroke="#503803" stroke-linecap="round" stroke-linejoin="round" stroke-width="0.9500000000000001"/>
    <path d="M0.6 -13.7 L0.15 -10.35 -1.8 -9.55 -1.75 -6.1 -4.35 -5.75 -5.5 -6.1 -7.3 -10.25 -7.0 -22.9 -3.85 -22.8 -1.95 -19.85 -2.1 -13.9 0.6 -13.7" fill="#1c1c1c" fill-rule="evenodd" stroke="none"/>
    <path d="M0.6 -13.7 L0.15 -10.35 -1.8 -9.55 -1.75 -6.1 -4.35 -5.75 -5.5 -6.1 -7.3 -10.25 -7.0 -22.9 -3.85 -22.8 -1.95 -19.85 -2.1 -13.9 0.6 -13.7 Z" fill="none" stroke="#121212" stroke-linecap="round" stroke-linejoin="round" stroke-width="0.9500000000000001"/>
    <path d="M-7.3 -10.25 L-11.3 -13.05 -13.05 -18.7 -13.25 -23.4 -7.0 -22.9 -7.3 -10.25" fill="#1c1c1c" fill-rule="evenodd" stroke="none"/>
    <path d="M-7.3 -10.25 L-11.3 -13.05 -13.05 -18.7 -13.25 -23.4 -7.0 -22.9 -7.3 -10.25 Z" fill="none" stroke="#121212" stroke-linecap="round" stroke-linejoin="round" stroke-width="0.9500000000000001"/>
    <path d="M-2.0 -16.9 L-6.05 -16.9 -8.25 -19.85 -10.1 -23.15 -14.2 -23.4 -14.7 -28.45 -11.3 -30.65 -6.2 -30.3 -3.5 -28.5 -1.95 -19.85 -2.0 -16.9" fill="#0f152e" fill-rule="evenodd" stroke="none"/>
    <path d="M-13.1 -29.85 L-11.3 -30.65 -6.2 -30.3 -3.5 -28.5 -2.7 -25.55 -6.05 -24.8 -7.7 -19.65 -10.15 -21.7 -14.5 -21.25 -15.0 -24.35 -14.7 -28.45 -13.1 -29.85" fill="#282828" fill-rule="evenodd" stroke="none"/>
    <path d="M8.5 -15.5 L6.2 -17.3" fill="none" stroke="#121212" stroke-linecap="round" stroke-linejoin="round" stroke-width="0.9500000000000001"/>
    <path d="M-5.45 -15.25 L-5.65 -12.4" fill="none" stroke="#121212" stroke-linecap="round" stroke-linejoin="round" stroke-width="0.9500000000000001"/>
    <path d="M-14.3 -28.75 L-11.8 -28.75" fill="none" stroke="#f3ab05" stroke-linecap="round" stroke-linejoin="round" stroke-width="0.9500000000000001"/>
    <path d="M-2.0 -16.9 L-6.05 -16.9 -8.25 -19.85 -9.85 -21.35 -14.5 -21.25 -14.95 -24.1 Q-15.3 -27.15 -14.7 -28.45 -14.25 -29.4 -13.3 -30.05 -12.3 -30.7 -11.3 -30.65 L-6.0 -30.2 -3.5 -28.5 -1.95 -19.85 -2.0 -16.9 Z" fill="none" stroke="#121212" stroke-linecap="round" stroke-linejoin="round" stroke-width="0.9500000000000001"/>
    <path d="M-15.05 -27.05 L-10.95 -27.1 -10.45 -26.45 -10.4 -25.25 -10.9 -24.75 -15.1 -24.65 -15.05 -27.05" fill="#f3ab05" fill-rule="evenodd" stroke="none"/>
    <path d="M-15.05 -27.05 L-10.95 -27.1 -10.45 -26.45 -10.4 -25.25 -10.9 -24.75 -15.1 -24.65 -15.05 -27.05 Z" fill="none" stroke="#503803" stroke-linecap="round" stroke-linejoin="round" stroke-width="0.9500000000000001"/>
    <path d="M-7.95 -9.3 L7.5 -9.0 6.95 -5.95 4.75 -4.75 -4.8 -5.15 -7.4 -6.3 -7.95 -9.3" fill="#1c1c1c" fill-rule="evenodd" stroke="none"/>
    <path d="M-7.95 -9.3 L7.5 -9.0 6.95 -5.95 4.75 -4.75 -4.8 -5.15 -7.4 -6.3 -7.95 -9.3 Z" fill="none" stroke="#121212" stroke-linecap="round" stroke-linejoin="round" stroke-width="0.9500000000000001"/>
    <path d="M-9.3 -10.35 L-8.7 -11.1 Q-8.3 -11.5 -7.9 -11.45 -7.55 -11.45 -7.25 -11.0 L-6.75 -10.25 -6.05 -9.35 Q-5.7 -8.8 -5.7 -8.35 -5.7 -7.5 -6.45 -6.45 L-7.15 -5.35 Q-7.6 -4.7 -8.1 -4.75 -8.6 -4.75 -9.1 -5.4 L-9.85 -6.6 Q-10.5 -7.85 -10.4 -8.75 L-9.3 -10.35" fill="#282828" fill-rule="evenodd" stroke="none"/>
    <path d="M-9.3 -10.35 L-10.4 -8.75 Q-10.5 -7.85 -9.85 -6.6 L-9.1 -5.4 Q-8.6 -4.75 -8.1 -4.75 -7.6 -4.7 -7.15 -5.35 L-6.45 -6.45 Q-5.7 -7.5 -5.7 -8.35 -5.7 -8.8 -6.05 -9.35 L-6.75 -10.25 -7.25 -11.0 Q-7.55 -11.45 -7.9 -11.45 -8.3 -11.5 -8.7 -11.1 L-9.3 -10.35 Z" fill="none" stroke="#121212" stroke-linecap="round" stroke-linejoin="round" stroke-width="0.9500000000000001"/>
    <path d="M9.6 -8.45 L8.15 -4.25 5.4 -4.25 2.95 -6.0 -6.45 -6.45 -5.7 -8.35 -7.2 -10.95 3.35 -10.9 5.05 -12.3 7.55 -12.3 9.6 -8.45" fill="#282828" fill-rule="evenodd" stroke="none"/>
    <path d="M9.6 -8.45 L8.15 -4.25 5.4 -4.25 2.95 -6.0 -6.45 -6.45 -5.7 -8.35 -7.2 -10.95 3.35 -10.9 5.05 -12.3 7.55 -12.3 9.6 -8.45 Z" fill="none" stroke="#121212" stroke-linecap="round" stroke-linejoin="round" stroke-width="0.9500000000000001"/>
    <path d="M7.5 -8.35 L3.0 -8.4" fill="none" stroke="#121212" stroke-linecap="round" stroke-linejoin="round" stroke-width="0.9500000000000001"/>
    <path d="M-7.7 -19.65 L-6.05 -24.8 -3.25 -25.4" fill="none" stroke="#121212" stroke-linecap="round" stroke-linejoin="round" stroke-width="0.9500000000000001"/>
  </g>
</svg>
