<?xml version="1.0" encoding="UTF-8" standalone="no"?>
<svg xmlns:ffdec="https://www.free-decompiler.com/flash" xmlns:xlink="http://www.w3.org/1999/xlink" ffdec:objectType="shape" height="32.65px" width="30.25px" xmlns="http://www.w3.org/2000/svg">
  <g transform="matrix(1.0, 0.0, 0.0, 1.0, 17.95, 35.2)">
    <path d="M-5.8 -32.6 L-2.65 -31.55 Q0.7 -30.1 1.55 -28.25 L4.65 -23.15 Q6.5 -19.8 5.55 -17.6 5.25 -16.8 2.6 -13.65 1.45 -12.25 3.55 -10.85 4.15 -10.45 4.45 -9.15 4.8 -7.8 4.45 -7.05 2.75 -4.25 -0.15 -4.1 -2.9 -3.85 -4.95 -6.6 -5.2 -7.0 -4.4 -7.9 -3.65 -8.9 -3.85 -9.25 L-7.95 -16.05 Q-9.45 -18.55 -10.25 -22.0 L-11.2 -26.0 Q-11.65 -28.35 -11.4 -29.55 L-11.0 -31.4 Q-10.8 -31.95 -10.0 -32.3 L-7.45 -32.65 -5.8 -32.6" fill="#3a374e" fill-rule="evenodd" stroke="none"/>
    <path d="M-5.8 -32.6 L-2.65 -31.55 Q0.7 -30.1 1.55 -28.25 L4.65 -23.15 Q6.5 -19.8 5.55 -17.6 5.25 -16.8 2.6 -13.65 1.45 -12.25 3.55 -10.85 4.15 -10.45 4.45 -9.15 4.8 -7.8 4.45 -7.05 2.75 -4.25 -0.15 -4.1 -2.9 -3.85 -4.95 -6.6 -5.2 -7.0 -4.4 -7.9 -3.65 -8.9 -3.85 -9.25 L-7.95 -16.05 Q-9.45 -18.55 -10.25 -22.0 L-11.2 -26.0 Q-11.65 -28.35 -11.4 -29.55 L-11.0 -31.4 Q-10.8 -31.95 -10.0 -32.3 L-7.45 -32.65 -5.8 -32.6 Z" fill="none" stroke="#313131" stroke-linecap="butt" stroke-linejoin="miter-clip" stroke-miterlimit="15.12109375" stroke-width="1.0"/>
    <path d="M2.25 -17.5 L1.55 -18.95 Q0.75 -20.15 0.05 -20.25 -0.65 -20.35 -1.55 -19.65 L-2.3 -18.95 -4.05 -19.95 -3.3 -24.9 -0.45 -25.4 1.3 -29.05 2.75 -28.6 Q4.4 -28.05 5.2 -27.35 L5.95 -26.75 7.85 -24.75 Q9.3 -22.8 9.75 -18.8 L6.75 -18.2 Q8.8 -18.0 9.7 -17.15 10.45 -16.45 10.25 -15.35 10.05 -14.15 9.0 -13.3 7.9 -12.4 7.0 -12.75 L2.25 -13.95 2.25 -17.5" fill="#605c82" fill-rule="evenodd" stroke="none"/>
    <path d="M2.25 -17.5 L2.25 -13.95 7.0 -12.75 Q7.9 -12.4 9.0 -13.3 10.05 -14.15 10.25 -15.35 10.45 -16.45 9.7 -17.15 8.8 -18.0 6.75 -18.2 L9.75 -18.8 Q9.3 -22.8 7.85 -24.75 L5.95 -26.75 5.2 -27.35 Q4.4 -28.05 2.75 -28.6 L1.3 -29.05 -0.45 -25.4 -3.3 -24.9 -4.05 -19.95 -2.3 -18.95 -1.55 -19.65 Q-0.65 -20.35 0.05 -20.25 0.75 -20.15 1.55 -18.95 L2.25 -17.5 Z" fill="none" stroke="#332f36" stroke-linecap="round" stroke-linejoin="round" stroke-width="1.0"/>
    <path d="M-8.05 -26.25 L-7.55 -22.6 -6.55 -19.4 -4.35 -13.0 -7.15 -13.5 -4.2 -12.85 -0.9 -11.55 -1.25 -10.25 -4.2 -8.0 -6.35 -10.2 -6.85 -13.25 Q-10.1 -13.0 -12.55 -13.8 -17.4 -15.45 -13.1 -20.7 L-11.75 -21.6 Q-11.25 -22.05 -11.65 -23.35 -12.2 -25.15 -12.1 -27.65 -11.95 -29.85 -11.5 -31.05 L-10.55 -33.4 -10.55 -29.05 -8.05 -26.25" fill="#605c82" fill-rule="evenodd" stroke="none"/>
    <path d="M-8.05 -26.25 L-7.55 -22.6 -6.55 -19.4 -4.35 -13.0 -7.15 -13.5 -4.2 -12.85 -0.9 -11.55 -1.25 -10.25 -4.2 -8.0 -6.35 -10.2 -6.85 -13.25 Q-10.1 -13.0 -12.55 -13.8 -17.4 -15.45 -13.1 -20.7 L-11.75 -21.6 Q-11.25 -22.05 -11.65 -23.35 -12.2 -25.15 -12.1 -27.65 -11.95 -29.85 -11.5 -31.05 L-10.55 -33.4 -10.55 -29.05 -8.05 -26.25 -8.1 -26.45 Q-8.25 -28.5 -8.1 -27.5 L-7.95 -26.1 -8.05 -26.25 Z" fill="none" stroke="#39353c" stroke-linecap="round" stroke-linejoin="round" stroke-width="1.0"/>
    <path d="M1.2 -23.2 L3.9 -21.1" fill="none" stroke="#000000" stroke-linecap="round" stroke-linejoin="round" stroke-opacity="0.40784314" stroke-width="1.0"/>
    <path d="M-6.95 -19.7 L-8.0 -27.5 -7.7 -31.05 -6.3 -33.25 -3.35 -31.75 -2.25 -27.85 -3.05 -27.05 -2.95 -21.7 Q-2.85 -21.35 -5.05 -20.85 -6.7 -20.45 -6.95 -19.7 L-6.4 -17.0 -5.25 -13.6 -2.4 -11.7 Q-0.2 -10.55 0.0 -10.2 L-1.0 -9.1 -2.85 -9.6 -4.9 -12.55 -5.25 -13.6 -5.7 -14.1 Q-6.4 -14.95 -6.7 -16.8 L-7.0 -19.25 -6.95 -19.7" fill="#605c82" fill-rule="evenodd" stroke="none"/>
    <path d="M-6.95 -19.7 Q-6.7 -20.45 -5.05 -20.85 -2.85 -21.35 -2.95 -21.7 L-3.05 -27.05 -2.25 -27.85 -3.35 -31.75 -6.3 -33.25 -7.7 -31.05 -8.0 -27.5 -6.95 -19.7 -6.4 -17.0 -5.25 -13.6 -2.4 -11.7 Q-0.2 -10.55 0.0 -10.2 L-1.0 -9.1 -2.85 -9.6 -4.9 -12.55 -5.25 -13.6 -5.7 -14.1 Q-6.4 -14.95 -6.7 -16.8 L-7.0 -19.25 -6.95 -19.7 Z" fill="none" stroke="#39353c" stroke-linecap="round" stroke-linejoin="round" stroke-width="1.0"/>
    <path d="M4.5 -13.4 Q5.5 -13.55 5.6 -15.3 5.7 -17.05 6.0 -17.1 L8.65 -15.75 Q8.4 -15.5 7.9 -13.65 7.4 -11.85 6.85 -11.45 6.5 -11.05 5.3 -10.8 L2.6 -10.25 Q1.4 -9.9 0.25 -10.55 -0.9 -11.2 -1.0 -12.2 -1.2 -12.75 -0.7 -12.75 L4.5 -13.4" fill="#4b6c68" fill-rule="evenodd" stroke="none"/>
    <path d="M4.5 -13.4 L-0.7 -12.75 Q-1.2 -12.75 -1.0 -12.2 -0.9 -11.2 0.25 -10.55 1.4 -9.9 2.6 -10.25 L5.3 -10.8 Q6.5 -11.05 6.85 -11.45 7.4 -11.85 7.9 -13.65 8.4 -15.5 8.65 -15.75 L6.0 -17.1 Q5.7 -17.05 5.6 -15.3 5.5 -13.55 4.5 -13.4 Z" fill="none" stroke="#2d403e" stroke-linecap="round" stroke-linejoin="round" stroke-width="1.0"/>
    <path d="M6.7 -20.95 Q6.15 -21.35 5.95 -22.35 L6.1 -24.55 Q6.25 -25.6 7.3 -25.25 L8.3 -24.35 10.3 -21.75 9.85 -20.85 9.65 -20.7 8.55 -20.55 6.7 -20.95 8.55 -20.55 9.65 -20.7 10.85 -20.75 11.75 -18.9 Q12.0 -17.9 11.35 -15.75 L6.8 -16.7 Q6.3 -18.7 5.8 -19.25 5.15 -19.7 4.6 -20.5 L6.7 -20.95 7.05 -20.75 8.55 -20.55 7.05 -20.75 6.7 -20.95" fill="#748785" fill-rule="evenodd" stroke="none"/>
    <path d="M9.65 -20.7 L9.85 -20.85 10.3 -21.75 8.3 -24.35 7.3 -25.25 Q6.25 -25.6 6.1 -24.55 L5.95 -22.35 Q6.15 -21.35 6.7 -20.95 L8.55 -20.55 9.65 -20.7 10.85 -20.75 11.75 -18.9 Q12.0 -17.9 11.35 -15.75 L6.8 -16.7 Q6.3 -18.7 5.8 -19.25 5.15 -19.7 4.6 -20.5 L6.7 -20.95 7.05 -20.75 8.55 -20.55" fill="none" stroke="#2d403e" stroke-linecap="round" stroke-linejoin="round" stroke-width="1.0"/>
    <path d="M11.2 -19.2 Q9.8 -19.35 9.35 -20.55 8.9 -21.8 10.2 -21.9 L11.05 -20.65 11.2 -19.2" fill="#6676cf" fill-rule="evenodd" stroke="none"/>
    <path d="M11.2 -19.2 Q9.8 -19.35 9.35 -20.55 8.9 -21.8 10.2 -21.9 L11.05 -20.65 11.2 -19.2 Z" fill="none" stroke="#231f46" stroke-linecap="round" stroke-linejoin="round" stroke-width="1.0"/>
    <path d="M-13.1 -21.2 L-9.9 -18.3 -8.1 -13.1" fill="none" stroke="#322e34" stroke-linecap="butt" stroke-linejoin="miter-clip" stroke-miterlimit="15.12109375" stroke-width="1.0"/>
    <path d="M-13.3 -23.65 L-12.7 -23.15 Q-12.35 -22.9 -11.5 -22.6 -13.45 -21.65 -14.35 -22.6 L-15.5 -24.35 -15.95 -25.35 -15.05 -24.7 -13.3 -23.65" fill="#6b6b62" fill-rule="evenodd" stroke="none"/>
    <path d="M-13.3 -23.65 L-15.05 -24.7 -15.95 -25.35 -15.5 -24.35 -14.35 -22.6 Q-13.45 -21.65 -11.5 -22.6 -12.35 -22.9 -12.7 -23.15 L-13.3 -23.65 Z" fill="none" stroke="#454443" stroke-linecap="round" stroke-linejoin="round" stroke-width="1.0"/>
    <path d="M-14.75 -20.0 L-14.2 -19.5 Q-13.85 -19.25 -13.0 -18.95 -14.95 -18.0 -15.85 -18.95 L-17.0 -20.7 -17.45 -21.7 -16.55 -21.05 Q-15.65 -20.4 -14.75 -20.0" fill="#6b6b62" fill-rule="evenodd" stroke="none"/>
    <path d="M-14.75 -20.0 Q-15.65 -20.4 -16.55 -21.05 L-17.45 -21.7 -17.0 -20.7 -15.85 -18.95 Q-14.95 -18.0 -13.0 -18.95 -13.85 -19.25 -14.2 -19.5 L-14.75 -20.0 Z" fill="none" stroke="#454443" stroke-linecap="round" stroke-linejoin="round" stroke-width="1.0"/>
    <path d="M4.6 -8.55 L3.9 -10.15 6.6 -11.35 8.1 -13.0 Q10.15 -14.45 10.5 -15.15 L11.1 -15.95 Q11.45 -16.35 11.45 -16.75 L11.65 -18.8 Q11.75 -20.5 11.15 -21.3 L6.5 -26.7" fill="none" stroke="#000000" stroke-linecap="round" stroke-linejoin="round" stroke-opacity="0.3764706" stroke-width="1.0"/>
    <path d="M-11.6 -31.5 L-12.1 -29.35 Q-12.55 -27.05 -12.45 -26.1 L-12.0 -22.85 -15.25 -24.8 -15.4 -24.3 Q-15.5 -23.7 -14.95 -23.1 -14.05 -22.15 -12.25 -21.7 L-12.75 -20.3 -14.5 -19.6 -17.2 -21.6 -16.55 -20.1 Q-15.75 -18.55 -15.05 -18.35 -14.5 -18.2 -15.1 -17.15 -15.75 -16.05 -15.05 -15.5 -14.15 -14.85 -12.85 -14.25 -11.65 -13.75 -11.25 -13.75 L-8.05 -13.35 -7.05 -12.45 -6.65 -9.9" fill="none" stroke="#000000" stroke-linecap="round" stroke-linejoin="round" stroke-opacity="0.3764706" stroke-width="1.0"/>
  </g>
</svg>
