<?xml version="1.0" encoding="UTF-8" standalone="no"?>
<svg xmlns:ffdec="https://www.free-decompiler.com/flash" xmlns:xlink="http://www.w3.org/1999/xlink" ffdec:objectType="shape" height="33.0px" width="35.85px" xmlns="http://www.w3.org/2000/svg">
  <g transform="matrix(1.0, 0.0, 0.0, 1.0, 20.7, 32.55)">
    <path d="M-9.3 -26.35 Q-6.1 -29.6 -2.15 -29.3 1.3 -29.1 4.3 -26.3 7.2 -23.65 8.3 -20.05 9.45 -16.25 7.85 -13.4 L6.65 -11.4 Q5.7 -10.15 5.4 -9.25 5.1 -8.35 5.15 -7.1 L5.0 -4.9 Q4.35 -2.45 -0.3 -2.15 -5.15 -1.9 -6.65 -5.25 L-6.75 -5.55 -8.55 -11.4 Q-10.0 -15.85 -11.15 -18.8 L-10.45 -23.15 Q-10.15 -25.5 -9.3 -26.35" fill="#393030" fill-rule="evenodd" stroke="none"/>
    <path d="M-9.3 -26.35 Q-6.1 -29.6 -2.15 -29.3 1.3 -29.1 4.3 -26.3 7.2 -23.65 8.3 -20.05 9.45 -16.25 7.85 -13.4 L6.65 -11.4 Q5.7 -10.15 5.4 -9.25 5.1 -8.35 5.15 -7.1 L5.0 -4.9 Q4.35 -2.45 -0.3 -2.15 -5.15 -1.9 -6.65 -5.25 L-6.75 -5.55 -8.55 -11.4 Q-10.0 -15.85 -11.15 -18.8 L-10.45 -23.15 Q-10.15 -25.5 -9.3 -26.35 Z" fill="none" stroke="#312c2c" stroke-linecap="butt" stroke-linejoin="miter-clip" stroke-miterlimit="15.12109375" stroke-width="1.0"/>
    <path d="M-5.65 -23.6 L-6.95 -24.4 Q-8.0 -25.35 -6.9 -26.2 L-2.0 -27.65 Q0.35 -28.0 3.3 -25.95 5.1 -24.25 5.5 -23.35 L7.05 -19.55 7.4 -18.2 7.45 -16.6 7.2 -15.85 Q7.2 -15.3 8.4 -14.8 L11.3 -13.35 11.55 -12.35 11.4 -11.2 10.8 -9.8 10.2 -8.85 9.1 -8.95 6.8 -9.65 Q5.3 -10.25 5.35 -10.6 5.7 -13.7 2.25 -15.45 1.7 -17.0 2.1 -18.5 2.05 -19.2 2.85 -20.35 L4.1 -21.9 Q4.6 -22.6 3.1 -24.05 1.5 -25.6 -0.15 -25.8 -1.7 -26.0 -3.8 -24.8 L-5.65 -23.6" fill="url(#gradient0)" fill-rule="evenodd" stroke="none"/>
    <path d="M-5.65 -23.6 L-3.8 -24.8 Q-1.7 -26.0 -0.15 -25.8 1.5 -25.6 3.1 -24.05 4.6 -22.6 4.1 -21.9 L2.85 -20.35 Q2.05 -19.2 2.1 -18.5 1.7 -17.0 2.25 -15.45 5.7 -13.7 5.35 -10.6 5.3 -10.25 6.8 -9.65 L9.1 -8.95 10.2 -8.85 10.8 -9.8 11.4 -11.2 11.55 -12.35 11.3 -13.35 8.4 -14.8 Q7.2 -15.3 7.2 -15.85 L7.45 -16.6 7.4 -18.2 7.05 -19.55 5.5 -23.35 Q5.1 -24.25 3.3 -25.95 0.35 -28.0 -2.0 -27.65 L-6.9 -26.2 Q-8.0 -25.35 -6.95 -24.4 L-5.65 -23.6 Z" fill="none" stroke="#1c1515" stroke-linecap="butt" stroke-linejoin="miter-clip" stroke-miterlimit="15.12109375" stroke-width="1.0"/>
    <path d="M6.8 -22.65 L5.9 -24.35 5.25 -24.6 5.45 -24.75 Q5.65 -24.85 5.85 -24.45 L5.9 -24.35 6.75 -24.05 8.35 -23.65 9.7 -22.6 11.15 -19.5 11.8 -17.2 Q11.95 -15.6 11.6 -15.55 L9.9 -16.3 8.8 -16.75 Q8.05 -17.05 7.9 -16.6 8.05 -20.4 6.8 -22.65" fill="url(#gradient1)" fill-rule="evenodd" stroke="none"/>
    <path d="M6.8 -22.65 L5.9 -24.35" fill="none" stroke="#1c1515" stroke-linecap="butt" stroke-linejoin="miter-clip" stroke-miterlimit="15.12109375" stroke-width="1.0"/>
    <path d="M5.9 -24.35 L5.25 -24.6 5.45 -24.75 Q5.65 -24.85 5.85 -24.45 L5.9 -24.35" fill="none" stroke="#1c1515" stroke-linecap="round" stroke-linejoin="miter-clip" stroke-miterlimit="15.12109375" stroke-width="1.0"/>
    <path d="M5.9 -24.35 L6.75 -24.05 8.35 -23.65 9.7 -22.6 11.15 -19.5 11.8 -17.2 Q11.95 -15.6 11.6 -15.55 L9.9 -16.3 8.8 -16.75 Q8.05 -17.05 7.9 -16.6 8.05 -20.4 6.8 -22.65" fill="none" stroke="#1c1515" stroke-linecap="round" stroke-linejoin="miter-clip" stroke-miterlimit="15.12109375" stroke-width="1.0"/>
    <path d="M1.9 -12.5 L3.15 -12.1 Q3.25 -10.95 4.45 -10.1 4.7 -9.65 6.8 -8.7 7.4 -8.55 7.6 -8.2 L7.75 -7.3 Q7.65 -6.35 7.05 -5.25 L6.3 -4.2 Q5.2 -4.3 2.75 -6.15 2.8 -7.95 2.25 -8.8 L1.15 -10.0 Q0.9 -11.2 1.15 -11.75 L1.9 -12.5" fill="url(#gradient2)" fill-rule="evenodd" stroke="none"/>
    <path d="M1.9 -12.5 L3.15 -12.1 Q3.25 -10.95 4.45 -10.1 4.7 -9.65 6.8 -8.7 7.4 -8.55 7.6 -8.2 L7.75 -7.3 Q7.65 -6.35 7.05 -5.25 L6.3 -4.2 Q5.2 -4.3 2.75 -6.15 2.8 -7.95 2.25 -8.8 L1.15 -10.0 Q0.9 -11.2 1.15 -11.75 L1.9 -12.5 Z" fill="none" stroke="#1c1515" stroke-linecap="butt" stroke-linejoin="miter-clip" stroke-miterlimit="15.12109375" stroke-width="1.0"/>
    <path d="M-9.85 -28.35 Q-8.0 -29.45 -5.7 -28.1 -5.6 -26.05 -6.55 -24.9 -8.1 -21.55 -10.4 -21.6 -12.65 -21.65 -11.9 -24.7 -11.65 -27.3 -9.85 -28.35" fill="#402b2b" fill-rule="evenodd" stroke="none"/>
    <path d="M-9.85 -28.35 Q-11.65 -27.3 -11.9 -24.7 -12.65 -21.65 -10.4 -21.6 -8.1 -21.55 -6.55 -24.9 -5.6 -26.05 -5.7 -28.1 -8.0 -29.45 -9.85 -28.35 Z" fill="none" stroke="#1c1515" stroke-linecap="butt" stroke-linejoin="miter-clip" stroke-miterlimit="15.12109375" stroke-width="1.0"/>
    <path d="M-4.4 -24.2 Q-6.55 -21.8 -7.6 -19.95 -8.3 -18.65 -8.1 -17.1 -7.9 -15.8 -7.2 -15.05 L-6.1 -13.9 -5.3 -13.85 Q-3.7 -8.1 -9.4 -8.15 -9.45 -13.3 -9.8 -13.75 L-13.65 -18.9 Q-14.9 -23.4 -13.3 -25.3 L-11.1 -27.3 -11.85 -25.0 Q-11.9 -24.05 -11.15 -23.0 -9.9 -22.4 -8.55 -23.0 -7.6 -23.45 -6.1 -25.5 -6.05 -24.85 -5.45 -24.6 L-4.4 -24.2" fill="url(#gradient3)" fill-rule="evenodd" stroke="none"/>
    <path d="M-4.4 -24.2 Q-6.55 -21.8 -7.6 -19.95 -8.3 -18.65 -8.1 -17.1 -7.9 -15.8 -7.2 -15.05 L-6.1 -13.9 -5.3 -13.85 Q-3.7 -8.1 -9.4 -8.15 -9.45 -13.3 -9.8 -13.75 L-13.65 -18.9 Q-14.9 -23.4 -13.3 -25.3 L-11.1 -27.3 -11.85 -25.0 Q-11.9 -24.05 -11.15 -23.0 -9.9 -22.4 -8.55 -23.0 -7.6 -23.45 -6.1 -25.5 -6.05 -24.85 -5.45 -24.6 L-4.4 -24.2 Z" fill="none" stroke="#1c1515" stroke-linecap="butt" stroke-linejoin="miter-clip" stroke-miterlimit="15.12109375" stroke-width="1.0"/>
    <path d="M10.65 -14.8 L8.35 -15.95" fill="none" stroke="#dcc64f" stroke-linecap="round" stroke-linejoin="round" stroke-width="1.0"/>
    <path d="M1.4 -25.35 L3.6 -24.85 6.55 -23.95 7.45 -21.5 7.75 -20.0 6.25 -20.05 5.1 -20.15 4.55 -20.85 Q4.05 -21.8 3.2 -22.2 1.85 -22.8 1.45 -23.1 L1.4 -25.35" fill="#402b2b" fill-rule="evenodd" stroke="none"/>
    <path d="M1.4 -25.35 L3.6 -24.85 6.55 -23.95 7.45 -21.5 7.75 -20.0 6.25 -20.05 5.1 -20.15 4.55 -20.85 Q4.05 -21.8 3.2 -22.2 1.85 -22.8 1.45 -23.1 L1.4 -25.35 Z" fill="none" stroke="#1c1515" stroke-linecap="butt" stroke-linejoin="miter-clip" stroke-miterlimit="15.12109375" stroke-width="1.0"/>
    <path d="M-11.2 -29.0 L-9.9 -28.05 Q-12.0 -26.05 -11.5 -24.05 L-10.95 -21.75 Q-11.45 -20.95 -12.35 -20.5 L-13.15 -20.2 Q-13.7 -20.2 -14.2 -20.55 -15.15 -21.2 -14.95 -22.85 -14.5 -25.65 -12.6 -27.9 L-11.2 -29.0" fill="url(#gradient4)" fill-rule="evenodd" stroke="none"/>
    <path d="M-11.2 -29.0 L-9.9 -28.05 Q-12.0 -26.05 -11.5 -24.05 L-10.95 -21.75 Q-11.45 -20.95 -12.35 -20.5 L-13.15 -20.2 Q-13.7 -20.2 -14.2 -20.55 -15.15 -21.2 -14.95 -22.85 -14.5 -25.65 -12.6 -27.9 L-11.2 -29.0 Z" fill="none" stroke="#1c1515" stroke-linecap="butt" stroke-linejoin="miter-clip" stroke-miterlimit="15.12109375" stroke-width="1.0"/>
    <path d="M-13.2 -20.75 L-12.5 -19.65 Q-11.55 -18.45 -10.2 -17.85 -8.0 -16.9 -5.5 -16.3 -5.25 -14.7 -5.4 -14.2 L-6.4 -13.35 -8.0 -12.05 Q-8.65 -11.35 -8.95 -10.35 L-9.1 -9.45 -9.25 -8.25 Q-9.95 -8.55 -10.9 -9.1 L-11.1 -8.9 Q-11.2 -8.65 -11.35 -8.75 -13.7 -10.3 -14.85 -11.35 -16.9 -13.25 -17.05 -15.1 -17.5 -16.5 -17.35 -17.15 L-17.0 -17.65 -16.65 -17.95 Q-16.65 -20.0 -16.1 -21.3 L-15.6 -22.15 -13.2 -20.75" fill="url(#gradient5)" fill-rule="evenodd" stroke="none"/>
    <path d="M-13.2 -20.75 L-12.5 -19.65 Q-11.55 -18.45 -10.2 -17.85 -8.0 -16.9 -5.5 -16.3 -5.25 -14.7 -5.4 -14.2 L-6.4 -13.35 -8.0 -12.05 Q-8.65 -11.35 -8.95 -10.35 L-9.1 -9.45 -9.25 -8.25 Q-9.95 -8.55 -10.9 -9.1 L-11.1 -8.9 Q-11.2 -8.65 -11.35 -8.75 -13.7 -10.3 -14.85 -11.35 -16.9 -13.25 -17.05 -15.1 -17.5 -16.5 -17.35 -17.15 L-17.0 -17.65 -16.65 -17.95 Q-16.65 -20.0 -16.1 -21.3 L-15.6 -22.15 -13.2 -20.75 Z" fill="none" stroke="#1c1515" stroke-linecap="butt" stroke-linejoin="miter-clip" stroke-miterlimit="15.12109375" stroke-width="1.0"/>
    <path d="M-7.55 -27.65 L-7.35 -26.9 -8.25 -26.55" fill="none" stroke="#efc23c" stroke-linecap="round" stroke-linejoin="round" stroke-width="1.0"/>
    <path d="M-8.1 -27.45 L-9.35 -26.85 -9.15 -25.8" fill="none" stroke="#281212" stroke-linecap="round" stroke-linejoin="round" stroke-width="1.0"/>
    <path d="M-7.35 -25.6 L-7.15 -24.8 -8.05 -24.5" fill="none" stroke="#efc23c" stroke-linecap="round" stroke-linejoin="round" stroke-width="1.0"/>
    <path d="M-7.9 -25.4 L-9.15 -24.8 -8.9 -23.75" fill="none" stroke="#281212" stroke-linecap="round" stroke-linejoin="round" stroke-width="1.0"/>
  </g>
  <defs>
    <radialGradient cx="0" cy="0" gradientTransform="matrix(0.0121, 4.0E-4, -7.0E-4, 0.0117, 1.55, -18.5)" gradientUnits="userSpaceOnUse" id="gradient0" r="819.2" spreadMethod="pad">
      <stop offset="0.0" stop-color="#241818"/>
      <stop offset="1.0" stop-color="#4d3434"/>
    </radialGradient>
    <radialGradient cx="0" cy="0" gradientTransform="matrix(0.0026, -3.0E-4, 0.0026, 0.0241, 7.55, -20.8)" gradientUnits="userSpaceOnUse" id="gradient1" r="819.2" spreadMethod="pad">
      <stop offset="0.0" stop-color="#241818"/>
      <stop offset="1.0" stop-color="#4d3434"/>
    </radialGradient>
    <radialGradient cx="0" cy="0" gradientTransform="matrix(0.0048, 1.0E-4, -7.0E-4, 0.0117, 3.45, -9.3)" gradientUnits="userSpaceOnUse" id="gradient2" r="819.2" spreadMethod="pad">
      <stop offset="0.0" stop-color="#241818"/>
      <stop offset="1.0" stop-color="#4d3434"/>
    </radialGradient>
    <radialGradient cx="0" cy="0" gradientTransform="matrix(0.0037, -7.0E-4, 0.0042, 0.025, -9.55, -17.5)" gradientUnits="userSpaceOnUse" id="gradient3" r="819.2" spreadMethod="pad">
      <stop offset="0.0" stop-color="#222222"/>
      <stop offset="1.0" stop-color="#444242"/>
    </radialGradient>
    <radialGradient cx="0" cy="0" gradientTransform="matrix(0.0018, -1.0E-4, 3.0E-4, 0.0205, -13.95, -25.05)" gradientUnits="userSpaceOnUse" id="gradient4" r="819.2" spreadMethod="pad">
      <stop offset="0.0" stop-color="#241818"/>
      <stop offset="1.0" stop-color="#4d3434"/>
    </radialGradient>
    <radialGradient cx="0" cy="0" gradientTransform="matrix(0.0046, -5.0E-4, 0.0022, 0.0294, -12.35, -14.95)" gradientUnits="userSpaceOnUse" id="gradient5" r="819.2" spreadMethod="pad">
      <stop offset="0.0" stop-color="#2f1f1f"/>
      <stop offset="1.0" stop-color="#4d3434"/>
    </radialGradient>
  </defs>
</svg>
