<?xml version="1.0" encoding="UTF-8" standalone="no"?>
<svg xmlns:xlink="http://www.w3.org/1999/xlink" height="21.0px" width="46.95px" xmlns="http://www.w3.org/2000/svg">
  <g transform="matrix(1.0, 0.0, 0.0, 1.0, 23.5, 20.5)">
    <path d="M10.35 -16.65 L10.35 -19.2 14.15 -19.2 14.15 -16.65 10.35 -16.65 M-10.65 -19.2 L-10.65 -16.65 -14.3 -16.65 -14.3 -19.2 -10.65 -19.2 M22.95 -16.65 L17.7 -16.65 17.7 -19.2 22.95 -19.2 22.95 -16.65 M4.35 -6.85 L4.35 -3.95 0.05 -1.9 -4.25 -3.95 -4.25 -6.85 0.05 -4.75 4.35 -6.85 M4.35 -12.05 L4.35 -9.2 0.05 -7.15 -4.25 -9.2 -4.25 -12.05 0.05 -10.0 4.35 -12.05 M22.95 -2.8 L19.35 -2.8 17.7 -0.25 22.95 0.0 10.35 0.0 10.35 -14.55 22.95 -14.55 22.95 -2.8 M-23.0 -2.8 L-23.0 -14.55 -17.85 -14.55 -17.85 -12.45 -14.3 -12.45 -14.3 -14.55 -10.65 -14.55 -10.65 0.0 -23.0 0.0 -17.7 -0.25 -19.4 -2.8 -23.0 -2.8 M-23.0 -16.65 L-23.0 -19.2 -17.85 -19.2 -17.85 -16.65 -23.0 -16.65" fill="#a6b3bc" fill-rule="evenodd" stroke="none"/>
    <path d="M10.35 -19.2 L10.35 -16.65 -10.65 -16.65 -10.65 -19.2 10.35 -19.2 M4.35 -12.05 L0.05 -10.0 -4.25 -12.05 -4.25 -9.2 0.05 -7.15 4.35 -9.2 4.35 -12.05 M4.35 -6.85 L0.05 -4.75 -4.25 -6.85 -4.25 -3.95 0.05 -1.9 4.35 -3.95 4.35 -6.85 M10.35 -14.55 L10.35 0.0 -10.65 0.0 -10.65 -14.55 10.35 -14.55" fill="#6b8b9c" fill-rule="evenodd" stroke="none"/>
    <path d="M17.7 -0.25 L19.35 -2.8 22.95 -2.8 22.95 0.0 17.7 -0.25 M-23.0 -2.8 L-19.4 -2.8 -17.7 -0.25 -23.0 0.0 -23.0 -2.8" fill="#877e77" fill-rule="evenodd" stroke="none"/>
    <path d="M14.15 -19.2 L10.35 -19.2 -10.65 -19.2 -14.3 -19.2 M22.95 -16.65 L22.95 -19.2 17.7 -19.2 M22.95 -2.8 L22.95 -14.55 M10.35 0.0 L22.95 0.0 22.95 -2.8 M-23.0 -14.55 L-23.0 -2.8 -23.0 0.0 -10.65 0.0 10.35 0.0 M-23.0 -16.65 L-23.0 -19.2 -17.85 -19.2" fill="none" stroke="#464756" stroke-linecap="round" stroke-linejoin="round" stroke-width="1.0"/>
    <path d="M4.35 -6.85 L4.35 -3.95 0.05 -1.9 -4.25 -3.95 -4.25 -6.85 0.05 -4.75 4.35 -6.85 M4.35 -12.05 L4.35 -9.2 0.05 -7.15 -4.25 -9.2 -4.25 -12.05 0.05 -10.0 4.35 -12.05" fill="none" stroke="#4c4a5f" stroke-linecap="round" stroke-linejoin="round" stroke-width="1.0"/>
    <path d="M17.7 -0.25 L19.35 -2.8 22.95 -2.8 M-23.0 -2.8 L-19.4 -2.8 -17.7 -0.25" fill="none" stroke="#59504a" stroke-linecap="round" stroke-linejoin="round" stroke-width="1.0"/>
    <path d="M14.15 -16.65 L14.15 -14.55 -14.3 -14.55 -14.3 -16.65 14.15 -16.65 M17.7 -14.55 L17.7 -16.65 22.95 -16.65 22.95 -14.55 17.7 -14.55 M-17.85 -14.55 L-23.0 -14.55 -23.0 -16.65 -17.85 -16.65 -17.85 -14.55" fill="#484d52" fill-rule="evenodd" stroke="none"/>
    <path d="M14.15 -16.65 L-14.3 -16.65 M-14.3 -14.55 L14.15 -14.55 M17.7 -14.55 L22.95 -14.55 22.95 -16.65 17.7 -16.65 M-17.85 -14.55 L-23.0 -14.55 -23.0 -16.65 -17.85 -16.65" fill="none" stroke="#232325" stroke-linecap="round" stroke-linejoin="round" stroke-width="1.0"/>
    <path d="M14.15 -12.45 L14.15 -20.0 17.7 -20.0 17.7 -12.45 14.15 -12.45 M-17.85 -12.45 L-17.85 -20.0 -14.3 -20.0 -14.3 -12.45 -17.85 -12.45" fill="#babec7" fill-rule="evenodd" stroke="none"/>
    <path d="M14.15 -12.45 L14.15 -20.0 17.7 -20.0 17.7 -12.45 14.15 -12.45 M-17.85 -12.45 L-17.85 -20.0 -14.3 -20.0 -14.3 -12.45 -17.85 -12.45 Z" fill="none" stroke="#616371" stroke-linecap="round" stroke-linejoin="round" stroke-width="1.0"/>
  </g>
</svg>
