<?xml version="1.0" encoding="UTF-8" standalone="no"?>
<svg xmlns:ffdec="https://www.free-decompiler.com/flash" xmlns:xlink="http://www.w3.org/1999/xlink" ffdec:objectType="shape" height="12.05px" width="16.15px" xmlns="http://www.w3.org/2000/svg">
  <g transform="matrix(1.0, 0.0, 0.0, 1.0, 8.1, 7.35)">
    <path d="M5.5 2.3 Q5.15 3.75 3.3 4.05 1.45 4.35 0.85 4.05 L-0.45 3.55 -1.5 3.2 -1.8 3.05 -1.15 -2.35 2.95 -2.35 Q2.95 1.4 5.5 2.3" fill="#1d1616" fill-rule="evenodd" stroke="none"/>
    <path d="M-1.8 3.05 Q-4.55 1.6 -5.3 -1.65 L-5.35 -2.0 -5.45 -2.75 -5.5 -2.95 -1.15 -2.35 -1.8 3.05" fill="#392424" fill-rule="evenodd" stroke="none"/>
    <path d="M-5.5 -2.95 L-7.6 -3.15 Q-7.65 -4.7 -7.15 -6.8 0.2 -7.15 7.55 -5.2 7.55 -3.1 7.1 -1.1 6.65 0.9 5.5 2.3 2.95 1.4 2.95 -2.35 L-1.15 -2.35 -5.5 -2.95" fill="url(#gradient0)" fill-rule="evenodd" stroke="none"/>
    <path d="M-5.5 -2.95 L-7.6 -3.15 Q-7.65 -4.7 -7.15 -6.8 0.2 -7.15 7.55 -5.2 7.55 -3.1 7.1 -1.1 6.65 0.9 5.5 2.3 5.15 3.75 3.3 4.05 1.45 4.35 0.85 4.05 L-0.45 3.55 -1.5 3.2 -1.8 3.05 Q-4.55 1.6 -5.3 -1.65 L-5.35 -2.0 -5.45 -2.75 -5.5 -2.95" fill="none" stroke="#0a0707" stroke-linecap="round" stroke-linejoin="round" stroke-width="1.0"/>
    <path d="M-5.5 -2.95 L-1.15 -2.35 2.95 -2.35 Q2.95 1.4 5.5 2.3 M-1.15 -2.35 L-1.8 3.05" fill="none" stroke="#100a0a" stroke-linecap="round" stroke-linejoin="round" stroke-width="1.0"/>
  </g>
  <defs>
    <radialGradient cx="0" cy="0" gradientTransform="matrix(0.0242, 0.0, 0.0, 0.0242, -10.25, 2.85)" gradientUnits="userSpaceOnUse" id="gradient0" r="819.2" spreadMethod="pad">
      <stop offset="0.0" stop-color="#381d1d"/>
      <stop offset="0.6588235294117647" stop-color="#3e2828"/>
      <stop offset="1.0" stop-color="#774d4d"/>
    </radialGradient>
  </defs>
</svg>
