<?xml version="1.0" encoding="UTF-8" standalone="no"?>
<svg xmlns:xlink="http://www.w3.org/1999/xlink" height="109.8px" width="70.9px" xmlns="http://www.w3.org/2000/svg">
  <g transform="matrix(1.0, 0.0, 0.0, 1.0, 35.45, 0.45)">
    <path d="M1.9 35.75 Q1.45 34.9 0.5 34.5 L-1.0 34.15 -5.6 34.05 -5.6 41.9 -3.5 41.9 -0.85 41.75 Q0.2 41.55 0.95 40.95 L2.0 39.65 Q2.35 38.9 2.35 37.65 2.4 36.55 1.9 35.75 M6.45 30.25 Q8.1 31.25 9.0 32.8 9.95 34.35 9.95 36.7 9.95 40.1 8.4 42.15 6.9 44.25 4.35 45.5 L14.25 57.95 5.2 57.95 -2.95 47.2 -5.6 47.2 -5.6 57.95 -12.95 57.95 -12.95 28.6 -1.1 28.6 3.15 28.95 Q4.95 29.25 6.45 30.25 M19.55 57.85 L19.55 77.25 0.0 90.9 -19.55 77.25 -19.55 57.8 0.0 70.8 19.55 57.85" fill="#d7afaf" fill-rule="evenodd" stroke="none"/>
    <path d="M19.55 77.25 L35.0 66.5 35.0 85.3 0.0 108.9 -35.0 85.3 -35.0 66.5 -19.55 77.25 0.0 90.9 19.55 77.25" fill="#9e2222" fill-rule="evenodd" stroke="none"/>
    <path d="M6.45 30.25 Q4.95 29.25 3.15 28.95 L-1.1 28.6 -12.95 28.6 -12.95 57.95 -5.6 57.95 -5.6 47.2 -2.95 47.2 5.2 57.95 14.25 57.95 4.35 45.5 Q6.9 44.25 8.4 42.15 9.95 40.1 9.95 36.7 9.95 34.35 9.0 32.8 8.1 31.25 6.45 30.25 M1.9 35.75 Q2.4 36.55 2.35 37.65 2.35 38.9 2.0 39.65 L0.95 40.95 Q0.2 41.55 -0.85 41.75 L-3.5 41.9 -5.6 41.9 -5.6 34.05 -1.0 34.15 0.5 34.5 Q1.45 34.9 1.9 35.75 M19.55 0.0 L19.55 57.85 0.0 70.8 -19.55 57.8 -19.55 0.0 19.55 0.0" fill="url(#gradient0)" fill-rule="evenodd" stroke="none"/>
    <path d="M19.55 0.0 L35.0 0.0 35.0 66.5 19.55 77.25 19.55 57.85 19.55 0.0 M-35.0 66.5 L-35.0 0.0 -19.55 0.0 -19.55 57.8 -19.55 77.25 -35.0 66.5" fill="url(#gradient1)" fill-rule="evenodd" stroke="none"/>
    <path d="M35.0 66.5 L35.0 0.0 19.55 0.0 -19.55 0.0 -35.0 0.0 -35.0 66.5 -35.0 85.3 0.0 108.9 35.0 85.3 35.0 66.5 Z" fill="none" stroke="#571919" stroke-linecap="round" stroke-linejoin="round" stroke-width="0.9"/>
  </g>
  <defs>
    <linearGradient gradientTransform="matrix(0.0, -0.0213, 0.0213, 0.0, 0.0, 18.35)" gradientUnits="userSpaceOnUse" id="gradient0" spreadMethod="pad" x1="-819.2" x2="819.2">
      <stop offset="0.0" stop-color="#521212"/>
      <stop offset="1.0" stop-color="#851d1d"/>
    </linearGradient>
    <linearGradient gradientTransform="matrix(0.0, -0.0207, 0.0207, 0.0, 0.0, 18.4)" gradientUnits="userSpaceOnUse" id="gradient1" spreadMethod="pad" x1="-819.2" x2="819.2">
      <stop offset="0.0" stop-color="#721919"/>
      <stop offset="1.0" stop-color="#9e2222"/>
    </linearGradient>
  </defs>
</svg>
