<?xml version="1.0" encoding="UTF-8" standalone="no"?>
<svg xmlns:ffdec="https://www.free-decompiler.com/flash" xmlns:xlink="http://www.w3.org/1999/xlink" ffdec:objectType="shape" height="27.95px" width="30.35px" xmlns="http://www.w3.org/2000/svg">
  <g transform="matrix(1.0, 0.0, 0.0, 1.0, 18.0, 29.65)">
    <path d="M-16.85 -17.6 L-16.45 -17.7 -15.9 -16.95 Q-15.25 -16.2 -14.6 -16.15 L-13.05 -16.4 -11.1 -15.3 -11.1 -14.6 -10.85 -13.5 -10.15 -12.3 -10.9 -9.0" fill="none" stroke="#1e1616" stroke-linecap="round" stroke-linejoin="round" stroke-width="1.0"/>
    <path d="M-16.6 -18.5 Q-15.8 -17.15 -15.25 -16.85 L-13.1 -16.8 -10.8 -15.65 -10.65 -14.8 -10.3 -13.55 -9.6 -12.35 -10.25 -9.0" fill="none" stroke="#1c1515" stroke-linecap="round" stroke-linejoin="round" stroke-opacity="0.45490196" stroke-width="1.0"/>
    <path d="M10.85 -15.25 L9.45 -16.05 8.4 -16.65 7.5 -16.65 7.4 -16.6 6.9 -16.5 6.9 -16.55 6.6 -19.25 5.05 -19.55 4.95 -19.6 4.85 -19.6 4.2 -20.15 3.3 -21.55 3.2 -21.65 1.65 -18.7 Q1.3 -17.8 1.5 -16.35 1.5 -15.6 1.85 -15.15 L3.35 -14.15 4.5 -13.0 4.95 -11.65 5.15 -10.25 6.05 -9.5 M0.9 -24.3 L2.95 -22.05 3.3 -21.55 3.9 -20.75 Q4.45 -19.8 4.95 -19.6 L6.65 -19.35 6.9 -16.55 7.4 -16.6 8.0 -16.8 8.4 -16.65 8.65 -16.55 9.45 -16.05" fill="none" stroke="#191313" stroke-linecap="round" stroke-linejoin="round" stroke-opacity="0.5137255" stroke-width="1.0"/>
    <path d="M-1.05 -7.5 Q-0.05 -5.15 -2.3 -4.65 -4.55 -4.1 -4.95 -6.2 -2.7 -8.0 -1.05 -7.5" fill="url(#gradient0)" fill-rule="evenodd" stroke="none"/>
    <path d="M-1.05 -7.5 Q-2.7 -8.0 -4.95 -6.2 -4.55 -4.1 -2.3 -4.65 -0.05 -5.15 -1.05 -7.5 Z" fill="none" stroke="#1b1816" stroke-linecap="round" stroke-linejoin="round" stroke-width="1.0"/>
    <path d="M-2.6 -10.9 L-1.5 -7.15 Q-3.0 -5.55 -4.35 -6.45 L-5.4 -10.45 -2.6 -10.9" fill="#383535" fill-rule="evenodd" stroke="none"/>
    <path d="M-2.6 -10.9 L-1.5 -7.15 Q-3.0 -5.55 -4.35 -6.45 L-5.4 -10.45 -2.6 -10.9 Z" fill="none" stroke="#1b1816" stroke-linecap="round" stroke-linejoin="round" stroke-width="1.0"/>
    <path d="M-1.8 -10.25 Q-2.5 -9.45 -3.65 -9.3 L-5.8 -9.35 Q-6.55 -11.3 -4.35 -12.05 -2.15 -12.8 -1.8 -10.25" fill="url(#gradient1)" fill-rule="evenodd" stroke="none"/>
    <path d="M-1.8 -10.25 Q-2.5 -9.45 -3.65 -9.3 L-5.8 -9.35 Q-6.55 -11.3 -4.35 -12.05 -2.15 -12.8 -1.8 -10.25 Z" fill="none" stroke="#1b1816" stroke-linecap="round" stroke-linejoin="round" stroke-width="1.0"/>
    <path d="M-3.1 -8.0 L-3.5 -7.85" fill="none" stroke="#dcc64f" stroke-linecap="round" stroke-linejoin="round" stroke-width="1.0"/>
    <path d="M-4.6 -6.6 Q-3.6 -4.25 -5.85 -3.7 -8.1 -3.2 -8.5 -5.25 -6.35 -7.05 -4.6 -6.6" fill="url(#gradient2)" fill-rule="evenodd" stroke="none"/>
    <path d="M-4.6 -6.6 Q-6.35 -7.05 -8.5 -5.25 -8.1 -3.2 -5.85 -3.7 -3.6 -4.25 -4.6 -6.6 Z" fill="none" stroke="#1b1816" stroke-linecap="round" stroke-linejoin="round" stroke-width="1.0"/>
    <path d="M-6.15 -10.0 L-5.0 -6.25 Q-6.6 -4.65 -7.9 -5.55 L-8.95 -9.55 -6.15 -10.0" fill="#383535" fill-rule="evenodd" stroke="none"/>
    <path d="M-6.15 -10.0 L-5.0 -6.25 Q-6.6 -4.65 -7.9 -5.55 L-8.95 -9.55 -6.15 -10.0 Z" fill="none" stroke="#1b1816" stroke-linecap="round" stroke-linejoin="round" stroke-width="1.0"/>
    <path d="M-5.35 -9.3 Q-6.6 -8.0 -9.35 -8.45 -10.05 -10.4 -7.85 -11.1 -5.7 -11.85 -5.35 -9.3" fill="url(#gradient3)" fill-rule="evenodd" stroke="none"/>
    <path d="M-5.35 -9.3 Q-6.6 -8.0 -9.35 -8.45 -10.05 -10.4 -7.85 -11.1 -5.7 -11.85 -5.35 -9.3 Z" fill="none" stroke="#1b1816" stroke-linecap="round" stroke-linejoin="round" stroke-width="1.0"/>
    <path d="M-6.65 -7.1 L-7.05 -6.95" fill="none" stroke="#dcc64f" stroke-linecap="round" stroke-linejoin="round" stroke-width="1.0"/>
    <path d="M11.1 -15.75 Q11.75 -15.3 11.85 -16.15 L11.4 -18.65 10.5 -21.35 9.3 -23.1 5.9 -24.45 2.65 -27.35 Q-0.35 -29.0 -1.4 -29.05 -5.2 -29.2 -5.55 -29.0 L-6.3 -28.55 -9.0 -28.6 -10.25 -28.2 -11.35 -29.15 Q-12.65 -28.0 -13.55 -26.45 -14.85 -24.35 -14.85 -23.6 -14.8 -23.15 -15.2 -21.95 L-15.85 -21.9 -16.15 -21.4 -16.55 -20.5 -16.75 -17.85 Q-16.9 -17.8 -17.1 -17.7 L-17.5 -17.25 Q-17.5 -13.55 -15.2 -11.55 -12.95 -9.6 -11.45 -8.7 L-11.2 -9.2 -9.55 -8.5 -9.45 -7.95 -8.5 -8.2 -7.95 -5.45 -8.3 -5.3 -8.55 -5.0 -8.1 -4.35 -7.55 -3.75 -5.45 -3.95 -4.5 -3.15 Q-3.3 -2.35 -1.95 -2.3 L0.2 -2.2 1.75 -2.55 3.5 -3.15 Q4.25 -3.5 4.6 -4.0 L4.95 -4.6 6.35 -4.0 Q7.9 -6.35 7.9 -7.4 L7.75 -8.3 7.6 -8.45 Q6.5 -9.15 6.15 -9.15 5.95 -9.15 6.05 -9.5 L6.2 -9.85 9.2 -8.9 Q9.9 -8.65 10.25 -8.9 L10.85 -9.75 Q11.25 -10.35 11.5 -11.7 L11.5 -12.8 11.3 -13.3" fill="none" stroke="#000000" stroke-linecap="round" stroke-linejoin="round" stroke-opacity="0.25490198" stroke-width="1.0"/>
  </g>
  <defs>
    <radialGradient cx="0" cy="0" gradientTransform="matrix(0.0019, -9.0E-4, -0.0076, -0.0153, -2.55, -6.05)" gradientUnits="userSpaceOnUse" id="gradient0" r="819.2" spreadMethod="pad">
      <stop offset="0.0" stop-color="#241818"/>
      <stop offset="1.0" stop-color="#4d3434"/>
    </radialGradient>
    <radialGradient cx="0" cy="0" gradientTransform="matrix(0.0021, -2.0E-4, 0.0013, 0.0171, -3.85, -10.7)" gradientUnits="userSpaceOnUse" id="gradient1" r="819.2" spreadMethod="pad">
      <stop offset="0.0" stop-color="#241818"/>
      <stop offset="1.0" stop-color="#4d3434"/>
    </radialGradient>
    <radialGradient cx="0" cy="0" gradientTransform="matrix(0.0019, -9.0E-4, -0.0076, -0.0153, -6.1, -5.15)" gradientUnits="userSpaceOnUse" id="gradient2" r="819.2" spreadMethod="pad">
      <stop offset="0.0" stop-color="#241818"/>
      <stop offset="1.0" stop-color="#4d3434"/>
    </radialGradient>
    <radialGradient cx="0" cy="0" gradientTransform="matrix(0.0021, -2.0E-4, 0.0013, 0.0171, -7.4, -9.75)" gradientUnits="userSpaceOnUse" id="gradient3" r="819.2" spreadMethod="pad">
      <stop offset="0.0" stop-color="#241818"/>
      <stop offset="1.0" stop-color="#4d3434"/>
    </radialGradient>
  </defs>
</svg>
