<?xml version="1.0" encoding="UTF-8" standalone="no"?>
<svg xmlns:ffdec="https://www.free-decompiler.com/flash" xmlns:xlink="http://www.w3.org/1999/xlink" ffdec:objectType="shape" height="29.4px" width="27.9px" xmlns="http://www.w3.org/2000/svg">
  <g transform="matrix(1.0, 0.0, 0.0, 1.0, 18.15, 33.1)">
    <path d="M1.75 -27.65 Q-3.25 -29.45 -6.8 -29.1 -4.5 -30.8 -2.0 -30.8 0.55 -30.8 1.75 -27.65" fill="#2c2c2c" fill-rule="evenodd" stroke="none"/>
    <path d="M1.9 -28.15 Q2.3 -27.05 2.2 -18.9 L1.85 -9.35 Q1.7 -7.05 1.05 -5.7 -0.5 -3.9 -5.4 -4.2 -7.3 -5.05 -6.9 -7.0 -8.75 -8.85 -8.95 -17.8 -9.15 -26.4 -7.95 -28.3 -6.4 -29.3 -4.5 -29.55 -1.35 -30.0 1.9 -28.15" fill="#2f313a" fill-rule="evenodd" stroke="none"/>
    <path d="M-6.8 -29.1 Q-4.5 -30.8 -2.0 -30.8 0.55 -30.8 1.75 -27.65 M1.95 -19.85 Q2.5 -18.4 1.85 -9.35 1.7 -7.05 1.05 -5.7 -0.5 -3.9 -5.4 -4.2 -7.0 -3.85 -8.5 -13.15 -10.05 -22.45 -8.6 -24.25" fill="none" stroke="#111216" stroke-linecap="round" stroke-linejoin="round" stroke-width="0.9"/>
    <path d="M1.75 -26.8 L3.25 -25.0 4.9 -22.65 Q5.2 -21.85 5.1 -20.85 L4.05 -14.25 3.75 -13.15 Q4.35 -12.25 4.3 -11.45 4.25 -10.5 4.5 -9.95 L3.85 -9.45 3.25 -8.95 Q2.85 -9.1 2.4 -9.85 L1.5 -11.25 -1.45 -14.85 Q-2.15 -15.9 -1.95 -17.45 L-1.45 -21.95 Q-1.4 -22.95 0.1 -24.6 0.85 -25.45 1.2 -26.7 L1.75 -26.8" fill="url(#gradient0)" fill-rule="evenodd" stroke="none"/>
    <path d="M1.75 -26.8 L3.25 -25.0 4.9 -22.65 Q5.2 -21.85 5.1 -20.85 L4.05 -14.25 3.75 -13.15 Q4.35 -12.25 4.3 -11.45 4.25 -10.5 4.5 -9.95 L3.85 -9.45 3.25 -8.95 Q2.85 -9.1 2.4 -9.85 L1.5 -11.25 -1.45 -14.85 Q-2.15 -15.9 -1.95 -17.45 L-1.45 -21.95 Q-1.4 -22.95 0.1 -24.6 0.85 -25.45 1.2 -26.7 L1.75 -26.8 Z" fill="none" stroke="#25272a" stroke-linecap="round" stroke-linejoin="round" stroke-width="0.9"/>
    <path d="M8.5 -18.55 Q7.7 -16.5 6.35 -16.1 5.05 -15.75 3.05 -16.8 L2.25 -18.55 Q2.1 -19.6 2.9 -20.75 4.85 -21.6 4.0 -23.3 2.35 -25.55 1.75 -27.05 4.5 -26.45 6.65 -23.3 8.6 -20.55 8.5 -18.55" fill="url(#gradient1)" fill-rule="evenodd" stroke="none"/>
    <path d="M-7.85 -30.05 L-6.8 -25.65 -5.75 -22.1 Q-5.6 -21.45 -6.25 -19.15 -5.5 -16.05 -8.35 -15.75 -11.15 -15.45 -12.45 -17.35 -11.8 -17.6 -11.35 -17.9 -10.55 -18.4 -10.55 -19.5 L-11.0 -20.65 -11.65 -22.0 Q-12.75 -26.35 -13.35 -27.75 L-11.45 -30.25 -11.2 -29.7 Q-10.75 -29.2 -9.9 -29.2 -8.55 -29.2 -7.85 -30.05" fill="#363636" fill-rule="evenodd" stroke="none"/>
    <path d="M-7.85 -30.05 L-6.8 -25.65 -5.75 -22.1 Q-5.6 -21.45 -6.25 -19.15 -5.5 -16.05 -8.35 -15.75 -11.15 -15.45 -12.45 -17.35 -11.8 -17.6 -11.35 -17.9 -10.55 -18.4 -10.55 -19.5 L-11.0 -20.65 -11.65 -22.0 Q-12.75 -26.35 -13.35 -27.75 L-11.45 -30.25 -11.2 -29.7 Q-10.75 -29.2 -9.9 -29.2 -8.55 -29.2 -7.85 -30.05 Z" fill="none" stroke="#25272a" stroke-linecap="round" stroke-linejoin="round" stroke-width="0.9"/>
    <path d="M-5.0 -13.4 Q-6.75 -13.2 -7.1 -12.8 -7.4 -12.5 -7.7 -10.65 L-9.15 -10.85 Q-11.65 -13.45 -12.2 -14.35 -12.55 -14.9 -12.5 -16.45 L-12.4 -17.9 -11.65 -18.4 -10.75 -18.35 Q-8.4 -16.55 -7.55 -16.65 -6.85 -16.7 -6.85 -18.05 -6.2 -19.65 -4.55 -19.95 L-1.4 -20.4 Q-1.35 -19.8 -1.65 -17.95 L-1.7 -15.95 Q-1.4 -15.4 -2.9 -14.45 L-5.0 -13.4" fill="url(#gradient2)" fill-rule="evenodd" stroke="none"/>
    <path d="M-5.0 -13.4 Q-6.75 -13.2 -7.1 -12.8 -7.4 -12.5 -7.7 -10.65 L-9.15 -10.85 Q-11.65 -13.45 -12.2 -14.35 -12.55 -14.9 -12.5 -16.45 L-12.4 -17.9 -11.65 -18.4 -10.75 -18.35 Q-8.4 -16.55 -7.55 -16.65 -6.85 -16.7 -6.85 -18.05 -6.2 -19.65 -4.55 -19.95 L-1.4 -20.4 Q-1.35 -19.8 -1.65 -17.95 L-1.7 -15.95 Q-1.4 -15.4 -2.9 -14.45 L-5.0 -13.4 Z" fill="none" stroke="#313337" stroke-linecap="butt" stroke-linejoin="miter-clip" stroke-miterlimit="11.33984375" stroke-width="0.9"/>
    <path d="M-13.2 -31.2 L-12.15 -30.75 -10.95 -30.05 -10.55 -28.05 Q-10.2 -26.05 -10.35 -25.35 -10.4 -25.0 -11.45 -24.45 L-12.55 -23.85 Q-12.75 -23.45 -13.95 -23.0 L-15.5 -22.6 -16.35 -23.35 -16.9 -24.15 -17.25 -27.35 Q-17.6 -30.7 -17.35 -31.15 L-15.7 -31.05 -14.4 -30.35 -13.2 -31.2" fill="url(#gradient3)" fill-rule="evenodd" stroke="none"/>
    <path d="M-13.2 -31.2 L-12.15 -30.75 -10.95 -30.05 -10.55 -28.05 Q-10.2 -26.05 -10.35 -25.35 -10.4 -25.0 -11.45 -24.45 L-12.55 -23.85 Q-12.75 -23.45 -13.95 -23.0 L-15.5 -22.6 -16.35 -23.35 -16.9 -24.15 -17.25 -27.35 Q-17.6 -30.7 -17.35 -31.15 L-15.7 -31.05 -14.4 -30.35 -13.2 -31.2 Z" fill="none" stroke="#513817" stroke-linecap="butt" stroke-linejoin="miter-clip" stroke-miterlimit="11.33984375" stroke-width="0.9"/>
    <path d="M-7.95 -31.9 Q-6.95 -31.6 -6.85 -31.4 -6.75 -31.1 -5.55 -30.35 -7.05 -23.9 -8.1 -23.9 L-10.45 -24.1 Q-12.0 -24.3 -11.6 -24.6 -9.8 -26.0 -11.05 -28.85 -12.35 -31.7 -13.8 -31.05 L-11.5 -32.15 -9.3 -32.3 -7.95 -31.9" fill="url(#gradient4)" fill-rule="evenodd" stroke="none"/>
    <path d="M-7.95 -31.9 Q-6.95 -31.6 -6.85 -31.4 -6.75 -31.1 -5.55 -30.35 -7.05 -23.9 -8.1 -23.9 L-10.45 -24.1 Q-12.0 -24.3 -11.6 -24.6 -9.8 -26.0 -11.05 -28.85 -12.35 -31.7 -13.8 -31.05 L-11.5 -32.15 -9.3 -32.3 -7.95 -31.9 Z" fill="none" stroke="#2f3134" stroke-linecap="round" stroke-linejoin="round" stroke-width="0.9"/>
    <path d="M8.4 -18.35 Q7.95 -16.95 7.2 -16.25 L5.45 -14.95 Q4.35 -12.65 4.0 -12.5 L3.0 -11.75 2.3 -11.8 1.7 -12.85 Q1.3 -13.65 1.4 -14.7 L1.9 -16.4 2.55 -17.4 Q3.35 -16.6 4.8 -16.25 L7.05 -16.2 8.4 -18.35" fill="url(#gradient5)" fill-rule="evenodd" stroke="none"/>
    <path d="M8.4 -18.35 Q7.95 -16.95 7.2 -16.25 L5.45 -14.95 Q4.35 -12.65 4.0 -12.5 L3.0 -11.75 2.3 -11.8 1.7 -12.85 Q1.3 -13.65 1.4 -14.7 L1.9 -16.4 2.55 -17.4 Q3.35 -16.6 4.8 -16.25 L7.05 -16.2" fill="none" stroke="#373a3e" stroke-linecap="butt" stroke-linejoin="miter-clip" stroke-miterlimit="11.33984375" stroke-width="0.9"/>
    <path d="M-14.65 -22.85 L-13.7 -23.15 Q-13.2 -23.15 -12.7 -23.8 -11.65 -23.15 -11.25 -22.1 L-10.6 -20.35 Q-10.35 -19.6 -10.7 -18.95 -11.05 -18.35 -11.4 -18.5 L-13.0 -17.3 Q-14.85 -19.55 -14.65 -22.85" fill="#00dab5" fill-opacity="0.6117647" fill-rule="evenodd" stroke="none"/>
    <path d="M-14.65 -22.85 Q-14.85 -19.55 -13.0 -17.3 L-11.4 -18.5 Q-11.05 -18.35 -10.7 -18.95 -10.35 -19.6 -10.6 -20.35 L-11.25 -22.1 Q-11.65 -23.15 -12.7 -23.8 -13.2 -23.15 -13.7 -23.15 L-14.65 -22.85 Z" fill="none" stroke="#000000" stroke-linecap="butt" stroke-linejoin="miter-clip" stroke-miterlimit="11.33984375" stroke-opacity="0.41960785" stroke-width="0.9"/>
    <path d="M1.7 -9.1 L2.2 -12.0 Q3.7 -11.8 4.4 -13.3 5.2 -15.1 5.55 -15.25 6.9 -15.8 7.6 -16.9 8.05 -17.5 8.35 -19.3 7.45 -21.95 6.85 -22.85 5.4 -25.0 2.05 -27.2" fill="none" stroke="#010100" stroke-linecap="round" stroke-linejoin="round" stroke-opacity="0.20392157" stroke-width="0.9"/>
    <path d="M-7.85 -10.65 L-9.15 -10.85 -10.2 -12.05 Q-11.55 -12.85 -11.9 -14.85 -12.25 -16.85 -12.75 -17.1 -14.3 -18.85 -14.45 -19.5 L-14.45 -22.85 -15.95 -22.65 -16.6 -23.5 -16.95 -24.65 -16.45 -27.4 -15.65 -28.95 -14.55 -30.35 -13.65 -31.35 -10.6 -32.4 -9.15 -32.15 -8.25 -31.75" fill="none" stroke="#010100" stroke-linecap="round" stroke-linejoin="round" stroke-opacity="0.3647059" stroke-width="0.9"/>
    <path d="M2.15 -18.55 Q2.0 -19.6 2.8 -20.75 4.75 -21.6 3.9 -23.3 2.25 -25.55 1.65 -27.05 4.4 -26.45 6.55 -23.3 8.5 -20.55 8.4 -18.55 7.6 -16.5 6.25 -16.1 4.95 -15.75 2.95 -16.8 L2.15 -18.55 Z" fill="none" stroke="#523917" stroke-linecap="butt" stroke-linejoin="miter-clip" stroke-miterlimit="11.33984375" stroke-width="0.9"/>
  </g>
  <defs>
    <radialGradient cx="0" cy="0" gradientTransform="matrix(0.0403, 0.0014, 3.0E-4, 0.0224, 14.45, -20.5)" gradientUnits="userSpaceOnUse" id="gradient0" r="819.2" spreadMethod="pad">
      <stop offset="0.0" stop-color="#151515"/>
      <stop offset="1.0" stop-color="#636c6a"/>
    </radialGradient>
    <radialGradient cx="0" cy="0" gradientTransform="matrix(0.016, 9.0E-4, -8.0E-4, 0.0225, -3.5, -24.35)" gradientUnits="userSpaceOnUse" id="gradient1" r="819.2" spreadMethod="pad">
      <stop offset="0.0" stop-color="#7c3b18"/>
      <stop offset="1.0" stop-color="#bda131"/>
    </radialGradient>
    <radialGradient cx="0" cy="0" gradientTransform="matrix(0.0088, 5.0E-4, -0.0015, 0.0282, -8.1, -17.0)" gradientUnits="userSpaceOnUse" id="gradient2" r="819.2" spreadMethod="pad">
      <stop offset="0.0" stop-color="#363a43"/>
      <stop offset="1.0" stop-color="#dbdce1"/>
    </radialGradient>
    <linearGradient gradientTransform="matrix(0.016, -5.0E-4, 5.0E-4, 0.0163, -17.35, -27.0)" gradientUnits="userSpaceOnUse" id="gradient3" spreadMethod="pad" x1="-819.2" x2="819.2">
      <stop offset="0.0" stop-color="#8e3a0e"/>
      <stop offset="1.0" stop-color="#dbb531"/>
    </linearGradient>
    <radialGradient cx="0" cy="0" gradientTransform="matrix(0.0311, -4.0E-4, 0.0, 0.01, -15.2, -30.2)" gradientUnits="userSpaceOnUse" id="gradient4" r="819.2" spreadMethod="pad">
      <stop offset="0.0" stop-color="#444954"/>
      <stop offset="1.0" stop-color="#dbdce1"/>
    </radialGradient>
    <radialGradient cx="0" cy="0" gradientTransform="matrix(0.0168, 4.0E-4, -1.0E-4, 0.0218, 9.1, -17.35)" gradientUnits="userSpaceOnUse" id="gradient5" r="819.2" spreadMethod="pad">
      <stop offset="0.0" stop-color="#444954"/>
      <stop offset="1.0" stop-color="#dbdce1"/>
    </radialGradient>
  </defs>
</svg>
