<?xml version="1.0" encoding="UTF-8" standalone="no"?>
<svg xmlns:ffdec="https://www.free-decompiler.com/flash" xmlns:xlink="http://www.w3.org/1999/xlink" ffdec:objectType="shape" height="32.1px" width="32.45px" xmlns="http://www.w3.org/2000/svg">
  <g transform="matrix(1.0, 0.0, 0.0, 1.0, 19.55, 35.05)">
    <path d="M-6.55 -5.15 Q-10.7 -14.05 -10.95 -15.75 -11.1 -16.85 -7.45 -17.55 L-2.75 -18.0 Q-1.9 -18.0 2.0 -14.95 L5.7 -11.9 Q6.05 -12.0 5.7 -9.85 5.4 -7.65 4.85 -6.9 L3.9 -4.45 Q-0.35 -1.15 -6.15 -5.2 L-6.55 -5.15" fill="#7e6a3d" fill-rule="evenodd" stroke="none"/>
    <path d="M-7.5 -34.3 Q-6.35 -31.6 -1.45 -31.05 2.8 -30.2 4.3 -29.0 -6.75 -27.8 -7.5 -34.3" fill="#887c61" fill-rule="evenodd" stroke="none"/>
    <path d="M4.3 -29.0 L5.9 -27.6 6.25 -26.45 8.35 -24.95 10.05 -23.0 11.15 -20.75 Q11.65 -17.35 10.6 -15.0 L7.65 -10.55 3.85 -12.0 2.0 -13.2 0.15 -15.9 -5.9 -16.75 -7.3 -16.2 -8.75 -16.25 -12.05 -18.4 Q-13.7 -21.75 -13.4 -26.55 -13.3 -27.95 -12.35 -29.85 L-11.0 -32.6 -9.4 -34.2 -7.5 -34.3 Q-6.75 -27.8 4.3 -29.0" fill="#c5ad75" fill-rule="evenodd" stroke="none"/>
    <path d="M-9.85 -32.55 Q-11.25 -28.6 -11.4 -26.2 -11.4 -25.8 -12.35 -25.8 -13.3 -25.75 -13.3 -25.4 -13.5 -21.8 -11.9 -18.4 L-8.65 -16.65 Q-7.85 -16.3 -7.3 -15.65 L-7.3 -12.05 Q-9.6 -12.2 -12.55 -13.0 -16.05 -13.9 -18.1 -15.1 L-18.7 -18.9 -17.45 -20.7 -17.6 -25.15 -19.25 -26.9 Q-19.1 -30.45 -18.1 -32.0 L-13.35 -32.6 -9.85 -32.55" fill="#aa844d" fill-rule="evenodd" stroke="none"/>
    <path d="M7.8 -24.55 L7.2 -24.2 Q6.9 -24.2 5.75 -25.35 L5.6 -27.2 Q5.5 -27.9 5.8 -28.15 L7.75 -27.75 9.15 -26.75 Q11.9 -24.6 12.2 -21.2 L11.7 -20.75 Q11.2 -20.35 10.9 -20.35 L9.8 -20.4 Q9.55 -20.55 9.55 -21.2 L9.6 -21.85 Q8.95 -24.1 7.8 -24.55" fill="#d3b367" fill-rule="evenodd" stroke="none"/>
    <path d="M11.55 -20.3 L9.6 -20.5 9.4 -22.2 Q8.7 -23.6 7.2 -24.5 5.9 -25.25 5.9 -25.7 L5.85 -26.7 Q5.85 -27.5 6.2 -28.05" fill="none" stroke="#6a5d3f" stroke-linecap="round" stroke-linejoin="round" stroke-width="0.9500000000000001"/>
    <path d="M-2.15 -16.1 L-10.45 -17.3 Q-10.0 -16.75 -8.85 -16.5 -7.9 -16.0 -7.8 -14.1 -7.55 -11.85 -8.55 -11.25 -9.75 -10.5 -12.35 -12.75 -16.1 -12.7 -17.45 -14.2 -18.55 -15.45 -18.05 -18.05 L-17.1 -18.4 -12.1 -18.2 -10.45 -17.35 -5.1 -16.75 -2.15 -16.1 M7.45 -9.75 Q6.3 -9.7 4.6 -10.45 3.35 -11.0 2.75 -11.5 L2.05 -12.05 0.75 -15.55 4.35 -15.15 6.0 -14.8 10.05 -13.4 9.7 -11.15 Q8.8 -9.75 7.45 -9.75" fill="#b99d5b" fill-rule="evenodd" stroke="none"/>
    <path d="M-10.25 -31.95 L-10.7 -28.25 -11.55 -25.65 Q-13.3 -27.95 -14.9 -28.8 L-18.9 -30.85 Q-16.8 -34.65 -13.6 -34.6 -10.7 -34.6 -10.35 -32.35 L-10.25 -31.95" fill="#d3b367" fill-rule="evenodd" stroke="none"/>
    <path d="M9.2 -11.1 Q8.65 -9.4 7.65 -9.35 L7.4 -9.25 Q6.4 -8.9 5.45 -9.9 L2.4 -12.1 2.1 -12.3 1.75 -13.6 1.1 -15.15 -0.3 -16.0 -5.25 -16.55 -7.45 -15.7 -7.5 -15.75 -7.65 -15.7 -7.45 -12.15 -7.45 -12.05 -9.05 -10.5 -7.45 -12.15 -7.75 -15.4 -9.8 -16.85 -11.3 -17.65 -11.4 -18.0 -11.85 -18.3 -11.85 -18.35 -12.2 -18.55 -16.0 -18.55 -17.9 -17.05 -16.1 -18.65 -11.9 -18.55 -12.05 -18.6 Q-13.2 -22.35 -13.2 -23.25 L-13.1 -25.4 -11.9 -25.65 -12.35 -26.55 -13.95 -28.15 -15.4 -29.15 -18.35 -30.95 M-10.45 -33.75 L-10.2 -32.45 -10.6 -27.7 -11.65 -25.8 -11.65 -25.75 -11.7 -25.7 -11.85 -25.5 -11.9 -25.65 -11.7 -25.7 -11.65 -25.8 -12.35 -26.55 -13.3 -27.75 -15.4 -29.15 M-7.5 -15.75 L-5.25 -16.55 -0.65 -16.2 -3.35 -16.5 -5.8 -16.65 Q-7.8 -16.5 -9.1 -16.7 L-7.5 -15.75 M-9.1 -16.7 L-9.8 -16.85 -11.4 -18.0 -11.45 -18.1 -11.85 -18.35 -11.9 -18.55 -12.3 -20.1 -11.45 -18.1 -9.1 -16.7 M1.75 -13.6 L1.45 -14.75 2.6 -15.05 4.5 -15.25 9.75 -13.4 10.1 -14.5 M2.4 -12.1 L1.75 -13.6 M2.4 -12.1 L5.35 -10.2 Q7.05 -9.35 7.65 -9.35" fill="none" stroke="#6a5d3f" stroke-linecap="round" stroke-linejoin="round" stroke-width="0.9500000000000001"/>
    <path d="M-18.8 -31.15 Q-16.3 -34.9 -13.5 -34.6 L-11.2 -34.1 -8.7 -34.3 -7.35 -34.1 -6.85 -33.5 Q-6.1 -32.8 -4.95 -32.25 -3.9 -31.75 -2.15 -31.35 L0.0 -30.85 1.5 -30.35 2.7 -29.85 Q3.25 -29.45 4.3 -29.15 L5.0 -28.3 6.4 -28.0 Q7.95 -27.55 9.0 -26.7 L11.15 -24.25 Q12.1 -22.85 12.25 -22.1 L12.45 -21.15 11.4 -20.4 11.5 -18.95 11.5 -16.75 Q11.3 -15.75 9.65 -13.45 L9.4 -11.3 Q8.9 -9.95 8.2 -9.55 L6.85 -9.35 Q5.65 -9.15 4.75 -6.3 3.85 -3.55 1.4 -3.45 -4.0 -3.6 -5.55 -4.45 -6.3 -4.9 -7.2 -6.9 L-8.3 -9.35 -9.3 -11.25 Q-10.05 -11.8 -12.65 -12.3 L-15.65 -13.15 Q-16.35 -13.45 -17.4 -14.5 L-18.35 -19.2 -17.0 -20.95 -17.3 -25.25 -19.1 -27.3 -18.45 -30.6 -18.8 -31.15 Z" fill="none" stroke="#504630" stroke-linecap="round" stroke-linejoin="round" stroke-width="0.9500000000000001"/>
    <path d="M-8.5 -21.85 L-9.05 -24.15" fill="none" stroke="#8d7b53" stroke-linecap="round" stroke-linejoin="round" stroke-width="0.9500000000000001"/>
    <path d="M8.5 -18.2 L7.2 -19.2" fill="none" stroke="#8d7b53" stroke-linecap="round" stroke-linejoin="round" stroke-width="0.9500000000000001"/>
    <path d="M7.65 -16.65 L4.95 -18.25" fill="none" stroke="#8d7b53" stroke-linecap="round" stroke-linejoin="round" stroke-width="0.9500000000000001"/>
    <path d="M-15.05 -31.95 L-16.85 -33.0 -18.55 -30.95 -18.55 -29.4 -19.05 -27.05 -17.25 -25.25 -16.75 -21.25 -18.35 -19.15 -17.4 -14.9 -15.0 -13.1 -13.95 -12.8 -12.05 -12.1 Q-10.85 -11.6 -8.85 -15.8" fill="none" stroke="#504630" stroke-linecap="round" stroke-linejoin="round" stroke-opacity="0.30980393" stroke-width="0.9500000000000001"/>
  </g>
</svg>
