<?xml version="1.0" encoding="UTF-8" standalone="no"?>
<svg xmlns:ffdec="https://www.free-decompiler.com/flash" xmlns:xlink="http://www.w3.org/1999/xlink" ffdec:objectType="shape" height="29.1px" width="31.55px" xmlns="http://www.w3.org/2000/svg">
  <g transform="matrix(1.0, 0.0, 0.0, 1.0, 19.6, 29.8)">
    <path d="M-2.3 -10.85 L4.9 -11.15 5.15 -5.0 -2.05 -4.7 -2.3 -10.85" fill="#000000" fill-rule="evenodd" stroke="none"/>
    <path d="M3.45 -10.2 L3.55 -10.1 3.65 -9.55 3.35 -5.5 3.2 -5.15 2.85 -5.15 Q2.55 -5.15 2.55 -5.45 L2.55 -9.65 2.6 -10.05 3.0 -10.2 3.45 -10.2" fill="url(#gradient0)" fill-rule="evenodd" stroke="none"/>
    <path d="M2.55 -5.2 L2.5 -10.2 3.5 -10.25 3.7 -9.9 3.35 -5.2 3.1 -5.0 2.55 -5.2 Z" fill="none" stroke="#2e2e2e" stroke-linecap="round" stroke-linejoin="round" stroke-width="0.55"/>
    <path d="M2.7 -9.2 L3.5 -9.2 M2.7 -8.05 L3.4 -8.0" fill="none" stroke="#2e2e2e" stroke-linecap="round" stroke-linejoin="round" stroke-width="0.45"/>
    <path d="M0.3 -9.25 Q0.2 -9.5 0.25 -9.65 L0.65 -9.9 1.05 -10.0 1.2 -9.9 1.4 -9.4 2.15 -5.45 2.1 -5.0 1.75 -4.95 1.4 -5.15 0.3 -9.25" fill="url(#gradient1)" fill-rule="evenodd" stroke="none"/>
    <path d="M1.45 -4.95 L0.15 -9.75 1.1 -10.1 1.35 -9.8 2.2 -5.15 2.05 -4.9 1.45 -4.95 Z" fill="none" stroke="#2e2e2e" stroke-linecap="round" stroke-linejoin="round" stroke-width="0.55"/>
    <path d="M0.6 -8.85 L1.35 -9.05 M0.9 -7.7 L1.55 -7.85" fill="none" stroke="#2e2e2e" stroke-linecap="round" stroke-linejoin="round" stroke-width="0.45"/>
    <path d="M-0.75 -9.05 L-0.6 -9.0 -0.35 -8.5 0.75 -4.6 0.75 -4.2 Q0.65 -4.0 0.4 -4.1 0.15 -4.0 0.05 -4.25 L-1.45 -8.2 -1.5 -8.65 -1.15 -8.9 -0.75 -9.05" fill="url(#gradient2)" fill-rule="evenodd" stroke="none"/>
    <path d="M0.1 -4.05 L-1.65 -8.7 Q-1.15 -8.9 -0.7 -9.15 L-0.45 -8.85 0.85 -4.35 0.7 -4.05 0.1 -4.05 Z" fill="none" stroke="#2e2e2e" stroke-linecap="round" stroke-linejoin="round" stroke-width="0.55"/>
    <path d="M-1.1 -7.85 L-0.4 -8.15 M-0.7 -6.75 L-0.05 -6.95" fill="none" stroke="#2e2e2e" stroke-linecap="round" stroke-linejoin="round" stroke-width="0.45"/>
    <path d="M-1.55 -8.1 Q-1.15 -7.55 0.3 -7.05 0.55 -8.45 -0.2 -9.0 M0.05 -4.65 Q-0.15 -5.15 0.25 -6.95 L0.3 -7.05 0.7 -6.9 1.2 -6.75 1.5 -7.35 2.0 -8.25 1.65 -9.9 M2.95 -10.25 L2.0 -8.25 2.2 -7.15 2.25 -6.3 3.35 -5.55 M1.2 -6.75 L2.25 -6.3 1.7 -4.35 M1.2 -6.75 Q0.55 -5.4 0.35 -4.25" fill="none" stroke="#1b0b0b" stroke-linecap="round" stroke-linejoin="round" stroke-width="0.45"/>
    <path d="M0.4 -8.5 Q-1.5 -7.4 -1.25 -5.65 -0.85 -5.2 0.4 -4.85 L2.25 -5.8 Q3.25 -6.25 3.35 -7.65 3.6 -9.0 3.95 -9.55 L3.55 -10.4 0.4 -8.5 M2.75 -25.8 L5.2 -25.75 8.25 -24.1 9.05 -23.35 9.6 -22.85 9.95 -22.25 Q10.5 -19.0 9.9 -14.95 L9.4 -14.4 8.85 -13.9 5.6 -6.8 Q5.05 -5.7 5.4 -5.25 5.95 -4.55 6.05 -3.4 L5.9 -2.9 5.45 -2.55 Q5.25 -2.35 4.85 -2.25 L4.15 -2.15 Q1.15 -1.85 -1.75 -2.85 L-2.4 -3.1 -2.95 -3.5 -3.25 -4.2 Q-3.05 -5.45 -3.15 -7.15 -3.15 -8.8 -3.8 -11.5 -3.95 -11.9 -3.5 -12.25 L-3.15 -12.65 Q-2.9 -12.9 -2.95 -13.15 L-4.0 -17.65 -4.3 -19.8 -4.85 -20.35 -5.45 -20.8 -5.4 -22.15 -4.95 -23.8 -2.4 -25.75 -2.3 -25.8 -2.3 -25.75 2.75 -25.8" fill="#e38902" fill-rule="evenodd" stroke="none"/>
    <path d="M-2.9 -8.5 L0.2 -8.8 Q2.6 -9.2 3.75 -10.05 5.55 -11.35 6.65 -12.8 L7.2 -13.5 8.35 -13.7 8.4 -13.7 Q8.6 -13.7 8.65 -13.5 L8.6 -13.2 5.85 -7.25 5.45 -6.4 Q5.25 -5.9 5.35 -5.5 L5.9 -4.55 6.15 -3.15 5.45 -2.5 4.95 -2.3 4.4 -2.2 Q1.0 -1.75 -2.25 -3.15 L-2.95 -3.55 -3.2 -4.2 Q-2.95 -6.2 -3.1 -7.95 -3.2 -8.45 -2.9 -8.5" fill="#120b00" fill-opacity="0.35686275" fill-rule="evenodd" stroke="none"/>
    <path d="M9.8 -22.3 L9.15 -21.85 9.8 -21.3 8.9 -18.6 9.85 -18.0 Q9.4 -17.05 7.9 -15.45 L8.7 -14.35" fill="none" stroke="#382200" stroke-linecap="round" stroke-linejoin="round" stroke-width="0.8500000000000001"/>
    <path d="M9.05 -13.9 L8.9 -13.7 6.1 -7.5 5.55 -6.3 Q5.25 -5.65 5.55 -5.3 6.15 -4.6 6.25 -3.0 L5.2 -2.15 Q0.8 -1.25 -3.25 -3.35 L-3.3 -3.75 -3.5 -4.05 Q-2.9 -7.05 -4.05 -11.75 L-3.55 -12.45 Q-3.05 -12.9 -3.1 -13.15 -4.25 -17.85 -4.4 -19.65 L-5.05 -20.25 -5.7 -20.85 -5.35 -23.35 Q-5.3 -24.0 -4.1 -24.85 L-2.4 -25.95 5.25 -25.95 Q7.05 -24.95 8.8 -24.0 L9.45 -23.2 10.1 -22.4 Q10.7 -18.85 10.05 -14.9 L9.5 -14.3 9.05 -13.9 6.65 -13.6" fill="none" stroke="#653d01" stroke-linecap="round" stroke-linejoin="round" stroke-width="0.8500000000000001"/>
    <path d="M3.75 -10.15 L3.55 -10.4 Q0.5 -8.8 -0.4 -8.0 -1.5 -7.0 -1.35 -5.75 M0.1 -4.85 L0.45 -4.9 Q2.8 -6.05 3.2 -6.8" fill="none" stroke="#653d01" stroke-linecap="round" stroke-linejoin="round" stroke-width="0.45"/>
    <path d="M-17.65 -22.55 Q-17.4 -22.6 -17.3 -22.3 L-17.1 -21.8 Q-17.0 -21.5 -17.2 -21.35 L-17.8 -20.6 -17.05 -18.85 -16.6 -18.45 -16.2 -18.15 Q-16.0 -17.9 -16.1 -17.65 -16.2 -17.5 -16.5 -17.5 L-17.0 -17.5 Q-17.3 -17.45 -17.6 -18.05 L-18.95 -20.75 -18.55 -22.1 -17.65 -22.55" fill="url(#gradient3)" fill-rule="evenodd" stroke="none"/>
    <path d="M-13.85 -13.95 L-14.1 -12.6 -13.4 -11.0 Q-13.35 -10.7 -13.65 -10.6 L-14.15 -10.7 -15.5 -12.95 Q-15.8 -13.3 -15.6 -13.85 -15.6 -14.35 -15.05 -14.65 -14.85 -14.75 -14.55 -14.45 L-14.15 -14.25 -13.85 -13.95" fill="url(#gradient4)" fill-rule="evenodd" stroke="none"/>
    <path d="M-18.25 -19.5 L-17.7 -19.75 M-17.25 -22.95 L-18.7 -22.3 -19.2 -20.75 -17.45 -17.35 -15.9 -17.35 M-14.8 -15.15 L-15.7 -14.4 -15.9 -13.3 -15.0 -11.8 Q-14.6 -11.95 -14.15 -12.15 M-15.0 -11.8 L-14.25 -10.45 -13.55 -10.4 -13.05 -10.9" fill="none" stroke="#6d1919" stroke-linecap="round" stroke-linejoin="round" stroke-width="0.8500000000000001"/>
    <path d="M-15.35 -14.05 L-15.5 -13.3 -14.85 -12.3 M-18.4 -21.95 L-18.85 -20.8 -18.6 -20.5" fill="none" stroke="#ffffff" stroke-linecap="round" stroke-linejoin="round" stroke-width="0.45"/>
    <path d="M-16.0 -23.9 L-15.85 -23.9 Q-15.5 -23.75 -15.3 -23.05 L-13.4 -22.2 -12.95 -22.05 -12.65 -21.75 Q-12.6 -21.5 -12.85 -21.3 L-13.15 -20.85 -11.7 -18.05 -11.25 -17.75 -10.75 -17.5 -9.75 -14.8 -9.25 -13.35 -10.15 -11.1 Q-10.2 -10.7 -10.85 -10.6 L-11.95 -10.4 Q-12.7 -10.65 -12.95 -10.9 L-13.7 -12.6 -13.3 -14.75 -14.85 -18.05 -15.75 -18.5 -16.3 -18.7 -16.75 -19.05 -17.4 -20.55 -16.65 -21.4 -17.0 -22.55 -17.15 -22.95 -17.05 -23.4 -16.0 -23.9" fill="#999999" fill-rule="evenodd" stroke="none"/>
    <path d="M-15.35 -24.4 L-17.45 -23.45 -16.8 -21.45 -17.65 -20.6 -16.75 -18.7 -14.95 -18.0 -13.45 -14.75 -13.95 -12.55 -13.05 -10.7 -11.75 -10.15 -10.45 -10.5" fill="none" stroke="#212121" stroke-linecap="round" stroke-linejoin="round" stroke-width="0.8500000000000001"/>
    <path d="M-13.35 -14.65 L-12.55 -14.2 -10.05 -14.9" fill="none" stroke="#212121" stroke-linecap="round" stroke-linejoin="round" stroke-width="0.8500000000000001"/>
    <path d="M-13.25 -14.45 L-14.45 -14.6 -16.0 -18.2 Q-15.65 -18.7 -14.4 -18.85 L-14.05 -18.75 -13.9 -18.25 -12.95 -14.9 Q-12.9 -14.7 -13.25 -14.45" fill="#3d3d3d" fill-rule="evenodd" stroke="none"/>
    <path d="M-13.25 -14.45 L-14.45 -14.6 -16.0 -18.2 Q-15.65 -18.7 -14.4 -18.85 L-14.05 -18.75 -13.9 -18.25 -12.95 -14.9 Q-12.9 -14.7 -13.25 -14.45 Z" fill="none" stroke="#121212" stroke-linecap="round" stroke-linejoin="round" stroke-width="0.8500000000000001"/>
    <path d="M-13.6 -20.6 L-16.1 -19.75 -15.55 -22.35 -13.6 -20.6" fill="url(#gradient5)" fill-rule="evenodd" stroke="none"/>
    <path d="M-15.3 -21.5 L-15.15 -21.05" fill="none" stroke="#999855" stroke-linecap="round" stroke-linejoin="round" stroke-width="0.45"/>
    <path d="M-11.95 -21.8 Q-11.8 -21.9 -11.35 -21.55 L-10.45 -19.85 Q-10.35 -19.55 -9.65 -19.3 -9.35 -19.25 -9.2 -18.95 L-8.95 -18.4 -7.55 -15.1 -7.6 -14.25 -7.65 -13.4 -7.1 -10.75 -7.1 -9.5 -12.75 -1.75 -13.15 -1.7 Q-13.4 -1.8 -13.35 -2.0 L-11.6 -6.4 -10.35 -7.5 -9.9 -8.6 -10.1 -10.15 -8.9 -13.4 -10.5 -17.8 -10.95 -18.0 Q-11.25 -18.05 -11.4 -18.2 L-12.35 -20.05 -12.7 -20.9 -11.95 -21.8" fill="#373737" fill-rule="evenodd" stroke="none"/>
    <path d="M-11.9 -21.85 L-11.8 -21.85 -11.5 -21.7 -11.2 -21.4 -10.55 -19.95 -10.0 -19.4 -9.3 -19.1 -8.45 -17.35 -7.55 -15.2 Q-7.45 -14.65 -7.7 -13.55 L-7.3 -11.95 Q-7.2 -11.35 -7.35 -11.2 L-8.35 -11.0 -8.65 -10.45 -9.95 -10.1 Q-10.2 -9.95 -9.95 -10.6 L-8.9 -13.4 -10.3 -17.3 -10.4 -17.65 -10.65 -17.9 -11.4 -18.2 -12.5 -20.25 -12.7 -20.6 -12.65 -21.0 -11.9 -21.85" fill="#000000" fill-opacity="0.23529412" fill-rule="evenodd" stroke="none"/>
    <path d="M-12.15 -21.85 L-12.95 -20.85 -11.5 -18.0 -10.65 -17.75 -9.05 -13.4 -10.3 -10.15 -10.05 -8.65 -10.45 -7.65 -11.75 -6.55 -13.9 -1.1 -12.6 -1.65 -6.85 -9.55" fill="none" stroke="#121212" stroke-linecap="round" stroke-linejoin="round" stroke-width="0.8500000000000001"/>
    <path d="M-9.55 -19.6 L-10.1 -19.9 -10.75 -21.3 -11.25 -21.9 -11.75 -22.55 -11.3 -23.6 Q-9.8 -24.8 -8.45 -24.95 L-7.55 -24.95 Q-7.1 -24.8 -6.8 -24.35 L-6.45 -23.7 -6.55 -21.75 -6.45 -21.05 -5.8 -20.95 -5.25 -20.75 -4.65 -20.25 -4.4 -18.6 -4.5 -18.15 -4.7 -17.7 -4.4 -16.05 -3.9 -15.25 -3.5 -14.7 Q-3.4 -14.35 -3.45 -13.85 L-3.6 -13.0 -3.3 -12.6 -3.2 -12.15 -3.2 -11.55 Q-3.1 -10.95 -3.25 -10.85 -4.15 -10.65 -4.85 -10.15 L-5.55 -9.55 Q-5.8 -9.1 -6.1 -9.25 L-6.45 -9.45 -6.65 -9.7 -7.05 -12.35 -7.35 -13.75 -7.2 -14.6 Q-7.15 -15.1 -7.25 -15.45 L-9.05 -19.35 -9.55 -19.6" fill="url(#gradient6)" fill-rule="evenodd" stroke="none"/>
    <path d="M-10.7 -24.05 L-10.45 -24.0 -9.8 -23.05 -9.4 -22.85 -8.8 -22.65 -7.5 -20.05 Q-7.3 -19.85 -7.65 -19.6 -7.7 -19.45 -8.45 -19.1 L-8.95 -19.15 Q-9.05 -19.45 -9.45 -19.55 L-10.15 -19.85 -10.85 -21.5 -11.6 -22.2 -11.7 -22.7 -11.35 -23.6 -10.7 -24.05" fill="#d8dee3" fill-rule="evenodd" stroke="none"/>
    <path d="M-5.5 -9.95 L-5.5 -11.1 -4.75 -11.45 -4.85 -14.2 -5.3 -14.5 -6.65 -19.6 -7.15 -19.85 -7.7 -19.25 -8.7 -18.85 M-10.3 -24.05 L-9.6 -23.05 -8.7 -22.9 -7.2 -19.9 -7.15 -19.85" fill="none" stroke="#8796a2" stroke-linecap="round" stroke-linejoin="round" stroke-width="0.8500000000000001"/>
    <path d="M-5.05 -17.85 L-4.95 -17.85 Q-4.7 -17.8 -4.7 -17.4 L-4.3 -15.7 -3.95 -15.3 -3.6 -14.95 -3.45 -14.6 -3.6 -13.0 -3.1 -12.3 -3.1 -11.5 Q-3.1 -10.9 -3.2 -10.85 L-3.85 -10.65 -5.5 -9.7 -5.65 -9.35 Q-5.75 -9.2 -5.95 -9.2 L-6.5 -9.5 Q-6.7 -9.6 -6.7 -10.15 -6.85 -11.75 -7.3 -13.35 L-7.3 -14.1 -7.2 -14.9 -7.35 -15.7 Q-7.6 -16.05 -7.25 -16.15 L-5.85 -16.6 -5.5 -17.6 -5.05 -17.85" fill="#0b0d0f" fill-opacity="0.40392157" fill-rule="evenodd" stroke="none"/>
    <path d="M-9.5 -22.95 L-10.05 -23.65 Q-10.45 -24.05 -10.15 -24.25 L-8.45 -24.8 -7.65 -24.75 -6.9 -24.25 -6.5 -23.55 -6.6 -21.6 -6.5 -20.9 -5.5 -20.7 -4.65 -20.0 -4.45 -18.45 Q-4.35 -18.1 -4.75 -17.55 L-4.45 -15.75 -4.2 -15.3 -3.85 -14.95 -3.55 -14.45 Q-3.45 -13.9 -3.65 -12.85 L-3.35 -12.3 -3.15 -11.4 -3.15 -11.0 Q-3.15 -10.75 -3.3 -10.65 L-4.45 -10.2 -4.8 -9.85 Q-5.05 -9.55 -5.2 -9.65 L-5.35 -10.85 -5.2 -11.15 -4.85 -11.35 -4.85 -12.15 -4.95 -14.2 -5.35 -14.5 -6.55 -19.65 Q-6.95 -19.7 -7.1 -19.9 L-8.7 -22.95 -9.5 -22.95" fill="#0b0d0f" fill-opacity="0.40392157" fill-rule="evenodd" stroke="none"/>
    <path d="M-6.1 -23.6 L-6.8 -24.65 -7.45 -25.1 -8.3 -25.15 Q-9.95 -25.1 -11.7 -23.5 L-11.95 -22.35 -11.0 -21.45 -10.25 -19.8 -9.7 -19.5 -9.15 -19.2 -7.4 -15.4 Q-7.25 -15.1 -7.4 -14.35 L-7.5 -13.35 Q-6.85 -11.3 -6.85 -9.55 L-5.75 -8.8 -5.35 -9.6 Q-4.05 -10.65 -2.9 -10.7 L-2.9 -12.3" fill="none" stroke="#121212" stroke-linecap="round" stroke-linejoin="round" stroke-width="0.8500000000000001"/>
    <path d="M-14.5 -29.2 Q-11.7 -28.85 -9.5 -27.9 L-9.1 -27.6 -8.85 -27.15 -8.3 -26.0 Q-8.15 -25.6 -8.25 -24.4 -8.25 -23.75 -8.4 -23.7 L-9.4 -23.6 Q-11.0 -23.5 -11.8 -22.6 -12.3 -22.1 -12.45 -22.15 L-14.35 -22.95 Q-14.9 -23.1 -15.05 -23.35 -15.55 -24.5 -16.1 -24.8 L-16.5 -25.05 -16.7 -25.4 -16.0 -28.0 -15.3 -28.7 -14.6 -29.2 -14.5 -29.2" fill="url(#gradient7)" fill-rule="evenodd" stroke="none"/>
    <path d="M-12.15 -21.85 Q-11.1 -23.8 -8.1 -23.4 L-8.0 -25.65 -8.2 -26.45 -9.1 -27.9 Q-11.6 -29.0 -14.75 -29.4 L-16.15 -28.25 -17.0 -25.05 Q-15.75 -24.7 -15.15 -23.15 L-12.15 -21.85 Z" fill="none" stroke="#121212" stroke-linecap="round" stroke-linejoin="round" stroke-width="0.8500000000000001"/>
    <path d="M6.55 -25.35 L6.85 -25.05 6.65 -24.75 3.55 -24.25 2.75 -24.05 2.2 -23.2 1.7 -22.75 1.35 -22.25 1.3 -20.85 2.25 -20.8 2.75 -20.8 3.2 -20.65 Q3.9 -18.35 3.65 -16.5 L3.95 -15.95 4.45 -15.6 4.75 -15.8 5.0 -15.85 6.45 -14.4 6.65 -13.95 6.4 -13.6 4.6 -13.7 1.2 -13.3 -2.25 -12.6 -2.75 -12.65 -3.05 -13.05 Q-3.0 -13.6 -3.4 -14.4 L-3.95 -15.75 -4.3 -17.85 -4.3 -19.2 Q-4.2 -20.1 -4.35 -20.55 L-5.45 -21.25 -5.9 -21.3 Q-6.15 -21.35 -6.2 -21.55 L-6.0 -24.05 -5.25 -25.1 Q-3.5 -25.9 -0.35 -26.2 3.15 -26.35 6.55 -25.35" fill="url(#gradient8)" fill-rule="evenodd" stroke="none"/>
    <path d="M-6.0 -23.35 L-6.05 -21.6 -5.25 -21.5 -4.15 -20.65 -3.7 -18.55 -4.1 -17.8 -3.85 -15.95 -3.05 -15.3" fill="none" stroke="#b3b3b3" stroke-linecap="round" stroke-linejoin="round" stroke-width="0.8500000000000001"/>
    <path d="M-6.1 -23.6 L-0.3 -23.4 -0.1 -16.9 -0.65 -15.85 -3.45 -14.9" fill="none" stroke="#151515" stroke-linecap="round" stroke-linejoin="round" stroke-width="0.8500000000000001"/>
    <path d="M6.8 -25.25 L6.95 -25.0 6.75 -24.75 3.05 -24.2 2.75 -24.05 Q2.7 -23.7 2.25 -23.25 L1.35 -22.3 1.3 -21.2 1.35 -20.8 2.65 -20.85 Q3.1 -20.85 3.2 -20.65 3.75 -18.8 3.75 -17.55 L3.65 -16.25 4.3 -15.65 4.6 -15.75 4.8 -15.9 5.1 -15.8 6.4 -14.55 6.65 -14.0 6.65 -13.7 6.4 -13.6 3.75 -13.65 -1.95 -12.65 -2.65 -12.6 -3.05 -13.0 -3.1 -14.45 -2.95 -14.9 -0.6 -15.7 -0.05 -16.7 0.15 -17.2 -0.1 -23.3 -3.1 -23.45 -6.05 -23.6 -5.3 -25.25 1.4 -26.2 5.2 -25.7 6.8 -25.25" fill="#000000" fill-opacity="0.19607843" fill-rule="evenodd" stroke="none"/>
    <path d="M7.6 -24.9 L7.2 -25.35 Q3.6 -26.55 -0.1 -26.35 -3.4 -26.25 -5.55 -25.15 L-6.2 -24.15 -6.35 -21.2 -5.4 -21.1 -4.45 -20.4 -4.05 -18.7 Q-4.0 -18.5 -4.3 -18.15 L-4.55 -17.6 -4.2 -15.85 -3.75 -15.35 -3.3 -14.9 -3.3 -13.8 -3.45 -13.0 -3.0 -12.4 1.6 -13.25 Q4.5 -13.7 6.7 -13.35" fill="none" stroke="#121212" stroke-linecap="round" stroke-linejoin="round" stroke-width="0.8500000000000001"/>
    <path d="M1.25 -19.0 L0.7 -19.25 -0.25 -19.25 -0.65 -19.1 Q-0.95 -18.9 -1.1 -18.9 L-4.35 -18.8 -4.6 -19.35 -4.35 -20.1 -1.15 -20.25 -0.55 -20.55 0.05 -20.75 1.1 -20.4 3.35 -20.5 3.45 -20.45 3.65 -20.1 3.65 -19.75 3.65 -19.35 3.45 -19.0 1.8 -18.95 1.25 -19.0" fill="#dbdbdb" fill-rule="evenodd" stroke="none"/>
    <path d="M-4.1 -19.1 L-1.2 -19.15 -0.7 -19.4 0.75 -19.5 1.4 -19.15 3.3 -19.25" fill="none" stroke="#8d8d8d" stroke-linecap="round" stroke-linejoin="round" stroke-width="0.8500000000000001"/>
    <path d="M1.4 -18.75 L3.7 -18.8 3.6 -20.65 1.15 -20.55 0.4 -20.9 -0.3 -20.9 -1.15 -20.45 -4.45 -20.25 -4.25 -18.65 -0.9 -18.7 -0.4 -19.1 0.65 -19.1 1.4 -18.75 Z" fill="none" stroke="#212121" stroke-linecap="round" stroke-linejoin="round" stroke-width="0.8500000000000001"/>
    <path d="M-1.55 -12.85 L-1.6 -13.8 Q0.8 -14.7 3.95 -14.8 L4.3 -13.8" fill="none" stroke="#121212" stroke-linecap="round" stroke-linejoin="round" stroke-width="0.8500000000000001"/>
    <path d="M5.95 -24.25 L8.0 -24.6 9.35 -24.25 9.8 -24.05 10.15 -23.7 10.05 -18.6 Q9.9 -15.7 9.45 -13.5 L9.35 -13.0 9.15 -12.55 8.7 -12.6 8.25 -12.8 Q7.55 -12.9 7.3 -13.15 L6.85 -14.55 4.65 -16.45 Q4.3 -16.55 4.3 -17.2 L3.6 -21.15 2.65 -21.15 1.7 -21.3 1.7 -22.2 2.65 -23.2 2.95 -23.55 3.25 -23.85 5.95 -24.25" fill="#333333" fill-rule="evenodd" stroke="none"/>
    <path d="M3.6 -23.95 L3.95 -23.7 3.75 -22.9 4.6 -21.8 4.65 -21.35 3.95 -21.05 Q3.8 -20.95 3.5 -21.15 L2.0 -21.1 Q1.6 -21.1 1.6 -21.45 L1.7 -22.3 2.55 -23.1 3.05 -23.75 3.6 -23.95" fill="#000000" fill-opacity="0.26666668" fill-rule="evenodd" stroke="none"/>
    <path d="M6.55 -16.85 L6.6 -16.85 7.15 -16.6 8.15 -14.3 8.15 -13.3 8.05 -13.05 7.8 -12.95 7.25 -13.15 6.8 -14.55 5.45 -15.95 Q5.3 -16.05 5.3 -16.2 L5.4 -16.45 6.55 -16.85" fill="#000000" fill-opacity="0.26666668" fill-rule="evenodd" stroke="none"/>
    <path d="M1.5 -22.25 L2.3 -23.1 2.9 -24.0 8.4 -24.8 10.3 -24.0 10.2 -17.85 Q9.95 -14.5 9.3 -12.05 8.15 -12.8 7.15 -12.85 L6.7 -14.45 5.6 -15.6 Q4.95 -16.2 4.2 -16.4 L3.45 -21.0 1.45 -20.95 1.5 -22.25 Z" fill="none" stroke="#121212" stroke-linecap="round" stroke-linejoin="round" stroke-width="0.8500000000000001"/>
    <path d="M7.9 -22.4 L8.8 -22.3 9.25 -22.2 9.55 -21.95 9.7 -19.7 9.6 -16.85 Q9.6 -16.45 9.25 -16.45 L7.0 -17.1 6.25 -17.1 Q5.4 -16.95 4.5 -16.25 4.35 -16.1 4.15 -16.25 L4.05 -16.55 Q4.25 -18.05 3.7 -20.1 3.45 -20.55 3.9 -20.65 6.5 -21.6 7.9 -22.4" fill="#dbdbdb" fill-rule="evenodd" stroke="none"/>
    <path d="M7.65 -22.0 L7.8 -20.35 Q7.8 -19.55 6.7 -18.4 5.6 -17.3 5.65 -16.95" fill="none" stroke="#252525" stroke-linecap="round" stroke-linejoin="round" stroke-width="0.8500000000000001"/>
    <path d="M7.95 -22.4 L9.0 -22.25 9.55 -21.95 9.7 -20.6 9.6 -16.8 Q9.6 -16.35 9.25 -16.45 L7.0 -17.1 6.45 -17.15 5.95 -17.2 Q4.9 -16.1 6.05 -17.7 7.5 -19.25 7.8 -20.25 L7.7 -21.95 Q7.6 -22.4 7.95 -22.4" fill="#000000" fill-opacity="0.35686275" fill-rule="evenodd" stroke="none"/>
    <path d="M9.9 -23.3 L10.6 -23.0 10.95 -22.8 11.2 -22.45 Q11.55 -20.1 11.25 -16.05 L11.25 -15.65 11.1 -15.3 10.3 -15.0 Q10.05 -14.9 9.85 -15.1 L9.7 -15.5 Q10.15 -17.65 10.0 -20.3 L9.7 -22.75 Q9.6 -23.25 9.9 -23.3" fill="#999999" fill-rule="evenodd" stroke="none"/>
    <path d="M10.8 -22.95 L10.9 -22.65 Q11.25 -21.15 11.2 -18.85 11.2 -16.5 10.85 -15.25 L11.2 -15.45" fill="none" stroke="#ffffff" stroke-linecap="round" stroke-linejoin="round" stroke-width="0.8500000000000001"/>
    <path d="M9.8 -23.55 L11.35 -22.75 11.55 -19.0 11.4 -15.2 9.95 -14.8 9.45 -15.2 Q10.2 -18.2 9.7 -22.35 L9.4 -23.2 9.8 -23.55 Z" fill="none" stroke="#212121" stroke-linecap="round" stroke-linejoin="round" stroke-width="0.8500000000000001"/>
    <path d="M9.5 -22.3 L7.95 -22.6 Q6.35 -21.7 3.35 -20.65 4.15 -17.95 3.8 -16.3 L4.45 -15.75 5.4 -16.65 6.65 -17.0 9.45 -16.2" fill="none" stroke="#212121" stroke-linecap="round" stroke-linejoin="round" stroke-width="0.8500000000000001"/>
    <path d="M7.8 -12.55 L7.4 -10.0 M8.4 -12.4 L7.75 -10.05" fill="none" stroke="#121212" stroke-linecap="round" stroke-linejoin="round" stroke-width="0.8500000000000001"/>
    <path d="M-3.4 -9.6 L-3.6 -9.8 -2.95 -9.4 -2.35 -9.05 Q0.35 -8.9 5.7 -9.0 L6.1 -8.95 Q6.35 -8.95 6.4 -8.75 L6.15 -7.95 6.05 -7.55 5.8 -7.25 2.6 -7.15 1.55 -7.4 0.75 -7.55 -0.05 -7.6 -0.6 -7.45 -1.15 -7.2 -3.35 -7.15 Q-3.9 -7.0 -3.8 -7.5 -3.7 -7.95 -3.85 -8.2 -4.6 -9.05 -4.4 -9.4 L-3.9 -9.55 -3.4 -9.6" fill="#dbdbdb" fill-rule="evenodd" stroke="none"/>
    <path d="M-0.6 -8.75 L-0.1 -9.0 6.0 -9.0 6.4 -8.7 6.1 -7.8 5.8 -7.25 2.1 -7.15 1.1 -7.55 -0.15 -7.55 -0.65 -7.4 -1.15 -7.2 -2.6 -7.2 -3.65 -7.35 Q-1.25 -8.4 -0.6 -8.75" fill="#090909" fill-opacity="0.22352941" fill-rule="evenodd" stroke="none"/>
    <path d="M7.2 -9.6 L7.25 -9.6 7.85 -9.5 Q8.1 -9.3 7.95 -8.9 L6.75 -6.45 6.35 -5.7 6.05 -5.65 Q5.85 -5.7 5.9 -5.9 L6.1 -6.65 6.85 -9.05 Q6.8 -9.4 7.2 -9.6" fill="#999999" fill-rule="evenodd" stroke="none"/>
    <path d="M7.15 -9.8 L8.15 -9.65 8.2 -8.95 6.35 -5.2 5.6 -5.75 6.7 -9.05 6.65 -9.4 7.15 -9.8 Z" fill="none" stroke="#212121" stroke-linecap="round" stroke-linejoin="round" stroke-width="0.8500000000000001"/>
    <path d="M6.05 -7.1 L2.2 -7.0 Q2.0 -7.0 1.55 -7.2 L0.9 -7.4 -0.2 -7.4 -0.7 -7.2 -1.25 -7.0 -3.8 -7.0 -4.1 -7.35 Q-3.8 -7.65 -3.95 -8.05 L-4.3 -8.65 -4.8 -9.45 -3.5 -10.1 -2.5 -9.2 Q0.5 -9.05 6.4 -9.15" fill="none" stroke="#212121" stroke-linecap="round" stroke-linejoin="round" stroke-width="0.8500000000000001"/>
  </g>
  <defs>
    <linearGradient gradientTransform="matrix(7.0E-4, 0.0013, -0.0013, 7.0E-4, 3.2, -7.65)" gradientUnits="userSpaceOnUse" id="gradient0" spreadMethod="pad" x1="-819.2" x2="819.2">
      <stop offset="0.0" stop-color="#2b2b2b"/>
      <stop offset="0.4588235294117647" stop-color="#d8d8d8"/>
      <stop offset="1.0" stop-color="#363636"/>
    </linearGradient>
    <linearGradient gradientTransform="matrix(0.001, 0.001, -0.001, 0.001, 1.45, -7.45)" gradientUnits="userSpaceOnUse" id="gradient1" spreadMethod="pad" x1="-819.2" x2="819.2">
      <stop offset="0.0" stop-color="#2b2b2b"/>
      <stop offset="0.4588235294117647" stop-color="#d8d8d8"/>
      <stop offset="1.0" stop-color="#363636"/>
    </linearGradient>
    <linearGradient gradientTransform="matrix(0.0011, 9.0E-4, -9.0E-4, 0.0011, -0.1, -6.55)" gradientUnits="userSpaceOnUse" id="gradient2" spreadMethod="pad" x1="-819.2" x2="819.2">
      <stop offset="0.0" stop-color="#2b2b2b"/>
      <stop offset="0.4588235294117647" stop-color="#d8d8d8"/>
      <stop offset="1.0" stop-color="#363636"/>
    </linearGradient>
    <linearGradient gradientTransform="matrix(-0.0014, -4.0E-4, 4.0E-4, -0.0014, -17.35, -19.9)" gradientUnits="userSpaceOnUse" id="gradient3" spreadMethod="pad" x1="-819.2" x2="819.2">
      <stop offset="0.0" stop-color="#4c1010"/>
      <stop offset="1.0" stop-color="#f13f3f"/>
    </linearGradient>
    <linearGradient gradientTransform="matrix(-0.0011, -5.0E-4, 5.0E-4, -0.0011, -14.35, -12.6)" gradientUnits="userSpaceOnUse" id="gradient4" spreadMethod="pad" x1="-819.2" x2="819.2">
      <stop offset="0.0" stop-color="#4c1010"/>
      <stop offset="1.0" stop-color="#f13f3f"/>
    </linearGradient>
    <radialGradient cx="0" cy="0" gradientTransform="matrix(0.0015, -1.0E-4, 1.0E-4, 0.0015, -15.1, -21.0)" gradientUnits="userSpaceOnUse" id="gradient5" r="819.2" spreadMethod="pad">
      <stop offset="0.0" stop-color="#c4c164"/>
      <stop offset="1.0" stop-color="#c4c164" stop-opacity="0.25490198"/>
    </radialGradient>
    <linearGradient gradientTransform="matrix(0.0033, 9.0E-4, -9.0E-4, 0.0033, -5.75, -17.7)" gradientUnits="userSpaceOnUse" id="gradient6" spreadMethod="pad" x1="-819.2" x2="819.2">
      <stop offset="0.0" stop-color="#374047"/>
      <stop offset="0.4392156862745098" stop-color="#475763"/>
      <stop offset="1.0" stop-color="#374047"/>
    </linearGradient>
    <radialGradient cx="0" cy="0" gradientTransform="matrix(0.0052, -2.0E-4, 2.0E-4, 0.0043, -12.45, -25.7)" gradientUnits="userSpaceOnUse" id="gradient7" r="819.2" spreadMethod="pad">
      <stop offset="0.0" stop-color="#494949"/>
      <stop offset="1.0" stop-color="#373737"/>
    </radialGradient>
    <linearGradient gradientTransform="matrix(0.008, -3.0E-4, 3.0E-4, 0.008, 0.45, -19.45)" gradientUnits="userSpaceOnUse" id="gradient8" spreadMethod="pad" x1="-819.2" x2="819.2">
      <stop offset="0.0" stop-color="#333333"/>
      <stop offset="0.5019607843137255" stop-color="#444444"/>
      <stop offset="1.0" stop-color="#333333"/>
    </linearGradient>
  </defs>
</svg>
