<?xml version="1.0" encoding="UTF-8" standalone="no"?>
<svg xmlns:ffdec="https://www.free-decompiler.com/flash" xmlns:xlink="http://www.w3.org/1999/xlink" ffdec:objectType="shape" height="22.55px" width="24.5px" xmlns="http://www.w3.org/2000/svg">
  <g transform="matrix(1.0, 0.0, 0.0, 1.0, 13.55, 28.75)">
    <path d="M5.15 -7.65 L-2.9 -8.35 -3.9 -15.35 -2.2 -17.9 6.5 -18.5 6.55 -17.45 7.6 -16.8 6.85 -11.65 Q6.6 -11.45 6.35 -11.35 L5.85 -8.1 5.15 -7.65" fill="#222222" fill-rule="evenodd" stroke="none"/>
    <path d="M5.15 -7.65 L-2.9 -8.35 -3.9 -15.35 -2.2 -17.9 6.5 -18.5 6.55 -17.45 7.6 -16.8 6.85 -11.65 Q6.6 -11.45 6.35 -11.35 L5.85 -8.1 5.15 -7.65 Z" fill="none" stroke="#0a0b0d" stroke-linecap="round" stroke-linejoin="round" stroke-width="0.8500000000000001"/>
    <path d="M-3.1 -15.7 L-2.5 -18.15 4.65 -18.2 Q6.15 -17.25 7.65 -16.4 L7.2 -14.3 6.1 -14.25 5.45 -14.75 4.7 -14.65 4.2 -14.15 3.55 -14.0 3.25 -14.5 1.95 -14.4 1.45 -13.9 0.6 -13.65 0.05 -14.05 -0.6 -13.85 -0.95 -13.2 -1.85 -12.9 -3.1 -15.7" fill="#222222" fill-rule="evenodd" stroke="none"/>
    <path d="M-0.05 -14.3 L0.0 -15.05 1.35 -15.35 1.8 -14.75" fill="none" stroke="#101419" stroke-linecap="round" stroke-linejoin="round" stroke-width="0.5"/>
    <path d="M3.3 -14.7 L3.55 -15.4 4.3 -15.5 4.6 -15.0" fill="none" stroke="#151515" stroke-linecap="round" stroke-linejoin="round" stroke-width="0.5"/>
    <path d="M-3.1 -15.7 L-2.5 -18.15 4.65 -18.2 7.85 -16.4 7.4 -14.3 6.1 -14.25 5.45 -14.75 4.7 -14.65 4.2 -14.15 3.55 -14.0 3.25 -14.5 1.95 -14.4 1.45 -13.9 0.6 -13.65 0.05 -14.05 -0.6 -13.85 -0.95 -13.2 -1.85 -12.9 -3.1 -15.7 Z" fill="none" stroke="#0a0b0d" stroke-linecap="round" stroke-linejoin="round" stroke-width="0.8500000000000001"/>
    <path d="M-1.5 -10.45 L-0.75 -10.85 6.05 -9.15 5.7 -8.35 4.15 -7.75 -2.6 -9.25 -1.5 -10.45" fill="#222222" fill-rule="evenodd" stroke="none"/>
    <path d="M1.1 -10.1 L1.3 -9.2 2.55 -8.95 3.0 -9.75" fill="none" stroke="#151515" stroke-linecap="round" stroke-linejoin="round" stroke-width="0.5"/>
    <path d="M4.15 -7.75 L-2.6 -9.25 -1.5 -10.45 -0.75 -10.85 -0.45 -10.55 0.95 -10.2 1.35 -10.3 1.65 -10.05 2.55 -9.8 3.05 -9.95 4.35 -9.6 4.6 -9.25 5.65 -8.95 6.05 -9.15 5.7 -8.35 4.15 -7.75 Z" fill="none" stroke="#0a0b0d" stroke-linecap="round" stroke-linejoin="round" stroke-width="0.6000000000000001"/>
    <path d="M-2.5 -15.1 L-1.55 -13.65 -0.65 -9.25 Q0.5 -8.75 2.6 -8.65 L6.25 -8.5 6.2 -6.85 Q0.2 -6.55 -4.85 -7.05 L-5.35 -8.75 -4.95 -9.55 -4.5 -12.75 -2.5 -15.1" fill="#363636" fill-rule="evenodd" stroke="none"/>
    <path d="M-4.9 -10.9 L-4.9 -12.75 -2.05 -14.1 -1.4 -11.95 -2.8 -11.6 -3.4 -10.85 -4.9 -10.9" fill="#222222" fill-rule="evenodd" stroke="none"/>
    <path d="M-2.5 -15.1 L-1.55 -13.65 -0.65 -9.25 Q0.5 -8.75 2.6 -8.65 L6.25 -8.5 6.2 -6.85 Q0.2 -6.55 -4.85 -7.05 L-5.35 -8.75 -4.95 -9.55 -4.5 -12.75 -2.5 -15.1 Z" fill="none" stroke="#161616" stroke-linecap="round" stroke-linejoin="round" stroke-width="0.8500000000000001"/>
    <path d="M-6.4 -8.65 Q-6.35 -9.45 -5.15 -10.2 L-3.45 -8.7 -3.3 -7.5 -3.8 -6.6 -5.75 -6.65 -6.25 -7.6 -6.4 -8.65" fill="#222222" fill-rule="evenodd" stroke="none"/>
    <path d="M-6.4 -8.65 Q-6.35 -9.45 -5.15 -10.2 L-3.45 -8.7 -3.3 -7.5 -3.8 -6.6 -5.75 -6.65 -6.25 -7.6 -6.4 -8.65 Z" fill="none" stroke="#161616" stroke-linecap="round" stroke-linejoin="round" stroke-width="0.8500000000000001"/>
    <path d="M2.1 -26.6 L3.25 -26.25 10.4 -21.45 10.1 -21.0" fill="none" stroke="#000000" stroke-linecap="round" stroke-linejoin="round" stroke-width="0.8500000000000001"/>
    <path d="M-0.05 -26.5 L2.4 -26.9 8.85 -21.7 10.25 -21.05 9.25 -19.25 5.3 -19.65 -0.05 -26.5" fill="#6d6d6d" fill-rule="evenodd" stroke="none"/>
    <path d="M-0.05 -26.5 L2.5 -26.9 9.1 -21.7 10.55 -21.05 9.55 -19.25 5.45 -19.65 -0.05 -26.5 Z" fill="none" stroke="#161616" stroke-linecap="round" stroke-linejoin="round" stroke-width="0.8500000000000001"/>
    <path d="M1.6 -26.7 L3.65 -25.35 5.5 -23.9 9.55 -19.7 9.1 -16.65 Q8.6 -16.25 7.55 -16.25 L5.65 -16.65 3.9 -17.0 1.9 -16.75 1.1 -17.0 0.3 -17.15 Q-0.75 -16.8 -1.55 -16.1 L-1.7 -15.4 Q-1.7 -14.75 -1.85 -14.65 L-3.35 -12.55 Q-3.45 -12.35 -3.95 -12.3 L-4.75 -12.3 -5.7 -17.3 -6.4 -22.65 Q-6.7 -26.1 -6.15 -26.55 L-5.25 -27.3 1.6 -26.7" fill="#363636" fill-rule="evenodd" stroke="none"/>
    <path d="M1.05 -17.75 L7.1 -17.65 7.6 -17.05 8.95 -17.05 9.25 -17.2 8.85 -16.15 7.55 -16.1 7.15 -16.75 3.25 -17.1 1.4 -16.65 0.8 -17.15 -1.5 -16.35 -1.75 -14.55 -3.3 -12.4 -5.15 -12.4 -5.05 -13.9 -3.65 -14.0 -2.55 -15.25 -2.5 -16.7 0.2 -18.2 1.05 -17.75" fill="#040506" fill-opacity="0.4" fill-rule="evenodd" stroke="none"/>
    <path d="M6.6 -22.45 L6.75 -20.75 Q7.25 -18.85 9.1 -18.1" fill="none" stroke="#1f1f1f" stroke-linecap="round" stroke-linejoin="round" stroke-width="0.6000000000000001"/>
    <path d="M2.25 -21.0 Q-2.8 -21.75 -4.5 -20.4 L-4.6 -19.65 -4.6 -18.9 Q-5.2 -18.0 -5.2 -17.25 L-6.15 -22.3 -3.6 -23.75 3.7 -21.9 2.25 -21.0" fill="#040506" fill-opacity="0.4" fill-rule="evenodd" stroke="none"/>
    <path d="M1.6 -26.7 L3.65 -25.35 5.5 -23.9 9.55 -19.7 9.1 -16.65 8.9 -16.35 8.7 -16.05 7.45 -16.1 Q7.35 -16.1 7.2 -16.4 L6.95 -16.7 3.9 -17.0 1.9 -16.75 1.1 -17.0 0.3 -17.15 Q-0.75 -16.8 -1.55 -16.1 L-1.7 -15.4 Q-1.7 -14.75 -1.85 -14.65 L-3.35 -12.55 Q-3.45 -12.35 -3.95 -12.3 L-4.75 -12.3 -5.2 -17.3 Q-6.95 -25.9 -6.15 -26.55 L-5.25 -27.3 1.6 -26.7 Z" fill="none" stroke="#161616" stroke-linecap="round" stroke-linejoin="round" stroke-width="0.8500000000000001"/>
    <path d="M-5.1 -27.35 L-4.3 -27.4 1.95 -26.9 5.25 -24.25 5.65 -22.75 Q5.8 -21.9 5.6 -21.2 L4.35 -19.65 -1.1 -21.5 Q-4.3 -22.4 -6.45 -21.1 -6.85 -23.4 -6.75 -26.4 L-5.1 -27.35" fill="#363636" fill-rule="evenodd" stroke="none"/>
    <path d="M3.55 -24.8 L2.75 -23.6 Q-2.3 -26.15 -6.55 -23.8" fill="none" stroke="#262626" stroke-linecap="round" stroke-linejoin="round" stroke-width="0.6000000000000001"/>
    <path d="M3.3 -25.0 L2.75 -24.05 Q-2.2 -26.6 -6.55 -24.25" fill="none" stroke="#161616" stroke-linecap="round" stroke-linejoin="round" stroke-width="0.5"/>
    <path d="M4.35 -24.0 L3.7 -21.85 Q-1.85 -24.8 -6.35 -22.45" fill="none" stroke="#262626" stroke-linecap="round" stroke-linejoin="round" stroke-width="0.6000000000000001"/>
    <path d="M4.35 -24.45 L3.45 -22.3 Q0.9 -23.7 -1.45 -23.85 -3.75 -24.0 -6.35 -22.9" fill="none" stroke="#161616" stroke-linecap="round" stroke-linejoin="round" stroke-width="0.5"/>
    <path d="M-6.5 -21.35 Q-3.2 -23.45 4.2 -19.85 L5.4 -21.35 Q5.65 -23.3 4.7 -24.4 L3.55 -25.35" fill="none" stroke="#f4f5f7" stroke-linecap="round" stroke-linejoin="round" stroke-width="0.8500000000000001"/>
    <path d="M-5.1 -27.35 L-4.3 -27.4 1.95 -26.9 5.25 -24.25 5.65 -22.75 Q5.8 -21.9 5.6 -21.2 L4.35 -19.65 -1.1 -21.5 Q-4.3 -22.4 -6.45 -21.1 -6.85 -23.4 -6.75 -26.4 L-5.1 -27.35 Z" fill="none" stroke="#161616" stroke-linecap="round" stroke-linejoin="round" stroke-width="0.8500000000000001"/>
    <path d="M-13.3 -27.3 L-5.0 -27.0 -5.55 -24.75 -4.8 -21.55 -5.7 -19.85 -5.75 -17.65 -4.4 -15.1 -1.7 -13.35 -3.0 -11.45 -5.6 -11.9 -5.35 -11.25 -8.2 -10.3 -12.3 -18.45 -11.15 -20.1 -13.15 -23.8 -13.3 -27.3" fill="#363636" fill-rule="evenodd" stroke="none"/>
    <path d="M-13.0 -27.1 L-5.0 -27.0 -5.75 -24.7 -5.05 -21.85 -5.0 -20.75 -5.85 -19.55 -5.75 -17.7 -4.6 -16.1 -4.5 -14.95 -1.85 -13.05 -3.0 -11.45 -5.55 -11.9 -5.1 -11.45 -8.2 -10.3 -12.3 -18.45 -11.15 -20.1 -13.15 -23.8 -13.0 -27.1 Z" fill="none" stroke="#0f0f0f" stroke-linecap="round" stroke-linejoin="round" stroke-width="0.8500000000000001"/>
    <path d="M-7.55 -11.4 L-5.3 -13.45 -4.7 -13.2 -4.6 -11.75" fill="none" stroke="#1f1f1f" stroke-linecap="round" stroke-linejoin="round" stroke-width="0.8500000000000001"/>
    <path d="M-6.6 -27.8 L-6.1 -27.9 Q1.6 -25.4 4.2 -22.75 6.45 -20.6 5.45 -17.95 5.0 -16.95 3.9 -15.8 L1.65 -13.95 Q-2.7 -10.35 -4.4 -10.45 L-4.9 -10.6 -5.15 -11.1 -4.8 -11.45 Q2.85 -16.1 3.95 -18.8 4.55 -20.55 2.5 -22.1 0.15 -23.8 -6.75 -26.45 L-6.95 -27.0 -6.6 -27.8" fill="#4f4f4f" fill-rule="evenodd" stroke="none"/>
    <path d="M3.1 -17.05 L4.3 -16.65 M3.7 -17.8 L4.8 -17.5 M4.05 -18.45 L5.3 -18.2 M1.9 -22.85 L3.3 -23.6 M2.65 -22.25 Q2.8 -22.55 3.25 -22.65 L4.05 -22.95 M3.4 -21.65 L4.65 -22.2" fill="none" stroke="#d0d7e2" stroke-linecap="round" stroke-linejoin="round" stroke-width="0.5"/>
    <path d="M-6.6 -27.8 L-6.95 -27.0 -6.75 -26.45 Q-0.05 -24.2 2.45 -22.3 4.6 -20.65 3.95 -18.8 2.9 -16.1 -4.8 -11.45 L-5.15 -11.1 -4.9 -10.6 -4.4 -10.45 Q-2.7 -10.35 1.65 -13.95 4.55 -16.3 5.3 -18.2 6.35 -20.85 4.2 -22.9 1.6 -25.4 -6.1 -27.9 L-6.6 -27.8 Z" fill="none" stroke="#1d1d1d" stroke-linecap="round" stroke-linejoin="round" stroke-width="0.8500000000000001"/>
    <path d="M-7.25 -27.9 L-6.65 -28.35 -5.2 -28.05 -5.65 -25.85 -6.1 -25.75 -7.45 -26.35 -7.65 -26.85 -7.25 -27.9" fill="#4f4f4f" fill-rule="evenodd" stroke="none"/>
    <path d="M-7.25 -27.9 L-6.65 -28.35 -5.2 -28.05 -5.65 -25.85 -6.1 -25.75 -7.4 -26.35 -7.55 -26.85 -7.25 -27.9 Z" fill="none" stroke="#0d0d0d" stroke-linecap="round" stroke-linejoin="round" stroke-width="0.8500000000000001"/>
    <path d="M3.35 -20.6 L3.6 -20.9 5.6 -21.3 6.0 -20.95 6.1 -19.6 5.95 -19.45 3.6 -19.35 3.55 -19.4 3.35 -20.6" fill="#4f4f4f" fill-rule="evenodd" stroke="none"/>
    <path d="M3.35 -20.6 L3.6 -20.9 5.6 -21.3 6.0 -20.95 6.1 -19.6 5.95 -19.45 3.6 -19.35 3.55 -19.4 3.35 -20.6 Z" fill="none" stroke="#0d0d0d" stroke-linecap="round" stroke-linejoin="round" stroke-width="0.8500000000000001"/>
    <path d="M-3.35 -12.75 L-2.75 -12.35 -2.25 -10.85 -3.5 -10.1 -5.5 -10.05 -5.8 -11.55 -3.35 -12.75" fill="#4f4f4f" fill-rule="evenodd" stroke="none"/>
    <path d="M-3.35 -12.75 L-2.75 -12.35 -2.25 -10.85 -3.5 -10.1 -5.5 -10.05 -5.8 -11.55 -3.35 -12.75 Z" fill="none" stroke="#0d0d0d" stroke-linecap="round" stroke-linejoin="round" stroke-width="0.8500000000000001"/>
    <path d="M-6.65 -28.15 L-6.15 -27.35 -7.2 -26.55" fill="none" stroke="#7d7d7d" stroke-linecap="round" stroke-linejoin="round" stroke-width="0.5"/>
    <path d="M-4.85 -10.2 L-4.35 -11.0 -5.45 -11.8" fill="none" stroke="#7d7d7d" stroke-linecap="round" stroke-linejoin="round" stroke-width="0.5"/>
  </g>
</svg>
