<?xml version="1.0" encoding="UTF-8" standalone="no"?>
<svg xmlns:ffdec="https://www.free-decompiler.com/flash" xmlns:xlink="http://www.w3.org/1999/xlink" ffdec:objectType="shape" height="32.2px" width="24.3px" xmlns="http://www.w3.org/2000/svg">
  <g transform="matrix(1.0, 0.0, 0.0, 1.0, 16.15, 34.5)">
    <path d="M-9.4 -13.0 L-4.15 -14.95 -3.1 -12.1 0.85 -8.85 3.25 -10.6 4.2 -5.75 2.4 -4.1 0.2 -4.75 Q-1.15 -3.25 -2.95 -2.9 L-5.35 -3.0 -6.45 -3.4 -8.4 -6.4 -10.35 -9.95 -9.9 -11.7 -9.4 -13.0" fill="#323232" fill-rule="evenodd" stroke="none"/>
    <path d="M-9.4 -13.0 L-9.9 -11.7 -10.35 -9.95 -8.4 -6.4 -6.45 -3.4 -5.35 -3.0 -2.95 -2.9 Q-1.15 -3.25 0.2 -4.75 L2.4 -4.1 4.2 -5.75 3.25 -10.6 0.85 -8.85 -3.1 -12.1 -4.15 -14.95 -9.4 -13.0 Z" fill="none" stroke="#2a8c81" stroke-linecap="round" stroke-linejoin="round" stroke-width="1.0"/>
    <path d="M-4.15 -14.95 L-11.35 -12.25 -12.95 -17.1 -9.5 -18.4 -4.65 -16.15 -4.15 -14.95" fill="#1a1a1a" fill-rule="evenodd" stroke="none"/>
    <path d="M-4.15 -14.95 L-4.65 -16.15 -9.5 -18.4 -12.95 -17.1 -11.35 -12.25 -4.15 -14.95 Z" fill="none" stroke="#2a8c81" stroke-linecap="round" stroke-linejoin="round" stroke-width="1.0"/>
    <path d="M3.9 -28.4 L7.45 -23.2 7.35 -14.2 0.85 -8.85 -3.1 -12.1 -4.65 -16.15 -2.2 -20.6 -2.45 -23.85 3.9 -28.4" fill="#3b3b3b" fill-rule="evenodd" stroke="none"/>
    <path d="M-10.55 -28.9 L-7.25 -22.15 -9.5 -18.4 -12.95 -17.1 -15.55 -18.25 Q-15.85 -20.45 -15.4 -22.9 -14.45 -27.75 -10.55 -28.9" fill="#4c4c4c" fill-rule="evenodd" stroke="none"/>
    <path d="M2.25 -31.55 L3.9 -28.4 -2.45 -23.85 -2.2 -20.6 -4.65 -16.15 -9.5 -18.4 Q-8.3 -20.3 -7.25 -22.15 L-10.55 -28.9 Q-9.75 -30.85 -8.75 -31.9 -8.05 -32.65 -5.8 -33.35 L-3.2 -33.95 Q-0.45 -32.7 2.25 -31.55" fill="#161616" fill-rule="evenodd" stroke="none"/>
    <path d="M2.25 -31.55 L3.9 -28.4 -2.45 -23.85 -2.2 -20.6 -4.65 -16.15 -9.5 -18.4 Q-8.3 -20.3 -7.25 -22.15 L-10.55 -28.9 Q-9.75 -30.85 -8.75 -31.9 -8.05 -32.65 -5.8 -33.35 L-3.2 -33.95 Q-0.45 -32.7 2.25 -31.55 Z" fill="none" stroke="#2a8c81" stroke-linecap="round" stroke-linejoin="round" stroke-width="1.0"/>
    <path d="M3.9 -28.4 Q3.95 -28.15 5.7 -25.85 L7.45 -23.3 Q7.95 -18.25 7.3 -13.4 L0.85 -8.85 -3.1 -12.1 -4.65 -16.15 -9.5 -18.4 -12.95 -17.1 -15.55 -18.25 Q-15.85 -20.35 -15.4 -22.8 -14.45 -27.6 -10.55 -28.9" fill="none" stroke="#262626" stroke-linecap="round" stroke-linejoin="round" stroke-width="1.0"/>
    <path d="M3.9 -28.4 L2.25 -31.55 Q-0.45 -32.7 -3.2 -33.95 L-5.8 -33.35 Q-8.05 -32.65 -8.75 -31.9 -9.75 -30.85 -10.55 -28.9" fill="none" stroke="#000000" stroke-linecap="round" stroke-linejoin="round" stroke-width="1.0"/>
    <path d="M3.9 -28.4 L-2.45 -23.85 -2.2 -20.6 -4.65 -16.15" fill="none" stroke="#2f2f2f" stroke-linecap="round" stroke-linejoin="round" stroke-width="1.0"/>
    <path d="M-9.5 -18.4 Q-8.3 -20.3 -7.25 -22.15 L-10.55 -28.9" fill="none" stroke="#2f2f2f" stroke-linecap="round" stroke-linejoin="round" stroke-width="1.0"/>
    <path d="M-12.95 -17.1 L-11.35 -12.25 -4.15 -14.95" fill="none" stroke="#000000" stroke-linecap="round" stroke-linejoin="round" stroke-width="1.0"/>
    <path d="M-9.4 -13.0 L-9.9 -11.7 -10.35 -9.95 -8.4 -6.4 -6.45 -3.4 -5.35 -3.0 -2.95 -2.9 Q-1.15 -3.25 0.2 -4.75 L2.4 -4.1 4.2 -5.75 3.25 -10.6" fill="none" stroke="#1c1c1c" stroke-linecap="round" stroke-linejoin="round" stroke-width="1.0"/>
    <path d="M-3.1 -12.1 L-7.45 -10.55 -6.5 -8.1 0.2 -4.75" fill="none" stroke="#262626" stroke-linecap="round" stroke-linejoin="round" stroke-width="1.0"/>
    <path d="M-2.2 -20.6 L2.0 -17.2 3.25 -10.6" fill="none" stroke="#2f2f2f" stroke-linecap="round" stroke-linejoin="round" stroke-width="1.0"/>
    <path d="M-7.0 -25.9 L-4.7 -24.85" fill="none" stroke="#000000" stroke-linecap="round" stroke-linejoin="round" stroke-width="1.0"/>
    <path d="M3.1 -33.7 L4.6 -30.85 0.0 -28.15 -1.6 -31.0 3.1 -33.7" fill="#484d51" fill-rule="evenodd" stroke="none"/>
    <path d="M3.1 -33.7 L-1.6 -31.0 0.0 -28.15 4.6 -30.85 3.1 -33.7 Z" fill="none" stroke="#2b2b2b" stroke-linecap="round" stroke-linejoin="round" stroke-width="1.0"/>
  </g>
</svg>
