<?xml version="1.0" encoding="UTF-8" standalone="no"?>
<svg xmlns:ffdec="https://www.free-decompiler.com/flash" xmlns:xlink="http://www.w3.org/1999/xlink" ffdec:objectType="shape" height="27.85px" width="17.0px" xmlns="http://www.w3.org/2000/svg">
  <g transform="matrix(1.0, 0.0, 0.0, 1.0, 0.5, 0.5)">
    <path d="M10.85 4.45 L11.8 3.25 12.0 3.0 Q13.9 3.2 15.8 7.25 16.4 9.15 15.2 11.25 L13.5 14.95 11.6 12.85 12.05 10.1 12.1 8.75 11.9 7.4 11.75 6.85 10.85 4.45 M12.7 7.4 L11.9 7.4 12.7 7.4 M12.55 8.75 L12.1 8.75 12.55 8.75 M12.65 10.1 L12.05 10.1 12.65 10.1 M3.6 0.45 L3.9 1.1 Q2.05 4.3 2.15 6.55 L1.85 5.45 Q1.55 5.15 1.15 5.15 L0.4 5.1 0.6 5.15 0.55 5.15 0.4 5.1 0.55 5.15 0.35 5.2 Q0.65 3.05 1.5 1.55 L2.35 1.55 3.1 0.45 3.6 0.45 M0.55 7.7 L0.6 7.7 1.85 7.4 2.15 6.95 Q2.25 10.75 3.25 15.85 L2.95 16.35 2.75 16.6 1.3 16.6 0.5 11.2 0.7 11.2 0.7 11.25 1.5 10.9 1.7 10.2 1.7 9.65 1.5 8.95 Q1.3 8.65 1.05 8.65 L0.7 8.65 0.5 8.7 0.45 8.75 0.2 8.95 0.1 8.35 0.1 7.6 0.45 7.7 0.55 7.7 M8.3 19.0 L8.3 19.05 8.5 19.55 9.05 19.8 10.55 19.8 11.05 19.55 11.3 19.05 11.3 19.0 12.5 19.0 12.45 19.8 12.7 23.5 12.7 24.1 11.25 24.1 10.6 24.7 Q5.7 25.45 3.45 24.7 L3.6 23.8 3.75 23.3 3.85 23.0 4.1 21.15 4.1 20.15 4.0 20.15 3.9 19.3 3.8 18.5 3.85 18.5 3.9 18.5 3.8 18.1 6.2 18.1 7.5 19.0 8.3 19.0 M3.85 18.5 L3.75 18.1 3.85 18.5 4.0 19.35 4.1 20.15 4.0 19.35 3.85 18.5" fill="#3b2323" fill-rule="evenodd" stroke="none"/>
    <path d="M12.0 3.0 L11.8 3.25 10.85 4.45 9.5 5.05 8.85 4.25 Q7.9 3.3 6.6 3.3 L6.55 3.3 Q5.2 3.3 4.2 4.25 L4.1 4.35 4.15 4.1 Q4.85 3.1 4.15 1.8 L3.9 1.1 3.6 0.45 5.1 0.05 Q6.75 -0.3 9.65 1.0 12.55 2.3 12.0 3.0 M8.3 19.0 L8.5 18.5 9.05 18.3 10.55 18.3 11.05 18.5 11.3 19.0 11.3 19.05 11.05 19.55 10.55 19.8 9.05 19.8 8.5 19.55 8.3 19.05 8.3 19.0" fill="#141414" fill-rule="evenodd" stroke="none"/>
    <path d="M10.85 4.45 L11.75 6.85 11.9 7.4 11.4 7.4 11.9 7.4 12.1 8.75 11.25 8.75 12.1 8.75 12.05 10.1 11.35 10.1 12.05 10.1 11.6 12.85 Q10.35 14.6 6.8 15.1 L6.0 15.1 3.4 11.05 3.4 8.9 3.55 8.0 4.2 8.9 Q5.2 9.9 6.55 9.9 7.9 9.9 8.85 8.9 9.85 7.95 9.85 6.6 9.85 5.75 9.5 5.05 L10.85 4.45 M3.45 24.7 Q5.7 25.45 10.6 24.7 L11.25 24.1 12.7 24.1 12.7 25.2 12.6 26.5 8.7 26.75 Q5.95 26.95 5.6 26.75 L4.5 26.45 3.5 26.2 Q3.25 26.0 3.4 25.15 L3.45 24.7" fill="#1e1e1e" fill-rule="evenodd" stroke="none"/>
    <path d="M4.1 4.35 L4.2 4.25 Q5.2 3.3 6.55 3.3 L6.6 3.3 Q7.9 3.3 8.85 4.25 L9.5 5.05 Q9.85 5.75 9.85 6.6 9.85 7.95 8.85 8.9 7.9 9.9 6.55 9.9 5.2 9.9 4.2 8.9 L3.55 8.0 Q3.25 7.35 3.25 6.6 3.25 5.3 4.1 4.35" fill="#2c1919" fill-rule="evenodd" stroke="none"/>
    <path d="M3.9 1.1 L4.15 1.8 Q4.85 3.1 4.15 4.1 L4.1 4.35 Q3.25 5.3 3.25 6.6 3.25 7.35 3.55 8.0 L3.4 8.9 3.4 11.05 6.0 15.1 3.8 15.1 3.55 15.4 3.25 15.85 Q2.25 10.75 2.15 6.95 L2.15 6.7 2.15 6.55 Q2.05 4.3 3.9 1.1" fill="#2a1919" fill-rule="evenodd" stroke="none"/>
    <path d="M0.55 7.7 L0.35 7.6 0.2 7.4 0.0 6.7 0.0 6.15 0.2 5.45 0.5 5.2 0.55 5.15 0.6 5.15 0.4 5.1 1.15 5.15 1.6 5.45 1.8 6.7 1.6 7.4 0.6 7.7 0.55 7.7 M0.2 8.95 L0.45 8.75 0.5 8.7 0.7 8.65 1.05 8.65 Q1.3 8.65 1.5 8.95 L1.7 9.65 1.7 10.2 1.5 10.9 0.7 11.25 0.7 11.2 0.5 11.2 0.35 11.1 0.2 10.9 0.0 10.2 0.0 9.65 0.2 9.0 0.2 8.95 M0.45 8.75 L0.2 9.0 0.45 8.75" fill="#ff094f" fill-rule="evenodd" stroke="none"/>
    <path d="M6.0 15.1 L6.8 15.1 Q10.35 14.6 11.6 12.85 L13.5 14.95 14.0 16.2 12.5 19.0 11.3 19.0 11.05 18.5 10.55 18.3 9.05 18.3 8.5 18.5 8.3 19.0 7.5 19.0 6.2 18.1 3.8 18.1 3.75 18.1 3.85 18.5 3.8 18.45 Q3.15 17.85 3.05 17.25 L3.05 17.15 3.0 16.6 2.95 16.35 3.25 15.85 3.55 15.4 3.8 15.1 6.0 15.1 M11.85 16.55 L6.95 16.55 11.85 16.55 M5.45 16.55 L4.95 16.55 5.45 16.55" fill="#211313" fill-rule="evenodd" stroke="none"/>
    <path d="M3.8 18.45 L3.85 18.5 3.75 18.1 3.8 18.1 3.9 18.5 3.85 18.5 3.8 18.5 3.8 18.45 M4.0 20.15 L4.1 20.15 4.1 21.15 4.0 20.15" fill="#ffffff" fill-rule="evenodd" stroke="none"/>
    <path d="M12.0 3.0 L11.8 3.25 10.85 4.45 M13.5 14.95 L15.2 11.25 Q16.4 9.15 15.8 7.25 13.9 3.2 12.0 3.0 M3.6 0.45 L3.9 1.1 4.15 1.8 Q4.85 3.1 4.15 4.1 L4.1 4.35 M0.35 5.2 Q0.65 3.05 1.5 1.55 L2.35 1.55 3.1 0.45 3.6 0.45 M0.6 7.7 L1.6 7.4 1.8 6.7 1.6 5.45 1.15 5.15 0.4 5.1 M6.0 15.1 L6.8 15.1 Q10.35 14.6 11.6 12.85 L13.5 14.95 14.0 16.2 12.5 19.0 11.3 19.0 11.05 18.5 10.55 18.3 9.05 18.3 8.5 18.5 8.3 19.0 7.5 19.0 6.2 18.1 3.8 18.1 3.75 18.1 3.85 18.5 3.9 18.5 3.8 18.1 M3.25 15.85 L3.55 15.4 3.8 15.1 6.0 15.1 M0.1 7.6 L0.1 8.35 0.2 8.95 M0.7 8.65 L1.05 8.65 Q1.3 8.65 1.5 8.95 L1.7 9.65 1.7 10.2 1.5 10.9 0.7 11.25 0.7 11.2 M0.5 11.2 L1.3 16.6 2.75 16.6 2.95 16.35 3.25 15.85 M2.95 16.35 L3.0 16.6 3.05 17.15 3.05 17.25 Q3.15 17.85 3.8 18.45 L3.85 18.5" fill="none" stroke="#0e0808" stroke-linecap="round" stroke-linejoin="round" stroke-width="1.0"/>
    <path d="M10.85 4.45 L11.75 6.85 11.9 7.4 12.1 8.75 12.05 10.1 11.6 12.85 M6.55 3.3 L6.6 3.3 M3.55 8.0 Q3.25 7.35 3.25 6.6 3.25 5.3 4.1 4.35 M9.5 5.05 Q9.85 5.75 9.85 6.6 9.85 7.95 8.85 8.9 7.9 9.9 6.55 9.9 5.2 9.9 4.2 8.9 L3.55 8.0 3.4 8.9 3.4 11.05 6.0 15.1 M8.3 19.0 L8.3 19.05 8.5 19.55 9.05 19.8 10.55 19.8 11.05 19.55 11.3 19.05 11.3 19.0 M3.85 18.5 L3.75 18.1 M2.75 16.6 L3.0 16.6 M4.1 20.15 L4.0 19.35 3.85 18.5 M4.1 21.15 L4.1 20.15 M3.45 24.7 Q5.7 25.45 10.6 24.7 L11.25 24.1 12.7 24.1 12.7 25.2 12.6 26.5 8.7 26.75 Q5.95 26.95 5.6 26.75 L4.5 26.45 3.5 26.2 Q3.25 26.0 3.4 25.15 L3.45 24.7 M12.7 23.5 L12.45 19.8 12.5 19.0" fill="none" stroke="#0c0c0c" stroke-linecap="round" stroke-linejoin="round" stroke-width="1.0"/>
    <path d="M11.9 7.4 L12.7 7.4 M11.4 7.4 L11.9 7.4 M12.1 8.75 L12.55 8.75 M11.25 8.75 L12.1 8.75 M12.05 10.1 L12.65 10.1 M12.05 10.1 L11.35 10.1" fill="none" stroke="#211313" stroke-linecap="round" stroke-linejoin="round" stroke-width="1.0"/>
    <path d="M12.0 3.0 Q12.55 2.3 9.65 1.0 6.75 -0.3 5.1 0.05 L3.6 0.45 M4.1 4.35 L4.2 4.25 Q5.2 3.3 6.55 3.3 M6.6 3.3 Q7.9 3.3 8.85 4.25 L9.5 5.05 10.85 4.45" fill="none" stroke="#0a0a0a" stroke-linecap="round" stroke-linejoin="round" stroke-width="1.0"/>
    <path d="M0.55 5.15 L0.5 5.2 0.2 5.45 0.0 6.15 0.0 6.7 0.2 7.4 0.35 7.6 0.55 7.7 0.6 7.7 M0.55 5.15 L0.4 5.1 M0.45 8.75 L0.5 8.7 0.7 8.65 M0.7 11.2 L0.5 11.2 0.35 11.1 0.2 10.9 0.0 10.2 0.0 9.65 0.2 9.0 0.45 8.75 M0.55 7.7 L0.45 7.7" fill="none" stroke="#760324" stroke-linecap="round" stroke-linejoin="round" stroke-width="1.0"/>
    <path d="M4.1 21.15 L3.85 23.0 3.75 23.3 3.6 23.8 3.45 24.7 M12.7 24.1 L12.7 23.5" fill="none" stroke="#000000" stroke-linecap="round" stroke-linejoin="round" stroke-width="1.0"/>
    <path d="M4.95 16.55 L5.45 16.55 M6.95 16.55 L11.85 16.55" fill="none" stroke="#170c0c" stroke-linecap="round" stroke-linejoin="round" stroke-width="1.0"/>
    <path d="M0.7 5.15 L1.15 5.15 1.6 5.45 1.8 6.7 1.6 7.4 1.15 7.7 0.6 7.7 M0.7 8.65 L1.05 8.65 Q1.3 8.65 1.5 8.95 L1.7 9.65 1.7 10.2 1.5 10.9 1.05 11.2 0.7 11.2" fill="none" stroke="#0e0808" stroke-linecap="round" stroke-linejoin="round" stroke-width="1.0"/>
    <path d="M3.85 18.5 L3.8 18.45 Q3.15 17.85 3.05 17.25 L3.05 17.15 3.0 16.6 3.0 16.55 2.95 16.35 3.55 15.4 3.8 15.1 6.8 15.1 Q10.35 14.6 11.6 12.85 L13.5 14.95 14.0 16.2 12.5 19.0 11.3 19.0 11.05 18.5 10.55 18.3 9.05 18.3 8.5 18.5 8.3 19.0 7.5 19.0 6.2 18.1 3.8 18.1 3.9 18.5 3.85 18.5 3.75 18.1 3.8 18.1" fill="none" stroke="#0e0808" stroke-linecap="round" stroke-linejoin="round" stroke-width="1.0"/>
  </g>
</svg>
