<?xml version="1.0" encoding="UTF-8" standalone="no"?>
<svg xmlns:ffdec="https://www.free-decompiler.com/flash" xmlns:xlink="http://www.w3.org/1999/xlink" ffdec:objectType="shape" height="8.7px" width="14.3px" xmlns="http://www.w3.org/2000/svg">
  <g transform="matrix(1.0, 0.0, 0.0, 1.0, 8.2, 5.9)">
    <path d="M-5.6 0.55 L-4.25 -0.95 4.9 -0.95 Q4.7 0.4 3.35 0.9 1.55 1.9 -1.85 1.7 L-2.05 1.7 -2.2 1.65 -2.25 1.65 -2.35 1.6 -2.85 1.55 -4.4 1.35 -5.15 1.1 -5.25 1.1 -5.25 1.0 Q-6.05 0.4 -5.6 0.55 M-5.15 1.1 L-5.25 1.0 -5.15 1.1" fill="#141414" fill-rule="evenodd" stroke="none"/>
    <path d="M-4.25 -0.95 L-5.6 -0.95 Q-6.1 -0.85 -5.6 0.55 -6.05 0.4 -5.25 1.0 L-5.15 1.1 -5.25 1.1 M-4.25 -0.95 L4.9 -0.95 Q4.7 0.4 3.35 0.9 1.55 1.9 -1.85 1.7 L-2.05 1.7 -2.2 1.65 -2.25 1.65 -2.35 1.6 -2.85 1.55 -4.4 1.35 -5.15 1.1" fill="none" stroke="#0a0a0a" stroke-linecap="round" stroke-linejoin="round" stroke-width="1.0"/>
    <path d="M-5.65 -3.4 L5.55 -3.4" fill="none" stroke="#0a0a0a" stroke-linecap="round" stroke-linejoin="round" stroke-opacity="0.8980392" stroke-width="1.0"/>
    <path d="M3.1 -1.8 L3.1 -3.35 Q3.1 -4.2 3.65 -4.2 L5.05 -4.2 Q5.6 -4.2 5.6 -3.35 L5.6 -1.75 5.45 -1.3 Q5.35 -1.1 5.05 -1.1 L3.65 -1.1 Q3.3 -1.1 3.2 -1.45 L3.1 -1.8 M5.45 1.0 Q5.45 1.9 4.95 1.9 L3.65 1.9 Q3.2 1.85 3.2 1.0 L3.2 0.8 3.2 0.3 5.45 0.3 5.45 1.0 M0.2 -1.75 L0.2 -3.35 Q0.2 -4.2 0.8 -4.2 L2.1 -4.2 Q2.7 -4.2 2.7 -3.35 L2.7 -1.75 2.6 -1.3 2.1 -1.1 0.8 -1.1 Q0.35 -1.1 0.25 -1.45 L0.2 -1.75 M2.6 1.0 Q2.6 1.9 2.05 1.9 L0.8 1.9 Q0.25 1.85 0.25 1.0 L0.25 0.8 0.25 0.3 2.6 0.3 2.6 1.0 M-3.9 -2.25 L-4.05 -1.8 Q-4.4 -1.4 -5.1 -1.4 L-7.25 -1.4 Q-7.55 -1.4 -7.6 -1.9 L-7.7 -2.2 -7.7 -4.3 Q-7.7 -5.4 -6.7 -5.4 L-5.1 -5.4 Q-3.9 -5.4 -3.9 -4.3 L-3.9 -2.25 M-7.6 0.95 L-7.6 -0.35 -4.05 -0.35 -4.05 1.1 Q-4.05 2.3 -5.25 2.3 L-6.65 2.3 Q-7.6 2.25 -7.6 1.1 L-7.6 0.95" fill="#1c1c1c" fill-rule="evenodd" stroke="none"/>
    <path d="M5.6 -1.75 L5.6 1.0 5.45 1.0 5.45 0.3 3.2 0.3 3.2 0.8 3.1 0.8 3.1 -1.8 3.2 -1.45 Q3.3 -1.1 3.65 -1.1 L5.05 -1.1 Q5.35 -1.1 5.45 -1.3 L5.6 -1.75 M2.7 -1.75 L2.7 1.0 2.6 1.0 2.6 0.3 0.25 0.3 0.25 0.8 0.2 0.8 0.2 -1.75 0.25 -1.45 Q0.35 -1.1 0.8 -1.1 L2.1 -1.1 2.6 -1.3 2.7 -1.75 M3.2 -1.45 L3.2 0.3 3.2 -1.45 M0.25 -1.45 L0.25 0.3 0.25 -1.45 M2.6 -1.3 L2.6 0.3 2.6 -1.3 M5.45 -1.3 L5.45 0.3 5.45 -1.3 M-7.7 -2.2 L-7.6 -1.9 Q-7.55 -1.4 -7.25 -1.4 L-5.1 -1.4 Q-4.4 -1.4 -4.05 -1.8 L-3.9 -2.25 -3.9 1.1 -4.05 1.1 -4.05 -0.35 -7.6 -0.35 -7.6 0.95 -7.7 0.95 -7.7 -2.2 M-4.05 -0.35 L-4.05 -1.8 -4.05 -0.35 M-7.6 -1.9 L-7.6 -0.35 -7.6 -1.9" fill="#141414" fill-rule="evenodd" stroke="none"/>
    <path d="M3.1 -1.8 L3.1 -3.35 Q3.1 -4.2 3.65 -4.2 L5.05 -4.2 Q5.6 -4.2 5.6 -3.35 L5.6 -1.75 5.45 -1.3 Q5.35 -1.1 5.05 -1.1 L3.65 -1.1 Q3.3 -1.1 3.2 -1.45 L3.1 -1.8 M5.45 1.0 Q5.45 1.9 4.95 1.9 L3.65 1.9 Q3.2 1.85 3.2 1.0 L3.2 0.8 3.2 0.3 3.2 -1.45 M0.2 -1.75 L0.2 -3.35 Q0.2 -4.2 0.8 -4.2 L2.1 -4.2 Q2.7 -4.2 2.7 -3.35 L2.7 -1.75 2.6 -1.3 2.1 -1.1 0.8 -1.1 Q0.35 -1.1 0.25 -1.45 L0.2 -1.75 M2.6 1.0 Q2.6 1.9 2.05 1.9 L0.8 1.9 Q0.25 1.85 0.25 1.0 L0.25 0.8 0.25 0.3 0.25 -1.45 M5.45 0.3 L5.45 1.0 M2.6 0.3 L2.6 1.0 M2.6 0.3 L2.6 -1.3 M5.45 0.3 L5.45 -1.3 M-7.7 -2.2 L-7.6 -1.9 Q-7.55 -1.4 -7.25 -1.4 L-5.1 -1.4 Q-4.4 -1.4 -4.05 -1.8 L-3.9 -2.25 -3.9 -4.3 Q-3.9 -5.4 -5.1 -5.4 L-6.7 -5.4 Q-7.7 -5.4 -7.7 -4.3 L-7.7 -2.2 M-7.6 0.95 L-7.6 -0.35 -7.6 -1.9 M-4.05 -1.8 L-4.05 -0.35 -4.05 1.1 Q-4.05 2.3 -5.25 2.3 L-6.65 2.3 Q-7.6 2.25 -7.6 1.1 L-7.6 0.95" fill="none" stroke="#0a0a0a" stroke-linecap="round" stroke-linejoin="round" stroke-width="1.0"/>
    <path d="M5.0 -1.6 L5.0 -0.9" fill="none" stroke="#484848" stroke-linecap="round" stroke-linejoin="round" stroke-width="1.0"/>
    <path d="M1.45 -1.6 L1.45 -0.9" fill="none" stroke="#484848" stroke-linecap="round" stroke-linejoin="round" stroke-width="1.0"/>
    <path d="M-6.35 -1.0 L-6.35 -1.85" fill="none" stroke="#484848" stroke-linecap="round" stroke-linejoin="round" stroke-width="1.0"/>
  </g>
</svg>
