<?xml version="1.0" encoding="UTF-8" standalone="no"?>
<svg xmlns:ffdec="https://www.free-decompiler.com/flash" xmlns:xlink="http://www.w3.org/1999/xlink" ffdec:objectType="shape" height="29.05px" width="23.35px" xmlns="http://www.w3.org/2000/svg">
  <g transform="matrix(1.0, 0.0, 0.0, 1.0, 0.5, 1.15)">
    <path d="M11.4 2.4 L6.0 2.25 4.25 -0.65 Q9.75 -0.25 12.85 1.25 L15.9 1.25 15.2 3.2 11.4 2.4 M15.5 27.4 L11.45 27.4 6.05 25.9 7.1 22.6 18.2 22.6 18.2 27.4 15.5 27.4 16.05 23.75 15.5 27.4" fill="#696969" fill-rule="evenodd" stroke="none"/>
    <path d="M11.4 2.4 L6.0 2.25 4.25 -0.65 Q9.75 -0.25 12.85 1.25 L15.9 1.25 15.2 3.2 11.4 2.4 M15.5 27.4 L18.2 27.4 18.2 22.6 7.1 22.6 6.05 25.9 11.45 27.4 15.5 27.4 16.05 23.75" fill="none" stroke="#383737" stroke-linecap="round" stroke-linejoin="round" stroke-width="1.0"/>
    <path d="M6.05 20.0 L5.4 19.95 4.8 18.35 5.6 18.4 7.95 18.55 8.25 18.6 8.55 18.6 9.15 18.65 10.3 18.75 15.05 19.1 14.55 20.75 6.05 20.0" fill="#2e2e2e" fill-rule="evenodd" stroke="none"/>
    <path d="M8.45 2.65 L8.6 2.5 8.65 2.55 8.55 2.65 8.45 2.65 M8.8 2.7 L9.3 3.1 8.7 2.8 8.65 2.75 8.8 2.65 8.8 2.7" fill="#202020" fill-rule="evenodd" stroke="none"/>
    <path d="M14.25 15.0 L14.2 15.0 14.15 13.65 14.25 15.0" fill="#383838" fill-rule="evenodd" stroke="none"/>
    <path d="M6.85 2.6 L7.65 2.6 7.95 2.6 8.45 2.65 8.55 2.65 8.75 2.6 8.8 2.65 8.8 2.7 8.8 2.65 8.55 2.65 8.8 2.65 8.55 2.65 8.8 2.65 8.65 2.75 8.45 2.65 8.55 2.65 8.45 2.65 7.3 2.6 6.85 2.6 M12.2 5.8 L12.2 7.1 8.05 7.35 Q6.8 8.7 6.8 10.6 6.9 12.8 7.7 13.7 L10.55 14.5 Q12.65 14.85 14.1 13.2 L14.15 13.65 14.2 15.0 14.25 15.0 14.35 16.8 15.55 17.45 15.05 19.1 10.3 18.75 9.15 18.65 8.55 18.6 8.25 18.6 7.95 18.55 5.4 14.4 5.3 13.8 5.0 11.85 4.95 10.65 Q5.05 7.1 8.7 2.8 L9.3 3.1 Q11.65 4.5 12.2 5.8 M7.65 2.6 L7.3 2.6 7.65 2.6" fill="#3f3f3f" fill-rule="evenodd" stroke="none"/>
    <path d="M22.0 11.65 L22.25 13.45 14.1 13.2 14.0 11.4 22.0 11.65 M22.35 15.25 L22.2 17.0 Q21.65 18.6 20.2 19.9 L15.55 17.45 14.35 16.8 14.25 15.0 22.35 15.25 M17.8 5.85 L19.15 6.0 Q20.9 7.8 21.5 9.5 L13.65 9.5 12.2 8.35 12.2 7.1 12.2 5.8 14.45 5.7 17.8 5.85" fill="#232323" fill-rule="evenodd" stroke="none"/>
    <path d="M21.5 9.5 L22.0 11.65 14.0 11.4 13.95 11.4 13.65 9.5 21.5 9.5 M22.25 13.45 L22.35 15.25 14.25 15.0 14.15 13.65 14.1 13.2 22.25 13.45" fill="#333333" fill-rule="evenodd" stroke="none"/>
    <path d="M13.65 9.5 L13.95 11.4 14.0 11.4 14.1 13.2 Q12.65 14.85 10.55 14.5 L7.7 13.7 Q6.9 12.8 6.8 10.6 6.8 8.7 8.05 7.35 L12.2 7.1 12.2 8.35 13.65 9.5" fill="#696969" fill-rule="evenodd" stroke="none"/>
    <path d="M9.95 23.75 L7.2 23.5 Q6.55 21.85 6.05 20.0 L14.55 20.75 11.6 20.75 9.95 23.75 M8.65 2.75 L8.7 2.8 Q5.05 7.1 4.95 10.65 L4.8 6.75 4.05 5.3 Q5.85 3.75 8.65 2.75 M5.45 14.85 L5.4 14.4 7.95 18.55 5.6 18.4 5.6 18.3 6.15 18.2 5.45 14.85" fill="#2a2a2a" fill-rule="evenodd" stroke="none"/>
    <path d="M20.2 19.9 L20.0 20.95 18.65 23.75 9.95 23.75 11.6 20.75 14.55 20.75 15.05 19.1 15.55 17.45 20.2 19.9 M4.8 18.35 L2.9 14.5 3.6 15.4 5.45 14.85 5.3 13.8 5.4 14.4 5.45 14.85 6.15 18.2 5.6 18.3 4.8 18.35 M3.3 3.9 L5.05 2.55 5.7 2.55 6.4 2.6 6.85 2.6 7.3 2.6 8.45 2.65 8.65 2.75 Q5.85 3.75 4.05 5.3 L3.8 4.85 3.3 3.9 M8.75 2.6 Q12.25 2.05 15.2 3.2 17.5 4.35 17.8 5.85 L14.45 5.7 12.2 5.8 Q11.65 4.5 9.3 3.1 L8.8 2.7 8.8 2.65 8.75 2.6 M6.15 18.2 Q5.25 16.85 5.6 18.3 5.25 16.85 6.15 18.2" fill="#1e1e1e" fill-rule="evenodd" stroke="none"/>
    <path d="M2.9 14.5 L2.0 13.35 1.35 12.8 0.5 8.7 0.1 6.95 Q-0.35 4.1 1.2 3.9 L3.25 3.9 3.3 3.9 3.8 4.85 4.05 5.3 4.8 6.75 4.95 10.65 5.0 11.85 5.3 13.8 5.45 14.85 3.6 15.4 2.9 14.5 M2.0 13.35 L5.0 11.85 2.0 13.35" fill="#353535" fill-rule="evenodd" stroke="none"/>
    <path d="M6.05 20.0 L5.4 19.95 4.8 18.35 5.6 18.4 M14.55 20.75 L6.05 20.0" fill="none" stroke="#171717" stroke-linecap="round" stroke-linejoin="round" stroke-width="1.0"/>
    <path d="M8.65 2.55 L8.75 2.6 M8.8 2.7 L9.3 3.1 Q11.65 4.5 12.2 5.8 M8.8 2.65 L8.8 2.7" fill="none" stroke="#191919" stroke-linecap="round" stroke-linejoin="round" stroke-width="1.2000000000000002"/>
    <path d="M21.5 9.5 L22.0 11.65 22.25 13.45 22.35 15.25 22.2 17.0 Q21.65 18.6 20.2 19.9 L20.0 20.95 18.65 23.75 9.95 23.75 7.2 23.5 Q6.55 21.85 6.05 20.0 M4.8 18.35 L2.9 14.5 M3.3 3.9 L5.05 2.55 6.4 2.6 6.85 2.6 7.65 2.6 7.95 2.6 8.45 2.65 8.55 2.65 8.75 2.6 Q12.25 2.05 15.2 3.2 17.5 4.35 17.8 5.85 L19.15 6.0 Q20.9 7.8 21.5 9.5 L13.65 9.5 13.95 11.4 14.0 11.4 22.0 11.65 M17.8 5.85 L14.45 5.7 12.2 5.8 12.2 7.1 12.2 8.35 13.65 9.5 M8.8 2.65 L8.55 2.65 8.8 2.65 8.65 2.75 Q5.85 3.75 4.05 5.3 L4.8 6.75 M8.55 2.65 L8.45 2.65 M6.85 2.6 L7.3 2.6 7.65 2.6 M3.8 4.85 L4.05 5.3 M12.2 7.1 L8.05 7.35 Q6.8 8.7 6.8 10.6 6.9 12.8 7.7 13.7 L10.55 14.5 Q12.65 14.85 14.1 13.2 L14.0 11.4 M5.7 2.55 L5.05 2.55 M5.45 14.85 L5.4 14.4 5.3 13.8 M5.6 18.4 L5.6 18.3 4.8 18.35 M5.6 18.4 L7.95 18.55 M5.6 18.3 Q5.25 16.85 6.15 18.2 L5.45 14.85 M6.15 18.2 L5.6 18.3 M8.25 18.6 L8.55 18.6 9.15 18.65 10.3 18.75 15.05 19.1 15.55 17.45 14.35 16.8 14.25 15.0 14.2 15.0 14.15 13.65 14.1 13.2 22.25 13.45 M14.15 13.65 L14.25 15.0 22.35 15.25 M14.55 20.75 L11.6 20.75 9.95 23.75 M15.05 19.1 L14.55 20.75 M15.55 17.45 L20.2 19.9" fill="none" stroke="#191919" stroke-linecap="round" stroke-linejoin="round" stroke-width="1.0"/>
    <path d="M2.9 14.5 L2.0 13.35 1.35 12.8 0.5 8.7 M0.1 6.95 Q-0.35 4.1 1.2 3.9 L3.25 3.9 3.3 3.9 3.8 4.85 M4.8 6.75 L4.95 10.65 5.0 11.85 2.0 13.35 M5.3 13.8 L5.45 14.85 3.6 15.4 2.9 14.5 M5.3 13.8 L5.0 11.85" fill="none" stroke="#0e0e0e" stroke-linecap="round" stroke-linejoin="round" stroke-width="1.0"/>
    <path d="M0.5 8.7 L0.1 6.95" fill="none" stroke="#1c1c1c" stroke-linecap="round" stroke-linejoin="round" stroke-width="1.0"/>
    <path d="M15.55 7.8 L19.0 7.8 19.0 15.65 15.55 15.65 15.55 7.8" fill="#3f3f3f" fill-rule="evenodd" stroke="none"/>
    <path d="M15.55 7.8 L19.0 7.8 19.0 15.65 15.55 15.65 15.55 7.8 Z" fill="none" stroke="#2a2a2a" stroke-linecap="round" stroke-linejoin="round" stroke-width="1.0"/>
    <path d="M16.15 11.25 L16.15 10.05 18.65 10.05 18.65 11.25 16.15 11.25 M16.15 11.85 L18.65 11.85 18.65 13.05 16.15 13.05 16.15 11.85 M16.15 8.25 L18.65 8.25 18.65 9.45 16.15 9.45 16.15 8.25 M16.15 13.65 L18.65 13.65 18.65 14.85 16.15 14.85 16.15 13.65" fill="#511212" fill-rule="evenodd" stroke="none"/>
    <path d="M19.95 22.7 L19.95 24.85 5.75 24.85 5.8 22.7 19.95 22.7" fill="#1e1e1e" fill-rule="evenodd" stroke="none"/>
    <path d="M16.15 10.05 L18.65 10.05 18.65 11.25 16.15 11.25 M16.15 11.85 L18.65 11.85 18.65 13.05 16.15 13.05 M16.15 8.25 L18.65 8.25 18.65 9.45 16.15 9.45 M16.15 13.65 L18.65 13.65 18.65 14.85 16.15 14.85" fill="none" stroke="#3f1313" stroke-linecap="round" stroke-linejoin="round" stroke-width="0.8"/>
    <path d="M16.15 11.25 L16.15 10.05 M16.15 13.05 L16.15 11.85 M16.15 9.45 L16.15 8.25 M16.15 14.85 L16.15 13.65" fill="none" stroke="#eed100" stroke-linecap="round" stroke-linejoin="round" stroke-width="0.8"/>
    <path d="M19.95 22.7 L19.95 24.85 5.75 24.85 5.8 22.7 19.95 22.7 Z" fill="none" stroke="#191919" stroke-linecap="round" stroke-linejoin="round" stroke-width="0.8"/>
    <path d="M17.45 22.6 L18.65 22.6 18.65 25.1 17.45 25.1 17.45 22.6 M15.75 22.6 L16.95 22.6 16.95 25.1 15.75 25.1 15.75 22.6 M14.0 22.6 L15.2 22.6 15.2 25.1 14.0 25.1 14.0 22.6 M12.2 22.6 L13.4 22.6 13.4 25.1 12.2 25.1 12.2 22.6 M10.5 22.6 L11.7 22.6 11.7 25.1 10.5 25.1 10.5 22.6 M8.75 22.6 L9.95 22.6 9.95 25.1 8.75 25.1 8.75 22.6" fill="#511212" fill-rule="evenodd" stroke="none"/>
    <path d="M18.65 22.6 L18.65 25.1 17.45 25.1 17.45 22.6 M16.95 22.6 L16.95 25.1 15.75 25.1 15.75 22.6 M15.2 22.6 L15.2 25.1 14.0 25.1 14.0 22.6 M13.4 22.6 L13.4 25.1 12.2 25.1 12.2 22.6 M11.7 22.6 L11.7 25.1 10.5 25.1 10.5 22.6 M9.95 22.6 L9.95 25.1 8.75 25.1 8.75 22.6" fill="none" stroke="#3f1313" stroke-linecap="round" stroke-linejoin="round" stroke-width="0.8"/>
    <path d="M17.45 22.6 L18.65 22.6 M15.75 22.6 L16.95 22.6 M14.0 22.6 L15.2 22.6 M12.2 22.6 L13.4 22.6 M10.5 22.6 L11.7 22.6 M8.75 22.6 L9.95 22.6" fill="none" stroke="#ffdf00" stroke-linecap="round" stroke-linejoin="round" stroke-width="0.8"/>
  </g>
</svg>
