<?xml version="1.0" encoding="UTF-8" standalone="no"?>
<svg xmlns:ffdec="https://www.free-decompiler.com/flash" xmlns:xlink="http://www.w3.org/1999/xlink" ffdec:objectType="shape" height="34.9px" width="27.65px" xmlns="http://www.w3.org/2000/svg">
  <g transform="matrix(1.0, 0.0, 0.0, 1.0, 14.1, 29.05)">
    <path d="M12.15 -21.6 L12.9 -18.5 Q13.2 -15.75 12.9 -13.0 L12.45 -11.85 12.45 -11.75 Q12.1 -10.65 10.95 -22.2 L12.15 -21.6 M-13.05 -17.2 L-12.6 -18.75 -12.5 -19.3 -8.25 -23.5 Q-6.95 -23.6 -7.15 -22.4 L-13.05 -17.2 M-13.2 -21.35 L-13.6 -21.05 -13.35 -21.75 -13.2 -22.35 -12.95 -22.95 -11.6 -24.45 -10.25 -25.05 -9.3 -25.05 Q-12.8 -21.3 -13.2 -21.35" fill="#666666" fill-rule="evenodd" stroke="none"/>
    <path d="M12.15 -21.6 L10.95 -22.2 Q12.1 -10.65 12.45 -11.75 11.9 -9.5 10.3 -7.6 L7.8 -13.8 7.8 -14.75 7.8 -17.15 5.35 -19.25 5.35 -23.5 8.25 -23.5 Q11.05 -23.1 12.15 -21.6" fill="url(#gradient0)" fill-rule="evenodd" stroke="none"/>
    <path d="M5.35 -19.25 Q4.85 -17.4 1.8 -14.8 L-1.6 -14.9 -4.95 -15.0 -6.8 -21.9 -3.1 -26.1 2.65 -25.85 5.35 -23.5 5.35 -19.25" fill="url(#gradient1)" fill-rule="evenodd" stroke="none"/>
    <path d="M6.95 -3.35 Q1.4 2.4 -4.4 -3.35 L6.95 -3.35 M-3.1 -26.95 L-2.05 -28.55 Q2.8 -28.35 6.95 -26.5 L8.25 -23.5 5.35 -23.5 2.65 -25.85 -3.1 -26.1 -3.1 -26.95" fill="#333333" fill-rule="evenodd" stroke="none"/>
    <path d="M5.35 -19.25 L7.8 -17.15 7.8 -14.75 1.8 -14.8 Q4.85 -17.4 5.35 -19.25" fill="url(#gradient2)" fill-rule="evenodd" stroke="none"/>
    <path d="M7.8 -14.75 L7.8 -13.8 6.55 -12.15 -1.6 -12.1 -1.6 -14.9 1.8 -14.8 7.8 -14.75" fill="url(#gradient3)" fill-rule="evenodd" stroke="none"/>
    <path d="M3.35 -8.3 L-1.6 -8.3 -1.6 -12.1 6.55 -12.15 3.65 -8.3 3.35 -8.3" fill="url(#gradient4)" fill-rule="evenodd" stroke="none"/>
    <path d="M10.3 -7.6 Q10.3 -6.8 6.95 -3.35 L3.35 -8.3 3.65 -8.3 6.55 -12.15 7.8 -13.8 10.3 -7.6" fill="url(#gradient5)" fill-rule="evenodd" stroke="none"/>
    <path d="M-4.4 -3.35 Q-5.1 -5.0 -5.15 -6.6 L-5.1 -8.0 -5.05 -8.3 -1.6 -8.3 3.35 -8.3 6.95 -3.35 -4.4 -3.35" fill="url(#gradient6)" fill-rule="evenodd" stroke="none"/>
    <path d="M-9.45 -11.05 L-9.5 -11.05 -10.6 -14.3 Q-9.5 -13.05 -9.45 -11.05 M-12.5 -19.3 L-12.45 -19.6 -13.2 -21.35 Q-12.8 -21.3 -9.3 -25.05 L-10.25 -25.05 -11.6 -24.45 -10.5 -25.65 -9.05 -25.0 -7.45 -24.25 -8.25 -23.5 -12.45 -19.6 -8.25 -23.5 -12.5 -19.3 M-13.35 -21.75 L-13.6 -22.25 -12.95 -22.95 -13.2 -22.35 -13.35 -21.75" fill="#4d4946" fill-rule="evenodd" stroke="none"/>
    <path d="M-9.05 -25.0 L-6.5 -26.95 -3.1 -26.95 -3.1 -26.1 -6.8 -21.9 -7.45 -24.25 -9.05 -25.0" fill="url(#gradient7)" fill-rule="evenodd" stroke="none"/>
    <path d="M-10.6 -14.3 L-11.7 -14.3 Q-13.05 -15.65 -13.05 -17.05 L-13.05 -17.2 -7.15 -22.4 Q-6.95 -23.6 -8.25 -23.5 L-7.45 -24.25 -6.8 -21.9 -4.95 -15.0 -9.45 -11.05 Q-9.5 -13.05 -10.6 -14.3" fill="url(#gradient8)" fill-rule="evenodd" stroke="none"/>
    <path d="M-5.15 -6.6 Q-9.65 -6.8 -9.5 -10.3 L-9.45 -11.05 -4.95 -15.0 -1.6 -14.9 -1.6 -12.1 -1.6 -8.3 -5.05 -8.3 -5.1 -8.0 -5.15 -6.6" fill="url(#gradient9)" fill-rule="evenodd" stroke="none"/>
    <path d="M-13.05 -17.05 L-13.1 -17.15 -13.05 -17.2 -13.05 -17.05" fill="#8a8580" fill-rule="evenodd" stroke="none"/>
    <path d="M12.45 -11.75 L12.45 -11.85 12.9 -13.0 Q13.2 -15.75 12.9 -18.5 L12.15 -21.6 Q11.05 -23.1 8.25 -23.5 L6.95 -26.5 Q2.8 -28.35 -2.05 -28.55 L-3.1 -26.95 -3.1 -26.1 -6.8 -21.9 -4.95 -15.0 -1.6 -14.9 1.8 -14.8 7.8 -14.75 7.8 -13.8 10.3 -7.6 Q10.3 -6.8 6.95 -3.35 1.4 2.4 -4.4 -3.35 -5.1 -5.0 -5.15 -6.6 -9.65 -6.8 -9.5 -10.3 L-9.45 -11.05 -9.5 -11.05 -10.6 -14.3 -11.7 -14.3 Q-13.05 -15.65 -13.05 -17.05 L-13.05 -17.2 -12.6 -18.75 -12.5 -19.3 -12.45 -19.6 -13.2 -21.35 M12.45 -11.75 Q11.9 -9.5 10.3 -7.6 M-13.35 -21.75 L-13.6 -22.25 -12.95 -22.95 -11.6 -24.45 -10.5 -25.65 -9.05 -25.0 -6.5 -26.95 -3.1 -26.95 M5.35 -19.25 L7.8 -17.15 7.8 -14.75 M5.35 -19.25 Q4.85 -17.4 1.8 -14.8 M5.35 -23.5 L8.25 -23.5 M5.35 -23.5 L5.35 -19.25 M6.95 -3.35 L3.35 -8.3 -1.6 -8.3 -5.05 -8.3 -5.1 -8.0 -5.15 -6.6 M3.35 -8.3 L3.65 -8.3 6.55 -12.15 -1.6 -12.1 -1.6 -8.3 M6.55 -12.15 L7.8 -13.8 M-3.1 -26.1 L2.65 -25.85 5.35 -23.5 M-6.8 -21.9 L-7.45 -24.25 -8.25 -23.5 -12.45 -19.6 M-4.95 -15.0 L-9.45 -11.05 Q-9.5 -13.05 -10.6 -14.3 M-1.6 -14.9 L-1.6 -12.1 M-7.45 -24.25 L-9.05 -25.0 M-4.4 -3.35 L6.95 -3.35" fill="none" stroke="#2b2927" stroke-linecap="round" stroke-linejoin="round" stroke-width="1.0"/>
    <path d="M-1.85 -5.45 L-0.05 -4.1 Q3.65 -3.75 7.3 -4.25 L4.3 0.2 -3.25 0.2 -6.95 -4.35 -3.95 -4.35 -1.85 -5.45" fill="#ffffff" fill-rule="evenodd" stroke="none"/>
    <path d="M-1.85 -5.45 L-0.05 -4.1 Q3.65 -3.75 7.3 -4.25 L4.3 0.2 -3.25 0.2 -6.95 -4.35 -3.95 -4.35 -1.85 -5.45 -1.55 -5.6" fill="none" stroke="#2b2927" stroke-linecap="round" stroke-linejoin="round" stroke-width="1.0"/>
    <path d="M4.9 -4.6 L6.65 -5.7 9.8 -4.9 8.8 2.15 5.8 5.35 2.35 1.8 4.45 -0.5 4.9 -4.6" fill="#4d4946" fill-rule="evenodd" stroke="none"/>
    <path d="M4.9 -4.5 L4.4 -0.4 2.3 1.9 5.8 5.4 1.95 4.8 0.1 2.75 -0.25 -3.85 1.8 -3.65 3.1 -4.75 4.9 -4.5" fill="url(#gradient10)" fill-rule="evenodd" stroke="none"/>
    <path d="M-4.7 2.0 L-6.05 1.8 Q-6.65 1.65 -7.5 0.9 L-8.3 0.25 -9.2 -3.3 -8.75 -4.55 Q-8.25 -5.8 -7.8 -5.9 L-5.75 -6.35 -4.7 2.0" fill="url(#gradient11)" fill-rule="evenodd" stroke="none"/>
    <path d="M-5.75 -6.35 L-4.2 -7.75 -1.35 -7.7 -0.25 -3.95 0.15 2.7 -4.7 2.0 -5.75 -6.35" fill="#4d4946" fill-rule="evenodd" stroke="none"/>
    <path d="M-5.7 -6.35 L-7.8 -5.85 Q-8.25 -5.75 -8.75 -4.5 L-9.15 -3.25 -8.3 0.3 -7.5 0.95 Q-6.65 1.7 -6.05 1.9 L0.1 2.7 2.0 4.75 5.85 5.35 8.8 2.2 9.8 -4.85 6.65 -5.7" fill="none" stroke="#2b2927" stroke-linecap="round" stroke-linejoin="round" stroke-opacity="0.972549" stroke-width="1.0"/>
    <path d="M-5.7 -6.35 L-4.2 -7.75 -1.3 -7.6 -0.25 -3.9 1.8 -3.7 3.15 -4.8" fill="none" stroke="#2b2927" stroke-linecap="round" stroke-linejoin="round" stroke-width="1.0"/>
    <path d="M6.65 -5.7 L4.9 -4.55 4.45 -0.45 2.3 1.9 5.85 5.35 M4.9 -4.55 L3.15 -4.8" fill="none" stroke="#2b2927" stroke-linecap="round" stroke-linejoin="round" stroke-width="1.0"/>
    <path d="M-0.25 -3.7 L0.1 2.7" fill="none" stroke="#2b2927" stroke-linecap="round" stroke-linejoin="round" stroke-width="1.0"/>
    <path d="M-5.75 -6.3 L-4.75 2.1" fill="none" stroke="#2b2927" stroke-linecap="round" stroke-linejoin="round" stroke-width="1.0"/>
  </g>
  <defs>
    <radialGradient cx="0" cy="0" gradientTransform="matrix(0.0128, 0.0, 0.0, 0.0128, 6.6, -16.3)" gradientUnits="userSpaceOnUse" id="gradient0" r="819.2" spreadMethod="pad">
      <stop offset="0.0" stop-color="#47423c"/>
      <stop offset="1.0" stop-color="#635547"/>
    </radialGradient>
    <radialGradient cx="0" cy="0" gradientTransform="matrix(0.0087, 0.0, 0.0, 0.0087, -0.5, -20.6)" gradientUnits="userSpaceOnUse" id="gradient1" r="819.2" spreadMethod="pad">
      <stop offset="0.0" stop-color="#4d4946"/>
      <stop offset="1.0" stop-color="#3c3b38"/>
      <stop offset="1.0" stop-color="#333333"/>
    </radialGradient>
    <linearGradient gradientTransform="matrix(0.0037, 0.0, 0.0, 0.0027, 4.8, -17.0)" gradientUnits="userSpaceOnUse" id="gradient2" spreadMethod="pad" x1="-819.2" x2="819.2">
      <stop offset="0.0" stop-color="#666666"/>
      <stop offset="1.0" stop-color="#333333"/>
    </linearGradient>
    <linearGradient gradientTransform="matrix(0.0057, 0.0, 0.0, 0.0017, 3.1, -13.5)" gradientUnits="userSpaceOnUse" id="gradient3" spreadMethod="pad" x1="-819.2" x2="819.2">
      <stop offset="0.0" stop-color="#666666"/>
      <stop offset="1.0" stop-color="#333333"/>
    </linearGradient>
    <linearGradient gradientTransform="matrix(0.005, 0.0, 0.0, 0.0023, 2.45, -10.25)" gradientUnits="userSpaceOnUse" id="gradient4" spreadMethod="pad" x1="-819.2" x2="819.2">
      <stop offset="0.0" stop-color="#666666"/>
      <stop offset="1.0" stop-color="#333333"/>
    </linearGradient>
    <radialGradient cx="0" cy="0" gradientTransform="matrix(0.0078, 0.0, 0.0, 0.0078, 7.15, -10.15)" gradientUnits="userSpaceOnUse" id="gradient5" r="819.2" spreadMethod="pad">
      <stop offset="0.0" stop-color="#4d4946"/>
      <stop offset="1.0" stop-color="#3c3b38"/>
      <stop offset="1.0" stop-color="#333333"/>
    </radialGradient>
    <radialGradient cx="0" cy="0" gradientTransform="matrix(0.0085, 0.0, 0.0, 0.0085, 4.3, -3.8)" gradientUnits="userSpaceOnUse" id="gradient6" r="819.2" spreadMethod="pad">
      <stop offset="0.0" stop-color="#47423c"/>
      <stop offset="1.0" stop-color="#635547"/>
    </radialGradient>
    <linearGradient gradientTransform="matrix(0.0036, 0.0, 0.0, 0.0031, -6.1, -24.45)" gradientUnits="userSpaceOnUse" id="gradient7" spreadMethod="pad" x1="-819.2" x2="819.2">
      <stop offset="0.0" stop-color="#666666"/>
      <stop offset="1.0" stop-color="#333333"/>
      <stop offset="1.0" stop-color="#333333"/>
    </linearGradient>
    <radialGradient cx="0" cy="0" gradientTransform="matrix(0.0085, 0.0, 0.0, 0.0085, -7.1, -17.55)" gradientUnits="userSpaceOnUse" id="gradient8" r="819.2" spreadMethod="pad">
      <stop offset="0.0" stop-color="#4d4946"/>
      <stop offset="1.0" stop-color="#3c3b38"/>
      <stop offset="1.0" stop-color="#333333"/>
    </radialGradient>
    <radialGradient cx="0" cy="0" gradientTransform="matrix(0.0073, 0.0, 0.0, 0.0073, -0.3, -13.25)" gradientUnits="userSpaceOnUse" id="gradient9" r="819.2" spreadMethod="pad">
      <stop offset="0.0" stop-color="#47423c"/>
      <stop offset="1.0" stop-color="#635547"/>
    </radialGradient>
    <radialGradient cx="0" cy="0" gradientTransform="matrix(0.1059, 0.0, 0.0, 0.1125, -80.15, 13.8)" gradientUnits="userSpaceOnUse" id="gradient10" r="819.2" spreadMethod="pad">
      <stop offset="0.0" stop-color="#47423c"/>
      <stop offset="1.0" stop-color="#635547"/>
    </radialGradient>
    <radialGradient cx="0" cy="0" gradientTransform="matrix(0.1032, 0.0, 0.0, 0.1097, -88.15, 13.8)" gradientUnits="userSpaceOnUse" id="gradient11" r="819.2" spreadMethod="pad">
      <stop offset="0.0" stop-color="#47423c"/>
      <stop offset="1.0" stop-color="#635547"/>
    </radialGradient>
  </defs>
</svg>
