<?xml version="1.0" encoding="UTF-8" standalone="no"?>
<svg xmlns:ffdec="https://www.free-decompiler.com/flash" xmlns:xlink="http://www.w3.org/1999/xlink" ffdec:objectType="shape" height="29.05px" width="27.65px" xmlns="http://www.w3.org/2000/svg">
  <g transform="matrix(1.0, 0.0, 0.0, 1.0, 15.45, 31.0)">
    <path d="M-5.9 -9.35 L-9.5 -11.65 -8.95 -25.3 -4.25 -26.9 -4.25 -26.85 -2.1 -28.3 -0.8 -28.6 0.75 -28.25 Q2.05 -27.95 4.75 -26.4 7.5 -24.85 8.6 -23.75 L7.75 -14.2 7.5 -9.05 Q7.2 -6.05 5.85 -4.45 4.45 -2.7 1.25 -2.5 L-1.5 -2.4 Q-2.8 -2.55 -3.75 -3.55 -5.45 -5.35 -5.9 -9.35 L-5.85 -9.35 -5.9 -9.4 -5.9 -9.35 -5.9 -9.4 -5.85 -9.35 -5.9 -9.35" fill="#1c1224" fill-rule="evenodd" stroke="none"/>
    <path d="M-5.9 -9.35 Q-5.45 -5.35 -3.75 -3.55 -2.8 -2.55 -1.5 -2.4 L1.25 -2.5 Q4.45 -2.7 5.85 -4.45 7.2 -6.05 7.5 -9.05 L7.75 -14.2 8.6 -23.75 Q7.5 -24.85 4.75 -26.4 2.05 -27.95 0.75 -28.25 L-0.8 -28.6 -2.1 -28.3 -4.25 -26.85 -4.25 -26.9 -8.95 -25.3 -9.5 -11.65 -5.9 -9.35 -5.9 -9.4 -5.85 -9.35 -5.9 -9.35 Z" fill="none" stroke="#08060a" stroke-linecap="round" stroke-linejoin="round" stroke-width="0.9500000000000001"/>
    <path d="M10.45 -16.15 L8.65 -6.0 3.5 -6.3 2.05 -15.25 -0.6 -15.6 -0.95 -21.65 5.75 -21.45 6.5 -16.3 10.45 -16.15" fill="#2c1b38" fill-rule="evenodd" stroke="none"/>
    <path d="M10.45 -16.15 L8.65 -6.0 3.5 -6.3 2.05 -15.25 -0.6 -15.6 -0.95 -21.65 5.75 -21.45 6.5 -16.3 10.45 -16.15 Z" fill="none" stroke="#120c17" stroke-linecap="round" stroke-linejoin="round" stroke-width="0.9500000000000001"/>
    <path d="M9.1 -23.4 L5.75 -23.45 5.75 -21.45 0.65 -21.6 2.45 -26.45 6.25 -25.75 Q7.25 -25.35 7.95 -24.65 L9.1 -23.4" fill="#2c1b38" fill-rule="evenodd" stroke="none"/>
    <path d="M9.1 -23.4 L7.95 -24.65 Q7.25 -25.35 6.25 -25.75 L2.45 -26.45 0.65 -21.6 5.75 -21.45 5.75 -23.45 9.1 -23.4 Z" fill="none" stroke="#120c17" stroke-linecap="round" stroke-linejoin="round" stroke-width="0.9500000000000001"/>
    <path d="M4.95 -23.7 L11.0 -23.35 Q12.35 -16.95 11.2 -12.05 L6.55 -12.9 3.45 -19.5 Q3.15 -20.65 3.7 -21.8 L4.95 -23.7" fill="url(#gradient0)" fill-rule="evenodd" stroke="none"/>
    <path d="M4.95 -23.7 L11.0 -23.35 Q12.35 -16.95 11.2 -12.05 L6.55 -12.9 3.45 -19.5 Q3.15 -20.65 3.7 -21.8 L4.95 -23.7 Z" fill="none" stroke="#120c17" stroke-linecap="round" stroke-linejoin="round" stroke-width="0.9500000000000001"/>
    <path d="M-4.25 -26.85 L-0.95 -21.65 -0.8 -7.65 -5.8 -4.1 -10.0 -7.1 -8.95 -25.3 -4.25 -26.85" fill="#2c1b38" fill-rule="evenodd" stroke="none"/>
    <path d="M-4.25 -26.85 L-0.95 -21.65 -0.8 -7.65 -5.8 -4.1 -10.0 -7.1 -8.95 -25.3 -4.25 -26.85 Z" fill="none" stroke="#120c17" stroke-linecap="round" stroke-linejoin="round" stroke-width="0.9500000000000001"/>
    <path d="M-5.45 -10.6 L-12.25 -9.55 -15.0 -20.0 -14.05 -27.8 -8.75 -30.55 -3.35 -27.5 -6.85 -21.75 -5.45 -10.6" fill="url(#gradient1)" fill-rule="evenodd" stroke="none"/>
    <path d="M-5.45 -10.6 L-12.25 -9.55 -15.0 -20.0 -14.05 -27.8 -8.75 -30.55 -3.35 -27.5 -6.85 -21.75 -5.45 -10.6 Z" fill="none" stroke="#120c17" stroke-linecap="round" stroke-linejoin="round" stroke-width="0.9500000000000001"/>
    <path d="M-12.25 -28.7 L-8.75 -27.05 -11.0 -17.85 -14.1 -17.25 -15.0 -19.9 -14.05 -27.8 -12.25 -28.7" fill="#1c1224" fill-rule="evenodd" stroke="none"/>
    <path d="M-12.25 -28.7 L-8.75 -27.05 -11.0 -17.85 -14.1 -17.25 -15.0 -19.9 -14.05 -27.8 -12.25 -28.7 Z" fill="none" stroke="#120c17" stroke-linecap="round" stroke-linejoin="round" stroke-width="0.9500000000000001"/>
    <path d="M-14.25 -26.2 L-11.25 -25.7" fill="none" stroke="#bd9ed0" stroke-linecap="round" stroke-linejoin="round" stroke-width="0.9500000000000001"/>
    <path d="M-14.5 -23.85 L-11.6 -23.3" fill="none" stroke="#bd9ed0" stroke-linecap="round" stroke-linejoin="round" stroke-width="0.9500000000000001"/>
    <path d="M-14.8 -21.45 L-12.1 -21.05" fill="none" stroke="#bd9ed0" stroke-linecap="round" stroke-linejoin="round" stroke-width="0.9500000000000001"/>
  </g>
  <defs>
    <radialGradient cx="0" cy="0" gradientTransform="matrix(0.0056, 0.0, 0.0, 0.0077, 9.9, -19.95)" gradientUnits="userSpaceOnUse" id="gradient0" r="819.2" spreadMethod="pad">
      <stop offset="0.0" stop-color="#3d244d"/>
      <stop offset="1.0" stop-color="#2c1b38"/>
    </radialGradient>
    <linearGradient gradientTransform="matrix(0.0077, 0.0, 0.0, 0.0077, -9.15, -20.05)" gradientUnits="userSpaceOnUse" id="gradient1" spreadMethod="pad" x1="-819.2" x2="819.2">
      <stop offset="0.0" stop-color="#3e214e"/>
      <stop offset="1.0" stop-color="#2c1b38"/>
    </linearGradient>
  </defs>
</svg>
