<?xml version="1.0" encoding="UTF-8" standalone="no"?>
<svg xmlns:ffdec="https://www.free-decompiler.com/flash" xmlns:xlink="http://www.w3.org/1999/xlink" ffdec:objectType="shape" height="30.7px" width="25.55px" xmlns="http://www.w3.org/2000/svg">
  <g transform="matrix(1.0, 0.0, 0.0, 1.0, 15.15, 30.25)">
    <path d="M3.5 -24.75 Q4.55 -24.3 4.95 -22.95 5.95 -20.8 7.05 -20.85 8.25 -20.75 9.0 -18.15 7.4 -18.15 7.6 -16.6 8.35 -15.25 9.6 -15.55 L9.9 -14.15 5.7 -9.5 4.7 -10.1 3.7 -10.75 -2.55 -7.9 -5.45 -8.15 -6.8 -10.0 -7.45 -10.6 -7.7 -12.8 -7.7 -14.7 -9.75 -15.1 -10.15 -20.65 -8.55 -21.9 Q-7.05 -23.3 -5.2 -22.85 -4.35 -22.55 -4.0 -23.6 L-3.15 -26.4 3.5 -24.75 M4.3 -13.25 Q4.3 -12.85 4.6 -12.55 4.9 -12.25 5.3 -12.25 5.75 -12.25 6.0 -12.55 L6.3 -13.25 6.0 -14.0 5.3 -14.25 4.6 -14.0 Q4.3 -13.7 4.3 -13.25 M2.55 -19.9 L2.2 -17.25 2.55 -19.9 M-2.45 -13.35 L-5.0 -14.15 -4.7 -11.25 -2.45 -13.35 -4.7 -11.25 -5.0 -14.15 -2.45 -13.35 M-2.65 -17.0 L-6.8 -17.5 -2.65 -17.0 M1.25 -23.45 L-1.9 -24.25 1.25 -23.45 M-1.3 -12.25 L-3.55 -10.15 -1.3 -12.25" fill="url(#gradient0)" fill-rule="evenodd" stroke="none"/>
    <path d="M4.3 -13.25 Q4.3 -13.7 4.6 -14.0 L5.3 -14.25 6.0 -14.0 6.3 -13.25 6.0 -12.55 Q5.75 -12.25 5.3 -12.25 4.9 -12.25 4.6 -12.55 4.3 -12.85 4.3 -13.25" fill="url(#gradient1)" fill-rule="evenodd" stroke="none"/>
    <path d="M4.7 -10.1 Q3.9 -7.7 4.1 -3.8 4.3 -0.3 -0.45 -0.05 -5.25 0.2 -5.9 -3.4 -6.2 -7.65 -6.8 -10.0 L-5.45 -8.15 -2.55 -7.9 3.7 -10.75 4.7 -10.1" fill="url(#gradient2)" fill-rule="evenodd" stroke="none"/>
    <path d="M-13.25 -23.4 L-14.25 -24.35 Q-13.55 -24.65 -13.0 -26.15 L-12.0 -28.8 -9.7 -29.6 Q-8.35 -30.15 -7.95 -28.9 -7.3 -27.5 -5.2 -27.2 L-5.2 -27.15 -3.15 -26.4 -4.0 -23.6 Q-4.35 -22.55 -5.2 -22.85 -7.05 -23.3 -8.55 -21.9 L-10.15 -20.65 -10.25 -20.55 -11.45 -21.65 -13.25 -23.4" fill="#354759" fill-rule="evenodd" stroke="none"/>
    <path d="M-5.2 -27.2 L-4.85 -28.05 Q-4.45 -29.2 -0.45 -29.0 2.6 -28.15 3.5 -24.75 L-3.15 -26.4 -5.2 -27.15 -5.2 -27.2" fill="#323232" fill-rule="evenodd" stroke="none"/>
    <path d="M-7.7 -12.8 L-13.0 -10.45 -14.35 -16.2 Q-15.3 -19.8 -13.25 -23.4 L-11.45 -21.65 -12.15 -17.2 -14.35 -16.2 -12.15 -17.2 -11.45 -21.65 -10.25 -20.55 -10.15 -20.65 -9.75 -15.1 -7.7 -14.7 -7.7 -12.8" fill="#6d7b83" fill-rule="evenodd" stroke="none"/>
    <path d="M9.0 -18.15 L9.6 -15.55 Q8.35 -15.25 7.6 -16.6 7.4 -18.15 9.0 -18.15" fill="#f4b16a" fill-rule="evenodd" stroke="none"/>
    <path d="M3.5 -24.75 Q4.55 -24.3 4.95 -22.95 5.95 -20.8 7.05 -20.85 8.25 -20.75 9.0 -18.15 M9.6 -15.55 L9.9 -14.15 5.7 -9.5 4.7 -10.1 3.7 -10.75 -2.55 -7.9 -5.45 -8.15 -6.8 -10.0 -7.45 -10.6 -7.7 -12.8 -7.7 -14.7 -9.75 -15.1 -10.15 -20.65" fill="none" stroke="#1d2630" stroke-linecap="round" stroke-linejoin="round" stroke-width="1.0"/>
    <path d="M4.7 -10.1 Q3.9 -7.7 4.1 -3.8 4.3 -0.3 -0.45 -0.05 -5.25 0.2 -5.9 -3.4 -6.2 -7.65 -6.8 -10.0" fill="none" stroke="#1a1a1a" stroke-linecap="round" stroke-linejoin="round" stroke-width="1.0"/>
    <path d="M-13.25 -23.4 L-14.25 -24.35 Q-13.55 -24.65 -13.0 -26.15 L-12.0 -28.8 -9.7 -29.6 Q-8.35 -30.15 -7.95 -28.9 -7.3 -27.5 -5.2 -27.2 L-5.2 -27.15 -3.15 -26.4 M-11.45 -21.65 L-13.25 -23.4 M-10.15 -20.65 L-10.25 -20.55 -11.45 -21.65" fill="none" stroke="#161d24" stroke-linecap="round" stroke-linejoin="round" stroke-width="1.0"/>
    <path d="M-5.2 -27.2 L-4.85 -28.05 Q-4.45 -29.2 -0.45 -29.0 2.6 -28.15 3.5 -24.75" fill="none" stroke="#171819" stroke-linecap="round" stroke-linejoin="round" stroke-width="1.0"/>
    <path d="M4.3 -13.25 Q4.3 -13.7 4.6 -14.0 L5.3 -14.25 6.0 -14.0 6.3 -13.25 6.0 -12.55 Q5.75 -12.25 5.3 -12.25 4.9 -12.25 4.6 -12.55 4.3 -12.85 4.3 -13.25 M9.6 -15.55 Q8.35 -15.25 7.6 -16.6 7.4 -18.15 9.0 -18.15 M2.2 -17.25 L2.55 -19.9 M-6.8 -17.5 L-2.65 -17.0 M-2.45 -13.35 L-4.7 -11.25 -5.0 -14.15 -2.45 -13.35 M-3.55 -10.15 L-1.3 -12.25 M-1.9 -24.25 L1.25 -23.45" fill="none" stroke="#354657" stroke-linecap="round" stroke-linejoin="round" stroke-width="1.0"/>
    <path d="M-3.15 -26.4 L-4.0 -23.6 Q-4.35 -22.55 -5.2 -22.85 -7.05 -23.3 -8.55 -21.9 L-10.15 -20.65" fill="none" stroke="#222e3a" stroke-linecap="round" stroke-linejoin="round" stroke-width="1.0"/>
    <path d="M-11.45 -21.65 L-12.15 -17.2 -14.35 -16.2" fill="none" stroke="#4c555b" stroke-linecap="round" stroke-linejoin="round" stroke-width="1.0"/>
    <path d="M3.5 -24.75 L-3.15 -26.4" fill="none" stroke="#161d25" stroke-linecap="round" stroke-linejoin="round" stroke-width="1.0"/>
    <path d="M-7.7 -12.8 L-13.0 -10.45 -14.35 -16.2 Q-15.3 -19.8 -13.25 -23.4" fill="none" stroke="#2a2f33" stroke-linecap="round" stroke-linejoin="round" stroke-width="1.0"/>
    <path d="M9.0 -18.15 L9.6 -15.55" fill="none" stroke="#996e44" stroke-linecap="round" stroke-linejoin="round" stroke-width="1.0"/>
  </g>
  <defs>
    <linearGradient gradientTransform="matrix(0.011, 0.0, 0.0, 0.0113, -0.25, -17.15)" gradientUnits="userSpaceOnUse" id="gradient0" spreadMethod="pad" x1="-819.2" x2="819.2">
      <stop offset="0.0" stop-color="#374a5d"/>
      <stop offset="1.0" stop-color="#54718b"/>
    </linearGradient>
    <linearGradient gradientTransform="matrix(0.0066, 0.0066, -0.0079, 0.0079, -0.4, -16.0)" gradientUnits="userSpaceOnUse" id="gradient1" spreadMethod="pad" x1="-819.2" x2="819.2">
      <stop offset="0.0" stop-color="#465d75"/>
      <stop offset="1.0" stop-color="#54728c"/>
    </linearGradient>
    <linearGradient gradientTransform="matrix(-0.0058, 0.0, 0.0, -0.0065, -1.0, -5.35)" gradientUnits="userSpaceOnUse" id="gradient2" spreadMethod="pad" x1="-819.2" x2="819.2">
      <stop offset="0.0" stop-color="#333333"/>
      <stop offset="0.5647058823529412" stop-color="#2c2c2c"/>
      <stop offset="1.0" stop-color="#3a3a3a"/>
    </linearGradient>
  </defs>
</svg>
