<?xml version="1.0" encoding="UTF-8" standalone="no"?>
<svg xmlns:ffdec="https://www.free-decompiler.com/flash" xmlns:xlink="http://www.w3.org/1999/xlink" ffdec:objectType="shape" height="26.3px" width="28.95px" xmlns="http://www.w3.org/2000/svg">
  <g transform="matrix(1.0, 0.0, 0.0, 1.0, 20.15, 30.0)">
    <path d="M3.45 -25.2 L3.4 -25.2 4.0 -25.75 3.4 -25.2 Q-0.8 -26.8 -4.2 -25.7 L-4.9 -25.45 -6.55 -26.4 Q-2.75 -28.35 1.1 -27.6 3.3 -27.2 4.6 -26.25 L4.0 -25.75 3.45 -25.2" fill="#a3a3a3" fill-rule="evenodd" stroke="none"/>
    <path d="M3.45 -25.2 L4.0 -25.75 4.6 -26.25 6.5 -26.8 Q7.4 -25.7 8.0 -23.25 L7.55 -22.35 8.2 -21.8 8.25 -19.95 7.9 -19.3 8.3 -18.7 8.0 -13.95 6.3 -13.0 6.25 -13.0 Q4.7 -13.2 2.7 -15.3 L2.7 -15.65 2.7 -17.25 2.7 -19.2 2.7 -21.7 2.7 -24.6 3.45 -25.2 M-4.9 -25.45 L-4.5 -25.2 -4.5 -22.9 -4.9 -19.6 -4.0 -17.8 -4.2 -16.85 -4.65 -15.1 -4.75 -14.7 -6.25 -14.25 -6.35 -14.15 -7.7 -13.0 -9.5 -14.5 -9.5 -14.45 -9.55 -14.5 -11.25 -13.0 -9.55 -14.5 -9.5 -14.45 -11.2 -13.0 -11.25 -13.0 -11.55 -13.0 -12.35 -15.7 -11.35 -15.7 -9.5 -16.6 -8.9 -16.9 Q-9.6 -17.7 -9.55 -19.9 L-12.8 -19.55 -12.25 -20.75 -13.6 -22.05 -13.5 -22.7 -12.75 -22.35 -9.25 -22.65 Q-9.7 -24.05 -9.25 -25.75 L-11.8 -26.65 -11.95 -26.7 -12.35 -26.85 -11.95 -26.7 -12.4 -26.85 -12.35 -26.85 -8.25 -27.4 -6.55 -26.4 -4.9 -25.45 M5.65 -9.4 L5.65 -7.25 5.25 -7.15 0.2 -6.1 1.45 -10.25 2.7 -10.65 5.65 -9.65 5.65 -9.4 M7.55 -22.35 L2.7 -21.7 7.55 -22.35 M7.9 -19.3 L2.7 -19.2 7.9 -19.3 M-7.65 -22.55 L-7.95 -21.85 -7.65 -21.05 Q-7.35 -20.75 -6.9 -20.75 -6.45 -20.75 -6.1 -21.05 -5.8 -21.35 -5.8 -21.85 -5.8 -22.25 -6.1 -22.55 -6.45 -22.9 -6.9 -22.9 -7.3 -22.9 -7.65 -22.55" fill="#e1e1e1" fill-rule="evenodd" stroke="none"/>
    <path d="M3.4 -25.2 L3.45 -25.2 2.7 -24.6 2.7 -21.7 2.65 -21.7 2.7 -21.7 2.7 -19.2 2.65 -19.2 2.65 -17.2 2.65 -19.2 2.65 -21.7 2.65 -24.6 3.4 -25.2 2.65 -24.6 2.65 -21.7 2.65 -19.2 2.7 -19.2 2.7 -17.25 2.65 -17.2 Q-0.1 -16.3 -2.65 -16.6 L-4.2 -16.85 -4.0 -17.8 -4.9 -19.6 -4.5 -22.9 -4.5 -25.2 -4.9 -25.45 -4.2 -25.7 Q-0.8 -26.8 3.4 -25.2 M6.3 -13.0 L5.65 -9.4 5.65 -9.65 2.7 -10.65 1.45 -10.25 0.2 -6.1 5.25 -7.15 4.7 -6.0 Q-0.9 -2.35 -5.25 -6.05 L-6.15 -12.55 -6.35 -14.15 -6.25 -14.25 -4.75 -14.7 -4.65 -15.1 Q-2.3 -14.25 0.3 -14.65 L2.65 -15.3 2.7 -15.65 2.7 -15.3 Q4.7 -13.2 6.25 -13.0 4.7 -13.15 2.65 -15.3 4.7 -13.15 6.25 -13.0 L6.3 -13.0" fill="#9b9b9a" fill-rule="evenodd" stroke="none"/>
    <path d="M-4.2 -16.85 L-2.65 -16.6 Q-0.1 -16.3 2.65 -17.2 L2.65 -15.3 0.3 -14.65 Q-2.3 -14.25 -4.65 -15.1 L-4.2 -16.85 M2.7 -15.65 L2.65 -15.3 2.65 -17.2 2.7 -17.25 2.7 -15.65" fill="#686968" fill-rule="evenodd" stroke="none"/>
    <path d="M-7.7 -13.0 L-9.15 -11.6 -9.6 -11.1 -9.9 -10.85 -13.45 -11.05 -11.2 -13.0 -9.5 -14.45 -7.75 -13.0 -9.15 -11.6 -7.75 -13.0 -9.5 -14.45 -9.5 -14.5 -7.7 -13.0 M-12.35 -15.7 L-15.5 -15.7 -16.85 -16.9 -19.1 -18.9 -12.8 -19.55 -9.55 -19.9 Q-9.6 -17.7 -8.9 -16.9 L-9.5 -16.6 -11.35 -15.7 -12.35 -15.7 M-13.5 -22.7 L-17.25 -24.55 -17.5 -24.7 -17.8 -24.8 -17.95 -24.9 -19.65 -29.5 -12.85 -27.05 -12.4 -26.85 -11.95 -26.7 -11.8 -26.65 -9.25 -25.75 Q-9.7 -24.05 -9.25 -22.65 L-12.75 -22.35 -13.5 -22.7 M-16.85 -16.9 L-15.5 -15.75 -11.35 -15.75 -9.5 -16.6 -11.35 -15.75 -15.5 -15.75 -16.85 -16.9 M-11.8 -17.05 L-12.25 -18.6 -11.8 -17.05 M-10.4 -17.35 L-10.75 -18.65 -10.4 -17.35 M-12.25 -23.95 L-12.25 -25.8 -12.25 -23.95 M-10.75 -24.05 L-10.75 -25.1 -10.75 -24.05" fill="#cbcbcb" fill-rule="evenodd" stroke="none"/>
    <path d="M-7.65 -22.55 Q-7.3 -22.9 -6.9 -22.9 -6.45 -22.9 -6.1 -22.55 -5.8 -22.25 -5.8 -21.85 -5.8 -21.35 -6.1 -21.05 -6.45 -20.75 -6.9 -20.75 -7.35 -20.75 -7.65 -21.05 L-7.95 -21.85 -7.65 -22.55" fill="#4a8fcc" fill-rule="evenodd" stroke="none"/>
    <path d="M-4.9 -25.45 L-4.5 -25.2 -4.5 -22.9 -4.9 -19.6 -4.0 -17.8 -4.2 -16.85 -4.65 -15.1 -4.75 -14.7 -6.25 -14.25 -6.35 -14.15 -7.7 -13.0 M4.6 -26.25 L6.5 -26.8 Q7.4 -25.7 8.0 -23.25 L7.55 -22.35 8.2 -21.8 8.25 -19.95 7.9 -19.3 8.3 -18.7 8.0 -13.95 6.3 -13.0 M-11.25 -13.0 L-11.55 -13.0 -12.35 -15.7 M-12.8 -19.55 L-12.25 -20.75 -13.6 -22.05 -13.5 -22.7 M-12.35 -26.85 L-8.25 -27.4 -6.55 -26.4 -4.9 -25.45 M-12.4 -26.85 L-12.35 -26.85 M-11.2 -13.0 L-11.25 -13.0" fill="none" stroke="#424242" stroke-linecap="round" stroke-linejoin="round" stroke-width="1.0"/>
    <path d="M4.0 -25.75 L3.4 -25.2 2.65 -24.6 2.65 -21.7 2.7 -21.7 7.55 -22.35 M2.65 -17.2 L2.65 -19.2 2.65 -21.7 M4.6 -26.25 L4.0 -25.75 M5.65 -9.4 L5.65 -7.25 5.25 -7.15 0.2 -6.1 1.45 -10.25 2.7 -10.65 5.65 -9.65 5.65 -9.4 M2.7 -19.2 L2.65 -19.2 M2.65 -15.3 Q4.7 -13.15 6.25 -13.0 M2.65 -17.2 L2.65 -15.3 M2.7 -19.2 L7.9 -19.3" fill="none" stroke="#737373" stroke-linecap="round" stroke-linejoin="round" stroke-width="1.0"/>
    <path d="M-9.15 -11.6 L-9.6 -11.1 -9.9 -10.85 -13.45 -11.05 -13.5 -11.05 -11.25 -13.0 -9.55 -14.5 -9.5 -14.45 -7.75 -13.0 -9.15 -11.6 M-16.85 -16.9 L-19.1 -18.9 -12.8 -19.55 -9.55 -19.9 Q-9.6 -17.7 -8.9 -16.9 L-9.5 -16.6 -11.35 -15.75 -15.5 -15.75 -16.85 -16.9 M-13.5 -22.7 L-17.25 -24.55 M-17.8 -24.8 L-17.95 -24.9 -19.65 -29.5 -12.85 -27.05 -12.35 -26.85 -11.95 -26.7 -11.8 -26.65 -9.25 -25.75 Q-9.7 -24.05 -9.25 -22.65 L-12.75 -22.35 -13.5 -22.7" fill="none" stroke="#4f4f4f" stroke-linecap="round" stroke-linejoin="round" stroke-width="1.0"/>
    <path d="M-10.75 -18.65 L-10.4 -17.35 M-12.25 -18.6 L-11.8 -17.05 M-10.75 -25.1 L-10.75 -24.05 M-12.25 -25.8 L-12.25 -23.95" fill="none" stroke="#8a8b8b" stroke-linecap="round" stroke-linejoin="round" stroke-width="1.0"/>
    <path d="M3.4 -25.2 L3.45 -25.2 M3.4 -25.2 Q-0.8 -26.8 -4.2 -25.7 L-4.9 -25.45 M-6.55 -26.4 Q-2.75 -28.35 1.1 -27.6 3.3 -27.2 4.6 -26.25" fill="none" stroke="#555555" stroke-linecap="round" stroke-linejoin="round" stroke-width="1.0"/>
    <path d="M-4.2 -16.85 L-2.65 -16.6 Q-0.1 -16.3 2.65 -17.2 L2.7 -17.25 M2.65 -15.3 L0.3 -14.65 Q-2.3 -14.25 -4.65 -15.1" fill="none" stroke="#424242" stroke-linecap="round" stroke-linejoin="round" stroke-width="1.0"/>
    <path d="M6.3 -13.0 L5.65 -9.4 M5.25 -7.15 L4.7 -6.0 Q-0.9 -2.35 -5.25 -6.05 L-6.15 -12.55 -6.35 -14.15" fill="none" stroke="#353535" stroke-linecap="round" stroke-linejoin="round" stroke-width="1.0"/>
    <path d="M-7.65 -22.55 L-7.95 -21.85 -7.65 -21.05 Q-7.35 -20.75 -6.9 -20.75 -6.45 -20.75 -6.1 -21.05 -5.8 -21.35 -5.8 -21.85 -5.8 -22.25 -6.1 -22.55 -6.45 -22.9 -6.9 -22.9 -7.3 -22.9 -7.65 -22.55 Z" fill="none" stroke="#989b9b" stroke-linecap="round" stroke-linejoin="round" stroke-width="1.0"/>
    <path d="M-11.95 -11.8 L-10.15 -11.65 M-17.4 -18.4 L-15.5 -16.7 M-17.35 -25.45 L-18.45 -28.35" fill="none" stroke="#8a8b8b" stroke-linecap="round" stroke-linejoin="round" stroke-width="1.0"/>
  </g>
</svg>
