<?xml version="1.0" encoding="UTF-8" standalone="no"?>
<svg xmlns:xlink="http://www.w3.org/1999/xlink" height="14.8px" width="21.65px" xmlns="http://www.w3.org/2000/svg">
  <g transform="matrix(1.0, 0.0, 0.0, 1.0, 10.75, 1.7)">
    <path d="M-3.85 0.05 L-1.9 2.0 2.0 2.0 4.0 0.0 7.4 0.0 9.45 3.3 10.3 6.3 10.4 8.4 10.4 12.3 9.9 12.3 8.7 11.8 7.7 8.4 5.1 8.4 3.35 8.4 2.35 12.05 1.1 12.6 0.0 12.6 -1.1 12.6 -2.35 12.05 -3.35 8.4 -3.4 8.4 -7.2 8.4 -8.55 11.8 -9.75 12.3 -10.25 12.3 -10.25 8.4 -10.15 6.3 -9.45 3.3 -7.4 0.0 -3.9 0.0 -3.85 0.05" fill="url(#gradient0)" fill-rule="evenodd" stroke="none"/>
    <path d="M4.0 0.0 L2.0 2.0 -1.9 2.0 -3.85 0.05 -2.6 -1.2 2.8 -1.2 4.0 0.0" fill="#6fc6ff" fill-rule="evenodd" stroke="none"/>
    <path d="M-3.85 0.05 L-3.9 0.0" fill="none" stroke="#5e5e5e" stroke-linecap="round" stroke-linejoin="round" stroke-width="1.0"/>
    <path d="M-3.9 0.0 L-7.4 0.0 -9.45 3.3 -10.15 6.3 -10.25 8.4 -10.25 12.3 -9.75 12.3 -8.55 11.8 -7.2 8.4 -3.4 8.4 -3.35 8.4 -2.35 12.05 -1.1 12.6 0.0 12.6 1.1 12.6 2.35 12.05 3.35 8.4 5.1 8.4 7.7 8.4 8.7 11.8 9.9 12.3 10.4 12.3 10.4 8.4 10.3 6.3 9.45 3.3 7.4 0.0 4.0 0.0" fill="none" stroke="#515151" stroke-linecap="round" stroke-linejoin="round" stroke-width="1.0"/>
    <path d="M4.0 0.0 L2.0 2.0 -1.9 2.0 -3.85 0.05 -2.6 -1.2 2.8 -1.2 4.0 0.0 Z" fill="none" stroke="#003399" stroke-linecap="round" stroke-linejoin="round" stroke-width="1.0"/>
  </g>
  <defs>
    <linearGradient gradientTransform="matrix(0.0126, 0.0, 0.0, 0.0077, 0.05, 6.3)" gradientUnits="userSpaceOnUse" id="gradient0" spreadMethod="pad" x1="-819.2" x2="819.2">
      <stop offset="0.0" stop-color="#666666"/>
      <stop offset="0.24313725490196078" stop-color="#959595"/>
      <stop offset="0.5176470588235295" stop-color="#aaaaaa"/>
      <stop offset="0.7843137254901961" stop-color="#999999"/>
      <stop offset="1.0" stop-color="#666666"/>
    </linearGradient>
  </defs>
</svg>
