<?xml version="1.0" encoding="UTF-8" standalone="no"?>
<svg xmlns:xlink="http://www.w3.org/1999/xlink" height="7.45px" width="7.5px" xmlns="http://www.w3.org/2000/svg">
  <g transform="matrix(1.0, 0.0, 0.0, 1.0, 3.7, 3.7)">
    <path d="M2.15 -2.05 Q1.25 -2.95 0.05 -2.95 -1.2 -2.95 -2.05 -2.05 -2.9 -1.2 -2.9 0.05 -2.9 1.25 -2.05 2.1 -1.2 3.0 0.05 3.0 1.25 3.0 2.15 2.1 3.0 1.25 3.0 0.05 3.0 -1.2 2.15 -2.05 M2.2 -0.75 L2.5 0.0 2.2 0.75 1.45 1.05 Q1.0 1.05 0.7 0.75 0.35 0.45 0.35 0.0 0.35 -0.45 0.7 -0.75 1.0 -1.1 1.45 -1.1 1.9 -1.1 2.2 -0.75 M2.7 -2.6 Q3.8 -1.5 3.8 0.05 3.8 1.6 2.7 2.7 1.6 3.75 0.05 3.75 -1.5 3.75 -2.6 2.7 -3.7 1.6 -3.7 0.05 -3.7 -1.5 -2.6 -2.6 -1.5 -3.7 0.05 -3.7 1.6 -3.7 2.7 -2.6 M-1.8 -0.5 L-1.45 -0.35 -1.3 0.0 -1.45 0.35 -1.8 0.45 -2.15 0.35 -2.25 0.0 -2.15 -0.35 -1.8 -0.5" fill="#003399" fill-rule="evenodd" stroke="none"/>
  </g>
</svg>
