<?xml version="1.0" encoding="UTF-8" standalone="no"?>
<svg xmlns:ffdec="https://www.free-decompiler.com/flash" xmlns:xlink="http://www.w3.org/1999/xlink" ffdec:objectType="shape" height="12.75px" width="20.05px" xmlns="http://www.w3.org/2000/svg">
  <g transform="matrix(1.0, 0.0, 0.0, 1.0, 10.0, 7.85)">
    <path d="M-2.65 -5.25 Q1.75 -5.75 4.95 -4.55 L5.2 -2.1 5.2 -2.0 Q5.3 -0.35 4.9 0.9 L4.4 2.45 Q4.1 3.35 3.05 3.95 1.95 4.5 0.65 4.35 L0.6 4.35 0.2 4.25 Q-3.0 3.4 -3.6 2.35 -4.45 1.35 -4.7 -1.1 -4.85 -2.25 -4.3 -3.7 L-4.3 -3.9 -4.15 -4.3 Q-3.5 -5.25 -2.65 -5.25 M-3.6 2.35 L-2.2 1.15 -3.6 2.35 M-4.7 -1.1 L-2.9 -0.85 -4.7 -1.1 M0.55 2.2 L0.2 4.25 0.55 2.2 M3.05 3.95 L2.45 3.1 3.05 3.95 M4.0 0.6 L4.9 0.9 4.0 0.6 M4.4 2.45 L3.6 1.75 4.4 2.45" fill="#1c1d1a" fill-rule="evenodd" stroke="none"/>
    <path d="M-2.65 -5.25 Q1.75 -5.75 4.95 -4.55 L5.2 -2.1 5.2 -2.0 Q5.3 -0.35 4.9 0.9" fill="none" stroke="#020202" stroke-linecap="round" stroke-linejoin="bevel" stroke-width="1.0"/>
    <path d="M-4.3 -3.7 L-4.3 -3.9 M-4.15 -4.3 Q-3.5 -5.25 -2.65 -5.25" fill="none" stroke="#020202" stroke-linecap="round" stroke-linejoin="round" stroke-width="1.0"/>
    <path d="M-4.3 -3.9 L-4.15 -4.3" fill="none" stroke="#0c0c0c" stroke-linecap="round" stroke-linejoin="round" stroke-width="1.0"/>
    <path d="M3.6 1.75 L4.4 2.45 M4.9 0.9 L4.0 0.6 M2.45 3.1 L3.05 3.95 M0.2 4.25 L0.55 2.2 M-2.9 -0.85 L-4.7 -1.1 M-2.2 1.15 L-3.6 2.35" fill="none" stroke="#000000" stroke-linecap="round" stroke-linejoin="round" stroke-opacity="0.0" stroke-width="1.0"/>
    <path d="M4.9 0.9 L4.4 2.45 Q4.1 3.35 3.05 3.95 1.95 4.5 0.65 4.35 L0.6 4.35 0.2 4.25 Q-3.0 3.4 -3.6 2.35 -4.45 1.35 -4.7 -1.1 -4.85 -2.25 -4.3 -3.7" fill="none" stroke="#020202" stroke-linecap="round" stroke-linejoin="round" stroke-width="1.0"/>
    <path d="M4.5 -5.6 L4.25 -4.45 4.4 -3.45 4.25 -4.45 4.5 -5.6 4.9 -6.95 8.6 -7.3 9.45 -6.15 9.55 -1.5 9.15 -1.5 9.0 2.1 5.45 2.25 4.85 1.5 4.4 -3.45 -0.25 -3.1 0.45 -3.3 -0.4 -3.1 -4.6 -2.85 -4.6 -4.95 4.5 -5.6 M4.25 -4.45 L5.3 -4.55 5.95 -5.0 6.0 -5.0 6.85 -5.25 8.4 -1.6 9.15 -1.5 8.4 -1.6 6.85 -5.25 6.0 -5.0 5.95 -5.0 5.3 -4.55 4.25 -4.45 M-9.15 -2.5 Q-8.15 -1.7 -7.0 -2.3 L-6.7 -4.0 -4.65 -4.05 -6.7 -4.0 -7.0 -2.3 Q-8.15 -1.7 -9.15 -2.5 L-9.5 -3.9 Q-9.4 -5.05 -8.35 -5.9 L-5.9 -6.3 Q-5.1 -6.45 -4.6 -5.6 L-4.6 -4.95 -4.65 -4.05 -4.6 -2.85 -4.75 -0.2 Q-7.0 2.15 -8.6 0.1 L-9.15 -2.5" fill="#1c1d1a" fill-rule="evenodd" stroke="none"/>
    <path d="M4.4 -3.45 L4.25 -4.45 4.5 -5.6 -4.6 -4.95 -4.6 -2.85 -0.4 -3.1 M-0.25 -3.1 L4.4 -3.45 4.85 1.5 5.45 2.25 9.0 2.1 9.15 -1.5 8.4 -1.6 6.85 -5.25 6.0 -5.0 5.95 -5.0 5.3 -4.55 4.25 -4.45 M4.5 -5.6 L4.9 -6.95 8.6 -7.3 9.45 -6.15 9.55 -1.5 9.15 -1.5 M-4.65 -4.05 L-6.7 -4.0 -7.0 -2.3 Q-8.15 -1.7 -9.15 -2.5 L-8.6 0.1 Q-7.0 2.15 -4.75 -0.2 L-4.6 -2.85 M-4.6 -4.95 L-4.6 -5.6 Q-5.1 -6.45 -5.9 -6.3 L-8.35 -5.9 Q-9.4 -5.05 -9.5 -3.9 L-9.15 -2.5" fill="none" stroke="#0e0e0e" stroke-linecap="round" stroke-linejoin="round" stroke-width="1.0"/>
  </g>
</svg>
