<?xml version="1.0" encoding="UTF-8" standalone="no"?>
<svg xmlns:ffdec="https://www.free-decompiler.com/flash" xmlns:xlink="http://www.w3.org/1999/xlink" ffdec:objectType="shape" height="24.15px" width="24.2px" xmlns="http://www.w3.org/2000/svg">
  <g transform="matrix(1.0, 0.0, 0.0, 1.0, 12.1, 12.05)">
    <path d="M7.3 -7.3 Q10.35 -4.25 10.35 0.0 10.35 2.7 9.15 4.9 8.45 6.2 7.3 7.35 4.3 10.35 0.0 10.35 -4.3 10.35 -7.3 7.35 -8.45 6.2 -9.15 4.9 -10.35 2.7 -10.35 0.0 -10.35 -4.25 -7.3 -7.3 -4.3 -10.3 0.0 -10.3 4.3 -10.3 7.3 -7.3 Z" fill="none" stroke="#81a8d4" stroke-linecap="round" stroke-linejoin="round" stroke-width="3.5"/>
    <path d="M-3.3 1.35 Q-3.9 2.0 -4.75 2.0 -5.6 2.0 -6.25 1.35 -6.85 0.75 -6.85 -0.1 -6.85 -0.95 -6.25 -1.6 -5.6 -2.2 -4.75 -2.2 -3.9 -2.2 -3.3 -1.6 -2.65 -0.95 -2.65 -0.1 -2.65 0.75 -3.3 1.35" fill="#81a8d4" fill-rule="evenodd" stroke="none"/>
    <path d="M6.15 2.35 Q5.15 3.35 3.75 3.35 2.35 3.35 1.35 2.35 0.35 1.35 0.35 -0.05 0.35 -1.45 1.35 -2.45 2.35 -3.45 3.75 -3.45 5.15 -3.45 6.15 -2.45 7.15 -1.45 7.15 -0.05 7.15 1.35 6.15 2.35" fill="#81a8d4" fill-rule="evenodd" stroke="none"/>
  </g>
</svg>
