<?xml version="1.0" encoding="UTF-8" standalone="no"?>
<svg xmlns:xlink="http://www.w3.org/1999/xlink" height="21.4px" width="19.8px" xmlns="http://www.w3.org/2000/svg">
  <g transform="matrix(1.0, 0.0, 0.0, 1.0, 9.8, 10.7)">
    <path d="M-9.3 -6.8 L-8.1 -7.3 -7.1 -10.7 -6.0 -10.7 -5.95 -10.7 -4.6 -10.7 -3.3 -10.7 -3.25 -10.7 -2.25 -7.05 -1.0 -6.5 0.1 -6.5 1.2 -6.5 2.45 -7.05 3.45 -10.7 4.8 -10.7 6.15 -10.7 6.2 -10.7 7.3 -10.7 8.3 -7.3 9.5 -6.8 9.5 1.65 9.5 6.8 8.3 7.3 7.3 10.7 6.2 10.7 6.15 10.7 4.8 10.7 3.45 10.7 2.45 7.05 1.2 6.5 0.1 6.5 -1.0 6.5 -2.25 7.05 -3.25 10.7 -4.6 10.7 -5.95 10.7 -6.0 10.7 -7.1 10.7 -8.1 7.3 -9.3 6.8 -9.3 1.65 -9.3 -6.8" fill="url(#gradient0)" fill-rule="evenodd" stroke="none"/>
    <path d="M9.5 -6.8 L9.5 1.65 9.5 6.8 M-9.3 6.8 L-9.3 1.65 -9.3 -6.8" fill="none" stroke="#990000" stroke-linecap="round" stroke-linejoin="round" stroke-width="1.0"/>
    <path d="M9.5 -10.25 L9.5 4.9 9.5 9.85 -9.3 9.85 -9.3 4.9 -9.3 -10.25 9.5 -10.25" fill="url(#gradient1)" fill-rule="evenodd" stroke="none"/>
  </g>
  <defs>
    <linearGradient gradientTransform="matrix(0.0115, 0.0, 0.0, 0.0131, 0.1, 0.0)" gradientUnits="userSpaceOnUse" id="gradient0" spreadMethod="pad" x1="-819.2" x2="819.2">
      <stop offset="0.0" stop-color="#ff3333"/>
      <stop offset="0.23529411764705882" stop-color="#ff9999"/>
      <stop offset="0.5215686274509804" stop-color="#ffb3b3"/>
      <stop offset="0.803921568627451" stop-color="#ff9999"/>
      <stop offset="1.0" stop-color="#ff3333"/>
    </linearGradient>
    <linearGradient gradientTransform="matrix(0.0, 0.012, -0.0317, 0.0, -1.0, -0.2)" gradientUnits="userSpaceOnUse" id="gradient1" spreadMethod="pad" x1="-819.2" x2="819.2">
      <stop offset="0.0" stop-color="#000000" stop-opacity="0.5019608"/>
      <stop offset="0.40784313725490196" stop-color="#000000" stop-opacity="0.0"/>
      <stop offset="0.596078431372549" stop-color="#000000" stop-opacity="0.0"/>
      <stop offset="1.0" stop-color="#000000" stop-opacity="0.5019608"/>
    </linearGradient>
  </defs>
</svg>
