<?xml version="1.0" encoding="UTF-8" standalone="no"?>
<svg xmlns:ffdec="https://www.free-decompiler.com/flash" xmlns:xlink="http://www.w3.org/1999/xlink" ffdec:objectType="shape" height="29.7px" width="24.6px" xmlns="http://www.w3.org/2000/svg">
  <g transform="matrix(1.0, 0.0, 0.0, 1.0, 14.55, 32.15)">
    <path d="M4.85 -27.25 L3.4 -26.05 1.05 -26.45 3.4 -26.05 4.85 -27.25 5.95 -26.75 7.25 -24.9 4.75 -23.4 6.65 -19.6 9.25 -18.75 9.55 -16.65 7.9 -15.55 7.25 -12.4 7.85 -10.15 6.35 -8.15 4.9 -8.15 3.0 -9.95 0.7 -9.95 -1.4 -10.25 -4.4 -10.9 -6.3 -12.85 -7.45 -12.85 -10.0 -15.4 -10.0 -24.8 Q-5.3 -24.3 -2.8 -26.35 L-0.05 -26.65 1.05 -26.45 1.95 -27.6 1.8 -29.25 1.95 -27.6 1.05 -26.45 -0.05 -26.65 -2.8 -26.35 -5.2 -26.35 -8.25 -26.5 -10.4 -29.05 -9.8 -31.25 -7.35 -31.65 -5.6 -28.9 -3.25 -28.5 Q-2.75 -28.3 1.8 -29.25 L3.7 -29.75 5.05 -28.9 4.85 -27.25 M6.8 -16.55 L2.7 -17.45 6.8 -16.55 M4.9 -6.3 L6.8 -6.3 Q6.75 -4.6 5.85 -3.95 4.95 -3.35 -0.15 -3.0 -5.3 -2.6 -6.3 -6.3 L-5.45 -6.3 4.9 -6.3 M3.8 -11.25 L4.4 -13.25 3.8 -11.25 M1.9 -12.25 L2.0 -13.7 1.9 -12.25 M-5.6 -28.9 L-5.2 -26.35 -5.6 -28.9 M-6.25 -16.3 L-6.3 -21.5 -6.25 -16.3 M-4.7 -18.7 L-4.6 -21.55 -4.7 -18.7 M6.0 -14.4 L-0.1 -15.75 6.0 -14.4" fill="#d3b367" fill-rule="evenodd" stroke="none"/>
    <path d="M-10.0 -24.8 L-10.0 -15.4 Q-11.7 -13.9 -13.4 -12.9 -14.75 -22.25 -13.25 -27.85 L-10.0 -24.8 M-11.2 -15.8 L-12.3 -15.4 -12.5 -16.8 -12.3 -15.4 -11.2 -15.8 M-12.35 -23.15 L-12.25 -24.65 -12.35 -23.15" fill="#aa844d" fill-rule="evenodd" stroke="none"/>
    <path d="M-2.8 -26.35 Q-5.3 -24.3 -10.0 -24.8 L-13.25 -27.85 -10.4 -29.05 -8.25 -26.5 -5.2 -26.35 -2.8 -26.35 M-10.0 -15.4 L-7.45 -12.85 -8.9 -11.85 -13.4 -12.9 Q-11.7 -13.9 -10.0 -15.4 M-4.4 -10.9 L-1.4 -10.25 0.7 -9.95 3.0 -9.95 4.9 -8.15 4.9 -6.3 -5.45 -6.3 -6.4 -8.0 -4.4 -10.9 M7.85 -10.15 L7.25 -12.4 7.9 -15.55 9.55 -16.65 Q9.7 -13.2 7.85 -10.15 M9.25 -18.75 L6.65 -19.6 4.75 -23.4 7.25 -24.9 Q8.45 -22.65 9.25 -18.75 M-1.55 -7.55 L-4.2 -7.5 -1.55 -7.55 M-2.6 -8.15 L-2.85 -9.2 -2.6 -8.15" fill="#7e6a3d" fill-rule="evenodd" stroke="none"/>
    <path d="M-7.45 -12.85 L-6.3 -12.85 -4.4 -10.9 -6.4 -8.0 -8.9 -9.75 -8.9 -11.85 -7.45 -12.85" fill="#ffd87c" fill-rule="evenodd" stroke="none"/>
    <path d="M4.85 -27.25 L5.05 -28.9 3.7 -29.75 1.8 -29.25 1.95 -27.6 1.05 -26.45 -0.05 -26.65 -2.8 -26.35 Q-5.3 -24.3 -10.0 -24.8 L-10.0 -15.4 -7.45 -12.85 -6.3 -12.85 -4.4 -10.9 -1.4 -10.25 0.7 -9.95 3.0 -9.95 4.9 -8.15 6.35 -8.15 7.85 -10.15 7.25 -12.4 7.9 -15.55 9.55 -16.65 9.25 -18.75 6.65 -19.6 4.75 -23.4 7.25 -24.9 5.95 -26.75 4.85 -27.25 M7.25 -24.9 Q8.45 -22.65 9.25 -18.75 M4.9 -8.15 L4.9 -6.3 6.8 -6.3 Q6.75 -4.6 5.85 -3.95 4.95 -3.35 -0.15 -3.0 -5.3 -2.6 -6.3 -6.3 L-5.45 -6.3 -6.4 -8.0 -8.9 -9.75 -8.9 -11.85 -13.4 -12.9 Q-14.75 -22.25 -13.25 -27.85 L-10.4 -29.05 -9.8 -31.25 -7.35 -31.65 -5.6 -28.9 -3.25 -28.5 Q-2.75 -28.3 1.8 -29.25 M9.55 -16.65 Q9.7 -13.2 7.85 -10.15 M-10.4 -29.05 L-8.25 -26.5 -5.2 -26.35 -5.6 -28.9 M-2.8 -26.35 L-5.2 -26.35 M-13.25 -27.85 L-10.0 -24.8 M-12.25 -24.65 L-12.35 -23.15 M-12.5 -16.8 L-12.3 -15.4 -11.2 -15.8 M-2.85 -9.2 L-2.6 -8.15 M-4.2 -7.5 L-1.55 -7.55 M-4.4 -10.9 L-6.4 -8.0 M-7.45 -12.85 L-8.9 -11.85 M-13.4 -12.9 Q-11.7 -13.9 -10.0 -15.4 M4.9 -6.3 L-5.45 -6.3" fill="none" stroke="#504630" stroke-linecap="round" stroke-linejoin="round" stroke-width="1.0"/>
    <path d="M1.05 -26.45 L3.4 -26.05 4.85 -27.25 M2.7 -17.45 L6.8 -16.55 M2.0 -13.7 L1.9 -12.25 M4.4 -13.25 L3.8 -11.25 M-4.6 -21.55 L-4.7 -18.7 M-6.3 -21.5 L-6.25 -16.3 M-0.1 -15.75 L6.0 -14.4" fill="none" stroke="#80704d" stroke-linecap="round" stroke-linejoin="round" stroke-width="1.0"/>
  </g>
</svg>
