<?xml version="1.0" encoding="UTF-8" standalone="no"?>
<svg xmlns:ffdec="https://www.free-decompiler.com/flash" xmlns:xlink="http://www.w3.org/1999/xlink" ffdec:objectType="shape" height="11.85px" width="15.3px" xmlns="http://www.w3.org/2000/svg">
  <g transform="matrix(1.0, 0.0, 0.0, 1.0, -34.75, 6.95)">
    <path d="M39.6 4.9 Q37.75 4.6 36.65 3.15 34.75 1.5 34.75 -0.95 34.75 -3.4 36.65 -5.15 37.75 -6.65 39.6 -6.75 L39.6 4.9" fill="url(#gradient0)" fill-rule="evenodd" stroke="none"/>
    <path d="M39.6 -6.75 L39.7 -6.75 41.0 -6.95 Q44.75 -6.95 47.35 -5.15 50.05 -3.4 50.05 -0.95 50.05 1.5 47.35 3.15 44.75 4.9 41.0 4.9 L39.7 4.9 39.6 4.9 39.6 -6.75" fill="url(#gradient1)" fill-rule="evenodd" stroke="none"/>
  </g>
  <defs>
    <radialGradient cx="0" cy="0" gradientTransform="matrix(0.0, 0.0064, -0.0068, 0.0, 40.35, -0.95)" gradientUnits="userSpaceOnUse" id="gradient0" r="819.2" spreadMethod="pad">
      <stop offset="0.17647058823529413" stop-color="#8ffff6"/>
      <stop offset="0.5529411764705883" stop-color="#8ffff6" stop-opacity="0.76862746"/>
      <stop offset="1.0" stop-color="#8ffff6" stop-opacity="0.0"/>
    </radialGradient>
    <radialGradient cx="0" cy="0" gradientTransform="matrix(0.0, 0.0064, -0.0111, 0.0, 41.0, -0.95)" gradientUnits="userSpaceOnUse" id="gradient1" r="819.2" spreadMethod="pad">
      <stop offset="0.17647058823529413" stop-color="#8ffff6"/>
      <stop offset="0.5529411764705883" stop-color="#8ffff6" stop-opacity="0.76862746"/>
      <stop offset="1.0" stop-color="#8ffff6" stop-opacity="0.0"/>
    </radialGradient>
  </defs>
</svg>
