<?xml version="1.0" encoding="UTF-8" standalone="no"?>
<svg xmlns:ffdec="https://www.free-decompiler.com/flash" xmlns:xlink="http://www.w3.org/1999/xlink" ffdec:objectType="shape" height="26.9px" width="34.0px" xmlns="http://www.w3.org/2000/svg">
  <g transform="matrix(1.0, 0.0, 0.0, 1.0, 11.8, 0.7)">
    <path d="M1.3 12.65 L-8.9 18.3 -11.8 5.15 0.4 7.7 1.3 12.65" fill="url(#gradient0)" fill-rule="evenodd" stroke="none"/>
    <path d="M15.0 2.35 L14.6 2.7 14.2 3.55 13.8 4.4 12.25 3.4 8.05 0.6 7.25 0.05 10.15 -0.2 15.0 2.35 M7.7 10.9 L9.95 11.5 14.65 12.75 14.8 16.5 7.65 14.75 6.8 13.55 5.95 12.35 6.55 10.6 7.7 10.9" fill="#272727" fill-rule="evenodd" stroke="none"/>
    <path d="M20.35 4.75 Q21.1 6.4 20.85 8.15 L20.15 11.95 19.2 13.15 14.55 11.35 13.85 10.6 13.55 4.85 13.8 4.4 14.2 3.55 14.6 2.7 15.0 2.35 18.4 2.1 Q19.7 3.4 20.35 4.75 L18.1 4.65 20.35 4.75 M16.1 11.45 L16.1 5.8 14.2 3.55 16.1 5.8 16.1 11.45" fill="#540000" fill-rule="evenodd" stroke="none"/>
    <path d="M6.6 0.6 L9.45 2.7 8.85 4.05 6.45 4.95 5.55 8.6 7.85 10.0 7.7 10.9 6.55 10.6 5.95 12.35 6.8 13.55 5.3 13.3 6.9 14.85 7.6 17.45 6.5 19.0 6.25 18.35 6.0 18.5 4.5 17.0 4.0 13.25 5.3 13.3 3.45 13.0 3.0 10.9 2.5 8.8 0.4 7.7 -0.45 6.2 0.1 4.7 1.3 1.5 5.9 0.3 6.6 0.6 M7.5 2.25 L4.4 3.3 3.2 5.95 0.1 4.7 3.2 5.95 4.4 3.3 7.5 2.25" fill="#202020" fill-rule="evenodd" stroke="none"/>
    <path d="M1.6 11.95 L3.0 10.9 3.45 13.0 5.3 13.3 4.0 13.25 4.5 17.0 6.0 18.5 4.55 19.5 2.65 18.7 1.05 13.35 1.6 11.95" fill="#3f3f3f" fill-rule="evenodd" stroke="none"/>
    <path d="M12.25 3.4 L13.8 4.4 13.55 4.85 13.85 10.6 14.55 11.35 14.65 12.75 9.95 11.5 10.2 10.25 12.05 9.55 12.7 5.95 11.35 4.75 12.0 3.55 12.25 3.4" fill="#330000" fill-rule="evenodd" stroke="none"/>
    <path d="M8.05 0.6 L12.25 3.4 12.0 3.55 11.35 4.75 12.7 5.95 12.05 9.55 10.2 10.25 9.95 11.5 7.7 10.9 7.85 10.0 5.55 8.6 6.45 4.95 8.85 4.05 9.45 2.7 6.6 0.6 8.05 0.6 M6.5 19.0 L7.6 17.45 6.9 14.85 5.3 13.3 6.8 13.55 7.65 14.75 14.8 16.5 14.85 17.55 15.35 18.5 Q15.25 18.75 16.1 18.5 L16.1 21.35 15.8 21.35 15.4 21.35 Q10.9 21.25 6.5 19.9 L6.5 19.0" fill="#171717" fill-rule="evenodd" stroke="none"/>
    <path d="M3.0 10.9 L1.6 11.95 0.4 7.7 2.5 8.8 3.0 10.9" fill="#ffd858" fill-rule="evenodd" stroke="none"/>
    <path d="M14.55 11.35 L19.2 13.15 17.2 18.5 16.1 18.5 Q15.25 18.75 15.35 18.5 L14.85 17.55 14.8 16.5 14.65 12.75 14.55 11.35 M15.4 21.35 L15.8 21.35 16.1 21.35 Q16.4 23.3 15.85 24.35 15.3 25.35 12.8 25.65 10.3 25.9 8.05 24.55 5.8 23.2 6.05 20.2 L12.35 21.35 15.4 21.35" fill="#3c0000" fill-rule="evenodd" stroke="none"/>
    <path d="M8.05 0.6 L6.6 0.6" fill="none" stroke="#1e1919" stroke-linecap="round" stroke-linejoin="round" stroke-width="1.0"/>
    <path d="M12.7 5.95 L11.35 4.75 12.0 3.55 12.25 3.4 M9.95 11.5 L10.2 10.25 12.05 9.55 12.7 5.95" fill="none" stroke="#200000" stroke-linecap="round" stroke-linejoin="round" stroke-width="1.0"/>
    <path d="M14.2 3.55 L16.1 5.8 16.1 11.45" fill="none" stroke="#4a0000" stroke-linecap="round" stroke-linejoin="round" stroke-width="1.0"/>
    <path d="M15.0 2.35 L10.15 -0.2 7.25 0.05 8.05 0.6 12.25 3.4 13.8 4.4 M6.6 0.6 L9.45 2.7 8.85 4.05 6.45 4.95 5.55 8.6 7.85 10.0 7.7 10.9 9.95 11.5 14.65 12.75 M4.0 13.25 L5.3 13.3 6.9 14.85 7.6 17.45 6.5 19.0 6.5 19.9 Q10.9 21.25 15.4 21.35 L15.8 21.35 16.1 21.35 16.1 18.5 Q15.25 18.75 15.35 18.5 M6.8 13.55 L5.95 12.35 6.55 10.6 7.7 10.9 M6.8 13.55 L5.3 13.3 M14.8 16.5 L7.65 14.75 6.8 13.55 M6.5 19.0 L6.0 18.5" fill="none" stroke="#0e0e0e" stroke-linecap="round" stroke-linejoin="round" stroke-width="1.0"/>
    <path d="M0.4 7.7 L1.6 11.95" fill="none" stroke="#6f5a01" stroke-linecap="round" stroke-linejoin="round" stroke-width="1.0"/>
    <path d="M6.6 0.6 L5.9 0.3 1.3 1.5 0.1 4.7 -0.45 6.2 0.4 7.7 2.5 8.8 3.0 10.9 3.45 13.0 5.3 13.3 M6.0 18.5 L4.5 17.0 4.0 13.25" fill="none" stroke="#101010" stroke-linecap="round" stroke-linejoin="round" stroke-width="1.0"/>
    <path d="M14.65 12.75 L14.55 11.35 M15.35 18.5 L14.85 17.55 14.8 16.5 14.65 12.75 M16.1 21.35 Q16.4 23.3 15.85 24.35 15.3 25.35 12.8 25.65 10.3 25.9 8.05 24.55 5.8 23.2 6.05 20.2 L12.35 21.35 15.4 21.35 M19.2 13.15 L17.2 18.5 16.1 18.5" fill="none" stroke="#190202" stroke-linecap="round" stroke-linejoin="round" stroke-width="1.0"/>
    <path d="M15.0 2.35 L14.6 2.7 14.2 3.55 13.8 4.4 13.55 4.85 13.85 10.6 14.55 11.35 19.2 13.15 M18.4 2.1 L15.0 2.35 M20.15 11.95 L20.85 8.15" fill="none" stroke="#2c0404" stroke-linecap="round" stroke-linejoin="round" stroke-width="1.0"/>
    <path d="M0.1 4.7 L3.2 5.95 4.4 3.3 7.5 2.25" fill="none" stroke="#171717" stroke-linecap="round" stroke-linejoin="round" stroke-width="1.0"/>
    <path d="M1.6 11.95 L3.0 10.9 M1.6 11.95 L1.05 13.35 2.65 18.7 4.55 19.5 6.0 18.5" fill="none" stroke="#1e1e1e" stroke-linecap="round" stroke-linejoin="round" stroke-width="1.0"/>
    <path d="M20.35 4.75 L18.1 4.65" fill="none" stroke="#ffd858" stroke-linecap="round" stroke-linejoin="round" stroke-width="1.0"/>
    <path d="M20.85 8.15 Q21.1 6.4 20.35 4.75 19.7 3.4 18.4 2.1 M19.2 13.15 L20.15 11.95" fill="none" stroke="#2c0202" stroke-linecap="round" stroke-linejoin="round" stroke-width="1.0"/>
    <path d="M9.3 16.6 L13.7 17.8 M2.5 8.8 L3.45 13.0 4.05 13.1 5.3 13.3 M6.0 18.5 L4.5 17.0 4.05 13.1" fill="none" stroke="#101010" stroke-linecap="round" stroke-linejoin="round" stroke-width="1.0"/>
    <path d="M19.8 6.35 L21.7 6.9 21.7 11.1 19.8 11.1 17.4 11.1 17.4 6.35 19.8 6.35 19.8 11.1 19.8 6.35 M16.85 18.3 L16.85 13.95 18.9 13.95 18.9 18.3 16.85 18.3" fill="#1d1d1d" fill-rule="evenodd" stroke="none"/>
    <path d="M19.8 6.35 L21.7 6.9 21.7 11.1 19.8 11.1 17.4 11.1 17.4 6.35 19.8 6.35 19.8 11.1 M16.85 18.3 L16.85 13.95 18.9 13.95 18.9 18.3 16.85 18.3 Z" fill="none" stroke="#151515" stroke-linecap="round" stroke-linejoin="round" stroke-width="1.0"/>
  </g>
  <defs>
    <linearGradient gradientTransform="matrix(-0.0056, 0.0015, -0.0015, -0.0056, -1.05, 11.6)" gradientUnits="userSpaceOnUse" id="gradient0" spreadMethod="pad" x1="-819.2" x2="819.2">
      <stop offset="0.0" stop-color="#ffee00" stop-opacity="0.49803922"/>
      <stop offset="1.0" stop-color="#ffd200" stop-opacity="0.0"/>
      <stop offset="1.0" stop-color="#f7ec9a" stop-opacity="0.0"/>
    </linearGradient>
  </defs>
</svg>
