<?xml version="1.0" encoding="UTF-8" standalone="no"?>
<svg xmlns:xlink="http://www.w3.org/1999/xlink" height="19.65px" width="76.15px" xmlns="http://www.w3.org/2000/svg">
  <g transform="matrix(1.0, 0.0, 0.0, 1.0, 10.35, 11.9)">
    <path d="M20.55 -7.75 L19.85 -8.55 21.95 -8.65 23.25 -9.15 27.0 -9.2 27.0 -9.15 27.95 -9.0 27.75 -6.9 27.7 -6.9 20.95 -7.25 20.55 -7.75" fill="#99ccff" fill-rule="evenodd" stroke="none"/>
    <path d="M55.65 0.05 L53.85 1.85 49.4 1.85 47.65 0.1 Q51.95 -3.2 55.65 0.05" fill="#ad0000" fill-rule="evenodd" stroke="none"/>
    <path d="M26.25 1.5 L25.5 3.2 19.1 3.35 19.35 2.1 24.4 1.0 26.25 1.5 M33.9 1.8 L33.85 2.5 30.8 3.2 27.35 3.2 27.95 1.85 33.9 1.8" fill="#9b824c" fill-rule="evenodd" stroke="none"/>
    <path d="M34.8 3.7 L31.15 4.65 17.75 4.8 17.1 3.65 17.35 3.0 17.5 2.7 18.05 1.3 23.2 -0.2 29.0 -0.25 29.95 0.15 31.1 0.2 31.65 0.2 35.3 0.25 35.5 0.25 35.8 0.25 36.15 0.25 36.65 0.25 37.15 0.95 37.6 1.65 35.4 3.55 34.8 3.7 M33.9 1.8 L27.95 1.85 27.35 3.2 30.8 3.2 33.85 2.5 33.9 1.8 M26.25 1.5 L24.4 1.0 19.35 2.1 19.1 3.35 25.5 3.2 26.25 1.5" fill="#e7c773" fill-rule="evenodd" stroke="none"/>
    <path d="M7.0 -8.8 L8.25 -7.45 10.25 -7.45 10.05 -6.35 8.7 -5.45 -3.4 -5.45 -1.9 -6.95 2.55 -6.95 7.0 -8.8 M15.95 -4.55 L15.65 -6.25 19.3 -7.8 20.55 -7.75 20.95 -7.25 27.7 -6.9 29.4 -5.7 31.15 -5.65 31.9 -6.45 35.05 -6.45 36.65 -8.05 40.25 -8.05 39.8 -5.5 38.8 -4.35 29.75 -4.3 38.8 -4.35 42.55 -3.5 41.95 -5.6 41.95 -6.05 49.9 -6.05 53.35 -4.65 60.65 -4.65 61.9 -3.5 63.95 -3.5 65.3 -1.0 64.15 0.85 62.0 0.85 60.55 0.05 58.95 0.05 55.4 3.7 34.8 3.7 35.4 3.55 37.6 1.65 37.15 0.95 36.65 0.25 36.15 0.25 35.8 0.25 35.5 0.25 35.3 0.25 34.65 0.25 32.2 0.2 31.65 0.2 31.1 0.2 29.95 0.15 29.0 -0.25 23.2 -0.2 18.05 1.3 17.5 2.7 17.35 3.0 14.5 3.0 18.2 -0.95 17.25 -3.3 15.95 -4.55 M29.75 -4.3 L27.2 -4.3 24.85 -3.5 17.25 -3.3 24.85 -3.5 27.2 -4.3 29.75 -4.3 31.15 -5.65 29.75 -4.3 M55.65 0.05 L58.95 0.05 55.65 0.05 Q51.95 -3.2 47.65 0.1 L49.4 1.85 53.85 1.85 55.65 0.05 M61.9 -3.5 L42.55 -3.5 61.9 -3.5 M37.15 0.95 L41.95 0.1 47.65 0.1 41.95 0.1 37.15 0.95 M32.95 -2.2 L32.2 0.2 32.95 -2.2 M30.75 -2.35 L29.95 0.15 30.75 -2.35 M35.4 -2.1 L34.65 0.25 35.4 -2.1" fill="#b0a35b" fill-rule="evenodd" stroke="none"/>
    <path d="M3.2 -0.7 L-0.25 -0.65 -0.6 -1.35 -4.8 -1.35 -6.75 0.35 -7.8 -1.2 -6.15 -3.8 3.1 -3.8 4.3 -3.15 3.2 -0.7" fill="#b4945b" fill-rule="evenodd" stroke="none"/>
    <path d="M16.7 -9.0 L17.05 -8.25 14.3 -7.0 14.25 -6.15 11.25 -6.8 11.4 -8.35 12.8 -9.1 14.2 -9.05 13.75 -8.35 14.8 -8.35 15.15 -9.05 16.7 -9.0" fill="#cca967" fill-rule="evenodd" stroke="none"/>
    <path d="M8.7 -5.45 L10.05 -6.35 10.25 -7.45 8.25 -7.45 7.0 -8.8 8.8 -9.5 10.75 -9.55 12.35 -10.4 18.5 -10.5 19.8 -11.25 26.25 -11.4 27.0 -9.2 23.25 -9.15 21.95 -8.65 19.85 -8.55 20.55 -7.75 19.3 -7.8 15.65 -6.25 15.95 -4.55 9.55 -4.7 8.7 -5.45 M16.7 -9.0 L15.15 -9.05 14.8 -8.35 13.75 -8.35 14.2 -9.05 12.8 -9.1 11.4 -8.35 11.25 -6.8 14.25 -6.15 14.3 -7.0 17.05 -8.25 16.7 -9.0" fill="#e8d578" fill-rule="evenodd" stroke="none"/>
    <path d="M3.2 -0.7 L4.3 -3.15 3.1 -3.8 -6.15 -3.8 -7.8 -1.2 -6.75 0.35 -4.8 -1.35 -0.6 -1.35 -0.25 -0.65 3.2 -0.7 M-3.4 -5.45 L8.7 -5.45 9.55 -4.7 15.95 -4.55 17.25 -3.3 18.2 -0.95 14.5 3.0 13.7 4.8 9.25 7.25 2.5 7.1 2.2 5.5 -3.6 5.5 -9.15 3.05 -9.15 1.1 -9.85 -0.1 -9.85 -3.5 -7.55 -5.45 -3.4 -5.45 M-2.95 0.95 L-4.25 2.2 -2.5 3.15 3.75 3.1 4.1 4.8 8.3 4.8 10.05 3.1 10.05 1.4 8.6 0.75 7.0 1.95 6.0 1.95 4.35 0.65 -2.95 0.95" fill="#e9ca75" fill-rule="evenodd" stroke="none"/>
    <path d="M40.25 -8.05 L40.4 -8.85 41.75 -9.0 41.95 -6.05 41.95 -5.6 42.55 -3.5 38.8 -4.35 39.8 -5.5 40.25 -8.05" fill="#f3ea83" fill-rule="evenodd" stroke="none"/>
    <path d="M-2.95 0.95 L4.35 0.65 6.0 1.95 7.0 1.95 8.6 0.75 10.05 1.4 10.05 3.1 8.3 4.8 4.1 4.8 3.75 3.1 -2.5 3.15 -4.25 2.2 -2.95 0.95" fill="none" stroke="#796855" stroke-linecap="round" stroke-linejoin="round" stroke-width="1.0"/>
    <path d="M29.75 -4.3 L31.15 -5.65" fill="none" stroke="#746849" stroke-linecap="round" stroke-linejoin="round" stroke-width="1.0"/>
    <path d="M-3.4 -5.45 L8.7 -5.45" fill="none" stroke="#776542" stroke-linecap="round" stroke-linejoin="round" stroke-width="1.0"/>
    <path d="M8.7 -5.45 L9.55 -4.7 15.95 -4.55 17.25 -3.3 18.2 -0.95 14.5 3.0 13.7 4.8 9.25 7.25 2.5 7.1 2.2 5.5 -3.6 5.5 -9.15 3.05 -9.15 1.1 -9.85 -0.1 -9.85 -3.5 -7.55 -5.45 -3.4 -5.45" fill="none" stroke="#76622a" stroke-linecap="round" stroke-linejoin="round" stroke-width="1.0"/>
    <path d="M8.7 -5.45 L10.05 -6.35 10.25 -7.45 8.25 -7.45 7.0 -8.8 8.8 -9.5 10.75 -9.55 12.35 -10.4 18.5 -10.5 19.8 -11.25 26.25 -11.4 27.0 -9.2 M15.95 -4.55 L15.65 -6.25 19.3 -7.8 20.55 -7.75" fill="none" stroke="#5e5019" stroke-linecap="round" stroke-linejoin="round" stroke-width="1.0"/>
    <path d="M7.0 -8.8 L2.55 -6.95 -1.9 -6.95 -3.4 -5.45" fill="none" stroke="#4d3d24" stroke-linecap="round" stroke-linejoin="round" stroke-width="1.0"/>
    <path d="M17.25 -3.3 L24.85 -3.5 27.2 -4.3 29.75 -4.3 38.8 -4.35 42.55 -3.5 61.9 -3.5 M38.8 -4.35 L39.8 -5.5 M58.95 0.05 L55.65 0.05 M47.65 0.1 L41.95 0.1 37.15 0.95" fill="none" stroke="#786834" stroke-linecap="round" stroke-linejoin="round" stroke-width="1.0"/>
    <path d="M32.2 0.2 L32.95 -2.2 M34.65 0.25 L35.4 -2.1 M29.95 0.15 L30.75 -2.35" fill="none" stroke="#746a30" stroke-linecap="round" stroke-linejoin="round" stroke-width="1.0"/>
    <path d="M39.8 -5.5 L40.25 -8.05 M42.55 -3.5 L41.95 -5.6" fill="none" stroke="#685d30" stroke-linecap="round" stroke-linejoin="round" stroke-width="1.0"/>
    <path d="M27.7 -6.9 L29.4 -5.7 31.15 -5.65 31.9 -6.45 35.05 -6.45 36.65 -8.05 40.25 -8.05 40.4 -8.85 41.75 -9.0 41.95 -6.05 49.9 -6.05 53.35 -4.65 60.65 -4.65 61.9 -3.5 63.95 -3.5 65.3 -1.0 64.15 0.85 62.0 0.85 60.55 0.05 58.95 0.05 55.4 3.7 34.8 3.7 31.15 4.65 17.75 4.8 17.1 3.65 17.35 3.0 14.5 3.0 M31.65 0.2 L31.1 0.2 29.95 0.15 29.0 -0.25 23.2 -0.2 18.05 1.3 17.5 2.7 M41.95 -5.6 L41.95 -6.05 M37.15 0.95 L37.6 1.65 35.4 3.55 34.8 3.7 M37.15 0.95 L36.65 0.25 36.15 0.25 35.8 0.25 35.5 0.25 35.3 0.25 31.65 0.2" fill="none" stroke="#5f5119" stroke-linecap="round" stroke-linejoin="round" stroke-width="1.0"/>
    <path d="M55.65 0.05 L53.85 1.85 49.4 1.85 47.65 0.1 Q51.95 -3.2 55.65 0.05" fill="none" stroke="#790000" stroke-linecap="round" stroke-linejoin="round" stroke-width="1.0"/>
    <path d="M20.55 -7.75 L19.85 -8.55 21.95 -8.65 23.25 -9.15 27.0 -9.2 27.0 -9.15 27.95 -9.0 27.75 -6.9 27.7 -6.9 20.95 -7.25 20.55 -7.75 Z" fill="none" stroke="#49627b" stroke-linecap="round" stroke-linejoin="round" stroke-width="1.0"/>
  </g>
</svg>
