<?xml version="1.0" encoding="UTF-8" standalone="no"?>
<svg xmlns:xlink="http://www.w3.org/1999/xlink" height="17.7px" width="52.35px" xmlns="http://www.w3.org/2000/svg">
  <g transform="matrix(1.0, 0.0, 0.0, 1.0, 25.6, 6.2)">
    <path d="M8.55 8.75 Q6.85 8.7 5.4 7.8 3.95 6.95 3.6 5.75 L4.1 5.15 Q4.8 4.65 5.65 5.35 7.15 6.9 8.55 6.9 L8.55 8.75" fill="#c7927d" fill-rule="evenodd" stroke="none"/>
    <path d="M8.55 8.75 Q6.85 8.7 5.4 7.8 3.95 6.95 3.6 5.75 L4.1 5.15 Q4.8 4.65 5.65 5.35 7.15 6.9 8.55 6.9" fill="none" stroke="#694b3f" stroke-linecap="round" stroke-linejoin="round" stroke-width="1.0"/>
    <path d="M-0.05 5.4 Q0.75 4.35 0.4 3.55 L-0.05 2.95 -2.55 2.95 -3.25 4.4 Q-3.95 5.95 -3.9 6.7 -3.9 7.6 -3.1 8.25 -2.2 9.0 -1.4 8.0 L-0.85 6.9 -0.05 5.4 M-12.75 6.55 Q-13.45 6.9 -13.2 7.55 -13.0 8.25 -11.9 8.05 -10.25 7.8 -8.6 7.1 -6.85 6.35 -6.5 5.75 -5.25 3.5 -7.7 2.95 -10.1 2.45 -10.1 5.1 L-12.75 6.55 M-15.7 3.15 Q-14.3 2.75 -14.6 1.45 L-18.25 1.45 -19.2 -0.15 -21.45 -0.15 -21.45 3.3 -17.1 3.3 -15.7 3.15 M-23.25 -2.25 L-14.1 -3.2 24.0 3.2 20.95 5.0 3.6 5.75 Q1.25 7.05 0.0 8.85 L-0.8 10.4 Q-2.1 11.45 -4.05 10.6 -4.45 7.55 -8.1 8.4 -12.55 10.0 -14.35 10.25 L-17.85 8.2 Q-16.9 7.4 -16.5 6.25 -16.0 5.05 -16.8 4.85 L-17.75 4.9 -23.05 6.25 -23.25 -2.25" fill="#95aab4" fill-rule="evenodd" stroke="none"/>
    <path d="M3.6 5.75 L20.95 5.0 24.0 3.2 -14.1 -3.2 -23.25 -2.25 -23.05 6.25 -17.75 4.9 -16.8 4.85 Q-16.0 5.05 -16.5 6.25 -16.9 7.4 -17.85 8.2 L-14.35 10.25" fill="none" stroke="#555d62" stroke-linecap="round" stroke-linejoin="round" stroke-width="1.0"/>
    <path d="M-14.35 10.25 Q-12.55 10.0 -8.1 8.4 -4.45 7.55 -4.05 10.6 -2.1 11.45 -0.8 10.4 L0.0 8.85 Q1.25 7.05 3.6 5.75" fill="none" stroke="#555d62" stroke-linecap="round" stroke-linejoin="round" stroke-width="1.0"/>
    <path d="M-1.7 3.3 L-1.7 4.45" fill="none" stroke="#42494c" stroke-linecap="round" stroke-linejoin="round" stroke-width="1.0"/>
    <path d="M-17.1 3.3 L-21.45 3.3 -21.45 -0.15 -19.2 -0.15 -18.25 1.45 -14.6 1.45 Q-14.3 2.75 -15.7 3.15 L-17.1 3.3 M-12.75 6.55 L-10.1 5.1 Q-10.1 2.45 -7.7 2.95 -5.25 3.5 -6.5 5.75 -6.85 6.35 -8.6 7.1 -10.25 7.8 -11.9 8.05 -13.0 8.25 -13.2 7.55 -13.45 6.9 -12.75 6.55 M-0.05 5.4 L-0.85 6.9 -1.4 8.0 Q-2.2 9.0 -3.1 8.25 -3.9 7.6 -3.9 6.7 -3.95 5.95 -3.25 4.4 L-2.55 2.95 -0.05 2.95 0.4 3.55 Q0.75 4.35 -0.05 5.4 Z" fill="none" stroke="#42494c" stroke-linecap="round" stroke-linejoin="round" stroke-width="1.0"/>
    <path d="M-6.15 1.05 L-6.5 -0.9 22.4 -0.65 23.6 -2.8 26.25 0.75 26.25 3.15 -4.8 3.15 -6.15 1.05" fill="#7ba4bb" fill-rule="evenodd" stroke="none"/>
    <path d="M-4.8 3.15 L26.25 3.15 26.25 0.75 23.6 -2.8" fill="none" stroke="#5d7c8d" stroke-linecap="round" stroke-linejoin="round" stroke-width="1.0"/>
    <path d="M23.6 -2.8 L22.4 -0.65 -6.5 -0.9 -6.15 1.05 -4.8 3.15" fill="none" stroke="#405661" stroke-linecap="round" stroke-linejoin="round" stroke-width="1.0"/>
    <path d="M-13.6 -3.2 L-13.7 -0.9 Q-16.5 -0.75 -17.45 -1.75 -18.3 -2.55 -17.6 -3.6 -17.0 -4.65 -15.8 -4.7 -14.45 -4.8 -13.6 -3.2" fill="#c7927d" fill-rule="evenodd" stroke="none"/>
    <path d="M-13.6 -3.2 L-13.7 -0.9 Q-16.5 -0.75 -17.45 -1.75 -18.3 -2.55 -17.6 -3.6 -17.0 -4.65 -15.8 -4.7 -14.45 -4.8 -13.6 -3.2 Z" fill="none" stroke="#694b3f" stroke-linecap="round" stroke-linejoin="round" stroke-width="1.0"/>
    <path d="M-15.4 -2.75 L-13.6 -2.55" fill="none" stroke="#694b3f" stroke-linecap="round" stroke-linejoin="round" stroke-width="1.0"/>
    <path d="M-11.9 0.75 L-14.1 -0.15 -14.1 -3.8 -11.9 -4.65 -11.9 0.75" fill="#9bc9e0" fill-rule="evenodd" stroke="none"/>
    <path d="M-11.9 0.75 L-14.1 -0.15 -14.1 -3.8 -11.9 -4.65 -11.9 0.75 Z" fill="none" stroke="#75838a" stroke-linecap="round" stroke-linejoin="round" stroke-width="1.0"/>
    <path d="M1.05 -1.95 Q1.05 -0.55 0.25 0.45 -0.6 1.45 -1.8 1.45 L-1.8 -5.35 Q-0.6 -5.35 0.25 -4.35 1.05 -3.4 1.05 -1.95" fill="#6c8b9b" fill-rule="evenodd" stroke="none"/>
    <path d="M-1.8 -5.35 Q-0.6 -5.35 0.25 -4.35 1.05 -3.4 1.05 -1.95 1.05 -0.55 0.25 0.45 -0.6 1.45 -1.8 1.45" fill="none" stroke="#42494c" stroke-linecap="round" stroke-linejoin="round" stroke-width="1.0"/>
    <path d="M-1.2 -5.7 L-1.2 1.8 -11.9 1.8 -11.9 -5.7 -1.2 -5.7" fill="#9bc6de" fill-rule="evenodd" stroke="none"/>
    <path d="M-1.2 -5.7 L-1.2 1.8 -11.9 1.8 -11.9 -5.7 -1.2 -5.7 Z" fill="none" stroke="#555d62" stroke-linecap="round" stroke-linejoin="round" stroke-width="1.0"/>
    <path d="M-10.1 -1.95 L-2.95 -1.95" fill="none" stroke="#75838a" stroke-linecap="round" stroke-linejoin="round" stroke-width="1.0"/>
    <path d="M-10.1 -3.95 L-2.95 -3.95" fill="none" stroke="#75838a" stroke-linecap="round" stroke-linejoin="round" stroke-width="1.0"/>
    <path d="M-10.1 0.0 L-2.95 0.0" fill="none" stroke="#75838a" stroke-linecap="round" stroke-linejoin="round" stroke-width="1.0"/>
    <path d="M-23.25 -2.25 L-23.05 6.25 -24.95 4.85 -25.1 -1.1 -23.25 -2.25" fill="#586166" fill-rule="evenodd" stroke="none"/>
    <path d="M-23.25 -2.25 L-23.05 6.25 -24.95 4.85 -25.1 -1.1 -23.25 -2.25 Z" fill="none" stroke="#42494c" stroke-linecap="round" stroke-linejoin="round" stroke-width="1.0"/>
    <path d="M8.55 6.9 Q9.45 6.9 10.25 6.35 L11.2 5.2 Q11.7 4.1 12.75 4.4 13.75 4.7 13.5 5.3 12.15 8.85 8.55 8.75 L8.55 6.9" fill="#c7927d" fill-rule="evenodd" stroke="none"/>
    <path d="M8.55 6.9 Q9.45 6.9 10.25 6.35 L11.2 5.2 Q11.7 4.1 12.75 4.4 13.75 4.7 13.5 5.3 12.15 8.85 8.55 8.75" fill="none" stroke="#694b3f" stroke-linecap="round" stroke-linejoin="round" stroke-width="1.0"/>
    <path d="M-14.7 4.2 L-12.8 3.15" fill="none" stroke="#75838a" stroke-linecap="round" stroke-linejoin="round" stroke-width="1.0"/>
    <path d="M-14.05 5.55 L-12.15 4.45" fill="none" stroke="#75838a" stroke-linecap="round" stroke-linejoin="round" stroke-width="1.0"/>
    <path d="M2.7 1.5 L3.55 0.75 9.8 0.75" fill="none" stroke="#5d7c8d" stroke-linecap="round" stroke-linejoin="round" stroke-width="1.0"/>
    <path d="M13.85 0.75 L13.1 1.5" fill="none" stroke="#5d7c8d" stroke-linecap="round" stroke-linejoin="round" stroke-width="1.0"/>
    <path d="M17.5 0.75 L16.75 1.5" fill="none" stroke="#5d7c8d" stroke-linecap="round" stroke-linejoin="round" stroke-width="1.0"/>
    <path d="M20.95 5.0 L21.25 6.55 22.15 7.15" fill="none" stroke="#42494c" stroke-linecap="round" stroke-linejoin="round" stroke-width="1.0"/>
  </g>
</svg>
