<?xml version="1.0" encoding="UTF-8" standalone="no"?>
<svg xmlns:ffdec="https://www.free-decompiler.com/flash" xmlns:xlink="http://www.w3.org/1999/xlink" ffdec:objectType="shape" height="28.9px" width="30.5px" xmlns="http://www.w3.org/2000/svg">
  <g transform="matrix(1.0, 0.0, 0.0, 1.0, 16.8, 31.5)">
    <path d="M8.1 -24.85 L8.1 -24.9 8.2 -24.85 8.1 -24.85" fill="#c48923" fill-rule="evenodd" stroke="none"/>
    <path d="M-6.55 -28.45 L-5.5 -31.0 -0.55 -30.3 Q1.7 -29.8 3.75 -28.85 L5.05 -25.75 2.1 -25.75 -0.7 -28.2 -6.55 -28.45" fill="#333333" fill-rule="evenodd" stroke="none"/>
    <path d="M10.55 -22.75 L11.4 -20.0 11.35 -19.4 11.05 -16.7 10.65 -15.5 10.2 -14.3 8.1 -10.45 7.15 -9.25 6.75 -10.2 5.6 -13.15 Q5.05 -14.8 5.0 -15.95 L4.6 -15.7 2.1 -19.2 2.1 -25.75 5.05 -25.75 6.15 -25.55 8.1 -24.85 Q9.65 -24.0 10.55 -22.75" fill="url(#gradient0)" fill-rule="evenodd" stroke="none"/>
    <path d="M6.75 -10.2 Q6.2 -7.35 4.2 -5.2 3.0 -3.5 -2.2 -3.1 -7.45 -4.6 -8.4 -7.6 -8.55 -8.0 -7.5 -9.15 -4.35 -8.8 -2.75 -11.55 -1.15 -14.3 -1.55 -16.7 L2.1 -19.2 4.6 -15.7 5.6 -13.15 6.75 -10.2" fill="url(#gradient1)" fill-rule="evenodd" stroke="none"/>
    <path d="M2.1 -25.75 L2.1 -19.2 -1.55 -16.7 -8.45 -16.95 -10.35 -24.1 -6.55 -28.45 -0.7 -28.2 2.1 -25.75" fill="url(#gradient2)" fill-rule="evenodd" stroke="none"/>
    <path d="M-12.65 -25.0 Q-12.8 -25.6 -11.7 -27.05 L-10.0 -29.35 -6.55 -28.45 -10.35 -24.1 -12.6 -24.95 -11.85 -25.75 -12.65 -25.0" fill="url(#gradient3)" fill-rule="evenodd" stroke="none"/>
    <path d="M-15.1 -22.5 L-12.65 -25.0 -12.6 -24.95 -12.65 -25.0 -11.85 -25.75 -12.6 -24.95 -15.1 -22.5" fill="#4d4946" fill-rule="evenodd" stroke="none"/>
    <path d="M-8.4 -12.5 L-8.75 -12.5 -8.4 -12.5 M-8.45 -16.95 L-1.55 -16.7 Q-1.15 -14.3 -2.75 -11.55 -4.35 -8.8 -7.5 -9.15 -9.9 -9.55 -10.05 -9.8 L-10.65 -12.6 -8.45 -16.95 M-7.15 -11.1 L-7.5 -11.1 -7.15 -11.1" fill="url(#gradient4)" fill-rule="evenodd" stroke="none"/>
    <path d="M-16.75 -19.05 L-16.8 -19.2 -16.75 -19.25 -16.75 -19.05" fill="#8a8580" fill-rule="evenodd" stroke="none"/>
    <path d="M-8.4 -7.6 Q-8.5 -6.7 -10.15 -7.25 L-14.95 -15.55 -15.5 -20.55 -15.5 -21.5 -15.1 -22.5 -12.6 -24.95 -10.35 -24.1 -8.45 -16.95 -10.65 -12.6 -10.05 -9.8 Q-9.9 -9.55 -7.5 -9.15 -8.55 -8.0 -8.4 -7.6" fill="url(#gradient5)" fill-rule="evenodd" stroke="none"/>
    <path d="M6.75 -10.2 Q6.2 -7.35 4.2 -5.2 3.0 -3.5 -2.2 -3.1 -7.45 -4.6 -8.4 -7.6 M-6.55 -28.45 L-5.5 -31.0 -0.55 -30.3 Q1.7 -29.8 3.75 -28.85 L5.05 -25.75" fill="none" stroke="#000000" stroke-linecap="round" stroke-linejoin="round" stroke-width="1.0"/>
    <path d="M8.2 -24.85 L10.3 -23.55 10.55 -22.75 11.4 -20.0 11.05 -16.7 10.65 -15.5 10.2 -14.3 9.95 -13.7 9.3 -12.3 8.1 -10.45 7.15 -9.25 6.75 -10.2 5.6 -13.15 4.6 -15.7 2.1 -19.2 2.1 -25.75 5.05 -25.75 6.15 -25.55 8.1 -24.85 8.2 -24.85 M-8.4 -7.6 Q-8.5 -6.7 -10.15 -7.25 L-14.95 -15.55 -15.5 -20.55 -15.5 -21.5 -15.1 -22.5 -12.65 -25.0 -12.6 -24.95 M-6.55 -28.45 L-0.7 -28.2 2.1 -25.75 M-1.55 -16.7 L2.1 -19.2 M-8.4 -7.6 Q-8.55 -8.0 -7.5 -9.15 M-8.45 -16.95 L-10.35 -24.1" fill="none" stroke="#666666" stroke-linecap="round" stroke-linejoin="round" stroke-width="1.0"/>
    <path d="M-12.65 -25.0 Q-12.8 -25.6 -11.7 -27.05 L-10.0 -29.35 -6.55 -28.45 -10.35 -24.1 -12.6 -24.95 M-8.75 -12.5 L-8.4 -12.5 M-1.55 -16.7 L-8.45 -16.95 -10.65 -12.6 -10.05 -9.8 Q-9.9 -9.55 -7.5 -9.15 -4.35 -8.8 -2.75 -11.55 -1.15 -14.3 -1.55 -16.7 M-7.5 -11.1 L-7.15 -11.1" fill="none" stroke="#323232" stroke-linecap="round" stroke-linejoin="round" stroke-width="1.0"/>
    <path d="M2.05 -19.1 L2.05 -25.4 2.75 -26.05 5.7 -26.05 9.55 -24.55 11.75 -24.55 12.6 -23.35 13.2 -19.35 10.5 -16.65 5.05 -15.0 2.05 -19.1 M10.35 -22.45 L10.0 -22.45 10.35 -22.45 M9.2 -19.7 L8.85 -19.7 9.2 -19.7 M11.2 -20.85 L10.85 -20.85 11.2 -20.85" fill="url(#gradient6)" fill-rule="evenodd" stroke="none"/>
    <path d="M2.05 -19.1 L2.05 -25.4 2.75 -26.05 5.7 -26.05 9.55 -24.55 11.75 -24.55 12.6 -23.35 13.2 -19.35 10.5 -16.65 5.05 -15.0 2.05 -19.1 M10.85 -20.85 L11.2 -20.85 M8.85 -19.7 L9.2 -19.7 M10.0 -22.45 L10.35 -22.45" fill="none" stroke="#323232" stroke-linecap="round" stroke-linejoin="round" stroke-width="1.0"/>
  </g>
  <defs>
    <radialGradient cx="0" cy="0" gradientTransform="matrix(0.0114, 0.0, 0.0, 0.0114, 6.5, -17.55)" gradientUnits="userSpaceOnUse" id="gradient0" r="819.2" spreadMethod="pad">
      <stop offset="0.0" stop-color="#ffffff"/>
      <stop offset="1.0" stop-color="#999999"/>
    </radialGradient>
    <radialGradient cx="0" cy="0" gradientTransform="matrix(0.0104, 0.0, 0.0, 0.0104, -0.9, -13.75)" gradientUnits="userSpaceOnUse" id="gradient1" r="819.2" spreadMethod="pad">
      <stop offset="0.0" stop-color="#393c57"/>
      <stop offset="1.0" stop-color="#292930"/>
    </radialGradient>
    <radialGradient cx="0" cy="0" gradientTransform="matrix(0.0088, 0.0, 0.0, 0.0088, -4.1, -22.75)" gradientUnits="userSpaceOnUse" id="gradient2" r="819.2" spreadMethod="pad">
      <stop offset="0.0" stop-color="#ffffff"/>
      <stop offset="1.0" stop-color="#999999"/>
    </radialGradient>
    <linearGradient gradientTransform="matrix(0.0037, 0.0, 0.0, 0.0032, -9.6, -26.75)" gradientUnits="userSpaceOnUse" id="gradient3" spreadMethod="pad" x1="-819.2" x2="819.2">
      <stop offset="0.0" stop-color="#595959"/>
      <stop offset="1.0" stop-color="#737373"/>
    </linearGradient>
    <linearGradient gradientTransform="matrix(0.005, 0.0, 0.0, 0.0052, -4.6, -12.7)" gradientUnits="userSpaceOnUse" id="gradient4" spreadMethod="pad" x1="-819.2" x2="819.2">
      <stop offset="0.0" stop-color="#595959"/>
      <stop offset="1.0" stop-color="#737373"/>
    </linearGradient>
    <radialGradient cx="0" cy="0" gradientTransform="matrix(0.0108, 0.0, 0.0, 0.0108, -12.4, -16.1)" gradientUnits="userSpaceOnUse" id="gradient5" r="819.2" spreadMethod="pad">
      <stop offset="0.0" stop-color="#ffffff"/>
      <stop offset="1.0" stop-color="#999999"/>
    </radialGradient>
    <linearGradient gradientTransform="matrix(0.0068, 0.0, 0.0, 0.0067, 7.6, -20.55)" gradientUnits="userSpaceOnUse" id="gradient6" spreadMethod="pad" x1="-819.2" x2="819.2">
      <stop offset="0.0" stop-color="#595959"/>
      <stop offset="1.0" stop-color="#737373"/>
    </linearGradient>
  </defs>
</svg>
