<?xml version="1.0" encoding="UTF-8" standalone="no"?>
<svg xmlns:ffdec="https://www.free-decompiler.com/flash" xmlns:xlink="http://www.w3.org/1999/xlink" ffdec:objectType="shape" height="33.8px" width="33.6px" xmlns="http://www.w3.org/2000/svg">
  <g transform="matrix(1.0, 0.0, 0.0, 1.0, 0.5, 2.25)">
    <path d="M13.0 27.5 L12.6 23.35 24.95 25.2 26.0 24.9 23.65 29.5 Q18.3 29.85 13.0 27.5" fill="url(#gradient0)" fill-rule="evenodd" stroke="none"/>
    <path d="M13.0 27.5 L13.1 28.8 12.1 28.8 Q11.0 28.2 9.9 27.55 L8.55 25.2 9.8 22.25 12.6 23.35 13.0 27.5 M26.0 24.9 L27.95 24.35 27.5 29.8 25.6 31.05 23.65 29.5 26.0 24.9" fill="#353535" fill-rule="evenodd" stroke="none"/>
    <path d="M12.6 23.35 L9.8 22.25 8.55 25.2 9.9 27.55 Q11.0 28.2 12.1 28.8 L13.1 28.8 13.0 27.5 12.6 23.35 24.95 25.2 26.0 24.9 27.95 24.35 27.5 29.8 25.6 31.05 23.65 29.5 Q18.3 29.85 13.0 27.5 M26.0 24.9 L23.65 29.5" fill="none" stroke="#000000" stroke-linecap="round" stroke-linejoin="round" stroke-width="1.0"/>
    <path d="M22.6 7.5 L22.9 7.5 M25.9 4.5 L26.2 4.5 M29.05 21.4 L29.35 21.4" fill="none" stroke="#151515" stroke-linecap="round" stroke-linejoin="round" stroke-width="1.0"/>
    <path d="M2.15 8.9 L1.6 8.9 Q0.05 6.2 1.5 2.9 L2.9 2.9 5.3 2.9 Q6.1 4.0 6.35 5.0 6.9 7.1 4.95 8.9 L2.15 8.9 M14.55 6.45 L14.75 6.2 Q16.05 4.95 17.55 5.25 19.0 5.5 20.5 7.2 21.9 8.85 21.65 10.65 L21.65 10.75 Q21.35 12.55 20.75 13.2 L19.4 14.15 16.35 14.3 Q15.65 14.0 14.85 12.7 14.05 11.4 13.75 9.45 13.5 7.6 14.55 6.45 M3.25 4.2 L3.05 4.75 3.25 5.25 3.8 5.5 4.3 5.25 4.55 4.75 4.3 4.2 3.8 4.0 3.25 4.2" fill="#282828" fill-rule="evenodd" stroke="none"/>
    <path d="M3.25 4.2 L3.8 4.0 4.3 4.2 4.55 4.75 4.3 5.25 3.8 5.5 3.25 5.25 3.05 4.75 3.25 4.2" fill="#ff0000" fill-rule="evenodd" stroke="none"/>
    <path d="M29.75 25.2 Q29.5 25.85 29.2 25.5 L27.4 25.5 29.75 25.2" fill="#666666" fill-rule="evenodd" stroke="none"/>
    <path d="M13.7 1.0 L13.1 -0.4 13.9 -1.75 Q20.55 -2.0 25.4 1.15 L25.4 2.6 24.65 3.45 23.75 4.45 14.25 2.3 13.7 1.0" fill="#232323" fill-rule="evenodd" stroke="none"/>
    <path d="M23.35 24.9 L20.15 24.65 Q21.1 23.65 21.1 22.15 21.1 20.6 20.05 19.7 18.95 18.8 17.4 18.8 16.1 18.8 14.95 19.45 13.95 20.1 13.55 21.05 L10.8 19.75 11.3 18.45 Q11.6 15.7 10.3 14.4 L9.4 13.7 9.4 9.85 10.95 7.75 11.45 6.65 14.55 6.45 Q13.5 7.6 13.75 9.45 14.05 11.4 14.85 12.7 15.65 14.0 16.35 14.3 L19.4 14.15 20.75 13.2 Q21.35 12.55 21.65 10.75 L21.65 10.65 22.75 10.85 24.0 11.3 24.0 11.6 24.15 13.4 24.25 14.0 24.6 15.6 23.1 16.45 22.85 18.35 21.8 20.05 23.35 24.9" fill="url(#gradient1)" fill-rule="evenodd" stroke="none"/>
    <path d="M13.7 1.0 L14.25 2.3 23.75 4.45 24.65 3.45 25.15 3.65 25.2 3.5 26.65 4.15 26.5 4.3 Q25.85 4.7 25.25 5.7 24.0 8.4 24.0 11.3 L22.75 10.85 21.65 10.65 Q21.9 8.85 20.5 7.2 19.0 5.5 17.55 5.25 16.05 4.95 14.75 6.2 L14.55 6.45 11.45 6.65 13.0 3.25 13.0 1.0 13.7 1.0" fill="url(#gradient2)" fill-rule="evenodd" stroke="none"/>
    <path d="M20.15 24.65 L20.05 24.7 Q19.0 25.65 17.45 25.6 15.9 25.55 14.6 24.65 13.65 23.95 13.35 22.9 13.2 21.85 13.55 21.05 13.95 20.1 14.95 19.45 16.1 18.8 17.4 18.8 18.95 18.8 20.05 19.7 21.1 20.6 21.1 22.15 21.1 23.65 20.15 24.65 M10.8 19.75 L9.6 21.05 7.85 21.65 6.65 21.5 4.45 20.8 Q2.5 20.0 2.05 17.9 1.6 15.8 3.05 14.35 4.45 12.85 6.35 12.9 L7.1 12.95 Q8.5 13.1 9.4 13.7 L10.3 14.4 Q11.6 15.7 11.3 18.45 L10.8 19.75" fill="#2c2929" fill-rule="evenodd" stroke="none"/>
    <path d="M6.65 21.5 Q6.0 22.0 5.3 22.45 L1.1 20.45 0.0 18.55 0.8 13.3 2.15 11.8 2.15 10.95 2.15 8.9 4.95 8.9 Q6.9 7.1 6.35 5.0 6.1 4.0 5.3 2.9 L2.9 2.9 4.35 0.0 10.95 0.0 13.0 1.0 13.0 3.25 11.45 6.65 10.95 7.75 9.4 9.85 9.4 13.7 Q8.5 13.1 7.1 12.95 L6.6 10.95 2.15 10.95 6.6 10.95 7.1 12.95 6.35 12.9 Q4.45 12.85 3.05 14.35 1.6 15.8 2.05 17.9 2.5 20.0 4.45 20.8 L6.65 21.5 M8.6 3.65 L8.3 3.65 8.6 3.65 M9.7 1.25 L9.4 1.25 9.7 1.25 M11.15 0.75 L9.25 5.0 6.35 5.0 9.25 5.0 11.15 0.75 M5.45 11.95 L5.15 11.95 5.45 11.95" fill="url(#gradient3)" fill-rule="evenodd" stroke="none"/>
    <path d="M26.65 4.15 Q29.65 4.6 29.8 5.15 L30.45 7.55 Q30.95 9.4 30.75 15.05 L30.75 19.4 Q30.25 24.0 29.75 25.2 L27.4 25.5 23.6 25.7 23.35 24.9 21.8 20.05 22.85 18.35 23.1 16.45 24.6 15.6 24.25 14.0 24.15 13.4 24.0 11.6 24.0 11.3 Q24.0 8.4 25.25 5.7 25.85 4.7 26.5 4.3 L26.65 4.15 M27.4 5.75 L27.1 5.75 27.4 5.75 M27.4 25.5 L26.05 24.8 Q25.5 22.9 25.75 20.25 L26.05 17.9 24.6 15.6 26.05 17.9 25.75 20.25 Q25.5 22.9 26.05 24.8 L27.4 25.5 M23.65 20.0 L23.35 20.0 23.65 20.0 M24.6 24.35 L24.3 24.35 24.6 24.35" fill="#353535" fill-rule="evenodd" stroke="none"/>
    <path d="M27.4 25.5 L29.75 25.2" fill="none" stroke="#000000" stroke-linecap="round" stroke-linejoin="round" stroke-width="1.0"/>
    <path d="M24.65 3.45 L25.4 2.6 25.4 1.15 Q20.55 -2.0 13.9 -1.75 L13.1 -0.4 13.7 1.0 14.25 2.3 23.75 4.45 24.65 3.45 M25.2 3.5 L26.65 4.15 Q29.65 4.6 29.8 5.15 L30.45 7.55 Q30.95 9.4 30.75 15.05 L30.75 19.4 M27.4 25.5 L23.6 25.7 23.35 24.9 20.15 24.65 20.05 24.7 Q19.0 25.65 17.45 25.6 15.9 25.55 14.6 24.65 13.65 23.95 13.35 22.9 13.2 21.85 13.55 21.05 L10.8 19.75 9.6 21.05 7.85 21.65 6.65 21.5 Q6.0 22.0 5.3 22.45 L1.1 20.45 0.0 18.55 0.8 13.3 2.15 11.8 2.15 10.95 2.15 8.9 1.6 8.9 Q0.05 6.2 1.5 2.9 L2.9 2.9 4.35 0.0 10.95 0.0 13.0 1.0 13.7 1.0 M26.65 4.15 L26.5 4.3 Q25.85 4.7 25.25 5.7 24.0 8.4 24.0 11.3 L24.0 11.6 24.15 13.4 24.25 14.0 24.6 15.6 26.05 17.9 25.75 20.25 Q25.5 22.9 26.05 24.8 L27.4 25.5 M14.55 6.45 L14.75 6.2 Q16.05 4.95 17.55 5.25 19.0 5.5 20.5 7.2 21.9 8.85 21.65 10.65 L22.75 10.85 24.0 11.3 M21.65 10.65 L21.65 10.75 Q21.35 12.55 20.75 13.2 L19.4 14.15 16.35 14.3 Q15.65 14.0 14.85 12.7 14.05 11.4 13.75 9.45 13.5 7.6 14.55 6.45 L11.45 6.65 10.95 7.75 9.4 9.85 9.4 13.7 10.3 14.4 Q11.6 15.7 11.3 18.45 L10.8 19.75 M23.35 24.9 L21.8 20.05 22.85 18.35 23.1 16.45 24.6 15.6 M13.0 1.0 L13.0 3.25 11.45 6.65 M6.35 5.0 L9.25 5.0 11.15 0.75 M2.9 2.9 L5.3 2.9 Q6.1 4.0 6.35 5.0 6.9 7.1 4.95 8.9 L2.15 8.9 M7.1 12.95 L6.6 10.95 2.15 10.95 M7.1 12.95 Q8.5 13.1 9.4 13.7 M6.65 21.5 L4.45 20.8 Q2.5 20.0 2.05 17.9 1.6 15.8 3.05 14.35 4.45 12.85 6.35 12.9 L7.1 12.95 M13.55 21.05 Q13.95 20.1 14.95 19.45 16.1 18.8 17.4 18.8 18.95 18.8 20.05 19.7 21.1 20.6 21.1 22.15 21.1 23.65 20.15 24.65" fill="none" stroke="#121212" stroke-linecap="round" stroke-linejoin="round" stroke-width="1.0"/>
    <path d="M27.1 5.75 L27.4 5.75 M24.3 24.35 L24.6 24.35 M23.35 20.0 L23.65 20.0 M9.4 1.25 L9.7 1.25 M8.3 3.65 L8.6 3.65 M5.15 11.95 L5.45 11.95 M11.35 24.55 L11.65 24.55 M26.5 26.9 L26.8 26.9" fill="none" stroke="#151515" stroke-linecap="round" stroke-linejoin="round" stroke-width="1.0"/>
    <path d="M5.45 19.5 Q4.25 18.65 4.25 17.55 4.25 16.45 5.0 15.65 5.8 14.9 6.9 14.95 7.95 14.95 10.0 17.3 12.05 19.65 15.3 19.95 16.2 19.9 17.1 20.35 L18.45 21.3 Q18.85 21.8 18.85 22.55 18.85 23.3 18.3 23.8 L17.0 24.5 13.6 24.5 Q11.0 24.4 7.75 21.6 L5.45 19.5" fill="url(#gradient4)" fill-rule="evenodd" stroke="none"/>
    <path d="M30.55 7.35 Q31.0 7.5 31.4 7.8 33.4 11.95 32.1 15.4 L31.2 15.7 29.3 15.95 26.8 15.45 Q25.8 11.7 26.8 7.4 L28.65 7.1 30.55 7.35 Q31.7 11.8 31.2 15.7 31.7 11.8 30.55 7.35 M29.75 24.7 Q30.6 21.1 29.4 17.55 30.6 21.1 29.75 24.7 L27.95 24.35 Q26.85 21.3 27.95 17.75 L29.4 17.55 31.25 17.75 Q32.15 21.35 31.55 23.8 30.65 24.5 29.75 24.7 M29.3 15.95 Q29.85 11.5 28.65 7.1 29.85 11.5 29.3 15.95" fill="#1c1c1c" fill-rule="evenodd" stroke="none"/>
    <path d="M5.45 19.5 Q4.25 18.65 4.25 17.55 4.25 16.45 5.0 15.65 5.8 14.9 6.9 14.95 7.95 14.95 10.0 17.3 12.05 19.65 15.3 19.95 16.2 19.9 17.1 20.35 L18.45 21.3 Q18.85 21.8 18.85 22.55 18.85 23.3 18.3 23.8 L17.0 24.5 13.6 24.5 Q11.0 24.4 7.75 21.6 L5.45 19.5" fill="none" stroke="#0b0b0b" stroke-linecap="round" stroke-linejoin="round" stroke-width="1.0"/>
    <path d="M30.55 7.35 Q31.0 7.5 31.4 7.8 33.4 11.95 32.1 15.4 L31.2 15.7 29.3 15.95 26.8 15.45 Q25.8 11.7 26.8 7.4 L28.65 7.1 30.55 7.35 Q31.7 11.8 31.2 15.7 M29.4 17.55 Q30.6 21.1 29.75 24.7 30.65 24.5 31.55 23.8 32.15 21.35 31.25 17.75 L29.4 17.55 27.95 17.75 Q26.85 21.3 27.95 24.35 L29.75 24.7 29.75 25.2 M28.65 7.1 Q29.85 11.5 29.3 15.95" fill="none" stroke="#151515" stroke-linecap="round" stroke-linejoin="round" stroke-width="1.0"/>
    <path d="M8.6 15.85 Q5.15 16.15 5.45 19.5 M13.4 19.55 Q13.9 22.15 11.95 24.2 M16.1 20.0 Q17.45 22.5 15.35 24.55 M10.15 17.45 Q7.0 17.45 7.2 21.1 M11.65 18.75 Q9.5 20.45 9.8 23.15" fill="none" stroke="#1c1c1c" stroke-linecap="round" stroke-linejoin="round" stroke-width="1.0"/>
    <path d="M8.6 15.85 L10.0 17.3 10.15 17.45 Q10.8 18.2 11.65 18.75 12.45 19.25 13.4 19.55 L15.3 19.95 16.1 20.0 17.1 20.35 18.45 21.3 Q18.85 21.8 18.85 22.55 18.85 23.3 18.3 23.8 L17.0 24.5 15.35 24.55 13.6 24.5 11.95 24.2 Q10.9 23.85 9.8 23.15 L7.75 21.6 7.2 21.1 5.45 19.5 Q4.25 18.65 4.25 17.55 4.25 16.45 5.0 15.65 5.8 14.9 6.9 14.95 7.55 14.95 8.6 15.85 Z" fill="none" stroke="#0b0a09" stroke-linecap="round" stroke-linejoin="round" stroke-width="1.0"/>
  </g>
  <defs>
    <radialGradient cx="0" cy="0" gradientTransform="matrix(0.0136, 0.0023, -0.0015, 0.0089, 18.7, 23.2)" gradientUnits="userSpaceOnUse" id="gradient0" r="819.2" spreadMethod="pad">
      <stop offset="0.0" stop-color="#333333"/>
      <stop offset="1.0" stop-color="#070707"/>
    </radialGradient>
    <radialGradient cx="0" cy="0" gradientTransform="matrix(0.0239, 0.0, 0.0, 0.0239, 18.75, 12.25)" gradientUnits="userSpaceOnUse" id="gradient1" r="819.2" spreadMethod="pad">
      <stop offset="0.0" stop-color="#333333"/>
      <stop offset="1.0" stop-color="#070707"/>
    </radialGradient>
    <radialGradient cx="0" cy="0" fx="192.0" fy="0" gradientTransform="matrix(0.0075, 0.0, 0.0, 0.0075, 17.65, 8.8)" gradientUnits="userSpaceOnUse" id="gradient2" r="819.2" spreadMethod="pad">
      <stop offset="0.0" stop-color="#2a2a2a"/>
      <stop offset="1.0" stop-color="#1e1e1e"/>
      <stop offset="1.0" stop-color="#383838"/>
    </radialGradient>
    <radialGradient cx="0" cy="0" gradientTransform="matrix(-0.0098, 0.0367, -0.0249, -0.0067, 10.7, 7.05)" gradientUnits="userSpaceOnUse" id="gradient3" r="819.2" spreadMethod="pad">
      <stop offset="0.0" stop-color="#333333"/>
      <stop offset="1.0" stop-color="#070707"/>
    </radialGradient>
    <radialGradient cx="0" cy="0" fx="192.0" fy="0" gradientTransform="matrix(0.0091, 0.003, -0.0015, 0.0046, 11.65, 18.7)" gradientUnits="userSpaceOnUse" id="gradient4" r="819.2" spreadMethod="pad">
      <stop offset="0.0" stop-color="#484848"/>
      <stop offset="0.4470588235294118" stop-color="#2a2a2a"/>
      <stop offset="1.0" stop-color="#1e1e1e"/>
      <stop offset="1.0" stop-color="#383838"/>
    </radialGradient>
  </defs>
</svg>
