<?xml version="1.0" encoding="UTF-8" standalone="no"?>
<svg xmlns:ffdec="https://www.free-decompiler.com/flash" xmlns:xlink="http://www.w3.org/1999/xlink" ffdec:objectType="shape" height="43.05px" width="30.45px" xmlns="http://www.w3.org/2000/svg">
  <g transform="matrix(1.0, 0.0, 0.0, 1.0, -2.75, -0.1)">
    <path d="M22.85 18.95 L22.8 21.95 Q15.0 20.65 14.65 17.05 16.95 15.35 19.1 15.3 L22.05 18.75 22.85 18.95 M15.1 31.35 L14.35 28.05 Q17.0 28.1 18.85 29.5 L22.75 28.1 Q24.55 29.65 25.6 31.75 25.3 34.6 25.8 35.6 L21.35 32.8 Q18.5 31.5 15.1 31.35" fill="#0e3f41" fill-rule="evenodd" stroke="none"/>
    <path d="M15.1 31.35 L14.35 28.05 M25.6 31.75 Q25.3 34.6 25.8 35.6" fill="none" stroke="#061f25" stroke-linecap="round" stroke-linejoin="round" stroke-width="1.0"/>
    <path d="M22.8 21.95 L22.5 23.55 18.8 25.05 Q15.5 22.85 11.6 23.45 L10.6 23.65 Q8.4 20.35 8.05 16.65 10.2 17.9 13.25 18.2 L14.65 17.05 Q15.0 20.65 22.8 21.95" fill="url(#gradient0)" fill-rule="evenodd" stroke="none"/>
    <path d="M12.2 31.4 L15.1 31.35 Q18.5 31.5 21.35 32.8 L25.8 35.6 Q26.45 37.2 25.8 38.9 L24.35 42.65 Q18.75 42.55 15.55 38.6 15.5 34.4 12.2 31.4" fill="url(#gradient1)" fill-rule="evenodd" stroke="none"/>
    <path d="M22.5 23.55 Q21.9 26.0 21.3 27.0 L22.75 28.1 18.85 29.5 Q17.0 28.1 14.35 28.05 L13.3 28.05 Q11.95 25.85 11.6 23.45 15.5 22.85 18.8 25.05 L22.5 23.55" fill="url(#gradient2)" fill-rule="evenodd" stroke="none"/>
    <path d="M14.65 17.05 L13.25 18.2 Q10.2 17.9 8.05 16.65 4.35 14.5 3.25 9.7 3.4 3.5 8.45 0.6 10.65 4.8 17.95 9.4 L19.0 10.2 Q21.95 12.75 21.4 15.7 20.25 15.25 19.1 15.3 16.95 15.35 14.65 17.05" fill="url(#gradient3)" fill-rule="evenodd" stroke="none"/>
    <path d="M22.5 23.55 L22.8 21.95 22.85 18.95 Q27.2 20.05 31.15 23.25 30.5 28.8 28.35 31.9 L27.0 33.75 25.6 31.75 Q24.55 29.65 22.75 28.1 L21.3 27.0 Q21.9 26.0 22.5 23.55" fill="url(#gradient4)" fill-rule="evenodd" stroke="none"/>
    <path d="M31.15 23.25 Q27.2 20.05 22.85 18.95 L22.05 18.75 19.1 15.3 Q20.25 15.25 21.4 15.7 21.95 12.75 19.0 10.2 L25.15 10.25 Q31.05 12.65 32.2 16.65 33.3 20.65 32.05 24.0 L31.15 23.25" fill="url(#gradient5)" fill-rule="evenodd" stroke="none"/>
    <path d="M22.8 21.95 L22.5 23.55 Q21.9 26.0 21.3 27.0 L22.75 28.1 Q24.55 29.65 25.6 31.75 L27.0 33.75 28.35 31.9 Q30.5 28.8 31.15 23.25 27.2 20.05 22.85 18.95 L22.8 21.95 Q15.0 20.65 14.65 17.05 L13.25 18.2 Q10.2 17.9 8.05 16.65 8.4 20.35 10.6 23.65 L11.6 23.45 Q15.5 22.85 18.8 25.05 L22.5 23.55 M19.1 15.3 L22.05 18.75 22.85 18.95 M31.15 23.25 L32.05 24.0 Q33.3 20.65 32.2 16.65 31.05 12.65 25.15 10.25 L19.0 10.2 Q21.95 12.75 21.4 15.7 20.25 15.25 19.1 15.3 16.95 15.35 14.65 17.05 M8.05 16.65 Q4.35 14.5 3.25 9.7 3.4 3.5 8.45 0.6 10.65 4.8 17.95 9.4 L19.0 10.2 M12.2 31.4 L15.1 31.35 Q18.5 31.5 21.35 32.8 L25.8 35.6 Q26.45 37.2 25.8 38.9 L24.35 42.65 Q18.75 42.55 15.55 38.6 15.5 34.4 12.2 31.4 M11.6 23.45 Q11.95 25.85 13.3 28.05 L14.35 28.05 Q17.0 28.1 18.85 29.5 L22.75 28.1" fill="none" stroke="#040a2e" stroke-linecap="round" stroke-linejoin="round" stroke-width="1.0"/>
    <path d="M24.65 25.75 Q24.25 26.2 23.75 25.55 22.9 24.5 23.5 24.0 24.65 23.95 24.65 25.75 M24.9 28.45 Q24.05 27.4 24.65 26.9 L25.15 27.0 25.6 27.45 25.8 28.65 Q25.4 29.1 24.9 28.45" fill="#85841d" fill-opacity="0.49803922" fill-rule="evenodd" stroke="none"/>
    <path d="M19.2 38.25 Q18.85 39.0 17.95 38.35 17.0 37.1 17.7 36.85 18.9 36.6 19.2 38.25 M16.75 35.25 Q15.1 33.25 16.3 32.9 18.35 32.5 18.85 35.15 18.25 36.35 16.75 35.25 M14.75 26.05 Q14.0 25.05 14.75 25.05 15.95 25.2 15.95 26.35 15.45 26.75 14.75 26.05 M24.0 36.85 Q23.25 35.85 24.0 35.85 25.2 36.0 25.2 37.15 24.7 37.55 24.0 36.85" fill="#152569" fill-opacity="0.29803923" fill-rule="evenodd" stroke="none"/>
    <path d="M28.1 14.85 Q26.7 13.75 27.75 13.25 29.6 13.15 29.6 15.1 28.95 15.55 28.1 14.85 M30.4 19.55 Q29.0 17.7 30.05 16.9 31.9 16.75 31.9 19.9 31.25 20.7 30.4 19.55" fill="#625813" fill-opacity="0.29803923" fill-rule="evenodd" stroke="none"/>
    <path d="M15.6 10.0 Q17.45 9.9 17.45 12.1 16.8 12.65 15.95 11.85 14.55 10.55 15.6 10.0 M14.95 14.25 Q14.35 13.35 15.05 13.15 16.15 13.4 15.8 14.65 15.35 14.9 14.95 14.25" fill="#623e13" fill-opacity="0.29803923" fill-rule="evenodd" stroke="none"/>
    <path d="M8.4 12.55 Q8.85 13.05 8.85 14.2 8.2 14.75 7.35 13.95 6.4 13.1 6.6 12.55 L7.0 12.1 Q7.9 12.05 8.4 12.55 M6.1 4.75 Q7.55 5.2 7.35 7.35 L7.25 7.9 6.4 7.85 5.95 7.15 Q5.1 5.05 6.1 4.75 M5.35 10.5 Q4.75 9.6 5.45 9.4 6.55 9.65 6.2 10.9 5.75 11.15 5.35 10.5" fill="#8e861b" fill-opacity="0.29803923" fill-rule="evenodd" stroke="none"/>
    <path d="M15.1 22.7 Q14.1 22.1 14.45 21.65 15.65 20.9 16.15 22.35 15.85 22.95 15.1 22.7 M12.35 21.55 Q11.35 20.6 11.7 19.85 12.9 18.7 13.4 20.95 13.1 21.9 12.35 21.55" fill="#3c8a7a" fill-opacity="0.28627452" fill-rule="evenodd" stroke="none"/>
  </g>
  <defs>
    <radialGradient cx="0" cy="0" gradientTransform="matrix(0.0221, 0.0, 0.0, 0.0221, 21.8, 20.85)" gradientUnits="userSpaceOnUse" id="gradient0" r="819.2" spreadMethod="pad">
      <stop offset="0.0" stop-color="#23ff5b"/>
      <stop offset="0.27450980392156865" stop-color="#3fffba"/>
      <stop offset="0.5019607843137255" stop-color="#3fafff"/>
      <stop offset="0.9058823529411765" stop-color="#0400ff"/>
      <stop offset="1.0" stop-color="#ff1305"/>
    </radialGradient>
    <radialGradient cx="0" cy="0" gradientTransform="matrix(0.031, 0.0, 0.0, 0.031, 29.85, 24.2)" gradientUnits="userSpaceOnUse" id="gradient1" r="819.2" spreadMethod="pad">
      <stop offset="0.0" stop-color="#23ff5b"/>
      <stop offset="0.27450980392156865" stop-color="#3fffba"/>
      <stop offset="0.5019607843137255" stop-color="#3fafff"/>
      <stop offset="0.9058823529411765" stop-color="#0400ff"/>
      <stop offset="1.0" stop-color="#ff1305"/>
    </radialGradient>
    <radialGradient cx="0" cy="0" gradientTransform="matrix(0.0322, 0.0, 0.0, 0.0322, 29.15, 24.15)" gradientUnits="userSpaceOnUse" id="gradient2" r="819.2" spreadMethod="pad">
      <stop offset="0.0" stop-color="#23ff5b"/>
      <stop offset="0.27450980392156865" stop-color="#3fffba"/>
      <stop offset="0.5019607843137255" stop-color="#3fafff"/>
      <stop offset="0.9058823529411765" stop-color="#0400ff"/>
      <stop offset="1.0" stop-color="#ff1305"/>
    </radialGradient>
    <radialGradient cx="0" cy="0" gradientTransform="matrix(0.0294, 0.0, 0.0, 0.0294, 5.75, 15.4)" gradientUnits="userSpaceOnUse" id="gradient3" r="819.2" spreadMethod="pad">
      <stop offset="0.0" stop-color="#17d7c6"/>
      <stop offset="0.39215686274509803" stop-color="#c4b81b"/>
      <stop offset="0.9372549019607843" stop-color="#910000"/>
      <stop offset="1.0" stop-color="#fff23f"/>
      <stop offset="1.0" stop-color="#ff1305"/>
    </radialGradient>
    <radialGradient cx="0" cy="0" gradientTransform="matrix(0.0236, 0.0, 0.0, 0.0281, 20.85, 22.8)" gradientUnits="userSpaceOnUse" id="gradient4" r="819.2" spreadMethod="pad">
      <stop offset="0.0" stop-color="#17d7c6"/>
      <stop offset="0.39215686274509803" stop-color="#c4b81b"/>
      <stop offset="0.6352941176470588" stop-color="#ff1305"/>
      <stop offset="1.0" stop-color="#fff23f"/>
    </radialGradient>
    <radialGradient cx="0" cy="0" gradientTransform="matrix(0.0161, -0.0092, 0.0149, 0.0259, 22.45, 11.7)" gradientUnits="userSpaceOnUse" id="gradient5" r="819.2" spreadMethod="pad">
      <stop offset="0.0" stop-color="#17d7c6"/>
      <stop offset="0.39215686274509803" stop-color="#c4b81b"/>
      <stop offset="0.7372549019607844" stop-color="#ff1305"/>
      <stop offset="0.803921568627451" stop-color="#910000"/>
    </radialGradient>
  </defs>
</svg>
