<?xml version="1.0" encoding="UTF-8" standalone="no"?>
<svg xmlns:xlink="http://www.w3.org/1999/xlink" height="6.25px" width="25.8px" xmlns="http://www.w3.org/2000/svg">
  <g transform="matrix(1.0, 0.0, 0.0, 1.0, 12.9, 3.4)">
    <path d="M8.8 -1.65 L12.4 -1.45 12.4 2.35 10.3 2.35 6.2 2.35 2.05 2.35 -12.4 2.35 -11.7 -2.8 -8.15 -2.6 -3.95 -2.35 0.3 -2.1 2.05 2.35 0.3 -2.1 4.6 -1.85 8.8 -1.65 10.3 2.35 8.8 -1.65 M6.2 2.35 L4.6 -1.85 6.2 2.35 M-2.25 2.1 L-3.95 -2.35 -2.25 2.1 M-6.45 1.95 L-8.15 -2.6 -6.45 1.95" fill="#74ff74" fill-rule="evenodd" stroke="none"/>
    <path d="M8.8 -1.65 L12.4 -1.45 12.4 2.35 10.3 2.35 6.2 2.35 2.05 2.35 -12.4 2.35 -11.7 -2.8 -8.15 -2.6 -8.3 -2.9 M8.8 -1.65 L8.65 -1.95 M4.6 -1.85 L8.8 -1.65 10.3 2.35 M4.6 -1.85 L4.45 -2.2 M0.3 -2.1 L4.6 -1.85 6.2 2.35 M0.15 -2.5 L0.3 -2.1 -3.95 -2.35 -2.25 2.1 M2.05 2.35 L0.3 -2.1 M-8.15 -2.6 L-3.95 -2.35 -4.1 -2.75 M-8.15 -2.6 L-6.45 1.95" fill="none" stroke="#348c34" stroke-linecap="round" stroke-linejoin="round" stroke-width="1.0"/>
  </g>
</svg>
