<?xml version="1.0" encoding="UTF-8" standalone="no"?>
<svg xmlns:ffdec="https://www.free-decompiler.com/flash" xmlns:xlink="http://www.w3.org/1999/xlink" ffdec:objectType="shape" height="34.05px" width="52.55px" xmlns="http://www.w3.org/2000/svg">
  <g transform="matrix(1.0, 0.0, 0.0, 1.0, 16.55, 5.55)">
    <path d="M1.6 8.3 L-15.15 15.5 -16.55 -5.55 1.5 5.25 1.6 8.3" fill="url(#gradient0)" fill-rule="evenodd" stroke="none"/>
    <path d="M21.15 9.1 L36.0 3.45 36.0 17.9 21.15 12.85 21.15 9.1" fill="url(#gradient1)" fill-rule="evenodd" stroke="none"/>
    <path d="M8.85 2.0 L8.95 1.95 8.9 2.0 8.85 2.0 M17.35 4.05 L18.95 4.5 17.3 4.05 17.35 4.05 M9.9 1.8 L9.65 1.85 9.25 1.95 9.9 1.8" fill="#323a27" fill-rule="evenodd" stroke="none"/>
    <path d="M6.1 23.25 L7.2 23.05 6.1 23.25" fill="#4e5b3d" fill-rule="evenodd" stroke="none"/>
    <path d="M9.5 23.6 L10.05 25.0 10.45 26.6 9.5 23.6" fill="#61704c" fill-rule="evenodd" stroke="none"/>
    <path d="M7.8 2.15 L8.0 2.1 8.5 2.05 8.85 2.0 8.9 2.0 8.5 2.05 7.7 2.2 7.8 2.15" fill="#2f321f" fill-rule="evenodd" stroke="none"/>
    <path d="M19.05 22.65 L20.0 23.35 Q19.95 25.4 18.95 26.8 L17.55 26.55 16.2 26.3 16.2 25.0 16.2 23.15 19.05 22.65 M8.85 26.6 L7.25 26.6 Q5.9 25.2 6.1 23.25 L7.2 23.05 9.5 23.6 10.45 26.6 8.85 26.6" fill="#333333" fill-rule="evenodd" stroke="none"/>
    <path d="M22.8 11.95 L22.6 7.45 21.85 5.7 22.6 7.45 22.8 11.95 23.2 12.0 22.8 11.95 16.2 10.65 22.8 11.95 22.85 15.4 22.8 11.95 M19.95 5.7 L21.85 5.7 22.35 5.7 23.2 7.15 23.2 12.0 23.2 14.6 22.85 15.4 22.5 16.25 21.0 15.95 19.5 15.65 19.25 15.2 18.55 13.85 16.15 13.1 16.2 10.65 16.25 8.2 18.85 7.6 19.25 6.65 19.65 5.7 19.95 5.7 M17.55 26.55 L15.4 27.75 Q12.85 28.25 10.25 27.75 L8.85 26.6 10.45 26.6 10.05 25.0 Q12.95 25.7 16.2 25.0 L16.2 26.3 17.55 26.55 M3.0 15.95 L1.1 16.7 -1.1 11.7 -0.95 10.15 -0.1 2.75 3.15 2.1 6.45 1.45 6.9 2.05 7.1 2.35 7.15 2.45 7.35 2.7 7.25 4.7 6.95 8.9 5.2 12.5 5.05 13.85 4.9 15.25 3.0 15.95 M3.15 2.1 L2.3 9.05 -0.95 10.15 2.3 9.05 3.15 2.1" fill="#272727" fill-rule="evenodd" stroke="none"/>
    <path d="M19.25 6.65 L18.85 7.6 16.25 8.2 8.9 4.7 7.25 4.7 7.35 2.7 7.15 2.45 7.7 2.2 8.5 2.05 15.05 5.0 19.25 6.65 M19.8 18.35 Q19.75 20.85 19.05 22.65 L16.2 23.15 16.2 25.0 Q12.95 25.7 10.05 25.0 L9.5 23.6 7.2 23.05 Q6.85 21.65 6.8 20.3 L8.15 20.7 8.7 19.1 12.05 20.1 16.25 18.35 19.8 18.35 M7.65 2.55 L7.35 2.7 7.65 2.55 M8.55 14.85 L16.15 13.1 18.55 13.85 19.25 15.2 9.25 17.55 8.55 14.85" fill="#252525" fill-rule="evenodd" stroke="none"/>
    <path d="M19.95 5.7 L19.65 5.7 19.25 6.65 15.05 5.0 16.05 4.95 17.3 4.05 18.95 4.5 19.95 5.7 M16.25 8.2 L16.2 10.65 16.15 13.1 8.55 14.85 6.75 13.5 5.05 13.85 5.2 12.5 6.95 8.9 7.25 4.7 8.9 4.7 16.25 8.2 M21.0 15.95 L20.3 18.35 19.8 18.35 16.25 18.35 12.05 20.1 8.7 19.1 9.25 17.55 19.25 15.2 19.5 15.65 21.0 15.95" fill="#1c1c1c" fill-rule="evenodd" stroke="none"/>
    <path d="M6.8 20.3 L4.4 19.6 3.0 15.95 4.9 15.25 5.05 13.85 6.75 13.5 8.55 14.85 9.25 17.55 8.7 19.1 8.15 20.7 6.8 20.3 M6.35 18.4 L5.7 16.25 6.35 18.4" fill="#313131" fill-rule="evenodd" stroke="none"/>
    <path d="M8.95 1.95 Q8.0 0.8 11.15 0.75 L17.9 2.9 17.9 3.6 17.35 4.05 17.3 4.05 16.05 4.95 15.05 5.0 8.5 2.05 8.9 2.0 8.95 1.95 M9.9 1.8 L9.25 1.95 9.65 1.85 9.9 1.8" fill="#171717" fill-rule="evenodd" stroke="none"/>
    <path d="M8.0 2.1 L8.5 2.05 8.85 2.0 M17.35 4.05 L18.95 4.5" fill="none" stroke="#181c14" stroke-linecap="round" stroke-linejoin="round" stroke-width="1.0"/>
    <path d="M6.1 23.25 L7.2 23.05" fill="none" stroke="#272e1e" stroke-linecap="round" stroke-linejoin="round" stroke-width="1.0"/>
    <path d="M19.95 5.7 L19.65 5.7" fill="none" stroke="#212317" stroke-linecap="round" stroke-linejoin="round" stroke-width="1.0"/>
    <path d="M22.8 11.95 L23.2 12.0 M16.2 10.65 L22.8 11.95 M-0.95 10.15 L2.3 9.05 3.15 2.1" fill="none" stroke="#232323" stroke-linecap="round" stroke-linejoin="round" stroke-width="1.0"/>
    <path d="M17.55 26.55 L15.4 27.75 Q12.85 28.25 10.25 27.75 L8.85 26.6 M10.05 25.0 Q12.95 25.7 16.2 25.0" fill="none" stroke="#1d1d1d" stroke-linecap="round" stroke-linejoin="round" stroke-width="1.0"/>
    <path d="M19.05 22.65 L20.0 23.35 Q19.95 25.4 18.95 26.8 L17.55 26.55 16.2 26.3 16.2 25.0 16.2 23.15 19.05 22.65 M8.85 26.6 L7.25 26.6 Q5.9 25.2 6.1 23.25 L7.2 23.05 9.5 23.6 10.45 26.6 8.85 26.6 M5.7 16.25 L6.35 18.4" fill="none" stroke="#202020" stroke-linecap="round" stroke-linejoin="round" stroke-width="1.0"/>
    <path d="M23.2 12.0 L23.2 7.15 22.35 5.7 21.85 5.7 19.95 5.7 18.95 4.5 17.3 4.05 17.35 4.05 17.9 3.6 17.9 2.9 11.15 0.75 Q8.0 0.8 8.95 1.95 M19.65 5.7 L19.25 6.65 18.85 7.6 16.25 8.2 16.2 10.65 16.15 13.1 8.55 14.85 9.25 17.55 19.25 15.2 18.55 13.85 16.15 13.1 M22.85 15.4 L23.2 14.6 23.2 12.0 M21.0 15.95 L20.3 18.35 19.8 18.35 Q19.75 20.85 19.05 22.65 M7.2 23.05 Q6.85 21.65 6.8 20.3 L4.4 19.6 3.0 15.95 1.1 16.7 -1.1 11.7 -0.95 10.15 -0.1 2.75 3.15 2.1 6.45 1.45 6.9 2.05 7.8 2.15 8.0 2.1 M21.0 15.95 L22.5 16.25 22.85 15.4 M15.05 5.0 L16.05 4.95 17.3 4.05 M15.05 5.0 L19.25 6.65 M7.7 2.2 L8.5 2.05 8.9 2.0 8.85 2.0 M7.8 2.15 L7.7 2.2 7.15 2.45 7.35 2.7 7.65 2.55 M7.1 2.35 L7.15 2.45 M6.9 2.05 L7.1 2.35 7.7 2.2 M7.35 2.7 L7.25 4.7 8.9 4.7 16.25 8.2 M7.25 4.7 L6.95 8.9 5.2 12.5 5.05 13.85 6.75 13.5 8.55 14.85 M5.05 13.85 L4.9 15.25 3.0 15.95 M8.7 19.1 L8.15 20.7 6.8 20.3 M9.25 17.55 L8.7 19.1 12.05 20.1 16.25 18.35 19.8 18.35 M19.25 15.2 L19.5 15.65 21.0 15.95 M8.5 2.05 L15.05 5.0" fill="none" stroke="#101010" stroke-linecap="round" stroke-linejoin="round" stroke-width="1.0"/>
    <path d="M21.85 5.7 L22.6 7.45 22.8 11.95 22.85 15.4" fill="none" stroke="#511313" stroke-linecap="round" stroke-linejoin="round" stroke-width="0.7000000000000001"/>
    <path d="M7.2 23.05 Q6.85 21.65 6.8 20.3 L4.4 19.6 3.0 15.95 1.1 16.7 -1.1 11.7 -0.1 2.75 6.45 1.45 6.9 2.05 7.8 2.15 7.7 2.2 8.5 2.05 8.9 2.0 Q8.0 0.8 11.15 0.75 L17.9 2.9 17.9 3.6 17.35 4.05 17.3 4.05 18.95 4.5 19.85 5.55 19.95 5.7 22.35 5.7 23.2 7.15 23.2 14.6 22.5 16.25 21.0 15.95 20.3 18.35 19.8 18.35 Q19.75 20.85 19.05 22.65 M8.5 2.05 L15.05 5.0 16.05 4.95 17.3 4.05 M19.85 5.55 L19.25 6.65 18.85 7.6 16.25 8.2 16.15 13.1 18.55 13.85 19.25 15.2 19.5 15.65 21.0 15.95 M15.05 5.0 L19.25 6.65 M6.9 2.05 L7.1 2.35 7.7 2.2 7.15 2.45 7.35 2.7 7.65 2.55 M7.1 2.35 L7.15 2.45 M7.35 2.7 L7.25 4.7 8.9 4.7 16.25 8.2 M7.25 4.7 L6.95 8.9 5.2 12.5 5.05 13.85 6.75 13.5 8.55 14.85 16.15 13.1 M8.55 14.85 L9.25 17.55 19.25 15.2 M5.05 13.85 L4.9 15.25 3.0 15.95 M19.8 18.35 L16.25 18.35 12.05 20.1 8.7 19.1 8.15 20.7 6.8 20.3 M9.25 17.55 L8.7 19.1" fill="none" stroke="#101010" stroke-linecap="round" stroke-linejoin="round" stroke-width="1.0"/>
    <path d="M16.1 18.35 L16.1 17.85 19.0 17.25 19.3 17.95 16.1 18.35" fill="#232323" fill-rule="evenodd" stroke="none"/>
    <path d="M22.0 17.9 Q22.85 20.45 21.75 23.05 L19.8 23.05 Q20.8 20.05 19.8 17.2 L21.75 17.2 22.0 17.9 20.45 17.9 22.0 17.9 M8.65 22.65 L8.65 20.3 8.65 22.65 7.05 22.15 6.8 20.3 8.65 20.3 16.1 18.6 16.2 23.0 16.1 18.6 16.1 18.35 19.3 17.95 Q20.1 20.35 19.0 23.0 L16.2 23.0 8.65 22.65" fill="#121212" fill-rule="evenodd" stroke="none"/>
    <path d="M23.2 8.5 L23.2 13.3 21.15 12.6 21.15 9.1 23.2 8.5 M1.6 8.3 L-0.8 9.0 -0.3 4.35 2.1 3.8 1.6 8.3" fill="#b11818" fill-rule="evenodd" stroke="none"/>
    <path d="M22.0 17.9 L20.45 17.9 M16.1 18.35 L19.3 17.95" fill="none" stroke="#511313" stroke-linecap="round" stroke-linejoin="round" stroke-width="1.0"/>
    <path d="M22.0 17.9 L21.75 17.2 19.8 17.2 Q20.8 20.05 19.8 23.05 L21.75 23.05 Q22.85 20.45 22.0 17.9 M8.65 20.3 L8.65 22.65 16.2 23.0 16.1 18.6 8.65 20.3 6.8 20.3 7.05 22.15 8.65 22.65 M16.1 18.35 L16.1 18.6 M19.3 17.95 L19.0 17.25 16.1 17.85 16.1 18.35 M19.3 17.95 Q20.1 20.35 19.0 23.0 L16.2 23.0" fill="none" stroke="#040404" stroke-linecap="round" stroke-linejoin="round" stroke-width="1.0"/>
    <path d="M23.2 8.5 L23.2 13.3 21.15 12.6 21.15 9.1 23.2 8.5 M1.6 8.3 L-0.8 9.0 -0.3 4.35 2.1 3.8 1.6 8.3 Z" fill="none" stroke="#8a1010" stroke-linecap="round" stroke-linejoin="round" stroke-width="1.0"/>
  </g>
  <defs>
    <linearGradient gradientTransform="matrix(-0.0103, 0.0, 0.0, -0.0087, -2.45, 6.6)" gradientUnits="userSpaceOnUse" id="gradient0" spreadMethod="pad" x1="-819.2" x2="819.2">
      <stop offset="0.0" stop-color="#f01a1a"/>
      <stop offset="1.0" stop-color="#464646" stop-opacity="0.0"/>
    </linearGradient>
    <linearGradient gradientTransform="matrix(0.0066, 0.0, 0.0, 0.0057, 26.2, 11.15)" gradientUnits="userSpaceOnUse" id="gradient1" spreadMethod="pad" x1="-819.2" x2="819.2">
      <stop offset="0.0" stop-color="#f01a1a"/>
      <stop offset="1.0" stop-color="#464646" stop-opacity="0.0"/>
    </linearGradient>
  </defs>
</svg>
