<?xml version="1.0" encoding="UTF-8" standalone="no"?>
<svg xmlns:ffdec="https://www.free-decompiler.com/flash" xmlns:xlink="http://www.w3.org/1999/xlink" ffdec:objectType="shape" height="34.45px" width="32.65px" xmlns="http://www.w3.org/2000/svg">
  <g transform="matrix(1.0, 0.0, 0.0, 1.0, 12.6, 3.65)">
    <path d="M-6.8 8.45 L-9.6 8.6 -10.05 8.6 -11.35 6.3 -11.35 4.9 -7.0 4.9 -7.0 3.3 -11.35 2.85 -11.35 1.15 -9.9 1.25 -11.35 1.15 -11.35 1.1 -9.9 1.25 -7.0 1.55 -7.0 -0.05 -11.35 -1.2 -10.3 -3.15 -5.45 -3.15 -4.85 -1.95 -4.85 7.3 -5.8 8.45 -6.75 8.45 -6.8 8.45 M5.25 4.85 Q7.3 4.75 9.15 5.85 L10.35 7.25 9.8 7.7 10.05 9.15 10.3 10.65 9.35 12.35 Q8.2 13.15 7.4 13.2 5.75 13.35 4.7 12.55 L3.45 11.3 3.45 10.65 2.85 10.65 2.85 9.95 2.85 8.45 Q2.75 7.05 3.5 6.15 3.95 5.25 5.25 4.85" fill="#333333" fill-rule="evenodd" stroke="none"/>
    <path d="M-4.85 -1.95 L0.5 -1.95 1.0 -0.15 0.95 -0.15 0.35 -0.15 0.35 1.7 0.9 2.35 0.85 3.05 0.8 4.3 -0.55 9.35 -3.55 8.6 -5.3 10.65 -6.75 10.8 -6.8 9.1 -6.8 8.45 -6.75 8.45 -5.8 8.45 -4.85 7.3 -4.85 -1.95 M2.05 25.9 L-4.5 25.9 -5.85 21.55 1.2 23.4 1.2 24.95 1.75 24.95 2.05 25.9 M2.1 18.4 L2.2 20.1 1.2 20.1 1.2 21.05 -5.85 19.35 -4.85 15.35 -0.35 14.5 1.8 15.8 1.85 16.45 0.3 16.45 0.85 18.4 2.1 18.4 M-3.4 0.4 L-3.4 6.3 -1.55 6.3 -1.55 1.3 -3.4 0.4" fill="#3f3f3f" fill-rule="evenodd" stroke="none"/>
    <path d="M13.9 25.65 Q13.8 27.2 12.95 28.2 11.55 29.4 10.3 29.8 L5.1 29.95 Q3.4 29.3 2.45 27.45 L2.05 25.9 1.75 24.95 3.45 24.95 4.85 26.35 11.55 26.35 13.9 25.65" fill="#171717" fill-rule="evenodd" stroke="none"/>
    <path d="M14.6 3.75 L16.7 4.5 17.75 8.15 Q17.75 10.6 17.25 12.9 L15.95 12.55 14.1 10.65 10.05 9.15 9.8 7.7 10.35 7.25 12.75 5.3 14.2 4.1 14.6 3.75" fill="url(#gradient0)" fill-rule="evenodd" stroke="none"/>
    <path d="M17.25 12.9 L17.1 13.4 16.5 15.35 15.75 15.15 11.65 13.9 10.75 13.6 10.3 10.65 10.05 9.15 14.1 10.65 15.95 12.55 17.25 12.9" fill="url(#gradient1)" fill-rule="evenodd" stroke="none"/>
    <path d="M15.75 15.15 Q16.25 17.25 15.65 19.35 L11.05 17.6 10.55 16.0 11.65 13.9 15.75 15.15" fill="url(#gradient2)" fill-rule="evenodd" stroke="none"/>
    <path d="M15.65 19.35 Q16.0 21.1 15.55 22.8 L11.05 20.4 11.05 18.25 11.05 17.6 15.65 19.35" fill="url(#gradient3)" fill-rule="evenodd" stroke="none"/>
    <path d="M1.0 -0.15 Q7.95 0.75 14.6 3.75 L13.95 3.7 14.2 4.1 12.75 5.3 Q9.25 3.85 5.0 3.0 L0.9 2.35 0.35 1.7 0.35 -0.15 0.95 -0.15 1.0 -0.15 M2.85 10.65 L3.45 10.65 3.45 11.3 3.45 12.6 -0.9 12.6 -3.1 12.6 -3.1 10.45 -0.85 10.45 2.85 10.65 M3.45 16.45 L7.0 16.45 7.0 17.4 7.0 18.4 2.1 18.4 0.85 18.4 0.3 16.45 1.85 16.45 3.45 16.45 M2.2 20.1 L7.75 21.15 7.75 24.95 3.45 24.95 1.75 24.95 1.2 24.95 1.2 23.4 1.2 21.05 1.2 20.1 2.2 20.1" fill="#252525" fill-rule="evenodd" stroke="none"/>
    <path d="M15.55 22.8 L14.9 25.0 13.9 25.65 11.55 26.35 4.85 26.35 3.45 24.95 7.75 24.95 7.75 21.15 2.2 20.1 2.1 18.4 7.0 18.4 7.0 17.4 11.05 18.25 11.05 20.4 15.55 22.8 M0.9 2.35 L5.0 3.0 5.25 4.85 Q3.95 5.25 3.5 6.15 2.75 7.05 2.85 8.45 L2.85 9.95 2.85 10.65 -0.85 10.45 -0.55 9.35 0.8 4.3 0.85 3.05 0.9 2.35 M3.45 11.3 L4.7 12.55 3.45 16.45 1.85 16.45 1.8 15.8 -0.35 14.5 -0.9 12.6 3.45 12.6 3.45 11.3" fill="#202020" fill-rule="evenodd" stroke="none"/>
    <path d="M5.0 3.0 Q9.25 3.85 12.75 5.3 L10.35 7.25 9.15 5.85 Q7.3 4.75 5.25 4.85 L5.0 3.0 M4.7 12.55 Q5.75 13.35 7.4 13.2 8.2 13.15 9.35 12.35 L10.3 10.65 10.75 13.6 11.65 13.9 10.55 16.0 11.05 17.6 11.05 18.25 7.0 17.4 7.0 16.45 3.45 16.45 4.7 12.55" fill="#151515" fill-rule="evenodd" stroke="none"/>
    <path d="M-5.85 21.55 L-5.85 19.35 1.2 21.05 1.2 23.4 -5.85 21.55" fill="#2a2a2a" fill-rule="evenodd" stroke="none"/>
    <path d="M-5.85 19.35 L-10.2 19.35 -10.2 17.1 -9.6 16.9 -7.75 16.2 -6.75 14.15 -6.75 10.8 -5.3 10.65 -3.55 8.6 -0.55 9.35 -0.85 10.45 -3.1 10.45 -3.1 12.6 -0.9 12.6 -0.35 14.5 -4.85 15.35 -5.85 19.35" fill="#2e2e2e" fill-rule="evenodd" stroke="none"/>
    <path d="M-11.35 4.9 L-11.95 4.45 -11.95 2.85 -11.35 2.85 -7.0 3.3 -7.0 4.9 -11.35 4.9 M-12.1 1.1 L-12.1 -0.5 -11.35 -1.2 -7.0 -0.05 -7.0 1.55 -9.9 1.25 -11.35 1.1 -12.1 1.1" fill="#1e1e1e" fill-rule="evenodd" stroke="none"/>
    <path d="M-9.6 16.9 L-9.6 9.15 -6.8 9.1 -6.75 10.8 -6.75 14.15 -7.75 16.2 -9.6 16.9 M-3.4 0.4 L-1.55 1.3 -1.55 6.3 -3.4 6.3 -3.4 0.4" fill="#ff3333" fill-rule="evenodd" stroke="none"/>
    <path d="M14.6 3.75 L16.7 4.5 17.75 8.15 Q17.75 10.6 17.25 12.9 L17.1 13.4 16.5 15.35 15.75 15.15 Q16.25 17.25 15.65 19.35 16.0 21.1 15.55 22.8 L11.05 20.4 11.05 18.25 M-5.85 19.35 L-10.2 19.35 M-6.75 8.45 L-6.8 8.45 M12.75 5.3 L14.2 4.1 M10.35 7.25 L12.75 5.3 M9.8 7.7 L10.05 9.15 10.3 10.65 10.75 13.6 11.65 13.9 15.75 15.15 M0.85 3.05 L0.9 2.35 M11.05 17.6 L10.55 16.0 11.65 13.9 M15.65 19.35 L11.05 17.6" fill="none" stroke="#202020" stroke-linecap="round" stroke-linejoin="round" stroke-width="1.0"/>
    <path d="M-4.85 -1.95 L0.5 -1.95 1.0 -0.15 M-10.2 17.1 L-9.6 16.9 M-9.6 8.6 L-10.05 8.6 M-11.35 6.3 L-11.35 4.9 M-11.35 2.85 L-11.35 1.15 -11.35 1.1 -12.1 1.1 M-11.35 -1.2 L-10.3 -3.15 -5.45 -3.15 -4.85 -1.95 -4.85 7.3 M0.95 -0.15 L0.35 -0.15 0.35 1.7 0.9 2.35" fill="none" stroke="#201e1e" stroke-linecap="round" stroke-linejoin="round" stroke-width="1.0"/>
    <path d="M-11.35 4.9 L-11.95 4.45 -11.95 2.85 -11.35 2.85 -7.0 3.3 -7.0 4.9 -11.35 4.9 M-11.35 1.15 L-12.1 1.1 -12.1 -0.5 -11.35 -1.2 -7.0 -0.05 -7.0 1.55 -9.9 1.25 -11.35 1.15 M-11.35 1.1 L-9.9 1.25" fill="none" stroke="#0e0d0d" stroke-linecap="round" stroke-linejoin="round" stroke-width="1.0"/>
    <path d="M-9.6 16.9 L-9.6 9.15 -6.8 9.1 -6.75 10.8 -6.75 14.15 -7.75 16.2 -9.6 16.9 M-3.4 0.4 L-3.4 6.3 -1.55 6.3 -1.55 1.3 -3.4 0.4" fill="none" stroke="#580000" stroke-linecap="round" stroke-linejoin="round" stroke-width="1.0"/>
    <path d="M1.0 -0.15 Q7.95 0.75 14.6 3.75 L14.2 4.1 13.95 3.7 14.6 3.75 M15.55 22.8 L14.9 25.0 13.9 25.65 Q13.8 27.2 12.95 28.2 11.55 29.4 10.3 29.8 L5.1 29.95 Q3.4 29.3 2.45 27.45 L2.05 25.9 1.75 24.95 M1.0 -0.15 L0.95 -0.15 M0.9 2.35 L5.0 3.0 Q9.25 3.85 12.75 5.3 M5.25 4.85 Q7.3 4.75 9.15 5.85 L10.35 7.25 9.8 7.7 M2.85 9.95 L2.85 8.45 Q2.75 7.05 3.5 6.15 3.95 5.25 5.25 4.85 L5.0 3.0 M2.85 10.65 L3.45 10.65 3.45 11.3 4.7 12.55 Q5.75 13.35 7.4 13.2 8.2 13.15 9.35 12.35 L10.3 10.65 M7.0 17.4 L11.05 18.25 11.05 17.6 M2.1 18.4 L2.2 20.1 M3.45 24.95 L4.85 26.35 11.55 26.35 13.9 25.65 M1.8 15.8 L1.85 16.45 M3.45 16.45 L4.7 12.55 M-0.9 12.6 L-3.1 12.6 -3.1 10.45 -0.85 10.45 2.85 10.65 M3.45 11.3 L3.45 12.6 -0.9 12.6" fill="none" stroke="#090909" stroke-linecap="round" stroke-linejoin="round" stroke-width="1.0"/>
    <path d="M2.05 25.9 L-4.5 25.9 -5.85 21.55 M10.05 9.15 L14.1 10.65 15.95 12.55 17.25 12.9 M-5.85 19.35 L-4.85 15.35 -0.35 14.5 1.8 15.8" fill="none" stroke="#272727" stroke-linecap="round" stroke-linejoin="round" stroke-width="1.0"/>
    <path d="M-5.85 21.55 L-5.85 19.35 1.2 21.05 M-0.55 9.35 L0.8 4.3 0.85 3.05 M-0.35 14.5 L-0.9 12.6 M-0.85 10.45 L-0.55 9.35 M1.2 23.4 L-5.85 21.55" fill="none" stroke="#171717" stroke-linecap="round" stroke-linejoin="round" stroke-width="1.0"/>
    <path d="M-10.2 19.35 L-10.2 17.1 M-6.8 8.45 L-9.6 8.6 M-10.05 8.6 L-11.35 6.3 M-4.85 7.3 L-5.8 8.45 -6.75 8.45 M3.45 16.45 L7.0 16.45 7.0 17.4 7.0 18.4 2.1 18.4 0.85 18.4 0.3 16.45 1.85 16.45 3.45 16.45 M2.2 20.1 L7.75 21.15 7.75 24.95 3.45 24.95 1.75 24.95 1.2 24.95 1.2 23.4 1.2 21.05 1.2 20.1 2.2 20.1 Z" fill="none" stroke="#101010" stroke-linecap="round" stroke-linejoin="round" stroke-width="1.0"/>
    <path d="M10.05 9.15 L14.1 10.65 15.95 12.55 17.25 12.9" fill="none" stroke="#313131" stroke-linecap="round" stroke-linejoin="round" stroke-width="1.0"/>
    <path d="M3.45 11.3 L3.45 12.6 -3.1 12.6 -3.1 10.45 3.45 10.65" fill="none" stroke="#090909" stroke-linecap="round" stroke-linejoin="round" stroke-width="1.0"/>
    <path d="M14.2 4.1 L10.35 7.25 M9.8 7.7 L10.75 13.6 11.65 13.9 15.75 15.15 16.5 15.35 17.25 12.9 Q17.75 10.6 17.75 8.15 L16.7 4.5 14.6 3.75 M11.65 13.9 L10.55 16.0 11.05 17.6 15.65 19.35 Q16.25 17.25 15.75 15.15 M11.05 18.25 L11.05 20.4 15.55 22.8 Q16.0 21.1 15.65 19.35" fill="none" stroke="#202020" stroke-linecap="round" stroke-linejoin="round" stroke-width="1.0"/>
    <path d="M16.0 10.55 L15.5 9.3 15.5 8.1 18.6 6.75 19.55 7.45 19.55 11.85 19.2 11.85 19.05 14.6 15.95 14.6 16.0 10.55 16.45 11.85 19.2 11.85 16.45 11.85 16.0 10.55 M7.25 24.4 L7.25 22.35 7.0 22.35 7.0 18.8 8.45 18.55 8.7 18.5 11.1 18.8 Q13.2 18.1 14.75 18.8 L14.75 22.35 14.4 22.35 14.4 24.4 11.3 24.4 11.3 22.35 11.1 22.35 10.7 22.35 10.7 24.4 7.25 24.4 M7.25 22.35 L8.45 22.7 8.7 22.7 10.7 22.35 8.7 22.7 8.45 22.7 7.25 22.35 M15.1 22.35 L14.95 22.4 14.95 18.85 Q16.45 18.1 17.95 18.25 L17.95 21.85 17.6 21.9 17.6 23.9 15.1 24.4 15.1 22.35 Q16.2 22.85 17.6 21.9 16.2 22.85 15.1 22.35 M11.1 22.35 L11.1 18.8 11.1 22.35 M11.3 22.35 Q12.65 23.05 14.4 22.35 12.65 23.05 11.3 22.35" fill="#2a2a2a" fill-rule="evenodd" stroke="none"/>
    <path d="M16.0 10.55 L15.5 9.3 15.5 8.1 18.6 6.75 19.55 7.45 19.55 11.85 19.2 11.85 19.05 14.6 15.95 14.6 16.0 10.55 16.45 11.85 19.2 11.85 M7.25 24.4 L7.25 22.35 7.0 22.35 7.0 18.8 8.45 18.55 8.7 18.5 11.1 18.8 Q13.2 18.1 14.75 18.8 L14.75 22.35 14.4 22.35 14.4 24.4 11.3 24.4 11.3 22.35 11.1 22.35 10.7 22.35 10.7 24.4 7.25 24.4 M10.7 22.35 L8.7 22.7 8.45 22.7 7.25 22.35 M15.1 22.35 L14.95 22.4 14.95 18.85 Q16.45 18.1 17.95 18.25 L17.95 21.85 17.6 21.9 17.6 23.9 15.1 24.4 15.1 22.35 Q16.2 22.85 17.6 21.9 M14.4 22.35 Q12.65 23.05 11.3 22.35 M11.1 18.8 L11.1 22.35" fill="none" stroke="#1e1e1e" stroke-linecap="round" stroke-linejoin="round" stroke-width="1.0"/>
  </g>
  <defs>
    <radialGradient cx="0" cy="0" gradientTransform="matrix(0.007, 0.0, 0.0, 0.007, 18.8, 7.5)" gradientUnits="userSpaceOnUse" id="gradient0" r="819.2" spreadMethod="pad">
      <stop offset="0.0" stop-color="#4f4f4f"/>
      <stop offset="1.0" stop-color="#3c3c3c"/>
    </radialGradient>
    <radialGradient cx="0" cy="0" gradientTransform="matrix(0.0058, 0.0, 0.0, 0.0058, 16.65, 12.95)" gradientUnits="userSpaceOnUse" id="gradient1" r="819.2" spreadMethod="pad">
      <stop offset="0.0" stop-color="#4f4f4f"/>
      <stop offset="1.0" stop-color="#3c3c3c"/>
    </radialGradient>
    <radialGradient cx="0" cy="0" gradientTransform="matrix(0.0044, 0.0, 0.0, 0.0044, 16.6, 16.0)" gradientUnits="userSpaceOnUse" id="gradient2" r="819.2" spreadMethod="pad">
      <stop offset="0.0" stop-color="#4f4f4f"/>
      <stop offset="1.0" stop-color="#3c3c3c"/>
    </radialGradient>
    <radialGradient cx="0" cy="0" gradientTransform="matrix(0.0043, 0.0, 0.0, 0.0043, 15.7, 20.2)" gradientUnits="userSpaceOnUse" id="gradient3" r="819.2" spreadMethod="pad">
      <stop offset="0.0" stop-color="#4f4f4f"/>
      <stop offset="1.0" stop-color="#3c3c3c"/>
    </radialGradient>
  </defs>
</svg>
