<?xml version="1.0" encoding="UTF-8" standalone="no"?>
<svg xmlns:ffdec="https://www.free-decompiler.com/flash" xmlns:xlink="http://www.w3.org/1999/xlink" ffdec:objectType="shape" height="13.0px" width="14.9px" xmlns="http://www.w3.org/2000/svg">
  <g transform="matrix(1.0, 0.0, 0.0, 1.0, 7.5, 5.25)">
    <path d="M2.95 -2.45 L4.95 -2.85 5.75 -2.3 6.25 2.35 4.3 6.45 0.5 7.35 -5.1 5.55 Q-5.7 4.25 -6.1 2.05 -6.55 -0.55 -6.2 -2.25 L2.95 -2.45" fill="#0d1012" fill-rule="evenodd" stroke="none"/>
    <path d="M2.95 -2.45 L4.95 -2.85 5.75 -2.3 6.25 2.35 4.3 6.45 0.5 7.35 -5.1 5.55 Q-5.7 4.25 -6.1 2.05 -6.55 -0.55 -6.2 -2.25" ffdec:has-small-stroke="true" ffdec:original-stroke-width="0.8" fill="none" stroke="#000000" stroke-linecap="round" stroke-linejoin="round" stroke-width="1.0"/>
    <path d="M-4.85 -1.8 L-3.95 -2.3 -0.55 -1.7 Q-0.15 -1.2 0.7 0.9 L0.2 4.6 -2.75 4.4 -5.1 0.9 -4.85 -1.8" fill="#0d1012" fill-rule="evenodd" stroke="none"/>
    <path d="M-4.85 -1.8 L-3.95 -2.3 -0.55 -1.7 Q-0.15 -1.2 0.7 0.9 L0.2 4.6 -2.75 4.4 -5.1 0.9 -4.85 -1.8 Z" ffdec:has-small-stroke="true" ffdec:original-stroke-width="0.8" fill="none" stroke="#000000" stroke-linecap="round" stroke-linejoin="round" stroke-width="1.0"/>
    <path d="M3.3 -3.3 L3.8 -3.7 4.2 -4.55 7.0 -4.3 6.95 -0.3 6.65 0.1 4.35 0.2 4.4 -0.35 3.45 -0.65 3.2 -1.65 3.3 -3.3" fill="#0d1012" fill-rule="evenodd" stroke="none"/>
    <path d="M3.3 -3.3 L3.8 -3.7 4.2 -4.55 7.0 -4.3 6.95 -0.3 6.65 0.1 4.35 0.2 4.4 -0.35 3.45 -0.65 3.2 -1.65 3.3 -3.3 Z" ffdec:has-small-stroke="true" ffdec:original-stroke-width="0.8" fill="none" stroke="#000000" stroke-linecap="round" stroke-linejoin="round" stroke-width="1.0"/>
    <path d="M-6.35 -2.3 L-7.1 -3.45 -5.75 -4.85 3.8 -3.6 4.2 -2.15 4.15 -1.5 -4.65 -1.7 -4.8 -2.05 -6.35 -2.3" fill="#0d1012" fill-rule="evenodd" stroke="none"/>
    <path d="M-6.35 -2.3 L-7.1 -3.45 -5.75 -4.85 3.8 -3.6 4.2 -2.15 4.15 -1.5 -4.65 -1.7 -4.8 -2.05 -6.35 -2.3 Z" ffdec:has-small-stroke="true" ffdec:original-stroke-width="0.8" fill="none" stroke="#000000" stroke-linecap="round" stroke-linejoin="round" stroke-width="1.0"/>
  </g>
</svg>
