<?xml version="1.0" encoding="UTF-8" standalone="no"?>
<svg xmlns:xlink="http://www.w3.org/1999/xlink" height="27.7px" width="73.2px" xmlns="http://www.w3.org/2000/svg">
  <g transform="matrix(1.0, 0.0, 0.0, 1.0, 50.4, 7.4)">
    <path d="M-38.35 1.3 L-48.4 1.3 -48.4 -2.3 -38.35 -2.3 -38.35 1.3" fill="#242424" fill-rule="evenodd" stroke="none"/>
    <path d="M-39.3 -1.4 L-49.9 -1.4 -49.9 -5.35 -39.3 -5.35 -39.3 -1.4" fill="#4a4b4d" fill-rule="evenodd" stroke="none"/>
    <path d="M-39.3 -1.4 L-49.9 -1.4 -49.9 -5.35 -39.3 -5.35 -39.3 -1.4 Z" fill="none" stroke="#2d2f33" stroke-linecap="round" stroke-linejoin="round" stroke-width="1.0"/>
    <path d="M-39.3 4.35 L-49.9 4.35 -49.9 0.35 -39.3 0.35 -39.3 4.35" fill="#4a4b4d" fill-rule="evenodd" stroke="none"/>
    <path d="M-39.3 4.35 L-49.9 4.35 -49.9 0.35 -39.3 0.35 -39.3 4.35 Z" fill="none" stroke="#2d2f33" stroke-linecap="round" stroke-linejoin="round" stroke-width="1.0"/>
    <path d="M1.75 11.1 L-1.5 11.1 -1.5 6.95 1.75 6.95 1.75 11.1" fill="#3b3b3c" fill-rule="evenodd" stroke="none"/>
    <path d="M1.75 11.1 L-1.5 11.1 -1.5 6.95 1.75 6.95 1.75 11.1 Z" fill="none" stroke="#252527" stroke-linecap="round" stroke-linejoin="round" stroke-width="1.0"/>
    <path d="M16.9 18.4 L11.8 18.4 11.8 17.0 16.9 17.0 16.9 18.4" fill="#3b3b3c" fill-rule="evenodd" stroke="none"/>
    <path d="M16.9 18.4 L11.8 18.4 11.8 17.0 16.9 17.0 16.9 18.4 Z" fill="none" stroke="#252527" stroke-linecap="round" stroke-linejoin="round" stroke-width="1.0"/>
    <path d="M16.9 9.15 L11.8 9.15 11.8 7.75 16.9 7.75 16.9 9.15" fill="#3b3b3c" fill-rule="evenodd" stroke="none"/>
    <path d="M16.9 9.15 L11.8 9.15 11.8 7.75 16.9 7.75 16.9 9.15 Z" fill="none" stroke="#252527" stroke-linecap="round" stroke-linejoin="round" stroke-width="1.0"/>
    <path d="M-8.05 7.5 L-10.1 7.45 -10.1 5.1 12.25 5.1 12.25 19.05 8.9 19.05 Q9.15 8.95 8.9 7.95 8.7 7.35 7.75 7.1 L6.85 6.95 1.75 6.95 -0.9 8.5 -0.9 16.95 Q-2.75 16.95 -4.1 16.15 L-5.1 15.35 Q-3.95 9.95 -5.1 8.6 -5.8 7.75 -8.05 7.5" fill="#6a6a6a" fill-rule="evenodd" stroke="none"/>
    <path d="M-8.05 7.5 L-10.1 7.45 -10.1 5.1 12.25 5.1 12.25 19.05 8.9 19.05 Q9.15 8.95 8.9 7.95 8.7 7.35 7.75 7.1 L6.85 6.95 1.75 6.95 -0.9 8.5 -0.9 16.95 Q-2.75 16.95 -4.1 16.15 L-5.1 15.35 Q-3.95 9.95 -5.1 8.6 -5.8 7.75 -8.05 7.5 Z" fill="none" stroke="#353536" stroke-linecap="round" stroke-linejoin="round" stroke-width="1.0"/>
    <path d="M12.25 17.0 L9.0 17.0 9.0 9.15 12.25 9.15 12.25 17.0" fill="#4a4b4d" fill-rule="evenodd" stroke="none"/>
    <path d="M12.25 17.0 L9.0 17.0 9.0 9.15 12.25 9.15 12.25 17.0 Z" fill="none" stroke="#2d2f33" stroke-linecap="round" stroke-linejoin="round" stroke-width="1.0"/>
    <path d="M19.45 1.3 L-23.65 1.3 -23.65 -3.05 19.45 -3.05 19.45 1.3" fill="#242424" fill-rule="evenodd" stroke="none"/>
    <path d="M22.3 -1.4 L-34.0 -1.4 -34.0 -5.35 22.3 -5.35 22.3 -1.4" fill="#a3a3a3" fill-rule="evenodd" stroke="none"/>
    <path d="M22.3 -1.4 L-34.0 -1.4 -34.0 -5.35 22.3 -5.35 22.3 -1.4 Z" fill="none" stroke="#353536" stroke-linecap="round" stroke-linejoin="round" stroke-width="1.0"/>
    <path d="M22.3 4.05 L-34.0 4.05 -34.0 0.05 22.3 0.05 22.3 4.05" fill="#a3a3a3" fill-rule="evenodd" stroke="none"/>
    <path d="M22.3 4.05 L-34.0 4.05 -34.0 0.05 22.3 0.05 22.3 4.05 Z" fill="none" stroke="#353536" stroke-linecap="round" stroke-linejoin="round" stroke-width="1.0"/>
    <path d="M20.7 -6.85 L20.7 5.9 -10.55 5.75 -14.0 4.45 -31.4 4.9 -35.2 5.9 -39.3 5.9 -39.3 -6.85 -35.2 -6.85 -31.3 -6.1 -10.65 -5.8 -7.3 -6.85 2.75 -6.85 2.75 1.3 4.65 2.95 15.75 2.85 18.15 1.0 18.15 -6.85 20.7 -6.85" fill="#535352" fill-rule="evenodd" stroke="none"/>
    <path d="M20.7 -6.85 L20.7 5.9 -10.55 5.75 -14.0 4.45 -31.4 4.9 -35.2 5.9 -39.3 5.9 -39.3 -6.85 -35.2 -6.85 -31.3 -6.1 -10.65 -5.8 -7.3 -6.85 2.75 -6.85 2.75 1.3 4.65 2.95 15.75 2.85 18.15 1.0 18.15 -6.85 20.7 -6.85 Z" fill="none" stroke="#343434" stroke-linecap="round" stroke-linejoin="round" stroke-width="1.0"/>
    <path d="M-35.15 5.95 L-39.3 5.95 -39.3 -6.9 -35.15 -6.9 -35.15 5.95" fill="#37383a" fill-rule="evenodd" stroke="none"/>
    <path d="M-35.15 5.95 L-39.3 5.95 -39.3 -6.9 -35.15 -6.9 -35.15 5.95 Z" fill="none" stroke="#222324" stroke-linecap="round" stroke-linejoin="round" stroke-width="1.0"/>
    <path d="M0.85 -4.4 L0.85 -2.3" fill="none" stroke="#2d2f33" stroke-linecap="round" stroke-linejoin="round" stroke-width="1.0"/>
    <path d="M-0.7 -4.4 L-0.7 -2.3" fill="none" stroke="#2d2f33" stroke-linecap="round" stroke-linejoin="round" stroke-width="1.0"/>
    <path d="M-2.1 -4.4 L-2.1 -2.3" fill="none" stroke="#2d2f33" stroke-linecap="round" stroke-linejoin="round" stroke-width="1.0"/>
    <path d="M0.8 1.3 L0.8 3.4" fill="none" stroke="#2d2f33" stroke-linecap="round" stroke-linejoin="round" stroke-width="1.0"/>
    <path d="M-0.75 1.3 L-0.75 3.4" fill="none" stroke="#2d2f33" stroke-linecap="round" stroke-linejoin="round" stroke-width="1.0"/>
    <path d="M-2.15 1.3 L-2.15 3.4" fill="none" stroke="#2d2f33" stroke-linecap="round" stroke-linejoin="round" stroke-width="1.0"/>
    <path d="M-31.4 4.9 L-31.4 1.85 -30.3 0.6 -26.75 0.6 -26.75 4.9 -28.1 5.5 -30.45 5.5 -31.4 4.9" fill="#a3a3a3" fill-rule="evenodd" stroke="none"/>
    <path d="M-31.4 4.9 L-31.4 1.85 -30.3 0.6 -26.75 0.6 -26.75 4.9 -28.1 5.5 -30.45 5.5 -31.4 4.9 Z" fill="none" stroke="#353536" stroke-linecap="round" stroke-linejoin="round" stroke-width="1.0"/>
    <path d="M-18.65 4.55 L-18.65 1.45 -17.55 0.25 -14.0 0.25 -14.0 4.55 -15.35 5.15 -17.7 5.15 -18.65 4.55" fill="#a3a3a3" fill-rule="evenodd" stroke="none"/>
    <path d="M-18.65 4.55 L-18.65 1.45 -17.55 0.25 -14.0 0.25 -14.0 4.55 -15.35 5.15 -17.7 5.15 -18.65 4.55 Z" fill="none" stroke="#353536" stroke-linecap="round" stroke-linejoin="round" stroke-width="1.0"/>
    <path d="M-25.2 3.0 L-25.45 2.4 -25.45 2.25 -25.2 1.7 Q-25.0 1.45 -24.65 1.45 L-20.75 1.45 Q-20.4 1.45 -20.15 1.7 L-19.9 2.25 -19.9 2.4 -20.15 3.0 -20.75 3.25 -24.65 3.25 -25.2 3.0" fill="#7bbc61" fill-rule="evenodd" stroke="none"/>
    <path d="M-25.2 3.0 L-25.45 2.4 -25.45 2.25 -25.2 1.7 Q-25.0 1.45 -24.65 1.45 L-20.75 1.45 Q-20.4 1.45 -20.15 1.7 L-19.9 2.25 -19.9 2.4 -20.15 3.0 -20.75 3.25 -24.65 3.25 -25.2 3.0 Z" fill="none" stroke="#353536" stroke-linecap="butt" stroke-linejoin="miter-clip" stroke-miterlimit="10.0" stroke-width="1.0"/>
    <path d="M-10.6 -3.35 L-31.3 -3.35 -31.3 -6.1 -10.6 -6.85 -10.6 -3.35" fill="#4a4b4d" fill-rule="evenodd" stroke="none"/>
    <path d="M-10.6 -3.35 L-31.3 -3.35 -31.3 -6.1 -10.6 -6.85 -10.6 -3.35 Z" fill="none" stroke="#2d2f33" stroke-linecap="round" stroke-linejoin="round" stroke-width="1.0"/>
    <path d="M-6.35 -2.8 L-7.0 -3.05 -7.25 -3.7 -7.0 -4.35 -6.35 -4.6 -5.7 -4.35 -5.45 -3.7 Q-5.45 -3.3 -5.7 -3.05 -5.95 -2.8 -6.35 -2.8" fill="#535352" fill-rule="evenodd" stroke="none"/>
    <path d="M-6.35 -2.8 L-7.0 -3.05 -7.25 -3.7 -7.0 -4.35 -6.35 -4.6 -5.7 -4.35 -5.45 -3.7 Q-5.45 -3.3 -5.7 -3.05 -5.95 -2.8 -6.35 -2.8 Z" fill="none" stroke="#343434" stroke-linecap="round" stroke-linejoin="round" stroke-width="1.0"/>
    <path d="M-6.35 3.4 L-7.0 3.15 -7.25 2.5 -7.0 1.85 -6.35 1.6 Q-5.95 1.6 -5.7 1.85 L-5.45 2.5 -5.7 3.15 -6.35 3.4" fill="#535352" fill-rule="evenodd" stroke="none"/>
    <path d="M-6.35 3.4 L-7.0 3.15 -7.25 2.5 -7.0 1.85 -6.35 1.6 Q-5.95 1.6 -5.7 1.85 L-5.45 2.5 -5.7 3.15 -6.35 3.4 Z" fill="none" stroke="#343434" stroke-linecap="round" stroke-linejoin="round" stroke-width="1.0"/>
    <path d="M-5.45 -0.6 L-7.25 -1.3 -5.45 -1.85 -5.45 -0.6 -5.45 0.6 -7.25 0.15 -5.45 -0.6" fill="#535352" fill-rule="evenodd" stroke="none"/>
    <path d="M-5.45 -1.85 L-7.25 -1.3 -5.45 -0.6 -7.25 0.15 -5.45 0.6" fill="none" stroke="#343434" stroke-linecap="round" stroke-linejoin="round" stroke-width="1.0"/>
    <path d="M-35.15 7.95 L-33.35 9.75 -33.35 17.0 -35.15 18.4 -35.15 7.95" fill="#535352" fill-rule="evenodd" stroke="none"/>
    <path d="M-35.15 7.95 L-33.35 9.75 -33.35 17.0 -35.15 18.4" fill="none" stroke="#343434" stroke-linecap="round" stroke-linejoin="round" stroke-width="1.0"/>
    <path d="M-35.15 6.95 L-35.15 19.8 -39.3 19.8 -39.3 6.95 -35.15 6.95" fill="#37383a" fill-rule="evenodd" stroke="none"/>
    <path d="M-35.15 6.95 L-35.15 19.8 -39.3 19.8 -39.3 6.95 -35.15 6.95 Z" fill="none" stroke="#222324" stroke-linecap="round" stroke-linejoin="round" stroke-width="1.0"/>
    <path d="M20.7 6.95 L20.7 19.8 16.6 19.8 16.6 6.95 20.7 6.95" fill="#37383a" fill-rule="evenodd" stroke="none"/>
    <path d="M20.7 6.95 L20.7 19.8 16.6 19.8 16.6 6.95 20.7 6.95 Z" fill="none" stroke="#222324" stroke-linecap="round" stroke-linejoin="round" stroke-width="1.0"/>
    <path d="M-37.1 6.45 Q-37.1 7.25 -37.7 7.85 -38.3 8.45 -39.15 8.45 -40.0 8.45 -40.6 7.85 -41.2 7.25 -41.2 6.45 -41.2 5.6 -40.6 5.0 -40.0 4.4 -39.15 4.4 -38.3 4.4 -37.7 5.0 -37.1 5.6 -37.1 6.45" fill="#979898" fill-rule="evenodd" stroke="none"/>
    <path d="M-37.1 6.45 Q-37.1 7.25 -37.7 7.85 -38.3 8.45 -39.15 8.45 -40.0 8.45 -40.6 7.85 -41.2 7.25 -41.2 6.45 -41.2 5.6 -40.6 5.0 -40.0 4.4 -39.15 4.4 -38.3 4.4 -37.7 5.0 -37.1 5.6 -37.1 6.45 Z" fill="none" stroke="#595c60" stroke-linecap="round" stroke-linejoin="round" stroke-width="1.0"/>
    <path d="M-40.7 5.1 L-37.6 7.75" fill="none" stroke="#595c60" stroke-linecap="round" stroke-linejoin="round" stroke-width="1.0"/>
    <path d="M21.6 5.9 Q21.6 6.75 21.0 7.35 20.4 7.95 19.55 7.95 18.7 7.95 18.15 7.35 17.55 6.75 17.55 5.9 17.55 5.1 18.15 4.5 18.75 3.9 19.55 3.9 20.4 3.9 21.0 4.5 21.6 5.05 21.6 5.9" fill="#979898" fill-rule="evenodd" stroke="none"/>
    <path d="M21.6 5.9 Q21.6 6.75 21.0 7.35 20.4 7.95 19.55 7.95 18.7 7.95 18.15 7.35 17.55 6.75 17.55 5.9 17.55 5.1 18.15 4.5 18.75 3.9 19.55 3.9 20.4 3.9 21.0 4.5 21.6 5.05 21.6 5.9 Z" fill="none" stroke="#595c60" stroke-linecap="round" stroke-linejoin="round" stroke-width="1.0"/>
    <path d="M20.35 4.05 L18.75 7.75" fill="none" stroke="#595c60" stroke-linecap="round" stroke-linejoin="round" stroke-width="1.0"/>
  </g>
</svg>
