<?xml version="1.0" encoding="UTF-8" standalone="no"?>
<svg xmlns:ffdec="https://www.free-decompiler.com/flash" xmlns:xlink="http://www.w3.org/1999/xlink" ffdec:objectType="shape" height="34.15px" width="25.05px" xmlns="http://www.w3.org/2000/svg">
  <g transform="matrix(1.0, 0.0, 0.0, 1.0, 2.2, 1.2)">
    <path d="M12.4 0.75 L11.2 4.45 5.7 2.55 7.05 0.0 12.4 0.75 M6.6 24.25 L11.25 25.55 15.95 25.55 15.95 22.6 18.2 22.6 18.2 27.4 11.45 27.4 6.05 25.9 6.6 24.25" fill="#696969" fill-rule="evenodd" stroke="none"/>
    <path d="M12.4 0.75 L15.9 1.25 15.2 3.2 11.2 4.45 12.4 0.75 M6.6 24.25 L7.1 22.6 15.95 22.6 15.95 25.55 11.25 25.55 6.6 24.25" fill="#313131" fill-rule="evenodd" stroke="none"/>
    <path d="M11.2 4.45 L15.2 3.2 15.9 1.25 12.4 0.75 11.2 4.45 5.7 2.55 7.05 0.0 12.4 0.75 M15.95 22.6 L7.1 22.6 6.6 24.25 6.05 25.9 11.45 27.4 18.2 27.4 18.2 22.6 15.95 22.6 Z" fill="none" stroke="#252525" stroke-linecap="round" stroke-linejoin="round" stroke-width="1.0"/>
    <path d="M12.2 7.1 L12.2 8.35 13.85 9.65 14.1 13.2 Q12.65 14.85 10.55 14.5 L7.7 13.7 Q6.9 12.8 6.8 10.6 6.8 8.7 8.05 7.35 L12.2 7.1" fill="#2e2e2e" fill-rule="evenodd" stroke="none"/>
    <path d="M20.2 19.9 L20.0 20.95 18.65 23.75 9.95 23.75 11.6 20.75 14.55 20.75 15.05 19.1 15.55 17.45 20.2 19.9 M7.6 2.55 L15.2 3.2 Q17.5 4.35 17.8 5.85 L14.45 5.7 12.2 5.8 Q11.5 4.2 8.95 3.1 L7.6 2.55" fill="#545454" fill-rule="evenodd" stroke="none"/>
    <path d="M12.2 5.8 L8.95 3.1 Q11.5 4.2 12.2 5.8" fill="#202020" fill-rule="evenodd" stroke="none"/>
    <path d="M22.0 11.65 L22.25 13.45 16.15 12.5 16.15 14.55 22.35 15.25 22.2 17.0 Q21.65 18.6 20.2 19.9 L15.55 17.45 14.35 16.8 14.1 13.2 13.85 9.65 12.2 8.35 12.2 7.1 12.2 5.8 14.45 5.7 17.8 5.85 19.15 6.0 Q20.9 7.8 21.5 9.5 L15.5 8.65 16.05 10.7 22.0 11.65" fill="#707070" fill-rule="evenodd" stroke="none"/>
    <path d="M21.5 9.5 L22.0 11.65 16.05 10.7 15.5 8.65 21.5 9.5 M22.25 13.45 L22.35 15.25 16.15 14.55 16.15 12.5 22.25 13.45" fill="#4d4d4d" fill-rule="evenodd" stroke="none"/>
    <path d="M6.05 20.0 L5.4 19.95 4.8 18.35 5.6 18.4 7.95 18.55 4.9 14.55 4.9 14.45 4.95 13.05 5.0 11.85 4.35 10.85 4.65 10.85 4.7 10.85 6.4 7.55 5.7 2.55 7.6 2.55 8.95 3.1 12.2 5.8 12.2 7.1 8.05 7.35 Q6.8 8.7 6.8 10.6 6.9 12.8 7.7 13.7 L10.55 14.5 Q12.65 14.85 14.1 13.2 L14.35 16.8 15.55 17.45 15.05 19.1 14.55 20.75 6.05 20.0 M8.25 18.6 L8.55 18.6 9.15 18.65 10.3 18.75 15.05 19.1 10.3 18.75 9.15 18.65 8.55 18.6 8.25 18.6" fill="#464646" fill-rule="evenodd" stroke="none"/>
    <path d="M9.95 23.75 L7.2 23.5 Q6.55 21.85 6.05 20.0 L14.55 20.75 11.6 20.75 9.95 23.75 M5.6 18.4 L4.9 14.55 7.95 18.55 5.6 18.4 M4.9 14.45 L3.3 3.9 5.05 2.55 5.7 2.55 6.4 7.55 4.7 10.85 4.65 10.85 4.35 10.85 4.95 13.05 4.9 14.45" fill="#3f3f3f" fill-rule="evenodd" stroke="none"/>
    <path d="M12.2 5.8 L8.95 3.1" fill="none" stroke="#2a2a2a" stroke-linecap="round" stroke-linejoin="round" stroke-width="1.2000000000000002"/>
    <path d="M21.5 9.5 L22.0 11.65 22.25 13.45 22.35 15.25 22.2 17.0 Q21.65 18.6 20.2 19.9 L20.0 20.95 18.65 23.75 9.95 23.75 7.2 23.5 Q6.55 21.85 6.05 20.0 L5.4 19.95 4.8 18.35 5.6 18.4 4.9 14.55 M4.9 14.45 L3.3 3.9 5.05 2.55 5.7 2.55 7.6 2.55 15.2 3.2 Q17.5 4.35 17.8 5.85 L19.15 6.0 Q20.9 7.8 21.5 9.5 L15.5 8.65 16.05 10.7 22.0 11.65 M12.2 5.8 L12.2 7.1 12.2 8.35 13.85 9.65 14.1 13.2 14.35 16.8 15.55 17.45 20.2 19.9 M17.8 5.85 L14.45 5.7 12.2 5.8 M12.2 7.1 L8.05 7.35 Q6.8 8.7 6.8 10.6 6.9 12.8 7.7 13.7 L10.55 14.5 Q12.65 14.85 14.1 13.2 M7.95 18.55 L5.6 18.4 M15.05 19.1 L10.3 18.75 9.15 18.65 8.55 18.6 8.25 18.6 M22.35 15.25 L16.15 14.55 16.15 12.5 22.25 13.45 M14.55 20.75 L11.6 20.75 9.95 23.75 M15.55 17.45 L15.05 19.1 14.55 20.75 6.05 20.0" fill="none" stroke="#252525" stroke-linecap="round" stroke-linejoin="round" stroke-width="1.0"/>
    <path d="M18.25 8.2 L21.75 8.9 22.25 10.5 18.6 9.95 19.2 12.95 18.55 12.95 19.2 20.5 17.5 23.75 15.95 23.5 17.7 20.45 17.1 12.95 16.15 13.0 14.75 5.65 15.5 5.65 13.0 2.95 15.2 3.2 17.6 5.65 17.8 5.85 18.25 8.2 18.6 9.95 18.25 8.2 M18.55 12.95 L17.1 12.95 18.55 12.95 M15.5 5.65 L17.6 5.65 15.5 5.65" fill="#313131" fill-rule="evenodd" stroke="none"/>
    <path d="M18.25 8.2 L21.75 8.9 22.25 10.5 18.6 9.95 19.2 12.95 18.55 12.95 19.2 20.5 17.5 23.75 15.95 23.5 17.7 20.45 17.1 12.95 16.15 13.0 14.75 5.65 15.5 5.65 13.0 2.95 15.2 3.2 17.6 5.65 17.8 5.85 18.25 8.2 18.6 9.95 M17.6 5.65 L15.5 5.65 M17.1 12.95 L18.55 12.95" fill="none" stroke="#151515" stroke-linecap="round" stroke-linejoin="round" stroke-width="1.0"/>
    <path d="M16.55 7.7 L16.3 7.8 14.6 7.55 Q14.35 7.1 14.7 6.65 L16.35 6.85 16.65 7.0 16.55 7.7 16.65 7.0 16.95 7.05 16.95 7.1 17.15 7.1 17.2 7.15 17.15 7.2 17.05 7.15 17.0 7.55 17.15 7.65 17.05 7.7 16.85 7.75 16.55 7.7 M16.95 8.85 L16.65 8.95 15.0 8.7 Q14.75 8.3 15.1 7.8 L16.75 8.0 17.0 8.15 16.95 8.85 17.0 8.15 17.3 8.2 17.3 8.25 17.5 8.25 17.55 8.3 17.5 8.35 17.4 8.35 17.35 8.75 17.5 8.8 17.45 8.85 17.25 8.9 16.95 8.85 M17.15 10.0 L16.9 10.15 15.2 9.9 Q14.95 9.45 15.3 9.0 L16.95 9.2 17.25 9.3 17.15 10.0 17.25 9.3 17.55 9.4 17.55 9.45 17.75 9.45 17.8 9.5 17.7 9.55 17.6 9.5 17.6 9.9 17.7 10.0 17.65 10.05 17.45 10.1 17.15 10.0 M17.6 11.2 L17.3 11.3 15.65 11.05 Q15.35 10.65 15.75 10.15 L17.4 10.35 17.65 10.5 17.6 11.2 17.65 10.5 17.95 10.55 17.95 10.6 18.15 10.6 18.2 10.65 18.15 10.7 18.05 10.7 18.0 11.1 18.15 11.15 18.1 11.2 17.9 11.25 17.6 11.2 M17.95 12.3 L17.7 12.4 16.0 12.15 Q15.75 11.8 16.1 11.3 L17.75 11.5 18.05 11.65 17.95 12.3 18.05 11.65 18.35 11.75 18.35 11.8 18.55 11.75 18.6 11.8 18.55 11.85 18.45 11.85 18.4 12.25 18.55 12.3 18.45 12.3 18.25 12.4 17.95 12.3 M18.8 12.95 L18.75 13.0 18.65 13.0 18.6 13.4 18.75 13.45 18.7 13.5 18.5 13.55 18.2 13.5 17.9 13.6 16.2 13.35 Q15.95 12.95 16.3 12.45 L17.95 12.65 18.25 12.8 18.55 12.85 18.55 12.9 18.75 12.9 18.8 12.95 M18.2 13.5 L18.25 12.8 18.2 13.5" fill="#bba400" fill-rule="evenodd" stroke="none"/>
    <path d="M17.2 7.15 L18.0 7.25 Q18.35 7.25 18.65 7.55 L17.95 7.75 17.15 7.65 17.0 7.55 17.05 7.15 17.15 7.2 17.2 7.15 M17.55 8.3 L18.35 8.4 19.05 8.7 18.3 8.9 17.5 8.8 17.35 8.75 17.4 8.35 17.5 8.35 17.55 8.3 M17.8 9.5 L18.6 9.6 Q18.95 9.6 19.25 9.9 L18.5 10.1 17.7 10.0 17.6 9.9 17.6 9.5 17.7 9.55 17.8 9.5 M18.2 10.65 L19.0 10.75 Q19.3 10.8 19.65 11.05 L18.95 11.25 18.15 11.15 18.0 11.1 18.05 10.7 18.15 10.7 18.2 10.65 M18.6 11.8 L19.35 11.9 20.0 12.2 19.3 12.4 18.55 12.3 18.4 12.25 18.45 11.85 18.55 11.85 18.6 11.8 M18.8 12.95 L19.55 13.05 Q19.9 13.05 20.2 13.35 19.85 13.55 19.5 13.55 L18.75 13.45 18.6 13.4 18.65 13.0 18.75 13.0 18.8 12.95" fill="#bb8500" fill-rule="evenodd" stroke="none"/>
    <path d="M16.65 7.0 L16.35 6.85 14.7 6.65 Q14.35 7.1 14.6 7.55 L16.3 7.8 16.55 7.7 16.65 7.0 16.95 7.05 16.95 7.1 M16.85 7.75 L16.55 7.7 M17.0 8.15 L16.75 8.0 15.1 7.8 Q14.75 8.3 15.0 8.7 L16.65 8.95 16.95 8.85 17.0 8.15 17.3 8.2 17.3 8.25 M17.25 8.9 L16.95 8.85 M17.25 9.3 L16.95 9.2 15.3 9.0 Q14.95 9.45 15.2 9.9 L16.9 10.15 17.15 10.0 17.25 9.3 17.55 9.4 17.55 9.45 M17.45 10.1 L17.15 10.0 M17.65 10.5 L17.4 10.35 15.75 10.15 Q15.35 10.65 15.65 11.05 L17.3 11.3 17.6 11.2 17.65 10.5 17.95 10.55 17.95 10.6 M17.9 11.25 L17.6 11.2 M18.05 11.65 L17.75 11.5 16.1 11.3 Q15.75 11.8 16.0 12.15 L17.7 12.4 17.95 12.3 18.05 11.65 18.35 11.75 18.35 11.8 M18.25 12.4 L17.95 12.3 M18.5 13.55 L18.2 13.5 17.9 13.6 16.2 13.35 Q15.95 12.95 16.3 12.45 L17.95 12.65 18.25 12.8 18.55 12.85 18.55 12.9 M18.25 12.8 L18.2 13.5" fill="none" stroke="#a68800" stroke-linecap="round" stroke-linejoin="round" stroke-width="0.4"/>
    <path d="M16.95 7.1 L17.15 7.1 17.2 7.15 18.0 7.25 Q18.35 7.25 18.65 7.55 L17.95 7.75 17.15 7.65 17.05 7.7 16.85 7.75 M17.3 8.25 L17.5 8.25 17.55 8.3 18.35 8.4 19.05 8.7 18.3 8.9 17.5 8.8 17.45 8.85 17.25 8.9 M17.2 7.15 L17.15 7.2 17.05 7.15 17.0 7.55 17.15 7.65 M17.55 8.3 L17.5 8.35 17.4 8.35 17.35 8.75 17.5 8.8 M17.55 9.45 L17.75 9.45 17.8 9.5 18.6 9.6 Q18.95 9.6 19.25 9.9 L18.5 10.1 17.7 10.0 17.65 10.05 17.45 10.1 M17.8 9.5 L17.7 9.55 17.6 9.5 17.6 9.9 17.7 10.0 M17.95 10.6 L18.15 10.6 18.2 10.65 19.0 10.75 Q19.3 10.8 19.65 11.05 L18.95 11.25 18.15 11.15 18.1 11.2 17.9 11.25 M18.35 11.8 L18.55 11.75 18.6 11.8 19.35 11.9 20.0 12.2 19.3 12.4 18.55 12.3 18.45 12.3 18.25 12.4 M18.2 10.65 L18.15 10.7 18.05 10.7 18.0 11.1 18.15 11.15 M18.6 11.8 L18.55 11.85 18.45 11.85 18.4 12.25 18.55 12.3 M18.75 13.45 L19.5 13.55 Q19.85 13.55 20.2 13.35 19.9 13.05 19.55 13.05 L18.8 12.95 18.75 13.0 18.65 13.0 18.6 13.4 18.75 13.45 18.7 13.5 18.5 13.55 M18.55 12.9 L18.75 12.9 18.8 12.95" fill="none" stroke="#a36931" stroke-linecap="round" stroke-linejoin="round" stroke-width="0.4"/>
    <path d="M22.3 18.5 L20.55 18.5 20.55 20.4 19.35 19.45 20.55 20.4 20.55 20.45 20.65 20.45 22.3 20.45 22.3 20.95 22.25 23.15 19.75 23.15 19.75 19.85 19.35 19.45 19.35 15.8 22.3 15.8 22.3 18.5 M20.65 20.45 L21.5 20.9 22.2 20.95 22.3 20.95 22.2 20.95 21.5 20.9 20.65 20.45 M13.0 19.3 L14.2 20.25 13.0 19.3 13.0 15.65 17.95 15.65 17.95 19.3 17.6 19.75 17.6 23.0 13.4 23.0 13.4 19.7 13.0 19.3 M14.3 20.3 L15.15 20.75 15.85 20.8 16.85 20.3 17.95 19.3 16.85 20.3 15.85 20.8 15.15 20.75 14.3 20.3 16.85 20.3 16.85 18.35 14.2 18.35 14.2 20.25 14.2 20.3 14.3 20.3" fill="#747474" fill-rule="evenodd" stroke="none"/>
    <path d="M20.55 20.4 L20.55 18.5 22.3 18.5 22.3 20.45 20.65 20.45 20.55 20.45 20.55 20.4 M14.3 20.3 L14.2 20.3 14.2 20.25 14.2 18.35 16.85 18.35 16.85 20.3 14.3 20.3" fill="#4f4f4f" fill-rule="evenodd" stroke="none"/>
    <path d="M16.95 7.05 L17.9 13.6" fill="none" stroke="#151515" stroke-linecap="round" stroke-linejoin="round" stroke-width="1.0"/>
    <path d="M22.3 18.5 L22.3 15.8 19.35 15.8 19.35 19.45 20.55 20.4 M22.3 20.45 L22.3 18.5 M19.35 19.45 L19.75 19.85 19.75 23.15 22.25 23.15 22.3 20.95 22.2 20.95 21.5 20.9 20.65 20.45 M22.3 20.95 L22.3 20.45 M14.2 20.25 L13.0 19.3 13.4 19.7 13.4 23.0 17.6 23.0 17.6 19.75 17.95 19.3 16.85 20.3 15.85 20.8 15.15 20.75 14.3 20.3 M13.0 19.3 L13.0 15.65 17.95 15.65 17.95 19.3" fill="none" stroke="#2c2c2c" stroke-linecap="round" stroke-linejoin="round" stroke-width="1.0"/>
    <path d="M14.95 2.5 L12.55 -0.2 Q14.05 0.3 15.8 1.25 17.85 2.15 19.35 3.95 L17.95 4.65 14.95 2.5 M0.7 9.55 L1.85 9.55 1.85 12.4 5.45 12.8 4.95 15.7 4.7 16.85 2.7 17.7 2.15 14.55 -0.4 13.35 0.7 9.55 M6.0 25.85 L7.35 29.4 Q2.35 27.35 -1.6 28.8 L-1.7 25.2 -1.55 20.7 -1.4 18.7 -0.1 19.85 1.15 20.95 1.15 22.55 6.0 25.85" fill="#1e1e1e" fill-rule="evenodd" stroke="none"/>
    <path d="M7.35 29.4 L8.75 32.45 Q4.85 29.3 -1.05 30.55 -1.4 30.05 -1.6 28.8 2.35 27.35 7.35 29.4" fill="#696969" fill-rule="evenodd" stroke="none"/>
    <path d="M5.3 1.15 Q6.05 0.4 6.9 -0.05 L12.55 -0.2 14.95 2.5 13.75 4.2 Q12.4 3.65 8.9 3.4 L8.3 1.15 5.3 1.15 M1.85 9.55 L2.8 9.55 3.65 6.45 7.05 5.7 Q6.25 8.05 5.45 12.8 L1.85 12.4 1.85 9.55 M-1.4 18.7 Q-1.1 16.05 -0.4 13.35 L2.15 14.55 2.7 17.7 1.65 18.1 -0.1 19.85 -1.4 18.7" fill="#3c3c3c" fill-rule="evenodd" stroke="none"/>
    <path d="M5.3 1.15 L8.3 1.15 8.9 3.4 7.8 4.0 Q7.4 4.55 7.05 5.7 L3.65 6.45 2.8 9.55 1.85 9.55 0.7 9.55 1.25 8.15 Q3.05 3.35 5.3 1.15 M13.75 4.2 L14.95 2.5 17.95 4.65 19.35 3.95 Q21.3 6.3 21.1 7.1 L16.25 6.0 Q15.2 4.8 13.75 4.2 M4.7 16.85 Q4.1 20.35 6.0 25.85 L1.15 22.55 1.15 20.95 -0.1 19.85 1.65 18.1 2.7 17.7 4.7 16.85" fill="#989898" fill-rule="evenodd" stroke="none"/>
    <path d="M12.55 -0.2 L6.9 -0.05 Q6.05 0.4 5.3 1.15 3.05 3.35 1.25 8.15 L0.7 9.55 -0.4 13.35 Q-1.1 16.05 -1.4 18.7 L-1.55 20.7 -1.7 25.2 -1.6 28.8 Q2.35 27.35 7.35 29.4 L8.75 32.45 Q4.85 29.3 -1.05 30.55 -1.4 30.05 -1.6 28.8 M8.9 3.4 Q12.4 3.65 13.75 4.2 15.2 4.8 16.25 6.0 L21.1 7.1 Q21.3 6.3 19.35 3.95 17.85 2.15 15.8 1.25 14.05 0.3 12.55 -0.2 M7.05 5.7 Q7.4 4.55 7.8 4.0 L8.9 3.4 M7.05 5.7 Q6.25 8.05 5.45 12.8 L4.95 15.7 4.7 16.85 Q4.1 20.35 6.0 25.85 L7.35 29.4" fill="none" stroke="#0b0b0b" stroke-linecap="round" stroke-linejoin="round" stroke-width="1.0"/>
  </g>
</svg>
