<?xml version="1.0" encoding="UTF-8" standalone="no"?>
<svg xmlns:ffdec="https://www.free-decompiler.com/flash" xmlns:xlink="http://www.w3.org/1999/xlink" ffdec:objectType="shape" height="12.35px" width="14.9px" xmlns="http://www.w3.org/2000/svg">
  <g transform="matrix(1.0, 0.0, 0.0, 1.0, 9.5, 6.5)">
    <path d="M-9.0 -5.9 L-6.1 -5.95 Q-2.7 -5.8 0.15 -4.5 L4.6 -1.7 Q5.25 -0.1 4.6 1.6 L3.15 5.35 Q-2.45 5.25 -5.65 1.3 -5.7 -2.9 -9.0 -5.9" fill="url(#gradient0)" fill-rule="evenodd" stroke="none"/>
    <path d="M-9.0 -5.9 L-6.1 -5.95 Q-2.7 -5.8 0.15 -4.5 L4.6 -1.7 Q5.25 -0.1 4.6 1.6 L3.15 5.35 Q-2.45 5.25 -5.65 1.3 -5.7 -2.9 -9.0 -5.9 Z" fill="none" stroke="#040a2e" stroke-linecap="round" stroke-linejoin="round" stroke-width="1.0"/>
    <path d="M-2.4 0.75 Q-2.75 1.5 -3.65 0.85 -4.6 -0.4 -3.9 -0.65 -2.7 -0.9 -2.4 0.75 M-4.85 -2.25 Q-6.5 -4.25 -5.3 -4.6 -3.25 -5.0 -2.75 -2.35 -3.35 -1.15 -4.85 -2.25 M2.4 -0.65 Q1.65 -1.65 2.4 -1.65 3.6 -1.5 3.6 -0.35 3.1 0.05 2.4 -0.65" fill="#152569" fill-opacity="0.29803923" fill-rule="evenodd" stroke="none"/>
  </g>
  <defs>
    <radialGradient cx="0" cy="0" gradientTransform="matrix(0.031, 0.0, 0.0, 0.031, 8.65, -13.1)" gradientUnits="userSpaceOnUse" id="gradient0" r="819.2" spreadMethod="pad">
      <stop offset="0.0" stop-color="#23ff5b"/>
      <stop offset="0.27450980392156865" stop-color="#3fffba"/>
      <stop offset="0.5019607843137255" stop-color="#3fafff"/>
      <stop offset="0.9058823529411765" stop-color="#0400ff"/>
      <stop offset="1.0" stop-color="#ff1305"/>
    </radialGradient>
  </defs>
</svg>
