<?xml version="1.0" encoding="UTF-8" standalone="no"?>
<svg xmlns:xlink="http://www.w3.org/1999/xlink" height="92.05px" width="467.5px" xmlns="http://www.w3.org/2000/svg">
  <g transform="matrix(1.0, 0.0, 0.0, 1.0, 265.7, 43.75)">
    <path d="M34.65 -33.55 L30.95 -34.1 Q34.9 -28.85 36.95 -23.05 L40.25 -23.05 Q38.3 -28.5 34.65 -33.55 M0.45 -35.9 L5.7 -36.15 9.45 -38.75 16.65 -38.75 21.1 -35.65 23.3 -35.5 27.65 -35.3 35.55 -34.55 43.1 -33.4 48.05 -32.1 57.8 -29.15 58.0 -24.35 54.2 -20.75 52.6 -14.15 51.5 -13.5 50.25 -12.95 48.05 -12.05 41.4 -10.3 40.3 -10.1 36.75 -9.5 Q29.6 -9.25 25.25 -11.0 21.95 -12.3 18.75 -15.65 14.6 -20.1 13.1 -21.2 9.05 -24.15 2.6 -25.2 2.5 -30.1 -1.25 -35.75 L0.45 -35.9 M47.05 -23.05 Q45.4 -27.95 42.05 -32.5 L38.4 -33.15 Q41.95 -28.1 43.7 -23.05 L47.05 -23.05" fill="url(#gradient0)" fill-rule="evenodd" stroke="none"/>
    <path d="M66.75 -36.05 L123.15 -22.95 Q134.3 -20.25 138.3 -14.15 L146.15 -2.05 Q145.25 -1.55 145.05 -0.4 144.2 1.4 141.8 1.25 106.15 2.7 78.4 -19.55 L78.4 -29.55 66.75 -36.05" fill="url(#gradient1)" fill-rule="evenodd" stroke="none"/>
    <path d="M56.2 -40.45 L64.3 -39.05 66.75 -36.05 78.4 -29.55 78.4 -19.55 Q106.15 2.7 141.8 1.25 144.2 1.4 145.05 -0.4 145.25 -1.55 146.15 -2.05 L147.65 -2.55 148.0 1.15 150.5 3.15 150.0 6.05 145.8 6.75 Q109.3 7.25 86.8 -5.65 L80.75 -4.75 76.75 -7.6 74.75 -7.5 73.55 -6.45 71.25 -6.35 70.1 -7.35 69.9 -9.35 71.65 -10.9 72.45 -15.1 Q72.2 -16.8 71.15 -18.85 L71.5 -28.45 58.85 -35.95 56.2 -40.45" fill="#272727" fill-rule="evenodd" stroke="none"/>
    <path d="M-203.95 -23.8 L-208.0 -21.6 -220.15 -22.05 -225.2 -24.5 -242.45 -25.05 -238.95 -28.65 -229.35 -29.05 -226.35 -32.25 -209.75 -31.65 -203.95 -23.8 M-210.65 44.8 L-216.85 31.05 -212.35 31.55 -208.2 41.8 -210.65 44.8 M-223.6 16.1 L-225.6 11.65 Q-227.5 5.05 -220.4 5.65 L-204.7 7.4 -220.5 10.45 -223.6 16.1 M141.05 37.05 L142.5 35.15 155.35 34.15 159.1 36.0 154.45 38.1 152.7 42.95 146.9 43.55 144.7 38.3 141.05 37.05 M171.85 35.0 Q174.4 24.95 182.35 22.4 185.0 21.55 188.3 21.55 186.05 22.65 183.95 25.3 179.35 26.65 178.65 32.6 176.1 34.6 171.85 35.0 M-212.8 -28.6 Q-213.5 -28.6 -214.05 -28.1 -214.55 -27.6 -214.55 -26.85 -214.55 -26.1 -214.05 -25.6 -213.5 -25.1 -212.8 -25.1 -212.05 -25.1 -211.55 -25.6 -211.05 -26.1 -211.05 -26.85 -211.05 -27.6 -211.55 -28.1 -212.05 -28.6 -212.8 -28.6" fill="#3b3b3b" fill-rule="evenodd" stroke="none"/>
    <path d="M14.95 29.5 L19.0 23.75 34.6 24.85 37.2 30.85 14.95 29.5 M50.8 31.55 L55.7 26.45 67.4 27.45 70.4 32.8 50.8 31.55 M82.0 33.45 L86.8 28.45 100.8 29.45 104.15 34.75 82.0 33.45" fill="#3a3a3a" fill-rule="evenodd" stroke="none"/>
    <path d="M36.75 -9.5 L40.3 -10.1 41.4 -10.3 48.05 -12.05 50.25 -12.95 51.5 -13.5 52.6 -14.15 54.2 -20.75 58.0 -24.35 55.9 -13.65 Q54.85 -10.35 50.9 -8.05 46.85 -5.65 39.15 -3.9 L27.25 -2.35 Q2.8 -0.2 -46.45 -3.9 -56.9 -4.25 -72.35 -3.9 -88.5 -3.55 -93.2 -3.65 -103.0 -3.9 -108.1 -5.55 -114.1 -7.55 -116.05 -12.1 L-120.0 -21.05 -117.9 -21.05 -117.55 -21.65 -112.1 -13.4 -105.6 -11.25 -104.6 -9.3 -99.5 -9.3 -100.5 -11.25 -97.2 -11.25 -96.2 -9.3 -92.7 -9.25 -93.75 -11.25 -90.4 -11.25 -89.4 -9.25 -49.2 -10.05 -39.6 -10.05 -30.8 -11.75 Q-21.4 -9.75 -10.35 -8.75 L9.8 -7.75 13.2 -7.8 15.6 -5.75 Q22.65 -1.6 29.4 -5.35 L35.0 -5.25 Q36.95 -5.2 37.9 -5.95 L38.6 -6.85 Q39.0 -7.8 38.85 -8.65 38.65 -9.6 37.85 -9.55 L36.75 -9.5" fill="#4a4a4a" fill-rule="evenodd" stroke="none"/>
    <path d="M152.35 -2.25 Q153.05 -3.15 155.75 -4.25 158.45 -5.35 164.05 -4.8 166.6 -6.6 170.6 -8.15 182.95 -4.6 191.4 -0.4 199.8 3.8 200.8 16.45 L191.6 11.85 Q186.45 9.2 181.0 10.65 L167.4 15.25 Q163.55 13.65 161.45 11.6 L160.2 10.15 Q157.85 6.8 159.15 2.3 155.6 1.15 152.55 -0.45 152.15 -1.55 152.35 -2.25 M159.15 2.3 Q159.6 0.65 160.55 -1.1 161.65 -3.1 164.05 -4.8 161.65 -3.1 160.55 -1.1 159.6 0.65 159.15 2.3" fill="url(#gradient2)" fill-rule="evenodd" stroke="none"/>
    <path d="M-204.7 7.4 L-184.6 8.9 -172.8 5.55 -148.45 7.3 -140.85 13.65 -100.05 16.9 -74.1 18.8 -68.0 16.3 -54.65 17.7 -42.3 24.75 -64.15 26.45 -65.0 26.5 Q-135.65 22.95 -160.7 15.65 L-167.85 14.3 -204.7 7.4" fill="#383838" fill-rule="evenodd" stroke="none"/>
    <path d="M-65.0 26.5 L-91.4 28.55 -126.75 27.6 -139.8 31.3 -154.35 27.9 -158.1 20.6 -162.05 17.25 -167.85 14.3 -160.7 15.65 Q-135.65 22.95 -65.0 26.5" fill="#424342" fill-rule="evenodd" stroke="none"/>
    <path d="M183.95 25.3 Q185.1 30.6 178.65 32.6 179.35 26.65 183.95 25.3 M-252.2 -10.35 Q-251.45 -11.05 -250.45 -11.05 -249.4 -11.05 -248.65 -10.35 -247.95 -9.6 -247.95 -8.55 -247.95 -7.5 -248.65 -6.8 -249.4 -6.05 -250.45 -6.05 -251.45 -6.05 -252.2 -6.8 -252.95 -7.5 -252.95 -8.55 -252.95 -9.6 -252.2 -10.35 M-212.8 -28.6 Q-212.05 -28.6 -211.55 -28.1 -211.05 -27.6 -211.05 -26.85 -211.05 -26.1 -211.55 -25.6 -212.05 -25.1 -212.8 -25.1 -213.5 -25.1 -214.05 -25.6 -214.55 -26.1 -214.55 -26.85 -214.55 -27.6 -214.05 -28.1 -213.5 -28.6 -212.8 -28.6" fill="#ff8a8a" fill-rule="evenodd" stroke="none"/>
    <path d="M182.35 22.4 L174.6 21.55 Q171.8 20.9 169.5 19.75 174.35 14.6 184.2 14.85 174.35 14.6 169.5 19.75 163.35 16.7 160.2 10.15 L161.45 11.6 Q163.55 13.65 167.4 15.25 L181.0 10.65 Q186.45 9.2 191.6 11.85 L200.8 16.45 Q200.55 17.4 196.5 19.15 193.6 21.0 188.8 21.55 L188.3 21.55 Q185.0 21.55 182.35 22.4 M187.8 18.05 Q179.35 17.85 174.6 21.55 179.35 17.85 187.8 18.05" fill="#4d4d4d" fill-rule="evenodd" stroke="none"/>
    <path d="M58.0 -24.35 L57.8 -29.15 48.05 -32.1 43.1 -33.4 35.55 -34.55 27.65 -35.3 23.3 -35.5 21.1 -35.65 16.65 -38.75 9.45 -38.75 5.7 -36.15 0.45 -35.9 -1.25 -35.75 -6.2 -39.35 3.3 -40.55 7.6 -42.75 56.2 -40.45 58.85 -35.95 71.5 -28.45 71.15 -18.85 Q72.2 -16.8 72.45 -15.1 L71.65 -10.9 69.9 -9.35 70.1 -7.35 71.25 -6.35 73.55 -6.45 74.75 -7.5 76.75 -7.6 80.75 -4.75 86.8 -5.65 Q109.3 7.25 145.8 6.75 L150.0 6.05 150.5 3.15 148.0 1.15 147.65 -2.55 152.35 -2.25 Q152.15 -1.55 152.55 -0.45 155.6 1.15 159.15 2.3 157.85 6.8 160.2 10.15 163.35 16.7 169.5 19.75 171.8 20.9 174.6 21.55 L182.35 22.4 Q174.4 24.95 171.85 35.0 L159.1 36.0 155.35 34.15 142.5 35.15 141.05 37.05 104.15 34.75 100.8 29.45 86.8 28.45 82.0 33.45 70.4 32.8 67.4 27.45 55.7 26.45 50.8 31.55 46.15 31.3 37.2 30.85 34.6 24.85 19.0 23.75 14.95 29.5 -28.6 27.05 Q-35.15 26.35 -42.3 24.75 L-54.65 17.7 -68.0 16.3 -74.1 18.8 -100.05 16.9 -140.85 13.65 -148.45 7.3 -172.8 5.55 -184.6 8.9 -204.7 7.4 -220.4 5.65 Q-227.5 5.05 -225.6 11.65 L-223.6 16.1 -216.85 31.05 -210.65 44.8 -212.7 47.3 -224.2 46.05 -227.5 39.4 -233.7 37.45 -242.4 35.65 -245.3 25.95 -237.4 19.35 -240.1 13.85 -244.6 12.15 -248.8 2.35 -261.15 -6.5 -264.7 -17.35 -259.1 -22.65 -253.7 -22.65 -251.2 -25.35 -242.45 -25.05 -225.2 -24.5 -220.15 -22.05 -208.0 -21.6 -203.95 -23.8 -186.75 -23.25 -178.55 -20.05 -134.55 -19.2 -130.0 -21.4 -120.0 -21.05 -116.05 -12.1 Q-114.1 -7.55 -108.1 -5.55 -103.0 -3.9 -93.2 -3.65 -88.5 -3.55 -72.35 -3.9 -56.9 -4.25 -46.45 -3.9 2.8 -0.2 27.25 -2.35 L39.15 -3.9 Q46.85 -5.65 50.9 -8.05 54.85 -10.35 55.9 -13.65 L58.0 -24.35 M169.4 29.45 Q170.95 24.35 174.6 21.55 170.95 24.35 169.4 29.45 M165.8 26.25 Q167.0 22.3 169.5 19.75 167.0 22.3 165.8 26.25 M129.4 31.65 L145.5 33.05 129.4 31.65 121.2 21.85 129.4 31.65 M55.6 16.05 Q87.1 20.95 121.2 21.85 87.1 20.95 55.6 16.05 M131.0 28.15 L126.05 21.95 131.0 28.15 M-246.8 -20.25 L-251.9 -15.25 -246.8 -20.25 -224.5 -19.6 -246.8 -20.25 M-219.0 -17.2 L-224.5 -19.6 -219.0 -17.2 -207.05 -16.95 -219.0 -17.2 M-203.4 -18.95 L-207.05 -16.95 -203.4 -18.95 -192.1 -18.85 -203.4 -18.95 M-184.1 -14.15 L-192.1 -18.85 -184.1 -14.15 -161.6 -13.35 -184.1 -14.15 M-252.2 -10.35 Q-252.95 -9.6 -252.95 -8.55 -252.95 -7.5 -252.2 -6.8 -251.45 -6.05 -250.45 -6.05 -249.4 -6.05 -248.65 -6.8 -247.95 -7.5 -247.95 -8.55 -247.95 -9.6 -248.65 -10.35 -249.4 -11.05 -250.45 -11.05 -251.45 -11.05 -252.2 -10.35 M-229.4 -13.8 L-238.5 -13.8 -229.4 -13.8 M-226.1 -0.6 L-235.6 -5.7 Q-237.65 -9.75 -238.5 -13.8 -237.65 -9.75 -235.6 -5.7 L-226.1 -0.6 -211.85 0.55 -226.1 -0.6 M-157.85 4.8 L-158.9 -1.05 -151.7 -7.65 -153.7 -17.85 -151.7 -7.65 -158.9 -1.05 -157.85 4.8 M-121.25 -4.3 L-121.85 -4.3 -121.25 -4.3 M-115.35 -4.3 L-115.95 -4.3 -115.35 -4.3 M-118.65 -7.45 L-119.25 -7.45 -118.65 -7.45 M-124.55 -7.45 L-125.15 -7.45 -124.55 -7.45 M-130.4 -7.45 L-131.0 -7.45 -130.4 -7.45 M-127.1 -4.3 L-127.7 -4.3 -127.1 -4.3 M-7.85 8.75 L-8.8 8.7 -30.0 6.1 -8.8 8.7 -7.85 8.75 M-12.45 13.75 L-13.4 13.7 -34.6 11.1 -13.4 13.7 -12.45 13.75 M-16.65 19.05 L-17.6 19.0 -38.8 16.4 -17.6 19.0 -16.65 19.05 M-224.2 26.85 L-228.8 32.45 -224.2 26.85 -227.6 18.45 -224.2 26.85 M-228.8 32.45 L-237.45 31.3 -228.8 32.45 M-215.7 40.95 L-222.75 40.0 -215.7 40.95 M-222.05 43.45 L-214.95 44.4 -222.05 43.45 M-235.6 -5.7 L-243.8 1.15 -235.6 -5.7" fill="url(#gradient3)" fill-rule="evenodd" stroke="none"/>
    <path d="M13.2 -7.8 L9.8 -7.75 -10.35 -8.75 Q-21.4 -9.75 -30.8 -11.75 L-29.0 -13.55 -11.6 -11.75 Q-9.65 -11.6 -8.0 -11.8 L-6.7 -12.0 Q-3.45 -10.55 -0.35 -12.8 3.8 -15.4 13.2 -7.8" fill="#5f5f5f" fill-rule="evenodd" stroke="none"/>
    <path d="M34.65 -33.55 Q38.3 -28.5 40.25 -23.05 L36.95 -23.05 Q34.9 -28.85 30.95 -34.1 L34.65 -33.55 M47.05 -23.05 L43.7 -23.05 Q41.95 -28.1 38.4 -33.15 L42.05 -32.5 Q45.4 -27.95 47.05 -23.05" fill="#e7e4ba" fill-rule="evenodd" stroke="none"/>
    <path d="M-120.0 -21.05 L-130.0 -21.4 -134.55 -19.2 -178.55 -20.05 -186.75 -23.25 -203.95 -23.8 -208.0 -21.6 -220.15 -22.05 -225.2 -24.5 -242.45 -25.05 -251.2 -25.35 -253.7 -22.65 -259.1 -22.65 -264.7 -17.35 -261.15 -6.5 -248.8 2.35 -244.6 12.15 -240.1 13.85 -237.4 19.35 -245.3 25.95 -242.4 35.65 -233.7 37.45 -227.5 39.4 -224.2 46.05 -212.7 47.3 -210.65 44.8 -216.85 31.05 -223.6 16.1 -225.6 11.65 Q-227.5 5.05 -220.4 5.65 L-204.7 7.4 -184.6 8.9 -172.8 5.55 -148.45 7.3 -140.85 13.65 -100.05 16.9 -74.1 18.8 -68.0 16.3 -54.65 17.7 -42.3 24.75 Q-35.15 26.35 -28.6 27.05 L14.95 29.5 19.0 23.75 34.6 24.85 37.2 30.85 46.15 31.3 50.8 31.55 55.7 26.45 67.4 27.45 70.4 32.8 82.0 33.45 86.8 28.45 100.8 29.45 104.15 34.75 141.05 37.05 142.5 35.15 155.35 34.15 159.1 36.0 171.85 35.0 Q174.4 24.95 182.35 22.4 185.0 21.55 188.3 21.55 186.05 22.65 183.95 25.3 M-6.2 -39.35 L3.3 -40.55 7.6 -42.75 56.2 -40.45 64.3 -39.05 66.75 -36.05 123.15 -22.95 Q134.3 -20.25 138.3 -14.15 L146.15 -2.05 147.65 -2.55 152.35 -2.25 M200.8 16.45 Q200.55 17.4 196.5 19.15 193.6 21.0 188.8 21.55 L188.3 21.55 M178.65 32.6 Q176.1 34.6 171.85 35.0 M-117.9 -21.05 L-120.0 -21.05 M66.75 -36.05 L78.4 -29.55 78.4 -19.55 Q106.15 2.7 141.8 1.25 144.2 1.4 145.05 -0.4 145.25 -1.55 146.15 -2.05 M56.2 -40.45 L58.85 -35.95 71.5 -28.45 71.15 -18.85 Q72.2 -16.8 72.45 -15.1 L71.65 -10.9 69.9 -9.35 70.1 -7.35 71.25 -6.35 73.55 -6.45 74.75 -7.5 76.75 -7.6 80.75 -4.75 86.8 -5.65 Q109.3 7.25 145.8 6.75 L150.0 6.05 150.5 3.15 148.0 1.15 147.65 -2.55 M141.05 37.05 L144.7 38.3 146.9 43.55 152.7 42.95 154.45 38.1 159.1 36.0 M129.4 31.65 L121.2 21.85 M126.05 21.95 L131.0 28.15 M82.0 33.45 L104.15 34.75 M70.4 32.8 L50.8 31.55 M14.95 29.5 L37.2 30.85 M-203.95 -23.8 L-209.75 -31.65 -226.35 -32.25 -229.35 -29.05 -238.95 -28.65 -242.45 -25.05 M-127.7 -4.3 L-127.1 -4.3 M-131.0 -7.45 L-130.4 -7.45 M-125.15 -7.45 L-124.55 -7.45 M-119.25 -7.45 L-118.65 -7.45 M-115.95 -4.3 L-115.35 -4.3 M-121.85 -4.3 L-121.25 -4.3 M-65.0 26.5 L-91.4 28.55 -126.75 27.6 -139.8 31.3 -154.35 27.9 -158.1 20.6 -162.05 17.25 -167.85 14.3 -204.7 7.4 -220.5 10.45 -223.6 16.1 M-42.3 24.75 L-64.15 26.45 M-228.8 32.45 L-224.2 26.85 M-216.85 31.05 L-212.35 31.55 -208.2 41.8 -210.65 44.8 M-214.95 44.4 L-222.05 43.45 M-222.75 40.0 L-215.7 40.95" fill="none" stroke="#232323" stroke-linecap="round" stroke-linejoin="round" stroke-width="2.0"/>
    <path d="M174.6 21.55 Q170.95 24.35 169.4 29.45 M174.6 21.55 Q179.35 17.85 187.8 18.05 M169.5 19.75 Q167.0 22.3 165.8 26.25 M184.2 14.85 Q174.35 14.6 169.5 19.75 M145.5 33.05 L129.4 31.65 M121.2 21.85 Q87.1 20.95 55.6 16.05 M-251.9 -15.25 L-246.8 -20.25 M-224.5 -19.6 L-219.0 -17.2 M-207.05 -16.95 L-203.4 -18.95 M-192.1 -18.85 L-184.1 -14.15 M-238.5 -13.8 L-229.4 -13.8 M-226.1 -0.6 L-211.85 0.55 M-153.7 -17.85 L-151.7 -7.65 -158.9 -1.05 -157.85 4.8" fill="none" stroke="#414141" stroke-linecap="round" stroke-linejoin="round" stroke-width="2.0"/>
    <path d="M-38.8 16.4 L-17.6 19.0 -16.65 19.05 M-34.6 11.1 L-13.4 13.7 -12.45 13.75 M-30.0 6.1 L-8.8 8.7 -7.85 8.75" fill="none" stroke="#2a2a2a" stroke-linecap="round" stroke-linejoin="round" stroke-width="2.0"/>
    <path d="M-224.2 26.85 L-227.6 18.45 M-237.45 31.3 L-228.8 32.45" fill="none" stroke="#383838" stroke-linecap="round" stroke-linejoin="round" stroke-width="2.0"/>
    <path d="M-184.1 -14.15 L-161.6 -13.35" fill="none" stroke="#4a4848" stroke-linecap="round" stroke-linejoin="round" stroke-width="2.0"/>
    <path d="M152.35 -2.25 Q153.05 -3.15 155.75 -4.25 158.45 -5.35 164.05 -4.8 166.6 -6.6 170.6 -8.15 182.95 -4.6 191.4 -0.4 199.8 3.8 200.8 16.45 L191.6 11.85 Q186.45 9.2 181.0 10.65 L167.4 15.25 Q163.55 13.65 161.45 11.6 L160.2 10.15 Q157.85 6.8 159.15 2.3 155.6 1.15 152.55 -0.45 152.15 -1.55 152.35 -2.25 M164.05 -4.8 Q161.65 -3.1 160.55 -1.1 159.6 0.65 159.15 2.3" fill="none" stroke="#312a22" stroke-linecap="round" stroke-linejoin="round" stroke-width="2.0"/>
    <path d="M183.95 25.3 Q185.1 30.6 178.65 32.6 179.35 26.65 183.95 25.3 M-252.2 -10.35 Q-251.45 -11.05 -250.45 -11.05 -249.4 -11.05 -248.65 -10.35 -247.95 -9.6 -247.95 -8.55 -247.95 -7.5 -248.65 -6.8 -249.4 -6.05 -250.45 -6.05 -251.45 -6.05 -252.2 -6.8 -252.95 -7.5 -252.95 -8.55 -252.95 -9.6 -252.2 -10.35 M-212.8 -28.6 Q-212.05 -28.6 -211.55 -28.1 -211.05 -27.6 -211.05 -26.85 -211.05 -26.1 -211.55 -25.6 -212.05 -25.1 -212.8 -25.1 -213.5 -25.1 -214.05 -25.6 -214.55 -26.1 -214.55 -26.85 -214.55 -27.6 -214.05 -28.1 -213.5 -28.6 -212.8 -28.6" fill="none" stroke="#4f0000" stroke-linecap="round" stroke-linejoin="round" stroke-width="2.0"/>
    <path d="M58.0 -24.35 L57.8 -29.15 48.05 -32.1 43.1 -33.4 35.55 -34.55 27.65 -35.3 23.3 -35.5 21.1 -35.65 16.65 -38.75 9.45 -38.75 5.7 -36.15 0.45 -35.9 M40.3 -10.1 L41.4 -10.3 48.05 -12.05 50.25 -12.95 51.5 -13.5 52.6 -14.15 54.2 -20.75 58.0 -24.35" fill="none" stroke="#6d6d6d" stroke-linecap="round" stroke-linejoin="round" stroke-width="2.0"/>
    <path d="M-246.8 -20.25 L-224.5 -19.6 M-219.0 -17.2 L-207.05 -16.95 M-203.4 -18.95 L-192.1 -18.85 M-238.5 -13.8 Q-237.65 -9.75 -235.6 -5.7 L-226.1 -0.6 M-243.8 1.15 L-235.6 -5.7" fill="none" stroke="#333333" stroke-linecap="round" stroke-linejoin="round" stroke-width="2.0"/>
  </g>
  <defs>
    <radialGradient cx="0" cy="0" gradientTransform="matrix(0.0, 0.029, -0.0603, 0.0, 22.7, -26.1)" gradientUnits="userSpaceOnUse" id="gradient0" r="819.2" spreadMethod="reflect">
      <stop offset="0.0" stop-color="#dadada"/>
      <stop offset="1.0" stop-color="#858585"/>
      <stop offset="1.0" stop-color="#343434"/>
    </radialGradient>
    <radialGradient cx="0" cy="0" gradientTransform="matrix(0.0112, -0.0416, 0.0823, 0.022, 122.05, -31.3)" gradientUnits="userSpaceOnUse" id="gradient1" r="819.2" spreadMethod="pad">
      <stop offset="0.0" stop-color="#567787"/>
      <stop offset="1.0" stop-color="#26353d"/>
      <stop offset="1.0" stop-color="#343434"/>
    </radialGradient>
    <radialGradient cx="0" cy="0" gradientTransform="matrix(0.0422, 0.0, 0.0, 0.0422, 175.55, -8.6)" gradientUnits="userSpaceOnUse" id="gradient2" r="819.2" spreadMethod="reflect">
      <stop offset="0.0" stop-color="#705c46"/>
      <stop offset="1.0" stop-color="#413221"/>
      <stop offset="1.0" stop-color="#343434"/>
    </radialGradient>
    <linearGradient gradientTransform="matrix(-0.0035, 0.0402, -0.2837, -0.0249, -31.0, -11.3)" gradientUnits="userSpaceOnUse" id="gradient3" spreadMethod="pad" x1="-819.2" x2="819.2">
      <stop offset="0.0" stop-color="#474747"/>
      <stop offset="0.5568627450980392" stop-color="#5b5b5b"/>
      <stop offset="1.0" stop-color="#4a4a4a"/>
    </linearGradient>
  </defs>
</svg>
