<?xml version="1.0" encoding="UTF-8" standalone="no"?>
<svg xmlns:ffdec="https://www.free-decompiler.com/flash" xmlns:xlink="http://www.w3.org/1999/xlink" ffdec:objectType="shape" height="36.0px" width="26.7px" xmlns="http://www.w3.org/2000/svg">
  <g transform="matrix(1.0, 0.0, 0.0, 1.0, 14.15, 31.6)">
    <path d="M-4.3 -28.1 L-2.9 -30.25 0.2 -30.2 Q1.6 -30.0 3.25 -27.15 3.9 -26.0 7.25 -24.95 L3.95 -24.4 2.05 -24.4 Q-1.2 -23.75 -3.85 -27.0 L-4.3 -28.1 M5.4 -4.25 Q0.3 1.5 -5.05 -4.25 L5.4 -4.25" fill="#333333" fill-rule="evenodd" stroke="none"/>
    <path d="M7.25 -24.95 L10.2 -24.45 4.45 -24.3 4.45 -23.85 4.3 -23.85 4.3 -19.8 3.95 -20.15 3.95 -24.4 7.25 -24.95 M-13.05 -17.95 L-13.1 -18.05 -13.05 -18.1 -13.05 -17.95" fill="#8a8580" fill-rule="evenodd" stroke="none"/>
    <path d="M10.2 -24.45 L10.95 -24.3 11.2 -24.3 11.2 -24.1 12.05 -23.1 Q8.7 -23.65 5.3 -23.0 L5.3 -18.9 4.35 -19.75 4.3 -19.75 4.3 -19.8 4.3 -23.85 4.45 -23.85 4.45 -24.3 10.2 -24.45" fill="#660000" fill-rule="evenodd" stroke="none"/>
    <path d="M11.9 -19.0 Q10.6 -17.7 11.2 -14.75 L11.2 -14.65 6.2 -14.7 8.5 -8.5 Q8.5 -7.7 5.4 -4.25 L2.1 -9.2 2.35 -9.2 4.3 -11.95 5.9 -14.3 6.2 -14.7 6.2 -16.9 6.2 -18.05 11.9 -19.0 M-9.75 -11.95 L-9.8 -11.95 -10.8 -15.2 -11.8 -15.2 Q-12.6 -16.1 -12.9 -16.95 L-13.05 -17.95 -13.05 -18.1 -12.65 -19.65 -13.65 -20.45 -13.4 -20.65 Q-13.35 -20.35 -12.9 -20.25 L-12.85 -20.25 -12.45 -21.4 -10.05 -23.25 -12.45 -21.4 Q-11.7 -22.9 -10.05 -23.25 L-9.1 -24.0 Q-8.35 -24.3 -7.75 -23.5 L-7.6 -23.3 -7.3 -22.8 -3.85 -27.0 Q-1.2 -23.75 2.05 -24.4 L3.95 -24.4 3.95 -20.15 Q3.5 -18.3 0.45 -15.1 L-0.2 -14.5 Q-2.0 -13.15 -3.95 -14.35 L-5.55 -15.9 -9.75 -11.95 Q-9.8 -13.95 -10.8 -15.2 -9.8 -13.95 -9.75 -11.95 M-9.35 -25.9 L-8.35 -24.4 -8.6 -24.4 -9.35 -25.9 M-7.3 -22.8 L-5.55 -15.9 -7.3 -22.8" fill="#4d4946" fill-rule="evenodd" stroke="none"/>
    <path d="M3.95 -20.15 L4.3 -19.8 4.3 -19.75 4.35 -19.75 5.3 -18.9 6.2 -18.05 6.2 -16.9 6.2 -14.7 5.9 -14.3 -0.2 -14.5 5.9 -14.3 4.3 -11.95 2.35 -9.2 2.1 -9.2 -5.65 -9.2 -5.65 -11.3 -5.65 -12.05 -3.15 -13.6 -3.95 -14.35 Q-2.0 -13.15 -0.2 -14.5 L0.45 -15.1 Q3.5 -18.3 3.95 -20.15 M2.55 -16.9 L6.2 -16.9 2.55 -16.9 M4.3 -11.95 L-5.65 -12.05 4.3 -11.95" fill="#666666" fill-rule="evenodd" stroke="none"/>
    <path d="M-9.1 -24.0 L-10.05 -23.25 Q-11.7 -22.9 -12.45 -21.4 L-13.4 -20.65 Q-13.45 -21.0 -12.9 -21.5 -11.85 -22.55 -8.6 -24.4 L-9.1 -24.0" fill="#9999ff" fill-rule="evenodd" stroke="none"/>
    <path d="M-5.05 -4.25 Q-5.7 -5.9 -5.75 -7.5 L-5.7 -8.9 -5.65 -9.2 2.1 -9.2 5.4 -4.25 -5.05 -4.25" fill="url(#gradient0)" fill-rule="evenodd" stroke="none"/>
    <path d="M-13.65 -20.45 L-11.6 -29.45 -7.9 -31.1 -4.3 -28.1 -4.6 -27.85 -7.0 -27.85 -9.35 -25.9 -8.6 -24.4 Q-11.85 -22.55 -12.9 -21.5 -13.45 -21.0 -13.4 -20.65 L-13.65 -20.45" fill="url(#gradient1)" fill-rule="evenodd" stroke="none"/>
    <path d="M-4.3 -28.1 L-3.85 -27.0 -7.3 -22.8 -7.6 -23.3 -7.75 -23.5 -8.35 -24.35 -8.35 -24.4 -9.35 -25.9 -7.0 -27.85 -4.6 -27.85 -4.3 -28.1" fill="url(#gradient2)" fill-rule="evenodd" stroke="none"/>
    <path d="M12.05 -23.1 L12.05 -20.7 11.9 -19.0 6.2 -18.05 5.3 -18.9 5.3 -23.0 Q8.7 -23.65 12.05 -23.1" fill="url(#gradient3)" fill-rule="evenodd" stroke="none"/>
    <path d="M11.2 -14.65 L10.9 -13.9 10.5 -12.75 10.5 -12.65 Q10.0 -10.4 8.5 -8.5 L6.2 -14.7 11.2 -14.65" fill="url(#gradient4)" fill-rule="evenodd" stroke="none"/>
    <path d="M-5.75 -7.5 Q-9.9 -7.7 -9.8 -11.2 L-9.75 -11.95 -5.55 -15.9 -3.95 -14.35 -3.15 -13.6 -5.65 -12.05 -5.65 -11.3 -5.7 -8.9 -5.75 -7.5" fill="url(#gradient5)" fill-rule="evenodd" stroke="none"/>
    <path d="M-4.3 -28.1 L-2.9 -30.25 0.2 -30.2 Q1.6 -30.0 3.25 -27.15 3.9 -26.0 7.25 -24.95 L10.2 -24.45 10.95 -24.3 M11.2 -24.1 L12.05 -23.1 12.05 -20.7 12.05 -19.2 11.9 -19.0 Q10.6 -17.7 11.2 -14.75 L11.2 -14.65 10.9 -13.9 10.5 -12.75 10.5 -12.65 Q10.0 -10.4 8.5 -8.5 8.5 -7.7 5.4 -4.25 0.3 1.5 -5.05 -4.25 -5.7 -5.9 -5.75 -7.5 -9.9 -7.7 -9.8 -11.2 L-9.75 -11.95 -9.8 -11.95 -10.8 -15.2 -11.8 -15.2 Q-12.6 -16.1 -12.9 -16.95 L-13.05 -17.95 -13.05 -18.1 -12.65 -19.65 -13.65 -20.45 -11.6 -29.45 -7.9 -31.1 -4.3 -28.1 -3.85 -27.0 Q-1.2 -23.75 2.05 -24.4 L3.95 -24.4 7.25 -24.95 M3.95 -24.4 L3.95 -20.15 4.3 -19.8 M5.9 -14.3 L6.2 -14.7 6.2 -16.9 2.55 -16.9 M6.2 -16.9 L6.2 -18.05 5.3 -18.9 4.35 -19.75 M3.95 -20.15 Q3.5 -18.3 0.45 -15.1 L-0.2 -14.5 5.9 -14.3 4.3 -11.95 2.35 -9.2 2.1 -9.2 5.4 -4.25 -5.05 -4.25 M6.2 -18.05 L11.9 -19.0 M11.2 -14.65 L6.2 -14.7 8.5 -8.5 M-4.3 -28.1 L-4.6 -27.85 -7.0 -27.85 -9.35 -25.9 -8.35 -24.4 -8.35 -24.35 -7.75 -23.5 -7.6 -23.3 -7.3 -22.8 -3.85 -27.0 M-9.1 -24.0 L-10.05 -23.25 -12.45 -21.4 -13.4 -20.65 -13.65 -20.45 M-8.6 -24.4 L-9.1 -24.0 M-3.95 -14.35 L-3.15 -13.6 -5.65 -12.05 4.3 -11.95 M-0.2 -14.5 Q-2.0 -13.15 -3.95 -14.35 L-5.55 -15.9 -9.75 -11.95 Q-9.8 -13.95 -10.8 -15.2 M-5.55 -15.9 L-7.3 -22.8 M-8.6 -24.4 L-9.35 -25.9 M-5.65 -12.05 L-5.65 -11.3 -5.65 -9.2 2.1 -9.2 M-5.75 -7.5 L-5.7 -8.9 -5.65 -11.3 M-5.7 -8.9 L-5.65 -9.2" fill="none" stroke="#2b2927" stroke-linecap="round" stroke-linejoin="round" stroke-width="1.0"/>
    <path d="M5.85 -6.95 L8.2 -6.35 8.2 -6.3 5.85 -6.95 M-5.8 -9.2 L-2.95 -9.15 -2.9 -9.05 -5.8 -9.2 M3.3 -6.0 L3.3 -6.05 5.05 -7.15 3.3 -6.0 M2.85 -1.95 L2.85 -1.9 2.8 -1.85 2.8 -1.9 2.85 -1.95 M3.35 3.05 L4.25 3.9 4.2 3.9 3.35 3.05 M-1.6 -1.15 L-1.45 1.25 -1.5 1.25 -1.6 -1.15 M-1.85 -5.35 L-1.95 -5.75 -1.85 -5.4 -1.85 -5.35" fill="#4d4946" fill-rule="evenodd" stroke="none"/>
    <path d="M5.85 -6.95 L8.2 -6.3 7.35 0.1 7.2 0.7 6.8 1.3 6.55 1.55 6.15 1.95 5.35 2.85 4.25 3.9 3.35 3.05 0.8 0.4 2.8 -1.85 2.85 -1.9 2.85 -1.95 3.1 -3.95 3.3 -5.95 3.3 -6.0 5.05 -7.15 5.85 -6.95" fill="url(#gradient6)" fill-rule="evenodd" stroke="none"/>
    <path d="M4.15 3.9 L4.2 3.95 0.35 3.35 -1.5 1.3 -1.5 1.25 0.4 3.3 4.15 3.9 M-10.25 -2.7 L-10.8 -4.75 -10.6 -5.25 -10.75 -4.7 -10.25 -2.7 M-10.4 -5.75 L-10.35 -6.0 Q-9.85 -7.25 -9.4 -7.35 L-9.15 -7.4 -9.4 -7.3 Q-9.85 -7.2 -10.35 -5.95 L-10.4 -5.75 M0.9 -5.65 L1.5 -6.2 1.55 -6.2 0.9 -5.65 M-6.35 0.55 L-6.6 -1.8 -6.3 0.55 -6.35 0.55" fill="#8a8580" fill-rule="evenodd" stroke="none"/>
    <path d="M3.3 -5.95 L3.1 -3.95 2.8 -1.9 2.8 -1.85 0.8 0.4 0.7 0.45 1.35 1.1 4.15 3.9 0.4 3.3 -1.5 1.25 -1.45 1.25 -1.6 -1.15 -1.65 -1.95 -1.85 -5.15 -1.85 -5.3 0.2 -5.1 0.6 -5.4 0.9 -5.65 1.55 -6.2 3.3 -5.95" fill="url(#gradient7)" fill-rule="evenodd" stroke="none"/>
    <path d="M-1.95 -5.75 L-1.65 -5.55 0.55 -5.4 0.2 -5.15 -1.85 -5.35 0.2 -5.15 0.55 -5.4 0.6 -5.4 0.2 -5.1 -1.85 -5.3 -1.85 -5.35 -1.85 -5.4 -1.95 -5.75 M3.1 -3.95 L2.85 -1.95 2.8 -1.9 3.1 -3.95" fill="#ffffff" fill-rule="evenodd" stroke="none"/>
    <path d="M-10.05 -1.8 L-10.25 -2.7 -10.75 -4.7 -10.6 -5.25 -10.4 -5.75 -10.35 -5.95 Q-9.85 -7.2 -9.4 -7.3 L-9.15 -7.4 -7.35 -7.8 -7.35 -7.75 -6.6 -1.8 -6.35 0.55 -7.65 0.35 -9.1 -0.55 -9.9 -1.2 -10.05 -1.8" fill="url(#gradient8)" fill-rule="evenodd" stroke="none"/>
    <path d="M-1.5 1.25 L-2.7 1.1 -6.3 0.55 -6.6 -1.8 -7.35 -7.75 -7.35 -7.8 -7.3 -7.8 -5.8 -9.2 -2.9 -9.05 -2.55 -7.8 -1.95 -5.75 -1.85 -5.35 -1.85 -5.3 -1.85 -5.15 -1.65 -1.95 -1.6 -1.15 -1.5 1.25" fill="url(#gradient9)" fill-rule="evenodd" stroke="none"/>
    <path d="M5.85 -6.95 L8.2 -6.3 7.35 0.1 7.2 0.75 6.8 1.3 6.55 1.55 6.15 1.95 5.35 2.85 4.25 3.9 4.2 3.9 4.15 3.9 0.4 3.3 -1.5 1.25 -2.7 1.1 -6.35 0.65 -7.65 0.45 -9.1 -0.5 -9.9 -1.15 -10.05 -1.8 -10.25 -2.7 -10.75 -4.7 -10.6 -5.25 -10.4 -5.75 -10.35 -5.95 Q-9.85 -7.2 -9.4 -7.3 L-9.15 -7.4 -7.35 -7.8 M5.05 -7.15 L5.85 -6.95" fill="none" stroke="#2b2927" stroke-linecap="round" stroke-linejoin="round" stroke-opacity="0.972549" stroke-width="1.0"/>
    <path d="M-7.3 -7.8 L-5.8 -9.2 -2.9 -9.05 -2.55 -7.8 -1.95 -5.75 -1.65 -5.55 0.55 -5.4 0.9 -5.65 1.55 -6.2 3.3 -6.0 3.3 -5.95 3.1 -3.95 2.85 -1.95 2.85 -1.9 2.8 -1.85 0.8 0.4 0.7 0.45 1.35 1.1 3.35 3.05 4.25 3.9 M-1.85 -5.15 L-1.65 -1.95 -1.6 -1.15 -1.5 1.25 M-1.85 -5.35 L0.2 -5.15 0.55 -5.4 0.6 -5.4 M3.3 -6.0 L5.05 -7.15 M-6.35 0.55 L-6.6 -1.8 -7.35 -7.75 M-1.95 -5.75 L-1.85 -5.35 M-6.35 0.65 L-6.35 0.55" fill="none" stroke="#2b2927" stroke-linecap="round" stroke-linejoin="round" stroke-width="1.0"/>
  </g>
  <defs>
    <radialGradient cx="0" cy="0" gradientTransform="matrix(0.0084, 0.0, 0.0, 0.0084, 0.45, -6.95)" gradientUnits="userSpaceOnUse" id="gradient0" r="819.2" spreadMethod="pad">
      <stop offset="0.0" stop-color="#8a8580"/>
      <stop offset="1.0" stop-color="#6d6965"/>
      <stop offset="1.0" stop-color="#333333"/>
    </radialGradient>
    <radialGradient cx="0" cy="0" gradientTransform="matrix(0.0087, 0.0, 0.0, 0.0087, -6.25, -25.45)" gradientUnits="userSpaceOnUse" id="gradient1" r="819.2" spreadMethod="pad">
      <stop offset="0.0" stop-color="#8a8580"/>
      <stop offset="1.0" stop-color="#6d6965"/>
      <stop offset="1.0" stop-color="#333333"/>
    </radialGradient>
    <radialGradient cx="0" cy="0" gradientTransform="matrix(0.0051, 0.0, 0.0, 0.0051, -7.05, -25.75)" gradientUnits="userSpaceOnUse" id="gradient2" r="819.2" spreadMethod="pad">
      <stop offset="0.0" stop-color="#8a8580"/>
      <stop offset="1.0" stop-color="#6d6965"/>
      <stop offset="1.0" stop-color="#333333"/>
    </radialGradient>
    <radialGradient cx="0" cy="0" gradientTransform="matrix(0.0057, 0.0, 0.0, 0.0057, 11.15, -22.3)" gradientUnits="userSpaceOnUse" id="gradient3" r="819.2" spreadMethod="pad">
      <stop offset="0.0" stop-color="#8a8580"/>
      <stop offset="1.0" stop-color="#6d6965"/>
      <stop offset="1.0" stop-color="#333333"/>
    </radialGradient>
    <radialGradient cx="0" cy="0" gradientTransform="matrix(0.0063, 0.0, 0.0, 0.0063, 10.3, -12.85)" gradientUnits="userSpaceOnUse" id="gradient4" r="819.2" spreadMethod="pad">
      <stop offset="0.0" stop-color="#8a8580"/>
      <stop offset="1.0" stop-color="#6d6965"/>
      <stop offset="1.0" stop-color="#333333"/>
    </radialGradient>
    <radialGradient cx="0" cy="0" gradientTransform="matrix(0.0053, 0.0, 0.0, 0.0053, -8.7, -10.55)" gradientUnits="userSpaceOnUse" id="gradient5" r="819.2" spreadMethod="pad">
      <stop offset="0.0" stop-color="#8a8580"/>
      <stop offset="1.0" stop-color="#6d6965"/>
      <stop offset="1.0" stop-color="#333333"/>
    </radialGradient>
    <radialGradient cx="0" cy="0" gradientTransform="matrix(0.0082, 0.0, 0.0, 0.0082, 5.7, -4.95)" gradientUnits="userSpaceOnUse" id="gradient6" r="819.2" spreadMethod="pad">
      <stop offset="0.0" stop-color="#4d4946"/>
      <stop offset="1.0" stop-color="#3c3b38"/>
      <stop offset="1.0" stop-color="#333333"/>
    </radialGradient>
    <radialGradient cx="0" cy="0" gradientTransform="matrix(0.0165, 0.0, 0.0, 0.0086, 1.35, -4.6)" gradientUnits="userSpaceOnUse" id="gradient7" r="819.2" spreadMethod="pad">
      <stop offset="0.0" stop-color="#8a8580"/>
      <stop offset="1.0" stop-color="#6d6965"/>
      <stop offset="1.0" stop-color="#333333"/>
    </radialGradient>
    <radialGradient cx="0" cy="0" gradientTransform="matrix(0.0098, 0.0, 0.0, 0.0056, -7.95, -5.65)" gradientUnits="userSpaceOnUse" id="gradient8" r="819.2" spreadMethod="pad">
      <stop offset="0.0" stop-color="#8a8580"/>
      <stop offset="1.0" stop-color="#6d6965"/>
      <stop offset="1.0" stop-color="#333333"/>
    </radialGradient>
    <radialGradient cx="0" cy="0" gradientTransform="matrix(0.0071, 0.0, 0.0, 0.0071, -4.25, -6.6)" gradientUnits="userSpaceOnUse" id="gradient9" r="819.2" spreadMethod="pad">
      <stop offset="0.0" stop-color="#4d4946"/>
      <stop offset="1.0" stop-color="#3c3b38"/>
      <stop offset="1.0" stop-color="#333333"/>
    </radialGradient>
  </defs>
</svg>
