<?xml version="1.0" encoding="UTF-8" standalone="no"?>
<svg xmlns:xlink="http://www.w3.org/1999/xlink" height="77.15px" width="275.25px" xmlns="http://www.w3.org/2000/svg">
  <g transform="matrix(1.0, 0.0, 0.0, 1.0, 136.1, 26.2)">
    <path d="M-134.6 -0.35 L-134.55 -0.45 -132.35 -0.75 -131.95 -0.75 -134.6 -0.35 M-123.95 -0.55 L-123.45 -0.55 -123.95 -0.5 -123.95 -0.55 M-126.7 -0.2 L-126.45 0.0 -132.05 0.95 -135.85 1.75 -135.65 0.75 -135.45 0.5 -134.55 0.3 -127.25 -0.4 -126.7 -0.2 M-115.35 -0.15 Q-114.8 0.0 -114.4 0.45 -113.9 0.95 -113.7 1.75 L-113.5 3.4 -115.7 3.65 Q-115.7 2.7 -116.05 2.25 -116.3 1.85 -117.0 1.85 L-121.75 1.7 -121.8 4.35 -124.1 4.6 -124.0 0.3 -119.1 -0.4 -116.7 -0.35 -115.35 -0.15 M-60.0 3.0 L-66.75 3.55 -65.85 2.75 -62.05 2.6 -60.0 2.65 -60.0 3.0 M-58.85 8.3 L-59.45 8.45 -69.45 9.45 -69.4 7.35 -66.95 6.95 -67.2 7.15 -67.2 7.55 -62.45 7.7 -62.4 6.25 -60.1 5.9 -60.15 7.75 -58.85 7.8 -58.85 8.3 M-60.25 12.25 L-61.1 12.3 -62.55 12.3 -62.55 10.85 -60.2 10.65 -60.25 12.25 M-61.45 5.4 L-61.3 5.35 -60.05 5.2 -61.45 5.4 M-64.05 4.5 L-68.5 5.15 -67.95 4.65 -63.8 4.25 -64.05 4.5 M-70.8 5.35 L-70.9 5.35 -73.1 5.55 -73.1 5.1 -70.75 4.9 -70.8 5.35 M-70.75 3.9 L-73.05 4.1 -73.15 4.0 -73.2 3.6 -70.85 3.3 -70.75 3.9 M-70.85 8.25 L-71.0 9.6 -81.25 10.1 -81.35 9.85 -81.45 9.35 -79.15 8.95 -78.65 9.45 -77.55 9.7 -74.9 9.75 -73.9 9.6 Q-73.45 9.45 -73.35 9.1 L-73.15 7.9 -70.85 7.55 -70.85 8.25 M-72.8 0.95 L-80.5 1.35 -79.95 1.0 -77.8 0.65 -74.15 0.75 -72.8 0.95 M-79.2 5.9 L-81.45 6.0 -81.45 5.85 -79.2 5.65 -79.2 5.9 M-78.9 3.5 L-81.4 4.0 -81.3 3.65 -78.85 3.45 -78.9 3.5 M-77.15 1.85 L-76.65 1.8 -75.8 1.85 -77.15 1.85 M-79.25 7.0 L-81.5 7.2 -81.5 6.85 -79.25 6.75 -79.25 7.0 M-80.8 11.05 Q-77.35 10.95 -72.8 11.0 L-72.5 11.0 -79.45 11.75 -79.8 11.7 -80.8 11.05 M-84.95 3.95 L-82.75 3.75 -82.75 4.25 -85.1 4.8 Q-84.95 4.5 -84.95 3.95 M-82.8 6.05 L-84.9 6.2 -84.25 6.0 -82.8 5.9 -82.8 6.05 M-83.3 1.45 L-88.45 1.65 -92.65 1.9 -92.3 1.05 Q-91.8 0.55 -91.15 0.35 L-89.45 0.25 -86.1 0.35 -84.15 0.75 Q-83.6 1.0 -83.3 1.45 M-90.75 3.55 L-93.0 3.8 -93.0 3.65 -90.75 3.5 -90.75 3.55 M-89.1 5.5 L-88.8 5.5 -92.75 6.0 -93.05 4.75 -90.7 4.5 -90.45 5.0 Q-90.1 5.45 -89.1 5.5 M-90.05 2.55 L-92.95 2.85 -92.95 2.65 -89.4 2.35 -90.05 2.55 M-87.5 7.6 L-89.2 7.6 -89.65 7.55 -85.45 7.1 -85.55 7.15 -86.25 7.5 -87.5 7.6 M-90.3 9.45 L-89.25 9.55 -88.85 9.55 -92.7 10.25 -92.8 10.15 -93.0 9.3 -90.8 9.1 -90.3 9.45 M-89.75 11.65 L-91.2 11.45 -83.8 11.1 Q-84.65 11.8 -86.4 11.75 L-89.75 11.65 M-82.85 7.35 L-85.05 7.55 -85.05 7.1 -82.85 6.9 -82.85 7.35 M-85.1 8.75 L-82.9 8.6 -85.2 9.0 -85.1 8.75 M-83.15 10.15 L-86.25 10.2 -85.85 10.1 -82.95 9.65 -83.15 10.15 M-94.6 1.95 L-99.35 2.1 -100.6 2.05 -101.65 2.15 -101.85 2.35 -104.65 2.5 -104.35 1.3 Q-104.0 0.6 -103.2 0.25 L-101.15 -0.05 -97.85 0.05 Q-96.0 0.1 -95.25 0.85 -94.85 1.3 -94.6 1.95 M-94.45 3.05 L-96.6 3.25 -96.6 2.9 -94.45 2.8 -94.45 3.05 M-94.7 6.1 L-97.9 6.35 -98.5 6.25 -100.85 6.15 Q-101.9 6.15 -102.15 6.6 L-104.85 6.65 -104.85 6.2 -95.3 5.05 -94.95 5.45 -94.7 6.1 M-98.3 4.15 L-96.8 4.3 -102.4 5.05 -101.85 4.45 -98.8 4.1 -98.3 4.15 M-96.2 7.5 L-96.8 7.75 -96.8 7.6 -96.2 7.5 M-100.55 9.7 L-100.05 9.7 -102.55 10.3 -102.0 10.05 -100.55 9.7 M-98.9 11.15 L-101.2 11.35 -101.45 11.35 -102.5 11.25 -100.2 11.15 -98.9 11.15 M-95.0 10.35 L-98.85 10.15 -94.7 9.5 -95.0 10.35 M-104.75 3.5 L-102.45 3.3 -102.45 3.55 -102.45 3.8 -104.8 4.1 -104.75 3.5 M-104.8 4.8 L-102.5 4.5 -102.5 5.0 -104.8 5.3 -104.8 4.8 M-106.35 5.5 L-111.9 6.25 -111.9 5.8 -106.35 5.0 -106.35 5.5 M-109.25 6.8 L-108.75 6.7 -106.4 6.45 -106.4 6.7 -109.25 6.8 M-102.45 8.6 L-104.5 8.7 -104.8 8.75 -104.9 8.2 -102.6 7.95 -102.45 8.6 M-115.85 4.5 L-113.55 4.3 -113.75 5.25 Q-116.6 5.75 -118.45 6.65 L-124.2 7.35 -124.15 5.45 -121.8 5.2 -117.05 5.35 Q-116.35 5.35 -116.1 4.9 L-115.85 4.5 M-111.85 4.65 L-109.55 4.7 -111.85 4.95 -111.85 4.65 M-118.35 7.05 L-118.2 7.0 -114.45 6.25 -114.95 6.55 -114.9 6.65 -118.35 7.05 M-115.7 8.85 L-115.95 8.05 -113.55 7.9 -113.5 8.5 -115.7 8.85 M-126.1 0.55 L-125.85 0.55 -125.6 1.1 Q-125.3 1.95 -125.3 3.4 L-125.35 4.8 -127.65 5.1 -127.65 3.6 Q-127.6 2.9 -127.7 2.55 L-127.95 1.95 -128.45 1.7 -129.3 1.5 -130.75 1.5 -126.1 0.55 M-127.7 6.45 L-127.7 5.9 -125.4 5.6 -125.4 6.8 -125.45 7.35 -127.85 7.5 Q-127.7 7.05 -127.7 6.45 M-129.45 8.3 L-128.55 8.25 -126.25 8.15 -129.95 9.5 -135.55 9.4 -135.9 8.5 -130.55 8.3 -129.45 8.3 M-121.9 8.05 L-121.9 8.25 -124.2 8.8 -124.2 8.55 -123.75 8.35 -121.9 8.05 M-125.85 9.15 L-126.95 9.4 -125.8 9.05 -125.85 9.15 M-124.25 9.7 L-124.15 9.65 -121.9 9.1 -121.95 9.6 -124.25 9.7 M-133.55 2.25 L-133.8 3.45 -133.85 6.0 -136.05 6.25 -135.95 3.15 -135.95 2.7 -133.5 2.05 -133.55 2.25 M-136.1 7.05 L-133.85 6.75 -133.7 7.45 -133.65 7.6 -136.0 7.65 -136.1 7.05" fill="#796755" fill-rule="evenodd" stroke="none"/>
    <path d="M-28.55 -11.3 Q-20.1 -9.65 -10.35 -8.75 L9.8 -7.75 10.9 -7.75" fill="none" stroke="#3c3c3c" stroke-linecap="round" stroke-linejoin="round" stroke-width="2.0"/>
    <path d="M2.6 -25.2 Q9.05 -24.15 13.1 -21.2 14.6 -20.1 18.75 -15.65 21.95 -12.3 25.25 -11.0 29.6 -9.25 36.75 -9.5 L37.85 -9.55 Q38.65 -9.6 38.85 -8.65 39.0 -7.8 38.6 -6.85 L37.9 -5.95 Q36.95 -5.2 35.0 -5.25 L29.4 -5.35 Q23.8 -5.35 20.0 -8.0 L18.2 -9.5 Q9.25 -19.4 0.05 -19.0 9.25 -19.4 18.2 -9.5 L20.0 -8.0 Q23.8 -5.35 29.4 -5.35 22.65 -1.6 15.6 -5.75 L13.2 -7.8 Q3.8 -15.4 -0.35 -12.8 -3.45 -10.55 -6.7 -12.0 L-6.7 -12.35 Q-5.15 -18.7 0.05 -19.0 -2.1 -23.85 2.6 -25.2 M10.6 -13.6 L10.15 -14.65 Q9.75 -15.05 9.15 -15.05 8.55 -15.05 8.1 -14.65 7.7 -14.2 7.7 -13.6 7.7 -13.0 8.1 -12.6 8.55 -12.15 9.15 -12.15 9.75 -12.15 10.15 -12.6 10.6 -13.0 10.6 -13.6 M7.25 -19.5 Q7.85 -19.5 8.25 -19.95 L8.7 -20.95 Q8.7 -21.55 8.25 -22.0 7.85 -22.4 7.25 -22.4 6.65 -22.4 6.2 -22.0 5.8 -21.55 5.8 -20.95 5.8 -20.35 6.2 -19.95 6.65 -19.5 7.25 -19.5" fill="#3a3a3a" fill-rule="evenodd" stroke="none"/>
    <path d="M10.6 -13.6 Q10.6 -13.0 10.15 -12.6 9.75 -12.15 9.15 -12.15 8.55 -12.15 8.1 -12.6 7.7 -13.0 7.7 -13.6 7.7 -14.2 8.1 -14.65 8.55 -15.05 9.15 -15.05 9.75 -15.05 10.15 -14.65 L10.6 -13.6" fill="#8e9338" fill-rule="evenodd" stroke="none"/>
    <path d="M7.25 -19.5 Q6.65 -19.5 6.2 -19.95 5.8 -20.35 5.8 -20.95 5.8 -21.55 6.2 -22.0 6.65 -22.4 7.25 -22.4 7.85 -22.4 8.25 -22.0 8.7 -21.55 8.7 -20.95 L8.25 -19.95 Q7.85 -19.5 7.25 -19.5" fill="#4a7738" fill-rule="evenodd" stroke="none"/>
    <path d="M10.6 -13.6 Q10.6 -13.0 10.15 -12.6 9.75 -12.15 9.15 -12.15 8.55 -12.15 8.1 -12.6 7.7 -13.0 7.7 -13.6 7.7 -14.2 8.1 -14.65 8.55 -15.05 9.15 -15.05 9.75 -15.05 10.15 -14.65 L10.6 -13.6 M7.25 -19.5 Q6.65 -19.5 6.2 -19.95 5.8 -20.35 5.8 -20.95 5.8 -21.55 6.2 -22.0 6.65 -22.4 7.25 -22.4 7.85 -22.4 8.25 -22.0 8.7 -21.55 8.7 -20.95 L8.25 -19.95 Q7.85 -19.5 7.25 -19.5" fill="none" stroke="#232323" stroke-linecap="round" stroke-linejoin="round" stroke-width="1.0"/>
    <path d="M29.4 -5.35 L35.0 -5.25 Q36.95 -5.2 37.9 -5.95 L38.6 -6.85 Q39.0 -7.8 38.85 -8.65 38.65 -9.6 37.85 -9.55 L36.75 -9.5 Q29.6 -9.25 25.25 -11.0 21.95 -12.3 18.75 -15.65 14.6 -20.1 13.1 -21.2 9.05 -24.15 2.6 -25.2 M0.05 -19.0 Q9.25 -19.4 18.2 -9.5 L20.0 -8.0 Q23.8 -5.35 29.4 -5.35 22.65 -1.6 15.6 -5.75 L13.2 -7.8 Q3.8 -15.4 -0.35 -12.8 -3.45 -10.55 -6.7 -12.0" fill="none" stroke="#232323" stroke-linecap="round" stroke-linejoin="round" stroke-width="2.0"/>
    <path d="M2.6 -25.2 Q-2.1 -23.85 0.05 -19.0 -5.15 -18.7 -6.7 -12.35" fill="none" stroke="#2e2e2e" stroke-linecap="round" stroke-linejoin="round" stroke-width="2.0"/>
    <path d="M38.85 -4.45 L39.15 -3.9 43.55 5.25 40.8 16.5 45.5 29.55" fill="none" stroke="#414141" stroke-linecap="round" stroke-linejoin="round" stroke-width="2.0"/>
    <path d="M127.0 36.5 L119.2 42.65 114.35 35.75 127.0 36.5 M122.3 44.1 L128.25 39.0 133.55 39.3 128.65 42.5 122.3 44.1 M48.2 31.75 L44.3 35.05 40.7 31.3 48.2 31.75 M80.4 33.7 L76.4 37.05 72.9 33.25 80.4 33.7 M6.75 29.25 L1.1 35.55 -5.9 28.5 6.75 29.25 M-2.1 36.6 L-8.25 34.3 -12.65 30.5 -7.35 30.8 -2.1 36.6" fill="#3b3b3b" fill-rule="evenodd" stroke="none"/>
    <path d="M127.0 36.5 L138.15 36.95 135.5 39.4 133.55 39.3 128.25 39.0 122.3 44.1 119.9 47.05 117.05 47.75 119.2 42.65 127.0 36.5 M1.1 35.55 L2.65 40.85 -0.1 39.85 -2.1 36.6 -7.35 30.8 -12.65 30.5 -14.6 30.4 -16.95 27.65 -5.9 28.5 1.1 35.55" fill="#5a5a5a" fill-rule="evenodd" stroke="none"/>
    <path d="M119.2 42.65 L117.05 47.75 116.1 49.95 105.6 48.1 99.45 42.7 99.0 37.3 94.55 34.45 114.35 35.75 119.2 42.65 M105.8 38.35 L101.5 38.0 101.9 41.7 106.65 45.7 114.55 47.45 111.0 41.65 105.8 38.35 M18.7 36.45 L19.3 33.15 15.0 32.85 9.4 35.55 5.15 40.85 13.25 40.3 18.7 36.45 M1.1 35.55 L6.75 29.25 26.55 30.35 Q24.2 31.5 21.8 32.6 L20.75 37.9 14.0 42.6 3.4 43.15 2.65 40.85 1.1 35.55" fill="#4d4d4d" fill-rule="evenodd" stroke="none"/>
    <path d="M105.8 38.35 L111.0 41.65 114.55 47.45 106.65 45.7 101.9 41.7 101.5 38.0 105.8 38.35 M18.7 36.45 L13.25 40.3 5.15 40.85 9.4 35.55 15.0 32.85 19.3 33.15 18.7 36.45" fill="#80b3cc" fill-rule="evenodd" stroke="none"/>
    <path d="M133.55 39.3 L135.5 39.4 138.15 36.95 127.0 36.5 119.2 42.65 117.05 47.75 119.9 47.05 122.3 44.1 128.25 39.0 133.55 39.3 128.65 42.5 122.3 44.1 M114.35 35.75 L94.55 34.45 99.0 37.3 99.45 42.7 105.6 48.1 116.1 49.95 117.05 47.75 M105.8 38.35 L101.5 38.0 101.9 41.7 106.65 45.7 114.55 47.45 111.0 41.65 105.8 38.35 M114.35 35.75 L119.2 42.65 M127.0 36.5 L114.35 35.75 M48.2 31.75 L44.3 35.05 40.7 31.3 48.2 31.75 M80.4 33.7 L72.9 33.25 76.4 37.05 80.4 33.7 M18.7 36.45 L13.25 40.3 5.15 40.85 9.4 35.55 15.0 32.85 19.3 33.15 18.7 36.45 M6.75 29.25 L1.1 35.55 2.65 40.85 3.4 43.15 14.0 42.6 20.75 37.9 21.8 32.6 Q24.2 31.5 26.55 30.35 L6.75 29.25 -5.9 28.5 1.1 35.55 M2.65 40.85 L-0.1 39.85 -2.1 36.6 -8.25 34.3 -12.65 30.5 -14.6 30.4 -16.95 27.65 -5.9 28.5 M-12.65 30.5 L-7.35 30.8 -2.1 36.6" fill="none" stroke="#232323" stroke-linecap="round" stroke-linejoin="round" stroke-width="2.0"/>
  </g>
</svg>
