<?xml version="1.0" encoding="UTF-8" standalone="no"?>
<svg xmlns:xlink="http://www.w3.org/1999/xlink" height="24.1px" width="41.0px" xmlns="http://www.w3.org/2000/svg">
  <g transform="matrix(1.0, 0.0, 0.0, 1.0, 20.5, 2.9)">
    <path d="M-5.3 19.05 L-5.5 18.8 -2.75 15.95 2.7 15.95 5.45 18.8 5.2 19.05 3.8 20.7 -3.85 20.7 -5.3 19.05" fill="#e5e5da" fill-rule="evenodd" stroke="none"/>
    <path d="M20.0 0.35 Q19.9 3.6 18.85 6.05 L18.4 6.95 18.85 6.95 18.85 8.15 12.6 6.95 9.4 10.65 3.75 10.8 2.15 9.75 -2.15 9.75 -3.75 10.8 -9.4 10.65 -12.65 6.95 -18.85 8.15 -18.85 6.95 -18.35 6.95 -18.85 6.05 Q-19.95 3.6 -20.0 0.35 L-20.0 -0.1 -18.2 -0.75 -15.9 2.6 -13.45 1.35 -11.65 0.85 -9.55 2.45 -7.5 -2.4 -3.95 -1.8 -1.1 1.6 1.95 1.6 3.05 3.75 6.55 5.65 9.15 0.7 11.75 -0.55 14.95 0.35 16.2 2.6 20.0 -0.1 20.0 0.35 M10.1 8.15 L11.0 5.6 13.0 4.95 14.8 4.95 16.2 2.6 14.8 4.95 13.0 4.95 11.0 5.6 10.1 8.15 M6.3 9.4 L7.2 7.85 6.55 5.65 7.2 7.85 6.3 9.4 M-3.7 8.15 L-5.05 6.95 -4.95 4.25 -9.55 2.45 -4.95 4.25 -5.05 6.95 -3.7 8.15 M-16.5 4.95 L-15.9 2.6 -16.5 4.95" fill="#000000" fill-opacity="0.101960786" fill-rule="evenodd" stroke="none"/>
    <path d="M-18.85 8.15 L-12.65 6.95 -9.4 10.65 -3.75 10.8 -2.15 9.75 2.15 9.75 3.75 10.8 9.4 10.65 12.6 6.95 18.85 8.15 16.2 14.25 10.15 19.05 5.2 19.05 5.45 18.8 2.7 15.95 -2.75 15.95 -5.5 18.8 -5.3 19.05 -10.2 19.05 -16.3 14.25 -18.85 8.15" fill="url(#gradient0)" fill-rule="evenodd" stroke="none"/>
    <path d="M18.85 8.15 L12.6 6.95 9.4 10.65 3.75 10.8 2.15 9.75 -2.15 9.75 -3.75 10.8 -9.4 10.65 -12.65 6.95 -18.85 8.15 -16.3 14.25 -10.2 19.05 -5.3 19.05 M5.2 19.05 L10.15 19.05 16.2 14.25 18.85 8.15" fill="none" stroke="#575757" stroke-linecap="round" stroke-linejoin="round" stroke-width="1.0"/>
    <path d="M-5.3 19.05 L-5.5 18.8 -2.75 15.95 2.7 15.95 5.45 18.8 5.2 19.05 3.8 20.7 -3.85 20.7 -5.3 19.05" fill="none" stroke="#9b9784" stroke-linecap="round" stroke-linejoin="round" stroke-width="1.0"/>
    <path d="M18.4 6.95 L18.85 6.05 Q19.9 3.6 20.0 0.35 M-18.35 6.95 L-18.85 6.05 Q-19.95 3.6 -20.0 0.35" fill="none" stroke="#000000" stroke-linecap="round" stroke-linejoin="round" stroke-width="1.0"/>
    <path d="M20.0 0.35 L20.0 -0.1 16.2 2.6 14.8 4.95 13.0 4.95 11.0 5.6 10.1 8.15 M16.2 2.6 L14.95 0.35 11.75 -0.55 9.15 0.7 6.55 5.65 7.2 7.85 6.3 9.4 M6.55 5.65 L3.05 3.75 1.95 1.6 -1.1 1.6 -3.95 -1.8 -7.5 -2.4 -9.55 2.45 -4.95 4.25 -5.05 6.95 -3.7 8.15 M-20.0 0.35 L-20.0 -0.1 -18.2 -0.75 -15.9 2.6 -13.45 1.35 -11.65 0.85 -9.55 2.45 M-15.9 2.6 L-16.5 4.95" fill="none" stroke="#000000" stroke-linecap="round" stroke-linejoin="round" stroke-opacity="0.5019608" stroke-width="1.0"/>
  </g>
  <defs>
    <linearGradient gradientTransform="matrix(0.023, 0.0, 0.0, -0.023, -0.05, 13.0)" gradientUnits="userSpaceOnUse" id="gradient0" spreadMethod="pad" x1="-819.2" x2="819.2">
      <stop offset="0.0" stop-color="#707070"/>
      <stop offset="0.4980392156862745" stop-color="#a9a9a9"/>
      <stop offset="1.0" stop-color="#707070"/>
    </linearGradient>
  </defs>
</svg>
