<?xml version="1.0" encoding="UTF-8" standalone="no"?>
<svg xmlns:ffdec="https://www.free-decompiler.com/flash" xmlns:xlink="http://www.w3.org/1999/xlink" ffdec:objectType="shape" height="48.55px" width="31.5px" xmlns="http://www.w3.org/2000/svg">
  <g transform="matrix(1.0, 0.0, 0.0, 1.0, 2.15, 16.35)">
    <path d="M22.3 3.75 L23.15 3.2 25.3 3.3 27.95 7.6 28.35 11.15 23.9 10.45 21.3 7.9 22.45 6.45 21.4 4.3 22.3 3.75 M28.85 15.7 L28.0 20.1 27.1 20.1 26.25 20.1 26.65 22.25 26.5 22.85 25.45 22.85 25.05 25.5 23.9 25.5 22.55 24.8 20.75 23.85 20.65 22.2 19.2 22.15 17.85 19.5 15.45 19.25 16.0 18.25 17.15 16.0 15.45 16.05 16.25 14.7 17.0 13.35 19.1 13.45 20.75 12.15 20.4 9.55 20.35 9.15 20.8 8.55 20.85 8.55 23.65 11.25 27.65 11.95 28.85 15.7 M20.85 12.9 L20.75 12.15 20.85 12.9 M20.55 16.6 L21.85 15.0 20.55 16.6 20.05 17.15 19.65 17.65 20.55 16.6 M20.5 20.55 L19.25 18.15 19.65 17.65 19.25 18.15 20.5 20.55 20.55 20.6 20.5 20.55 M25.45 22.85 L20.55 20.6 25.45 22.85 M20.55 20.6 L20.65 22.2 20.55 20.6 M20.05 17.15 L18.8 15.9 17.15 16.0 18.8 15.9 20.05 17.15" fill="#511717" fill-rule="evenodd" stroke="none"/>
    <path d="M3.05 21.5 L1.55 17.75 3.05 17.75 4.35 20.95 3.05 21.5 M-0.9 6.75 L0.2 1.5 2.5 2.35 1.4 7.4 -0.9 6.75" fill="#ff0000" fill-rule="evenodd" stroke="none"/>
    <path d="M22.3 3.75 L21.4 4.3 22.45 6.45 21.3 7.9 20.85 8.45 20.8 8.45 Q20.6 7.0 19.85 6.35 18.8 5.4 17.15 5.4 15.5 5.3 14.7 6.4 L13.3 5.75 11.75 5.1 13.5 2.75 Q16.35 2.0 19.15 2.75 L22.3 3.75 M23.9 25.5 L23.25 28.75 Q22.85 30.4 21.25 31.1 L19.8 31.55 Q17.0 32.1 14.35 30.7 12.75 29.8 12.65 27.75 L12.4 25.05 16.15 24.95 19.85 24.85 22.55 24.8 23.9 25.5 M19.8 31.55 L19.85 24.85 19.8 31.55" fill="#3a0606" fill-rule="evenodd" stroke="none"/>
    <path d="M21.3 7.9 L23.9 10.45 28.35 11.15 28.45 12.05 28.85 15.6 27.7 11.95 27.65 11.85 23.65 11.15 20.85 8.45 21.3 7.9 M27.1 20.1 L26.65 22.25 26.25 20.1 27.1 20.1 M12.4 25.05 L11.85 25.05 10.25 23.45 11.2 23.1 11.05 22.1 14.8 22.75 16.15 24.95 12.4 25.05 M28.45 12.05 L27.7 11.95 28.45 12.05 M20.8 8.45 L20.35 9.05 20.35 9.15 20.4 9.55 20.75 12.15 19.1 13.45 17.0 13.35 16.15 13.0 14.35 11.55 15.05 8.75 13.75 8.55 14.7 6.4 Q15.5 5.3 17.15 5.4 18.8 5.4 19.85 6.35 20.6 7.0 20.8 8.45" fill="#311616" fill-rule="evenodd" stroke="none"/>
    <path d="M2.65 -1.5 L4.3 -1.0 7.75 0.0 7.75 0.05 7.9 0.3 8.95 3.8 6.1 4.55 5.0 6.95 6.1 4.55 8.95 3.8 7.9 0.3 8.3 1.1 11.35 1.05 13.45 2.75 13.5 2.75 11.75 5.1 9.8 4.2 6.45 5.15 5.65 7.05 5.0 6.95 4.25 6.8 3.6 9.65 4.3 9.8 5.0 9.95 5.0 11.5 1.15 11.5 -0.45 11.5 -1.65 6.55 -0.9 6.75 1.4 7.4 2.5 2.35 0.2 1.5 -1.2 0.8 0.9 -2.05 2.65 -1.5 M10.25 23.45 L5.6 25.1 3.05 23.75 2.4 22.15 3.05 21.5 4.35 20.95 3.05 17.75 1.55 17.75 0.9 17.6 0.15 14.7 1.7 13.7 2.25 15.7 4.8 17.75 4.85 17.75 5.7 17.8 7.7 17.85 7.75 17.9 9.35 20.0 10.7 20.05 11.05 22.1 11.2 23.1 10.25 23.45 M8.3 1.1 L9.8 4.2 8.3 1.1 M-0.45 11.5 L4.45 10.9 4.3 9.8 4.45 10.9 -0.45 11.5 M11.2 23.1 L10.2 20.55 9.0 20.5 7.65 18.5 4.85 17.75 7.65 18.5 9.0 20.5 10.2 20.55 11.2 23.1" fill="#231616" fill-rule="evenodd" stroke="none"/>
    <path d="M1.7 13.7 L1.15 11.5 5.0 11.5 5.0 9.95 6.1 10.1 8.5 10.55 8.5 12.8 5.15 14.6 5.7 17.8 4.85 17.75 4.8 17.75 2.25 15.7 1.7 13.7 M11.75 5.1 L13.3 5.75 13.25 5.8 13.3 5.75 13.25 5.8 12.0 8.2 6.65 7.25 5.65 7.05 6.45 5.15 9.8 4.2 11.75 5.1" fill="#271c1c" fill-rule="evenodd" stroke="none"/>
    <path d="M16.0 18.25 L15.45 19.25 17.85 19.5 19.2 22.15 20.65 22.2 20.75 23.85 22.55 24.8 19.85 24.85 16.15 24.95 14.8 22.75 11.05 22.1 10.7 20.05 9.35 20.0 7.75 17.9 8.4 17.95 16.0 18.25 M13.3 5.75 L14.7 6.4 13.75 8.55 12.0 8.2 13.25 5.8 13.3 5.75 M14.35 11.55 L16.15 13.0 17.0 13.35 16.25 14.7 7.7 14.65 5.15 14.6 8.5 12.8 8.5 10.55 14.35 11.55" fill="#1e1313" fill-rule="evenodd" stroke="none"/>
    <path d="M16.0 18.25 L8.4 17.95 7.75 17.9 7.7 17.85 5.7 17.8 5.15 14.6 7.7 14.65 16.25 14.7 15.45 16.05 17.15 16.0 16.0 18.25 M12.0 8.2 L13.75 8.55 15.05 8.75 14.35 11.55 8.5 10.55 6.1 10.1 5.0 9.95 4.3 9.8 3.6 9.65 4.25 6.8 5.0 6.95 5.65 7.05 6.65 7.25 12.0 8.2 M6.1 10.1 L6.65 7.25 6.1 10.1 M8.4 17.95 L7.7 14.65 8.4 17.95" fill="#3a2a2a" fill-rule="evenodd" stroke="none"/>
    <path d="M13.25 5.8 L13.3 5.75 M7.9 0.3 L7.75 0.05 M5.0 6.95 L6.1 4.55 8.95 3.8 7.9 0.3 M4.3 9.8 L4.45 10.9 -0.45 11.5 M4.85 17.75 L7.65 18.5 9.0 20.5 10.2 20.55 11.2 23.1" fill="none" stroke="#511717" stroke-linecap="round" stroke-linejoin="round" stroke-width="1.0"/>
    <path d="M2.65 -1.5 L4.3 -1.0 7.75 0.0 7.75 0.05 M0.2 1.5 L-1.2 0.8 0.9 -2.05 2.65 -1.5 M23.9 25.5 L23.25 28.75 Q22.85 30.4 21.25 31.1 L19.8 31.55 Q17.0 32.1 14.35 30.7 12.75 29.8 12.65 27.75 L12.4 25.05 11.85 25.05 10.25 23.45 5.6 25.1 3.05 23.75 2.4 22.15 3.05 21.5 1.55 17.75 0.9 17.6 0.15 14.7 1.7 13.7 1.15 11.5 -0.45 11.5 -1.65 6.55 -0.9 6.75 0.2 1.5 2.5 2.35 1.4 7.4 -0.9 6.75 M21.3 7.9 L20.85 8.45 20.8 8.45 Q20.6 7.0 19.85 6.35 18.8 5.4 17.15 5.4 15.5 5.3 14.7 6.4 L13.3 5.75 13.25 5.8 12.0 8.2 M20.5 20.55 L20.55 20.6 M7.75 17.9 L9.35 20.0 10.7 20.05 11.05 22.1 14.8 22.75 16.15 24.95 19.85 24.85 22.55 24.8 M11.75 5.1 L13.3 5.75 M13.75 8.55 L14.7 6.4 M13.5 2.75 L11.75 5.1 9.8 4.2 6.45 5.15 5.65 7.05 M7.9 0.3 L8.3 1.1 11.35 1.05 13.45 2.75 13.5 2.75 Q16.35 2.0 19.15 2.75 L22.3 3.75 M14.35 11.55 L16.15 13.0 17.0 13.35 19.1 13.45 20.75 12.15 M9.8 4.2 L8.3 1.1 M1.15 11.5 L5.0 11.5 5.0 9.95 M6.65 7.25 L6.1 10.1 M5.7 17.8 L4.85 17.75 4.8 17.75 2.25 15.7 1.7 13.7 M11.2 23.1 L11.05 22.1 M5.15 14.6 L8.5 12.8 8.5 10.55 M7.7 17.85 L7.75 17.9 M7.7 14.65 L8.4 17.95 M1.55 17.75 L3.05 17.75 4.35 20.95 3.05 21.5 M10.25 23.45 L11.2 23.1 M19.85 24.85 L19.8 31.55 M12.4 25.05 L16.15 24.95" fill="none" stroke="#170505" stroke-linecap="round" stroke-linejoin="round" stroke-width="1.0"/>
    <path d="M28.35 11.15 L27.95 7.6 25.3 3.3 23.15 3.2 22.3 3.75 21.4 4.3 22.45 6.45 21.3 7.9 23.9 10.45 28.35 11.15 28.45 12.05 28.85 15.6 28.85 15.7 M27.1 20.1 L26.65 22.25 26.5 22.85 25.45 22.85 25.05 25.5 23.9 25.5 22.55 24.8 20.75 23.85 20.65 22.2 19.2 22.15 17.85 19.5 15.45 19.25 16.0 18.25 17.15 16.0 15.45 16.05 16.25 14.7 17.0 13.35 M20.8 8.45 L20.35 9.05 20.35 9.15 M20.4 9.55 L20.75 12.15 20.85 12.9 M21.85 15.0 L20.55 16.6 20.05 17.15 19.65 17.65 19.25 18.15 20.5 20.55 M20.55 20.6 L25.45 22.85 M20.65 22.2 L20.55 20.6 M17.15 16.0 L18.8 15.9 20.05 17.15" fill="none" stroke="#1c0f0f" stroke-linecap="round" stroke-linejoin="round" stroke-width="1.0"/>
    <path d="M16.0 18.25 L8.4 17.95 7.75 17.9 M12.0 8.2 L13.75 8.55 15.05 8.75 14.35 11.55 8.5 10.55 6.1 10.1 5.0 9.95 4.3 9.8 3.6 9.65 4.25 6.8 5.0 6.95 5.65 7.05 6.65 7.25 12.0 8.2 M7.7 17.85 L5.7 17.8 5.15 14.6 7.7 14.65 16.25 14.7" fill="none" stroke="#190101" stroke-linecap="round" stroke-linejoin="round" stroke-width="1.0"/>
    <path d="M27.7 11.95 L28.45 12.05 M20.85 8.55 L23.65 11.25 27.65 11.95 27.7 11.95 M26.25 20.1 L26.65 22.25 M27.65 11.95 L28.85 15.7" fill="none" stroke="#7e2020" stroke-linecap="round" stroke-linejoin="round" stroke-width="1.0"/>
    <path d="M4.3 -1.0 L-0.1 -15.85 M2.65 -1.5 L0.95 -7.0" fill="none" stroke="#000000" stroke-linecap="round" stroke-linejoin="round" stroke-opacity="0.49803922" stroke-width="1.0"/>
    <path d="M28.35 11.15 L27.95 7.6 25.3 3.3 23.15 3.2 21.4 4.3 22.45 6.45 21.3 7.9 23.9 10.45 28.35 11.15 28.85 15.6 28.0 20.0 27.1 20.0 26.5 22.85 25.45 22.85 25.05 25.5 23.9 25.5 20.75 23.85 20.65 22.2 19.2 22.15 17.85 19.5 15.45 19.25 17.15 16.0 15.45 16.05 17.0 13.35 M20.8 8.45 L20.35 9.05 21.05 14.2 21.9 14.95 22.7 15.65 24.55 19.15 26.2 20.0 27.1 20.0 M25.45 22.85 L20.55 20.6 20.65 22.2 M20.55 20.6 L19.25 18.15 20.05 17.15 18.8 15.9 17.15 16.0 M20.05 17.15 L21.9 14.95" fill="none" stroke="#1c0f0f" stroke-linecap="round" stroke-linejoin="round" stroke-width="1.0"/>
    <path d="M23.9 6.85 L26.4 7.35 M24.3 9.7 L27.15 10.2" fill="none" stroke="#ff0000" stroke-linecap="round" stroke-linejoin="round" stroke-width="1.0"/>
    <path d="M20.7 26.3 L20.7 23.8 24.25 23.8 24.25 26.3 24.25 28.75 20.7 28.75 20.7 26.3 Q22.6 27.55 24.25 26.3 22.6 27.55 20.7 26.3 M28.45 24.2 Q27.55 24.4 25.4 22.75 27.55 24.4 28.45 24.2 L28.1 27.15 24.9 26.75 25.4 22.75 25.6 20.95 28.8 21.35 28.45 24.2 M11.8 26.3 L11.8 23.8 15.35 23.8 15.35 26.3 15.35 28.75 11.8 28.75 11.8 26.3 Q13.7 27.55 15.35 26.3 13.7 27.55 11.8 26.3 M16.25 26.3 L16.25 23.8 19.8 23.8 19.8 26.3 19.8 28.75 16.25 28.75 16.25 26.3 Q18.15 27.55 19.8 26.3 18.15 27.55 16.25 26.3" fill="#2c1c1c" fill-rule="evenodd" stroke="none"/>
    <path d="M20.7 26.3 L20.7 23.8 24.25 23.8 24.25 26.3 24.25 28.75 20.7 28.75 20.7 26.3 Q22.6 27.55 24.25 26.3 M25.4 22.75 Q27.55 24.4 28.45 24.2 L28.8 21.35 25.6 20.95 25.4 22.75 24.9 26.75 28.1 27.15 28.45 24.2 M11.8 26.3 L11.8 23.8 15.35 23.8 15.35 26.3 15.35 28.75 11.8 28.75 11.8 26.3 Q13.7 27.55 15.35 26.3 M16.25 26.3 L16.25 23.8 19.8 23.8 19.8 26.3 19.8 28.75 16.25 28.75 16.25 26.3 Q18.15 27.55 19.8 26.3" fill="none" stroke="#171611" stroke-linecap="round" stroke-linejoin="round" stroke-width="1.0"/>
  </g>
</svg>
