<?xml version="1.0" encoding="UTF-8" standalone="no"?>
<svg xmlns:ffdec="https://www.free-decompiler.com/flash" xmlns:xlink="http://www.w3.org/1999/xlink" ffdec:objectType="shape" height="5.6px" width="10.5px" xmlns="http://www.w3.org/2000/svg">
  <g transform="matrix(1.0, 0.0, 0.0, 1.0, -5.45, 1.9)">
    <path d="M14.15 -1.3 Q14.45 -1.6 15.45 -0.9 L14.8 0.8 Q13.9 2.15 11.85 2.9 L10.7 3.15 9.25 3.05 7.5 2.5 6.3 1.65 Q5.9 1.25 5.95 0.9 L6.4 0.4 Q6.6 0.2 7.05 0.55 L8.45 1.5 10.7 1.8 11.1 1.6 Q12.75 1.15 13.3 0.1 L14.15 -1.3" fill="#4f3f3f" fill-rule="evenodd" stroke="none"/>
    <path d="M14.15 -1.3 L13.3 0.1 Q12.75 1.15 11.1 1.6 L10.7 1.8 8.45 1.5 7.05 0.55 Q6.6 0.2 6.4 0.4 L5.95 0.9 Q5.9 1.25 6.3 1.65 L7.5 2.5 9.25 3.05 10.7 3.15 11.85 2.9 Q13.9 2.15 14.8 0.8 L15.45 -0.9 Q14.45 -1.6 14.15 -1.3 Z" fill="none" stroke="#352727" stroke-linecap="round" stroke-linejoin="round" stroke-width="1.0"/>
  </g>
</svg>
