<?xml version="1.0" encoding="UTF-8" standalone="no"?>
<svg xmlns:xlink="http://www.w3.org/1999/xlink" height="90.95px" width="32.0px" xmlns="http://www.w3.org/2000/svg">
  <g transform="matrix(1.0, 0.0, 0.0, 1.0, 0.5, 44.95)">
    <path d="M25.6 -7.1 Q25.1 -7.1 24.7 -7.5 24.35 -7.85 24.35 -8.4 24.35 -8.95 24.7 -9.3 25.1 -9.65 25.6 -9.65 26.15 -9.65 26.5 -9.3 26.9 -8.95 26.9 -8.4 26.9 -7.85 26.5 -7.5 26.15 -7.1 25.6 -7.1" fill="#484848" fill-rule="evenodd" stroke="none"/>
    <path d="M26.4 -29.1 L25.65 -30.25 18.95 -30.25 5.85 -30.25 5.15 -29.1 M26.4 -34.95 L25.65 -36.1 18.95 -36.1 5.85 -36.1 5.15 -34.95 M26.4 -32.05 L25.65 -33.2 18.95 -33.2 5.85 -33.2 5.15 -32.05 M26.4 39.75 L25.65 38.65 5.85 38.65 5.15 39.75 M26.4 42.7 L25.65 41.6 5.85 41.6 5.15 42.7" fill="none" stroke="#545454" stroke-linecap="round" stroke-linejoin="round" stroke-width="1.05"/>
    <path d="M25.7 -28.9 L25.2 -29.5 17.25 -29.5 6.35 -29.5 5.8 -28.9 M25.7 -31.85 L25.2 -32.45 18.95 -32.45 6.35 -32.45 5.8 -31.85 M25.7 -34.8 L25.2 -35.35 18.95 -35.35 6.35 -35.35 5.8 -34.8 M25.7 39.95 L25.2 39.35 6.35 39.35 5.8 39.95 M25.7 42.9 L25.2 42.3 6.35 42.3 5.8 42.9" fill="none" stroke="#343434" stroke-linecap="round" stroke-linejoin="round" stroke-width="1.05"/>
    <path d="M25.75 -44.45 L1.0 -44.45 1.0 45.5 25.75 45.5 31.0 45.5 31.0 -44.45 25.75 -44.45 M3.0 -39.8 L3.0 -41.8 29.0 -41.8 29.0 36.05 3.0 36.05 3.0 33.75 M3.0 28.65 L3.0 -34.7" fill="none" stroke="#444444" stroke-linecap="round" stroke-linejoin="round" stroke-width="1.05"/>
    <path d="M25.6 -7.1 Q25.1 -7.1 24.7 -7.5 24.35 -7.85 24.35 -8.4 24.35 -8.95 24.7 -9.3 25.1 -9.65 25.6 -9.65 26.15 -9.65 26.5 -9.3 26.9 -8.95 26.9 -8.4 26.9 -7.85 26.5 -7.5 26.15 -7.1 25.6 -7.1 Z" fill="none" stroke="#414141" stroke-linecap="round" stroke-linejoin="round" stroke-width="1.05"/>
    <path d="M3.85 -34.7 L0.0 -34.7 0.0 -39.8 3.85 -39.8 3.85 -34.7" fill="url(#gradient0)" fill-rule="evenodd" stroke="none"/>
    <path d="M3.85 33.75 L0.0 33.75 0.0 28.65 3.85 28.65 3.85 33.75" fill="url(#gradient1)" fill-rule="evenodd" stroke="none"/>
    <path d="M3.85 -34.7 L0.0 -34.7 0.0 -39.8 3.85 -39.8 3.85 -34.7 M3.85 33.75 L0.0 33.75 0.0 28.65 3.85 28.65 3.85 33.75 Z" fill="none" stroke="#373737" stroke-linecap="round" stroke-linejoin="round" stroke-width="1.05"/>
  </g>
  <defs>
    <linearGradient gradientTransform="matrix(0.0023, 0.0, 0.0, 0.0031, 1.95, -37.25)" gradientUnits="userSpaceOnUse" id="gradient0" spreadMethod="pad" x1="-819.2" x2="819.2">
      <stop offset="0.0" stop-color="#858585"/>
      <stop offset="1.0" stop-color="#676767"/>
    </linearGradient>
    <linearGradient gradientTransform="matrix(0.0023, 0.0, 0.0, 0.0031, 1.95, 31.2)" gradientUnits="userSpaceOnUse" id="gradient1" spreadMethod="pad" x1="-819.2" x2="819.2">
      <stop offset="0.0" stop-color="#858585"/>
      <stop offset="1.0" stop-color="#676767"/>
    </linearGradient>
  </defs>
</svg>
