<?xml version="1.0" encoding="UTF-8" standalone="no"?>
<svg xmlns:xlink="http://www.w3.org/1999/xlink" height="82.75px" width="23.6px" xmlns="http://www.w3.org/2000/svg">
  <g transform="matrix(1.0, 0.0, 0.0, 1.0, -1.1, 40.15)">
    <path d="M22.4 -38.4 L22.6 -38.15 22.4 -37.95 Q21.55 -37.95 21.55 -38.7 L21.75 -39.2 22.0 -38.8 22.05 -38.4 22.4 -38.4 M21.9 -39.8 Q21.9 -40.55 22.85 -39.65 22.85 -39.35 22.3 -39.35 21.9 -39.35 21.9 -39.8 M22.9 -39.6 Q22.9 -40.0 23.45 -39.75 L23.95 -39.15 Q23.95 -38.7 23.7 -38.7 L23.5 -38.9 23.55 -39.1 23.35 -39.3 22.95 -39.5 22.9 -39.6 M22.85 -37.75 Q22.65 -37.75 22.65 -37.9 L22.85 -38.15 23.4 -38.15 23.6 -38.4 23.8 -38.1 23.6 -37.75 22.85 -37.75 M17.15 -25.8 L17.1 -25.9 Q17.1 -26.1 17.55 -26.1 17.95 -26.1 17.95 -25.9 L17.7 -25.7 17.15 -25.8 M16.85 -27.2 L17.05 -26.9 Q17.05 -26.2 16.75 -26.2 16.45 -26.2 16.45 -26.55 L16.85 -27.2 M19.25 -26.5 Q19.25 -25.25 18.4 -25.45 L18.25 -25.5 18.2 -25.6 Q18.2 -25.75 18.55 -25.75 18.85 -25.75 18.85 -26.45 L18.75 -26.95 Q18.7 -27.25 19.0 -27.35 L19.25 -26.5 M18.95 -27.4 L17.55 -27.65 Q17.55 -27.9 18.35 -27.9 19.15 -27.9 19.15 -27.6 L18.95 -27.4 M20.9 -20.15 L20.9 -20.2 Q20.8 -20.7 20.35 -20.7 L20.0 -20.6 19.85 -20.55 19.6 -20.6 19.55 -20.7 Q19.55 -21.15 20.5 -21.05 21.4 -20.9 21.45 -20.05 L21.55 -19.8 21.25 -19.25 20.95 -18.85 21.2 -18.55 20.9 -18.35 20.55 -18.55 20.55 -18.8 20.8 -19.3 20.95 -19.5 21.15 -19.75 21.0 -19.85 20.9 -20.15 M19.4 -20.2 Q19.4 -19.8 19.2 -19.8 L19.0 -20.0 19.0 -20.2 19.2 -20.6 19.4 -20.2 M19.85 -18.75 L19.65 -18.55 19.35 -18.8 19.1 -19.15 Q19.1 -19.95 19.85 -18.75 M5.6 -18.75 L5.65 -18.3 Q5.65 -17.6 5.45 -17.6 5.25 -17.6 5.15 -17.9 L5.05 -18.25 5.3 -18.65 Q5.15 -18.75 5.15 -19.0 L5.65 -19.6 Q6.2 -20.0 6.5 -19.9 L6.5 -19.85 6.6 -20.0 6.95 -20.0 Q7.5 -19.6 7.5 -18.95 7.5 -18.55 7.3 -18.55 7.1 -18.55 7.05 -18.85 L7.0 -19.25 6.5 -19.7 5.6 -18.85 5.6 -18.75 M7.0 -17.55 L6.45 -17.3 6.2 -17.35 6.15 -17.45 Q6.15 -17.7 6.75 -17.85 L7.05 -18.35 7.25 -18.0 7.0 -17.55 M10.1 -2.75 L10.3 -2.55 10.2 -2.25 10.2 -1.75 10.75 -1.15 10.75 -1.1 11.25 -1.2 11.55 -1.4 12.25 -1.5 12.3 -1.2 12.15 -0.85 11.55 -0.85 10.6 -0.65 Q10.3 -0.65 10.3 -0.9 L10.25 -1.35 Q9.8 -1.65 9.8 -2.0 9.8 -2.65 10.1 -2.75 M12.45 -1.55 Q12.2 -1.55 12.2 -1.9 L12.25 -2.3 11.9 -3.0 Q11.85 -2.85 11.6 -2.85 L11.0 -2.9 10.8 -3.05 11.0 -3.3 11.9 -3.05 Q11.9 -3.75 12.65 -2.1 12.65 -1.55 12.45 -1.55 M20.9 12.3 L20.6 12.15 Q20.4 12.0 20.05 12.0 L19.25 12.15 Q18.9 12.15 18.9 11.95 18.9 11.6 20.05 11.6 21.15 11.6 21.15 12.1 L20.9 12.3 M20.65 13.9 L20.45 13.7 20.45 13.5 Q20.45 13.2 20.75 12.85 21.05 12.5 21.3 12.6 L21.35 12.75 20.65 13.9 M22.05 15.45 L21.85 15.55 21.65 15.5 21.6 15.35 Q21.6 15.05 22.0 15.05 23.2 15.15 23.2 15.5 L23.15 15.65 23.0 15.7 22.5 15.45 22.05 15.45 M21.15 16.25 L21.4 15.8 21.6 16.2 21.45 16.8 21.95 17.35 21.7 17.55 21.2 17.25 21.05 16.8 21.15 16.25 M21.45 18.1 L21.65 18.3 Q21.65 18.55 20.95 18.5 20.85 19.3 20.6 19.3 L20.4 19.1 20.4 18.9 Q20.4 18.35 20.85 18.1 L21.45 18.1 M22.1 18.5 Q22.85 18.95 22.85 19.45 L22.65 19.7 22.0 18.9 21.65 18.9 21.45 18.75 21.65 18.5 22.1 18.5 M22.45 17.35 Q22.45 17.2 22.8 17.0 L23.25 16.75 Q23.4 16.15 23.55 16.1 L23.75 16.4 23.6 16.9 23.15 17.55 22.65 17.55 22.45 17.35 M20.75 19.75 L21.15 20.2 Q21.15 20.5 20.95 20.5 L20.5 20.2 20.3 19.9 Q20.3 19.5 20.75 19.75 M22.05 20.9 L22.0 20.7 22.5 20.1 22.7 20.4 22.5 20.75 22.2 20.95 22.05 20.9 M22.55 24.3 L23.05 24.0 23.8 23.55 24.1 22.95 24.5 22.6 24.7 22.85 24.15 23.8 Q23.5 24.5 22.95 24.5 L22.6 24.4 22.55 24.3 M22.1 23.4 Q22.1 22.3 23.0 21.9 L23.85 21.95 23.2 22.35 Q22.5 22.85 22.5 23.35 L22.65 23.7 22.4 23.9 22.1 23.7 22.1 23.4 M18.35 12.5 L18.55 12.25 18.9 12.95 19.5 13.6 19.85 13.6 20.05 13.8 19.9 14.0 19.4 14.0 Q18.35 13.55 18.35 12.5" fill="#4c4c4c" fill-rule="evenodd" stroke="none"/>
    <path d="M22.4 -38.4 L22.3 -38.75 Q22.3 -39.25 22.8 -39.25 23.3 -39.25 23.3 -38.75 23.3 -38.25 22.8 -38.25 22.55 -38.25 22.4 -38.4 M18.25 -26.75 Q18.25 -26.25 17.75 -26.25 17.25 -26.25 17.25 -26.75 17.25 -27.25 17.75 -27.25 18.25 -27.25 18.25 -26.75 M20.8 -19.3 L20.35 -19.1 Q19.7 -19.1 19.7 -19.65 19.7 -20.3 20.5 -20.3 L20.9 -20.15 21.0 -19.85 21.0 -19.8 20.95 -19.5 20.8 -19.3 M5.95 -18.9 L6.4 -19.15 Q6.9 -19.15 6.9 -18.65 6.9 -18.05 6.3 -18.05 5.8 -18.05 5.8 -18.6 L5.95 -18.9 M11.25 -2.7 Q11.8 -2.6 11.8 -2.15 11.8 -1.65 11.25 -1.65 10.65 -1.65 10.65 -2.2 10.65 -2.8 11.25 -2.7 M22.4 15.9 Q22.9 15.9 22.9 16.4 22.9 16.9 22.4 16.9 21.9 16.9 21.9 16.4 21.9 15.9 22.4 15.9 M22.1 19.65 Q22.1 20.15 21.6 20.15 21.1 20.15 21.1 19.65 21.1 19.15 21.6 19.15 22.1 19.15 22.1 19.65 M23.35 22.7 Q23.85 22.7 23.85 23.2 23.85 23.7 23.35 23.7 22.85 23.7 22.85 23.2 22.85 22.7 23.35 22.7 M19.9 12.45 Q20.4 12.45 20.4 12.95 20.4 13.45 19.9 13.45 19.4 13.45 19.4 12.95 19.4 12.45 19.9 12.45" fill="#000000" fill-rule="evenodd" stroke="none"/>
    <path d="M1.6 -29.9 L1.6 -31.4 M17.25 -35.5 L18.3 -35.5 M9.4 -21.5 L9.4 -19.5 M9.3 42.1 L9.3 41.65 M16.95 37.75 L18.05 37.75" fill="none" stroke="#643114" stroke-linecap="round" stroke-linejoin="round" stroke-width="1.05"/>
    <path d="M2.1 -34.35 L2.1 -31.75 M10.4 -32.5 Q11.15 -31.25 12.45 -32.35 M9.4 -29.3 L9.4 -22.35 M18.8 -35.5 Q20.15 -34.65 21.45 -35.3 M9.7 41.45 L9.7 40.5 M18.6 38.2 L19.95 38.2" fill="none" stroke="#8b3a1d" stroke-linecap="round" stroke-linejoin="round" stroke-width="1.05"/>
  </g>
</svg>
