<?xml version="1.0" encoding="UTF-8" standalone="no"?>
<svg xmlns:xlink="http://www.w3.org/1999/xlink" height="42.85px" width="41.0px" xmlns="http://www.w3.org/2000/svg">
  <g transform="matrix(1.0, 0.0, 0.0, 1.0, 20.5, 21.4)">
    <path d="M5.35 -19.3 L5.55 -19.05 2.75 -16.2 -2.75 -16.2 -5.55 -19.05 -5.25 -19.3 -3.85 -20.9 3.85 -20.9 5.35 -19.3 M5.55 19.1 L3.85 20.95 -3.85 20.95 -5.55 19.1 -2.75 16.2 2.75 16.2 5.55 19.1 M4.1 -1.35 L3.0 -3.2 5.2 -5.4 7.05 -2.1 4.1 -1.35 M-4.05 -1.35 L-7.05 -2.1 -5.15 -5.4 -2.95 -3.2 -4.05 -1.35 M-1.85 6.75 L-1.05 3.8 1.1 3.8 1.95 6.75 -1.85 6.75 M0.05 1.05 Q-1.05 1.05 -1.05 0.0 -1.05 -1.1 0.05 -1.1 1.1 -1.1 1.1 0.0 1.1 1.05 0.05 1.05" fill="#9ecb8b" fill-rule="evenodd" stroke="none"/>
    <path d="M5.35 -19.3 L10.15 -19.3 16.25 -14.55 18.9 -8.4 12.6 -7.2 9.45 -10.95 3.75 -11.0 2.1 -10.05 -2.1 -10.05 -3.75 -11.0 -9.45 -10.95 -12.6 -7.2 -18.85 -8.4 -16.25 -14.55 -10.15 -19.3 -5.25 -19.3 -5.55 -19.05 -2.75 -16.2 2.75 -16.2 5.55 -19.05 5.35 -19.3" fill="url(#gradient0)" fill-rule="evenodd" stroke="none"/>
    <path d="M-18.85 -8.4 L-12.6 -7.2 -9.45 -10.95 -3.75 -11.0 -2.1 -10.05 2.1 -10.05 3.75 -11.0 9.45 -10.95 12.6 -7.2 18.9 -8.4 18.9 -7.2 18.4 -7.2 18.9 -6.3 Q19.95 -3.85 20.0 -0.6 L20.0 0.3 Q19.95 3.65 18.9 6.05 L18.45 7.0 18.9 7.0 18.9 8.15 12.95 7.0 12.6 6.95 12.55 7.0 12.6 6.95 12.95 7.0 12.55 7.0 9.45 10.75 3.75 10.8 2.1 9.85 -2.1 9.85 -3.75 10.8 -9.45 10.75 -12.55 7.0 -12.95 7.0 -12.6 6.95 -12.55 7.0 -12.6 6.95 -12.95 7.0 -18.85 8.15 -18.85 7.0 -18.4 7.0 -18.85 6.05 Q-19.95 3.65 -20.0 0.3 L-20.0 -0.6 Q-19.95 -3.85 -18.85 -6.3 L-18.35 -7.2 -18.85 -7.2 -18.85 -8.4 M4.1 -1.35 L7.05 -2.1 5.2 -5.4 3.0 -3.2 4.1 -1.35 M-4.05 -1.35 L-2.95 -3.2 -5.15 -5.4 -7.05 -2.1 -4.05 -1.35 M-1.85 6.75 L1.95 6.75 1.1 3.8 -1.05 3.8 -1.85 6.75 M0.05 1.05 Q1.1 1.05 1.1 0.0 1.1 -1.1 0.05 -1.1 -1.05 -1.1 -1.05 0.0 -1.05 1.05 0.05 1.05" fill="url(#gradient1)" fill-rule="evenodd" stroke="none"/>
    <path d="M18.9 8.15 L16.25 14.25 10.15 19.1 5.55 19.1 2.75 16.2 -2.75 16.2 -5.55 19.1 -10.15 19.1 -16.25 14.25 -18.85 8.15 -12.95 7.0 -12.55 7.0 -9.45 10.75 -3.75 10.8 -2.1 9.85 2.1 9.85 3.75 10.8 9.45 10.75 12.55 7.0 12.95 7.0 18.9 8.15" fill="url(#gradient2)" fill-rule="evenodd" stroke="none"/>
    <path d="M18.9 -8.4 L16.25 -14.55 10.15 -19.3 5.35 -19.3 M-5.25 -19.3 L-10.15 -19.3 -16.25 -14.55 -18.85 -8.4 -12.6 -7.2 -9.45 -10.95 -3.75 -11.0 -2.1 -10.05 2.1 -10.05 3.75 -11.0 9.45 -10.95 12.6 -7.2 18.9 -8.4 M18.9 8.15 L16.25 14.25 10.15 19.1 5.55 19.1 M-5.55 19.1 L-10.15 19.1 -16.25 14.25 -18.85 8.15 -12.95 7.0 -12.6 6.95 -12.55 7.0 -9.45 10.75 -3.75 10.8 -2.1 9.85 2.1 9.85 3.75 10.8 9.45 10.75 12.55 7.0 12.6 6.95 12.95 7.0 18.9 8.15" fill="none" stroke="#575757" stroke-linecap="round" stroke-linejoin="round" stroke-width="1.0"/>
    <path d="M5.35 -19.3 L5.55 -19.05 2.75 -16.2 -2.75 -16.2 -5.55 -19.05 -5.25 -19.3 -3.85 -20.9 3.85 -20.9 5.35 -19.3 M18.4 -7.2 L18.9 -6.3 Q19.95 -3.85 20.0 -0.6 L20.0 0.3 Q19.95 3.65 18.9 6.05 L18.45 7.0 M5.55 19.1 L3.85 20.95 -3.85 20.95 -5.55 19.1 -2.75 16.2 2.75 16.2 5.55 19.1 M-18.4 7.0 L-18.85 6.05 Q-19.95 3.65 -20.0 0.3 L-20.0 -0.6 Q-19.95 -3.85 -18.85 -6.3 L-18.35 -7.2 M4.1 -1.35 L7.05 -2.1 5.2 -5.4 3.0 -3.2 4.1 -1.35 M-4.05 -1.35 L-7.05 -2.1 -5.15 -5.4 -2.95 -3.2 -4.05 -1.35 M-1.85 6.75 L1.95 6.75 1.1 3.8 -1.05 3.8 -1.85 6.75 M0.05 1.05 Q-1.05 1.05 -1.05 0.0 -1.05 -1.1 0.05 -1.1 1.1 -1.1 1.1 0.0 1.1 1.05 0.05 1.05 Z" fill="none" stroke="#576c5f" stroke-linecap="round" stroke-linejoin="round" stroke-width="1.0"/>
  </g>
  <defs>
    <linearGradient gradientTransform="matrix(-0.023, 0.0, 0.0, 0.023, 0.0, -13.25)" gradientUnits="userSpaceOnUse" id="gradient0" spreadMethod="pad" x1="-819.2" x2="819.2">
      <stop offset="0.0" stop-color="#707070"/>
      <stop offset="0.4980392156862745" stop-color="#a9a9a9"/>
      <stop offset="1.0" stop-color="#707070"/>
    </linearGradient>
    <radialGradient cx="0" cy="0" gradientTransform="matrix(-0.0209, 0.0, 0.0, -0.0209, 0.0, 0.4)" gradientUnits="userSpaceOnUse" id="gradient1" r="819.2" spreadMethod="pad">
      <stop offset="0.0" stop-color="#ffffff"/>
      <stop offset="0.1607843137254902" stop-color="#fdfefc"/>
      <stop offset="0.3254901960784314" stop-color="#f6faf4"/>
      <stop offset="0.49019607843137253" stop-color="#e9f3e4"/>
      <stop offset="0.6627450980392157" stop-color="#d7e9ce"/>
      <stop offset="0.8313725490196079" stop-color="#bfdcb0"/>
      <stop offset="1.0" stop-color="#9ecb8b"/>
    </radialGradient>
    <linearGradient gradientTransform="matrix(-0.023, 0.0, 0.0, -0.023, 0.0, 13.05)" gradientUnits="userSpaceOnUse" id="gradient2" spreadMethod="pad" x1="-819.2" x2="819.2">
      <stop offset="0.0" stop-color="#707070"/>
      <stop offset="0.4980392156862745" stop-color="#a9a9a9"/>
      <stop offset="1.0" stop-color="#707070"/>
    </linearGradient>
  </defs>
</svg>
