<?xml version="1.0" encoding="UTF-8" standalone="no"?>
<svg xmlns:ffdec="https://www.free-decompiler.com/flash" xmlns:xlink="http://www.w3.org/1999/xlink" ffdec:objectType="shape" height="88.95px" width="372.75px" xmlns="http://www.w3.org/2000/svg">
  <g transform="matrix(1.0, 0.0, 0.0, 1.0, 248.85, 79.5)">
    <path d="M9.35 -19.85 L3.05 -22.7 Q3.25 -28.05 3.45 -28.1 6.95 -24.25 9.35 -19.85 M0.5 -23.85 L-3.6 -25.65 Q-31.05 -37.15 -48.5 -37.4 -41.9 -45.2 -41.75 -50.3 L-41.7 -50.3 -35.35 -48.8 -38.6 -45.45 Q-38.7 -45.3 -38.9 -45.3 L-39.2 -42.35 -31.9 -40.75 Q-31.4 -40.65 -31.55 -39.8 L-31.3 -38.05 -21.6 -38.8 -17.6 -33.95 Q-8.55 -34.85 -2.3 -28.6 L-2.2 -28.25 Q-0.8 -28.05 0.5 -23.85" fill="url(#gradient0)" fill-rule="evenodd" stroke="none"/>
    <path d="M3.05 -22.7 L9.35 -19.85 Q19.9 -15.05 26.95 -13.75 33.5 -4.35 34.6 3.55 L23.8 3.55 Q22.7 0.5 19.95 -2.85 3.8 -13.35 -37.85 -13.2 -42.25 -9.2 -39.65 -4.95 -34.85 -0.65 -42.9 2.4 L-44.05 3.55 -54.2 3.55 -54.9 2.8 -54.9 2.75 Q-63.8 -5.85 -75.95 -12.1 -64.2 -14.2 -64.7 -22.45 -64.85 -24.9 -66.05 -28.05 -42.0 -25.8 -3.6 -25.65 L0.5 -23.85 0.5 -12.8 3.05 -22.7" fill="url(#gradient1)" fill-rule="evenodd" stroke="none"/>
    <path d="M34.6 3.55 Q33.5 -4.35 26.95 -13.75 29.5 -13.25 32.2 -17.8 L33.7 -20.8 33.8 -20.9 33.85 -21.05 Q33.55 -0.1 49.0 3.55 L34.6 3.55" fill="url(#gradient2)" fill-rule="evenodd" stroke="none"/>
    <path d="M33.85 -21.05 Q35.2 -23.5 34.65 -25.8 46.8 -28.7 57.45 -30.15 L61.45 -22.75 62.2 -17.75 61.15 -5.5 64.95 -16.35 63.85 -23.45 62.25 -34.35 Q69.7 -35.15 79.1 -33.55 L93.3 -30.65 94.3 -24.25 97.65 -28.4 101.2 -28.9 Q107.55 -27.15 112.7 -24.2 L117.7 -20.95 122.9 -16.4 118.35 -15.45 112.7 -14.2 Q96.15 -10.35 83.3 -5.45 L83.2 -5.4 Q72.3 -1.3 64.05 3.55 L49.0 3.55 Q33.55 -0.1 33.85 -21.05 M64.95 -16.35 Q67.8 -16.0 70.45 -15.1 67.8 -16.0 64.95 -16.35 M54.5 -21.7 L57.9 -22.5 61.45 -22.75 57.9 -22.5 54.5 -21.7 M49.65 -15.2 L56.15 -16.8 62.2 -17.75 56.15 -16.8 49.65 -15.2 M85.0 -22.95 Q72.95 -24.4 63.85 -23.45 72.95 -24.4 85.0 -22.95" fill="url(#gradient3)" fill-rule="evenodd" stroke="none"/>
    <path d="M-42.9 2.4 Q-34.85 -0.65 -39.65 -4.95 -42.25 -9.2 -37.85 -13.2 3.8 -13.35 19.95 -2.85 22.7 0.5 23.8 3.55 L-39.4 3.55 -42.9 2.4 M6.15 0.4 Q-5.8 -5.65 -39.65 -4.95 -5.8 -5.65 6.15 0.4" fill="url(#gradient4)" fill-rule="evenodd" stroke="none"/>
    <path d="M-147.1 -55.0 L-156.3 -62.6 -153.55 -64.0 -153.7 -67.65 -149.9 -78.5 -146.15 -68.05 Q-143.35 -68.4 -140.85 -69.4 -135.25 -71.85 -126.8 -65.5 L-128.85 -73.15 Q-128.25 -75.45 -127.3 -77.45 -118.0 -73.25 -109.55 -65.5 -75.8 -63.4 -53.75 -59.3 -41.65 -57.3 -41.75 -50.3 -41.9 -45.2 -48.5 -37.4 -61.05 -36.35 -109.05 -49.25 -139.65 -45.8 -147.1 -55.0" fill="url(#gradient5)" fill-rule="evenodd" stroke="none"/>
    <path d="M-75.95 -12.1 Q-63.8 -5.85 -54.9 2.75 L-54.9 2.8 -96.55 -6.25 -96.55 -12.6 -99.55 -6.9 -149.0 -17.65 Q-150.45 -22.7 -147.0 -26.7 -111.3 -18.65 -101.6 -18.75 L-91.85 -18.75 Q-83.35 -15.85 -75.95 -12.1" fill="url(#gradient6)" fill-rule="evenodd" stroke="none"/>
    <path d="M-132.9 -27.3 Q-152.2 -38.6 -147.1 -55.0 -139.65 -45.8 -109.05 -49.25 -110.95 -45.55 -113.2 -42.45 -132.2 -44.25 -132.9 -27.3" fill="url(#gradient7)" fill-rule="evenodd" stroke="none"/>
    <path d="M-3.6 -25.65 Q-42.0 -25.8 -66.05 -28.05 -64.85 -24.9 -64.7 -22.45 -64.2 -14.2 -75.95 -12.1 -83.35 -15.85 -91.85 -18.75 -109.7 -24.9 -132.9 -27.3 -132.2 -44.25 -113.2 -42.45 -110.95 -45.55 -109.05 -49.25 -61.05 -36.35 -48.5 -37.4 -31.05 -37.15 -3.6 -25.65 M-66.05 -28.05 Q-95.9 -30.8 -113.2 -42.45 -95.9 -30.8 -66.05 -28.05" fill="url(#gradient8)" fill-rule="evenodd" stroke="none"/>
    <path d="M-44.05 3.55 L-42.9 2.4 -39.4 3.55 -44.05 3.55" fill="url(#gradient9)" fill-rule="evenodd" stroke="none"/>
    <path d="M101.15 -2.95 Q105.85 -2.65 108.95 -0.7 112.5 1.6 112.5 5.4 112.5 7.35 111.15 7.9 L104.7 8.45 Q94.85 8.45 91.45 5.7 89.75 4.35 89.75 1.95 89.75 -0.5 93.3 -1.9 96.65 -3.25 101.15 -2.95 M-232.75 -1.0 Q-233.05 0.55 -241.9 2.6 -250.75 4.6 -246.4 1.5 -242.05 -1.6 -241.05 -2.7 -240.05 -3.85 -235.6 -4.4 -231.2 -5.0 -231.85 -3.75 -232.5 -2.55 -232.75 -1.0 M-162.5 -3.45 Q-159.8 -3.65 -155.1 -5.05 -150.4 -6.45 -150.9 -3.8 -151.45 -1.2 -149.15 3.6 -146.85 8.35 -154.5 3.95 -162.2 -0.5 -163.7 0.0 -165.25 0.5 -165.25 -2.75 -165.25 -3.3 -162.5 -3.45 M-132.3 -3.8 Q-130.85 -2.9 -119.35 -0.8 -108.95 1.1 -109.7 4.55 -114.15 6.45 -119.8 6.45 -124.4 6.45 -129.45 2.4 -133.75 -1.05 -133.75 -2.2 -133.75 -4.7 -132.3 -3.8" fill="#3c0000" fill-rule="evenodd" stroke="none"/>
    <path d="M3.05 -22.7 L9.35 -19.85 Q6.95 -24.25 3.45 -28.1 3.25 -28.05 3.05 -22.7 L0.5 -12.8 0.5 -23.85 -3.6 -25.65 Q-42.0 -25.8 -66.05 -28.05 -64.85 -24.9 -64.7 -22.45 -64.2 -14.2 -75.95 -12.1 -63.8 -5.85 -54.9 2.75 L-54.9 2.8 -54.2 3.55 -44.05 3.55 -42.9 2.4 Q-34.85 -0.65 -39.65 -4.95 -42.25 -9.2 -37.85 -13.2 3.8 -13.35 19.95 -2.85 22.7 0.5 23.8 3.55 L34.6 3.55 Q33.5 -4.35 26.95 -13.75 19.9 -15.05 9.35 -19.85 M26.95 -13.75 Q29.5 -13.25 32.2 -17.8 L33.7 -20.8 33.8 -20.9 33.85 -21.05 Q35.2 -23.5 34.65 -25.8 46.8 -28.7 57.45 -30.15 L61.45 -22.75 62.2 -17.75 61.15 -5.5 64.95 -16.35 63.85 -23.45 62.25 -34.35 Q69.7 -35.15 79.1 -33.55 L93.3 -30.65 94.3 -24.25 97.65 -28.4 101.2 -28.9 Q107.55 -27.15 112.7 -24.2 L117.7 -20.95 122.9 -16.4 118.35 -15.45 112.7 -14.2 Q96.15 -10.35 83.3 -5.45 L83.2 -5.4 Q72.3 -1.3 64.05 3.55 L49.0 3.55 34.6 3.55 M62.2 -17.75 L56.15 -16.8 49.65 -15.2 M61.45 -22.75 L57.9 -22.5 54.5 -21.7 M70.45 -15.1 Q67.8 -16.0 64.95 -16.35 M101.15 -2.95 Q105.85 -2.65 108.95 -0.7 112.5 1.6 112.5 5.4 112.5 7.35 111.15 7.9 L104.7 8.45 Q94.85 8.45 91.45 5.7 89.75 4.35 89.75 1.95 89.75 -0.5 93.3 -1.9 96.65 -3.25 101.15 -2.95 M63.85 -23.45 Q72.95 -24.4 85.0 -22.95 M-232.75 -1.0 Q-233.05 0.55 -241.9 2.6 -250.75 4.6 -246.4 1.5 -242.05 -1.6 -241.05 -2.7 -240.05 -3.85 -235.6 -4.4 -231.2 -5.0 -231.85 -3.75 -232.5 -2.55 -232.75 -1.0 M-162.5 -3.45 Q-159.8 -3.65 -155.1 -5.05 -150.4 -6.45 -150.9 -3.8 -151.45 -1.2 -149.15 3.6 -146.85 8.35 -154.5 3.95 -162.2 -0.5 -163.7 0.0 -165.25 0.5 -165.25 -2.75 -165.25 -3.3 -162.5 -3.45 M-147.1 -55.0 L-156.3 -62.6 -153.55 -64.0 -153.7 -67.65 -149.9 -78.5 -146.15 -68.05 Q-143.35 -68.4 -140.85 -69.4 -135.25 -71.85 -126.8 -65.5 L-128.85 -73.15 Q-128.25 -75.45 -127.3 -77.45 -118.0 -73.25 -109.55 -65.5 -75.8 -63.4 -53.75 -59.3 -41.65 -57.3 -41.75 -50.3 L-41.7 -50.3 -35.35 -48.8 -38.6 -45.45 Q-38.7 -45.3 -38.9 -45.3 L-39.2 -42.35 -31.9 -40.75 Q-31.4 -40.65 -31.55 -39.8 L-31.3 -38.05 -21.6 -38.8 -17.6 -33.95 Q-8.55 -34.85 -2.3 -28.6 L-2.2 -28.25 Q-0.8 -28.05 0.5 -23.85 M-54.9 2.8 L-96.55 -6.25 -96.55 -12.6 -99.55 -6.9 -149.0 -17.65 Q-150.45 -22.7 -147.0 -26.7 -111.3 -18.65 -101.6 -18.75 L-91.85 -18.75 Q-109.7 -24.9 -132.9 -27.3 -152.2 -38.6 -147.1 -55.0 -139.65 -45.8 -109.05 -49.25 -61.05 -36.35 -48.5 -37.4 -41.9 -45.2 -41.75 -50.3 M-132.3 -3.8 Q-130.85 -2.9 -119.35 -0.8 -108.95 1.1 -109.7 4.55 -114.15 6.45 -119.8 6.45 -124.4 6.45 -129.45 2.4 -133.75 -1.05 -133.75 -2.2 -133.75 -4.7 -132.3 -3.8 M-109.05 -49.25 Q-110.95 -45.55 -113.2 -42.45 -95.9 -30.8 -66.05 -28.05 M-113.2 -42.45 Q-132.2 -44.25 -132.9 -27.3 M-3.6 -25.65 Q-31.05 -37.15 -48.5 -37.4 M-91.85 -18.75 Q-83.35 -15.85 -75.95 -12.1 M-39.4 3.55 L-42.9 2.4 M-39.65 -4.95 Q-5.8 -5.65 6.15 0.4 M-39.4 3.55 L23.8 3.55" fill="none" stroke="#000000" stroke-linecap="round" stroke-linejoin="round" stroke-width="2.0"/>
  </g>
  <defs>
    <radialGradient cx="0" cy="0" gradientTransform="matrix(0.0092, -0.0422, -0.0705, -0.0154, -45.4, -14.9)" gradientUnits="userSpaceOnUse" id="gradient0" r="819.2" spreadMethod="pad">
      <stop offset="0.34901960784313724" stop-color="#000000" stop-opacity="0.0"/>
      <stop offset="0.8392156862745098" stop-color="#000000" stop-opacity="0.101960786"/>
      <stop offset="1.0" stop-color="#000000" stop-opacity="0.5019608"/>
    </radialGradient>
    <radialGradient cx="0" cy="0" gradientTransform="matrix(-0.1446, -0.039, -0.0111, 0.0412, -18.0, -3.75)" gradientUnits="userSpaceOnUse" id="gradient1" r="819.2" spreadMethod="pad">
      <stop offset="0.0" stop-color="#222222"/>
      <stop offset="1.0" stop-color="#000000"/>
    </radialGradient>
    <radialGradient cx="0" cy="0" gradientTransform="matrix(-0.043, 0.0473, 0.067, 0.0609, 31.25, 41.1)" gradientUnits="userSpaceOnUse" id="gradient2" r="819.2" spreadMethod="pad">
      <stop offset="0.0" stop-color="#7e0101"/>
      <stop offset="1.0" stop-color="#3c0000"/>
    </radialGradient>
    <radialGradient cx="0" cy="0" gradientTransform="matrix(0.003, 0.0639, 0.0904, -0.0043, 69.3, 21.0)" gradientUnits="userSpaceOnUse" id="gradient3" r="819.2" spreadMethod="pad">
      <stop offset="0.0" stop-color="#7e0101"/>
      <stop offset="1.0" stop-color="#3c0000"/>
    </radialGradient>
    <radialGradient cx="0" cy="0" gradientTransform="matrix(-0.0046, 0.0212, 0.0581, 0.0126, -2.05, 5.25)" gradientUnits="userSpaceOnUse" id="gradient4" r="819.2" spreadMethod="pad">
      <stop offset="0.0" stop-color="#3a0101"/>
      <stop offset="1.0" stop-color="#1a0000"/>
    </radialGradient>
    <radialGradient cx="0" cy="0" gradientTransform="matrix(-0.0022, 0.0606, 0.0928, 0.0033, -82.85, -21.55)" gradientUnits="userSpaceOnUse" id="gradient5" r="819.2" spreadMethod="pad">
      <stop offset="0.0" stop-color="#7e0101"/>
      <stop offset="1.0" stop-color="#3c0000"/>
    </radialGradient>
    <radialGradient cx="0" cy="0" gradientTransform="matrix(-0.0025, 0.0116, 0.207, 0.0451, -101.55, -11.3)" gradientUnits="userSpaceOnUse" id="gradient6" r="819.2" spreadMethod="pad">
      <stop offset="0.0" stop-color="#222222"/>
      <stop offset="1.0" stop-color="#000000"/>
    </radialGradient>
    <radialGradient cx="0" cy="0" gradientTransform="matrix(-0.0173, 0.0413, 0.0942, 0.0396, -102.55, -42.6)" gradientUnits="userSpaceOnUse" id="gradient7" r="819.2" spreadMethod="pad">
      <stop offset="0.0" stop-color="#222222"/>
      <stop offset="1.0" stop-color="#000000"/>
    </radialGradient>
    <radialGradient cx="0" cy="0" gradientTransform="matrix(-0.0173, 0.0413, 0.0942, 0.0396, -85.4, -43.3)" gradientUnits="userSpaceOnUse" id="gradient8" r="819.2" spreadMethod="pad">
      <stop offset="0.0" stop-color="#3a0101"/>
      <stop offset="1.0" stop-color="#1a0000"/>
    </radialGradient>
    <radialGradient cx="0" cy="0" gradientTransform="matrix(-0.0046, 0.0212, 0.0581, 0.0126, -2.05, 5.25)" gradientUnits="userSpaceOnUse" id="gradient9" r="819.2" spreadMethod="pad">
      <stop offset="0.0" stop-color="#ea0404"/>
      <stop offset="1.0" stop-color="#430101"/>
    </radialGradient>
  </defs>
</svg>
