<?xml version="1.0" encoding="UTF-8" standalone="no"?>
<svg xmlns:xlink="http://www.w3.org/1999/xlink" height="32.0px" width="37.8px" xmlns="http://www.w3.org/2000/svg">
  <g transform="matrix(1.0, 0.0, 0.0, 1.0, 18.9, 16.0)">
    <path d="M-17.8 -15.0 L17.9 -15.0 17.9 -10.4 14.75 -8.0 9.9 15.0 -9.8 15.0 -14.7 -8.0 -17.85 -10.35 -17.8 -15.0" fill="url(#gradient0)" fill-rule="evenodd" stroke="none"/>
    <path d="M-17.85 -10.35 L-17.9 -10.4 -17.9 -15.0 -17.8 -15.0 -17.85 -10.35" fill="url(#gradient1)" fill-rule="evenodd" stroke="none"/>
    <path d="M-17.8 -15.0 L17.9 -15.0 17.9 -10.4 14.75 -8.0 9.9 15.0 -9.8 15.0 -14.7 -8.0 -17.85 -10.35 -17.9 -10.4 -17.9 -15.0 -17.8 -15.0 -17.85 -10.35" fill="none" stroke="#291b1a" stroke-linecap="round" stroke-linejoin="round" stroke-width="2.0"/>
    <path d="M13.5 -2.3 L-14.6 -8.0 14.8 -8.0 13.6 -2.3 13.5 -2.3 M-6.85 0.0 L3.2 2.2 -6.85 3.2 -6.85 0.0" fill="#271917" fill-opacity="0.2" fill-rule="evenodd" stroke="none"/>
  </g>
  <defs>
    <radialGradient cx="0" cy="0" gradientTransform="matrix(0.0294, 0.0, 0.0, 0.0294, -3.55, -4.4)" gradientUnits="userSpaceOnUse" id="gradient0" r="819.2" spreadMethod="pad">
      <stop offset="0.0" stop-color="#5b3b30"/>
      <stop offset="1.0" stop-color="#492e26"/>
    </radialGradient>
    <radialGradient cx="0" cy="0" gradientTransform="matrix(0.0381, 0.0, 0.0, 0.0381, -3.55, -4.4)" gradientUnits="userSpaceOnUse" id="gradient1" r="819.2" spreadMethod="pad">
      <stop offset="0.0" stop-color="#95695a"/>
      <stop offset="1.0" stop-color="#704c40"/>
    </radialGradient>
  </defs>
</svg>
