<?xml version="1.0" encoding="UTF-8" standalone="no"?>
<svg xmlns:ffdec="https://www.free-decompiler.com/flash" xmlns:xlink="http://www.w3.org/1999/xlink" ffdec:objectType="shape" height="26.35px" width="25.5px" xmlns="http://www.w3.org/2000/svg">
  <g transform="matrix(1.0, 0.0, 0.0, 1.0, 15.6, 28.55)">
    <path d="M-7.1 -10.65 L-7.1 -8.0 -15.1 -10.75 -15.1 -22.75 -8.35 -26.3 -8.4 -26.65 -3.6 -28.05 2.05 -28.05 Q5.75 -27.2 7.55 -25.25 L9.4 -25.25 9.4 -17.2 6.5 -17.2 1.25 -17.2 1.5 -18.9 1.75 -20.65 1.75 -20.7 2.15 -23.6 2.35 -25.25 7.55 -25.25 2.35 -25.25 2.15 -23.6 -2.4 -23.3 -2.4 -20.7 -4.55 -20.7 -4.55 -18.9 -2.4 -18.9 -2.4 -13.3 -4.65 -13.3 -4.65 -23.15 -7.1 -23.15 -7.1 -10.65 M-1.6 -3.9 L-4.9 -3.85 -5.95 -10.65 -4.65 -10.65 -4.65 -11.5 -2.3 -11.5 -1.6 -3.9 M-8.35 -26.3 L-7.1 -27.0 -7.1 -23.15 -7.1 -27.0 -8.35 -26.3 M8.0 -21.85 L8.0 -23.85 3.6 -23.85 3.6 -21.85 8.0 -21.85 M7.5 -18.85 L7.5 -20.85 3.1 -20.85 3.1 -18.85 7.5 -18.85 M-13.1 -12.75 L-10.15 -12.75 -10.15 -15.75 -13.1 -15.75 -13.1 -12.75 M-13.1 -17.75 L-10.15 -17.75 -10.15 -20.75 -13.1 -20.75 -13.1 -17.75 M-8.9 -14.75 L-8.9 -25.25 -8.9 -14.75" fill="#666666" fill-rule="evenodd" stroke="none"/>
    <path d="M9.4 -17.2 L7.8 -8.4 5.5 -9.4 5.5 -10.55 5.3 -10.55 Q3.45 -6.55 3.8 -2.7 L-1.6 -3.9 -2.3 -11.5 -4.65 -11.5 -4.8 -11.5 -4.8 -13.3 -4.65 -13.3 -4.8 -13.3 -4.8 -11.5 -4.65 -11.5 -4.65 -10.65 -5.95 -10.65 -7.1 -10.65 -7.1 -23.15 -4.65 -23.15 -4.65 -13.3 -2.4 -13.3 -2.4 -18.9 -4.55 -18.9 -4.55 -20.7 -2.4 -20.7 -2.4 -23.3 2.15 -23.6 1.75 -20.7 1.75 -20.65 1.5 -18.9 1.25 -17.2 6.5 -17.2 9.4 -17.2 M5.3 -10.55 L2.8 -10.55 2.65 -11.5 2.4 -12.8 2.3 -13.3 -2.4 -13.3 2.3 -13.3 2.4 -12.8 2.1 -14.45 6.1 -14.45 6.5 -17.2 6.1 -14.45 2.1 -14.45 2.4 -12.8 2.65 -11.5 2.8 -10.55 5.3 -10.55 M6.1 -14.45 L6.7 -14.45 6.7 -10.55 5.5 -10.55 6.7 -10.55 6.7 -14.45 6.1 -14.45 M2.65 -11.5 L-2.3 -11.5 2.65 -11.5 M1.5 -18.9 L-2.4 -18.9 1.5 -18.9 M1.75 -20.7 L-2.4 -20.7 1.75 -20.7" fill="#333333" fill-rule="evenodd" stroke="none"/>
    <path d="M7.5 -18.85 L3.1 -18.85 3.1 -20.85 7.5 -20.85 7.5 -18.85 M8.0 -21.85 L3.6 -21.85 3.6 -23.85 8.0 -23.85 8.0 -21.85 M-13.1 -17.75 L-13.1 -20.75 -10.15 -20.75 -10.15 -17.75 -13.1 -17.75 M-13.1 -12.75 L-13.1 -15.75 -10.15 -15.75 -10.15 -12.75 -13.1 -12.75" fill="#000099" fill-rule="evenodd" stroke="none"/>
    <path d="M-7.1 -10.65 L-7.1 -8.0 -15.1 -10.75 -15.1 -22.75 -8.35 -26.3 -8.4 -26.65 -3.6 -28.05 2.05 -28.05 Q5.75 -27.2 7.55 -25.25 L9.4 -25.25 9.4 -17.2 M-1.6 -3.9 L-4.9 -3.85 -5.95 -10.65 M-7.1 -23.15 L-7.1 -27.0 -8.35 -26.3 M7.55 -25.25 L2.35 -25.25 2.15 -23.6 M-8.9 -25.25 L-8.9 -14.75" fill="none" stroke="#2e2e2e" stroke-linecap="round" stroke-linejoin="round" stroke-width="1.0"/>
    <path d="M9.4 -17.2 L7.8 -8.4 5.5 -9.4 5.5 -10.55 5.3 -10.55 Q3.45 -6.55 3.8 -2.7 L-1.6 -3.9 M-5.95 -10.65 L-7.1 -10.65 -7.1 -23.15 -4.65 -23.15 -4.65 -13.3 -2.4 -13.3 2.3 -13.3 2.4 -12.8 2.1 -14.45 6.1 -14.45 6.5 -17.2 9.4 -17.2 M2.15 -23.6 L1.75 -20.7 1.75 -20.65 1.5 -18.9 1.25 -17.2 6.5 -17.2 M5.5 -10.55 L6.7 -10.55 6.7 -14.45 6.1 -14.45 M2.4 -12.8 L2.65 -11.5 2.8 -10.55 5.3 -10.55 M-2.4 -18.9 L-4.55 -18.9 -4.55 -20.7 -2.4 -20.7 1.75 -20.7 M-4.65 -13.3 L-4.8 -13.3 -4.8 -11.5 -4.65 -11.5 -2.3 -11.5 2.65 -11.5 M-2.4 -18.9 L1.5 -18.9 M-4.65 -11.5 L-4.65 -10.65 -5.95 -10.65" fill="none" stroke="#171717" stroke-linecap="round" stroke-linejoin="round" stroke-width="1.0"/>
    <path d="M7.5 -18.85 L3.1 -18.85 3.1 -20.85 7.5 -20.85 7.5 -18.85 M8.0 -21.85 L3.6 -21.85 3.6 -23.85 8.0 -23.85 8.0 -21.85 M-13.1 -17.75 L-13.1 -20.75 -10.15 -20.75 -10.15 -17.75 -13.1 -17.75 M-13.1 -12.75 L-13.1 -15.75 -10.15 -15.75 -10.15 -12.75 -13.1 -12.75 Z" fill="none" stroke="#000043" stroke-linecap="round" stroke-linejoin="round" stroke-width="1.0"/>
  </g>
</svg>
