<?xml version="1.0" encoding="UTF-8" standalone="no"?>
<svg xmlns:xlink="http://www.w3.org/1999/xlink" height="90.95px" width="32.1px" xmlns="http://www.w3.org/2000/svg">
  <g transform="matrix(1.0, 0.0, 0.0, 1.0, 16.0, 50.45)">
    <path d="M13.75 -24.4 L15.6 -22.8 13.75 -22.8 10.35 -22.8 -12.6 -22.8 -14.4 -22.8 -12.6 -24.4 9.15 -24.4 13.75 -24.4" fill="url(#gradient0)" fill-rule="evenodd" stroke="none"/>
    <path d="M-12.6 -22.8 L10.35 -22.8 13.75 -22.8 13.75 -5.15 9.15 -5.15 -12.6 -5.15 -12.6 -22.8" fill="url(#gradient1)" fill-rule="evenodd" stroke="none"/>
    <path d="M13.75 -22.8 L15.6 -22.8 13.75 -24.4 13.75 -47.9 15.6 -49.95 15.6 -22.8 15.6 -2.65 13.75 -5.15 13.75 -22.8 M13.75 -2.65 L15.6 -2.65 15.6 40.0 13.75 34.5 13.75 -2.65" fill="url(#gradient2)" fill-rule="evenodd" stroke="none"/>
    <path d="M13.75 -5.15 L15.6 -2.65 13.75 -2.65 10.35 -2.65 -12.6 -2.65 -14.4 -2.65 -12.6 -5.15 9.15 -5.15 13.75 -5.15" fill="url(#gradient3)" fill-rule="evenodd" stroke="none"/>
    <path d="M-12.6 -2.65 L10.35 -2.65 13.75 -2.65 13.75 34.5 -12.6 34.5 -12.6 -2.65" fill="url(#gradient4)" fill-rule="evenodd" stroke="none"/>
    <path d="M13.75 -24.4 L9.15 -24.4 -12.6 -24.4 -12.6 -47.9 13.75 -47.9 13.75 -24.4" fill="url(#gradient5)" fill-rule="evenodd" stroke="none"/>
    <path d="M15.6 -49.95 L13.75 -47.9 -12.6 -47.9 -14.4 -49.95 15.6 -49.95" fill="url(#gradient6)" fill-rule="evenodd" stroke="none"/>
    <path d="M15.6 40.0 L-14.4 40.0 -12.6 34.5 13.75 34.5 15.6 40.0" fill="url(#gradient7)" fill-rule="evenodd" stroke="none"/>
    <path d="M-12.6 -24.4 L-14.4 -22.8 -12.6 -22.8 -12.6 -5.15 -14.4 -2.65 -12.6 -2.65 -12.6 34.5 -14.4 40.0 -14.4 -2.65 -14.4 -22.8 -14.4 -49.95 -12.6 -47.9 -12.6 -24.4" fill="url(#gradient8)" fill-rule="evenodd" stroke="none"/>
    <path d="M13.75 -24.4 L9.15 -24.4 -12.6 -24.4 -12.6 -47.9 13.75 -47.9 13.75 -24.4 M-12.6 -22.8 L10.35 -22.8 13.75 -22.8 13.75 -5.15 9.15 -5.15 -12.6 -5.15 -12.6 -22.8 M-12.6 -2.65 L10.35 -2.65 13.75 -2.65 13.75 34.5 -12.6 34.5 -12.6 -2.65" fill="none" stroke="#353535" stroke-linecap="round" stroke-linejoin="round" stroke-width="1.05"/>
    <path d="M13.75 -22.8 L15.6 -22.8 13.75 -24.4 M-12.6 -24.4 L-14.4 -22.8 -12.6 -22.8 M13.75 -5.15 L15.6 -2.65 15.6 -22.8 15.6 -49.95 13.75 -47.9 M13.75 -2.65 L15.6 -2.65 15.6 40.0 -14.4 40.0 -14.4 -2.65 -14.4 -22.8 -14.4 -49.95 15.6 -49.95 M13.75 34.5 L15.6 40.0 M-12.6 -5.15 L-14.4 -2.65 -12.6 -2.65 M-12.6 -47.9 L-14.4 -49.95 M-12.6 34.5 L-14.4 40.0" fill="none" stroke="#444444" stroke-linecap="round" stroke-linejoin="round" stroke-width="1.05"/>
    <path d="M-15.5 -45.35 L-11.65 -45.35 -11.65 -40.25 -15.5 -40.25 -15.5 -45.35" fill="url(#gradient9)" fill-rule="evenodd" stroke="none"/>
    <path d="M-11.65 28.2 L-15.5 28.2 -15.5 23.1 -11.65 23.1 -11.65 28.2" fill="url(#gradient10)" fill-rule="evenodd" stroke="none"/>
    <path d="M-15.5 -45.35 L-11.65 -45.35 -11.65 -40.25 -15.5 -40.25 -15.5 -45.35 M-11.65 28.2 L-15.5 28.2 -15.5 23.1 -11.65 23.1 -11.65 28.2 Z" fill="none" stroke="#373737" stroke-linecap="round" stroke-linejoin="round" stroke-width="1.05"/>
  </g>
  <defs>
    <linearGradient gradientTransform="matrix(0.0, -0.0011, 0.0183, 0.0, 1.95, -23.55)" gradientUnits="userSpaceOnUse" id="gradient0" spreadMethod="pad" x1="-819.2" x2="819.2">
      <stop offset="0.0" stop-color="#727272"/>
      <stop offset="1.0" stop-color="#4a4a4a"/>
    </linearGradient>
    <radialGradient cx="0" cy="0" gradientTransform="matrix(0.0198, 0.0, 0.0, 0.0198, 0.6, -13.4)" gradientUnits="userSpaceOnUse" id="gradient1" r="819.2" spreadMethod="pad">
      <stop offset="0.0" stop-color="#515151"/>
      <stop offset="1.0" stop-color="#434343"/>
    </radialGradient>
    <linearGradient gradientTransform="matrix(-7.0E-4, 0.0, 0.0, -0.0549, 14.75, -4.95)" gradientUnits="userSpaceOnUse" id="gradient2" spreadMethod="pad" x1="-819.2" x2="819.2">
      <stop offset="0.0" stop-color="#727272"/>
      <stop offset="1.0" stop-color="#4a4a4a"/>
    </linearGradient>
    <linearGradient gradientTransform="matrix(0.0, -0.0017, 0.0183, 0.0, 1.95, -3.85)" gradientUnits="userSpaceOnUse" id="gradient3" spreadMethod="pad" x1="-819.2" x2="819.2">
      <stop offset="0.0" stop-color="#727272"/>
      <stop offset="1.0" stop-color="#4a4a4a"/>
    </linearGradient>
    <radialGradient cx="0" cy="0" gradientTransform="matrix(0.0289, 0.0, 0.0, 0.0289, 0.9, 16.85)" gradientUnits="userSpaceOnUse" id="gradient4" r="819.2" spreadMethod="pad">
      <stop offset="0.0" stop-color="#515151"/>
      <stop offset="1.0" stop-color="#434343"/>
    </radialGradient>
    <radialGradient cx="0" cy="0" gradientTransform="matrix(0.0215, 0.0, 0.0, 0.0215, 0.6, -36.15)" gradientUnits="userSpaceOnUse" id="gradient5" r="819.2" spreadMethod="pad">
      <stop offset="0.0" stop-color="#515151"/>
      <stop offset="1.0" stop-color="#434343"/>
    </radialGradient>
    <linearGradient gradientTransform="matrix(0.0, 0.0033, -0.0183, 0.0, 0.6, -47.25)" gradientUnits="userSpaceOnUse" id="gradient6" spreadMethod="pad" x1="-819.2" x2="819.2">
      <stop offset="0.0" stop-color="#727272"/>
      <stop offset="1.0" stop-color="#4a4a4a"/>
    </linearGradient>
    <linearGradient gradientTransform="matrix(0.0, -0.0037, 0.0183, 0.0, 1.95, 37.35)" gradientUnits="userSpaceOnUse" id="gradient7" spreadMethod="pad" x1="-819.2" x2="819.2">
      <stop offset="0.0" stop-color="#727272"/>
      <stop offset="1.0" stop-color="#4a4a4a"/>
    </linearGradient>
    <linearGradient gradientTransform="matrix(9.0E-4, 0.0, 0.0, 0.0549, -13.7, -5.0)" gradientUnits="userSpaceOnUse" id="gradient8" spreadMethod="pad" x1="-819.2" x2="819.2">
      <stop offset="0.0" stop-color="#727272"/>
      <stop offset="1.0" stop-color="#4a4a4a"/>
    </linearGradient>
    <linearGradient gradientTransform="matrix(0.0023, 0.0, 0.0, 0.0031, -13.55, -42.8)" gradientUnits="userSpaceOnUse" id="gradient9" spreadMethod="pad" x1="-819.2" x2="819.2">
      <stop offset="0.0" stop-color="#858585"/>
      <stop offset="1.0" stop-color="#676767"/>
    </linearGradient>
    <linearGradient gradientTransform="matrix(0.0023, 0.0, 0.0, 0.0031, -13.55, 25.65)" gradientUnits="userSpaceOnUse" id="gradient10" spreadMethod="pad" x1="-819.2" x2="819.2">
      <stop offset="0.0" stop-color="#858585"/>
      <stop offset="1.0" stop-color="#676767"/>
    </linearGradient>
  </defs>
</svg>
