<?xml version="1.0" encoding="UTF-8" standalone="no"?>
<svg xmlns:ffdec="https://www.free-decompiler.com/flash" xmlns:xlink="http://www.w3.org/1999/xlink" ffdec:objectType="shape" height="30.7px" width="29.2px" xmlns="http://www.w3.org/2000/svg">
  <g transform="matrix(1.0, 0.0, 0.0, 1.0, 16.45, 32.55)">
    <path d="M-3.0 -22.05 L-4.1 -25.4 -7.2 -25.55 -13.15 -22.85 -13.6 -28.1 Q-14.1 -29.6 -12.75 -30.35 L-11.45 -31.75 -6.0 -29.05 -4.2 -28.65 -3.3 -28.65 -3.0 -22.05 -1.65 -16.85 Q-1.05 -13.95 -1.55 -14.65 -2.55 -16.1 -3.0 -22.05" fill="#0f172a" fill-rule="evenodd" stroke="none"/>
    <path d="M11.9 -20.05 L11.7 -15.0 9.65 -11.8 Q5.0 -9.5 2.3 -8.6 -2.65 -6.9 -7.35 -9.6 -7.75 -7.85 -9.3 -14.9 -10.95 -22.0 -10.7 -24.65 -10.65 -25.3 -7.75 -25.55 -5.0 -25.85 -5.25 -26.15 -5.85 -26.85 -1.4 -26.45 L4.55 -26.2 4.4 -28.4 Q4.75 -28.45 9.35 -26.2 10.85 -24.5 11.85 -22.1 L11.9 -20.05" fill="url(#gradient0)" fill-rule="evenodd" stroke="none"/>
    <path d="M-11.55 -18.0 Q-12.35 -21.35 -12.35 -23.55 -11.55 -25.25 -10.95 -24.75 L-10.2 -23.75 Q-9.2 -21.85 -8.1 -19.0 -6.9 -16.05 -7.75 -17.45 L-8.9 -17.4 -9.95 -16.25 -10.85 -17.3 -11.55 -18.0" fill="#6dc4fe" fill-opacity="0.7647059" fill-rule="evenodd" stroke="none"/>
    <path d="M4.55 -21.25 L6.7 -20.05 2.65 -17.6 1.8 -19.9 4.55 -21.25 M9.2 -9.5 L7.2 -6.55 4.6 -8.35 Q4.0 -8.5 4.15 -9.2 L4.6 -10.5 6.2 -14.75 7.95 -13.45 9.2 -9.5" fill="#131d26" fill-rule="evenodd" stroke="none"/>
    <path d="M-0.75 -17.95 L-0.55 -18.2 Q-2.9 -21.85 -3.65 -25.4 -4.3 -28.6 -3.35 -28.25 L3.35 -26.55 Q4.35 -27.55 3.35 -24.35 2.15 -20.8 4.15 -21.85 4.3 -21.5 -0.15 -18.5 L-0.75 -17.95 Q-1.1 -17.25 -1.2 -14.4 L-1.35 -11.7 -0.95 -7.6 1.35 -8.15 3.75 -8.8 Q7.3 -6.95 6.05 -4.55 4.8 -2.1 -0.25 -2.7 -5.4 -5.7 -5.65 -7.7 L-3.35 -7.55 -1.15 -7.45 -1.35 -11.7 -1.6 -16.75 Q-1.55 -17.2 -0.75 -17.95" fill="#0f1213" fill-rule="evenodd" stroke="none"/>
    <path d="M-8.15 -29.8 L-11.55 -31.7 -14.05 -29.4 -13.75 -25.3 -12.8 -23.3 -12.05 -24.2 Q-11.7 -24.35 -11.45 -24.55 -11.05 -24.45 -10.7 -23.95 L-8.25 -24.6 -7.5 -25.35 -8.15 -29.8 -5.9 -28.55 -4.35 -28.8 -3.35 -28.0 4.05 -26.35 4.95 -28.25 Q5.7 -28.2 6.75 -27.4 8.05 -26.35 9.65 -25.8 10.9 -24.35 11.85 -22.1 L11.55 -15.3 10.55 -12.5 9.0 -11.4 9.1 -8.65 6.65 -6.7 Q4.85 -2.25 1.1 -2.35 -2.65 -2.4 -5.3 -6.6 L-6.65 -8.85 -8.2 -11.9 -9.8 -15.6 Q-9.9 -16.2 -9.65 -16.4 L-9.35 -17.2 -8.75 -17.8 Q-7.75 -18.3 -7.4 -16.55 L-6.95 -15.65 -7.3 -17.2 -7.65 -18.2 -7.5 -18.3 -7.8 -19.2 -8.65 -20.35 -9.65 -21.7 -10.5 -23.55 -10.7 -23.95 M-4.1 -25.4 L-6.2 -26.2 -8.25 -24.6 M-7.3 -17.2 L-7.35 -17.4 -7.5 -18.3 -5.8 -20.3 Q-3.35 -20.25 -1.05 -18.1 M-5.6 -13.1 L-6.35 -13.0 -7.05 -13.85 -6.9 -15.6 -6.95 -15.65 M-6.9 -15.6 L-7.3 -17.2" fill="none" stroke="#070a0a" stroke-linecap="round" stroke-linejoin="round" stroke-width="1.0"/>
    <path d="M5.3 -27.15 L4.6 -26.2 9.35 -26.2 M4.0 -21.05 L1.55 -19.2 2.6 -17.9 Q6.7 -19.5 6.75 -19.9 L6.65 -20.5 4.5 -21.25 Q2.15 -21.9 3.0 -23.8 L4.5 -26.05 4.6 -26.2 M-4.25 -28.7 Q-3.05 -27.75 -3.2 -26.85 -3.25 -26.45 -4.1 -25.25 L-1.4 -18.45 M-1.3 -17.55 L0.35 -18.5 1.55 -19.05 -1.3 -17.55 -1.35 -17.55 -1.95 -14.05 -0.35 -14.6 2.3 -15.75 3.15 -17.8 2.55 -15.9 2.3 -15.75 2.05 -15.2 2.4 -14.3 3.15 -12.65 Q3.8 -11.0 3.9 -8.85 L6.1 -14.6 7.55 -14.5 7.7 -12.85 9.2 -11.15 Q9.05 -10.65 9.15 -9.5 9.35 -8.55 9.05 -8.5 L7.65 -7.65 Q6.5 -7.0 5.95 -7.05 L4.65 -7.85 3.9 -8.85 M2.4 -14.3 L1.75 -15.2 -0.35 -14.6 -2.0 -13.8 -1.95 -14.05 -5.4 -13.05 -6.55 -12.95 -6.25 -8.45 -2.0 -7.75 Q-0.05 -7.8 3.65 -9.25 L3.25 -12.2 3.15 -12.65 M7.7 -25.35 L8.8 -19.4 Q9.6 -15.95 10.95 -13.2 L8.9 -14.05 7.3 -15.2 6.75 -19.9" fill="none" stroke="#080815" stroke-linecap="round" stroke-linejoin="round" stroke-width="1.0"/>
    <path d="M7.25 -9.8 L6.45 -9.35" fill="none" stroke="#080815" stroke-linecap="round" stroke-linejoin="round" stroke-opacity="0.5647059" stroke-width="1.0"/>
    <path d="M6.95 -11.05 L6.45 -10.8" fill="none" stroke="#080815" stroke-linecap="round" stroke-linejoin="round" stroke-opacity="0.5647059" stroke-width="1.0"/>
    <path d="M11.9 -16.95 L10.45 -17.95 9.95 -19.8 11.95 -19.55 Q12.1 -18.1 11.85 -17.65 11.75 -17.35 11.9 -16.95" fill="#6dc4fe" fill-opacity="0.75686276" fill-rule="evenodd" stroke="none"/>
    <path d="M11.9 -16.95 L10.45 -17.95 9.95 -19.8 11.95 -19.55 Q12.1 -18.1 11.85 -17.65 11.75 -17.35 11.9 -16.95 Z" fill="none" stroke="#000000" stroke-linecap="round" stroke-linejoin="round" stroke-opacity="0.47843137" stroke-width="1.0"/>
    <path d="M12.0 -21.15 L10.2 -21.95 9.7 -23.8 11.7 -23.5 12.25 -21.9 12.0 -21.15" fill="#6dc4fe" fill-opacity="0.75686276" fill-rule="evenodd" stroke="none"/>
    <path d="M12.0 -21.15 L10.2 -21.95 9.7 -23.8 11.7 -23.5 12.25 -21.9 12.0 -21.15 Z" fill="none" stroke="#000000" stroke-linecap="round" stroke-linejoin="round" stroke-opacity="0.47843137" stroke-width="1.0"/>
    <path d="M-12.9 -27.4 L-12.6 -26.0 -13.55 -25.9 -15.8 -27.4 -15.95 -28.55 -15.25 -28.2 -12.9 -27.4" fill="#6dc4fe" fill-opacity="0.7647059" fill-rule="evenodd" stroke="none"/>
    <path d="M-12.9 -27.4 L-15.25 -28.2 -15.95 -28.55 -15.8 -27.4 -13.55 -25.9 -12.6 -26.0 -12.9 -27.4 Z" fill="none" stroke="#000000" stroke-linecap="round" stroke-linejoin="round" stroke-opacity="0.47843137" stroke-width="1.0"/>
    <path d="M-12.1 -30.85 L-11.75 -29.5 -12.8 -29.4 -15.05 -30.85 -15.2 -32.05 -14.45 -31.7 -12.1 -30.85" fill="#6dc4fe" fill-opacity="0.7647059" fill-rule="evenodd" stroke="none"/>
    <path d="M-12.1 -30.85 L-14.45 -31.7 -15.2 -32.05 -15.05 -30.85 -12.8 -29.4 -11.75 -29.5 -12.1 -30.85 Z" fill="none" stroke="#000000" stroke-linecap="round" stroke-linejoin="round" stroke-opacity="0.47843137" stroke-width="1.0"/>
    <path d="M-4.4 -8.2 L-5.85 -7.95 -6.8 -9.05 -7.0 -11.5 -7.0 -14.8 -2.35 -13.75 -3.15 -12.05 -2.75 -12.2 Q-4.2 -8.1 -4.4 -8.2" fill="#4199d6" fill-opacity="0.48235294" fill-rule="evenodd" stroke="none"/>
    <path d="M-4.2 -9.65 L-4.55 -10.6 -6.85 -9.75 -4.65 -11.15 -4.9 -14.25 -4.55 -11.2 -3.2 -12.05 -3.15 -12.05 -2.35 -13.75 -7.0 -14.8 -7.0 -11.5 -6.8 -9.05 -5.85 -7.95 -4.4 -8.2 Q-4.2 -8.1 -2.75 -12.2 L-3.15 -12.05 -3.85 -10.8 -4.45 -10.5 -4.55 -11.2 -4.65 -11.15 -4.65 -10.85 -4.55 -10.6" fill="none" stroke="#000000" stroke-linecap="round" stroke-linejoin="round" stroke-opacity="0.69411767" stroke-width="1.0"/>
    <path d="M-2.75 -19.25 L-4.4 -14.2 -6.0 -14.6 -4.2 -20.25" fill="none" stroke="#080815" stroke-linecap="butt" stroke-linejoin="miter-clip" stroke-miterlimit="4.0" stroke-opacity="0.5803922" stroke-width="1.0"/>
    <path d="M-9.65 -16.65 L-9.15 -17.8 Q-8.8 -18.5 -7.8 -18.7 L-9.8 -21.4 -10.25 -23.25 Q-10.45 -24.3 -10.9 -24.35 L-12.05 -24.4 Q-12.6 -24.25 -12.1 -23.1 L-11.95 -19.7 Q-11.9 -18.9 -11.35 -18.2 -10.65 -17.25 -9.65 -16.65 Z" fill="none" stroke="#000000" stroke-linecap="round" stroke-linejoin="round" stroke-opacity="0.47843137" stroke-width="1.0"/>
    <path d="M-2.15 -13.9 L-1.15 -16.6 1.1 -17.2 3.65 -17.35 5.2 -15.15 Q6.15 -13.8 5.95 -13.45 L4.65 -11.2 3.25 -13.65 4.6 -11.15 Q2.55 -9.6 2.45 -10.0 L0.6 -14.1 1.85 -14.65 -0.1 -14.0 -2.15 -13.9" fill="#8de8fe" fill-opacity="0.6156863" fill-rule="evenodd" stroke="none"/>
    <path d="M3.65 -17.35 L5.2 -15.15 Q6.15 -13.8 5.95 -13.45 L4.65 -11.2 3.25 -13.65" fill="none" stroke="#000000" stroke-linecap="butt" stroke-linejoin="miter-clip" stroke-miterlimit="4.0" stroke-opacity="0.6117647" stroke-width="1.0"/>
    <path d="M3.25 -13.65 L4.6 -11.15 Q2.55 -9.6 2.45 -10.0 L0.6 -14.1 1.85 -14.65 -0.1 -14.0 -2.15 -13.9 -1.15 -16.6 1.1 -17.2 3.65 -17.35 3.35 -16.8 3.15 -16.3 2.55 -14.95 2.55 -14.9 3.1 -13.95 3.25 -13.65 M2.55 -14.95 L2.5 -14.95 2.55 -14.9 1.85 -14.65 M3.15 -16.3 L2.5 -15.0 2.55 -14.95 M3.1 -13.95 L2.55 -14.9" fill="none" stroke="#000000" stroke-linecap="round" stroke-linejoin="miter-clip" stroke-miterlimit="4.0" stroke-opacity="0.6117647" stroke-width="1.0"/>
  </g>
  <defs>
    <linearGradient gradientTransform="matrix(0.0029, 0.0014, -0.0014, 0.0029, 7.5, -22.15)" gradientUnits="userSpaceOnUse" id="gradient0" spreadMethod="pad" x1="-819.2" x2="819.2">
      <stop offset="0.0" stop-color="#121a22"/>
      <stop offset="0.5803921568627451" stop-color="#27363f"/>
      <stop offset="1.0" stop-color="#4d6277"/>
    </linearGradient>
  </defs>
</svg>
