<?xml version="1.0" encoding="UTF-8" standalone="no"?>
<svg xmlns:ffdec="https://www.free-decompiler.com/flash" xmlns:xlink="http://www.w3.org/1999/xlink" ffdec:objectType="shape" height="30.65px" width="29.25px" xmlns="http://www.w3.org/2000/svg">
  <g transform="matrix(1.0, 0.0, 0.0, 1.0, 16.45, 32.5)">
    <path d="M-2.95 -22.05 L-4.05 -25.4 -7.15 -25.55 -13.1 -22.8 -13.55 -28.1 Q-13.95 -29.5 -12.7 -30.3 L-11.55 -31.6 -6.0 -29.0 -4.45 -28.65 -3.25 -28.65 -2.95 -22.05 -1.6 -16.8 Q-1.0 -13.95 -1.5 -14.6 -2.5 -16.1 -2.95 -22.05" fill="#2b1313" fill-rule="evenodd" stroke="none"/>
    <path d="M4.45 -28.4 L9.4 -26.2 Q11.05 -24.2 11.9 -22.1 L11.95 -20.05 11.75 -15.0 9.7 -11.8 Q5.1 -9.5 2.35 -8.6 -2.6 -6.9 -7.3 -9.6 -7.65 -7.85 -9.25 -14.9 -10.9 -22.0 -10.65 -24.65 -10.6 -25.25 -7.65 -25.55 -4.95 -25.85 -5.2 -26.15 -5.8 -26.85 -1.3 -26.45 L4.6 -26.2 4.45 -28.4" fill="url(#gradient0)" fill-rule="evenodd" stroke="none"/>
    <path d="M-10.9 -24.75 L-10.2 -23.75 -8.05 -18.95 Q-6.85 -16.05 -7.75 -17.45 L-8.85 -17.4 -9.9 -16.2 -10.8 -17.25 Q-11.45 -17.75 -11.5 -18.0 -12.3 -21.35 -12.3 -23.5 -11.5 -25.2 -10.9 -24.75" fill="#ff5858" fill-opacity="0.76862746" fill-rule="evenodd" stroke="none"/>
    <path d="M4.6 -21.25 L6.75 -20.05 2.7 -17.6 1.85 -19.9 4.6 -21.25 M9.3 -9.5 L7.25 -6.55 4.65 -8.3 Q4.0 -8.5 4.2 -9.2 L4.65 -10.45 6.25 -14.7 8.0 -13.45 9.3 -9.5" fill="#251919" fill-rule="evenodd" stroke="none"/>
    <path d="M-3.3 -28.25 L3.4 -26.55 Q4.35 -27.55 3.35 -24.35 2.2 -20.75 4.2 -21.85 4.35 -21.45 -0.1 -18.5 L-0.5 -18.15 Q-2.85 -21.8 -3.6 -25.4 -4.25 -28.6 -3.3 -28.25 M-1.25 -11.7 L-1.55 -16.7 Q-1.5 -17.2 -0.65 -18.0 -1.0 -17.4 -1.15 -14.35 L-1.25 -11.7 -0.9 -7.6 Q-0.85 -7.4 1.35 -8.1 L3.8 -8.8 Q7.35 -6.95 6.1 -4.55 4.85 -2.05 -0.2 -2.7 -5.35 -5.7 -5.55 -7.65 L-3.3 -7.55 -1.1 -7.45 -1.25 -11.7" fill="#0f0b0b" fill-rule="evenodd" stroke="none"/>
    <path d="M-5.5 -13.1 L-6.35 -12.95 -7.0 -13.85 -6.85 -15.55 -7.05 -15.95 -7.35 -16.5 Q-7.5 -17.45 -7.8 -17.75 L-8.7 -17.8 Q-9.1 -17.7 -9.3 -17.15 L-9.65 -16.35 Q-9.9 -16.1 -9.7 -15.6 -9.4 -14.25 -8.2 -11.9 L-6.65 -8.85 -5.25 -6.6 Q-2.6 -2.4 1.15 -2.35 4.9 -2.25 6.7 -6.7 L9.2 -8.6 9.05 -11.4 10.6 -12.45 11.6 -15.3 11.9 -22.1 Q11.0 -24.25 9.7 -25.8 8.1 -26.35 6.8 -27.35 5.75 -28.2 5.05 -28.25 L4.1 -26.3 -3.3 -28.0 -4.35 -28.8 -5.85 -28.5 -8.15 -29.8 -7.45 -25.3 -8.2 -24.6 -6.15 -26.15 -4.05 -25.4 M-7.05 -15.95 L-7.35 -17.35 -7.35 -17.5 -7.55 -18.2 -7.45 -18.3 -7.75 -19.2 -8.6 -20.35 -9.6 -21.7 -10.45 -23.55 -10.65 -23.95 -11.4 -24.55 Q-11.65 -24.3 -12.0 -24.2 L-12.75 -23.3 -13.7 -25.25 -13.95 -29.35 -11.5 -31.7 -8.15 -29.8 M-1.05 -18.1 Q-3.3 -20.25 -5.75 -20.25 L-7.45 -18.3 -7.35 -17.5 -6.85 -15.65 -6.85 -15.6 -6.85 -15.55 -6.85 -15.65 -7.05 -15.95 M-10.65 -23.95 L-8.2 -24.6" fill="none" stroke="#0a0707" stroke-linecap="round" stroke-linejoin="round" stroke-width="1.0"/>
    <path d="M-4.2 -28.65 Q-3.0 -27.7 -3.15 -26.85 -3.2 -26.45 -4.05 -25.4 L-1.3 -18.4 M-0.4 -14.45 L-1.9 -14.05 -1.95 -13.8 -0.4 -14.45 2.3 -15.7 3.15 -17.8 2.6 -15.85 2.3 -15.7 2.1 -15.2 2.5 -14.15 3.2 -12.65 3.2 -12.6 Q3.85 -11.0 3.95 -8.85 L6.1 -14.55 7.6 -14.45 7.7 -12.85 9.3 -11.15 Q9.1 -10.65 9.25 -9.45 9.4 -8.5 9.1 -8.4 L7.7 -7.6 Q6.55 -6.95 6.0 -7.05 5.55 -7.1 4.7 -7.85 L3.9 -8.6 M3.2 -12.65 L3.3 -12.15 3.7 -9.2 Q0.0 -7.8 -1.95 -7.75 L-6.25 -8.4 -6.5 -12.9 -5.35 -13.05 -1.9 -14.05 -1.25 -17.55 0.4 -18.5 1.6 -19.05 -1.25 -17.55 M4.05 -21.0 L1.6 -19.2 2.65 -17.9 Q6.75 -19.5 6.75 -19.9 L6.7 -20.45 4.55 -21.25 Q2.15 -21.85 3.05 -23.8 L4.55 -26.0 4.65 -26.15 5.35 -27.1 M9.4 -26.2 L4.65 -26.15 M6.75 -19.9 L7.35 -15.2 8.95 -14.0 11.0 -13.15 Q9.65 -15.9 8.85 -19.4 L7.75 -25.3 M2.5 -14.15 L1.8 -15.15 -0.4 -14.45" fill="none" stroke="#140e0e" stroke-linecap="round" stroke-linejoin="round" stroke-width="1.0"/>
    <path d="M7.25 -9.8 L6.45 -9.35" fill="none" stroke="#150c08" stroke-linecap="round" stroke-linejoin="round" stroke-opacity="0.5647059" stroke-width="1.0"/>
    <path d="M7.0 -11.05 L6.5 -10.8" fill="none" stroke="#150c08" stroke-linecap="round" stroke-linejoin="round" stroke-opacity="0.5647059" stroke-width="1.0"/>
    <path d="M11.95 -16.95 L10.5 -17.95 10.0 -19.8 12.0 -19.55 Q12.15 -18.1 11.9 -17.65 L11.95 -16.95" fill="#ff5858" fill-opacity="0.76862746" fill-rule="evenodd" stroke="none"/>
    <path d="M11.95 -16.95 L10.5 -17.95 10.0 -19.8 12.0 -19.55 Q12.15 -18.1 11.9 -17.65 L11.95 -16.95 Z" fill="none" stroke="#000000" stroke-linecap="round" stroke-linejoin="round" stroke-opacity="0.47843137" stroke-width="1.0"/>
    <path d="M12.05 -21.15 L10.25 -21.95 9.7 -23.8 11.75 -23.5 12.3 -21.9 12.05 -21.15" fill="#ff5858" fill-opacity="0.76862746" fill-rule="evenodd" stroke="none"/>
    <path d="M12.05 -21.15 L10.25 -21.95 9.7 -23.8 11.75 -23.5 12.3 -21.9 12.05 -21.15 Z" fill="none" stroke="#000000" stroke-linecap="round" stroke-linejoin="round" stroke-opacity="0.47843137" stroke-width="1.0"/>
    <path d="M-15.95 -28.5 L-12.85 -27.35 -12.55 -26.0 -13.55 -25.9 -15.75 -27.3 -15.95 -28.5" fill="#ff5858" fill-opacity="0.76862746" fill-rule="evenodd" stroke="none"/>
    <path d="M-15.95 -28.5 L-15.75 -27.3 -13.55 -25.9 -12.55 -26.0 -12.85 -27.35 -15.95 -28.5 Z" fill="none" stroke="#000000" stroke-linecap="round" stroke-linejoin="round" stroke-opacity="0.47843137" stroke-width="1.0"/>
    <path d="M-15.15 -32.0 L-12.05 -30.85 -11.7 -29.45 -12.75 -29.35 -15.0 -30.8 -15.15 -32.0" fill="#ff5858" fill-opacity="0.76862746" fill-rule="evenodd" stroke="none"/>
    <path d="M-15.15 -32.0 L-15.0 -30.8 -12.75 -29.35 -11.7 -29.45 -12.05 -30.85 -15.15 -32.0 Z" fill="none" stroke="#000000" stroke-linecap="round" stroke-linejoin="round" stroke-opacity="0.47843137" stroke-width="1.0"/>
    <path d="M-6.8 -9.05 L-6.95 -11.5 -6.95 -14.7 -2.3 -13.75 -3.15 -12.05 -2.7 -12.15 Q-4.15 -8.05 -4.35 -8.1 L-5.8 -7.95 -6.8 -9.05" fill="#d67341" fill-opacity="0.48235294" fill-rule="evenodd" stroke="none"/>
    <path d="M-4.15 -9.65 L-4.5 -10.6 -6.8 -9.75 Q-5.75 -10.4 -4.6 -11.15 L-4.85 -14.25 -4.5 -11.2 -3.15 -12.05 -2.3 -13.75 -6.95 -14.7 -6.95 -11.5 -6.8 -9.05 -5.8 -7.95 -4.35 -8.1 Q-4.15 -8.05 -2.7 -12.15 L-3.15 -12.05 -3.85 -10.8 -4.45 -10.45 -4.5 -11.2 -4.6 -11.15 -4.6 -10.85 -4.5 -10.6" fill="none" stroke="#000000" stroke-linecap="round" stroke-linejoin="round" stroke-opacity="0.69411767" stroke-width="1.0"/>
    <path d="M-2.7 -19.25 L-4.35 -14.2 -5.95 -14.55 -4.15 -20.25" fill="none" stroke="#150b08" stroke-linecap="butt" stroke-linejoin="miter-clip" stroke-miterlimit="4.0" stroke-opacity="0.5803922" stroke-width="1.0"/>
    <path d="M-10.2 -23.2 Q-10.45 -24.3 -10.85 -24.35 L-12.0 -24.4 Q-12.55 -24.2 -12.05 -23.05 L-11.85 -19.7 Q-11.8 -18.85 -11.3 -18.2 -10.6 -17.25 -9.6 -16.55 L-9.1 -17.8 Q-8.75 -18.5 -7.75 -18.65 L-9.7 -21.4 Q-9.95 -21.75 -10.2 -23.2 Z" fill="none" stroke="#000000" stroke-linecap="round" stroke-linejoin="round" stroke-opacity="0.47843137" stroke-width="1.0"/>
    <path d="M-2.1 -13.85 L-1.1 -16.55 1.15 -17.2 3.7 -17.35 5.25 -15.15 Q6.2 -13.8 6.0 -13.45 L4.7 -11.2 3.3 -13.65 4.65 -11.15 Q2.6 -9.55 2.45 -10.0 L0.65 -14.05 2.0 -14.6 -0.05 -14.0 -2.1 -13.85" fill="#ee7f5b" fill-opacity="0.6117647" fill-rule="evenodd" stroke="none"/>
    <path d="M3.7 -17.35 L5.25 -15.15 Q6.2 -13.8 6.0 -13.45 L4.7 -11.2 3.3 -13.65" fill="none" stroke="#000000" stroke-linecap="butt" stroke-linejoin="miter-clip" stroke-miterlimit="4.0" stroke-opacity="0.6117647" stroke-width="1.0"/>
    <path d="M3.3 -13.65 L4.65 -11.15 Q2.6 -9.55 2.45 -10.0 L0.65 -14.05 2.0 -14.6 -0.05 -14.0 -2.1 -13.85 -1.1 -16.55 1.15 -17.2 3.7 -17.35 3.4 -16.75 3.2 -16.3 2.6 -14.95 2.6 -14.9 3.15 -13.95 3.3 -13.65 M2.6 -14.95 L2.55 -14.95 2.6 -14.9 2.0 -14.6 M3.2 -16.3 L2.55 -15.0 2.6 -14.95 M3.15 -13.95 L2.6 -14.9" fill="none" stroke="#000000" stroke-linecap="round" stroke-linejoin="miter-clip" stroke-miterlimit="4.0" stroke-opacity="0.6117647" stroke-width="1.0"/>
  </g>
  <defs>
    <linearGradient gradientTransform="matrix(0.0029, 0.0014, -0.0014, 0.0029, 7.5, -22.15)" gradientUnits="userSpaceOnUse" id="gradient0" spreadMethod="pad" x1="-819.2" x2="819.2">
      <stop offset="0.0" stop-color="#2e1818"/>
      <stop offset="0.6588235294117647" stop-color="#3e2828"/>
      <stop offset="1.0" stop-color="#774d4d"/>
    </linearGradient>
  </defs>
</svg>
