<?xml version="1.0" encoding="UTF-8" standalone="no"?>
<svg xmlns:xlink="http://www.w3.org/1999/xlink" height="11.3px" width="56.35px" xmlns="http://www.w3.org/2000/svg">
  <g transform="matrix(1.0, 0.0, 0.0, 1.0, -60.5, 6.3)">
    <path d="M67.7 5.0 Q64.95 4.7 63.3 3.3 60.5 1.75 60.5 -0.6 60.5 -2.9 63.3 -4.6 64.95 -6.0 67.7 -6.15 L67.7 5.0" fill="url(#gradient0)" fill-rule="evenodd" stroke="none"/>
    <path d="M67.7 -6.15 L68.25 -6.15 74.3 -6.3 104.15 -4.6 Q116.85 -2.9 116.85 -0.6 116.85 1.75 104.15 3.3 L74.3 5.0 68.25 5.0 Q68.25 4.85 67.7 5.0 L67.7 -6.15" fill="url(#gradient1)" fill-rule="evenodd" stroke="none"/>
  </g>
  <defs>
    <radialGradient cx="0" cy="0" gradientTransform="matrix(0.0, 0.0061, -0.0101, 0.0, 68.8, -0.6)" gradientUnits="userSpaceOnUse" id="gradient0" r="819.2" spreadMethod="pad">
      <stop offset="0.17647058823529413" stop-color="#ffffff"/>
      <stop offset="0.5529411764705883" stop-color="#ffffff" stop-opacity="0.77254903"/>
      <stop offset="1.0" stop-color="#ccf0ff" stop-opacity="0.0"/>
    </radialGradient>
    <radialGradient cx="0" cy="0" gradientTransform="matrix(0.0, 0.0061, -0.0521, 0.0, 74.3, -0.6)" gradientUnits="userSpaceOnUse" id="gradient1" r="819.2" spreadMethod="pad">
      <stop offset="0.17647058823529413" stop-color="#ffffff"/>
      <stop offset="0.5529411764705883" stop-color="#ffffff" stop-opacity="0.77254903"/>
      <stop offset="1.0" stop-color="#ccf0ff" stop-opacity="0.0"/>
    </radialGradient>
  </defs>
</svg>
