<?xml version="1.0" encoding="UTF-8" standalone="no"?>
<svg xmlns:ffdec="https://www.free-decompiler.com/flash" xmlns:xlink="http://www.w3.org/1999/xlink" ffdec:objectType="shape" height="28.35px" width="13.35px" xmlns="http://www.w3.org/2000/svg">
  <g transform="matrix(1.0, 0.0, 0.0, 1.0, 3.0, 3.0)">
    <path d="M-2.5 -0.85 L-1.75 -2.25 -1.35 -2.5 -0.8 -2.25 -0.25 -1.75 0.45 -1.9 1.35 -2.25 Q1.6 -0.45 1.35 0.5 L2.6 0.3 3.75 0.25 4.85 1.1 Q5.7 1.65 6.1 1.35 M0.0 22.0 Q0.0 23.3 0.5 24.25 L2.35 24.6 2.8 24.65 3.25 24.6 3.65 24.3 4.0 23.85 4.75 22.6 6.6 24.1 Q6.6 23.85 6.9 23.7 L7.5 23.75 8.35 24.5 9.85 24.6" fill="none" stroke="#ff0000" stroke-linecap="round" stroke-linejoin="round" stroke-width="1.0"/>
  </g>
</svg>
