<?xml version="1.0" encoding="UTF-8" standalone="no"?>
<svg xmlns:ffdec="https://www.free-decompiler.com/flash" xmlns:xlink="http://www.w3.org/1999/xlink" ffdec:objectType="shape" height="27.5px" width="27.15px" xmlns="http://www.w3.org/2000/svg">
  <g transform="matrix(1.0, 0.0, 0.0, 1.0, 17.3, 30.7)">
    <path d="M7.1 -23.25 L7.95 -22.35 8.6 -21.4 9.35 -19.3 Q9.45 -18.8 8.75 -14.15 L8.3 -13.45 Q6.6 -13.25 5.95 -13.45 L3.6 -14.45 2.4 -18.2 Q1.65 -19.7 0.9 -19.9 L-2.95 -20.35 -3.75 -23.25 -6.55 -24.1 -6.75 -27.4 -8.75 -27.65 -5.2 -29.05 -3.6 -26.95 1.65 -25.3 2.1 -23.3 5.2 -21.45 7.1 -23.25" fill="#282828" fill-rule="evenodd" stroke="none"/>
    <path d="M3.05 -27.4 L1.95 -25.45 -3.75 -27.05 -4.8 -29.25 -4.75 -29.45 -4.6 -29.7 -3.05 -29.75 -1.5 -29.65 2.4 -28.1 3.05 -27.4" fill="#1f1f1f" fill-rule="evenodd" stroke="none"/>
    <path d="M7.0 -23.3 L5.35 -21.35 2.4 -23.35 1.85 -25.15 2.75 -26.6 7.2 -24.9 7.0 -23.3" fill="#0f152e" fill-rule="evenodd" stroke="none"/>
    <path d="M-10.05 -17.8 Q-10.05 -16.4 -11.05 -15.4 -12.05 -14.4 -13.45 -14.4 -14.85 -14.4 -15.85 -15.4 -16.85 -16.4 -16.85 -17.8 -16.85 -19.2 -15.85 -20.2 -14.9 -21.2 -13.45 -21.25 -12.05 -21.25 -11.05 -20.25 -10.05 -19.25 -10.05 -17.85 L-10.05 -17.8" fill="url(#gradient0)" fill-rule="evenodd" stroke="none"/>
    <path d="M-5.4 -5.6 L-9.7 -8.1 -10.35 -10.2 -10.65 -12.65 Q-10.65 -13.2 -11.35 -14.3 L-12.1 -15.25 -8.5 -14.3 -7.35 -11.75 -7.35 -11.3 -5.95 -9.4 -6.2 -7.85 -5.1 -6.0 -5.4 -5.6" fill="#000000" fill-opacity="0.33333334" fill-rule="evenodd" stroke="none"/>
    <path d="M-5.4 -5.6 L-9.7 -8.1 -10.35 -10.2 -10.65 -12.65 Q-10.65 -13.2 -11.35 -14.3 L-12.1 -15.25 -8.5 -14.3 -7.35 -11.75 -7.35 -11.3 -5.95 -9.4 -6.2 -7.85 -5.1 -6.0 -5.4 -5.6 Z" fill="none" stroke="#000000" stroke-linecap="round" stroke-linejoin="round" stroke-opacity="0.32941177" stroke-width="1.0"/>
    <path d="M-2.8 -20.5 L-0.05 -20.2 1.05 -19.65 Q2.95 -18.2 3.5 -14.15 L6.55 -13.25 6.1 -11.55 5.0 -5.8 3.85 -4.7 Q2.65 -3.8 1.95 -3.75 L-1.25 -3.85 0.1 -6.45 -2.6 -10.1 -4.05 -17.15 -2.4 -18.95 -3.1 -20.35 -2.8 -20.5" fill="#161616" fill-rule="evenodd" stroke="none"/>
    <path d="M-5.1 -29.1 L-6.7 -28.75 -8.5 -27.7" fill="none" stroke="#121212" stroke-linecap="round" stroke-linejoin="round" stroke-width="1.0"/>
    <path d="M3.05 -26.7 L7.2 -24.95 7.45 -23.15 8.7 -21.45 Q9.45 -19.85 9.35 -17.4 9.2 -15.0 8.35 -13.7" fill="none" stroke="#121212" stroke-linecap="round" stroke-linejoin="round" stroke-width="1.0"/>
    <path d="M3.05 -27.35 L2.0 -25.55 -3.7 -27.1 -5.05 -29.2" fill="none" stroke="#121212" stroke-linecap="round" stroke-linejoin="round" stroke-width="1.0"/>
    <path d="M-15.65 -24.9 L-16.95 -26.8 -15.75 -28.4 -13.15 -29.9 -10.1 -30.05 -9.35 -27.85 -6.95 -27.5 -6.65 -24.25 -4.2 -23.5 -2.5 -18.9 -3.85 -17.4 -3.0 -12.3 -7.3 -11.25 -8.3 -13.95 -13.3 -15.1 -14.8 -20.05 -15.65 -21.5 -15.8 -23.0 -15.65 -24.9" fill="#282828" fill-rule="evenodd" stroke="none"/>
    <path d="M3.1 -27.4 Q3.0 -28.4 -0.9 -29.4 L-5.0 -29.25" fill="none" stroke="#0c0c0c" stroke-linecap="round" stroke-linejoin="round" stroke-width="1.0"/>
    <path d="M-10.05 -29.95 L-9.3 -27.85 -6.7 -27.35 -6.5 -24.35" fill="none" stroke="#1a1a1a" stroke-linecap="round" stroke-linejoin="round" stroke-width="1.0"/>
    <path d="M-10.0 -30.05 Q-12.15 -30.6 -14.4 -29.2 -16.15 -28.15 -16.8 -26.9 L-16.2 -25.75 -15.65 -24.65 Q-16.4 -22.75 -14.75 -19.95" fill="none" stroke="#121212" stroke-linecap="round" stroke-linejoin="round" stroke-width="1.0"/>
    <path d="M-14.7 -19.8 L-12.3 -19.8 Q-11.05 -18.2 -11.35 -16.8 L-13.15 -15.35 -14.7 -19.8" fill="#f3ab05" fill-rule="evenodd" stroke="none"/>
    <path d="M-14.7 -19.8 L-12.3 -19.8 Q-11.05 -18.2 -11.35 -16.8 L-13.15 -15.35 -14.7 -19.8 Z" fill="none" stroke="#261c04" stroke-linecap="round" stroke-linejoin="round" stroke-width="1.0"/>
    <path d="M-13.05 -15.15 L-8.6 -14.0 -7.05 -10.65" fill="none" stroke="#121212" stroke-linecap="round" stroke-linejoin="round" stroke-width="1.0"/>
    <path d="M-6.9 -10.5 L-2.85 -11.7 -4.0 -17.15 -2.45 -18.75" fill="none" stroke="#1a1a1a" stroke-linecap="round" stroke-linejoin="round" stroke-width="1.0"/>
    <path d="M-2.4 -18.85 L-3.9 -23.25 -6.55 -24.15" fill="none" stroke="#1a1a1a" stroke-linecap="round" stroke-linejoin="round" stroke-width="1.0"/>
    <path d="M8.3 -13.65 Q5.7 -12.95 3.7 -14.3" fill="none" stroke="#1a1a1a" stroke-linecap="round" stroke-linejoin="round" stroke-width="1.0"/>
    <path d="M6.45 -13.2 L5.2 -6.7" fill="none" stroke="#0d0d0d" stroke-linecap="round" stroke-linejoin="round" stroke-width="1.0"/>
    <path d="M3.55 -14.4 L2.65 -17.55" fill="none" stroke="#1a1a1a" stroke-linecap="round" stroke-linejoin="round" stroke-width="1.0"/>
    <path d="M-6.2 -21.4 L-5.8 -20.5" fill="none" stroke="#1a1a1a" stroke-linecap="round" stroke-linejoin="round" stroke-width="1.0"/>
    <path d="M-5.7 -19.2 L-5.45 -18.7" fill="none" stroke="#1a1a1a" stroke-linecap="round" stroke-linejoin="round" stroke-width="1.0"/>
    <path d="M-7.05 -21.5 L-6.85 -20.95" fill="none" stroke="#1a1a1a" stroke-linecap="round" stroke-linejoin="round" stroke-width="1.0"/>
    <path d="M-6.3 -10.7 Q-3.85 -8.35 -3.35 -5.2" fill="none" stroke="#1a1a1a" stroke-linecap="round" stroke-linejoin="round" stroke-width="1.0"/>
    <path d="M-3.15 -5.05 Q-0.3 -3.3 2.0 -3.85 3.95 -4.3 5.3 -6.4" fill="none" stroke="#0d0d0d" stroke-linecap="round" stroke-linejoin="round" stroke-width="1.0"/>
    <path d="M-1.15 -12.1 L-0.3 -14.1 4.0 -12.6 5.2 -11.25 7.25 -10.7 Q7.45 -8.9 6.75 -6.5 4.15 -6.05 1.7 -8.25 L1.15 -10.7 -1.15 -12.1" fill="#282828" fill-rule="evenodd" stroke="none"/>
    <path d="M-1.15 -12.1 L1.15 -10.7 1.7 -8.25 Q4.15 -6.05 6.75 -6.5 7.45 -8.9 7.25 -10.7 L5.2 -11.25 4.0 -12.6 -0.3 -14.1 -1.15 -12.1 Z" fill="none" stroke="#1a1a1a" stroke-linecap="round" stroke-linejoin="round" stroke-width="1.0"/>
    <path d="M7.2 -23.3 L5.3 -21.35" fill="none" stroke="#080d1c" stroke-linecap="round" stroke-linejoin="round" stroke-width="1.0"/>
    <path d="M-3.05 -12.5 L0.2 -6.6 -1.05 -3.85 -4.25 -3.85 -6.3 -7.35 -6.05 -9.0 -7.5 -11.2 -3.05 -12.5" fill="#1f1f1f" fill-rule="evenodd" stroke="none"/>
    <path d="M-3.05 -12.5 L-7.5 -11.2 -6.05 -9.0 -6.3 -7.35 -4.25 -3.85 -1.05 -3.85 0.2 -6.6" fill="none" stroke="#161616" stroke-linecap="round" stroke-linejoin="round" stroke-width="1.0"/>
    <path d="M1.8 -25.3 L2.45 -23.35 5.2 -21.3" fill="none" stroke="#080d1c" stroke-linecap="round" stroke-linejoin="round" stroke-width="1.0"/>
    <path d="M8.2 -18.35 L7.3 -18.35" fill="none" stroke="#1a1a1a" stroke-linecap="round" stroke-linejoin="round" stroke-width="1.0"/>
    <path d="M-3.0 -20.45 L0.35 -20.0 Q1.9 -19.4 2.65 -17.65" fill="none" stroke="#1a1a1a" stroke-linecap="round" stroke-linejoin="round" stroke-width="1.0"/>
    <path d="M-8.35 -24.85 Q-8.35 -24.4 -8.65 -24.05 -9.0 -23.75 -9.45 -23.75 -9.9 -23.75 -10.2 -24.05 -10.55 -24.4 -10.55 -24.85 L-10.2 -25.6 -9.45 -25.9 -8.65 -25.6 Q-8.35 -25.3 -8.35 -24.85 Z" fill="none" stroke="#1a1a1a" stroke-linecap="round" stroke-linejoin="round" stroke-width="1.0"/>
    <path d="M-3.65 -10.55 L-0.8 -5.5" fill="none" stroke="#172148" stroke-linecap="round" stroke-linejoin="round" stroke-width="1.0"/>
    <path d="M0.65 -21.2 Q3.8 -20.85 4.5 -15.65" fill="none" stroke="#242424" stroke-linecap="round" stroke-linejoin="round" stroke-width="1.0"/>
    <path d="M7.65 -9.9 L7.6 -8.45 7.2 -7.1 5.5 -7.5 Q6.05 -9.25 6.05 -10.3 L7.65 -9.9" fill="#f3ab05" fill-rule="evenodd" stroke="none"/>
    <path d="M7.65 -9.9 L6.05 -10.3 Q6.05 -9.25 5.5 -7.5 L7.2 -7.1 7.6 -8.45 7.65 -9.9 Z" fill="none" stroke="#261c04" stroke-linecap="round" stroke-linejoin="round" stroke-width="1.0"/>
    <path d="M2.6 -10.7 L3.1 -8.85" fill="none" stroke="#242424" stroke-linecap="round" stroke-linejoin="round" stroke-width="1.0"/>
    <path d="M-3.95 -17.2 L-2.8 -12.5 -4.8 -12.15 -5.6 -16.3 -3.95 -17.2" fill="#1f1f1f" fill-rule="evenodd" stroke="none"/>
    <path d="M-3.95 -17.2 L-5.6 -16.3 -4.8 -12.15 -2.8 -12.5 -3.95 -17.2 Z" fill="none" stroke="#0f0f0f" stroke-linecap="round" stroke-linejoin="round" stroke-width="1.0"/>
    <path d="M-15.15 -26.5 Q-13.7 -28.4 -11.1 -28.65 L-15.15 -26.5" fill="#1f1f1f" fill-rule="evenodd" stroke="none"/>
    <path d="M-15.15 -26.5 Q-13.7 -28.4 -11.1 -28.65" fill="none" stroke="#161616" stroke-linecap="round" stroke-linejoin="round" stroke-width="1.0"/>
    <path d="M-2.6 -20.95 L-3.45 -23.55 -4.4 -23.95 -6.0 -24.5 -6.2 -27.45 -6.4 -27.75 -6.85 -27.9 -7.15 -27.95 -6.5 -28.3 -5.85 -28.5 -5.25 -28.55 -4.25 -27.0 -4.6 -25.35 Q-4.6 -25.05 -4.4 -24.9 L-3.05 -24.05 -2.75 -23.9 -2.65 -23.6 -2.4 -22.2 -2.2 -20.95 -2.6 -20.95" fill="#232323" fill-rule="evenodd" stroke="none"/>
    <path d="M-14.0 -21.1 L-12.5 -21.05" fill="none" stroke="#252525" stroke-linecap="round" stroke-linejoin="round" stroke-width="1.0"/>
    <path d="M0.15 -6.65 L-2.95 -12.6" fill="none" stroke="#0f0f0f" stroke-linecap="round" stroke-linejoin="round" stroke-width="1.0"/>
    <path d="M-2.65 -11.85 Q-2.65 -11.4 -2.95 -11.1 -3.25 -10.8 -3.7 -10.8 -4.15 -10.8 -4.45 -11.1 -4.75 -11.4 -4.75 -11.85 L-4.45 -12.6 -3.7 -12.9 Q-3.25 -12.9 -2.95 -12.6 -2.65 -12.3 -2.65 -11.85" fill="#282828" fill-rule="evenodd" stroke="none"/>
    <path d="M-2.65 -11.85 Q-2.65 -11.4 -2.95 -11.1 -3.25 -10.8 -3.7 -10.8 -4.15 -10.8 -4.45 -11.1 -4.75 -11.4 -4.75 -11.85 L-4.45 -12.6 -3.7 -12.9 Q-3.25 -12.9 -2.95 -12.6 -2.65 -12.3 -2.65 -11.85 Z" fill="none" stroke="#161616" stroke-linecap="round" stroke-linejoin="round" stroke-width="1.0"/>
    <path d="M0.1 -6.65 L-1.2 -3.75" fill="none" stroke="#0f0f0f" stroke-linecap="round" stroke-linejoin="round" stroke-width="1.0"/>
  </g>
  <defs>
    <radialGradient cx="0" cy="0" gradientTransform="matrix(0.0042, 0.0, 0.0, 0.0042, -13.45, -17.8)" gradientUnits="userSpaceOnUse" id="gradient0" r="819.2" spreadMethod="pad">
      <stop offset="0.0" stop-color="#f3ab05" stop-opacity="0.3019608"/>
      <stop offset="1.0" stop-color="#f3ab05" stop-opacity="0.0"/>
    </radialGradient>
  </defs>
</svg>
