<?xml version="1.0" encoding="UTF-8" standalone="no"?>
<svg xmlns:xlink="http://www.w3.org/1999/xlink" height="17.65px" width="52.9px" xmlns="http://www.w3.org/2000/svg">
  <g transform="matrix(1.0, 0.0, 0.0, 1.0, 25.85, 6.2)">
    <path d="M8.55 8.75 Q6.85 8.7 5.4 7.8 3.95 6.95 3.6 5.75 L4.1 5.15 Q4.8 4.65 5.65 5.35 7.05 6.8 8.55 6.9 L8.55 8.75" fill="#8c7974" fill-rule="evenodd" stroke="none"/>
    <path d="M8.55 8.75 Q6.85 8.7 5.4 7.8 3.95 6.95 3.6 5.75 L4.1 5.15 Q4.8 4.65 5.65 5.35 7.05 6.8 8.55 6.9" fill="none" stroke="#4a3c35" stroke-linecap="round" stroke-linejoin="round" stroke-width="1.0"/>
    <path d="M-6.5 5.75 Q-5.25 3.5 -7.7 2.95 -10.1 2.45 -10.1 5.1 L-12.75 6.55 Q-13.45 6.9 -13.2 7.55 -13.0 8.25 -11.9 8.05 -10.2 7.75 -8.6 7.05 L-6.5 5.75 M-0.05 2.95 L-2.55 2.95 -3.6 4.3 -3.9 6.65 -2.75 7.55 Q-1.35 7.95 -0.05 5.4 0.5 4.2 0.3 3.45 L-0.05 2.95 M-23.25 -2.25 L-14.1 -3.2 24.0 3.2 20.95 5.0 3.6 5.75 Q1.25 7.05 0.0 8.85 L-0.8 10.4 Q-1.6 11.05 -2.9 10.9 L-4.05 10.6 Q-4.45 7.7 -7.05 8.6 L-11.9 10.05 Q-14.1 9.9 -14.85 9.15 L-15.6 7.65 Q-16.35 5.6 -21.65 5.55 -23.45 5.55 -24.45 4.25 L-25.1 2.95 -23.25 -2.25" fill="#3e3a39" fill-rule="evenodd" stroke="none"/>
    <path d="M-23.25 -2.25 L-25.1 2.95 -24.45 4.25 Q-23.45 5.55 -21.65 5.55 -16.35 5.6 -15.6 7.65 L-14.85 9.15 Q-14.1 9.9 -11.9 10.05 L-7.05 8.6 Q-4.45 7.7 -4.05 10.6 L-2.9 10.9 Q-1.6 11.05 -0.8 10.4 L0.0 8.85 Q1.25 7.05 3.6 5.75 L20.95 5.0 24.0 3.2 -14.1 -3.2 -23.25 -2.25 M-0.05 2.95 L0.3 3.45 Q0.5 4.2 -0.05 5.4 -1.35 7.95 -2.75 7.55 L-3.9 6.65 -3.6 4.3 -2.55 2.95 -0.05 2.95 M-6.5 5.75 L-8.6 7.05 Q-10.2 7.75 -11.9 8.05 -13.0 8.25 -13.2 7.55 -13.45 6.9 -12.75 6.55 L-10.1 5.1 Q-10.1 2.45 -7.7 2.95 -5.25 3.5 -6.5 5.75 Z" fill="none" stroke="#201f1d" stroke-linecap="round" stroke-linejoin="round" stroke-width="1.0"/>
    <path d="M-1.7 3.3 L-1.7 4.45" fill="none" stroke="#2e2e2e" stroke-linecap="round" stroke-linejoin="round" stroke-width="1.0"/>
    <path d="M23.6 -2.8 L25.7 -1.4 26.55 0.75 25.7 3.15 -4.8 3.15 -6.15 1.05 -6.5 -0.9 22.4 -0.65 23.6 -2.8" fill="#83807e" fill-rule="evenodd" stroke="none"/>
    <path d="M23.6 -2.8 L22.4 -0.65 -6.5 -0.9 -6.15 1.05" fill="none" stroke="#464646" stroke-linecap="round" stroke-linejoin="round" stroke-width="1.0"/>
    <path d="M-6.15 1.05 L-4.8 3.15 25.7 3.15" fill="none" stroke="#201f1d" stroke-linecap="round" stroke-linejoin="round" stroke-width="1.0"/>
    <path d="M25.7 3.15 L26.55 0.75 25.7 -1.4 23.6 -2.8" fill="none" stroke="#2f2f2d" stroke-linecap="round" stroke-linejoin="round" stroke-width="1.0"/>
    <path d="M23.6 -2.8 L22.4 -0.65 -6.5 -0.9 -6.15 1.05" fill="none" stroke="#373838" stroke-linecap="round" stroke-linejoin="round" stroke-width="1.0"/>
    <path d="M-25.35 2.95 L-25.1 -1.1 -23.25 -2.25 -11.4 -3.55 -11.9 0.0 Q-13.8 0.1 -15.25 1.55 L-16.3 2.95 -25.35 2.95" fill="#6a6663" fill-rule="evenodd" stroke="none"/>
    <path d="M-11.4 -3.55 L-11.9 0.0" fill="none" stroke="#373838" stroke-linecap="round" stroke-linejoin="round" stroke-width="1.0"/>
    <path d="M-11.9 0.0 Q-13.8 0.1 -15.25 1.55 L-16.3 2.95 -25.35 2.95" fill="none" stroke="#201f1d" stroke-linecap="round" stroke-linejoin="round" stroke-width="1.0"/>
    <path d="M-25.35 2.95 L-25.1 -1.1 -23.25 -2.25 -11.4 -3.55" fill="none" stroke="#2f2f2d" stroke-linecap="round" stroke-linejoin="round" stroke-width="1.0"/>
    <path d="M-13.7 -0.9 Q-16.5 -0.75 -17.45 -1.75 -18.3 -2.55 -17.6 -3.6 -17.0 -4.65 -15.8 -4.7 -14.45 -4.8 -13.6 -3.2 L-13.7 -0.9" fill="#8c7974" fill-rule="evenodd" stroke="none"/>
    <path d="M-13.7 -0.9 Q-16.5 -0.75 -17.45 -1.75 -18.3 -2.55 -17.6 -3.6 -17.0 -4.65 -15.8 -4.7 -14.45 -4.8 -13.6 -3.2 L-13.7 -0.9 Z" fill="none" stroke="#4a3c35" stroke-linecap="round" stroke-linejoin="round" stroke-width="1.0"/>
    <path d="M-15.4 -2.75 L-13.6 -2.55" fill="none" stroke="#4a3c35" stroke-linecap="round" stroke-linejoin="round" stroke-width="1.0"/>
    <path d="M-11.9 -4.65 L-11.9 0.7 -14.1 -0.15 -14.1 -3.8 -11.9 -4.65" fill="#bbb6b0" fill-rule="evenodd" stroke="none"/>
    <path d="M-11.9 -4.65 L-11.9 0.7 -14.1 -0.15 -14.1 -3.8 -11.9 -4.65 Z" fill="none" stroke="#4f4c49" stroke-linecap="round" stroke-linejoin="round" stroke-width="1.0"/>
    <path d="M-1.8 -5.35 Q-0.6 -5.35 0.25 -4.35 1.05 -3.4 1.05 -1.95 1.05 -0.55 0.25 0.4 -0.6 1.4 -1.8 1.4 L-1.8 -5.35" fill="#555351" fill-rule="evenodd" stroke="none"/>
    <path d="M-1.8 -5.35 Q-0.6 -5.35 0.25 -4.35 1.05 -3.4 1.05 -1.95 1.05 -0.55 0.25 0.4 -0.6 1.4 -1.8 1.4 L-1.8 -5.35 Z" fill="none" stroke="#2e2e2e" stroke-linecap="butt" stroke-linejoin="miter-clip" stroke-miterlimit="10.0" stroke-width="1.0"/>
    <path d="M8.55 6.9 Q9.45 6.9 10.25 6.35 L11.2 5.2 Q11.7 4.1 12.75 4.4 13.75 4.7 13.5 5.3 12.15 8.85 8.55 8.75 L8.55 6.9" fill="#8c7974" fill-rule="evenodd" stroke="none"/>
    <path d="M8.55 6.9 Q9.45 6.9 10.25 6.35 L11.2 5.2 Q11.7 4.1 12.75 4.4 13.75 4.7 13.5 5.3 12.15 8.85 8.55 8.75" fill="none" stroke="#4a3c35" stroke-linecap="round" stroke-linejoin="round" stroke-width="1.0"/>
    <path d="M-14.7 4.2 L-12.8 3.1" fill="none" stroke="#201f1d" stroke-linecap="round" stroke-linejoin="round" stroke-width="1.0"/>
    <path d="M-14.05 5.55 L-12.15 4.45" fill="none" stroke="#201f1d" stroke-linecap="round" stroke-linejoin="round" stroke-width="1.0"/>
    <path d="M20.95 5.0 L21.25 6.55 22.15 7.15" fill="none" stroke="#272625" stroke-linecap="round" stroke-linejoin="round" stroke-width="1.0"/>
    <path d="M3.2 1.3 L5.45 1.3" fill="none" stroke="#696461" stroke-linecap="round" stroke-linejoin="round" stroke-width="1.0"/>
    <path d="M8.55 1.3 L10.8 1.3" fill="none" stroke="#696461" stroke-linecap="round" stroke-linejoin="round" stroke-width="1.0"/>
    <path d="M14.55 1.3 L16.75 1.3" fill="none" stroke="#696461" stroke-linecap="round" stroke-linejoin="round" stroke-width="1.0"/>
    <path d="M20.45 1.3 L22.65 1.3" fill="none" stroke="#696461" stroke-linecap="round" stroke-linejoin="round" stroke-width="1.0"/>
    <path d="M-25.25 1.3 L-25.1 -1.1 -23.25 -2.25 -21.7 -2.45 -21.7 -0.1 -23.1 1.3 -25.25 1.3" fill="#555351" fill-rule="evenodd" stroke="none"/>
    <path d="M-21.7 -2.45 L-21.7 -0.1 -23.1 1.3 -25.25 1.3" fill="none" stroke="#373838" stroke-linecap="round" stroke-linejoin="round" stroke-width="1.0"/>
    <path d="M-25.25 1.3 L-25.1 -1.1 -23.25 -2.25 -21.7 -2.45" fill="none" stroke="#2f2f2d" stroke-linecap="round" stroke-linejoin="round" stroke-width="1.0"/>
    <path d="M-21.15 1.55 L-19.7 0.0 -17.35 0.0" fill="none" stroke="#4a4641" stroke-linecap="round" stroke-linejoin="round" stroke-width="1.0"/>
    <path d="M-2.95 -1.95 L-10.1 -1.95 -2.95 -1.95 M-2.95 -3.95 L-10.1 -3.95 -2.95 -3.95 M-1.2 -5.7 L-1.2 1.8 -11.9 1.8 -11.9 -5.7 -1.2 -5.7 M-2.95 0.0 L-10.1 0.0 -2.95 0.0" fill="#83807e" fill-rule="evenodd" stroke="none"/>
    <path d="M-1.2 -5.7 L-1.2 1.8 -11.9 1.8 -11.9 -5.7 -1.2 -5.7" fill="none" stroke="#3f413e" stroke-linecap="round" stroke-linejoin="round" stroke-width="1.0"/>
    <path d="M-10.1 -3.95 L-2.95 -3.95 M-10.1 -1.95 L-2.95 -1.95 M-10.1 0.0 L-2.95 0.0" fill="none" stroke="#696461" stroke-linecap="round" stroke-linejoin="round" stroke-width="1.0"/>
  </g>
</svg>
