<?xml version="1.0" encoding="UTF-8" standalone="no"?>
<svg xmlns:ffdec="https://www.free-decompiler.com/flash" xmlns:xlink="http://www.w3.org/1999/xlink" ffdec:objectType="shape" height="34.75px" width="27.6px" xmlns="http://www.w3.org/2000/svg">
  <g transform="matrix(1.0, 0.0, 0.0, 1.0, 15.05, 34.15)">
    <path d="M8.8 -14.0 L7.65 -10.05 Q6.5 -5.7 6.45 -3.7 L5.95 -2.0 1.15 -2.85 -5.6 -4.0 Q-6.2 -5.05 -6.05 -6.95 -5.85 -9.8 -6.0 -11.35 -6.15 -13.05 -7.1 -16.8 -7.75 -19.25 -7.4 -22.65 -7.0 -27.05 -6.35 -28.75 -5.75 -30.4 -4.45 -30.65 -1.3 -31.55 2.0 -29.75 L7.25 -26.3 Q7.5 -24.9 8.9 -23.3 L7.45 -16.9 8.95 -14.15 8.8 -14.0" fill="#222222" fill-rule="evenodd" stroke="none"/>
    <path d="M8.8 -14.0 L7.65 -10.05 Q6.5 -5.7 6.45 -3.7 L5.95 -2.0 1.15 -2.85 -5.6 -4.0 Q-6.2 -5.05 -6.05 -6.95 -5.85 -9.8 -6.0 -11.35 -6.15 -13.05 -7.1 -16.8 -7.75 -19.25 -7.4 -22.65 -7.0 -27.05 -6.35 -28.75 -5.75 -30.4 -4.45 -30.65 -1.3 -31.55 2.0 -29.75 L7.25 -26.3 Q7.5 -24.9 8.9 -23.3 L7.45 -16.9 8.95 -14.15 8.8 -14.0 Z" fill="none" stroke="#050607" stroke-linecap="butt" stroke-linejoin="miter-clip" stroke-miterlimit="15.12109375" stroke-width="1.0"/>
    <path d="M9.85 -18.8 L9.65 -16.4 Q9.65 -15.9 8.35 -16.65 L6.4 -14.95 0.95 -16.3 Q0.25 -16.45 -0.1 -18.4 -0.5 -20.9 1.1 -23.55 3.0 -25.85 2.45 -25.75 L4.0 -26.35 5.5 -25.8 9.0 -21.8 Q9.9 -20.85 9.85 -18.8" fill="#5c5753" fill-rule="evenodd" stroke="none"/>
    <path d="M6.4 -14.95 L5.7 -12.0 3.0 -11.5 -1.05 -12.25 -2.0 -15.1 -0.7 -16.2 2.25 -16.15 6.4 -14.95" fill="#7b756f" fill-rule="evenodd" stroke="none"/>
    <path d="M-2.0 -15.1 L-1.05 -12.25 -4.2 -11.55 -6.75 -13.15 -6.45 -16.25 -4.6 -15.25 -2.0 -15.1" fill="#7b756f" fill-rule="evenodd" stroke="none"/>
    <path d="M9.45 -15.85 L9.8 -15.7 10.2 -14.9 Q10.3 -13.95 9.75 -11.55 L7.45 -11.4 5.7 -12.0 6.4 -14.95 8.35 -16.65 9.45 -15.85" fill="#7b756f" fill-rule="evenodd" stroke="none"/>
    <path d="M-7.7 -31.1 L-6.5 -32.6 -4.05 -32.55 -2.8 -29.45 -3.8 -28.75 Q-5.0 -27.75 -5.7 -26.1 -6.85 -23.4 -6.5 -19.65 L-6.95 -17.5 -6.3 -15.75 -7.45 -14.35 -8.45 -15.05 -9.8 -16.75 Q-10.4 -23.55 -9.55 -27.0 -9.0 -29.15 -7.7 -31.1" fill="#5e5955" fill-rule="evenodd" stroke="none"/>
    <path d="M8.35 -16.65 L6.4 -14.95 2.25 -16.15" fill="none" stroke="#606d42" stroke-linecap="round" stroke-linejoin="round" stroke-width="1.0"/>
    <path d="M8.35 -16.65 L9.45 -15.85 9.95 -15.3 Q10.45 -14.65 10.35 -13.95 L9.85 -11.65 9.1 -11.15 7.9 -11.35" fill="none" stroke="#494541" stroke-linecap="round" stroke-linejoin="round" stroke-width="1.0"/>
    <path d="M7.9 -11.35 L3.0 -11.5 -1.05 -12.25 -4.2 -11.55 -6.75 -13.15 -6.55 -14.95" fill="none" stroke="#413e3a" stroke-linecap="round" stroke-linejoin="round" stroke-width="1.0"/>
    <path d="M-1.05 -12.25 L-2.0 -15.1" fill="none" stroke="#474441" stroke-linecap="round" stroke-linejoin="round" stroke-width="1.0"/>
    <path d="M-6.75 -16.1 L-5.15 -15.8 -4.6 -15.25 -2.0 -15.1 -0.7 -16.2 2.25 -16.15" fill="none" stroke="#474441" stroke-linecap="round" stroke-linejoin="round" stroke-width="1.0"/>
    <path d="M5.25 -26.3 L2.75 -25.9 1.2 -24.75 0.9 -22.9 0.05 -20.65 -0.15 -19.15 0.45 -17.25 0.95 -16.3" fill="none" stroke="#34312f" stroke-linecap="round" stroke-linejoin="round" stroke-width="1.0"/>
    <path d="M-3.95 -31.85 L-2.8 -29.45 -3.9 -28.85 Q-5.15 -27.85 -5.75 -26.0 -6.75 -23.05 -6.25 -19.9 L-7.45 -17.5 -6.3 -15.75 -7.45 -14.35 -8.45 -15.05" fill="none" stroke="#494541" stroke-linecap="round" stroke-linejoin="round" stroke-width="1.0"/>
    <path d="M-4.7 -32.9 L-6.5 -32.6 -7.2 -31.65" fill="none" stroke="#313920" stroke-linecap="round" stroke-linejoin="round" stroke-width="1.0"/>
    <path d="M-8.45 -15.05 L-9.8 -16.75 Q-10.4 -22.05 -9.6 -25.8 -9.15 -28.15 -8.1 -30.15 L-7.2 -31.65" fill="none" stroke="#3c4429" stroke-linecap="round" stroke-linejoin="round" stroke-width="1.0"/>
    <path d="M0.95 -4.15 L-1.85 -3.45 -6.3 -4.55 -7.1 -5.5 -7.15 -8.75 -6.5 -9.5 -2.25 -8.7 2.65 -8.65 2.55 -7.05 1.35 -6.8 0.95 -4.15" fill="#7b756f" fill-rule="evenodd" stroke="none"/>
    <path d="M-5.7 -9.35 L-6.5 -9.5 -7.15 -8.75 -7.1 -5.5 -6.3 -4.55 -5.6 -4.1" fill="none" stroke="#494541" stroke-linecap="round" stroke-linejoin="round" stroke-width="1.0"/>
    <path d="M-5.7 -9.35 L-2.25 -8.7 2.65 -8.65 2.55 -7.05 1.35 -6.85 0.95 -4.15 -1.85 -3.45 -5.6 -4.1" fill="none" stroke="#45413d" stroke-linecap="round" stroke-linejoin="round" stroke-width="1.0"/>
    <path d="M5.3 -8.95 L8.0 -8.2 8.55 -6.35 7.5 -2.25 6.1 -2.1 4.15 -2.5 3.65 -3.55 3.65 -5.35 4.65 -7.15 5.3 -8.95" fill="#66695e" fill-rule="evenodd" stroke="none"/>
    <path d="M7.1 -8.45 L8.0 -8.2 8.55 -6.35 7.6 -3.1 7.5 -2.25 6.1 -2.1" fill="none" stroke="#373833" stroke-linecap="round" stroke-linejoin="round" stroke-width="1.0"/>
    <path d="M2.55 -7.05 L2.65 -8.65 3.6 -9.3 5.3 -8.95 4.65 -7.15 3.65 -5.35 3.65 -3.55 4.15 -2.5 2.15 -2.25 1.4 -2.95 0.95 -4.15 1.35 -6.85 2.55 -7.05" fill="#7c7c7c" fill-rule="evenodd" stroke="none"/>
    <path d="M7.1 -8.45 L5.3 -8.95" fill="none" stroke="#44453f" stroke-linecap="round" stroke-linejoin="round" stroke-width="1.0"/>
    <path d="M6.05 -2.4 L4.2 -2.55" fill="none" stroke="#44453f" stroke-linecap="round" stroke-linejoin="round" stroke-width="1.0"/>
    <path d="M4.15 -2.5 L2.15 -2.25 0.95 -4.15" fill="none" stroke="#3c3c3c" stroke-linecap="round" stroke-linejoin="round" stroke-width="1.0"/>
    <path d="M5.3 -8.95 L3.6 -9.3 2.65 -8.65" fill="none" stroke="#3c3c3c" stroke-linecap="round" stroke-linejoin="miter-clip" stroke-miterlimit="15.12109375" stroke-width="1.0"/>
    <path d="M2.65 -8.65 L2.55 -7.05 1.35 -6.85 0.95 -4.15" fill="none" stroke="#313920" stroke-linecap="round" stroke-linejoin="round" stroke-width="1.0"/>
    <path d="M5.3 -8.95 L4.65 -6.75 3.65 -5.35 3.65 -3.55 4.2 -2.55" fill="none" stroke="#272727" stroke-linecap="round" stroke-linejoin="round" stroke-width="1.0"/>
    <path d="M2.55 -7.05 L3.55 -6.35 3.65 -5.35" fill="none" stroke="#272727" stroke-linecap="round" stroke-linejoin="round" stroke-opacity="0.3647059" stroke-width="1.0"/>
    <path d="M0.6 -4.55 L-1.85 -3.9 -1.8 -5.55 0.2 -5.95 -1.75 -5.6 -1.85 -6.65 -2.25 -8.15 2.15 -8.15 2.15 -7.45 1.05 -7.25 0.6 -4.55" fill="#5c5753" fill-rule="evenodd" stroke="none"/>
    <path d="M-1.8 -6.2 L-2.25 -8.15" fill="none" stroke="#222717" stroke-linecap="round" stroke-linejoin="round" stroke-width="1.0"/>
    <path d="M-1.85 -3.9 L-1.8 -5.55" fill="none" stroke="#222717" stroke-linecap="round" stroke-linejoin="round" stroke-width="1.0"/>
    <path d="M-3.35 -6.05 L-3.85 -8.3" fill="none" stroke="#525844" stroke-linecap="round" stroke-linejoin="round" stroke-width="1.0"/>
    <path d="M-3.4 -4.05 L-3.35 -5.7" fill="none" stroke="#525844" stroke-linecap="round" stroke-linejoin="round" stroke-width="1.0"/>
    <path d="M-0.95 -7.3 L-1.05 -7.85" fill="none" stroke="#68c0bc" stroke-linecap="round" stroke-linejoin="round" stroke-width="1.0"/>
    <path d="M-0.9 -4.45 L-0.8 -5.25" fill="none" stroke="#68c0bc" stroke-linecap="round" stroke-linejoin="round" stroke-width="1.0"/>
    <path d="M5.35 -5.3 L4.8 -4.7 4.85 -4.1" fill="none" stroke="#4a4c44" stroke-linecap="round" stroke-linejoin="round" stroke-width="1.0"/>
    <path d="M6.45 -17.6 L5.15 -16.95" fill="none" stroke="#afb89b" stroke-linecap="round" stroke-linejoin="round" stroke-width="1.0"/>
    <path d="M3.2 -13.4 L2.25 -13.15 1.25 -13.35" fill="none" stroke="#635f5a" stroke-linecap="round" stroke-linejoin="round" stroke-width="1.0"/>
    <path d="M6.0 -19.25 L4.7 -18.65" fill="none" stroke="#afb89b" stroke-linecap="round" stroke-linejoin="round" stroke-width="1.0"/>
    <path d="M9.75 -14.6 L6.5 -15.1 Q3.7 -15.5 3.45 -15.9 L2.9 -17.6 Q2.6 -18.85 2.65 -19.35 L6.15 -21.55 7.25 -26.65 8.85 -25.4 10.15 -23.6 Q10.9 -22.5 10.85 -21.7 L10.45 -20.6 10.7 -17.65 10.7 -17.15 Q10.7 -15.25 10.2 -14.7 L10.05 -14.6 Q9.45 -14.95 9.7 -14.65 L9.75 -14.6 M10.45 -20.6 L10.6 -16.95 Q10.6 -15.55 10.2 -14.7 10.6 -15.55 10.6 -16.95 L10.45 -20.6" fill="#766f68" fill-rule="evenodd" stroke="none"/>
    <path d="M10.7 -17.65 L10.75 -17.2 Q10.85 -15.5 10.1 -14.6 9.95 -14.4 9.75 -14.6 L6.5 -15.1 Q3.7 -15.5 3.45 -15.9 L2.9 -17.6 Q2.6 -18.85 2.65 -19.35 L6.15 -21.55 7.25 -26.65 8.85 -25.4 10.15 -23.6 Q10.9 -22.5 10.85 -21.7 L10.45 -20.6 10.7 -17.65 10.7 -17.15 Q10.7 -15.25 10.2 -14.7 L10.1 -14.6 10.05 -14.6 10.0 -14.6 9.75 -14.6 9.7 -14.65 Q9.45 -14.95 10.05 -14.6 L10.2 -14.7 Q10.6 -15.55 10.6 -16.95 L10.45 -20.6" fill="none" stroke="#33322f" stroke-linecap="round" stroke-linejoin="round" stroke-width="1.0"/>
    <path d="M11.55 -22.4 L12.2 -21.85 12.3 -19.55 Q12.45 -18.65 11.3 -17.15 L9.5 -19.95 9.65 -22.4 11.55 -22.4" fill="#4f4f49" fill-rule="evenodd" stroke="none"/>
    <path d="M10.95 -23.0 L12.0 -21.1 11.9 -18.15 11.3 -17.15" fill="none" stroke="#262624" stroke-linecap="round" stroke-linejoin="round" stroke-width="1.0"/>
    <path d="M10.5 -22.9 L9.65 -22.4 9.9 -20.3 9.65 -18.7 11.3 -17.15" fill="none" stroke="#30302f" stroke-linecap="round" stroke-linejoin="round" stroke-width="1.0"/>
    <path d="M3.15 -19.0 L4.25 -19.75 5.9 -18.05 6.0 -15.55 3.55 -16.1 3.15 -19.0" fill="#3d3b38" fill-opacity="0.5372549" fill-rule="evenodd" stroke="none"/>
    <path d="M4.25 -19.75 L4.35 -15.35 7.05 -14.9" fill="none" stroke="#3f3d3a" stroke-linecap="round" stroke-linejoin="round" stroke-width="1.0"/>
    <path d="M-7.9 -33.5 L-5.65 -33.25 -6.0 -32.3 -6.45 -30.55 -7.05 -29.05 -7.85 -26.65 -8.0 -23.95 -8.1 -22.1 -9.1 -19.3 Q-11.3 -20.45 -14.05 -24.5 -13.85 -28.5 -13.0 -30.8 -12.8 -33.0 -10.8 -33.3 L-7.9 -33.5" fill="#6d6863" fill-rule="evenodd" stroke="none"/>
    <path d="M-7.9 -33.5 L-10.8 -33.3 Q-12.8 -33.0 -13.0 -30.8 -13.85 -28.5 -14.05 -24.5 -11.3 -20.45 -9.1 -19.3 L-8.1 -22.1 -8.0 -23.95 -7.85 -26.65 -7.05 -29.05 -6.45 -30.55 -6.0 -32.3 -5.65 -33.25 -7.9 -33.5 Z" fill="none" stroke="#3c3737" stroke-linecap="round" stroke-linejoin="round" stroke-width="1.0"/>
    <path d="M-9.65 -24.9 L-11.3 -26.25 -13.85 -27.0 -13.3 -30.25 -9.8 -29.05 -6.55 -31.2 -6.85 -28.85 -8.2 -26.6 -7.9 -24.55 -9.65 -24.9" fill="#6d6863" fill-rule="evenodd" stroke="none"/>
    <path d="M-9.65 -24.9 L-11.3 -26.25 -13.85 -27.0 -13.3 -30.25 -9.8 -29.05 -6.55 -31.2 -6.85 -28.85 -8.2 -26.6 -7.9 -24.55 -9.65 -24.9 Z" fill="none" stroke="#3c3737" stroke-linecap="butt" stroke-linejoin="round" stroke-width="1.0"/>
    <path d="M-11.3 -29.9 L-11.2 -30.8" fill="none" stroke="#e80000" stroke-linecap="round" stroke-linejoin="round" stroke-width="1.0"/>
    <path d="M-12.2 -21.6 L-9.55 -20.45 -6.2 -14.65 -6.5 -12.3 Q-6.55 -11.65 -7.0 -11.6 L-9.5 -11.8 -10.9 -12.6 Q-12.15 -13.35 -12.75 -16.7 -13.3 -19.8 -12.85 -21.25 L-12.2 -21.6" fill="#6d6863" fill-rule="evenodd" stroke="none"/>
    <path d="M-12.2 -21.6 L-9.55 -20.45 -6.2 -14.65 -6.5 -12.3 Q-6.55 -11.65 -7.0 -11.6 L-9.5 -11.8 -10.9 -12.6 Q-12.15 -13.35 -12.75 -16.7 -13.3 -19.8 -12.85 -21.25 L-12.2 -21.6 Z" fill="none" stroke="#3c3737" stroke-linecap="round" stroke-linejoin="round" stroke-width="1.0"/>
    <path d="M-14.0 -20.6 L-12.05 -20.0 -11.55 -17.7 -13.8 -15.55 Q-14.8 -17.95 -14.6 -18.8 L-14.6 -19.85 -14.7 -20.35 -14.0 -20.6" fill="#494541" fill-rule="evenodd" stroke="none"/>
    <path d="M-14.0 -20.6 L-14.55 -19.6 -14.5 -16.7 -13.8 -15.55" fill="none" stroke="#181811" stroke-linecap="round" stroke-linejoin="round" stroke-width="1.0"/>
    <path d="M-14.0 -20.6 L-12.05 -20.0 -12.35 -18.1 -12.1 -16.45 -13.8 -15.55" fill="none" stroke="#2e2d2a" stroke-linecap="round" stroke-linejoin="round" stroke-width="1.0"/>
    <path d="M-6.75 -14.5 L-7.2 -11.85 -9.65 -12.55 -9.6 -14.5 -7.4 -15.8 -6.75 -14.5" fill="#494541" fill-opacity="0.6627451" fill-rule="evenodd" stroke="none"/>
    <path d="M-7.55 -15.55 L-9.6 -14.5 -9.65 -12.05" fill="none" stroke="#2e2d2a" stroke-linecap="round" stroke-linejoin="round" stroke-width="1.0"/>
    <path d="M8.7 -25.55 L12.05 -21.15 11.95 -17.95 11.3 -17.35 10.75 -17.0 9.85 -11.55 9.3 -11.2 8.25 -11.2 7.2 -8.7 8.25 -8.05 8.55 -6.15 7.4 -2.25 5.05 -1.65 M-5.35 -3.35 L-6.95 -5.05 -7.3 -8.3 -6.4 -9.8 -5.75 -10.05 -6.05 -12.65 Q-7.15 -11.55 -7.7 -11.55 L-8.75 -11.55 Q-9.55 -11.7 -10.15 -12.2 -12.2 -13.65 -12.4 -14.05 L-12.65 -15.15 -12.75 -15.95 -14.3 -16.55 -13.85 -15.55 -14.55 -16.65 -14.3 -16.55 -14.5 -16.95 -14.35 -19.8 -13.95 -20.85 -12.9 -20.7 -12.65 -21.35 -12.2 -21.8 -14.2 -24.6 -13.55 -28.2 -12.7 -32.2 -11.65 -33.0 -10.85 -33.45 -6.95 -33.65 -5.95 -33.15" fill="none" stroke="#000000" stroke-linecap="round" stroke-linejoin="round" stroke-opacity="0.2" stroke-width="1.0"/>
  </g>
</svg>
