<?xml version="1.0" encoding="UTF-8" standalone="no"?>
<svg xmlns:ffdec="https://www.free-decompiler.com/flash" xmlns:xlink="http://www.w3.org/1999/xlink" ffdec:objectType="shape" height="29.15px" width="23.8px" xmlns="http://www.w3.org/2000/svg">
  <g transform="matrix(1.0, 0.0, 0.0, 1.0, 14.85, 31.6)">
    <path d="M4.2 -27.3 L5.45 -26.1 4.8 -24.2 6.5 -21.85 7.9 -22.05 8.45 -18.65 6.7 -18.1 6.0 -16.0 6.95 -13.7 5.6 -9.85 3.85 -10.25 0.45 -11.0 -1.0 -13.45 -4.75 -14.6 -5.5 -16.75 -7.2 -16.6 -8.7 -14.55 Q-10.0 -17.7 -9.75 -22.5 -9.55 -26.15 -8.9 -28.75 -7.25 -31.4 -5.1 -31.05 -4.5 -24.65 4.2 -27.3 M3.85 -7.4 L5.2 -7.4 6.35 -6.3 Q6.2 -4.55 5.3 -3.95 L4.15 -3.45 0.7 -3.0 Q-4.9 -2.6 -6.0 -6.3 -1.15 -6.2 3.85 -7.4 M1.3 -13.9 L1.5 -15.15 1.3 -13.9 M4.0 -17.1 L0.5 -17.95 4.0 -17.1 M3.0 -12.65 L3.5 -14.75 3.0 -12.65 M4.95 -18.6 L1.45 -19.4 4.95 -18.6 M-7.65 -19.05 L-7.1 -23.0 -7.65 -19.05 M-5.4 -19.75 L-5.3 -22.9 -5.4 -19.75" fill="#d3b367" fill-rule="evenodd" stroke="none"/>
    <path d="M5.45 -26.1 L6.0 -25.55 Q7.0 -24.45 7.9 -22.05 L6.5 -21.85 4.8 -24.2 5.45 -26.1 M8.45 -18.65 L8.25 -17.6 6.95 -13.7 6.0 -16.0 6.7 -18.1 8.45 -18.65" fill="#8a774a" fill-rule="evenodd" stroke="none"/>
    <path d="M3.85 -10.25 L3.85 -7.4 Q-1.15 -6.2 -6.0 -6.3 -5.7 -8.2 -6.05 -10.25 -6.3 -11.5 -6.85 -12.2 L-7.95 -13.05 -8.7 -14.55 -7.2 -16.6 -5.5 -16.75 -4.75 -14.6 -1.0 -13.45 0.45 -11.0 3.85 -10.25 M-1.6 -9.15 L-1.75 -10.15 -1.6 -9.15 M-0.8 -7.75 L-3.4 -7.75 -0.8 -7.75" fill="#7e6a3d" fill-rule="evenodd" stroke="none"/>
    <path d="M-5.1 -31.05 Q-4.2 -28.5 -0.35 -28.6 2.95 -28.35 4.2 -27.3 -4.5 -24.65 -5.1 -31.05" fill="#2c2c2c" fill-rule="evenodd" stroke="none"/>
    <path d="M-6.85 -12.2 L-6.85 -8.6 -9.0 -8.7 -9.35 -12.65 -11.4 -13.65 -11.4 -14.65 -12.95 -16.1 -13.05 -20.55 -14.35 -22.1 Q-14.25 -25.55 -13.45 -27.35 -10.2 -28.85 -8.9 -28.75 -9.55 -26.15 -9.75 -22.5 -10.0 -17.7 -8.7 -14.55 L-7.95 -13.05 -6.85 -12.2 M-11.4 -22.65 L-11.4 -24.25 -11.4 -22.65" fill="#aa844d" fill-rule="evenodd" stroke="none"/>
    <path d="M4.2 -27.3 L5.45 -26.1 6.0 -25.55 Q7.0 -24.45 7.9 -22.05 L8.45 -18.65 8.25 -17.6 6.95 -13.7 5.6 -9.85 3.85 -10.25 3.85 -7.4 5.2 -7.4 6.35 -6.3 Q6.2 -4.55 5.3 -3.95 L4.15 -3.45 0.7 -3.0 Q-4.9 -2.6 -6.0 -6.3 -5.7 -8.2 -6.05 -10.25 -6.3 -11.5 -6.85 -12.2 L-6.85 -8.6 -9.0 -8.7 -9.35 -12.65 -11.4 -13.65 -11.4 -14.65 -12.95 -16.1 -13.05 -20.55 -14.35 -22.1 Q-14.25 -25.55 -13.45 -27.35 -10.2 -28.85 -8.9 -28.75 -7.25 -31.4 -5.1 -31.05 M7.9 -22.05 L6.5 -21.85 4.8 -24.2 5.45 -26.1 M6.95 -13.7 L6.0 -16.0 6.7 -18.1 8.45 -18.65 M-8.7 -14.55 L-7.2 -16.6 -5.5 -16.75 -4.75 -14.6 -1.0 -13.45 0.45 -11.0 3.85 -10.25 M-8.7 -14.55 Q-10.0 -17.7 -9.75 -22.5 -9.55 -26.15 -8.9 -28.75 M-6.85 -12.2 L-7.95 -13.05 -8.7 -14.55 M-11.4 -24.25 L-11.4 -22.65 M-3.4 -7.75 L-0.8 -7.75 M-1.75 -10.15 L-1.6 -9.15 M3.85 -7.4 Q-1.15 -6.2 -6.0 -6.3" fill="none" stroke="#504630" stroke-linecap="round" stroke-linejoin="round" stroke-width="1.0"/>
    <path d="M1.45 -19.4 L4.95 -18.6 M3.5 -14.75 L3.0 -12.65 M0.5 -17.95 L4.0 -17.1 M1.5 -15.15 L1.3 -13.9 M-5.3 -22.9 L-5.4 -19.75 M-7.1 -23.0 L-7.65 -19.05" fill="none" stroke="#80704d" stroke-linecap="round" stroke-linejoin="round" stroke-width="1.0"/>
    <path d="M-5.1 -31.05 Q-4.2 -28.5 -0.35 -28.6 2.95 -28.35 4.2 -27.3" fill="none" stroke="#000000" stroke-linecap="round" stroke-linejoin="round" stroke-width="1.0"/>
    <path d="M4.2 -27.3 Q-4.5 -24.65 -5.1 -31.05" fill="none" stroke="#605439" stroke-linecap="round" stroke-linejoin="round" stroke-width="1.0"/>
  </g>
</svg>
