<?xml version="1.0" encoding="UTF-8" standalone="no"?>
<svg xmlns:xlink="http://www.w3.org/1999/xlink" height="25.55px" width="62.9px" xmlns="http://www.w3.org/2000/svg">
  <g transform="matrix(1.0, 0.0, 0.0, 1.0, 26.85, 10.85)">
    <path d="M24.25 7.25 L12.0 7.2 11.65 3.7 28.35 3.3 28.35 6.9 25.9 8.3 Q25.25 7.45 24.25 7.25" fill="#b6a9a2" fill-rule="evenodd" stroke="none"/>
    <path d="M24.25 7.25 Q25.25 7.45 25.9 8.3 L28.35 6.9 28.35 3.3 11.65 3.7 12.0 7.2 24.25 7.25 Z" fill="none" stroke="#4f4c4a" stroke-linecap="round" stroke-linejoin="round" stroke-width="1.0"/>
    <path d="M10.1 5.25 L10.1 -3.8 32.35 -3.8 35.5 -3.25 35.55 2.0 32.4 5.25 10.1 5.25" fill="#cfdadd" fill-rule="evenodd" stroke="none"/>
    <path d="M10.1 5.25 L32.4 5.25 35.55 2.0 35.5 -3.25 32.35 -3.8 10.1 -3.8 10.1 5.25 Z" fill="none" stroke="#65687a" stroke-linecap="round" stroke-linejoin="round" stroke-width="1.0"/>
    <path d="M20.4 -6.3 L28.65 -6.3 30.6 -3.8 20.4 -3.8 20.4 -6.3" fill="#cfdadd" fill-rule="evenodd" stroke="none"/>
    <path d="M20.4 -6.3 L28.65 -6.3 30.6 -3.8 20.4 -3.8 20.4 -6.3 Z" fill="none" stroke="#65687a" stroke-linecap="round" stroke-linejoin="round" stroke-width="1.0"/>
    <path d="M15.3 3.15 L17.3 3.15" fill="none" stroke="#65687a" stroke-linecap="round" stroke-linejoin="round" stroke-width="1.0"/>
    <path d="M20.0 3.15 L22.0 3.15" fill="none" stroke="#65687a" stroke-linecap="round" stroke-linejoin="round" stroke-width="1.0"/>
    <path d="M24.9 3.15 L26.9 3.15" fill="none" stroke="#65687a" stroke-linecap="round" stroke-linejoin="round" stroke-width="1.0"/>
    <path d="M29.9 5.25 L29.9 -3.8 32.35 -3.8 32.35 5.25 29.9 5.25" fill="#a7b0b9" fill-rule="evenodd" stroke="none"/>
    <path d="M29.9 5.25 L32.35 5.25 32.35 -3.8 29.9 -3.8 29.9 5.25 Z" fill="none" stroke="#505362" stroke-linecap="round" stroke-linejoin="round" stroke-width="1.0"/>
    <path d="M-12.65 -4.35 L-12.65 2.9 -19.6 7.85 -25.0 7.85 -26.35 6.8 -25.5 -3.25 -23.9 -4.4 -12.65 -4.35" fill="#4b5975" fill-rule="evenodd" stroke="none"/>
    <path d="M-12.65 -4.35 L-23.9 -4.4 -25.5 -3.25 -26.35 6.8 -25.0 7.85 -19.6 7.85 -12.65 2.9 -12.65 -4.35 Z" fill="none" stroke="#2e2d3f" stroke-linecap="round" stroke-linejoin="round" stroke-width="1.0"/>
    <path d="M-23.7 2.5 L-15.2 2.55 -19.85 3.6 -24.25 4.7 -23.7 2.5" fill="#738aa1" fill-rule="evenodd" stroke="none"/>
    <path d="M-19.05 -0.75 L-18.65 1.05" fill="none" stroke="#2e2d3f" stroke-linecap="round" stroke-linejoin="round" stroke-width="1.0"/>
    <path d="M-16.25 -0.75 L-15.85 1.05" fill="none" stroke="#2e2d3f" stroke-linecap="round" stroke-linejoin="round" stroke-width="1.0"/>
    <path d="M-0.3 -10.35 L5.9 -10.35 8.3 -8.75 16.45 -8.75 19.2 -5.6 -3.8 -5.4 -0.3 -10.35" fill="#4b5975" fill-rule="evenodd" stroke="none"/>
    <path d="M-3.8 -5.4 L-0.3 -10.35 5.9 -10.35 8.3 -8.75 16.45 -8.75 19.2 -5.6" fill="none" stroke="#2e2d3f" stroke-linecap="round" stroke-linejoin="round" stroke-width="1.0"/>
    <path d="M-7.75 -5.45 L-5.4 -7.7 5.2 -7.7 7.35 -6.05 13.9 -6.05 14.9 -7.7 22.45 -7.7 26.65 0.7 14.35 0.85 12.0 3.15 11.9 8.35 8.7 9.65 5.15 9.65 5.05 6.05 0.45 6.15 -3.0 14.0 -4.95 14.2 Q-6.95 14.2 -7.35 13.4 -8.1 11.85 -6.35 9.1 -4.4 6.0 -4.45 4.7 L-5.9 3.9 -12.95 3.9 -14.95 -5.45 -7.75 -5.45" fill="#738aa1" fill-rule="evenodd" stroke="none"/>
    <path d="M-7.75 -5.45 L-5.4 -7.7 5.2 -7.7 7.35 -6.05 13.9 -6.05 14.9 -7.7 22.45 -7.7 26.65 0.7 14.35 0.85 12.0 3.15 11.9 8.35 8.7 9.65 5.15 9.65 5.05 6.05 0.45 6.15 -3.0 14.0 -4.95 14.2 Q-6.95 14.2 -7.35 13.4 -8.1 11.85 -6.35 9.1 -4.4 6.0 -4.45 4.7 L-5.9 3.9 -12.95 3.9 -14.95 -5.45 -7.75 -5.45 Z" fill="none" stroke="#424651" stroke-linecap="round" stroke-linejoin="round" stroke-width="1.0"/>
    <path d="M-1.1 9.65 L5.15 9.65 1.25 10.0 -1.1 9.65" fill="#2d3240" fill-rule="evenodd" stroke="none"/>
    <path d="M5.15 9.65 L1.25 10.0 -1.1 9.65" fill="none" stroke="#222226" stroke-linecap="round" stroke-linejoin="round" stroke-width="1.0"/>
    <path d="M2.05 6.1 L1.7 8.3" fill="none" stroke="#222226" stroke-linecap="round" stroke-linejoin="round" stroke-width="1.0"/>
    <path d="M0.45 -1.95 L1.9 -0.95 1.9 1.65 0.45 2.5 0.45 -1.95" fill="#4b5975" fill-rule="evenodd" stroke="none"/>
    <path d="M0.45 -1.95 L1.9 -0.95 1.9 1.65 0.45 2.5" fill="none" stroke="#2e2d3f" stroke-linecap="round" stroke-linejoin="round" stroke-width="1.0"/>
    <path d="M5.25 -1.95 L6.7 -0.95 6.7 1.65 Q6.0 2.1 5.25 2.5 L5.25 -1.95" fill="#4b5975" fill-rule="evenodd" stroke="none"/>
    <path d="M5.25 -1.95 L6.7 -0.95 6.7 1.65 Q6.0 2.1 5.25 2.5" fill="none" stroke="#2e2d3f" stroke-linecap="round" stroke-linejoin="round" stroke-width="1.0"/>
    <path d="M5.05 6.05 L7.7 4.95 8.55 3.15 12.0 3.15 11.9 8.35 8.7 9.65 5.15 9.65 5.05 6.05" fill="#4b5975" fill-rule="evenodd" stroke="none"/>
    <path d="M5.05 6.05 L5.15 9.65 8.7 9.65 11.9 8.35 12.0 3.15 8.55 3.15 7.7 4.95 5.05 6.05 Z" fill="none" stroke="#2e2d3f" stroke-linecap="round" stroke-linejoin="round" stroke-width="1.0"/>
    <path d="M-3.8 -1.95 Q-3.8 -0.95 -4.5 -0.25 -5.2 0.45 -6.2 0.45 -7.2 0.45 -7.9 -0.25 -8.6 -0.95 -8.6 -1.95 -8.6 -2.9 -7.9 -3.65 -7.15 -4.35 -6.2 -4.35 -5.2 -4.35 -4.5 -3.65 -3.8 -2.95 -3.8 -1.95" fill="#938982" fill-rule="evenodd" stroke="none"/>
    <path d="M-3.8 -1.95 Q-3.8 -0.95 -4.5 -0.25 -5.2 0.45 -6.2 0.45 -7.2 0.45 -7.9 -0.25 -8.6 -0.95 -8.6 -1.95 -8.6 -2.9 -7.9 -3.65 -7.15 -4.35 -6.2 -4.35 -5.2 -4.35 -4.5 -3.65 -3.8 -2.95 -3.8 -1.95 Z" fill="none" stroke="#52504e" stroke-linecap="round" stroke-linejoin="round" stroke-width="1.0"/>
    <path d="M23.35 -1.1 L10.1 -1.1 9.0 -2.6 15.35 -2.6 16.2 -3.8 22.0 -3.8 23.35 -1.1" fill="#95b4bd" fill-rule="evenodd" stroke="none"/>
    <path d="M-13.15 -3.8 L-11.85 2.15" fill="none" stroke="#4b5975" stroke-linecap="round" stroke-linejoin="round" stroke-width="1.0"/>
    <path d="M-9.15 -6.9 L-11.45 -2.45 -23.45 -2.45 -22.85 -4.35 -21.15 -5.9 -9.15 -6.9" fill="#cfdadd" fill-rule="evenodd" stroke="none"/>
    <path d="M-9.15 -6.9 L-11.45 -2.45 -23.45 -2.45 -22.85 -4.35 -21.15 -5.9 -9.15 -6.9 Z" fill="none" stroke="#65687a" stroke-linecap="round" stroke-linejoin="round" stroke-width="1.0"/>
  </g>
</svg>
