<?xml version="1.0" encoding="UTF-8" standalone="no"?>
<svg xmlns:xlink="http://www.w3.org/1999/xlink" height="12.0px" width="49.9px" xmlns="http://www.w3.org/2000/svg">
  <g transform="matrix(1.0, 0.0, 0.0, 1.0, 10.45, 4.7)">
    <path d="M9.25 -3.9 L11.4 -1.85 15.7 -1.85 17.85 -3.9 32.65 -4.2 34.85 -2.6 32.35 0.05 32.35 2.3 31.65 3.05 15.75 3.05 3.35 3.75 3.05 3.6 0.9 2.35 -0.2 1.75 Q-2.2 2.15 -4.05 3.0 L-6.9 -1.45 2.05 -1.85 5.95 -3.95 9.25 -3.9 M30.4 0.85 L28.9 -2.25 30.4 0.85 M27.15 0.85 L25.65 -2.25 27.15 0.85 M23.7 0.85 L22.2 -2.25 23.7 0.85 M6.3 2.15 L3.4 2.15 1.2 0.85 3.4 2.15 6.3 2.15" fill="#cccccc" fill-rule="evenodd" stroke="none"/>
    <path d="M5.95 -3.95 L2.05 -1.85 -6.9 -1.45 -4.05 3.0 -9.95 2.45 -4.05 3.0 Q-4.8 5.35 -1.7 5.8 -7.35 8.85 -9.95 2.45 -9.0 0.5 -6.9 -1.45 L-2.8 -3.85 Q-2.0 -3.7 5.95 -3.95 M3.35 3.75 L15.75 3.05 14.15 3.75 12.95 4.65 13.0 4.65 11.4 5.9 3.35 5.9 3.35 3.75" fill="#999999" fill-rule="evenodd" stroke="none"/>
    <path d="M32.35 2.3 L32.35 0.05 34.85 -2.6 38.95 -2.6 38.95 0.05 37.25 0.05 37.25 2.3 34.7 2.3 32.35 2.3 M37.25 0.05 L32.35 0.05 37.25 0.05 M14.15 3.75 L13.0 4.65 12.95 4.65 14.15 3.75" fill="#666666" fill-rule="evenodd" stroke="none"/>
    <path d="M15.75 3.05 L31.65 3.05 32.35 2.3 34.7 2.3 32.95 4.65 13.0 4.65 14.15 3.75 15.75 3.05" fill="#484848" fill-rule="evenodd" stroke="none"/>
    <path d="M17.85 -3.9 L15.7 -1.85 11.4 -1.85 9.25 -3.9 17.85 -3.9" fill="#990000" fill-rule="evenodd" stroke="none"/>
    <path d="M9.25 -3.9 L5.95 -3.95 Q-2.0 -3.7 -2.8 -3.85 L-6.9 -1.45 Q-9.0 0.5 -9.95 2.45 L-4.05 3.0 Q-4.8 5.35 -1.7 5.8 -7.35 8.85 -9.95 2.45 M-6.9 -1.45 L-4.05 3.0 Q-2.2 2.15 -0.2 1.75 L0.9 2.35 3.05 3.6 3.35 3.75 15.75 3.05 31.65 3.05 32.35 2.3 32.35 0.05 34.85 -2.6 32.65 -4.2 17.85 -3.9 M34.85 -2.6 L38.95 -2.6 38.95 0.05 37.25 0.05 37.25 2.3 34.7 2.3 32.95 4.65 13.0 4.65 11.4 5.9 3.35 5.9 3.35 3.75 M34.7 2.3 L32.35 2.3 M32.35 0.05 L37.25 0.05 M15.75 3.05 L14.15 3.75 13.0 4.65 12.95 4.65 14.15 3.75" fill="none" stroke="#333333" stroke-linecap="round" stroke-linejoin="round" stroke-width="1.0"/>
    <path d="M1.2 0.85 L3.4 2.15 6.3 2.15 M22.2 -2.25 L23.7 0.85 M25.65 -2.25 L27.15 0.85 M28.9 -2.25 L30.4 0.85" fill="none" stroke="#666666" stroke-linecap="round" stroke-linejoin="round" stroke-width="1.0"/>
    <path d="M9.25 -3.9 L11.4 -1.85 15.7 -1.85 17.85 -3.9" fill="none" stroke="#660000" stroke-linecap="round" stroke-linejoin="round" stroke-width="1.0"/>
    <path d="M17.85 -3.9 L9.25 -3.9" fill="none" stroke="#330000" stroke-linecap="round" stroke-linejoin="round" stroke-width="1.0"/>
  </g>
</svg>
