<?xml version="1.0" encoding="UTF-8" standalone="no"?>
<svg xmlns:ffdec="https://www.free-decompiler.com/flash" xmlns:xlink="http://www.w3.org/1999/xlink" ffdec:objectType="shape" height="27.95px" width="30.35px" xmlns="http://www.w3.org/2000/svg">
  <g transform="matrix(1.0, 0.0, 0.0, 1.0, 17.0, 30.9)">
    <path d="M-15.85 -18.85 L-15.45 -18.95 -14.9 -18.2 Q-14.25 -17.45 -13.6 -17.4 -12.6 -17.3 -12.05 -17.65 L-10.1 -16.55 -10.1 -15.85 -9.85 -14.75 -9.15 -13.55 -9.9 -10.25" fill="none" stroke="#1e1616" stroke-linecap="round" stroke-linejoin="round" stroke-width="1.0"/>
    <path d="M-15.6 -19.75 Q-14.8 -18.4 -14.25 -18.1 L-12.1 -18.05 -9.8 -16.9 -9.65 -16.05 -9.3 -14.8 -8.6 -13.6 -9.25 -10.25" fill="none" stroke="#1c1515" stroke-linecap="round" stroke-linejoin="round" stroke-opacity="0.45490196" stroke-width="1.0"/>
    <path d="M1.9 -25.55 L3.95 -23.3 4.3 -22.8 4.9 -22.0 Q5.45 -21.05 5.95 -20.85 L7.65 -20.6 7.9 -17.8 8.4 -17.85 9.0 -18.05 9.4 -17.9 9.65 -17.8 10.45 -17.3 11.85 -16.5 M10.45 -17.3 L9.4 -17.9 8.5 -17.9 8.4 -17.85 7.9 -17.75 7.9 -17.8 7.6 -20.5 6.05 -20.8 5.95 -20.85 5.85 -20.85 5.2 -21.4 4.3 -22.8 4.2 -22.9 2.65 -19.95 Q2.3 -19.05 2.5 -17.6 2.5 -16.85 2.85 -16.4 L4.35 -15.4 5.5 -14.25 5.95 -12.9 6.15 -11.5 7.05 -10.75" fill="none" stroke="#191313" stroke-linecap="round" stroke-linejoin="round" stroke-opacity="0.5137255" stroke-width="1.0"/>
    <path d="M-0.05 -8.75 Q0.95 -6.4 -1.3 -5.9 -3.55 -5.35 -3.95 -7.45 -1.7 -9.25 -0.05 -8.75" fill="url(#gradient0)" fill-rule="evenodd" stroke="none"/>
    <path d="M-0.05 -8.75 Q-1.7 -9.25 -3.95 -7.45 -3.55 -5.35 -1.3 -5.9 0.95 -6.4 -0.05 -8.75 Z" fill="none" stroke="#1b1816" stroke-linecap="round" stroke-linejoin="round" stroke-width="1.0"/>
    <path d="M-1.6 -12.15 L-0.5 -8.4 Q-2.0 -6.8 -3.35 -7.7 L-4.4 -11.7 -1.6 -12.15" fill="#383535" fill-rule="evenodd" stroke="none"/>
    <path d="M-1.6 -12.15 L-0.5 -8.4 Q-2.0 -6.8 -3.35 -7.7 L-4.4 -11.7 -1.6 -12.15 Z" fill="none" stroke="#1b1816" stroke-linecap="round" stroke-linejoin="round" stroke-width="1.0"/>
    <path d="M-0.8 -11.5 Q-1.5 -10.7 -2.65 -10.55 L-4.8 -10.6 Q-5.55 -12.55 -3.35 -13.3 -1.15 -14.05 -0.8 -11.5" fill="url(#gradient1)" fill-rule="evenodd" stroke="none"/>
    <path d="M-0.8 -11.5 Q-1.5 -10.7 -2.65 -10.55 L-4.8 -10.6 Q-5.55 -12.55 -3.35 -13.3 -1.15 -14.05 -0.8 -11.5 Z" fill="none" stroke="#1b1816" stroke-linecap="round" stroke-linejoin="round" stroke-width="1.0"/>
    <path d="M-2.1 -9.25 L-2.5 -9.1" fill="none" stroke="#dcc64f" stroke-linecap="round" stroke-linejoin="round" stroke-width="1.0"/>
    <path d="M-3.6 -7.85 Q-2.6 -5.5 -4.85 -4.95 -7.1 -4.45 -7.5 -6.5 -5.35 -8.3 -3.6 -7.85" fill="url(#gradient2)" fill-rule="evenodd" stroke="none"/>
    <path d="M-3.6 -7.85 Q-5.35 -8.3 -7.5 -6.5 -7.1 -4.45 -4.85 -4.95 -2.6 -5.5 -3.6 -7.85 Z" fill="none" stroke="#1b1816" stroke-linecap="round" stroke-linejoin="round" stroke-width="1.0"/>
    <path d="M-5.15 -11.25 L-4.0 -7.5 Q-5.6 -5.9 -6.9 -6.8 L-7.95 -10.8 -5.15 -11.25" fill="#383535" fill-rule="evenodd" stroke="none"/>
    <path d="M-5.15 -11.25 L-4.0 -7.5 Q-5.6 -5.9 -6.9 -6.8 L-7.95 -10.8 -5.15 -11.25 Z" fill="none" stroke="#1b1816" stroke-linecap="round" stroke-linejoin="round" stroke-width="1.0"/>
    <path d="M-4.35 -10.55 Q-5.6 -9.25 -8.35 -9.7 -9.05 -11.65 -6.85 -12.35 -4.7 -13.1 -4.35 -10.55" fill="url(#gradient3)" fill-rule="evenodd" stroke="none"/>
    <path d="M-4.35 -10.55 Q-5.6 -9.25 -8.35 -9.7 -9.05 -11.65 -6.85 -12.35 -4.7 -13.1 -4.35 -10.55 Z" fill="none" stroke="#1b1816" stroke-linecap="round" stroke-linejoin="round" stroke-width="1.0"/>
    <path d="M-5.65 -8.35 L-6.05 -8.2" fill="none" stroke="#dcc64f" stroke-linecap="round" stroke-linejoin="round" stroke-width="1.0"/>
    <path d="M12.1 -17.0 Q12.75 -16.55 12.85 -17.4 L12.4 -19.9 11.5 -22.6 10.3 -24.35 6.9 -25.7 3.65 -28.6 Q0.65 -30.25 -0.4 -30.3 -4.2 -30.45 -4.55 -30.25 L-5.3 -29.8 -8.0 -29.85 -9.25 -29.45 -10.35 -30.4 Q-11.65 -29.25 -12.55 -27.7 -13.85 -25.6 -13.85 -24.85 -13.8 -24.4 -14.2 -23.2 L-14.85 -23.15 -15.15 -22.65 -15.55 -21.75 -15.75 -19.1 -16.1 -18.95 -16.5 -18.5 Q-16.5 -14.8 -14.2 -12.8 L-10.45 -9.95 -10.2 -10.45 -8.55 -9.75 -8.45 -9.2 -7.5 -9.45 -6.95 -6.7 -7.3 -6.55 -7.55 -6.25 -7.1 -5.6 -6.55 -5.0 -4.45 -5.2 -3.5 -4.4 Q-2.3 -3.6 -0.95 -3.55 L1.2 -3.45 Q1.85 -3.45 2.75 -3.8 L4.5 -4.4 5.6 -5.25 5.95 -5.85 7.35 -5.25 Q8.9 -7.6 8.9 -8.65 L8.75 -9.55 8.6 -9.7 7.15 -10.4 Q6.95 -10.4 7.05 -10.75 L7.2 -11.1 10.2 -10.15 Q10.9 -9.9 11.25 -10.15 L11.85 -11.0 Q12.25 -11.6 12.5 -12.95 L12.5 -14.05 12.3 -14.55" fill="none" stroke="#000000" stroke-linecap="round" stroke-linejoin="round" stroke-opacity="0.25490198" stroke-width="1.0"/>
  </g>
  <defs>
    <radialGradient cx="0" cy="0" gradientTransform="matrix(0.0019, -9.0E-4, -0.0076, -0.0153, -1.55, -7.3)" gradientUnits="userSpaceOnUse" id="gradient0" r="819.2" spreadMethod="pad">
      <stop offset="0.0" stop-color="#241818"/>
      <stop offset="1.0" stop-color="#4d3434"/>
    </radialGradient>
    <radialGradient cx="0" cy="0" gradientTransform="matrix(0.0021, -2.0E-4, 0.0013, 0.0171, -2.85, -11.95)" gradientUnits="userSpaceOnUse" id="gradient1" r="819.2" spreadMethod="pad">
      <stop offset="0.0" stop-color="#241818"/>
      <stop offset="1.0" stop-color="#4d3434"/>
    </radialGradient>
    <radialGradient cx="0" cy="0" gradientTransform="matrix(0.0019, -9.0E-4, -0.0076, -0.0153, -5.1, -6.4)" gradientUnits="userSpaceOnUse" id="gradient2" r="819.2" spreadMethod="pad">
      <stop offset="0.0" stop-color="#241818"/>
      <stop offset="1.0" stop-color="#4d3434"/>
    </radialGradient>
    <radialGradient cx="0" cy="0" gradientTransform="matrix(0.0021, -2.0E-4, 0.0013, 0.0171, -6.4, -11.0)" gradientUnits="userSpaceOnUse" id="gradient3" r="819.2" spreadMethod="pad">
      <stop offset="0.0" stop-color="#241818"/>
      <stop offset="1.0" stop-color="#4d3434"/>
    </radialGradient>
  </defs>
</svg>
