<?xml version="1.0" encoding="UTF-8" standalone="no"?>
<svg xmlns:ffdec="https://www.free-decompiler.com/flash" xmlns:xlink="http://www.w3.org/1999/xlink" ffdec:objectType="shape" height="29.4px" width="27.9px" xmlns="http://www.w3.org/2000/svg">
  <g transform="matrix(1.0, 0.0, 0.0, 1.0, 15.3, 32.75)">
    <path d="M4.6 -27.3 Q-0.4 -29.1 -3.95 -28.75 -1.65 -30.45 0.85 -30.45 3.4 -30.45 4.6 -27.3" fill="#2c2c2c" fill-rule="evenodd" stroke="none"/>
    <path d="M4.75 -27.8 Q5.15 -26.7 5.05 -18.55 L4.7 -9.0 Q4.55 -6.7 3.9 -5.35 2.35 -3.55 -2.55 -3.85 -4.45 -4.7 -4.05 -6.65 -5.9 -8.5 -6.1 -17.45 -6.3 -26.05 -5.1 -27.95 -3.55 -28.95 -1.65 -29.2 1.5 -29.65 4.75 -27.8" fill="#2f313a" fill-rule="evenodd" stroke="none"/>
    <path d="M-3.95 -28.75 Q-1.65 -30.45 0.85 -30.45 3.4 -30.45 4.6 -27.3 M4.8 -19.5 Q5.35 -18.05 4.7 -9.0 4.55 -6.7 3.9 -5.35 2.35 -3.55 -2.55 -3.85 -4.15 -3.5 -5.65 -12.8 -7.2 -22.1 -5.75 -23.9" fill="none" stroke="#111216" stroke-linecap="round" stroke-linejoin="round" stroke-width="0.9"/>
    <path d="M4.6 -26.45 L6.1 -24.65 7.75 -22.3 Q8.05 -21.5 7.95 -20.5 L6.9 -13.9 6.6 -12.8 Q7.2 -11.9 7.15 -11.1 7.1 -10.15 7.35 -9.6 L6.7 -9.1 6.1 -8.6 Q5.7 -8.75 5.25 -9.5 L4.35 -10.9 1.4 -14.5 Q0.7 -15.55 0.9 -17.1 L1.4 -21.6 Q1.45 -22.6 2.95 -24.25 3.7 -25.1 4.05 -26.35 L4.6 -26.45" fill="url(#gradient0)" fill-rule="evenodd" stroke="none"/>
    <path d="M4.6 -26.45 L6.1 -24.65 7.75 -22.3 Q8.05 -21.5 7.95 -20.5 L6.9 -13.9 6.6 -12.8 Q7.2 -11.9 7.15 -11.1 7.1 -10.15 7.35 -9.6 L6.7 -9.1 6.1 -8.6 Q5.7 -8.75 5.25 -9.5 L4.35 -10.9 1.4 -14.5 Q0.7 -15.55 0.9 -17.1 L1.4 -21.6 Q1.45 -22.6 2.95 -24.25 3.7 -25.1 4.05 -26.35 L4.6 -26.45 Z" fill="none" stroke="#25272a" stroke-linecap="round" stroke-linejoin="round" stroke-width="0.9"/>
    <path d="M11.35 -18.2 Q10.55 -16.15 9.2 -15.75 7.9 -15.4 5.9 -16.45 L5.1 -18.2 Q4.95 -19.25 5.75 -20.4 7.7 -21.25 6.85 -22.95 5.2 -25.2 4.6 -26.7 7.35 -26.1 9.5 -22.95 11.45 -20.2 11.35 -18.2" fill="url(#gradient1)" fill-rule="evenodd" stroke="none"/>
    <path d="M-5.0 -29.7 L-3.95 -25.3 -2.9 -21.75 Q-2.75 -21.1 -3.4 -18.8 -2.65 -15.7 -5.5 -15.4 -8.3 -15.1 -9.6 -17.0 L-8.5 -17.55 Q-7.7 -18.05 -7.7 -19.15 -7.75 -19.6 -8.15 -20.3 L-8.8 -21.65 Q-9.9 -26.0 -10.5 -27.4 L-8.6 -29.9 -8.35 -29.35 Q-7.9 -28.85 -7.05 -28.85 -5.7 -28.85 -5.0 -29.7" fill="#363636" fill-rule="evenodd" stroke="none"/>
    <path d="M-5.0 -29.7 L-3.95 -25.3 -2.9 -21.75 Q-2.75 -21.1 -3.4 -18.8 -2.65 -15.7 -5.5 -15.4 -8.3 -15.1 -9.6 -17.0 L-8.5 -17.55 Q-7.7 -18.05 -7.7 -19.15 -7.75 -19.6 -8.15 -20.3 L-8.8 -21.65 Q-9.9 -26.0 -10.5 -27.4 L-8.6 -29.9 -8.35 -29.35 Q-7.9 -28.85 -7.05 -28.85 -5.7 -28.85 -5.0 -29.7 Z" fill="none" stroke="#25272a" stroke-linecap="round" stroke-linejoin="round" stroke-width="0.9"/>
    <path d="M-2.15 -13.05 Q-3.9 -12.85 -4.25 -12.45 -4.55 -12.15 -4.85 -10.3 L-6.3 -10.5 -9.35 -14.0 Q-9.7 -14.55 -9.65 -16.1 L-9.55 -17.55 -8.8 -18.05 -7.9 -18.0 Q-5.55 -16.2 -4.7 -16.3 -4.0 -16.35 -4.0 -17.7 -3.35 -19.3 -1.7 -19.6 L1.45 -20.05 1.2 -17.6 Q0.95 -15.95 1.15 -15.6 1.45 -15.05 -0.05 -14.1 -0.85 -13.65 -2.15 -13.05" fill="url(#gradient2)" fill-rule="evenodd" stroke="none"/>
    <path d="M-2.15 -13.05 Q-3.9 -12.85 -4.25 -12.45 -4.55 -12.15 -4.85 -10.3 L-6.3 -10.5 -9.35 -14.0 Q-9.7 -14.55 -9.65 -16.1 L-9.55 -17.55 -8.8 -18.05 -7.9 -18.0 Q-5.55 -16.2 -4.7 -16.3 -4.0 -16.35 -4.0 -17.7 -3.35 -19.3 -1.7 -19.6 L1.45 -20.05 1.2 -17.6 Q0.95 -15.95 1.15 -15.6 1.45 -15.05 -0.05 -14.1 -0.85 -13.65 -2.15 -13.05 Z" fill="none" stroke="#313337" stroke-linecap="butt" stroke-linejoin="miter-clip" stroke-miterlimit="11.33984375" stroke-width="0.9"/>
    <path d="M-10.35 -30.85 L-9.3 -30.4 -8.1 -29.7 -7.7 -27.7 Q-7.35 -25.7 -7.5 -25.0 -7.55 -24.65 -8.6 -24.1 L-9.7 -23.5 Q-9.9 -23.1 -11.1 -22.65 L-12.65 -22.25 Q-12.95 -22.25 -13.5 -23.0 L-14.05 -23.8 -14.4 -27.0 Q-14.75 -30.35 -14.5 -30.8 L-12.85 -30.7 -11.55 -30.0 -10.35 -30.85" fill="url(#gradient3)" fill-rule="evenodd" stroke="none"/>
    <path d="M-10.35 -30.85 L-9.3 -30.4 -8.1 -29.7 -7.7 -27.7 Q-7.35 -25.7 -7.5 -25.0 -7.55 -24.65 -8.6 -24.1 L-9.7 -23.5 Q-9.9 -23.1 -11.1 -22.65 L-12.65 -22.25 Q-12.95 -22.25 -13.5 -23.0 L-14.05 -23.8 -14.4 -27.0 Q-14.75 -30.35 -14.5 -30.8 L-12.85 -30.7 -11.55 -30.0 -10.35 -30.85 Z" fill="none" stroke="#513817" stroke-linecap="butt" stroke-linejoin="miter-clip" stroke-miterlimit="11.33984375" stroke-width="0.9"/>
    <path d="M-5.1 -31.55 L-4.0 -31.05 -2.7 -30.0 Q-4.2 -23.55 -5.25 -23.55 L-7.6 -23.75 Q-9.15 -23.95 -8.75 -24.25 -6.95 -25.65 -8.2 -28.5 -9.5 -31.35 -10.95 -30.7 L-8.65 -31.8 -6.45 -31.95 -5.1 -31.55" fill="url(#gradient4)" fill-rule="evenodd" stroke="none"/>
    <path d="M-5.1 -31.55 L-4.0 -31.05 -2.7 -30.0 Q-4.2 -23.55 -5.25 -23.55 L-7.6 -23.75 Q-9.15 -23.95 -8.75 -24.25 -6.95 -25.65 -8.2 -28.5 -9.5 -31.35 -10.95 -30.7 L-8.65 -31.8 -6.45 -31.95 -5.1 -31.55 Z" fill="none" stroke="#2f3134" stroke-linecap="round" stroke-linejoin="round" stroke-width="0.9"/>
    <path d="M11.25 -18.0 Q10.8 -16.6 10.05 -15.9 L8.3 -14.6 Q7.2 -12.3 6.85 -12.15 L5.85 -11.4 5.15 -11.45 4.55 -12.5 Q4.15 -13.3 4.25 -14.35 4.3 -15.15 4.75 -16.05 L5.4 -17.05 Q6.2 -16.25 7.65 -15.9 L9.9 -15.85 11.25 -18.0" fill="url(#gradient5)" fill-rule="evenodd" stroke="none"/>
    <path d="M11.25 -18.0 Q10.8 -16.6 10.05 -15.9 L8.3 -14.6 Q7.2 -12.3 6.85 -12.15 L5.85 -11.4 5.15 -11.45 4.55 -12.5 Q4.15 -13.3 4.25 -14.35 4.3 -15.15 4.75 -16.05 L5.4 -17.05 Q6.2 -16.25 7.65 -15.9 L9.9 -15.85" fill="none" stroke="#373a3e" stroke-linecap="butt" stroke-linejoin="miter-clip" stroke-miterlimit="11.33984375" stroke-width="0.9"/>
    <path d="M-11.8 -22.5 L-10.85 -22.8 Q-10.35 -22.8 -9.85 -23.45 -8.8 -22.8 -8.4 -21.75 L-7.75 -20.0 Q-7.5 -19.25 -7.85 -18.6 -8.2 -18.0 -8.55 -18.15 L-10.15 -16.95 Q-12.0 -19.2 -11.8 -22.5" fill="#00dab5" fill-opacity="0.6117647" fill-rule="evenodd" stroke="none"/>
    <path d="M-11.8 -22.5 Q-12.0 -19.2 -10.15 -16.95 L-8.55 -18.15 Q-8.2 -18.0 -7.85 -18.6 -7.5 -19.25 -7.75 -20.0 L-8.4 -21.75 Q-8.8 -22.8 -9.85 -23.45 -10.35 -22.8 -10.85 -22.8 L-11.8 -22.5 Z" fill="none" stroke="#000000" stroke-linecap="butt" stroke-linejoin="miter-clip" stroke-miterlimit="11.33984375" stroke-opacity="0.41960785" stroke-width="0.9"/>
    <path d="M4.55 -8.75 L5.05 -11.65 Q6.55 -11.45 7.25 -12.95 8.05 -14.75 8.4 -14.9 9.75 -15.45 10.45 -16.55 10.9 -17.15 11.2 -18.95 10.3 -21.6 9.7 -22.5 8.25 -24.65 4.9 -26.85" fill="none" stroke="#010100" stroke-linecap="round" stroke-linejoin="round" stroke-opacity="0.20392157" stroke-width="0.9"/>
    <path d="M-5.0 -10.3 L-6.3 -10.5 -7.35 -11.7 Q-8.7 -12.5 -9.05 -14.5 -9.4 -16.5 -9.9 -16.75 -11.45 -18.5 -11.6 -19.15 L-11.6 -22.5 -13.1 -22.3 -13.75 -23.15 -14.1 -24.3 -13.6 -27.05 -12.8 -28.6 -11.7 -30.0 -10.8 -31.0 -7.75 -32.05 -6.3 -31.8 -5.4 -31.4" fill="none" stroke="#010100" stroke-linecap="round" stroke-linejoin="round" stroke-opacity="0.3647059" stroke-width="0.9"/>
    <path d="M5.65 -20.4 Q7.6 -21.25 6.75 -22.95 5.1 -25.2 4.5 -26.7 7.25 -26.1 9.4 -22.95 11.35 -20.2 11.25 -18.2 10.45 -16.15 9.1 -15.75 7.8 -15.4 5.8 -16.45 L5.0 -18.2 Q4.85 -19.25 5.65 -20.4 Z" fill="none" stroke="#523917" stroke-linecap="butt" stroke-linejoin="miter-clip" stroke-miterlimit="11.33984375" stroke-width="0.9"/>
  </g>
  <defs>
    <radialGradient cx="0" cy="0" gradientTransform="matrix(0.0403, 0.0014, 3.0E-4, 0.0224, 17.3, -20.15)" gradientUnits="userSpaceOnUse" id="gradient0" r="819.2" spreadMethod="pad">
      <stop offset="0.0" stop-color="#151515"/>
      <stop offset="1.0" stop-color="#636c6a"/>
    </radialGradient>
    <radialGradient cx="0" cy="0" gradientTransform="matrix(0.016, 9.0E-4, -8.0E-4, 0.0225, -0.65, -24.0)" gradientUnits="userSpaceOnUse" id="gradient1" r="819.2" spreadMethod="pad">
      <stop offset="0.0" stop-color="#7c3b18"/>
      <stop offset="1.0" stop-color="#bda131"/>
    </radialGradient>
    <radialGradient cx="0" cy="0" gradientTransform="matrix(0.0088, 5.0E-4, -0.0015, 0.0282, -5.25, -16.65)" gradientUnits="userSpaceOnUse" id="gradient2" r="819.2" spreadMethod="pad">
      <stop offset="0.0" stop-color="#363a43"/>
      <stop offset="1.0" stop-color="#dbdce1"/>
    </radialGradient>
    <linearGradient gradientTransform="matrix(0.016, -5.0E-4, 5.0E-4, 0.0163, -14.5, -26.65)" gradientUnits="userSpaceOnUse" id="gradient3" spreadMethod="pad" x1="-819.2" x2="819.2">
      <stop offset="0.0" stop-color="#8e3a0e"/>
      <stop offset="1.0" stop-color="#dbb531"/>
    </linearGradient>
    <radialGradient cx="0" cy="0" gradientTransform="matrix(0.0311, -4.0E-4, 0.0, 0.01, -12.35, -29.85)" gradientUnits="userSpaceOnUse" id="gradient4" r="819.2" spreadMethod="pad">
      <stop offset="0.0" stop-color="#444954"/>
      <stop offset="1.0" stop-color="#dbdce1"/>
    </radialGradient>
    <radialGradient cx="0" cy="0" gradientTransform="matrix(0.0168, 4.0E-4, -1.0E-4, 0.0218, 11.95, -17.0)" gradientUnits="userSpaceOnUse" id="gradient5" r="819.2" spreadMethod="pad">
      <stop offset="0.0" stop-color="#444954"/>
      <stop offset="1.0" stop-color="#dbdce1"/>
    </radialGradient>
  </defs>
</svg>
