<?xml version="1.0" encoding="UTF-8" standalone="no"?>
<svg xmlns:ffdec="https://www.free-decompiler.com/flash" xmlns:xlink="http://www.w3.org/1999/xlink" ffdec:objectType="shape" height="24.5px" width="30.55px" xmlns="http://www.w3.org/2000/svg">
  <g transform="matrix(1.0, 0.0, 0.0, 1.0, 20.05, 29.75)">
    <path d="M7.1 -15.15 L6.5 -11.15 6.0 -10.65 5.9 -6.9 -4.6 -6.9 -4.3 -8.95 -6.0 -10.35 -5.4 -13.55 1.4 -15.85 7.1 -15.15" fill="url(#gradient0)" fill-rule="evenodd" stroke="none"/>
    <path d="M-3.65 -13.0 L-3.65 -11.5 -2.25 -10.25 -1.85 -8.95 0.05 -8.9 0.25 -7.6 -1.65 -7.05 -4.25 -7.8 -6.1 -10.0 -5.9 -11.85 -4.9 -13.3 -3.65 -13.0" fill="#030a17" fill-opacity="0.627451" fill-rule="evenodd" stroke="none"/>
    <path d="M1.9 -13.55 L2.15 -13.8 5.2 -14.2 6.3 -15.35 7.15 -15.25 6.7 -11.8 6.2 -10.75 5.75 -12.5 Q4.8 -12.8 3.9 -13.2 L1.9 -13.55" fill="#efbd6a" fill-opacity="0.1764706" fill-rule="evenodd" stroke="none"/>
    <path d="M5.9 -10.7 L0.5 -10.25 0.25 -9.6 -1.5 -9.3 -2.3 -9.9 -6.4 -9.05" fill="none" stroke="#000000" stroke-linecap="round" stroke-linejoin="round" stroke-opacity="0.67058825" stroke-width="0.8"/>
    <path d="M7.1 -15.15 L6.5 -11.15 6.0 -10.65 5.9 -6.9 -4.6 -6.9 -4.3 -8.95 -6.0 -10.35 -5.4 -13.55 1.4 -15.85 7.1 -15.15 Z" fill="none" stroke="#030508" stroke-linecap="round" stroke-linejoin="round" stroke-width="0.8"/>
    <path d="M-2.8 -7.75 L5.75 -8.7 6.85 -7.75 6.85 -6.1 -4.7 -6.1 -5.5 -7.1 -2.8 -7.75" fill="#0d1012" fill-rule="evenodd" stroke="none"/>
    <path d="M-2.8 -7.75 L5.75 -8.7 6.85 -7.75 6.85 -6.1 -4.7 -6.1 -5.5 -7.1 -2.8 -7.75 Z" fill="none" stroke="#000000" stroke-linecap="round" stroke-linejoin="round" stroke-width="0.8"/>
    <path d="M-5.8 -10.2 L-5.15 -7.6 -1.65 -7.05 6.75 -7.8 Q7.4 -5.9 7.1 -5.95 L-3.35 -6.2 -3.8 -5.7 -5.5 -5.45 -7.95 -7.5 -7.65 -9.8 -6.1 -10.45 -5.8 -10.2" fill="#000000" fill-opacity="0.41960785" fill-rule="evenodd" stroke="none"/>
    <path d="M-7.65 -9.75 L-5.95 -10.55 -4.05 -10.05 -2.75 -8.25 -3.55 -5.85 -5.4 -5.4 Q-8.05 -7.05 -8.05 -7.7 L-7.65 -9.75" fill="#0d1012" fill-rule="evenodd" stroke="none"/>
    <path d="M-7.65 -9.75 L-5.95 -10.55 -4.05 -10.05 -2.75 -8.25 -3.55 -5.85 -5.4 -5.4 Q-8.05 -7.05 -8.05 -7.7 L-7.65 -9.75 Z" fill="none" stroke="#000000" stroke-linecap="round" stroke-linejoin="round" stroke-width="0.30000000000000004"/>
    <path d="M7.1 -15.15 L6.85 -13.2" fill="none" stroke="#000000" stroke-linecap="round" stroke-linejoin="round" stroke-width="0.30000000000000004"/>
    <path d="M-6.75 -8.95 L-5.55 -9.4 -4.1 -8.5 -4.4 -6.6 -5.4 -6.75 -6.6 -7.75 -6.75 -8.95" fill="#2b353c" fill-rule="evenodd" stroke="none"/>
    <path d="M1.3 -27.55 L4.3 -28.1 10.05 -23.85 8.8 -21.1 6.75 -20.85 0.45 -25.35 1.3 -27.55" fill="url(#gradient1)" fill-rule="evenodd" stroke="none"/>
    <path d="M4.9 -27.45 L10.15 -23.8 8.8 -21.3 6.4 -24.45 8.55 -23.1 8.45 -24.2 4.9 -27.45" fill="#a68230" fill-opacity="0.20392157" fill-rule="evenodd" stroke="none"/>
    <path d="M1.3 -27.55 L4.3 -28.1 10.1 -23.85 8.8 -21.1 6.75 -20.85 0.45 -25.35 1.3 -27.55 Z" fill="none" stroke="#000000" stroke-linecap="round" stroke-linejoin="round" stroke-width="0.8"/>
    <path d="M0.65 -28.8 L2.8 -27.4 4.7 -25.9 8.85 -21.6 8.4 -18.5 Q8.0 -18.1 6.85 -18.1 L4.9 -18.5 3.0 -18.85 0.95 -18.6 Q0.75 -18.55 0.1 -18.85 L-0.75 -19.05 -2.6 -18.0 -2.75 -17.2 -2.9 -16.5 -4.45 -14.35 Q-4.6 -14.15 -5.1 -14.1 L-5.95 -14.1 -6.85 -19.2 -7.65 -24.65 Q-7.95 -28.15 -7.4 -28.6 L-6.4 -29.35 0.65 -28.8" fill="#363636" fill-rule="evenodd" stroke="none"/>
    <path d="M0.65 -28.8 L2.8 -27.4 4.7 -25.9 8.85 -21.6 7.55 -15.25 6.85 -15.35 6.3 -15.25 5.2 -14.15 -6.15 -12.5 -6.4 -19.2 Q-8.3 -27.8 -7.4 -28.6 L-6.4 -29.35 0.65 -28.8" fill="url(#gradient2)" fill-rule="evenodd" stroke="none"/>
    <path d="M4.4 -25.85 L3.65 -23.85 6.85 -18.6" fill="none" stroke="#030508" stroke-linecap="round" stroke-linejoin="round" stroke-opacity="0.49019608" stroke-width="0.8"/>
    <path d="M2.85 -26.8 L3.95 -26.6 8.85 -21.45 8.1 -18.55 6.75 -22.45 2.85 -26.8" fill="#eaa737" fill-opacity="0.22745098" fill-rule="evenodd" stroke="none"/>
    <path d="M-1.45 -28.2 L-2.9 -27.1 -2.6 -25.9 -3.2 -21.45 -2.6 -19.65 -4.5 -19.15 -4.75 -17.7 -3.85 -15.75 -4.1 -14.25 -5.8 -14.1 -8.05 -21.9 -7.05 -28.45 -5.55 -29.35 -3.75 -29.05 -1.45 -28.2" fill="#030a17" fill-opacity="0.62352943" fill-rule="evenodd" stroke="none"/>
    <path d="M6.6 -16.85 L7.8 -16.75 7.8 -15.4 6.5 -15.35 4.9 -14.0 -3.8 -12.85 -3.1 -14.0 0.85 -14.45 5.35 -16.1 6.6 -16.85" fill="#efbd6a" fill-opacity="0.1764706" fill-rule="evenodd" stroke="none"/>
    <path d="M7.35 -20.35 L8.75 -20.85 9.75 -19.9 9.05 -16.3 7.7 -15.8 6.65 -16.75 7.35 -20.35" fill="url(#gradient3)" fill-rule="evenodd" stroke="none"/>
    <path d="M7.7 -15.8 L9.05 -16.3 9.75 -19.9 8.75 -20.85" fill="none" stroke="#a76f45" stroke-linecap="round" stroke-linejoin="round" stroke-opacity="0.7137255" stroke-width="0.8"/>
    <path d="M-4.65 -12.65 L-6.15 -12.5 -6.4 -19.2 Q-8.3 -27.8 -7.4 -28.6 L-6.4 -29.35 0.65 -28.8 4.7 -25.9 8.85 -21.6 8.75 -20.85" fill="none" stroke="#030508" stroke-linecap="round" stroke-linejoin="round" stroke-width="0.8"/>
    <path d="M8.75 -20.85 L7.35 -20.35 6.65 -16.75 7.7 -15.8" fill="none" stroke="#4f3112" stroke-linecap="round" stroke-linejoin="round" stroke-width="0.8"/>
    <path d="M9.4 -19.7 L9.25 -18.8" fill="none" stroke="#ffffff" stroke-linecap="round" stroke-linejoin="round" stroke-width="0.25"/>
    <path d="M7.7 -15.8 L7.55 -15.25 6.3 -15.25 5.2 -14.15 -6.15 -12.5 -5.95 -14.1" fill="none" stroke="#000000" stroke-linecap="round" stroke-linejoin="round" stroke-width="1.0"/>
    <path d="M-3.9 -25.5 L-0.35 -26.05 1.35 -24.3 1.55 -21.5 -0.45 -19.75 -4.0 -20.8 -4.7 -22.5 -3.9 -25.5" fill="#0d1012" fill-rule="evenodd" stroke="none"/>
    <path d="M-3.9 -25.5 L-0.35 -26.05 1.35 -24.3 1.55 -21.5 -0.45 -19.75 -4.0 -20.8 -4.7 -22.5 -3.9 -25.5 Z" fill="none" stroke="#000000" stroke-linecap="round" stroke-linejoin="round" stroke-width="0.8"/>
    <path d="M8.75 -20.85 L8.85 -21.6 6.75 -23.75" fill="none" stroke="#000000" stroke-linecap="round" stroke-linejoin="round" stroke-width="0.8"/>
    <path d="M-15.6 -18.8 L-19.65 -26.75 -18.95 -28.65 -14.6 -28.65 -12.1 -21.35 -15.6 -18.8" fill="url(#gradient4)" fill-rule="evenodd" stroke="none"/>
    <path d="M-15.6 -18.8 L-19.65 -26.75 -18.95 -28.65 -14.6 -28.65 -12.1 -21.35 -15.6 -18.8 Z" fill="none" stroke="#1d1812" stroke-linecap="round" stroke-linejoin="round" stroke-width="0.8"/>
    <path d="M-11.75 -12.4 L-9.55 -14.2 -6.65 -13.3 -7.45 -11.25 -10.3 -10.65 -11.75 -12.4" fill="#ac9a81" fill-rule="evenodd" stroke="none"/>
    <path d="M-16.95 -25.5 L-15.95 -29.25 -6.2 -28.7 -6.75 -26.35 -5.95 -22.95 -6.85 -21.2 -7.0 -18.85 -5.55 -16.2 -2.8 -14.35 -3.75 -11.85 -5.7 -12.15 -8.8 -12.35 -11.8 -11.4 Q-13.75 -15.6 -15.4 -16.0 -16.2 -16.1 -16.5 -17.45 L-16.95 -19.85 -14.9 -21.7 -16.95 -25.5" fill="#35424a" fill-rule="evenodd" stroke="none"/>
    <path d="M-11.75 -12.4 L-10.3 -10.65 -7.45 -11.25 -6.65 -13.3 -9.55 -14.2 -11.75 -12.4 Z" fill="none" stroke="#1d1812" stroke-linecap="round" stroke-linejoin="round" stroke-width="0.8"/>
    <path d="M-9.45 -28.6 L-8.7 -28.95 -6.1 -28.85 -6.9 -26.35 -6.2 -23.2 -6.25 -22.0 -7.1 -21.1 -7.05 -19.0 -5.8 -17.1 -5.7 -15.85 -3.0 -14.0 -3.8 -11.85 -5.95 -11.85 -6.55 -12.8 -8.7 -12.6 -11.95 -11.25 -13.05 -13.55 -9.1 -15.25 -8.95 -16.2 -9.6 -17.15 -10.7 -20.1 -8.95 -22.25 -10.1 -26.35 -9.45 -28.6" fill="#2b353c" fill-rule="evenodd" stroke="none"/>
    <path d="M-13.95 -15.75 L-15.4 -15.95 -17.15 -19.5 -14.9 -21.7 -16.95 -25.5 -15.95 -29.25 -11.05 -28.95" fill="none" stroke="#222a30" stroke-linecap="round" stroke-linejoin="round" stroke-width="0.8"/>
    <path d="M-12.75 -13.8 L-9.1 -15.3 -8.95 -16.1 -10.65 -20.15 -9.0 -22.15 -10.2 -26.6 -9.45 -28.65" fill="none" stroke="#1d2429" stroke-linecap="round" stroke-linejoin="round" stroke-width="0.8"/>
    <path d="M-11.05 -28.95 L-6.2 -28.7 -7.0 -26.3 -6.25 -23.3 -6.15 -22.15 -7.05 -20.85 -6.9 -18.95 -5.8 -17.3 -5.7 -16.05 -2.95 -14.1 -3.6 -11.95 -6.0 -11.85 -6.75 -12.8 -8.6 -12.6 -11.8 -11.4 -13.95 -15.7" fill="none" stroke="#030508" stroke-linecap="round" stroke-linejoin="round" stroke-width="0.8"/>
    <path d="M-11.1 -27.95 L-11.95 -26.55 -10.9 -22.15 -13.7 -22.45 -15.65 -25.95 -14.9 -28.2 -11.1 -27.95" fill="#2b353c" fill-rule="evenodd" stroke="none"/>
    <path d="M-12.65 -15.7 Q-11.75 -16.05 -10.9 -16.5 L-10.7 -17.8 -10.1 -16.1 -12.45 -15.05 -12.65 -15.7" fill="#2b353c" fill-rule="evenodd" stroke="none"/>
  </g>
  <defs>
    <linearGradient gradientTransform="matrix(0.0078, 0.0022, -0.0022, 0.0077, 1.35, -10.7)" gradientUnits="userSpaceOnUse" id="gradient0" spreadMethod="pad" x1="-819.2" x2="819.2">
      <stop offset="0.0" stop-color="#0e171d"/>
      <stop offset="0.615686274509804" stop-color="#131519"/>
      <stop offset="1.0" stop-color="#1f1c0f"/>
    </linearGradient>
    <linearGradient gradientTransform="matrix(0.0029, -0.0029, 0.0029, 0.0029, 5.65, -24.2)" gradientUnits="userSpaceOnUse" id="gradient1" spreadMethod="pad" x1="-819.2" x2="819.2">
      <stop offset="0.0" stop-color="#0d1012"/>
      <stop offset="1.0" stop-color="#201d0f"/>
    </linearGradient>
    <linearGradient gradientTransform="matrix(0.0101, 0.0, 0.0, 0.0099, 0.6, -20.9)" gradientUnits="userSpaceOnUse" id="gradient2" spreadMethod="pad" x1="-819.2" x2="819.2">
      <stop offset="0.0" stop-color="#0a151c"/>
      <stop offset="0.3568627450980392" stop-color="#11191d"/>
      <stop offset="0.7254901960784313" stop-color="#1d1b10"/>
      <stop offset="1.0" stop-color="#23200d"/>
    </linearGradient>
    <radialGradient cx="0" cy="0" gradientTransform="matrix(0.0015, 3.0E-4, -6.0E-4, 0.003, 8.2, -18.35)" gradientUnits="userSpaceOnUse" id="gradient3" r="819.2" spreadMethod="pad">
      <stop offset="0.0" stop-color="#f9e4c0"/>
      <stop offset="1.0" stop-color="#e69c1f"/>
    </radialGradient>
    <linearGradient gradientTransform="matrix(0.0037, 0.0016, -0.0016, 0.0036, -16.2, -24.2)" gradientUnits="userSpaceOnUse" id="gradient4" spreadMethod="pad" x1="-819.2" x2="819.2">
      <stop offset="0.0" stop-color="#211c16"/>
      <stop offset="0.4980392156862745" stop-color="#d2c9bb"/>
      <stop offset="1.0" stop-color="#ac9a81"/>
    </linearGradient>
  </defs>
</svg>
