<?xml version="1.0" encoding="UTF-8" standalone="no"?>
<svg xmlns:ffdec="https://www.free-decompiler.com/flash" xmlns:xlink="http://www.w3.org/1999/xlink" ffdec:objectType="shape" height="24.8px" width="15.9px" xmlns="http://www.w3.org/2000/svg">
  <g transform="matrix(1.0, 0.0, 0.0, 1.0, 7.95, 12.4)">
    <path d="M3.7 -7.3 Q5.25 -5.65 5.25 -3.4 L5.25 3.4 Q5.25 5.7 3.7 7.4 2.2 9.0 0.0 9.0 -2.15 9.0 -3.65 7.4 -5.25 5.7 -5.25 3.4 L-5.25 -3.4 Q-5.25 -5.65 -3.65 -7.3 -2.15 -9.0 0.0 -9.0 2.2 -9.0 3.7 -7.3" fill="url(#gradient0)" fill-rule="evenodd" stroke="none"/>
    <path d="M3.7 -7.3 Q5.25 -5.65 5.25 -3.4 L5.25 3.4 Q5.25 5.7 3.7 7.4 2.2 9.0 0.0 9.0 -2.15 9.0 -3.65 7.4 -5.25 5.7 -5.25 3.4 L-5.25 -3.4 Q-5.25 -5.65 -3.65 -7.3 -2.15 -9.0 0.0 -9.0 2.2 -9.0 3.7 -7.3 Z" fill="none" stroke="#5a5d4f" stroke-linecap="round" stroke-linejoin="round" stroke-width="1.0"/>
    <path d="M5.25 -9.7 Q7.45 -7.5 7.45 -4.45 L7.45 4.45 Q7.45 7.5 5.25 9.7 3.05 11.9 0.0 11.9 -3.05 11.9 -5.25 9.7 -7.45 7.5 -7.45 4.45 L-7.45 -4.45 Q-7.45 -7.5 -5.25 -9.7 -3.05 -11.9 0.0 -11.9 3.05 -11.9 5.25 -9.7" fill="url(#gradient1)" fill-rule="evenodd" stroke="none"/>
    <path d="M5.25 -9.7 Q7.45 -7.5 7.45 -4.45 L7.45 4.45 Q7.45 7.5 5.25 9.7 3.05 11.9 0.0 11.9 -3.05 11.9 -5.25 9.7 -7.45 7.5 -7.45 4.45 L-7.45 -4.45 Q-7.45 -7.5 -5.25 -9.7 -3.05 -11.9 0.0 -11.9 3.05 -11.9 5.25 -9.7 Z" fill="none" stroke="#000000" stroke-linecap="round" stroke-linejoin="round" stroke-opacity="0.3019608" stroke-width="1.0"/>
  </g>
  <defs>
    <radialGradient cx="0" cy="0" gradientTransform="matrix(0.0089, 0.0, 0.0, 0.0132, 0.0, 0.0)" gradientUnits="userSpaceOnUse" id="gradient0" r="819.2" spreadMethod="pad">
      <stop offset="0.0" stop-color="#d9dbce"/>
      <stop offset="1.0" stop-color="#abb291"/>
    </radialGradient>
    <radialGradient cx="0" cy="0" gradientTransform="matrix(0.0126, 0.0, 0.0, 0.0175, 0.0, 0.0)" gradientUnits="userSpaceOnUse" id="gradient1" r="819.2" spreadMethod="pad">
      <stop offset="0.0" stop-color="#000000" stop-opacity="0.0"/>
      <stop offset="1.0" stop-color="#000000" stop-opacity="0.2"/>
    </radialGradient>
  </defs>
</svg>
