<?xml version="1.0" encoding="UTF-8" standalone="no"?>
<svg xmlns:ffdec="https://www.free-decompiler.com/flash" xmlns:xlink="http://www.w3.org/1999/xlink" ffdec:objectType="shape" height="8.7px" width="14.3px" xmlns="http://www.w3.org/2000/svg">
  <g transform="matrix(1.0, 0.0, 0.0, 1.0, 6.75, 12.85)">
    <path d="M-2.8 -7.9 L6.35 -7.9 Q6.15 -6.55 4.8 -6.05 3.0 -5.05 -0.4 -5.25 L-0.6 -5.25 -0.75 -5.3 -0.8 -5.3 -0.9 -5.35 -2.95 -5.6 -3.7 -5.85 -3.8 -5.85 -3.8 -5.95 Q-4.6 -6.55 -4.15 -6.4 L-2.8 -7.9 M-3.8 -5.95 L-3.7 -5.85 -3.8 -5.95" fill="#141414" fill-rule="evenodd" stroke="none"/>
    <path d="M-2.8 -7.9 L6.35 -7.9 Q6.15 -6.55 4.8 -6.05 3.0 -5.05 -0.4 -5.25 L-0.6 -5.25 -0.75 -5.3 -0.8 -5.3 -0.9 -5.35 -2.95 -5.6 -3.7 -5.85 -3.8 -5.85 M-3.8 -5.95 Q-4.6 -6.55 -4.15 -6.4 -4.65 -7.8 -4.15 -7.9 L-2.8 -7.9 M-3.7 -5.85 L-3.8 -5.95" fill="none" stroke="#0a0a0a" stroke-linecap="round" stroke-linejoin="round" stroke-width="1.0"/>
    <path d="M-4.2 -10.35 L7.0 -10.35" fill="none" stroke="#090909" stroke-linecap="round" stroke-linejoin="round" stroke-opacity="0.8980392" stroke-width="1.0"/>
    <path d="M6.9 -8.25 L7.05 -8.7 7.05 -5.95 6.9 -5.95 6.9 -6.65 6.9 -8.25 6.9 -6.65 4.65 -6.65 4.65 -8.4 Q4.75 -8.05 5.1 -8.05 L6.5 -8.05 Q6.8 -8.05 6.9 -8.25 M4.55 -8.75 L4.65 -8.4 4.65 -6.65 4.65 -6.15 4.55 -6.15 4.55 -8.75 M4.15 -8.7 L4.15 -5.95 4.05 -5.95 4.05 -6.65 1.7 -6.65 1.7 -6.15 1.65 -6.15 1.65 -8.7 1.7 -8.4 Q1.8 -8.05 2.25 -8.05 L3.55 -8.05 Q3.9 -8.05 4.05 -8.25 L4.15 -8.7 M4.05 -6.65 L4.05 -8.25 4.05 -6.65 M1.7 -8.4 L1.7 -6.65 1.7 -8.4 M-2.6 -7.3 L-2.6 -8.75 -2.6 -7.3 -6.15 -7.3 -6.15 -8.85 -6.15 -7.3 -6.15 -6.0 -6.25 -6.0 -6.25 -9.15 -6.15 -8.85 Q-6.1 -8.35 -5.8 -8.35 L-3.65 -8.35 Q-2.95 -8.35 -2.6 -8.75 L-2.45 -9.2 -2.45 -5.85 -2.6 -5.85 -2.6 -7.3" fill="#141414" fill-rule="evenodd" stroke="none"/>
    <path d="M7.05 -8.7 L6.9 -8.25 Q6.8 -8.05 6.5 -8.05 L5.1 -8.05 Q4.75 -8.05 4.65 -8.4 L4.55 -8.75 4.55 -10.3 Q4.55 -11.15 5.1 -11.15 L6.5 -11.15 Q7.05 -11.15 7.05 -10.3 L7.05 -8.7 M6.9 -6.65 L6.9 -5.95 Q6.9 -5.05 6.4 -5.05 L5.1 -5.05 Q4.65 -5.1 4.65 -5.95 L4.65 -6.15 4.65 -6.65 6.9 -6.65 M1.65 -8.7 L1.65 -10.3 Q1.65 -11.15 2.25 -11.15 L3.55 -11.15 Q4.15 -11.15 4.15 -10.3 L4.15 -8.7 4.05 -8.25 Q3.9 -8.05 3.55 -8.05 L2.25 -8.05 Q1.8 -8.05 1.7 -8.4 L1.65 -8.7 M4.05 -5.95 Q4.05 -5.05 3.5 -5.05 L2.25 -5.05 Q1.7 -5.1 1.7 -5.95 L1.7 -6.15 1.7 -6.65 4.05 -6.65 4.05 -5.95 M-2.6 -7.3 L-2.6 -5.85 Q-2.6 -4.65 -3.8 -4.65 L-5.2 -4.65 Q-6.15 -4.7 -6.15 -5.85 L-6.15 -6.0 -6.15 -7.3 -2.6 -7.3 M-2.45 -9.2 L-2.6 -8.75 Q-2.95 -8.35 -3.65 -8.35 L-5.8 -8.35 Q-6.1 -8.35 -6.15 -8.85 L-6.25 -9.15 -6.25 -11.25 Q-6.25 -12.35 -5.25 -12.35 L-3.65 -12.35 Q-2.45 -12.35 -2.45 -11.25 L-2.45 -9.2" fill="#1c1c1c" fill-rule="evenodd" stroke="none"/>
    <path d="M7.05 -8.7 L6.9 -8.25 6.9 -6.65 6.9 -5.95 Q6.9 -5.05 6.4 -5.05 L5.1 -5.05 Q4.65 -5.1 4.65 -5.95 L4.65 -6.15 4.65 -6.65 4.65 -8.4 Q4.75 -8.05 5.1 -8.05 L6.5 -8.05 Q6.8 -8.05 6.9 -8.25 M7.05 -8.7 L7.05 -10.3 Q7.05 -11.15 6.5 -11.15 L5.1 -11.15 Q4.55 -11.15 4.55 -10.3 L4.55 -8.75 4.65 -8.4 M1.65 -8.7 L1.65 -10.3 Q1.65 -11.15 2.25 -11.15 L3.55 -11.15 Q4.15 -11.15 4.15 -10.3 L4.15 -8.7 4.05 -8.25 4.05 -6.65 4.05 -5.95 Q4.05 -5.05 3.5 -5.05 L2.25 -5.05 Q1.7 -5.1 1.7 -5.95 L1.7 -6.15 1.7 -6.65 1.7 -8.4 Q1.8 -8.05 2.25 -8.05 L3.55 -8.05 Q3.9 -8.05 4.05 -8.25 M1.65 -8.7 L1.7 -8.4 M-2.6 -8.75 L-2.6 -7.3 -2.6 -5.85 Q-2.6 -4.65 -3.8 -4.65 L-5.2 -4.65 Q-6.15 -4.7 -6.15 -5.85 L-6.15 -6.0 -6.15 -7.3 -6.15 -8.85 -6.25 -9.15 -6.25 -11.25 Q-6.25 -12.35 -5.25 -12.35 L-3.65 -12.35 Q-2.45 -12.35 -2.45 -11.25 L-2.45 -9.2 -2.6 -8.75 Q-2.95 -8.35 -3.65 -8.35 L-5.8 -8.35 Q-6.1 -8.35 -6.15 -8.85" fill="none" stroke="#0a0a0a" stroke-linecap="round" stroke-linejoin="round" stroke-width="1.0"/>
    <path d="M6.45 -8.55 L6.45 -7.85" fill="none" stroke="#484848" stroke-linecap="round" stroke-linejoin="round" stroke-width="1.0"/>
    <path d="M2.9 -8.55 L2.9 -7.85" fill="none" stroke="#484848" stroke-linecap="round" stroke-linejoin="round" stroke-width="1.0"/>
    <path d="M-4.9 -7.95 L-4.9 -8.8" fill="none" stroke="#484848" stroke-linecap="round" stroke-linejoin="round" stroke-width="1.0"/>
  </g>
</svg>
