<?xml version="1.0" encoding="UTF-8" standalone="no"?>
<svg xmlns:xlink="http://www.w3.org/1999/xlink" height="18.15px" width="48.1px" xmlns="http://www.w3.org/2000/svg">
  <g transform="matrix(1.0, 0.0, 0.0, 1.0, 17.05, 4.8)">
    <path d="M20.3 -2.2 L27.0 -2.2 27.0 2.55 20.3 2.55 20.3 -2.2" fill="#3c3c3c" fill-rule="evenodd" stroke="none"/>
    <path d="M20.3 -2.2 L27.0 -2.2 27.0 2.55 20.3 2.55 20.3 -2.2 Z" fill="none" stroke="#292929" stroke-linecap="round" stroke-linejoin="round" stroke-width="1.0"/>
    <path d="M25.7 7.3 L25.7 2.55 30.55 2.55 30.55 7.3 25.7 7.3" fill="#3c3c3c" fill-rule="evenodd" stroke="none"/>
    <path d="M25.7 7.3 L30.55 7.3 30.55 2.55 25.7 2.55 25.7 7.3 Z" fill="none" stroke="#292929" stroke-linecap="round" stroke-linejoin="round" stroke-width="1.0"/>
    <path d="M25.35 -2.2 L25.35 2.55" fill="none" stroke="#777676" stroke-linecap="round" stroke-linejoin="miter-clip" stroke-miterlimit="10.0" stroke-width="1.0"/>
    <path d="M28.85 2.55 L28.85 7.3" fill="none" stroke="#777676" stroke-linecap="round" stroke-linejoin="miter-clip" stroke-miterlimit="10.0" stroke-width="1.0"/>
    <path d="M-4.25 11.3 L-13.2 6.9 -12.35 3.2 -5.3 3.7 -6.1 6.6 Q-6.35 9.6 -3.65 9.95 L-4.25 11.3" fill="#2b7bbf" fill-rule="evenodd" stroke="none"/>
    <path d="M-4.25 11.3 L-13.2 6.9 -12.35 3.2 -5.3 3.7 -6.1 6.6 Q-6.35 9.6 -3.65 9.95 L-4.25 11.3 Z" fill="none" stroke="#30587f" stroke-linecap="round" stroke-linejoin="round" stroke-width="1.0"/>
    <path d="M-15.1 7.85 L-16.55 -1.6 -14.7 -1.6 -14.15 -1.15 -8.95 -1.15 -10.05 4.9 -12.85 7.85 -15.1 7.85" fill="#6e6e6e" fill-rule="evenodd" stroke="none"/>
    <path d="M-15.1 7.85 L-12.85 7.85 -10.05 4.9 -8.95 -1.15 -14.15 -1.15 -14.7 -1.6 -16.55 -1.6 -15.1 7.85 Z" fill="none" stroke="#3c3c3c" stroke-linecap="butt" stroke-linejoin="round" stroke-width="1.0"/>
    <path d="M-0.75 4.75 L-10.25 5.7 -11.4 4.15 -9.65 -2.65 0.75 -3.55 -0.75 4.75" fill="#cdcccd" fill-rule="evenodd" stroke="none"/>
    <path d="M-0.75 4.75 L0.75 -3.55 -9.65 -2.65 -11.4 4.15 -10.25 5.7 -0.75 4.75 Z" fill="none" stroke="#777676" stroke-linecap="round" stroke-linejoin="round" stroke-width="1.0"/>
    <path d="M23.05 1.65 L23.05 4.1 12.2 4.6 9.85 -3.05 18.65 -2.75 Q20.1 -2.5 20.3 -2.15 L23.05 1.65" fill="#cdcccd" fill-rule="evenodd" stroke="none"/>
    <path d="M23.05 1.65 L20.3 -2.15 Q20.1 -2.5 18.65 -2.75 L9.85 -3.05 12.2 4.6 23.05 4.1 23.05 1.65 Z" fill="none" stroke="#777676" stroke-linecap="butt" stroke-linejoin="miter-clip" stroke-miterlimit="10.0" stroke-width="1.0"/>
    <path d="M19.2 -0.25 L17.55 -0.25 16.45 -3.45 Q18.25 -3.75 18.4 -3.15 L19.2 -0.25" fill="#2b7bbf" fill-rule="evenodd" stroke="none"/>
    <path d="M19.2 -0.25 L18.4 -3.15 Q18.25 -3.75 16.45 -3.45 L17.55 -0.25 19.2 -0.25 Z" fill="none" stroke="#30587f" stroke-linecap="round" stroke-linejoin="round" stroke-width="1.0"/>
    <path d="M15.6 -0.25 L13.95 -0.25 12.1 -3.75 Q13.9 -4.05 14.45 -3.4 L15.6 -0.25" fill="#2b7bbf" fill-rule="evenodd" stroke="none"/>
    <path d="M15.6 -0.25 L14.45 -3.4 Q13.9 -4.05 12.1 -3.75 L13.95 -0.25 15.6 -0.25 Z" fill="none" stroke="#30587f" stroke-linecap="round" stroke-linejoin="round" stroke-width="1.0"/>
    <path d="M12.7 8.65 L12.7 1.65 24.85 1.65 25.7 2.55 25.7 6.15 14.75 8.65 12.7 8.65" fill="#6e6e6e" fill-rule="evenodd" stroke="none"/>
    <path d="M12.7 8.65 L12.7 1.65 24.85 1.65 25.7 2.55 25.7 6.15 14.75 8.65 12.7 8.65 Z" fill="none" stroke="#3c3c3c" stroke-linecap="round" stroke-linejoin="round" stroke-width="1.0"/>
    <path d="M14.75 8.65 L13.0 8.65" fill="none" stroke="#292929" stroke-linecap="butt" stroke-linejoin="miter-clip" stroke-miterlimit="10.0" stroke-width="1.0"/>
    <path d="M-2.05 12.5 Q-3.9 11.95 -4.25 11.3 L-3.65 9.35 Q-3.35 8.1 -3.4 6.95 -3.45 5.85 -4.95 5.0 L-6.5 4.4 -7.8 -1.15 -2.6 -1.6 2.1 -4.3 9.85 -3.05 15.2 5.75 12.15 9.8 9.2 10.15 6.9 7.3 3.3 7.3 1.1 12.65 -2.05 12.5" fill="#6e6e6e" fill-rule="evenodd" stroke="none"/>
    <path d="M-2.05 12.5 L1.1 12.65 3.3 7.3 6.9 7.3 9.2 10.15 12.15 9.8 15.2 5.75 9.85 -3.05 2.1 -4.3 -2.6 -1.6 -7.8 -1.15 -6.5 4.4 -4.95 5.0 Q-3.45 5.85 -3.4 6.95 -3.35 8.1 -3.65 9.35 L-4.25 11.3 Q-3.9 11.95 -2.05 12.5 Z" fill="none" stroke="#292929" stroke-linecap="round" stroke-linejoin="round" stroke-width="1.0"/>
    <path d="M3.3 7.3 L1.1 12.65 Q-0.7 13.05 -2.65 12.2 L-4.25 11.3 Q-3.5 9.2 -3.4 7.65 L-3.45 6.55 1.5 6.7 3.3 7.3" fill="#3c3c3c" fill-rule="evenodd" stroke="none"/>
    <path d="M-3.45 6.55 L-3.4 7.65 Q-3.5 9.2 -4.25 11.3 L-2.65 12.2 Q-0.7 13.05 1.1 12.65 L3.3 7.3" fill="none" stroke="#292929" stroke-linecap="round" stroke-linejoin="round" stroke-width="1.0"/>
    <path d="M1.1 12.65 Q7.45 10.2 9.2 10.15 L1.1 12.65" fill="#3c3c3c" fill-rule="evenodd" stroke="none"/>
    <path d="M1.1 12.65 Q7.45 10.2 9.2 10.15" fill="none" stroke="#292929" stroke-linecap="round" stroke-linejoin="round" stroke-width="1.0"/>
    <path d="M26.65 6.15 L26.6 7.5 Q26.35 8.9 25.35 9.25 22.1 10.15 18.0 10.4 L14.55 10.45 13.95 9.6 16.9 6.15 26.65 6.15" fill="#cdcccd" fill-rule="evenodd" stroke="none"/>
    <path d="M26.65 6.15 L16.9 6.15 13.95 9.6 14.55 10.45 18.0 10.4 Q22.1 10.15 25.35 9.25 26.35 8.9 26.6 7.5 L26.65 6.15 Z" fill="none" stroke="#777676" stroke-linecap="round" stroke-linejoin="round" stroke-width="1.0"/>
    <path d="M26.65 6.15 L16.9 6.15 13.95 9.6" fill="none" stroke="#3e3e3e" stroke-linecap="round" stroke-linejoin="round" stroke-width="1.0"/>
    <path d="M4.9 7.3 L4.65 8.65" fill="none" stroke="#292929" stroke-linecap="round" stroke-linejoin="round" stroke-width="1.0"/>
    <path d="M24.5 7.85 L24.6 9.15 Q24.45 10.4 22.9 10.4 22.9 9.15 22.15 7.85 23.4 7.3 24.5 7.85" fill="#2b7bbf" fill-rule="evenodd" stroke="none"/>
    <path d="M24.5 7.85 L24.6 9.15 Q24.45 10.4 22.9 10.4 22.9 9.15 22.15 7.85 23.4 7.3 24.5 7.85 Z" fill="none" stroke="#30587f" stroke-linecap="round" stroke-linejoin="round" stroke-width="1.0"/>
    <path d="M19.95 8.5 L19.95 9.8 Q19.6 11.05 18.1 10.85 18.25 9.6 17.6 8.25 18.95 7.85 19.95 8.5" fill="#2b7bbf" fill-rule="evenodd" stroke="none"/>
    <path d="M19.95 8.5 L19.95 9.8 Q19.6 11.05 18.1 10.85 18.25 9.6 17.6 8.25 18.95 7.85 19.95 8.5 Z" fill="none" stroke="#30587f" stroke-linecap="round" stroke-linejoin="round" stroke-width="1.0"/>
    <path d="M-5.5 1.7 Q-5.5 1.05 -5.05 0.65 -4.6 0.2 -4.0 0.2 -3.35 0.2 -2.95 0.65 -2.5 1.05 -2.5 1.7 -2.5 2.35 -2.95 2.75 -3.35 3.2 -4.0 3.2 -4.6 3.2 -5.05 2.75 L-5.5 1.7" fill="#cdcccd" fill-rule="evenodd" stroke="none"/>
    <path d="M-5.5 1.7 L-5.05 2.75 Q-4.6 3.2 -4.0 3.2 -3.35 3.2 -2.95 2.75 -2.5 2.35 -2.5 1.7 -2.5 1.05 -2.95 0.65 -3.35 0.2 -4.0 0.2 -4.6 0.2 -5.05 0.65 -5.5 1.05 -5.5 1.7 Z" fill="none" stroke="#3f3f3f" stroke-linecap="butt" stroke-linejoin="round" stroke-width="1.0"/>
    <path d="M-4.8 0.45 L-3.1 2.95" fill="none" stroke="#777676" stroke-linecap="round" stroke-linejoin="round" stroke-width="1.0"/>
    <path d="M13.0 5.65 L11.3 8.1" fill="none" stroke="#cdcccd" stroke-linecap="round" stroke-linejoin="round" stroke-width="1.0"/>
    <path d="M11.85 4.9 L10.15 7.35" fill="none" stroke="#cdcccd" stroke-linecap="round" stroke-linejoin="round" stroke-width="1.0"/>
    <path d="M1.1 4.4 L1.1 0.7 8.5 0.7 8.5 4.4 1.1 4.4" fill="#3c3c3c" fill-rule="evenodd" stroke="none"/>
    <path d="M1.1 4.4 L8.5 4.4 8.5 0.7 1.1 0.7 1.1 4.4 Z" fill="none" stroke="#292929" stroke-linecap="round" stroke-linejoin="round" stroke-width="1.0"/>
    <path d="M1.1 8.3 L-2.5 10.65" fill="none" stroke="#292929" stroke-linecap="round" stroke-linejoin="round" stroke-width="1.0"/>
    <path d="M-1.6 7.55 L0.1 11.4" fill="none" stroke="#292929" stroke-linecap="round" stroke-linejoin="round" stroke-width="1.0"/>
    <path d="M7.1 1.9 L2.7 1.9" fill="none" stroke="#2b7bbf" stroke-linecap="round" stroke-linejoin="round" stroke-width="1.0"/>
    <path d="M6.85 3.05 L3.45 3.0" fill="none" stroke="#2b7bbf" stroke-linecap="round" stroke-linejoin="round" stroke-width="1.0"/>
    <path d="M24.1 4.25 L21.55 4.25" fill="none" stroke="#3c3c3c" stroke-linecap="round" stroke-linejoin="round" stroke-width="1.0"/>
    <path d="M18.85 4.25 L16.45 4.25" fill="none" stroke="#3c3c3c" stroke-linecap="round" stroke-linejoin="round" stroke-width="1.0"/>
    <path d="M-11.8 0.45 L-14.05 5.65 -14.9 0.45 -11.8 0.45" fill="#6e6e6e" fill-rule="evenodd" stroke="none"/>
    <path d="M-11.8 0.45 L-14.9 0.45 -14.05 5.65" fill="none" stroke="#3c3c3c" stroke-linecap="round" stroke-linejoin="round" stroke-width="1.0"/>
    <path d="M-14.45 3.2 L-13.2 3.2" fill="none" stroke="#3c3c3c" stroke-linecap="round" stroke-linejoin="round" stroke-width="1.0"/>
    <path d="M-16.55 -1.6 L-15.15 7.85" fill="none" stroke="#cdcccd" stroke-linecap="round" stroke-linejoin="round" stroke-width="1.0"/>
    <path d="M1.05 -0.75 L1.05 -2.05 6.35 -2.05 6.35 -0.75 1.05 -0.75" fill="#6e6e6e" fill-rule="evenodd" stroke="none"/>
    <path d="M1.05 -0.75 L6.35 -0.75 6.35 -2.05 1.05 -2.05 1.05 -0.75 Z" fill="none" stroke="#3c3c3c" stroke-linecap="round" stroke-linejoin="round" stroke-width="1.0"/>
  </g>
</svg>
