<?xml version="1.0" encoding="UTF-8" standalone="no"?>
<svg xmlns:ffdec="https://www.free-decompiler.com/flash" xmlns:xlink="http://www.w3.org/1999/xlink" ffdec:objectType="shape" height="34.45px" width="26.4px" xmlns="http://www.w3.org/2000/svg">
  <g transform="matrix(1.0, 0.0, 0.0, 1.0, 15.3, 35.4)">
    <path d="M-1.9 -28.1 L-1.2 -31.2 Q1.4 -33.35 3.45 -30.6 L3.5 -28.15 -1.3 -28.15 -1.9 -28.1 -1.3 -28.15 3.5 -28.15 Q5.5 -27.3 6.65 -25.05 L4.55 -21.8 6.55 -19.3 5.95 -17.45 3.35 -16.25 3.35 -13.7 4.45 -12.15 5.75 -9.8 6.5 -9.8 6.5 -6.2 5.75 -2.8 Q4.55 -1.5 1.7 -1.45 -0.75 -1.35 -1.95 -2.9 L-2.65 -6.2 -2.65 -7.4 -0.85 -7.4 -0.85 -10.1 Q-3.4 -9.2 -3.1 -11.85 L-3.05 -14.55 -3.25 -15.55 -3.35 -16.05 Q-6.85 -17.05 -3.65 -18.5 L-3.65 -27.05 Q-2.75 -28.0 -1.9 -28.1 M6.5 -6.2 L-2.65 -6.2 6.5 -6.2" fill="#191919" fill-rule="evenodd" stroke="none"/>
    <path d="M6.65 -25.05 Q9.6 -23.55 10.35 -21.35 11.05 -19.15 9.95 -17.25 8.85 -15.35 7.85 -14.8 L5.95 -17.45 6.55 -19.3 4.55 -21.8 6.65 -25.05" fill="url(#gradient0)" fill-rule="evenodd" stroke="none"/>
    <path d="M-3.05 -14.55 L-3.7 -14.55 -5.8 -15.65 -6.6 -16.45 -6.45 -17.35 -5.45 -16.4 -3.65 -15.55 -3.25 -15.55 -3.05 -14.55" fill="url(#gradient1)" fill-rule="evenodd" stroke="none"/>
    <path d="M-2.65 -7.4 L-4.45 -9.7 -4.45 -11.2 -4.45 -11.85 -3.1 -11.85 Q-3.4 -9.2 -0.85 -10.1 L-0.85 -7.4 -2.65 -7.4" fill="url(#gradient2)" fill-rule="evenodd" stroke="none"/>
    <path d="M3.5 -28.15 L3.45 -30.6 Q1.4 -33.35 -1.2 -31.2 L-1.9 -28.1 -1.3 -28.15 3.5 -28.15 Q5.5 -27.3 6.65 -25.05 M6.5 -9.8 L6.5 -6.2 5.75 -2.8 Q4.55 -1.5 1.7 -1.45 -0.75 -1.35 -1.95 -2.9 L-2.65 -6.2 -2.65 -7.4 M-3.65 -27.05 Q-2.75 -28.0 -1.9 -28.1 M-2.65 -6.2 L6.5 -6.2" fill="none" stroke="#0f0f0f" stroke-linecap="round" stroke-linejoin="round" stroke-width="1.0"/>
    <path d="M-4.45 -11.2 L-7.05 -11.05 Q-8.4 -9.45 -9.05 -10.4 -10.05 -11.75 -9.3 -13.3 L-9.05 -13.9 Q-8.55 -14.75 -9.25 -18.35 M0.6 -33.7 Q-5.25 -30.1 -5.75 -30.15 L-7.25 -30.05 Q-8.25 -29.95 -8.7 -28.95 L-9.1 -27.6 Q-10.65 -28.95 -10.2 -30.25 -9.8 -31.55 -8.4 -31.8 L-6.15 -31.9 Q-5.35 -31.75 -1.0 -34.9 M-7.05 -11.05 Q-7.4 -11.2 -7.6 -11.5 -8.6 -12.85 -7.85 -14.45 L-7.6 -15.05 Q-7.1 -15.9 -7.65 -17.75 M-5.7 -13.05 L-7.05 -11.05" fill="none" stroke="#080807" stroke-linecap="round" stroke-linejoin="round" stroke-opacity="0.8784314" stroke-width="1.0"/>
    <path d="M-2.65 -7.4 L-4.45 -9.7 -4.45 -11.2 -4.45 -11.85 M-2.65 -7.4 L-0.85 -7.4 -0.85 -10.1 Q-3.4 -9.2 -3.1 -11.85" fill="none" stroke="#474747" stroke-linecap="round" stroke-linejoin="round" stroke-width="1.0"/>
    <path d="M5.15 -24.75 L5.4 -24.55 4.75 -23.4 3.25 -23.65 2.9 -23.7 2.85 -23.7 1.4 -23.5 0.25 -22.8 -2.9 -22.25 -2.65 -23.5 -2.65 -24.1 0.6 -25.6 5.15 -24.75 M5.15 -6.75 L4.4 -5.8 3.05 -5.45 -2.65 -6.25 -2.35 -6.8 -2.4 -7.8 5.15 -6.75 M-8.95 -7.35 L-9.85 -7.5 -10.3 -7.85 Q-10.2 -10.45 -10.7 -13.45 L-11.05 -14.95 -12.4 -15.25 -12.4 -16.75 -12.15 -19.45 Q-12.55 -21.9 -11.25 -24.1 L-9.45 -26.9 -8.15 -28.15 Q-7.45 -28.9 -6.0 -28.8 -4.2 -28.6 -2.75 -26.4 L-4.1 -27.35 Q-6.5 -26.15 -7.8 -24.7 -9.85 -22.6 -10.0 -20.6 L-10.05 -19.9 -10.85 -18.45 Q-11.25 -17.4 -9.25 -19.95 -6.45 -23.6 -3.0 -21.15 L-3.7 -16.6 -8.7 -16.6 -9.5 -16.0 -9.3 -13.1 -8.95 -7.35 M-2.45 -11.05 L4.3 -9.7 5.15 -8.15 -2.5 -9.35 Q-2.15 -9.9 -2.45 -11.05 M-10.85 -18.45 Q-11.3 -18.3 -12.15 -19.45 -11.3 -18.3 -10.85 -18.45" fill="#1e1e1e" fill-rule="evenodd" stroke="none"/>
    <path d="M5.15 -8.15 L5.15 -6.75 -2.4 -7.8 -2.45 -9.1 -2.5 -9.35 -2.45 -9.1 -8.05 -9.1 -8.05 -11.15 -2.65 -11.15 -2.45 -11.05 Q-2.15 -9.9 -2.5 -9.35 L5.15 -8.15 M-2.8 -14.05 Q-2.15 -13.0 -2.6 -11.55 L-8.15 -11.45 -8.15 -13.1 -8.15 -14.0 -2.8 -14.05" fill="#232323" fill-rule="evenodd" stroke="none"/>
    <path d="M-2.65 -24.1 L-2.65 -23.5 -7.8 -24.7 Q-6.5 -26.15 -4.1 -27.35 L-2.75 -26.4 -2.65 -24.1" fill="#1c1c1c" fill-rule="evenodd" stroke="none"/>
    <path d="M-2.65 -23.5 L-2.9 -22.25 -3.0 -21.15 Q-6.45 -23.6 -9.25 -19.95 -11.25 -17.4 -10.85 -18.45 L-10.05 -19.9 -10.0 -20.6 Q-9.85 -22.6 -7.8 -24.7 L-2.65 -23.5 M-2.65 -6.25 L-3.2 -5.65 -7.75 -5.65 -8.9 -6.5 -8.95 -7.35 -9.3 -13.1 -8.15 -13.1 -8.15 -11.45 -2.6 -11.55 -2.65 -11.15 -8.05 -11.15 -8.05 -9.1 -2.45 -9.1 -2.4 -7.8 -2.35 -6.8 -2.65 -6.25 M-10.3 -7.85 L-13.0 -6.8 Q-14.1 -7.25 -14.6 -8.75 L-14.75 -10.2 Q-14.95 -12.1 -14.6 -14.25 -13.6 -15.35 -12.4 -15.25 L-11.05 -14.95 -10.7 -13.45 -12.45 -11.9 -12.95 -10.2 -14.75 -10.2 -12.95 -10.2 -12.45 -11.9 -10.7 -13.45 Q-10.2 -10.45 -10.3 -7.85" fill="#171717" fill-rule="evenodd" stroke="none"/>
    <path d="M-3.7 -16.6 L-3.0 -16.5 -2.8 -14.05 -8.15 -14.0 -8.15 -13.1 -9.3 -13.1 -9.5 -16.0 -8.7 -16.6 -3.7 -16.6 M-2.65 -11.15 L-2.5 -11.15 -2.45 -11.05 -2.65 -11.15" fill="#202020" fill-rule="evenodd" stroke="none"/>
    <path d="M5.15 -24.75 L0.6 -25.6 -2.65 -24.1 -2.65 -23.5 -2.9 -22.25 0.25 -22.8 1.4 -23.5 2.85 -23.7 2.9 -23.7 M3.25 -23.65 L4.75 -23.4 5.4 -24.55 M5.15 -6.75 L4.4 -5.8 3.05 -5.45 -2.65 -6.25 -3.2 -5.65 -7.75 -5.65 -8.9 -6.5 -8.95 -7.35 -9.85 -7.5 -10.3 -7.85 -13.0 -6.8 Q-14.1 -7.25 -14.6 -8.75 L-14.75 -10.2 Q-14.95 -12.1 -14.6 -14.25 -13.6 -15.35 -12.4 -15.25 L-12.4 -16.75 -12.15 -19.45 Q-12.55 -21.9 -11.25 -24.1 L-9.45 -26.9 -8.15 -28.15 Q-7.45 -28.9 -6.0 -28.8 -4.2 -28.6 -2.75 -26.4 L-2.65 -24.1 M5.15 -8.15 L5.15 -6.75 -2.4 -7.8 -2.35 -6.8 -2.65 -6.25 M-2.45 -11.05 L4.3 -9.7 5.15 -8.15 -2.5 -9.35 -2.45 -9.1 -2.4 -7.8 M-7.8 -24.7 Q-6.5 -26.15 -4.1 -27.35 L-2.75 -26.4 M-2.9 -22.25 L-3.0 -21.15 -3.7 -16.6 -3.0 -16.5 -2.8 -14.05 Q-2.15 -13.0 -2.6 -11.55 L-2.65 -11.15 -2.5 -11.15 -2.45 -11.05 -2.65 -11.15 -8.05 -11.15 -8.05 -9.1 -2.45 -9.1 M-10.85 -18.45 L-10.05 -19.9 -10.0 -20.6 Q-9.85 -22.6 -7.8 -24.7 L-2.65 -23.5 M-3.7 -16.6 L-8.7 -16.6 -9.5 -16.0 -9.3 -13.1 -8.95 -7.35 M-8.15 -13.1 L-8.15 -14.0 -2.8 -14.05 M-12.15 -19.45 Q-11.3 -18.3 -10.85 -18.45 M-10.7 -13.45 L-11.05 -14.95 -12.4 -15.25 M-14.75 -10.2 L-12.95 -10.2 -12.45 -11.9 -10.7 -13.45 Q-10.2 -10.45 -10.3 -7.85 M-2.5 -9.35 Q-2.15 -9.9 -2.45 -11.05 M-2.6 -11.55 L-8.15 -11.45 -8.15 -13.1" fill="none" stroke="#070707" stroke-linecap="round" stroke-linejoin="round" stroke-width="1.0"/>
    <path d="M5.95 -17.4 L7.85 -14.8 6.25 -5.35 Q4.55 -4.4 2.2 -5.8 L1.5 -11.75 3.35 -16.2 5.95 -17.4" fill="url(#gradient3)" fill-rule="evenodd" stroke="none"/>
    <path d="M7.85 -14.8 Q8.85 -15.35 9.95 -17.25 11.05 -19.15 10.35 -21.3 9.6 -23.55 6.65 -25.05 L4.55 -21.8 6.55 -19.3 5.95 -17.4 7.85 -14.8 6.25 -5.35 Q4.55 -4.4 2.2 -5.8 L1.5 -11.75 3.35 -16.2 5.95 -17.4" fill="none" stroke="#022e33" stroke-linecap="round" stroke-linejoin="round" stroke-width="1.0"/>
  </g>
  <defs>
    <radialGradient cx="0" cy="0" gradientTransform="matrix(0.008, 0.0, 0.0, 0.0087, 10.1, -21.25)" gradientUnits="userSpaceOnUse" id="gradient0" r="819.2" spreadMethod="pad">
      <stop offset="0.0" stop-color="#e8c06f"/>
      <stop offset="1.0" stop-color="#02b1c3"/>
      <stop offset="1.0" stop-color="#2c1b38"/>
    </radialGradient>
    <radialGradient cx="0" cy="0" gradientTransform="matrix(0.0072, 0.0, 0.0, 0.0078, -4.85, -14.45)" gradientUnits="userSpaceOnUse" id="gradient1" r="819.2" spreadMethod="pad">
      <stop offset="0.0" stop-color="#cccccc"/>
      <stop offset="1.0" stop-color="#3c3c3c"/>
      <stop offset="1.0" stop-color="#666666"/>
      <stop offset="1.0" stop-color="#666666"/>
    </radialGradient>
    <radialGradient cx="0" cy="0" gradientTransform="matrix(0.0053, 0.0, 0.0, 0.0058, -4.65, -9.85)" gradientUnits="userSpaceOnUse" id="gradient2" r="819.2" spreadMethod="pad">
      <stop offset="0.0" stop-color="#cccccc"/>
      <stop offset="1.0" stop-color="#3c3c3c"/>
      <stop offset="1.0" stop-color="#666666"/>
      <stop offset="1.0" stop-color="#666666"/>
    </radialGradient>
    <linearGradient gradientTransform="matrix(0.0039, 0.0, 0.0, 0.0076, 4.65, -11.2)" gradientUnits="userSpaceOnUse" id="gradient3" spreadMethod="pad" x1="-819.2" x2="819.2">
      <stop offset="0.0" stop-color="#e8c06f"/>
      <stop offset="1.0" stop-color="#02b1c3"/>
      <stop offset="1.0" stop-color="#2c1b38"/>
    </linearGradient>
  </defs>
</svg>
