<?xml version="1.0" encoding="UTF-8" standalone="no"?>
<svg xmlns:ffdec="https://www.free-decompiler.com/flash" xmlns:xlink="http://www.w3.org/1999/xlink" ffdec:objectType="shape" height="11.15px" width="12.65px" xmlns="http://www.w3.org/2000/svg">
  <g transform="matrix(1.0, 0.0, 0.0, 1.0, 11.4, 18.25)">
    <path d="M-1.7 -11.95 L-1.7 -10.45 -1.25 -8.5 -2.6 -8.35 -8.65 -8.75 Q-9.15 -10.05 -8.95 -11.75 L-2.6 -12.1 -1.7 -11.95" fill="#191919" fill-rule="evenodd" stroke="none"/>
    <path d="M-1.25 -8.5 L-2.6 -8.35 -8.65 -8.75 Q-9.15 -10.05 -8.95 -11.75 L-2.6 -12.1 -1.7 -11.95" fill="none" stroke="#111111" stroke-linecap="round" stroke-linejoin="round" stroke-width="1.0"/>
    <path d="M0.1 -15.1 Q0.15 -14.6 0.3 -14.6 L0.95 -14.6 1.1 -14.6 1.1 -13.3 0.95 -13.4 1.15 -12.35 1.1 -12.2 0.8 -11.8 Q0.45 -11.6 0.7 -10.7 0.95 -9.85 0.65 -9.35 0.35 -8.85 0.65 -8.65 L0.25 -8.45 -0.35 -7.9 -1.05 -7.95 -1.55 -8.3 Q-2.05 -9.6 -2.1 -11.0 L-2.1 -12.2 -2.2 -12.2 -3.5 -12.2 -5.05 -12.2 -9.3 -12.2 -10.65 -12.2 -10.65 -14.45 -10.55 -14.55 -10.1 -14.55 -10.0 -14.55 -9.65 -14.55 Q-9.45 -14.6 -9.25 -14.8 -9.55 -15.4 -9.45 -16.35 L-9.4 -16.6 Q-7.8 -17.15 -5.7 -16.6 L-1.75 -16.6 Q0.6 -16.45 0.1 -15.1 M-5.9 -14.55 L-5.9 -14.9 Q-5.65 -15.85 -5.7 -16.6 -5.65 -15.85 -5.9 -14.9 L-5.9 -14.55 M-9.3 -12.85 L-9.3 -12.2 -9.3 -12.85 M-10.65 -11.0 L-9.35 -11.2 -5.0 -11.0 -5.0 -8.35 -5.0 -11.0 -3.5 -11.3 Q-2.8 -11.35 -2.2 -11.0 L-2.2 -8.35 -2.35 -8.45 -2.45 -8.2 Q-2.35 -7.9 -3.05 -7.9 L-4.9 -7.45 Q-6.05 -7.0 -5.05 -7.7 -4.1 -8.45 -5.0 -8.35 L-6.15 -7.75 Q-7.1 -7.2 -7.9 -9.0 L-7.9 -8.5 -8.65 -8.2 Q-8.95 -7.65 -9.4 -7.95 L-10.15 -8.25 -10.65 -8.3 -10.65 -11.0 M-3.5 -12.8 L-3.5 -12.2 -3.5 -12.8 M-0.6 -11.85 L-2.1 -12.2 -0.6 -11.85 -0.6 -12.65 -0.6 -11.85 -0.6 -11.35 -0.6 -11.85 0.7 -12.2 -0.6 -11.85 M-7.85 -9.65 L-7.9 -10.25 -7.9 -10.05 -7.9 -9.6 -7.85 -9.65" fill="#232323" fill-rule="evenodd" stroke="none"/>
    <path d="M-9.4 -16.6 L-9.25 -17.45 Q-7.6 -18.05 -5.95 -17.45 L-5.7 -16.6 Q-7.8 -17.15 -9.4 -16.6 M-10.65 -12.2 L-9.3 -12.2 -9.35 -11.2 -9.3 -12.2 -5.05 -12.2 -3.5 -12.2 -2.2 -12.2 -2.2 -11.0 Q-2.8 -11.35 -3.5 -11.3 L-3.5 -12.2 -3.5 -11.3 -5.0 -11.0 -9.35 -11.2 -10.65 -11.0 -10.65 -12.2 M-5.0 -11.0 L-5.05 -12.2 -5.0 -11.0" fill="#141414" fill-rule="evenodd" stroke="none"/>
    <path d="M0.1 -15.1 Q0.6 -16.45 -1.75 -16.6 L-5.7 -16.6 Q-5.65 -15.85 -5.9 -14.9 L-5.9 -14.55 M-9.4 -16.6 L-9.25 -17.45 Q-7.6 -18.05 -5.95 -17.45 L-5.7 -16.6 M-9.4 -16.6 L-9.45 -16.35 Q-9.55 -15.4 -9.25 -14.8 M-10.65 -12.2 L-9.3 -12.2 -5.05 -12.2 -3.5 -12.2 -2.2 -12.2 -2.1 -12.2 -0.6 -11.85 0.7 -12.2 M-5.0 -8.35 L-5.0 -11.0 -5.05 -12.2" fill="none" stroke="#0f0f0f" stroke-linecap="round" stroke-linejoin="round" stroke-width="1.0"/>
    <path d="M-9.3 -12.2 L-9.3 -12.85 M-9.35 -11.2 L-9.3 -12.2 M-3.5 -12.2 L-3.5 -12.8 M-0.6 -11.85 L-0.6 -12.65 M-3.5 -12.2 L-3.5 -11.3 M-0.6 -11.85 L-0.6 -11.35" fill="none" stroke="#323333" stroke-linecap="round" stroke-linejoin="round" stroke-width="1.0"/>
    <path d="M-2.2 -11.0 L-2.1 -11.0" fill="none" stroke="#0f0f0f" stroke-linecap="round" stroke-linejoin="round" stroke-width="0.30000000000000004"/>
    <path d="M0.7 -13.95 L0.6 -13.5 0.55 -14.05 0.6 -14.05 0.7 -14.0 0.6 -14.05 0.65 -14.05 0.7 -14.0 0.7 -13.95 M-1.75 -14.2 L-1.9 -14.05 -1.95 -14.0 -2.05 -13.95 -2.0 -13.9 -1.95 -13.8 -1.95 -13.35 -2.1 -13.35 -2.2 -13.35 -2.3 -14.35 -2.2 -14.35 -2.05 -14.2 -2.0 -14.5 -1.9 -14.55 -1.85 -14.55 -1.75 -14.2 M-2.1 -12.15 L-1.95 -12.2 -1.9 -12.0 -1.9 -11.65 -2.1 -11.55 -2.1 -12.15 -2.1 -11.55 -2.2 -11.55 -2.2 -12.15 -2.1 -12.15 M-2.1 -10.8 L-1.85 -10.8 -1.9 -10.75 -2.1 -10.75 -2.1 -10.8 -2.1 -10.75 -2.2 -10.75 -2.1 -10.65 -1.9 -10.45 -2.05 -10.4 -2.1 -10.65 -2.05 -10.4 -2.2 -10.4 -2.2 -10.75 -2.2 -10.8 -2.1 -10.8 M-1.55 -7.8 L-1.55 -8.15 -1.3 -8.25 -1.3 -7.8 -1.45 -7.8 -1.55 -7.8 M0.6 -10.45 L0.6 -10.85 0.85 -10.95 0.85 -10.6 0.6 -10.45 M-8.4 -14.2 L-8.3 -14.55 -8.25 -14.55 -8.15 -14.5 -8.15 -14.2 -8.05 -14.25 -8.05 -14.05 -7.8 -14.15 -7.7 -14.0 -7.55 -14.35 -7.3 -14.35 -7.1 -14.0 -7.65 -13.8 -7.75 -13.7 -7.75 -13.5 -7.95 -13.5 -8.05 -14.05 -8.05 -13.35 -8.2 -13.35 -8.2 -13.8 -8.15 -13.95 -8.25 -14.05 -8.4 -14.2 M-10.2 -14.5 L-10.05 -14.55 -10.05 -14.4 -10.2 -14.5 M-6.85 -7.75 L-6.85 -7.95 -6.25 -8.1 -6.15 -7.75 -6.4 -7.75 Q-6.65 -7.6 -6.85 -7.75 M-3.55 -14.35 L-3.6 -14.4 -3.35 -14.35 -3.55 -14.35 M-0.1 -14.4 L-0.1 -14.55 0.05 -14.5 -0.1 -14.4 M-2.0 -13.9 L-2.1 -13.35 -2.0 -13.9 M-10.85 -13.95 L-10.85 -14.0 -10.8 -14.05 -10.75 -14.05 -10.7 -14.05 -10.75 -13.5 -10.85 -13.95 M-10.75 -10.85 L-10.75 -10.45 -11.0 -10.6 -10.95 -10.95 -10.75 -10.85 M-8.9 -7.8 L-8.9 -8.25 -8.55 -8.15 -8.55 -7.95 -8.55 -7.8 -8.7 -7.8 -8.9 -7.8 M-8.15 -10.4 L-8.25 -10.45 -8.05 -10.65 -8.15 -10.4 -8.05 -10.65 -8.05 -10.4 -8.15 -10.4 M-8.05 -10.75 L-8.25 -10.75 -8.3 -10.8 -8.05 -10.8 -8.05 -10.75 M-8.05 -11.55 L-8.25 -11.65 -8.25 -12.0 -8.2 -12.2 -8.05 -12.15 -8.05 -11.55 M-10.75 -14.05 L-10.85 -14.0 -10.75 -14.05" fill="#272727" fill-rule="evenodd" stroke="none"/>
    <path d="M-2.1 -13.05 L-2.1 -12.9 -2.2 -12.9 -2.2 -13.05 -2.1 -13.05 M-2.1 -12.7 L-2.05 -12.7 -2.05 -12.55 -2.1 -12.55 -2.1 -12.7 -2.1 -12.55 -2.2 -12.65 -2.2 -12.7 -2.1 -12.7 M0.6 -10.85 L0.5 -10.85 0.45 -11.65 0.6 -11.65 0.6 -10.85 M-8.05 -12.7 L-8.05 -12.55 -8.15 -12.55 -8.15 -12.7 -8.05 -12.7 M-7.75 -13.5 L-7.8 -12.75 -7.95 -12.75 -7.75 -13.5 M-10.75 -11.65 L-10.6 -11.65 -10.7 -10.85 -10.75 -10.85 -10.75 -11.65" fill="#222222" fill-rule="evenodd" stroke="none"/>
    <path d="M-0.55 -7.75 L-0.4 -7.8 -0.3 -7.8 -0.4 -7.75 -0.55 -7.75 M0.35 -8.0 L0.4 -8.0 0.4 -7.95 0.35 -8.0 M-4.75 -7.6 L-4.3 -7.75 -4.0 -7.75 -4.3 -7.6 -4.75 -7.55 -4.75 -7.6 M-10.6 -8.0 L-10.55 -8.0 -10.6 -7.95 -10.6 -8.0 M-9.9 -7.8 L-9.8 -7.8 -9.55 -7.75 -9.8 -7.75 -9.9 -7.8 M-8.55 -7.95 L-8.5 -8.0 -8.5 -7.95 -8.55 -7.95 M-0.4 -7.75 L-0.4 -7.8 -0.4 -7.75 M-4.3 -7.6 L-4.3 -7.75 -4.3 -7.6 M-9.8 -7.75 L-9.8 -7.8 -9.8 -7.75" fill="#111111" fill-rule="evenodd" stroke="none"/>
    <path d="M-1.45 -14.2 L-1.75 -14.05 -1.75 -14.2 -1.5 -14.25 -1.45 -14.2 M-0.3 -7.8 L0.35 -8.0 0.05 -7.8 -0.3 -7.8 M-8.7 -14.2 L-8.65 -14.25 -8.4 -14.2 -8.4 -14.05 -8.7 -14.2 M-7.1 -14.0 L-6.6 -14.05 -7.1 -13.95 -7.1 -14.0 M-4.0 -7.75 L-2.7 -7.8 -3.5 -7.75 -4.0 -7.75 M-10.55 -8.0 L-9.9 -7.8 -10.2 -7.8 -10.55 -8.0" fill="#151515" fill-rule="evenodd" stroke="none"/>
    <path d="M-2.2 -11.1 L-2.4 -11.0 -2.4 -11.15 -2.2 -11.15 -2.2 -11.1" fill="#111111" fill-opacity="0.49803922" fill-rule="evenodd" stroke="none"/>
    <path d="M-2.1 -11.55 L-2.1 -10.8 -2.2 -10.8 -2.2 -11.1 -2.2 -11.15 -2.2 -11.55 -2.1 -11.55" fill="#121212" fill-opacity="0.49803922" fill-rule="evenodd" stroke="none"/>
    <path d="M0.6 -14.05 Q0.35 -14.35 -0.1 -14.25 L-1.45 -14.2 -1.5 -14.25 -1.75 -14.2 -1.9 -14.05 -1.95 -14.0 -2.0 -13.9 -2.1 -13.35 -2.1 -13.05 -2.1 -12.9 -2.1 -12.7 -2.1 -12.55 -2.1 -12.15 -2.1 -11.55 -2.1 -10.8 -2.1 -10.75 -2.1 -10.65 -2.05 -10.4 -1.95 -8.25 -1.9 -8.1 -1.55 -7.8 -1.45 -7.8 -1.3 -7.8 -0.55 -7.75 -0.4 -7.8 -0.3 -7.8 0.05 -7.8 0.35 -8.0 0.4 -8.0 0.65 -9.0 0.6 -10.45 0.6 -10.85 0.6 -11.65 Q0.85 -12.2 0.7 -13.95 L0.7 -14.0 0.6 -14.05 M-8.7 -14.2 L-8.65 -14.25 -8.4 -14.2 -8.25 -14.05 -8.15 -13.95 M-7.1 -14.0 L-6.6 -14.05 -3.6 -14.15 Q-2.35 -14.2 -2.2 -13.05 M-7.75 -13.5 L-7.75 -13.7 -7.65 -13.8 -7.1 -14.0 M-8.05 -12.7 L-8.05 -13.35 M-7.75 -13.5 L-7.95 -12.75 -7.95 -10.95 M-7.95 -10.85 L-7.95 -8.9 -7.65 -8.1 Q-7.4 -7.75 -6.85 -7.75 -6.65 -7.6 -6.4 -7.75 L-6.15 -7.75 -4.75 -7.6 -4.3 -7.75 -4.0 -7.75 -3.5 -7.75 -2.7 -7.8 -2.65 -7.8 -2.2 -8.4 -2.2 -8.9 -2.2 -8.95 -2.2 -9.3 -2.2 -10.4 -2.2 -10.75 -2.2 -10.8 -2.2 -11.1 M-10.75 -14.05 Q-10.5 -14.35 -10.05 -14.25 L-8.7 -14.2 M-2.05 -13.95 L-1.95 -14.0 M-10.85 -13.95 L-10.85 -14.0 -10.75 -14.05 M-10.85 -13.95 L-10.75 -11.65 -10.75 -10.85 -10.75 -10.45 -10.8 -9.0 -10.6 -8.0 -10.55 -8.0 -10.2 -7.8 -9.9 -7.8 -9.8 -7.8 -9.55 -7.75 -8.9 -7.8 -8.7 -7.8 -8.55 -7.8 -8.25 -8.1 -8.2 -8.25 -8.15 -10.4 -8.05 -10.65 -8.05 -10.75 -8.05 -10.8 -8.05 -11.55 M-8.05 -12.15 L-8.05 -12.55" fill="none" stroke="#0f0f0f" stroke-linecap="round" stroke-linejoin="round" stroke-width="1.0"/>
    <path d="M-2.2 -11.15 L-2.2 -11.55 -2.2 -12.15 -2.2 -12.65 -2.2 -12.7 -2.2 -12.9 -2.2 -13.05" fill="none" stroke="#121212" stroke-linecap="round" stroke-linejoin="round" stroke-width="1.0"/>
    <path d="M-7.95 -10.95 L-7.95 -10.85 M-2.2 -11.15 L-2.2 -11.1 M-4.3 -7.75 L-4.3 -7.6 M-0.4 -7.8 L-0.4 -7.75 M-9.8 -7.8 L-9.8 -7.75" fill="none" stroke="#111111" stroke-linecap="round" stroke-linejoin="round" stroke-width="1.0"/>
  </g>
</svg>
