<?xml version="1.0" encoding="UTF-8" standalone="no"?>
<svg xmlns:xlink="http://www.w3.org/1999/xlink" height="6.2px" width="24.1px" xmlns="http://www.w3.org/2000/svg">
  <g transform="matrix(1.0, 0.0, 0.0, 1.0, -7.45, 0.05)">
    <path d="M30.1 5.25 Q29.55 5.65 28.8 5.65 28.05 5.65 27.5 5.25 L27.2 5.0 Q26.55 4.35 26.55 3.4 26.55 2.45 27.2 1.8 27.85 1.15 28.8 1.15 29.65 1.15 30.3 1.7 L30.4 1.8 Q31.05 2.45 31.05 3.4 L31.05 3.55 Q31.0 4.4 30.4 5.0 L30.1 5.25 M30.3 1.7 L27.5 5.25 30.3 1.7" fill="#666666" fill-rule="evenodd" stroke="none"/>
    <path d="M7.95 2.8 L7.95 2.7 Q7.95 1.75 8.6 1.1 L8.9 0.85 Q9.45 0.45 10.2 0.45 11.15 0.45 11.8 1.1 12.45 1.75 12.45 2.7 L12.25 3.65 11.8 4.3 11.5 4.55 Q10.95 4.95 10.2 4.95 L9.1 4.7 8.6 4.3 8.15 3.65 7.95 2.8 M8.9 0.85 L11.5 4.55 8.9 0.85" fill="#383838" fill-rule="evenodd" stroke="none"/>
    <path d="M7.95 2.8 L7.95 2.7 Q7.95 1.75 8.6 1.1 L8.9 0.85 Q9.45 0.45 10.2 0.45 11.15 0.45 11.8 1.1 12.45 1.75 12.45 2.7 L12.25 3.65 M11.5 4.55 L8.9 0.85" fill="none" stroke="#242424" stroke-linecap="round" stroke-linejoin="round" stroke-width="1.0"/>
    <path d="M30.1 5.25 Q29.55 5.65 28.8 5.65 28.05 5.65 27.5 5.25 L27.2 5.0 Q26.55 4.35 26.55 3.4 26.55 2.45 27.2 1.8 27.85 1.15 28.8 1.15 29.65 1.15 30.3 1.7 L30.4 1.8 Q31.05 2.45 31.05 3.4 L31.05 3.55 M27.5 5.25 L30.3 1.7" fill="none" stroke="#383838" stroke-linecap="round" stroke-linejoin="round" stroke-width="1.0"/>
    <path d="M12.25 3.65 L11.8 4.3 11.5 4.55 Q10.95 4.95 10.2 4.95 L9.1 4.7 8.6 4.3 8.15 3.65 7.95 2.8" fill="none" stroke="#121212" stroke-linecap="round" stroke-linejoin="round" stroke-width="1.0"/>
    <path d="M31.05 3.55 Q31.0 4.4 30.4 5.0 L30.1 5.25" fill="none" stroke="#2e2e2e" stroke-linecap="round" stroke-linejoin="round" stroke-width="1.0"/>
  </g>
</svg>
