<?xml version="1.0" encoding="UTF-8" standalone="no"?>
<svg xmlns:ffdec="https://www.free-decompiler.com/flash" xmlns:xlink="http://www.w3.org/1999/xlink" ffdec:objectType="shape" height="28.8px" width="25.55px" xmlns="http://www.w3.org/2000/svg">
  <g transform="matrix(1.0, 0.0, 0.0, 1.0, -5.15, -8.8)">
    <path d="M27.55 15.0 L28.15 15.5 28.3 16.05 26.75 17.3 24.3 17.65 23.8 18.3 25.55 20.35 28.85 22.05 29.15 22.2 28.85 22.05 29.15 22.1 29.15 22.2 29.05 23.7 28.95 24.2 27.6 25.8 24.45 26.15 24.05 27.5 23.25 27.65 21.95 24.15 23.25 27.65 22.95 27.65 21.95 24.15 23.85 20.6 22.55 19.25 20.25 19.4 20.25 21.5 21.5 22.1 21.85 23.6 21.4 22.1 20.2 21.5 20.2 17.05 17.95 16.9 17.95 15.05 24.5 13.2 25.1 13.05 27.55 15.0 M22.8 16.55 L22.55 15.75 22.8 16.55 M25.1 15.7 L24.7 14.85 25.1 15.7 M22.1 16.85 L21.75 16.0 22.1 16.85 M24.2 15.95 L23.95 15.1 24.2 15.95 M23.55 16.25 L23.15 15.4 23.55 16.25 M27.55 23.5 L26.9 24.55 24.55 24.85 26.9 24.55 27.55 23.5 M10.4 9.35 L10.5 9.15 10.7 9.25 10.4 9.35 M8.0 22.35 L8.25 22.35 10.15 17.3 8.85 22.3 10.15 17.3 11.35 17.55 13.7 17.15 13.6 15.3 14.85 25.0 14.5 25.55 Q13.85 25.1 12.5 25.55 L12.15 25.55 11.9 25.7 12.15 25.55 12.5 25.55 11.9 25.7 11.5 25.95 9.05 27.2 9.0 27.0 12.15 25.55 11.55 22.3 8.85 22.3 8.25 22.35 8.85 22.3 8.35 22.85 8.25 22.9 8.35 23.75 8.0 22.4 8.0 22.35 M8.35 22.85 L8.25 22.35 8.35 22.85 M8.25 22.35 L8.0 22.4 8.25 22.35 M13.2 23.6 L12.65 20.65 11.4 20.75 12.65 20.65 13.2 23.6" fill="#3b3b5d" fill-rule="evenodd" stroke="none"/>
    <path d="M27.55 15.0 L25.1 13.05 24.5 13.2 17.95 15.05 17.95 16.9 17.65 16.85 17.95 15.05 17.65 16.85 17.65 16.9 17.9 18.15 17.8 23.55 17.6 19.15 17.65 16.9 17.6 19.15 17.8 23.55 21.9 24.15 21.95 24.15 22.95 27.65 18.15 28.4 16.95 32.0 15.65 32.1 14.55 32.15 14.2 32.2 12.95 32.3 12.55 31.95 12.55 31.3 13.25 31.25 Q14.0 31.4 14.5 30.05 15.4 28.4 14.95 26.4 L14.85 26.05 14.55 25.65 14.5 25.55 14.85 25.0 13.6 15.3 15.95 13.6 14.95 12.55 14.85 12.4 14.8 11.7 Q18.95 11.55 24.5 12.75 26.65 13.25 27.55 15.0 M24.5 13.2 Q20.55 12.05 18.0 12.1 L14.95 12.55 18.0 12.1 Q20.55 12.05 24.5 13.2 M14.55 25.65 L14.85 25.0 14.55 25.65 M17.05 31.95 L19.0 31.7 18.95 31.85 18.95 31.9 17.05 31.95 18.95 31.85 17.05 31.95 M12.65 34.4 L12.7 34.5 12.65 34.5 12.7 34.5 12.85 34.6 12.95 34.6 14.15 34.7 14.3 34.7 14.35 34.7 14.5 34.7 14.9 34.7 24.25 34.5 14.9 34.7 24.35 34.25 24.25 34.5 24.9 35.0 25.1 35.7 24.8 35.85 24.6 36.0 Q22.1 37.4 17.5 37.2 13.1 36.9 12.65 34.5 L12.65 34.4 M12.95 34.6 Q14.5 36.5 18.75 36.35 L24.8 35.85 18.75 36.35 Q14.5 36.5 12.95 34.6" fill="#32323d" fill-rule="evenodd" stroke="none"/>
    <path d="M28.85 22.05 L25.55 20.35 23.8 18.3 24.3 17.65 26.75 17.3 28.3 16.05 28.7 15.75 29.5 16.8 29.95 17.7 30.2 20.85 29.85 22.4 29.15 22.1 28.85 22.05" fill="#4f4f78" fill-rule="evenodd" stroke="none"/>
    <path d="M21.85 23.6 L21.5 22.1 20.25 21.5 20.25 19.4 22.55 19.25 23.85 20.6 21.95 24.15 21.9 24.15 21.85 23.6" fill="#4c4c73" fill-rule="evenodd" stroke="none"/>
    <path d="M17.95 16.9 L20.2 17.05 20.2 21.5 21.4 22.1 21.85 23.6 21.9 24.15 17.8 23.55 17.9 18.15 17.65 16.9 17.65 16.85 17.95 16.9" fill="#34344f" fill-rule="evenodd" stroke="none"/>
    <path d="M14.8 11.7 L14.85 12.4 14.7 12.4 10.7 13.3 10.3 15.5 6.55 15.75 10.3 15.5 10.7 13.3 10.15 17.3 8.25 22.35 8.0 22.35 Q6.65 21.65 6.5 19.1 L6.55 15.75 6.45 14.35 5.65 11.7 7.25 10.6 Q8.6 9.8 9.7 9.45 L12.8 9.4 13.15 9.45 13.3 9.5 13.35 9.55 13.6 9.6 14.15 9.8 14.25 9.8 14.8 10.0 14.8 11.7 M10.7 9.25 L10.75 9.25 13.15 9.45 12.8 9.4 9.7 9.45 10.4 9.35 10.7 9.25 M11.35 10.55 L11.05 10.6 10.8 10.7 Q10.55 11.0 10.6 11.25 10.5 11.6 10.85 11.75 L11.45 11.9 Q11.9 11.8 11.9 11.15 L11.7 10.8 11.35 10.55 M8.65 11.45 L8.3 11.55 7.85 11.8 Q7.5 12.1 7.5 12.5 7.55 13.1 7.9 13.35 8.3 13.75 8.8 13.65 9.5 13.4 9.55 12.45 L9.2 11.9 8.65 11.45 M10.3 15.5 L10.15 17.3 10.3 15.5" fill="#536172" fill-rule="evenodd" stroke="none"/>
    <path d="M14.85 12.4 L14.95 12.55 14.7 12.4 14.95 12.55 15.95 13.6 13.6 15.3 13.7 17.15 11.35 17.55 10.15 17.3 10.7 13.3 14.7 12.4 14.85 12.4" fill="#242b32" fill-rule="evenodd" stroke="none"/>
    <path d="M11.35 10.55 L11.7 10.8 11.9 11.15 Q11.9 11.8 11.45 11.9 L10.85 11.75 Q10.5 11.6 10.6 11.25 10.55 11.0 10.8 10.7 L11.05 10.6 11.35 10.55 M8.65 11.45 L9.2 11.9 9.55 12.45 Q9.5 13.4 8.8 13.65 8.3 13.75 7.9 13.35 7.55 13.1 7.5 12.5 7.5 12.1 7.85 11.8 L8.3 11.55 8.65 11.45" fill="#00cff9" fill-rule="evenodd" stroke="none"/>
    <path d="M8.35 22.85 L8.85 22.3 11.55 22.3 12.15 25.55 9.0 27.0 8.65 27.05 8.35 23.75 8.25 22.9 8.35 22.85" fill="#191926" fill-opacity="0.52156866" fill-rule="evenodd" stroke="none"/>
    <path d="M14.55 25.65 L14.85 26.05 14.95 26.4 Q15.4 28.4 14.5 30.05 14.0 31.4 13.25 31.25 L12.55 31.3 12.45 31.3 11.8 31.25 11.65 31.1 9.95 30.3 11.65 31.1 11.8 31.25 11.35 31.2 Q10.35 30.95 9.95 30.3 L9.6 29.45 9.45 28.9 9.05 27.2 11.5 25.95 11.9 25.7 12.5 25.55 13.25 25.65 Q14.1 25.85 14.25 25.45 L14.1 26.05 14.25 25.45 Q14.1 25.85 13.25 25.65 L12.5 25.55 Q13.85 25.1 14.5 25.55 L14.55 25.65 14.1 26.05 14.55 25.65 M14.85 26.05 Q14.75 28.7 14.05 29.95 13.55 30.75 12.45 31.3 13.55 30.75 14.05 29.95 14.75 28.7 14.85 26.05" fill="#242531" fill-rule="evenodd" stroke="none"/>
    <path d="M14.55 32.15 L15.65 32.1 14.9 32.15 14.55 32.15 M15.4 33.55 L15.7 33.3 16.8 33.05 16.8 33.4 15.4 33.55 16.8 33.4 16.8 33.05 16.95 33.0 16.95 32.0 17.05 31.95 18.95 31.9 18.95 31.85 19.0 31.7 20.25 31.55 20.25 31.7 24.6 30.95 25.3 32.9 25.3 32.95 24.95 32.8 24.35 34.25 14.9 34.7 14.5 34.7 14.35 34.7 14.3 34.7 14.45 34.55 14.65 34.25 14.75 34.0 14.9 33.9 15.4 33.55 M14.9 33.9 L14.65 34.25 14.9 33.9 M14.45 34.55 L14.35 34.7 14.45 34.55 M24.6 30.95 Q24.5 31.65 24.85 32.5 L25.3 32.9 24.85 32.5 Q24.5 31.65 24.6 30.95 M18.95 31.85 L20.25 31.7 18.95 31.85" fill="#515151" fill-rule="evenodd" stroke="none"/>
    <path d="M12.55 31.95 L12.95 32.3 14.2 32.2 14.55 32.15 14.9 32.15 14.2 32.2 14.9 32.15 15.65 32.1 16.95 32.0 16.8 33.05 16.95 32.0 16.95 33.0 16.8 33.05 15.7 33.3 15.4 33.55 14.9 33.9 14.75 34.0 14.65 34.25 14.45 34.55 14.3 34.7 14.15 34.7 12.8 34.5 12.7 34.5 12.8 34.5 14.15 34.7 12.95 34.6 12.85 34.6 12.7 34.5 12.65 34.4 12.5 34.4 12.5 31.85 12.55 31.95 M15.4 33.55 L15.15 33.5 14.9 33.9 15.15 33.5 15.4 33.55 M14.05 33.5 L13.45 33.45 14.05 33.5 M12.8 34.5 L12.95 34.6 12.8 34.5 M25.3 32.95 L25.95 33.3 26.3 33.3 26.45 33.25 26.5 33.05 26.55 33.25 26.65 34.55 26.4 36.55 25.45 37.1 25.1 35.7 24.9 35.0 24.25 34.5 24.35 34.25 24.95 32.8 25.3 32.95" fill="#272727" fill-rule="evenodd" stroke="none"/>
    <path d="M23.25 27.65 L24.05 27.5 24.45 26.15 27.6 25.8 27.6 27.3 26.7 27.45 25.8 27.6 24.8 29.15 20.8 29.75 20.25 31.55 19.0 31.7 17.05 31.95 16.95 32.0 18.15 28.4 22.95 27.65 23.25 27.65 M24.05 27.5 L24.9 26.25 27.6 25.8 24.9 26.25 24.05 27.5" fill="#7e8383" fill-rule="evenodd" stroke="none"/>
    <path d="M20.25 31.55 L20.8 29.75 24.8 29.15 25.8 27.6 24.95 29.9 24.95 29.95 24.6 30.95 20.25 31.7 20.25 31.55" fill="#484848" fill-rule="evenodd" stroke="none"/>
    <path d="M26.95 28.85 L26.8 28.65 26.95 28.85 27.35 30.65 27.4 31.0 Q27.65 32.55 27.25 33.15 L26.55 33.25 26.5 33.05 26.45 33.25 25.95 33.3 25.3 32.95 25.3 32.9 24.6 30.95 24.95 29.95 25.1 29.9 Q26.2 29.65 26.8 28.65 26.2 29.65 25.1 29.9 L26.8 28.65 26.8 28.15 26.95 28.85 M26.5 33.05 L25.95 33.3 26.5 33.05 Q27.3 33.25 27.4 31.3 L27.4 31.0 27.4 31.3 Q27.3 33.25 26.5 33.05 M26.05 30.8 L26.9 30.65 26.05 30.8 M26.2 32.0 L27.1 31.75 26.2 32.0" fill="#b2b2b2" fill-rule="evenodd" stroke="none"/>
    <path d="M25.8 27.6 L26.7 27.45 26.8 27.7 26.8 27.75 26.8 28.1 26.8 28.15 26.8 28.65 25.1 29.9 24.95 29.95 24.95 29.9 25.8 27.6" fill="#06d0ec" fill-rule="evenodd" stroke="none"/>
    <path d="M28.3 16.05 L28.15 15.5 27.55 15.0 25.1 13.05 24.5 13.2 M27.6 25.8 L28.95 24.2 29.05 23.7 29.15 22.2 29.15 22.1" fill="none" stroke="#20202c" stroke-linecap="round" stroke-linejoin="round" stroke-width="1.0"/>
    <path d="M29.15 22.2 L28.85 22.05 25.55 20.35 23.8 18.3 24.3 17.65 26.75 17.3 28.3 16.05 28.7 15.75 M29.2 22.25 L29.15 22.2" fill="none" stroke="#2f2f48" stroke-linecap="round" stroke-linejoin="round" stroke-width="1.0"/>
    <path d="M21.75 16.0 L22.1 16.85 M24.7 14.85 L25.1 15.7 M23.15 15.4 L23.55 16.25" fill="none" stroke="#1d1d2d" stroke-linecap="round" stroke-linejoin="round" stroke-width="1.0"/>
    <path d="M21.85 23.6 L21.5 22.1 20.25 21.5 20.25 19.4 22.55 19.25 23.85 20.6 21.95 24.15 M21.9 24.15 L21.85 23.6 M13.6 15.3 L14.85 25.0 14.55 25.65 14.1 26.05" fill="none" stroke="#212132" stroke-linecap="round" stroke-linejoin="round" stroke-width="1.0"/>
    <path d="M17.95 16.9 L20.2 17.05 20.2 21.5 21.4 22.1 21.85 23.6 M17.65 16.85 L17.95 16.9" fill="none" stroke="#1b1b2b" stroke-linecap="round" stroke-linejoin="round" stroke-width="1.0"/>
    <path d="M28.7 15.75 L29.5 16.8 29.95 17.7 30.2 20.85 29.85 22.4 29.2 22.25" fill="none" stroke="#1c1c26" stroke-linecap="round" stroke-linejoin="round" stroke-width="1.0"/>
    <path d="M22.55 15.75 L22.8 16.55 M23.95 15.1 L24.2 15.95" fill="none" stroke="#a5a42e" stroke-linecap="round" stroke-linejoin="round" stroke-width="1.0"/>
    <path d="M14.8 11.7 L14.85 12.4 M13.15 9.45 L13.3 9.5 13.35 9.55 13.6 9.6 14.15 9.8 14.25 9.8 14.8 10.0 14.8 11.7 M9.7 9.45 L12.8 9.4 13.15 9.45 M9.7 9.45 L7.45 10.05 5.65 11.7 6.3 15.7 Q5.9 22.15 8.0 22.4 L8.25 22.35" fill="none" stroke="#1f242b" stroke-linecap="round" stroke-linejoin="round" stroke-width="1.0"/>
    <path d="M14.95 12.55 L18.0 12.1 Q20.55 12.05 24.5 13.2 M14.7 12.4 L14.95 12.55" fill="none" stroke="#131318" stroke-linecap="round" stroke-linejoin="round" stroke-width="1.0"/>
    <path d="M14.85 12.4 L14.95 12.55 15.95 13.6 13.6 15.3" fill="none" stroke="#14141e" stroke-linecap="round" stroke-linejoin="round" stroke-width="1.0"/>
    <path d="M6.55 15.75 L10.3 15.5 10.7 13.3 14.7 12.4 14.85 12.4 M6.3 15.7 L6.55 15.75" fill="none" stroke="#363f4b" stroke-linecap="round" stroke-linejoin="round" stroke-width="1.0"/>
    <path d="M11.35 10.55 L11.7 10.8 11.9 11.15 Q11.9 11.8 11.45 11.9 L10.85 11.75 Q10.5 11.6 10.6 11.25 10.55 11.0 10.8 10.7 L11.05 10.6 11.35 10.55 M8.65 11.45 L9.2 11.9 9.55 12.45 Q9.5 13.4 8.8 13.65 8.3 13.75 7.9 13.35 7.55 13.1 7.5 12.5 7.5 12.1 7.85 11.8 L8.3 11.55 8.65 11.45" fill="none" stroke="#13374c" stroke-linecap="round" stroke-linejoin="round" stroke-width="1.0"/>
    <path d="M10.15 17.3 L10.3 15.5 M8.85 22.3 L8.25 22.35 M8.85 22.3 L10.15 17.3 11.35 17.55 13.7 17.15" fill="none" stroke="#1c2128" stroke-linecap="round" stroke-linejoin="round" stroke-width="1.0"/>
    <path d="M11.4 20.75 L12.65 20.65 13.2 23.6" fill="none" stroke="#2a2a41" stroke-linecap="round" stroke-linejoin="round" stroke-width="1.0"/>
    <path d="M8.25 22.35 L8.35 22.85 M12.15 25.55 L11.55 22.3 8.85 22.3 M12.5 25.55 L13.25 25.65 Q14.1 25.85 14.25 25.45 L14.1 26.05 M12.5 25.55 L12.15 25.55 11.9 25.7 M9.05 27.2 L9.0 27.0 M9.05 27.2 L11.5 25.95" fill="none" stroke="#191926" stroke-linecap="round" stroke-linejoin="round" stroke-width="1.0"/>
    <path d="M24.5 13.2 L17.95 15.05 17.65 16.85 M21.95 24.15 L23.25 27.65 M21.9 24.15 L21.95 24.15 M17.65 16.9 L17.6 19.15 17.8 23.55 21.9 24.15" fill="none" stroke="#28283d" stroke-linecap="round" stroke-linejoin="round" stroke-width="1.0"/>
    <path d="M16.95 32.0 L17.05 31.95 18.95 31.85 20.25 31.7" fill="none" stroke="#343434" stroke-linecap="round" stroke-linejoin="round" stroke-width="1.0"/>
    <path d="M12.55 31.95 L12.95 32.3 14.2 32.2 14.9 32.15 15.65 32.1 16.95 32.0 M12.5 31.85 L12.55 31.95 M12.7 34.5 L12.8 34.5 14.15 34.7 14.3 34.7 M12.5 34.4 L12.65 34.5 12.7 34.5 M14.5 34.7 L14.35 34.7 M12.5 31.85 L12.5 34.4" fill="none" stroke="#0f0f0f" stroke-linecap="round" stroke-linejoin="round" stroke-width="1.0"/>
    <path d="M20.25 31.55 L20.8 29.75 24.8 29.15 M25.3 32.9 L25.3 32.95 25.95 33.3 26.5 33.05 M25.3 32.9 L24.85 32.5 Q24.5 31.65 24.6 30.95 L20.25 31.7 20.25 31.55" fill="none" stroke="#323232" stroke-linecap="round" stroke-linejoin="round" stroke-width="1.0"/>
    <path d="M23.25 27.65 L24.05 27.5 M22.95 27.65 L23.25 27.65 M16.95 32.0 L18.15 28.4 22.95 27.65" fill="none" stroke="#24212b" stroke-linecap="round" stroke-linejoin="round" stroke-width="1.0"/>
    <path d="M12.45 31.3 Q13.55 30.75 14.05 29.95 14.75 28.7 14.85 26.05" fill="none" stroke="#17181f" stroke-linecap="round" stroke-linejoin="round" stroke-width="1.0"/>
    <path d="M11.8 31.25 L12.5 31.85 M9.95 30.3 L11.65 31.1 11.8 31.25 M9.45 28.9 L9.75 30.2 9.95 30.3 M9.45 28.9 L9.05 27.2" fill="none" stroke="#0d0d12" stroke-linecap="round" stroke-linejoin="round" stroke-width="1.0"/>
    <path d="M13.45 33.45 L14.05 33.5" fill="none" stroke="#08e1ff" stroke-linecap="round" stroke-linejoin="round" stroke-width="1.0"/>
    <path d="M14.9 33.9 L15.15 33.5 15.4 33.55 16.8 33.4 16.8 33.05 16.95 32.0 M14.45 34.55 L14.65 34.25 14.9 33.9 M14.3 34.7 L14.35 34.7 14.45 34.55" fill="none" stroke="#0e0e0e" stroke-linecap="round" stroke-linejoin="round" stroke-width="1.0"/>
    <path d="M12.95 34.6 L12.8 34.5 M24.8 35.85 L18.75 36.35 Q14.5 36.5 12.95 34.6" fill="none" stroke="#121215" stroke-linecap="round" stroke-linejoin="round" stroke-width="1.0"/>
    <path d="M24.55 24.85 L26.9 24.55 27.55 23.5" fill="none" stroke="#292941" stroke-linecap="round" stroke-linejoin="round" stroke-width="1.0"/>
    <path d="M26.8 28.65 L26.95 28.85 Q27.35 29.5 27.4 31.0 L27.4 31.3 Q27.3 33.25 26.5 33.05" fill="none" stroke="#696969" stroke-linecap="round" stroke-linejoin="round" stroke-width="1.0"/>
    <path d="M26.8 28.15 L26.8 28.1 26.8 27.75 26.8 27.7 26.7 27.45 M26.8 28.15 L26.8 28.65 Q26.2 29.65 25.1 29.9" fill="none" stroke="#025762" stroke-linecap="round" stroke-linejoin="round" stroke-width="1.0"/>
    <path d="M26.7 27.45 L27.6 27.3 27.6 25.8" fill="none" stroke="#3d3d3d" stroke-linecap="round" stroke-linejoin="round" stroke-width="1.0"/>
    <path d="M27.6 25.8 L24.9 26.25 24.05 27.5" fill="none" stroke="#2d2d4f" stroke-linecap="round" stroke-linejoin="round" stroke-width="1.0"/>
    <path d="M25.8 27.6 L26.7 27.45 M24.95 29.9 L25.8 27.6" fill="none" stroke="#276c75" stroke-linecap="round" stroke-linejoin="round" stroke-width="1.0"/>
    <path d="M24.95 29.95 L24.6 30.95 M24.95 29.9 L24.95 29.95" fill="none" stroke="#676767" stroke-linecap="round" stroke-linejoin="round" stroke-width="1.0"/>
    <path d="M26.9 30.65 L26.05 30.8 M27.1 31.75 L26.2 32.0" fill="none" stroke="#464646" stroke-linecap="round" stroke-linejoin="round" stroke-width="1.0"/>
    <path d="M26.55 33.25 L26.65 34.55 26.4 36.55 25.45 37.1 25.1 35.7 24.9 35.0 24.25 34.5 24.35 34.25 24.95 32.8 25.3 32.95 M26.45 33.25 L26.5 33.05 26.55 33.25 M25.95 33.3 L26.3 33.3 26.45 33.25" fill="none" stroke="#111111" stroke-linecap="round" stroke-linejoin="round" stroke-width="1.0"/>
    <path d="M14.9 34.7 L14.5 34.7 M24.25 34.5 L14.9 34.7" fill="none" stroke="#1a1a1a" stroke-linecap="round" stroke-linejoin="round" stroke-width="1.0"/>
  </g>
</svg>
