<?xml version="1.0" encoding="UTF-8" standalone="no"?>
<svg xmlns:ffdec="https://www.free-decompiler.com/flash" xmlns:xlink="http://www.w3.org/1999/xlink" ffdec:objectType="shape" height="165.85px" width="205.0px" xmlns="http://www.w3.org/2000/svg">
  <g transform="matrix(1.0, 0.0, 0.0, 1.0, 115.0, 235.7)">
    <path d="M-62.95 -206.0 Q-56.2 -211.5 -49.5 -215.85 -40.2 -221.95 -30.9 -225.8 L-25.9 -227.75 -25.6 -227.85 Q-7.85 -234.15 10.2 -232.25 L18.75 -230.85 22.3 -230.0 Q29.85 -228.0 36.95 -224.85 65.15 -210.5 79.0 -180.2 L82.0 -173.05 Q84.25 -167.15 86.0 -160.85 L87.0 -157.0 86.0 -148.65 86.0 -148.5 85.45 -144.9 83.75 -134.15 83.55 -132.95 68.0 -131.9 54.0 -131.0 54.0 -148.5 54.0 -150.0 54.0 -158.0 44.0 -166.0 29.0 -162.0 23.65 -152.55 22.2 -150.0 21.3 -148.5 21.0 -148.0 20.1 -148.5 17.3 -150.0 11.0 -153.35 -7.0 -163.0 -6.0 -164.0 6.0 -176.0 1.85 -185.9 -7.0 -207.0 -26.0 -196.0 -34.4 -198.4 -40.0 -200.0 -40.0 -205.0 -49.5 -196.2 -53.0 -193.0 -62.95 -206.0 M48.05 -192.05 Q54.8 -185.65 59.1 -178.05 L52.85 -173.05 44.0 -166.0 52.85 -173.05 59.1 -178.05 Q54.8 -185.65 48.05 -192.05 L29.85 -174.8 Q22.9 -180.8 14.9 -183.55 L11.0 -184.7 1.85 -185.9 11.0 -184.7 14.9 -183.55 Q22.9 -180.8 29.85 -174.8 L48.05 -192.05 Q39.4 -200.15 27.0 -206.0 18.95 -209.4 11.0 -210.8 L1.55 -211.8 Q-11.1 -212.15 -22.55 -207.15 L-22.55 -207.1 -22.9 -206.85 -22.55 -207.1 -22.55 -207.15 Q-11.1 -212.15 1.55 -211.8 L11.0 -210.8 Q18.95 -209.4 27.0 -206.0 39.4 -200.15 48.05 -192.05 M27.0 -206.0 L36.95 -224.85 27.0 -206.0 M-30.9 -225.8 L-25.9 -213.8 -22.55 -207.15 -22.9 -206.85 -34.4 -198.4 -22.9 -206.85 -22.55 -207.15 -25.9 -213.8 -30.9 -225.8 M84.0 -147.0 L67.0 -148.0 68.0 -131.9 67.0 -148.0 67.0 -148.5 66.9 -150.0 Q66.2 -162.6 61.6 -173.05 L59.1 -178.05 61.6 -173.05 Q66.2 -162.6 66.9 -150.0 L67.0 -148.5 67.0 -148.0 84.0 -147.0 M39.0 -165.0 Q35.55 -169.5 31.85 -173.05 L29.85 -174.8 31.85 -173.05 Q35.55 -169.5 39.0 -165.0 M9.0 -160.9 Q5.9 -162.2 1.35 -163.05 L-6.0 -164.0 1.35 -163.05 Q5.9 -162.2 9.0 -160.9 L11.0 -168.55 14.9 -183.55 11.0 -168.55 9.0 -160.9 Q10.0 -160.5 11.0 -160.05 17.1 -157.25 23.65 -152.55 17.1 -157.25 11.0 -160.05 10.0 -160.5 9.0 -160.9" fill="#494949" fill-rule="evenodd" stroke="none"/>
    <path d="M83.55 -132.95 Q81.0 -119.5 75.95 -107.2 L74.1 -102.95 Q71.0 -96.2 67.1 -89.95 60.2 -79.0 51.0 -69.85 L40.0 -73.0 10.0 -149.0 -11.0 -149.0 -40.0 -73.0 -50.1 -70.1 Q-63.95 -83.05 -69.9 -93.05 -74.15 -100.3 -77.3 -107.85 -86.65 -130.3 -86.0 -155.0 L-112.0 -170.0 Q-95.25 -207.7 -79.0 -227.0 L-62.95 -206.0 -53.0 -193.0 -49.5 -196.2 -40.0 -205.0 -40.0 -200.0 -34.4 -198.4 -26.0 -196.0 -7.0 -207.0 1.85 -185.9 6.0 -176.0 -6.0 -164.0 -7.0 -163.0 11.0 -153.35 17.3 -150.0 20.1 -148.5 21.0 -148.0 21.3 -148.5 22.2 -150.0 23.65 -152.55 29.0 -162.0 44.0 -166.0 54.0 -158.0 54.0 -150.0 54.0 -148.5 54.0 -131.0 68.0 -131.9 83.55 -132.95" fill="url(#gradient0)" fill-rule="evenodd" stroke="none"/>
    <path d="M-62.95 -206.0 Q-56.2 -211.5 -49.5 -215.85 -40.2 -221.95 -30.9 -225.8 L-25.9 -227.75 -25.6 -227.85 Q-7.85 -234.15 10.2 -232.25 L18.75 -230.85 22.3 -230.0 Q29.85 -228.0 36.95 -224.85 65.15 -210.5 79.0 -180.2 L82.0 -173.05 Q84.25 -167.15 86.0 -160.85 L87.0 -157.0 86.0 -148.65 86.0 -148.5 85.45 -144.9 83.75 -134.15 83.55 -132.95 M-34.4 -198.4 L-22.9 -206.85 -22.55 -207.15 -25.9 -213.8 -30.9 -225.8 M1.85 -185.9 L11.0 -184.7 14.9 -183.55 Q22.9 -180.8 29.85 -174.8 L48.05 -192.05 Q39.4 -200.15 27.0 -206.0 18.95 -209.4 11.0 -210.8 L1.55 -211.8 Q-11.1 -212.15 -22.55 -207.15 L-22.55 -207.1 -22.9 -206.85 M36.95 -224.85 L27.0 -206.0 M44.0 -166.0 L52.85 -173.05 59.1 -178.05 Q54.8 -185.65 48.05 -192.05 M68.0 -131.9 L67.0 -148.0 67.0 -148.5 66.9 -150.0 Q66.2 -162.6 61.6 -173.05 L59.1 -178.05 M14.9 -183.55 L11.0 -168.55 9.0 -160.9 Q10.0 -160.5 11.0 -160.05 17.1 -157.25 23.65 -152.55 M-6.0 -164.0 L1.35 -163.05 Q5.9 -162.2 9.0 -160.9 M29.85 -174.8 L31.85 -173.05 Q35.55 -169.5 39.0 -165.0 M67.0 -148.0 L84.0 -147.0" fill="none" stroke="#3b3b3b" stroke-linecap="round" stroke-linejoin="round" stroke-width="6.0"/>
    <path d="M-62.95 -206.0 L-53.0 -193.0 -49.5 -196.2 -40.0 -205.0 -40.0 -200.0 -34.4 -198.4 -26.0 -196.0 -7.0 -207.0 1.85 -185.9 6.0 -176.0 -6.0 -164.0 -7.0 -163.0 11.0 -153.35 17.3 -150.0 20.1 -148.5 21.0 -148.0 M83.55 -132.95 L68.0 -131.9 54.0 -131.0 54.0 -148.5 54.0 -150.0 54.0 -158.0 44.0 -166.0 29.0 -162.0 23.65 -152.55 22.2 -150.0 21.3 -148.5" fill="none" stroke="#333333" stroke-linecap="round" stroke-linejoin="round" stroke-width="6.0"/>
    <path d="M-112.0 -170.0 Q-95.25 -207.7 -79.0 -227.0 L-62.95 -206.0" fill="none" stroke="#525252" stroke-linecap="round" stroke-linejoin="round" stroke-width="6.0"/>
  </g>
  <defs>
    <radialGradient cx="0" cy="0" gradientTransform="matrix(0.1255, 0.0, 0.0, 0.1255, -14.25, -148.45)" gradientUnits="userSpaceOnUse" id="gradient0" r="819.2" spreadMethod="pad">
      <stop offset="0.0" stop-color="#cacbca"/>
      <stop offset="1.0" stop-color="#828282"/>
    </radialGradient>
  </defs>
</svg>
