<?xml version="1.0" encoding="UTF-8" standalone="no"?>
<svg xmlns:xlink="http://www.w3.org/1999/xlink" height="14.65px" width="18.8px" xmlns="http://www.w3.org/2000/svg">
  <g transform="matrix(1.0, 0.0, 0.0, 1.0, -53.95, 7.3)">
    <path d="M56.35 -7.15 L56.55 -7.15 58.55 -7.3 Q64.45 -7.3 68.5 -5.1 72.75 -2.9 72.75 0.1 72.75 3.15 68.5 5.15 64.45 7.35 58.55 7.35 L56.55 7.35 Q56.55 7.2 56.35 7.35 L56.35 -7.15" fill="url(#gradient0)" fill-rule="evenodd" stroke="none"/>
    <path d="M56.35 7.35 Q55.45 7.0 54.9 5.15 53.95 3.15 53.95 0.1 53.95 -2.9 54.9 -5.1 55.45 -6.95 56.35 -7.15 L56.35 7.35" fill="url(#gradient1)" fill-rule="evenodd" stroke="none"/>
  </g>
  <defs>
    <radialGradient cx="0" cy="0" gradientTransform="matrix(0.0, 0.008, -0.0174, 0.0, 58.55, 0.1)" gradientUnits="userSpaceOnUse" id="gradient0" r="819.2" spreadMethod="pad">
      <stop offset="0.17647058823529413" stop-color="#ffffff"/>
      <stop offset="0.5529411764705883" stop-color="#ffffff" stop-opacity="0.77254903"/>
      <stop offset="1.0" stop-color="#ffcccc" stop-opacity="0.0"/>
    </radialGradient>
    <radialGradient cx="0" cy="0" gradientTransform="matrix(0.0, 0.008, -0.0034, 0.0, 56.7, 0.1)" gradientUnits="userSpaceOnUse" id="gradient1" r="819.2" spreadMethod="pad">
      <stop offset="0.17647058823529413" stop-color="#ffffff"/>
      <stop offset="0.5529411764705883" stop-color="#ffffff" stop-opacity="0.77254903"/>
      <stop offset="1.0" stop-color="#ffcccc" stop-opacity="0.0"/>
    </radialGradient>
  </defs>
</svg>
