<?xml version="1.0" encoding="UTF-8" standalone="no"?>
<svg xmlns:ffdec="https://www.free-decompiler.com/flash" xmlns:xlink="http://www.w3.org/1999/xlink" ffdec:objectType="shape" height="30.7px" width="29.2px" xmlns="http://www.w3.org/2000/svg">
  <g transform="matrix(1.0, 0.0, 0.0, 1.0, 16.45, 32.55)">
    <path d="M-3.3 -28.65 Q-4.2 -26.15 -3.0 -23.2 L-2.7 -22.45 -0.95 -18.5 1.2 -18.45 Q2.15 -18.35 3.55 -17.5 L0.9 -15.4 -0.85 -14.35 2.6 -14.75 3.65 -10.35 2.45 -7.6 -5.9 -8.0 -6.35 -13.85 -1.85 -14.25 -1.7 -14.25 -1.25 -17.25 -4.1 -25.4 -7.2 -25.55 -13.15 -22.8 -13.6 -28.1 Q-14.05 -29.6 -12.75 -30.35 L-10.5 -31.55 -6.0 -29.05 -4.2 -28.65 -3.3 -28.65 M-10.1 -17.0 L-8.3 -17.5 Q-7.25 -17.4 -6.75 -15.3 L-6.7 -9.05 -9.35 -13.35 -10.1 -17.0" fill="url(#gradient0)" fill-rule="evenodd" stroke="none"/>
    <path d="M4.6 -26.2 L4.4 -28.4 Q4.8 -28.45 9.35 -26.2 11.0 -24.35 11.85 -22.1 L11.9 -20.1 11.7 -15.0 10.5 -12.35 9.15 -11.65 Q9.25 -9.4 7.9 -13.15 6.65 -16.9 6.45 -19.9 6.4 -20.5 5.05 -20.9 L3.2 -21.6 Q2.45 -22.55 2.85 -24.2 3.3 -25.9 4.6 -26.2" fill="url(#gradient1)" fill-rule="evenodd" stroke="none"/>
    <path d="M-9.9 -16.25 L-10.85 -17.3 -11.55 -18.0 Q-12.3 -21.35 -12.3 -23.55 -11.55 -25.3 -10.95 -24.75 L-10.15 -23.75 -8.05 -19.05 Q-6.9 -16.1 -7.7 -17.45 L-8.9 -17.4 -9.9 -16.25" fill="#b970e6" fill-rule="evenodd" stroke="none"/>
    <path d="M-2.2 -20.15 L-1.3 -17.55 -2.4 -13.45 Q-4.5 -12.65 -5.35 -12.85 -6.4 -13.05 -7.45 -14.75 L-7.65 -17.5 -9.4 -20.45 Q-10.25 -22.2 -10.15 -22.8 -9.95 -24.2 -7.2 -25.55 L-4.1 -25.4 Q-3.35 -22.2 -2.2 -20.15" fill="#3a1809" fill-rule="evenodd" stroke="none"/>
    <path d="M4.6 -21.3 L6.75 -20.05 2.7 -17.6 1.8 -19.9 4.6 -21.3 M7.2 -6.55 Q5.9 -7.4 4.65 -8.35 4.0 -8.5 4.15 -9.2 L4.65 -10.5 6.2 -14.75 7.95 -13.5 9.25 -9.5 7.2 -6.55" fill="#5d3711" fill-rule="evenodd" stroke="none"/>
    <path d="M-0.75 -17.95 L-0.55 -18.2 Q-2.9 -21.85 -3.6 -25.4 -4.3 -28.6 -3.35 -28.25 L3.35 -26.55 Q4.35 -27.55 3.35 -24.35 2.15 -20.8 4.15 -21.9 4.25 -21.65 2.5 -20.4 L-0.15 -18.5 -0.75 -17.95 Q-1.1 -17.25 -1.2 -14.35 L-1.3 -11.7 -0.95 -7.6 1.35 -8.15 3.75 -8.85 Q7.3 -6.95 6.05 -4.55 4.85 -2.1 -0.25 -2.7 -5.4 -5.7 -5.6 -7.7 L-3.35 -7.55 -1.15 -7.45 -1.3 -11.7 -1.55 -16.75 -0.75 -17.95" fill="#211b10" fill-rule="evenodd" stroke="none"/>
    <path d="M4.0 -9.5 L1.45 -14.95 3.6 -18.15 Q4.8 -19.6 6.65 -19.35 L7.3 -15.5 4.0 -9.5" fill="#3a1809" fill-rule="evenodd" stroke="none"/>
    <path d="M-5.55 -13.1 L-6.35 -13.0 -7.05 -13.85 -6.9 -15.6 -6.95 -15.65 -7.4 -16.55 Q-7.7 -18.3 -8.75 -17.85 L-9.35 -17.2 -9.65 -16.4 -9.75 -15.65 Q-9.4 -14.25 -8.15 -11.9 L-6.65 -8.9 -5.3 -6.6 Q-2.65 -2.4 1.1 -2.35 4.9 -2.25 6.7 -6.7 L9.15 -8.65 9.05 -11.4 10.55 -12.5 11.55 -15.35 11.85 -22.1 Q10.95 -24.35 9.65 -25.8 8.05 -26.35 6.8 -27.4 5.7 -28.2 5.0 -28.3 L4.05 -26.35 -3.35 -28.05 -4.35 -28.85 -5.85 -28.55 -8.1 -29.8 -7.5 -25.35 -8.25 -24.6 -6.2 -26.2 -4.1 -25.4 M-8.25 -24.6 L-10.7 -24.0 -10.5 -23.55 -9.65 -21.7 -8.65 -20.35 -7.75 -19.2 -7.5 -18.35 -5.75 -20.3 Q-3.45 -20.3 -1.05 -18.1 M-6.95 -15.65 L-7.3 -17.25 -7.6 -18.25 -7.5 -18.35 -7.35 -17.4 -7.3 -17.25 -6.9 -15.6 M-8.1 -29.8 L-11.55 -31.7 -14.0 -29.4 -13.75 -25.3 -12.8 -23.3 -12.0 -24.25 Q-11.85 -24.35 -11.45 -24.6 -11.05 -24.55 -10.7 -24.0" fill="none" stroke="#140e08" stroke-linecap="round" stroke-linejoin="round" stroke-width="1.0"/>
    <path d="M4.0 -21.1 L1.55 -19.2 2.65 -17.9 Q6.75 -19.5 6.8 -19.9 L6.7 -20.5 4.55 -21.3 Q2.1 -21.9 3.0 -23.8 L4.55 -26.05 4.65 -26.2 5.3 -27.15 M7.7 -25.35 L8.85 -19.4 Q9.6 -15.95 11.0 -13.2 L8.95 -14.05 7.3 -15.2 6.8 -19.9 M4.65 -26.2 L9.35 -26.2 M-4.25 -28.7 Q-3.05 -27.75 -3.2 -26.85 -3.25 -26.45 -4.1 -25.25 L-1.35 -18.45 M1.55 -19.05 L-1.25 -17.55 -1.3 -17.55 -1.95 -14.05 -0.35 -14.6 2.3 -15.75 3.15 -17.8 2.6 -15.9 2.3 -15.75 2.05 -15.25 2.45 -14.25 3.15 -12.65 Q3.8 -11.0 3.9 -8.85 L6.1 -14.6 7.55 -14.5 7.7 -12.9 9.25 -11.2 Q9.1 -10.7 9.2 -9.5 9.35 -8.55 9.1 -8.5 L7.65 -7.65 Q6.5 -7.0 5.95 -7.05 5.5 -7.1 4.7 -7.9 L3.9 -8.85 M2.45 -14.25 L1.75 -15.2 -0.35 -14.6 -2.0 -13.8 -1.95 -14.05 -5.4 -13.05 -6.55 -12.95 -6.25 -8.45 -2.0 -7.75 Q-0.05 -7.8 3.65 -9.25 L3.25 -12.2 3.15 -12.65" fill="none" stroke="#19110b" stroke-linecap="round" stroke-linejoin="round" stroke-width="1.0"/>
    <path d="M7.25 -9.8 L6.45 -9.4" fill="none" stroke="#080815" stroke-linecap="round" stroke-linejoin="round" stroke-opacity="0.5647059" stroke-width="1.0"/>
    <path d="M7.0 -11.1 L6.45 -10.85" fill="none" stroke="#080815" stroke-linecap="round" stroke-linejoin="round" stroke-opacity="0.5647059" stroke-width="1.0"/>
    <path d="M11.9 -16.95 L10.45 -17.95 9.95 -19.85 11.95 -19.55 Q12.1 -18.1 11.85 -17.65 L11.9 -16.95" fill="#b574e3" fill-rule="evenodd" stroke="none"/>
    <path d="M11.9 -16.95 L10.45 -17.95 9.95 -19.85 11.95 -19.55 Q12.1 -18.1 11.85 -17.65 L11.9 -16.95 Z" fill="none" stroke="#39183e" stroke-linecap="round" stroke-linejoin="round" stroke-opacity="0.61960787" stroke-width="1.0"/>
    <path d="M12.0 -21.15 L10.2 -21.95 9.65 -23.8 11.7 -23.55 12.25 -21.9 12.0 -21.15" fill="#b574e3" fill-rule="evenodd" stroke="none"/>
    <path d="M12.0 -21.15 L10.2 -21.95 9.65 -23.8 11.7 -23.55 12.25 -21.9 12.0 -21.15 Z" fill="none" stroke="#39183e" stroke-linecap="round" stroke-linejoin="round" stroke-opacity="0.61960787" stroke-width="1.0"/>
    <path d="M-12.9 -27.45 L-12.6 -26.0 -13.55 -25.9 -15.8 -27.4 -15.95 -28.55 -15.25 -28.2 -12.9 -27.45" fill="#b970e6" fill-rule="evenodd" stroke="none"/>
    <path d="M-12.9 -27.45 L-15.25 -28.2 -15.95 -28.55 -15.8 -27.4 -13.55 -25.9 -12.6 -26.0 -12.9 -27.45 Z" fill="none" stroke="#080815" stroke-linecap="round" stroke-linejoin="round" stroke-opacity="0.6431373" stroke-width="1.0"/>
    <path d="M-12.05 -30.85 L-11.75 -29.5 -12.8 -29.4 -15.05 -30.85 -15.2 -32.05 -14.4 -31.7 -12.05 -30.85" fill="#b970e6" fill-rule="evenodd" stroke="none"/>
    <path d="M-12.05 -30.85 L-14.4 -31.7 -15.2 -32.05 -15.05 -30.85 -12.8 -29.4 -11.75 -29.5 -12.05 -30.85 Z" fill="none" stroke="#080815" stroke-linecap="round" stroke-linejoin="round" stroke-opacity="0.6431373" stroke-width="1.0"/>
    <path d="M-2.75 -19.25 L-4.4 -14.2 -5.95 -14.65 -4.2 -20.25" fill="none" stroke="#19110b" stroke-linecap="butt" stroke-linejoin="miter-clip" stroke-miterlimit="4.0" stroke-opacity="0.61960787" stroke-width="1.0"/>
    <path d="M-10.2 -23.3 Q-10.5 -24.35 -10.9 -24.35 L-12.0 -24.4 Q-12.6 -24.25 -12.05 -23.1 L-11.9 -19.7 Q-11.85 -18.95 -11.35 -18.25 L-9.65 -16.65 -9.15 -17.85 Q-8.8 -18.5 -7.75 -18.75 L-9.75 -21.45 -10.2 -23.3 Z" fill="none" stroke="#0c0805" stroke-linecap="round" stroke-linejoin="round" stroke-opacity="0.7294118" stroke-width="1.0"/>
  </g>
  <defs>
    <radialGradient cx="0" cy="0" gradientTransform="matrix(0.007, -0.0025, 0.0177, 0.0491, -1.55, -12.45)" gradientUnits="userSpaceOnUse" id="gradient0" r="819.2" spreadMethod="pad">
      <stop offset="0.0" stop-color="#2f0e06"/>
      <stop offset="1.0" stop-color="#ae792c"/>
    </radialGradient>
    <radialGradient cx="0" cy="0" gradientTransform="matrix(0.0041, -8.0E-4, 0.0043, 0.0228, 7.25, -19.7)" gradientUnits="userSpaceOnUse" id="gradient1" r="819.2" spreadMethod="pad">
      <stop offset="0.0" stop-color="#2f0e06"/>
      <stop offset="1.0" stop-color="#ae792c"/>
    </radialGradient>
  </defs>
</svg>
