<?xml version="1.0" encoding="UTF-8" standalone="no"?>
<svg xmlns:ffdec="https://www.free-decompiler.com/flash" xmlns:xlink="http://www.w3.org/1999/xlink" ffdec:objectType="shape" height="29.15px" width="26.4px" xmlns="http://www.w3.org/2000/svg">
  <g transform="matrix(1.0, 0.0, 0.0, 1.0, 14.7, 29.6)">
    <path d="M4.2 -25.8 L4.85 -25.6 6.85 -24.15 6.55 -24.15 6.15 -23.2 0.15 -25.9 Q2.65 -24.85 2.95 -24.9 L4.2 -25.8" fill="url(#gradient0)" fill-rule="evenodd" stroke="none"/>
    <path d="M4.85 -25.6 L4.2 -25.8 4.25 -25.8 4.85 -25.6 M-4.15 -27.9 L-4.2 -27.85 -4.25 -27.85 -4.15 -27.9" fill="#323a27" fill-rule="evenodd" stroke="none"/>
    <path d="M4.2 -25.8 L2.95 -24.9 Q2.65 -24.85 0.15 -25.9 L-4.2 -27.85 -4.15 -27.9 Q-5.1 -29.05 -1.95 -29.1 L4.8 -26.95 4.85 -25.6 4.25 -25.8 4.2 -25.8" fill="url(#gradient1)" fill-rule="evenodd" stroke="none"/>
    <path d="M6.15 -23.2 L6.55 -24.15 6.85 -24.15 9.25 -24.15 9.65 -23.85 6.7 -23.85 5.95 -22.75 6.15 -23.2 M-10.1 -13.9 L-12.0 -13.15 -8.1 -15.2 -8.2 -14.6 -10.1 -13.9 M3.15 -21.65 L3.15 -16.9 4.5 -16.3 3.05 -16.75 3.15 -21.65" fill="#746e69" fill-rule="evenodd" stroke="none"/>
    <path d="M9.65 -23.85 L10.1 -23.5 Q12.45 -19.15 9.8 -15.3 L8.55 -13.9 7.9 -13.9 6.4 -14.2 6.15 -14.65 5.45 -16.0 4.5 -16.3 4.5 -21.65 3.15 -21.65 5.75 -22.25 5.95 -22.75 10.45 -22.75 9.65 -23.85" fill="url(#gradient2)" fill-rule="evenodd" stroke="none"/>
    <path d="M0.15 -25.9 L6.15 -23.2 5.95 -22.75 5.75 -22.25 3.15 -21.65 -5.65 -25.15 -5.65 -25.4 -5.85 -25.4 -5.75 -27.15 -5.95 -27.4 -5.4 -27.65 -4.6 -27.8 -5.75 -27.15 -4.6 -27.8 -4.2 -27.85 0.15 -25.9 M4.5 -16.3 L5.45 -16.0 6.15 -14.65 -3.85 -12.3 -4.55 -15.0 3.05 -16.75 4.5 -16.3 M6.7 -11.5 Q3.95 -9.45 4.8 -4.85 -0.15 -4.15 -3.05 -4.85 L-3.6 -6.25 -5.9 -6.8 -6.3 -9.55 -6.05 -7.7 -4.45 -7.2 -4.45 -9.55 -2.15 -10.05 -4.45 -9.55 -4.45 -7.2 -6.05 -7.7 -6.3 -9.55 -4.8 -9.55 -4.4 -10.75 -2.15 -10.05 2.05 -11.0 3.15 -11.5 6.7 -11.5 M-4.45 -9.55 L-4.8 -9.55 -4.45 -9.55" fill="#333333" fill-rule="evenodd" stroke="none"/>
    <path d="M9.65 -23.85 L10.45 -22.75 5.95 -22.75 6.7 -23.85 9.65 -23.85 M3.15 -21.65 L4.5 -21.65 4.5 -16.3 3.15 -16.9 3.15 -21.65 M-12.0 -13.15 L-12.65 -14.65 -12.65 -14.7 Q-10.35 -15.2 -8.2 -16.1 L-8.1 -15.5 -8.05 -15.25 -8.1 -15.2 -12.0 -13.15 M-14.15 -18.05 L-13.55 -19.65 -11.55 -27.1 -10.2 -27.4 -13.35 -16.25 -14.15 -18.05" fill="#615e57" fill-rule="evenodd" stroke="none"/>
    <path d="M6.15 -14.65 L6.4 -14.2 7.9 -13.9 7.2 -11.5 6.7 -11.5 3.15 -11.5 2.05 -11.0 -2.15 -10.05 -4.4 -10.75 -3.85 -12.3 6.15 -14.65" fill="url(#gradient3)" fill-rule="evenodd" stroke="none"/>
    <path d="M3.15 -21.65 L3.05 -16.75 -4.55 -15.0 -6.35 -16.35 -8.05 -16.0 -7.9 -17.35 -6.15 -20.95 -5.85 -25.4 -5.65 -25.4 -5.65 -25.15 3.15 -21.65" fill="url(#gradient4)" fill-rule="evenodd" stroke="none"/>
    <path d="M4.8 -4.85 L1.85 -0.95 -3.15 -1.35 -4.25 -3.25 -2.65 -3.25 -3.05 -4.85 Q-0.15 -4.15 4.8 -4.85" fill="url(#gradient5)" fill-rule="evenodd" stroke="none"/>
    <path d="M-12.65 -14.7 L-13.35 -16.25 -10.2 -27.4 -11.55 -27.1 -13.55 -19.65 -14.15 -18.05 -14.2 -18.15 -11.8 -27.1 -6.65 -28.4 -6.0 -27.5 -5.95 -27.4 -5.75 -27.15 -5.85 -25.4 -6.15 -20.95 -7.9 -17.35 -8.05 -16.0 -8.1 -15.5 -8.2 -16.1 Q-10.35 -15.2 -12.65 -14.7" fill="url(#gradient6)" fill-rule="evenodd" stroke="none"/>
    <path d="M-5.4 -27.65 L-5.3 -27.7 -5.1 -27.75 -4.6 -27.8 -4.25 -27.85 -4.2 -27.85 -4.6 -27.8 -5.4 -27.65" fill="#2f321f" fill-rule="evenodd" stroke="none"/>
    <path d="M-6.3 -9.55 L-8.7 -10.25 -10.1 -13.9 -8.2 -14.6 -8.1 -15.2 -8.05 -15.25 -8.1 -15.5 -8.05 -16.0 -6.35 -16.35 -4.55 -15.0 -3.85 -12.3 -4.4 -10.75 -4.8 -9.55 -6.3 -9.55" fill="url(#gradient7)" fill-rule="evenodd" stroke="none"/>
    <path d="M-12.65 -14.65 L-12.7 -14.7 -12.65 -14.7 -12.65 -14.65 M-13.35 -16.25 Q-14.25 -17.05 -14.15 -18.05 L-13.35 -16.25" fill="#593340" fill-rule="evenodd" stroke="none"/>
    <path d="M-4.25 -3.25 L-5.85 -3.25 Q-7.2 -4.65 -7.0 -6.6 L-5.9 -6.8 -3.6 -6.25 -2.65 -3.25 -4.25 -3.25" fill="url(#gradient8)" fill-rule="evenodd" stroke="none"/>
    <path d="M-2.65 -3.25 L-3.6 -6.25 -3.05 -4.85 -2.65 -3.25" fill="#61704c" fill-rule="evenodd" stroke="none"/>
    <path d="M4.2 -25.8 L2.95 -24.9 Q2.65 -24.85 0.15 -25.9 L6.15 -23.2 6.55 -24.15 M6.85 -24.15 L4.85 -25.6 4.8 -26.95 -1.95 -29.1 Q-5.1 -29.05 -4.15 -27.9 M4.25 -25.8 L4.2 -25.8 M-4.2 -27.85 L0.15 -25.9 M7.9 -13.9 L8.55 -13.9 9.8 -15.3 Q12.45 -19.15 10.1 -23.5 L9.65 -23.85 9.25 -24.15 6.85 -24.15 M5.95 -22.75 L5.75 -22.25 3.15 -21.65 3.05 -16.75 4.5 -16.3 5.45 -16.0 6.15 -14.65 6.4 -14.2 7.9 -13.9 7.2 -11.5 6.7 -11.5 Q3.95 -9.45 4.8 -4.85 L1.85 -0.95 -3.15 -1.35 -4.25 -3.25 -5.85 -3.25 Q-7.2 -4.65 -7.0 -6.6 M-5.9 -6.8 L-6.3 -9.55 -8.7 -10.25 -10.1 -13.9 -12.0 -13.15 -12.65 -14.65 -12.65 -14.7 -13.35 -16.25 -14.15 -18.05 -14.2 -18.15 -11.8 -27.1 -6.65 -28.4 -6.0 -27.5 -5.95 -27.4 -5.75 -27.15 -4.6 -27.8 M6.15 -23.2 L5.95 -22.75 M-4.4 -10.75 L-2.15 -10.05 2.05 -11.0 3.15 -11.5 6.7 -11.5 M-5.65 -25.15 L3.15 -21.65 M-5.75 -27.15 L-5.85 -25.4 -6.15 -20.95 -7.9 -17.35 -8.05 -16.0 -6.35 -16.35 -4.55 -15.0 3.05 -16.75 M-8.1 -15.2 L-8.2 -14.6 -10.1 -13.9 M-8.1 -15.5 L-8.05 -16.0 M-2.15 -10.05 L-4.45 -9.55 -4.45 -7.2 -6.05 -7.7 -6.3 -9.55 -4.8 -9.55 -4.4 -10.75 -3.85 -12.3 -4.55 -15.0 M-4.8 -9.55 L-4.45 -9.55 M-4.25 -3.25 L-2.65 -3.25 -3.6 -6.25 -5.9 -6.8 M-3.05 -4.85 Q-0.15 -4.15 4.8 -4.85 M-3.85 -12.3 L6.15 -14.65" fill="none" stroke="#2b2927" stroke-linecap="round" stroke-linejoin="round" stroke-width="1.0"/>
    <path d="M6.55 -24.15 L6.85 -24.15" fill="none" stroke="#212317" stroke-linecap="round" stroke-linejoin="round" stroke-width="1.0"/>
    <path d="M-7.0 -6.6 L-5.9 -6.8" fill="none" stroke="#272e1e" stroke-linecap="round" stroke-linejoin="round" stroke-width="1.0"/>
  </g>
  <defs>
    <radialGradient cx="0" cy="0" gradientTransform="matrix(0.0035, 0.0, 0.0, 0.0035, 4.85, -24.9)" gradientUnits="userSpaceOnUse" id="gradient0" r="819.2" spreadMethod="pad">
      <stop offset="0.0" stop-color="#4d4946"/>
      <stop offset="1.0" stop-color="#3c3b38"/>
      <stop offset="1.0" stop-color="#333333"/>
    </radialGradient>
    <radialGradient cx="0" cy="0" gradientTransform="matrix(0.0095, 0.0, 0.0, 0.0095, 2.95, -26.15)" gradientUnits="userSpaceOnUse" id="gradient1" r="819.2" spreadMethod="pad">
      <stop offset="0.0" stop-color="#4d4946"/>
      <stop offset="1.0" stop-color="#3c3b38"/>
      <stop offset="1.0" stop-color="#333333"/>
    </radialGradient>
    <radialGradient cx="0" cy="0" gradientTransform="matrix(0.0075, 0.0, 0.0, 0.0075, 6.7, -19.2)" gradientUnits="userSpaceOnUse" id="gradient2" r="819.2" spreadMethod="pad">
      <stop offset="0.0" stop-color="#523b40"/>
      <stop offset="1.0" stop-color="#452d33"/>
      <stop offset="1.0" stop-color="#333333"/>
      <stop offset="1.0" stop-color="#523b40"/>
      <stop offset="1.0" stop-color="#523b40"/>
      <stop offset="1.0" stop-color="#523b40"/>
    </radialGradient>
    <radialGradient cx="0" cy="0" gradientTransform="matrix(0.0084, 0.0, 0.0, 0.0084, 1.25, -12.25)" gradientUnits="userSpaceOnUse" id="gradient3" r="819.2" spreadMethod="pad">
      <stop offset="0.0" stop-color="#4d4946"/>
      <stop offset="1.0" stop-color="#3c3b38"/>
      <stop offset="1.0" stop-color="#333333"/>
    </radialGradient>
    <radialGradient cx="0" cy="0" gradientTransform="matrix(0.0085, 0.0, 0.0, 0.0085, -3.4, -19.5)" gradientUnits="userSpaceOnUse" id="gradient4" r="819.2" spreadMethod="pad">
      <stop offset="0.0" stop-color="#4d4946"/>
      <stop offset="1.0" stop-color="#3c3b38"/>
      <stop offset="1.0" stop-color="#333333"/>
    </radialGradient>
    <radialGradient cx="0" cy="0" gradientTransform="matrix(0.0076, 0.0, 0.0, 0.0076, 1.95, -3.05)" gradientUnits="userSpaceOnUse" id="gradient5" r="819.2" spreadMethod="pad">
      <stop offset="0.0" stop-color="#4d4946"/>
      <stop offset="1.0" stop-color="#3c3b38"/>
      <stop offset="1.0" stop-color="#333333"/>
    </radialGradient>
    <radialGradient cx="0" cy="0" gradientTransform="matrix(0.0146, 0.0, 0.0, 0.0146, -9.8, -21.25)" gradientUnits="userSpaceOnUse" id="gradient6" r="819.2" spreadMethod="pad">
      <stop offset="0.0" stop-color="#523b40"/>
      <stop offset="1.0" stop-color="#452d33"/>
      <stop offset="1.0" stop-color="#333333"/>
      <stop offset="1.0" stop-color="#523b40"/>
      <stop offset="1.0" stop-color="#523b40"/>
      <stop offset="1.0" stop-color="#523b40"/>
    </radialGradient>
    <radialGradient cx="0" cy="0" gradientTransform="matrix(0.0053, 0.0, 0.0, 0.0053, -8.4, -13.7)" gradientUnits="userSpaceOnUse" id="gradient7" r="819.2" spreadMethod="pad">
      <stop offset="0.0" stop-color="#523b40"/>
      <stop offset="1.0" stop-color="#452d33"/>
      <stop offset="1.0" stop-color="#333333"/>
      <stop offset="1.0" stop-color="#523b40"/>
      <stop offset="1.0" stop-color="#523b40"/>
      <stop offset="1.0" stop-color="#523b40"/>
    </radialGradient>
    <radialGradient cx="0" cy="0" gradientTransform="matrix(0.0039, 0.0, 0.0, 0.0039, -5.35, -5.0)" gradientUnits="userSpaceOnUse" id="gradient8" r="819.2" spreadMethod="pad">
      <stop offset="0.0" stop-color="#523b40"/>
      <stop offset="1.0" stop-color="#452d33"/>
      <stop offset="1.0" stop-color="#333333"/>
      <stop offset="1.0" stop-color="#523b40"/>
      <stop offset="1.0" stop-color="#523b40"/>
      <stop offset="1.0" stop-color="#523b40"/>
    </radialGradient>
  </defs>
</svg>
