<?xml version="1.0" encoding="UTF-8" standalone="no"?>
<svg xmlns:ffdec="https://www.free-decompiler.com/flash" xmlns:xlink="http://www.w3.org/1999/xlink" ffdec:objectType="shape" height="34.15px" width="27.2px" xmlns="http://www.w3.org/2000/svg">
  <g transform="matrix(1.0, 0.0, 0.0, 1.0, 15.05, 30.75)">
    <path d="M9.45 -27.0 L8.6 -26.8 8.45 -26.75 9.4 -23.75 10.5 -19.65 10.45 -19.6 10.15 -19.25 5.75 -19.25 5.75 -21.05 5.7 -28.65 7.3 -28.65 8.45 -27.0 9.45 -27.0" fill="url(#gradient0)" fill-rule="evenodd" stroke="none"/>
    <path d="M10.5 -19.65 L9.4 -23.75 8.45 -26.75 8.6 -26.8 9.45 -27.0 10.4 -24.45 10.35 -24.45 10.4 -24.35 11.65 -21.0 10.5 -19.65 M-12.65 -16.7 L-13.4 -17.0 -13.95 -17.35 -13.9 -17.65 Q-15.0 -21.7 -14.25 -26.55 -12.75 -28.65 -12.7 -29.75 L-11.35 -30.2 -10.1 -30.2 Q-13.9 -27.65 -12.65 -16.7" fill="#615e57" fill-rule="evenodd" stroke="none"/>
    <path d="M5.7 -28.65 L5.75 -21.05 2.15 -21.05 0.3 -24.35 -1.6 -27.65 2.15 -27.65 4.15 -28.65 5.7 -28.65 M5.25 -24.35 L0.3 -24.35 5.25 -24.35" fill="url(#gradient1)" fill-rule="evenodd" stroke="none"/>
    <path d="M10.15 -19.25 L10.45 -19.6 10.55 -19.25 10.15 -19.25 M11.65 -21.0 L10.4 -24.35 11.0 -23.25 11.65 -21.0 M10.4 -24.45 L9.45 -27.0 10.0 -27.0 10.65 -24.7 10.4 -24.45" fill="#8a8580" fill-rule="evenodd" stroke="none"/>
    <path d="M5.75 -19.25 L10.15 -19.25 10.55 -19.25 10.55 -15.15 7.45 -10.5 Q6.3 -11.0 5.1 -11.55 L3.9 -11.55 4.6 -14.4 5.25 -17.2 5.75 -19.25" fill="url(#gradient2)" fill-rule="evenodd" stroke="none"/>
    <path d="M5.75 -21.05 L5.75 -19.25 5.25 -17.2 1.4 -17.25 2.15 -21.05 5.75 -21.05" fill="url(#gradient3)" fill-rule="evenodd" stroke="none"/>
    <path d="M-4.7 -30.25 L-1.6 -27.65 0.3 -24.35 2.15 -21.05 1.4 -17.25 0.8 -14.05 0.15 -10.85 -2.4 -11.9 -4.95 -11.25 -7.4 -17.4 -7.5 -20.4 -7.4 -24.15 -7.4 -27.4 -4.7 -30.25" fill="#333333" fill-rule="evenodd" stroke="none"/>
    <path d="M0.8 -14.05 L1.4 -17.25 5.25 -17.2 4.6 -14.4 0.8 -14.05" fill="url(#gradient4)" fill-rule="evenodd" stroke="none"/>
    <path d="M0.8 -14.05 L4.6 -14.4 3.9 -11.55 2.7 -11.55 0.15 -10.85 0.8 -14.05" fill="url(#gradient5)" fill-rule="evenodd" stroke="none"/>
    <path d="M7.45 -10.5 L7.1 -8.05 Q3.05 -8.7 -1.15 -8.15 L-1.75 -10.15 -4.6 -10.2 -6.15 -8.8 -7.35 -8.5 -7.35 -10.05 -7.1 -10.15 -4.95 -11.25 -2.4 -11.9 0.15 -10.85 2.7 -11.55 3.9 -11.55 5.1 -11.55 Q6.3 -11.0 7.45 -10.5" fill="url(#gradient6)" fill-rule="evenodd" stroke="none"/>
    <path d="M7.1 -8.05 L7.1 -7.95 9.4 -7.35 8.4 -0.3 5.4 2.9 2.0 -0.6 4.0 -2.85 4.0 -2.9 4.05 -2.95 4.3 -4.95 4.5 -6.95 2.7 -7.2 1.8 -6.4 -0.45 -6.55 -0.75 -6.75 -0.65 -6.4 -0.65 -6.3 -0.3 0.25 -5.1 -0.45 -6.15 -8.8 -4.6 -10.2 -1.75 -10.15 -1.15 -8.15 Q3.05 -8.7 7.1 -8.05" fill="url(#gradient7)" fill-rule="evenodd" stroke="none"/>
    <path d="M2.0 -0.6 L1.9 -0.55 5.4 2.95 1.55 2.35 -0.3 0.3 -0.3 0.25 -0.65 -6.3 1.4 -6.1 1.8 -6.4 2.7 -7.2 4.5 -6.95 4.3 -4.95 4.0 -2.9 4.0 -2.85 2.0 -0.6" fill="url(#gradient8)" fill-rule="evenodd" stroke="none"/>
    <path d="M1.8 -6.4 L1.4 -6.1 -0.65 -6.3 -0.65 -6.4 -0.75 -6.75 -0.45 -6.55 1.8 -6.4 M4.0 -2.9 L4.3 -4.95 4.05 -2.95 4.0 -2.9" fill="#ffffff" fill-rule="evenodd" stroke="none"/>
    <path d="M-10.5 -13.1 L-12.65 -15.25 -12.65 -16.7 Q-13.9 -27.65 -10.1 -30.2 L-9.45 -30.2 -7.4 -27.4 -7.4 -24.15 -7.5 -20.4 -7.4 -17.4 -10.5 -13.1" fill="url(#gradient9)" fill-rule="evenodd" stroke="none"/>
    <path d="M-9.45 -30.2 L-4.7 -30.25 -7.4 -27.4 -9.45 -30.2" fill="#666666" fill-rule="evenodd" stroke="none"/>
    <path d="M-13.4 -17.0 L-13.95 -17.25 -13.95 -17.35 -13.4 -17.0" fill="#00ff99" fill-rule="evenodd" stroke="none"/>
    <path d="M-7.35 -10.05 L-10.5 -13.1 -7.4 -17.4 -4.95 -11.25 -7.1 -10.15 -7.35 -10.05" fill="url(#gradient10)" fill-rule="evenodd" stroke="none"/>
    <path d="M-5.1 -0.45 L-6.45 -0.65 Q-7.05 -0.8 -7.9 -1.55 L-8.7 -2.2 -9.6 -5.75 -9.15 -7.0 Q-8.65 -8.25 -8.2 -8.35 L-7.35 -8.5 -6.15 -8.8 -5.1 -0.45" fill="url(#gradient11)" fill-rule="evenodd" stroke="none"/>
    <path d="M9.45 -27.0 L8.45 -27.0 7.3 -28.65 5.7 -28.65 5.75 -21.05 5.75 -19.25 10.15 -19.25 10.45 -19.6 10.5 -19.65 11.65 -21.0 11.0 -23.25 10.65 -24.7 10.0 -27.0 9.45 -27.0 M-1.6 -27.65 L2.15 -27.65 4.15 -28.65 5.7 -28.65 M10.55 -19.25 L10.15 -19.25 M10.45 -19.6 L10.55 -19.25 10.55 -15.15 7.45 -10.5 7.1 -8.05 7.1 -7.95 M-7.35 -8.5 L-7.35 -10.05 -10.5 -13.1 -12.65 -15.25 -12.65 -16.7 -13.4 -17.0 -13.95 -17.35 -13.9 -17.65 Q-15.0 -21.7 -14.25 -26.55 L-12.7 -29.75 -11.35 -30.2 -10.1 -30.2 -9.45 -30.2 -4.7 -30.25 -1.6 -27.65 0.3 -24.35 5.25 -24.35 M2.15 -21.05 L0.3 -24.35 M0.8 -14.05 L1.4 -17.25 2.15 -21.05 5.75 -21.05 M0.8 -14.05 L4.6 -14.4 5.25 -17.2 1.4 -17.25 M5.75 -19.25 L5.25 -17.2 M3.9 -11.55 L5.1 -11.55 Q6.3 -11.0 7.45 -10.5 M0.15 -10.85 L2.7 -11.55 3.9 -11.55 4.6 -14.4 M0.15 -10.85 L0.8 -14.05 M-7.4 -27.4 L-9.45 -30.2 M-4.7 -30.25 L-7.4 -27.4 -7.4 -24.15 -7.5 -20.4 -7.4 -17.4 -4.95 -11.25 -2.4 -11.9 0.15 -10.85 M-0.75 -6.75 L-0.45 -6.55 1.8 -6.4 M-1.15 -8.15 Q3.05 -8.7 7.1 -8.05 M-7.35 -10.05 L-7.1 -10.15 -4.95 -11.25 M-7.4 -17.4 L-10.5 -13.1" fill="none" stroke="#2b2927" stroke-linecap="round" stroke-linejoin="round" stroke-width="1.0"/>
    <path d="M-6.1 -8.8 L-8.2 -8.3 Q-8.65 -8.2 -9.15 -6.95 L-9.55 -5.7 -8.7 -2.15 -7.9 -1.5 Q-7.05 -0.75 -6.45 -0.55 L-0.3 0.25 1.6 2.3 5.45 2.9 8.4 -0.25 9.4 -7.3 6.25 -8.15" fill="none" stroke="#2b2927" stroke-linecap="round" stroke-linejoin="round" stroke-opacity="0.972549" stroke-width="1.0"/>
    <path d="M-6.1 -8.8 L-4.6 -10.2 -1.7 -10.05 -0.65 -6.35 1.4 -6.15 2.75 -7.25" fill="none" stroke="#2b2927" stroke-linecap="round" stroke-linejoin="round" stroke-width="1.0"/>
    <path d="M6.25 -8.15 L4.5 -7.0 4.05 -2.9 1.9 -0.55 5.45 2.9 M4.5 -7.0 L2.75 -7.25" fill="none" stroke="#2b2927" stroke-linecap="round" stroke-linejoin="round" stroke-width="1.0"/>
    <path d="M-0.65 -6.15 L-0.3 0.25" fill="none" stroke="#2b2927" stroke-linecap="round" stroke-linejoin="round" stroke-width="1.0"/>
    <path d="M-6.15 -8.75 L-5.15 -0.35" fill="none" stroke="#2b2927" stroke-linecap="round" stroke-linejoin="round" stroke-width="1.0"/>
  </g>
  <defs>
    <radialGradient cx="0" cy="0" gradientTransform="matrix(0.0067, 0.0, 0.0, 0.0067, 8.45, -24.05)" gradientUnits="userSpaceOnUse" id="gradient0" r="819.2" spreadMethod="pad">
      <stop offset="0.0" stop-color="#4f524e"/>
      <stop offset="1.0" stop-color="#373836"/>
    </radialGradient>
    <linearGradient gradientTransform="matrix(0.0045, 0.0, 0.0, 0.0046, 2.05, -24.85)" gradientUnits="userSpaceOnUse" id="gradient1" spreadMethod="pad" x1="-819.2" x2="819.2">
      <stop offset="0.0" stop-color="#666666"/>
      <stop offset="1.0" stop-color="#333333"/>
    </linearGradient>
    <radialGradient cx="0" cy="0" gradientTransform="matrix(0.0065, 0.0, 0.0, 0.0065, 7.45, -15.5)" gradientUnits="userSpaceOnUse" id="gradient2" r="819.2" spreadMethod="pad">
      <stop offset="0.0" stop-color="#4d4946"/>
      <stop offset="1.0" stop-color="#3c3b38"/>
      <stop offset="1.0" stop-color="#333333"/>
    </radialGradient>
    <linearGradient gradientTransform="matrix(0.0027, 0.0, 0.0, 0.0023, 3.55, -19.15)" gradientUnits="userSpaceOnUse" id="gradient3" spreadMethod="pad" x1="-819.2" x2="819.2">
      <stop offset="0.0" stop-color="#666666"/>
      <stop offset="1.0" stop-color="#333333"/>
    </linearGradient>
    <linearGradient gradientTransform="matrix(0.0027, 0.0, 0.0, 0.002, 3.0, -15.65)" gradientUnits="userSpaceOnUse" id="gradient4" spreadMethod="pad" x1="-819.2" x2="819.2">
      <stop offset="0.0" stop-color="#666666"/>
      <stop offset="1.0" stop-color="#333333"/>
    </linearGradient>
    <linearGradient gradientTransform="matrix(0.0027, 0.0, 0.0, 0.0022, 2.35, -12.65)" gradientUnits="userSpaceOnUse" id="gradient5" spreadMethod="pad" x1="-819.2" x2="819.2">
      <stop offset="0.0" stop-color="#666666"/>
      <stop offset="1.0" stop-color="#333333"/>
    </linearGradient>
    <radialGradient cx="0" cy="0" gradientTransform="matrix(0.0129, 0.0, 0.0, 0.0129, 2.85, -9.4)" gradientUnits="userSpaceOnUse" id="gradient6" r="819.2" spreadMethod="pad">
      <stop offset="0.0" stop-color="#4d4946"/>
      <stop offset="1.0" stop-color="#3c3b38"/>
      <stop offset="1.0" stop-color="#333333"/>
    </radialGradient>
    <radialGradient cx="0" cy="0" gradientTransform="matrix(0.0163, 0.0, 0.0, 0.0163, -3.55, -6.25)" gradientUnits="userSpaceOnUse" id="gradient7" r="819.2" spreadMethod="pad">
      <stop offset="0.0" stop-color="#4d4946"/>
      <stop offset="1.0" stop-color="#3c3b38"/>
      <stop offset="1.0" stop-color="#333333"/>
    </radialGradient>
    <radialGradient cx="0" cy="0" gradientTransform="matrix(0.0103, 0.0, 0.0, 0.0103, 1.3, -4.4)" gradientUnits="userSpaceOnUse" id="gradient8" r="819.2" spreadMethod="pad">
      <stop offset="0.0" stop-color="#4f524e"/>
      <stop offset="1.0" stop-color="#373836"/>
    </radialGradient>
    <radialGradient cx="0" cy="0" gradientTransform="matrix(0.014, 0.0, 0.0, 0.014, -12.4, -24.25)" gradientUnits="userSpaceOnUse" id="gradient9" r="819.2" spreadMethod="pad">
      <stop offset="0.0" stop-color="#4f524e"/>
      <stop offset="1.0" stop-color="#373836"/>
    </radialGradient>
    <radialGradient cx="0" cy="0" gradientTransform="matrix(0.0051, 0.0, 0.0, 0.0051, -8.05, -14.0)" gradientUnits="userSpaceOnUse" id="gradient10" r="819.2" spreadMethod="pad">
      <stop offset="0.0" stop-color="#4d4946"/>
      <stop offset="1.0" stop-color="#3c3b38"/>
      <stop offset="1.0" stop-color="#333333"/>
    </radialGradient>
    <radialGradient cx="0" cy="0" gradientTransform="matrix(0.0071, 0.0, 0.0, 0.0071, -8.4, -5.3)" gradientUnits="userSpaceOnUse" id="gradient11" r="819.2" spreadMethod="pad">
      <stop offset="0.0" stop-color="#4f524e"/>
      <stop offset="1.0" stop-color="#373836"/>
    </radialGradient>
  </defs>
</svg>
