<?xml version="1.0" encoding="UTF-8" standalone="no"?>
<svg xmlns:ffdec="https://www.free-decompiler.com/flash" xmlns:xlink="http://www.w3.org/1999/xlink" ffdec:objectType="shape" height="28.4px" width="23.35px" xmlns="http://www.w3.org/2000/svg">
  <g transform="matrix(1.0, 0.0, 0.0, 1.0, 3.1, -16.45)">
    <path d="M8.6 21.4 L3.1 19.5 4.45 16.95 9.8 17.7 8.6 21.4 M4.0 41.2 L8.65 42.5 13.35 42.5 13.35 39.55 15.6 39.55 15.6 44.35 8.85 44.35 3.45 42.85 4.0 41.2" fill="#696969" fill-rule="evenodd" stroke="none"/>
    <path d="M9.8 17.7 L13.3 18.2 12.6 20.15 8.6 21.4 9.8 17.7 M4.0 41.2 L4.5 39.55 13.35 39.55 13.35 42.5 8.65 42.5 4.0 41.2" fill="#313131" fill-rule="evenodd" stroke="none"/>
    <path d="M9.8 17.7 L13.3 18.2 12.6 20.15 8.6 21.4 3.1 19.5 4.45 16.95 9.8 17.7 8.6 21.4 M13.35 39.55 L4.5 39.55 4.0 41.2 3.45 42.85 8.85 44.35 15.6 44.35 15.6 39.55 13.35 39.55 Z" fill="none" stroke="#252525" stroke-linecap="round" stroke-linejoin="round" stroke-width="1.0"/>
    <path d="M2.35 27.75 L2.2 23.7 0.7 20.85 2.45 19.5 3.1 19.5 3.8 24.5 2.35 27.75 M7.35 40.7 L4.6 40.45 Q3.95 38.8 3.45 36.95 L11.95 37.7 9.0 37.7 7.35 40.7 M3.0 35.35 L2.25 32.0 2.85 31.8 2.8 31.35 5.35 35.5 5.95 35.55 3.0 35.35" fill="#191919" fill-rule="evenodd" stroke="none"/>
    <path d="M3.45 36.95 L2.8 36.9 2.2 35.3 3.0 35.35 5.95 35.55 6.55 35.6 7.7 35.7 12.45 36.05 11.95 37.7 3.45 36.95 M9.6 24.05 L9.6 25.3 11.25 26.6 11.4 28.35 11.5 30.15 Q10.05 31.8 7.95 31.45 L5.1 30.65 Q4.3 29.75 4.2 27.55 4.2 25.65 5.45 24.3 L9.6 24.05" fill="#2e2e2e" fill-rule="evenodd" stroke="none"/>
    <path d="M9.6 22.75 Q8.9 21.15 6.35 20.05 L5.0 19.5 12.6 20.15 Q14.9 21.3 15.2 22.8 L11.85 22.65 9.6 22.75 M17.6 36.85 L17.4 37.9 16.05 40.7 7.35 40.7 9.0 37.7 11.95 37.7 12.45 36.05 12.95 34.4 17.6 36.85" fill="#3c3c3c" fill-rule="evenodd" stroke="none"/>
    <path d="M9.6 24.05 L9.6 22.75 11.85 22.65 14.75 25.85 12.9 25.6 13.3 27.1 11.4 28.35 11.25 26.6 9.6 25.3 9.6 24.05" fill="#545454" fill-rule="evenodd" stroke="none"/>
    <path d="M0.7 20.85 L2.2 23.7 2.35 27.75 2.4 28.8 -0.6 30.3 2.4 28.8 2.8 31.35 2.85 31.8 2.25 32.0 1.0 32.35 -0.6 30.3 -1.25 29.75 -2.1 25.65 -2.5 23.9 Q-2.95 21.05 -1.4 20.85 L0.7 20.85" fill="#353535" fill-rule="evenodd" stroke="none"/>
    <path d="M2.4 28.8 L2.35 27.75 3.8 24.5 3.1 19.5 5.0 19.5 6.35 20.05 Q8.9 21.15 9.6 22.75 L9.6 24.05 5.45 24.3 Q4.2 25.65 4.2 27.55 4.3 29.75 5.1 30.65 L7.95 31.45 Q10.05 31.8 11.5 30.15 L11.75 33.75 12.95 34.4 12.45 36.05 7.7 35.7 6.55 35.6 5.95 35.55 5.35 35.5 2.8 31.35 2.4 28.8 M9.6 22.75 L6.35 20.05 9.6 22.75" fill="#202020" fill-rule="evenodd" stroke="none"/>
    <path d="M19.4 28.6 L19.65 30.4 13.55 29.45 13.55 31.5 19.75 32.2 19.6 33.95 Q19.05 35.55 17.6 36.85 L12.95 34.4 11.75 33.75 11.5 30.15 11.4 28.35 13.3 27.1 13.45 27.65 19.4 28.6" fill="#3a3a3a" fill-rule="evenodd" stroke="none"/>
    <path d="M15.2 22.8 L16.55 22.95 Q18.3 24.75 18.9 26.45 L14.75 25.85 11.85 22.65 15.2 22.8" fill="#707070" fill-rule="evenodd" stroke="none"/>
    <path d="M18.9 26.45 L19.4 28.6 13.45 27.65 13.3 27.1 12.9 25.6 14.75 25.85 18.9 26.45 M19.65 30.4 L19.75 32.2 13.55 31.5 13.55 29.45 19.65 30.4" fill="#383838" fill-rule="evenodd" stroke="none"/>
    <path d="M2.35 27.75 L2.2 23.7 0.7 20.85 -1.4 20.85 Q-2.95 21.05 -2.5 23.9 M-2.1 25.65 L-1.25 29.75 -0.6 30.3 2.4 28.8 2.35 27.75 M3.1 19.5 L2.45 19.5 0.7 20.85 M5.0 19.5 L3.1 19.5 M5.0 19.5 L12.6 20.15 Q14.9 21.3 15.2 22.8 L16.55 22.95 Q18.3 24.75 18.9 26.45 M19.4 28.6 L19.65 30.4 M19.75 32.2 L19.6 33.95 Q19.05 35.55 17.6 36.85 L17.4 37.9 16.05 40.7 7.35 40.7 4.6 40.45 Q3.95 38.8 3.45 36.95 M3.0 35.35 L2.25 32.0 1.0 32.35 -0.6 30.3 M9.6 22.75 L9.6 24.05 9.6 25.3 11.25 26.6 11.4 28.35 11.5 30.15 11.75 33.75 12.95 34.4 17.6 36.85 M11.85 22.65 L9.6 22.75 M9.6 24.05 L5.45 24.3 Q4.2 25.65 4.2 27.55 4.3 29.75 5.1 30.65 L7.95 31.45 Q10.05 31.8 11.5 30.15 M15.2 22.8 L11.85 22.65 M2.25 32.0 L2.85 31.8 2.8 31.35 2.4 28.8 M5.95 35.55 L6.55 35.6 7.7 35.7 12.45 36.05 M5.95 35.55 L3.0 35.35" fill="none" stroke="#0e0e0e" stroke-linecap="round" stroke-linejoin="round" stroke-width="1.0"/>
    <path d="M12.95 34.4 L12.45 36.05 11.95 37.7 9.0 37.7 7.35 40.7" fill="none" stroke="#121212" stroke-linecap="round" stroke-linejoin="round" stroke-width="1.0"/>
    <path d="M3.45 36.95 L2.8 36.9 2.2 35.3 3.0 35.35 M11.95 37.7 L3.45 36.95" fill="none" stroke="#171717" stroke-linecap="round" stroke-linejoin="round" stroke-width="1.0"/>
    <path d="M-2.5 23.9 L-2.1 25.65 M18.9 26.45 L19.4 28.6 13.45 27.65 13.3 27.1 12.9 25.6 14.75 25.85 18.9 26.45 M19.65 30.4 L19.75 32.2 13.55 31.5 13.55 29.45 19.65 30.4" fill="none" stroke="#1c1c1c" stroke-linecap="round" stroke-linejoin="round" stroke-width="1.0"/>
    <path d="M6.35 20.05 L9.6 22.75" fill="none" stroke="#191919" stroke-linecap="round" stroke-linejoin="round" stroke-width="1.2000000000000002"/>
  </g>
</svg>
