<?xml version="1.0" encoding="UTF-8" standalone="no"?>
<svg xmlns:ffdec="https://www.free-decompiler.com/flash" xmlns:xlink="http://www.w3.org/1999/xlink" ffdec:objectType="shape" height="8.25px" width="5.1px" xmlns="http://www.w3.org/2000/svg">
  <g transform="matrix(1.0, 0.0, 0.0, 1.0, 0.55, 1.35)">
    <path d="M0.0 2.35 L0.0 -0.8 3.25 -0.8 Q4.75 0.95 3.25 2.35 L2.55 2.35 0.0 2.35 M1.95 5.2 L1.95 6.35 0.0 6.35 0.0 4.75 1.95 5.2" fill="#232323" fill-rule="evenodd" stroke="none"/>
    <path d="M0.0 2.35 L2.55 2.35 2.55 2.45 1.95 2.45 1.95 5.2 0.0 4.75 0.0 2.45 0.0 2.35" fill="#2c0101" fill-rule="evenodd" stroke="none"/>
    <path d="M2.55 2.35 L3.25 2.35 Q4.75 0.95 3.25 -0.8 L0.0 -0.8 0.0 2.35 2.55 2.35 M1.95 2.45 L1.95 5.2 1.95 6.35 0.0 6.35 0.0 4.75 0.0 2.45" fill="none" stroke="#121212" stroke-linecap="round" stroke-linejoin="round" stroke-width="1.1"/>
    <path d="M3.95 -0.15 L4.1 0.85 3.95 1.85 3.45 2.2 2.8 1.8 Q2.55 1.4 2.55 0.8 2.55 0.2 2.8 -0.2 L3.45 -0.6 3.95 -0.15" fill="url(#gradient0)" fill-rule="evenodd" stroke="none"/>
    <path d="M3.95 -0.15 L4.1 0.85 3.95 1.85 3.45 2.2 2.8 1.8 Q2.55 1.4 2.55 0.8 2.55 0.2 2.8 -0.2 L3.45 -0.6 3.95 -0.15 Z" fill="none" stroke="#2e0000" stroke-linecap="round" stroke-linejoin="round" stroke-width="0.8"/>
  </g>
  <defs>
    <linearGradient gradientTransform="matrix(9.0E-4, 0.0, 0.0, 0.0017, 3.3, 0.8)" gradientUnits="userSpaceOnUse" id="gradient0" spreadMethod="pad" x1="-819.2" x2="819.2">
      <stop offset="0.0" stop-color="#3a0303"/>
      <stop offset="0.596078431372549" stop-color="#db0000"/>
      <stop offset="0.9058823529411765" stop-color="#850000"/>
    </linearGradient>
  </defs>
</svg>
