<?xml version="1.0" encoding="UTF-8" standalone="no"?>
<svg xmlns:ffdec="https://www.free-decompiler.com/flash" xmlns:xlink="http://www.w3.org/1999/xlink" ffdec:objectType="shape" height="34.3px" width="27.1px" xmlns="http://www.w3.org/2000/svg">
  <g transform="matrix(1.0, 0.0, 0.0, 1.0, 15.45, 38.3)">
    <path d="M-4.9 -28.45 L-3.9 -30.9 Q-1.6 -33.45 0.6 -32.9 2.8 -32.35 4.95 -28.85 L6.15 -25.95 3.35 -25.95 0.7 -28.2 -4.9 -28.45 M7.4 -9.6 L6.05 -6.2 Q4.9 -4.15 -0.75 -4.55 -3.35 -6.2 -4.7 -8.1 -6.1 -9.95 -5.2 -10.05 -3.1 -10.05 -5.5 -14.05 -7.95 -18.1 -0.15 -17.35 L3.35 -19.75 5.75 -16.45 5.2 -13.65 Q4.7 -10.9 7.4 -9.6" fill="#191919" fill-rule="evenodd" stroke="none"/>
    <path d="M6.15 -25.95 L7.95 -25.45 Q9.2 -25.05 7.9 -22.65 6.6 -20.25 8.9 -24.0 9.75 -23.55 10.55 -23.15 L10.55 -20.45 Q8.85 -18.4 9.2 -17.8 L9.55 -16.5 9.6 -16.3 9.7 -16.2 9.6 -16.25 9.8 -15.95 10.25 -15.65 9.65 -13.85 7.75 -10.25 7.75 -9.75 7.65 -10.1 7.45 -9.75 7.6 -10.3 Q7.35 -10.95 7.35 -10.3 L7.4 -9.6 Q4.7 -10.9 5.2 -13.65 6.15 -15.6 6.1 -16.7 L5.75 -16.45 3.35 -19.75 3.35 -25.95 6.15 -25.95 M9.65 -13.85 Q10.1 -15.35 9.8 -15.95 10.1 -15.35 9.65 -13.85 M7.65 -10.1 L7.75 -10.25 7.65 -10.1" fill="url(#gradient0)" fill-rule="evenodd" stroke="none"/>
    <path d="M-6.7 -17.65 Q-8.6 -18.05 -8.3 -23.0 -8.1 -26.25 -4.9 -28.45 L0.7 -28.2 3.35 -25.95 3.35 -19.75 -0.15 -17.35 -6.7 -17.65" fill="url(#gradient1)" fill-rule="evenodd" stroke="none"/>
    <path d="M-5.2 -10.05 Q-6.15 -10.5 -6.3 -10.75 L-7.05 -13.15 Q-7.9 -15.75 -6.7 -17.65 L-0.15 -17.35 Q-7.95 -18.1 -5.5 -14.05 -3.1 -10.05 -5.2 -10.05" fill="url(#gradient2)" fill-rule="evenodd" stroke="none"/>
    <path d="M-4.9 -28.45 L-3.9 -30.9 Q-1.6 -33.45 0.6 -32.9 2.8 -32.35 4.95 -28.85 L6.15 -25.95 M7.4 -9.6 L6.05 -6.2 Q4.9 -4.15 -0.75 -4.55 -3.35 -6.2 -4.7 -8.1" fill="none" stroke="#000000" stroke-linecap="round" stroke-linejoin="round" stroke-width="1.0"/>
    <path d="M9.6 -16.3 L9.7 -16.2 9.8 -15.95 M-4.7 -8.1 Q-6.1 -9.95 -5.2 -10.05 -6.15 -10.5 -6.3 -10.75 L-7.05 -13.15 Q-7.9 -15.75 -6.7 -17.65 -8.6 -18.05 -8.3 -23.0 -8.1 -26.25 -4.9 -28.45 L0.7 -28.2 3.35 -25.95 6.15 -25.95 M5.75 -16.45 L3.35 -19.75 -0.15 -17.35 Q-7.95 -18.1 -5.5 -14.05 -3.1 -10.05 -5.2 -10.05 M3.35 -25.95 L3.35 -19.75 M-6.7 -17.65 L-0.15 -17.35" fill="none" stroke="#151515" stroke-linecap="round" stroke-linejoin="round" stroke-width="1.0"/>
    <path d="M9.65 -13.85 L7.75 -10.25 7.65 -10.1 7.45 -9.75 M9.8 -15.95 Q10.1 -15.35 9.65 -13.85 M5.75 -16.45 L5.2 -13.65 Q4.7 -10.9 7.4 -9.6" fill="none" stroke="#0e0e0e" stroke-linecap="round" stroke-linejoin="round" stroke-width="1.0"/>
    <path d="M4.75 -26.45 Q4.35 -26.1 3.5 -26.1 L4.05 -26.2 4.75 -26.45 M9.6 -24.3 L8.7 -25.05 7.75 -25.65 8.75 -25.05 10.65 -23.6 10.25 -23.5 9.6 -24.3" fill="url(#gradient3)" fill-rule="evenodd" stroke="none"/>
    <path d="M3.5 -26.1 Q4.35 -26.1 4.75 -26.45 L6.1 -25.95 7.15 -25.9 7.3 -25.9 7.3 -25.85 7.75 -25.65 8.7 -25.05 9.6 -24.3 7.0 -21.8 7.2 -15.75 7.0 -21.8 9.6 -24.3 10.25 -23.5 10.45 -23.15 10.9 -21.6 11.0 -21.05 11.0 -21.0 11.1 -18.9 11.0 -18.5 Q10.7 -17.2 10.0 -15.8 L7.2 -15.75 5.8 -15.75 3.5 -19.65 3.5 -26.1" fill="url(#gradient4)" fill-rule="evenodd" stroke="none"/>
    <path d="M10.45 -23.15 L11.15 -21.6 Q11.0 -21.45 11.0 -21.05 L10.9 -21.6 10.45 -23.15" fill="url(#gradient5)" fill-rule="evenodd" stroke="none"/>
    <path d="M7.2 -15.75 L7.0 -21.8 9.6 -24.3" fill="none" stroke="url(#gradient6)" stroke-linecap="round" stroke-linejoin="round" stroke-width="1.0"/>
    <path d="M7.3 -25.85 L7.75 -25.65 8.7 -25.05 9.6 -24.3 10.25 -23.5 10.45 -23.15 10.9 -21.6 11.0 -21.05" fill="none" stroke="#0e0e0e" stroke-linecap="round" stroke-linejoin="round" stroke-width="1.0"/>
    <path d="M11.0 -21.0 L11.1 -18.9 11.0 -18.5 Q10.7 -17.2 10.0 -15.8 L5.8 -15.75 3.5 -19.65 3.5 -26.1 Q4.35 -26.1 4.75 -26.45 L7.15 -25.9" fill="none" stroke="#0e0e0e" stroke-linecap="round" stroke-linejoin="round" stroke-width="1.0"/>
    <path d="M-6.0 -27.35 Q-7.95 -28.85 -8.0 -29.95 -9.15 -29.85 -9.3 -30.7 -9.45 -31.6 -8.55 -32.1 L-7.25 -33.0 Q-6.85 -33.4 -6.85 -34.0 -6.85 -34.65 -5.6 -34.25 -4.35 -33.85 -4.45 -35.2 -4.55 -36.6 -0.35 -37.8 M-8.0 -29.95 L-7.95 -30.65 -7.0 -31.55 Q-6.25 -32.15 -5.55 -31.8 -4.9 -31.45 -3.4 -33.2 -1.9 -35.0 0.75 -35.2 M-5.75 -29.7 L-8.0 -29.95" fill="none" stroke="#080807" stroke-linecap="round" stroke-linejoin="round" stroke-opacity="0.8784314" stroke-width="1.0"/>
    <path d="M-2.8 -25.5 L0.45 -27.0 5.0 -26.15 5.25 -25.95 4.6 -24.8 3.1 -25.05 2.75 -25.1 2.7 -25.1 1.25 -24.9 0.1 -24.2 -3.05 -23.65 -2.8 -24.9 -2.8 -25.5 M6.3 -7.85 L5.65 -6.55 -2.8 -7.65 -2.5 -8.2 -2.55 -9.2 6.3 -7.85 M-9.1 -8.75 L-10.0 -8.9 -10.45 -9.25 Q-10.35 -11.85 -10.85 -14.85 L-11.2 -16.35 -12.55 -16.65 -12.55 -18.15 -12.3 -20.85 -12.35 -21.6 Q-12.45 -22.85 -12.05 -24.05 L-11.8 -24.75 -11.4 -25.5 -10.95 -26.25 -9.6 -28.3 -8.3 -29.55 Q-7.6 -30.3 -6.15 -30.2 -4.35 -30.0 -2.9 -27.8 L-4.25 -28.75 Q-6.65 -27.55 -7.95 -26.1 L-8.95 -24.9 -9.45 -24.1 Q-10.05 -23.05 -10.15 -22.0 L-10.2 -21.35 -10.2 -21.3 -10.35 -21.0 -10.4 -20.95 Q-11.0 -19.95 -8.7 -22.85 -6.45 -25.75 -3.15 -22.55 L-3.85 -18.0 -8.85 -18.0 -9.65 -17.4 -9.45 -14.5 -9.1 -8.75 M-2.6 -12.45 L7.25 -10.65 6.8 -9.3 -2.65 -10.75 Q-2.3 -11.3 -2.6 -12.45 M-12.3 -20.85 Q-11.7 -19.9 -10.4 -20.95 L-10.2 -21.35 -10.4 -20.95 Q-11.7 -19.9 -12.3 -20.85" fill="#1e1e1e" fill-rule="evenodd" stroke="none"/>
    <path d="M6.8 -9.3 L6.3 -7.85 -2.55 -9.2 -2.6 -10.5 -8.2 -10.5 -8.2 -12.55 -2.8 -12.55 -2.6 -12.45 Q-2.3 -11.3 -2.65 -10.75 L-2.6 -10.5 -2.65 -10.75 6.8 -9.3 M-2.95 -15.45 Q-2.3 -14.4 -2.75 -12.95 L-8.3 -12.85 -8.3 -14.5 -8.3 -15.4 -2.95 -15.45" fill="#232323" fill-rule="evenodd" stroke="none"/>
    <path d="M-2.8 -24.9 L-3.05 -23.65 -3.15 -22.55 Q-6.45 -25.75 -8.7 -22.85 -11.0 -19.95 -10.4 -20.95 L-10.35 -21.0 -10.2 -21.3 -10.2 -21.35 -10.15 -22.0 Q-10.05 -23.05 -9.45 -24.1 L-8.95 -24.9 -7.95 -26.1 -2.8 -24.9 M-2.8 -7.65 L-3.35 -7.05 -7.9 -7.05 -9.05 -7.9 -9.1 -8.75 -9.45 -14.5 -8.3 -14.5 -8.3 -12.85 -2.75 -12.95 -2.8 -12.55 -8.2 -12.55 -8.2 -10.5 -2.6 -10.5 -2.55 -9.2 -2.5 -8.2 -2.8 -7.65 M-10.45 -9.25 L-13.15 -8.2 Q-14.25 -8.65 -14.75 -10.15 L-14.9 -11.6 Q-15.1 -13.5 -14.75 -15.65 -13.75 -16.75 -12.55 -16.65 L-11.2 -16.35 -10.85 -14.85 -12.6 -13.3 -13.1 -11.6 -14.9 -11.6 -13.1 -11.6 -12.6 -13.3 -10.85 -14.85 Q-10.35 -11.85 -10.45 -9.25" fill="#171717" fill-rule="evenodd" stroke="none"/>
    <path d="M-2.8 -25.5 L-2.8 -24.9 -7.95 -26.1 Q-6.65 -27.55 -4.25 -28.75 L-2.9 -27.8 -2.8 -25.5" fill="#1c1c1c" fill-rule="evenodd" stroke="none"/>
    <path d="M-3.85 -18.0 L-3.15 -17.9 -2.95 -15.45 -8.3 -15.4 -8.3 -14.5 -9.45 -14.5 -9.65 -17.4 -8.85 -18.0 -3.85 -18.0 M-2.8 -12.55 L-2.65 -12.55 -2.6 -12.45 -2.8 -12.55" fill="#202020" fill-rule="evenodd" stroke="none"/>
    <path d="M5.0 -26.15 L0.45 -27.0 -2.8 -25.5 -2.8 -24.9 -3.05 -23.65 0.1 -24.2 1.25 -24.9 2.7 -25.1 2.75 -25.1 M3.1 -25.05 L4.6 -24.8 5.25 -25.95 M6.3 -7.85 L5.65 -6.55 -2.8 -7.65 -3.35 -7.05 -7.9 -7.05 -9.05 -7.9 -9.1 -8.75 -10.0 -8.9 -10.45 -9.25 -13.15 -8.2 Q-14.25 -8.65 -14.75 -10.15 L-14.9 -11.6 Q-15.1 -13.5 -14.75 -15.65 -13.75 -16.75 -12.55 -16.65 L-12.55 -18.15 -12.3 -20.85 -12.35 -21.6 Q-12.45 -22.85 -12.05 -24.05 M-11.8 -24.75 L-11.4 -25.5 -10.95 -26.25 -9.6 -28.3 -8.3 -29.55 Q-7.6 -30.3 -6.15 -30.2 -4.35 -30.0 -2.9 -27.8 L-2.8 -25.5 M-2.6 -12.45 L7.25 -10.65 6.8 -9.3 6.3 -7.85 -2.55 -9.2 -2.5 -8.2 -2.8 -7.65 M-10.2 -21.35 L-10.15 -22.0 Q-10.05 -23.05 -9.45 -24.1 L-8.95 -24.9 -7.95 -26.1 Q-6.65 -27.55 -4.25 -28.75 L-2.9 -27.8 M-7.95 -26.1 L-2.8 -24.9 M-3.05 -23.65 L-3.15 -22.55 -3.85 -18.0 -3.15 -17.9 -2.95 -15.45 Q-2.3 -14.4 -2.75 -12.95 L-2.8 -12.55 -2.65 -12.55 -2.6 -12.45 -2.8 -12.55 -8.2 -12.55 -8.2 -10.5 -2.6 -10.5 -2.65 -10.75 Q-2.3 -11.3 -2.6 -12.45 M-8.3 -14.5 L-8.3 -15.4 -2.95 -15.45 M-2.75 -12.95 L-8.3 -12.85 -8.3 -14.5 M-9.45 -14.5 L-9.1 -8.75 M-3.85 -18.0 L-8.85 -18.0 -9.65 -17.4 -9.45 -14.5 M-10.4 -20.95 L-10.35 -21.0 -10.2 -21.3 -10.2 -21.35 -10.4 -20.95 Q-11.7 -19.9 -12.3 -20.85 M-10.85 -14.85 L-11.2 -16.35 -12.55 -16.65 M-14.9 -11.6 L-13.1 -11.6 -12.6 -13.3 -10.85 -14.85 Q-10.35 -11.85 -10.45 -9.25 M-2.55 -9.2 L-2.6 -10.5 M-2.65 -10.75 L6.8 -9.3" fill="none" stroke="#070707" stroke-linecap="round" stroke-linejoin="round" stroke-width="1.0"/>
    <path d="M2.35 -15.15 L2.35 -13.55 2.95 -11.6 1.05 -11.45 -7.35 -11.8 Q-8.05 -13.2 -7.75 -14.9 L1.05 -15.25 2.35 -15.15" fill="#191919" fill-rule="evenodd" stroke="none"/>
    <path d="M2.95 -11.6 L1.05 -11.45 -7.35 -11.8 Q-8.05 -13.2 -7.75 -14.9 L1.05 -15.25 2.35 -15.15" fill="none" stroke="#111111" stroke-linecap="round" stroke-linejoin="round" stroke-width="1.0"/>
    <path d="M1.9 -13.95 Q1.85 -14.55 1.95 -15.15 L1.8 -15.15 -0.05 -15.15 -2.2 -15.15 -8.15 -15.15 -10.0 -15.15 -10.0 -17.5 -9.85 -17.6 -9.2 -17.6 -9.1 -17.6 -8.6 -17.6 Q-8.3 -17.65 -8.05 -17.85 -8.45 -18.5 -8.3 -19.45 L-8.25 -19.7 Q-6.0 -20.3 -3.1 -19.7 L2.4 -19.7 Q5.7 -19.55 4.95 -18.15 5.05 -17.65 5.25 -17.65 L6.15 -17.65 6.35 -17.65 6.35 -16.3 5.95 -16.05 6.45 -15.35 6.4 -15.15 6.4 -14.75 6.3 -13.45 6.15 -12.2 Q6.15 -11.7 5.75 -11.4 L5.2 -11.35 4.35 -11.25 3.2 -11.2 2.65 -11.2 Q2.0 -12.55 1.9 -13.95 M-2.15 -13.95 L-0.05 -14.25 1.8 -13.95 1.8 -11.25 1.55 -11.35 0.85 -11.4 0.3 -11.4 -0.3 -11.4 -0.75 -11.35 -2.1 -11.25 -2.15 -13.95 -2.1 -11.25 -3.0 -11.15 Q-5.05 -11.0 -6.15 -11.9 L-6.15 -11.4 -7.45 -11.35 -8.3 -11.25 -9.4 -11.2 -10.0 -11.2 -10.0 -13.95 -8.2 -14.15 -2.15 -13.95 M4.0 -14.85 L4.0 -15.65 4.0 -14.85 5.85 -15.15 4.0 -14.85 4.0 -14.3 4.0 -14.85 1.95 -15.15 4.0 -14.85 M-3.4 -17.6 L-3.4 -18.0 Q-3.0 -18.95 -3.1 -19.7 -3.0 -18.95 -3.4 -18.0 L-3.4 -17.6 M-8.15 -15.85 L-8.15 -15.15 -8.15 -15.85 M-0.05 -15.8 L-0.05 -15.15 -0.05 -15.8 M-6.2 -13.45 L-6.2 -12.95 -6.15 -12.55 -6.1 -12.6 -6.2 -13.45" fill="#232323" fill-rule="evenodd" stroke="none"/>
    <path d="M1.8 -15.15 L1.8 -13.95 -0.05 -14.25 -2.15 -13.95 -2.2 -15.15 -2.15 -13.95 -8.2 -14.15 -10.0 -13.95 -10.0 -15.15 -8.15 -15.15 -8.2 -14.15 -8.15 -15.15 -2.2 -15.15 -0.05 -15.15 -0.05 -14.25 -0.05 -15.15 1.8 -15.15 M-8.25 -19.7 L-8.05 -20.55 Q-5.75 -21.2 -3.45 -20.55 L-3.1 -19.7 Q-6.0 -20.3 -8.25 -19.7" fill="#141414" fill-rule="evenodd" stroke="none"/>
    <path d="M1.8 -13.95 L1.9 -13.95" fill="none" stroke="#0f0f0f" stroke-linecap="round" stroke-linejoin="round" stroke-width="0.30000000000000004"/>
    <path d="M4.0 -15.65 L4.0 -14.85 4.0 -14.3 M-8.15 -15.15 L-8.15 -15.85 M-8.2 -14.15 L-8.15 -15.15 M-0.05 -15.15 L-0.05 -15.8 M-0.05 -15.15 L-0.05 -14.25" fill="none" stroke="#323333" stroke-linecap="round" stroke-linejoin="round" stroke-width="1.0"/>
    <path d="M1.95 -15.15 L1.8 -15.15 -0.05 -15.15 -2.2 -15.15 -2.15 -13.95 -2.1 -11.25 M4.0 -14.85 L5.85 -15.15 M1.95 -15.15 L4.0 -14.85 M4.95 -18.15 Q5.7 -19.55 2.4 -19.7 L-3.1 -19.7 Q-3.0 -18.95 -3.4 -18.0 L-3.4 -17.6 M-8.25 -19.7 L-8.05 -20.55 Q-5.75 -21.2 -3.45 -20.55 L-3.1 -19.7 M-8.25 -19.7 L-8.3 -19.45 Q-8.45 -18.5 -8.05 -17.85 M-10.0 -15.15 L-8.15 -15.15 -2.2 -15.15" fill="none" stroke="#0f0f0f" stroke-linecap="round" stroke-linejoin="round" stroke-width="1.0"/>
    <path d="M5.85 -17.65 L5.9 -17.65 5.95 -17.6 5.95 -17.5 5.85 -17.05 5.75 -17.65 5.85 -17.65 5.95 -17.6 5.85 -17.65 M5.85 -14.35 L6.15 -14.45 6.2 -14.1 5.85 -13.95 5.85 -14.35 M3.2 -11.2 L3.0 -11.2 2.8 -11.2 2.8 -11.55 3.2 -11.65 3.2 -11.2 M2.15 -13.85 L1.95 -13.85 1.95 -14.25 2.05 -14.15 2.35 -13.95 2.15 -13.85 2.05 -14.15 2.15 -13.85 M-3.55 -11.15 L-3.95 -11.15 Q-4.25 -11.0 -4.55 -11.15 L-4.55 -11.35 -3.75 -11.5 -3.55 -11.15 M-5.8 -17.05 L-6.1 -17.05 -6.25 -17.65 -6.25 -17.35 -6.25 -16.9 -6.45 -16.9 -6.45 -17.35 -6.35 -17.5 -6.5 -17.65 -6.7 -17.8 -6.55 -18.15 -6.5 -18.15 -6.4 -18.1 -6.35 -17.8 -6.25 -17.85 -6.25 -17.65 -5.9 -17.75 -5.75 -17.6 -5.5 -17.95 -5.15 -17.95 -4.9 -17.6 -5.65 -17.35 -5.8 -17.25 -5.8 -17.05 M-6.25 -14.3 L-6.25 -14.25 -6.5 -14.25 -6.55 -14.3 -6.25 -14.3 M-6.25 -14.15 L-6.25 -13.85 -6.35 -13.85 -6.5 -13.95 -6.25 -14.15 -6.35 -13.85 -6.25 -14.15 M-6.95 -11.2 L-7.15 -11.2 -7.4 -11.2 -7.4 -11.65 -6.95 -11.55 -6.95 -11.35 -6.95 -11.2 M-10.0 -13.95 L-10.35 -14.1 -10.3 -14.45 -10.0 -14.35 -10.0 -13.95 M-10.1 -17.5 L-10.1 -17.6 -10.05 -17.65 -10.0 -17.65 -10.1 -17.6 -10.0 -17.65 -9.95 -17.65 -10.0 -17.05 -10.1 -17.5 M2.05 -16.9 L1.95 -16.9 1.8 -17.95 1.95 -17.95 2.05 -17.85 2.15 -17.8 2.2 -18.1 2.35 -18.15 2.4 -18.15 2.55 -17.8 2.35 -17.65 2.3 -17.6 2.15 -17.5 2.2 -17.45 2.3 -17.35 2.3 -16.9 2.05 -16.9 2.2 -17.45 2.05 -16.9 M4.85 -18.0 L4.85 -18.15 5.05 -18.1 4.85 -18.0 M0.05 -17.95 L-0.05 -18.0 0.35 -17.95 0.05 -17.95 M2.05 -15.65 L2.3 -15.7 2.35 -15.5 2.35 -15.15 2.05 -15.05 2.05 -15.65 2.05 -15.05 1.95 -15.05 1.95 -15.65 2.05 -15.65 M2.05 -14.3 L2.4 -14.3 2.35 -14.25 2.05 -14.25 2.05 -14.3 2.05 -14.25 1.95 -14.25 1.95 -14.3 2.05 -14.3 M-6.25 -15.05 L-6.5 -15.15 -6.5 -15.5 -6.45 -15.7 -6.25 -15.65 -6.25 -15.05 M-9.2 -18.1 L-9.0 -18.15 -9.0 -18.0 -9.2 -18.1" fill="#272727" fill-rule="evenodd" stroke="none"/>
    <path d="M2.55 -17.8 L2.9 -17.85 2.95 -17.8 2.55 -17.65 2.55 -17.8 M5.5 -11.4 L5.05 -11.2 4.6 -11.2 5.5 -11.4 M1.2 -11.2 L0.15 -11.15 -0.6 -11.15 1.2 -11.2 M-8.8 -11.2 L-9.2 -11.2 -9.7 -11.4 -8.8 -11.2 M-7.1 -17.8 L-7.05 -17.85 -6.7 -17.8 -6.7 -17.65 -7.1 -17.8 M-4.9 -17.6 L-4.2 -17.65 -4.9 -17.5 -4.9 -17.6" fill="#151515" fill-rule="evenodd" stroke="none"/>
    <path d="M5.85 -15.15 L5.85 -14.35 5.7 -14.35 5.65 -15.15 5.85 -15.15 M-6.1 -16.3 L-5.8 -17.05 -5.9 -16.3 -6.1 -16.3 M-10.0 -14.35 L-10.0 -15.15 -9.8 -15.15 -9.9 -14.35 -10.0 -14.35 M1.95 -16.55 L1.95 -16.6 2.05 -16.6 2.05 -16.45 1.95 -16.45 1.95 -16.55 M1.9 -16.25 L1.95 -16.25 2.05 -16.25 2.15 -16.25 2.15 -16.1 2.05 -16.1 1.9 -16.2 1.95 -16.25 1.9 -16.2 1.9 -16.25 M2.05 -16.25 L2.05 -16.1 2.05 -16.25 M-6.25 -16.25 L-6.25 -16.1 -6.35 -16.1 -6.35 -16.25 -6.25 -16.25" fill="#222222" fill-rule="evenodd" stroke="none"/>
    <path d="M2.05 -15.05 L2.05 -14.3 1.95 -14.3 1.95 -14.6 1.95 -14.65 1.95 -15.05 2.05 -15.05" fill="#121212" fill-opacity="0.49803922" fill-rule="evenodd" stroke="none"/>
    <path d="M1.95 -14.65 L1.9 -14.6 1.65 -14.5 1.65 -14.65 1.95 -14.65" fill="#111111" fill-opacity="0.49803922" fill-rule="evenodd" stroke="none"/>
    <path d="M5.55 -11.4 L5.55 -11.35 5.5 -11.4 5.55 -11.4 M4.6 -11.2 L4.45 -11.15 4.2 -11.15 4.45 -11.2 4.6 -11.2 M-0.6 -11.15 L-1.0 -11.0 -1.6 -10.95 -1.6 -11.0 -1.0 -11.15 -0.6 -11.15 M-8.35 -11.15 L-8.65 -11.15 -8.8 -11.2 -8.65 -11.2 -8.35 -11.15 M-9.7 -11.4 L-9.75 -11.35 -9.75 -11.4 -9.7 -11.4 M4.45 -11.15 L4.45 -11.2 4.45 -11.15 M-1.0 -11.0 L-1.0 -11.15 -1.0 -11.0 M-6.95 -11.35 L-6.85 -11.4 -6.85 -11.35 -6.95 -11.35 M-8.65 -11.15 L-8.65 -11.2 -8.65 -11.15" fill="#111111" fill-rule="evenodd" stroke="none"/>
    <path d="M2.55 -17.8 L2.9 -17.85 2.95 -17.8 4.85 -17.85 5.85 -17.65 5.95 -17.6 5.95 -17.5 Q6.15 -15.7 5.85 -15.15 L5.85 -14.35 5.85 -13.95 5.9 -12.45 Q5.9 -11.8 5.55 -11.4 L5.5 -11.4 5.05 -11.2 4.6 -11.2 4.45 -11.2 4.2 -11.15 3.2 -11.2 3.0 -11.2 2.8 -11.2 2.35 -11.5 2.3 -11.65 2.15 -13.85 2.05 -14.15 2.05 -14.25 2.05 -14.3 2.05 -15.05 2.05 -15.65 2.05 -16.1 2.05 -16.25 2.05 -16.45 2.05 -16.6 2.05 -16.9 2.2 -17.45 2.3 -17.6 2.35 -17.65 2.55 -17.8 M1.95 -13.85 L1.95 -12.75 1.95 -12.4 1.95 -12.35 1.9 -11.8 1.3 -11.2 1.2 -11.2 0.15 -11.15 -0.6 -11.15 -1.0 -11.15 -1.6 -11.0 -3.55 -11.15 -3.95 -11.15 Q-4.25 -11.0 -4.55 -11.15 -5.35 -11.15 -5.65 -11.5 -6.1 -11.8 -6.1 -12.35 L-6.1 -14.35 M-6.1 -14.45 L-6.1 -16.3 -5.8 -17.05 -5.8 -17.25 -5.65 -17.35 -4.9 -17.6 -4.2 -17.65 -0.05 -17.75 Q1.8 -17.8 1.95 -16.55 M-6.25 -17.35 L-6.25 -14.3 -6.25 -14.25 -6.25 -14.15 -6.35 -13.85 -6.45 -11.65 -6.5 -11.5 -6.95 -11.2 -7.15 -11.2 -7.4 -11.2 -8.35 -11.15 -8.65 -11.2 -8.8 -11.2 -9.2 -11.2 -9.7 -11.4 -9.75 -11.4 -10.05 -12.45 -10.0 -13.95 -10.0 -14.35 -10.0 -15.15 Q-10.3 -15.7 -10.1 -17.5 L-10.1 -17.6 -10.0 -17.65 -9.0 -17.85 -7.1 -17.8 -7.05 -17.85 -6.7 -17.8 -6.5 -17.65 -6.35 -17.5 M2.15 -17.5 L2.3 -17.6 M1.95 -14.25 L1.95 -13.85 1.9 -13.65 1.95 -12.4 M1.95 -14.6 L1.95 -14.3 1.95 -14.25" fill="none" stroke="#0f0f0f" stroke-linecap="round" stroke-linejoin="round" stroke-width="1.0"/>
    <path d="M1.95 -16.55 L1.95 -16.6 M1.95 -16.25 L1.95 -16.45 1.95 -16.55 M1.9 -16.2 L1.95 -15.65 1.95 -15.05 1.95 -14.65 1.9 -16.2 1.9 -16.25 M1.95 -16.25 L1.9 -16.2" fill="none" stroke="#121212" stroke-linecap="round" stroke-linejoin="round" stroke-width="1.0"/>
    <path d="M-6.1 -14.35 L-6.1 -14.45 M1.95 -14.65 L1.95 -14.6 M4.45 -11.2 L4.45 -11.15 M-1.0 -11.15 L-1.0 -11.0 M-8.65 -11.2 L-8.65 -11.15" fill="none" stroke="#111111" stroke-linecap="round" stroke-linejoin="round" stroke-width="1.0"/>
  </g>
  <defs>
    <radialGradient cx="0" cy="0" gradientTransform="matrix(0.0108, 0.0, 0.0, 0.0111, 7.7, -19.45)" gradientUnits="userSpaceOnUse" id="gradient0" r="819.2" spreadMethod="pad">
      <stop offset="0.0" stop-color="#333333"/>
      <stop offset="1.0" stop-color="#1f1f1f"/>
    </radialGradient>
    <radialGradient cx="0" cy="0" gradientTransform="matrix(0.0084, 0.0, 0.0, 0.0083, -2.55, -23.0)" gradientUnits="userSpaceOnUse" id="gradient1" r="819.2" spreadMethod="pad">
      <stop offset="0.0" stop-color="#333333"/>
      <stop offset="1.0" stop-color="#1f1f1f"/>
    </radialGradient>
    <radialGradient cx="0" cy="0" gradientTransform="matrix(0.0069, 0.0, 0.0, 0.0071, -3.85, -13.75)" gradientUnits="userSpaceOnUse" id="gradient2" r="819.2" spreadMethod="pad">
      <stop offset="0.0" stop-color="#333333"/>
      <stop offset="1.0" stop-color="#1f1f1f"/>
    </radialGradient>
    <radialGradient cx="0" cy="0" gradientTransform="matrix(0.0072, 0.0, 0.0, 0.0093, 7.35, -19.85)" gradientUnits="userSpaceOnUse" id="gradient3" r="819.2" spreadMethod="pad">
      <stop offset="0.0" stop-color="#333333"/>
      <stop offset="1.0" stop-color="#1f1f1f"/>
    </radialGradient>
    <radialGradient cx="0" cy="0" gradientTransform="matrix(0.0099, 0.0, 0.0, 0.0129, 3.8, -21.75)" gradientUnits="userSpaceOnUse" id="gradient4" r="819.2" spreadMethod="pad">
      <stop offset="0.0" stop-color="#333333"/>
      <stop offset="1.0" stop-color="#1c1c1c"/>
    </radialGradient>
    <radialGradient cx="0" cy="0" gradientTransform="matrix(0.0072, 0.0, 0.0, 0.0093, 7.35, -19.85)" gradientUnits="userSpaceOnUse" id="gradient5" r="819.2" spreadMethod="pad">
      <stop offset="0.0" stop-color="#1d2936"/>
      <stop offset="1.0" stop-color="#181d24"/>
    </radialGradient>
    <linearGradient gradientTransform="matrix(0.0053, 0.0, 0.0, 0.0071, 7.3, -21.1)" gradientUnits="userSpaceOnUse" id="gradient6" spreadMethod="pad" x1="-819.2" x2="819.2">
      <stop offset="0.23921568627450981" stop-color="#333333"/>
      <stop offset="1.0" stop-color="#000000"/>
    </linearGradient>
  </defs>
</svg>
