<?xml version="1.0" encoding="UTF-8" standalone="no"?>
<svg xmlns:ffdec="https://www.free-decompiler.com/flash" xmlns:xlink="http://www.w3.org/1999/xlink" ffdec:objectType="shape" height="29.55px" width="30.15px" xmlns="http://www.w3.org/2000/svg">
  <g transform="matrix(1.0, 0.0, 0.0, 1.0, 17.55, 32.6)">
    <path d="M1.7 -27.9 Q2.7 -27.8 3.95 -27.15 L4.1 -27.05 4.75 -26.65 6.05 -25.7 6.25 -25.55 6.35 -25.45 6.9 -25.0 7.15 -24.75 7.55 -24.4 8.6 -23.4 10.25 -21.6 Q12.2 -17.45 10.9 -14.75 10.4 -12.15 8.4 -11.7 L7.8 -10.65 2.8 -12.8 2.8 -16.45 Q1.2 -19.9 -0.55 -19.0 L-1.8 -17.85 -3.6 -18.95 -2.6 -20.3 -2.65 -23.9 0.0 -24.3 1.7 -27.9 M-6.3 -12.2 L-7.9 -12.2 -9.35 -17.15 -12.2 -20.0 -11.05 -21.1 Q-12.65 -27.2 -10.65 -30.95 L-10.0 -32.05 -10.0 -31.05 -10.0 -27.95 -7.3 -25.0 Q-7.15 -21.95 -6.6 -19.1 -5.85 -15.3 -4.3 -11.9 L-6.3 -12.2 M4.05 -20.25 L1.35 -22.35 4.05 -20.25" fill="#605c82" fill-rule="evenodd" stroke="none"/>
    <path d="M1.7 -27.9 L0.0 -24.3 -2.65 -23.9 -2.65 -25.95 -1.7 -26.65 -2.95 -30.85 Q0.75 -29.15 1.7 -27.9 M-2.6 -20.3 L-3.6 -18.95 -1.8 -17.85 -0.55 -19.0 Q1.2 -19.9 2.8 -16.45 L2.8 -12.8 7.8 -10.65 Q6.75 -9.6 4.6 -9.3 L5.4 -4.8 Q5.25 -3.0 3.95 -4.1 L1.65 -6.05 -0.3 -6.0 -3.8 -3.75 Q-6.05 -3.05 -5.0 -4.8 L-3.7 -6.85 -2.3 -8.3 -0.65 -7.9 0.8 -9.7 -4.3 -11.9 Q-5.85 -15.3 -6.6 -19.1 L-2.6 -20.3 M-10.0 -31.05 Q-8.2 -31.9 -6.35 -31.35 L-7.25 -29.85 -7.3 -25.0 -10.0 -27.95 -10.0 -31.05" fill="#3a374e" fill-rule="evenodd" stroke="none"/>
    <path d="M-2.65 -23.9 L-2.6 -20.3 -6.6 -19.1 Q-7.15 -21.95 -7.3 -25.0 L-7.25 -29.85 -6.35 -31.35 -5.9 -32.1 -2.95 -30.85 -1.7 -26.65 -2.65 -25.95 -2.65 -23.9 M-3.7 -6.85 L-5.85 -9.05 -6.3 -12.2 -4.3 -11.9 0.8 -9.7 -0.65 -7.9 -2.3 -8.3 -3.7 -6.85 M-7.9 -12.2 L-11.15 -12.5 -12.55 -12.95 Q-14.45 -13.65 -14.7 -16.0 -13.9 -18.2 -12.2 -20.0 L-9.35 -17.15 -7.9 -12.2 M-12.55 -12.95 L-10.7 -14.9 -12.55 -12.95 M-4.3 -11.9 Q-3.4 -9.9 -2.3 -8.3 -3.4 -9.9 -4.3 -11.9" fill="#555889" fill-rule="evenodd" stroke="none"/>
    <path d="M7.8 -10.65 L8.4 -11.7 Q10.4 -12.15 10.9 -14.75 12.2 -17.45 10.25 -21.6 L8.6 -23.4 7.55 -24.4 7.15 -24.75 6.9 -25.0 6.35 -25.45 6.25 -25.55 6.05 -25.7 4.75 -26.65 4.1 -27.05 3.95 -27.15 Q2.7 -27.8 1.7 -27.9 L0.0 -24.3 -2.65 -23.9 M-2.6 -20.3 L-3.6 -18.95 -1.8 -17.85 -0.55 -19.0 Q1.2 -19.9 2.8 -16.45 L2.8 -12.8 7.8 -10.65 Q6.75 -9.6 4.6 -9.3 L5.4 -4.8 Q5.25 -3.0 3.95 -4.1 L1.65 -6.05 -0.3 -6.0 -3.8 -3.75 Q-6.05 -3.05 -5.0 -4.8 L-3.7 -6.85 -5.85 -9.05 -6.3 -12.2 -7.9 -12.2 -11.15 -12.5 -12.55 -12.95 Q-14.45 -13.65 -14.7 -16.0 -13.9 -18.2 -12.2 -20.0 L-11.05 -21.1 Q-12.65 -27.2 -10.65 -30.95 L-10.0 -32.05 -10.0 -31.05 Q-8.2 -31.9 -6.35 -31.35 M-2.95 -30.85 Q0.75 -29.15 1.7 -27.9 M-7.3 -25.0 L-10.0 -27.95 -10.0 -31.05 M-2.3 -8.3 L-3.7 -6.85 M-4.3 -11.9 L-6.3 -12.2 M-4.3 -11.9 Q-5.85 -15.3 -6.6 -19.1" fill="none" stroke="#322e34" stroke-linecap="round" stroke-linejoin="round" stroke-width="1.0"/>
    <path d="M1.35 -22.35 L4.05 -20.25" fill="none" stroke="#39364d" stroke-linecap="round" stroke-linejoin="round" stroke-width="1.0"/>
    <path d="M-2.65 -23.9 L-2.6 -20.3 -6.6 -19.1 Q-7.15 -21.95 -7.3 -25.0 L-7.25 -29.85 -6.35 -31.35 -5.9 -32.1 -2.95 -30.85 -1.7 -26.65 -2.65 -25.95 -2.65 -23.9 M-4.3 -11.9 L0.8 -9.7 -0.65 -7.9 -2.3 -8.3 Q-3.4 -9.9 -4.3 -11.9 M-12.2 -20.0 L-9.35 -17.15 -7.9 -12.2" fill="none" stroke="#3c383f" stroke-linecap="round" stroke-linejoin="round" stroke-width="1.0"/>
    <path d="M-10.7 -14.9 L-12.55 -12.95" fill="none" stroke="#ff0000" stroke-linecap="round" stroke-linejoin="round" stroke-opacity="0.0" stroke-width="1.0"/>
    <path d="M11.65 -19.2 Q12.35 -17.1 11.8 -14.8 L9.1 -15.05 Q7.65 -15.35 6.9 -15.8 7.3 -17.05 5.15 -19.4 L7.5 -19.65 Q6.25 -20.05 6.45 -23.4 6.8 -24.75 7.95 -24.2 10.8 -21.85 11.65 -19.2 L7.85 -19.6 7.5 -19.65 7.85 -19.6 11.65 -19.2" fill="#748785" fill-rule="evenodd" stroke="none"/>
    <path d="M9.1 -15.05 L8.45 -12.3 Q7.5 -9.65 4.2 -9.35 L1.85 -9.05 Q-0.8 -9.75 -0.65 -11.6 L3.9 -12.1 Q5.6 -12.0 6.0 -13.55 L6.0 -13.65 Q6.05 -15.8 6.35 -15.9 L6.9 -15.8 Q7.65 -15.35 9.1 -15.05 M8.45 -12.3 L7.85 -12.6 8.45 -12.3 M4.2 -9.35 L4.3 -10.15 4.2 -9.35" fill="#558983" fill-rule="evenodd" stroke="none"/>
    <path d="M-14.85 -17.45 Q-16.75 -19.15 -17.05 -20.5 L-12.75 -17.85 Q-13.4 -17.4 -14.85 -17.45 M-15.55 -24.3 L-11.25 -21.45 Q-11.8 -20.8 -13.55 -21.1 -15.4 -22.8 -15.55 -24.3" fill="#6a6a61" fill-rule="evenodd" stroke="none"/>
    <path d="M11.65 -19.2 Q12.35 -17.1 11.8 -14.8 L9.1 -15.05 M6.9 -15.8 Q7.3 -17.05 5.15 -19.4 L7.5 -19.65 7.85 -19.6 11.65 -19.2" fill="none" stroke="#324541" stroke-linecap="round" stroke-linejoin="round" stroke-width="1.1"/>
    <path d="M7.5 -19.65 Q6.25 -20.05 6.45 -23.4 6.8 -24.75 7.95 -24.2 10.8 -21.85 11.65 -19.2" fill="none" stroke="#324541" stroke-linecap="round" stroke-linejoin="round" stroke-width="1.0"/>
    <path d="M9.1 -15.05 L8.45 -12.3 Q7.5 -9.65 4.2 -9.35 L1.85 -9.05 Q-0.8 -9.75 -0.65 -11.6 L3.9 -12.1 Q5.6 -12.0 6.0 -13.55 L6.0 -13.65 Q6.05 -15.8 6.35 -15.9 L6.9 -15.8" fill="none" stroke="#38504a" stroke-linecap="round" stroke-linejoin="round" stroke-width="1.0"/>
    <path d="M9.1 -15.05 Q7.65 -15.35 6.9 -15.8" fill="none" stroke="#38504a" stroke-linecap="round" stroke-linejoin="round" stroke-width="1.1"/>
    <path d="M4.3 -10.15 L4.2 -9.35 M7.85 -12.6 L8.45 -12.3" fill="none" stroke="#38504a" stroke-linecap="round" stroke-linejoin="round" stroke-opacity="0.0" stroke-width="1.0"/>
    <path d="M-14.85 -17.45 Q-16.75 -19.15 -17.05 -20.5 L-12.75 -17.85 Q-13.4 -17.4 -14.85 -17.45 M-15.55 -24.3 L-11.25 -21.45 Q-11.8 -20.8 -13.55 -21.1 -15.4 -22.8 -15.55 -24.3 Z" fill="none" stroke="#41403f" stroke-linecap="round" stroke-linejoin="round" stroke-width="1.0"/>
    <path d="M12.1 -18.0 Q10.9 -17.95 10.3 -18.8 9.5 -20.45 10.9 -20.8 11.95 -19.5 12.1 -18.0" fill="#4c559b" fill-rule="evenodd" stroke="none"/>
    <path d="M12.1 -18.0 Q11.95 -19.5 10.9 -20.8 9.5 -20.45 10.3 -18.8 10.9 -17.95 12.1 -18.0 Z" fill="none" stroke="#252147" stroke-linecap="round" stroke-linejoin="round" stroke-width="1.0"/>
  </g>
</svg>
