<?xml version="1.0" encoding="UTF-8" standalone="no"?>
<svg xmlns:xlink="http://www.w3.org/1999/xlink" height="30.1px" width="93.9px" xmlns="http://www.w3.org/2000/svg">
  <g transform="matrix(1.0, 0.0, 0.0, 1.0, 21.65, 13.0)">
    <path d="M9.05 -8.7 Q9.25 -8.55 9.55 -8.45 L9.75 -8.45 9.85 -8.45 9.95 -8.45 10.35 -8.5 10.7 -8.65 11.6 -8.65 12.55 -8.65 12.55 -6.65 7.0 -6.65 7.0 -8.7 9.0 -8.7 9.55 -8.45 9.0 -8.7 9.05 -8.7 M30.3 1.9 L34.8 1.9 34.25 3.75 30.75 3.75 30.25 2.75 30.3 2.7 30.3 1.9 M-14.9 -1.75 Q-13.8 -2.9 -14.1 -4.65 L-6.2 -4.65 -6.2 -1.75 -14.9 -1.75" fill="#413835" fill-rule="evenodd" stroke="none"/>
    <path d="M9.05 -11.45 L8.85 -11.35 8.7 -11.2 Q8.25 -10.75 8.25 -10.05 8.25 -9.4 8.7 -8.95 L8.8 -8.85 9.05 -8.7 9.0 -8.7 7.0 -8.7 5.65 -8.7 4.35 -8.25 2.85 -8.25 2.2 -8.75 1.55 -8.25 -1.0 -8.25 -1.0 -11.9 1.55 -11.9 2.2 -11.35 2.85 -11.9 4.35 -11.9 5.65 -11.45 9.05 -11.45 M8.8 -8.85 L9.0 -8.7 8.8 -8.85 M11.6 -8.65 L10.7 -8.65 10.7 -8.7 11.6 -8.65 M5.65 1.0 L5.65 3.15 2.75 3.1 1.7 3.1 Q1.15 3.65 0.35 6.15 L-0.1 7.5 -1.1 11.05 -4.0 10.65 Q-5.0 10.35 -5.45 9.85 -6.1 9.1 -5.4 7.95 L-5.35 7.8 -4.5 6.5 -3.5 4.45 Q-3.2 3.6 -3.35 2.7 L-1.2 0.9 5.65 1.0 M7.0 7.1 L8.25 7.1 8.25 7.85 9.1 8.45 14.05 8.45 14.05 9.7 7.0 9.7 7.0 7.1 M14.8 5.35 L14.8 4.6 16.5 3.25 16.6 0.45 20.5 0.45 25.05 0.45 30.3 0.45 30.3 1.9 30.3 2.7 30.25 2.75 29.4 3.25 Q26.8 4.15 24.4 4.35 22.35 4.45 19.15 6.65 17.7 7.25 14.8 5.35 M37.45 0.7 L37.45 -1.45 21.9 -1.45 19.15 -5.45 40.85 -5.45 43.45 -4.0 43.45 -3.0 61.05 -3.0 61.2 -2.85 61.2 -0.95 61.0 -0.75 43.45 -0.75 41.0 0.7 37.45 0.7 M10.7 -11.45 L11.6 -11.45 10.7 -11.45 M19.15 -12.5 L22.8 -12.5 22.8 -7.65 19.15 -7.65 19.15 -12.5 M30.2 -3.2 L28.55 -3.2 30.2 -3.2 M25.4 -3.2 L23.75 -3.2 25.4 -3.2 M39.7 -3.2 L38.0 -3.2 39.7 -3.2 M34.95 -3.2 L33.35 -3.2 34.95 -3.2 M43.45 -0.75 L43.45 -3.0 43.45 -0.75 M24.4 4.35 L25.05 0.45 24.4 4.35 M20.5 0.45 L19.15 6.65 20.5 0.45 M-16.8 4.65 L-18.85 4.95 Q-19.8 4.8 -19.85 3.75 L-21.0 -0.9 Q-21.65 -3.85 -19.7 -4.5 L-14.1 -4.65 Q-13.8 -2.9 -14.9 -1.75 L-16.8 0.5 -16.8 4.65" fill="#505359" fill-rule="evenodd" stroke="none"/>
    <path d="M8.85 -11.35 L9.05 -11.45 9.8 -11.7 9.85 -11.7 9.95 -11.7 10.1 -11.65 10.4 -11.6 10.7 -11.45 11.0 -11.2 Q11.45 -10.75 11.45 -10.05 11.45 -9.4 11.0 -8.95 L10.7 -8.7 10.35 -8.5 10.7 -8.7 11.0 -8.95 Q11.45 -9.4 11.45 -10.05 11.45 -10.75 11.0 -11.2 L10.7 -11.45 10.4 -11.6 10.7 -11.45 11.6 -11.45 15.65 -11.5 19.15 -12.5 19.15 -7.65 15.65 -8.65 12.55 -8.65 11.6 -8.65 10.7 -8.7 10.7 -8.65 10.35 -8.5 9.95 -8.45 9.85 -8.45 9.75 -8.45 9.55 -8.45 Q9.25 -8.55 9.05 -8.7 L8.8 -8.85 8.7 -8.95 Q8.25 -9.4 8.25 -10.05 8.25 -10.75 8.7 -11.2 L8.85 -11.35" fill="#424446" fill-rule="evenodd" stroke="none"/>
    <path d="M-16.8 4.65 L-16.8 0.5 -14.9 -1.75 -6.2 -1.75 -6.2 0.45 -7.55 0.4 -9.55 0.5 -12.45 2.6 -12.7 2.8 -12.15 4.9 -7.25 7.1 -4.5 6.5 -5.35 7.8 -5.4 7.95 Q-6.1 9.1 -5.45 9.85 L-16.8 4.65 -14.25 4.15 -12.7 2.8 -14.25 4.15 -16.8 4.65" fill="#4b403b" fill-rule="evenodd" stroke="none"/>
    <path d="M7.0 -6.65 L12.55 -6.65 14.9 -6.65 16.15 -5.45 19.15 -5.45 21.9 -1.45 37.45 -1.45 37.45 0.7 35.2 1.9 34.8 1.9 30.3 1.9 30.3 0.45 25.05 0.45 20.5 0.45 16.6 0.45 14.6 0.45 14.6 -3.6 13.4 -4.65 7.0 -4.65 5.65 -3.6 5.65 1.0 -1.2 0.9 -3.35 2.7 Q-3.4 2.4 -3.8 1.95 -4.6 1.15 -6.2 0.75 L-6.2 0.45 -6.2 -1.75 -6.2 -4.65 -6.2 -4.9 -3.25 -4.95 Q-0.1 -5.3 1.0 -6.65 L7.0 -6.65 M2.75 -2.05 Q2.75 -1.65 3.05 -1.35 3.3 -1.05 3.7 -1.05 4.1 -1.05 4.4 -1.35 L4.7 -2.05 4.4 -2.7 3.7 -3.0 3.05 -2.7 2.75 -2.05 0.25 -2.05 2.75 -2.05 M-2.55 -1.65 L-4.45 -1.65 -2.55 -1.65" fill="#5d4d49" fill-rule="evenodd" stroke="none"/>
    <path d="M5.65 1.0 L5.65 -3.6 7.0 -4.65 13.4 -4.65 14.6 -3.6 14.6 0.45 16.6 0.45 16.5 3.25 14.8 4.6 14.8 5.35 14.8 7.1 14.05 7.1 8.25 7.1 7.0 7.1 6.6 7.1 5.65 6.2 5.65 3.15 5.65 1.0 M7.0 -3.05 L7.0 -1.0 12.85 -1.0 12.85 -3.05 7.0 -3.05 M61.05 -3.0 L60.6 -3.7 61.25 -4.15 71.75 -4.15 70.2 0.25 60.75 0.25 60.4 -0.25 61.0 -0.75 61.2 -0.95 61.2 -2.85 61.05 -3.0 M67.1 -1.9 L66.65 -1.9 67.1 -1.9 M64.4 -1.9 L63.35 -1.9 64.4 -1.9 M11.65 3.35 Q11.2 3.35 11.2 3.8 11.2 4.25 11.65 4.25 L12.1 3.8 Q12.1 3.35 11.65 3.35 M10.55 2.7 L11.0 2.25 10.9 1.9 Q10.8 1.75 10.55 1.75 10.3 1.75 10.2 1.9 L10.1 2.25 Q10.1 2.7 10.55 2.7 M9.5 3.35 Q9.0 3.35 9.0 3.8 9.0 4.25 9.5 4.25 L9.95 3.8 Q9.95 3.35 9.5 3.35" fill="#75757c" fill-rule="evenodd" stroke="none"/>
    <path d="M8.25 7.1 L14.05 7.1 14.05 8.45 9.1 8.45 8.25 7.85 8.25 7.1 M7.0 -3.05 L12.85 -3.05 12.85 -1.0 7.0 -1.0 7.0 -3.05" fill="#517159" fill-rule="evenodd" stroke="none"/>
    <path d="M2.75 -2.05 L3.05 -2.7 3.7 -3.0 4.4 -2.7 4.7 -2.05 4.4 -1.35 Q4.1 -1.05 3.7 -1.05 3.3 -1.05 3.05 -1.35 2.75 -1.65 2.75 -2.05" fill="#3f3f3f" fill-rule="evenodd" stroke="none"/>
    <path d="M10.55 2.7 Q10.1 2.7 10.1 2.25 L10.2 1.9 Q10.3 1.75 10.55 1.75 10.8 1.75 10.9 1.9 L11.0 2.25 10.55 2.7 M11.65 3.35 Q12.1 3.35 12.1 3.8 L11.65 4.25 Q11.2 4.25 11.2 3.8 11.2 3.35 11.65 3.35 M9.5 3.35 Q9.95 3.35 9.95 3.8 L9.5 4.25 Q9.0 4.25 9.0 3.8 9.0 3.35 9.5 3.35" fill="#1d1d1d" fill-rule="evenodd" stroke="none"/>
    <path d="M7.0 -8.7 L7.0 -6.65 M12.55 -6.65 L12.55 -8.65 M30.3 1.9 L34.8 1.9 35.2 1.9 37.45 0.7 M37.45 -1.45 L21.9 -1.45 19.15 -5.45 M34.8 1.9 L34.25 3.75 30.75 3.75 30.25 2.75 M-14.1 -4.65 L-6.2 -4.65 -6.2 -4.9 M-6.2 -4.65 L-6.2 -1.75 -6.2 0.45 -6.2 0.75 Q-4.6 1.15 -3.8 1.95 -3.4 2.4 -3.35 2.7 M-14.9 -1.75 L-6.2 -1.75" fill="none" stroke="#302a29" stroke-linecap="round" stroke-linejoin="round" stroke-width="1.0"/>
    <path d="M8.85 -11.35 L8.7 -11.2 Q8.25 -10.75 8.25 -10.05 8.25 -9.4 8.7 -8.95 L8.8 -8.85 9.0 -8.7 9.55 -8.45 9.75 -8.45 9.85 -8.45 9.95 -8.45 10.35 -8.5 10.7 -8.7 11.0 -8.95 Q11.45 -9.4 11.45 -10.05 11.45 -10.75 11.0 -11.2 L10.7 -11.45 10.4 -11.6 10.1 -11.65 9.95 -11.7 9.85 -11.7 9.8 -11.7 M9.05 -11.45 L5.65 -11.45 4.35 -11.9 2.85 -11.9 2.2 -11.35 1.55 -11.9 -1.0 -11.9 -1.0 -8.25 1.55 -8.25 2.2 -8.75 2.85 -8.25 4.35 -8.25 5.65 -8.7 7.0 -8.7 9.0 -8.7 9.05 -8.7 M12.55 -8.65 L11.6 -8.65 10.7 -8.65 M19.15 -7.65 L15.65 -8.65 12.55 -8.65 M10.7 -11.45 L11.6 -11.45 15.65 -11.5 19.15 -12.5 22.8 -12.5 22.8 -7.65 19.15 -7.65" fill="none" stroke="#2d2f2f" stroke-linecap="round" stroke-linejoin="round" stroke-width="1.0"/>
    <path d="M37.45 0.7 L37.45 -1.45 M19.15 -7.65 L19.15 -12.5 M33.35 -3.2 L34.95 -3.2 M38.0 -3.2 L39.7 -3.2 M23.75 -3.2 L25.4 -3.2 M28.55 -3.2 L30.2 -3.2 M19.15 -5.45 L40.85 -5.45 43.45 -4.0 43.45 -3.0" fill="none" stroke="#3f3f3f" stroke-linecap="round" stroke-linejoin="round" stroke-width="1.0"/>
    <path d="M7.0 -6.65 L12.55 -6.65 14.9 -6.65 16.15 -5.45 19.15 -5.45 M-6.2 -4.9 L-3.25 -4.95 Q-0.1 -5.3 1.0 -6.65 L7.0 -6.65 M-4.45 -1.65 L-2.55 -1.65 M-6.2 0.45 L-7.55 0.4 -9.55 0.5 -12.45 2.6 -12.7 2.8 -12.15 4.9 -7.25 7.1 -4.5 6.5 M-5.45 9.85 L-16.8 4.65" fill="none" stroke="#363331" stroke-linecap="round" stroke-linejoin="round" stroke-width="1.0"/>
    <path d="M16.6 0.45 L20.5 0.45 25.05 0.45 30.3 0.45 30.3 1.9 30.3 2.7 30.25 2.75 29.4 3.25 Q26.8 4.15 24.4 4.35 22.35 4.45 19.15 6.65 17.7 7.25 14.8 5.35 M7.0 -3.05 L12.85 -3.05 12.85 -1.0 7.0 -1.0 7.0 -3.05 M43.45 -3.0 L61.05 -3.0 M61.0 -0.75 L43.45 -0.75 M25.05 0.45 L24.4 4.35 M7.0 7.1 L7.0 9.7 14.05 9.7 14.05 8.45 9.1 8.45 8.25 7.85 8.25 7.1 M14.05 8.45 L14.05 7.1 M2.75 3.1 L3.0 4.85 M-5.45 9.85 Q-5.0 10.35 -4.0 10.65 L-1.1 11.05 -0.1 7.5 0.35 6.15 Q1.15 3.65 1.7 3.1 L2.75 3.1 5.65 3.15 M0.35 6.15 L5.65 6.2 M19.15 6.65 L20.5 0.45 M-14.1 -4.65 L-19.7 -4.5 Q-21.65 -3.85 -21.0 -0.9 L-19.85 3.75 Q-19.8 4.8 -18.85 4.95 L-16.8 4.65 -16.8 0.5 -14.9 -1.75 Q-13.8 -2.9 -14.1 -4.65 M-3.35 2.7 L-1.2 0.9 5.65 1.0 M-4.5 6.5 L-3.5 4.45 Q-3.2 3.6 -3.35 2.7 M-4.5 6.5 L-5.35 7.8 -5.4 7.95 Q-6.1 9.1 -5.45 9.85" fill="none" stroke="#2b2d2e" stroke-linecap="round" stroke-linejoin="round" stroke-width="1.0"/>
    <path d="M16.6 0.45 L14.6 0.45 14.6 -3.6 13.4 -4.65 7.0 -4.65 5.65 -3.6 5.65 1.0 5.65 3.15 5.65 6.2 6.6 7.1 7.0 7.1 8.25 7.1 14.05 7.1 14.8 7.1 14.8 5.35 14.8 4.6 16.5 3.25 16.6 0.45 M61.05 -3.0 L60.6 -3.7 61.25 -4.15 71.75 -4.15 70.2 0.25 60.75 0.25 60.4 -0.25 61.0 -0.75 61.2 -0.95 61.2 -2.85 61.05 -3.0 M63.35 -1.9 L64.4 -1.9 M66.65 -1.9 L67.1 -1.9" fill="none" stroke="#3e3f3f" stroke-linecap="round" stroke-linejoin="round" stroke-width="1.0"/>
    <path d="M2.75 -2.05 L0.25 -2.05" fill="none" stroke="#2c2f30" stroke-linecap="round" stroke-linejoin="round" stroke-width="1.0"/>
    <path d="M43.45 -0.75 L41.0 0.7 37.45 0.7 M43.45 -3.0 L43.45 -0.75" fill="none" stroke="#3f3f3f" stroke-linecap="round" stroke-linejoin="round" stroke-width="1.0"/>
    <path d="M-16.8 4.65 L-14.25 4.15 -12.7 2.8" fill="none" stroke="#3f3935" stroke-linecap="round" stroke-linejoin="round" stroke-width="1.0"/>
    <path d="M32.1 5.05 L31.9 4.9 Q31.5 4.65 31.4 4.15 L31.4 3.9 33.6 3.55 33.65 3.8 Q33.75 4.3 33.45 4.65 L33.3 4.85 32.75 5.1 32.1 5.05" fill="#5d4d49" fill-rule="evenodd" stroke="none"/>
    <path d="M32.1 5.05 L32.75 5.1 33.3 4.85 35.25 16.3 34.05 16.55 32.1 5.05" fill="#505359" fill-rule="evenodd" stroke="none"/>
    <path d="M31.4 3.9 L31.4 4.15 Q31.5 4.65 31.9 4.9 L32.1 5.05 32.75 5.1 33.3 4.85 33.45 4.65 Q33.75 4.3 33.65 3.8 L33.6 3.55" fill="none" stroke="#363331" stroke-linecap="round" stroke-linejoin="round" stroke-width="1.0"/>
    <path d="M33.6 3.55 L31.4 3.9" fill="none" stroke="#302a29" stroke-linecap="round" stroke-linejoin="round" stroke-width="1.0"/>
    <path d="M32.1 5.05 L34.05 16.55 35.25 16.3 33.3 4.85" fill="none" stroke="#2b2d2e" stroke-linecap="round" stroke-linejoin="round" stroke-width="1.0"/>
    <path d="M31.7 4.85 L31.6 4.7 Q31.35 4.35 31.4 3.85 L31.45 3.6 33.65 3.9 33.65 4.15 33.2 4.9 32.95 5.1 32.35 5.15 Q31.95 5.1 31.7 4.85" fill="#5d4d49" fill-rule="evenodd" stroke="none"/>
    <path d="M31.7 4.85 Q31.95 5.1 32.35 5.15 L32.95 5.1 31.35 16.6 30.1 16.4 31.7 4.85" fill="#505359" fill-rule="evenodd" stroke="none"/>
    <path d="M31.45 3.6 L31.4 3.85 Q31.35 4.35 31.6 4.7 L31.7 4.85 Q31.95 5.1 32.35 5.15 L32.95 5.1 33.2 4.9 33.65 4.15 33.65 3.9" fill="none" stroke="#363331" stroke-linecap="round" stroke-linejoin="round" stroke-width="1.0"/>
    <path d="M33.65 3.9 L31.45 3.6" fill="none" stroke="#302a29" stroke-linecap="round" stroke-linejoin="round" stroke-width="1.0"/>
    <path d="M31.7 4.85 L30.1 16.4 31.35 16.6 32.95 5.1" fill="none" stroke="#2b2d2e" stroke-linecap="round" stroke-linejoin="round" stroke-width="1.0"/>
  </g>
</svg>
