<?xml version="1.0" encoding="UTF-8" standalone="no"?>
<svg xmlns:ffdec="https://www.free-decompiler.com/flash" xmlns:xlink="http://www.w3.org/1999/xlink" ffdec:objectType="shape" height="28.4px" width="33.45px" xmlns="http://www.w3.org/2000/svg">
  <g transform="matrix(1.0, 0.0, 0.0, 1.0, 10.15, 0.5)">
    <path d="M12.4 0.75 L11.2 4.45 5.7 2.55 7.05 0.0 12.4 0.75 M6.6 24.25 L11.25 25.55 15.95 25.55 15.95 22.6 18.2 22.6 18.2 27.4 11.45 27.4 6.05 25.9 6.6 24.25" fill="#696969" fill-rule="evenodd" stroke="none"/>
    <path d="M12.4 0.75 L15.9 1.25 15.2 3.2 11.2 4.45 12.4 0.75 M6.6 24.25 L7.1 22.6 15.95 22.6 15.95 25.55 11.25 25.55 6.6 24.25" fill="#313131" fill-rule="evenodd" stroke="none"/>
    <path d="M11.2 4.45 L15.2 3.2 15.9 1.25 12.4 0.75 11.2 4.45 5.7 2.55 7.05 0.0 12.4 0.75 M15.95 22.6 L7.1 22.6 6.6 24.25 6.05 25.9 11.45 27.4 18.2 27.4 18.2 22.6 15.95 22.6 Z" fill="none" stroke="#252525" stroke-linecap="round" stroke-linejoin="round" stroke-width="1.0"/>
    <path d="M9.95 23.75 L7.2 23.5 Q6.55 21.85 6.05 20.0 L14.55 20.75 11.6 20.75 9.95 23.75 M5.6 18.4 L4.85 15.05 5.45 14.85 5.4 14.4 7.95 18.55 5.6 18.4 M3.3 3.9 L5.05 2.55 5.7 2.55 6.4 7.55 4.95 10.8 4.8 6.75 3.3 3.9" fill="#191919" fill-rule="evenodd" stroke="none"/>
    <path d="M6.05 20.0 L5.4 19.95 4.8 18.35 5.6 18.4 7.95 18.55 8.25 18.6 8.55 18.6 9.15 18.65 10.3 18.75 15.05 19.1 14.55 20.75 6.05 20.0 M13.85 9.65 L13.9 10.1 13.95 11.4 14.0 11.4 14.1 13.2 Q12.65 14.85 10.55 14.5 L7.7 13.7 Q6.9 12.8 6.8 10.6 6.8 8.7 8.05 7.35 L12.2 7.1 12.2 8.35 13.85 9.65" fill="#2e2e2e" fill-rule="evenodd" stroke="none"/>
    <path d="M4.85 15.05 L3.6 15.4 2.0 13.35 1.35 12.8 0.5 8.7 0.1 6.95 Q-0.35 4.1 1.2 3.9 L3.3 3.9 4.8 6.75 4.95 10.8 5.0 11.85 5.4 14.4 5.45 14.85 4.85 15.05 M2.0 13.35 L5.0 11.85 2.0 13.35" fill="#353535" fill-rule="evenodd" stroke="none"/>
    <path d="M5.7 2.55 L7.6 2.55 8.95 3.1 Q11.5 4.2 12.2 5.8 L12.2 7.1 8.05 7.35 Q6.8 8.7 6.8 10.6 6.9 12.8 7.7 13.7 L10.55 14.5 Q12.65 14.85 14.1 13.2 L14.15 13.65 14.2 15.0 14.25 15.0 14.35 16.8 15.55 17.45 15.05 19.1 10.3 18.75 9.15 18.65 8.55 18.6 8.25 18.6 7.95 18.55 5.4 14.4 5.0 11.85 4.95 10.8 6.4 7.55 5.7 2.55 M8.95 3.1 L12.2 5.8 8.95 3.1" fill="#202020" fill-rule="evenodd" stroke="none"/>
    <path d="M13.9 10.1 L14.0 11.4 13.95 11.4 13.9 10.1 M14.25 15.0 L14.2 15.0 14.15 13.65 14.25 15.0" fill="#383838" fill-rule="evenodd" stroke="none"/>
    <path d="M22.0 11.4 L22.25 13.45 14.1 13.2 14.0 11.4 22.0 11.4 M22.35 15.25 L22.2 17.0 Q21.65 18.6 20.2 19.9 L15.55 17.45 14.35 16.8 14.25 15.0 22.35 15.25 M17.8 5.85 L19.15 6.0 Q20.9 7.8 21.5 9.5 L13.85 9.65 12.2 8.35 12.2 7.1 12.2 5.8 14.45 5.7 17.8 5.85" fill="#232323" fill-rule="evenodd" stroke="none"/>
    <path d="M20.2 19.9 L20.0 20.95 18.65 23.75 9.95 23.75 11.6 20.75 14.55 20.75 15.05 19.1 15.55 17.45 20.2 19.9 M7.6 2.55 L15.2 3.2 Q17.5 4.35 17.8 5.85 L14.45 5.7 12.2 5.8 Q11.5 4.2 8.95 3.1 L7.6 2.55" fill="#2c2c2c" fill-rule="evenodd" stroke="none"/>
    <path d="M21.5 9.5 L22.0 11.4 14.0 11.4 13.9 10.1 13.85 9.65 21.5 9.5 M22.25 13.45 L22.35 15.25 14.25 15.0 14.15 13.65 14.1 13.2 22.25 13.45" fill="#1c1c1c" fill-rule="evenodd" stroke="none"/>
    <path d="M21.5 9.5 L22.0 11.4 22.25 13.45 22.35 15.25 22.2 17.0 Q21.65 18.6 20.2 19.9 L20.0 20.95 18.65 23.75 9.95 23.75 7.2 23.5 Q6.55 21.85 6.05 20.0 M5.6 18.4 L4.85 15.05 3.6 15.4 2.0 13.35 1.35 12.8 0.5 8.7 M0.1 6.95 Q-0.35 4.1 1.2 3.9 L3.3 3.9 5.05 2.55 5.7 2.55 7.6 2.55 15.2 3.2 Q17.5 4.35 17.8 5.85 L19.15 6.0 Q20.9 7.8 21.5 9.5 L13.85 9.65 13.9 10.1 14.0 11.4 22.0 11.4 M17.8 5.85 L14.45 5.7 12.2 5.8 12.2 7.1 12.2 8.35 13.85 9.65 M14.0 11.4 L13.95 11.4 13.9 10.1 M5.0 11.85 L4.95 10.8 4.8 6.75 3.3 3.9 M12.2 7.1 L8.05 7.35 Q6.8 8.7 6.8 10.6 6.9 12.8 7.7 13.7 L10.55 14.5 Q12.65 14.85 14.1 13.2 L14.0 11.4 M8.25 18.6 L8.55 18.6 9.15 18.65 10.3 18.75 15.05 19.1 M15.55 17.45 L14.35 16.8 14.25 15.0 14.2 15.0 14.15 13.65 14.1 13.2 22.25 13.45 M7.95 18.55 L5.6 18.4 M4.85 15.05 L5.45 14.85 5.4 14.4 5.0 11.85 2.0 13.35 M14.15 13.65 L14.25 15.0 22.35 15.25 M20.2 19.9 L15.55 17.45" fill="none" stroke="#0e0e0e" stroke-linecap="round" stroke-linejoin="round" stroke-width="1.0"/>
    <path d="M15.05 19.1 L15.55 17.45 M14.55 20.75 L15.05 19.1 M9.95 23.75 L11.6 20.75 14.55 20.75" fill="none" stroke="#121212" stroke-linecap="round" stroke-linejoin="round" stroke-width="1.0"/>
    <path d="M6.05 20.0 L5.4 19.95 4.8 18.35 5.6 18.4 M14.55 20.75 L6.05 20.0" fill="none" stroke="#171717" stroke-linecap="round" stroke-linejoin="round" stroke-width="1.0"/>
    <path d="M0.5 8.7 L0.1 6.95" fill="none" stroke="#1c1c1c" stroke-linecap="round" stroke-linejoin="round" stroke-width="1.0"/>
    <path d="M12.2 5.8 L8.95 3.1" fill="none" stroke="#191919" stroke-linecap="round" stroke-linejoin="round" stroke-width="1.2000000000000002"/>
    <path d="M16.0 3.95 L16.45 4.8 16.0 3.95 M16.45 4.8 L16.95 5.7 16.45 4.8" fill="#646464" fill-rule="evenodd" stroke="none"/>
    <path d="M19.05 9.5 L18.2 9.75 Q15.1 4.3 5.0 1.6 L15.2 2.55 15.85 3.7 16.0 3.95 16.45 4.8 16.95 5.7 17.1 6.0 19.05 9.5 M16.45 4.8 L15.95 4.7 16.45 4.8" fill="#2c2c2c" fill-rule="evenodd" stroke="none"/>
    <path d="M15.2 2.55 L20.95 3.1 20.95 5.0 19.65 5.5 20.5 7.6 Q19.95 9.0 19.05 9.5 L17.1 6.0 16.95 5.7 16.45 4.8 16.0 3.95 15.85 3.7 15.2 2.55 M19.65 5.5 L16.45 4.8 19.65 5.5" fill="#4d4d4d" fill-rule="evenodd" stroke="none"/>
    <path d="M15.2 2.55 L15.85 3.7 16.0 3.95 16.45 4.8 16.95 5.7 17.1 6.0 19.05 9.5" fill="none" stroke="#380202" stroke-linecap="round" stroke-linejoin="round" stroke-width="0.6000000000000001"/>
    <path d="M15.2 2.55 L20.95 3.1 20.95 5.0 19.65 5.5 20.5 7.6 Q19.95 9.0 19.05 9.5 L18.2 9.75 Q15.1 4.3 5.0 1.6 L15.2 2.55 M16.45 4.8 L19.65 5.5 M15.95 4.7 L16.45 4.8" fill="none" stroke="#171717" stroke-linecap="round" stroke-linejoin="round" stroke-width="1.0"/>
    <path d="M2.1 21.25 L5.65 21.25 5.7 21.8 6.65 21.8 Q6.3 23.1 4.3 23.4 L2.65 23.35 -1.5 22.75 Q-3.35 21.95 -3.9 20.25 -1.1 21.25 2.1 21.25" fill="#333333" fill-rule="evenodd" stroke="none"/>
    <path d="M0.85 6.25 L0.75 8.75 -5.2 9.3 -5.2 8.95 -5.05 6.95 0.85 6.25 M0.75 9.75 L0.8 11.15 -1.05 11.25 -1.05 10.9 -5.05 11.1 -5.15 10.15 -5.2 9.8 -1.05 9.55 -1.05 9.9 0.75 9.75" fill="#4a4a4a" fill-rule="evenodd" stroke="none"/>
    <path d="M11.35 15.25 Q14.15 13.75 14.65 11.5 14.95 10.05 14.35 9.4 L11.5 6.9 13.0 5.3 Q14.3 6.05 16.4 7.75 18.45 9.4 16.85 12.9 15.5 15.9 12.7 17.05 L11.35 15.25 M10.25 6.35 Q8.35 6.5 6.9 5.9 4.0 5.3 3.6 4.35 3.5 2.25 5.55 2.65 L8.15 3.4 Q10.1 3.9 11.85 4.7 L10.25 6.35 M6.8 17.9 L7.15 16.75 10.0 15.85 11.4 17.55 10.4 17.8 9.5 17.9 6.8 17.9 9.5 17.9 10.45 21.8 6.65 21.8 5.7 21.8 5.65 21.25 5.1 17.9 6.8 17.9 M11.3 17.75 L14.1 17.55 14.75 19.1 20.55 20.3 19.9 22.5 14.6 21.55 Q14.4 21.4 14.1 21.8 L12.45 21.8 11.3 17.75 M14.6 21.55 Q14.95 20.1 14.75 19.1 14.95 20.1 14.6 21.55" fill="#232323" fill-rule="evenodd" stroke="none"/>
    <path d="M11.35 15.25 L12.7 17.05 11.4 17.55 10.0 15.85 11.35 15.25 M13.0 5.3 L11.5 6.9 10.25 6.35 11.85 4.7 13.0 5.3 M9.5 17.9 L10.4 17.8 11.3 17.75 12.45 21.8 10.45 21.8 9.5 17.9" fill="#565656" fill-rule="evenodd" stroke="none"/>
    <path d="M1.15 0.35 L0.85 6.25 -5.05 6.95 -5.0 6.6 Q-4.95 4.6 -4.35 3.3 -3.8 2.0 -2.8 1.45 -0.7 0.25 1.15 0.35 M0.75 8.75 L0.75 9.75 -1.05 9.9 -1.05 9.55 -5.2 9.8 -5.15 10.15 -5.2 10.15 -5.2 9.8 -5.2 9.3 0.75 8.75 M0.8 11.15 Q0.95 15.9 2.1 21.25 -1.1 21.25 -3.9 20.25 L-4.2 18.35 -4.75 13.7 -1.05 13.7 -1.05 13.35 -4.75 13.35 -5.05 11.1 -1.05 10.9 -1.05 11.25 0.8 11.15" fill="#6d6d6d" fill-rule="evenodd" stroke="none"/>
    <path d="M6.9 5.9 Q5.1 12.1 6.8 17.9 L5.1 17.9 5.65 21.25 2.1 21.25 Q0.95 15.9 0.8 11.15 L0.75 9.75 0.75 8.75 0.85 6.25 1.15 0.35 3.8 0.7 Q4.85 0.95 5.55 2.65 3.5 2.25 3.6 4.35 4.0 5.3 6.9 5.9" fill="#4f4f4f" fill-rule="evenodd" stroke="none"/>
    <path d="M11.5 6.9 L14.35 9.4 Q14.95 10.05 14.65 11.5 14.15 13.75 11.35 15.25 L12.7 17.05 Q15.5 15.9 16.85 12.9 18.45 9.4 16.4 7.75 14.3 6.05 13.0 5.3 L11.85 4.7 10.25 6.35 Q8.35 6.5 6.9 5.9 5.1 12.1 6.8 17.9 L7.15 16.75 10.0 15.85 11.35 15.25 M11.5 6.9 L10.25 6.35 M11.85 4.7 Q10.1 3.9 8.15 3.4 L5.55 2.65 Q3.5 2.25 3.6 4.35 4.0 5.3 6.9 5.9 M5.55 2.65 Q4.85 0.95 3.8 0.7 L1.15 0.35 Q-0.7 0.25 -2.8 1.45 -3.8 2.0 -4.35 3.3 -4.95 4.6 -5.0 6.6 L-5.05 6.95 M5.65 21.25 L5.1 17.9 6.8 17.9 9.5 17.9 10.4 17.8 11.4 17.55 12.7 17.05 M-3.9 20.25 Q-3.35 21.95 -1.5 22.75 L2.65 23.35 4.3 23.4 Q6.3 23.1 6.65 21.8 L5.7 21.8 5.65 21.25 M10.4 17.8 L11.3 17.75 14.1 17.55 14.75 19.1 20.55 20.3 19.9 22.5 14.6 21.55 Q14.4 21.4 14.1 21.8 L12.45 21.8 10.45 21.8 6.65 21.8 M14.75 19.1 Q14.95 20.1 14.6 21.55 M11.3 17.75 L12.45 21.8 M9.5 17.9 L10.45 21.8 M-5.2 8.95 L-5.2 9.3 -5.2 9.8 -5.15 10.15 -5.05 11.1 -4.75 13.35 M-5.0 6.6 L-5.2 8.95 M-4.75 13.7 L-4.2 18.35 -3.9 20.25" fill="none" stroke="#0b0b0b" stroke-linecap="round" stroke-linejoin="round" stroke-width="1.0"/>
    <path d="M1.15 0.35 L0.85 6.25 0.75 8.75 0.75 9.75 0.8 11.15 Q0.95 15.9 2.1 21.25" fill="none" stroke="#3f3f3f" stroke-linecap="round" stroke-linejoin="round" stroke-width="1.0"/>
    <path d="M2.05 12.75 L2.95 12.7 2.7 15.3 2.7 15.7 -1.65 16.2 -1.6 15.65 -1.25 14.0 0.7 13.1 2.05 12.75 M2.45 21.35 L2.45 21.45 2.45 24.1 Q0.35 24.35 -1.5 23.1 L-1.65 21.9 2.45 21.35 M2.6 17.15 L2.45 19.9 -1.8 20.6 -1.8 17.7 2.6 17.15" fill="#4a4a4a" fill-rule="evenodd" stroke="none"/>
    <path d="M2.95 12.7 L5.35 13.1 5.7 15.35 2.7 15.7 2.7 15.3 2.95 12.7 M2.45 24.1 L2.45 21.45 2.45 21.35 5.7 20.9 5.65 21.25 5.35 23.1 Q3.85 23.9 2.45 24.1 M5.8 16.8 L5.8 19.35 2.45 19.9 2.6 17.15 5.8 16.8" fill="#383838" fill-rule="evenodd" stroke="none"/>
    <path d="M21.45 11.15 L22.9 11.15 22.9 15.45 Q22.2 15.5 21.45 14.6 L21.45 11.15 M22.9 16.95 L22.9 18.5 21.0 18.5 21.0 16.05 Q22.0 17.0 22.9 16.95 M16.7 11.15 L19.2 11.15 19.2 14.7 Q18.0 16.2 16.7 14.6 L16.7 11.15 M19.6 16.05 L19.6 18.5 16.25 18.5 16.25 16.05 Q18.1 17.85 19.6 16.05 M0.7 13.1 L-0.05 9.65 -0.75 9.75 -1.0 8.05 -0.25 7.95 0.3 0.0 1.65 0.0 1.35 7.75 1.9 7.65 5.7 8.45 5.75 10.1 1.9 9.4 1.35 9.4 2.05 12.75 0.7 13.1 M1.9 9.4 L1.9 7.65 1.9 9.4 M-9.1 17.2 L-9.5 13.7 -4.05 13.15 -3.75 15.9 -3.65 16.5 -7.35 17.0 -9.1 17.2 M-4.4 14.7 L-7.55 15.0 -7.4 16.4 -7.35 17.0 -7.4 16.4 -7.55 15.0 -4.4 14.7 M-9.0 18.55 L-7.2 18.35 -3.5 17.9 -3.2 20.8 -6.9 21.2 -8.7 21.4 -9.0 18.55 M-5.8 22.4 L-8.55 22.75 -8.55 22.7 -5.8 22.4 M-2.65 22.05 L-2.5 20.7 -1.8 20.6 -1.7 21.7 -1.65 21.9 -2.65 22.05 M-7.4 16.4 L-3.75 15.9 -7.4 16.4 M-6.9 21.2 L-7.2 18.35 -6.9 21.2 M-0.05 9.65 L1.35 9.4 -0.05 9.65 M1.35 7.75 L-0.25 7.95 1.35 7.75" fill="#272727" fill-rule="evenodd" stroke="none"/>
    <path d="M22.9 15.45 L22.9 16.3 22.9 16.95 Q22.0 17.0 21.0 16.05 L21.0 15.2 20.7 14.8 20.7 11.15 21.45 11.15 21.45 14.6 Q22.2 15.5 22.9 15.45 M22.9 16.3 L22.4 16.25 21.45 15.6 20.7 14.8 21.45 15.6 22.4 16.25 22.9 16.3 M16.25 16.05 L16.25 15.2 15.95 14.8 15.95 11.15 16.7 11.15 16.7 14.6 Q18.0 16.2 19.2 14.7 L19.2 11.15 19.9 11.15 19.9 14.8 19.6 15.25 19.6 16.05 Q18.1 17.85 16.25 16.05 M19.9 14.8 L19.25 15.6 18.2 16.3 17.65 16.25 16.7 15.6 15.95 14.8 16.7 15.6 17.65 16.25 18.2 16.3 19.25 15.6 19.9 14.8" fill="#545454" fill-rule="evenodd" stroke="none"/>
    <path d="M2.05 12.75 L2.95 12.7 5.35 13.1 5.7 15.35 M-1.65 16.2 L-1.6 15.65 -1.25 14.0 0.7 13.1 M2.95 12.7 L2.7 15.3 2.7 15.7 M2.45 21.35 L2.45 21.45 2.45 24.1 Q3.85 23.9 5.35 23.1 L5.65 21.25 5.7 20.9 M-1.65 21.9 L-1.5 23.1 Q0.35 24.35 2.45 24.1 M5.8 19.35 L5.8 16.8 M2.6 17.15 L2.45 19.9 M-1.8 20.6 L-1.8 17.7" fill="none" stroke="#252525" stroke-linecap="round" stroke-linejoin="round" stroke-width="1.0"/>
    <path d="M0.7 13.1 L-0.05 9.65 -0.75 9.75 -1.0 8.05 -0.25 7.95 0.3 0.0 1.65 0.0 1.35 7.75 1.9 7.65 5.7 8.45 5.75 10.1 1.9 9.4 1.35 9.4 2.05 12.75 0.7 13.1 M1.9 7.65 L1.9 9.4 M-9.1 17.2 L-9.5 13.7 -4.05 13.15 -3.75 15.9 -3.65 16.5 M-7.35 17.0 L-7.4 16.4 -7.55 15.0 -4.4 14.7 M-3.5 17.9 L-3.2 20.8 M-8.7 21.4 L-9.0 18.55 M-7.2 18.35 L-6.9 21.2 M-3.75 15.9 L-7.4 16.4 M-0.25 7.95 L1.35 7.75 M1.35 9.4 L-0.05 9.65" fill="none" stroke="#0b0b0b" stroke-linecap="round" stroke-linejoin="round" stroke-width="1.0"/>
    <path d="M21.45 11.15 L22.9 11.15 22.9 15.45 22.9 16.3 22.9 16.95 22.9 18.5 21.0 18.5 21.0 16.05 21.0 15.2 20.7 14.8 20.7 11.15 21.45 11.15 M20.7 14.8 L21.45 15.6 22.4 16.25 22.9 16.3 M16.25 16.05 L16.25 15.2 15.95 14.8 15.95 11.15 16.7 11.15 19.2 11.15 19.9 11.15 19.9 14.8 19.6 15.25 19.6 16.05 19.6 18.5 16.25 18.5 16.25 16.05 M15.95 14.8 L16.7 15.6 17.65 16.25 18.2 16.3 19.25 15.6 19.9 14.8" fill="none" stroke="#101010" stroke-linecap="round" stroke-linejoin="round" stroke-width="0.8"/>
    <path d="M6.05 23.7 L19.4 23.65" fill="none" stroke="#202020" stroke-linecap="round" stroke-linejoin="round" stroke-width="2.0"/>
    <path d="M-6.25 14.9 L-6.3 14.55 -6.05 14.5 -4.8 14.4 Q-4.55 14.6 -4.8 14.85 L-6.0 14.95 -6.25 14.9 M-6.65 14.9 L-7.2 14.95 -7.6 14.85 Q-7.5 14.7 -7.25 14.7 L-6.65 14.65 -6.55 14.7 -6.55 14.9 -6.65 14.9 M-6.0 18.15 L-6.0 17.75 -5.8 17.75 -4.6 17.65 Q-4.3 17.85 -4.55 18.05 L-5.8 18.15 -6.0 18.15 M-6.4 18.15 L-6.95 18.2 -7.4 18.1 -7.0 17.95 -6.4 17.9 -6.35 17.95 -6.3 18.15 -6.4 18.15 M-6.1 16.5 L-6.15 16.15 -5.9 16.1 -4.7 16.0 Q-4.4 16.25 -4.7 16.5 L-5.9 16.6 -6.1 16.5 M-6.5 16.5 L-7.1 16.55 -7.5 16.5 Q-7.4 16.3 -7.1 16.3 L-6.5 16.25 -6.45 16.3 -6.4 16.5 -6.5 16.5 M-6.1 17.3 L-6.1 16.95 -5.9 16.95 -4.65 16.85 Q-4.35 17.05 -4.65 17.3 L-5.85 17.4 -6.1 17.3 M-6.5 17.35 L-7.05 17.4 -7.4 17.3 Q-7.3 17.1 -7.05 17.15 L-6.45 17.05 -6.35 17.1 -6.4 17.3 -6.5 17.35 M-6.2 15.7 L-6.2 15.35 -6.0 15.3 -4.8 15.2 Q-4.45 15.4 -4.75 15.65 L-6.0 15.75 -6.2 15.7 M-6.6 15.7 L-7.15 15.75 -7.55 15.65 -7.15 15.5 -6.55 15.45 -6.5 15.5 -6.5 15.7 -6.6 15.7 M-5.95 18.6 L-5.75 18.55 -4.55 18.45 Q-4.2 18.65 -4.55 18.9 L-5.75 19.0 -5.95 18.95 -5.95 18.6 M-6.3 18.95 L-6.95 19.0 -7.3 18.9 -6.9 18.75 -6.3 18.7 -6.25 18.75 -6.25 18.95 -6.3 18.95 M-5.85 19.8 L-5.95 19.45 -5.7 19.4 -4.45 19.3 Q-4.15 19.55 -4.45 19.8 L-5.65 19.85 -5.85 19.8 M-6.25 19.8 L-6.85 19.85 -7.25 19.8 -6.9 19.6 -6.2 19.55 -6.15 19.6 -6.15 19.8 -6.25 19.8 M-6.15 20.4 L-6.05 20.45 -6.1 20.65 -6.2 20.7 -6.8 20.75 -7.15 20.65 Q-7.05 20.45 -6.8 20.5 L-6.15 20.4 M-5.85 20.3 L-5.65 20.3 -4.4 20.2 Q-4.1 20.4 -4.4 20.65 L-5.6 20.75 -5.85 20.65 -5.85 20.3 M-6.1 21.25 L-6.05 21.3 -6.0 21.5 -6.1 21.5 -6.7 21.55 -7.15 21.45 -6.75 21.3 -6.1 21.25 M-5.8 21.15 L-5.55 21.1 -4.35 21.0 Q-4.05 21.2 -4.3 21.45 L-5.55 21.55 -5.75 21.5 -5.8 21.15" fill="#bba400" fill-rule="evenodd" stroke="none"/>
    <path d="M-6.25 14.9 L-6.0 14.95 -4.8 14.85 Q-4.55 14.6 -4.8 14.4 L-6.05 14.5 -6.3 14.55 -6.25 14.9 -6.55 14.95 M-6.6 14.6 L-6.3 14.55 M-6.0 18.15 L-5.8 18.15 -4.55 18.05 Q-4.3 17.85 -4.6 17.65 L-5.8 17.75 -6.0 17.75 -6.0 18.15 -6.3 18.2 M-6.3 17.8 L-6.0 17.75 M-6.1 16.5 L-5.9 16.6 -4.7 16.5 Q-4.4 16.25 -4.7 16.0 L-5.9 16.1 -6.15 16.15 -6.1 16.5 -6.4 16.55 M-6.45 16.2 L-6.15 16.15 M-6.1 17.3 L-5.85 17.4 -4.65 17.3 Q-4.35 17.05 -4.65 16.85 L-5.9 16.95 -6.1 16.95 -6.1 17.3 -6.4 17.35 M-6.4 17.0 L-6.1 16.95 M-6.2 15.7 L-6.0 15.75 -4.75 15.65 Q-4.45 15.4 -4.8 15.2 L-6.0 15.3 -6.2 15.35 -6.2 15.7 -6.5 15.75 M-6.5 15.4 L-6.2 15.35 M-6.25 18.65 L-5.95 18.6 -5.75 18.55 -4.55 18.45 Q-4.2 18.65 -4.55 18.9 L-5.75 19.0 -5.95 18.95 -6.25 19.0 M-5.95 18.95 L-5.95 18.6 M-5.85 19.8 L-5.65 19.85 -4.45 19.8 Q-4.15 19.55 -4.45 19.3 L-5.7 19.4 -5.95 19.45 -5.85 19.8 -6.1 19.85 M-6.2 19.5 L-5.95 19.45 M-6.1 20.35 L-5.85 20.3 -5.65 20.3 -4.4 20.2 Q-4.1 20.4 -4.4 20.65 L-5.6 20.75 -5.85 20.65 -6.1 20.7 M-6.05 21.2 L-5.8 21.15 -5.55 21.1 -4.35 21.0 Q-4.05 21.2 -4.3 21.45 L-5.55 21.55 -5.75 21.5 -6.0 21.55 M-5.85 20.65 L-5.85 20.3 M-5.75 21.5 L-5.8 21.15" fill="none" stroke="#857013" stroke-linecap="round" stroke-linejoin="round" stroke-width="0.35000000000000003"/>
    <path d="M-6.55 14.95 L-6.6 14.95 -6.65 14.9 -7.2 14.95 -7.6 14.85 Q-7.5 14.7 -7.25 14.7 L-6.65 14.65 -6.6 14.6 M-6.3 18.2 L-6.35 18.2 -6.4 18.15 -6.95 18.2 -7.4 18.1 -7.0 17.95 -6.4 17.9 -6.3 17.8 M-6.4 16.55 L-6.45 16.55 -6.5 16.5 -7.1 16.55 -7.5 16.5 Q-7.4 16.3 -7.1 16.3 L-6.5 16.25 -6.45 16.2 M-6.4 17.35 L-6.45 17.4 -6.5 17.35 -7.05 17.4 -7.4 17.3 Q-7.3 17.1 -7.05 17.15 L-6.45 17.05 -6.4 17.0 M-6.5 15.75 L-6.55 15.75 -6.6 15.7 -7.15 15.75 -7.55 15.65 -7.15 15.5 -6.55 15.45 -6.5 15.4 M-6.65 14.9 L-6.55 14.9 -6.55 14.7 -6.65 14.65 M-6.6 15.7 L-6.5 15.7 -6.5 15.5 -6.55 15.45 M-6.5 16.5 L-6.4 16.5 -6.45 16.3 -6.5 16.25 M-6.5 17.35 L-6.4 17.3 -6.35 17.1 -6.45 17.05 M-6.4 18.15 L-6.3 18.15 -6.35 17.95 -6.4 17.9 M-6.3 18.7 L-6.25 18.65 M-6.25 19.0 L-6.3 18.95 -6.95 19.0 -7.3 18.9 -6.9 18.75 -6.3 18.7 -6.25 18.75 -6.25 18.95 -6.3 18.95 M-6.1 19.85 L-6.15 19.85 -6.25 19.8 -6.85 19.85 -7.25 19.8 -6.9 19.6 -6.2 19.55 -6.2 19.5 M-6.25 19.8 L-6.15 19.8 -6.15 19.6 -6.2 19.55 M-6.15 20.4 L-6.8 20.5 Q-7.05 20.45 -7.15 20.65 L-6.8 20.75 -6.2 20.7 -6.1 20.65 -6.05 20.45 -6.15 20.4 -6.1 20.35 M-6.1 20.7 L-6.15 20.75 -6.2 20.7 M-6.1 21.25 L-6.75 21.3 -7.15 21.45 -6.7 21.55 -6.1 21.5 -6.0 21.5 -6.05 21.3 -6.1 21.25 -6.05 21.2 M-6.0 21.55 L-6.05 21.55 -6.1 21.5" fill="none" stroke="#a36931" stroke-linecap="round" stroke-linejoin="round" stroke-width="0.35000000000000003"/>
    <path d="M6.45 23.5 L6.5 23.7 6.5 24.9 Q6.25 25.2 6.05 24.9 L6.05 23.7 6.1 23.5 6.45 23.5 M6.9 23.7 L6.95 23.5 7.3 23.5 7.35 23.7 6.9 23.7 7.35 23.7 7.35 24.9 Q7.1 25.2 6.9 24.9 L6.9 23.7 M7.0 23.1 L7.0 22.5 7.1 22.05 7.25 22.5 7.25 23.15 7.2 23.2 7.0 23.2 7.0 23.1 M7.7 23.7 L7.75 23.5 8.1 23.5 8.15 23.7 7.7 23.7 8.15 23.7 8.15 24.9 Q7.9 25.2 7.7 24.9 L7.7 23.7 M7.8 23.1 L7.8 22.5 7.9 22.05 8.05 22.5 8.05 23.15 8.0 23.2 7.8 23.2 7.8 23.1 M8.55 23.7 L8.6 23.5 8.95 23.5 9.0 23.7 8.55 23.7 9.0 23.7 9.0 24.9 Q8.75 25.2 8.55 24.9 L8.55 23.7 M8.65 23.1 L8.65 22.5 8.75 22.05 8.9 22.5 8.9 23.15 8.85 23.2 8.65 23.2 8.65 23.1 M9.4 23.7 L9.45 23.5 9.8 23.5 9.85 23.7 9.4 23.7 9.85 23.7 9.85 24.9 Q9.6 25.2 9.4 24.9 L9.4 23.7 M9.5 23.1 L9.5 22.5 9.6 22.05 9.75 22.5 9.75 23.15 9.7 23.2 9.5 23.2 9.5 23.1 M10.25 23.7 L10.3 23.5 10.65 23.5 10.7 23.7 10.25 23.7 10.7 23.7 10.7 24.9 Q10.45 25.2 10.25 24.9 L10.25 23.7 M10.35 23.1 L10.35 22.5 10.45 22.05 10.6 22.5 10.6 23.15 10.55 23.2 10.35 23.2 10.35 23.1 M11.05 23.7 L11.1 23.5 11.45 23.5 11.5 23.7 11.05 23.7 11.5 23.7 11.5 24.9 Q11.25 25.2 11.05 24.9 L11.05 23.7 M11.15 23.1 L11.15 22.5 11.25 22.05 11.4 22.5 11.4 23.15 11.35 23.2 11.15 23.2 11.15 23.1 M11.9 23.7 L11.95 23.5 12.3 23.5 12.35 23.7 11.9 23.7 12.35 23.7 12.35 24.9 Q12.1 25.2 11.9 24.9 L11.9 23.7 M12.0 23.1 L12.0 22.5 12.1 22.05 12.25 22.5 12.25 23.15 12.2 23.2 12.0 23.2 12.0 23.1 M12.7 23.7 L12.75 23.5 13.1 23.5 13.15 23.7 12.7 23.7 13.15 23.7 13.15 24.9 Q12.9 25.2 12.7 24.9 L12.7 23.7 M12.8 23.1 L12.8 22.5 12.9 22.05 13.05 22.5 13.05 23.15 13.0 23.2 12.8 23.2 12.8 23.1 M13.55 23.7 L13.6 23.5 13.95 23.5 14.0 23.7 13.55 23.7 14.0 23.7 14.0 24.9 Q13.75 25.2 13.55 24.9 L13.55 23.7 M13.65 23.1 L13.65 22.5 13.75 22.05 13.9 22.5 13.9 23.15 13.85 23.2 13.65 23.2 13.65 23.1 M14.35 23.7 L14.4 23.5 14.75 23.5 14.8 23.7 14.35 23.7 14.8 23.7 14.8 24.9 Q14.55 25.2 14.35 24.9 L14.35 23.7 M14.45 23.1 L14.45 22.5 14.55 22.05 14.7 22.5 14.7 23.15 14.65 23.2 14.45 23.2 14.45 23.1 M15.2 23.7 L15.25 23.5 15.6 23.5 15.65 23.7 15.2 23.7 15.65 23.7 15.65 24.9 Q15.4 25.2 15.2 24.9 L15.2 23.7 M15.3 23.1 L15.3 22.5 15.4 22.05 15.55 22.5 15.55 23.15 15.5 23.2 15.3 23.2 15.3 23.1 M16.05 23.7 L16.1 23.5 16.45 23.5 16.5 23.7 16.05 23.7 16.5 23.7 16.5 24.9 Q16.25 25.2 16.05 24.9 L16.05 23.7 M16.15 23.1 L16.15 22.5 16.25 22.05 16.4 22.5 16.4 23.15 16.35 23.2 16.15 23.2 16.15 23.1 M16.9 23.7 L16.95 23.5 17.3 23.5 17.35 23.7 16.9 23.7 17.35 23.7 17.35 24.9 Q17.1 25.2 16.9 24.9 L16.9 23.7 M17.0 23.1 L17.0 22.5 17.1 22.05 17.25 22.5 17.25 23.15 17.2 23.2 17.0 23.2 17.0 23.1 M17.7 23.7 L17.75 23.5 18.1 23.5 18.15 23.7 17.7 23.7 18.15 23.7 18.15 24.9 Q17.9 25.2 17.7 24.9 L17.7 23.7 M17.8 23.1 L17.8 22.5 17.9 22.05 18.05 22.5 18.05 23.15 18.0 23.2 17.8 23.2 17.8 23.1 M18.55 23.7 L18.6 23.5 18.95 23.5 19.0 23.7 18.55 23.7 19.0 23.7 19.0 24.9 18.95 24.95 18.55 24.9 18.55 23.7 M18.65 23.1 L18.65 22.5 18.75 22.05 18.9 22.5 18.9 23.15 18.85 23.2 18.65 23.2 18.65 23.1 M19.4 23.7 L19.4 23.65 19.45 23.45 19.8 23.45 19.85 23.65 19.85 24.85 19.8 24.9 19.4 24.85 19.4 23.7 19.85 23.65 19.4 23.7 M19.5 23.05 L19.5 22.45 19.6 22.0 19.75 22.45 19.75 23.1 19.7 23.15 19.5 23.15 19.5 23.05 M6.4 23.15 L6.35 23.2 6.15 23.2 6.15 23.1 6.15 22.5 6.25 22.05 6.4 22.5 6.4 23.15 M6.5 23.7 L6.05 23.7 6.5 23.7" fill="#bba400" fill-rule="evenodd" stroke="none"/>
    <path d="M5.7 15.35 L5.8 16.8 2.6 17.15 2.7 15.7 2.6 17.15 -2.65 17.8 -9.0 18.55 -9.65 18.55 -9.65 17.2 -9.1 17.2 -2.65 16.35 2.7 15.7 5.7 15.35 M2.45 21.35 L2.45 19.9 2.45 21.35 -1.65 21.9 -1.7 21.7 -1.8 20.6 2.45 19.9 5.8 19.35 5.7 20.9 2.45 21.35 M-2.65 17.8 L-2.65 16.35 -2.65 17.8 M-9.35 21.4 L-8.7 21.4 -2.5 20.7 -2.65 22.05 -5.8 22.4 -8.55 22.7 -9.35 21.4" fill="#272727" fill-rule="evenodd" stroke="none"/>
    <path d="M6.4 23.15 L6.45 23.2 M6.95 23.2 L6.95 23.15 7.0 23.1 7.0 22.5 7.1 22.05 7.25 22.5 7.25 23.15 7.3 23.2 M7.75 23.2 L7.75 23.15 7.8 23.1 7.8 22.5 7.9 22.05 8.05 22.5 8.05 23.15 8.1 23.2 M8.6 23.2 L8.6 23.15 8.65 23.1 8.65 22.5 8.75 22.05 8.9 22.5 8.9 23.15 8.95 23.2 M9.45 23.2 L9.45 23.15 9.5 23.1 9.5 22.5 9.6 22.05 9.75 22.5 9.75 23.15 9.8 23.2 M10.3 23.2 L10.3 23.15 10.35 23.1 10.35 22.5 10.45 22.05 10.6 22.5 10.6 23.15 10.65 23.2 M11.1 23.2 L11.1 23.15 11.15 23.1 11.15 22.5 11.25 22.05 11.4 22.5 11.4 23.15 11.45 23.2 M11.95 23.2 L11.95 23.15 12.0 23.1 12.0 22.5 12.1 22.05 12.25 22.5 12.25 23.15 12.3 23.2 M12.75 23.2 L12.75 23.15 12.8 23.1 12.8 22.5 12.9 22.05 13.05 22.5 13.05 23.15 13.1 23.2 M13.6 23.2 L13.6 23.15 13.65 23.1 13.65 22.5 13.75 22.05 13.9 22.5 13.9 23.15 13.95 23.2 M14.4 23.2 L14.4 23.15 14.45 23.1 14.45 22.5 14.55 22.05 14.7 22.5 14.7 23.15 14.75 23.2 M15.25 23.2 L15.25 23.15 15.3 23.1 15.3 22.5 15.4 22.05 15.55 22.5 15.55 23.15 15.6 23.2 M16.1 23.2 L16.1 23.15 16.15 23.1 16.15 22.5 16.25 22.05 16.4 22.5 16.4 23.15 16.45 23.2 M16.95 23.2 L16.95 23.15 17.0 23.1 17.0 22.5 17.1 22.05 17.25 22.5 17.25 23.15 17.3 23.2 M17.75 23.2 L17.75 23.15 17.8 23.1 17.8 22.5 17.9 22.05 18.05 22.5 18.05 23.15 18.1 23.2 M18.6 23.2 L18.6 23.15 18.65 23.1 18.65 22.5 18.75 22.05 18.9 22.5 18.9 23.15 18.95 23.2 M19.45 23.15 L19.45 23.1 19.5 23.05 19.5 22.45 19.6 22.0 19.75 22.45 19.75 23.1 19.8 23.15 M6.4 23.15 L6.4 22.5 6.25 22.05 6.15 22.5 6.15 23.1 6.15 23.2 6.35 23.2 6.4 23.15 M7.0 23.1 L7.0 23.2 7.2 23.2 7.25 23.15 M6.15 23.1 L6.1 23.15 6.1 23.2 M9.5 23.1 L9.5 23.2 9.7 23.2 9.75 23.15 M7.8 23.1 L7.8 23.2 8.0 23.2 8.05 23.15 M8.65 23.1 L8.65 23.2 8.85 23.2 8.9 23.15 M12.0 23.1 L12.0 23.2 12.2 23.2 12.25 23.15 M10.35 23.1 L10.35 23.2 10.55 23.2 10.6 23.15 M11.15 23.1 L11.15 23.2 11.35 23.2 11.4 23.15 M14.45 23.1 L14.45 23.2 14.65 23.2 14.7 23.15 M12.8 23.1 L12.8 23.2 13.0 23.2 13.05 23.15 M13.65 23.1 L13.65 23.2 13.85 23.2 13.9 23.15 M17.0 23.1 L17.0 23.2 17.2 23.2 17.25 23.15 M15.3 23.1 L15.3 23.2 15.5 23.2 15.55 23.15 M16.15 23.1 L16.15 23.2 16.35 23.2 16.4 23.15 M19.5 23.05 L19.5 23.15 19.7 23.15 19.75 23.1 M17.8 23.1 L17.8 23.2 18.0 23.2 18.05 23.15 M18.65 23.1 L18.65 23.2 18.85 23.2 18.9 23.15" fill="none" stroke="#a36931" stroke-linecap="round" stroke-linejoin="round" stroke-width="0.35000000000000003"/>
    <path d="M6.45 23.2 L6.45 23.5 6.5 23.7 6.5 24.9 Q6.25 25.2 6.05 24.9 L6.05 23.7 6.1 23.5 6.45 23.5 M6.9 23.7 L6.95 23.5 6.95 23.2 M7.3 23.2 L7.3 23.5 7.35 23.7 7.35 24.9 Q7.1 25.2 6.9 24.9 L6.9 23.7 M7.7 23.7 L7.75 23.5 7.75 23.2 M8.1 23.2 L8.1 23.5 8.15 23.7 8.15 24.9 Q7.9 25.2 7.7 24.9 L7.7 23.7 M8.55 23.7 L8.6 23.5 8.6 23.2 M8.95 23.2 L8.95 23.5 9.0 23.7 9.0 24.9 Q8.75 25.2 8.55 24.9 L8.55 23.7 M9.4 23.7 L9.45 23.5 9.45 23.2 M9.8 23.2 L9.8 23.5 9.85 23.7 9.85 24.9 Q9.6 25.2 9.4 24.9 L9.4 23.7 M10.25 23.7 L10.3 23.5 10.3 23.2 M10.65 23.2 L10.65 23.5 10.7 23.7 10.7 24.9 Q10.45 25.2 10.25 24.9 L10.25 23.7 M11.05 23.7 L11.1 23.5 11.1 23.2 M11.45 23.2 L11.45 23.5 11.5 23.7 11.5 24.9 Q11.25 25.2 11.05 24.9 L11.05 23.7 M11.9 23.7 L11.95 23.5 11.95 23.2 M12.3 23.2 L12.3 23.5 12.35 23.7 12.35 24.9 Q12.1 25.2 11.9 24.9 L11.9 23.7 M12.7 23.7 L12.75 23.5 12.75 23.2 M13.1 23.2 L13.1 23.5 13.15 23.7 13.15 24.9 Q12.9 25.2 12.7 24.9 L12.7 23.7 M13.55 23.7 L13.6 23.5 13.6 23.2 M13.95 23.2 L13.95 23.5 14.0 23.7 14.0 24.9 Q13.75 25.2 13.55 24.9 L13.55 23.7 M14.35 23.7 L14.4 23.5 14.4 23.2 M14.75 23.2 L14.75 23.5 14.8 23.7 14.8 24.9 Q14.55 25.2 14.35 24.9 L14.35 23.7 M15.2 23.7 L15.25 23.5 15.25 23.2 M15.6 23.2 L15.6 23.5 15.65 23.7 15.65 24.9 Q15.4 25.2 15.2 24.9 L15.2 23.7 M16.05 23.7 L16.1 23.5 16.1 23.2 M16.45 23.2 L16.45 23.5 16.5 23.7 16.5 24.9 Q16.25 25.2 16.05 24.9 L16.05 23.7 M16.9 23.7 L16.95 23.5 16.95 23.2 M17.3 23.2 L17.3 23.5 17.35 23.7 17.35 24.9 Q17.1 25.2 16.9 24.9 L16.9 23.7 M17.7 23.7 L17.75 23.5 17.75 23.2 M18.1 23.2 L18.1 23.5 18.15 23.7 18.15 24.9 Q17.9 25.2 17.7 24.9 L17.7 23.7 M18.55 23.7 L18.6 23.5 18.6 23.2 M18.95 23.2 L18.95 23.5 19.0 23.7 19.0 24.9 18.95 24.95 18.55 24.9 18.55 23.7 M19.4 23.7 L19.4 23.65 19.45 23.45 19.45 23.15 M19.8 23.15 L19.8 23.45 19.85 23.65 19.85 24.85 19.8 24.9 19.4 24.85 19.4 23.7 M6.1 23.2 L6.1 23.5 M6.95 23.5 L7.3 23.5 M7.75 23.5 L8.1 23.5 M9.45 23.5 L9.8 23.5 M8.6 23.5 L8.95 23.5 M10.3 23.5 L10.65 23.5 M11.95 23.5 L12.3 23.5 M11.1 23.5 L11.45 23.5 M12.75 23.5 L13.1 23.5 M14.4 23.5 L14.75 23.5 M13.6 23.5 L13.95 23.5 M15.25 23.5 L15.6 23.5 M16.1 23.5 L16.45 23.5 M16.95 23.5 L17.3 23.5 M17.75 23.5 L18.1 23.5 M18.6 23.5 L18.95 23.5 M19.45 23.45 L19.8 23.45" fill="none" stroke="#857013" stroke-linecap="round" stroke-linejoin="round" stroke-width="0.35000000000000003"/>
    <path d="M6.5 23.7 L6.9 23.7 7.35 23.7 7.7 23.7 8.15 23.7 8.55 23.7 9.0 23.7 9.4 23.7 9.85 23.7 10.25 23.7 10.7 23.7 11.05 23.7 11.5 23.7 11.9 23.7 12.35 23.7 12.7 23.7 13.15 23.7 13.55 23.7 14.0 23.7 14.35 23.7 14.8 23.7 15.2 23.7 15.65 23.7 16.05 23.7 16.5 23.7 16.9 23.7 17.35 23.7 17.7 23.7 18.15 23.7 18.55 23.7 19.0 23.7 19.4 23.7 19.85 23.65 M6.05 23.7 L6.5 23.7" fill="none" stroke="#202020" stroke-linecap="round" stroke-linejoin="round" stroke-width="1.0"/>
    <path d="M5.8 16.8 L6.5 16.7 6.25 15.25 5.7 15.35 2.7 15.7 -2.65 16.35 -2.65 17.8 2.6 17.15 5.8 16.8 M2.45 21.35 L5.7 20.9 6.25 20.8 6.45 19.25 5.8 19.35 2.45 19.9 -1.8 20.6 -2.5 20.7 -8.7 21.4 -9.35 21.4 -8.55 22.7 -5.8 22.4 -2.65 22.05 -2.5 20.7 M-1.65 21.9 L2.45 21.35 M-2.65 17.8 L-9.0 18.55 -9.65 18.55 -9.65 17.2 -9.1 17.2 -2.65 16.35 M-5.8 22.4 L-8.55 22.75 -8.55 22.7 M-2.65 22.05 L-1.65 21.9" fill="none" stroke="#0b0b0b" stroke-linecap="round" stroke-linejoin="round" stroke-width="1.0"/>
    <path d="M5.7 15.35 L5.8 16.8 M2.7 15.7 L2.6 17.15 M2.45 19.9 L2.45 21.35 M5.7 20.9 L5.8 19.35 M-1.8 20.6 L-1.7 21.7 -1.65 21.9" fill="none" stroke="#252525" stroke-linecap="round" stroke-linejoin="round" stroke-width="1.0"/>
  </g>
</svg>
