<?xml version="1.0" encoding="UTF-8" standalone="no"?>
<svg xmlns:ffdec="https://www.free-decompiler.com/flash" xmlns:xlink="http://www.w3.org/1999/xlink" ffdec:objectType="shape" height="30.1px" width="30.35px" xmlns="http://www.w3.org/2000/svg">
  <g transform="matrix(1.0, 0.0, 0.0, 1.0, 0.5, 1.4)">
    <path d="M20.65 12.8 L20.8 12.75 21.55 12.55 Q22.65 12.5 23.45 13.25 24.3 13.95 24.35 15.05 24.45 16.15 23.7 16.95 L22.7 17.7 23.85 19.85 24.1 20.3 26.1 20.55 24.7 22.4 19.3 21.0 19.8 19.9 Q20.85 20.35 22.05 20.25 L23.85 19.85 22.05 20.25 Q20.85 20.35 19.8 19.9 L18.2 18.95 17.7 18.4 12.3 18.65 11.35 17.35 10.15 15.65 10.2 15.55 10.55 14.2 10.75 13.45 16.75 13.05 20.35 12.8 20.4 12.9 20.65 12.8 M20.4 12.9 L19.7 13.45 Q19.0 14.3 19.05 15.4 19.15 16.5 19.95 17.2 20.8 17.9 21.9 17.85 L22.7 17.7 21.9 17.85 Q20.8 17.9 19.95 17.2 19.15 16.5 19.05 15.4 19.0 14.3 19.7 13.45 L20.4 12.9 M16.75 13.05 Q16.35 14.1 16.4 15.25 16.55 17.15 17.7 18.4 16.55 17.15 16.4 15.25 16.35 14.1 16.75 13.05" fill="#191919" fill-rule="evenodd" stroke="none"/>
    <path d="M19.15 9.6 L18.9 9.0 24.85 8.75 Q27.95 9.9 29.3 12.3 29.55 16.65 27.85 20.75 L26.1 20.55 24.1 20.3 23.85 19.85 22.7 17.7 23.7 16.95 Q24.45 16.15 24.35 15.05 24.3 13.95 23.45 13.25 22.65 12.5 21.55 12.55 L20.8 12.75 20.65 12.8 20.35 12.8 19.15 9.6" fill="url(#gradient0)" fill-rule="evenodd" stroke="none"/>
    <path d="M19.15 9.6 L20.35 12.8 16.75 13.05 10.75 13.45 9.45 13.5 9.95 12.35 10.7 10.6 12.45 10.25 13.9 10.05 19.15 9.6 M13.5 11.55 L11.85 11.65 13.5 11.55 M17.15 11.35 L15.5 11.45 17.15 11.35" fill="url(#gradient1)" fill-rule="evenodd" stroke="none"/>
    <path d="M9.95 12.35 L9.45 13.5 10.75 13.45 10.55 14.2 3.85 13.2 2.15 11.35 9.95 12.35" fill="url(#gradient2)" fill-rule="evenodd" stroke="none"/>
    <path d="M11.35 17.35 L2.1 16.95 0.0 15.3 10.2 15.55 10.15 15.65 11.35 17.35" fill="url(#gradient3)" fill-rule="evenodd" stroke="none"/>
    <path d="M19.3 21.0 L19.05 21.45 18.8 21.45 17.05 21.3 14.9 20.9 14.85 20.9 12.85 20.4 11.55 19.95 12.3 18.65 17.7 18.4 18.2 18.95 19.8 19.9 19.3 21.0" fill="url(#gradient4)" fill-rule="evenodd" stroke="none"/>
    <path d="M12.85 20.4 L14.85 20.9 8.9 27.5 6.3 27.85 12.85 20.4" fill="url(#gradient5)" fill-rule="evenodd" stroke="none"/>
    <path d="M18.8 21.45 L16.9 25.3 16.4 26.25 13.8 26.8 15.4 24.1 16.1 25.45 16.9 25.3 16.1 25.45 15.4 24.1 17.05 21.3 18.8 21.45" fill="url(#gradient6)" fill-rule="evenodd" stroke="none"/>
    <path d="M14.5 8.75 L14.6 8.6 Q15.5 7.25 16.35 6.95 L17.0 6.85 17.25 6.35 Q17.75 5.6 18.35 5.2 19.1 4.7 20.85 4.95 L21.75 5.2 Q22.45 5.55 22.75 6.6 L23.25 8.2 M16.9 25.3 L17.85 25.1 18.35 26.95 Q18.45 27.55 18.85 27.9 19.3 28.3 19.75 28.2 20.7 28.05 21.0 26.6 L21.15 24.15 21.0 21.7 M14.5 8.75 L13.9 10.05 M20.25 8.45 L19.85 7.95 18.5 7.2 17.0 6.85 Q16.25 8.3 16.5 9.35 M14.9 20.9 L15.15 23.2 15.4 24.1 16.1 25.45 16.9 25.3" fill="none" stroke="#181817" stroke-linecap="round" stroke-linejoin="round" stroke-width="1.0"/>
    <path d="M20.35 12.8 L20.65 12.8 20.4 12.9 20.35 12.8 M26.1 20.55 L24.7 22.4 19.3 21.0 19.05 21.45 18.8 21.45 16.9 25.3 16.4 26.25 13.8 26.8 15.4 24.1 17.05 21.3 M22.7 17.7 L21.9 17.85 Q20.8 17.9 19.95 17.2 19.15 16.5 19.05 15.4 19.0 14.3 19.7 13.45 L20.4 12.9 M23.85 19.85 L22.05 20.25 Q20.85 20.35 19.8 19.9 L18.2 18.95 17.7 18.4 Q16.55 17.15 16.4 15.25 16.35 14.1 16.75 13.05 M9.95 12.35 L2.15 11.35 3.85 13.2 10.55 14.2 10.75 13.45 M10.2 15.55 L0.0 15.3 2.1 16.95 11.35 17.35 10.15 15.65 10.2 15.55 10.55 14.2 M14.85 20.9 L12.85 20.4 6.3 27.85 8.9 27.5 14.85 20.9 M12.3 18.65 L11.35 17.35" fill="none" stroke="#0e0e0e" stroke-linecap="round" stroke-linejoin="round" stroke-width="1.0"/>
    <path d="M26.1 20.55 L27.85 20.75 Q29.55 16.65 29.3 12.3 27.95 9.9 24.85 8.75 L18.9 9.0 19.15 9.6 20.35 12.8 16.75 13.05 10.75 13.45 9.45 13.5 9.95 12.35 10.7 10.6 12.45 10.25 13.9 10.05 19.15 9.6 M20.65 12.8 L20.8 12.75 21.55 12.55 Q22.65 12.5 23.45 13.25 24.3 13.95 24.35 15.05 24.45 16.15 23.7 16.95 L22.7 17.7 23.85 19.85 24.1 20.3 26.1 20.55 M19.8 19.9 L19.3 21.0 M11.85 11.65 L13.5 11.55 M15.5 11.45 L17.15 11.35 M14.85 20.9 L14.9 20.9 17.05 21.3 18.8 21.45 M12.85 20.4 L11.55 19.95 12.3 18.65 17.7 18.4" fill="none" stroke="#151515" stroke-linecap="round" stroke-linejoin="round" stroke-width="1.0"/>
    <path d="M14.5 8.75 L14.95 9.35 M8.9 6.5 L12.45 10.25 M7.2 -0.9 L14.5 8.75" fill="none" stroke="#0e0e0e" stroke-linecap="round" stroke-linejoin="round" stroke-opacity="0.49803922" stroke-width="1.0"/>
  </g>
  <defs>
    <radialGradient cx="0" cy="0" gradientTransform="matrix(0.0141, 0.0, 0.0, 0.0141, 21.5, 11.6)" gradientUnits="userSpaceOnUse" id="gradient0" r="819.2" spreadMethod="pad">
      <stop offset="0.0" stop-color="#333333"/>
      <stop offset="1.0" stop-color="#1c1c1c"/>
    </radialGradient>
    <radialGradient cx="0" cy="0" gradientTransform="matrix(0.0086, 0.0, 0.0, 0.0086, 15.95, 10.8)" gradientUnits="userSpaceOnUse" id="gradient1" r="819.2" spreadMethod="pad">
      <stop offset="0.0" stop-color="#333333"/>
      <stop offset="1.0" stop-color="#1c1c1c"/>
    </radialGradient>
    <radialGradient cx="0" cy="0" gradientTransform="matrix(0.0024, 0.0, 0.0, 0.0059, 6.85, 12.5)" gradientUnits="userSpaceOnUse" id="gradient2" r="819.2" spreadMethod="pad">
      <stop offset="0.0" stop-color="#333333"/>
      <stop offset="1.0" stop-color="#191919"/>
    </radialGradient>
    <radialGradient cx="0" cy="0" gradientTransform="matrix(0.0024, 0.0, 0.0, 0.0086, 7.0, 16.3)" gradientUnits="userSpaceOnUse" id="gradient3" r="819.2" spreadMethod="pad">
      <stop offset="0.0" stop-color="#333333"/>
      <stop offset="1.0" stop-color="#191919"/>
    </radialGradient>
    <radialGradient cx="0" cy="0" gradientTransform="matrix(0.0051, 0.0, 0.0, 0.0051, 15.75, 20.05)" gradientUnits="userSpaceOnUse" id="gradient4" r="819.2" spreadMethod="pad">
      <stop offset="0.0" stop-color="#333333"/>
      <stop offset="1.0" stop-color="#1c1c1c"/>
    </radialGradient>
    <radialGradient cx="0" cy="0" gradientTransform="matrix(0.0017, -0.0017, 0.0069, 0.0067, 12.1, 22.4)" gradientUnits="userSpaceOnUse" id="gradient5" r="819.2" spreadMethod="pad">
      <stop offset="0.0" stop-color="#333333"/>
      <stop offset="1.0" stop-color="#191919"/>
    </radialGradient>
    <radialGradient cx="0" cy="0" gradientTransform="matrix(0.0011, -0.0021, 0.0045, 0.0023, 16.8, 23.9)" gradientUnits="userSpaceOnUse" id="gradient6" r="819.2" spreadMethod="pad">
      <stop offset="0.0" stop-color="#333333"/>
      <stop offset="1.0" stop-color="#191919"/>
    </radialGradient>
  </defs>
</svg>
