<?xml version="1.0" encoding="UTF-8" standalone="no"?>
<svg xmlns:ffdec="https://www.free-decompiler.com/flash" xmlns:xlink="http://www.w3.org/1999/xlink" ffdec:objectType="shape" height="109.8px" width="70.9px" xmlns="http://www.w3.org/2000/svg">
  <g transform="matrix(1.0, 0.0, 0.0, 1.0, 35.45, 0.45)">
    <path d="M19.55 57.85 L19.55 77.25 0.0 90.9 -19.55 77.25 -19.55 57.8 0.0 70.8 19.55 57.85" fill="#d7d7d7" fill-rule="evenodd" stroke="none"/>
    <path d="M19.55 77.25 L35.0 66.5 35.0 85.3 0.0 108.9 -35.0 85.3 -35.0 66.5 -19.55 77.25 0.0 90.9 19.55 77.25" fill="#9e9e9e" fill-rule="evenodd" stroke="none"/>
    <path d="M19.55 0.0 L35.0 0.0 35.0 66.5 19.55 77.25 19.55 57.85 19.55 0.0 M-35.0 66.5 L-35.0 0.0 -19.55 0.0 -19.55 57.8 -19.55 77.25 -35.0 66.5" fill="url(#gradient0)" fill-rule="evenodd" stroke="none"/>
    <path d="M19.55 0.0 L19.55 57.85 0.0 70.8 -19.55 57.8 -19.55 0.0 19.55 0.0" fill="url(#gradient1)" fill-rule="evenodd" stroke="none"/>
    <path d="M35.0 66.5 L35.0 0.0 19.55 0.0 -19.55 0.0 -35.0 0.0 -35.0 66.5 -35.0 85.3 0.0 108.9 35.0 85.3 35.0 66.5 Z" fill="none" stroke="#575757" stroke-linecap="round" stroke-linejoin="round" stroke-width="0.9"/>
  </g>
  <defs>
    <linearGradient gradientTransform="matrix(0.0, -0.0207, 0.0207, 0.0, 0.0, 18.4)" gradientUnits="userSpaceOnUse" id="gradient0" spreadMethod="pad" x1="-819.2" x2="819.2">
      <stop offset="0.0" stop-color="#727272"/>
      <stop offset="1.0" stop-color="#9e9e9e"/>
    </linearGradient>
    <linearGradient gradientTransform="matrix(0.0, -0.0213, 0.0213, 0.0, 0.0, 18.35)" gradientUnits="userSpaceOnUse" id="gradient1" spreadMethod="pad" x1="-819.2" x2="819.2">
      <stop offset="0.0" stop-color="#525252"/>
      <stop offset="1.0" stop-color="#858585"/>
    </linearGradient>
  </defs>
</svg>
