<?xml version="1.0" encoding="UTF-8" standalone="no"?>
<svg xmlns:ffdec="https://www.free-decompiler.com/flash" xmlns:xlink="http://www.w3.org/1999/xlink" ffdec:objectType="shape" height="29.75px" width="34.05px" xmlns="http://www.w3.org/2000/svg">
  <g transform="matrix(1.0, 0.0, 0.0, 1.0, 9.8, 1.85)">
    <path d="M12.4 0.75 L11.2 4.45 5.7 2.55 7.05 0.0 12.4 0.75 M6.6 24.25 L11.25 25.55 15.95 25.55 15.95 22.6 18.2 22.6 18.2 27.4 11.45 27.4 6.05 25.9 6.6 24.25" fill="#696969" fill-rule="evenodd" stroke="none"/>
    <path d="M11.2 4.45 L12.4 0.75 15.9 1.25 15.2 3.2 11.2 4.45 M6.6 24.25 L7.1 22.6 15.95 22.6 15.95 25.55 11.25 25.55 6.6 24.25" fill="#313131" fill-rule="evenodd" stroke="none"/>
    <path d="M12.4 0.75 L11.2 4.45 15.2 3.2 15.9 1.25 12.4 0.75 7.05 0.0 5.7 2.55 11.2 4.45 M15.95 22.6 L7.1 22.6 6.6 24.25 6.05 25.9 11.45 27.4 18.2 27.4 18.2 22.6 15.95 22.6 Z" fill="none" stroke="#252525" stroke-linecap="round" stroke-linejoin="round" stroke-width="1.0"/>
    <path d="M13.9 10.2 L14.05 12.15 14.1 13.2 Q12.65 14.2 10.65 14.45 L7.25 14.45 6.8 10.6 Q6.8 8.7 8.05 7.35 L12.2 7.1 12.2 8.35 13.85 9.65 13.9 10.2" fill="#2e2e2e" fill-rule="evenodd" stroke="none"/>
    <path d="M5.6 18.4 L4.85 15.05 5.45 14.85 5.4 14.4 7.25 14.45 10.65 14.45 Q12.65 14.2 14.1 13.2 L14.1 14.0 14.1 15.65 14.1 17.35 14.1 19.05 10.3 18.75 9.15 18.65 8.55 18.6 5.6 18.4 M3.3 3.9 L5.7 2.55 Q8.5 2.05 10.25 2.5 L12.25 2.95 15.6 5.75 14.45 5.7 12.2 5.8 12.2 6.45 Q8.8 4.75 4.5 6.2 L3.3 3.9" fill="#545454" fill-rule="evenodd" stroke="none"/>
    <path d="M14.1 19.05 L14.15 19.05 14.1 19.05" fill="#3a3a3a" fill-rule="evenodd" stroke="none"/>
    <path d="M22.15 12.5 L22.25 13.45 22.35 14.45 14.1 14.0 14.1 13.2 14.05 12.15 22.15 12.5 M22.3 16.25 L22.2 17.0 21.85 17.85 14.1 17.35 14.1 15.65 22.3 16.25 M21.05 19.35 L20.0 20.95 14.15 20.75 14.15 19.05 21.05 19.35 M17.8 5.85 L19.15 6.0 Q20.9 7.8 21.5 9.5 L21.8 10.5 13.9 10.2 13.85 9.65 12.2 8.35 12.2 7.1 12.2 6.45 12.2 5.8 14.45 5.7 15.6 5.75 17.8 5.85" fill="#9c9c9c" fill-rule="evenodd" stroke="none"/>
    <path d="M21.8 10.5 L22.0 11.65 22.15 12.5 14.05 12.15 13.9 10.2 21.8 10.5 M22.35 14.45 L22.35 15.25 22.3 16.25 14.1 15.65 14.1 14.0 22.35 14.45 M21.85 17.85 L21.05 19.35 14.15 19.05 14.1 19.05 14.1 17.35 21.85 17.85 M4.85 15.05 L3.6 15.4 2.0 13.35 1.35 12.8 0.1 6.95 Q-0.35 4.1 1.2 3.9 L3.3 3.9 4.5 6.2 4.8 6.75 5.0 11.85 5.4 14.4 5.45 14.85 4.85 15.05 M2.0 13.35 L5.0 11.85 2.0 13.35" fill="#878787" fill-rule="evenodd" stroke="none"/>
    <path d="M20.0 20.95 L18.65 23.75 9.95 23.75 7.2 23.5 Q6.55 21.85 6.05 20.0 L14.15 20.75 11.6 20.75 9.95 23.75 11.6 20.75 14.15 20.75 20.0 20.95" fill="#777777" fill-rule="evenodd" stroke="none"/>
    <path d="M12.25 2.95 L15.2 3.2 Q17.5 4.35 17.8 5.85 L15.6 5.75 12.25 2.95 M12.2 6.45 L12.2 7.1 8.05 7.35 Q6.8 8.7 6.8 10.6 L7.25 14.45 5.4 14.4 5.0 11.85 4.8 6.75 4.5 6.2 Q8.8 4.75 12.2 6.45" fill="#727272" fill-rule="evenodd" stroke="none"/>
    <path d="M6.05 20.0 L5.4 19.95 4.8 18.35 5.6 18.4 8.55 18.6 9.15 18.65 10.3 18.75 14.1 19.05 14.15 19.05 14.15 20.75 6.05 20.0" fill="#434343" fill-rule="evenodd" stroke="none"/>
    <path d="M21.8 10.5 L13.9 10.2 M14.05 12.15 L22.15 12.5 M14.1 14.0 L22.35 14.45 M14.1 15.65 L22.3 16.25 M14.1 17.35 L21.85 17.85 M14.15 19.05 L21.05 19.35" fill="none" stroke="#6b6b6b" stroke-linecap="round" stroke-linejoin="round" stroke-width="1.0"/>
    <path d="M21.8 10.5 L22.0 11.65 22.15 12.5 22.25 13.45 22.35 14.45 22.35 15.25 22.3 16.25 22.2 17.0 21.85 17.85 21.05 19.35 20.0 20.95 18.65 23.75 9.95 23.75 7.2 23.5 Q6.55 21.85 6.05 20.0 L5.4 19.95 4.8 18.35 5.6 18.4 4.85 15.05 3.6 15.4 2.0 13.35 1.35 12.8 0.1 6.95 Q-0.35 4.1 1.2 3.9 L3.3 3.9 5.7 2.55 Q8.5 2.05 10.25 2.5 L12.25 2.95 15.2 3.2 Q17.5 4.35 17.8 5.85 L19.15 6.0 Q20.9 7.8 21.5 9.5 L21.8 10.5 M13.9 10.2 L14.05 12.15 14.1 13.2 14.1 14.0 14.1 15.65 14.1 17.35 14.1 19.05 10.3 18.75 9.15 18.65 8.55 18.6 5.6 18.4 M17.8 5.85 L15.6 5.75 14.45 5.7 12.2 5.8 12.2 6.45 12.2 7.1 12.2 8.35 13.85 9.65 13.9 10.2 M15.6 5.75 L12.25 2.95 M12.2 7.1 L8.05 7.35 Q6.8 8.7 6.8 10.6 L7.25 14.45 10.65 14.45 Q12.65 14.2 14.1 13.2 M4.5 6.2 L3.3 3.9 M5.0 11.85 L4.8 6.75 4.5 6.2 Q8.8 4.75 12.2 6.45 M5.4 14.4 L7.25 14.45 M4.85 15.05 L5.45 14.85 5.4 14.4 5.0 11.85 2.0 13.35 M14.15 20.75 L11.6 20.75 9.95 23.75 M14.15 19.05 L14.15 20.75 20.0 20.95 M14.15 19.05 L14.1 19.05 14.15 19.05 M14.15 20.75 L6.05 20.0" fill="none" stroke="#333333" stroke-linecap="round" stroke-linejoin="round" stroke-width="1.0"/>
    <path d="M2.0 -0.75 L4.65 -0.4 Q5.7 -0.15 6.4 1.55 4.35 1.15 4.45 3.25 4.85 4.2 7.75 4.8 5.95 11.0 7.65 16.8 L5.95 16.8 6.5 20.15 2.95 20.15 1.7 11.25 1.7 10.85 1.65 10.25 1.65 10.2 1.65 10.05 1.6 8.65 1.6 7.65 1.7 5.15 2.0 -0.75" fill="#4f4f4f" fill-rule="evenodd" stroke="none"/>
    <path d="M6.5 20.15 L5.95 16.8 7.65 16.8 8.0 15.65 10.85 14.75 12.25 16.45 11.25 16.7 10.35 16.8 11.3 20.7 7.5 20.7 6.55 20.7 6.5 20.15 M7.75 4.8 Q4.85 4.2 4.45 3.25 4.35 1.15 6.4 1.55 L9.0 2.3 Q10.95 2.8 12.7 3.6 L11.1 5.25 Q9.2 5.4 7.75 4.8 M13.85 4.2 L17.25 6.65 Q19.3 8.3 17.7 11.8 16.35 14.8 13.55 15.95 L12.2 14.15 Q15.0 12.65 15.5 10.4 15.8 8.95 15.2 8.3 L12.35 5.8 13.85 4.2 M12.15 16.65 L14.95 16.45 15.6 18.0 21.4 19.2 20.75 21.4 15.45 20.45 Q15.25 20.3 14.95 20.7 L13.3 20.7 12.15 16.65 M10.35 16.8 L7.65 16.8 10.35 16.8 M15.45 20.45 Q15.8 19.0 15.6 18.0 15.8 19.0 15.45 20.45" fill="#232323" fill-rule="evenodd" stroke="none"/>
    <path d="M12.7 3.6 L13.85 4.2 12.35 5.8 11.1 5.25 12.7 3.6 M13.55 15.95 L12.25 16.45 10.85 14.75 12.2 14.15 13.55 15.95 M11.25 16.7 L12.15 16.65 13.3 20.7 11.3 20.7 10.35 16.8 11.25 16.7" fill="#565656" fill-rule="evenodd" stroke="none"/>
    <path d="M2.0 -0.75 L1.7 5.15 -4.2 5.85 Q-4.05 1.5 -1.95 0.35 0.15 -0.85 2.0 -0.75 M1.6 7.65 L1.6 8.65 -4.35 9.05 -4.35 8.2 1.6 7.65 M1.65 10.05 L1.65 10.2 1.65 10.25 1.7 10.85 1.7 11.25 2.95 20.15 Q-0.25 20.15 -3.05 19.15 L-3.35 17.25 -4.2 10.35 1.6 10.05 1.65 10.25 1.6 10.05 1.65 10.05 1.65 10.2 1.65 10.05" fill="#6d6d6d" fill-rule="evenodd" stroke="none"/>
    <path d="M1.7 5.15 L1.6 7.65 -4.35 8.2 -4.2 5.85 1.7 5.15 M1.6 8.65 L1.65 10.05 1.6 10.05 -4.2 10.35 -4.35 9.05 1.6 8.65" fill="#4a4a4a" fill-rule="evenodd" stroke="none"/>
    <path d="M2.95 20.15 L6.5 20.15 6.55 20.7 7.5 20.7 Q7.15 22.0 5.15 22.3 L3.5 22.25 -0.65 21.65 Q-2.5 20.85 -3.05 19.15 -0.25 20.15 2.95 20.15" fill="#333333" fill-rule="evenodd" stroke="none"/>
    <path d="M6.4 1.55 Q5.7 -0.15 4.65 -0.4 L2.0 -0.75 Q0.15 -0.85 -1.95 0.35 -4.05 1.5 -4.2 5.85 L-4.35 8.2 -4.35 9.05 -4.2 10.35 -3.35 17.25 -3.05 19.15 Q-2.5 20.85 -0.65 21.65 L3.5 22.25 5.15 22.3 Q7.15 22.0 7.5 20.7 L6.55 20.7 6.5 20.15 5.95 16.8 7.65 16.8 Q5.95 11.0 7.75 4.8 4.85 4.2 4.45 3.25 4.35 1.15 6.4 1.55 L9.0 2.3 Q10.95 2.8 12.7 3.6 L13.85 4.2 17.25 6.65 Q19.3 8.3 17.7 11.8 16.35 14.8 13.55 15.95 L12.25 16.45 11.25 16.7 12.15 16.65 14.95 16.45 15.6 18.0 21.4 19.2 20.75 21.4 15.45 20.45 Q15.25 20.3 14.95 20.7 L13.3 20.7 11.3 20.7 7.5 20.7 M12.35 5.8 L15.2 8.3 Q15.8 8.95 15.5 10.4 15.0 12.65 12.2 14.15 L13.55 15.95 M12.7 3.6 L11.1 5.25 12.35 5.8 M10.85 14.75 L8.0 15.65 7.65 16.8 10.35 16.8 11.25 16.7 M12.2 14.15 L10.85 14.75 M10.35 16.8 L11.3 20.7 M12.15 16.65 L13.3 20.7 M15.6 18.0 Q15.8 19.0 15.45 20.45 M7.75 4.8 Q9.2 5.4 11.1 5.25" fill="none" stroke="#0b0b0b" stroke-linecap="round" stroke-linejoin="round" stroke-width="1.0"/>
    <path d="M2.0 -0.75 L1.7 5.15 1.6 7.65 1.6 8.65 1.65 10.05 1.65 10.2 1.65 10.25 1.7 10.85 1.7 11.25 2.95 20.15 M1.65 10.25 L1.6 10.05 M1.65 10.05 L1.65 10.2" fill="none" stroke="#3f3f3f" stroke-linecap="round" stroke-linejoin="round" stroke-width="1.0"/>
    <path d="M-8.35 13.8 L-8.35 11.35 -2.65 11.35 -2.7 13.25 -8.35 13.8 M-2.7 15.9 L-2.7 20.75 -8.35 20.75 -8.35 15.9 -2.7 15.9" fill="#272727" fill-rule="evenodd" stroke="none"/>
    <path d="M-2.7 13.25 L-2.7 15.9 -8.35 15.9 -8.35 13.8 -2.7 13.25" fill="#1c1c1c" fill-rule="evenodd" stroke="none"/>
    <path d="M-8.35 13.8 L-8.35 11.35 -2.65 11.35 -2.7 13.25 -2.7 15.9 -2.7 20.75 -8.35 20.75 -8.35 15.9 -8.35 13.8 -2.7 13.25 M-8.35 15.9 L-2.7 15.9" fill="none" stroke="#0b0b0b" stroke-linecap="round" stroke-linejoin="round" stroke-width="1.0"/>
    <path d="M6.05 12.45 L-0.25 12.85 Q-0.7 14.45 -0.55 16.0 L-2.1 16.0 -2.15 13.45 Q-2.15 12.2 -1.25 11.5 2.25 10.6 4.1 11.05 5.95 11.5 6.05 12.45 M-7.55 7.25 Q-8.1 5.45 -7.0 4.0 L-4.55 3.8 Q-4.85 5.7 -5.4 7.25 L-7.55 7.25" fill="#6d6d6d" fill-rule="evenodd" stroke="none"/>
    <path d="M6.05 12.45 L6.3 14.15 6.8 21.2 6.5 21.55 5.2 22.6 Q3.15 23.25 0.25 22.5 -0.5 19.05 -0.55 16.0 -0.5 19.05 0.25 22.5 L-1.45 21.4 Q-2.05 18.65 -2.1 16.0 L-0.55 16.0 Q-0.7 14.45 -0.25 12.85 L6.05 12.45 M-7.55 7.25 L-5.4 7.25 Q-4.85 5.7 -4.55 3.8 -2.6 3.65 -2.15 5.2 -1.95 8.2 -2.75 10.25 L-6.75 10.45 Q-7.9 9.1 -7.55 7.25" fill="#4d4d4d" fill-rule="evenodd" stroke="none"/>
    <path d="M0.25 22.5 Q3.15 23.25 5.2 22.6 L6.5 21.55 6.8 21.2 6.3 14.15 6.05 12.45 -0.25 12.85 Q-0.7 14.45 -0.55 16.0 -0.5 19.05 0.25 22.5 L-1.45 21.4 Q-2.05 18.65 -2.1 16.0 L-2.15 13.45 Q-2.15 12.2 -1.25 11.5 2.25 10.6 4.1 11.05 5.95 11.5 6.05 12.45 M-4.55 3.8 L-7.0 4.0 Q-8.1 5.45 -7.55 7.25 L-5.4 7.25 Q-4.85 5.7 -4.55 3.8 -2.6 3.65 -2.15 5.2 -1.95 8.2 -2.75 10.25 L-6.75 10.45 Q-7.9 9.1 -7.55 7.25 M-2.1 16.0 L-0.55 16.0" fill="none" stroke="#272727" stroke-linecap="round" stroke-linejoin="round" stroke-width="1.0"/>
    <path d="M3.3 18.35 L3.8 17.15 21.4 19.75 Q23.0 22.05 20.75 23.1 L3.65 20.75 Q3.4 20.25 3.3 19.75 3.15 19.05 3.3 18.35" fill="#434343" fill-rule="evenodd" stroke="none"/>
    <path d="M1.8 6.45 L1.95 -1.35 3.45 -1.35 3.25 6.55 1.8 6.45 3.25 6.55 7.25 6.8 7.45 8.2 3.2 7.95 3.0 14.05 7.2 13.85 7.3 15.5 -2.7 15.9 -9.3 16.4 -9.3 14.65 -2.7 14.35 1.6 14.15 1.75 7.9 -8.8 7.25 -8.65 5.75 1.8 6.45 M3.3 19.75 L-3.0 20.05 -9.3 20.3 -9.3 18.8 -3.0 18.6 3.3 18.35 Q3.15 19.05 3.3 19.75 M-2.7 15.9 L-2.7 14.35 -2.7 15.9 M-3.0 20.05 L-3.0 18.6 -3.0 20.05 M3.0 14.05 L1.6 14.15 3.0 14.05 M1.75 7.9 L3.2 7.95 1.75 7.9" fill="#272727" fill-rule="evenodd" stroke="none"/>
    <path d="M3.3 18.35 L3.8 17.15 21.4 19.75 Q23.0 22.05 20.75 23.1 L3.65 20.75 Q3.4 20.25 3.3 19.75" fill="none" stroke="#202020" stroke-linecap="round" stroke-linejoin="round" stroke-width="1.0"/>
    <path d="M3.25 6.55 L3.45 -1.35 1.95 -1.35 1.8 6.45 3.25 6.55 7.25 6.8 7.45 8.2 3.2 7.95 3.0 14.05 7.2 13.85 7.3 15.5 -2.7 15.9 -9.3 16.4 -9.3 14.65 -2.7 14.35 1.6 14.15 1.75 7.9 -8.8 7.25 -8.65 5.75 1.8 6.45 M3.3 19.75 L-3.0 20.05 -9.3 20.3 -9.3 18.8 -3.0 18.6 3.3 18.35 Q3.15 19.05 3.3 19.75 M3.2 7.95 L1.75 7.9 M1.6 14.15 L3.0 14.05 M-3.0 18.6 L-3.0 20.05 M-2.7 14.35 L-2.7 15.9" fill="none" stroke="#0b0b0b" stroke-linecap="round" stroke-linejoin="round" stroke-width="1.0"/>
    <path d="M20.7 19.9 L18.3 19.9 18.3 18.7 Q19.5 17.2 20.7 18.7 L20.7 19.9 M6.95 18.2 L4.55 18.2 4.55 17.0 Q5.75 15.5 6.95 17.0 L6.95 18.2 M7.95 17.35 Q9.15 15.85 10.35 17.35 L10.35 18.55 7.95 18.55 7.95 17.35 M13.8 17.95 L13.8 19.15 11.4 19.15 11.4 17.95 Q12.6 16.45 13.8 17.95 M14.85 18.5 Q16.05 17.0 17.25 18.5 L17.25 19.7 14.85 19.7 14.85 18.5" fill="#989898" fill-rule="evenodd" stroke="none"/>
    <path d="M20.7 22.45 L18.25 22.45 18.25 20.0 20.7 20.0 20.7 22.45 M7.9 18.65 L10.35 18.65 10.35 21.1 7.9 21.1 7.9 18.65 M4.5 18.3 L6.95 18.3 6.95 20.75 4.5 20.75 4.5 18.3 M11.35 19.25 L13.8 19.25 13.8 21.7 11.35 21.7 11.35 19.25 M14.8 19.8 L17.25 19.8 17.25 22.25 14.8 22.25 14.8 19.8" fill="#434343" fill-rule="evenodd" stroke="none"/>
    <path d="M20.7 24.0 L20.75 23.1 20.75 24.1 20.7 24.1 20.7 24.0 18.25 24.0 18.25 23.0 20.7 23.0 20.7 24.0 M6.95 22.3 L4.5 22.3 4.5 21.3 6.95 21.3 6.95 22.3 7.0 21.4 7.0 22.4 6.95 22.4 6.95 22.3 M10.35 22.65 L7.9 22.65 7.9 21.65 10.35 21.65 10.35 22.65 10.4 21.75 10.4 22.75 10.35 22.75 10.35 22.65 M13.8 23.25 L11.35 23.25 11.35 22.25 13.8 22.25 13.8 23.25 13.85 22.35 13.85 23.35 13.8 23.35 13.8 23.25 M17.25 23.8 L14.8 23.8 14.8 22.8 17.25 22.8 17.25 23.8 17.3 22.9 17.3 23.9 17.25 23.9 17.25 23.8" fill="#959595" fill-rule="evenodd" stroke="none"/>
    <path d="M19.5 11.95 L19.5 11.3 22.1 11.3 22.1 11.9 22.1 14.2 21.9 14.55 21.9 17.15 19.7 17.15 19.7 14.5 19.65 14.45 19.5 14.2 19.5 11.95 M22.25 11.9 L22.25 11.3 23.6 11.3 Q24.1 13.35 23.6 15.4 L23.6 17.15 22.45 17.15 22.45 14.5 22.25 14.2 22.25 11.9 M22.1 14.2 L21.05 15.4 21.0 15.4 20.65 15.35 19.7 14.5 20.65 15.35 21.0 15.4 21.05 15.4 22.1 14.2 M23.6 15.4 L23.4 15.35 23.15 15.2 22.45 14.2 22.45 14.5 22.45 14.2 23.15 15.2 23.4 15.35 23.6 15.4 M19.25 14.55 L19.25 17.15 17.05 17.15 17.05 14.5 16.85 14.2 16.85 11.3 19.45 11.3 19.45 11.95 19.45 14.2 19.25 14.55 18.35 15.4 17.95 15.35 16.85 14.2 17.95 15.35 18.35 15.4 19.25 14.55" fill="#545454" fill-rule="evenodd" stroke="none"/>
    <path d="M20.7 24.0 L18.25 24.0 18.25 23.0 20.7 23.0 20.7 24.0 M20.7 19.9 L18.3 19.9 18.3 18.7 Q19.5 17.2 20.7 18.7 L20.7 19.9 M6.95 18.2 L4.55 18.2 4.55 17.0 Q5.75 15.5 6.95 17.0 L6.95 18.2 M7.95 17.35 Q9.15 15.85 10.35 17.35 L10.35 18.55 7.95 18.55 7.95 17.35 M6.95 22.3 L4.5 22.3 4.5 21.3 6.95 21.3 6.95 22.3 M10.35 22.65 L7.9 22.65 7.9 21.65 10.35 21.65 10.35 22.65 M13.8 17.95 L13.8 19.15 11.4 19.15 11.4 17.95 Q12.6 16.45 13.8 17.95 M13.8 23.25 L11.35 23.25 11.35 22.25 13.8 22.25 13.8 23.25 M17.25 23.8 L14.8 23.8 14.8 22.8 17.25 22.8 17.25 23.8 M14.85 18.5 Q16.05 17.0 17.25 18.5 L17.25 19.7 14.85 19.7 14.85 18.5" fill="none" stroke="#333333" stroke-linecap="round" stroke-linejoin="round" stroke-width="0.8"/>
    <path d="M19.5 11.95 L19.5 11.3 22.1 11.3 22.1 11.9 22.25 11.9 22.25 11.3 23.6 11.3 Q24.1 13.35 23.6 15.4 L23.6 17.15 22.45 17.15 22.45 14.5 22.45 14.2 23.15 15.2 23.4 15.35 23.6 15.4 M22.25 14.2 L22.25 11.9 M19.7 14.5 L20.65 15.35 21.0 15.4 21.05 15.4 22.1 14.2 22.1 11.9 M22.1 14.2 L21.9 14.55 21.9 17.15 19.7 17.15 19.7 14.5 19.65 14.45 19.55 14.35 19.5 14.25 19.25 14.55 19.25 17.15 17.05 17.15 17.05 14.5 16.85 14.2 16.85 11.3 19.45 11.3 19.45 11.95 19.5 11.95 19.5 14.2 19.5 14.25 19.45 14.2 19.45 11.95 M16.85 14.2 L17.95 15.35 18.35 15.4 19.25 14.55" fill="none" stroke="#3a3a3a" stroke-linecap="round" stroke-linejoin="round" stroke-width="0.8"/>
    <path d="M20.7 22.45 L18.25 22.45 18.25 20.0 20.7 20.0 20.7 22.45 M7.9 18.65 L10.35 18.65 10.35 21.1 7.9 21.1 7.9 18.65 M4.5 18.3 L6.95 18.3 6.95 20.75 4.5 20.75 4.5 18.3 M11.35 19.25 L13.8 19.25 13.8 21.7 11.35 21.7 11.35 19.25 M14.8 19.8 L17.25 19.8 17.25 22.25 14.8 22.25 14.8 19.8 Z" fill="none" stroke="#202020" stroke-linecap="round" stroke-linejoin="round" stroke-width="0.8"/>
  </g>
</svg>
