<?xml version="1.0" encoding="UTF-8" standalone="no"?>
<svg xmlns:ffdec="https://www.free-decompiler.com/flash" xmlns:xlink="http://www.w3.org/1999/xlink" ffdec:objectType="shape" height="32.1px" width="32.45px" xmlns="http://www.w3.org/2000/svg">
  <g transform="matrix(1.0, 0.0, 0.0, 1.0, 18.6, 34.9)">
    <path d="M-5.6 -5.0 Q-9.75 -13.9 -10.0 -15.6 -10.15 -16.7 -6.5 -17.4 L-1.8 -17.85 Q-0.95 -17.85 2.95 -14.8 L6.65 -11.75 Q7.0 -11.85 6.65 -9.7 6.35 -7.5 5.8 -6.75 L4.85 -4.3 Q0.6 -1.0 -5.2 -5.05 L-5.6 -5.0" fill="#7e6a3d" fill-rule="evenodd" stroke="none"/>
    <path d="M-6.55 -34.15 Q-5.4 -31.45 -0.5 -30.9 3.75 -30.05 5.25 -28.85 -5.8 -27.65 -6.55 -34.15" fill="#887c61" fill-rule="evenodd" stroke="none"/>
    <path d="M5.25 -28.85 L6.85 -27.45 7.2 -26.3 9.3 -24.8 11.0 -22.85 12.1 -20.6 Q12.6 -17.2 11.55 -14.85 11.15 -13.9 8.6 -10.4 L4.8 -11.85 2.95 -13.05 1.1 -15.75 -4.95 -16.6 -6.35 -16.05 -7.8 -16.1 -11.1 -18.25 Q-12.75 -21.6 -12.45 -26.4 -12.35 -27.8 -11.4 -29.7 L-10.05 -32.45 -8.45 -34.05 -6.55 -34.15 Q-5.8 -27.65 5.25 -28.85" fill="#c5ad75" fill-rule="evenodd" stroke="none"/>
    <path d="M-8.9 -32.4 Q-10.3 -28.45 -10.45 -26.05 -10.45 -25.65 -11.4 -25.65 -12.35 -25.6 -12.35 -25.25 -12.55 -21.65 -10.95 -18.25 L-7.7 -16.5 -6.35 -15.5 -6.35 -11.9 -11.6 -12.85 Q-15.1 -13.75 -17.15 -14.95 L-17.75 -18.75 -16.5 -20.55 -16.65 -25.0 -18.3 -26.75 Q-18.15 -30.3 -17.15 -31.85 L-12.4 -32.45 -8.9 -32.4" fill="#aa844d" fill-rule="evenodd" stroke="none"/>
    <path d="M8.75 -24.4 Q8.35 -24.05 8.15 -24.05 7.85 -24.05 6.7 -25.2 L6.55 -27.05 Q6.45 -27.75 6.75 -28.0 L8.7 -27.6 10.1 -26.6 Q12.85 -24.45 13.15 -21.05 L12.65 -20.6 Q12.15 -20.2 11.85 -20.2 L10.75 -20.25 Q10.5 -20.4 10.5 -21.05 L10.55 -21.7 Q9.9 -23.95 8.75 -24.4" fill="#d3b367" fill-rule="evenodd" stroke="none"/>
    <path d="M12.5 -20.15 L10.55 -20.35 10.35 -22.05 Q9.65 -23.45 8.15 -24.35 6.85 -25.1 6.85 -25.55 L6.8 -26.55 Q6.8 -27.35 7.15 -27.9" ffdec:has-small-stroke="true" ffdec:original-stroke-width="0.95" fill="none" stroke="#6a5d3f" stroke-linecap="round" stroke-linejoin="round" stroke-width="1.0"/>
    <path d="M-1.2 -15.95 L-9.5 -17.15 Q-9.05 -16.6 -7.9 -16.35 -6.95 -15.85 -6.85 -13.95 -6.6 -11.7 -7.6 -11.1 -8.8 -10.35 -11.4 -12.6 -15.15 -12.55 -16.5 -14.05 -17.6 -15.3 -17.1 -17.9 L-16.15 -18.25 -11.15 -18.05 -9.5 -17.2 -4.15 -16.6 -1.2 -15.95 M11.0 -13.25 L10.65 -11.0 Q9.75 -9.6 8.4 -9.6 7.25 -9.55 5.55 -10.3 4.3 -10.85 3.7 -11.35 L3.0 -11.9 1.7 -15.4 5.3 -15.0 6.95 -14.65 11.0 -13.25" fill="#b99d5b" fill-rule="evenodd" stroke="none"/>
    <path d="M-9.3 -31.8 L-9.75 -28.1 -10.6 -25.5 Q-12.35 -27.8 -13.95 -28.65 L-17.95 -30.7 Q-15.85 -34.5 -12.65 -34.45 -9.75 -34.45 -9.4 -32.2 L-9.3 -31.8" fill="#d3b367" fill-rule="evenodd" stroke="none"/>
    <path d="M-9.5 -33.6 L-9.25 -32.3 -9.65 -27.55 -10.7 -25.65 -10.7 -25.6 -10.75 -25.55 -10.9 -25.35 -10.95 -25.5 -12.15 -25.25 -12.25 -23.1 Q-12.25 -22.2 -11.1 -18.45 L-10.95 -18.4 -11.35 -19.95 -10.5 -17.95 -8.15 -16.55 Q-6.85 -16.35 -4.85 -16.5 L-2.4 -16.35 0.3 -16.05 -4.3 -16.4 0.65 -15.85 2.05 -15.0 2.7 -13.45 2.4 -14.6 3.55 -14.9 5.45 -15.1 10.7 -13.25 11.05 -14.35 M-10.95 -25.5 L-11.4 -26.4 -13.0 -28.0 -14.45 -29.0 -17.4 -30.8 M-6.55 -15.6 L-8.15 -16.55 -8.85 -16.7 -6.8 -15.25 -6.5 -12.0 -6.7 -15.55 -6.55 -15.6 -4.3 -16.4 -6.5 -15.55 -6.55 -15.6 M-6.5 -12.0 L-6.5 -11.9 -8.1 -10.35 -6.5 -12.0 M3.35 -11.95 L2.7 -13.45 3.05 -12.15 3.35 -11.95 6.3 -10.05 Q8.0 -9.2 8.6 -9.2 9.6 -9.25 10.15 -10.95 M8.6 -9.2 L8.35 -9.1 Q7.35 -8.75 6.4 -9.75 L3.35 -11.95 M-10.95 -25.5 L-10.75 -25.55 -10.7 -25.65 -11.4 -26.4 -12.35 -27.6 Q-12.8 -28.05 -14.45 -29.0 M-8.85 -16.7 Q-9.85 -16.95 -10.35 -17.5 L-10.45 -17.85 -10.9 -18.15 -10.9 -18.2 -11.25 -18.4 -15.05 -18.4 -16.95 -16.9 -15.15 -18.5 -10.95 -18.4 -10.9 -18.2 -10.5 -17.95 -10.45 -17.85 -8.85 -16.7 Z" ffdec:has-small-stroke="true" ffdec:original-stroke-width="0.95" fill="none" stroke="#6a5d3f" stroke-linecap="round" stroke-linejoin="round" stroke-width="1.0"/>
    <path d="M-17.85 -31.0 Q-15.35 -34.75 -12.55 -34.45 L-10.25 -33.95 -7.75 -34.15 -6.4 -33.95 -5.9 -33.35 Q-5.15 -32.65 -4.0 -32.1 -2.95 -31.6 -1.2 -31.2 L0.95 -30.7 2.45 -30.2 3.65 -29.7 Q4.2 -29.3 5.25 -29.0 L5.95 -28.15 7.35 -27.85 Q8.9 -27.4 9.95 -26.55 L12.1 -24.1 Q13.05 -22.7 13.2 -21.95 L13.4 -21.0 12.35 -20.25 12.45 -18.8 12.45 -16.6 Q12.25 -15.6 10.6 -13.3 L10.35 -11.15 Q9.85 -9.8 9.15 -9.4 L7.8 -9.2 Q6.6 -9.0 5.7 -6.15 4.8 -3.4 2.35 -3.3 -3.05 -3.45 -4.6 -4.3 -5.35 -4.75 -6.25 -6.75 L-7.35 -9.2 -8.35 -11.1 Q-9.1 -11.65 -11.7 -12.15 -14.05 -12.7 -14.7 -13.0 -15.4 -13.3 -16.45 -14.35 L-17.4 -19.05 -16.05 -20.8 -16.35 -25.1 -18.15 -27.15 -17.5 -30.45 -17.85 -31.0 Z" ffdec:has-small-stroke="true" ffdec:original-stroke-width="0.95" fill="none" stroke="#504630" stroke-linecap="round" stroke-linejoin="round" stroke-width="1.0"/>
    <path d="M-7.55 -21.7 L-8.1 -24.0" ffdec:has-small-stroke="true" ffdec:original-stroke-width="0.95" fill="none" stroke="#8d7b53" stroke-linecap="round" stroke-linejoin="round" stroke-width="1.0"/>
    <path d="M9.45 -18.05 L8.15 -19.05" ffdec:has-small-stroke="true" ffdec:original-stroke-width="0.95" fill="none" stroke="#8d7b53" stroke-linecap="round" stroke-linejoin="round" stroke-width="1.0"/>
    <path d="M8.6 -16.5 L5.9 -18.1" ffdec:has-small-stroke="true" ffdec:original-stroke-width="0.95" fill="none" stroke="#8d7b53" stroke-linecap="round" stroke-linejoin="round" stroke-width="1.0"/>
    <path d="M-14.1 -31.8 L-15.9 -32.85 -17.6 -30.8 -17.6 -29.25 -18.1 -26.9 -16.3 -25.1 -15.8 -21.1 -17.4 -19.0 -16.45 -14.75 -14.05 -12.95 -13.0 -12.65 -11.1 -11.95 Q-9.9 -11.45 -7.9 -15.65" ffdec:has-small-stroke="true" ffdec:original-stroke-width="0.95" fill="none" stroke="#504630" stroke-linecap="round" stroke-linejoin="round" stroke-opacity="0.30980393" stroke-width="1.0"/>
  </g>
</svg>
