<?xml version="1.0" encoding="UTF-8" standalone="no"?>
<svg xmlns:ffdec="https://www.free-decompiler.com/flash" xmlns:xlink="http://www.w3.org/1999/xlink" ffdec:objectType="shape" height="28.95px" width="36.65px" xmlns="http://www.w3.org/2000/svg">
  <g transform="matrix(1.0, 0.0, 0.0, 1.0, -3.0, 0.6)">
    <path d="M27.9 1.2 L26.7 4.9 21.2 3.0 22.55 0.45 27.9 1.2 M22.1 24.7 L22.6 23.05 31.45 23.05 31.45 26.0 26.75 26.0 22.1 24.7" fill="#5f1313" fill-rule="evenodd" stroke="none"/>
    <path d="M27.9 1.2 L31.4 1.7 30.7 3.65 26.7 4.9 27.9 1.2 M22.1 24.7 L26.75 26.0 31.45 26.0 31.45 23.05 33.7 23.05 33.7 27.85 26.95 27.85 21.55 26.35 22.1 24.7" fill="#b6b1b1" fill-rule="evenodd" stroke="none"/>
    <path d="M26.7 4.9 L30.7 3.65 31.4 1.7 27.9 1.2 26.7 4.9 21.2 3.0 22.55 0.45 27.9 1.2 M31.45 23.05 L22.6 23.05 22.1 24.7 21.55 26.35 26.95 27.85 33.7 27.85 33.7 23.05 31.45 23.05 Z" fill="none" stroke="#190101" stroke-linecap="round" stroke-linejoin="round" stroke-width="1.0"/>
    <path d="M24.45 3.55 Q27.0 4.65 27.7 6.25 L24.45 3.55" fill="#202020" fill-rule="evenodd" stroke="none"/>
    <path d="M33.3 6.3 L34.65 6.45 Q36.4 8.25 37.0 9.95 L31.0 9.1 31.55 11.15 37.5 12.1 37.75 13.9 31.65 12.95 31.65 15.0 37.85 15.7 37.7 17.45 Q37.15 19.05 35.7 20.35 L31.05 17.9 29.85 17.25 29.6 13.65 29.35 10.1 27.7 8.8 27.7 7.55 27.7 6.25 29.95 6.15 33.3 6.3 M20.35 15.5 L19.1 15.85 17.5 13.8 17.15 13.5 17.15 13.45 16.95 13.25 16.6 11.35 16.6 4.4 16.85 4.35 17.15 4.35 17.2 4.35 17.8 4.35 17.9 4.3 17.9 4.35 18.8 4.35 20.3 7.2 20.5 12.3 20.9 14.85 20.95 15.3 20.35 15.5 M17.5 13.8 L20.5 12.3 17.5 13.8 M17.5 9.05 L17.9 11.25 17.5 9.05 17.15 7.3 17.5 9.05 M17.8 4.35 Q16.8 4.85 17.15 7.3 16.8 4.85 17.8 4.35" fill="#bbbbbb" fill-rule="evenodd" stroke="none"/>
    <path d="M35.7 20.35 L35.5 21.4 34.15 24.2 25.45 24.2 27.1 21.2 30.05 21.2 30.55 19.55 31.05 17.9 35.7 20.35 M23.1 3.0 L30.7 3.65 Q33.0 4.8 33.3 6.3 L29.95 6.15 27.7 6.25 Q27.0 4.65 24.45 3.55 L23.1 3.0" fill="#919191" fill-rule="evenodd" stroke="none"/>
    <path d="M25.45 24.2 L22.7 23.95 Q22.05 22.3 21.55 20.45 L30.05 21.2 27.1 21.2 25.45 24.2 M18.8 4.35 L20.55 3.0 23.1 3.0 24.45 3.55 27.7 6.25 27.7 7.55 23.55 7.8 Q22.3 9.15 22.3 11.05 22.4 13.25 23.2 14.15 L26.05 14.95 Q28.15 15.3 29.6 13.65 L29.85 17.25 31.05 17.9 30.55 19.55 25.8 19.2 24.65 19.1 24.05 19.05 23.75 19.05 23.45 19.0 20.9 14.85 20.5 12.3 20.3 7.2 18.8 4.35" fill="#410b0b" fill-rule="evenodd" stroke="none"/>
    <path d="M21.1 18.85 L20.35 15.5 20.95 15.3 20.9 14.85 23.45 19.0 21.1 18.85" fill="#350606" fill-rule="evenodd" stroke="none"/>
    <path d="M21.55 20.45 L20.9 20.4 20.3 18.8 21.1 18.85 23.45 19.0 23.75 19.05 24.05 19.05 24.65 19.1 25.8 19.2 30.55 19.55 30.05 21.2 21.55 20.45" fill="#350d0d" fill-rule="evenodd" stroke="none"/>
    <path d="M27.7 7.55 L27.7 8.8 29.35 10.1 29.6 13.65 Q28.15 15.3 26.05 14.95 L23.2 14.15 Q22.4 13.25 22.3 11.05 22.3 9.15 23.55 7.8 L27.7 7.55" fill="#5f1313" fill-rule="evenodd" stroke="none"/>
    <path d="M37.0 9.95 L37.5 12.1 31.55 11.15 31.0 9.1 37.0 9.95 M37.75 13.9 L37.85 15.7 31.65 15.0 31.65 12.95 37.75 13.9" fill="#541515" fill-rule="evenodd" stroke="none"/>
    <path d="M33.3 6.3 L34.65 6.45 Q36.4 8.25 37.0 9.95 M37.5 12.1 L37.75 13.9 M37.85 15.7 L37.7 17.45 Q37.15 19.05 35.7 20.35 L35.5 21.4 34.15 24.2 25.45 24.2 22.7 23.95 Q22.05 22.3 21.55 20.45 M21.1 18.85 L20.35 15.5 19.1 15.85 17.5 13.8 17.15 13.5 M17.15 13.45 L16.95 13.25 16.6 11.35 M16.6 4.4 L16.85 4.35 17.15 4.35 M17.2 4.35 L17.8 4.35 17.9 4.3 M17.9 4.35 L18.8 4.35 20.55 3.0 23.1 3.0 30.7 3.65 Q33.0 4.8 33.3 6.3 L29.95 6.15 27.7 6.25 27.7 7.55 27.7 8.8 29.35 10.1 29.6 13.65 29.85 17.25 31.05 17.9 35.7 20.35 M20.5 12.3 L20.3 7.2 18.8 4.35 M27.7 7.55 L23.55 7.8 Q22.3 9.15 22.3 11.05 22.4 13.25 23.2 14.15 L26.05 14.95 Q28.15 15.3 29.6 13.65 M20.35 15.5 L20.95 15.3 20.9 14.85 20.5 12.3 17.5 13.8 M23.75 19.05 L24.05 19.05 24.65 19.1 25.8 19.2 30.55 19.55 M23.45 19.0 L21.1 18.85 M17.9 11.25 L17.5 9.05 M17.15 7.3 Q16.8 4.85 17.8 4.35" fill="none" stroke="#0e0e0e" stroke-linecap="round" stroke-linejoin="round" stroke-width="1.0"/>
    <path d="M30.55 19.55 L31.05 17.9 M25.45 24.2 L27.1 21.2 30.05 21.2 30.55 19.55" fill="none" stroke="#121212" stroke-linecap="round" stroke-linejoin="round" stroke-width="1.0"/>
    <path d="M21.55 20.45 L20.9 20.4 20.3 18.8 21.1 18.85 M30.05 21.2 L21.55 20.45" fill="none" stroke="#171717" stroke-linecap="round" stroke-linejoin="round" stroke-width="1.0"/>
    <path d="M37.0 9.95 L37.5 12.1 31.55 11.15 31.0 9.1 37.0 9.95 M37.75 13.9 L37.85 15.7 31.65 15.0 31.65 12.95 37.75 13.9 M17.5 9.05 L17.15 7.3" fill="none" stroke="#1c1c1c" stroke-linecap="round" stroke-linejoin="round" stroke-width="1.0"/>
    <path d="M27.7 6.25 L24.45 3.55" fill="none" stroke="#191919" stroke-linecap="round" stroke-linejoin="round" stroke-width="1.2000000000000002"/>
    <path d="M6.8 10.35 Q6.3 5.0 7.35 0.95 10.5 0.05 13.7 -0.05 L13.95 -0.05 14.55 -0.1 17.9 0.1 18.55 0.45 19.3 1.7 17.9 1.8 17.9 1.75 17.75 1.75 17.75 1.8 16.9 2.5 16.75 2.65 16.6 2.75 14.55 4.45 13.95 5.0 13.7 5.15 6.8 10.35" fill="#bbbbbb" fill-rule="evenodd" stroke="none"/>
    <path d="M19.3 1.7 L19.4 2.4 17.9 2.45 16.25 3.85 14.85 4.8 10.85 7.65 8.4 9.35 7.85 9.75 6.8 10.35 13.7 5.15 13.95 5.0 14.55 4.45 16.6 2.75 16.75 2.65 16.9 2.5 17.75 1.8 17.75 1.75 17.9 1.75 17.9 1.8 19.3 1.7 M16.75 2.65 L16.6 2.75 16.75 2.65" fill="#252525" fill-rule="evenodd" stroke="none"/>
    <path d="M19.55 3.9 L19.95 3.95 19.55 3.95 19.55 3.9 M20.25 13.5 L20.4 19.05 21.2 18.55 21.2 19.15 20.4 19.2 20.35 26.0 18.65 26.3 17.9 26.4 18.45 26.3 14.55 26.7 13.95 26.75 13.7 26.75 8.75 26.55 Q8.2 20.85 8.0 15.3 L7.9 12.95 15.25 12.45 15.35 14.25 16.6 14.05 16.7 14.0 17.9 13.85 17.9 13.8 20.25 13.5 M7.85 10.8 L7.85 9.75 8.4 9.35 15.05 9.0 15.15 10.7 7.85 10.8 M20.4 19.2 L20.4 19.05 20.4 19.2 M15.0 7.55 L10.85 7.65 14.85 4.8 15.0 7.55 M15.35 14.25 L8.0 15.3 15.35 14.25" fill="#989898" fill-rule="evenodd" stroke="none"/>
    <path d="M16.25 3.85 L16.7 14.0 16.6 14.05 15.35 14.25 15.25 12.45 15.15 10.7 15.05 9.0 15.0 7.55 14.85 4.8 16.25 3.85" fill="#412424" fill-rule="evenodd" stroke="none"/>
    <path d="M19.4 2.4 L19.55 3.9 19.55 3.95 20.25 13.5 17.9 13.8 17.9 13.85 16.7 14.0 16.25 3.85 17.9 2.45 19.4 2.4 M7.9 12.95 L7.85 10.8 15.15 10.7 15.25 12.45 7.9 12.95 M15.0 7.55 L15.05 9.0 8.4 9.35 10.85 7.65 15.0 7.55" fill="#7e7e7e" fill-rule="evenodd" stroke="none"/>
    <path d="M6.8 10.35 L13.7 5.15 13.95 5.0 14.55 4.45 16.6 2.75 16.75 2.65 16.9 2.5 17.75 1.8 17.75 1.75 17.9 1.75 M17.9 1.8 L19.3 1.7" fill="none" stroke="#480909" stroke-linecap="round" stroke-linejoin="round" stroke-width="1.0"/>
    <path d="M6.8 10.35 Q6.3 5.0 7.35 0.95 10.5 0.05 13.7 -0.05 L13.95 -0.05 14.55 -0.1 17.9 0.1 18.55 0.45 19.3 1.7 19.4 2.4 19.55 3.9 19.55 3.95 20.25 13.5 20.4 19.05 20.4 19.2 20.35 26.0 18.65 26.3 17.9 26.4 M18.45 26.3 L14.55 26.7 13.95 26.75 13.7 26.75 8.75 26.55 Q8.2 20.85 8.0 15.3 L7.9 12.95 7.85 10.8 7.85 9.75 6.8 10.35 M19.4 2.4 L17.9 2.45 16.25 3.85 16.7 14.0 17.9 13.85 M17.9 13.8 L20.25 13.5 M15.05 9.0 L15.15 10.7 15.25 12.45 15.35 14.25 16.6 14.05 16.7 14.0 M15.0 7.55 L15.05 9.0 M8.4 9.35 L7.85 9.75 M15.0 7.55 L14.85 4.8 10.85 7.65 8.4 9.35 M16.25 3.85 L14.85 4.8 M8.0 15.3 L15.35 14.25" fill="none" stroke="#0b0000" stroke-linecap="round" stroke-linejoin="round" stroke-width="1.0"/>
    <path d="M27.05 16.45 L29.85 16.25 30.5 17.8 36.3 19.0 35.65 21.2 30.35 20.25 Q30.15 20.1 29.85 20.5 L28.2 20.5 27.05 16.45 M30.35 20.25 Q30.7 18.8 30.5 17.8 30.7 18.8 30.35 20.25" fill="#232323" fill-rule="evenodd" stroke="none"/>
    <path d="M28.75 4.0 L27.25 5.6 26.0 5.05 27.6 3.4 28.75 4.0 M27.1 13.95 L28.45 15.75 27.15 16.25 25.75 14.55 27.1 13.95 M26.15 16.5 L27.05 16.45 28.2 20.5 26.2 20.5 25.25 16.6 26.15 16.5" fill="#480909" fill-rule="evenodd" stroke="none"/>
    <path d="M28.75 4.0 Q30.05 4.75 32.15 6.45 34.2 8.1 32.6 11.6 31.25 14.6 28.45 15.75 L27.1 13.95 Q29.9 12.45 30.4 10.2 30.7 8.75 30.1 8.1 L27.25 5.6 28.75 4.0 M27.15 16.25 L26.15 16.5 25.25 16.6 21.9 16.6 25.25 16.6 26.2 20.5 20.95 20.5 19.55 20.5 Q18.35 18.65 18.85 16.6 L21.1 16.6 21.9 16.6 21.9 16.0 22.9 15.45 25.75 14.55 27.15 16.25 M27.6 3.4 L26.0 5.05 21.9 4.8 21.1 4.7 18.3 3.85 19.3 1.35 21.3 1.35 23.9 2.1 Q25.85 2.6 27.6 3.4" fill="#989898" fill-rule="evenodd" stroke="none"/>
    <path d="M28.45 15.75 Q31.25 14.6 32.6 11.6 34.2 8.1 32.15 6.45 30.05 4.75 28.75 4.0 L27.6 3.4 26.0 5.05 27.25 5.6 30.1 8.1 Q30.7 8.75 30.4 10.2 29.9 12.45 27.1 13.95 L28.45 15.75 27.15 16.25 26.15 16.5 27.05 16.45 29.85 16.25 30.5 17.8 36.3 19.0 35.65 21.2 30.35 20.25 Q30.15 20.1 29.85 20.5 L28.2 20.5 26.2 20.5 20.95 20.5 M21.1 16.6 L21.9 16.0 22.9 15.45 25.75 14.55 27.1 13.95 M26.0 5.05 L21.9 4.8 21.1 4.7 18.3 3.85 19.3 1.35 21.3 1.35 23.9 2.1 Q25.85 2.6 27.6 3.4 M21.9 16.6 L25.25 16.6 26.15 16.5 M21.1 16.6 L21.9 16.6 M25.25 16.6 L26.2 20.5 M27.05 16.45 L28.2 20.5 M30.5 17.8 Q30.7 18.8 30.35 20.25" fill="none" stroke="#0b0b0b" stroke-linecap="round" stroke-linejoin="round" stroke-width="1.0"/>
    <path d="M20.95 20.5 L19.55 20.5 Q18.35 18.65 18.85 16.6 L21.1 16.6" fill="none" stroke="#070000" stroke-linecap="round" stroke-linejoin="round" stroke-width="1.0"/>
    <path d="M13.25 12.55 L13.25 11.95 14.75 11.7 14.8 12.5 14.9 14.7 13.35 14.75 14.9 14.7 16.85 14.6 18.25 14.55 18.95 14.5 19.05 16.4 18.35 16.45 16.95 16.5 15.05 16.6 13.45 16.65 15.05 16.6 15.15 19.5 15.2 20.2 13.6 20.25 15.2 20.2 18.5 20.05 19.2 20.0 19.25 21.9 18.55 21.95 9.95 22.3 9.5 22.35 9.5 21.85 9.4 21.85 4.4 22.1 3.95 22.1 3.85 20.7 4.3 20.7 9.3 20.45 9.45 20.45 9.9 20.4 13.6 20.25 13.55 19.55 13.45 16.65 11.15 16.75 9.75 16.8 9.3 16.85 9.75 16.85 9.8 18.4 9.8 18.45 9.25 18.45 4.3 18.7 3.6 18.75 3.5 17.15 4.35 17.1 9.2 16.85 9.3 16.85 9.2 14.95 9.65 14.9 11.05 14.85 13.35 14.75 13.25 12.55 M9.45 20.45 L9.5 21.85 9.45 20.45 M14.5 16.25 L14.5 15.5 13.75 15.55 13.75 16.3 14.5 16.25 M13.95 21.05 L14.0 21.8 14.75 21.75 14.7 21.0 13.95 21.05" fill="#272727" fill-rule="evenodd" stroke="none"/>
    <path d="M14.5 16.25 L13.75 16.3 13.75 15.55 14.5 15.5 14.5 16.25" fill="#252525" fill-rule="evenodd" stroke="none"/>
    <path d="M16.7 12.4 L18.15 12.35 18.25 14.55 16.85 14.6 16.7 12.4 M18.35 16.45 L18.4 18.05 17.05 18.85 16.95 16.5 18.35 16.45 M9.65 14.9 L9.55 12.7 10.95 12.65 11.05 14.85 9.65 14.9 M9.75 16.85 L9.75 16.8 11.15 16.75 11.2 19.05 9.85 18.45 9.8 18.4 9.75 16.85" fill="#480909" fill-rule="evenodd" stroke="none"/>
    <path d="M14.8 12.5 L16.7 12.4 16.85 14.6 14.9 14.7 14.8 12.5 M18.4 18.05 L18.5 20.05 15.2 20.2 15.15 19.5 15.05 16.6 16.95 16.5 17.05 18.85 18.4 18.05 M18.55 21.95 L18.65 23.8 16.3 24.3 14.05 24.5 10.05 24.15 10.0 22.9 9.95 22.3 18.55 21.95 M9.4 21.85 L9.5 24.4 9.0 24.55 5.1 24.7 4.65 24.65 Q4.45 23.4 4.4 22.1 L9.4 21.85 M4.3 20.7 L4.3 18.7 9.25 18.45 9.3 20.45 4.3 20.7 M4.35 17.1 L4.4 15.9 Q6.15 14.85 7.9 14.5 L9.1 14.35 9.2 16.85 4.35 17.1 M10.95 12.65 L13.25 12.55 13.35 14.75 11.05 14.85 10.95 12.65 M11.15 16.75 L13.45 16.65 13.55 19.55 13.6 20.25 9.9 20.4 9.9 20.15 9.8 18.55 9.8 18.45 9.8 18.4 9.85 18.45 11.2 19.05 11.15 16.75 M17.05 18.85 L16.1 19.25 15.15 19.5 16.1 19.25 17.05 18.85 M13.55 19.55 Q12.4 19.5 11.2 19.05 12.4 19.5 13.55 19.55" fill="#989898" fill-rule="evenodd" stroke="none"/>
    <path d="M13.25 12.55 L13.25 11.95 14.75 11.7 14.8 12.5 14.9 14.7 13.35 14.75 13.25 12.55 M18.25 14.55 L18.95 14.5 19.05 16.4 18.35 16.45 16.95 16.5 15.05 16.6 13.45 16.65 13.55 19.55 13.6 20.25 15.2 20.2 15.15 19.5 15.05 16.6 M18.5 20.05 L19.2 20.0 19.25 21.9 18.55 21.95 9.95 22.3 9.5 22.35 9.5 21.85 9.4 21.85 4.4 22.1 3.95 22.1 3.85 20.7 4.3 20.7 9.3 20.45 9.45 20.45 9.9 20.4 13.6 20.25 M4.3 18.7 L3.6 18.75 3.5 17.15 4.35 17.1 9.2 16.85 9.3 16.85 9.2 14.95 9.65 14.9 11.05 14.85 13.35 14.75 M9.75 16.8 L9.3 16.85 9.75 16.85 M9.75 16.8 L11.15 16.75 13.45 16.65 M9.8 18.45 L9.25 18.45 4.3 18.7 M9.5 21.85 L9.45 20.45 M16.85 14.6 L18.25 14.55 M16.85 14.6 L14.9 14.7 M15.2 20.2 L18.5 20.05" fill="none" stroke="#0b0b0b" stroke-linecap="round" stroke-linejoin="round" stroke-width="1.0"/>
    <path d="M14.5 16.25 L13.75 16.3 13.75 15.55 14.5 15.5 14.5 16.25 M13.95 21.05 L14.7 21.0 14.75 21.75 14.0 21.8 13.95 21.05" fill="none" stroke="#515151" stroke-linecap="round" stroke-linejoin="round" stroke-width="0.7000000000000001"/>
    <path d="M14.8 12.5 L16.7 12.4 18.15 12.35 18.25 14.55 M18.35 16.45 L18.4 18.05 18.5 20.05 M18.55 21.95 L18.65 23.8 16.3 24.3 14.05 24.5 10.05 24.15 10.0 22.9 M9.4 21.85 L9.5 24.4 9.0 24.55 5.1 24.7 4.65 24.65 Q4.45 23.4 4.4 22.1 M4.3 20.7 L4.3 18.7 M4.35 17.1 L4.4 15.9 Q6.15 14.85 7.9 14.5 L9.1 14.35 9.2 16.85 M9.65 14.9 L9.55 12.7 10.95 12.65 13.25 12.55 M9.75 16.85 L9.75 16.8 M9.25 18.45 L9.3 20.45 M9.9 20.15 L9.8 18.55 M9.8 18.4 L9.75 16.85 M9.8 18.4 L9.85 18.45 11.2 19.05 Q12.4 19.5 13.55 19.55 M15.15 19.5 L16.1 19.25 17.05 18.85 18.4 18.05" fill="none" stroke="#0b0000" stroke-linecap="round" stroke-linejoin="round" stroke-width="1.0"/>
    <path d="M33.9 13.15 L33.45 13.0 33.2 12.7 Q33.1 12.4 33.4 12.2 L32.8 12.1 32.6 12.0 Q31.85 12.5 31.3 12.45 L31.4 12.25 31.5 12.1 31.4 12.05 29.65 11.85 32.65 11.3 32.95 11.25 33.55 11.1 33.9 10.55 34.4 9.95 Q34.15 9.95 34.25 9.7 L34.35 9.55 34.5 9.35 34.8 9.4 Q35.2 9.45 35.6 10.2 36.05 10.95 35.6 11.05 L34.75 11.0 33.9 11.15 34.15 11.15 Q34.8 11.25 35.05 11.8 L35.05 12.0 34.9 12.15 34.45 12.35 34.55 12.4 34.6 12.55 34.45 12.75 34.65 12.9 34.75 13.05 34.4 13.65 34.05 13.9 34.15 14.0 34.05 14.2 34.1 14.5 33.85 14.75 33.4 14.85 33.0 14.85 32.95 14.55 32.5 14.7 32.6 14.3 32.85 14.0 33.25 13.8 33.6 13.7 33.9 13.15 34.45 12.8 34.45 12.75 33.9 13.15 M36.9 12.15 L36.25 12.5 35.25 12.9 35.05 12.9 34.85 12.85 34.85 12.55 35.2 12.25 35.3 12.15 35.35 12.05 35.45 11.95 35.7 11.7 35.95 11.65 36.9 11.95 36.95 12.1 36.9 12.15 M32.25 13.85 L31.8 14.1 31.35 14.25 30.75 14.4 30.45 14.55 30.25 14.45 30.3 14.05 30.7 13.5 Q31.0 13.2 31.45 13.15 L32.0 13.15 32.35 13.25 32.4 13.35 32.35 13.45 32.25 13.85 M30.5 17.1 L30.45 17.15 29.65 17.6 29.45 17.6 29.45 17.5 Q29.45 17.15 29.65 16.95 L30.15 16.6 30.25 16.8 30.5 17.1 M30.45 16.4 L30.95 16.0 31.3 16.45 30.8 16.85 30.75 16.75 30.45 16.4 M31.1 15.95 Q32.05 15.3 32.3 15.25 L31.65 16.1 31.5 16.25 31.45 16.25 31.15 16.0 31.1 15.95 M32.05 16.5 L32.4 16.05 32.45 15.95 32.95 15.9 33.05 15.8 33.15 15.85 33.2 15.8 34.1 15.0 34.2 15.05 34.25 15.15 34.35 15.35 34.35 15.55 34.3 15.7 33.85 16.0 33.5 16.05 33.45 16.1 33.45 16.15 33.05 16.8 32.75 17.15 32.6 17.15 32.4 16.9 32.1 16.9 31.95 16.95 31.9 16.75 32.05 16.75 32.1 16.6 32.05 16.5 M32.05 17.7 L31.8 17.85 31.65 17.85 31.55 17.7 31.3 17.45 31.35 17.4 31.7 17.4 31.85 17.35 32.05 17.7 M31.25 17.9 L31.05 18.0 30.65 18.0 Q30.8 17.8 31.05 17.7 L31.25 17.9 M36.35 13.05 L36.5 13.25 37.2 13.9 36.05 14.9 35.9 14.85 35.85 14.7 35.95 14.55 Q35.9 14.3 35.75 14.5 L34.3 14.6 34.65 14.35 34.8 14.25 35.3 14.05 35.6 13.85 35.95 13.6 36.05 13.2 36.35 13.05 M31.7 15.0 L31.55 15.15 31.5 15.1 31.3 15.1 31.15 15.0 31.2 14.95 31.15 14.95 31.35 14.7 31.6 14.6 31.85 14.7 31.9 14.7 31.8 14.8 31.75 14.9 31.7 15.0" fill="#3a0404" fill-opacity="0.627451" fill-rule="evenodd" stroke="none"/>
    <path d="M29.95 15.8 L30.4 15.8 30.15 15.95 29.6 16.25 29.7 15.95 29.95 15.8 M30.15 16.6 L30.15 16.4 30.15 16.25 30.3 16.35 30.45 16.4 30.75 16.75 30.8 16.85 31.3 17.45 31.55 17.7 31.65 17.85 31.9 18.35 31.25 17.9 31.05 17.7 31.0 17.65 30.5 17.1 30.25 16.8 30.15 16.6 M30.95 16.0 L30.9 15.95 30.9 15.8 30.9 15.7 31.0 15.8 31.1 15.95 31.15 16.0 31.45 16.25 31.5 16.25 31.7 16.25 31.75 16.3 32.0 16.4 32.05 16.5 32.1 16.6 32.05 16.75 31.9 16.75 31.85 16.75 31.7 16.6 31.45 16.6 31.3 16.45 30.95 16.0 M32.6 17.15 L32.6 17.2 32.75 17.75 32.8 17.8 32.8 17.85 33.05 17.85 33.3 18.15 33.35 18.35 33.3 18.5 33.25 18.65 33.25 18.7 33.1 18.7 32.5 18.05 32.5 18.0 Q32.45 17.85 32.4 17.95 L32.1 17.85 32.05 17.75 32.05 17.7 31.85 17.35 31.8 17.25 31.75 17.15 31.85 16.95 31.95 16.95 32.1 16.9 32.4 16.9 32.6 17.15 M31.2 18.4 L31.3 18.4 31.45 18.55 31.5 18.6 31.55 18.65 31.55 18.8 31.6 18.85 31.55 18.85 31.45 18.9 31.25 18.8 31.05 18.6 31.15 18.55 31.15 18.5 31.2 18.4 M34.45 19.0 L35.15 19.85 34.55 20.35 34.5 20.55 34.35 20.35 34.25 20.05 34.1 19.8 33.85 19.55 33.55 19.4 33.5 19.3 33.25 19.1 34.2 19.3 34.4 19.25 34.35 19.15 34.35 19.0 34.45 19.0 M33.2 20.65 L33.25 20.85 33.25 20.9 33.2 20.95 33.5 21.15 33.55 21.25 33.5 21.45 Q33.3 21.85 32.8 21.9 L32.7 21.9 33.25 22.05 33.85 22.1 Q34.15 22.2 33.8 22.8 L33.1 23.35 32.95 23.35 32.9 23.25 32.8 23.1 Q32.75 22.8 32.95 22.9 L32.65 22.4 32.45 21.85 32.05 21.75 31.85 21.6 29.8 21.0 31.0 20.95 31.05 20.9 31.0 20.75 30.95 20.65 Q31.35 20.65 31.85 21.05 L32.0 21.05 32.4 21.0 32.3 20.55 32.5 20.35 32.8 20.3 33.2 20.65 33.2 20.6 32.8 20.3 32.7 19.75 32.45 19.7 32.15 19.5 32.05 19.15 32.0 18.9 32.35 19.0 32.4 18.8 32.65 18.85 32.9 18.95 33.1 19.15 Q33.0 19.25 33.05 19.4 L33.05 19.6 33.0 19.6 33.2 19.9 33.35 20.4 33.35 20.55 33.2 20.65 M33.75 20.55 L34.4 20.9 34.8 21.35 34.8 21.45 34.15 21.65 33.9 21.55 33.8 21.35 33.75 21.25 33.65 21.2 33.65 21.15 33.5 20.85 33.4 20.6 33.6 20.55 33.75 20.55 M30.4 18.9 L30.6 18.85 30.85 18.95 Q31.05 19.15 31.2 19.15 L31.5 19.4 31.75 19.55 31.8 19.85 31.8 20.0 31.75 20.1 31.55 20.1 31.2 20.05 30.7 19.75 30.4 19.25 30.4 18.9" fill="#310404" fill-opacity="0.76862746" fill-rule="evenodd" stroke="none"/>
    <path d="M32.2 11.4 L32.05 10.65 32.15 10.15 Q32.4 9.85 32.75 10.15 L32.5 9.2 32.4 9.0 31.2 7.25 31.45 7.3 31.65 7.35 31.65 7.2 Q31.0 6.0 30.75 4.55 32.35 6.95 33.15 8.65 L33.4 9.05 33.85 9.9 34.65 10.05 35.45 10.45 Q35.35 10.1 35.65 10.1 L35.9 10.15 36.1 10.3 36.3 10.75 Q36.45 11.35 36.05 12.25 35.65 13.35 35.2 12.75 34.75 12.1 34.7 11.5 L34.1 10.3 34.2 10.7 Q34.5 11.6 34.15 12.3 L33.95 12.45 33.75 12.35 33.2 11.75 33.25 11.95 33.15 12.05 32.9 11.95 32.9 12.35 32.8 12.5 Q32.65 12.7 32.0 12.3 L31.55 12.0 31.55 12.15 31.25 12.15 Q31.1 12.1 31.0 12.35 L30.65 12.05 30.2 11.5 Q30.05 11.3 30.05 10.95 L30.25 10.8 Q29.95 10.75 29.8 10.15 L30.25 10.1 30.75 10.3 31.2 10.75 31.4 11.25 32.2 11.4 32.8 11.95 32.9 11.95 32.2 11.4 M30.6 7.8 L31.05 8.65 Q31.35 9.15 31.1 9.15 L31.05 9.3 30.95 9.3 30.5 9.35 30.0 8.85 29.55 8.3 29.0 7.5 28.7 7.15 28.7 6.8 29.1 6.65 29.9 7.0 30.6 7.8 M29.1 8.5 L29.4 8.9 29.45 9.2 29.45 9.3 29.3 9.25 29.1 9.2 29.0 9.2 28.95 9.1 28.85 9.05 28.8 8.9 28.75 8.65 28.7 8.45 28.75 8.4 28.8 8.4 29.1 8.5 M26.25 8.5 Q25.55 8.15 25.35 7.6 L25.2 7.3 Q25.2 7.2 25.35 7.25 25.6 7.1 25.95 7.25 L27.6 8.6 Q29.0 9.8 29.2 10.15 29.2 10.4 27.95 9.6 L26.25 8.5 M33.5 14.5 L33.8 14.85 33.7 15.1 33.55 16.5 Q32.65 16.2 31.85 15.35 L31.8 15.1 31.95 14.95 32.1 14.95 32.05 14.65 31.05 12.65 31.5 13.1 31.65 13.2 32.15 13.8 32.55 14.15 33.0 14.5 33.5 14.5 M33.35 12.5 L33.85 12.75 34.0 12.85 34.1 12.9 34.3 12.95 34.65 13.2 34.9 13.55 35.2 15.05 35.1 15.2 35.05 15.2 34.2 14.4 33.25 13.15 33.1 12.85 33.05 12.6 33.35 12.5 M27.05 10.7 L27.2 11.05 Q27.35 11.2 27.1 11.3 L26.75 11.05 26.45 10.75 26.3 10.5 26.1 10.1 25.6 9.55 25.05 9.0 25.4 9.0 26.55 9.9 26.8 10.35 27.05 10.7 M27.4 10.55 Q27.4 10.4 27.55 10.4 L27.75 10.45 28.5 10.7 28.65 10.75 29.0 11.4 29.15 11.55 29.15 11.65 29.2 11.7 30.55 12.55 30.55 12.75 30.45 12.9 30.35 13.05 30.15 13.15 30.0 13.2 29.45 12.75 29.2 12.3 29.1 12.25 29.05 12.2 28.25 12.0 27.7 11.75 27.5 11.1 27.4 10.55" fill="#380606" fill-opacity="0.44705883" fill-rule="evenodd" stroke="none"/>
    <path d="M38.6 22.35 L38.5 24.55 35.0 24.55 35.0 21.25 34.8 21.1 34.6 21.25 34.6 24.5 28.45 24.5 28.45 21.2 27.9 20.8 27.9 17.15 35.1 17.15 35.1 17.2 39.15 17.2 39.15 19.9 36.2 19.9 36.2 21.8 36.2 21.85 36.35 21.85 37.55 22.3 38.6 22.35 M27.9 20.8 L28.85 21.35 29.65 21.75 28.85 21.35 27.9 20.8 M34.8 21.1 L34.75 21.05 34.55 20.95 34.8 21.05 35.4 21.4 36.2 21.8 35.4 21.4 34.8 21.05 34.55 20.95 34.75 21.05 34.8 21.1 M33.5 21.8 L33.5 19.85 29.65 19.85 29.65 21.75 29.65 21.8 29.8 21.8 31.0 22.25 32.05 22.3 33.5 21.8 34.75 21.05 33.5 21.8 M34.55 20.95 L34.45 20.85 34.45 17.2 35.1 17.2 34.45 17.2 34.45 20.85 34.55 20.95" fill="#afafaf" fill-rule="evenodd" stroke="none"/>
    <path d="M39.15 21.85 L39.15 22.25 38.6 22.35 37.55 22.3 36.35 21.85 39.15 21.85 M33.5 21.8 L32.05 22.3 31.0 22.25 29.8 21.8 33.5 21.8" fill="#747474" fill-rule="evenodd" stroke="none"/>
    <path d="M39.15 19.9 L39.15 21.85 36.35 21.85 36.2 21.85 36.2 21.8 36.2 19.9 39.15 19.9 M29.8 21.8 L29.65 21.8 29.65 21.75 29.65 19.85 33.5 19.85 33.5 21.8 29.8 21.8" fill="#562626" fill-rule="evenodd" stroke="none"/>
    <path d="M38.6 22.35 L38.5 24.55 35.0 24.55 35.0 21.25 34.8 21.1 34.6 21.25 34.6 24.5 28.45 24.5 28.45 21.2 27.9 20.8 27.9 17.15 35.1 17.15 35.1 17.2 39.15 17.2 39.15 19.9 39.15 21.85 39.15 22.25 38.6 22.35 37.55 22.3 36.35 21.85 M36.2 21.8 L35.4 21.4 34.8 21.05 34.55 20.95 34.75 21.05 34.8 21.1 M29.65 21.75 L28.85 21.35 27.9 20.8 M33.5 21.8 L34.75 21.05 M35.1 17.2 L34.45 17.2 34.45 20.85 34.55 20.95 M29.8 21.8 L31.0 22.25 32.05 22.3 33.5 21.8" fill="none" stroke="#2c0404" stroke-linecap="round" stroke-linejoin="round" stroke-width="1.0"/>
    <path d="M29.1 18.0 L29.85 19.1 30.45 20.35 29.9 19.8 29.15 18.85 28.75 18.1 28.7 17.9 28.75 17.9 29.1 18.0 M29.5 20.25 L29.6 20.15 29.7 20.25 30.05 20.55 30.1 20.6 30.2 21.1 30.3 21.15 30.3 21.25 30.35 21.25 30.95 22.0 30.9 22.15 30.85 22.25 30.75 22.3 30.65 22.3 30.55 22.35 30.3 21.95 30.25 21.65 30.2 21.6 30.15 21.6 29.8 21.3 29.55 21.05 29.5 20.6 29.5 20.25 M28.45 18.9 L28.65 18.95 29.15 19.7 29.2 20.0 29.35 20.25 29.35 20.5 29.25 20.65 29.15 20.4 29.0 20.2 29.0 20.0 28.9 19.75 28.7 19.3 28.45 18.9 M36.25 18.65 L36.3 18.45 36.55 18.45 36.85 18.8 37.1 19.35 37.25 19.9 37.15 20.2 37.15 20.25 37.05 20.25 36.85 20.2 36.7 19.85 36.55 19.45 36.4 18.95 36.25 18.65 M31.15 18.6 L31.45 19.2 31.55 19.8 31.55 20.1 31.5 20.15 31.45 20.15 31.2 20.1 31.0 19.7 30.85 19.3 30.65 18.75 30.5 18.45 30.55 18.25 30.8 18.25 31.15 18.6 M34.95 18.25 L35.6 19.25 36.15 20.4 35.65 19.95 34.95 19.0 Q34.6 18.7 34.6 18.35 L34.6 18.15 34.65 18.15 34.95 18.25 M34.95 19.85 L34.95 20.1 35.05 20.35 35.1 20.6 35.0 20.75 34.9 20.5 34.75 20.3 34.75 20.1 34.7 19.85 34.5 19.45 34.3 19.1 34.45 19.15 34.95 19.85 M34.05 22.0 L33.8 22.85 Q33.45 23.45 33.3 23.0 L33.15 22.2 32.95 21.35 33.0 21.6 32.8 22.55 32.65 22.6 32.6 22.5 32.35 22.0 32.35 22.15 32.3 22.2 32.15 22.1 32.15 22.35 32.05 22.45 31.7 22.15 31.5 21.85 31.45 22.0 31.35 21.9 31.15 22.0 31.0 21.75 30.85 21.35 30.8 21.0 Q30.85 20.9 30.95 20.9 30.8 20.85 30.8 20.5 L31.0 20.5 31.25 20.7 31.45 21.1 31.5 21.4 31.9 21.6 31.9 21.15 32.0 20.9 Q32.15 20.75 32.3 21.05 L32.25 20.35 32.3 20.25 31.8 19.0 31.95 19.05 32.0 19.15 32.0 19.05 31.85 17.35 32.65 20.2 32.7 20.45 32.9 21.05 Q33.2 21.2 33.3 21.3 L33.65 21.7 Q33.65 21.45 33.8 21.45 L33.9 21.55 34.0 21.7 34.05 22.0 M35.75 20.6 L35.8 20.65 35.9 21.1 36.0 21.2 36.0 21.25 36.55 22.0 36.5 22.1 36.5 22.2 36.35 22.25 36.3 22.25 36.2 22.3 35.95 21.95 35.9 21.65 35.85 21.6 35.8 21.6 35.5 21.3 35.25 21.05 35.25 20.7 35.25 20.3 35.35 20.25 35.45 20.3 35.75 20.6 M30.35 19.4 L30.4 19.25 30.45 19.2 30.6 19.35 30.7 19.6 30.7 19.85 30.7 19.9 30.6 19.85 30.55 19.8 30.5 19.75 30.45 19.7 30.4 19.6 30.4 19.55 30.35 19.4 M31.6 23.1 L31.8 23.35 32.0 23.65 32.2 23.75 32.35 24.0 32.3 24.15 32.05 24.95 Q31.6 24.6 31.3 23.95 L31.3 23.75 31.35 23.75 31.45 23.75 31.5 23.55 31.15 22.2 31.35 22.55 31.45 22.6 31.6 23.1 M32.6 22.75 L32.65 22.85 32.7 22.85 32.8 22.95 33.0 23.2 33.05 23.4 33.0 24.35 32.95 24.45 32.95 24.4 32.6 23.8 32.2 22.9 32.15 22.65 32.2 22.5 32.35 22.5 32.6 22.75 M37.45 21.6 L37.5 21.2 37.6 20.95 Q37.75 20.8 37.85 21.05 L37.85 20.45 37.85 20.35 37.45 19.15 37.6 19.25 37.65 19.3 37.65 19.2 37.55 17.6 38.25 20.3 38.3 20.55 38.45 21.05 38.8 21.3 39.1 21.7 Q39.1 21.45 39.25 21.5 L39.35 21.55 39.45 21.7 39.5 22.0 39.25 22.8 Q38.85 23.35 38.7 22.9 L38.6 22.15 38.5 21.35 38.5 21.6 38.3 22.5 38.2 22.55 38.1 22.45 37.9 22.0 37.9 22.1 37.85 22.15 37.7 22.05 37.65 22.3 37.6 22.4 37.25 22.1 37.05 21.85 37.05 21.95 36.9 21.9 Q36.85 21.85 36.75 22.0 L36.6 21.75 36.55 21.35 36.45 21.05 Q36.55 20.95 36.6 20.95 36.45 20.9 36.45 20.55 L36.65 20.6 36.9 20.75 37.05 21.1 37.1 21.45 Q37.25 21.45 37.45 21.6 L37.65 22.05 37.7 22.05 37.45 21.6 M36.1 19.5 L36.15 19.4 36.2 19.35 36.3 19.5 36.4 19.75 36.4 19.95 36.4 20.0 36.3 19.95 36.2 19.85 36.15 19.75 36.15 19.7 36.1 19.5 M38.2 22.8 L38.25 22.85 38.45 23.05 38.5 23.3 38.4 24.2 38.35 24.25 38.05 23.65 37.7 22.8 37.7 22.6 37.75 22.45 37.9 22.45 38.1 22.7 38.15 22.75 38.2 22.8 M37.1 23.0 L37.3 23.25 37.5 23.5 37.7 23.6 37.8 23.85 37.75 23.95 37.5 24.75 36.8 23.8 36.85 23.6 36.9 23.6 37.0 23.6 37.0 23.45 Q36.8 22.95 36.75 22.15 L36.95 22.5 37.0 22.55 37.1 23.0" fill="#410000" fill-opacity="0.50980395" fill-rule="evenodd" stroke="none"/>
  </g>
</svg>
