<?xml version="1.0" encoding="UTF-8" standalone="no"?>
<svg xmlns:xlink="http://www.w3.org/1999/xlink" height="19.45px" width="69.0px" xmlns="http://www.w3.org/2000/svg">
  <g transform="matrix(1.0, 0.0, 0.0, 1.0, 24.0, 5.15)">
    <path d="M4.5 -4.65 L4.0 -3.05 4.0 -1.1 17.15 0.0 17.65 0.75 30.55 0.75 31.35 -0.05 38.0 -0.05 38.9 0.75 44.45 0.75 44.5 0.95 44.0 2.95 42.3 2.95 40.15 6.45 39.0 5.45 Q39.75 3.7 39.25 3.15 L38.55 2.95 30.6 2.95 29.35 4.55 26.15 4.55 Q24.75 8.55 25.3 10.2 25.6 11.0 26.15 11.0 25.2 12.75 24.0 13.45 L23.0 13.8 Q21.7 12.05 21.35 10.45 L21.2 9.2 Q23.4 7.55 22.35 5.6 21.35 3.85 19.9 4.1 L18.8 4.4 Q17.65 4.95 17.45 6.45 L16.65 7.35 7.2 7.25 6.95 4.45 Q6.4 3.1 3.95 2.55 L1.6 2.3 -5.85 2.55 Q-6.9 2.75 -7.65 3.3 L-8.15 3.85 -23.5 3.85 -23.5 1.8 -17.75 1.8 -12.35 -0.85 -12.15 -2.7 -11.45 -2.75 -9.45 -3.45 Q-7.7 -4.25 -6.35 -4.4 -3.8 -4.7 4.5 -4.65" fill="#6f6b67" fill-rule="evenodd" stroke="none"/>
    <path d="M44.5 0.95 L44.45 0.75 38.9 0.75 38.0 -0.05 31.35 -0.05 30.55 0.75 17.65 0.75 17.15 0.0 4.0 -1.1 4.0 -3.05 4.5 -4.65 M-12.15 -2.7 L-12.35 -0.85 -17.75 1.8 -23.5 1.8 M7.2 7.25 L16.65 7.35" fill="none" stroke="#373838" stroke-linecap="round" stroke-linejoin="round" stroke-width="1.0"/>
    <path d="M4.5 -4.65 Q-3.8 -4.7 -6.35 -4.4 -7.7 -4.25 -9.45 -3.45 L-11.45 -2.75 -12.15 -2.7 M-23.5 1.8 L-23.5 3.85 M3.95 2.55 Q6.4 3.1 6.95 4.45 L7.2 7.25 M16.65 7.35 L17.45 6.45 Q17.65 4.95 18.8 4.4 L19.9 4.1 Q21.35 3.85 22.35 5.6 23.4 7.55 21.2 9.2 L21.35 10.45 Q21.7 12.05 23.0 13.8 L24.0 13.45 Q25.2 12.75 26.15 11.0 M39.0 5.45 L40.15 6.45 42.3 2.95 44.0 2.95 44.5 0.95" fill="none" stroke="#2f2f2d" stroke-linecap="round" stroke-linejoin="round" stroke-width="1.0"/>
    <path d="M-23.5 3.85 L-8.15 3.85 -7.65 3.3 Q-6.9 2.75 -5.85 2.55 L1.6 2.3 3.95 2.55 M26.15 11.0 Q25.6 11.0 25.3 10.2 24.75 8.55 26.15 4.55 L29.35 4.55 30.6 2.95 38.55 2.95 39.25 3.15 Q39.75 3.7 39.0 5.45" fill="none" stroke="#201f1d" stroke-linecap="round" stroke-linejoin="round" stroke-width="1.0"/>
  </g>
</svg>
