<?xml version="1.0" encoding="UTF-8" standalone="no"?>
<svg xmlns:ffdec="https://www.free-decompiler.com/flash" xmlns:xlink="http://www.w3.org/1999/xlink" ffdec:objectType="shape" height="30.65px" width="29.25px" xmlns="http://www.w3.org/2000/svg">
  <g transform="matrix(1.0, 0.0, 0.0, 1.0, 16.5, 32.5)">
    <path d="M-10.5 -31.55 L-6.0 -29.05 -4.45 -28.7 -3.3 -28.7 Q-4.2 -26.15 -2.95 -23.2 L-2.6 -22.4 -0.9 -18.55 1.25 -18.5 Q2.2 -18.35 3.6 -17.45 L0.9 -15.35 -0.8 -14.4 2.6 -14.75 3.7 -10.35 2.45 -7.65 -5.9 -8.0 -6.3 -13.85 -1.85 -14.3 -1.7 -14.3 -1.3 -17.25 -4.05 -25.4 -7.15 -25.55 -13.1 -22.8 -13.55 -28.1 Q-14.0 -29.55 -12.7 -30.35 L-10.5 -31.55 M-6.65 -9.05 L-9.3 -13.3 -10.15 -17.0 -8.3 -17.45 Q-7.25 -17.35 -6.75 -15.3 L-6.65 -9.05" fill="#0f172a" fill-rule="evenodd" stroke="none"/>
    <path d="M11.95 -20.1 L11.75 -15.0 10.55 -12.35 9.15 -11.7 Q9.25 -9.4 7.95 -13.1 6.65 -16.85 6.5 -19.9 6.45 -20.55 5.05 -20.9 L3.25 -21.6 Q2.45 -22.55 2.85 -24.25 3.3 -25.9 4.55 -26.25 L4.45 -28.4 9.35 -26.25 Q11.05 -24.25 11.9 -22.15 L11.95 -20.1" fill="#1a1335" fill-rule="evenodd" stroke="none"/>
    <path d="M-8.85 -17.35 Q-9.6 -16.9 -9.9 -16.25 L-10.8 -17.25 -11.5 -18.0 Q-12.25 -21.25 -12.35 -23.5 -11.5 -25.25 -10.95 -24.75 -10.6 -24.5 -10.2 -23.7 -9.2 -21.95 -8.05 -19.0 -6.85 -16.1 -7.75 -17.45 L-8.85 -17.35" fill="#b970e6" fill-rule="evenodd" stroke="none"/>
    <path d="M-2.15 -20.15 L-1.3 -17.55 -2.4 -13.45 Q-4.5 -12.6 -5.4 -12.8 -6.35 -13.05 -7.45 -14.75 L-7.65 -17.5 -9.35 -20.45 Q-10.25 -22.25 -10.2 -22.85 -10.0 -24.2 -7.15 -25.55 L-4.05 -25.4 Q-3.5 -22.35 -2.15 -20.15" fill="url(#gradient0)" fill-rule="evenodd" stroke="none"/>
    <path d="M4.6 -21.25 L6.75 -20.1 2.7 -17.65 1.85 -19.9 4.6 -21.25 M7.2 -6.5 L4.65 -8.3 Q4.0 -8.45 4.2 -9.2 L4.65 -10.45 6.25 -14.75 8.0 -13.5 9.25 -9.5 7.2 -6.5" fill="#28264a" fill-rule="evenodd" stroke="none"/>
    <path d="M-3.35 -28.25 L3.4 -26.6 Q4.35 -27.55 3.35 -24.4 2.2 -20.8 4.2 -21.9 4.3 -21.6 2.5 -20.4 L-0.1 -18.55 -0.5 -18.2 Q-2.85 -21.85 -3.6 -25.35 -4.25 -28.6 -3.35 -28.25 M-1.3 -11.75 L-1.55 -16.75 Q-1.5 -17.2 -0.65 -18.05 -1.0 -17.4 -1.2 -14.4 L-1.3 -11.75 -0.9 -7.65 Q-0.85 -7.45 1.35 -8.15 L3.8 -8.8 Q7.3 -6.95 6.1 -4.55 4.85 -2.05 -0.2 -2.65 -5.4 -5.75 -5.6 -7.7 L-3.35 -7.6 -1.15 -7.5 -1.3 -11.75" fill="#181621" fill-rule="evenodd" stroke="none"/>
    <path d="M4.05 -9.55 L1.5 -14.95 3.65 -18.15 Q4.8 -19.55 6.65 -19.35 L7.3 -15.5 4.05 -9.55" fill="#171541" fill-rule="evenodd" stroke="none"/>
    <path d="M-8.15 -29.8 L-11.55 -31.7 -14.0 -29.4 -13.7 -25.3 -12.75 -23.25 -12.0 -24.25 -11.4 -24.6 -10.65 -24.0 -8.2 -24.65 -7.5 -25.35 -8.15 -29.8 -5.85 -28.55 -4.35 -28.85 -3.35 -28.0 4.1 -26.35 5.0 -28.3 Q5.75 -28.2 6.75 -27.35 8.05 -26.4 9.7 -25.8 11.0 -24.3 11.9 -22.15 L11.5 -15.3 10.6 -12.5 9.05 -11.45 9.1 -8.6 6.7 -6.7 Q4.9 -2.25 1.15 -2.35 -2.6 -2.4 -5.25 -6.6 L-6.65 -8.85 -8.2 -11.95 Q-9.4 -14.25 -9.75 -15.65 -9.9 -16.1 -9.7 -16.4 L-9.3 -17.15 Q-9.1 -17.75 -8.7 -17.85 -7.7 -18.35 -7.35 -16.55 L-6.9 -15.6 -7.0 -13.9 -6.35 -12.95 -5.55 -13.1 M-4.05 -25.4 L-6.15 -26.2 -8.2 -24.65 M-10.65 -24.0 L-10.45 -23.55 -9.65 -21.7 -8.6 -20.4 -7.75 -19.2 -7.5 -18.35 -5.75 -20.3 Q-3.45 -20.3 -1.05 -18.15 M-7.5 -18.35 L-7.6 -18.25 -7.35 -17.5 -7.5 -18.35 M-7.35 -17.5 L-7.35 -17.35 Q-7.2 -16.15 -6.85 -15.6 L-7.35 -17.5 Z" fill="none" stroke="#080815" stroke-linecap="round" stroke-linejoin="round" stroke-width="1.0"/>
    <path d="M-1.35 -18.45 L-4.05 -25.4 Q-3.25 -26.5 -3.15 -26.9 -3.0 -27.7 -4.2 -28.7 M-1.9 -14.1 L-5.4 -13.05 -6.5 -12.9 -6.25 -8.45 -2.0 -7.75 Q0.0 -7.85 3.7 -9.25 L3.3 -12.2 3.2 -12.6 2.4 -14.35 1.8 -15.15 -0.2 -14.55 -1.95 -13.8 -1.9 -14.1 -1.3 -17.55 1.65 -19.1 1.6 -19.15 4.05 -21.05 M-1.9 -14.1 L-0.2 -14.55 2.3 -15.75 3.1 -17.85 2.6 -15.9 2.3 -15.75 2.1 -15.2 2.4 -14.35 M9.35 -26.25 L4.65 -26.2 4.55 -26.05 3.0 -23.75 Q2.15 -21.9 4.55 -21.25 L6.7 -20.5 6.75 -19.95 7.3 -15.2 8.95 -14.05 11.0 -13.15 Q9.65 -15.95 8.85 -19.4 L7.75 -25.35 M5.35 -27.1 L4.65 -26.2 M6.75 -19.95 Q6.75 -19.5 2.65 -17.95 L1.65 -19.1 M3.2 -12.6 Q3.85 -10.95 3.95 -8.8 L6.1 -14.6 7.6 -14.5 7.7 -12.85 9.25 -11.15 Q9.1 -10.65 9.2 -9.5 9.35 -8.5 9.1 -8.45 L7.7 -7.65 Q6.55 -6.95 6.0 -7.1 5.55 -7.15 4.7 -7.9 3.95 -8.6 3.95 -8.8" fill="none" stroke="#080815" stroke-linecap="round" stroke-linejoin="round" stroke-width="1.0"/>
    <path d="M7.2 -9.8 L6.45 -9.4" fill="none" stroke="#080815" stroke-linecap="round" stroke-linejoin="round" stroke-opacity="0.5647059" stroke-width="1.0"/>
    <path d="M6.95 -11.05 L6.5 -10.8" fill="none" stroke="#080815" stroke-linecap="round" stroke-linejoin="round" stroke-opacity="0.5647059" stroke-width="1.0"/>
    <path d="M11.95 -16.9 L10.5 -18.0 10.0 -19.85 12.0 -19.5 Q12.15 -18.15 11.9 -17.7 11.75 -17.35 11.95 -16.9" fill="#b574e3" fill-rule="evenodd" stroke="none"/>
    <path d="M11.95 -16.9 L10.5 -18.0 10.0 -19.85 12.0 -19.5 Q12.15 -18.15 11.9 -17.7 11.75 -17.35 11.95 -16.9 Z" fill="none" stroke="#39183e" stroke-linecap="round" stroke-linejoin="round" stroke-opacity="0.61960787" stroke-width="1.0"/>
    <path d="M12.05 -21.15 L10.25 -21.95 9.7 -23.75 11.7 -23.5 Q12.35 -22.45 12.25 -21.95 L12.05 -21.15" fill="#b574e3" fill-rule="evenodd" stroke="none"/>
    <path d="M12.05 -21.15 L10.25 -21.95 9.7 -23.75 11.7 -23.5 Q12.35 -22.45 12.25 -21.95 L12.05 -21.15 Z" fill="none" stroke="#39183e" stroke-linecap="round" stroke-linejoin="round" stroke-opacity="0.61960787" stroke-width="1.0"/>
    <path d="M-12.85 -27.4 L-12.55 -26.05 -13.55 -25.9 -15.75 -27.35 -16.0 -28.55 -15.2 -28.2 Q-14.05 -27.75 -12.85 -27.4" fill="#b970e6" fill-rule="evenodd" stroke="none"/>
    <path d="M-12.85 -27.4 Q-14.05 -27.75 -15.2 -28.2 L-16.0 -28.55 -15.75 -27.35 -13.55 -25.9 -12.55 -26.05 -12.85 -27.4 Z" fill="none" stroke="#080815" stroke-linecap="round" stroke-linejoin="round" stroke-opacity="0.6431373" stroke-width="1.0"/>
    <path d="M-12.1 -30.9 L-11.75 -29.5 -12.75 -29.4 -15.0 -30.85 -15.15 -32.0 -14.4 -31.65 -12.1 -30.9" fill="#b970e6" fill-rule="evenodd" stroke="none"/>
    <path d="M-12.1 -30.9 L-14.4 -31.65 -15.15 -32.0 -15.0 -30.85 -12.75 -29.4 -11.75 -29.5 -12.1 -30.9 Z" fill="none" stroke="#080815" stroke-linecap="round" stroke-linejoin="round" stroke-opacity="0.6431373" stroke-width="1.0"/>
    <path d="M-4.5 -11.2 L-4.85 -14.3 -4.6 -11.15 -4.5 -11.2 M-3.15 -12.1 L-2.7 -12.2 Q-4.15 -8.1 -4.35 -8.15 L-5.8 -8.0 -6.8 -9.05 -6.95 -11.55 -6.95 -14.75 -2.3 -13.8 -3.15 -12.1" fill="url(#gradient1)" fill-rule="evenodd" stroke="none"/>
    <path d="M-4.15 -9.7 L-4.5 -10.6 -6.8 -9.8 -4.6 -11.15 -4.85 -14.3 -4.5 -11.2 -3.15 -12.1 -2.3 -13.8 -6.95 -14.75 -6.95 -11.55 -6.8 -9.05 -5.8 -8.0 -4.35 -8.15 Q-4.15 -8.1 -2.7 -12.2 L-3.15 -12.1 -3.85 -10.8 -4.45 -10.5 -4.5 -11.2 -4.6 -11.15 -4.6 -10.85 -4.5 -10.6" fill="none" stroke="#080815" stroke-linecap="round" stroke-linejoin="round" stroke-opacity="0.6117647" stroke-width="1.0"/>
    <path d="M-2.7 -19.2 L-4.35 -14.2 -5.95 -14.6 -4.15 -20.3" fill="none" stroke="#080815" stroke-linecap="butt" stroke-linejoin="miter-clip" stroke-miterlimit="4.0" stroke-opacity="0.5803922" stroke-width="1.0"/>
    <path d="M5.95 -12.5 L4.75 -10.75 2.65 -14.1 3.9 -16.4 5.35 -14.3 5.95 -12.5" fill="url(#gradient2)" fill-rule="evenodd" stroke="none"/>
    <path d="M5.95 -12.5 L4.75 -10.75 2.65 -14.1 3.9 -16.4 5.35 -14.3 5.95 -12.5 Z" fill="none" stroke="#0c041c" stroke-linecap="round" stroke-linejoin="round" stroke-opacity="0.68235296" stroke-width="1.0"/>
    <path d="M3.6 -16.65 L2.6 -14.2 -2.05 -13.05 -0.95 -16.5 -0.1 -16.5 1.4 -16.55 3.6 -16.65" fill="url(#gradient3)" fill-rule="evenodd" stroke="none"/>
    <path d="M3.6 -16.65 L2.6 -14.2 -2.05 -13.05 -0.95 -16.5 -0.1 -16.5 1.4 -16.55 3.6 -16.65 Z" fill="none" stroke="#0c041c" stroke-linecap="round" stroke-linejoin="round" stroke-opacity="0.68235296" stroke-width="1.0"/>
    <path d="M4.55 -10.35 L3.05 -9.45 2.15 -11.15 0.8 -13.45 2.55 -14.0 4.55 -10.35" fill="#925fff" fill-opacity="0.8627451" fill-rule="evenodd" stroke="none"/>
    <path d="M4.55 -10.35 L3.05 -9.45 2.15 -11.15 0.8 -13.45 2.55 -14.0 4.55 -10.35 Z" fill="none" stroke="#0c041c" stroke-linecap="round" stroke-linejoin="round" stroke-opacity="0.68235296" stroke-width="1.0"/>
    <path d="M-7.75 -18.7 L-9.75 -21.4 -10.2 -23.25 Q-10.45 -24.35 -10.85 -24.4 L-12.0 -24.4 Q-12.55 -24.25 -12.05 -23.05 L-11.9 -19.75 Q-11.85 -18.9 -11.3 -18.25 L-9.65 -16.6 Q-9.35 -16.95 -9.1 -17.85 -8.75 -18.5 -7.75 -18.7 Z" fill="none" stroke="#080815" stroke-linecap="round" stroke-linejoin="round" stroke-opacity="0.73333335" stroke-width="1.0"/>
  </g>
  <defs>
    <linearGradient gradientTransform="matrix(1.0E-4, 0.003, -0.003, 1.0E-4, -5.85, -17.35)" gradientUnits="userSpaceOnUse" id="gradient0" spreadMethod="pad" x1="-819.2" x2="819.2">
      <stop offset="0.0" stop-color="#1b1636"/>
      <stop offset="1.0" stop-color="#2c1c48"/>
    </linearGradient>
    <radialGradient cx="0" cy="0" gradientTransform="matrix(6.0E-4, -0.0043, -0.0035, -7.0E-4, -5.1, -11.35)" gradientUnits="userSpaceOnUse" id="gradient1" r="819.2" spreadMethod="pad">
      <stop offset="0.0" stop-color="#8d56ff"/>
      <stop offset="1.0" stop-color="#8d56ff" stop-opacity="0.0"/>
    </radialGradient>
    <radialGradient cx="0" cy="0" gradientTransform="matrix(6.0E-4, -0.0039, -0.0027, -5.0E-4, 4.35, -13.6)" gradientUnits="userSpaceOnUse" id="gradient2" r="819.2" spreadMethod="pad">
      <stop offset="0.0" stop-color="#da7ede"/>
      <stop offset="1.0" stop-color="#925fff" stop-opacity="0.9372549"/>
    </radialGradient>
    <radialGradient cx="0" cy="0" gradientTransform="matrix(5.0E-4, -0.0034, -0.0036, -7.0E-4, 2.25, -15.1)" gradientUnits="userSpaceOnUse" id="gradient3" r="819.2" spreadMethod="pad">
      <stop offset="0.0" stop-color="#cf77e5"/>
      <stop offset="1.0" stop-color="#443a9d"/>
    </radialGradient>
  </defs>
</svg>
