<?xml version="1.0" encoding="UTF-8" standalone="no"?>
<svg xmlns:ffdec="https://www.free-decompiler.com/flash" xmlns:xlink="http://www.w3.org/1999/xlink" ffdec:objectType="shape" height="50.0px" width="31.8px" xmlns="http://www.w3.org/2000/svg">
  <g transform="matrix(1.0, 0.0, 0.0, 1.0, 8.3, 22.1)">
    <path d="M12.4 0.75 L11.2 4.45 5.7 2.55 7.05 0.0 12.4 0.75 M6.6 24.25 L7.1 22.6 15.95 22.6 15.95 25.55 11.25 25.55 6.6 24.25" fill="#9c9c9c" fill-rule="evenodd" stroke="none"/>
    <path d="M11.2 4.45 L12.4 0.75 15.9 1.25 15.2 3.2 11.2 4.45 M6.6 24.25 L11.25 25.55 15.95 25.55 15.95 22.6 18.2 22.6 18.2 27.4 11.45 27.4 6.05 25.9 6.6 24.25" fill="#2e2e2e" fill-rule="evenodd" stroke="none"/>
    <path d="M12.4 0.75 L11.2 4.45 15.2 3.2 15.9 1.25 12.4 0.75 7.05 0.0 5.7 2.55 11.2 4.45 M15.95 22.6 L7.1 22.6 6.6 24.25 6.05 25.9 11.45 27.4 18.2 27.4 18.2 22.6 15.95 22.6 Z" fill="none" stroke="#252525" stroke-linecap="round" stroke-linejoin="round" stroke-width="1.0"/>
    <path d="M6.05 20.0 L5.4 19.95 4.8 18.35 5.6 18.4 7.95 18.55 8.25 18.6 8.55 18.6 9.15 18.65 10.3 18.75 15.05 19.1 14.55 20.75 6.05 20.0 M12.2 7.1 L12.2 8.35 13.85 9.65 13.95 10.75 14.1 13.2 Q12.65 14.85 10.55 14.5 L7.7 13.7 Q6.9 12.8 6.8 10.6 6.8 8.7 8.05 7.35 L12.2 7.1" fill="#2e2e2e" fill-rule="evenodd" stroke="none"/>
    <path d="M5.7 2.55 L7.6 2.55 8.95 3.1 12.2 5.8 12.2 7.1 8.05 7.35 Q6.8 8.7 6.8 10.6 6.9 12.8 7.7 13.7 L10.55 14.5 Q12.65 14.85 14.1 13.2 L14.35 16.8 15.55 17.45 15.05 19.1 10.3 18.75 9.15 18.65 8.55 18.6 8.25 18.6 7.95 18.55 5.4 14.4 5.0 11.85 4.95 10.8 6.4 7.55 5.7 2.55" fill="#545454" fill-rule="evenodd" stroke="none"/>
    <path d="M4.85 15.05 L3.6 15.4 2.0 13.35 1.35 12.8 0.1 6.95 Q-0.35 4.1 1.2 3.9 L3.3 3.9 4.8 6.75 4.95 10.8 5.0 11.85 5.4 14.4 5.45 14.85 4.85 15.05 M2.0 13.35 L5.0 11.85 2.0 13.35" fill="#353535" fill-rule="evenodd" stroke="none"/>
    <path d="M8.95 3.1 Q11.5 4.2 12.2 5.8 L8.95 3.1" fill="#202020" fill-rule="evenodd" stroke="none"/>
    <path d="M9.95 23.75 L7.2 23.5 Q6.55 21.85 6.05 20.0 L14.55 20.75 11.6 20.75 9.95 23.75 M5.6 18.4 L4.85 15.05 5.45 14.85 5.4 14.4 7.95 18.55 5.6 18.4 M3.3 3.9 L5.05 2.55 5.7 2.55 6.4 7.55 4.95 10.8 4.8 6.75 3.3 3.9 M21.5 9.5 L22.0 11.65 16.05 10.7 15.8 9.65 15.5 8.65 21.5 9.5 M22.25 13.45 L22.35 15.25 16.15 14.55 16.15 12.5 22.25 13.45" fill="#383838" fill-rule="evenodd" stroke="none"/>
    <path d="M17.8 5.85 L19.15 6.0 Q20.9 7.8 21.5 9.5 L15.5 8.65 15.8 9.65 13.95 10.75 13.85 9.65 12.2 8.35 12.2 7.1 12.2 5.8 14.45 5.7 17.8 5.85" fill="#747474" fill-rule="evenodd" stroke="none"/>
    <path d="M22.35 15.25 L22.2 17.0 Q21.65 18.6 20.2 19.9 L15.55 17.45 14.35 16.8 14.1 13.2 13.95 10.75 15.8 9.65 16.05 10.7 22.0 11.65 22.25 13.45 16.15 12.5 16.15 14.55 22.35 15.25" fill="#565656" fill-rule="evenodd" stroke="none"/>
    <path d="M20.2 19.9 L20.0 20.95 18.65 23.75 9.95 23.75 11.6 20.75 14.55 20.75 15.05 19.1 15.55 17.45 20.2 19.9 M7.6 2.55 L15.2 3.2 Q17.5 4.35 17.8 5.85 L14.45 5.7 12.2 5.8 Q11.5 4.2 8.95 3.1 L7.6 2.55" fill="#6d6d6d" fill-rule="evenodd" stroke="none"/>
    <path d="M6.05 20.0 L5.4 19.95 4.8 18.35 5.6 18.4 M14.55 20.75 L6.05 20.0" fill="none" stroke="#171717" stroke-linecap="round" stroke-linejoin="round" stroke-width="1.0"/>
    <path d="M21.5 9.5 L22.0 11.65 16.05 10.7 15.8 9.65 15.5 8.65 21.5 9.5 M22.25 13.45 L22.35 15.25 16.15 14.55 16.15 12.5 22.25 13.45" fill="none" stroke="#1c1c1c" stroke-linecap="round" stroke-linejoin="round" stroke-width="1.0"/>
    <path d="M22.35 15.25 L22.2 17.0 Q21.65 18.6 20.2 19.9 L20.0 20.95 18.65 23.75 9.95 23.75 7.2 23.5 Q6.55 21.85 6.05 20.0 M5.6 18.4 L4.85 15.05 3.6 15.4 2.0 13.35 1.35 12.8 0.1 6.95 Q-0.35 4.1 1.2 3.9 L3.3 3.9 5.05 2.55 5.7 2.55 7.6 2.55 15.2 3.2 Q17.5 4.35 17.8 5.85 L19.15 6.0 Q20.9 7.8 21.5 9.5 M22.0 11.65 L22.25 13.45 M17.8 5.85 L14.45 5.7 12.2 5.8 12.2 7.1 12.2 8.35 13.85 9.65 13.95 10.75 14.1 13.2 Q12.65 14.85 10.55 14.5 L7.7 13.7 Q6.9 12.8 6.8 10.6 6.8 8.7 8.05 7.35 L12.2 7.1 M5.0 11.85 L4.95 10.8 4.8 6.75 3.3 3.9 M8.25 18.6 L8.55 18.6 9.15 18.65 10.3 18.75 15.05 19.1 15.55 17.45 14.35 16.8 14.1 13.2 M4.85 15.05 L5.45 14.85 5.4 14.4 5.0 11.85 2.0 13.35 M7.95 18.55 L5.6 18.4 M15.05 19.1 L14.55 20.75 11.6 20.75 9.95 23.75 M15.55 17.45 L20.2 19.9" fill="none" stroke="#202020" stroke-linecap="round" stroke-linejoin="round" stroke-width="1.0"/>
    <path d="M12.2 5.8 L8.95 3.1" fill="none" stroke="#202020" stroke-linecap="round" stroke-linejoin="round" stroke-width="1.2000000000000002"/>
    <path d="M-0.55 12.95 L-0.55 16.9 -7.05 16.9 -7.15 12.95 -0.55 12.95 M-0.55 18.5 L-0.55 19.9 Q-2.05 21.45 -6.75 19.9 L-6.9 18.5 -0.55 18.5 M-7.05 11.2 L-6.75 8.6 Q-1.45 7.6 -0.55 8.6 L-0.55 11.2 -7.05 11.2" fill="#6d6d6d" fill-rule="evenodd" stroke="none"/>
    <path d="M-0.55 11.2 L2.3 11.2 2.3 12.95 -0.55 12.95 -7.15 12.95 -7.8 12.95 -7.8 11.2 -7.05 11.2 -0.55 11.2 M-0.55 16.9 L2.15 16.9 2.15 18.5 -0.55 18.5 -6.9 18.5 -7.7 18.5 -7.7 16.9 -7.05 16.9 -0.55 16.9" fill="#272727" fill-rule="evenodd" stroke="none"/>
    <path d="M-0.55 11.2 L2.3 11.2 2.3 12.95 -0.55 12.95 -0.55 16.9 2.15 16.9 2.15 18.5 -0.55 18.5 -0.55 19.9 Q-2.05 21.45 -6.75 19.9 L-6.9 18.5 -7.7 18.5 -7.7 16.9 -7.05 16.9 -7.15 12.95 -7.8 12.95 -7.8 11.2 -7.05 11.2 -6.75 8.6 Q-1.45 7.6 -0.55 8.6 L-0.55 11.2 -7.05 11.2 M-0.55 12.95 L-7.15 12.95 M-7.05 16.9 L-0.55 16.9 M-0.55 18.5 L-6.9 18.5" fill="none" stroke="#0b0b0b" stroke-linecap="round" stroke-linejoin="round" stroke-width="1.0"/>
    <path d="M7.6 22.2 Q7.3 23.5 5.8 23.8 L4.55 23.75 1.35 23.15 Q-0.05 22.35 -0.5 20.65 1.65 21.65 4.1 21.65 L6.8 21.65 6.85 22.2 7.6 22.2" fill="#333333" fill-rule="evenodd" stroke="none"/>
    <path d="M11.55 5.1 L10.35 6.75 Q8.9 6.9 7.8 6.3 5.55 5.7 5.25 4.75 5.2 2.65 6.75 3.05 L8.75 3.8 Q10.2 4.3 11.55 5.1 M11.3 7.3 L12.45 5.7 15.05 8.15 Q16.6 9.8 15.4 13.3 14.35 16.3 12.2 17.45 L11.2 15.65 Q13.3 14.15 13.7 11.9 13.95 10.45 13.45 9.8 L11.3 7.3 M11.2 17.95 L10.45 18.2 9.75 18.3 7.7 18.3 9.75 18.3 10.5 22.2 7.6 22.2 6.85 22.2 6.8 21.65 6.4 18.3 7.7 18.3 7.95 17.15 10.15 16.25 11.2 17.95 M11.15 18.15 L13.3 17.95 13.8 19.5 18.2 20.7 17.7 22.9 13.65 21.95 Q13.5 21.8 13.3 22.2 L12.0 22.2 11.15 18.15 M13.65 21.95 L13.8 19.5 13.65 21.95" fill="#232323" fill-rule="evenodd" stroke="none"/>
    <path d="M10.35 6.75 L11.55 5.1 12.45 5.7 11.3 7.3 10.35 6.75 M11.2 15.65 L12.2 17.45 11.2 17.95 10.15 16.25 11.2 15.65 M10.45 18.2 L11.15 18.15 12.0 22.2 10.5 22.2 9.75 18.3 10.45 18.2" fill="#565656" fill-rule="evenodd" stroke="none"/>
    <path d="M-0.5 20.65 L-0.7 18.75 -1.45 10.55 -1.5 10.55 -1.5 10.2 -1.5 9.7 -1.5 9.35 -1.35 7.35 -1.3 7.0 Q-1.3 5.0 -0.85 3.7 -0.4 2.4 0.35 1.85 1.95 0.65 3.4 0.75 L3.15 6.65 3.05 9.15 3.05 10.15 3.1 11.55 Q3.25 16.3 4.1 21.65 1.65 21.65 -0.5 20.65 M-1.45 10.55 L-1.5 10.2 -1.45 10.55" fill="#6d6d6d" fill-rule="evenodd" stroke="none"/>
    <path d="M6.75 3.05 Q5.2 2.65 5.25 4.75 5.55 5.7 7.8 6.3 6.4 12.5 7.7 18.3 L6.4 18.3 6.8 21.65 4.1 21.65 Q3.25 16.3 3.1 11.55 L3.05 10.15 3.05 9.15 3.15 6.65 3.4 0.75 5.4 1.1 Q6.2 1.35 6.75 3.05" fill="#4f4f4f" fill-rule="evenodd" stroke="none"/>
    <path d="M11.55 5.1 L10.35 6.75 11.3 7.3 13.45 9.8 Q13.95 10.45 13.7 11.9 13.3 14.15 11.2 15.65 L12.2 17.45 11.2 17.95 10.45 18.2 11.15 18.15 13.3 17.95 13.8 19.5 18.2 20.7 17.7 22.9 13.65 21.95 Q13.5 21.8 13.3 22.2 L12.0 22.2 10.5 22.2 7.6 22.2 Q7.3 23.5 5.8 23.8 L4.55 23.75 1.35 23.15 Q-0.05 22.35 -0.5 20.65 L-0.7 18.75 -1.45 10.55 -1.5 10.2 -1.5 9.7 -1.5 9.35 -1.35 7.35 -1.3 7.0 Q-1.3 5.0 -0.85 3.7 -0.4 2.4 0.35 1.85 1.95 0.65 3.4 0.75 L5.4 1.1 Q6.2 1.35 6.75 3.05 5.2 2.65 5.25 4.75 5.55 5.7 7.8 6.3 8.9 6.9 10.35 6.75 M12.45 5.7 L11.55 5.1 Q10.2 4.3 8.75 3.8 L6.75 3.05 M12.2 17.45 Q14.35 16.3 15.4 13.3 16.6 9.8 15.05 8.15 L12.45 5.7 M6.8 21.65 L6.4 18.3 7.7 18.3 Q6.4 12.5 7.8 6.3 M10.15 16.25 L7.95 17.15 7.7 18.3 9.75 18.3 10.45 18.2 M7.6 22.2 L6.85 22.2 6.8 21.65 M11.2 15.65 L10.15 16.25 M13.8 19.5 L13.65 21.95 M11.15 18.15 L12.0 22.2 M9.75 18.3 L10.5 22.2" fill="none" stroke="#0b0b0b" stroke-linecap="round" stroke-linejoin="round" stroke-width="1.0"/>
    <path d="M3.4 0.75 L3.15 6.65 3.05 9.15 3.05 10.15 3.1 11.55 Q3.25 16.3 4.1 21.65" fill="none" stroke="#3f3f3f" stroke-linecap="round" stroke-linejoin="round" stroke-width="1.0"/>
    <path d="M2.05 13.85 L2.05 14.5 -2.5 14.5 -2.5 2.3 -1.9 2.3 2.05 2.3 2.05 13.85" fill="#2c2c2c" fill-rule="evenodd" stroke="none"/>
    <path d="M1.35 -1.1 L4.1 -1.1 4.1 13.8 2.05 13.85 2.05 2.3 -1.9 2.3 -0.2 -1.1 1.35 -1.1 1.35 -0.3 1.35 -1.1" fill="#1e1d1d" fill-rule="evenodd" stroke="none"/>
    <path d="M1.35 -1.1 L1.35 -21.6" fill="none" stroke="#000000" stroke-linecap="round" stroke-linejoin="round" stroke-opacity="0.6" stroke-width="1.0"/>
    <path d="M2.05 13.85 L4.1 13.8 4.1 -1.1 1.35 -1.1 1.35 -0.3 M2.05 13.85 L2.05 14.5 -2.5 14.5 -2.5 2.3 -1.9 2.3 -0.2 -1.1 1.35 -1.1 M-1.9 2.3 L2.05 2.3 2.05 13.85" fill="none" stroke="#121212" stroke-linecap="round" stroke-linejoin="round" stroke-width="1.0"/>
    <path d="M5.1 13.35 L5.2 14.55 -3.15 14.55 -3.35 13.35 5.1 13.35 M5.3 15.9 L5.45 18.15 -2.25 18.15 -2.85 15.9 5.3 15.9 M-3.7 11.3 L-3.95 6.8 4.7 7.75 4.95 11.25 -3.7 11.3" fill="#6d6d6d" fill-rule="evenodd" stroke="none"/>
    <path d="M4.95 11.25 L5.1 13.35 -3.35 13.35 -3.7 11.3 4.95 11.25 M5.2 14.55 L5.3 15.9 -2.85 15.9 -3.15 14.55 5.2 14.55" fill="#4a4a4a" fill-rule="evenodd" stroke="none"/>
    <path d="M4.95 11.25 L5.1 13.35 5.2 14.55 5.3 15.9 5.45 18.15 -2.25 18.15 -2.85 15.9 -3.15 14.55 -3.35 13.35 -3.7 11.3 -3.95 6.8 4.7 7.75 4.95 11.25 Z" fill="none" stroke="#0b0b0b" stroke-linecap="round" stroke-linejoin="round" stroke-width="1.0"/>
    <path d="M22.7 16.1 L23.0 16.1 23.0 21.7 19.65 21.7 19.65 16.1 20.05 16.1 22.7 16.1 M15.95 16.25 L18.6 16.25 18.9 16.25 18.9 21.85 15.55 21.85 15.55 16.25 15.95 16.25" fill="#353535" fill-rule="evenodd" stroke="none"/>
    <path d="M20.05 16.1 L20.05 15.2 22.7 14.4 22.7 16.1 20.05 16.1 M18.6 16.25 L15.95 16.25 15.95 15.35 18.6 14.55 18.6 16.25" fill="#808080" fill-rule="evenodd" stroke="none"/>
    <path d="M13.95 20.7 L13.45 21.15 13.45 24.4 7.85 24.4 7.85 21.1 7.35 20.7 8.2 21.25 8.95 21.65 8.2 21.25 7.35 20.7 7.35 17.05 13.95 17.05 13.95 20.7 12.45 21.7 13.95 20.7 M9.05 21.7 L10.2 22.15 11.15 22.2 12.45 21.7 12.45 19.75 8.95 19.75 8.95 21.65 8.95 21.7 9.05 21.7" fill="#414141" fill-rule="evenodd" stroke="none"/>
    <path d="M12.45 21.7 L11.15 22.2 10.2 22.15 9.05 21.7 12.45 21.7" fill="#747474" fill-rule="evenodd" stroke="none"/>
    <path d="M9.05 21.7 L8.95 21.7 8.95 21.65 8.95 19.75 12.45 19.75 12.45 21.7 9.05 21.7" fill="#313131" fill-rule="evenodd" stroke="none"/>
    <path d="M22.7 16.1 L23.0 16.1 23.0 21.7 19.65 21.7 19.65 16.1 20.05 16.1 20.05 15.2 22.7 14.4 22.7 16.1 20.05 16.1 M15.95 16.25 L18.6 16.25 18.6 14.55 15.95 15.35 15.95 16.25 15.55 16.25 15.55 21.85 18.9 21.85 18.9 16.25 18.6 16.25" fill="none" stroke="#151515" stroke-linecap="round" stroke-linejoin="round" stroke-width="1.0"/>
    <path d="M7.35 20.7 L7.85 21.1 7.85 24.4 13.45 24.4 13.45 21.15 13.95 20.7 12.45 21.7 11.15 22.2 10.2 22.15 9.05 21.7 M8.95 21.65 L8.2 21.25 7.35 20.7 7.35 17.05 13.95 17.05 13.95 20.7" fill="none" stroke="#1c1c1c" stroke-linecap="round" stroke-linejoin="round" stroke-width="1.0"/>
  </g>
</svg>
