<?xml version="1.0" encoding="UTF-8" standalone="no"?>
<svg xmlns:ffdec="https://www.free-decompiler.com/flash" xmlns:xlink="http://www.w3.org/1999/xlink" ffdec:objectType="shape" height="40.3px" width="28.1px" xmlns="http://www.w3.org/2000/svg">
  <g transform="matrix(1.0, 0.0, 0.0, 1.0, 3.05, 0.8)">
    <path d="M11.5 14.7 L12.7 19.45 12.7 20.0 12.65 22.4 12.95 31.65 12.95 30.9 13.0 32.15 12.95 32.15 12.9 32.15 7.6 30.1 Q6.95 24.75 7.05 19.1 L8.0 16.9 11.5 14.7 M12.85 23.85 L12.85 25.45 12.85 24.2 12.85 23.85" fill="#d27e02" fill-rule="evenodd" stroke="none"/>
    <path d="M12.7 19.45 L22.7 18.55 Q23.2 22.65 22.5 26.0 L21.1 30.55 18.6 31.05 18.3 31.1 13.0 32.15 12.95 30.9 12.95 31.65 12.65 22.4 12.7 20.0 12.7 19.45 M12.85 23.85 L12.85 24.2 12.85 25.45 12.85 23.85" fill="#996600" fill-rule="evenodd" stroke="none"/>
    <path d="M11.5 14.7 L17.15 14.7 Q20.7 15.5 22.5 17.35 L22.7 18.55 12.7 19.45 11.5 14.7" fill="#e38902" fill-rule="evenodd" stroke="none"/>
    <path d="M13.9 38.95 Q11.65 38.95 9.05 37.25 L8.0 32.95 7.6 30.1 12.9 32.15 13.0 32.8 13.7 37.4 13.9 38.95" fill="#a76503" fill-rule="evenodd" stroke="none"/>
    <path d="M21.1 30.55 L20.6 32.05 Q18.55 36.1 18.7 37.05 18.65 39.4 13.9 38.95 L13.7 37.4 13.0 32.8 12.9 32.15 12.95 32.15 13.0 32.15 18.3 31.1 18.6 31.05 21.1 30.55" fill="#764701" fill-rule="evenodd" stroke="none"/>
    <path d="M7.15 15.75 Q7.45 14.2 9.55 13.65 12.05 12.7 12.45 10.95" fill="none" stroke="#bb0000" stroke-linecap="round" stroke-linejoin="round" stroke-opacity="0.8" stroke-width="1.0"/>
    <path d="M22.7 18.55 L22.5 17.35 Q20.7 15.5 17.15 14.7 L11.5 14.7 8.0 16.9 7.05 19.1 Q6.95 24.75 7.6 30.1 L8.0 32.95 9.05 37.25 Q11.65 38.95 13.9 38.95 M22.7 18.55 Q23.2 22.65 22.5 26.0 L21.1 30.55 20.6 32.05" fill="none" stroke="#653d01" stroke-linecap="round" stroke-linejoin="round" stroke-width="1.0"/>
    <path d="M20.6 32.05 Q18.55 36.1 18.7 37.05 18.65 39.4 13.9 38.95" fill="none" stroke="#543201" stroke-linecap="round" stroke-linejoin="round" stroke-width="1.0"/>
    <path d="M4.2 0.05 L4.2 0.75" fill="none" stroke="#ff0000" stroke-linecap="round" stroke-linejoin="round" stroke-width="1.75"/>
    <path d="M-0.15 20.1 L0.65 17.4 6.3 15.75 6.15 14.4 8.35 14.1 8.35 14.45 8.35 16.05 8.25 20.55 8.2 22.2 6.35 23.0 6.35 18.7 6.35 23.0 0.0 25.2 -0.15 20.1" fill="#797979" fill-rule="evenodd" stroke="none"/>
    <path d="M0.0 29.6 L-2.1 28.7 Q-2.9 25.15 -2.25 21.45 L-0.15 20.1 0.0 25.2 0.0 29.6 M0.65 17.4 L0.65 15.15 2.45 14.65 4.3 14.1 6.15 14.4 6.3 15.75 0.65 17.4" fill="#434343" fill-rule="evenodd" stroke="none"/>
    <path d="M24.55 19.8 L24.55 21.55 18.6 20.7 18.6 18.95 24.55 19.8" fill="#ff0000" fill-rule="evenodd" stroke="none"/>
    <path d="M18.1 32.0 Q15.55 33.4 10.45 32.5 L10.45 25.05 12.65 25.55 16.4 25.55 16.4 28.15 17.25 29.4 17.5 29.8 17.55 29.8 17.95 31.45 18.1 32.0 M16.7 16.85 L16.35 16.85 15.05 17.85 8.35 16.05 8.35 14.45 10.7 14.45 16.7 16.85" fill="#353535" fill-rule="evenodd" stroke="none"/>
    <path d="M24.55 24.95 L24.25 26.7 18.8 26.0 16.4 24.8 16.4 23.0 18.2 23.9 24.55 24.95 M22.5 30.85 L22.15 32.5 17.95 31.45 17.55 29.8 22.5 30.85" fill="#350303" fill-rule="evenodd" stroke="none"/>
    <path d="M24.25 26.7 L23.45 31.05 22.5 30.85 17.55 29.8 17.25 29.4 16.4 28.15 16.4 25.55 16.4 24.8 18.8 26.0 24.25 26.7 M22.15 32.5 Q21.5 34.95 20.1 37.1 L19.0 35.65 18.1 32.0 17.95 31.45 22.15 32.5" fill="#272727" fill-rule="evenodd" stroke="none"/>
    <path d="M24.55 21.55 L24.55 24.95 18.2 23.9 16.4 23.0 14.6 22.1 14.6 18.15 15.05 17.85 16.35 16.85 16.7 16.85 21.95 16.85 24.5 17.95 24.55 19.8 18.6 18.95 18.6 20.7 24.55 21.55" fill="#383838" fill-rule="evenodd" stroke="none"/>
    <path d="M2.25 34.3 L0.7 33.45 0.7 31.1 0.0 30.55 0.0 29.6 0.0 25.2 6.35 23.0 8.2 22.2 8.05 31.6 3.3 31.55 2.25 34.3 M6.35 28.15 L6.35 23.0 6.35 28.15" fill="#464646" fill-rule="evenodd" stroke="none"/>
    <path d="M10.45 32.5 L10.45 33.9 8.0 33.85 7.5 35.15 3.85 35.15 2.25 34.3 3.3 31.55 8.05 31.6 8.2 22.2 8.25 20.55 10.45 21.9 10.45 25.05 10.45 32.5 M8.0 33.85 L8.05 31.6 8.0 33.85" fill="#313131" fill-rule="evenodd" stroke="none"/>
    <path d="M6.35 23.0 L6.35 18.7" fill="none" stroke="#5d5d5d" stroke-linecap="round" stroke-linejoin="round" stroke-width="1.0"/>
    <path d="M18.1 32.0 Q15.55 33.4 10.45 32.5 M8.35 16.05 L15.05 17.85 M8.35 14.45 L10.7 14.45 16.7 16.85 M10.45 25.05 L12.65 25.55 16.4 25.55" fill="none" stroke="#232323" stroke-linecap="round" stroke-linejoin="round" stroke-width="1.0"/>
    <path d="M6.35 23.0 L6.35 28.15" fill="none" stroke="#313131" stroke-linecap="round" stroke-linejoin="round" stroke-width="1.0"/>
    <path d="M2.45 14.65 L2.45 5.95 M4.3 14.1 L4.3 0.75" fill="none" stroke="#000000" stroke-linecap="round" stroke-linejoin="round" stroke-opacity="0.6" stroke-width="1.0"/>
    <path d="M24.55 21.55 L24.55 24.95 24.25 26.7 23.45 31.05 22.5 30.85 22.15 32.5 Q21.5 34.95 20.1 37.1 L19.0 35.65 18.1 32.0 17.95 31.45 17.55 29.8 22.5 30.85 M24.55 21.55 L24.55 19.8 24.5 17.95 21.95 16.85 16.7 16.85 16.35 16.85 15.05 17.85 14.6 18.15 14.6 22.1 16.4 23.0 18.2 23.9 24.55 24.95 M16.4 25.55 L16.4 24.8 16.4 23.0 M17.25 29.4 L16.4 28.15 16.4 25.55 M17.25 29.4 L17.5 29.8 17.55 29.8 17.25 29.4" fill="none" stroke="#0e0e0e" stroke-linecap="round" stroke-linejoin="round" stroke-width="1.0"/>
    <path d="M24.55 19.8 L24.55 21.55 18.6 20.7 18.6 18.95 24.55 19.8" fill="none" stroke="#4a0404" stroke-linecap="round" stroke-linejoin="round" stroke-width="1.0"/>
    <path d="M10.45 32.5 L10.45 33.9 8.0 33.85 7.5 35.15 3.85 35.15 2.25 34.3 0.7 33.45 0.7 31.1 0.0 30.55 0.0 29.6 -2.1 28.7 Q-2.9 25.15 -2.25 21.45 L-0.15 20.1 0.65 17.4 0.65 15.15 2.45 14.65 4.3 14.1 6.15 14.4 8.35 14.1 8.35 14.45 8.35 16.05 8.25 20.55 10.45 21.9 10.45 25.05 10.45 32.5 M6.15 14.4 L6.3 15.75 0.65 17.4 M8.2 22.2 L8.25 20.55 M8.2 22.2 L8.05 31.6 8.0 33.85 M0.0 25.2 L0.0 29.6 M8.05 31.6 L3.3 31.55 2.25 34.3 M-0.15 20.1 L0.0 25.2" fill="none" stroke="#191919" stroke-linecap="round" stroke-linejoin="round" stroke-width="1.0"/>
    <path d="M18.05 29.75 L18.75 29.75 18.75 31.7 18.75 33.4 18.45 33.85 18.45 34.65 Q16.95 36.45 15.1 34.65 L15.1 33.8 14.8 33.4 14.8 31.7 14.8 29.75 15.55 29.75 15.55 33.2 Q16.85 34.8 18.05 33.3 L18.05 29.75 M19.25 31.7 L19.25 29.75 20.0 29.75 20.0 33.2 Q21.1 34.55 22.15 33.7 L22.5 33.3 22.5 29.75 23.2 29.75 23.2 33.4 22.9 33.85 22.9 34.65 22.15 35.3 Q20.95 36.0 19.55 34.65 L19.55 33.8 19.25 33.4 19.25 31.7 M10.75 34.65 L10.75 33.8 10.45 33.4 10.45 29.75 11.2 29.75 11.2 33.2 Q12.5 34.8 13.7 33.3 L13.7 29.75 14.4 29.75 14.4 31.7 14.4 33.4 14.1 33.85 14.1 34.65 Q12.7 36.35 11.0 34.9 L10.75 34.65 M14.4 33.4 L13.75 34.2 12.7 34.9 12.15 34.85 11.2 34.2 11.0 34.0 10.45 33.4 11.0 34.0 11.2 34.2 12.15 34.85 12.7 34.9 13.75 34.2 14.4 33.4 M14.8 33.4 L15.55 34.2 16.5 34.85 17.05 34.9 18.1 34.2 18.75 33.4 18.1 34.2 17.05 34.9 16.5 34.85 15.55 34.2 14.8 33.4 M23.2 33.4 L22.55 34.2 22.15 34.55 21.5 34.9 20.95 34.85 20.0 34.2 19.25 33.4 20.0 34.2 20.95 34.85 21.5 34.9 22.15 34.55 22.55 34.2 23.2 33.4" fill="#3f1313" fill-rule="evenodd" stroke="none"/>
    <path d="M18.75 31.7 L19.25 31.7 19.25 33.4 19.55 33.8 19.55 34.65 19.55 35.95 18.45 35.95 18.45 37.1 15.1 37.1 15.1 35.95 14.1 35.95 14.1 37.1 10.75 37.1 10.75 34.65 11.0 34.9 Q12.7 36.35 14.1 34.65 L14.1 33.85 14.4 33.4 14.4 31.7 14.8 31.7 14.8 33.4 15.1 33.8 15.1 34.65 15.1 35.95 15.1 34.65 Q16.95 36.45 18.45 34.65 L18.45 33.85 18.75 33.4 18.75 31.7 M20.0 29.75 L22.5 29.75 22.5 33.3 22.15 33.7 Q21.1 34.55 20.0 33.2 L20.0 29.75 M22.9 34.65 L22.9 37.1 19.55 37.1 19.55 35.95 19.55 34.65 Q20.95 36.0 22.15 35.3 L22.9 34.65 M11.2 29.75 L13.7 29.75 13.7 33.3 Q12.5 34.8 11.2 33.2 L11.2 29.75 M15.55 29.75 L18.05 29.75 18.05 33.3 Q16.85 34.8 15.55 33.2 L15.55 29.75 M14.1 35.95 L14.1 34.65 14.1 35.95 M18.45 35.95 L18.45 34.65 18.45 35.95" fill="#272727" fill-rule="evenodd" stroke="none"/>
    <path d="M18.05 29.75 L18.75 29.75 18.75 31.7 18.75 33.4 18.1 34.2 17.05 34.9 16.5 34.85 15.55 34.2 14.8 33.4 14.8 31.7 14.8 29.75 15.55 29.75 18.05 29.75 M19.25 31.7 L19.25 29.75 20.0 29.75 22.5 29.75 23.2 29.75 23.2 33.4 22.9 33.85 22.9 34.65 22.9 37.1 19.55 37.1 19.55 35.95 19.55 34.65 19.55 33.8 19.25 33.4 19.25 31.7 M18.45 35.95 L18.45 37.1 15.1 37.1 15.1 35.95 15.1 34.65 15.1 33.8 14.8 33.4 M14.1 35.95 L14.1 37.1 10.75 37.1 10.75 34.65 10.75 33.8 10.45 33.4 10.45 29.75 11.2 29.75 13.7 29.75 14.4 29.75 14.4 31.7 14.4 33.4 14.1 33.85 14.1 34.65 14.1 35.95 M10.45 33.4 L11.0 34.0 11.2 34.2 12.15 34.85 12.7 34.9 13.75 34.2 14.4 33.4 M18.45 34.65 L18.45 33.85 18.75 33.4 M18.45 34.65 L18.45 35.95 M19.25 33.4 L20.0 34.2 20.95 34.85 21.5 34.9 22.15 34.55 22.55 34.2 23.2 33.4" fill="none" stroke="#101010" stroke-linecap="round" stroke-linejoin="round" stroke-width="0.8"/>
    <path d="M18.75 31.7 L19.25 31.7 M19.55 35.95 L18.45 35.95 M15.1 35.95 L14.1 35.95 M14.4 31.7 L14.8 31.7" fill="none" stroke="#0e0e0e" stroke-linecap="round" stroke-linejoin="round" stroke-width="0.8"/>
  </g>
</svg>
