<?xml version="1.0" encoding="UTF-8" standalone="no"?>
<svg xmlns:ffdec="https://www.free-decompiler.com/flash" xmlns:xlink="http://www.w3.org/1999/xlink" ffdec:objectType="shape" height="24.55px" width="17.0px" xmlns="http://www.w3.org/2000/svg">
  <g transform="matrix(1.0, 0.0, 0.0, 1.0, 0.1, 0.5)">
    <path d="M11.25 4.45 L12.4 3.0 Q14.3 3.2 16.2 7.25 16.8 9.15 15.6 11.25 L13.9 14.95 12.0 12.85 12.45 10.1 12.5 8.75 12.3 7.4 12.15 6.85 11.25 4.45 M13.1 7.4 L12.3 7.4 13.1 7.4 M12.95 8.75 L12.5 8.75 12.95 8.75 M13.05 10.1 L12.45 10.1 13.05 10.1 M4.0 0.45 L4.3 1.1 Q2.45 4.3 2.55 6.55 L2.25 5.45 Q1.95 5.15 1.55 5.15 L0.8 5.1 1.0 5.15 0.95 5.15 0.8 5.1 0.95 5.15 0.75 5.2 Q1.05 3.05 1.9 1.55 L2.75 1.55 3.5 0.45 4.0 0.45 M0.95 7.7 L1.0 7.7 2.25 7.4 2.55 6.95 Q2.65 10.75 3.65 15.85 L3.35 16.35 3.15 16.6 1.7 16.6 0.9 11.2 1.1 11.2 1.1 11.25 1.9 10.9 2.1 10.2 2.1 9.65 1.9 8.95 Q1.7 8.65 1.45 8.65 L1.1 8.65 0.9 8.7 0.85 8.75 0.6 8.95 0.5 8.35 0.5 7.6 0.85 7.7 0.95 7.7 M8.7 19.0 L8.7 19.05 8.9 19.55 9.45 19.8 10.95 19.8 11.45 19.55 11.7 19.05 11.7 19.0 12.9 19.0 12.85 19.8 13.1 22.45 13.1 22.6 13.1 22.95 11.65 22.95 11.0 23.3 Q6.1 23.75 5.1 23.35 L4.3 22.85 4.3 22.25 4.5 21.25 4.5 21.15 4.5 20.15 4.4 20.15 4.2 18.5 4.25 18.5 4.3 18.5 4.2 18.1 6.6 18.1 7.9 19.0 8.7 19.0 M4.25 18.5 L4.5 20.15 4.25 18.5" fill="#3b2323" fill-rule="evenodd" stroke="none"/>
    <path d="M12.4 3.0 L11.25 4.45 9.9 5.05 9.25 4.25 Q8.3 3.3 7.0 3.3 L6.95 3.3 Q5.6 3.3 4.6 4.25 L4.5 4.35 4.55 4.1 Q5.25 3.1 4.55 1.8 L4.3 1.1 4.0 0.45 5.5 0.05 Q7.15 -0.3 10.05 1.0 12.95 2.3 12.4 3.0 M8.7 19.0 L8.9 18.5 9.45 18.3 10.95 18.3 11.45 18.5 11.7 19.0 11.7 19.05 11.45 19.55 10.95 19.8 9.45 19.8 8.9 19.55 8.7 19.05 8.7 19.0" fill="#141414" fill-rule="evenodd" stroke="none"/>
    <path d="M11.25 4.45 L12.15 6.85 12.3 7.4 12.5 8.75 11.65 8.75 12.5 8.75 12.45 10.1 11.75 10.1 12.45 10.1 12.0 12.85 Q10.75 14.6 7.2 15.1 L6.4 15.1 3.8 11.05 3.8 8.9 3.95 8.0 4.6 8.9 Q5.6 9.9 6.95 9.9 8.3 9.9 9.25 8.9 10.25 7.95 10.25 6.6 10.25 5.75 9.9 5.05 L11.25 4.45 M11.8 7.4 L12.3 7.4 11.8 7.4" fill="#1e1e1e" fill-rule="evenodd" stroke="none"/>
    <path d="M4.3 1.1 L4.55 1.8 Q5.25 3.1 4.55 4.1 L4.5 4.35 Q3.65 5.3 3.65 6.6 3.65 7.35 3.95 8.0 L3.8 8.9 3.8 11.05 6.4 15.1 4.2 15.1 3.95 15.4 3.65 15.85 Q2.65 10.75 2.55 6.95 L2.55 6.55 Q2.45 4.3 4.3 1.1" fill="#2a1919" fill-rule="evenodd" stroke="none"/>
    <path d="M4.5 4.35 L4.6 4.25 Q5.6 3.3 6.95 3.3 L7.0 3.3 Q8.3 3.3 9.25 4.25 L9.9 5.05 Q10.25 5.75 10.25 6.6 10.25 7.95 9.25 8.9 8.3 9.9 6.95 9.9 5.6 9.9 4.6 8.9 L3.95 8.0 Q3.65 7.35 3.65 6.6 3.65 5.3 4.5 4.35" fill="#2c1919" fill-rule="evenodd" stroke="none"/>
    <path d="M0.95 5.15 L1.0 5.15 0.8 5.1 1.55 5.15 2.0 5.45 2.2 6.7 2.0 7.4 1.0 7.7 0.95 7.7 0.75 7.6 0.6 7.4 0.4 6.7 0.4 6.15 0.6 5.45 0.9 5.2 0.95 5.15 M0.6 8.95 L0.85 8.75 0.9 8.7 1.1 8.65 1.45 8.65 Q1.7 8.65 1.9 8.95 L2.1 9.65 2.1 10.2 1.9 10.9 1.1 11.25 1.1 11.2 0.9 11.2 0.75 11.1 0.6 10.9 0.4 10.2 0.4 9.65 0.6 9.0 0.85 8.75 0.6 9.0 0.6 8.95" fill="#ff094f" fill-rule="evenodd" stroke="none"/>
    <path d="M6.4 15.1 L7.2 15.1 Q10.75 14.6 12.0 12.85 L13.9 14.95 14.4 16.2 12.9 19.0 11.7 19.0 11.45 18.5 10.95 18.3 9.45 18.3 8.9 18.5 8.7 19.0 7.9 19.0 6.6 18.1 4.2 18.1 4.15 18.1 4.25 18.5 4.2 18.45 Q3.55 17.85 3.45 17.25 L3.45 17.15 3.4 16.6 3.35 16.35 3.65 15.85 3.95 15.4 4.2 15.1 6.4 15.1 M5.85 16.55 L5.35 16.55 5.85 16.55 M12.25 16.55 L7.35 16.55 12.25 16.55" fill="#211313" fill-rule="evenodd" stroke="none"/>
    <path d="M4.2 18.45 L4.25 18.5 4.15 18.1 4.2 18.1 4.3 18.5 4.25 18.5 4.2 18.5 4.2 18.45 M4.4 20.15 L4.5 20.15 4.5 21.15 4.4 20.15" fill="#ffffff" fill-rule="evenodd" stroke="none"/>
    <path d="M12.4 3.0 L11.25 4.45 M13.9 14.95 L15.6 11.25 Q16.8 9.15 16.2 7.25 14.3 3.2 12.4 3.0 M4.0 0.45 L4.3 1.1 4.55 1.8 Q5.25 3.1 4.55 4.1 L4.5 4.35 M0.75 5.2 Q1.05 3.05 1.9 1.55 L2.75 1.55 3.5 0.45 4.0 0.45 M1.0 7.7 L2.0 7.4 2.2 6.7 2.0 5.45 1.55 5.15 0.8 5.1 M6.4 15.1 L7.2 15.1 Q10.75 14.6 12.0 12.85 L13.9 14.95 14.4 16.2 12.9 19.0 11.7 19.0 11.45 18.5 10.95 18.3 9.45 18.3 8.9 18.5 8.7 19.0 7.9 19.0 6.6 18.1 4.2 18.1 4.15 18.1 4.25 18.5 4.3 18.5 4.2 18.1 M0.5 7.6 L0.5 8.35 0.6 8.95 M1.1 8.65 L1.45 8.65 Q1.7 8.65 1.9 8.95 L2.1 9.65 2.1 10.2 1.9 10.9 1.1 11.25 1.1 11.2 M0.9 11.2 L1.7 16.6 3.15 16.6 3.35 16.35 3.65 15.85 3.95 15.4 4.2 15.1 6.4 15.1 M3.4 16.6 L3.35 16.35 M3.4 16.6 L3.45 17.15 3.45 17.25 Q3.55 17.85 4.2 18.45 L4.25 18.5" fill="none" stroke="#0e0808" stroke-linecap="round" stroke-linejoin="round" stroke-width="1.0"/>
    <path d="M11.25 4.45 L12.15 6.85 12.3 7.4 12.5 8.75 12.45 10.1 12.0 12.85 M6.95 3.3 L7.0 3.3 M3.95 8.0 Q3.65 7.35 3.65 6.6 3.65 5.3 4.5 4.35 M9.9 5.05 Q10.25 5.75 10.25 6.6 10.25 7.95 9.25 8.9 8.3 9.9 6.95 9.9 5.6 9.9 4.6 8.9 L3.95 8.0 3.8 8.9 3.8 11.05 6.4 15.1 M8.7 19.0 L8.7 19.05 8.9 19.55 9.45 19.8 10.95 19.8 11.45 19.55 11.7 19.05 11.7 19.0 M3.15 16.6 L3.4 16.6 M4.5 20.15 L4.25 18.5 M5.1 23.35 Q6.1 23.75 11.0 23.3 L11.65 22.95 13.1 22.95 M13.1 22.6 L13.1 22.45 12.85 19.8 12.9 19.0 M4.5 21.15 L4.5 20.15" fill="none" stroke="#0c0c0c" stroke-linecap="round" stroke-linejoin="round" stroke-width="1.0"/>
    <path d="M12.3 7.4 L13.1 7.4 M11.65 8.75 L12.5 8.75 12.95 8.75 M12.3 7.4 L11.8 7.4 M12.45 10.1 L11.75 10.1 M12.45 10.1 L13.05 10.1" fill="none" stroke="#211313" stroke-linecap="round" stroke-linejoin="round" stroke-width="1.0"/>
    <path d="M12.4 3.0 Q12.95 2.3 10.05 1.0 7.15 -0.3 5.5 0.05 L4.0 0.45 M4.5 4.35 L4.6 4.25 Q5.6 3.3 6.95 3.3 M7.0 3.3 Q8.3 3.3 9.25 4.25 L9.9 5.05 11.25 4.45" fill="none" stroke="#0a0a0a" stroke-linecap="round" stroke-linejoin="round" stroke-width="1.0"/>
    <path d="M0.95 5.15 L0.9 5.2 0.6 5.45 0.4 6.15 0.4 6.7 0.6 7.4 0.75 7.6 0.95 7.7 1.0 7.7 M0.8 5.1 L0.95 5.15 M0.95 7.7 L0.85 7.7 M0.85 8.75 L0.9 8.7 1.1 8.65 M1.1 11.2 L0.9 11.2 0.75 11.1 0.6 10.9 0.4 10.2 0.4 9.65 0.6 9.0 0.85 8.75" fill="none" stroke="#760324" stroke-linecap="round" stroke-linejoin="round" stroke-width="1.0"/>
    <path d="M5.35 16.55 L5.85 16.55 M7.35 16.55 L12.25 16.55" fill="none" stroke="#170c0c" stroke-linecap="round" stroke-linejoin="round" stroke-width="1.0"/>
    <path d="M4.5 21.25 L4.3 22.25 4.3 22.85 5.1 23.35 M13.1 22.95 L13.1 22.6" fill="none" stroke="#000000" stroke-linecap="round" stroke-linejoin="round" stroke-width="1.0"/>
    <path d="M1.1 5.15 L1.55 5.15 2.0 5.45 2.2 6.7 2.0 7.4 1.55 7.7 1.0 7.7 M1.1 8.65 L1.45 8.65 Q1.7 8.65 1.9 8.95 L2.1 9.65 2.1 10.2 1.9 10.9 1.45 11.2 1.1 11.2" fill="none" stroke="#0e0808" stroke-linecap="round" stroke-linejoin="round" stroke-width="1.0"/>
    <path d="M4.25 18.5 L4.2 18.45 Q3.55 17.85 3.45 17.25 L3.45 17.15 3.4 16.6 3.4 16.55 3.35 16.35 3.95 15.4 4.2 15.1 7.2 15.1 Q10.75 14.6 12.0 12.85 L13.9 14.95 14.4 16.2 12.9 19.0 11.7 19.0 11.45 18.5 10.95 18.3 9.45 18.3 8.9 18.5 8.7 19.0 7.9 19.0 6.6 18.1 4.2 18.1 4.3 18.5 4.25 18.5 4.15 18.1 4.2 18.1" fill="none" stroke="#0e0808" stroke-linecap="round" stroke-linejoin="round" stroke-width="1.0"/>
  </g>
</svg>
