<?xml version="1.0" encoding="UTF-8" standalone="no"?>
<svg xmlns:ffdec="https://www.free-decompiler.com/flash" xmlns:xlink="http://www.w3.org/1999/xlink" ffdec:objectType="shape" height="30.1px" width="30.35px" xmlns="http://www.w3.org/2000/svg">
  <g transform="matrix(1.0, 0.0, 0.0, 1.0, 0.5, 5.3)">
    <path d="M20.65 8.9 L20.8 8.85 21.55 8.65 Q22.65 8.6 23.45 9.35 24.3 10.05 24.35 11.15 24.45 12.25 23.7 13.05 L22.7 13.8 23.85 15.95 24.1 16.4 26.1 16.65 24.7 18.5 19.3 17.1 19.8 16.0 Q20.85 16.45 22.05 16.35 L23.85 15.95 22.05 16.35 Q20.85 16.45 19.8 16.0 L18.2 15.05 17.7 14.5 12.3 14.75 11.35 13.45 10.15 11.75 10.2 11.65 10.55 10.3 10.75 9.55 16.75 9.15 20.35 8.9 20.4 9.0 20.65 8.9 M22.7 13.8 L21.9 13.95 Q20.8 14.0 19.95 13.3 19.15 12.6 19.05 11.5 19.0 10.4 19.7 9.55 L20.4 9.0 19.7 9.55 Q19.0 10.4 19.05 11.5 19.15 12.6 19.95 13.3 20.8 14.0 21.9 13.95 L22.7 13.8 M16.75 9.15 Q16.35 10.2 16.4 11.35 16.55 13.25 17.7 14.5 16.55 13.25 16.4 11.35 16.35 10.2 16.75 9.15" fill="#191919" fill-rule="evenodd" stroke="none"/>
    <path d="M26.1 16.65 L24.1 16.4 23.85 15.95 22.7 13.8 23.7 13.05 Q24.45 12.25 24.35 11.15 24.3 10.05 23.45 9.35 22.65 8.6 21.55 8.65 L20.8 8.85 20.65 8.9 20.35 8.9 19.15 5.7 18.9 5.1 24.85 4.85 Q27.95 6.0 29.3 8.4 29.55 12.75 27.85 16.85 L26.1 16.65" fill="url(#gradient0)" fill-rule="evenodd" stroke="none"/>
    <path d="M10.2 11.65 L10.15 11.75 11.35 13.45 2.1 13.05 0.0 11.4 10.2 11.65" fill="url(#gradient1)" fill-rule="evenodd" stroke="none"/>
    <path d="M19.15 5.7 L20.35 8.9 16.75 9.15 10.75 9.55 9.45 9.6 9.95 8.45 10.7 6.7 12.45 6.35 13.9 6.15 19.15 5.7 M17.15 7.45 L15.5 7.55 17.15 7.45 M13.5 7.65 L11.85 7.75 13.5 7.65" fill="url(#gradient2)" fill-rule="evenodd" stroke="none"/>
    <path d="M10.75 9.55 L10.55 10.3 3.85 9.3 2.15 7.45 9.95 8.45 9.45 9.6 10.75 9.55" fill="url(#gradient3)" fill-rule="evenodd" stroke="none"/>
    <path d="M14.85 17.0 L8.9 23.6 6.3 23.95 12.85 16.5 14.85 17.0" fill="url(#gradient4)" fill-rule="evenodd" stroke="none"/>
    <path d="M19.8 16.0 L19.3 17.1 19.05 17.55 18.8 17.55 17.05 17.4 14.9 17.0 14.85 17.0 12.85 16.5 11.55 16.05 12.3 14.75 17.7 14.5 18.2 15.05 19.8 16.0" fill="url(#gradient5)" fill-rule="evenodd" stroke="none"/>
    <path d="M17.05 17.4 L18.8 17.55 16.9 21.4 16.1 21.55 15.4 20.2 16.1 21.55 16.9 21.4 16.4 22.35 13.8 22.9 15.4 20.2 17.05 17.4" fill="url(#gradient6)" fill-rule="evenodd" stroke="none"/>
    <path d="M14.5 4.85 L14.6 4.7 Q15.5 3.35 16.35 3.05 L17.0 2.95 17.25 2.45 Q17.75 1.7 18.35 1.3 19.1 0.8 20.85 1.05 L21.75 1.3 Q22.45 1.65 22.75 2.7 L23.25 4.3 M16.9 21.4 L17.85 21.2 18.35 23.05 Q18.45 23.65 18.85 24.0 19.3 24.4 19.75 24.3 20.7 24.15 21.0 22.7 L21.15 20.25 21.0 17.8 M16.5 5.45 Q16.25 4.4 17.0 2.95 L18.5 3.3 19.85 4.05 20.25 4.55 M14.5 4.85 L13.9 6.15 M15.4 20.2 L16.1 21.55 16.9 21.4 M14.9 17.0 L15.15 19.3 15.4 20.2" fill="none" stroke="#181817" stroke-linecap="round" stroke-linejoin="round" stroke-width="1.0"/>
    <path d="M20.35 8.9 L20.65 8.9 20.4 9.0 19.7 9.55 Q19.0 10.4 19.05 11.5 19.15 12.6 19.95 13.3 20.8 14.0 21.9 13.95 L22.7 13.8 M20.35 8.9 L20.4 9.0 M23.85 15.95 L22.05 16.35 Q20.85 16.45 19.8 16.0 L18.2 15.05 17.7 14.5 Q16.55 13.25 16.4 11.35 16.35 10.2 16.75 9.15 M19.3 17.1 L24.7 18.5 26.1 16.65 M10.55 10.3 L10.2 11.65 10.15 11.75 11.35 13.45 12.3 14.75 M10.75 9.55 L10.55 10.3 3.85 9.3 2.15 7.45 9.95 8.45 M12.85 16.5 L6.3 23.95 8.9 23.6 14.85 17.0 12.85 16.5 M18.8 17.55 L19.05 17.55 19.3 17.1 M17.05 17.4 L15.4 20.2 13.8 22.9 16.4 22.35 16.9 21.4 18.8 17.55 M10.2 11.65 L0.0 11.4 2.1 13.05 11.35 13.45" fill="none" stroke="#0e0e0e" stroke-linecap="round" stroke-linejoin="round" stroke-width="1.0"/>
    <path d="M20.65 8.9 L20.8 8.85 21.55 8.65 Q22.65 8.6 23.45 9.35 24.3 10.05 24.35 11.15 24.45 12.25 23.7 13.05 L22.7 13.8 23.85 15.95 24.1 16.4 26.1 16.65 27.85 16.85 Q29.55 12.75 29.3 8.4 27.95 6.0 24.85 4.85 L18.9 5.1 19.15 5.7 20.35 8.9 16.75 9.15 10.75 9.55 9.45 9.6 9.95 8.45 10.7 6.7 12.45 6.35 13.9 6.15 19.15 5.7 M19.8 16.0 L19.3 17.1 M12.3 14.75 L17.7 14.5 M11.85 7.75 L13.5 7.65 M15.5 7.55 L17.15 7.45 M12.85 16.5 L11.55 16.05 12.3 14.75 M17.05 17.4 L18.8 17.55 M14.85 17.0 L14.9 17.0 17.05 17.4" fill="none" stroke="#151515" stroke-linecap="round" stroke-linejoin="round" stroke-width="1.0"/>
    <path d="M14.5 4.85 L14.95 5.45 M12.45 6.35 L8.9 2.6 M7.2 -4.8 L14.5 4.85" fill="none" stroke="#0e0e0e" stroke-linecap="round" stroke-linejoin="round" stroke-opacity="0.49803922" stroke-width="1.0"/>
  </g>
  <defs>
    <radialGradient cx="0" cy="0" gradientTransform="matrix(0.0141, 0.0, 0.0, 0.0141, 21.5, 7.7)" gradientUnits="userSpaceOnUse" id="gradient0" r="819.2" spreadMethod="pad">
      <stop offset="0.0" stop-color="#333333"/>
      <stop offset="1.0" stop-color="#1c1c1c"/>
    </radialGradient>
    <radialGradient cx="0" cy="0" gradientTransform="matrix(0.0024, 0.0, 0.0, 0.0086, 7.0, 12.4)" gradientUnits="userSpaceOnUse" id="gradient1" r="819.2" spreadMethod="pad">
      <stop offset="0.0" stop-color="#333333"/>
      <stop offset="1.0" stop-color="#191919"/>
    </radialGradient>
    <radialGradient cx="0" cy="0" gradientTransform="matrix(0.0086, 0.0, 0.0, 0.0086, 15.95, 6.9)" gradientUnits="userSpaceOnUse" id="gradient2" r="819.2" spreadMethod="pad">
      <stop offset="0.0" stop-color="#333333"/>
      <stop offset="1.0" stop-color="#1c1c1c"/>
    </radialGradient>
    <radialGradient cx="0" cy="0" gradientTransform="matrix(0.0024, 0.0, 0.0, 0.0059, 6.85, 8.6)" gradientUnits="userSpaceOnUse" id="gradient3" r="819.2" spreadMethod="pad">
      <stop offset="0.0" stop-color="#333333"/>
      <stop offset="1.0" stop-color="#191919"/>
    </radialGradient>
    <radialGradient cx="0" cy="0" gradientTransform="matrix(0.0017, -0.0017, 0.0069, 0.0067, 12.1, 18.5)" gradientUnits="userSpaceOnUse" id="gradient4" r="819.2" spreadMethod="pad">
      <stop offset="0.0" stop-color="#333333"/>
      <stop offset="1.0" stop-color="#191919"/>
    </radialGradient>
    <radialGradient cx="0" cy="0" gradientTransform="matrix(0.0051, 0.0, 0.0, 0.0051, 15.75, 16.15)" gradientUnits="userSpaceOnUse" id="gradient5" r="819.2" spreadMethod="pad">
      <stop offset="0.0" stop-color="#333333"/>
      <stop offset="1.0" stop-color="#1c1c1c"/>
    </radialGradient>
    <radialGradient cx="0" cy="0" gradientTransform="matrix(0.0011, -0.0021, 0.0045, 0.0023, 16.8, 20.0)" gradientUnits="userSpaceOnUse" id="gradient6" r="819.2" spreadMethod="pad">
      <stop offset="0.0" stop-color="#333333"/>
      <stop offset="1.0" stop-color="#191919"/>
    </radialGradient>
  </defs>
</svg>
