<?xml version="1.0" encoding="UTF-8" standalone="no"?>
<svg xmlns:ffdec="https://www.free-decompiler.com/flash" xmlns:xlink="http://www.w3.org/1999/xlink" ffdec:objectType="shape" height="30.1px" width="30.35px" xmlns="http://www.w3.org/2000/svg">
  <g transform="matrix(1.0, 0.0, 0.0, 1.0, 0.5, 5.0)">
    <path d="M20.65 9.2 L20.8 9.15 21.55 8.95 Q22.65 8.9 23.45 9.65 24.3 10.35 24.35 11.45 24.45 12.55 23.7 13.35 L22.7 14.1 23.85 16.25 24.1 16.7 26.1 16.95 24.7 18.8 19.3 17.4 19.8 16.3 Q20.85 16.75 22.05 16.65 L23.85 16.25 22.05 16.65 Q20.85 16.75 19.8 16.3 L18.2 15.35 17.7 14.8 12.3 15.05 11.35 13.75 10.15 12.05 10.2 11.95 10.55 10.6 10.75 9.85 16.75 9.45 20.35 9.2 20.4 9.3 20.65 9.2 M22.7 14.1 L21.9 14.25 Q20.8 14.3 19.95 13.6 19.15 12.9 19.05 11.8 19.0 10.7 19.7 9.85 L20.4 9.3 19.7 9.85 Q19.0 10.7 19.05 11.8 19.15 12.9 19.95 13.6 20.8 14.3 21.9 14.25 L22.7 14.1 M16.75 9.45 Q16.35 10.5 16.4 11.65 16.55 13.55 17.7 14.8 16.55 13.55 16.4 11.65 16.35 10.5 16.75 9.45" fill="#191919" fill-rule="evenodd" stroke="none"/>
    <path d="M26.1 16.95 L24.1 16.7 23.85 16.25 22.7 14.1 23.7 13.35 Q24.45 12.55 24.35 11.45 24.3 10.35 23.45 9.65 22.65 8.9 21.55 8.95 L20.8 9.15 20.65 9.2 20.35 9.2 19.15 6.0 18.9 5.4 24.85 5.15 Q27.95 6.3 29.3 8.7 29.55 13.05 27.85 17.15 L26.1 16.95" fill="url(#gradient0)" fill-rule="evenodd" stroke="none"/>
    <path d="M10.2 11.95 L10.15 12.05 11.35 13.75 2.1 13.35 0.0 11.7 10.2 11.95" fill="url(#gradient1)" fill-rule="evenodd" stroke="none"/>
    <path d="M19.15 6.0 L20.35 9.2 16.75 9.45 10.75 9.85 9.45 9.9 9.95 8.75 10.7 7.0 12.45 6.65 13.9 6.45 19.15 6.0 M13.5 7.95 L11.85 8.05 13.5 7.95 M17.15 7.75 L15.5 7.85 17.15 7.75" fill="url(#gradient2)" fill-rule="evenodd" stroke="none"/>
    <path d="M10.75 9.85 L10.55 10.6 3.85 9.6 2.15 7.75 9.95 8.75 9.45 9.9 10.75 9.85" fill="url(#gradient3)" fill-rule="evenodd" stroke="none"/>
    <path d="M14.85 17.3 L8.9 23.9 6.3 24.25 12.85 16.8 14.85 17.3" fill="url(#gradient4)" fill-rule="evenodd" stroke="none"/>
    <path d="M19.8 16.3 L19.3 17.4 19.05 17.85 18.8 17.85 17.05 17.7 14.9 17.3 14.85 17.3 12.85 16.8 11.55 16.35 12.3 15.05 17.7 14.8 18.2 15.35 19.8 16.3" fill="url(#gradient5)" fill-rule="evenodd" stroke="none"/>
    <path d="M17.05 17.7 L18.8 17.85 16.9 21.7 16.1 21.85 15.4 20.5 16.1 21.85 16.9 21.7 16.4 22.65 13.8 23.2 15.4 20.5 17.05 17.7" fill="url(#gradient6)" fill-rule="evenodd" stroke="none"/>
    <path d="M14.5 5.15 L14.6 5.0 Q15.5 3.65 16.35 3.35 L17.0 3.25 17.25 2.75 Q17.75 2.0 18.35 1.6 19.1 1.1 20.85 1.35 L21.75 1.6 Q22.45 1.95 22.75 3.0 L23.25 4.6 M16.9 21.7 L17.85 21.5 18.35 23.35 Q18.45 23.95 18.85 24.3 19.3 24.7 19.75 24.6 20.7 24.45 21.0 23.0 L21.15 20.55 21.0 18.1 M16.5 5.75 Q16.25 4.7 17.0 3.25 L18.5 3.6 19.85 4.35 20.25 4.85 M14.5 5.15 L13.9 6.45 M15.4 20.5 L16.1 21.85 16.9 21.7 M14.9 17.3 L15.15 19.6 15.4 20.5" fill="none" stroke="#181817" stroke-linecap="round" stroke-linejoin="round" stroke-width="1.0"/>
    <path d="M20.35 9.2 L20.65 9.2 20.4 9.3 19.7 9.85 Q19.0 10.7 19.05 11.8 19.15 12.9 19.95 13.6 20.8 14.3 21.9 14.25 L22.7 14.1 M20.35 9.2 L20.4 9.3 M23.85 16.25 L22.05 16.65 Q20.85 16.75 19.8 16.3 L18.2 15.35 17.7 14.8 Q16.55 13.55 16.4 11.65 16.35 10.5 16.75 9.45 M19.3 17.4 L24.7 18.8 26.1 16.95 M10.55 10.6 L10.2 11.95 10.15 12.05 11.35 13.75 12.3 15.05 M10.75 9.85 L10.55 10.6 3.85 9.6 2.15 7.75 9.95 8.75 M12.85 16.8 L6.3 24.25 8.9 23.9 14.85 17.3 12.85 16.8 M18.8 17.85 L19.05 17.85 19.3 17.4 M17.05 17.7 L15.4 20.5 13.8 23.2 16.4 22.65 16.9 21.7 18.8 17.85 M10.2 11.95 L0.0 11.7 2.1 13.35 11.35 13.75" fill="none" stroke="#0e0e0e" stroke-linecap="round" stroke-linejoin="round" stroke-width="1.0"/>
    <path d="M20.65 9.2 L20.8 9.15 21.55 8.95 Q22.65 8.9 23.45 9.65 24.3 10.35 24.35 11.45 24.45 12.55 23.7 13.35 L22.7 14.1 23.85 16.25 24.1 16.7 26.1 16.95 27.85 17.15 Q29.55 13.05 29.3 8.7 27.95 6.3 24.85 5.15 L18.9 5.4 19.15 6.0 20.35 9.2 16.75 9.45 10.75 9.85 9.45 9.9 9.95 8.75 10.7 7.0 12.45 6.65 13.9 6.45 19.15 6.0 M19.8 16.3 L19.3 17.4 M12.3 15.05 L17.7 14.8 M11.85 8.05 L13.5 7.95 M15.5 7.85 L17.15 7.75 M12.85 16.8 L11.55 16.35 12.3 15.05 M17.05 17.7 L18.8 17.85 M14.85 17.3 L14.9 17.3 17.05 17.7" fill="none" stroke="#151515" stroke-linecap="round" stroke-linejoin="round" stroke-width="1.0"/>
    <path d="M14.5 5.15 L14.95 5.75 M12.45 6.65 L8.9 2.9 M7.2 -4.5 L14.5 5.15" fill="none" stroke="#0e0e0e" stroke-linecap="round" stroke-linejoin="round" stroke-opacity="0.49803922" stroke-width="1.0"/>
  </g>
  <defs>
    <radialGradient cx="0" cy="0" gradientTransform="matrix(0.0141, 0.0, 0.0, 0.0141, 21.5, 8.0)" gradientUnits="userSpaceOnUse" id="gradient0" r="819.2" spreadMethod="pad">
      <stop offset="0.0" stop-color="#333333"/>
      <stop offset="1.0" stop-color="#1c1c1c"/>
    </radialGradient>
    <radialGradient cx="0" cy="0" gradientTransform="matrix(0.0024, 0.0, 0.0, 0.0086, 7.0, 12.7)" gradientUnits="userSpaceOnUse" id="gradient1" r="819.2" spreadMethod="pad">
      <stop offset="0.0" stop-color="#333333"/>
      <stop offset="1.0" stop-color="#191919"/>
    </radialGradient>
    <radialGradient cx="0" cy="0" gradientTransform="matrix(0.0086, 0.0, 0.0, 0.0086, 15.95, 7.2)" gradientUnits="userSpaceOnUse" id="gradient2" r="819.2" spreadMethod="pad">
      <stop offset="0.0" stop-color="#333333"/>
      <stop offset="1.0" stop-color="#1c1c1c"/>
    </radialGradient>
    <radialGradient cx="0" cy="0" gradientTransform="matrix(0.0024, 0.0, 0.0, 0.0059, 6.85, 8.9)" gradientUnits="userSpaceOnUse" id="gradient3" r="819.2" spreadMethod="pad">
      <stop offset="0.0" stop-color="#333333"/>
      <stop offset="1.0" stop-color="#191919"/>
    </radialGradient>
    <radialGradient cx="0" cy="0" gradientTransform="matrix(0.0017, -0.0017, 0.0069, 0.0067, 12.1, 18.8)" gradientUnits="userSpaceOnUse" id="gradient4" r="819.2" spreadMethod="pad">
      <stop offset="0.0" stop-color="#333333"/>
      <stop offset="1.0" stop-color="#191919"/>
    </radialGradient>
    <radialGradient cx="0" cy="0" gradientTransform="matrix(0.0051, 0.0, 0.0, 0.0051, 15.75, 16.45)" gradientUnits="userSpaceOnUse" id="gradient5" r="819.2" spreadMethod="pad">
      <stop offset="0.0" stop-color="#333333"/>
      <stop offset="1.0" stop-color="#1c1c1c"/>
    </radialGradient>
    <radialGradient cx="0" cy="0" gradientTransform="matrix(0.0011, -0.0021, 0.0045, 0.0023, 16.8, 20.3)" gradientUnits="userSpaceOnUse" id="gradient6" r="819.2" spreadMethod="pad">
      <stop offset="0.0" stop-color="#333333"/>
      <stop offset="1.0" stop-color="#191919"/>
    </radialGradient>
  </defs>
</svg>
