<?xml version="1.0" encoding="UTF-8" standalone="no"?>
<svg xmlns:ffdec="https://www.free-decompiler.com/flash" xmlns:xlink="http://www.w3.org/1999/xlink" ffdec:objectType="shape" height="33.0px" width="35.85px" xmlns="http://www.w3.org/2000/svg">
  <g transform="matrix(1.0, 0.0, 0.0, 1.0, 19.7, 33.8)">
    <path d="M-8.3 -27.6 Q-5.1 -30.85 -1.15 -30.55 2.3 -30.35 5.3 -27.55 8.2 -24.9 9.3 -21.3 10.45 -17.5 8.85 -14.65 L7.65 -12.65 Q6.7 -11.4 6.4 -10.5 6.1 -9.6 6.15 -8.35 L6.0 -6.15 Q5.35 -3.7 0.7 -3.4 -4.15 -3.15 -5.65 -6.5 L-5.75 -6.8 -7.55 -12.65 Q-9.0 -17.1 -10.15 -20.05 L-9.45 -24.4 Q-9.15 -26.75 -8.3 -27.6" fill="#393030" fill-rule="evenodd" stroke="none"/>
    <path d="M-8.3 -27.6 Q-5.1 -30.85 -1.15 -30.55 2.3 -30.35 5.3 -27.55 8.2 -24.9 9.3 -21.3 10.45 -17.5 8.85 -14.65 L7.65 -12.65 Q6.7 -11.4 6.4 -10.5 6.1 -9.6 6.15 -8.35 L6.0 -6.15 Q5.35 -3.7 0.7 -3.4 -4.15 -3.15 -5.65 -6.5 L-5.75 -6.8 -7.55 -12.65 Q-9.0 -17.1 -10.15 -20.05 L-9.45 -24.4 Q-9.15 -26.75 -8.3 -27.6 Z" fill="none" stroke="#312c2c" stroke-linecap="butt" stroke-linejoin="miter-clip" stroke-miterlimit="15.12109375" stroke-width="1.0"/>
    <path d="M-4.65 -24.85 Q-5.4 -25.15 -5.95 -25.65 -7.0 -26.6 -5.9 -27.45 L-1.0 -28.9 Q1.35 -29.25 4.3 -27.2 6.1 -25.5 6.5 -24.6 L8.05 -20.8 8.4 -19.45 8.45 -17.85 8.2 -17.1 Q8.2 -16.55 9.4 -16.05 L12.3 -14.6 12.55 -13.6 12.4 -12.45 11.8 -11.05 11.2 -10.1 10.1 -10.2 7.8 -10.9 Q6.3 -11.5 6.35 -11.85 6.7 -14.95 3.25 -16.7 2.7 -18.25 3.1 -19.75 3.05 -20.45 3.85 -21.6 L5.1 -23.15 Q5.6 -23.85 4.1 -25.3 2.5 -26.85 0.85 -27.05 -0.7 -27.25 -2.8 -26.05 L-4.65 -24.85" fill="url(#gradient0)" fill-rule="evenodd" stroke="none"/>
    <path d="M-4.65 -24.85 L-2.8 -26.05 Q-0.7 -27.25 0.85 -27.05 2.5 -26.85 4.1 -25.3 5.6 -23.85 5.1 -23.15 L3.85 -21.6 Q3.05 -20.45 3.1 -19.75 2.7 -18.25 3.25 -16.7 6.7 -14.95 6.35 -11.85 6.3 -11.5 7.8 -10.9 L10.1 -10.2 11.2 -10.1 11.8 -11.05 12.4 -12.45 12.55 -13.6 12.3 -14.6 9.4 -16.05 Q8.2 -16.55 8.2 -17.1 L8.45 -17.85 8.4 -19.45 8.05 -20.8 6.5 -24.6 Q6.1 -25.5 4.3 -27.2 1.35 -29.25 -1.0 -28.9 L-5.9 -27.45 Q-7.0 -26.6 -5.95 -25.65 -5.4 -25.15 -4.65 -24.85 Z" fill="none" stroke="#1c1515" stroke-linecap="butt" stroke-linejoin="miter-clip" stroke-miterlimit="15.12109375" stroke-width="1.0"/>
    <path d="M6.9 -25.6 L6.25 -25.85 6.45 -26.0 6.85 -25.7 6.9 -25.6 7.75 -25.3 9.35 -24.9 10.7 -23.85 12.15 -20.75 12.8 -18.45 Q12.95 -16.85 12.6 -16.8 12.5 -16.8 10.9 -17.55 L9.8 -18.0 Q9.05 -18.3 8.9 -17.85 9.05 -21.65 7.8 -23.9 L6.9 -25.6" fill="url(#gradient1)" fill-rule="evenodd" stroke="none"/>
    <path d="M6.9 -25.6 L6.25 -25.85 6.45 -26.0 6.85 -25.7 6.9 -25.6 7.75 -25.3 9.35 -24.9 10.7 -23.85 12.15 -20.75 12.8 -18.45 Q12.95 -16.85 12.6 -16.8 12.5 -16.8 10.9 -17.55 L9.8 -18.0 Q9.05 -18.3 8.9 -17.85 9.05 -21.65 7.8 -23.9 L6.9 -25.6" fill="none" stroke="#1c1515" stroke-linecap="round" stroke-linejoin="miter-clip" stroke-miterlimit="15.12109375" stroke-width="1.0"/>
    <path d="M2.9 -13.75 L4.15 -13.35 Q4.25 -12.2 5.45 -11.35 5.7 -10.9 7.8 -9.95 8.4 -9.8 8.6 -9.45 L8.75 -8.55 Q8.65 -7.6 8.05 -6.5 L7.3 -5.45 Q6.2 -5.55 3.75 -7.4 3.8 -9.2 3.25 -10.05 L2.15 -11.25 Q1.9 -12.45 2.15 -13.0 L2.9 -13.75" fill="url(#gradient2)" fill-rule="evenodd" stroke="none"/>
    <path d="M2.9 -13.75 L4.15 -13.35 Q4.25 -12.2 5.45 -11.35 5.7 -10.9 7.8 -9.95 8.4 -9.8 8.6 -9.45 L8.75 -8.55 Q8.65 -7.6 8.05 -6.5 L7.3 -5.45 Q6.2 -5.55 3.75 -7.4 3.8 -9.2 3.25 -10.05 L2.15 -11.25 Q1.9 -12.45 2.15 -13.0 L2.9 -13.75 Z" fill="none" stroke="#1c1515" stroke-linecap="butt" stroke-linejoin="miter-clip" stroke-miterlimit="15.12109375" stroke-width="1.0"/>
    <path d="M-8.85 -29.6 Q-7.0 -30.7 -4.7 -29.35 -4.6 -27.3 -5.55 -26.15 -7.1 -22.8 -9.4 -22.85 -11.65 -22.9 -10.9 -25.95 -10.65 -28.55 -8.85 -29.6" fill="#402b2b" fill-rule="evenodd" stroke="none"/>
    <path d="M-8.85 -29.6 Q-10.65 -28.55 -10.9 -25.95 -11.65 -22.9 -9.4 -22.85 -7.1 -22.8 -5.55 -26.15 -4.6 -27.3 -4.7 -29.35 -7.0 -30.7 -8.85 -29.6 Z" fill="none" stroke="#1c1515" stroke-linecap="butt" stroke-linejoin="miter-clip" stroke-miterlimit="15.12109375" stroke-width="1.0"/>
    <path d="M-3.4 -25.45 Q-5.55 -23.05 -6.6 -21.2 -7.3 -19.9 -7.1 -18.35 -6.9 -17.05 -6.2 -16.3 L-5.1 -15.15 -4.3 -15.1 Q-2.7 -9.35 -8.4 -9.4 -8.45 -14.55 -8.8 -15.0 L-12.65 -20.15 Q-13.9 -24.65 -12.3 -26.55 L-10.1 -28.55 -10.85 -26.25 Q-10.9 -25.3 -10.15 -24.25 -8.9 -23.65 -7.55 -24.25 -6.6 -24.7 -5.1 -26.75 -5.05 -26.1 -4.45 -25.85 L-3.4 -25.45" fill="url(#gradient3)" fill-rule="evenodd" stroke="none"/>
    <path d="M-3.4 -25.45 Q-5.55 -23.05 -6.6 -21.2 -7.3 -19.9 -7.1 -18.35 -6.9 -17.05 -6.2 -16.3 L-5.1 -15.15 -4.3 -15.1 Q-2.7 -9.35 -8.4 -9.4 -8.45 -14.55 -8.8 -15.0 L-12.65 -20.15 Q-13.9 -24.65 -12.3 -26.55 L-10.1 -28.55 -10.85 -26.25 Q-10.9 -25.3 -10.15 -24.25 -8.9 -23.65 -7.55 -24.25 -6.6 -24.7 -5.1 -26.75 -5.05 -26.1 -4.45 -25.85 L-3.4 -25.45 Z" fill="none" stroke="#1c1515" stroke-linecap="butt" stroke-linejoin="miter-clip" stroke-miterlimit="15.12109375" stroke-width="1.0"/>
    <path d="M11.65 -16.05 L9.35 -17.2" fill="none" stroke="#dcc64f" stroke-linecap="round" stroke-linejoin="round" stroke-width="1.0"/>
    <path d="M2.4 -26.6 L4.6 -26.1 7.55 -25.2 8.45 -22.75 8.75 -21.25 7.25 -21.3 6.1 -21.4 5.55 -22.1 Q5.05 -23.05 4.2 -23.45 2.85 -24.05 2.45 -24.35 L2.4 -26.6" fill="#402b2b" fill-rule="evenodd" stroke="none"/>
    <path d="M2.4 -26.6 L4.6 -26.1 7.55 -25.2 8.45 -22.75 8.75 -21.25 7.25 -21.3 6.1 -21.4 5.55 -22.1 Q5.05 -23.05 4.2 -23.45 2.85 -24.05 2.45 -24.35 L2.4 -26.6 Z" fill="none" stroke="#1c1515" stroke-linecap="butt" stroke-linejoin="miter-clip" stroke-miterlimit="15.12109375" stroke-width="1.0"/>
    <path d="M-10.2 -30.25 L-8.9 -29.3 Q-11.0 -27.3 -10.5 -25.3 L-9.95 -23.0 Q-10.45 -22.2 -11.35 -21.75 L-12.15 -21.45 Q-12.7 -21.45 -13.2 -21.8 -14.15 -22.45 -13.95 -24.1 -13.5 -26.9 -11.6 -29.15 -10.65 -30.15 -10.2 -30.25" fill="url(#gradient4)" fill-rule="evenodd" stroke="none"/>
    <path d="M-10.2 -30.25 L-8.9 -29.3 Q-11.0 -27.3 -10.5 -25.3 L-9.95 -23.0 Q-10.45 -22.2 -11.35 -21.75 L-12.15 -21.45 Q-12.7 -21.45 -13.2 -21.8 -14.15 -22.45 -13.95 -24.1 -13.5 -26.9 -11.6 -29.15 -10.65 -30.15 -10.2 -30.25 Z" fill="none" stroke="#1c1515" stroke-linecap="butt" stroke-linejoin="miter-clip" stroke-miterlimit="15.12109375" stroke-width="1.0"/>
    <path d="M-12.2 -22.0 L-11.5 -20.9 Q-10.55 -19.7 -9.2 -19.1 -7.0 -18.15 -4.5 -17.55 -4.25 -15.95 -4.4 -15.45 L-5.4 -14.6 -7.0 -13.3 Q-7.65 -12.6 -7.95 -11.6 L-8.1 -10.7 -8.25 -9.5 -9.9 -10.35 -10.1 -10.15 Q-10.2 -9.9 -10.35 -10.0 L-13.85 -12.6 Q-15.9 -14.5 -16.05 -16.35 -16.5 -17.75 -16.35 -18.4 L-16.0 -18.9 -15.65 -19.2 Q-15.65 -21.25 -15.1 -22.55 L-14.6 -23.4 -12.2 -22.0" fill="url(#gradient5)" fill-rule="evenodd" stroke="none"/>
    <path d="M-12.2 -22.0 L-11.5 -20.9 Q-10.55 -19.7 -9.2 -19.1 -7.0 -18.15 -4.5 -17.55 -4.25 -15.95 -4.4 -15.45 L-5.4 -14.6 -7.0 -13.3 Q-7.65 -12.6 -7.95 -11.6 L-8.1 -10.7 -8.25 -9.5 -9.9 -10.35 -10.1 -10.15 Q-10.2 -9.9 -10.35 -10.0 L-13.85 -12.6 Q-15.9 -14.5 -16.05 -16.35 -16.5 -17.75 -16.35 -18.4 L-16.0 -18.9 -15.65 -19.2 Q-15.65 -21.25 -15.1 -22.55 L-14.6 -23.4 -12.2 -22.0 Z" fill="none" stroke="#1c1515" stroke-linecap="butt" stroke-linejoin="miter-clip" stroke-miterlimit="15.12109375" stroke-width="1.0"/>
    <path d="M-6.55 -28.9 L-6.35 -28.15 -7.25 -27.8" fill="none" stroke="#efc23c" stroke-linecap="round" stroke-linejoin="round" stroke-width="1.0"/>
    <path d="M-7.1 -28.7 L-8.35 -28.1 -8.15 -27.05" fill="none" stroke="#281212" stroke-linecap="round" stroke-linejoin="round" stroke-width="1.0"/>
    <path d="M-6.35 -26.85 L-6.15 -26.05 -7.05 -25.75" fill="none" stroke="#efc23c" stroke-linecap="round" stroke-linejoin="round" stroke-width="1.0"/>
    <path d="M-6.9 -26.65 L-8.15 -26.05 -7.9 -25.0" fill="none" stroke="#281212" stroke-linecap="round" stroke-linejoin="round" stroke-width="1.0"/>
  </g>
  <defs>
    <radialGradient cx="0" cy="0" gradientTransform="matrix(0.0121, 4.0E-4, -7.0E-4, 0.0117, 2.55, -19.75)" gradientUnits="userSpaceOnUse" id="gradient0" r="819.2" spreadMethod="pad">
      <stop offset="0.0" stop-color="#241818"/>
      <stop offset="1.0" stop-color="#4d3434"/>
    </radialGradient>
    <radialGradient cx="0" cy="0" gradientTransform="matrix(0.0026, -3.0E-4, 0.0026, 0.0241, 8.55, -22.05)" gradientUnits="userSpaceOnUse" id="gradient1" r="819.2" spreadMethod="pad">
      <stop offset="0.0" stop-color="#241818"/>
      <stop offset="1.0" stop-color="#4d3434"/>
    </radialGradient>
    <radialGradient cx="0" cy="0" gradientTransform="matrix(0.0067, 0.0, 0.0, 0.0067, 5.4, -9.6)" gradientUnits="userSpaceOnUse" id="gradient2" r="819.2" spreadMethod="pad">
      <stop offset="0.0" stop-color="#241818"/>
      <stop offset="1.0" stop-color="#4d3434"/>
    </radialGradient>
    <radialGradient cx="0" cy="0" gradientTransform="matrix(0.0037, -7.0E-4, 0.0042, 0.025, -8.55, -18.75)" gradientUnits="userSpaceOnUse" id="gradient3" r="819.2" spreadMethod="pad">
      <stop offset="0.0" stop-color="#222222"/>
      <stop offset="1.0" stop-color="#444242"/>
    </radialGradient>
    <radialGradient cx="0" cy="0" gradientTransform="matrix(0.0018, -1.0E-4, 3.0E-4, 0.0205, -12.95, -26.3)" gradientUnits="userSpaceOnUse" id="gradient4" r="819.2" spreadMethod="pad">
      <stop offset="0.0" stop-color="#241818"/>
      <stop offset="1.0" stop-color="#4d3434"/>
    </radialGradient>
    <radialGradient cx="0" cy="0" gradientTransform="matrix(0.0046, -5.0E-4, 0.0022, 0.0294, -11.35, -16.2)" gradientUnits="userSpaceOnUse" id="gradient5" r="819.2" spreadMethod="pad">
      <stop offset="0.0" stop-color="#2f1f1f"/>
      <stop offset="1.0" stop-color="#4d3434"/>
    </radialGradient>
  </defs>
</svg>
