<?xml version="1.0" encoding="UTF-8" standalone="no"?>
<svg xmlns:ffdec="https://www.free-decompiler.com/flash" xmlns:xlink="http://www.w3.org/1999/xlink" ffdec:objectType="shape" height="35.95px" width="33.9px" xmlns="http://www.w3.org/2000/svg">
  <g transform="matrix(1.0, 0.0, 0.0, 1.0, 23.05, 40.1)">
    <path d="M7.8 -16.65 L7.0 -14.7 -2.75 -13.9 -4.55 -16.7 -6.3 -17.25 -7.05 -21.9 -5.9 -22.7 -4.6 -27.55 3.45 -25.4 4.45 -26.95 7.35 -25.65 8.0 -24.85 8.5 -23.65 8.6 -21.4 8.45 -19.65 7.8 -16.65" fill="#1f221f" fill-rule="evenodd" stroke="none"/>
    <path d="M-5.7 -8.7 L-3.45 -9.05 -3.15 -9.95 6.35 -7.8 3.55 -4.65 -2.6 -5.05 -4.6 -6.25 -5.7 -8.7" fill="#151715" fill-rule="evenodd" stroke="none"/>
    <path d="M-1.75 -14.15 L9.1 -14.8 9.2 -13.9 9.2 -12.2 8.0 -7.55 6.8 -5.95 -2.9 -10.05 -2.05 -14.2 -1.75 -14.15" fill="#1f1f1f" fill-rule="evenodd" stroke="none"/>
    <path d="M-15.0 -28.65 L-13.1 -31.15 -10.4 -31.85 -6.55 -29.95 -6.6 -28.3 -4.65 -27.5 -5.9 -22.65 -7.35 -21.75 -6.4 -17.45 -4.35 -16.85 -1.8 -12.8 -3.15 -8.95 -6.9 -8.75 -7.35 -11.8 -9.95 -13.7 -11.75 -15.35 -9.75 -16.95 -10.35 -19.55 -13.65 -19.55 -13.5 -24.45 -13.7 -25.7 -14.1 -26.4 -15.0 -28.65" fill="#394039" fill-rule="evenodd" stroke="none"/>
    <path d="M-4.7 -27.15 L-5.7 -22.8" fill="none" stroke="#232722" stroke-linecap="round" stroke-linejoin="round" stroke-width="1.0"/>
    <path d="M-10.25 -19.4 L-9.65 -16.9 -11.25 -15.9 -12.5 -19.5 -10.25 -19.4" fill="#151715" fill-rule="evenodd" stroke="none"/>
    <path d="M4.5 -26.65 L3.6 -25.5 -4.4 -27.45 Q-4.65 -28.7 -4.4 -29.25 L-3.75 -30.1 -3.25 -30.5 4.15 -28.15 4.5 -26.65" fill="#242824" fill-rule="evenodd" stroke="none"/>
    <path d="M4.5 -26.65 L4.15 -28.15 -3.25 -30.5 -3.75 -30.1 -4.4 -29.25 Q-4.65 -28.7 -4.4 -27.45 L3.6 -25.5 4.5 -26.65 Z" fill="none" stroke="#0e0f0e" stroke-linecap="round" stroke-linejoin="round" stroke-width="1.0"/>
    <path d="M-3.2 -27.0 L-6.6 -28.25 -6.55 -29.8 -10.45 -31.95" fill="none" stroke="#0e0f0e" stroke-linecap="round" stroke-linejoin="round" stroke-width="1.0"/>
    <path d="M4.3 -26.55 Q6.6 -26.6 7.85 -25.0 9.05 -23.0 8.6 -19.75 8.3 -17.45 7.3 -15.1" fill="none" stroke="#0e0f0e" stroke-linecap="round" stroke-linejoin="round" stroke-width="1.0"/>
    <path d="M-2.0 -14.3 L8.75 -14.75" fill="none" stroke="#000000" stroke-linecap="round" stroke-linejoin="round" stroke-width="1.0"/>
    <path d="M-10.1 -12.85 L-11.0 -13.0" fill="none" stroke="#230b0b" stroke-linecap="round" stroke-linejoin="round" stroke-width="1.0"/>
    <path d="M-9.5 -11.25 L-10.05 -10.55" fill="none" stroke="#230b0b" stroke-linecap="round" stroke-linejoin="round" stroke-width="1.0"/>
    <path d="M-7.85 -10.5 L-7.85 -9.5" fill="none" stroke="#230b0b" stroke-linecap="round" stroke-linejoin="round" stroke-width="1.0"/>
    <path d="M8.85 -14.75 L9.35 -13.7 8.1 -7.45 6.7 -6.05" fill="none" stroke="#000000" stroke-linecap="round" stroke-linejoin="round" stroke-width="1.0"/>
    <path d="M-12.55 -19.35 L-11.2 -15.95" fill="none" stroke="#000000" stroke-linecap="round" stroke-linejoin="round" stroke-width="1.0"/>
    <path d="M-2.7 -9.7 L6.6 -5.95" fill="none" stroke="#000000" stroke-linecap="round" stroke-linejoin="round" stroke-width="1.0"/>
    <path d="M3.35 -23.15 L5.4 -25.0 8.9 -23.9 9.95 -21.85 9.05 -16.25 5.8 -16.85 5.55 -18.1 3.1 -19.45 3.35 -23.15" fill="url(#gradient0)" fill-rule="evenodd" stroke="none"/>
    <path d="M3.35 -23.15 L3.1 -19.45 5.55 -18.1 5.8 -16.85 9.05 -16.25 9.95 -21.85 8.9 -23.9 5.4 -25.0 3.35 -23.15 Z" fill="none" stroke="#272b26" stroke-linecap="round" stroke-linejoin="round" stroke-width="1.0"/>
    <path d="M5.85 -7.2 L3.5 -4.65 -2.35 -4.95 -4.5 -6.2 -5.8 -8.85" fill="none" stroke="#000000" stroke-linecap="round" stroke-linejoin="round" stroke-width="1.0"/>
    <path d="M-10.55 -31.95 L-12.9 -31.2 -14.9 -28.3 Q-12.9 -24.25 -13.6 -19.5 L-10.45 -19.5" fill="none" stroke="#232722" stroke-linecap="round" stroke-linejoin="round" stroke-width="1.0"/>
    <path d="M-10.3 -19.25 L-9.7 -16.9 -11.75 -15.45 -7.5 -11.8 -6.75 -8.9 -3.2 -9.0 -2.3 -13.15 -4.4 -16.75" fill="none" stroke="#111211" stroke-linecap="round" stroke-linejoin="round" stroke-width="1.0"/>
    <path d="M-4.45 -16.75 L-6.45 -17.4 -7.25 -21.7 -5.65 -22.75" fill="none" stroke="#1a1e19" stroke-linecap="round" stroke-linejoin="round" stroke-width="1.0"/>
    <path d="M-14.05 -28.95 L-12.15 -27.55 Q-11.25 -28.8 -9.8 -29.55 L-10.75 -31.55" fill="none" stroke="#0e0f0e" stroke-linecap="round" stroke-linejoin="round" stroke-width="1.0"/>
    <path d="M-8.35 -14.9 Q-7.5 -15.0 -6.65 -14.25 -5.75 -13.5 -5.7 -12.6 -5.65 -11.85 -6.25 -11.1 -6.9 -10.35 -7.6 -10.3 -8.35 -10.2 -9.1 -10.85 -9.85 -11.45 -10.0 -12.2 -10.1 -13.0 -9.6 -13.9 -9.1 -14.8 -8.35 -14.9" fill="#292e28" fill-rule="evenodd" stroke="none"/>
    <path d="M-8.35 -14.9 Q-9.1 -14.8 -9.6 -13.9 -10.1 -13.0 -10.0 -12.2 -9.85 -11.45 -9.1 -10.85 -8.35 -10.2 -7.6 -10.3 -6.9 -10.35 -6.25 -11.1 -5.65 -11.85 -5.7 -12.6 -5.75 -13.5 -6.65 -14.25 -7.5 -15.0 -8.35 -14.9 Z" fill="none" stroke="#000000" stroke-linecap="round" stroke-linejoin="round" stroke-width="1.0"/>
    <path d="M-2.55 -20.75 L3.95 -22.65 3.65 -20.3 1.7 -19.75 1.95 -17.7 -1.4 -16.85 -2.5 -18.65 -2.55 -20.75" fill="#1f1f1f" fill-rule="evenodd" stroke="none"/>
    <path d="M-2.05 -14.2 L-2.8 -9.85" fill="none" stroke="#000000" stroke-linecap="round" stroke-linejoin="round" stroke-width="1.0"/>
    <path d="M-2.55 -18.7 L-2.8 -20.85 3.9 -22.65 3.6 -20.25 1.75 -19.55" fill="none" stroke="#101010" stroke-linecap="round" stroke-linejoin="round" stroke-width="1.0"/>
    <path d="M5.75 -12.1 L-1.95 -13.95" fill="none" stroke="#171717" stroke-linecap="round" stroke-linejoin="round" stroke-width="1.0"/>
    <path d="M4.75 -9.45 L-2.65 -10.5" fill="none" stroke="#171717" stroke-linecap="round" stroke-linejoin="round" stroke-width="1.0"/>
    <path d="M-1.05 -11.2 L0.05 -11.4 1.8 -11.0 2.7 -10.4 2.1 -7.05 -1.6 -7.85 -1.05 -11.2" fill="#1d1d1d" fill-rule="evenodd" stroke="none"/>
    <path d="M-1.05 -11.2 L-1.6 -7.85 2.1 -7.05 2.7 -10.4 1.8 -11.0 0.05 -11.4 -1.05 -11.2 Z" fill="none" stroke="#0a0a0a" stroke-linecap="round" stroke-linejoin="round" stroke-width="1.0"/>
    <path d="M-0.95 -10.8 L0.7 -9.05 2.4 -10.2" fill="none" stroke="#000000" stroke-linecap="round" stroke-linejoin="round" stroke-width="1.0"/>
    <path d="M-2.4 -18.55 L-1.25 -17.0 1.8 -17.8 1.7 -19.45" fill="none" stroke="#141414" stroke-linecap="round" stroke-linejoin="round" stroke-width="1.0"/>
    <path d="M5.45 -12.9 L10.05 -13.45 Q10.7 -11.85 9.85 -10.6 L5.6 -11.35 5.45 -12.9" fill="#1f1f1f" fill-rule="evenodd" stroke="none"/>
    <path d="M5.45 -12.9 L5.6 -11.35 9.85 -10.6 Q10.7 -11.85 10.05 -13.45 L5.45 -12.9 Z" fill="none" stroke="#0b0b0b" stroke-linecap="round" stroke-linejoin="round" stroke-width="1.0"/>
    <path d="M4.95 -9.95 L9.45 -8.9 Q9.55 -6.95 8.45 -6.2 L4.55 -8.45 4.95 -9.95" fill="#1f1f1f" fill-rule="evenodd" stroke="none"/>
    <path d="M4.95 -9.95 L4.55 -8.45 8.45 -6.2 Q9.55 -6.95 9.45 -8.9 L4.95 -9.95 Z" fill="none" stroke="#0b0b0b" stroke-linecap="round" stroke-linejoin="round" stroke-width="1.0"/>
    <path d="M-12.25 -28.25 L-13.6 -29.25 -12.6 -30.7 -11.2 -31.2 -11.05 -31.0 -10.55 -29.9 -10.5 -29.75 -10.7 -29.6 -11.95 -28.55 -12.25 -28.25" fill="#151715" fill-rule="evenodd" stroke="none"/>
    <path d="M-12.25 -28.25 L-13.6 -29.25 -12.6 -30.7 -11.2 -31.2 -11.05 -31.0 -10.55 -29.9 -10.5 -29.75 -10.7 -29.6 -11.95 -28.55 -12.25 -28.25 Z" ffdec:has-small-stroke="true" ffdec:original-stroke-width="0.05" fill="none" stroke="#151715" stroke-linecap="round" stroke-linejoin="round" stroke-width="1.0"/>
    <path d="M-12.05 -20.0 L-13.0 -20.0 -13.0 -20.15 -12.9 -22.05 -12.95 -23.4 -13.4 -25.8 -13.45 -26.15 -12.8 -26.1 -12.15 -25.95 -11.1 -24.7 -12.05 -22.55 -12.05 -20.0" fill="#313731" fill-rule="evenodd" stroke="none"/>
    <path d="M-12.05 -20.0 L-13.0 -20.0 -13.0 -20.15 -12.9 -22.05 -12.95 -23.4 -13.4 -25.8 -13.45 -26.15 -12.8 -26.1 -12.15 -25.95 -11.1 -24.7 -12.05 -22.55 -12.05 -20.0 Z" ffdec:has-small-stroke="true" ffdec:original-stroke-width="0.05" fill="none" stroke="#313731" stroke-linecap="round" stroke-linejoin="round" stroke-width="1.0"/>
    <path d="M-6.35 -26.65 L-6.45 -26.2" ffdec:has-small-stroke="true" ffdec:original-stroke-width="0.95" fill="none" stroke="#2b2f2b" stroke-linecap="round" stroke-linejoin="round" stroke-width="1.0"/>
    <path d="M-6.75 -25.1 L-6.85 -24.65" ffdec:has-small-stroke="true" ffdec:original-stroke-width="0.95" fill="none" stroke="#323732" stroke-linecap="round" stroke-linejoin="round" stroke-width="1.0"/>
    <path d="M-7.15 -23.45 L-7.25 -23.0" ffdec:has-small-stroke="true" ffdec:original-stroke-width="0.95" fill="none" stroke="#232623" stroke-linecap="round" stroke-linejoin="round" stroke-width="1.0"/>
    <path d="M-7.45 -18.25 L-7.85 -18.35 -8.0 -19.15 -8.1 -19.95 -7.55 -20.55 -7.1 -18.1 -7.45 -18.25" fill="#313731" fill-rule="evenodd" stroke="none"/>
    <path d="M-7.45 -18.25 L-7.85 -18.35 -8.0 -19.15 -8.1 -19.95 -7.55 -20.55 -7.1 -18.1 -7.45 -18.25 Z" ffdec:has-small-stroke="true" ffdec:original-stroke-width="0.05" fill="none" stroke="#313731" stroke-linecap="round" stroke-linejoin="round" stroke-width="1.0"/>
    <path d="M-1.45 -19.9 L-0.65 -20.15" ffdec:has-small-stroke="true" ffdec:original-stroke-width="0.95" fill="none" stroke="#101010" stroke-linecap="round" stroke-linejoin="round" stroke-width="1.0"/>
    <path d="M0.3 -17.15 L0.85 -17.3" ffdec:has-small-stroke="true" ffdec:original-stroke-width="0.95" fill="none" stroke="#611f1f" stroke-linecap="round" stroke-linejoin="round" stroke-width="1.0"/>
    <path d="M-8.35 -13.05 L-7.3 -12.2" ffdec:has-small-stroke="true" ffdec:original-stroke-width="0.95" fill="none" stroke="#232722" stroke-linecap="round" stroke-linejoin="round" stroke-width="1.0"/>
    <path d="M-7.45 -13.2 L-8.2 -11.95" ffdec:has-small-stroke="true" ffdec:original-stroke-width="0.95" fill="none" stroke="#232722" stroke-linecap="round" stroke-linejoin="round" stroke-width="1.0"/>
    <path d="M4.3 -23.65 L7.5 -21.7 7.75 -19.05 9.2 -18.4" ffdec:has-small-stroke="true" ffdec:original-stroke-width="0.95" fill="none" stroke="#232623" stroke-linecap="round" stroke-linejoin="round" stroke-opacity="0.3882353" stroke-width="1.0"/>
    <path d="M-9.85 -16.95 L-8.85 -15.9 -5.8 -15.6 -3.1 -11.4" ffdec:has-small-stroke="true" ffdec:original-stroke-width="0.95" fill="none" stroke="#232623" stroke-linecap="round" stroke-linejoin="round" stroke-opacity="0.3882353" stroke-width="1.0"/>
    <path d="M-14.3 -30.15 L-22.6 -39.65" ffdec:has-small-stroke="true" ffdec:original-stroke-width="0.95" fill="none" stroke="#000000" stroke-linecap="round" stroke-linejoin="round" stroke-opacity="0.5019608" stroke-width="1.0"/>
    <path d="M-11.15 -32.0 L-15.55 -37.5" ffdec:has-small-stroke="true" ffdec:original-stroke-width="0.95" fill="none" stroke="#000000" stroke-linecap="round" stroke-linejoin="round" stroke-opacity="0.5019608" stroke-width="1.0"/>
  </g>
  <defs>
    <linearGradient gradientTransform="matrix(0.0049, 0.0, 0.0, 0.0049, 6.6, -20.65)" gradientUnits="userSpaceOnUse" id="gradient0" spreadMethod="pad" x1="-819.2" x2="819.2">
      <stop offset="0.0" stop-color="#515a4f"/>
      <stop offset="1.0" stop-color="#5c645b"/>
    </linearGradient>
  </defs>
</svg>
