<?xml version="1.0" encoding="UTF-8" standalone="no"?>
<svg xmlns:xlink="http://www.w3.org/1999/xlink" height="4.6px" width="4.6px" xmlns="http://www.w3.org/2000/svg">
  <g transform="matrix(1.0, 0.0, 0.0, 1.0, 3.8, 3.0)">
    <path d="M0.3 -0.7 Q0.3 0.05 -0.2 0.6 -0.75 1.1 -1.5 1.1 -2.25 1.1 -2.75 0.6 -3.3 0.05 -3.3 -0.7 -3.3 -1.45 -2.75 -1.95 -2.25 -2.5 -1.5 -2.5 -0.75 -2.5 -0.2 -1.95 0.3 -1.45 0.3 -0.7" fill="#7f8185" fill-rule="evenodd" stroke="none"/>
    <path d="M0.3 -0.7 Q0.3 0.05 -0.2 0.6 -0.75 1.1 -1.5 1.1 -2.25 1.1 -2.75 0.6 -3.3 0.05 -3.3 -0.7 -3.3 -1.45 -2.75 -1.95 -2.25 -2.5 -1.5 -2.5 -0.75 -2.5 -0.2 -1.95 0.3 -1.45 0.3 -0.7 Z" fill="none" stroke="#3d3d3d" stroke-linecap="round" stroke-linejoin="round" stroke-width="1.0"/>
  </g>
</svg>
