<?xml version="1.0" encoding="UTF-8" standalone="no"?>
<svg xmlns:xlink="http://www.w3.org/1999/xlink" height="19.55px" width="28.5px" xmlns="http://www.w3.org/2000/svg">
  <g transform="matrix(1.0, 0.0, 0.0, 1.0, 7.35, 5.1)">
    <path d="M14.3 8.75 L14.3 5.1 7.85 5.1 7.85 10.95 14.3 8.75 M5.85 -4.6 L16.8 -4.0 16.75 2.25 18.55 2.25 20.65 8.35 17.85 11.7 14.85 11.25 5.35 13.95 5.35 7.1 3.95 5.25 0.15 5.25 -2.2 13.2 -4.7 12.5 Q-7.15 11.55 -6.8 10.4 L-5.0 6.8 -3.65 4.5 -3.85 2.25 5.8 2.25 5.85 -4.6" fill="#b6a9a2" fill-rule="evenodd" stroke="none"/>
    <path d="M5.85 -4.6 L5.8 2.25 -3.85 2.25 -3.65 4.5 -5.0 6.8 -6.8 10.4 Q-7.15 11.55 -4.7 12.5 L-2.2 13.2 0.15 5.25 3.95 5.25 5.35 7.1 5.35 13.95 14.85 11.25 17.85 11.7 20.65 8.35 18.55 2.25 16.75 2.25 16.8 -4.0 5.85 -4.6 M14.3 8.75 L7.85 10.95 7.85 5.1 14.3 5.1 14.3 8.75 Z" fill="none" stroke="#4f4c4a" stroke-linecap="round" stroke-linejoin="round" stroke-width="1.0"/>
  </g>
</svg>
