<?xml version="1.0" encoding="UTF-8" standalone="no"?>
<svg xmlns:ffdec="https://www.free-decompiler.com/flash" xmlns:xlink="http://www.w3.org/1999/xlink" ffdec:objectType="shape" height="30.1px" width="30.35px" xmlns="http://www.w3.org/2000/svg">
  <g transform="matrix(1.0, 0.0, 0.0, 1.0, 0.5, 2.75)">
    <path d="M20.65 11.45 L20.8 11.4 21.55 11.2 Q22.65 11.15 23.45 11.9 24.3 12.6 24.35 13.7 24.45 14.8 23.7 15.6 L22.7 16.35 23.85 18.5 24.1 18.95 26.1 19.2 24.7 21.05 19.3 19.65 19.8 18.55 Q20.85 19.0 22.05 18.9 L23.85 18.5 22.05 18.9 Q20.85 19.0 19.8 18.55 L18.2 17.6 17.7 17.05 12.3 17.3 11.35 16.0 10.15 14.3 10.2 14.2 10.55 12.85 10.75 12.1 16.75 11.7 20.35 11.45 20.4 11.55 20.65 11.45 M22.7 16.35 L21.9 16.5 Q20.8 16.55 19.95 15.85 19.15 15.15 19.05 14.05 19.0 12.95 19.7 12.1 L20.4 11.55 19.7 12.1 Q19.0 12.95 19.05 14.05 19.15 15.15 19.95 15.85 20.8 16.55 21.9 16.5 L22.7 16.35 M16.75 11.7 Q16.35 12.75 16.4 13.9 16.55 15.8 17.7 17.05 16.55 15.8 16.4 13.9 16.35 12.75 16.75 11.7" fill="#191919" fill-rule="evenodd" stroke="none"/>
    <path d="M26.1 19.2 L24.1 18.95 23.85 18.5 22.7 16.35 23.7 15.6 Q24.45 14.8 24.35 13.7 24.3 12.6 23.45 11.9 22.65 11.15 21.55 11.2 L20.8 11.4 20.65 11.45 20.35 11.45 19.15 8.25 18.9 7.65 24.85 7.4 Q27.95 8.55 29.3 10.95 29.55 15.3 27.85 19.4 L26.1 19.2" fill="url(#gradient0)" fill-rule="evenodd" stroke="none"/>
    <path d="M19.15 8.25 L20.35 11.45 16.75 11.7 10.75 12.1 9.45 12.15 9.95 11.0 10.7 9.25 12.45 8.9 13.9 8.7 19.15 8.25 M13.5 10.2 L11.85 10.3 13.5 10.2 M17.15 10.0 L15.5 10.1 17.15 10.0" fill="url(#gradient1)" fill-rule="evenodd" stroke="none"/>
    <path d="M9.95 11.0 L9.45 12.15 10.75 12.1 10.55 12.85 3.85 11.85 2.15 10.0 9.95 11.0" fill="url(#gradient2)" fill-rule="evenodd" stroke="none"/>
    <path d="M11.35 16.0 L2.1 15.6 0.0 13.95 10.2 14.2 10.15 14.3 11.35 16.0" fill="url(#gradient3)" fill-rule="evenodd" stroke="none"/>
    <path d="M19.8 18.55 L19.3 19.65 19.05 20.1 18.8 20.1 17.05 19.95 14.9 19.55 14.85 19.55 12.85 19.05 11.55 18.6 12.3 17.3 17.7 17.05 18.2 17.6 19.8 18.55" fill="url(#gradient4)" fill-rule="evenodd" stroke="none"/>
    <path d="M12.85 19.05 L14.85 19.55 8.9 26.15 6.3 26.5 12.85 19.05" fill="url(#gradient5)" fill-rule="evenodd" stroke="none"/>
    <path d="M17.05 19.95 L18.8 20.1 16.9 23.95 16.4 24.9 13.8 25.45 15.4 22.75 17.05 19.95 M16.9 23.95 L16.1 24.1 15.4 22.75 16.1 24.1 16.9 23.95" fill="url(#gradient6)" fill-rule="evenodd" stroke="none"/>
    <path d="M14.5 7.4 L14.6 7.25 Q15.5 5.9 16.35 5.6 L17.0 5.5 17.25 5.0 Q17.75 4.25 18.35 3.85 19.1 3.35 20.85 3.6 L21.75 3.85 Q22.45 4.2 22.75 5.25 L23.25 6.85 M16.9 23.95 L17.85 23.75 18.35 25.6 Q18.45 26.2 18.85 26.55 19.3 26.95 19.75 26.85 20.7 26.7 21.0 25.25 L21.15 22.8 21.0 20.35 M20.25 7.1 L19.85 6.6 18.5 5.85 17.0 5.5 Q16.25 6.95 16.5 8.0 M14.5 7.4 L13.9 8.7 M14.9 19.55 L15.15 21.85 15.4 22.75 16.1 24.1 16.9 23.95" fill="none" stroke="#181817" stroke-linecap="round" stroke-linejoin="round" stroke-width="1.0"/>
    <path d="M20.65 11.45 L20.8 11.4 21.55 11.2 Q22.65 11.15 23.45 11.9 24.3 12.6 24.35 13.7 24.45 14.8 23.7 15.6 L22.7 16.35 23.85 18.5 24.1 18.95 26.1 19.2 27.85 19.4 Q29.55 15.3 29.3 10.95 27.95 8.55 24.85 7.4 L18.9 7.65 19.15 8.25 20.35 11.45 16.75 11.7 10.75 12.1 9.45 12.15 9.95 11.0 10.7 9.25 12.45 8.9 13.9 8.7 19.15 8.25 M19.8 18.55 L19.3 19.65 M11.85 10.3 L13.5 10.2 M15.5 10.1 L17.15 10.0 M17.7 17.05 L12.3 17.3 11.55 18.6 12.85 19.05 M14.85 19.55 L14.9 19.55 17.05 19.95 18.8 20.1" fill="none" stroke="#151515" stroke-linecap="round" stroke-linejoin="round" stroke-width="1.0"/>
    <path d="M20.35 11.45 L20.65 11.45 20.4 11.55 19.7 12.1 Q19.0 12.95 19.05 14.05 19.15 15.15 19.95 15.85 20.8 16.55 21.9 16.5 L22.7 16.35 M20.35 11.45 L20.4 11.55 M23.85 18.5 L22.05 18.9 Q20.85 19.0 19.8 18.55 L18.2 17.6 17.7 17.05 Q16.55 15.8 16.4 13.9 16.35 12.75 16.75 11.7 M19.3 19.65 L24.7 21.05 26.1 19.2 M9.95 11.0 L2.15 10.0 3.85 11.85 10.55 12.85 10.75 12.1 M10.2 14.2 L0.0 13.95 2.1 15.6 11.35 16.0 10.15 14.3 10.2 14.2 10.55 12.85 M12.85 19.05 L14.85 19.55 8.9 26.15 6.3 26.5 12.85 19.05 M18.8 20.1 L19.05 20.1 19.3 19.65 M11.35 16.0 L12.3 17.3 M15.4 22.75 L17.05 19.95 M16.9 23.95 L18.8 20.1 M15.4 22.75 L13.8 25.45 16.4 24.9 16.9 23.95" fill="none" stroke="#0e0e0e" stroke-linecap="round" stroke-linejoin="round" stroke-width="1.0"/>
    <path d="M14.5 7.4 L14.95 8.0 M8.9 5.15 L12.45 8.9 M7.2 -2.25 L14.5 7.4" fill="none" stroke="#0e0e0e" stroke-linecap="round" stroke-linejoin="round" stroke-opacity="0.49803922" stroke-width="1.0"/>
  </g>
  <defs>
    <radialGradient cx="0" cy="0" gradientTransform="matrix(0.0141, 0.0, 0.0, 0.0141, 21.5, 10.25)" gradientUnits="userSpaceOnUse" id="gradient0" r="819.2" spreadMethod="pad">
      <stop offset="0.0" stop-color="#333333"/>
      <stop offset="1.0" stop-color="#1c1c1c"/>
    </radialGradient>
    <radialGradient cx="0" cy="0" gradientTransform="matrix(0.0086, 0.0, 0.0, 0.0086, 15.95, 9.45)" gradientUnits="userSpaceOnUse" id="gradient1" r="819.2" spreadMethod="pad">
      <stop offset="0.0" stop-color="#333333"/>
      <stop offset="1.0" stop-color="#1c1c1c"/>
    </radialGradient>
    <radialGradient cx="0" cy="0" gradientTransform="matrix(0.0024, 0.0, 0.0, 0.0059, 6.85, 11.15)" gradientUnits="userSpaceOnUse" id="gradient2" r="819.2" spreadMethod="pad">
      <stop offset="0.0" stop-color="#333333"/>
      <stop offset="1.0" stop-color="#191919"/>
    </radialGradient>
    <radialGradient cx="0" cy="0" gradientTransform="matrix(0.0024, 0.0, 0.0, 0.0086, 7.0, 14.95)" gradientUnits="userSpaceOnUse" id="gradient3" r="819.2" spreadMethod="pad">
      <stop offset="0.0" stop-color="#333333"/>
      <stop offset="1.0" stop-color="#191919"/>
    </radialGradient>
    <radialGradient cx="0" cy="0" gradientTransform="matrix(0.0051, 0.0, 0.0, 0.0051, 15.75, 18.7)" gradientUnits="userSpaceOnUse" id="gradient4" r="819.2" spreadMethod="pad">
      <stop offset="0.0" stop-color="#333333"/>
      <stop offset="1.0" stop-color="#1c1c1c"/>
    </radialGradient>
    <radialGradient cx="0" cy="0" gradientTransform="matrix(0.0017, -0.0017, 0.0069, 0.0067, 12.1, 21.05)" gradientUnits="userSpaceOnUse" id="gradient5" r="819.2" spreadMethod="pad">
      <stop offset="0.0" stop-color="#333333"/>
      <stop offset="1.0" stop-color="#191919"/>
    </radialGradient>
    <radialGradient cx="0" cy="0" gradientTransform="matrix(0.0011, -0.0021, 0.0045, 0.0023, 16.8, 22.55)" gradientUnits="userSpaceOnUse" id="gradient6" r="819.2" spreadMethod="pad">
      <stop offset="0.0" stop-color="#333333"/>
      <stop offset="1.0" stop-color="#191919"/>
    </radialGradient>
  </defs>
</svg>
