<?xml version="1.0" encoding="UTF-8" standalone="no"?>
<svg xmlns:ffdec="https://www.free-decompiler.com/flash" xmlns:xlink="http://www.w3.org/1999/xlink" ffdec:objectType="shape" height="29.3px" width="31.75px" xmlns="http://www.w3.org/2000/svg">
  <g transform="matrix(1.0, 0.0, 0.0, 1.0, 21.95, 31.6)">
    <path d="M-4.55 -12.55 L2.65 -12.85 2.9 -6.7 -4.3 -6.4 -4.55 -12.55" fill="#000000" fill-rule="evenodd" stroke="none"/>
    <path d="M-1.55 -11.25 L-1.4 -11.2 Q-1.25 -11.05 1.2 -12.5 L2.25 -7.85 -0.05 -6.4 Q-0.15 -6.2 -0.4 -6.3 -0.65 -6.2 -0.75 -6.45 -4.1 -4.1 -4.9 -8.55 L-2.3 -10.85 -1.95 -11.1 -1.55 -11.25" fill="url(#gradient0)" fill-rule="evenodd" stroke="none"/>
    <path d="M-0.25 -9.95 L-0.6 -11.6 M-2.2 -6.35 Q-2.4 -6.85 -2.0 -8.65 L-1.95 -8.75 Q-1.7 -10.15 -2.45 -10.7 M0.0 -8.0 L-0.05 -8.85 -0.25 -9.95 M-0.55 -6.05 Q-0.05 -7.0 0.0 -8.0" fill="none" stroke="#1b0b0b" stroke-linecap="round" stroke-linejoin="round" stroke-width="1.0"/>
    <path d="M0.0 -8.0 L1.1 -7.25 M-1.95 -8.75 L-1.55 -8.6 -1.05 -8.45 -0.75 -9.05 -0.25 -9.95 0.6 -11.7 M-1.95 -8.75 Q-3.4 -9.25 -3.8 -9.8 M0.0 -8.0 L-1.05 -8.45 -1.9 -5.95" fill="none" stroke="#2d0b0b" stroke-linecap="round" stroke-linejoin="round" stroke-width="1.0"/>
    <path d="M-1.85 -10.2 Q-3.75 -9.1 -3.5 -7.35 -3.1 -6.9 -1.85 -6.55 L0.0 -7.5 Q1.0 -7.95 1.1 -9.35 1.35 -10.7 1.7 -11.25 L1.3 -12.1 -1.85 -10.2 M0.5 -27.5 L2.95 -27.45 6.0 -25.8 6.8 -25.05 7.35 -24.55 7.7 -23.95 Q8.25 -20.7 7.65 -16.65 L7.15 -16.1 6.6 -15.6 3.35 -8.5 Q2.8 -7.4 3.15 -6.95 3.7 -6.25 3.8 -5.1 L3.65 -4.6 3.2 -4.25 Q3.0 -4.05 2.6 -3.95 L1.9 -3.85 Q-1.1 -3.55 -4.0 -4.55 L-4.65 -4.8 -5.2 -5.2 -5.5 -5.9 Q-5.3 -7.15 -5.4 -8.85 -5.4 -10.5 -6.05 -13.2 -6.2 -13.6 -5.75 -13.95 L-5.4 -14.35 Q-5.15 -14.6 -5.2 -14.85 L-6.25 -19.35 -6.55 -21.5 -7.1 -22.05 -7.7 -22.5 -7.65 -23.85 -7.2 -25.5 -4.65 -27.45 -4.55 -27.5 -4.55 -27.45 0.5 -27.5" fill="#e38902" fill-rule="evenodd" stroke="none"/>
    <path d="M-5.15 -10.2 L-2.05 -10.5 1.75 -12.4 Q3.25 -13.3 4.0 -14.15 L4.95 -15.2 6.1 -15.4 6.15 -15.4 Q6.35 -15.4 6.4 -15.2 L6.35 -14.9 3.6 -8.95 3.2 -8.1 Q3.0 -7.6 3.1 -7.2 L3.65 -6.25 3.9 -4.85 3.2 -4.2 2.7 -4.0 2.15 -3.9 Q-1.25 -3.45 -4.5 -4.85 -5.15 -5.1 -5.2 -5.25 L-5.45 -5.9 Q-5.2 -7.9 -5.35 -9.65 -5.45 -10.15 -5.15 -10.2" fill="#120b00" fill-opacity="0.35686275" fill-rule="evenodd" stroke="none"/>
    <path d="M7.55 -24.0 L6.9 -23.55 7.55 -23.0 6.65 -20.3 7.6 -19.7 5.65 -17.15 6.45 -16.05" fill="none" stroke="#382200" stroke-linecap="round" stroke-linejoin="round" stroke-width="1.0"/>
    <path d="M6.8 -15.6 L6.65 -15.4 3.85 -9.2 3.3 -8.0 Q3.0 -7.35 3.3 -7.0 3.9 -6.3 4.0 -4.7 L2.95 -3.85 Q-1.45 -2.95 -5.5 -5.05 L-5.6 -5.3 -5.45 -7.15 Q-5.15 -8.75 -6.3 -13.45 L-5.8 -14.15 Q-5.3 -14.6 -5.35 -14.85 -6.5 -19.55 -6.65 -21.35 L-7.3 -21.95 -7.95 -22.55 -7.6 -25.05 Q-7.55 -25.7 -6.35 -26.55 L-4.65 -27.65 3.0 -27.65 6.55 -25.7 7.2 -24.9 7.85 -24.1 Q8.45 -20.55 7.8 -16.6 L7.25 -16.0 6.8 -15.6 4.4 -15.3" fill="none" stroke="#653d01" stroke-linecap="round" stroke-linejoin="round" stroke-width="1.0"/>
    <path d="M1.5 -11.85 L1.3 -12.1 -2.65 -9.7 Q-3.75 -8.7 -3.6 -7.45 M-2.15 -6.55 L-1.8 -6.6 Q0.55 -7.75 0.95 -8.5" fill="none" stroke="#653d01" stroke-linecap="round" stroke-linejoin="round" stroke-width="1.0"/>
    <path d="M-19.9 -24.25 Q-19.65 -24.3 -19.55 -24.0 L-19.35 -23.5 Q-19.25 -23.2 -19.45 -23.05 L-20.05 -22.3 -19.3 -20.55 -18.85 -20.15 -18.45 -19.85 Q-18.25 -19.6 -18.35 -19.35 -18.45 -19.2 -18.75 -19.2 L-19.25 -19.2 Q-19.55 -19.15 -19.85 -19.75 L-21.2 -22.45 -20.8 -23.8 -19.9 -24.25" fill="url(#gradient1)" fill-rule="evenodd" stroke="none"/>
    <path d="M-16.1 -15.65 L-16.35 -14.3 -15.65 -12.7 Q-15.6 -12.4 -15.9 -12.3 L-16.4 -12.4 -17.75 -14.65 Q-18.05 -15.0 -17.85 -15.55 -17.85 -16.05 -17.3 -16.35 L-16.8 -16.15 -16.4 -15.95 -16.1 -15.65" fill="url(#gradient2)" fill-rule="evenodd" stroke="none"/>
    <path d="M-19.5 -24.65 L-20.95 -24.0 -21.45 -22.45 -19.7 -19.05 -18.15 -19.05 M-16.4 -13.85 L-17.25 -13.5 -16.5 -12.15 -15.8 -12.1 -15.3 -12.6 M-17.05 -16.85 L-17.95 -16.1 -18.15 -15.0 -17.25 -13.5 M-20.5 -21.2 L-19.95 -21.45" fill="none" stroke="#6d1919" stroke-linecap="round" stroke-linejoin="round" stroke-width="1.0"/>
    <path d="M-17.45 -15.75 L-17.6 -15.0 -16.95 -14.0 M-20.65 -23.65 L-21.1 -22.5 -20.85 -22.2" ffdec:has-small-stroke="true" ffdec:original-stroke-width="0.5" fill="none" stroke="#ffffff" stroke-linecap="round" stroke-linejoin="round" stroke-width="1.0"/>
    <path d="M-18.25 -25.6 L-18.1 -25.6 Q-17.75 -25.45 -17.55 -24.75 L-15.65 -23.9 -15.2 -23.75 -14.9 -23.45 Q-14.85 -23.2 -15.1 -23.0 L-15.4 -22.55 -13.95 -19.75 -13.5 -19.45 -13.0 -19.2 -12.0 -16.5 -11.5 -15.05 -12.4 -12.8 Q-12.45 -12.4 -13.1 -12.3 L-14.2 -12.1 -15.2 -12.6 -15.95 -14.3 -15.55 -16.45 -17.1 -19.75 -18.0 -20.2 -18.55 -20.4 -19.0 -20.75 -19.65 -22.25 -18.9 -23.1 -19.25 -24.25 -19.4 -24.65 -19.3 -25.1 -18.25 -25.6" fill="#999999" fill-rule="evenodd" stroke="none"/>
    <path d="M-17.6 -26.1 L-19.7 -25.15 -19.05 -23.15 -19.9 -22.3 -19.0 -20.4 -17.2 -19.7 -15.7 -16.45 -16.2 -14.25 -15.3 -12.4 -14.0 -11.85 -12.7 -12.2" fill="none" stroke="#212121" stroke-linecap="round" stroke-linejoin="round" stroke-width="1.0"/>
    <path d="M-15.6 -16.35 L-14.8 -15.9 -12.3 -16.6" fill="none" stroke="#212121" stroke-linecap="round" stroke-linejoin="round" stroke-width="1.0"/>
    <path d="M-15.5 -16.15 L-16.7 -16.3 -18.25 -19.9 Q-17.9 -20.4 -16.65 -20.55 L-16.3 -20.45 -16.15 -19.95 -15.2 -16.6 -15.5 -16.15" fill="#3d3d3d" fill-rule="evenodd" stroke="none"/>
    <path d="M-15.5 -16.15 L-16.7 -16.3 -18.25 -19.9 Q-17.9 -20.4 -16.65 -20.55 L-16.3 -20.45 -16.15 -19.95 -15.2 -16.6 -15.5 -16.15 Z" fill="none" stroke="#121212" stroke-linecap="round" stroke-linejoin="round" stroke-width="1.0"/>
    <path d="M-15.85 -22.3 L-18.35 -21.45 -17.8 -24.05 -15.85 -22.3" fill="url(#gradient3)" fill-rule="evenodd" stroke="none"/>
    <path d="M-17.55 -23.2 L-17.4 -22.75" ffdec:has-small-stroke="true" ffdec:original-stroke-width="0.5" fill="none" stroke="#999855" stroke-linecap="round" stroke-linejoin="round" stroke-width="1.0"/>
    <path d="M-14.2 -23.5 L-13.6 -23.25 -12.7 -21.55 -11.9 -21.0 Q-11.6 -20.95 -11.45 -20.65 L-11.2 -20.1 -9.8 -16.8 -9.85 -15.95 -9.9 -15.1 -9.35 -12.45 -9.35 -11.2 -15.0 -3.45 -15.4 -3.4 -15.6 -3.7 -13.85 -8.1 -12.6 -9.2 -12.15 -10.3 -12.35 -11.85 -11.15 -15.1 -12.75 -19.5 -13.2 -19.7 Q-13.5 -19.75 -13.65 -19.9 L-14.6 -21.75 -14.95 -22.6 -14.2 -23.5" fill="#373737" fill-rule="evenodd" stroke="none"/>
    <path d="M-14.15 -23.55 L-14.05 -23.55 -13.75 -23.4 -13.45 -23.1 -12.8 -21.65 -12.25 -21.1 -11.55 -20.8 -10.7 -19.05 -9.8 -16.9 Q-9.7 -16.35 -9.95 -15.25 L-9.55 -13.65 Q-9.45 -13.05 -9.6 -12.9 L-10.6 -12.7 -10.9 -12.15 -12.2 -11.8 Q-12.45 -11.65 -12.2 -12.3 L-11.15 -15.1 -12.55 -19.0 -12.65 -19.35 -12.9 -19.6 -13.65 -19.9 -14.75 -21.95 -14.95 -22.3 -14.9 -22.7 -14.15 -23.55" fill="#000000" fill-opacity="0.23529412" fill-rule="evenodd" stroke="none"/>
    <path d="M-14.4 -23.55 L-15.2 -22.55 -13.75 -19.7 -12.9 -19.45 -11.3 -15.1 -12.55 -11.85 -12.3 -10.35 -12.7 -9.35 -14.0 -8.25 -16.15 -2.8 -14.85 -3.35 -9.1 -11.25" fill="none" stroke="#121212" stroke-linecap="round" stroke-linejoin="round" stroke-width="1.0"/>
    <path d="M-11.8 -21.3 L-12.35 -21.6 -13.0 -23.0 -13.5 -23.6 Q-14.0 -23.95 -14.0 -24.25 L-13.55 -25.3 Q-12.05 -26.5 -10.7 -26.65 L-9.8 -26.65 -9.05 -26.05 -8.7 -25.4 -8.8 -23.45 -8.7 -22.75 -8.05 -22.65 -7.5 -22.45 -6.9 -21.95 -6.65 -20.3 -6.75 -19.85 -6.95 -19.4 -6.65 -17.75 -6.15 -16.95 -5.75 -16.4 Q-5.65 -16.05 -5.7 -15.55 L-5.85 -14.7 -5.55 -14.3 -5.45 -13.85 -5.45 -13.25 Q-5.35 -12.65 -5.5 -12.55 -6.4 -12.35 -7.1 -11.85 L-7.8 -11.25 Q-8.05 -10.8 -8.35 -10.95 L-8.7 -11.15 -8.9 -11.4 -9.3 -14.05 -9.6 -15.45 -9.45 -16.3 Q-9.4 -16.8 -9.5 -17.15 L-11.3 -21.05 -11.8 -21.3" fill="url(#gradient4)" fill-rule="evenodd" stroke="none"/>
    <path d="M-12.95 -25.75 L-12.7 -25.7 -12.05 -24.75 -11.65 -24.55 -11.05 -24.35 -9.75 -21.75 Q-9.55 -21.55 -9.9 -21.3 -9.95 -21.15 -10.7 -20.8 L-11.2 -20.85 -11.7 -21.25 -12.4 -21.55 -13.1 -23.2 -13.85 -23.9 -13.95 -24.4 -13.6 -25.3 -12.95 -25.75" fill="#d8dee3" fill-rule="evenodd" stroke="none"/>
    <path d="M-7.75 -11.65 L-7.75 -12.8 -7.0 -13.15 -7.1 -15.9 -7.55 -16.2 -8.9 -21.3 -9.4 -21.55 -9.95 -20.95 -10.95 -20.55 M-12.55 -25.75 L-11.85 -24.75 -10.95 -24.6 -9.45 -21.6 -9.4 -21.55" fill="none" stroke="#8796a2" stroke-linecap="round" stroke-linejoin="round" stroke-width="1.0"/>
    <path d="M-7.3 -19.55 L-7.2 -19.55 Q-6.95 -19.5 -6.95 -19.1 L-6.55 -17.4 -6.2 -17.0 -5.85 -16.65 -5.7 -16.3 -5.85 -14.7 -5.35 -14.0 -5.35 -13.2 Q-5.35 -12.6 -5.45 -12.55 L-6.1 -12.35 -7.75 -11.4 -7.9 -11.05 Q-8.0 -10.9 -8.2 -10.9 L-8.75 -11.2 -8.95 -11.85 Q-9.1 -13.45 -9.55 -15.05 L-9.55 -15.8 -9.45 -16.6 -9.6 -17.4 Q-9.85 -17.75 -9.5 -17.85 L-8.1 -18.3 -7.75 -19.3 -7.3 -19.55" fill="#0b0d0f" fill-opacity="0.40392157" fill-rule="evenodd" stroke="none"/>
    <path d="M-11.75 -24.65 L-12.3 -25.35 Q-12.7 -25.75 -12.4 -25.95 -11.6 -26.4 -10.7 -26.5 L-9.9 -26.45 Q-9.5 -26.3 -9.15 -25.95 L-8.75 -25.25 -8.85 -23.3 -8.75 -22.6 -7.75 -22.4 -6.9 -21.7 -6.7 -20.15 Q-6.6 -19.8 -7.0 -19.25 L-6.7 -17.45 -6.45 -17.0 -6.1 -16.65 -5.8 -16.15 Q-5.7 -15.6 -5.9 -14.55 L-5.6 -14.0 Q-5.4 -13.85 -5.4 -13.1 L-5.4 -12.7 Q-5.4 -12.45 -5.55 -12.35 L-6.7 -11.9 -7.05 -11.55 Q-7.3 -11.25 -7.45 -11.35 L-7.6 -12.55 -7.45 -12.85 -7.1 -13.05 -7.1 -13.85 -7.2 -15.9 -7.6 -16.2 -8.8 -21.35 Q-9.2 -21.4 -9.35 -21.6 L-10.95 -24.65 -11.75 -24.65" fill="#0b0d0f" fill-opacity="0.40392157" fill-rule="evenodd" stroke="none"/>
    <path d="M-8.35 -25.3 L-9.05 -26.35 -9.7 -26.8 -10.55 -26.85 Q-12.2 -26.8 -13.95 -25.2 L-14.2 -24.05 -13.25 -23.15 -12.5 -21.5 -11.95 -21.2 -11.4 -20.9 -9.65 -17.1 Q-9.5 -16.8 -9.65 -16.05 L-9.75 -15.05 Q-9.1 -13.0 -9.1 -11.25 L-8.0 -10.5 -7.6 -11.3 Q-6.3 -12.35 -5.15 -12.4 L-5.15 -14.0" fill="none" stroke="#121212" stroke-linecap="round" stroke-linejoin="round" stroke-width="1.0"/>
    <path d="M-16.75 -30.9 Q-13.95 -30.55 -11.75 -29.6 L-11.35 -29.3 -11.1 -28.85 -10.55 -27.7 Q-10.4 -27.3 -10.5 -26.1 -10.5 -25.45 -10.65 -25.4 L-11.65 -25.3 Q-13.25 -25.2 -14.05 -24.3 -14.55 -23.8 -14.7 -23.85 L-16.6 -24.65 Q-17.15 -24.8 -17.3 -25.05 -17.8 -26.2 -18.35 -26.5 L-18.75 -26.75 -18.95 -27.1 -18.25 -29.7 -17.55 -30.4 -16.85 -30.9 -16.75 -30.9" fill="url(#gradient5)" fill-rule="evenodd" stroke="none"/>
    <path d="M-14.4 -23.55 Q-13.35 -25.5 -10.35 -25.1 L-10.25 -27.35 -10.45 -28.15 -11.35 -29.6 Q-13.85 -30.7 -17.0 -31.1 L-18.4 -29.95 -19.25 -26.75 Q-18.0 -26.4 -17.4 -24.85 L-14.4 -23.55 Z" fill="none" stroke="#121212" stroke-linecap="round" stroke-linejoin="round" stroke-width="1.0"/>
    <path d="M4.3 -27.05 L4.6 -26.75 4.4 -26.45 1.3 -25.95 0.5 -25.75 -0.05 -24.9 -0.55 -24.45 -0.9 -23.95 -0.95 -22.55 0.0 -22.5 0.5 -22.5 0.95 -22.35 Q1.65 -20.05 1.4 -18.2 L1.7 -17.65 2.2 -17.3 2.5 -17.5 2.75 -17.55 4.2 -16.1 4.4 -15.65 4.15 -15.3 2.35 -15.4 -1.05 -15.0 -4.5 -14.3 -5.0 -14.35 -5.3 -14.75 Q-5.25 -15.3 -5.65 -16.1 L-6.2 -17.45 -6.55 -19.55 -6.55 -20.9 Q-6.45 -21.8 -6.6 -22.25 L-7.7 -22.95 -8.15 -23.0 -8.45 -23.25 -8.25 -25.75 -7.5 -26.8 Q-5.75 -27.6 -2.6 -27.9 0.9 -28.05 4.3 -27.05" fill="url(#gradient6)" fill-rule="evenodd" stroke="none"/>
    <path d="M-7.85 -24.85 L-8.0 -23.45 -7.25 -23.4 -6.25 -22.3 -5.8 -20.2 -6.2 -19.35 -5.7 -17.65 -4.9 -17.05" fill="none" stroke="#b3b3b3" stroke-linecap="round" stroke-linejoin="round" stroke-width="1.0"/>
    <path d="M-8.35 -25.3 L-2.55 -25.1 -2.35 -18.6 -2.9 -17.55 -5.7 -16.6" fill="none" stroke="#151515" stroke-linecap="round" stroke-linejoin="round" stroke-width="1.0"/>
    <path d="M4.55 -26.95 L4.7 -26.7 Q4.7 -26.5 4.5 -26.45 L0.8 -25.9 0.5 -25.75 Q0.45 -25.4 0.0 -24.95 L-0.9 -24.0 -0.95 -22.9 -0.9 -22.5 0.4 -22.55 Q0.85 -22.55 0.95 -22.35 1.5 -20.5 1.5 -19.25 L1.4 -17.95 2.05 -17.35 2.35 -17.45 2.55 -17.6 2.85 -17.5 4.15 -16.25 4.4 -15.7 4.4 -15.4 Q4.3 -15.25 4.15 -15.3 L1.5 -15.35 -4.2 -14.35 -4.9 -14.3 -5.3 -14.7 -5.35 -16.15 -5.2 -16.6 -2.85 -17.4 -2.3 -18.4 -2.1 -18.9 -2.35 -25.0 -5.35 -25.15 -8.3 -25.3 -7.55 -26.95 -0.85 -27.9 2.95 -27.4 4.55 -26.95" fill="#000000" fill-opacity="0.19607843" fill-rule="evenodd" stroke="none"/>
    <path d="M5.35 -26.6 L4.95 -27.05 Q1.35 -28.25 -2.35 -28.05 -5.65 -27.95 -7.8 -26.85 L-8.45 -25.85 -8.6 -22.9 -7.65 -22.8 -6.7 -22.1 -6.3 -20.4 Q-6.25 -20.2 -6.55 -19.85 L-6.8 -19.3 -6.45 -17.55 -6.0 -17.05 -5.55 -16.6 -5.55 -15.5 -5.7 -14.7 -5.25 -14.1 -0.65 -14.95 Q2.25 -15.4 4.45 -15.05" fill="none" stroke="#121212" stroke-linecap="round" stroke-linejoin="round" stroke-width="1.0"/>
    <path d="M-0.45 -20.65 L-1.0 -20.7 -1.55 -20.95 -2.5 -20.95 -2.9 -20.8 -3.35 -20.6 -6.6 -20.5 Q-6.85 -20.55 -6.85 -21.05 L-6.6 -21.8 -3.4 -21.95 -2.8 -22.25 -2.2 -22.45 Q-1.8 -22.5 -1.15 -22.1 L1.1 -22.2 1.2 -22.15 1.4 -21.8 1.4 -21.45 1.4 -21.05 Q1.4 -20.8 1.2 -20.7 L-0.45 -20.65" fill="#dbdbdb" fill-rule="evenodd" stroke="none"/>
    <path d="M-6.25 -20.4 L-3.4 -20.45 -2.55 -21.1 -1.5 -21.05 -0.7 -20.5 1.05 -20.65" fill="none" stroke="#8d8d8d" stroke-linecap="round" stroke-linejoin="round" stroke-width="1.0"/>
    <path d="M-0.85 -20.15 L1.45 -20.2 1.35 -22.35 -0.5 -22.2 -1.35 -22.6 -2.9 -22.55 -3.75 -22.05 -6.7 -21.85 -6.5 -20.0 -3.15 -20.05 -2.65 -20.55 -1.6 -20.55 -0.85 -20.15 Z" fill="none" stroke="#212121" stroke-linecap="round" stroke-linejoin="round" stroke-width="1.0"/>
    <path d="M-3.8 -14.55 L-3.75 -15.65 Q-1.45 -16.4 1.65 -16.6 L2.05 -15.5" fill="none" stroke="#121212" stroke-linecap="round" stroke-linejoin="round" stroke-width="1.0"/>
    <path d="M3.7 -25.95 L5.75 -26.3 7.1 -25.95 7.55 -25.75 7.9 -25.4 7.8 -20.3 7.2 -15.2 7.1 -14.7 6.9 -14.25 6.45 -14.3 6.0 -14.5 Q5.3 -14.6 5.05 -14.85 L4.6 -16.25 Q3.2 -17.75 2.4 -18.15 2.05 -18.25 2.05 -18.9 L1.35 -22.85 0.4 -22.85 -0.55 -23.0 -0.55 -23.9 0.4 -24.9 0.7 -25.25 1.0 -25.55 3.7 -25.95" fill="#333333" fill-rule="evenodd" stroke="none"/>
    <path d="M1.35 -25.65 L1.7 -25.4 1.5 -24.6 2.35 -23.5 2.4 -23.05 1.7 -22.75 1.25 -22.85 -0.25 -22.8 Q-0.65 -22.8 -0.65 -23.15 L-0.55 -24.0 0.3 -24.8 0.8 -25.45 1.35 -25.65" fill="#000000" fill-opacity="0.26666668" fill-rule="evenodd" stroke="none"/>
    <path d="M4.3 -18.55 L4.35 -18.55 4.9 -18.3 5.9 -16.0 5.9 -15.0 5.8 -14.75 Q5.7 -14.6 5.55 -14.65 L5.0 -14.85 4.55 -16.25 3.2 -17.65 Q3.05 -17.75 3.05 -17.9 L3.15 -18.15 4.3 -18.55" fill="#000000" fill-opacity="0.26666668" fill-rule="evenodd" stroke="none"/>
    <path d="M-0.75 -23.95 L0.05 -24.8 Q0.7 -25.35 0.65 -25.7 L6.15 -26.5 8.05 -25.7 7.95 -19.55 Q7.7 -16.2 7.05 -13.75 5.9 -14.5 4.9 -14.55 L4.45 -16.15 3.35 -17.3 Q2.7 -17.9 1.95 -18.1 L1.2 -22.7 -0.8 -22.65 -0.75 -23.95 Z" fill="none" stroke="#121212" stroke-linecap="round" stroke-linejoin="round" stroke-width="1.0"/>
    <path d="M5.65 -24.1 L6.55 -24.0 7.0 -23.9 7.3 -23.65 7.45 -21.4 7.35 -18.55 Q7.35 -18.15 7.0 -18.15 L4.75 -18.8 4.0 -18.8 Q3.15 -18.65 2.25 -17.95 2.1 -17.8 1.9 -17.95 L1.8 -18.25 Q2.0 -19.75 1.45 -21.8 1.2 -22.25 1.65 -22.35 4.25 -23.3 5.65 -24.1" fill="#dbdbdb" fill-rule="evenodd" stroke="none"/>
    <path d="M5.4 -23.7 L5.55 -22.05 Q5.55 -21.25 4.45 -20.1 3.35 -19.0 3.4 -18.65" fill="none" stroke="#252525" stroke-linecap="round" stroke-linejoin="round" stroke-width="1.0"/>
    <path d="M5.7 -24.1 L6.75 -23.95 7.3 -23.65 7.45 -22.3 7.35 -18.5 Q7.35 -18.05 7.0 -18.15 L4.75 -18.8 4.2 -18.85 3.7 -18.9 Q2.65 -17.8 3.8 -19.4 5.25 -20.95 5.55 -21.95 L5.45 -23.65 Q5.35 -24.1 5.7 -24.1" fill="#000000" fill-opacity="0.35686275" fill-rule="evenodd" stroke="none"/>
    <path d="M7.65 -25.0 L8.35 -24.7 8.7 -24.5 8.95 -24.15 Q9.3 -21.8 9.0 -17.75 L9.0 -17.35 8.85 -17.0 8.05 -16.7 7.6 -16.8 7.45 -17.2 Q7.9 -19.35 7.75 -22.0 L7.45 -24.45 Q7.35 -24.95 7.65 -25.0" fill="#999999" fill-rule="evenodd" stroke="none"/>
    <path d="M8.55 -24.65 L8.65 -24.35 Q9.0 -22.85 8.95 -20.55 8.95 -18.2 8.6 -16.95 L8.95 -17.15" ffdec:has-small-stroke="true" ffdec:original-stroke-width="0.85" fill="none" stroke="#ffffff" stroke-linecap="round" stroke-linejoin="round" stroke-width="1.0"/>
    <path d="M7.55 -25.25 L9.1 -24.45 9.3 -20.7 9.15 -16.9 Q8.6 -16.6 7.7 -16.5 L7.2 -16.9 Q7.95 -19.9 7.45 -24.05 L7.15 -24.9 7.55 -25.25 Z" fill="none" stroke="#212121" stroke-linecap="round" stroke-linejoin="round" stroke-width="1.0"/>
    <path d="M7.25 -24.0 L5.7 -24.3 Q4.1 -23.4 1.1 -22.35 1.9 -19.65 1.55 -18.0 L2.2 -17.45 Q2.45 -18.0 3.15 -18.35 L4.4 -18.7 7.2 -17.9" fill="none" stroke="#212121" stroke-linecap="round" stroke-linejoin="round" stroke-width="1.0"/>
    <path d="M5.55 -14.25 L5.15 -11.7 M6.15 -14.1 L5.5 -11.75" ffdec:has-small-stroke="true" ffdec:original-stroke-width="0.85" fill="none" stroke="#121212" stroke-linecap="round" stroke-linejoin="round" stroke-width="1.0"/>
    <path d="M-5.65 -11.3 L-5.85 -11.5 -5.2 -11.1 -4.6 -10.75 Q-1.9 -10.6 3.45 -10.7 L3.85 -10.65 Q4.1 -10.65 4.15 -10.45 L3.9 -9.65 3.8 -9.25 3.55 -8.95 0.35 -8.85 -0.7 -9.1 -1.5 -9.25 -2.3 -9.3 -2.85 -9.15 -3.4 -8.9 -5.6 -8.85 Q-6.15 -8.7 -6.05 -9.2 -5.95 -9.65 -6.1 -9.9 -6.85 -10.75 -6.65 -11.1 L-6.15 -11.25 -5.65 -11.3" fill="#dbdbdb" fill-rule="evenodd" stroke="none"/>
    <path d="M-2.85 -10.45 Q-2.7 -10.5 -2.35 -10.7 L3.75 -10.7 4.15 -10.4 3.85 -9.5 3.55 -8.95 -0.15 -8.85 -1.15 -9.25 -2.4 -9.25 -2.9 -9.1 -3.4 -8.9 -4.85 -8.9 -5.9 -9.05 -2.85 -10.45" fill="#090909" fill-opacity="0.22352941" fill-rule="evenodd" stroke="none"/>
    <path d="M4.95 -11.3 L5.0 -11.3 5.6 -11.2 Q5.85 -11.0 5.7 -10.6 L4.5 -8.15 4.1 -7.4 3.8 -7.35 Q3.6 -7.4 3.65 -7.6 L3.85 -8.35 4.6 -10.75 Q4.55 -11.1 4.95 -11.3" fill="#999999" fill-rule="evenodd" stroke="none"/>
    <path d="M4.9 -11.5 L5.9 -11.35 5.95 -10.65 4.1 -6.9 3.35 -7.45 4.45 -10.75 4.4 -11.1 4.9 -11.5 Z" fill="none" stroke="#212121" stroke-linecap="round" stroke-linejoin="round" stroke-width="1.0"/>
    <path d="M3.8 -8.8 L-0.05 -8.7 -0.7 -8.9 -1.35 -9.1 -2.45 -9.1 -2.95 -8.9 -3.5 -8.7 -6.05 -8.7 -6.35 -9.05 Q-6.05 -9.35 -6.2 -9.75 L-6.55 -10.35 -7.05 -11.15 -5.75 -11.8 -4.75 -10.9 Q-1.75 -10.75 4.15 -10.85" fill="none" stroke="#212121" stroke-linecap="round" stroke-linejoin="round" stroke-width="1.0"/>
  </g>
  <defs>
    <linearGradient gradientTransform="matrix(0.0011, 9.0E-4, -9.0E-4, 0.0011, -0.9, -8.75)" gradientUnits="userSpaceOnUse" id="gradient0" spreadMethod="pad" x1="-819.2" x2="819.2">
      <stop offset="0.0" stop-color="#2b2b2b"/>
      <stop offset="0.4588235294117647" stop-color="#d8d8d8"/>
      <stop offset="1.0" stop-color="#363636"/>
    </linearGradient>
    <linearGradient gradientTransform="matrix(-0.0014, -4.0E-4, 4.0E-4, -0.0014, -19.6, -21.6)" gradientUnits="userSpaceOnUse" id="gradient1" spreadMethod="pad" x1="-819.2" x2="819.2">
      <stop offset="0.0" stop-color="#4c1010"/>
      <stop offset="1.0" stop-color="#f13f3f"/>
    </linearGradient>
    <linearGradient gradientTransform="matrix(-0.0011, -5.0E-4, 5.0E-4, -0.0011, -16.6, -14.3)" gradientUnits="userSpaceOnUse" id="gradient2" spreadMethod="pad" x1="-819.2" x2="819.2">
      <stop offset="0.0" stop-color="#4c1010"/>
      <stop offset="1.0" stop-color="#f13f3f"/>
    </linearGradient>
    <radialGradient cx="0" cy="0" gradientTransform="matrix(0.0015, -1.0E-4, 1.0E-4, 0.0015, -17.35, -22.7)" gradientUnits="userSpaceOnUse" id="gradient3" r="819.2" spreadMethod="pad">
      <stop offset="0.0" stop-color="#c4c164"/>
      <stop offset="1.0" stop-color="#c4c164" stop-opacity="0.25490198"/>
    </radialGradient>
    <linearGradient gradientTransform="matrix(0.0033, 9.0E-4, -9.0E-4, 0.0033, -8.0, -19.4)" gradientUnits="userSpaceOnUse" id="gradient4" spreadMethod="pad" x1="-819.2" x2="819.2">
      <stop offset="0.0" stop-color="#374047"/>
      <stop offset="0.4392156862745098" stop-color="#475763"/>
      <stop offset="1.0" stop-color="#374047"/>
    </linearGradient>
    <radialGradient cx="0" cy="0" gradientTransform="matrix(0.0052, -2.0E-4, 2.0E-4, 0.0043, -14.7, -27.4)" gradientUnits="userSpaceOnUse" id="gradient5" r="819.2" spreadMethod="pad">
      <stop offset="0.0" stop-color="#494949"/>
      <stop offset="1.0" stop-color="#373737"/>
    </radialGradient>
    <linearGradient gradientTransform="matrix(0.008, -3.0E-4, 3.0E-4, 0.008, -1.8, -21.15)" gradientUnits="userSpaceOnUse" id="gradient6" spreadMethod="pad" x1="-819.2" x2="819.2">
      <stop offset="0.0" stop-color="#333333"/>
      <stop offset="0.5019607843137255" stop-color="#444444"/>
      <stop offset="1.0" stop-color="#333333"/>
    </linearGradient>
  </defs>
</svg>
