<?xml version="1.0" encoding="UTF-8" standalone="no"?>
<svg xmlns:ffdec="https://www.free-decompiler.com/flash" xmlns:xlink="http://www.w3.org/1999/xlink" ffdec:objectType="shape" height="30.1px" width="30.35px" xmlns="http://www.w3.org/2000/svg">
  <g transform="matrix(1.0, 0.0, 0.0, 1.0, 0.5, 1.85)">
    <path d="M20.35 12.35 L20.4 12.45 20.65 12.35 20.8 12.3 21.55 12.1 Q22.65 12.05 23.45 12.8 24.3 13.5 24.35 14.6 24.45 15.7 23.7 16.5 L22.7 17.25 23.85 19.4 24.1 19.85 26.1 20.1 24.7 21.95 19.3 20.55 19.8 19.45 18.2 18.5 17.7 17.95 Q16.55 16.7 16.4 14.8 16.35 13.65 16.75 12.6 16.35 13.65 16.4 14.8 16.55 16.7 17.7 17.95 L12.3 18.2 11.35 16.9 10.15 15.2 10.2 15.1 10.55 13.75 10.75 13.0 16.75 12.6 20.35 12.35 M20.4 12.45 L19.7 13.0 Q19.0 13.85 19.05 14.95 19.15 16.05 19.95 16.75 20.8 17.45 21.9 17.4 L22.7 17.25 21.9 17.4 Q20.8 17.45 19.95 16.75 19.15 16.05 19.05 14.95 19.0 13.85 19.7 13.0 L20.4 12.45 M23.85 19.4 L22.05 19.8 Q20.85 19.9 19.8 19.45 20.85 19.9 22.05 19.8 L23.85 19.4" fill="#191919" fill-rule="evenodd" stroke="none"/>
    <path d="M20.65 12.35 L20.35 12.35 19.15 9.15 18.9 8.55 24.85 8.3 Q27.95 9.45 29.3 11.85 29.55 16.2 27.85 20.3 L26.1 20.1 24.1 19.85 23.85 19.4 22.7 17.25 23.7 16.5 Q24.45 15.7 24.35 14.6 24.3 13.5 23.45 12.8 22.65 12.05 21.55 12.1 L20.8 12.3 20.65 12.35" fill="url(#gradient0)" fill-rule="evenodd" stroke="none"/>
    <path d="M19.15 9.15 L20.35 12.35 16.75 12.6 10.75 13.0 9.45 13.05 9.95 11.9 10.7 10.15 12.45 9.8 13.9 9.6 19.15 9.15 M13.5 11.1 L11.85 11.2 13.5 11.1 M17.15 10.9 L15.5 11.0 17.15 10.9" fill="url(#gradient1)" fill-rule="evenodd" stroke="none"/>
    <path d="M9.95 11.9 L9.45 13.05 10.75 13.0 10.55 13.75 3.85 12.75 2.15 10.9 9.95 11.9" fill="url(#gradient2)" fill-rule="evenodd" stroke="none"/>
    <path d="M11.35 16.9 L2.1 16.5 0.0 14.85 10.2 15.1 10.15 15.2 11.35 16.9" fill="url(#gradient3)" fill-rule="evenodd" stroke="none"/>
    <path d="M17.7 17.95 L18.2 18.5 19.8 19.45 19.3 20.55 19.05 21.0 18.8 21.0 17.05 20.85 14.9 20.45 14.85 20.45 12.85 19.95 11.55 19.5 12.3 18.2 17.7 17.95" fill="url(#gradient4)" fill-rule="evenodd" stroke="none"/>
    <path d="M12.85 19.95 L14.85 20.45 8.9 27.05 6.3 27.4 12.85 19.95" fill="url(#gradient5)" fill-rule="evenodd" stroke="none"/>
    <path d="M17.05 20.85 L18.8 21.0 16.9 24.85 16.4 25.8 13.8 26.35 15.4 23.65 16.1 25.0 16.9 24.85 16.1 25.0 15.4 23.65 17.05 20.85" fill="url(#gradient6)" fill-rule="evenodd" stroke="none"/>
    <path d="M14.5 8.3 L14.6 8.15 Q15.5 6.8 16.35 6.5 L17.0 6.4 17.25 5.9 Q17.75 5.15 18.35 4.75 19.1 4.25 20.85 4.5 L21.75 4.75 Q22.45 5.1 22.75 6.15 L23.25 7.75 M16.9 24.85 L17.85 24.65 18.35 26.5 Q18.45 27.1 18.85 27.45 19.3 27.85 19.75 27.75 20.7 27.6 21.0 26.15 L21.15 23.7 21.0 21.25 M14.5 8.3 L13.9 9.6 M20.25 8.0 L19.85 7.5 18.5 6.75 17.0 6.4 Q16.25 7.85 16.5 8.9 M14.9 20.45 L15.15 22.75 15.4 23.65 16.1 25.0 16.9 24.85" fill="none" stroke="#181817" stroke-linecap="round" stroke-linejoin="round" stroke-width="1.0"/>
    <path d="M20.65 12.35 L20.8 12.3 21.55 12.1 Q22.65 12.05 23.45 12.8 24.3 13.5 24.35 14.6 24.45 15.7 23.7 16.5 L22.7 17.25 23.85 19.4 24.1 19.85 26.1 20.1 27.85 20.3 Q29.55 16.2 29.3 11.85 27.95 9.45 24.85 8.3 L18.9 8.55 19.15 9.15 20.35 12.35 16.75 12.6 10.75 13.0 9.45 13.05 9.95 11.9 10.7 10.15 12.45 9.8 13.9 9.6 19.15 9.15 M11.85 11.2 L13.5 11.1 M15.5 11.0 L17.15 10.9 M12.3 18.2 L17.7 17.95 M12.85 19.95 L11.55 19.5 12.3 18.2 M14.85 20.45 L14.9 20.45 17.05 20.85 18.8 21.0 M19.3 20.55 L19.8 19.45" fill="none" stroke="#151515" stroke-linecap="round" stroke-linejoin="round" stroke-width="1.0"/>
    <path d="M20.65 12.35 L20.35 12.35 20.4 12.45 20.65 12.35 M16.75 12.6 Q16.35 13.65 16.4 14.8 16.55 16.7 17.7 17.95 L18.2 18.5 19.8 19.45 Q20.85 19.9 22.05 19.8 L23.85 19.4 M22.7 17.25 L21.9 17.4 Q20.8 17.45 19.95 16.75 19.15 16.05 19.05 14.95 19.0 13.85 19.7 13.0 L20.4 12.45 M19.3 20.55 L24.7 21.95 26.1 20.1 M9.95 11.9 L2.15 10.9 3.85 12.75 10.55 13.75 10.75 13.0 M10.2 15.1 L0.0 14.85 2.1 16.5 11.35 16.9 10.15 15.2 10.2 15.1 10.55 13.75 M11.35 16.9 L12.3 18.2 M18.8 21.0 L19.05 21.0 19.3 20.55 M14.85 20.45 L12.85 19.95 6.3 27.4 8.9 27.05 14.85 20.45 M15.4 23.65 L17.05 20.85 M15.4 23.65 L13.8 26.35 16.4 25.8 16.9 24.85 18.8 21.0" fill="none" stroke="#0e0e0e" stroke-linecap="round" stroke-linejoin="round" stroke-width="1.0"/>
    <path d="M14.5 8.3 L14.95 8.9 M8.9 6.05 L12.45 9.8 M7.2 -1.35 L14.5 8.3" fill="none" stroke="#0e0e0e" stroke-linecap="round" stroke-linejoin="round" stroke-opacity="0.49803922" stroke-width="1.0"/>
  </g>
  <defs>
    <radialGradient cx="0" cy="0" gradientTransform="matrix(0.0141, 0.0, 0.0, 0.0141, 21.5, 11.15)" gradientUnits="userSpaceOnUse" id="gradient0" r="819.2" spreadMethod="pad">
      <stop offset="0.0" stop-color="#333333"/>
      <stop offset="1.0" stop-color="#1c1c1c"/>
    </radialGradient>
    <radialGradient cx="0" cy="0" gradientTransform="matrix(0.0086, 0.0, 0.0, 0.0086, 15.95, 10.35)" gradientUnits="userSpaceOnUse" id="gradient1" r="819.2" spreadMethod="pad">
      <stop offset="0.0" stop-color="#333333"/>
      <stop offset="1.0" stop-color="#1c1c1c"/>
    </radialGradient>
    <radialGradient cx="0" cy="0" gradientTransform="matrix(0.0024, 0.0, 0.0, 0.0059, 6.85, 12.05)" gradientUnits="userSpaceOnUse" id="gradient2" r="819.2" spreadMethod="pad">
      <stop offset="0.0" stop-color="#333333"/>
      <stop offset="1.0" stop-color="#191919"/>
    </radialGradient>
    <radialGradient cx="0" cy="0" gradientTransform="matrix(0.0024, 0.0, 0.0, 0.0086, 7.0, 15.85)" gradientUnits="userSpaceOnUse" id="gradient3" r="819.2" spreadMethod="pad">
      <stop offset="0.0" stop-color="#333333"/>
      <stop offset="1.0" stop-color="#191919"/>
    </radialGradient>
    <radialGradient cx="0" cy="0" gradientTransform="matrix(0.0051, 0.0, 0.0, 0.0051, 15.75, 19.6)" gradientUnits="userSpaceOnUse" id="gradient4" r="819.2" spreadMethod="pad">
      <stop offset="0.0" stop-color="#333333"/>
      <stop offset="1.0" stop-color="#1c1c1c"/>
    </radialGradient>
    <radialGradient cx="0" cy="0" gradientTransform="matrix(0.0017, -0.0017, 0.0069, 0.0067, 12.1, 21.95)" gradientUnits="userSpaceOnUse" id="gradient5" r="819.2" spreadMethod="pad">
      <stop offset="0.0" stop-color="#333333"/>
      <stop offset="1.0" stop-color="#191919"/>
    </radialGradient>
    <radialGradient cx="0" cy="0" gradientTransform="matrix(0.0011, -0.0021, 0.0045, 0.0023, 16.8, 23.45)" gradientUnits="userSpaceOnUse" id="gradient6" r="819.2" spreadMethod="pad">
      <stop offset="0.0" stop-color="#333333"/>
      <stop offset="1.0" stop-color="#191919"/>
    </radialGradient>
  </defs>
</svg>
