<?xml version="1.0" encoding="UTF-8" standalone="no"?>
<svg xmlns:xlink="http://www.w3.org/1999/xlink" height="3.8px" width="3.85px" xmlns="http://www.w3.org/2000/svg">
  <g transform="matrix(1.0, 0.0, 0.0, 1.0, -17.95, 5.1)">
    <path d="M20.9 -4.2 Q21.3 -3.8 21.3 -3.2 21.3 -2.6 20.9 -2.2 20.45 -1.8 19.9 -1.8 19.3 -1.8 18.9 -2.2 18.45 -2.6 18.45 -3.2 18.45 -3.8 18.9 -4.2 19.3 -4.6 19.9 -4.6 20.45 -4.6 20.9 -4.2" fill="#7f8185" fill-rule="evenodd" stroke="none"/>
    <path d="M20.9 -4.2 Q21.3 -3.8 21.3 -3.2 21.3 -2.6 20.9 -2.2 20.45 -1.8 19.9 -1.8 19.3 -1.8 18.9 -2.2 18.45 -2.6 18.45 -3.2 18.45 -3.8 18.9 -4.2 19.3 -4.6 19.9 -4.6 20.45 -4.6 20.9 -4.2 Z" fill="none" stroke="#3d3d3d" stroke-linecap="round" stroke-linejoin="round" stroke-width="1.0"/>
  </g>
</svg>
