<?xml version="1.0" encoding="UTF-8" standalone="no"?>
<svg xmlns:ffdec="https://www.free-decompiler.com/flash" xmlns:xlink="http://www.w3.org/1999/xlink" ffdec:objectType="shape" height="28.8px" width="41.05px" xmlns="http://www.w3.org/2000/svg">
  <g transform="matrix(1.0, 0.0, 0.0, 1.0, 15.95, 0.6)">
    <path d="M4.45 15.45 L-15.95 18.75 -15.95 6.4 4.1 10.6 4.45 15.45" fill="url(#gradient0)" fill-rule="evenodd" stroke="none"/>
    <path d="M17.05 1.4 L17.9 0.0 21.4 0.0 24.15 4.8 23.2 13.0 23.0 14.4 20.55 14.4 16.05 14.4 15.15 12.8 15.15 10.4 15.15 4.35 15.15 1.4 17.05 1.4 M21.0 18.75 L22.2 18.75 21.1 27.7 19.6 27.7 19.6 27.15 19.6 23.45 19.6 20.9 19.6 18.75 21.0 18.75 M4.1 4.6 L4.1 2.4 7.45 1.5 10.65 1.5 12.15 1.5 12.15 5.65 9.8 6.85 9.8 8.35 9.8 11.05 9.8 12.45 7.65 12.45 4.9 12.45 4.1 12.45 4.1 11.2 4.1 10.0 4.1 4.6 M4.1 11.2 L5.9 9.8 5.9 4.45 8.5 3.6 11.5 3.6 8.5 3.6 5.9 4.45 5.9 9.8 4.1 11.2 M23.2 13.0 L18.25 13.0 17.3 11.45 17.3 4.35 15.15 4.35 17.3 4.35 17.3 11.45 18.25 13.0 23.2 13.0 M21.05 3.1 L19.1 3.1 21.05 3.1 M21.15 4.6 L20.0 4.6 21.15 4.6" fill="#350303" fill-rule="evenodd" stroke="none"/>
    <path d="M10.65 1.5 L11.85 -0.1 15.75 -0.1 17.05 1.4 15.15 1.4 15.15 4.35 15.15 10.4 12.4 10.35 9.8 8.35 9.8 6.85 12.15 5.65 12.15 1.5 10.65 1.5 M20.55 14.4 L20.25 16.1 15.55 16.1 14.8 19.7 10.25 19.75 14.8 19.7 14.8 20.9 19.6 20.9 19.6 23.45 10.35 23.3 9.65 21.0 10.25 21.0 10.25 19.75 10.25 19.2 12.6 17.75 12.6 14.6 10.15 14.6 8.8 15.8 8.05 15.8 7.65 12.45 9.8 12.45 9.8 11.05 11.9 12.6 15.15 12.8 16.05 14.4 20.55 14.4" fill="#171717" fill-rule="evenodd" stroke="none"/>
    <path d="M0.7 15.45 L0.7 10.0 4.1 10.0 4.1 11.2 4.1 12.45 4.9 12.45 4.95 15.45 0.7 15.45" fill="#ff0000" fill-rule="evenodd" stroke="none"/>
    <path d="M0.7 10.0 L0.0 10.0 0.0 6.75 1.5 4.6 4.1 4.6 4.1 10.0 0.7 10.0" fill="url(#gradient1)" fill-rule="evenodd" stroke="none"/>
    <path d="M7.75 19.95 L1.35 19.95 0.1 17.75 0.1 15.45 0.7 15.45 4.95 15.45 4.9 12.45 7.65 12.45 8.05 15.8 7.35 15.8 7.75 19.95" fill="url(#gradient2)" fill-rule="evenodd" stroke="none"/>
    <path d="M9.8 8.35 L12.4 10.35 15.15 10.4 15.15 12.8 11.9 12.6 9.8 11.05 9.8 8.35" fill="url(#gradient3)" fill-rule="evenodd" stroke="none"/>
    <path d="M20.25 16.1 L21.5 16.1 21.0 18.75 19.6 18.75 19.6 20.9 14.8 20.9 14.8 19.7 15.55 16.1 20.25 16.1" fill="url(#gradient4)" fill-rule="evenodd" stroke="none"/>
    <path d="M9.65 21.0 L7.85 21.0 7.75 19.95 7.35 15.8 8.05 15.8 8.8 15.8 10.15 14.6 12.6 14.6 12.6 17.75 10.25 19.2 10.25 19.75 10.25 21.0 9.65 21.0" fill="url(#gradient5)" fill-rule="evenodd" stroke="none"/>
    <path d="M19.6 27.15 Q13.6 28.4 7.8 26.6 L7.8 24.7 9.05 23.25 10.35 23.3 19.6 23.45 19.6 27.15" fill="url(#gradient6)" fill-rule="evenodd" stroke="none"/>
    <path d="M10.65 1.5 L11.85 -0.1 15.75 -0.1 17.05 1.4 M20.55 14.4 L20.25 16.1 21.5 16.1 21.0 18.75 M19.6 27.7 L19.6 27.15 Q13.6 28.4 7.8 26.6 L7.8 24.7 9.05 23.25 10.35 23.3 9.65 21.0 7.85 21.0 7.75 19.95 1.35 19.95 0.1 17.75 0.1 15.45 0.7 15.45 4.95 15.45 4.9 12.45 M0.7 10.0 L0.0 10.0 0.0 6.75 1.5 4.6 4.1 4.6 M9.8 8.35 L12.4 10.35 15.15 10.4 M4.1 10.0 L0.7 10.0 M7.75 19.95 L7.35 15.8 8.05 15.8 7.65 12.45 M8.05 15.8 L8.8 15.8 10.15 14.6 12.6 14.6 12.6 17.75 10.25 19.2 10.25 19.75 14.8 19.7 15.55 16.1 20.25 16.1 M9.8 11.05 L11.9 12.6 15.15 12.8 M19.6 20.9 L14.8 20.9 14.8 19.7 M10.25 19.75 L10.25 21.0 9.65 21.0 M10.35 23.3 L19.6 23.45" fill="none" stroke="#000000" stroke-linecap="round" stroke-linejoin="round" stroke-width="1.0"/>
    <path d="M21.0 18.75 L22.2 18.75 21.1 27.7 19.6 27.7 M19.6 20.9 L19.6 18.75 21.0 18.75 M19.6 23.45 L19.6 20.9 M19.6 23.45 L19.6 27.15" fill="none" stroke="#190000" stroke-linecap="round" stroke-linejoin="round" stroke-width="1.0"/>
    <path d="M15.15 4.35 L17.3 4.35 17.3 11.45 18.25 13.0 23.2 13.0 M11.5 3.6 L8.5 3.6 5.9 4.45 5.9 9.8 4.1 11.2" fill="none" stroke="#2a0101" stroke-linecap="round" stroke-linejoin="round" stroke-width="1.0"/>
    <path d="M20.0 4.6 L21.15 4.6 M19.1 3.1 L21.05 3.1" fill="none" stroke="#ff0000" stroke-linecap="round" stroke-linejoin="round" stroke-width="1.0"/>
    <path d="M24.15 4.8 L23.0 14.4 16.05 14.4 15.15 12.8 15.15 1.4 17.05 1.4 17.9 0.0 21.4 0.0 24.15 4.8 M12.15 5.65 L9.8 6.85 9.8 12.45 4.1 12.45 4.1 2.4 7.45 1.5 12.15 1.5 12.15 5.65 Z" fill="none" stroke="#190000" stroke-linecap="round" stroke-linejoin="round" stroke-width="1.0"/>
    <path d="M24.0 8.1 L24.7 8.1 24.7 11.75 24.4 12.2 24.4 13.0 Q22.9 14.8 21.05 13.0 L21.05 12.15 20.75 11.75 20.75 8.1 21.5 8.1 21.5 11.55 Q22.8 13.15 24.0 11.65 L24.0 8.1 M19.85 8.1 L20.55 8.1 20.55 11.75 20.25 12.2 20.25 13.0 Q18.75 14.8 16.9 13.0 L16.9 12.15 16.6 11.75 16.6 8.1 17.35 8.1 17.35 11.55 Q18.65 13.15 19.85 11.65 L19.85 8.1 M24.7 11.75 L24.05 12.55 23.0 13.25 22.45 13.2 21.5 12.55 20.75 11.75 21.5 12.55 22.45 13.2 23.0 13.25 24.05 12.55 24.7 11.75 M21.1 24.65 L21.1 23.8 20.8 23.4 20.8 19.75 21.55 19.75 21.55 23.2 Q22.4 24.25 23.2 24.0 L23.2 24.85 23.2 25.55 Q22.2 25.75 21.1 24.65 M23.2 24.85 L23.05 24.9 22.5 24.85 21.55 24.2 20.8 23.4 21.55 24.2 22.5 24.85 23.05 24.9 23.2 24.85 M20.55 11.75 L19.9 12.55 18.85 13.25 18.3 13.2 17.35 12.55 16.6 11.75 17.35 12.55 18.3 13.2 18.85 13.25 19.9 12.55 20.55 11.75" fill="#3f1313" fill-rule="evenodd" stroke="none"/>
    <path d="M24.4 13.0 L24.4 15.45 21.05 15.45 21.05 13.0 Q22.9 14.8 24.4 13.0 M21.5 8.1 L24.0 8.1 24.0 11.65 Q22.8 13.15 21.5 11.55 L21.5 8.1 M20.25 13.0 L20.25 15.45 16.9 15.45 16.9 13.0 Q18.75 14.8 20.25 13.0 M17.35 8.1 L19.85 8.1 19.85 11.65 Q18.65 13.15 17.35 11.55 L17.35 8.1 M21.55 19.75 L23.2 19.75 23.2 24.0 Q22.4 24.25 21.55 23.2 L21.55 19.75 M23.2 25.55 L23.2 27.1 21.1 27.1 21.1 24.65 Q22.2 25.75 23.2 25.55" fill="#272727" fill-rule="evenodd" stroke="none"/>
    <path d="M24.0 8.1 L24.7 8.1 24.7 11.75 24.4 12.2 24.4 13.0 24.4 15.45 21.05 15.45 21.05 13.0 21.05 12.15 20.75 11.75 20.75 8.1 21.5 8.1 24.0 8.1 M19.85 8.1 L20.55 8.1 20.55 11.75 20.25 12.2 20.25 13.0 20.25 15.45 16.9 15.45 16.9 13.0 16.9 12.15 16.6 11.75 16.6 8.1 17.35 8.1 19.85 8.1 M20.75 11.75 L21.5 12.55 22.45 13.2 23.0 13.25 24.05 12.55 24.7 11.75 M21.1 24.65 L21.1 23.8 20.8 23.4 20.8 19.75 21.55 19.75 23.2 19.75 23.2 24.0 23.2 24.85 23.2 25.55 23.2 27.1 21.1 27.1 21.1 24.65 M20.8 23.4 L21.55 24.2 22.5 24.85 23.05 24.9 23.2 24.85 M16.6 11.75 L17.35 12.55 18.3 13.2 18.85 13.25 19.9 12.55 20.55 11.75" fill="none" stroke="#101010" stroke-linecap="round" stroke-linejoin="round" stroke-width="0.8"/>
  </g>
  <defs>
    <linearGradient gradientTransform="matrix(0.0095, 0.0, 0.0, 0.0075, -5.55, 12.05)" gradientUnits="userSpaceOnUse" id="gradient0" spreadMethod="pad" x1="-819.2" x2="819.2">
      <stop offset="0.0" stop-color="#ff0000" stop-opacity="0.0"/>
      <stop offset="1.0" stop-color="#ff6969" stop-opacity="0.49803922"/>
      <stop offset="1.0" stop-color="#272727" stop-opacity="0.8"/>
      <stop offset="1.0" stop-color="#ff5151"/>
    </linearGradient>
    <radialGradient cx="0" cy="0" gradientTransform="matrix(0.0049, 0.0, 0.0, 0.0049, 4.1, 7.4)" gradientUnits="userSpaceOnUse" id="gradient1" r="819.2" spreadMethod="pad">
      <stop offset="0.0" stop-color="#272727"/>
      <stop offset="1.0" stop-color="#121212"/>
      <stop offset="1.0" stop-color="#272727" stop-opacity="0.8"/>
      <stop offset="1.0" stop-color="#ff5151"/>
    </radialGradient>
    <radialGradient cx="0" cy="0" gradientTransform="matrix(0.0066, 0.0, 0.0, 0.0066, 7.75, 14.5)" gradientUnits="userSpaceOnUse" id="gradient2" r="819.2" spreadMethod="pad">
      <stop offset="0.0" stop-color="#272727"/>
      <stop offset="1.0" stop-color="#121212"/>
      <stop offset="1.0" stop-color="#272727" stop-opacity="0.8"/>
      <stop offset="1.0" stop-color="#ff5151"/>
    </radialGradient>
    <radialGradient cx="0" cy="0" gradientTransform="matrix(0.0156, 0.0, 0.0, 0.0062, 13.55, 11.7)" gradientUnits="userSpaceOnUse" id="gradient3" r="819.2" spreadMethod="pad">
      <stop offset="0.0" stop-color="#272727"/>
      <stop offset="1.0" stop-color="#121212"/>
      <stop offset="1.0" stop-color="#272727" stop-opacity="0.8"/>
      <stop offset="1.0" stop-color="#ff5151"/>
    </radialGradient>
    <radialGradient cx="0" cy="0" gradientTransform="matrix(0.0067, 0.0, 0.0, 0.0067, 20.1, 17.15)" gradientUnits="userSpaceOnUse" id="gradient4" r="819.2" spreadMethod="pad">
      <stop offset="0.0" stop-color="#272727"/>
      <stop offset="1.0" stop-color="#121212"/>
      <stop offset="1.0" stop-color="#272727" stop-opacity="0.8"/>
      <stop offset="1.0" stop-color="#ff5151"/>
    </radialGradient>
    <radialGradient cx="0" cy="0" gradientTransform="matrix(0.0054, 0.0, 0.0, 0.0054, 11.65, 16.35)" gradientUnits="userSpaceOnUse" id="gradient5" r="819.2" spreadMethod="pad">
      <stop offset="0.0" stop-color="#272727"/>
      <stop offset="1.0" stop-color="#121212"/>
      <stop offset="1.0" stop-color="#272727" stop-opacity="0.8"/>
      <stop offset="1.0" stop-color="#ff5151"/>
    </radialGradient>
    <radialGradient cx="0" cy="0" gradientTransform="matrix(0.0088, 0.0, 0.0, 0.0088, 17.65, 22.85)" gradientUnits="userSpaceOnUse" id="gradient6" r="819.2" spreadMethod="pad">
      <stop offset="0.0" stop-color="#272727"/>
      <stop offset="1.0" stop-color="#121212"/>
      <stop offset="1.0" stop-color="#272727" stop-opacity="0.8"/>
      <stop offset="1.0" stop-color="#ff5151"/>
    </radialGradient>
  </defs>
</svg>
