<?xml version="1.0" encoding="UTF-8" standalone="no"?>
<svg xmlns:ffdec="https://www.free-decompiler.com/flash" xmlns:xlink="http://www.w3.org/1999/xlink" ffdec:objectType="shape" height="29.7px" width="22.5px" xmlns="http://www.w3.org/2000/svg">
  <g transform="matrix(1.0, 0.0, 0.0, 1.0, 14.0, 31.5)">
    <path d="M1.45 -29.35 L-0.45 -28.3 0.95 -25.75 3.7 -27.25 4.65 -25.8 -1.2 -21.6 -1.0 -18.5 -3.25 -14.7 -2.8 -13.45 -7.7 -11.7 -9.45 -11.05 -10.85 -15.4 -7.7 -16.5 -5.8 -20.2 -8.7 -26.35 Q-7.65 -30.25 -2.15 -31.0 L1.45 -29.35 M-3.25 -14.7 L-7.7 -16.5 -3.25 -14.7 M-3.35 -22.55 L-5.5 -23.6 -3.35 -22.55" fill="#1a1a1a" fill-rule="evenodd" stroke="none"/>
    <path d="M3.7 -27.25 L0.95 -25.75 -0.45 -28.3 1.45 -29.35 3.8 -30.65 5.2 -28.1 3.7 -27.25" fill="#484d51" fill-rule="evenodd" stroke="none"/>
    <path d="M-1.8 -10.75 L1.8 -8.0 4.0 -9.45 4.95 -5.0 3.2 -3.4 1.4 -4.2 -5.0 -7.1 -5.8 -9.35 -1.8 -10.75 -5.8 -9.35 -5.0 -7.1 1.4 -4.2 Q-0.8 -1.45 -5.05 -2.7 L-8.5 -8.85 -7.7 -11.7 -2.8 -13.45 -1.8 -10.75" fill="#323232" fill-rule="evenodd" stroke="none"/>
    <path d="M-3.25 -14.7 L-1.0 -18.5 -1.2 -21.6 4.65 -25.8 7.85 -21.2 Q8.2 -16.5 7.7 -11.95 L4.0 -9.45 1.8 -8.0 -1.8 -10.75 -2.8 -13.45 -3.25 -14.7 M-1.0 -18.5 L2.8 -15.4 4.0 -9.45 2.8 -15.4 -1.0 -18.5" fill="#3b3b3b" fill-rule="evenodd" stroke="none"/>
    <path d="M-8.7 -26.35 L-5.8 -20.2 -7.7 -16.5 -10.85 -15.4 -13.4 -16.35 Q-14.1 -24.0 -8.7 -26.35" fill="#4c4c4c" fill-rule="evenodd" stroke="none"/>
    <path d="M3.7 -27.25 L0.95 -25.75 -0.45 -28.3 1.45 -29.35 3.8 -30.65 5.2 -28.1 3.7 -27.25" fill="none" stroke="#2b2b2b" stroke-linecap="round" stroke-linejoin="round" stroke-width="1.0"/>
    <path d="M1.45 -29.35 L-2.15 -31.0 Q-7.65 -30.25 -8.7 -26.35 M4.65 -25.8 L3.7 -27.25 M-5.5 -23.6 L-3.35 -22.55 M-2.8 -13.45 L-7.7 -11.7 -9.45 -11.05" fill="none" stroke="#000000" stroke-linecap="round" stroke-linejoin="round" stroke-width="1.0"/>
    <path d="M1.4 -4.2 L3.2 -3.4 4.95 -5.0 4.0 -9.45 M-7.7 -11.7 L-8.5 -8.85 -5.05 -2.7 Q-0.8 -1.45 1.4 -4.2" fill="none" stroke="#1c1c1c" stroke-linecap="round" stroke-linejoin="round" stroke-width="1.0"/>
    <path d="M-3.25 -14.7 L-1.0 -18.5 -1.2 -21.6 4.65 -25.8 M4.0 -9.45 L2.8 -15.4 -1.0 -18.5" fill="none" stroke="#2f2f2f" stroke-linecap="round" stroke-linejoin="round" stroke-width="1.0"/>
    <path d="M-7.7 -16.5 L-3.25 -14.7 M4.0 -9.45 L7.7 -11.95 Q8.2 -16.5 7.85 -21.2 L4.65 -25.8 M-1.8 -10.75 L1.8 -8.0 4.0 -9.45 M-8.7 -26.35 Q-14.1 -24.0 -13.4 -16.35 L-10.85 -15.4 -7.7 -16.5 M1.4 -4.2 L-5.0 -7.1 -5.8 -9.35 -1.8 -10.75" fill="none" stroke="#262626" stroke-linecap="round" stroke-linejoin="round" stroke-width="1.0"/>
    <path d="M-8.7 -26.35 L-5.8 -20.2 -7.7 -16.5" fill="none" stroke="#2c2c2c" stroke-linecap="round" stroke-linejoin="round" stroke-width="1.0"/>
    <path d="M-2.8 -13.45 L-3.25 -14.7 M-1.8 -10.75 L-2.8 -13.45" ffdec:has-small-stroke="true" ffdec:original-stroke-width="0.9" fill="none" stroke="#262626" stroke-linecap="round" stroke-linejoin="round" stroke-width="1.0"/>
    <path d="M-9.45 -11.05 L-10.85 -15.4" fill="none" stroke="#000000" stroke-linecap="round" stroke-linejoin="round" stroke-width="1.1"/>
  </g>
</svg>
