<?xml version="1.0" encoding="UTF-8" standalone="no"?>
<svg xmlns:xlink="http://www.w3.org/1999/xlink" height="13.7px" width="27.8px" xmlns="http://www.w3.org/2000/svg">
  <g transform="matrix(1.0, 0.0, 0.0, 1.0, 5.35, 4.05)">
    <path d="M0.5 -0.4 L-0.05 -1.35 0.35 -2.25 2.85 -2.25 3.75 -2.95 11.15 -2.95 11.5 -3.55 12.45 -3.55 12.75 -2.2 8.15 -2.2 7.3 -1.2 6.05 -1.2 2.3 -1.2 2.2 -0.75 0.5 -0.4" fill="#70727b" fill-rule="evenodd" stroke="none"/>
    <path d="M6.05 -1.2 L7.3 -1.2 11.45 -1.2 12.75 -2.2 19.35 -2.2 19.95 -2.75 21.3 -2.75 21.3 -1.4 21.3 0.1 21.3 0.9 8.5 0.95 7.25 1.75 6.05 1.75 6.05 -1.2 M17.75 -0.25 L18.2 -1.05 17.75 -0.25 M16.2 -0.25 L16.65 -1.05 16.2 -0.25 M14.65 -0.25 L15.1 -1.05 14.65 -0.25" fill="#414141" fill-rule="evenodd" stroke="none"/>
    <path d="M21.3 0.9 L18.75 3.35 11.8 3.35 11.4 2.6 8.9 2.45 8.1 3.6 5.45 3.6 4.55 3.3 2.55 3.3 2.3 2.2 2.3 1.75 6.05 1.75 7.25 1.75 8.5 0.95 21.3 0.9" fill="#424349" fill-rule="evenodd" stroke="none"/>
    <path d="M7.3 -1.2 L8.15 -2.2 12.75 -2.2 11.45 -1.2 7.3 -1.2 M21.3 -1.4 L21.95 -1.4 21.95 0.1 21.3 0.1 21.3 -1.4" fill="#444444" fill-rule="evenodd" stroke="none"/>
    <path d="M1.3 4.9 L0.55 4.9 Q-0.15 4.4 -0.9 4.6 L-1.55 4.9 -2.0 5.35 Q-2.35 5.9 -2.25 6.6 -2.05 7.6 -0.95 8.0 L-1.0 9.05 -3.0 8.9 -3.45 8.6 -4.05 8.05 -4.85 6.5 -4.3 5.45 -4.1 5.6 Q-3.7 6.05 -3.0 5.4 -2.05 4.8 -1.8 4.1 -1.7 3.75 -2.0 3.3 L-2.25 3.05 -1.85 2.65 Q-1.25 1.85 -1.45 0.7 L-1.1 0.2 0.5 0.45 Q0.3 2.35 1.6 3.85 L1.3 4.9 M-0.5 2.45 Q-1.05 2.45 -1.05 2.95 -1.05 3.45 -0.5 3.45 0.0 3.45 0.0 2.95 0.0 2.45 -0.5 2.45 M-2.8 6.7 Q-3.3 6.7 -3.3 7.2 -3.3 7.75 -2.8 7.75 -2.3 7.75 -2.3 7.2 -2.3 6.7 -2.8 6.7" fill="#26272b" fill-rule="evenodd" stroke="none"/>
    <path d="M2.2 -0.75 L2.3 -1.2 6.05 -1.2 6.05 1.75 2.3 1.75 2.05 0.2 2.2 -0.75 M4.75 0.2 L2.85 0.2 4.75 0.2 4.75 -0.5 4.75 0.2 4.75 1.05 4.75 0.2 M5.5 0.65 L5.55 -0.15 5.5 0.65" fill="#3d3e44" fill-rule="evenodd" stroke="none"/>
    <path d="M0.5 -0.4 L2.2 -0.75 2.05 0.2 2.3 1.75 2.3 2.2 2.55 3.3 Q2.1 3.6 1.6 3.85 0.3 2.35 0.5 0.45 L0.5 -0.4" fill="#5c5e66" fill-rule="evenodd" stroke="none"/>
    <path d="M0.55 4.9 L-0.05 5.4 Q-0.8 6.35 -0.95 8.0 -2.05 7.6 -2.25 6.6 -2.35 5.9 -2.0 5.35 L-1.55 4.9 -0.9 4.6 Q-0.15 4.4 0.55 4.9 M-4.3 5.45 Q-3.55 4.05 -2.7 3.4 L-2.5 3.25 -2.25 3.05 -2.0 3.3 Q-1.7 3.75 -1.8 4.1 -2.05 4.8 -3.0 5.4 -3.7 6.05 -4.1 5.6 L-4.3 5.45 M-0.5 2.45 Q0.0 2.45 0.0 2.95 0.0 3.45 -0.5 3.45 -1.05 3.45 -1.05 2.95 -1.05 2.45 -0.5 2.45 M-2.8 6.7 Q-2.3 6.7 -2.3 7.2 -2.3 7.75 -2.8 7.75 -3.3 7.75 -3.3 7.2 -3.3 6.7 -2.8 6.7" fill="#1c1c1f" fill-rule="evenodd" stroke="none"/>
    <path d="M6.05 -1.2 L7.3 -1.2 11.45 -1.2 12.75 -2.2 M6.05 1.75 L7.25 1.75 8.5 0.95 21.3 0.9" fill="none" stroke="#333333" stroke-linecap="round" stroke-linejoin="round" stroke-width="1.0"/>
    <path d="M12.75 -2.2 L12.45 -3.55 11.5 -3.55 11.15 -2.95 3.75 -2.95 2.85 -2.25 0.35 -2.25 -0.05 -1.35 0.5 -0.4 0.5 0.45" fill="none" stroke="#27282c" stroke-linecap="round" stroke-linejoin="round" stroke-width="1.0"/>
    <path d="M2.2 -0.75 L2.3 -1.2 6.05 -1.2 6.05 1.75 2.3 1.75 2.05 0.2 2.2 -0.75" fill="none" stroke="#1a1a1a" stroke-linecap="round" stroke-linejoin="round" stroke-width="1.0"/>
    <path d="M15.1 -1.05 L14.65 -0.25 M16.65 -1.05 L16.2 -0.25 M18.2 -1.05 L17.75 -0.25 M5.55 -0.15 L5.5 0.65" fill="none" stroke="#c44747" stroke-linecap="round" stroke-linejoin="round" stroke-width="1.0"/>
    <path d="M12.75 -2.2 L19.35 -2.2 19.95 -2.75 21.3 -2.75 21.3 -1.4 21.3 0.1 21.3 0.9 M8.9 2.45 L8.1 3.6 5.45 3.6 Q5.3 4.75 4.0 5.65 2.7 6.6 1.3 4.9 M2.55 3.3 L4.55 3.3 5.45 3.6 M2.55 3.3 L2.8 4.6 M1.6 3.85 Q2.1 3.6 2.55 3.3" fill="none" stroke="#1b1c1e" stroke-linecap="round" stroke-linejoin="round" stroke-width="1.0"/>
    <path d="M21.95 -1.4 L21.95 0.1" fill="none" stroke="#292929" stroke-linecap="round" stroke-linejoin="round" stroke-width="1.0"/>
    <path d="M21.3 0.9 L18.75 3.35 11.8 3.35 11.4 2.6 8.9 2.45" fill="none" stroke="#343338" stroke-linecap="round" stroke-linejoin="round" stroke-width="1.0"/>
    <path d="M4.75 -0.5 L4.75 0.2 4.75 1.05 M2.85 0.2 L4.75 0.2" fill="none" stroke="#2e2e2e" stroke-linecap="round" stroke-linejoin="round" stroke-width="1.0"/>
    <path d="M1.3 4.9 L0.55 4.9 -0.05 5.4 Q-0.8 6.35 -0.95 8.0 L-1.0 9.05 -3.0 8.9 -3.45 8.6 -4.05 8.05 -4.85 6.5 -4.3 5.45 Q-3.55 4.05 -2.7 3.4 L-2.5 3.25 -2.25 3.05 -1.85 2.65 Q-1.25 1.85 -1.45 0.7 L-1.1 0.2 0.5 0.45 Q0.3 2.35 1.6 3.85 L1.3 4.9 Z" fill="none" stroke="#121214" stroke-linecap="round" stroke-linejoin="round" stroke-width="1.0"/>
  </g>
</svg>
