<?xml version="1.0" encoding="UTF-8" standalone="no"?>
<svg xmlns:ffdec="https://www.free-decompiler.com/flash" xmlns:xlink="http://www.w3.org/1999/xlink" ffdec:objectType="shape" height="31.15px" width="31.7px" xmlns="http://www.w3.org/2000/svg">
  <g transform="matrix(1.0, 0.0, 0.0, 1.0, 16.2, 30.95)">
    <path d="M-7.25 -14.2 L-8.2 -18.55 -5.35 -19.1 -5.5 -15.35 -7.25 -14.2" fill="#d06513" fill-rule="evenodd" stroke="none"/>
    <path d="M-7.25 -14.2 L-8.2 -18.55 -5.35 -19.1 -5.5 -15.35 -7.25 -14.2 Z" fill="none" stroke="#b55811" stroke-linecap="round" stroke-linejoin="round" stroke-width="1.0"/>
    <path d="M-3.1 -29.8 L5.45 -26.45 7.8 -21.6 5.45 -14.3 0.9 -14.7 -1.25 -17.2 -2.25 -20.6 -3.1 -29.8" fill="#171a1c" fill-rule="evenodd" stroke="none"/>
    <path d="M-3.1 -29.8 L5.45 -26.45 7.8 -21.6 5.45 -14.3 0.9 -14.7 -1.25 -17.2 -2.25 -20.6 -3.1 -29.8 Z" fill="none" stroke="#101214" stroke-linecap="round" stroke-linejoin="round" stroke-width="1.1"/>
    <path d="M3.9 -25.5 L7.5 -26.65 9.9 -24.7 Q11.35 -23.55 12.65 -23.05 L13.25 -22.2 13.5 -21.25 Q14.05 -19.85 14.4 -17.2 L12.25 -10.95 Q11.35 -8.95 10.1 -7.15 L3.9 -12.7 3.9 -25.5" fill="url(#gradient0)" fill-rule="evenodd" stroke="none"/>
    <path d="M-3.1 -29.8 L1.2 -28.15 0.8 -22.6 -3.7 -19.65 -11.15 -18.45 -15.65 -21.55 -12.8 -30.4 -3.1 -29.8" fill="url(#gradient1)" fill-rule="evenodd" stroke="none"/>
    <path d="M-3.1 -29.8 L-12.8 -30.4 -15.65 -21.55 -11.15 -18.45 -3.7 -19.65 0.8 -22.6 1.2 -28.15 -3.1 -29.8 Z" fill="none" stroke="#101214" stroke-linecap="round" stroke-linejoin="round" stroke-width="1.1"/>
    <path d="M11.25 -24.0 L12.65 -23.05 14.4 -17.2 14.95 -13.15 12.0 -9.9 Q10.5 -11.25 9.3 -12.9 8.8 -13.6 8.75 -15.3 L8.75 -17.6 Q8.7 -18.95 10.0 -21.65 L11.25 -24.0" fill="#2f2f2f" fill-rule="evenodd" stroke="none"/>
    <path d="M13.3 -20.4 L10.7 -20.4" fill="none" stroke="#d06513" stroke-linecap="round" stroke-linejoin="round" stroke-width="1.0"/>
    <path d="M3.9 -25.5 L7.5 -26.65 12.65 -23.05 14.95 -13.15 Q11.75 -9.5 10.1 -7.15 L3.9 -12.7 3.9 -25.5 Z" fill="none" stroke="#101214" stroke-linecap="round" stroke-linejoin="round" stroke-width="1.1"/>
    <path d="M-5.9 -19.1 L-2.25 -20.6 -1.25 -17.2 0.9 -14.7 3.9 -15.55 3.9 -12.7 8.6 -8.45 7.35 -5.0 Q5.55 -1.35 3.2 -0.65 L-0.65 -0.75 Q-2.25 -1.45 -3.7 -3.45 -5.65 -6.15 -6.0 -12.9 L-5.9 -19.1" fill="#292a2b" fill-rule="evenodd" stroke="none"/>
    <path d="M-5.9 -19.1 L-6.0 -12.9 Q-5.65 -6.15 -3.7 -3.45 -2.25 -1.45 -0.65 -0.75 L3.2 -0.65 Q5.55 -1.35 7.35 -5.0 L8.6 -8.45 3.9 -12.7 3.9 -15.55 0.9 -14.7 -1.25 -17.2 -2.25 -20.6 -5.9 -19.1 Z" fill="none" stroke="#101214" stroke-linecap="round" stroke-linejoin="round" stroke-width="1.1"/>
    <path d="M4.9 -11.75 L10.1 -7.15 8.45 -3.9 3.7 -4.15 3.45 -9.3 Q3.55 -11.95 4.9 -11.75" fill="#171a1c" fill-rule="evenodd" stroke="none"/>
    <path d="M4.9 -11.75 Q3.55 -11.95 3.45 -9.3 L3.7 -4.15 8.45 -3.9 10.1 -7.15 4.9 -11.75 Z" fill="none" stroke="#101214" stroke-linecap="round" stroke-linejoin="round" stroke-width="1.1"/>
    <path d="M-10.55 -25.85 L-6.6 -23.4 -6.75 -18.8" fill="none" stroke="#181c1e" stroke-linecap="round" stroke-linejoin="round" stroke-width="1.1"/>
    <path d="M-6.6 -15.15 L-0.65 -11.25 0.5 -2.45 -7.3 -7.15 -8.9 -13.7 -6.6 -15.15" fill="url(#gradient2)" fill-rule="evenodd" stroke="none"/>
    <path d="M-6.6 -15.15 L-8.9 -13.7 -7.3 -7.15 0.5 -2.45 -0.65 -11.25 -6.6 -15.15 Z" fill="none" stroke="#101214" stroke-linecap="round" stroke-linejoin="round" stroke-width="1.0"/>
    <path d="M-2.15 -12.2 L-4.95 -9.15 -3.4 -4.8" fill="none" stroke="#181c1e" stroke-linecap="round" stroke-linejoin="round" stroke-width="1.0"/>
    <path d="M-7.05 -18.2 L-6.6 -15.75 -10.95 -12.35 -12.95 -18.55 -7.05 -18.2" fill="url(#gradient3)" fill-rule="evenodd" stroke="none"/>
  </g>
  <defs>
    <linearGradient gradientTransform="matrix(0.007, 0.0, 0.0, 0.007, 9.6, -16.9)" gradientUnits="userSpaceOnUse" id="gradient0" spreadMethod="pad" x1="-819.2" x2="819.2">
      <stop offset="0.0" stop-color="#2d2d2d"/>
      <stop offset="1.0" stop-color="#171a1c"/>
    </linearGradient>
    <radialGradient cx="0" cy="0" gradientTransform="matrix(0.0087, 0.0, 0.0, 0.0079, -2.65, -25.25)" gradientUnits="userSpaceOnUse" id="gradient1" r="819.2" spreadMethod="pad">
      <stop offset="0.0" stop-color="#2e2e2e"/>
      <stop offset="1.0" stop-color="#1e2225"/>
    </radialGradient>
    <linearGradient gradientTransform="matrix(0.0062, 0.0, 0.0, 0.0062, -4.3, -8.8)" gradientUnits="userSpaceOnUse" id="gradient2" spreadMethod="pad" x1="-819.2" x2="819.2">
      <stop offset="0.0" stop-color="#2e2e2e"/>
      <stop offset="1.0" stop-color="#1e2225"/>
    </linearGradient>
    <linearGradient gradientTransform="matrix(0.0031, 9.0E-4, -9.0E-4, 0.0031, -9.35, -16.2)" gradientUnits="userSpaceOnUse" id="gradient3" spreadMethod="pad" x1="-819.2" x2="819.2">
      <stop offset="0.0" stop-color="#d06513" stop-opacity="0.0"/>
      <stop offset="1.0" stop-color="#d06513" stop-opacity="0.69803923"/>
    </linearGradient>
  </defs>
</svg>
