<?xml version="1.0" encoding="UTF-8" standalone="no"?>
<svg xmlns:ffdec="https://www.free-decompiler.com/flash" xmlns:xlink="http://www.w3.org/1999/xlink" ffdec:objectType="shape" height="30.8px" width="30.0px" xmlns="http://www.w3.org/2000/svg">
  <g transform="matrix(1.0, 0.0, 0.0, 1.0, 13.85, 32.1)">
    <path d="M1.75 -3.1 L0.75 -12.6 0.65 -24.1 13.7 -22.3 13.8 -22.3 12.8 -18.15 Q12.4 -13.6 9.9 -11.25 7.3 -6.45 7.8 -1.8 L1.75 -3.1" fill="#333333" fill-rule="evenodd" stroke="none"/>
    <path d="M1.75 -3.1 L-1.95 -3.05 Q-3.8 -7.35 -4.65 -15.0 L-6.1 -27.75 -0.7 -29.25 5.6 -29.25 Q9.9 -27.1 12.15 -23.2 L11.65 -22.05 5.4 -19.85 7.35 -7.1 1.75 -3.1" fill="#414141" fill-rule="evenodd" stroke="none"/>
    <path d="M12.05 -22.95 L11.9 -24.0 Q11.65 -24.85 10.4 -26.0 L8.05 -27.4 Q6.2 -28.45 5.6 -29.25 L-0.7 -29.25 -6.1 -27.75 -3.3 -7.75 -1.95 -3.05 1.75 -3.1 7.8 -1.8 Q7.3 -6.45 9.9 -11.25 12.4 -13.6 12.8 -18.15 L12.05 -22.95 Z" fill="none" stroke="#303030" stroke-linecap="round" stroke-linejoin="round" stroke-width="1.05"/>
    <path d="M-4.65 -28.1 L-4.45 -7.55 -10.35 -9.95 -11.8 -26.0 -4.65 -28.1" fill="#666666" fill-rule="evenodd" stroke="none"/>
    <path d="M-4.6 -23.95 L-5.35 -17.25 Q-5.8 -13.25 -4.5 -10.4 L-3.25 -7.75 -9.35 -11.5 -11.65 -25.95 -4.65 -28.1 -4.6 -23.95 Z" fill="none" stroke="#000000" stroke-linecap="round" stroke-linejoin="round" stroke-width="1.05"/>
    <path d="M-2.3 -30.7 Q-0.05 -29.9 -0.2 -29.3 -0.3 -28.85 -1.85 -28.35 L-4.0 -24.65 Q-4.3 -22.75 -3.8 -17.4 -3.3 -11.5 -3.4 -9.6 -2.8 -8.35 -3.45 -8.2 -3.95 -8.05 -4.45 -8.45 -6.75 -8.5 -8.55 -9.75 L-10.7 -11.1 -10.8 -15.7 -12.1 -22.95 -10.55 -28.15 Q-9.35 -28.45 -7.35 -30.0 L-5.2 -31.45 -2.3 -30.7" fill="#4d4d4d" fill-rule="evenodd" stroke="none"/>
    <path d="M-2.3 -30.7 Q-0.05 -29.9 -0.2 -29.3 -0.3 -28.85 -1.85 -28.35 L-4.0 -24.65 Q-4.3 -22.75 -3.8 -17.4 -3.3 -11.5 -3.4 -9.6 -2.8 -8.35 -3.45 -8.2 -3.95 -8.05 -4.45 -8.45 -6.75 -8.5 -8.55 -9.75 L-10.7 -11.1 -10.8 -15.7 -12.1 -22.95 -10.55 -28.15 Q-9.35 -28.45 -7.35 -30.0 L-5.2 -31.45 -2.3 -30.7 Z" fill="none" stroke="#3a3a3a" stroke-linecap="round" stroke-linejoin="round" stroke-width="1.05"/>
    <path d="M-11.05 -26.7 L-8.0 -23.25 -7.75 -15.95 -9.2 -12.95 -10.15 -10.25 -12.1 -13.45 Q-12.85 -15.55 -12.95 -21.5 L-11.05 -26.7" fill="#151515" fill-rule="evenodd" stroke="none"/>
    <path d="M-11.05 -26.7 L-8.0 -23.25 -7.75 -15.95 -9.2 -12.95 -10.15 -10.25 -12.1 -13.45 Q-12.85 -15.55 -12.95 -21.5 L-11.05 -26.7 Z" fill="none" stroke="#000000" stroke-linecap="round" stroke-linejoin="round" stroke-width="1.05"/>
    <path d="M-12.75 -16.65 L-9.9 -16.8 -10.2 -15.0 -12.1 -13.45 -12.65 -15.3 -12.75 -16.65" fill="#56e8ff" fill-rule="evenodd" stroke="none"/>
    <path d="M-12.75 -16.65 L-9.9 -16.8 -10.2 -15.0 -12.1 -13.45 -12.65 -15.3 -12.75 -16.65 Z" fill="none" stroke="#21416d" stroke-linecap="round" stroke-linejoin="round" stroke-opacity="0.8784314" stroke-width="1.05"/>
    <path d="M-12.95 -21.5 L-12.95 -23.2 -12.0 -24.7 -10.05 -23.45 -9.9 -21.5 -12.95 -21.5" fill="#56e8ff" fill-rule="evenodd" stroke="none"/>
    <path d="M-12.95 -21.5 L-9.9 -21.5 -10.05 -23.45 -12.0 -24.7 -12.95 -23.2 -12.95 -21.5 Z" fill="none" stroke="#21416d" stroke-linecap="round" stroke-linejoin="round" stroke-opacity="0.8784314" stroke-width="1.05"/>
    <path d="M-10.9 -19.85 L-13.35 -19.8" fill="none" stroke="#777777" stroke-linecap="round" stroke-linejoin="round" stroke-width="1.05"/>
    <path d="M-10.9 -18.4 L-13.35 -18.35" fill="none" stroke="#777777" stroke-linecap="round" stroke-linejoin="round" stroke-width="1.05"/>
    <path d="M-8.7 -17.7 L-8.75 -20.35 -6.65 -22.75 -4.65 -22.8 Q-2.85 -21.65 -2.3 -19.55 -1.7 -16.95 -4.75 -16.0 L-6.65 -15.95 -8.7 -17.7" fill="#444444" fill-rule="evenodd" stroke="none"/>
    <path d="M-8.7 -17.7 L-8.75 -20.35 -6.65 -22.75 -4.65 -22.8 Q-2.85 -21.65 -2.3 -19.55 -1.7 -16.95 -4.75 -16.0 L-6.65 -15.95 -8.7 -17.7 Z" fill="none" stroke="#303030" stroke-linecap="round" stroke-linejoin="round" stroke-width="1.05"/>
    <path d="M13.45 -22.05 L14.45 -20.15 15.3 -17.3 14.05 -12.2 7.35 -12.85 4.6 -16.8 1.3 -17.7 1.4 -20.25 4.65 -21.6 6.75 -23.5 9.15 -23.65 11.45 -23.55 Q13.2 -23.05 13.45 -22.05" fill="#494e4e" fill-rule="evenodd" stroke="none"/>
    <path d="M13.45 -22.05 Q13.2 -23.05 11.45 -23.55 L9.15 -23.65 6.75 -23.5 4.65 -21.6 1.4 -20.25 1.3 -17.7 4.6 -16.8 7.35 -12.85 14.05 -12.2 15.3 -17.3 14.45 -20.15 13.45 -22.05 Z" fill="none" stroke="#333333" stroke-linecap="round" stroke-linejoin="round" stroke-width="1.05"/>
    <path d="M3.85 -17.4 L5.1 -16.6 7.65 -12.85 13.1 -12.3 12.6 -9.35 11.0 -8.0 5.6 -8.7 3.25 -11.45 2.15 -13.95 -3.7 -15.5 -2.65 -17.95 3.85 -17.4" fill="#414848" fill-rule="evenodd" stroke="none"/>
    <path d="M3.85 -17.4 L-2.65 -17.95 -3.7 -15.5 2.15 -13.95 3.25 -11.45 5.6 -8.7 11.0 -8.0 12.6 -9.35 13.1 -12.3 7.65 -12.85 5.1 -16.6 3.85 -17.4 Z" fill="none" stroke="#33383c" stroke-linecap="round" stroke-linejoin="round" stroke-width="1.05"/>
    <path d="M9.85 -9.05 L11.3 -8.55 10.25 -2.95 7.85 -2.7 6.95 -5.95 -3.15 -5.45 -3.35 -7.3 Q-0.85 -8.8 2.2 -8.85 L7.6 -8.25 9.85 -9.05" fill="#4a4a4a" fill-rule="evenodd" stroke="none"/>
    <path d="M9.85 -9.05 L11.3 -8.55 10.25 -2.95 7.85 -2.7 6.95 -5.95 -3.15 -5.45 -3.35 -7.3 Q-0.85 -8.8 2.2 -8.85 L7.6 -8.25 9.85 -9.05 Z" fill="none" stroke="#333333" stroke-linecap="round" stroke-linejoin="round" stroke-width="1.05"/>
    <path d="M2.5 -17.35 L3.95 -16.55 3.65 -14.25 2.45 -13.8 M8.95 -23.05 L9.2 -21.25 10.95 -20.15 13.9 -20.2" fill="none" stroke="#2c2c2c" stroke-linecap="round" stroke-linejoin="round" stroke-opacity="0.44705883" stroke-width="1.05"/>
    <path d="M15.45 -18.65 L15.65 -15.85 14.15 -13.25 12.35 -15.1 13.1 -18.0 15.45 -18.65" fill="#25b5d2" fill-rule="evenodd" stroke="none"/>
    <path d="M15.45 -18.65 L13.1 -18.0 12.35 -15.1 14.15 -13.25 15.65 -15.85 15.45 -18.65 Z" fill="none" stroke="#21416d" stroke-linecap="round" stroke-linejoin="round" stroke-opacity="0.8784314" stroke-width="1.05"/>
    <path d="M13.1 -22.5 Q13.45 -22.1 13.6 -21.2 L13.8 -20.3 Q14.25 -20.05 14.6 -19.95 L15.45 -18.25 Q15.75 -16.3 15.2 -14.8 L14.05 -12.1 13.0 -11.9 12.9 -9.65 11.3 -8.2 10.1 -3.0 M-8.55 -12.15 Q-8.05 -11.35 -6.4 -10.25 -4.6 -9.05 -3.65 -9.0 M-2.9 -31.0 L-5.4 -31.6 -7.45 -29.75 Q-8.9 -28.6 -10.3 -28.15 L-11.35 -26.65" fill="none" stroke="#2c2c2c" stroke-linecap="round" stroke-linejoin="round" stroke-width="1.05"/>
  </g>
</svg>
