<?xml version="1.0" encoding="UTF-8" standalone="no"?>
<svg xmlns:ffdec="https://www.free-decompiler.com/flash" xmlns:xlink="http://www.w3.org/1999/xlink" ffdec:objectType="shape" height="31.7px" width="21.85px" xmlns="http://www.w3.org/2000/svg">
  <g transform="matrix(1.0, 0.0, 0.0, 1.0, 9.85, 32.65)">
    <path d="M-3.6 -27.05 Q-2.7 -28.0 -1.85 -28.1 L-1.15 -31.2 Q1.45 -33.35 3.5 -30.6 L3.55 -28.15 Q5.55 -27.3 6.7 -25.05 L4.6 -21.8 6.6 -19.3 6.0 -17.45 3.4 -16.25 3.4 -13.7 4.5 -12.15 5.8 -9.8 6.55 -9.8 Q5.95 -7.8 5.8 -6.2 6.45 -4.55 5.8 -2.8 4.6 -1.5 1.75 -1.45 -0.7 -1.35 -1.9 -2.9 L-2.6 -6.2 -2.6 -7.4 -0.8 -7.4 -0.8 -10.1 Q-3.35 -9.2 -3.05 -11.85 L-3.0 -14.55 -3.2 -15.55 -3.3 -16.05 Q-6.8 -17.05 -3.6 -18.5 L-3.6 -27.05" fill="#171717" fill-rule="evenodd" stroke="none"/>
    <path d="M6.7 -25.05 Q9.65 -23.55 10.55 -21.3 11.4 -19.05 10.75 -17.0 10.1 -14.95 7.9 -14.8 L6.0 -17.45 6.6 -19.3 4.6 -21.8 6.7 -25.05" fill="url(#gradient0)" fill-rule="evenodd" stroke="none"/>
    <path d="M-3.0 -14.55 L-3.65 -14.55 -5.75 -15.65 -6.55 -16.45 -6.4 -17.35 -5.4 -16.4 -3.6 -15.55 -3.2 -15.55 -3.0 -14.55" fill="url(#gradient1)" fill-rule="evenodd" stroke="none"/>
    <path d="M-2.6 -7.4 L-4.4 -9.7 -4.4 -11.85 -3.05 -11.85 Q-3.35 -9.2 -0.8 -10.1 L-0.8 -7.4 -2.6 -7.4" fill="url(#gradient2)" fill-rule="evenodd" stroke="none"/>
    <path d="M-3.6 -27.05 Q-2.7 -28.0 -1.85 -28.1 L-1.15 -31.2 Q1.45 -33.35 3.5 -30.6 L3.55 -28.15 Q5.55 -27.3 6.7 -25.05 M6.55 -9.8 Q5.95 -7.8 5.8 -6.2 6.45 -4.55 5.8 -2.8 4.6 -1.5 1.75 -1.45 -0.7 -1.35 -1.9 -2.9 L-2.6 -6.2 -2.6 -7.4" fill="none" stroke="#0f0f0f" stroke-linecap="round" stroke-linejoin="round" stroke-width="1.0"/>
    <path d="M6.0 -17.4 L8.3 -14.45 Q6.2 -10.0 6.3 -5.35 4.6 -4.4 2.25 -5.8 L1.55 -11.75 3.4 -16.2 6.0 -17.4" fill="url(#gradient3)" fill-rule="evenodd" stroke="none"/>
    <path d="M8.3 -14.45 Q9.35 -14.55 10.75 -16.75 12.15 -18.95 10.95 -21.2 9.7 -23.55 6.7 -25.05 L4.6 -21.8 6.6 -19.3 6.0 -17.4 8.3 -14.45 Q6.2 -10.0 6.3 -5.35 4.6 -4.4 2.25 -5.8 L1.55 -11.75 3.4 -16.2 6.0 -17.4" fill="none" stroke="#022e33" stroke-linecap="round" stroke-linejoin="round" stroke-width="1.0"/>
    <path d="M-6.5 -16.8 L-8.8 -18.75 Q-9.65 -20.9 -9.15 -23.6 -8.7 -26.3 -7.3 -27.2 L-3.7 -27.4 -3.7 -21.15 -0.8 -17.85 -0.8 -15.1 -3.7 -15.1 -6.5 -16.8" fill="url(#gradient4)" fill-rule="evenodd" stroke="none"/>
    <path d="M-0.8 -15.1 L-1.7 -10.9 -2.5 -11.7 -4.5 -11.7 -7.0 -13.9 -6.5 -16.8 -3.7 -15.1 -0.8 -15.1" fill="url(#gradient5)" fill-rule="evenodd" stroke="none"/>
    <path d="M-1.7 -10.9 L-0.9 -10.1 -0.9 -7.6 -2.7 -7.6 -4.5 -9.75 -4.5 -11.7 -2.5 -11.7 -1.7 -10.9" fill="url(#gradient6)" fill-rule="evenodd" stroke="none"/>
    <path d="M-6.5 -16.8 L-8.8 -18.75 Q-9.65 -20.9 -9.15 -23.6 -8.7 -26.3 -7.3 -27.2 L-3.7 -27.4 -3.7 -21.15 -0.8 -17.85 -0.8 -15.1 -1.7 -10.9 -0.9 -10.1 -0.9 -7.6 -2.7 -7.6 -4.5 -9.75 -4.5 -11.7 -7.0 -13.9 -6.5 -16.8 -3.7 -15.1 -0.8 -15.1 M-4.5 -11.7 L-2.5 -11.7 -1.7 -10.9" fill="none" stroke="#022e33" stroke-linecap="round" stroke-linejoin="round" stroke-width="1.0"/>
  </g>
  <defs>
    <radialGradient cx="0" cy="0" gradientTransform="matrix(0.008, 0.0, 0.0, 0.0087, 10.15, -21.25)" gradientUnits="userSpaceOnUse" id="gradient0" r="819.2" spreadMethod="pad">
      <stop offset="0.0" stop-color="#e8c06f"/>
      <stop offset="1.0" stop-color="#02b1c3"/>
      <stop offset="1.0" stop-color="#2c1b38"/>
    </radialGradient>
    <radialGradient cx="0" cy="0" gradientTransform="matrix(0.0072, 0.0, 0.0, 0.0078, -4.8, -14.45)" gradientUnits="userSpaceOnUse" id="gradient1" r="819.2" spreadMethod="pad">
      <stop offset="0.0" stop-color="#cccccc"/>
      <stop offset="1.0" stop-color="#3c3c3c"/>
      <stop offset="1.0" stop-color="#666666"/>
      <stop offset="1.0" stop-color="#666666"/>
    </radialGradient>
    <radialGradient cx="0" cy="0" gradientTransform="matrix(0.0053, 0.0, 0.0, 0.0058, -4.6, -9.85)" gradientUnits="userSpaceOnUse" id="gradient2" r="819.2" spreadMethod="pad">
      <stop offset="0.0" stop-color="#cccccc"/>
      <stop offset="1.0" stop-color="#3c3c3c"/>
      <stop offset="1.0" stop-color="#666666"/>
      <stop offset="1.0" stop-color="#666666"/>
    </radialGradient>
    <linearGradient gradientTransform="matrix(0.0039, 0.0, 0.0, 0.0076, 4.7, -11.2)" gradientUnits="userSpaceOnUse" id="gradient3" spreadMethod="pad" x1="-819.2" x2="819.2">
      <stop offset="0.0" stop-color="#e8c06f"/>
      <stop offset="1.0" stop-color="#02b1c3"/>
      <stop offset="1.0" stop-color="#2c1b38"/>
    </linearGradient>
    <linearGradient gradientTransform="matrix(0.0058, 0.0, 0.0, 0.0074, -5.55, -21.15)" gradientUnits="userSpaceOnUse" id="gradient4" spreadMethod="pad" x1="-819.2" x2="819.2">
      <stop offset="0.0" stop-color="#e8c06f"/>
      <stop offset="1.0" stop-color="#02b1c3"/>
      <stop offset="1.0" stop-color="#2c1b38"/>
    </linearGradient>
    <linearGradient gradientTransform="matrix(0.0044, 0.0, 0.0, 0.0031, -3.45, -14.25)" gradientUnits="userSpaceOnUse" id="gradient5" spreadMethod="pad" x1="-819.2" x2="819.2">
      <stop offset="0.0" stop-color="#e8c06f"/>
      <stop offset="1.0" stop-color="#02b1c3"/>
      <stop offset="1.0" stop-color="#2c1b38"/>
    </linearGradient>
    <linearGradient gradientTransform="matrix(0.0022, 0.0, 0.0, 0.0025, -2.7, -9.65)" gradientUnits="userSpaceOnUse" id="gradient6" spreadMethod="pad" x1="-819.2" x2="819.2">
      <stop offset="0.0" stop-color="#e8c06f"/>
      <stop offset="1.0" stop-color="#02b1c3"/>
      <stop offset="1.0" stop-color="#2c1b38"/>
    </linearGradient>
  </defs>
</svg>
