<?xml version="1.0" encoding="UTF-8" standalone="no"?>
<svg xmlns:ffdec="https://www.free-decompiler.com/flash" xmlns:xlink="http://www.w3.org/1999/xlink" ffdec:objectType="shape" height="31.8px" width="28.4px" xmlns="http://www.w3.org/2000/svg">
  <g transform="matrix(1.0, 0.0, 0.0, 1.0, 4.0, 3.3)">
    <path d="M8.85 2.0 L8.9 1.95 8.95 1.95 8.9 2.0 8.85 2.0 M17.35 4.05 L18.95 4.5 17.3 4.05 17.35 4.05 M9.9 1.8 L9.65 1.85 9.25 1.95 9.9 1.8 M8.9 1.95 L8.9 2.0 8.9 1.95" fill="#323a27" fill-rule="evenodd" stroke="none"/>
    <path d="M6.1 23.25 L7.2 23.05 6.1 23.25" fill="#4e5b3d" fill-rule="evenodd" stroke="none"/>
    <path d="M9.5 23.6 L10.05 25.0 10.45 26.6 9.5 23.6" fill="#61704c" fill-rule="evenodd" stroke="none"/>
    <path d="M7.8 2.15 L8.0 2.1 8.5 2.05 8.85 2.0 8.9 2.0 8.5 2.05 7.7 2.2 7.8 2.15" fill="#2f321f" fill-rule="evenodd" stroke="none"/>
    <path d="M19.05 22.65 L20.0 23.35 Q19.95 25.4 18.95 26.8 L17.55 26.55 16.2 26.3 16.2 25.0 16.2 23.15 19.05 22.65 M8.85 26.6 L7.25 26.6 Q5.9 25.2 6.1 23.25 L7.2 23.05 9.5 23.6 10.45 26.6 8.85 26.6" fill="#333333" fill-rule="evenodd" stroke="none"/>
    <path d="M16.15 13.1 L18.55 13.85 19.25 15.2 9.25 17.55 8.55 14.85 16.15 13.1 M19.8 18.35 Q19.75 20.85 19.05 22.65 L16.2 23.15 16.2 25.0 Q12.95 25.7 10.05 25.0 L9.5 23.6 7.2 23.05 Q6.85 21.65 6.8 20.3 L8.15 20.7 8.7 19.1 12.05 20.1 16.25 18.35 19.8 18.35 M7.25 4.7 L7.35 2.7 7.15 2.45 7.7 2.2 8.5 2.05 15.05 5.0 17.95 6.15 15.65 6.65 15.65 7.9 8.9 4.7 7.25 4.7 M7.65 2.55 L7.35 2.7 7.65 2.55" fill="#252525" fill-rule="evenodd" stroke="none"/>
    <path d="M16.15 12.7 L16.15 13.1 8.55 14.85 6.75 13.5 5.05 13.85 5.2 12.5 5.2 8.4 7.25 4.7 8.9 4.7 15.65 7.9 15.6 9.6 15.55 12.5 16.15 12.7 M19.25 15.2 L19.5 15.65 21.0 15.95 20.3 18.35 19.8 18.35 16.25 18.35 12.05 20.1 8.7 19.1 9.25 17.55 19.25 15.2 M17.55 26.55 L15.4 27.75 Q12.85 28.25 10.25 27.75 L8.85 26.6 10.45 26.6 10.05 25.0 Q12.95 25.7 16.2 25.0 L16.2 26.3 17.55 26.55 M18.95 4.5 L19.25 4.95 18.75 5.95 17.95 6.15 15.05 5.0 16.05 4.95 17.3 4.05 18.95 4.5" fill="#1c1c1c" fill-rule="evenodd" stroke="none"/>
    <path d="M6.8 20.3 L4.4 19.6 3.0 15.95 4.9 15.25 5.05 13.85 6.75 13.5 8.55 14.85 9.25 17.55 8.7 19.1 8.15 20.7 6.8 20.3 M6.35 18.4 L5.7 16.25 6.35 18.4" fill="#313131" fill-rule="evenodd" stroke="none"/>
    <path d="M8.75 1.35 L8.8 1.25 Q9.2 0.8 11.15 0.75 L17.9 1.6 17.9 3.6 17.35 4.05 17.3 4.05 16.05 4.95 15.05 5.0 8.5 2.05 8.9 2.0 8.95 1.95 Q8.6 1.55 8.75 1.35 M9.9 1.8 L9.25 1.95 9.65 1.85 9.9 1.8" fill="#171717" fill-rule="evenodd" stroke="none"/>
    <path d="M23.9 6.6 L23.9 12.35 21.5 11.5 21.5 10.75 21.5 7.35 23.9 6.6" fill="#b11818" fill-rule="evenodd" stroke="none"/>
    <path d="M22.9 3.7 L23.9 5.4 23.9 6.55 22.05 4.95 19.25 4.95 19.8 3.7 20.05 3.7 22.9 3.7 M23.9 13.75 L23.9 14.3 23.1 16.25 19.5 15.55 18.7 13.95 22.65 14.9 23.9 13.75" fill="#511313" fill-rule="evenodd" stroke="none"/>
    <path d="M19.25 4.95 L22.05 4.95 23.9 6.55 23.9 6.6 21.5 7.35 21.5 10.75 21.5 11.5 23.9 12.35 23.9 13.75 22.65 14.9 18.7 13.95 18.4 13.4 16.15 12.7 15.55 12.5 15.6 9.6 21.5 10.75 15.6 9.6 15.65 7.9 15.65 6.65 17.95 6.15 18.75 5.95 19.25 4.95" fill="#1e1e1e" fill-rule="evenodd" stroke="none"/>
    <path d="M8.0 2.1 L8.5 2.05 8.85 2.0 M17.35 4.05 L18.95 4.5" fill="none" stroke="#181c14" stroke-linecap="round" stroke-linejoin="round" stroke-width="1.0"/>
    <path d="M6.1 23.25 L7.2 23.05" fill="none" stroke="#272e1e" stroke-linecap="round" stroke-linejoin="round" stroke-width="1.0"/>
    <path d="M20.05 3.7 L19.8 3.7" fill="none" stroke="#212317" stroke-linecap="round" stroke-linejoin="round" stroke-width="1.0"/>
    <path d="M5.7 16.25 L6.35 18.4" fill="none" stroke="#202020" stroke-linecap="round" stroke-linejoin="round" stroke-width="1.0"/>
    <path d="M22.9 3.7 L20.05 3.7" fill="none" stroke="#101010" stroke-linecap="round" stroke-linejoin="round" stroke-width="1.0"/>
    <path d="M23.9 6.6 L23.9 12.35" fill="none" stroke="#8a1010" stroke-linecap="round" stroke-linejoin="round" stroke-width="1.0"/>
    <path d="M21.5 10.75 L15.6 9.6" fill="none" stroke="#121212" stroke-linecap="round" stroke-linejoin="round" stroke-width="1.0"/>
    <path d="M23.9 6.55 L23.9 5.4 22.9 3.7 M19.8 3.7 L19.25 4.95 18.75 5.95 17.95 6.15 15.65 6.65 15.65 7.9 15.6 9.6 15.55 12.5 16.15 12.7 18.4 13.4 18.7 13.95 19.5 15.55 23.1 16.25 23.9 14.3 23.9 13.75 23.9 12.35 21.5 11.5 21.5 10.75 21.5 7.35 23.9 6.6 23.9 6.55 M21.0 15.95 L20.3 18.35 19.8 18.35 Q19.75 20.85 19.05 22.65 L20.0 23.35 Q19.95 25.4 18.95 26.8 L17.55 26.55 15.4 27.75 Q12.85 28.25 10.25 27.75 L8.85 26.6 7.25 26.6 Q5.9 25.2 6.1 23.25 L7.2 23.05 Q6.85 21.65 6.8 20.3 L4.4 19.6 3.0 15.95 4.9 15.25 5.05 13.85 5.2 12.5 5.2 8.4 7.25 4.7 7.35 2.7 7.15 2.45 7.1 2.35 6.9 2.05 7.8 2.15 8.0 2.1 M8.9 1.95 Q8.6 1.55 8.75 1.35 L8.8 1.25 Q9.2 0.8 11.15 0.75 L17.9 1.6 17.9 3.6 17.35 4.05 17.3 4.05 18.95 4.5 19.25 4.95 M15.05 5.0 L16.05 4.95 17.3 4.05 M15.05 5.0 L17.95 6.15 M7.7 2.2 L8.5 2.05 8.9 2.0 8.85 2.0 M7.8 2.15 L7.7 2.2 7.15 2.45 M8.95 1.95 Q8.6 1.55 8.75 1.35 M8.9 2.0 L8.9 1.95 M7.25 4.7 L8.9 4.7 15.65 7.9 M7.35 2.7 L7.65 2.55 M7.1 2.35 L7.7 2.2 M8.55 14.85 L9.25 17.55 19.25 15.2 M5.05 13.85 L6.75 13.5 8.55 14.85 16.15 13.1 M8.7 19.1 L8.15 20.7 6.8 20.3 M7.2 23.05 L9.5 23.6 10.45 26.6 8.85 26.6 M10.05 25.0 Q12.95 25.7 16.2 25.0 L16.2 23.15 19.05 22.65 M9.25 17.55 L8.7 19.1 12.05 20.1 16.25 18.35 19.8 18.35 M8.5 2.05 L15.05 5.0 M17.55 26.55 L16.2 26.3 16.2 25.0" fill="none" stroke="#040404" stroke-linecap="round" stroke-linejoin="round" stroke-width="1.0"/>
    <path d="M16.1 18.35 L16.1 17.85 19.0 17.25 19.3 17.95 16.1 18.35" fill="#232323" fill-rule="evenodd" stroke="none"/>
    <path d="M20.45 17.9 L22.0 17.9 20.45 17.9 M22.0 17.9 Q22.85 20.45 21.75 23.05 L19.8 23.05 Q20.8 20.05 19.8 17.2 L21.75 17.2 22.0 17.9 M19.3 17.95 Q20.1 20.35 19.0 23.0 L16.2 23.0 8.65 22.65 7.05 22.15 6.8 20.3 8.65 20.3 16.1 18.6 16.1 18.35 19.3 17.95 M16.1 18.6 L16.2 23.0 16.1 18.6 M8.65 22.65 L8.65 20.3 8.65 22.65" fill="#121212" fill-rule="evenodd" stroke="none"/>
    <path d="M22.0 17.9 L20.45 17.9 M19.3 17.95 L16.1 18.35" fill="none" stroke="#511313" stroke-linecap="round" stroke-linejoin="round" stroke-width="1.0"/>
    <path d="M22.0 17.9 L21.75 17.2 19.8 17.2 Q20.8 20.05 19.8 23.05 L21.75 23.05 Q22.85 20.45 22.0 17.9 M19.3 17.95 Q20.1 20.35 19.0 23.0 L16.2 23.0 8.65 22.65 7.05 22.15 6.8 20.3 8.65 20.3 16.1 18.6 16.1 18.35 16.1 17.85 19.0 17.25 19.3 17.95 M8.65 20.3 L8.65 22.65 M16.2 23.0 L16.1 18.6" fill="none" stroke="#040404" stroke-linecap="round" stroke-linejoin="round" stroke-width="1.0"/>
    <path d="M5.55 -0.9 L8.95 -1.35 14.7 2.9 15.05 4.8 10.05 4.4 7.4 7.8 6.4 7.65 5.4 7.6 5.55 -0.9 M6.75 13.3 L8.6 15.4 12.15 17.3 10.4 23.25 3.45 20.7 2.75 14.95 2.55 13.4 6.75 13.3 M10.7 0.65 L9.55 2.15 6.15 2.15 9.55 2.15 10.7 0.65 M8.2 20.75 L4.9 19.45 8.2 20.75 M7.5 18.6 L4.7 17.6 7.5 18.6" fill="#2a2a2a" fill-rule="evenodd" stroke="none"/>
    <path d="M5.55 -0.9 L5.4 7.6 6.4 7.65 6.75 13.3 2.55 13.4 2.75 14.95 0.35 14.3 -0.25 12.8 1.1 11.25 0.0 8.4 1.45 6.8 1.25 1.75 -1.45 0.75 -0.05 -1.7 2.15 -2.8 5.55 -0.9 M-3.0 5.55 L-3.5 4.35 -1.45 0.75 1.25 1.75 1.45 6.8 0.0 8.4 -1.15 5.55 -3.0 5.55 M3.6 2.25 L3.6 0.05 3.6 2.25 M3.5 4.7 L3.5 4.0 3.5 4.7" fill="#1e1e1e" fill-rule="evenodd" stroke="none"/>
    <path d="M-0.25 12.8 L-3.0 5.55 -1.15 5.55 0.0 8.4 1.1 11.25 -0.25 12.8" fill="#b11818" fill-rule="evenodd" stroke="none"/>
    <path d="M6.15 2.15 L9.55 2.15 10.7 0.65 M4.7 17.6 L7.5 18.6 M4.9 19.45 L8.2 20.75" fill="none" stroke="#1e1e1e" stroke-linecap="round" stroke-linejoin="round" stroke-width="1.0"/>
    <path d="M-0.25 12.8 L-3.0 5.55" fill="none" stroke="#8a1010" stroke-linecap="round" stroke-linejoin="round" stroke-width="1.0"/>
    <path d="M3.5 4.0 L3.5 4.7 M3.6 0.05 L3.6 2.25" fill="none" stroke="#b11818" stroke-linecap="round" stroke-linejoin="round" stroke-width="1.0"/>
    <path d="M6.4 7.65 L7.4 7.8 10.05 4.4 15.05 4.8 14.7 2.9 8.95 -1.35 5.55 -0.9 5.4 7.6 6.4 7.65 6.75 13.3 8.6 15.4 12.15 17.3 10.4 23.25 3.45 20.7 2.75 14.95 0.35 14.3 -0.25 12.8 1.1 11.25 0.0 8.4 1.45 6.8 1.25 1.75 -1.45 0.75 -0.05 -1.7 2.15 -2.8 5.55 -0.9 M-3.0 5.55 L-3.5 4.35 -1.45 0.75 M6.75 13.3 L2.55 13.4 2.75 14.95 M-3.0 5.55 L-1.15 5.55 0.0 8.4" fill="none" stroke="#020202" stroke-linecap="round" stroke-linejoin="round" stroke-width="1.0"/>
  </g>
</svg>
