<?xml version="1.0" encoding="UTF-8" standalone="no"?>
<svg xmlns:ffdec="https://www.free-decompiler.com/flash" xmlns:xlink="http://www.w3.org/1999/xlink" ffdec:objectType="shape" height="30.1px" width="30.35px" xmlns="http://www.w3.org/2000/svg">
  <g transform="matrix(1.0, 0.0, 0.0, 1.0, 0.5, 3.2)">
    <path d="M20.35 11.0 L20.4 11.1 20.65 11.0 20.8 10.95 21.55 10.75 Q22.65 10.7 23.45 11.45 24.3 12.15 24.35 13.25 24.45 14.35 23.7 15.15 L22.7 15.9 23.85 18.05 24.1 18.5 26.1 18.75 24.7 20.6 19.3 19.2 19.8 18.1 Q20.85 18.55 22.05 18.45 L23.85 18.05 22.05 18.45 Q20.85 18.55 19.8 18.1 L18.2 17.15 17.7 16.6 12.3 16.85 11.35 15.55 10.15 13.85 10.2 13.75 10.55 12.4 10.75 11.65 16.75 11.25 20.35 11.0 M20.4 11.1 L19.7 11.65 Q19.0 12.5 19.05 13.6 19.15 14.7 19.95 15.4 20.8 16.1 21.9 16.05 L22.7 15.9 21.9 16.05 Q20.8 16.1 19.95 15.4 19.15 14.7 19.05 13.6 19.0 12.5 19.7 11.65 L20.4 11.1 M16.75 11.25 Q16.35 12.3 16.4 13.45 16.55 15.35 17.7 16.6 16.55 15.35 16.4 13.45 16.35 12.3 16.75 11.25" fill="#191919" fill-rule="evenodd" stroke="none"/>
    <path d="M20.65 11.0 L20.35 11.0 19.15 7.8 18.9 7.2 24.85 6.95 Q27.95 8.1 29.3 10.5 29.55 14.85 27.85 18.95 L26.1 18.75 24.1 18.5 23.85 18.05 22.7 15.9 23.7 15.15 Q24.45 14.35 24.35 13.25 24.3 12.15 23.45 11.45 22.65 10.7 21.55 10.75 L20.8 10.95 20.65 11.0" fill="url(#gradient0)" fill-rule="evenodd" stroke="none"/>
    <path d="M19.15 7.8 L20.35 11.0 16.75 11.25 10.75 11.65 9.45 11.7 9.95 10.55 10.7 8.8 12.45 8.45 13.9 8.25 19.15 7.8 M13.5 9.75 L11.85 9.85 13.5 9.75 M17.15 9.55 L15.5 9.65 17.15 9.55" fill="url(#gradient1)" fill-rule="evenodd" stroke="none"/>
    <path d="M9.95 10.55 L9.45 11.7 10.75 11.65 10.55 12.4 3.85 11.4 2.15 9.55 9.95 10.55" fill="url(#gradient2)" fill-rule="evenodd" stroke="none"/>
    <path d="M11.35 15.55 L2.1 15.15 0.0 13.5 10.2 13.75 10.15 13.85 11.35 15.55" fill="url(#gradient3)" fill-rule="evenodd" stroke="none"/>
    <path d="M19.8 18.1 L19.3 19.2 19.05 19.65 18.8 19.65 17.05 19.5 14.9 19.1 14.85 19.1 12.85 18.6 11.55 18.15 12.3 16.85 17.7 16.6 18.2 17.15 19.8 18.1" fill="url(#gradient4)" fill-rule="evenodd" stroke="none"/>
    <path d="M12.85 18.6 L14.85 19.1 8.9 25.7 6.3 26.05 12.85 18.6" fill="url(#gradient5)" fill-rule="evenodd" stroke="none"/>
    <path d="M17.05 19.5 L18.8 19.65 16.9 23.5 16.1 23.65 15.4 22.3 16.1 23.65 16.9 23.5 16.4 24.45 13.8 25.0 15.4 22.3 17.05 19.5" fill="url(#gradient6)" fill-rule="evenodd" stroke="none"/>
    <path d="M14.5 6.95 L14.6 6.8 Q15.5 5.45 16.35 5.15 L17.0 5.05 17.25 4.55 Q17.75 3.8 18.35 3.4 19.1 2.9 20.85 3.15 L21.75 3.4 Q22.45 3.75 22.75 4.8 L23.25 6.4 M16.9 23.5 L17.85 23.3 18.35 25.15 Q18.45 25.75 18.85 26.1 19.3 26.5 19.75 26.4 20.7 26.25 21.0 24.8 L21.15 22.35 21.0 19.9 M20.25 6.65 L19.85 6.15 18.5 5.4 17.0 5.05 Q16.25 6.5 16.5 7.55 M14.5 6.95 L13.9 8.25 M14.9 19.1 L15.15 21.4 15.4 22.3 16.1 23.65 16.9 23.5" fill="none" stroke="#181817" stroke-linecap="round" stroke-linejoin="round" stroke-width="1.0"/>
    <path d="M20.35 11.0 L20.4 11.1 20.65 11.0 20.35 11.0 M22.7 15.9 L21.9 16.05 Q20.8 16.1 19.95 15.4 19.15 14.7 19.05 13.6 19.0 12.5 19.7 11.65 L20.4 11.1 M23.85 18.05 L22.05 18.45 Q20.85 18.55 19.8 18.1 L18.2 17.15 17.7 16.6 Q16.55 15.35 16.4 13.45 16.35 12.3 16.75 11.25 M19.3 19.2 L24.7 20.6 26.1 18.75 M9.95 10.55 L2.15 9.55 3.85 11.4 10.55 12.4 10.75 11.65 M10.2 13.75 L0.0 13.5 2.1 15.15 11.35 15.55 10.15 13.85 10.2 13.75 10.55 12.4 M12.85 18.6 L14.85 19.1 8.9 25.7 6.3 26.05 12.85 18.6 M18.8 19.65 L19.05 19.65 19.3 19.2 M11.35 15.55 L12.3 16.85 M15.4 22.3 L17.05 19.5 M16.9 23.5 L18.8 19.65 M15.4 22.3 L13.8 25.0 16.4 24.45 16.9 23.5" fill="none" stroke="#0e0e0e" stroke-linecap="round" stroke-linejoin="round" stroke-width="1.0"/>
    <path d="M20.35 11.0 L19.15 7.8 13.9 8.25 12.45 8.45 10.7 8.8 9.95 10.55 9.45 11.7 10.75 11.65 16.75 11.25 20.35 11.0 M20.65 11.0 L20.8 10.95 21.55 10.75 Q22.65 10.7 23.45 11.45 24.3 12.15 24.35 13.25 24.45 14.35 23.7 15.15 L22.7 15.9 23.85 18.05 24.1 18.5 26.1 18.75 27.85 18.95 Q29.55 14.85 29.3 10.5 27.95 8.1 24.85 6.95 L18.9 7.2 19.15 7.8 M19.8 18.1 L19.3 19.2 M11.85 9.85 L13.5 9.75 M15.5 9.65 L17.15 9.55 M17.7 16.6 L12.3 16.85 11.55 18.15 12.85 18.6 M14.85 19.1 L14.9 19.1 17.05 19.5 18.8 19.65" fill="none" stroke="#151515" stroke-linecap="round" stroke-linejoin="round" stroke-width="1.0"/>
    <path d="M14.5 6.95 L14.95 7.55 M8.9 4.7 L12.45 8.45 M7.2 -2.7 L14.5 6.95" fill="none" stroke="#0e0e0e" stroke-linecap="round" stroke-linejoin="round" stroke-opacity="0.49803922" stroke-width="1.0"/>
  </g>
  <defs>
    <radialGradient cx="0" cy="0" gradientTransform="matrix(0.0141, 0.0, 0.0, 0.0141, 21.5, 9.8)" gradientUnits="userSpaceOnUse" id="gradient0" r="819.2" spreadMethod="pad">
      <stop offset="0.0" stop-color="#333333"/>
      <stop offset="1.0" stop-color="#1c1c1c"/>
    </radialGradient>
    <radialGradient cx="0" cy="0" gradientTransform="matrix(0.0086, 0.0, 0.0, 0.0086, 15.95, 9.0)" gradientUnits="userSpaceOnUse" id="gradient1" r="819.2" spreadMethod="pad">
      <stop offset="0.0" stop-color="#333333"/>
      <stop offset="1.0" stop-color="#1c1c1c"/>
    </radialGradient>
    <radialGradient cx="0" cy="0" gradientTransform="matrix(0.0024, 0.0, 0.0, 0.0059, 6.85, 10.7)" gradientUnits="userSpaceOnUse" id="gradient2" r="819.2" spreadMethod="pad">
      <stop offset="0.0" stop-color="#333333"/>
      <stop offset="1.0" stop-color="#191919"/>
    </radialGradient>
    <radialGradient cx="0" cy="0" gradientTransform="matrix(0.0024, 0.0, 0.0, 0.0086, 7.0, 14.5)" gradientUnits="userSpaceOnUse" id="gradient3" r="819.2" spreadMethod="pad">
      <stop offset="0.0" stop-color="#333333"/>
      <stop offset="1.0" stop-color="#191919"/>
    </radialGradient>
    <radialGradient cx="0" cy="0" gradientTransform="matrix(0.0051, 0.0, 0.0, 0.0051, 15.75, 18.25)" gradientUnits="userSpaceOnUse" id="gradient4" r="819.2" spreadMethod="pad">
      <stop offset="0.0" stop-color="#333333"/>
      <stop offset="1.0" stop-color="#1c1c1c"/>
    </radialGradient>
    <radialGradient cx="0" cy="0" gradientTransform="matrix(0.0017, -0.0017, 0.0069, 0.0067, 12.1, 20.6)" gradientUnits="userSpaceOnUse" id="gradient5" r="819.2" spreadMethod="pad">
      <stop offset="0.0" stop-color="#333333"/>
      <stop offset="1.0" stop-color="#191919"/>
    </radialGradient>
    <radialGradient cx="0" cy="0" gradientTransform="matrix(0.0011, -0.0021, 0.0045, 0.0023, 16.8, 22.1)" gradientUnits="userSpaceOnUse" id="gradient6" r="819.2" spreadMethod="pad">
      <stop offset="0.0" stop-color="#333333"/>
      <stop offset="1.0" stop-color="#191919"/>
    </radialGradient>
  </defs>
</svg>
