<?xml version="1.0" encoding="UTF-8" standalone="no"?>
<svg xmlns:xlink="http://www.w3.org/1999/xlink" height="13.95px" width="38.3px" xmlns="http://www.w3.org/2000/svg">
  <g transform="matrix(1.0, 0.0, 0.0, 1.0, 6.25, 5.1)">
    <path d="M3.85 -4.6 L5.8 -3.3 31.55 -3.3 31.55 6.15 29.8 7.1 28.9 5.65 20.65 8.35 16.55 3.7 0.0 3.7 -3.85 2.25 -5.75 -0.45 -2.6 -4.6 3.85 -4.6" fill="#738aa1" fill-rule="evenodd" stroke="none"/>
    <path d="M3.85 -4.6 L5.8 -3.3 31.55 -3.3 31.55 6.15 29.8 7.1 28.9 5.65 20.65 8.35 16.55 3.7 0.0 3.7 -3.85 2.25 -5.75 -0.45 -2.6 -4.6 3.85 -4.6 Z" fill="none" stroke="#424651" stroke-linecap="round" stroke-linejoin="round" stroke-width="1.0"/>
  </g>
</svg>
