<?xml version="1.0" encoding="UTF-8" standalone="no"?>
<svg xmlns:ffdec="https://www.free-decompiler.com/flash" xmlns:xlink="http://www.w3.org/1999/xlink" ffdec:objectType="shape" height="30.1px" width="30.35px" xmlns="http://www.w3.org/2000/svg">
  <g transform="matrix(1.0, 0.0, 0.0, 1.0, 0.5, 3.65)">
    <path d="M20.35 10.55 L20.4 10.65 20.65 10.55 20.8 10.5 21.55 10.3 Q22.65 10.25 23.45 11.0 24.3 11.7 24.35 12.8 24.45 13.9 23.7 14.7 L22.7 15.45 23.85 17.6 24.1 18.05 26.1 18.3 24.7 20.15 19.3 18.75 19.8 17.65 Q20.85 18.1 22.05 18.0 L23.85 17.6 22.05 18.0 Q20.85 18.1 19.8 17.65 L18.2 16.7 17.7 16.15 12.3 16.4 11.35 15.1 10.15 13.4 10.2 13.3 10.55 11.95 10.75 11.2 16.75 10.8 20.35 10.55 M20.4 10.65 L19.7 11.2 Q19.0 12.05 19.05 13.15 19.15 14.25 19.95 14.95 20.8 15.65 21.9 15.6 L22.7 15.45 21.9 15.6 Q20.8 15.65 19.95 14.95 19.15 14.25 19.05 13.15 19.0 12.05 19.7 11.2 L20.4 10.65 M16.75 10.8 Q16.35 11.85 16.4 13.0 16.55 14.9 17.7 16.15 16.55 14.9 16.4 13.0 16.35 11.85 16.75 10.8" fill="#191919" fill-rule="evenodd" stroke="none"/>
    <path d="M20.65 10.55 L20.35 10.55 19.15 7.35 18.9 6.75 24.85 6.5 Q27.95 7.65 29.3 10.05 29.55 14.4 27.85 18.5 L26.1 18.3 24.1 18.05 23.85 17.6 22.7 15.45 23.7 14.7 Q24.45 13.9 24.35 12.8 24.3 11.7 23.45 11.0 22.65 10.25 21.55 10.3 L20.8 10.5 20.65 10.55" fill="url(#gradient0)" fill-rule="evenodd" stroke="none"/>
    <path d="M19.15 7.35 L20.35 10.55 16.75 10.8 10.75 11.2 9.45 11.25 9.95 10.1 10.7 8.35 12.45 8.0 13.9 7.8 19.15 7.35 M13.5 9.3 L11.85 9.4 13.5 9.3 M17.15 9.1 L15.5 9.2 17.15 9.1" fill="url(#gradient1)" fill-rule="evenodd" stroke="none"/>
    <path d="M9.95 10.1 L9.45 11.25 10.75 11.2 10.55 11.95 3.85 10.95 2.15 9.1 9.95 10.1" fill="url(#gradient2)" fill-rule="evenodd" stroke="none"/>
    <path d="M10.2 13.3 L10.15 13.4 11.35 15.1 2.1 14.7 0.0 13.05 10.2 13.3" fill="url(#gradient3)" fill-rule="evenodd" stroke="none"/>
    <path d="M19.8 17.65 L19.3 18.75 19.05 19.2 18.8 19.2 17.05 19.05 14.9 18.65 14.85 18.65 12.85 18.15 11.55 17.7 12.3 16.4 17.7 16.15 18.2 16.7 19.8 17.65" fill="url(#gradient4)" fill-rule="evenodd" stroke="none"/>
    <path d="M17.05 19.05 L18.8 19.2 16.9 23.05 16.1 23.2 15.4 21.85 16.1 23.2 16.9 23.05 16.4 24.0 13.8 24.55 15.4 21.85 17.05 19.05" fill="url(#gradient5)" fill-rule="evenodd" stroke="none"/>
    <path d="M12.85 18.15 L14.85 18.65 8.9 25.25 6.3 25.6 12.85 18.15" fill="url(#gradient6)" fill-rule="evenodd" stroke="none"/>
    <path d="M14.5 6.5 L14.6 6.35 Q15.5 5.0 16.35 4.7 L17.0 4.6 17.25 4.1 Q17.75 3.35 18.35 2.95 19.1 2.45 20.85 2.7 L21.75 2.95 Q22.45 3.3 22.75 4.35 L23.25 5.95 M16.9 23.05 L17.85 22.85 18.35 24.7 Q18.45 25.3 18.85 25.65 19.3 26.05 19.75 25.95 20.7 25.8 21.0 24.35 L21.15 21.9 21.0 19.45 M20.25 6.2 L19.85 5.7 18.5 4.95 17.0 4.6 Q16.25 6.05 16.5 7.1 M14.5 6.5 L13.9 7.8 M14.9 18.65 L15.15 20.95 15.4 21.85 16.1 23.2 16.9 23.05" fill="none" stroke="#181817" stroke-linecap="round" stroke-linejoin="round" stroke-width="1.0"/>
    <path d="M20.35 10.55 L20.4 10.65 20.65 10.55 20.35 10.55 M23.85 17.6 L22.05 18.0 Q20.85 18.1 19.8 17.65 L18.2 16.7 17.7 16.15 Q16.55 14.9 16.4 13.0 16.35 11.85 16.75 10.8 M19.3 18.75 L24.7 20.15 26.1 18.3 M22.7 15.45 L21.9 15.6 Q20.8 15.65 19.95 14.95 19.15 14.25 19.05 13.15 19.0 12.05 19.7 11.2 L20.4 10.65 M10.75 11.2 L10.55 11.95 10.2 13.3 10.15 13.4 11.35 15.1 12.3 16.4 M9.95 10.1 L2.15 9.1 3.85 10.95 10.55 11.95 M10.2 13.3 L0.0 13.05 2.1 14.7 11.35 15.1 M18.8 19.2 L19.05 19.2 19.3 18.75 M15.4 21.85 L17.05 19.05 M16.9 23.05 L18.8 19.2 M15.4 21.85 L13.8 24.55 16.4 24.0 16.9 23.05 M14.85 18.65 L12.85 18.15 6.3 25.6 8.9 25.25 14.85 18.65" fill="none" stroke="#0e0e0e" stroke-linecap="round" stroke-linejoin="round" stroke-width="1.0"/>
    <path d="M20.35 10.55 L19.15 7.35 13.9 7.8 12.45 8.0 10.7 8.35 9.95 10.1 9.45 11.25 10.75 11.2 16.75 10.8 20.35 10.55 M20.65 10.55 L20.8 10.5 21.55 10.3 Q22.65 10.25 23.45 11.0 24.3 11.7 24.35 12.8 24.45 13.9 23.7 14.7 L22.7 15.45 23.85 17.6 24.1 18.05 26.1 18.3 27.85 18.5 Q29.55 14.4 29.3 10.05 27.95 7.65 24.85 6.5 L18.9 6.75 19.15 7.35 M19.8 17.65 L19.3 18.75 M12.3 16.4 L17.7 16.15 M11.85 9.4 L13.5 9.3 M15.5 9.2 L17.15 9.1 M12.85 18.15 L11.55 17.7 12.3 16.4 M14.85 18.65 L14.9 18.65 17.05 19.05 18.8 19.2" fill="none" stroke="#151515" stroke-linecap="round" stroke-linejoin="round" stroke-width="1.0"/>
    <path d="M14.5 6.5 L14.95 7.1 M8.9 4.25 L12.45 8.0 M7.2 -3.15 L14.5 6.5" fill="none" stroke="#0e0e0e" stroke-linecap="round" stroke-linejoin="round" stroke-opacity="0.49803922" stroke-width="1.0"/>
  </g>
  <defs>
    <radialGradient cx="0" cy="0" gradientTransform="matrix(0.0141, 0.0, 0.0, 0.0141, 21.5, 9.35)" gradientUnits="userSpaceOnUse" id="gradient0" r="819.2" spreadMethod="pad">
      <stop offset="0.0" stop-color="#333333"/>
      <stop offset="1.0" stop-color="#1c1c1c"/>
    </radialGradient>
    <radialGradient cx="0" cy="0" gradientTransform="matrix(0.0086, 0.0, 0.0, 0.0086, 15.95, 8.55)" gradientUnits="userSpaceOnUse" id="gradient1" r="819.2" spreadMethod="pad">
      <stop offset="0.0" stop-color="#333333"/>
      <stop offset="1.0" stop-color="#1c1c1c"/>
    </radialGradient>
    <radialGradient cx="0" cy="0" gradientTransform="matrix(0.0024, 0.0, 0.0, 0.0059, 6.85, 10.25)" gradientUnits="userSpaceOnUse" id="gradient2" r="819.2" spreadMethod="pad">
      <stop offset="0.0" stop-color="#333333"/>
      <stop offset="1.0" stop-color="#191919"/>
    </radialGradient>
    <radialGradient cx="0" cy="0" gradientTransform="matrix(0.0024, 0.0, 0.0, 0.0086, 7.0, 14.05)" gradientUnits="userSpaceOnUse" id="gradient3" r="819.2" spreadMethod="pad">
      <stop offset="0.0" stop-color="#333333"/>
      <stop offset="1.0" stop-color="#191919"/>
    </radialGradient>
    <radialGradient cx="0" cy="0" gradientTransform="matrix(0.0051, 0.0, 0.0, 0.0051, 15.75, 17.8)" gradientUnits="userSpaceOnUse" id="gradient4" r="819.2" spreadMethod="pad">
      <stop offset="0.0" stop-color="#333333"/>
      <stop offset="1.0" stop-color="#1c1c1c"/>
    </radialGradient>
    <radialGradient cx="0" cy="0" gradientTransform="matrix(0.0011, -0.0021, 0.0045, 0.0023, 16.8, 21.65)" gradientUnits="userSpaceOnUse" id="gradient5" r="819.2" spreadMethod="pad">
      <stop offset="0.0" stop-color="#333333"/>
      <stop offset="1.0" stop-color="#191919"/>
    </radialGradient>
    <radialGradient cx="0" cy="0" gradientTransform="matrix(0.0017, -0.0017, 0.0069, 0.0067, 12.1, 20.15)" gradientUnits="userSpaceOnUse" id="gradient6" r="819.2" spreadMethod="pad">
      <stop offset="0.0" stop-color="#333333"/>
      <stop offset="1.0" stop-color="#191919"/>
    </radialGradient>
  </defs>
</svg>
