<?xml version="1.0" encoding="UTF-8" standalone="no"?>
<svg xmlns:ffdec="https://www.free-decompiler.com/flash" xmlns:xlink="http://www.w3.org/1999/xlink" ffdec:objectType="shape" height="28.25px" width="28.4px" xmlns="http://www.w3.org/2000/svg">
  <g transform="matrix(1.0, 0.0, 0.0, 1.0, 12.15, 4.95)">
    <path d="M-0.4 1.8 Q-0.65 -0.9 1.75 -3.05 5.7 -5.1 8.85 -3.1 L10.55 -1.55 12.85 0.85 Q14.5 2.35 15.05 5.25 15.5 8.05 14.3 9.7 13.0 11.4 11.95 14.25 L11.15 16.7 Q10.65 20.45 9.95 21.5 6.7 24.0 2.85 21.65 1.65 20.45 0.75 16.7 L0.4 13.05 -0.4 1.8" fill="#22222c" fill-rule="evenodd" stroke="none"/>
    <path d="M-0.4 1.8 L0.4 13.05 0.75 16.7 Q1.65 20.45 2.85 21.65 6.7 24.0 9.95 21.5 10.65 20.45 11.15 16.7 L11.95 14.25 Q13.0 11.4 14.3 9.7 15.5 8.05 15.05 5.25 14.5 2.35 12.85 0.85 L10.55 -1.55 8.85 -3.1 Q5.7 -5.1 1.75 -3.05 -0.65 -0.9 -0.4 1.8 Z" fill="none" stroke="#0c0d1c" stroke-linecap="round" stroke-linejoin="round" stroke-width="1.0"/>
    <path d="M3.0 17.2 L4.9 18.3 7.25 20.05 4.9 22.7 1.15 22.45 1.15 19.7 -1.15 17.2 3.0 17.2 M-6.0 -1.0 L-6.0 1.8 -11.65 -3.8 -8.4 -4.45 -2.9 -3.15 -6.0 -1.0" fill="#bbd6f0" fill-opacity="0.75686276" fill-rule="evenodd" stroke="none"/>
    <path d="M-6.0 -1.0 L-2.9 -3.15 -8.4 -4.45 -11.65 -3.8 -6.0 1.8 -6.0 -1.0 M3.0 17.2 L-1.15 17.2 1.15 19.7 1.15 22.45 4.9 22.7 7.25 20.05 4.9 18.3 3.0 17.2 Z" fill="none" stroke="#99adcb" stroke-linecap="round" stroke-linejoin="round" stroke-opacity="0.5294118" stroke-width="1.0"/>
    <path d="M3.75 1.75 L2.45 -1.3 4.8 -1.3 5.85 -1.3 7.85 -0.25 7.85 -0.2 11.1 1.2 13.15 -0.15 15.3 2.15 15.7 3.4 14.7 3.9 12.45 4.9 12.45 7.5 9.15 5.7 7.4 5.7 3.75 1.75" fill="#2f3d46" fill-rule="evenodd" stroke="none"/>
    <path d="M0.8 -2.4 L2.6 -3.65 4.8 -1.3 2.45 -1.3 3.75 1.75 5.05 4.85 3.45 7.75 0.9 7.5 -0.95 5.15 0.15 4.8 -2.25 3.1 -3.2 1.65 0.15 0.1 -1.0 -1.2 0.8 -2.4 M-5.2 4.5 L-6.15 4.3 -9.15 -1.55 -6.85 -1.05 -3.15 -0.25 -4.7 0.8 -5.35 2.6 -3.25 4.9 -5.2 4.5 M-5.55 -2.4 L-6.35 -2.55 -4.15 -4.45 -0.4 -3.5 -0.95 -3.2 -1.05 -3.05 -3.4 -2.05 -0.95 -3.2 -3.4 -2.05 -5.55 -2.4" fill="#252d31" fill-rule="evenodd" stroke="none"/>
    <path d="M0.8 -2.4 L-1.0 -1.2 0.15 0.1 -3.2 1.65 -2.25 3.1 0.15 4.8 -0.95 5.15 -2.05 5.5 -2.7 6.95 -4.0 6.95 -5.2 4.5 -3.25 4.9 -5.35 2.6 -4.7 0.8 -3.15 -0.25 -6.85 -1.05 -5.55 -2.4 -3.4 -2.05 -1.05 -3.05 -0.95 -3.2 0.8 -2.4" fill="url(#gradient0)" fill-rule="evenodd" stroke="none"/>
    <path d="M-1.55 14.05 L-2.3 12.4 -1.65 9.75 -0.5 10.65 1.35 13.15 0.3 14.5 -1.55 14.05" fill="url(#gradient1)" fill-rule="evenodd" stroke="none"/>
    <path d="M14.7 3.9 L15.75 7.0 14.8 9.95 12.45 9.1 12.45 7.5 12.45 4.9 14.7 3.9 M14.8 9.85 L14.8 9.95 14.8 9.85" fill="url(#gradient2)" fill-rule="evenodd" stroke="none"/>
    <path d="M-0.95 5.15 L0.9 7.5 3.45 7.75 4.1 9.0 2.7 11.25 4.15 13.75 5.55 13.75 7.85 15.4 7.85 15.45 8.25 15.7 7.85 16.4 7.85 16.55 7.85 16.6 6.85 18.55 3.95 17.85 1.9 17.85 1.85 17.65 0.15 17.45 -2.35 13.85 -1.55 14.05 0.3 14.5 1.35 13.15 -0.5 10.65 -1.65 9.75 -5.25 6.95 -4.0 6.95 -2.7 6.95 -2.05 5.5 -0.95 5.15" fill="#1d2327" fill-rule="evenodd" stroke="none"/>
    <path d="M3.45 7.75 L5.05 4.85 3.75 1.75 7.4 5.7 9.15 5.7 12.45 7.5 12.45 9.1 14.8 9.95 13.65 12.55 10.45 10.05 7.85 11.2 7.85 11.25 7.35 11.5 4.75 10.25 4.1 9.0 3.45 7.75 M7.85 16.55 L7.85 16.6 12.5 18.55 10.75 20.1 4.95 19.45 3.95 17.85 6.85 18.55 7.85 16.6 7.85 16.55 M10.6 12.4 L13.75 14.2 12.3 16.7 10.0 15.7 10.6 12.4" fill="#253038" fill-rule="evenodd" stroke="none"/>
    <path d="M14.7 3.9 L15.75 7.0 14.8 9.95 12.45 9.1 12.45 7.5 12.45 4.9 14.7 3.9 M-1.55 14.05 L-2.3 12.4 -1.65 9.75 M-4.0 6.95 L-5.2 4.5 M-6.85 -1.05 L-5.55 -2.4 M-0.95 -3.2 L0.8 -2.4 M14.8 9.85 L14.8 9.95" fill="none" stroke="#173548" stroke-linecap="round" stroke-linejoin="round" stroke-width="1.0"/>
    <path d="M4.8 -1.3 L2.6 -3.65 0.8 -2.4 -1.0 -1.2 0.15 0.1 -3.2 1.65 -2.25 3.1 0.15 4.8 -0.95 5.15 -2.05 5.5 -2.7 6.95 -4.0 6.95 -5.25 6.95 -1.65 9.75 -0.5 10.65 1.35 13.15 0.3 14.5 -1.55 14.05 -2.35 13.85 0.15 17.45 1.85 17.65 1.9 17.85 M7.85 11.25 L7.35 11.5 M4.1 9.0 L2.7 11.25 M7.85 15.45 L8.25 15.7 M-5.2 4.5 L-6.15 4.3 -9.15 -1.55 -6.85 -1.05 -3.15 -0.25 -4.7 0.8 -5.35 2.6 -3.25 4.9 -5.2 4.5 M-5.55 -2.4 L-6.35 -2.55 -4.15 -4.45 -0.4 -3.5 -0.95 -3.2 -3.4 -2.05 -5.55 -2.4 M7.85 16.55 L7.85 16.6 M-1.05 -3.05 L-0.95 -3.2" fill="none" stroke="#171b1e" stroke-linecap="round" stroke-linejoin="round" stroke-width="1.0"/>
    <path d="M3.45 7.75 L5.05 4.85 3.75 1.75 2.45 -1.3 4.8 -1.3 5.85 -1.3 7.85 -0.25 M7.85 -0.2 L11.1 1.2 13.15 -0.15 15.3 2.15 15.7 3.4 14.7 3.9 M14.8 9.95 L13.65 12.55 10.45 10.05 7.85 11.2 M7.35 11.5 L4.75 10.25 4.1 9.0 3.45 7.75 M7.85 16.6 L12.5 18.55 10.75 20.1 4.95 19.45 3.95 17.85 M14.8 9.95 L14.8 9.85 M10.6 12.4 L13.75 14.2 12.3 16.7 10.0 15.7 10.6 12.4" fill="none" stroke="#20272c" stroke-linecap="round" stroke-linejoin="round" stroke-width="1.0"/>
    <path d="M2.7 11.25 L4.15 13.75 5.55 13.75 7.85 15.4 M8.25 15.7 L7.85 16.4 M3.95 17.85 L1.9 17.85 M7.85 16.6 L6.85 18.55 3.95 17.85" fill="none" stroke="#15191c" stroke-linecap="round" stroke-linejoin="round" stroke-width="1.0"/>
    <path d="M-4.55 8.75 L-1.1 5.95 1.1 8.55 -0.7 10.2 -4.55 8.75" fill="#bbd6f0" fill-opacity="0.75686276" fill-rule="evenodd" stroke="none"/>
    <path d="M-4.55 8.75 L-1.1 5.95 1.1 8.55 -0.7 10.2 -4.55 8.75 Z" fill="none" stroke="#99adcb" stroke-linecap="round" stroke-linejoin="round" stroke-opacity="0.5294118" stroke-width="1.0"/>
  </g>
  <defs>
    <linearGradient gradientTransform="matrix(0.0141, 0.0017, -8.0E-4, 0.0061, 3.95, 5.85)" gradientUnits="userSpaceOnUse" id="gradient0" spreadMethod="pad" x1="-819.2" x2="819.2">
      <stop offset="0.0" stop-color="#136ebf"/>
      <stop offset="0.32941176470588235" stop-color="#c9e6ff"/>
      <stop offset="0.6039215686274509" stop-color="#8dbce2"/>
      <stop offset="1.0" stop-color="#106fb1"/>
    </linearGradient>
    <linearGradient gradientTransform="matrix(-0.0073, 0.0, 0.0, -0.0029, 1.65, 13.15)" gradientUnits="userSpaceOnUse" id="gradient1" spreadMethod="pad" x1="-819.2" x2="819.2">
      <stop offset="0.0" stop-color="#136ebf"/>
      <stop offset="0.32941176470588235" stop-color="#c9e6ff"/>
      <stop offset="0.6039215686274509" stop-color="#8dbce2"/>
      <stop offset="1.0" stop-color="#106fb1"/>
    </linearGradient>
    <linearGradient gradientTransform="matrix(0.0059, 0.0, 0.0, 0.0037, 11.6, 7.2)" gradientUnits="userSpaceOnUse" id="gradient2" spreadMethod="pad" x1="-819.2" x2="819.2">
      <stop offset="0.0" stop-color="#136ebf"/>
      <stop offset="0.32941176470588235" stop-color="#c9e6ff"/>
      <stop offset="0.6039215686274509" stop-color="#8dbce2"/>
      <stop offset="1.0" stop-color="#106fb1"/>
    </linearGradient>
  </defs>
</svg>
