<?xml version="1.0" encoding="UTF-8" standalone="no"?>
<svg xmlns:xlink="http://www.w3.org/1999/xlink" height="53.0px" width="53.0px" xmlns="http://www.w3.org/2000/svg">
  <g transform="matrix(1.0, 0.0, 0.0, 1.0, 26.5, 26.5)">
    <path d="M8.4 -8.5 Q4.9 -12.0 0.0 -12.0 -5.0 -12.0 -8.5 -8.5 -12.0 -5.0 -12.0 0.0 -12.0 5.0 -8.5 8.5 -5.0 12.0 0.0 12.0 4.9 12.0 8.4 8.5 12.0 5.0 12.0 0.0 12.0 -5.0 8.4 -8.5 M0.0 -16.0 Q6.5 -16.0 11.2 -11.3 16.0 -6.6 16.0 0.0 16.0 6.6 11.2 11.4 L11.2 11.3 Q6.5 16.0 0.0 16.0 -6.6 16.0 -11.3 11.3 -16.0 6.6 -16.0 0.0 -16.0 -6.6 -11.3 -11.3 -6.6 -16.0 0.0 -16.0" fill="#ff4444" fill-opacity="0.49803922" fill-rule="evenodd" stroke="none"/>
    <path d="M15.4 -15.6 Q9.0 -22.0 0.0 -22.0 -9.1 -22.0 -15.6 -15.6 -22.0 -9.1 -22.0 0.0 -22.0 9.1 -15.6 15.5 -9.1 22.0 0.0 22.0 9.0 22.0 15.4 15.5 22.0 9.1 22.0 0.0 22.0 -9.1 15.4 -15.6 M0.0 -26.0 Q10.6 -26.0 18.2 -18.4 26.0 -10.7 26.0 0.0 26.0 10.7 18.2 18.4 L18.2 18.3 Q10.6 26.0 0.0 26.0 -10.7 26.0 -18.4 18.3 -26.0 10.7 -26.0 0.0 -26.0 -10.7 -18.4 -18.4 -10.7 -26.0 0.0 -26.0" fill="#ff4444" fill-rule="evenodd" stroke="none"/>
    <path d="M8.4 -8.5 Q12.0 -5.0 12.0 0.0 12.0 5.0 8.4 8.5 4.9 12.0 0.0 12.0 -5.0 12.0 -8.5 8.5 -12.0 5.0 -12.0 0.0 -12.0 -5.0 -8.5 -8.5 -5.0 -12.0 0.0 -12.0 4.9 -12.0 8.4 -8.5 M0.0 -16.0 Q-6.6 -16.0 -11.3 -11.3 -16.0 -6.6 -16.0 0.0 -16.0 6.6 -11.3 11.3 -6.6 16.0 0.0 16.0 6.5 16.0 11.2 11.3 L11.2 11.4 Q16.0 6.6 16.0 0.0 16.0 -6.6 11.2 -11.3 6.5 -16.0 0.0 -16.0" fill="none" stroke="#b10101" stroke-linecap="round" stroke-linejoin="round" stroke-opacity="0.5019608" stroke-width="1.0"/>
    <path d="M0.0 -26.0 Q-10.7 -26.0 -18.4 -18.4 -26.0 -10.7 -26.0 0.0 -26.0 10.7 -18.4 18.3 -10.7 26.0 0.0 26.0 10.6 26.0 18.2 18.3 L18.2 18.4 Q26.0 10.7 26.0 0.0 26.0 -10.7 18.2 -18.4 10.6 -26.0 0.0 -26.0 M15.4 -15.6 Q22.0 -9.1 22.0 0.0 22.0 9.1 15.4 15.5 9.0 22.0 0.0 22.0 -9.1 22.0 -15.6 15.5 -22.0 9.1 -22.0 0.0 -22.0 -9.1 -15.6 -15.6 -9.1 -22.0 0.0 -22.0 9.0 -22.0 15.4 -15.6" fill="none" stroke="#b10101" stroke-linecap="round" stroke-linejoin="round" stroke-width="1.0"/>
  </g>
</svg>
