<?xml version="1.0" encoding="UTF-8" standalone="no"?>
<svg xmlns:ffdec="https://www.free-decompiler.com/flash" xmlns:xlink="http://www.w3.org/1999/xlink" ffdec:objectType="shape" height="30.1px" width="30.35px" xmlns="http://www.w3.org/2000/svg">
  <g transform="matrix(1.0, 0.0, 0.0, 1.0, 0.5, 4.4)">
    <path d="M20.65 9.8 L20.35 9.8 19.15 6.6 18.9 6.0 24.85 5.75 Q27.95 6.9 29.3 9.3 29.55 13.65 27.85 17.75 L26.1 17.55 24.1 17.3 23.85 16.85 22.7 14.7 23.7 13.95 Q24.45 13.15 24.35 12.05 24.3 10.95 23.45 10.25 22.65 9.5 21.55 9.55 L20.8 9.75 20.65 9.8" fill="url(#gradient0)" fill-rule="evenodd" stroke="none"/>
    <path d="M20.35 9.8 L20.4 9.9 20.65 9.8 20.8 9.75 21.55 9.55 Q22.65 9.5 23.45 10.25 24.3 10.95 24.35 12.05 24.45 13.15 23.7 13.95 L22.7 14.7 23.85 16.85 24.1 17.3 26.1 17.55 24.7 19.4 19.3 18.0 19.8 16.9 Q20.85 17.35 22.05 17.25 L23.85 16.85 22.05 17.25 Q20.85 17.35 19.8 16.9 L18.2 15.95 17.7 15.4 12.3 15.65 11.35 14.35 10.15 12.65 10.2 12.55 10.55 11.2 10.75 10.45 16.75 10.05 20.35 9.8 M20.4 9.9 L19.7 10.45 Q19.0 11.3 19.05 12.4 19.15 13.5 19.95 14.2 20.8 14.9 21.9 14.85 L22.7 14.7 21.9 14.85 Q20.8 14.9 19.95 14.2 19.15 13.5 19.05 12.4 19.0 11.3 19.7 10.45 L20.4 9.9 M16.75 10.05 Q16.35 11.1 16.4 12.25 16.55 14.15 17.7 15.4 16.55 14.15 16.4 12.25 16.35 11.1 16.75 10.05" fill="#191919" fill-rule="evenodd" stroke="none"/>
    <path d="M9.95 9.35 L9.45 10.5 10.75 10.45 10.55 11.2 3.85 10.2 2.15 8.35 9.95 9.35" fill="url(#gradient1)" fill-rule="evenodd" stroke="none"/>
    <path d="M19.15 6.6 L20.35 9.8 16.75 10.05 10.75 10.45 9.45 10.5 9.95 9.35 10.7 7.6 12.45 7.25 13.9 7.05 19.15 6.6 M13.5 8.55 L11.85 8.65 13.5 8.55 M17.15 8.35 L15.5 8.45 17.15 8.35" fill="url(#gradient2)" fill-rule="evenodd" stroke="none"/>
    <path d="M19.8 16.9 L19.3 18.0 19.05 18.45 18.8 18.45 17.05 18.3 14.9 17.9 14.85 17.9 12.85 17.4 11.55 16.95 12.3 15.65 17.7 15.4 18.2 15.95 19.8 16.9" fill="url(#gradient3)" fill-rule="evenodd" stroke="none"/>
    <path d="M17.05 18.3 L18.8 18.45 16.9 22.3 16.1 22.45 15.4 21.1 16.1 22.45 16.9 22.3 16.4 23.25 13.8 23.8 15.4 21.1 17.05 18.3" fill="url(#gradient4)" fill-rule="evenodd" stroke="none"/>
    <path d="M12.85 17.4 L14.85 17.9 8.9 24.5 6.3 24.85 12.85 17.4" fill="url(#gradient5)" fill-rule="evenodd" stroke="none"/>
    <path d="M10.2 12.55 L10.15 12.65 11.35 14.35 2.1 13.95 0.0 12.3 10.2 12.55" fill="url(#gradient6)" fill-rule="evenodd" stroke="none"/>
    <path d="M14.5 5.75 L14.6 5.6 Q15.5 4.25 16.35 3.95 L17.0 3.85 17.25 3.35 Q17.75 2.6 18.35 2.2 19.1 1.7 20.85 1.95 L21.75 2.2 Q22.45 2.55 22.75 3.6 L23.25 5.2 M16.9 22.3 L17.85 22.1 18.35 23.95 Q18.45 24.55 18.85 24.9 19.3 25.3 19.75 25.2 20.7 25.05 21.0 23.6 L21.15 21.15 21.0 18.7 M20.25 5.45 L19.85 4.95 18.5 4.2 17.0 3.85 Q16.25 5.3 16.5 6.35 M14.5 5.75 L13.9 7.05 M15.4 21.1 L16.1 22.45 16.9 22.3 M14.9 17.9 L15.15 20.2 15.4 21.1" fill="none" stroke="#181817" stroke-linecap="round" stroke-linejoin="round" stroke-width="1.0"/>
    <path d="M20.35 9.8 L19.15 6.6 13.9 7.05 12.45 7.25 10.7 7.6 9.95 9.35 9.45 10.5 10.75 10.45 16.75 10.05 20.35 9.8 M20.65 9.8 L20.8 9.75 21.55 9.55 Q22.65 9.5 23.45 10.25 24.3 10.95 24.35 12.05 24.45 13.15 23.7 13.95 L22.7 14.7 23.85 16.85 24.1 17.3 26.1 17.55 27.85 17.75 Q29.55 13.65 29.3 9.3 27.95 6.9 24.85 5.75 L18.9 6.0 19.15 6.6 M19.8 16.9 L19.3 18.0 M11.85 8.65 L13.5 8.55 M12.3 15.65 L17.7 15.4 M15.5 8.45 L17.15 8.35 M17.05 18.3 L18.8 18.45 M12.85 17.4 L11.55 16.95 12.3 15.65 M14.85 17.9 L14.9 17.9 17.05 18.3" fill="none" stroke="#151515" stroke-linecap="round" stroke-linejoin="round" stroke-width="1.0"/>
    <path d="M20.35 9.8 L20.4 9.9 20.65 9.8 20.35 9.8 M22.7 14.7 L21.9 14.85 Q20.8 14.9 19.95 14.2 19.15 13.5 19.05 12.4 19.0 11.3 19.7 10.45 L20.4 9.9 M23.85 16.85 L22.05 17.25 Q20.85 17.35 19.8 16.9 L18.2 15.95 17.7 15.4 Q16.55 14.15 16.4 12.25 16.35 11.1 16.75 10.05 M19.3 18.0 L24.7 19.4 26.1 17.55 M10.75 10.45 L10.55 11.2 10.2 12.55 10.15 12.65 11.35 14.35 12.3 15.65 M9.95 9.35 L2.15 8.35 3.85 10.2 10.55 11.2 M18.8 18.45 L19.05 18.45 19.3 18.0 M14.85 17.9 L12.85 17.4 6.3 24.85 8.9 24.5 14.85 17.9 M17.05 18.3 L15.4 21.1 13.8 23.8 16.4 23.25 16.9 22.3 18.8 18.45 M10.2 12.55 L0.0 12.3 2.1 13.95 11.35 14.35" fill="none" stroke="#0e0e0e" stroke-linecap="round" stroke-linejoin="round" stroke-width="1.0"/>
    <path d="M14.5 5.75 L14.95 6.35 M8.9 3.5 L12.45 7.25 M7.2 -3.9 L14.5 5.75" fill="none" stroke="#0e0e0e" stroke-linecap="round" stroke-linejoin="round" stroke-opacity="0.49803922" stroke-width="1.0"/>
  </g>
  <defs>
    <radialGradient cx="0" cy="0" gradientTransform="matrix(0.0141, 0.0, 0.0, 0.0141, 21.5, 8.6)" gradientUnits="userSpaceOnUse" id="gradient0" r="819.2" spreadMethod="pad">
      <stop offset="0.0" stop-color="#333333"/>
      <stop offset="1.0" stop-color="#1c1c1c"/>
    </radialGradient>
    <radialGradient cx="0" cy="0" gradientTransform="matrix(0.0024, 0.0, 0.0, 0.0059, 6.85, 9.5)" gradientUnits="userSpaceOnUse" id="gradient1" r="819.2" spreadMethod="pad">
      <stop offset="0.0" stop-color="#333333"/>
      <stop offset="1.0" stop-color="#191919"/>
    </radialGradient>
    <radialGradient cx="0" cy="0" gradientTransform="matrix(0.0086, 0.0, 0.0, 0.0086, 15.95, 7.8)" gradientUnits="userSpaceOnUse" id="gradient2" r="819.2" spreadMethod="pad">
      <stop offset="0.0" stop-color="#333333"/>
      <stop offset="1.0" stop-color="#1c1c1c"/>
    </radialGradient>
    <radialGradient cx="0" cy="0" gradientTransform="matrix(0.0051, 0.0, 0.0, 0.0051, 15.75, 17.05)" gradientUnits="userSpaceOnUse" id="gradient3" r="819.2" spreadMethod="pad">
      <stop offset="0.0" stop-color="#333333"/>
      <stop offset="1.0" stop-color="#1c1c1c"/>
    </radialGradient>
    <radialGradient cx="0" cy="0" gradientTransform="matrix(0.0011, -0.0021, 0.0045, 0.0023, 16.8, 20.9)" gradientUnits="userSpaceOnUse" id="gradient4" r="819.2" spreadMethod="pad">
      <stop offset="0.0" stop-color="#333333"/>
      <stop offset="1.0" stop-color="#191919"/>
    </radialGradient>
    <radialGradient cx="0" cy="0" gradientTransform="matrix(0.0017, -0.0017, 0.0069, 0.0067, 12.1, 19.4)" gradientUnits="userSpaceOnUse" id="gradient5" r="819.2" spreadMethod="pad">
      <stop offset="0.0" stop-color="#333333"/>
      <stop offset="1.0" stop-color="#191919"/>
    </radialGradient>
    <radialGradient cx="0" cy="0" gradientTransform="matrix(0.0024, 0.0, 0.0, 0.0086, 7.0, 13.3)" gradientUnits="userSpaceOnUse" id="gradient6" r="819.2" spreadMethod="pad">
      <stop offset="0.0" stop-color="#333333"/>
      <stop offset="1.0" stop-color="#191919"/>
    </radialGradient>
  </defs>
</svg>
