<?xml version="1.0" encoding="UTF-8" standalone="no"?>
<svg xmlns:ffdec="https://www.free-decompiler.com/flash" xmlns:xlink="http://www.w3.org/1999/xlink" ffdec:objectType="shape" height="29.1px" width="24.8px" xmlns="http://www.w3.org/2000/svg">
  <g transform="matrix(1.0, 0.0, 0.0, 1.0, -0.95, 2.65)">
    <path d="M6.2 13.85 L4.95 14.2 3.35 12.15 2.7 11.6 1.45 5.75 2.55 2.7 4.65 2.7 6.15 5.55 6.35 10.65 3.35 12.15 6.35 10.65 6.8 13.65 6.2 13.85" fill="#1c1c1c" fill-rule="evenodd" stroke="none"/>
    <path d="M11.3 22.55 L8.55 22.3 Q7.9 20.65 7.4 18.8 L15.9 19.55 12.95 19.55 11.3 22.55" fill="#191919" fill-rule="evenodd" stroke="none"/>
    <path d="M13.55 5.9 L13.55 7.15 15.2 8.45 15.45 12.0 Q14.0 13.65 11.9 13.3 L9.05 12.5 Q8.25 11.6 8.15 9.4 8.15 7.5 9.4 6.15 L13.55 5.9" fill="#2e2e2e" fill-rule="evenodd" stroke="none"/>
    <path d="M6.4 1.35 Q5.75 0.3 6.0 -0.85 6.3 -1.95 9.35 -2.15 12.4 -2.35 21.05 1.55 21.7 3.25 20.9 4.65 L20.25 5.05 13.55 4.6 Q10.3 3.9 7.2 2.25 L6.4 1.35" fill="#242a1d" fill-rule="evenodd" stroke="none"/>
    <path d="M22.85 8.3 L23.35 10.45 17.4 9.5 16.85 7.45 22.85 8.3 M23.6 12.25 L23.7 14.05 17.5 13.35 17.5 11.3 23.6 12.25 M7.4 18.8 L6.75 18.75 6.15 17.15 6.95 17.2 16.4 17.9 15.9 19.55 7.4 18.8" fill="#252a20" fill-rule="evenodd" stroke="none"/>
    <path d="M20.25 5.05 Q22.25 6.6 22.85 8.3 L16.85 7.45 17.4 9.5 23.35 10.45 23.6 12.25 17.5 11.3 17.5 13.35 23.7 14.05 23.55 15.8 Q23.0 17.4 21.55 18.7 L16.9 16.25 15.7 15.6 15.45 12.0 15.2 8.45 13.55 7.15 13.55 5.9 13.55 4.6 20.25 5.05" fill="#1f231a" fill-rule="evenodd" stroke="none"/>
    <path d="M21.35 19.75 L24.1 20.65 23.1 25.35 22.0 25.95 17.15 24.7 17.4 22.95 17.85 20.1 19.05 19.0 21.35 19.75 M23.1 25.35 L21.4 23.05 20.55 22.2 18.25 21.25 20.55 22.2 21.4 23.05 23.1 25.35" fill="#1f2517" fill-rule="evenodd" stroke="none"/>
    <path d="M6.95 17.2 L6.2 13.85 6.8 13.65 6.35 10.65 6.15 5.55 4.65 2.7 6.4 1.35 7.2 2.25 Q10.3 3.9 13.55 4.6 L13.55 5.9 9.4 6.15 Q8.15 7.5 8.15 9.4 8.25 11.6 9.05 12.5 L11.9 13.3 Q14.0 13.65 15.45 12.0 L15.7 15.6 16.9 16.25 16.4 17.9 6.95 17.2" fill="#1b1c14" fill-rule="evenodd" stroke="none"/>
    <path d="M21.55 18.7 L21.35 19.75 19.05 19.0 17.85 20.1 17.4 22.95 11.3 22.55 12.95 19.55 15.9 19.55 16.4 17.9 16.9 16.25 21.55 18.7" fill="#262a1e" fill-rule="evenodd" stroke="none"/>
    <path d="M7.4 18.8 L6.75 18.75 6.15 17.15 6.95 17.2 M15.9 19.55 L7.4 18.8" fill="none" stroke="#171717" stroke-linecap="round" stroke-linejoin="round" stroke-width="1.0"/>
    <path d="M16.9 16.25 L16.4 17.9 15.9 19.55 12.95 19.55 11.3 22.55" fill="none" stroke="#121212" stroke-linecap="round" stroke-linejoin="round" stroke-width="1.0"/>
    <path d="M23.35 10.45 L17.4 9.5 16.85 7.45 22.85 8.3 M23.6 12.25 L17.5 11.3 17.5 13.35 23.7 14.05" fill="none" stroke="#151714" stroke-linecap="round" stroke-linejoin="round" stroke-width="1.0"/>
    <path d="M6.4 1.35 Q5.75 0.3 6.0 -0.85 6.3 -1.95 9.35 -2.15 12.4 -2.35 21.05 1.55 21.7 3.25 20.9 4.65 L20.25 5.05 Q22.25 6.6 22.85 8.3 L23.35 10.45 23.6 12.25 23.7 14.05 23.55 15.8 Q23.0 17.4 21.55 18.7 L21.35 19.75 24.1 20.65 23.1 25.35 22.0 25.95 17.15 24.7 17.4 22.95 11.3 22.55 8.55 22.3 Q7.9 20.65 7.4 18.8 M6.95 17.2 L6.2 13.85 4.95 14.2 3.35 12.15 2.7 11.6 1.45 5.75 2.55 2.7 4.65 2.7 6.4 1.35 7.2 2.25 Q10.3 3.9 13.55 4.6 L20.25 5.05 M18.25 21.25 L20.55 22.2 21.4 23.05 23.1 25.35 M13.55 4.6 L13.55 5.9 13.55 7.15 15.2 8.45 15.45 12.0 15.7 15.6 16.9 16.25 21.55 18.7 M13.55 5.9 L9.4 6.15 Q8.15 7.5 8.15 9.4 8.25 11.6 9.05 12.5 L11.9 13.3 Q14.0 13.65 15.45 12.0 M6.35 10.65 L6.15 5.55 4.65 2.7 M3.35 12.15 L6.35 10.65 6.8 13.65 6.2 13.85 M21.35 19.75 L19.05 19.0 17.85 20.1 17.4 22.95 M16.4 17.9 L6.95 17.2" fill="none" stroke="#111511" stroke-linecap="round" stroke-linejoin="round" stroke-width="1.0"/>
    <path d="M22.2 13.55 L22.45 11.25 25.25 11.6 24.85 15.0 24.55 17.25 21.7 16.9 22.2 13.55 24.85 15.0 22.2 13.55 M20.75 14.05 L20.4 16.85 17.5 16.55 18.0 13.05 18.3 10.85 21.05 11.2 20.75 14.05 18.0 13.05 20.75 14.05" fill="#1f2517" fill-rule="evenodd" stroke="none"/>
    <path d="M22.2 13.55 L22.45 11.25 25.25 11.6 24.85 15.0 24.55 17.25 21.7 16.9 22.2 13.55 24.85 15.0 M20.75 14.05 L20.4 16.85 17.5 16.55 18.0 13.05 18.3 10.85 21.05 11.2 20.75 14.05 18.0 13.05" fill="none" stroke="#0e0e0e" stroke-linecap="round" stroke-linejoin="round" stroke-width="1.0"/>
    <path d="M15.9 2.6 L17.6 5.1" fill="none" stroke="#151515" stroke-linecap="round" stroke-linejoin="round" stroke-width="1.0"/>
    <path d="M14.1 -1.2 L15.9 2.6" fill="none" stroke="#171914" stroke-linecap="round" stroke-linejoin="round" stroke-width="1.0"/>
  </g>
</svg>
