<?xml version="1.0" encoding="UTF-8" standalone="no"?>
<svg xmlns:ffdec="https://www.free-decompiler.com/flash" xmlns:xlink="http://www.w3.org/1999/xlink" ffdec:objectType="shape" height="26.75px" width="34.3px" xmlns="http://www.w3.org/2000/svg">
  <g transform="matrix(1.0, 0.0, 0.0, 1.0, 13.1, 0.5)">
    <path d="M0.4 13.35 L-9.45 19.5 -13.1 6.55 -0.75 8.45 0.4 13.35" fill="url(#gradient0)" fill-rule="evenodd" stroke="none"/>
    <path d="M13.55 2.25 L13.15 2.6 12.8 3.5 12.45 4.35 10.85 3.45 6.5 0.9 5.65 0.4 8.55 0.0 13.55 2.25 M6.7 11.2 L9.0 11.7 13.75 12.65 14.15 16.35 6.9 15.05 5.95 13.9 5.05 12.75 5.55 11.0 6.7 11.2" fill="#272727" fill-rule="evenodd" stroke="none"/>
    <path d="M16.85 1.8 Q18.25 3.05 18.95 4.35 L16.7 4.4 18.95 4.35 Q19.8 5.95 19.65 7.7 L19.2 11.55 18.3 12.8 13.6 11.3 12.85 10.55 12.2 4.85 12.45 4.35 12.8 3.5 13.15 2.6 13.55 2.25 16.85 1.8 M15.1 11.3 L14.8 5.65 12.8 3.5 14.8 5.65 15.1 11.3" fill="#540000" fill-rule="evenodd" stroke="none"/>
    <path d="M5.05 1.0 L8.0 2.9 7.5 4.3 5.15 5.35 4.45 9.05 6.8 10.3 6.7 11.2 5.55 11.0 5.05 12.75 5.95 13.9 4.45 13.75 6.15 15.2 7.0 17.7 6.0 19.35 5.7 18.7 5.45 18.85 3.85 17.45 3.15 13.75 4.45 13.75 2.6 13.55 2.0 11.5 1.4 9.4 -0.75 8.45 -1.7 7.0 -1.25 5.45 -0.2 2.2 4.3 0.7 5.05 1.0 M6.05 2.6 L3.0 3.8 1.95 6.5 -1.25 5.45 1.95 6.5 3.0 3.8 6.05 2.6" fill="#202020" fill-rule="evenodd" stroke="none"/>
    <path d="M2.0 11.5 L2.6 13.55 4.45 13.75 3.15 13.75 3.85 17.45 5.45 18.85 4.05 19.95 2.1 19.25 0.2 14.05 0.7 12.6 0.75 12.6 0.9 12.45 2.0 11.5" fill="#3f3f3f" fill-rule="evenodd" stroke="none"/>
    <path d="M9.0 11.7 L9.2 10.4 11.0 9.6 11.45 6.0 10.0 4.85 10.6 3.6 10.85 3.45 12.45 4.35 12.2 4.85 12.85 10.55 13.6 11.3 13.75 12.65 9.0 11.7" fill="#330000" fill-rule="evenodd" stroke="none"/>
    <path d="M10.85 3.45 L10.6 3.6 10.0 4.85 11.45 6.0 11.0 9.6 9.2 10.4 9.0 11.7 6.7 11.2 6.8 10.3 4.45 9.05 5.15 5.35 7.5 4.3 8.0 2.9 5.05 1.0 6.5 0.9 10.85 3.45 M4.45 13.75 L5.95 13.9 6.9 15.05 14.15 16.35 14.25 17.4 14.8 18.35 15.5 18.3 15.65 21.15 15.35 21.15 14.65 21.25 Q10.3 21.3 6.05 20.25 L6.0 19.35 7.0 17.7 6.15 15.2 4.45 13.75" fill="#171717" fill-rule="evenodd" stroke="none"/>
    <path d="M-0.75 8.45 L1.4 9.4 2.0 11.5 0.9 12.45 0.75 12.6 0.7 12.6 -0.75 8.45" fill="#ffd858" fill-rule="evenodd" stroke="none"/>
    <path d="M13.75 12.65 L13.6 11.3 18.3 12.8 16.6 18.25 15.5 18.3 14.8 18.35 14.25 17.4 14.15 16.35 13.75 12.65 M14.65 21.25 L15.35 21.15 15.65 21.15 Q16.05 23.05 15.6 24.15 15.15 25.2 12.65 25.65 10.15 26.0 7.85 24.8 5.5 23.55 5.6 20.55 L11.95 21.35 14.65 21.25" fill="#3c0000" fill-rule="evenodd" stroke="none"/>
    <path d="M6.5 0.9 L5.05 1.0" fill="none" stroke="#1e1919" stroke-linecap="round" stroke-linejoin="round" stroke-width="1.0"/>
    <path d="M9.0 11.7 L9.2 10.4 11.0 9.6 11.45 6.0 10.0 4.85 10.6 3.6 10.85 3.45" fill="none" stroke="#200000" stroke-linecap="round" stroke-linejoin="round" stroke-width="1.0"/>
    <path d="M12.8 3.5 L14.8 5.65 15.1 11.3" fill="none" stroke="#4a0000" stroke-linecap="round" stroke-linejoin="round" stroke-width="1.0"/>
    <path d="M10.85 3.45 L6.5 0.9 5.65 0.4 8.55 0.0 13.55 2.25 M5.05 1.0 L8.0 2.9 7.5 4.3 5.15 5.35 4.45 9.05 6.8 10.3 6.7 11.2 9.0 11.7 13.75 12.65 M12.45 4.35 L10.85 3.45 M4.45 13.75 L5.95 13.9 5.05 12.75 5.55 11.0 6.7 11.2 M4.45 13.75 L6.15 15.2 7.0 17.7 6.0 19.35 6.05 20.25 Q10.3 21.3 14.65 21.25 L15.35 21.15 15.65 21.15 15.5 18.3 14.8 18.35 M14.15 16.35 L6.9 15.05 5.95 13.9 M6.0 19.35 L5.45 18.85 M4.45 13.75 L3.15 13.75" fill="none" stroke="#0e0e0e" stroke-linecap="round" stroke-linejoin="round" stroke-width="1.0"/>
    <path d="M0.7 12.6 L-0.75 8.45" fill="none" stroke="#6f5a01" stroke-linecap="round" stroke-linejoin="round" stroke-width="1.0"/>
    <path d="M5.05 1.0 L4.3 0.7 -0.2 2.2 -1.25 5.45 -1.7 7.0 -0.75 8.45 1.4 9.4 2.0 11.5 2.6 13.55 4.45 13.75 M3.15 13.75 L3.85 17.45 5.45 18.85" fill="none" stroke="#101010" stroke-linecap="round" stroke-linejoin="round" stroke-width="1.0"/>
    <path d="M13.75 12.65 L13.6 11.3 M14.8 18.35 L14.25 17.4 14.15 16.35 13.75 12.65 M18.3 12.8 L16.6 18.25 15.5 18.3 M15.65 21.15 Q16.05 23.05 15.6 24.15 15.15 25.2 12.65 25.65 10.15 26.0 7.85 24.8 5.5 23.55 5.6 20.55 L11.95 21.35 14.65 21.25" fill="none" stroke="#190202" stroke-linecap="round" stroke-linejoin="round" stroke-width="1.0"/>
    <path d="M16.85 1.8 L13.55 2.25 13.15 2.6 12.8 3.5 12.45 4.35 12.2 4.85 12.85 10.55 13.6 11.3 18.3 12.8 M19.2 11.55 L19.65 7.7" fill="none" stroke="#2c0404" stroke-linecap="round" stroke-linejoin="round" stroke-width="1.0"/>
    <path d="M-1.25 5.45 L1.95 6.5 3.0 3.8 6.05 2.6" fill="none" stroke="#171717" stroke-linecap="round" stroke-linejoin="round" stroke-width="1.0"/>
    <path d="M5.45 18.85 L4.05 19.95 2.1 19.25 0.2 14.05 0.7 12.6 0.75 12.6 0.9 12.45 2.0 11.5" fill="none" stroke="#1e1e1e" stroke-linecap="round" stroke-linejoin="round" stroke-width="1.0"/>
    <path d="M18.95 4.35 L16.7 4.4" fill="none" stroke="#ffd858" stroke-linecap="round" stroke-linejoin="round" stroke-width="1.0"/>
    <path d="M18.95 4.35 Q18.25 3.05 16.85 1.8 M19.65 7.7 Q19.8 5.95 18.95 4.35 M18.3 12.8 L19.2 11.55" fill="none" stroke="#2c0202" stroke-linecap="round" stroke-linejoin="round" stroke-width="1.0"/>
    <path d="M18.5 6.0 L20.45 6.4 20.7 10.6 18.8 10.75 16.4 10.85 16.1 6.1 18.5 6.0 18.8 10.75 18.5 6.0 M16.25 18.05 L16.0 13.75 18.05 13.65 18.3 17.95 16.25 18.05" fill="#1d1d1d" fill-rule="evenodd" stroke="none"/>
    <path d="M18.5 6.0 L20.45 6.4 20.7 10.6 18.8 10.75 16.4 10.85 16.1 6.1 18.5 6.0 18.8 10.75 M16.25 18.05 L16.0 13.75 18.05 13.65 18.3 17.95 16.25 18.05 Z" fill="none" stroke="#151515" stroke-linecap="round" stroke-linejoin="round" stroke-width="1.0"/>
  </g>
  <defs>
    <linearGradient gradientTransform="matrix(-0.0055, 0.0018, -0.0018, -0.0055, -1.95, 12.35)" gradientUnits="userSpaceOnUse" id="gradient0" spreadMethod="pad" x1="-819.2" x2="819.2">
      <stop offset="0.0" stop-color="#ffee00" stop-opacity="0.49803922"/>
      <stop offset="1.0" stop-color="#ffd200" stop-opacity="0.0"/>
      <stop offset="1.0" stop-color="#f7ec9a" stop-opacity="0.0"/>
    </linearGradient>
  </defs>
</svg>
