<?xml version="1.0" encoding="UTF-8" standalone="no"?>
<svg xmlns:ffdec="https://www.free-decompiler.com/flash" xmlns:xlink="http://www.w3.org/1999/xlink" ffdec:objectType="shape" height="33.45px" width="20.5px" xmlns="http://www.w3.org/2000/svg">
  <g transform="matrix(1.0, 0.0, 0.0, 1.0, 7.95, 39.2)">
    <path d="M-4.0 -30.2 L-3.0 -32.65 Q-0.7 -35.2 1.5 -34.65 3.7 -34.1 5.85 -30.6 L7.05 -27.7 4.25 -27.7 1.6 -29.95 -4.0 -30.2 M8.3 -11.35 L6.95 -7.95 Q5.8 -5.9 0.15 -6.3 -2.45 -7.95 -3.8 -9.85 -5.2 -11.7 -4.3 -11.8 -2.2 -11.8 -4.6 -15.8 -7.05 -19.85 0.75 -19.1 L4.25 -21.5 6.65 -18.2 6.1 -15.4 Q5.6 -12.65 8.3 -11.35" fill="#191919" fill-rule="evenodd" stroke="none"/>
    <path d="M7.05 -27.7 L8.85 -27.2 Q10.1 -26.8 8.8 -24.4 7.5 -22.0 9.8 -25.75 L11.45 -24.9 11.45 -22.2 Q9.75 -20.15 10.1 -19.55 L10.45 -18.25 10.5 -18.05 10.6 -17.95 10.5 -18.0 10.7 -17.7 11.15 -17.4 10.55 -15.6 8.65 -12.0 8.65 -11.5 8.55 -11.85 8.35 -11.5 8.5 -12.05 Q8.25 -12.7 8.25 -12.05 L8.3 -11.35 Q5.6 -12.65 6.1 -15.4 7.05 -17.35 7.0 -18.45 L6.65 -18.2 4.25 -21.5 4.25 -27.7 7.05 -27.7 M10.55 -15.6 Q11.0 -17.1 10.7 -17.7 11.0 -17.1 10.55 -15.6 M8.55 -11.85 L8.65 -12.0 8.55 -11.85" fill="url(#gradient0)" fill-rule="evenodd" stroke="none"/>
    <path d="M-5.8 -19.4 Q-7.7 -19.8 -7.4 -24.75 -7.2 -28.0 -4.0 -30.2 L1.6 -29.95 4.25 -27.7 4.25 -21.5 0.75 -19.1 -5.8 -19.4" fill="url(#gradient1)" fill-rule="evenodd" stroke="none"/>
    <path d="M-4.3 -11.8 L-5.4 -12.5 -6.15 -14.9 Q-7.0 -17.5 -5.8 -19.4 L0.75 -19.1 Q-7.05 -19.85 -4.6 -15.8 -2.2 -11.8 -4.3 -11.8" fill="url(#gradient2)" fill-rule="evenodd" stroke="none"/>
    <path d="M-4.0 -30.2 L-3.0 -32.65 Q-0.7 -35.2 1.5 -34.65 3.7 -34.1 5.85 -30.6 L7.05 -27.7 M8.3 -11.35 L6.95 -7.95 Q5.8 -5.9 0.15 -6.3 -2.45 -7.95 -3.8 -9.85" fill="none" stroke="#000000" stroke-linecap="round" stroke-linejoin="round" stroke-width="1.0"/>
    <path d="M10.5 -18.05 L10.6 -17.95 10.7 -17.7 M-3.8 -9.85 Q-5.2 -11.7 -4.3 -11.8 L-5.4 -12.5 -6.15 -14.9 Q-7.0 -17.5 -5.8 -19.4 -7.7 -19.8 -7.4 -24.75 -7.2 -28.0 -4.0 -30.2 L1.6 -29.95 4.25 -27.7 7.05 -27.7 M6.65 -18.2 L4.25 -21.5 0.75 -19.1 Q-7.05 -19.85 -4.6 -15.8 -2.2 -11.8 -4.3 -11.8 M4.25 -27.7 L4.25 -21.5 M-5.8 -19.4 L0.75 -19.1" fill="none" stroke="#151515" stroke-linecap="round" stroke-linejoin="round" stroke-width="1.0"/>
    <path d="M10.55 -15.6 L8.65 -12.0 8.55 -11.85 8.35 -11.5 M10.7 -17.7 Q11.0 -17.1 10.55 -15.6 M6.1 -15.4 L6.65 -18.2 M6.1 -15.4 Q5.6 -12.65 8.3 -11.35" fill="none" stroke="#0e0e0e" stroke-linecap="round" stroke-linejoin="round" stroke-width="1.0"/>
    <path d="M4.4 -27.85 L4.95 -27.95 5.65 -28.2 Q5.25 -27.85 4.4 -27.85 M8.65 -27.4 L9.65 -26.8 Q10.9 -26.05 11.55 -25.35 L11.15 -25.25 10.5 -26.05 9.6 -26.8 8.65 -27.4" fill="url(#gradient3)" fill-rule="evenodd" stroke="none"/>
    <path d="M5.65 -28.2 L7.0 -27.7 8.05 -27.65 8.2 -27.65 8.2 -27.6 8.65 -27.4 9.6 -26.8 10.5 -26.05 11.15 -25.25 11.35 -24.9 11.8 -23.35 11.9 -22.8 11.9 -22.75 12.0 -20.65 11.9 -20.25 Q11.6 -18.95 10.9 -17.55 L8.1 -17.5 6.7 -17.5 4.4 -21.4 4.4 -27.85 Q5.25 -27.85 5.65 -28.2 M8.1 -17.5 L7.9 -23.55 10.5 -26.05 7.9 -23.55 8.1 -17.5" fill="url(#gradient4)" fill-rule="evenodd" stroke="none"/>
    <path d="M11.35 -24.9 L12.05 -23.35 Q11.9 -23.2 11.9 -22.8 L11.8 -23.35 11.35 -24.9" fill="url(#gradient5)" fill-rule="evenodd" stroke="none"/>
    <path d="M10.5 -26.05 L7.9 -23.55 8.1 -17.5" fill="none" stroke="url(#gradient6)" stroke-linecap="round" stroke-linejoin="round" stroke-width="1.0"/>
    <path d="M8.2 -27.6 L8.65 -27.4 9.6 -26.8 10.5 -26.05 11.15 -25.25 11.35 -24.9 11.8 -23.35 11.9 -22.8" fill="none" stroke="#0e0e0e" stroke-linecap="round" stroke-linejoin="round" stroke-width="1.0"/>
    <path d="M11.9 -22.75 L12.0 -20.65 11.9 -20.25 Q11.6 -18.95 10.9 -17.55 L6.7 -17.5 4.4 -21.4 4.4 -27.85 Q5.25 -27.85 5.65 -28.2 L8.05 -27.65" fill="none" stroke="#0e0e0e" stroke-linecap="round" stroke-linejoin="round" stroke-width="1.0"/>
    <path d="M-4.15 -28.25 Q-6.1 -29.75 -6.15 -30.85 -7.3 -30.75 -7.45 -31.6 -7.6 -32.5 -6.7 -33.0 L-5.4 -33.9 Q-5.0 -34.3 -5.0 -34.9 -5.0 -35.55 -3.75 -35.15 -2.5 -34.75 -2.6 -36.1 -2.7 -37.5 1.5 -38.7 M-6.15 -30.85 L-6.1 -31.55 -5.15 -32.45 Q-4.4 -33.05 -3.7 -32.7 -3.05 -32.35 -1.55 -34.1 -0.05 -35.9 2.6 -36.1 M-3.9 -30.6 L-6.15 -30.85" fill="none" stroke="#080807" stroke-linecap="round" stroke-linejoin="round" stroke-opacity="0.8784314" stroke-width="1.0"/>
  </g>
  <defs>
    <radialGradient cx="0" cy="0" gradientTransform="matrix(0.0108, 0.0, 0.0, 0.0111, 8.6, -21.2)" gradientUnits="userSpaceOnUse" id="gradient0" r="819.2" spreadMethod="pad">
      <stop offset="0.0" stop-color="#333333"/>
      <stop offset="1.0" stop-color="#1f1f1f"/>
    </radialGradient>
    <radialGradient cx="0" cy="0" gradientTransform="matrix(0.0084, 0.0, 0.0, 0.0083, -1.65, -24.75)" gradientUnits="userSpaceOnUse" id="gradient1" r="819.2" spreadMethod="pad">
      <stop offset="0.0" stop-color="#333333"/>
      <stop offset="1.0" stop-color="#1f1f1f"/>
    </radialGradient>
    <radialGradient cx="0" cy="0" gradientTransform="matrix(0.0069, 0.0, 0.0, 0.0071, -2.95, -15.5)" gradientUnits="userSpaceOnUse" id="gradient2" r="819.2" spreadMethod="pad">
      <stop offset="0.0" stop-color="#333333"/>
      <stop offset="1.0" stop-color="#1f1f1f"/>
    </radialGradient>
    <radialGradient cx="0" cy="0" gradientTransform="matrix(0.0072, 0.0, 0.0, 0.0093, 8.25, -21.6)" gradientUnits="userSpaceOnUse" id="gradient3" r="819.2" spreadMethod="pad">
      <stop offset="0.0" stop-color="#333333"/>
      <stop offset="1.0" stop-color="#1f1f1f"/>
    </radialGradient>
    <radialGradient cx="0" cy="0" gradientTransform="matrix(0.0099, 0.0, 0.0, 0.0129, 4.7, -23.5)" gradientUnits="userSpaceOnUse" id="gradient4" r="819.2" spreadMethod="pad">
      <stop offset="0.0" stop-color="#333333"/>
      <stop offset="1.0" stop-color="#1c1c1c"/>
    </radialGradient>
    <radialGradient cx="0" cy="0" gradientTransform="matrix(0.0072, 0.0, 0.0, 0.0093, 8.25, -21.6)" gradientUnits="userSpaceOnUse" id="gradient5" r="819.2" spreadMethod="pad">
      <stop offset="0.0" stop-color="#1d2936"/>
      <stop offset="1.0" stop-color="#181d24"/>
    </radialGradient>
    <linearGradient gradientTransform="matrix(0.0053, 0.0, 0.0, 0.0071, 8.2, -22.85)" gradientUnits="userSpaceOnUse" id="gradient6" spreadMethod="pad" x1="-819.2" x2="819.2">
      <stop offset="0.23921568627450981" stop-color="#333333"/>
      <stop offset="1.0" stop-color="#000000"/>
    </linearGradient>
  </defs>
</svg>
