<?xml version="1.0" encoding="UTF-8" standalone="no"?>
<svg xmlns:ffdec="https://www.free-decompiler.com/flash" xmlns:xlink="http://www.w3.org/1999/xlink" ffdec:objectType="shape" height="30.1px" width="30.35px" xmlns="http://www.w3.org/2000/svg">
  <g transform="matrix(1.0, 0.0, 0.0, 1.0, 0.5, 5.45)">
    <path d="M26.1 16.5 L24.1 16.25 23.85 15.8 22.7 13.65 23.7 12.9 Q24.45 12.1 24.35 11.0 24.3 9.9 23.45 9.2 22.65 8.45 21.55 8.5 L20.8 8.7 20.65 8.75 20.35 8.75 19.15 5.55 18.9 4.95 24.85 4.7 Q27.95 5.85 29.3 8.25 29.55 12.6 27.85 16.7 L26.1 16.5" fill="url(#gradient0)" fill-rule="evenodd" stroke="none"/>
    <path d="M20.65 8.75 L20.8 8.7 21.55 8.5 Q22.65 8.45 23.45 9.2 24.3 9.9 24.35 11.0 24.45 12.1 23.7 12.9 L22.7 13.65 23.85 15.8 24.1 16.25 26.1 16.5 24.7 18.35 19.3 16.95 19.8 15.85 Q20.85 16.3 22.05 16.2 L23.85 15.8 22.05 16.2 Q20.85 16.3 19.8 15.85 L18.2 14.9 17.7 14.35 12.3 14.6 11.35 13.3 10.15 11.6 10.2 11.5 10.55 10.15 10.75 9.4 16.75 9.0 20.35 8.75 20.4 8.85 20.65 8.75 M22.7 13.65 L21.9 13.8 Q20.8 13.85 19.95 13.15 19.15 12.45 19.05 11.35 19.0 10.25 19.7 9.4 L20.4 8.85 19.7 9.4 Q19.0 10.25 19.05 11.35 19.15 12.45 19.95 13.15 20.8 13.85 21.9 13.8 L22.7 13.65 M16.75 9.0 Q16.35 10.05 16.4 11.2 16.55 13.1 17.7 14.35 16.55 13.1 16.4 11.2 16.35 10.05 16.75 9.0" fill="#191919" fill-rule="evenodd" stroke="none"/>
    <path d="M10.75 9.4 L10.55 10.15 3.85 9.15 2.15 7.3 9.95 8.3 9.45 9.45 10.75 9.4" fill="url(#gradient1)" fill-rule="evenodd" stroke="none"/>
    <path d="M19.15 5.55 L20.35 8.75 16.75 9.0 10.75 9.4 9.45 9.45 9.95 8.3 10.7 6.55 12.45 6.2 13.9 6.0 19.15 5.55 M17.15 7.3 L15.5 7.4 17.15 7.3 M13.5 7.5 L11.85 7.6 13.5 7.5" fill="url(#gradient2)" fill-rule="evenodd" stroke="none"/>
    <path d="M10.2 11.5 L10.15 11.6 11.35 13.3 2.1 12.9 0.0 11.25 10.2 11.5" fill="url(#gradient3)" fill-rule="evenodd" stroke="none"/>
    <path d="M14.85 16.85 L8.9 23.45 6.3 23.8 12.85 16.35 14.85 16.85" fill="url(#gradient4)" fill-rule="evenodd" stroke="none"/>
    <path d="M19.8 15.85 L19.3 16.95 19.05 17.4 18.8 17.4 17.05 17.25 14.9 16.85 14.85 16.85 12.85 16.35 11.55 15.9 12.3 14.6 17.7 14.35 18.2 14.9 19.8 15.85" fill="url(#gradient5)" fill-rule="evenodd" stroke="none"/>
    <path d="M17.05 17.25 L18.8 17.4 16.9 21.25 16.1 21.4 15.4 20.05 16.1 21.4 16.9 21.25 16.4 22.2 13.8 22.75 15.4 20.05 17.05 17.25" fill="url(#gradient6)" fill-rule="evenodd" stroke="none"/>
    <path d="M14.5 4.7 L14.6 4.55 Q15.5 3.2 16.35 2.9 L17.0 2.8 17.25 2.3 Q17.75 1.55 18.35 1.15 19.1 0.65 20.85 0.9 L21.75 1.15 Q22.45 1.5 22.75 2.55 L23.25 4.15 M16.9 21.25 L17.85 21.05 18.35 22.9 Q18.45 23.5 18.85 23.85 19.3 24.25 19.75 24.15 20.7 24.0 21.0 22.55 L21.15 20.1 21.0 17.65 M16.5 5.3 Q16.25 4.25 17.0 2.8 L18.5 3.15 19.85 3.9 20.25 4.4 M14.5 4.7 L13.9 6.0 M15.4 20.05 L16.1 21.4 16.9 21.25 M14.9 16.85 L15.15 19.15 15.4 20.05" fill="none" stroke="#181817" stroke-linecap="round" stroke-linejoin="round" stroke-width="1.0"/>
    <path d="M20.35 8.75 L20.65 8.75 20.4 8.85 19.7 9.4 Q19.0 10.25 19.05 11.35 19.15 12.45 19.95 13.15 20.8 13.85 21.9 13.8 L22.7 13.65 M20.35 8.75 L20.4 8.85 M23.85 15.8 L22.05 16.2 Q20.85 16.3 19.8 15.85 L18.2 14.9 17.7 14.35 Q16.55 13.1 16.4 11.2 16.35 10.05 16.75 9.0 M19.3 16.95 L24.7 18.35 26.1 16.5 M10.75 9.4 L10.55 10.15 10.2 11.5 10.15 11.6 11.35 13.3 12.3 14.6 M9.95 8.3 L2.15 7.3 3.85 9.15 10.55 10.15 M12.85 16.35 L6.3 23.8 8.9 23.45 14.85 16.85 12.85 16.35 M18.8 17.4 L19.05 17.4 19.3 16.95 M17.05 17.25 L15.4 20.05 13.8 22.75 16.4 22.2 16.9 21.25 18.8 17.4 M10.2 11.5 L0.0 11.25 2.1 12.9 11.35 13.3" fill="none" stroke="#0e0e0e" stroke-linecap="round" stroke-linejoin="round" stroke-width="1.0"/>
    <path d="M20.65 8.75 L20.8 8.7 21.55 8.5 Q22.65 8.45 23.45 9.2 24.3 9.9 24.35 11.0 24.45 12.1 23.7 12.9 L22.7 13.65 23.85 15.8 24.1 16.25 26.1 16.5 27.85 16.7 Q29.55 12.6 29.3 8.25 27.95 5.85 24.85 4.7 L18.9 4.95 19.15 5.55 20.35 8.75 16.75 9.0 10.75 9.4 9.45 9.45 9.95 8.3 10.7 6.55 12.45 6.2 13.9 6.0 19.15 5.55 M19.8 15.85 L19.3 16.95 M12.3 14.6 L17.7 14.35 M11.85 7.6 L13.5 7.5 M15.5 7.4 L17.15 7.3 M12.85 16.35 L11.55 15.9 12.3 14.6 M17.05 17.25 L18.8 17.4 M14.85 16.85 L14.9 16.85 17.05 17.25" fill="none" stroke="#151515" stroke-linecap="round" stroke-linejoin="round" stroke-width="1.0"/>
    <path d="M14.5 4.7 L14.95 5.3 M8.9 2.45 L12.45 6.2 M7.2 -4.95 L14.5 4.7" fill="none" stroke="#0e0e0e" stroke-linecap="round" stroke-linejoin="round" stroke-opacity="0.49803922" stroke-width="1.0"/>
  </g>
  <defs>
    <radialGradient cx="0" cy="0" gradientTransform="matrix(0.0141, 0.0, 0.0, 0.0141, 21.5, 7.55)" gradientUnits="userSpaceOnUse" id="gradient0" r="819.2" spreadMethod="pad">
      <stop offset="0.0" stop-color="#333333"/>
      <stop offset="1.0" stop-color="#1c1c1c"/>
    </radialGradient>
    <radialGradient cx="0" cy="0" gradientTransform="matrix(0.0024, 0.0, 0.0, 0.0059, 6.85, 8.45)" gradientUnits="userSpaceOnUse" id="gradient1" r="819.2" spreadMethod="pad">
      <stop offset="0.0" stop-color="#333333"/>
      <stop offset="1.0" stop-color="#191919"/>
    </radialGradient>
    <radialGradient cx="0" cy="0" gradientTransform="matrix(0.0086, 0.0, 0.0, 0.0086, 15.95, 6.75)" gradientUnits="userSpaceOnUse" id="gradient2" r="819.2" spreadMethod="pad">
      <stop offset="0.0" stop-color="#333333"/>
      <stop offset="1.0" stop-color="#1c1c1c"/>
    </radialGradient>
    <radialGradient cx="0" cy="0" gradientTransform="matrix(0.0024, 0.0, 0.0, 0.0086, 7.0, 12.25)" gradientUnits="userSpaceOnUse" id="gradient3" r="819.2" spreadMethod="pad">
      <stop offset="0.0" stop-color="#333333"/>
      <stop offset="1.0" stop-color="#191919"/>
    </radialGradient>
    <radialGradient cx="0" cy="0" gradientTransform="matrix(0.0017, -0.0017, 0.0069, 0.0067, 12.1, 18.35)" gradientUnits="userSpaceOnUse" id="gradient4" r="819.2" spreadMethod="pad">
      <stop offset="0.0" stop-color="#333333"/>
      <stop offset="1.0" stop-color="#191919"/>
    </radialGradient>
    <radialGradient cx="0" cy="0" gradientTransform="matrix(0.0051, 0.0, 0.0, 0.0051, 15.75, 16.0)" gradientUnits="userSpaceOnUse" id="gradient5" r="819.2" spreadMethod="pad">
      <stop offset="0.0" stop-color="#333333"/>
      <stop offset="1.0" stop-color="#1c1c1c"/>
    </radialGradient>
    <radialGradient cx="0" cy="0" gradientTransform="matrix(0.0011, -0.0021, 0.0045, 0.0023, 16.8, 19.85)" gradientUnits="userSpaceOnUse" id="gradient6" r="819.2" spreadMethod="pad">
      <stop offset="0.0" stop-color="#333333"/>
      <stop offset="1.0" stop-color="#191919"/>
    </radialGradient>
  </defs>
</svg>
