<?xml version="1.0" encoding="UTF-8" standalone="no"?>
<svg xmlns:ffdec="https://www.free-decompiler.com/flash" xmlns:xlink="http://www.w3.org/1999/xlink" ffdec:objectType="shape" height="30.1px" width="30.35px" xmlns="http://www.w3.org/2000/svg">
  <g transform="matrix(1.0, 0.0, 0.0, 1.0, 0.5, 0.5)">
    <path d="M26.1 21.45 L24.1 21.2 23.85 20.75 22.7 18.6 23.7 17.85 Q24.45 17.05 24.35 15.95 24.3 14.85 23.45 14.15 22.65 13.4 21.55 13.45 L20.8 13.65 20.65 13.7 20.35 13.7 19.15 10.5 18.9 9.9 24.85 9.65 Q27.95 10.8 29.3 13.2 29.55 17.55 27.85 21.65 L26.1 21.45" fill="url(#gradient0)" fill-rule="evenodd" stroke="none"/>
    <path d="M20.65 13.7 L20.8 13.65 21.55 13.45 Q22.65 13.4 23.45 14.15 24.3 14.85 24.35 15.95 24.45 17.05 23.7 17.85 L22.7 18.6 23.85 20.75 24.1 21.2 26.1 21.45 24.7 23.3 19.3 21.9 19.8 20.8 Q20.85 21.25 22.05 21.15 L23.85 20.75 22.05 21.15 Q20.85 21.25 19.8 20.8 L18.2 19.85 17.7 19.3 12.3 19.55 11.35 18.25 10.15 16.55 10.2 16.45 10.55 15.1 10.75 14.35 16.75 13.95 20.35 13.7 20.4 13.8 20.65 13.7 M22.7 18.6 L21.9 18.75 Q20.8 18.8 19.95 18.1 19.15 17.4 19.05 16.3 19.0 15.2 19.7 14.35 L20.4 13.8 19.7 14.35 Q19.0 15.2 19.05 16.3 19.15 17.4 19.95 18.1 20.8 18.8 21.9 18.75 L22.7 18.6 M16.75 13.95 Q16.35 15.0 16.4 16.15 16.55 18.05 17.7 19.3 16.55 18.05 16.4 16.15 16.35 15.0 16.75 13.95" fill="#191919" fill-rule="evenodd" stroke="none"/>
    <path d="M19.15 10.5 L20.35 13.7 16.75 13.95 10.75 14.35 9.45 14.4 9.95 13.25 10.7 11.5 12.45 11.15 13.9 10.95 19.15 10.5 M17.15 12.25 L15.5 12.35 17.15 12.25 M13.5 12.45 L11.85 12.55 13.5 12.45" fill="url(#gradient1)" fill-rule="evenodd" stroke="none"/>
    <path d="M19.8 20.8 L19.3 21.9 19.05 22.35 18.8 22.35 17.05 22.2 14.9 21.8 14.85 21.8 12.85 21.3 11.55 20.85 12.3 19.55 17.7 19.3 18.2 19.85 19.8 20.8" fill="url(#gradient2)" fill-rule="evenodd" stroke="none"/>
    <path d="M11.35 18.25 L2.1 17.85 0.0 16.2 10.2 16.45 10.15 16.55 11.35 18.25" fill="url(#gradient3)" fill-rule="evenodd" stroke="none"/>
    <path d="M9.95 13.25 L9.45 14.4 10.75 14.35 10.55 15.1 3.85 14.1 2.15 12.25 9.95 13.25" fill="url(#gradient4)" fill-rule="evenodd" stroke="none"/>
    <path d="M14.85 21.8 L8.9 28.4 6.3 28.75 12.85 21.3 14.85 21.8" fill="url(#gradient5)" fill-rule="evenodd" stroke="none"/>
    <path d="M15.4 25.0 L17.05 22.2 18.8 22.35 16.9 26.2 16.1 26.35 15.4 25.0 16.1 26.35 16.9 26.2 16.4 27.15 13.8 27.7 15.4 25.0" fill="url(#gradient6)" fill-rule="evenodd" stroke="none"/>
    <path d="M19.8 20.8 L19.3 21.9 M12.85 21.3 L11.55 20.85 12.3 19.55 17.7 19.3 M17.05 22.2 L14.9 21.8 14.85 21.8 M17.05 22.2 L18.8 22.35" fill="none" stroke="#151515" stroke-linecap="round" stroke-linejoin="round" stroke-width="1.0"/>
    <path d="M20.65 13.7 L20.8 13.65 21.55 13.45 Q22.65 13.4 23.45 14.15 24.3 14.85 24.35 15.95 24.45 17.05 23.7 17.85 L22.7 18.6 23.85 20.75 24.1 21.2 26.1 21.45 27.85 21.65 Q29.55 17.55 29.3 13.2 27.95 10.8 24.85 9.65 L18.9 9.9 19.15 10.5 20.35 13.7 20.65 13.7 20.4 13.8 19.7 14.35 Q19.0 15.2 19.05 16.3 19.15 17.4 19.95 18.1 20.8 18.8 21.9 18.75 L22.7 18.6 M20.35 13.7 L20.4 13.8 M23.85 20.75 L22.05 21.15 Q20.85 21.25 19.8 20.8 L18.2 19.85 17.7 19.3 Q16.55 18.05 16.4 16.15 16.35 15.0 16.75 13.95 L20.35 13.7 M19.3 21.9 L24.7 23.3 26.1 21.45 M19.15 10.5 L13.9 10.95 12.45 11.15 10.7 11.5 9.95 13.25 9.45 14.4 10.75 14.35 16.75 13.95 M10.2 16.45 L0.0 16.2 2.1 17.85 11.35 18.25 10.15 16.55 10.2 16.45 10.55 15.1 3.85 14.1 2.15 12.25 9.95 13.25 M10.75 14.35 L10.55 15.1 M12.3 19.55 L11.35 18.25 M15.4 25.0 L17.05 22.2 M14.85 21.8 L8.9 28.4 6.3 28.75 12.85 21.3 14.85 21.8 M18.8 22.35 L19.05 22.35 19.3 21.9 M16.9 26.2 L18.8 22.35 M15.4 25.0 L13.8 27.7 16.4 27.15 16.9 26.2" fill="none" stroke="#0e0e0e" stroke-linecap="round" stroke-linejoin="round" stroke-width="1.0"/>
    <path d="M14.5 9.65 L14.95 10.25 M8.9 7.4 L12.45 11.15 M7.2 0.0 L14.5 9.65" fill="none" stroke="#0e0e0e" stroke-linecap="round" stroke-linejoin="round" stroke-opacity="0.49803922" stroke-width="1.0"/>
    <path d="M14.5 9.65 L14.6 9.5 Q15.5 8.15 16.35 7.85 L17.0 7.75 17.25 7.25 Q17.75 6.5 18.35 6.1 19.1 5.6 20.85 5.85 L21.75 6.1 Q22.45 6.45 22.75 7.5 L23.25 9.1 M14.5 9.65 L13.9 10.95 M20.25 9.35 L19.85 8.85 18.5 8.1 17.0 7.75 Q16.25 9.2 16.5 10.25 M14.9 21.8 L15.15 24.1 15.4 25.0 16.1 26.35 16.9 26.2 17.85 26.0 18.35 27.85 Q18.45 28.45 18.85 28.8 19.3 29.2 19.75 29.1 20.7 28.95 21.0 27.5 L21.15 25.05 21.0 22.6" fill="none" stroke="#181817" stroke-linecap="round" stroke-linejoin="round" stroke-width="1.0"/>
    <path d="M15.5 12.35 L17.15 12.25 M11.85 12.55 L13.5 12.45" fill="none" stroke="url(#gradient7)" stroke-linecap="round" stroke-linejoin="round" stroke-width="1.0"/>
  </g>
  <defs>
    <radialGradient cx="0" cy="0" gradientTransform="matrix(0.0141, 0.0, 0.0, 0.0141, 21.5, 12.5)" gradientUnits="userSpaceOnUse" id="gradient0" r="819.2" spreadMethod="pad">
      <stop offset="0.0" stop-color="#333333"/>
      <stop offset="1.0" stop-color="#1c1c1c"/>
    </radialGradient>
    <radialGradient cx="0" cy="0" gradientTransform="matrix(0.0086, 0.0, 0.0, 0.0086, 15.95, 11.7)" gradientUnits="userSpaceOnUse" id="gradient1" r="819.2" spreadMethod="pad">
      <stop offset="0.0" stop-color="#333333"/>
      <stop offset="1.0" stop-color="#1c1c1c"/>
    </radialGradient>
    <radialGradient cx="0" cy="0" gradientTransform="matrix(0.0051, 0.0, 0.0, 0.0051, 15.75, 20.95)" gradientUnits="userSpaceOnUse" id="gradient2" r="819.2" spreadMethod="pad">
      <stop offset="0.0" stop-color="#333333"/>
      <stop offset="1.0" stop-color="#1c1c1c"/>
    </radialGradient>
    <radialGradient cx="0" cy="0" gradientTransform="matrix(0.0024, 0.0, 0.0, 0.0086, 7.0, 17.2)" gradientUnits="userSpaceOnUse" id="gradient3" r="819.2" spreadMethod="pad">
      <stop offset="0.0" stop-color="#333333"/>
      <stop offset="1.0" stop-color="#191919"/>
    </radialGradient>
    <radialGradient cx="0" cy="0" gradientTransform="matrix(0.0024, 0.0, 0.0, 0.0059, 6.85, 13.4)" gradientUnits="userSpaceOnUse" id="gradient4" r="819.2" spreadMethod="pad">
      <stop offset="0.0" stop-color="#333333"/>
      <stop offset="1.0" stop-color="#191919"/>
    </radialGradient>
    <radialGradient cx="0" cy="0" gradientTransform="matrix(0.0017, -0.0017, 0.0069, 0.0067, 12.1, 23.3)" gradientUnits="userSpaceOnUse" id="gradient5" r="819.2" spreadMethod="pad">
      <stop offset="0.0" stop-color="#333333"/>
      <stop offset="1.0" stop-color="#191919"/>
    </radialGradient>
    <radialGradient cx="0" cy="0" gradientTransform="matrix(0.0011, -0.0021, 0.0045, 0.0023, 16.8, 24.8)" gradientUnits="userSpaceOnUse" id="gradient6" r="819.2" spreadMethod="pad">
      <stop offset="0.0" stop-color="#333333"/>
      <stop offset="1.0" stop-color="#191919"/>
    </radialGradient>
    <linearGradient gradientTransform="matrix(0.0185, 0.0, 0.0, 0.0184, 14.65, 14.55)" gradientUnits="userSpaceOnUse" id="gradient7" spreadMethod="pad" x1="-819.2" x2="819.2">
      <stop offset="0.0" stop-color="#000000"/>
      <stop offset="0.8745098039215686" stop-color="#313131"/>
      <stop offset="1.0" stop-color="#333333"/>
    </linearGradient>
  </defs>
</svg>
