<?xml version="1.0" encoding="UTF-8" standalone="no"?>
<svg xmlns:ffdec="https://www.free-decompiler.com/flash" xmlns:xlink="http://www.w3.org/1999/xlink" ffdec:objectType="shape" height="30.0px" width="27.65px" xmlns="http://www.w3.org/2000/svg">
  <g transform="matrix(1.0, 0.0, 0.0, 1.0, 0.5, 0.5)">
    <path d="M11.4 0.85 L12.25 0.0 13.35 0.1 14.1 0.2 15.9 1.85 16.4 2.3 20.65 3.35 Q21.5 4.15 21.0 5.05 L20.55 5.8 Q18.8 5.05 16.15 4.4 L10.05 3.8 Q9.85 3.5 10.35 2.55 L10.45 2.35 11.4 0.85 M22.0 6.85 L23.35 6.8 24.1 8.35 22.45 8.35 21.2 8.55 Q20.35 8.9 20.35 12.7 20.35 16.45 20.7 17.4 20.9 18.0 22.95 17.85 L24.45 17.65 24.05 19.0 22.3 19.25 18.9 19.75 Q16.8 19.7 15.95 18.9 L14.45 17.4 Q13.2 16.05 13.95 15.3 14.7 14.5 15.95 14.2 17.25 13.8 17.5 11.3 17.8 8.7 18.2 7.95 18.6 7.1 19.8 6.95 L22.0 6.85 M22.25 20.55 L23.1 20.55 23.75 21.3 23.55 22.0 Q22.7 22.3 22.45 22.85 L22.3 23.85 22.2 24.7 22.1 25.25 Q22.2 25.9 22.8 26.55 L22.4 27.25 20.4 27.35 17.9 26.1 Q14.1 26.1 15.05 24.8 L15.2 24.7 15.85 23.85 Q16.3 23.15 16.4 22.3 16.4 21.65 17.35 21.1 L22.25 20.55 M4.1 7.35 L4.6 6.45 5.45 6.45 7.9 7.65 7.65 9.45 4.1 7.35 M7.65 14.0 Q8.55 14.2 9.3 14.95 10.05 15.65 10.1 17.35 L8.25 16.25 8.2 16.2 7.35 15.85 Q5.75 15.4 5.3 16.95 5.0 17.8 5.35 19.0 L6.4 19.95 9.25 21.4 Q8.4 21.95 7.6 21.9 L6.05 21.6 5.0 21.1 Q4.6 20.9 4.1 19.85 3.6 18.4 3.6 17.6 3.6 15.75 4.95 14.4 5.15 14.15 6.25 14.05 L7.65 14.0 M11.85 18.6 L13.55 18.55 14.2 18.8 Q15.0 19.25 15.3 20.05 15.65 21.1 15.35 22.3 L14.4 23.85 14.1 24.15 Q13.35 24.75 12.55 24.65 L11.4 24.1 10.65 23.7 Q9.9 23.1 10.05 22.1 L11.7 22.95 11.95 23.1 Q13.5 23.3 14.05 22.1 14.5 21.05 13.6 20.0 L13.3 19.65 11.85 18.6" fill="#3a3a3a" fill-rule="evenodd" stroke="none"/>
    <path d="M20.55 5.8 L21.6 5.85 22.0 6.85 19.8 6.95 Q18.6 7.1 18.2 7.95 17.8 8.7 17.5 11.3 17.25 13.8 15.95 14.2 14.7 14.5 13.95 15.3 13.2 16.05 14.45 17.4 L15.95 18.9 Q16.8 19.7 18.9 19.75 L22.3 19.25 22.25 20.55 17.35 21.1 Q16.4 21.65 16.4 22.3 16.3 23.15 15.85 23.85 L15.2 24.7 15.05 24.8 Q14.1 26.1 17.9 26.1 L20.4 27.35 Q20.4 28.6 18.1 28.8 L13.0 28.95 Q11.3 29.1 10.05 28.5 8.75 27.95 8.55 27.1 L8.45 26.2 10.6 26.35 12.55 24.65 Q13.35 24.75 14.1 24.15 L14.4 23.85 15.35 22.3 Q15.65 21.1 15.3 20.05 15.0 19.25 14.2 18.8 L13.55 18.55 11.85 18.6 11.05 17.95 10.1 17.35 Q10.05 15.65 9.3 14.95 8.55 14.2 7.65 14.0 L7.7 11.8 7.65 9.45 7.9 7.65 8.15 6.65 8.25 6.3 8.75 5.25 9.35 4.3 9.9 3.65 Q9.7 3.9 10.05 3.8 L16.15 4.4 Q18.8 5.05 20.55 5.8" fill="#2a2a2a" fill-rule="evenodd" stroke="none"/>
    <path d="M24.1 8.35 L24.4 8.35 Q26.2 8.2 26.45 10.25 L26.65 14.2 26.45 16.85 Q26.3 17.5 24.8 17.55 L24.45 17.65 22.95 17.85 Q20.9 18.0 20.7 17.4 20.35 16.45 20.35 12.7 20.35 8.9 21.2 8.55 L22.45 8.35 24.1 8.35 M23.55 22.0 Q24.55 22.15 24.4 23.35 L24.25 23.85 24.05 24.7 23.55 26.55 22.8 26.55 Q22.2 25.9 22.1 25.25 L22.2 24.7 22.3 23.85 22.45 22.85 Q22.7 22.3 23.55 22.0 M22.95 17.85 Q23.05 13.15 22.45 8.35 23.05 13.15 22.95 17.85 M24.8 17.55 Q25.3 11.75 24.4 8.35 25.3 11.75 24.8 17.55" fill="#1c1c1c" fill-rule="evenodd" stroke="none"/>
    <path d="M5.45 6.45 L6.15 5.35 6.25 5.1 6.9 4.1 7.15 3.65 8.75 5.25 8.25 6.3 8.15 6.65 7.9 7.65 5.45 6.45 M6.15 5.35 L8.15 6.65 6.15 5.35" fill="url(#gradient0)" fill-rule="evenodd" stroke="none"/>
    <path d="M0.1 12.8 L0.0 12.1 0.2 11.3 0.85 9.4 1.15 8.65 2.25 7.8 2.85 7.65 4.1 7.35 7.65 9.45 7.7 11.8 2.95 12.05 2.85 12.1 0.1 12.8 M3.25 8.3 L2.7 8.5 2.5 9.05 2.7 9.55 Q2.95 9.8 3.25 9.8 L3.75 9.55 4.0 9.05 3.75 8.5 3.25 8.3" fill="url(#gradient1)" fill-rule="evenodd" stroke="none"/>
    <path d="M2.15 19.95 L0.1 12.8 2.85 12.1 2.95 12.05 7.7 11.8 7.65 14.0 6.25 14.05 Q5.15 14.15 4.95 14.4 3.6 15.75 3.6 17.6 3.6 18.4 4.1 19.85 L2.15 19.95" fill="#232323" fill-rule="evenodd" stroke="none"/>
    <path d="M10.1 17.35 L11.05 17.95 11.85 18.6 13.3 19.65 13.6 20.0 Q14.5 21.05 14.05 22.1 13.5 23.3 11.95 23.1 L11.7 22.95 10.05 22.1 9.6 21.7 9.25 21.4 6.4 19.95 5.35 19.0 Q5.0 17.8 5.3 16.95 5.75 15.4 7.35 15.85 L8.2 16.2 8.25 16.25 10.1 17.35 M11.05 17.95 L9.6 21.7 11.05 17.95 M6.4 19.95 L8.25 16.25 6.4 19.95 M11.7 22.95 L13.6 20.0 11.7 22.95" fill="url(#gradient2)" fill-rule="evenodd" stroke="none"/>
    <path d="M6.95 25.2 L6.05 25.25 Q5.05 25.25 4.85 24.65 L3.7 23.05 2.85 22.2 2.4 21.7 Q2.15 21.4 2.15 19.95 L4.1 19.85 Q4.6 20.9 5.0 21.1 L6.05 21.6 6.95 25.2" fill="url(#gradient3)" fill-rule="evenodd" stroke="none"/>
    <path d="M8.45 26.2 L6.95 25.2 6.05 21.6 7.6 21.9 Q8.4 21.95 9.25 21.4 L9.6 21.7 10.05 22.1 Q9.9 23.1 10.65 23.7 L11.4 24.1 12.55 24.65 10.6 26.35 8.45 26.2" fill="#434343" fill-rule="evenodd" stroke="none"/>
    <path d="M7.15 3.65 L7.65 2.95 8.85 1.7 9.75 3.75 9.9 3.65 9.35 4.3 8.75 5.25 7.15 3.65" fill="url(#gradient4)" fill-rule="evenodd" stroke="none"/>
    <path d="M8.85 1.7 L9.15 1.45 Q9.55 1.2 9.9 1.05 L11.4 0.85 10.45 2.35 10.35 2.55 Q9.85 3.5 10.05 3.8 9.7 3.9 9.9 3.65 L9.75 3.75 8.85 1.7" fill="url(#gradient5)" fill-rule="evenodd" stroke="none"/>
    <path d="M3.25 8.3 L3.75 8.5 4.0 9.05 3.75 9.55 3.25 9.8 Q2.95 9.8 2.7 9.55 L2.5 9.05 2.7 8.5 3.25 8.3" fill="#ff0000" fill-rule="evenodd" stroke="none"/>
    <path d="M11.4 0.85 L12.25 0.0 13.35 0.1 14.1 0.2 15.9 1.85 16.4 2.3 20.65 3.35 Q21.5 4.15 21.0 5.05 L20.55 5.8 21.6 5.85 22.0 6.85 23.35 6.8 24.1 8.35 24.4 8.35 Q26.2 8.2 26.45 10.25 L26.65 14.2 26.45 16.85 Q26.3 17.5 24.8 17.55 L24.45 17.65 24.05 19.0 22.3 19.25 22.25 20.55 23.1 20.55 23.75 21.3 23.55 22.0 Q24.55 22.15 24.4 23.35 L24.25 23.85 24.05 24.7 23.55 26.55 22.8 26.55 22.4 27.25 20.4 27.35 Q20.4 28.6 18.1 28.8 L13.0 28.95 Q11.3 29.1 10.05 28.5 8.75 27.95 8.55 27.1 L8.45 26.2 6.95 25.2 6.05 25.25 Q5.05 25.25 4.85 24.65 L3.7 23.05 2.85 22.2 2.4 21.7 Q2.15 21.4 2.15 19.95 L0.1 12.8 0.0 12.1 0.2 11.3 0.85 9.4 1.15 8.65 2.25 7.8 2.85 7.65 4.1 7.35 4.6 6.45 5.45 6.45 6.15 5.35 6.25 5.1 6.9 4.1 7.15 3.65 7.65 2.95 8.85 1.7 9.15 1.45 Q9.55 1.2 9.9 1.05 L11.4 0.85 10.45 2.35 10.35 2.55 Q9.85 3.5 10.05 3.8 L16.15 4.4 Q18.8 5.05 20.55 5.8 M24.45 17.65 L22.95 17.85 Q20.9 18.0 20.7 17.4 20.35 16.45 20.35 12.7 20.35 8.9 21.2 8.55 L22.45 8.35 24.1 8.35 M22.8 26.55 Q22.2 25.9 22.1 25.25 L22.2 24.7 22.3 23.85 22.45 22.85 Q22.7 22.3 23.55 22.0 M24.4 8.35 Q25.3 11.75 24.8 17.55 M22.45 8.35 Q23.05 13.15 22.95 17.85 M22.3 19.25 L18.9 19.75 Q16.8 19.7 15.95 18.9 L14.45 17.4 Q13.2 16.05 13.95 15.3 14.7 14.5 15.95 14.2 17.25 13.8 17.5 11.3 17.8 8.7 18.2 7.95 18.6 7.1 19.8 6.95 L22.0 6.85 M8.85 1.7 L9.75 3.75 9.9 3.65 Q9.7 3.9 10.05 3.8 M8.75 5.25 L9.35 4.3 9.9 3.65 M7.15 3.65 L8.75 5.25 8.25 6.3 8.15 6.65 7.9 7.65 7.65 9.45 7.7 11.8 7.65 14.0 Q8.55 14.2 9.3 14.95 10.05 15.65 10.1 17.35 L11.05 17.95 11.85 18.6 13.55 18.55 14.2 18.8 Q15.0 19.25 15.3 20.05 15.65 21.1 15.35 22.3 L14.4 23.85 14.1 24.15 Q13.35 24.75 12.55 24.65 L10.6 26.35 8.45 26.2 M0.1 12.8 L2.85 12.1 2.95 12.05 7.7 11.8 M5.45 6.45 L7.9 7.65 M7.65 9.45 L4.1 7.35 M8.15 6.65 L6.15 5.35 M9.25 21.4 L6.4 19.95 5.35 19.0 Q5.0 17.8 5.3 16.95 5.75 15.4 7.35 15.85 L8.2 16.2 8.25 16.25 10.1 17.35 M4.1 19.85 Q3.6 18.4 3.6 17.6 3.6 15.75 4.95 14.4 5.15 14.15 6.25 14.05 L7.65 14.0 M4.1 19.85 L2.15 19.95 M4.1 19.85 Q4.6 20.9 5.0 21.1 L6.05 21.6 7.6 21.9 Q8.4 21.95 9.25 21.4 L9.6 21.7 11.05 17.95 M10.05 22.1 L9.6 21.7 M8.25 16.25 L6.4 19.95 M11.85 18.6 L13.3 19.65 13.6 20.0 Q14.5 21.05 14.05 22.1 13.5 23.3 11.95 23.1 L11.7 22.95 10.05 22.1 Q9.9 23.1 10.65 23.7 L11.4 24.1 12.55 24.65 M13.6 20.0 L11.7 22.95 M22.25 20.55 L17.35 21.1 Q16.4 21.65 16.4 22.3 16.3 23.15 15.85 23.85 L15.2 24.7 15.05 24.8 Q14.1 26.1 17.9 26.1 L20.4 27.35 M6.95 25.2 L6.05 21.6" fill="none" stroke="#101010" stroke-linecap="round" stroke-linejoin="round" stroke-width="1.0"/>
    <path d="M19.2 8.5 L19.45 8.5 M19.85 4.4 L20.1 4.4 M11.6 2.75 L11.85 2.75 M1.55 11.05 L1.8 11.05 M6.2 10.9 L6.45 10.9 M7.85 24.5 L8.1 24.5 M2.7 18.9 L2.95 18.9 M1.6 13.55 L1.85 13.55 M6.2 13.0 L6.45 13.0 M17.75 18.4 L18.0 18.4 M20.5 25.7 L20.75 25.7" fill="none" stroke="#151515" stroke-linecap="round" stroke-linejoin="round" stroke-width="1.0"/>
  </g>
  <defs>
    <linearGradient gradientTransform="matrix(0.0019, 0.0018, -0.0029, 0.003, 8.4, 4.2)" gradientUnits="userSpaceOnUse" id="gradient0" spreadMethod="pad" x1="-819.2" x2="819.2">
      <stop offset="0.0" stop-color="#727272"/>
      <stop offset="1.0" stop-color="#000000"/>
    </linearGradient>
    <linearGradient gradientTransform="matrix(0.0043, 0.0, 0.0, 0.0035, 4.1, 10.15)" gradientUnits="userSpaceOnUse" id="gradient1" spreadMethod="pad" x1="-819.2" x2="819.2">
      <stop offset="0.0" stop-color="#464646"/>
      <stop offset="1.0" stop-color="#232323"/>
    </linearGradient>
    <linearGradient gradientTransform="matrix(-0.0013, 0.0022, -0.0039, -0.0022, 9.55, 19.4)" gradientUnits="userSpaceOnUse" id="gradient2" spreadMethod="pad" x1="-819.2" x2="819.2">
      <stop offset="0.1607843137254902" stop-color="#4d4d4d"/>
      <stop offset="0.7490196078431373" stop-color="#232323"/>
    </linearGradient>
    <linearGradient gradientTransform="matrix(0.0031, 0.0, 0.0, 0.0033, 4.4, 22.5)" gradientUnits="userSpaceOnUse" id="gradient3" spreadMethod="pad" x1="-819.2" x2="819.2">
      <stop offset="0.1607843137254902" stop-color="#414141"/>
      <stop offset="0.7490196078431373" stop-color="#252525"/>
    </linearGradient>
    <radialGradient cx="0" cy="0" fx="192.0" fy="0" gradientTransform="matrix(0.0024, 0.0, 0.0, 0.0024, 8.05, 2.95)" gradientUnits="userSpaceOnUse" id="gradient4" r="819.2" spreadMethod="pad">
      <stop offset="0.0" stop-color="#484848"/>
      <stop offset="0.4470588235294118" stop-color="#2a2a2a"/>
      <stop offset="1.0" stop-color="#0e0e0e"/>
      <stop offset="1.0" stop-color="#383838"/>
    </radialGradient>
    <radialGradient cx="0" cy="0" fx="192.0" fy="0" gradientTransform="matrix(0.0027, 0.0, 0.0, 0.0027, 9.15, 1.6)" gradientUnits="userSpaceOnUse" id="gradient5" r="819.2" spreadMethod="pad">
      <stop offset="0.0" stop-color="#484848"/>
      <stop offset="0.4470588235294118" stop-color="#2a2a2a"/>
      <stop offset="1.0" stop-color="#0e0e0e"/>
      <stop offset="1.0" stop-color="#383838"/>
    </radialGradient>
  </defs>
</svg>
