<?xml version="1.0" encoding="UTF-8" standalone="no"?>
<svg xmlns:ffdec="https://www.free-decompiler.com/flash" xmlns:xlink="http://www.w3.org/1999/xlink" ffdec:objectType="shape" height="30.1px" width="30.35px" xmlns="http://www.w3.org/2000/svg">
  <g transform="matrix(1.0, 0.0, 0.0, 1.0, 0.5, 2.3)">
    <path d="M20.65 11.9 L20.8 11.85 21.55 11.65 Q22.65 11.6 23.45 12.35 24.3 13.05 24.35 14.15 24.45 15.25 23.7 16.05 L22.7 16.8 23.85 18.95 24.1 19.4 26.1 19.65 24.7 21.5 19.3 20.1 19.8 19.0 Q20.85 19.45 22.05 19.35 L23.85 18.95 22.05 19.35 Q20.85 19.45 19.8 19.0 L18.2 18.05 17.7 17.5 12.3 17.75 11.35 16.45 10.15 14.75 10.2 14.65 10.55 13.3 10.75 12.55 16.75 12.15 20.35 11.9 20.4 12.0 20.65 11.9 M22.7 16.8 L21.9 16.95 Q20.8 17.0 19.95 16.3 19.15 15.6 19.05 14.5 19.0 13.4 19.7 12.55 L20.4 12.0 19.7 12.55 Q19.0 13.4 19.05 14.5 19.15 15.6 19.95 16.3 20.8 17.0 21.9 16.95 L22.7 16.8 M16.75 12.15 Q16.35 13.2 16.4 14.35 16.55 16.25 17.7 17.5 16.55 16.25 16.4 14.35 16.35 13.2 16.75 12.15" fill="#191919" fill-rule="evenodd" stroke="none"/>
    <path d="M26.1 19.65 L24.1 19.4 23.85 18.95 22.7 16.8 23.7 16.05 Q24.45 15.25 24.35 14.15 24.3 13.05 23.45 12.35 22.65 11.6 21.55 11.65 L20.8 11.85 20.65 11.9 20.35 11.9 19.15 8.7 18.9 8.1 24.85 7.85 Q27.95 9.0 29.3 11.4 29.55 15.75 27.85 19.85 L26.1 19.65" fill="url(#gradient0)" fill-rule="evenodd" stroke="none"/>
    <path d="M19.15 8.7 L20.35 11.9 16.75 12.15 10.75 12.55 9.45 12.6 9.95 11.45 10.7 9.7 12.45 9.35 13.9 9.15 19.15 8.7 M17.15 10.45 L15.5 10.55 17.15 10.45 M13.5 10.65 L11.85 10.75 13.5 10.65" fill="url(#gradient1)" fill-rule="evenodd" stroke="none"/>
    <path d="M9.95 11.45 L9.45 12.6 10.75 12.55 10.55 13.3 3.85 12.3 2.15 10.45 9.95 11.45" fill="url(#gradient2)" fill-rule="evenodd" stroke="none"/>
    <path d="M11.35 16.45 L2.1 16.05 0.0 14.4 10.2 14.65 10.15 14.75 11.35 16.45" fill="url(#gradient3)" fill-rule="evenodd" stroke="none"/>
    <path d="M19.8 19.0 L19.3 20.1 19.05 20.55 18.8 20.55 17.05 20.4 14.9 20.0 14.85 20.0 12.85 19.5 11.55 19.05 12.3 17.75 17.7 17.5 18.2 18.05 19.8 19.0" fill="url(#gradient4)" fill-rule="evenodd" stroke="none"/>
    <path d="M12.85 19.5 L14.85 20.0 8.9 26.6 6.3 26.95 12.85 19.5" fill="url(#gradient5)" fill-rule="evenodd" stroke="none"/>
    <path d="M17.05 20.4 L18.8 20.55 16.9 24.4 16.4 25.35 13.8 25.9 15.4 23.2 17.05 20.4 M16.9 24.4 L16.1 24.55 15.4 23.2 16.1 24.55 16.9 24.4" fill="url(#gradient6)" fill-rule="evenodd" stroke="none"/>
    <path d="M20.65 11.9 L20.8 11.85 21.55 11.65 Q22.65 11.6 23.45 12.35 24.3 13.05 24.35 14.15 24.45 15.25 23.7 16.05 L22.7 16.8 23.85 18.95 24.1 19.4 26.1 19.65 27.85 19.85 Q29.55 15.75 29.3 11.4 27.95 9.0 24.85 7.85 L18.9 8.1 19.15 8.7 20.35 11.9 16.75 12.15 10.75 12.55 9.45 12.6 9.95 11.45 10.7 9.7 12.45 9.35 13.9 9.15 19.15 8.7 M19.8 19.0 L19.3 20.1 M11.85 10.75 L13.5 10.65 M15.5 10.55 L17.15 10.45 M17.7 17.5 L12.3 17.75 11.55 19.05 12.85 19.5 M14.85 20.0 L14.9 20.0 17.05 20.4 18.8 20.55" fill="none" stroke="#151515" stroke-linecap="round" stroke-linejoin="round" stroke-width="1.0"/>
    <path d="M14.5 7.85 L14.6 7.7 Q15.5 6.35 16.35 6.05 L17.0 5.95 17.25 5.45 Q17.75 4.7 18.35 4.3 19.1 3.8 20.85 4.05 L21.75 4.3 Q22.45 4.65 22.75 5.7 L23.25 7.3 M16.9 24.4 L17.85 24.2 18.35 26.05 Q18.45 26.65 18.85 27.0 19.3 27.4 19.75 27.3 20.7 27.15 21.0 25.7 L21.15 23.25 21.0 20.8 M14.5 7.85 L13.9 9.15 M20.25 7.55 L19.85 7.05 18.5 6.3 17.0 5.95 Q16.25 7.4 16.5 8.45 M14.9 20.0 L15.15 22.3 15.4 23.2 16.1 24.55 16.9 24.4" fill="none" stroke="#181817" stroke-linecap="round" stroke-linejoin="round" stroke-width="1.0"/>
    <path d="M20.35 11.9 L20.65 11.9 20.4 12.0 19.7 12.55 Q19.0 13.4 19.05 14.5 19.15 15.6 19.95 16.3 20.8 17.0 21.9 16.95 L22.7 16.8 M20.35 11.9 L20.4 12.0 M23.85 18.95 L22.05 19.35 Q20.85 19.45 19.8 19.0 L18.2 18.05 17.7 17.5 Q16.55 16.25 16.4 14.35 16.35 13.2 16.75 12.15 M19.3 20.1 L24.7 21.5 26.1 19.65 M9.95 11.45 L2.15 10.45 3.85 12.3 10.55 13.3 10.75 12.55 M10.2 14.65 L0.0 14.4 2.1 16.05 11.35 16.45 10.15 14.75 10.2 14.65 10.55 13.3 M12.85 19.5 L14.85 20.0 8.9 26.6 6.3 26.95 12.85 19.5 M18.8 20.55 L19.05 20.55 19.3 20.1 M11.35 16.45 L12.3 17.75 M15.4 23.2 L17.05 20.4 M16.9 24.4 L18.8 20.55 M15.4 23.2 L13.8 25.9 16.4 25.35 16.9 24.4" fill="none" stroke="#0e0e0e" stroke-linecap="round" stroke-linejoin="round" stroke-width="1.0"/>
    <path d="M14.5 7.85 L14.95 8.45 M8.9 5.6 L12.45 9.35 M7.2 -1.8 L14.5 7.85" fill="none" stroke="#0e0e0e" stroke-linecap="round" stroke-linejoin="round" stroke-opacity="0.49803922" stroke-width="1.0"/>
  </g>
  <defs>
    <radialGradient cx="0" cy="0" gradientTransform="matrix(0.0141, 0.0, 0.0, 0.0141, 21.5, 10.7)" gradientUnits="userSpaceOnUse" id="gradient0" r="819.2" spreadMethod="pad">
      <stop offset="0.0" stop-color="#333333"/>
      <stop offset="1.0" stop-color="#1c1c1c"/>
    </radialGradient>
    <radialGradient cx="0" cy="0" gradientTransform="matrix(0.0086, 0.0, 0.0, 0.0086, 15.95, 9.9)" gradientUnits="userSpaceOnUse" id="gradient1" r="819.2" spreadMethod="pad">
      <stop offset="0.0" stop-color="#333333"/>
      <stop offset="1.0" stop-color="#1c1c1c"/>
    </radialGradient>
    <radialGradient cx="0" cy="0" gradientTransform="matrix(0.0024, 0.0, 0.0, 0.0059, 6.85, 11.6)" gradientUnits="userSpaceOnUse" id="gradient2" r="819.2" spreadMethod="pad">
      <stop offset="0.0" stop-color="#333333"/>
      <stop offset="1.0" stop-color="#191919"/>
    </radialGradient>
    <radialGradient cx="0" cy="0" gradientTransform="matrix(0.0024, 0.0, 0.0, 0.0086, 7.0, 15.4)" gradientUnits="userSpaceOnUse" id="gradient3" r="819.2" spreadMethod="pad">
      <stop offset="0.0" stop-color="#333333"/>
      <stop offset="1.0" stop-color="#191919"/>
    </radialGradient>
    <radialGradient cx="0" cy="0" gradientTransform="matrix(0.0051, 0.0, 0.0, 0.0051, 15.75, 19.15)" gradientUnits="userSpaceOnUse" id="gradient4" r="819.2" spreadMethod="pad">
      <stop offset="0.0" stop-color="#333333"/>
      <stop offset="1.0" stop-color="#1c1c1c"/>
    </radialGradient>
    <radialGradient cx="0" cy="0" gradientTransform="matrix(0.0017, -0.0017, 0.0069, 0.0067, 12.1, 21.5)" gradientUnits="userSpaceOnUse" id="gradient5" r="819.2" spreadMethod="pad">
      <stop offset="0.0" stop-color="#333333"/>
      <stop offset="1.0" stop-color="#191919"/>
    </radialGradient>
    <radialGradient cx="0" cy="0" gradientTransform="matrix(0.0011, -0.0021, 0.0045, 0.0023, 16.8, 23.0)" gradientUnits="userSpaceOnUse" id="gradient6" r="819.2" spreadMethod="pad">
      <stop offset="0.0" stop-color="#333333"/>
      <stop offset="1.0" stop-color="#191919"/>
    </radialGradient>
  </defs>
</svg>
