<?xml version="1.0" encoding="UTF-8" standalone="no"?>
<svg xmlns:ffdec="https://www.free-decompiler.com/flash" xmlns:xlink="http://www.w3.org/1999/xlink" ffdec:objectType="shape" height="30.1px" width="30.35px" xmlns="http://www.w3.org/2000/svg">
  <g transform="matrix(1.0, 0.0, 0.0, 1.0, 0.5, 5.15)">
    <path d="M20.65 9.05 L20.35 9.05 19.15 5.85 18.9 5.25 24.85 5.0 Q27.95 6.15 29.3 8.55 29.55 12.9 27.85 17.0 L26.1 16.8 24.1 16.55 23.85 16.1 22.7 13.95 23.7 13.2 Q24.45 12.4 24.35 11.3 24.3 10.2 23.45 9.5 22.65 8.75 21.55 8.8 L20.8 9.0 20.65 9.05" fill="url(#gradient0)" fill-rule="evenodd" stroke="none"/>
    <path d="M20.35 9.05 L20.4 9.15 20.65 9.05 20.8 9.0 21.55 8.8 Q22.65 8.75 23.45 9.5 24.3 10.2 24.35 11.3 24.45 12.4 23.7 13.2 L22.7 13.95 23.85 16.1 24.1 16.55 26.1 16.8 24.7 18.65 19.3 17.25 19.8 16.15 Q20.85 16.6 22.05 16.5 L23.85 16.1 22.05 16.5 Q20.85 16.6 19.8 16.15 L18.2 15.2 17.7 14.65 12.3 14.9 11.35 13.6 10.15 11.9 10.2 11.8 10.55 10.45 10.75 9.7 16.75 9.3 20.35 9.05 M20.4 9.15 L19.7 9.7 Q19.0 10.55 19.05 11.65 19.15 12.75 19.95 13.45 20.8 14.15 21.9 14.1 L22.7 13.95 21.9 14.1 Q20.8 14.15 19.95 13.45 19.15 12.75 19.05 11.65 19.0 10.55 19.7 9.7 L20.4 9.15 M16.75 9.3 Q16.35 10.35 16.4 11.5 16.55 13.4 17.7 14.65 16.55 13.4 16.4 11.5 16.35 10.35 16.75 9.3" fill="#191919" fill-rule="evenodd" stroke="none"/>
    <path d="M9.95 8.6 L9.45 9.75 10.75 9.7 10.55 10.45 3.85 9.45 2.15 7.6 9.95 8.6" fill="url(#gradient1)" fill-rule="evenodd" stroke="none"/>
    <path d="M19.15 5.85 L20.35 9.05 16.75 9.3 10.75 9.7 9.45 9.75 9.95 8.6 10.7 6.85 12.45 6.5 13.9 6.3 19.15 5.85 M13.5 7.8 L11.85 7.9 13.5 7.8 M17.15 7.6 L15.5 7.7 17.15 7.6" fill="url(#gradient2)" fill-rule="evenodd" stroke="none"/>
    <path d="M10.2 11.8 L10.15 11.9 11.35 13.6 2.1 13.2 0.0 11.55 10.2 11.8" fill="url(#gradient3)" fill-rule="evenodd" stroke="none"/>
    <path d="M14.85 17.15 L8.9 23.75 6.3 24.1 12.85 16.65 14.85 17.15" fill="url(#gradient4)" fill-rule="evenodd" stroke="none"/>
    <path d="M19.8 16.15 L19.3 17.25 19.05 17.7 18.8 17.7 17.05 17.55 14.9 17.15 14.85 17.15 12.85 16.65 11.55 16.2 12.3 14.9 17.7 14.65 18.2 15.2 19.8 16.15" fill="url(#gradient5)" fill-rule="evenodd" stroke="none"/>
    <path d="M17.05 17.55 L18.8 17.7 16.9 21.55 16.1 21.7 15.4 20.35 16.1 21.7 16.9 21.55 16.4 22.5 13.8 23.05 15.4 20.35 17.05 17.55" fill="url(#gradient6)" fill-rule="evenodd" stroke="none"/>
    <path d="M14.5 5.0 L14.6 4.85 Q15.5 3.5 16.35 3.2 L17.0 3.1 17.25 2.6 Q17.75 1.85 18.35 1.45 19.1 0.95 20.85 1.2 L21.75 1.45 Q22.45 1.8 22.75 2.85 L23.25 4.45 M16.9 21.55 L17.85 21.35 18.35 23.2 Q18.45 23.8 18.85 24.15 19.3 24.55 19.75 24.45 20.7 24.3 21.0 22.85 L21.15 20.4 21.0 17.95 M16.5 5.6 Q16.25 4.55 17.0 3.1 L18.5 3.45 19.85 4.2 20.25 4.7 M14.5 5.0 L13.9 6.3 M15.4 20.35 L16.1 21.7 16.9 21.55 M14.9 17.15 L15.15 19.45 15.4 20.35" fill="none" stroke="#181817" stroke-linecap="round" stroke-linejoin="round" stroke-width="1.0"/>
    <path d="M20.35 9.05 L19.15 5.85 13.9 6.3 12.45 6.5 10.7 6.85 9.95 8.6 9.45 9.75 10.75 9.7 16.75 9.3 20.35 9.05 M20.65 9.05 L20.8 9.0 21.55 8.8 Q22.65 8.75 23.45 9.5 24.3 10.2 24.35 11.3 24.45 12.4 23.7 13.2 L22.7 13.95 23.85 16.1 24.1 16.55 26.1 16.8 27.85 17.0 Q29.55 12.9 29.3 8.55 27.95 6.15 24.85 5.0 L18.9 5.25 19.15 5.85 M19.8 16.15 L19.3 17.25 M12.3 14.9 L17.7 14.65 M11.85 7.9 L13.5 7.8 M15.5 7.7 L17.15 7.6 M12.85 16.65 L11.55 16.2 12.3 14.9 M17.05 17.55 L18.8 17.7 M14.85 17.15 L14.9 17.15 17.05 17.55" fill="none" stroke="#151515" stroke-linecap="round" stroke-linejoin="round" stroke-width="1.0"/>
    <path d="M20.35 9.05 L20.4 9.15 20.65 9.05 20.35 9.05 M22.7 13.95 L21.9 14.1 Q20.8 14.15 19.95 13.45 19.15 12.75 19.05 11.65 19.0 10.55 19.7 9.7 L20.4 9.15 M23.85 16.1 L22.05 16.5 Q20.85 16.6 19.8 16.15 L18.2 15.2 17.7 14.65 Q16.55 13.4 16.4 11.5 16.35 10.35 16.75 9.3 M19.3 17.25 L24.7 18.65 26.1 16.8 M10.55 10.45 L10.2 11.8 10.15 11.9 11.35 13.6 12.3 14.9 M10.75 9.7 L10.55 10.45 3.85 9.45 2.15 7.6 9.95 8.6 M12.85 16.65 L6.3 24.1 8.9 23.75 14.85 17.15 12.85 16.65 M18.8 17.7 L19.05 17.7 19.3 17.25 M17.05 17.55 L15.4 20.35 13.8 23.05 16.4 22.5 16.9 21.55 18.8 17.7 M10.2 11.8 L0.0 11.55 2.1 13.2 11.35 13.6" fill="none" stroke="#0e0e0e" stroke-linecap="round" stroke-linejoin="round" stroke-width="1.0"/>
    <path d="M14.5 5.0 L14.95 5.6 M8.9 2.75 L12.45 6.5 M7.2 -4.65 L14.5 5.0" fill="none" stroke="#0e0e0e" stroke-linecap="round" stroke-linejoin="round" stroke-opacity="0.49803922" stroke-width="1.0"/>
  </g>
  <defs>
    <radialGradient cx="0" cy="0" gradientTransform="matrix(0.0141, 0.0, 0.0, 0.0141, 21.5, 7.85)" gradientUnits="userSpaceOnUse" id="gradient0" r="819.2" spreadMethod="pad">
      <stop offset="0.0" stop-color="#333333"/>
      <stop offset="1.0" stop-color="#1c1c1c"/>
    </radialGradient>
    <radialGradient cx="0" cy="0" gradientTransform="matrix(0.0024, 0.0, 0.0, 0.0059, 6.85, 8.75)" gradientUnits="userSpaceOnUse" id="gradient1" r="819.2" spreadMethod="pad">
      <stop offset="0.0" stop-color="#333333"/>
      <stop offset="1.0" stop-color="#191919"/>
    </radialGradient>
    <radialGradient cx="0" cy="0" gradientTransform="matrix(0.0086, 0.0, 0.0, 0.0086, 15.95, 7.05)" gradientUnits="userSpaceOnUse" id="gradient2" r="819.2" spreadMethod="pad">
      <stop offset="0.0" stop-color="#333333"/>
      <stop offset="1.0" stop-color="#1c1c1c"/>
    </radialGradient>
    <radialGradient cx="0" cy="0" gradientTransform="matrix(0.0024, 0.0, 0.0, 0.0086, 7.0, 12.55)" gradientUnits="userSpaceOnUse" id="gradient3" r="819.2" spreadMethod="pad">
      <stop offset="0.0" stop-color="#333333"/>
      <stop offset="1.0" stop-color="#191919"/>
    </radialGradient>
    <radialGradient cx="0" cy="0" gradientTransform="matrix(0.0017, -0.0017, 0.0069, 0.0067, 12.1, 18.65)" gradientUnits="userSpaceOnUse" id="gradient4" r="819.2" spreadMethod="pad">
      <stop offset="0.0" stop-color="#333333"/>
      <stop offset="1.0" stop-color="#191919"/>
    </radialGradient>
    <radialGradient cx="0" cy="0" gradientTransform="matrix(0.0051, 0.0, 0.0, 0.0051, 15.75, 16.3)" gradientUnits="userSpaceOnUse" id="gradient5" r="819.2" spreadMethod="pad">
      <stop offset="0.0" stop-color="#333333"/>
      <stop offset="1.0" stop-color="#1c1c1c"/>
    </radialGradient>
    <radialGradient cx="0" cy="0" gradientTransform="matrix(0.0011, -0.0021, 0.0045, 0.0023, 16.8, 20.15)" gradientUnits="userSpaceOnUse" id="gradient6" r="819.2" spreadMethod="pad">
      <stop offset="0.0" stop-color="#333333"/>
      <stop offset="1.0" stop-color="#191919"/>
    </radialGradient>
  </defs>
</svg>
