<?xml version="1.0" encoding="UTF-8" standalone="no"?>
<svg xmlns:ffdec="https://www.free-decompiler.com/flash" xmlns:xlink="http://www.w3.org/1999/xlink" ffdec:objectType="shape" height="35.1px" width="26.65px" xmlns="http://www.w3.org/2000/svg">
  <g transform="matrix(1.0, 0.0, 0.0, 1.0, 14.4, 38.6)">
    <path d="M0.3 -38.1 Q-4.9 -35.05 -4.4 -34.0 -3.9 -32.95 -6.65 -32.6 -8.1 -32.25 -8.75 -30.75 L-8.8 -30.6 Q-9.0 -29.65 -7.2 -29.25 L-7.15 -29.95 -6.25 -30.8 Q-5.55 -31.35 -4.65 -31.4 L-3.55 -31.5 1.6 -36.3 M-5.2 -26.65 L-6.05 -27.4 -6.2 -27.55 Q-7.15 -28.5 -7.2 -29.25 -6.4 -29.1 -6.2 -27.55 M-8.35 -17.6 Q-9.4 -14.4 -10.25 -13.95 L-10.75 -13.6 Q-12.1 -12.75 -11.9 -11.15 -11.75 -10.05 -9.85 -10.65 L-10.1 -11.3 Q-10.35 -12.9 -8.95 -13.8 L-8.5 -14.1 Q-7.65 -14.55 -7.3 -16.35 M-6.75 -9.4 Q-9.2 -9.7 -9.85 -10.65 L-7.75 -11.55" fill="none" stroke="#080807" stroke-linecap="round" stroke-linejoin="round" stroke-opacity="0.8784314" stroke-width="1.0"/>
    <path d="M4.8 -24.95 L2.5 -27.05 Q-0.15 -28.0 -2.45 -28.05 L-1.55 -29.5 Q2.6 -29.3 6.2 -27.65 L7.3 -24.95 4.8 -24.95 M4.15 -23.3 L4.8 -23.2 4.8 -21.1 5.0 -20.9 1.85 -18.75 2.75 -13.45 9.0 -10.5 8.0 -7.6 8.5 -8.95 -1.55 -10.7 -1.6 -10.8 -1.75 -10.8 -1.75 -11.3 Q-1.25 -12.65 -1.9 -13.7 L-2.1 -16.15 -2.8 -16.25 -2.1 -20.8 -2.0 -21.9 1.15 -22.45 2.3 -23.15 3.75 -23.35 3.8 -23.35 4.15 -23.3 M7.95 -7.45 L7.95 -7.4 7.3 -6.15 -1.5 -7.45 -1.55 -8.75 -1.6 -9.0 7.95 -7.45 M6.35 -4.75 Q1.1 -3.25 -3.95 -4.85 L-4.2 -5.3 -2.3 -5.3 -1.75 -5.9 6.35 -4.75" fill="#191919" fill-rule="evenodd" stroke="none"/>
    <path d="M-2.45 -28.05 Q-0.15 -28.0 2.5 -27.05 L4.8 -24.95 4.8 -24.65 1.5 -25.25 -1.75 -23.75 -1.85 -26.05 -3.1 -27.55 -2.45 -28.05 M-1.9 -13.7 Q-1.25 -12.65 -1.75 -11.3 L-7.25 -11.4 -7.25 -12.75 -7.25 -13.65 -1.9 -13.7 M-1.75 -10.8 L-1.55 -10.7 Q-1.25 -9.55 -1.6 -9.0 L-1.55 -8.75 -7.15 -8.75 -7.15 -10.8 -1.75 -10.8" fill="#232323" fill-rule="evenodd" stroke="none"/>
    <path d="M-3.1 -27.55 L-1.85 -26.05 Q-3.05 -27.1 -3.2 -27.0 L-3.65 -26.75 Q-5.7 -25.65 -6.9 -24.35 -8.95 -22.25 -9.1 -20.25 L-9.15 -19.55 -9.5 -18.9 -9.95 -18.1 Q-10.2 -17.4 -9.4 -18.3 L-8.35 -19.6 Q-6.2 -22.4 -3.65 -21.6 L-2.1 -20.8 -2.8 -16.25 -7.8 -16.25 -8.6 -15.65 -8.4 -12.75 -8.05 -7.0 -8.95 -7.15 -9.4 -7.5 Q-9.3 -10.1 -9.8 -13.1 L-10.15 -14.6 -11.5 -14.9 -11.5 -16.4 -11.25 -19.1 Q-11.65 -21.55 -10.35 -23.75 L-8.55 -26.55 -7.25 -27.8 Q-6.55 -28.55 -5.1 -28.45 -4.05 -28.35 -3.1 -27.55 M-1.75 -23.75 L1.5 -25.25 4.8 -24.65 5.5 -24.5 5.65 -23.05 4.8 -23.2 4.15 -23.3 3.8 -23.35 3.75 -23.35 2.3 -23.15 1.15 -22.45 -2.0 -21.9 -1.75 -23.15 -1.75 -23.75 M8.0 -7.6 L7.95 -7.45 -1.6 -9.0 Q-1.25 -9.55 -1.55 -10.7 L8.5 -8.95 8.0 -7.6 M7.3 -6.15 L7.15 -5.8 6.55 -4.75 6.35 -4.75 6.55 -4.85 7.15 -5.8 6.55 -4.85 6.35 -4.75 -1.75 -5.9 -1.45 -6.45 -1.5 -7.45 7.3 -6.15 M-9.95 -18.1 Q-10.4 -17.95 -11.25 -19.1 -10.4 -17.95 -9.95 -18.1" fill="#1e1e1e" fill-rule="evenodd" stroke="none"/>
    <path d="M5.0 -20.9 L6.9 -19.25 6.35 -15.6 9.6 -13.4 Q11.0 -11.2 9.0 -10.5 L2.75 -13.45 1.85 -18.75 5.0 -20.9" fill="url(#gradient0)" fill-rule="evenodd" stroke="none"/>
    <path d="M-1.85 -26.05 L-1.75 -23.75 -1.75 -23.15 -6.9 -24.35 Q-5.7 -25.65 -3.65 -26.75 L-3.2 -27.0 Q-3.05 -27.1 -1.85 -26.05" fill="#1c1c1c" fill-rule="evenodd" stroke="none"/>
    <path d="M-4.2 -5.3 L-6.85 -5.3 -8.0 -6.15 -8.05 -7.0 -8.4 -12.75 -7.25 -12.75 -7.25 -11.4 -1.75 -11.3 -1.75 -10.8 -7.15 -10.8 -7.15 -8.75 -1.55 -8.75 -1.5 -7.45 -1.45 -6.45 -1.75 -5.9 -2.3 -5.3 -4.2 -5.3 M-9.4 -7.5 L-12.1 -6.45 Q-13.2 -6.9 -13.7 -8.4 L-13.85 -9.85 Q-14.05 -11.75 -13.7 -13.9 -12.7 -15.0 -11.5 -14.9 L-10.15 -14.6 -9.8 -13.1 -11.55 -11.55 -12.05 -9.85 -13.85 -9.85 -12.05 -9.85 -11.55 -11.55 -9.8 -13.1 Q-9.3 -10.1 -9.4 -7.5 M-1.75 -23.15 L-2.0 -21.9 -2.1 -20.8 -3.65 -21.6 Q-6.2 -22.4 -8.35 -19.6 L-9.4 -18.3 Q-10.2 -17.4 -9.95 -18.1 L-9.5 -18.9 -9.15 -19.55 -9.1 -20.25 Q-8.95 -22.25 -6.9 -24.35 L-1.75 -23.15" fill="#171717" fill-rule="evenodd" stroke="none"/>
    <path d="M-2.8 -16.25 L-2.1 -16.15 -1.9 -13.7 -7.25 -13.65 -7.25 -12.75 -8.4 -12.75 -8.6 -15.65 -7.8 -16.25 -2.8 -16.25 M-1.75 -10.8 L-1.6 -10.8 -1.55 -10.7 -1.75 -10.8" fill="#202020" fill-rule="evenodd" stroke="none"/>
    <path d="M-2.45 -28.05 Q-0.15 -28.0 2.5 -27.05 L4.8 -24.95 M7.3 -24.95 L6.2 -27.65 Q2.6 -29.3 -1.55 -29.5 L-2.45 -28.05 -3.1 -27.55 M9.0 -10.5 L9.35 -10.4 Q10.35 -10.9 10.4 -12.7 M5.0 -20.9 L1.85 -18.75 2.75 -13.45 9.0 -10.5" fill="none" stroke="#0f0f0f" stroke-linecap="round" stroke-linejoin="round" stroke-width="1.0"/>
    <path d="M-3.1 -27.55 L-1.85 -26.05 -1.75 -23.75 1.5 -25.25 4.8 -24.65 5.5 -24.5 5.65 -23.05 4.8 -23.2 4.15 -23.3 M-2.0 -21.9 L1.15 -22.45 2.3 -23.15 3.75 -23.35 3.8 -23.35 M7.95 -7.4 L7.3 -6.15 7.15 -5.8 6.55 -4.75 6.35 -4.75 -1.75 -5.9 -1.45 -6.45 -1.5 -7.45 -1.55 -8.75 -1.6 -9.0 Q-1.25 -9.55 -1.55 -10.7 L8.5 -8.95 8.0 -7.6 M-4.2 -5.3 L-6.85 -5.3 -8.0 -6.15 -8.05 -7.0 -8.95 -7.15 -9.4 -7.5 -12.1 -6.45 Q-13.2 -6.9 -13.7 -8.4 L-13.85 -9.85 Q-14.05 -11.75 -13.7 -13.9 -12.7 -15.0 -11.5 -14.9 L-11.5 -16.4 -11.25 -19.1 Q-11.65 -21.55 -10.35 -23.75 L-8.55 -26.55 -7.25 -27.8 Q-6.55 -28.55 -5.1 -28.45 -4.05 -28.35 -3.1 -27.55 M-6.9 -24.35 Q-5.7 -25.65 -3.65 -26.75 L-3.2 -27.0 Q-3.05 -27.1 -1.85 -26.05 M-1.75 -23.75 L-1.75 -23.15 -2.0 -21.9 -2.1 -20.8 -2.8 -16.25 -2.1 -16.15 -1.9 -13.7 Q-1.25 -12.65 -1.75 -11.3 L-1.75 -10.8 -1.6 -10.8 -1.55 -10.7 -1.75 -10.8 -7.15 -10.8 -7.15 -8.75 -1.55 -8.75 M-9.95 -18.1 L-9.5 -18.9 -9.15 -19.55 -9.1 -20.25 Q-8.95 -22.25 -6.9 -24.35 L-1.75 -23.15 M-7.25 -12.75 L-7.25 -13.65 -1.9 -13.7 M-2.8 -16.25 L-7.8 -16.25 -8.6 -15.65 -8.4 -12.75 -8.05 -7.0 M-9.8 -13.1 L-10.15 -14.6 -11.5 -14.9 M-13.85 -9.85 L-12.05 -9.85 -11.55 -11.55 -9.8 -13.1 Q-9.3 -10.1 -9.4 -7.5 M-1.75 -5.9 L-2.3 -5.3 -4.2 -5.3 M-1.75 -11.3 L-7.25 -11.4 -7.25 -12.75 M-11.25 -19.1 Q-10.4 -17.95 -9.95 -18.1 M-1.5 -7.45 L7.3 -6.15 M-1.6 -9.0 L7.95 -7.45" fill="none" stroke="#070707" stroke-linecap="round" stroke-linejoin="round" stroke-width="1.0"/>
    <path d="M9.0 -10.5 L8.0 -7.6 7.95 -7.45 7.95 -7.4 M6.35 -4.75 Q1.1 -3.25 -3.95 -4.85 L-4.2 -5.3 M6.35 -4.75 L6.55 -4.85 7.15 -5.8" fill="none" stroke="#080807" stroke-linecap="round" stroke-linejoin="round" stroke-opacity="0.8784314" stroke-width="1.0"/>
    <path d="M9.6 -13.4 L10.5 -12.8" fill="none" stroke="#474747" stroke-linecap="round" stroke-linejoin="round" stroke-width="1.0"/>
    <path d="M10.5 -12.8 L6.35 -15.6 6.9 -19.25 4.8 -21.1 4.8 -24.95 7.3 -24.95 Q9.4 -24.7 11.05 -22.2 12.7 -19.75 10.5 -12.8" fill="url(#gradient1)" fill-rule="evenodd" stroke="none"/>
    <path d="M10.5 -12.8 Q12.7 -19.75 11.05 -22.2 9.4 -24.7 7.3 -24.95 L4.8 -24.95 4.8 -21.1 6.9 -19.25 6.35 -15.6" fill="none" stroke="#0f0f0f" stroke-linecap="round" stroke-linejoin="round" stroke-width="1.0"/>
    <path d="M6.35 -15.6 L10.05 -12.95" fill="none" stroke="#0f0f0f" stroke-linecap="round" stroke-linejoin="round" stroke-width="1.0"/>
  </g>
  <defs>
    <radialGradient cx="0" cy="0" gradientTransform="matrix(0.0106, 0.0, 0.0, 0.0106, 6.25, -18.75)" gradientUnits="userSpaceOnUse" id="gradient0" r="819.2" spreadMethod="pad">
      <stop offset="0.0" stop-color="#756d5f"/>
      <stop offset="1.0" stop-color="#1f1f1f"/>
      <stop offset="1.0" stop-color="#333333"/>
      <stop offset="1.0" stop-color="#333333"/>
      <stop offset="1.0" stop-color="#202121"/>
      <stop offset="1.0" stop-color="#202121"/>
    </radialGradient>
    <radialGradient cx="0" cy="0" gradientTransform="matrix(0.009, 0.0, 0.0, 0.009, 8.75, -20.0)" gradientUnits="userSpaceOnUse" id="gradient1" r="819.2" spreadMethod="pad">
      <stop offset="0.0" stop-color="#756d5f"/>
      <stop offset="1.0" stop-color="#1f1f1f"/>
      <stop offset="1.0" stop-color="#333333"/>
      <stop offset="1.0" stop-color="#333333"/>
      <stop offset="1.0" stop-color="#202121"/>
      <stop offset="1.0" stop-color="#202121"/>
    </radialGradient>
  </defs>
</svg>
