<?xml version="1.0" encoding="UTF-8" standalone="no"?>
<svg xmlns:ffdec="https://www.free-decompiler.com/flash" xmlns:xlink="http://www.w3.org/1999/xlink" ffdec:objectType="shape" height="11.1px" width="12.6px" xmlns="http://www.w3.org/2000/svg">
  <g transform="matrix(1.0, 0.0, 0.0, 1.0, 10.35, 17.5)">
    <path d="M-0.25 -7.75 L-1.6 -7.6 -7.65 -8.0 Q-8.15 -9.3 -7.95 -11.0 L-1.6 -11.35 -0.7 -11.2 -0.7 -9.7 -0.25 -7.75" fill="#191919" fill-rule="evenodd" stroke="none"/>
    <path d="M-0.25 -7.75 L-1.6 -7.6 -7.65 -8.0 Q-8.15 -9.3 -7.95 -11.0 L-1.6 -11.35 -0.7 -11.2" fill="none" stroke="#111111" stroke-linecap="round" stroke-linejoin="round" stroke-width="1.0"/>
    <path d="M1.1 -14.35 Q1.15 -13.85 1.3 -13.85 L1.95 -13.85 2.1 -13.85 2.1 -12.55 1.95 -12.65 2.15 -11.6 2.1 -11.45 1.8 -11.05 Q1.45 -10.85 1.7 -9.95 1.95 -9.1 1.65 -8.6 1.35 -8.1 1.65 -7.9 L1.25 -7.7 0.65 -7.6 -0.2 -7.55 -0.55 -7.55 Q-1.05 -8.85 -1.1 -10.25 L-1.1 -11.45 -1.2 -11.45 -2.5 -11.45 -2.5 -12.05 -2.5 -11.45 -4.05 -11.45 -8.3 -11.45 -9.65 -11.45 -9.65 -13.7 -9.55 -13.8 -9.1 -13.8 -9.0 -13.8 -8.65 -13.8 -8.25 -14.05 Q-8.55 -14.65 -8.45 -15.6 L-8.4 -15.85 Q-6.8 -16.4 -4.7 -15.85 L-0.75 -15.85 Q1.6 -15.7 1.1 -14.35 M-4.9 -13.8 L-4.9 -14.15 Q-4.65 -15.1 -4.7 -15.85 -4.65 -15.1 -4.9 -14.15 L-4.9 -13.8 M0.4 -11.1 L0.4 -11.9 0.4 -11.1 Q1.1 -11.1 1.7 -11.45 1.1 -11.1 0.4 -11.1 L0.4 -10.6 0.4 -11.1 -1.1 -11.45 0.4 -11.1 M-8.3 -12.1 L-8.3 -11.45 -8.3 -12.1 M-2.5 -10.55 Q-1.8 -10.6 -1.2 -10.25 L-1.2 -7.6 -1.35 -7.7 -1.85 -7.75 -2.25 -7.75 -2.7 -7.75 -3.0 -7.7 -4.0 -7.6 -4.65 -7.55 Q-6.1 -7.4 -6.9 -8.25 L-6.9 -7.75 -7.8 -7.7 -8.45 -7.6 -9.2 -7.55 -9.65 -7.55 -9.65 -10.25 -8.35 -10.45 -4.0 -10.25 -2.5 -10.55 M-4.0 -10.25 L-4.0 -7.6 -4.0 -10.25 M-6.85 -8.9 L-6.9 -9.65 -6.9 -9.3 -6.9 -8.85 -6.85 -8.9" fill="#232323" fill-rule="evenodd" stroke="none"/>
    <path d="M-9.65 -11.45 L-8.3 -11.45 -4.05 -11.45 -2.5 -11.45 -1.2 -11.45 -1.2 -10.25 Q-1.8 -10.6 -2.5 -10.55 L-2.5 -11.45 -2.5 -10.55 -4.0 -10.25 -8.35 -10.45 -9.65 -10.25 -9.65 -11.45 M-8.4 -15.85 L-8.25 -16.7 Q-6.6 -17.3 -4.95 -16.7 L-4.7 -15.85 Q-6.8 -16.4 -8.4 -15.85 M-4.0 -10.25 L-4.05 -11.45 -4.0 -10.25 M-8.35 -10.45 L-8.3 -11.45 -8.35 -10.45" fill="#141414" fill-rule="evenodd" stroke="none"/>
    <path d="M1.1 -14.35 Q1.6 -15.7 -0.75 -15.85 L-4.7 -15.85 Q-4.65 -15.1 -4.9 -14.15 L-4.9 -13.8 M0.4 -11.1 Q1.1 -11.1 1.7 -11.45 M-9.65 -11.45 L-8.3 -11.45 -4.05 -11.45 -2.5 -11.45 -1.2 -11.45 -1.1 -11.45 0.4 -11.1 M-8.25 -14.05 Q-8.55 -14.65 -8.45 -15.6 L-8.4 -15.85 -8.25 -16.7 Q-6.6 -17.3 -4.95 -16.7 L-4.7 -15.85 M-4.05 -11.45 L-4.0 -10.25 -4.0 -7.6" fill="none" stroke="#0f0f0f" stroke-linecap="round" stroke-linejoin="round" stroke-width="1.0"/>
    <path d="M0.4 -11.9 L0.4 -11.1 0.4 -10.6 M-8.3 -11.45 L-8.3 -12.1 M-2.5 -12.05 L-2.5 -11.45 -2.5 -10.55 M-8.3 -11.45 L-8.35 -10.45" fill="none" stroke="#323333" stroke-linecap="round" stroke-linejoin="round" stroke-width="1.0"/>
    <path d="M-1.2 -10.25 L-1.1 -10.25" fill="none" stroke="#0f0f0f" stroke-linecap="round" stroke-linejoin="round" stroke-width="0.30000000000000004"/>
    <path d="M0.9 -13.7 L0.9 -13.85 1.05 -13.8 0.9 -13.7 M1.65 -13.35 L1.7 -13.3 1.7 -13.2 1.65 -12.75 1.55 -13.35 1.65 -13.35 M1.65 -10.15 L1.85 -10.25 1.9 -9.9 1.65 -9.75 1.65 -10.15 M-0.25 -7.05 L-0.4 -7.05 -0.55 -7.05 -0.55 -7.4 -0.25 -7.5 -0.25 -7.05 M-1.0 -9.65 L-1.15 -9.65 -1.15 -10.05 -1.1 -9.95 -0.9 -9.75 -1.0 -9.65 -1.1 -9.95 -1.0 -9.65 M-5.1 -7.0 L-5.4 -7.0 -5.85 -7.0 -5.85 -7.2 -5.25 -7.35 -5.1 -7.0 M-6.7 -12.75 L-6.95 -12.75 -7.05 -13.35 -7.05 -13.05 -7.05 -12.6 -7.2 -12.6 -7.2 -13.05 -7.1 -13.2 -7.2 -13.35 -7.35 -13.5 -7.25 -13.85 -7.2 -13.85 -7.15 -13.8 -7.1 -13.5 -7.05 -13.55 -7.05 -13.35 -6.8 -13.45 -6.7 -13.3 -6.5 -13.65 -6.25 -13.65 -6.1 -13.3 -6.6 -13.05 -6.7 -12.95 -6.7 -12.75 M-7.05 -10.1 L-7.05 -10.05 -7.2 -10.05 -7.25 -10.1 -7.05 -10.1 M-7.05 -9.95 L-7.05 -9.9 -7.05 -9.65 -7.1 -9.65 -7.2 -9.75 -7.05 -9.95 M-7.55 -7.05 L-7.7 -7.05 -7.85 -7.05 -7.85 -7.5 -7.55 -7.4 -7.55 -7.2 -7.55 -7.05 M-9.75 -9.75 L-10.0 -9.9 -9.95 -10.25 -9.75 -10.15 -9.75 -9.75 M-9.8 -13.2 L-9.8 -13.3 -9.75 -13.35 -9.7 -13.35 -9.75 -12.75 -9.8 -13.2 M-1.1 -12.6 L-1.15 -12.6 -1.25 -13.65 -1.15 -13.65 -1.1 -13.55 -1.0 -13.5 -1.0 -13.8 -0.9 -13.85 -0.85 -13.85 -0.75 -13.5 -0.9 -13.35 -0.9 -13.3 -1.0 -13.2 -1.0 -13.15 -0.9 -13.05 -0.9 -12.6 -1.1 -12.6 -1.0 -13.15 -1.1 -12.6 M-9.15 -13.8 L-9.0 -13.85 -9.0 -13.7 -9.15 -13.8 M-2.55 -13.65 L-2.6 -13.7 -2.3 -13.65 -2.55 -13.65 M-1.1 -11.4 L-0.9 -11.45 -0.9 -10.9 -1.1 -10.8 -1.1 -11.4 -1.1 -10.8 -1.15 -10.8 -1.15 -11.4 -1.1 -11.4 M-1.1 -10.1 L-0.85 -10.1 -0.9 -10.05 -1.1 -10.05 -1.1 -10.1 -1.1 -10.05 -1.15 -10.05 -1.15 -10.1 -1.1 -10.1 M-7.05 -10.8 L-7.2 -10.9 -7.2 -11.45 -7.05 -11.4 -7.05 -10.8 M-7.1 -9.65 L-7.05 -9.9 -7.1 -9.65" fill="#272727" fill-rule="evenodd" stroke="none"/>
    <path d="M1.65 -10.9 L1.65 -10.15 1.55 -10.15 1.5 -10.9 1.65 -10.9 M-6.95 -12.05 L-6.7 -12.75 -6.8 -12.05 -6.95 -12.05 M-9.75 -10.15 L-9.75 -10.9 -9.6 -10.9 -9.65 -10.15 -9.75 -10.15 M-1.15 -12.3 L-1.1 -12.3 -1.1 -12.15 -1.15 -12.15 -1.15 -12.3 M-1.1 -12.0 L-1.0 -12.0 -1.0 -11.85 -1.1 -11.85 -1.1 -12.0 -1.1 -11.85 -1.2 -11.95 -1.15 -12.0 -1.2 -11.95 -1.2 -12.0 -1.15 -12.0 -1.1 -12.0 M-7.05 -12.0 L-7.05 -11.85 -7.1 -11.85 -7.1 -12.0 -7.05 -12.0" fill="#222222" fill-rule="evenodd" stroke="none"/>
    <path d="M1.4 -7.25 L1.05 -7.05 0.75 -7.05 1.4 -7.25 M-1.7 -7.05 L-2.45 -7.0 -3.0 -7.0 -1.7 -7.05 M-8.85 -7.05 L-9.15 -7.05 -9.5 -7.25 -8.85 -7.05 M-7.65 -13.5 L-7.6 -13.55 -7.35 -13.5 -7.35 -13.35 -7.65 -13.5 M-6.1 -13.3 L-5.55 -13.35 -6.1 -13.2 -6.1 -13.3 M-0.75 -13.5 L-0.5 -13.55 -0.45 -13.5 -0.75 -13.35 -0.75 -13.5" fill="#151515" fill-rule="evenodd" stroke="none"/>
    <path d="M0.75 -7.05 L0.65 -7.0 0.45 -7.0 0.65 -7.05 0.75 -7.05 M-3.0 -7.0 L-3.3 -6.9 -3.7 -6.85 -3.7 -6.9 -3.3 -7.0 -3.0 -7.0 M-8.55 -7.0 L-8.75 -7.0 -8.85 -7.05 -8.75 -7.05 -8.55 -7.0 M-9.5 -7.25 L-9.55 -7.2 -9.55 -7.25 -9.5 -7.25 M0.65 -7.0 L0.65 -7.05 0.65 -7.0 M-3.3 -6.9 L-3.3 -7.0 -3.3 -6.9 M-8.75 -7.0 L-8.75 -7.05 -8.75 -7.0 M-7.55 -7.2 L-7.5 -7.25 -7.5 -7.2 -7.55 -7.2" fill="#111111" fill-rule="evenodd" stroke="none"/>
    <path d="M-1.2 -10.4 L-1.4 -10.3 -1.4 -10.4 -1.2 -10.4" fill="#111111" fill-opacity="0.49803922" fill-rule="evenodd" stroke="none"/>
    <path d="M-1.1 -10.8 L-1.1 -10.1 -1.15 -10.1 -1.15 -10.4 -1.15 -10.8 -1.1 -10.8" fill="#121212" fill-opacity="0.49803922" fill-rule="evenodd" stroke="none"/>
    <path d="M1.65 -13.35 L1.7 -13.3 1.7 -13.2 Q1.85 -11.45 1.65 -10.9 L1.65 -10.15 1.65 -9.75 1.65 -8.3 1.4 -7.25 1.05 -7.05 0.75 -7.05 0.65 -7.05 0.45 -7.0 -0.25 -7.05 -0.4 -7.05 -0.55 -7.05 -0.9 -7.35 -0.9 -7.5 -1.0 -9.65 -1.1 -9.95 -1.1 -10.05 -1.1 -10.1 -1.1 -10.8 -1.1 -11.4 -1.1 -11.85 -1.1 -12.0 -1.1 -12.15 -1.1 -12.3 -1.1 -12.6 -1.0 -13.15 M-1.15 -9.65 L-1.15 -8.6 -1.15 -8.25 -1.15 -8.2 -1.2 -7.65 -1.65 -7.05 -1.7 -7.05 -2.45 -7.0 -3.0 -7.0 -3.3 -7.0 -3.7 -6.9 -5.1 -7.0 -5.4 -7.0 -5.85 -7.0 Q-6.4 -7.0 -6.6 -7.35 -6.95 -7.65 -6.95 -8.2 L-6.95 -10.15 M-6.95 -10.25 L-6.95 -12.05 -6.7 -12.75 -6.7 -12.95 -6.6 -13.05 -6.1 -13.3 -5.55 -13.35 -2.6 -13.45 Q-1.3 -13.5 -1.15 -12.3 M-7.05 -13.05 L-7.05 -10.1 -7.05 -10.05 -7.05 -9.95 -7.05 -9.9 -7.1 -9.65 -7.2 -7.5 -7.2 -7.35 -7.55 -7.05 -7.7 -7.05 -7.85 -7.05 -8.55 -7.0 -8.75 -7.05 -8.85 -7.05 -9.15 -7.05 -9.5 -7.25 -9.55 -7.25 -9.75 -8.3 -9.75 -9.75 -9.75 -10.15 -9.75 -10.9 Q-9.95 -11.45 -9.8 -13.2 L-9.8 -13.3 -9.75 -13.35 Q-9.5 -13.65 -9.0 -13.55 L-7.65 -13.5 -7.6 -13.55 -7.35 -13.5 -7.2 -13.35 -7.1 -13.2 M-0.75 -13.5 L-0.5 -13.55 -0.45 -13.5 0.9 -13.55 1.65 -13.35 M-1.0 -13.2 L-0.9 -13.3 -0.9 -13.35 -0.75 -13.5 M-1.15 -10.05 L-1.15 -9.65 -1.2 -9.45 -1.15 -8.25 M-1.15 -10.4 L-1.15 -10.1 -1.15 -10.05" fill="none" stroke="#0f0f0f" stroke-linecap="round" stroke-linejoin="round" stroke-width="1.0"/>
    <path d="M-6.95 -10.15 L-6.95 -10.25 M0.65 -7.05 L0.65 -7.0 M-3.3 -7.0 L-3.3 -6.9 M-8.75 -7.05 L-8.75 -7.0" fill="none" stroke="#111111" stroke-linecap="round" stroke-linejoin="round" stroke-width="1.0"/>
    <path d="M-1.15 -12.0 L-1.15 -12.15 -1.15 -12.3 M-1.2 -11.95 L-1.15 -11.4 -1.15 -10.8 -1.15 -10.4 -1.2 -11.95 -1.2 -12.0 M-1.15 -12.0 L-1.2 -11.95" fill="none" stroke="#121212" stroke-linecap="round" stroke-linejoin="round" stroke-width="1.0"/>
  </g>
</svg>
