<?xml version="1.0" encoding="UTF-8" standalone="no"?>
<svg xmlns:ffdec="https://www.free-decompiler.com/flash" xmlns:xlink="http://www.w3.org/1999/xlink" ffdec:objectType="shape" height="30.1px" width="30.35px" xmlns="http://www.w3.org/2000/svg">
  <g transform="matrix(1.0, 0.0, 0.0, 1.0, 0.5, 4.7)">
    <path d="M20.65 9.5 L20.8 9.45 21.55 9.25 Q22.65 9.2 23.45 9.95 24.3 10.65 24.35 11.75 24.45 12.85 23.7 13.65 L22.7 14.4 23.85 16.55 24.1 17.0 26.1 17.25 24.7 19.1 19.3 17.7 19.8 16.6 Q20.85 17.05 22.05 16.95 L23.85 16.55 22.05 16.95 Q20.85 17.05 19.8 16.6 L18.2 15.65 17.7 15.1 12.3 15.35 11.35 14.05 10.15 12.35 10.2 12.25 10.55 10.9 10.75 10.15 16.75 9.75 20.35 9.5 20.4 9.6 20.65 9.5 M22.7 14.4 L21.9 14.55 Q20.8 14.6 19.95 13.9 19.15 13.2 19.05 12.1 19.0 11.0 19.7 10.15 L20.4 9.6 19.7 10.15 Q19.0 11.0 19.05 12.1 19.15 13.2 19.95 13.9 20.8 14.6 21.9 14.55 L22.7 14.4 M16.75 9.75 Q16.35 10.8 16.4 11.95 16.55 13.85 17.7 15.1 16.55 13.85 16.4 11.95 16.35 10.8 16.75 9.75" fill="#191919" fill-rule="evenodd" stroke="none"/>
    <path d="M26.1 17.25 L24.1 17.0 23.85 16.55 22.7 14.4 23.7 13.65 Q24.45 12.85 24.35 11.75 24.3 10.65 23.45 9.95 22.65 9.2 21.55 9.25 L20.8 9.45 20.65 9.5 20.35 9.5 19.15 6.3 18.9 5.7 24.85 5.45 Q27.95 6.6 29.3 9.0 29.55 13.35 27.85 17.45 L26.1 17.25" fill="url(#gradient0)" fill-rule="evenodd" stroke="none"/>
    <path d="M19.15 6.3 L20.35 9.5 16.75 9.75 10.75 10.15 9.45 10.2 9.95 9.05 10.7 7.3 12.45 6.95 13.9 6.75 19.15 6.3 M13.5 8.25 L11.85 8.35 13.5 8.25 M17.15 8.05 L15.5 8.15 17.15 8.05" fill="url(#gradient1)" fill-rule="evenodd" stroke="none"/>
    <path d="M10.75 10.15 L10.55 10.9 3.85 9.9 2.15 8.05 9.95 9.05 9.45 10.2 10.75 10.15" fill="url(#gradient2)" fill-rule="evenodd" stroke="none"/>
    <path d="M10.2 12.25 L10.15 12.35 11.35 14.05 2.1 13.65 0.0 12.0 10.2 12.25" fill="url(#gradient3)" fill-rule="evenodd" stroke="none"/>
    <path d="M14.85 17.6 L8.9 24.2 6.3 24.55 12.85 17.1 14.85 17.6" fill="url(#gradient4)" fill-rule="evenodd" stroke="none"/>
    <path d="M19.8 16.6 L19.3 17.7 19.05 18.15 18.8 18.15 17.05 18.0 14.9 17.6 14.85 17.6 12.85 17.1 11.55 16.65 12.3 15.35 17.7 15.1 18.2 15.65 19.8 16.6" fill="url(#gradient5)" fill-rule="evenodd" stroke="none"/>
    <path d="M17.05 18.0 L18.8 18.15 16.9 22.0 16.1 22.15 15.4 20.8 16.1 22.15 16.9 22.0 16.4 22.95 13.8 23.5 15.4 20.8 17.05 18.0" fill="url(#gradient6)" fill-rule="evenodd" stroke="none"/>
    <path d="M14.5 5.45 L14.6 5.3 Q15.5 3.95 16.35 3.65 L17.0 3.55 17.25 3.05 Q17.75 2.3 18.35 1.9 19.1 1.4 20.85 1.65 L21.75 1.9 Q22.45 2.25 22.75 3.3 L23.25 4.9 M16.9 22.0 L17.85 21.8 18.35 23.65 Q18.45 24.25 18.85 24.6 19.3 25.0 19.75 24.9 20.7 24.75 21.0 23.3 L21.15 20.85 21.0 18.4 M20.25 5.15 L19.85 4.65 18.5 3.9 17.0 3.55 Q16.25 5.0 16.5 6.05 M14.5 5.45 L13.9 6.75 M15.4 20.8 L16.1 22.15 16.9 22.0 M14.9 17.6 L15.15 19.9 15.4 20.8" fill="none" stroke="#181817" stroke-linecap="round" stroke-linejoin="round" stroke-width="1.0"/>
    <path d="M20.35 9.5 L20.65 9.5 20.4 9.6 19.7 10.15 Q19.0 11.0 19.05 12.1 19.15 13.2 19.95 13.9 20.8 14.6 21.9 14.55 L22.7 14.4 M20.35 9.5 L20.4 9.6 M23.85 16.55 L22.05 16.95 Q20.85 17.05 19.8 16.6 L18.2 15.65 17.7 15.1 Q16.55 13.85 16.4 11.95 16.35 10.8 16.75 9.75 M19.3 17.7 L24.7 19.1 26.1 17.25 M10.75 10.15 L10.55 10.9 10.2 12.25 10.15 12.35 11.35 14.05 12.3 15.35 M9.95 9.05 L2.15 8.05 3.85 9.9 10.55 10.9 M12.85 17.1 L6.3 24.55 8.9 24.2 14.85 17.6 12.85 17.1 M18.8 18.15 L19.05 18.15 19.3 17.7 M17.05 18.0 L15.4 20.8 13.8 23.5 16.4 22.95 16.9 22.0 18.8 18.15 M10.2 12.25 L0.0 12.0 2.1 13.65 11.35 14.05" fill="none" stroke="#0e0e0e" stroke-linecap="round" stroke-linejoin="round" stroke-width="1.0"/>
    <path d="M20.65 9.5 L20.8 9.45 21.55 9.25 Q22.65 9.2 23.45 9.95 24.3 10.65 24.35 11.75 24.45 12.85 23.7 13.65 L22.7 14.4 23.85 16.55 24.1 17.0 26.1 17.25 27.85 17.45 Q29.55 13.35 29.3 9.0 27.95 6.6 24.85 5.45 L18.9 5.7 19.15 6.3 20.35 9.5 16.75 9.75 10.75 10.15 9.45 10.2 9.95 9.05 10.7 7.3 12.45 6.95 13.9 6.75 19.15 6.3 M19.8 16.6 L19.3 17.7 M11.85 8.35 L13.5 8.25 M12.3 15.35 L17.7 15.1 M15.5 8.15 L17.15 8.05 M12.85 17.1 L11.55 16.65 12.3 15.35 M17.05 18.0 L18.8 18.15 M14.85 17.6 L14.9 17.6 17.05 18.0" fill="none" stroke="#151515" stroke-linecap="round" stroke-linejoin="round" stroke-width="1.0"/>
    <path d="M14.5 5.45 L14.95 6.05 M8.9 3.2 L12.45 6.95 M7.2 -4.2 L14.5 5.45" fill="none" stroke="#0e0e0e" stroke-linecap="round" stroke-linejoin="round" stroke-opacity="0.49803922" stroke-width="1.0"/>
  </g>
  <defs>
    <radialGradient cx="0" cy="0" gradientTransform="matrix(0.0141, 0.0, 0.0, 0.0141, 21.5, 8.3)" gradientUnits="userSpaceOnUse" id="gradient0" r="819.2" spreadMethod="pad">
      <stop offset="0.0" stop-color="#333333"/>
      <stop offset="1.0" stop-color="#1c1c1c"/>
    </radialGradient>
    <radialGradient cx="0" cy="0" gradientTransform="matrix(0.0086, 0.0, 0.0, 0.0086, 15.95, 7.5)" gradientUnits="userSpaceOnUse" id="gradient1" r="819.2" spreadMethod="pad">
      <stop offset="0.0" stop-color="#333333"/>
      <stop offset="1.0" stop-color="#1c1c1c"/>
    </radialGradient>
    <radialGradient cx="0" cy="0" gradientTransform="matrix(0.0024, 0.0, 0.0, 0.0059, 6.85, 9.2)" gradientUnits="userSpaceOnUse" id="gradient2" r="819.2" spreadMethod="pad">
      <stop offset="0.0" stop-color="#333333"/>
      <stop offset="1.0" stop-color="#191919"/>
    </radialGradient>
    <radialGradient cx="0" cy="0" gradientTransform="matrix(0.0024, 0.0, 0.0, 0.0086, 7.0, 13.0)" gradientUnits="userSpaceOnUse" id="gradient3" r="819.2" spreadMethod="pad">
      <stop offset="0.0" stop-color="#333333"/>
      <stop offset="1.0" stop-color="#191919"/>
    </radialGradient>
    <radialGradient cx="0" cy="0" gradientTransform="matrix(0.0017, -0.0017, 0.0069, 0.0067, 12.1, 19.1)" gradientUnits="userSpaceOnUse" id="gradient4" r="819.2" spreadMethod="pad">
      <stop offset="0.0" stop-color="#333333"/>
      <stop offset="1.0" stop-color="#191919"/>
    </radialGradient>
    <radialGradient cx="0" cy="0" gradientTransform="matrix(0.0051, 0.0, 0.0, 0.0051, 15.75, 16.75)" gradientUnits="userSpaceOnUse" id="gradient5" r="819.2" spreadMethod="pad">
      <stop offset="0.0" stop-color="#333333"/>
      <stop offset="1.0" stop-color="#1c1c1c"/>
    </radialGradient>
    <radialGradient cx="0" cy="0" gradientTransform="matrix(0.0011, -0.0021, 0.0045, 0.0023, 16.8, 20.6)" gradientUnits="userSpaceOnUse" id="gradient6" r="819.2" spreadMethod="pad">
      <stop offset="0.0" stop-color="#333333"/>
      <stop offset="1.0" stop-color="#191919"/>
    </radialGradient>
  </defs>
</svg>
