<?xml version="1.0" encoding="UTF-8" standalone="no"?>
<svg xmlns:ffdec="https://www.free-decompiler.com/flash" xmlns:xlink="http://www.w3.org/1999/xlink" ffdec:objectType="shape" height="26.15px" width="17.5px" xmlns="http://www.w3.org/2000/svg">
  <g transform="matrix(1.0, 0.0, 0.0, 1.0, -26.25, 13.25)">
    <path d="M35.0 12.8 L34.45 12.9 Q31.0 12.9 28.6 9.05 26.2 5.2 26.25 -0.15 26.2 -5.55 28.6 -9.4 31.0 -13.25 34.45 -13.2 L35.0 -13.2 35.0 12.8" fill="url(#gradient0)" fill-rule="evenodd" stroke="none"/>
    <path d="M35.0 -13.2 L35.55 -13.2 Q38.95 -13.25 41.4 -9.4 43.75 -5.55 43.75 -0.15 43.75 5.2 41.4 9.05 38.95 12.9 35.55 12.9 L35.0 12.8 35.0 -13.2" fill="url(#gradient1)" fill-rule="evenodd" stroke="none"/>
  </g>
  <defs>
    <radialGradient cx="0" cy="0" gradientTransform="matrix(0.0, 0.0142, 0.01, 0.0, 34.45, -0.2)" gradientUnits="userSpaceOnUse" id="gradient0" r="819.2" spreadMethod="pad">
      <stop offset="0.17647058823529413" stop-color="#ffffff"/>
      <stop offset="1.0" stop-color="#139ffd" stop-opacity="0.0"/>
    </radialGradient>
    <radialGradient cx="0" cy="0" gradientTransform="matrix(0.0, 0.0142, -0.01, 0.0, 35.55, -0.2)" gradientUnits="userSpaceOnUse" id="gradient1" r="819.2" spreadMethod="pad">
      <stop offset="0.17647058823529413" stop-color="#ffffff"/>
      <stop offset="1.0" stop-color="#139ffd" stop-opacity="0.0"/>
    </radialGradient>
  </defs>
</svg>
