<?xml version="1.0" encoding="UTF-8" standalone="no"?>
<svg xmlns:xlink="http://www.w3.org/1999/xlink" height="128.85px" width="180.45px" xmlns="http://www.w3.org/2000/svg">
  <g transform="matrix(1.0, 0.0, 0.0, 1.0, 48.15, 46.9)">
    <path d="M-32.25 -14.65 L-16.85 -2.8 -8.0 -2.8 -1.0 -14.6 6.9 -16.1 8.05 -2.8 2.65 9.75 23.5 23.55 36.5 37.15 42.75 34.4 39.35 29.6 46.7 11.75 54.3 19.7 54.3 40.1 73.75 42.65 78.1 45.4 68.5 48.15 72.5 58.75 63.35 58.75 61.4 48.15 54.3 40.1 37.4 44.25 29.8 53.9 42.0 63.5 52.55 63.5 50.95 68.25 48.1 72.45 36.0 68.4 19.8 55.25 23.3 34.7 7.3 23.7 -6.35 30.75 -9.75 38.65 -31.65 43.1 -31.65 29.85 -46.45 24.1 -41.8 15.15 -45.3 5.5 -32.25 -14.65 M10.85 -16.85 L14.75 -17.6 25.95 -12.95 21.75 -11.6 14.25 -12.35 10.85 -16.85 M34.95 -12.55 L45.5 -17.1 53.25 -33.85 60.75 -36.45 59.0 -26.35 50.0 -12.6 55.5 -4.35 63.5 -8.35 68.5 -11.45 67.75 -3.1 57.5 3.65 45.55 6.6 44.75 -0.35 40.0 -7.6 34.95 -12.55 M-41.8 15.15 L-31.65 29.85 -41.8 15.15 M-16.45 33.9 L-12.95 20.4 -25.7 10.4 -37.45 11.65 -25.7 10.4 -12.95 20.4 -16.45 33.9" fill="#333333" fill-rule="evenodd" stroke="none"/>
    <path d="M-15.2 -41.25 L-1.25 -28.6 31.75 -33.6 37.9 -46.25 31.75 -33.6 -1.25 -28.6 -15.2 -41.25 Q15.15 -47.25 37.9 -46.25 50.95 -45.7 64.85 -40.45 L68.25 -39.1 60.75 -36.45 53.25 -33.85 45.5 -17.1 34.95 -12.55 31.0 -10.85 25.95 -12.95 14.75 -17.6 10.85 -16.85 6.9 -16.1 -1.0 -14.6 -8.0 -2.8 -16.85 -2.8 -32.25 -14.65 -47.65 -26.5 Q-34.5 -35.4 -15.2 -41.25 M46.7 11.75 L42.5 7.3 45.55 6.6 57.5 3.65 67.75 -3.1 68.5 -11.45 69.25 -19.85 94.1 -23.5 Q102.6 -16.45 109.25 -8.0 117.6 2.65 122.95 15.5 129.1 30.35 131.3 48.15 L117.5 48.15 109.25 48.15 82.5 48.15 78.1 45.4 73.75 42.65 54.3 40.1 54.3 19.7 46.7 11.75 M67.55 37.75 L67.55 35.25 67.55 37.75 M61.65 36.9 L61.4 28.0 61.65 36.9 M58.05 27.75 L58.05 36.5 58.05 27.75 M64.9 37.5 L64.8 31.5 64.9 37.5" fill="url(#gradient0)" fill-rule="evenodd" stroke="none"/>
    <path d="M72.5 58.75 L99.25 58.75 Q84.95 86.95 42.95 80.1 L48.1 72.45 50.95 68.25 52.55 63.5 54.2 58.75 63.35 58.75 72.5 58.75" fill="url(#gradient1)" fill-rule="evenodd" stroke="none"/>
    <path d="M37.9 -46.25 L31.75 -33.6 -1.25 -28.6 -15.2 -41.25 Q-34.5 -35.4 -47.65 -26.5 L-32.25 -14.65 -16.85 -2.8 -8.0 -2.8 -1.0 -14.6 6.9 -16.1 10.85 -16.85 14.75 -17.6 25.95 -12.95 31.0 -10.85 34.95 -12.55 45.5 -17.1 53.25 -33.85 60.75 -36.45 68.25 -39.1 64.85 -40.45 Q50.95 -45.7 37.9 -46.25 15.15 -47.25 -15.2 -41.25 M46.7 11.75 L42.5 7.3 45.55 6.6 57.5 3.65 67.75 -3.1 68.5 -11.45 69.25 -19.85 94.1 -23.5 Q102.6 -16.45 109.25 -8.0 117.6 2.65 122.95 15.5 129.1 30.35 131.3 48.15 L117.5 48.15 109.25 48.15 82.5 48.15 78.1 45.4 73.75 42.65 54.3 40.1 54.3 19.7 46.7 11.75 M72.5 58.75 L99.25 58.75 Q84.95 86.95 42.95 80.1 L48.1 72.45 50.95 68.25 52.55 63.5 54.2 58.75 63.35 58.75 72.5 58.75" fill="none" stroke="#777777" stroke-linecap="round" stroke-linejoin="round" stroke-width="1.0"/>
    <path d="M25.95 -12.95 L21.75 -11.6 14.25 -12.35 10.85 -16.85 M6.9 -16.1 L8.05 -2.8 2.65 9.75 23.5 23.55 36.5 37.15 42.75 34.4 39.35 29.6 46.7 11.75 M45.55 6.6 L44.75 -0.35 40.0 -7.6 34.95 -12.55 M60.75 -36.45 L59.0 -26.35 50.0 -12.6 55.5 -4.35 63.5 -8.35 68.5 -11.45 M78.1 45.4 L68.5 48.15 72.5 58.75 M48.1 72.45 L36.0 68.4 19.8 55.25 23.3 34.7 7.3 23.7 -6.35 30.75 -9.75 38.65 -31.65 43.1 -31.65 29.85 -46.45 24.1 -41.8 15.15 -45.3 5.5 -32.25 -14.65 M54.3 40.1 L61.4 48.15 63.35 58.75 M52.55 63.5 L42.0 63.5 29.8 53.9 37.4 44.25 54.3 40.1 M-37.45 11.65 L-25.7 10.4 -12.95 20.4 -16.45 33.9 M-31.65 29.85 L-41.8 15.15" fill="none" stroke="#000000" stroke-linecap="round" stroke-linejoin="round" stroke-width="1.0"/>
    <path d="M58.05 36.5 L58.05 27.75 M61.4 28.0 L61.65 36.9 M67.55 35.25 L67.55 37.75 M64.8 31.5 L64.9 37.5" fill="none" stroke="#8c8c8c" stroke-linecap="round" stroke-linejoin="round" stroke-width="1.0"/>
    <path d="M87.0 -10.6 Q87.0 -12.9 88.6 -14.5 90.2 -16.1 92.5 -16.1 94.8 -16.1 96.4 -14.5 98.0 -12.9 98.0 -10.6 98.0 -8.3 96.4 -6.7 94.8 -5.1 92.5 -5.1 90.2 -5.1 88.6 -6.7 87.0 -8.3 87.0 -10.6" fill="url(#gradient2)" fill-rule="evenodd" stroke="none"/>
    <path d="M127.35 19.8 Q129.85 22.85 131.05 27.9 132.25 32.8 131.55 36.75 130.85 41.05 128.1 41.85 126.4 42.35 124.3 38.7 122.4 35.4 120.95 30.35 119.55 25.3 119.5 21.55 119.45 17.4 121.3 17.05 124.6 16.4 127.35 19.8" fill="url(#gradient3)" fill-rule="evenodd" stroke="none"/>
    <path d="M65.45 74.55 Q64.1 73.25 64.1 71.4 64.1 69.55 65.45 68.2 66.75 66.9 68.6 66.9 70.45 66.9 71.8 68.2 73.1 69.55 73.1 71.4 73.1 73.25 71.8 74.55 70.45 75.9 68.6 75.9 66.75 75.9 65.45 74.55" fill="url(#gradient4)" fill-rule="evenodd" stroke="none"/>
    <path d="M-29.7 -27.0 Q-29.7 -28.45 -28.65 -29.5 -27.65 -30.5 -26.2 -30.5 -24.75 -30.5 -23.7 -29.5 -22.7 -28.45 -22.7 -27.0 -22.7 -25.55 -23.7 -24.55 -24.75 -23.5 -26.2 -23.5 -27.65 -23.5 -28.65 -24.55 -29.7 -25.55 -29.7 -27.0" fill="url(#gradient5)" fill-rule="evenodd" stroke="none"/>
    <path d="M87.0 -10.6 Q87.0 -8.3 88.6 -6.7 90.2 -5.1 92.5 -5.1 94.8 -5.1 96.4 -6.7 98.0 -8.3 98.0 -10.6 98.0 -12.9 96.4 -14.5 94.8 -16.1 92.5 -16.1 90.2 -16.1 88.6 -14.5 87.0 -12.9 87.0 -10.6 M127.35 19.8 Q124.6 16.4 121.3 17.05 119.45 17.4 119.5 21.55 119.55 25.3 120.95 30.35 122.4 35.4 124.3 38.7 126.4 42.35 128.1 41.85 130.85 41.05 131.55 36.75 132.25 32.8 131.05 27.9 129.85 22.85 127.35 19.8 M65.45 74.55 Q66.75 75.9 68.6 75.9 70.45 75.9 71.8 74.55 73.1 73.25 73.1 71.4 73.1 69.55 71.8 68.2 70.45 66.9 68.6 66.9 66.75 66.9 65.45 68.2 64.1 69.55 64.1 71.4 64.1 73.25 65.45 74.55 M-29.7 -27.0 Q-29.7 -25.55 -28.65 -24.55 -27.65 -23.5 -26.2 -23.5 -24.75 -23.5 -23.7 -24.55 -22.7 -25.55 -22.7 -27.0 -22.7 -28.45 -23.7 -29.5 -24.75 -30.5 -26.2 -30.5 -27.65 -30.5 -28.65 -29.5 -29.7 -28.45 -29.7 -27.0 Z" fill="none" stroke="#000000" stroke-linecap="round" stroke-linejoin="round" stroke-width="1.0"/>
  </g>
  <defs>
    <radialGradient cx="0" cy="0" gradientTransform="matrix(-0.1585, 0.0, 0.0, 0.1585, 9.35, 74.05)" gradientUnits="userSpaceOnUse" id="gradient0" r="819.2" spreadMethod="pad">
      <stop offset="0.0" stop-color="#cccccc"/>
      <stop offset="0.8235294117647058" stop-color="#999999"/>
      <stop offset="1.0" stop-color="#cccccc"/>
    </radialGradient>
    <radialGradient cx="0" cy="0" gradientTransform="matrix(-0.1237, 0.0, 0.0, 0.1237, 45.5, -17.1)" gradientUnits="userSpaceOnUse" id="gradient1" r="819.2" spreadMethod="pad">
      <stop offset="0.0" stop-color="#cccccc"/>
      <stop offset="0.8235294117647058" stop-color="#999999"/>
      <stop offset="1.0" stop-color="#cccccc"/>
    </radialGradient>
    <radialGradient cx="0" cy="0" gradientTransform="matrix(-0.0099, 0.0, 0.0, 0.0099, 93.1, -12.7)" gradientUnits="userSpaceOnUse" id="gradient2" r="819.2" spreadMethod="pad">
      <stop offset="0.0" stop-color="#ff8888"/>
      <stop offset="0.20392156862745098" stop-color="#660000"/>
      <stop offset="1.0" stop-color="#dd0000"/>
    </radialGradient>
    <radialGradient cx="0" cy="0" gradientTransform="matrix(-0.0099, 0.0027, 0.0053, 0.0198, 125.15, 24.15)" gradientUnits="userSpaceOnUse" id="gradient3" r="819.2" spreadMethod="pad">
      <stop offset="0.0" stop-color="#ff8888"/>
      <stop offset="0.20392156862745098" stop-color="#660000"/>
      <stop offset="1.0" stop-color="#dd0000"/>
    </radialGradient>
    <radialGradient cx="0" cy="0" gradientTransform="matrix(-0.0087, 0.0, 0.0, 0.0087, 68.7, 68.8)" gradientUnits="userSpaceOnUse" id="gradient4" r="819.2" spreadMethod="pad">
      <stop offset="0.0" stop-color="#ff8888"/>
      <stop offset="0.20392156862745098" stop-color="#660000"/>
      <stop offset="1.0" stop-color="#dd0000"/>
    </radialGradient>
    <radialGradient cx="0" cy="0" gradientTransform="matrix(-0.0072, 0.0, 0.0, 0.0072, -25.6, -29.35)" gradientUnits="userSpaceOnUse" id="gradient5" r="819.2" spreadMethod="pad">
      <stop offset="0.0" stop-color="#ff8888"/>
      <stop offset="0.20392156862745098" stop-color="#660000"/>
      <stop offset="1.0" stop-color="#dd0000"/>
    </radialGradient>
  </defs>
</svg>
