<?xml version="1.0" encoding="UTF-8" standalone="no"?>
<svg xmlns:ffdec="https://www.free-decompiler.com/flash" xmlns:xlink="http://www.w3.org/1999/xlink" ffdec:objectType="shape" height="16.45px" width="19.45px" xmlns="http://www.w3.org/2000/svg">
  <g transform="matrix(1.0, 0.0, 0.0, 1.0, 6.5, 15.3)">
    <path d="M-3.95 -6.75 Q-4.2 -7.5 -4.0 -12.1 L-1.55 -14.1 5.0 -14.8 5.0 -13.4 7.25 -13.0 9.5 -10.8 Q1.15 -11.45 -0.2 -9.35 L-2.5 -6.7 -3.95 -6.75" fill="#999999" fill-rule="evenodd" stroke="none"/>
    <path d="M9.5 -10.8 L9.5 -10.1 Q10.3 -6.9 1.85 -8.5 L-0.2 -9.35 Q1.15 -11.45 9.5 -10.8 M6.3 -9.4 L4.95 -9.4 6.3 -9.4" fill="#910000" fill-rule="evenodd" stroke="none"/>
    <path d="M9.5 -10.1 Q11.6 -9.75 12.45 -4.8 10.9 -2.1 7.8 0.5 L2.7 -1.05 2.2 0.65 -2.3 0.15 -2.3 -1.3 -6.0 -6.5 -5.6 -8.0 -3.95 -6.75 -2.5 -6.7 -0.2 -9.35 1.85 -8.5 Q10.3 -6.9 9.5 -10.1 M0.45 -3.6 Q0.25 -4.6 0.45 -5.6 L0.4 -5.5 0.3 -4.9 -0.5 -3.6 0.45 -3.6 Q1.2 -1.2 2.7 -1.05 1.2 -1.2 0.45 -3.6 M-2.5 -6.7 L0.75 -6.6 0.45 -5.6 0.75 -6.6 -2.5 -6.7 M7.55 -2.7 L9.25 -4.85 7.55 -2.7 M4.8 -2.95 L6.5 -5.1 4.8 -2.95 M-2.05 -3.45 L-2.3 -3.35 -2.3 -1.3 -2.3 -3.35 -2.05 -3.45 -2.15 -3.4 -0.9 -3.75 -2.05 -3.45 M-0.5 -3.6 L-0.9 -3.75 -0.5 -3.6" fill="#666666" fill-rule="evenodd" stroke="none"/>
    <path d="M0.45 -3.6 L-0.5 -3.6 0.3 -4.9 0.4 -5.5 0.45 -5.6 Q0.25 -4.6 0.45 -3.6 M-2.05 -3.45 L-0.9 -3.75 -2.15 -3.4 -2.05 -3.45" fill="#d27e02" fill-rule="evenodd" stroke="none"/>
    <path d="M4.95 -9.4 L6.3 -9.4" fill="none" stroke="#3c0000" stroke-linecap="round" stroke-linejoin="round" stroke-width="2.0"/>
    <path d="M9.5 -10.1 Q11.6 -9.75 12.45 -4.8 10.9 -2.1 7.8 0.5 L2.7 -1.05 2.2 0.65 -2.3 0.15 -2.3 -1.3 -6.0 -6.5 -5.6 -8.0 -3.95 -6.75 -2.5 -6.7 -0.2 -9.35 M0.45 -3.6 Q0.25 -4.6 0.45 -5.6 L0.4 -5.5 0.3 -4.9 -0.5 -3.6 0.45 -3.6 Q1.2 -1.2 2.7 -1.05 M9.25 -4.85 L7.55 -2.7 M0.45 -5.6 L0.75 -6.6 -2.5 -6.7 M6.5 -5.1 L4.8 -2.95 M-2.3 -1.3 L-2.3 -3.35 -2.05 -3.45 -0.9 -3.75 -0.5 -3.6 M-2.05 -3.45 L-2.15 -3.4 -0.9 -3.75" fill="none" stroke="#262626" stroke-linecap="round" stroke-linejoin="round" stroke-width="1.0"/>
    <path d="M-3.95 -6.75 Q-4.2 -7.5 -4.0 -12.1 L-1.55 -14.1 5.0 -14.8 5.0 -13.4 7.25 -13.0 9.5 -10.8 9.5 -10.1" fill="none" stroke="#2f2f2f" stroke-linecap="round" stroke-linejoin="round" stroke-width="1.0"/>
    <path d="M-0.2 -9.35 Q1.15 -11.45 9.5 -10.8 M-0.2 -9.35 L1.85 -8.5 Q10.3 -6.9 9.5 -10.1" fill="none" stroke="#3a0000" stroke-linecap="round" stroke-linejoin="round" stroke-width="1.0"/>
  </g>
</svg>
