<?xml version="1.0" encoding="UTF-8" standalone="no"?>
<svg xmlns:xlink="http://www.w3.org/1999/xlink" height="8.05px" width="41.25px" xmlns="http://www.w3.org/2000/svg">
  <g transform="matrix(1.0, 0.0, 0.0, 1.0, 8.35, 6.15)">
    <path d="M10.5 -1.15 L11.75 -2.75 10.5 -1.15 M12.4 -1.15 L13.65 -2.75 12.4 -1.15 M14.25 -1.15 L15.5 -2.75 14.25 -1.15 M19.6 -3.8 L10.6 -4.15 8.3 -1.4 7.45 -2.1 1.6 -0.85 -0.1 -1.75 -0.4 -3.05 -0.1 -1.75 1.6 -0.85 7.45 -2.1 8.3 -1.4 10.6 -4.15 19.6 -3.8 M21.75 -1.05 L21.1 -2.05 17.7 -2.05 16.9 -1.15 17.7 -2.05 21.1 -2.05 21.75 -1.05 M32.4 -2.8 L30.95 0.05 22.1 0.2 21.2 1.4 17.45 1.4 16.25 0.25 8.5 0.2 6.85 -0.65 0.75 0.85 -0.2 0.25 -6.35 0.25 -7.85 -1.5 Q-1.45 -4.25 5.35 -5.65 L20.95 -5.25 Q27.35 -4.5 32.4 -2.8 M-3.35 -0.75 L-3.7 -2.05 -3.35 -0.75 M-1.95 -1.15 L-2.3 -2.45 -1.95 -1.15" fill="#343e4a" fill-rule="evenodd" stroke="none"/>
    <path d="M15.5 -2.75 L14.25 -1.15 M13.65 -2.75 L12.4 -1.15 M11.75 -2.75 L10.5 -1.15" fill="none" stroke="#171e28" stroke-linecap="round" stroke-linejoin="round" stroke-width="1.0"/>
    <path d="M-0.4 -3.05 L-0.1 -1.75 1.6 -0.85 7.45 -2.1 8.3 -1.4 10.6 -4.15 19.6 -3.8" fill="none" stroke="#2d3540" stroke-linecap="round" stroke-linejoin="round" stroke-width="1.0"/>
    <path d="M16.9 -1.15 L17.7 -2.05 21.1 -2.05 21.75 -1.05" fill="none" stroke="#3f4b59" stroke-linecap="round" stroke-linejoin="round" stroke-width="1.0"/>
    <path d="M32.4 -2.8 L30.95 0.05 22.1 0.2 21.2 1.4 17.45 1.4 16.25 0.25 8.5 0.2 6.85 -0.65 0.75 0.85 -0.2 0.25 -6.35 0.25 -7.85 -1.5 Q-1.45 -4.25 5.35 -5.65 L20.95 -5.25 Q27.35 -4.5 32.4 -2.8" fill="none" stroke="#1b2026" stroke-linecap="round" stroke-linejoin="round" stroke-width="1.0"/>
    <path d="M-2.3 -2.45 L-1.95 -1.15 M-3.7 -2.05 L-3.35 -0.75" fill="none" stroke="#2c343f" stroke-linecap="round" stroke-linejoin="round" stroke-width="1.0"/>
  </g>
</svg>
