<?xml version="1.0" encoding="UTF-8" standalone="no"?>
<svg xmlns:ffdec="https://www.free-decompiler.com/flash" xmlns:xlink="http://www.w3.org/1999/xlink" ffdec:objectType="shape" height="30.1px" width="30.35px" xmlns="http://www.w3.org/2000/svg">
  <g transform="matrix(1.0, 0.0, 0.0, 1.0, 0.5, 0.95)">
    <path d="M20.65 13.25 L20.8 13.2 21.55 13.0 Q22.65 12.95 23.45 13.7 24.3 14.4 24.35 15.5 24.45 16.6 23.7 17.4 L22.7 18.15 23.85 20.3 24.1 20.75 26.1 21.0 24.7 22.85 19.3 21.45 19.8 20.35 Q20.85 20.8 22.05 20.7 L23.85 20.3 22.05 20.7 Q20.85 20.8 19.8 20.35 L18.2 19.4 17.7 18.85 12.3 19.1 11.35 17.8 10.15 16.1 10.2 16.0 10.55 14.65 10.75 13.9 16.75 13.5 20.35 13.25 20.4 13.35 20.65 13.25 M22.7 18.15 L21.9 18.3 Q20.8 18.35 19.95 17.65 19.15 16.95 19.05 15.85 19.0 14.75 19.7 13.9 L20.4 13.35 19.7 13.9 Q19.0 14.75 19.05 15.85 19.15 16.95 19.95 17.65 20.8 18.35 21.9 18.3 L22.7 18.15 M16.75 13.5 Q16.35 14.55 16.4 15.7 16.55 17.6 17.7 18.85 16.55 17.6 16.4 15.7 16.35 14.55 16.75 13.5" fill="#191919" fill-rule="evenodd" stroke="none"/>
    <path d="M26.1 21.0 L24.1 20.75 23.85 20.3 22.7 18.15 23.7 17.4 Q24.45 16.6 24.35 15.5 24.3 14.4 23.45 13.7 22.65 12.95 21.55 13.0 L20.8 13.2 20.65 13.25 20.35 13.25 19.15 10.05 18.9 9.45 24.85 9.2 Q27.95 10.35 29.3 12.75 29.55 17.1 27.85 21.2 L26.1 21.0" fill="url(#gradient0)" fill-rule="evenodd" stroke="none"/>
    <path d="M19.15 10.05 L20.35 13.25 16.75 13.5 10.75 13.9 9.45 13.95 9.95 12.8 10.7 11.05 12.45 10.7 13.9 10.5 19.15 10.05 M13.5 12.0 L11.85 12.1 13.5 12.0 M17.15 11.8 L15.5 11.9 17.15 11.8" fill="url(#gradient1)" fill-rule="evenodd" stroke="none"/>
    <path d="M11.35 17.8 L2.1 17.4 0.0 15.75 10.2 16.0 10.15 16.1 11.35 17.8" fill="url(#gradient2)" fill-rule="evenodd" stroke="none"/>
    <path d="M9.95 12.8 L9.45 13.95 10.75 13.9 10.55 14.65 3.85 13.65 2.15 11.8 9.95 12.8" fill="url(#gradient3)" fill-rule="evenodd" stroke="none"/>
    <path d="M12.85 20.85 L14.85 21.35 8.9 27.95 6.3 28.3 12.85 20.85" fill="url(#gradient4)" fill-rule="evenodd" stroke="none"/>
    <path d="M19.8 20.35 L19.3 21.45 19.05 21.9 18.8 21.9 17.05 21.75 14.9 21.35 14.85 21.35 12.85 20.85 11.55 20.4 12.3 19.1 17.7 18.85 18.2 19.4 19.8 20.35" fill="url(#gradient5)" fill-rule="evenodd" stroke="none"/>
    <path d="M17.05 21.75 L18.8 21.9 16.9 25.75 16.4 26.7 13.8 27.25 15.4 24.55 16.1 25.9 16.9 25.75 16.1 25.9 15.4 24.55 17.05 21.75" fill="url(#gradient6)" fill-rule="evenodd" stroke="none"/>
    <path d="M14.5 9.2 L14.6 9.05 Q15.5 7.7 16.35 7.4 L17.0 7.3 17.25 6.8 Q17.75 6.05 18.35 5.65 19.1 5.15 20.85 5.4 L21.75 5.65 Q22.45 6.0 22.75 7.05 L23.25 8.65 M16.9 25.75 L17.85 25.55 18.35 27.4 Q18.45 28.0 18.85 28.35 19.3 28.75 19.75 28.65 20.7 28.5 21.0 27.05 L21.15 24.6 21.0 22.15 M14.5 9.2 L13.9 10.5 M16.5 9.8 Q16.25 8.75 17.0 7.3 L18.5 7.65 19.85 8.4 20.25 8.9 M14.9 21.35 L15.15 23.65 15.4 24.55 16.1 25.9 16.9 25.75" fill="none" stroke="#181817" stroke-linecap="round" stroke-linejoin="round" stroke-width="1.0"/>
    <path d="M20.65 13.25 L20.8 13.2 21.55 13.0 Q22.65 12.95 23.45 13.7 24.3 14.4 24.35 15.5 24.45 16.6 23.7 17.4 L22.7 18.15 23.85 20.3 24.1 20.75 26.1 21.0 27.85 21.2 Q29.55 17.1 29.3 12.75 27.95 10.35 24.85 9.2 L18.9 9.45 19.15 10.05 20.35 13.25 16.75 13.5 10.75 13.9 9.45 13.95 9.95 12.8 10.7 11.05 12.45 10.7 13.9 10.5 19.15 10.05 M19.8 20.35 L19.3 21.45 M11.85 12.1 L13.5 12.0 M15.5 11.9 L17.15 11.8 M12.85 20.85 L11.55 20.4 12.3 19.1 17.7 18.85 M14.85 21.35 L14.9 21.35 17.05 21.75 18.8 21.9" fill="none" stroke="#151515" stroke-linecap="round" stroke-linejoin="round" stroke-width="1.0"/>
    <path d="M20.35 13.25 L20.65 13.25 20.4 13.35 19.7 13.9 Q19.0 14.75 19.05 15.85 19.15 16.95 19.95 17.65 20.8 18.35 21.9 18.3 L22.7 18.15 M20.35 13.25 L20.4 13.35 M23.85 20.3 L22.05 20.7 Q20.85 20.8 19.8 20.35 L18.2 19.4 17.7 18.85 Q16.55 17.6 16.4 15.7 16.35 14.55 16.75 13.5 M19.3 21.45 L24.7 22.85 26.1 21.0 M10.2 16.0 L0.0 15.75 2.1 17.4 11.35 17.8 10.15 16.1 10.2 16.0 10.55 14.65 3.85 13.65 2.15 11.8 9.95 12.8 M10.75 13.9 L10.55 14.65 M12.3 19.1 L11.35 17.8 M14.85 21.35 L12.85 20.85 6.3 28.3 8.9 27.95 14.85 21.35 M18.8 21.9 L19.05 21.9 19.3 21.45 M15.4 24.55 L17.05 21.75 M15.4 24.55 L13.8 27.25 16.4 26.7 16.9 25.75 18.8 21.9" fill="none" stroke="#0e0e0e" stroke-linecap="round" stroke-linejoin="round" stroke-width="1.0"/>
    <path d="M14.5 9.2 L14.95 9.8 M8.9 6.95 L12.45 10.7 M7.2 -0.45 L14.5 9.2" fill="none" stroke="#0e0e0e" stroke-linecap="round" stroke-linejoin="round" stroke-opacity="0.49803922" stroke-width="1.0"/>
  </g>
  <defs>
    <radialGradient cx="0" cy="0" gradientTransform="matrix(0.0141, 0.0, 0.0, 0.0141, 21.5, 12.05)" gradientUnits="userSpaceOnUse" id="gradient0" r="819.2" spreadMethod="pad">
      <stop offset="0.0" stop-color="#333333"/>
      <stop offset="1.0" stop-color="#1c1c1c"/>
    </radialGradient>
    <radialGradient cx="0" cy="0" gradientTransform="matrix(0.0086, 0.0, 0.0, 0.0086, 15.95, 11.25)" gradientUnits="userSpaceOnUse" id="gradient1" r="819.2" spreadMethod="pad">
      <stop offset="0.0" stop-color="#333333"/>
      <stop offset="1.0" stop-color="#1c1c1c"/>
    </radialGradient>
    <radialGradient cx="0" cy="0" gradientTransform="matrix(0.0024, 0.0, 0.0, 0.0086, 7.0, 16.75)" gradientUnits="userSpaceOnUse" id="gradient2" r="819.2" spreadMethod="pad">
      <stop offset="0.0" stop-color="#333333"/>
      <stop offset="1.0" stop-color="#191919"/>
    </radialGradient>
    <radialGradient cx="0" cy="0" gradientTransform="matrix(0.0024, 0.0, 0.0, 0.0059, 6.85, 12.95)" gradientUnits="userSpaceOnUse" id="gradient3" r="819.2" spreadMethod="pad">
      <stop offset="0.0" stop-color="#333333"/>
      <stop offset="1.0" stop-color="#191919"/>
    </radialGradient>
    <radialGradient cx="0" cy="0" gradientTransform="matrix(0.0017, -0.0017, 0.0069, 0.0067, 12.1, 22.85)" gradientUnits="userSpaceOnUse" id="gradient4" r="819.2" spreadMethod="pad">
      <stop offset="0.0" stop-color="#333333"/>
      <stop offset="1.0" stop-color="#191919"/>
    </radialGradient>
    <radialGradient cx="0" cy="0" gradientTransform="matrix(0.0051, 0.0, 0.0, 0.0051, 15.75, 20.5)" gradientUnits="userSpaceOnUse" id="gradient5" r="819.2" spreadMethod="pad">
      <stop offset="0.0" stop-color="#333333"/>
      <stop offset="1.0" stop-color="#1c1c1c"/>
    </radialGradient>
    <radialGradient cx="0" cy="0" gradientTransform="matrix(0.0011, -0.0021, 0.0045, 0.0023, 16.8, 24.35)" gradientUnits="userSpaceOnUse" id="gradient6" r="819.2" spreadMethod="pad">
      <stop offset="0.0" stop-color="#333333"/>
      <stop offset="1.0" stop-color="#191919"/>
    </radialGradient>
  </defs>
</svg>
