<?xml version="1.0" encoding="UTF-8" standalone="no"?>
<svg xmlns:ffdec="https://www.free-decompiler.com/flash" xmlns:xlink="http://www.w3.org/1999/xlink" ffdec:objectType="shape" height="17.45px" width="18.15px" xmlns="http://www.w3.org/2000/svg">
  <g transform="matrix(1.0, 0.0, 0.0, 1.0, 6.1, 15.5)">
    <path d="M-5.6 -8.0 Q-5.75 -11.4 -3.0 -14.0 L1.0 -15.0 3.75 -13.4 5.0 -13.4 7.25 -13.0 9.5 -10.8 Q1.15 -11.45 -0.2 -9.35 L-2.5 -6.7 -5.6 -8.0" fill="#999999" fill-rule="evenodd" stroke="none"/>
    <path d="M9.5 -10.8 L9.5 -10.1 Q10.3 -6.9 1.85 -8.5 L-0.2 -9.35 Q1.15 -11.45 9.5 -10.8 M6.3 -9.4 L4.95 -9.4 6.3 -9.4" fill="#dddd00" fill-rule="evenodd" stroke="none"/>
    <path d="M9.5 -10.1 Q10.9 -9.45 11.4 -4.6 L11.55 -2.15 11.45 -0.55 Q11.3 0.85 10.75 1.45 L2.7 -1.05 Q1.2 -1.2 0.45 -3.6 0.25 -4.6 0.45 -5.6 L0.4 -5.5 0.3 -4.9 -0.5 -3.6 -0.9 -3.75 -2.05 -3.45 -2.3 -3.35 -2.3 -3.3 -2.3 -1.3 -5.6 -4.1 -5.6 -8.0 -2.5 -6.7 -0.2 -9.35 1.85 -8.5 Q10.3 -6.9 9.5 -10.1 M8.15 -0.9 L9.85 -3.05 8.15 -0.9 M6.15 -1.9 L8.0 -4.0 6.15 -1.9 M4.15 -2.9 L5.0 -4.0 4.15 -2.9 M-2.5 -6.7 L0.75 -6.6 0.45 -5.6 0.75 -6.6 -2.5 -6.7" fill="#666666" fill-rule="evenodd" stroke="none"/>
    <path d="M0.45 -3.6 L-0.5 -3.6 0.3 -4.9 0.4 -5.5 0.45 -5.6 Q0.25 -4.6 0.45 -3.6 M-0.9 -3.75 L-2.15 -3.4 -2.3 -3.3 -2.3 -3.35 -2.05 -3.45 -2.15 -3.4 -2.3 -3.35 -2.15 -3.4 -2.05 -3.45 -0.9 -3.75" fill="#d27e02" fill-rule="evenodd" stroke="none"/>
    <path d="M2.7 -1.05 L2.2 0.65 -2.3 0.15 -2.3 -1.3 -2.3 -3.3 -2.15 -3.4 -0.9 -3.75 -0.5 -3.6 0.45 -3.6 Q1.2 -1.2 2.7 -1.05" fill="#333333" fill-rule="evenodd" stroke="none"/>
    <path d="M-2.3 -3.35 L-2.15 -3.4 -2.05 -3.45" fill="none" stroke="#000000" stroke-linecap="round" stroke-linejoin="round" stroke-width="1.0"/>
    <path d="M4.95 -9.4 L6.3 -9.4" fill="none" stroke="#665b00" stroke-linecap="round" stroke-linejoin="round" stroke-width="2.0"/>
    <path d="M9.5 -10.1 Q10.9 -9.45 11.4 -4.6 L11.55 -2.15 11.45 -0.55 Q11.3 0.85 10.75 1.45 L2.7 -1.05 M-2.3 -1.3 L-5.6 -4.1 -5.6 -8.0 -2.5 -6.7 -0.2 -9.35 M0.45 -3.6 Q0.25 -4.6 0.45 -5.6 L0.4 -5.5 0.3 -4.9 -0.5 -3.6 M5.0 -4.0 L4.15 -2.9 M8.0 -4.0 L6.15 -1.9 M9.85 -3.05 L8.15 -0.9 M0.45 -5.6 L0.75 -6.6 -2.5 -6.7 M-2.05 -3.45 L-2.3 -3.35 -2.3 -3.3 M-2.05 -3.45 L-0.9 -3.75" fill="none" stroke="#262626" stroke-linecap="round" stroke-linejoin="round" stroke-width="1.0"/>
    <path d="M2.7 -1.05 L2.2 0.65 -2.3 0.15 -2.3 -1.3 -2.3 -3.3 -2.15 -3.4 -0.9 -3.75 -0.5 -3.6 0.45 -3.6 Q1.2 -1.2 2.7 -1.05" fill="none" stroke="#171717" stroke-linecap="round" stroke-linejoin="round" stroke-width="1.0"/>
    <path d="M-5.6 -8.0 Q-5.75 -11.4 -3.0 -14.0 L1.0 -15.0 3.75 -13.4 5.0 -13.4 7.25 -13.0 9.5 -10.8 9.5 -10.1" fill="none" stroke="#2f2f2f" stroke-linecap="round" stroke-linejoin="round" stroke-width="1.0"/>
    <path d="M-0.2 -9.35 Q1.15 -11.45 9.5 -10.8 M-0.2 -9.35 L1.85 -8.5 Q10.3 -6.9 9.5 -10.1" fill="none" stroke="#3c3c00" stroke-linecap="round" stroke-linejoin="round" stroke-width="1.0"/>
  </g>
</svg>
