<?xml version="1.0" encoding="UTF-8" standalone="no"?>
<svg xmlns:xlink="http://www.w3.org/1999/xlink" height="111.55px" width="180.0px" xmlns="http://www.w3.org/2000/svg">
  <g transform="matrix(1.0, 0.0, 0.0, 1.0, 48.15, 42.75)">
    <path d="M37.9 -42.25 L31.75 -29.6 24.65 -13.2 24.45 -20.6 15.25 -27.1 -1.25 -24.6 -15.2 -37.25 4.75 -37.6 0.85 -28.8 11.75 -32.35 20.75 -40.35 37.9 -42.25 M101.45 38.05 L100.6 44.0 92.75 52.15 97.25 43.0 97.05 33.85 101.45 38.05 M81.65 -17.65 L86.6 -2.5 94.75 7.95 91.45 18.55 80.4 24.9 87.25 10.25 80.4 -1.2 81.65 -17.65" fill="#1a1a1a" fill-rule="evenodd" stroke="none"/>
    <path d="M-15.2 -37.25 L-1.25 -24.6 15.25 -27.1 24.45 -20.6 24.65 -13.2 31.75 -29.6 37.9 -42.25 Q47.35 -41.85 57.2 -39.0 L64.85 -36.45 68.25 -35.1 60.75 -32.45 53.25 -29.85 45.5 -13.1 34.95 -8.55 31.0 -6.85 25.95 -8.95 14.75 -13.6 10.85 -12.85 6.9 -12.1 -1.0 -10.6 -8.0 1.2 -16.85 1.2 -32.25 -10.65 -47.65 -22.5 Q-34.5 -31.4 -15.2 -37.25 M45.55 10.6 L57.5 7.65 67.75 0.9 68.5 -7.45 69.25 -15.85 81.65 -17.65 80.4 -1.2 87.25 10.25 80.4 24.9 91.45 18.55 102.55 12.2 106.5 -1.5 110.2 -2.75 Q117.9 7.4 122.95 19.5 129.1 34.35 131.3 52.15 L117.5 52.15 109.25 52.15 107.0 52.15 105.85 42.25 101.45 38.05 97.05 33.85 97.25 43.0 92.75 52.15 82.5 52.15 78.1 49.4 73.75 46.65 54.3 44.1 54.3 23.7 46.7 15.75 42.5 11.3 45.55 10.6 M58.05 31.75 L58.05 40.5 58.05 31.75 M61.65 40.9 L61.4 32.0 61.65 40.9 M67.55 41.75 L67.55 39.25 67.55 41.75 M64.9 41.5 L64.8 35.5 64.9 41.5" fill="url(#gradient0)" fill-rule="evenodd" stroke="none"/>
    <path d="M-32.25 -10.65 L-16.85 1.2 -8.0 1.2 -1.0 -10.6 6.9 -12.1 8.05 1.2 2.65 13.75 16.9 23.2 -6.35 34.75 -9.75 42.65 -31.65 47.1 -31.65 33.85 -25.35 23.5 -25.7 14.4 -37.45 15.65 -45.3 9.5 -32.25 -10.65 M10.85 -12.85 L14.75 -13.6 25.95 -8.95 21.75 -7.6 14.25 -8.35 10.85 -12.85 M34.95 -8.55 L45.5 -13.1 53.25 -29.85 60.75 -32.45 59.0 -22.35 50.0 -8.6 55.5 -0.35 63.5 -4.35 68.5 -7.45 67.75 0.9 57.5 7.65 45.55 10.6 44.75 3.65 40.0 -3.6 34.95 -8.55 M78.1 49.4 L68.5 52.15 61.45 68.3 54.3 68.3 54.3 44.1 46.6 44.1 36.5 41.15 42.75 38.4 39.35 33.6 46.7 15.75 54.3 23.7 54.3 44.1 73.75 46.65 78.1 49.4 M-16.45 37.9 L-12.95 24.4 -25.7 14.4 -12.95 24.4 -16.45 37.9" fill="#333333" fill-rule="evenodd" stroke="none"/>
    <path d="M-15.2 -37.25 L-1.25 -24.6 15.25 -27.1 24.45 -20.6 24.65 -13.2 31.75 -29.6 37.9 -42.25 20.75 -40.35 11.75 -32.35 0.85 -28.8 4.75 -37.6 -15.2 -37.25 Q-34.5 -31.4 -47.65 -22.5 L-32.25 -10.65 -16.85 1.2 -8.0 1.2 -1.0 -10.6 6.9 -12.1 10.85 -12.85 14.75 -13.6 25.95 -8.95 31.0 -6.85 34.95 -8.55 45.5 -13.1 53.25 -29.85 60.75 -32.45 68.25 -35.1 64.85 -36.45 57.2 -39.0 Q47.35 -41.85 37.9 -42.25 M25.95 -8.95 L21.75 -7.6 14.25 -8.35 10.85 -12.85 M6.9 -12.1 L8.05 1.2 2.65 13.75 16.9 23.2 -6.35 34.75 -9.75 42.65 -31.65 47.1 -31.65 33.85 -25.35 23.5 -25.7 14.4 -37.45 15.65 -45.3 9.5 -32.25 -10.65 M34.95 -8.55 L40.0 -3.6 44.75 3.65 45.55 10.6 57.5 7.65 67.75 0.9 68.5 -7.45 63.5 -4.35 55.5 -0.35 50.0 -8.6 59.0 -22.35 60.75 -32.45 M81.65 -17.65 L69.25 -15.85 68.5 -7.45 M91.45 18.55 L102.55 12.2 106.5 -1.5 110.2 -2.75 Q117.9 7.4 122.95 19.5 129.1 34.35 131.3 52.15 L117.5 52.15 109.25 52.15 107.0 52.15 105.85 42.25 101.45 38.05 100.6 44.0 92.75 52.15 82.5 52.15 78.1 49.4 68.5 52.15 61.45 68.3 54.3 68.3 54.3 44.1 46.6 44.1 36.5 41.15 42.75 38.4 39.35 33.6 46.7 15.75 42.5 11.3 45.55 10.6 M81.65 -17.65 L86.6 -2.5 94.75 7.95 91.45 18.55 80.4 24.9 87.25 10.25 80.4 -1.2 81.65 -17.65 M-25.7 14.4 L-12.95 24.4 -16.45 37.9 M92.75 52.15 L97.25 43.0 97.05 33.85 101.45 38.05 M54.3 44.1 L54.3 23.7 46.7 15.75 M58.05 40.5 L58.05 31.75 M78.1 49.4 L73.75 46.65 54.3 44.1 M64.8 35.5 L64.9 41.5 M67.55 39.25 L67.55 41.75 M61.4 32.0 L61.65 40.9" fill="none" stroke="#000000" stroke-linecap="round" stroke-linejoin="round" stroke-width="1.0"/>
    <path d="M-29.7 -23.0 Q-29.7 -24.45 -28.65 -25.5 -27.65 -26.5 -26.2 -26.5 -24.75 -26.5 -23.7 -25.5 -22.7 -24.45 -22.7 -23.0 -22.7 -21.55 -23.7 -20.55 -24.75 -19.5 -26.2 -19.5 -27.65 -19.5 -28.65 -20.55 -29.7 -21.55 -29.7 -23.0 M-26.7 -24.4 L-26.4 -21.1 -24.15 -21.75 -24.3 -21.75 Q-24.8 -23.75 -26.1 -24.7 L-26.7 -24.4 -26.75 -25.0 -28.05 -23.7 -26.7 -24.4 M126.5 22.9 L125.5 23.85 125.15 25.2 Q124.3 25.3 124.05 26.1 L123.85 26.5 125.5 27.45 125.8 29.1 Q123.3 32.95 121.9 35.95 124.2 37.4 127.75 37.25 L129.75 38.2 130.05 41.5 131.35 41.8 Q130.5 45.15 128.1 45.85 126.4 46.35 124.3 42.7 122.4 39.4 120.95 34.35 119.55 29.3 119.5 25.55 119.45 21.4 121.3 21.05 124.1 20.5 126.5 22.9" fill="#000000" fill-rule="evenodd" stroke="none"/>
    <path d="M-29.7 -23.0 Q-29.7 -21.55 -28.65 -20.55 -27.65 -19.5 -26.2 -19.5 -24.75 -19.5 -23.7 -20.55 -22.7 -21.55 -22.7 -23.0 -22.7 -24.45 -23.7 -25.5 -24.75 -26.5 -26.2 -26.5 -27.65 -26.5 -28.65 -25.5 -29.7 -24.45 -29.7 -23.0 M131.35 41.8 Q130.5 45.15 128.1 45.85 126.4 46.35 124.3 42.7 122.4 39.4 120.95 34.35 119.55 29.3 119.5 25.55 119.45 21.4 121.3 21.05 124.1 20.5 126.5 22.9" fill="none" stroke="#000000" stroke-linecap="round" stroke-linejoin="round" stroke-width="1.0"/>
  </g>
  <defs>
    <radialGradient cx="0" cy="0" gradientTransform="matrix(-0.1585, 0.0, 0.0, 0.1585, 9.35, 78.05)" gradientUnits="userSpaceOnUse" id="gradient0" r="819.2" spreadMethod="pad">
      <stop offset="0.0" stop-color="#262626"/>
      <stop offset="0.8235294117647058" stop-color="#222222"/>
      <stop offset="1.0" stop-color="#444444"/>
    </radialGradient>
  </defs>
</svg>
