<?xml version="1.0" encoding="UTF-8" standalone="no"?>
<svg xmlns:xlink="http://www.w3.org/1999/xlink" height="13.45px" width="51.35px" xmlns="http://www.w3.org/2000/svg">
  <g transform="matrix(1.0, 0.0, 0.0, 1.0, 20.55, 2.25)">
    <path d="M-18.85 0.25 L-17.6 -1.75 -12.7 -1.15 Q-10.2 -0.15 -8.75 -0.85 L-7.7 -1.35 -6.35 0.25 -0.2 0.25 0.75 0.85 6.85 -0.65 8.5 0.2 16.25 0.25 17.45 1.4 21.2 1.4 22.1 0.2 30.3 0.05 30.3 1.65 26.05 3.25 Q24.05 4.85 22.85 7.85 L21.65 8.5 12.6 8.5 11.65 7.55 12.15 5.85 Q12.45 4.5 12.35 3.0 L10.55 3.0 9.95 3.95 9.35 4.95 4.05 6.45 3.6 5.6 2.6 5.95 -0.2 5.9 -1.3 9.3 Q-0.65 10.4 -1.9 10.7 L-6.5 9.95 Q-11.55 4.25 -16.95 9.3 L-20.05 8.55 Q-18.6 4.95 -18.85 0.25 -14.85 0.55 -18.1 7.5 -14.85 0.55 -18.85 0.25 M-3.45 2.3 Q-4.85 2.75 -6.05 4.0 -7.5 5.75 -6.55 7.05 L-5.5 8.0 Q-4.6 6.05 -3.3 5.4 L-2.05 3.6 Q-1.05 1.85 -3.45 2.3 M-14.85 4.1 L-12.7 4.35 -14.85 4.1 M-14.55 2.5 L-12.4 2.75 -14.55 2.5 M-14.35 0.65 L-12.2 0.9 -14.35 0.65 M24.85 1.8 L23.05 1.8 24.85 1.8 M21.35 3.0 L23.05 1.8 21.35 3.0 18.8 3.0 21.35 3.0 M18.1 6.8 L19.35 5.2 18.1 6.8 M14.55 6.7 Q16.55 7.2 16.65 4.75 16.75 2.3 14.55 2.55 L14.55 6.7 M6.65 0.8 L3.75 1.6 4.2 3.15 7.8 2.15 7.85 1.55 6.65 0.8 M2.5 4.75 L3.1 4.45 2.5 3.05 0.8 3.05 0.45 4.6 2.5 4.75 M7.15 4.1 L4.75 4.85 7.15 4.1 M19.95 6.8 L21.2 5.2 19.95 6.8" fill="#464e5b" fill-rule="evenodd" stroke="none"/>
    <path d="M9.95 3.95 L10.55 3.0 12.35 3.0 Q12.45 4.5 12.15 5.85 L9.95 3.95 M6.65 0.8 L7.85 1.55 7.8 2.15 4.2 3.15 3.75 1.6 6.65 0.8" fill="#2d313a" fill-rule="evenodd" stroke="none"/>
    <path d="M14.55 2.55 Q16.75 2.3 16.65 4.75 16.55 7.2 14.55 6.7 L14.55 2.55" fill="#6b7685" fill-rule="evenodd" stroke="none"/>
    <path d="M-7.7 -1.35 L-8.75 -0.85 Q-10.2 -0.15 -12.7 -1.15 L-17.6 -1.75 -18.85 0.25 Q-18.6 4.95 -20.05 8.55 L-16.95 9.3 Q-11.55 4.25 -6.5 9.95 L-1.9 10.7 Q-0.65 10.4 -1.3 9.3 L-0.2 5.9 2.6 5.95 3.6 5.6 4.05 6.45 9.35 4.95 M11.65 7.55 L12.6 8.5 21.65 8.5 22.85 7.85 Q24.05 4.85 26.05 3.25 L30.3 1.65 30.3 0.05" fill="none" stroke="#2c333b" stroke-linecap="round" stroke-linejoin="round" stroke-width="1.0"/>
    <path d="M-3.45 2.3 Q-4.85 2.75 -6.05 4.0 -7.5 5.75 -6.55 7.05 L-5.5 8.0 Q-4.6 6.05 -3.3 5.4 L-2.05 3.6 Q-1.05 1.85 -3.45 2.3" fill="none" stroke="#1b222c" stroke-linecap="round" stroke-linejoin="round" stroke-width="1.0"/>
    <path d="M-12.2 0.9 L-14.35 0.65 M-12.4 2.75 L-14.55 2.5 M-12.7 4.35 L-14.85 4.1 M23.05 1.8 L21.35 3.0 M14.55 2.55 Q16.75 2.3 16.65 4.75 16.55 7.2 14.55 6.7" fill="none" stroke="#323943" stroke-linecap="round" stroke-linejoin="round" stroke-width="1.0"/>
    <path d="M-18.85 0.25 Q-14.85 0.55 -18.1 7.5" fill="none" stroke="#323844" stroke-linecap="round" stroke-linejoin="round" stroke-width="1.0"/>
    <path d="M23.05 1.8 L24.85 1.8" fill="none" stroke="#3d4551" stroke-linecap="round" stroke-linejoin="round" stroke-width="1.0"/>
    <path d="M9.35 4.95 L9.95 3.95 10.55 3.0 12.35 3.0 Q12.45 4.5 12.15 5.85 L11.65 7.55 M9.95 3.95 L12.15 5.85" fill="none" stroke="#202529" stroke-linecap="round" stroke-linejoin="round" stroke-width="1.0"/>
    <path d="M14.55 6.7 L14.55 2.55" fill="none" stroke="#373f4a" stroke-linecap="round" stroke-linejoin="round" stroke-width="1.0"/>
    <path d="M19.35 5.2 L18.1 6.8 M21.2 5.2 L19.95 6.8" fill="none" stroke="#2e343c" stroke-linecap="round" stroke-linejoin="round" stroke-width="1.0"/>
    <path d="M6.65 0.8 L3.75 1.6 4.2 3.15 7.8 2.15 7.85 1.55 6.65 0.8" fill="none" stroke="#20232a" stroke-linecap="round" stroke-linejoin="round" stroke-width="1.0"/>
    <path d="M2.5 4.75 L3.1 4.45 2.5 3.05 0.8 3.05 0.45 4.6 2.5 4.75" fill="none" stroke="#22262f" stroke-linecap="round" stroke-linejoin="round" stroke-width="1.0"/>
    <path d="M4.75 4.85 L7.15 4.1" fill="none" stroke="#414753" stroke-linecap="round" stroke-linejoin="round" stroke-width="1.0"/>
    <path d="M21.35 3.0 L18.8 3.0" fill="none" stroke="#383f4a" stroke-linecap="round" stroke-linejoin="round" stroke-width="1.0"/>
  </g>
</svg>
