<?xml version="1.0" encoding="UTF-8" standalone="no"?>
<svg xmlns:ffdec="https://www.free-decompiler.com/flash" xmlns:xlink="http://www.w3.org/1999/xlink" ffdec:objectType="shape" height="21.7px" width="7.7px" xmlns="http://www.w3.org/2000/svg">
  <g transform="matrix(1.0, 0.0, 0.0, 1.0, 14.2, 41.45)">
    <path d="M-11.95 -36.5 L-12.0 -24.45 M-10.6 -40.95 L-10.65 -28.9" fill="none" stroke="#0e0e0e" stroke-linecap="round" stroke-linejoin="round" stroke-opacity="0.49803922" stroke-width="1.0"/>
    <path d="M-7.0 -24.75 L-7.0 -20.25 -12.2 -20.25 -13.7 -22.25 -13.7 -26.25 Q-13.6 -27.4 -12.4 -28.1 L-11.75 -28.35 -9.3 -28.35 -7.0 -25.25 -7.0 -24.75 -13.45 -24.55 -7.0 -24.75" fill="url(#gradient0)" fill-rule="evenodd" stroke="none"/>
    <path d="M-7.0 -24.75 L-13.45 -24.55" fill="none" stroke="url(#gradient1)" stroke-linecap="round" stroke-linejoin="round" stroke-width="1.0"/>
    <path d="M-13.7 -26.25 L-13.7 -22.25 -12.2 -20.25 -7.0 -20.25 -7.0 -25.25 -9.3 -28.35 -11.75 -28.35 -12.4 -28.1 Q-13.6 -27.4 -13.7 -26.25 Z" fill="none" stroke="#0f0f0f" stroke-linecap="round" stroke-linejoin="round" stroke-width="1.0"/>
  </g>
  <defs>
    <radialGradient cx="0" cy="0" gradientTransform="matrix(0.0089, 0.0, 0.0, 0.0089, -8.55, -22.0)" gradientUnits="userSpaceOnUse" id="gradient0" r="819.2" spreadMethod="pad">
      <stop offset="0.0" stop-color="#333333"/>
      <stop offset="1.0" stop-color="#171717"/>
    </radialGradient>
    <linearGradient gradientTransform="matrix(0.0047, 0.0, 0.0, 0.0056, -10.35, -24.3)" gradientUnits="userSpaceOnUse" id="gradient1" spreadMethod="pad" x1="-819.2" x2="819.2">
      <stop offset="0.0" stop-color="#333333"/>
      <stop offset="1.0" stop-color="#171717"/>
    </linearGradient>
  </defs>
</svg>
