<?xml version="1.0" encoding="UTF-8" standalone="no"?>
<svg xmlns:ffdec="https://www.free-decompiler.com/flash" xmlns:xlink="http://www.w3.org/1999/xlink" ffdec:objectType="shape" height="24.15px" width="27.8px" xmlns="http://www.w3.org/2000/svg">
  <g transform="matrix(1.0, 0.0, 0.0, 1.0, -17.8, 13.3)">
    <path d="M28.6 10.75 L28.15 10.85 Q25.35 10.85 23.4 7.3 21.4 3.75 21.45 -1.2 21.4 -6.2 23.4 -9.75 25.35 -13.3 28.15 -13.3 L28.6 -13.25 28.6 10.75" fill="url(#gradient0)" fill-rule="evenodd" stroke="none"/>
    <path d="M28.6 -13.25 L29.05 -13.3 Q31.8 -13.3 33.8 -9.75 35.75 -6.2 35.75 -1.2 35.75 3.75 33.8 7.3 31.8 10.85 29.05 10.85 L28.6 10.75 28.6 -13.25" fill="url(#gradient1)" fill-rule="evenodd" stroke="none"/>
    <path d="M31.7 -9.4 L32.6 -9.45 Q38.0 -9.45 41.85 -7.05 45.6 -4.65 45.6 -1.3 45.6 2.05 41.85 4.4 38.0 6.8 32.6 6.8 L31.7 6.75 31.7 -9.4" fill="url(#gradient2)" fill-rule="evenodd" stroke="none"/>
    <path d="M31.7 6.75 L30.8 6.8 Q25.4 6.8 21.6 4.4 17.75 2.05 17.8 -1.3 17.75 -4.65 21.6 -7.05 25.4 -9.45 30.8 -9.45 L31.7 -9.4 31.7 6.75" fill="url(#gradient3)" fill-rule="evenodd" stroke="none"/>
  </g>
  <defs>
    <radialGradient cx="0" cy="0" gradientTransform="matrix(0.0, 0.0131, 0.0082, 0.0, 28.15, -1.25)" gradientUnits="userSpaceOnUse" id="gradient0" r="819.2" spreadMethod="pad">
      <stop offset="0.17647058823529413" stop-color="#ffffff"/>
      <stop offset="1.0" stop-color="#139ffd" stop-opacity="0.0"/>
    </radialGradient>
    <radialGradient cx="0" cy="0" gradientTransform="matrix(0.0, 0.0131, -0.0082, 0.0, 29.05, -1.25)" gradientUnits="userSpaceOnUse" id="gradient1" r="819.2" spreadMethod="pad">
      <stop offset="0.17647058823529413" stop-color="#ffffff"/>
      <stop offset="1.0" stop-color="#139ffd" stop-opacity="0.0"/>
    </radialGradient>
    <radialGradient cx="0" cy="0" gradientTransform="matrix(0.0, 0.0088, -0.0159, 0.0, 32.55, -1.35)" gradientUnits="userSpaceOnUse" id="gradient2" r="819.2" spreadMethod="pad">
      <stop offset="0.17647058823529413" stop-color="#ffffff"/>
      <stop offset="1.0" stop-color="#139ffd" stop-opacity="0.0"/>
    </radialGradient>
    <radialGradient cx="0" cy="0" gradientTransform="matrix(0.0, 0.0088, 0.0159, 0.0, 30.8, -1.35)" gradientUnits="userSpaceOnUse" id="gradient3" r="819.2" spreadMethod="pad">
      <stop offset="0.17647058823529413" stop-color="#ffffff"/>
      <stop offset="1.0" stop-color="#139ffd" stop-opacity="0.0"/>
    </radialGradient>
  </defs>
</svg>
