<?xml version="1.0" encoding="UTF-8" standalone="no"?>
<svg xmlns:ffdec="https://www.free-decompiler.com/flash" xmlns:xlink="http://www.w3.org/1999/xlink" ffdec:objectType="shape" height="35.2px" width="30.45px" xmlns="http://www.w3.org/2000/svg">
  <g transform="matrix(1.0, 0.0, 0.0, 1.0, 0.5, 0.5)">
    <path d="M19.6 18.35 L19.55 21.35 Q11.75 20.05 11.4 16.45 13.7 14.75 15.85 14.7 L18.8 18.15 19.6 18.35 M12.1 30.7 L11.1 27.45 Q13.75 27.5 15.6 28.9 L19.5 27.5 Q21.3 29.05 22.35 31.15 L21.85 34.15 Q16.45 34.2 12.1 30.7" fill="#0e3f41" fill-rule="evenodd" stroke="none"/>
    <path d="M12.1 30.7 L11.1 27.45 M22.35 31.15 L21.85 34.15" fill="none" stroke="#061f25" stroke-linecap="round" stroke-linejoin="round" stroke-width="1.0"/>
    <path d="M19.25 22.95 L19.55 21.35 19.6 18.35 Q23.95 19.45 27.9 22.65 27.25 28.2 25.1 31.3 L23.75 33.15 Q22.65 31.85 22.35 31.15 21.3 29.05 19.5 27.5 L18.05 26.4 Q18.65 25.4 19.25 22.95" fill="url(#gradient0)" fill-rule="evenodd" stroke="none"/>
    <path d="M19.55 21.35 L19.25 22.95 15.55 24.45 Q12.25 22.25 8.35 22.85 L7.35 23.05 Q5.15 19.75 4.8 16.05 6.95 17.3 10.0 17.6 L11.4 16.45 Q11.75 20.05 19.55 21.35" fill="url(#gradient1)" fill-rule="evenodd" stroke="none"/>
    <path d="M27.9 22.65 Q23.95 19.45 19.6 18.35 L18.8 18.15 15.85 14.7 Q17.0 14.65 18.15 15.1 18.7 12.15 15.75 9.6 L21.9 9.65 Q27.8 12.05 28.95 16.05 30.05 20.05 28.8 23.4 L27.9 22.65" fill="url(#gradient2)" fill-rule="evenodd" stroke="none"/>
    <path d="M11.4 16.45 L10.0 17.6 Q6.95 17.3 4.8 16.05 1.1 13.9 0.0 9.1 0.15 2.9 5.2 0.0 7.4 4.2 14.7 8.8 L15.75 9.6 Q18.7 12.15 18.15 15.1 17.0 14.65 15.85 14.7 13.7 14.75 11.4 16.45" fill="url(#gradient3)" fill-rule="evenodd" stroke="none"/>
    <path d="M19.25 22.95 Q18.65 25.4 18.05 26.4 L19.5 27.5 15.6 28.9 Q13.75 27.5 11.1 27.45 L10.05 27.45 Q8.7 25.25 8.35 22.85 12.25 22.25 15.55 24.45 L19.25 22.95" fill="url(#gradient4)" fill-rule="evenodd" stroke="none"/>
    <path d="M19.55 21.35 L19.25 22.95 Q18.65 25.4 18.05 26.4 L19.5 27.5 Q21.3 29.05 22.35 31.15 22.65 31.85 23.75 33.15 L25.1 31.3 Q27.25 28.2 27.9 22.65 23.95 19.45 19.6 18.35 L19.55 21.35 Q11.75 20.05 11.4 16.45 L10.0 17.6 Q6.95 17.3 4.8 16.05 5.15 19.75 7.35 23.05 L8.35 22.85 Q12.25 22.25 15.55 24.45 L19.25 22.95 M15.85 14.7 L18.8 18.15 19.6 18.35 M27.9 22.65 L28.8 23.4 Q30.05 20.05 28.95 16.05 27.8 12.05 21.9 9.65 L15.75 9.6 Q18.7 12.15 18.15 15.1 17.0 14.65 15.85 14.7 13.7 14.75 11.4 16.45 M4.8 16.05 Q1.1 13.9 0.0 9.1 0.15 2.9 5.2 0.0 7.4 4.2 14.7 8.8 L15.75 9.6 M8.35 22.85 Q8.7 25.25 10.05 27.45 L11.1 27.45 Q13.75 27.5 15.6 28.9 L19.5 27.5" fill="none" stroke="#040a2e" stroke-linecap="round" stroke-linejoin="round" stroke-width="1.0"/>
    <path d="M21.85 34.2 Q16.35 34.2 12.05 30.85" fill="none" stroke="#061f25" stroke-linecap="round" stroke-linejoin="round" stroke-width="1.0"/>
    <path d="M24.85 14.25 Q23.45 13.15 24.5 12.65 26.35 12.55 26.35 14.5 25.7 14.95 24.85 14.25 M27.15 18.95 Q25.75 17.1 26.8 16.3 28.65 16.15 28.65 19.3 28.0 20.1 27.15 18.95" fill="#625813" fill-opacity="0.29803923" fill-rule="evenodd" stroke="none"/>
    <path d="M12.35 9.4 Q14.2 9.3 14.2 11.5 13.55 12.05 12.7 11.25 11.3 9.95 12.35 9.4 M11.7 13.65 Q11.1 12.75 11.8 12.55 12.9 12.8 12.55 14.05 12.1 14.3 11.7 13.65" fill="#623e13" fill-opacity="0.29803923" fill-rule="evenodd" stroke="none"/>
    <path d="M5.15 11.95 Q5.6 12.45 5.6 13.6 4.95 14.15 4.1 13.35 3.15 12.5 3.35 11.95 L3.75 11.5 Q4.65 11.45 5.15 11.95 M2.85 4.15 Q4.3 4.6 4.1 6.75 L4.0 7.3 3.15 7.25 2.7 6.55 Q1.85 4.45 2.85 4.15 M2.1 9.9 Q1.5 9.0 2.2 8.8 3.3 9.05 2.95 10.3 2.5 10.55 2.1 9.9" fill="#8e861b" fill-opacity="0.29803923" fill-rule="evenodd" stroke="none"/>
    <path d="M11.85 22.1 Q10.85 21.5 11.2 21.05 12.4 20.3 12.9 21.75 12.6 22.35 11.85 22.1 M9.1 20.95 Q8.1 20.0 8.45 19.25 9.65 18.1 10.15 20.35 9.85 21.3 9.1 20.95" fill="#3c8a7a" fill-opacity="0.28627452" fill-rule="evenodd" stroke="none"/>
    <path d="M11.5 25.45 Q10.75 24.45 11.5 24.45 12.7 24.6 12.7 25.75 12.2 26.15 11.5 25.45" fill="#152569" fill-opacity="0.29803923" fill-rule="evenodd" stroke="none"/>
    <path d="M21.65 27.85 Q20.8 26.8 21.4 26.3 L21.9 26.4 22.35 26.85 22.55 28.05 Q22.15 28.5 21.65 27.85 M21.4 25.15 Q21.0 25.6 20.5 24.95 19.65 23.9 20.25 23.4 21.4 23.35 21.4 25.15" fill="#85841d" fill-opacity="0.49803922" fill-rule="evenodd" stroke="none"/>
  </g>
  <defs>
    <radialGradient cx="0" cy="0" gradientTransform="matrix(0.0236, 0.0, 0.0, 0.0281, 17.6, 22.2)" gradientUnits="userSpaceOnUse" id="gradient0" r="819.2" spreadMethod="pad">
      <stop offset="0.0" stop-color="#17d7c6"/>
      <stop offset="0.39215686274509803" stop-color="#c4b81b"/>
      <stop offset="0.6352941176470588" stop-color="#ff1305"/>
      <stop offset="1.0" stop-color="#fff23f"/>
    </radialGradient>
    <radialGradient cx="0" cy="0" gradientTransform="matrix(0.0221, 0.0, 0.0, 0.0221, 18.55, 20.25)" gradientUnits="userSpaceOnUse" id="gradient1" r="819.2" spreadMethod="pad">
      <stop offset="0.0" stop-color="#23ff5b"/>
      <stop offset="0.27450980392156865" stop-color="#3fffba"/>
      <stop offset="0.5019607843137255" stop-color="#3fafff"/>
      <stop offset="0.9058823529411765" stop-color="#0400ff"/>
      <stop offset="1.0" stop-color="#ff1305"/>
    </radialGradient>
    <radialGradient cx="0" cy="0" gradientTransform="matrix(0.0161, -0.0092, 0.0149, 0.0259, 19.2, 11.1)" gradientUnits="userSpaceOnUse" id="gradient2" r="819.2" spreadMethod="pad">
      <stop offset="0.0" stop-color="#17d7c6"/>
      <stop offset="0.39215686274509803" stop-color="#c4b81b"/>
      <stop offset="0.7372549019607844" stop-color="#ff1305"/>
      <stop offset="0.803921568627451" stop-color="#910000"/>
    </radialGradient>
    <radialGradient cx="0" cy="0" gradientTransform="matrix(0.0294, 0.0, 0.0, 0.0294, 2.5, 14.8)" gradientUnits="userSpaceOnUse" id="gradient3" r="819.2" spreadMethod="pad">
      <stop offset="0.0" stop-color="#17d7c6"/>
      <stop offset="0.39215686274509803" stop-color="#c4b81b"/>
      <stop offset="0.9372549019607843" stop-color="#910000"/>
      <stop offset="1.0" stop-color="#fff23f"/>
      <stop offset="1.0" stop-color="#ff1305"/>
    </radialGradient>
    <radialGradient cx="0" cy="0" gradientTransform="matrix(0.0322, 0.0, 0.0, 0.0322, 25.9, 23.55)" gradientUnits="userSpaceOnUse" id="gradient4" r="819.2" spreadMethod="pad">
      <stop offset="0.0" stop-color="#23ff5b"/>
      <stop offset="0.27450980392156865" stop-color="#3fffba"/>
      <stop offset="0.5019607843137255" stop-color="#3fafff"/>
      <stop offset="0.9058823529411765" stop-color="#0400ff"/>
      <stop offset="1.0" stop-color="#ff1305"/>
    </radialGradient>
  </defs>
</svg>
