<?xml version="1.0" encoding="UTF-8" standalone="no"?>
<svg xmlns:ffdec="https://www.free-decompiler.com/flash" xmlns:xlink="http://www.w3.org/1999/xlink" ffdec:objectType="shape" height="20.4px" width="23.45px" xmlns="http://www.w3.org/2000/svg">
  <g transform="matrix(1.0, 0.0, 0.0, 1.0, 9.3, 15.3)">
    <path d="M0.3 -13.85 Q0.3 -14.65 0.95 -14.8 5.6 -14.95 9.8 -11.55 L9.15 -11.2 4.3 -9.05 Q3.35 -8.45 3.75 -7.6 4.1 -6.75 5.25 -6.0 6.35 -5.3 6.3 -4.15 6.8 0.25 10.0 0.6 L7.45 2.55 Q6.8 3.4 7.25 3.9 6.25 4.05 5.1 3.15 L4.2 2.25 3.1 1.1 Q2.2 0.15 0.55 -0.2 1.7 -0.6 2.2 -1.95 L2.45 -3.3 2.5 -3.8 Q2.75 -7.85 -0.85 -7.5 -3.25 -6.9 -4.1 -5.15 -4.7 -6.45 -7.65 -7.7 L-7.15 -9.9 Q-6.75 -10.9 -6.2 -11.1 L-5.45 -11.3 Q-4.45 -11.55 -3.8 -10.95 L-3.6 -10.8 -2.45 -9.8 Q-2.1 -9.6 -1.9 -9.55 L-1.2 -9.5 0.0 -10.0 Q0.55 -10.45 0.5 -11.2 L0.3 -13.85 M4.65 -1.7 L2.5 -3.8 4.65 -1.7 M2.2 -13.35 L2.35 -9.55 2.2 -13.35 M7.0 3.0 L7.3 2.25 7.0 1.5 Q6.7 1.2 6.25 1.2 5.85 1.2 5.5 1.5 5.2 1.8 5.2 2.25 5.2 2.7 5.5 3.0 5.85 3.3 6.25 3.3 6.7 3.3 7.0 3.0 6.7 3.3 6.25 3.3 5.85 3.3 5.5 3.0 5.2 2.7 5.2 2.25 5.2 1.8 5.5 1.5 5.85 1.2 6.25 1.2 6.7 1.2 7.0 1.5 L7.3 2.25 7.0 3.0 M4.65 0.3 L2.2 -1.95 4.65 0.3" fill="#55738e" fill-rule="evenodd" stroke="none"/>
    <path d="M4.2 2.25 L1.9 2.45 Q-1.15 1.95 -2.75 1.0 L-3.05 -0.2 -1.55 -0.05 -1.5 -0.05 0.55 -0.2 Q2.2 0.15 3.1 1.1 L4.2 2.25 M-3.6 -10.8 L-2.1 -11.7 -2.0 -12.95 Q-0.9 -13.85 0.3 -13.85 L0.5 -11.2 Q0.55 -10.45 0.0 -10.0 L-1.2 -9.5 -1.9 -9.55 Q-2.1 -9.6 -2.45 -9.8 L-3.6 -10.8" fill="#323232" fill-rule="evenodd" stroke="none"/>
    <path d="M9.15 -11.2 L11.65 -9.7 13.3 -8.25 Q13.95 -7.2 13.45 -4.95 12.9 -2.5 11.2 0.05 L10.0 0.6 Q6.8 0.25 6.3 -4.15 6.35 -5.3 5.25 -6.0 4.1 -6.75 3.75 -7.6 3.35 -8.45 4.3 -9.05 L9.15 -11.2" fill="url(#gradient0)" fill-rule="evenodd" stroke="none"/>
    <path d="M11.2 0.05 Q12.25 -0.1 12.45 2.15 12.5 3.6 11.75 4.2 10.2 5.0 7.9 4.2 L7.25 3.9 Q6.8 3.4 7.45 2.55 L10.0 0.6 11.2 0.05 M-3.05 -0.2 Q-4.4 -0.4 -4.8 -0.8 -5.8 -2.2 -6.45 -2.5 -8.3 -3.45 -8.75 -6.4 -9.1 -8.0 -7.65 -7.7 -4.7 -6.45 -4.1 -5.15 -3.25 -6.9 -0.85 -7.5 2.75 -7.85 2.5 -3.8 L2.45 -3.3 2.2 -1.95 Q1.7 -0.6 0.55 -0.2 L-1.5 -0.05 Q-4.65 -1.65 -4.1 -5.15 -4.65 -1.65 -1.5 -0.05 L-1.55 -0.05 -3.05 -0.2 M-2.55 -4.4 Q-1.75 -5.65 -0.45 -5.7 -1.75 -5.65 -2.55 -4.4" fill="#41576c" fill-rule="evenodd" stroke="none"/>
    <path d="M0.3 -13.85 Q0.3 -14.65 0.95 -14.8 5.6 -14.95 9.8 -11.55 L9.15 -11.2 M7.25 3.9 Q6.25 4.05 5.1 3.15 L4.2 2.25 3.1 1.1 Q2.2 0.15 0.55 -0.2 M-7.65 -7.7 L-7.15 -9.9 Q-6.75 -10.9 -6.2 -11.1 L-5.45 -11.3 Q-4.45 -11.55 -3.8 -10.95 L-3.6 -10.8 -2.45 -9.8 Q-2.1 -9.6 -1.9 -9.55 L-1.2 -9.5 0.0 -10.0 Q0.55 -10.45 0.5 -11.2 L0.3 -13.85" fill="none" stroke="#1e2730" stroke-linecap="round" stroke-linejoin="round" stroke-width="1.0"/>
    <path d="M2.5 -3.8 L4.65 -1.7 M2.2 -1.95 L4.65 0.3" fill="none" stroke="#374a5d" stroke-linecap="round" stroke-linejoin="round" stroke-width="1.0"/>
    <path d="M-3.05 -0.2 Q-4.4 -0.4 -4.8 -0.8 -5.8 -2.2 -6.45 -2.5 -8.3 -3.45 -8.75 -6.4 -9.1 -8.0 -7.65 -7.7 M-3.05 -0.2 L-1.55 -0.05 -1.5 -0.05" fill="none" stroke="#151c23" stroke-linecap="round" stroke-linejoin="round" stroke-width="1.0"/>
    <path d="M9.15 -11.2 L11.65 -9.7 13.3 -8.25 Q13.95 -7.2 13.45 -4.95 12.9 -2.5 11.2 0.05" fill="none" stroke="#996e44" stroke-linecap="round" stroke-linejoin="round" stroke-width="1.0"/>
    <path d="M2.35 -9.55 L2.2 -13.35" fill="none" stroke="#36485a" stroke-linecap="round" stroke-linejoin="round" stroke-width="1.0"/>
    <path d="M11.2 0.05 Q12.25 -0.1 12.45 2.15 12.5 3.6 11.75 4.2 10.2 5.0 7.9 4.2 L7.25 3.9 Q6.8 3.4 7.45 2.55" fill="none" stroke="#161d24" stroke-linecap="round" stroke-linejoin="round" stroke-width="1.0"/>
    <path d="M7.0 3.0 Q6.7 3.3 6.25 3.3 5.85 3.3 5.5 3.0 5.2 2.7 5.2 2.25 5.2 1.8 5.5 1.5 5.85 1.2 6.25 1.2 6.7 1.2 7.0 1.5 L7.3 2.25 7.0 3.0" fill="none" stroke="#1d2630" stroke-linecap="round" stroke-linejoin="round" stroke-width="1.0"/>
    <path d="M4.2 2.25 L1.9 2.45 Q-1.15 1.95 -2.75 1.0 L-3.05 -0.2 M-3.6 -10.8 L-2.1 -11.7 -2.0 -12.95 Q-0.9 -13.85 0.3 -13.85" fill="none" stroke="#1a1a1a" stroke-linecap="round" stroke-linejoin="round" stroke-width="1.0"/>
    <path d="M-0.45 -5.7 Q-1.75 -5.65 -2.55 -4.4" fill="none" stroke="#151d24" stroke-linecap="round" stroke-linejoin="round" stroke-width="1.0"/>
    <path d="M10.0 0.6 Q6.8 0.25 6.3 -4.15 6.35 -5.3 5.25 -6.0 4.1 -6.75 3.75 -7.6 3.35 -8.45 4.3 -9.05 L9.15 -11.2 M-4.1 -5.15 Q-4.7 -6.45 -7.65 -7.7 M11.2 0.05 L10.0 0.6" fill="none" stroke="#27333f" stroke-linecap="round" stroke-linejoin="round" stroke-width="1.0"/>
    <path d="M0.55 -0.2 Q1.7 -0.6 2.2 -1.95 L2.45 -3.3 2.5 -3.8 Q2.75 -7.85 -0.85 -7.5 -3.25 -6.9 -4.1 -5.15 -4.65 -1.65 -1.5 -0.05 L0.55 -0.2" fill="none" stroke="#24303c" stroke-linecap="round" stroke-linejoin="round" stroke-width="1.0"/>
    <path d="M10.0 0.6 L7.45 2.55" fill="none" stroke="#26313c" stroke-linecap="round" stroke-linejoin="round" stroke-width="1.0"/>
  </g>
  <defs>
    <linearGradient gradientTransform="matrix(0.0025, -0.0025, 0.0049, 0.0049, 8.2, -5.0)" gradientUnits="userSpaceOnUse" id="gradient0" spreadMethod="pad" x1="-819.2" x2="819.2">
      <stop offset="0.0" stop-color="#976d42"/>
      <stop offset="1.0" stop-color="#f4b16a"/>
    </linearGradient>
  </defs>
</svg>
