<?xml version="1.0" encoding="UTF-8" standalone="no"?>
<svg xmlns:xlink="http://www.w3.org/1999/xlink" height="91.0px" width="31.0px" xmlns="http://www.w3.org/2000/svg">
  <g transform="matrix(1.0, 0.0, 0.0, 1.0, 14.75, 45.5)">
    <path d="M15.75 -32.5 L9.05 -30.0 9.05 -20.0 4.0 -15.0 4.0 15.0 9.05 20.0 9.05 30.0 15.75 32.5 15.75 45.0 -14.25 45.0 -14.25 40.0 -11.75 37.5 -4.25 30.0 -4.25 -30.0 -11.75 -37.5 -14.25 -40.0 -14.25 -45.0 15.75 -45.0 15.75 -32.5" fill="url(#gradient0)" fill-rule="evenodd" stroke="none"/>
    <path d="M15.75 32.5 L9.05 30.0 9.05 20.0 4.0 15.0 4.0 -15.0 9.05 -20.0 9.05 -30.0 15.75 -32.5 15.75 32.5" fill="url(#gradient1)" fill-rule="evenodd" stroke="none"/>
    <path d="M-11.75 -37.5 L-4.25 -30.0 -4.25 30.0 -11.75 37.5 -11.75 -37.5" fill="url(#gradient2)" fill-rule="evenodd" stroke="none"/>
    <path d="M15.75 32.5 L9.05 30.0 9.05 20.0 4.0 15.0 4.0 -15.0 9.05 -20.0 9.05 -30.0 15.75 -32.5 15.75 -45.0 -14.25 -45.0 -14.25 -40.0 -11.75 -37.5 -4.25 -30.0 -4.25 30.0 -11.75 37.5 -14.25 40.0 -14.25 45.0 15.75 45.0 15.75 32.5 15.75 -32.5 M-11.75 -37.5 L-11.75 37.5" fill="none" stroke="#000000" stroke-linecap="round" stroke-linejoin="round" stroke-width="1.0"/>
  </g>
  <defs>
    <linearGradient gradientTransform="matrix(0.0183, 0.0, 0.0, 0.0549, 0.75, 0.0)" gradientUnits="userSpaceOnUse" id="gradient0" spreadMethod="pad" x1="-819.2" x2="819.2">
      <stop offset="0.0" stop-color="#333333"/>
      <stop offset="1.0" stop-color="#515151"/>
    </linearGradient>
    <linearGradient gradientTransform="matrix(0.0183, 0.0, 0.0, 0.0549, 0.75, 0.0)" gradientUnits="userSpaceOnUse" id="gradient1" spreadMethod="pad" x1="-819.2" x2="819.2">
      <stop offset="0.0" stop-color="#444444"/>
      <stop offset="1.0" stop-color="#6f6f6f"/>
    </linearGradient>
    <linearGradient gradientTransform="matrix(0.0061, 0.0, 0.0, 0.0488, -9.25, 0.0)" gradientUnits="userSpaceOnUse" id="gradient2" spreadMethod="pad" x1="-819.2" x2="819.2">
      <stop offset="0.0" stop-color="#3c3c3c"/>
      <stop offset="1.0" stop-color="#666666"/>
    </linearGradient>
  </defs>
</svg>
