<?xml version="1.0" encoding="UTF-8" standalone="no"?>
<svg xmlns:ffdec="https://www.free-decompiler.com/flash" xmlns:xlink="http://www.w3.org/1999/xlink" ffdec:objectType="shape" height="30.1px" width="30.35px" xmlns="http://www.w3.org/2000/svg">
  <g transform="matrix(1.0, 0.0, 0.0, 1.0, 0.5, 4.1)">
    <path d="M26.1 17.85 L24.1 17.6 23.85 17.15 22.7 15.0 23.7 14.25 Q24.45 13.45 24.35 12.35 24.3 11.25 23.45 10.55 22.65 9.8 21.55 9.85 L20.8 10.05 20.65 10.1 20.35 10.1 19.15 6.9 18.9 6.3 24.85 6.05 Q27.95 7.2 29.3 9.6 29.55 13.95 27.85 18.05 L26.1 17.85" fill="url(#gradient0)" fill-rule="evenodd" stroke="none"/>
    <path d="M20.65 10.1 L20.8 10.05 21.55 9.85 Q22.65 9.8 23.45 10.55 24.3 11.25 24.35 12.35 24.45 13.45 23.7 14.25 L22.7 15.0 23.85 17.15 24.1 17.6 26.1 17.85 24.7 19.7 19.3 18.3 19.8 17.2 Q20.85 17.65 22.05 17.55 L23.85 17.15 22.05 17.55 Q20.85 17.65 19.8 17.2 L18.2 16.25 17.7 15.7 12.3 15.95 11.35 14.65 10.15 12.95 10.2 12.85 10.55 11.5 10.75 10.75 16.75 10.35 20.35 10.1 20.4 10.2 20.65 10.1 M22.7 15.0 L21.9 15.15 Q20.8 15.2 19.95 14.5 19.15 13.8 19.05 12.7 19.0 11.6 19.7 10.75 L20.4 10.2 19.7 10.75 Q19.0 11.6 19.05 12.7 19.15 13.8 19.95 14.5 20.8 15.2 21.9 15.15 L22.7 15.0 M16.75 10.35 Q16.35 11.4 16.4 12.55 16.55 14.45 17.7 15.7 16.55 14.45 16.4 12.55 16.35 11.4 16.75 10.35" fill="#191919" fill-rule="evenodd" stroke="none"/>
    <path d="M19.15 6.9 L20.35 10.1 16.75 10.35 10.75 10.75 9.45 10.8 9.95 9.65 10.7 7.9 12.45 7.55 13.9 7.35 19.15 6.9 M13.5 8.85 L11.85 8.95 13.5 8.85 M17.15 8.65 L15.5 8.75 17.15 8.65" fill="url(#gradient1)" fill-rule="evenodd" stroke="none"/>
    <path d="M10.75 10.75 L10.55 11.5 3.85 10.5 2.15 8.65 9.95 9.65 9.45 10.8 10.75 10.75" fill="url(#gradient2)" fill-rule="evenodd" stroke="none"/>
    <path d="M10.2 12.85 L10.15 12.95 11.35 14.65 2.1 14.25 0.0 12.6 10.2 12.85" fill="url(#gradient3)" fill-rule="evenodd" stroke="none"/>
    <path d="M19.8 17.2 L19.3 18.3 19.05 18.75 18.8 18.75 17.05 18.6 14.9 18.2 14.85 18.2 12.85 17.7 11.55 17.25 12.3 15.95 17.7 15.7 18.2 16.25 19.8 17.2" fill="url(#gradient4)" fill-rule="evenodd" stroke="none"/>
    <path d="M12.85 17.7 L14.85 18.2 8.9 24.8 6.3 25.15 12.85 17.7" fill="url(#gradient5)" fill-rule="evenodd" stroke="none"/>
    <path d="M17.05 18.6 L18.8 18.75 16.9 22.6 16.1 22.75 15.4 21.4 16.1 22.75 16.9 22.6 16.4 23.55 13.8 24.1 15.4 21.4 17.05 18.6" fill="url(#gradient6)" fill-rule="evenodd" stroke="none"/>
    <path d="M14.5 6.05 L14.6 5.9 Q15.5 4.55 16.35 4.25 L17.0 4.15 17.25 3.65 Q17.75 2.9 18.35 2.5 19.1 2.0 20.85 2.25 L21.75 2.5 Q22.45 2.85 22.75 3.9 L23.25 5.5 M16.9 22.6 L17.85 22.4 18.35 24.25 Q18.45 24.85 18.85 25.2 19.3 25.6 19.75 25.5 20.7 25.35 21.0 23.9 L21.15 21.45 21.0 19.0 M20.25 5.75 L19.85 5.25 18.5 4.5 17.0 4.15 Q16.25 5.6 16.5 6.65 M14.5 6.05 L13.9 7.35 M15.4 21.4 L16.1 22.75 16.9 22.6 M14.9 18.2 L15.15 20.5 15.4 21.4" fill="none" stroke="#181817" stroke-linecap="round" stroke-linejoin="round" stroke-width="1.0"/>
    <path d="M20.65 10.1 L20.8 10.05 21.55 9.85 Q22.65 9.8 23.45 10.55 24.3 11.25 24.35 12.35 24.45 13.45 23.7 14.25 L22.7 15.0 23.85 17.15 24.1 17.6 26.1 17.85 27.85 18.05 Q29.55 13.95 29.3 9.6 27.95 7.2 24.85 6.05 L18.9 6.3 19.15 6.9 20.35 10.1 16.75 10.35 10.75 10.75 9.45 10.8 9.95 9.65 10.7 7.9 12.45 7.55 13.9 7.35 19.15 6.9 M19.8 17.2 L19.3 18.3 M11.85 8.95 L13.5 8.85 M12.3 15.95 L17.7 15.7 M15.5 8.75 L17.15 8.65 M12.85 17.7 L11.55 17.25 12.3 15.95 M14.85 18.2 L14.9 18.2 17.05 18.6 18.8 18.75" fill="none" stroke="#151515" stroke-linecap="round" stroke-linejoin="round" stroke-width="1.0"/>
    <path d="M20.35 10.1 L20.65 10.1 20.4 10.2 19.7 10.75 Q19.0 11.6 19.05 12.7 19.15 13.8 19.95 14.5 20.8 15.2 21.9 15.15 L22.7 15.0 M20.35 10.1 L20.4 10.2 M23.85 17.15 L22.05 17.55 Q20.85 17.65 19.8 17.2 L18.2 16.25 17.7 15.7 Q16.55 14.45 16.4 12.55 16.35 11.4 16.75 10.35 M19.3 18.3 L24.7 19.7 26.1 17.85 M10.75 10.75 L10.55 11.5 10.2 12.85 10.15 12.95 11.35 14.65 12.3 15.95 M9.95 9.65 L2.15 8.65 3.85 10.5 10.55 11.5 M10.2 12.85 L0.0 12.6 2.1 14.25 11.35 14.65 M14.85 18.2 L12.85 17.7 6.3 25.15 8.9 24.8 14.85 18.2 M18.8 18.75 L19.05 18.75 19.3 18.3 M17.05 18.6 L15.4 21.4 13.8 24.1 16.4 23.55 16.9 22.6 18.8 18.75" fill="none" stroke="#0e0e0e" stroke-linecap="round" stroke-linejoin="round" stroke-width="1.0"/>
    <path d="M14.5 6.05 L14.95 6.65 M8.9 3.8 L12.45 7.55 M7.2 -3.6 L14.5 6.05" fill="none" stroke="#0e0e0e" stroke-linecap="round" stroke-linejoin="round" stroke-opacity="0.49803922" stroke-width="1.0"/>
  </g>
  <defs>
    <radialGradient cx="0" cy="0" gradientTransform="matrix(0.0141, 0.0, 0.0, 0.0141, 21.5, 8.9)" gradientUnits="userSpaceOnUse" id="gradient0" r="819.2" spreadMethod="pad">
      <stop offset="0.0" stop-color="#333333"/>
      <stop offset="1.0" stop-color="#1c1c1c"/>
    </radialGradient>
    <radialGradient cx="0" cy="0" gradientTransform="matrix(0.0086, 0.0, 0.0, 0.0086, 15.95, 8.1)" gradientUnits="userSpaceOnUse" id="gradient1" r="819.2" spreadMethod="pad">
      <stop offset="0.0" stop-color="#333333"/>
      <stop offset="1.0" stop-color="#1c1c1c"/>
    </radialGradient>
    <radialGradient cx="0" cy="0" gradientTransform="matrix(0.0024, 0.0, 0.0, 0.0059, 6.85, 9.8)" gradientUnits="userSpaceOnUse" id="gradient2" r="819.2" spreadMethod="pad">
      <stop offset="0.0" stop-color="#333333"/>
      <stop offset="1.0" stop-color="#191919"/>
    </radialGradient>
    <radialGradient cx="0" cy="0" gradientTransform="matrix(0.0024, 0.0, 0.0, 0.0086, 7.0, 13.6)" gradientUnits="userSpaceOnUse" id="gradient3" r="819.2" spreadMethod="pad">
      <stop offset="0.0" stop-color="#333333"/>
      <stop offset="1.0" stop-color="#191919"/>
    </radialGradient>
    <radialGradient cx="0" cy="0" gradientTransform="matrix(0.0051, 0.0, 0.0, 0.0051, 15.75, 17.35)" gradientUnits="userSpaceOnUse" id="gradient4" r="819.2" spreadMethod="pad">
      <stop offset="0.0" stop-color="#333333"/>
      <stop offset="1.0" stop-color="#1c1c1c"/>
    </radialGradient>
    <radialGradient cx="0" cy="0" gradientTransform="matrix(0.0017, -0.0017, 0.0069, 0.0067, 12.1, 19.7)" gradientUnits="userSpaceOnUse" id="gradient5" r="819.2" spreadMethod="pad">
      <stop offset="0.0" stop-color="#333333"/>
      <stop offset="1.0" stop-color="#191919"/>
    </radialGradient>
    <radialGradient cx="0" cy="0" gradientTransform="matrix(0.0011, -0.0021, 0.0045, 0.0023, 16.8, 21.2)" gradientUnits="userSpaceOnUse" id="gradient6" r="819.2" spreadMethod="pad">
      <stop offset="0.0" stop-color="#333333"/>
      <stop offset="1.0" stop-color="#191919"/>
    </radialGradient>
  </defs>
</svg>
