<?xml version="1.0" encoding="UTF-8" standalone="no"?>
<svg xmlns:ffdec="https://www.free-decompiler.com/flash" xmlns:xlink="http://www.w3.org/1999/xlink" ffdec:objectType="shape" height="34.45px" width="32.65px" xmlns="http://www.w3.org/2000/svg">
  <g transform="matrix(1.0, 0.0, 0.0, 1.0, 15.35, 5.05)">
    <path d="M-14.1 -2.6 L-13.05 -4.55 -8.2 -4.55 -7.6 -3.35 -7.6 5.9 -8.55 7.05 -9.5 7.05 -9.55 7.05 -12.35 7.2 -12.8 7.2 -14.1 4.9 -14.1 3.5 -9.75 3.5 -9.75 1.9 -14.1 1.45 -14.1 -0.25 -14.1 -0.3 -12.65 -0.15 -9.75 0.15 -9.75 -1.45 -14.1 -2.6 M-14.1 -0.25 L-12.65 -0.15 -14.1 -0.25 M0.1 9.25 L0.1 8.55 0.1 7.05 Q0.0 5.65 0.75 4.75 1.2 3.85 2.5 3.45 4.55 3.35 6.4 4.45 L7.6 5.85 7.05 6.3 7.3 7.75 7.55 9.25 6.6 10.95 Q5.45 11.75 4.65 11.8 3.0 11.95 1.95 11.15 L0.7 9.9 0.7 9.25 0.1 9.25" fill="#333333" fill-rule="evenodd" stroke="none"/>
    <path d="M-9.55 7.05 L-9.5 7.05 -8.55 7.05 -7.6 5.9 -7.6 -3.35 -2.25 -3.35 -1.75 -1.55 -1.8 -1.55 -2.4 -1.55 -2.4 0.3 -1.85 0.95 -1.9 1.65 -1.95 2.9 -3.3 7.95 -6.3 7.2 -8.05 9.25 -9.5 9.4 -9.55 7.7 -9.55 7.05 M-0.7 24.5 L-7.25 24.5 -8.6 20.15 -1.55 22.0 -1.55 23.55 -1.0 23.55 -0.7 24.5 M-6.15 -1.0 L-6.15 4.9 -4.3 4.9 -4.3 -0.1 -6.15 -1.0 M-0.9 15.05 L-2.45 15.05 -1.9 17.0 -0.65 17.0 -0.55 18.7 -1.55 18.7 -1.55 19.65 -8.6 17.95 -7.6 13.95 -3.1 13.1 -0.95 14.4 -0.9 15.05" fill="#3f3f3f" fill-rule="evenodd" stroke="none"/>
    <path d="M11.15 24.25 Q11.05 25.8 10.2 26.8 8.8 28.0 7.55 28.4 L2.35 28.55 Q0.65 27.9 -0.3 26.05 L-0.7 24.5 -1.0 23.55 0.7 23.55 2.1 24.95 8.8 24.95 11.15 24.25" fill="#171717" fill-rule="evenodd" stroke="none"/>
    <path d="M-1.75 -1.55 Q5.2 -0.65 11.85 2.35 L11.2 2.3 11.45 2.7 10.0 3.9 Q6.5 2.45 2.25 1.6 L-1.85 0.95 -2.4 0.3 -2.4 -1.55 -1.8 -1.55 -1.75 -1.55 M-3.6 9.05 L0.1 9.25 0.7 9.25 0.7 9.9 0.7 11.2 -3.65 11.2 -5.85 11.2 -5.85 9.05 -3.6 9.05 M-0.65 17.0 L-1.9 17.0 -2.45 15.05 -0.9 15.05 0.7 15.05 4.25 15.05 4.25 16.0 4.25 17.0 -0.65 17.0 M-1.55 19.65 L-1.55 18.7 -0.55 18.7 5.0 19.75 5.0 23.55 0.7 23.55 -1.0 23.55 -1.55 23.55 -1.55 22.0 -1.55 19.65" fill="#252525" fill-rule="evenodd" stroke="none"/>
    <path d="M12.8 21.4 L12.15 23.6 11.15 24.25 8.8 24.95 2.1 24.95 0.7 23.55 5.0 23.55 5.0 19.75 -0.55 18.7 -0.65 17.0 4.25 17.0 4.25 16.0 8.3 16.85 8.3 19.0 12.8 21.4 M-1.85 0.95 L2.25 1.6 2.5 3.45 Q1.2 3.85 0.75 4.75 0.0 5.65 0.1 7.05 L0.1 8.55 0.1 9.25 -3.6 9.05 -3.3 7.95 -1.95 2.9 -1.9 1.65 -1.85 0.95 M-0.9 15.05 L-0.95 14.4 -3.1 13.1 -3.65 11.2 0.7 11.2 0.7 9.9 1.95 11.15 0.7 15.05 -0.9 15.05" fill="#202020" fill-rule="evenodd" stroke="none"/>
    <path d="M2.25 1.6 Q6.5 2.45 10.0 3.9 L7.6 5.85 6.4 4.45 Q4.55 3.35 2.5 3.45 L2.25 1.6 M4.25 16.0 L4.25 15.05 0.7 15.05 1.95 11.15 Q3.0 11.95 4.65 11.8 5.45 11.75 6.6 10.95 L7.55 9.25 8.0 12.2 8.9 12.5 7.8 14.6 8.3 16.2 8.3 16.85 4.25 16.0" fill="#151515" fill-rule="evenodd" stroke="none"/>
    <path d="M-8.6 20.15 L-8.6 17.95 -1.55 19.65 -1.55 22.0 -8.6 20.15" fill="#2a2a2a" fill-rule="evenodd" stroke="none"/>
    <path d="M-8.6 17.95 L-12.95 17.95 -12.95 15.7 -12.35 15.5 -10.5 14.8 -9.5 12.75 -9.5 9.4 -8.05 9.25 -6.3 7.2 -3.3 7.95 -3.6 9.05 -5.85 9.05 -5.85 11.2 -3.65 11.2 -3.1 13.1 -7.6 13.95 -8.6 17.95" fill="#2e2e2e" fill-rule="evenodd" stroke="none"/>
    <path d="M-14.1 -2.6 L-9.75 -1.45 -9.75 0.15 -12.65 -0.15 -14.1 -0.3 -14.85 -0.3 -14.85 -1.9 -14.1 -2.6 M-14.1 1.45 L-9.75 1.9 -9.75 3.5 -14.1 3.5 -14.7 3.05 -14.7 1.45 -14.1 1.45" fill="#1e1e1e" fill-rule="evenodd" stroke="none"/>
    <path d="M-12.35 15.5 L-12.35 7.75 -9.55 7.7 -9.5 9.4 -9.5 12.75 -10.5 14.8 -12.35 15.5 M-6.15 -1.0 L-4.3 -0.1 -4.3 4.9 -6.15 4.9 -6.15 -1.0" fill="#ff3333" fill-rule="evenodd" stroke="none"/>
    <path d="M11.85 2.35 L13.95 3.1 15.0 6.75 Q15.0 9.2 14.5 11.5 L13.2 11.15 11.35 9.25 7.3 7.75 7.05 6.3 7.6 5.85 10.0 3.9 11.45 2.7 11.85 2.35" fill="url(#gradient0)" fill-rule="evenodd" stroke="none"/>
    <path d="M14.5 11.5 L14.35 12.0 13.75 13.95 13.0 13.75 8.9 12.5 8.0 12.2 7.55 9.25 7.3 7.75 11.35 9.25 13.2 11.15 14.5 11.5" fill="url(#gradient1)" fill-rule="evenodd" stroke="none"/>
    <path d="M12.9 17.95 Q13.25 19.7 12.8 21.4 L8.3 19.0 8.3 16.85 8.3 16.2 12.9 17.95" fill="url(#gradient2)" fill-rule="evenodd" stroke="none"/>
    <path d="M13.0 13.75 Q13.5 15.85 12.9 17.95 L8.3 16.2 7.8 14.6 8.9 12.5 13.0 13.75" fill="url(#gradient3)" fill-rule="evenodd" stroke="none"/>
    <path d="M-9.55 7.05 L-9.5 7.05 M11.85 2.35 L13.95 3.1 15.0 6.75 Q15.0 9.2 14.5 11.5 L14.35 12.0 13.75 13.95 13.0 13.75 Q13.5 15.85 12.9 17.95 13.25 19.7 12.8 21.4 L8.3 19.0 8.3 16.85 M-8.6 17.95 L-12.95 17.95 M10.0 3.9 L11.45 2.7 M-1.9 1.65 L-1.85 0.95 M7.6 5.85 L10.0 3.9 M7.3 7.75 L7.05 6.3 M7.55 9.25 L7.3 7.75 M8.9 12.5 L8.0 12.2 7.55 9.25 M8.3 16.2 L7.8 14.6 8.9 12.5 13.0 13.75 M12.9 17.95 L8.3 16.2" fill="none" stroke="#202020" stroke-linecap="round" stroke-linejoin="round" stroke-width="1.0"/>
    <path d="M-7.6 -3.35 L-8.2 -4.55 -13.05 -4.55 -14.1 -2.6 M-14.1 -0.25 L-14.1 1.45 M-14.1 3.5 L-14.1 4.9 M-12.8 7.2 L-12.35 7.2 M-7.6 5.9 L-7.6 -3.35 -2.25 -3.35 -1.75 -1.55 M-12.95 15.7 L-12.35 15.5 M-14.1 -0.3 L-14.1 -0.25 M-14.85 -0.3 L-14.1 -0.3 M-1.8 -1.55 L-2.4 -1.55 -2.4 0.3 -1.85 0.95" fill="none" stroke="#201e1e" stroke-linecap="round" stroke-linejoin="round" stroke-width="1.0"/>
    <path d="M-14.1 -2.6 L-9.75 -1.45 -9.75 0.15 -12.65 -0.15 -14.1 -0.25 -14.85 -0.3 -14.85 -1.9 -14.1 -2.6 M-14.1 1.45 L-9.75 1.9 -9.75 3.5 -14.1 3.5 -14.7 3.05 -14.7 1.45 -14.1 1.45 M-14.1 -0.3 L-12.65 -0.15" fill="none" stroke="#0e0d0d" stroke-linecap="round" stroke-linejoin="round" stroke-width="1.0"/>
    <path d="M-12.35 15.5 L-12.35 7.75 -9.55 7.7 -9.5 9.4 -9.5 12.75 -10.5 14.8 -12.35 15.5 M-6.15 -1.0 L-6.15 4.9 -4.3 4.9 -4.3 -0.1 -6.15 -1.0" fill="none" stroke="#580000" stroke-linecap="round" stroke-linejoin="round" stroke-width="1.0"/>
    <path d="M-1.75 -1.55 Q5.2 -0.65 11.85 2.35 L11.45 2.7 11.2 2.3 11.85 2.35 M12.8 21.4 L12.15 23.6 11.15 24.25 Q11.05 25.8 10.2 26.8 8.8 28.0 7.55 28.4 L2.35 28.55 Q0.65 27.9 -0.3 26.05 L-0.7 24.5 -1.0 23.55 M-1.75 -1.55 L-1.8 -1.55 M-1.85 0.95 L2.25 1.6 Q6.5 2.45 10.0 3.9 M-3.6 9.05 L0.1 9.25 0.7 9.25 0.7 9.9 0.7 11.2 -3.65 11.2 -5.85 11.2 -5.85 9.05 -3.6 9.05 M0.1 8.55 L0.1 7.05 Q0.0 5.65 0.75 4.75 1.2 3.85 2.5 3.45 L2.25 1.6 M-0.9 15.05 L-0.95 14.4 M-0.55 18.7 L-0.65 17.0 M2.5 3.45 Q4.55 3.35 6.4 4.45 L7.6 5.85 7.05 6.3 M7.55 9.25 L6.6 10.95 Q5.45 11.75 4.65 11.8 3.0 11.95 1.95 11.15 L0.7 15.05 M1.95 11.15 L0.7 9.9 M8.3 16.85 L8.3 16.2 M0.7 23.55 L2.1 24.95 8.8 24.95 11.15 24.25 M8.3 16.85 L4.25 16.0" fill="none" stroke="#090909" stroke-linecap="round" stroke-linejoin="round" stroke-width="1.0"/>
    <path d="M-0.7 24.5 L-7.25 24.5 -8.6 20.15 M-0.95 14.4 L-3.1 13.1 -7.6 13.95 -8.6 17.95 M7.3 7.75 L11.35 9.25 13.2 11.15 14.5 11.5" fill="none" stroke="#272727" stroke-linecap="round" stroke-linejoin="round" stroke-width="1.0"/>
    <path d="M-8.6 20.15 L-8.6 17.95 -1.55 19.65 M-3.3 7.95 L-1.95 2.9 -1.9 1.65 M-3.3 7.95 L-3.6 9.05 M-1.55 22.0 L-8.6 20.15 M-3.65 11.2 L-3.1 13.1" fill="none" stroke="#171717" stroke-linecap="round" stroke-linejoin="round" stroke-width="1.0"/>
    <path d="M-14.1 4.9 L-12.8 7.2 M-12.35 7.2 L-9.55 7.05 M-9.5 7.05 L-8.55 7.05 -7.6 5.9 M-12.95 17.95 L-12.95 15.7 M-0.65 17.0 L-1.9 17.0 -2.45 15.05 -0.9 15.05 0.7 15.05 4.25 15.05 4.25 16.0 4.25 17.0 -0.65 17.0 M-1.55 19.65 L-1.55 18.7 -0.55 18.7 5.0 19.75 5.0 23.55 0.7 23.55 -1.0 23.55 -1.55 23.55 -1.55 22.0 -1.55 19.65 Z" fill="none" stroke="#101010" stroke-linecap="round" stroke-linejoin="round" stroke-width="1.0"/>
    <path d="M7.3 7.75 L11.35 9.25 13.2 11.15 14.5 11.5" fill="none" stroke="#313131" stroke-linecap="round" stroke-linejoin="round" stroke-width="1.0"/>
    <path d="M0.7 9.9 L0.7 11.2 -5.85 11.2 -5.85 9.05 0.7 9.25" fill="none" stroke="#090909" stroke-linecap="round" stroke-linejoin="round" stroke-width="1.0"/>
    <path d="M7.05 6.3 L8.0 12.2 8.9 12.5 13.0 13.75 13.75 13.95 14.5 11.5 Q15.0 9.2 15.0 6.75 L13.95 3.1 11.85 2.35 M8.9 12.5 L7.8 14.6 8.3 16.2 12.9 17.95 Q13.5 15.85 13.0 13.75 M8.3 16.85 L8.3 19.0 12.8 21.4 Q13.25 19.7 12.9 17.95 M11.45 2.7 L7.6 5.85" fill="none" stroke="#202020" stroke-linecap="round" stroke-linejoin="round" stroke-width="1.0"/>
    <path d="M13.25 9.15 L12.75 7.9 12.75 6.7 15.85 5.35 16.8 6.05 16.8 10.45 16.45 10.45 16.3 13.2 13.2 13.2 13.25 9.15 13.7 10.45 16.45 10.45 13.7 10.45 13.25 9.15 M4.5 20.95 L4.25 20.95 4.25 17.4 5.7 17.15 5.95 17.1 8.35 17.4 Q10.45 16.7 12.0 17.4 L12.0 20.95 11.65 20.95 11.65 23.0 8.55 23.0 8.55 20.95 8.35 20.95 7.95 20.95 7.95 23.0 4.5 23.0 4.5 20.95 5.7 21.3 5.95 21.3 7.95 20.95 5.95 21.3 5.7 21.3 4.5 20.95 M12.35 20.95 Q13.45 21.45 14.85 20.5 13.45 21.45 12.35 20.95 L12.2 21.0 12.2 17.45 Q13.7 16.7 15.2 16.85 L15.2 20.45 14.85 20.5 14.85 22.5 12.35 23.0 12.35 20.95 M8.35 20.95 L8.35 17.4 8.35 20.95 M8.55 20.95 Q9.9 21.65 11.65 20.95 9.9 21.65 8.55 20.95" fill="#2a2a2a" fill-rule="evenodd" stroke="none"/>
    <path d="M13.25 9.15 L12.75 7.9 12.75 6.7 15.85 5.35 16.8 6.05 16.8 10.45 16.45 10.45 16.3 13.2 13.2 13.2 13.25 9.15 13.7 10.45 16.45 10.45 M4.5 20.95 L4.25 20.95 4.25 17.4 5.7 17.15 5.95 17.1 8.35 17.4 Q10.45 16.7 12.0 17.4 L12.0 20.95 11.65 20.95 11.65 23.0 8.55 23.0 8.55 20.95 8.35 20.95 7.95 20.95 7.95 23.0 4.5 23.0 4.5 20.95 5.7 21.3 5.95 21.3 7.95 20.95 M8.35 17.4 L8.35 20.95 M14.85 20.5 Q13.45 21.45 12.35 20.95 L12.35 23.0 14.85 22.5 14.85 20.5 15.2 20.45 15.2 16.85 Q13.7 16.7 12.2 17.45 L12.2 21.0 12.35 20.95 M11.65 20.95 Q9.9 21.65 8.55 20.95" fill="none" stroke="#1e1e1e" stroke-linecap="round" stroke-linejoin="round" stroke-width="1.0"/>
  </g>
  <defs>
    <radialGradient cx="0" cy="0" gradientTransform="matrix(0.007, 0.0, 0.0, 0.007, 16.05, 6.1)" gradientUnits="userSpaceOnUse" id="gradient0" r="819.2" spreadMethod="pad">
      <stop offset="0.0" stop-color="#4f4f4f"/>
      <stop offset="1.0" stop-color="#3c3c3c"/>
    </radialGradient>
    <radialGradient cx="0" cy="0" gradientTransform="matrix(0.0058, 0.0, 0.0, 0.0058, 13.9, 11.55)" gradientUnits="userSpaceOnUse" id="gradient1" r="819.2" spreadMethod="pad">
      <stop offset="0.0" stop-color="#4f4f4f"/>
      <stop offset="1.0" stop-color="#3c3c3c"/>
    </radialGradient>
    <radialGradient cx="0" cy="0" gradientTransform="matrix(0.0043, 0.0, 0.0, 0.0043, 12.95, 18.8)" gradientUnits="userSpaceOnUse" id="gradient2" r="819.2" spreadMethod="pad">
      <stop offset="0.0" stop-color="#4f4f4f"/>
      <stop offset="1.0" stop-color="#3c3c3c"/>
    </radialGradient>
    <radialGradient cx="0" cy="0" gradientTransform="matrix(0.0044, 0.0, 0.0, 0.0044, 13.85, 14.6)" gradientUnits="userSpaceOnUse" id="gradient3" r="819.2" spreadMethod="pad">
      <stop offset="0.0" stop-color="#4f4f4f"/>
      <stop offset="1.0" stop-color="#3c3c3c"/>
    </radialGradient>
  </defs>
</svg>
