<?xml version="1.0" encoding="UTF-8" standalone="no"?>
<svg xmlns:ffdec="https://www.free-decompiler.com/flash" xmlns:xlink="http://www.w3.org/1999/xlink" ffdec:objectType="shape" height="30.5px" width="24.0px" xmlns="http://www.w3.org/2000/svg">
  <g transform="matrix(1.0, 0.0, 0.0, 1.0, 16.25, 32.05)">
    <path d="M0.2 -31.2 L4.1 -30.2 Q6.6 -29.4 7.15 -25.9 7.7 -22.45 5.5 -20.15 L3.3 -21.2 Q5.35 -23.8 4.75 -26.2 4.4 -27.65 3.45 -28.05 L-0.55 -29.0 0.2 -31.2 M4.5 -19.05 L4.45 -19.0 3.6 -18.35 -3.3 -14.5 -3.9 -16.3 Q1.15 -18.9 2.3 -20.0 L4.5 -19.05 M-5.5 -27.8 Q-8.6 -27.1 -9.55 -27.75 -10.55 -29.7 -8.45 -30.25 L-5.5 -30.75 -1.3 -31.25 -2.0 -28.95 Q-3.8 -28.0 -5.5 -27.8" fill="#232323" fill-rule="evenodd" stroke="none"/>
    <path d="M0.2 -31.2 L-0.55 -29.0 -2.0 -28.95 -1.3 -31.25 0.2 -31.2 M3.3 -21.2 L5.5 -20.15 4.5 -19.05 2.3 -20.0 3.3 -21.2" fill="#565656" fill-rule="evenodd" stroke="none"/>
    <path d="M5.5 -20.15 Q7.7 -22.45 7.15 -25.9 6.6 -29.4 4.1 -30.2 L0.2 -31.2 -1.3 -31.25 -5.5 -30.75 -8.45 -30.25 M-0.55 -29.0 L3.45 -28.05 Q4.4 -27.65 4.75 -26.2 5.35 -23.8 3.3 -21.2 L5.5 -20.15 4.5 -19.05 4.45 -19.0 3.6 -18.35 -3.3 -14.5 -3.9 -16.3 Q1.15 -18.9 2.3 -20.0 L3.3 -21.2 M-2.0 -28.95 L-0.55 -29.0 M-5.5 -27.8 Q-3.8 -28.0 -2.0 -28.95 L-1.3 -31.25" fill="none" stroke="#0b0b0b" stroke-linecap="round" stroke-linejoin="round" stroke-width="1.0"/>
    <path d="M-13.3 -21.25 Q-13.8 -23.8 -12.35 -26.1 L-10.4 -29.0 -8.95 -30.3 Q-8.2 -31.05 -6.6 -30.95 -4.7 -30.8 -3.1 -28.45 -4.4 -29.55 -4.55 -29.5 -7.15 -28.2 -8.6 -26.7 -10.85 -24.5 -10.95 -22.45 L-11.05 -21.75 -11.9 -20.2 Q-12.4 -20.05 -13.3 -21.25 -12.4 -20.05 -11.9 -20.2 L-11.05 -21.75 -10.95 -22.45 Q-10.85 -24.5 -8.6 -26.7 -7.15 -28.2 -4.55 -29.5 -4.4 -29.55 -3.1 -28.45 L-3.0 -26.1 -3.0 -25.5 -3.35 -23.0 Q-4.15 -23.6 -4.9 -23.8 L-6.85 -18.3 -9.55 -18.3 -7.05 -23.5 Q-8.9 -23.35 -10.15 -21.75 -11.65 -19.95 -11.9 -19.9 L-12.15 -16.55 -13.6 -16.9 -13.6 -18.45 -13.3 -21.25 M-3.0 -13.6 L-3.0 -12.65 -2.75 -10.75 -2.8 -10.75 -2.75 -10.5 -2.65 -8.1 -3.0 -7.5 -3.55 -6.9 Q-6.05 -5.55 -8.55 -6.9 L-9.8 -7.8 -9.85 -8.7 -10.2 -14.65 -3.0 -13.6 M-3.0 -25.5 L-4.25 -25.7 -6.7 -26.25 -8.6 -26.7 -6.7 -26.25 -4.25 -25.7 -3.0 -25.5 M-4.25 -25.7 L-4.9 -23.8 -4.25 -25.7 M-11.9 -19.9 L-11.9 -20.2 -11.9 -19.9 M-6.7 -26.25 Q-6.35 -24.8 -7.05 -23.5 -6.35 -24.8 -6.7 -26.25" fill="#171717" fill-rule="evenodd" stroke="none"/>
    <path d="M-3.35 -23.0 L-4.1 -18.3 -6.85 -18.3 -4.9 -23.8 Q-4.15 -23.6 -3.35 -23.0" fill="url(#gradient0)" fill-rule="evenodd" stroke="none"/>
    <path d="M-4.1 -18.3 L-3.35 -18.2 -3.1 -15.3 -10.25 -15.35 -10.45 -17.65 -9.55 -18.3 -6.85 -18.3 -4.1 -18.3" fill="url(#gradient1)" fill-rule="evenodd" stroke="none"/>
    <path d="M-3.1 -15.3 L-3.0 -13.6 -10.2 -14.65 -10.25 -15.35 -3.1 -15.3" fill="url(#gradient2)" fill-rule="evenodd" stroke="none"/>
    <path d="M-3.0 -12.65 L-2.8 -12.65 -2.75 -10.75 -3.0 -12.65" fill="#202020" fill-rule="evenodd" stroke="none"/>
    <path d="M-9.85 -8.7 L-10.85 -8.8 -11.3 -9.2 Q-11.2 -11.9 -11.75 -15.0 L-11.85 -15.4 -12.15 -16.55 -11.9 -19.9 Q-11.65 -19.95 -10.15 -21.75 -8.9 -23.35 -7.05 -23.5 L-9.55 -18.3 -10.45 -17.65 -10.25 -15.35 -10.2 -14.65 -9.85 -8.7" fill="url(#gradient3)" fill-rule="evenodd" stroke="none"/>
    <path d="M-3.1 -28.45 Q-4.7 -30.8 -6.6 -30.95 -8.2 -31.05 -8.95 -30.3 L-10.4 -29.0 -12.35 -26.1 Q-13.8 -23.8 -13.3 -21.25 -12.4 -20.05 -11.9 -20.2 L-11.05 -21.75 -10.95 -22.45 Q-10.85 -24.5 -8.6 -26.7 -7.15 -28.2 -4.55 -29.5 -4.4 -29.55 -3.1 -28.45 L-3.0 -26.1 -3.0 -25.5 -3.35 -23.0 -4.1 -18.3 -3.35 -18.2 -3.1 -15.3 -3.0 -13.6 -3.0 -12.65 -2.75 -10.75 -2.75 -10.5 -2.65 -8.1 -3.0 -7.5 -3.55 -6.9 Q-6.05 -5.55 -8.55 -6.9 L-9.8 -7.8 -9.85 -8.7 -10.85 -8.8 -11.3 -9.2 M-13.6 -16.9 L-13.6 -18.45 -13.3 -21.25 M-8.6 -26.7 L-6.7 -26.25 -4.25 -25.7 -3.0 -25.5 M-6.85 -18.3 L-9.55 -18.3 -10.45 -17.65 -10.25 -15.35 -3.1 -15.3 M-4.1 -18.3 L-6.85 -18.3 -4.9 -23.8 -4.25 -25.7 M-9.55 -18.3 L-7.05 -23.5 Q-6.35 -24.8 -6.7 -26.25 M-11.9 -19.9 L-12.15 -16.55 M-11.9 -20.2 L-11.9 -19.9 M-10.25 -15.35 L-10.2 -14.65 -9.85 -8.7 M-2.8 -10.75 L-2.75 -10.5" fill="none" stroke="#070707" stroke-linecap="round" stroke-linejoin="round" stroke-width="1.0"/>
    <path d="M-10.8 -15.4 L-10.65 -15.0 Q-10.15 -11.9 -10.25 -9.2 L-13.2 -8.1 Q-14.35 -8.55 -14.9 -10.1 L-15.1 -11.65 Q-15.3 -13.6 -14.9 -15.85 -13.85 -17.0 -12.55 -16.9 L-11.05 -16.55 -10.8 -15.4 Q-12.35 -13.6 -14.6 -13.85 -12.35 -13.6 -10.8 -15.4" fill="url(#gradient4)" fill-rule="evenodd" stroke="none"/>
    <path d="M-10.8 -15.4 L-10.65 -15.0 Q-10.15 -11.9 -10.25 -9.2 L-13.2 -8.1 Q-14.35 -8.55 -14.9 -10.1 L-15.1 -11.65 Q-15.3 -13.6 -14.9 -15.85 -13.85 -17.0 -12.55 -16.9 L-11.05 -16.55 -10.8 -15.4 Q-12.35 -13.6 -14.6 -13.85" fill="none" stroke="#070707" stroke-linecap="round" stroke-linejoin="round" stroke-width="1.0"/>
    <path d="M-15.75 -12.65 L-15.75 -10.75" fill="none" stroke="url(#gradient5)" stroke-linecap="round" stroke-linejoin="round" stroke-width="1.0"/>
    <path d="M-8.15 -20.15 L-8.85 -20.45 Q-9.15 -21.85 -8.5 -23.0 L-2.65 -23.2 -2.9 -21.1 -3.65 -20.4 -6.15 -20.3 -8.15 -20.15 M-6.05 -20.95 L-6.15 -20.3 -6.05 -20.95" fill="#171717" fill-rule="evenodd" stroke="none"/>
    <path d="M-8.15 -20.15 L-6.15 -20.3 -6.25 -19.6 -6.15 -20.3 -3.65 -20.4 -3.95 -17.95 Q-4.45 -16.55 -5.95 -16.6 -7.25 -16.5 -8.15 -17.2 -8.9 -18.9 -8.15 -20.15" fill="url(#gradient6)" fill-rule="evenodd" stroke="none"/>
    <path d="M-3.65 -20.4 L-2.9 -21.1 -2.65 -23.2 -8.5 -23.0 Q-9.15 -21.85 -8.85 -20.45 L-8.15 -20.15 -6.15 -20.3 -3.65 -20.4 -3.95 -17.95 Q-4.45 -16.55 -5.95 -16.6 -7.25 -16.5 -8.15 -17.2 -8.9 -18.9 -8.15 -20.15" fill="none" stroke="#000000" stroke-linecap="round" stroke-linejoin="round" stroke-width="1.0"/>
    <path d="M-6.15 -20.3 L-6.05 -20.95 M-6.15 -20.3 L-6.25 -19.6" fill="none" stroke="url(#gradient7)" stroke-linecap="round" stroke-linejoin="round" stroke-width="1.0"/>
    <path d="M1.5 -20.0 L3.35 -21.8 5.5 -19.65 3.65 -17.85 1.5 -20.0" fill="#333333" fill-rule="evenodd" stroke="none"/>
    <path d="M1.5 -20.0 L3.65 -17.85 5.5 -19.65 3.35 -21.8 1.5 -20.0 Z" fill="none" stroke="#000000" stroke-linecap="round" stroke-linejoin="round" stroke-width="1.0"/>
    <path d="M-2.4 -31.5 L0.2 -31.55 0.2 -28.5 -2.4 -28.5 -2.4 -31.5" fill="#333333" fill-rule="evenodd" stroke="none"/>
    <path d="M-2.4 -31.5 L-2.4 -28.5 0.2 -28.5 0.2 -31.55 -2.4 -31.5 Z" fill="none" stroke="#000000" stroke-linecap="round" stroke-linejoin="round" stroke-width="1.0"/>
    <path d="M2.8 -9.35 L2.8 -10.3 4.6 -10.5 6.0 -10.45 6.8 -10.3 7.2 -7.35 Q7.4 -4.9 6.8 -2.45 4.95 -1.65 2.8 -2.45 L2.8 -6.1 2.8 -7.35 2.8 -6.1 2.8 -2.45 Q-2.35 -1.65 -6.6 -4.2 L-6.6 -5.85 -6.6 -8.6 -5.2 -8.95 -4.0 -9.15 -2.75 -9.3 -1.9 -9.35 0.85 -9.5 2.8 -9.35 2.8 -7.35 5.0 -7.35 2.8 -7.35 2.8 -9.35 M5.0 -6.45 L5.0 -7.35 5.0 -8.2 5.0 -7.35 5.0 -6.45 M-3.3 -5.85 L-6.6 -5.85 -3.3 -5.85 -3.3 -6.75 -3.3 -5.85 -0.3 -5.95 -3.3 -5.85 -3.3 -4.65 -3.3 -5.85 M5.0 -7.35 L7.2 -7.35 5.0 -7.35 M-0.3 -5.95 L-0.3 -6.9 -0.3 -5.95 -0.3 -4.6 -0.3 -5.95 2.8 -6.1 -0.3 -5.95" fill="#232323" fill-rule="evenodd" stroke="none"/>
    <path d="M7.2 -7.35 L6.8 -10.3 6.0 -10.45 4.6 -10.5 2.8 -10.3 2.8 -9.35 2.8 -7.35 5.0 -7.35 7.2 -7.35 Q7.4 -4.9 6.8 -2.45 4.95 -1.65 2.8 -2.45 L2.8 -6.1 2.8 -7.35 M2.8 -9.35 L0.85 -9.5 -1.9 -9.35 -2.75 -9.3 -4.0 -9.15 -5.2 -8.95 -6.6 -8.6 -6.6 -5.85 -3.3 -5.85 -0.3 -5.95 2.8 -6.1 M-6.6 -5.85 L-6.6 -4.2 Q-2.35 -1.65 2.8 -2.45" fill="none" stroke="#000000" stroke-linecap="round" stroke-linejoin="round" stroke-width="1.0"/>
    <path d="M5.0 -7.35 L5.0 -8.2 M5.0 -7.35 L5.0 -6.45 M-3.3 -5.85 L-3.3 -6.75 M-3.3 -5.85 L-3.3 -4.65 M-0.3 -5.95 L-0.3 -4.6 M-0.3 -6.9 L-0.3 -5.95" fill="none" stroke="#333333" stroke-linecap="round" stroke-linejoin="round" stroke-width="1.0"/>
  </g>
  <defs>
    <radialGradient cx="0" cy="0" gradientTransform="matrix(0.0145, 0.0, 0.0, 0.0145, -7.4, -12.25)" gradientUnits="userSpaceOnUse" id="gradient0" r="819.2" spreadMethod="pad">
      <stop offset="0.0" stop-color="#333333"/>
      <stop offset="0.0" stop-color="#333333"/>
      <stop offset="0.5098039215686274" stop-color="#191919"/>
      <stop offset="1.0" stop-color="#333333"/>
    </radialGradient>
    <radialGradient cx="0" cy="0" gradientTransform="matrix(0.0146, 0.0, 0.0, 0.0139, -6.55, -7.35)" gradientUnits="userSpaceOnUse" id="gradient1" r="819.2" spreadMethod="pad">
      <stop offset="0.0" stop-color="#333333"/>
      <stop offset="0.0" stop-color="#333333"/>
      <stop offset="0.5098039215686274" stop-color="#191919"/>
      <stop offset="1.0" stop-color="#333333"/>
    </radialGradient>
    <radialGradient cx="0" cy="0" gradientTransform="matrix(0.0197, 0.0, 0.0, 0.0197, 5.3, -19.1)" gradientUnits="userSpaceOnUse" id="gradient2" r="819.2" spreadMethod="pad">
      <stop offset="0.0" stop-color="#333333"/>
      <stop offset="0.0" stop-color="#333333"/>
      <stop offset="0.5098039215686274" stop-color="#191919"/>
      <stop offset="1.0" stop-color="#333333"/>
    </radialGradient>
    <radialGradient cx="0" cy="0" gradientTransform="matrix(0.0145, 0.0, 0.0, 0.0145, -11.1, -20.55)" gradientUnits="userSpaceOnUse" id="gradient3" r="819.2" spreadMethod="pad">
      <stop offset="0.0" stop-color="#333333"/>
      <stop offset="0.0" stop-color="#333333"/>
      <stop offset="0.5098039215686274" stop-color="#191919"/>
      <stop offset="1.0" stop-color="#333333"/>
    </radialGradient>
    <radialGradient cx="0" cy="0" gradientTransform="matrix(0.0188, 0.0, 0.0, 0.0188, -24.1, -8.5)" gradientUnits="userSpaceOnUse" id="gradient4" r="819.2" spreadMethod="pad">
      <stop offset="0.0" stop-color="#333333"/>
      <stop offset="0.0" stop-color="#333333"/>
      <stop offset="0.5098039215686274" stop-color="#191919"/>
      <stop offset="1.0" stop-color="#333333"/>
    </radialGradient>
    <radialGradient cx="0" cy="0" gradientTransform="matrix(0.0018, 0.0, 0.0, 0.0018, -15.75, -11.7)" gradientUnits="userSpaceOnUse" id="gradient5" r="819.2" spreadMethod="pad">
      <stop offset="0.0" stop-color="#333333"/>
      <stop offset="1.0" stop-color="#000000"/>
    </radialGradient>
    <radialGradient cx="0" cy="0" gradientTransform="matrix(0.0171, 0.0, 0.0, 0.0171, -9.15, -7.55)" gradientUnits="userSpaceOnUse" id="gradient6" r="819.2" spreadMethod="pad">
      <stop offset="0.0" stop-color="#333333"/>
      <stop offset="0.0" stop-color="#333333"/>
      <stop offset="0.5098039215686274" stop-color="#191919"/>
      <stop offset="1.0" stop-color="#333333"/>
    </radialGradient>
    <radialGradient cx="0" cy="0" gradientTransform="matrix(0.0062, 0.0, 0.0, 0.0062, -5.8, -20.05)" gradientUnits="userSpaceOnUse" id="gradient7" r="819.2" spreadMethod="pad">
      <stop offset="0.0" stop-color="#333333"/>
      <stop offset="1.0" stop-color="#000000"/>
    </radialGradient>
  </defs>
</svg>
