<?xml version="1.0" encoding="UTF-8" standalone="no"?>
<svg xmlns:ffdec="https://www.free-decompiler.com/flash" xmlns:xlink="http://www.w3.org/1999/xlink" ffdec:objectType="shape" height="31.35px" width="7.4px" xmlns="http://www.w3.org/2000/svg">
  <g transform="matrix(1.0, 0.0, 0.0, 1.0, -2.1, 4.1)">
    <path d="M2.6 -2.85 Q3.6 -2.85 4.1 -3.35 L4.35 -3.6 4.6 -3.35 4.85 -2.6 5.25 -2.4 5.6 -2.35 6.15 -2.6 6.75 -2.75 7.1 -2.35 8.1 -0.75 M5.35 25.25 L5.75 26.5 5.75 26.75 6.0 26.6 6.85 25.85 Q6.85 25.6 7.1 25.6 7.5 25.6 7.5 26.1 L7.85 25.75 8.3 25.8 8.6 25.85 8.75 25.75 9.0 24.85" fill="none" stroke="#ff0000" stroke-linecap="round" stroke-linejoin="round" stroke-width="1.0"/>
  </g>
</svg>
