<?xml version="1.0" encoding="UTF-8" standalone="no"?>
<svg xmlns:xlink="http://www.w3.org/1999/xlink" height="13.2px" width="42.15px" xmlns="http://www.w3.org/2000/svg">
  <g transform="matrix(1.0, 0.0, 0.0, 1.0, 9.65, 5.6)">
    <path d="M4.85 -3.2 L7.7 -2.7 Q10.2 -2.55 9.05 -3.85 L5.2 -4.15 Q4.6 -3.75 4.85 -3.2 M8.0 -1.05 L4.7 -1.2 3.9 -0.4 2.05 -0.4 3.9 -0.4 4.7 -1.2 8.0 -1.05 M10.25 -3.6 L10.25 -2.8 10.7 -2.65 11.3 -2.55 13.1 -2.7 17.15 -2.8 Q20.45 -2.75 21.15 -3.75 L21.5 -4.5 Q21.75 -4.8 22.35 -4.8 L22.85 -4.65 23.0 -4.5 23.05 -1.8 26.05 -1.65 28.45 -1.75 31.95 -1.7 32.0 -1.35 31.8 -0.9 31.65 -0.6 28.8 -0.65 24.4 -0.8 18.75 -0.1 12.2 0.55 Q11.75 0.2 11.3 0.2 10.55 0.2 10.55 1.75 L10.8 3.45 7.85 4.5 7.25 3.1 4.25 3.1 Q2.8 4.25 2.5 5.9 2.25 7.1 1.75 7.1 0.6 7.1 -0.2 6.5 L-1.0 5.6 1.2 3.4 Q2.05 2.25 2.05 1.65 2.05 1.0 1.55 0.45 L0.55 -0.3 Q-0.05 -0.3 -0.55 0.15 L-1.0 0.7 -0.9 1.35 -0.85 1.75 -0.9 1.75 -4.85 2.8 -5.0 1.95 -6.2 3.5 -6.7 3.4 -6.2 3.85 Q-6.7 4.15 -7.3 4.3 L-8.3 4.45 Q-8.65 4.45 -8.95 1.85 L-9.15 -1.3 Q-9.15 -2.25 -8.2 -2.25 L-0.05 -2.15 -0.05 -1.95 0.75 -2.1 1.7 -2.45 2.35 -4.15 Q3.1 -5.1 3.75 -5.1 L8.15 -4.75 Q10.25 -4.35 10.25 -3.6 M11.9 -0.75 L11.1 -1.95 11.9 -0.75 M21.35 -3.25 L21.15 -2.75 21.35 -2.2 21.7 -1.95 Q21.95 -1.95 22.1 -2.2 L22.25 -2.75 22.1 -3.25 21.7 -3.5 21.35 -3.25 M31.5 -1.4 L31.0 -1.4 31.0 -1.2 31.5 -1.2 31.5 -1.4 M7.05 1.3 L6.7 1.3 5.85 2.05 5.65 2.4 Q5.45 2.3 5.45 1.6 L5.05 1.3 4.7 1.7 Q4.75 2.2 4.95 2.55 L6.8 2.75 Q7.1 2.3 7.05 1.3 M-5.95 0.3 L-6.75 0.3 -6.75 0.55 -5.95 0.55 -5.95 0.3 M-1.3 -1.05 L-8.15 -1.05 -1.3 -1.05" fill="#1d1f1f" fill-rule="evenodd" stroke="none"/>
    <path d="M4.85 -3.2 L7.7 -2.7 Q10.2 -2.55 9.05 -3.85 L5.2 -4.15 Q4.6 -3.75 4.85 -3.2 M2.05 -0.4 L3.9 -0.4 4.7 -1.2 8.0 -1.05 M10.25 -3.6 Q10.25 -4.35 8.15 -4.75 L3.75 -5.1 Q3.1 -5.1 2.35 -4.15 L1.7 -2.45 0.75 -2.1 -0.05 -1.95 -0.05 -2.15 -8.2 -2.25 Q-9.15 -2.25 -9.15 -1.3 L-8.95 1.85 Q-8.65 4.45 -8.3 4.45 L-7.3 4.3 Q-6.7 4.15 -6.2 3.85 L-6.7 3.4 -6.2 3.5 -5.0 1.95 -4.85 2.8 -0.9 1.75 -0.85 1.75 -0.9 1.35 -1.0 0.7 -0.55 0.15 Q-0.05 -0.3 0.55 -0.3 L1.55 0.45 Q2.05 1.0 2.05 1.65 2.05 2.25 1.2 3.4 L-1.0 5.6 -0.2 6.5 Q0.6 7.1 1.75 7.1 2.25 7.1 2.5 5.9 2.8 4.25 4.25 3.1 L7.25 3.1 7.85 4.5 10.8 3.45 10.55 1.75 Q10.55 0.2 11.3 0.2 11.75 0.2 12.2 0.55 L18.75 -0.1 24.4 -0.8 28.8 -0.65 31.65 -0.6 31.8 -0.9 32.0 -1.35 31.95 -1.7 28.45 -1.75 26.05 -1.65 23.05 -1.8 23.0 -4.5 22.85 -4.65 22.35 -4.8 Q21.75 -4.8 21.5 -4.5 L21.15 -3.75 Q20.45 -2.75 17.15 -2.8 L13.1 -2.7 11.3 -2.55 10.7 -2.65 10.25 -2.8 10.25 -3.6 M11.1 -1.95 L11.9 -0.75 M21.35 -3.25 L21.15 -2.75 21.35 -2.2 21.7 -1.95 Q21.95 -1.95 22.1 -2.2 L22.25 -2.75 22.1 -3.25 21.7 -3.5 21.35 -3.25 M31.5 -1.4 L31.5 -1.2 31.0 -1.2 31.0 -1.4 31.5 -1.4 M7.05 1.3 L6.7 1.3 5.85 2.05 5.65 2.4 Q5.45 2.3 5.45 1.6 L5.05 1.3 4.7 1.7 Q4.75 2.2 4.95 2.55 L6.8 2.75 Q7.1 2.3 7.05 1.3 M-5.95 0.3 L-5.95 0.55 -6.75 0.55 -6.75 0.3 -5.95 0.3 M-8.15 -1.05 L-1.3 -1.05" fill="none" stroke="#0d0d0d" stroke-linecap="round" stroke-linejoin="round" stroke-width="1.0"/>
  </g>
</svg>
