<?xml version="1.0" encoding="UTF-8" standalone="no"?>
<svg xmlns:ffdec="https://www.free-decompiler.com/flash" xmlns:xlink="http://www.w3.org/1999/xlink" ffdec:objectType="shape" height="20.3px" width="20.8px" xmlns="http://www.w3.org/2000/svg">
  <g transform="matrix(1.0, 0.0, 0.0, 1.0, 10.65, 17.65)">
    <path d="M8.25 -12.55 L2.1 -12.75 -0.95 -16.4 3.0 -16.0 Q5.05 -15.5 8.25 -12.55 M-3.85 -15.45 L-2.55 -14.25 -2.9 -12.95 -4.05 -11.55 -6.95 -10.4 Q-6.9 -11.1 -7.95 -13.25 L-7.95 -14.75 -3.85 -15.45 M9.65 -3.9 Q9.7 -1.1 8.8 0.9 L5.75 -1.7 6.35 -4.15 9.65 -3.9 M-3.15 -1.25 L-4.65 -2.7 -5.4 -3.65 Q-6.6 -5.7 -6.75 -7.3 L-6.8 -7.7 -3.75 -7.9 -0.1 -4.1 2.6 -3.9 2.6 -0.55 Q-0.35 0.05 -3.15 -1.25 M-0.8 -2.8 L-3.65 -5.15 -0.8 -2.8" fill="#af9558" fill-rule="evenodd" stroke="none"/>
    <path d="M-6.55 -3.95 L-8.75 -4.55 -10.15 -9.55 -7.95 -13.25 Q-6.9 -11.1 -6.95 -10.4 L-6.8 -7.7 -6.75 -7.3 Q-6.6 -5.7 -5.4 -3.65 L-6.55 -3.95 M-8.3 -7.85 L-8.4 -8.85 -8.3 -7.85 M-7.85 -5.55 L-8.05 -6.7 -7.85 -5.55" fill="#aa974d" fill-rule="evenodd" stroke="none"/>
    <path d="M-2.9 -12.95 L-0.75 -11.4 -1.3 -9.2 Q-0.4 -8.1 1.25 -7.25 L2.05 -6.9 Q4.65 -5.9 8.05 -6.05 L9.45 -6.05 9.65 -3.9 6.35 -4.15 5.75 -1.7 8.8 0.9 Q8.35 1.8 7.0 2.15 L2.6 -0.55 2.6 -3.9 -0.1 -4.1 -3.75 -7.9 -6.8 -7.7 -6.95 -10.4 -4.05 -11.55 -2.9 -12.95" fill="#e1cb73" fill-rule="evenodd" stroke="none"/>
    <path d="M2.6 -0.55 L3.0 0.6 Q0.3 3.35 -3.15 0.55 L-3.15 -1.25 Q-0.35 0.05 2.6 -0.55 M-4.65 -2.7 L-5.65 -1.3 -7.1 -2.15 -6.55 -3.95 -5.4 -3.65 -4.65 -2.7" fill="#7e6a3d" fill-rule="evenodd" stroke="none"/>
    <path d="M-0.95 -16.4 L2.1 -12.75 8.25 -12.55 Q8.95 -11.2 7.8 -10.6 0.65 -11.35 -1.3 -9.2 L-0.75 -11.4 -2.9 -12.95 -2.55 -14.25 -3.85 -15.45 -2.25 -17.15 -0.95 -16.4" fill="#fce381" fill-rule="evenodd" stroke="none"/>
    <path d="M-1.3 -9.2 Q0.65 -11.35 7.8 -10.6 7.5 -9.7 7.55 -8.3 7.6 -6.85 8.05 -6.05 4.65 -5.9 2.05 -6.9 L1.25 -7.25 Q-0.4 -8.1 -1.3 -9.2" fill="url(#gradient0)" fill-rule="evenodd" stroke="none"/>
    <path d="M-0.95 -16.4 L2.1 -12.75 8.25 -12.55 Q5.05 -15.5 3.0 -16.0 L-0.95 -16.4 -2.25 -17.15 -3.85 -15.45 -2.55 -14.25 -2.9 -12.95 M7.8 -10.6 Q8.95 -11.2 8.25 -12.55 M8.05 -6.05 L9.45 -6.05 9.65 -3.9 Q9.7 -1.1 8.8 0.9 8.35 1.8 7.0 2.15 L2.6 -0.55 3.0 0.6 Q0.3 3.35 -3.15 0.55 L-3.15 -1.25 -4.65 -2.7 -5.65 -1.3 -7.1 -2.15 -6.55 -3.95 -8.75 -4.55 -10.15 -9.55 -7.95 -13.25 -7.95 -14.75 -3.85 -15.45 M2.6 -0.55 L2.6 -3.9 -0.1 -4.1 -3.75 -7.9 -6.8 -7.7 -6.75 -7.3 Q-6.6 -5.7 -5.4 -3.65 L-4.65 -2.7 M-8.4 -8.85 L-8.3 -7.85 M-6.55 -3.95 L-5.4 -3.65 M-8.05 -6.7 L-7.85 -5.55 M-3.15 -1.25 Q-0.35 0.05 2.6 -0.55" fill="none" stroke="#504630" stroke-linecap="round" stroke-linejoin="round" stroke-width="1.0"/>
    <path d="M-2.9 -12.95 L-0.75 -11.4 -1.3 -9.2 M8.8 0.9 L5.75 -1.7 6.35 -4.15 9.65 -3.9 M-6.95 -10.4 L-6.8 -7.7 M-3.65 -5.15 L-0.8 -2.8 M-2.9 -12.95 L-4.05 -11.55 -6.95 -10.4 Q-6.9 -11.1 -7.95 -13.25" fill="none" stroke="#80704d" stroke-linecap="round" stroke-linejoin="round" stroke-width="1.0"/>
    <path d="M-1.3 -9.2 Q0.65 -11.35 7.8 -10.6 7.5 -9.7 7.55 -8.3 7.6 -6.85 8.05 -6.05 4.65 -5.9 2.05 -6.9 L1.25 -7.25 Q-0.4 -8.1 -1.3 -9.2 Z" fill="none" stroke="#15390e" stroke-linecap="round" stroke-linejoin="round" stroke-width="1.0"/>
  </g>
  <defs>
    <linearGradient gradientTransform="matrix(0.0057, 0.0, 0.0, 0.0029, 3.35, -8.45)" gradientUnits="userSpaceOnUse" id="gradient0" spreadMethod="pad" x1="-819.2" x2="819.2">
      <stop offset="0.0" stop-color="#2d5f1a"/>
      <stop offset="1.0" stop-color="#3a7822"/>
    </linearGradient>
  </defs>
</svg>
