<?xml version="1.0" encoding="UTF-8" standalone="no"?>
<svg xmlns:ffdec="https://www.free-decompiler.com/flash" xmlns:xlink="http://www.w3.org/1999/xlink" ffdec:objectType="shape" height="37.6px" width="33.2px" xmlns="http://www.w3.org/2000/svg">
  <g transform="matrix(1.0, 0.0, 0.0, 1.0, 5.65, 8.55)">
    <path d="M8.9 24.4 L19.9 25.45 Q20.05 26.65 19.2 27.5 18.3 28.35 17.55 28.5 L14.2 28.55 12.25 28.55 Q8.8 27.85 8.2 24.4 L8.9 24.4" fill="#464437" fill-rule="evenodd" stroke="none"/>
    <path d="M17.5 12.2 L10.8 12.15 10.4 11.15 10.25 9.55 Q9.95 7.0 12.6 5.15 15.55 4.85 16.4 5.8 17.3 6.4 17.5 7.9 L17.5 12.2" fill="#333333" fill-rule="evenodd" stroke="none"/>
    <path d="M22.4 6.9 L20.85 7.2 19.15 5.8 21.75 5.8 19.15 5.8 Q18.5 4.35 17.0 3.05 L19.1 3.3 21.75 5.8 22.4 6.9" fill="#272727" fill-rule="evenodd" stroke="none"/>
    <path d="M20.85 7.2 L22.4 6.9 24.35 8.85 24.7 11.65 24.9 14.4 24.95 17.35 24.35 18.9 23.4 18.9 Q22.7 22.35 20.95 25.5 L19.9 25.45 18.85 25.35 17.85 25.3 17.9 20.5 16.5 20.5 16.5 18.15 Q17.9 15.6 18.9 15.9 L18.9 13.25 17.5 12.2 17.5 10.05 17.5 7.9 20.85 7.2 M24.95 17.35 L22.2 17.35 20.2 15.1 20.2 11.6 17.5 10.05 20.2 11.6 20.2 15.1 22.2 17.35 24.95 17.35 M23.4 18.9 L21.8 18.9 18.9 15.9 21.8 18.9 23.4 18.9 M21.8 18.9 Q21.25 22.0 18.85 25.35 21.25 22.0 21.8 18.9" fill="#252525" fill-rule="evenodd" stroke="none"/>
    <path d="M8.2 24.4 L7.5 24.4 7.5 22.2 7.6 22.2 7.6 20.7 7.5 20.7 7.5 20.55 6.7 18.15 6.55 16.05 13.25 16.05 14.0 15.25 16.5 15.25 16.5 18.15 16.5 20.5 17.9 20.5 17.85 25.3 8.9 24.4 8.2 24.4 M6.7 18.15 L11.05 18.15 11.05 20.5 8.9 20.5 8.9 24.4 8.9 20.5 11.05 20.5 11.05 18.15 6.7 18.15 M16.5 20.5 L11.05 20.5 16.5 20.5 M11.05 18.15 L16.5 18.15 11.05 18.15" fill="#191919" fill-rule="evenodd" stroke="none"/>
    <path d="M20.85 7.2 L17.5 7.9 Q17.3 6.4 16.4 5.8 L19.15 5.8 20.85 7.2 M6.55 16.05 L6.75 13.9 6.75 11.15 6.8 11.15 6.95 9.55 Q7.45 6.75 8.9 4.55 10.15 3.4 11.65 2.7 L15.25 2.4 17.0 3.05 Q18.5 4.35 19.15 5.8 L16.4 5.8 Q15.55 4.85 12.6 5.15 9.95 7.0 10.25 9.55 L10.4 11.15 10.8 12.15 17.5 12.2 18.9 13.25 18.9 15.9 Q17.9 15.6 16.5 18.15 L16.5 15.25 14.0 15.25 13.25 16.05 6.55 16.05 M8.9 4.55 L12.6 5.15 8.9 4.55 M10.8 12.15 L9.4 12.15 8.6 13.15 6.75 13.9 8.6 13.15 9.4 12.15 10.8 12.15" fill="#151515" fill-rule="evenodd" stroke="none"/>
    <path d="M19.9 25.45 Q20.05 26.65 19.2 27.5 18.3 28.35 17.55 28.5 L14.2 28.55 12.25 28.55 Q8.8 27.85 8.2 24.4 L8.9 24.4 17.85 25.3 18.85 25.35 19.9 25.45" fill="#333333" fill-rule="evenodd" stroke="none"/>
    <path d="M6.75 11.15 L6.8 11.15" fill="none" stroke="#1e1d17" stroke-linecap="round" stroke-linejoin="round" stroke-width="1.0"/>
    <path d="M17.5 10.05 L20.2 11.6 20.2 15.1 22.2 17.35 24.95 17.35" fill="none" stroke="#1e1e1e" stroke-linecap="round" stroke-linejoin="round" stroke-width="1.0"/>
    <path d="M22.4 6.9 L20.85 7.2 17.5 7.9 17.5 10.05 17.5 12.2 18.9 13.25 18.9 15.9 Q17.9 15.6 16.5 18.15 M24.95 17.35 L24.9 14.4 24.7 11.65 24.35 8.85 22.4 6.9 21.75 5.8 19.15 5.8 20.85 7.2 M24.95 17.35 L24.35 18.9 23.4 18.9 Q22.7 22.35 20.95 25.5 L19.9 25.45 Q20.05 26.65 19.2 27.5 18.3 28.35 17.55 28.5 L14.2 28.55 12.25 28.55 Q8.8 27.85 8.2 24.4 L7.5 24.4 7.5 22.2 7.5 20.7 M7.5 20.55 L6.7 18.15 6.55 16.05 6.75 13.9 6.75 11.15 M6.8 11.15 L6.95 9.55 Q7.45 6.75 8.9 4.55 10.15 3.4 11.65 2.7 L15.25 2.4 17.0 3.05 19.1 3.3 21.75 5.8 M18.9 15.9 L21.8 18.9 23.4 18.9 M19.15 5.8 Q18.5 4.35 17.0 3.05 M16.4 5.8 L19.15 5.8 M10.8 12.15 L10.4 11.15 10.25 9.55 Q9.95 7.0 12.6 5.15 L8.9 4.55 M17.85 25.3 L18.85 25.35 19.9 25.45 M16.4 5.8 Q17.3 6.4 17.5 7.9 M12.6 5.15 Q15.55 4.85 16.4 5.8 M10.8 12.15 L17.5 12.2 M6.75 13.9 L8.6 13.15 9.4 12.15 10.8 12.15 M8.2 24.4 L8.9 24.4" fill="none" stroke="#0e0c0c" stroke-linecap="round" stroke-linejoin="round" stroke-width="1.0"/>
    <path d="M18.85 25.35 Q21.25 22.0 21.8 18.9" fill="none" stroke="#171717" stroke-linecap="round" stroke-linejoin="round" stroke-width="1.0"/>
    <path d="M16.5 18.15 L16.5 20.5 17.9 20.5 17.85 25.3 8.9 24.4 8.9 20.5 11.05 20.5 11.05 18.15 6.7 18.15 M6.55 16.05 L13.25 16.05 14.0 15.25 16.5 15.25 16.5 18.15 11.05 18.15 M11.05 20.5 L16.5 20.5" fill="none" stroke="#101010" stroke-linecap="round" stroke-linejoin="round" stroke-width="1.0"/>
    <path d="M24.6 23.3 Q23.7 23.5 21.55 21.85 23.7 23.5 24.6 23.3 L24.25 26.25 21.05 25.85 21.55 21.85 21.75 20.05 24.95 20.45 24.6 23.3 M17.9 23.45 Q16.25 24.7 14.35 23.45 16.25 24.7 17.9 23.45 L17.9 25.9 14.35 25.9 14.35 23.45 14.35 20.95 17.9 20.95 17.9 23.45 M13.45 23.45 Q11.8 24.7 9.9 23.45 11.8 24.7 13.45 23.45 L13.45 25.9 9.9 25.9 9.9 23.45 9.9 20.95 13.45 20.95 13.45 23.45" fill="#191919" fill-rule="evenodd" stroke="none"/>
    <path d="M21.55 21.85 Q23.7 23.5 24.6 23.3 L24.95 20.45 21.75 20.05 21.55 21.85 21.05 25.85 24.25 26.25 24.6 23.3 M14.35 23.45 Q16.25 24.7 17.9 23.45 L17.9 20.95 14.35 20.95 14.35 23.45 14.35 25.9 17.9 25.9 17.9 23.45 M9.9 23.45 Q11.8 24.7 13.45 23.45 L13.45 20.95 9.9 20.95 9.9 23.45 9.9 25.9 13.45 25.9 13.45 23.45" fill="none" stroke="#090909" stroke-linecap="round" stroke-linejoin="round" stroke-width="1.0"/>
    <path d="M-2.45 -0.9 L-2.45 -3.25 Q-1.6 -4.6 0.65 -4.85 L2.25 -3.6 -2.45 -0.9" fill="#1e1e1e" fill-rule="evenodd" stroke="none"/>
    <path d="M4.15 -0.35 L4.2 -0.3 4.15 -0.3 4.15 -0.35 M2.3 15.25 L2.25 15.25 -1.4 11.6 -2.4 10.6 Q-1.75 8.85 0.0 8.2 L1.0 9.2 2.55 10.75 3.2 12.25 2.3 15.25 M3.75 1.85 L4.7 1.4 3.75 1.85 M2.05 12.65 L1.0 11.6 2.05 12.65 M1.0 9.2 L-1.4 11.6 1.0 9.2" fill="#202020" fill-rule="evenodd" stroke="none"/>
    <path d="M2.25 -3.6 L3.6 -1.3 4.15 -0.35 4.15 -0.3 4.2 -0.3 5.05 1.25 4.7 1.4 3.75 1.85 2.05 3.9 2.05 7.4 1.95 6.8 2.05 7.35 -1.25 1.35 -2.45 -0.9 2.25 -3.6 M3.6 -1.3 L3.45 -1.25 2.3 -0.45 2.25 0.4 0.75 1.25 0.0 0.75 -1.25 1.35 0.0 0.75 0.75 1.25 2.25 0.4 2.3 -0.45 3.45 -1.25 3.6 -1.3" fill="#ffffa3" fill-rule="evenodd" stroke="none"/>
    <path d="M5.05 1.25 L5.05 1.3 7.3 0.6 11.5 0.75 12.65 3.85 9.85 5.15 7.6 10.1 6.8 11.15 6.8 19.9 6.7 21.8 5.25 21.8 4.55 21.55 3.2 19.95 2.3 15.25 3.2 12.25 2.55 10.75 2.15 8.05 2.05 7.35 2.05 7.4 2.05 3.9 3.75 1.85 4.7 1.4 5.05 1.25 M9.35 5.15 L6.1 5.4 4.55 8.05 2.15 8.05 4.55 8.05 6.1 5.4 9.35 5.15 M6.1 13.2 L4.8 13.2 4.15 16.0 5.25 21.8 4.15 16.0 4.8 13.2 6.1 13.2" fill="#191919" fill-rule="evenodd" stroke="none"/>
    <path d="M-2.45 -0.9 L-2.45 -3.25 Q-1.6 -4.6 0.65 -4.85 L2.25 -3.6 M4.15 -0.35 L4.2 -0.3 4.15 -0.3 M5.05 1.25 L5.05 1.3 7.3 0.6 11.5 0.75 12.65 3.85 9.85 5.15 7.6 10.1 6.8 11.15 6.8 19.9 M6.7 21.8 L5.25 21.8 4.55 21.55 3.2 19.95 2.3 15.25 2.25 15.25 -1.4 11.6 -2.4 10.6 Q-1.75 8.85 0.0 8.2 L1.0 9.2 2.55 10.75 2.15 8.05 2.05 7.35 1.95 6.8 2.05 7.4 2.05 7.35 M2.15 8.05 L4.55 8.05 6.1 5.4 9.35 5.15 M3.75 1.85 L2.05 3.9 2.05 7.4 M4.7 1.4 L3.75 1.85 M2.55 10.75 L3.2 12.25 2.3 15.25 M5.25 21.8 L4.15 16.0 4.8 13.2 6.1 13.2 M-1.4 11.6 L1.0 9.2" fill="none" stroke="#0b0b0b" stroke-linecap="round" stroke-linejoin="round" stroke-width="1.0"/>
    <path d="M23.1 11.55 L24.15 12.0 M1.0 11.6 L2.05 12.65" fill="none" stroke="#ffffa3" stroke-linecap="round" stroke-linejoin="round" stroke-width="1.0"/>
    <path d="M3.75 1.85 L4.7 1.4 5.05 1.25" fill="none" stroke="#171717" stroke-linecap="round" stroke-linejoin="round" stroke-width="1.0"/>
    <path d="M-1.25 1.35 L0.0 0.75 0.75 1.25 2.25 0.4 2.3 -0.45 3.45 -1.25 3.6 -1.3" fill="none" stroke="#b1b171" stroke-linecap="round" stroke-linejoin="round" stroke-width="1.0"/>
    <path d="M2.25 -3.6 L3.6 -1.3 4.15 -0.35 M4.2 -0.3 L5.05 1.25 M6.8 19.9 L6.7 21.8 M2.05 7.35 L-1.25 1.35 -2.45 -0.9 2.25 -3.6" fill="none" stroke="#151515" stroke-linecap="round" stroke-linejoin="round" stroke-width="1.0"/>
    <path d="M25.05 11.1 L25.2 13.45 Q25.1 14.75 24.7 15.15 24.3 15.5 23.55 15.15 22.75 14.75 22.55 14.0 L22.25 12.6 22.2 11.9 22.25 11.1 Q22.5 10.25 22.9 9.75 L23.45 9.25 Q23.8 9.05 24.35 9.6 24.85 10.1 25.05 11.1 M24.8 12.6 L23.8 12.7 22.2 11.9 23.8 12.7 24.8 12.6" fill="#ffffa3" fill-rule="evenodd" stroke="none"/>
    <path d="M22.2 11.9 L23.8 12.7 24.8 12.6" fill="none" stroke="#b1b171" stroke-linecap="round" stroke-linejoin="round" stroke-width="1.0"/>
    <path d="M25.05 11.1 L25.2 13.45 Q25.1 14.75 24.7 15.15 24.3 15.5 23.55 15.15 22.75 14.75 22.55 14.0 L22.25 12.6 22.2 11.9 22.25 11.1 Q22.5 10.25 22.9 9.75 L23.45 9.25 Q23.8 9.05 24.35 9.6 24.85 10.1 25.05 11.1 Z" fill="none" stroke="#0e0c0c" stroke-linecap="round" stroke-linejoin="round" stroke-width="1.0"/>
    <path d="M7.0 -3.55 Q8.75 -0.4 8.3 2.9 7.8 6.15 5.5 7.6 3.15 9.05 0.25 7.85 -2.55 6.65 -4.3 3.45 -6.0 0.25 -5.55 -3.0 -5.1 -6.3 -2.75 -7.75 -0.45 -9.2 2.45 -7.95 5.3 -6.75 7.0 -3.55" fill="url(#gradient0)" fill-rule="evenodd" stroke="none"/>
    <path d="M27.15 15.65 Q26.4 17.85 25.0 18.35 23.55 19.0 22.15 17.65 20.9 16.25 20.45 13.55 19.9 10.95 20.6 8.75 21.35 6.5 22.75 5.95 24.2 5.4 25.55 6.8 26.85 8.15 27.35 10.75 27.8 13.35 27.15 15.65" fill="url(#gradient1)" fill-rule="evenodd" stroke="none"/>
    <path d="M2.4 10.65 Q3.4 11.25 3.85 12.2 4.1 13.05 3.95 13.7 3.7 14.45 2.8 14.45 1.9 14.5 0.9 13.8 0.0 13.2 -0.4 12.3 -0.85 11.45 -0.55 10.75 -0.15 10.05 0.65 10.05 1.6 10.0 2.4 10.65" fill="url(#gradient2)" fill-rule="evenodd" stroke="none"/>
  </g>
  <defs>
    <radialGradient cx="0" cy="0" gradientTransform="matrix(0.0059, -0.0036, 0.0039, 0.0072, 1.3, -0.05)" gradientUnits="userSpaceOnUse" id="gradient0" r="819.2" spreadMethod="pad">
      <stop offset="0.0" stop-color="#ffffa3" stop-opacity="0.49803922"/>
      <stop offset="1.0" stop-color="#ffffff" stop-opacity="0.0"/>
    </radialGradient>
    <radialGradient cx="0" cy="0" gradientTransform="matrix(0.0036, -0.0014, 0.001, 0.0058, 23.8, 12.05)" gradientUnits="userSpaceOnUse" id="gradient1" r="819.2" spreadMethod="pad">
      <stop offset="0.0" stop-color="#ffffa3" stop-opacity="0.49803922"/>
      <stop offset="1.0" stop-color="#ffffff" stop-opacity="0.0"/>
    </radialGradient>
    <radialGradient cx="0" cy="0" gradientTransform="matrix(8.0E-4, -0.0016, 0.002, 0.0014, 1.55, 12.15)" gradientUnits="userSpaceOnUse" id="gradient2" r="819.2" spreadMethod="pad">
      <stop offset="0.0" stop-color="#ffffa3" stop-opacity="0.49803922"/>
      <stop offset="1.0" stop-color="#ffffff" stop-opacity="0.0"/>
    </radialGradient>
  </defs>
</svg>
