<?xml version="1.0" encoding="UTF-8" standalone="no"?>
<svg xmlns:xlink="http://www.w3.org/1999/xlink" height="11.55px" width="18.2px" xmlns="http://www.w3.org/2000/svg">
  <g transform="matrix(1.0, 0.0, 0.0, 1.0, 9.15, 6.05)">
    <path d="M-0.5 -4.1 L-0.5 -3.3 0.0 -2.35 0.3 -1.95 0.95 -1.25 0.95 -0.6 1.25 -0.5 1.6 0.2 2.55 3.4 2.55 3.8 2.25 4.65 M2.25 0.4 L5.55 -2.8 5.7 -2.8 6.5 -3.6 6.7 -3.8 8.05 -4.85 8.05 -5.0 8.3 -5.2 8.55 -5.45 M-8.65 -5.55 L-6.2 -2.5 -6.2 -0.75 M0.3 -1.95 L-0.9 -0.75 -0.9 -0.6 -1.15 -0.6 -1.55 2.65 -1.55 3.75 -1.95 5.0" fill="none" stroke="#000000" stroke-linecap="round" stroke-linejoin="round" stroke-opacity="0.5019608" stroke-width="1.0"/>
  </g>
</svg>
