<?xml version="1.0" encoding="UTF-8" standalone="no"?>
<svg xmlns:ffdec="https://www.free-decompiler.com/flash" xmlns:xlink="http://www.w3.org/1999/xlink" ffdec:objectType="shape" height="30.2px" width="25.3px" xmlns="http://www.w3.org/2000/svg">
  <g transform="matrix(1.0, 0.0, 0.0, 1.0, 8.6, 5.65)">
    <path d="M0.9 16.8 L1.65 12.0 Q1.45 9.25 0.0 6.5 0.1 4.3 1.1 2.3 L3.75 0.0 9.9 1.5 10.1 2.75 12.9 4.9 Q13.9 6.15 13.55 7.8 12.95 9.95 11.05 10.85 9.9 14.45 9.5 17.45 L9.35 18.95 8.8 23.0 Q8.05 22.55 6.9 22.75 L1.7 22.9 -0.2 22.75 -0.35 22.55 -0.4 22.45 Q-0.95 21.55 -0.25 21.15 L0.5 18.35 0.8 17.65 0.75 17.65 0.9 16.8 M-0.35 22.55 L1.7 22.9 -0.35 22.55 M-0.4 22.45 L0.5 18.35 -0.4 22.45" fill="#171717" fill-rule="evenodd" stroke="none"/>
    <path d="M0.9 16.8 L1.65 12.0 Q1.45 9.25 0.0 6.5 0.1 4.3 1.1 2.3 L3.75 0.0 9.9 1.5 10.1 2.75 12.9 4.9 Q13.9 6.15 13.55 7.8 12.95 9.95 11.05 10.85 9.9 14.45 9.5 17.45 L9.35 18.95 8.8 23.0 Q8.05 22.55 6.9 22.75 L1.7 22.9 -0.35 22.55 M0.5 18.35 L0.75 17.05 0.9 16.8 0.75 17.65 M0.5 18.35 L-0.4 22.45" fill="none" stroke="#020202" stroke-linecap="round" stroke-linejoin="round" stroke-width="1.0"/>
    <path d="M0.8 1.2 L0.75 -0.7 0.85 -0.85 1.45 -1.45 0.8 1.2" fill="#393939" fill-rule="evenodd" stroke="none"/>
    <path d="M2.9 -1.6 L3.05 -2.2 5.2 -2.3 5.45 -2.3 6.45 -0.6 9.9 0.5 10.85 2.15 10.55 2.25 10.3 2.15 9.6 2.65 2.5 1.15 2.4 0.0 2.9 -1.6 M4.55 0.15 L4.3 0.15 4.55 0.15" fill="url(#gradient0)" fill-rule="evenodd" stroke="none"/>
    <path d="M10.55 2.25 Q11.1 2.1 12.65 2.25 L13.75 3.85 Q15.1 8.95 14.35 13.55 L11.1 14.95 7.6 11.85 7.5 10.25 9.15 8.45 Q10.7 5.85 8.9 3.85 L9.8 2.8 Q9.85 2.5 10.3 2.15 L10.55 2.25 M11.55 13.3 L11.3 13.3 11.55 13.3 M9.35 11.05 L9.1 11.05 9.35 11.05" fill="url(#gradient1)" fill-rule="evenodd" stroke="none"/>
    <path d="M0.25 6.3 L2.0 11.9 -1.85 17.95 -5.65 17.95 Q-8.3 14.75 -8.1 10.95 L-5.75 10.05 -5.2 8.9 -2.9 8.4 -2.3 6.5 0.2 6.2 0.25 6.3 M-0.7 8.2 L-0.95 8.2 -0.7 8.2" fill="url(#gradient2)" fill-rule="evenodd" stroke="none"/>
    <path d="M0.6 3.2 L0.55 3.4 0.25 6.3 0.2 6.2 -2.3 6.5 -2.9 8.4 -5.2 8.9 Q-6.9 7.1 -6.2 4.85 L-5.2 1.6 Q-2.65 3.3 0.6 3.2 M-4.15 5.05 Q-3.85 5.05 -3.65 4.8 L-3.4 4.3 -3.65 3.75 -4.15 3.55 -4.7 3.75 -4.9 4.3 -4.7 4.8 -4.15 5.05" fill="url(#gradient3)" fill-rule="evenodd" stroke="none"/>
    <path d="M-3.8 0.15 L-3.05 0.5 0.6 1.55 0.6 3.2 Q-2.65 3.3 -5.2 1.6 L-3.85 0.25 -3.8 0.15" fill="url(#gradient4)" fill-rule="evenodd" stroke="none"/>
    <path d="M1.7 -5.15 Q1.35 -3.0 2.55 -1.6 L2.0 -1.6 1.45 -1.45 0.85 -0.85 0.75 -0.7 0.8 1.2 0.7 1.6 0.6 1.55 -3.05 0.5 -3.8 0.15 -2.85 -0.15 -3.3 -0.15 -2.55 -3.15 Q-1.1 -4.8 -0.3 -4.85 L1.7 -5.15 M-2.3 -2.4 L-1.7 -1.85 Q-0.6 -0.95 0.85 -0.85 -0.6 -0.95 -1.7 -1.85 L-2.3 -2.4" fill="url(#gradient5)" fill-rule="evenodd" stroke="none"/>
    <path d="M2.55 -1.6 Q1.35 -3.0 1.7 -5.15 L5.3 -5.05 5.2 -2.3 3.05 -2.2 2.9 -1.6 2.55 -1.6" fill="url(#gradient6)" fill-rule="evenodd" stroke="none"/>
    <path d="M-4.15 5.05 L-4.7 4.8 -4.9 4.3 -4.7 3.75 -4.15 3.55 -3.65 3.75 -3.4 4.3 -3.65 4.8 Q-3.85 5.05 -4.15 5.05" fill="#ff0000" fill-rule="evenodd" stroke="none"/>
    <path d="M1.7 -5.15 Q1.35 -3.0 2.55 -1.6 L2.9 -1.6 3.05 -2.2 5.2 -2.3 5.3 -5.05 1.7 -5.15 -0.3 -4.85 Q-1.1 -4.8 -2.55 -3.15 L-3.3 -0.15 M-3.8 0.15 L-3.05 0.5 0.6 1.55 0.7 1.6 M0.8 1.2 L0.75 -0.7 0.85 -0.85 Q-0.6 -0.95 -1.7 -1.85 L-2.3 -2.4 M2.55 -1.6 L2.0 -1.6 1.45 -1.45 0.85 -0.85 M5.2 -2.3 L5.45 -2.3 6.45 -0.6 9.9 0.5 10.85 2.15 10.55 2.25 Q11.1 2.1 12.65 2.25 L13.75 3.85 Q15.1 8.95 14.35 13.55 L11.1 14.95 7.6 11.85 7.5 10.25 9.15 8.45 Q10.7 5.85 8.9 3.85 L9.8 2.8 M10.3 2.15 L9.6 2.65 2.5 1.15 2.4 0.0 2.9 -1.6 M10.55 2.25 L10.3 2.15 M0.6 3.2 L0.55 3.4 0.25 6.3 2.0 11.9 -1.85 17.95 -5.65 17.95 Q-8.3 14.75 -8.1 10.95 L-5.75 10.05 -5.2 8.9 Q-6.9 7.1 -6.2 4.85 L-5.2 1.6 -3.85 0.25 M0.6 1.55 L0.6 3.2 Q-2.65 3.3 -5.2 1.6 M-5.2 8.9 L-2.9 8.4 -2.3 6.5 0.2 6.2 0.25 6.3" fill="none" stroke="#020202" stroke-linecap="round" stroke-linejoin="round" stroke-width="1.0"/>
    <path d="M4.3 0.15 L4.55 0.15 M9.1 11.05 L9.35 11.05 M11.3 13.3 L11.55 13.3 M-0.95 8.2 L-0.7 8.2" fill="none" stroke="#000000" stroke-linecap="round" stroke-linejoin="round" stroke-width="1.0"/>
    <path d="M0.8 21.3 L0.85 20.8 3.45 21.0 3.4 21.35 3.4 23.45 3.4 21.35 9.65 21.55 9.5 22.95 9.3 23.75 3.4 23.45 3.35 24.05 0.75 23.8 0.8 23.4 -0.95 23.4 -0.8 21.3 0.8 21.3 0.8 23.4 0.8 21.3" fill="#1c1d1a" fill-rule="evenodd" stroke="none"/>
    <path d="M3.4 21.35 L3.45 21.0 0.85 20.8 0.8 21.3 0.8 23.4 0.75 23.8 3.35 24.05 3.4 23.45 3.4 21.35 9.65 21.55 9.5 22.95 9.3 23.75 3.4 23.45 M0.8 21.3 L-0.8 21.3 -0.95 23.4 0.8 23.4" fill="none" stroke="#0e0e0e" stroke-linecap="round" stroke-linejoin="round" stroke-width="1.0"/>
    <path d="M-0.55 13.45 L-0.6 13.3 Q-0.65 13.1 -0.1 13.55 L-0.55 13.45" fill="#393939" fill-rule="evenodd" stroke="none"/>
    <path d="M13.5 11.45 L12.95 5.4 15.15 5.05 Q16.85 8.05 15.8 11.35 L13.5 11.45" fill="#121212" fill-rule="evenodd" stroke="none"/>
    <path d="M3.35 15.7 Q4.85 15.6 5.5 16.1 6.2 16.5 6.4 17.25 6.6 17.95 6.4 18.5 L5.8 19.15 5.6 19.2 5.55 19.25 3.5 19.35 3.0 19.35 2.3 19.35 0.7 19.25 -0.35 19.05 -1.7 18.45 -2.5 17.95 -3.5 16.7 -4.1 15.45 -4.25 15.2 Q-3.35 12.9 -0.55 13.45 L-0.1 14.5 1.0 15.45 3.3 15.7 3.35 15.7 M2.3 19.35 L2.25 19.25 Q1.55 17.8 2.15 16.2 1.55 17.8 2.25 19.25 L2.3 19.35 M-0.1 14.95 Q-1.75 15.75 -1.7 18.45 -1.75 15.75 -0.1 14.95" fill="url(#gradient7)" fill-rule="evenodd" stroke="none"/>
    <path d="M-0.1 14.5 L-0.55 13.45 Q-3.35 12.9 -4.25 15.2 L-4.1 15.45 -4.8 14.95 Q-5.7 14.1 -5.7 12.9 -5.7 11.7 -4.8 10.85 -3.9 10.0 -2.65 10.0 -1.4 10.0 -0.5 10.85 0.4 11.7 0.4 12.9 0.4 13.8 -0.1 14.5 M-4.25 12.35 Q-3.8 11.45 -3.0 11.35 L-2.15 11.3 -1.45 11.65 Q-0.85 11.95 -0.1 13.55 -0.85 11.95 -1.45 11.65 L-2.15 11.3 -3.0 11.35 Q-3.8 11.45 -4.25 12.35 M-0.55 13.45 L-0.1 13.55 Q-0.65 13.1 -0.6 13.3 L-0.55 13.45 M-4.25 15.2 Q-4.55 13.7 -4.35 12.6 -4.55 13.7 -4.25 15.2" fill="url(#gradient8)" fill-rule="evenodd" stroke="none"/>
    <path d="M3.5 19.35 L5.55 19.25 5.6 19.2 5.8 19.15 6.4 18.5 Q6.6 17.95 6.4 17.25 6.2 16.5 5.5 16.1 4.85 15.6 3.35 15.7 L3.4 15.1 4.4 14.6 8.2 14.65 8.3 18.3 7.45 19.65 3.6 19.6 3.5 19.35" fill="url(#gradient9)" fill-rule="evenodd" stroke="none"/>
    <path d="M13.5 11.45 L15.8 11.35 Q16.85 8.05 15.15 5.05 L12.95 5.4 13.5 11.45" fill="none" stroke="#090909" stroke-linecap="round" stroke-linejoin="round" stroke-width="1.0"/>
    <path d="M3.35 15.7 Q4.85 15.6 5.5 16.1 6.2 16.5 6.4 17.25 6.6 17.95 6.4 18.5 L5.8 19.15 5.6 19.2 5.55 19.25 3.5 19.35 3.6 19.6 7.45 19.65 8.3 18.3 8.2 14.65 4.4 14.6 3.4 15.1 3.35 15.7 3.3 15.7 1.0 15.45 -0.1 14.5 -0.55 13.45 Q-3.35 12.9 -4.25 15.2 L-4.1 15.45 -3.5 16.7 -2.5 17.95 -1.7 18.45 Q-1.75 15.75 -0.1 14.95 M2.15 16.2 Q1.55 17.8 2.25 19.25 L2.3 19.35 3.0 19.35 3.5 19.35 M2.3 19.35 L0.7 19.25 -0.35 19.05 -1.7 18.45 M-0.1 13.55 Q-0.85 11.95 -1.45 11.65 L-2.15 11.3 -3.0 11.35 Q-3.8 11.45 -4.25 12.35 M-0.55 13.45 L-0.1 13.55 Q-0.65 13.1 -0.6 13.3 L-0.55 13.45 M-4.35 12.6 Q-4.55 13.7 -4.25 15.2" fill="none" stroke="#020202" stroke-linecap="round" stroke-linejoin="round" stroke-width="1.0"/>
    <path d="M0.0 14.25 L-0.1 14.1 -0.2 13.8 Q-1.0 12.0 -1.55 11.75 L-2.2 11.4 -3.05 11.45 Q-3.8 11.55 -4.35 12.6 -4.65 13.75 -4.3 15.3 L-4.8 14.95 Q-5.65 14.1 -5.65 12.95 -5.65 11.8 -4.8 10.95 -3.9 10.15 -2.7 10.15 -1.5 10.15 -0.6 10.95 0.25 11.8 0.25 12.95 L0.0 14.25" fill="#1c1c1c" fill-rule="evenodd" stroke="none"/>
    <path d="M0.0 14.25 L-0.1 14.1 -0.2 13.8 Q-1.0 12.0 -1.55 11.75 L-2.2 11.4 -3.05 11.45 Q-3.8 11.55 -4.35 12.6 -4.65 13.75 -4.3 15.3 L-4.8 14.95 Q-5.65 14.1 -5.65 12.95 -5.65 11.8 -4.8 10.95 -3.9 10.15 -2.7 10.15 -1.5 10.15 -0.6 10.95 0.25 11.8 0.25 12.95 L0.0 14.25 Z" fill="none" stroke="#020202" stroke-linecap="round" stroke-linejoin="round" stroke-width="1.0"/>
  </g>
  <defs>
    <radialGradient cx="0" cy="0" fx="192.0" fy="0" gradientTransform="matrix(0.0057, 0.0, 0.0, 0.0057, 6.65, 0.2)" gradientUnits="userSpaceOnUse" id="gradient0" r="819.2" spreadMethod="pad">
      <stop offset="0.0" stop-color="#202020"/>
      <stop offset="1.0" stop-color="#121212"/>
      <stop offset="1.0" stop-color="#0e0d0d"/>
    </radialGradient>
    <radialGradient cx="0" cy="0" fx="192.0" fy="0" gradientTransform="matrix(0.0085, 0.0, 0.0, 0.0085, 13.95, 3.85)" gradientUnits="userSpaceOnUse" id="gradient1" r="819.2" spreadMethod="pad">
      <stop offset="0.0" stop-color="#202020"/>
      <stop offset="1.0" stop-color="#121212"/>
      <stop offset="1.0" stop-color="#0e0d0d"/>
    </radialGradient>
    <radialGradient cx="0" cy="0" fx="192.0" fy="0" gradientTransform="matrix(0.013, 0.0, 0.0, 0.013, -4.1, 10.8)" gradientUnits="userSpaceOnUse" id="gradient2" r="819.2" spreadMethod="pad">
      <stop offset="0.0" stop-color="#1e1e1e"/>
      <stop offset="1.0" stop-color="#020202"/>
      <stop offset="1.0" stop-color="#0e0d0d"/>
    </radialGradient>
    <radialGradient cx="0" cy="0" fx="192.0" fy="0" gradientTransform="matrix(0.0326, 0.0, 0.0, 0.0154, -1.65, 2.5)" gradientUnits="userSpaceOnUse" id="gradient3" r="819.2" spreadMethod="pad">
      <stop offset="0.0" stop-color="#1e1e1e"/>
      <stop offset="1.0" stop-color="#020202"/>
      <stop offset="1.0" stop-color="#0e0d0d"/>
    </radialGradient>
    <radialGradient cx="0" cy="0" fx="192.0" fy="0" gradientTransform="matrix(0.0128, 0.0, 0.0, 0.0128, -1.7, 1.8)" gradientUnits="userSpaceOnUse" id="gradient4" r="819.2" spreadMethod="pad">
      <stop offset="0.0" stop-color="#1e1e1e"/>
      <stop offset="1.0" stop-color="#020202"/>
      <stop offset="1.0" stop-color="#0e0d0d"/>
    </radialGradient>
    <radialGradient cx="0" cy="0" fx="192.0" fy="0" gradientTransform="matrix(0.0124, 0.0, 0.0, 0.0124, -4.3, -8.5)" gradientUnits="userSpaceOnUse" id="gradient5" r="819.2" spreadMethod="pad">
      <stop offset="0.0" stop-color="#484848"/>
      <stop offset="0.4470588235294118" stop-color="#2a2a2a"/>
      <stop offset="1.0" stop-color="#0e0e0e"/>
      <stop offset="1.0" stop-color="#383838"/>
    </radialGradient>
    <radialGradient cx="0" cy="0" fx="192.0" fy="0" gradientTransform="matrix(0.0105, 0.0, 0.0, 0.0105, -0.6, -9.0)" gradientUnits="userSpaceOnUse" id="gradient6" r="819.2" spreadMethod="pad">
      <stop offset="0.0" stop-color="#484848"/>
      <stop offset="0.4470588235294118" stop-color="#2a2a2a"/>
      <stop offset="1.0" stop-color="#0e0e0e"/>
      <stop offset="1.0" stop-color="#383838"/>
    </radialGradient>
    <radialGradient cx="0" cy="0" fx="192.0" fy="0" gradientTransform="matrix(0.0126, 0.0, 0.0, 0.0126, 1.05, 10.05)" gradientUnits="userSpaceOnUse" id="gradient7" r="819.2" spreadMethod="pad">
      <stop offset="0.0" stop-color="#1c1c1c"/>
      <stop offset="0.0" stop-color="#0b0b0b"/>
      <stop offset="0.4470588235294118" stop-color="#202020"/>
      <stop offset="1.0" stop-color="#0e0e0e"/>
      <stop offset="1.0" stop-color="#383838"/>
    </radialGradient>
    <radialGradient cx="0" cy="0" fx="192.0" fy="0" gradientTransform="matrix(0.0046, 0.0, 0.0, 0.0046, -0.8, 12.35)" gradientUnits="userSpaceOnUse" id="gradient8" r="819.2" spreadMethod="pad">
      <stop offset="0.0" stop-color="#1c1c1c"/>
      <stop offset="0.0" stop-color="#0b0b0b"/>
      <stop offset="0.4470588235294118" stop-color="#202020"/>
      <stop offset="1.0" stop-color="#0e0e0e"/>
      <stop offset="1.0" stop-color="#383838"/>
    </radialGradient>
    <radialGradient cx="0" cy="0" fx="192.0" fy="0" gradientTransform="matrix(0.0056, 0.0, 0.0, 0.0056, 7.15, 15.05)" gradientUnits="userSpaceOnUse" id="gradient9" r="819.2" spreadMethod="pad">
      <stop offset="0.0" stop-color="#2e2e2e"/>
      <stop offset="1.0" stop-color="#020202"/>
      <stop offset="1.0" stop-color="#0e0d0d"/>
    </radialGradient>
  </defs>
</svg>
