<?xml version="1.0" encoding="UTF-8" standalone="no"?>
<svg xmlns:ffdec="https://www.free-decompiler.com/flash" xmlns:xlink="http://www.w3.org/1999/xlink" ffdec:objectType="shape" height="11.1px" width="12.6px" xmlns="http://www.w3.org/2000/svg">
  <g transform="matrix(1.0, 0.0, 0.0, 1.0, 10.15, 17.2)">
    <path d="M-0.05 -7.45 L-1.4 -7.3 -7.45 -7.7 Q-7.95 -9.0 -7.75 -10.7 L-1.4 -11.05 -0.5 -10.9 -0.5 -9.4 -0.05 -7.45" fill="#191919" fill-rule="evenodd" stroke="none"/>
    <path d="M-0.05 -7.45 L-1.4 -7.3 -7.45 -7.7 Q-7.95 -9.0 -7.75 -10.7 L-1.4 -11.05 -0.5 -10.9" fill="none" stroke="#111111" stroke-linecap="round" stroke-linejoin="round" stroke-width="1.0"/>
    <path d="M1.3 -14.05 Q1.35 -13.55 1.5 -13.55 L2.15 -13.55 2.3 -13.55 2.3 -12.25 2.15 -12.35 2.35 -11.3 2.3 -11.15 2.0 -10.75 Q1.65 -10.55 1.9 -9.65 2.15 -8.8 1.85 -8.3 1.55 -7.8 1.85 -7.6 L1.45 -7.4 0.85 -7.3 0.0 -7.25 -0.35 -7.25 Q-0.85 -8.55 -0.9 -9.95 L-0.9 -11.15 -1.0 -11.15 -2.3 -11.15 -2.3 -11.75 -2.3 -11.15 -3.85 -11.15 -8.1 -11.15 -9.45 -11.15 -9.45 -13.4 -9.35 -13.5 -8.9 -13.5 -8.8 -13.5 -8.45 -13.5 Q-8.25 -13.55 -8.05 -13.75 -8.35 -14.35 -8.25 -15.3 L-8.2 -15.55 Q-6.6 -16.1 -4.5 -15.55 L-0.55 -15.55 Q1.8 -15.4 1.3 -14.05 M-4.7 -13.5 L-4.7 -13.85 Q-4.45 -14.8 -4.5 -15.55 -4.45 -14.8 -4.7 -13.85 L-4.7 -13.5 M0.6 -10.8 L0.6 -11.6 0.6 -10.8 Q1.3 -10.8 1.9 -11.15 1.3 -10.8 0.6 -10.8 L0.6 -10.3 0.6 -10.8 -0.9 -11.15 0.6 -10.8 M-8.1 -11.8 L-8.1 -11.15 -8.1 -11.8 M-2.3 -10.25 Q-1.6 -10.3 -1.0 -9.95 L-1.0 -7.3 -1.15 -7.4 -1.65 -7.45 -2.05 -7.45 -2.5 -7.45 -2.8 -7.4 -3.8 -7.3 -4.45 -7.25 Q-5.9 -7.1 -6.7 -7.95 L-6.7 -7.45 -7.6 -7.4 -8.25 -7.3 -9.0 -7.25 -9.45 -7.25 -9.45 -9.95 -8.15 -10.15 -3.8 -9.95 -2.3 -10.25 M-3.8 -9.95 L-3.8 -7.3 -3.8 -9.95 M-6.65 -8.6 L-6.7 -9.2 -6.7 -9.0 -6.7 -8.55 -6.65 -8.6" fill="#232323" fill-rule="evenodd" stroke="none"/>
    <path d="M-9.45 -11.15 L-8.1 -11.15 -3.85 -11.15 -2.3 -11.15 -2.3 -10.25 -2.3 -11.15 -1.0 -11.15 -1.0 -9.95 Q-1.6 -10.3 -2.3 -10.25 L-3.8 -9.95 -8.15 -10.15 -9.45 -9.95 -9.45 -11.15 M-8.2 -15.55 L-8.05 -16.4 Q-6.4 -17.0 -4.75 -16.4 L-4.5 -15.55 Q-6.6 -16.1 -8.2 -15.55 M-3.8 -9.95 L-3.85 -11.15 -3.8 -9.95 M-8.15 -10.15 L-8.1 -11.15 -8.15 -10.15" fill="#141414" fill-rule="evenodd" stroke="none"/>
    <path d="M1.3 -14.05 Q1.8 -15.4 -0.55 -15.55 L-4.5 -15.55 Q-4.45 -14.8 -4.7 -13.85 L-4.7 -13.5 M0.6 -10.8 Q1.3 -10.8 1.9 -11.15 M-9.45 -11.15 L-8.1 -11.15 -3.85 -11.15 -2.3 -11.15 -1.0 -11.15 -0.9 -11.15 0.6 -10.8 M-8.05 -13.75 Q-8.35 -14.35 -8.25 -15.3 L-8.2 -15.55 -8.05 -16.4 Q-6.4 -17.0 -4.75 -16.4 L-4.5 -15.55 M-3.85 -11.15 L-3.8 -9.95 -3.8 -7.3" fill="none" stroke="#0f0f0f" stroke-linecap="round" stroke-linejoin="round" stroke-width="1.0"/>
    <path d="M0.6 -11.6 L0.6 -10.8 0.6 -10.3 M-8.1 -11.15 L-8.1 -11.8 M-2.3 -11.15 L-2.3 -10.25 M-2.3 -11.15 L-2.3 -11.75 M-8.1 -11.15 L-8.15 -10.15" fill="none" stroke="#323333" stroke-linecap="round" stroke-linejoin="round" stroke-width="1.0"/>
    <path d="M-1.0 -9.95 L-0.9 -9.95" ffdec:has-small-stroke="true" ffdec:original-stroke-width="0.3" fill="none" stroke="#0f0f0f" stroke-linecap="round" stroke-linejoin="round" stroke-width="1.0"/>
    <path d="M1.1 -13.4 L1.1 -13.55 1.25 -13.5 1.1 -13.4 M1.85 -13.05 L1.9 -13.0 1.9 -12.9 1.85 -12.45 1.75 -13.05 1.85 -13.05 M1.85 -9.85 L2.05 -9.95 2.1 -9.6 1.85 -9.45 1.85 -9.85 M-0.05 -6.75 L-0.2 -6.75 -0.35 -6.75 -0.35 -7.1 -0.05 -7.2 -0.05 -6.75 M-0.8 -9.35 L-0.95 -9.35 -0.95 -9.75 -0.9 -9.65 -0.7 -9.45 -0.8 -9.35 -0.9 -9.65 -0.8 -9.35 M-4.9 -6.7 L-5.2 -6.7 -5.65 -6.7 -5.65 -6.9 -5.05 -7.05 -4.9 -6.7 M-6.5 -12.45 L-6.75 -12.45 -6.85 -13.05 -6.85 -12.75 -6.85 -12.3 -7.0 -12.3 -7.0 -12.75 -6.9 -12.9 -7.0 -13.05 -7.15 -13.2 -7.05 -13.55 -7.0 -13.55 -6.95 -13.5 -6.9 -13.2 -6.85 -13.25 -6.85 -13.05 -6.6 -13.15 -6.5 -13.0 -6.3 -13.35 -6.05 -13.35 -5.9 -13.0 -6.4 -12.75 -6.5 -12.65 -6.5 -12.45 M-6.85 -9.8 L-6.85 -9.75 -7.0 -9.75 -7.05 -9.8 -6.85 -9.8 M-6.85 -9.65 L-6.85 -9.6 -6.85 -9.35 -6.9 -9.35 -6.85 -9.6 -6.9 -9.35 -7.0 -9.45 -6.85 -9.65 M-7.35 -6.75 L-7.5 -6.75 -7.65 -6.75 -7.65 -7.2 -7.35 -7.1 -7.35 -6.9 -7.35 -6.75 M-9.55 -9.45 L-9.8 -9.6 -9.75 -9.95 -9.55 -9.85 -9.55 -9.45 M-9.6 -12.9 L-9.6 -13.0 -9.55 -13.05 -9.5 -13.05 -9.55 -12.45 -9.6 -12.9 M-0.9 -12.3 L-0.95 -12.3 -1.05 -13.35 -0.95 -13.35 -0.9 -13.25 -0.8 -13.2 -0.8 -13.5 -0.7 -13.55 -0.65 -13.55 -0.55 -13.2 -0.7 -13.05 -0.7 -13.0 -0.8 -12.9 -0.8 -12.85 -0.7 -12.75 -0.7 -12.3 -0.9 -12.3 -0.8 -12.85 -0.9 -12.3 M-8.95 -13.5 L-8.8 -13.55 -8.8 -13.4 -8.95 -13.5 M-2.35 -13.35 L-2.4 -13.4 -2.1 -13.35 -2.35 -13.35 M-0.9 -11.1 L-0.7 -11.15 -0.7 -10.6 -0.9 -10.5 -0.9 -11.1 -0.9 -10.5 -0.95 -10.5 -0.95 -11.1 -0.9 -11.1 M-0.9 -9.8 L-0.65 -9.8 -0.7 -9.75 -0.9 -9.75 -0.9 -9.8 -0.9 -9.75 -0.95 -9.75 -0.95 -9.8 -0.9 -9.8 M-6.85 -10.5 L-7.0 -10.6 -7.0 -11.15 -6.85 -11.1 -6.85 -10.5" fill="#272727" fill-rule="evenodd" stroke="none"/>
    <path d="M1.85 -10.6 L1.85 -9.85 1.75 -9.85 1.7 -10.6 1.85 -10.6 M-6.75 -11.75 L-6.5 -12.45 -6.6 -11.75 -6.75 -11.75 M-9.55 -9.85 L-9.55 -10.6 -9.4 -10.6 -9.45 -9.85 -9.55 -9.85 M-0.95 -12.0 L-0.9 -12.0 -0.9 -11.85 -0.95 -11.85 -0.95 -12.0 M-1.0 -11.7 L-0.95 -11.7 -1.0 -11.65 -0.95 -11.7 -0.9 -11.7 -0.8 -11.7 -0.8 -11.55 -0.9 -11.55 -0.9 -11.7 -0.9 -11.55 -1.0 -11.65 -1.0 -11.7 M-6.85 -11.7 L-6.85 -11.55 -6.9 -11.55 -6.9 -11.7 -6.85 -11.7" fill="#222222" fill-rule="evenodd" stroke="none"/>
    <path d="M1.6 -6.95 L1.25 -6.75 0.95 -6.75 1.6 -6.95 M-1.5 -6.75 L-2.25 -6.7 -2.8 -6.7 -1.5 -6.75 M-8.65 -6.75 L-8.95 -6.75 -9.3 -6.95 -8.65 -6.75 M-7.45 -13.2 L-7.4 -13.25 -7.15 -13.2 -7.15 -13.05 -7.45 -13.2 M-5.9 -13.0 L-5.35 -13.05 -5.9 -12.9 -5.9 -13.0 M-0.55 -13.2 L-0.3 -13.25 -0.25 -13.2 -0.55 -13.05 -0.55 -13.2" fill="#151515" fill-rule="evenodd" stroke="none"/>
    <path d="M0.95 -6.75 L0.85 -6.7 0.65 -6.7 0.85 -6.75 0.95 -6.75 M-2.8 -6.7 L-3.1 -6.6 -3.5 -6.55 -3.5 -6.6 -3.1 -6.7 -2.8 -6.7 M-8.35 -6.7 L-8.55 -6.7 -8.65 -6.75 -8.55 -6.75 -8.35 -6.7 M-9.3 -6.95 L-9.35 -6.9 -9.35 -6.95 -9.3 -6.95 M0.85 -6.7 L0.85 -6.75 0.85 -6.7 M-3.1 -6.6 L-3.1 -6.7 -3.1 -6.6 M-7.35 -6.9 L-7.3 -6.95 -7.3 -6.9 -7.35 -6.9 M-8.55 -6.7 L-8.55 -6.75 -8.55 -6.7" fill="#111111" fill-rule="evenodd" stroke="none"/>
    <path d="M-1.0 -10.1 L-1.2 -10.0 -1.2 -10.1 -1.0 -10.1" fill="#111111" fill-opacity="0.49803922" fill-rule="evenodd" stroke="none"/>
    <path d="M-0.9 -10.5 L-0.9 -9.8 -0.95 -9.8 -0.95 -10.1 -0.95 -10.5 -0.9 -10.5" fill="#121212" fill-opacity="0.49803922" fill-rule="evenodd" stroke="none"/>
    <path d="M1.85 -13.05 L1.9 -13.0 1.9 -12.9 Q2.05 -11.15 1.85 -10.6 L1.85 -9.85 1.85 -9.45 1.85 -8.0 1.6 -6.95 1.25 -6.75 0.95 -6.75 0.85 -6.75 0.65 -6.7 -0.05 -6.75 -0.2 -6.75 -0.35 -6.75 -0.7 -7.05 -0.7 -7.2 -0.8 -9.35 -0.9 -9.65 -0.9 -9.75 -0.9 -9.8 -0.9 -10.5 -0.9 -11.1 -0.9 -11.55 -0.9 -11.7 -0.9 -11.85 -0.9 -12.0 -0.9 -12.3 -0.8 -12.85 M-0.95 -9.35 L-0.95 -8.3 -0.95 -7.95 -0.95 -7.9 -1.0 -7.35 -1.45 -6.75 -1.5 -6.75 -2.25 -6.7 -2.8 -6.7 -3.1 -6.7 -3.5 -6.6 -4.9 -6.7 -5.2 -6.7 -5.65 -6.7 Q-6.2 -6.7 -6.4 -7.05 -6.75 -7.35 -6.75 -7.9 L-6.75 -9.85 M-6.75 -9.95 L-6.75 -11.75 -6.5 -12.45 -6.5 -12.65 -6.4 -12.75 -5.9 -13.0 -5.35 -13.05 -2.4 -13.15 Q-1.1 -13.2 -0.95 -12.0 M-6.85 -12.75 L-6.85 -9.8 -6.85 -9.75 -6.85 -9.65 -6.85 -9.6 -6.9 -9.35 -7.0 -7.2 -7.0 -7.05 -7.35 -6.75 -7.5 -6.75 -7.65 -6.75 -8.35 -6.7 -8.55 -6.75 -8.65 -6.75 -8.95 -6.75 -9.3 -6.95 -9.35 -6.95 -9.55 -8.0 -9.55 -9.45 -9.55 -9.85 -9.55 -10.6 Q-9.75 -11.15 -9.6 -12.9 L-9.6 -13.0 -9.55 -13.05 Q-9.3 -13.35 -8.8 -13.25 L-7.45 -13.2 -7.4 -13.25 -7.15 -13.2 -7.0 -13.05 -6.9 -12.9 M-0.55 -13.2 L-0.3 -13.25 -0.25 -13.2 1.1 -13.25 1.85 -13.05 M-0.8 -12.9 L-0.7 -13.0 -0.7 -13.05 -0.55 -13.2 M-0.95 -9.75 L-0.95 -9.35 -1.0 -9.15 -0.95 -7.95 M-0.95 -10.1 L-0.95 -9.8 -0.95 -9.75" fill="none" stroke="#0f0f0f" stroke-linecap="round" stroke-linejoin="round" stroke-width="1.0"/>
    <path d="M-6.75 -9.85 L-6.75 -9.95 M0.85 -6.75 L0.85 -6.7 M-3.1 -6.7 L-3.1 -6.6 M-8.55 -6.75 L-8.55 -6.7" fill="none" stroke="#111111" stroke-linecap="round" stroke-linejoin="round" stroke-width="1.0"/>
    <path d="M-0.95 -11.7 L-0.95 -11.85 -0.95 -12.0 M-1.0 -11.7 L-1.0 -11.65 -0.95 -11.7 M-0.95 -10.5 L-0.95 -10.1 -1.0 -11.65 -0.95 -11.1 -0.95 -10.5 Z" fill="none" stroke="#121212" stroke-linecap="round" stroke-linejoin="round" stroke-width="1.0"/>
  </g>
</svg>
