<?xml version="1.0" encoding="UTF-8" standalone="no"?>
<svg xmlns:ffdec="https://www.free-decompiler.com/flash" xmlns:xlink="http://www.w3.org/1999/xlink" ffdec:objectType="shape" height="28.3px" width="28.5px" xmlns="http://www.w3.org/2000/svg">
  <g transform="matrix(1.0, 0.0, 0.0, 1.0, 15.95, 29.75)">
    <path d="M5.1 -24.4 L5.8 -24.25 5.95 -22.8 5.1 -22.95 4.1 -23.1 4.05 -23.1 2.6 -22.9 1.45 -22.2 -2.8 -20.8 -2.8 -23.5 1.8 -25.0 5.1 -24.4" fill="#1e1e1e" fill-rule="evenodd" stroke="none"/>
    <path d="M5.1 -24.4 L1.8 -25.0 -2.8 -23.5 Q-4.1 -23.25 -3.55 -24.95 -2.15 -26.7 -2.8 -27.3 L-2.15 -27.8 Q0.15 -27.75 2.8 -26.8 L5.1 -24.7 5.1 -24.4" fill="#232323" fill-rule="evenodd" stroke="none"/>
    <path d="M-2.8 -20.8 L1.45 -22.2 2.6 -22.9 4.05 -23.1 4.1 -23.1 5.1 -22.95 5.1 -20.85 5.3 -20.65 2.35 -16.8 3.05 -13.2 Q6.2 -11.7 9.3 -10.25 L8.8 -8.7 -2.55 -10.55 -3.55 -12.6 -3.55 -15.9 Q-3.95 -17.85 -2.8 -20.8 M7.6 -24.7 L5.1 -24.7 2.8 -26.8 Q0.15 -27.75 -2.15 -27.8 L-1.25 -29.25 Q2.9 -29.05 6.5 -27.4 L7.6 -24.7 M6.65 -4.5 Q1.4 -3.0 -0.3 -3.55 -2.0 -4.15 -2.0 -5.05 L-1.45 -5.65 6.65 -4.5" fill="#191919" fill-rule="evenodd" stroke="none"/>
    <path d="M5.3 -20.65 L7.2 -19.0 6.65 -15.35 9.9 -13.15 Q11.3 -10.95 9.3 -10.25 6.2 -11.7 3.05 -13.2 L2.35 -16.8 5.3 -20.65" fill="url(#gradient0)" fill-rule="evenodd" stroke="none"/>
    <path d="M8.8 -8.7 Q7.3 -6.6 6.65 -4.5 L-1.45 -5.65 -2.9 -6.2 -2.9 -8.75 -2.55 -10.55 8.8 -8.7" fill="url(#gradient1)" fill-rule="evenodd" stroke="none"/>
    <path d="M5.1 -22.95 L5.95 -22.8 5.8 -24.25 5.1 -24.4 1.8 -25.0 -2.8 -23.5 -2.8 -20.8 Q-3.95 -17.85 -3.55 -15.9 L-3.55 -12.6 -2.55 -10.55 8.8 -8.7 Q7.3 -6.6 6.65 -4.5 L-1.45 -5.65 -2.9 -6.2 -2.9 -8.75 -2.55 -10.55 M-2.8 -27.3 Q-2.15 -26.7 -3.55 -24.95 -4.1 -23.25 -2.8 -23.5 M-2.0 -5.05 L-1.45 -5.65" fill="none" stroke="#070707" stroke-linecap="round" stroke-linejoin="round" stroke-width="1.0"/>
    <path d="M9.3 -10.25 L9.65 -10.15 Q10.65 -10.65 10.7 -12.45 M5.1 -24.7 L2.8 -26.8 Q0.15 -27.75 -2.15 -27.8 L-2.8 -27.3 M5.3 -20.65 L2.35 -16.8 3.05 -13.2 Q6.2 -11.7 9.3 -10.25 M7.6 -24.7 L6.5 -27.4 Q2.9 -29.05 -1.25 -29.25 L-2.15 -27.8" fill="none" stroke="#0f0f0f" stroke-linecap="round" stroke-linejoin="round" stroke-width="1.0"/>
    <path d="M9.3 -10.25 L8.8 -8.7 M6.65 -4.5 Q1.4 -3.0 -0.3 -3.55 -2.0 -4.15 -2.0 -5.05" fill="none" stroke="#080807" stroke-linecap="round" stroke-linejoin="round" stroke-opacity="0.8784314" stroke-width="1.0"/>
    <path d="M9.9 -13.15 L10.8 -12.55" fill="none" stroke="#474747" stroke-linecap="round" stroke-linejoin="round" stroke-width="1.0"/>
    <path d="M10.8 -12.55 L6.65 -15.35 7.2 -19.0 5.1 -20.85 5.1 -24.7 7.6 -24.7 Q9.7 -24.45 11.35 -21.95 13.0 -19.5 10.8 -12.55" fill="url(#gradient2)" fill-rule="evenodd" stroke="none"/>
    <path d="M10.8 -12.55 Q13.0 -19.5 11.35 -21.95 9.7 -24.45 7.6 -24.7 L5.1 -24.7 5.1 -20.85 7.2 -19.0 6.65 -15.35" fill="none" stroke="#0f0f0f" stroke-linecap="round" stroke-linejoin="round" stroke-width="1.0"/>
    <path d="M6.65 -15.35 L10.35 -12.7" fill="none" stroke="#0f0f0f" stroke-linecap="round" stroke-linejoin="round" stroke-width="1.0"/>
    <path d="M0.5 -27.8 L4.4 -26.8 Q6.9 -26.0 7.45 -22.5 8.0 -19.05 5.8 -16.75 L3.6 -17.8 Q5.65 -20.4 5.05 -22.8 4.7 -24.25 3.75 -24.65 L-0.25 -25.6 0.5 -27.8 M4.8 -15.65 L4.75 -15.6 3.9 -14.95 -3.0 -11.1 -3.6 -12.9 Q1.45 -15.5 2.6 -16.6 L4.8 -15.65 M-5.2 -24.4 Q-8.3 -23.7 -9.25 -24.35 -10.25 -26.3 -8.15 -26.85 L-5.2 -27.35 -1.0 -27.85 -1.7 -25.55 Q-3.5 -24.6 -5.2 -24.4" fill="#232323" fill-rule="evenodd" stroke="none"/>
    <path d="M0.5 -27.8 L-0.25 -25.6 -1.7 -25.55 -1.0 -27.85 0.5 -27.8 M3.6 -17.8 L5.8 -16.75 4.8 -15.65 2.6 -16.6 3.6 -17.8" fill="#565656" fill-rule="evenodd" stroke="none"/>
    <path d="M5.8 -16.75 Q8.0 -19.05 7.45 -22.5 6.9 -26.0 4.4 -26.8 L0.5 -27.8 -1.0 -27.85 -5.2 -27.35 -8.15 -26.85 M-0.25 -25.6 L3.75 -24.65 Q4.7 -24.25 5.05 -22.8 5.65 -20.4 3.6 -17.8 L5.8 -16.75 4.8 -15.65 4.75 -15.6 3.9 -14.95 -3.0 -11.1 -3.6 -12.9 Q1.45 -15.5 2.6 -16.6 L3.6 -17.8 M-1.7 -25.55 L-0.25 -25.6 M-5.2 -24.4 Q-3.5 -24.6 -1.7 -25.55 L-1.0 -27.85" fill="none" stroke="#0b0b0b" stroke-linecap="round" stroke-linejoin="round" stroke-width="1.0"/>
    <path d="M1.8 -16.6 L3.65 -18.4 5.8 -16.25 3.95 -14.45 1.8 -16.6" fill="#333333" fill-rule="evenodd" stroke="none"/>
    <path d="M1.8 -16.6 L3.95 -14.45 5.8 -16.25 3.65 -18.4 1.8 -16.6 Z" fill="none" stroke="#000000" stroke-linecap="round" stroke-linejoin="round" stroke-width="1.0"/>
    <path d="M-2.8 -25.05 L-4.25 -26.1 Q-6.85 -24.8 -8.3 -23.3 -10.55 -21.1 -10.65 -19.05 L-10.75 -18.35 -11.6 -16.8 Q-12.1 -16.65 -13.0 -17.85 -12.1 -16.65 -11.6 -16.8 L-10.75 -18.35 -10.65 -19.05 Q-10.55 -21.1 -8.3 -23.3 -6.85 -24.8 -4.25 -26.1 L-2.8 -25.05 -2.7 -22.7 -2.7 -22.1 -3.05 -19.6 Q-3.85 -20.2 -4.6 -20.4 L-3.95 -22.3 -6.4 -22.85 -7.1 -20.1 -6.4 -22.85 -3.95 -22.3 -4.6 -20.4 -6.55 -14.9 -9.25 -14.9 -7.1 -20.1 Q-8.6 -19.95 -9.85 -18.35 -11.35 -16.55 -11.6 -16.5 L-11.85 -13.15 -13.3 -13.5 -13.3 -15.05 -13.0 -17.85 Q-13.5 -20.4 -12.05 -22.7 L-10.1 -25.6 -8.65 -26.9 Q-7.9 -27.65 -6.3 -27.55 -4.4 -27.4 -2.8 -25.05 M-11.6 -16.8 L-11.6 -16.5 -11.6 -16.8 M-3.95 -22.3 L-2.7 -22.1 -3.95 -22.3 M-6.4 -22.85 L-8.3 -23.3 -6.4 -22.85 M-2.7 -10.2 L-2.7 -9.25 -2.45 -7.35 -2.5 -7.35 -2.45 -7.1 -2.35 -4.7 -2.7 -4.1 -3.25 -3.5 Q-5.75 -2.15 -8.25 -3.5 L-9.5 -4.4 -9.55 -5.3 -9.9 -11.25 -2.7 -10.2" fill="#171717" fill-rule="evenodd" stroke="none"/>
    <path d="M-6.55 -14.9 L-4.6 -20.4 Q-3.85 -20.2 -3.05 -19.6 L-3.8 -14.9 -6.55 -14.9" fill="url(#gradient3)" fill-rule="evenodd" stroke="none"/>
    <path d="M-9.25 -14.9 L-6.55 -14.9 -3.8 -14.9 -3.05 -14.8 -2.8 -11.9 -9.95 -11.95 -10.15 -14.25 -9.25 -14.9" fill="url(#gradient4)" fill-rule="evenodd" stroke="none"/>
    <path d="M-11.85 -13.15 L-11.6 -16.5 Q-11.35 -16.55 -9.85 -18.35 -8.6 -19.95 -7.1 -20.1 L-9.25 -14.9 -10.15 -14.25 -9.95 -11.95 -9.9 -11.25 -9.55 -5.3 -10.55 -5.4 -11.0 -5.8 Q-10.9 -8.5 -11.45 -11.6 L-11.55 -12.0 -11.85 -13.15" fill="url(#gradient5)" fill-rule="evenodd" stroke="none"/>
    <path d="M-2.8 -11.9 L-2.7 -10.2 -9.9 -11.25 -9.95 -11.95 -2.8 -11.9" fill="url(#gradient6)" fill-rule="evenodd" stroke="none"/>
    <path d="M-2.7 -9.25 L-2.5 -9.25 -2.45 -7.35 -2.7 -9.25" fill="#202020" fill-rule="evenodd" stroke="none"/>
    <path d="M-13.0 -17.85 Q-12.1 -16.65 -11.6 -16.8 L-10.75 -18.35 -10.65 -19.05 Q-10.55 -21.1 -8.3 -23.3 -6.85 -24.8 -4.25 -26.1 L-2.8 -25.05 Q-4.4 -27.4 -6.3 -27.55 -7.9 -27.65 -8.65 -26.9 L-10.1 -25.6 -12.05 -22.7 Q-13.5 -20.4 -13.0 -17.85 L-13.3 -15.05 -13.3 -13.5 M-11.85 -13.15 L-11.6 -16.5 -11.6 -16.8 M-4.6 -20.4 L-3.95 -22.3 -6.4 -22.85 -7.1 -20.1 -9.25 -14.9 -6.55 -14.9 -4.6 -20.4 M-3.05 -19.6 L-2.7 -22.1 -3.95 -22.3 M-2.8 -25.05 L-2.7 -22.7 -2.7 -22.1 M-8.3 -23.3 L-6.4 -22.85 M-3.8 -14.9 L-3.05 -14.8 -2.8 -11.9 -2.7 -10.2 -2.7 -9.25 -2.45 -7.35 -2.45 -7.1 -2.35 -4.7 -2.7 -4.1 -3.25 -3.5 Q-5.75 -2.15 -8.25 -3.5 L-9.5 -4.4 -9.55 -5.3 -10.55 -5.4 -11.0 -5.8 M-3.05 -19.6 L-3.8 -14.9 -6.55 -14.9 M-2.5 -7.35 L-2.45 -7.1 M-9.95 -11.95 L-9.9 -11.25 -9.55 -5.3 M-9.95 -11.95 L-2.8 -11.9 M-9.25 -14.9 L-10.15 -14.25 -9.95 -11.95" fill="none" stroke="#070707" stroke-linecap="round" stroke-linejoin="round" stroke-width="1.0"/>
    <path d="M-10.5 -12.0 L-10.35 -11.6 Q-9.85 -8.5 -9.95 -5.8 L-12.9 -4.7 Q-14.05 -5.15 -14.6 -6.7 L-14.8 -8.25 Q-15.0 -10.2 -14.6 -12.45 -13.55 -13.6 -12.25 -13.5 L-10.75 -13.15 -10.5 -12.0 Q-12.05 -10.2 -14.3 -10.45 -12.05 -10.2 -10.5 -12.0" fill="url(#gradient7)" fill-rule="evenodd" stroke="none"/>
    <path d="M-10.5 -12.0 L-10.35 -11.6 Q-9.85 -8.5 -9.95 -5.8 L-12.9 -4.7 Q-14.05 -5.15 -14.6 -6.7 L-14.8 -8.25 Q-15.0 -10.2 -14.6 -12.45 -13.55 -13.6 -12.25 -13.5 L-10.75 -13.15 -10.5 -12.0 Q-12.05 -10.2 -14.3 -10.45" fill="none" stroke="#070707" stroke-linecap="round" stroke-linejoin="round" stroke-width="1.0"/>
    <path d="M-15.45 -9.25 L-15.45 -7.35" fill="none" stroke="#000000" stroke-linecap="round" stroke-linejoin="round" stroke-width="1.0"/>
    <path d="M-3.35 -17.0 L-3.65 -14.55 Q-4.15 -13.15 -5.65 -13.2 -6.95 -13.1 -7.85 -13.8 -8.6 -15.5 -7.85 -16.75 L-3.35 -17.0" fill="url(#gradient8)" fill-rule="evenodd" stroke="none"/>
    <path d="M-7.85 -16.75 L-8.55 -17.05 Q-8.85 -18.45 -8.2 -19.6 L-2.35 -19.8 -2.6 -17.7 -3.35 -17.0 -7.85 -16.75" fill="#171717" fill-rule="evenodd" stroke="none"/>
    <path d="M-3.35 -17.0 L-3.65 -14.55 Q-4.15 -13.15 -5.65 -13.2 -6.95 -13.1 -7.85 -13.8 -8.6 -15.5 -7.85 -16.75 L-8.55 -17.05 Q-8.85 -18.45 -8.2 -19.6 L-2.35 -19.8 -2.6 -17.7 -3.35 -17.0 -7.85 -16.75" fill="none" stroke="#000000" stroke-linecap="round" stroke-linejoin="round" stroke-width="1.0"/>
    <path d="M-2.1 -28.1 L0.5 -28.15 0.5 -25.1 -2.1 -25.1 -2.1 -28.1" fill="#333333" fill-rule="evenodd" stroke="none"/>
    <path d="M-2.1 -28.1 L-2.1 -25.1 0.5 -25.1 0.5 -28.15 -2.1 -28.1 Z" fill="none" stroke="#000000" stroke-linecap="round" stroke-linejoin="round" stroke-width="1.0"/>
    <path d="M-10.5 -4.9 L-10.4 -9.25 -10.45 -9.85 -10.4 -9.95 Q-10.15 -10.9 -9.0 -11.25 L-8.4 -11.3 -7.6 -11.3 -7.15 -11.25 Q-5.9 -10.85 -5.8 -9.8 L-5.8 -9.2 -5.8 -7.95 -5.9 -3.5 Q-6.15 -2.55 -6.85 -2.15 L-7.25 -2.0 -7.45 -1.95 -7.9 -1.95 -8.65 -1.95 -9.45 -2.15 Q-9.9 -2.0 -10.15 -2.6 L-10.5 -4.9 M-5.8 -9.2 L-10.4 -9.25 -5.8 -9.2" fill="url(#gradient9)" fill-rule="evenodd" stroke="none"/>
    <path d="M-5.8 -7.95 Q-5.35 -5.05 -5.9 -3.5 L-5.8 -7.95" fill="url(#gradient10)" fill-rule="evenodd" stroke="none"/>
    <path d="M-10.15 -2.6 L-10.5 -3.45 -10.5 -4.9 -10.4 -9.25 -10.45 -9.85 -10.4 -9.95 Q-10.15 -10.9 -9.0 -11.25 L-8.4 -11.3 -7.6 -11.3 -7.15 -11.25 Q-5.9 -10.85 -5.8 -9.8 L-5.8 -9.2 -5.8 -7.95 -5.9 -3.5 -5.85 -3.4 -5.9 -3.25 Q-6.05 -2.55 -6.85 -2.15 L-7.25 -2.0 -7.45 -1.95 -7.9 -1.95 -8.65 -1.95 -9.1 -2.0 -9.45 -2.15 Q-9.9 -2.0 -10.15 -2.6 M-10.4 -9.25 L-5.8 -9.2" fill="none" stroke="#000000" stroke-linecap="round" stroke-linejoin="round" stroke-width="1.0"/>
    <path d="M-5.35 -4.9 L-5.25 -9.25 -5.3 -9.85 -5.25 -9.95 Q-5.0 -10.9 -3.85 -11.25 L-3.25 -11.3 -2.45 -11.3 -2.0 -11.25 Q-0.75 -10.85 -0.65 -9.8 L-0.65 -9.2 -0.65 -7.95 -0.75 -3.5 Q-1.0 -2.55 -1.7 -2.15 L-2.1 -2.0 -2.3 -1.95 -2.75 -1.95 -3.5 -1.95 -4.3 -2.15 Q-4.75 -2.0 -5.0 -2.6 L-5.35 -4.9 M-0.65 -9.2 L-5.25 -9.25 -0.65 -9.2" fill="url(#gradient11)" fill-rule="evenodd" stroke="none"/>
    <path d="M-0.65 -7.95 Q-0.2 -5.05 -0.75 -3.5 L-0.65 -7.95" fill="url(#gradient12)" fill-rule="evenodd" stroke="none"/>
    <path d="M-5.35 -4.9 L-5.25 -9.25 -5.3 -9.85 -5.25 -9.95 Q-5.0 -10.9 -3.85 -11.25 L-3.25 -11.3 -2.45 -11.3 -2.0 -11.25 Q-0.75 -10.85 -0.65 -9.8 L-0.65 -9.2 -0.65 -7.95 -0.75 -3.5 -0.7 -3.4 -0.75 -3.25 Q-0.9 -2.55 -1.7 -2.15 L-2.1 -2.0 -2.3 -1.95 -2.75 -1.95 -3.5 -1.95 -3.95 -2.0 -4.3 -2.15 Q-4.75 -2.0 -5.0 -2.6 L-5.35 -3.45 -5.35 -4.9 M-5.25 -9.25 L-0.65 -9.2" fill="none" stroke="#000000" stroke-linecap="round" stroke-linejoin="round" stroke-width="1.0"/>
    <path d="M-3.25 -21.05 Q-3.25 -19.75 -4.15 -18.8 -5.05 -17.9 -6.35 -17.9 -7.65 -17.9 -8.55 -18.8 -9.45 -19.75 -9.45 -21.05 -9.45 -22.35 -8.55 -23.25 -7.65 -24.2 -6.35 -24.2 -5.05 -24.2 -4.15 -23.25 -3.25 -22.35 -3.25 -21.05 M-4.25 -21.05 Q-4.25 -21.95 -4.85 -22.6 -5.5 -23.25 -6.4 -23.25 -7.3 -23.25 -7.9 -22.6 -8.55 -21.95 -8.55 -21.05 -8.55 -20.15 -7.9 -19.5 -7.3 -18.85 -6.4 -18.85 -5.5 -18.85 -4.85 -19.5 -4.25 -20.15 -4.25 -21.05" fill="url(#gradient13)" fill-rule="evenodd" stroke="none"/>
    <path d="M-4.25 -21.05 Q-4.25 -20.15 -4.85 -19.5 -5.5 -18.85 -6.4 -18.85 -7.3 -18.85 -7.9 -19.5 -8.55 -20.15 -8.55 -21.05 -8.55 -21.95 -7.9 -22.6 -7.3 -23.25 -6.4 -23.25 -5.5 -23.25 -4.85 -22.6 -4.25 -21.95 -4.25 -21.05" fill="#222222" fill-rule="evenodd" stroke="none"/>
    <path d="M-3.25 -21.05 Q-3.25 -19.75 -4.15 -18.8 -5.05 -17.9 -6.35 -17.9 -7.65 -17.9 -8.55 -18.8 -9.45 -19.75 -9.45 -21.05 -9.45 -22.35 -8.55 -23.25 -7.65 -24.2 -6.35 -24.2 -5.05 -24.2 -4.15 -23.25 -3.25 -22.35 -3.25 -21.05 Z" fill="none" stroke="#000000" stroke-linecap="round" stroke-linejoin="round" stroke-width="1.0"/>
  </g>
  <defs>
    <radialGradient cx="0" cy="0" gradientTransform="matrix(0.0233, 0.0, 0.0, 0.0233, 21.0, -19.6)" gradientUnits="userSpaceOnUse" id="gradient0" r="819.2" spreadMethod="pad">
      <stop offset="0.0" stop-color="#756d5f"/>
      <stop offset="1.0" stop-color="#1f1f1f"/>
      <stop offset="1.0" stop-color="#333333"/>
      <stop offset="1.0" stop-color="#333333"/>
      <stop offset="1.0" stop-color="#202121"/>
      <stop offset="1.0" stop-color="#202121"/>
    </radialGradient>
    <radialGradient cx="0" cy="0" gradientTransform="matrix(0.0111, 0.0, 0.0, 0.0111, 5.75, -9.1)" gradientUnits="userSpaceOnUse" id="gradient1" r="819.2" spreadMethod="pad">
      <stop offset="0.0" stop-color="#756d5f"/>
      <stop offset="1.0" stop-color="#1f1f1f"/>
      <stop offset="1.0" stop-color="#333333"/>
      <stop offset="1.0" stop-color="#333333"/>
      <stop offset="1.0" stop-color="#202121"/>
      <stop offset="1.0" stop-color="#202121"/>
    </radialGradient>
    <radialGradient cx="0" cy="0" gradientTransform="matrix(0.0148, 0.0, 0.0, 0.0148, 11.5, -24.65)" gradientUnits="userSpaceOnUse" id="gradient2" r="819.2" spreadMethod="pad">
      <stop offset="0.0" stop-color="#756d5f"/>
      <stop offset="1.0" stop-color="#1f1f1f"/>
      <stop offset="1.0" stop-color="#333333"/>
      <stop offset="1.0" stop-color="#333333"/>
      <stop offset="1.0" stop-color="#202121"/>
      <stop offset="1.0" stop-color="#202121"/>
    </radialGradient>
    <radialGradient cx="0" cy="0" gradientTransform="matrix(0.0145, 0.0, 0.0, 0.0145, -7.1, -8.85)" gradientUnits="userSpaceOnUse" id="gradient3" r="819.2" spreadMethod="pad">
      <stop offset="0.0" stop-color="#333333"/>
      <stop offset="0.0" stop-color="#333333"/>
      <stop offset="0.5098039215686274" stop-color="#191919"/>
      <stop offset="1.0" stop-color="#333333"/>
    </radialGradient>
    <radialGradient cx="0" cy="0" gradientTransform="matrix(0.0146, 0.0, 0.0, 0.0139, -6.25, -3.95)" gradientUnits="userSpaceOnUse" id="gradient4" r="819.2" spreadMethod="pad">
      <stop offset="0.0" stop-color="#333333"/>
      <stop offset="0.0" stop-color="#333333"/>
      <stop offset="0.5098039215686274" stop-color="#191919"/>
      <stop offset="1.0" stop-color="#333333"/>
    </radialGradient>
    <radialGradient cx="0" cy="0" gradientTransform="matrix(0.0145, 0.0, 0.0, 0.0145, -10.8, -17.15)" gradientUnits="userSpaceOnUse" id="gradient5" r="819.2" spreadMethod="pad">
      <stop offset="0.0" stop-color="#333333"/>
      <stop offset="0.0" stop-color="#333333"/>
      <stop offset="0.5098039215686274" stop-color="#191919"/>
      <stop offset="1.0" stop-color="#333333"/>
    </radialGradient>
    <radialGradient cx="0" cy="0" gradientTransform="matrix(0.0197, 0.0, 0.0, 0.0197, 5.6, -15.7)" gradientUnits="userSpaceOnUse" id="gradient6" r="819.2" spreadMethod="pad">
      <stop offset="0.0" stop-color="#333333"/>
      <stop offset="0.0" stop-color="#333333"/>
      <stop offset="0.5098039215686274" stop-color="#191919"/>
      <stop offset="1.0" stop-color="#333333"/>
    </radialGradient>
    <radialGradient cx="0" cy="0" gradientTransform="matrix(0.0188, 0.0, 0.0, 0.0188, -23.8, -5.1)" gradientUnits="userSpaceOnUse" id="gradient7" r="819.2" spreadMethod="pad">
      <stop offset="0.0" stop-color="#333333"/>
      <stop offset="0.0" stop-color="#333333"/>
      <stop offset="0.5098039215686274" stop-color="#191919"/>
      <stop offset="1.0" stop-color="#333333"/>
    </radialGradient>
    <radialGradient cx="0" cy="0" gradientTransform="matrix(0.0171, 0.0, 0.0, 0.0171, -8.85, -4.15)" gradientUnits="userSpaceOnUse" id="gradient8" r="819.2" spreadMethod="pad">
      <stop offset="0.0" stop-color="#333333"/>
      <stop offset="0.0" stop-color="#333333"/>
      <stop offset="0.5098039215686274" stop-color="#191919"/>
      <stop offset="1.0" stop-color="#333333"/>
    </radialGradient>
    <linearGradient gradientTransform="matrix(0.0024, 0.0, 0.0, 0.0054, -9.35, -7.6)" gradientUnits="userSpaceOnUse" id="gradient9" spreadMethod="pad" x1="-819.2" x2="819.2">
      <stop offset="0.0" stop-color="#333333"/>
      <stop offset="0.0" stop-color="#333333"/>
      <stop offset="0.5098039215686274" stop-color="#191919"/>
      <stop offset="1.0" stop-color="#333333"/>
    </linearGradient>
    <linearGradient gradientTransform="matrix(0.0024, 0.0, 0.0, 0.0054, -9.35, -7.6)" gradientUnits="userSpaceOnUse" id="gradient10" spreadMethod="pad" x1="-819.2" x2="819.2">
      <stop offset="0.0" stop-color="#7a7350"/>
      <stop offset="1.0" stop-color="#303030"/>
    </linearGradient>
    <linearGradient gradientTransform="matrix(0.0024, 0.0, 0.0, 0.0054, -4.2, -7.6)" gradientUnits="userSpaceOnUse" id="gradient11" spreadMethod="pad" x1="-819.2" x2="819.2">
      <stop offset="0.0" stop-color="#333333"/>
      <stop offset="0.0" stop-color="#333333"/>
      <stop offset="0.5098039215686274" stop-color="#191919"/>
      <stop offset="1.0" stop-color="#333333"/>
    </linearGradient>
    <linearGradient gradientTransform="matrix(0.0024, 0.0, 0.0, 0.0054, -4.2, -7.6)" gradientUnits="userSpaceOnUse" id="gradient12" spreadMethod="pad" x1="-819.2" x2="819.2">
      <stop offset="0.0" stop-color="#7a7350"/>
      <stop offset="1.0" stop-color="#303030"/>
    </linearGradient>
    <radialGradient cx="0" cy="0" gradientTransform="matrix(0.007, 5.0E-4, -5.0E-4, 0.007, -5.3, -21.85)" gradientUnits="userSpaceOnUse" id="gradient13" r="819.2" spreadMethod="pad">
      <stop offset="0.0" stop-color="#756d5f"/>
      <stop offset="1.0" stop-color="#1f1f1f"/>
      <stop offset="1.0" stop-color="#333333"/>
      <stop offset="1.0" stop-color="#333333"/>
      <stop offset="1.0" stop-color="#202121"/>
      <stop offset="1.0" stop-color="#202121"/>
    </radialGradient>
  </defs>
</svg>
