<?xml version="1.0" encoding="UTF-8" standalone="no"?>
<svg xmlns:ffdec="https://www.free-decompiler.com/flash" xmlns:xlink="http://www.w3.org/1999/xlink" ffdec:objectType="shape" height="31.0px" width="29.3px" xmlns="http://www.w3.org/2000/svg">
  <g transform="matrix(1.0, 0.0, 0.0, 1.0, 15.6, 34.6)">
    <path d="M3.6 -27.6 L2.6 -34.1 3.9 -34.1 5.2 -28.0 Q4.5 -27.6 3.6 -27.6 M-14.9 -27.3 L-14.8 -28.05 -5.9 -26.15 -5.75 -26.0 -1.3 -21.95 -1.25 -21.95 4.85 -21.95 5.25 -21.0 -1.6 -20.75 -6.55 -25.05 -14.9 -27.3" fill="#333333" fill-rule="evenodd" stroke="none"/>
    <path d="M5.2 -28.0 L5.2 -27.95 6.9 -27.95 9.05 -25.15 6.25 -25.15 2.0 -25.15 1.2 -25.15 0.9 -25.15 0.5 -26.9 0.35 -27.35 -0.7 -28.1 -2.85 -29.65 -3.0 -29.8 -6.1 -30.95 -5.05 -32.15 -1.4 -30.9 -1.35 -33.95 0.85 -33.95 1.9 -27.6 3.6 -27.6 Q4.5 -27.6 5.2 -28.0" fill="#333939" fill-rule="evenodd" stroke="none"/>
    <path d="M5.2 -13.95 L2.4 -11.55 0.65 -12.0 -1.9 -15.55 -9.15 -16.8 -11.95 -17.3 Q-15.4 -20.65 -15.05 -25.95 L-14.9 -27.3 -6.55 -25.05 -1.6 -20.75 5.25 -21.0 6.2 -18.75 5.2 -13.95 M-14.8 -28.05 Q-13.9 -30.5 -11.55 -31.55 -10.55 -32.05 -9.35 -32.25 L-6.1 -30.95 -3.0 -29.8 -2.85 -29.65 -0.7 -28.1 0.35 -27.35 0.5 -26.9 0.9 -25.15 1.2 -25.15 2.0 -25.15 6.25 -25.15 5.75 -24.0 4.85 -21.95 -1.25 -21.95 -1.3 -21.95 -5.75 -26.0 -5.9 -26.15 -14.8 -28.05 M4.2 -14.75 L2.8 -14.45 4.2 -14.75 M0.0 -19.35 L1.75 -18.2 2.2 -16.35 4.2 -16.45 2.2 -16.35 1.75 -18.2 0.0 -19.35 M-3.35 -18.25 L-6.7 -19.15 -7.6 -21.75 -6.7 -19.15 -3.35 -18.25 M-8.4 -19.15 L-9.8 -22.35 -8.4 -19.15" fill="url(#gradient0)" fill-rule="evenodd" stroke="none"/>
    <path d="M-0.35 -7.3 L0.65 -4.1 -5.7 -4.8 -6.7 -7.3 -0.35 -7.3" fill="url(#gradient1)" fill-rule="evenodd" stroke="none"/>
    <path d="M-0.35 -9.9 L-0.35 -7.3 -6.7 -7.3 -7.55 -10.5 -0.35 -9.9" fill="url(#gradient2)" fill-rule="evenodd" stroke="none"/>
    <path d="M-8.35 -13.65 L-9.15 -16.8 -1.9 -15.55 0.65 -12.0 -8.35 -13.65" fill="url(#gradient3)" fill-rule="evenodd" stroke="none"/>
    <path d="M0.65 -12.0 L-0.35 -9.9 -7.55 -10.5 -8.35 -13.65 0.65 -12.0" fill="url(#gradient4)" fill-rule="evenodd" stroke="none"/>
    <path d="M9.45 -23.25 L9.25 -20.9 8.75 -19.15 Q7.2 -20.0 7.55 -21.95 7.9 -23.45 9.45 -23.25" fill="#999999" fill-rule="evenodd" stroke="none"/>
    <path d="M9.05 -25.15 L9.45 -23.25 Q7.9 -23.45 7.55 -21.95 7.2 -20.0 8.75 -19.15 7.75 -16.85 5.2 -13.95 L6.2 -18.75 5.25 -21.0 4.85 -21.95 5.75 -24.0 6.25 -25.15 9.05 -25.15" fill="url(#gradient5)" fill-rule="evenodd" stroke="none"/>
    <path d="M3.6 -27.6 L2.6 -34.1 3.9 -34.1 5.2 -28.0 5.2 -27.95 6.9 -27.95 9.05 -25.15 M-6.1 -30.95 L-5.05 -32.15 -1.4 -30.9 -1.35 -33.95 0.85 -33.95 1.9 -27.6 3.6 -27.6 Q4.5 -27.6 5.2 -28.0" fill="none" stroke="#000000" stroke-linecap="round" stroke-linejoin="round" stroke-width="1.0"/>
    <path d="M9.05 -25.15 L9.45 -23.25 M8.75 -19.15 Q7.75 -16.85 5.2 -13.95 L6.2 -18.75 5.25 -21.0 4.85 -21.95 5.75 -24.0 6.25 -25.15 9.05 -25.15" fill="none" stroke="#1a1a1a" stroke-linecap="round" stroke-linejoin="round" stroke-width="1.0"/>
    <path d="M9.45 -23.25 L9.25 -20.9 8.75 -19.15 Q7.2 -20.0 7.55 -21.95 7.9 -23.45 9.45 -23.25" fill="none" stroke="#333333" stroke-linecap="round" stroke-linejoin="round" stroke-width="1.0"/>
    <path d="M4.2 -16.45 L2.2 -16.35 1.75 -18.2 0.0 -19.35 M2.8 -14.45 L4.2 -14.75 M-9.8 -22.35 L-8.4 -19.15 M-7.6 -21.75 L-6.7 -19.15 -3.35 -18.25" fill="none" stroke="#151515" stroke-linecap="round" stroke-linejoin="round" stroke-width="1.0"/>
    <path d="M5.2 -13.95 L2.4 -11.55 0.65 -12.0 -1.9 -15.55 -9.15 -16.8 -11.95 -17.3 Q-15.4 -20.65 -15.05 -25.95 L-14.9 -27.3 -14.8 -28.05 Q-13.9 -30.5 -11.55 -31.55 -10.55 -32.05 -9.35 -32.25 L-6.1 -30.95 -3.0 -29.8 -2.85 -29.65 -0.7 -28.1 0.35 -27.35 0.5 -26.9 0.9 -25.15 1.2 -25.15 2.0 -25.15 6.25 -25.15 M4.85 -21.95 L-1.25 -21.95 -1.3 -21.95 -5.75 -26.0 -5.9 -26.15 -14.8 -28.05" fill="none" stroke="#111111" stroke-linecap="round" stroke-linejoin="round" stroke-width="1.0"/>
    <path d="M0.65 -12.0 L-0.35 -9.9 -0.35 -7.3 0.65 -4.1 -5.7 -4.8 -6.7 -7.3 -7.55 -10.5 -8.35 -13.65 -9.15 -16.8 M-7.55 -10.5 L-0.35 -9.9 M-0.35 -7.3 L-6.7 -7.3 M-8.35 -13.65 L0.65 -12.0" fill="none" stroke="#020202" stroke-linecap="round" stroke-linejoin="round" stroke-width="1.0"/>
    <path d="M8.05 -30.35 Q10.3 -30.85 11.95 -28.55 13.6 -26.35 13.7 -22.4 13.85 -18.55 12.4 -15.35 10.8 -12.3 8.7 -11.9 6.45 -11.25 4.7 -13.5 3.2 -15.8 3.05 -19.85 2.85 -23.75 4.35 -26.8 5.95 -29.9 8.05 -30.35" fill="url(#gradient6)" fill-rule="evenodd" stroke="none"/>
  </g>
  <defs>
    <radialGradient cx="0" cy="0" gradientTransform="matrix(0.0195, 0.0, 0.0, 0.0195, -0.25, -21.5)" gradientUnits="userSpaceOnUse" id="gradient0" r="819.2" spreadMethod="pad">
      <stop offset="0.0" stop-color="#222222"/>
      <stop offset="0.6588235294117647" stop-color="#444444"/>
      <stop offset="1.0" stop-color="#676767"/>
      <stop offset="1.0" stop-color="#4dcbde"/>
    </radialGradient>
    <linearGradient gradientTransform="matrix(0.004, 0.0, 0.0, 0.002, -4.05, -5.7)" gradientUnits="userSpaceOnUse" id="gradient1" spreadMethod="pad" x1="-819.2" x2="819.2">
      <stop offset="0.30196078431372547" stop-color="#050505"/>
      <stop offset="0.592156862745098" stop-color="#444444"/>
      <stop offset="1.0" stop-color="#101010"/>
    </linearGradient>
    <linearGradient gradientTransform="matrix(0.0045, 0.0, 0.0, 0.002, -4.8, -8.9)" gradientUnits="userSpaceOnUse" id="gradient2" spreadMethod="pad" x1="-819.2" x2="819.2">
      <stop offset="0.30196078431372547" stop-color="#050505"/>
      <stop offset="0.592156862745098" stop-color="#444444"/>
      <stop offset="1.0" stop-color="#101010"/>
    </linearGradient>
    <linearGradient gradientTransform="matrix(0.0052, 9.0E-4, -3.0E-4, 0.0019, -4.95, -14.5)" gradientUnits="userSpaceOnUse" id="gradient3" spreadMethod="pad" x1="-819.2" x2="819.2">
      <stop offset="0.30196078431372547" stop-color="#050505"/>
      <stop offset="0.592156862745098" stop-color="#444444"/>
      <stop offset="1.0" stop-color="#101010"/>
    </linearGradient>
    <linearGradient gradientTransform="matrix(0.0047, 5.0E-4, -2.0E-4, 0.0019, -4.65, -11.75)" gradientUnits="userSpaceOnUse" id="gradient4" spreadMethod="pad" x1="-819.2" x2="819.2">
      <stop offset="0.30196078431372547" stop-color="#050505"/>
      <stop offset="0.592156862745098" stop-color="#444444"/>
      <stop offset="1.0" stop-color="#101010"/>
    </linearGradient>
    <radialGradient cx="0" cy="0" fx="6.4" fy="0" gradientTransform="matrix(0.0058, 6.0E-4, -7.0E-4, 0.0079, 8.65, -21.35)" gradientUnits="userSpaceOnUse" id="gradient5" r="819.2" spreadMethod="pad">
      <stop offset="0.0" stop-color="#666666"/>
      <stop offset="0.4196078431372549" stop-color="#767676"/>
      <stop offset="0.4745098039215686" stop-color="#999999"/>
      <stop offset="0.5490196078431373" stop-color="#7c7c7c"/>
      <stop offset="0.9372549019607843" stop-color="#6e6e6e"/>
    </radialGradient>
    <radialGradient cx="0" cy="0" gradientTransform="matrix(0.0055, -0.0013, 2.0E-4, 0.0087, 8.3, -21.3)" gradientUnits="userSpaceOnUse" id="gradient6" r="819.2" spreadMethod="pad">
      <stop offset="0.0" stop-color="#ffffff" stop-opacity="0.49803922"/>
      <stop offset="1.0" stop-color="#ffffff" stop-opacity="0.0"/>
    </radialGradient>
  </defs>
</svg>
