<?xml version="1.0" encoding="UTF-8" standalone="no"?>
<svg xmlns:ffdec="https://www.free-decompiler.com/flash" xmlns:xlink="http://www.w3.org/1999/xlink" ffdec:objectType="shape" height="12.75px" width="21.0px" xmlns="http://www.w3.org/2000/svg">
  <g transform="matrix(1.0, 0.0, 0.0, 1.0, 10.5, 10.85)">
    <path d="M4.85 -8.3 L4.85 -7.75 6.85 -5.25 5.05 -1.5 2.1 -2.95 2.7 -5.4 3.7 -5.0 2.7 -5.4 2.1 -2.95 5.05 -1.5 6.85 -5.25 4.85 -7.75 4.85 -8.3 10.0 -8.65 10.0 1.4 -10.0 1.4 -10.0 -8.65 -6.8 -4.25 -5.3 -4.25 -5.3 -2.1 -1.3 -4.1 1.25 -5.95 -0.35 -9.8 2.2 -9.5 4.85 -10.35 4.85 -8.3 M2.7 -5.4 L1.25 -5.95 2.7 -5.4" fill="#000000" fill-opacity="0.101960786" fill-rule="evenodd" stroke="none"/>
    <path d="M3.7 -5.0 L2.7 -5.4 2.1 -2.95 5.05 -1.5 6.85 -5.25 4.85 -7.75 4.85 -8.3 4.85 -10.35 2.2 -9.5 -0.35 -9.8 1.25 -5.95 2.7 -5.4 M4.85 -8.3 L10.0 -8.65 M-10.0 -8.65 L-6.8 -4.25 -5.3 -4.25 -5.3 -2.1 -1.3 -4.1 1.25 -5.95" fill="none" stroke="#000000" stroke-linecap="round" stroke-linejoin="round" stroke-opacity="0.5019608" stroke-width="1.0"/>
    <path d="M10.0 -8.65 L10.0 1.4 M-10.0 1.4 L-10.0 -8.65" fill="none" stroke="#000000" stroke-linecap="round" stroke-linejoin="round" stroke-width="1.0"/>
  </g>
</svg>
