<?xml version="1.0" encoding="UTF-8" standalone="no"?>
<svg xmlns:ffdec="https://www.free-decompiler.com/flash" xmlns:xlink="http://www.w3.org/1999/xlink" ffdec:objectType="shape" height="33.35px" width="9.6px" xmlns="http://www.w3.org/2000/svg">
  <g transform="matrix(1.0, 0.0, 0.0, 1.0, 0.85, 5.85)">
    <path d="M-0.35 -3.1 Q0.15 -4.95 0.5 -5.35 1.2 -4.15 1.6 -2.35 L2.85 -2.75 3.2 -2.15 Q3.3 -1.6 3.5 -1.5 3.6 -1.35 3.85 -1.35 L4.85 -1.5 5.85 -1.25 Q6.35 -0.85 6.35 0.25 M1.75 25.0 L2.5 26.25 3.0 25.5 3.1 25.35 3.35 25.35 4.5 26.35 4.85 26.75 5.75 27.0 6.25 26.85 6.3 26.55 6.1 26.35 7.75 26.5 8.1 26.5 8.25 26.1 8.25 25.1" fill="none" stroke="#ff0000" stroke-linecap="round" stroke-linejoin="round" stroke-width="1.0"/>
  </g>
</svg>
