<?xml version="1.0" encoding="UTF-8" standalone="no"?>
<svg xmlns:ffdec="https://www.free-decompiler.com/flash" xmlns:xlink="http://www.w3.org/1999/xlink" ffdec:objectType="shape" height="18.85px" width="20.15px" xmlns="http://www.w3.org/2000/svg">
  <g transform="matrix(1.0, 0.0, 0.0, 1.0, 7.55, 17.35)">
    <path d="M-1.15 -1.55 Q-1.95 -1.9 -2.35 -2.8 -2.85 -3.85 -3.05 -5.9 -3.2 -8.1 -2.8 -9.8 -2.3 -11.85 -1.0 -12.8 1.35 -14.55 3.9 -14.45 6.3 -14.35 8.1 -12.65 9.2 -11.65 9.45 -10.15 L9.9 -7.45 10.8 -6.3 Q11.45 -5.5 11.3 -5.05 L10.65 -4.4 10.15 -3.85 Q9.9 -3.2 9.85 -1.6 9.65 -0.15 8.85 0.1 L7.65 0.25 6.9 0.2 3.65 -0.3 3.35 1.0 -1.3 0.5 -1.25 -1.45 -1.15 -1.55 M2.0 -1.65 Q2.6 -0.85 3.65 -0.3 2.6 -0.85 2.0 -1.65" fill="#955d45" fill-rule="evenodd" stroke="none"/>
    <path d="M3.65 -0.3 L6.9 0.2 7.65 0.25 8.85 0.1 Q9.65 -0.15 9.85 -1.6 9.9 -3.2 10.15 -3.85 L10.65 -4.4 11.3 -5.05 Q11.45 -5.5 10.8 -6.3 L9.9 -7.45 9.45 -10.15 Q9.2 -11.65 8.1 -12.65 6.3 -14.35 3.9 -14.45 1.35 -14.55 -1.0 -12.8 -2.3 -11.85 -2.8 -9.8 -3.2 -8.1 -3.05 -5.9 -2.85 -3.85 -2.35 -2.8 -1.95 -1.9 -1.15 -1.55 M-1.25 -1.45 L-1.3 0.5 3.35 1.0 3.65 -0.3" fill="none" stroke="#5c3827" stroke-linecap="round" stroke-linejoin="round" stroke-width="1.05"/>
    <path d="M3.65 -0.3 Q2.6 -0.85 2.0 -1.65" fill="none" stroke="#5c3827" stroke-linecap="round" stroke-linejoin="round" stroke-opacity="0.5019608" stroke-width="1.05"/>
    <path d="M9.95 -2.75 L8.55 -2.7 9.85 -2.15 9.95 -2.75 Z" fill="none" stroke="#7c3734" stroke-linecap="round" stroke-linejoin="round" stroke-width="1.05"/>
    <path d="M7.3 -6.75 L6.2 -6.65 Q5.65 -6.7 6.05 -7.3 6.4 -7.95 6.65 -7.85 L7.4 -7.55 8.0 -7.1 Q8.0 -6.9 7.3 -6.75" fill="#a1c3b8" fill-rule="evenodd" stroke="none"/>
    <path d="M6.75 -6.55 L6.8 -7.65 7.45 -7.7 Q8.0 -7.65 7.95 -7.1 7.9 -6.55 7.35 -6.6 L6.75 -6.55" fill="#000000" fill-rule="evenodd" stroke="none"/>
    <path d="M5.55 -7.35 Q5.95 -6.75 6.65 -6.5 7.8 -6.65 8.0 -7.1" fill="none" stroke="#573727" stroke-linecap="round" stroke-linejoin="round" stroke-width="0.5"/>
    <path d="M7.3 -8.85 L5.25 -8.95" fill="none" stroke="#5f3d33" stroke-linecap="round" stroke-linejoin="miter-clip" stroke-miterlimit="4.0" stroke-width="0.5"/>
    <path d="M8.0 -7.1 Q7.5 -7.75 6.9 -7.85 L6.1 -7.6 5.55 -7.35" fill="none" stroke="#703b2c" stroke-linecap="round" stroke-linejoin="round" stroke-width="0.5"/>
    <path d="M-0.55 -6.35 Q-0.8 -5.05 -0.3 -4.1 0.2 -3.2 0.65 -3.7" fill="none" stroke="#714530" stroke-linecap="round" stroke-linejoin="miter-clip" stroke-miterlimit="4.0" stroke-width="1.05"/>
    <path d="M-0.25 -3.05 L-0.7 -2.2 Q-1.15 -0.15 -3.3 0.9 -2.5 -1.15 -3.15 -1.7 -4.05 -0.85 -5.8 -0.1 L-5.05 -2.1 Q-4.75 -3.25 -4.9 -3.65 -5.05 -4.1 -5.65 -3.55 L-7.05 -2.45 -6.1 -4.4 Q-5.45 -6.0 -5.95 -8.15 -6.45 -10.35 -5.7 -12.65 -5.0 -14.95 -2.65 -15.9 -0.35 -16.9 0.6 -16.85 L3.5 -16.75 7.05 -16.15 9.1 -15.1 Q10.15 -14.4 10.6 -13.4 L11.55 -11.55 Q12.05 -10.2 12.1 -8.45 L11.0 -9.8 9.9 -11.1 9.1 -11.35 8.65 -11.35 Q9.1 -11.0 9.25 -9.45 L9.25 -7.9 8.35 -9.1 Q7.15 -10.35 5.9 -10.45 L4.55 -9.6 Q3.1 -8.65 2.95 -8.0 2.75 -7.2 2.95 -5.95 L3.25 -3.85 3.05 -1.15 1.45 -3.95 0.25 0.6 -0.25 -2.4 -0.25 -3.05 Q0.8 -5.35 0.25 -6.25 L-0.35 -7.0 -0.3 -5.1 -0.25 -3.05 -0.3 -5.1 -0.35 -7.0 0.25 -6.25 Q0.8 -5.35 -0.25 -3.05" fill="#000000" fill-rule="evenodd" stroke="none"/>
    <path d="M-0.25 -3.05 L-0.25 -2.4 0.25 0.6 1.45 -3.95 3.05 -1.15 3.25 -3.85 2.95 -5.95 Q2.75 -7.2 2.95 -8.0 3.1 -8.65 4.55 -9.6 L5.9 -10.45 Q7.15 -10.35 8.35 -9.1 L9.25 -7.9 9.25 -9.45 Q9.1 -11.0 8.65 -11.35 L9.1 -11.35 9.9 -11.1 11.0 -9.8 12.1 -8.45 Q12.05 -10.2 11.55 -11.55 L10.6 -13.4 Q10.15 -14.4 9.1 -15.1 L7.05 -16.15 3.5 -16.75 0.6 -16.85 Q-0.35 -16.9 -2.65 -15.9 -5.0 -14.95 -5.7 -12.65 -6.45 -10.35 -5.95 -8.15 -5.45 -6.0 -6.1 -4.4 L-7.05 -2.45 -5.65 -3.55 Q-5.05 -4.1 -4.9 -3.65 -4.75 -3.25 -5.05 -2.1 L-5.8 -0.1 Q-4.05 -0.85 -3.15 -1.7 -2.5 -1.15 -3.3 0.9 -1.15 -0.15 -0.7 -2.2 L-0.25 -3.05 -0.3 -5.1 -0.35 -7.0 0.25 -6.25 Q0.8 -5.35 -0.25 -3.05 Z" fill="none" stroke="#000000" stroke-linecap="round" stroke-linejoin="round" stroke-opacity="0.5019608" stroke-width="1.05"/>
    <path d="M4.0 -14.8 Q5.0 -14.35 5.8 -13.05 L6.4 -11.9" fill="none" stroke="#1b1b28" stroke-linecap="round" stroke-linejoin="round" stroke-width="1.05"/>
    <path d="M-4.6 -9.05 Q-4.0 -11.35 -2.75 -12.95 L-1.65 -14.15" fill="none" stroke="#1b1b28" stroke-linecap="round" stroke-linejoin="round" stroke-width="1.05"/>
    <path d="M1.15 -7.25 Q0.4 -9.25 0.6 -10.65 L0.9 -11.7" fill="none" stroke="#1b1b28" stroke-linecap="round" stroke-linejoin="round" stroke-width="1.05"/>
    <path d="M-3.8 -2.7 Q-3.15 -3.7 -3.2 -5.3 L-3.4 -6.65" fill="none" stroke="#0d0d14" stroke-linecap="round" stroke-linejoin="round" stroke-width="1.05"/>
  </g>
</svg>
