<?xml version="1.0" encoding="UTF-8" standalone="no"?>
<svg xmlns:xlink="http://www.w3.org/1999/xlink" height="8.05px" width="13.15px" xmlns="http://www.w3.org/2000/svg">
  <g transform="matrix(1.0, 0.0, 0.0, 1.0, 3.5, 2.2)">
    <path d="M1.95 1.85 L1.9 2.0 1.2 1.95 Q0.45 4.4 0.45 5.3 L-0.95 5.3 -2.7 4.9 -1.5 0.75 -3.0 0.0 -3.0 -1.65 -1.2 -1.65 2.25 -1.65 9.1 -1.65 9.15 0.15 8.2 0.15 8.25 1.55 7.2 1.55 6.9 2.55 4.15 2.55 4.15 0.35 2.95 0.35 2.35 0.35 1.95 1.85 M7.2 1.55 L7.0 0.35 8.2 0.15 7.0 0.35 7.2 1.55 M0.4 -0.25 L0.7 -1.05 0.4 -0.25 M1.3 -0.25 L1.55 -1.05 1.3 -0.25 M7.55 -0.25 L7.8 -1.05 7.55 -0.25 M6.65 -0.25 L6.95 -1.05 6.65 -0.25 M1.2 1.95 L1.7 0.35 2.35 0.35 1.7 0.35 1.2 1.95 M0.15 2.75 L-0.75 1.55 0.15 2.75 M1.7 0.35 Q-0.4 0.1 -1.5 0.75 -0.4 0.1 1.7 0.35 M-0.2 3.65 L-1.1 2.55 -0.2 3.65 M-0.5 4.5 L-1.4 3.4 -0.5 4.5 M-0.45 -0.25 L-0.15 -1.05 -0.45 -0.25 M4.15 0.35 L7.0 0.35 4.15 0.35" fill="#1d1f1f" fill-rule="evenodd" stroke="none"/>
    <path d="M1.95 1.85 L1.9 2.0 1.2 1.95 Q0.45 4.4 0.45 5.3 L-0.95 5.3 -2.7 4.9 -1.5 0.75 -3.0 0.0 -3.0 -1.65 -1.2 -1.65 2.25 -1.65 9.1 -1.65 9.15 0.15 8.2 0.15 8.25 1.55 7.2 1.55 6.9 2.55 4.15 2.55 1.95 1.85 2.35 0.35 1.7 0.35 1.2 1.95 M6.95 -1.05 L6.65 -0.25 M7.8 -1.05 L7.55 -0.25 M1.55 -1.05 L1.3 -0.25 M0.7 -1.05 L0.4 -0.25 M8.2 0.15 L7.0 0.35 7.2 1.55 M2.95 0.35 L2.8 1.25 M4.15 2.55 L4.15 0.35 2.95 0.35 2.35 0.35 M7.0 0.35 L4.15 0.35 M-0.15 -1.05 L-0.45 -0.25 M-1.4 3.4 L-0.5 4.5 M-1.1 2.55 L-0.2 3.65 M-1.5 0.75 Q-0.4 0.1 1.7 0.35 M-0.75 1.55 L0.15 2.75" fill="none" stroke="#0d0d0d" stroke-linecap="round" stroke-linejoin="round" stroke-width="1.0"/>
  </g>
</svg>
