<?xml version="1.0" encoding="UTF-8" standalone="no"?>
<svg xmlns:ffdec="https://www.free-decompiler.com/flash" xmlns:xlink="http://www.w3.org/1999/xlink" ffdec:objectType="shape" height="14.65px" width="14.65px" xmlns="http://www.w3.org/2000/svg">
  <g transform="matrix(1.0, 0.0, 0.0, 1.0, 7.3, 7.3)">
    <path d="M5.3 0.05 Q5.3 2.25 3.75 3.8 2.2 5.35 0.0 5.35 L-0.15 5.35 Q-2.25 5.3 -3.75 3.8 -5.3 2.25 -5.3 0.05 -5.3 -2.15 -3.75 -3.7 -2.25 -5.15 -0.15 -5.25 L0.0 -5.25 Q2.2 -5.25 3.75 -3.7 5.3 -2.15 5.3 0.05 M-0.15 -3.2 Q-1.4 -3.15 -2.3 -2.25 -3.25 -1.3 -3.25 0.05 -3.25 1.4 -2.3 2.4 -1.4 3.3 -0.15 3.35 L0.0 3.35 Q1.35 3.35 2.3 2.4 3.3 1.4 3.3 0.05 3.3 -1.3 2.3 -2.25 1.35 -3.2 0.0 -3.2 L-0.15 -3.2 -0.15 -5.25 -0.15 -3.2 M-2.65 -3.55 L-3.2 -3.05 Q-4.5 -1.75 -4.5 0.1 -4.5 2.0 -3.2 3.3 L-2.65 3.8 -3.2 3.3 Q-4.5 2.0 -4.5 0.1 -4.5 -1.75 -3.2 -3.05 L-2.65 -3.55 M-0.15 5.35 L-0.15 3.35 -0.15 5.35 M3.6 2.8 Q4.5 1.65 4.5 0.1 4.5 -1.2 3.85 -2.2 4.5 -1.2 4.5 0.1 4.5 1.65 3.6 2.8" fill="url(#gradient0)" fill-rule="evenodd" stroke="none"/>
    <path d="M5.3 0.05 Q5.3 -2.15 3.75 -3.7 2.2 -5.25 0.0 -5.25 L-0.15 -5.25 Q-2.25 -5.15 -3.75 -3.7 -5.3 -2.15 -5.3 0.05 -5.3 2.25 -3.75 3.8 -2.25 5.3 -0.15 5.35 L0.0 5.35 Q2.2 5.35 3.75 3.8 5.3 2.25 5.3 0.05 M6.85 0.05 Q6.85 2.85 4.85 4.85 2.85 6.85 0.0 6.85 L-0.15 6.85 Q-2.85 6.8 -4.8 4.85 -6.8 2.85 -6.8 0.05 -6.8 -2.8 -4.8 -4.8 -2.85 -6.7 -0.15 -6.8 L0.0 -6.8 Q2.85 -6.8 4.85 -4.8 6.85 -2.8 6.85 0.05" fill="url(#gradient1)" fill-rule="evenodd" stroke="none"/>
    <path d="M-0.15 3.35 Q-1.4 3.3 -2.3 2.4 -3.25 1.4 -3.25 0.05 -3.25 -1.3 -2.3 -2.25 -1.4 -3.15 -0.15 -3.2 L0.0 -3.2 Q1.35 -3.2 2.3 -2.25 3.3 -1.3 3.3 0.05 3.3 1.4 2.3 2.4 1.35 3.35 0.0 3.35 L-0.15 3.35" fill="url(#gradient2)" fill-rule="evenodd" stroke="none"/>
    <path d="M5.3 0.05 Q5.3 2.25 3.75 3.8 2.2 5.35 0.0 5.35 L-0.15 5.35 Q-2.25 5.3 -3.75 3.8 -5.3 2.25 -5.3 0.05 -5.3 -2.15 -3.75 -3.7 -2.25 -5.15 -0.15 -5.25 L0.0 -5.25 Q2.2 -5.25 3.75 -3.7 5.3 -2.15 5.3 0.05 M-0.15 3.35 Q-1.4 3.3 -2.3 2.4 -3.25 1.4 -3.25 0.05 -3.25 -1.3 -2.3 -2.25 -1.4 -3.15 -0.15 -3.2 L0.0 -3.2 Q1.35 -3.2 2.3 -2.25 3.3 -1.3 3.3 0.05 3.3 1.4 2.3 2.4 1.35 3.35 0.0 3.35 L-0.15 3.35" fill="none" stroke="#272524" stroke-linecap="round" stroke-linejoin="round" stroke-width="0.8"/>
    <path d="M-0.15 -3.2 L-0.15 -5.25 M-0.15 3.35 L-0.15 5.35" fill="none" stroke="#414141" stroke-linecap="round" stroke-linejoin="round" stroke-width="0.8"/>
    <path d="M-2.65 3.8 L-3.2 3.3 Q-4.5 2.0 -4.5 0.1 -4.5 -1.75 -3.2 -3.05 L-2.65 -3.55 M3.85 -2.2 Q4.5 -1.2 4.5 0.1 4.5 1.65 3.6 2.8" fill="none" stroke="#ff9933" stroke-linecap="round" stroke-linejoin="round" stroke-width="0.5"/>
    <path d="M6.85 0.05 Q6.85 2.85 4.85 4.85 2.85 6.85 0.0 6.85 L-0.15 6.85 Q-2.85 6.8 -4.8 4.85 -6.8 2.85 -6.8 0.05 -6.8 -2.8 -4.8 -4.8 -2.85 -6.7 -0.15 -6.8 L0.0 -6.8 Q2.85 -6.8 4.85 -4.8 6.85 -2.8 6.85 0.05 Z" fill="none" stroke="#474747" stroke-linecap="round" stroke-linejoin="round" stroke-width="1.0"/>
  </g>
  <defs>
    <radialGradient cx="0" cy="0" gradientTransform="matrix(0.0067, 0.0, 0.0, 0.0067, 0.2, -1.8)" gradientUnits="userSpaceOnUse" id="gradient0" r="819.2" spreadMethod="pad">
      <stop offset="0.0" stop-color="#cccccc"/>
      <stop offset="1.0" stop-color="#666666"/>
    </radialGradient>
    <radialGradient cx="0" cy="0" gradientTransform="matrix(0.0113, 0.0, 0.0, 0.0113, 1.35, -2.6)" gradientUnits="userSpaceOnUse" id="gradient1" r="819.2" spreadMethod="pad">
      <stop offset="0.0" stop-color="#cccccc"/>
      <stop offset="1.0" stop-color="#666666"/>
    </radialGradient>
    <radialGradient cx="0" cy="0" gradientTransform="matrix(0.0044, 0.0, 0.0, 0.0044, 0.0, 0.05)" gradientUnits="userSpaceOnUse" id="gradient2" r="819.2" spreadMethod="pad">
      <stop offset="0.0" stop-color="#f7a757"/>
      <stop offset="0.3568627450980392" stop-color="#000000"/>
      <stop offset="0.7647058823529411" stop-color="#ff9933"/>
      <stop offset="0.8862745098039215" stop-color="#3b2a19"/>
      <stop offset="1.0" stop-color="#000000"/>
    </radialGradient>
  </defs>
</svg>
