<?xml version="1.0" encoding="UTF-8" standalone="no"?>
<svg xmlns:ffdec="https://www.free-decompiler.com/flash" xmlns:xlink="http://www.w3.org/1999/xlink" ffdec:objectType="shape" height="17.85px" width="11.5px" xmlns="http://www.w3.org/2000/svg">
  <g transform="matrix(1.0, 0.0, 0.0, 1.0, 3.75, -3.0)">
    <path d="M-3.25 4.35 L-2.35 5.0 -2.6 3.85 -2.6 3.6 -2.35 3.5 Q-1.65 3.6 -0.25 4.75 L0.0 4.85 0.25 4.5 0.5 4.0 1.35 5.35 1.6 5.6 2.0 5.5 Q2.45 5.1 3.55 5.15 L5.25 5.0 M-1.0 19.75 Q-1.0 20.25 -0.35 20.25 0.0 20.35 1.0 19.35 1.5 19.65 1.5 20.1 L2.5 19.75 2.5 20.1 Q2.85 20.05 3.45 19.6 3.95 19.15 4.35 19.25 L4.9 19.7 5.25 20.35 7.25 18.85" fill="none" stroke="#ff0000" stroke-linecap="round" stroke-linejoin="round" stroke-width="1.0"/>
  </g>
</svg>
