<?xml version="1.0" encoding="UTF-8" standalone="no"?>
<svg xmlns:ffdec="https://www.free-decompiler.com/flash" xmlns:xlink="http://www.w3.org/1999/xlink" ffdec:objectType="shape" height="21.05px" width="13.05px" xmlns="http://www.w3.org/2000/svg">
  <g transform="matrix(1.0, 0.0, 0.0, 1.0, 3.45, -1.2)">
    <path d="M-2.75 2.6 L-2.95 2.3 -2.75 2.1 -2.0 2.25 Q-1.5 2.75 -1.25 2.6 L-1.0 2.35 Q-0.65 1.5 -0.25 1.75 -0.05 1.75 0.1 2.0 0.75 2.55 1.0 3.6 L3.1 2.6 3.85 3.75 4.25 4.0 4.7 3.8 5.1 3.75 4.85 4.5 M0.75 21.0 Q0.75 21.4 1.25 21.6 L2.1 21.5 2.6 21.35 2.95 21.4 3.0 21.75 Q4.35 21.5 5.0 20.25 L5.35 20.6 5.85 21.0 6.25 20.75 6.6 21.0 Q6.8 21.35 7.35 21.35 L7.8 21.05 7.85 20.6 9.1 20.6 8.75 20.25" fill="none" stroke="#ff0000" stroke-linecap="round" stroke-linejoin="round" stroke-width="1.0"/>
  </g>
</svg>
