<?xml version="1.0" encoding="UTF-8" standalone="no"?>
<svg xmlns:ffdec="https://www.free-decompiler.com/flash" xmlns:xlink="http://www.w3.org/1999/xlink" ffdec:objectType="shape" height="54.35px" width="38.85px" xmlns="http://www.w3.org/2000/svg">
  <g transform="matrix(1.0, 0.0, 0.0, 1.0, -0.75, 13.45)">
    <path d="M3.7 -11.25 L3.75 -11.1 3.05 -7.0 2.75 -5.25 1.25 -6.5 2.35 -12.95 3.7 -11.25" fill="url(#gradient0)" fill-rule="evenodd" stroke="none"/>
    <path d="M3.05 -7.0 L3.75 -11.1 3.7 -11.25 9.1 -3.8 7.9 -0.05 3.05 -7.0 M5.05 -8.9 L4.5 -5.55 5.05 -8.9" fill="url(#gradient1)" fill-rule="evenodd" stroke="none"/>
    <path d="M7.9 -0.05 L9.1 -3.8 9.4 -4.8 37.45 32.3 38.45 37.25 31.7 29.1 27.8 27.25 23.8 22.65 22.8 17.75 14.05 5.6 10.75 4.8 7.55 1.05 7.9 -0.05" fill="url(#gradient2)" fill-rule="evenodd" stroke="none"/>
    <path d="M9.4 -4.8 L11.85 -3.85 36.75 28.95 37.45 32.3 9.4 -4.8" fill="url(#gradient3)" fill-rule="evenodd" stroke="none"/>
    <path d="M38.45 37.25 L39.1 40.4 27.8 27.25 31.7 29.1 38.45 37.25" fill="url(#gradient4)" fill-rule="evenodd" stroke="none"/>
    <path d="M3.05 -7.0 L3.75 -11.1 3.7 -11.25 2.35 -12.95 1.25 -6.5 2.75 -5.25 3.05 -7.0 7.9 -0.05 9.1 -3.8 3.7 -11.25 M9.1 -3.8 L9.4 -4.8 11.85 -3.85 36.75 28.95 37.45 32.3 38.45 37.25 39.1 40.4 27.8 27.25 23.8 22.65 22.8 17.75 14.05 5.6 10.75 4.8 7.55 1.05 7.9 -0.05 M4.5 -5.55 L5.05 -8.9" fill="none" stroke="#000000" stroke-linecap="round" stroke-linejoin="round" stroke-width="1.0"/>
  </g>
  <defs>
    <radialGradient cx="0" cy="0" gradientTransform="matrix(0.0067, 0.0, 0.0, 0.0067, 1.65, -8.55)" gradientUnits="userSpaceOnUse" id="gradient0" r="819.2" spreadMethod="pad">
      <stop offset="0.0" stop-color="#756d5f"/>
      <stop offset="1.0" stop-color="#1f1f1f"/>
      <stop offset="1.0" stop-color="#333333"/>
      <stop offset="1.0" stop-color="#333333"/>
      <stop offset="1.0" stop-color="#202121"/>
      <stop offset="1.0" stop-color="#202121"/>
    </radialGradient>
    <radialGradient cx="0" cy="0" gradientTransform="matrix(0.0125, 0.0, 0.0, 0.0125, 10.4, -9.95)" gradientUnits="userSpaceOnUse" id="gradient1" r="819.2" spreadMethod="pad">
      <stop offset="0.0" stop-color="#333333"/>
      <stop offset="0.0" stop-color="#333333"/>
      <stop offset="0.5098039215686274" stop-color="#191919"/>
      <stop offset="1.0" stop-color="#333333"/>
    </radialGradient>
    <radialGradient cx="0" cy="0" gradientTransform="matrix(0.0424, 0.0, 0.0, 0.034, 22.4, 15.8)" gradientUnits="userSpaceOnUse" id="gradient2" r="819.2" spreadMethod="pad">
      <stop offset="0.0" stop-color="#333333"/>
      <stop offset="0.0" stop-color="#333333"/>
      <stop offset="0.5098039215686274" stop-color="#191919"/>
      <stop offset="1.0" stop-color="#333333"/>
    </radialGradient>
    <radialGradient cx="0" cy="0" gradientTransform="matrix(0.0697, 0.0, 0.0, 0.0559, 43.25, 31.95)" gradientUnits="userSpaceOnUse" id="gradient3" r="819.2" spreadMethod="pad">
      <stop offset="0.0" stop-color="#756d5f"/>
      <stop offset="1.0" stop-color="#1f1f1f"/>
      <stop offset="1.0" stop-color="#333333"/>
      <stop offset="1.0" stop-color="#333333"/>
      <stop offset="1.0" stop-color="#202121"/>
      <stop offset="1.0" stop-color="#202121"/>
    </radialGradient>
    <radialGradient cx="0" cy="0" gradientTransform="matrix(0.0135, 0.0, 0.0, 0.0108, 33.6, 32.55)" gradientUnits="userSpaceOnUse" id="gradient4" r="819.2" spreadMethod="pad">
      <stop offset="0.0" stop-color="#333333"/>
      <stop offset="0.0" stop-color="#333333"/>
      <stop offset="0.5098039215686274" stop-color="#191919"/>
      <stop offset="1.0" stop-color="#333333"/>
    </radialGradient>
  </defs>
</svg>
