<?xml version="1.0" encoding="UTF-8" standalone="no"?>
<svg xmlns:ffdec="https://www.free-decompiler.com/flash" xmlns:xlink="http://www.w3.org/1999/xlink" ffdec:objectType="shape" height="27.85px" width="13.85px" xmlns="http://www.w3.org/2000/svg">
  <g transform="matrix(1.0, 0.0, 0.0, 1.0, 2.85, 1.25)">
    <path d="M-2.0 1.5 L-2.35 -0.75 0.35 -0.6 0.75 -0.35 0.75 2.35 2.75 1.25 Q3.15 2.0 4.1 2.25 L4.95 2.4 Q5.45 2.55 5.6 2.85 M-0.35 21.85 L1.0 21.75 1.0 23.3 Q1.05 22.4 1.85 22.25 L3.35 22.35 Q4.65 22.65 5.0 23.0 L6.15 24.5 7.25 26.1 Q7.8 25.3 7.9 24.15 7.95 23.05 7.5 22.1 L10.0 22.25 10.5 22.25" fill="none" stroke="#ff0000" stroke-linecap="round" stroke-linejoin="round" stroke-width="1.0"/>
  </g>
</svg>
