<?xml version="1.0" encoding="UTF-8" standalone="no"?>
<svg xmlns:xlink="http://www.w3.org/1999/xlink" height="12.8px" width="8.6px" xmlns="http://www.w3.org/2000/svg">
  <g transform="matrix(1.0, 0.0, 0.0, 1.0, 0.0, 6.3)">
    <path d="M4.3 6.5 L4.0 6.5 Q2.35 6.5 1.15 4.65 0.0 2.75 0.0 0.1 0.0 -2.55 1.15 -4.4 2.35 -6.3 4.0 -6.3 L4.3 -6.25 4.3 6.5" fill="url(#gradient0)" fill-rule="evenodd" stroke="none"/>
    <path d="M4.3 -6.25 L4.55 -6.3 Q6.25 -6.3 7.4 -4.4 8.6 -2.55 8.6 0.1 8.6 2.75 7.4 4.65 6.25 6.5 4.55 6.5 L4.3 6.5 4.3 -6.25" fill="url(#gradient1)" fill-rule="evenodd" stroke="none"/>
  </g>
  <defs>
    <radialGradient cx="0" cy="0" gradientTransform="matrix(0.0, 0.0069, 0.0049, 0.0, 4.0, 0.1)" gradientUnits="userSpaceOnUse" id="gradient0" r="819.2" spreadMethod="pad">
      <stop offset="0.17647058823529413" stop-color="#ffffff"/>
      <stop offset="1.0" stop-color="#139ffd" stop-opacity="0.0"/>
    </radialGradient>
    <radialGradient cx="0" cy="0" gradientTransform="matrix(0.0, 0.0069, -0.0049, 0.0, 4.55, 0.1)" gradientUnits="userSpaceOnUse" id="gradient1" r="819.2" spreadMethod="pad">
      <stop offset="0.17647058823529413" stop-color="#ffffff"/>
      <stop offset="1.0" stop-color="#139ffd" stop-opacity="0.0"/>
    </radialGradient>
  </defs>
</svg>
