<?xml version="1.0" encoding="UTF-8" standalone="no"?>
<svg xmlns:ffdec="https://www.free-decompiler.com/flash" xmlns:xlink="http://www.w3.org/1999/xlink" ffdec:objectType="shape" height="28.6px" width="17.95px" xmlns="http://www.w3.org/2000/svg">
  <g transform="matrix(1.0, 0.0, 0.0, 1.0, 18.1, 29.95)">
    <path d="M-5.05 -1.85 L-6.0 -5.65 -9.75 -6.95 -10.15 -9.05 -10.15 -9.15 -10.95 -10.1 -11.1 -11.45 -11.8 -11.55 -13.35 -10.7 -15.6 -11.75 -15.65 -11.75 -17.6 -21.8 -15.85 -23.05 -14.35 -22.25 -13.35 -23.1 -12.75 -26.1 -11.0 -26.45 -10.8 -27.65 -3.95 -29.45 -3.9 -29.35 -2.85 -25.45 Q-3.85 -25.35 -4.4 -24.15 -4.75 -23.3 -4.45 -22.6 L-4.3 -22.1 Q-3.45 -21.35 -2.35 -21.25 L-2.35 -21.2 -2.05 -18.5 -2.8 -17.95 -2.8 -17.85 -2.7 -16.95 -2.6 -16.5 -2.55 -16.1 -1.75 -15.55 -1.6 -14.95 -0.75 -9.15 -0.85 -9.1 -3.65 -8.55 -3.7 -8.55 -4.0 -8.6 -5.45 -8.15 -6.0 -8.1 -6.1 -8.1 -7.0 -12.15 -7.05 -12.05 -8.95 -9.55 -10.15 -9.15 M-11.0 -26.45 L-11.0 -26.3 -11.15 -25.4 -11.1 -25.35 -9.1 -24.05 -8.6 -21.7 -8.5 -21.65 -5.7 -19.25 -5.7 -19.2 -4.6 -14.4 -2.55 -16.05 -2.55 -16.1 M-8.6 -21.7 L-9.4 -21.45 -8.85 -19.1 -8.15 -18.45 -8.1 -18.35 -7.3 -13.7 -7.15 -12.9 -7.0 -12.15 M-4.6 -14.4 L-4.6 -14.25 -3.7 -8.55 M-13.35 -23.1 L-11.9 -22.4 -11.9 -22.35 -11.65 -21.0 -11.65 -20.65 -12.25 -19.6 -11.1 -11.45 M-12.25 -19.6 L-14.1 -18.0 -13.1 -11.35" fill="none" stroke="#000000" stroke-linecap="round" stroke-linejoin="round" stroke-width="1.0"/>
    <path d="M-4.55 -25.7 Q-3.6 -26.35 -2.55 -26.1 -1.9 -26.0 -1.55 -25.55 L-0.85 -24.9 Q-0.45 -23.95 -0.8 -22.95 -1.0 -22.15 -1.6 -21.7 L-2.0 -21.25 Q-3.05 -20.7 -4.1 -20.95 -5.15 -21.15 -5.6 -22.0 -6.25 -23.0 -5.9 -24.0 -5.6 -25.05 -4.55 -25.7 M-5.2 -23.4 L-4.95 -22.55 Q-4.55 -21.8 -3.85 -21.7 -3.15 -21.5 -2.4 -22.0 L-2.15 -22.2 Q-1.7 -22.6 -1.55 -23.1 L-1.4 -23.7 Q-1.35 -24.1 -1.55 -24.4 L-2.05 -24.95 -2.8 -25.25 Q-3.55 -25.4 -4.25 -24.95 L-5.1 -23.9 -5.2 -23.4" fill="url(#gradient0)" fill-rule="evenodd" stroke="none"/>
    <path d="M-5.2 -23.4 L-5.1 -23.9 -4.25 -24.95 Q-3.55 -25.4 -2.8 -25.25 L-2.05 -24.95 -1.55 -24.4 Q-1.35 -24.1 -1.4 -23.7 L-1.55 -23.1 Q-1.7 -22.6 -2.15 -22.2 L-2.4 -22.0 Q-3.15 -21.5 -3.85 -21.7 -4.55 -21.8 -4.95 -22.55 L-5.2 -23.4" fill="#222222" fill-rule="evenodd" stroke="none"/>
    <path d="M-4.55 -25.7 Q-5.6 -25.05 -5.9 -24.0 -6.25 -23.0 -5.6 -22.0 -5.15 -21.15 -4.1 -20.95 -3.05 -20.7 -2.0 -21.25 L-1.6 -21.7 Q-1.0 -22.15 -0.8 -22.95 -0.45 -23.95 -0.85 -24.9 L-1.55 -25.55 Q-1.9 -26.0 -2.55 -26.1 -3.6 -26.35 -4.55 -25.7 Z" fill="none" stroke="#0f0f0f" stroke-linecap="round" stroke-linejoin="round" stroke-width="1.0"/>
    <path d="M-8.3 -17.8 L-9.5 -15.75 -9.0 -13.2 -7.1 -12.0 M-9.3 -20.15 L-11.55 -21.15 M-9.5 -15.75 L-10.95 -13.45" fill="none" stroke="#000000" stroke-linecap="round" stroke-linejoin="round" stroke-opacity="0.29803923" stroke-width="0.7000000000000001"/>
  </g>
  <defs>
    <radialGradient cx="0" cy="0" gradientTransform="matrix(-0.005, -0.0026, -0.0031, 0.0052, -3.95, -25.25)" gradientUnits="userSpaceOnUse" id="gradient0" r="819.2" spreadMethod="pad">
      <stop offset="0.0" stop-color="#756d5f"/>
      <stop offset="1.0" stop-color="#1f1f1f"/>
      <stop offset="1.0" stop-color="#333333"/>
      <stop offset="1.0" stop-color="#333333"/>
      <stop offset="1.0" stop-color="#202121"/>
      <stop offset="1.0" stop-color="#202121"/>
    </radialGradient>
  </defs>
</svg>
