<?xml version="1.0" encoding="UTF-8" standalone="no"?>
<svg xmlns:ffdec="https://www.free-decompiler.com/flash" xmlns:xlink="http://www.w3.org/1999/xlink" ffdec:objectType="shape" height="28.25px" width="24.95px" xmlns="http://www.w3.org/2000/svg">
  <g transform="matrix(1.0, 0.0, 0.0, 1.0, -0.1, 0.5)">
    <path d="M20.75 17.6 L21.15 17.6 20.95 19.8 Q21.05 18.7 20.75 17.6 M9.65 19.55 L10.05 18.35 12.3 19.05 10.0 19.55 9.65 19.55 M16.5 18.1 L17.45 17.7 17.45 17.85 16.5 18.1" fill="#3f3f3f" fill-rule="evenodd" stroke="none"/>
    <path d="M19.3 3.5 L18.65 3.3 18.7 3.3 19.3 3.5 M10.2 1.25 L10.3 1.2 10.25 1.25 10.2 1.25" fill="#323a27" fill-rule="evenodd" stroke="none"/>
    <path d="M9.15 1.4 L9.35 1.35 9.85 1.3 10.2 1.25 10.25 1.25 9.85 1.3 9.05 1.45 9.15 1.4" fill="#2f321f" fill-rule="evenodd" stroke="none"/>
    <path d="M10.85 22.85 L11.4 24.25 11.8 25.85 10.85 22.85" fill="#61704c" fill-rule="evenodd" stroke="none"/>
    <path d="M21.3 4.95 L21.0 4.95 20.6 5.9 16.4 4.25 17.4 4.2 18.65 3.3 19.3 3.5 20.3 3.75 21.3 4.95" fill="url(#gradient0)" fill-rule="evenodd" stroke="none"/>
    <path d="M18.9 25.8 L16.75 27.0 Q14.2 27.5 11.6 27.0 L10.2 25.85 11.8 25.85 11.4 24.25 Q14.3 24.95 17.55 24.25 L17.55 25.55 18.9 25.8" fill="url(#gradient1)" fill-rule="evenodd" stroke="none"/>
    <path d="M8.55 22.3 Q8.2 20.9 8.15 19.55 L8.4 21.4 10.0 21.9 17.55 22.25 18.4 22.25 17.55 22.4 17.55 24.25 Q14.3 24.95 11.4 24.25 L10.85 22.85 8.55 22.3" fill="url(#gradient2)" fill-rule="evenodd" stroke="none"/>
    <path d="M18.65 3.3 L17.4 4.2 16.4 4.25 9.85 1.3 10.25 1.25 10.3 1.2 Q9.35 0.05 12.5 0.0 L19.25 2.15 19.25 2.85 18.7 3.3 18.65 3.3" fill="url(#gradient3)" fill-rule="evenodd" stroke="none"/>
    <path d="M1.55 12.65 L0.6 11.3 0.6 4.3 1.55 2.7 2.6 3.15 2.6 12.65 1.55 12.65" fill="url(#gradient4)" fill-rule="evenodd" stroke="none"/>
    <path d="M24.55 12.85 L22.35 11.6 22.35 8.5 24.55 7.9 24.55 12.85" fill="url(#gradient5)" fill-rule="evenodd" stroke="none"/>
    <path d="M4.35 15.2 L2.2 14.25 1.55 12.65 2.6 12.65 2.6 3.15 1.55 2.7 2.1 1.2 7.15 0.6 8.25 1.3 8.45 1.6 8.5 1.7 8.7 1.95 8.6 3.7 8.3 8.15 6.55 11.75 6.4 13.1 6.25 14.5 4.35 15.2" fill="url(#gradient6)" fill-rule="evenodd" stroke="none"/>
    <path d="M20.6 5.9 L21.0 4.95 21.3 4.95 23.7 4.95 24.55 6.4 24.55 7.9 22.35 8.5 22.35 11.6 24.55 12.85 24.55 13.85 23.85 15.5 22.35 15.2 20.85 14.9 20.6 14.45 19.9 13.1 17.5 12.35 17.6 7.45 20.2 6.85 20.6 5.9" fill="url(#gradient7)" fill-rule="evenodd" stroke="none"/>
    <path d="M17.55 22.25 L10.0 21.9 8.4 21.4 8.15 19.55 9.65 19.55 10.0 19.55 12.3 19.05 16.5 18.1 17.45 17.85 17.55 22.25 M10.0 21.9 L10.0 19.55 10.0 21.9" fill="#202020" fill-rule="evenodd" stroke="none"/>
    <path d="M8.15 19.55 L5.75 18.85 4.35 15.2 6.25 14.5 6.4 13.1 8.1 12.75 9.9 14.1 10.6 16.8 10.05 18.35 9.65 19.55 8.15 19.55 M7.7 17.65 L7.05 15.5 7.7 17.65" fill="#1c1525" fill-rule="evenodd" stroke="none"/>
    <path d="M20.6 5.9 L20.2 6.85 17.6 7.45 10.25 3.95 8.8 3.95 8.8 3.7 8.6 3.7 8.7 1.95 8.5 1.7 9.05 1.45 9.85 1.3 16.4 4.25 20.6 5.9 M17.5 12.35 L19.9 13.1 20.6 14.45 10.6 16.8 9.9 14.1 17.5 12.35 M17.45 17.7 L17.45 17.1 20.35 16.5 20.75 17.6 Q21.05 18.7 20.95 19.8 L20.5 21.95 21.35 22.6 Q21.3 24.65 20.3 26.05 L18.9 25.8 17.55 25.55 17.55 24.25 17.55 22.4 18.4 22.25 20.35 22.25 20.5 21.95 20.35 22.25 18.4 22.25 17.55 22.25 17.45 17.85 17.45 17.7 M21.5 17.6 L21.15 16.45 22.0 16.45 23.1 16.45 Q24.35 19.4 23.1 22.3 L21.15 22.3 Q21.95 19.9 21.5 17.6 M10.2 25.85 L8.6 25.85 Q7.25 24.45 7.45 22.5 L8.55 22.3 10.85 22.85 11.8 25.85 10.2 25.85 M9.0 1.8 L8.7 1.95 9.0 1.8" fill="#151417" fill-rule="evenodd" stroke="none"/>
    <path d="M17.6 7.45 L17.5 12.35 9.9 14.1 8.1 12.75 6.4 13.1 6.55 11.75 8.3 8.15 8.6 3.7 8.8 3.7 8.8 3.95 10.25 3.95 17.6 7.45 M20.6 14.45 L20.85 14.9 22.35 15.2 22.0 16.45 21.15 16.45 21.5 17.6 21.15 17.6 20.75 17.6 20.35 16.5 17.45 17.1 17.45 17.7 16.5 18.1 12.3 19.05 10.05 18.35 10.6 16.8 20.6 14.45" fill="#191919" fill-rule="evenodd" stroke="none"/>
    <path d="M1.55 12.65 L0.6 11.3 0.6 4.3 1.55 2.7 M24.55 12.85 L24.55 7.9" fill="none" stroke="#331f8e" stroke-linecap="round" stroke-linejoin="round" stroke-opacity="0.8" stroke-width="1.0"/>
    <path d="M21.3 4.95 L20.3 3.75 19.3 3.5 18.65 3.3 17.4 4.2 16.4 4.25 20.6 5.9 M17.45 17.7 L17.45 17.1 20.35 16.5 20.75 17.6 21.15 17.6 21.5 17.6 21.15 16.45 22.0 16.45 22.35 15.2 M22.0 16.45 L23.1 16.45 Q24.35 19.4 23.1 22.3 L21.15 22.3 Q21.95 19.9 21.5 17.6 M20.95 19.8 L20.5 21.95 21.35 22.6 Q21.3 24.65 20.3 26.05 L18.9 25.8 16.75 27.0 Q14.2 27.5 11.6 27.0 L10.2 25.85 8.6 25.85 Q7.25 24.45 7.45 22.5 L8.55 22.3 Q8.2 20.9 8.15 19.55 L5.75 18.85 4.35 15.2 M8.25 1.3 L9.15 1.4 9.35 1.35 9.85 1.3 10.2 1.25 10.25 1.25 9.85 1.3 16.4 4.25 M10.3 1.2 Q9.35 0.05 12.5 0.0 L19.25 2.15 19.25 2.85 18.7 3.3 19.3 3.5 M20.5 21.95 L20.35 22.25 18.4 22.25 17.55 22.4 17.55 24.25 17.55 25.55 18.9 25.8 M20.75 17.6 Q21.05 18.7 20.95 19.8 L21.15 17.6 M18.7 3.3 L18.65 3.3 M8.8 3.95 L10.25 3.95 17.6 7.45 M9.05 1.45 L9.85 1.3 M9.15 1.4 L9.05 1.45 8.5 1.7 M8.7 1.95 L9.0 1.8 M9.05 1.45 L8.45 1.6 M8.6 3.7 L8.8 3.7 M6.4 13.1 L8.1 12.75 9.9 14.1 17.5 12.35 M7.05 15.5 L7.7 17.65 M17.55 22.25 L10.0 21.9 8.4 21.4 8.15 19.55 9.65 19.55 10.05 18.35 10.6 16.8 9.9 14.1 M9.65 19.55 L10.0 19.55 12.3 19.05 10.05 18.35 M10.0 19.55 L10.0 21.9 M17.45 17.7 L16.5 18.1 17.45 17.85 17.45 17.7 M11.4 24.25 Q14.3 24.95 17.55 24.25 M18.4 22.25 L17.55 22.25 17.45 17.85 M16.5 18.1 L12.3 19.05 M8.55 22.3 L10.85 22.85 11.8 25.85 10.2 25.85 M10.6 16.8 L20.6 14.45" fill="none" stroke="#070a0a" stroke-linecap="round" stroke-linejoin="round" stroke-width="1.0"/>
    <path d="M8.5 1.7 L8.7 1.95 8.3 8.15 6.55 11.75 6.25 14.5 4.35 15.2 2.2 14.25 1.55 12.65 2.6 12.65 2.6 3.15 1.55 2.7 2.1 1.2 7.15 0.6 8.25 1.3 8.45 1.6 8.5 1.7 Z" fill="none" stroke="#1a1024" stroke-linecap="round" stroke-linejoin="round" stroke-width="1.0"/>
    <path d="M19.9 13.1 L20.85 14.9 23.85 15.5 24.55 13.85 24.55 12.85 22.35 11.6 22.35 8.5 24.55 7.9 24.55 6.4 23.7 4.95 21.0 4.95 20.2 6.85 17.6 7.45 17.5 12.35 19.9 13.1 Z" fill="none" stroke="#1a1024" stroke-linecap="round" stroke-linejoin="round" stroke-width="1.0"/>
  </g>
  <defs>
    <linearGradient gradientTransform="matrix(0.003, 0.0, 0.0, 0.0016, 18.85, 4.6)" gradientUnits="userSpaceOnUse" id="gradient0" spreadMethod="pad" x1="-819.2" x2="819.2">
      <stop offset="0.0" stop-color="#161616"/>
      <stop offset="1.0" stop-color="#292929"/>
    </linearGradient>
    <linearGradient gradientTransform="matrix(0.0053, 0.0, 0.0, 0.0018, 14.55, 25.75)" gradientUnits="userSpaceOnUse" id="gradient1" spreadMethod="pad" x1="-819.2" x2="819.2">
      <stop offset="0.0" stop-color="#161616"/>
      <stop offset="1.0" stop-color="#292929"/>
    </linearGradient>
    <linearGradient gradientTransform="matrix(0.0063, 0.0, 0.0, 0.0031, 13.25, 22.05)" gradientUnits="userSpaceOnUse" id="gradient2" spreadMethod="pad" x1="-819.2" x2="819.2">
      <stop offset="0.0" stop-color="#161616"/>
      <stop offset="1.0" stop-color="#292929"/>
    </linearGradient>
    <linearGradient gradientTransform="matrix(0.0057, 0.0, 0.0, 0.0026, 14.55, 2.1)" gradientUnits="userSpaceOnUse" id="gradient3" spreadMethod="pad" x1="-819.2" x2="819.2">
      <stop offset="0.0" stop-color="#161616"/>
      <stop offset="1.0" stop-color="#292929"/>
    </linearGradient>
    <linearGradient gradientTransform="matrix(0.0012, 0.0, 0.0, 0.0061, 1.6, 7.65)" gradientUnits="userSpaceOnUse" id="gradient4" spreadMethod="pad" x1="-819.2" x2="819.2">
      <stop offset="0.0" stop-color="#510abb"/>
      <stop offset="0.6" stop-color="#8d4fe9"/>
      <stop offset="1.0" stop-color="#bd66ff"/>
    </linearGradient>
    <linearGradient gradientTransform="matrix(0.0013, 0.0, 0.0, 0.003, 23.45, 10.35)" gradientUnits="userSpaceOnUse" id="gradient5" spreadMethod="pad" x1="-819.2" x2="819.2">
      <stop offset="0.0" stop-color="#510abb"/>
      <stop offset="0.6" stop-color="#8d4fe9"/>
      <stop offset="1.0" stop-color="#bd66ff"/>
    </linearGradient>
    <radialGradient cx="0" cy="0" gradientTransform="matrix(0.0192, 0.0, 0.0, 0.0368, 5.05, -3.15)" gradientUnits="userSpaceOnUse" id="gradient6" r="819.2" spreadMethod="pad">
      <stop offset="0.0" stop-color="#211a2e"/>
      <stop offset="1.0" stop-color="#3b2b58"/>
    </radialGradient>
    <radialGradient cx="0" cy="0" gradientTransform="matrix(0.0117, 0.0, 0.0, 0.0117, 17.6, 8.35)" gradientUnits="userSpaceOnUse" id="gradient7" r="819.2" spreadMethod="pad">
      <stop offset="0.0" stop-color="#211a2e"/>
      <stop offset="1.0" stop-color="#3b2b58"/>
    </radialGradient>
  </defs>
</svg>
