<?xml version="1.0" encoding="UTF-8" standalone="no"?>
<svg xmlns:ffdec="https://www.free-decompiler.com/flash" xmlns:xlink="http://www.w3.org/1999/xlink" ffdec:objectType="shape" height="28.5px" width="36.6px" xmlns="http://www.w3.org/2000/svg">
  <g transform="matrix(1.0, 0.0, 0.0, 1.0, 24.5, 31.1)">
    <path d="M0.2 -25.65 L5.55 -24.1 8.15 -26.15 Q9.75 -24.35 10.6 -22.15 L8.45 -19.35 8.75 -16.7 10.45 -15.2 9.3 -12.6 7.95 -11.95 6.6 -10.25 4.6 -11.15 0.95 -8.95 -5.5 -9.9 -2.75 -17.7 -3.2 -25.5 0.2 -25.65" fill="url(#gradient0)" fill-rule="evenodd" stroke="none"/>
    <path d="M-0.3 -28.1 L2.25 -28.25 Q5.0 -28.15 8.15 -26.15 L5.55 -24.1 0.2 -25.65 -0.3 -28.1 M10.45 -15.2 L8.75 -16.7 8.45 -19.35 10.6 -22.15 11.65 -17.85 10.45 -15.2" fill="#26353e" fill-rule="evenodd" stroke="none"/>
    <path d="M-5.5 -9.9 L0.95 -8.95 -0.3 -3.7 -4.4 -4.5 -7.0 -4.5 -8.4 -7.0 -5.5 -9.9" fill="#152026" fill-rule="evenodd" stroke="none"/>
    <path d="M-16.25 -12.35 L-16.65 -18.1 -16.3 -25.05 Q-14.6 -23.5 -14.55 -21.35 L-14.55 -15.85 Q-14.4 -13.45 -16.25 -12.35" fill="url(#gradient1)" fill-rule="evenodd" stroke="none"/>
    <path d="M-14.2 -28.05 L-13.35 -30.25 -9.75 -30.65 -7.2 -27.9 -6.65 -25.35 -11.1 -25.5 -14.2 -28.05" fill="#26353e" fill-rule="evenodd" stroke="none"/>
    <path d="M-16.3 -25.05 L-15.6 -27.05 -11.0 -22.15 -11.4 -14.95 Q-13.8 -11.8 -16.25 -12.35 -14.4 -13.45 -14.55 -15.85 L-14.55 -21.35 Q-14.6 -23.5 -16.3 -25.05" fill="url(#gradient2)" fill-rule="evenodd" stroke="none"/>
    <path d="M-12.0 -10.85 L-14.45 -10.85 -16.25 -12.35 Q-13.8 -11.8 -11.4 -14.95 L-10.4 -11.45 -12.0 -10.85" fill="#26353e" fill-rule="evenodd" stroke="none"/>
    <path d="M-6.65 -25.35 L-5.15 -21.6 -2.95 -21.6 -2.75 -17.7 -5.5 -9.9 -8.85 -12.1 -10.4 -11.45 -11.4 -14.95 -11.0 -22.15 -15.6 -27.05 -14.2 -28.05 -11.1 -25.5 -6.65 -25.35 -7.2 -27.9 -0.3 -28.1 0.2 -25.65 -6.65 -25.35" fill="#152026" fill-rule="evenodd" stroke="none"/>
    <path d="M0.95 -8.95 L4.6 -11.15 7.9 -9.7 Q5.8 -3.85 5.15 -3.55 L2.6 -3.05 Q1.6 -2.9 -0.3 -3.7 L0.95 -8.95" fill="#26353e" fill-rule="evenodd" stroke="none"/>
    <path d="M-3.2 -25.5 L-2.95 -21.6 -5.15 -21.6 -6.65 -25.35 -3.2 -25.5 M-8.5 -9.5 L-12.0 -10.85 -8.85 -12.1 -5.5 -9.9 -8.4 -7.0 -8.5 -9.5" fill="#152026" fill-rule="evenodd" stroke="none"/>
    <path d="M-2.75 -17.7 L-11.2 -18.55 -11.4 -14.95 -10.4 -11.45 -8.85 -12.1 -5.5 -9.9 0.95 -8.95 4.6 -11.15 6.6 -10.25 7.95 -11.95 9.3 -12.6 11.65 -17.85 10.6 -22.15 Q9.75 -24.35 8.15 -26.15 5.0 -28.15 2.25 -28.25 L-0.3 -28.1 0.2 -25.65 M6.6 -10.25 L7.9 -9.7 Q5.8 -3.85 5.15 -3.55 L2.6 -3.05 Q1.6 -2.9 -0.3 -3.7 L-4.4 -4.5 -7.0 -4.5 -8.4 -7.0 -8.5 -9.5 -12.0 -10.85 -14.45 -10.85 -16.25 -12.35 -16.65 -18.1 -16.3 -25.05 -15.6 -27.05 -14.2 -28.05 -13.35 -30.25 -9.75 -30.65 -7.2 -27.9 -0.3 -28.1 M0.85 -13.7 L2.4 -14.25 M-2.95 -21.6 L-5.15 -21.6 -6.65 -25.35 M-16.3 -25.05 Q-14.6 -23.5 -14.55 -21.35 L-14.55 -15.85 Q-14.4 -13.45 -16.25 -12.35 -13.8 -11.8 -11.4 -14.95 M-15.6 -27.05 L-11.0 -22.15 -11.2 -18.55 M-12.0 -10.85 L-10.4 -11.45 M-0.3 -3.7 L0.95 -8.95 M-5.5 -9.9 L-8.4 -7.0 M0.45 -11.25 L2.4 -11.9" ffdec:has-small-stroke="true" ffdec:original-stroke-width="0.95" fill="none" stroke="#070a0a" stroke-linecap="round" stroke-linejoin="round" stroke-width="1.0"/>
    <path d="M-7.2 -27.9 L-6.65 -25.35 -3.2 -25.5 0.2 -25.65 5.55 -24.1 8.15 -26.15 M-6.65 -25.35 L-11.1 -25.5 -14.2 -28.05 M-3.2 -25.5 L-2.75 -17.7 -5.5 -9.9 M10.45 -15.2 L8.75 -16.7 8.45 -19.35 10.6 -22.15" ffdec:has-small-stroke="true" ffdec:original-stroke-width="0.95" fill="none" stroke="#0b1114" stroke-linecap="round" stroke-linejoin="round" stroke-width="1.0"/>
    <path d="M-22.75 -8.4 Q-24.4 -14.85 -24.5 -18.1 -24.55 -19.85 -23.9 -23.55 L-23.25 -26.9 -15.9 -23.9 -15.95 -23.8 Q-16.3 -20.1 -15.85 -13.3 L-22.75 -8.4" fill="url(#gradient3)" fill-rule="evenodd" stroke="none"/>
  </g>
  <defs>
    <linearGradient gradientTransform="matrix(0.0098, 0.0, 0.0, 0.0098, 2.55, -17.55)" gradientUnits="userSpaceOnUse" id="gradient0" spreadMethod="pad" x1="-819.2" x2="819.2">
      <stop offset="0.0" stop-color="#485b70"/>
      <stop offset="1.0" stop-color="#283742"/>
    </linearGradient>
    <linearGradient gradientTransform="matrix(0.0013, 0.0, 0.0, 0.0013, -15.6, -18.7)" gradientUnits="userSpaceOnUse" id="gradient1" spreadMethod="pad" x1="-819.2" x2="819.2">
      <stop offset="0.0" stop-color="#0a4c75"/>
      <stop offset="1.0" stop-color="#67bef6"/>
    </linearGradient>
    <linearGradient gradientTransform="matrix(0.0032, 0.0, 0.0, 0.0032, -13.65, -19.65)" gradientUnits="userSpaceOnUse" id="gradient2" spreadMethod="pad" x1="-819.2" x2="819.2">
      <stop offset="0.0" stop-color="#283842"/>
      <stop offset="1.0" stop-color="#475c70"/>
    </linearGradient>
    <linearGradient gradientTransform="matrix(0.005, 1.0E-4, -1.0E-4, 0.005, -19.9, -17.65)" gradientUnits="userSpaceOnUse" id="gradient3" spreadMethod="pad" x1="-819.2" x2="819.2">
      <stop offset="0.0" stop-color="#67bef6" stop-opacity="0.02745098"/>
      <stop offset="1.0" stop-color="#67bef6" stop-opacity="0.2"/>
    </linearGradient>
  </defs>
</svg>
