<?xml version="1.0" encoding="UTF-8" standalone="no"?>
<svg xmlns:ffdec="https://www.free-decompiler.com/flash" xmlns:xlink="http://www.w3.org/1999/xlink" ffdec:objectType="shape" height="42.0px" width="30.15px" xmlns="http://www.w3.org/2000/svg">
  <g transform="matrix(1.0, 0.0, 0.0, 1.0, 2.1, -0.3)">
    <path d="M22.7 20.0 L23.25 19.15 27.0 23.85 Q28.1 26.05 27.0 27.8 25.9 29.55 23.9 29.45 L22.0 27.05 22.6 25.3 20.6 23.0 22.7 20.0" fill="url(#gradient0)" fill-rule="evenodd" stroke="none"/>
    <path d="M22.7 20.0 L20.6 23.0 22.6 25.3 22.0 27.05 19.4 28.15 19.4 30.5 20.5 31.9 21.8 34.1 22.55 34.1 22.55 37.4 21.8 40.55 Q20.6 41.75 17.75 41.8 15.3 41.85 14.1 40.45 L13.4 37.4 13.4 36.3 15.2 36.3 15.2 33.8 13.6 32.2 16.25 32.2 16.25 28.8 15.3 28.8 15.3 28.1 15.3 26.05 12.4 22.75 12.4 18.2 Q13.3 17.3 14.15 17.2 13.4 15.55 14.8 14.45 17.9 12.7 19.55 15.6 L19.55 17.15 Q21.55 17.95 22.7 20.0 M19.55 17.15 L14.75 17.15 14.15 17.2 14.75 17.15 19.55 17.15 M22.55 37.4 L13.4 37.4 22.55 37.4" fill="#191919" fill-rule="evenodd" stroke="none"/>
    <path d="M8.85 17.45 Q6.35 18.4 6.65 22.9 L6.65 23.05 6.65 23.15 6.7 23.5 6.7 23.6 7.35 25.45 7.7 26.2 7.35 25.45 6.7 23.6 6.7 23.5 6.65 23.15 6.65 23.05 6.65 22.9 Q6.35 18.4 8.85 17.45 M9.6 27.1 L8.6 26.2 7.7 26.2 6.8 26.2 Q5.25 23.05 6.05 19.35 6.5 17.35 8.8 16.7 L12.4 16.7 12.4 18.2 12.4 22.75 15.3 26.05 15.3 28.1 15.3 28.8 12.4 28.8 10.6 28.0 9.6 27.1 M15.3 28.1 L13.2 28.15 11.0 27.25 9.3 25.4 7.35 25.45 9.3 25.4 11.0 27.25 13.2 28.15 15.3 28.1" fill="url(#gradient1)" fill-rule="evenodd" stroke="none"/>
    <path d="M15.3 28.8 L16.25 28.8 16.25 32.2 13.6 32.2 11.6 32.2 9.1 30.0 9.6 27.1 10.6 28.0 12.4 28.8 15.3 28.8" fill="url(#gradient2)" fill-rule="evenodd" stroke="none"/>
    <path d="M22.0 27.05 L23.9 29.45 23.35 34.1 22.55 34.1 21.8 34.1 20.5 31.9 19.4 30.5 19.4 28.15 22.0 27.05" fill="url(#gradient3)" fill-rule="evenodd" stroke="none"/>
    <path d="M13.6 32.2 L15.2 33.8 15.2 36.3 13.4 36.3 11.6 34.15 11.6 32.2 13.6 32.2" fill="url(#gradient4)" fill-rule="evenodd" stroke="none"/>
    <path d="M9.6 27.1 L8.6 26.2 7.7 26.2 6.8 26.2 Q5.25 23.05 6.05 19.35 6.5 17.35 8.8 16.7 L12.4 16.7 12.4 18.2 Q13.3 17.3 14.15 17.2 13.4 15.55 14.8 14.45 17.9 12.7 19.55 15.6 L19.55 17.15 Q21.55 17.95 22.7 20.0 M14.15 17.2 L14.75 17.15 19.55 17.15 M12.4 18.2 L12.4 22.75 M15.3 28.1 L15.3 28.8 M13.4 36.3 L13.4 37.4 22.55 37.4 22.55 34.1 23.35 34.1 M9.6 27.1 L10.6 28.0 12.4 28.8 M11.6 32.2 L11.6 34.15 13.4 36.3 M11.6 32.2 L13.6 32.2 M9.6 27.1 L9.1 30.0 11.6 32.2 M13.4 37.4 L14.1 40.45 Q15.3 41.85 17.75 41.8 20.6 41.75 21.8 40.55 L22.55 37.4" fill="none" stroke="#0f0f0f" stroke-linecap="round" stroke-linejoin="round" stroke-width="1.0"/>
    <path d="M7.7 26.2 L7.35 25.45 6.7 23.6 6.7 23.5 6.65 23.15 6.65 23.05 6.65 22.9 Q6.35 18.4 8.85 17.45 M7.35 25.45 L9.3 25.4 11.0 27.25 13.2 28.15 15.3 28.1" fill="none" stroke="#666666" stroke-linecap="round" stroke-linejoin="round" stroke-width="1.0"/>
    <path d="M20.6 23.0 L22.6 25.3 22.0 27.05 23.9 29.45 Q25.9 29.55 27.0 27.8 28.1 26.05 27.0 23.85 M12.4 22.75 L15.3 26.05 15.3 28.1 M15.3 28.8 L16.25 28.8 16.25 32.2 13.6 32.2 15.2 33.8 15.2 36.3 13.4 36.3 M22.55 34.1 L21.8 34.1 20.5 31.9 19.4 30.5 19.4 28.15 22.0 27.05 M12.4 28.8 L15.3 28.8 M23.35 34.1 L23.9 29.45" fill="none" stroke="#474747" stroke-linecap="round" stroke-linejoin="round" stroke-width="1.0"/>
    <path d="M5.4 15.9 L5.6 15.85 7.85 15.9 10.45 15.9 Q12.1 15.9 12.3 17.85 L12.35 20.95 12.35 24.0 6.05 24.0 4.7 24.0 2.75 24.0 1.9 22.7 1.9 17.9 Q2.25 16.7 3.65 16.2 L5.4 15.9 M4.35 21.9 L4.35 19.65 4.35 21.9 M8.4 19.05 L7.2 19.05 8.4 19.05 M9.6 20.3 L7.2 20.3 9.6 20.3 M8.4 22.35 L8.4 21.4 8.4 22.35 M5.6 23.25 L5.6 16.75 5.6 23.25 M3.15 20.45 L3.15 18.4 3.15 20.45" fill="#232323" fill-rule="evenodd" stroke="none"/>
    <path d="M4.7 24.0 L6.05 24.0 12.35 24.0 12.35 32.0 6.05 32.0 2.7 32.0 2.75 24.5 4.7 24.0 M6.05 24.0 L6.05 32.0 6.05 24.0" fill="#242424" fill-rule="evenodd" stroke="none"/>
    <path d="M2.7 32.0 L6.05 32.0 12.35 32.0 12.35 39.6 5.8 36.9 2.7 32.0 M6.05 32.7 L6.05 32.0 6.05 32.7" fill="#333333" fill-rule="evenodd" stroke="none"/>
    <path d="M4.15 4.4 L5.4 6.35 5.4 15.9 M7.85 15.9 L7.85 8.05" fill="none" stroke="#111111" stroke-linecap="round" stroke-linejoin="round" stroke-opacity="0.7372549" stroke-width="1.0"/>
    <path d="M1.9 1.05 L4.15 4.4" fill="none" stroke="#0f0f0f" stroke-linecap="round" stroke-linejoin="round" stroke-width="1.5"/>
    <path d="M5.4 15.9 L5.6 15.85 7.85 15.9 10.45 15.9 Q12.1 15.9 12.3 17.85 L12.35 20.95 12.35 24.0 M5.4 15.9 L3.65 16.2 Q2.25 16.7 1.9 17.9 L1.9 22.7 2.75 24.0 M2.7 32.0 L5.8 36.9 12.35 39.6 12.35 32.0" fill="none" stroke="#141313" stroke-linecap="round" stroke-linejoin="round" stroke-width="1.0"/>
    <path d="M2.75 24.0 L4.7 24.0 6.05 24.0 12.35 24.0 12.35 32.0 6.05 32.0 6.05 24.0 M2.75 24.5 L2.7 32.0 6.05 32.0 M2.75 24.5 L2.75 24.0" fill="none" stroke="#0f0f0f" stroke-linecap="round" stroke-linejoin="round" stroke-width="1.0"/>
    <path d="M4.35 19.65 L4.35 21.9 M3.15 18.4 L3.15 20.45 M6.05 32.0 L6.05 32.7" fill="none" stroke="#ff9933" stroke-linecap="round" stroke-linejoin="round" stroke-width="1.0"/>
    <path d="M8.4 21.4 L8.4 22.35 M7.2 20.3 L9.6 20.3 M7.2 19.05 L8.4 19.05" ffdec:has-small-stroke="true" ffdec:original-stroke-width="0.7" fill="none" stroke="#ff9933" stroke-linecap="round" stroke-linejoin="round" stroke-width="1.0"/>
    <path d="M5.6 16.75 L5.6 23.25" fill="none" stroke="#2b2b2b" stroke-linecap="round" stroke-linejoin="round" stroke-width="1.0"/>
    <path d="M6.65 20.3 Q4.25 22.5 4.05 24.65 L4.0 25.4 3.05 26.9 Q2.55 27.1 1.55 25.85 1.1 23.25 2.6 20.95 L4.7 17.95 6.25 16.65 Q7.05 15.85 8.75 15.95 10.85 16.15 12.55 18.5 L10.95 17.5 Q8.15 18.75 6.65 20.3" fill="#1e1e1e" fill-rule="evenodd" stroke="none"/>
    <path d="M3.05 26.9 L4.0 25.4 4.05 24.65 Q4.25 22.5 6.65 20.3 L12.65 21.55 12.25 24.05 Q8.2 21.45 4.95 25.35 2.6 28.05 3.05 26.9 M12.65 33.65 L12.65 34.65 6.35 34.65 6.35 36.8 12.9 36.8 13.0 39.25 12.65 39.85 12.05 40.45 6.7 40.45 5.35 39.55 5.3 38.65 4.9 32.6 6.25 32.6 6.25 33.45 12.65 33.65" fill="#171717" fill-rule="evenodd" stroke="none"/>
    <path d="M6.65 20.3 Q8.15 18.75 10.95 17.5 L12.55 18.5 12.65 20.95 12.65 21.55 6.65 20.3" fill="#1c1c1c" fill-rule="evenodd" stroke="none"/>
    <path d="M11.45 28.9 L12.25 29.0 12.5 31.6 6.25 31.65 6.25 32.6 4.9 32.6 4.65 29.5 5.6 28.9 11.45 28.9 M12.65 34.65 L12.85 34.65 12.9 34.75 12.65 34.65" fill="#202020" fill-rule="evenodd" stroke="none"/>
    <path d="M12.5 31.6 Q13.25 32.7 12.65 33.65 L6.25 33.45 6.25 32.6 6.25 31.65 12.5 31.6 M12.9 34.75 Q13.25 35.95 12.85 36.55 L12.9 36.8 6.35 36.8 6.35 34.65 12.65 34.65 12.9 34.75 M-1.5 35.65 Q-1.75 33.65 -1.3 31.35 -0.15 30.2 1.25 30.3 L2.85 30.6 3.25 32.2 1.2 33.85 0.6 35.65 -1.5 35.65" fill="#232323" fill-rule="evenodd" stroke="none"/>
    <path d="M1.55 25.85 Q2.55 27.1 3.05 26.9 2.6 28.05 4.95 25.35 8.2 21.45 12.25 24.05 L11.45 28.9 5.6 28.9 4.65 29.5 4.9 32.6 5.3 38.65 4.25 38.5 3.7 38.15 0.55 39.25 Q-0.75 38.8 -1.3 37.2 L-1.5 35.65 0.6 35.65 1.2 33.85 3.25 32.2 2.85 30.6 1.25 30.3 1.25 28.7 1.55 25.85 M3.7 38.15 Q3.85 35.4 3.25 32.2 3.85 35.4 3.7 38.15" fill="#191919" fill-rule="evenodd" stroke="none"/>
    <path d="M3.05 26.9 L4.0 25.4 4.05 24.65 Q4.25 22.5 6.65 20.3 8.15 18.75 10.95 17.5 L12.55 18.5 Q10.85 16.15 8.75 15.95 7.05 15.85 6.25 16.65 L4.7 17.95 2.6 20.95 Q1.1 23.25 1.55 25.85 2.55 27.1 3.05 26.9 M12.25 24.05 L12.65 21.55 6.65 20.3 M12.55 18.5 L12.65 20.95 12.65 21.55 M11.45 28.9 L12.25 29.0 12.5 31.6 Q13.25 32.7 12.65 33.65 L12.65 34.65 12.85 34.65 12.9 34.75 Q13.25 35.95 12.85 36.55 L12.9 36.8 13.0 39.25 12.65 39.85 12.05 40.45 6.7 40.45 5.35 39.55 5.3 38.65 4.25 38.5 3.7 38.15 0.55 39.25 Q-0.75 38.8 -1.3 37.2 L-1.5 35.65 Q-1.75 33.65 -1.3 31.35 -0.15 30.2 1.25 30.3 L1.25 28.7 1.55 25.85 M12.65 34.65 L12.9 34.75 M-1.5 35.65 L0.6 35.65 1.2 33.85 3.25 32.2 2.85 30.6 1.25 30.3 M12.9 36.8 L6.35 36.8 6.35 34.65 12.65 34.65 M12.65 33.65 L6.25 33.45 6.25 32.6 6.25 31.65 12.5 31.6 M4.9 32.6 L5.3 38.65 M11.45 28.9 L5.6 28.9 4.65 29.5 4.9 32.6 M3.25 32.2 Q3.85 35.4 3.7 38.15 M12.25 24.05 L11.45 28.9" fill="none" stroke="#070707" stroke-linecap="round" stroke-linejoin="round" stroke-width="1.0"/>
    <path d="M-0.75 21.35 Q2.5 22.0 6.2 21.35 7.85 20.1 5.2 19.7 2.55 19.3 -0.65 19.75 L-0.6 19.65 Q-0.4 18.0 0.1 17.45 L0.85 16.65 1.5 16.15 Q2.55 15.6 4.15 15.2 L9.5 14.8 Q10.05 15.05 10.35 15.75 L10.35 15.8 11.1 17.1 Q11.05 17.75 11.4 18.75 11.75 19.75 11.7 20.5 L11.7 20.7 11.65 21.0 10.15 22.95 Q9.05 23.9 8.85 24.4 L8.8 24.55 8.85 25.05 8.55 25.4 6.75 27.15 5.4 27.55 0.3 28.9 -0.2 27.9 -0.3 25.55 -0.65 22.15 -0.75 21.35 M8.8 24.55 L6.75 27.15 8.8 24.55 M4.9 26.45 L4.7 26.3 4.9 26.45 M2.3 27.15 L2.05 26.95 2.3 27.15" fill="url(#gradient5)" fill-rule="evenodd" stroke="none"/>
    <path d="M-0.65 19.75 Q2.55 19.3 5.2 19.7 7.85 20.1 6.2 21.35 2.5 22.0 -0.75 21.35 L-0.65 19.75" fill="#cc9933" fill-opacity="0.29803923" fill-rule="evenodd" stroke="none"/>
    <path d="M-0.65 19.75 Q2.55 19.3 5.2 19.7 7.85 20.1 6.2 21.35 2.5 22.0 -0.75 21.35 L-0.65 22.15 -0.3 25.55 -0.2 27.9 0.3 28.9 5.4 27.55 6.75 27.15 8.8 24.55 10.15 22.95 11.65 21.0 12.15 20.25 Q12.0 19.1 11.45 18.0 L11.1 17.1 10.35 15.8 M10.35 15.75 Q10.05 15.05 9.5 14.8 L4.15 15.2 Q2.55 15.6 1.5 16.15 L0.85 16.65 0.1 17.45 Q-0.4 18.0 -0.6 19.65 L-0.65 19.75 -0.75 21.35 M2.05 26.95 L2.3 27.15 M4.7 26.3 L4.9 26.45" fill="none" stroke="#0e0e0e" stroke-linecap="round" stroke-linejoin="round" stroke-width="1.0"/>
    <path d="M22.7 20.0 L20.6 23.0" fill="none" stroke="#474747" stroke-linecap="round" stroke-linejoin="round" stroke-width="1.0"/>
    <path d="M27.0 23.85 Q23.75 18.9 22.85 19.85" fill="none" stroke="#474747" stroke-linecap="round" stroke-linejoin="round" stroke-width="1.0"/>
  </g>
  <defs>
    <radialGradient cx="0" cy="0" gradientTransform="matrix(0.008, 0.0, 0.0, 0.008, 26.15, 23.5)" gradientUnits="userSpaceOnUse" id="gradient0" r="819.2" spreadMethod="pad">
      <stop offset="0.0" stop-color="#cccccc"/>
      <stop offset="1.0" stop-color="#3c3c3c"/>
      <stop offset="1.0" stop-color="#666666"/>
      <stop offset="1.0" stop-color="#666666"/>
    </radialGradient>
    <radialGradient cx="0" cy="0" gradientTransform="matrix(0.0147, 0.0, 0.0, 0.0147, 9.1, 20.25)" gradientUnits="userSpaceOnUse" id="gradient1" r="819.2" spreadMethod="pad">
      <stop offset="0.0" stop-color="#cccccc"/>
      <stop offset="1.0" stop-color="#3c3c3c"/>
      <stop offset="1.0" stop-color="#666666"/>
      <stop offset="1.0" stop-color="#666666"/>
    </radialGradient>
    <radialGradient cx="0" cy="0" gradientTransform="matrix(0.0072, 0.0, 0.0, 0.0072, 11.2, 29.75)" gradientUnits="userSpaceOnUse" id="gradient2" r="819.2" spreadMethod="pad">
      <stop offset="0.0" stop-color="#cccccc"/>
      <stop offset="1.0" stop-color="#3c3c3c"/>
      <stop offset="1.0" stop-color="#666666"/>
      <stop offset="1.0" stop-color="#666666"/>
    </radialGradient>
    <radialGradient cx="0" cy="0" fx="19.200000000000003" fy="0" gradientTransform="matrix(0.007, 0.0, 0.0, 0.007, 23.7, 29.45)" gradientUnits="userSpaceOnUse" id="gradient3" r="819.2" spreadMethod="pad">
      <stop offset="0.0" stop-color="#cccccc"/>
      <stop offset="1.0" stop-color="#3c3c3c"/>
      <stop offset="1.0" stop-color="#666666"/>
      <stop offset="1.0" stop-color="#666666"/>
    </radialGradient>
    <radialGradient cx="0" cy="0" gradientTransform="matrix(0.0053, 0.0, 0.0, 0.0053, 11.4, 34.0)" gradientUnits="userSpaceOnUse" id="gradient4" r="819.2" spreadMethod="pad">
      <stop offset="0.0" stop-color="#cccccc"/>
      <stop offset="1.0" stop-color="#3c3c3c"/>
      <stop offset="1.0" stop-color="#666666"/>
      <stop offset="1.0" stop-color="#666666"/>
    </radialGradient>
    <radialGradient cx="0" cy="0" gradientTransform="matrix(-0.0095, 0.0104, 0.0069, 0.0046, 2.2, 16.65)" gradientUnits="userSpaceOnUse" id="gradient5" r="819.2" spreadMethod="pad">
      <stop offset="0.0" stop-color="#4f4f4f"/>
      <stop offset="1.0" stop-color="#232323"/>
    </radialGradient>
  </defs>
</svg>
