<?xml version="1.0" encoding="UTF-8" standalone="no"?>
<svg xmlns:ffdec="https://www.free-decompiler.com/flash" xmlns:xlink="http://www.w3.org/1999/xlink" ffdec:objectType="shape" height="20.4px" width="21.5px" xmlns="http://www.w3.org/2000/svg">
  <g transform="matrix(1.0, 0.0, 0.0, 1.0, 8.5, 18.0)">
    <path d="M6.8 -14.25 L7.8 -12.8 9.35 -9.85 Q11.65 -3.85 8.1 -4.25 5.35 -2.1 2.95 -4.0 1.05 -5.55 0.0 -7.95 -1.1 -10.45 -0.15 -11.75 0.75 -12.95 3.25 -13.7 L6.8 -14.25" fill="url(#gradient0)" fill-rule="evenodd" stroke="none"/>
    <path d="M6.8 -14.25 L7.8 -12.8 9.35 -9.85 Q11.65 -3.85 8.1 -4.25 5.35 -2.1 2.95 -4.0 1.05 -5.55 0.0 -7.95 -1.1 -10.45 -0.15 -11.75 0.75 -12.95 3.25 -13.7 L6.8 -14.25 Z" fill="none" stroke="#120f50" stroke-linecap="round" stroke-linejoin="round" stroke-opacity="0.8039216" stroke-width="1.0"/>
    <path d="M9.7 -14.25 Q10.75 -13.55 11.15 -12.55 L11.8 -10.85 11.55 -11.0 9.55 -12.2 7.55 -12.65 8.25 -13.95 6.55 -14.7 6.3 -15.55 8.75 -14.75 9.7 -14.25" fill="#171432" fill-rule="evenodd" stroke="none"/>
    <path d="M9.7 -14.25 Q10.75 -13.55 11.15 -12.55 L11.8 -10.85 11.55 -11.0 9.55 -12.2 7.55 -12.65 8.25 -13.95 6.55 -14.7 6.3 -15.55 8.75 -14.75 9.7 -14.25 Z" fill="none" stroke="#080815" stroke-linecap="round" stroke-linejoin="round" stroke-width="1.0"/>
    <path d="M6.1 -14.8 L8.3 -14.05 7.5 -12.7 6.0 -12.6 4.1 -13.3 2.05 -14.25 Q1.8 -14.35 1.3 -12.1 L0.7 -10.0 -1.5 -9.55 Q-3.4 -9.15 -3.55 -10.15 -3.65 -10.75 -4.45 -12.15 L-5.3 -13.5 Q-5.65 -13.85 -3.6 -15.45 L-1.45 -16.95 -0.45 -17.25 1.6 -17.5 Q2.9 -17.5 5.65 -15.9 L6.1 -14.8" fill="url(#gradient1)" fill-rule="evenodd" stroke="none"/>
    <path d="M6.1 -14.8 L8.3 -14.05 7.5 -12.7 6.0 -12.6 4.1 -13.3 2.05 -14.25 Q1.8 -14.35 1.3 -12.1 L0.7 -10.0 -1.5 -9.55 Q-3.4 -9.15 -3.55 -10.15 -3.65 -10.75 -4.45 -12.15 L-5.3 -13.5 Q-5.65 -13.85 -3.6 -15.45 L-1.45 -16.95 -0.45 -17.25 1.6 -17.5 Q2.9 -17.5 5.65 -15.9 L6.1 -14.8 Z" fill="none" stroke="#151108" stroke-linecap="round" stroke-linejoin="round" stroke-width="1.0"/>
    <path d="M4.45 -12.95 Q3.2 -12.0 2.3 -11.6 L1.0 -11.2 0.45 -11.1 1.45 -13.85 3.4 -13.65 Q4.1 -13.35 4.45 -12.95" fill="#48240c" fill-rule="evenodd" stroke="none"/>
    <path d="M4.45 -12.95 Q3.2 -12.0 2.3 -11.6 L1.0 -11.2 0.45 -11.1 1.45 -13.85 3.4 -13.65 Q4.1 -13.35 4.45 -12.95 Z" fill="none" stroke="#151108" stroke-linecap="round" stroke-linejoin="round" stroke-width="1.0"/>
    <path d="M-4.55 -3.45 L-6.15 -5.55 -5.75 -8.4 6.55 -3.8 6.75 -4.1 7.2 -4.1 8.25 -4.4 9.15 -5.05 10.65 -3.35 10.4 -2.45 9.7 -1.35 9.4 -0.4 4.7 -0.65 4.25 1.2 -2.5 1.2 -2.15 -1.8 -4.55 -3.45" fill="#211b10" fill-rule="evenodd" stroke="none"/>
    <path d="M-4.55 -3.45 L-6.15 -5.55 -5.75 -8.4 6.55 -3.8 6.75 -4.1 7.2 -4.1 8.25 -4.4 9.15 -5.05 10.65 -3.35 10.4 -2.45 9.7 -1.35 9.4 -0.4 4.7 -0.65 4.25 1.2 -2.5 1.2 -2.15 -1.8 -4.55 -3.45 Z" fill="none" stroke="#151108" stroke-linecap="round" stroke-linejoin="round" stroke-width="1.0"/>
    <path d="M1.3 -9.35 L2.35 -8.3 Q2.75 -7.6 2.5 -6.25 L8.0 -3.3 8.65 -2.0 7.75 -0.95 4.5 -1.4 3.0 0.45 1.8 0.85 0.75 -0.15 -0.25 -1.25 -0.3 -1.85 -0.6 -2.7 -2.45 -4.1 -1.95 -4.9 -3.05 -9.4 -2.95 -10.0 -1.5 -8.4 0.2 -11.2 0.7 -10.95 0.55 -9.85 1.3 -9.35" fill="url(#gradient2)" fill-rule="evenodd" stroke="none"/>
    <path d="M1.3 -9.35 L2.35 -8.3 Q2.75 -7.6 2.5 -6.25 L8.0 -3.3 8.65 -2.0 7.75 -0.95 4.5 -1.4 3.0 0.45 1.8 0.85 0.75 -0.15 -0.25 -1.25 -0.3 -1.85 -0.6 -2.7 -2.45 -4.1 -1.95 -4.9 -3.05 -9.4 -2.95 -10.0 -1.5 -8.4 0.2 -11.2 0.7 -10.95 0.55 -9.85 1.3 -9.35 Z" fill="none" stroke="#151108" stroke-linecap="round" stroke-linejoin="round" stroke-width="1.0"/>
    <path d="M-6.85 -14.7 L-7.0 -15.75 -6.85 -15.75 -6.55 -15.6 Q-6.35 -15.35 -4.9 -14.85 L-0.8 -11.85 -1.1 -10.6 -1.7 -9.0 -2.25 -8.25 Q-2.7 -7.55 -2.55 -7.05 -2.45 -6.5 -2.65 -6.8 L-3.2 -7.3 -5.6 -8.45 -6.15 -5.55 Q-7.3 -6.95 -7.5 -7.7 L-7.95 -11.65 -6.95 -10.45 -7.35 -11.4 -8.0 -13.4 Q-8.0 -13.7 -7.0 -13.2 L-6.0 -12.65 -6.55 -13.35 -6.85 -14.7" fill="#211b10" fill-rule="evenodd" stroke="none"/>
    <path d="M-6.85 -14.7 L-6.55 -13.35 -6.0 -12.65 -7.0 -13.2 Q-8.0 -13.7 -8.0 -13.4 L-7.35 -11.4 -6.95 -10.45 -7.95 -11.65 -7.5 -7.7 Q-7.3 -6.95 -6.15 -5.55 L-5.6 -8.45 -3.2 -7.3 -2.65 -6.8 Q-2.45 -6.5 -2.55 -7.05 -2.7 -7.55 -2.25 -8.25 L-1.7 -9.0 -1.1 -10.6 -0.8 -11.85 -4.9 -14.85 Q-6.35 -15.35 -6.55 -15.6 L-6.85 -15.75 -7.0 -15.75 -6.85 -14.7 Z" fill="none" stroke="#080815" stroke-linecap="round" stroke-linejoin="round" stroke-width="1.0"/>
    <path d="M12.5 -3.35 L11.85 -1.9 11.05 -0.65 10.2 0.35 9.5 0.1 9.75 -1.15 10.55 -2.95 10.8 -3.7 9.1 -5.3 11.1 -5.8 11.85 -5.7 12.2 -4.75 12.5 -3.35" fill="#131442" fill-rule="evenodd" stroke="none"/>
    <path d="M12.5 -3.35 L11.85 -1.9 11.05 -0.65 10.2 0.35 9.5 0.1 9.75 -1.15 10.55 -2.95 10.8 -3.7 9.1 -5.3 11.1 -5.8 11.85 -5.7 12.2 -4.75 12.5 -3.35 Z" fill="none" stroke="#080815" stroke-linecap="round" stroke-linejoin="round" stroke-width="1.0"/>
    <path d="M-4.85 -4.95 L-2.95 -4.4 -2.3 -3.15 Q-1.4 -1.9 -0.3 -1.95 L1.7 -2.25 2.3 -1.3 Q0.65 -0.15 -1.35 -0.95 -3.75 -1.85 -4.4 -3.55 L-4.85 -4.95" fill="#6b489a" fill-rule="evenodd" stroke="none"/>
    <path d="M-4.85 -4.95 L-2.95 -4.4 -2.3 -3.15 Q-1.4 -1.9 -0.3 -1.95 L1.7 -2.25 2.3 -1.3 Q0.65 -0.15 -1.35 -0.95 -3.75 -1.85 -4.4 -3.55 L-4.85 -4.95 Z" fill="none" stroke="#151108" stroke-linecap="round" stroke-linejoin="round" stroke-width="1.0"/>
    <path d="M7.1 -1.7 L7.4 -1.45 7.85 -0.15 Q8.1 0.9 6.9 1.55 5.7 2.3 4.85 1.55 3.95 0.85 3.8 -0.05 3.6 -1.0 4.45 -1.7 5.55 -2.65 7.1 -1.7" fill="#3c2518" fill-opacity="0.9843137" fill-rule="evenodd" stroke="none"/>
    <path d="M7.1 -1.7 L7.4 -1.45 7.85 -0.15 Q8.1 0.9 6.9 1.55 5.7 2.3 4.85 1.55 3.95 0.85 3.8 -0.05 3.6 -1.0 4.45 -1.7 5.55 -2.65 7.1 -1.7 Z" fill="none" stroke="#151108" stroke-linecap="butt" stroke-linejoin="miter-clip" stroke-miterlimit="4.0" stroke-width="1.0"/>
    <path d="M-2.7 -9.45 L0.8 -10.15 1.55 -9.85 Q2.45 -9.35 2.75 -8.45 3.3 -7.1 2.9 -5.65 L-1.5 -4.35 -2.3 -5.05 Q-2.1 -7.3 -2.25 -8.25 -2.3 -8.9 -2.5 -9.25 L-2.7 -9.45" fill="#482915" fill-rule="evenodd" stroke="none"/>
    <path d="M-2.7 -9.45 L0.8 -10.15 1.55 -9.85 Q2.45 -9.35 2.75 -8.45 3.3 -7.1 2.9 -5.65 L-1.5 -4.35 -2.3 -5.05 Q-2.1 -7.3 -2.25 -8.25 -2.3 -8.9 -2.5 -9.25 L-2.7 -9.45 Z" fill="none" stroke="#151108" stroke-linecap="round" stroke-linejoin="round" stroke-width="1.0"/>
    <path d="M-5.45 -8.8 L-3.5 -9.2 -3.65 -8.8 -2.1 -9.4 -2.0 -4.8 -2.95 -4.95 -6.95 -5.75 -7.7 -6.9 -7.3 -8.2 Q-7.35 -8.35 -5.45 -8.8" fill="url(#gradient3)" fill-rule="evenodd" stroke="none"/>
    <path d="M-5.3 -7.8 L-5.95 -8.2 -5.2 -7.7 -5.2 -7.75 -5.25 -7.8 -5.3 -7.8 -4.95 -8.35 -3.65 -8.8 -3.5 -9.2 -5.45 -8.8 Q-7.35 -8.35 -7.3 -8.2 L-7.7 -6.9 -6.95 -5.75 -2.95 -4.95 -2.0 -4.8 -2.1 -9.4 -3.65 -8.8 -3.7 -8.8 -4.65 -7.6 -2.1 -6.9 -4.75 -7.5 -6.35 -5.65 -5.2 -7.7 -5.05 -7.6 -4.75 -7.5 -4.65 -7.6 -5.25 -7.8" fill="none" stroke="#080815" stroke-linecap="round" stroke-linejoin="round" stroke-opacity="0.6117647" stroke-width="1.0"/>
    <path d="M-1.9 -17.25 L-1.45 -17.05 -0.45 -16.4 1.15 -14.7 -1.1 -13.9 -3.6 -16.35 -1.9 -17.25" fill="url(#gradient4)" fill-rule="evenodd" stroke="none"/>
    <path d="M-1.9 -17.25 L-3.6 -16.35 -1.1 -13.9 1.15 -14.7 -0.45 -16.4 -1.45 -17.05 -1.9 -17.25 Z" fill="none" stroke="#0c041c" stroke-linecap="round" stroke-linejoin="round" stroke-opacity="0.68235296" stroke-width="1.0"/>
    <path d="M1.3 -14.4 Q1.35 -13.25 0.9 -12.3 0.6 -11.8 0.6 -10.9 L0.45 -10.1 -2.75 -9.55 -1.0 -13.85 1.3 -14.4" fill="url(#gradient5)" fill-rule="evenodd" stroke="none"/>
    <path d="M1.3 -14.4 L-1.0 -13.85 -2.75 -9.55 0.45 -10.1 0.6 -10.9 Q0.6 -11.8 0.9 -12.3 1.35 -13.25 1.3 -14.4 Z" fill="none" stroke="#0c041c" stroke-linecap="round" stroke-linejoin="round" stroke-opacity="0.68235296" stroke-width="1.0"/>
    <path d="M-4.0 -16.2 L-1.15 -13.85 -1.9 -12.25 -3.7 -13.8 -5.05 -14.95 -4.0 -16.2" fill="#925fff" fill-opacity="0.8627451" fill-rule="evenodd" stroke="none"/>
    <path d="M-4.0 -16.2 L-5.05 -14.95 -3.7 -13.8 -1.9 -12.25 -1.15 -13.85 -4.0 -16.2 Z" fill="none" stroke="#0c041c" stroke-linecap="round" stroke-linejoin="round" stroke-opacity="0.68235296" stroke-width="1.0"/>
    <path d="M-4.0 -9.05 L-4.6 -9.0 Q-7.0 -8.6 -7.65 -7.75 -8.45 -6.75 -6.5 -5.65 L-4.55 -5.2 -2.85 -5.05 Q-2.0 -4.95 -2.65 -7.3 L-6.45 -5.85 -4.0 -9.05 -2.75 -9.1" fill="none" stroke="#150d08" stroke-linecap="round" stroke-linejoin="round" stroke-opacity="0.4627451" stroke-width="1.0"/>
  </g>
  <defs>
    <radialGradient cx="0" cy="0" gradientTransform="matrix(0.0142, -9.0E-4, 9.0E-4, 0.0139, 4.45, -8.7)" gradientUnits="userSpaceOnUse" id="gradient0" r="819.2" spreadMethod="pad">
      <stop offset="0.0" stop-color="#ffffff"/>
      <stop offset="1.0" stop-color="#9845ac"/>
    </radialGradient>
    <radialGradient cx="0" cy="0" gradientTransform="matrix(0.0089, -0.001, 0.0023, 0.02, 1.45, -13.45)" gradientUnits="userSpaceOnUse" id="gradient1" r="819.2" spreadMethod="pad">
      <stop offset="0.0" stop-color="#280804"/>
      <stop offset="1.0" stop-color="#f4b736"/>
    </radialGradient>
    <radialGradient cx="0" cy="0" gradientTransform="matrix(0.0101, 2.0E-4, -4.0E-4, 0.025, 2.8, -5.2)" gradientUnits="userSpaceOnUse" id="gradient2" r="819.2" spreadMethod="pad">
      <stop offset="0.0" stop-color="#280804"/>
      <stop offset="1.0" stop-color="#f4b736"/>
    </radialGradient>
    <radialGradient cx="0" cy="0" gradientTransform="matrix(0.0038, 0.0, 0.0, 0.0034, -4.7, -7.05)" gradientUnits="userSpaceOnUse" id="gradient3" r="819.2" spreadMethod="pad">
      <stop offset="0.0" stop-color="#ffc456"/>
      <stop offset="1.0" stop-color="#8d56ff" stop-opacity="0.0"/>
    </radialGradient>
    <radialGradient cx="0" cy="0" gradientTransform="matrix(0.0035, 0.0, 0.0, 0.0026, -1.25, -15.6)" gradientUnits="userSpaceOnUse" id="gradient4" r="819.2" spreadMethod="pad">
      <stop offset="0.0" stop-color="#da7ede"/>
      <stop offset="1.0" stop-color="#925fff" stop-opacity="0.9372549"/>
    </radialGradient>
    <radialGradient cx="0" cy="0" gradientTransform="matrix(0.0031, 0.0, 0.0, 0.0036, -0.3, -13.4)" gradientUnits="userSpaceOnUse" id="gradient5" r="819.2" spreadMethod="pad">
      <stop offset="0.0" stop-color="#cf77e5"/>
      <stop offset="1.0" stop-color="#443a9d"/>
    </radialGradient>
  </defs>
</svg>
