<?xml version="1.0" encoding="UTF-8" standalone="no"?>
<svg xmlns:ffdec="https://www.free-decompiler.com/flash" xmlns:xlink="http://www.w3.org/1999/xlink" ffdec:objectType="shape" height="16.4px" width="30.45px" xmlns="http://www.w3.org/2000/svg">
  <g transform="matrix(1.0, 0.0, 0.0, 1.0, -4.0, 1.85)">
    <path d="M31.65 -1.35 L33.95 -1.35 33.95 0.3 30.3 0.3 30.3 0.05 30.95 0.05 31.65 -1.35 M8.45 5.2 L9.35 4.95 11.3 11.25 9.55 11.25 7.45 11.8 7.05 10.3 6.6 8.6 6.15 6.9 8.35 6.25 8.45 5.2 M8.6 7.95 L6.6 8.6 8.6 7.95 M9.1 9.65 L7.05 10.3 9.1 9.65" fill="#373737" fill-rule="evenodd" stroke="none"/>
    <path d="M8.45 5.2 L8.35 6.25 6.15 6.9 6.6 8.6 7.05 10.3 7.45 11.8 9.55 11.25 11.3 11.25 11.7 12.5 6.65 14.05 4.5 6.35 8.45 5.2" fill="#303030" fill-rule="evenodd" stroke="none"/>
    <path d="M31.65 -1.35 L33.95 -1.35 33.95 0.3 30.3 0.3" fill="none" stroke="#222224" stroke-linecap="round" stroke-linejoin="round" stroke-width="1.0"/>
    <path d="M8.35 6.25 L6.15 6.9 6.6 8.6 8.6 7.95 M6.6 8.6 L7.05 10.3 9.1 9.65 M7.05 10.3 L7.45 11.8 9.55 11.25 11.3 11.25 9.35 4.95 M4.5 6.35 L6.65 14.05 11.7 12.5 11.3 11.25" fill="none" stroke="#252525" stroke-linecap="round" stroke-linejoin="round" stroke-width="1.0"/>
  </g>
</svg>
