<?xml version="1.0" encoding="UTF-8" standalone="no"?>
<svg xmlns:ffdec="https://www.free-decompiler.com/flash" xmlns:xlink="http://www.w3.org/1999/xlink" ffdec:objectType="shape" height="31.55px" width="27.7px" xmlns="http://www.w3.org/2000/svg">
  <g transform="matrix(1.0, 0.0, 0.0, 1.0, 17.55, 32.6)">
    <path d="M-3.1 -27.65 Q-4.8 -30.75 -2.75 -31.3 L-2.45 -31.35 Q-3.05 -32.4 -4.4 -31.95 -5.85 -30.95 -5.05 -28.15 M0.8 -30.5 Q-1.7 -31.55 -2.45 -31.35 L-0.75 -29.2" fill="none" stroke="#0f0f0f" stroke-linecap="round" stroke-linejoin="round" stroke-opacity="0.69803923" stroke-width="1.0"/>
    <path d="M-4.4 -26.2 L-4.4 -27.6 Q-4.1 -29.05 -1.75 -30.2 0.6 -31.35 1.9 -29.55 L3.5 -26.75 4.6 -25.95 Q6.0 -14.6 3.7 -4.55 -0.25 -1.15 -4.65 -5.85 -6.75 -15.9 -4.4 -26.2" fill="#171717" fill-rule="evenodd" stroke="none"/>
    <path d="M-4.4 -26.2 L-4.4 -27.6 Q-4.1 -29.05 -1.75 -30.2 0.6 -31.35 1.9 -29.55 L3.5 -26.75 4.6 -25.95 Q6.0 -14.6 3.7 -4.55 -0.25 -1.15 -4.65 -5.85 -6.75 -15.9 -4.4 -26.2 Z" fill="none" stroke="#000000" stroke-linecap="round" stroke-linejoin="round" stroke-width="1.0"/>
    <path d="M7.1 -25.45 Q8.2 -24.7 8.7 -23.5 L8.1 -25.05 9.65 -20.4 Q9.4 -17.95 8.85 -17.0 L8.35 -17.05 6.85 -17.15 Q5.9 -17.25 5.45 -18.05 L4.85 -20.75 3.05 -20.85 2.2 -23.75 1.9 -24.7 3.95 -26.55 7.1 -25.45" fill="url(#gradient0)" fill-rule="evenodd" stroke="none"/>
    <path d="M9.1 -17.0 L8.3 -16.05 Q7.95 -15.45 7.95 -14.75 L3.4 -15.05 1.7 -12.55 1.3 -13.85 3.05 -20.85 4.85 -20.75 5.45 -18.05 5.65 -17.2 6.85 -17.15 8.35 -17.05 8.85 -17.0 9.1 -17.0 M8.35 -17.05 L8.3 -16.05 8.35 -17.05" fill="url(#gradient1)" fill-rule="evenodd" stroke="none"/>
    <path d="M-1.2 -22.25 L2.2 -23.75 3.05 -20.85 -3.9 -17.65 -3.2 -21.3 -1.2 -22.25" fill="#2c2c2c" fill-rule="evenodd" stroke="none"/>
    <path d="M8.15 -13.5 L8.1 -12.4 6.9 -12.45 4.65 -12.6 2.35 -8.15 2.45 -10.1 1.7 -12.55 3.4 -15.05 7.95 -14.75 Q7.9 -14.15 8.15 -13.5" fill="url(#gradient2)" fill-rule="evenodd" stroke="none"/>
    <path d="M2.45 -10.1 L-1.1 -8.8 -1.0 -10.6 -2.3 -10.7 -2.2 -12.4 1.3 -13.85 1.7 -12.55 2.45 -10.1" fill="#262626" fill-rule="evenodd" stroke="none"/>
    <path d="M6.9 -12.45 L6.6 -7.85 6.05 -7.9 2.35 -8.15 4.65 -12.6 6.9 -12.45" fill="url(#gradient3)" fill-rule="evenodd" stroke="none"/>
    <path d="M6.05 -7.9 L5.75 -1.9 3.8 -2.05 2.3 -3.85 2.35 -8.15 6.05 -7.9" fill="url(#gradient4)" fill-rule="evenodd" stroke="none"/>
    <path d="M-7.25 -16.6 L-8.7 -16.7 Q-8.45 -24.35 -7.4 -25.3 L-3.25 -29.4 -0.15 -26.7 -1.2 -22.25 -3.2 -21.3 -3.9 -17.65 -4.45 -17.45 -4.95 -17.25 -6.85 -16.75 -6.9 -16.7 -7.25 -16.6" fill="url(#gradient5)" fill-rule="evenodd" stroke="none"/>
    <path d="M-6.85 -16.65 L-7.0 -16.6 -6.9 -16.7 -6.85 -16.75 -4.95 -17.25 -6.85 -16.65 -6.85 -16.75 -6.85 -16.65" fill="url(#gradient6)" fill-rule="evenodd" stroke="none"/>
    <path d="M-4.95 -17.25 L-4.45 -17.45 -3.9 -17.65 -2.1 -15.2 -2.2 -12.4 -2.3 -10.7 -3.4 -10.8 -5.3 -10.9 -4.95 -17.25 M-4.75 -11.35 L-4.45 -17.45 -4.75 -11.35" fill="url(#gradient7)" fill-rule="evenodd" stroke="none"/>
    <path d="M-5.85 -10.95 L-7.2 -11.05 -6.85 -16.65 -4.95 -17.25 -5.3 -10.9 -5.85 -10.95" fill="url(#gradient8)" fill-rule="evenodd" stroke="none"/>
    <path d="M-1.1 -8.8 L-1.45 -2.35 -3.7 -2.5 -3.7 -3.1 -3.4 -10.8 -2.3 -10.7 -1.0 -10.6 -1.1 -8.8" fill="url(#gradient9)" fill-rule="evenodd" stroke="none"/>
    <path d="M-3.7 -2.5 L-4.2 -2.55 Q-5.75 -3.95 -6.15 -6.05 L-5.85 -10.95 -5.3 -10.9 -3.4 -10.8 -3.7 -3.1 -3.7 -2.5" fill="url(#gradient10)" fill-rule="evenodd" stroke="none"/>
    <path d="M8.1 -25.05 L7.1 -25.45 3.95 -26.55 1.9 -24.7 2.2 -23.75 3.05 -20.85 1.3 -13.85 1.7 -12.55 3.4 -15.05 7.95 -14.75 M8.1 -25.05 L9.65 -20.4 Q9.6 -18.6 9.1 -17.0 L8.85 -17.0 8.35 -17.05 6.85 -17.15 5.65 -17.2 5.45 -18.05 4.85 -20.75 3.05 -20.85 -3.9 -17.65 -4.45 -17.45 -4.75 -11.35 M8.3 -16.05 L8.15 -13.5 8.1 -12.4 6.9 -12.45 6.6 -7.85 6.05 -7.9 5.75 -1.9 3.8 -2.05 2.3 -3.85 2.35 -8.15 2.45 -10.1 -1.1 -8.8 -1.45 -2.35 -3.7 -2.5 -4.2 -2.55 Q-5.75 -3.95 -6.15 -6.05 L-5.85 -10.95 -7.2 -11.05 -6.85 -16.65 -7.0 -16.6 -7.25 -16.6 -8.7 -16.7 Q-8.45 -24.35 -7.4 -25.3 L-3.25 -29.4 -0.15 -26.7 -1.2 -22.25 2.2 -23.75 M8.3 -16.05 L8.35 -17.05 M6.9 -12.45 L4.65 -12.6 2.35 -8.15 6.05 -7.9 M2.45 -10.1 L1.7 -12.55 M-1.2 -22.25 L-3.2 -21.3 -3.9 -17.65 -2.1 -15.2 -2.2 -12.4 1.3 -13.85 M-6.9 -16.7 L-7.25 -16.6 M-6.85 -16.75 L-6.85 -16.65 -4.95 -17.25 -4.45 -17.45 M-5.3 -10.9 L-3.4 -10.8 -2.3 -10.7 -2.2 -12.4 M-1.1 -8.8 L-1.0 -10.6 -2.3 -10.7 M-5.85 -10.95 L-5.3 -10.9 M-3.4 -10.8 L-3.7 -3.1" fill="none" stroke="#000000" stroke-linecap="round" stroke-linejoin="round" stroke-width="1.0"/>
    <path d="M-8.5 -21.65 L-9.0 -24.0 -9.1 -24.05 -11.1 -25.3 -11.1 -25.35 -10.75 -27.55 -3.9 -29.35 -2.85 -25.45 -2.85 -25.35 Q-3.8 -25.3 -4.4 -24.1 -4.7 -23.3 -4.45 -22.6 L-4.25 -21.95 Q-3.45 -21.2 -2.35 -21.2 L-2.05 -18.5 -2.05 -18.45 -2.8 -17.85 -2.7 -16.95 -2.6 -16.5 -2.55 -16.1 -2.55 -16.0 -4.6 -14.25 -4.65 -14.25 -5.65 -19.2 -5.7 -19.2 -8.5 -21.65" fill="url(#gradient11)" fill-rule="evenodd" stroke="none"/>
    <path d="M-6.95 -12.0 L-7.15 -12.9 -7.3 -13.7 -7.8 -16.65 -8.1 -18.35 -8.85 -18.95 -8.85 -19.1 -9.2 -20.65 -8.5 -21.65 -5.7 -19.2 -5.65 -19.2 -4.65 -14.25 -3.65 -8.55 -3.65 -8.5 -6.05 -8.0 -6.0 -8.1 -6.95 -12.0" fill="url(#gradient12)" fill-rule="evenodd" stroke="none"/>
    <path d="M-2.55 -16.0 L-1.75 -15.5 -1.6 -14.95 -0.75 -9.15 -0.75 -9.05 -0.85 -9.0 -2.45 -8.75 -2.5 -8.75 -3.65 -8.5 -3.65 -8.55 -4.65 -14.25 -4.6 -14.25 -2.55 -16.0" fill="url(#gradient13)" fill-rule="evenodd" stroke="none"/>
    <path d="M-13.25 -23.05 L-11.9 -22.35 -11.8 -22.35 -11.65 -20.6 -12.2 -19.55 -11.1 -11.45 -11.1 -11.4 -11.8 -11.45 -13.3 -10.6 -15.6 -11.65 -15.6 -11.75 -17.55 -21.6 -15.85 -23.0 -14.35 -22.2 -13.25 -23.05" fill="url(#gradient14)" fill-rule="evenodd" stroke="none"/>
    <path d="M-0.85 -9.0 L-0.65 -1.55 -5.05 -1.85 -6.0 -5.65 -8.35 -6.45 -8.9 -9.5 -6.95 -11.95 -6.1 -8.1 -6.0 -8.1 -6.05 -8.0 -3.65 -8.5 -2.5 -8.75 -2.45 -8.75 -0.85 -9.0" fill="url(#gradient15)" fill-rule="evenodd" stroke="none"/>
    <path d="M-8.35 -6.45 L-9.75 -6.95 -10.15 -9.05 -8.9 -9.5 -8.35 -6.45" fill="url(#gradient16)" fill-rule="evenodd" stroke="none"/>
    <path d="M-6.95 -11.95 L-6.95 -12.0 -6.0 -8.1 -6.1 -8.1 -6.95 -11.95" fill="url(#gradient17)" fill-rule="evenodd" stroke="none"/>
    <path d="M-0.85 -9.0 L-0.65 -1.55 -5.05 -1.85" fill="none" stroke="#000000" stroke-linecap="round" stroke-linejoin="round" stroke-width="1.0"/>
  </g>
  <defs>
    <radialGradient cx="0" cy="0" gradientTransform="matrix(0.0179, 0.0012, -0.0014, 0.0252, -6.8, -17.1)" gradientUnits="userSpaceOnUse" id="gradient0" r="819.2" spreadMethod="pad">
      <stop offset="0.0" stop-color="#333333"/>
      <stop offset="0.0" stop-color="#333333"/>
      <stop offset="0.5098039215686274" stop-color="#191919"/>
      <stop offset="1.0" stop-color="#333333"/>
    </radialGradient>
    <radialGradient cx="0" cy="0" gradientTransform="matrix(0.021, 0.0014, -0.0014, 0.026, -8.05, -17.1)" gradientUnits="userSpaceOnUse" id="gradient1" r="819.2" spreadMethod="pad">
      <stop offset="0.0" stop-color="#333333"/>
      <stop offset="0.0" stop-color="#333333"/>
      <stop offset="0.5098039215686274" stop-color="#191919"/>
      <stop offset="1.0" stop-color="#333333"/>
    </radialGradient>
    <radialGradient cx="0" cy="0" gradientTransform="matrix(0.0068, 0.0, 0.0, 0.0068, 4.1, -13.4)" gradientUnits="userSpaceOnUse" id="gradient2" r="819.2" spreadMethod="pad">
      <stop offset="0.0" stop-color="#756d5f"/>
      <stop offset="1.0" stop-color="#1f1f1f"/>
      <stop offset="1.0" stop-color="#333333"/>
      <stop offset="1.0" stop-color="#333333"/>
      <stop offset="1.0" stop-color="#202121"/>
      <stop offset="1.0" stop-color="#202121"/>
    </radialGradient>
    <radialGradient cx="0" cy="0" gradientTransform="matrix(0.0129, 0.0, 0.0, 0.0129, 0.65, -3.95)" gradientUnits="userSpaceOnUse" id="gradient3" r="819.2" spreadMethod="pad">
      <stop offset="0.0" stop-color="#756d5f"/>
      <stop offset="1.0" stop-color="#1f1f1f"/>
      <stop offset="1.0" stop-color="#333333"/>
      <stop offset="1.0" stop-color="#333333"/>
      <stop offset="1.0" stop-color="#202121"/>
      <stop offset="1.0" stop-color="#202121"/>
    </radialGradient>
    <radialGradient cx="0" cy="0" gradientTransform="matrix(0.0121, 0.0, 0.0, 0.0121, 0.5, 0.3)" gradientUnits="userSpaceOnUse" id="gradient4" r="819.2" spreadMethod="pad">
      <stop offset="0.0" stop-color="#756d5f"/>
      <stop offset="1.0" stop-color="#1f1f1f"/>
      <stop offset="1.0" stop-color="#333333"/>
      <stop offset="1.0" stop-color="#333333"/>
      <stop offset="1.0" stop-color="#202121"/>
      <stop offset="1.0" stop-color="#202121"/>
    </radialGradient>
    <radialGradient cx="0" cy="0" gradientTransform="matrix(0.0233, 0.0015, -0.0016, 0.0289, -19.1, -30.95)" gradientUnits="userSpaceOnUse" id="gradient5" r="819.2" spreadMethod="pad">
      <stop offset="0.0" stop-color="#333333"/>
      <stop offset="0.0" stop-color="#333333"/>
      <stop offset="0.5098039215686274" stop-color="#191919"/>
      <stop offset="1.0" stop-color="#333333"/>
    </radialGradient>
    <linearGradient gradientTransform="matrix(-0.0035, -0.0019, -0.0018, 0.0059, -3.75, -17.8)" gradientUnits="userSpaceOnUse" id="gradient6" spreadMethod="pad" x1="-819.2" x2="819.2">
      <stop offset="0.0" stop-color="#1a1a1a"/>
      <stop offset="1.0" stop-color="#070707"/>
    </linearGradient>
    <radialGradient cx="0" cy="0" gradientTransform="matrix(0.0182, 0.0012, -0.0011, 0.0207, -15.2, -6.9)" gradientUnits="userSpaceOnUse" id="gradient7" r="819.2" spreadMethod="pad">
      <stop offset="0.0" stop-color="#333333"/>
      <stop offset="0.0" stop-color="#333333"/>
      <stop offset="0.5098039215686274" stop-color="#191919"/>
      <stop offset="1.0" stop-color="#333333"/>
    </radialGradient>
    <radialGradient cx="0" cy="0" gradientTransform="matrix(0.0043, 0.0, 0.0, 0.0043, -6.35, -14.3)" gradientUnits="userSpaceOnUse" id="gradient8" r="819.2" spreadMethod="pad">
      <stop offset="0.0" stop-color="#756d5f"/>
      <stop offset="1.0" stop-color="#1f1f1f"/>
      <stop offset="1.0" stop-color="#333333"/>
      <stop offset="1.0" stop-color="#333333"/>
      <stop offset="1.0" stop-color="#202121"/>
      <stop offset="1.0" stop-color="#202121"/>
    </radialGradient>
    <radialGradient cx="0" cy="0" gradientTransform="matrix(0.0177, 0.0012, -0.0011, 0.02, -9.9, 2.35)" gradientUnits="userSpaceOnUse" id="gradient9" r="819.2" spreadMethod="pad">
      <stop offset="0.0" stop-color="#333333"/>
      <stop offset="0.0" stop-color="#333333"/>
      <stop offset="0.5098039215686274" stop-color="#191919"/>
      <stop offset="1.0" stop-color="#333333"/>
    </radialGradient>
    <radialGradient cx="0" cy="0" gradientTransform="matrix(0.0065, 0.0, 0.0, 0.0065, -4.6, -7.15)" gradientUnits="userSpaceOnUse" id="gradient10" r="819.2" spreadMethod="pad">
      <stop offset="0.0" stop-color="#756d5f"/>
      <stop offset="1.0" stop-color="#1f1f1f"/>
      <stop offset="1.0" stop-color="#333333"/>
      <stop offset="1.0" stop-color="#333333"/>
      <stop offset="1.0" stop-color="#202121"/>
      <stop offset="1.0" stop-color="#202121"/>
    </radialGradient>
    <radialGradient cx="0" cy="0" gradientTransform="matrix(-0.0102, -0.0053, -0.0063, 0.0107, -8.55, -23.25)" gradientUnits="userSpaceOnUse" id="gradient11" r="819.2" spreadMethod="pad">
      <stop offset="0.0" stop-color="#333333"/>
      <stop offset="0.0" stop-color="#333333"/>
      <stop offset="0.5098039215686274" stop-color="#191919"/>
      <stop offset="1.0" stop-color="#333333"/>
    </radialGradient>
    <radialGradient cx="0" cy="0" gradientTransform="matrix(0.0113, 0.0, 0.0, 0.0113, -5.65, -17.25)" gradientUnits="userSpaceOnUse" id="gradient12" r="819.2" spreadMethod="pad">
      <stop offset="0.0" stop-color="#756d5f"/>
      <stop offset="1.0" stop-color="#1f1f1f"/>
      <stop offset="1.0" stop-color="#333333"/>
      <stop offset="1.0" stop-color="#333333"/>
      <stop offset="1.0" stop-color="#202121"/>
      <stop offset="1.0" stop-color="#202121"/>
    </radialGradient>
    <radialGradient cx="0" cy="0" gradientTransform="matrix(0.0149, 0.0, 0.0, 0.0149, -1.2, -3.9)" gradientUnits="userSpaceOnUse" id="gradient13" r="819.2" spreadMethod="pad">
      <stop offset="0.0" stop-color="#756d5f"/>
      <stop offset="1.0" stop-color="#1f1f1f"/>
      <stop offset="1.0" stop-color="#333333"/>
      <stop offset="1.0" stop-color="#333333"/>
      <stop offset="1.0" stop-color="#202121"/>
      <stop offset="1.0" stop-color="#202121"/>
    </radialGradient>
    <radialGradient cx="0" cy="0" gradientTransform="matrix(-0.0235, -0.0123, -0.0146, 0.0245, -15.25, -0.85)" gradientUnits="userSpaceOnUse" id="gradient14" r="819.2" spreadMethod="pad">
      <stop offset="0.0" stop-color="#333333"/>
      <stop offset="0.0" stop-color="#333333"/>
      <stop offset="0.5098039215686274" stop-color="#191919"/>
      <stop offset="1.0" stop-color="#333333"/>
    </radialGradient>
    <radialGradient cx="0" cy="0" gradientTransform="matrix(0.0167, 0.0, 0.0, 0.0183, -12.85, -9.05)" gradientUnits="userSpaceOnUse" id="gradient15" r="819.2" spreadMethod="pad">
      <stop offset="0.0" stop-color="#333333"/>
      <stop offset="0.0" stop-color="#333333"/>
      <stop offset="0.5098039215686274" stop-color="#191919"/>
      <stop offset="1.0" stop-color="#333333"/>
    </radialGradient>
    <linearGradient gradientTransform="matrix(-0.0083, -0.0043, -0.0054, 0.0091, -7.5, 1.0)" gradientUnits="userSpaceOnUse" id="gradient16" spreadMethod="pad" x1="-819.2" x2="819.2">
      <stop offset="0.0" stop-color="#333333"/>
      <stop offset="0.0" stop-color="#333333"/>
      <stop offset="0.5098039215686274" stop-color="#191919"/>
      <stop offset="1.0" stop-color="#333333"/>
    </linearGradient>
    <radialGradient cx="0" cy="0" gradientTransform="matrix(0.0421, -0.011, 0.0086, 0.0485, -0.15, 27.55)" gradientUnits="userSpaceOnUse" id="gradient17" r="819.2" spreadMethod="pad">
      <stop offset="0.0" stop-color="#333333"/>
      <stop offset="0.0" stop-color="#333333"/>
      <stop offset="0.5098039215686274" stop-color="#191919"/>
      <stop offset="1.0" stop-color="#333333"/>
    </radialGradient>
  </defs>
</svg>
