<?xml version="1.0" encoding="UTF-8" standalone="no"?>
<svg xmlns:ffdec="https://www.free-decompiler.com/flash" xmlns:xlink="http://www.w3.org/1999/xlink" ffdec:objectType="shape" height="20.35px" width="22.35px" xmlns="http://www.w3.org/2000/svg">
  <g transform="matrix(1.0, 0.0, 0.0, 1.0, 9.4, 17.95)">
    <path d="M7.0 -3.9 Q7.15 -2.95 7.7 -2.25 7.4 -1.85 6.4 -1.7 L4.95 -1.25 3.0 0.3 Q1.95 0.95 1.05 0.15 L-1.45 -4.6 Q-0.55 -4.3 3.2 -5.55 L7.0 -3.9" fill="#281c1c" fill-rule="evenodd" stroke="none"/>
    <path d="M0.9 -14.05 L4.25 -12.8 0.9 -10.45 0.25 -10.8 -2.05 -11.2 Q-4.9 -12.0 0.9 -14.05" fill="#220c0c" fill-rule="evenodd" stroke="none"/>
    <path d="M9.4 -13.75 Q11.2 -12.1 10.85 -11.6 L8.65 -12.4 6.0 -12.85 2.85 -13.5 -0.2 -13.95 Q-1.85 -13.7 -2.65 -12.0 -3.5 -10.35 -2.75 -8.6 L-2.65 -10.25 0.15 -10.5 Q1.9 -9.7 2.55 -8.1 3.15 -6.65 2.5 -5.9 L1.0 -5.5 Q-1.05 -4.7 -0.95 -4.15 -0.85 -3.3 0.05 -2.0 1.0 -0.6 2.05 0.15 L3.0 0.1 4.85 -1.15 6.15 -1.3 Q7.35 -1.3 7.5 -1.7 7.65 -2.1 7.1 -3.35 6.5 -4.6 6.7 -4.75 8.4 -6.0 11.0 -5.9 12.75 -5.2 12.25 -2.4 11.75 0.4 10.35 0.1 L9.25 -0.3 Q8.4 -0.7 8.4 -0.3 8.45 0.45 7.9 1.15 7.3 1.9 6.4 1.75 L0.3 1.4 -2.7 1.15 -2.65 -0.7 -7.15 -5.45 Q-8.0 -6.55 -7.7 -7.55 -7.45 -8.4 -8.05 -8.85 -8.6 -9.1 -8.6 -9.95 -8.65 -10.75 -8.3 -11.65 -8.0 -11.95 -7.75 -13.45 L-7.4 -15.2 -5.75 -14.45 -4.3 -15.6 -2.05 -16.5 Q-3.05 -17.8 1.35 -17.15 5.6 -16.5 6.8 -15.6 7.65 -15.35 9.4 -13.75" fill="url(#gradient0)" fill-rule="evenodd" stroke="none"/>
    <path d="M7.7 -12.6 L9.15 -9.9 Q9.95 -7.85 10.35 -5.6 L8.5 -4.65 Q7.85 -4.35 5.55 -4.65 3.25 -4.9 2.7 -5.4 3.05 -6.7 2.35 -8.25 1.65 -9.95 0.05 -10.5 1.0 -10.6 2.15 -11.65 L4.25 -13.2 7.7 -12.6" fill="url(#gradient1)" fill-rule="evenodd" stroke="none"/>
    <path d="M4.95 1.0 L5.35 1.85 -1.8 1.75 Q-2.9 1.55 -2.35 -0.6 -2.9 -1.65 -5.55 -3.9 -7.55 -5.55 -7.8 -7.85 -8.5 -8.05 -8.4 -9.95 L-8.9 -11.45 Q-8.85 -11.65 -8.45 -11.65 L-8.0 -11.75 Q-7.8 -12.1 -8.15 -12.75 L-8.35 -13.6 -7.45 -13.55 -7.1 -13.5 Q-7.3 -13.9 -7.3 -14.65 L-7.35 -15.45 -5.45 -14.95 Q-4.5 -16.05 -2.6 -16.8 L0.6 -17.45 3.1 -16.9 Q4.7 -16.1 6.35 -15.4 10.3 -14.9 11.6 -10.9 8.65 -12.95 7.55 -12.55 L5.15 -12.8 4.05 -13.15 1.45 -11.35 0.25 -10.85 0.25 -10.5 0.15 -10.1 Q2.55 -10.2 2.5 -5.9 L5.0 -4.55 6.15 -4.05 6.35 -4.05 6.95 -3.95 7.5 -4.0 8.6 -4.25 8.9 -4.7 9.3 -5.25 10.25 -5.6 11.6 -5.7 Q12.65 -3.9 12.4 -2.95 L11.0 0.25 10.05 0.25 9.8 -0.25 9.0 -0.65 Q8.45 -0.7 8.55 -0.4 8.75 0.1 8.35 0.85 7.9 1.65 6.8 1.9 6.3 2.0 5.6 1.55 L4.95 1.0 4.9 0.95 4.6 0.3 Q4.25 -1.1 5.6 -1.65 6.95 -2.15 7.65 -1.15 M6.15 -4.05 L6.05 -4.0 6.35 -3.9 6.15 -4.05 M6.35 -3.9 L6.95 -3.95 7.15 -3.85 8.05 -2.6 8.1 -1.4 7.85 -0.9 8.0 -1.4 8.05 -2.55 7.35 -3.25 6.35 -3.9 M5.6 -1.65 Q4.65 -1.15 4.6 0.2 L4.9 0.95" fill="none" stroke="#0a0707" stroke-linecap="round" stroke-linejoin="round" stroke-width="1.0"/>
    <path d="M3.1 -13.45 L2.2 -13.4 0.05 -14.1 Q-1.0 -13.85 -2.3 -13.05 L-2.4 -13.05 -2.4 -13.0 Q-2.75 -12.6 -2.55 -10.9 L-2.5 -10.65 0.75 -10.55 M11.1 -11.1 L8.3 -12.4 6.65 -12.4 7.25 -13.75 7.7 -15.15 M9.5 -0.5 L10.05 -1.75 Q10.5 -2.65 10.45 -3.45 10.45 -4.0 9.75 -4.65 9.2 -5.15 9.4 -5.25 M-2.4 -13.05 Q-2.75 -13.15 -3.85 -14.0 L-5.3 -15.05 M-8.05 -8.3 Q-8.1 -8.55 -6.0 -8.9 L-3.1 -9.35 -2.95 -9.4 -2.9 -10.55 -2.5 -10.65 Q-2.45 -9.6 -2.95 -9.4 L-2.85 -5.65 -1.85 -4.5 2.9 -5.7 Q3.0 -5.45 1.25 -5.05 L-1.7 -4.4 -1.1 -3.85 -0.1 -2.7 0.25 -1.2 Q0.35 -0.45 1.0 0.0 L3.45 0.05 4.45 -0.8" fill="none" stroke="#160e0e" stroke-linecap="round" stroke-linejoin="round" stroke-width="1.0"/>
    <path d="M8.0 -12.05 Q8.7 -11.25 9.4 -9.35 L10.3 -5.9" fill="none" stroke="#4f0e0e" stroke-linecap="round" stroke-linejoin="round" stroke-opacity="0.7019608" stroke-width="1.0"/>
    <path d="M0.9 -0.7 Q-0.55 -0.3 -2.3 -1.2 -4.0 -2.15 -4.9 -3.75 -4.5 -5.0 -3.15 -4.4 -2.5 -2.9 -1.35 -2.5 L0.95 -2.2 Q2.05 -2.35 2.05 -1.45 2.05 -0.6 0.9 -0.7" fill="#753636" fill-rule="evenodd" stroke="none"/>
    <path d="M0.9 -0.7 Q-0.55 -0.3 -2.3 -1.2 -4.0 -2.15 -4.9 -3.75 -4.5 -5.0 -3.15 -4.4 -2.5 -2.9 -1.35 -2.5 L0.95 -2.2 Q2.05 -2.35 2.05 -1.45 2.05 -0.6 0.9 -0.7 Z" fill="none" stroke="#191212" stroke-linecap="round" stroke-linejoin="round" stroke-width="1.0"/>
    <path d="M8.25 -10.85 L9.2 -8.45 Q9.5 -6.95 9.95 -5.7 8.6 -6.0 8.45 -4.7 L6.75 -4.4 Q5.85 -4.55 4.9 -5.05 L2.95 -6.0 Q3.05 -8.35 2.35 -9.3 1.95 -9.95 0.6 -10.55 2.15 -11.05 3.15 -11.8 L4.25 -12.75 5.3 -12.4 7.5 -12.2 8.25 -10.85 Z" fill="none" stroke="#c55849" stroke-linecap="round" stroke-linejoin="round" stroke-opacity="0.3372549" stroke-width="1.0"/>
    <path d="M5.2 -2.9 L4.45 -1.7" fill="none" stroke="#f78e8e" stroke-linecap="round" stroke-linejoin="round" stroke-width="1.0"/>
    <path d="M2.8 -3.75 L2.1 -2.5" fill="none" stroke="#f78e8e" stroke-linecap="round" stroke-linejoin="round" stroke-width="1.0"/>
    <path d="M-3.95 -9.2 L-4.05 -8.85 -2.5 -9.4 -2.4 -4.8 -3.35 -4.95 -7.3 -5.75 -8.1 -6.9 Q-7.65 -8.1 -7.7 -8.25 L-5.9 -8.8 -3.95 -9.2" fill="url(#gradient2)" fill-rule="evenodd" stroke="none"/>
    <path d="M-4.05 -8.85 L-2.5 -9.4 -2.4 -4.8 -3.35 -4.95 -7.3 -5.75 -8.1 -6.9 Q-7.65 -8.1 -7.7 -8.25 L-5.9 -8.8 -3.95 -9.2 -4.05 -8.85 -4.1 -8.8 -5.05 -7.6 -2.5 -6.9 -5.1 -7.5 -6.7 -5.65 -5.6 -7.7 -6.35 -8.25 -5.6 -7.75 -5.6 -7.7 -5.4 -7.6 -5.1 -7.5 -5.05 -7.6 -5.65 -7.8 -5.3 -8.4 -4.05 -8.85 Z" fill="none" stroke="#150808" stroke-linecap="round" stroke-linejoin="round" stroke-opacity="0.6117647" stroke-width="1.0"/>
    <path d="M-2.3 -17.25 L-1.9 -17.1 -0.85 -16.45 0.8 -14.75 -1.45 -13.9 -4.05 -16.4 -2.3 -17.25" fill="#e37b7b" fill-rule="evenodd" stroke="none"/>
    <path d="M-2.3 -17.25 L-4.05 -16.4 -1.45 -13.9 0.8 -14.75 -0.85 -16.45 -1.9 -17.1 -2.3 -17.25 Z" fill="none" stroke="#1c0404" stroke-linecap="round" stroke-linejoin="round" stroke-opacity="0.68235296" stroke-width="1.0"/>
    <path d="M0.9 -14.45 L0.9 -13.7 0.45 -12.35 0.15 -10.9 0.05 -10.15 -3.15 -9.55 -1.4 -13.85 0.9 -14.45" fill="url(#gradient3)" fill-rule="evenodd" stroke="none"/>
    <path d="M0.9 -14.45 L-1.4 -13.85 -3.15 -9.55 0.05 -10.15 0.15 -10.9 0.45 -12.35 0.9 -13.7 0.9 -14.45 Z" fill="none" stroke="#1c0604" stroke-linecap="round" stroke-linejoin="round" stroke-opacity="0.68235296" stroke-width="1.0"/>
    <path d="M-4.4 -16.2 L-1.55 -13.85 -2.35 -12.3 -4.1 -13.8 -5.45 -15.0 -4.4 -16.2" fill="#d56969" fill-rule="evenodd" stroke="none"/>
    <path d="M-4.4 -16.2 L-5.45 -15.0 -4.1 -13.8 -2.35 -12.3 -1.55 -13.85 -4.4 -16.2 Z" fill="none" stroke="#1c0404" stroke-linecap="round" stroke-linejoin="round" stroke-opacity="0.68235296" stroke-width="1.0"/>
    <path d="M-4.4 -9.05 L-5.0 -9.0 Q-7.35 -8.65 -8.05 -7.75 -8.5 -7.25 -8.05 -6.65 L-6.85 -5.65 -2.6 -4.95 Q-2.35 -4.95 -2.35 -5.6 -2.35 -6.35 -2.0 -6.45 L2.0 -7.25 1.9 -8.3 1.25 -9.0 -2.35 -8.05 -6.8 -5.9 -4.4 -9.05 -3.1 -9.1" fill="none" stroke="#120b0b" stroke-linecap="round" stroke-linejoin="round" stroke-opacity="0.4627451" stroke-width="1.0"/>
  </g>
  <defs>
    <linearGradient gradientTransform="matrix(0.0019, 0.003, -0.003, 0.0019, 5.2, -12.85)" gradientUnits="userSpaceOnUse" id="gradient0" spreadMethod="pad" x1="-819.2" x2="819.2">
      <stop offset="0.0" stop-color="#2e1818"/>
      <stop offset="0.6588235294117647" stop-color="#3e2828"/>
      <stop offset="1.0" stop-color="#774d4d"/>
    </linearGradient>
    <radialGradient cx="0" cy="0" gradientTransform="matrix(0.0128, -8.0E-4, 7.0E-4, 0.0112, 6.05, -8.6)" gradientUnits="userSpaceOnUse" id="gradient1" r="819.2" spreadMethod="pad">
      <stop offset="0.0" stop-color="#ffffff"/>
      <stop offset="1.0" stop-color="#fe866d" stop-opacity="0.7647059"/>
    </radialGradient>
    <radialGradient cx="0" cy="0" gradientTransform="matrix(0.0038, 0.0, 0.0, 0.0034, -5.05, -7.05)" gradientUnits="userSpaceOnUse" id="gradient2" r="819.2" spreadMethod="pad">
      <stop offset="0.0" stop-color="#de7367"/>
      <stop offset="1.0" stop-color="#8d392b" stop-opacity="0.0"/>
    </radialGradient>
    <linearGradient gradientTransform="matrix(0.002, 0.0011, -0.0011, 0.002, -1.35, -11.6)" gradientUnits="userSpaceOnUse" id="gradient3" spreadMethod="pad" x1="-819.2" x2="819.2">
      <stop offset="0.0" stop-color="#e86351"/>
      <stop offset="1.0" stop-color="#ee8c7e" stop-opacity="0.9843137"/>
    </linearGradient>
  </defs>
</svg>
