<?xml version="1.0" encoding="UTF-8" standalone="no"?>
<svg xmlns:ffdec="https://www.free-decompiler.com/flash" xmlns:xlink="http://www.w3.org/1999/xlink" ffdec:objectType="shape" height="11.65px" width="22.9px" xmlns="http://www.w3.org/2000/svg">
  <g transform="matrix(1.0, 0.0, 0.0, 1.0, 2.1, -29.15)">
    <path d="M20.0 31.35 L20.3 31.35 20.3 32.6 16.95 32.6 16.95 31.35 17.35 31.35 20.0 31.35 M20.3 35.65 L20.3 36.95 16.95 36.95 16.95 35.65 20.3 35.65 M12.45 32.6 L12.45 31.35 12.85 31.35 15.5 31.35 15.8 31.35 15.8 32.6 12.45 32.6 M15.8 35.65 L15.8 36.95 12.45 36.95 12.45 35.65 15.8 35.65" fill="#6b6b6b" fill-rule="evenodd" stroke="none"/>
    <path d="M20.3 32.6 L20.3 35.65 16.95 35.65 16.95 32.6 20.3 32.6 M15.8 32.6 L15.8 35.65 12.45 35.65 12.45 32.6 15.8 32.6" fill="#353535" fill-rule="evenodd" stroke="none"/>
    <path d="M17.35 31.35 L17.35 30.45 20.0 29.65 20.0 31.35 17.35 31.35 M12.85 31.35 L12.85 30.45 15.5 29.65 15.5 31.35 12.85 31.35" fill="#484848" fill-rule="evenodd" stroke="none"/>
    <path d="M1.6 32.2 L3.1 39.55 1.5 40.05 0.85 36.8 0.55 35.4 -0.05 32.65 1.6 32.2 M1.0 35.25 L0.55 35.4 1.0 35.25" fill="#707070" fill-rule="evenodd" stroke="none"/>
    <path d="M1.6 32.2 L2.25 32.0 2.95 32.9 4.2 38.7 4.2 39.55 3.1 39.55 1.6 32.2 M1.5 40.05 L0.15 40.3 -0.55 39.8 -1.25 37.45 -1.45 35.95 -1.6 33.9 -1.6 33.25 -0.05 32.65 0.55 35.4 0.85 36.8 1.5 40.05 M0.55 35.4 L-1.45 35.95 0.55 35.4 M0.85 36.8 L-1.25 37.45 0.85 36.8" fill="#515151" fill-rule="evenodd" stroke="none"/>
    <path d="M17.35 31.35 L17.35 30.45 20.0 29.65 20.0 31.35 20.3 31.35 20.3 32.6 20.3 35.65 20.3 36.95 16.95 36.95 16.95 35.65 16.95 32.6 16.95 31.35 17.35 31.35 20.0 31.35 M12.45 32.6 L12.45 31.35 12.85 31.35 12.85 30.45 15.5 29.65 15.5 31.35 15.8 31.35 15.8 32.6 15.8 35.65 15.8 36.95 12.45 36.95 12.45 35.65 12.45 32.6 M12.85 31.35 L15.5 31.35" fill="none" stroke="#151515" stroke-linecap="round" stroke-linejoin="round" stroke-width="1.0"/>
    <path d="M3.1 39.55 L4.2 39.55 4.2 38.7 2.95 32.9 2.25 32.0 1.6 32.2 -0.05 32.65 -1.6 33.25 -1.6 33.9 -1.45 35.95 -1.25 37.45 -0.55 39.8 0.15 40.3 1.5 40.05 3.1 39.55" fill="none" stroke="#191919" stroke-linecap="round" stroke-linejoin="round" stroke-width="1.0"/>
    <path d="M0.55 35.4 L1.0 35.25 M-1.25 37.45 L0.85 36.8 M-1.45 35.95 L0.55 35.4" fill="none" stroke="#191919" stroke-linecap="round" stroke-linejoin="round" stroke-width="1.2000000000000002"/>
  </g>
</svg>
