<?xml version="1.0" encoding="UTF-8" standalone="no"?>
<svg xmlns:ffdec="https://www.free-decompiler.com/flash" xmlns:xlink="http://www.w3.org/1999/xlink" ffdec:objectType="shape" height="39.75px" width="41.1px" xmlns="http://www.w3.org/2000/svg">
  <g transform="matrix(1.0, 0.0, 0.0, 1.0, 16.85, 4.1)">
    <path d="M12.4 0.75 L11.2 4.45 5.7 2.55 7.05 0.0 12.4 0.75 M6.6 24.25 L11.25 25.55 15.95 25.55 15.95 22.6 18.2 22.6 18.2 27.4 11.45 27.4 6.05 25.9 6.6 24.25" fill="#696969" fill-rule="evenodd" stroke="none"/>
    <path d="M12.4 0.75 L15.9 1.25 15.2 3.2 11.2 4.45 12.4 0.75 M6.6 24.25 L7.1 22.6 15.95 22.6 15.95 25.55 11.25 25.55 6.6 24.25" fill="#313131" fill-rule="evenodd" stroke="none"/>
    <path d="M11.2 4.45 L15.2 3.2 15.9 1.25 12.4 0.75 11.2 4.45 5.7 2.55 7.05 0.0 12.4 0.75 M15.95 22.6 L7.1 22.6 6.6 24.25 6.05 25.9 11.45 27.4 18.2 27.4 18.2 22.6 15.95 22.6 Z" fill="none" stroke="#252525" stroke-linecap="round" stroke-linejoin="round" stroke-width="1.0"/>
    <path d="M13.9 10.2 L14.05 12.15 14.1 13.2 Q12.65 14.2 10.65 14.45 L7.25 14.45 6.8 10.6 Q6.8 8.7 8.05 7.35 L12.2 7.1 12.2 8.35 13.85 9.65 13.9 10.2" fill="#2e2e2e" fill-rule="evenodd" stroke="none"/>
    <path d="M5.6 18.4 L4.85 15.05 5.45 14.85 5.4 14.4 7.25 14.45 10.65 14.45 Q12.65 14.2 14.1 13.2 L14.1 14.0 14.1 15.65 14.1 17.35 14.1 19.05 10.3 18.75 9.15 18.65 8.55 18.6 5.6 18.4 M3.3 3.9 L5.7 2.55 Q8.5 2.05 10.25 2.5 L12.25 2.95 15.6 5.75 14.45 5.7 12.2 5.8 12.2 6.45 Q8.8 4.75 4.5 6.2 L3.3 3.9" fill="#545454" fill-rule="evenodd" stroke="none"/>
    <path d="M14.15 19.05 L14.1 19.05 14.15 19.05" fill="#3a3a3a" fill-rule="evenodd" stroke="none"/>
    <path d="M21.8 10.5 L22.0 11.65 22.15 12.5 14.05 12.15 13.9 10.2 21.8 10.5 M22.35 14.45 L22.35 15.25 22.3 16.25 14.1 15.65 14.1 14.0 22.35 14.45 M21.85 17.85 L21.05 19.35 14.15 19.05 14.1 19.05 14.1 17.35 21.85 17.85 M4.85 15.05 L3.6 15.4 2.0 13.35 1.35 12.8 0.1 6.95 Q-0.35 4.1 1.2 3.9 L3.3 3.9 4.5 6.2 4.8 6.75 5.0 11.85 5.4 14.4 5.45 14.85 4.85 15.05 M2.0 13.35 L5.0 11.85 2.0 13.35" fill="#878787" fill-rule="evenodd" stroke="none"/>
    <path d="M20.0 20.95 L18.65 23.75 9.95 23.75 7.2 23.5 Q6.55 21.85 6.05 20.0 L14.15 20.75 11.6 20.75 9.95 23.75 11.6 20.75 14.15 20.75 20.0 20.95" fill="#777777" fill-rule="evenodd" stroke="none"/>
    <path d="M12.25 2.95 L15.2 3.2 Q17.5 4.35 17.8 5.85 L15.6 5.75 12.25 2.95 M12.2 6.45 L12.2 7.1 8.05 7.35 Q6.8 8.7 6.8 10.6 L7.25 14.45 5.4 14.4 5.0 11.85 4.8 6.75 4.5 6.2 Q8.8 4.75 12.2 6.45" fill="#727272" fill-rule="evenodd" stroke="none"/>
    <path d="M6.05 20.0 L5.4 19.95 4.8 18.35 5.6 18.4 8.55 18.6 9.15 18.65 10.3 18.75 14.1 19.05 14.15 19.05 14.15 20.75 6.05 20.0" fill="#434343" fill-rule="evenodd" stroke="none"/>
    <path d="M22.15 12.5 L22.25 13.45 22.35 14.45 14.1 14.0 14.1 13.2 14.05 12.15 22.15 12.5 M22.3 16.25 L22.2 17.0 21.85 17.85 14.1 17.35 14.1 15.65 22.3 16.25 M21.05 19.35 L20.0 20.95 14.15 20.75 14.15 19.05 21.05 19.35 M17.8 5.85 L19.15 6.0 Q20.9 7.8 21.5 9.5 L21.8 10.5 13.9 10.2 13.85 9.65 12.2 8.35 12.2 7.1 12.2 6.45 12.2 5.8 14.45 5.7 15.6 5.75 17.8 5.85" fill="#7e7e7e" fill-rule="evenodd" stroke="none"/>
    <path d="M21.8 10.5 L13.9 10.2 M14.05 12.15 L22.15 12.5 M14.1 14.0 L22.35 14.45 M14.1 15.65 L22.3 16.25 M14.1 17.35 L21.85 17.85 M14.15 19.05 L21.05 19.35" fill="none" stroke="#6b6b6b" stroke-linecap="round" stroke-linejoin="round" stroke-width="1.0"/>
    <path d="M21.8 10.5 L22.0 11.65 22.15 12.5 22.25 13.45 22.35 14.45 22.35 15.25 22.3 16.25 22.2 17.0 21.85 17.85 21.05 19.35 20.0 20.95 18.65 23.75 9.95 23.75 7.2 23.5 Q6.55 21.85 6.05 20.0 L5.4 19.95 4.8 18.35 5.6 18.4 4.85 15.05 3.6 15.4 2.0 13.35 1.35 12.8 0.1 6.95 Q-0.35 4.1 1.2 3.9 L3.3 3.9 5.7 2.55 Q8.5 2.05 10.25 2.5 L12.25 2.95 15.2 3.2 Q17.5 4.35 17.8 5.85 L19.15 6.0 Q20.9 7.8 21.5 9.5 L21.8 10.5 M13.9 10.2 L14.05 12.15 14.1 13.2 14.1 14.0 14.1 15.65 14.1 17.35 14.1 19.05 10.3 18.75 9.15 18.65 8.55 18.6 5.6 18.4 M17.8 5.85 L15.6 5.75 14.45 5.7 12.2 5.8 12.2 6.45 12.2 7.1 12.2 8.35 13.85 9.65 13.9 10.2 M15.6 5.75 L12.25 2.95 M5.0 11.85 L4.8 6.75 4.5 6.2 3.3 3.9 M12.2 7.1 L8.05 7.35 Q6.8 8.7 6.8 10.6 L7.25 14.45 10.65 14.45 Q12.65 14.2 14.1 13.2 M5.4 14.4 L7.25 14.45 M4.85 15.05 L5.45 14.85 5.4 14.4 5.0 11.85 2.0 13.35 M14.1 19.05 L14.15 19.05 14.1 19.05 M14.15 20.75 L11.6 20.75 9.95 23.75 M14.15 19.05 L14.15 20.75 20.0 20.95 M14.15 20.75 L6.05 20.0 M4.5 6.2 Q8.8 4.75 12.2 6.45" fill="none" stroke="#1c1c1c" stroke-linecap="round" stroke-linejoin="round" stroke-width="1.0"/>
    <path d="M-0.55 -3.55 L-0.05 -3.55 1.8 -3.55 2.75 -3.4 Q4.4 -1.4 4.4 0.9 L3.75 0.55 4.25 1.55 Q2.2 1.15 2.3 3.25 2.7 4.2 5.6 4.8 L5.15 6.6 -1.1 8.6 -1.35 -0.85 -0.55 -3.55 M-3.65 22.75 L-6.0 22.55 -7.5 17.3 -7.65 13.8 -8.9 13.25 -9.6 11.6 -9.6 3.05 -8.2 1.4 -8.3 -0.65 -7.4 -2.7 -4.85 -3.25 -5.6 -1.2 -4.85 18.0 -3.65 22.75 M-7.65 13.8 L-8.2 1.4 -7.65 13.8" fill="#4f4f4f" fill-rule="evenodd" stroke="none"/>
    <path d="M4.25 1.55 L6.85 2.3 Q8.8 2.8 10.55 3.6 L8.95 5.25 Q7.05 5.4 5.6 4.8 2.7 4.2 2.3 3.25 2.2 1.15 4.25 1.55 M11.7 4.2 Q12.9 5.1 15.0 9.35 17.05 13.6 15.7 14.6 14.3 15.55 11.4 15.95 L10.05 14.15 13.75 13.0 Q14.35 12.7 13.25 10.55 12.15 8.4 10.2 5.8 L11.7 4.2 M10.1 16.45 L9.1 16.7 8.2 16.8 5.5 16.8 8.2 16.8 9.15 20.7 5.35 20.7 4.4 20.7 4.35 20.15 3.8 16.8 5.5 16.8 5.85 15.65 8.7 14.75 10.1 16.45 M10.0 16.65 L12.8 16.45 Q13.3 17.25 13.45 18.0 L19.25 19.2 18.6 21.4 13.3 20.45 Q13.1 20.3 12.8 20.7 L11.15 20.7 10.0 16.65 M13.3 20.45 Q13.65 19.0 13.45 18.0 13.65 19.0 13.3 20.45" fill="#232323" fill-rule="evenodd" stroke="none"/>
    <path d="M10.55 3.6 L11.7 4.2 10.2 5.8 8.95 5.25 10.55 3.6 M11.4 15.95 L10.1 16.45 8.7 14.75 10.05 14.15 11.4 15.95 M9.1 16.7 L10.0 16.65 11.15 20.7 9.15 20.7 8.2 16.8 9.1 16.7" fill="#565656" fill-rule="evenodd" stroke="none"/>
    <path d="M0.55 22.7 L-2.0 22.75 -3.3 17.6 Q-3.85 7.7 -3.8 -1.2 L-3.05 -3.45 -0.55 -3.55 -1.35 -0.85 -1.1 8.6 -0.85 17.45 0.55 22.7 M1.55 10.05 L1.55 10.25 1.5 10.05 1.55 10.05" fill="#6d6d6d" fill-rule="evenodd" stroke="none"/>
    <path d="M19.6 24.85 Q21.15 30.35 21.05 35.15 L18.8 34.45 Q18.3 30.65 16.15 25.55 L19.6 24.85" fill="#9c9c9c" fill-rule="evenodd" stroke="none"/>
    <path d="M-2.0 22.75 L-3.65 22.75 -4.85 18.0 -5.6 -1.2 -4.85 -3.25 -3.05 -3.45 -3.8 -1.2 Q-3.85 7.7 -3.3 17.6 L-2.0 22.75" fill="#2c0101" fill-rule="evenodd" stroke="none"/>
    <path d="M5.35 20.7 L4.5 21.95 2.0 22.6 0.55 22.7 -0.85 17.45 -1.1 8.6 5.15 6.6 Q4.05 11.85 5.5 16.8 L3.8 16.8 4.35 20.15 4.4 20.7 5.35 20.7 M1.55 10.05 L1.5 10.05 1.55 10.25 1.55 10.05" fill="#353535" fill-rule="evenodd" stroke="none"/>
    <path d="M-0.55 -3.55 L-0.05 -3.55 1.8 -3.55 2.75 -3.4 Q4.4 -1.4 4.4 0.9 M4.25 1.55 L6.85 2.3 Q8.8 2.8 10.55 3.6 L11.7 4.2 Q12.9 5.1 15.0 9.35 17.05 13.6 15.7 14.6 14.3 15.55 11.4 15.95 L10.1 16.45 9.1 16.7 10.0 16.65 12.8 16.45 Q13.3 17.25 13.45 18.0 L19.25 19.2 18.6 21.4 13.3 20.45 Q13.1 20.3 12.8 20.7 L11.15 20.7 9.15 20.7 5.35 20.7 4.5 21.95 2.0 22.6 0.55 22.7 -2.0 22.75 -3.65 22.75 -6.0 22.55 -7.5 17.3 -7.65 13.8 -8.9 13.25 -9.6 11.6 -9.6 3.05 -8.2 1.4 -8.3 -0.65 -7.4 -2.7 -4.85 -3.25 -3.05 -3.45 -0.55 -3.55 -1.35 -0.85 -1.1 8.6 -0.85 17.45 0.55 22.7 M5.15 6.6 L5.6 4.8 Q2.7 4.2 2.3 3.25 2.2 1.15 4.25 1.55 M-3.05 -3.45 L-3.8 -1.2 Q-3.85 7.7 -3.3 17.6 L-2.0 22.75 M-8.2 1.4 L-7.65 13.8 M10.2 5.8 Q12.15 8.4 13.25 10.55 14.35 12.7 13.75 13.0 L10.05 14.15 11.4 15.95 M10.2 5.8 L8.95 5.25 Q7.05 5.4 5.6 4.8 M10.05 14.15 L8.7 14.75 5.85 15.65 5.5 16.8 8.2 16.8 9.1 16.7 M4.35 20.15 L3.8 16.8 5.5 16.8 Q4.05 11.85 5.15 6.6 M8.2 16.8 L9.15 20.7 M13.45 18.0 Q13.65 19.0 13.3 20.45 M10.0 16.65 L11.15 20.7 M10.55 3.6 L8.95 5.25" fill="none" stroke="#0b0b0b" stroke-linecap="round" stroke-linejoin="round" stroke-width="1.0"/>
    <path d="M19.6 24.85 L16.15 25.55 Q18.3 30.65 18.8 34.45 L21.05 35.15 Q21.15 30.35 19.6 24.85 Z" fill="none" stroke="#1c1c1c" stroke-linecap="round" stroke-linejoin="round" stroke-width="1.0"/>
    <path d="M-9.1 15.7 L-10.1 15.8 -11.35 17.6 -13.0 16.15 -13.95 16.25 -13.0 16.15 -11.35 17.6 -10.1 15.8 -9.1 15.7 M-14.6 21.75 L-15.4 14.95 -15.7 12.4 -8.2 11.55 -7.9 14.1 -7.1 20.9 -7.75 22.35 -13.6 23.0 -14.6 21.75 -7.1 20.9 -14.6 21.75 M-7.9 14.1 L-15.4 14.95 -7.9 14.1 M-13.55 19.55 L-12.65 19.45 -11.35 17.6 -9.65 19.1 -8.7 19.0 -9.65 19.1 -11.35 17.6 -12.65 19.45 -13.55 19.55" fill="#3f1818" fill-rule="evenodd" stroke="none"/>
    <path d="M-13.95 16.25 L-13.0 16.15 -11.35 17.6 -10.1 15.8 -9.1 15.7 M-14.6 21.75 L-15.4 14.95 -15.7 12.4 -8.2 11.55 -7.9 14.1 -7.1 20.9 -7.75 22.35 -13.6 23.0 -14.6 21.75 -7.1 20.9 M-8.7 19.0 L-9.65 19.1 -11.35 17.6 -12.65 19.45 -13.55 19.55 M-15.4 14.95 L-7.9 14.1" fill="none" stroke="#2c0d0d" stroke-linecap="round" stroke-linejoin="round" stroke-width="1.0"/>
    <path d="M3.75 17.8 L21.4 19.75 Q23.0 22.05 20.75 23.1 L3.65 20.75 Q3.2 20.25 3.1 19.65 3.0 19.25 3.75 17.8" fill="#434343" fill-rule="evenodd" stroke="none"/>
    <path d="M-10.35 6.5 L4.9 5.8 4.5 7.65 -9.95 8.45 -10.35 6.5 M-14.9 22.25 L-14.95 22.25 -15.2 20.3 -4.55 19.05 -5.2 21.05 -6.55 21.25 -14.9 22.25 M-16.35 13.7 L-5.7 12.45 -6.35 14.45 -16.1 15.65 -16.35 13.7 M-6.55 21.25 L-5.2 21.05 -6.55 21.25" fill="#2c2c2c" fill-rule="evenodd" stroke="none"/>
    <path d="M3.65 20.75 Q1.6 19.1 3.75 17.8 L21.4 19.75 Q23.0 22.05 20.75 23.1 L3.65 20.75" fill="none" stroke="#202020" stroke-linecap="round" stroke-linejoin="round" stroke-width="1.0"/>
    <path d="M-10.35 6.5 L4.9 5.8 4.5 7.65 -9.95 8.45 -10.35 6.5 M-14.95 22.25 L-15.2 20.3 -4.55 19.05 -5.2 21.05 -6.55 21.25 -14.9 22.25 M-16.35 13.7 L-5.7 12.45 -6.35 14.45 -16.1 15.65 -16.35 13.7 Z" fill="none" stroke="#121212" stroke-linecap="round" stroke-linejoin="round" stroke-width="1.0"/>
    <path d="M-6.35 15.05 L-6.35 10.9 Q-2.2 9.6 1.9 10.3 L2.7 14.45 Q-1.8 16.05 -6.35 15.05" fill="#545454" fill-rule="evenodd" stroke="none"/>
    <path d="M2.9 17.15 L2.9 18.75 -6.05 18.15 -6.2 16.85 2.9 17.15" fill="#333333" fill-rule="evenodd" stroke="none"/>
    <path d="M2.7 14.45 L2.9 17.15 -6.2 16.85 -6.35 15.05 Q-1.8 16.05 2.7 14.45 M2.9 18.75 L2.7 20.9 2.7 21.15 -5.3 21.7 -5.35 21.5 -6.05 18.15 2.9 18.75" fill="#353535" fill-rule="evenodd" stroke="none"/>
    <path d="M-6.35 15.05 L-6.35 10.9 Q-2.2 9.6 1.9 10.3 L2.7 14.45 2.9 17.15 2.9 18.75 2.7 20.9 2.7 21.15 -5.3 21.7 -5.35 21.5 -6.05 18.15 -6.2 16.85 -6.35 15.05 Q-1.8 16.05 2.7 14.45 M-6.05 18.15 L2.9 18.75 M-6.2 16.85 L2.9 17.15" fill="none" stroke="#0b0b0b" stroke-linecap="round" stroke-linejoin="round" stroke-width="1.0"/>
    <path d="M20.7 19.9 L18.3 19.9 18.3 18.7 Q19.5 17.2 20.7 18.7 L20.7 19.9 M6.95 18.2 L4.55 18.2 4.55 17.0 Q5.75 15.5 6.95 17.0 L6.95 18.2 M7.95 17.35 Q9.15 15.85 10.35 17.35 L10.35 18.55 7.95 18.55 7.95 17.35 M13.8 17.95 L13.8 19.15 11.4 19.15 11.4 17.95 Q12.6 16.45 13.8 17.95 M14.85 18.5 Q16.05 17.0 17.25 18.5 L17.25 19.7 14.85 19.7 14.85 18.5" fill="#989898" fill-rule="evenodd" stroke="none"/>
    <path d="M20.7 22.45 L18.25 22.45 18.25 20.0 20.7 20.0 20.7 22.45 M7.9 18.65 L10.35 18.65 10.35 21.1 7.9 21.1 7.9 18.65 M4.5 18.3 L6.95 18.3 6.95 20.75 4.5 20.75 4.5 18.3 M14.8 19.8 L17.25 19.8 17.25 22.25 14.8 22.25 14.8 19.8 M11.35 19.25 L13.8 19.25 13.8 21.7 11.35 21.7 11.35 19.25" fill="#434343" fill-rule="evenodd" stroke="none"/>
    <path d="M20.7 24.0 L18.25 24.0 18.25 23.0 20.7 23.0 20.7 24.0 20.75 23.1 20.75 24.1 20.7 24.1 20.7 24.0 M6.95 22.3 L4.5 22.3 4.5 21.3 6.95 21.3 6.95 22.3 7.0 21.4 7.0 22.4 6.95 22.4 6.95 22.3 M10.35 22.65 L7.9 22.65 7.9 21.65 10.35 21.65 10.35 22.65 10.4 21.75 10.4 22.75 10.35 22.75 10.35 22.65 M13.8 23.25 L11.35 23.25 11.35 22.25 13.8 22.25 13.8 23.25 13.85 22.35 13.85 23.35 13.8 23.35 13.8 23.25 M17.25 23.8 L14.8 23.8 14.8 22.8 17.25 22.8 17.25 23.8 17.3 22.9 17.3 23.9 17.25 23.9 17.25 23.8" fill="#959595" fill-rule="evenodd" stroke="none"/>
    <path d="M22.25 11.9 L22.25 11.3 23.6 11.3 Q24.1 13.35 23.6 15.4 L23.6 17.15 22.45 17.15 22.45 14.5 22.25 14.2 22.25 11.9 M22.1 11.9 L22.1 14.2 21.9 14.55 21.9 17.15 19.7 17.15 19.7 14.5 19.65 14.45 19.5 14.2 19.5 11.95 19.5 11.3 22.1 11.3 22.1 11.9 M19.25 14.55 L19.25 17.15 17.05 17.15 17.05 14.5 16.85 14.2 16.85 11.3 19.45 11.3 19.45 11.95 19.45 14.2 19.25 14.55 18.35 15.4 17.95 15.35 16.85 14.2 17.95 15.35 18.35 15.4 19.25 14.55 M22.1 14.2 L21.05 15.4 21.0 15.4 20.65 15.35 19.7 14.5 20.65 15.35 21.0 15.4 21.05 15.4 22.1 14.2 M23.6 15.4 L23.4 15.35 23.15 15.2 22.45 14.2 22.45 14.5 22.45 14.2 23.15 15.2 23.4 15.35 23.6 15.4" fill="#545454" fill-rule="evenodd" stroke="none"/>
    <path d="M20.7 19.9 L18.3 19.9 18.3 18.7 Q19.5 17.2 20.7 18.7 L20.7 19.9 M20.7 24.0 L18.25 24.0 18.25 23.0 20.7 23.0 20.7 24.0 M6.95 18.2 L4.55 18.2 4.55 17.0 Q5.75 15.5 6.95 17.0 L6.95 18.2 M7.95 17.35 Q9.15 15.85 10.35 17.35 L10.35 18.55 7.95 18.55 7.95 17.35 M6.95 22.3 L4.5 22.3 4.5 21.3 6.95 21.3 6.95 22.3 M10.35 22.65 L7.9 22.65 7.9 21.65 10.35 21.65 10.35 22.65 M13.8 17.95 L13.8 19.15 11.4 19.15 11.4 17.95 Q12.6 16.45 13.8 17.95 M13.8 23.25 L11.35 23.25 11.35 22.25 13.8 22.25 13.8 23.25 M17.25 23.8 L14.8 23.8 14.8 22.8 17.25 22.8 17.25 23.8 M14.85 18.5 Q16.05 17.0 17.25 18.5 L17.25 19.7 14.85 19.7 14.85 18.5" ffdec:has-small-stroke="true" ffdec:original-stroke-width="0.8" fill="none" stroke="#333333" stroke-linecap="round" stroke-linejoin="round" stroke-width="1.0"/>
    <path d="M22.25 11.9 L22.25 11.3 23.6 11.3 Q24.1 13.35 23.6 15.4 L23.6 17.15 22.45 17.15 22.45 14.5 22.45 14.2 23.15 15.2 23.4 15.35 23.6 15.4 M22.25 14.2 L22.25 11.9 22.1 11.9 22.1 14.2 21.9 14.55 21.9 17.15 19.7 17.15 19.7 14.5 19.65 14.45 19.55 14.35 19.5 14.25 19.25 14.55 19.25 17.15 17.05 17.15 17.05 14.5 16.85 14.2 16.85 11.3 19.45 11.3 19.45 11.95 19.5 11.95 19.5 11.3 22.1 11.3 22.1 11.9 M19.7 14.5 L20.65 15.35 21.0 15.4 21.05 15.4 22.1 14.2 M16.85 14.2 L17.95 15.35 18.35 15.4 19.25 14.55 M19.45 14.2 L19.45 11.95 M19.5 14.2 L19.5 14.25 19.45 14.2 M19.5 11.95 L19.5 14.2" ffdec:has-small-stroke="true" ffdec:original-stroke-width="0.8" fill="none" stroke="#3a3a3a" stroke-linecap="round" stroke-linejoin="round" stroke-width="1.0"/>
    <path d="M20.7 22.45 L18.25 22.45 18.25 20.0 20.7 20.0 20.7 22.45 M7.9 18.65 L10.35 18.65 10.35 21.1 7.9 21.1 7.9 18.65 M4.5 18.3 L6.95 18.3 6.95 20.75 4.5 20.75 4.5 18.3 M14.8 19.8 L17.25 19.8 17.25 22.25 14.8 22.25 14.8 19.8 M11.35 19.25 L13.8 19.25 13.8 21.7 11.35 21.7 11.35 19.25 Z" ffdec:has-small-stroke="true" ffdec:original-stroke-width="0.8" fill="none" stroke="#202020" stroke-linecap="round" stroke-linejoin="round" stroke-width="1.0"/>
  </g>
</svg>
