<?xml version="1.0" encoding="UTF-8" standalone="no"?>
<svg xmlns:ffdec="https://www.free-decompiler.com/flash" xmlns:xlink="http://www.w3.org/1999/xlink" ffdec:objectType="shape" height="19.05px" width="26.3px" xmlns="http://www.w3.org/2000/svg">
  <g transform="matrix(1.0, 0.0, 0.0, 1.0, 9.65, 18.2)">
    <path d="M7.25 -9.6 L16.15 -11.75 16.65 -3.55 7.2 -5.95 7.25 -9.6" fill="url(#gradient0)" fill-rule="evenodd" stroke="none"/>
    <path d="M6.75 -8.35 L4.95 -8.35" fill="none" stroke="#412d02" stroke-linecap="round" stroke-linejoin="round" stroke-width="0.9500000000000001"/>
    <path d="M-8.3 -9.6 L-6.95 -7.55 -4.25 -6.9 -1.15 -8.05 -0.45 -6.1 4.9 -4.0 7.3 -6.0 8.55 -6.6 9.25 -1.85 4.9 0.0 0.95 -1.5 -2.5 -2.0 -6.3 -2.0 -8.65 -6.1 -8.3 -9.6" fill="#0f152e" fill-rule="evenodd" stroke="none"/>
    <path d="M0.5 -10.3 L8.25 -9.7 8.4 -9.0 8.4 -7.7 7.75 -6.35 4.9 -4.0 -0.45 -6.1 -1.15 -7.95 0.5 -10.3" fill="url(#gradient1)" fill-rule="evenodd" stroke="none"/>
    <path d="M0.35 -10.7 L-1.15 -8.05 -0.45 -6.1 4.9 -4.0 7.4 -6.2 8.15 -6.5 8.75 -8.05 8.55 -9.2 8.3 -9.9 0.35 -10.7 Z" fill="none" stroke="#1e1502" stroke-linecap="round" stroke-linejoin="round" stroke-width="0.9500000000000001"/>
    <path d="M8.75 -9.95 L0.35 -10.7 -2.65 -5.15 -5.85 -5.45 -6.45 -7.35 -9.2 -10.15 -6.75 -14.55 Q-1.95 -17.05 0.55 -17.0 3.3 -16.95 6.4 -15.15 8.15 -14.1 10.7 -10.45 L8.75 -9.95" fill="#282828" fill-rule="evenodd" stroke="none"/>
    <path d="M-8.4 -9.05 L-8.65 -6.1 -6.3 -2.0 -2.5 -2.0 0.95 -1.5 5.65 0.05 9.25 -1.85 8.55 -6.6" fill="none" stroke="#080b19" stroke-linecap="round" stroke-linejoin="round" stroke-width="0.9500000000000001"/>
    <path d="M4.45 -0.35 L0.95 -1.5 -3.35 -1.9 -2.1 -2.9 3.0 -1.6 4.45 -0.35" fill="#000000" fill-rule="evenodd" stroke="none"/>
    <path d="M4.45 -0.35 L3.0 -1.6 -2.1 -2.9 -3.35 -1.9 0.95 -1.5 4.45 -0.35 Z" fill="none" stroke="#000000" stroke-linecap="round" stroke-linejoin="round" stroke-opacity="0.4392157" stroke-width="0.9500000000000001"/>
    <path d="M-8.05 -9.0 Q-6.45 -10.85 -5.3 -11.15 L-2.7 -11.0 Q-1.8 -10.7 -0.6 -9.05 L-1.15 -8.05 -2.35 -6.6 -2.65 -5.05 -5.65 -5.55 -6.45 -7.35 -8.05 -9.0 Z" fill="none" stroke="#181818" stroke-linecap="round" stroke-linejoin="round" stroke-width="0.9500000000000001"/>
    <path d="M-0.15 0.7 L-1.7 0.35 -2.75 -0.35 -3.15 -1.3 -3.3 -1.9 -1.7 -1.5 0.95 -1.5 2.45 -1.2 4.4 -0.35 3.85 0.2 2.25 0.75 1.35 0.85 -0.15 0.7" fill="#000000" fill-rule="evenodd" stroke="none"/>
    <path d="M8.9 -4.2 L7.6 -4.1 5.25 -2.35 -2.25 -5.2" fill="none" stroke="#080b19" stroke-linecap="round" stroke-linejoin="round" stroke-width="0.9500000000000001"/>
    <path d="M7.2 -13.3 L6.05 -12.8 Q3.6 -14.4 2.15 -14.6 L-0.4 -14.5 -1.85 -14.25 -2.35 -15.3 0.65 -15.9 3.0 -15.6 4.65 -14.95 7.2 -13.3" fill="#202020" fill-rule="evenodd" stroke="none"/>
    <path d="M9.55 -11.4 L0.95 -12.15 -0.3 -11.3 -4.2 -15.2" fill="none" stroke="#181818" stroke-linecap="round" stroke-linejoin="round" stroke-width="0.9500000000000001"/>
    <path d="M0.05 -11.25 L0.9 -11.85 9.6 -11.25 10.05 -10.75 8.8 -10.3 0.15 -11.0 0.05 -11.25" fill="#0f152e" fill-rule="evenodd" stroke="none"/>
    <path d="M8.75 -9.95 L10.7 -10.45 Q8.15 -14.1 6.4 -15.15 3.3 -16.95 0.55 -17.0 -1.95 -17.05 -6.75 -14.55 L-9.2 -10.15 -6.45 -7.35 -5.65 -5.55 -2.65 -5.15 -2.35 -6.6 -1.15 -8.05 0.35 -10.7 8.75 -9.95 Z" fill="none" stroke="#121212" stroke-linecap="round" stroke-linejoin="round" stroke-width="0.9500000000000001"/>
    <path d="M-3.35 -16.9 L-1.45 -17.35 1.45 -17.75 Q3.65 -17.7 6.4 -16.05 7.45 -15.4 9.1 -13.7 L7.7 -12.95 4.0 -15.25 0.65 -15.9 -1.2 -15.6 -2.35 -15.3 -3.35 -16.9" fill="#202020" fill-rule="evenodd" stroke="none"/>
    <path d="M-3.35 -16.9 L-2.35 -15.3 -1.2 -15.6 0.65 -15.9 4.0 -15.25 7.7 -12.95 9.1 -13.7 Q7.45 -15.4 6.4 -16.05 3.65 -17.7 1.45 -17.75 L-1.45 -17.35 -3.35 -16.9 Z" fill="none" stroke="#121212" stroke-linecap="round" stroke-linejoin="round" stroke-width="0.9500000000000001"/>
  </g>
  <defs>
    <linearGradient gradientTransform="matrix(0.0054, 0.0, 0.0, 0.0054, 11.7, -7.65)" gradientUnits="userSpaceOnUse" id="gradient0" spreadMethod="pad" x1="-819.2" x2="819.2">
      <stop offset="0.0" stop-color="#f3ab05" stop-opacity="0.2"/>
      <stop offset="1.0" stop-color="#f3ab05" stop-opacity="0.0"/>
    </linearGradient>
    <radialGradient cx="0" cy="0" gradientTransform="matrix(0.0058, 5.0E-4, -3.0E-4, 0.0037, 5.3, -7.85)" gradientUnits="userSpaceOnUse" id="gradient1" r="819.2" spreadMethod="pad">
      <stop offset="0.0" stop-color="#faca56"/>
      <stop offset="1.0" stop-color="#d99d04"/>
    </radialGradient>
  </defs>
</svg>
