<?xml version="1.0" encoding="UTF-8" standalone="no"?>
<svg xmlns:ffdec="https://www.free-decompiler.com/flash" xmlns:xlink="http://www.w3.org/1999/xlink" ffdec:objectType="shape" height="31.05px" width="36.15px" xmlns="http://www.w3.org/2000/svg">
  <g transform="matrix(1.0, 0.0, 0.0, 1.0, 13.3, 1.2)">
    <path d="M12.7 1.25 L11.2 4.45 5.7 2.55 6.9 0.55 12.7 1.25 M6.6 24.25 L11.25 25.55 15.95 25.55 15.95 22.6 18.2 22.6 18.2 27.4 11.45 27.4 6.05 25.9 6.6 24.25" fill="#2c0101" fill-rule="evenodd" stroke="none"/>
    <path d="M12.7 1.25 L15.9 1.25 15.2 3.2 11.2 4.45 12.7 1.25 M6.6 24.25 L7.1 22.6 15.95 22.6 15.95 25.55 11.25 25.55 6.6 24.25" fill="#202020" fill-rule="evenodd" stroke="none"/>
    <path d="M11.2 4.45 L15.2 3.2 15.9 1.25 12.7 1.25 11.2 4.45 5.7 2.55 6.9 0.55 12.7 1.25 M15.95 22.6 L7.1 22.6 6.6 24.25 6.05 25.9 11.45 27.4 18.2 27.4 18.2 22.6 15.95 22.6 Z" fill="none" stroke="#0b0b0b" stroke-linecap="round" stroke-linejoin="round" stroke-width="1.0"/>
    <path d="M8.5 2.65 L15.2 3.2 Q17.5 4.35 17.8 5.85 L14.45 5.7 12.2 5.95 Q11.55 4.35 8.55 2.7 L8.5 2.65 M12.2 7.1 L12.2 8.35 13.85 9.65 14.1 13.2 Q12.65 14.85 10.55 14.5 L7.7 13.7 Q6.95 12.85 6.8 10.8 L6.8 10.6 Q6.8 8.7 8.05 7.35 L12.2 7.1" fill="#2e2e2e" fill-rule="evenodd" stroke="none"/>
    <path d="M4.85 15.05 L3.6 15.4 2.0 13.35 1.35 12.8 0.1 6.95 Q-0.35 4.1 1.2 3.9 L3.3 3.9 4.8 6.75 5.0 11.85 5.45 14.85 4.85 15.05 M2.0 13.35 L5.0 11.85 2.0 13.35" fill="#353535" fill-rule="evenodd" stroke="none"/>
    <path d="M8.45 2.65 L8.5 2.65 8.45 2.65 M12.2 5.95 L8.55 2.7 Q11.55 4.35 12.2 5.95" fill="#202020" fill-rule="evenodd" stroke="none"/>
    <path d="M21.5 9.5 L21.85 10.8 22.0 11.65 16.05 10.7 15.5 8.65 21.5 9.5 M22.25 13.45 L22.35 15.25 16.15 14.55 16.15 12.5 22.25 13.45" fill="#351414" fill-rule="evenodd" stroke="none"/>
    <path d="M22.35 15.25 L22.2 17.0 Q21.65 18.6 20.2 19.9 L15.55 17.45 14.35 16.8 14.1 13.2 16.15 12.5 16.15 14.55 22.35 15.25" fill="#252525" fill-rule="evenodd" stroke="none"/>
    <path d="M20.2 19.9 L20.0 20.95 18.65 23.75 9.95 23.75 11.6 20.75 14.55 20.75 15.55 19.35 15.55 17.45 20.2 19.9" fill="#2c0101" fill-rule="evenodd" stroke="none"/>
    <path d="M9.95 23.75 L7.2 23.5 Q6.55 21.85 6.05 20.0 L5.4 19.95 4.8 18.35 5.6 18.4 4.85 15.05 5.45 14.85 5.0 11.85 4.8 6.75 3.3 3.9 5.05 2.55 7.6 2.55 8.45 2.65 8.5 2.65 8.55 2.7 12.2 5.95 12.2 7.1 8.05 7.35 Q6.8 8.7 6.8 10.6 L6.8 10.8 Q6.95 12.85 7.7 13.7 L10.55 14.5 Q12.65 14.85 14.1 13.2 L14.35 16.8 15.55 17.45 15.55 19.35 14.55 20.75 11.6 20.75 9.95 23.75 M8.25 18.6 L8.55 18.6 9.15 18.65 10.3 18.75 15.55 19.35 10.3 18.75 9.15 18.65 8.55 18.6 8.25 18.6 M5.6 18.4 L7.95 18.55 5.6 18.4 M6.05 20.0 L14.55 20.75 6.05 20.0" fill="#171717" fill-rule="evenodd" stroke="none"/>
    <path d="M17.8 5.85 L19.15 6.0 Q20.9 7.8 21.5 9.5 L15.5 8.65 16.05 10.7 22.0 11.65 22.25 13.45 16.15 12.5 14.1 13.2 13.85 9.65 12.2 8.35 12.2 7.1 12.2 5.95 14.45 5.7 17.8 5.85" fill="#313131" fill-rule="evenodd" stroke="none"/>
    <path d="M8.45 2.65 L8.5 2.65 8.55 2.7 12.2 5.95" fill="none" stroke="#191919" stroke-linecap="round" stroke-linejoin="round" stroke-width="1.2000000000000002"/>
    <path d="M22.35 15.25 L22.2 17.0 Q21.65 18.6 20.2 19.9 L20.0 20.95 18.65 23.75 9.95 23.75 7.2 23.5 Q6.55 21.85 6.05 20.0 L5.4 19.95 4.8 18.35 5.6 18.4 4.85 15.05 3.6 15.4 2.0 13.35 1.35 12.8 0.1 6.95 Q-0.35 4.1 1.2 3.9 L3.3 3.9 5.05 2.55 7.6 2.55 8.45 2.65 8.5 2.65 15.2 3.2 Q17.5 4.35 17.8 5.85 L19.15 6.0 Q20.9 7.8 21.5 9.5 M22.0 11.65 L22.25 13.45 M14.1 13.2 L14.35 16.8 15.55 17.45 20.2 19.9 M12.2 7.1 L12.2 8.35 13.85 9.65 14.1 13.2 Q12.65 14.85 10.55 14.5 L7.7 13.7 Q6.95 12.85 6.8 10.8 L6.8 10.6 Q6.8 8.7 8.05 7.35 L12.2 7.1 12.2 5.95 14.45 5.7 17.8 5.85 M5.0 11.85 L4.8 6.75 3.3 3.9 M7.95 18.55 L5.6 18.4 M15.55 19.35 L10.3 18.75 9.15 18.65 8.55 18.6 8.25 18.6 M4.85 15.05 L5.45 14.85 5.0 11.85 2.0 13.35 M15.55 17.45 L15.55 19.35 14.55 20.75 11.6 20.75 9.95 23.75 M14.55 20.75 L6.05 20.0" fill="none" stroke="#0b0b0b" stroke-linecap="round" stroke-linejoin="round" stroke-width="1.0"/>
    <path d="M21.5 9.5 L21.85 10.8 22.0 11.65 16.05 10.7 15.5 8.65 21.5 9.5 M22.25 13.45 L22.35 15.25 16.15 14.55 16.15 12.5 22.25 13.45 Z" fill="none" stroke="#271010" stroke-linecap="round" stroke-linejoin="round" stroke-width="1.0"/>
    <path d="M3.3 20.75 L3.3 29.05 -0.15 29.05 0.05 20.75 3.3 20.75" fill="#383838" fill-rule="evenodd" stroke="none"/>
    <path d="M3.3 29.05 L3.3 20.75 4.75 20.75 4.75 29.05 3.3 29.05 M0.05 20.75 L-0.15 29.05 -1.45 29.05 -1.45 26.6 -2.2 26.6 -2.2 23.75 -2.2 26.6 -2.7 26.6 -2.7 23.75 -2.2 23.75 -1.35 23.75 -1.35 20.75 0.05 20.75" fill="#272727" fill-rule="evenodd" stroke="none"/>
    <path d="M-1.35 20.75 L-1.35 23.75 -2.2 23.75 -2.7 23.75 -3.4 23.75 -3.4 20.75 -1.35 20.75 M-2.2 26.6 L-1.45 26.6 -1.45 29.05 -3.4 29.05 -3.4 26.6 -2.7 26.6 -2.2 26.6" fill="#515151" fill-rule="evenodd" stroke="none"/>
    <path d="M-2.2 23.75 L-2.2 26.6" fill="none" stroke="#ff0000" stroke-linecap="round" stroke-linejoin="round" stroke-width="1.0"/>
    <path d="M3.3 20.75 L3.3 29.05 4.75 29.05 4.75 20.75 3.3 20.75 0.05 20.75 -0.15 29.05 3.3 29.05 M-1.35 20.75 L-1.35 23.75 -2.2 23.75 -2.7 23.75 -2.7 26.6 -2.2 26.6 -1.45 26.6 -1.45 29.05 -0.15 29.05 M-2.7 23.75 L-3.4 23.75 -3.4 20.75 -1.35 20.75 0.05 20.75 M-1.45 29.05 L-3.4 29.05 -3.4 26.6 -2.7 26.6" fill="none" stroke="#121010" stroke-linecap="round" stroke-linejoin="round" stroke-width="1.0"/>
    <path d="M11.8 16.85 L14.6 16.65 15.25 18.2 21.05 19.4 20.4 21.6 15.1 20.65 Q14.9 20.5 14.6 20.9 L12.95 20.9 11.8 16.85 M10.95 20.9 L6.2 20.9 Q5.05 18.95 5.6 17.0 L7.65 15.85 10.5 14.95 11.9 16.65 10.9 16.9 10.0 17.0 10.95 20.9 M12.0 6.0 L13.5 4.4 16.9 6.85 Q18.95 8.5 17.35 12.0 16.0 15.0 13.2 16.15 L11.85 14.35 Q14.65 12.85 15.15 10.6 15.45 9.15 14.85 8.5 L12.0 6.0 M12.35 3.8 L10.75 5.45 4.2 4.8 Q4.5 4.4 4.1 3.45 4.0 1.35 6.05 1.75 L8.65 2.5 Q10.6 3.0 12.35 3.8 M5.6 17.0 L10.0 17.0 5.6 17.0 M15.1 20.65 Q15.45 19.2 15.25 18.2 15.45 19.2 15.1 20.65" fill="#232323" fill-rule="evenodd" stroke="none"/>
    <path d="M12.95 20.9 L10.95 20.9 10.0 17.0 10.9 16.9 11.8 16.85 12.95 20.9 M13.5 4.4 L12.0 6.0 10.75 5.45 12.35 3.8 13.5 4.4 M11.85 14.35 L13.2 16.15 11.9 16.65 10.5 14.95 11.85 14.35" fill="#480909" fill-rule="evenodd" stroke="none"/>
    <path d="M11.8 16.85 L14.6 16.65 15.25 18.2 21.05 19.4 20.4 21.6 15.1 20.65 Q14.9 20.5 14.6 20.9 L12.95 20.9 10.95 20.9 6.2 20.9 5.25 20.9 M13.5 4.4 L12.35 3.8 10.75 5.45 12.0 6.0 14.85 8.5 Q15.45 9.15 15.15 10.6 14.65 12.85 11.85 14.35 L13.2 16.15 Q16.0 15.0 17.35 12.0 18.95 8.5 16.9 6.85 L13.5 4.4 M12.35 3.8 Q10.6 3.0 8.65 2.5 L6.05 1.75 M4.2 4.8 L10.75 5.45 M5.6 17.0 L7.65 15.85 10.5 14.95 11.85 14.35 M10.0 17.0 L5.6 17.0 M10.9 16.9 L11.9 16.65 13.2 16.15 M10.9 16.9 L11.8 16.85 12.95 20.9 M15.25 18.2 Q15.45 19.2 15.1 20.65 M10.9 16.9 L10.0 17.0 10.95 20.9" fill="none" stroke="#0b0b0b" stroke-linecap="round" stroke-linejoin="round" stroke-width="1.0"/>
    <path d="M-6.3 7.55 L-7.25 8.05 -7.1 7.4 Q-7.5 3.4 -6.45 -0.05 -0.95 -1.3 4.7 -0.05 L5.25 1.1 5.3 1.7 3.25 1.7 1.45 2.85 0.2 3.6 -6.3 7.55 M5.25 1.1 L3.9 1.1 Q-1.7 3.45 -7.1 7.4 -1.7 3.45 3.9 1.1 L5.25 1.1" fill="#252525" fill-rule="evenodd" stroke="none"/>
    <path d="M0.2 3.6 L1.45 2.85 1.5 11.6 0.25 11.75 0.2 3.6" fill="#412424" fill-rule="evenodd" stroke="none"/>
    <path d="M5.3 1.7 L5.6 11.25 5.25 22.05 Q-0.3 22.85 -6.05 22.05 L-6.35 12.35 -6.3 7.55 0.2 3.6 0.25 11.75 1.5 11.6 1.45 2.85 3.25 1.7 5.3 1.7 M5.6 11.25 L1.5 11.6 5.6 11.25 M0.25 11.75 L-6.35 12.35 0.25 11.75" fill="#2c2c2c" fill-rule="evenodd" stroke="none"/>
    <path d="M-7.1 7.4 Q-1.7 3.45 3.9 1.1 L5.25 1.1" fill="none" stroke="#480909" stroke-linecap="round" stroke-linejoin="round" stroke-width="1.0"/>
    <path d="M-6.3 7.55 L-7.25 8.05 -7.1 7.4 Q-7.5 3.4 -6.45 -0.05 -0.95 -1.3 4.7 -0.05 L5.25 1.1 5.3 1.7 5.6 11.25 5.25 22.05 Q-0.3 22.85 -6.05 22.05 L-6.35 12.35 -6.3 7.55 0.2 3.6 1.45 2.85 3.25 1.7 5.3 1.7 M0.2 3.6 L0.25 11.75 1.5 11.6 1.45 2.85 M1.5 11.6 L5.6 11.25 M-6.35 12.35 L0.25 11.75" fill="none" stroke="#000000" stroke-linecap="round" stroke-linejoin="round" stroke-width="1.0"/>
    <path d="M5.1 20.1 L-3.55 20.1 -3.55 19.65 Q-4.15 12.45 -3.55 5.25 0.6 2.65 5.1 5.25 5.75 12.5 5.15 19.65 L5.1 20.1" fill="#2a2a2a" fill-rule="evenodd" stroke="none"/>
    <path d="M-8.95 8.0 L-6.1 8.0 -6.15 13.75 -6.15 19.1 -11.25 19.1 -11.2 13.7 -10.55 13.75 -8.95 8.0 M-6.15 13.75 L-10.55 13.75 -6.15 13.75" fill="#353535" fill-rule="evenodd" stroke="none"/>
    <path d="M-11.2 13.7 L-12.05 13.75 -12.05 8.05 -8.95 8.0 -10.55 13.75 -11.2 13.7" fill="#4a4a4a" fill-rule="evenodd" stroke="none"/>
    <path d="M5.1 20.1 L-3.55 20.1 -3.55 19.65 Q-4.15 12.45 -3.55 5.25 0.6 2.65 5.1 5.25 5.75 12.5 5.15 19.65 L5.1 20.1" fill="none" stroke="#0e0e0e" stroke-linecap="round" stroke-linejoin="round" stroke-width="1.0"/>
    <path d="M-8.95 8.0 L-6.1 8.0 -6.15 13.75 -6.15 19.1 -11.25 19.1 -11.2 13.7 -12.05 13.75 -12.05 8.05 -8.95 8.0 M-10.55 13.75 L-6.15 13.75 M-10.55 13.75 L-11.2 13.7" fill="none" stroke="#151515" stroke-linecap="round" stroke-linejoin="round" stroke-width="1.0"/>
    <path d="M2.5 15.65 L4.05 15.05 3.45 18.95 Q-0.35 19.75 -3.95 18.95 L-4.5 14.95 -2.9 15.6 Q-0.15 16.45 2.5 15.65" fill="#4a4a4a" fill-rule="evenodd" stroke="none"/>
    <path d="M2.5 15.65 L2.5 9.05 4.05 9.8 4.05 15.05 2.5 15.65 M-2.9 8.9 L-2.9 15.6 -4.5 14.95 -4.5 9.8 -2.9 8.9" fill="#414141" fill-rule="evenodd" stroke="none"/>
    <path d="M2.5 9.05 L2.5 15.65 Q-0.15 16.45 -2.9 15.6 L-2.9 8.9 2.5 9.05" fill="#333333" fill-rule="evenodd" stroke="none"/>
    <path d="M2.5 9.05 L2.5 15.65 M-2.9 8.9 L-2.9 15.6" fill="none" stroke="#480909" stroke-linecap="round" stroke-linejoin="round" stroke-width="1.0"/>
    <path d="M2.5 15.65 L4.05 15.05 4.05 9.8 2.5 9.05 -2.9 8.9 -4.5 9.8 -4.5 14.95 -2.9 15.6 Q-0.15 16.45 2.5 15.65 M4.05 15.05 L3.45 18.95 Q-0.35 19.75 -3.95 18.95 L-4.5 14.95" fill="none" stroke="#151515" stroke-linecap="round" stroke-linejoin="round" stroke-width="1.0"/>
    <path d="M2.2 3.4 L2.2 10.9 5.45 10.9 5.45 12.45 2.2 12.45 2.2 15.7 5.35 15.7 5.35 17.2 2.2 17.2 2.2 20.1 0.3 20.1 0.3 17.2 -4.4 17.2 -4.4 15.7 0.3 15.7 0.3 12.45 -4.5 12.45 -4.5 10.9 0.3 10.9 0.3 3.4 2.2 3.4 M0.3 12.45 L2.2 12.45 0.3 12.45 M2.2 15.7 L0.3 15.7 2.2 15.7 M0.3 17.2 L2.2 17.2 0.3 17.2 M2.2 10.9 L0.3 10.9 2.2 10.9 M4.1 21.05 L4.1 29.35 2.5 29.35 2.5 21.05 4.1 21.05 M1.0 29.35 L-0.6 29.35 -0.6 21.05 1.0 21.05 1.0 29.35 M-6.1 11.45 L-12.8 11.45 -12.8 9.95 -6.1 9.95 -6.1 11.45 M-11.75 15.95 L-6.15 15.95 -6.15 17.45 -11.75 17.45 -11.75 15.95" fill="#2a2a2a" fill-rule="evenodd" stroke="none"/>
    <path d="M2.2 3.4 L2.2 10.9 5.45 10.9 5.45 12.45 2.2 12.45 2.2 15.7 5.35 15.7 5.35 17.2 2.2 17.2 2.2 20.1 0.3 20.1 0.3 17.2 -4.4 17.2 -4.4 15.7 0.3 15.7 0.3 12.45 -4.5 12.45 -4.5 10.9 0.3 10.9 0.3 3.4 2.2 3.4 M0.3 10.9 L2.2 10.9 M2.2 17.2 L0.3 17.2 M0.3 15.7 L2.2 15.7 M2.2 12.45 L0.3 12.45 M4.1 21.05 L4.1 29.35 2.5 29.35 2.5 21.05 4.1 21.05 M1.0 29.35 L-0.6 29.35 -0.6 21.05 1.0 21.05 1.0 29.35 M-6.1 11.45 L-12.8 11.45 -12.8 9.95 -6.1 9.95 -6.1 11.45 M-11.75 15.95 L-6.15 15.95 -6.15 17.45 -11.75 17.45 -11.75 15.95 Z" fill="none" stroke="#040404" stroke-linecap="round" stroke-linejoin="round" stroke-width="1.0"/>
    <path d="M19.95 18.5 L20.65 18.5 20.65 22.15 20.35 22.6 20.35 23.4 18.95 24.3 18.5 24.3 17.0 23.4 17.0 22.55 16.7 22.15 16.7 18.5 17.45 18.5 17.45 21.95 18.5 22.75 18.95 22.8 Q19.45 22.65 19.95 22.05 L19.95 18.5 M7.9 22.15 L7.9 18.5 8.65 18.5 8.65 21.95 Q9.95 23.55 11.15 22.05 L11.15 18.5 11.85 18.5 11.85 22.15 11.2 22.95 10.15 23.65 9.6 23.6 8.65 22.95 7.9 22.15 8.65 22.95 9.6 23.6 10.15 23.65 11.2 22.95 11.85 22.15 11.55 22.6 11.55 23.4 Q10.05 25.2 8.2 23.4 L8.2 22.55 7.9 22.15 M15.55 18.5 L16.25 18.5 16.25 22.15 15.95 22.6 15.95 23.4 Q14.45 25.2 12.6 23.4 L12.6 22.55 12.3 22.15 12.3 18.5 13.05 18.5 13.05 21.95 Q14.35 23.55 15.55 22.05 L15.55 18.5 M20.65 22.15 L20.0 22.95 18.95 23.65 18.5 23.65 18.4 23.6 17.45 22.95 16.7 22.15 17.45 22.95 18.4 23.6 18.5 23.65 18.95 23.65 20.0 22.95 20.65 22.15 M16.25 22.15 L15.6 22.95 14.55 23.65 14.0 23.6 13.05 22.95 12.3 22.15 13.05 22.95 14.0 23.6 14.55 23.65 15.6 22.95 16.25 22.15" fill="#3f1313" fill-rule="evenodd" stroke="none"/>
    <path d="M20.35 23.4 L20.35 25.85 17.0 25.85 17.0 23.4 18.5 24.3 18.95 24.3 20.35 23.4 M17.45 18.5 L19.95 18.5 19.95 22.05 Q19.45 22.65 18.95 22.8 L18.5 22.75 17.45 21.95 17.45 18.5 M11.15 18.5 L11.15 22.05 Q9.95 23.55 8.65 21.95 L8.65 18.5 11.15 18.5 M15.95 23.4 L15.95 25.85 12.6 25.85 12.6 23.4 Q14.45 25.2 15.95 23.4 M13.05 18.5 L15.55 18.5 15.55 22.05 Q14.35 23.55 13.05 21.95 L13.05 18.5 M11.55 23.4 L11.55 25.85 8.2 25.85 8.2 23.4 Q10.05 25.2 11.55 23.4" fill="#272727" fill-rule="evenodd" stroke="none"/>
    <path d="M19.95 18.5 L20.65 18.5 20.65 22.15 20.35 22.6 20.35 23.4 20.35 25.85 17.0 25.85 17.0 23.4 17.0 22.55 16.7 22.15 16.7 18.5 17.45 18.5 19.95 18.5 M8.65 18.5 L7.9 18.5 7.9 22.15 8.65 22.95 9.6 23.6 10.15 23.65 11.2 22.95 11.85 22.15 11.85 18.5 11.15 18.5 8.65 18.5 M8.2 23.4 L8.2 22.55 7.9 22.15 M15.55 18.5 L16.25 18.5 16.25 22.15 15.95 22.6 15.95 23.4 15.95 25.85 12.6 25.85 12.6 23.4 12.6 22.55 12.3 22.15 12.3 18.5 13.05 18.5 15.55 18.5 M11.85 22.15 L11.55 22.6 11.55 23.4 11.55 25.85 8.2 25.85 8.2 23.4 M12.3 22.15 L13.05 22.95 14.0 23.6 14.55 23.65 15.6 22.95 16.25 22.15 M16.7 22.15 L17.45 22.95 18.4 23.6 18.5 23.65 18.95 23.65 20.0 22.95 20.65 22.15" ffdec:has-small-stroke="true" ffdec:original-stroke-width="0.8" fill="none" stroke="#101010" stroke-linecap="round" stroke-linejoin="round" stroke-width="1.0"/>
  </g>
</svg>
