<?xml version="1.0" encoding="UTF-8" standalone="no"?>
<svg xmlns:ffdec="https://www.free-decompiler.com/flash" xmlns:xlink="http://www.w3.org/1999/xlink" ffdec:objectType="shape" height="27.35px" width="36.0px" xmlns="http://www.w3.org/2000/svg">
  <g transform="matrix(1.0, 0.0, 0.0, 1.0, 18.75, 19.8)">
    <path d="M-0.3 -16.1 L3.1 -14.55 8.0 -11.85 10.2 -9.9 10.95 -8.65 Q11.4 -7.2 10.15 -6.4 L8.2 -4.85 Q7.8 -4.35 7.45 -3.25 L7.0 -1.85 4.75 -3.05 Q1.65 -4.45 -2.5 -5.6 -7.05 -6.85 -8.1 -7.6 -8.75 -8.1 -8.45 -9.15 -8.25 -9.9 -7.45 -10.85 L-6.7 -11.65 Q-4.2 -11.6 -2.5 -12.95 -1.1 -14.05 -1.15 -14.95 L-0.4 -16.3 -0.3 -16.1" fill="#605c82" fill-rule="evenodd" stroke="none"/>
    <path d="M-0.3 -16.1 L3.1 -14.55 8.0 -11.85 10.2 -9.9 10.95 -8.65 Q11.4 -7.2 10.15 -6.4 L8.2 -4.85 Q7.8 -4.35 7.45 -3.25 L7.0 -1.85 4.75 -3.05 Q1.65 -4.45 -2.5 -5.6 -7.05 -6.85 -8.1 -7.6 -8.75 -8.1 -8.45 -9.15 -8.25 -9.9 -7.45 -10.85 L-6.7 -11.65 Q-4.2 -11.6 -2.5 -12.95 -1.1 -14.05 -1.15 -14.95 L-0.4 -16.3 -0.3 -16.1 Z" fill="none" stroke="#39353c" stroke-linecap="butt" stroke-linejoin="miter-clip" stroke-miterlimit="15.12109375" stroke-width="1.0"/>
    <path d="M9.05 -10.35 L9.7 -9.65 10.55 -8.35 10.6 -7.05 Q10.4 -6.4 9.85 -6.25 9.1 -6.05 7.95 -6.65 6.6 -7.35 6.6 -8.65 6.65 -9.85 7.85 -10.2 L9.05 -10.35" fill="#4b6c68" fill-rule="evenodd" stroke="none"/>
    <path d="M9.05 -10.35 L7.85 -10.2 Q6.65 -9.85 6.6 -8.65 6.6 -7.35 7.95 -6.65 9.1 -6.05 9.85 -6.25 10.4 -6.4 10.6 -7.05 L10.55 -8.35 9.7 -9.65 9.05 -10.35 Z" fill="none" stroke="#38504d" stroke-linecap="butt" stroke-linejoin="miter-clip" stroke-miterlimit="15.12109375" stroke-width="1.0"/>
    <path d="M10.35 -6.45 L10.25 -5.35 Q10.2 -4.05 10.45 -3.0 L10.9 -1.4 7.4 -1.5 Q6.4 -2.45 7.9 -4.65 8.5 -5.6 9.5 -6.1 L10.35 -6.45" fill="#5a5b4f" fill-rule="evenodd" stroke="none"/>
    <path d="M10.35 -6.45 L10.25 -5.35 Q10.2 -4.05 10.45 -3.0 L10.9 -1.4 7.4 -1.5 Q6.4 -2.45 7.9 -4.65 8.5 -5.6 9.5 -6.1 L10.35 -6.45 Z" fill="none" stroke="#454443" stroke-linecap="butt" stroke-linejoin="miter-clip" stroke-miterlimit="15.12109375" stroke-width="1.0"/>
    <path d="M4.4 -16.1 Q6.5 -15.5 9.35 -12.05 L10.6 -10.3 8.8 -10.85 5.9 -10.8 Q4.8 -10.25 5.05 -9.15 5.3 -8.05 6.85 -6.95 8.15 -6.05 9.35 -6.0 L10.35 -6.1 10.4 -4.95 8.8 -5.25 6.75 -5.1 5.85 -4.45 Q4.55 -5.0 3.2 -5.8 0.5 -7.4 0.45 -8.55 L0.45 -10.75 Q3.55 -11.45 3.4 -12.3 L2.55 -14.5 1.85 -16.0 2.4 -16.25 4.4 -16.1" fill="#748785" fill-rule="evenodd" stroke="none"/>
    <path d="M4.4 -16.1 Q6.5 -15.5 9.35 -12.05 L10.6 -10.3 8.8 -10.85 5.9 -10.8 Q4.8 -10.25 5.05 -9.15 5.3 -8.05 6.85 -6.95 8.15 -6.05 9.35 -6.0 L10.35 -6.1 10.4 -4.95 8.8 -5.25 6.75 -5.1 5.85 -4.45 Q4.55 -5.0 3.2 -5.8 0.5 -7.4 0.45 -8.55 L0.45 -10.75 Q3.55 -11.45 3.4 -12.3 L2.55 -14.5 1.85 -16.0 2.4 -16.25 4.4 -16.1 Z" fill="none" stroke="#344a47" stroke-linecap="butt" stroke-linejoin="miter-clip" stroke-miterlimit="15.12109375" stroke-width="1.0"/>
    <path d="M-0.15 -5.95 L1.2 -4.05 Q2.1 -2.75 1.8 -1.85 L2.1 -0.4 Q2.4 0.85 2.05 1.0 L-0.15 0.45 -2.1 -0.15 Q-2.75 0.55 -2.15 -0.65 -1.25 -2.45 -1.6 -2.75 L-4.8 -5.7 Q-5.8 -6.6 -5.8 -7.2 -5.85 -7.65 -5.3 -8.05 L-4.2 -8.25 -3.6 -8.15 -2.25 -7.7 Q-0.8 -7.05 -0.15 -5.95" fill="#555889" fill-rule="evenodd" stroke="none"/>
    <path d="M-0.15 -5.95 L1.2 -4.05 Q2.1 -2.75 1.8 -1.85 L2.1 -0.4 Q2.4 0.85 2.05 1.0 L-0.15 0.45 -2.1 -0.15 Q-2.75 0.55 -2.15 -0.65 -1.25 -2.45 -1.6 -2.75 L-4.8 -5.7 Q-5.8 -6.6 -5.8 -7.2 -5.85 -7.65 -5.3 -8.05 L-4.2 -8.25 -3.6 -8.15 -2.25 -7.7 Q-0.8 -7.05 -0.15 -5.95 Z" fill="none" stroke="#39353c" stroke-linecap="butt" stroke-linejoin="miter-clip" stroke-miterlimit="15.12109375" stroke-width="1.0"/>
    <path d="M0.3 -3.15 L2.1 -2.7 Q3.85 -2.15 3.75 -1.35 L3.0 -0.9 2.0 -0.3 Q1.85 -0.05 2.05 0.45 2.2 0.8 1.9 0.8 1.5 0.8 0.9 0.4 L0.35 0.3 Q-0.65 1.65 -2.7 -0.4 -2.2 -0.05 -1.55 -1.3 L-0.7 -2.85 0.0 -3.15 0.3 -3.15" fill="#3a3c5e" fill-rule="evenodd" stroke="none"/>
    <path d="M0.3 -3.15 L2.1 -2.7 Q3.85 -2.15 3.75 -1.35 L3.0 -0.9 2.0 -0.3 Q1.85 -0.05 2.05 0.45 2.2 0.8 1.9 0.8 1.5 0.8 0.9 0.4 L0.35 0.3 Q-0.65 1.65 -2.7 -0.4 -2.2 -0.05 -1.55 -1.3 L-0.7 -2.85 0.0 -3.15 0.3 -3.15 Z" fill="none" stroke="#2e4340" stroke-linecap="butt" stroke-linejoin="miter-clip" stroke-miterlimit="15.12109375" stroke-width="1.0"/>
    <path d="M-7.45 -11.2 L-7.7 -10.5 -10.4 -10.9 -12.6 -11.45 -13.65 -11.85 -12.75 -12.35 -10.8 -12.65 Q-9.45 -12.4 -7.45 -11.2" fill="#6b6b62" fill-rule="evenodd" stroke="none"/>
    <path d="M-7.45 -11.2 Q-9.45 -12.4 -10.8 -12.65 L-12.75 -12.35 -13.65 -11.85 -12.6 -11.45 -10.4 -10.9 -7.7 -10.5 -7.45 -11.2 Z" fill="none" stroke="#4b4945" stroke-linecap="butt" stroke-linejoin="miter-clip" stroke-miterlimit="15.12109375" stroke-width="1.0"/>
    <path d="M-9.2 -8.85 L-7.75 -7.55 Q-10.45 -7.35 -12.2 -8.5 L-13.7 -9.75 -13.9 -10.1 -9.2 -8.85" fill="#6b6b62" fill-rule="evenodd" stroke="none"/>
    <path d="M-9.2 -8.85 L-13.9 -10.1 -13.7 -9.75 -12.2 -8.5 Q-10.45 -7.35 -7.75 -7.55 L-9.2 -8.85 Z" fill="none" stroke="#4b4945" stroke-linecap="butt" stroke-linejoin="miter-clip" stroke-miterlimit="15.12109375" stroke-width="1.0"/>
    <path d="M2.9 -5.5 L3.65 -5.35 Q4.55 -5.1 5.15 -4.35 L6.3 -2.75 Q6.45 -1.95 5.1 -1.35 L2.2 -1.4 Q0.75 -2.15 0.95 -3.45 1.15 -4.55 2.05 -5.15 L2.9 -5.5" fill="#558983" fill-rule="evenodd" stroke="none"/>
    <path d="M2.9 -5.5 L3.65 -5.35 Q4.55 -5.1 5.15 -4.35 L6.3 -2.75 Q6.45 -1.95 5.1 -1.35 L2.2 -1.4 Q0.75 -2.15 0.95 -3.45 1.15 -4.55 2.05 -5.15 L2.9 -5.5 Z" fill="none" stroke="#38504d" stroke-linecap="butt" stroke-linejoin="miter-clip" stroke-miterlimit="15.12109375" stroke-width="1.0"/>
    <path d="M4.15 -3.55 L4.85 -2.85 Q5.5 -2.0 4.95 -1.45 4.3 -0.8 3.45 -1.0 2.65 -1.15 2.4 -1.95 1.75 -3.8 3.05 -3.75 L4.15 -3.55" fill="#558983" fill-rule="evenodd" stroke="none"/>
    <path d="M4.15 -3.55 L4.85 -2.85 Q5.5 -2.0 4.95 -1.45 4.3 -0.8 3.45 -1.0 2.65 -1.15 2.4 -1.95 1.75 -3.8 3.05 -3.75 L4.15 -3.55 Z" fill="none" stroke="#38504d" stroke-linecap="butt" stroke-linejoin="miter-clip" stroke-miterlimit="15.12109375" stroke-width="1.0"/>
    <path d="M-3.55 -13.0 L-3.8 -12.3 -6.5 -12.75 -8.7 -13.25 -9.75 -13.65 -8.85 -14.15 -6.9 -14.45 Q-5.55 -14.2 -3.55 -13.0" fill="#6b6b62" fill-rule="evenodd" stroke="none"/>
    <path d="M-3.55 -13.0 Q-5.55 -14.2 -6.9 -14.45 L-8.85 -14.15 -9.75 -13.65 -8.7 -13.25 -6.5 -12.75 -3.8 -12.3 -3.55 -13.0 Z" fill="none" stroke="#4b4945" stroke-linecap="butt" stroke-linejoin="miter-clip" stroke-miterlimit="15.12109375" stroke-width="1.0"/>
    <path d="M-0.3 -15.85 L-0.55 -15.15 -3.25 -15.55 Q-4.2 -15.65 -5.45 -16.1 L-6.5 -16.5 -5.55 -17.0 -3.6 -17.3 Q-2.3 -17.05 -0.3 -15.85" fill="#6b6b62" fill-rule="evenodd" stroke="none"/>
    <path d="M-0.3 -15.85 Q-2.3 -17.05 -3.6 -17.3 L-5.55 -17.0 -6.5 -16.5 -5.45 -16.1 Q-4.2 -15.65 -3.25 -15.55 L-0.55 -15.15 -0.3 -15.85 Z" fill="none" stroke="#4b4945" stroke-linecap="butt" stroke-linejoin="miter-clip" stroke-miterlimit="15.12109375" stroke-width="1.0"/>
    <path d="M9.25 -8.35 L10.4 -8.05" fill="none" stroke="#4fdfc7" stroke-linecap="round" stroke-linejoin="miter-clip" stroke-miterlimit="15.12109375" stroke-width="1.0"/>
    <path d="M6.4 -2.15 L7.1 -1.65 Q7.95 -1.2 8.7 -1.15 L10.8 -1.3 10.55 -3.35 10.15 -5.35 10.55 -6.85 Q11.35 -7.6 10.75 -8.65 L9.35 -10.9 10.55 -10.5 Q8.0 -14.2 5.7 -15.4 L3.45 -16.45 Q2.95 -16.65 2.5 -16.45 1.85 -16.2 2.2 -15.35 2.35 -14.85 0.35 -16.1 L-1.65 -16.95 Q-3.85 -17.75 -4.65 -17.45 L-6.05 -16.8 -6.45 -16.5 -5.05 -15.9 -2.65 -15.35 -1.0 -15.3 -1.15 -14.6 Q-1.45 -13.8 -1.95 -13.35 -2.7 -12.7 -3.7 -12.85 -6.65 -14.8 -7.75 -14.65 L-9.0 -14.35 -9.4 -14.1 -9.1 -13.3 -4.2 -12.45 -7.25 -11.25 Q-10.1 -12.8 -11.65 -12.5 L-13.3 -12.2 -12.75 -11.8 -11.55 -11.2 -7.7 -10.35 -8.75 -8.5 -14.2 -10.2 -13.1 -9.2 Q-11.75 -8.15 -10.65 -7.85 L-7.9 -7.45 -6.85 -6.55 -6.35 -6.6 Q-5.75 -6.5 -5.3 -5.9 -4.6 -4.9 -3.55 -4.3" fill="none" stroke="#000000" stroke-linecap="round" stroke-linejoin="round" stroke-opacity="0.3764706" stroke-width="1.0"/>
  </g>
</svg>
