<?xml version="1.0" encoding="UTF-8" standalone="no"?>
<svg xmlns:ffdec="https://www.free-decompiler.com/flash" xmlns:xlink="http://www.w3.org/1999/xlink" ffdec:objectType="shape" height="19.6px" width="20.1px" xmlns="http://www.w3.org/2000/svg">
  <g transform="matrix(1.0, 0.0, 0.0, 1.0, 10.45, 17.05)">
    <path d="M-2.35 0.7 L-4.25 0.4 -4.35 -1.55 0.85 -1.25 0.85 0.8 -2.35 0.7" fill="#16110d" fill-rule="evenodd" stroke="none"/>
    <path d="M-2.35 0.7 L-4.25 0.4 -4.35 -1.55 0.85 -1.25 0.85 0.8 -2.35 0.7 Z" fill="none" stroke="#020202" stroke-linecap="butt" stroke-linejoin="round" stroke-width="1.0"/>
    <path d="M-0.15 -1.35 L-4.7 -1.7 Q-6.2 -3.95 -7.05 -6.15 L1.3 -2.4 1.65 -1.05 -0.15 -1.35" fill="#161b15" fill-rule="evenodd" stroke="none"/>
    <path d="M-7.5 -8.15 L-6.8 -6.5 -5.75 -5.4 -2.35 -2.55 Q-2.0 -0.85 -2.5 -1.05 L-6.0 -3.15 Q-6.95 -3.95 -7.4 -7.0 L-7.5 -8.15 -7.9 -9.0 -7.65 -9.25 -7.9 -11.15 -6.35 -10.75 -7.65 -9.25 -7.5 -8.15" fill="#84848c" fill-rule="evenodd" stroke="none"/>
    <path d="M-7.9 -11.15 L-8.15 -8.1 Q-7.8 -4.6 -4.9 -2.4" fill="none" stroke="#404044" stroke-linecap="round" stroke-linejoin="round" stroke-width="1.0"/>
    <path d="M-2.25 -4.3 L-7.05 -6.15 -7.2 -8.15 Q-7.1 -10.35 -6.05 -11.3 L-3.95 -12.95 Q-3.05 -13.45 -1.8 -13.6 L2.75 -13.4 4.65 -11.75 2.35 -11.25 Q-0.2 -10.5 -1.25 -9.1 -2.3 -7.65 -2.4 -5.85 L-2.25 -4.3" fill="#14181b" fill-rule="evenodd" stroke="none"/>
    <path d="M-2.25 -4.3 L-7.05 -6.15 -7.2 -8.15 Q-7.1 -10.35 -6.05 -11.3 L-3.95 -12.95 Q-3.05 -13.45 -1.8 -13.6 L2.75 -13.4 4.65 -11.75 2.35 -11.25 Q-0.2 -10.5 -1.25 -9.1 -2.3 -7.65 -2.4 -5.85 L-2.25 -4.3 -0.05 -2.7 1.3 -2.4 1.65 -1.05 -4.7 -1.7" fill="none" stroke="#050607" stroke-linecap="round" stroke-linejoin="round" stroke-width="1.0"/>
    <path d="M2.85 -8.8 L4.05 -8.5 5.85 -8.35 6.5 -8.35 6.85 -8.25 6.85 -7.95 7.15 -7.7 7.8 -7.5 7.95 -5.8 7.95 -3.5 7.8 -0.75 Q7.55 -0.3 7.0 -0.45 L6.3 -0.7 Q6.1 -0.65 5.6 -2.0 L4.85 -3.4 Q4.4 -3.5 1.2 -5.05 -0.15 -5.5 -0.55 -5.85 L-0.6 -7.25 Q-0.5 -8.45 -0.7 -8.6 L-1.4 -9.3 -1.35 -9.7 -0.4 -9.7 1.4 -9.4 2.85 -8.8" fill="url(#gradient0)" fill-rule="evenodd" stroke="none"/>
    <path d="M-0.6 -7.6 L-0.35 -6.2 0.45 -5.65 1.55 -4.7 Q2.25 -3.7 4.65 -3.1 L5.8 -2.15 6.95 -1.45 8.2 -1.65 8.6 -0.4 8.35 0.75 7.0 0.7 4.55 0.15 3.4 -0.6 2.6 -1.15 Q2.2 -1.2 1.45 -1.85 L0.9 -2.45 Q0.65 -2.8 0.2 -2.85 L-2.3 -3.3 -3.0 -4.75 -3.4 -5.75 -3.4 -8.6 -3.4 -9.0 -3.3 -9.25 -1.35 -9.7 -1.45 -9.4 Q-1.45 -9.05 -1.05 -8.85 -0.7 -8.7 -0.6 -7.6" fill="url(#gradient1)" fill-rule="evenodd" stroke="none"/>
    <path d="M-3.3 -9.25 L-2.05 -8.35 -1.5 -7.1 -2.2 -5.9 -3.25 -5.9 -4.0 -6.75 -4.7 -8.4 -5.6 -9.35 Q-6.15 -9.75 -7.55 -10.05 L-9.6 -10.2 -9.35 -11.3 -8.8 -10.9 -5.65 -10.55 Q-4.85 -10.4 -3.3 -9.25" fill="#746e69" fill-rule="evenodd" stroke="none"/>
    <path d="M-3.8 -5.85 L-3.1 -4.9 Q-2.6 -4.05 -2.4 -2.55 L-3.2 -1.95 -4.4 -2.05 -6.0 -2.5 -7.05 -3.3 -9.3 -4.55 -9.6 -6.05 Q-9.55 -5.25 -10.0 -6.4 L-10.35 -8.0 -9.7 -9.05 -9.1 -9.7 -9.0 -9.7 Q-8.7 -9.45 -8.55 -9.55 L-8.25 -9.8 -6.8 -9.35 Q-6.2 -9.1 -5.15 -8.3 -4.55 -7.85 -4.15 -6.25 L-3.8 -5.85" fill="#746e69" fill-rule="evenodd" stroke="none"/>
    <path d="M-2.05 -12.7 L-1.8 -12.6 -0.95 -11.95 Q-0.15 -11.25 0.2 -10.25 L-2.7 -9.8 -3.4 -10.25 -5.8 -11.25 -9.05 -11.15 -8.95 -12.0 -8.6 -12.7 -8.0 -13.6 -6.4 -14.4 -6.0 -14.0 -4.85 -13.5 -2.05 -12.7" fill="#746e69" fill-rule="evenodd" stroke="none"/>
    <path d="M-3.35 -9.05 Q-4.5 -9.45 -5.2 -9.9 L-6.95 -10.3 -8.4 -10.5 -9.2 -11.2 -4.55 -12.65 -3.45 -12.4 -0.95 -11.45 1.4 -10.2 1.85 -9.75 -0.15 -9.8 -0.95 -9.25 -1.55 -8.8 -2.8 -8.85 -3.35 -9.05" fill="#776e63" fill-rule="evenodd" stroke="none"/>
    <path d="M3.2 -11.6 L5.85 -11.35 Q8.05 -11.05 8.05 -10.8 L8.7 -9.65 8.9 -8.55 8.85 -8.15 Q8.75 -7.8 8.5 -7.75 L7.45 -7.75 6.8 -7.9 Q4.0 -8.5 3.2 -8.95 L1.25 -9.7 -0.15 -10.05 Q-0.6 -11.2 -1.85 -11.8 L-3.1 -12.3 -3.5 -12.4 -3.2 -12.65 -2.25 -13.05 1.0 -12.5 2.05 -12.05 Q2.9 -11.65 3.2 -11.6" fill="url(#gradient2)" fill-rule="evenodd" stroke="none"/>
    <path d="M-3.1 -13.35 L-5.3 -14.05 -5.45 -14.45 -5.45 -14.8 -4.35 -15.15 -2.85 -15.4 Q-2.3 -15.35 -1.4 -14.9 L0.2 -14.75 Q0.6 -14.85 2.55 -14.15 3.0 -14.1 4.5 -13.1 L6.05 -12.1 8.4 -11.0 6.35 -11.3 2.15 -12.4 -0.3 -13.2 -2.15 -13.45 -3.1 -13.35" fill="url(#gradient3)" fill-rule="evenodd" stroke="none"/>
    <path d="M-1.8 -16.5 Q-0.55 -16.75 2.0 -15.8 4.35 -14.9 5.5 -13.95 6.95 -12.75 6.7 -12.05 L5.6 -12.75 Q3.95 -14.15 2.35 -14.55 L-1.95 -15.55 -3.5 -15.65 -5.15 -15.35 -5.75 -14.7 -5.7 -14.35 -5.95 -14.75 Q-6.0 -15.1 -4.9 -15.7 L-1.8 -16.5" fill="url(#gradient4)" fill-rule="evenodd" stroke="none"/>
    <path d="M0.9 -1.95 L3.4 -0.45 Q5.9 0.8 6.2 0.75 L8.15 0.9 7.7 1.5 5.9 1.55 -1.5 -1.55 -3.05 -2.05 -2.3 -3.3 -0.65 -2.8 0.3 -2.5 0.9 -1.95" fill="#222222" fill-rule="evenodd" stroke="none"/>
    <path d="M3.45 -0.9 L3.95 -0.65 5.5 0.65 1.55 -1.3 2.35 -1.4 3.1 -1.0 3.45 -0.9" fill="#161616" fill-rule="evenodd" stroke="none"/>
    <path d="M7.0 -12.8 Q5.85 -14.95 2.5 -16.0 -1.6 -17.3 -5.0 -14.85" fill="none" stroke="#14181b" stroke-linecap="round" stroke-linejoin="round" stroke-width="1.0"/>
    <path d="M7.9 -7.7 L8.9 -7.6 9.15 -9.15 8.8 -10.3 8.4 -11.0 7.45 -11.05 M7.0 -12.8 L8.05 -11.7 8.4 -11.0" fill="none" stroke="#494643" stroke-linecap="round" stroke-linejoin="round" stroke-width="1.0"/>
    <path d="M7.05 -11.9 Q3.95 -13.6 2.55 -14.1 L-0.9 -15.05 -3.9 -15.25 Q-4.75 -15.2 -5.3 -14.8 L-5.7 -14.35 -6.1 -14.7" fill="none" stroke="#45423f" stroke-linecap="round" stroke-linejoin="round" stroke-width="1.0"/>
    <path d="M7.4 -11.25 L3.9 -11.7 Q3.15 -11.85 1.9 -12.35 0.35 -13.05 -0.6 -13.15 L-2.05 -13.25 -2.7 -13.15 Q-5.25 -13.9 -5.7 -14.35" fill="none" stroke="#45423f" stroke-linecap="round" stroke-linejoin="round" stroke-width="1.0"/>
    <path d="M-5.2 -15.15 Q-6.65 -14.5 -7.15 -14.0 -7.85 -13.4 -8.3 -12.05 L-9.35 -11.3" fill="none" stroke="#45423f" stroke-linecap="round" stroke-linejoin="round" stroke-width="1.0"/>
    <path d="M-8.25 -11.65 L-6.8 -11.65 -4.4 -12.25 -3.7 -12.55 -2.65 -13.0 M-0.5 -10.4 L-1.6 -11.4 Q-2.35 -12.0 -3.7 -12.55" fill="none" stroke="#45423f" stroke-linecap="round" stroke-linejoin="round" stroke-width="1.0"/>
    <path d="M0.1 -9.9 L2.15 -9.35 4.2 -8.75 5.4 -7.9 8.45 -7.75" fill="none" stroke="#554d4d" stroke-linecap="round" stroke-linejoin="round" stroke-width="1.0"/>
    <path d="M-9.35 -11.3 L-9.6 -10.2 -8.25 -10.0 -6.4 -9.55 Q-5.55 -9.1 -5.0 -8.4 L-4.0 -6.75 -3.25 -5.9 -2.2 -5.9 -1.1 -7.5 -0.65 -8.5 -0.45 -10.25" fill="none" stroke="#45423f" stroke-linecap="round" stroke-linejoin="round" stroke-width="1.0"/>
    <path d="M-5.9 -9.5 L-4.6 -10.2 Q-3.05 -10.9 -1.6 -10.95 L-0.15 -10.05" fill="none" stroke="#45423f" stroke-linecap="round" stroke-linejoin="round" stroke-opacity="0.49019608" stroke-width="1.0"/>
    <path d="M-9.6 -10.2 L-9.95 -9.05 -9.95 -8.25 -9.3 -4.85 -8.8 -4.45 -7.55 -3.7 Q-6.55 -3.25 -6.0 -2.5 L-4.4 -2.05 -3.05 -2.05" fill="none" stroke="#45423f" stroke-linecap="round" stroke-linejoin="round" stroke-width="1.0"/>
    <path d="M-4.0 -6.75 Q-2.9 -5.6 -2.55 -4.3 -2.15 -2.85 -3.05 -2.05" fill="none" stroke="#3d3f41" stroke-linecap="round" stroke-linejoin="round" stroke-width="1.0"/>
    <path d="M-2.7 -8.15 L-3.15 -8.95" fill="none" stroke="#68c0bc" stroke-linecap="round" stroke-linejoin="round" stroke-width="1.0"/>
    <path d="M-2.3 -3.3 L0.1 -3.0 1.0 -1.65 5.0 0.4 6.25 0.55" fill="none" stroke="#45423f" stroke-linecap="round" stroke-linejoin="round" stroke-width="1.0"/>
    <path d="M-3.05 -2.05 L5.65 1.9 6.3 2.05 7.35 1.9 8.2 1.2" fill="none" stroke="#161616" stroke-linecap="round" stroke-linejoin="round" stroke-width="1.0"/>
    <path d="M-0.7 -9.95 L-1.0 -8.75 -0.5 -5.95 1.65 -4.35 4.95 -2.8 5.65 -1.35 8.3 -1.05" fill="none" stroke="#554d4d" stroke-linecap="round" stroke-linejoin="round" stroke-width="1.0"/>
    <path d="M8.45 -1.1 Q8.85 -0.3 8.15 0.9 L6.2 0.75" fill="none" stroke="#37373c" stroke-linecap="round" stroke-linejoin="round" stroke-width="1.0"/>
    <path d="M7.8 -7.8 Q7.55 -7.9 8.0 -5.35 L7.85 -1.6" fill="none" stroke="#575757" stroke-linecap="round" stroke-linejoin="round" stroke-opacity="0.63529414" stroke-width="1.0"/>
    <path d="M-9.65 -7.2 L-8.7 -6.85 Q-7.65 -6.3 -7.25 -5.2 -6.6 -3.5 -6.85 -3.0" fill="none" stroke="#45423f" stroke-linecap="butt" stroke-linejoin="miter-clip" stroke-miterlimit="15.12109375" stroke-opacity="0.5176471" stroke-width="1.0"/>
    <path d="M8.0 1.1 L8.5 -0.75 Q8.55 -1.2 8.1 -1.3 L7.7 -1.35 7.8 -7.7 8.75 -7.65 9.15 -8.15 9.1 -9.55 6.75 -13.0 4.5 -14.9 2.9 -15.95 1.0 -16.45 Q-1.3 -16.8 -3.05 -15.95 L-6.95 -14.1 -7.35 -13.7 -8.05 -12.6 -8.45 -11.45 Q-8.9 -11.55 -9.45 -10.6 L-9.8 -8.3 -9.75 -6.4 -9.1 -4.85 -7.05 -3.35" fill="none" stroke="#000000" stroke-linecap="round" stroke-linejoin="round" stroke-opacity="0.2" stroke-width="1.0"/>
    <path d="M1.35 -8.95 L0.15 -9.35 -0.1 -9.25 -0.35 -8.95 0.0 -6.4 2.05 -4.65 5.05 -3.45 5.95 -1.65 7.8 -1.6 7.45 -7.1 5.2 -7.45 Q4.75 -8.3 3.45 -8.45 L1.35 -8.95 Z" fill="none" stroke="#000000" stroke-linecap="butt" stroke-linejoin="miter-clip" stroke-miterlimit="15.12109375" stroke-opacity="0.21960784" stroke-width="1.0"/>
  </g>
  <defs>
    <linearGradient gradientTransform="matrix(0.0049, 5.0E-4, -5.0E-4, 0.0045, 4.85, -5.1)" gradientUnits="userSpaceOnUse" id="gradient0" spreadMethod="pad" x1="-819.2" x2="819.2">
      <stop offset="0.0" stop-color="#2c2c2c"/>
      <stop offset="0.5803921568627451" stop-color="#818181"/>
      <stop offset="0.7450980392156863" stop-color="#f1f1f1"/>
      <stop offset="0.8313725490196079" stop-color="#fff1f3" stop-opacity="0.8117647"/>
      <stop offset="0.8941176470588236" stop-color="#ff9900" stop-opacity="0.49803922"/>
      <stop offset="1.0" stop-color="#ff9900" stop-opacity="0.49803922"/>
    </linearGradient>
    <linearGradient gradientTransform="matrix(-0.0045, 0.0026, -0.0024, -0.0042, 2.6, -3.8)" gradientUnits="userSpaceOnUse" id="gradient1" spreadMethod="pad" x1="-819.2" x2="819.2">
      <stop offset="0.0" stop-color="#938981"/>
      <stop offset="1.0" stop-color="#6d6863"/>
    </linearGradient>
    <linearGradient gradientTransform="matrix(0.0047, -5.0E-4, 5.0E-4, 0.0044, -1.85, -11.25)" gradientUnits="userSpaceOnUse" id="gradient2" spreadMethod="pad" x1="-819.2" x2="819.2">
      <stop offset="0.0" stop-color="#867364"/>
      <stop offset="1.0" stop-color="#8c8781"/>
    </linearGradient>
    <linearGradient gradientTransform="matrix(0.0085, 3.0E-4, -3.0E-4, 0.0079, 1.5, -13.25)" gradientUnits="userSpaceOnUse" id="gradient3" spreadMethod="pad" x1="-819.2" x2="819.2">
      <stop offset="0.0" stop-color="#1e1e24"/>
      <stop offset="1.0" stop-color="#3e3f4c"/>
    </linearGradient>
    <linearGradient gradientTransform="matrix(0.0077, 3.0E-4, -3.0E-4, 0.0071, 0.45, -14.4)" gradientUnits="userSpaceOnUse" id="gradient4" spreadMethod="pad" x1="-819.2" x2="819.2">
      <stop offset="0.0" stop-color="#353f49"/>
      <stop offset="1.0" stop-color="#1b2025"/>
    </linearGradient>
  </defs>
</svg>
