<?xml version="1.0" encoding="UTF-8" standalone="no"?>
<svg xmlns:ffdec="https://www.free-decompiler.com/flash" xmlns:xlink="http://www.w3.org/1999/xlink" ffdec:objectType="shape" height="6.8px" width="7.55px" xmlns="http://www.w3.org/2000/svg">
  <g transform="matrix(1.0, 0.0, 0.0, 1.0, -21.85, -18.4)">
    <path d="M22.7 23.3 L22.35 23.15 22.35 18.95 28.9 18.9 28.9 23.15 28.4 23.25 28.4 24.65 22.7 24.7 22.7 23.3 Q25.5 23.85 28.4 23.25 25.5 23.85 22.7 23.3" fill="#afafaf" fill-rule="evenodd" stroke="none"/>
    <path d="M22.7 23.3 L22.35 23.15 22.35 18.95 28.9 18.9 28.9 23.15 28.4 23.25 28.4 24.65 22.7 24.7 22.7 23.3 Q25.5 23.85 28.4 23.25" fill="none" stroke="#2c0404" stroke-linecap="round" stroke-linejoin="round" stroke-width="1.0"/>
    <path d="M25.85 20.05 L26.75 20.05 26.65 22.5 25.75 22.5 25.8 21.8 25.25 21.75 25.25 22.5 24.35 22.5 24.4 20.05 25.3 20.05 25.3 20.85 25.85 20.9 25.85 20.05" fill="#5d0000" fill-rule="evenodd" stroke="none"/>
    <path d="M25.2 19.95 L25.5 20.3 25.7 20.7 25.75 20.95 25.7 20.95 25.5 21.0 25.25 20.75 25.1 20.55 24.8 20.2 24.65 20.0 24.65 19.9 24.85 19.85 25.2 19.95 M23.45 20.05 L24.2 20.6 24.95 21.35 24.4 21.05 23.6 20.65 23.15 20.2 23.05 20.1 23.1 20.05 23.45 20.05 M23.05 20.8 L23.2 20.8 23.75 21.2 23.85 21.35 24.05 21.55 24.1 21.7 24.05 21.8 23.9 21.7 23.75 21.55 23.7 21.4 23.55 21.3 23.35 21.05 23.05 20.8 M24.65 20.7 L24.7 20.6 24.7 20.55 24.9 20.6 25.0 20.8 25.05 20.95 25.05 21.0 25.0 20.95 24.95 20.9 24.85 20.9 24.8 20.9 24.75 20.85 24.75 20.8 24.65 20.7 M24.15 21.5 L24.25 21.35 24.3 21.45 Q24.45 21.45 24.65 21.6 L24.7 21.55 24.9 21.9 25.0 21.9 25.0 21.95 25.65 22.3 25.65 22.45 25.65 22.5 25.55 22.55 25.45 22.6 25.4 22.65 25.15 22.4 25.05 22.2 24.95 22.25 24.9 22.25 24.55 22.15 24.35 22.0 24.25 21.7 24.15 21.5 M28.15 21.6 L28.1 22.2 Q27.9 22.7 27.7 22.45 L27.45 21.95 27.15 21.4 27.15 21.6 27.25 22.25 27.15 22.35 26.8 22.0 26.85 22.1 26.8 22.15 26.6 22.1 26.65 22.3 26.65 22.35 26.3 22.25 26.05 22.15 26.05 22.2 25.95 22.2 Q25.85 22.15 25.85 22.25 L25.65 22.15 25.5 21.9 25.35 21.7 25.45 21.55 25.25 21.35 25.4 21.3 25.65 21.4 25.9 21.6 25.95 21.8 26.3 21.85 26.25 21.55 26.3 21.35 Q26.35 21.2 26.55 21.35 L26.4 20.9 26.4 20.85 25.75 20.15 25.9 20.1 25.95 20.2 25.95 20.1 25.45 19.0 26.7 20.75 26.75 20.9 27.0 21.25 27.35 21.35 27.75 21.5 27.85 21.3 27.9 21.35 28.05 21.45 28.15 21.6 M26.35 22.9 L26.55 23.05 26.8 23.2 27.0 23.25 27.2 23.35 27.15 23.45 27.1 24.05 26.3 23.55 26.3 23.45 26.4 23.4 26.35 23.25 25.9 22.4 26.05 22.6 26.15 22.6 26.35 22.9 M27.15 22.45 L27.2 22.5 27.35 22.55 27.5 22.65 27.55 22.8 27.7 23.45 27.35 23.15 26.8 22.65 26.7 22.5 26.75 22.4 26.9 22.35 27.15 22.45" fill="#410000" fill-opacity="0.50980395" fill-rule="evenodd" stroke="none"/>
  </g>
</svg>
