<?xml version="1.0" encoding="UTF-8" standalone="no"?>
<svg xmlns:ffdec="https://www.free-decompiler.com/flash" xmlns:xlink="http://www.w3.org/1999/xlink" ffdec:objectType="shape" height="28.4px" width="34.45px" xmlns="http://www.w3.org/2000/svg">
  <g transform="matrix(1.0, 0.0, 0.0, 1.0, 11.15, 0.5)">
    <path d="M12.4 0.75 L11.2 4.45 5.7 2.55 7.05 0.0 12.4 0.75 M6.6 24.25 L11.25 25.55 15.95 25.55 15.95 22.6 18.2 22.6 18.2 27.4 11.45 27.4 6.05 25.9 6.6 24.25" fill="#696969" fill-rule="evenodd" stroke="none"/>
    <path d="M11.2 4.45 L12.4 0.75 15.9 1.25 15.2 3.2 11.2 4.45 M6.6 24.25 L7.1 22.6 15.95 22.6 15.95 25.55 11.25 25.55 6.6 24.25" fill="#313131" fill-rule="evenodd" stroke="none"/>
    <path d="M12.4 0.75 L11.2 4.45 15.2 3.2 15.9 1.25 12.4 0.75 7.05 0.0 5.7 2.55 11.2 4.45 M15.95 22.6 L7.1 22.6 6.6 24.25 6.05 25.9 11.45 27.4 18.2 27.4 18.2 22.6 15.95 22.6 Z" fill="none" stroke="#252525" stroke-linecap="round" stroke-linejoin="round" stroke-width="1.0"/>
    <path d="M9.95 23.75 L7.2 23.5 Q6.55 21.85 6.05 20.0 L14.55 20.75 11.6 20.75 9.95 23.75 M5.6 18.4 L4.85 15.05 5.45 14.85 5.4 14.4 7.95 18.55 5.6 18.4 M3.3 3.9 L5.05 2.55 5.7 2.55 6.4 7.55 4.95 10.8 4.8 6.75 3.3 3.9" fill="#191919" fill-rule="evenodd" stroke="none"/>
    <path d="M6.05 20.0 L5.4 19.95 4.8 18.35 5.6 18.4 7.95 18.55 8.25 18.6 8.55 18.6 9.15 18.65 10.3 18.75 15.05 19.1 14.55 20.75 6.05 20.0 M13.85 9.65 L13.9 10.1 13.95 11.4 14.0 11.4 14.1 13.2 Q12.65 14.85 10.55 14.5 L7.7 13.7 Q6.9 12.8 6.8 10.6 6.8 8.7 8.05 7.35 L12.2 7.1 12.2 8.35 13.85 9.65" fill="#2e2e2e" fill-rule="evenodd" stroke="none"/>
    <path d="M4.85 15.05 L3.6 15.4 2.0 13.35 1.35 12.8 0.5 8.7 0.1 6.95 Q-0.35 4.1 1.2 3.9 L3.3 3.9 4.8 6.75 4.95 10.8 5.0 11.85 5.4 14.4 5.45 14.85 4.85 15.05 M2.0 13.35 L5.0 11.85 2.0 13.35" fill="#353535" fill-rule="evenodd" stroke="none"/>
    <path d="M5.7 2.55 L7.6 2.55 8.95 3.1 Q11.5 4.2 12.2 5.8 L12.2 7.1 8.05 7.35 Q6.8 8.7 6.8 10.6 6.9 12.8 7.7 13.7 L10.55 14.5 Q12.65 14.85 14.1 13.2 L14.15 13.65 14.2 15.0 14.25 15.0 14.35 16.8 15.55 17.45 15.05 19.1 10.3 18.75 9.15 18.65 8.55 18.6 8.25 18.6 7.95 18.55 5.4 14.4 5.0 11.85 4.95 10.8 6.4 7.55 5.7 2.55 M8.95 3.1 L12.2 5.8 8.95 3.1" fill="#202020" fill-rule="evenodd" stroke="none"/>
    <path d="M13.9 10.1 L14.0 11.4 13.95 11.4 13.9 10.1 M14.25 15.0 L14.2 15.0 14.15 13.65 14.25 15.0" fill="#383838" fill-rule="evenodd" stroke="none"/>
    <path d="M22.0 11.4 L22.25 13.45 14.1 13.2 14.0 11.4 22.0 11.4 M22.35 15.25 L22.2 17.0 Q21.65 18.6 20.2 19.9 L15.55 17.45 14.35 16.8 14.25 15.0 22.35 15.25 M17.8 5.85 L19.15 6.0 Q20.9 7.8 21.5 9.5 L13.85 9.65 12.2 8.35 12.2 7.1 12.2 5.8 14.45 5.7 17.8 5.85" fill="#232323" fill-rule="evenodd" stroke="none"/>
    <path d="M20.2 19.9 L20.0 20.95 18.65 23.75 9.95 23.75 11.6 20.75 14.55 20.75 15.05 19.1 15.55 17.45 20.2 19.9 M7.6 2.55 L15.2 3.2 Q17.5 4.35 17.8 5.85 L14.45 5.7 12.2 5.8 Q11.5 4.2 8.95 3.1 L7.6 2.55" fill="#2c2c2c" fill-rule="evenodd" stroke="none"/>
    <path d="M21.5 9.5 L22.0 11.4 14.0 11.4 13.9 10.1 13.85 9.65 21.5 9.5 M22.25 13.45 L22.35 15.25 14.25 15.0 14.15 13.65 14.1 13.2 22.25 13.45" fill="#1c1c1c" fill-rule="evenodd" stroke="none"/>
    <path d="M21.5 9.5 L22.0 11.4 22.25 13.45 22.35 15.25 22.2 17.0 Q21.65 18.6 20.2 19.9 L20.0 20.95 18.65 23.75 9.95 23.75 7.2 23.5 Q6.55 21.85 6.05 20.0 M5.6 18.4 L4.85 15.05 3.6 15.4 2.0 13.35 1.35 12.8 0.5 8.7 M0.1 6.95 Q-0.35 4.1 1.2 3.9 L3.3 3.9 5.05 2.55 5.7 2.55 7.6 2.55 15.2 3.2 Q17.5 4.35 17.8 5.85 L19.15 6.0 Q20.9 7.8 21.5 9.5 L13.85 9.65 13.9 10.1 14.0 11.4 22.0 11.4 M17.8 5.85 L14.45 5.7 12.2 5.8 12.2 7.1 12.2 8.35 13.85 9.65 M14.0 11.4 L13.95 11.4 13.9 10.1 M5.0 11.85 L4.95 10.8 4.8 6.75 3.3 3.9 M12.2 7.1 L8.05 7.35 Q6.8 8.7 6.8 10.6 6.9 12.8 7.7 13.7 L10.55 14.5 Q12.65 14.85 14.1 13.2 L14.0 11.4 M8.25 18.6 L8.55 18.6 9.15 18.65 10.3 18.75 15.05 19.1 M15.55 17.45 L14.35 16.8 14.25 15.0 14.2 15.0 14.15 13.65 14.1 13.2 22.25 13.45 M7.95 18.55 L5.6 18.4 M4.85 15.05 L5.45 14.85 5.4 14.4 5.0 11.85 2.0 13.35 M14.15 13.65 L14.25 15.0 22.35 15.25 M20.2 19.9 L15.55 17.45" fill="none" stroke="#0e0e0e" stroke-linecap="round" stroke-linejoin="round" stroke-width="1.0"/>
    <path d="M15.05 19.1 L15.55 17.45 M14.55 20.75 L15.05 19.1 M9.95 23.75 L11.6 20.75 14.55 20.75" fill="none" stroke="#121212" stroke-linecap="round" stroke-linejoin="round" stroke-width="1.0"/>
    <path d="M6.05 20.0 L5.4 19.95 4.8 18.35 5.6 18.4 M14.55 20.75 L6.05 20.0" fill="none" stroke="#171717" stroke-linecap="round" stroke-linejoin="round" stroke-width="1.0"/>
    <path d="M0.5 8.7 L0.1 6.95" fill="none" stroke="#1c1c1c" stroke-linecap="round" stroke-linejoin="round" stroke-width="1.0"/>
    <path d="M12.2 5.8 L8.95 3.1" fill="none" stroke="#191919" stroke-linecap="round" stroke-linejoin="round" stroke-width="1.2000000000000002"/>
    <path d="M16.0 3.95 L16.45 4.8 16.0 3.95 M16.45 4.8 L16.95 5.7 16.45 4.8" fill="#646464" fill-rule="evenodd" stroke="none"/>
    <path d="M15.2 2.55 L20.95 3.1 20.95 5.0 19.65 5.5 20.5 7.6 Q19.95 9.0 19.05 9.5 L17.1 6.0 16.95 5.7 16.45 4.8 16.0 3.95 15.85 3.7 15.2 2.55 M19.65 5.5 L16.45 4.8 19.65 5.5" fill="#2e2e2e" fill-rule="evenodd" stroke="none"/>
    <path d="M19.05 9.5 L18.2 9.75 Q15.1 4.3 5.0 1.6 L15.2 2.55 15.85 3.7 16.0 3.95 16.45 4.8 16.95 5.7 17.1 6.0 19.05 9.5 M16.45 4.8 L15.95 4.7 16.45 4.8" fill="#1e1e1e" fill-rule="evenodd" stroke="none"/>
    <path d="M15.2 2.55 L15.85 3.7 16.0 3.95 16.45 4.8 16.95 5.7 17.1 6.0 19.05 9.5" ffdec:has-small-stroke="true" ffdec:original-stroke-width="0.6" fill="none" stroke="#380202" stroke-linecap="round" stroke-linejoin="round" stroke-width="1.0"/>
    <path d="M15.2 2.55 L20.95 3.1 20.95 5.0 19.65 5.5 20.5 7.6 Q19.95 9.0 19.05 9.5 L18.2 9.75 Q15.1 4.3 5.0 1.6 L15.2 2.55 M16.45 4.8 L19.65 5.5 M15.95 4.7 L16.45 4.8" fill="none" stroke="#0e0e0e" stroke-linecap="round" stroke-linejoin="round" stroke-width="1.0"/>
    <path d="M-0.75 2.7 Q-0.95 11.75 0.55 20.6 L-2.55 20.8 Q-4.2 12.15 -4.15 3.3 L-0.75 2.7" fill="#4a4a4a" fill-rule="evenodd" stroke="none"/>
    <path d="M11.35 15.25 Q14.15 13.75 14.65 11.5 14.95 10.05 14.35 9.4 L11.5 6.9 13.0 5.3 Q14.3 6.05 16.4 7.75 18.45 9.4 16.85 12.9 15.5 15.9 12.7 17.05 L11.35 15.25 M10.25 6.35 L7.3 6.05 5.7 5.7 Q4.0 5.3 3.6 4.35 3.45 1.45 5.85 2.1 L6.7 2.4 8.5 3.15 11.85 4.7 10.25 6.35 M6.8 17.9 L7.15 16.75 7.3 16.7 10.0 15.85 11.4 17.55 10.4 17.8 9.5 17.9 6.8 17.9 9.5 17.9 10.45 21.8 6.9 21.8 5.7 21.8 Q4.95 19.95 5.1 17.9 L6.8 17.9 M11.3 17.75 L14.1 17.55 14.75 19.1 20.55 20.3 19.9 22.5 14.6 21.55 Q14.4 21.4 14.1 21.8 L12.45 21.8 11.3 17.75 M14.6 21.55 Q14.95 20.1 14.75 19.1 14.95 20.1 14.6 21.55" fill="#232323" fill-rule="evenodd" stroke="none"/>
    <path d="M11.35 15.25 L12.7 17.05 11.4 17.55 10.0 15.85 11.35 15.25 M13.0 5.3 L11.5 6.9 10.25 6.35 11.85 4.7 13.0 5.3 M9.5 17.9 L10.4 17.8 11.3 17.75 12.45 21.8 10.45 21.8 9.5 17.9" fill="#565656" fill-rule="evenodd" stroke="none"/>
    <path d="M-5.2 9.8 L-5.15 10.15 -5.2 10.15 -5.2 9.8" fill="#6d6d6d" fill-rule="evenodd" stroke="none"/>
    <path d="M5.7 5.7 Q5.55 12.3 6.8 17.9 L5.1 17.9 Q4.95 19.95 5.7 21.8 L6.9 21.8 6.35 23.55 3.85 23.75 2.85 20.75 Q1.35 12.75 1.05 5.3 0.95 2.25 1.9 0.85 L4.35 0.9 Q2.75 0.45 3.8 0.7 4.85 0.95 6.7 2.4 L5.85 2.1 Q3.45 1.45 3.6 4.35 4.0 5.3 5.7 5.7 M5.85 2.1 L4.35 0.9 5.85 2.1 M-4.15 1.35 L-4.15 3.3 Q-4.2 12.15 -2.55 20.8 L-2.0 23.0 -1.15 24.1 -2.2 24.15 -4.5 22.35 Q-7.75 8.75 -6.6 2.4 -5.75 1.75 -4.15 1.35 M-5.2 9.8 L-5.2 10.15 -5.15 10.15 -5.2 9.8" fill="#1e1e1e" fill-rule="evenodd" stroke="none"/>
    <path d="M-0.55 0.9 L-0.75 2.7 -4.15 3.3 -4.15 1.35 -0.55 0.9 M0.55 20.6 L1.4 23.2 1.4 23.9 -1.15 24.1 -2.0 23.0 -2.55 20.8 0.55 20.6" fill="#2e2e2e" fill-rule="evenodd" stroke="none"/>
    <path d="M1.9 0.85 Q0.95 2.25 1.05 5.3 1.35 12.75 2.85 20.75 L3.85 23.75 1.4 23.9 1.4 23.2 0.55 20.6 Q-0.95 11.75 -0.75 2.7 L-0.55 0.9 1.9 0.85" fill="#380202" fill-rule="evenodd" stroke="none"/>
    <path d="M11.5 6.9 L14.35 9.4 Q14.95 10.05 14.65 11.5 14.15 13.75 11.35 15.25 L12.7 17.05 Q15.5 15.9 16.85 12.9 18.45 9.4 16.4 7.75 14.3 6.05 13.0 5.3 L11.85 4.7 10.25 6.35 7.3 6.05 5.7 5.7 Q5.55 12.3 6.8 17.9 L7.15 16.75 7.3 16.7 10.0 15.85 11.35 15.25 M11.5 6.9 L10.25 6.35 M11.85 4.7 L8.5 3.15 6.7 2.4 5.85 2.1 Q3.45 1.45 3.6 4.35 4.0 5.3 5.7 5.7 M3.85 23.75 L6.35 23.55 6.9 21.8 5.7 21.8 Q4.95 19.95 5.1 17.9 L6.8 17.9 9.5 17.9 10.4 17.8 11.4 17.55 12.7 17.05 M4.35 0.9 L1.9 0.85 -0.55 0.9 -0.75 2.7 Q-0.95 11.75 0.55 20.6 L1.4 23.2 1.4 23.9 3.85 23.75 M4.35 0.9 L5.85 2.1 M11.3 17.75 L14.1 17.55 14.75 19.1 20.55 20.3 19.9 22.5 14.6 21.55 Q14.4 21.4 14.1 21.8 L12.45 21.8 10.45 21.8 6.9 21.8 M10.4 17.8 L11.3 17.75 12.45 21.8 M14.75 19.1 Q14.95 20.1 14.6 21.55 M9.5 17.9 L10.45 21.8 M-4.15 3.3 L-0.75 2.7 M-4.15 1.35 L-4.15 3.3 Q-4.2 12.15 -2.55 20.8 L0.55 20.6 M-0.55 0.9 L-4.15 1.35 Q-5.75 1.75 -6.6 2.4 -7.75 8.75 -4.5 22.35 L-2.2 24.15 -1.15 24.1 -2.0 23.0 -2.55 20.8 M-1.15 24.1 L1.4 23.9" fill="none" stroke="#0b0b0b" stroke-linecap="round" stroke-linejoin="round" stroke-width="1.0"/>
    <path d="M1.9 0.85 Q0.95 2.25 1.05 5.3 1.35 12.75 2.85 20.75 L3.85 23.75" fill="none" stroke="#000000" stroke-linecap="round" stroke-linejoin="round" stroke-width="1.0"/>
    <path d="M21.45 11.15 L22.9 11.15 22.9 15.45 Q22.2 15.5 21.45 14.6 L21.45 11.15 M22.9 16.95 L22.9 18.5 21.0 18.5 21.0 16.05 Q22.0 17.0 22.9 16.95 M16.7 11.15 L19.2 11.15 19.2 14.7 Q18.0 16.2 16.7 14.6 L16.7 11.15 M19.6 16.05 L19.6 18.5 16.25 18.5 16.25 16.05 Q18.1 17.85 19.6 16.05" fill="#272727" fill-rule="evenodd" stroke="none"/>
    <path d="M22.9 15.45 L22.9 16.3 22.9 16.95 Q22.0 17.0 21.0 16.05 L21.0 15.2 20.7 14.8 20.7 11.15 21.45 11.15 21.45 14.6 Q22.2 15.5 22.9 15.45 M22.9 16.3 L22.4 16.25 21.45 15.6 20.7 14.8 21.45 15.6 22.4 16.25 22.9 16.3 M16.25 16.05 L16.25 15.2 15.95 14.8 15.95 11.15 16.7 11.15 16.7 14.6 Q18.0 16.2 19.2 14.7 L19.2 11.15 19.9 11.15 19.9 14.8 19.6 15.25 19.6 16.05 Q18.1 17.85 16.25 16.05 M19.9 14.8 L19.25 15.6 18.2 16.3 17.65 16.25 16.7 15.6 15.95 14.8 16.7 15.6 17.65 16.25 18.2 16.3 19.25 15.6 19.9 14.8" fill="#3f1313" fill-rule="evenodd" stroke="none"/>
    <path d="M-6.1 6.05 L0.95 5.5 1.4 9.25 -5.75 9.8 -6.1 6.05" fill="#252525" fill-rule="evenodd" stroke="none"/>
    <path d="M-6.1 6.05 L0.95 5.5 1.4 9.25 -5.75 9.8 -6.1 6.05" fill="none" stroke="#0b0b0b" stroke-linecap="round" stroke-linejoin="round" stroke-width="1.0"/>
    <path d="M7.15 23.7 L19.4 23.65" fill="none" stroke="#202020" stroke-linecap="round" stroke-linejoin="round" stroke-width="2.0"/>
    <path d="M21.45 11.15 L22.9 11.15 22.9 15.45 22.9 16.3 22.9 16.95 22.9 18.5 21.0 18.5 21.0 16.05 21.0 15.2 20.7 14.8 20.7 11.15 21.45 11.15 M20.7 14.8 L21.45 15.6 22.4 16.25 22.9 16.3 M16.25 16.05 L16.25 15.2 15.95 14.8 15.95 11.15 16.7 11.15 19.2 11.15 19.9 11.15 19.9 14.8 19.6 15.25 19.6 16.05 19.6 18.5 16.25 18.5 16.25 16.05 M15.95 14.8 L16.7 15.6 17.65 16.25 18.2 16.3 19.25 15.6 19.9 14.8" ffdec:has-small-stroke="true" ffdec:original-stroke-width="0.8" fill="none" stroke="#090909" stroke-linecap="round" stroke-linejoin="round" stroke-width="1.0"/>
    <path d="M20.25 22.85 L20.25 22.25 20.35 21.8 20.5 22.25 20.5 22.9 20.45 22.95 20.25 22.95 20.25 22.85 M20.55 23.25 L20.6 23.45 20.6 24.65 20.55 24.7 20.15 24.65 20.15 23.45 20.2 23.25 20.55 23.25 M7.15 22.95 L7.1 23.0 6.9 23.0 6.9 22.9 6.9 22.3 7.0 21.85 7.15 22.3 7.15 22.95 M7.2 23.3 L7.25 23.5 7.25 24.7 Q7.0 25.0 6.8 24.7 L6.8 23.5 6.85 23.3 7.2 23.3 M9.4 22.9 L9.4 22.3 9.5 21.85 9.65 22.3 9.65 22.95 9.6 23.0 9.4 23.0 9.4 22.9 M9.7 23.3 L9.75 23.5 9.75 24.7 Q9.5 25.0 9.3 24.7 L9.3 23.5 9.35 23.3 9.7 23.3 M8.55 22.9 L8.55 22.3 8.65 21.85 8.8 22.3 8.8 22.95 8.75 23.0 8.55 23.0 8.55 22.9 M8.85 23.3 L8.9 23.5 8.9 24.7 Q8.65 25.0 8.45 24.7 L8.45 23.5 8.5 23.3 8.85 23.3 M7.75 22.9 L7.75 22.3 7.85 21.85 8.0 22.3 8.0 22.95 7.95 23.0 7.75 23.0 7.75 22.9 M8.05 23.3 L8.1 23.5 8.1 24.7 Q7.85 25.0 7.65 24.7 L7.65 23.5 7.7 23.3 8.05 23.3 M11.9 22.9 L11.9 22.3 12.0 21.85 12.15 22.3 12.15 22.95 12.1 23.0 11.9 23.0 11.9 22.9 M12.2 23.3 L12.25 23.5 12.25 24.7 Q12.0 25.0 11.8 24.7 L11.8 23.5 11.85 23.3 12.2 23.3 M11.1 22.9 L11.1 22.3 11.2 21.85 11.35 22.3 11.35 22.95 11.3 23.0 11.1 23.0 11.1 22.9 M11.4 23.3 L11.45 23.5 11.45 24.7 Q11.2 25.0 11.0 24.7 L11.0 23.5 11.05 23.3 11.4 23.3 M10.25 22.9 L10.25 22.3 10.35 21.85 10.5 22.3 10.5 22.95 10.45 23.0 10.25 23.0 10.25 22.9 M10.55 23.3 L10.6 23.5 10.6 24.7 Q10.35 25.0 10.15 24.7 L10.15 23.5 10.2 23.3 10.55 23.3 M13.05 23.3 L13.1 23.5 13.1 24.7 Q12.85 25.0 12.65 24.7 L12.65 23.5 12.7 23.3 13.05 23.3 M12.75 22.9 L12.75 22.3 12.85 21.85 13.0 22.3 13.0 22.95 12.95 23.0 12.75 23.0 12.75 22.9 M14.4 22.9 L14.4 22.3 14.5 21.85 14.65 22.3 14.65 22.95 14.6 23.0 14.4 23.0 14.4 22.9 M14.7 23.3 L14.75 23.5 14.75 24.7 Q14.5 25.0 14.3 24.7 L14.3 23.5 14.35 23.3 14.7 23.3 M15.2 22.9 L15.2 22.3 15.3 21.85 15.45 22.3 15.45 22.95 15.4 23.0 15.2 23.0 15.2 22.9 M15.5 23.3 L15.55 23.5 15.55 24.7 Q15.3 25.0 15.1 24.7 L15.1 23.5 15.15 23.3 15.5 23.3 M13.55 22.9 L13.55 22.3 13.65 21.85 13.8 22.3 13.8 22.95 13.75 23.0 13.55 23.0 13.55 22.9 M13.85 23.3 L13.9 23.5 13.9 24.7 Q13.65 25.0 13.45 24.7 L13.45 23.5 13.5 23.3 13.85 23.3 M16.9 22.9 L16.9 22.3 17.0 21.85 17.15 22.3 17.15 22.95 17.1 23.0 16.9 23.0 16.9 22.9 M17.2 23.3 L17.25 23.5 17.25 24.7 Q17.0 25.0 16.8 24.7 L16.8 23.5 16.85 23.3 17.2 23.3 M17.75 22.9 L17.75 22.3 17.85 21.85 18.0 22.3 18.0 22.95 17.95 23.0 17.75 23.0 17.75 22.9 M18.05 23.3 L18.1 23.5 18.1 24.7 Q17.85 25.0 17.65 24.7 L17.65 23.5 17.7 23.3 18.05 23.3 M16.05 22.9 L16.05 22.3 16.15 21.85 16.3 22.3 16.3 22.95 16.25 23.0 16.05 23.0 16.05 22.9 M16.35 23.3 L16.4 23.5 16.4 24.7 Q16.15 25.0 15.95 24.7 L15.95 23.5 16.0 23.3 16.35 23.3 M19.4 22.9 L19.4 22.3 19.5 21.85 19.65 22.3 19.65 22.95 19.6 23.0 19.4 23.0 19.4 22.9 M19.7 23.3 L19.75 23.5 19.75 24.7 19.7 24.75 19.3 24.7 19.3 23.5 19.35 23.3 19.7 23.3 M18.55 22.9 L18.55 22.3 18.65 21.85 18.8 22.3 18.8 22.95 18.75 23.0 18.55 23.0 18.55 22.9 M18.85 23.3 L18.9 23.5 18.9 24.7 Q18.65 25.0 18.45 24.7 L18.45 23.5 18.5 23.3 18.85 23.3" fill="#bba400" fill-rule="evenodd" stroke="none"/>
    <path d="M-10.3 16.95 L-10.65 14.95 -5.9 14.2 -5.55 16.25 -4.7 21.75 -9.45 22.5 -10.3 16.95 -9.5 16.85 -6.4 16.35 -5.55 16.25 -6.4 16.35 -9.5 16.85 -10.3 16.95 M-6.4 16.35 L-6.35 17.5 -9.35 17.95 -9.5 16.85 -9.35 17.95 -6.35 17.5 -6.4 16.35" fill="#252525" fill-rule="evenodd" stroke="none"/>
    <path d="M20.55 22.95 L20.55 23.25 20.6 23.45 20.6 24.65 20.55 24.7 20.15 24.65 20.15 23.45 20.2 23.25 20.2 22.95 M7.2 23.0 L7.2 23.3 7.25 23.5 7.25 24.7 Q7.0 25.0 6.8 24.7 L6.8 23.5 6.85 23.3 6.85 23.0 M6.85 23.3 L7.2 23.3 M9.7 23.0 L9.7 23.3 9.75 23.5 9.75 24.7 Q9.5 25.0 9.3 24.7 L9.3 23.5 9.35 23.3 9.35 23.0 M8.85 23.0 L8.85 23.3 8.9 23.5 8.9 24.7 Q8.65 25.0 8.45 24.7 L8.45 23.5 8.5 23.3 8.5 23.0 M8.05 23.0 L8.05 23.3 8.1 23.5 8.1 24.7 Q7.85 25.0 7.65 24.7 L7.65 23.5 7.7 23.3 7.7 23.0 M8.5 23.3 L8.85 23.3 M7.7 23.3 L8.05 23.3 M9.35 23.3 L9.7 23.3 M12.2 23.0 L12.2 23.3 12.25 23.5 12.25 24.7 Q12.0 25.0 11.8 24.7 L11.8 23.5 11.85 23.3 11.85 23.0 M11.4 23.0 L11.4 23.3 11.45 23.5 11.45 24.7 Q11.2 25.0 11.0 24.7 L11.0 23.5 11.05 23.3 11.05 23.0 M10.55 23.0 L10.55 23.3 10.6 23.5 10.6 24.7 Q10.35 25.0 10.15 24.7 L10.15 23.5 10.2 23.3 10.2 23.0 M10.2 23.3 L10.55 23.3 M13.05 23.3 L13.1 23.5 13.1 24.7 Q12.85 25.0 12.65 24.7 L12.65 23.5 12.7 23.3 12.7 23.0 M13.05 23.0 L13.05 23.3 12.7 23.3 M11.85 23.3 L12.2 23.3 M11.05 23.3 L11.4 23.3 M14.7 23.0 L14.7 23.3 14.75 23.5 14.75 24.7 Q14.5 25.0 14.3 24.7 L14.3 23.5 14.35 23.3 14.35 23.0 M15.5 23.0 L15.5 23.3 15.55 23.5 15.55 24.7 Q15.3 25.0 15.1 24.7 L15.1 23.5 15.15 23.3 15.15 23.0 M13.85 23.0 L13.85 23.3 13.9 23.5 13.9 24.7 Q13.65 25.0 13.45 24.7 L13.45 23.5 13.5 23.3 13.5 23.0 M13.5 23.3 L13.85 23.3 M14.35 23.3 L14.7 23.3 M17.2 23.0 L17.2 23.3 17.25 23.5 17.25 24.7 Q17.0 25.0 16.8 24.7 L16.8 23.5 16.85 23.3 16.85 23.0 M18.05 23.0 L18.05 23.3 18.1 23.5 18.1 24.7 Q17.85 25.0 17.65 24.7 L17.65 23.5 17.7 23.3 17.7 23.0 M16.35 23.0 L16.35 23.3 16.4 23.5 16.4 24.7 Q16.15 25.0 15.95 24.7 L15.95 23.5 16.0 23.3 16.0 23.0 M16.0 23.3 L16.35 23.3 M16.85 23.3 L17.2 23.3 M19.7 23.0 L19.7 23.3 19.75 23.5 19.75 24.7 19.7 24.75 19.3 24.7 19.3 23.5 19.35 23.3 19.35 23.0 M18.85 23.0 L18.85 23.3 18.9 23.5 18.9 24.7 Q18.65 25.0 18.45 24.7 L18.45 23.5 18.5 23.3 18.5 23.0 M18.5 23.3 L18.85 23.3 M19.35 23.3 L19.7 23.3 M17.7 23.3 L18.05 23.3 M15.15 23.3 L15.5 23.3 M20.2 23.25 L20.55 23.25" ffdec:has-small-stroke="true" ffdec:original-stroke-width="0.35" fill="none" stroke="#857013" stroke-linecap="round" stroke-linejoin="round" stroke-width="1.0"/>
    <path d="M20.25 22.85 L20.25 22.25 20.35 21.8 20.5 22.25 20.5 22.9 20.55 22.95 M20.2 22.95 L20.2 22.9 20.25 22.85 20.25 22.95 20.45 22.95 20.5 22.9 M7.15 22.95 L7.15 22.3 7.0 21.85 6.9 22.3 6.9 22.9 6.9 23.0 7.1 23.0 7.15 22.95 7.2 23.0 M6.85 23.0 L6.85 22.95 6.9 22.9 M9.4 22.9 L9.4 22.3 9.5 21.85 9.65 22.3 9.65 22.95 9.7 23.0 M9.35 23.0 L9.35 22.95 9.4 22.9 9.4 23.0 9.6 23.0 9.65 22.95 M8.55 22.9 L8.55 22.3 8.65 21.85 8.8 22.3 8.8 22.95 8.85 23.0 M8.5 23.0 L8.5 22.95 8.55 22.9 8.55 23.0 8.75 23.0 8.8 22.95 M7.75 22.9 L7.75 22.3 7.85 21.85 8.0 22.3 8.0 22.95 8.05 23.0 M7.7 23.0 L7.7 22.95 7.75 22.9 7.75 23.0 7.95 23.0 8.0 22.95 M11.9 22.9 L11.9 22.3 12.0 21.85 12.15 22.3 12.15 22.95 12.2 23.0 M11.85 23.0 L11.85 22.95 11.9 22.9 11.9 23.0 12.1 23.0 12.15 22.95 M11.1 22.9 L11.1 22.3 11.2 21.85 11.35 22.3 11.35 22.95 11.4 23.0 M11.05 23.0 L11.05 22.95 11.1 22.9 11.1 23.0 11.3 23.0 11.35 22.95 M10.25 22.9 L10.25 22.3 10.35 21.85 10.5 22.3 10.5 22.95 10.55 23.0 M10.2 23.0 L10.2 22.95 10.25 22.9 10.25 23.0 10.45 23.0 10.5 22.95 M12.7 23.0 L12.7 22.95 12.75 22.9 12.75 22.3 12.85 21.85 13.0 22.3 13.0 22.95 13.05 23.0 M14.4 22.9 L14.4 22.3 14.5 21.85 14.65 22.3 14.65 22.95 14.7 23.0 M14.35 23.0 L14.35 22.95 14.4 22.9 14.4 23.0 14.6 23.0 14.65 22.95 M15.15 23.0 L15.15 22.95 15.2 22.9 15.2 22.3 15.3 21.85 15.45 22.3 15.45 22.95 15.5 23.0 M13.55 22.9 L13.55 22.3 13.65 21.85 13.8 22.3 13.8 22.95 13.85 23.0 M13.5 23.0 L13.5 22.95 13.55 22.9 13.55 23.0 13.75 23.0 13.8 22.95 M12.75 22.9 L12.75 23.0 12.95 23.0 13.0 22.95 M16.9 22.9 L16.9 22.3 17.0 21.85 17.15 22.3 17.15 22.95 17.2 23.0 M16.85 23.0 L16.85 22.95 16.9 22.9 16.9 23.0 17.1 23.0 17.15 22.95 M17.7 23.0 L17.7 22.95 17.75 22.9 17.75 22.3 17.85 21.85 18.0 22.3 18.0 22.95 18.05 23.0 M16.05 22.9 L16.05 22.3 16.15 21.85 16.3 22.3 16.3 22.95 16.35 23.0 M16.0 23.0 L16.0 22.95 16.05 22.9 16.05 23.0 16.25 23.0 16.3 22.95 M15.2 22.9 L15.2 23.0 15.4 23.0 15.45 22.95 M19.4 22.9 L19.4 22.3 19.5 21.85 19.65 22.3 19.65 22.95 19.7 23.0 M19.35 23.0 L19.35 22.95 19.4 22.9 19.4 23.0 19.6 23.0 19.65 22.95 M18.55 22.9 L18.55 22.3 18.65 21.85 18.8 22.3 18.8 22.95 18.85 23.0 M18.5 23.0 L18.5 22.95 18.55 22.9 18.55 23.0 18.75 23.0 18.8 22.95 M17.75 22.9 L17.75 23.0 17.95 23.0 18.0 22.95" ffdec:has-small-stroke="true" ffdec:original-stroke-width="0.35" fill="none" stroke="#a36931" stroke-linecap="round" stroke-linejoin="round" stroke-width="1.0"/>
    <path d="M-10.3 16.95 L-10.65 14.95 -5.9 14.2 -5.55 16.25 -4.7 21.75 -9.45 22.5 -10.3 16.95 -9.5 16.85 -6.4 16.35 -5.55 16.25 M-9.5 16.85 L-9.35 17.95 -6.35 17.5 -6.4 16.35" fill="none" stroke="#0b0b0b" stroke-linecap="round" stroke-linejoin="round" stroke-width="1.0"/>
    <path d="M-8.2 15.9 L-8.0 15.8 -6.8 15.6 -6.75 15.65 Q-6.5 15.8 -6.7 16.05 L-7.85 16.25 -8.15 16.25 -8.2 15.9 M-7.8 16.65 L-6.6 16.45 -6.55 16.5 Q-6.3 16.65 -6.55 16.9 L-7.75 17.1 -7.8 16.65 -7.75 17.1 -7.95 17.05 -8.0 16.7 -7.8 16.65 M-7.65 17.45 L-6.45 17.25 Q-6.15 17.45 -6.4 17.7 L-7.6 17.9 -7.65 17.45 -7.6 17.9 -7.8 17.85 -7.85 17.5 -7.65 17.45 M-7.55 18.25 L-6.35 18.05 Q-6.0 18.25 -6.3 18.5 L-7.5 18.7 -7.55 18.25 -7.5 18.7 -7.7 18.65 -7.75 18.3 -7.55 18.25 M-7.4 19.1 L-6.2 18.9 Q-5.9 19.1 -6.15 19.35 L-7.35 19.55 -7.55 19.5 -7.6 19.15 -7.4 19.1 -7.35 19.55 -7.4 19.1 M-7.3 19.95 L-6.1 19.75 Q-5.75 19.95 -6.0 20.2 L-7.2 20.4 -7.3 19.95 -7.2 20.4 -7.4 20.35 -7.45 20.0 -7.3 19.95 M-7.15 20.8 L-5.95 20.6 Q-5.6 20.8 -5.9 21.05 L-7.1 21.25 -7.15 20.8 -7.1 21.25 -7.3 21.2 -7.35 20.85 -7.15 20.8 M-7.0 21.55 L-5.8 21.35 Q-5.5 21.55 -5.75 21.8 L-6.95 22.0 -7.0 21.55 -6.95 22.0 -7.15 21.95 -7.2 21.6 -7.0 21.55 M-6.9 22.4 L-6.85 22.6 -7.05 22.6 -7.1 22.45 -6.9 22.4 M-8.0 15.8 L-7.85 16.25 -8.0 15.8 M-8.5 16.25 L-9.1 16.35 -9.55 16.3 -9.1 16.1 -8.45 16.0 -8.4 16.0 -8.4 16.2 -8.5 16.25 M-8.3 17.1 L-8.9 17.15 -9.35 17.15 Q-9.2 16.95 -8.95 16.9 L-8.3 16.8 -8.25 16.85 -8.2 17.05 -8.3 17.1 M-8.15 17.9 L-8.75 17.95 -9.25 17.95 -8.8 17.7 -8.15 17.6 -8.1 17.65 -8.05 17.85 -8.15 17.9 M-8.05 18.7 L-8.65 18.75 -9.1 18.75 -8.7 18.5 -8.05 18.4 -7.95 18.45 -7.95 18.65 -8.05 18.7 M-7.8 20.4 L-8.4 20.45 -8.75 20.5 -8.85 20.45 -8.75 20.4 -8.4 20.2 -7.75 20.1 -7.7 20.15 -7.7 20.35 -7.8 20.4 M-7.9 19.55 L-8.5 19.6 -8.95 19.6 -9.0 19.6 -8.95 19.55 -8.55 19.35 -7.9 19.25 -7.85 19.3 -7.8 19.5 -7.9 19.55 M-7.65 21.25 L-8.25 21.3 -8.55 21.3 -8.7 21.3 -8.6 21.15 -8.3 21.05 -7.65 20.95 -7.6 21.0 -7.55 21.2 -7.65 21.25 M-7.5 22.0 L-8.1 22.05 -8.35 22.05 -8.6 22.05 -8.4 21.9 -8.15 21.8 -7.5 21.7 -7.45 21.75 -7.4 21.95 -7.5 22.0" fill="#bba400" fill-rule="evenodd" stroke="none"/>
    <path d="M6.4 23.15 Q5.2 22.45 3.15 22.65 L2.75 22.25 Q0.8 20.35 -1.0 19.4 -1.6 16.9 -2.8 15.1 L-3.15 14.6 Q-2.65 12.95 -3.15 10.65 L-4.05 7.3 -0.75 6.9 Q-1.7 11.6 -0.1 15.65 1.45 19.65 6.45 21.3 L6.45 21.8 6.4 23.15" fill="#3c3c3c" fill-rule="evenodd" stroke="none"/>
    <path d="M-4.05 7.3 L-3.15 10.65 Q-2.65 12.95 -3.15 14.6 L-2.8 15.1 Q-1.6 16.9 -1.0 19.4 0.8 20.35 2.75 22.25 L3.15 22.65 Q5.2 22.45 6.4 23.15 L6.3 25.05 Q3.7 24.55 1.75 23.55 -0.6 22.35 -2.05 20.4 -3.2 18.8 -3.75 16.75 L-4.25 15.25 Q-4.85 13.05 -4.7 10.9 -4.65 9.1 -4.05 7.3 M2.75 22.25 L1.75 23.55 2.75 22.25 M-3.15 10.65 L-4.7 10.9 -3.15 10.65 M-2.8 15.1 L-4.25 15.25 -2.8 15.1 M-1.0 19.4 L-2.05 20.4 -1.0 19.4" fill="#2e2e2e" fill-rule="evenodd" stroke="none"/>
    <path d="M-8.45 16.0 L-8.45 15.9 M-8.5 16.25 L-8.4 16.2 -8.4 16.0 -8.45 16.0 -9.1 16.1 -9.55 16.3 -9.1 16.35 -8.5 16.25 -8.45 16.3 -8.4 16.25 M-8.3 16.8 L-8.25 16.75 M-8.2 17.1 L-8.3 17.1 -8.9 17.15 -9.35 17.15 Q-9.2 16.95 -8.95 16.9 L-8.3 16.8 -8.25 16.85 -8.2 17.05 -8.3 17.1 M-8.05 17.9 L-8.15 17.9 -8.75 17.95 -9.25 17.95 -8.8 17.7 -8.15 17.6 -8.1 17.55 M-8.15 17.9 L-8.05 17.85 -8.1 17.65 -8.15 17.6 M-7.95 18.7 L-8.05 18.7 -8.65 18.75 -9.1 18.75 -8.7 18.5 -8.05 18.4 -8.0 18.35 M-8.05 18.7 L-7.95 18.65 -7.95 18.45 -8.05 18.4 M-7.65 20.4 L-7.8 20.4 -8.4 20.45 -8.75 20.5 -8.85 20.45 -8.75 20.4 -8.4 20.2 -7.75 20.1 -7.7 20.05 M-7.8 19.55 L-7.9 19.55 -8.5 19.6 -8.95 19.6 -9.0 19.6 -8.95 19.55 -8.55 19.35 -7.9 19.25 -7.85 19.2 M-7.55 21.25 L-7.65 21.25 -8.25 21.3 -8.55 21.3 -8.7 21.3 -8.6 21.15 -8.3 21.05 -7.65 20.95 -7.6 20.9 M-7.4 22.0 L-7.5 22.0 -8.1 22.05 -8.35 22.05 -8.6 22.05 -8.4 21.9 -8.15 21.8 -7.5 21.7 -7.45 21.65 M-7.9 19.55 L-7.8 19.5 -7.85 19.3 -7.9 19.25 M-7.8 20.4 L-7.7 20.35 -7.7 20.15 -7.75 20.1 M-7.65 21.25 L-7.55 21.2 -7.6 21.0 -7.65 20.95 M-7.5 22.0 L-7.4 21.95 -7.45 21.75 -7.5 21.7" ffdec:has-small-stroke="true" ffdec:original-stroke-width="0.35" fill="none" stroke="#a36931" stroke-linecap="round" stroke-linejoin="round" stroke-width="1.0"/>
    <path d="M-8.2 15.9 L-8.0 15.8 -6.8 15.6 -6.75 15.65 Q-6.5 15.8 -6.7 16.05 L-7.85 16.25 -8.15 16.25 -8.2 15.9 -8.45 15.9 M-7.8 16.65 L-6.6 16.45 -6.55 16.5 Q-6.3 16.65 -6.55 16.9 L-7.75 17.1 -7.95 17.05 -8.2 17.1 M-7.65 17.45 L-6.45 17.25 Q-6.15 17.45 -6.4 17.7 L-7.6 17.9 -7.8 17.85 -8.05 17.9 M-7.55 18.25 L-6.35 18.05 Q-6.0 18.25 -6.3 18.5 L-7.5 18.7 -7.7 18.65 -7.95 18.7 M-7.4 19.1 L-6.2 18.9 Q-5.9 19.1 -6.15 19.35 L-7.35 19.55 -7.55 19.5 -7.8 19.55 M-7.3 19.95 L-6.1 19.75 Q-5.75 19.95 -6.0 20.2 L-7.2 20.4 -7.4 20.35 -7.65 20.4 M-7.15 20.8 L-5.95 20.6 Q-5.6 20.8 -5.9 21.05 L-7.1 21.25 -7.3 21.2 -7.55 21.25 M-7.0 21.55 L-5.8 21.35 Q-5.5 21.55 -5.75 21.8 L-6.95 22.0 -7.15 21.95 -7.4 22.0 M-7.05 22.6 L-7.1 22.45 -6.9 22.4 M-8.4 16.25 L-8.15 16.25 M-8.25 16.75 L-8.0 16.7 -7.8 16.65 M-7.85 17.5 L-7.65 17.45 M-8.1 17.55 L-7.85 17.5 -7.8 17.85 M-8.0 18.35 L-7.75 18.3 -7.55 18.25 M-7.95 17.05 L-8.0 16.7 M-7.45 20.0 L-7.3 19.95 M-7.7 20.05 L-7.45 20.0 -7.4 20.35 M-7.85 19.2 L-7.6 19.15 -7.4 19.1 M-7.35 20.85 L-7.15 20.8 M-7.6 20.9 L-7.35 20.85 -7.3 21.2 M-7.45 21.65 L-7.2 21.6 -7.0 21.55 M-7.15 21.95 L-7.2 21.6 M-7.55 19.5 L-7.6 19.15 M-7.7 18.65 L-7.75 18.3" ffdec:has-small-stroke="true" ffdec:original-stroke-width="0.35" fill="none" stroke="#857013" stroke-linecap="round" stroke-linejoin="round" stroke-width="1.0"/>
    <path d="M6.4 23.15 L6.45 21.8 6.45 21.3 Q1.45 19.65 -0.1 15.65 -1.7 11.6 -0.75 6.9 L-4.05 7.3 Q-4.65 9.1 -4.7 10.9 L-3.15 10.65 M1.75 23.55 L2.75 22.25 M10.45 21.8 L10.15 24.7 15.1 24.7 15.3 21.85 M15.1 24.7 L20.15 24.7 20.55 21.85 M6.8 24.7 L10.15 24.7 M6.4 23.15 L6.3 25.05 Q3.7 24.55 1.75 23.55 -0.6 22.35 -2.05 20.4 -3.2 18.8 -3.75 16.75 L-4.25 15.25 Q-4.85 13.05 -4.7 10.9 M-4.25 15.25 L-2.8 15.1 M-2.05 20.4 L-1.0 19.4" fill="none" stroke="#0b0b0b" stroke-linecap="round" stroke-linejoin="round" stroke-width="1.0"/>
    <path d="M15.3 21.85 L10.45 21.8 6.45 21.8 M20.55 21.85 L15.3 21.85" fill="none" stroke="#1e1e1e" stroke-linecap="round" stroke-linejoin="round" stroke-width="1.0"/>
    <path d="M-7.85 16.25 L-7.8 16.65 -7.75 17.1 -7.65 17.45 -7.6 17.9 -7.55 18.25 -7.5 18.7 -7.4 19.1 -7.35 19.55 -7.3 19.95 -7.2 20.4 -7.15 20.8 -7.1 21.25 -7.0 21.55 -6.95 22.0 -6.9 22.4 M-7.85 16.25 L-8.0 15.8" fill="none" stroke="#151515" stroke-linecap="round" stroke-linejoin="round" stroke-width="1.0"/>
  </g>
</svg>
