<?xml version="1.0" encoding="UTF-8" standalone="no"?>
<svg xmlns:ffdec="https://www.free-decompiler.com/flash" xmlns:xlink="http://www.w3.org/1999/xlink" ffdec:objectType="shape" height="20.05px" width="22.9px" xmlns="http://www.w3.org/2000/svg">
  <g transform="matrix(1.0, 0.0, 0.0, 1.0, 11.15, 17.95)">
    <path d="M-1.9 -14.3 Q-1.05 -14.4 -1.05 -13.9 L-0.1 -12.9 Q0.2 -12.2 -0.1 -11.75 0.4 -11.8 1.3 -12.95 2.1 -14.0 2.5 -13.85 6.15 -12.55 6.25 -8.05 6.3 -5.7 5.6 -2.75 5.7 -2.45 3.15 -1.9 0.65 -1.4 1.05 -0.75 L-0.95 -2.5 Q-1.45 -2.45 -2.7 -3.05 L-5.3 -4.5 Q-7.6 -5.5 -8.15 -7.0 L-8.4 -9.3 Q-8.7 -11.3 -6.6 -12.75 -4.8 -14.05 -1.95 -14.6 -2.4 -14.25 -1.9 -14.3" fill="#282931" fill-rule="evenodd" stroke="none"/>
    <path d="M-1.9 -14.3 Q-1.05 -14.4 -1.05 -13.9 L-0.1 -12.9 Q0.2 -12.2 -0.1 -11.75 0.4 -11.8 1.3 -12.95 2.1 -14.0 2.5 -13.85 6.15 -12.55 6.25 -8.05 6.3 -5.7 5.6 -2.75 5.7 -2.45 3.15 -1.9 0.65 -1.4 1.05 -0.75 L-0.95 -2.5 Q-1.45 -2.45 -2.7 -3.05 L-5.3 -4.5 Q-7.6 -5.5 -8.15 -7.0 L-8.4 -9.3 Q-8.7 -11.3 -6.6 -12.75 -4.8 -14.05 -1.95 -14.6 -2.4 -14.25 -1.9 -14.3 Z" fill="none" stroke="#1b1c22" stroke-linecap="round" stroke-linejoin="round" stroke-width="0.9500000000000001"/>
    <path d="M1.05 -0.75 L1.15 -0.4 1.45 -0.05 -2.15 0.05 Q-4.05 -0.3 -4.95 -1.2 L-4.85 -4.05 -2.85 -3.5 Q0.4 -2.2 1.05 -0.75" fill="#2d2e33" fill-rule="evenodd" stroke="none"/>
    <path d="M1.05 -0.75 L1.15 -0.4 1.45 -0.05 -2.15 0.05 Q-4.05 -0.3 -4.95 -1.2 L-4.85 -4.05 -2.85 -3.5 Q0.4 -2.2 1.05 -0.75 Z" fill="none" stroke="#212226" stroke-linecap="round" stroke-linejoin="round" stroke-width="0.9500000000000001"/>
    <path d="M7.2 -12.2 Q8.55 -9.45 7.85 -5.2 L5.35 -5.15 Q3.15 -6.0 3.45 -7.0 3.6 -7.5 -0.85 -10.0 L-0.35 -10.9 Q0.35 -11.8 1.25 -11.7 2.55 -11.8 2.55 -13.25 2.6 -14.95 2.8 -15.15 5.85 -14.95 7.2 -12.2" fill="url(#gradient0)" fill-rule="evenodd" stroke="none"/>
    <path d="M7.2 -12.2 Q8.55 -9.45 7.85 -5.2 L5.35 -5.15 Q3.15 -6.0 3.45 -7.0 3.6 -7.5 -0.85 -10.0 L-0.35 -10.9 Q0.35 -11.8 1.25 -11.7 2.55 -11.8 2.55 -13.25 2.6 -14.95 2.8 -15.15 5.85 -14.95 7.2 -12.2 Z" fill="none" stroke="#000000" stroke-linecap="butt" stroke-linejoin="miter-clip" stroke-miterlimit="11.33984375" stroke-opacity="0.5411765" stroke-width="0.9500000000000001"/>
    <path d="M0.55 -8.9 Q-2.2 -8.4 -2.95 -7.55 -3.65 -7.15 -4.85 -7.2 L-6.6 -7.25 Q-9.6 -7.0 -9.95 -9.3 -10.3 -11.65 -7.6 -14.35 L-5.7 -14.05 -1.55 -11.8 1.25 -11.55 0.3 -11.05 -0.65 -10.3 -0.05 -9.5 0.55 -8.9" fill="url(#gradient1)" fill-rule="evenodd" stroke="none"/>
    <path d="M0.55 -8.9 Q-2.2 -8.4 -2.95 -7.55 -3.65 -7.15 -4.85 -7.2 L-6.6 -7.25 Q-9.6 -7.0 -9.95 -9.3 -10.3 -11.65 -7.6 -14.35 L-5.7 -14.05 -1.55 -11.8 1.25 -11.55" fill="none" stroke="#533f22" stroke-linecap="butt" stroke-linejoin="miter-clip" stroke-miterlimit="11.33984375" stroke-width="0.9500000000000001"/>
    <path d="M-1.2 -11.1 Q-6.2 -14.3 -6.85 -14.35 L-7.35 -14.35 -6.65 -15.55 Q-5.75 -16.8 -4.9 -17.2 L-2.75 -17.4 -1.05 -17.05 Q-0.6 -17.0 0.4 -15.45 L1.85 -13.4 Q2.7 -12.8 1.7 -12.85 L0.75 -11.4 Q-0.1 -10.55 -1.2 -11.1" fill="url(#gradient2)" fill-rule="evenodd" stroke="none"/>
    <path d="M-1.2 -11.1 Q-6.2 -14.3 -6.85 -14.35 L-7.35 -14.35 -6.65 -15.55 Q-5.75 -16.8 -4.9 -17.2 L-2.75 -17.4 -1.05 -17.05 Q-0.6 -17.0 0.4 -15.45 L1.85 -13.4 Q2.7 -12.8 1.7 -12.85 L0.75 -11.4 Q-0.1 -10.55 -1.2 -11.1 Z" fill="none" stroke="#292a2e" stroke-linecap="butt" stroke-linejoin="miter-clip" stroke-miterlimit="11.33984375" stroke-width="0.9500000000000001"/>
    <path d="M-0.85 -16.9 Q2.25 -17.45 5.35 -15.45 4.15 -14.8 3.7 -13.45 L2.75 -11.35 Q2.25 -10.6 0.05 -11.1 L0.05 -15.5 -0.85 -16.9" fill="url(#gradient3)" fill-rule="evenodd" stroke="none"/>
    <path d="M8.1 -4.85 Q8.75 -4.35 8.6 -3.45 8.45 -2.7 7.9 -2.1 7.05 -1.15 5.2 -0.7 L2.55 -0.5 Q2.45 -2.75 2.15 -3.05 1.95 -3.3 2.0 -4.4 2.0 -5.55 2.3 -5.9 L3.55 -7.1 3.75 -6.8 3.75 -6.5 4.2 -5.8 Q4.85 -5.35 6.4 -5.25 L8.1 -4.85" fill="url(#gradient4)" fill-rule="evenodd" stroke="none"/>
    <path d="M8.1 -4.85 L6.4 -5.25 Q4.85 -5.35 4.2 -5.8 L3.75 -6.5 3.75 -6.8 3.55 -7.1 2.3 -5.9 Q2.0 -5.55 2.0 -4.4 1.95 -3.3 2.15 -3.05 2.45 -2.75 2.55 -0.5 L5.2 -0.7 Q7.05 -1.15 7.9 -2.1 8.45 -2.7 8.6 -3.45 8.75 -4.35 8.1 -4.85 Z" fill="none" stroke="#533f22" stroke-linecap="butt" stroke-linejoin="miter-clip" stroke-miterlimit="11.33984375" stroke-width="0.9500000000000001"/>
    <path d="M1.3 -2.1 Q2.25 -3.15 3.2 -2.6 4.15 -2.05 3.5 -0.55 3.5 -0.2 2.85 0.0 L1.8 0.05 Q1.4 -0.1 1.25 -0.85 1.15 -1.55 1.3 -2.1" fill="#474747" fill-rule="evenodd" stroke="none"/>
    <path d="M1.3 -2.1 Q1.15 -1.55 1.25 -0.85 1.4 -0.1 1.8 0.05 L2.85 0.0 Q3.5 -0.2 3.5 -0.55 4.15 -2.05 3.2 -2.6 2.25 -3.15 1.3 -2.1 Z" fill="none" stroke="#262626" stroke-linecap="butt" stroke-linejoin="miter-clip" stroke-miterlimit="11.33984375" stroke-width="0.9500000000000001"/>
    <path d="M1.9 -4.65 Q-0.7 -6.6 -1.65 -6.75 L-3.35 -7.2 -4.35 -7.55 Q-5.35 -9.1 -5.3 -10.25 L-4.85 -11.95 -4.45 -12.8 -1.2 -11.3 -0.05 -10.05 0.45 -9.35 2.45 -7.9 Q3.5 -7.3 3.45 -6.9 3.45 -6.5 2.25 -5.55 L1.9 -4.65" fill="url(#gradient5)" fill-rule="evenodd" stroke="none"/>
    <path d="M1.9 -4.65 Q-0.7 -6.6 -1.65 -6.75 L-3.35 -7.2 -4.35 -7.55 Q-5.35 -9.1 -5.3 -10.25 L-4.85 -11.95 -4.45 -12.8 -1.2 -11.3 -0.05 -10.05 0.45 -9.35 2.45 -7.9 Q3.5 -7.3 3.45 -6.9 3.45 -6.5 2.25 -5.55 L1.9 -4.65 Z" fill="none" stroke="#34353a" stroke-linecap="butt" stroke-linejoin="miter-clip" stroke-miterlimit="11.33984375" stroke-width="0.9500000000000001"/>
    <path d="M3.85 -0.85 Q6.1 -0.85 7.35 -1.65 L8.45 -2.65 8.65 -3.7 Q8.7 -4.25 8.4 -4.6 L8.1 -4.9 7.9 -5.25 8.05 -7.7 Q8.05 -10.5 7.15 -12.15 6.25 -13.8 5.2 -14.6 L4.3 -15.05 5.25 -15.65 Q3.9 -16.75 2.3 -17.1 L0.15 -17.2 -0.85 -17.0 -3.5 -17.5 Q-5.0 -17.55 -6.25 -15.85 L-7.7 -14.2 -8.85 -13.0 -9.7 -11.15 -10.0 -9.15 -9.45 -7.95 -8.6 -7.35 -7.95 -7.25 -8.0 -6.5 Q-7.85 -5.65 -7.0 -5.25 L-4.9 -4.1 -4.75 -1.15" fill="none" stroke="#010100" stroke-linecap="round" stroke-linejoin="round" stroke-opacity="0.1764706" stroke-width="0.9500000000000001"/>
    <path d="M-8.9 -11.95 Q-7.1 -11.55 -7.3 -10.0 -7.5 -8.45 -9.4 -8.55 -9.7 -8.65 -9.75 -9.4 L-9.65 -10.6 -8.9 -11.95" fill="url(#gradient6)" fill-rule="evenodd" stroke="none"/>
    <path d="M-8.9 -11.95 Q-7.1 -11.55 -7.3 -10.0 -7.5 -8.45 -9.4 -8.55 -9.7 -8.65 -9.75 -9.4 L-9.65 -10.6 -8.9 -11.95 Z" fill="none" stroke="#000000" stroke-linecap="round" stroke-linejoin="round" stroke-opacity="0.40392157" stroke-width="0.9500000000000001"/>
    <path d="M0.05 -11.1 L0.05 -15.5 -0.85 -16.9 Q2.25 -17.95 5.35 -15.45 4.15 -14.8 3.7 -13.45 L2.75 -11.35 Q2.25 -10.6 0.05 -11.1 Z" fill="none" stroke="#533f22" stroke-linecap="round" stroke-linejoin="round" stroke-width="0.9500000000000001"/>
  </g>
  <defs>
    <radialGradient cx="0" cy="0" gradientTransform="matrix(0.0082, -0.0021, 0.0028, 0.0109, 1.4, -8.5)" gradientUnits="userSpaceOnUse" id="gradient0" r="819.2" spreadMethod="pad">
      <stop offset="0.0" stop-color="#073d54" stop-opacity="0.5019608"/>
      <stop offset="0.6588235294117647" stop-color="#3dc2ab" stop-opacity="0.6901961"/>
      <stop offset="0.7490196078431373" stop-color="#a6fbfd" stop-opacity="0.7882353"/>
      <stop offset="0.8235294117647058" stop-color="#a6f6fe" stop-opacity="0.7058824"/>
      <stop offset="0.9254901960784314" stop-color="#1bdae4" stop-opacity="0.5686275"/>
      <stop offset="1.0" stop-color="#1c8ce3" stop-opacity="0.67058825"/>
    </radialGradient>
    <radialGradient cx="0" cy="0" gradientTransform="matrix(0.0238, 7.0E-4, -7.0E-4, 0.0238, 0.65, -10.35)" gradientUnits="userSpaceOnUse" id="gradient1" r="819.2" spreadMethod="pad">
      <stop offset="0.0" stop-color="#7c3b18"/>
      <stop offset="1.0" stop-color="#f5df27"/>
    </radialGradient>
    <radialGradient cx="0" cy="0" gradientTransform="matrix(0.0428, -0.0028, 0.0013, 0.0197, -16.1, -14.7)" gradientUnits="userSpaceOnUse" id="gradient2" r="819.2" spreadMethod="pad">
      <stop offset="0.0" stop-color="#1f1f1f"/>
      <stop offset="1.0" stop-color="#636c6a"/>
    </radialGradient>
    <radialGradient cx="0" cy="0" gradientTransform="matrix(0.0192, -1.0E-4, 2.0E-4, 0.0238, -5.55, -14.5)" gradientUnits="userSpaceOnUse" id="gradient3" r="819.2" spreadMethod="pad">
      <stop offset="0.0" stop-color="#7c3b18"/>
      <stop offset="1.0" stop-color="#f5df27"/>
    </radialGradient>
    <radialGradient cx="0" cy="0" gradientTransform="matrix(0.0099, 2.0E-4, -5.0E-4, 0.0279, 5.2, -3.75)" gradientUnits="userSpaceOnUse" id="gradient4" r="819.2" spreadMethod="pad">
      <stop offset="0.0" stop-color="#9e7326"/>
      <stop offset="1.0" stop-color="#f5df27"/>
    </radialGradient>
    <radialGradient cx="0" cy="0" gradientTransform="matrix(0.0202, 4.0E-4, -5.0E-4, 0.0273, -6.05, 0.5)" gradientUnits="userSpaceOnUse" id="gradient5" r="819.2" spreadMethod="pad">
      <stop offset="0.0" stop-color="#363a43"/>
      <stop offset="1.0" stop-color="#dbdce1"/>
    </radialGradient>
    <radialGradient cx="0" cy="0" gradientTransform="matrix(0.0011, -2.0E-4, 2.0E-4, 0.0013, -8.85, -10.1)" gradientUnits="userSpaceOnUse" id="gradient6" r="819.2" spreadMethod="pad">
      <stop offset="0.0" stop-color="#126d6d"/>
      <stop offset="1.0" stop-color="#24d9d9"/>
    </radialGradient>
  </defs>
</svg>
