<?xml version="1.0" encoding="UTF-8" standalone="no"?>
<svg xmlns:ffdec="https://www.free-decompiler.com/flash" xmlns:xlink="http://www.w3.org/1999/xlink" ffdec:objectType="shape" height="20.25px" width="24.4px" xmlns="http://www.w3.org/2000/svg">
  <g transform="matrix(1.0, 0.0, 0.0, 1.0, 12.25, 18.6)">
    <path d="M-7.35 -12.15 L-7.3 -9.45 Q-7.15 -7.8 -6.05 -5.85 -7.25 -5.9 -9.0 -6.95 -10.45 -7.8 -11.6 -8.95 L-11.65 -12.2 -8.8 -15.75 -5.15 -16.85 -7.35 -12.15" fill="#aa974d" fill-rule="evenodd" stroke="none"/>
    <path d="M9.8 -13.45 Q10.9 -12.25 10.95 -11.55 L6.55 -11.1 Q2.85 -10.95 2.15 -10.15 L3.35 -8.8 Q4.15 -7.85 4.7 -7.65 L8.2 -7.3 Q10.35 -7.25 10.4 -6.35 10.45 -6.05 11.25 -4.75 11.95 -3.45 11.3 -2.75 11.0 -2.4 11.05 -0.8 11.15 0.75 10.65 1.15 L6.45 0.4 1.85 -3.75 -3.95 -3.5 Q-5.25 -4.65 -6.05 -5.85 -7.15 -7.8 -7.3 -9.45 L-7.35 -12.15 -4.65 -13.3 -3.0 -15.35 -3.65 -17.7 -1.8 -18.05 -1.75 -18.05 -0.85 -18.1 1.65 -15.5 6.65 -15.65 Q8.5 -14.8 9.8 -13.45" fill="#e1cb73" fill-rule="evenodd" stroke="none"/>
    <path d="M-3.95 -3.5 L1.75 -3.5 1.75 -1.65 Q-0.75 1.05 -3.95 -1.7 L-3.95 -3.5" fill="#7e6a3d" fill-rule="evenodd" stroke="none"/>
    <path d="M6.95 -15.65 L9.2 -14.0 5.4 -13.55 1.65 -15.5 -0.85 -18.1 -0.2 -18.1 1.65 -17.9 Q5.75 -17.15 6.85 -15.75 L6.95 -15.65 M-3.65 -17.7 L-3.0 -15.35 -4.65 -13.3 -7.35 -12.15 -7.25 -13.7 -6.8 -14.75 -5.65 -16.4 Q-4.9 -17.25 -3.65 -17.7 M11.05 -5.1 Q12.1 -2.8 11.0 -0.6 L8.45 -2.0 8.0 -4.15 11.05 -5.1" fill="#af9558" fill-rule="evenodd" stroke="none"/>
    <path d="M-0.85 -18.1 L1.65 -15.5 3.15 -15.5 4.65 -13.6 9.3 -13.7 M-3.65 -17.7 L-3.0 -15.35 -4.65 -13.3 -7.35 -12.15 M-5.2 -6.65 L-1.75 -5.0 M-2.6 -7.25 L-1.3 -7.1 M11.2 -0.5 Q10.0 -0.65 8.1 -2.2 L8.05 -4.05 Q8.45 -4.5 9.4 -4.75 L11.2 -5.05" fill="none" stroke="#80704d" stroke-linecap="round" stroke-linejoin="round" stroke-width="1.0"/>
    <path d="M8.95 -10.9 L10.4 -11.05 Q11.1 -11.35 11.05 -11.8 11.0 -12.35 10.1 -13.3 L8.2 -15.0 8.1 -15.1 Q5.15 -17.9 1.65 -17.9 L-0.2 -18.1 -1.75 -18.05 -1.8 -18.05 -3.65 -17.7" fill="none" stroke="#504630" stroke-linecap="round" stroke-linejoin="round" stroke-width="1.0"/>
    <path d="M-7.25 -13.7 L-7.35 -12.15 -7.8 -9.75 Q-7.85 -8.7 -7.4 -7.8 -6.9 -6.75 -5.95 -6.4" fill="none" stroke="#756646" stroke-linecap="round" stroke-linejoin="round" stroke-width="1.0"/>
    <path d="M10.95 0.9 L11.3 -0.25 11.4 -0.95 11.65 -3.9 10.35 -7.1 9.05 -7.1 M-8.2 -6.05 L-11.55 -9.25 Q-11.9 -10.95 -11.65 -12.1 -11.4 -13.2 -10.55 -13.8 L-8.75 -14.7" fill="none" stroke="#544a3c" stroke-linecap="round" stroke-linejoin="round" stroke-width="1.0"/>
    <path d="M-3.95 -3.5 L1.75 -3.5" fill="none" stroke="#504330" stroke-linecap="round" stroke-linejoin="round" stroke-width="1.0"/>
    <path d="M9.25 -7.15 Q3.15 -6.95 1.25 -10.3 3.0 -11.25 4.85 -11.35 L9.05 -11.2 Q8.75 -10.3 8.75 -9.4 8.85 -7.9 9.25 -7.15" fill="url(#gradient0)" fill-rule="evenodd" stroke="none"/>
    <path d="M9.25 -7.15 Q3.15 -6.95 1.25 -10.3 3.0 -11.25 4.85 -11.35 L9.05 -11.2 Q8.75 -10.3 8.75 -9.4 8.85 -7.9 9.25 -7.15 Z" fill="none" stroke="#1d3338" stroke-linecap="round" stroke-linejoin="round" stroke-width="1.0"/>
    <path d="M-4.05 -17.4 L-2.65 -13.65 -3.45 -12.55 -6.5 -11.0 -8.95 -12.3 Q-9.95 -13.05 -9.75 -14.5 L-6.8 -16.55 Q-4.95 -17.5 -4.05 -17.4" fill="#aa974d" fill-rule="evenodd" stroke="none"/>
    <path d="M-4.05 -17.4 L-2.65 -13.65 -3.45 -12.55 -6.5 -11.0 -8.95 -12.3 Q-9.95 -13.05 -9.75 -14.5 L-6.8 -16.55 Q-4.95 -17.5 -4.05 -17.4 Z" fill="none" stroke="#544a3c" stroke-linecap="round" stroke-linejoin="round" stroke-width="1.0"/>
    <path d="M2.0 -3.75 L1.55 -2.85 -4.85 -3.1 -8.45 -6.8 -6.2 -7.35 -5.2 -7.45 Q-4.35 -7.25 -2.95 -7.45 -1.95 -7.6 -0.85 -6.9 0.65 -5.6 2.0 -3.75" fill="#aa974d" fill-rule="evenodd" stroke="none"/>
    <path d="M2.6 -3.5 Q2.45 -3.75 2.95 -3.85 L3.7 -3.85 5.95 -1.55 7.0 -0.25 7.0 -0.05 7.95 0.65 M7.0 -0.05 L7.0 0.15 4.95 -1.7 3.5 -3.0 M7.0 -0.05 L4.95 -1.7" fill="none" stroke="#544a3c" stroke-linecap="round" stroke-linejoin="round" stroke-opacity="0.4" stroke-width="1.0"/>
    <path d="M3.6 -7.85 L3.05 -6.55 1.3 -5.7 0.95 -4.85 1.8 -3.5 -0.8 -3.15 -3.25 -3.3" fill="none" stroke="#453929" stroke-linecap="round" stroke-linejoin="round" stroke-opacity="0.4509804" stroke-width="1.0"/>
    <path d="M-9.5 -12.65 Q-8.8 -12.2 -7.9 -12.3 L-7.85 -11.45 -8.2 -9.3 Q-7.75 -7.9 -6.9 -6.55 -7.7 -5.25 -9.25 -6.8 L-11.35 -9.55 -11.5 -12.85 Q-11.5 -13.2 -10.5 -13.15 L-9.5 -12.65" fill="#544a3c" fill-opacity="0.22352941" fill-rule="evenodd" stroke="none"/>
    <path d="M-4.0 -17.5 L-2.65 -13.55 -1.4 -12.9 -0.35 -11.15" fill="none" stroke="#665b43" stroke-linecap="round" stroke-linejoin="round" stroke-width="1.0"/>
    <path d="M-9.95 -14.3 Q-9.55 -11.65 -6.55 -11.0 L-3.35 -12.6 -2.85 -13.7" fill="none" stroke="#665b43" stroke-linecap="round" stroke-linejoin="round" stroke-width="1.0"/>
    <path d="M-3.3 -7.35 L-5.25 -7.15 -6.85 -6.85 -8.3 -6.15 -5.05 -4.0 -4.0 -3.75 -3.9 -0.95 Q-0.75 -0.05 -0.05 -0.2 0.7 -0.35 1.55 -1.2 L1.7 -2.75 2.3 -3.0 6.4 0.4 10.9 1.15" fill="none" stroke="#665b43" stroke-linecap="round" stroke-linejoin="round" stroke-width="1.0"/>
    <path d="M-3.35 -7.35 L-2.3 -7.2 -1.85 -6.8 -0.45 -8.1 -0.45 -10.95 -0.4 -11.4" fill="none" stroke="#665b43" stroke-linecap="round" stroke-linejoin="round" stroke-width="1.0"/>
    <path d="M-1.8 -6.8 L0.2 -5.85 2.25 -3.3 1.9 -2.9 2.5 -2.95" fill="none" stroke="#665b43" stroke-linecap="round" stroke-linejoin="round" stroke-width="1.0"/>
  </g>
  <defs>
    <linearGradient gradientTransform="matrix(0.0049, 0.0, 0.0, 0.005, 5.7, -9.25)" gradientUnits="userSpaceOnUse" id="gradient0" spreadMethod="pad" x1="-819.2" x2="819.2">
      <stop offset="0.0" stop-color="#464e7a"/>
      <stop offset="1.0" stop-color="#5d93bf"/>
    </linearGradient>
  </defs>
</svg>
