<?xml version="1.0" encoding="UTF-8" standalone="no"?>
<svg xmlns:ffdec="https://www.free-decompiler.com/flash" xmlns:xlink="http://www.w3.org/1999/xlink" ffdec:objectType="shape" height="18.6px" width="26.25px" xmlns="http://www.w3.org/2000/svg">
  <g transform="matrix(1.0, 0.0, 0.0, 1.0, 13.35, 14.7)">
    <path d="M6.05 -6.6 L6.4 -6.95 6.8 -7.3 Q6.95 -5.25 7.6 -3.65 8.3 -1.9 9.35 -1.15 L8.4 -1.0 Q7.5 -2.4 7.4 -2.95 L6.95 -4.4 6.05 -6.6" fill="#502c00" fill-rule="evenodd" stroke="none"/>
    <path d="M7.55 -8.7 Q9.5 -4.2 9.5 -0.9 L8.1 -0.95 Q9.15 -1.65 8.3 -4.85 7.45 -8.0 6.3 -8.5 L7.55 -8.7" fill="#241400" fill-rule="evenodd" stroke="none"/>
    <path d="M7.45 -8.25 L7.4 -8.15 7.9 -4.35 8.1 -0.45 6.5 -1.6 Q7.7 -1.4 7.6 -3.75 7.5 -6.1 6.3 -7.4 6.65 -7.2 6.9 -7.85 7.1 -8.5 7.45 -8.25" fill="#241400" fill-rule="evenodd" stroke="none"/>
    <path d="M7.15 -8.45 L7.15 -8.3 7.85 -6.3 8.5 -4.5 Q8.4 -3.85 9.0 -3.0 L8.95 -1.95 8.75 -0.8 7.35 -0.85 Q8.4 -1.75 8.1 -3.7 7.75 -5.6 6.25 -7.7 L6.7 -8.1 7.15 -8.45" fill="#502c00" fill-rule="evenodd" stroke="none"/>
    <path d="M5.05 -6.55 L5.65 -7.05 6.25 -7.55 Q5.95 -5.25 6.45 -3.45 6.95 -1.55 8.15 -0.95 L6.8 -0.5 6.3 -1.6 Q5.95 -2.25 5.95 -2.6 L5.75 -4.15 5.05 -6.55" fill="#502c00" fill-rule="evenodd" stroke="none"/>
    <path d="M6.45 -7.5 L6.85 -7.65 7.1 -0.3 Q6.55 -0.6 5.55 -1.5 6.75 -1.25 6.65 -3.6 6.5 -5.95 5.3 -7.3 L5.9 -7.4 6.45 -7.5" fill="#241400" fill-rule="evenodd" stroke="none"/>
    <path d="M4.45 -8.45 Q6.4 -3.85 6.4 -0.6 L3.3 -0.65 Q3.95 -1.05 3.2 -3.5 2.3 -6.35 3.2 -8.25 L4.45 -8.45" fill="#241400" fill-rule="evenodd" stroke="none"/>
    <path d="M2.55 -10.6 L8.85 -10.65 8.9 -5.95 2.6 -5.9 2.55 -10.6" fill="#000000" fill-rule="evenodd" stroke="none"/>
    <path d="M4.5 -9.5 Q3.2 -9.25 3.3 -8.5 3.35 -8.05 4.15 -7.1" fill="none" stroke="#1b1b1b" stroke-linecap="round" stroke-linejoin="round" stroke-width="2.35"/>
    <path d="M7.2 -8.6 L6.85 -8.7 6.5 -8.6 6.25 -8.35 6.2 -8.0 6.35 -7.7 6.65 -7.5 6.95 -7.45 7.25 -7.6 7.45 -7.85 7.45 -8.2" fill="none" stroke="#ef2d2d" stroke-linecap="round" stroke-linejoin="round" stroke-width="0.1"/>
    <path d="M5.45 -9.5 Q5.0 -8.8 5.1 -7.1" fill="none" stroke="#424242" stroke-linecap="round" stroke-linejoin="round" stroke-width="1.2000000000000002"/>
    <path d="M0.9 -9.1 L4.05 -9.45 7.2 -9.45" fill="none" stroke="#000000" stroke-linecap="round" stroke-linejoin="round" stroke-width="0.8500000000000001"/>
    <path d="M5.5 -6.8 Q3.05 -6.1 1.75 -5.35" fill="none" stroke="#000000" stroke-linecap="round" stroke-linejoin="round" stroke-width="0.8500000000000001"/>
    <path d="M4.1 -5.5 Q4.6 -4.8 4.45 -3.8 L4.6 -2.7 4.4 -3.5 4.15 -2.75 Q4.25 -4.65 3.35 -5.3 L4.1 -5.5" fill="#ffffff" fill-rule="evenodd" stroke="none"/>
    <path d="M3.05 -5.85 Q3.7 -5.0 3.7 -3.8 L4.1 -2.45 3.7 -3.4 3.65 -2.45 Q3.35 -4.8 2.35 -5.45 L3.05 -5.85" fill="#ffffff" fill-rule="evenodd" stroke="none"/>
    <path d="M6.2 -5.8 Q6.7 -4.9 6.55 -3.7 L6.75 -2.3 6.5 -3.3 6.25 -2.35 Q6.35 -4.7 5.45 -5.5 L6.2 -5.8" fill="#ffffff" fill-rule="evenodd" stroke="none"/>
    <path d="M5.6 -5.85 Q6.05 -5.0 5.9 -3.75 L6.1 -2.35 5.85 -3.35 5.65 -2.45 Q5.75 -4.7 4.8 -5.6 L5.6 -5.85" fill="#ffffff" fill-rule="evenodd" stroke="none"/>
    <path d="M5.05 -5.5 Q5.5 -4.75 5.35 -3.8 L5.5 -2.7 5.3 -3.5 5.05 -2.75 Q5.15 -4.65 4.25 -5.25 L5.05 -5.5" fill="#ffffff" fill-rule="evenodd" stroke="none"/>
    <path d="M7.55 -5.15 Q8.25 -4.1 7.8 -1.75 7.7 -4.05 6.75 -4.85 L7.55 -5.15" fill="#ffffff" fill-rule="evenodd" stroke="none"/>
    <path d="M9.15 -5.15 Q9.65 -3.9 8.8 -1.75 9.1 -4.1 8.3 -4.95 L9.15 -5.15" fill="#ffffff" fill-rule="evenodd" stroke="none"/>
    <path d="M10.2 -5.1 Q10.6 -4.2 10.35 -3.05 L10.25 -2.65 9.9 -1.65 Q10.25 -3.95 9.4 -4.9 L10.2 -5.1" fill="#ffffff" fill-rule="evenodd" stroke="none"/>
    <path d="M9.45 -6.4 L10.25 -6.2 Q9.45 -5.25 9.8 -3.0 L9.45 -3.95 9.35 -4.35 Q9.05 -5.45 9.45 -6.4" fill="#ffffff" fill-rule="evenodd" stroke="none"/>
    <path d="M8.65 -6.35 Q9.05 -5.45 8.8 -4.3 L8.7 -3.9 8.35 -2.95 Q8.65 -5.3 7.85 -6.15 L8.65 -6.35" fill="#ffffff" fill-rule="evenodd" stroke="none"/>
    <path d="M7.25 -6.2 Q7.65 -5.3 7.4 -4.15 L7.3 -3.75 6.95 -2.75 Q7.3 -5.05 6.45 -6.0 L7.25 -6.2" fill="#ffffff" fill-rule="evenodd" stroke="none"/>
    <path d="M10.75 -5.1 L10.65 -4.8 9.55 -4.7 9.1 -4.7 8.9 -4.6 8.05 -4.45 7.35 -4.3 Q7.25 -4.15 7.0 -4.15 L6.55 -4.1 6.05 -4.1 5.55 -3.9 5.2 -3.8 4.8 -3.8 Q4.25 -3.75 3.85 -3.35" fill="none" stroke="#432500" stroke-linecap="round" stroke-linejoin="round" stroke-width="0.8500000000000001"/>
    <path d="M1.85 -5.6 L1.5 -5.3 2.0 -5.3 1.85 -5.6 3.3 -6.15 Q4.15 -6.35 4.5 -6.15 L4.7 -6.45 5.6 -6.85 Q4.05 -6.6 1.8 -5.8 L1.85 -5.6 M4.55 -8.95 L2.7 -8.75 Q5.15 -7.55 6.9 -7.3 L7.5 -7.0 7.0 -7.45 8.3 -8.0 8.45 -8.05 8.85 -7.9 8.5 -8.05 Q7.1 -8.95 4.55 -8.95 M6.3 -9.8 L6.3 -9.55 4.05 -9.6 2.3 -9.55 1.45 -9.1 1.9 -9.2 6.25 -9.35 6.6 -9.3 7.4 -9.3 6.4 -9.45 6.3 -9.8 M6.15 -12.45 Q6.4 -12.0 6.6 -12.0 L8.1 -12.1 9.35 -11.95 10.0 -10.6 10.55 -9.1 Q10.9 -8.65 10.75 -8.05 10.65 -7.5 10.85 -6.4 L10.9 -5.95 10.85 -5.55 9.55 -5.35 4.65 -4.5 3.4 -3.95 3.5 -3.25 3.6 -2.5 3.9 -1.65 3.75 -1.05 3.95 -0.1 3.7 0.2 Q3.75 0.45 3.15 0.45 L-0.6 0.35 Q-1.35 0.25 -1.4 -0.1 L-0.9 -3.05 Q-0.8 -3.6 -1.0 -3.8 L-2.0 -3.8 Q-2.65 -3.8 -2.6 -4.05 -2.2 -4.4 -2.4 -4.6 L-2.9 -4.75 -3.45 -4.75 -4.25 -4.75 -5.05 -5.05 Q-5.4 -5.2 -5.1 -5.6 -3.55 -8.45 -2.05 -9.3 -1.55 -9.5 -1.5 -9.75 -1.55 -10.1 -2.3 -10.85 L-3.45 -11.55 -5.75 -11.1 -6.0 -11.1 -6.1 -11.3 -5.15 -12.2 -4.85 -12.7 -1.75 -13.15 -0.75 -13.15 2.55 -13.1 5.7 -12.9 6.15 -12.45" fill="url(#gradient0)" fill-rule="evenodd" stroke="none"/>
    <path d="M10.2 -9.45 L9.9 -8.9 10.85 -8.55 10.3 -7.55 10.7 -7.1" fill="none" stroke="#382200" stroke-linecap="round" stroke-linejoin="round" stroke-width="0.8500000000000001"/>
    <path d="M11.2 -5.3 L7.9 -4.95 Q5.7 -4.7 3.65 -3.8 3.5 -3.45 3.9 -2.65 4.2 -2.05 4.15 -1.25 L4.05 0.2 3.9 0.8 1.3 0.75 -1.35 0.5 -1.75 0.05 Q-1.05 -2.45 -1.15 -3.55 L-3.15 -3.3 -2.6 -4.45 -4.6 -4.45 -5.6 -5.25 Q-3.75 -8.95 -1.75 -9.8 -1.95 -10.3 -3.35 -11.25 L-5.25 -10.9 -7.15 -10.55 Q-7.4 -10.7 -6.3 -11.55 -5.2 -12.35 -5.4 -12.45 -5.75 -12.7 -4.8 -13.05 L-1.05 -13.45 4.15 -12.7 5.2 -12.4 Q4.5 -14.45 5.25 -13.7 6.0 -13.0 6.35 -12.0 L7.1 -11.7 Q7.45 -11.5 7.25 -12.9 L7.05 -14.3 7.85 -12.65 8.6 -10.9 Q8.8 -10.8 8.85 -12.4 8.9 -13.95 9.05 -13.8 L9.75 -11.65 10.45 -9.45 11.1 -8.6 10.95 -7.55 11.15 -6.4 11.2 -5.3 Z" fill="none" stroke="#653d01" stroke-linecap="round" stroke-linejoin="round" stroke-width="0.8500000000000001"/>
    <path d="M5.45 -0.3 L4.65 -0.6 Q5.65 -1.4 5.55 -3.75 L5.75 -2.8 6.0 -3.8 5.8 -2.4 Q5.95 -1.15 5.45 -0.3" fill="#ffffff" fill-rule="evenodd" stroke="none"/>
    <path d="M4.8 -0.25 L4.0 -0.55 Q5.0 -1.35 4.9 -3.65 L5.1 -2.75 5.35 -3.75 5.2 -2.35 Q5.3 -1.05 4.8 -0.25" fill="#ffffff" fill-rule="evenodd" stroke="none"/>
    <path d="M4.25 -0.65 L3.45 -0.9 Q4.45 -1.5 4.35 -3.35 L4.55 -2.65 4.8 -3.4 4.6 -2.3 Q4.75 -1.3 4.25 -0.65" fill="#ffffff" fill-rule="evenodd" stroke="none"/>
    <path d="M6.8 -0.5 L6.05 -0.75 Q7.0 -1.45 6.9 -3.25 L7.15 -2.5 7.4 -3.3 7.2 -2.2 Q7.35 -1.25 6.8 -0.5" fill="#ffffff" fill-rule="evenodd" stroke="none"/>
    <path d="M5.75 -0.2 L5.05 -0.65 Q6.1 -1.25 6.4 -3.6 L6.45 -2.65 6.85 -3.6 6.45 -2.25 Q6.45 -1.1 5.75 -0.2" fill="#ffffff" fill-rule="evenodd" stroke="none"/>
    <path d="M7.35 -0.15 L6.6 -0.45 Q7.5 -1.25 7.5 -3.55 L7.7 -2.65 7.95 -3.6 7.75 -2.25 Q7.9 -1.05 7.35 -0.15" fill="#ffffff" fill-rule="evenodd" stroke="none"/>
    <path d="M8.1 -1.3 L7.35 -1.6 Q8.25 -2.4 8.25 -4.75 8.8 -2.4 8.1 -1.3" fill="#ffffff" fill-rule="evenodd" stroke="none"/>
    <path d="M9.3 -1.2 L8.5 -1.55 Q9.4 -2.2 9.35 -3.25 L8.95 -4.2 9.45 -3.85 9.45 -4.65 Q10.0 -2.4 9.3 -1.2" fill="#ffffff" fill-rule="evenodd" stroke="none"/>
    <path d="M9.95 -1.2 L9.25 -1.65 Q10.3 -2.3 10.7 -4.55 10.85 -2.3 9.95 -1.2" fill="#ffffff" fill-rule="evenodd" stroke="none"/>
    <path d="M9.1 -0.6 L8.45 -0.75 Q9.05 -1.45 8.65 -3.3 9.45 -1.65 9.1 -0.6" fill="#ffffff" fill-rule="evenodd" stroke="none"/>
    <path d="M10.2 -1.0 L9.55 -1.1 Q10.15 -1.85 9.75 -3.7 10.55 -2.0 10.2 -1.0" fill="#ffffff" fill-rule="evenodd" stroke="none"/>
    <path d="M4.1 -2.25 L4.25 -2.55 4.65 -2.35 5.15 -2.35 5.65 -2.25 6.5 -2.1 7.1 -2.0 Q7.25 -1.65 7.35 -1.75 L7.55 -1.9 8.15 -1.8 Q8.3 -1.55 8.9 -1.65 L9.45 -1.55 9.75 -1.5 10.2 -1.45 10.35 -1.05" fill="none" stroke="#432500" stroke-linecap="round" stroke-linejoin="round" stroke-width="0.8500000000000001"/>
    <path d="M3.05 -0.4 L3.6 -2.55 3.85 -2.7 Q4.45 -2.05 6.3 -1.7 L10.95 -0.9 10.75 -0.4 10.4 -0.05 6.3 -0.2 3.05 -0.4" fill="#e38902" fill-rule="evenodd" stroke="none"/>
    <path d="M3.05 -0.4 L6.3 -0.2 10.4 -0.05 10.75 -0.4 10.95 -0.9 6.3 -1.7 Q4.45 -2.05 3.85 -2.7 L3.6 -2.55" fill="none" stroke="#653d01" stroke-linecap="round" stroke-linejoin="round" stroke-width="0.8500000000000001"/>
    <path d="M5.1 -0.1 L5.95 0.7 5.55 1.85 4.95 2.45 Q4.45 2.1 2.8 1.85 L0.6 1.55 -0.2 1.0 -0.7 0.9 -0.7 0.85 Q-0.8 -0.1 -1.1 -0.4 L4.3 0.4 5.1 -0.1" fill="#353535" fill-rule="evenodd" stroke="none"/>
    <path d="M5.1 -0.1 L5.95 0.7 5.55 1.85 4.95 2.45 Q4.45 2.1 2.8 1.85 L0.6 1.55 -0.2 1.0 -0.7 0.85 Q-0.8 -0.1 -1.1 -0.4 L4.3 0.4 5.1 -0.1 Z" fill="none" stroke="#161616" stroke-linecap="round" stroke-linejoin="round" stroke-width="0.8500000000000001"/>
    <path d="M-2.85 -9.4 L-2.55 -9.2 Q-2.2 -8.5 -0.95 -7.8 L0.7 -6.8 0.8 -6.6 0.7 -6.4 -0.55 -6.05 -0.8 -5.9 -1.05 -5.9 -1.95 -6.8 Q-2.7 -7.4 -3.75 -7.4 -4.1 -7.4 -4.05 -7.7 L-3.45 -8.75 -2.85 -9.4" fill="#3f3f3f" fill-rule="evenodd" stroke="none"/>
    <path d="M-4.1 -7.75 Q-1.7 -7.35 -0.9 -5.9" fill="none" stroke="#c8caca" stroke-linecap="round" stroke-linejoin="round" stroke-width="0.8500000000000001"/>
    <path d="M1.3 -6.35 Q1.05 -7.1 -0.7 -8.0 -2.35 -8.8 -2.45 -9.8 L-3.1 -9.55 -4.3 -7.75 -4.25 -7.1 Q-2.3 -7.4 -0.85 -5.15" fill="none" stroke="#161616" stroke-linecap="round" stroke-linejoin="round" stroke-width="0.8500000000000001"/>
    <path d="M-7.95 -4.8 L-8.7 -4.9 -12.0 -7.95 Q-12.55 -8.4 -12.35 -8.8 L-12.15 -8.85 -2.55 -3.35 -2.3 -3.2 -2.2 -2.95 -2.7 -2.7 -3.2 -2.5 -3.45 -2.15 Q-3.35 -1.45 -3.55 -1.2 L-3.85 -0.9 -4.2 -0.8 -6.3 -2.7 -6.6 -3.15 -6.8 -3.7 Q-6.8 -4.05 -7.3 -4.45 -7.5 -4.7 -7.95 -4.8" fill="#f1bdbd" fill-rule="evenodd" stroke="none"/>
    <path d="M-12.4 -8.85 L-12.05 -8.1 -8.8 -5.0 -7.7 -4.85 -6.85 -4.25 -6.6 -3.55 -4.45 -1.9 -4.1 -1.4 -3.6 -1.35" fill="none" stroke="#e37b7b" stroke-linecap="round" stroke-linejoin="round" stroke-width="0.8500000000000001"/>
    <path d="M-1.55 -2.75 Q-3.8 -3.8 -7.2 -5.95 L-12.95 -9.6 -12.55 -8.05 -8.8 -4.65 -7.75 -4.5 -7.15 -3.95 -6.8 -2.8 -5.3 -2.2 -4.7 -1.7 -4.05 -0.3 -3.25 -1.15 -0.95 -1.4" fill="none" stroke="#6d1919" stroke-linecap="round" stroke-linejoin="round" stroke-width="0.8500000000000001"/>
    <path d="M-1.2 -2.7 L-0.95 -2.5 -0.25 -1.9 0.05 -1.35 -0.3 -0.85 -0.45 -0.7 Q-0.6 -0.7 -0.65 -0.8 -1.2 -1.35 -2.0 -1.45 L-2.75 -1.7 -2.9 -1.85 -2.85 -2.05 -1.2 -2.7" fill="#3f3f3f" fill-rule="evenodd" stroke="none"/>
    <path d="M-1.2 -2.7 Q-1.05 -2.5 -1.8 -2.1 L-2.75 -1.7 -1.3 -1.35 -0.55 -0.7" fill="none" stroke="#c8caca" stroke-linecap="round" stroke-linejoin="round" stroke-width="0.8500000000000001"/>
    <path d="M-0.95 -3.2 Q-1.45 -2.85 -3.2 -2.2 L-3.2 -1.65 -2.35 -1.2 Q-1.3 -1.2 -0.45 -0.2 L0.4 -1.35 -0.1 -2.1 -0.7 -2.6 -0.95 -3.2 Z" fill="none" stroke="#161616" stroke-linecap="round" stroke-linejoin="round" stroke-width="0.8500000000000001"/>
    <path d="M-8.7 -4.85 L-8.5 -5.3 -7.85 -5.95 M-6.5 -3.05 L-6.5 -3.4 -5.4 -4.85" fill="none" stroke="#6d1919" stroke-linecap="round" stroke-linejoin="round" stroke-width="0.8500000000000001"/>
    <path d="M0.15 -7.6 Q1.75 -9.5 1.25 -13.25 L-0.35 -13.5 Q0.05 -12.35 -0.15 -10.85 -0.4 -9.25 -1.25 -8.4 M1.25 -13.25 L1.55 -13.2 M-0.7 -13.6 L-0.35 -13.5" fill="none" stroke="#161616" stroke-linecap="round" stroke-linejoin="round" stroke-width="0.8500000000000001"/>
    <path d="M11.75 -5.55 L11.9 -5.5 11.85 -5.2 11.65 -4.9 Q11.55 -4.55 11.6 -3.85 11.55 -1.35 10.8 1.4 L10.4 1.9 10.1 2.1 9.8 2.15 Q7.1 0.8 3.0 -0.1 L2.65 -0.8 2.25 -1.95 Q2.3 -2.4 1.95 -2.85 1.6 -3.25 1.75 -3.55 L2.0 -4.15 11.75 -5.55" fill="url(#gradient1)" fill-rule="evenodd" stroke="none"/>
    <path d="M11.55 -3.85 L10.65 -3.95 10.1 -1.3 Q9.8 0.15 9.25 0.95 L9.4 1.9" fill="none" stroke="#161616" stroke-linecap="round" stroke-linejoin="round" stroke-width="0.8500000000000001"/>
    <path d="M2.7 -4.3 Q2.9 -4.3 2.95 -4.15 L3.6 -2.3 Q3.75 -1.75 3.85 -1.75 L7.5 -0.6 9.15 0.0 Q10.0 0.3 10.45 0.6 L10.85 1.0 10.65 1.7 10.1 2.15 9.7 2.1 Q7.35 0.9 3.4 0.0 3.0 -0.05 2.9 -0.2 L2.35 -1.4 2.2 -2.3 1.75 -3.2 Q1.55 -3.35 1.8 -3.7 L2.0 -4.15 2.7 -4.3" fill="#000000" fill-opacity="0.26666668" fill-rule="evenodd" stroke="none"/>
    <path d="M11.8 -5.85 L7.4 -5.25 6.7 -4.75 5.25 -4.55 4.35 -4.8 1.7 -4.4 1.3 -3.25 1.95 -2.25 2.0 -1.6 2.75 0.1 Q7.75 1.3 10.0 2.55 L10.9 1.85 Q11.95 -1.35 11.85 -4.8 L12.25 -5.1 12.5 -5.4 11.8 -5.85 Z" fill="none" stroke="#161616" stroke-linecap="round" stroke-linejoin="round" stroke-width="0.8500000000000001"/>
    <path d="M1.2 -5.7 Q2.2 -4.9 2.45 -3.75 L2.35 -3.0 2.05 -2.45 1.35 -2.2 Q0.1 -1.8 -0.65 -2.2 L-1.0 -2.55 -0.85 -3.65 -1.1 -4.25 -0.95 -4.95 Q-0.75 -5.5 0.3 -5.8 L0.5 -5.85 1.2 -5.7" fill="#3f3f3f" fill-rule="evenodd" stroke="none"/>
    <path d="M2.8 -3.4 Q2.6 -5.0 1.35 -5.95 L0.55 -6.15 Q-0.6 -5.9 -1.0 -5.35 L-1.45 -4.2 Q-0.85 -3.6 -1.35 -2.4 L-0.9 -2.0 Q0.25 -1.45 2.3 -2.25 L2.8 -3.4 Z" fill="none" stroke="#161616" stroke-linecap="round" stroke-linejoin="round" stroke-width="0.8500000000000001"/>
    <path d="M-5.7 -2.05 Q-5.5 -2.15 -5.4 -1.9 L-5.0 -0.8 Q-4.95 -0.6 -5.2 -0.4 L-5.7 -0.1 -6.6 -0.45 -6.85 -1.05 -6.9 -1.65 -6.5 -2.0 -5.7 -2.05" fill="#3f3f3f" fill-rule="evenodd" stroke="none"/>
    <path d="M-6.55 -2.4 L-7.3 -1.45 -7.05 -0.25 -5.45 0.4" fill="none" stroke="#121212" stroke-linecap="round" stroke-linejoin="round" stroke-width="0.9"/>
    <path d="M7.65 0.85 Q8.25 1.15 7.75 1.85 L7.15 2.45 6.7 2.95 -0.05 2.5 -3.9 2.8 -4.4 3.0 -4.9 2.9 -5.1 2.15 -5.2 1.4 -5.3 0.25 Q-4.55 -0.3 -4.6 -0.75 -4.9 -1.95 -5.25 -2.4 L-6.35 -2.55 -6.85 -3.35 Q-6.55 -4.05 -5.85 -3.95 L-0.35 -3.05 Q3.7 -1.85 7.65 0.85" fill="#a9a9a9" fill-rule="evenodd" stroke="none"/>
    <path d="M-6.2 -3.85 L-6.5 -3.5 -6.25 -2.7 -5.05 -2.6 -4.35 -0.5 -5.0 0.2 -4.65 2.75 1.3 2.3 7.15 2.75" fill="none" stroke="#3f3f3f" stroke-linecap="round" stroke-linejoin="round" stroke-width="0.9"/>
    <path d="M1.6 2.7 L-3.75 2.95 -5.1 3.45 -5.55 0.3 -5.15 -0.15 -4.8 -0.65 -5.35 -2.2 -5.9 -2.25 -6.45 -2.25 -7.25 -3.35 -6.35 -4.15 Q-3.45 -4.25 -0.3 -3.25 L0.05 -2.8 0.35 -2.4 2.3 -1.7 3.05 -1.65 3.75 -1.65 Q6.1 -0.55 8.25 1.05 L7.9 2.2 7.55 2.25 7.3 2.6 7.35 3.25 1.6 2.7 Z" fill="none" stroke="#121212" stroke-linecap="round" stroke-linejoin="round" stroke-width="0.9"/>
  </g>
  <defs>
    <radialGradient cx="0" cy="0" gradientTransform="matrix(0.0017, 0.0107, -0.0082, 0.0013, -1.8, -11.6)" gradientUnits="userSpaceOnUse" id="gradient0" r="819.2" spreadMethod="pad">
      <stop offset="0.0" stop-color="#fdbd5c"/>
      <stop offset="1.0" stop-color="#e38902"/>
    </radialGradient>
    <linearGradient gradientTransform="matrix(0.0063, -1.0E-4, 1.0E-4, 0.0063, 6.85, -1.65)" gradientUnits="userSpaceOnUse" id="gradient1" spreadMethod="pad" x1="-819.2" x2="819.2">
      <stop offset="0.0" stop-color="#323232"/>
      <stop offset="0.5058823529411764" stop-color="#545454"/>
      <stop offset="1.0" stop-color="#2d2d2d"/>
    </linearGradient>
  </defs>
</svg>
