<?xml version="1.0" encoding="UTF-8" standalone="no"?>
<svg xmlns:ffdec="https://www.free-decompiler.com/flash" xmlns:xlink="http://www.w3.org/1999/xlink" ffdec:objectType="shape" height="24.45px" width="17.7px" xmlns="http://www.w3.org/2000/svg">
  <g transform="matrix(1.0, 0.0, 0.0, 1.0, 5.65, 18.85)">
    <path d="M8.15 -4.5 Q8.4 -4.5 8.5 -4.25 L8.45 -2.75 7.95 -2.25 7.4 -1.85 6.95 -0.6 6.8 -0.05 6.5 0.3 3.65 0.1 3.55 0.75 3.55 1.3 3.2 1.55 -2.1 0.8 -2.7 0.7 -3.2 0.3 -3.05 -0.45 -2.8 -1.25 -2.85 -1.6 -3.15 -2.0 Q-3.4 -2.25 -3.25 -2.55 L-2.85 -2.8 Q-0.25 -1.95 3.1 -2.35 L3.55 -2.35 3.85 -2.55 4.5 -3.5 6.35 -3.4 Q6.55 -3.3 7.2 -3.75 L7.7 -4.15 8.15 -4.5" fill="#222222" fill-rule="evenodd" stroke="none"/>
    <path d="M4.4 -3.7 L6.55 -3.5 7.95 -4.65 8.75 -4.65 8.6 -2.5 7.45 -1.7 6.75 0.5 3.7 0.2 3.7 1.75 -3.05 0.85 -3.4 0.3 -2.9 -1.45 -3.5 -2.25 -3.2 -3.05" fill="none" stroke="#090a0d" stroke-linecap="round" stroke-linejoin="round" stroke-width="0.8500000000000001"/>
    <path d="M0.8 1.45 L3.95 1.4 3.95 2.0 0.8 2.0 0.8 1.45 Z" fill="none" stroke="#161616" stroke-linecap="round" stroke-linejoin="round" stroke-width="0.8500000000000001"/>
    <path d="M4.4 -3.45 L4.0 -1.9 -3.0 -1.35 -3.75 -2.45 -3.4 -3.4 4.4 -3.45" fill="#040506" fill-opacity="0.4" fill-rule="evenodd" stroke="none"/>
    <path d="M-3.45 -1.0 Q-1.9 0.1 0.5 1.0 L1.3 2.3 -3.8 1.4 -4.15 0.55 Q-4.15 -0.55 -3.45 -1.0" fill="#373737" fill-rule="evenodd" stroke="none"/>
    <path d="M-3.95 0.25 L-3.5 1.15 0.7 1.8" fill="none" stroke="#f4f5f7" stroke-linecap="round" stroke-linejoin="round" stroke-width="0.8500000000000001"/>
    <path d="M-3.45 -1.0 Q-4.15 -0.55 -4.15 0.55 L-3.8 1.4 1.3 2.3 0.5 1.0 Q-1.9 0.1 -3.45 -1.0 Z" fill="none" stroke="#161616" stroke-linecap="round" stroke-linejoin="round" stroke-width="0.8500000000000001"/>
    <path d="M6.65 -7.1 L9.15 -6.75 8.9 -5.0 7.85 -4.95 Q7.4 -4.05 6.5 -3.8 L4.7 -4.0 6.65 -7.1" fill="url(#gradient0)" fill-rule="evenodd" stroke="none"/>
    <path d="M7.95 -9.15 L8.05 -9.15 9.05 -8.8 9.6 -8.45 9.45 -7.6 Q9.45 -7.15 9.1 -7.25 L7.15 -7.6 6.45 -8.15 6.3 -8.4 6.4 -8.6 7.95 -9.15" fill="#373737" fill-rule="evenodd" stroke="none"/>
    <path d="M9.7 -2.9 L9.2 -1.6 3.8 0.6 1.75 -2.3 1.25 -4.05 1.75 -3.4 6.45 -3.2 7.85 -4.55 9.55 -4.7 9.7 -2.9" fill="#363636" fill-rule="evenodd" stroke="none"/>
    <path d="M9.7 -2.9 L9.55 -4.7 7.85 -4.55 6.45 -3.2 1.75 -3.4 1.25 -4.05 1.75 -2.3 3.8 0.6 9.2 -1.6 9.7 -2.9 Z" fill="none" stroke="#161616" stroke-linecap="round" stroke-linejoin="round" stroke-width="0.8500000000000001"/>
    <path d="M9.45 -4.6 Q8.9 -3.85 7.8 -3.25 6.0 -2.4 3.8 -2.75" fill="none" stroke="#7d7d7d" stroke-linecap="round" stroke-linejoin="round" stroke-width="0.5"/>
    <path d="M9.65 1.25 L10.8 2.35 11.0 3.8 7.95 4.6 6.2 3.25 6.6 1.35 9.5 1.05 9.65 1.25" fill="#363636" fill-rule="evenodd" stroke="none"/>
    <path d="M9.65 1.25 L10.8 2.35 11.0 3.8 7.95 4.6 6.2 3.25 6.6 1.35 9.5 1.05 9.65 1.25 Z" fill="none" stroke="#2a8c81" stroke-linecap="round" stroke-linejoin="round" stroke-width="0.75"/>
    <path d="M9.65 1.25 L10.8 2.35 11.0 3.8 7.95 4.6 6.2 3.25 6.6 1.35 9.5 1.05 9.65 1.25 Z" fill="none" stroke="#161616" stroke-linecap="round" stroke-linejoin="round" stroke-width="0.75"/>
    <path d="M7.7 5.2 Q7.3 5.4 7.55 4.65 8.15 3.55 9.35 3.35 10.3 3.2 11.4 3.85 11.8 4.15 11.7 4.4 L7.7 5.2" fill="#363636" fill-rule="evenodd" stroke="none"/>
    <path d="M7.7 5.2 Q7.3 5.4 7.55 4.65 8.15 3.55 9.35 3.35 10.3 3.2 11.4 3.85 11.8 4.15 11.7 4.4 L7.7 5.2 Z" fill="none" stroke="#2a8c81" stroke-linecap="round" stroke-linejoin="round" stroke-width="0.75"/>
    <path d="M7.7 5.2 Q7.3 5.4 7.55 4.65 8.15 3.55 9.35 3.35 10.3 3.2 11.4 3.85 11.8 4.15 11.7 4.4 L7.7 5.2 Z" fill="none" stroke="#161616" stroke-linecap="round" stroke-linejoin="round" stroke-width="0.75"/>
    <path d="M8.65 -2.65 L9.75 -2.0 9.9 1.55 9.4 1.95 6.85 1.95 6.4 1.0 7.25 -1.05 Q7.8 -2.2 8.65 -2.65" fill="#363636" fill-rule="evenodd" stroke="none"/>
    <path d="M7.5 1.7 L8.25 1.05 Q9.2 0.4 10.0 0.8" fill="none" stroke="#1f1f1f" stroke-linecap="round" stroke-linejoin="round" stroke-width="0.6000000000000001"/>
    <path d="M8.7 -0.25 L9.85 -0.2" fill="none" stroke="#1f1f1f" stroke-linecap="round" stroke-linejoin="round" stroke-width="0.6000000000000001"/>
    <path d="M8.55 -1.3 L9.75 -1.2" fill="none" stroke="#1f1f1f" stroke-linecap="round" stroke-linejoin="round" stroke-width="0.6000000000000001"/>
    <path d="M8.65 -2.65 L9.75 -2.0 9.9 1.55 9.4 1.95 6.85 1.95 5.6 0.15 7.1 -0.8 7.4 -1.95 8.65 -2.65 Z" fill="none" stroke="#161616" stroke-linecap="round" stroke-linejoin="round" stroke-width="0.8500000000000001"/>
    <path d="M2.9 0.4 Q2.3 -0.4 3.85 -1.25 4.65 -1.5 5.6 -1.25 L7.5 0.05 Q8.1 1.5 7.3 2.1 L6.5 2.25 2.9 0.4" fill="#363636" fill-rule="evenodd" stroke="none"/>
    <path d="M2.9 0.4 Q2.3 -0.4 3.85 -1.25 4.65 -1.5 5.6 -1.25 L7.5 0.05 Q8.1 1.5 7.3 2.1 L6.5 2.25 2.9 0.4 Z" fill="none" stroke="#2a8c81" stroke-linecap="round" stroke-linejoin="round" stroke-width="0.75"/>
    <path d="M2.9 0.4 Q2.3 -0.4 3.85 -1.25 4.65 -1.5 5.6 -1.25 L7.5 0.05 Q7.85 1.5 7.3 2.1 L6.5 2.25 2.9 0.4 Z" fill="none" stroke="#161616" stroke-linecap="round" stroke-linejoin="round" stroke-width="0.75"/>
    <path d="M4.85 -0.45 Q5.75 -0.5 6.5 0.45 7.35 1.4 7.1 2.3 6.9 3.3 5.7 3.7 L3.7 3.55 Q2.2 2.5 2.7 1.05 3.2 -0.4 4.85 -0.45" fill="#363636" fill-rule="evenodd" stroke="none"/>
    <path d="M4.85 -0.45 Q3.2 -0.4 2.7 1.05 2.2 2.5 3.7 3.55 L5.7 3.7 Q6.9 3.3 7.1 2.3 7.35 1.4 6.5 0.45 5.75 -0.5 4.85 -0.45 Z" fill="none" stroke="#2a8c81" stroke-linecap="round" stroke-linejoin="round" stroke-width="0.75"/>
    <path d="M4.85 -0.45 Q3.2 -0.4 2.7 1.05 2.2 2.5 3.7 3.55 L5.7 3.7 Q6.9 3.3 7.1 2.3 7.35 1.4 6.5 0.45 5.75 -0.5 4.85 -0.45 Z" fill="none" stroke="#161616" stroke-linecap="round" stroke-linejoin="round" stroke-width="0.75"/>
    <path d="M4.6 2.55 L4.1 2.8 3.6 2.55 3.6 1.9 4.1 1.6 4.6 1.9 4.6 2.55" fill="#bec9d5" fill-rule="evenodd" stroke="none"/>
    <path d="M5.35 1.2 L4.85 1.5 4.35 1.2 4.35 0.6 4.85 0.3 5.35 0.6 5.35 1.2" fill="#bec9d5" fill-rule="evenodd" stroke="none"/>
    <path d="M6.1 2.6 L5.6 2.85 5.1 2.6 5.1 1.95 5.6 1.65 6.1 1.95 6.1 2.6" fill="#bec9d5" fill-rule="evenodd" stroke="none"/>
    <path d="M6.65 -7.1 L9.15 -6.75 8.9 -5.0 7.85 -4.95 Q7.4 -4.05 6.5 -3.8 L4.7 -4.0" fill="none" stroke="#8f5508" stroke-linecap="round" stroke-linejoin="round" stroke-opacity="0.57254905" stroke-width="0.8500000000000001"/>
    <path d="M8.15 -11.6 L8.85 -9.65 Q8.8 -9.35 8.5 -9.4 L8.0 -9.5 5.85 -8.65 5.7 -8.4 5.9 -8.15 6.3 -7.85 6.5 -7.45 4.2 -3.7 3.5 -2.75 2.15 -2.6 0.8 -2.55 Q-2.65 -2.55 -4.45 -4.2 L-5.05 -4.95 -4.0 -7.1 Q-3.8 -7.45 -3.95 -7.8 -4.8 -9.65 -3.55 -11.55 -2.65 -12.95 -2.0 -13.35 0.4 -14.35 2.7 -14.4 L5.2 -14.0 Q7.4 -13.35 8.15 -11.6" fill="#373737" fill-rule="evenodd" stroke="none"/>
    <path d="M6.5 -8.7 L3.05 -9.35 Q-1.0 -9.7 -4.1 -8.1" fill="none" stroke="#262626" stroke-linecap="round" stroke-linejoin="round" stroke-width="0.8500000000000001"/>
    <path d="M6.65 -8.9 Q6.25 -10.0 4.9 -11.1 2.1 -13.2 -2.7 -12.85" fill="none" stroke="#262626" stroke-linecap="round" stroke-linejoin="round" stroke-width="0.8500000000000001"/>
    <path d="M-2.4 -9.3 L-1.95 -10.0 -0.3 -10.05 0.25 -9.6" fill="none" stroke="#1f1f1f" stroke-linecap="round" stroke-linejoin="round" stroke-width="0.5"/>
    <path d="M6.5 -8.95 L3.05 -9.65 Q-0.95 -9.9 -4.1 -8.35" fill="none" stroke="#161616" stroke-linecap="round" stroke-linejoin="round" stroke-width="0.5"/>
    <path d="M6.2 -7.8 L3.5 -2.85 Q1.85 -2.7 0.0 -2.85 -3.75 -3.2 -4.95 -5.05" fill="none" stroke="#f4f5f7" stroke-linecap="round" stroke-linejoin="round" stroke-width="0.8500000000000001"/>
    <path d="M5.35 -5.35 L3.65 -6.1 0.95 -6.05 Q-0.65 -4.6 -4.4 -6.0" fill="none" stroke="#262626" stroke-linecap="round" stroke-linejoin="round" stroke-width="0.8500000000000001"/>
    <path d="M-3.0 -6.0 L-2.55 -6.4 -0.8 -6.4 -0.2 -5.9" fill="none" stroke="#1f1f1f" stroke-linecap="round" stroke-linejoin="round" stroke-width="0.5"/>
    <path d="M5.35 -5.6 L3.65 -6.35 0.95 -6.3 Q-0.65 -4.85 -4.4 -6.25" fill="none" stroke="#161616" stroke-linecap="round" stroke-linejoin="round" stroke-width="0.5"/>
    <path d="M8.0 -14.0 L7.85 -13.45 7.3 -13.1 Q6.2 -14.55 2.05 -14.5 -2.5 -14.4 -3.85 -11.75 L-3.85 -11.8 Q-4.25 -12.65 -3.6 -14.2 -3.1 -15.6 -2.1 -16.7 L3.7 -18.45 7.5 -16.7 8.0 -14.0" fill="#373737" fill-rule="evenodd" stroke="none"/>
    <path d="M-3.8 -13.6 L-3.0 -15.25 -1.85 -16.45 3.65 -18.1 7.25 -16.35 7.75 -13.9 7.3 -13.2" fill="none" stroke="#f4f5f7" stroke-linecap="round" stroke-linejoin="round" stroke-width="0.8500000000000001"/>
    <path d="M6.65 -7.45 L3.7 -2.55 Q-3.1 -1.65 -5.25 -4.9 L-4.0 -7.45 Q-5.3 -10.4 -2.3 -13.4 0.6 -14.6 3.05 -14.55 6.1 -14.5 7.85 -12.55 8.65 -11.3 9.25 -8.9" fill="none" stroke="#161616" stroke-linecap="round" stroke-linejoin="round" stroke-width="0.8500000000000001"/>
    <path d="M6.55 -13.0 L8.1 -13.9 9.2 -13.75 Q10.45 -11.5 9.9 -9.55 L8.8 -8.35 7.95 -8.4 Q8.7 -10.05 8.55 -11.1 L7.15 -12.2 Q6.15 -12.7 6.55 -13.0" fill="#242424" fill-rule="evenodd" stroke="none"/>
    <path d="M6.55 -13.0 L8.1 -13.9 9.2 -13.75 Q10.45 -11.5 9.9 -9.55 L8.8 -8.35 7.95 -8.4 Q8.7 -10.05 8.55 -11.1 L7.15 -12.2 Q6.15 -12.7 6.55 -13.0 Z" fill="none" stroke="#161616" stroke-linecap="round" stroke-linejoin="round" stroke-width="0.8500000000000001"/>
    <path d="M-1.85 -14.15 Q-1.3 -15.05 1.6 -15.75 5.1 -16.7 6.2 -14.2" fill="none" stroke="#1f1f1f" stroke-linecap="round" stroke-linejoin="round" stroke-width="0.5"/>
    <path d="M-2.55 -13.4 L-1.65 -15.2 Q1.4 -16.25 3.25 -16.5 4.75 -16.4 6.4 -15.4 L6.55 -14.05 6.5 -13.85" fill="none" stroke="#161616" stroke-linecap="round" stroke-linejoin="round" stroke-width="0.5"/>
    <path d="M-3.85 -11.8 Q-4.25 -12.65 -3.6 -14.2 -3.1 -15.6 -2.1 -16.7 L3.7 -18.45 7.5 -16.7 8.0 -14.0 Q8.1 -13.8 7.15 -13.35 6.1 -14.8 1.95 -14.6 -2.5 -14.4 -3.85 -11.8 Z" fill="none" stroke="#161616" stroke-linecap="round" stroke-linejoin="round" stroke-width="0.8500000000000001"/>
    <path d="M0.35 -13.2 Q0.6 -13.45 1.6 -13.65 L3.25 -13.05 3.9 -12.55 4.0 -12.1" fill="none" stroke="#1f1f1f" stroke-linecap="round" stroke-linejoin="round" stroke-width="0.5"/>
    <path d="M5.85 -8.55 L8.0 -9.35 9.85 -8.65 9.45 -7.0 7.0 -7.45 6.1 -8.2 Q5.7 -8.45 5.85 -8.55" fill="#242424" fill-rule="evenodd" stroke="none"/>
    <path d="M6.65 -9.3 Q6.35 -10.4 5.05 -11.4 2.35 -13.5 -2.45 -13.15" fill="none" stroke="#161616" stroke-linecap="round" stroke-linejoin="round" stroke-width="0.5"/>
    <path d="M5.85 -8.55 Q5.7 -8.45 6.1 -8.2 L7.0 -7.45 9.45 -7.0 9.85 -8.65 8.0 -9.35 5.85 -8.55 Z" fill="none" stroke="#161616" stroke-linecap="round" stroke-linejoin="round" stroke-width="0.8500000000000001"/>
  </g>
  <defs>
    <linearGradient gradientTransform="matrix(0.0021, -4.0E-4, 4.0E-4, 0.0021, 7.4, -5.3)" gradientUnits="userSpaceOnUse" id="gradient0" spreadMethod="pad" x1="-819.2" x2="819.2">
      <stop offset="0.0" stop-color="#795408"/>
      <stop offset="0.2901960784313726" stop-color="#eea737"/>
      <stop offset="1.0" stop-color="#e8b75b"/>
    </linearGradient>
  </defs>
</svg>
