<?xml version="1.0" encoding="UTF-8" standalone="no"?>
<svg xmlns:ffdec="https://www.free-decompiler.com/flash" xmlns:xlink="http://www.w3.org/1999/xlink" ffdec:objectType="shape" height="21.55px" width="29.35px" xmlns="http://www.w3.org/2000/svg">
  <g transform="matrix(1.0, 0.0, 0.0, 1.0, 15.25, 19.75)">
    <path d="M13.6 -9.4 L9.4 -6.0 9.4 -3.15 10.7 -2.15 11.15 0.9 8.15 1.3 6.7 -0.65 -1.6 -2.35 1.5 -7.05 Q-1.25 -7.65 -2.25 -9.95 L-1.8 -13.5 13.6 -9.4" fill="#49494f" fill-rule="evenodd" stroke="none"/>
    <path d="M4.2 -16.95 Q10.55 -13.95 13.6 -9.4 L-1.8 -13.5 -2.95 -16.1 -6.15 -17.25 -5.15 -18.25 Q-4.0 -19.2 -3.1 -19.25 L-2.85 -19.25 Q-0.2 -19.05 4.2 -16.95" fill="#404040" fill-rule="evenodd" stroke="none"/>
    <path d="M-6.15 -17.25 L-2.95 -16.0 -1.8 -13.5 -2.25 -9.95 Q-1.25 -7.65 1.5 -7.05 L-0.5 -4.25 -5.65 -6.65 -6.35 -9.1 -10.9 -8.0 -13.25 -8.3 -14.75 -10.15 -14.75 -11.9 -12.15 -12.1 -10.5 -13.7 -11.05 -16.45 -10.15 -17.2 Q-9.05 -17.95 -8.45 -17.9 -7.45 -17.85 -6.15 -17.25" fill="#545454" fill-rule="evenodd" stroke="none"/>
    <path d="M-8.25 -7.65 L-6.1 -8.15 -5.65 -6.65 -0.5 -4.25 -1.6 -2.35 -5.0 -1.55 -7.6 -2.85 Q-8.4 -4.8 -8.4 -6.4 L-8.25 -7.65" fill="#262626" fill-rule="evenodd" stroke="none"/>
    <path d="M-8.25 -7.65 L-8.4 -6.4 Q-8.4 -4.8 -7.6 -2.85 L-5.0 -1.55 -1.6 -2.35 -0.5 -4.25 -5.65 -6.65 -6.1 -8.15 -8.25 -7.65 Z" fill="none" stroke="#2a8c81" stroke-linecap="round" stroke-linejoin="round" stroke-width="1.0"/>
    <path d="M-10.5 -13.7 L-11.05 -16.45 -10.15 -17.2 Q-9.05 -17.95 -8.45 -17.9 -7.45 -17.85 -6.15 -17.25" fill="none" stroke="#2f2f2f" stroke-linecap="round" stroke-linejoin="round" stroke-width="1.0"/>
    <path d="M-6.15 -17.25 L-5.05 -18.35 Q-3.75 -19.4 -2.85 -19.25 -0.2 -19.05 4.2 -16.95 10.55 -13.95 13.6 -9.4" fill="none" stroke="#1f1f1f" stroke-linecap="round" stroke-linejoin="round" stroke-width="1.0"/>
    <path d="M13.6 -9.4 L9.4 -6.0 9.3 -3.15 10.7 -2.15 11.15 0.8 8.15 1.3 6.7 -0.65 -1.6 -2.35 -0.5 -4.25 -5.65 -6.65 -6.1 -8.15 -8.25 -7.65 -8.6 -8.5 -10.35 -8.15 -10.9 -8.0 M-8.6 -8.5 L-8.6 -8.6 -10.35 -8.15 M-8.6 -8.5 L-6.35 -9.1 -6.1 -8.15" fill="none" stroke="#1c1c1c" stroke-linecap="round" stroke-linejoin="round" stroke-width="1.0"/>
    <path d="M-10.9 -8.0 L-13.25 -8.3 -14.75 -10.15 -14.75 -11.9 -12.15 -12.1 -10.5 -13.7" fill="none" stroke="#2f2f2f" stroke-linecap="round" stroke-linejoin="round" stroke-width="1.0"/>
    <path d="M-6.15 -17.25 L-2.95 -16.0 -1.8 -13.5 -2.25 -9.95 -6.35 -9.1" fill="none" stroke="#3b3b3b" stroke-linecap="round" stroke-linejoin="round" stroke-width="1.0"/>
    <path d="M-0.5 -4.25 L1.5 -7.05 Q-1.25 -7.65 -2.25 -9.95" fill="none" stroke="#383838" stroke-linecap="round" stroke-linejoin="round" stroke-width="1.0"/>
    <path d="M7.0 -8.45 L7.2 -4.8" fill="none" stroke="#000000" stroke-linecap="round" stroke-linejoin="round" stroke-width="1.0"/>
    <path d="M3.95 -9.25 L4.35 -5.6" fill="none" stroke="#000000" stroke-linecap="round" stroke-linejoin="round" stroke-width="1.0"/>
    <path d="M9.3 -3.15 L6.7 -0.65" fill="none" stroke="#2f2f2f" stroke-linecap="round" stroke-linejoin="round" stroke-width="1.0"/>
    <path d="M13.6 -9.4 L-1.8 -13.5" fill="none" stroke="#383838" stroke-linecap="round" stroke-linejoin="round" stroke-width="1.0"/>
    <path d="M-12.15 -12.1 L-10.9 -8.0" fill="none" stroke="#3b3b3b" stroke-linecap="round" stroke-linejoin="round" stroke-width="0.75"/>
    <path d="M-4.5 -13.65 L-4.65 -11.4" fill="none" stroke="#3b3b3b" stroke-linecap="round" stroke-linejoin="round" stroke-width="1.0"/>
    <path d="M-6.6 -13.85 L-6.75 -11.6" fill="none" stroke="#3b3b3b" stroke-linecap="round" stroke-linejoin="round" stroke-width="1.0"/>
    <path d="M-8.25 -7.65 L-8.4 -6.4 Q-8.4 -4.8 -7.6 -2.85 L-5.0 -1.55 -1.6 -2.35" fill="none" stroke="#000000" stroke-linecap="round" stroke-linejoin="round" stroke-width="1.0"/>
    <path d="M1.5 -7.05 L1.1 -10.05" fill="none" stroke="#000000" stroke-linecap="round" stroke-linejoin="round" stroke-width="1.0"/>
  </g>
</svg>
