<?xml version="1.0" encoding="UTF-8" standalone="no"?>
<svg xmlns:ffdec="https://www.free-decompiler.com/flash" xmlns:xlink="http://www.w3.org/1999/xlink" ffdec:objectType="shape" height="19.05px" width="21.05px" xmlns="http://www.w3.org/2000/svg">
  <g transform="matrix(1.0, 0.0, 0.0, 1.0, 0.5, 0.5)">
    <path d="M14.35 8.55 L15.1 8.2 Q13.0 7.6 11.35 8.55 12.95 8.2 14.35 8.55 M14.6 10.9 L15.2 10.9 Q14.8 10.6 14.35 10.45 L13.35 10.2 12.95 10.15 Q11.65 10.15 11.5 10.85 L12.1 11.4 12.5 11.9 14.0 12.1 Q14.7 11.35 14.6 10.9 M4.9 13.0 L3.9 10.1 Q2.2 6.15 5.1 2.85 7.65 -0.25 14.25 2.9 17.45 5.05 16.7 9.0 L16.6 9.4 15.85 11.5 Q15.45 12.3 16.1 12.8 L16.7 13.3 15.75 14.65 15.75 15.45 15.1 15.8 15.1 16.3 14.6 16.55 Q14.7 17.5 13.85 17.55 L10.5 16.75 9.15 16.05 7.6 14.35 Q4.55 11.15 4.9 13.0 M7.5 9.5 Q6.75 9.2 6.35 9.9 5.8 10.6 6.1 11.55 6.25 12.3 6.9 13.15 7.6 13.75 8.15 13.3 7.6 13.75 6.9 13.15 6.25 12.3 6.1 11.55 5.8 10.6 6.35 9.9 6.75 9.2 7.5 9.5 M7.75 10.9 Q7.15 10.75 7.0 11.55 7.15 10.75 7.75 10.9 M7.35 10.1 Q6.65 10.0 6.65 10.6 L6.75 11.6 6.65 10.6 Q6.65 10.0 7.35 10.1 M8.3 12.7 Q7.7 13.0 7.35 12.45 7.7 13.0 8.3 12.7 M14.25 15.65 L13.35 15.25 14.25 15.65" fill="url(#gradient0)" fill-rule="evenodd" stroke="none"/>
    <path d="M14.35 8.55 Q12.95 8.2 11.35 8.55 13.0 7.6 15.1 8.2 L14.35 8.55 M13.45 11.25 L13.45 11.2 13.5 10.95 13.75 10.9 13.85 11.05 13.85 11.3 13.85 11.35 13.75 11.55 13.6 11.6 13.45 11.45 13.35 11.3 13.45 11.25" fill="#000000" fill-rule="evenodd" stroke="none"/>
    <path d="M14.6 10.9 Q14.7 11.35 14.0 12.1 L12.5 11.9 12.1 11.4 Q11.8 10.55 12.6 10.5 L13.15 10.6 13.0 10.9 13.0 11.2 13.0 11.45 13.1 11.65 13.5 12.1 14.0 11.9 14.25 11.6 14.35 11.35 14.35 11.2 14.35 11.15 14.45 10.9 14.6 10.9" fill="url(#gradient1)" fill-rule="evenodd" stroke="none"/>
    <path d="M12.1 11.4 L11.5 10.85 Q11.65 10.15 12.95 10.15 L13.35 10.2 14.35 10.45 Q14.8 10.6 15.2 10.9 L14.6 10.9 14.45 10.9 13.15 10.6 12.6 10.5 Q11.8 10.55 12.1 11.4" fill="#6a1622" fill-rule="evenodd" stroke="none"/>
    <path d="M13.15 10.6 L14.45 10.9 14.35 11.15 14.35 10.9 14.2 10.85 14.0 10.9 14.0 11.2 14.2 11.25 14.35 11.2 14.35 11.35 13.85 11.3 13.85 11.05 13.75 10.9 13.5 10.95 13.45 11.2 13.45 11.25 13.0 11.2 13.0 10.9 13.15 10.6" fill="#0e4321" fill-rule="evenodd" stroke="none"/>
    <path d="M13.45 11.25 L13.35 11.3 13.45 11.45 13.6 11.6 13.75 11.55 13.85 11.35 13.85 11.3 14.35 11.35 14.25 11.6 14.0 11.9 13.5 12.1 13.1 11.65 13.0 11.45 13.1 11.55 13.2 11.6 13.35 11.45 13.2 11.3 13.1 11.35 13.0 11.45 13.0 11.2 13.45 11.25" fill="#84bf98" fill-rule="evenodd" stroke="none"/>
    <path d="M14.35 11.2 L14.2 11.25 14.0 11.2 14.0 10.9 14.2 10.85 14.35 10.9 14.35 11.15 14.35 11.2 M13.0 11.45 L13.1 11.35 13.2 11.3 13.35 11.45 13.2 11.6 13.1 11.55 13.0 11.45" fill="#ffffff" fill-rule="evenodd" stroke="none"/>
    <path d="M10.5 16.75 Q10.0 17.55 10.25 18.2 5.75 17.75 5.65 16.6 5.95 15.95 5.55 14.4 L4.9 13.0 Q4.55 11.15 7.6 14.35 L9.15 16.05 10.5 16.75 M9.15 16.05 Q8.1 15.65 7.6 14.35 8.1 15.65 9.15 16.05" fill="#d7aa97" fill-rule="evenodd" stroke="none"/>
    <path d="M14.35 8.55 Q12.95 8.2 11.35 8.55 13.0 7.6 15.1 8.2 L14.35 8.55" fill="none" stroke="#303030" stroke-linecap="round" stroke-linejoin="round" stroke-opacity="0.5019608" stroke-width="0.5"/>
    <path d="M14.35 11.35 L14.35 11.2 14.35 11.15 14.45 10.9 M13.0 11.45 L13.0 11.2 13.0 10.9 13.15 10.6 M14.35 11.35 L14.25 11.6 14.0 11.9 13.5 12.1 13.1 11.65 13.0 11.45" fill="none" stroke="#0a4420" stroke-linecap="round" stroke-linejoin="round" stroke-opacity="0.5019608" stroke-width="0.5"/>
    <path d="M4.9 13.0 L3.9 10.1 Q2.2 6.15 5.1 2.85 7.65 -0.25 14.25 2.9 17.45 5.05 16.7 9.0 L16.6 9.4 15.85 11.5 Q15.45 12.3 16.1 12.8 L16.7 13.3 15.75 14.65 15.75 15.45 15.1 15.8 15.1 16.3 14.6 16.55 Q14.7 17.5 13.85 17.55 L10.5 16.75 M10.25 18.2 Q5.75 17.75 5.65 16.6 5.95 15.95 5.55 14.4 L4.9 13.0" fill="none" stroke="#a17668" stroke-linecap="round" stroke-linejoin="round" stroke-width="0.5"/>
    <path d="M8.15 13.3 Q7.6 13.75 6.9 13.15 6.25 12.3 6.1 11.55 5.8 10.6 6.35 9.9 6.75 9.2 7.5 9.5 M6.75 11.6 L6.65 10.6 Q6.65 10.0 7.35 10.1" fill="none" stroke="#c08876" stroke-linecap="round" stroke-linejoin="round" stroke-width="0.5"/>
    <path d="M7.0 11.55 Q7.15 10.75 7.75 10.9 M7.35 12.45 Q7.7 13.0 8.3 12.7" fill="none" stroke="#cb9d8a" stroke-linecap="round" stroke-linejoin="round" stroke-width="0.5"/>
    <path d="M9.15 16.05 L10.5 16.75 M7.6 14.35 Q8.1 15.65 9.15 16.05" fill="none" stroke="#c6988b" stroke-linecap="round" stroke-linejoin="round" stroke-width="0.5"/>
    <path d="M13.35 15.25 L14.25 15.65" fill="none" stroke="#b47f6d" stroke-linecap="round" stroke-linejoin="round" stroke-width="0.5"/>
    <path d="M10.5 16.75 Q10.0 17.55 10.25 18.2" fill="none" stroke="#a27667" stroke-linecap="round" stroke-linejoin="round" stroke-width="0.5"/>
    <path d="M13.45 17.55 L12.45 17.2 Q11.4 16.55 10.6 16.4 10.0 17.45 10.05 18.05 6.85 18.1 5.1 16.55 5.55 14.9 4.7 9.85 6.65 10.95 9.75 12.1 8.05 12.95 13.45 17.55 M7.6 14.7 Q9.0 15.95 10.6 16.4 9.0 15.95 7.6 14.7" fill="#2d1b1b" fill-rule="evenodd" stroke="none"/>
    <path d="M9.75 12.1 L15.55 12.3 Q17.75 13.0 14.45 17.3 L13.45 17.55 Q8.05 12.95 9.75 12.1" fill="#3b2323" fill-rule="evenodd" stroke="none"/>
    <path d="M13.45 17.55 L12.45 17.2 Q11.4 16.55 10.6 16.4 10.0 17.45 10.05 18.05 6.85 18.1 5.1 16.55 5.55 14.9 4.7 9.85 6.65 10.95 9.75 12.1 L15.55 12.3 Q17.75 13.0 14.45 17.3 L13.45 17.55" fill="none" stroke="#0e0808" stroke-linecap="round" stroke-linejoin="round" stroke-width="1.0"/>
    <path d="M10.6 16.4 Q9.0 15.95 7.6 14.7" fill="none" stroke="#1d1010" stroke-linecap="round" stroke-linejoin="round" stroke-width="1.0"/>
    <path d="M9.75 12.1 L15.55 12.3 Q17.75 13.0 14.45 17.3 L12.45 17.2 Q11.4 16.55 10.6 16.4 10.0 17.45 10.05 18.05 6.85 18.1 5.1 16.55 5.55 14.9 4.7 9.85 6.65 10.95 9.75 12.1 Z" fill="none" stroke="#0e0808" stroke-linecap="round" stroke-linejoin="round" stroke-width="1.0"/>
    <path d="M6.35 14.45 Q6.2 15.6 4.85 17.1 5.4 14.4 4.85 14.1 4.35 15.15 2.75 16.5 3.6 15.0 3.4 13.65 2.2 14.95 0.0 14.35 2.85 13.6 2.05 11.95 0.7 9.35 1.0 6.4 1.15 3.4 3.6 1.65 5.85 0.0 10.1 0.0 14.45 0.0 17.45 3.2 20.3 6.2 20.0 10.3 18.75 7.7 17.5 7.05 18.35 9.05 17.6 12.75 15.65 8.55 12.5 6.6 13.0 7.75 13.0 9.4 L10.75 6.75 Q9.95 11.0 11.75 14.25 L10.3 13.1 Q10.25 15.6 9.3 17.45 10.1 13.6 9.3 11.8 L9.05 11.3 Q9.0 12.25 8.55 13.3 8.25 10.1 7.5 9.55 6.4 9.55 6.3 11.9 7.35 14.25 7.1 16.4 6.95 15.2 6.35 14.45 M2.6 8.1 Q2.55 5.15 3.8 3.4 2.55 5.15 2.6 8.1 M6.35 8.9 Q5.65 6.2 7.1 2.65 5.65 6.2 6.35 8.9 M3.65 9.65 Q3.25 6.55 3.85 5.35 3.25 6.55 3.65 9.65 M14.2 5.8 Q13.65 3.0 12.85 2.7 13.65 3.0 14.2 5.8 M4.65 12.6 Q5.15 11.75 5.15 9.85 5.15 11.75 4.65 12.6" fill="#000000" fill-rule="evenodd" stroke="none"/>
    <path d="M12.85 2.7 Q13.65 3.0 14.2 5.8 M3.85 5.35 Q3.25 6.55 3.65 9.65 M7.1 2.65 Q5.65 6.2 6.35 8.9 M3.8 3.4 Q2.55 5.15 2.6 8.1" fill="none" stroke="#171e35" stroke-linecap="round" stroke-linejoin="round" stroke-width="1.0"/>
    <path d="M6.35 14.45 Q6.2 15.6 4.85 17.1 5.4 14.4 4.85 14.1 4.35 15.15 2.75 16.5 3.6 15.0 3.4 13.65 2.2 14.95 0.0 14.35 2.85 13.6 2.05 11.95 0.7 9.35 1.0 6.4 1.15 3.4 3.6 1.65 5.85 0.0 10.1 0.0 14.45 0.0 17.45 3.2 20.3 6.2 20.0 10.3 18.75 7.7 17.5 7.05 18.35 9.05 17.6 12.75 15.65 8.55 12.5 6.6 13.0 7.75 13.0 9.4 L10.75 6.75 Q9.95 11.0 11.75 14.25 L10.3 13.1 Q10.25 15.6 9.3 17.45 10.1 13.6 9.3 11.8 L9.05 11.3 Q9.0 12.25 8.55 13.3 8.25 10.1 7.5 9.55 6.4 9.55 6.3 11.9" fill="none" stroke="#000000" stroke-linecap="round" stroke-linejoin="round" stroke-opacity="0.14901961" stroke-width="1.0"/>
    <path d="M6.3 11.9 Q7.35 14.25 7.1 16.4 6.95 15.2 6.35 14.45" fill="none" stroke="#001443" stroke-linecap="round" stroke-linejoin="round" stroke-opacity="0.14901961" stroke-width="1.0"/>
    <path d="M5.15 9.85 Q5.15 11.75 4.65 12.6" fill="none" stroke="#101023" stroke-linecap="round" stroke-linejoin="round" stroke-width="1.0"/>
    <path d="M10.85 7.7 L10.85 7.95 10.6 9.05 Q10.0 10.35 7.0 11.4 L5.7 11.75 4.7 11.85 4.1 11.0 3.4 9.85 3.0 9.05 2.9 7.8 2.9 6.9 Q2.95 6.2 3.85 4.75 L4.05 4.8 8.15 6.05 Q9.4 6.4 10.85 7.7" fill="#2d2d2d" fill-rule="evenodd" stroke="none"/>
    <path d="M10.85 7.7 Q9.4 6.4 8.15 6.05 L4.05 4.8 3.85 4.75 Q2.95 6.2 2.9 6.9 L2.9 7.8 3.0 9.05 3.4 9.85 4.1 11.0 4.7 11.85 5.7 11.75 7.0 11.4 Q10.0 10.35 10.6 9.05 L10.85 7.95 10.85 7.7 Z" fill="none" stroke="#111111" stroke-linecap="round" stroke-linejoin="round" stroke-width="1.0"/>
    <path d="M7.95 10.0 Q6.3 11.95 4.3 8.6 2.2 5.25 1.65 2.9 L2.3 2.85 4.1 4.15 Q7.55 9.35 9.0 8.45 L7.95 10.0" fill="#1e1e1e" fill-rule="evenodd" stroke="none"/>
    <path d="M7.95 10.0 Q6.3 11.95 4.3 8.6 2.2 5.25 1.65 2.9 L2.3 2.85 4.1 4.15 Q7.55 9.35 9.0 8.45 L7.95 10.0 Z" fill="none" stroke="#0c0c0c" stroke-linecap="round" stroke-linejoin="round" stroke-width="1.0"/>
    <path d="M10.25 10.3 L10.6 10.65 10.8 10.7 11.15 10.65 11.05 11.3 10.0 11.85 9.7 11.5 9.2 11.5 8.15 11.9 7.85 12.25 7.8 12.3 7.8 12.45 6.7 11.95 Q6.1 11.85 5.85 11.5 5.35 10.95 5.3 9.95 5.2 9.45 5.5 8.95 5.65 8.55 5.95 8.3 6.8 7.55 7.65 7.65 L7.7 7.7 8.2 7.8 9.9 8.45 10.55 9.0 Q10.35 9.0 10.25 9.15 L10.0 9.75 10.25 10.3 M7.0 10.75 L8.55 9.85 7.0 8.95 7.0 10.75 7.0 8.95 8.55 9.85 7.0 10.75" fill="#2d2d2d" fill-rule="evenodd" stroke="none"/>
    <path d="M10.55 9.0 L10.8 8.95 11.3 9.1 11.5 9.7 11.3 10.25 10.8 10.6 Q10.45 10.6 10.25 10.3 L10.0 9.75 10.25 9.15 Q10.35 9.0 10.55 9.0 M10.0 11.85 L9.95 12.3 9.7 12.6 8.6 13.05 8.15 13.0 7.95 12.95 7.8 12.75 7.8 12.45 7.8 12.3 7.85 12.25 8.15 11.9 9.2 11.5 9.7 11.5 10.0 11.85" fill="#222222" fill-rule="evenodd" stroke="none"/>
    <path d="M10.55 9.0 L10.8 8.95 11.3 9.1 11.5 9.7 11.3 10.25 10.8 10.6 Q10.45 10.6 10.25 10.3 L10.0 9.75 10.25 9.15 Q10.35 9.0 10.55 9.0 L9.9 8.45 8.2 7.8 7.7 7.7 7.65 7.65 Q6.8 7.55 5.95 8.3 5.65 8.55 5.5 8.95 5.2 9.45 5.3 9.95 5.35 10.95 5.85 11.5 6.1 11.85 6.7 11.95 L7.8 12.45 7.8 12.3 7.85 12.25 8.15 11.9 9.2 11.5 9.7 11.5 10.0 11.85 9.95 12.3 9.7 12.6 8.6 13.05 8.15 13.0 7.95 12.95 7.8 12.75 7.8 12.45 M11.15 10.65 L11.05 11.3 10.0 11.85" fill="none" stroke="#0c0c0c" stroke-linecap="round" stroke-linejoin="round" stroke-width="1.0"/>
    <path d="M7.0 10.75 L7.0 8.95 8.55 9.85 7.0 10.75 Z" fill="none" stroke="#ff094f" stroke-linecap="round" stroke-linejoin="round" stroke-width="0.5"/>
  </g>
  <defs>
    <radialGradient cx="0" cy="0" gradientTransform="matrix(0.0166, 0.0, 0.0, 0.0166, 14.85, 15.55)" gradientUnits="userSpaceOnUse" id="gradient0" r="819.2" spreadMethod="pad">
      <stop offset="0.0" stop-color="#fce0ca"/>
      <stop offset="1.0" stop-color="#f0aa98"/>
    </radialGradient>
    <linearGradient gradientTransform="matrix(0.0, -0.0015, 0.0027, 0.0, -304.55, -390.95)" gradientUnits="userSpaceOnUse" id="gradient1" spreadMethod="pad" x1="-819.2" x2="819.2">
      <stop offset="0.0" stop-color="#ffffff"/>
      <stop offset="1.0" stop-color="#000000"/>
    </linearGradient>
  </defs>
</svg>
