<?xml version="1.0" encoding="UTF-8" standalone="no"?>
<svg xmlns:ffdec="https://www.free-decompiler.com/flash" xmlns:xlink="http://www.w3.org/1999/xlink" ffdec:objectType="shape" height="29.05px" width="27.9px" xmlns="http://www.w3.org/2000/svg">
  <g transform="matrix(1.0, 0.0, 0.0, 1.0, -0.5, 0.5)">
    <path d="M14.75 21.2 L20.05 20.15 20.35 20.1 22.85 19.6 22.35 21.1 Q20.3 25.15 20.45 26.1 20.4 28.45 15.65 28.0 L15.45 26.45 14.75 21.85 14.65 21.2 14.7 21.2 14.75 21.2" fill="#252525" fill-rule="evenodd" stroke="none"/>
    <path d="M22.85 19.6 L20.35 20.1 20.05 20.15 14.75 21.2 14.7 19.95 14.7 20.7 14.4 11.45 14.45 9.05 14.45 8.5 24.45 7.6 Q24.95 11.7 24.25 15.05 L22.85 19.6 M14.65 21.2 L14.75 21.85 15.45 26.45 15.65 28.0 Q13.4 28.0 10.8 26.3 L9.75 22.0 9.35 19.15 14.65 21.2" fill="#2c2c2c" fill-rule="evenodd" stroke="none"/>
    <path d="M14.75 21.2 L14.7 21.2 14.65 21.2 9.35 19.15 Q8.7 13.8 8.8 8.15 L9.75 5.95 13.25 3.75 14.45 8.5 14.45 9.05 14.4 11.45 14.7 20.7 14.7 19.95 14.75 21.2" fill="#383838" fill-rule="evenodd" stroke="none"/>
    <path d="M24.45 7.6 L14.45 8.5 13.25 3.75 18.9 3.75 Q22.45 4.55 24.25 6.4 L24.45 7.6" fill="#353535" fill-rule="evenodd" stroke="none"/>
    <path d="M8.9 4.8 Q9.2 3.25 11.3 2.7 13.8 1.75 14.2 0.0" fill="none" stroke="#bb0000" stroke-linecap="round" stroke-linejoin="round" stroke-opacity="0.8" stroke-width="1.0"/>
    <path d="M22.35 21.1 L22.85 19.6 24.25 15.05 Q24.95 11.7 24.45 7.6 L24.25 6.4 Q22.45 4.55 18.9 3.75 L13.25 3.75 9.75 5.95 8.8 8.15 Q8.7 13.8 9.35 19.15 L9.75 22.0 10.8 26.3 Q13.4 28.0 15.65 28.0" fill="none" stroke="#151515" stroke-linecap="round" stroke-linejoin="round" stroke-width="1.0"/>
    <path d="M15.65 28.0 Q20.4 28.45 20.45 26.1 20.3 25.15 22.35 21.1" fill="none" stroke="#040404" stroke-linecap="round" stroke-linejoin="round" stroke-width="1.0"/>
    <path d="M9.85 3.2 L10.1 3.15 10.1 3.5 10.1 5.1 10.0 9.6 9.95 11.25 9.85 11.3 9.85 7.25 9.85 3.2" fill="#797979" fill-rule="evenodd" stroke="none"/>
    <path d="M26.3 10.6 L20.35 9.75 20.35 8.0 26.3 8.85 26.3 10.6" fill="#ff0000" fill-rule="evenodd" stroke="none"/>
    <path d="M18.15 12.05 L19.95 12.95 26.3 14.0 26.0 15.75 20.55 15.05 18.15 13.85 18.15 12.05 M19.3 18.85 L24.25 19.9 23.9 21.55 19.7 20.5 19.3 18.85" fill="#350303" fill-rule="evenodd" stroke="none"/>
    <path d="M23.9 21.55 Q23.25 24.0 21.85 26.15 L20.75 24.7 19.85 21.05 19.7 20.5 23.9 21.55" fill="#272727" fill-rule="evenodd" stroke="none"/>
    <path d="M9.85 13.45 L9.85 11.3 9.95 11.25 9.85 15.9 9.85 13.45" fill="#464646" fill-rule="evenodd" stroke="none"/>
    <path d="M12.2 21.55 L12.2 22.95 9.75 22.9 9.85 15.9 9.95 11.25 10.0 9.6 12.2 10.95 12.2 14.1 12.2 21.55" fill="#313131" fill-rule="evenodd" stroke="none"/>
    <path d="M18.45 5.9 L23.7 5.9 26.25 7.0 26.3 8.85 20.35 8.0 20.35 9.75 26.3 10.6 26.3 14.0 19.95 12.95 18.15 12.05 16.35 11.15 16.35 7.2 16.8 6.9 18.1 5.9 18.45 5.9 M18.15 13.85 L20.55 15.05 26.0 15.75 25.2 20.1 24.25 19.9 19.3 18.85 19.0 18.45 18.15 17.2 18.15 14.6 18.15 13.85" fill="#431515" fill-rule="evenodd" stroke="none"/>
    <path d="M4.6 18.65 L2.2 18.65 2.2 3.05 4.25 2.55 4.25 2.15 5.25 1.85 6.8 1.85 9.85 1.85 9.85 3.2 9.85 7.25 6.8 7.25 4.6 10.15 4.6 13.15 4.6 18.65 M6.8 1.85 L4.25 2.55 6.8 1.85" fill="#333333" fill-rule="evenodd" stroke="none"/>
    <path d="M4.6 13.15 L4.6 10.15 6.8 7.25 9.85 7.25 9.85 11.3 9.85 13.45 6.8 13.45 6.8 13.15 4.6 13.15" fill="#232323" fill-rule="evenodd" stroke="none"/>
    <path d="M9.75 22.9 L9.25 24.2 6.8 24.2 4.6 22.25 4.6 18.65 4.6 13.15 6.8 13.15 6.8 13.45 9.85 13.45 9.85 15.9 9.75 22.9" fill="#171616" fill-rule="evenodd" stroke="none"/>
    <path d="M18.45 5.9 L18.1 5.9 16.8 6.9 10.1 5.1 10.1 3.5 12.45 3.5 18.45 5.9 M18.15 14.6 L18.15 17.2 19.0 18.45 19.25 18.85 19.3 18.85 19.7 20.5 19.85 21.05 Q17.3 22.45 12.2 21.55 L12.2 14.1 14.4 14.6 18.15 14.6" fill="#2a2a2a" fill-rule="evenodd" stroke="none"/>
    <path d="M19.85 21.05 Q17.3 22.45 12.2 21.55" fill="none" stroke="#232323" stroke-linecap="round" stroke-linejoin="round" stroke-width="1.0"/>
    <path d="M26.3 8.85 L26.25 7.0 23.7 5.9 18.45 5.9 18.1 5.9 16.8 6.9 16.35 7.2 16.35 11.15 18.15 12.05 19.95 12.95 26.3 14.0 26.3 10.6 26.3 8.85 M18.15 13.85 L18.15 14.6 18.15 17.2 19.0 18.45 19.3 18.85 24.25 19.9 25.2 20.1 26.0 15.75 26.3 14.0 M24.25 19.9 L23.9 21.55 Q23.25 24.0 21.85 26.15 L20.75 24.7 19.85 21.05 19.7 20.5 19.3 18.85 19.25 18.85 19.0 18.45 M18.15 12.05 L18.15 13.85" fill="none" stroke="#0e0e0e" stroke-linecap="round" stroke-linejoin="round" stroke-width="1.0"/>
    <path d="M26.3 10.6 L20.35 9.75 20.35 8.0 26.3 8.85" fill="none" stroke="#4a0404" stroke-linecap="round" stroke-linejoin="round" stroke-width="1.0"/>
    <path d="M12.2 21.55 L12.2 22.95 9.75 22.9 9.25 24.2 6.8 24.2 4.6 22.25 4.6 18.65 2.2 18.65 2.2 3.05 4.25 2.55 6.8 1.85 9.85 1.85 9.85 3.2 10.1 3.15 10.1 3.5 10.1 5.1 10.0 9.6 12.2 10.95 12.2 14.1 12.2 21.55 M9.85 7.25 L6.8 7.25 4.6 10.15 4.6 13.15 4.6 18.65 M9.85 13.45 L9.85 11.3 9.85 7.25 9.85 3.2 M9.95 11.25 L10.0 9.6 M9.85 13.45 L9.85 15.9 9.95 11.25 M9.85 15.9 L9.75 22.9" fill="none" stroke="#070707" stroke-linecap="round" stroke-linejoin="round" stroke-width="1.0"/>
    <path d="M10.1 3.5 L12.45 3.5 18.45 5.9 M10.1 5.1 L16.8 6.9 M12.2 14.1 L14.4 14.6 18.15 14.6" fill="none" stroke="#151515" stroke-linecap="round" stroke-linejoin="round" stroke-width="1.0"/>
    <path d="M1.55 12.05 L1.55 10.25 3.15 10.25 3.15 12.05 3.15 15.5 1.55 15.5 1.55 12.05" fill="#ff0000" fill-rule="evenodd" stroke="none"/>
    <path d="M9.85 13.85 L9.85 17.65 7.3 17.65 7.3 10.6 9.85 9.55 9.85 13.85" fill="#202020" fill-rule="evenodd" stroke="none"/>
    <path d="M3.15 12.05 L3.15 10.25 1.55 10.25 1.55 12.05 1.0 12.05 1.0 8.6 5.75 8.6 5.75 12.05 3.15 12.05" fill="#5d5d5d" fill-rule="evenodd" stroke="none"/>
    <path d="M3.15 12.05 L5.75 12.05 5.75 16.7 1.0 16.7 1.0 12.05 1.55 12.05 1.55 15.5 3.15 15.5 3.15 12.05" fill="#484848" fill-rule="evenodd" stroke="none"/>
    <path d="M9.85 9.55 L9.85 13.85" fill="none" stroke="#0e0e0e" stroke-linecap="round" stroke-linejoin="round" stroke-width="1.0"/>
    <path d="M1.55 12.05 L1.55 10.25 3.15 10.25 3.15 12.05 3.15 15.5 1.55 15.5 1.55 12.05" fill="none" stroke="#171717" stroke-linecap="round" stroke-linejoin="round" stroke-width="1.0"/>
    <path d="M5.75 12.05 L5.75 8.6 1.0 8.6 1.0 12.05 1.0 16.7 5.75 16.7 5.75 12.05 M9.85 13.85 L9.85 17.65 7.3 17.65 7.3 10.6 9.85 9.55" fill="none" stroke="#070707" stroke-linecap="round" stroke-linejoin="round" stroke-width="1.0"/>
    <path d="M24.25 18.8 L24.95 18.8 24.95 22.45 24.65 22.9 24.65 23.7 23.9 24.35 Q22.7 25.05 21.3 23.7 L21.3 22.85 21.0 22.45 21.0 20.75 21.0 18.8 21.75 18.8 21.75 22.25 Q22.85 23.6 23.9 22.75 L24.25 22.35 24.25 18.8 M12.5 23.7 L12.5 22.85 12.2 22.45 12.2 18.8 12.95 18.8 12.95 22.25 Q14.25 23.85 15.45 22.35 L15.45 18.8 16.15 18.8 16.15 20.75 16.15 22.45 15.85 22.9 15.85 23.7 Q14.45 25.4 12.75 23.95 L12.5 23.7 M16.55 20.75 L16.55 18.8 17.3 18.8 17.3 22.25 Q18.6 23.85 19.8 22.35 L19.8 18.8 20.5 18.8 20.5 20.75 20.5 22.45 20.2 22.9 20.2 23.7 Q18.7 25.5 16.85 23.7 L16.85 22.85 16.55 22.45 16.55 20.75 M24.95 22.45 L24.3 23.25 23.9 23.6 23.25 23.95 22.7 23.9 21.75 23.25 21.0 22.45 21.75 23.25 22.7 23.9 23.25 23.95 23.9 23.6 24.3 23.25 24.95 22.45 M12.2 22.45 L12.75 23.05 12.95 23.25 13.9 23.9 14.45 23.95 15.5 23.25 16.15 22.45 15.5 23.25 14.45 23.95 13.9 23.9 12.95 23.25 12.75 23.05 12.2 22.45 M20.5 22.45 L19.85 23.25 18.8 23.95 18.25 23.9 17.3 23.25 16.55 22.45 17.3 23.25 18.25 23.9 18.8 23.95 19.85 23.25 20.5 22.45" fill="#3f1313" fill-rule="evenodd" stroke="none"/>
    <path d="M24.65 23.7 L24.65 26.15 21.3 26.15 21.3 25.0 20.2 25.0 20.2 26.15 16.85 26.15 16.85 25.0 15.85 25.0 15.85 26.15 12.5 26.15 12.5 23.7 12.75 23.95 Q14.45 25.4 15.85 23.7 L15.85 22.9 16.15 22.45 16.15 20.75 16.55 20.75 16.55 22.45 16.85 22.85 16.85 23.7 Q18.7 25.5 20.2 23.7 L20.2 22.9 20.5 22.45 20.5 20.75 21.0 20.75 21.0 22.45 21.3 22.85 21.3 23.7 Q22.7 25.05 23.9 24.35 L24.65 23.7 M12.95 18.8 L15.45 18.8 15.45 22.35 Q14.25 23.85 12.95 22.25 L12.95 18.8 M17.3 18.8 L19.8 18.8 19.8 22.35 Q18.6 23.85 17.3 22.25 L17.3 18.8 M21.75 18.8 L24.25 18.8 24.25 22.35 23.9 22.75 Q22.85 23.6 21.75 22.25 L21.75 18.8 M20.2 25.0 L20.2 23.7 20.2 25.0 M21.3 23.7 L21.3 25.0 21.3 23.7 M15.85 25.0 L15.85 23.7 15.85 25.0 M16.85 23.7 L16.85 25.0 16.85 23.7" fill="#272727" fill-rule="evenodd" stroke="none"/>
    <path d="M24.25 18.8 L24.95 18.8 24.95 22.45 24.65 22.9 24.65 23.7 24.65 26.15 21.3 26.15 21.3 25.0 21.3 23.7 21.3 22.85 21.0 22.45 21.0 20.75 21.0 18.8 21.75 18.8 24.25 18.8 M20.2 25.0 L20.2 26.15 16.85 26.15 16.85 25.0 16.85 23.7 16.85 22.85 16.55 22.45 16.55 20.75 16.55 18.8 17.3 18.8 19.8 18.8 20.5 18.8 20.5 20.75 20.5 22.45 20.2 22.9 20.2 23.7 20.2 25.0 M15.85 25.0 L15.85 26.15 12.5 26.15 12.5 23.7 12.5 22.85 12.2 22.45 12.2 18.8 12.95 18.8 15.45 18.8 16.15 18.8 16.15 20.75 16.15 22.45 15.5 23.25 14.45 23.95 13.9 23.9 12.95 23.25 12.75 23.05 12.2 22.45 M21.0 22.45 L21.75 23.25 22.7 23.9 23.25 23.95 23.9 23.6 24.3 23.25 24.95 22.45 M15.85 23.7 L15.85 22.9 16.15 22.45 M16.55 22.45 L17.3 23.25 18.25 23.9 18.8 23.95 19.85 23.25 20.5 22.45 M15.85 23.7 L15.85 25.0" ffdec:has-small-stroke="true" ffdec:original-stroke-width="0.8" fill="none" stroke="#101010" stroke-linecap="round" stroke-linejoin="round" stroke-width="1.0"/>
    <path d="M21.3 25.0 L20.2 25.0 M16.85 25.0 L15.85 25.0 M16.15 20.75 L16.55 20.75 M20.5 20.75 L21.0 20.75" ffdec:has-small-stroke="true" ffdec:original-stroke-width="0.8" fill="none" stroke="#0e0e0e" stroke-linecap="round" stroke-linejoin="round" stroke-width="1.0"/>
    <path d="M27.3 10.4 L27.3 13.55 25.0 13.55 25.0 10.4 27.3 10.4" fill="#e20000" fill-rule="evenodd" stroke="none"/>
    <path d="M27.9 9.05 L22.1 9.0 22.1 7.0 27.9 7.0 27.9 9.05" fill="#5d5d5d" fill-rule="evenodd" stroke="none"/>
    <path d="M22.1 9.0 L27.9 9.05 27.9 16.55 22.1 16.55 22.1 9.0 22.1 16.55 21.1 16.55 20.35 15.9 19.6 15.2 19.6 10.8 22.1 9.0 M27.3 10.4 L25.0 10.4 25.0 13.55 27.3 13.55 27.3 10.4" fill="#484848" fill-rule="evenodd" stroke="none"/>
    <path d="M22.1 7.0 L22.1 9.0 19.6 10.8 19.6 8.5 21.1 7.0 22.1 7.0" fill="#4f4f4f" fill-rule="evenodd" stroke="none"/>
    <path d="M20.35 15.9 L19.15 16.9 12.2 16.9 10.6 14.05 8.9 14.05" fill="none" stroke="#bb0000" stroke-linecap="round" stroke-linejoin="round" stroke-opacity="0.8" stroke-width="1.0"/>
    <path d="M27.3 10.4 L27.3 13.55 25.0 13.55 25.0 10.4 27.3 10.4" fill="none" stroke="#171717" stroke-linecap="round" stroke-linejoin="round" stroke-width="1.0"/>
    <path d="M22.1 7.0 L22.1 9.0 22.1 16.55" fill="none" stroke="#313131" stroke-linecap="round" stroke-linejoin="round" stroke-width="1.0"/>
    <path d="M27.9 9.05 L27.9 7.0 22.1 7.0 21.1 7.0 19.6 8.5 19.6 10.8 19.6 15.2 20.35 15.9 21.1 16.55 22.1 16.55 27.9 16.55 27.9 9.05 Z" fill="none" stroke="#121212" stroke-linecap="round" stroke-linejoin="round" stroke-width="1.0"/>
  </g>
</svg>
