<?xml version="1.0" encoding="UTF-8" standalone="no"?>
<svg xmlns:xlink="http://www.w3.org/1999/xlink" height="26.4px" width="30.35px" xmlns="http://www.w3.org/2000/svg">
  <g transform="matrix(1.0, 0.0, 0.0, 1.0, -28.85, 15.2)">
    <path d="M29.55 -14.85 L29.6 -14.85 29.7 -15.2 Q30.2 -15.2 31.55 -11.2 L34.3 -1.85 Q35.7 3.6 36.3 7.25 36.95 11.2 36.45 11.2 L36.3 11.2 Q36.2 10.9 36.25 11.2 L29.55 -14.85" fill="url(#gradient0)" fill-rule="evenodd" stroke="none"/>
    <path d="M36.25 11.2 Q35.7 10.55 34.6 7.25 33.2 3.6 31.8 -1.85 30.4 -7.25 29.85 -11.2 29.25 -14.55 29.55 -14.85 L36.25 11.2" fill="url(#gradient1)" fill-rule="evenodd" stroke="none"/>
    <path d="M36.25 -14.85 L36.3 -14.85 36.6 -15.2 Q37.15 -15.2 36.45 -11.2 35.75 -7.25 34.25 -1.85 32.7 3.6 31.25 7.25 29.7 11.2 29.15 11.2 L28.95 11.2 Q29.05 10.9 28.9 11.2 L36.25 -14.85" fill="url(#gradient2)" fill-rule="evenodd" stroke="none"/>
    <path d="M28.9 11.2 Q28.65 10.55 29.3 7.25 29.75 3.6 31.3 -1.85 32.8 -7.25 34.5 -11.2 35.7 -14.55 36.25 -14.85 L28.9 11.2" fill="url(#gradient3)" fill-rule="evenodd" stroke="none"/>
    <path d="M33.8 -5.8 L34.1 -5.8 37.25 -5.95 Q46.35 -5.95 52.65 -4.55 59.2 -3.2 59.2 -1.35 59.2 0.55 52.65 1.8 46.35 3.15 37.25 3.15 L34.1 3.15 33.8 3.15 33.8 -5.8" fill="url(#gradient4)" fill-rule="evenodd" stroke="none"/>
    <path d="M33.8 3.15 Q32.4 2.9 31.55 1.8 30.1 0.55 30.1 -1.35 30.1 -3.2 31.55 -4.55 32.4 -5.7 33.8 -5.8 L33.8 3.15" fill="url(#gradient5)" fill-rule="evenodd" stroke="none"/>
    <path d="M32.3 -11.4 L32.35 -11.4 32.9 -11.65 Q34.5 -11.65 35.6 -8.6 36.75 -5.55 36.75 -1.4 36.75 2.8 35.6 5.6 34.5 8.65 32.9 8.65 L32.35 8.65 Q32.35 8.4 32.3 8.65 L32.3 -11.4" fill="url(#gradient6)" fill-rule="evenodd" stroke="none"/>
    <path d="M32.3 8.65 Q31.45 8.15 30.95 5.6 30.05 2.8 30.05 -1.4 30.05 -5.55 30.95 -8.6 31.45 -11.15 32.3 -11.4 L32.3 8.65" fill="url(#gradient7)" fill-rule="evenodd" stroke="none"/>
  </g>
  <defs>
    <radialGradient cx="0" cy="0" gradientTransform="matrix(0.0037, 0.0143, -0.0015, 0.0, 33.1, -1.85)" gradientUnits="userSpaceOnUse" id="gradient0" r="819.2" spreadMethod="pad">
      <stop offset="0.17647058823529413" stop-color="#ffffff"/>
      <stop offset="0.5529411764705883" stop-color="#ffffff" stop-opacity="0.77254903"/>
      <stop offset="1.0" stop-color="#ffcccc" stop-opacity="0.0"/>
    </radialGradient>
    <radialGradient cx="0" cy="0" gradientTransform="matrix(0.0037, 0.0143, -0.0016, 0.0, 33.1, -1.85)" gradientUnits="userSpaceOnUse" id="gradient1" r="819.2" spreadMethod="pad">
      <stop offset="0.17647058823529413" stop-color="#ffffff"/>
      <stop offset="0.5529411764705883" stop-color="#ffffff" stop-opacity="0.77254903"/>
      <stop offset="1.0" stop-color="#ffcccc" stop-opacity="0.0"/>
    </radialGradient>
    <radialGradient cx="0" cy="0" gradientTransform="matrix(-0.004, 0.0143, -0.0017, 0.0, 32.85, -1.85)" gradientUnits="userSpaceOnUse" id="gradient2" r="819.2" spreadMethod="pad">
      <stop offset="0.17647058823529413" stop-color="#ffffff"/>
      <stop offset="0.5529411764705883" stop-color="#ffffff" stop-opacity="0.77254903"/>
      <stop offset="1.0" stop-color="#ffcccc" stop-opacity="0.0"/>
    </radialGradient>
    <radialGradient cx="0" cy="0" gradientTransform="matrix(-0.004, 0.0143, -0.0018, 0.0, 32.8, -1.85)" gradientUnits="userSpaceOnUse" id="gradient3" r="819.2" spreadMethod="pad">
      <stop offset="0.17647058823529413" stop-color="#ffffff"/>
      <stop offset="0.5529411764705883" stop-color="#ffffff" stop-opacity="0.77254903"/>
      <stop offset="1.0" stop-color="#ffcccc" stop-opacity="0.0"/>
    </radialGradient>
    <radialGradient cx="0" cy="0" gradientTransform="matrix(0.0, 0.0049, -0.0269, 0.0, 37.25, -1.35)" gradientUnits="userSpaceOnUse" id="gradient4" r="819.2" spreadMethod="pad">
      <stop offset="0.17647058823529413" stop-color="#ffffff"/>
      <stop offset="0.5529411764705883" stop-color="#ffffff" stop-opacity="0.77254903"/>
      <stop offset="1.0" stop-color="#ffcccc" stop-opacity="0.0"/>
    </radialGradient>
    <radialGradient cx="0" cy="0" gradientTransform="matrix(0.0, 0.0049, -0.0052, 0.0, 34.4, -1.35)" gradientUnits="userSpaceOnUse" id="gradient5" r="819.2" spreadMethod="pad">
      <stop offset="0.17647058823529413" stop-color="#ffffff"/>
      <stop offset="0.5529411764705883" stop-color="#ffffff" stop-opacity="0.77254903"/>
      <stop offset="1.0" stop-color="#ffcccc" stop-opacity="0.0"/>
    </radialGradient>
    <radialGradient cx="0" cy="0" gradientTransform="matrix(0.0, 0.011, -0.0047, 0.0, 32.9, -1.4)" gradientUnits="userSpaceOnUse" id="gradient6" r="819.2" spreadMethod="pad">
      <stop offset="0.17647058823529413" stop-color="#ffffff"/>
      <stop offset="0.5529411764705883" stop-color="#ffffff" stop-opacity="0.77254903"/>
      <stop offset="1.0" stop-color="#ffcccc" stop-opacity="0.0"/>
    </radialGradient>
    <radialGradient cx="0" cy="0" gradientTransform="matrix(0.0, 0.011, -0.0032, 0.0, 32.65, -1.4)" gradientUnits="userSpaceOnUse" id="gradient7" r="819.2" spreadMethod="pad">
      <stop offset="0.17647058823529413" stop-color="#ffffff"/>
      <stop offset="0.5529411764705883" stop-color="#ffffff" stop-opacity="0.77254903"/>
      <stop offset="1.0" stop-color="#ffcccc" stop-opacity="0.0"/>
    </radialGradient>
  </defs>
</svg>
