<?xml version="1.0" encoding="UTF-8" standalone="no"?>
<svg xmlns:ffdec="https://www.free-decompiler.com/flash" xmlns:xlink="http://www.w3.org/1999/xlink" ffdec:objectType="shape" height="21.25px" width="21.9px" xmlns="http://www.w3.org/2000/svg">
  <g transform="matrix(1.0, 0.0, 0.0, 1.0, 7.35, 17.0)">
    <path d="M4.05 -15.0 L4.0 -15.05 4.05 -15.05 4.05 -15.0 M-1.7 -14.65 L-0.4 -15.25 0.9 -15.25 -1.35 -14.8 -1.6 -14.65 -1.7 -14.65 M1.7 -3.15 L3.45 -2.75 1.65 -3.15 1.7 -3.15 M5.65 -2.25 L4.9 -4.85 4.5 -5.3 5.05 -4.75 5.5 -3.7 5.5 -3.15 5.65 -3.05 5.65 -2.25 M5.55 -7.7 L6.2 -8.15 5.9 -7.85 5.55 -7.7 M6.3 -8.2 L6.3 -9.4 6.65 -8.75 6.3 -8.2 M4.15 -13.05 L4.1 -13.1 3.4 -14.75 3.65 -15.1 3.95 -14.55 3.6 -14.5 4.15 -13.05" fill="url(#gradient0)" fill-rule="evenodd" stroke="none"/>
    <path d="M4.0 -15.05 L4.05 -15.0 4.05 -15.05 4.0 -15.05 M3.65 -15.15 L4.5 -16.5 9.9 -16.5 Q11.9 -15.25 13.55 -13.05 L13.55 -11.25 12.95 -10.45 12.75 -10.75 12.85 -10.4 12.85 -10.35 6.1 -10.55 5.4 -11.9 Q5.25 -12.2 5.4 -10.55 L4.15 -13.05 3.6 -14.5 3.95 -14.55 3.65 -15.1 3.65 -15.15 M13.45 -1.85 L13.8 -1.75 Q14.5 -0.6 13.35 2.45 12.2 3.7 9.1 3.75 L8.95 3.75 6.4 2.95 6.5 2.1 6.7 1.55 7.55 -0.4 7.7 -0.75 7.7 -0.85 8.25 -1.05 10.1 -1.8 10.85 -2.05 11.7 -2.05 12.85 -1.85 12.85 -2.0 12.85 -2.05 13.35 -1.9 13.45 -1.85 M-6.1 -2.75 L-6.15 -2.8 -6.7 -3.5 -6.65 -4.95 -6.55 -6.3 -6.55 -6.35 -6.1 -9.5 -5.65 -10.95 -4.45 -11.4 -4.35 -11.2 -4.3 -11.15 -4.3 -11.1 -4.35 -11.05 -3.3 -8.7 Q-2.05 -7.05 -0.4 -6.45 L-0.3 -3.65 -2.05 -2.35 -2.7 -1.85 -2.85 -2.15 -3.7 -1.5 -5.95 -2.7 -6.15 -2.8 -5.95 -2.7 -6.1 -2.75 M8.25 -1.05 L7.7 -0.75 8.25 -1.05 M11.7 -2.05 L10.1 -1.8 11.7 -2.05 M13.35 -1.9 L12.85 -2.0 13.35 -1.9 M-4.35 -11.05 L-5.7 -10.65 -6.0 -9.7 -6.1 -9.5 -6.0 -9.7 -5.7 -10.65 -4.35 -11.05 M-2.85 -2.15 L-3.65 -4.2 -6.55 -6.35 -3.65 -4.2 -2.85 -2.15" fill="#4d4946" fill-rule="evenodd" stroke="none"/>
    <path d="M6.4 2.95 L6.05 2.9 6.5 1.8 6.05 2.9 -2.9 1.1 -2.85 -0.15 6.5 1.8 6.5 2.1 6.4 2.95 M-1.6 -14.65 L-0.65 -14.6 -1.15 -7.0 -2.15 -7.75 -1.7 -14.6 -1.7 -14.65 -1.6 -14.65 -1.7 -14.6 -1.6 -14.65" fill="#666666" fill-rule="evenodd" stroke="none"/>
    <path d="M4.05 -15.0 L4.0 -15.05 4.05 -15.0 M4.65 -6.5 L4.55 -6.5 4.9 -6.95 5.55 -7.7 5.9 -7.85 6.2 -8.15 6.3 -8.2 6.65 -8.75 6.3 -9.4 6.2 -10.35 6.1 -10.55 12.85 -10.35 12.55 -9.75 11.75 -8.75 8.1 -6.55 4.65 -6.5 4.9 -6.95 4.65 -6.5 M3.65 -15.1 L3.6 -15.15 3.65 -15.15 3.65 -15.1 M12.85 -10.4 L12.75 -10.75 12.95 -10.45 12.85 -10.35 12.85 -10.4" fill="url(#gradient1)" fill-rule="evenodd" stroke="none"/>
    <path d="M4.4 -5.55 L4.35 -5.55 4.3 -5.6 4.65 -6.5 8.1 -6.55 11.75 -8.75 Q12.0 -8.4 13.15 -9.0 L12.85 -2.05 12.85 -2.0 12.85 -1.85 11.7 -2.05 10.85 -2.05 9.85 -1.8 8.65 -3.9 5.45 -4.05 5.1 -4.8 4.4 -5.55 M12.85 -2.0 L11.7 -2.05 12.85 -2.0" fill="url(#gradient2)" fill-rule="evenodd" stroke="none"/>
    <path d="M5.45 -4.05 L8.65 -3.9 9.85 -1.8 9.25 -1.55 Q8.1 -1.1 7.35 -1.1 L6.1 -2.1 5.9 -2.15 5.9 -2.5 5.7 -3.0 5.65 -3.05 5.5 -3.15 5.5 -3.7 5.45 -4.05" fill="url(#gradient3)" fill-rule="evenodd" stroke="none"/>
    <path d="M6.1 -2.1 L7.35 -1.1 7.5 -0.75 6.1 -2.1 M7.5 -0.6 L7.55 -0.4 6.7 1.55 6.5 1.8 7.5 -0.6 M-2.05 -2.35 L-2.7 -1.85 -3.4 -1.3 -3.45 -1.35 -2.7 -1.85 -2.05 -2.35" fill="url(#gradient4)" fill-rule="evenodd" stroke="none"/>
    <path d="M1.45 -3.2 L1.7 -3.15 1.65 -3.15 1.45 -3.2" fill="#594e43" fill-rule="evenodd" stroke="none"/>
    <path d="M0.9 -15.25 L2.7 -15.25 3.65 -15.15 3.6 -15.15 3.65 -15.1 3.4 -14.75 4.1 -13.1 4.15 -13.05 5.4 -10.55 Q5.25 -12.2 5.4 -11.9 L6.1 -10.55 6.2 -10.35 6.3 -9.4 6.3 -8.2 6.2 -8.15 5.55 -7.7 4.9 -6.95 4.55 -6.5 4.65 -6.5 4.3 -5.6 4.35 -5.55 4.4 -5.55 4.5 -5.3 4.9 -4.85 5.65 -2.25 3.45 -2.75 5.65 -2.25 5.85 -2.2 5.9 -2.2 5.9 -2.15 6.1 -2.1 7.5 -0.75 7.5 -0.6 6.5 1.8 -2.85 -0.15 -3.4 -1.3 -2.7 -1.85 -2.05 -2.35 -0.3 -3.65 -0.4 -6.45 Q-2.05 -7.05 -3.3 -8.7 L-4.35 -11.05 -4.3 -11.1 -3.15 -8.85 -2.15 -7.75 -1.15 -7.0 -0.65 -14.6 -1.6 -14.65 -1.35 -14.8 0.9 -15.25 M1.45 -3.2 L1.4 -3.25 -0.3 -3.65 1.4 -3.25 1.45 -3.2 1.65 -3.15 3.45 -2.75 1.7 -3.15 1.45 -3.2 M5.4 -10.55 L6.1 -10.55 5.4 -10.55" fill="url(#gradient5)" fill-rule="evenodd" stroke="none"/>
    <path d="M-3.7 -12.25 L-3.3 -12.95 -1.7 -14.65 -1.7 -14.6 -2.15 -7.75 -3.15 -8.85 -4.3 -11.1 -4.3 -11.15 -3.7 -12.25 -3.25 -12.95 -1.7 -14.6 -3.25 -12.95 -3.7 -12.25" fill="url(#gradient6)" fill-rule="evenodd" stroke="none"/>
    <path d="M11.75 -8.75 L12.95 -9.5 M4.65 -6.5 L8.1 -6.55 11.75 -8.75 M5.45 -4.05 L8.65 -3.9 9.85 -1.8" fill="none" stroke="#4a4a4a" stroke-linecap="round" stroke-linejoin="round" stroke-width="1.0"/>
    <path d="M12.95 -10.45 Q13.75 -8.9 13.55 -8.1 L13.45 -1.85" fill="none" stroke="#333333" stroke-linecap="round" stroke-linejoin="round" stroke-width="1.0"/>
    <path d="M0.9 -15.25 L2.7 -15.25 3.65 -15.15 4.5 -16.5 9.9 -16.5 Q11.9 -15.25 13.55 -13.05 L13.55 -11.25 12.95 -10.45 12.85 -10.35 6.1 -10.55 5.4 -10.55 4.15 -13.05 4.1 -13.1 3.4 -14.75 3.65 -15.1 3.65 -15.15 M13.45 -1.85 L13.8 -1.75 Q14.5 -0.6 13.35 2.45 12.2 3.7 9.1 3.75 L8.95 3.75 6.4 2.95 M6.05 2.9 L6.0 3.0 -3.0 1.2 -3.75 -1.1 -3.9 -1.25 -4.95 -1.95 -6.1 -2.75 M-6.15 -2.8 L-6.8 -3.25 -6.8 -5.6 Q-6.65 -7.7 -6.1 -9.5 L-6.0 -9.7 -5.7 -10.65 -4.35 -11.05 -3.3 -8.7 Q-2.05 -7.05 -0.4 -6.45 L-0.3 -3.65 1.4 -3.25 1.45 -3.2 1.7 -3.15 3.45 -2.75 5.65 -2.25 4.9 -4.85 4.5 -5.3 4.4 -5.55 M-4.35 -11.2 L-3.7 -12.25 -3.25 -12.95 -1.7 -14.6 -1.6 -14.65 -1.35 -14.8 0.9 -15.25 M-4.3 -11.1 L-4.35 -11.05 M4.3 -5.6 L4.65 -6.5 4.9 -6.95 5.55 -7.7 6.2 -8.15 6.3 -8.2 6.3 -9.4 6.2 -10.35 M12.85 -2.05 L13.35 -1.9 13.45 -1.85 M1.65 -3.15 L3.45 -2.75 M11.7 -2.05 L12.85 -2.0 13.35 -1.9 M5.9 -2.2 L5.85 -2.2 5.65 -2.25 M7.5 -0.75 L7.55 -0.7 7.7 -0.75 7.7 -0.85 8.25 -1.05 10.1 -1.8 10.85 -2.05 M7.5 -0.75 L6.1 -2.1 M7.5 -0.6 L6.5 1.8 6.05 2.9 M6.7 1.55 L7.55 -0.4 7.7 -0.75 8.25 -1.05 M10.1 -1.8 L11.7 -2.05 M6.5 2.1 L6.7 1.55 M-5.95 -2.7 L-6.15 -2.8 M-0.3 -3.65 L-2.05 -2.35 -2.7 -1.85 -3.4 -1.3 -3.7 -1.1 -3.9 -1.25 M-2.85 -2.15 L-2.7 -1.85 M-5.95 -2.7 L-4.95 -1.95 M-6.55 -6.35 L-3.65 -4.2 -2.85 -2.15" fill="none" stroke="#272524" stroke-linecap="round" stroke-linejoin="round" stroke-width="1.0"/>
  </g>
  <defs>
    <radialGradient cx="0" cy="0" gradientTransform="matrix(0.0124, -2.0E-4, 2.0E-4, 0.0124, -0.4, -9.95)" gradientUnits="userSpaceOnUse" id="gradient0" r="819.2" spreadMethod="pad">
      <stop offset="0.0" stop-color="#47423c"/>
      <stop offset="1.0" stop-color="#635547"/>
    </radialGradient>
    <linearGradient gradientTransform="matrix(-0.0092, 0.0011, -6.0E-4, -0.005, 5.3, -9.65)" gradientUnits="userSpaceOnUse" id="gradient1" spreadMethod="pad" x1="-819.2" x2="819.2">
      <stop offset="0.0" stop-color="#666666"/>
      <stop offset="0.984313725490196" stop-color="#3c3c3c"/>
      <stop offset="1.0" stop-color="#333333"/>
    </linearGradient>
    <linearGradient gradientTransform="matrix(-0.0057, -0.001, 8.0E-4, -0.0045, 5.35, -5.1)" gradientUnits="userSpaceOnUse" id="gradient2" spreadMethod="pad" x1="-819.2" x2="819.2">
      <stop offset="0.0" stop-color="#666666"/>
      <stop offset="0.984313725490196" stop-color="#3c3c3c"/>
      <stop offset="1.0" stop-color="#333333"/>
    </linearGradient>
    <linearGradient gradientTransform="matrix(-0.0087, 1.0E-4, 0.0, -0.0018, 5.6, -2.4)" gradientUnits="userSpaceOnUse" id="gradient3" spreadMethod="pad" x1="-819.2" x2="819.2">
      <stop offset="0.0" stop-color="#666666"/>
      <stop offset="0.984313725490196" stop-color="#3c3c3c"/>
      <stop offset="1.0" stop-color="#333333"/>
    </linearGradient>
    <radialGradient cx="0" cy="0" gradientTransform="matrix(0.0079, -1.0E-4, 1.0E-4, 0.0079, 1.2, -1.35)" gradientUnits="userSpaceOnUse" id="gradient4" r="819.2" spreadMethod="pad">
      <stop offset="0.0" stop-color="#47423c"/>
      <stop offset="1.0" stop-color="#635547"/>
    </radialGradient>
    <radialGradient cx="0" cy="0" gradientTransform="matrix(0.0216, 0.0, 0.0, 0.0216, 5.6, -6.8)" gradientUnits="userSpaceOnUse" id="gradient5" r="819.2" spreadMethod="pad">
      <stop offset="0.0" stop-color="#47423c"/>
      <stop offset="1.0" stop-color="#635547"/>
    </radialGradient>
    <radialGradient cx="0" cy="0" gradientTransform="matrix(0.005, -1.0E-4, 1.0E-4, 0.005, -0.9, -10.8)" gradientUnits="userSpaceOnUse" id="gradient6" r="819.2" spreadMethod="pad">
      <stop offset="0.0" stop-color="#47423c"/>
      <stop offset="1.0" stop-color="#635547"/>
    </radialGradient>
  </defs>
</svg>
