<?xml version="1.0" encoding="UTF-8" standalone="no"?>
<svg xmlns:ffdec="https://www.free-decompiler.com/flash" xmlns:xlink="http://www.w3.org/1999/xlink" ffdec:objectType="shape" height="22.75px" width="21.15px" xmlns="http://www.w3.org/2000/svg">
  <g transform="matrix(1.0, 0.0, 0.0, 1.0, 7.05, 18.35)">
    <path d="M11.0 -11.05 L11.55 -7.65 Q11.65 -5.7 11.25 -3.2 L6.0 -6.4 4.35 -11.6 11.0 -11.05" fill="url(#gradient0)" fill-rule="evenodd" stroke="none"/>
    <path d="M11.0 -11.05 L11.55 -7.65 Q11.65 -5.7 11.25 -3.2 L6.0 -6.4 4.35 -11.6 11.0 -11.05 Z" fill="none" stroke="#794896" stroke-linecap="round" stroke-linejoin="round" stroke-width="1.0"/>
    <path d="M4.55 -15.5 L7.5 -13.9 9.4 -11.15 5.6 -10.1 6.0 -6.4 12.45 -2.45 12.5 0.1 9.6 3.35 2.5 -3.55 -2.0 -1.95 -5.9 -4.05 -6.2 -4.5 Q-6.65 -5.35 -6.5 -7.4 -6.25 -10.9 -4.45 -12.55 -3.4 -13.5 0.1 -14.9 1.5 -15.5 4.55 -15.5" fill="#2c1b38" fill-rule="evenodd" stroke="none"/>
    <path d="M4.55 -15.5 Q1.5 -15.5 0.1 -14.9 -3.4 -13.5 -4.45 -12.55 -6.25 -10.9 -6.5 -7.4 -6.65 -5.35 -6.2 -4.5 L-5.9 -4.05 -2.0 -1.95 2.5 -3.55 9.6 3.35 12.5 0.1 12.45 -2.45 6.0 -6.4 5.6 -10.1 9.4 -11.15 7.5 -13.9 4.55 -15.5 Z" fill="none" stroke="#120c17" stroke-linecap="round" stroke-linejoin="round" stroke-width="1.0"/>
    <path d="M3.5 -10.6 L-3.3 -13.85 -1.9 -14.9 0.6 -16.45 Q3.05 -17.55 7.55 -16.6 9.2 -16.25 11.55 -14.85 L12.6 -11.0 9.4 -11.15 3.5 -10.6" fill="#1c1224" fill-rule="evenodd" stroke="none"/>
    <path d="M3.5 -10.6 L9.4 -11.15 12.6 -11.0 11.55 -14.85 Q9.2 -16.25 7.55 -16.6 3.05 -17.55 0.6 -16.45 L-1.9 -14.9 -3.3 -13.85 3.5 -10.6 Z" fill="none" stroke="#08060a" stroke-linecap="round" stroke-linejoin="round" stroke-width="1.0"/>
    <path d="M-4.95 -3.55 L-2.0 -1.95 2.5 -3.55 3.9 -1.75 Q5.1 0.2 4.25 1.05 3.5 1.8 1.55 1.45 -0.1 1.2 -1.3 0.5 -2.45 -0.2 -3.8 -1.95 L-4.95 -3.55" fill="#1c1224" fill-rule="evenodd" stroke="none"/>
    <path d="M-4.95 -3.55 L-3.8 -1.95 Q-2.45 -0.2 -1.3 0.5 -0.1 1.2 1.55 1.45 3.5 1.8 4.25 1.05 5.1 0.2 3.9 -1.75 L2.5 -3.55 -2.0 -1.95 -4.95 -3.55 Z" fill="none" stroke="#08060a" stroke-linecap="round" stroke-linejoin="round" stroke-width="1.0"/>
    <path d="M3.35 2.15 L1.35 -3.15 3.15 -5.2 10.85 -1.35 11.9 0.8 10.4 3.9 3.35 2.15" fill="#2c1b38" fill-rule="evenodd" stroke="none"/>
    <path d="M3.35 2.15 L10.4 3.9 11.9 0.8 10.85 -1.35 3.15 -5.2 1.35 -3.15 3.35 2.15 Z" fill="none" stroke="#120c17" stroke-linecap="round" stroke-linejoin="round" stroke-width="1.0"/>
    <path d="M1.6 -14.75 L11.4 -17.85 Q13.2 -15.5 13.5 -13.55 13.9 -11.15 12.8 -6.3 L2.15 -9.1 1.6 -14.75" fill="url(#gradient1)" fill-rule="evenodd" stroke="none"/>
    <path d="M1.6 -14.75 L2.15 -9.1 12.8 -6.3 Q13.9 -11.15 13.5 -13.55 13.2 -15.5 11.4 -17.85 L1.6 -14.75 Z" fill="none" stroke="#120c17" stroke-linecap="round" stroke-linejoin="round" stroke-width="1.0"/>
    <path d="M4.55 -15.5 L6.35 -12.55 13.5 -10.6" fill="none" stroke="#1f1329" stroke-linecap="round" stroke-linejoin="round" stroke-width="1.0"/>
    <path d="M-5.5 -11.3 L-1.05 -8.35 -0.65 -2.45" fill="none" stroke="#1f1329" stroke-linecap="round" stroke-linejoin="round" stroke-width="1.0"/>
    <path d="M1.75 -11.45 L-3.3 -13.85" fill="none" stroke="#120c17" stroke-linecap="round" stroke-linejoin="round" stroke-width="1.0"/>
  </g>
  <defs>
    <radialGradient cx="0" cy="0" gradientTransform="matrix(0.005, 0.0, 0.0, 0.0057, 7.35, -6.8)" gradientUnits="userSpaceOnUse" id="gradient0" r="819.2" spreadMethod="pad">
      <stop offset="0.0" stop-color="#d9c4e2"/>
      <stop offset="1.0" stop-color="#b897cd"/>
    </radialGradient>
    <radialGradient cx="0" cy="0" gradientTransform="matrix(0.0079, 0.0, 0.0, 0.0076, 10.85, -13.95)" gradientUnits="userSpaceOnUse" id="gradient1" r="819.2" spreadMethod="pad">
      <stop offset="0.0" stop-color="#3e244e"/>
      <stop offset="1.0" stop-color="#2c1b38"/>
    </radialGradient>
  </defs>
</svg>
