<?xml version="1.0" encoding="UTF-8" standalone="no"?>
<svg xmlns:ffdec="https://www.free-decompiler.com/flash" xmlns:xlink="http://www.w3.org/1999/xlink" ffdec:objectType="shape" height="31.05px" width="30.05px" xmlns="http://www.w3.org/2000/svg">
  <g transform="matrix(1.0, 0.0, 0.0, 1.0, 1.25, 1.05)">
    <path d="M9.7 13.1 L8.95 14.4 9.3 13.05 9.55 12.6 9.6 12.65 9.7 13.1" fill="#9da0b4" fill-rule="evenodd" stroke="none"/>
    <path d="M11.15 7.2 L11.75 6.75 Q12.85 5.9 14.3 5.9 16.3 5.9 17.7 7.5 L18.3 8.3 Q19.15 9.65 19.15 11.35 L19.0 12.85 Q18.65 14.05 17.85 15.05 L17.7 15.2 Q16.3 16.8 14.3 16.8 12.3 16.8 10.85 15.2 10.05 14.25 9.7 13.1 L9.6 12.65 Q9.45 12.0 9.45 11.35 9.45 9.1 10.85 7.5 L11.15 7.2 M22.4 21.15 Q21.05 22.55 20.45 24.0 19.95 25.1 19.75 26.4 L19.55 28.7 16.65 29.4 Q14.15 29.8 11.35 28.55 L10.2 26.4 14.35 26.4 Q14.75 25.35 15.3 24.45 L16.5 23.1 Q17.1 22.65 17.8 22.4 L19.3 22.1 Q21.7 20.6 22.4 21.15" fill="#232121" fill-rule="evenodd" stroke="none"/>
    <path d="M-0.2 3.25 L-0.75 -0.55 Q7.35 -0.35 14.55 1.35 15.75 1.7 17.85 2.8 19.9 3.9 22.15 5.4 24.6 8.55 26.95 7.8 28.25 10.25 28.3 12.0 28.35 13.75 27.75 15.05 L25.1 15.2 21.85 15.35 Q20.1 14.15 19.0 12.85 L19.15 11.35 Q19.15 9.65 18.3 8.3 L23.75 12.6 25.1 15.2 23.75 12.6 18.3 8.3 17.7 7.5 Q16.3 5.9 14.3 5.9 12.85 5.9 11.75 6.75 L11.15 7.2 Q6.7 3.6 -0.2 3.25 M11.7 6.4 L11.75 6.75 11.7 6.4 M3.2 17.55 Q3.1 15.1 1.0 11.8 1.9 11.35 5.5 12.95 L4.95 11.5 9.3 13.05 8.95 14.4 10.95 18.2 Q7.85 19.1 3.2 17.55" fill="#373943" fill-rule="evenodd" stroke="none"/>
    <path d="M-0.2 3.25 Q6.7 3.6 11.15 7.2 L10.85 7.5 Q9.45 9.1 9.45 11.35 9.45 12.0 9.6 12.65 L9.55 12.6 9.3 13.05 4.95 11.5 4.75 11.05 Q3.55 8.8 -0.15 5.8 L-0.2 3.25 M25.1 15.2 L27.75 15.05 26.6 17.6 25.0 20.2 23.6 22.1 22.4 21.15 Q21.7 20.6 19.3 22.1 L17.8 22.4 Q17.1 22.65 16.5 23.1 L15.3 24.45 Q14.75 25.35 14.35 26.4 L10.2 26.4 8.65 26.6 Q7.25 24.95 7.3 22.4 6.45 20.7 3.2 17.55 7.85 19.1 10.95 18.2 L8.95 14.4 9.7 13.1 Q10.05 14.25 10.85 15.2 12.3 16.8 14.3 16.8 16.3 16.8 17.7 15.2 L17.85 15.05 Q18.65 14.05 19.0 12.85 20.1 14.15 21.85 15.35 L25.1 15.2 M17.7 19.05 L13.2 22.45 17.7 19.05 M23.05 17.5 L20.2 14.8 23.05 17.5 M14.95 18.95 L9.4 23.25 14.95 18.95" fill="#23252e" fill-rule="evenodd" stroke="none"/>
    <path d="M11.75 6.75 L11.7 6.4 M9.3 13.05 L9.55 12.6 M8.95 14.4 L9.3 13.05" fill="none" stroke="#292a33" stroke-linecap="round" stroke-linejoin="round" stroke-width="1.0"/>
    <path d="M22.4 21.15 Q21.05 22.55 20.45 24.0 19.95 25.1 19.75 26.4 L19.55 28.7 16.65 29.4 Q14.15 29.8 11.35 28.55 L10.2 26.4" fill="none" stroke="#17181c" stroke-linecap="round" stroke-linejoin="round" stroke-width="1.0"/>
    <path d="M27.75 15.05 Q28.35 13.75 28.3 12.0 28.25 10.25 26.95 7.8 24.6 8.55 22.15 5.4 19.9 3.9 17.85 2.8 15.75 1.7 14.55 1.35 7.35 -0.35 -0.75 -0.55 L-0.2 3.25 -0.15 5.8 Q3.55 8.8 4.75 11.05 L4.95 11.5 5.5 12.95 Q1.9 11.35 1.0 11.8 3.1 15.1 3.2 17.55 6.45 20.7 7.3 22.4 7.25 24.95 8.65 26.6 L10.2 26.4 14.35 26.4 Q14.75 25.35 15.3 24.45 L16.5 23.1 Q17.1 22.65 17.8 22.4 L19.3 22.1 Q21.7 20.6 22.4 21.15 L23.6 22.1 25.0 20.2 26.6 17.6 27.75 15.05 M11.15 7.2 L11.75 6.75 M17.85 15.05 L17.7 15.2 Q16.3 16.8 14.3 16.8 12.3 16.8 10.85 15.2 10.05 14.25 9.7 13.1 L9.6 12.65 Q9.45 12.0 9.45 11.35 9.45 9.1 10.85 7.5 L11.15 7.2" fill="none" stroke="#12121c" stroke-linecap="round" stroke-linejoin="round" stroke-width="1.0"/>
    <path d="M25.1 15.2 L23.75 12.6 18.3 8.3 M13.2 22.45 L17.7 19.05 M9.4 23.25 L14.95 18.95 M20.2 14.8 L23.05 17.5" fill="none" stroke="#1b1b20" stroke-linecap="round" stroke-linejoin="round" stroke-width="1.0"/>
    <path d="M9.15 10.15 Q8.95 11.2 9.1 12.75 10.35 15.75 12.95 16.45 15.55 17.15 18.65 14.3 17.4 17.8 15.05 18.35 12.65 18.8 10.25 17.9 6.9 16.9 5.65 13.7 L5.35 12.65 5.15 11.1 4.85 8.75 Q6.55 10.5 9.15 10.15" fill="#23252e" fill-rule="evenodd" stroke="none"/>
    <path d="M4.85 8.75 L4.25 4.8 Q5.7 2.65 7.85 2.35 L13.75 2.65 Q17.95 4.1 19.45 6.8 21.0 9.55 19.35 12.1 18.55 9.1 15.3 7.95 12.0 6.75 10.35 7.9 9.4 8.55 9.15 10.15 6.55 10.5 4.85 8.75" fill="#373943" fill-rule="evenodd" stroke="none"/>
    <path d="M4.85 8.75 L4.25 4.8 Q5.7 2.65 7.85 2.35 L13.75 2.65 Q17.95 4.1 19.45 6.8 21.0 9.55 19.35 12.1 18.55 9.1 15.3 7.95 12.0 6.75 10.35 7.9 9.4 8.55 9.15 10.15 8.95 11.2 9.1 12.75 10.35 15.75 12.95 16.45 15.55 17.15 18.65 14.3 17.4 17.8 15.05 18.35 12.65 18.8 10.25 17.9 6.9 16.9 5.65 13.7 L5.35 12.65 5.15 11.1 4.85 8.75 Z" fill="none" stroke="#141520" stroke-linecap="round" stroke-linejoin="round" stroke-width="1.0"/>
  </g>
</svg>
