<?xml version="1.0" encoding="UTF-8" standalone="no"?>
<svg xmlns:ffdec="https://www.free-decompiler.com/flash" xmlns:xlink="http://www.w3.org/1999/xlink" ffdec:objectType="shape" height="9.85px" width="4.2px" xmlns="http://www.w3.org/2000/svg">
  <g transform="matrix(1.0, 0.0, 0.0, 1.0, 0.5, 0.5)">
    <path d="M3.2 2.1 L0.0 3.0 3.2 2.1 3.2 4.15 3.2 6.05 3.2 7.95 0.0 8.85 0.0 6.95 0.0 5.1 0.0 3.0 0.0 0.9 3.2 0.0 3.2 2.1 M3.2 4.15 L0.0 5.1 3.2 4.15 M0.0 6.95 L3.2 6.05 0.0 6.95" fill="#ff0000" fill-rule="evenodd" stroke="none"/>
    <path d="M0.0 3.0 L3.2 2.1 3.2 0.0 0.0 0.9 0.0 3.0 0.0 5.1 3.2 4.15 3.2 2.1 M3.2 4.15 L3.2 6.05 3.2 7.95 0.0 8.85 0.0 6.95 0.0 5.1 M3.2 6.05 L0.0 6.95" fill="none" stroke="#190000" stroke-linecap="round" stroke-linejoin="round" stroke-width="1.0"/>
  </g>
</svg>
