<?xml version="1.0" encoding="UTF-8" standalone="no"?>
<svg xmlns:ffdec="https://www.free-decompiler.com/flash" xmlns:xlink="http://www.w3.org/1999/xlink" ffdec:objectType="shape" height="23.3px" width="20.05px" xmlns="http://www.w3.org/2000/svg">
  <g transform="matrix(1.0, 0.0, 0.0, 1.0, 2.6, 4.1)">
    <path d="M11.0 10.25 L11.05 10.25 11.0 10.25 11.7 10.05 11.05 10.25 11.7 10.05 12.8 9.65 12.7 9.9 Q12.3 10.85 12.55 11.7 L12.55 11.75 12.6 11.9 12.95 12.55 Q11.95 12.4 11.2 11.9 L11.0 11.75 Q10.5 11.0 10.5 10.45 L10.75 10.35 11.0 10.25 M11.05 10.25 L10.75 10.35 11.05 10.25 12.7 9.9 11.05 10.25" fill="#ffffff" fill-rule="evenodd" stroke="none"/>
    <path d="M11.0 10.25 L10.75 10.35 10.5 10.45 Q10.5 11.0 11.0 11.75 L11.2 11.9 Q11.95 12.4 12.95 12.55 13.5 12.9 14.05 12.15 14.55 11.4 14.25 9.85 L10.45 9.75 9.9 10.45 11.0 10.25 M11.0 11.75 L9.9 10.45 11.0 11.75 M4.3 15.35 L3.3 14.65 1.0 10.0 Q0.05 6.7 2.05 3.55 3.45 1.95 5.8 1.15 9.65 -0.05 13.1 2.1 15.65 5.35 15.9 8.4 15.2 9.15 15.05 10.05 14.95 10.55 15.0 11.1 L15.05 11.7 Q15.3 12.7 15.95 13.05 14.85 16.25 12.95 17.8 L10.6 17.3 8.35 16.7 8.35 18.1 Q6.15 18.45 4.3 17.05 L4.3 15.35 8.35 16.7 4.3 15.35 M14.15 8.75 L10.35 8.95 14.15 8.75 M12.95 15.65 L12.5 15.65 12.95 15.65" fill="#ffebe2" fill-rule="evenodd" stroke="none"/>
    <path d="M11.7 10.05 L11.0 10.25 9.9 10.45 10.45 9.75 14.25 9.85 13.4 9.85 12.8 9.65 11.7 10.05" fill="#5f789f" fill-rule="evenodd" stroke="none"/>
    <path d="M12.95 12.55 L12.6 11.9 12.55 11.75 12.55 11.7 Q12.3 10.85 12.7 9.9 L13.4 9.85 12.7 9.9 12.8 9.65 13.4 9.85 14.25 9.85 Q14.55 11.4 14.05 12.15 13.5 12.9 12.95 12.55 M13.6 11.65 L13.6 10.9 13.6 11.65 M12.55 11.75 L12.9 11.75 12.55 11.75" fill="url(#gradient0)" fill-rule="evenodd" stroke="none"/>
    <path d="M12.5 15.65 L12.95 15.65" fill="none" stroke="#bc9486" stroke-linecap="round" stroke-linejoin="round" stroke-width="0.8"/>
    <path d="M11.0 10.25 L10.75 10.35 M11.7 10.05 L11.0 10.25" fill="none" stroke="#ffffff" stroke-linecap="round" stroke-linejoin="round" stroke-width="0.4"/>
    <path d="M12.55 11.75 L12.55 11.7 M12.9 11.75 L12.55 11.75" fill="none" stroke="#ffffff" stroke-linecap="round" stroke-linejoin="round" stroke-width="0.6000000000000001"/>
    <path d="M11.05 10.25 L11.0 10.25 M11.05 10.25 L11.7 10.05 12.8 9.65 13.4 9.85" fill="none" stroke="#5f789f" stroke-linecap="round" stroke-linejoin="round" stroke-width="0.6000000000000001"/>
    <path d="M13.6 10.9 L13.6 11.65" fill="none" stroke="#d2f6ff" stroke-linecap="round" stroke-linejoin="round" stroke-width="0.6000000000000001"/>
    <path d="M10.75 10.35 L11.05 10.25 12.7 9.9 13.4 9.85 14.25 9.85 M11.0 11.75 Q10.5 11.0 10.5 10.45 L10.75 10.35" fill="none" stroke="#2e3b4a" stroke-linecap="round" stroke-linejoin="round" stroke-width="0.8"/>
    <path d="M11.0 10.25 L9.9 10.45 11.0 11.75 M10.35 8.95 L14.15 8.75" fill="none" stroke="#2e3b4a" stroke-linecap="round" stroke-linejoin="round" stroke-width="0.6000000000000001"/>
    <path d="M4.3 15.35 L3.3 14.65 1.0 10.0 Q0.05 6.7 2.05 3.55 3.45 1.95 5.8 1.15 9.65 -0.05 13.1 2.1 15.65 5.35 15.9 8.4 15.2 9.15 15.05 10.05 14.95 10.55 15.0 11.1 L15.05 11.7 Q15.3 12.7 15.95 13.05 14.85 16.25 12.95 17.8 L10.6 17.3 8.35 16.7 8.35 18.1 Q6.15 18.45 4.3 17.05 L4.3 15.35 8.35 16.7" fill="none" stroke="#bc9486" stroke-linecap="round" stroke-linejoin="round" stroke-width="1.0"/>
    <path d="M2.1 0.95 L1.6 1.25 -0.1 -0.9 Q-0.1 -2.05 0.65 -3.05 L1.1 -3.6 1.15 -3.05 Q1.25 -0.95 2.1 0.95" fill="#4d7193" fill-rule="evenodd" stroke="none"/>
    <path d="M2.1 0.95 Q4.2 -0.4 6.0 -1.05 9.8 -2.05 12.8 -0.75 12.55 0.45 12.75 0.55 16.05 1.5 16.95 3.5 L16.2 4.45 Q17.0 6.15 16.8 7.55 L16.25 10.1 Q14.5 8.15 11.3 7.25 L9.9 10.45 Q9.55 11.35 10.35 12.85 L8.45 12.85 Q8.3 15.45 10.25 17.2 L9.35 17.05 9.05 18.6 Q7.15 18.95 4.65 17.75 3.4 17.2 2.95 14.8 L2.0 17.5 Q-0.15 16.5 -1.05 14.55 L-1.05 12.35 Q-2.15 10.75 -2.0 7.7 L-0.85 5.4 Q-0.45 4.45 -2.1 3.95 -0.65 2.35 0.95 1.25 L1.6 1.25 2.1 0.95" fill="url(#gradient1)" fill-rule="evenodd" stroke="none"/>
    <path d="M13.95 4.9 Q12.6 3.5 10.1 2.5 L11.35 2.5 Q13.25 3.45 13.95 4.9 M8.15 8.5 Q7.85 6.75 6.4 5.5 L6.4 4.45 Q8.25 6.1 8.15 8.5" fill="#7895b1" fill-rule="evenodd" stroke="none"/>
    <path d="M0.45 -2.7 L1.6 -0.2 M16.2 4.45 L16.65 5.85 Q17.2 9.75 14.5 8.6 M10.6 7.25 Q10.65 9.0 9.9 10.45 M3.15 0.3 Q7.6 -2.25 12.7 -0.35" fill="none" stroke="#7895b1" stroke-linecap="round" stroke-linejoin="round" stroke-width="1.0"/>
    <path d="M10.0 7.25 L11.3 7.25 Q14.5 8.15 16.25 10.1 L16.8 7.55 Q17.0 6.15 16.2 4.45 L16.95 3.5 Q16.05 1.5 12.75 0.55 12.55 0.45 12.8 -0.75 9.8 -2.05 6.0 -1.05 4.2 -0.4 2.1 0.95 L1.6 1.25 0.95 1.25 Q-0.65 2.35 -2.1 3.95 -0.45 4.45 -0.85 5.4 L-2.0 7.7 Q-2.15 10.75 -1.05 12.35 L-1.05 14.55 Q-0.15 16.5 2.0 17.5 L2.95 14.8 2.0 13.8 M2.1 0.95 Q1.25 -0.95 1.15 -3.05 L1.1 -3.6 0.65 -3.05 Q-0.1 -2.05 -0.1 -0.9 L1.6 1.25 M2.95 14.8 Q3.4 17.2 4.65 17.75 7.15 18.95 9.05 18.6 L9.35 17.05 10.25 17.2 Q8.3 15.45 8.45 12.85 5.7 11.75 4.95 9.7 M11.3 7.25 L9.9 10.45 Q9.55 11.35 10.35 12.85 L8.45 12.85" fill="none" stroke="#222a33" stroke-linecap="round" stroke-linejoin="round" stroke-width="1.0"/>
  </g>
  <defs>
    <radialGradient cx="0" cy="0" gradientTransform="matrix(0.0017, 0.0, 0.0, 0.002, 13.6, 11.25)" gradientUnits="userSpaceOnUse" id="gradient0" r="819.2" spreadMethod="pad">
      <stop offset="0.0" stop-color="#7bfffb"/>
      <stop offset="1.0" stop-color="#54adec"/>
    </radialGradient>
    <radialGradient cx="0" cy="0" gradientTransform="matrix(-0.0058, 0.01, -0.0137, -0.008, 7.0, 2.65)" gradientUnits="userSpaceOnUse" id="gradient1" r="819.2" spreadMethod="pad">
      <stop offset="0.0" stop-color="#567c98"/>
      <stop offset="0.12156862745098039" stop-color="#4d7193"/>
      <stop offset="1.0" stop-color="#2f5474"/>
    </radialGradient>
  </defs>
</svg>
