<?xml version="1.0" encoding="UTF-8" standalone="no"?>
<svg xmlns:ffdec="https://www.free-decompiler.com/flash" xmlns:xlink="http://www.w3.org/1999/xlink" ffdec:objectType="shape" height="31.65px" width="29.7px" xmlns="http://www.w3.org/2000/svg">
  <g transform="matrix(1.0, 0.0, 0.0, 1.0, 17.75, 32.2)">
    <path d="M-1.75 -2.9 L-2.7 -12.8 -2.8 -24.65 10.3 -21.75 10.4 -21.75 9.4 -17.5 Q9.0 -12.85 6.45 -10.65 3.9 -5.9 4.35 -1.05 L-1.75 -2.9" fill="#333333" fill-rule="evenodd" stroke="none"/>
    <path d="M-1.75 -2.9 L-5.45 -3.15 Q-7.3 -7.75 -8.15 -15.7 L-9.6 -28.95 -4.2 -30.1 1.65 -28.6 5.45 -26.35 Q7.7 -24.8 8.75 -22.8 L8.25 -21.65 1.95 -19.9 3.9 -6.6 -1.75 -2.9" fill="#414141" fill-rule="evenodd" stroke="none"/>
    <path d="M8.65 -22.55 L7.9 -23.75 5.9 -26.05 4.45 -27.2 1.95 -28.25 -4.2 -30.1 -9.6 -28.95 -6.8 -8.1 -5.45 -3.15 -1.75 -2.9 4.35 -1.05 Q3.9 -5.9 6.45 -10.65 9.0 -12.85 9.4 -17.5 L8.65 -22.55 Z" fill="none" stroke="#292929" stroke-linecap="round" stroke-linejoin="round" stroke-width="1.05"/>
    <path d="M-8.15 -29.25 L-7.95 -8.0 -13.9 -10.95 -15.3 -27.65 -8.15 -29.25" fill="#666666" fill-rule="evenodd" stroke="none"/>
    <path d="M-8.1 -24.9 L-8.85 -18.1 Q-9.3 -14.05 -8.0 -10.95 L-6.75 -8.15 -12.85 -12.5 -15.15 -27.55 -8.15 -29.25 -8.1 -24.9 Z" fill="none" stroke="#000000" stroke-linecap="round" stroke-linejoin="round" stroke-width="1.05"/>
    <path d="M-5.8 -31.7 Q-3.55 -30.7 -3.7 -30.05 -3.8 -29.6 -5.35 -29.25 L-7.5 -25.6 Q-7.8 -23.7 -7.3 -18.7 -6.75 -13.2 -6.85 -11.2 -6.25 -9.85 -6.55 -8.95 -6.85 -8.15 -7.2 -8.5 -10.0 -8.65 -11.95 -9.9 L-14.45 -12.2 -14.35 -16.9 -15.65 -24.5 -14.85 -27.55 -12.9 -29.45 -11.3 -29.65 -10.1 -29.8 -5.8 -31.7" fill="#4d4d4d" fill-rule="evenodd" stroke="none"/>
    <path d="M-5.8 -31.7 Q-3.55 -30.7 -3.7 -30.05 -3.8 -29.6 -5.35 -29.25 L-7.5 -25.6 Q-7.8 -23.7 -7.3 -18.7 -6.75 -13.2 -6.85 -11.2 -6.25 -9.85 -6.55 -8.95 -6.85 -8.15 -7.2 -8.5 -10.0 -8.65 -11.95 -9.9 L-14.45 -12.2 -14.35 -16.9 -15.65 -24.5 -14.85 -27.55 -12.9 -29.45 -11.3 -29.65 -10.1 -29.8 -5.8 -31.7 Z" fill="none" stroke="#2a2a2a" stroke-linecap="round" stroke-linejoin="round" stroke-width="1.05"/>
    <path d="M-14.05 -28.4 L-11.5 -24.5 -11.25 -16.9 -12.65 -15.05 -13.5 -13.45 -15.65 -14.7 Q-17.4 -17.95 -17.1 -22.35 -16.75 -27.15 -14.05 -28.4" fill="#727272" fill-rule="evenodd" stroke="none"/>
    <path d="M-14.05 -28.4 L-11.5 -24.5 -11.25 -16.9 -12.65 -15.05 -13.5 -13.45 -15.65 -14.7 Q-17.4 -17.95 -17.1 -22.35 -16.75 -27.15 -14.05 -28.4 Z" fill="none" stroke="#282828" stroke-linecap="round" stroke-linejoin="round" stroke-width="1.05"/>
    <path d="M-17.2 -19.7 L-14.35 -19.6 -14.65 -17.75 -16.55 -16.35 -17.1 -18.3 -17.2 -19.7" fill="#3ec1ff" fill-rule="evenodd" stroke="none"/>
    <path d="M-17.2 -19.7 L-14.35 -19.6 -14.65 -17.75 -16.55 -16.35 -17.1 -18.3 -17.2 -19.7 Z" fill="none" stroke="#183555" stroke-linecap="round" stroke-linejoin="round" stroke-width="1.05"/>
    <path d="M-17.25 -22.3 L-17.25 -24.1 -16.3 -25.55 -14.35 -24.1 -14.15 -22.1 -17.25 -22.3" fill="#3ec1ff" fill-rule="evenodd" stroke="none"/>
    <path d="M-17.25 -22.3 L-14.15 -22.1 -14.35 -24.1 -16.3 -25.55 -17.25 -24.1 -17.25 -22.3 Z" fill="none" stroke="#183555" stroke-linecap="round" stroke-linejoin="round" stroke-width="1.05"/>
    <path d="M-11.6 -17.0 L-12.45 -20.35 Q-12.7 -22.1 -12.0 -23.1 L-10.15 -24.05 -8.05 -23.05 Q-6.2 -21.65 -5.75 -19.8 -5.2 -17.45 -8.25 -16.75 L-11.6 -17.0" fill="#3a3a3a" fill-rule="evenodd" stroke="none"/>
    <path d="M-11.6 -17.0 L-12.45 -20.35 Q-12.7 -22.1 -12.0 -23.1 L-10.15 -24.05 -8.05 -23.05 Q-6.2 -21.65 -5.75 -19.8 -5.2 -17.45 -8.25 -16.75 L-11.6 -17.0 Z" fill="none" stroke="#252525" stroke-linecap="round" stroke-linejoin="round" stroke-width="1.05"/>
    <path d="M7.4 -23.6 Q7.4 -23.9 8.8 -22.8 10.25 -21.7 10.45 -20.6 L11.1 -16.25 11.4 -13.85 Q11.5 -12.45 11.25 -11.9 11.05 -11.5 10.35 -11.45 L9.15 -11.55 6.95 -11.75 4.55 -11.65 6.55 -11.65 Q9.35 -11.6 9.55 -10.9 L9.2 -8.2 Q8.75 -5.75 8.55 -5.65 5.0 -5.5 4.45 -7.5 L4.4 -11.95 Q1.4 -11.6 0.95 -13.4 0.75 -14.05 1.15 -16.85 L-2.15 -18.0 -2.1 -20.65 1.2 -21.75 3.3 -23.55 Q4.85 -23.4 7.4 -23.6" fill="#434848" fill-rule="evenodd" stroke="none"/>
    <path d="M7.4 -23.6 Q4.85 -23.4 3.3 -23.55 L1.2 -21.75 -2.1 -20.65 -2.15 -18.0 1.15 -16.85 Q0.75 -14.05 0.95 -13.4 1.4 -11.6 4.4 -11.95 L4.45 -7.5 Q5.0 -5.5 8.55 -5.65 8.75 -5.75 9.2 -8.2 L9.55 -10.9 Q9.35 -11.6 6.55 -11.65 L4.55 -11.65 6.95 -11.75 9.15 -11.55 10.35 -11.45 Q11.05 -11.5 11.25 -11.9 11.5 -12.45 11.4 -13.85 L11.1 -16.25 10.45 -20.6 Q10.25 -21.7 8.8 -22.8 7.4 -23.9 7.4 -23.6 Z" fill="none" stroke="#242424" stroke-linecap="round" stroke-linejoin="round" stroke-width="1.05"/>
    <path d="M0.4 -17.5 L0.2 -16.4 0.85 -12.55 4.95 -11.95 Q8.55 -8.25 6.35 -5.1 5.5 -3.95 4.3 -3.9 3.05 -3.85 2.35 -5.2 0.6 -4.75 -0.15 -6.35 -0.9 -8.05 -0.2 -11.4 L-1.3 -14.05 -7.2 -16.15 -6.15 -18.6 0.4 -17.5" fill="#3c4343" fill-rule="evenodd" stroke="none"/>
    <path d="M0.4 -17.5 L-6.15 -18.6 -7.2 -16.15 -1.3 -14.05 -0.2 -11.4 Q-0.9 -8.05 -0.15 -6.35 0.6 -4.75 2.35 -5.2 3.05 -3.85 4.3 -3.9 5.5 -3.95 6.35 -5.1 8.55 -8.25 4.95 -11.95 L0.85 -12.55 0.2 -16.4 0.4 -17.5 Z" fill="none" stroke="#262a2d" stroke-linecap="round" stroke-linejoin="round" stroke-width="1.05"/>
    <path d="M7.45 -5.35 L7.3 -5.25 6.85 -2.1 2.35 -1.85 -6.9 -4.1 -10.35 -6.55 -10.95 -9.15 -8.4 -8.55 Q-7.5 -8.35 -7.1 -7.9 -5.05 -5.85 -0.45 -5.25 4.2 -4.65 5.6 -6.5 L7.45 -5.35 M7.5 -5.4 L6.45 -6.05 Q5.25 -6.8 5.85 -7.15 6.7 -7.6 6.3 -9.3 L5.75 -11.05 Q5.85 -12.0 7.1 -12.0 8.2 -12.0 8.75 -11.5 9.35 -10.95 9.2 -9.1 9.05 -7.5 8.5 -6.15 L7.5 -5.4" fill="#414141" fill-rule="evenodd" stroke="none"/>
    <path d="M7.45 -5.35 L7.3 -5.25 6.85 -2.1 2.35 -1.85 -6.9 -4.1 -10.35 -6.55 -10.95 -9.15 -8.4 -8.55 Q-7.5 -8.35 -7.1 -7.9 -5.05 -5.85 -0.45 -5.25 4.2 -4.65 5.6 -6.5 L7.45 -5.35 7.5 -5.4 6.45 -6.05 Q5.25 -6.8 5.85 -7.15 6.7 -7.6 6.3 -9.3 L5.75 -11.05 Q5.85 -12.0 7.1 -12.0 8.2 -12.0 8.75 -11.5 9.35 -10.95 9.2 -9.1 9.05 -7.5 8.5 -6.15 L7.5 -5.4 7.6 -5.25 7.45 -5.35 Z" fill="none" stroke="#2c2c2c" stroke-linecap="round" stroke-linejoin="round" stroke-width="1.05"/>
    <path d="M6.5 -22.8 L6.75 -20.9 8.45 -19.8 10.5 -19.55 M1.55 -17.35 L3.1 -14.5 4.85 -13.85 6.0 -11.85 M-0.95 -17.55 L0.5 -16.65 0.2 -14.25 -1.0 -13.85" fill="none" stroke="#2c2c2c" stroke-linecap="round" stroke-linejoin="round" stroke-opacity="0.62352943" stroke-width="1.05"/>
    <path d="M8.85 -18.15 L9.2 -17.5 Q9.2 -16.95 9.35 -16.55 L9.4 -15.85 Q9.15 -14.45 4.85 -16.7 L4.2 -18.25 8.85 -18.15" fill="#25b5d2" fill-rule="evenodd" stroke="none"/>
    <path d="M8.85 -18.15 L4.2 -18.25 4.85 -16.7 Q9.15 -14.45 9.4 -15.85 L9.35 -16.55 Q9.2 -16.95 9.2 -17.5 L8.85 -18.15 Z" fill="none" stroke="#182f4e" stroke-linecap="round" stroke-linejoin="round" stroke-opacity="0.94509804" stroke-width="1.05"/>
    <path d="M-5.85 -31.7 L-8.95 -30.35 -9.9 -29.75 Q-9.3 -28.7 -9.15 -27.35 -9.05 -25.7 -9.65 -24.1 M-9.9 -29.75 L-10.6 -29.6 -12.55 -29.65 -14.35 -28.05 M-12.7 -13.35 Q-11.3 -12.0 -9.55 -11.0 -7.75 -10.0 -7.2 -10.35 M9.7 -22.15 L10.2 -21.25 10.35 -20.7 11.1 -16.3 Q11.4 -13.45 11.3 -11.85 11.25 -11.4 10.7 -11.35 L9.6 -11.4 9.45 -9.55 8.75 -6.6 Q8.4 -5.6 7.15 -5.3 L6.95 -1.9" fill="none" stroke="#242424" stroke-linecap="round" stroke-linejoin="round" stroke-width="1.05"/>
  </g>
</svg>
