<?xml version="1.0" encoding="UTF-8" standalone="no"?>
<svg xmlns:ffdec="https://www.free-decompiler.com/flash" xmlns:xlink="http://www.w3.org/1999/xlink" ffdec:objectType="shape" height="51.85px" width="39.35px" xmlns="http://www.w3.org/2000/svg">
  <g transform="matrix(1.0, 0.0, 0.0, 1.0, 10.75, 28.1)">
    <path d="M14.0 -18.45 L14.65 -18.45 Q15.75 -18.85 16.95 -19.7 L18.9 -21.3 Q22.55 -23.65 26.95 -22.85 23.35 -20.4 23.55 -15.95 21.2 -17.45 21.0 -18.95 18.7 -15.1 16.05 -17.15 L14.0 -18.45 M12.0 -17.8 Q13.5 -15.5 16.3 -14.0 19.1 -12.6 23.75 -14.0 20.4 -9.5 17.35 -10.0 L15.5 -10.55 Q14.45 -10.85 14.0 -10.3 14.0 -8.5 15.3 -6.75 16.5 -5.4 18.4 -4.3 19.2 -3.8 21.85 -2.6 24.0 -1.6 25.1 -0.65 28.25 1.7 28.6 6.05 28.8 10.45 26.0 13.4 L23.05 16.0 Q20.6 17.7 20.95 18.7 21.2 19.65 20.05 20.8 18.9 21.95 15.45 23.2 12.0 24.35 7.5 23.2 0.35 21.4 -1.5 16.65 -2.45 13.75 -1.3 9.2 L-0.8 7.55 -0.5 6.8 -0.4 6.55 -0.4 6.5 -0.35 6.3 -0.35 6.05 Q-0.35 5.3 -0.7 4.65 -1.45 3.2 -3.9 2.35 -6.85 1.65 -7.9 0.95 -10.45 -0.3 -10.7 -3.65 -10.95 -6.95 -9.15 -9.55 -7.45 -11.65 -4.5 -13.45 -2.65 -14.55 0.8 -16.15 L8.6 -19.35 10.15 -19.65 Q11.0 -19.45 12.0 -17.8 M1.15 -26.5 Q1.15 -26.1 0.6 -25.75 L-1.5 -25.95 Q-1.2 -25.95 -1.2 -26.2 L-1.1 -28.1 -0.2 -27.7 0.9 -27.05 1.15 -26.5" fill="#ffffff" fill-opacity="0.49803922" fill-rule="evenodd" stroke="none"/>
  </g>
</svg>
