<?xml version="1.0" encoding="UTF-8" standalone="no"?>
<svg xmlns:ffdec="https://www.free-decompiler.com/flash" xmlns:xlink="http://www.w3.org/1999/xlink" ffdec:objectType="shape" height="57.2px" width="39.2px" xmlns="http://www.w3.org/2000/svg">
  <g transform="matrix(1.0, 0.0, 0.0, 1.0, 5.3, 33.2)">
    <path d="M7.05 -13.3 Q12.6 -13.3 16.55 -14.25 19.85 -15.2 21.2 -16.25 23.35 -17.9 24.25 -20.85 25.05 -23.65 24.4 -26.5 29.1 -24.35 31.8 -19.5 34.6 -14.3 33.7 -8.95 33.1 -6.75 32.25 -5.5 31.4 -4.05 29.65 -2.7 28.7 -2.1 27.6 -0.65 L26.2 1.15 Q25.05 -0.15 24.75 -1.95 22.6 -0.65 21.55 1.6 20.5 4.0 20.9 6.5 22.4 7.25 23.35 8.8 24.45 10.6 24.45 12.8 24.45 16.85 21.0 20.4 18.8 22.95 16.1 23.35 L15.6 23.4 13.9 23.35 12.85 23.25 Q11.2 23.05 10.3 23.25 L9.85 23.35 8.55 23.7 6.7 24.0 Q5.75 24.1 4.55 23.5 L4.3 23.35 2.0 21.2 Q-0.05 19.1 0.6 15.6 1.2 12.05 -2.55 7.5 L-3.85 5.65 Q-5.95 2.1 -5.0 -1.15 L-3.85 -4.1 Q-2.55 -6.75 -0.5 -8.9 2.75 -12.3 7.05 -13.3 M14.4 -30.65 Q15.75 -32.4 17.65 -33.2 L17.4 -33.0 17.25 -32.55 Q17.25 -29.35 17.65 -27.8 L15.15 -27.5 14.05 -27.5 12.8 -26.85 Q13.1 -29.0 14.4 -30.65" fill="#ffffff" fill-opacity="0.49803922" fill-rule="evenodd" stroke="none"/>
  </g>
</svg>
