<?xml version="1.0" encoding="UTF-8" standalone="no"?>
<svg xmlns:ffdec="https://www.free-decompiler.com/flash" xmlns:xlink="http://www.w3.org/1999/xlink" ffdec:objectType="shape" height="49.7px" width="36.15px" xmlns="http://www.w3.org/2000/svg">
  <g transform="matrix(1.0, 0.0, 0.0, 1.0, 5.5, 27.25)">
    <path d="M17.9 -16.95 Q17.8 -15.35 16.75 -14.1 15.7 -12.85 14.25 -12.35 L12.8 -11.95 11.85 -11.1 Q11.7 -9.9 13.45 -9.15 14.7 -8.7 18.2 -8.15 21.25 -7.75 22.8 -6.85 25.4 -5.25 26.65 -0.3 27.75 4.4 26.95 10.15 26.3 13.75 24.75 16.1 22.75 19.05 19.85 19.35 20.1 18.55 19.6 17.7 17.85 19.75 15.35 21.05 12.8 22.3 10.05 22.45 7.3 22.45 4.7 21.2 2.15 20.05 0.4 17.95 -0.55 17.05 -0.55 16.3 -0.55 15.6 0.4 14.25 1.6 11.7 0.3 7.85 -0.2 6.75 -1.35 5.0 L-3.1 2.3 Q-5.5 -2.2 -5.5 -5.8 -5.3 -10.85 -1.85 -13.25 0.85 -15.35 7.2 -15.1 L15.25 -15.45 15.75 -15.7 16.8 -16.1 17.9 -16.95 M28.65 -25.55 Q29.25 -26.7 30.35 -27.25 29.2 -25.15 29.7 -22.75 L30.4 -20.05 Q30.85 -18.35 30.45 -17.25 29.85 -15.55 27.5 -15.0 26.15 -14.65 23.75 -15.0 22.7 -15.0 22.0 -15.4 24.55 -16.7 25.6 -17.9 26.25 -18.55 26.8 -20.2 24.55 -19.25 22.55 -19.4 25.85 -19.9 27.25 -22.75 27.85 -23.6 28.65 -25.55" fill="#ffffff" fill-opacity="0.49803922" fill-rule="evenodd" stroke="none"/>
  </g>
</svg>
