<?xml version="1.0" encoding="UTF-8" standalone="no"?>
<svg xmlns:ffdec="https://www.free-decompiler.com/flash" xmlns:xlink="http://www.w3.org/1999/xlink" ffdec:objectType="shape" height="18.15px" width="17.7px" xmlns="http://www.w3.org/2000/svg">
  <g transform="matrix(1.0, 0.0, 0.0, 1.0, 7.8, 16.95)">
    <path d="M-2.1 -1.6 L-2.4 -1.6 -2.1 -1.6" fill="#000033" fill-rule="evenodd" stroke="none"/>
    <path d="M-6.95 -7.45 L-7.2 -10.1 -7.3 -11.2 -6.85 -12.5 Q-5.8 -14.65 -4.35 -15.25 -0.5 -16.95 2.5 -16.2 5.45 -15.5 7.15 -14.1 8.8 -12.75 9.3 -10.45 L7.6 -9.95 Q-0.35 -9.9 -3.0 -10.9 -5.45 -10.7 -6.4 -9.35 L-6.65 -8.85 -6.95 -7.45 M6.7 -12.95 L6.1 -13.2 5.5 -12.95 5.25 -12.35 Q5.25 -12.0 5.5 -11.75 5.75 -11.5 6.1 -11.5 6.45 -11.5 6.7 -11.75 L6.95 -12.35 6.7 -12.95 6.95 -12.35 6.7 -11.75 Q6.45 -11.5 6.1 -11.5 5.75 -11.5 5.5 -11.75 5.25 -12.0 5.25 -12.35 L5.5 -12.95 6.1 -13.2 6.7 -12.95 M-1.45 -12.6 Q-3.6 -13.45 -4.35 -15.25 -3.6 -13.45 -1.45 -12.6 M-4.15 -11.85 Q-5.15 -12.5 -5.5 -13.45 -5.15 -12.5 -4.15 -11.85" fill="#cacaca" fill-rule="evenodd" stroke="none"/>
    <path d="M2.8 -1.35 L2.8 0.7 1.6 0.7 -0.2 0.6 -2.3 0.3 -2.4 0.25 -2.4 -1.6 -2.1 -1.6 2.8 -1.35" fill="#000000" fill-rule="evenodd" stroke="none"/>
    <path d="M7.6 -9.95 Q8.15 -9.2 8.15 -7.6 L8.15 -7.35 Q6.9 -6.2 -1.35 -5.9 -0.1 -9.0 -3.0 -10.9 -0.35 -9.9 7.6 -9.95 M5.4 -8.4 L3.7 -8.4 5.4 -8.4" fill="#cc9933" fill-rule="evenodd" stroke="none"/>
    <path d="M-6.75 -5.5 L-6.8 -5.8 -6.85 -5.9 -6.9 -6.15 -6.95 -7.45 -6.65 -8.85 -6.4 -9.35 Q-5.45 -10.7 -3.0 -10.9 -0.1 -9.0 -1.35 -5.9 L-6.75 -5.5 M-4.95 -7.3 L-4.95 -9.3 -4.95 -7.3 M-3.45 -8.25 L-3.45 -9.4 -3.45 -8.25" fill="#444444" fill-rule="evenodd" stroke="none"/>
    <path d="M8.25 -7.35 Q10.9 -5.1 7.55 -1.75 L2.8 -1.35 -2.1 -1.6 -2.4 -1.6 Q-5.1 -2.4 -6.75 -5.5 L-1.35 -5.9 Q6.9 -6.2 8.15 -7.35 L8.25 -7.35 M8.15 -4.65 L6.5 -5.3 8.15 -4.65 M1.3 -4.25 Q0.95 -4.25 0.7 -4.0 L0.45 -3.4 Q0.45 -3.05 0.7 -2.8 0.95 -2.55 1.3 -2.55 L1.9 -2.8 2.15 -3.4 1.9 -4.0 1.3 -4.25 1.9 -4.0 2.15 -3.4 1.9 -2.8 1.3 -2.55 Q0.95 -2.55 0.7 -2.8 0.45 -3.05 0.45 -3.4 L0.7 -4.0 Q0.95 -4.25 1.3 -4.25 M6.95 -3.75 L5.95 -4.25 6.95 -3.75 M-0.95 -3.2 Q-0.7 -3.45 -0.7 -3.8 L-0.95 -4.4 -1.55 -4.65 -2.15 -4.4 -2.4 -3.8 -2.15 -3.2 -1.55 -2.95 Q-1.2 -2.95 -0.95 -3.2 -1.2 -2.95 -1.55 -2.95 L-2.15 -3.2 -2.4 -3.8 -2.15 -4.4 -1.55 -4.65 -0.95 -4.4 -0.7 -3.8 Q-0.7 -3.45 -0.95 -3.2" fill="#606060" fill-rule="evenodd" stroke="none"/>
    <path d="M8.15 -7.35 L8.2 -7.4 M-6.75 -5.5 L-6.8 -5.8 M-2.1 -1.6 L-2.4 -1.6" fill="none" stroke="#000000" stroke-linecap="round" stroke-linejoin="round" stroke-width="1.0"/>
    <path d="M8.2 -7.4 L8.25 -7.35 8.15 -7.35 M2.8 -1.35 L2.8 0.7 1.6 0.7 -0.2 0.6 -2.3 0.3 -2.4 0.25 -2.4 -1.6 -2.1 -1.6" fill="none" stroke="#000000" stroke-linecap="round" stroke-linejoin="round" stroke-width="1.0"/>
    <path d="M3.7 -8.4 L5.4 -8.4" fill="none" stroke="#966825" stroke-linecap="round" stroke-linejoin="round" stroke-width="2.0"/>
    <path d="M-6.8 -5.8 L-6.85 -5.9 -6.9 -6.15 -6.95 -7.45 M-1.35 -5.9 L-6.75 -5.5 M-3.45 -9.4 L-3.45 -8.25 M-4.95 -9.3 L-4.95 -7.3 M-3.0 -10.9 Q-0.1 -9.0 -1.35 -5.9" fill="none" stroke="#333333" stroke-linecap="round" stroke-linejoin="round" stroke-width="1.0"/>
    <path d="M6.7 -12.95 L6.95 -12.35 6.7 -11.75 Q6.45 -11.5 6.1 -11.5 5.75 -11.5 5.5 -11.75 5.25 -12.0 5.25 -12.35 L5.5 -12.95 6.1 -13.2 6.7 -12.95" fill="none" stroke="#999999" stroke-linecap="round" stroke-linejoin="round" stroke-width="1.0"/>
    <path d="M1.3 -4.25 L1.9 -4.0 2.15 -3.4 1.9 -2.8 1.3 -2.55 Q0.95 -2.55 0.7 -2.8 0.45 -3.05 0.45 -3.4 L0.7 -4.0 Q0.95 -4.25 1.3 -4.25 M6.5 -5.3 L8.15 -4.65 M-0.95 -3.2 Q-1.2 -2.95 -1.55 -2.95 L-2.15 -3.2 -2.4 -3.8 -2.15 -4.4 -1.55 -4.65 -0.95 -4.4 -0.7 -3.8 Q-0.7 -3.45 -0.95 -3.2" fill="none" stroke="#444444" stroke-linecap="round" stroke-linejoin="round" stroke-width="1.0"/>
    <path d="M5.95 -4.25 L6.95 -3.75" fill="none" stroke="#444444" stroke-linecap="round" stroke-linejoin="round" stroke-width="1.0"/>
    <path d="M-4.35 -15.25 Q-3.6 -13.45 -1.45 -12.6 M-5.5 -13.45 Q-5.15 -12.5 -4.15 -11.85" fill="none" stroke="#848484" stroke-linecap="round" stroke-linejoin="round" stroke-width="1.0"/>
    <path d="M-6.95 -7.45 L-6.65 -8.85 -6.4 -9.35 Q-5.45 -10.7 -3.0 -10.9 -0.35 -9.9 7.6 -9.95" fill="none" stroke="#6f6f6f" stroke-linecap="round" stroke-linejoin="round" stroke-width="1.0"/>
    <path d="M8.15 -7.35 Q6.9 -6.2 -1.35 -5.9" fill="none" stroke="#404040" stroke-linecap="round" stroke-linejoin="round" stroke-width="1.0"/>
    <path d="M7.6 -9.95 Q8.15 -9.2 8.15 -7.6 L8.15 -7.35" fill="none" stroke="#5f4429" stroke-linecap="round" stroke-linejoin="round" stroke-width="1.0"/>
    <path d="M-6.95 -7.45 L-7.2 -10.1 -7.3 -11.2 -6.85 -12.5 Q-5.8 -14.65 -4.35 -15.25 -0.5 -16.95 2.5 -16.2 5.45 -15.5 7.15 -14.1 8.8 -12.75 9.3 -10.45" fill="none" stroke="#3c3c3c" stroke-linecap="round" stroke-linejoin="round" stroke-width="1.0"/>
    <path d="M8.25 -7.35 Q10.9 -5.1 7.55 -1.75 L2.8 -1.35 -2.1 -1.6 M-2.4 -1.6 Q-5.1 -2.4 -6.75 -5.5" fill="none" stroke="#2b2b2b" stroke-linecap="round" stroke-linejoin="round" stroke-width="1.0"/>
    <path d="M9.3 -10.45 L7.6 -9.95" fill="none" stroke="#484848" stroke-linecap="round" stroke-linejoin="round" stroke-width="1.0"/>
    <path d="M8.05 -6.95 L2.65 -6.1 -1.35 -5.8 Q-0.55 -7.95 -2.15 -10.8 2.7 -9.5 7.6 -10.15 8.55 -8.1 8.05 -6.95" fill="#990000" fill-opacity="0.7019608" fill-rule="evenodd" stroke="none"/>
    <path d="M8.05 -6.95 L2.65 -6.1 -1.35 -5.8 Q-0.55 -7.95 -2.15 -10.8 2.7 -9.5 7.6 -10.15 8.55 -8.1 8.05 -6.95 Z" fill="none" stroke="#000000" stroke-linecap="round" stroke-linejoin="round" stroke-opacity="0.3019608" stroke-width="1.0"/>
    <path d="M3.05 -0.65 Q2.5 -1.2 2.5 -2.05 2.5 -2.9 3.05 -3.5 3.65 -4.05 4.5 -4.05 5.35 -4.05 5.9 -3.5 6.5 -2.9 6.5 -2.05 6.5 -1.2 5.9 -0.65 5.35 -0.05 4.5 -0.05 3.65 -0.05 3.05 -0.65" fill="#888888" fill-rule="evenodd" stroke="none"/>
    <path d="M3.05 -0.65 Q2.5 -1.2 2.5 -2.05 2.5 -2.9 3.05 -3.5 3.65 -4.05 4.5 -4.05 5.35 -4.05 5.9 -3.5 6.5 -2.9 6.5 -2.05 6.5 -1.2 5.9 -0.65 5.35 -0.05 4.5 -0.05 3.65 -0.05 3.05 -0.65 Z" fill="none" stroke="#262626" stroke-linecap="round" stroke-linejoin="round" stroke-width="1.0"/>
  </g>
</svg>
