<?xml version="1.0" encoding="UTF-8" standalone="no"?>
<svg xmlns:ffdec="https://www.free-decompiler.com/flash" xmlns:xlink="http://www.w3.org/1999/xlink" ffdec:objectType="shape" height="18.25px" width="19.5px" xmlns="http://www.w3.org/2000/svg">
  <g transform="matrix(1.0, 0.0, 0.0, 1.0, 7.85, 16.75)">
    <path d="M7.55 -11.5 L8.45 -8.45 Q8.8 -7.2 8.7 -5.7 L2.35 -5.05 Q1.15 -5.4 -0.3 -6.1 L-1.75 -6.8 -1.8 -9.8 Q1.95 -11.35 7.55 -11.5 M5.4 -8.4 L3.7 -8.4 5.4 -8.4" fill="#cc9933" fill-rule="evenodd" stroke="none"/>
    <path d="M5.35 -1.0 L3.3 -1.35 -2.65 -1.6 Q-5.85 -2.2 -6.75 -5.5 -3.75 -6.0 -1.75 -6.8 L-0.3 -6.1 Q1.15 -5.4 2.35 -5.05 3.9 -1.8 5.35 -1.0 M-2.55 -3.1 L-3.35 -4.75 -2.55 -3.1 M-0.45 -2.6 L-0.8 -3.65 -0.45 -2.6" fill="#515151" fill-rule="evenodd" stroke="none"/>
    <path d="M3.3 -1.35 L3.3 0.7 1.6 0.7 -0.2 0.6 -2.55 0.3 -2.65 0.25 -2.65 -1.6 3.3 -1.35" fill="#000000" fill-rule="evenodd" stroke="none"/>
    <path d="M-6.75 -5.5 Q-8.0 -8.85 -6.65 -12.2 L-1.8 -9.8 -1.75 -6.8 Q-3.75 -6.0 -6.75 -5.5 M-5.0 -6.9 L-5.0 -8.2 -5.0 -6.9 M-3.5 -7.45 L-3.5 -8.35 -3.5 -7.45" fill="#444444" fill-rule="evenodd" stroke="none"/>
    <path d="M-6.65 -12.2 Q-6.05 -14.15 -3.05 -15.5 -0.05 -16.9 3.7 -15.65 7.4 -14.45 8.8 -11.55 L7.55 -11.5 Q1.95 -11.35 -1.8 -9.8 L-6.65 -12.2" fill="#555555" fill-rule="evenodd" stroke="none"/>
    <path d="M8.7 -5.7 L10.3 -5.5 Q10.7 -3.05 9.6 -1.6 8.5 -0.15 5.35 -1.0 3.9 -1.8 2.35 -5.05 L8.7 -5.7 M8.45 -3.35 Q7.65 -2.5 6.55 -2.6 7.65 -2.5 8.45 -3.35" fill="#8c8c8c" fill-rule="evenodd" stroke="none"/>
    <path d="M-6.65 -12.2 Q-6.05 -14.15 -3.05 -15.5 -0.05 -16.9 3.7 -15.65 7.4 -14.45 8.8 -11.55 L7.55 -11.5 Q1.95 -11.35 -1.8 -9.8 L-6.65 -12.2 Q-8.0 -8.85 -6.75 -5.5" fill="none" stroke="#3c3c3c" stroke-linecap="round" stroke-linejoin="round" stroke-width="1.0"/>
    <path d="M7.55 -11.5 L8.45 -8.45 Q8.8 -7.2 8.7 -5.7" fill="none" stroke="#5f4429" stroke-linecap="round" stroke-linejoin="round" stroke-width="1.0"/>
    <path d="M8.7 -5.7 L10.3 -5.5 Q10.7 -3.05 9.6 -1.6 8.5 -0.15 5.35 -1.0 L3.3 -1.35 -2.65 -1.6 Q-5.85 -2.2 -6.75 -5.5 M-0.8 -3.65 L-0.45 -2.6 M-3.35 -4.75 L-2.55 -3.1" fill="none" stroke="#2b2b2b" stroke-linecap="round" stroke-linejoin="round" stroke-width="1.0"/>
    <path d="M3.7 -8.4 L5.4 -8.4" fill="none" stroke="#966825" stroke-linecap="round" stroke-linejoin="round" stroke-width="2.0"/>
    <path d="M3.3 -1.35 L3.3 0.7 1.6 0.7 -0.2 0.6 -2.55 0.3 -2.65 0.25 -2.65 -1.6" fill="none" stroke="#000000" stroke-linecap="round" stroke-linejoin="round" stroke-width="1.0"/>
    <path d="M2.35 -5.05 Q1.15 -5.4 -0.3 -6.1 L-1.75 -6.8 Q-3.75 -6.0 -6.75 -5.5 M-1.75 -6.8 L-1.8 -9.8 M-3.5 -8.35 L-3.5 -7.45 M-5.0 -8.2 L-5.0 -6.9" fill="none" stroke="#333333" stroke-linecap="round" stroke-linejoin="round" stroke-width="1.0"/>
    <path d="M6.55 -2.6 Q7.65 -2.5 8.45 -3.35" fill="none" stroke="#6a6a6a" stroke-linecap="round" stroke-linejoin="round" stroke-width="1.0"/>
    <path d="M5.35 -1.0 Q3.9 -1.8 2.35 -5.05 L8.7 -5.7" fill="none" stroke="#404040" stroke-linecap="round" stroke-linejoin="round" stroke-width="1.0"/>
    <path d="M2.95 -5.25 Q0.95 -5.25 -1.3 -6.7 -3.6 -8.15 -3.7 -9.6 -3.8 -11.1 -0.15 -12.9 3.45 -14.7 8.4 -15.25 10.75 -10.6 11.15 -5.6 L2.95 -5.25" fill="#990000" fill-opacity="0.7019608" fill-rule="evenodd" stroke="none"/>
    <path d="M2.95 -5.25 Q0.95 -5.25 -1.3 -6.7 -3.6 -8.15 -3.7 -9.6 -3.8 -11.1 -0.15 -12.9 3.45 -14.7 8.4 -15.25 10.75 -10.6 11.15 -5.6 L2.95 -5.25 Z" fill="none" stroke="#000000" stroke-linecap="round" stroke-linejoin="round" stroke-opacity="0.3019608" stroke-width="1.0"/>
    <path d="M5.9 -2.45 Q6.5 -3.0 7.35 -3.0 8.2 -3.0 8.75 -2.45 9.35 -1.85 9.35 -1.0 9.35 -0.15 8.75 0.4 8.2 1.0 7.35 1.0 6.5 1.0 5.9 0.4 5.35 -0.15 5.35 -1.0 5.35 -1.85 5.9 -2.45" fill="#888888" fill-rule="evenodd" stroke="none"/>
    <path d="M5.9 -2.45 Q6.5 -3.0 7.35 -3.0 8.2 -3.0 8.75 -2.45 9.35 -1.85 9.35 -1.0 9.35 -0.15 8.75 0.4 8.2 1.0 7.35 1.0 6.5 1.0 5.9 0.4 5.35 -0.15 5.35 -1.0 5.35 -1.85 5.9 -2.45 Z" fill="none" stroke="#262626" stroke-linecap="round" stroke-linejoin="round" stroke-width="1.0"/>
  </g>
</svg>
