<?xml version="1.0" encoding="UTF-8" standalone="no"?>
<svg xmlns:ffdec="https://www.free-decompiler.com/flash" xmlns:xlink="http://www.w3.org/1999/xlink" ffdec:objectType="shape" height="28.9px" width="30.3px" xmlns="http://www.w3.org/2000/svg">
  <g transform="matrix(1.0, 0.0, 0.0, 1.0, 16.35, 29.7)">
    <path d="M7.85 -14.0 L6.8 -9.8 Q5.85 -6.5 5.9 -4.7 3.55 -1.05 0.8 -1.3 -1.6 -1.55 -3.95 -4.75 -4.6 -6.35 -4.6 -8.05 L-4.4 -11.55 Q-5.45 -22.2 -0.1 -21.0 4.5 -20.0 7.85 -14.0" fill="#121313" fill-rule="evenodd" stroke="none"/>
    <path d="M7.85 -14.0 L6.8 -9.8 Q5.85 -6.5 5.9 -4.7 3.55 -1.05 0.8 -1.3 -1.6 -1.55 -3.95 -4.75 -4.6 -6.35 -4.6 -8.05 L-4.4 -11.55 Q-5.45 -22.2 -0.1 -21.0 4.5 -20.0 7.85 -14.0 Z" fill="none" stroke="#000000" stroke-linecap="round" stroke-linejoin="round" stroke-width="1.0"/>
    <path d="M-0.8 -27.15 L-4.2 -28.4 -1.95 -29.35 1.1 -29.15 Q2.8 -28.95 4.05 -28.35 L5.1 -26.65 2.9 -24.0 -0.2 -24.95 -0.8 -27.15" fill="#121313" fill-rule="evenodd" stroke="none"/>
    <path d="M-0.8 -27.15 L-4.2 -28.4 -1.95 -29.35 1.1 -29.15 Q2.8 -28.95 4.05 -28.35 L5.1 -26.65 2.9 -24.0 -0.2 -24.95" ffdec:has-small-stroke="true" ffdec:original-stroke-width="0.25" fill="none" stroke="#020202" stroke-linecap="round" stroke-linejoin="round" stroke-width="1.0"/>
    <path d="M-1.75 -25.35 L3.05 -24.15 5.2 -26.4 7.85 -24.85 9.85 -24.3 10.65 -22.65 9.4 -22.65 6.05 -20.95 5.65 -18.9 5.85 -15.15 6.45 -14.15 5.45 -12.95 3.65 -13.7 3.35 -14.4 3.6 -15.6 3.8 -17.75 2.25 -18.95 -2.15 -21.15 -2.3 -22.2 -1.75 -25.35" fill="#1b1c1c" fill-rule="evenodd" stroke="none"/>
    <path d="M-1.75 -25.35 L3.05 -24.15 5.2 -26.4 7.85 -24.85 9.85 -24.3 10.65 -22.65 9.4 -22.65 6.05 -20.95 5.65 -18.9 5.85 -15.15 6.45 -14.15 5.45 -12.95 3.65 -13.7 3.35 -14.4 3.6 -15.6 3.8 -17.75 2.25 -18.95 -2.15 -21.15 -2.3 -22.2 -1.75 -25.35 Z" fill="none" stroke="#0e0e0e" stroke-linecap="round" stroke-linejoin="round" stroke-opacity="0.4" stroke-width="1.0"/>
    <path d="M-8.35 -26.9 L-8.5 -27.05 -6.65 -29.2 -0.65 -27.15 -0.15 -25.0 -1.9 -25.35 -2.35 -21.7 -1.6 -20.8 Q-1.2 -20.45 1.4 -19.4 L-0.85 -18.2 -5.15 -20.25 -5.85 -24.75 -8.35 -26.9" fill="#1b1c1c" fill-rule="evenodd" stroke="none"/>
    <path d="M-8.35 -26.9 L-5.85 -24.75 -5.15 -20.25 -0.85 -18.2 1.4 -19.4 Q-1.2 -20.45 -1.6 -20.8 L-2.35 -21.7 -1.9 -25.35 -0.15 -25.0 -0.65 -27.15 -6.65 -29.2 -8.5 -27.05 -8.35 -26.9 Z" fill="none" stroke="#0e0e0e" stroke-linecap="round" stroke-linejoin="round" stroke-opacity="0.4" stroke-width="1.0"/>
    <path d="M-6.6 -29.2 L-0.85 -27.15 0.25 -24.95" fill="none" stroke="#0d0d0d" stroke-linecap="round" stroke-linejoin="round" stroke-width="1.0"/>
    <path d="M3.75 -28.35 Q5.55 -25.9 8.15 -24.85 L9.8 -24.35 12.4 -19.55" fill="none" stroke="#0a0a0a" stroke-linecap="round" stroke-linejoin="round" stroke-width="1.0"/>
    <path d="M-7.35 -9.3 L-10.35 -13.45 -9.85 -15.6 -9.2 -17.2 -8.2 -17.15 -8.3 -15.6 -7.55 -14.7 -6.3 -10.65 -7.35 -9.3" fill="url(#gradient0)" fill-rule="evenodd" stroke="none"/>
    <path d="M-7.35 -9.3 L-6.3 -10.65 -7.55 -14.7 -8.3 -15.6 -8.2 -17.15 -9.2 -17.2 -9.85 -15.6 -10.35 -13.45 -7.35 -9.3 Z" fill="none" stroke="#0e0e0e" stroke-linecap="round" stroke-linejoin="round" stroke-opacity="0.4" stroke-width="1.0"/>
    <path d="M-11.5 -28.7 L-10.65 -27.7 -8.85 -27.6 -5.9 -24.6 -4.8 -20.65 -3.2 -20.0 -3.7 -17.35 -9.2 -17.1 -10.45 -13.65 -11.8 -12.4 -14.9 -15.35 -15.85 -21.55 -15.05 -24.9 -13.7 -27.0 -11.5 -28.7" fill="#272828" fill-rule="evenodd" stroke="none"/>
    <path d="M-11.5 -28.7 L-10.65 -27.7 -8.85 -27.6 -5.9 -24.6 -4.8 -20.65 -3.2 -20.0 -3.7 -17.35 -9.2 -17.1 -10.45 -13.65 -11.8 -12.4 -14.9 -15.35 -15.85 -21.55 -15.05 -24.9 -13.7 -27.0 -11.5 -28.7 Z" fill="none" stroke="#0e0e0e" stroke-linecap="round" stroke-linejoin="round" stroke-opacity="0.4" stroke-width="1.0"/>
    <path d="M-1.8 -25.45 L-2.35 -22.3 Q-2.55 -21.15 -0.25 -20.2 2.6 -19.1 3.45 -17.8 3.85 -17.4 3.55 -15.9 3.3 -14.35 3.75 -13.7 L5.55 -13.2 6.4 -14.1" fill="none" stroke="#0d0d0d" stroke-linecap="round" stroke-linejoin="round" stroke-width="1.0"/>
    <path d="M-1.75 -25.4 L2.85 -24.0 5.0 -26.7" fill="none" stroke="#0d0d0d" stroke-linecap="round" stroke-linejoin="round" stroke-width="1.0"/>
    <path d="M-13.55 -27.2 L-12.25 -26.4 Q-13.25 -24.9 -13.25 -24.25 L-14.9 -24.7" fill="none" stroke="#181818" stroke-linecap="round" stroke-linejoin="round" stroke-width="1.0"/>
    <path d="M-15.4 -23.25 L-13.85 -22.75 Q-14.15 -22.35 -14.15 -20.5 L-15.85 -20.35" fill="none" stroke="#181818" stroke-linecap="round" stroke-linejoin="round" stroke-width="1.0"/>
    <path d="M-11.0 -13.5 L-12.15 -14.85 -11.5 -16.55 Q-12.75 -17.05 -13.15 -18.2 L-14.95 -17.8 -15.75 -18.7" fill="none" stroke="#181818" stroke-linecap="round" stroke-linejoin="round" stroke-width="1.0"/>
    <path d="M-10.45 -13.4 L-8.75 -11.65 -7.35 -9.45" fill="none" stroke="#3c1f07" stroke-linecap="round" stroke-linejoin="round" stroke-width="1.0"/>
    <path d="M-6.7 -29.1 Q-7.4 -27.85 -8.55 -27.6 -10.0 -27.3 -11.65 -28.85" fill="none" stroke="#090909" stroke-linecap="round" stroke-linejoin="round" stroke-width="1.0"/>
    <path d="M-11.65 -28.9 Q-14.75 -27.05 -15.6 -22.25 -16.45 -17.65 -14.6 -15.3 L-11.7 -12.5 -10.35 -13.55 -9.8 -15.5" fill="none" stroke="#0d0d0d" stroke-linecap="round" stroke-linejoin="round" stroke-width="1.0"/>
    <path d="M-7.7 -17.15 L-4.45 -17.9 -3.5 -19.95 -1.5 -19.95 3.35 -19.15 4.3 -15.95 7.5 -12.9 6.3 -7.5 2.2 -8.2 -1.15 -6.65 -3.3 -4.7 -6.25 -6.25 -7.3 -9.25 -6.15 -10.65 -7.05 -14.05 -8.25 -15.6 -8.05 -17.15 -7.7 -17.15" fill="#1b1c1c" fill-rule="evenodd" stroke="none"/>
    <path d="M-7.7 -17.15 L-4.45 -17.9 -3.5 -19.95 -1.5 -19.95 3.35 -19.15 4.3 -15.95 7.5 -12.9 6.3 -7.5 2.2 -8.2 -1.15 -6.65 -3.3 -4.7 -6.25 -6.25 -7.3 -9.25 -6.15 -10.65 -7.05 -14.05 -8.25 -15.6 -8.05 -17.15 -7.7 -17.15 Z" fill="none" stroke="#0e0e0e" stroke-linecap="round" stroke-linejoin="round" stroke-opacity="0.4" stroke-width="1.0"/>
    <path d="M-9.8 -15.55 L-9.1 -17.15 -3.9 -17.9 -3.75 -20.25" fill="none" stroke="#0e0e0e" stroke-linecap="round" stroke-linejoin="round" stroke-width="1.0"/>
    <path d="M-7.9 -17.2 L-8.15 -15.65 Q-6.85 -13.85 -6.35 -10.8 -6.3 -10.55 -6.75 -9.95 L-7.2 -9.15 Q-7.05 -7.7 -6.05 -6.25 L-3.5 -4.85 Q-3.05 -5.95 -1.2 -6.55 L0.5 -6.95 2.3 -8.25 6.3 -7.7 7.7 -13.15 4.3 -15.8 3.2 -19.1 -0.3 -20.25 Q-2.3 -20.65 -3.55 -19.9" fill="none" stroke="#0d0d0d" stroke-linecap="round" stroke-linejoin="round" stroke-width="1.0"/>
    <path d="M-8.6 -27.3 L-5.8 -24.55 -5.25 -21.2 -3.75 -20.3" fill="none" stroke="#090909" stroke-linecap="round" stroke-linejoin="round" stroke-width="1.0"/>
    <path d="M1.15 -23.0 Q2.05 -22.05 0.85 -21.3" ffdec:has-small-stroke="true" ffdec:original-stroke-width="0.5" fill="none" stroke="#ed8b41" stroke-linecap="round" stroke-linejoin="round" stroke-width="1.0"/>
    <path d="M-0.15 -23.25 L-1.15 -22.9 -0.6 -21.9" ffdec:has-small-stroke="true" ffdec:original-stroke-width="0.5" fill="none" stroke="#ed8b41" stroke-linecap="round" stroke-linejoin="round" stroke-width="1.0"/>
    <path d="M6.95 -25.1 Q6.7 -24.15 6.1 -23.9 L7.55 -21.7" fill="none" stroke="#0d0d0d" stroke-linecap="round" stroke-linejoin="round" stroke-width="1.0"/>
    <path d="M-4.45 -28.25 L-4.55 -26.35 Q-4.95 -25.4 -6.35 -25.35 L-4.45 -28.25" fill="#1b1c1c" fill-rule="evenodd" stroke="none"/>
    <path d="M-4.45 -28.25 L-4.55 -26.35 Q-4.95 -25.4 -6.35 -25.35" ffdec:has-small-stroke="true" ffdec:original-stroke-width="0.25" fill="none" stroke="#0d0d0d" stroke-linecap="round" stroke-linejoin="round" stroke-width="1.0"/>
    <path d="M-6.3 -25.8 L-8.05 -27.45 -7.85 -27.55 -6.65 -28.35 -6.4 -28.65 -4.95 -28.1 -4.85 -27.5 -4.95 -26.7 Q-5.0 -26.25 -5.5 -26.0 L-6.3 -25.8" fill="#272828" fill-rule="evenodd" stroke="none"/>
    <path d="M-6.3 -25.8 L-8.05 -27.45 -7.85 -27.55 -6.65 -28.35 -6.4 -28.65 -4.95 -28.1 -4.85 -27.5 -4.95 -26.7 Q-5.0 -26.25 -5.5 -26.0 L-6.3 -25.8 Z" fill="none" stroke="#0e0e0e" stroke-linecap="round" stroke-linejoin="round" stroke-opacity="0.4" stroke-width="1.0"/>
    <path d="M3.9 -9.75 L5.0 -9.55" ffdec:has-small-stroke="true" ffdec:original-stroke-width="0.25" fill="none" stroke="#151616" stroke-linecap="round" stroke-linejoin="round" stroke-width="1.0"/>
    <path d="M3.9 -10.95 L4.8 -12.1 5.4 -10.75" fill="none" stroke="#151616" stroke-linecap="round" stroke-linejoin="round" stroke-width="1.0"/>
    <path d="M-4.9 -16.15 L-3.95 -13.85" ffdec:has-small-stroke="true" ffdec:original-stroke-width="0.95" fill="none" stroke="#121212" stroke-linecap="round" stroke-linejoin="round" stroke-width="1.0"/>
    <path d="M-3.9 -13.55 Q-4.85 -10.75 -4.3 -7.65" ffdec:has-small-stroke="true" ffdec:original-stroke-width="0.95" fill="none" stroke="#151616" stroke-linecap="round" stroke-linejoin="round" stroke-width="1.0"/>
    <path d="M-0.7 -17.95 L-0.65 -17.35" ffdec:has-small-stroke="true" ffdec:original-stroke-width="0.95" fill="none" stroke="#151616" stroke-linecap="round" stroke-linejoin="round" stroke-width="1.0"/>
    <path d="M1.0 -16.4 L1.0 -15.8" ffdec:has-small-stroke="true" ffdec:original-stroke-width="0.95" fill="none" stroke="#151616" stroke-linecap="round" stroke-linejoin="round" stroke-width="1.0"/>
    <path d="M9.5 -22.6 L11.95 -21.95 12.4 -21.2 12.95 -20.05 13.2 -18.35 13.25 -16.3 13.15 -14.45 Q13.05 -13.35 12.65 -13.05 L11.15 -11.65 8.25 -11.85 Q7.95 -13.3 7.45 -13.65 L6.2 -14.5 Q5.55 -17.2 5.6 -17.75 L6.2 -20.9 9.5 -22.6" fill="#212222" fill-rule="evenodd" stroke="none"/>
    <path d="M11.45 -22.3 Q13.6 -20.6 13.45 -16.4 13.25 -12.2 10.95 -11.8" fill="none" stroke="#0d0d0d" stroke-linecap="round" stroke-linejoin="round" stroke-width="1.0"/>
    <path d="M6.35 -20.65 L7.85 -19.5 Q7.3 -18.0 7.65 -15.65 L6.25 -14.7 6.35 -20.65" fill="#212222" fill-rule="evenodd" stroke="none"/>
    <path d="M6.35 -20.65 L7.85 -19.5 Q7.3 -18.0 7.65 -15.65 L6.25 -14.7" fill="none" stroke="#151616" stroke-linecap="round" stroke-linejoin="round" stroke-width="1.0"/>
    <path d="M11.0 -11.8 L8.25 -11.9 Q7.7 -13.8 6.1 -14.65 5.05 -17.45 6.15 -20.95 L9.4 -22.65 11.6 -22.15" fill="none" stroke="#0a0a0a" stroke-linecap="round" stroke-linejoin="round" stroke-width="1.0"/>
    <path d="M8.45 -20.65 L9.4 -21.15" ffdec:has-small-stroke="true" ffdec:original-stroke-width="0.5" fill="none" stroke="#67462d" stroke-linecap="round" stroke-linejoin="round" stroke-width="1.0"/>
    <path d="M6.35 -15.35 L6.15 -16.15 Q5.95 -17.5 6.1 -18.65 L6.4 -20.0 7.3 -19.3 7.2 -18.95 Q7.05 -18.35 7.05 -17.35 L7.1 -15.85 6.4 -15.35 6.35 -15.35" fill="#272828" fill-rule="evenodd" stroke="none"/>
    <path d="M10.55 -12.9 L12.0 -16.05 Q12.15 -14.2 10.55 -12.9" fill="#212222" fill-rule="evenodd" stroke="none"/>
    <path d="M10.55 -12.9 Q12.15 -14.2 12.0 -16.05" ffdec:has-small-stroke="true" ffdec:original-stroke-width="0.95" fill="none" stroke="#141414" stroke-linecap="round" stroke-linejoin="round" stroke-width="1.0"/>
    <path d="M-0.85 -15.05 L-0.8 -14.4" ffdec:has-small-stroke="true" ffdec:original-stroke-width="0.95" fill="none" stroke="#151616" stroke-linecap="round" stroke-linejoin="round" stroke-width="1.0"/>
  </g>
  <defs>
    <linearGradient gradientTransform="matrix(0.0016, 0.0013, -0.0013, 0.0016, -8.05, -13.45)" gradientUnits="userSpaceOnUse" id="gradient0" spreadMethod="pad" x1="-819.2" x2="819.2">
      <stop offset="0.0" stop-color="#733a0b"/>
      <stop offset="1.0" stop-color="#ea7826"/>
    </linearGradient>
  </defs>
</svg>
