<?xml version="1.0" encoding="UTF-8" standalone="no"?>
<svg xmlns:ffdec="https://www.free-decompiler.com/flash" xmlns:xlink="http://www.w3.org/1999/xlink" ffdec:objectType="shape" height="28.25px" width="24.95px" xmlns="http://www.w3.org/2000/svg">
  <g transform="matrix(1.0, 0.0, 0.0, 1.0, 1.25, -0.25)">
    <path d="M20.65 17.2 L21.75 17.2 Q23.0 20.15 21.75 23.05 L19.8 23.05 Q20.6 20.65 20.15 18.35 L19.8 17.2 20.65 17.2" fill="url(#gradient0)" fill-rule="evenodd" stroke="none"/>
    <path d="M8.85 2.0 L8.95 1.95 8.9 2.0 8.85 2.0 M17.35 4.05 L17.95 4.25 17.3 4.05 17.35 4.05" fill="#323a27" fill-rule="evenodd" stroke="none"/>
    <path d="M7.8 2.15 L8.0 2.1 8.5 2.05 8.85 2.0 8.9 2.0 8.5 2.05 7.7 2.2 7.8 2.15" fill="#2f321f" fill-rule="evenodd" stroke="none"/>
    <path d="M19.8 18.35 L19.6 20.55 Q19.7 19.45 19.4 18.35 L19.8 18.35 M8.65 20.3 L8.3 20.3 8.7 19.1 10.95 19.8 8.65 20.3 M16.1 18.6 L15.15 18.85 16.1 18.45 16.1 18.6" fill="#3f3f3f" fill-rule="evenodd" stroke="none"/>
    <path d="M8.3 20.3 L8.65 20.3 8.65 22.65 7.05 22.15 6.8 20.3 8.3 20.3" fill="#1a1a1a" fill-rule="evenodd" stroke="none"/>
    <path d="M8.85 26.6 L7.25 26.6 Q5.9 25.2 6.1 23.25 L7.2 23.05 9.5 23.6 10.45 26.6 8.85 26.6" fill="url(#gradient1)" fill-rule="evenodd" stroke="none"/>
    <path d="M8.65 20.3 L10.95 19.8 15.15 18.85 16.1 18.6 16.2 23.0 8.65 22.65 8.65 20.3" fill="url(#gradient2)" fill-rule="evenodd" stroke="none"/>
    <path d="M19.6 20.55 L19.15 22.7 19.0 23.0 17.05 23.0 16.2 23.0 16.1 18.6 16.1 18.45 16.1 17.85 19.0 17.25 19.4 18.35 Q19.7 19.45 19.6 20.55" fill="url(#gradient3)" fill-rule="evenodd" stroke="none"/>
    <path d="M19.15 22.7 L20.0 23.35 Q19.95 25.4 18.95 26.8 L17.55 26.55 16.2 26.3 16.2 25.0 16.2 23.15 17.05 23.0 19.0 23.0 19.15 22.7" fill="url(#gradient4)" fill-rule="evenodd" stroke="none"/>
    <path d="M9.5 23.6 L10.05 25.0 10.45 26.6 9.5 23.6" fill="#61704c" fill-rule="evenodd" stroke="none"/>
    <path d="M23.2 13.6 L21.0 12.35 21.0 9.25 23.2 8.65 23.2 13.6 M0.2 13.4 L-0.75 12.05 -0.75 5.05 0.2 3.45 1.25 3.9 1.25 13.4 0.2 13.4" fill="#ff0000" fill-rule="evenodd" stroke="none"/>
    <path d="M3.0 15.95 L0.85 15.0 0.2 13.4 1.25 13.4 1.25 3.9 0.2 3.45 0.75 1.95 5.8 1.35 6.9 2.05 7.1 2.35 7.15 2.45 7.35 2.7 7.25 4.45 6.95 8.9 5.2 12.5 5.05 13.85 4.9 15.25 3.0 15.95" fill="url(#gradient5)" fill-rule="evenodd" stroke="none"/>
    <path d="M19.95 5.7 L22.35 5.7 23.2 7.15 23.2 8.65 21.0 9.25 21.0 12.35 23.2 13.6 23.2 14.6 22.5 16.25 21.0 15.95 19.5 15.65 19.25 15.2 18.55 13.85 16.15 13.1 16.25 8.2 18.85 7.6 19.25 6.65 19.65 5.7 19.95 5.7" fill="url(#gradient6)" fill-rule="evenodd" stroke="none"/>
    <path d="M7.2 23.05 Q6.85 21.65 6.8 20.3 L4.4 19.6 3.0 15.95 4.9 15.25 5.05 13.85 6.75 13.5 8.55 14.85 9.25 17.55 8.7 19.1 8.3 20.3 6.8 20.3 7.05 22.15 8.65 22.65 16.2 23.0 17.05 23.0 16.2 23.15 16.2 25.0 Q12.95 25.7 10.05 25.0 L9.5 23.6 7.2 23.05 M6.35 18.4 L5.7 16.25 6.35 18.4" fill="#261515" fill-rule="evenodd" stroke="none"/>
    <path d="M19.95 5.7 L19.65 5.7 19.25 6.65 15.05 5.0 16.05 4.95 17.3 4.05 17.95 4.25 18.95 4.5 19.95 5.7 M16.25 8.2 L16.15 13.1 8.55 14.85 6.75 13.5 5.05 13.85 5.2 12.5 6.95 8.9 7.25 4.45 7.45 4.45 7.45 4.7 8.9 4.7 16.25 8.2 M19.25 15.2 L19.5 15.65 21.0 15.95 20.65 17.2 19.8 17.2 20.15 18.35 19.8 18.35 19.4 18.35 19.0 17.25 16.1 17.85 16.1 18.45 15.15 18.85 10.95 19.8 8.7 19.1 9.25 17.55 19.25 15.2" fill="#120707" fill-rule="evenodd" stroke="none"/>
    <path d="M19.25 6.65 L18.85 7.6 16.25 8.2 8.9 4.7 7.45 4.7 7.45 4.45 7.25 4.45 7.35 2.7 7.15 2.45 7.7 2.2 8.5 2.05 15.05 5.0 19.25 6.65 M16.15 13.1 L18.55 13.85 19.25 15.2 9.25 17.55 8.55 14.85 16.15 13.1 M7.65 2.55 L7.35 2.7 7.65 2.55" fill="#231c1c" fill-rule="evenodd" stroke="none"/>
    <path d="M17.55 26.55 L15.4 27.75 Q12.85 28.25 10.25 27.75 L8.85 26.6 10.45 26.6 10.05 25.0 Q12.95 25.7 16.2 25.0 L16.2 26.3 17.55 26.55 M8.95 1.95 Q8.0 0.8 11.15 0.75 L17.9 2.9 17.9 3.6 17.35 4.05 17.3 4.05 16.05 4.95 15.05 5.0 8.5 2.05 8.9 2.0 8.95 1.95" fill="#1e1515" fill-rule="evenodd" stroke="none"/>
    <path d="M23.2 8.65 L23.2 7.15 22.35 5.7 19.95 5.7 18.95 4.5 17.95 4.25 17.3 4.05 16.05 4.95 15.05 5.0 19.25 6.65 18.85 7.6 16.25 8.2 16.15 13.1 18.55 13.85 19.25 15.2 19.5 15.65 21.0 15.95 22.5 16.25 23.2 14.6 23.2 13.6 21.0 12.35 21.0 9.25 23.2 8.65 M19.65 5.7 L19.25 6.65 M20.65 17.2 L21.75 17.2 Q23.0 20.15 21.75 23.05 L19.8 23.05 Q20.6 20.65 20.15 18.35 L19.8 17.2 20.65 17.2 M19.6 20.55 L19.15 22.7 19.0 23.0 17.05 23.0 16.2 23.0 8.65 22.65 8.65 20.3 10.95 19.8 8.7 19.1 8.3 20.3 6.8 20.3 7.05 22.15 8.65 22.65 M17.55 26.55 L15.4 27.75 Q12.85 28.25 10.25 27.75 L8.85 26.6 M7.2 23.05 Q6.85 21.65 6.8 20.3 L4.4 19.6 3.0 15.95 0.85 15.0 0.2 13.4 1.25 13.4 1.25 3.9 0.2 3.45 0.75 1.95 5.8 1.35 6.9 2.05 7.8 2.15 8.0 2.1 M8.95 1.95 Q8.0 0.8 11.15 0.75 L17.9 2.9 17.9 3.6 17.35 4.05 17.3 4.05 M7.7 2.2 L8.5 2.05 8.9 2.0 8.85 2.0 M7.8 2.15 L7.7 2.2 7.15 2.45 7.35 2.7 7.65 2.55 M7.1 2.35 L7.15 2.45 M6.9 2.05 L7.1 2.35 7.7 2.2 M7.45 4.7 L8.9 4.7 16.25 8.2 M7.25 4.45 L7.45 4.45 M7.35 2.7 L7.25 4.45 6.95 8.9 5.2 12.5 5.05 13.85 6.75 13.5 8.55 14.85 16.15 13.1 M5.7 16.25 L6.35 18.4 M9.25 17.55 L8.55 14.85 M5.05 13.85 L4.9 15.25 3.0 15.95 M8.3 20.3 L8.65 20.3 M10.05 25.0 Q12.95 25.7 16.2 25.0 M8.7 19.1 L9.25 17.55 19.25 15.2 M16.1 18.45 L16.1 17.85 19.0 17.25 19.4 18.35 Q19.7 19.45 19.6 20.55 M15.15 18.85 L10.95 19.8 M16.2 23.0 L16.1 18.6 15.15 18.85 M16.1 18.45 L16.1 18.6 M8.5 2.05 L15.05 5.0" fill="none" stroke="#070a0a" stroke-linecap="round" stroke-linejoin="round" stroke-width="1.0"/>
    <path d="M23.2 8.65 L23.2 13.6 M0.2 13.4 L-0.75 12.05 -0.75 5.05 0.2 3.45" fill="none" stroke="#090909" stroke-linecap="round" stroke-linejoin="round" stroke-opacity="0.3019608" stroke-width="1.0"/>
    <path d="M20.0 23.35 Q19.95 25.4 18.95 26.8 L17.55 26.55 16.2 26.3 16.2 25.0 16.2 23.15 M8.85 26.6 L7.25 26.6 Q5.9 25.2 6.1 23.25 L7.2 23.05 9.5 23.6 10.45 26.6 8.85 26.6 Z" fill="none" stroke="#000000" stroke-linecap="round" stroke-linejoin="round" stroke-width="1.0"/>
  </g>
  <defs>
    <linearGradient gradientTransform="matrix(0.0016, 0.0, 0.0, 0.0036, 21.05, 20.1)" gradientUnits="userSpaceOnUse" id="gradient0" spreadMethod="pad" x1="-819.2" x2="819.2">
      <stop offset="0.0" stop-color="#0d0d0d"/>
      <stop offset="1.0" stop-color="#1a1a1a"/>
    </linearGradient>
    <linearGradient gradientTransform="matrix(0.0027, 0.0, 0.0, 0.0022, 8.25, 24.8)" gradientUnits="userSpaceOnUse" id="gradient1" spreadMethod="pad" x1="-819.2" x2="819.2">
      <stop offset="0.0" stop-color="#0d0d0d"/>
      <stop offset="1.0" stop-color="#1a1a1a"/>
    </linearGradient>
    <linearGradient gradientTransform="matrix(0.0046, 0.0, 0.0, 0.0028, 12.4, 20.9)" gradientUnits="userSpaceOnUse" id="gradient2" spreadMethod="pad" x1="-819.2" x2="819.2">
      <stop offset="0.0" stop-color="#0d0d0d"/>
      <stop offset="1.0" stop-color="#1a1a1a"/>
    </linearGradient>
    <linearGradient gradientTransform="matrix(0.0021, 0.0, 0.0, 0.0035, 17.85, 20.1)" gradientUnits="userSpaceOnUse" id="gradient3" spreadMethod="pad" x1="-819.2" x2="819.2">
      <stop offset="0.0" stop-color="#0d0d0d"/>
      <stop offset="1.0" stop-color="#1a1a1a"/>
    </linearGradient>
    <linearGradient gradientTransform="matrix(0.0023, 0.0, 0.0, 0.0025, 18.1, 24.75)" gradientUnits="userSpaceOnUse" id="gradient4" spreadMethod="pad" x1="-819.2" x2="819.2">
      <stop offset="0.0" stop-color="#0d0d0d"/>
      <stop offset="1.0" stop-color="#1a1a1a"/>
    </linearGradient>
    <radialGradient cx="0" cy="0" gradientTransform="matrix(0.007, 0.0, 0.0, 0.0155, 6.3, 8.2)" gradientUnits="userSpaceOnUse" id="gradient5" r="819.2" spreadMethod="pad">
      <stop offset="0.0" stop-color="#2a1313"/>
      <stop offset="0.6588235294117647" stop-color="#351818"/>
      <stop offset="1.0" stop-color="#623232"/>
    </radialGradient>
    <radialGradient cx="0" cy="0" gradientTransform="matrix(0.0076, 0.0, 0.0, 0.0095, 18.4, 10.6)" gradientUnits="userSpaceOnUse" id="gradient6" r="819.2" spreadMethod="pad">
      <stop offset="0.0" stop-color="#2a1313"/>
      <stop offset="0.6588235294117647" stop-color="#351818"/>
      <stop offset="1.0" stop-color="#623232"/>
    </radialGradient>
  </defs>
</svg>
