<?xml version="1.0" encoding="UTF-8" standalone="no"?>
<svg xmlns:ffdec="https://www.free-decompiler.com/flash" xmlns:xlink="http://www.w3.org/1999/xlink" ffdec:objectType="shape" height="18.45px" width="19.15px" xmlns="http://www.w3.org/2000/svg">
  <g transform="matrix(1.0, 0.0, 0.0, 1.0, 9.15, 9.05)">
    <path d="M2.25 0.4 L5.1 -2.35 3.8 -5.05 3.5 -6.2 3.3 -6.45 M-0.5 -4.1 L-0.5 -3.3 0.0 -2.35 0.3 -1.95 0.95 -1.25 0.95 -0.6 1.25 -0.5 1.6 0.2 2.55 3.4 2.55 3.8 2.25 4.65 M8.55 -5.45 L8.3 -5.2 8.05 -5.0 8.05 -4.85 6.7 -3.8 6.5 -3.6 5.7 -2.8 5.55 -2.8 5.1 -2.35 M6.8 -3.45 L7.65 -0.35 8.6 3.15 9.5 5.3 M7.65 -0.35 L7.25 0.05 7.0 0.05 7.0 0.3 6.6 0.3 6.6 0.75 5.2 4.65 M2.95 3.65 Q4.15 3.65 5.0 5.2 5.85 6.75 5.85 8.9 M-8.65 -5.55 L-6.2 -2.5 -4.4 -7.2 -4.4 -8.0 Q-3.95 -8.05 -4.0 -8.2 L-3.7 -8.55 M-7.55 7.05 L-7.55 6.55 Q-8.0 4.85 -7.3 3.1 L-6.35 0.05 -6.2 -0.75 -6.2 -2.5 M-1.95 5.0 L-1.55 3.75 -1.55 2.65 -1.15 -0.6 -0.9 -0.6 -0.9 -0.75 0.3 -1.95 M-4.8 -4.35 L-2.05 -1.45 -2.05 -1.1 -1.65 -0.45 M-2.9 6.15 L-3.25 5.2 -4.0 4.2 -4.15 4.2 -6.35 0.05" fill="none" stroke="#000000" stroke-linecap="round" stroke-linejoin="round" stroke-opacity="0.5019608" stroke-width="1.0"/>
  </g>
</svg>
