<?xml version="1.0" encoding="UTF-8" standalone="no"?>
<svg xmlns:ffdec="https://www.free-decompiler.com/flash" xmlns:xlink="http://www.w3.org/1999/xlink" ffdec:objectType="shape" height="30.3px" width="23.45px" xmlns="http://www.w3.org/2000/svg">
  <g transform="matrix(1.0, 0.0, 0.0, 1.0, -2.0, -1.8)">
    <path d="M19.95 7.85 Q24.05 13.05 22.45 20.65 L21.05 26.15 Q20.25 28.9 19.4 29.7 18.6 30.5 17.7 30.95 16.35 31.65 15.0 31.6 13.6 31.5 12.05 30.25 L11.3 29.6 Q9.95 27.7 8.8 24.4 L7.9 21.4 Q6.4 15.95 7.35 9.55 L9.55 6.85 Q10.1 6.45 10.85 6.3 L15.95 6.05 Q17.85 6.15 19.95 7.85" fill="#1e1e1e" fill-rule="evenodd" stroke="none"/>
    <path d="M19.95 7.85 Q17.85 6.15 15.95 6.05 L10.85 6.3 Q10.1 6.45 9.55 6.85 L7.35 9.55 Q6.4 15.95 7.9 21.4 L8.8 24.4 Q9.95 27.7 11.3 29.6 L12.05 30.25 Q13.6 31.5 15.0 31.6 16.35 31.65 17.7 30.95 18.6 30.5 19.4 29.7 20.25 28.9 21.05 26.15 L22.45 20.65 Q24.05 13.05 19.95 7.85 Z" fill="none" stroke="#070707" stroke-linecap="round" stroke-linejoin="round" stroke-width="1.0"/>
    <path d="M11.75 6.4 Q15.9 5.9 21.25 7.6 20.9 9.0 19.65 9.05 L14.75 8.25 12.7 8.1 11.65 6.4 11.75 6.4" fill="url(#gradient0)" fill-rule="evenodd" stroke="none"/>
    <path d="M7.15 9.7 L6.85 11.4 7.1 12.4 3.3 12.05 3.35 10.9 2.7 9.8 3.9 8.65 4.45 6.8 6.95 7.7 Q6.7 8.6 7.1 9.7 L7.15 9.7" fill="url(#gradient1)" fill-rule="evenodd" stroke="none"/>
    <path d="M4.45 6.8 L3.95 5.4 5.45 4.4 6.6 2.3 9.45 4.95 Q7.25 6.05 6.95 7.7 L4.45 6.8" fill="url(#gradient2)" fill-rule="evenodd" stroke="none"/>
    <path d="M3.3 12.05 L7.1 12.4 Q7.15 13.1 6.7 13.45 L6.7 14.85 7.3 16.15 4.05 16.5 3.75 15.35 2.5 14.15 3.25 12.9 3.3 12.05" fill="url(#gradient3)" fill-rule="evenodd" stroke="none"/>
    <path d="M7.3 16.15 Q7.4 16.85 7.05 17.35 L7.25 18.6 7.25 18.7 7.1 18.8 Q4.8 19.9 4.7 24.25 L3.75 19.65 4.15 17.2 4.05 16.5 7.3 16.15" fill="url(#gradient4)" fill-rule="evenodd" stroke="none"/>
    <path d="M11.75 6.4 L11.65 6.4 12.7 8.1 14.75 8.25 Q15.2 10.1 17.15 11.5 12.4 12.35 7.15 9.7 L7.1 9.7 Q6.7 8.6 6.95 7.7 7.25 6.05 9.45 4.95 L11.75 6.4" fill="url(#gradient5)" fill-rule="evenodd" stroke="none"/>
    <path d="M19.6 13.0 Q21.25 13.75 20.05 15.05 12.6 15.85 6.7 13.45 7.15 13.1 7.1 12.4 L6.85 11.4 Q12.3 14.1 19.6 13.0" fill="url(#gradient6)" fill-rule="evenodd" stroke="none"/>
    <path d="M21.85 19.55 Q23.15 19.7 22.7 21.25 15.3 23.6 9.15 21.1 L7.95 20.8 7.1 20.2 7.1 18.8 7.25 18.7 7.25 18.6 Q14.85 21.45 21.85 19.55" fill="url(#gradient7)" fill-rule="evenodd" stroke="none"/>
    <path d="M20.5 16.2 Q22.0 16.75 21.25 18.05 13.75 19.85 7.05 17.35 7.4 16.85 7.3 16.15 L6.7 14.85 Q12.3 17.7 20.5 16.2" fill="url(#gradient8)" fill-rule="evenodd" stroke="none"/>
    <path d="M9.15 21.1 Q10.35 22.5 11.0 26.6 10.35 29.65 8.65 27.2 8.5 23.6 6.7 21.6 6.15 21.0 7.1 20.2 L7.95 20.8 9.15 21.1" fill="url(#gradient9)" fill-rule="evenodd" stroke="none"/>
    <path d="M24.15 14.05 L23.9 13.35 24.55 11.75 Q25.05 13.6 24.9 16.0 L24.9 15.75 24.8 14.85 24.9 15.1 24.9 14.7 24.45 12.55 24.65 14.2 24.15 14.05" fill="url(#gradient10)" fill-rule="evenodd" stroke="none"/>
    <path d="M24.9 16.35 L24.9 16.0 22.8 15.0 22.55 15.7 22.1 15.9 22.1 17.25 21.95 15.95 21.15 16.2 22.3 15.55 22.65 14.7 20.6 14.55 23.7 14.55 22.8 13.6 22.65 13.1 21.25 14.1 22.15 13.1 19.35 12.25 23.05 12.9 22.0 10.3 23.8 13.95 24.15 14.05 24.65 14.2 24.45 12.55 24.9 14.7 24.9 15.1 24.8 14.85 24.75 14.8 24.9 15.75 24.9 16.0 24.95 16.4 24.9 16.35 M21.75 10.95 L21.9 11.05 21.9 11.1 21.75 10.95" fill="#53534e" fill-rule="evenodd" stroke="none"/>
    <path d="M19.6 13.0 L18.95 11.15 21.45 7.9 23.8 9.85 24.55 11.75 23.9 13.35 24.15 14.05 23.8 13.95 22.0 10.3 23.05 12.9 19.35 12.25 22.15 13.1 21.25 14.1 22.65 13.1 22.8 13.6 23.7 14.55 20.6 14.55 22.65 14.7 22.3 15.55 21.15 16.2 21.95 15.95 22.1 17.25 22.1 15.9 22.55 15.7 22.8 15.0 24.9 16.0 24.9 16.35 Q24.75 18.55 24.05 21.25 L22.7 21.25 Q23.15 19.7 21.85 19.55 L21.25 18.05 Q22.0 16.75 20.5 16.2 L20.05 15.05 Q21.25 13.75 19.6 13.0 M21.75 10.95 L21.9 11.1 21.9 11.05 21.75 10.95 M24.9 15.75 L24.75 14.8 24.8 14.85 24.9 15.75" fill="url(#gradient11)" fill-rule="evenodd" stroke="none"/>
    <path d="M24.55 11.75 L23.8 9.85 21.45 7.9 18.95 11.15 19.6 13.0 Q21.25 13.75 20.05 15.05 L20.5 16.2 Q22.0 16.75 21.25 18.05 L21.85 19.55 Q23.15 19.7 22.7 21.25 L24.05 21.25 Q24.75 18.55 24.9 16.35 L24.9 16.0 Q25.05 13.6 24.55 11.75 M14.75 8.25 L19.65 9.05 Q20.9 9.0 21.25 7.6 15.9 5.9 11.75 6.4 L11.65 6.4 12.7 8.1 14.75 8.25 Q15.2 10.1 17.15 11.5 12.4 12.35 7.15 9.7 L6.85 11.4 Q12.3 14.1 19.6 13.0 M9.45 4.95 L6.6 2.3 5.45 4.4 3.95 5.4 4.45 6.8 6.95 7.7 Q7.25 6.05 9.45 4.95 L11.75 6.4 M4.45 6.8 L3.9 8.65 2.7 9.8 3.35 10.9 3.3 12.05 7.1 12.4 6.85 11.4 M6.95 7.7 Q6.7 8.6 7.1 9.7 L7.15 9.7 M7.3 16.15 L6.7 14.85 6.7 13.45 Q7.15 13.1 7.1 12.4 M7.05 17.35 Q7.4 16.85 7.3 16.15 L4.05 16.5 4.15 17.2 3.75 19.65 4.7 24.25 Q4.8 19.9 7.1 18.8 L7.25 18.7 7.25 18.6 7.05 17.35 Q13.75 19.85 21.25 18.05 M4.05 16.5 L3.75 15.35 2.5 14.15 3.25 12.9 3.3 12.05 M7.1 20.2 Q6.15 21.0 6.7 21.6 8.5 23.6 8.65 27.2 10.35 29.65 11.0 26.6 10.35 22.5 9.15 21.1 L7.95 20.8 7.1 20.2 7.1 18.8 M6.7 13.45 Q12.6 15.85 20.05 15.05 M9.15 21.1 Q15.3 23.6 22.7 21.25 M7.25 18.6 Q14.85 21.45 21.85 19.55 M20.5 16.2 Q12.3 17.7 6.7 14.85" fill="none" stroke="#353532" stroke-linecap="round" stroke-linejoin="round" stroke-width="1.0"/>
    <path d="M19.7 24.1 L17.9 25.5 Q14.0 26.65 10.3 24.95 7.85 24.6 9.45 22.9 14.05 24.9 19.7 24.1" fill="url(#gradient12)" fill-rule="evenodd" stroke="none"/>
    <path d="M15.8 27.7 Q12.8 29.3 9.95 28.15 8.05 27.8 9.25 26.1 12.85 28.1 15.8 27.7" fill="url(#gradient13)" fill-rule="evenodd" stroke="none"/>
    <path d="M19.7 24.1 Q14.05 24.9 9.45 22.9 7.85 24.6 10.3 24.95 14.0 26.65 17.9 25.5 L19.7 24.1 M15.8 27.7 Q12.85 28.1 9.25 26.1 8.05 27.8 9.95 28.15 12.8 29.3 15.8 27.7 Z" fill="none" stroke="#353532" stroke-linecap="round" stroke-linejoin="round" stroke-width="1.0"/>
  </g>
  <defs>
    <radialGradient cx="0" cy="0" gradientTransform="matrix(0.006, 0.0, 0.0, 0.006, 16.35, 7.75)" gradientUnits="userSpaceOnUse" id="gradient0" r="819.2" spreadMethod="pad">
      <stop offset="0.0" stop-color="#afafa0"/>
      <stop offset="1.0" stop-color="#66665d"/>
    </radialGradient>
    <radialGradient cx="0" cy="0" gradientTransform="matrix(0.0047, 0.0, 0.0, 0.0047, 4.4, 7.7)" gradientUnits="userSpaceOnUse" id="gradient1" r="819.2" spreadMethod="pad">
      <stop offset="0.0" stop-color="#afafa0"/>
      <stop offset="1.0" stop-color="#66665d"/>
    </radialGradient>
    <radialGradient cx="0" cy="0" gradientTransform="matrix(0.0042, 0.0, 0.0, 0.0042, 6.6, 3.95)" gradientUnits="userSpaceOnUse" id="gradient2" r="819.2" spreadMethod="pad">
      <stop offset="0.0" stop-color="#afafa0"/>
      <stop offset="1.0" stop-color="#66665d"/>
    </radialGradient>
    <radialGradient cx="0" cy="0" gradientTransform="matrix(0.0046, 0.0, 0.0, 0.0046, 2.9, 12.2)" gradientUnits="userSpaceOnUse" id="gradient3" r="819.2" spreadMethod="pad">
      <stop offset="0.0" stop-color="#afafa0"/>
      <stop offset="1.0" stop-color="#66665d"/>
    </radialGradient>
    <radialGradient cx="0" cy="0" gradientTransform="matrix(0.0073, 0.0, 0.0, 0.0073, 3.75, 15.35)" gradientUnits="userSpaceOnUse" id="gradient4" r="819.2" spreadMethod="pad">
      <stop offset="0.0" stop-color="#afafa0"/>
      <stop offset="1.0" stop-color="#66665d"/>
    </radialGradient>
    <radialGradient cx="0" cy="0" gradientTransform="matrix(0.0095, 0.0, 0.0, 0.0095, 8.65, 6.55)" gradientUnits="userSpaceOnUse" id="gradient5" r="819.2" spreadMethod="pad">
      <stop offset="0.0" stop-color="#afafa0"/>
      <stop offset="1.0" stop-color="#66665d"/>
    </radialGradient>
    <radialGradient cx="0" cy="0" gradientTransform="matrix(0.0132, 0.0, 0.0, 0.0132, 21.9, 13.65)" gradientUnits="userSpaceOnUse" id="gradient6" r="819.2" spreadMethod="pad">
      <stop offset="0.0" stop-color="#afafa0"/>
      <stop offset="1.0" stop-color="#66665d"/>
    </radialGradient>
    <radialGradient cx="0" cy="0" gradientTransform="matrix(0.0113, 0.0, 0.0, 0.0113, 19.95, 20.8)" gradientUnits="userSpaceOnUse" id="gradient7" r="819.2" spreadMethod="pad">
      <stop offset="0.0" stop-color="#afafa0"/>
      <stop offset="1.0" stop-color="#66665d"/>
    </radialGradient>
    <radialGradient cx="0" cy="0" gradientTransform="matrix(0.0126, 0.0, 0.0, 0.0126, 19.9, 16.8)" gradientUnits="userSpaceOnUse" id="gradient8" r="819.2" spreadMethod="pad">
      <stop offset="0.0" stop-color="#afafa0"/>
      <stop offset="1.0" stop-color="#66665d"/>
    </radialGradient>
    <radialGradient cx="0" cy="0" gradientTransform="matrix(0.0073, 0.0, 0.0, 0.0073, 13.45, 13.25)" gradientUnits="userSpaceOnUse" id="gradient9" r="819.2" spreadMethod="pad">
      <stop offset="0.0" stop-color="#afafa0"/>
      <stop offset="1.0" stop-color="#66665d"/>
    </radialGradient>
    <radialGradient cx="0" cy="0" gradientTransform="matrix(0.0115, 0.0, 0.0, 0.0115, 25.25, 10.95)" gradientUnits="userSpaceOnUse" id="gradient10" r="819.2" spreadMethod="pad">
      <stop offset="0.0" stop-color="#afafa0"/>
      <stop offset="1.0" stop-color="#66665d"/>
    </radialGradient>
    <radialGradient cx="0" cy="0" gradientTransform="matrix(0.0123, 0.0, 0.0, 0.0123, 23.65, 11.35)" gradientUnits="userSpaceOnUse" id="gradient11" r="819.2" spreadMethod="pad">
      <stop offset="0.0" stop-color="#afafa0"/>
      <stop offset="1.0" stop-color="#66665d"/>
    </radialGradient>
    <radialGradient cx="0" cy="0" fx="307.20000000000005" fy="0" gradientTransform="matrix(0.0071, 0.0, 0.0, 0.0071, 15.85, 23.9)" gradientUnits="userSpaceOnUse" id="gradient12" r="819.2" spreadMethod="pad">
      <stop offset="0.0" stop-color="#afafa0"/>
      <stop offset="1.0" stop-color="#66665d"/>
    </radialGradient>
    <radialGradient cx="0" cy="0" gradientTransform="matrix(0.0066, 0.0, 0.0, 0.0066, 14.35, 26.95)" gradientUnits="userSpaceOnUse" id="gradient13" r="819.2" spreadMethod="pad">
      <stop offset="0.0" stop-color="#afafa0"/>
      <stop offset="1.0" stop-color="#66665d"/>
    </radialGradient>
  </defs>
</svg>
