<?xml version="1.0" encoding="UTF-8" standalone="no"?>
<svg xmlns:ffdec="https://www.free-decompiler.com/flash" xmlns:xlink="http://www.w3.org/1999/xlink" ffdec:objectType="shape" height="17.4px" width="40.95px" xmlns="http://www.w3.org/2000/svg">
  <g transform="matrix(1.0, 0.0, 0.0, 1.0, 1.15, 0.25)">
    <path d="M10.35 7.75 L24.35 5.45 25.15 13.5 10.35 9.7 10.35 7.75" fill="url(#gradient0)" fill-rule="evenodd" stroke="none"/>
    <path d="M12.95 3.95 L39.3 3.95" fill="none" stroke="url(#gradient1)" stroke-linecap="round" stroke-linejoin="round" stroke-width="1.0"/>
    <path d="M7.9 14.05 L8.9 14.85 9.4 14.95 8.5 16.65 4.4 15.75 3.55 15.2 3.1 13.3 4.45 13.7 7.9 14.05" fill="#2c0000" fill-rule="evenodd" stroke="none"/>
    <path d="M8.05 12.35 L7.9 14.05 4.45 13.7 3.1 13.3 Q1.6 12.85 0.65 10.7 L0.05 9.2 0.0 7.65 3.05 9.75 3.95 11.5 8.05 12.35 M0.4 4.55 L1.25 3.05 Q2.35 0.95 4.8 0.45 6.5 0.1 9.75 0.45 L12.1 1.3 Q13.0 1.65 13.7 2.1 L9.5 3.1 7.2 4.65 6.7 3.95 4.75 4.05 2.5 5.8 0.4 4.55" fill="#460000" fill-rule="evenodd" stroke="none"/>
    <path d="M11.8 12.15 L10.8 12.7 8.05 12.35 3.95 11.5 3.05 9.75 0.0 7.65 -0.65 7.3 0.15 4.4 0.4 4.55 2.5 5.8 4.75 4.05 6.7 3.95 7.2 4.65 8.45 6.05 6.2 7.9 6.95 10.2 11.8 12.15 M6.2 7.85 L6.2 7.9 6.2 7.85 2.5 5.8 6.2 7.85" fill="#5b0404" fill-rule="evenodd" stroke="none"/>
    <path d="M14.55 6.5 L14.6 6.55 Q15.15 8.7 14.55 10.8 L13.1 10.9 11.8 12.15 6.95 10.2 6.2 7.9 8.45 6.05 14.55 6.5" fill="url(#gradient2)" fill-rule="evenodd" stroke="none"/>
    <path d="M14.55 6.5 L14.6 6.55 M8.9 14.85 L9.4 14.95 8.5 16.65 4.4 15.75 3.55 15.2 3.1 13.3 Q1.6 12.85 0.65 10.7 L0.05 9.2 0.0 7.65 -0.65 7.3 M0.4 4.55 L1.25 3.05 Q2.35 0.95 4.8 0.45 6.5 0.1 9.75 0.45 L12.1 1.3 Q13.0 1.65 13.7 2.1 M6.7 3.95 L7.2 4.65 M6.2 7.9 L6.2 7.85 M3.1 13.3 L4.45 13.7 7.9 14.05" fill="none" stroke="#1f0000" stroke-linecap="round" stroke-linejoin="round" stroke-width="1.0"/>
    <path d="M-0.65 7.3 L0.15 4.4 0.4 4.55 2.5 5.8 4.75 4.05 6.7 3.95 M0.0 7.65 L3.05 9.75 3.95 11.5 8.05 12.35 M11.8 12.15 L6.95 10.2 6.2 7.9 8.45 6.05 M6.2 7.85 L2.5 5.8" fill="none" stroke="#330000" stroke-linecap="round" stroke-linejoin="round" stroke-width="1.0"/>
    <path d="M14.55 10.8 Q15.2 8.65 14.6 6.55" fill="none" stroke="#5b4900" stroke-linecap="round" stroke-linejoin="round" stroke-width="1.0"/>
    <path d="M4.05 8.65 L4.9 10.4" fill="none" stroke="#410000" stroke-linecap="round" stroke-linejoin="round" stroke-width="1.0"/>
    <path d="M15.45 10.8 Q16.15 12.55 15.5 14.15 15.1 15.15 14.2 15.75 L10.4 16.3 5.35 13.8 4.7 12.9 6.45 12.55 8.1 11.6 10.8 12.7 11.8 12.15 13.1 10.9 15.45 10.8 M15.8 3.8 L15.8 5.9 14.6 6.55 8.45 6.05 15.2 6.2 15.8 3.8 15.2 6.2 8.45 6.05 7.2 4.65 12.7 0.8 Q15.3 1.85 15.75 3.8 L15.8 3.8 M11.6 14.05 L13.75 12.4 11.6 14.05" fill="#2c2c2c" fill-rule="evenodd" stroke="none"/>
    <path d="M15.45 10.8 Q16.15 12.55 15.5 14.15 15.1 15.15 14.2 15.75 L10.4 16.3 5.35 13.8 4.7 12.9 6.45 12.55 8.1 11.6 10.8 12.7 11.8 12.15 13.1 10.9 15.45 10.8" fill="none" stroke="#171717" stroke-linecap="round" stroke-linejoin="round" stroke-width="1.0"/>
    <path d="M13.75 12.4 L11.6 14.05" fill="none" stroke="#191919" stroke-linecap="round" stroke-linejoin="round" stroke-width="1.0"/>
    <path d="M15.8 3.8 L15.2 6.2 8.45 6.05" fill="none" stroke="#483a00" stroke-linecap="round" stroke-linejoin="round" stroke-width="1.0"/>
    <path d="M7.2 4.65 L12.7 0.8 Q15.3 1.85 15.75 3.8 16.15 5.4 15.75 6.85 L14.7 6.85 8.45 6.05 7.2 4.65 Z" fill="none" stroke="#171717" stroke-linecap="round" stroke-linejoin="round" stroke-width="1.0"/>
  </g>
  <defs>
    <linearGradient gradientTransform="matrix(0.0113, 0.0, 0.0, 0.0083, 13.95, 9.4)" gradientUnits="userSpaceOnUse" id="gradient0" spreadMethod="pad" x1="-819.2" x2="819.2">
      <stop offset="0.0" stop-color="#ffee00" stop-opacity="0.5764706"/>
      <stop offset="1.0" stop-color="#ffd200" stop-opacity="0.0"/>
      <stop offset="1.0" stop-color="#f7ec9a" stop-opacity="0.0"/>
    </linearGradient>
    <linearGradient gradientTransform="matrix(0.0167, 0.0, 0.0, 6.0E-4, 19.8, 3.9)" gradientUnits="userSpaceOnUse" id="gradient1" spreadMethod="pad" x1="-819.2" x2="819.2">
      <stop offset="0.0" stop-color="#ffee00"/>
      <stop offset="1.0" stop-color="#ffd200" stop-opacity="0.0"/>
      <stop offset="1.0" stop-color="#f7ec9a" stop-opacity="0.0"/>
    </linearGradient>
    <linearGradient gradientTransform="matrix(0.0053, -1.0E-4, 1.0E-4, 0.0037, 10.5, 9.05)" gradientUnits="userSpaceOnUse" id="gradient2" spreadMethod="pad" x1="-819.2" x2="819.2">
      <stop offset="0.0" stop-color="#ffee00"/>
      <stop offset="0.4196078431372549" stop-color="#f7ec9a"/>
      <stop offset="1.0" stop-color="#ffd200"/>
    </linearGradient>
  </defs>
</svg>
