<?xml version="1.0" encoding="UTF-8" standalone="no"?>
<svg xmlns:ffdec="https://www.free-decompiler.com/flash" xmlns:xlink="http://www.w3.org/1999/xlink" ffdec:objectType="shape" height="41.65px" width="22.9px" xmlns="http://www.w3.org/2000/svg">
  <g transform="matrix(1.0, 0.0, 0.0, 1.0, 0.5, 0.5)">
    <path d="M16.5 24.4 Q13.15 21.4 14.1 18.15 15.0 14.85 14.9 9.7 14.7 4.55 18.2 5.75 L17.9 6.1 Q18.9 8.45 19.25 11.35 19.95 16.15 19.9 21.75 19.85 27.35 16.5 24.4" fill="url(#gradient0)" fill-rule="evenodd" stroke="none"/>
    <path d="M17.9 6.1 Q18.9 8.45 19.25 11.35 19.95 16.15 19.9 21.75 19.85 27.35 16.5 24.4" fill="none" stroke="#000000" stroke-linecap="round" stroke-linejoin="round" stroke-width="1.0"/>
    <path d="M11.15 16.25 L9.4 14.3 10.25 11.95 10.5 10.7 12.9 11.2 13.55 13.75 11.15 16.25 13.55 13.75 12.9 11.2 10.5 10.7 9.4 8.5 8.4 7.45 9.7 6.05 Q13.75 5.3 16.7 8.2 L18.2 11.0 17.55 13.95 17.4 15.95 16.35 16.1 16.1 16.0 13.4 16.15 11.15 16.25 M17.2 14.0 L17.0 13.95 16.15 13.95 17.2 14.0 17.55 13.95 17.2 14.0 M16.15 13.95 L13.55 13.75 16.15 13.95" fill="#222222" fill-rule="evenodd" stroke="none"/>
    <path d="M16.15 13.95 L17.0 13.95 17.2 14.0 16.15 13.95" fill="url(#gradient1)" fill-rule="evenodd" stroke="none"/>
    <path d="M17.4 15.95 Q15.8 16.85 17.25 17.75 L16.65 17.4 16.35 16.1 17.4 15.95" fill="#191919" fill-rule="evenodd" stroke="none"/>
    <path d="M16.1 16.0 L13.4 16.15 16.1 16.0" fill="url(#gradient2)" fill-rule="evenodd" stroke="none"/>
    <path d="M10.5 10.7 L10.25 11.95 9.4 14.3 11.15 16.25 13.55 13.75 12.9 11.2 10.5 10.7 9.4 8.5 8.4 7.45 9.7 6.05 Q13.75 5.3 16.7 8.2 L18.2 11.0 17.55 13.95 17.4 15.95 16.35 16.1 16.1 16.0 13.4 16.15 11.15 16.25 M17.2 14.0 L17.55 13.95 M16.15 13.95 L17.2 14.0 M13.55 13.75 L16.15 13.95" fill="none" stroke="#000000" stroke-linecap="round" stroke-linejoin="round" stroke-width="1.0"/>
    <path d="M15.2 14.2 L15.15 14.3 15.05 14.4 14.85 14.35 14.8 14.3 14.8 14.15 14.95 14.1 15.1 14.1 15.2 14.2" fill="#cc9b6e" fill-rule="evenodd" stroke="none"/>
    <path d="M19.9 13.7 L19.9 13.75 19.8 15.6 19.75 15.9 19.75 16.0 19.75 15.9 19.8 15.6 19.9 13.75 19.9 13.7 20.0 13.7 20.0 13.75 19.8 16.05 19.75 16.0 19.75 16.05 14.35 15.5 16.2 12.7 15.6 13.7 Q17.65 10.65 19.9 13.7 M19.75 15.9 L19.8 16.05 19.75 15.9" fill="#3d3011" fill-rule="evenodd" stroke="none"/>
    <path d="M20.0 13.7 L20.1 13.7 20.1 13.9 20.0 13.75 20.0 13.7" fill="#282828" fill-rule="evenodd" stroke="none"/>
    <path d="M14.35 15.5 L19.75 16.05 19.6 19.7 19.45 22.25 19.4 22.3 15.75 22.4 15.0 20.05 16.05 19.7 15.7 18.4 13.6 16.65 13.9 16.2 13.6 16.65 13.55 16.6 13.9 16.2 13.95 16.05 14.35 15.5 M19.6 19.7 L19.4 22.3 19.6 19.7" fill="#3d3b36" fill-rule="evenodd" stroke="none"/>
    <path d="M19.75 16.0 L19.75 15.9 19.8 15.6 19.9 13.75 19.9 13.7 M16.2 12.7 L14.35 15.5 13.95 16.05 13.9 16.2 13.6 16.65 13.55 16.65 15.65 18.45 16.05 19.7 15.0 20.0 15.0 20.05 15.75 22.4 19.4 22.3 19.6 19.7 19.75 16.05 19.75 16.0 19.8 16.05 19.75 15.9 M16.4 12.35 L16.2 12.7" fill="none" stroke="#1f1c15" stroke-linecap="round" stroke-linejoin="round" stroke-width="1.0"/>
    <path d="M16.0 15.45 L15.2 14.3 15.45 12.1 16.9 12.2 18.75 12.5 18.95 12.55 19.8 12.8 Q20.75 14.5 20.55 16.0 L16.0 15.45" fill="#070707" fill-rule="evenodd" stroke="none"/>
    <path d="M20.55 16.0 L20.2 17.9 19.9 19.75 19.5 21.6 19.25 23.15 Q19.1 23.95 17.0 24.35 L15.7 21.75 15.85 20.2 15.95 19.0 15.9 18.6 16.0 17.15 16.0 15.45 20.55 16.0 M16.0 17.15 L20.2 17.9 16.0 17.15 M19.9 19.75 L15.9 18.6 19.9 19.75 M19.5 21.6 L15.85 20.2 19.5 21.6" fill="#111111" fill-rule="evenodd" stroke="none"/>
    <path d="M15.85 20.2 L15.8 20.15 15.95 19.0 15.85 20.2" fill="#383838" fill-rule="evenodd" stroke="none"/>
    <path d="M16.0 15.45 L15.2 14.3 15.45 12.1 16.9 12.2 18.75 12.5 18.95 12.55 19.8 12.8 Q20.75 14.5 20.55 16.0 L20.2 17.9 19.9 19.75 19.5 21.6 19.25 23.15 Q19.1 23.95 17.0 24.35 L15.7 21.75 15.85 20.2 15.8 20.15 15.95 19.0 15.9 18.6 16.0 17.15 16.0 15.45 20.55 16.0 M20.2 17.9 L16.0 17.15 M15.95 19.0 L15.85 20.2 19.5 21.6 M15.9 18.6 L19.9 19.75" fill="none" stroke="#0e0d0d" stroke-linecap="round" stroke-linejoin="round" stroke-width="1.0"/>
    <path d="M21.2 6.65 L21.25 6.75 21.4 7.65 21.3 7.7 21.3 7.75 21.8 12.25 21.95 13.45 20.05 13.4 20.0 13.4 19.6 13.3 19.25 13.25 18.25 8.4 Q17.35 5.45 12.9 6.0 L12.35 4.5 14.9 3.8 15.6 4.0 16.25 4.1 16.7 4.35 Q18.4 5.0 20.5 6.2 L21.2 6.65" fill="#111111" fill-rule="evenodd" stroke="none"/>
    <path d="M21.2 6.65 L21.35 6.8 21.45 7.65 21.3 7.75 21.3 7.7 21.4 7.65 21.25 6.75 21.2 6.65 M21.8 12.25 L21.9 12.25 21.95 13.45 21.8 12.25 M14.9 3.8 L14.95 3.8 15.6 4.0 14.9 3.8" fill="#45423b" fill-rule="evenodd" stroke="none"/>
    <path d="M19.25 13.25 L18.85 13.1 18.45 12.95 17.5 12.65 16.45 12.4 16.2 10.45 16.1 9.8 15.95 8.95 13.4 8.0 12.9 6.0 Q17.35 5.45 18.25 8.4 L19.25 13.25" fill="#171717" fill-rule="evenodd" stroke="none"/>
    <path d="M20.0 13.4 L20.1 13.7 19.95 13.7 20.0 13.4" fill="#282828" fill-rule="evenodd" stroke="none"/>
    <path d="M19.95 13.7 L19.85 13.7 19.9 13.45 19.6 13.3 20.0 13.4 19.95 13.7" fill="#3d3011" fill-rule="evenodd" stroke="none"/>
    <path d="M18.85 13.1 L18.55 13.05 18.45 12.95 18.85 13.1" fill="#3f3a34" fill-rule="evenodd" stroke="none"/>
    <path d="M18.55 13.05 L17.5 12.65 18.45 12.95 18.55 13.05" fill="#3d3b36" fill-rule="evenodd" stroke="none"/>
    <path d="M20.0 13.4 L21.9 13.45 21.25 6.75 21.2 6.65 20.5 6.2 Q18.4 5.0 16.7 4.3 L16.25 4.1 15.6 4.0 14.9 3.8 12.3 4.45 12.35 4.5 13.4 7.95 15.95 8.95 16.1 9.8 16.2 10.45 16.4 12.35 16.45 12.4 19.6 13.3 19.9 13.45 20.0 13.4 Z" fill="none" stroke="#000000" stroke-linecap="round" stroke-linejoin="round" stroke-width="1.0"/>
    <path d="M19.3 18.9 L17.65 18.5 Q17.35 16.75 18.5 14.9 L19.8 14.85 21.05 15.15 Q21.4 17.25 20.65 18.9 L19.3 18.9 Q20.2 16.95 19.8 14.85 20.2 16.95 19.3 18.9" fill="#1c1c1c" fill-rule="evenodd" stroke="none"/>
    <path d="M19.3 18.9 L17.65 18.5 Q17.35 16.75 18.5 14.9 L19.8 14.85 21.05 15.15 Q21.4 17.25 20.65 18.9 L19.3 18.9 Q20.2 16.95 19.8 14.85" fill="none" stroke="#000000" stroke-linecap="round" stroke-linejoin="round" stroke-width="1.0"/>
    <path d="M18.65 23.55 Q19.55 21.6 19.15 19.5 19.55 21.6 18.65 23.55 L17.0 23.2 Q16.7 21.4 17.85 19.55 L19.15 19.5 20.4 19.8 Q20.75 21.9 20.0 23.55 L18.65 23.55" fill="#1c1c1c" fill-rule="evenodd" stroke="none"/>
    <path d="M19.15 19.5 Q19.55 21.6 18.65 23.55 L20.0 23.55 Q20.75 21.9 20.4 19.8 L19.15 19.5 17.85 19.55 Q16.7 21.4 17.0 23.2 L18.65 23.55" fill="none" stroke="#000000" stroke-linecap="round" stroke-linejoin="round" stroke-width="1.0"/>
    <path d="M19.35 22.4 Q19.25 24.95 17.05 26.0 L13.7 26.5 Q8.45 25.95 7.8 23.7 7.15 21.4 7.35 19.65 7.85 15.95 7.55 11.55 L7.05 7.2 Q6.95 5.4 7.75 4.1 9.75 2.6 17.6 3.85 L18.85 4.1 18.85 4.4 18.75 4.75 17.25 10.0 Q16.4 13.5 17.05 16.55 17.7 19.6 19.35 22.4" fill="#260e0e" fill-rule="evenodd" stroke="none"/>
    <path d="M18.85 4.1 L17.6 3.85 Q9.75 2.6 7.75 4.1 6.95 5.4 7.05 7.2 L7.55 11.55 Q7.85 15.95 7.35 19.65 7.15 21.4 7.8 23.7 8.45 25.95 13.7 26.5 L17.05 26.0 Q19.25 24.95 19.35 22.4 17.7 19.55 17.05 16.55 16.4 13.5 17.25 10.0 L18.75 4.75 18.85 4.4 18.85 4.1 Z" fill="none" stroke="#000000" stroke-linecap="round" stroke-linejoin="round" stroke-width="1.0"/>
    <path d="M9.8 15.9 L9.6 8.35 9.45 9.55 9.4 9.0 Q9.0 8.0 9.15 7.0 L9.0 7.25 9.05 7.0 8.75 8.0 8.65 8.0 7.65 16.2 8.35 8.3 7.95 9.05 7.9 9.05 Q8.65 6.6 8.1 3.9 L8.8 3.7 11.05 3.25 Q13.05 3.0 15.15 3.8 L13.5 6.7 13.65 3.75 13.2 6.55 12.95 6.6 12.95 7.65 12.55 8.3 12.4 8.0 12.5 6.4 12.45 6.7 12.25 3.75 12.25 5.45 Q11.85 8.55 11.8 10.55 11.05 16.65 11.1 14.55 L11.1 13.3 Q11.15 10.8 11.5 7.35 L11.5 5.3 11.4 5.4 11.2 6.35 10.9 7.1 11.05 6.25 10.85 7.0 10.75 6.9 10.75 6.65 10.7 6.7 10.25 8.0 Q9.8 9.35 9.8 15.9 L9.85 16.4 9.8 15.95 9.8 15.9" fill="#0a0807" fill-opacity="0.31764707" fill-rule="evenodd" stroke="none"/>
    <path d="M15.65 5.75 L15.6 5.65 15.55 5.0 15.7 4.85 15.8 4.8 16.0 4.75 16.1 4.85 16.2 5.05 16.2 5.15 15.85 5.85 15.8 5.75 15.65 5.75 M15.4 6.35 L15.5 6.25 15.6 6.2 15.6 5.9 15.7 5.85 15.85 5.95 15.65 6.25 15.65 6.35 15.55 6.3 15.6 6.5 15.45 6.5 15.4 6.35 M14.6 5.65 L14.5 5.55 14.55 5.4 14.5 5.35 14.5 5.05 14.65 4.95 14.65 4.85 14.55 4.75 14.45 4.7 14.35 4.4 14.35 4.35 14.4 4.1 14.45 4.0 14.75 3.8 14.8 3.85 14.9 3.8 15.1 3.95 15.1 4.05 15.0 4.1 14.95 4.35 14.9 4.45 14.85 4.8 14.7 4.8 14.8 5.0 14.7 5.15 14.7 5.4 14.65 5.45 14.7 5.55 14.6 5.65 M13.0 4.85 L12.9 4.55 12.9 3.95 13.2 3.9 13.4 4.0 13.4 4.65 13.35 4.8 13.2 4.85 13.0 4.85 M13.25 5.0 L13.35 5.05 13.45 5.2 13.4 5.45 13.3 5.5 13.45 5.6 13.55 5.7 13.55 5.9 13.45 6.05 13.35 6.05 13.35 6.0 13.3 5.9 13.25 5.85 13.3 5.7 13.25 5.7 13.25 5.6 13.35 5.65 13.3 5.6 13.15 5.2 13.25 5.0 M14.35 6.2 L14.35 6.1 14.3 5.9 14.3 5.75 14.4 5.65 14.45 5.75 14.45 5.85 14.55 5.85 14.6 5.9 14.65 5.85 14.7 5.95 14.6 6.1 14.6 6.15 14.55 6.2 14.35 6.2 M15.45 9.2 L15.4 9.2 15.4 9.0 15.35 9.1 15.1 9.3 15.1 9.55 14.7 10.25 14.75 10.45 14.65 10.65 14.65 11.0 14.7 11.15 14.6 11.05 14.6 10.25 14.5 10.1 14.15 10.0 13.9 9.8 13.8 9.55 13.6 9.5 13.25 9.65 13.05 9.65 12.95 9.7 12.55 9.4 12.4 9.15 12.25 9.0 12.2 8.8 12.0 8.65 12.0 8.5 11.9 8.35 11.95 8.1 11.9 8.1 11.9 7.95 12.0 7.85 12.75 7.9 12.95 8.0 13.05 8.0 13.1 8.1 13.2 8.1 13.25 8.0 13.2 7.95 13.3 7.9 13.2 7.85 13.15 7.85 13.1 7.75 12.9 7.8 12.85 7.65 13.05 7.7 13.1 7.65 13.05 7.55 13.1 7.5 13.15 7.4 13.25 7.45 13.25 7.35 13.4 7.2 13.3 7.15 13.5 7.05 13.35 6.95 13.45 6.95 13.35 6.75 13.3 6.55 13.4 6.4 13.45 6.2 13.5 6.2 13.6 6.15 13.55 6.3 13.7 6.25 13.65 6.4 13.8 6.45 13.85 6.5 13.95 6.45 14.1 6.5 14.2 6.5 14.3 6.45 14.45 6.4 14.5 6.4 14.55 6.5 14.85 6.7 14.75 6.75 14.75 6.95 14.85 7.0 14.7 6.95 14.65 7.35 14.6 7.35 14.7 7.45 14.6 7.45 14.5 7.5 14.55 7.6 14.45 7.55 14.45 7.4 14.5 7.35 14.4 7.25 14.3 7.25 14.3 7.35 14.15 7.25 14.05 7.3 14.2 7.3 14.05 7.35 14.2 7.5 14.2 7.6 14.15 7.75 14.05 7.65 14.0 7.65 14.0 7.5 13.95 7.55 13.95 7.35 13.7 7.35 13.7 7.4 13.6 7.7 13.65 8.05 13.6 8.3 13.55 8.4 13.6 8.6 13.85 9.15 13.85 9.1 14.2 8.95 14.3 8.75 14.3 8.7 14.45 8.55 14.4 8.5 14.6 8.25 14.85 8.25 14.85 8.05 14.9 7.95 15.15 7.9 15.3 7.75 15.45 7.75 15.55 7.7 15.65 7.85 15.55 7.9 15.65 8.1 15.55 8.15 15.6 8.2 15.65 8.35 15.55 8.5 15.6 8.6 15.45 8.75 15.45 9.2 15.5 9.25 15.4 9.45 15.45 9.6 15.4 9.7 15.4 10.0 15.3 9.95 15.35 9.7 15.4 9.6 15.4 9.45 15.45 9.2 M11.1 9.25 L11.1 9.05 11.15 8.95 11.15 8.7 11.1 8.6 11.1 7.25 11.05 7.15 11.1 6.95 10.95 6.65 11.0 6.5 11.1 6.45 11.3 6.45 11.3 6.55 11.45 6.65 11.5 6.8 11.6 6.95 11.6 7.15 11.75 7.25 11.8 7.3 11.7 7.45 11.6 7.4 11.45 7.4 11.45 7.5 11.45 7.65 11.5 7.65 11.45 7.8 11.45 7.5 11.35 7.5 11.35 7.35 11.4 7.3 11.3 7.3 11.25 7.35 11.2 7.75 11.2 7.95 11.25 8.05 11.2 8.05 11.2 8.2 11.15 8.3 11.25 8.3 11.2 8.6 11.15 8.6 11.25 8.7 11.25 8.95 11.15 9.0 11.1 9.25 11.2 9.3 11.15 10.05 11.1 10.2 11.0 10.15 11.0 9.75 11.1 9.6 11.1 9.25 M11.4 8.5 L11.3 8.5 11.3 8.1 11.4 7.95 11.4 8.5 M14.7 11.25 L14.75 11.75 14.75 12.85 14.6 12.85 14.5 12.6 14.5 12.35 14.55 12.2 14.7 11.4 14.7 11.25 M16.5 9.2 L16.5 8.95 16.6 8.95 16.55 8.2 16.5 8.05 16.5 7.75 16.6 7.6 16.55 7.3 16.45 7.2 16.45 7.25 16.3 6.95 16.45 6.7 16.75 6.5 16.85 6.4 17.0 6.55 17.0 6.8 16.95 6.95 16.9 7.35 16.8 7.45 16.8 7.55 16.95 7.7 16.9 7.9 16.85 7.95 16.75 7.8 16.8 7.45 16.85 7.35 16.85 7.05 16.8 7.0 16.7 7.1 16.7 7.25 16.65 7.3 16.65 8.05 16.7 8.15 16.65 8.9 16.55 9.05 16.5 9.2 16.6 9.35 16.6 9.5 16.5 9.6 16.5 9.2 M15.25 6.7 L15.35 6.5 15.4 6.5 15.55 6.6 15.5 6.65 15.5 6.75 15.45 6.9 15.2 6.8 15.2 6.7 15.25 6.7 M15.65 7.45 L15.85 7.35 15.85 7.3 15.9 7.25 16.1 7.15 16.25 7.1 16.35 7.2 16.35 7.3 Q16.2 7.45 16.0 7.55 L15.9 7.55 15.7 7.6 15.65 7.45" fill="#000000" fill-rule="evenodd" stroke="none"/>
    <path d="M9.35 13.55 L9.1 13.0 9.05 12.85 8.85 11.9 8.95 11.9 9.1 12.1 9.1 12.3 9.25 13.1 9.25 13.3 9.35 13.55 9.45 13.6 9.65 14.45 9.8 14.5 10.15 14.5 10.4 14.65 10.55 14.85 10.75 14.85 11.05 14.65 11.25 14.6 11.35 14.5 11.8 14.7 12.05 14.95 12.2 15.0 12.35 15.15 12.55 15.25 12.6 15.45 12.7 15.5 12.75 15.8 12.8 15.8 12.8 16.05 12.05 16.2 11.85 16.15 11.75 16.15 11.65 16.1 11.55 16.1 11.55 16.2 11.6 16.25 11.55 16.3 11.65 16.35 11.7 16.4 11.9 16.35 12.0 16.45 11.8 16.45 11.7 16.5 11.85 16.65 11.8 16.65 11.7 16.75 11.7 16.9 11.65 17.0 11.7 17.05 11.65 17.1 11.55 17.15 11.75 17.25 11.6 17.25 11.75 17.45 11.85 17.65 11.75 17.8 11.85 17.95 11.8 18.05 11.65 18.1 11.65 17.95 11.6 17.95 11.5 17.85 11.35 17.85 11.35 17.8 11.2 17.9 11.0 17.9 11.0 17.95 10.9 18.0 10.85 18.1 10.75 18.1 10.65 18.0 10.3 17.9 10.35 17.75 10.35 17.65 10.25 17.6 10.4 17.55 10.35 17.25 10.4 17.15 10.3 17.15 10.4 17.05 10.4 17.0 10.35 16.9 10.5 16.95 10.55 17.05 10.55 17.15 10.6 17.2 10.7 17.2 10.7 17.1 10.85 17.15 11.0 17.1 10.8 17.1 10.95 17.05 10.75 16.95 10.75 16.9 10.7 16.85 10.7 16.7 10.8 16.75 10.85 16.75 10.9 16.9 10.95 16.85 10.95 16.95 11.0 16.95 11.05 17.05 11.25 16.95 11.25 16.9 11.3 16.55 11.1 16.3 11.05 16.05 11.1 15.95 11.05 15.75 10.7 15.35 10.7 15.25 10.65 15.35 10.55 15.35 10.35 15.55 10.3 15.75 10.3 15.8 10.2 16.0 10.25 16.05 10.15 16.4 9.95 16.4 9.95 16.7 9.7 16.8 9.6 17.0 9.55 16.95 9.45 17.0 9.35 17.1 9.25 17.0 9.3 16.9 9.2 16.8 9.25 16.7 9.2 16.65 9.15 16.5 9.2 16.35 9.15 16.25 9.2 16.1 9.1 15.65 9.05 15.55 9.05 15.4 8.95 15.25 9.0 15.1 9.0 15.0 8.9 14.95 8.95 14.85 9.05 14.9 9.05 15.1 9.0 15.2 9.1 15.4 9.1 15.65 9.15 15.65 9.2 15.85 9.2 15.75 9.4 15.4 9.25 15.15 9.45 14.7 9.5 14.4 9.4 14.2 9.45 14.0 9.4 13.65 9.35 13.55 M8.05 16.05 L8.05 15.9 7.95 15.8 7.9 15.65 7.95 15.5 8.0 15.55 8.05 15.8 8.05 15.85 8.1 16.15 8.0 16.2 8.05 16.05 M8.8 17.95 L8.85 18.05 8.8 18.3 8.55 18.55 8.5 18.7 8.25 18.6 8.2 18.35 8.3 18.15 8.3 18.1 8.35 18.15 8.45 18.0 8.35 17.8 8.45 17.8 8.2 17.1 8.15 17.0 8.0 16.25 8.25 16.9 8.35 17.0 8.45 17.3 8.45 17.45 8.55 17.75 8.6 17.8 8.6 17.75 8.8 17.95 M9.35 17.4 L9.3 17.5 9.2 17.5 9.15 17.6 8.95 17.8 8.85 17.85 8.7 17.75 8.75 17.65 9.0 17.35 9.05 17.35 9.3 17.3 9.35 17.4 M8.15 17.8 L8.2 17.65 8.2 17.55 8.1 17.5 8.1 17.25 8.2 17.3 8.25 17.65 8.25 18.05 8.15 17.8 M9.95 18.1 L9.9 18.2 9.85 18.25 9.7 18.15 9.7 18.05 9.65 17.95 9.65 17.85 9.95 17.9 9.95 17.95 9.9 18.0 9.95 18.1 M9.9 18.3 L9.8 18.5 9.75 18.55 9.8 18.8 9.8 18.85 9.7 18.9 9.55 18.85 9.65 18.5 9.65 18.4 9.7 18.45 9.65 18.25 9.8 18.25 9.9 18.3 M9.8 19.0 L9.9 19.1 10.05 19.75 9.95 19.85 9.95 20.0 9.75 20.0 9.6 19.95 9.4 19.75 9.6 18.95 9.7 19.05 9.8 19.0 M13.3 14.7 L13.25 14.45 13.15 14.4 13.0 13.75 13.0 13.6 13.1 13.55 13.2 13.95 13.2 14.1 13.3 14.7 13.3 14.75 13.35 14.95 13.4 15.05 13.35 15.05 13.2 14.75 13.3 14.7 M13.15 15.2 L13.25 15.2 13.35 15.65 13.3 15.8 13.15 15.2 M13.45 15.1 L13.8 16.45 13.85 16.55 13.9 16.7 14.15 16.95 14.1 17.1 14.05 17.2 13.85 17.25 13.8 17.15 13.6 17.05 13.6 16.9 13.35 16.8 13.3 16.6 13.15 16.6 13.15 16.4 13.2 16.3 13.3 16.35 13.45 16.3 13.4 16.1 13.3 16.1 13.35 15.95 13.45 16.2 13.5 16.2 13.55 16.35 13.5 16.4 13.55 16.4 13.55 16.45 13.65 16.35 13.5 15.75 13.45 15.65 13.5 15.5 13.5 15.4 13.4 15.4 13.35 15.15 13.45 15.1 M10.9 18.25 L11.05 18.55 11.05 18.7 11.0 18.8 10.9 18.7 10.9 18.65 10.7 18.65 10.7 18.35 10.75 18.25 10.9 18.25 M12.3 19.2 L12.1 19.0 12.0 18.75 12.1 18.65 11.9 18.6 11.85 18.5 11.8 18.35 11.85 18.15 11.95 18.15 11.95 18.2 12.0 18.3 12.1 18.3 12.1 18.45 12.15 18.45 12.15 18.55 12.05 18.55 12.4 18.9 12.3 19.2 M12.6 19.15 L12.75 19.45 12.9 19.9 12.9 20.05 12.65 20.15 12.45 20.1 12.4 19.95 12.4 19.9 12.25 19.55 12.25 19.35 12.4 19.2 12.55 19.25 12.6 19.15 M10.85 18.9 L11.0 18.9 11.0 19.1 11.1 19.3 11.0 19.5 11.0 19.6 11.1 19.7 11.25 19.7 11.4 20.05 11.45 20.3 11.4 20.45 11.15 20.65 11.05 20.65 10.8 20.6 10.8 20.5 10.85 20.4 10.8 20.15 10.85 20.05 10.8 19.75 10.9 19.7 10.9 19.6 10.8 19.5 10.9 19.4 10.8 19.15 10.9 19.05 10.8 19.0 10.85 18.9" fill="#000000" fill-rule="evenodd" stroke="none"/>
    <path d="M0.75 29.35 L0.0 28.5 0.9 23.0 1.65 12.85 3.0 6.4 4.65 2.7 6.45 1.7 7.6 0.0 8.25 1.2 11.0 2.7 11.0 7.25 8.45 12.0 9.45 18.35 6.9 22.25 6.25 23.25 0.75 29.35 M8.4 38.85 L8.6 40.65 8.55 40.55 8.4 38.85" fill="#260e0e" fill-rule="evenodd" stroke="none"/>
    <path d="M0.75 29.35 L6.25 23.25 6.9 22.25 8.4 38.85 8.55 40.55 4.95 34.8 2.25 32.95 2.25 30.45 0.75 29.35" fill="#170909" fill-rule="evenodd" stroke="none"/>
    <path d="M7.1 17.4 L6.75 17.15 6.9 16.95 7.65 16.75 7.5 16.75 8.9 16.1 8.1 16.35 5.65 16.7 3.65 16.6 4.25 16.4 7.15 15.9 8.15 15.6 8.05 15.55 7.6 15.5 7.2 15.35 7.65 15.3 7.25 15.25 7.3 15.15 7.45 15.1 7.4 15.05 6.75 14.8 Q6.05 14.6 2.9 15.55 L2.7 15.65 2.85 15.55 6.5 14.2 5.95 14.25 6.2 14.15 7.15 13.6 7.05 13.5 7.15 13.5 6.65 13.4 6.65 13.3 2.65 13.5 6.45 13.0 6.4 12.95 6.05 12.75 6.05 12.65 Q7.3 13.0 8.45 12.65 L8.5 13.1 8.95 15.15 Q9.35 16.8 9.1 19.0 L7.6 17.8 9.0 17.5 7.65 17.45 7.6 17.25 7.1 17.4" fill="#0a0807" fill-opacity="0.31764707" fill-rule="evenodd" stroke="none"/>
    <path d="M4.85 17.2 L4.8 16.85 4.9 16.9 5.05 16.05 5.0 17.0 5.0 17.8 5.1 17.45 5.15 17.45 4.85 20.9 5.1 20.55 5.7 18.4 5.05 21.55 5.1 21.55 5.25 20.8 5.25 21.05 Q5.75 20.8 6.0 19.8 L6.1 19.1 6.15 19.25 6.4 18.45 6.45 18.9 6.5 18.8 6.7 20.5 Q6.75 23.15 4.65 25.1 L3.7 26.5 Q-1.4 33.95 0.75 22.0 2.75 20.45 2.55 20.15 L2.7 20.0 2.85 18.55 2.85 19.3 2.9 19.85 3.0 19.8 3.45 17.3 3.25 19.2 3.25 19.95 3.35 19.95 3.55 19.25 3.55 19.65 3.65 19.55 3.65 19.5 3.7 19.65 3.65 19.45 3.7 19.05 Q3.6 18.7 3.95 16.8 L4.05 16.55 3.85 18.5 3.9 18.75 4.0 18.4 4.05 18.85 4.1 18.9 4.15 18.8 4.2 19.15 4.4 18.0 4.45 17.7 4.55 18.05 4.8 17.55 4.85 17.2" fill="#000000" fill-opacity="0.29803923" fill-rule="evenodd" stroke="none"/>
    <path d="M4.2 8.6 L4.2 8.85 4.25 8.9 4.3 9.1 4.5 8.65 4.45 8.4 4.65 7.9 4.75 7.5 4.6 7.3 4.7 7.05 4.6 6.65 4.5 6.45 4.4 5.85 4.3 5.75 4.15 4.7 4.25 4.65 4.4 4.9 4.45 5.2 4.45 5.35 4.55 6.05 4.55 6.3 4.6 6.55 4.7 6.6 4.85 7.55 5.0 7.65 5.4 7.65 5.7 7.85 5.85 8.1 6.05 8.1 6.35 7.9 6.6 7.85 6.7 7.75 7.2 8.0 7.45 8.25 7.6 8.35 7.7 8.55 7.95 8.65 8.0 8.9 8.1 8.95 8.15 9.25 8.2 9.3 8.2 9.45 8.15 9.55 7.35 9.7 7.15 9.6 7.0 9.6 6.9 9.55 6.8 9.55 6.8 9.65 6.85 9.7 6.8 9.8 7.0 9.9 7.2 9.8 7.3 9.95 7.05 9.95 7.0 10.0 7.15 10.15 7.05 10.2 7.0 10.3 6.95 10.3 6.95 10.45 6.85 10.6 6.9 10.65 6.85 10.7 6.75 10.75 6.95 10.85 6.8 10.85 7.05 11.3 7.0 11.45 7.0 11.65 6.95 11.75 6.8 11.8 6.8 11.6 6.75 11.65 6.7 11.55 6.55 11.5 6.5 11.45 6.35 11.55 6.25 11.5 6.15 11.55 6.15 11.6 6.0 11.6 5.95 11.75 5.85 11.75 5.7 11.6 5.4 11.45 5.5 11.35 5.45 11.2 5.35 11.15 5.5 11.15 5.45 10.7 5.5 10.7 5.4 10.6 5.5 10.6 5.55 10.5 5.5 10.4 5.65 10.45 5.7 10.6 5.65 10.7 5.7 10.7 5.7 10.75 5.85 10.75 5.85 10.7 5.8 10.65 6.0 10.7 6.15 10.65 5.95 10.65 6.1 10.6 5.95 10.45 5.95 10.4 5.9 10.35 5.9 10.2 6.05 10.2 6.1 10.4 6.15 10.35 6.15 10.45 6.2 10.45 6.2 10.55 6.45 10.45 6.45 10.4 6.5 10.05 6.35 9.7 6.35 9.3 6.3 9.1 5.95 8.65 5.95 8.55 5.9 8.65 5.8 8.65 5.6 8.85 5.5 9.1 5.5 9.2 5.4 9.3 5.45 9.4 5.3 9.75 5.1 9.8 5.1 10.0 5.05 10.0 5.05 10.1 4.85 10.2 4.7 10.45 4.6 10.4 4.4 10.5 4.3 10.4 4.4 10.3 4.3 10.15 4.35 10.05 4.25 10.0 4.2 9.8 4.25 9.65 4.2 9.55 4.3 9.35 4.2 8.9 4.15 8.8 4.2 8.6 4.1 8.4 4.15 8.3 4.15 8.15 4.1 8.1 4.1 7.95 4.2 8.05 4.2 8.3 4.15 8.4 4.2 8.6 M3.6 11.2 L3.85 11.6 3.75 11.85 3.45 12.1 3.4 12.25 3.15 12.1 3.1 11.85 3.2 11.65 3.1 11.2 3.15 11.1 3.15 10.95 3.0 10.9 3.0 10.65 3.05 10.6 3.15 10.7 3.2 11.1 3.2 11.55 3.25 11.6 3.4 11.45 3.3 11.25 3.4 11.2 3.0 9.5 3.1 9.25 3.1 9.1 3.0 9.0 2.95 8.8 3.0 8.65 3.05 8.7 3.1 9.0 3.1 9.05 3.15 9.35 3.05 9.45 3.25 10.25 3.35 10.35 3.45 10.7 3.4 10.85 3.5 11.2 3.6 11.3 3.6 11.2 M4.4 10.85 L4.3 10.95 4.2 10.95 4.2 11.05 3.95 11.3 3.85 11.35 3.7 11.25 3.75 11.15 4.0 10.8 4.1 10.8 4.3 10.7 4.4 10.85 M4.85 11.85 L4.7 11.75 4.75 11.65 4.7 11.55 4.75 11.4 5.0 11.45 5.05 11.55 4.95 11.6 4.95 11.8 4.85 11.85 4.9 11.95 4.85 12.15 4.75 12.2 4.8 12.5 4.8 12.55 4.7 12.6 4.5 12.55 4.6 12.15 4.6 12.05 4.75 12.1 4.65 11.85 4.85 11.85 M8.55 6.8 L8.65 6.8 8.75 7.25 8.7 7.4 8.8 8.05 8.8 8.15 8.85 8.4 8.9 8.55 9.2 10.05 9.3 10.15 9.3 10.35 9.5 10.65 9.5 10.8 9.4 10.9 9.2 10.95 9.15 10.85 9.0 10.75 8.95 10.6 8.75 10.45 8.7 10.25 8.55 10.2 8.5 10.1 8.55 9.95 8.55 9.9 8.65 9.95 8.85 9.9 8.75 9.65 8.7 9.65 8.75 9.5 8.6 8.65 8.7 8.65 8.8 9.2 8.75 9.3 8.85 9.8 8.9 9.8 8.95 9.95 8.85 10.0 8.95 10.0 9.0 10.05 9.05 9.95 9.0 9.5 9.0 9.25 8.85 9.2 8.9 9.15 8.95 9.0 8.95 8.9 8.85 8.85 8.8 8.6 8.85 8.5 8.75 8.45 8.7 8.15 8.75 8.1 8.75 7.8 8.65 7.75 8.55 6.95 8.55 6.8 M6.0 11.9 L6.15 12.25 6.15 12.45 6.1 12.55 6.0 12.45 6.0 12.35 5.8 12.35 5.75 12.25 5.8 12.1 5.8 11.95 6.0 11.9 M7.45 13.0 L7.35 12.95 7.25 12.85 7.2 12.55 7.25 12.4 7.1 12.35 7.0 12.25 6.95 12.1 7.0 11.85 7.15 11.85 7.15 11.9 7.2 12.0 7.25 12.05 7.25 12.2 7.35 12.2 7.35 12.3 7.25 12.3 7.25 12.35 7.55 12.75 7.45 13.0 M7.8 13.05 L7.95 13.4 8.05 13.9 8.05 14.0 7.8 14.15 7.55 14.1 7.5 13.9 7.5 13.8 7.4 13.4 7.4 13.25 7.55 13.1 7.7 13.15 7.8 13.05 M5.95 12.6 L6.05 12.65 6.05 12.9 6.15 13.1 6.1 13.25 6.05 13.35 6.05 13.45 6.15 13.55 6.3 13.55 6.45 13.9 6.45 14.4 6.15 14.65 6.15 14.6 6.05 14.65 5.75 14.55 5.75 14.4 5.8 14.35 5.8 13.6 5.95 13.5 5.95 13.45 5.85 13.35 5.95 13.2 5.85 12.9 5.95 12.8 5.8 12.75 5.95 12.6 M4.75 12.7 L4.85 12.8 5.0 13.5 4.9 13.65 4.85 13.8 4.6 13.85 4.5 13.75 4.4 13.55 4.3 13.5 4.5 12.65 4.65 12.75 4.75 12.7" fill="#000000" fill-rule="evenodd" stroke="none"/>
    <path d="M2.95 16.2 L2.95 16.45 3.0 16.5 3.05 16.7 3.25 16.25 3.2 16.0 3.4 15.5 3.5 15.1 3.35 14.9 3.45 14.65 3.35 14.25 3.25 14.05 3.15 13.45 3.05 13.35 2.9 12.3 3.0 12.25 3.15 12.5 3.2 12.8 3.2 12.95 3.3 13.65 3.3 13.9 3.35 14.15 3.45 14.2 3.6 15.15 3.75 15.25 4.15 15.25 4.45 15.45 4.6 15.7 4.8 15.7 5.1 15.5 5.35 15.45 5.45 15.35 5.95 15.6 6.2 15.85 6.35 15.95 6.45 16.15 6.7 16.25 6.75 16.5 6.85 16.55 6.9 16.85 6.95 16.9 6.95 17.05 6.9 17.15 6.1 17.3 5.9 17.2 5.75 17.2 5.65 17.15 5.55 17.15 5.55 17.25 5.6 17.3 5.55 17.4 5.75 17.5 5.95 17.4 6.05 17.55 5.8 17.55 5.75 17.6 5.9 17.75 5.8 17.8 5.75 17.9 5.7 17.9 5.7 18.05 5.6 18.2 5.65 18.25 5.6 18.3 5.5 18.35 5.7 18.45 5.55 18.45 5.8 18.9 5.75 19.05 5.75 19.25 5.7 19.35 5.55 19.4 5.55 19.2 5.5 19.25 5.45 19.15 5.3 19.1 5.25 19.05 5.1 19.15 5.0 19.1 4.9 19.15 4.9 19.2 4.75 19.2 4.7 19.35 4.6 19.35 4.45 19.2 4.15 19.05 4.25 18.95 4.2 18.8 4.1 18.75 4.25 18.75 4.2 18.3 4.25 18.3 4.15 18.2 4.25 18.2 4.3 18.1 4.25 18.0 4.4 18.05 4.45 18.2 4.4 18.3 4.45 18.3 4.45 18.35 4.6 18.35 4.6 18.3 4.55 18.25 4.75 18.3 4.9 18.25 4.7 18.25 4.85 18.2 4.7 18.05 4.7 18.0 4.65 17.95 4.65 17.8 4.8 17.8 4.85 18.0 4.9 17.95 4.9 18.05 4.95 18.05 4.95 18.15 5.2 18.05 5.2 18.0 5.25 17.65 5.1 17.3 5.1 16.9 5.05 16.7 4.7 16.25 4.7 16.15 4.65 16.25 4.55 16.25 4.35 16.45 4.25 16.7 4.25 16.8 4.15 16.9 4.2 17.0 4.05 17.35 3.85 17.4 3.85 17.6 3.8 17.6 3.8 17.7 3.6 17.8 3.45 18.05 3.35 18.0 3.15 18.1 3.05 18.0 3.15 17.9 3.05 17.75 3.1 17.65 3.0 17.6 2.95 17.4 3.0 17.25 2.95 17.15 3.05 16.95 2.95 16.5 2.9 16.4 2.95 16.2 2.85 16.0 2.9 15.9 2.9 15.75 2.85 15.7 2.85 15.55 2.95 15.65 2.95 15.9 2.9 16.0 2.95 16.2 M7.3 14.4 L7.4 14.4 7.5 14.85 7.45 15.0 7.55 15.65 7.55 15.75 7.6 16.0 7.65 16.15 7.95 17.65 8.05 17.75 8.05 17.95 8.25 18.25 8.25 18.4 8.15 18.5 7.95 18.55 7.9 18.45 7.75 18.35 7.7 18.2 7.5 18.05 7.45 17.85 7.3 17.8 7.25 17.7 7.3 17.55 7.3 17.5 7.4 17.55 7.6 17.5 7.5 17.25 7.45 17.25 7.5 17.1 7.35 16.25 7.45 16.25 7.55 16.8 7.5 16.9 7.6 17.4 7.65 17.4 7.7 17.55 7.6 17.6 7.7 17.6 7.75 17.65 7.8 17.55 7.75 17.1 7.75 16.85 7.6 16.8 7.65 16.75 7.7 16.6 7.7 16.5 7.6 16.45 7.55 16.2 7.6 16.1 7.5 16.05 7.45 15.75 7.5 15.7 7.5 15.4 7.4 15.35 7.3 14.55 7.3 14.4 M2.35 18.8 L2.6 19.2 2.5 19.45 2.2 19.7 2.15 19.85 1.9 19.7 1.85 19.45 1.95 19.25 1.85 18.8 1.9 18.7 1.9 18.55 1.75 18.5 1.75 18.25 1.8 18.2 1.9 18.3 1.95 18.7 1.95 19.15 2.0 19.2 2.15 19.05 2.05 18.85 2.15 18.8 1.75 17.1 1.85 16.85 1.85 16.7 1.75 16.6 1.7 16.4 1.75 16.25 1.8 16.3 1.85 16.6 1.85 16.65 1.9 16.95 1.8 17.05 2.0 17.85 2.1 17.95 2.2 18.3 2.15 18.45 2.25 18.8 2.35 18.9 2.35 18.8 M3.15 18.45 L3.05 18.55 2.95 18.55 2.95 18.65 2.7 18.9 2.6 18.95 2.45 18.85 2.5 18.75 2.75 18.4 2.85 18.4 3.05 18.3 3.15 18.45 M4.75 19.5 L4.9 19.85 4.9 20.05 4.85 20.15 4.75 20.05 4.75 19.95 4.55 19.95 4.5 19.85 4.55 19.7 4.55 19.55 4.75 19.5 M3.6 19.45 L3.45 19.35 3.5 19.25 3.45 19.15 3.5 19.0 3.75 19.05 3.8 19.15 3.7 19.2 3.7 19.4 3.6 19.45 3.65 19.55 3.6 19.75 3.5 19.8 3.55 20.1 3.55 20.15 3.45 20.2 3.25 20.15 3.35 19.75 3.35 19.65 3.5 19.7 3.4 19.45 3.6 19.45 M3.5 20.3 L3.6 20.4 3.75 21.1 3.65 21.25 3.6 21.4 3.35 21.45 3.25 21.35 3.15 21.15 3.05 21.1 3.25 20.25 3.4 20.35 3.5 20.3 M4.7 20.2 L4.8 20.25 4.8 20.5 4.9 20.7 4.85 20.85 4.8 20.95 4.8 21.05 4.9 21.15 5.05 21.15 5.2 21.5 5.2 22.0 4.9 22.25 4.9 22.2 4.8 22.25 4.5 22.15 4.5 22.0 4.55 21.95 4.55 21.2 4.7 21.1 4.7 21.05 4.6 20.95 4.7 20.8 4.6 20.5 4.7 20.4 4.55 20.35 4.7 20.2 M6.2 20.6 L6.1 20.55 6.0 20.45 5.95 20.15 6.0 20.0 5.85 19.95 5.75 19.85 5.7 19.7 5.75 19.45 5.9 19.45 5.9 19.5 5.95 19.6 6.0 19.65 6.0 19.8 6.1 19.8 6.1 19.9 6.0 19.9 6.0 19.95 6.3 20.35 6.2 20.6 M6.55 20.65 L6.7 21.0 6.8 21.5 6.8 21.6 6.55 21.75 6.3 21.7 6.25 21.5 6.25 21.4 6.15 21.0 6.15 20.85 6.3 20.7 6.45 20.75 6.55 20.65" fill="#000000" fill-rule="evenodd" stroke="none"/>
    <path d="M6.9 22.25 L9.45 18.35 8.45 12.0 11.0 7.25 11.0 2.7 8.25 1.2 7.6 0.0 6.4 1.7 Q5.55 1.75 4.65 2.7 3.55 4.35 2.75 6.35 1.8 9.3 1.65 12.85 L0.9 23.0 0.0 28.5 0.75 29.35 6.25 23.25 6.9 22.25 8.55 40.55 8.55 40.65 4.95 34.8 2.25 32.95 2.25 30.45 0.75 29.35" fill="none" stroke="#000000" stroke-linecap="round" stroke-linejoin="round" stroke-width="1.0"/>
    <path d="M9.5 3.75 L9.5 3.6 9.45 3.55 9.6 3.3 9.75 3.2 9.85 3.1 10.15 3.15 10.15 3.25 10.2 3.25 10.25 3.45 10.2 3.5 10.1 3.55 9.95 3.65 9.85 3.7 9.65 3.85 9.55 3.75 9.5 3.75 9.5 3.85 9.35 3.9 9.25 4.05 9.1 4.05 9.1 4.15 9.0 4.1 9.0 4.05 9.15 3.95 9.1 3.95 9.3 3.75 9.5 3.75 M9.55 4.95 L9.55 4.7 9.95 4.3 10.1 4.35 10.15 4.3 10.3 4.45 10.3 4.55 10.2 4.7 10.15 4.75 9.55 4.95 M8.55 2.85 L8.7 2.6 8.95 2.35 9.05 2.3 9.25 2.4 9.3 2.6 9.15 2.7 9.1 2.75 8.95 2.95 8.8 3.0 8.7 2.95 8.65 2.85 8.55 2.85 M6.2 3.15 L6.2 3.05 6.35 3.0 6.4 2.7 6.6 2.7 6.75 2.8 6.65 2.9 6.75 3.05 6.6 3.1 6.6 3.3 6.5 3.35 6.55 3.5 6.5 3.6 6.35 3.6 6.35 3.55 6.25 3.45 6.2 3.5 6.15 3.45 6.25 3.35 6.25 3.3 6.2 3.3 5.8 3.6 5.75 3.7 5.65 3.7 6.2 3.15 M7.45 6.6 L7.45 6.55 7.55 6.45 7.45 6.45 7.15 6.5 7.05 6.65 6.65 6.7 6.45 6.85 6.35 6.95 6.15 7.0 5.95 7.2 5.85 7.35 5.6 7.65 5.5 7.8 4.9 8.3 4.9 8.2 4.95 8.0 5.25 7.8 5.6 7.5 5.75 7.4 5.9 7.25 5.9 7.2 6.4 6.7 6.4 6.6 6.25 6.35 6.2 6.1 6.3 5.9 6.2 5.8 6.0 5.7 5.85 5.55 5.8 5.55 5.75 5.15 5.8 4.9 5.8 4.75 5.9 4.65 5.85 4.45 6.0 4.3 6.1 4.1 6.15 4.05 6.25 4.0 6.3 4.0 6.7 4.45 6.75 4.55 6.8 4.6 6.8 4.7 6.85 4.8 6.9 4.75 6.9 4.7 7.0 4.7 7.0 4.6 6.85 4.45 6.9 4.35 7.0 4.5 7.05 4.35 7.15 4.4 7.2 4.4 7.3 4.35 7.4 4.35 7.45 4.25 7.6 4.4 7.55 4.2 7.65 4.3 7.65 4.1 7.8 3.95 7.9 3.95 8.0 3.85 8.1 3.85 8.2 3.9 8.1 4.0 8.1 4.05 8.05 4.05 8.15 4.2 8.1 4.2 8.2 4.25 8.25 4.4 8.35 4.4 8.4 4.5 8.5 4.45 8.5 4.65 8.55 4.85 8.35 4.95 8.35 5.0 8.3 4.9 8.05 5.15 8.05 5.2 7.95 5.15 7.9 5.2 7.85 5.2 7.85 5.05 8.0 5.05 7.95 5.0 8.0 5.0 7.95 4.9 7.9 4.9 7.85 4.95 7.85 4.85 7.75 4.75 7.8 4.85 7.7 4.8 7.7 4.95 7.65 4.95 7.7 5.05 7.6 5.1 7.5 5.0 7.6 4.85 7.65 4.8 7.6 4.8 7.65 4.75 7.5 4.65 7.45 4.65 7.25 4.75 7.1 5.0 6.95 5.1 6.85 5.15 6.6 5.65 6.55 5.7 6.65 5.7 6.7 5.75 6.9 5.75 7.1 5.7 7.25 5.7 7.25 5.65 7.55 5.6 7.65 5.7 7.75 5.6 7.75 5.65 7.85 5.65 8.0 5.7 8.2 5.7 8.2 5.75 8.25 5.8 8.35 5.85 8.3 5.95 8.25 5.95 8.15 6.05 8.1 6.05 8.1 6.1 8.0 6.25 7.9 6.25 7.85 6.35 7.7 6.35 7.45 6.6 7.4 6.7 7.3 6.7 7.2 6.85 7.0 6.95 6.95 7.0 6.95 6.95 7.1 6.85 7.15 6.85 7.3 6.7 7.45 6.6 M5.6 4.05 L5.55 4.0 5.8 3.75 5.9 3.75 5.6 4.05 M6.15 3.6 L6.05 3.65 6.15 3.6 M5.4 3.95 L5.6 3.75 5.65 3.85 5.5 3.95 5.4 3.95 M5.15 4.15 L5.2 4.15 5.35 4.05 5.4 4.0 5.25 4.2 5.15 4.15 5.0 4.3 5.05 4.4 4.6 4.75 4.5 4.8 4.45 4.75 4.65 4.55 4.8 4.45 5.15 4.15 M8.55 4.4 L8.6 4.3 8.75 4.1 8.85 4.0 8.9 4.05 8.9 4.15 8.85 4.2 8.95 4.3 8.9 4.35 8.8 4.4 8.75 4.45 8.65 4.45 8.55 4.4 M8.35 3.4 L8.45 3.1 8.65 3.05 8.65 3.25 8.5 3.4 8.35 3.4 8.4 3.5 8.4 3.6 8.3 3.7 8.15 3.75 8.1 3.7 8.2 3.6 8.15 3.55 8.25 3.45 8.3 3.5 8.35 3.4 M9.0 5.05 L8.95 5.2 8.9 5.25 8.85 5.25 8.75 5.35 8.7 5.1 8.7 5.05 8.8 5.1 8.9 5.0 9.0 5.05 9.05 5.0 9.15 4.95 9.25 4.95 9.35 4.85 9.5 4.85 9.5 5.0 9.25 5.1 9.2 5.15 9.2 5.05 9.05 5.15 9.0 5.05 M8.55 5.75 L8.65 5.75 8.7 5.8 8.75 5.75 8.75 5.8 9.0 5.8 9.1 5.85 9.1 6.0 9.0 6.0 8.7 5.95 8.65 5.9 8.5 5.85 8.55 5.75 M9.15 6.35 L9.25 6.3 9.45 6.15 9.45 6.1 9.3 6.1 9.25 6.2 9.15 6.2 8.8 6.6 8.7 6.65 8.3 7.05 8.6 6.6 8.7 6.55 8.85 6.35 8.95 6.35 9.15 6.1 9.15 6.0 9.1 6.05 9.15 5.85 9.25 5.75 9.45 5.75 9.7 5.8 9.75 5.8 9.8 5.95 9.7 6.1 9.5 6.15 9.3 6.35 9.15 6.35 9.1 6.4 9.1 6.5 8.95 6.6 8.95 6.5 9.15 6.35 M8.05 7.1 L8.15 7.0 8.25 7.1 8.05 7.1 8.05 7.15 8.0 7.25 7.9 7.4 7.8 7.4 7.8 7.35 8.05 7.1" fill="#000000" fill-rule="evenodd" stroke="none"/>
  </g>
  <defs>
    <radialGradient cx="0" cy="0" gradientTransform="matrix(0.0121, 0.0, 0.0, 0.012, 16.8, 14.45)" gradientUnits="userSpaceOnUse" id="gradient0" r="819.2" spreadMethod="pad">
      <stop offset="0.0" stop-color="#322b29"/>
      <stop offset="1.0" stop-color="#070707"/>
    </radialGradient>
    <radialGradient cx="0" cy="0" gradientTransform="matrix(0.0191, -0.0074, 0.0066, 0.0143, 21.85, 4.5)" gradientUnits="userSpaceOnUse" id="gradient1" r="819.2" spreadMethod="pad">
      <stop offset="0.0" stop-color="#756d5f"/>
      <stop offset="1.0" stop-color="#1f1f1f"/>
      <stop offset="1.0" stop-color="#333333"/>
      <stop offset="1.0" stop-color="#333333"/>
      <stop offset="1.0" stop-color="#202121"/>
      <stop offset="1.0" stop-color="#202121"/>
    </radialGradient>
    <radialGradient cx="0" cy="0" gradientTransform="matrix(0.0048, -0.0015, 0.0012, 0.0036, 15.75, 12.8)" gradientUnits="userSpaceOnUse" id="gradient2" r="819.2" spreadMethod="pad">
      <stop offset="0.0" stop-color="#756d5f"/>
      <stop offset="1.0" stop-color="#1f1f1f"/>
      <stop offset="1.0" stop-color="#333333"/>
      <stop offset="1.0" stop-color="#333333"/>
      <stop offset="1.0" stop-color="#202121"/>
      <stop offset="1.0" stop-color="#202121"/>
    </radialGradient>
  </defs>
</svg>
