<?xml version="1.0" encoding="UTF-8" standalone="no"?>
<svg xmlns:ffdec="https://www.free-decompiler.com/flash" xmlns:xlink="http://www.w3.org/1999/xlink" ffdec:objectType="shape" height="19.15px" width="21.65px" xmlns="http://www.w3.org/2000/svg">
  <g transform="matrix(1.0, 0.0, 0.0, 1.0, 7.1, 15.0)">
    <path d="M3.35 -9.15 L3.9 -8.9 4.65 -8.25 5.0 -7.75 5.1 -7.45 5.15 -7.4 5.25 -7.0 5.3 -5.85 5.3 -5.45 5.0 -4.35 Q4.3 -3.0 2.75 -2.55 L0.75 -2.65 Q-0.7 -3.05 -1.05 -3.85 -1.85 -5.2 -1.8 -6.4 -1.85 -7.0 -1.35 -7.85 L-0.3 -8.85 1.3 -9.45 2.25 -9.4 3.35 -9.15 M2.0 -5.9 L1.65 -5.9 2.0 -5.9" fill="url(#gradient0)" fill-rule="evenodd" stroke="none"/>
    <path d="M5.25 -7.0 L5.15 -7.4 5.1 -7.45 5.0 -7.75 4.65 -8.25 3.9 -8.9 3.35 -9.15 Q2.9 -9.75 2.3 -9.45 L2.25 -9.4 1.3 -9.45 -2.95 -9.2 Q-3.85 -9.6 -4.45 -10.45 L-4.3 -12.2 -5.0 -14.1 Q0.75 -14.85 7.15 -14.15 8.9 -13.95 10.9 -12.6 L11.4 -12.25 Q12.75 -11.2 13.15 -9.75 14.05 -7.25 14.0 -4.1 L14.05 -3.1 13.7 0.9 13.3 2.75 12.15 1.45 12.05 1.25 11.65 1.15 12.05 1.25 12.15 1.45 11.9 1.3 11.65 1.15 8.9 0.2 8.2 -0.15 6.75 -1.1 8.2 -0.15 8.1 -0.15 Q7.55 -0.3 6.75 -1.1 L5.95 -2.55 5.9 -2.65 5.6 -3.25 5.3 -5.45 5.3 -5.85 5.25 -7.0 5.3 -5.45 5.25 -7.0 M5.15 -7.4 L7.65 -4.15 14.05 -3.1 7.65 -4.15 5.15 -7.4" fill="url(#gradient1)" fill-rule="evenodd" stroke="none"/>
    <path d="M1.3 -9.45 L-0.3 -8.85 -1.35 -7.85 Q-1.85 -7.0 -1.8 -6.4 -1.85 -5.2 -1.05 -3.85 -0.7 -3.05 0.75 -2.65 L2.75 -2.55 3.05 -0.6 3.95 0.65 Q-0.25 -1.1 -4.8 -0.85 L-4.8 -0.9 Q-6.0 -2.1 -5.45 -5.05 L-4.8 -4.4 -3.5 -4.65 -3.75 -9.2 -2.95 -9.2 1.3 -9.45" fill="url(#gradient2)" fill-rule="evenodd" stroke="none"/>
    <path d="M2.75 -2.55 Q4.3 -3.0 5.0 -4.35 L5.9 -2.65 5.95 -2.55 6.75 -1.1 Q7.55 -0.3 8.1 -0.15 L8.2 -0.15 8.9 0.2 11.65 1.15 11.9 1.3 12.15 1.45 12.5 2.25 13.05 3.4 13.15 3.65 12.45 3.65 10.25 3.45 4.5 1.45 3.95 0.65 3.05 -0.6 2.75 -2.55 M4.5 1.45 L6.75 -1.1 4.5 1.45" fill="url(#gradient3)" fill-rule="evenodd" stroke="none"/>
    <path d="M12.15 1.45 L13.3 2.75 Q12.65 2.1 12.5 2.25 L12.15 1.45" fill="#676767" fill-rule="evenodd" stroke="none"/>
    <path d="M-5.45 -5.05 L-6.0 -5.75 Q-7.0 -9.4 -6.3 -13.35 L-5.0 -14.1 -4.3 -12.2 -4.45 -10.45 -3.75 -9.2 -3.5 -4.65 -4.8 -4.4 -5.45 -5.05" fill="#666666" fill-rule="evenodd" stroke="none"/>
    <path d="M5.25 -7.0 L5.15 -7.4 5.1 -7.45 5.0 -7.75 4.65 -8.25 3.9 -8.9 3.35 -9.15 2.25 -9.4 1.3 -9.45 -0.3 -8.85 -1.35 -7.85 Q-1.85 -7.0 -1.8 -6.4 -1.85 -5.2 -1.05 -3.85 -0.7 -3.05 0.75 -2.65 L2.75 -2.55 Q4.3 -3.0 5.0 -4.35 L5.3 -5.45 5.25 -7.0 M5.95 -2.55 L6.75 -1.1 8.2 -0.15 8.9 0.2 11.65 1.15 12.05 1.25 12.15 1.45 12.5 2.25 13.05 3.4 13.15 3.65 12.45 3.65 10.25 3.45 4.5 1.45 3.95 0.65 3.05 -0.6 2.75 -2.55 M5.9 -2.65 L5.0 -4.35 M-5.45 -5.05 L-6.0 -5.75 Q-7.0 -9.4 -6.3 -13.35 L-5.0 -14.1 -4.3 -12.2 -4.45 -10.45 -3.75 -9.2 -3.5 -4.65 -4.8 -4.4 -5.45 -5.05 M-2.95 -9.2 L1.3 -9.45 M6.75 -1.1 L4.5 1.45 M-2.95 -9.2 L-3.75 -9.2" fill="none" stroke="#333333" stroke-linecap="round" stroke-linejoin="round" stroke-width="1.0"/>
    <path d="M1.65 -5.9 L2.0 -5.9" fill="none" stroke="#323232" stroke-linecap="round" stroke-linejoin="round" stroke-width="1.0"/>
    <path d="M5.9 -2.65 L5.95 -2.55 M-4.8 -0.85 L-4.8 -0.9" fill="none" stroke="#251b1a" stroke-linecap="round" stroke-linejoin="round" stroke-width="1.0"/>
    <path d="M13.3 2.75 L13.7 0.9 14.05 -3.1 7.65 -4.15 5.15 -7.4 M-5.0 -14.1 Q0.75 -14.85 7.15 -14.15 8.9 -13.95 10.9 -12.6 L11.4 -12.25 Q12.75 -11.2 13.15 -9.75 14.05 -7.25 14.0 -4.1 L14.05 -3.1 M13.3 2.75 L13.05 3.4" fill="none" stroke="#666666" stroke-linecap="round" stroke-linejoin="round" stroke-width="1.0"/>
    <path d="M3.95 0.65 Q-0.25 -1.1 -4.8 -0.85 M-4.8 -0.9 Q-6.0 -2.1 -5.45 -5.05" fill="none" stroke="#000000" stroke-linecap="round" stroke-linejoin="round" stroke-width="1.0"/>
  </g>
  <defs>
    <radialGradient cx="0" cy="0" gradientTransform="matrix(0.0051, 0.0, 0.0, 0.0051, 1.75, -6.0)" gradientUnits="userSpaceOnUse" id="gradient0" r="819.2" spreadMethod="pad">
      <stop offset="0.0" stop-color="#595959"/>
      <stop offset="1.0" stop-color="#737373"/>
      <stop offset="1.0" stop-color="#595959"/>
    </radialGradient>
    <radialGradient cx="0" cy="0" gradientTransform="matrix(0.0198, -0.0034, 0.0029, 0.0201, 10.65, -11.1)" gradientUnits="userSpaceOnUse" id="gradient1" r="819.2" spreadMethod="pad">
      <stop offset="0.0" stop-color="#ffffff"/>
      <stop offset="1.0" stop-color="#999999"/>
    </radialGradient>
    <radialGradient cx="0" cy="0" gradientTransform="matrix(0.0084, 0.0, 0.0, 0.0084, -0.75, -4.4)" gradientUnits="userSpaceOnUse" id="gradient2" r="819.2" spreadMethod="pad">
      <stop offset="0.0" stop-color="#393c57"/>
      <stop offset="1.0" stop-color="#292930"/>
      <stop offset="1.0" stop-color="#595959"/>
    </radialGradient>
    <radialGradient cx="0" cy="0" gradientTransform="matrix(0.008, 0.0, 0.0, 0.008, 7.95, -0.35)" gradientUnits="userSpaceOnUse" id="gradient3" r="819.2" spreadMethod="pad">
      <stop offset="0.0" stop-color="#595959"/>
      <stop offset="1.0" stop-color="#737373"/>
      <stop offset="1.0" stop-color="#595959"/>
    </radialGradient>
  </defs>
</svg>
