<?xml version="1.0" encoding="UTF-8" standalone="no"?>
<svg xmlns:ffdec="https://www.free-decompiler.com/flash" xmlns:xlink="http://www.w3.org/1999/xlink" ffdec:objectType="shape" height="15.1px" width="17.55px" xmlns="http://www.w3.org/2000/svg">
  <g transform="matrix(1.0, 0.0, 0.0, 1.0, 15.4, -5.25)">
    <path d="M-2.1 10.1 Q-2.1 10.75 -2.55 11.45 -3.1 12.05 -3.45 12.1 L-3.95 11.55 -4.15 10.25 Q-4.1 9.4 -3.7 8.9 L-3.0 8.3 Q-2.75 8.3 -2.45 8.9 -2.15 9.4 -2.1 10.1" fill="#ff0000" fill-rule="evenodd" stroke="none"/>
    <path d="M-5.6 13.8 L-4.45 13.55 Q-3.6 13.55 -2.9 14.05 L-2.6 14.25 Q-1.8 15.1 -1.8 16.15 -1.8 17.25 -2.6 18.0 -3.4 18.8 -4.45 18.8 L-5.65 18.5 -6.05 18.2 -6.2 18.1 -6.3 18.0 -7.2 16.6 -4.9 17.65 -3.9 17.65 Q-2.05 16.75 -3.8 14.7 L-4.2 14.55 -5.6 13.8" fill="#3f3b3b" fill-rule="evenodd" stroke="none"/>
    <path d="M0.6 14.3 L1.65 15.25 Q1.25 17.7 0.05 18.9 L-1.35 18.9 -1.1 18.5 Q-0.15 17.1 -0.2 14.7 L0.6 14.3 M-12.6 12.95 Q-13.5 9.65 -11.35 7.3 -6.1 4.55 -1.25 6.75 L0.05 11.8 -2.45 13.15 -2.9 14.05 Q-3.6 13.55 -4.45 13.55 L-5.6 13.8 -6.25 13.6 -6.9 13.4 -12.0 13.0 -12.6 12.95 M-2.1 10.1 Q-2.15 9.4 -2.45 8.9 -2.75 8.3 -3.0 8.3 L-3.7 8.9 Q-4.1 9.4 -4.15 10.25 L-3.95 11.55 -3.45 12.1 Q-3.1 12.05 -2.55 11.45 -2.1 10.75 -2.1 10.1" fill="#2e2e2e" fill-rule="evenodd" stroke="none"/>
    <path d="M-1.35 18.9 Q-2.0 19.75 -2.75 19.85 L-5.3 19.85 -6.65 19.3 -7.8 17.75 -8.8 17.5 -11.85 16.8 -12.55 15.55 -9.75 16.05 -9.25 16.1 -7.2 16.6 -6.3 18.0 -6.2 18.1 -6.05 18.2 -5.65 18.5 -4.45 18.8 Q-3.4 18.8 -2.6 18.0 -1.8 17.25 -1.8 16.15 -1.8 15.1 -2.6 14.25 L-2.9 14.05 -2.45 13.15 0.05 11.8 Q1.1 12.15 1.3 12.6 1.75 13.2 1.3 13.9 L0.6 14.3 -0.2 14.7 Q-0.15 17.1 -1.1 18.5 L-1.35 18.9" fill="#202020" fill-rule="evenodd" stroke="none"/>
    <path d="M-12.55 15.55 L-14.25 15.2 Q-15.1 14.6 -14.8 13.3 -13.9 12.75 -13.05 12.9 L-12.6 12.95 -12.0 13.0 Q-12.85 14.1 -12.55 15.55" fill="url(#gradient0)" fill-rule="evenodd" stroke="none"/>
    <path d="M-12.55 15.55 Q-12.85 14.1 -12.0 13.0 L-6.9 13.4 -6.25 13.6 Q-7.4 15.05 -7.2 16.6 L-9.25 16.1 -9.75 16.05 -12.55 15.55 M-9.75 16.05 Q-10.0 14.85 -9.2 13.55 -10.0 14.85 -9.75 16.05" fill="url(#gradient1)" fill-rule="evenodd" stroke="none"/>
    <path d="M-4.2 14.55 L-3.8 14.7 Q-2.05 16.75 -3.9 17.65 L-4.9 17.65 -7.2 16.6 Q-7.4 15.05 -6.25 13.6 L-5.6 13.8 -4.2 14.55 Q-3.7 16.2 -4.95 17.35 -3.7 16.2 -4.2 14.55" fill="url(#gradient2)" fill-rule="evenodd" stroke="none"/>
    <path d="M-2.1 10.1 Q-2.1 10.75 -2.55 11.45 -3.1 12.05 -3.45 12.1 L-3.95 11.55 -4.15 10.25 Q-4.1 9.4 -3.7 8.9 L-3.0 8.3 Q-2.75 8.3 -2.45 8.9 -2.15 9.4 -2.1 10.1" fill="none" stroke="#2a0000" stroke-linecap="round" stroke-linejoin="round" stroke-width="1.0"/>
    <path d="M-12.55 15.55 Q-12.85 14.1 -12.0 13.0 M-4.2 14.55 Q-3.7 16.2 -4.95 17.35 M-6.25 13.6 Q-7.4 15.05 -7.2 16.6 M-9.2 13.55 Q-10.0 14.85 -9.75 16.05" fill="none" stroke="#1c1c1c" stroke-linecap="round" stroke-linejoin="round" stroke-width="1.0"/>
    <path d="M0.6 14.3 L1.65 15.25 Q1.25 17.7 0.05 18.9 L-1.35 18.9 M-7.8 17.75 L-8.8 17.5 -11.85 16.8 -12.55 15.55 -14.25 15.2 Q-15.1 14.6 -14.8 13.3 -13.9 12.75 -13.05 12.9 L-12.6 12.95 Q-13.5 9.65 -11.35 7.3 -6.1 4.55 -1.25 6.75 L0.05 11.8 M-12.0 13.0 L-12.6 12.95 M-5.6 13.8 L-4.45 13.55 Q-3.6 13.55 -2.9 14.05 L-2.6 14.25 Q-1.8 15.1 -1.8 16.15 -1.8 17.25 -2.6 18.0 -3.4 18.8 -4.45 18.8 L-5.65 18.5 -6.05 18.2 -6.2 18.1 -6.3 18.0 -7.2 16.6 -9.25 16.1 -9.75 16.05 -12.55 15.55 M-7.2 16.6 L-4.9 17.65 -3.9 17.65 Q-2.05 16.75 -3.8 14.7 L-4.2 14.55 -5.6 13.8 -6.25 13.6 -6.9 13.4 -12.0 13.0" fill="none" stroke="#020202" stroke-linecap="round" stroke-linejoin="round" stroke-width="1.0"/>
    <path d="M-1.35 18.9 Q-2.0 19.75 -2.75 19.85 L-5.3 19.85 -6.65 19.3 -7.8 17.75 M0.05 11.8 Q1.1 12.15 1.3 12.6 1.75 13.2 1.3 13.9 L0.6 14.3 -0.2 14.7 Q-0.15 17.1 -1.1 18.5 L-1.35 18.9 M-2.9 14.05 L-2.45 13.15 0.05 11.8" fill="none" stroke="#100f0f" stroke-linecap="round" stroke-linejoin="round" stroke-width="1.0"/>
  </g>
  <defs>
    <radialGradient cx="0" cy="0" fx="192.0" fy="0" gradientTransform="matrix(0.0025, 0.0, 0.0, 0.0025, -13.45, 14.2)" gradientUnits="userSpaceOnUse" id="gradient0" r="819.2" spreadMethod="pad">
      <stop offset="0.0" stop-color="#484848"/>
      <stop offset="0.4470588235294118" stop-color="#2a2a2a"/>
      <stop offset="1.0" stop-color="#1e1e1e"/>
      <stop offset="1.0" stop-color="#383838"/>
    </radialGradient>
    <radialGradient cx="0" cy="0" fx="192.0" fy="0" gradientTransform="matrix(0.0152, 0.0018, -2.0E-4, 0.002, -11.05, 14.25)" gradientUnits="userSpaceOnUse" id="gradient1" r="819.2" spreadMethod="pad">
      <stop offset="0.0" stop-color="#3f3f3f"/>
      <stop offset="0.4470588235294118" stop-color="#2a2a2a"/>
      <stop offset="1.0" stop-color="#101010"/>
      <stop offset="1.0" stop-color="#383838"/>
    </radialGradient>
    <radialGradient cx="0" cy="0" fx="192.0" fy="0" gradientTransform="matrix(0.0012, -0.0021, 0.006, 0.0035, -6.1, 15.5)" gradientUnits="userSpaceOnUse" id="gradient2" r="819.2" spreadMethod="pad">
      <stop offset="0.0" stop-color="#434343"/>
      <stop offset="0.4470588235294118" stop-color="#2a2a2a"/>
      <stop offset="1.0" stop-color="#0b0b0b"/>
      <stop offset="1.0" stop-color="#383838"/>
    </radialGradient>
  </defs>
</svg>
