<?xml version="1.0" encoding="UTF-8" standalone="no"?>
<svg xmlns:ffdec="https://www.free-decompiler.com/flash" xmlns:xlink="http://www.w3.org/1999/xlink" ffdec:objectType="shape" height="18.8px" width="22.15px" xmlns="http://www.w3.org/2000/svg">
  <g transform="matrix(1.0, 0.0, 0.0, 1.0, 10.45, 17.15)">
    <path d="M7.5 -9.45 Q8.15 -8.2 8.15 -6.6 L7.95 -3.75 -1.05 -4.15 Q-3.1 -6.9 -3.1 -10.05 -2.2 -11.4 -1.4 -11.05 L-3.1 -10.05 -1.4 -11.05 Q1.6 -9.9 7.5 -9.45 M5.4 -7.4 L3.7 -7.4 5.4 -7.4" fill="#cc9933" fill-rule="evenodd" stroke="none"/>
    <path d="M8.85 -11.3 L9.3 -9.45 7.5 -9.45 Q1.6 -9.9 -1.4 -11.05 -2.2 -11.4 -3.1 -10.05 -3.1 -6.9 -1.05 -4.15 L7.95 -3.75 Q10.95 -4.1 7.55 -0.75 7.0 -0.25 4.1 -0.25 L-3.15 -1.05 -3.4 -1.05 Q-2.95 -1.15 -3.15 -2.2 L-3.4 -3.45 -6.0 -6.05 -4.05 -6.5 -4.1 -6.6 Q-4.6 -8.75 -5.65 -8.55 -6.7 -8.4 -9.25 -9.1 L-9.45 -11.25 Q-9.6 -12.35 -7.45 -16.65 L-1.4 -16.0 Q-1.0 -14.45 -0.3 -13.85 0.5 -13.15 5.0 -11.75 8.05 -10.85 8.85 -11.3 M-3.8 -14.0 L-6.55 -13.35 -7.45 -13.15 -6.55 -13.35 -3.8 -14.0 M-6.2 -11.5 L-4.25 -11.9 -6.2 -11.5 -6.0 -10.25 -6.2 -11.5 -6.55 -13.35 -6.2 -11.5" fill="#0a1418" fill-rule="evenodd" stroke="none"/>
    <path d="M-1.4 -16.0 L-1.5 -16.5 3.1 -16.2 Q8.85 -13.7 9.0 -12.6 9.15 -11.55 8.85 -11.3 8.05 -10.85 5.0 -11.75 0.5 -13.15 -0.3 -13.85 -1.0 -14.45 -1.4 -16.0 M-3.4 -1.05 Q-3.7 -1.0 -4.25 -1.35 L-5.25 -2.0 -6.8 -3.05 Q-7.85 -3.75 -8.9 -5.25 -10.0 -6.8 -9.95 -8.1 L-9.25 -9.1 Q-6.7 -8.4 -5.65 -8.55 -4.6 -8.75 -4.1 -6.6 L-4.05 -6.5 -6.0 -6.05 -3.4 -3.45 -3.15 -2.2 Q-2.95 -1.15 -3.4 -1.05" fill="#1e1e1e" fill-rule="evenodd" stroke="none"/>
    <path d="M4.1 -0.25 L3.25 1.15 -0.2 1.05 -2.3 0.75 -3.35 0.3 -3.15 -1.05 4.1 -0.25" fill="#1a1a1a" fill-rule="evenodd" stroke="none"/>
    <path d="M3.7 -7.4 L5.4 -7.4" fill="none" stroke="#997426" stroke-linecap="round" stroke-linejoin="round" stroke-width="2.0"/>
    <path d="M8.85 -11.3 L9.3 -9.45 7.5 -9.45 Q8.15 -8.2 8.15 -6.6 L7.95 -3.75 Q10.95 -4.1 7.55 -0.75 7.0 -0.25 4.1 -0.25 L3.25 1.15 -0.2 1.05 -2.3 0.75 -3.35 0.3 -3.15 -1.05 -3.4 -1.05 M-9.25 -9.1 L-9.45 -11.25 Q-9.6 -12.35 -7.45 -16.65 L-1.4 -16.0 M-3.1 -10.05 L-1.4 -11.05 Q1.6 -9.9 7.5 -9.45 M7.95 -3.75 L-1.05 -4.15 Q-3.1 -6.9 -3.1 -10.05 M4.1 -0.25 L-3.15 -1.05" fill="none" stroke="#000000" stroke-linecap="round" stroke-linejoin="round" stroke-width="1.0"/>
    <path d="M-1.4 -16.0 L-1.5 -16.5 3.1 -16.2 Q8.85 -13.7 9.0 -12.6 9.15 -11.55 8.85 -11.3 8.05 -10.85 5.0 -11.75 0.5 -13.15 -0.3 -13.85 -1.0 -14.45 -1.4 -16.0 M-3.4 -1.05 Q-3.7 -1.0 -4.25 -1.35 L-5.25 -2.0 -6.8 -3.05 Q-7.85 -3.75 -8.9 -5.25 -10.0 -6.8 -9.95 -8.1 L-9.25 -9.1 Q-6.7 -8.4 -5.65 -8.55 -4.6 -8.75 -4.1 -6.6 L-4.05 -6.5 -6.0 -6.05 -3.4 -3.45 -3.15 -2.2 Q-2.95 -1.15 -3.4 -1.05" fill="none" stroke="#111111" stroke-linecap="round" stroke-linejoin="round" stroke-width="1.0"/>
    <path d="M-7.45 -13.15 L-6.55 -13.35 -3.8 -14.0 M-6.0 -10.25 L-6.2 -11.5 -6.55 -13.35 M-4.25 -11.9 L-6.2 -11.5" fill="none" stroke="#015c98" stroke-linecap="round" stroke-linejoin="round" stroke-width="1.0"/>
    <path d="M-1.4 -10.95 Q1.0 -10.1 4.0 -9.55 L8.85 -9.2 Q9.7 -9.5 10.15 -7.35 10.55 -5.25 9.45 -2.8 7.9 -4.35 4.7 -4.45 L-1.05 -4.5 Q-3.3 -6.8 -3.15 -9.9 L-1.4 -10.95" fill="url(#gradient0)" fill-rule="evenodd" stroke="none"/>
    <path d="M-1.4 -10.95 Q1.0 -10.1 4.0 -9.55 L8.85 -9.2 Q9.7 -9.5 10.15 -7.35 10.55 -5.25 9.45 -2.8 7.9 -4.35 4.7 -4.45 L-1.05 -4.5 Q-3.3 -6.8 -3.15 -9.9" fill="none" stroke="#000000" stroke-linecap="round" stroke-linejoin="round" stroke-opacity="0.3019608" stroke-width="1.0"/>
    <path d="M-3.15 -9.9 L-1.4 -10.95" fill="none" stroke="#111a15" stroke-linecap="round" stroke-linejoin="round" stroke-opacity="0.3019608" stroke-width="1.0"/>
    <path d="M8.05 -2.05 L8.95 -1.85 10.8 -2.1 8.95 -1.85 8.05 -2.05 M10.8 -2.1 L9.6 0.0 5.6 0.0 4.25 -1.85 4.6 -4.2 8.05 -3.8 9.8 -4.95 11.2 -2.85 10.8 -2.1" fill="#1e1e1e" fill-rule="evenodd" stroke="none"/>
    <path d="M10.8 -2.1 L8.95 -1.85 8.05 -2.05 M10.8 -2.1 L11.2 -2.85 9.8 -4.95 8.05 -3.8 4.6 -4.2 4.25 -1.85 5.6 0.0 9.6 0.0 10.8 -2.1 Z" fill="none" stroke="#111111" stroke-linecap="round" stroke-linejoin="round" stroke-width="1.0"/>
  </g>
  <defs>
    <radialGradient cx="0" cy="0" gradientTransform="matrix(0.0158, 0.0, 0.0, 0.0158, -2.1, -4.65)" gradientUnits="userSpaceOnUse" id="gradient0" r="819.2" spreadMethod="pad">
      <stop offset="0.0" stop-color="#0099ff" stop-opacity="0.4"/>
      <stop offset="0.6196078431372549" stop-color="#0099ff" stop-opacity="0.3019608"/>
      <stop offset="1.0" stop-color="#0099ff" stop-opacity="0.8"/>
    </radialGradient>
  </defs>
</svg>
