<?xml version="1.0" encoding="UTF-8" standalone="no"?>
<svg xmlns:ffdec="https://www.free-decompiler.com/flash" xmlns:xlink="http://www.w3.org/1999/xlink" ffdec:objectType="shape" height="13.3px" width="20.05px" xmlns="http://www.w3.org/2000/svg">
  <g transform="matrix(1.0, 0.0, 0.0, 1.0, 17.25, -1.25)">
    <path d="M-11.25 9.4 L-0.45 7.2 -0.45 11.35 Q-5.7 12.65 -11.25 13.55 L-11.25 9.4" fill="#000000" fill-opacity="0.49803922" fill-rule="evenodd" stroke="none"/>
    <path d="M-2.25 10.15 L-2.65 11.3 Q-3.1 11.85 -3.4 11.85 L-3.85 11.4 -4.0 10.3 Q-3.95 9.55 -3.6 9.15 -3.3 8.6 -3.0 8.6 -2.8 8.6 -2.55 9.15 L-2.25 10.15" fill="#ff0000" fill-rule="evenodd" stroke="none"/>
    <path d="M-9.3 8.95 L-0.15 7.4 Q1.5 9.15 2.3 9.5 L-4.15 10.1 Q-6.65 10.75 -7.25 12.05 -7.65 13.2 -8.4 13.7 -11.35 14.45 -14.5 13.6 -16.3 13.45 -16.75 12.85 -16.2 12.0 -15.5 10.0 L-9.3 8.95" fill="url(#gradient0)" fill-rule="evenodd" stroke="none"/>
    <path d="M-0.15 7.4 L-9.3 8.95 -9.9 7.2 -15.35 7.8 -15.35 6.1 Q-15.15 4.4 -13.75 3.25 -8.9 0.85 -3.1 2.25 -1.8 2.7 -1.4 3.3 -0.35 5.5 -0.15 7.4 M-7.35 7.3 L-7.65 7.3 -7.35 7.3 M-2.55 6.4 L-2.85 6.4 -2.55 6.4" fill="url(#gradient1)" fill-rule="evenodd" stroke="none"/>
    <path d="M-15.35 7.8 L-9.9 7.2 -9.3 8.95 -15.5 10.0 -15.35 9.5 -15.35 7.8" fill="url(#gradient2)" fill-rule="evenodd" stroke="none"/>
    <path d="M-2.85 6.4 L-2.55 6.4 M-7.65 7.3 L-7.35 7.3" fill="none" stroke="#151515" stroke-linecap="round" stroke-linejoin="round" stroke-width="1.0"/>
    <path d="M-9.3 8.95 L-0.15 7.4 Q-0.35 5.5 -1.4 3.3 -1.8 2.7 -3.1 2.25 -8.9 0.85 -13.75 3.25 -15.15 4.4 -15.35 6.1 L-15.35 7.8 -9.9 7.2 -9.3 8.95 -15.5 10.0 Q-16.2 12.0 -16.75 12.85 -16.3 13.45 -14.5 13.6 -11.35 14.45 -8.4 13.7 -7.65 13.2 -7.25 12.05 -6.65 10.75 -4.15 10.1 L2.3 9.5 Q1.5 9.15 -0.15 7.4 M-15.5 10.0 L-15.35 9.5 -15.35 7.8" fill="none" stroke="#0e0e0e" stroke-linecap="round" stroke-linejoin="round" stroke-width="1.0"/>
  </g>
  <defs>
    <radialGradient cx="0" cy="0" fx="192.0" fy="0" gradientTransform="matrix(0.0058, -9.0E-4, 0.0019, 0.0118, -6.2, 9.1)" gradientUnits="userSpaceOnUse" id="gradient0" r="819.2" spreadMethod="pad">
      <stop offset="0.0" stop-color="#484848"/>
      <stop offset="0.4470588235294118" stop-color="#2a2a2a"/>
      <stop offset="1.0" stop-color="#1e1e1e"/>
      <stop offset="1.0" stop-color="#383838"/>
    </radialGradient>
    <radialGradient cx="0" cy="0" fx="192.0" fy="0" gradientTransform="matrix(0.0063, 0.0, 0.0, 0.0132, -6.55, 5.0)" gradientUnits="userSpaceOnUse" id="gradient1" r="819.2" spreadMethod="pad">
      <stop offset="0.0" stop-color="#484848"/>
      <stop offset="0.4470588235294118" stop-color="#2a2a2a"/>
      <stop offset="1.0" stop-color="#1e1e1e"/>
      <stop offset="1.0" stop-color="#383838"/>
    </radialGradient>
    <radialGradient cx="0" cy="0" fx="192.0" fy="0" gradientTransform="matrix(0.0026, -3.0E-4, 5.0E-4, 0.0041, -9.5, 7.35)" gradientUnits="userSpaceOnUse" id="gradient2" r="819.2" spreadMethod="pad">
      <stop offset="0.0" stop-color="#484848"/>
      <stop offset="0.4470588235294118" stop-color="#2a2a2a"/>
      <stop offset="1.0" stop-color="#1e1e1e"/>
      <stop offset="1.0" stop-color="#383838"/>
    </radialGradient>
  </defs>
</svg>
