<?xml version="1.0" encoding="UTF-8" standalone="no"?>
<svg xmlns:ffdec="https://www.free-decompiler.com/flash" xmlns:xlink="http://www.w3.org/1999/xlink" ffdec:objectType="shape" height="26.05px" width="41.15px" xmlns="http://www.w3.org/2000/svg">
  <g transform="matrix(1.0, 0.0, 0.0, 1.0, 11.5, -2.8)">
    <path d="M21.6 20.9 Q23.2 25.4 29.15 27.0 M18.55 21.5 Q21.85 26.55 25.75 28.35" fill="none" stroke="#580000" stroke-linecap="round" stroke-linejoin="round" stroke-width="1.0"/>
    <path d="M20.75 25.7 Q13.3 21.75 6.9 22.1 L5.25 14.0 16.05 17.75 15.9 17.85 Q15.4 18.4 15.4 19.15 15.4 19.9 15.9 20.4 16.45 20.95 17.2 20.95 17.95 20.95 18.45 20.4 19.0 19.9 19.0 19.15 L19.0 18.8 23.05 20.2 20.75 25.7" fill="#0e3f41" fill-rule="evenodd" stroke="none"/>
    <path d="M19.0 18.8 L19.0 19.15 Q19.0 19.9 18.45 20.4 17.95 20.95 17.2 20.95 16.45 20.95 15.9 20.4 15.4 19.9 15.4 19.15 15.4 18.4 15.9 17.85 L16.05 17.75 Q16.55 17.35 17.2 17.35 17.95 17.35 18.45 17.85 L19.0 18.8" fill="url(#gradient0)" fill-rule="evenodd" stroke="none"/>
    <path d="M16.05 17.75 L5.25 14.0 6.9 22.1 Q13.3 21.75 20.75 25.7 M23.05 20.2 L19.0 18.8" fill="none" stroke="#003a48" stroke-linecap="round" stroke-linejoin="round" stroke-width="1.0"/>
    <path d="M16.05 17.75 Q16.55 17.35 17.2 17.35 17.95 17.35 18.45 17.85 L19.0 18.8" fill="none" stroke="#007895" stroke-linecap="round" stroke-linejoin="round" stroke-width="1.0"/>
    <path d="M19.0 18.8 L19.0 19.15 Q19.0 19.9 18.45 20.4 17.95 20.95 17.2 20.95 16.45 20.95 15.9 20.4 15.4 19.9 15.4 19.15 15.4 18.4 15.9 17.85 L16.05 17.75" fill="none" stroke="#01181e" stroke-linecap="round" stroke-linejoin="round" stroke-width="1.0"/>
    <path d="M20.75 25.7 L23.05 20.2" fill="none" stroke="#061f25" stroke-linecap="round" stroke-linejoin="round" stroke-width="1.0"/>
    <path d="M1.9 15.0 L1.45 14.6 0.5 13.35 Q-0.4 11.85 -0.45 10.05 4.75 7.05 11.35 7.55 17.9 8.0 21.8 12.65 26.75 18.65 25.25 24.1 23.15 21.25 17.5 18.85 14.65 18.4 11.65 19.85 L8.1 18.9 4.5 16.7 3.05 15.85 1.9 15.0" fill="url(#gradient1)" fill-rule="evenodd" stroke="none"/>
    <path d="M1.9 15.0 L3.05 15.85 4.5 16.7 8.1 18.9 11.65 19.85 12.15 19.85 13.0 21.55 Q13.7 23.2 13.65 24.5 L13.45 25.65 Q8.2 24.9 3.4 20.6 4.6 17.7 1.9 15.0" fill="url(#gradient2)" fill-rule="evenodd" stroke="none"/>
    <path d="M13.0 21.55 Q15.3 22.15 17.5 23.55 18.6 26.2 17.5 26.7 L13.65 24.5 Q13.7 23.2 13.0 21.55" fill="url(#gradient3)" fill-rule="evenodd" stroke="none"/>
    <path d="M17.6 23.35 L15.4 21.35 Q19.2 20.85 22.8 23.45 L24.85 25.85 Q22.35 27.55 19.45 27.4 20.1 25.95 17.6 23.35" fill="url(#gradient4)" fill-rule="evenodd" stroke="none"/>
    <path d="M11.65 19.85 Q14.65 18.4 17.5 18.85 23.15 21.25 25.25 24.1 26.75 18.65 21.8 12.65 17.9 8.0 11.35 7.55 4.75 7.05 -0.45 10.05 -0.4 11.85 0.5 13.35 L1.45 14.6 1.9 15.0 3.05 15.85 4.5 16.7 8.1 18.9 11.65 19.85 M12.15 19.85 L13.0 21.55 Q15.3 22.15 17.5 23.55 L17.6 23.35 15.4 21.35 Q19.2 20.85 22.8 23.45 L24.85 25.85 Q22.35 27.55 19.45 27.4 20.1 25.95 17.6 23.35 M13.65 24.5 L13.45 25.65 Q8.2 24.9 3.4 20.6 4.6 17.7 1.9 15.0 M13.0 21.55 Q13.7 23.2 13.65 24.5 L17.5 26.7 Q18.6 26.2 17.5 23.55" fill="none" stroke="#040a2e" stroke-linecap="round" stroke-linejoin="round" stroke-width="1.0"/>
    <path d="M13.3 15.4 Q15.35 15.15 15.75 16.8 L14.0 16.75 Q12.55 15.75 13.3 15.4 M14.65 13.35 Q14.35 14.6 12.8 14.55 10.6 13.95 11.0 12.9 13.0 10.9 14.65 13.35 M11.95 16.65 Q11.45 17.6 10.25 17.25 8.6 16.3 9.2 15.55 11.15 14.4 11.95 16.65 M11.95 23.75 Q11.55 24.55 10.25 23.75 8.65 22.15 9.7 22.0 11.65 21.55 11.95 23.75 M8.2 15.05 L5.35 15.1 Q2.55 12.7 3.2 11.8 6.5 11.2 8.2 15.05 M8.55 20.1 Q9.7 19.8 9.9 21.1 9.65 21.6 8.85 21.1 7.95 20.2 8.55 20.1 M5.1 19.1 Q6.45 18.45 7.65 20.95 8.3 22.25 6.35 21.5 3.7 19.7 5.1 19.1" fill="#3c8a7a" fill-opacity="0.29803923" fill-rule="evenodd" stroke="none"/>
    <path d="M10.65 11.05 Q16.6 11.05 18.8 10.1 21.0 9.1 21.95 5.9 22.85 2.65 12.75 3.45 2.65 4.25 -11.0 12.1" fill="none" stroke="#94deaf" stroke-linecap="round" stroke-linejoin="round" stroke-width="1.0"/>
    <path d="M6.2 10.25 L10.05 10.15 Q10.75 10.8 10.65 12.0" fill="none" stroke="#040a2e" stroke-linecap="round" stroke-linejoin="round" stroke-width="1.0"/>
  </g>
  <defs>
    <radialGradient cx="0" cy="0" gradientTransform="matrix(0.0029, 0.0, 0.0, 0.0029, 17.2, 19.15)" gradientUnits="userSpaceOnUse" id="gradient0" r="819.2" spreadMethod="pad">
      <stop offset="0.0" stop-color="#f5b8f7"/>
      <stop offset="1.0" stop-color="#ff1305"/>
    </radialGradient>
    <radialGradient cx="0" cy="0" gradientTransform="matrix(0.0309, 0.0, 0.0, 0.02, 6.1, 12.1)" gradientUnits="userSpaceOnUse" id="gradient1" r="819.2" spreadMethod="pad">
      <stop offset="0.0" stop-color="#17d7c6"/>
      <stop offset="0.34901960784313724" stop-color="#1fcb8d"/>
      <stop offset="0.5882352941176471" stop-color="#c4b81b"/>
      <stop offset="1.0" stop-color="#910000"/>
      <stop offset="1.0" stop-color="#fff23f"/>
      <stop offset="1.0" stop-color="#ff1305"/>
    </radialGradient>
    <radialGradient cx="0" cy="0" gradientTransform="matrix(0.0268, 0.0, 0.0, 0.0268, 5.15, 16.7)" gradientUnits="userSpaceOnUse" id="gradient2" r="819.2" spreadMethod="pad">
      <stop offset="0.0" stop-color="#17d7c6"/>
      <stop offset="0.34901960784313724" stop-color="#1fcb8d"/>
      <stop offset="0.5882352941176471" stop-color="#c4b81b"/>
      <stop offset="1.0" stop-color="#910000"/>
      <stop offset="1.0" stop-color="#fff23f"/>
      <stop offset="1.0" stop-color="#ff1305"/>
    </radialGradient>
    <radialGradient cx="0" cy="0" gradientTransform="matrix(0.0192, 0.0, 0.0, 0.013, 10.8, 18.85)" gradientUnits="userSpaceOnUse" id="gradient3" r="819.2" spreadMethod="pad">
      <stop offset="0.0" stop-color="#17d7c6"/>
      <stop offset="0.34901960784313724" stop-color="#1fcb8d"/>
      <stop offset="0.5882352941176471" stop-color="#c4b81b"/>
      <stop offset="1.0" stop-color="#910000"/>
      <stop offset="1.0" stop-color="#fff23f"/>
      <stop offset="1.0" stop-color="#ff1305"/>
    </radialGradient>
    <radialGradient cx="0" cy="0" gradientTransform="matrix(0.0264, -0.0122, 0.0053, 0.0115, 15.65, 17.65)" gradientUnits="userSpaceOnUse" id="gradient4" r="819.2" spreadMethod="pad">
      <stop offset="0.0" stop-color="#17d7c6"/>
      <stop offset="0.34901960784313724" stop-color="#1fcb8d"/>
      <stop offset="0.5882352941176471" stop-color="#c4b81b"/>
      <stop offset="1.0" stop-color="#910000"/>
      <stop offset="1.0" stop-color="#fff23f"/>
      <stop offset="1.0" stop-color="#ff1305"/>
    </radialGradient>
  </defs>
</svg>
