<?xml version="1.0" encoding="UTF-8" standalone="no"?>
<svg xmlns:ffdec="https://www.free-decompiler.com/flash" xmlns:xlink="http://www.w3.org/1999/xlink" ffdec:objectType="shape" height="11.75px" width="45.05px" xmlns="http://www.w3.org/2000/svg">
  <g transform="matrix(1.0, 0.0, 0.0, 1.0, 10.45, 4.45)">
    <path d="M-6.9 -1.45 L-4.05 3.0 -9.95 2.45 Q-9.0 0.5 -6.9 -1.45" fill="#b5894a" fill-rule="evenodd" stroke="none"/>
    <path d="M-6.9 -1.45 L2.05 -1.85 5.95 -3.95 32.1 -3.65 34.1 0.5 34.1 2.25 32.05 2.25 21.9 2.25 16.05 2.25 3.35 3.75 3.05 3.6 0.9 2.35 -0.2 1.75 Q-2.2 2.15 -4.05 3.0 L-6.9 -1.45 M6.3 2.15 L3.4 2.15 1.2 0.85 3.4 2.15 6.3 2.15 M23.7 0.85 L22.2 -2.25 23.7 0.85 M27.15 0.85 L25.65 -2.25 27.15 0.85 M30.4 0.85 L28.9 -2.25 30.4 0.85" fill="#d9b568" fill-opacity="0.9843137" fill-rule="evenodd" stroke="none"/>
    <path d="M5.95 -3.95 L2.05 -1.85 -6.9 -1.45 -2.8 -3.85 Q-2.0 -3.7 5.95 -3.95" fill="#b57e4a" fill-opacity="0.98039216" fill-rule="evenodd" stroke="none"/>
    <path d="M3.35 3.75 L16.05 2.25 11.4 5.9 3.35 5.9 3.35 3.75 M-9.95 2.45 L-4.05 3.0 Q-4.8 5.35 -1.7 5.8 -7.35 8.85 -9.95 2.45" fill="#b57f4c" fill-opacity="0.98039216" fill-rule="evenodd" stroke="none"/>
    <path d="M21.9 2.25 L32.05 2.25 31.35 4.3 23.3 4.3 21.9 2.25" fill="#b5804e" fill-rule="evenodd" stroke="none"/>
    <path d="M1.2 0.85 L3.4 2.15 6.3 2.15 M28.9 -2.25 L30.4 0.85 M25.65 -2.25 L27.15 0.85 M22.2 -2.25 L23.7 0.85" fill="none" stroke="#966f36" stroke-linecap="round" stroke-linejoin="round" stroke-width="1.0"/>
    <path d="M-6.9 -1.45 L-4.05 3.0 Q-2.2 2.15 -0.2 1.75 L0.9 2.35 3.05 3.6 3.35 3.75 16.05 2.25 21.9 2.25 32.05 2.25 34.1 2.25 34.1 0.5 32.1 -3.65 5.95 -3.95 Q-2.0 -3.7 -2.8 -3.85 L-6.9 -1.45 Q-9.0 0.5 -9.95 2.45 L-4.05 3.0 Q-4.8 5.35 -1.7 5.8 -7.35 8.85 -9.95 2.45 M32.05 2.25 L31.35 4.3 23.3 4.3 21.9 2.25 M16.05 2.25 L11.4 5.9 3.35 5.9 3.35 3.75" fill="none" stroke="#504630" stroke-linecap="round" stroke-linejoin="round" stroke-width="1.0"/>
  </g>
</svg>
