<?xml version="1.0" encoding="UTF-8" standalone="no"?>
<svg xmlns:xlink="http://www.w3.org/1999/xlink" height="14.75px" width="48.35px" xmlns="http://www.w3.org/2000/svg">
  <g transform="matrix(1.0, 0.0, 0.0, 1.0, -3.4, 7.9)">
    <path d="M40.15 -5.75 Q51.75 -3.6 51.75 -0.55 51.75 2.45 40.15 4.65 L25.3 6.4 22.9 6.55 12.1 6.8 10.3 6.8 9.95 6.8 9.95 -7.9 10.3 -7.9 12.1 -7.9 22.9 -7.65 25.3 -7.5 40.15 -5.75" fill="url(#gradient0)" fill-rule="evenodd" stroke="none"/>
    <path d="M8.8 -7.6 L9.15 -7.65 Q11.2 -7.65 12.7 -5.5 14.2 -3.35 14.2 -0.4 14.2 2.6 12.7 4.75 11.2 6.85 9.15 6.85 L8.8 6.85 8.8 -7.6" fill="url(#gradient1)" fill-rule="evenodd" stroke="none"/>
    <path d="M8.8 6.85 L8.4 6.85 Q6.25 6.85 4.9 4.75 3.4 2.6 3.4 -0.4 3.4 -3.35 4.9 -5.5 6.25 -7.65 8.4 -7.65 L8.8 -7.6 8.8 6.85" fill="url(#gradient2)" fill-rule="evenodd" stroke="none"/>
  </g>
  <defs>
    <radialGradient cx="0" cy="0" gradientTransform="matrix(0.0, 0.008, -0.0484, 0.0, 12.05, -0.55)" gradientUnits="userSpaceOnUse" id="gradient0" r="819.2" spreadMethod="pad">
      <stop offset="0.0" stop-color="#ffffff"/>
      <stop offset="0.5372549019607843" stop-color="#ffad33" stop-opacity="0.0"/>
      <stop offset="1.0" stop-color="#000a5e" stop-opacity="0.0"/>
    </radialGradient>
    <radialGradient cx="0" cy="0" gradientTransform="matrix(0.0, 0.0079, -0.0062, 0.0, 9.05, -0.4)" gradientUnits="userSpaceOnUse" id="gradient1" r="819.2" spreadMethod="pad">
      <stop offset="0.17647058823529413" stop-color="#ffffff"/>
      <stop offset="1.0" stop-color="#ff8811" stop-opacity="0.0"/>
    </radialGradient>
    <radialGradient cx="0" cy="0" gradientTransform="matrix(0.0, 0.0079, 0.0062, 0.0, 8.4, -0.4)" gradientUnits="userSpaceOnUse" id="gradient2" r="819.2" spreadMethod="pad">
      <stop offset="0.17647058823529413" stop-color="#ffffff"/>
      <stop offset="1.0" stop-color="#ff8811" stop-opacity="0.0"/>
    </radialGradient>
  </defs>
</svg>
