<?xml version="1.0" encoding="UTF-8" standalone="no"?>
<svg xmlns:ffdec="https://www.free-decompiler.com/flash" xmlns:xlink="http://www.w3.org/1999/xlink" ffdec:objectType="shape" height="19.55px" width="24.5px" xmlns="http://www.w3.org/2000/svg">
  <g transform="matrix(1.0, 0.0, 0.0, 1.0, 7.5, 16.85)">
    <path d="M2.9 -2.8 L0.45 -9.55 4.1 -14.55 5.3 -16.25 Q10.0 -16.15 13.75 -12.75 15.6 -11.0 16.5 -9.3 L14.1 -4.8 13.25 -3.2 8.8 -3.2 7.05 0.6 4.05 0.45 2.9 -2.8 M6.95 -6.45 Q6.4 -6.95 5.65 -6.95 4.9 -6.95 4.4 -6.45 3.85 -5.9 3.85 -5.15 3.85 -4.4 4.4 -3.85 4.9 -3.3 5.65 -3.3 6.4 -3.3 6.95 -3.85 7.5 -4.4 7.5 -5.15 7.5 -5.9 6.95 -6.45 M10.05 -7.05 Q9.55 -7.05 9.25 -6.7 8.9 -6.4 8.9 -5.9 8.9 -5.4 9.25 -5.05 9.55 -4.7 10.05 -4.7 10.55 -4.7 10.9 -5.05 11.25 -5.4 11.25 -5.9 11.25 -6.4 10.9 -6.7 10.55 -7.05 10.05 -7.05" fill="#596470" fill-rule="evenodd" stroke="none"/>
    <path d="M-6.0 -11.15 L-7.0 -12.05 -6.7 -14.05 -1.85 -16.35 0.9 -14.8 4.1 -14.7 4.1 -14.55 0.45 -9.55 2.9 -2.8 -1.15 -5.05 -2.9 -10.95 -3.85 -11.0 -6.0 -11.15 M14.1 -4.8 L15.75 -3.85 12.25 2.2 8.4 2.2 7.05 0.6 8.8 -3.2 13.25 -3.2 14.1 -4.8 M10.1 -1.45 L9.3 0.3 10.1 -1.45 M-1.05 -13.65 L-1.85 -14.2 -4.45 -12.9 -1.85 -14.2 -1.05 -13.65" fill="#323232" fill-rule="evenodd" stroke="none"/>
    <path d="M10.05 -7.05 Q10.55 -7.05 10.9 -6.7 11.25 -6.4 11.25 -5.9 11.25 -5.4 10.9 -5.05 10.55 -4.7 10.05 -4.7 9.55 -4.7 9.25 -5.05 8.9 -5.4 8.9 -5.9 8.9 -6.4 9.25 -6.7 9.55 -7.05 10.05 -7.05 M6.95 -6.45 Q7.5 -5.9 7.5 -5.15 7.5 -4.4 6.95 -3.85 6.4 -3.3 5.65 -3.3 4.9 -3.3 4.4 -3.85 3.85 -4.4 3.85 -5.15 3.85 -5.9 4.4 -6.45 4.9 -6.95 5.65 -6.95 6.4 -6.95 6.95 -6.45" fill="#41c2ff" fill-rule="evenodd" stroke="none"/>
    <path d="M-6.0 -11.15 L-3.85 -11.0 -2.9 -10.95 -1.15 -5.05 2.9 -2.8 4.05 0.45 0.75 0.4 -1.5 -2.5 -3.55 -3.0 -4.35 -3.35 -5.0 -3.7 -5.15 -3.8 -5.75 -4.3 -5.95 -4.5 -6.35 -5.1 -6.5 -5.3 -6.35 -7.2 -6.1 -10.0 -6.0 -11.15 M-5.75 -4.3 L-5.55 -4.15 -5.15 -3.8 -5.55 -4.15 -5.75 -4.3 M-3.85 -11.0 L-4.25 -5.95 -6.5 -5.3 -4.25 -5.95 -3.85 -11.0" fill="#414141" fill-rule="evenodd" stroke="none"/>
    <path d="M4.1 -14.55 L5.3 -16.25 Q10.0 -16.15 13.75 -12.75 15.6 -11.0 16.5 -9.3 L14.1 -4.8 M7.05 0.6 L4.05 0.45" fill="none" stroke="#2e343a" stroke-linecap="round" stroke-linejoin="round" stroke-width="1.05"/>
    <path d="M4.1 -14.7 L0.9 -14.8 -1.85 -16.35 -6.7 -14.05 -7.0 -12.05 -6.0 -11.15 -6.1 -10.0 M14.1 -4.8 L15.75 -3.85 Q15.0 -1.2 13.55 0.75 L12.25 2.2 8.4 2.2 7.05 0.6" fill="none" stroke="#191919" stroke-linecap="round" stroke-linejoin="round" stroke-width="1.05"/>
    <path d="M10.05 -7.05 Q10.55 -7.05 10.9 -6.7 11.25 -6.4 11.25 -5.9 11.25 -5.4 10.9 -5.05 10.55 -4.7 10.05 -4.7 9.55 -4.7 9.25 -5.05 8.9 -5.4 8.9 -5.9 8.9 -6.4 9.25 -6.7 9.55 -7.05 10.05 -7.05 M6.95 -6.45 Q7.5 -5.9 7.5 -5.15 7.5 -4.4 6.95 -3.85 6.4 -3.3 5.65 -3.3 4.9 -3.3 4.4 -3.85 3.85 -4.4 3.85 -5.15 3.85 -5.9 4.4 -6.45 4.9 -6.95 5.65 -6.95 6.4 -6.95 6.95 -6.45" fill="none" stroke="#3a4048" stroke-linecap="round" stroke-linejoin="round" stroke-width="1.05"/>
    <path d="M2.9 -2.8 L0.45 -9.55 4.1 -14.55 M14.1 -4.8 L13.25 -3.2 8.8 -3.2 7.05 0.6" fill="none" stroke="#25292e" stroke-linecap="round" stroke-linejoin="round" stroke-width="1.05"/>
    <path d="M4.05 0.45 L0.75 0.4 -1.5 -2.5 -3.55 -3.0 -4.35 -3.35 -5.0 -3.7 -5.15 -3.8 -5.55 -4.15 -5.75 -4.3 -5.95 -4.5 -6.3 -4.95 -6.35 -5.1 -6.5 -5.3 -6.35 -7.2" fill="none" stroke="#232323" stroke-linecap="round" stroke-linejoin="round" stroke-width="1.05"/>
    <path d="M4.05 0.45 L2.9 -2.8" fill="none" stroke="#2d3138" stroke-linecap="round" stroke-linejoin="round" stroke-width="1.05"/>
    <path d="M-3.85 -11.0 L-2.9 -10.95 -1.15 -5.05 2.9 -2.8 M9.3 0.3 L10.1 -1.45 M-4.45 -12.9 L-1.85 -14.2 -1.05 -13.65 M-6.5 -5.3 L-4.25 -5.95 -3.85 -11.0" fill="none" stroke="#272727" stroke-linecap="round" stroke-linejoin="round" stroke-width="1.05"/>
    <path d="M-6.35 -7.2 L-6.1 -10.0" fill="none" stroke="#41c2ff" stroke-linecap="round" stroke-linejoin="round" stroke-width="1.05"/>
  </g>
</svg>
