<?xml version="1.0" encoding="UTF-8" standalone="no"?>
<svg xmlns:ffdec="https://www.free-decompiler.com/flash" xmlns:xlink="http://www.w3.org/1999/xlink" ffdec:objectType="shape" height="20.95px" width="19.65px" xmlns="http://www.w3.org/2000/svg">
  <g transform="matrix(1.0, 0.0, 0.0, 1.0, 0.5, 0.5)">
    <path d="M5.15 1.45 Q5.5 0.45 6.2 0.05 9.2 -0.2 12.55 0.65 14.55 1.15 15.75 1.95 L16.8 2.9 16.85 3.0 Q17.75 4.5 18.5 6.9 L18.65 10.5 Q18.4 12.65 17.6 14.1 16.85 16.55 17.2 18.2 L17.8 19.95 Q15.25 19.45 11.7 18.15 L11.65 18.15 10.05 17.5 7.45 14.6 7.4 13.3 7.45 12.55 Q7.35 11.5 6.25 10.75 L4.65 10.15 4.25 8.05 4.3 5.2 Q4.5 3.05 5.15 1.45 M14.6 7.55 L13.4 5.1 12.35 4.85 Q11.4 5.85 10.8 7.55 10.2 9.25 10.7 10.65 12.45 11.75 14.0 12.05 15.25 12.3 15.2 10.5 L17.0 10.4 17.0 7.5 14.7 7.5 14.6 7.55 M17.55 9.9 L17.55 8.05 17.55 9.9 M6.55 8.95 L6.35 8.5 Q6.25 8.35 6.0 8.35 5.75 8.35 5.6 8.5 L5.45 8.95 5.6 9.35 5.7 9.5 6.0 9.55 6.3 9.5 6.35 9.35 6.55 8.95" fill="url(#gradient0)" fill-rule="evenodd" stroke="none"/>
    <path d="M15.2 10.5 Q15.25 12.3 14.0 12.05 12.45 11.75 10.7 10.65 10.2 9.25 10.8 7.55 11.4 5.85 12.35 4.85 L13.4 5.1 14.6 7.55 Q12.55 8.5 12.95 9.35 13.3 10.3 14.4 10.5 L15.2 10.5" fill="url(#gradient1)" fill-rule="evenodd" stroke="none"/>
    <path d="M14.6 7.55 L14.7 7.5 17.0 7.5 17.0 10.4 15.2 10.5 14.4 10.5 Q13.3 10.3 12.95 9.35 12.55 8.5 14.6 7.55" fill="#1e1e1e" fill-rule="evenodd" stroke="none"/>
    <path d="M10.05 17.5 L8.35 17.7 6.6 17.6 Q5.7 17.3 5.15 16.4 4.65 15.55 3.55 15.55 2.0 16.3 1.65 15.8 L1.0 15.35 Q0.45 15.05 0.45 14.7 L0.4 13.75 Q0.45 13.1 0.9 12.4 2.05 10.75 1.75 9.65 L4.25 8.05 4.65 10.15 6.25 10.75 Q7.35 11.5 7.45 12.55 L7.4 13.3 7.45 14.6 10.05 17.5" fill="#1c1c1c" fill-rule="evenodd" stroke="none"/>
    <path d="M1.75 9.65 L0.2 10.3 0.0 7.3 Q-0.05 5.35 1.15 3.3 3.2 2.0 5.15 1.45 4.5 3.05 4.3 5.2 L4.25 8.05 1.75 9.65" fill="url(#gradient2)" fill-rule="evenodd" stroke="none"/>
    <path d="M6.55 8.95 L6.35 9.35 6.3 9.5 6.0 9.55 5.7 9.5 5.6 9.35 5.45 8.95 5.6 8.5 Q5.75 8.35 6.0 8.35 6.25 8.35 6.35 8.5 L6.55 8.95" fill="#353535" fill-rule="evenodd" stroke="none"/>
    <path d="M5.15 1.45 Q5.5 0.45 6.2 0.05 9.2 -0.2 12.55 0.65 14.55 1.15 15.75 1.95 L16.8 2.9 16.85 3.0 Q17.75 4.5 18.5 6.9 L18.65 10.5 Q18.4 12.65 17.6 14.1 16.85 16.55 17.2 18.2 L17.8 19.95 Q15.25 19.45 11.7 18.15 L11.65 18.15 10.05 17.5 8.35 17.7 6.6 17.6 Q5.7 17.3 5.15 16.4 4.65 15.55 3.55 15.55 2.0 16.3 1.65 15.8 L1.0 15.35 Q0.45 15.05 0.45 14.7 L0.4 13.75 Q0.45 13.1 0.9 12.4 2.05 10.75 1.75 9.65 L0.2 10.3 0.0 7.3 Q-0.05 5.35 1.15 3.3 3.2 2.0 5.15 1.45 4.5 3.05 4.3 5.2 L4.25 8.05 4.65 10.15 6.25 10.75 Q7.35 11.5 7.45 12.55 L7.4 13.3 7.45 14.6 10.05 17.5 M4.25 8.05 L1.75 9.65" fill="none" stroke="#0e0e0e" stroke-linecap="round" stroke-linejoin="round" stroke-width="1.0"/>
    <path d="M15.2 10.5 Q15.25 12.3 14.0 12.05 12.45 11.75 10.7 10.65 10.2 9.25 10.8 7.55 11.4 5.85 12.35 4.85 L13.4 5.1 14.6 7.55 14.7 7.5 17.0 7.5 17.0 10.4 15.2 10.5 14.4 10.5 Q13.3 10.3 12.95 9.35 12.55 8.5 14.6 7.55" fill="none" stroke="#020202" stroke-linecap="round" stroke-linejoin="round" stroke-width="1.0"/>
    <path d="M17.55 8.05 L17.55 9.9" fill="none" stroke="#ff0000" stroke-linecap="round" stroke-linejoin="round" stroke-width="1.0"/>
    <path d="M6.55 8.95 L6.35 9.35 6.3 9.5 6.0 9.55 5.7 9.5 5.6 9.35 5.45 8.95 5.6 8.5 Q5.75 8.35 6.0 8.35 6.25 8.35 6.35 8.5 L6.55 8.95 Z" fill="none" stroke="#0e0e0e" stroke-linecap="round" stroke-linejoin="round" stroke-width="0.8"/>
    <path d="M13.8 2.7 L14.05 2.7 M6.7 1.55 L6.95 1.55 M3.15 3.75 L3.4 3.75 M2.75 7.0 L3.0 7.0 M6.6 15.9 L6.85 15.9 M2.25 14.15 L2.5 14.15 M8.95 13.85 L9.2 13.85 M15.1 17.45 L15.35 17.45 M11.8 16.3 L12.05 16.3" fill="none" stroke="#0e0e0e" stroke-linecap="round" stroke-linejoin="round" stroke-width="1.0"/>
  </g>
  <defs>
    <radialGradient cx="0" cy="0" gradientTransform="matrix(0.012, 0.0149, -0.0083, 0.0067, 14.85, 3.25)" gradientUnits="userSpaceOnUse" id="gradient0" r="819.2" spreadMethod="pad">
      <stop offset="0.0" stop-color="#4f4f4f"/>
      <stop offset="1.0" stop-color="#232323"/>
    </radialGradient>
    <radialGradient cx="0" cy="0" gradientTransform="matrix(0.0058, 0.0, 0.0, 0.0052, 12.8, 7.1)" gradientUnits="userSpaceOnUse" id="gradient1" r="819.2" spreadMethod="pad">
      <stop offset="0.3176470588235294" stop-color="#464646"/>
      <stop offset="1.0" stop-color="#171717"/>
    </radialGradient>
    <radialGradient cx="0" cy="0" gradientTransform="matrix(0.0066, 0.0, 0.0, 0.0066, 4.1, 1.8)" gradientUnits="userSpaceOnUse" id="gradient2" r="819.2" spreadMethod="pad">
      <stop offset="0.0" stop-color="#464646"/>
      <stop offset="1.0" stop-color="#232323"/>
    </radialGradient>
  </defs>
</svg>
