<?xml version="1.0" encoding="UTF-8" standalone="no"?>
<svg xmlns:ffdec="https://www.free-decompiler.com/flash" xmlns:xlink="http://www.w3.org/1999/xlink" ffdec:objectType="shape" height="19.8px" width="19.5px" xmlns="http://www.w3.org/2000/svg">
  <g transform="matrix(1.0, 0.0, 0.0, 1.0, 0.2, 1.25)">
    <path d="M11.0 18.05 L10.85 5.25 18.05 3.45 Q19.65 10.7 17.75 15.85 L11.0 18.05" fill="#434343" fill-rule="evenodd" stroke="none"/>
    <path d="M11.0 18.05 L17.75 15.85 Q19.65 10.7 18.05 3.45 L10.85 5.25 11.0 18.05 Z" fill="none" stroke="#0b0b0b" stroke-linecap="round" stroke-linejoin="round" stroke-width="1.0"/>
    <path d="M13.7 9.7 L12.0 9.7 13.7 9.7 M12.8 2.95 Q14.35 3.85 15.35 6.15 16.35 8.45 16.2 11.15 L16.2 12.0 15.95 14.35 Q15.7 16.2 14.15 16.7 L11.1 17.25 Q8.05 17.65 4.8 16.05 L3.8 14.75 Q2.15 11.25 2.45 8.5 2.75 5.75 3.8 4.2 4.85 2.6 8.05 2.3 11.2 2.0 12.8 2.95 M14.65 14.25 L13.25 14.25 14.65 14.25" fill="#e9ca8d" fill-rule="evenodd" stroke="none"/>
    <path d="M12.8 2.95 Q11.2 2.0 8.05 2.3 4.85 2.6 3.8 4.2 2.75 5.75 2.45 8.5 2.15 11.25 3.8 14.75 L4.8 16.05 Q8.05 17.65 11.1 17.25 L14.15 16.7 Q15.7 16.2 15.95 14.35 L16.2 12.0 16.2 11.15 Q16.35 8.45 15.35 6.15 14.35 3.85 12.8 2.95 M13.25 14.25 L14.65 14.25" fill="none" stroke="#a3793c" stroke-linecap="round" stroke-linejoin="round" stroke-width="1.0"/>
    <path d="M12.0 9.7 L13.7 9.7" fill="none" stroke="#a3793c" stroke-linecap="round" stroke-linejoin="round" stroke-width="2.0"/>
    <path d="M12.8 2.95 Q14.35 3.85 15.35 6.15 16.35 8.45 16.2 11.15 L16.2 12.0 15.95 14.35 Q15.7 16.2 14.15 16.7 L11.1 17.25 Q8.05 17.65 4.8 16.05 L3.8 14.75 Q2.15 11.25 2.45 8.5 2.75 5.75 3.8 4.2 4.85 2.6 8.05 2.3 11.2 2.0 12.8 2.95" fill="#3a1e1e" fill-rule="evenodd" stroke="none"/>
    <path d="M12.8 2.95 Q11.2 2.0 8.05 2.3 4.85 2.6 3.8 4.2 2.75 5.75 2.45 8.5 2.15 11.25 3.8 14.75 L4.8 16.05 Q8.05 17.65 11.1 17.25 L14.15 16.7 Q15.7 16.2 15.95 14.35 L16.2 12.0 16.2 11.15 Q16.35 8.45 15.35 6.15 14.35 3.85 12.8 2.95 Z" fill="none" stroke="#3a3a3a" stroke-linecap="round" stroke-linejoin="round" stroke-width="1.0"/>
    <path d="M12.35 6.3 L10.85 7.45 9.05 7.95 8.3 7.35 7.6 6.8 7.6 5.55 11.8 2.95 12.35 6.3 M8.3 11.85 L11.0 12.55 11.85 13.75 11.15 17.2 8.3 15.8 8.3 11.85" fill="#1e1e1e" fill-rule="evenodd" stroke="none"/>
    <path d="M16.2 6.3 L12.35 6.3 11.8 2.95 15.75 2.95 16.2 6.3 M11.85 13.75 L16.45 13.75 16.45 15.55 15.0 17.9 11.15 17.2 11.85 13.75" fill="#2c0101" fill-rule="evenodd" stroke="none"/>
    <path d="M16.2 7.4 L12.6 7.4 11.45 8.35 9.55 8.9 7.35 8.9 8.3 7.35 9.05 7.95 10.85 7.45 12.35 6.3 16.2 6.3 16.2 7.4 M9.55 10.45 L9.55 11.05 11.6 11.55 12.35 12.65 16.55 12.65 16.45 13.75 11.85 13.75 11.0 12.55 8.3 11.85 7.45 10.45 9.55 10.45" fill="#272727" fill-rule="evenodd" stroke="none"/>
    <path d="M9.55 8.9 L11.45 8.35 12.6 7.4 16.2 7.4 17.4 8.5 17.4 11.35 16.55 12.65 12.35 12.65 11.6 11.55 9.55 11.05 9.55 10.45 9.55 8.9 9.55 10.45 7.45 10.45 2.1 10.4 2.1 8.9 7.35 8.9 9.55 8.9" fill="#333333" fill-rule="evenodd" stroke="none"/>
    <path d="M16.2 7.4 L16.2 6.3 12.35 6.3 10.85 7.45 9.05 7.95 8.3 7.35 7.35 8.9 M12.35 6.3 L11.8 2.95 7.6 5.55 7.6 6.8 8.3 7.35 M16.2 6.3 L15.75 2.95 11.8 2.95 M7.45 10.45 L8.3 11.85 11.0 12.55 11.85 13.75 16.45 13.75 16.55 12.65 M11.15 17.2 L15.0 17.9 16.45 15.55 16.45 13.75 M11.85 13.75 L11.15 17.2 8.3 15.8 8.3 11.85" fill="none" stroke="#0b0b0b" stroke-linecap="round" stroke-linejoin="round" stroke-width="0.8"/>
    <path d="M16.2 7.4 L12.6 7.4 11.45 8.35 9.55 8.9 9.55 10.45 9.55 11.05 11.6 11.55 12.35 12.65 16.55 12.65 17.4 11.35 17.4 8.5 16.2 7.4 M7.35 8.9 L9.55 8.9 M7.35 8.9 L2.1 8.9 2.1 10.4 7.45 10.45 9.55 10.45" fill="none" stroke="#0b0b0b" stroke-linecap="round" stroke-linejoin="round" stroke-width="1.0"/>
    <path d="M17.2 10.2 L16.9 11.25 Q16.6 11.7 16.15 11.7 15.7 11.7 15.4 11.25 15.1 10.8 15.1 10.2 15.1 9.6 15.4 9.15 15.7 8.7 16.15 8.7 16.6 8.7 16.9 9.15 L17.2 10.2" fill="url(#gradient0)" fill-rule="evenodd" stroke="none"/>
    <path d="M14.1 8.95 L13.75 9.7 Q13.45 10.05 13.0 10.05 12.55 10.05 12.2 9.7 11.9 9.4 11.9 8.95 11.9 8.5 12.2 8.15 12.55 7.85 13.0 7.85 13.45 7.85 13.75 8.15 L14.1 8.95" fill="url(#gradient1)" fill-rule="evenodd" stroke="none"/>
    <path d="M14.1 11.85 L13.85 12.4 13.3 12.65 Q12.95 12.65 12.7 12.4 L12.5 11.85 12.7 11.25 Q12.95 11.05 13.3 11.05 L13.85 11.25 14.1 11.85" fill="url(#gradient2)" fill-rule="evenodd" stroke="none"/>
    <path d="M14.1 8.95 L13.75 9.7 Q13.45 10.05 13.0 10.05 12.55 10.05 12.2 9.7 11.9 9.4 11.9 8.95 11.9 8.5 12.2 8.15 12.55 7.85 13.0 7.85 13.45 7.85 13.75 8.15 L14.1 8.95 M14.1 11.85 L13.85 12.4 13.3 12.65 Q12.95 12.65 12.7 12.4 L12.5 11.85 12.7 11.25 Q12.95 11.05 13.3 11.05 L13.85 11.25 14.1 11.85 M17.2 10.2 L16.9 11.25 Q16.6 11.7 16.15 11.7 15.7 11.7 15.4 11.25 15.1 10.8 15.1 10.2 15.1 9.6 15.4 9.15 15.7 8.7 16.15 8.7 16.6 8.7 16.9 9.15 L17.2 10.2 Z" fill="none" stroke="#331212" stroke-linecap="round" stroke-linejoin="round" stroke-width="0.8"/>
    <path d="M15.6 1.4 Q17.1 2.35 18.05 3.45 16.2 3.35 14.2 4.25 13.2 4.8 12.25 5.6 10.6 6.9 9.1 8.85 7.95 10.35 6.9 12.2 L7.45 13.5 Q8.6 15.9 11.0 18.05 L7.35 17.05 Q5.95 15.6 5.2 13.95 L4.45 11.6 6.7 8.15 Q8.45 5.7 10.4 4.15 13.6 1.55 15.6 1.4" fill="#696969" fill-rule="evenodd" stroke="none"/>
    <path d="M0.5 12.5 L0.3 10.9 0.95 8.85 2.8 10.4 2.55 13.15 0.5 12.5 M7.55 1.85 L10.4 4.15 Q8.45 5.7 6.7 8.15 L4.15 7.35 4.15 5.15 7.4 2.95 7.55 1.85" fill="#1e1e1e" fill-rule="evenodd" stroke="none"/>
    <path d="M7.35 17.05 L2.9 16.65 Q1.05 15.0 0.5 12.5 L2.55 13.15 3.5 14.25 5.2 13.95 Q5.95 15.6 7.35 17.05 M1.65 6.45 L3.15 1.45 Q5.2 -0.05 7.0 -0.5 L7.8 -0.6 7.55 1.85 7.4 2.95 4.15 5.15 4.15 7.35 1.65 6.45" fill="#989898" fill-rule="evenodd" stroke="none"/>
    <path d="M7.8 -0.6 L11.5 -0.5 Q13.85 0.35 15.6 1.4 13.6 1.55 10.4 4.15 L7.55 1.85 7.8 -0.6 M0.95 8.85 L1.65 6.45 4.15 7.35 6.7 8.15 4.45 11.6 5.2 13.95 3.5 14.25 2.55 13.15 2.8 10.4 0.95 8.85" fill="#3c3c3c" fill-rule="evenodd" stroke="none"/>
    <path d="M7.8 -0.6 L11.5 -0.5 Q13.85 0.35 15.6 1.4 17.1 2.35 18.05 3.45 16.2 3.35 14.2 4.25 13.2 4.8 12.25 5.6 10.6 6.9 9.1 8.85 7.95 10.35 6.9 12.2 L7.45 13.5 Q8.6 15.9 11.0 18.05 L7.35 17.05 2.9 16.65 Q1.05 15.0 0.5 12.5 L0.3 10.9 0.95 8.85 1.65 6.45 3.15 1.45 Q5.2 -0.05 7.0 -0.5 L7.8 -0.6 M10.4 4.15 Q13.6 1.55 15.6 1.4 M6.7 8.15 Q8.45 5.7 10.4 4.15 M5.2 13.95 L4.45 11.6 6.7 8.15 M7.35 17.05 Q5.95 15.6 5.2 13.95" fill="none" stroke="#0b0b0b" stroke-linecap="round" stroke-linejoin="round" stroke-width="1.0"/>
  </g>
  <defs>
    <linearGradient gradientTransform="matrix(0.0024, 0.0, 0.0, 0.0018, 16.15, 10.2)" gradientUnits="userSpaceOnUse" id="gradient0" spreadMethod="pad" x1="-819.2" x2="819.2">
      <stop offset="0.0" stop-color="#3a0303"/>
      <stop offset="0.596078431372549" stop-color="#db0000"/>
      <stop offset="0.9058823529411765" stop-color="#850000"/>
    </linearGradient>
    <linearGradient gradientTransform="matrix(0.0034, 0.0, 0.0, 0.0013, 13.9, 9.0)" gradientUnits="userSpaceOnUse" id="gradient1" spreadMethod="pad" x1="-819.2" x2="819.2">
      <stop offset="0.0" stop-color="#3a0303"/>
      <stop offset="0.596078431372549" stop-color="#db0000"/>
      <stop offset="0.9058823529411765" stop-color="#850000"/>
    </linearGradient>
    <linearGradient gradientTransform="matrix(0.0035, 0.0, 0.0, 0.001, 14.9, 11.95)" gradientUnits="userSpaceOnUse" id="gradient2" spreadMethod="pad" x1="-819.2" x2="819.2">
      <stop offset="0.0" stop-color="#3a0303"/>
      <stop offset="0.596078431372549" stop-color="#db0000"/>
      <stop offset="0.9058823529411765" stop-color="#850000"/>
    </linearGradient>
  </defs>
</svg>
