<?xml version="1.0" encoding="UTF-8" standalone="no"?>
<svg xmlns:ffdec="https://www.free-decompiler.com/flash" xmlns:xlink="http://www.w3.org/1999/xlink" ffdec:objectType="shape" height="19.85px" width="21.2px" xmlns="http://www.w3.org/2000/svg">
  <g transform="matrix(1.0, 0.0, 0.0, 1.0, 7.75, 16.2)">
    <path d="M1.5 -15.65 L2.9 -14.65 1.15 -15.65 1.5 -15.65 M5.6 -11.6 L6.0 -10.2 5.3 -10.15 Q5.95 -10.35 5.25 -11.85 L5.6 -11.6 M4.5 1.5 L-3.35 -0.25 -4.1 -1.6 -3.2 -0.45 4.5 1.5" fill="#8a8580" fill-rule="evenodd" stroke="none"/>
    <path d="M1.15 -15.65 L2.9 -14.65 5.25 -12.95 5.6 -11.6 5.25 -11.85 Q5.95 -10.35 5.3 -10.15 L5.1 -10.15 5.05 -9.7 4.9 -10.15 3.95 -12.6 Q0.75 -15.0 0.1 -15.15 L1.15 -15.65 M5.1 -10.15 L4.9 -10.15 5.1 -10.15 M5.45 0.5 L5.3 0.7 4.5 1.5 -3.2 -0.45 -4.1 -1.6 5.45 0.5" fill="#660000" fill-rule="evenodd" stroke="none"/>
    <path d="M-4.0 -12.6 L-2.05 -10.1 -7.25 -6.05 -6.8 -10.65 -4.0 -12.6" fill="#333333" fill-rule="evenodd" stroke="none"/>
    <path d="M1.05 -5.25 L7.05 -1.25 5.45 0.5 -4.1 -1.6 -4.85 -3.1 -1.45 -5.5 1.05 -5.25" fill="url(#gradient0)" fill-rule="evenodd" stroke="none"/>
    <path d="M2.9 -14.65 L1.5 -15.65 3.2 -15.7 Q7.5 -14.95 10.65 -13.25 L12.95 -10.5 12.7 -7.6 10.4 -7.85 8.75 -8.0 Q8.15 -8.25 7.55 -8.85 L6.0 -10.2 5.6 -11.6 5.25 -12.95 2.9 -14.65" fill="url(#gradient1)" fill-rule="evenodd" stroke="none"/>
    <path d="M-2.05 -10.1 L-0.75 -8.5 1.5 -7.8 1.05 -5.25 -1.45 -5.5 -4.85 -3.1 -7.25 -6.05 -2.05 -10.1" fill="url(#gradient2)" fill-rule="evenodd" stroke="none"/>
    <path d="M7.05 -1.25 Q8.5 -2.5 10.0 -2.6 L12.1 -0.65 10.9 2.35 8.15 3.15 4.5 1.5 5.3 0.7 5.45 0.5 7.05 -1.25" fill="url(#gradient3)" fill-rule="evenodd" stroke="none"/>
    <path d="M6.0 -10.2 L7.55 -8.85 Q8.15 -8.25 8.75 -8.0 L10.4 -7.85 Q11.7 -5.1 10.0 -2.6 8.5 -2.5 7.05 -1.25 L1.05 -5.25 1.5 -7.8 Q2.0 -9.1 2.95 -9.95 L4.9 -10.15 5.05 -9.7 5.1 -10.15 5.3 -10.15 6.0 -10.2 M6.55 -5.7 L2.95 -7.7 6.55 -5.7 M7.25 -3.45 L4.2 -5.05 7.25 -3.45" fill="url(#gradient4)" fill-rule="evenodd" stroke="none"/>
    <path d="M1.15 -15.65 L0.1 -15.15 Q0.75 -15.0 3.95 -12.6 L4.9 -10.15 2.95 -9.95 Q2.0 -9.1 1.5 -7.8 L-0.75 -8.5 -2.05 -10.1 -4.0 -12.6 Q-3.45 -14.25 -2.05 -15.25 L1.15 -15.65" fill="url(#gradient5)" fill-rule="evenodd" stroke="none"/>
    <path d="M2.9 -14.65 L1.5 -15.65 1.15 -15.65 -2.05 -15.25 Q-3.45 -14.25 -4.0 -12.6 L-2.05 -10.1 -0.75 -8.5 1.5 -7.8 Q2.0 -9.1 2.95 -9.95 L4.9 -10.15 5.1 -10.15 5.3 -10.15 6.0 -10.2 7.55 -8.85 Q8.15 -8.25 8.75 -8.0 L10.4 -7.85 12.7 -7.6 12.95 -10.5 10.65 -13.25 Q7.5 -14.95 3.2 -15.7 L1.5 -15.65 M2.9 -14.65 L5.25 -12.95 5.6 -11.6 6.0 -10.2 M7.05 -1.25 Q8.5 -2.5 10.0 -2.6 L12.1 -0.65 10.9 2.35 8.15 3.15 4.5 1.5 -3.35 -0.25 -4.1 -1.6 -4.85 -3.1 -7.25 -6.05 -2.05 -10.1 M1.05 -5.25 L7.05 -1.25 5.45 0.5 M5.3 0.7 L4.5 1.5 M1.5 -7.8 L1.05 -5.25 -1.45 -5.5 -4.85 -3.1 M-7.25 -6.05 L-6.8 -10.65 -4.0 -12.6" fill="none" stroke="#2b2927" stroke-linecap="round" stroke-linejoin="round" stroke-width="1.0"/>
    <path d="M10.0 -2.6 Q11.7 -5.1 10.4 -7.85" fill="none" stroke="#333333" stroke-linecap="round" stroke-linejoin="round" stroke-opacity="0.8" stroke-width="1.0"/>
    <path d="M4.2 -5.05 L7.25 -3.45 M2.95 -7.7 L6.55 -5.7" fill="none" stroke="#383838" stroke-linecap="round" stroke-linejoin="round" stroke-width="1.0"/>
  </g>
  <defs>
    <radialGradient cx="0" cy="0" gradientTransform="matrix(0.0114, 0.0, 0.0, 0.0114, 3.65, -7.3)" gradientUnits="userSpaceOnUse" id="gradient0" r="819.2" spreadMethod="pad">
      <stop offset="0.0" stop-color="#8a8580"/>
      <stop offset="1.0" stop-color="#6d6965"/>
      <stop offset="1.0" stop-color="#333333"/>
    </radialGradient>
    <radialGradient cx="0" cy="0" gradientTransform="matrix(0.0085, 0.0, 0.0, 0.0085, 11.2, -11.8)" gradientUnits="userSpaceOnUse" id="gradient1" r="819.2" spreadMethod="pad">
      <stop offset="0.0" stop-color="#4d4946"/>
      <stop offset="1.0" stop-color="#3c3b38"/>
      <stop offset="1.0" stop-color="#333333"/>
    </radialGradient>
    <radialGradient cx="0" cy="0" gradientTransform="matrix(0.0056, 0.0, 0.0, 0.0056, -0.05, -7.25)" gradientUnits="userSpaceOnUse" id="gradient2" r="819.2" spreadMethod="pad">
      <stop offset="0.0" stop-color="#4d4946"/>
      <stop offset="1.0" stop-color="#3c3b38"/>
      <stop offset="1.0" stop-color="#333333"/>
    </radialGradient>
    <radialGradient cx="0" cy="0" gradientTransform="matrix(0.0064, 0.0, 0.0, 0.0064, 7.25, -2.5)" gradientUnits="userSpaceOnUse" id="gradient3" r="819.2" spreadMethod="pad">
      <stop offset="0.0" stop-color="#4d4946"/>
      <stop offset="1.0" stop-color="#3c3b38"/>
      <stop offset="1.0" stop-color="#333333"/>
    </radialGradient>
    <linearGradient gradientTransform="matrix(0.0093, 9.0E-4, -5.0E-4, 0.0054, 2.95, -6.45)" gradientUnits="userSpaceOnUse" id="gradient4" spreadMethod="pad" x1="-819.2" x2="819.2">
      <stop offset="0.0" stop-color="#333333"/>
      <stop offset="0.984313725490196" stop-color="#666666"/>
      <stop offset="1.0" stop-color="#333333"/>
    </linearGradient>
    <radialGradient cx="0" cy="0" gradientTransform="matrix(0.0082, 0.0, 0.0, 0.0082, 3.15, -8.2)" gradientUnits="userSpaceOnUse" id="gradient5" r="819.2" spreadMethod="pad">
      <stop offset="0.0" stop-color="#8a8580"/>
      <stop offset="1.0" stop-color="#6d6965"/>
      <stop offset="1.0" stop-color="#333333"/>
      <stop offset="1.0" stop-color="#6d6965"/>
      <stop offset="1.0" stop-color="#6d6965"/>
      <stop offset="1.0" stop-color="#6d6965"/>
      <stop offset="1.0" stop-color="#6d6965"/>
    </radialGradient>
  </defs>
</svg>
