<?xml version="1.0" encoding="UTF-8" standalone="no"?>
<svg xmlns:ffdec="https://www.free-decompiler.com/flash" xmlns:xlink="http://www.w3.org/1999/xlink" ffdec:objectType="shape" height="18.2px" width="18.1px" xmlns="http://www.w3.org/2000/svg">
  <g transform="matrix(1.0, 0.0, 0.0, 1.0, 6.25, 16.7)">
    <path d="M3.5 -0.5 L3.3 0.85 -1.3 0.35 -1.25 -1.75 Q-1.95 -2.1 -2.4 -2.95 -2.85 -4.0 -3.0 -6.0 -3.2 -8.2 -2.8 -9.9 -2.3 -12.0 -1.0 -12.95 1.35 -14.7 3.9 -14.6 6.3 -14.5 8.1 -12.8 9.2 -11.8 9.45 -10.2 L9.9 -7.45 10.8 -6.35 Q11.45 -5.6 11.3 -5.2 L10.65 -4.55 10.15 -4.0 9.75 -1.7 Q9.55 -0.25 8.85 -0.05 L7.65 0.1 6.9 0.05 3.5 -0.5 Q2.2 -0.95 2.0 -1.45 2.2 -0.95 3.5 -0.5" fill="#b37b62" fill-rule="evenodd" stroke="none"/>
    <path d="M3.5 -0.5 L6.9 0.05 7.65 0.1 8.85 -0.05 Q9.55 -0.25 9.75 -1.7 L10.15 -4.0 10.65 -4.55 11.3 -5.2 Q11.45 -5.6 10.8 -6.35 L9.9 -7.45 9.45 -10.2 Q9.2 -11.8 8.1 -12.8 6.3 -14.5 3.9 -14.6 1.35 -14.7 -1.0 -12.95 -2.3 -12.0 -2.8 -9.9 -3.2 -8.2 -3.0 -6.0 -2.85 -4.0 -2.4 -2.95 -1.95 -2.1 -1.25 -1.75 L-1.3 0.35 3.3 0.85 3.5 -0.5" fill="none" stroke="#754c40" stroke-linecap="round" stroke-linejoin="round" stroke-width="1.05"/>
    <path d="M3.5 -0.5 Q2.2 -0.95 2.0 -1.45" fill="none" stroke="#754c40" stroke-linecap="round" stroke-linejoin="round" stroke-opacity="0.5019608" stroke-width="1.05"/>
    <path d="M9.9 -2.8 L8.5 -2.8 9.85 -2.3 9.9 -2.8 Z" fill="none" stroke="#8a4441" stroke-linecap="round" stroke-linejoin="round" stroke-width="1.05"/>
    <path d="M7.35 -6.8 L6.25 -6.7 Q5.65 -6.75 5.95 -7.4 6.2 -8.05 6.55 -7.95 L7.4 -7.65 Q8.0 -7.4 8.0 -7.15 8.0 -6.95 7.35 -6.8" fill="#a1c3b8" fill-rule="evenodd" stroke="none"/>
    <path d="M6.75 -6.65 L6.8 -7.75 7.45 -7.75 Q8.0 -7.75 8.0 -7.2 7.95 -6.65 7.4 -6.7 L6.75 -6.65" fill="#000000" fill-rule="evenodd" stroke="none"/>
    <path d="M5.6 -7.4 Q5.95 -6.8 6.7 -6.55 7.8 -6.75 8.0 -7.15" fill="none" stroke="#5c3e2e" stroke-linecap="round" stroke-linejoin="round" stroke-width="0.5"/>
    <path d="M7.3 -9.0 L5.25 -9.05" fill="none" stroke="#724d42" stroke-linecap="round" stroke-linejoin="miter-clip" stroke-miterlimit="4.0" stroke-width="0.5"/>
    <path d="M-0.55 -6.5 Q-0.8 -5.2 -0.3 -4.25 0.2 -3.35 0.6 -3.85" fill="none" stroke="#976551" stroke-linecap="round" stroke-linejoin="miter-clip" stroke-miterlimit="4.0" stroke-width="1.05"/>
    <path d="M4.85 -15.8 L7.05 -15.4 Q9.0 -14.6 9.7 -13.6 10.3 -12.8 10.55 -11.5 10.8 -10.2 10.5 -9.5 9.85 -9.65 9.2 -10.5 L8.7 -11.25 Q8.1 -9.45 7.5 -9.0 L7.15 -9.65 6.0 -10.65 Q5.6 -10.8 5.5 -10.4 L5.15 -9.45 Q4.4 -8.4 4.4 -5.05 L4.5 -1.85 3.25 -3.05 2.8 -3.7 1.9 -9.25 1.75 -8.9 1.5 -8.2 1.15 -6.35 Q1.05 -5.4 1.45 -3.6 L1.95 1.1 0.4 0.5 -1.0 0.25 -1.35 -0.5 -1.6 -1.25 -1.85 -0.55 -2.25 0.1 Q-3.0 -0.05 -3.5 -0.35 L-4.4 -1.3 Q-4.4 -3.2 -5.05 -4.9 L-5.8 -7.2 -5.85 -9.45 -5.45 -11.65 Q-5.05 -13.8 -3.0 -15.3 -1.7 -16.25 0.35 -16.3 L1.5 -16.25 2.6 -15.95 4.85 -15.8" fill="#443226" fill-rule="evenodd" stroke="none"/>
    <path d="M4.85 -15.8 L7.05 -15.4 Q9.0 -14.6 9.7 -13.6 10.3 -12.8 10.55 -11.5 10.8 -10.2 10.5 -9.5 9.85 -9.65 9.2 -10.5 L8.7 -11.25 Q8.1 -9.45 7.5 -9.0 L7.15 -9.65 6.0 -10.65 Q5.6 -10.8 5.5 -10.4 L5.15 -9.45 Q4.4 -8.4 4.4 -5.05 L4.5 -1.85 3.25 -3.05 2.8 -3.7 1.9 -9.25 1.75 -8.9 1.5 -8.2 1.15 -6.35 Q1.05 -5.4 1.45 -3.6 L1.95 1.1 0.4 0.5 -1.0 0.25 -1.35 -0.5 -1.6 -1.25 -1.85 -0.55 -2.25 0.1 Q-3.0 -0.05 -3.5 -0.35 L-4.4 -1.3 Q-4.4 -3.2 -5.05 -4.9 L-5.8 -7.2 -5.85 -9.45 -5.45 -11.65 Q-5.05 -13.8 -3.0 -15.3 -1.7 -16.25 0.35 -16.3 L1.5 -16.25 2.6 -15.95 4.85 -15.8 Z" fill="none" stroke="#1e1610" stroke-linecap="round" stroke-linejoin="round" stroke-opacity="0.5019608" stroke-width="0.8500000000000001"/>
    <path d="M8.0 -7.15 Q7.5 -7.85 6.95 -7.9 L6.15 -7.65 5.6 -7.4" fill="none" stroke="#6b4034" stroke-linecap="round" stroke-linejoin="round" stroke-width="0.5"/>
    <path d="M-3.1 -1.85 Q-2.7 -2.8 -2.8 -4.15 L-3.05 -5.6 -3.35 -6.35" fill="none" stroke="#33251c" stroke-linecap="round" stroke-linejoin="round" stroke-opacity="0.5019608" stroke-width="1.05"/>
    <path d="M2.35 -13.55 L1.5 -12.65 Q0.6 -11.6 0.2 -10.5 -0.85 -7.4 0.0 -3.75 M7.85 -11.4 Q7.85 -12.35 7.2 -13.25 6.7 -13.95 5.8 -14.4 L5.05 -14.7 M-1.35 -14.2 Q-2.3 -13.85 -3.05 -12.85 L-3.45 -12.05 -3.75 -11.2 -4.4 -9.6" fill="none" stroke="#261c15" stroke-linecap="round" stroke-linejoin="round" stroke-opacity="0.5019608" stroke-width="1.05"/>
  </g>
</svg>
