<?xml version="1.0" encoding="UTF-8" standalone="no"?>
<svg xmlns:ffdec="https://www.free-decompiler.com/flash" xmlns:xlink="http://www.w3.org/1999/xlink" ffdec:objectType="shape" height="21.95px" width="22.05px" xmlns="http://www.w3.org/2000/svg">
  <g transform="matrix(1.0, 0.0, 0.0, 1.0, -9.0, -17.75)">
    <path d="M24.6 36.45 L23.45 33.5 Q22.15 32.9 20.85 32.25 L21.1 31.35 20.1 30.35 Q19.05 28.0 21.2 27.2 L22.1 27.55 23.7 27.55 25.5 26.5 29.9 29.15 Q30.0 33.95 28.9 35.1 27.8 36.2 24.6 36.45" fill="url(#gradient0)" fill-rule="evenodd" stroke="none"/>
    <path d="M29.9 29.15 Q30.0 33.95 28.9 35.1 27.8 36.2 24.6 36.45" fill="none" stroke="#331f8e" stroke-linecap="round" stroke-linejoin="round" stroke-opacity="0.8" stroke-width="1.0"/>
    <path d="M25.9 30.4 L26.55 31.85 26.95 32.15 27.9 31.8 27.9 30.7 26.45 29.55 25.9 30.4 M28.35 27.7 L29.4 30.7 28.6 32.9 27.3 33.9 26.95 33.4 26.45 33.8 26.15 33.05 26.5 32.65 24.65 31.65 25.25 31.45 24.8 30.75 20.65 27.5 24.7 28.9 22.75 27.45 25.6 27.75 24.1 25.9 28.35 27.7" fill="url(#gradient1)" fill-rule="evenodd" stroke="none"/>
    <path d="M23.35 30.85 L23.75 31.35 23.25 31.35 25.7 32.85 25.3 33.35 26.25 34.9 26.8 34.3 27.1 34.9 28.25 34.0 27.8 35.3 26.7 35.75 25.35 35.4 23.05 32.6 23.75 32.6 22.2 30.7 23.35 30.85" fill="url(#gradient2)" fill-rule="evenodd" stroke="none"/>
    <path d="M21.2 27.2 L20.7 26.95 21.7 27.4 21.2 27.2" fill="#2a2a2a" fill-rule="evenodd" stroke="none"/>
    <path d="M15.0 35.4 L14.1 34.65 14.1 33.85 15.0 35.4" fill="#2b426b" fill-rule="evenodd" stroke="none"/>
    <path d="M10.45 27.85 L10.5 28.15 10.35 27.8 10.45 27.85" fill="#404930" fill-rule="evenodd" stroke="none"/>
    <path d="M21.6 20.75 L22.85 21.75 22.75 21.8 22.45 22.0 21.6 20.75 M10.35 27.7 L13.25 28.4 10.45 27.85 10.35 27.8 10.35 27.7" fill="#444930" fill-rule="evenodd" stroke="none"/>
    <path d="M12.55 22.45 L12.35 22.35 12.45 22.25 Q12.55 22.4 13.15 22.75 L12.55 22.45 M12.5 22.15 L12.7 21.9 12.45 22.1 12.9 21.7 12.5 22.15" fill="#5a6447" fill-rule="evenodd" stroke="none"/>
    <path d="M17.05 19.45 L17.05 21.25 Q15.9 21.9 15.0 22.65 L14.25 23.35 13.15 22.75 Q12.55 22.4 12.45 22.25 L12.5 22.15 12.9 21.7 13.55 21.2 Q15.05 19.95 17.05 19.45" fill="#54504d" fill-rule="evenodd" stroke="none"/>
    <path d="M22.45 22.0 L25.5 26.5 23.7 27.55 22.1 27.55 21.7 27.4 20.7 26.95 20.35 26.8 18.6 25.05 19.85 22.9 22.45 22.0 M18.8 33.9 L18.15 32.5 16.65 31.1 16.65 29.8 19.55 29.8 20.1 30.35 21.1 31.35 20.85 32.25 Q22.15 32.9 23.45 33.5 L25.05 35.6 24.9 35.9 24.2 36.4 19.45 35.35 18.8 33.9 M18.15 32.5 L20.6 33.2 20.85 32.25 20.6 33.2 18.15 32.5" fill="#353535" fill-rule="evenodd" stroke="none"/>
    <path d="M22.45 22.0 L22.75 21.8 22.85 21.75 21.6 20.75 21.55 20.7 22.05 19.8 22.65 19.5 25.6 20.4 25.65 20.45 26.05 20.85 26.6 21.35 27.35 22.2 Q29.75 24.7 30.55 26.7 L29.9 29.15 25.5 26.5 22.45 22.0 M24.2 36.4 L24.9 35.9 25.2 35.7 29.35 35.2 29.35 36.6 Q28.4 38.8 25.45 39.2 L22.3 37.65 22.5 37.55 24.2 36.4" fill="#60506b" fill-rule="evenodd" stroke="none"/>
    <path d="M21.6 20.75 L22.45 22.0 19.85 22.9 18.6 25.05 20.35 26.8 16.1 27.2 14.9 28.75 13.25 28.4 14.9 28.75 16.1 27.2 20.35 26.8 20.7 26.95 21.2 27.2 Q18.65 27.65 20.1 30.35 L19.55 29.8 16.65 29.8 16.65 31.1 18.15 32.5 18.8 33.9 15.7 33.9 14.1 33.7 15.7 33.9 18.8 33.9 19.45 35.35 24.2 36.4 22.5 37.55 15.0 35.4 14.1 33.85 14.0 33.65 12.55 33.15 12.5 33.1 11.1 30.05 10.5 28.15 10.45 27.85 13.25 28.4 10.35 27.7 9.5 27.45 Q9.55 24.55 11.0 22.4 L12.35 22.35 12.55 22.45 13.25 22.85 13.15 22.75 14.25 23.35 15.0 22.65 Q15.9 21.9 17.05 21.25 L17.05 19.45 17.05 18.8 Q19.3 17.85 21.45 18.5 L22.65 19.5 22.05 19.8 21.55 20.7 21.6 20.75 M14.1 33.7 L14.0 33.65 14.1 33.7" fill="#2e2e2e" fill-rule="evenodd" stroke="none"/>
    <path d="M13.15 22.75 L13.25 22.85 M12.45 22.25 Q12.55 22.4 13.15 22.75 M14.0 33.65 L14.1 33.7 M14.1 33.85 L14.0 33.65" fill="none" stroke="#232717" stroke-linecap="round" stroke-linejoin="round" stroke-width="1.0"/>
    <path d="M10.45 27.85 L10.5 28.15 M12.5 33.1 L12.55 33.15" fill="none" stroke="#272a18" stroke-linecap="round" stroke-linejoin="round" stroke-width="1.0"/>
    <path d="M21.6 20.75 L22.45 22.0 25.5 26.5 29.9 29.15 30.55 26.7 Q29.75 24.7 27.35 22.2 L26.6 21.35 26.05 20.85 25.65 20.45 25.6 20.4 22.65 19.5 22.05 19.8 21.55 20.7 21.6 20.75 M20.35 26.8 L18.6 25.05 19.85 22.9 22.45 22.0 M18.8 33.9 L18.15 32.5 16.65 31.1 16.65 29.8 19.55 29.8 20.1 30.35 Q18.65 27.65 21.2 27.2 L20.7 26.95 20.35 26.8 M18.8 33.9 L19.45 35.35 24.2 36.4 24.9 35.9 25.2 35.7 29.35 35.2 29.35 36.6 Q28.4 38.8 25.45 39.2 L22.3 37.65 22.5 37.55 24.2 36.4 M25.05 35.6 L23.45 33.5 Q22.15 32.9 20.85 32.25 L20.6 33.2 18.15 32.5 M21.7 27.4 L21.2 27.2 M21.7 27.4 L22.1 27.55 23.7 27.55 25.5 26.5 M20.7 26.95 L21.7 27.4 M20.1 30.35 L21.1 31.35 20.85 32.25" fill="none" stroke="#272727" stroke-linecap="round" stroke-linejoin="round" stroke-width="1.0"/>
    <path d="M22.65 19.5 L21.45 18.5 Q19.3 17.85 17.05 18.8 L17.05 19.45 17.05 21.25 Q15.9 21.9 15.0 22.65 L14.25 23.35 13.15 22.75 12.55 22.45 12.35 22.35 11.0 22.4 Q9.55 24.55 9.5 27.45 L10.35 27.7 13.25 28.4 14.9 28.75 16.1 27.2 20.35 26.8 M13.25 22.85 L12.55 22.45 M12.9 21.7 Q14.85 19.75 17.05 19.45 M12.9 21.7 L12.5 22.15 M12.55 33.15 L14.0 33.65 M14.1 33.7 L15.7 33.9 18.8 33.9 M10.5 28.15 Q10.85 30.8 12.5 33.1 M15.0 35.4 L14.1 33.85 M22.5 37.55 L15.0 35.4" fill="none" stroke="#202020" stroke-linecap="round" stroke-linejoin="round" stroke-width="1.0"/>
  </g>
  <defs>
    <linearGradient gradientTransform="matrix(0.0052, -0.003, 0.0028, 0.0048, 25.65, 31.1)" gradientUnits="userSpaceOnUse" id="gradient0" spreadMethod="pad" x1="-819.2" x2="819.2">
      <stop offset="0.0" stop-color="#510abb"/>
      <stop offset="0.6" stop-color="#8d4fe9"/>
      <stop offset="1.0" stop-color="#bd66ff"/>
    </linearGradient>
    <linearGradient gradientTransform="matrix(0.0053, 0.0, 0.0, 0.0049, 25.0, 29.85)" gradientUnits="userSpaceOnUse" id="gradient1" spreadMethod="pad" x1="-819.2" x2="819.2">
      <stop offset="0.0" stop-color="#000000" stop-opacity="0.29803923"/>
      <stop offset="1.0" stop-color="#0006a8" stop-opacity="0.4862745"/>
      <stop offset="1.0" stop-color="#304974" stop-opacity="0.69803923"/>
    </linearGradient>
    <linearGradient gradientTransform="matrix(0.0037, 0.0, 0.0, 0.0031, 25.2, 33.2)" gradientUnits="userSpaceOnUse" id="gradient2" spreadMethod="pad" x1="-819.2" x2="819.2">
      <stop offset="0.0" stop-color="#000000" stop-opacity="0.29803923"/>
      <stop offset="1.0" stop-color="#0006a8" stop-opacity="0.4862745"/>
      <stop offset="1.0" stop-color="#304974" stop-opacity="0.69803923"/>
    </linearGradient>
  </defs>
</svg>
