<?xml version="1.0" encoding="UTF-8" standalone="no"?>
<svg xmlns:ffdec="https://www.free-decompiler.com/flash" xmlns:xlink="http://www.w3.org/1999/xlink" ffdec:objectType="shape" height="19.3px" width="22.0px" xmlns="http://www.w3.org/2000/svg">
  <g transform="matrix(1.0, 0.0, 0.0, 1.0, 10.25, 16.1)">
    <path d="M7.1 -13.45 L3.1 -12.8 2.4 -15.2 5.55 -15.2 7.1 -13.45 M-4.4 -14.35 L-3.05 -12.75 -3.9 -11.2 -6.8 -10.05 -9.75 -10.05 -7.55 -11.2 -4.4 -14.35" fill="#af9558" fill-rule="evenodd" stroke="none"/>
    <path d="M2.4 -15.2 L3.1 -12.8 7.1 -13.45 Q8.95 -11.2 7.8 -10.6 0.65 -11.35 -1.3 -9.2 -0.15 -7.8 2.05 -6.9 3.85 -6.2 6.05 -6.05 L8.05 -6.05 9.45 -6.05 Q10.7 -4.75 11.1 -3.45 11.45 -2.25 11.05 -1.1 L10.65 -0.05 Q10.0 1.55 9.15 2.25 L6.75 -2.65 2.4 -3.6 -0.8 -2.8 -3.65 -5.15 -5.4 -3.65 Q-6.6 -5.7 -6.75 -7.3 L-6.8 -10.05 -3.9 -11.2 -3.05 -12.75 -4.4 -14.35 Q-0.65 -16.3 2.4 -15.2 M9.05 -2.25 Q9.2 -0.65 10.65 -0.05 9.2 -0.65 9.05 -2.25 M4.15 -4.8 L5.7 -4.55 6.05 -6.05 5.7 -4.55 4.15 -4.8 M-0.3 -4.9 L-1.85 -6.4 -0.3 -4.9" fill="#e1cb73" fill-rule="evenodd" stroke="none"/>
    <path d="M-5.4 -3.65 L-3.65 -5.15 -0.8 -2.8 2.4 -3.6 6.75 -2.65 9.15 2.25 7.5 2.7 3.0 -1.25 3.0 0.6 Q0.3 3.35 -3.15 0.55 L-3.15 -1.25 Q-4.65 -2.5 -5.4 -3.65 M-3.15 -1.25 L3.0 -1.25 -3.15 -1.25" fill="#7e6a3d" fill-rule="evenodd" stroke="none"/>
    <path d="M-6.8 -10.05 L-6.75 -7.3 Q-6.6 -5.7 -5.4 -3.65 L-9.0 -5.0 -9.75 -10.05 -6.8 -10.05 M-8.3 -7.85 L-8.4 -8.85 -8.3 -7.85 M-7.85 -5.55 L-8.05 -6.7 -7.85 -5.55" fill="#aa974d" fill-rule="evenodd" stroke="none"/>
    <path d="M7.8 -10.6 Q7.5 -9.7 7.55 -8.3 7.6 -6.85 8.05 -6.05 L6.05 -6.05 Q3.85 -6.2 2.05 -6.9 -0.15 -7.8 -1.3 -9.2 0.65 -11.35 7.8 -10.6" fill="url(#gradient0)" fill-rule="evenodd" stroke="none"/>
    <path d="M7.1 -13.45 L5.55 -15.2 2.4 -15.2 Q-0.65 -16.3 -4.4 -14.35 L-7.55 -11.2 -9.75 -10.05 M-5.4 -3.65 L-3.65 -5.15 -0.8 -2.8 2.4 -3.6 6.75 -2.65 9.15 2.25 M7.8 -10.6 Q8.95 -11.2 7.1 -13.45 M-8.4 -8.85 L-8.3 -7.85 M-8.05 -6.7 L-7.85 -5.55" fill="none" stroke="#504630" stroke-linecap="round" stroke-linejoin="round" stroke-width="1.0"/>
    <path d="M2.4 -15.2 L3.1 -12.8 7.1 -13.45 M-4.4 -14.35 L-3.05 -12.75 -3.9 -11.2 -6.8 -10.05 -9.75 -10.05 M-1.85 -6.4 L-0.3 -4.9" fill="none" stroke="#80704d" stroke-linecap="round" stroke-linejoin="round" stroke-width="1.0"/>
    <path d="M9.15 2.25 Q10.0 1.55 10.65 -0.05 9.2 -0.65 9.05 -2.25 M8.05 -6.05 L9.45 -6.05 Q10.7 -4.75 11.1 -3.45 11.45 -2.25 11.05 -1.1 L10.65 -0.05 M9.15 2.25 L7.5 2.7 3.0 -1.25 3.0 0.6 Q0.3 3.35 -3.15 0.55 L-3.15 -1.25 Q-4.65 -2.5 -5.4 -3.65 L-9.0 -5.0 -9.75 -10.05" fill="none" stroke="#453929" stroke-linecap="round" stroke-linejoin="round" stroke-width="1.0"/>
    <path d="M-6.8 -10.05 L-6.75 -7.3 Q-6.6 -5.7 -5.4 -3.65" fill="none" stroke="#756646" stroke-linecap="round" stroke-linejoin="round" stroke-width="1.0"/>
    <path d="M3.0 -1.25 L-3.15 -1.25" fill="none" stroke="#65543d" stroke-linecap="round" stroke-linejoin="round" stroke-width="1.0"/>
    <path d="M6.05 -6.05 L5.7 -4.55 4.15 -4.8" fill="none" stroke="#3a311b" stroke-linecap="round" stroke-linejoin="round" stroke-width="1.0"/>
    <path d="M8.05 -6.05 Q7.6 -6.85 7.55 -8.3 7.5 -9.7 7.8 -10.6 0.65 -11.35 -1.3 -9.2 -0.15 -7.8 2.05 -6.9 3.85 -6.2 6.05 -6.05 L8.05 -6.05 Z" fill="none" stroke="#000000" stroke-linecap="round" stroke-linejoin="round" stroke-width="1.0"/>
  </g>
  <defs>
    <linearGradient gradientTransform="matrix(0.0071, 0.0, 0.0, 0.0026, 2.3, -9.3)" gradientUnits="userSpaceOnUse" id="gradient0" spreadMethod="pad" x1="-819.2" x2="819.2">
      <stop offset="0.0" stop-color="#0a273a"/>
      <stop offset="1.0" stop-color="#134475"/>
      <stop offset="1.0" stop-color="#aaf876"/>
    </linearGradient>
  </defs>
</svg>
