<?xml version="1.0" encoding="UTF-8" standalone="no"?>
<svg xmlns:ffdec="https://www.free-decompiler.com/flash" xmlns:xlink="http://www.w3.org/1999/xlink" ffdec:objectType="shape" height="19.45px" width="33.9px" xmlns="http://www.w3.org/2000/svg">
  <g transform="matrix(1.0, 0.0, 0.0, 1.0, 11.8, 16.65)">
    <path d="M-2.4 -1.15 Q-3.9 -2.35 -4.05 -3.15 L-8.6 -3.9 Q-8.15 -6.15 -10.4 -7.9 -12.1 -8.65 -10.55 -10.05 -7.6 -10.8 -7.45 -11.5 L-6.7 -12.8 Q-6.25 -13.4 -4.6 -14.0 L-1.7 -14.85 Q-3.9 -13.35 -3.75 -11.5 -2.1 -10.9 -2.85 -9.65 L-3.75 -8.45 Q-4.85 -6.0 -2.9 -4.1 L-1.65 -3.0 0.8 -3.8 3.1 -0.8 -0.15 -0.8 -2.4 -1.15" fill="#1d1616" fill-rule="evenodd" stroke="none"/>
    <path d="M9.0 -10.55 L11.4 -9.05 8.05 -8.9 Q7.5 -9.65 9.0 -10.55" fill="#6b4747" fill-rule="evenodd" stroke="none"/>
    <path d="M10.25 -2.2 Q11.95 -1.85 11.2 1.5 6.4 0.95 3.1 -0.8 L0.8 -3.8 -1.65 -3.0 -2.9 -4.1 Q-4.85 -6.0 -3.75 -8.45 L-2.85 -9.65 -0.95 -9.65 Q2.2 -12.85 3.35 -15.4 L4.2 -15.15 Q5.1 -14.9 6.25 -14.0 L3.3 -10.6 Q1.95 -9.25 2.25 -8.45 L4.4 -8.4 Q3.0 -7.8 2.85 -5.85 L4.2 -3.45 6.95 -2.7 Q7.9 -1.95 9.35 -2.2 L10.25 -2.2" fill="url(#gradient0)" fill-rule="evenodd" stroke="none"/>
    <path d="M6.25 -14.0 L7.15 -13.05 8.05 -11.3 9.0 -10.55 Q7.5 -9.65 8.05 -8.9 L11.4 -9.05 Q12.2 -7.95 11.9 -7.45 11.5 -6.9 11.05 -7.15 L9.55 -7.1 8.8 -6.95 Q6.95 -6.6 5.1 -5.35 5.8 -3.4 6.95 -2.7 L4.2 -3.45 2.85 -5.85 Q3.0 -7.8 4.4 -8.4 L2.25 -8.45 Q1.95 -9.25 3.3 -10.6 L6.25 -14.0 M-1.7 -14.85 L-1.1 -16.05 0.85 -16.05 3.35 -15.4 Q2.2 -12.85 -0.95 -9.65 L-2.85 -9.65 Q-2.1 -10.9 -3.75 -11.5 -3.9 -13.35 -1.7 -14.85" fill="#1d1616" fill-rule="evenodd" stroke="none"/>
    <path d="M3.1 -0.8 L3.75 0.7 Q1.05 3.5 -2.4 0.65 L-2.4 -1.15 -0.15 -0.8 3.1 -0.8" fill="#333333" fill-rule="evenodd" stroke="none"/>
    <path d="M9.55 -7.1 Q11.0 -5.45 10.25 -2.2 L9.35 -2.2 Q7.9 -1.95 6.95 -2.7 5.8 -3.4 5.1 -5.35 6.95 -6.6 8.8 -6.95 L9.55 -7.1" fill="url(#gradient1)" fill-rule="evenodd" stroke="none"/>
    <path d="M-2.4 -1.15 L-0.15 -0.8 3.1 -0.8 3.75 0.7 Q1.05 3.5 -2.4 0.65 L-2.4 -1.15 Q-3.9 -2.35 -4.05 -3.15 L-8.6 -3.9 Q-8.15 -6.15 -10.4 -7.9 -12.1 -8.65 -10.55 -10.05 -7.6 -10.8 -7.45 -11.5 L-6.7 -12.8 Q-6.25 -13.4 -4.6 -14.0 L-1.7 -14.85" fill="none" stroke="#0a0707" stroke-linecap="round" stroke-linejoin="round" stroke-width="1.0"/>
    <path d="M3.1 -0.8 L0.8 -3.8 -1.65 -3.0 -2.9 -4.1 Q-4.85 -6.0 -3.75 -8.45 L-2.85 -9.65 Q-2.1 -10.9 -3.75 -11.5 -3.9 -13.35 -1.7 -14.85" fill="none" stroke="#140e0e" stroke-linecap="round" stroke-linejoin="round" stroke-width="1.0"/>
    <path d="M9.55 -7.1 Q11.0 -5.45 10.25 -2.2" fill="none" stroke="#aa0000" stroke-linecap="round" stroke-linejoin="round" stroke-opacity="0.9019608" stroke-width="1.0"/>
    <path d="M6.25 -14.0 L7.15 -13.05 8.05 -11.3 9.0 -10.55 M11.4 -9.05 Q12.2 -7.95 11.9 -7.45 11.5 -6.9 11.05 -7.15 L9.55 -7.1 8.8 -6.95 Q6.95 -6.6 5.1 -5.35 5.8 -3.4 6.95 -2.7 M-1.7 -14.85 L-1.1 -16.05 0.85 -16.05 3.35 -15.4" fill="none" stroke="#0a0707" stroke-linecap="round" stroke-linejoin="round" stroke-width="1.0"/>
    <path d="M-2.85 -9.65 L-0.95 -9.65 Q2.2 -12.85 3.35 -15.4 L4.2 -15.15 Q5.1 -14.9 6.25 -14.0 L3.3 -10.6 Q1.95 -9.25 2.25 -8.45 L4.4 -8.4 Q3.0 -7.8 2.85 -5.85 L4.2 -3.45 6.95 -2.7 Q7.9 -1.95 9.35 -2.2 L10.25 -2.2 Q11.95 -1.85 11.2 1.5 6.4 0.95 3.1 -0.8 M9.0 -10.55 L11.4 -9.05 8.05 -8.9 Q7.5 -9.65 9.0 -10.55 Z" fill="none" stroke="#140e0e" stroke-linecap="round" stroke-linejoin="round" stroke-width="1.0"/>
    <path d="M8.0 0.3 Q5.05 2.4 0.35 2.3 -4.35 2.3 -6.3 -2.1 -5.85 -3.95 -4.1 -3.1 -2.7 0.05 0.55 0.25 3.65 0.55 6.2 -1.3 8.0 -1.0 8.0 0.3" fill="#6b4747" fill-rule="evenodd" stroke="none"/>
    <path d="M8.0 0.3 Q5.05 2.4 0.35 2.3 -4.35 2.3 -6.3 -2.1 -5.85 -3.95 -4.1 -3.1 -2.7 0.05 0.55 0.25 3.65 0.55 6.2 -1.3 8.0 -1.0 8.0 0.3 Z" fill="none" stroke="#070a0a" stroke-linecap="round" stroke-linejoin="round" stroke-width="1.0"/>
    <path d="M9.35 -6.5 L20.35 -9.75 21.25 -7.75 Q22.1 -5.55 22.1 -4.5 22.1 -2.1 20.25 2.5 L9.8 -2.7 Q10.25 -4.85 9.35 -6.5" fill="url(#gradient2)" fill-rule="evenodd" stroke="none"/>
  </g>
  <defs>
    <linearGradient gradientTransform="matrix(0.0095, 0.0, 0.0, 0.0095, 3.65, -6.95)" gradientUnits="userSpaceOnUse" id="gradient0" spreadMethod="pad" x1="-819.2" x2="819.2">
      <stop offset="0.0" stop-color="#3d2727"/>
      <stop offset="1.0" stop-color="#6f4747"/>
    </linearGradient>
    <linearGradient gradientTransform="matrix(0.0033, 0.0, 0.0, 0.0031, -221.4, -323.2)" gradientUnits="userSpaceOnUse" id="gradient1" spreadMethod="pad" x1="-819.2" x2="819.2">
      <stop offset="0.0" stop-color="#aa0000" stop-opacity="0.9098039"/>
      <stop offset="1.0" stop-color="#ff0000"/>
    </linearGradient>
    <linearGradient gradientTransform="matrix(0.0076, 2.0E-4, -2.0E-4, 0.0076, 15.6, -3.5)" gradientUnits="userSpaceOnUse" id="gradient2" spreadMethod="pad" x1="-819.2" x2="819.2">
      <stop offset="0.0" stop-color="#f60000" stop-opacity="0.19607843"/>
      <stop offset="1.0" stop-color="#f60000" stop-opacity="0.02745098"/>
    </linearGradient>
  </defs>
</svg>
