<?xml version="1.0" encoding="UTF-8" standalone="no"?>
<svg xmlns:ffdec="https://www.free-decompiler.com/flash" xmlns:xlink="http://www.w3.org/1999/xlink" ffdec:objectType="shape" height="20.8px" width="21.75px" xmlns="http://www.w3.org/2000/svg">
  <g transform="matrix(1.0, 0.0, 0.0, 1.0, 8.5, 18.3)">
    <path d="M9.1 -15.5 L10.45 -14.8 12.1 -12.7 12.7 -10.55 Q12.85 -4.25 12.5 -2.75 12.15 -1.25 9.7 -1.1 L8.15 -2.3 8.15 -4.6 5.95 -6.5 5.15 -11.85 6.65 -12.25 6.8 -12.25 7.05 -12.35 7.25 -12.4 7.05 -12.4 7.35 -12.6 7.35 -12.65 7.95 -14.45 Q8.4 -15.5 9.1 -15.5 M7.25 -12.4 L7.35 -12.6 7.25 -12.4" fill="url(#gradient0)" fill-rule="evenodd" stroke="none"/>
    <path d="M0.55 -17.75 L1.9 -17.75 2.7 -17.75 4.2 -17.3 6.85 -16.6 7.35 -16.4 8.35 -15.75 7.95 -14.45 7.35 -12.65 7.35 -12.6 7.05 -12.4 6.8 -12.25 6.65 -12.25 5.15 -11.85 5.15 -11.9 4.0 -11.55 3.15 -11.35 2.5 -12.85 -0.55 -14.85 -6.1 -14.85 -2.3 -17.45 -2.3 -17.5 -2.25 -17.45 0.55 -17.75 M-2.25 -17.45 L-2.3 -17.45 -2.25 -17.45 M1.9 -17.75 L-0.55 -14.85 1.9 -17.75" fill="url(#gradient1)" fill-rule="evenodd" stroke="none"/>
    <path d="M7.05 -12.35 L6.8 -12.25 7.05 -12.4 7.05 -12.35" fill="#ffffff" fill-rule="evenodd" stroke="none"/>
    <path d="M-7.65 -7.5 L-7.75 -7.7 -7.75 -7.75 -7.65 -7.5 M5.15 -11.85 L5.95 -6.5 Q4.35 -6.1 3.5 -5.55 L1.5 -4.8 3.5 -5.55 0.9 -8.45 0.9 -8.5 2.1 -9.95 3.0 -11.1 4.9 -11.8 5.15 -11.9 5.15 -11.85 4.9 -11.8 5.15 -11.85 M0.9 -8.5 L0.9 -7.85 0.9 -8.45 3.5 -5.55 3.3 -5.4 Q2.45 -4.8 1.5 -4.8 L-1.7 -4.8 Q-1.5 -7.75 -1.65 -8.6 L-1.7 -8.75 0.9 -8.5 M-7.3 -10.7 L-7.1 -10.65 -6.3 -10.45 Q-5.15 -10.2 -2.9 -8.85 L-7.3 -10.7" fill="#333333" fill-rule="evenodd" stroke="none"/>
    <path d="M-6.65 -13.85 L-6.1 -14.85 -3.55 -17.15 Q-0.9 -18.25 0.55 -17.75 L-2.25 -17.45 -2.3 -17.5 -2.3 -17.45 -3.55 -17.15 -2.3 -17.45 -6.1 -14.85 -0.55 -14.85 2.5 -12.85 Q2.8 -11.9 2.5 -10.8 L2.1 -9.95 0.9 -8.5 -1.7 -8.75 -2.9 -8.85 Q-5.15 -10.2 -6.3 -10.45 L-7.1 -10.65 -7.3 -11.0 -6.65 -13.85" fill="url(#gradient2)" fill-rule="evenodd" stroke="none"/>
    <path d="M9.7 -1.1 L8.9 -1.1 6.5 -0.15 0.3 -3.2 1.5 -3.2 1.5 -4.8 Q2.45 -4.8 3.3 -5.4 L3.5 -5.55 Q4.35 -6.1 5.95 -6.5 L8.15 -4.6 8.15 -2.3 9.7 -1.1 M8.9 -1.1 L7.75 -2.15 7.75 -4.85 7.0 -4.85 7.0 -1.95 7.9 -0.9 8.9 -1.1" fill="url(#gradient3)" fill-rule="evenodd" stroke="none"/>
    <path d="M-2.1 -1.3 L-6.7 -3.75 -6.7 -5.55 -2.65 -3.3 -1.7 -4.05 -1.7 -4.8 1.5 -4.8 1.5 -3.2 0.3 -3.2 0.1 -3.3 0.05 -3.2 -0.45 -3.2 -1.1 -2.45 -2.1 -1.3" fill="url(#gradient4)" fill-rule="evenodd" stroke="none"/>
    <path d="M0.3 -3.2 L6.5 -0.15 5.75 0.15 4.65 -0.15 -1.1 -2.45 0.05 -3.2 0.1 -3.3 0.3 -3.2 M8.9 -1.1 L7.9 -0.9 7.0 -1.95 7.0 -4.85 7.75 -4.85 7.75 -2.15 8.9 -1.1" fill="#615e57" fill-rule="evenodd" stroke="none"/>
    <path d="M4.4 0.0 Q4.75 1.35 3.85 2.0 L-2.1 0.75 Q-2.8 -0.25 -2.1 -1.3 L-1.1 -2.45 4.4 0.0" fill="url(#gradient5)" fill-rule="evenodd" stroke="none"/>
    <path d="M5.75 0.15 L5.25 0.35 4.4 0.0 -1.1 -2.45 -0.45 -3.2 0.05 -3.2 -1.1 -2.45 4.65 -0.15 5.75 0.15" fill="#746e69" fill-rule="evenodd" stroke="none"/>
    <path d="M6.5 -0.15 Q7.4 0.6 5.75 0.15 L6.5 -0.15" fill="#593340" fill-rule="evenodd" stroke="none"/>
    <path d="M-6.7 -5.55 L-7.65 -7.5 -7.75 -7.75 Q-8.2 -9.4 -7.75 -10.9 L-7.4 -10.75 -7.3 -10.7 -2.9 -8.85 -1.7 -8.75 -1.65 -8.6 Q-1.5 -7.75 -1.7 -4.8 L-1.7 -4.05 -2.65 -3.3 -6.7 -5.55" fill="#4d4946" fill-rule="evenodd" stroke="none"/>
    <path d="M9.1 -15.5 L10.45 -14.8 12.1 -12.7 12.7 -10.55 12.7 -10.8 12.75 -10.45 12.7 -10.55 Q12.85 -4.25 12.5 -2.75 12.15 -1.25 9.7 -1.1 L8.9 -1.1 6.5 -0.15 5.75 0.15 5.25 0.35 4.4 0.0 Q4.75 1.35 3.85 2.0 L-2.1 0.75 Q-2.8 -0.25 -2.1 -1.3 L-6.7 -3.75 -6.7 -5.55 -7.65 -7.5 -7.75 -7.75 Q-8.2 -9.4 -7.75 -10.9 L-7.45 -11.75 -7.25 -12.35 -6.65 -13.85 -6.1 -14.85 -3.55 -17.15 -2.3 -17.45 -2.3 -17.5 -2.25 -17.45 0.55 -17.75 1.9 -17.75 2.7 -17.75 4.2 -17.3 6.85 -16.6 7.35 -16.4 9.1 -15.5 M7.95 -14.45 L7.35 -12.65 7.35 -12.6 7.25 -12.4 7.05 -12.35 6.8 -12.25 6.65 -12.25 5.15 -11.85 5.95 -6.5 8.15 -4.6 8.15 -2.3 9.7 -1.1 M7.25 -12.4 L7.05 -12.4 7.05 -12.35 M7.35 -16.4 L8.35 -15.75 7.95 -14.45 M5.15 -11.85 L5.15 -11.9 4.0 -11.55 3.15 -11.35 2.5 -12.85 -0.55 -14.85 -6.1 -14.85 -2.3 -17.45 -2.25 -17.45 M4.9 -11.8 L5.15 -11.85 M4.9 -11.8 L4.0 -11.55 M2.1 -9.95 L3.0 -11.1 M0.9 -8.5 L-1.7 -8.75 -1.65 -8.6 Q-1.5 -7.75 -1.7 -4.8 L1.5 -4.8 3.5 -5.55 0.9 -8.45 0.9 -8.5 2.1 -9.95 M1.5 -4.8 L1.5 -3.2 0.3 -3.2 M-1.1 -2.45 L4.4 0.0 M5.95 -6.5 Q4.35 -6.1 3.5 -5.55 M-2.9 -8.85 L-1.7 -8.75 M-7.75 -10.9 L-7.4 -10.75 -7.3 -10.7 -7.1 -10.65 M-2.9 -8.85 L-7.3 -10.7 M-2.1 -1.3 L-1.1 -2.45 -0.45 -3.2 0.05 -3.2 M-6.7 -5.55 L-2.65 -3.3 -1.7 -4.05 -1.7 -4.8 M-0.55 -14.85 L1.9 -17.75" fill="none" stroke="#2b2927" stroke-linecap="round" stroke-linejoin="round" stroke-width="1.0"/>
  </g>
  <defs>
    <linearGradient gradientTransform="matrix(0.0069, 0.0, 0.0, 0.0068, 6.5, -6.7)" gradientUnits="userSpaceOnUse" id="gradient0" spreadMethod="pad" x1="-819.2" x2="819.2">
      <stop offset="0.0" stop-color="#666666"/>
      <stop offset="1.0" stop-color="#333333"/>
    </linearGradient>
    <radialGradient cx="0" cy="0" gradientTransform="matrix(0.0049, 0.0, 0.0, 0.0049, 5.2, -14.55)" gradientUnits="userSpaceOnUse" id="gradient1" r="819.2" spreadMethod="pad">
      <stop offset="0.0" stop-color="#4d4946"/>
      <stop offset="1.0" stop-color="#3c3b38"/>
      <stop offset="1.0" stop-color="#333333"/>
    </radialGradient>
    <radialGradient cx="0" cy="0" gradientTransform="matrix(0.006, 0.0, 0.0, 0.006, 1.45, -15.05)" gradientUnits="userSpaceOnUse" id="gradient2" r="819.2" spreadMethod="pad">
      <stop offset="0.0" stop-color="#523b40"/>
      <stop offset="1.0" stop-color="#452d33"/>
      <stop offset="1.0" stop-color="#333333"/>
      <stop offset="1.0" stop-color="#523b40"/>
      <stop offset="1.0" stop-color="#523b40"/>
      <stop offset="1.0" stop-color="#523b40"/>
    </radialGradient>
    <radialGradient cx="0" cy="0" gradientTransform="matrix(0.0037, 0.0, 0.0, 0.0037, 5.0, -3.3)" gradientUnits="userSpaceOnUse" id="gradient3" r="819.2" spreadMethod="pad">
      <stop offset="0.0" stop-color="#523b40"/>
      <stop offset="1.0" stop-color="#452d33"/>
      <stop offset="1.0" stop-color="#333333"/>
      <stop offset="1.0" stop-color="#523b40"/>
      <stop offset="1.0" stop-color="#523b40"/>
      <stop offset="1.0" stop-color="#523b40"/>
    </radialGradient>
    <radialGradient cx="0" cy="0" gradientTransform="matrix(0.0057, 0.0, 0.0, 0.0057, -2.6, -3.4)" gradientUnits="userSpaceOnUse" id="gradient4" r="819.2" spreadMethod="pad">
      <stop offset="0.0" stop-color="#4d4946"/>
      <stop offset="1.0" stop-color="#3c3b38"/>
      <stop offset="1.0" stop-color="#333333"/>
    </radialGradient>
    <radialGradient cx="0" cy="0" gradientTransform="matrix(0.0047, 0.0, 0.0, 0.0047, 1.0, -0.2)" gradientUnits="userSpaceOnUse" id="gradient5" r="819.2" spreadMethod="pad">
      <stop offset="0.0" stop-color="#4d4946"/>
      <stop offset="1.0" stop-color="#3c3b38"/>
      <stop offset="1.0" stop-color="#333333"/>
    </radialGradient>
  </defs>
</svg>
