<?xml version="1.0" encoding="UTF-8" standalone="no"?>
<svg xmlns:ffdec="https://www.free-decompiler.com/flash" xmlns:xlink="http://www.w3.org/1999/xlink" ffdec:objectType="shape" height="22.25px" width="23.25px" xmlns="http://www.w3.org/2000/svg">
  <g transform="matrix(1.0, 0.0, 0.0, 1.0, 11.55, 20.2)">
    <path d="M-3.8 -18.55 L-3.6 -19.15 Q-0.65 -20.2 2.25 -19.15 L3.25 -18.6 Q-0.45 -20.45 -3.8 -18.55 M2.7 -1.95 L2.85 -1.35 -2.55 -3.0 2.7 -1.95" fill="#8a8580" fill-rule="evenodd" stroke="none"/>
    <path d="M3.85 -18.3 L4.2 -18.1 4.5 -17.95 6.5 -17.95 8.3 -17.0 8.3 -16.1 8.3 -15.0 1.75 -15.15 1.15 -15.9 -0.15 -15.9 Q-1.1 -15.0 -1.2 -14.15 L-5.1 -14.15 -6.9 -13.1 -9.45 -15.4 Q-8.95 -17.25 -6.3 -18.5 L-5.3 -17.5 -4.0 -17.95 -3.8 -18.55 -3.8 -17.65 Q-3.05 -19.1 4.8 -17.65 L3.85 -18.3" fill="url(#gradient0)" fill-rule="evenodd" stroke="none"/>
    <path d="M8.3 -16.1 L8.85 -15.6 9.9 -14.1 10.2 -13.4 9.85 -13.4 Q10.3 -12.9 10.8 -11.2 L10.85 -9.75 10.85 -9.55 Q10.75 -8.45 9.75 -6.1 L9.75 -5.6 8.65 -5.4 8.2 -4.65 6.8 -4.65 Q5.85 -3.75 4.4 -4.1 L3.6 -5.15 1.8 -5.15 Q0.65 -7.35 -1.35 -8.15 L-0.6 -8.95 -0.4 -10.1 -0.6 -12.05 Q-1.2 -12.0 -1.2 -12.85 L-1.2 -14.15 Q-1.1 -15.0 -0.15 -15.9 L1.15 -15.9 1.75 -15.15 8.3 -15.0 8.3 -16.1 M4.95 -6.95 L2.15 -10.1 -0.4 -10.1 2.15 -10.1 4.95 -6.95 M10.35 -9.85 Q8.2 -10.85 6.2 -12.1 8.2 -10.85 10.35 -9.85 M1.75 -12.05 L-0.6 -12.05 1.75 -12.05" fill="url(#gradient1)" fill-rule="evenodd" stroke="none"/>
    <path d="M3.75 -18.35 L3.85 -18.3 4.8 -17.65 Q-3.05 -19.1 -3.8 -17.65 L-3.8 -18.55 Q-0.45 -20.45 3.25 -18.6 L3.75 -18.35 M-3.05 -3.0 L-3.05 -3.15 -3.05 -4.6 2.45 -2.85 2.65 -2.05 2.7 -1.95 -2.55 -3.0 -3.05 -3.0" fill="#615e57" fill-rule="evenodd" stroke="none"/>
    <path d="M3.25 -18.6 L3.4 -18.55 3.75 -18.55 3.75 -18.35 3.25 -18.6" fill="#00ff99" fill-rule="evenodd" stroke="none"/>
    <path d="M8.05 -0.3 L6.1 1.05 3.4 0.05 2.85 -1.35 2.7 -1.95 2.65 -2.05 2.45 -2.85 1.8 -5.15 3.6 -5.15 4.4 -4.1 Q5.85 -3.75 6.8 -4.65 L8.2 -4.65 8.0 -4.45 9.0 -3.5 9.0 -1.6 8.05 -0.3" fill="url(#gradient2)" fill-rule="evenodd" stroke="none"/>
    <path d="M2.45 -2.85 L-3.05 -4.6 -3.05 -5.5 -1.15 -5.85 -1.2 -6.55 -1.35 -8.15 Q0.65 -7.35 1.8 -5.15 L2.45 -2.85" fill="url(#gradient3)" fill-rule="evenodd" stroke="none"/>
    <path d="M9.75 -5.6 Q11.25 -5.4 11.2 -3.35 11.1 -1.3 10.3 -0.3 L8.05 -0.3 9.0 -1.6 9.0 -3.5 8.0 -4.45 8.2 -4.65 8.65 -5.4 9.75 -5.6" fill="url(#gradient4)" fill-rule="evenodd" stroke="none"/>
    <path d="M-11.05 -11.2 L-10.0 -11.65 -9.25 -13.2 -9.45 -13.4 -9.45 -15.4 -6.9 -13.1 -5.1 -14.15 -5.35 -11.25 -11.05 -11.2" fill="url(#gradient5)" fill-rule="evenodd" stroke="none"/>
    <path d="M-5.1 -14.15 L-1.2 -14.15 -1.2 -12.85 Q-1.2 -12.0 -0.6 -12.05 L-0.4 -10.1 -0.6 -8.95 -1.35 -8.15 -2.45 -7.0 -3.85 -7.0 Q-4.85 -6.95 -5.4 -8.2 L-5.45 -8.75 -5.5 -9.25 -5.55 -9.4 -5.35 -11.25 -5.1 -14.15" fill="url(#gradient6)" fill-rule="evenodd" stroke="none"/>
    <path d="M-11.05 -8.65 L-11.05 -11.2 -5.35 -11.25 -5.55 -9.4 -5.95 -9.85 -5.5 -9.25 -5.45 -8.75 -11.05 -8.65" fill="url(#gradient7)" fill-rule="evenodd" stroke="none"/>
    <path d="M-10.65 -6.75 L-11.05 -7.9 -11.05 -8.65 -5.45 -8.75 -5.4 -8.2 -4.85 -6.3 -8.25 -6.3 -8.8 -6.95 -10.65 -6.75" fill="url(#gradient8)" fill-rule="evenodd" stroke="none"/>
    <path d="M-7.2 -2.8 L-7.9 -3.05 Q-9.55 -4.05 -10.25 -5.6 L-10.65 -6.75 -8.8 -6.95 -8.25 -6.3 -7.2 -4.95 -7.2 -2.8" fill="url(#gradient9)" fill-rule="evenodd" stroke="none"/>
    <path d="M-3.05 -3.15 L-4.9 -2.1 -5.75 -3.75 -4.85 -6.05 -4.85 -6.3 -5.4 -8.2 Q-4.85 -6.95 -3.85 -7.0 L-2.45 -7.0 -1.35 -8.15 -1.2 -6.55 -1.15 -5.85 -3.05 -5.5 -3.05 -4.6 -3.05 -3.15" fill="url(#gradient10)" fill-rule="evenodd" stroke="none"/>
    <path d="M-4.9 -2.1 L-7.2 -2.8 -7.2 -4.95 -8.25 -6.3 -4.85 -6.3 -4.85 -6.05 -5.75 -3.75 -4.9 -2.1" fill="url(#gradient11)" fill-rule="evenodd" stroke="none"/>
    <path d="M3.4 0.05 L3.4 1.55 -3.25 0.35 -3.75 -0.9 -3.05 -3.0 -2.55 -3.0 2.85 -1.35 3.4 0.05" fill="#333333" fill-rule="evenodd" stroke="none"/>
    <path d="M-3.8 -18.55 L-3.6 -19.15 Q-0.65 -20.2 2.25 -19.15 L3.25 -18.6 3.4 -18.55 M3.75 -18.35 L3.85 -18.3 M4.2 -18.1 L4.5 -17.95 6.5 -17.95 8.3 -17.0 8.3 -16.1 8.85 -15.6 M9.75 -6.1 L9.75 -5.6 Q11.25 -5.4 11.2 -3.35 11.1 -1.3 10.3 -0.3 L8.05 -0.3 6.1 1.05 3.4 0.05 3.4 1.55 -3.25 0.35 -3.75 -0.9 -3.05 -3.0 M-3.05 -3.15 L-4.9 -2.1 -7.2 -2.8 -7.9 -3.05 Q-9.55 -4.05 -10.25 -5.6 L-10.65 -6.75 -11.05 -7.9 -11.05 -8.65 -11.05 -11.2 -10.0 -11.65 -10.0 -12.85 -9.45 -13.4 -9.45 -15.4 Q-8.95 -17.25 -6.3 -18.5 L-5.3 -17.5 -4.0 -17.95 -3.8 -18.55 M-1.2 -14.15 Q-1.1 -15.0 -0.15 -15.9 L1.15 -15.9 1.75 -15.15 8.3 -15.0 8.3 -16.1 M2.85 -1.35 L2.7 -1.95 2.65 -2.05 2.45 -2.85 1.8 -5.15 Q0.65 -7.35 -1.35 -8.15 L-1.2 -6.55 -1.15 -5.85 -3.05 -5.5 -3.05 -4.6 M-2.55 -3.0 L2.85 -1.35 3.4 0.05 M1.8 -5.15 L3.6 -5.15 4.4 -4.1 Q5.85 -3.75 6.8 -4.65 L8.2 -4.65 8.65 -5.4 9.75 -5.6 M8.05 -0.3 L9.0 -1.6 9.0 -3.5 8.0 -4.45 8.2 -4.65 M-9.45 -15.4 L-6.9 -13.1 -5.1 -14.15 -1.2 -14.15 -1.2 -12.85 Q-1.2 -12.0 -0.6 -12.05 L-0.4 -10.1 -0.6 -8.95 -1.35 -8.15 -2.45 -7.0 -3.85 -7.0 Q-4.85 -6.95 -5.4 -8.2 L-4.85 -6.3 -4.85 -6.05 -5.75 -3.75 -4.9 -2.1 M-5.45 -8.75 L-5.5 -9.25 -5.55 -9.4 -5.35 -11.25 -11.05 -11.2 M-5.4 -8.2 L-5.45 -8.75 -11.05 -8.65 M-10.65 -6.75 L-8.8 -6.95 -8.25 -6.3 -4.85 -6.3 M-8.25 -6.3 L-7.2 -4.95 -7.2 -2.8 M-5.35 -11.25 L-5.1 -14.15" fill="none" stroke="#2b2927" stroke-linecap="round" stroke-linejoin="round" stroke-width="1.0"/>
    <path d="M3.85 -18.3 L4.2 -18.1 M3.25 -18.6 L3.75 -18.35 M-3.05 -4.6 L-3.05 -3.15" fill="none" stroke="#2e2c2c" stroke-linecap="round" stroke-linejoin="round" stroke-width="1.0"/>
    <path d="M8.85 -15.6 L9.9 -14.1 10.2 -13.4 10.65 -11.9 10.8 -11.2 10.85 -9.75 10.85 -9.55 Q10.75 -8.45 9.75 -6.1" fill="none" stroke="#333333" stroke-linecap="round" stroke-linejoin="round" stroke-width="1.0"/>
    <path d="M-0.4 -10.1 L2.15 -10.1 4.95 -6.95 M-0.6 -12.05 L1.75 -12.05" fill="none" stroke="#3b3b3b" stroke-linecap="round" stroke-linejoin="round" stroke-width="1.0"/>
    <path d="M6.2 -12.1 Q8.2 -10.85 10.35 -9.85" fill="none" stroke="url(#gradient12)" stroke-linecap="round" stroke-linejoin="round" stroke-width="1.0"/>
    <path d="M-0.95 -12.25 Q-0.1 -10.55 -0.85 -8.9" fill="none" stroke="#2b2927" stroke-linecap="round" stroke-linejoin="round" stroke-width="1.0"/>
  </g>
  <defs>
    <radialGradient cx="0" cy="0" gradientTransform="matrix(0.0137, 0.0, 0.0, 0.0137, -0.05, -12.9)" gradientUnits="userSpaceOnUse" id="gradient0" r="819.2" spreadMethod="pad">
      <stop offset="0.0" stop-color="#4f524e"/>
      <stop offset="1.0" stop-color="#373836"/>
    </radialGradient>
    <linearGradient gradientTransform="matrix(0.0148, 0.0, 0.0, 0.0074, -2.3, -9.7)" gradientUnits="userSpaceOnUse" id="gradient1" spreadMethod="pad" x1="-819.2" x2="819.2">
      <stop offset="0.023529411764705882" stop-color="#1e1e1e"/>
      <stop offset="0.40784313725490196" stop-color="#333333"/>
      <stop offset="1.0" stop-color="#666666"/>
      <stop offset="1.0" stop-color="#313131"/>
    </linearGradient>
    <radialGradient cx="0" cy="0" gradientTransform="matrix(0.007, 0.0, 0.0, 0.007, 3.65, -3.1)" gradientUnits="userSpaceOnUse" id="gradient2" r="819.2" spreadMethod="pad">
      <stop offset="0.0" stop-color="#4d4946"/>
      <stop offset="1.0" stop-color="#3c3b38"/>
      <stop offset="1.0" stop-color="#333333"/>
    </radialGradient>
    <radialGradient cx="0" cy="0" gradientTransform="matrix(0.0046, 0.0, 0.0, 0.0046, -0.3, -5.5)" gradientUnits="userSpaceOnUse" id="gradient3" r="819.2" spreadMethod="pad">
      <stop offset="0.0" stop-color="#4f524e"/>
      <stop offset="1.0" stop-color="#373836"/>
    </radialGradient>
    <radialGradient cx="0" cy="0" gradientTransform="matrix(0.0046, 0.0, 0.0, 0.0046, 9.55, -2.35)" gradientUnits="userSpaceOnUse" id="gradient4" r="819.2" spreadMethod="pad">
      <stop offset="0.0" stop-color="#4f524e"/>
      <stop offset="1.0" stop-color="#373836"/>
    </radialGradient>
    <linearGradient gradientTransform="matrix(0.0036, 0.0, 0.0, 0.0026, -8.1, -13.3)" gradientUnits="userSpaceOnUse" id="gradient5" spreadMethod="pad" x1="-819.2" x2="819.2">
      <stop offset="0.0" stop-color="#666666"/>
      <stop offset="1.0" stop-color="#333333"/>
    </linearGradient>
    <radialGradient cx="0" cy="0" gradientTransform="matrix(0.006, 0.0, 0.0, 0.006, -2.4, -11.05)" gradientUnits="userSpaceOnUse" id="gradient6" r="819.2" spreadMethod="pad">
      <stop offset="0.0" stop-color="#4d4946"/>
      <stop offset="1.0" stop-color="#3c3b38"/>
      <stop offset="1.0" stop-color="#333333"/>
    </radialGradient>
    <linearGradient gradientTransform="matrix(0.0035, 0.0, 0.0, 0.0016, -8.2, -9.95)" gradientUnits="userSpaceOnUse" id="gradient7" spreadMethod="pad" x1="-819.2" x2="819.2">
      <stop offset="0.0" stop-color="#666666"/>
      <stop offset="1.0" stop-color="#333333"/>
    </linearGradient>
    <linearGradient gradientTransform="matrix(0.0038, 0.0, 0.0, 0.0015, -7.95, -7.55)" gradientUnits="userSpaceOnUse" id="gradient8" spreadMethod="pad" x1="-819.2" x2="819.2">
      <stop offset="0.0" stop-color="#666666"/>
      <stop offset="1.0" stop-color="#333333"/>
    </linearGradient>
    <radialGradient cx="0" cy="0" gradientTransform="matrix(0.0034, 0.0, 0.0, 0.0034, -8.4, -5.25)" gradientUnits="userSpaceOnUse" id="gradient9" r="819.2" spreadMethod="pad">
      <stop offset="0.0" stop-color="#4f524e"/>
      <stop offset="1.0" stop-color="#373836"/>
    </radialGradient>
    <radialGradient cx="0" cy="0" gradientTransform="matrix(0.0065, 0.0, 0.0, 0.0065, -4.6, -3.95)" gradientUnits="userSpaceOnUse" id="gradient10" r="819.2" spreadMethod="pad">
      <stop offset="0.0" stop-color="#4d4946"/>
      <stop offset="1.0" stop-color="#3c3b38"/>
      <stop offset="1.0" stop-color="#333333"/>
    </radialGradient>
    <linearGradient gradientTransform="matrix(0.0021, 0.0, 0.0, 0.0026, -6.55, -4.2)" gradientUnits="userSpaceOnUse" id="gradient11" spreadMethod="pad" x1="-819.2" x2="819.2">
      <stop offset="0.0" stop-color="#666666"/>
      <stop offset="1.0" stop-color="#333333"/>
    </linearGradient>
    <linearGradient gradientTransform="matrix(0.0143, 0.0, 0.0, 0.013, 0.15, -9.0)" gradientUnits="userSpaceOnUse" id="gradient12" spreadMethod="pad" x1="-819.2" x2="819.2">
      <stop offset="0.0" stop-color="#666666"/>
      <stop offset="0.0" stop-color="#000000"/>
      <stop offset="0.023529411764705882" stop-color="#666666"/>
      <stop offset="1.0" stop-color="#333333"/>
    </linearGradient>
  </defs>
</svg>
