<?xml version="1.0" encoding="UTF-8" standalone="no"?>
<svg xmlns:ffdec="https://www.free-decompiler.com/flash" xmlns:xlink="http://www.w3.org/1999/xlink" ffdec:objectType="shape" height="20.15px" width="20.45px" xmlns="http://www.w3.org/2000/svg">
  <g transform="matrix(1.0, 0.0, 0.0, 1.0, 2.75, 2.05)">
    <path d="M10.55 1.4 Q12.1 2.3 13.1 4.6 14.1 6.9 13.95 9.6 L13.95 10.45 13.7 12.8 Q13.45 14.65 11.9 15.15 L8.85 15.7 Q5.8 16.1 2.55 14.5 L1.55 13.2 Q-0.1 9.7 0.2 6.95 0.5 4.2 1.55 2.65 2.6 1.05 5.8 0.75 8.95 0.45 10.55 1.4 M12.4 12.7 L11.0 12.7 12.4 12.7 M11.45 8.15 L9.75 8.15 11.45 8.15" fill="#e9ca8d" fill-rule="evenodd" stroke="none"/>
    <path d="M10.55 1.4 Q8.95 0.45 5.8 0.75 2.6 1.05 1.55 2.65 0.5 4.2 0.2 6.95 -0.1 9.7 1.55 13.2 L2.55 14.5 Q5.8 16.1 8.85 15.7 L11.9 15.15 Q13.45 14.65 13.7 12.8 L13.95 10.45 13.95 9.6 Q14.1 6.9 13.1 4.6 12.1 2.3 10.55 1.4 M11.0 12.7 L12.4 12.7" fill="none" stroke="#a3793c" stroke-linecap="round" stroke-linejoin="round" stroke-width="1.0"/>
    <path d="M9.75 8.15 L11.45 8.15" fill="none" stroke="#a3793c" stroke-linecap="round" stroke-linejoin="round" stroke-width="2.0"/>
    <path d="M10.55 1.4 Q12.1 2.3 13.1 4.6 14.1 6.9 13.95 9.6 L13.95 10.45 13.7 12.8 Q13.45 14.65 11.9 15.15 L8.85 15.7 Q5.8 16.1 2.55 14.5 L1.55 13.2 Q-0.1 9.7 0.2 6.95 0.5 4.2 1.55 2.65 2.6 1.05 5.8 0.75 8.95 0.45 10.55 1.4" fill="#696969" fill-rule="evenodd" stroke="none"/>
    <path d="M10.55 1.4 Q8.95 0.45 5.8 0.75 2.6 1.05 1.55 2.65 0.5 4.2 0.2 6.95 -0.1 9.7 1.55 13.2 L2.55 14.5 Q5.8 16.1 8.85 15.7 L11.9 15.15 Q13.45 14.65 13.7 12.8 L13.95 10.45 13.95 9.6 Q14.1 6.9 13.1 4.6 12.1 2.3 10.55 1.4 Z" fill="none" stroke="#3a3a3a" stroke-linecap="round" stroke-linejoin="round" stroke-width="1.0"/>
    <path d="M4.85 12.9 Q5.05 12.25 6.5 11.9 9.55 12.45 11.75 13.5 L12.2 15.05 Q8.75 13.65 4.85 12.9 M12.5 15.55 Q12.85 13.4 13.8 12.2 L15.0 12.2 15.5 13.0 Q15.35 14.6 14.3 15.85 13.7 16.6 12.5 15.55 L12.45 15.6 12.5 15.55" fill="#4f4f4f" fill-rule="evenodd" stroke="none"/>
    <path d="M7.85 3.8 Q10.9 3.35 13.65 4.35 L13.65 6.35 7.5 6.35 Q6.25 8.4 8.2 10.25 9.55 10.95 11.6 10.8 L12.8 9.8 13.9 9.45 15.3 11.3 15.0 12.2 13.8 12.2 Q12.85 13.4 12.5 15.55 L12.2 15.05 11.75 13.5 Q9.55 12.45 6.5 11.9 5.05 12.25 4.85 12.9 L4.7 13.4 4.65 10.65 4.65 8.2 4.65 10.65 -0.35 10.65 Q-1.05 9.75 -0.6 8.2 L4.65 8.2 4.65 6.85 5.5 5.6 1.65 1.45 Q2.25 0.2 3.95 0.0 L7.85 3.8 6.3 4.35 5.5 5.6 6.3 4.35 7.85 3.8" fill="#2a2a2a" fill-rule="evenodd" stroke="none"/>
    <path d="M4.7 13.4 L4.85 12.9 Q8.75 13.65 12.2 15.05 11.9 16.7 10.7 17.6 7.65 17.55 4.95 16.5 4.15 15.75 4.3 14.65 L4.7 13.4" fill="#313131" fill-rule="evenodd" stroke="none"/>
    <path d="M13.9 9.45 L12.8 9.8 11.6 10.8 Q9.55 10.95 8.2 10.25 6.25 8.4 7.5 6.35 L13.65 6.35 14.1 9.4 13.9 9.45" fill="url(#gradient0)" fill-rule="evenodd" stroke="none"/>
    <path d="M13.65 6.35 L13.65 4.35 Q10.9 3.35 7.85 3.8 L6.3 4.35 5.5 5.6 4.65 6.85 4.65 8.2 4.65 10.65 4.7 13.4 4.85 12.9 Q5.05 12.25 6.5 11.9 9.55 12.45 11.75 13.5 L12.2 15.05 12.5 15.55 Q12.85 13.4 13.8 12.2 L15.0 12.2 15.3 11.3 13.9 9.45 14.1 9.4 M5.5 5.6 L1.65 1.45 Q2.25 0.2 3.95 0.0 L7.85 3.8 M12.2 15.05 Q11.9 16.7 10.7 17.6 7.65 17.55 4.95 16.5 4.15 15.75 4.3 14.65 L4.7 13.4 M15.0 12.2 L15.5 13.0 Q15.35 14.6 14.3 15.85 13.7 16.6 12.5 15.55 L12.45 15.6 12.5 15.55 M4.85 12.9 Q8.75 13.65 12.2 15.05 M4.65 10.65 L-0.35 10.65 Q-1.05 9.75 -0.6 8.2 L4.65 8.2" fill="none" stroke="#171717" stroke-linecap="round" stroke-linejoin="round" stroke-width="1.0"/>
    <path d="M13.9 9.45 L12.8 9.8 11.6 10.8 Q9.55 10.95 8.2 10.25 6.25 8.4 7.5 6.35 L13.65 6.35 14.1 9.4" fill="none" stroke="#331212" stroke-linecap="round" stroke-linejoin="round" stroke-width="1.0"/>
    <path d="M8.2 4.65 L10.35 1.3 13.15 1.2 Q13.75 1.95 14.35 3.05 L14.85 4.35 14.85 5.65 10.1 5.65 8.2 4.65 M-0.85 10.85 L-1.9 9.3 Q-2.35 7.6 -2.25 5.95 L-0.7 5.95 Q-0.7 8.5 0.5 10.15 L-0.85 10.85" fill="#252525" fill-rule="evenodd" stroke="none"/>
    <path d="M-0.9 1.8 L4.65 2.75 8.2 4.65 10.1 5.65 3.75 5.65 2.2 11.15 0.3 11.9 -0.85 10.85 0.5 10.15 Q-0.7 8.5 -0.7 5.95 L-2.25 5.95 -2.05 4.05 Q-1.8 3.05 -0.9 1.8" fill="#545454" fill-rule="evenodd" stroke="none"/>
    <path d="M-0.9 1.8 Q-0.4 1.1 1.2 -0.1 2.8 -1.3 5.4 -1.5 L9.35 -1.25 Q10.75 -0.85 11.6 -0.25 L13.15 1.2 10.35 1.3 8.2 4.65 4.65 2.75 -0.9 1.8 M6.2 0.7 L4.15 1.4 6.2 0.7 M9.1 1.6 L7.35 2.3 9.1 1.6" fill="#797979" fill-rule="evenodd" stroke="none"/>
    <path d="M13.15 1.2 L11.6 -0.25 Q10.75 -0.85 9.35 -1.25 L5.4 -1.5 Q2.8 -1.3 1.2 -0.1 -0.4 1.1 -0.9 1.8 L4.65 2.75 8.2 4.65 10.1 5.65 3.75 5.65 2.2 11.15 0.3 11.9 -0.85 10.85 -1.9 9.3 Q-2.35 7.6 -2.25 5.95 L-2.05 4.05 Q-1.8 3.05 -0.9 1.8 M13.15 1.2 Q13.75 1.95 14.35 3.05 L14.85 4.35 14.85 5.65 10.1 5.65" fill="none" stroke="#3c3c3c" stroke-linecap="round" stroke-linejoin="round" stroke-width="1.0"/>
    <path d="M4.15 1.4 L6.2 0.7 M7.35 2.3 L9.1 1.6" fill="none" stroke="#353535" stroke-linecap="round" stroke-linejoin="round" stroke-width="1.0"/>
    <path d="M15.6 1.6 L16.65 1.6 Q17.55 2.8 17.0 5.1 L16.5 5.1 14.45 4.45 14.45 2.5 15.6 1.6 14.45 2.5 14.45 4.45 16.5 5.1 16.3 6.1 15.35 6.25 10.45 5.9 9.75 4.75 10.75 3.4 12.55 2.95 13.8 0.75 14.95 0.75 15.6 1.6 M3.15 5.3 L2.5 5.3 3.15 5.3 M1.7 4.55 L6.15 4.55 7.0 5.05 Q7.35 5.9 6.3 6.7 L3.45 6.7 2.8 8.95 Q1.0 9.8 0.45 8.2 L1.7 4.55" fill="#808080" fill-rule="evenodd" stroke="none"/>
    <path d="M16.5 5.1 L17.0 5.1 Q17.55 2.8 16.65 1.6 L15.6 1.6 14.45 2.5 14.45 4.45 16.5 5.1 16.3 6.1 15.35 6.25 10.45 5.9 9.75 4.75 10.75 3.4 12.55 2.95 13.8 0.75 14.95 0.75 15.6 1.6 M2.5 5.3 L3.15 5.3 M1.7 4.55 L6.15 4.55 7.0 5.05 Q7.35 5.9 6.3 6.7 L3.45 6.7 2.8 8.95 Q1.0 9.8 0.45 8.2 L1.7 4.55 Z" fill="none" stroke="#383838" stroke-linecap="round" stroke-linejoin="round" stroke-width="1.0"/>
  </g>
  <defs>
    <linearGradient gradientTransform="matrix(0.0043, 0.0, 0.0, 0.0027, 10.55, 8.6)" gradientUnits="userSpaceOnUse" id="gradient0" spreadMethod="pad" x1="-819.2" x2="819.2">
      <stop offset="0.0" stop-color="#3a0303"/>
      <stop offset="0.596078431372549" stop-color="#db0000"/>
      <stop offset="0.9058823529411765" stop-color="#850000"/>
    </linearGradient>
  </defs>
</svg>
