<?xml version="1.0" encoding="UTF-8" standalone="no"?>
<svg xmlns:ffdec="https://www.free-decompiler.com/flash" xmlns:xlink="http://www.w3.org/1999/xlink" ffdec:objectType="shape" height="19.65px" width="21.2px" xmlns="http://www.w3.org/2000/svg">
  <g transform="matrix(1.0, 0.0, 0.0, 1.0, 0.75, 0.45)">
    <path d="M14.85 14.4 L14.75 14.5 13.3 16.85 Q13.15 17.15 11.1 17.25 8.05 17.65 4.8 16.05 L3.8 14.75 Q2.15 11.25 2.45 8.5 2.75 5.75 3.8 4.2 4.85 2.6 8.05 2.3 11.2 2.0 12.8 2.95 14.35 3.85 15.35 6.15 16.35 8.45 16.2 11.15 L16.2 12.0 14.85 14.4 13.25 14.25 14.85 14.4" fill="#e9ca8d" fill-rule="evenodd" stroke="none"/>
    <path d="M14.85 14.4 L16.2 12.0 16.2 11.15 Q16.35 8.45 15.35 6.15 14.35 3.85 12.8 2.95 11.2 2.0 8.05 2.3 4.85 2.6 3.8 4.2 2.75 5.75 2.45 8.5 2.15 11.25 3.8 14.75 L4.8 16.05 Q8.05 17.65 11.1 17.25 13.15 17.15 13.3 16.85 L14.75 14.5 14.85 14.4 13.25 14.25" fill="none" stroke="#a3793c" stroke-linecap="round" stroke-linejoin="round" stroke-width="1.0"/>
    <path d="M12.8 2.95 Q14.35 3.85 15.35 6.15 16.35 8.45 16.2 11.15 L16.2 12.0 Q16.3 13.25 15.05 15.0 L13.5 16.95 11.1 17.25 Q8.05 17.65 4.8 16.05 L3.8 14.75 Q2.15 11.25 2.45 8.5 2.75 5.75 3.8 4.2 4.85 2.6 8.05 2.3 11.2 2.0 12.8 2.95" fill="#696969" fill-rule="evenodd" stroke="none"/>
    <path d="M12.8 2.95 Q11.2 2.0 8.05 2.3 4.85 2.6 3.8 4.2 2.75 5.75 2.45 8.5 2.15 11.25 3.8 14.75 L4.8 16.05 Q8.05 17.65 11.1 17.25 L13.5 16.95 15.05 15.0 Q16.3 13.25 16.2 12.0 L16.2 11.15 Q16.35 8.45 15.35 6.15 14.35 3.85 12.8 2.95 Z" fill="none" stroke="#3a3a3a" stroke-linecap="round" stroke-linejoin="round" stroke-width="1.0"/>
    <path d="M10.1 9.5 L12.75 8.75 Q15.1 8.55 16.2 9.6 L16.2 11.15 Q14.65 12.15 12.7 11.35 L10.6 10.35 10.1 9.5" fill="url(#gradient0)" fill-rule="evenodd" stroke="none"/>
    <path d="M10.1 9.5 L12.75 8.75 Q15.1 8.55 16.2 9.6 L16.2 11.15 Q14.65 12.15 12.7 11.35 L10.6 10.35 4.5 9.5 M10.1 9.5 L3.65 8.7 M10.6 10.35 L10.1 9.5" fill="none" stroke="#191919" stroke-linecap="round" stroke-linejoin="round" stroke-width="1.0"/>
    <path d="M9.0 11.3 L10.8 12.55 9.85 15.4 8.35 14.55 9.15 13.4 9.0 11.3" fill="#333333" fill-rule="evenodd" stroke="none"/>
    <path d="M10.1 5.6 L11.8 5.05 17.0 5.55 17.05 5.75 17.05 6.15 17.65 7.6 13.85 7.6 Q11.05 7.35 8.8 9.1 L6.65 11.4 1.45 12.15 -0.25 11.55 0.25 9.65 1.8 10.25 5.8 9.65 8.6 6.65 Q9.1 6.0 10.1 5.6 M10.8 12.55 L11.15 11.45 16.0 12.25 17.45 12.5 Q16.65 15.5 12.4 17.8 L9.35 16.85 9.75 15.75 9.85 15.4 10.8 12.55 M12.45 12.95 L12.05 12.95 12.45 12.95 M16.0 12.25 Q14.4 15.45 12.1 16.3 L9.75 15.75 12.1 16.3 Q14.4 15.45 16.0 12.25" fill="#1c1c1c" fill-rule="evenodd" stroke="none"/>
    <path d="M5.3 0.55 Q9.0 3.15 10.05 5.55 L10.1 5.6 10.05 5.55 10.1 5.6 Q9.1 6.0 8.6 6.65 L5.8 9.65 1.8 10.25 0.25 9.65 Q0.2 7.2 0.8 4.6 1.5 3.25 2.45 2.5 3.35 1.7 5.3 0.55 M8.8 9.1 L9.0 11.3 9.15 13.4 8.35 14.55 Q7.75 15.0 6.8 15.25 4.6 15.55 3.5 14.55 L3.05 14.0 1.45 12.15 6.65 11.4 8.8 9.1" fill="#1e1e1e" fill-rule="evenodd" stroke="none"/>
    <path d="M5.3 0.55 L9.2 0.05 Q12.3 0.2 14.5 1.7 16.3 3.05 16.85 4.7 L17.0 5.55 11.8 5.05 10.1 5.6 10.05 5.55 Q9.0 3.15 5.3 0.55" fill="#383100" fill-rule="evenodd" stroke="none"/>
    <path d="M12.05 12.95 L12.45 12.95" fill="none" stroke="#0b0b0b" stroke-linecap="round" stroke-linejoin="round" stroke-width="1.0"/>
    <path d="M9.75 15.75 L12.1 16.3 Q14.4 15.45 16.0 12.25" fill="none" stroke="#3f3e00" stroke-linecap="round" stroke-linejoin="round" stroke-width="1.0"/>
    <path d="M17.0 5.55 L16.85 4.7 Q16.3 3.05 14.5 1.7 12.3 0.2 9.2 0.05 L5.3 0.55 Q9.0 3.15 10.05 5.55 L10.1 5.6 Q9.1 6.0 8.6 6.65 L5.8 9.65 1.8 10.25 0.25 9.65 Q0.2 7.2 0.8 4.6 1.5 3.25 2.45 2.5 3.35 1.7 5.3 0.55 M10.1 5.6 L11.8 5.05 17.0 5.55 17.05 5.75 17.05 6.15 17.65 7.6 13.85 7.6 Q11.05 7.35 8.8 9.1 L9.0 11.3 10.8 12.55 11.15 11.45 16.0 12.25 17.45 12.5 Q16.65 15.5 12.4 17.8 L9.35 16.85 9.75 15.75 9.85 15.4 8.35 14.55 Q7.75 15.0 6.8 15.25 4.6 15.55 3.5 14.55 L3.05 14.0 1.45 12.15 -0.25 11.55 0.25 9.65 M8.8 9.1 L6.65 11.4 1.45 12.15 M8.35 14.55 L9.15 13.4 9.0 11.3 M9.85 15.4 L10.8 12.55" fill="none" stroke="#090909" stroke-linecap="round" stroke-linejoin="round" stroke-width="1.0"/>
    <path d="M10.95 8.35 L19.35 8.5 19.35 18.7 13.1 18.1 Q12.6 16.85 10.95 14.6 L10.95 8.35" fill="url(#gradient1)" fill-rule="evenodd" stroke="none"/>
    <path d="M10.95 8.35 L10.95 14.6 Q12.6 16.85 13.1 18.1 L19.35 18.7 19.35 8.5 10.95 8.35 Z" fill="none" stroke="#201c00" stroke-linecap="round" stroke-linejoin="round" stroke-opacity="0.7490196" stroke-width="1.0"/>
    <path d="M11.9 6.45 L11.9 8.5 8.45 8.45 6.55 8.5 Q5.75 7.15 6.6 6.4 L8.25 6.4 11.9 6.45 M15.6 8.5 L15.55 6.45 19.2 6.45 Q20.65 7.35 19.35 8.5 L15.6 8.5 M8.45 8.45 Q9.2 7.15 8.25 6.4 9.2 7.15 8.45 8.45" fill="#232323" fill-rule="evenodd" stroke="none"/>
    <path d="M11.9 8.5 L11.9 6.45 15.55 6.45 15.6 8.5 11.9 8.5" fill="#383100" fill-rule="evenodd" stroke="none"/>
    <path d="M11.9 8.5 L15.6 8.5 19.35 8.5 Q20.65 7.35 19.2 6.45 L15.55 6.45 11.9 6.45 8.25 6.4 Q9.2 7.15 8.45 8.45 L11.9 8.5 M8.45 8.45 L6.55 8.5 Q5.75 7.15 6.6 6.4 L8.25 6.4" fill="none" stroke="#0b0b0b" stroke-linecap="round" stroke-linejoin="round" stroke-width="1.0"/>
  </g>
  <defs>
    <linearGradient gradientTransform="matrix(0.0085, 0.0, 0.0, 0.0018, 13.75, 9.15)" gradientUnits="userSpaceOnUse" id="gradient0" spreadMethod="pad" x1="-819.2" x2="819.2">
      <stop offset="0.1607843137254902" stop-color="#151515"/>
      <stop offset="0.5019607843137255" stop-color="#232323"/>
      <stop offset="0.6274509803921569" stop-color="#484848"/>
      <stop offset="0.7294117647058823" stop-color="#252525"/>
      <stop offset="1.0" stop-color="#171717"/>
    </linearGradient>
    <linearGradient gradientTransform="matrix(0.006, -1.0E-4, 1.0E-4, 0.0068, 15.95, 13.3)" gradientUnits="userSpaceOnUse" id="gradient1" spreadMethod="pad" x1="-819.2" x2="819.2">
      <stop offset="0.1607843137254902" stop-color="#6b5200" stop-opacity="0.49803922"/>
      <stop offset="0.5019607843137255" stop-color="#8e6501" stop-opacity="0.49803922"/>
      <stop offset="0.6274509803921569" stop-color="#ffd200" stop-opacity="0.65882355"/>
      <stop offset="0.7294117647058823" stop-color="#b17e00" stop-opacity="0.49803922"/>
      <stop offset="1.0" stop-color="#4d3f00" stop-opacity="0.49803922"/>
    </linearGradient>
  </defs>
</svg>
