<?xml version="1.0" encoding="UTF-8" standalone="no"?>
<svg xmlns:ffdec="https://www.free-decompiler.com/flash" xmlns:xlink="http://www.w3.org/1999/xlink" ffdec:objectType="shape" height="18.55px" width="20.45px" xmlns="http://www.w3.org/2000/svg">
  <g transform="matrix(1.0, 0.0, 0.0, 1.0, 0.5, 0.5)">
    <path d="M14.3 10.5 L12.6 10.5 14.3 10.5 M12.8 2.95 L13.45 3.4 Q14.55 4.35 15.35 6.15 16.35 8.45 16.2 11.15 L16.2 12.0 15.95 14.35 Q15.7 16.2 14.15 16.7 L11.1 17.25 Q8.05 17.65 4.8 16.05 L3.8 14.75 Q2.15 11.25 2.45 8.5 2.75 5.75 3.8 4.2 L4.6 3.4 Q5.75 2.5 8.05 2.3 11.2 2.0 12.8 2.95 M15.3 15.4 L13.9 15.4 15.3 15.4" fill="#e7bc52" fill-rule="evenodd" stroke="none"/>
    <path d="M12.8 2.95 Q11.2 2.0 8.05 2.3 5.75 2.5 4.6 3.4 L3.8 4.2 Q2.75 5.75 2.45 8.5 2.15 11.25 3.8 14.75 L4.8 16.05 Q8.05 17.65 11.1 17.25 L14.15 16.7 Q15.7 16.2 15.95 14.35 L16.2 12.0 16.2 11.15 Q16.35 8.45 15.35 6.15 14.55 4.35 13.45 3.4 L12.8 2.95 M13.9 15.4 L15.3 15.4" fill="none" stroke="#a3793c" stroke-linecap="round" stroke-linejoin="round" stroke-width="1.0"/>
    <path d="M12.6 10.5 L14.3 10.5" fill="none" stroke="#a3793c" stroke-linecap="round" stroke-linejoin="round" stroke-width="1.75"/>
    <path d="M16.2 9.4 Q14.1 8.55 12.65 9.05 11.2 9.5 11.25 10.45 11.3 11.35 12.1 11.75 L14.85 12.0 Q15.8 11.85 16.2 11.15 L15.95 14.3 13.85 14.15 Q12.45 14.65 11.65 17.25 L11.1 17.25 10.55 17.3 Q7.75 17.5 4.8 16.05 L3.8 14.75 Q2.15 11.25 2.45 8.5 2.75 5.75 3.8 4.2 L4.6 3.4 Q5.75 2.5 8.05 2.3 11.2 2.0 12.8 2.95 L13.45 3.4 Q14.55 4.35 15.35 6.15 16.0 7.7 16.2 9.4" fill="#232323" fill-rule="evenodd" stroke="none"/>
    <path d="M16.2 9.4 Q16.0 7.7 15.35 6.15 14.55 4.35 13.45 3.4 L12.8 2.95 Q11.2 2.0 8.05 2.3 5.75 2.5 4.6 3.4 L3.8 4.2 Q2.75 5.75 2.45 8.5 2.15 11.25 3.8 14.75 L4.8 16.05 Q7.75 17.5 10.55 17.3 L11.1 17.25 11.65 17.25 Q12.45 14.65 13.85 14.15 L15.95 14.3 16.2 11.15 Q15.8 11.85 14.85 12.0 L12.1 11.75 Q11.3 11.35 11.25 10.45 11.2 9.5 12.65 9.05 14.1 8.55 16.2 9.4 L16.2 11.15 M11.65 17.25 L14.15 16.7 Q15.7 16.2 15.95 14.35 L15.95 14.3" fill="none" stroke="#090909" stroke-linecap="round" stroke-linejoin="round" stroke-width="1.0"/>
    <path d="M10.15 7.5 L17.35 7.5 Q18.0 13.85 16.35 15.15 12.0 16.4 10.15 12.35 L10.15 7.5" fill="url(#gradient0)" fill-rule="evenodd" stroke="none"/>
    <path d="M10.15 7.5 L17.35 7.5 Q18.0 13.85 16.35 15.15 12.0 16.4 10.15 12.35 L10.15 7.5 Z" fill="none" stroke="#201c00" stroke-linecap="round" stroke-linejoin="round" stroke-opacity="0.7490196" stroke-width="1.0"/>
    <path d="M6.35 11.25 L2.0 11.9 Q1.15 10.95 1.5 9.7 L6.35 8.75 6.35 11.25" fill="#2c2c2c" fill-rule="evenodd" stroke="none"/>
    <path d="M6.35 8.75 L6.35 6.75 18.0 6.75 Q18.9 8.1 18.0 9.05 L9.35 8.8 6.35 8.75 9.35 8.8 9.35 12.55 Q11.2 17.15 16.65 15.7 16.75 16.55 15.95 17.25 10.05 18.85 7.6 12.55 L7.0 12.55 6.35 11.25 6.35 8.75 M7.6 12.55 L9.35 12.55 7.6 12.55" fill="#232323" fill-rule="evenodd" stroke="none"/>
    <path d="M9.35 8.8 L18.0 9.05 Q18.9 8.1 18.0 6.75 L6.35 6.75 6.35 8.75 9.35 8.8 9.35 12.55 Q11.2 17.15 16.65 15.7 16.75 16.55 15.95 17.25 10.05 18.85 7.6 12.55 L7.0 12.55 6.35 11.25 2.0 11.9 Q1.15 10.95 1.5 9.7 L6.35 8.75 6.35 11.25 M9.35 12.55 L7.6 12.55" fill="none" stroke="#0b0b0b" stroke-linecap="round" stroke-linejoin="round" stroke-width="1.0"/>
    <path d="M10.45 6.2 L12.35 7.2 6.0 7.2 4.45 12.7 2.55 13.45 1.4 12.4 2.75 11.7 Q1.55 10.05 1.55 7.5 L0.0 7.5 0.2 5.6 Q0.45 4.6 1.35 3.35 L6.9 4.3 10.45 6.2" fill="#1e1e1e" fill-rule="evenodd" stroke="none"/>
    <path d="M15.4 2.75 L12.6 2.85 10.45 6.2 6.9 4.3 1.35 3.35 Q1.85 2.65 3.45 1.45 5.05 0.25 7.65 0.05 L11.6 0.3 Q13.0 0.7 13.85 1.3 L15.4 2.75 M8.45 2.25 L6.4 2.95 8.45 2.25 M11.35 3.15 L9.6 3.85 11.35 3.15" fill="#434343" fill-rule="evenodd" stroke="none"/>
    <path d="M15.4 2.75 L16.6 4.6 17.1 5.9 17.1 7.2 12.35 7.2 10.45 6.2 12.6 2.85 15.4 2.75 M1.4 12.4 L0.35 10.85 Q-0.1 9.15 0.0 7.5 L1.55 7.5 Q1.55 10.05 2.75 11.7 L1.4 12.4" fill="#383100" fill-rule="evenodd" stroke="none"/>
    <path d="M12.35 7.2 L17.1 7.2 17.1 5.9 16.6 4.6 15.4 2.75 13.85 1.3 Q13.0 0.7 11.6 0.3 L7.65 0.05 Q5.05 0.25 3.45 1.45 1.85 2.65 1.35 3.35 L6.9 4.3 10.45 6.2 12.35 7.2 6.0 7.2 4.45 12.7 2.55 13.45 1.4 12.4 0.35 10.85 Q-0.1 9.15 0.0 7.5 L0.2 5.6 Q0.45 4.6 1.35 3.35" fill="none" stroke="#0b0b0b" stroke-linecap="round" stroke-linejoin="round" stroke-width="1.0"/>
    <path d="M6.4 2.95 L8.45 2.25 M9.6 3.85 L11.35 3.15" fill="none" stroke="#272727" stroke-linecap="round" stroke-linejoin="round" stroke-width="1.0"/>
    <path d="M17.85 3.15 L18.9 3.15 Q19.8 4.35 19.25 6.65 L18.75 6.65 16.7 6.0 16.7 4.05 17.85 3.15 16.7 4.05 16.7 6.0 18.75 6.65 18.55 7.65 17.6 7.8 12.7 7.45 12.0 6.3 13.0 4.95 14.8 4.5 16.05 2.3 17.2 2.3 17.85 3.15 M5.4 6.85 L4.75 6.85 5.4 6.85 M3.95 6.1 L8.4 6.1 9.25 6.6 Q9.6 7.45 8.55 8.25 L5.7 8.25 5.05 10.5 Q3.25 11.35 2.7 9.75 L3.95 6.1" fill="#333333" fill-rule="evenodd" stroke="none"/>
    <path d="M18.75 6.65 L19.25 6.65 Q19.8 4.35 18.9 3.15 L17.85 3.15 16.7 4.05 16.7 6.0 18.75 6.65 18.55 7.65 17.6 7.8 12.7 7.45 12.0 6.3 13.0 4.95 14.8 4.5 16.05 2.3 17.2 2.3 17.85 3.15 M4.75 6.85 L5.4 6.85 M3.95 6.1 L8.4 6.1 9.25 6.6 Q9.6 7.45 8.55 8.25 L5.7 8.25 5.05 10.5 Q3.25 11.35 2.7 9.75 L3.95 6.1 Z" fill="none" stroke="#191919" stroke-linecap="round" stroke-linejoin="round" stroke-width="1.0"/>
  </g>
  <defs>
    <linearGradient gradientTransform="matrix(0.0045, 0.0, 0.0, 0.0049, 13.85, 11.45)" gradientUnits="userSpaceOnUse" id="gradient0" spreadMethod="pad" x1="-819.2" x2="819.2">
      <stop offset="0.1607843137254902" stop-color="#6b5200" stop-opacity="0.49803922"/>
      <stop offset="0.5019607843137255" stop-color="#8e6501" stop-opacity="0.49803922"/>
      <stop offset="0.6274509803921569" stop-color="#ffd200" stop-opacity="0.65882355"/>
      <stop offset="0.7294117647058823" stop-color="#b17e00" stop-opacity="0.49803922"/>
      <stop offset="1.0" stop-color="#4d3f00" stop-opacity="0.49803922"/>
    </linearGradient>
  </defs>
</svg>
