<?xml version="1.0" encoding="UTF-8" standalone="no"?>
<svg xmlns:ffdec="https://www.free-decompiler.com/flash" xmlns:xlink="http://www.w3.org/1999/xlink" ffdec:objectType="shape" height="20.5px" width="19.8px" xmlns="http://www.w3.org/2000/svg">
  <g transform="matrix(1.0, 0.0, 0.0, 1.0, -0.25, 1.45)">
    <path d="M2.75 11.85 Q3.1 13.2 3.8 14.65 L4.8 15.95 Q8.05 17.55 11.1 17.15 L14.15 16.6 Q15.7 16.1 15.95 14.25 L16.2 12.0 15.95 14.35 Q15.7 16.2 14.15 16.7 L11.1 17.25 Q8.05 17.65 4.8 16.05 L3.8 14.75 Q3.1 13.25 2.75 11.85" fill="#e9ca8d" fill-rule="evenodd" stroke="none"/>
    <path d="M2.75 11.85 L2.4 9.35 2.45 8.9 2.45 8.4 Q2.75 5.65 3.8 4.1 L4.6 3.3 Q5.75 2.4 8.05 2.2 11.2 1.9 12.8 2.85 L13.45 3.3 Q14.55 4.25 15.35 6.05 L16.05 8.5 16.2 11.05 16.2 11.15 16.2 11.9 16.2 12.0 15.95 14.25 Q15.7 16.1 14.15 16.6 L11.1 17.15 Q8.05 17.55 4.8 15.95 L3.8 14.65 Q3.1 13.2 2.75 11.85 M14.3 10.4 L12.6 10.4 14.3 10.4 M15.3 15.3 L13.9 15.3 15.3 15.3" fill="#e7bc52" fill-rule="evenodd" stroke="none"/>
    <path d="M16.2 12.0 L16.2 11.9 16.2 11.15 16.2 11.05 16.05 8.5 15.35 6.05 Q14.55 4.25 13.45 3.3 L12.8 2.85 Q11.2 1.9 8.05 2.2 5.75 2.4 4.6 3.3 L3.8 4.1 Q2.75 5.65 2.45 8.4 L2.45 8.9 2.4 9.35 2.75 11.85 Q3.1 13.2 3.8 14.65 L4.8 15.95 Q8.05 17.55 11.1 17.15 L14.15 16.6 Q15.7 16.1 15.95 14.25 L16.2 12.0 15.95 14.35 Q15.7 16.2 14.15 16.7 L11.1 17.25 Q8.05 17.65 4.8 16.05 L3.8 14.75 Q3.1 13.25 2.75 11.85 M13.9 15.3 L15.3 15.3" fill="none" stroke="#a3793c" stroke-linecap="round" stroke-linejoin="round" stroke-width="1.0"/>
    <path d="M12.6 10.4 L14.3 10.4" fill="none" stroke="#a3793c" stroke-linecap="round" stroke-linejoin="round" stroke-width="1.75"/>
    <path d="M3.9 4.0 L3.8 4.1 Q2.75 5.65 2.45 8.4 2.15 11.15 3.8 14.65 L4.8 15.95 Q7.75 17.4 10.55 17.2 L11.1 17.15 11.65 17.15 11.05 17.2 Q8.0 17.6 4.75 16.0 L3.75 14.7 Q2.1 11.2 2.4 8.45 2.7 5.7 3.75 4.15 L3.9 4.0 M12.3 17.1 L14.15 16.6 15.15 16.05 Q14.75 16.45 14.1 16.65 L12.3 17.1" fill="#696969" fill-rule="evenodd" stroke="none"/>
    <path d="M14.3 12.5 Q12.1 12.7 11.45 11.1 L12.1 11.65 14.85 11.9 Q15.75 11.75 16.15 11.15 L16.2 11.05 16.15 11.95 Q14.75 12.7 14.3 12.5" fill="#313131" fill-rule="evenodd" stroke="none"/>
    <path d="M4.8 3.2 Q5.9 2.4 8.05 2.2 11.2 1.9 12.8 2.85 L13.45 3.3 Q14.55 4.25 15.35 6.05 16.0 7.6 16.2 9.3 L16.15 9.3 Q14.05 8.45 12.65 8.95 11.2 9.4 11.25 10.35 L11.45 11.1 Q12.1 12.7 14.3 12.5 13.65 15.2 12.3 17.1 13.65 15.2 14.3 12.5 14.75 12.7 16.15 11.95 L15.95 14.2 15.9 14.3 Q15.75 15.4 15.15 16.05 L14.15 16.6 12.3 17.1 12.25 17.1 11.65 17.15 11.1 17.15 10.55 17.2 Q7.75 17.4 4.8 15.95 L3.8 14.65 Q2.15 11.15 2.45 8.4 2.75 5.65 3.8 4.1 L3.9 4.0 4.0 3.9 4.05 3.8 4.2 3.65 4.4 3.5 4.45 3.5 4.6 3.3 4.75 3.25 4.8 3.2 M4.45 3.5 L4.75 3.25 4.45 3.5" fill="#232323" fill-rule="evenodd" stroke="none"/>
    <path d="M4.8 3.2 L4.75 3.25 4.45 3.5 4.4 3.5 4.2 3.65 4.05 3.8 4.0 3.9 M12.25 17.1 L12.3 17.1 14.1 16.65 Q14.75 16.45 15.15 16.05 15.75 15.4 15.9 14.3 L15.95 14.2 M16.15 11.15 L16.15 11.1 16.15 9.3" fill="none" stroke="#3a3a3a" stroke-linecap="round" stroke-linejoin="round" stroke-width="1.0"/>
    <path d="M14.3 12.5 Q12.1 12.7 11.45 11.1 M16.15 11.95 Q14.75 12.7 14.3 12.5" fill="none" stroke="#460000" stroke-linecap="round" stroke-linejoin="round" stroke-width="1.0"/>
    <path d="M12.3 17.1 Q13.65 15.2 14.3 12.5" fill="none" stroke="#460000" stroke-linecap="round" stroke-linejoin="round" stroke-width="0.8"/>
    <path d="M11.45 11.1 L11.25 10.35 Q11.2 9.4 12.65 8.95 14.05 8.45 16.15 9.3 L16.2 9.3 Q16.0 7.6 15.35 6.05 14.55 4.25 13.45 3.3 L12.8 2.85 Q11.2 1.9 8.05 2.2 5.9 2.4 4.8 3.2 M4.0 3.9 L3.9 4.0 3.8 4.1 Q2.75 5.65 2.45 8.4 2.15 11.15 3.8 14.65 L4.8 15.95 Q7.75 17.4 10.55 17.2 L11.1 17.15 11.65 17.15 12.25 17.1 M11.45 11.1 L12.1 11.65 14.85 11.9 Q15.75 11.75 16.15 11.15 L16.2 11.05 16.2 9.3 M16.15 11.95 L16.2 11.05 M4.75 3.25 L4.6 3.3 4.45 3.5 M15.95 14.2 L16.15 11.95 M15.15 16.05 Q15.8 15.4 15.95 14.25 L15.95 14.2 M12.3 17.1 L14.15 16.6 15.15 16.05" fill="none" stroke="#040404" stroke-linecap="round" stroke-linejoin="round" stroke-width="1.0"/>
    <path d="M3.9 4.0 L3.75 4.15 Q2.7 5.7 2.4 8.45 2.1 11.2 3.75 14.7 L4.75 16.0 Q8.0 17.6 11.05 17.2 L11.65 17.15" fill="none" stroke="#101010" stroke-linecap="round" stroke-linejoin="round" stroke-width="1.1"/>
    <path d="M6.6 10.8 L6.55 6.85 9.6 6.95 9.6 12.1 Q11.45 16.7 16.9 15.25 17.0 16.1 16.2 16.8 10.3 18.4 7.85 12.1 L7.25 12.1 6.6 10.8 M7.85 12.1 L9.6 12.1 7.85 12.1" fill="#232323" fill-rule="evenodd" stroke="none"/>
    <path d="M6.6 10.8 L2.25 11.45 1.75 10.6 Q1.55 10.0 1.75 9.25 L6.55 6.85 6.6 10.8" fill="#2c2c2c" fill-rule="evenodd" stroke="none"/>
    <path d="M17.25 6.3 Q18.05 13.55 16.6 14.7 12.25 15.95 10.4 11.9 L10.4 7.15 Q14.55 5.35 17.25 6.3" fill="url(#gradient0)" fill-rule="evenodd" stroke="none"/>
    <path d="M17.25 6.3 Q18.05 13.55 16.6 14.7 12.25 15.95 10.4 11.9 L10.4 7.15 Q14.55 5.35 17.25 6.3" fill="none" stroke="#2c0000" stroke-linecap="round" stroke-linejoin="round" stroke-opacity="0.7490196" stroke-width="1.0"/>
    <path d="M6.55 6.85 L1.75 9.25 Q1.55 10.0 1.75 10.6 L2.25 11.45 6.6 10.8 6.55 6.85 M9.6 6.95 L9.6 12.1 Q11.45 16.7 16.9 15.25 17.0 16.1 16.2 16.8 10.3 18.4 7.85 12.1 L7.25 12.1 6.6 10.8 M9.6 12.1 L7.85 12.1" fill="none" stroke="#0b0b0b" stroke-linecap="round" stroke-linejoin="round" stroke-width="1.0"/>
    <path d="M10.4 3.7 L13.4 6.05 9.6 6.95 6.55 6.85 Q7.85 4.8 10.4 3.7 M17.8 13.65 Q16.4 13.85 15.35 15.0 L14.35 18.2 13.45 18.05 Q11.55 17.6 10.5 16.6 L12.05 13.05 13.5 13.6 17.35 12.9 17.8 13.65" fill="#1e1e1e" fill-rule="evenodd" stroke="none"/>
    <path d="M10.4 3.7 L10.55 3.65 12.65 3.0 Q14.0 2.65 15.7 3.0 17.4 3.35 18.65 4.4 L19.55 5.6 13.4 6.05 10.4 3.7 M17.8 13.65 L18.25 14.4 Q17.8 16.45 16.95 18.05 L14.35 18.2 15.35 15.0 Q16.4 13.85 17.8 13.65" fill="#2c0101" fill-rule="evenodd" stroke="none"/>
    <path d="M10.5 16.6 L6.25 13.15 9.6 12.1 12.05 13.05 10.5 16.6" fill="#272727" fill-rule="evenodd" stroke="none"/>
    <path d="M13.4 6.05 L19.55 5.6 18.65 4.4 Q17.4 3.35 15.7 3.0 14.0 2.65 12.65 3.0 L10.55 3.65 10.4 3.7 Q7.85 4.8 6.55 6.85 L9.6 6.95 13.4 6.05 M14.35 18.2 L16.95 18.05 Q17.8 16.45 18.25 14.4 L17.8 13.65 17.35 12.9 13.5 13.6 12.05 13.05 10.5 16.6 6.25 13.15 9.6 12.1 12.05 13.05 M14.35 18.2 L13.45 18.05 Q11.55 17.6 10.5 16.6" fill="none" stroke="#0b0b0b" stroke-linecap="round" stroke-linejoin="round" stroke-width="1.0"/>
    <path d="M2.95 5.45 L2.4 5.8 2.8 4.95 2.95 5.45 2.8 4.95 Q3.9 2.7 5.9 1.85 8.25 0.85 11.15 1.55 7.25 2.45 5.9 4.25 L4.95 4.55 3.75 4.95 2.95 5.45 M4.0 8.4 Q4.5 8.05 5.1 8.05 L5.15 8.05 Q6.1 8.05 6.8 8.85 7.5 9.65 7.5 10.75 7.5 11.85 6.8 12.65 6.1 13.45 5.15 13.45 4.2 13.45 3.5 12.65 2.8 11.85 2.8 10.75 2.8 9.65 3.5 8.85 L3.75 8.6 4.0 8.4 3.6 9.55 Q3.3 10.1 3.3 10.85 3.3 11.6 3.6 12.15 3.9 12.7 4.45 12.9 L5.8 12.8 Q6.55 12.5 6.75 11.2 6.95 9.85 6.2 9.2 5.4 8.55 4.65 8.8 L4.0 8.4" fill="#383838" fill-rule="evenodd" stroke="none"/>
    <path d="M4.0 8.4 L4.65 8.8 Q5.4 8.55 6.2 9.2 6.95 9.85 6.75 11.2 6.55 12.5 5.8 12.8 L4.45 12.9 Q3.9 12.7 3.6 12.15 3.3 11.6 3.3 10.85 3.3 10.1 3.6 9.55 L4.0 8.4" fill="#252525" fill-rule="evenodd" stroke="none"/>
    <path d="M4.0 8.4 L4.65 8.8 Q5.4 8.55 6.2 9.2 6.95 9.85 6.75 11.2 6.55 12.5 5.8 12.8 L4.45 12.9 Q3.9 12.7 3.6 12.15 3.3 11.6 3.3 10.85 3.3 10.1 3.6 9.55 L4.0 8.4" fill="none" stroke="#2c0101" stroke-linecap="round" stroke-linejoin="round" stroke-width="0.8"/>
    <path d="M2.8 4.95 L2.4 5.8 2.95 5.45 3.75 4.95 4.95 4.55 5.9 4.25 Q7.25 2.45 11.15 1.55 8.25 0.85 5.9 1.85 3.9 2.7 2.8 4.95 M4.0 8.4 Q4.5 8.05 5.1 8.05 L4.95 4.55 M4.0 8.4 L3.75 8.6 3.5 8.85 Q2.8 9.65 2.8 10.75 2.8 11.85 3.5 12.65 4.2 13.45 5.15 13.45 6.1 13.45 6.8 12.65 7.5 11.85 7.5 10.75 7.5 9.65 6.8 8.85 6.1 8.05 5.15 8.05 L5.1 8.05 M3.75 7.7 L3.75 8.6 M3.75 4.95 L3.75 7.7" fill="none" stroke="#010101" stroke-linecap="round" stroke-linejoin="round" stroke-width="1.0"/>
    <path d="M2.95 5.45 L2.8 4.95 0.65 -1.05 M3.75 7.7 L4.0 8.4 M3.75 7.7 L2.95 5.45" fill="none" stroke="#010101" stroke-linecap="round" stroke-linejoin="round" stroke-opacity="0.6" stroke-width="0.8"/>
    <path d="M14.95 16.65 Q14.95 17.4 14.4 17.95 13.85 18.5 13.1 18.5 12.35 18.5 11.8 17.95 11.25 17.4 11.25 16.65 11.25 15.9 11.8 15.35 12.35 14.8 13.1 14.8 13.85 14.8 14.4 15.35 14.95 15.9 14.95 16.65" fill="#353535" fill-rule="evenodd" stroke="none"/>
    <path d="M14.95 16.65 Q14.95 17.4 14.4 17.95 13.85 18.5 13.1 18.5 12.35 18.5 11.8 17.95 11.25 17.4 11.25 16.65 11.25 15.9 11.8 15.35 12.35 14.8 13.1 14.8 13.85 14.8 14.4 15.35 14.95 15.9 14.95 16.65 Z" fill="none" stroke="#020202" stroke-linecap="round" stroke-linejoin="round" stroke-width="1.1"/>
  </g>
  <defs>
    <radialGradient cx="0" cy="0" gradientTransform="matrix(0.0079, 0.0, 0.0, 0.0123, 12.85, 9.7)" gradientUnits="userSpaceOnUse" id="gradient0" r="819.2" spreadMethod="pad">
      <stop offset="0.1607843137254902" stop-color="#410000" stop-opacity="0.81960785"/>
      <stop offset="0.5019607843137255" stop-color="#8e0101" stop-opacity="0.8666667"/>
      <stop offset="0.6274509803921569" stop-color="#ff0000" stop-opacity="0.65882355"/>
      <stop offset="0.7294117647058823" stop-color="#b10000" stop-opacity="0.49803922"/>
      <stop offset="1.0" stop-color="#4d0000" stop-opacity="0.7490196"/>
    </radialGradient>
  </defs>
</svg>
