<?xml version="1.0" encoding="UTF-8" standalone="no"?>
<svg xmlns:ffdec="https://www.free-decompiler.com/flash" xmlns:xlink="http://www.w3.org/1999/xlink" ffdec:objectType="shape" height="19.85px" width="36.9px" xmlns="http://www.w3.org/2000/svg">
  <g transform="matrix(1.0, 0.0, 0.0, 1.0, 0.5, 0.5)">
    <path d="M12.8 2.95 Q14.35 3.85 15.35 6.15 16.35 8.45 16.2 11.15 L16.2 12.0 15.95 14.35 Q15.7 16.2 14.15 16.7 L11.1 17.25 Q8.05 17.65 4.8 16.05 L3.8 14.75 Q2.15 11.25 2.45 8.5 2.75 5.75 3.8 4.2 4.85 2.6 8.05 2.3 11.2 2.0 12.8 2.95 M13.7 9.7 L12.0 9.7 13.7 9.7 M14.65 14.25 L13.25 14.25 14.65 14.25" fill="#e9ca8d" fill-rule="evenodd" stroke="none"/>
    <path d="M12.8 2.95 Q11.2 2.0 8.05 2.3 4.85 2.6 3.8 4.2 2.75 5.75 2.45 8.5 2.15 11.25 3.8 14.75 L4.8 16.05 Q8.05 17.65 11.1 17.25 L14.15 16.7 Q15.7 16.2 15.95 14.35 L16.2 12.0 16.2 11.15 Q16.35 8.45 15.35 6.15 14.35 3.85 12.8 2.95 M13.25 14.25 L14.65 14.25" fill="none" stroke="#a3793c" stroke-linecap="round" stroke-linejoin="round" stroke-width="1.0"/>
    <path d="M12.0 9.7 L13.7 9.7" fill="none" stroke="#a3793c" stroke-linecap="round" stroke-linejoin="round" stroke-width="2.0"/>
    <path d="M12.8 2.95 Q14.35 3.85 15.35 6.15 16.35 8.45 16.2 11.15 L16.2 12.0 15.95 14.35 Q15.7 16.2 14.15 16.7 L11.1 17.25 Q8.05 17.65 4.8 16.05 L3.8 14.75 Q2.15 11.25 2.45 8.5 2.75 5.75 3.8 4.2 4.85 2.6 8.05 2.3 11.2 2.0 12.8 2.95" fill="#696969" fill-rule="evenodd" stroke="none"/>
    <path d="M12.8 2.95 Q11.2 2.0 8.05 2.3 4.85 2.6 3.8 4.2 2.75 5.75 2.45 8.5 2.15 11.25 3.8 14.75 L4.8 16.05 Q8.05 17.65 11.1 17.25 L14.15 16.7 Q15.7 16.2 15.95 14.35 L16.2 12.0 16.2 11.15 Q16.35 8.45 15.35 6.15 14.35 3.85 12.8 2.95 Z" fill="none" stroke="#3a3a3a" stroke-linecap="round" stroke-linejoin="round" stroke-width="1.0"/>
    <path d="M14.0 11.75 L11.75 10.9 14.0 11.75 M9.25 9.2 L12.85 9.2 18.5 11.65 18.4 12.5 18.35 12.8 18.1 13.95 16.4 14.9 9.05 12.25 9.2 10.0 9.25 9.2 M16.95 12.8 L15.65 12.3 16.95 12.8 M9.2 10.0 L12.7 10.0 18.4 12.5 12.7 10.0 9.2 10.0" fill="#252525" fill-rule="evenodd" stroke="none"/>
    <path d="M16.65 9.85 L14.8 9.25 16.65 9.85 M9.25 9.2 L9.65 7.5 18.1 8.1 18.5 11.15 18.5 11.65 12.85 9.2 9.25 9.2" fill="#333333" fill-rule="evenodd" stroke="none"/>
    <path d="M9.25 9.2 L12.85 9.2 18.5 11.65" fill="none" stroke="#171717" stroke-linecap="round" stroke-linejoin="round" stroke-width="1.0"/>
    <path d="M18.4 12.5 L12.7 10.0 9.2 10.0" fill="none" stroke="#3f0000" stroke-linecap="round" stroke-linejoin="round" stroke-width="0.8"/>
    <path d="M18.5 11.65 L18.5 11.15 18.1 8.1 9.65 7.5 9.25 9.2 9.2 10.0 9.05 12.25 16.4 14.9 18.1 13.95 18.35 12.8 18.4 12.5 18.5 11.65" fill="none" stroke="#121212" stroke-linecap="round" stroke-linejoin="round" stroke-width="1.0"/>
    <path d="M11.75 10.9 L14.0 11.75 M14.8 9.25 L16.65 9.85 M15.65 12.3 L16.95 12.8" fill="none" stroke="#ff0000" stroke-linecap="round" stroke-linejoin="round" stroke-width="1.0"/>
    <path d="M9.65 7.5 L8.85 13.9 6.75 13.9 2.2 10.8 5.05 7.9 9.65 7.5 8.55 8.25 9.65 7.5" fill="#bbbbbb" fill-rule="evenodd" stroke="none"/>
    <path d="M9.65 7.5 L5.05 7.9 2.2 10.8 6.75 13.9 8.85 13.9 9.65 7.5 8.55 8.25" fill="none" stroke="#231010" stroke-linecap="round" stroke-linejoin="round" stroke-width="1.0"/>
    <path d="M13.4 17.95 Q13.7 16.45 14.6 15.05 L16.05 13.6 18.3 13.35 Q19.2 14.0 18.95 15.15 L18.5 16.65 Q18.1 17.65 17.4 18.2 15.45 19.6 13.4 17.95 M17.55 14.9 L18.95 15.15 17.55 14.9 M16.4 16.2 L18.5 16.65 16.4 16.2" fill="#353535" fill-rule="evenodd" stroke="none"/>
    <path d="M13.4 17.95 L8.35 16.7 6.75 13.9 8.85 13.9 8.95 12.95 14.6 15.05 Q13.7 16.45 13.4 17.95" fill="#4d0a0a" fill-rule="evenodd" stroke="none"/>
    <path d="M18.5 16.65 L16.4 16.2 M18.95 15.15 L17.55 14.9" fill="none" stroke="#252525" stroke-linecap="round" stroke-linejoin="round" stroke-width="1.0"/>
    <path d="M14.6 15.05 L8.95 12.95 8.85 13.9 6.75 13.9 8.35 16.7 13.4 17.95" fill="none" stroke="#231010" stroke-linecap="round" stroke-linejoin="round" stroke-width="1.0"/>
    <path d="M13.4 17.95 Q13.7 16.45 14.6 15.05 L16.05 13.6 18.3 13.35 Q19.2 14.0 18.95 15.15 L18.5 16.65 Q18.1 17.65 17.4 18.2 15.45 19.6 13.4 17.95 Z" fill="none" stroke="#171717" stroke-linecap="round" stroke-linejoin="round" stroke-width="1.0"/>
    <path d="M15.4 2.75 L16.6 4.6 17.1 5.9 17.1 7.2 12.35 7.2 10.45 6.2 12.6 2.85 15.4 2.75" fill="#252525" fill-rule="evenodd" stroke="none"/>
    <path d="M10.45 6.2 L12.35 7.2 6.0 7.2 4.45 12.7 2.55 13.45 1.4 12.4 2.75 11.7 Q1.55 10.05 1.55 7.5 L0.0 7.5 0.2 5.6 Q0.45 4.6 1.35 3.35 L6.9 4.3 10.45 6.2" fill="#bbbbbb" fill-rule="evenodd" stroke="none"/>
    <path d="M15.4 2.75 L12.6 2.85 10.45 6.2 6.9 4.3 1.35 3.35 Q1.85 2.65 3.45 1.45 5.05 0.25 7.65 0.05 L11.6 0.3 Q13.0 0.7 13.85 1.3 L15.4 2.75 M8.45 2.25 L6.4 2.95 8.45 2.25 M11.35 3.15 L9.6 3.85 11.35 3.15" fill="#4d0a0a" fill-rule="evenodd" stroke="none"/>
    <path d="M1.4 12.4 L0.35 10.85 Q-0.1 9.15 0.0 7.5 L1.55 7.5 Q1.55 10.05 2.75 11.7 L1.4 12.4" fill="#350909" fill-rule="evenodd" stroke="none"/>
    <path d="M6.4 2.95 L8.45 2.25 M9.6 3.85 L11.35 3.15" fill="none" stroke="#410909" stroke-linecap="round" stroke-linejoin="round" stroke-width="1.0"/>
    <path d="M12.35 7.2 L17.1 7.2 17.1 5.9 16.6 4.6 15.4 2.75 13.85 1.3 Q13.0 0.7 11.6 0.3 L7.65 0.05 Q5.05 0.25 3.45 1.45 1.85 2.65 1.35 3.35 L6.9 4.3 10.45 6.2 12.35 7.2 6.0 7.2 4.45 12.7 2.55 13.45 1.4 12.4 0.35 10.85 Q-0.1 9.15 0.0 7.5 L0.2 5.6 Q0.45 4.6 1.35 3.35" fill="none" stroke="#231010" stroke-linecap="round" stroke-linejoin="round" stroke-width="1.0"/>
    <path d="M19.25 6.65 L18.75 6.65 18.55 7.65 17.6 7.8 12.7 7.45 12.0 6.3 13.0 4.95 14.8 4.5 16.05 2.3 17.2 2.3 17.85 3.15 18.9 3.15 Q19.8 4.35 19.25 6.65 M18.75 6.65 L16.7 6.0 16.7 4.05 17.85 3.15 16.7 4.05 16.7 6.0 18.75 6.65 M3.95 6.1 L8.4 6.1 9.25 6.6 Q9.6 7.45 8.55 8.25 L5.7 8.25 5.05 10.5 Q3.25 11.35 2.7 9.75 L3.95 6.1 M5.4 6.85 L4.75 6.85 5.4 6.85" fill="#a11010" fill-rule="evenodd" stroke="none"/>
    <path d="M4.75 6.85 L5.4 6.85" fill="none" stroke="#3a0d0d" stroke-linecap="round" stroke-linejoin="round" stroke-width="1.0"/>
    <path d="M19.25 6.65 L18.75 6.65 18.55 7.65 17.6 7.8 12.7 7.45 12.0 6.3 13.0 4.95 14.8 4.5 16.05 2.3 17.2 2.3 17.85 3.15 18.9 3.15 Q19.8 4.35 19.25 6.65 M17.85 3.15 L16.7 4.05 16.7 6.0 18.75 6.65 M3.95 6.1 L8.4 6.1 9.25 6.6 Q9.6 7.45 8.55 8.25 L5.7 8.25 5.05 10.5 Q3.25 11.35 2.7 9.75 L3.95 6.1 Z" fill="none" stroke="#310a0a" stroke-linecap="round" stroke-linejoin="round" stroke-width="1.0"/>
    <path d="M9.65 5.1 L9.65 6.1 9.65 6.55 8.2 6.55 8.2 6.65 3.45 6.65 3.45 4.65 5.3 4.65 8.2 4.65 9.65 4.65 9.65 5.1 M8.2 4.65 L8.2 6.55 8.2 4.65 M5.3 4.65 L5.3 5.65 5.3 4.65" fill="#353535" fill-rule="evenodd" stroke="none"/>
    <path d="M9.65 6.1 L9.65 6.55 8.2 6.55 8.2 6.65 3.45 6.65 3.45 4.65 5.3 4.65 8.2 4.65 9.65 4.65 9.65 5.1 M5.3 5.65 L5.3 4.65 M8.2 6.55 L8.2 4.65" fill="none" stroke="#1c1c1c" stroke-linecap="round" stroke-linejoin="round" stroke-width="1.0"/>
    <path d="M9.65 5.1 L9.65 6.1" fill="none" stroke="#ff0000" stroke-linecap="round" stroke-linejoin="round" stroke-width="1.0"/>
    <path d="M10.1 5.6 L35.9 5.6" fill="none" stroke="url(#gradient0)" stroke-linecap="round" stroke-linejoin="round" stroke-width="1.0"/>
  </g>
  <defs>
    <linearGradient gradientTransform="matrix(0.0164, 0.0, 0.0, 6.0E-4, 23.0, 5.55)" gradientUnits="userSpaceOnUse" id="gradient0" spreadMethod="pad" x1="-819.2" x2="819.2">
      <stop offset="0.0" stop-color="#ff0000" stop-opacity="0.49803922"/>
      <stop offset="1.0" stop-color="#ff0000" stop-opacity="0.007843138"/>
    </linearGradient>
  </defs>
</svg>
