<?xml version="1.0" encoding="UTF-8" standalone="no"?>
<svg xmlns:ffdec="https://www.free-decompiler.com/flash" xmlns:xlink="http://www.w3.org/1999/xlink" ffdec:objectType="shape" height="17.6px" width="21.5px" xmlns="http://www.w3.org/2000/svg">
  <g transform="matrix(1.0, 0.0, 0.0, 1.0, 0.5, 0.5)">
    <path d="M18.7 7.2 Q16.3 10.95 10.3 9.2 7.25 7.65 7.35 5.25 7.6 3.75 7.7 3.95 9.4 1.9 14.55 3.25 L14.95 3.35 15.9 3.6 16.95 3.95 17.1 4.1 Q19.15 6.3 18.7 7.2 M14.95 6.0 L14.25 5.8 14.95 6.0 M14.25 5.8 L13.2 5.55 14.25 5.8" fill="#e38902" fill-rule="evenodd" stroke="none"/>
    <path d="M10.3 9.2 Q9.1 9.2 9.6 11.55 L6.65 10.75 5.4 10.2 Q3.65 5.6 6.0 4.15 L7.35 5.25 Q7.25 7.65 10.3 9.2 M11.25 15.15 L11.3 15.15 11.3 16.05 9.4 16.6 8.25 15.65 9.5 14.35 11.25 15.15" fill="#666666" fill-rule="evenodd" stroke="none"/>
    <path d="M9.6 11.55 L9.7 12.8 12.15 13.85 11.95 14.65 11.25 15.15 9.5 14.35 8.25 15.65 Q8.0 15.8 6.25 14.95 6.85 12.75 6.65 10.75 L9.6 11.55" fill="#464646" fill-rule="evenodd" stroke="none"/>
    <path d="M7.35 5.25 Q7.6 3.75 7.7 3.95 9.4 1.9 14.55 3.25 L14.95 3.35 15.9 3.6 16.95 3.95 17.1 4.1 Q19.15 6.3 18.7 7.2" fill="none" stroke="#653d01" stroke-linecap="round" stroke-linejoin="round" stroke-width="1.0"/>
    <path d="M13.2 5.55 L14.25 5.8" fill="none" stroke="#910000" stroke-linecap="round" stroke-linejoin="round" stroke-width="2.0"/>
    <path d="M11.25 15.15 L11.3 15.15 11.3 16.05 9.4 16.6 8.25 15.65 9.5 14.35 11.25 15.15" fill="none" stroke="#262626" stroke-linecap="round" stroke-linejoin="round" stroke-width="1.0"/>
    <path d="M14.25 5.8 L14.95 6.0" fill="none" stroke="#3c0000" stroke-linecap="round" stroke-linejoin="round" stroke-width="2.0"/>
    <path d="M12.15 13.85 L11.95 14.65 11.25 15.15 M8.25 15.65 Q8.0 15.8 6.25 14.95 6.85 12.75 6.65 10.75" fill="none" stroke="#232323" stroke-linecap="round" stroke-linejoin="round" stroke-width="1.0"/>
    <path d="M9.65 8.8 Q6.8 6.6 6.75 4.05 L7.25 3.8 Q7.35 6.0 9.65 8.2 L9.65 8.8" fill="#272727" fill-rule="evenodd" stroke="none"/>
    <path d="M14.0 11.05 L14.5 11.0 Q15.4 11.0 16.05 11.65 16.7 12.3 16.7 13.2 L16.65 13.8 16.4 14.3 16.2 14.6 16.05 14.75 Q15.4 15.4 14.5 15.4 13.6 15.4 12.95 14.75 L12.6 14.3 12.3 13.35 12.3 13.2 Q12.3 12.3 12.95 11.65 13.4 11.2 14.0 11.05 M14.45 11.75 Q13.85 11.75 13.35 12.15 13.0 12.6 13.0 13.2 13.0 13.85 13.35 14.2 L13.45 14.3 Q13.9 14.7 14.45 14.7 15.05 14.7 15.4 14.3 L15.45 14.2 Q15.95 13.85 15.95 13.2 15.95 12.6 15.45 12.15 15.1 11.75 14.45 11.75" fill="#4a4a4a" fill-rule="evenodd" stroke="none"/>
    <path d="M14.45 11.75 Q15.1 11.75 15.45 12.15 15.95 12.6 15.95 13.2 15.95 13.85 15.45 14.2 L15.4 14.3 Q15.05 14.7 14.45 14.7 13.9 14.7 13.45 14.3 L13.35 14.2 Q13.0 13.85 13.0 13.2 13.0 12.6 13.35 12.15 13.85 11.75 14.45 11.75" fill="#333333" fill-rule="evenodd" stroke="none"/>
    <path d="M14.25 9.25 L14.0 11.05 Q13.4 11.2 12.95 11.65 12.3 12.3 12.3 13.2 L12.3 13.35 5.3 10.35 Q4.05 7.95 4.5 4.95 L6.75 4.05 Q6.8 6.6 9.65 8.8 L9.65 9.45 14.25 9.25" fill="#232323" fill-rule="evenodd" stroke="none"/>
    <path d="M16.65 13.8 L16.7 13.2 Q16.7 12.3 16.05 11.65 15.4 11.0 14.5 11.0 L14.0 11.05 14.25 9.25 18.85 6.85 20.5 9.85 Q20.6 11.95 19.8 13.05 L19.4 13.5 19.0 13.8 16.65 13.8 M19.2 11.1 L17.9 9.5 19.2 11.1 M17.95 11.35 L16.85 10.05 17.95 11.35" fill="#350303" fill-rule="evenodd" stroke="none"/>
    <path d="M9.65 8.8 Q6.8 6.6 6.75 4.05" fill="none" stroke="#380202" stroke-linecap="round" stroke-linejoin="round" stroke-width="1.0"/>
    <path d="M14.45 11.75 Q15.1 11.75 15.45 12.15 15.95 12.6 15.95 13.2 15.95 13.85 15.45 14.2 L15.4 14.3 Q15.05 14.7 14.45 14.7 13.9 14.7 13.45 14.3 L13.35 14.2 Q13.0 13.85 13.0 13.2 13.0 12.6 13.35 12.15 13.85 11.75 14.45 11.75" fill="none" stroke="#380202" stroke-linecap="round" stroke-linejoin="round" stroke-width="0.6000000000000001"/>
    <path d="M16.85 10.05 L17.95 11.35 M17.9 9.5 L19.2 11.1" fill="none" stroke="#100606" stroke-linecap="round" stroke-linejoin="round" stroke-width="1.0"/>
    <path d="M5.65 3.4 L5.9 2.6 Q7.4 1.65 9.0 1.25 L10.1 2.75 8.8 4.55 12.15 6.4 13.2 7.65 16.35 8.2 14.25 9.25 9.65 9.45 9.65 8.2 8.65 7.25 9.55 6.5 8.8 4.55 5.65 3.4" fill="#272727" fill-rule="evenodd" stroke="none"/>
    <path d="M9.0 1.25 L8.6 0.7 10.8 0.0 18.0 2.45 18.1 4.25 17.55 4.25 17.15 4.15 16.95 4.1 10.1 2.75 9.0 1.25" fill="#353434" fill-rule="evenodd" stroke="none"/>
    <path d="M7.85 11.55 L4.05 9.75 4.05 7.55 4.6 7.7 7.85 8.85 7.85 11.55 M4.4 6.2 L2.6 5.55 1.8 1.95 5.65 3.4 8.8 4.55 9.55 6.5 8.65 7.25 8.2 7.6 4.4 6.2" fill="#383838" fill-rule="evenodd" stroke="none"/>
    <path d="M4.05 9.75 L2.7 9.15 2.7 7.1 4.05 7.55 4.05 9.75 M2.6 5.55 L0.8 4.9 0.0 1.3 1.8 1.95 2.6 5.55" fill="#350303" fill-rule="evenodd" stroke="none"/>
    <path d="M17.55 4.25 Q19.1 6.45 19.15 7.15 L18.85 6.85 16.35 8.2 13.2 7.65 12.15 6.4 8.8 4.55 10.1 2.75 16.95 4.1 17.15 4.15 17.55 4.25" fill="url(#gradient0)" fill-rule="evenodd" stroke="none"/>
    <path d="M9.0 1.25 L8.6 0.7 10.8 0.0 18.0 2.45 18.1 4.25 17.55 4.25 17.15 4.15 M19.15 7.15 Q20.2 8.35 20.5 9.85 20.6 12.85 19.0 13.8 L16.65 13.8 16.2 14.6 16.05 14.75 Q15.4 15.4 14.5 15.4 13.6 15.4 12.95 14.75 12.35 14.15 12.3 13.35 L9.7 12.4 7.85 11.55 4.05 9.75 2.7 9.15 2.7 7.1 4.05 7.55 4.6 7.7 Q4.3 6.85 4.4 6.2 L2.6 5.55 0.8 4.9 0.0 1.3 1.8 1.95 5.65 3.4 5.9 2.6 Q7.4 1.65 9.0 1.25 L10.1 2.75 16.95 4.1 M12.3 13.35 L12.3 13.2 Q12.3 12.3 12.95 11.65 13.4 11.2 14.0 11.05 L14.25 9.25 9.65 9.45 9.7 12.4 M14.0 11.05 L14.5 11.0 Q15.4 11.0 16.05 11.65 16.7 12.3 16.7 13.2 L16.65 13.8 M10.1 2.75 L8.8 4.55 12.15 6.4 13.2 7.65 16.35 8.2 18.85 6.85 19.15 7.15 M16.35 8.2 L14.25 9.25 M8.65 7.25 L9.55 6.5 8.8 4.55 5.65 3.4 M1.8 1.95 L2.6 5.55 M4.05 7.55 L4.05 9.75 M8.65 7.25 L8.2 7.6 4.4 6.2 M9.65 9.45 L9.65 8.2 8.65 7.25 M4.6 7.7 L7.85 8.85 7.85 11.55 M13.25 12.1 L16.2 14.6" fill="none" stroke="#070707" stroke-linecap="round" stroke-linejoin="round" stroke-width="1.0"/>
    <path d="M17.55 4.25 Q19.1 6.45 19.15 7.15 M16.95 4.1 L17.15 4.15" fill="none" stroke="#2c0000" stroke-linecap="round" stroke-linejoin="round" stroke-opacity="0.7490196" stroke-width="1.0"/>
    <path d="M12.1 3.15 L14.0 1.9 16.65 1.9 18.2 0.4 19.2 1.85 18.1 4.7 12.1 3.15" fill="#350303" fill-rule="evenodd" stroke="none"/>
    <path d="M12.1 3.15 L14.0 1.9 16.65 1.9 18.2 0.4 19.2 1.85 18.1 4.7 12.1 3.15" fill="none" stroke="#070707" stroke-linecap="round" stroke-linejoin="round" stroke-width="1.0"/>
    <path d="M13.8 5.65 L16.05 6.45" fill="none" stroke="#fcadad" stroke-linecap="round" stroke-linejoin="round" stroke-width="1.0"/>
  </g>
  <defs>
    <linearGradient gradientTransform="matrix(0.0056, -0.0033, 0.0017, 0.0029, 21.7, 13.2)" gradientUnits="userSpaceOnUse" id="gradient0" spreadMethod="pad" x1="-819.2" x2="819.2">
      <stop offset="0.0" stop-color="#3a0303"/>
      <stop offset="0.596078431372549" stop-color="#db0000"/>
      <stop offset="0.9058823529411765" stop-color="#850000"/>
    </linearGradient>
  </defs>
</svg>
