<?xml version="1.0" encoding="UTF-8" standalone="no"?>
<svg xmlns:ffdec="https://www.free-decompiler.com/flash" xmlns:xlink="http://www.w3.org/1999/xlink" ffdec:objectType="shape" height="18.6px" width="18.85px" xmlns="http://www.w3.org/2000/svg">
  <g transform="matrix(1.0, 0.0, 0.0, 1.0, 7.25, 17.35)">
    <path d="M0.1 -16.85 Q2.9 -16.75 6.5 -15.5 L7.65 -14.0 8.5 -11.9 9.05 -10.25 9.1 -10.1 9.15 -9.9 Q9.95 -7.35 10.0 -5.0 L8.15 -5.0 5.3 -3.2 0.45 -4.0 Q-4.7 -5.05 -6.35 -6.65 -6.95 -13.1 -6.7 -14.1 L-6.35 -14.8 -6.2 -14.95 -5.8 -15.3 -3.95 -16.3 0.1 -16.85 -3.05 -16.5 Q-4.9 -16.0 -5.8 -15.3 -4.9 -16.0 -3.05 -16.5 L0.1 -16.85 M7.3 -8.95 L5.1 -9.0 5.1 -11.05 3.35 -11.1 2.9 -11.05 2.25 -10.9 Q1.3 -10.65 0.9 -10.1 L1.2 -9.75 1.6 -9.45 Q2.35 -9.05 3.55 -8.95 L2.85 -8.95 3.55 -8.95 Q2.3 -8.7 1.9 -8.2 L1.65 -7.6 2.0 -7.15 Q2.75 -6.35 4.4 -6.35 2.75 -6.35 2.0 -7.15 2.2 -6.95 2.5 -6.85 L4.4 -6.35 7.3 -6.3 7.55 -6.35 7.55 -8.95 7.3 -8.95 M1.2 -9.75 Q1.75 -9.15 2.85 -8.95 L1.9 -8.2 2.85 -8.95 Q1.75 -9.15 1.2 -9.75 M-2.25 -7.5 L-2.1 -7.7 Q-1.45 -8.25 -1.45 -9.1 -1.45 -9.9 -2.1 -10.55 -2.65 -11.15 -3.45 -11.15 L-4.7 -10.7 -4.9 -10.55 Q-5.5 -9.9 -5.5 -9.1 -5.5 -8.25 -4.9 -7.7 -4.3 -7.1 -3.45 -7.1 -2.75 -7.1 -2.25 -7.5" fill="#97856f" fill-rule="evenodd" stroke="none"/>
    <path d="M5.1 -11.05 L5.1 -9.0 7.3 -8.95 3.55 -8.95 7.3 -8.95 7.55 -8.95 7.55 -6.35 7.3 -6.3 4.4 -6.35 2.5 -6.85 Q2.2 -6.95 2.0 -7.15 L1.65 -7.6 1.9 -8.2 Q2.3 -8.7 3.55 -8.95 2.35 -9.05 1.6 -9.45 L1.2 -9.75 0.9 -10.1 Q1.3 -10.65 2.25 -10.9 L2.9 -11.05 3.35 -11.1 5.1 -11.05 2.9 -11.05 5.1 -11.05" fill="#73655f" fill-rule="evenodd" stroke="none"/>
    <path d="M3.5 -1.35 L3.45 -1.35 2.9 0.3 Q-0.2 1.4 -2.95 -0.1 L-2.95 -2.9 -2.05 -2.6 1.15 -1.8 1.65 -1.7 1.8 -1.7 1.95 -1.65 2.9 -1.45 3.5 -1.35" fill="#373232" fill-rule="evenodd" stroke="none"/>
    <path d="M10.0 -5.0 L10.1 -5.0 9.0 -2.5 6.55 -1.05 3.5 -1.35 2.9 -1.45 1.95 -1.65 1.8 -1.7 1.65 -1.7 1.15 -1.8 -2.05 -2.6 -2.95 -2.9 -3.4 -3.1 Q-5.05 -3.75 -6.2 -4.65 -6.8 -5.95 -6.35 -6.65 -4.7 -5.05 0.45 -4.0 L5.3 -3.2 8.15 -5.0 10.0 -5.0 M-3.4 -3.1 L-2.05 -2.6 -3.4 -3.1" fill="#4d4844" fill-rule="evenodd" stroke="none"/>
    <path d="M-4.7 -10.7 L-3.45 -11.15 Q-2.65 -11.15 -2.1 -10.55 -1.45 -9.9 -1.45 -9.1 -1.45 -8.25 -2.1 -7.7 L-2.25 -7.5 -4.7 -10.7 -2.25 -7.5 Q-2.75 -7.1 -3.45 -7.1 -4.3 -7.1 -4.9 -7.7 -5.5 -8.25 -5.5 -9.1 -5.5 -9.9 -4.9 -10.55 L-4.7 -10.7" fill="#685649" fill-rule="evenodd" stroke="none"/>
    <path d="M6.5 -15.5 L7.65 -14.0 8.7 -11.55 9.05 -10.25 9.1 -10.1 9.15 -9.9 Q9.95 -7.35 10.0 -5.0 M-4.7 -10.7 L-2.25 -7.5" fill="none" stroke="#473d36" stroke-linecap="round" stroke-linejoin="round" stroke-width="1.0"/>
    <path d="M0.1 -16.85 Q2.9 -16.75 6.5 -15.5 M-6.35 -6.65 Q-6.95 -13.1 -6.7 -14.1 L-6.35 -14.8 -6.2 -14.95 -5.8 -15.3 Q-4.9 -16.0 -3.05 -16.5 L0.1 -16.85" fill="none" stroke="#655447" stroke-linecap="round" stroke-linejoin="round" stroke-width="1.0"/>
    <path d="M2.25 -10.9 Q1.3 -10.65 0.9 -10.1 L1.2 -9.75 Q1.75 -9.15 2.85 -8.95 L1.9 -8.2 1.65 -7.6 2.0 -7.15 Q2.75 -6.35 4.4 -6.35" fill="none" stroke="#4e4844" stroke-linecap="round" stroke-linejoin="round" stroke-width="1.0"/>
    <path d="M5.1 -11.05 L2.9 -11.05 2.25 -10.9 M3.55 -8.95 L7.3 -8.95 M7.3 -6.3 L4.4 -6.35 M2.85 -8.95 L3.55 -8.95" fill="none" stroke="#645246" stroke-linecap="round" stroke-linejoin="round" stroke-width="1.0"/>
    <path d="M3.5 -1.35 L3.45 -1.35 2.9 0.3 Q-0.2 1.4 -2.95 -0.1 L-2.95 -2.9" fill="none" stroke="#1d1d1d" stroke-linecap="round" stroke-linejoin="round" stroke-width="1.0"/>
    <path d="M10.0 -5.0 L10.1 -5.0 9.0 -2.5 6.55 -1.05 3.5 -1.35 2.9 -1.45 1.95 -1.65 1.8 -1.7 1.65 -1.7 1.15 -1.8 -2.05 -2.6 -3.4 -3.1 Q-5.05 -3.75 -6.2 -4.65 -6.8 -5.95 -6.35 -6.65 -4.7 -5.05 0.45 -4.0 L5.3 -3.2 8.15 -5.0 10.0 -5.0 M-2.25 -7.5 L-2.1 -7.7 Q-1.45 -8.25 -1.45 -9.1 -1.45 -9.9 -2.1 -10.55 -2.65 -11.15 -3.45 -11.15 L-4.7 -10.7 -4.9 -10.55 Q-5.5 -9.9 -5.5 -9.1 -5.5 -8.25 -4.9 -7.7 -4.3 -7.1 -3.45 -7.1 -2.75 -7.1 -2.25 -7.5 Z" fill="none" stroke="#2b2a29" stroke-linecap="round" stroke-linejoin="round" stroke-width="1.0"/>
    <path d="M7.55 -8.95 L7.55 -9.1 11.6 -9.1 11.6 -6.2 7.55 -6.2 7.55 -6.35 7.55 -8.95" fill="url(#gradient0)" fill-rule="evenodd" stroke="none"/>
    <path d="M7.55 -8.95 L7.55 -6.35 M5.1 -11.1 L5.1 -8.95" fill="none" stroke="#ecbe3e" stroke-linecap="round" stroke-linejoin="round" stroke-width="1.0"/>
  </g>
  <defs>
    <linearGradient gradientTransform="matrix(-0.0024, 0.0, 0.0, 0.0024, 9.55, -7.65)" gradientUnits="userSpaceOnUse" id="gradient0" spreadMethod="pad" x1="-819.2" x2="819.2">
      <stop offset="0.00392156862745098" stop-color="#e6b83f" stop-opacity="0.0"/>
      <stop offset="1.0" stop-color="#e3cd64"/>
    </linearGradient>
  </defs>
</svg>
