<?xml version="1.0" encoding="UTF-8" standalone="no"?>
<svg xmlns:ffdec="https://www.free-decompiler.com/flash" xmlns:xlink="http://www.w3.org/1999/xlink" ffdec:objectType="shape" height="20.4px" width="22.35px" xmlns="http://www.w3.org/2000/svg">
  <g transform="matrix(1.0, 0.0, 0.0, 1.0, 9.4, 18.0)">
    <path d="M7.0 -3.9 Q7.15 -2.95 7.7 -2.25 7.4 -1.85 6.45 -1.7 L4.95 -1.25 3.0 0.3 Q1.95 0.95 1.05 0.15 L-1.45 -4.65 Q-0.55 -4.35 3.2 -5.55 L7.0 -3.9" fill="#1c2228" fill-rule="evenodd" stroke="none"/>
    <path d="M0.9 -14.05 L4.3 -12.8 0.9 -10.45 Q0.95 -10.65 0.3 -10.8 L-2.0 -11.2 Q-4.9 -12.0 0.9 -14.05" fill="#0d0c22" fill-rule="evenodd" stroke="none"/>
    <path d="M9.4 -13.75 Q11.2 -12.1 10.9 -11.6 L8.7 -12.4 6.05 -12.85 Q5.15 -12.85 2.85 -13.5 L-0.2 -13.95 Q-1.8 -13.7 -2.65 -12.0 -3.5 -10.35 -2.75 -8.6 L-2.65 -10.3 0.2 -10.5 Q1.9 -9.7 2.6 -8.1 3.15 -6.65 2.55 -5.9 L1.0 -5.5 Q-1.05 -4.85 -0.95 -4.15 -0.85 -3.3 0.1 -2.0 1.0 -0.6 2.1 0.15 L3.0 0.1 4.85 -1.15 6.15 -1.3 Q7.35 -1.3 7.5 -1.7 7.65 -2.1 7.1 -3.4 6.55 -4.6 6.75 -4.75 7.8 -5.5 9.45 -5.75 L11.05 -5.9 Q12.8 -5.2 12.25 -2.4 11.75 0.4 10.35 0.1 L9.25 -0.3 Q8.45 -0.75 8.45 -0.3 8.5 0.45 7.9 1.15 7.3 1.9 6.45 1.75 L0.35 1.4 -2.7 1.15 -2.65 -0.7 -7.15 -5.5 Q-7.95 -6.6 -7.7 -7.55 -7.45 -8.4 -8.0 -8.85 -8.6 -9.1 -8.6 -9.95 L-8.25 -11.7 Q-7.95 -12.0 -7.75 -13.45 L-7.4 -15.2 -5.75 -14.5 -4.25 -15.65 -2.0 -16.55 Q-3.05 -17.85 1.35 -17.15 5.6 -16.5 6.85 -15.6 7.65 -15.35 9.4 -13.75" fill="url(#gradient0)" fill-rule="evenodd" stroke="none"/>
    <path d="M2.2 -11.65 L4.3 -13.2 7.7 -12.65 Q9.55 -10.25 10.35 -5.6 L8.55 -4.7 5.55 -4.65 Q3.25 -4.9 2.7 -5.4 3.05 -6.7 2.4 -8.25 1.65 -9.95 0.1 -10.5 1.0 -10.65 2.2 -11.65" fill="url(#gradient1)" fill-rule="evenodd" stroke="none"/>
    <path d="M4.95 1.0 L5.35 1.85 -1.75 1.75 Q-2.9 1.55 -2.35 -0.6 -2.9 -1.65 -5.55 -3.9 -7.55 -5.55 -7.8 -7.85 -8.45 -8.05 -8.35 -10.05 L-8.9 -11.45 Q-8.85 -11.65 -8.4 -11.65 -8.0 -11.65 -7.95 -11.8 -7.8 -12.1 -8.1 -12.8 L-8.3 -13.6 -7.45 -13.55 -7.1 -13.5 Q-7.3 -13.9 -7.3 -14.65 L-7.35 -15.45 -5.45 -14.95 Q-4.5 -16.05 -2.6 -16.85 L0.6 -17.5 3.1 -16.95 6.4 -15.4 Q10.3 -14.9 11.6 -10.9 8.7 -12.95 7.55 -12.55 L5.15 -12.85 4.1 -13.15 1.45 -11.35 0.3 -10.85 0.3 -10.5 0.2 -10.15 Q2.6 -10.15 2.6 -5.9 3.3 -5.25 5.0 -4.55 L6.15 -4.05 6.4 -4.05 6.95 -3.95 7.5 -4.0 8.65 -4.25 8.95 -4.7 9.3 -5.25 10.25 -5.6 11.6 -5.7 Q12.7 -3.9 12.4 -2.95 L11.05 0.25 10.05 0.25 9.8 -0.3 9.0 -0.65 8.6 -0.4 Q8.8 0.1 8.4 0.85 7.9 1.65 6.9 1.9 6.4 2.0 5.6 1.55 L4.95 1.0 4.65 0.3 Q4.3 -1.15 5.6 -1.7 6.95 -2.15 7.65 -1.2 M6.4 -3.9 L7.35 -3.25 8.05 -2.55 8.0 -1.4 7.85 -0.9 8.1 -1.4 8.05 -2.6 7.15 -3.85 6.95 -3.95 6.4 -3.9 6.05 -4.0 6.15 -4.05 6.4 -3.9 M5.6 -1.7 Q4.7 -1.15 4.65 0.15 L4.95 1.0" fill="none" stroke="#070a0a" stroke-linecap="round" stroke-linejoin="round" stroke-width="1.0"/>
    <path d="M11.1 -11.1 Q8.8 -12.3 8.3 -12.4 L6.75 -12.4 7.25 -13.75 7.7 -15.15 M3.1 -13.45 L2.25 -13.4 0.1 -14.1 Q-1.3 -13.75 -2.3 -13.05 L-2.4 -13.05 Q-2.75 -12.65 -2.55 -10.9 L-2.5 -10.65 0.75 -10.6 M-2.4 -13.05 L-3.5 -13.8 -3.8 -14.0 -5.3 -15.05 Q-5.2 -15.15 -3.8 -14.05 L-3.5 -13.8 M-8.0 -8.3 L-5.95 -8.9 -3.1 -9.35 -2.95 -9.4 -2.9 -10.55 -2.5 -10.65 Q-2.45 -9.6 -2.95 -9.4 L-2.85 -5.65 -1.8 -4.5 2.9 -5.7 Q3.0 -5.45 1.25 -5.05 L-1.65 -4.4 -1.1 -3.85 0.0 -2.7 0.3 -1.2 Q0.4 -0.45 1.0 0.0 L3.5 0.05 4.5 -0.8 M9.5 -0.5 L10.05 -1.75 Q10.55 -2.65 10.5 -3.45 10.5 -4.0 9.75 -4.65 9.2 -5.2 9.4 -5.25" fill="none" stroke="#0e1316" stroke-linecap="round" stroke-linejoin="round" stroke-width="1.0"/>
    <path d="M8.0 -12.05 Q8.75 -11.25 9.4 -9.35 L10.3 -5.9" fill="none" stroke="#110e4f" stroke-linecap="round" stroke-linejoin="round" stroke-opacity="0.7019608" stroke-width="1.0"/>
    <path d="M0.9 -0.7 Q-0.55 -0.3 -2.3 -1.2 -3.95 -2.15 -4.9 -3.75 -4.5 -5.0 -3.15 -4.4 -2.5 -2.95 -1.35 -2.5 L0.95 -2.2 Q2.1 -2.4 2.1 -1.45 2.1 -0.6 0.9 -0.7" fill="#365e75" fill-rule="evenodd" stroke="none"/>
    <path d="M0.9 -0.7 Q-0.55 -0.3 -2.3 -1.2 -3.95 -2.15 -4.9 -3.75 -4.5 -5.0 -3.15 -4.4 -2.5 -2.95 -1.35 -2.5 L0.95 -2.2 Q2.1 -2.4 2.1 -1.45 2.1 -0.6 0.9 -0.7 Z" fill="none" stroke="#121519" stroke-linecap="round" stroke-linejoin="round" stroke-width="1.0"/>
    <path d="M4.3 -12.75 L5.3 -12.4 7.5 -12.2 8.25 -10.85 9.2 -8.45 Q9.5 -6.95 9.95 -5.7 8.7 -5.95 8.5 -4.7 L6.8 -4.4 Q5.85 -4.55 4.9 -5.05 L3.0 -6.05 Q3.05 -8.35 2.45 -9.3 L0.6 -10.55 Q2.2 -11.05 3.15 -11.8 L4.3 -12.75 Z" fill="none" stroke="#4989c5" stroke-linecap="round" stroke-linejoin="round" stroke-opacity="0.3372549" stroke-width="1.0"/>
    <path d="M5.2 -2.9 L4.5 -1.7" fill="none" stroke="#8ecdf7" stroke-linecap="round" stroke-linejoin="round" stroke-width="1.0"/>
    <path d="M2.8 -3.75 L2.15 -2.5" fill="none" stroke="#8ecdf7" stroke-linecap="round" stroke-linejoin="round" stroke-width="1.0"/>
    <path d="M-4.05 -8.8 L-2.5 -9.4 -2.4 -4.8 -3.35 -5.0 -7.3 -5.75 -8.05 -6.9 -7.7 -8.3 -5.85 -8.8 -3.9 -9.2 -4.05 -8.85 -4.05 -8.8" fill="url(#gradient2)" fill-rule="evenodd" stroke="none"/>
    <path d="M-2.45 -6.9 L-2.4 -4.8 -3.35 -5.0 -7.3 -5.75 -8.05 -6.9 -7.7 -8.3 -5.85 -8.8 -3.9 -9.2 -4.05 -8.85 -4.05 -8.8 -2.5 -9.4 -2.45 -6.9 -5.15 -7.5 -6.7 -5.65 -5.6 -7.7 -6.3 -8.25 -5.6 -7.75 -5.6 -7.7 -5.4 -7.6 -5.15 -7.5 -5.05 -7.6 -5.65 -7.8 -5.3 -8.4 -4.05 -8.8 -5.05 -7.6 -2.45 -6.9 Z" fill="none" stroke="#080815" stroke-linecap="round" stroke-linejoin="round" stroke-opacity="0.6117647" stroke-width="1.0"/>
    <path d="M-2.3 -17.25 L-1.85 -17.1 -0.85 -16.45 0.8 -14.75 -1.45 -13.9 -4.0 -16.4 -2.3 -17.25" fill="#8ab7d4" fill-rule="evenodd" stroke="none"/>
    <path d="M-2.3 -17.25 L-4.0 -16.4 -1.45 -13.9 0.8 -14.75 -0.85 -16.45 -1.85 -17.1 -2.3 -17.25 Z" fill="none" stroke="#0c041c" stroke-linecap="round" stroke-linejoin="round" stroke-opacity="0.68235296" stroke-width="1.0"/>
    <path d="M0.9 -14.45 L0.9 -13.7 0.5 -12.4 0.2 -10.95 0.1 -10.15 -3.15 -9.55 -1.4 -13.85 0.9 -14.45" fill="url(#gradient3)" fill-rule="evenodd" stroke="none"/>
    <path d="M0.9 -14.45 L-1.4 -13.85 -3.15 -9.55 0.1 -10.15 0.2 -10.95 0.5 -12.4 0.9 -13.7 0.9 -14.45 Z" fill="none" stroke="#0c041c" stroke-linecap="round" stroke-linejoin="round" stroke-opacity="0.68235296" stroke-width="1.0"/>
    <path d="M-4.4 -16.2 L-1.55 -13.85 -2.35 -12.3 -4.05 -13.8 -5.45 -15.0 -4.4 -16.2" fill="#6999d5" fill-rule="evenodd" stroke="none"/>
    <path d="M-4.4 -16.2 L-5.45 -15.0 -4.05 -13.8 -2.35 -12.3 -1.55 -13.85 -4.4 -16.2 Z" fill="none" stroke="#0c041c" stroke-linecap="round" stroke-linejoin="round" stroke-opacity="0.68235296" stroke-width="1.0"/>
    <path d="M-3.1 -9.1 L-4.4 -9.05 -6.8 -5.9 -2.35 -8.05 1.25 -9.0 1.9 -8.3 2.0 -7.25 -1.95 -6.45 Q-2.35 -6.35 -2.35 -5.6 -2.35 -5.0 -2.6 -5.0 -5.6 -5.0 -6.85 -5.65 L-8.0 -6.65 Q-8.45 -7.25 -8.0 -7.75 -7.35 -8.65 -5.0 -9.0 L-4.4 -9.05" fill="none" stroke="#0b0b12" stroke-linecap="round" stroke-linejoin="round" stroke-opacity="0.4627451" stroke-width="1.0"/>
  </g>
  <defs>
    <linearGradient gradientTransform="matrix(0.0019, 0.003, -0.003, 0.0019, 5.2, -12.85)" gradientUnits="userSpaceOnUse" id="gradient0" spreadMethod="pad" x1="-819.2" x2="819.2">
      <stop offset="0.0" stop-color="#121a22"/>
      <stop offset="0.6549019607843137" stop-color="#27363f"/>
      <stop offset="1.0" stop-color="#4d6277"/>
    </linearGradient>
    <radialGradient cx="0" cy="0" gradientTransform="matrix(0.0128, -8.0E-4, 7.0E-4, 0.0112, 6.05, -8.6)" gradientUnits="userSpaceOnUse" id="gradient1" r="819.2" spreadMethod="pad">
      <stop offset="0.0" stop-color="#ffffff"/>
      <stop offset="1.0" stop-color="#6dc4fe" stop-opacity="0.7647059"/>
    </radialGradient>
    <radialGradient cx="0" cy="0" gradientTransform="matrix(0.0038, 0.0, 0.0, 0.0034, -5.05, -7.05)" gradientUnits="userSpaceOnUse" id="gradient2" r="819.2" spreadMethod="pad">
      <stop offset="0.0" stop-color="#67bcde"/>
      <stop offset="1.0" stop-color="#2b828d" stop-opacity="0.0"/>
    </radialGradient>
    <radialGradient cx="0" cy="0" gradientTransform="matrix(0.0031, 0.0, 0.0, 0.0036, -0.65, -13.4)" gradientUnits="userSpaceOnUse" id="gradient3" r="819.2" spreadMethod="pad">
      <stop offset="0.0" stop-color="#71bbec"/>
      <stop offset="0.6196078431372549" stop-color="#8ab7d4"/>
      <stop offset="1.0" stop-color="#364db7"/>
    </radialGradient>
  </defs>
</svg>
