<?xml version="1.0" encoding="UTF-8" standalone="no"?>
<svg xmlns:ffdec="https://www.free-decompiler.com/flash" xmlns:xlink="http://www.w3.org/1999/xlink" ffdec:objectType="shape" height="24.15px" width="44.2px" xmlns="http://www.w3.org/2000/svg">
  <g transform="matrix(1.0, 0.0, 0.0, 1.0, -8.2, 0.1)">
    <path d="M40.75 20.85 L36.35 15.35 44.45 16.3 Q41.85 19.2 44.15 21.3 L40.75 20.85" fill="url(#gradient0)" fill-rule="evenodd" stroke="none"/>
    <path d="M40.75 20.85 L36.35 15.35 44.45 16.3 Q41.85 19.2 44.15 21.3 L40.75 20.85 Z" fill="none" stroke="#0e1017" stroke-linecap="round" stroke-linejoin="round" stroke-width="1.0"/>
    <path d="M46.8 19.25 L46.85 19.3 46.8 19.3 46.8 19.25" fill="#c9c7c7" fill-rule="evenodd" stroke="none"/>
    <path d="M47.4 14.7 L47.4 18.1 Q44.15 17.75 40.55 16.6 L38.15 15.8 35.8 13.05 47.4 14.7 M41.25 18.95 L41.95 18.9 Q42.35 18.95 42.8 19.45 L43.0 19.5 46.25 19.9 47.9 19.9 48.05 19.9 47.55 20.6 47.05 21.3 46.0 21.75 45.65 21.7 39.1 19.9 41.25 18.95 M47.9 19.9 L47.55 20.6 47.9 19.9 M51.15 16.15 Q51.9 18.95 50.25 20.4 L48.05 16.05 51.15 16.15" fill="#868b91" fill-rule="evenodd" stroke="none"/>
    <path d="M48.05 16.05 L51.15 16.15" fill="none" stroke="#27292a" stroke-linecap="round" stroke-linejoin="round" stroke-width="0.8"/>
    <path d="M47.4 14.7 L35.8 13.05 38.15 15.8 40.55 16.6 Q44.15 17.75 47.4 18.1 M42.8 19.45 L42.2 18.55 41.25 18.95 39.1 19.9 M47.55 20.6 L47.9 19.9 48.2 19.3 46.25 19.9 43.0 19.5 M51.15 16.15 Q51.9 18.95 50.25 20.4 L48.05 16.05" fill="none" stroke="#262a2c" stroke-linecap="round" stroke-linejoin="round" stroke-width="0.8"/>
    <path d="M14.1 2.95 Q12.95 2.2 11.65 1.6 8.45 0.1 13.35 0.45 L31.2 2.55 Q44.15 4.3 46.65 6.8 49.15 9.25 50.15 11.65 51.15 14.0 51.9 18.4 L51.4 18.35 46.3 15.65 Q46.9 15.6 47.4 14.7 43.6 5.6 34.75 9.2 L34.15 9.1 Q33.1 7.9 29.8 7.0 L24.7 6.1 Q23.85 5.9 20.35 4.3 16.95 2.55 14.1 2.95 M34.45 14.85 L33.9 14.45 33.45 13.8 34.45 14.85" fill="#323851" fill-rule="evenodd" stroke="none"/>
    <path d="M51.4 18.35 L48.45 18.1 42.05 17.2 41.2 15.45 Q40.75 14.8 39.2 14.55 38.0 16.8 39.0 19.1 35.45 17.15 34.45 14.85 L33.45 13.8 33.9 14.45 34.45 14.85 32.35 14.85 Q31.2 14.5 30.75 12.65 L31.55 11.15 31.55 10.1 Q28.35 8.95 26.25 9.35 L27.4 11.4 Q25.3 12.0 23.95 11.05 22.75 10.15 20.75 9.6 L17.6 9.45 Q12.1 10.0 8.7 7.7 L17.4 5.8 16.8 5.2 Q15.65 3.95 14.1 2.95 16.95 2.55 20.35 4.3 23.85 5.9 24.7 6.1 L29.8 7.0 Q33.1 7.9 34.15 9.1 L34.75 9.2 Q43.6 5.6 47.4 14.7 46.9 15.6 46.3 15.65 L51.4 18.35 M35.95 19.4 Q34.0 21.9 33.75 21.1 L29.4 19.15 Q28.8 18.65 29.35 15.8 31.65 17.25 33.35 17.9 35.0 18.5 35.95 19.4 M43.75 11.7 L42.75 11.2 42.1 11.0 42.05 11.0 39.4 10.65 Q39.75 11.9 40.95 12.95 L42.3 13.7 42.45 13.75 43.6 13.9 44.9 13.7 45.15 13.65 45.15 13.55 45.15 13.25 45.1 13.1 44.8 12.6 43.75 11.7 M34.45 14.85 L39.2 14.55 34.45 14.85 M17.4 5.8 Q18.95 7.4 20.4 8.0 22.05 8.65 26.25 9.35 22.05 8.65 20.4 8.0 18.95 7.4 17.4 5.8" fill="#242738" fill-rule="evenodd" stroke="none"/>
    <path d="M44.9 13.7 L43.6 13.9 42.45 13.75 42.3 13.7 40.95 12.95 Q39.75 11.9 39.4 10.65 L42.05 11.0 42.1 11.0 42.75 11.2 43.75 11.7 44.8 12.6 45.1 13.1 45.15 13.25 44.9 13.7 M43.75 11.7 L43.0 11.75 42.9 12.45 43.0 13.1 43.4 13.4 43.75 13.1 43.9 12.45 43.75 11.75 43.75 11.7" fill="url(#gradient1)" fill-rule="evenodd" stroke="none"/>
    <path d="M39.0 19.1 L40.95 20.2 Q42.75 21.2 45.5 21.25 L49.8 21.3 Q49.1 22.25 47.5 23.1 L43.55 23.35 37.8 21.85 Q37.0 20.45 35.95 19.4 35.0 18.5 33.35 17.9 31.65 17.25 29.35 15.8 L29.0 14.95 27.4 11.4 26.25 9.35 Q28.35 8.95 31.55 10.1 L31.55 11.15 30.75 12.65 Q31.2 14.5 32.35 14.85 L34.45 14.85 Q35.45 17.15 39.0 19.1" fill="#484a54" fill-rule="evenodd" stroke="none"/>
    <path d="M43.75 11.7 L43.75 11.75 43.9 12.45 43.75 13.1 43.4 13.4 43.0 13.1 42.9 12.45 43.0 11.75 43.75 11.7" fill="#7b8e93" fill-rule="evenodd" stroke="none"/>
    <path d="M35.95 19.4 Q34.0 21.9 33.75 21.1 L29.4 19.15 Q28.8 18.65 29.35 15.8" fill="none" stroke="#11141c" stroke-linecap="round" stroke-linejoin="round" stroke-width="1.0"/>
    <path d="M39.0 19.1 L40.95 20.2 Q42.75 21.2 45.5 21.25 L49.8 21.3 Q49.1 22.25 47.5 23.1 L43.55 23.35 37.8 21.85 Q37.0 20.45 35.95 19.4 35.0 18.5 33.35 17.9 31.65 17.25 29.35 15.8 L29.0 14.95 27.4 11.4 26.25 9.35 M34.45 14.85 Q35.45 17.15 39.0 19.1" fill="none" stroke="#1f232c" stroke-linecap="round" stroke-linejoin="round" stroke-width="1.0"/>
    <path d="M14.1 2.95 Q12.95 2.2 11.65 1.6 8.45 0.1 13.35 0.45 L31.2 2.55 Q44.15 4.3 46.65 6.8 49.15 9.25 50.15 11.65 51.15 14.0 51.9 18.4 L51.4 18.35 48.45 18.1 42.05 17.2 41.2 15.45 Q40.75 14.8 39.2 14.55 38.0 16.8 39.0 19.1 M27.4 11.4 Q25.3 12.0 23.95 11.05 22.75 10.15 20.75 9.6 L17.6 9.45 Q12.1 10.0 8.7 7.7 L17.4 5.8 16.8 5.2 Q15.65 3.95 14.1 2.95 M43.75 11.7 L42.75 11.2 42.1 11.0 42.05 11.0 39.4 10.65 Q39.75 11.9 40.95 12.95 L42.3 13.7 42.45 13.75 43.6 13.9 44.9 13.7 45.15 13.65 45.15 13.55 45.15 13.25 45.1 13.1 44.8 12.6 43.75 11.7 M34.45 14.85 L32.35 14.85 Q31.2 14.5 30.75 12.65 L31.55 11.15 31.55 10.1 Q28.35 8.95 26.25 9.35 22.05 8.65 20.4 8.0 18.95 7.4 17.4 5.8 M39.2 14.55 L34.45 14.85" fill="none" stroke="#0e1017" stroke-linecap="round" stroke-linejoin="round" stroke-width="1.0"/>
    <path d="M49.8 21.3 L45.6 21.2 Q43.0 21.15 41.05 20.2 39.05 19.25 37.3 17.95 M27.05 10.75 L29.0 14.95 29.35 15.8" fill="none" stroke="#1f232c" stroke-linecap="round" stroke-linejoin="round" stroke-width="1.0"/>
    <path d="M46.5 12.45 L46.2 12.55 45.7 12.25 45.25 11.65 45.2 11.15 Q45.25 10.95 45.5 11.05 45.75 11.15 46.05 11.4 L46.4 12.0 46.5 12.45 M33.85 9.45 L33.45 8.8 Q33.4 8.55 33.8 8.55 34.2 8.4 34.75 8.55 35.3 8.6 35.65 9.0 L36.1 9.5 35.75 9.9 34.85 9.9 33.85 9.45 M40.15 8.5 L39.9 8.75 39.3 8.75 38.65 8.45 38.35 8.05 38.6 7.85 39.25 7.85 39.85 8.15 40.15 8.5 M36.4 11.65 L36.6 11.5 37.1 11.5 Q37.4 11.55 37.6 11.75 L37.85 12.0 37.65 12.25 37.15 12.25 36.65 12.0 36.4 11.65 M21.15 4.55 L21.0 4.75 20.6 4.75 20.15 4.5 19.95 4.2 Q19.95 4.1 20.1 4.1 L20.55 4.1 20.95 4.3 21.15 4.55 M24.4 5.95 L24.25 6.1 23.85 6.1 23.4 5.9 23.2 5.65 Q23.2 5.5 23.35 5.5 L23.8 5.5 24.2 5.7 24.4 5.95 M30.2 7.2 L29.95 7.45 29.35 7.45 28.7 7.15 28.45 6.75 Q28.4 6.55 28.65 6.55 L29.3 6.55 29.9 6.85 30.2 7.2" fill="#9da0b4" fill-rule="evenodd" stroke="none"/>
  </g>
  <defs>
    <radialGradient cx="0" cy="0" gradientTransform="matrix(0.0063, 0.0, 0.0, 0.0063, 44.5, 16.45)" gradientUnits="userSpaceOnUse" id="gradient0" r="819.2" spreadMethod="pad">
      <stop offset="0.0" stop-color="#323851"/>
      <stop offset="1.0" stop-color="#242738"/>
      <stop offset="1.0" stop-color="#2b3046"/>
    </radialGradient>
    <radialGradient cx="0" cy="0" gradientTransform="matrix(0.004, 0.0, 0.0, 0.004, 43.25, 12.35)" gradientUnits="userSpaceOnUse" id="gradient1" r="819.2" spreadMethod="pad">
      <stop offset="0.0" stop-color="#5e7277"/>
      <stop offset="1.0" stop-color="#303333"/>
    </radialGradient>
  </defs>
</svg>
