<?xml version="1.0" encoding="UTF-8" standalone="no"?>
<svg xmlns:ffdec="https://www.free-decompiler.com/flash" xmlns:xlink="http://www.w3.org/1999/xlink" ffdec:objectType="shape" height="20.1px" width="25.75px" xmlns="http://www.w3.org/2000/svg">
  <g transform="matrix(1.0, 0.0, 0.0, 1.0, 8.85, 16.7)">
    <path d="M8.1 -14.25 L15.7 -9.45 Q16.65 -5.85 16.1 -3.3 L14.95 0.45 12.35 -1.75 8.8 -1.9 7.65 -3.15 8.8 -7.15 7.2 -11.3 8.1 -14.25" fill="url(#gradient0)" fill-rule="evenodd" stroke="none"/>
    <path d="M-1.5 -3.85 L1.45 -3.65 6.15 -1.9 9.05 0.75 5.45 2.5 -0.15 0.25 -1.5 -3.85" fill="#171a1c" fill-rule="evenodd" stroke="none"/>
    <path d="M-1.5 -3.85 L-0.15 0.25 5.45 2.5 9.05 0.75 6.15 -1.9 1.45 -3.65 -1.5 -3.85 Z" fill="none" stroke="#101214" stroke-linecap="round" stroke-linejoin="round" stroke-width="1.1"/>
    <path d="M8.1 -14.25 L15.7 -9.45 Q16.6 -7.05 16.3 -4.4 16.0 -2.35 14.95 0.45" fill="none" stroke="#5d2d09" stroke-linecap="round" stroke-linejoin="round" stroke-width="1.1"/>
    <path d="M-8.3 -11.15 L-4.4 -11.9 3.6 -16.15 8.1 -14.25 7.2 -11.3 8.8 -7.15 7.65 -3.15 5.7 -1.45 1.15 -3.3 -1.9 -2.55 -8.15 -5.7 -8.3 -11.15" fill="url(#gradient1)" fill-rule="evenodd" stroke="none"/>
    <path d="M7.65 -3.15 L8.8 -1.9 12.15 -1.75 14.95 0.45 14.0 2.8 6.8 1.15 5.7 -1.45 7.65 -3.15" fill="#171a1c" fill-rule="evenodd" stroke="none"/>
    <path d="M14.95 0.45 L12.35 -1.75 8.8 -1.9 7.65 -3.15 8.8 -7.15 7.2 -11.3 8.1 -14.25 3.6 -16.15 -4.4 -11.9 -8.3 -11.15 -8.15 -5.7 -1.9 -2.55" fill="none" stroke="#101214" stroke-linecap="round" stroke-linejoin="round" stroke-width="1.1"/>
    <path d="M-0.35 -6.3 L-0.6 -9.6 7.2 -11.3" fill="none" stroke="#181c1e" stroke-linecap="round" stroke-linejoin="round" stroke-width="1.1"/>
    <path d="M14.95 0.45 L13.65 2.85 6.8 1.15" fill="none" stroke="#242424" stroke-linecap="round" stroke-linejoin="round" stroke-width="1.1"/>
    <path d="M11.45 -8.6 L12.15 -8.6" fill="none" stroke="#d06513" stroke-linecap="round" stroke-linejoin="round" stroke-width="1.1"/>
    <path d="M12.8 -6.45 L13.65 -6.45" fill="none" stroke="#d06513" stroke-linecap="round" stroke-linejoin="round" stroke-width="1.1"/>
    <path d="M11.7 -4.0 L12.55 -4.0" fill="none" stroke="#d06513" stroke-linecap="round" stroke-linejoin="round" stroke-width="1.1"/>
    <path d="M1.05 -3.3 L2.65 -5.0 5.8 -3.65 5.7 -1.45" fill="none" stroke="#181c1e" stroke-linecap="round" stroke-linejoin="round" stroke-width="1.1"/>
    <path d="M-6.45 -9.05 L-4.0 -9.4" fill="none" stroke="#181c1e" stroke-linecap="round" stroke-linejoin="round" stroke-width="1.1"/>
    <path d="M2.6 -8.4 L5.3 -9.35 7.3 -7.5 7.1 -5.55 5.35 -5.75 2.65 -6.6 2.6 -8.4" fill="#444444" fill-rule="evenodd" stroke="none"/>
    <path d="M2.6 -8.4 L2.65 -6.6 5.35 -5.75 7.1 -5.55 7.3 -7.5 5.3 -9.35 2.6 -8.4 Z" fill="none" stroke="#2c2c2c" stroke-linecap="round" stroke-linejoin="round" stroke-width="1.1"/>
    <path d="M-1.9 -2.55 L1.15 -3.3 5.7 -1.45 6.8 1.15" fill="none" stroke="#242424" stroke-linecap="round" stroke-linejoin="round" stroke-width="1.1"/>
    <path d="M4.25 -8.35 L4.9 -7.8" fill="none" stroke="#d06513" stroke-linecap="round" stroke-linejoin="round" stroke-width="1.1"/>
    <path d="M6.2 -6.25 Q7.9 -5.05 9.5 -4.0" fill="none" stroke="#1d1d1d" stroke-linecap="round" stroke-linejoin="round" stroke-width="1.1"/>
    <path d="M-3.6 -7.35 L-4.1 -6.9 Q-4.4 -6.5 -4.3 -6.15 L-3.75 -5.55 -2.9 -5.45 -2.5 -5.85 -2.4 -6.45 -2.8 -7.1 -3.6 -7.35 Z" fill="none" stroke="#181c1e" stroke-linecap="round" stroke-linejoin="round" stroke-width="1.0"/>
  </g>
  <defs>
    <linearGradient gradientTransform="matrix(0.0046, -2.0E-4, 2.0E-4, 0.0046, 12.55, -6.8)" gradientUnits="userSpaceOnUse" id="gradient0" spreadMethod="pad" x1="-819.2" x2="819.2">
      <stop offset="0.0" stop-color="#391b07"/>
      <stop offset="1.0" stop-color="#813d0d"/>
    </linearGradient>
    <linearGradient gradientTransform="matrix(0.0098, -1.0E-4, 1.0E-4, 0.0098, -0.25, -8.85)" gradientUnits="userSpaceOnUse" id="gradient1" spreadMethod="pad" x1="-819.2" x2="819.2">
      <stop offset="0.0" stop-color="#2e2e2e"/>
      <stop offset="1.0" stop-color="#1e2225"/>
    </linearGradient>
  </defs>
</svg>
