<?xml version="1.0" encoding="UTF-8" standalone="no"?>
<svg xmlns:ffdec="https://www.free-decompiler.com/flash" xmlns:xlink="http://www.w3.org/1999/xlink" ffdec:objectType="shape" height="19.4px" width="23.15px" xmlns="http://www.w3.org/2000/svg">
  <g transform="matrix(1.0, 0.0, 0.0, 1.0, 4.5, 17.2)">
    <path d="M6.8 -0.6 L6.6 0.25 1.45 -0.05 0.75 -3.95 4.0 -3.1 4.1 -1.75 Q5.05 -1.25 6.8 -0.6" fill="#343434" fill-rule="evenodd" stroke="none"/>
    <path d="M6.8 -0.6 L6.6 0.25 1.45 -0.05 0.75 -3.95 4.0 -3.1 4.1 -1.75 Q5.05 -1.25 6.8 -0.6 Z" fill="none" stroke="#1d1d1d" stroke-linecap="round" stroke-linejoin="round" stroke-width="1.05"/>
    <path d="M1.75 -11.55 L1.9 -11.25 Q3.8 -13.45 9.45 -12.0 L12.1 -11.25 12.3 -11.05 14.15 -8.6 Q14.9 -7.3 14.65 -6.85 14.8 -4.55 11.5 -4.9 L4.8 -5.6 Q1.45 -7.25 1.5 -9.85 L1.75 -11.55" fill="#7e7568" fill-rule="evenodd" stroke="none"/>
    <path d="M9.9 -9.05 L7.95 -9.5 M1.75 -11.55 L1.9 -11.25 Q3.8 -13.45 9.45 -12.0 L12.1 -11.25 12.3 -11.05 14.15 -8.6 Q14.9 -7.3 14.65 -6.85 14.8 -4.55 11.5 -4.9 L4.8 -5.6 Q1.45 -7.25 1.5 -9.85 L1.75 -11.55 Z" fill="none" stroke="#463730" stroke-linecap="round" stroke-linejoin="round" stroke-width="1.05"/>
    <path d="M7.95 -9.5 L9.9 -9.05" fill="none" stroke="#554b4b" stroke-linecap="round" stroke-linejoin="round" stroke-width="2.1"/>
    <path d="M6.7 -15.4 L9.65 -14.75 Q12.9 -13.7 14.25 -11.75 16.4 -8.7 16.25 -7.95 L14.35 -7.65 13.75 -6.9 13.35 -6.3 Q13.05 -6.05 12.7 -6.0 L12.0 -5.9 7.95 -6.0 6.7 -6.8 4.6 -6.85 3.4 -7.4 3.0 -9.2 3.35 -11.05 5.95 -14.8 6.7 -15.4" fill="url(#gradient0)" fill-rule="evenodd" stroke="none"/>
    <path d="M6.7 -15.4 L9.65 -14.75 Q12.9 -13.7 14.25 -11.75 16.4 -8.7 16.25 -7.95 L14.35 -7.65 13.75 -6.9 13.35 -6.3 Q13.05 -6.05 12.7 -6.0 L12.0 -5.9 7.95 -6.0 6.7 -6.8 4.6 -6.85 3.4 -7.4 3.0 -9.2 3.35 -11.05 5.95 -14.8 6.7 -15.4 Z" fill="none" stroke="#0a1842" stroke-linecap="round" stroke-linejoin="round" stroke-opacity="0.6156863" stroke-width="1.05"/>
    <path d="M4.8 -5.6 Q3.45 -5.6 4.0 -3.1 L1.75 -1.95 -2.3 -4.9 -3.4 -8.05 Q-3.85 -9.85 -3.35 -10.8 L-2.5 -13.8 1.15 -13.3 2.7 -10.55 2.4 -8.35 3.1 -7.2 Q3.55 -6.5 4.4 -6.35 L4.8 -5.6" fill="#545454" fill-rule="evenodd" stroke="none"/>
    <path d="M4.8 -5.6 Q3.45 -5.6 4.0 -3.1 L1.75 -1.95 -2.3 -4.9 -3.4 -8.05 Q-3.85 -9.85 -3.35 -10.8 L-2.5 -13.8 1.15 -13.3 2.7 -10.55 2.4 -8.35 3.1 -7.2 Q3.55 -6.5 4.4 -6.35 L4.8 -5.6 Z" fill="none" stroke="#3e3e3e" stroke-linecap="round" stroke-linejoin="round" stroke-width="1.05"/>
    <path d="M4.8 -5.6 L10.2 -5.45 13.6 -5.75 14.2 -6.65 Q14.5 -7.15 15.15 -7.05 L16.05 -4.55 Q17.7 -1.15 13.8 0.3 L13.35 0.4 6.8 -0.6 Q5.05 -1.25 4.1 -1.75 L4.0 -3.1 Q3.45 -5.6 4.8 -5.6" fill="#4a4a4a" fill-rule="evenodd" stroke="none"/>
    <path d="M4.8 -5.6 L10.2 -5.45 13.6 -5.75 14.2 -6.65 Q14.5 -7.15 15.15 -7.05 L16.05 -4.55 Q17.7 -1.15 13.8 0.3 L13.35 0.4 6.8 -0.6 Q5.05 -1.25 4.1 -1.75 L4.0 -3.1 Q3.45 -5.6 4.8 -5.6 Z" fill="none" stroke="#333333" stroke-linecap="round" stroke-linejoin="round" stroke-width="1.05"/>
    <path d="M14.7 -7.2 L16.2 -7.5 17.35 -5.85 Q17.55 -5.55 17.55 -4.5 L17.85 -3.3 18.15 -1.55 Q18.2 -0.6 17.65 0.5 L16.75 1.25 15.05 1.6 13.0 1.25 7.15 -0.3 6.55 -1.75 7.5 -2.65 10.1 -2.7 Q11.85 -2.95 12.35 -4.7 L13.8 -5.55 14.7 -7.2" fill="#53585a" fill-rule="evenodd" stroke="none"/>
    <path d="M14.7 -7.2 L13.8 -5.55 12.35 -4.7 Q11.85 -2.95 10.1 -2.7 L7.5 -2.65 6.55 -1.75 7.15 -0.3 13.0 1.25 15.05 1.6 16.75 1.25 17.65 0.5 Q18.2 -0.6 18.15 -1.55 L17.85 -3.3 17.55 -4.5 Q17.55 -5.55 17.35 -5.85 L16.2 -7.5 14.7 -7.2 Z" fill="none" stroke="#373737" stroke-linecap="round" stroke-linejoin="round" stroke-width="1.05"/>
    <path d="M2.05 -8.7 L1.55 -9.85 Q0.1 -10.75 -1.4 -10.9 -2.9 -11.0 -3.65 -10.25 L-3.7 -10.3 Q-3.4 -14.65 0.35 -16.05 2.65 -16.9 6.25 -16.6 6.75 -16.6 4.4 -13.4 L2.75 -10.9 Q2.15 -9.75 2.05 -8.7 L2.2 -8.4 2.05 -8.2 2.05 -8.7 M1.9 -8.05 L1.65 -7.85 Q1.25 -7.4 0.65 -7.4 L0.25 -7.25 Q-0.85 -6.8 -1.45 -5.55 -1.95 -4.65 -2.45 -4.8 -3.45 -5.35 -3.85 -7.5 -4.25 -9.6 -3.7 -10.3 L-3.7 -10.2 -3.65 -10.25 -1.35 -9.25 Q0.25 -8.6 0.4 -7.45 L0.65 -7.4 1.9 -8.05" fill="#6d6d6d" fill-rule="evenodd" stroke="none"/>
    <path d="M2.05 -8.7 Q2.15 -9.75 2.75 -10.9 L4.4 -13.4 Q6.75 -16.6 6.25 -16.6 2.65 -16.9 0.35 -16.05 -3.4 -14.65 -3.7 -10.3 L-3.65 -10.25 Q-2.9 -11.0 -1.4 -10.9 0.1 -10.75 1.55 -9.85 L2.05 -8.7 2.2 -8.4 2.05 -8.2 2.05 -8.15 1.9 -8.05 1.65 -7.85 Q1.25 -7.4 0.65 -7.4 L0.25 -7.25 Q-0.85 -6.8 -1.45 -5.55 -1.95 -4.65 -2.45 -4.8 -3.45 -5.35 -3.85 -7.5 -4.25 -9.6 -3.7 -10.3 L-3.7 -10.2 -3.65 -10.25 -1.35 -9.25 Q0.25 -8.6 0.4 -7.45 L0.65 -7.4 1.9 -8.05 2.05 -8.2 2.05 -8.7 Z" fill="none" stroke="#404040" stroke-linecap="round" stroke-linejoin="round" stroke-width="1.05"/>
    <path d="M8.7 -1.75 Q7.85 -0.45 6.85 -0.3 L5.25 -0.45 Q4.1 -0.7 3.6 -1.15 3.2 -1.5 2.95 -2.25 2.7 -3.0 2.85 -3.6 3.4 -5.55 4.65 -6.1 L6.9 -6.0 Q8.2 -5.45 8.8 -4.2 9.45 -2.85 8.7 -1.75" fill="#4a4a4a" fill-rule="evenodd" stroke="none"/>
    <path d="M8.7 -1.75 Q7.85 -0.45 6.85 -0.3 L5.25 -0.45 Q4.1 -0.7 3.6 -1.15 3.2 -1.5 2.95 -2.25 2.7 -3.0 2.85 -3.6 3.4 -5.55 4.65 -6.1 L6.9 -6.0 Q8.2 -5.45 8.8 -4.2 9.45 -2.85 8.7 -1.75 Z" fill="none" stroke="#353535" stroke-linecap="round" stroke-linejoin="round" stroke-width="1.05"/>
    <path d="M13.35 -2.9 L12.4 -1.7 M15.0 -2.15 L14.25 -1.2 M16.65 -1.5 L15.6 -0.25 M3.6 -6.1 L1.45 -5.75 Q0.05 -5.45 -1.0 -4.25" fill="none" stroke="#353535" stroke-linecap="round" stroke-linejoin="round" stroke-opacity="0.76862746" stroke-width="1.05"/>
    <path d="M12.2 1.15 L15.15 1.7 17.8 0.85 18.15 -1.6 17.55 -5.5 16.25 -7.55 M3.2 -1.6 Q1.35 -2.05 -0.15 -3.05 L-2.65 -4.8 -3.35 -6.9 Q-3.9 -8.45 -3.45 -9.8 -3.8 -13.3 -1.8 -14.7 0.4 -16.4 4.55 -16.65" fill="none" stroke="#2c2c2c" stroke-linecap="round" stroke-linejoin="round" stroke-width="1.05"/>
  </g>
  <defs>
    <radialGradient cx="0" cy="0" gradientTransform="matrix(0.0142, -2.0E-4, 2.0E-4, 0.0099, 4.85, -7.1)" gradientUnits="userSpaceOnUse" id="gradient0" r="819.2" spreadMethod="pad">
      <stop offset="0.0" stop-color="#000647" stop-opacity="0.62352943"/>
      <stop offset="0.7647058823529411" stop-color="#005d8a" stop-opacity="0.56078434"/>
      <stop offset="0.8745098039215686" stop-color="#4ee3ff" stop-opacity="0.6156863"/>
      <stop offset="1.0" stop-color="#00ddf1" stop-opacity="0.5058824"/>
    </radialGradient>
  </defs>
</svg>
