<?xml version="1.0" encoding="UTF-8" standalone="no"?>
<svg xmlns:ffdec="https://www.free-decompiler.com/flash" xmlns:xlink="http://www.w3.org/1999/xlink" ffdec:objectType="shape" height="22.3px" width="21.2px" xmlns="http://www.w3.org/2000/svg">
  <g transform="matrix(1.0, 0.0, 0.0, 1.0, 8.35, 19.25)">
    <path d="M2.6 -0.3 L2.4 1.05 -2.25 0.55 -2.25 -1.6 Q-2.9 -1.95 -3.3 -2.75 -3.8 -3.8 -3.95 -5.85 -4.1 -8.05 -3.7 -9.75 -3.2 -11.8 -1.9 -12.75 0.45 -14.55 3.0 -14.4 5.4 -14.35 7.2 -12.65 8.3 -11.6 8.55 -9.85 L9.05 -6.95 9.8 -5.95 Q10.35 -5.3 10.2 -5.0 L9.6 -4.4 Q9.2 -4.15 9.15 -3.8 L8.8 -1.5 Q8.6 -0.1 7.95 0.15 L6.7 0.25 5.95 0.25 2.6 -0.3 Q0.95 -0.6 0.25 -2.1 0.95 -0.6 2.6 -0.3" fill="#b98a77" fill-rule="evenodd" stroke="none"/>
    <path d="M2.6 -0.3 L5.95 0.25 6.7 0.25 7.95 0.15 Q8.6 -0.1 8.8 -1.5 L9.15 -3.8 Q9.2 -4.15 9.6 -4.4 L10.2 -5.0 Q10.35 -5.3 9.8 -5.95 L9.05 -6.95 8.55 -9.85 Q8.3 -11.6 7.2 -12.65 5.4 -14.35 3.0 -14.4 0.45 -14.55 -1.9 -12.75 -3.2 -11.8 -3.7 -9.75 -4.1 -8.05 -3.95 -5.85 -3.8 -3.8 -3.3 -2.75 -2.9 -1.95 -2.25 -1.6 L-2.25 0.55 2.4 1.05 2.6 -0.3" fill="none" stroke="#7a5647" stroke-linecap="round" stroke-linejoin="round" stroke-width="1.05"/>
    <path d="M2.6 -0.3 Q0.95 -0.6 0.25 -2.1" fill="none" stroke="#7a5647" stroke-linecap="round" stroke-linejoin="round" stroke-opacity="0.5019608" stroke-width="1.05"/>
    <path d="M8.65 -10.9 L9.95 -8.6 Q11.6 -5.05 10.15 -3.2 10.2 -4.95 8.5 -7.75 L6.85 -10.25 8.0 -11.8 8.65 -10.9" fill="#352b20" fill-rule="evenodd" stroke="none"/>
    <path d="M6.85 -10.25 L8.5 -7.75 Q10.2 -4.95 10.15 -3.2 11.6 -5.05 9.95 -8.6 L8.65 -10.9 8.0 -11.8" fill="none" stroke="#19140f" stroke-linecap="round" stroke-linejoin="round" stroke-opacity="0.7019608" stroke-width="1.05"/>
    <path d="M8.95 -2.8 L7.4 -2.75 8.9 -2.35 8.95 -2.8 Z" fill="none" stroke="#7d3e35" stroke-linecap="round" stroke-linejoin="round" stroke-width="1.05"/>
    <path d="M-1.5 -6.35 Q-1.7 -5.0 -1.2 -4.05 -0.7 -3.15 -0.3 -3.65" fill="none" stroke="#976551" stroke-linecap="round" stroke-linejoin="miter-clip" stroke-miterlimit="4.0" stroke-width="1.05"/>
    <path d="M6.4 -8.85 L4.3 -8.9" ffdec:has-small-stroke="true" ffdec:original-stroke-width="0.5" fill="none" stroke="#82584c" stroke-linecap="round" stroke-linejoin="miter-clip" stroke-miterlimit="4.0" stroke-width="1.0"/>
    <path d="M6.85 -6.9 L6.1 -7.3 5.25 -6.95" ffdec:has-small-stroke="true" ffdec:original-stroke-width="0.5" fill="none" stroke="#744e44" stroke-linecap="round" stroke-linejoin="round" stroke-width="1.0"/>
    <path d="M-7.35 -4.25 L-5.95 -6.6 Q-4.8 -8.6 -4.8 -9.8 L-4.55 -6.2 Q-5.25 -4.15 -4.8 -2.75 L-4.45 -1.85 Q-4.3 -1.4 -4.45 -1.05 L-5.45 0.9 Q-6.35 2.1 -7.85 2.55 L-7.3 0.1 Q-7.1 -0.65 -7.45 -2.1 -7.75 -3.4 -7.35 -4.25" fill="#352b20" fill-rule="evenodd" stroke="none"/>
    <path d="M-7.35 -4.25 Q-7.75 -3.4 -7.45 -2.1 -7.1 -0.65 -7.3 0.1 L-7.85 2.55 Q-6.35 2.1 -5.45 0.9 L-4.45 -1.05 Q-4.3 -1.4 -4.45 -1.85 L-4.8 -2.75 Q-5.25 -4.15 -4.55 -6.2 L-4.8 -9.8 Q-4.8 -8.6 -5.95 -6.6 L-7.35 -4.25 Z" fill="none" stroke="#19140f" stroke-linecap="round" stroke-linejoin="round" stroke-opacity="0.5019608" stroke-width="1.05"/>
    <path d="M5.2 -15.55 L6.8 -14.85 Q9.4 -13.65 9.35 -9.95 9.6 -9.3 10.45 -8.85 L12.3 -7.75 10.45 -7.65 Q8.35 -8.0 7.25 -9.95 6.3 -10.0 4.95 -10.75 L3.8 -11.5 Q2.85 -10.35 2.8 -8.75 L2.65 -6.75 1.7 -8.65 Q1.2 -7.5 1.8 -4.3 2.35 -1.35 1.55 -0.4 1.15 -2.45 0.45 -3.6 0.0 -4.3 -0.3 -5.6 L-0.5 -6.8 -0.8 -7.15 -1.75 -7.35 Q-2.9 -7.0 -2.55 -4.95 -2.3 -3.0 -1.4 -2.5 L-3.65 -2.55 Q-4.2 -2.7 -5.05 -4.8 -6.0 -6.95 -5.65 -7.4 -5.4 -7.75 -5.3 -10.4 -5.2 -12.95 -4.55 -13.6 L-3.3 -14.95 -1.55 -15.9 Q-0.45 -16.1 1.3 -15.9 L3.75 -15.7 5.2 -15.55" fill="#423425" fill-rule="evenodd" stroke="none"/>
    <path d="M5.2 -15.55 L3.75 -15.7 1.3 -15.9 Q-0.45 -16.1 -1.55 -15.9 L-3.3 -14.95 -4.55 -13.6 Q-5.2 -12.95 -5.3 -10.4 -5.4 -7.75 -5.65 -7.4 -6.0 -6.95 -5.05 -4.8 -4.2 -2.7 -3.65 -2.55 L-1.4 -2.5 Q-2.3 -3.0 -2.55 -4.95 -2.9 -7.0 -1.75 -7.35 L-0.8 -7.15 -0.5 -6.8 -0.3 -5.6 Q0.0 -4.3 0.45 -3.6 1.15 -2.45 1.55 -0.4 2.35 -1.35 1.8 -4.3 1.2 -7.5 1.7 -8.65 L2.65 -6.75 2.8 -8.75 Q2.85 -10.35 3.8 -11.5 L4.95 -10.75 Q6.3 -10.0 7.25 -9.95 8.35 -8.0 10.45 -7.65 L12.3 -7.75 10.45 -8.85 Q9.6 -9.3 9.35 -9.95 9.4 -13.65 6.8 -14.85 L5.2 -15.55 Z" fill="none" stroke="#201912" stroke-linecap="round" stroke-linejoin="round" stroke-opacity="0.5019608" stroke-width="1.05"/>
    <path d="M4.4 -13.8 L5.75 -13.45 Q7.25 -12.8 8.2 -11.25" fill="none" stroke="#30271b" stroke-linecap="round" stroke-linejoin="round" stroke-width="1.05"/>
    <path d="M-0.95 -8.55 Q-0.9 -9.9 0.15 -11.1 L1.15 -12.05" fill="none" stroke="#30271b" stroke-linecap="round" stroke-linejoin="round" stroke-width="1.05"/>
    <path d="M-4.7 -10.6 L-3.8 -12.8 Q-2.55 -15.05 -0.75 -15.4" fill="none" stroke="#30271b" stroke-linecap="round" stroke-linejoin="round" stroke-width="1.05"/>
    <path d="M-3.65 -6.15 L-3.55 -7.1 Q-3.55 -8.15 -4.1 -8.55" fill="none" stroke="#372c1f" stroke-linecap="round" stroke-linejoin="round" stroke-width="1.05"/>
    <path d="M5.15 -8.0 L5.1 -6.65 -0.3 -7.1 -5.9 -6.75 -5.85 -7.7 0.65 -7.95 5.15 -8.0" fill="#10141b" fill-rule="evenodd" stroke="none"/>
    <path d="M5.15 -8.0 L0.65 -7.95 -5.85 -7.7 -5.9 -6.75 -0.3 -7.1 5.1 -6.65 5.15 -8.0 Z" fill="none" stroke="#10141b" stroke-linecap="round" stroke-linejoin="round" stroke-width="1.05"/>
    <path d="M7.95 -8.9 Q7.1 -7.4 8.1 -5.75 L5.0 -6.6 Q4.55 -6.7 4.6 -7.35 4.7 -7.95 5.3 -8.15 L7.95 -8.9" fill="#2d323d" fill-rule="evenodd" stroke="none"/>
    <path d="M7.95 -8.9 L5.3 -8.15 Q4.7 -7.95 4.6 -7.35 4.55 -6.7 5.0 -6.6 L8.1 -5.75 Q7.1 -7.4 7.95 -8.9 Z" fill="none" stroke="#1a1e24" stroke-linecap="round" stroke-linejoin="round" stroke-width="1.05"/>
    <path d="M7.95 -8.85 Q8.95 -8.8 9.05 -7.35 9.15 -5.95 8.25 -5.7 7.45 -5.85 7.4 -7.25 7.3 -8.65 7.95 -8.85" fill="#34312e" fill-rule="evenodd" stroke="none"/>
    <path d="M7.95 -8.85 Q8.95 -8.8 9.05 -7.35 9.15 -5.95 8.25 -5.7 7.45 -5.85 7.4 -7.25 7.3 -8.65 7.95 -8.85 Z" fill="none" stroke="#070a0e" stroke-linecap="round" stroke-linejoin="round" stroke-width="1.05"/>
    <path d="M2.2 -10.25 L0.5 -7.95 -2.25 -7.15 -5.15 -7.15 -5.15 -8.4 -1.35 -8.75 0.05 -10.5 2.2 -10.25" fill="#5c5c5c" fill-rule="evenodd" stroke="none"/>
    <path d="M2.2 -10.25 L0.5 -7.95 -2.25 -7.15 -5.15 -7.15 -5.15 -8.4 -1.35 -8.75 0.05 -10.5" fill="none" stroke="#313131" stroke-linecap="round" stroke-linejoin="round" stroke-width="1.05"/>
    <path d="M9.4 -14.05 Q9.9 -13.35 10.05 -11.45 L10.1 -9.75 1.65 -10.2 -2.95 -9.75 -5.45 -9.05 -6.8 -9.85 -6.35 -12.2 Q-5.6 -14.8 -4.25 -16.0 -1.3 -18.7 3.45 -17.95 5.2 -17.65 6.8 -16.6 8.4 -15.55 9.4 -14.05" fill="#858530" fill-rule="evenodd" stroke="none"/>
    <path d="M8.4 -9.8 L12.35 -9.7" fill="none" stroke="#4a4a1b" stroke-linecap="round" stroke-linejoin="round" stroke-width="1.05"/>
    <path d="M-4.45 -9.7 L-4.6 -11.35 -2.0 -11.65 -1.85 -10.0 -4.45 -9.7" fill="#9e9e39" fill-rule="evenodd" stroke="none"/>
    <path d="M-4.45 -9.7 L-4.6 -11.35 -2.0 -11.65 -1.85 -10.0" fill="none" stroke="#56561f" stroke-linecap="round" stroke-linejoin="round" stroke-width="1.05"/>
    <path d="M0.55 -10.3 L0.65 -11.95 3.3 -11.8 3.2 -10.15 0.55 -10.3" fill="#9e9e39" fill-rule="evenodd" stroke="none"/>
    <path d="M0.55 -10.3 L0.65 -11.95 3.3 -11.8 3.2 -10.15" fill="none" stroke="#56561f" stroke-linecap="round" stroke-linejoin="round" stroke-width="1.05"/>
    <path d="M5.8 -9.9 L5.9 -11.6 8.5 -11.45 8.4 -9.8 5.8 -9.9" fill="#9e9e39" fill-rule="evenodd" stroke="none"/>
    <path d="M5.8 -9.9 L5.9 -11.6 8.5 -11.45 8.4 -9.8" fill="none" stroke="#56561f" stroke-linecap="round" stroke-linejoin="round" stroke-width="1.05"/>
    <path d="M9.4 -14.05 Q8.4 -15.55 6.8 -16.6 5.2 -17.65 3.45 -17.95 -1.5 -18.75 -4.4 -16.1 -5.7 -14.9 -6.4 -12.25 L-6.8 -9.85 -5.45 -9.05 -2.95 -9.75 1.65 -10.2 10.1 -9.75 10.05 -11.45 Q9.9 -13.35 9.4 -14.05 Z" fill="none" stroke="#4a4a1b" stroke-linecap="round" stroke-linejoin="round" stroke-width="1.05"/>
    <path d="M-5.75 -14.0 L-4.75 -15.6 Q-3.25 -17.4 -0.45 -18.45 L2.0 -18.75 Q3.6 -18.65 4.35 -18.1 L5.1 -17.5 1.25 -17.25 Q-0.1 -17.15 -3.05 -15.55 L-5.75 -14.0" fill="#858530" fill-rule="evenodd" stroke="none"/>
    <path d="M-5.75 -14.0 L-4.75 -15.6 Q-3.25 -17.4 -0.45 -18.45 L2.0 -18.75 Q3.6 -18.65 4.35 -18.1 L5.1 -17.5 1.25 -17.25 Q-0.1 -17.15 -3.05 -15.55 L-5.75 -14.0 Z" fill="none" stroke="#4a4a1b" stroke-linecap="round" stroke-linejoin="round" stroke-width="1.05"/>
  </g>
</svg>
