<?xml version="1.0" encoding="UTF-8" standalone="no"?>
<svg xmlns:ffdec="https://www.free-decompiler.com/flash" xmlns:xlink="http://www.w3.org/1999/xlink" ffdec:objectType="shape" height="17.2px" width="103.55px" xmlns="http://www.w3.org/2000/svg">
  <g transform="matrix(1.0, 0.0, 0.0, 1.0, 14.35, 9.45)">
    <path d="M-8.9 -1.9 Q-2.0 -1.15 0.1 1.85 L-1.0 5.9 -3.85 7.25 -10.95 4.4 -8.9 -1.9 M-7.9 3.45 L-7.35 1.3 -7.9 3.45 M-5.1 3.95 L-4.75 1.45 -5.1 3.95 M-2.5 3.45 L-2.35 1.8 -2.5 3.45" fill="#333333" fill-rule="evenodd" stroke="none"/>
    <path d="M20.1 -6.5 L19.75 -3.95 17.4 -2.95 15.9 -4.55 9.5 -4.7 8.0 -7.2 17.85 -7.2 20.1 -6.5 M4.7 1.85 L8.0 1.5 17.85 1.5 18.35 1.45 21.0 1.45 22.25 2.95 26.65 2.8 27.0 1.45 29.0 1.45 29.0 4.55 19.25 5.0 17.85 3.25 11.4 3.45 8.0 5.0 5.35 4.55 Q6.25 3.65 4.7 1.85" fill="#808080" fill-rule="evenodd" stroke="none"/>
    <path d="M19.25 5.0 Q13.9 8.2 8.0 5.0 L11.4 3.45 17.85 3.25 19.25 5.0" fill="#cccccc" fill-rule="evenodd" stroke="none"/>
    <path d="M8.0 -7.2 L9.5 -4.7 15.9 -4.55 17.4 -2.95 19.75 -3.95 20.1 -6.5 Q23.2 -5.4 24.6 -3.9 19.1 -3.15 18.35 1.45 L17.85 1.5 8.0 1.5 4.7 1.85 2.65 1.85 0.1 1.85 Q-2.0 -1.15 -8.9 -1.9 L-13.85 -2.4 -13.65 -2.75 Q-12.4 -4.85 -10.9 -5.9 L-8.45 -5.9 -10.9 -5.9 -10.1 -7.45 -8.35 -7.3 -8.45 -5.9 -6.85 -5.85 -5.25 -5.75 -4.15 -5.75 1.2 -4.45 3.65 -7.05 4.5 -8.0 8.0 -7.2 M4.0 -0.2 L4.0 -1.8 4.0 -0.2 M16.5 -0.45 L15.15 -0.45 16.5 -0.45 M6.0 0.2 L6.15 -2.05 6.0 0.2 M-5.75 -4.35 L-9.1 -4.35 -5.75 -4.35" fill="#b3b3b3" fill-rule="evenodd" stroke="none"/>
    <path d="M3.65 -7.05 L1.2 -4.45 -4.15 -5.75 -5.25 -5.75 -6.85 -5.85 -6.1 -8.95 -2.1 -8.95 -1.6 -7.3 3.65 -7.05" fill="#6a6a6a" fill-rule="evenodd" stroke="none"/>
    <path d="M20.1 -6.5 L19.75 -3.95 17.4 -2.95 15.9 -4.55 9.5 -4.7 8.0 -7.2 4.5 -8.0 3.65 -7.05 1.2 -4.45 -4.15 -5.75 -5.25 -5.75 -6.85 -5.85 -8.45 -5.9 -8.35 -7.3 -10.1 -7.45 -10.9 -5.9 Q-12.4 -4.85 -13.65 -2.75 L-13.85 -2.4 -8.9 -1.9 Q-2.0 -1.15 0.1 1.85 L2.65 1.85 4.7 1.85 8.0 1.5 17.85 1.5 18.35 1.45 Q19.1 -3.15 24.6 -3.9 23.2 -5.4 20.1 -6.5 L17.85 -7.2 8.0 -7.2 M4.0 -1.8 L4.0 -0.2 M18.35 1.45 L21.0 1.45 22.25 2.95 26.65 2.8 27.0 1.45 29.0 1.45 M29.0 4.55 L19.25 5.0 Q13.9 8.2 8.0 5.0 L5.35 4.55 Q1.8 6.75 -1.0 5.9 M19.25 5.0 L17.85 3.25 11.4 3.45 8.0 5.0 M5.35 4.55 Q6.25 3.65 4.7 1.85 M2.65 1.85 Q1.45 2.9 1.8 3.8 M6.15 -2.05 L6.0 0.2 M-6.85 -5.85 L-6.1 -8.95 -2.1 -8.95 -1.6 -7.3 3.65 -7.05 M-9.1 -4.35 L-5.75 -4.35" fill="none" stroke="#595959" stroke-linecap="round" stroke-linejoin="round" stroke-width="1.0"/>
    <path d="M29.0 1.45 L29.0 4.55" fill="none" stroke="#ff0000" stroke-linecap="round" stroke-linejoin="round" stroke-width="1.0"/>
    <path d="M-8.45 -5.9 L-10.9 -5.9" fill="none" stroke="#7b7b7b" stroke-linecap="round" stroke-linejoin="round" stroke-width="1.0"/>
    <path d="M15.15 -0.45 L16.5 -0.45 M-1.0 5.9 L-3.85 7.25 -10.95 4.4 -8.9 -1.9 M-2.35 1.8 L-2.5 3.45 M-4.75 1.45 L-5.1 3.95 M-7.35 1.3 L-7.9 3.45 M0.1 1.85 L-1.0 5.9" fill="none" stroke="#222222" stroke-linecap="round" stroke-linejoin="round" stroke-width="1.0"/>
    <path d="M29.7 2.95 L88.7 2.95" fill="none" stroke="url(#gradient0)" stroke-linecap="round" stroke-linejoin="round" stroke-width="1.0"/>
  </g>
  <defs>
    <linearGradient gradientTransform="matrix(0.0556, 0.0, 0.0, 0.0095, 44.2, -4.35)" gradientUnits="userSpaceOnUse" id="gradient0" spreadMethod="pad" x1="-819.2" x2="819.2">
      <stop offset="0.0" stop-color="#ff0000" stop-opacity="0.5019608"/>
      <stop offset="1.0" stop-color="#ff0000" stop-opacity="0.101960786"/>
    </linearGradient>
  </defs>
</svg>
