<?xml version="1.0" encoding="UTF-8" standalone="no"?>
<svg xmlns:ffdec="https://www.free-decompiler.com/flash" xmlns:xlink="http://www.w3.org/1999/xlink" ffdec:objectType="shape" height="16.55px" width="14.4px" xmlns="http://www.w3.org/2000/svg">
  <g transform="matrix(1.0, 0.0, 0.0, 1.0, 8.4, 17.75)">
    <path d="M5.5 -2.9 L4.8 -1.7" fill="none" stroke="#c2beff" stroke-linecap="round" stroke-linejoin="round" stroke-width="1.0"/>
    <path d="M3.1 -3.65 L2.4 -2.5" fill="none" stroke="#c2beff" stroke-linecap="round" stroke-linejoin="round" stroke-width="1.0"/>
    <path d="M-5.5 -8.8 L-3.55 -9.2 -3.8 -8.8 -3.8 -8.75 -2.15 -9.35 -2.1 -4.8 -3.0 -4.95 -7.0 -5.75 -7.75 -6.9 -7.35 -8.25 -5.5 -8.8" fill="url(#gradient0)" fill-rule="evenodd" stroke="none"/>
    <path d="M-5.35 -7.8 L-5.3 -7.8 -4.75 -7.6 -3.8 -8.75 -5.0 -8.35 -5.35 -7.8 -6.05 -8.25 -5.25 -7.65 -5.25 -7.75 -5.3 -7.8 M-3.8 -8.75 L-3.8 -8.8 -3.55 -9.2 -5.5 -8.8 -7.35 -8.25 -7.75 -6.9 -7.0 -5.75 -3.0 -4.95 -2.1 -4.8 -2.15 -9.35 -3.8 -8.75 M-4.85 -7.5 L-5.1 -7.55 -5.25 -7.65 -6.4 -5.65 -4.85 -7.5 -4.75 -7.6 -2.15 -6.85 -4.85 -7.5 Z" fill="none" stroke="#080815" stroke-linecap="round" stroke-linejoin="round" stroke-opacity="0.6117647" stroke-width="1.0"/>
    <path d="M-2.0 -17.25 L-1.6 -17.1 Q-1.0 -16.85 -0.55 -16.45 L1.1 -14.75 -1.15 -13.9 -3.7 -16.4 -2.0 -17.25" fill="url(#gradient1)" fill-rule="evenodd" stroke="none"/>
    <path d="M-2.0 -17.25 L-3.7 -16.4 -1.15 -13.9 1.1 -14.75 -0.55 -16.45 Q-1.0 -16.85 -1.6 -17.1 L-2.0 -17.25 Z" fill="none" stroke="#0c041c" stroke-linecap="round" stroke-linejoin="round" stroke-opacity="0.68235296" stroke-width="1.0"/>
    <path d="M1.25 -14.45 Q1.3 -13.25 0.85 -12.35 0.5 -11.8 0.45 -10.9 L0.35 -10.1 -2.8 -9.55 -1.05 -13.85 1.25 -14.45" fill="url(#gradient2)" fill-rule="evenodd" stroke="none"/>
    <path d="M1.25 -14.45 L-1.05 -13.85 -2.8 -9.55 0.35 -10.1 0.45 -10.9 Q0.5 -11.8 0.85 -12.35 1.3 -13.25 1.25 -14.45 Z" fill="none" stroke="#0c041c" stroke-linecap="round" stroke-linejoin="round" stroke-opacity="0.68235296" stroke-width="1.0"/>
    <path d="M-4.1 -16.2 L-1.2 -13.8 -2.0 -12.3 -3.8 -13.8 -5.15 -15.0 -4.1 -16.2" fill="#925fff" fill-opacity="0.8627451" fill-rule="evenodd" stroke="none"/>
    <path d="M-4.1 -16.2 L-5.15 -15.0 -3.8 -13.8 -2.0 -12.3 -1.2 -13.8 -4.1 -16.2 Z" fill="none" stroke="#0c041c" stroke-linecap="round" stroke-linejoin="round" stroke-opacity="0.68235296" stroke-width="1.0"/>
    <path d="M-4.1 -9.05 L-4.65 -9.0 Q-7.05 -8.65 -7.7 -7.7 -8.1 -7.25 -7.65 -6.6 -7.3 -6.05 -6.55 -5.65 -5.55 -5.15 -2.25 -4.95 -2.0 -4.95 -2.0 -5.6 -2.0 -6.35 -1.65 -6.45 L2.3 -7.25 2.2 -8.3 1.6 -9.0 -2.05 -8.05 -6.5 -5.9 -4.1 -9.05 -2.8 -9.1" fill="none" stroke="#080815" stroke-linecap="round" stroke-linejoin="round" stroke-opacity="0.4627451" stroke-width="1.0"/>
  </g>
  <defs>
    <radialGradient cx="0" cy="0" gradientTransform="matrix(0.0038, 0.0, 0.0, 0.0034, -4.75, -7.05)" gradientUnits="userSpaceOnUse" id="gradient0" r="819.2" spreadMethod="pad">
      <stop offset="0.0" stop-color="#8d56ff"/>
      <stop offset="1.0" stop-color="#8d56ff" stop-opacity="0.0"/>
    </radialGradient>
    <radialGradient cx="0" cy="0" gradientTransform="matrix(0.0036, 0.0, 0.0, 0.0027, -1.3, -15.6)" gradientUnits="userSpaceOnUse" id="gradient1" r="819.2" spreadMethod="pad">
      <stop offset="0.0" stop-color="#da7ede"/>
      <stop offset="1.0" stop-color="#925fff" stop-opacity="0.9372549"/>
    </radialGradient>
    <radialGradient cx="0" cy="0" gradientTransform="matrix(0.0031, 0.0, 0.0, 0.0036, -0.35, -13.4)" gradientUnits="userSpaceOnUse" id="gradient2" r="819.2" spreadMethod="pad">
      <stop offset="0.0" stop-color="#cf77e5"/>
      <stop offset="1.0" stop-color="#443a9d"/>
    </radialGradient>
  </defs>
</svg>
