<?xml version="1.0" encoding="UTF-8" standalone="no"?>
<svg xmlns:ffdec="https://www.free-decompiler.com/flash" xmlns:xlink="http://www.w3.org/1999/xlink" ffdec:objectType="shape" height="18.45px" width="16.7px" xmlns="http://www.w3.org/2000/svg">
  <g transform="matrix(1.0, 0.0, 0.0, 1.0, 5.95, 17.0)">
    <path d="M-2.75 -3.3 Q-4.05 -4.55 -4.95 -7.2 -5.85 -9.85 -5.05 -11.7 -4.35 -13.55 -3.25 -14.35 -2.2 -15.2 -1.4 -15.45 L0.2 -16.0 4.65 -16.5 Q8.35 -16.65 9.6 -13.9 8.3 -12.75 8.3 -12.0 L3.45 -12.15 Q1.8 -11.55 1.15 -10.25 L1.75 -8.9 Q1.55 -8.15 2.1 -6.15 L0.75 -6.75 0.2 -7.65 Q-0.45 -8.55 -1.25 -8.35 -2.25 -8.15 -2.05 -6.0 L-1.7 -3.9 -2.75 -3.3" fill="#000000" fill-rule="evenodd" stroke="none"/>
    <path d="M-2.75 -3.3 L-1.7 -3.9 -2.05 -6.0 Q-2.25 -8.15 -1.25 -8.35 -0.45 -8.55 0.2 -7.65 L0.75 -6.75 2.1 -6.15 Q1.55 -8.15 1.75 -8.9 L1.15 -10.25 Q1.8 -11.55 3.45 -12.15 L8.3 -12.0 Q9.0 -11.05 9.0 -9.3 8.95 -7.55 9.6 -6.6 L10.25 -5.35 Q10.25 -5.0 9.8 -4.75 L8.85 -4.65 8.7 -4.0 8.55 -2.15 Q8.5 -0.55 7.15 -0.55 L3.4 -0.6 3.25 0.95 -2.5 0.25 -2.35 -2.05 -2.75 -3.3 M1.45 -2.15 Q2.0 -0.95 3.3 -0.65 L3.4 -0.6 3.3 -0.65 Q2.0 -0.95 1.45 -2.15 M4.95 -9.45 L7.0 -9.2 4.95 -9.45" fill="#955d45" fill-rule="evenodd" stroke="none"/>
    <path d="M8.3 -12.0 Q8.3 -12.75 9.6 -13.9 8.35 -16.65 4.65 -16.5 L0.2 -16.0 -1.4 -15.45 Q-2.2 -15.2 -3.25 -14.35 -4.35 -13.55 -5.05 -11.7 -5.85 -9.85 -4.95 -7.2 -4.05 -4.55 -2.75 -3.3 L-1.7 -3.9 -2.05 -6.0 Q-2.25 -8.15 -1.25 -8.35 -0.45 -8.55 0.2 -7.65 L0.75 -6.75 2.1 -6.15 Q1.55 -8.15 1.75 -8.9 L1.15 -10.25 Q1.8 -11.55 3.45 -12.15 L8.3 -12.0" fill="none" stroke="#000000" stroke-linecap="round" stroke-linejoin="round" stroke-opacity="0.5019608" stroke-width="1.05"/>
    <path d="M8.3 -12.0 Q9.0 -11.05 9.0 -9.3 8.95 -7.55 9.6 -6.6 L10.25 -5.35 Q10.25 -5.0 9.8 -4.75 L8.85 -4.65 8.7 -4.0 8.55 -2.15 Q8.5 -0.55 7.15 -0.55 L3.4 -0.6 3.25 0.95 -2.5 0.25 -2.35 -2.05 -2.75 -3.3" fill="none" stroke="#5c3827" stroke-linecap="round" stroke-linejoin="round" stroke-width="1.05"/>
    <path d="M3.4 -0.6 L3.3 -0.65 Q2.0 -0.95 1.45 -2.15" fill="none" stroke="#5c3827" stroke-linecap="round" stroke-linejoin="round" stroke-opacity="0.5019608" stroke-width="1.05"/>
    <path d="M7.0 -9.2 L4.95 -9.45" ffdec:has-small-stroke="true" ffdec:original-stroke-width="0.5" fill="none" stroke="#644035" stroke-linecap="round" stroke-linejoin="miter-clip" stroke-miterlimit="4.0" stroke-width="1.0"/>
    <path d="M8.7 -2.9 L7.05 -3.1" fill="none" stroke="#703b2c" stroke-linecap="round" stroke-linejoin="miter-clip" stroke-miterlimit="4.0" stroke-width="1.05"/>
    <path d="M-1.15 -7.6 Q-1.45 -6.4 -1.0 -5.4 -0.65 -4.65 -0.15 -4.4" fill="none" stroke="#714530" stroke-linecap="round" stroke-linejoin="miter-clip" stroke-miterlimit="4.0" stroke-width="1.05"/>
    <path d="M5.8 -7.15 Q4.95 -7.2 5.25 -7.8 5.5 -8.45 6.1 -8.3 L7.05 -7.95 7.4 -7.5 Q7.4 -7.3 6.75 -7.2 L5.8 -7.15" fill="#c3aea1" fill-rule="evenodd" stroke="none"/>
    <path d="M6.15 -7.05 L6.25 -8.15 6.9 -8.15 Q7.45 -8.1 7.4 -7.55 7.35 -7.0 6.8 -7.05 L6.15 -7.05" fill="#000000" fill-rule="evenodd" stroke="none"/>
    <path d="M5.0 -7.85 Q5.15 -7.2 6.1 -6.95 7.1 -6.95 7.4 -7.5" ffdec:has-small-stroke="true" ffdec:original-stroke-width="0.5" fill="none" stroke="#7c4c35" stroke-linecap="round" stroke-linejoin="round" stroke-width="1.0"/>
    <path d="M7.4 -7.5 Q6.95 -8.25 6.4 -8.3 L5.5 -8.1 5.0 -7.85" ffdec:has-small-stroke="true" ffdec:original-stroke-width="0.5" fill="none" stroke="#7c4c35" stroke-linecap="round" stroke-linejoin="round" stroke-width="1.0"/>
    <path d="M2.9 -15.25 L3.8 -15.0 5.45 -14.15 5.75 -13.85 M-0.3 -13.05 Q0.0 -11.7 -0.75 -10.3 L-1.6 -9.15 M0.4 -14.95 L-0.8 -14.65 Q-2.05 -14.2 -2.55 -13.7 L-3.55 -11.9 -3.85 -10.95" fill="none" stroke="#1b1b28" stroke-linecap="round" stroke-linejoin="round" stroke-opacity="0.5019608" stroke-width="1.05"/>
    <path d="M-3.25 -4.95 L-3.35 -6.2 Q-3.55 -7.55 -4.05 -8.05" fill="none" stroke="#0d0d14" stroke-linecap="round" stroke-linejoin="round" stroke-opacity="0.5019608" stroke-width="1.05"/>
  </g>
</svg>
