<?xml version="1.0" encoding="UTF-8" standalone="no"?>
<svg xmlns:ffdec="https://www.free-decompiler.com/flash" xmlns:xlink="http://www.w3.org/1999/xlink" ffdec:objectType="shape" height="15.6px" width="70.2px" xmlns="http://www.w3.org/2000/svg">
  <g transform="matrix(1.0, 0.0, 0.0, 1.0, 31.4, 9.45)">
    <path d="M32.4 -3.1 L26.0 -3.1 26.0 -6.25 32.4 -6.25 32.4 -3.1 38.8 -3.1 38.8 3.0 32.4 3.0 32.4 6.15 26.0 6.15 26.0 3.0 32.4 3.0 32.4 -3.1 M-25.0 -0.2 L-31.4 -0.2 -31.4 -6.3 -25.0 -6.3 -25.0 -0.2 -18.6 -0.2 -18.6 2.95 -25.0 2.95 -25.0 -0.2 M-25.0 -6.3 L-25.0 -9.45 -18.6 -9.45 -18.6 -6.3 -25.0 -6.3" fill="#ffff00" fill-rule="evenodd" stroke="none"/>
    <path d="M26.0 -3.1 L32.4 -3.1 32.4 3.0 26.0 3.0 26.0 -3.1 M-25.0 -0.2 L-25.0 -6.3 -18.6 -6.3 -18.6 -0.2 -25.0 -0.2" fill="#ff0000" fill-rule="evenodd" stroke="none"/>
  </g>
</svg>
