<?xml version="1.0" encoding="UTF-8" standalone="no"?>
<svg xmlns:xlink="http://www.w3.org/1999/xlink" height="400.0px" width="800.0px" xmlns="http://www.w3.org/2000/svg">
  <g transform="matrix(1.0, 0.0, 0.0, 1.0, 0.0, 0.0)">
    <path d="M800.0 400.0 L0.0 400.0 0.0 0.0 800.0 0.0 800.0 400.0" fill="#000000" fill-opacity="0.6" fill-rule="evenodd" stroke="none"/>
    <path d="M702.0 369.05 L97.0 369.05 97.0 28.0 702.0 28.0 702.0 369.05" fill="#000000" fill-opacity="0.8" fill-rule="evenodd" stroke="none"/>
    <path d="M686.25 61.95 L418.7 61.95 315.9 61.95 315.9 43.95 686.25 43.95 686.25 61.95 M686.25 230.0 L418.7 230.0 416.75 230.0 335.9 230.0 315.9 230.0 315.9 212.0 335.9 212.0 416.75 212.0 686.25 212.0 686.25 230.0 M686.25 258.0 L418.7 258.0 416.75 258.0 335.9 258.0 315.9 258.0 315.9 240.0 335.9 240.0 416.75 240.0 686.25 240.0 686.25 258.0 M686.25 202.0 L418.7 202.0 416.75 202.0 335.9 202.0 315.9 202.0 315.9 184.0 335.9 184.0 416.75 184.0 686.25 184.0 686.25 202.0 M632.85 174.0 L315.85 174.0 315.85 156.0 632.85 156.0 632.85 174.0" fill="#333333" fill-rule="evenodd" stroke="none"/>
  </g>
</svg>
