<?xml version="1.0" encoding="UTF-8" standalone="no"?>
<svg xmlns:ffdec="https://www.free-decompiler.com/flash" xmlns:xlink="http://www.w3.org/1999/xlink" ffdec:objectType="shape" height="16.9px" width="44.6px" xmlns="http://www.w3.org/2000/svg">
  <g transform="matrix(1.0, 0.0, 0.0, 1.0, -8.9, 8.6)">
    <path d="M13.85 -7.4 L27.05 -7.0 41.9 -5.25 Q53.5 -3.1 53.5 -0.05 53.5 2.95 41.9 5.15 L27.05 6.9 13.85 7.3 12.05 7.3 11.7 7.3 11.7 -7.4 12.05 -7.4 13.85 -7.4" fill="url(#gradient0)" fill-rule="evenodd" stroke="none"/>
    <path d="M11.8 8.3 L11.6 8.3 Q10.45 8.3 9.7 5.85 8.9 3.35 8.9 -0.15 8.9 -3.6 9.7 -6.1 10.45 -8.6 11.6 -8.6 L11.8 -8.55 11.8 8.3" fill="url(#gradient1)" fill-rule="evenodd" stroke="none"/>
    <path d="M11.8 -8.55 L12.0 -8.6 Q13.1 -8.6 13.9 -6.1 14.7 -3.6 14.7 -0.15 14.7 3.35 13.9 5.85 13.1 8.3 12.0 8.3 L11.8 8.3 11.8 -8.55" fill="url(#gradient2)" fill-rule="evenodd" stroke="none"/>
  </g>
  <defs>
    <radialGradient cx="0" cy="0" gradientTransform="matrix(0.0, 0.008, -0.0484, 0.0, 13.8, -0.05)" gradientUnits="userSpaceOnUse" id="gradient0" r="819.2" spreadMethod="pad">
      <stop offset="0.0" stop-color="#ffffff"/>
      <stop offset="0.5372549019607843" stop-color="#fea3a3" stop-opacity="0.0"/>
      <stop offset="1.0" stop-color="#000a5e" stop-opacity="0.0"/>
    </radialGradient>
    <radialGradient cx="0" cy="0" gradientTransform="matrix(0.0, 0.0092, 0.0033, 0.0, 11.6, -0.15)" gradientUnits="userSpaceOnUse" id="gradient1" r="819.2" spreadMethod="pad">
      <stop offset="0.17647058823529413" stop-color="#ffffff"/>
      <stop offset="1.0" stop-color="#fe6767" stop-opacity="0.0"/>
    </radialGradient>
    <radialGradient cx="0" cy="0" gradientTransform="matrix(0.0, 0.0092, -0.0033, 0.0, 11.95, -0.15)" gradientUnits="userSpaceOnUse" id="gradient2" r="819.2" spreadMethod="pad">
      <stop offset="0.17647058823529413" stop-color="#ffffff"/>
      <stop offset="1.0" stop-color="#fe6767" stop-opacity="0.0"/>
    </radialGradient>
  </defs>
</svg>
