<?xml version="1.0" encoding="UTF-8" standalone="no"?>
<svg xmlns:ffdec="https://www.free-decompiler.com/flash" xmlns:xlink="http://www.w3.org/1999/xlink" ffdec:objectType="shape" height="19.6px" width="20.1px" xmlns="http://www.w3.org/2000/svg">
  <g transform="matrix(1.0, 0.0, 0.0, 1.0, 9.25, 17.25)">
    <path d="M-1.15 0.5 L-3.05 0.2 -3.15 -1.75 2.05 -1.45 2.05 0.6 -1.15 0.5" fill="#16110d" fill-rule="evenodd" stroke="none"/>
    <path d="M-1.15 0.5 L-3.05 0.2 -3.15 -1.75 2.05 -1.45 2.05 0.6 -1.15 0.5 Z" fill="none" stroke="#020202" stroke-linecap="butt" stroke-linejoin="round" stroke-width="1.0"/>
    <path d="M1.05 -1.55 L-3.5 -1.9 Q-5.0 -4.15 -5.85 -6.35 L2.5 -2.6 2.85 -1.25 1.05 -1.55" fill="#161b15" fill-rule="evenodd" stroke="none"/>
    <path d="M-6.3 -8.35 L-5.6 -6.7 -4.55 -5.6 -1.15 -2.75 Q-0.8 -1.05 -1.3 -1.25 L-4.8 -3.35 Q-5.75 -4.15 -6.2 -7.2 L-6.3 -8.35 -6.7 -9.2 -6.45 -9.45 -6.7 -11.35 -5.15 -10.95 -6.45 -9.45 -6.3 -8.35" fill="#84848c" fill-rule="evenodd" stroke="none"/>
    <path d="M-6.7 -11.35 L-6.95 -8.3 Q-6.6 -4.8 -3.7 -2.6" fill="none" stroke="#404044" stroke-linecap="round" stroke-linejoin="round" stroke-width="1.0"/>
    <path d="M-1.05 -4.5 L-5.85 -6.35 -6.0 -8.35 Q-5.9 -10.55 -4.85 -11.5 L-2.75 -13.15 -0.6 -13.8 3.95 -13.6 5.85 -11.95 3.55 -11.45 Q1.0 -10.7 -0.05 -9.3 -1.1 -7.85 -1.2 -6.05 L-1.05 -4.5" fill="#14181b" fill-rule="evenodd" stroke="none"/>
    <path d="M-1.05 -4.5 L-5.85 -6.35 -6.0 -8.35 Q-5.9 -10.55 -4.85 -11.5 L-2.75 -13.15 -0.6 -13.8 3.95 -13.6 5.85 -11.95 3.55 -11.45 Q1.0 -10.7 -0.05 -9.3 -1.1 -7.85 -1.2 -6.05 L-1.05 -4.5 1.15 -2.9 2.5 -2.6 2.85 -1.25 -3.5 -1.9" fill="none" stroke="#050607" stroke-linecap="round" stroke-linejoin="round" stroke-width="1.0"/>
    <path d="M4.05 -9.0 L5.25 -8.7 7.05 -8.55 7.7 -8.55 8.05 -8.45 8.05 -8.15 8.35 -7.9 9.0 -7.7 9.15 -6.0 9.15 -3.7 9.0 -0.95 Q8.75 -0.5 8.2 -0.65 L7.5 -0.9 Q7.3 -0.85 6.8 -2.2 L6.05 -3.6 Q5.6 -3.7 2.4 -5.25 1.05 -5.7 0.65 -6.05 0.5 -6.2 0.6 -7.45 L0.5 -8.8 Q-0.2 -9.2 -0.2 -9.5 L-0.15 -9.9 0.8 -9.9 2.6 -9.6 4.05 -9.0" fill="url(#gradient0)" fill-rule="evenodd" stroke="none"/>
    <path d="M0.6 -7.8 L0.85 -6.4 1.65 -5.85 2.75 -4.9 Q3.45 -3.9 5.85 -3.3 6.15 -3.0 7.0 -2.35 7.9 -1.7 8.15 -1.65 L9.4 -1.85 9.8 -0.6 9.55 0.55 8.2 0.5 5.75 -0.05 Q5.25 -0.2 4.6 -0.8 L3.8 -1.35 Q3.4 -1.4 2.65 -2.05 L2.1 -2.65 Q1.85 -3.0 1.4 -3.05 L-1.1 -3.5 -1.8 -4.95 -2.2 -5.95 -2.2 -8.8 -2.2 -9.2 -2.1 -9.45 -0.15 -9.9 -0.25 -9.6 Q-0.25 -9.25 0.15 -9.05 0.5 -8.9 0.6 -7.8" fill="url(#gradient1)" fill-rule="evenodd" stroke="none"/>
    <path d="M-2.1 -9.45 L-0.85 -8.55 -0.3 -7.3 -1.0 -6.1 -2.05 -6.1 -2.8 -6.95 -3.5 -8.6 -4.4 -9.55 Q-4.95 -9.95 -6.35 -10.25 L-8.4 -10.4 -8.15 -11.5 -7.6 -11.1 -4.45 -10.75 Q-3.65 -10.6 -2.1 -9.45" fill="#746e69" fill-rule="evenodd" stroke="none"/>
    <path d="M-2.6 -6.05 L-1.9 -5.1 Q-1.4 -4.25 -1.2 -2.75 L-2.0 -2.15 -3.2 -2.25 -4.8 -2.7 -5.85 -3.5 -8.1 -4.75 -8.4 -6.25 Q-8.35 -5.45 -8.8 -6.6 L-9.15 -8.2 -8.5 -9.25 -7.9 -9.9 -7.8 -9.9 Q-7.5 -9.65 -7.35 -9.75 L-7.05 -10.0 -5.6 -9.55 -3.95 -8.5 Q-3.35 -8.05 -2.95 -6.45 L-2.6 -6.05" fill="#746e69" fill-rule="evenodd" stroke="none"/>
    <path d="M-0.85 -12.9 L-0.6 -12.8 0.25 -12.15 Q1.05 -11.45 1.4 -10.45 L-1.5 -10.0 -2.2 -10.45 -4.6 -11.45 -7.85 -11.35 -7.75 -12.2 -7.4 -12.9 -6.8 -13.8 -5.2 -14.6 -4.8 -14.2 Q-4.6 -14.0 -3.65 -13.7 L-0.85 -12.9" fill="#746e69" fill-rule="evenodd" stroke="none"/>
    <path d="M-2.15 -9.25 L-4.0 -10.1 -5.75 -10.5 -7.2 -10.7 -8.0 -11.4 -3.35 -12.85 -2.25 -12.6 0.25 -11.65 Q1.45 -11.0 2.6 -10.4 L3.05 -9.95 1.05 -10.0 0.25 -9.45 -0.35 -9.0 -1.6 -9.05 -2.15 -9.25" fill="#776e63" fill-rule="evenodd" stroke="none"/>
    <path d="M4.4 -11.8 L7.05 -11.55 Q9.25 -11.25 9.25 -11.0 L9.9 -9.85 10.1 -8.75 10.05 -8.35 9.7 -7.95 8.65 -7.95 8.0 -8.1 Q5.2 -8.7 4.4 -9.15 L2.45 -9.9 1.05 -10.25 Q0.6 -11.4 -0.65 -12.0 L-1.9 -12.5 -2.3 -12.6 -2.0 -12.85 -1.05 -13.25 2.2 -12.7 3.25 -12.25 4.4 -11.8" fill="url(#gradient2)" fill-rule="evenodd" stroke="none"/>
    <path d="M-1.9 -13.55 L-4.1 -14.25 -4.25 -14.65 -4.25 -15.0 -3.15 -15.35 -1.65 -15.6 -0.2 -15.1 1.4 -14.95 Q1.8 -15.05 3.75 -14.35 4.2 -14.3 5.7 -13.3 L7.25 -12.3 9.6 -11.2 7.55 -11.5 3.35 -12.6 Q1.55 -13.4 0.9 -13.4 L-0.95 -13.65 -1.9 -13.55" fill="url(#gradient3)" fill-rule="evenodd" stroke="none"/>
    <path d="M3.2 -16.0 Q5.55 -15.1 6.7 -14.15 8.15 -12.95 7.9 -12.25 L6.8 -12.95 Q5.15 -14.35 3.55 -14.75 L-0.75 -15.75 -2.3 -15.85 -3.95 -15.55 -4.55 -14.9 -4.5 -14.55 -4.75 -14.95 Q-4.8 -15.3 -3.7 -15.9 L-0.6 -16.7 Q0.65 -16.95 3.2 -16.0" fill="url(#gradient4)" fill-rule="evenodd" stroke="none"/>
    <path d="M2.1 -2.15 L4.6 -0.65 7.4 0.55 9.35 0.7 8.9 1.3 7.1 1.35 Q0.55 -1.55 -0.3 -1.75 L-1.85 -2.25 -1.1 -3.5 0.55 -3.0 1.5 -2.7 2.1 -2.15" fill="#222222" fill-rule="evenodd" stroke="none"/>
    <path d="M4.65 -1.1 L5.15 -0.85 6.7 0.45 2.75 -1.5 3.55 -1.6 4.3 -1.2 4.65 -1.1" fill="#161616" fill-rule="evenodd" stroke="none"/>
    <path d="M8.2 -13.0 Q7.05 -15.15 3.7 -16.2 -0.4 -17.5 -3.8 -15.05" fill="none" stroke="#14181b" stroke-linecap="round" stroke-linejoin="round" stroke-width="1.0"/>
    <path d="M8.2 -13.0 L9.25 -11.9 9.6 -11.2 10.0 -10.5 10.35 -9.35 10.1 -7.8 9.1 -7.9 M9.6 -11.2 L8.65 -11.25" fill="none" stroke="#494643" stroke-linecap="round" stroke-linejoin="round" stroke-width="1.0"/>
    <path d="M8.25 -12.1 Q5.15 -13.8 3.75 -14.3 L0.3 -15.25 -2.7 -15.45 Q-3.55 -15.4 -4.1 -15.0 L-4.5 -14.55 -4.9 -14.9" fill="none" stroke="#45423f" stroke-linecap="round" stroke-linejoin="round" stroke-width="1.0"/>
    <path d="M8.6 -11.45 L5.1 -11.9 3.1 -12.55 Q1.55 -13.25 0.6 -13.35 L-0.85 -13.45 -1.5 -13.35 Q-4.05 -14.1 -4.5 -14.55" fill="none" stroke="#45423f" stroke-linecap="round" stroke-linejoin="round" stroke-width="1.0"/>
    <path d="M-4.0 -15.35 L-5.95 -14.2 Q-6.65 -13.6 -7.1 -12.25 L-8.15 -11.5" fill="none" stroke="#45423f" stroke-linecap="round" stroke-linejoin="round" stroke-width="1.0"/>
    <path d="M0.7 -10.6 L-0.4 -11.6 -2.5 -12.75 -3.2 -12.45 -5.6 -11.85 -7.05 -11.85 M-2.5 -12.75 L-1.45 -13.2" fill="none" stroke="#45423f" stroke-linecap="round" stroke-linejoin="round" stroke-width="1.0"/>
    <path d="M1.3 -10.1 L3.35 -9.55 5.4 -8.95 6.6 -8.1 9.65 -7.95" fill="none" stroke="#554d4d" stroke-linecap="round" stroke-linejoin="round" stroke-width="1.0"/>
    <path d="M-8.15 -11.5 L-8.4 -10.4 -7.05 -10.2 -5.2 -9.75 -3.8 -8.6 -2.8 -6.95 -2.05 -6.1 -1.0 -6.1 0.1 -7.7 0.55 -8.7 0.75 -10.45" fill="none" stroke="#45423f" stroke-linecap="round" stroke-linejoin="round" stroke-width="1.0"/>
    <path d="M-4.7 -9.7 L-3.4 -10.4 Q-1.85 -11.1 -0.4 -11.15 L1.05 -10.25" fill="none" stroke="#45423f" stroke-linecap="round" stroke-linejoin="round" stroke-opacity="0.49019608" stroke-width="1.0"/>
    <path d="M-8.4 -10.4 L-8.75 -9.25 -8.75 -8.45 -8.1 -5.05 -7.6 -4.65 -6.35 -3.9 -4.8 -2.7 -3.2 -2.25 -1.85 -2.25" fill="none" stroke="#45423f" stroke-linecap="round" stroke-linejoin="round" stroke-width="1.0"/>
    <path d="M-2.8 -6.95 Q-1.7 -5.8 -1.35 -4.5 -0.95 -3.05 -1.85 -2.25" fill="none" stroke="#3d3f41" stroke-linecap="round" stroke-linejoin="round" stroke-width="1.0"/>
    <path d="M-1.5 -8.35 L-1.95 -9.15" fill="none" stroke="#68c0bc" stroke-linecap="round" stroke-linejoin="round" stroke-width="1.0"/>
    <path d="M-1.1 -3.5 L1.3 -3.2 2.2 -1.85 6.2 0.2 7.45 0.35" fill="none" stroke="#45423f" stroke-linecap="round" stroke-linejoin="round" stroke-width="1.0"/>
    <path d="M-1.85 -2.25 L6.85 1.7 7.5 1.85 8.55 1.7 9.4 1.0" fill="none" stroke="#161616" stroke-linecap="round" stroke-linejoin="round" stroke-width="1.0"/>
    <path d="M0.5 -10.15 L0.2 -8.95 0.7 -6.15 2.85 -4.55 6.15 -3.0 6.85 -1.55 9.5 -1.25" fill="none" stroke="#554d4d" stroke-linecap="round" stroke-linejoin="round" stroke-width="1.0"/>
    <path d="M9.65 -1.3 Q10.05 -0.5 9.35 0.7 L7.4 0.55" fill="none" stroke="#37373c" stroke-linecap="round" stroke-linejoin="round" stroke-width="1.0"/>
    <path d="M9.0 -8.0 Q8.75 -8.1 9.2 -5.55 L9.05 -1.8" fill="none" stroke="#575757" stroke-linecap="round" stroke-linejoin="round" stroke-opacity="0.63529414" stroke-width="1.0"/>
    <path d="M-8.45 -7.4 L-7.5 -7.05 Q-6.45 -6.5 -6.05 -5.4 -5.4 -3.7 -5.65 -3.2" fill="none" stroke="#45423f" stroke-linecap="butt" stroke-linejoin="miter-clip" stroke-miterlimit="15.12109375" stroke-opacity="0.5176471" stroke-width="1.0"/>
    <path d="M9.2 0.9 L9.7 -0.95 Q9.75 -1.4 9.3 -1.5 L8.9 -1.55 9.0 -7.9 9.95 -7.85 10.35 -8.35 10.3 -9.75 7.95 -13.2 5.7 -15.1 4.1 -16.15 2.2 -16.65 Q-0.1 -17.0 -1.85 -16.15 L-5.75 -14.3 -6.15 -13.9 -6.85 -12.8 -7.25 -11.65 Q-7.7 -11.75 -8.25 -10.8 L-8.6 -8.5 -8.55 -6.6 -7.9 -5.05 -5.85 -3.55" fill="none" stroke="#000000" stroke-linecap="round" stroke-linejoin="round" stroke-opacity="0.2" stroke-width="1.0"/>
    <path d="M4.65 -8.65 L2.55 -9.15 1.35 -9.55 1.1 -9.45 0.85 -9.15 1.2 -6.6 3.25 -4.85 6.25 -3.65 7.15 -1.85 9.0 -1.8 8.65 -7.3 6.4 -7.65 Q5.95 -8.5 4.65 -8.65 Z" fill="none" stroke="#000000" stroke-linecap="butt" stroke-linejoin="miter-clip" stroke-miterlimit="15.12109375" stroke-opacity="0.21960784" stroke-width="1.0"/>
  </g>
  <defs>
    <linearGradient gradientTransform="matrix(0.0049, 5.0E-4, -5.0E-4, 0.0045, 6.05, -5.3)" gradientUnits="userSpaceOnUse" id="gradient0" spreadMethod="pad" x1="-819.2" x2="819.2">
      <stop offset="0.0" stop-color="#2c2c2c"/>
      <stop offset="0.5803921568627451" stop-color="#818181"/>
      <stop offset="0.7450980392156863" stop-color="#f1f1f1"/>
      <stop offset="0.8313725490196079" stop-color="#fff1f3" stop-opacity="0.8117647"/>
      <stop offset="0.8941176470588236" stop-color="#ff9900" stop-opacity="0.49803922"/>
      <stop offset="1.0" stop-color="#ff9900" stop-opacity="0.49803922"/>
    </linearGradient>
    <linearGradient gradientTransform="matrix(-0.0045, 0.0026, -0.0024, -0.0042, 3.8, -4.0)" gradientUnits="userSpaceOnUse" id="gradient1" spreadMethod="pad" x1="-819.2" x2="819.2">
      <stop offset="0.0" stop-color="#938981"/>
      <stop offset="1.0" stop-color="#6d6863"/>
    </linearGradient>
    <linearGradient gradientTransform="matrix(0.0047, -5.0E-4, 5.0E-4, 0.0044, -0.65, -11.45)" gradientUnits="userSpaceOnUse" id="gradient2" spreadMethod="pad" x1="-819.2" x2="819.2">
      <stop offset="0.0" stop-color="#867364"/>
      <stop offset="1.0" stop-color="#8c8781"/>
    </linearGradient>
    <linearGradient gradientTransform="matrix(0.0085, 3.0E-4, -3.0E-4, 0.0079, 2.7, -13.45)" gradientUnits="userSpaceOnUse" id="gradient3" spreadMethod="pad" x1="-819.2" x2="819.2">
      <stop offset="0.0" stop-color="#1e1e24"/>
      <stop offset="1.0" stop-color="#3e3f4c"/>
    </linearGradient>
    <linearGradient gradientTransform="matrix(0.0077, 3.0E-4, -3.0E-4, 0.0071, 1.65, -14.6)" gradientUnits="userSpaceOnUse" id="gradient4" spreadMethod="pad" x1="-819.2" x2="819.2">
      <stop offset="0.0" stop-color="#353f49"/>
      <stop offset="1.0" stop-color="#1b2025"/>
    </linearGradient>
  </defs>
</svg>
