<?xml version="1.0" encoding="UTF-8" standalone="no"?>
<svg xmlns:ffdec="https://www.free-decompiler.com/flash" xmlns:xlink="http://www.w3.org/1999/xlink" ffdec:objectType="shape" height="20.85px" width="23.1px" xmlns="http://www.w3.org/2000/svg">
  <g transform="matrix(1.0, 0.0, 0.0, 1.0, 10.6, 18.75)">
    <path d="M0.7 -15.0 L-1.5 -13.3 -2.05 -12.7 -1.8 -12.95 -0.8 -10.1 Q-0.65 -9.55 -0.8 -8.8 L-1.0 -7.95 Q-1.05 -7.45 -1.5 -6.9 -1.7 -6.7 -3.05 -6.2 L-4.3 -5.35 -4.9 -4.2 -5.3 -2.95 -5.85 -2.6 -6.2 -2.75 M-2.05 -12.7 L-3.0 -11.75 -3.4 -11.45 Q-3.65 -11.3 -3.85 -11.3 L-5.35 -11.25 -5.75 -9.9 -6.0 -8.85 -6.05 -8.85 -6.65 -9.1 -7.5 -9.15 -7.65 -9.1 -8.75 -8.65 -9.4 -8.4 M-6.65 -9.1 L-7.0 -9.25 -7.5 -9.15 M-6.05 -8.85 L-6.5 -9.05 -6.65 -9.1 M-7.65 -9.1 L-8.3 -8.85 -8.75 -8.65 M-2.05 -12.7 L-2.6 -12.25 -3.4 -11.45 -3.7 -11.35 -5.4 -11.35 -5.75 -9.9 -6.05 -8.85" fill="none" stroke="#191313" stroke-linecap="round" stroke-linejoin="round" stroke-opacity="0.5137255" stroke-width="0.25"/>
    <path d="M9.0 -7.05 L9.9 -6.8 10.35 -5.75 10.8 -3.95 Q7.8 -2.75 9.05 0.5 8.15 1.5 3.8 -0.15 3.8 -2.0 4.45 -3.3 4.95 -4.45 6.25 -5.6 L9.0 -7.05" fill="url(#gradient0)" fill-rule="evenodd" stroke="none"/>
    <path d="M9.0 -7.05 L6.25 -5.6 Q4.95 -4.45 4.45 -3.3 3.8 -2.0 3.8 -0.15 8.15 1.5 9.05 0.5 7.8 -2.75 10.8 -3.95 L10.35 -5.75 9.9 -6.8 9.0 -7.05 Z" fill="none" stroke="#1a1717" stroke-linecap="round" stroke-linejoin="round" stroke-width="1.0"/>
    <path d="M3.35 -18.05 L4.05 -16.3 Q4.15 -15.15 3.25 -13.95 2.7 -13.35 2.15 -13.55 1.65 -13.7 1.45 -14.35 L2.4 -15.45 3.35 -18.05" fill="#493f3f" fill-rule="evenodd" stroke="none"/>
    <path d="M3.35 -18.05 L4.05 -16.3 Q4.15 -15.15 3.25 -13.95 2.7 -13.35 2.15 -13.55 1.65 -13.7 1.45 -14.35 L2.4 -15.45 3.35 -18.05 Z" fill="none" stroke="#1b1616" stroke-linecap="round" stroke-linejoin="round" stroke-width="1.0"/>
    <path d="M6.6 -17.9 L7.3 -16.15 Q7.4 -15.0 6.5 -13.8 5.95 -13.2 5.4 -13.4 4.9 -13.55 4.7 -14.2 L5.65 -15.3 6.6 -17.9" fill="#493f3f" fill-rule="evenodd" stroke="none"/>
    <path d="M6.6 -17.9 L7.3 -16.15 Q7.4 -15.0 6.5 -13.8 5.95 -13.2 5.4 -13.4 4.9 -13.55 4.7 -14.2 L5.65 -15.3 6.6 -17.9 Z" fill="none" stroke="#1b1616" stroke-linecap="round" stroke-linejoin="round" stroke-width="1.0"/>
    <path d="M6.8 -13.1 L5.15 -12.8 Q4.6 -12.9 4.4 -13.35 L4.3 -13.8 3.8 -13.85 Q3.1 -12.8 2.25 -12.95 1.75 -13.0 1.25 -13.35 L0.85 -13.7" fill="none" stroke="#1c1515" stroke-linecap="round" stroke-linejoin="round" stroke-opacity="0.40392157" stroke-width="1.0"/>
    <path d="M3.45 -1.7 L4.25 -2.9 4.6 -3.7 6.4 -2.35 7.45 -0.95 Q7.85 0.15 7.7 0.85 L3.95 0.05 4.0 -1.5 3.75 -0.95 3.45 -1.7 3.25 -1.7 2.85 -2.2 2.65 -2.5 2.3 -2.85 1.55 -3.3 1.4 -3.5 0.55 -4.4 0.2 -5.6 0.55 -4.5 1.4 -3.5 1.65 -3.35 2.35 -2.85 2.65 -2.5 3.45 -1.7 Z" fill="none" stroke="#1a1717" stroke-linecap="round" stroke-linejoin="round" stroke-opacity="0.5411765" stroke-width="1.0"/>
    <path d="M4.5 -2.0 L5.6 -1.3 6.3 -0.25 6.25 1.0 Q5.8 1.45 5.0 1.6 4.35 1.7 3.65 1.0 2.9 0.25 3.25 0.2 L3.3 -0.45 Q3.35 -1.15 3.55 -1.45 L4.15 -1.9 4.5 -2.0" fill="#262628" fill-rule="evenodd" stroke="none"/>
    <path d="M4.5 -2.0 L5.6 -1.3 6.3 -0.25 6.25 1.0 Q5.8 1.45 5.0 1.6 4.35 1.7 3.65 1.0 2.9 0.25 3.25 0.2 L3.3 -0.45 Q3.35 -1.15 3.55 -1.45 L4.15 -1.9 4.5 -2.0 Z" fill="none" stroke="#171414" stroke-linecap="butt" stroke-linejoin="miter-clip" stroke-miterlimit="15.12109375" stroke-width="1.0"/>
    <path d="M5.65 -9.6 L4.65 -9.75 5.95 -11.3 7.2 -11.55 9.85 -11.65 10.15 -11.1 10.45 -10.3 Q10.35 -9.7 9.05 -9.6 L5.65 -9.6" fill="#2d2222" fill-rule="evenodd" stroke="none"/>
    <path d="M5.65 -9.6 L9.05 -9.6 Q10.35 -9.7 10.45 -10.3 L10.15 -11.1 9.85 -11.65 7.2 -11.55 5.95 -11.3 4.65 -9.75 5.65 -9.6 Z" fill="none" stroke="#1c1515" stroke-linecap="round" stroke-linejoin="round" stroke-width="1.0"/>
    <path d="M4.15 -4.45 Q3.25 -4.5 2.2 -5.45 L0.65 -5.95 Q-0.5 -6.15 -1.1 -7.65 L-1.5 -9.15 -0.95 -10.9 -0.3 -10.8 1.0 -10.4 3.15 -9.45 5.45 -9.15 8.65 -9.15 8.95 -7.8 9.05 -7.5 6.45 -5.85 5.0 -4.25 4.15 -4.45" fill="url(#gradient1)" fill-rule="evenodd" stroke="none"/>
    <path d="M4.15 -4.45 Q3.25 -4.5 2.2 -5.45 L0.65 -5.95 Q-0.5 -6.15 -1.1 -7.65 L-1.5 -9.15 -0.95 -10.9 -0.3 -10.8 1.0 -10.4 3.15 -9.45 5.45 -9.15 8.65 -9.15 8.95 -7.8 9.05 -7.5 6.45 -5.85 5.0 -4.25 4.15 -4.45 Z" fill="none" stroke="#1a1717" stroke-linecap="butt" stroke-linejoin="miter-clip" stroke-miterlimit="15.12109375" stroke-opacity="0.6313726" stroke-width="1.0"/>
    <path d="M-0.6 -1.25 Q1.9 -0.75 2.35 -0.2 -1.1 2.1 -3.75 -1.5 L-0.6 -1.25" fill="#2d2525" fill-rule="evenodd" stroke="none"/>
    <path d="M-0.6 -1.25 Q1.9 -0.75 2.35 -0.2 -1.1 2.1 -3.75 -1.5 L-0.6 -1.25 Z" fill="none" stroke="#1a1717" stroke-linecap="round" stroke-linejoin="miter-clip" stroke-miterlimit="15.12109375" stroke-width="1.0"/>
    <path d="M-9.85 -8.8 L-10.1 -9.2 -9.95 -11.05 -8.6 -14.3 -7.85 -15.85 -3.6 -17.35 -3.0 -17.5 -1.1 -17.5 1.0 -17.3 3.0 -16.95 3.5 -18.25 3.8 -17.45 4.3 -16.65 5.75 -15.55 6.1 -16.3 6.6 -17.95 6.85 -17.6 7.2 -16.55 Q7.35 -15.65 7.05 -14.65 L7.7 -14.2 8.8 -13.1 9.65 -11.75 10.0 -11.65 Q10.55 -10.4 10.35 -10.2 10.05 -9.75 9.4 -9.65 L8.65 -9.55 9.05 -7.1 10.0 -6.8 10.8 -4.2 10.7 -3.9 10.2 -3.7 10.35 -3.3 10.35 -2.2 Q10.2 -1.3 9.55 -0.2 L9.1 0.35 Q9.1 0.8 8.5 0.85 L7.2 0.8 6.3 0.65 5.6 1.45 4.65 1.45 3.75 0.95 3.0 -0.3 1.95 -0.8" fill="none" stroke="#000000" stroke-linecap="round" stroke-linejoin="round" stroke-opacity="0.25490198" stroke-width="1.0"/>
    <path d="M-9.2 -7.0 L-9.45 -6.4 -9.6 -5.4 -9.45 -4.9 Q-9.15 -4.0 -8.6 -3.6 -8.25 -3.35 -6.8 -2.8" fill="none" stroke="#000000" stroke-linecap="round" stroke-linejoin="round" stroke-opacity="0.38039216" stroke-width="1.0"/>
  </g>
  <defs>
    <radialGradient cx="0" cy="0" gradientTransform="matrix(0.003, -3.0E-4, 0.0017, 0.0181, 7.6, -3.25)" gradientUnits="userSpaceOnUse" id="gradient0" r="819.2" spreadMethod="pad">
      <stop offset="0.0" stop-color="#251d1d"/>
      <stop offset="1.0" stop-color="#493f3f"/>
    </radialGradient>
    <radialGradient cx="0" cy="0" gradientTransform="matrix(0.007, -0.0012, 0.0024, 0.0136, 2.7, -7.7)" gradientUnits="userSpaceOnUse" id="gradient1" r="819.2" spreadMethod="pad">
      <stop offset="0.0" stop-color="#050217" stop-opacity="0.5019608"/>
      <stop offset="0.6588235294117647" stop-color="#c29a3d" stop-opacity="0.6901961"/>
      <stop offset="0.7490196078431373" stop-color="#feefcd" stop-opacity="0.8392157"/>
      <stop offset="0.8235294117647058" stop-color="#feefcd" stop-opacity="0.8"/>
      <stop offset="0.9254901960784314" stop-color="#e4a81b" stop-opacity="0.5686275"/>
      <stop offset="1.0" stop-color="#e3d31c" stop-opacity="0.6745098"/>
    </radialGradient>
  </defs>
</svg>
