<?xml version="1.0" encoding="UTF-8" standalone="no"?>
<svg xmlns:ffdec="https://www.free-decompiler.com/flash" xmlns:xlink="http://www.w3.org/1999/xlink" ffdec:objectType="shape" height="20.05px" width="22.9px" xmlns="http://www.w3.org/2000/svg">
  <g transform="matrix(1.0, 0.0, 0.0, 1.0, 8.8, 16.9)">
    <path d="M0.45 -13.25 Q1.3 -13.35 1.3 -12.85 1.9 -12.55 2.25 -11.85 2.55 -11.15 2.25 -10.7 2.75 -10.75 3.65 -11.9 4.45 -12.95 4.85 -12.8 8.5 -11.5 8.6 -7.0 8.65 -4.65 7.95 -1.7 8.05 -1.4 5.5 -0.85 3.0 -0.35 3.4 0.3 L1.4 -1.45 Q0.9 -1.4 -0.35 -2.0 -1.05 -2.6 -2.95 -3.45 -5.25 -4.45 -5.8 -5.95 L-6.05 -8.25 Q-6.35 -10.25 -4.25 -11.7 -2.45 -13.0 0.4 -13.55 -0.05 -13.2 0.45 -13.25" fill="#282931" fill-rule="evenodd" stroke="none"/>
    <path d="M0.45 -13.25 Q1.3 -13.35 1.3 -12.85 1.9 -12.55 2.25 -11.85 2.55 -11.15 2.25 -10.7 2.75 -10.75 3.65 -11.9 4.45 -12.95 4.85 -12.8 8.5 -11.5 8.6 -7.0 8.65 -4.65 7.95 -1.7 8.05 -1.4 5.5 -0.85 3.0 -0.35 3.4 0.3 L1.4 -1.45 Q0.9 -1.4 -0.35 -2.0 -1.05 -2.6 -2.95 -3.45 -5.25 -4.45 -5.8 -5.95 L-6.05 -8.25 Q-6.35 -10.25 -4.25 -11.7 -2.45 -13.0 0.4 -13.55 -0.05 -13.2 0.45 -13.25 Z" fill="none" stroke="#1b1c22" stroke-linecap="round" stroke-linejoin="round" stroke-width="0.9500000000000001"/>
    <path d="M3.4 0.3 L3.5 0.65 3.8 1.0 0.2 1.1 Q-1.7 0.75 -2.6 -0.15 L-2.5 -3.0 -0.5 -2.45 Q2.75 -1.15 3.4 0.3" fill="#2d2e33" fill-rule="evenodd" stroke="none"/>
    <path d="M3.4 0.3 L3.5 0.65 3.8 1.0 0.2 1.1 Q-1.7 0.75 -2.6 -0.15 L-2.5 -3.0 -0.5 -2.45 Q2.75 -1.15 3.4 0.3 Z" fill="none" stroke="#212226" stroke-linecap="round" stroke-linejoin="round" stroke-width="0.9500000000000001"/>
    <path d="M1.5 -8.95 L2.0 -9.85 Q2.7 -10.75 3.6 -10.65 4.9 -10.75 4.9 -12.2 4.95 -13.9 5.15 -14.1 8.2 -13.9 9.55 -11.15 10.9 -8.4 10.2 -4.15 L7.7 -4.1 Q5.5 -4.95 5.8 -5.95 5.95 -6.45 1.5 -8.95" fill="url(#gradient0)" fill-rule="evenodd" stroke="none"/>
    <path d="M1.5 -8.95 L2.0 -9.85 Q2.7 -10.75 3.6 -10.65 4.9 -10.75 4.9 -12.2 4.95 -13.9 5.15 -14.1 8.2 -13.9 9.55 -11.15 10.9 -8.4 10.2 -4.15 L7.7 -4.1 Q5.5 -4.95 5.8 -5.95 5.95 -6.45 1.5 -8.95 Z" fill="none" stroke="#000000" stroke-linecap="butt" stroke-linejoin="miter-clip" stroke-miterlimit="11.33984375" stroke-opacity="0.5411765" stroke-width="0.9500000000000001"/>
    <path d="M3.6 -10.5 L2.65 -10.0 1.7 -9.25 2.3 -8.45 2.9 -7.85 Q0.15 -7.35 -0.6 -6.5 -1.3 -6.1 -2.5 -6.15 L-4.25 -6.2 Q-7.25 -5.95 -7.6 -8.25 -7.95 -10.6 -5.25 -13.3 L-3.35 -13.0 0.8 -10.75 3.6 -10.5" fill="url(#gradient1)" fill-rule="evenodd" stroke="none"/>
    <path d="M2.9 -7.85 Q0.15 -7.35 -0.6 -6.5 -1.3 -6.1 -2.5 -6.15 L-4.25 -6.2 Q-7.25 -5.95 -7.6 -8.25 -7.95 -10.6 -5.25 -13.3 L-3.35 -13.0 0.8 -10.75 3.6 -10.5" fill="none" stroke="#533f22" stroke-linecap="butt" stroke-linejoin="miter-clip" stroke-miterlimit="11.33984375" stroke-width="0.9500000000000001"/>
    <path d="M1.15 -10.05 Q-3.85 -13.25 -4.5 -13.3 L-5.0 -13.3 -4.3 -14.5 Q-3.4 -15.75 -2.55 -16.15 L-0.4 -16.35 1.3 -16.0 2.75 -14.4 Q3.85 -12.6 4.2 -12.35 5.05 -11.75 4.05 -11.8 L3.1 -10.35 Q2.25 -9.5 1.15 -10.05" fill="url(#gradient2)" fill-rule="evenodd" stroke="none"/>
    <path d="M1.15 -10.05 Q-3.85 -13.25 -4.5 -13.3 L-5.0 -13.3 -4.3 -14.5 Q-3.4 -15.75 -2.55 -16.15 L-0.4 -16.35 1.3 -16.0 2.75 -14.4 Q3.85 -12.6 4.2 -12.35 5.05 -11.75 4.05 -11.8 L3.1 -10.35 Q2.25 -9.5 1.15 -10.05 Z" fill="none" stroke="#292a2e" stroke-linecap="butt" stroke-linejoin="miter-clip" stroke-miterlimit="11.33984375" stroke-width="0.9500000000000001"/>
    <path d="M1.5 -15.85 Q4.6 -16.4 7.7 -14.4 6.5 -13.75 6.05 -12.4 L5.1 -10.3 Q4.6 -9.55 2.4 -10.05 L2.4 -14.45 1.5 -15.85" fill="url(#gradient3)" fill-rule="evenodd" stroke="none"/>
    <path d="M10.45 -3.8 Q11.1 -3.3 10.95 -2.4 10.8 -1.65 10.25 -1.05 9.4 -0.1 7.55 0.35 L4.9 0.55 Q4.8 -1.7 4.5 -2.0 4.3 -2.25 4.35 -3.35 4.35 -4.5 4.65 -4.85 L5.9 -6.05 6.1 -5.75 6.1 -5.45 6.55 -4.75 Q7.2 -4.3 8.75 -4.2 L10.45 -3.8" fill="url(#gradient4)" fill-rule="evenodd" stroke="none"/>
    <path d="M10.45 -3.8 L8.75 -4.2 Q7.2 -4.3 6.55 -4.75 L6.1 -5.45 6.1 -5.75 5.9 -6.05 4.65 -4.85 Q4.35 -4.5 4.35 -3.35 4.3 -2.25 4.5 -2.0 4.8 -1.7 4.9 0.55 L7.55 0.35 Q9.4 -0.1 10.25 -1.05 10.8 -1.65 10.95 -2.4 11.1 -3.3 10.45 -3.8 Z" fill="none" stroke="#533f22" stroke-linecap="butt" stroke-linejoin="miter-clip" stroke-miterlimit="11.33984375" stroke-width="0.9500000000000001"/>
    <path d="M3.65 -1.05 Q4.6 -2.1 5.55 -1.55 6.5 -1.0 5.85 0.5 5.85 0.85 5.2 1.05 L4.15 1.1 Q3.75 0.95 3.6 0.2 3.5 -0.5 3.65 -1.05" fill="#474747" fill-rule="evenodd" stroke="none"/>
    <path d="M3.65 -1.05 Q3.5 -0.5 3.6 0.2 3.75 0.95 4.15 1.1 L5.2 1.05 Q5.85 0.85 5.85 0.5 6.5 -1.0 5.55 -1.55 4.6 -2.1 3.65 -1.05 Z" fill="none" stroke="#262626" stroke-linecap="butt" stroke-linejoin="miter-clip" stroke-miterlimit="11.33984375" stroke-width="0.9500000000000001"/>
    <path d="M4.25 -3.6 Q1.65 -5.55 0.7 -5.7 L-1.0 -6.15 -2.0 -6.5 Q-3.0 -8.05 -2.95 -9.2 L-2.5 -10.9 -2.1 -11.75 1.15 -10.25 2.3 -9.0 2.8 -8.3 4.8 -6.85 Q5.85 -6.25 5.8 -5.85 5.8 -5.45 4.6 -4.5 L4.25 -3.6" fill="url(#gradient5)" fill-rule="evenodd" stroke="none"/>
    <path d="M4.25 -3.6 Q1.65 -5.55 0.7 -5.7 L-1.0 -6.15 -2.0 -6.5 Q-3.0 -8.05 -2.95 -9.2 L-2.5 -10.9 -2.1 -11.75 1.15 -10.25 2.3 -9.0 2.8 -8.3 4.8 -6.85 Q5.85 -6.25 5.8 -5.85 5.8 -5.45 4.6 -4.5 L4.25 -3.6 Z" fill="none" stroke="#34353a" stroke-linecap="butt" stroke-linejoin="miter-clip" stroke-miterlimit="11.33984375" stroke-width="0.9500000000000001"/>
    <path d="M6.2 0.2 Q8.45 0.2 9.7 -0.6 L10.8 -1.6 11.0 -2.65 Q11.05 -3.2 10.75 -3.55 L10.45 -3.85 10.25 -4.2 10.4 -6.65 Q10.4 -9.45 9.5 -11.1 8.6 -12.75 7.55 -13.55 L6.65 -14.0 7.6 -14.6 Q6.25 -15.7 4.65 -16.05 L2.5 -16.15 1.5 -15.95 -1.15 -16.45 Q-2.65 -16.5 -3.9 -14.8 L-5.35 -13.15 -6.5 -11.95 -7.35 -10.1 -7.65 -8.1 -7.1 -6.9 Q-6.7 -6.35 -6.25 -6.3 L-5.6 -6.2 -5.65 -5.45 Q-5.5 -4.6 -4.65 -4.2 L-2.55 -3.05 -2.4 -0.1" fill="none" stroke="#010100" stroke-linecap="round" stroke-linejoin="round" stroke-opacity="0.1764706" stroke-width="0.9500000000000001"/>
    <path d="M-6.55 -10.9 Q-4.75 -10.5 -4.95 -8.95 -5.15 -7.4 -7.05 -7.5 -7.35 -7.6 -7.4 -8.35 L-7.3 -9.55 -6.55 -10.9" fill="url(#gradient6)" fill-rule="evenodd" stroke="none"/>
    <path d="M-6.55 -10.9 Q-4.75 -10.5 -4.95 -8.95 -5.15 -7.4 -7.05 -7.5 -7.35 -7.6 -7.4 -8.35 L-7.3 -9.55 -6.55 -10.9 Z" fill="none" stroke="#000000" stroke-linecap="round" stroke-linejoin="round" stroke-opacity="0.40392157" stroke-width="0.9500000000000001"/>
    <path d="M2.4 -14.45 L1.5 -15.85 Q4.6 -16.9 7.7 -14.4 6.5 -13.75 6.05 -12.4 L5.1 -10.3 Q4.6 -9.55 2.4 -10.05 L2.4 -14.45 Z" fill="none" stroke="#533f22" stroke-linecap="round" stroke-linejoin="round" stroke-width="0.9500000000000001"/>
  </g>
  <defs>
    <radialGradient cx="0" cy="0" gradientTransform="matrix(0.0082, -0.0021, 0.0028, 0.0109, 3.75, -7.45)" gradientUnits="userSpaceOnUse" id="gradient0" r="819.2" spreadMethod="pad">
      <stop offset="0.0" stop-color="#073d54" stop-opacity="0.5019608"/>
      <stop offset="0.6588235294117647" stop-color="#3dc2ab" stop-opacity="0.6901961"/>
      <stop offset="0.7490196078431373" stop-color="#a6fbfd" stop-opacity="0.7882353"/>
      <stop offset="0.8235294117647058" stop-color="#a6f6fe" stop-opacity="0.7058824"/>
      <stop offset="0.9254901960784314" stop-color="#1bdae4" stop-opacity="0.5686275"/>
      <stop offset="1.0" stop-color="#1c8ce3" stop-opacity="0.67058825"/>
    </radialGradient>
    <radialGradient cx="0" cy="0" gradientTransform="matrix(0.0238, 7.0E-4, -7.0E-4, 0.0238, 3.0, -9.3)" gradientUnits="userSpaceOnUse" id="gradient1" r="819.2" spreadMethod="pad">
      <stop offset="0.0" stop-color="#7c3b18"/>
      <stop offset="1.0" stop-color="#f5df27"/>
    </radialGradient>
    <radialGradient cx="0" cy="0" gradientTransform="matrix(0.0428, -0.0028, 0.0013, 0.0197, -13.75, -13.65)" gradientUnits="userSpaceOnUse" id="gradient2" r="819.2" spreadMethod="pad">
      <stop offset="0.0" stop-color="#1f1f1f"/>
      <stop offset="1.0" stop-color="#636c6a"/>
    </radialGradient>
    <radialGradient cx="0" cy="0" gradientTransform="matrix(0.0192, -1.0E-4, 2.0E-4, 0.0238, -3.2, -13.45)" gradientUnits="userSpaceOnUse" id="gradient3" r="819.2" spreadMethod="pad">
      <stop offset="0.0" stop-color="#7c3b18"/>
      <stop offset="1.0" stop-color="#f5df27"/>
    </radialGradient>
    <radialGradient cx="0" cy="0" gradientTransform="matrix(0.0099, 2.0E-4, -5.0E-4, 0.0279, 7.55, -2.7)" gradientUnits="userSpaceOnUse" id="gradient4" r="819.2" spreadMethod="pad">
      <stop offset="0.0" stop-color="#9e7326"/>
      <stop offset="1.0" stop-color="#f5df27"/>
    </radialGradient>
    <radialGradient cx="0" cy="0" gradientTransform="matrix(0.0202, 4.0E-4, -5.0E-4, 0.0273, -3.7, 1.55)" gradientUnits="userSpaceOnUse" id="gradient5" r="819.2" spreadMethod="pad">
      <stop offset="0.0" stop-color="#363a43"/>
      <stop offset="1.0" stop-color="#dbdce1"/>
    </radialGradient>
    <radialGradient cx="0" cy="0" gradientTransform="matrix(0.0011, -2.0E-4, 2.0E-4, 0.0013, -6.5, -9.05)" gradientUnits="userSpaceOnUse" id="gradient6" r="819.2" spreadMethod="pad">
      <stop offset="0.0" stop-color="#126d6d"/>
      <stop offset="1.0" stop-color="#24d9d9"/>
    </radialGradient>
  </defs>
</svg>
