<?xml version="1.0" encoding="UTF-8" standalone="no"?>
<svg xmlns:ffdec="https://www.free-decompiler.com/flash" xmlns:xlink="http://www.w3.org/1999/xlink" ffdec:objectType="shape" height="20.25px" width="24.4px" xmlns="http://www.w3.org/2000/svg">
  <g transform="matrix(1.0, 0.0, 0.0, 1.0, 9.8, 17.85)">
    <path d="M-4.9 -11.4 L-4.85 -8.7 Q-4.7 -7.05 -3.6 -5.1 -4.8 -5.15 -6.55 -6.2 L-9.15 -8.2 -9.2 -11.45 -6.35 -15.0 -2.7 -16.1 -4.9 -11.4" fill="#aa974d" fill-rule="evenodd" stroke="none"/>
    <path d="M12.25 -12.7 Q13.35 -11.5 13.4 -10.8 L9.0 -10.35 Q5.3 -10.2 4.6 -9.4 L5.8 -8.05 Q6.6 -7.1 7.15 -6.9 L10.65 -6.55 Q12.8 -6.5 12.85 -5.6 12.9 -5.3 13.7 -4.0 14.4 -2.7 13.75 -2.0 13.45 -1.65 13.5 -0.05 13.6 1.5 13.1 1.9 L8.9 1.15 4.3 -3.0 -1.5 -2.75 -3.6 -5.1 Q-4.7 -7.05 -4.85 -8.7 L-4.9 -11.4 -2.2 -12.55 -0.55 -14.6 -1.2 -16.95 0.65 -17.3 0.7 -17.3 1.6 -17.35 4.1 -14.75 9.1 -14.9 Q10.95 -14.05 12.25 -12.7" fill="#e1cb73" fill-rule="evenodd" stroke="none"/>
    <path d="M-1.5 -2.75 L4.2 -2.75 4.2 -0.9 Q1.7 1.8 -1.5 -0.95 L-1.5 -2.75" fill="#7e6a3d" fill-rule="evenodd" stroke="none"/>
    <path d="M9.4 -14.9 L11.65 -13.25 7.85 -12.8 Q6.0 -13.75 4.1 -14.75 L1.6 -17.35 2.25 -17.35 4.1 -17.15 Q8.2 -16.4 9.3 -15.0 L9.4 -14.9 M-1.2 -16.95 L-0.55 -14.6 -2.2 -12.55 -4.9 -11.4 -4.8 -12.95 -4.35 -14.0 -3.2 -15.65 Q-2.45 -16.5 -1.2 -16.95 M13.5 -4.35 Q14.55 -2.05 13.45 0.15 L10.9 -1.25 10.45 -3.4 13.5 -4.35" fill="#af9558" fill-rule="evenodd" stroke="none"/>
    <path d="M1.6 -17.35 L4.1 -14.75 5.6 -14.75 7.1 -12.85 11.75 -12.95 M-1.2 -16.95 L-0.55 -14.6 -2.2 -12.55 -4.9 -11.4 M-0.15 -6.5 L1.15 -6.35 M-2.75 -5.9 L0.7 -4.25 M13.65 0.25 Q12.45 0.1 10.55 -1.45 L10.5 -3.3 Q10.9 -3.75 11.85 -4.0 L13.65 -4.3" fill="none" stroke="#80704d" stroke-linecap="round" stroke-linejoin="round" stroke-width="1.0"/>
    <path d="M11.4 -10.15 L12.85 -10.3 Q13.55 -10.6 13.5 -11.05 13.45 -11.6 12.55 -12.55 L10.65 -14.25 10.55 -14.35 Q7.6 -17.15 4.1 -17.15 L2.25 -17.35 0.7 -17.3 0.65 -17.3 -1.2 -16.95" fill="none" stroke="#504630" stroke-linecap="round" stroke-linejoin="round" stroke-width="1.0"/>
    <path d="M-4.8 -12.95 L-4.9 -11.4 -5.35 -9.0 Q-5.4 -7.95 -4.95 -7.05 -4.45 -6.0 -3.5 -5.65" fill="none" stroke="#756646" stroke-linecap="round" stroke-linejoin="round" stroke-width="1.0"/>
    <path d="M13.4 1.65 L13.75 0.5 13.85 -0.2 14.1 -3.15 12.8 -6.35 11.5 -6.35 M-5.75 -5.3 L-9.1 -8.5 Q-9.45 -10.2 -9.2 -11.35 -8.95 -12.45 -8.1 -13.05 L-6.3 -13.95" fill="none" stroke="#544a3c" stroke-linecap="round" stroke-linejoin="round" stroke-width="1.0"/>
    <path d="M-1.5 -2.75 L4.2 -2.75" fill="none" stroke="#504330" stroke-linecap="round" stroke-linejoin="round" stroke-width="1.0"/>
    <path d="M11.7 -6.4 Q5.6 -6.2 3.7 -9.55 5.45 -10.5 7.3 -10.6 L11.5 -10.45 Q11.2 -9.55 11.2 -8.65 11.3 -7.15 11.7 -6.4" fill="url(#gradient0)" fill-rule="evenodd" stroke="none"/>
    <path d="M11.7 -6.4 Q5.6 -6.2 3.7 -9.55 5.45 -10.5 7.3 -10.6 L11.5 -10.45 Q11.2 -9.55 11.2 -8.65 11.3 -7.15 11.7 -6.4 Z" fill="none" stroke="#1d3338" stroke-linecap="round" stroke-linejoin="round" stroke-width="1.0"/>
    <path d="M-1.6 -16.65 L-0.2 -12.9 -1.0 -11.8 -4.05 -10.25 -6.5 -11.55 Q-7.5 -12.3 -7.3 -13.75 -6.0 -14.9 -4.35 -15.8 -2.5 -16.75 -1.6 -16.65" fill="#aa974d" fill-rule="evenodd" stroke="none"/>
    <path d="M-1.6 -16.65 L-0.2 -12.9 -1.0 -11.8 -4.05 -10.25 -6.5 -11.55 Q-7.5 -12.3 -7.3 -13.75 -6.0 -14.9 -4.35 -15.8 -2.5 -16.75 -1.6 -16.65 Z" fill="none" stroke="#544a3c" stroke-linecap="round" stroke-linejoin="round" stroke-width="1.0"/>
    <path d="M4.45 -3.0 L4.0 -2.1 -2.4 -2.35 -6.0 -6.05 -3.75 -6.6 -2.75 -6.7 Q-1.9 -6.5 -0.5 -6.7 0.5 -6.85 1.6 -6.15 3.1 -4.85 4.45 -3.0" fill="#aa974d" fill-rule="evenodd" stroke="none"/>
    <path d="M10.4 1.4 L9.45 0.7 9.45 0.9 7.4 -0.95 5.95 -2.25 M5.05 -2.75 Q4.9 -3.0 5.4 -3.1 L6.15 -3.1 8.4 -0.8 9.45 0.5 9.45 0.7 7.4 -0.95" fill="none" stroke="#544a3c" stroke-linecap="round" stroke-linejoin="round" stroke-opacity="0.4" stroke-width="1.0"/>
    <path d="M6.05 -7.1 L5.5 -5.8 3.75 -4.95 3.4 -4.1 4.25 -2.75 Q3.25 -2.3 1.65 -2.4 L-0.8 -2.55" fill="none" stroke="#453929" stroke-linecap="round" stroke-linejoin="round" stroke-opacity="0.4509804" stroke-width="1.0"/>
    <path d="M-8.9 -8.8 L-9.05 -12.1 Q-9.05 -12.45 -8.05 -12.4 L-7.05 -11.9 Q-6.35 -11.45 -5.45 -11.55 L-5.4 -10.7 -5.75 -8.55 Q-5.3 -7.15 -4.45 -5.8 -5.25 -4.5 -6.8 -6.05 L-8.9 -8.8" fill="#544a3c" fill-opacity="0.22352941" fill-rule="evenodd" stroke="none"/>
    <path d="M-1.55 -16.75 L-0.2 -12.8 1.05 -12.15 2.1 -10.4" fill="none" stroke="#665b43" stroke-linecap="round" stroke-linejoin="round" stroke-width="1.0"/>
    <path d="M-7.5 -13.55 Q-7.1 -10.9 -4.1 -10.25 L-0.9 -11.85 -0.4 -12.95" fill="none" stroke="#665b43" stroke-linecap="round" stroke-linejoin="round" stroke-width="1.0"/>
    <path d="M-0.85 -6.6 L-2.8 -6.4 -4.4 -6.1 -5.85 -5.4 -2.6 -3.25 -1.55 -3.0 -1.45 -0.2 2.4 0.55 Q3.15 0.4 4.0 -0.45 L4.15 -2.0 4.75 -2.25 8.85 1.15 13.35 1.9" fill="none" stroke="#665b43" stroke-linecap="round" stroke-linejoin="round" stroke-width="1.0"/>
    <path d="M-0.9 -6.6 L0.15 -6.45 0.6 -6.05 2.0 -7.35 2.0 -10.2 2.05 -10.65" fill="none" stroke="#665b43" stroke-linecap="round" stroke-linejoin="round" stroke-width="1.0"/>
    <path d="M0.65 -6.05 L2.65 -5.1 4.7 -2.55 4.35 -2.15 4.95 -2.2" fill="none" stroke="#665b43" stroke-linecap="round" stroke-linejoin="round" stroke-width="1.0"/>
  </g>
  <defs>
    <linearGradient gradientTransform="matrix(0.0049, 0.0, 0.0, 0.005, 8.15, -8.5)" gradientUnits="userSpaceOnUse" id="gradient0" spreadMethod="pad" x1="-819.2" x2="819.2">
      <stop offset="0.0" stop-color="#464e7a"/>
      <stop offset="1.0" stop-color="#5d93bf"/>
    </linearGradient>
  </defs>
</svg>
