<?xml version="1.0" encoding="UTF-8" standalone="no"?>
<svg xmlns:ffdec="https://www.free-decompiler.com/flash" xmlns:xlink="http://www.w3.org/1999/xlink" ffdec:objectType="shape" height="8.05px" width="16.8px" xmlns="http://www.w3.org/2000/svg">
  <g transform="matrix(1.0, 0.0, 0.0, 1.0, 8.4, 4.05)">
    <path d="M7.9 0.05 L7.9 2.85 Q6.4 4.15 4.9 2.85 L4.9 -0.25 5.9 -0.25 5.9 0.05 7.9 0.05 M1.0 -1.45 L-1.15 -1.45 -2.25 -2.5 -1.15 -3.55 1.05 -3.55 2.2 -2.45 1.0 -1.45 M-5.85 -0.3 L-4.9 -0.3 -4.9 2.85 Q-6.15 3.85 -7.9 2.85 L-7.9 0.05 -5.85 0.0 -5.85 -0.3" fill="#f1a8ff" fill-rule="evenodd" stroke="none"/>
    <path d="M7.9 0.05 L7.9 2.85 Q6.4 4.15 4.9 2.85 L4.9 -0.25 5.9 -0.25 M1.0 -1.45 L-1.15 -1.45 -2.25 -2.5 -1.15 -3.55 1.05 -3.55 2.2 -2.45 1.0 -1.45 M-7.9 0.05 L-7.9 2.85 Q-6.15 3.85 -4.9 2.85 L-4.9 -0.3 -5.85 -0.3" fill="none" stroke="#8c3f8b" stroke-linecap="round" stroke-linejoin="round" stroke-width="1.0"/>
  </g>
</svg>
