<?xml version="1.0" encoding="UTF-8" standalone="no"?>
<svg xmlns:ffdec="https://www.free-decompiler.com/flash" xmlns:xlink="http://www.w3.org/1999/xlink" ffdec:objectType="shape" height="20.55px" width="20.25px" xmlns="http://www.w3.org/2000/svg">
  <g transform="matrix(1.0, 0.0, 0.0, 1.0, 2.1, 2.15)">
    <path d="M2.75 11.85 Q3.1 13.2 3.8 14.65 L4.8 15.95 Q8.05 17.55 11.1 17.15 L14.15 16.6 Q15.7 16.1 15.95 14.25 L16.2 12.0 15.95 14.35 Q15.7 16.2 14.15 16.7 L11.1 17.25 Q8.05 17.65 4.8 16.05 L3.8 14.75 Q3.1 13.25 2.75 11.85" fill="#e9ca8d" fill-rule="evenodd" stroke="none"/>
    <path d="M2.75 11.85 L2.4 9.35 2.45 8.9 2.45 8.4 Q2.75 5.65 3.8 4.1 L4.6 3.3 Q5.75 2.4 8.05 2.2 11.2 1.9 12.8 2.85 L13.45 3.3 Q14.55 4.25 15.35 6.05 L16.05 8.5 16.2 11.05 16.2 11.15 16.2 11.9 16.2 12.0 15.95 14.25 Q15.7 16.1 14.15 16.6 L11.1 17.15 Q8.05 17.55 4.8 15.95 L3.8 14.65 Q3.1 13.2 2.75 11.85 M14.3 10.4 L12.6 10.4 14.3 10.4 M15.3 15.3 L13.9 15.3 15.3 15.3" fill="#ffff99" fill-rule="evenodd" stroke="none"/>
    <path d="M13.9 15.3 L15.3 15.3" fill="none" stroke="#a3793c" stroke-linecap="round" stroke-linejoin="round" stroke-width="1.0"/>
    <path d="M12.6 10.4 L14.3 10.4" fill="none" stroke="#a3793c" stroke-linecap="round" stroke-linejoin="round" stroke-width="1.75"/>
    <path d="M3.9 4.0 L3.8 4.1 Q2.75 5.65 2.45 8.4 2.15 11.15 3.8 14.65 L4.8 15.95 Q7.75 17.4 10.55 17.2 L11.1 17.15 11.65 17.15 11.05 17.2 Q8.0 17.6 4.75 16.0 L3.75 14.7 Q2.1 11.2 2.4 8.45 2.7 5.7 3.75 4.15 L3.9 4.0 M12.3 17.1 L14.15 16.6 15.15 16.05 Q14.75 16.45 14.1 16.65 L12.3 17.1" fill="#696969" fill-rule="evenodd" stroke="none"/>
    <path d="M4.8 3.2 Q5.9 2.4 8.05 2.2 11.2 1.9 12.8 2.85 L13.45 3.3 Q14.55 4.25 15.35 6.05 16.0 7.6 16.2 9.3 L16.15 9.3 Q14.05 8.45 12.65 8.95 11.2 9.4 11.25 10.35 L11.45 11.1 Q12.1 12.7 14.3 12.5 13.65 15.2 12.3 17.1 13.65 15.2 14.3 12.5 14.75 12.7 16.15 11.95 L15.95 14.2 15.9 14.3 Q15.75 15.4 15.15 16.05 L14.15 16.6 12.3 17.1 12.25 17.1 11.65 17.15 11.1 17.15 10.55 17.2 Q7.75 17.4 4.8 15.95 L3.8 14.65 Q2.15 11.15 2.45 8.4 2.75 5.65 3.8 4.1 L3.9 4.0 4.0 3.9 4.05 3.8 4.4 3.5 4.75 3.25 4.4 3.5 4.05 3.8 4.2 3.65 4.3 3.6 4.05 3.8 4.3 3.6 4.6 3.3 4.75 3.25 4.8 3.2 M4.4 3.5 L4.3 3.6 4.4 3.5" fill="#232323" fill-rule="evenodd" stroke="none"/>
    <path d="M14.3 12.5 Q12.1 12.7 11.45 11.1 L12.1 11.65 14.85 11.9 Q15.75 11.75 16.15 11.15 L16.2 11.05 16.15 11.95 Q14.75 12.7 14.3 12.5" fill="#313131" fill-rule="evenodd" stroke="none"/>
    <path d="M4.8 3.2 L4.75 3.25 4.4 3.5 4.05 3.8 4.0 3.9 M12.25 17.1 L12.3 17.1 14.1 16.65 Q14.75 16.45 15.15 16.05 15.75 15.4 15.9 14.3 L15.95 14.2 M16.15 11.15 L16.15 11.1 16.15 9.3 M4.3 3.6 L4.4 3.5 M4.3 3.6 L4.2 3.65 4.05 3.8" fill="none" stroke="#3a3a3a" stroke-linecap="round" stroke-linejoin="round" stroke-width="1.0"/>
    <path d="M4.0 3.9 L3.9 4.0 3.8 4.1 Q2.75 5.65 2.45 8.4 2.15 11.15 3.8 14.65 L4.8 15.95 Q7.75 17.4 10.55 17.2 L11.1 17.15 11.65 17.15 12.25 17.1 M4.75 3.25 L4.6 3.3 4.3 3.6 4.05 3.8" fill="none" stroke="#040404" stroke-linecap="round" stroke-linejoin="round" stroke-width="1.0"/>
    <path d="M3.9 4.0 L3.75 4.15 Q2.7 5.7 2.4 8.45 2.1 11.2 3.75 14.7 L4.75 16.0 Q8.0 17.6 11.05 17.2 L11.65 17.15" fill="none" stroke="#101010" stroke-linecap="round" stroke-linejoin="round" stroke-width="1.1"/>
    <path d="M12.3 17.1 Q13.65 15.2 14.3 12.5" fill="none" stroke="#460000" stroke-linecap="round" stroke-linejoin="round" stroke-width="0.8"/>
    <path d="M14.3 12.5 Q12.1 12.7 11.45 11.1 M16.15 11.95 Q14.75 12.7 14.3 12.5" fill="none" stroke="#460000" stroke-linecap="round" stroke-linejoin="round" stroke-width="1.0"/>
    <path d="M11.45 11.1 L11.25 10.35 Q11.2 9.4 12.65 8.95 14.05 8.45 16.15 9.3 L16.2 9.3 Q16.0 7.6 15.35 6.05 14.55 4.25 13.45 3.3 L12.8 2.85 Q11.2 1.9 8.05 2.2 5.9 2.4 4.8 3.2 M11.45 11.1 L12.1 11.65 14.85 11.9 Q15.75 11.75 16.15 11.15 L16.2 11.05 16.2 9.3 M16.15 11.95 L16.2 11.05 M15.95 14.2 L16.15 11.95 M15.15 16.05 Q15.8 15.4 15.95 14.25 L15.95 14.2 M12.3 17.1 L14.15 16.6 15.15 16.05" fill="none" stroke="#101010" stroke-linecap="round" stroke-linejoin="round" stroke-width="1.0"/>
    <path d="M16.9 8.4 Q17.6 12.5 15.6 15.5 L10.0 13.65 Q8.55 12.5 8.75 10.85 L9.25 8.4 16.9 8.4" fill="url(#gradient0)" fill-rule="evenodd" stroke="none"/>
    <path d="M16.9 8.4 L9.25 8.4 8.75 10.85 Q8.55 12.5 10.0 13.65 L15.6 15.5 Q17.6 12.5 16.9 8.4 Z" fill="none" stroke="#2c0000" stroke-linecap="round" stroke-linejoin="round" stroke-opacity="0.7490196" stroke-width="1.0"/>
    <path d="M7.7 6.1 L16.65 6.1 17.55 8.4 9.25 8.4 8.15 10.65 Q7.95 12.85 9.5 14.05 L15.15 16.05 Q16.25 17.2 14.6 17.5 L8.35 15.55 Q6.15 13.5 6.25 10.7 L7.7 6.1" fill="#232323" fill-rule="evenodd" stroke="none"/>
    <path d="M7.7 6.1 L6.25 10.7 Q6.15 13.5 8.35 15.55 L14.6 17.5 Q16.25 17.2 15.15 16.05 L9.5 14.05 Q7.95 12.85 8.15 10.65 L9.25 8.4 17.55 8.4 16.65 6.1 7.7 6.1 Z" fill="none" stroke="#0b0b0b" stroke-linecap="round" stroke-linejoin="round" stroke-width="1.0"/>
    <path d="M1.4 12.4 L0.35 10.85 Q-0.1 9.15 0.0 7.5 L1.55 7.5 Q1.55 10.05 2.75 11.7 L1.4 12.4" fill="#191919" fill-rule="evenodd" stroke="none"/>
    <path d="M10.45 6.2 L12.35 7.2 6.0 7.2 4.45 12.7 2.55 13.45 1.4 12.4 2.75 11.7 Q1.55 10.05 1.55 7.5 L0.0 7.5 0.2 5.6 Q0.45 4.6 1.35 3.35 L6.9 4.3 10.45 6.2" fill="#272727" fill-rule="evenodd" stroke="none"/>
    <path d="M15.4 2.75 L12.6 2.85 10.45 6.2 6.9 4.3 1.35 3.35 Q1.85 2.65 3.45 1.45 5.05 0.25 7.65 0.05 L11.6 0.3 Q13.0 0.7 13.85 1.3 L15.4 2.75" fill="#383838" fill-rule="evenodd" stroke="none"/>
    <path d="M15.4 2.75 L16.6 4.6 17.1 5.9 17.1 7.2 12.35 7.2 10.45 6.2 12.6 2.85 15.4 2.75" fill="#2c0101" fill-rule="evenodd" stroke="none"/>
    <path d="M12.35 7.2 L17.1 7.2 17.1 5.9 16.6 4.6 15.4 2.75 13.85 1.3 Q13.0 0.7 11.6 0.3 L7.65 0.05 Q5.05 0.25 3.45 1.45 1.85 2.65 1.35 3.35 L6.9 4.3 10.45 6.2 12.35 7.2 6.0 7.2 4.45 12.7 2.55 13.45 1.4 12.4 0.35 10.85 Q-0.1 9.15 0.0 7.5 L0.2 5.6 Q0.45 4.6 1.35 3.35" fill="none" stroke="#040404" stroke-linecap="round" stroke-linejoin="round" stroke-width="1.0"/>
    <path d="M9.95 16.65 L6.85 14.65 Q5.35 12.15 5.8 11.75 L8.9 12.25 10.9 13.55 Q10.6 13.7 10.35 13.95 9.65 14.55 9.6 15.45 9.6 16.1 9.95 16.65 9.6 16.1 9.6 15.45 9.65 14.55 10.35 13.95 10.6 13.7 10.9 13.55 L11.95 13.35 Q12.85 13.45 13.45 14.1 L13.65 14.35 Q14.05 14.95 14.0 15.7 13.95 16.55 13.3 17.15 12.6 17.8 11.7 17.7 10.8 17.65 10.2 17.0 L9.95 16.65" fill="#232323" fill-rule="evenodd" stroke="none"/>
    <path d="M13.65 14.35 L14.95 13.35 17.65 12.9 17.65 14.2 17.3 14.9 16.6 16.15 15.65 17.9 13.3 17.15 Q13.95 16.55 14.0 15.7 14.05 14.95 13.65 14.35 M17.3 14.9 L16.3 14.5 17.3 14.9 M16.6 16.15 L15.4 15.6 16.6 16.15" fill="#2c0101" fill-rule="evenodd" stroke="none"/>
    <path d="M10.9 13.55 L8.9 12.25 5.8 11.75 Q5.35 12.15 6.85 14.65 L9.95 16.65 Q9.6 16.1 9.6 15.45 9.65 14.55 10.35 13.95 10.6 13.7 10.9 13.55 L11.95 13.35 Q12.85 13.45 13.45 14.1 L13.65 14.35 14.95 13.35 17.65 12.9 17.65 14.2 17.3 14.9 16.6 16.15 15.65 17.9 13.3 17.15 Q12.6 17.8 11.7 17.7 10.8 17.65 10.2 17.0 L9.95 16.65 M8.15 10.65 L8.9 12.25 M13.65 14.35 Q14.05 14.95 14.0 15.7 13.95 16.55 13.3 17.15" fill="none" stroke="#100606" stroke-linecap="round" stroke-linejoin="round" stroke-width="1.0"/>
    <path d="M15.4 15.6 L16.6 16.15 M16.3 14.5 L17.3 14.9" fill="none" stroke="#120707" stroke-linecap="round" stroke-linejoin="round" stroke-width="1.0"/>
    <path d="M2.4 11.25 L3.8 7.05 6.0 7.85 6.55 7.2 8.95 7.95 8.15 11.55 8.35 12.6 5.8 12.5 5.5 12.4 5.35 12.35 4.95 9.1 6.0 7.85 4.95 9.1 5.35 12.35 2.4 11.25 M1.35 6.2 L0.15 10.4 -0.9 8.25 -0.3 5.7 1.35 6.2" fill="#2e2e2e" fill-rule="evenodd" stroke="none"/>
    <path d="M0.15 10.4 L0.15 10.45 0.15 10.4 1.35 6.2 3.8 7.05 2.4 11.25 0.15 10.45 0.15 10.4" fill="#171717" fill-rule="evenodd" stroke="none"/>
    <path d="M0.15 10.45 L0.15 10.4 -0.9 8.25 -0.3 5.7 1.35 6.2 3.8 7.05 6.0 7.85 4.95 9.1 5.35 12.35 2.4 11.25 0.15 10.45 M5.35 12.35 L5.5 12.4 5.8 12.5 8.35 12.6 8.15 11.55 8.95 7.95 6.55 7.2 6.0 7.85 M5.8 12.5 L5.5 12.4" fill="none" stroke="#0b0b0b" stroke-linecap="round" stroke-linejoin="round" stroke-width="1.0"/>
    <path d="M2.2 11.55 L1.4 11.55 2.2 11.55 M-0.35 6.05 L1.55 5.6 2.45 6.45 3.45 12.55 -0.1 12.7 -0.5 10.1 -0.85 8.25 -0.05 8.6 -0.85 8.25 -1.2 6.25 -0.35 6.05 M0.05 10.4 L-0.5 10.1 0.05 10.4" fill="#1c1c1c" fill-rule="evenodd" stroke="none"/>
    <path d="M1.4 11.55 L2.2 11.55" fill="none" stroke="#ff0000" stroke-linecap="round" stroke-linejoin="round" stroke-width="1.0"/>
    <path d="M-0.35 6.05 L1.55 5.6 2.45 6.45 3.45 12.55 -0.1 12.7 -0.5 10.1 -0.85 8.25 -1.2 6.25 -0.35 6.05" fill="none" stroke="#0b0b0b" stroke-linecap="round" stroke-linejoin="round" stroke-width="1.0"/>
    <path d="M-0.5 10.1 L-1.5 9.6 M-0.85 8.25 L-0.05 8.6 M-1.6 7.9 L-0.85 8.25 M-0.5 10.1 L0.05 10.4" fill="none" stroke="#272727" stroke-linecap="round" stroke-linejoin="round" stroke-width="1.0"/>
    <path d="M-0.35 6.05 L-1.6 -1.65" fill="none" stroke="#000000" stroke-linecap="round" stroke-linejoin="round" stroke-opacity="0.69803923" stroke-width="1.0"/>
  </g>
  <defs>
    <linearGradient gradientTransform="matrix(0.0123, 0.0022, -8.0E-4, 0.0045, 12.55, 4.45)" gradientUnits="userSpaceOnUse" id="gradient0" spreadMethod="pad" x1="-819.2" x2="819.2">
      <stop offset="0.1607843137254902" stop-color="#410000" stop-opacity="0.49803922"/>
      <stop offset="0.5019607843137255" stop-color="#8e0101" stop-opacity="0.49803922"/>
      <stop offset="0.6274509803921569" stop-color="#ff0000" stop-opacity="0.65882355"/>
      <stop offset="0.7294117647058823" stop-color="#b10000" stop-opacity="0.49803922"/>
      <stop offset="1.0" stop-color="#4d0000" stop-opacity="0.49803922"/>
    </linearGradient>
  </defs>
</svg>
