<?xml version="1.0" encoding="UTF-8" standalone="no"?>
<svg xmlns:ffdec="https://www.free-decompiler.com/flash" xmlns:xlink="http://www.w3.org/1999/xlink" ffdec:objectType="shape" height="22.25px" width="19.4px" xmlns="http://www.w3.org/2000/svg">
  <g transform="matrix(1.0, 0.0, 0.0, 1.0, 8.65, 20.35)">
    <path d="M-4.05 -13.2 Q-2.45 -16.2 2.15 -15.5 5.3 -14.9 7.15 -13.4 8.3 -12.45 9.1 -11.2 L6.75 -10.95 5.85 -8.95 5.45 -9.45 3.75 -9.75 Q5.2 -7.0 6.15 -6.1 L5.45 -5.45 3.5 -5.25 0.85 -7.05 0.8 -7.95 0.75 -8.0 0.0 -8.75 -0.05 -8.8 -0.05 -8.85 -0.35 -9.05 -4.7 -10.3 -4.75 -10.3 -4.9 -10.75 Q-4.75 -12.2 -4.05 -13.2" fill="url(#gradient0)" fill-rule="evenodd" stroke="none"/>
    <path d="M9.1 -11.2 Q9.85 -10.0 10.25 -8.5 11.55 -3.95 9.55 -0.65 9.5 -1.45 8.95 -2.0 8.35 -2.55 7.5 -2.55 L7.45 -2.55 6.55 -2.35 5.9 -2.45 Q4.2 -2.75 3.5 -3.6 L3.5 -5.25 5.45 -5.45 6.15 -6.1 Q7.55 -4.4 7.75 -5.85 L8.4 -6.5 8.35 -6.8 8.1 -6.45 8.0 -7.3 7.3 -8.0 6.6 -8.1 Q6.4 -8.05 6.35 -8.6 L6.15 -9.2 5.85 -8.95 6.75 -10.95 9.1 -11.2" fill="url(#gradient1)" fill-rule="evenodd" stroke="none"/>
    <path d="M0.0 -8.75 L0.75 -8.0 0.8 -7.95 0.85 -7.05 0.7 -7.35 0.4 -7.95 0.7 -7.35 0.65 -7.1 0.85 -7.05 0.75 -6.3 -0.5 -5.7 -0.5 -5.75 -0.9 -6.1 -0.95 -6.1 -1.0 -6.1 -1.25 -6.1 -1.45 -6.1 -2.7 -5.65 -3.05 -5.35 -3.1 -5.3 -3.1 -5.1 -4.4 -5.7 -4.75 -5.8 -5.45 -6.3 Q-5.95 -6.9 -5.95 -8.1 -6.05 -8.75 -5.6 -9.25 L-5.15 -10.0 -4.7 -10.3 -0.35 -9.05 -0.05 -8.85 -0.1 -8.85 -0.05 -8.8 0.0 -8.75 0.4 -8.0 0.0 -8.75 M0.4 -7.95 L0.4 -8.0 0.35 -8.0 0.4 -7.95 M-0.95 -6.1 L-1.25 -6.1 -0.95 -6.1" fill="#282828" fill-rule="evenodd" stroke="none"/>
    <path d="M0.4 -8.0 L0.4 -7.95 0.35 -8.0 0.4 -8.0" fill="url(#gradient2)" fill-rule="evenodd" stroke="none"/>
    <path d="M3.5 -5.25 L3.5 -3.6 Q4.2 -2.75 5.9 -2.45 L6.55 -2.35 6.05 -2.0 5.95 -1.9 5.95 -1.85 5.8 -1.65 5.5 -0.95 2.6 -1.4 2.35 -1.6 1.6 -2.4 1.05 -3.15 -0.55 -4.75 -1.4 -4.4 -1.55 -4.55 -0.95 -4.8 -0.55 -5.2 -0.5 -5.7 0.75 -6.3 0.85 -7.05 3.5 -5.25" fill="url(#gradient3)" fill-rule="evenodd" stroke="none"/>
    <path d="M6.05 0.85 L5.9 0.85 5.2 0.95 4.8 0.95 3.95 0.95 3.1 0.75 1.1 -0.55 0.45 -1.25 0.05 -1.75 -0.2 -2.1 -0.25 -2.15 -0.35 -2.3 -1.3 -3.35 -2.15 -4.1 -1.4 -4.4 -0.55 -4.75 1.05 -3.15 1.6 -2.4 2.35 -1.6 2.6 -1.4 Q3.15 -1.0 3.75 -0.85 L4.5 -0.75 4.75 -0.7 5.45 -0.7 7.2 -1.05 Q9.2 0.2 6.05 0.85 M2.35 -1.6 L2.25 -1.45 1.75 -1.05 1.65 -1.0 1.1 -0.55 1.65 -1.0 1.75 -1.05 2.25 -1.45 2.35 -1.6 M3.1 0.75 L3.75 -0.85 3.1 0.75 M4.8 0.95 L4.75 -0.7 4.8 0.95 M1.05 -3.15 L-0.35 -2.3 1.05 -3.15" fill="#333333" fill-rule="evenodd" stroke="none"/>
    <path d="M0.05 -1.75 L-0.45 -1.95 -0.2 -2.1 0.05 -1.75 M2.6 -1.4 L5.5 -0.95 5.45 -0.7 4.75 -0.7 4.5 -0.75 3.75 -0.85 Q3.15 -1.0 2.6 -1.4" fill="#232323" fill-rule="evenodd" stroke="none"/>
    <path d="M9.55 -0.65 L9.55 -0.55 Q9.55 0.25 8.95 0.85 8.35 1.4 7.5 1.4 L7.45 1.4 Q6.65 1.4 6.05 0.85 9.2 0.2 7.2 -1.05 L5.45 -0.7 5.5 -0.95 5.8 -1.65 5.95 -1.85 5.95 -1.9 6.05 -2.0 6.55 -2.35 7.45 -2.55 7.5 -2.55 Q8.35 -2.55 8.95 -2.0 9.5 -1.45 9.55 -0.65" fill="url(#gradient4)" fill-rule="evenodd" stroke="none"/>
    <path d="M-6.4 -5.8 L-7.05 -5.8 -8.15 -7.6 -8.15 -11.25 Q-8.1 -12.3 -7.2 -12.9 L-6.75 -13.15 -5.6 -13.15 -4.95 -13.15 -4.55 -12.5 Q-5.1 -11.6 -4.9 -10.75 L-4.75 -10.3 -4.7 -10.3 -5.15 -10.0 -5.6 -9.25 Q-6.05 -8.75 -5.95 -8.1 -5.95 -6.9 -5.45 -6.3 L-4.75 -5.8 -6.4 -5.8" fill="url(#gradient5)" fill-rule="evenodd" stroke="none"/>
    <path d="M-1.65 -16.95 L-1.65 -17.0 -1.6 -16.95 -1.65 -16.95" fill="url(#gradient6)" fill-rule="evenodd" stroke="none"/>
    <path d="M-4.55 -12.5 L-4.15 -13.15 -4.05 -13.2 Q-4.75 -12.2 -4.9 -10.75 -5.1 -11.6 -4.55 -12.5" fill="url(#gradient7)" fill-rule="evenodd" stroke="none"/>
    <path d="M-6.05 -5.05 L-6.4 -5.8 -4.75 -5.8 -4.4 -5.7 -3.1 -5.1 -3.1 -5.3 -3.05 -5.35 -2.7 -5.65 -1.45 -6.1 -1.25 -6.1 -1.0 -6.1 -0.95 -6.1 -0.9 -6.1 -0.5 -5.75 -0.5 -5.7 -0.55 -5.2 -0.95 -4.8 -1.55 -4.55 -1.4 -4.4 -2.15 -4.1 -1.3 -3.35 -2.0 -2.8 -6.05 -5.05 M-3.1 -5.1 L-3.15 -4.75 -3.0 -4.55 -2.75 -4.35 -2.2 -4.35 -1.55 -4.55 -2.2 -4.35 -2.75 -4.35 -3.0 -4.55 -3.15 -4.75 -3.1 -5.1" fill="#191919" fill-rule="evenodd" stroke="none"/>
    <path d="M-0.45 -1.95 L-1.45 -0.8 Q-3.75 -1.8 -6.05 -3.25 L-6.05 -5.05 -2.0 -2.8 -1.3 -3.35 -0.35 -2.3 -0.25 -2.15 -0.45 -1.95" fill="url(#gradient8)" fill-rule="evenodd" stroke="none"/>
    <path d="M-0.25 -2.15 L-0.2 -2.1 -0.45 -1.95 -0.25 -2.15" fill="#746e69" fill-rule="evenodd" stroke="none"/>
    <path d="M-4.05 -13.2 Q-2.45 -16.2 2.15 -15.5 5.3 -14.9 7.15 -13.4 8.3 -12.45 9.1 -11.2 M-4.05 -13.2 Q-4.75 -12.2 -4.9 -10.75" fill="none" stroke="#022e33" stroke-linecap="round" stroke-linejoin="round" stroke-width="1.0"/>
    <path d="M6.15 -6.1 L5.45 -5.45 3.5 -5.25 M5.85 -8.95 L6.75 -10.95 9.1 -11.2" fill="none" stroke="url(#gradient9)" stroke-linecap="round" stroke-linejoin="round" stroke-width="0.6000000000000001"/>
    <path d="M3.5 -3.6 Q4.2 -2.75 5.9 -2.45 L6.55 -2.35 M0.85 -7.05 L3.5 -5.25 M0.35 -8.0 L0.4 -7.95 0.7 -7.35 M-1.55 -4.55 L-1.4 -4.4 M2.6 -1.4 L5.5 -0.95" fill="none" stroke="#000000" stroke-linecap="round" stroke-linejoin="round" stroke-width="1.0"/>
    <path d="M0.4 -7.95 L0.4 -8.0 0.0 -8.75 -0.05 -8.8 -0.05 -8.85 -0.35 -9.05 M0.7 -7.35 L0.85 -7.05 0.75 -6.3 -0.5 -5.7 -0.55 -5.2 -0.95 -4.8 -1.55 -4.55 -2.2 -4.35 -2.75 -4.35 -3.0 -4.55 -3.15 -4.75 -3.1 -5.1 -3.1 -5.3 -3.05 -5.35 -2.7 -5.65 -1.45 -6.1 -1.25 -6.1 -0.95 -6.1 -0.9 -6.1 -0.5 -5.75 -0.5 -5.7 M-5.6 -9.25 Q-6.05 -8.75 -5.95 -8.1 -5.95 -6.9 -5.45 -6.3 L-4.75 -5.8 -4.4 -5.7 -3.1 -5.1" fill="none" stroke="#111111" stroke-linecap="round" stroke-linejoin="round" stroke-width="1.0"/>
    <path d="M6.05 0.85 L5.9 0.85 5.2 0.95 4.8 0.95 3.95 0.95 3.1 0.75 1.1 -0.55 0.45 -1.25 0.05 -1.75 -0.2 -2.1 -0.25 -2.15 -0.35 -2.3 -1.3 -3.35 -2.15 -4.1 M-0.55 -4.75 L1.05 -3.15 1.6 -2.4 2.35 -1.6 2.6 -1.4 Q3.15 -1.0 3.75 -0.85 L4.5 -0.75 4.75 -0.7 5.45 -0.7 7.2 -1.05 Q9.2 0.2 6.05 0.85" fill="none" stroke="#080807" stroke-linecap="round" stroke-linejoin="round" stroke-opacity="0.8784314" stroke-width="1.0"/>
    <path d="M1.1 -0.55 L1.65 -1.0 1.75 -1.05 2.25 -1.45 2.35 -1.6 M3.75 -0.85 L3.1 0.75 M4.75 -0.7 L4.8 0.95 M-0.35 -2.3 L1.05 -3.15" fill="none" stroke="#080807" stroke-linecap="round" stroke-linejoin="round" stroke-opacity="0.8784314" stroke-width="0.30000000000000004"/>
    <path d="M9.55 -0.65 L9.55 -0.55 Q9.55 0.25 8.95 0.85 8.35 1.4 7.5 1.4 L7.45 1.4 Q6.65 1.4 6.05 0.85 M0.05 -1.75 L-0.45 -1.95 -1.45 -0.8 Q-3.75 -1.8 -6.05 -3.25 L-6.05 -5.05 -6.4 -5.8 -7.05 -5.8 -8.15 -7.6 -8.15 -11.25 Q-8.1 -12.3 -7.2 -12.9 L-6.75 -13.15 -5.6 -13.15 -4.95 -13.15 -4.55 -12.5 M6.55 -2.35 L7.45 -2.55 7.5 -2.55 M5.5 -0.95 L5.8 -1.65 5.95 -1.85 5.95 -1.9 6.05 -2.0 6.55 -2.35 M5.45 -0.7 L5.5 -0.95 M-0.45 -1.95 L-0.25 -2.15 M-6.05 -5.05 L-2.0 -2.8 -1.3 -3.35 M-6.4 -5.8 L-4.75 -5.8" fill="none" stroke="#0f0f0f" stroke-linecap="round" stroke-linejoin="round" stroke-width="1.0"/>
    <path d="M-7.2 -12.9 L-7.2 -19.85 M-5.6 -13.15 L-5.6 -15.95" fill="none" stroke="#111111" stroke-linecap="round" stroke-linejoin="round" stroke-opacity="0.7372549" stroke-width="1.0"/>
    <path d="M-4.9 -10.75 L-4.75 -10.3" fill="none" stroke="#040a2e" stroke-linecap="round" stroke-linejoin="round" stroke-width="1.0"/>
    <path d="M8.25 -6.25 Q7.9 -7.5 6.45 -8.3 5.8 -8.85 3.75 -9.75 4.95 -7.45 5.95 -6.3 6.7 -5.45 7.3 -5.25 L8.25 -6.25 8.35 -6.45 8.35 -6.8 Q7.4 -8.25 5.65 -9.05 L3.75 -9.75" fill="none" stroke="#000000" stroke-linecap="round" stroke-linejoin="round" stroke-width="0.6000000000000001"/>
  </g>
  <defs>
    <radialGradient cx="0" cy="0" gradientTransform="matrix(0.0129, 0.0, 0.0, 0.0129, 5.25, -11.3)" gradientUnits="userSpaceOnUse" id="gradient0" r="819.2" spreadMethod="pad">
      <stop offset="0.0" stop-color="#e8c06f"/>
      <stop offset="1.0" stop-color="#02b1c3"/>
      <stop offset="1.0" stop-color="#2c1b38"/>
    </radialGradient>
    <radialGradient cx="0" cy="0" gradientTransform="matrix(0.0108, 0.0, 0.0, 0.0108, 7.4, -9.25)" gradientUnits="userSpaceOnUse" id="gradient1" r="819.2" spreadMethod="pad">
      <stop offset="0.0" stop-color="#e8c06f"/>
      <stop offset="1.0" stop-color="#02b1c3"/>
      <stop offset="1.0" stop-color="#2c1b38"/>
    </radialGradient>
    <radialGradient cx="0" cy="0" gradientTransform="matrix(0.0096, 0.0, 0.0, 0.0096, 2.2, -10.5)" gradientUnits="userSpaceOnUse" id="gradient2" r="819.2" spreadMethod="pad">
      <stop offset="0.0" stop-color="#cccccc"/>
      <stop offset="1.0" stop-color="#666666"/>
    </radialGradient>
    <radialGradient cx="0" cy="0" gradientTransform="matrix(0.0058, 0.0, 0.0, 0.0058, 2.65, -2.65)" gradientUnits="userSpaceOnUse" id="gradient3" r="819.2" spreadMethod="pad">
      <stop offset="0.0" stop-color="#333333"/>
      <stop offset="1.0" stop-color="#000000"/>
    </radialGradient>
    <radialGradient cx="0" cy="0" gradientTransform="matrix(0.0043, 0.0, 0.0, 0.0043, 8.4, -1.05)" gradientUnits="userSpaceOnUse" id="gradient4" r="819.2" spreadMethod="pad">
      <stop offset="0.0" stop-color="#333333"/>
      <stop offset="1.0" stop-color="#000000"/>
    </radialGradient>
    <radialGradient cx="0" cy="0" gradientTransform="matrix(0.0056, 0.0, 0.0, 0.0056, -7.0, -9.7)" gradientUnits="userSpaceOnUse" id="gradient5" r="819.2" spreadMethod="pad">
      <stop offset="0.0" stop-color="#333333"/>
      <stop offset="1.0" stop-color="#000000"/>
    </radialGradient>
    <radialGradient cx="0" cy="0" gradientTransform="matrix(0.0049, 0.0, 0.0, 0.0049, 5.85, -14.05)" gradientUnits="userSpaceOnUse" id="gradient6" r="819.2" spreadMethod="pad">
      <stop offset="0.0" stop-color="#4d4946"/>
      <stop offset="1.0" stop-color="#3c3b38"/>
      <stop offset="1.0" stop-color="#333333"/>
    </radialGradient>
    <radialGradient cx="0" cy="0" gradientTransform="matrix(0.0129, 0.0, 0.0, 0.0129, 5.25, -11.3)" gradientUnits="userSpaceOnUse" id="gradient7" r="819.2" spreadMethod="pad">
      <stop offset="0.0" stop-color="#3e244e"/>
      <stop offset="1.0" stop-color="#2c1b38"/>
    </radialGradient>
    <radialGradient cx="0" cy="0" gradientTransform="matrix(0.0056, 0.0, 0.0, 0.0056, -2.5, -2.1)" gradientUnits="userSpaceOnUse" id="gradient8" r="819.2" spreadMethod="pad">
      <stop offset="0.0" stop-color="#333333"/>
      <stop offset="1.0" stop-color="#000000"/>
    </radialGradient>
    <radialGradient cx="0" cy="0" gradientTransform="matrix(0.0173, 0.0, 0.0, 0.0173, 1.3, -9.2)" gradientUnits="userSpaceOnUse" id="gradient9" r="819.2" spreadMethod="pad">
      <stop offset="0.0" stop-color="#333333"/>
      <stop offset="1.0" stop-color="#000000"/>
    </radialGradient>
  </defs>
</svg>
