<?xml version="1.0" encoding="UTF-8" standalone="no"?>
<svg xmlns:ffdec="https://www.free-decompiler.com/flash" xmlns:xlink="http://www.w3.org/1999/xlink" ffdec:objectType="shape" height="22.05px" width="31.45px" xmlns="http://www.w3.org/2000/svg">
  <g transform="matrix(1.0, 0.0, 0.0, 1.0, 14.05, 18.4)">
    <path d="M11.85 -3.85 Q8.05 -3.45 3.05 -5.55 -2.3 -9.0 -0.2 -13.7 L0.15 -14.35 Q4.3 -13.6 7.65 -10.8 11.25 -7.8 11.85 -3.85" fill="#6e1719" fill-rule="evenodd" stroke="none"/>
    <path d="M1.05 -12.65 L-0.15 -12.0 0.4 -14.7 3.0 -13.85 Q5.85 -12.75 7.1 -11.65 10.1 -8.85 11.3 -6.3 11.95 -5.0 11.85 -4.2 L9.85 -4.1 Q9.95 -5.25 9.35 -6.8 8.15 -9.9 4.75 -11.85 2.65 -13.05 1.05 -12.65" fill="#f04464" fill-rule="evenodd" stroke="none"/>
    <path d="M-0.05 -12.05 L-0.15 -12.45 0.8 -12.65 1.9 -12.75 2.9 -12.65 3.85 -12.45 5.05 -11.75 6.65 -10.7 8.6 -8.5 9.95 -6.65 Q10.6 -5.5 10.85 -4.15 L7.4 -4.6 7.25 -5.4 Q7.4 -6.0 6.1 -7.9 4.8 -9.85 2.15 -10.05 0.85 -10.15 0.6 -9.35 L0.6 -8.55 -0.05 -10.15 0.0 -11.7 0.2 -11.7 -0.05 -12.05" fill="#95392a" fill-rule="evenodd" stroke="none"/>
    <path d="M5.7 -6.6 L5.25 -7.6 4.25 -8.35 2.75 -8.95 Q2.2 -9.05 1.75 -8.35 L1.4 -7.6 0.55 -8.65 0.25 -8.95 -0.05 -9.45 Q-0.05 -9.8 0.3 -10.45 L0.9 -11.15 3.05 -11.3 5.0 -10.35 7.25 -8.4 Q8.5 -6.8 8.9 -4.1 L5.9 -4.9 5.95 -5.6 5.7 -6.6" fill="#81190e" fill-opacity="0.5647059" fill-rule="evenodd" stroke="none"/>
    <path d="M6.0 -11.6 Q7.7 -10.35 9.05 -8.2 L10.45 -5.6 10.85 -4.15 9.95 -4.05 8.95 -6.65 Q7.7 -9.45 6.15 -10.55 4.6 -11.7 3.45 -11.95 L1.65 -12.15 0.3 -11.8 -0.1 -11.4 0.2 -13.15 2.15 -13.1 Q4.4 -12.8 6.0 -11.6" fill="#ec573d" fill-opacity="0.58431375" fill-rule="evenodd" stroke="none"/>
    <path d="M6.45 -8.3 Q7.45 -7.1 8.0 -4.25 4.35 -5.3 3.7 -5.7 L2.25 -6.6 Q1.3 -7.25 1.25 -7.55 L0.6 -8.0 Q0.05 -8.25 0.15 -8.5 L0.2 -9.3 Q0.15 -9.85 0.45 -9.95 L2.0 -10.55 3.1 -10.3 4.4 -9.75 6.45 -8.3" fill="#6e1719" fill-opacity="0.49019608" fill-rule="evenodd" stroke="none"/>
    <path d="M1.9 -8.7 L3.2 -8.5 Q4.45 -8.15 5.1 -7.35 6.15 -6.1 5.95 -5.1 4.0 -5.7 2.95 -6.2 2.15 -6.65 1.6 -7.2 1.05 -7.75 1.3 -7.9 L1.9 -8.7" fill="#000000" fill-opacity="0.20392157" fill-rule="evenodd" stroke="none"/>
    <path d="M-4.05 -4.6 L-0.1 -3.8 Q3.7 -2.6 3.1 -0.9 2.55 0.55 0.5 0.25 -1.3 0.0 -3.15 -1.15 L-4.05 -4.6" fill="#000000" fill-rule="evenodd" stroke="none"/>
    <path d="M-4.05 -4.6 L-3.15 -1.15 Q-1.3 0.0 0.5 0.25 2.55 0.55 3.1 -0.9 3.7 -2.6 -0.1 -3.8 L-4.05 -4.6 Z" fill="none" stroke="#000000" stroke-linecap="round" stroke-linejoin="round" stroke-width="1.0"/>
    <path d="M-0.1 -14.4 Q-2.2 -9.65 3.15 -6.25 8.3 -4.1 11.95 -4.55 L12.9 -4.55 Q15.2 -3.1 16.1 -1.0 L16.45 0.0 16.4 2.1 9.85 3.05 8.95 2.65 6.1 3.15 4.65 2.9 Q2.15 -1.2 -3.65 -3.35 L-4.65 -3.0 -5.2 -2.3 -7.3 -2.9 -7.85 -3.45 -11.25 -4.4 -13.15 -6.45 -13.5 -9.6 -12.25 -9.8 -11.95 -12.1 -10.85 -11.65 -9.8 -10.1 -6.85 -9.95 -3.9 -8.55 -7.55 -13.25 -9.7 -13.6 -10.45 -14.2 -11.25 -14.65 -10.1 -16.7 -7.6 -17.75 Q-4.85 -18.1 -2.55 -17.65 -0.3 -17.05 0.65 -15.75 L-0.1 -14.4" fill="url(#gradient0)" fill-rule="evenodd" stroke="none"/>
    <path d="M11.95 -4.55 Q11.35 -8.5 7.75 -11.5 4.4 -14.25 0.25 -15.05" fill="none" stroke="#752325" stroke-linecap="round" stroke-linejoin="round" stroke-width="1.0"/>
    <path d="M-10.85 -11.65 L-10.45 -14.2 -9.7 -13.6 -7.55 -13.25 -3.9 -8.55 -6.85 -9.95 -9.8 -10.1 -10.85 -11.65" fill="#1b1b1b" fill-rule="evenodd" stroke="none"/>
    <path d="M16.45 0.0 L16.1 -1.0 Q15.2 -3.1 12.9 -4.55 L11.95 -4.55 Q8.3 -4.1 3.15 -6.25 -2.2 -9.65 -0.1 -14.4 L0.65 -15.75 Q-0.3 -17.05 -2.55 -17.65 -4.85 -18.1 -7.6 -17.75 L-10.1 -16.7 -11.25 -14.65 -10.45 -14.2 M11.55 2.85 L9.85 3.05 8.95 2.65 6.1 3.15 4.65 2.9 Q2.15 -1.2 -3.65 -3.35 L-4.65 -3.0 -5.2 -2.3 -8.25 -3.2 -12.9 -5.7 -13.55 -6.75 -13.25 -9.9 -12.25 -9.8 -11.95 -12.1 -10.85 -11.65 M7.65 -3.15 L8.2 -3.15 M4.45 -1.7 L5.15 -1.4 5.45 -0.7 5.15 0.0 4.45 0.3 3.75 0.0 Q3.45 -0.3 3.45 -0.7 3.45 -1.1 3.75 -1.4 L4.45 -1.7 M7.75 -0.55 Q8.25 -0.55 8.75 -0.15 9.2 0.3 9.2 0.9 9.2 1.55 8.75 1.9 L7.75 2.35 Q7.15 2.35 6.7 1.9 6.3 1.55 6.3 0.9 6.3 0.25 6.7 -0.15 7.2 -0.55 7.75 -0.55 Z" fill="none" stroke="#150d0d" stroke-linecap="round" stroke-linejoin="round" stroke-width="1.0"/>
    <path d="M11.55 2.85 L16.9 2.25 16.8 0.95 16.45 0.0 11.55 0.65 11.55 2.85 Z" fill="none" stroke="#150d0d" stroke-linecap="round" stroke-linejoin="round" stroke-width="1.0"/>
    <path d="M-8.25 -17.45 Q-8.85 -16.4 -6.45 -15.7 M-10.45 -14.2 L-9.7 -13.6 -7.55 -13.25 -3.9 -8.55 -6.85 -9.95 -9.8 -10.1 -10.85 -11.65 M-10.1 -16.7 Q-10.3 -15.4 -7.6 -14.65 M-12.25 -9.8 L-11.15 -7.9 -7.95 -6.7 -7.35 -5.05 -7.3 -2.9" fill="none" stroke="#150d0d" stroke-linecap="round" stroke-linejoin="round" stroke-width="1.0"/>
    <path d="M-2.2 -14.65 L-4.15 -15.4 -4.65 -14.25 -3.65 -13.65 M-4.65 -14.25 L-5.2 -13.15 M-4.95 -15.7 L-4.15 -15.4" fill="none" stroke="#ff4444" stroke-linecap="round" stroke-linejoin="round" stroke-width="1.0"/>
    <path d="M-1.95 -4.75 L0.5 -3.5" fill="none" stroke="#150d0d" stroke-linecap="round" stroke-linejoin="round" stroke-width="1.0"/>
  </g>
  <defs>
    <linearGradient gradientTransform="matrix(0.0101, 0.0, 0.0, 0.0101, 8.1, -7.35)" gradientUnits="userSpaceOnUse" id="gradient0" spreadMethod="pad" x1="-819.2" x2="819.2">
      <stop offset="0.0" stop-color="#3b2424"/>
      <stop offset="1.0" stop-color="#6e4747"/>
    </linearGradient>
  </defs>
</svg>
