<?xml version="1.0" encoding="UTF-8" standalone="no"?>
<svg xmlns:ffdec="https://www.free-decompiler.com/flash" xmlns:xlink="http://www.w3.org/1999/xlink" ffdec:objectType="shape" height="20.25px" width="25.25px" xmlns="http://www.w3.org/2000/svg">
  <g transform="matrix(1.0, 0.0, 0.0, 1.0, 13.15, 18.95)">
    <path d="M-5.2 -7.85 Q-5.25 -8.2 -7.85 -9.7 L-7.8 -10.5 -5.8 -13.1 Q-0.4 -12.25 1.5 -16.85 L3.95 -15.25 Q7.55 -12.95 9.1 -10.1 9.9 -8.55 10.2 -6.85 L10.25 -4.75 10.25 -4.45 10.15 -4.45 Q7.05 -4.8 6.4 -1.15 L5.25 -2.15 3.0 -1.85 1.9 -2.75 0.85 -3.4 0.9 -4.8 Q0.5 -6.95 -2.5 -9.2 -5.9 -10.3 -4.95 -7.55 L-5.2 -7.85" fill="#605c82" fill-rule="evenodd" stroke="none"/>
    <path d="M0.85 -3.4 L1.9 -2.75 3.0 -1.85 Q2.3 -1.6 1.65 -0.95 L1.1 0.8 -0.3 -0.2 -1.55 0.0 -3.25 -1.1 -1.55 -3.1 Q-0.5 -4.0 0.85 -3.4" fill="#3a3c5e" fill-rule="evenodd" stroke="none"/>
    <path d="M-4.95 -7.55 Q-5.9 -10.3 -2.5 -9.2 0.5 -6.95 0.9 -4.8 L0.85 -3.4 Q-0.5 -4.0 -1.55 -3.1 L-4.95 -7.55" fill="#555889" fill-rule="evenodd" stroke="none"/>
    <path d="M6.4 -1.15 Q7.05 -4.8 10.15 -4.45 L10.25 -4.45 10.2 -4.1 10.2 -3.85 10.2 -3.8 10.4 -0.2 Q7.6 -0.05 6.7 -0.85 L6.4 -1.15" fill="#5a5b4f" fill-rule="evenodd" stroke="none"/>
    <path d="M10.2 -6.85 Q9.9 -8.55 9.1 -10.1 7.55 -12.95 3.95 -15.25 L1.5 -16.85 Q-0.4 -12.25 -5.8 -13.1 L-7.8 -10.5 -7.85 -9.7 Q-5.25 -8.2 -5.2 -7.85 M0.85 -3.4 L1.9 -2.75 3.0 -1.85 5.25 -2.15 6.4 -1.15 M-1.55 -3.1 L-4.95 -7.55" fill="none" stroke="#2f2d31" stroke-linecap="round" stroke-linejoin="round" stroke-width="1.0"/>
    <path d="M-4.95 -7.55 Q-5.9 -10.3 -2.5 -9.2 0.5 -6.95 0.9 -4.8 L0.85 -3.4" fill="none" stroke="#3c383f" stroke-linecap="round" stroke-linejoin="round" stroke-width="1.0"/>
    <path d="M3.0 -1.85 Q2.3 -1.6 1.65 -0.95 L1.1 0.8 -0.3 -0.2 -1.55 0.0 -3.25 -1.1" fill="none" stroke="#262527" stroke-linecap="round" stroke-linejoin="round" stroke-width="1.0"/>
    <path d="M6.4 -1.15 Q7.05 -4.8 10.15 -4.45 M10.2 -4.1 L10.2 -3.85 10.2 -3.8 10.4 -0.2 Q7.6 -0.05 6.7 -0.85 L6.4 -1.15" fill="none" stroke="#41403f" stroke-linecap="round" stroke-linejoin="round" stroke-width="1.0"/>
    <path d="M10.25 -4.45 L10.25 -4.75 10.2 -6.85" fill="none" stroke="#39353c" stroke-linecap="round" stroke-linejoin="round" stroke-width="1.0"/>
    <path d="M10.15 -4.45 L10.25 -4.45 10.2 -4.1" fill="none" stroke="#202e2c" stroke-linecap="round" stroke-linejoin="round" stroke-width="1.0"/>
    <path d="M-5.2 -7.85 L-4.95 -7.55" fill="none" stroke="#232125" stroke-linecap="round" stroke-linejoin="round" stroke-width="1.0"/>
    <path d="M-3.25 -1.1 L-1.55 -3.1 Q-0.5 -4.0 0.85 -3.4" fill="none" stroke="#262527" stroke-linecap="round" stroke-linejoin="round" stroke-width="1.2000000000000002"/>
    <path d="M-0.75 -18.15 L0.15 -17.65 2.1 -16.3 1.35 -15.45 -0.1 -15.9 Q-2.5 -16.8 -4.2 -18.0 L-0.75 -18.15 M-1.45 -13.8 L-2.2 -13.15 Q-4.75 -14.0 -7.15 -15.3 L-8.05 -15.8 -4.8 -15.95 Q-3.6 -15.4 -2.35 -14.5 L-1.45 -13.8" fill="#6b6b62" fill-rule="evenodd" stroke="none"/>
    <path d="M10.2 -3.6 L7.8 -4.45 Q6.5 -4.7 5.8 -3.65 L1.7 -7.35 Q1.3 -8.1 1.25 -8.85 1.15 -9.95 1.55 -11.05 L3.75 -11.3 Q5.25 -11.3 4.55 -13.15 L4.0 -15.0 3.9 -15.2 Q3.45 -17.1 6.25 -15.65 9.75 -12.8 10.95 -10.1 L11.35 -9.0 10.35 -9.6 10.3 -9.6 10.2 -9.65 9.95 -9.75 8.85 -10.2 7.1 -10.4 Q5.25 -9.9 5.9 -7.85 L6.7 -6.75 Q8.0 -5.2 10.1 -4.7 L10.3 -4.65 10.5 -4.65 10.3 -4.0 10.2 -3.65 10.2 -3.6" fill="#748785" fill-rule="evenodd" stroke="none"/>
    <path d="M10.15 -5.2 Q8.1 -5.4 7.35 -7.05 6.7 -8.65 8.15 -9.3 L9.5 -9.25 10.15 -9.0 Q11.25 -8.4 11.6 -6.65 11.45 -5.3 10.25 -5.25 L10.15 -5.2" fill="#4b6c68" fill-rule="evenodd" stroke="none"/>
    <path d="M-6.5 -12.05 Q-9.35 -12.85 -12.1 -14.5 -11.6 -15.35 -9.4 -15.0 -7.15 -13.95 -5.9 -12.85 L-6.5 -12.05 M-7.85 -10.45 L-7.05 -9.1 Q-9.15 -9.45 -11.2 -10.8 -12.65 -12.15 -12.65 -12.95 L-7.85 -10.45" fill="#6a6a61" fill-rule="evenodd" stroke="none"/>
    <path d="M-0.75 -18.15 L0.15 -17.65 2.1 -16.3 1.35 -15.45 -0.1 -15.9 Q-2.5 -16.8 -4.2 -18.0 L-0.75 -18.15 M-6.5 -12.05 Q-9.35 -12.85 -12.1 -14.5 -11.6 -15.35 -9.4 -15.0 -7.15 -13.95 -5.9 -12.85 L-6.5 -12.05 M-1.45 -13.8 L-2.2 -13.15 Q-4.75 -14.0 -7.15 -15.3 L-8.05 -15.8 -4.8 -15.95 Q-3.6 -15.4 -2.35 -14.5 L-1.45 -13.8 M-7.85 -10.45 L-12.65 -12.95 Q-12.65 -12.15 -11.2 -10.8 -9.15 -9.45 -7.05 -9.1 L-7.85 -10.45" fill="none" stroke="#41403f" stroke-linecap="round" stroke-linejoin="round" stroke-width="1.0"/>
    <path d="M11.35 -9.0 L10.95 -10.1 Q9.75 -12.8 6.25 -15.65 3.45 -17.1 3.9 -15.2 L4.0 -15.0 4.55 -13.15 Q5.25 -11.3 3.75 -11.3 L1.55 -11.05 Q1.15 -9.95 1.25 -8.85 1.3 -8.1 1.7 -7.35 L5.8 -3.65 Q6.5 -4.7 7.8 -4.45 L10.2 -3.6 10.25 -3.6 10.2 -3.65 10.3 -4.0 10.5 -4.65" fill="none" stroke="#324541" stroke-linecap="round" stroke-linejoin="round" stroke-width="1.0"/>
    <path d="M10.5 -4.65 L10.3 -4.65 10.1 -4.7 Q8.0 -5.2 6.7 -6.75 L5.9 -7.85 Q5.25 -9.9 7.1 -10.4 L8.85 -10.2 9.95 -9.75 10.2 -9.65 10.3 -9.6 10.35 -9.6 11.35 -9.0" fill="none" stroke="#324541" stroke-linecap="round" stroke-linejoin="round" stroke-width="1.1"/>
    <path d="M10.15 -5.2 Q8.1 -5.4 7.35 -7.05 6.7 -8.65 8.15 -9.3 L9.5 -9.25 10.15 -9.0 Q11.25 -8.4 11.6 -6.65 11.45 -5.3 10.25 -5.25 L10.15 -5.2 Z" fill="none" stroke="#38504a" stroke-linecap="round" stroke-linejoin="round" stroke-width="1.0"/>
    <path d="M0.6 -3.4 Q0.8 -5.35 2.95 -5.7 4.45 -5.7 5.5 -3.75 6.45 -2.0 4.75 -1.1 3.15 -0.45 2.15 -1.1 0.55 -2.0 0.6 -3.4" fill="#558983" fill-rule="evenodd" stroke="none"/>
    <path d="M9.75 -7.4 L11.15 -6.55" fill="none" stroke="#4fdfc7" stroke-linecap="round" stroke-linejoin="round" stroke-width="1.0"/>
    <path d="M0.6 -3.4 Q0.8 -5.35 2.95 -5.7 4.45 -5.7 5.5 -3.75 6.45 -2.0 4.75 -1.1 3.15 -0.45 2.15 -1.1 0.55 -2.0 0.6 -3.4 Z" fill="none" stroke="#38504a" stroke-linecap="round" stroke-linejoin="round" stroke-width="1.0"/>
    <path d="M2.95 -3.75 Q3.9 -3.75 4.4 -2.85 4.95 -2.05 4.35 -1.3 3.8 -0.55 2.7 -0.9 1.3 -2.05 1.9 -3.2 2.15 -4.0 2.95 -3.75" fill="#528378" fill-rule="evenodd" stroke="none"/>
    <path d="M2.95 -3.75 Q3.9 -3.75 4.4 -2.85 4.95 -2.05 4.35 -1.3 3.8 -0.55 2.7 -0.9 1.3 -2.05 1.9 -3.2 2.15 -4.0 2.95 -3.75 Z" fill="none" stroke="#324541" stroke-linecap="round" stroke-linejoin="round" stroke-width="1.0"/>
  </g>
</svg>
