<?xml version="1.0" encoding="UTF-8" standalone="no"?>
<svg xmlns:ffdec="https://www.free-decompiler.com/flash" xmlns:xlink="http://www.w3.org/1999/xlink" ffdec:objectType="shape" height="20.1px" width="25.5px" xmlns="http://www.w3.org/2000/svg">
  <g transform="matrix(1.0, 0.0, 0.0, 1.0, 5.3, 2.9)">
    <path d="M13.15 7.75 L20.2 5.85 20.2 13.0 11.25 10.4 13.15 7.75" fill="url(#gradient0)" fill-rule="evenodd" stroke="none"/>
    <path d="M6.75 1.65 L5.25 -0.05 5.25 -0.65 5.25 -2.4 11.45 1.45 13.35 0.7 Q14.0 3.05 14.25 5.5 L13.15 7.75 5.4 5.7 4.9 4.25 4.9 3.75 8.95 4.2 6.75 1.65 M-0.7 2.85 L1.4 3.15 1.05 5.3 -0.75 6.15 -2.35 4.95 -4.8 3.15 -3.95 2.35 -0.7 2.85 M12.8 10.75 L13.7 10.6 Q14.8 12.55 13.05 15.25 L12.25 16.25 9.25 16.65 7.95 15.1 6.8 14.95 2.4 14.25 1.75 13.65 0.25 11.65 1.9 10.45 3.2 12.05 5.8 12.55 5.85 12.5 7.25 11.75 8.8 12.25 10.05 12.25 11.05 11.2 12.8 10.75 M9.95 14.15 L11.6 12.35 9.95 14.15 M10.9 15.2 L11.95 14.1 10.9 15.2" fill="#2c2c2c" fill-rule="evenodd" stroke="none"/>
    <path d="M6.75 1.65 L8.95 4.2 4.9 3.75 4.9 4.25 5.4 5.7 4.4 6.7 1.05 5.3 4.4 6.7 3.35 7.65 4.55 9.45 8.3 10.65 8.8 12.25 7.25 11.75 5.85 12.5 5.8 12.55 3.2 12.05 1.9 10.45 1.0 9.15 -0.8 8.45 -1.55 6.5 -0.75 6.15 1.05 5.3 1.4 3.15 1.6 2.25 6.75 1.65 M3.6 10.45 L1.5 7.7 3.6 10.45" fill="#5b0404" fill-rule="evenodd" stroke="none"/>
    <path d="M5.25 -0.65 L5.25 -0.05 6.75 1.65 1.6 2.25 1.4 3.15 -0.7 2.85 0.55 1.0 Q2.8 -0.35 5.25 -0.65 M6.8 14.95 L6.0 16.7 Q3.55 16.45 1.3 15.35 L0.95 13.45 -0.9 12.8 -1.8 10.1 -3.05 9.4 -3.45 6.55 -2.35 4.95 -0.75 6.15 -1.55 6.5 -0.8 8.45 1.0 9.15 1.9 10.45 0.25 11.65 1.75 13.65 2.4 14.25 6.8 14.95 M1.75 13.65 L0.95 13.45 1.75 13.65" fill="#460000" fill-rule="evenodd" stroke="none"/>
    <path d="M5.4 5.7 L13.15 7.75 Q13.15 9.65 12.8 10.75 L11.05 11.2 10.05 12.25 8.8 12.25 8.3 10.65 4.55 9.45 3.35 7.65 4.4 6.7 5.4 5.7" fill="url(#gradient1)" fill-rule="evenodd" stroke="none"/>
    <path d="M5.25 -0.65 Q2.8 -0.35 0.55 1.0 L-0.7 2.85 M6.8 14.95 L6.0 16.7 Q3.55 16.45 1.3 15.35 L0.95 13.45 -0.9 12.8 -1.8 10.1 -3.05 9.4 -3.45 6.55 -2.35 4.95 M0.95 13.45 L1.75 13.65" fill="none" stroke="#1f0000" stroke-linecap="round" stroke-linejoin="round" stroke-width="1.0"/>
    <path d="M1.4 3.15 L1.6 2.25 6.75 1.65 M5.8 12.55 L3.2 12.05 1.9 10.45 1.0 9.15 -0.8 8.45 -1.55 6.5 -0.75 6.15 M1.05 5.3 L4.4 6.7 5.4 5.7 M8.8 12.25 L8.3 10.65 4.55 9.45 3.35 7.65 4.4 6.7" fill="none" stroke="#330000" stroke-linecap="round" stroke-linejoin="round" stroke-width="1.0"/>
    <path d="M11.95 14.1 L10.9 15.2 M11.6 12.35 L9.95 14.15" fill="none" stroke="#171717" stroke-linecap="round" stroke-linejoin="round" stroke-width="1.0"/>
    <path d="M1.5 7.7 L3.6 10.45" fill="none" stroke="#410000" stroke-linecap="round" stroke-linejoin="round" stroke-width="1.0"/>
    <path d="M13.15 7.75 Q13.15 9.65 12.8 10.75" fill="none" stroke="#5b4900" stroke-linecap="round" stroke-linejoin="round" stroke-width="1.0"/>
    <path d="M9.95 2.0 L5.25 -0.6 5.25 -2.4 11.45 1.45 9.95 2.0 M12.2 1.2 L13.35 0.7 Q14.0 3.05 14.25 5.5 L13.15 7.75 11.65 7.35 12.75 5.3 12.2 1.2 M-3.9 3.8 L-4.8 3.15 -3.95 2.35 1.4 3.15 1.2 4.45 -3.9 3.8" fill="#483a00" fill-rule="evenodd" stroke="none"/>
    <path d="M5.25 -0.6 L5.25 -0.05 8.95 4.2 9.0 4.2 9.55 2.15 9.95 2.0 11.45 1.45 12.2 1.2 13.35 0.7 Q14.0 3.05 14.25 5.5 L13.15 7.75 11.65 7.35 5.4 5.7 4.9 4.25 4.9 3.75 8.95 4.2 M5.25 -0.6 L5.25 -2.4 11.45 1.45 M7.95 15.1 L9.25 16.65 12.25 16.25 13.05 15.25 Q14.8 12.55 13.7 10.6 L11.05 11.2 10.05 12.25 8.8 12.25 7.25 11.75 5.85 12.5 5.8 12.55 7.95 15.1 2.4 14.25 1.75 13.65 0.25 11.65 1.95 10.45 M1.2 4.45 L1.05 5.3 -0.75 6.15 -3.9 3.8 -4.8 3.15 -3.95 2.35 1.4 3.15 1.2 4.45" fill="none" stroke="#171717" stroke-linecap="round" stroke-linejoin="round" stroke-width="1.0"/>
    <path d="M1.95 10.45 L1.0 9.15 M1.95 10.45 L3.2 12.05" fill="none" stroke="#330000" stroke-linecap="round" stroke-linejoin="round" stroke-width="1.0"/>
  </g>
  <defs>
    <linearGradient gradientTransform="matrix(0.0061, 0.0, 0.0, 0.0049, 14.95, 12.6)" gradientUnits="userSpaceOnUse" id="gradient0" spreadMethod="pad" x1="-819.2" x2="819.2">
      <stop offset="0.0" stop-color="#ffee00" stop-opacity="0.5882353"/>
      <stop offset="1.0" stop-color="#ffd200" stop-opacity="0.0"/>
      <stop offset="1.0" stop-color="#f7ec9a" stop-opacity="0.0"/>
    </linearGradient>
    <linearGradient gradientTransform="matrix(0.0059, 0.0, 0.0, 0.004, 8.2, 8.9)" gradientUnits="userSpaceOnUse" id="gradient1" spreadMethod="pad" x1="-819.2" x2="819.2">
      <stop offset="0.0" stop-color="#ffee00"/>
      <stop offset="0.4196078431372549" stop-color="#f7ec9a"/>
      <stop offset="1.0" stop-color="#ffd200"/>
    </linearGradient>
  </defs>
</svg>
