<?xml version="1.0" encoding="UTF-8" standalone="no"?>
<svg xmlns:ffdec="https://www.free-decompiler.com/flash" xmlns:xlink="http://www.w3.org/1999/xlink" ffdec:objectType="shape" height="14.05px" width="17.6px" xmlns="http://www.w3.org/2000/svg">
  <g transform="matrix(1.0, 0.0, 0.0, 1.0, 5.7, 15.35)">
    <path d="M3.7 -8.7 L7.0 -8.65 9.1 -11.8 9.6 -13.2 1.8 -12.6 2.5 -8.75 1.7 -7.3 0.9 -5.8 -1.35 -6.75 -1.4 -6.8 Q-3.8 -9.6 -4.3 -10.55 -4.85 -11.6 -5.05 -12.75 -5.3 -13.95 -3.15 -14.75 -1.0 -15.55 4.6 -14.7 8.05 -14.2 9.6 -13.2 10.55 -12.6 10.8 -11.8 L11.6 -7.75 11.9 -3.2 11.2 -2.5 Q10.2 -1.7 9.2 -1.5 7.45 -0.95 5.55 -1.85 L5.1 -2.05 Q3.85 -3.45 3.55 -5.4 L3.7 -8.7" fill="url(#gradient0)" fill-rule="evenodd" stroke="none"/>
    <path d="M2.5 -8.75 L3.7 -8.75 3.7 -8.7 3.55 -5.4 Q3.85 -3.45 5.1 -2.05 L4.0 -2.25 1.7 -7.3 2.5 -8.75 M-1.4 -6.8 L-1.35 -6.75 -1.35 -6.0 -1.4 -6.8" fill="#1e1e1e" fill-rule="evenodd" stroke="none"/>
    <path d="M-1.35 -6.75 L0.9 -5.8 1.7 -7.3 4.0 -2.25 2.85 -3.15 0.9 -3.9 -0.35 -4.45 Q-1.15 -5.15 -1.35 -6.0 L-1.35 -6.75" fill="#252525" fill-rule="evenodd" stroke="none"/>
    <path d="M3.7 -8.75 Q1.9 -6.45 -2.0 -7.45 -9.65 -15.35 -1.4 -15.35 6.85 -15.45 9.6 -13.2 L9.1 -11.8 7.0 -8.65 3.7 -8.75" fill="url(#gradient1)" fill-rule="evenodd" stroke="none"/>
  </g>
  <defs>
    <linearGradient gradientTransform="matrix(0.0087, 0.0, 0.0, 0.0093, 5.05, -9.0)" gradientUnits="userSpaceOnUse" id="gradient0" spreadMethod="pad" x1="-819.2" x2="819.2">
      <stop offset="0.0" stop-color="#333333"/>
      <stop offset="1.0" stop-color="#000000"/>
    </linearGradient>
    <radialGradient cx="0" cy="0" gradientTransform="matrix(0.0101, 0.0, 0.0, 0.0101, 1.9, -11.15)" gradientUnits="userSpaceOnUse" id="gradient1" r="819.2" spreadMethod="pad">
      <stop offset="0.0" stop-color="#cccccc"/>
      <stop offset="0.0" stop-color="#cccccc"/>
      <stop offset="0.0" stop-color="#333333"/>
      <stop offset="1.0" stop-color="#1f1f1f"/>
    </radialGradient>
  </defs>
</svg>
