<?xml version="1.0" encoding="UTF-8" standalone="no"?>
<svg xmlns:ffdec="https://www.free-decompiler.com/flash" xmlns:xlink="http://www.w3.org/1999/xlink" ffdec:objectType="shape" height="19.85px" width="21.75px" xmlns="http://www.w3.org/2000/svg">
  <g transform="matrix(1.0, 0.0, 0.0, 1.0, 10.8, 18.6)">
    <path d="M7.25 -1.5 Q7.0 -0.7 5.95 -0.65 L2.15 -0.95 Q0.45 0.75 -1.1 0.2 -2.45 -0.25 -3.15 -2.15 -3.8 -4.15 -4.75 -5.3 -5.4 -6.1 -5.6 -7.85 -5.9 -10.35 -4.5 -12.1 -3.0 -14.0 0.3 -14.1 3.55 -14.25 5.1 -12.65 7.3 -10.35 7.65 -9.0 7.35 -8.15 7.65 -7.1 L8.3 -5.35 Q8.25 -4.95 7.35 -4.7 7.35 -4.25 7.8 -3.1 L7.6 -2.45 7.25 -1.5" fill="#a7825e" fill-rule="evenodd" stroke="none"/>
    <path d="M7.25 -1.5 Q7.0 -0.7 5.95 -0.65 L2.15 -0.95 Q0.45 0.75 -1.1 0.2 -2.45 -0.25 -3.15 -2.15 -3.8 -4.15 -4.75 -5.3 -5.4 -6.1 -5.6 -7.85 -5.9 -10.35 -4.5 -12.1 -3.0 -14.0 0.3 -14.1 3.55 -14.25 5.1 -12.65 7.3 -10.35 7.65 -9.0 7.35 -8.15 7.65 -7.1 L8.3 -5.35 Q8.25 -4.95 7.35 -4.7 7.35 -4.25 7.8 -3.1 L7.6 -2.45 7.25 -1.5 Z" fill="none" stroke="#43372c" stroke-linecap="round" stroke-linejoin="round" stroke-width="1.0"/>
    <path d="M7.65 -3.35 L6.8 -3.35" fill="none" stroke="#2f221b" stroke-linecap="round" stroke-linejoin="round" stroke-opacity="0.65882355" stroke-width="1.0"/>
    <path d="M4.65 -7.35 L4.05 -7.55 4.05 -7.6 4.15 -7.9 Q4.4 -8.2 5.0 -8.15 L6.15 -7.9 Q6.35 -7.9 6.0 -7.6 L5.25 -7.4 4.65 -7.35" fill="#dab29c" fill-rule="evenodd" stroke="none"/>
    <path d="M4.95 -7.4 L5.05 -8.2 6.0 -7.95 6.2 -7.95 6.15 -7.7 5.8 -7.55 4.95 -7.4" fill="#1c110b" fill-rule="evenodd" stroke="none"/>
    <path d="M4.1 -7.4 L5.4 -7.25 Q5.95 -7.3 6.05 -7.55" ffdec:has-small-stroke="true" ffdec:original-stroke-width="0.45" fill="none" stroke="#3b2b22" stroke-linecap="round" stroke-linejoin="round" stroke-width="1.0"/>
    <path d="M3.85 -8.05 L4.6 -8.3 5.3 -8.3 5.9 -8.0 6.2 -7.85" ffdec:has-small-stroke="true" ffdec:original-stroke-width="0.45" fill="none" stroke="#3b2b22" stroke-linecap="round" stroke-linejoin="round" stroke-width="1.0"/>
    <path d="M6.1 -8.65 L5.0 -8.8 3.7 -9.0 3.05 -8.75" ffdec:has-small-stroke="true" ffdec:original-stroke-width="0.45" fill="none" stroke="#1d1511" stroke-linecap="round" stroke-linejoin="round" stroke-opacity="0.39215687" stroke-width="1.0"/>
    <path d="M-7.25 -5.1 L-7.2 -5.95 Q-6.95 -6.6 -7.05 -7.05 -7.25 -8.5 -5.4 -8.8 L-3.5 -8.75 Q-1.55 -7.95 -0.9 -6.4 -2.15 -5.55 -2.55 -4.5 -3.05 -3.1 -1.7 -1.7 L-5.6 -2.4 Q-7.5 -3.1 -7.25 -5.1" fill="url(#gradient0)" fill-rule="evenodd" stroke="none"/>
    <path d="M-7.25 -5.1 Q-7.5 -3.1 -5.6 -2.4 L-1.7 -1.7 Q-3.05 -3.1 -2.55 -4.5 -2.15 -5.55 -0.9 -6.4 -1.55 -7.95 -3.5 -8.75 L-5.4 -8.8 Q-7.25 -8.5 -7.05 -7.05 -6.95 -6.6 -7.2 -5.95 L-7.25 -5.1 Z" fill="none" stroke="#1a1717" stroke-linecap="butt" stroke-linejoin="miter-clip" stroke-miterlimit="15.12109375" stroke-width="1.0"/>
    <path d="M-3.85 -16.7 L-3.65 -16.55 -3.45 -16.4 Q-2.05 -17.2 -1.8 -16.25 L-0.75 -13.7 0.8 -12.5 Q1.65 -11.9 1.7 -11.7 L2.5 -10.45 2.55 -9.85 0.4 -9.55 Q-1.6 -9.35 -2.8 -8.4 L-2.8 -7.65 -2.9 -6.95 Q-4.1 -5.35 -7.9 -4.5 -8.85 -5.3 -8.9 -8.3 L-9.2 -8.6 -9.55 -9.05 -9.45 -10.1 -9.2 -10.9 Q-9.0 -13.55 -3.85 -16.7" fill="url(#gradient1)" fill-rule="evenodd" stroke="none"/>
    <path d="M-3.85 -16.7 Q-9.0 -13.55 -9.2 -10.9 L-9.45 -10.1 -9.55 -9.05 -9.2 -8.6 -8.9 -8.3 Q-8.85 -5.3 -7.9 -4.5 -4.1 -5.35 -2.9 -6.95 L-2.8 -7.65 -2.8 -8.4 Q-1.6 -9.35 0.4 -9.55 L2.55 -9.85 2.5 -10.45 1.7 -11.7 Q1.65 -11.9 0.8 -12.5 L-0.75 -13.7 -1.8 -16.25 Q-2.05 -17.2 -3.45 -16.4 L-3.65 -16.55 -3.85 -16.7 Z" fill="none" stroke="#1c1515" stroke-linecap="butt" stroke-linejoin="miter-clip" stroke-miterlimit="15.12109375" stroke-width="1.0"/>
    <path d="M-9.05 -8.65 L-8.7 -8.55 -8.2 -9.25 Q-7.55 -9.95 -6.95 -10.0 L-5.5 -9.75 -3.65 -10.75 -3.65 -11.4 -3.4 -12.4 -2.75 -13.5 -3.45 -16.5" fill="none" stroke="#1e1616" stroke-linecap="round" stroke-linejoin="round" stroke-width="1.0"/>
    <path d="M5.6 -14.35 L6.1 -14.45 6.35 -14.95 Q8.1 -14.4 9.7 -11.55 L6.95 -11.5 6.05 -11.2 4.7 -9.6 2.75 -9.85 1.1 -10.8 Q-0.2 -11.55 -1.45 -11.3 L-3.1 -11.4 -3.85 -12.1 -2.45 -13.2 -1.3 -13.9 0.45 -14.6 1.45 -14.6 2.45 -14.45 3.9 -14.55 5.6 -14.35" fill="url(#gradient2)" fill-rule="evenodd" stroke="none"/>
    <path d="M5.6 -14.35 L3.9 -14.55 2.45 -14.45 1.45 -14.6 0.45 -14.6 -1.3 -13.9 -2.45 -13.2 -3.85 -12.1 -3.1 -11.4 -1.45 -11.3 Q-0.2 -11.55 1.1 -10.8 L2.75 -9.85 4.7 -9.6 6.05 -11.2 6.95 -11.5 9.7 -11.55 Q8.1 -14.4 6.35 -14.95 L6.1 -14.45 5.6 -14.35 Z" fill="none" stroke="#1c1515" stroke-linecap="round" stroke-linejoin="round" stroke-width="1.0"/>
    <path d="M4.15 -14.4 L-1.35 -14.05 Q-3.9 -13.5 -3.6 -15.0 L-3.7 -16.75 Q4.4 -18.3 6.05 -14.75 5.7 -14.3 4.15 -14.4" fill="url(#gradient3)" fill-rule="evenodd" stroke="none"/>
    <path d="M4.15 -14.4 L-1.35 -14.05 Q-3.9 -13.5 -3.6 -15.0 L-3.7 -16.75 Q4.4 -18.3 6.05 -14.75 5.7 -14.3 4.15 -14.4 Z" fill="none" stroke="#1c1515" stroke-linecap="butt" stroke-linejoin="miter-clip" stroke-miterlimit="4.0" stroke-width="1.0"/>
    <path d="M10.25 -1.8 Q9.65 0.55 8.1 0.6 7.25 0.85 3.7 -0.4 2.15 -0.55 0.5 -1.35 -0.9 -2.0 -1.8 -1.9 -3.8 -4.3 -0.8 -6.6 L0.0 -6.05 Q0.4 -5.65 0.45 -5.8 L2.2 -5.5 Q4.6 -3.7 6.3 -4.3 7.3 -4.6 9.5 -5.45 10.85 -4.15 10.25 -1.8" fill="url(#gradient4)" fill-rule="evenodd" stroke="none"/>
    <path d="M10.25 -1.8 Q9.65 0.55 8.1 0.6 7.25 0.85 3.7 -0.4 2.15 -0.55 0.5 -1.35 -0.9 -2.0 -1.8 -1.9 -3.8 -4.3 -0.8 -6.6 L0.0 -6.05 Q0.4 -5.65 0.45 -5.8 L2.2 -5.5 Q4.6 -3.7 6.3 -4.3 7.3 -4.6 9.5 -5.45 10.85 -4.15 10.25 -1.8 Z" fill="none" stroke="#1a1717" stroke-linecap="butt" stroke-linejoin="miter-clip" stroke-miterlimit="15.12109375" stroke-width="1.0"/>
    <path d="M-2.65 -13.3 L-1.7 -11.7 Q-1.1 -10.6 -1.25 -9.95 -1.1 -8.55 -1.85 -7.25 -3.4 -6.75 -4.5 -5.55 -5.6 -4.35 -5.7 -2.9 -7.75 -3.1 -8.2 -3.45 -9.5 -4.4 -9.6 -5.15 L-9.45 -6.1 -9.3 -6.9 -9.05 -7.2 -7.65 -7.5 Q-6.45 -7.8 -6.4 -8.3 L-6.5 -9.0 -6.2 -10.45 -5.75 -11.6 -3.7 -14.8 Q-3.2 -15.6 -1.3 -16.85 -1.4 -15.05 -2.05 -14.3 L-2.65 -13.3" fill="url(#gradient5)" fill-rule="evenodd" stroke="none"/>
    <path d="M-2.65 -13.3 L-1.7 -11.7 Q-1.1 -10.6 -1.25 -9.95 -1.1 -8.55 -1.85 -7.25 -3.4 -6.75 -4.5 -5.55 -5.6 -4.35 -5.7 -2.9 -7.75 -3.1 -8.2 -3.45 -9.5 -4.4 -9.6 -5.15 L-9.45 -6.1 -9.3 -6.9 -9.05 -7.2 -7.65 -7.5 Q-6.45 -7.8 -6.4 -8.3 L-6.5 -9.0 -6.2 -10.45 -5.75 -11.6 -3.7 -14.8 Q-3.2 -15.6 -1.3 -16.85 -1.4 -15.05 -2.05 -14.3 L-2.65 -13.3 Z" fill="none" stroke="#1c1515" stroke-linecap="butt" stroke-linejoin="miter-clip" stroke-miterlimit="4.0" stroke-width="1.0"/>
    <path d="M-3.35 -17.3 L-3.8 -16.8 -4.7 -15.7 Q-5.65 -14.5 -6.35 -11.65 L-6.9 -9.05 Q-7.0 -9.5 -7.45 -9.4 L-8.35 -9.0 -9.25 -8.75 -10.0 -8.85 -10.1 -9.85 -10.0 -11.2 Q-9.5 -11.95 -8.9 -13.75 -8.4 -15.25 -7.65 -15.8 -7.3 -16.1 -6.15 -16.4 L-4.5 -16.95 -3.35 -17.3" fill="url(#gradient6)" fill-rule="evenodd" stroke="none"/>
    <path d="M-3.35 -17.3 L-4.5 -16.95 -6.15 -16.4 Q-7.3 -16.1 -7.65 -15.8 -8.4 -15.25 -8.9 -13.75 -9.5 -11.95 -10.0 -11.2 L-10.1 -9.85 -10.0 -8.85 -9.25 -8.75 -8.35 -9.0 -7.45 -9.4 Q-7.0 -9.5 -6.9 -9.05 L-6.35 -11.65 Q-5.65 -14.5 -4.7 -15.7 L-3.8 -16.8" fill="none" stroke="#1c1515" stroke-linecap="butt" stroke-linejoin="miter-clip" stroke-miterlimit="4.0" stroke-width="1.0"/>
    <path d="M-9.2 -7.85 L-7.35 -8.6" fill="none" stroke="#dcc64f" stroke-linecap="round" stroke-linejoin="round" stroke-width="1.0"/>
    <path d="M-6.3 -12.1 Q-5.65 -16.05 -3.4 -17.3 -2.45 -17.85 0.7 -17.25 L0.05 -14.85 -1.7 -13.85 -3.2 -12.4 -3.85 -11.9 -4.9 -11.95 -6.3 -12.1" fill="#402b2b" fill-rule="evenodd" stroke="none"/>
    <path d="M-6.3 -12.1 L-4.9 -11.95 -3.85 -11.9 -3.2 -12.4 -1.7 -13.85 0.05 -14.85 0.7 -17.25 Q-2.45 -17.85 -3.4 -17.3 -5.65 -16.05 -6.3 -12.1 Z" fill="none" stroke="#1c1515" stroke-linecap="butt" stroke-linejoin="miter-clip" stroke-miterlimit="4.0" stroke-width="1.0"/>
  </g>
  <defs>
    <radialGradient cx="0" cy="0" gradientTransform="matrix(0.0017, 1.0E-4, 3.0E-4, -0.0187, -5.25, -3.85)" gradientUnits="userSpaceOnUse" id="gradient0" r="819.2" spreadMethod="pad">
      <stop offset="0.0" stop-color="#251d1d"/>
      <stop offset="1.0" stop-color="#493f3f"/>
    </radialGradient>
    <radialGradient cx="0" cy="0" gradientTransform="matrix(0.0043, 4.0E-4, 0.0021, -0.0268, -4.85, -11.05)" gradientUnits="userSpaceOnUse" id="gradient1" r="819.2" spreadMethod="pad">
      <stop offset="0.0" stop-color="#241818"/>
      <stop offset="1.0" stop-color="#4d3434"/>
    </radialGradient>
    <radialGradient cx="0" cy="0" gradientTransform="matrix(0.002, -0.0108, 0.0108, 0.0022, 2.7, -9.35)" gradientUnits="userSpaceOnUse" id="gradient2" r="819.2" spreadMethod="pad">
      <stop offset="0.0" stop-color="#241818"/>
      <stop offset="1.0" stop-color="#4d3434"/>
    </radialGradient>
    <radialGradient cx="0" cy="0" gradientTransform="matrix(0.0, -0.0023, 0.0229, 8.0E-4, 1.35, -15.0)" gradientUnits="userSpaceOnUse" id="gradient3" r="819.2" spreadMethod="pad">
      <stop offset="0.0" stop-color="#241818"/>
      <stop offset="1.0" stop-color="#4d3434"/>
    </radialGradient>
    <radialGradient cx="0" cy="0" gradientTransform="matrix(0.0086, 1.0E-4, -4.0E-4, 0.0107, 2.9, -2.95)" gradientUnits="userSpaceOnUse" id="gradient4" r="819.2" spreadMethod="pad">
      <stop offset="0.0" stop-color="#252527"/>
      <stop offset="1.0" stop-color="#5b5b60"/>
    </radialGradient>
    <radialGradient cx="0" cy="0" gradientTransform="matrix(-0.0113, -0.0013, -0.001, 0.0107, -0.75, -9.9)" gradientUnits="userSpaceOnUse" id="gradient5" r="819.2" spreadMethod="pad">
      <stop offset="0.0" stop-color="#241818"/>
      <stop offset="1.0" stop-color="#4d3434"/>
    </radialGradient>
    <radialGradient cx="0" cy="0" gradientTransform="matrix(-0.0023, -7.0E-4, -0.0059, 0.0214, -6.0, -12.8)" gradientUnits="userSpaceOnUse" id="gradient6" r="819.2" spreadMethod="pad">
      <stop offset="0.0" stop-color="#241818"/>
      <stop offset="1.0" stop-color="#4d3434"/>
    </radialGradient>
  </defs>
</svg>
