<?xml version="1.0" encoding="UTF-8" standalone="no"?>
<svg xmlns:ffdec="https://www.free-decompiler.com/flash" xmlns:xlink="http://www.w3.org/1999/xlink" ffdec:objectType="shape" height="26.15px" width="17.5px" xmlns="http://www.w3.org/2000/svg">
  <g transform="matrix(1.0, 0.0, 0.0, 1.0, -13.65, 13.25)">
    <path d="M22.4 12.8 L21.85 12.9 Q18.4 12.9 16.0 9.05 13.6 5.2 13.65 -0.15 13.6 -5.55 16.0 -9.4 18.4 -13.25 21.85 -13.2 L22.4 -13.2 22.4 12.8" fill="url(#gradient0)" fill-rule="evenodd" stroke="none"/>
    <path d="M22.4 -13.2 L22.95 -13.2 Q26.35 -13.25 28.8 -9.4 31.15 -5.55 31.15 -0.15 31.15 5.2 28.8 9.05 26.35 12.9 22.95 12.9 L22.4 12.8 22.4 -13.2" fill="url(#gradient1)" fill-rule="evenodd" stroke="none"/>
  </g>
  <defs>
    <radialGradient cx="0" cy="0" gradientTransform="matrix(0.0, 0.0142, 0.01, 0.0, 21.85, -0.2)" gradientUnits="userSpaceOnUse" id="gradient0" r="819.2" spreadMethod="pad">
      <stop offset="0.17647058823529413" stop-color="#ffffff"/>
      <stop offset="1.0" stop-color="#12b6fd" stop-opacity="0.0"/>
    </radialGradient>
    <radialGradient cx="0" cy="0" gradientTransform="matrix(0.0, 0.0142, -0.01, 0.0, 22.95, -0.2)" gradientUnits="userSpaceOnUse" id="gradient1" r="819.2" spreadMethod="pad">
      <stop offset="0.17647058823529413" stop-color="#ffffff"/>
      <stop offset="1.0" stop-color="#12b6fd" stop-opacity="0.0"/>
    </radialGradient>
  </defs>
</svg>
