<?xml version="1.0" encoding="UTF-8" standalone="no"?>
<svg xmlns:ffdec="https://www.free-decompiler.com/flash" xmlns:xlink="http://www.w3.org/1999/xlink" ffdec:objectType="shape" height="15.35px" width="24.9px" xmlns="http://www.w3.org/2000/svg">
  <g transform="matrix(1.0, 0.0, 0.0, 1.0, -4.65, -13.9)">
    <path d="M21.5 21.3 Q23.1 25.8 29.05 27.4 M18.45 21.9 Q21.75 26.95 25.65 28.75" fill="none" stroke="#580000" stroke-linecap="round" stroke-linejoin="round" stroke-width="1.0"/>
    <path d="M20.65 26.1 Q13.2 22.15 6.8 22.5 L5.15 14.4 15.95 18.15 15.8 18.25 Q15.3 18.8 15.3 19.55 15.3 20.3 15.8 20.8 16.35 21.35 17.1 21.35 17.85 21.35 18.35 20.8 18.9 20.3 18.9 19.55 L18.9 19.2 22.95 20.6 20.65 26.1" fill="#0e3f41" fill-rule="evenodd" stroke="none"/>
    <path d="M18.9 19.2 L18.9 19.55 Q18.9 20.3 18.35 20.8 17.85 21.35 17.1 21.35 16.35 21.35 15.8 20.8 15.3 20.3 15.3 19.55 15.3 18.8 15.8 18.25 L15.95 18.15 Q16.45 17.75 17.1 17.75 17.85 17.75 18.35 18.25 L18.9 19.2" fill="url(#gradient0)" fill-rule="evenodd" stroke="none"/>
    <path d="M15.95 18.15 L5.15 14.4 6.8 22.5 Q13.2 22.15 20.65 26.1 M22.95 20.6 L18.9 19.2" fill="none" stroke="#003a48" stroke-linecap="round" stroke-linejoin="round" stroke-width="1.0"/>
    <path d="M18.9 19.2 L18.9 19.55 Q18.9 20.3 18.35 20.8 17.85 21.35 17.1 21.35 16.35 21.35 15.8 20.8 15.3 20.3 15.3 19.55 15.3 18.8 15.8 18.25 L15.95 18.15" fill="none" stroke="#01181e" stroke-linecap="round" stroke-linejoin="round" stroke-width="1.0"/>
    <path d="M15.95 18.15 Q16.45 17.75 17.1 17.75 17.85 17.75 18.35 18.25 L18.9 19.2" fill="none" stroke="#007895" stroke-linecap="round" stroke-linejoin="round" stroke-width="1.0"/>
    <path d="M20.65 26.1 L22.95 20.6" fill="none" stroke="#061f25" stroke-linecap="round" stroke-linejoin="round" stroke-width="1.0"/>
  </g>
  <defs>
    <radialGradient cx="0" cy="0" gradientTransform="matrix(0.0029, 0.0, 0.0, 0.0029, 17.1, 19.55)" gradientUnits="userSpaceOnUse" id="gradient0" r="819.2" spreadMethod="pad">
      <stop offset="0.0" stop-color="#f5b8f7"/>
      <stop offset="1.0" stop-color="#ff1305"/>
    </radialGradient>
  </defs>
</svg>
