<?xml version="1.0" encoding="UTF-8" standalone="no"?>
<svg xmlns:ffdec="https://www.free-decompiler.com/flash" xmlns:xlink="http://www.w3.org/1999/xlink" ffdec:objectType="shape" height="19.15px" width="17.9px" xmlns="http://www.w3.org/2000/svg">
  <g transform="matrix(1.0, 0.0, 0.0, 1.0, 7.85, 17.15)">
    <path d="M1.55 1.5 L-1.75 1.4 -2.85 0.1 -2.95 0.05 -2.95 -1.8 -2.65 -1.8 -2.45 -1.75 2.75 -1.55 2.75 0.5 1.55 1.5" fill="#000000" fill-rule="evenodd" stroke="none"/>
    <path d="M7.55 -10.15 Q7.25 -9.25 7.55 -8.4 7.85 -7.6 8.1 -7.55 6.8 -6.4 -1.4 -6.1 -0.2 -9.25 -3.05 -11.1 -0.5 -10.15 7.55 -10.15" fill="#cc9933" fill-rule="evenodd" stroke="none"/>
    <path d="M-1.6 -4.85 L-1.0 -4.6 -0.75 -4.0 -1.0 -3.4 -1.6 -3.15 -2.2 -3.4 -2.45 -4.0 -2.2 -4.6 -1.6 -4.85 M2.1 -3.6 L1.85 -3.0 1.25 -2.75 0.65 -3.0 Q0.4 -3.25 0.4 -3.6 L0.65 -4.2 1.25 -4.45 1.85 -4.2 2.1 -3.6" fill="#ac6bd0" fill-rule="evenodd" stroke="none"/>
    <path d="M-6.85 -6.0 L-6.9 -6.1 -6.95 -6.35 -7.0 -7.65 -6.7 -9.05 -6.45 -9.55 Q-5.5 -10.95 -3.05 -11.1 -0.2 -9.25 -1.4 -6.1 L-6.8 -5.7 -6.85 -6.0 M5.8 -15.2 L8.4 -15.2 8.4 -13.85 7.7 -13.75 7.1 -14.3 5.8 -15.2" fill="#1e1e1e" fill-rule="evenodd" stroke="none"/>
    <path d="M-2.2 -4.6 L-2.45 -4.0 -2.2 -3.4 -1.6 -3.15 -1.0 -3.4 -0.75 -4.0 -1.0 -4.6 -1.6 -4.85 -2.2 -4.6 M8.2 -7.55 Q10.8 -5.3 7.5 -1.95 L2.75 -1.55 -2.45 -1.75 -2.65 -1.8 -2.95 -1.8 Q-4.3 -2.25 -5.15 -3.2 L-6.8 -5.7 -1.4 -6.1 Q6.8 -6.4 8.1 -7.55 L8.2 -7.55 M2.1 -3.6 L1.85 -4.2 1.25 -4.45 0.65 -4.2 0.4 -3.6 Q0.4 -3.25 0.65 -3.0 L1.25 -2.75 1.85 -3.0 2.1 -3.6" fill="#272727" fill-rule="evenodd" stroke="none"/>
    <path d="M-4.4 -15.45 Q-0.6 -17.15 2.45 -16.4 L5.8 -15.2 7.1 -14.3 7.7 -13.75 Q8.8 -12.6 9.25 -10.65 L7.55 -10.15 Q3.65 -9.55 0.65 -10.0 -0.8 -10.25 -3.05 -11.1 -5.5 -10.95 -6.45 -9.55 L-6.7 -9.05 -7.0 -7.65 -7.35 -11.4 -6.9 -12.7 Q-5.85 -14.85 -4.4 -15.45 M6.9 -12.55 L6.65 -13.15 6.05 -13.4 5.45 -13.15 5.2 -12.55 Q5.2 -12.2 5.45 -11.95 5.7 -11.7 6.05 -11.7 6.3 -11.7 6.65 -11.95 L6.9 -12.55" fill="url(#gradient0)" fill-rule="evenodd" stroke="none"/>
    <path d="M6.05 -13.4 L6.65 -13.15 6.9 -12.55 6.65 -11.95 Q6.3 -11.7 6.05 -11.7 5.7 -11.7 5.45 -11.95 5.2 -12.2 5.2 -12.55 L5.45 -13.15 6.05 -13.4" fill="#a984bf" fill-rule="evenodd" stroke="none"/>
    <path d="M2.75 -1.55 L2.75 0.5 1.55 1.5 -1.75 1.4 -2.85 0.1 -2.95 0.05 -2.95 -1.8 -2.65 -1.8 -2.15 -1.75" fill="none" stroke="#000000" stroke-linecap="round" stroke-linejoin="round" stroke-width="1.0"/>
    <path d="M7.55 -10.15 Q7.25 -9.25 7.55 -8.4 7.85 -7.6 8.1 -7.55" fill="none" stroke="#5f4429" stroke-linecap="round" stroke-linejoin="round" stroke-width="1.0"/>
    <path d="M-3.5 -9.6 L-3.5 -8.45 M-5.0 -9.5 L-5.0 -7.5 M8.1 -7.55 Q6.8 -6.4 -1.4 -6.1 -0.2 -9.25 -3.05 -11.1" fill="none" stroke="#111111" stroke-linecap="round" stroke-linejoin="round" stroke-width="1.0"/>
    <path d="M-1.6 -4.85 L-1.0 -4.6 -0.75 -4.0 -1.0 -3.4 -1.6 -3.15 -2.2 -3.4 -2.45 -4.0 -2.2 -4.6 -1.6 -4.85 M6.45 -5.5 L8.1 -4.85 M5.9 -4.45 L6.9 -3.95 M2.1 -3.6 L1.85 -3.0 1.25 -2.75 0.65 -3.0 Q0.4 -3.25 0.4 -3.6 L0.65 -4.2 1.25 -4.45 1.85 -4.2 2.1 -3.6 Z" fill="none" stroke="#1a1a1a" stroke-linecap="round" stroke-linejoin="round" stroke-width="1.0"/>
    <path d="M-3.05 -11.1 Q0.25 -10.05 2.65 -9.9 L7.55 -10.15" fill="none" stroke="#0d1213" stroke-linecap="round" stroke-linejoin="round" stroke-width="1.0"/>
    <path d="M-5.55 -13.65 Q-5.25 -12.7 -4.2 -12.05 M-4.4 -15.45 Q-3.65 -13.7 -1.5 -12.8 M6.05 -13.4 L6.65 -13.15 6.9 -12.55 6.65 -11.95 Q6.3 -11.7 6.05 -11.7 5.7 -11.7 5.45 -11.95 5.2 -12.2 5.2 -12.55 L5.45 -13.15 6.05 -13.4 Z" fill="none" stroke="#111212" stroke-linecap="round" stroke-linejoin="round" stroke-width="1.0"/>
    <path d="M3.65 -8.6 L5.35 -8.6" fill="none" stroke="#36250e" stroke-linecap="round" stroke-linejoin="round" stroke-width="1.5"/>
    <path d="M-2.95 -1.8 Q-4.3 -2.25 -5.15 -3.2 L-6.8 -5.7 -6.85 -6.0 -6.9 -6.1 -6.95 -6.35 -7.0 -7.65 -7.35 -11.4 -6.9 -12.7 Q-5.85 -14.85 -4.4 -15.45 -0.6 -17.15 2.45 -16.4 L5.8 -15.2 8.4 -15.2 8.4 -13.85 7.7 -13.75 Q8.8 -12.6 9.25 -10.65 L7.55 -10.15 M-3.05 -11.1 Q-5.5 -10.95 -6.45 -9.55 L-6.7 -9.05 -7.0 -7.65 M-1.4 -6.1 L-6.8 -5.7 M5.8 -15.2 L7.1 -14.3 7.7 -13.75 M8.2 -7.55 Q11.2 -7.15 7.5 -1.95 L2.75 -1.55 -2.15 -1.75" fill="none" stroke="#090909" stroke-linecap="round" stroke-linejoin="round" stroke-width="1.0"/>
    <path d="M-1.25 -6.1 Q-0.95 -7.15 -1.0 -8.1 L-1.55 -10.5 Q5.3 -9.15 7.8 -10.45 8.55 -8.65 8.25 -7.25 L-1.25 -6.1" fill="#9552f7" fill-opacity="0.65882355" fill-rule="evenodd" stroke="none"/>
    <path d="M-1.25 -6.1 Q-0.95 -7.15 -1.0 -8.1 L-1.55 -10.5 3.4 -9.85 Q6.15 -9.65 7.8 -10.45 8.55 -8.65 8.25 -7.25 L-1.25 -6.1 Z" fill="none" stroke="#000000" stroke-linecap="round" stroke-linejoin="round" stroke-opacity="0.3019608" stroke-width="1.0"/>
    <path d="M3.0 -3.7 Q3.55 -4.25 4.45 -4.25 5.3 -4.25 5.85 -3.7 6.45 -3.1 6.45 -2.25 6.45 -1.45 5.85 -0.85 5.25 -0.25 4.45 -0.25 3.6 -0.25 3.0 -0.85 2.45 -1.4 2.45 -2.25 2.45 -3.15 3.0 -3.7" fill="#1a1a1a" fill-rule="evenodd" stroke="none"/>
    <path d="M3.0 -3.7 Q3.55 -4.25 4.45 -4.25 5.3 -4.25 5.85 -3.7 6.45 -3.1 6.45 -2.25 6.45 -1.45 5.85 -0.85 5.25 -0.25 4.45 -0.25 3.6 -0.25 3.0 -0.85 2.45 -1.4 2.45 -2.25 2.45 -3.15 3.0 -3.7 Z" fill="none" stroke="#0a0a0a" stroke-linecap="round" stroke-linejoin="round" stroke-width="1.0"/>
  </g>
  <defs>
    <radialGradient cx="0" cy="0" gradientTransform="matrix(0.0211, 0.0, 0.0, 0.0211, -1.5, 0.15)" gradientUnits="userSpaceOnUse" id="gradient0" r="819.2" spreadMethod="pad">
      <stop offset="0.0" stop-color="#1d2b38"/>
      <stop offset="0.6588235294117647" stop-color="#161616"/>
      <stop offset="1.0" stop-color="#343434"/>
    </radialGradient>
  </defs>
</svg>
