<?xml version="1.0" encoding="UTF-8" standalone="no"?>
<svg xmlns:ffdec="https://www.free-decompiler.com/flash" xmlns:xlink="http://www.w3.org/1999/xlink" ffdec:objectType="shape" height="17.8px" width="28.35px" xmlns="http://www.w3.org/2000/svg">
  <g transform="matrix(1.0, 0.0, 0.0, 1.0, 9.0, 16.25)">
    <path d="M-3.1 -4.7 L-2.8 -4.85 -1.85 -3.35 1.65 -3.65 4.15 -0.8 -0.2 -0.4 -1.5 -0.9 -2.65 -1.55 -3.1 -2.3 -3.45 -3.1 Q-3.55 -3.65 -3.1 -4.7" fill="#0b0b0b" fill-rule="evenodd" stroke="none"/>
    <path d="M8.95 -9.05 L9.2 -7.35 8.8 -5.7 7.95 -6.1 6.15 -4.25 0.8 -6.4 0.05 -8.75 1.3 -10.2 8.95 -9.05" fill="url(#gradient0)" fill-rule="evenodd" stroke="none"/>
    <path d="M8.95 -9.05 Q9.5 -7.3 8.75 -5.75" fill="none" stroke="#523e08" stroke-linecap="round" stroke-linejoin="round" stroke-width="1.0"/>
    <path d="M9.45 -0.4 L7.35 -1.75 7.8 -2.8 Q7.95 -3.35 7.6 -4.35 L7.25 -5.3 8.1 -6.05 10.05 -5.5 10.1 -4.4 Q10.1 -2.5 9.9 -1.9 L9.45 -0.4" fill="#0f152e" fill-rule="evenodd" stroke="none"/>
    <path d="M-2.8 -11.45 L-4.6 -11.4 -5.3 -11.1 -6.15 -10.45 Q-6.7 -9.9 -6.7 -8.7 -6.75 -8.15 -6.15 -7.0 L-3.4 -6.45 -2.9 -5.1 -3.75 -2.5 -6.85 -4.3 -7.65 -5.7 -8.3 -7.15 -8.45 -8.65 -8.45 -10.3 -8.05 -11.45 -7.55 -12.45 Q-7.45 -12.75 -5.8 -14.1 L-4.9 -14.35 -4.2 -14.45 -3.05 -13.4 -2.8 -11.45" fill="#282828" fill-rule="evenodd" stroke="none"/>
    <path d="M10.4 -10.85 L9.4 -9.1 8.5 -10.7 2.15 -12.25 1.3 -11.95 1.55 -10.1 0.1 -8.8 -1.1 -9.35 -1.75 -10.65 -3.35 -11.4 -3.15 -13.25 -0.7 -14.15 -0.7 -15.55 0.75 -15.65 3.05 -15.6 5.2 -15.0 6.7 -14.45 10.4 -10.85" fill="#1f1f1f" fill-rule="evenodd" stroke="none"/>
    <path d="M-3.1 -13.1 L-2.75 -11.3" fill="none" stroke="#0f0f0f" stroke-linecap="round" stroke-linejoin="round" stroke-width="1.0"/>
    <path d="M-2.35 -13.4 L1.3 -11.9" fill="none" stroke="#172148" stroke-linecap="round" stroke-linejoin="round" stroke-width="1.0"/>
    <path d="M0.3 -8.95 L0.2 -7.65 0.7 -6.3 6.1 -4.4 7.25 -5.2 7.95 -4.05 7.75 -2.9 7.25 -1.8 9.45 -0.55 8.75 1.15 4.65 0.65 3.4 -1.95 2.4 -3.0 1.65 -3.6 -2.05 -3.35 -3.25 -6.4 -6.5 -7.05 -6.75 -8.8 -6.35 -9.8 -5.7 -10.95 Q-5.25 -11.35 -3.3 -11.35 -2.85 -11.35 -2.3 -10.8 L-1.65 -10.0 Q-1.05 -9.1 0.3 -8.95" fill="#282828" fill-rule="evenodd" stroke="none"/>
    <path d="M-4.25 -14.5 Q-6.4 -14.25 -7.6 -12.3 -8.75 -10.45 -8.45 -8.2 -8.2 -5.95 -6.5 -4.1 L-4.95 -3.2 Q-3.65 -2.65 -3.1 -2.1" fill="none" stroke="#1a1a1a" stroke-linecap="round" stroke-linejoin="round" stroke-width="1.0"/>
    <path d="M0.3 -8.95 Q-0.45 -8.9 -0.9 -9.3 L-1.35 -9.95 Q-2.6 -11.5 -4.1 -11.35 L-5.6 -10.8 -6.4 -9.75 Q-7.05 -8.45 -6.1 -7.05" fill="none" stroke="#101010" stroke-linecap="round" stroke-linejoin="round" stroke-width="1.0"/>
    <path d="M9.45 -0.2 L8.65 1.05 4.6 0.45 Q3.25 -2.35 1.55 -3.65 L-1.9 -3.35" fill="none" stroke="#121212" stroke-linecap="round" stroke-linejoin="round" stroke-width="1.0"/>
    <path d="M9.85 -5.4 L8.1 -5.9 6.1 -4.3 0.85 -6.35 Q0.05 -8.15 0.4 -9.2 L1.4 -10.3 8.95 -9.1" fill="none" stroke="#261c04" stroke-linecap="round" stroke-linejoin="round" stroke-width="1.0"/>
    <path d="M9.3 -0.45 L7.4 -1.65 Q8.05 -3.05 8.0 -3.8 L7.55 -4.8 7.2 -5.2 8.15 -5.9 9.8 -5.4" fill="none" stroke="#080d1c" stroke-linecap="round" stroke-linejoin="round" stroke-width="1.0"/>
    <path d="M-1.95 -3.4 L-3.5 -6.35 -5.95 -7.0" fill="none" stroke="#101010" stroke-linecap="round" stroke-linejoin="round" stroke-width="1.0"/>
    <path d="M8.45 -8.5 L17.95 -10.25 Q20.8 -7.2 17.95 -3.5 L8.25 -6.35 8.45 -8.5" fill="url(#gradient1)" fill-rule="evenodd" stroke="none"/>
    <path d="M4.0 -0.75 L-0.45 -0.55 Q-2.8 -1.25 -3.4 -3.1 L-3.3 -4.0 -3.0 -4.9" fill="none" stroke="#000000" stroke-linecap="round" stroke-linejoin="round" stroke-width="1.0"/>
    <path d="M9.3 -8.95 L10.5 -10.6 Q8.45 -13.3 6.45 -14.45 3.35 -16.25 -0.8 -15.6" fill="none" stroke="#0f0f0f" stroke-linecap="round" stroke-linejoin="round" stroke-width="1.0"/>
    <path d="M-0.9 -15.5 L-0.9 -14.3 -3.0 -13.4 -4.05 -14.4" fill="none" stroke="#1a1a1a" stroke-linecap="round" stroke-linejoin="round" stroke-width="1.0"/>
    <path d="M1.5 -10.3 L1.25 -11.75 2.2 -12.3 8.5 -10.6 9.3 -8.95 1.5 -10.3" fill="#202020" fill-rule="evenodd" stroke="none"/>
    <path d="M1.5 -10.3 L1.25 -11.75 2.2 -12.3 8.5 -10.6 9.3 -8.95 1.5 -10.3 Z" fill="none" stroke="#141414" stroke-linecap="round" stroke-linejoin="round" stroke-width="1.0"/>
    <path d="M-4.15 -9.7 L-3.05 -9.6" fill="none" stroke="#bb8810" stroke-linecap="round" stroke-linejoin="round" stroke-width="1.0"/>
    <path d="M3.15 -14.25 Q4.5 -14.2 6.0 -13.15" fill="none" stroke="#1a1a1a" stroke-linecap="round" stroke-linejoin="round" stroke-width="1.0"/>
    <path d="M9.9 -5.35 Q10.75 -1.9 9.4 -0.2" fill="none" stroke="#090d1e" stroke-linecap="round" stroke-linejoin="round" stroke-width="1.0"/>
    <path d="M-4.65 -8.05 L-3.65 -7.95 Q-2.6 -7.8 -2.45 -7.5 L-1.15 -4.7" fill="none" stroke="#212121" stroke-linecap="round" stroke-linejoin="round" stroke-width="1.0"/>
    <path d="M3.85 -3.15 L4.95 -1.8" fill="none" stroke="#1a1a1a" stroke-linecap="round" stroke-linejoin="round" stroke-width="1.0"/>
  </g>
  <defs>
    <linearGradient gradientTransform="matrix(0.0055, 0.0, 0.0, 0.0055, 4.65, -7.25)" gradientUnits="userSpaceOnUse" id="gradient0" spreadMethod="pad" x1="-819.2" x2="819.2">
      <stop offset="0.0" stop-color="#734e02"/>
      <stop offset="1.0" stop-color="#f3b317"/>
    </linearGradient>
    <linearGradient gradientTransform="matrix(0.0065, -2.0E-4, 2.0E-4, 0.0065, 14.35, -6.95)" gradientUnits="userSpaceOnUse" id="gradient1" spreadMethod="pad" x1="-819.2" x2="819.2">
      <stop offset="0.0" stop-color="#e6a815" stop-opacity="0.09019608"/>
      <stop offset="1.0" stop-color="#e6a815" stop-opacity="0.0"/>
    </linearGradient>
  </defs>
</svg>
