<?xml version="1.0" encoding="UTF-8" standalone="no"?>
<svg xmlns:ffdec="https://www.free-decompiler.com/flash" xmlns:xlink="http://www.w3.org/1999/xlink" ffdec:objectType="shape" height="25.1px" width="37.6px" xmlns="http://www.w3.org/2000/svg">
  <g transform="matrix(1.0, 0.0, 0.0, 1.0, 0.5, 0.5)">
    <path d="M28.6 20.05 L26.4 18.05 Q30.2 17.55 33.8 20.15 L35.85 22.55 Q33.35 24.25 30.45 24.1 31.1 22.65 28.6 20.05" fill="url(#gradient0)" fill-rule="evenodd" stroke="none"/>
    <path d="M12.9 11.7 L12.45 11.3 11.5 10.05 Q10.6 8.55 10.55 6.75 15.75 3.75 22.35 4.25 28.9 4.7 32.8 9.35 37.75 15.35 36.25 20.8 34.15 17.95 28.5 15.55 25.65 15.1 22.65 16.55 L19.1 15.6 15.5 13.4 14.05 12.55 12.9 11.7" fill="url(#gradient1)" fill-rule="evenodd" stroke="none"/>
    <path d="M22.65 16.55 L23.15 16.55 24.0 18.25 Q24.7 19.9 24.65 21.2 L24.45 22.35 Q19.2 21.6 14.4 17.3 15.6 14.4 12.9 11.7 L14.05 12.55 15.5 13.4 19.1 15.6 22.65 16.55" fill="url(#gradient2)" fill-rule="evenodd" stroke="none"/>
    <path d="M24.0 18.25 Q26.3 18.85 28.5 20.25 29.6 22.9 28.5 23.4 L24.65 21.2 Q24.7 19.9 24.0 18.25" fill="url(#gradient3)" fill-rule="evenodd" stroke="none"/>
    <path d="M23.15 16.55 L24.0 18.25 Q26.3 18.85 28.5 20.25 L28.6 20.05 26.4 18.05 Q30.2 17.55 33.8 20.15 L35.85 22.55 Q33.35 24.25 30.45 24.1 31.1 22.65 28.6 20.05 M24.65 21.2 L24.45 22.35 Q19.2 21.6 14.4 17.3 15.6 14.4 12.9 11.7 L12.45 11.3 11.5 10.05 Q10.6 8.55 10.55 6.75 15.75 3.75 22.35 4.25 28.9 4.7 32.8 9.35 37.75 15.35 36.25 20.8 34.15 17.95 28.5 15.55 25.65 15.1 22.65 16.55 L19.1 15.6 15.5 13.4 14.05 12.55 12.9 11.7 M24.65 21.2 L28.5 23.4 Q29.6 22.9 28.5 20.25 M24.0 18.25 Q24.7 19.9 24.65 21.2" fill="none" stroke="#040a2e" stroke-linecap="round" stroke-linejoin="round" stroke-width="1.0"/>
    <path d="M22.95 20.45 Q22.55 21.25 21.25 20.45 19.65 18.85 20.7 18.7 22.65 18.25 22.95 20.45 M22.95 13.35 Q22.45 14.3 21.25 13.95 19.6 13.0 20.2 12.25 22.15 11.1 22.95 13.35 M25.65 10.05 Q25.35 11.3 23.8 11.25 21.6 10.65 22.0 9.6 24.0 7.6 25.65 10.05 M24.3 12.1 Q26.35 11.85 26.75 13.5 L25.0 13.45 Q23.55 12.45 24.3 12.1 M16.1 15.8 Q17.45 15.15 18.65 17.65 19.3 18.95 17.35 18.2 14.7 16.4 16.1 15.8 M19.55 16.8 Q20.7 16.5 20.9 17.8 20.65 18.3 19.85 17.8 18.95 16.9 19.55 16.8 M19.2 11.75 L16.35 11.8 Q13.55 9.4 14.2 8.5 17.5 7.9 19.2 11.75" fill="#3c8a7a" fill-opacity="0.29803923" fill-rule="evenodd" stroke="none"/>
    <path d="M21.65 7.75 Q27.6 7.75 29.8 6.8 32.0 5.8 32.95 2.6 33.85 -0.65 23.75 0.15 13.65 0.95 0.0 8.8" fill="none" stroke="#94deaf" stroke-linecap="round" stroke-linejoin="round" stroke-width="1.0"/>
    <path d="M17.2 6.95 L21.05 6.85 Q21.75 7.5 21.65 8.7" fill="none" stroke="#040a2e" stroke-linecap="round" stroke-linejoin="round" stroke-width="1.0"/>
  </g>
  <defs>
    <radialGradient cx="0" cy="0" gradientTransform="matrix(0.0264, -0.0122, 0.0053, 0.0115, 26.65, 14.35)" gradientUnits="userSpaceOnUse" id="gradient0" r="819.2" spreadMethod="pad">
      <stop offset="0.0" stop-color="#17d7c6"/>
      <stop offset="0.34901960784313724" stop-color="#1fcb8d"/>
      <stop offset="0.5882352941176471" stop-color="#c4b81b"/>
      <stop offset="1.0" stop-color="#910000"/>
      <stop offset="1.0" stop-color="#fff23f"/>
      <stop offset="1.0" stop-color="#ff1305"/>
    </radialGradient>
    <radialGradient cx="0" cy="0" gradientTransform="matrix(0.0309, 0.0, 0.0, 0.02, 17.1, 8.8)" gradientUnits="userSpaceOnUse" id="gradient1" r="819.2" spreadMethod="pad">
      <stop offset="0.0" stop-color="#17d7c6"/>
      <stop offset="0.34901960784313724" stop-color="#1fcb8d"/>
      <stop offset="0.5882352941176471" stop-color="#c4b81b"/>
      <stop offset="1.0" stop-color="#910000"/>
      <stop offset="1.0" stop-color="#fff23f"/>
      <stop offset="1.0" stop-color="#ff1305"/>
    </radialGradient>
    <radialGradient cx="0" cy="0" gradientTransform="matrix(0.0268, 0.0, 0.0, 0.0268, 16.15, 13.4)" gradientUnits="userSpaceOnUse" id="gradient2" r="819.2" spreadMethod="pad">
      <stop offset="0.0" stop-color="#17d7c6"/>
      <stop offset="0.34901960784313724" stop-color="#1fcb8d"/>
      <stop offset="0.5882352941176471" stop-color="#c4b81b"/>
      <stop offset="1.0" stop-color="#910000"/>
      <stop offset="1.0" stop-color="#fff23f"/>
      <stop offset="1.0" stop-color="#ff1305"/>
    </radialGradient>
    <radialGradient cx="0" cy="0" gradientTransform="matrix(0.0192, 0.0, 0.0, 0.013, 21.8, 15.55)" gradientUnits="userSpaceOnUse" id="gradient3" r="819.2" spreadMethod="pad">
      <stop offset="0.0" stop-color="#17d7c6"/>
      <stop offset="0.34901960784313724" stop-color="#1fcb8d"/>
      <stop offset="0.5882352941176471" stop-color="#c4b81b"/>
      <stop offset="1.0" stop-color="#910000"/>
      <stop offset="1.0" stop-color="#fff23f"/>
      <stop offset="1.0" stop-color="#ff1305"/>
    </radialGradient>
  </defs>
</svg>
