<?xml version="1.0" encoding="UTF-8" standalone="no"?>
<svg xmlns:ffdec="https://www.free-decompiler.com/flash" xmlns:xlink="http://www.w3.org/1999/xlink" ffdec:objectType="shape" height="18.75px" width="26.45px" xmlns="http://www.w3.org/2000/svg">
  <g transform="matrix(1.0, 0.0, 0.0, 1.0, 13.3, 14.1)">
    <path d="M6.2 -5.9 L6.55 -6.25 6.95 -6.6 Q7.1 -4.55 7.75 -2.95 8.45 -1.2 9.5 -0.45 L8.55 -0.3 Q7.65 -1.7 7.55 -2.25 L7.1 -3.7 6.2 -5.9" fill="#502c00" fill-rule="evenodd" stroke="none"/>
    <path d="M7.7 -8.0 Q9.65 -3.5 9.65 -0.2 L8.25 -0.25 Q9.3 -0.95 8.45 -4.15 7.6 -7.3 6.45 -7.8 L7.7 -8.0" fill="#241400" fill-rule="evenodd" stroke="none"/>
    <path d="M7.6 -7.55 L7.55 -7.45 8.05 -3.65 8.25 0.25 6.65 -0.9 Q7.85 -0.7 7.75 -3.05 7.65 -5.4 6.45 -6.7 6.8 -6.5 7.05 -7.15 7.25 -7.8 7.6 -7.55" fill="#241400" fill-rule="evenodd" stroke="none"/>
    <path d="M7.3 -7.75 L7.3 -7.6 8.0 -5.6 8.65 -3.8 Q8.55 -3.15 9.15 -2.3 L9.1 -1.25 8.9 -0.1 7.5 -0.15 Q8.55 -1.05 8.25 -3.0 7.9 -4.9 6.4 -7.0 L6.85 -7.4 7.3 -7.75" fill="#502c00" fill-rule="evenodd" stroke="none"/>
    <path d="M5.2 -5.85 L5.8 -6.35 Q6.1 -6.8 6.4 -6.85 6.1 -4.55 6.6 -2.75 7.1 -0.85 8.3 -0.25 L6.95 0.2 6.45 -0.9 Q6.1 -1.55 6.1 -1.9 L5.9 -3.45 Q5.7 -3.8 5.2 -5.85" fill="#502c00" fill-rule="evenodd" stroke="none"/>
    <path d="M6.6 -6.8 L7.0 -6.95 7.25 0.4 Q6.7 0.1 5.7 -0.8 6.9 -0.55 6.8 -2.9 6.65 -5.25 5.45 -6.6 5.8 -6.4 6.05 -6.7 L6.6 -6.8" fill="#241400" fill-rule="evenodd" stroke="none"/>
    <path d="M4.6 -7.75 Q6.55 -3.15 6.55 0.1 L3.45 0.05 Q4.1 -0.35 3.35 -2.8 2.45 -5.65 3.35 -7.55 L4.6 -7.75" fill="#241400" fill-rule="evenodd" stroke="none"/>
    <path d="M2.7 -9.9 L9.0 -9.95 9.05 -5.25 2.75 -5.2 2.7 -9.9" fill="#000000" fill-rule="evenodd" stroke="none"/>
    <path d="M4.65 -8.8 Q3.35 -8.55 3.45 -7.8 3.5 -7.35 4.3 -6.4" fill="none" stroke="#1b1b1b" stroke-linecap="round" stroke-linejoin="round" stroke-width="2.35"/>
    <path d="M7.6 -7.5 L7.0 -8.0 6.65 -7.9 6.4 -7.65 6.35 -7.3 6.5 -7.0 6.8 -6.8 7.1 -6.75 7.4 -6.9 7.6 -7.15 7.6 -7.5 Z" ffdec:has-small-stroke="true" ffdec:original-stroke-width="0.5" fill="none" stroke="#ef2d2d" stroke-linecap="round" stroke-linejoin="round" stroke-width="1.0"/>
    <path d="M5.6 -8.8 Q5.15 -8.1 5.25 -6.4" fill="none" stroke="#424242" stroke-linecap="round" stroke-linejoin="round" stroke-width="1.2000000000000002"/>
    <path d="M1.05 -8.4 L4.2 -8.75 7.35 -8.75" ffdec:has-small-stroke="true" ffdec:original-stroke-width="0.85" fill="none" stroke="#000000" stroke-linecap="round" stroke-linejoin="round" stroke-width="1.0"/>
    <path d="M5.65 -6.1 Q3.2 -5.4 1.9 -4.65" ffdec:has-small-stroke="true" ffdec:original-stroke-width="0.85" fill="none" stroke="#000000" stroke-linecap="round" stroke-linejoin="round" stroke-width="1.0"/>
    <path d="M4.25 -4.6 Q4.75 -3.9 4.6 -2.9 L4.75 -1.8 4.55 -2.6 4.3 -1.85 Q4.4 -3.75 3.5 -4.4 L4.25 -4.6" fill="#ffffff" fill-rule="evenodd" stroke="none"/>
    <path d="M3.2 -4.95 Q3.85 -4.1 3.85 -2.9 L4.25 -1.55 3.85 -2.5 3.8 -1.55 Q3.5 -3.9 2.5 -4.55 L3.2 -4.95" fill="#ffffff" fill-rule="evenodd" stroke="none"/>
    <path d="M6.35 -4.9 Q6.85 -4.0 6.7 -2.8 L6.9 -1.4 6.65 -2.4 6.4 -1.45 Q6.5 -3.8 5.6 -4.6 L6.35 -4.9" fill="#ffffff" fill-rule="evenodd" stroke="none"/>
    <path d="M5.75 -4.95 Q6.2 -4.1 6.05 -2.85 L6.25 -1.45 6.0 -2.45 5.8 -1.55 Q5.9 -3.8 4.95 -4.7 L5.75 -4.95" fill="#ffffff" fill-rule="evenodd" stroke="none"/>
    <path d="M5.2 -4.6 Q5.65 -3.85 5.5 -2.9 L5.65 -1.8 5.45 -2.6 5.2 -1.85 Q5.3 -3.75 4.4 -4.35 L5.2 -4.6" fill="#ffffff" fill-rule="evenodd" stroke="none"/>
    <path d="M7.7 -4.25 Q8.4 -3.2 7.95 -0.85 7.85 -3.15 6.9 -3.95 L7.7 -4.25" fill="#ffffff" fill-rule="evenodd" stroke="none"/>
    <path d="M9.3 -4.25 Q9.8 -3.0 8.95 -0.85 9.25 -3.2 8.45 -4.05 L9.3 -4.25" fill="#ffffff" fill-rule="evenodd" stroke="none"/>
    <path d="M10.35 -4.2 Q10.75 -3.3 10.5 -2.15 L10.4 -1.75 10.05 -0.75 Q10.4 -3.05 9.55 -4.0 L10.35 -4.2" fill="#ffffff" fill-rule="evenodd" stroke="none"/>
    <path d="M9.6 -5.5 L10.4 -5.3 Q9.6 -4.35 9.95 -2.1 L9.6 -3.05 9.5 -3.45 Q9.2 -4.55 9.6 -5.5" fill="#ffffff" fill-rule="evenodd" stroke="none"/>
    <path d="M8.8 -5.45 Q9.2 -4.55 8.95 -3.4 L8.85 -3.0 8.5 -2.05 Q8.8 -4.4 8.0 -5.25 L8.8 -5.45" fill="#ffffff" fill-rule="evenodd" stroke="none"/>
    <path d="M7.4 -5.3 Q7.8 -4.4 7.55 -3.25 L7.45 -2.85 7.1 -1.85 Q7.45 -4.15 6.6 -5.1 L7.4 -5.3" fill="#ffffff" fill-rule="evenodd" stroke="none"/>
    <path d="M10.9 -4.2 L10.8 -3.9 9.7 -3.8 9.25 -3.8 Q9.15 -3.7 9.05 -3.7 L8.2 -3.55 7.5 -3.4 Q7.4 -3.25 7.15 -3.25 L6.7 -3.2 6.2 -3.2 Q5.9 -3.2 5.7 -3.0 L5.35 -2.9 4.95 -2.9 Q4.4 -2.85 4.0 -2.45" ffdec:has-small-stroke="true" ffdec:original-stroke-width="0.85" fill="none" stroke="#432500" stroke-linecap="round" stroke-linejoin="round" stroke-width="1.0"/>
    <path d="M10.85 -6.35 L11.0 -6.35 11.2 -5.6 11.05 -5.25 11.0 -4.6 8.45 -4.55 Q6.75 -4.35 5.45 -3.7 L3.7 -3.05 Q3.5 -3.0 3.65 -2.55 L3.75 -1.8 4.05 -0.95 3.9 -0.35 4.1 0.6 3.85 0.9 Q3.9 1.15 3.3 1.15 L-0.45 1.05 -1.5 0.7 Q-0.75 -1.75 -0.75 -2.35 -0.65 -2.9 -0.85 -3.1 L-1.9 -2.9 Q-2.5 -3.1 -2.7 -2.9 L-2.45 -3.9 -2.75 -4.05 -3.3 -4.05 Q-4.3 -3.6 -4.45 -3.85 L-5.15 -4.3 Q-5.7 -4.5 -4.6 -6.15 -3.5 -7.8 -2.55 -8.5 L-1.5 -9.3 -2.2 -10.0 Q-3.0 -10.6 -3.85 -10.4 L-5.6 -10.05 -6.75 -9.95 Q-7.0 -10.1 -6.45 -10.6 -5.95 -11.15 -5.0 -11.5 -5.2 -12.25 -4.55 -12.3 L-1.5 -12.7 -0.7 -12.75 Q-0.25 -12.95 2.65 -12.15 5.5 -11.35 5.3 -12.5 5.05 -13.65 6.2 -11.95 7.3 -10.25 7.35 -11.75 7.4 -13.3 8.1 -11.65 8.75 -10.05 8.85 -11.75 8.95 -13.4 9.8 -11.0 L10.65 -8.5 10.5 -8.5 8.8 -8.5 8.8 -8.75 8.7 -8.75 8.7 -8.85 7.2 -8.85 6.95 -9.0 6.45 -9.1 7.1 -9.0 4.1 -9.15 1.55 -8.7 1.6 -8.4 2.05 -8.5 2.5 -8.6 2.55 -8.4 2.45 -8.4 2.45 -6.25 2.55 -6.25 2.55 -6.15 5.75 -6.15 7.5 -6.15 7.3 -6.25 7.4 -6.25 7.2 -6.35 7.45 -6.35 7.7 -6.15 8.8 -6.15 8.8 -6.35 10.85 -6.35 M5.75 -6.15 L1.7 -4.9 Q2.9 -4.6 5.4 -5.7 L5.75 -6.15 M6.55 -8.6 L6.65 -8.55 6.65 -8.5 6.4 -8.5 5.9 -8.6 6.55 -8.6 M2.7 -8.45 L2.6 -8.4 2.65 -8.5 2.7 -8.45 M3.1 -7.75 L3.05 -7.8 3.1 -7.8 3.1 -7.75" fill="url(#gradient0)" fill-rule="evenodd" stroke="none"/>
    <path d="M8.8 -6.35 L8.8 -6.15 7.7 -6.15 7.45 -6.35 7.6 -6.25 8.7 -6.25 8.7 -6.35 8.8 -6.35 M7.3 -6.25 L7.5 -6.15 5.75 -6.15 2.55 -6.15 2.55 -6.25 7.3 -6.25 M8.7 -8.75 L8.8 -8.75 8.8 -8.5 8.7 -8.5 8.7 -8.75 M4.75 -8.75 L6.4 -8.7 6.55 -8.6 5.9 -8.6 4.3 -8.65 3.35 -8.6 2.95 -8.45 2.7 -8.45 2.65 -8.5 2.55 -8.6 3.9 -8.75 4.2 -8.75 4.75 -8.75 M6.65 -8.55 L7.2 -8.5 6.65 -8.5 6.65 -8.55" fill="url(#gradient1)" fill-rule="evenodd" stroke="none"/>
    <path d="M7.2 -6.35 L7.4 -6.25 7.3 -6.25 2.55 -6.25 2.45 -6.25 2.45 -8.4 2.55 -8.4 2.5 -8.6 2.55 -8.6 2.65 -8.5 2.6 -8.4 2.7 -8.45 2.95 -8.45 3.35 -8.6 4.3 -8.65 5.9 -8.6 6.4 -8.5 6.65 -8.5 7.2 -8.5 6.65 -8.55 6.55 -8.6 6.4 -8.7 4.75 -8.75 7.2 -8.85 8.7 -8.85 8.7 -8.75 8.7 -8.5 8.7 -7.15 8.7 -6.35 8.7 -6.25 7.6 -6.25 7.45 -6.35 7.2 -6.35 M8.6 -7.2 L8.7 -7.15 8.65 -7.2 Q7.25 -8.1 4.7 -8.1 L4.0 -8.0 3.75 -7.85 3.4 -7.65 3.75 -7.85 3.9 -7.9 3.5 -7.7 3.4 -7.65 3.35 -7.65 3.4 -7.6 Q5.05 -6.9 6.35 -6.55 L7.0 -6.45 7.1 -6.5 7.15 -6.5 8.6 -7.2 7.15 -6.5 7.1 -6.5 7.15 -6.5 7.1 -6.5 Q7.8 -7.05 8.45 -7.15 L8.6 -7.2 M3.1 -7.75 L3.1 -7.8 3.05 -7.8 3.1 -7.75" fill="url(#gradient2)" fill-rule="evenodd" stroke="none"/>
    <path d="M10.85 -6.35 L8.8 -6.35 8.7 -6.35 8.7 -7.15 8.7 -8.5 8.8 -8.5 10.5 -8.5 10.55 -8.4 Q10.9 -7.95 10.75 -7.35 L10.85 -6.35" fill="url(#gradient3)" fill-rule="evenodd" stroke="none"/>
    <path d="M8.6 -7.2 L7.15 -6.5 7.1 -6.5 7.15 -6.5 M6.35 -6.55 Q5.05 -6.9 3.4 -7.6 L3.35 -7.65 M3.4 -7.65 L3.75 -7.85 3.9 -7.9 Q6.05 -8.45 8.6 -7.2 M6.35 -6.55 L7.1 -6.5" ffdec:has-small-stroke="true" ffdec:original-stroke-width="0.4" fill="none" stroke="#000000" stroke-linecap="round" stroke-linejoin="round" stroke-width="1.0"/>
    <path d="M10.35 -8.75 L10.05 -8.2 11.0 -7.85 10.45 -6.85 10.85 -6.4" ffdec:has-small-stroke="true" ffdec:original-stroke-width="0.85" fill="none" stroke="#382200" stroke-linecap="round" stroke-linejoin="round" stroke-width="1.0"/>
    <path d="M11.35 -4.6 L8.05 -4.25 Q5.85 -4.0 3.8 -3.1 3.65 -2.75 4.05 -1.95 4.35 -1.35 4.3 -0.55 L4.2 0.9 4.05 1.5 1.45 1.45 -1.2 1.2 -1.6 0.75 Q-0.9 -1.75 -1.0 -2.85 L-3.0 -2.6 Q-2.8 -3.5 -2.45 -3.75 L-4.45 -3.75 -5.45 -4.55 Q-3.6 -8.25 -1.6 -9.1 L-3.2 -10.55 -5.1 -10.2 -7.0 -9.85 Q-7.25 -10.0 -6.15 -10.85 -5.05 -11.65 -5.25 -11.75 -5.6 -12.0 -4.65 -12.35 L-0.9 -12.75 4.3 -12.0 5.35 -11.7 Q4.65 -13.75 5.4 -13.0 6.15 -12.3 6.5 -11.3 L7.25 -11.0 Q7.6 -10.8 7.4 -12.2 L7.2 -13.6 8.0 -11.95 8.75 -10.2 Q8.95 -10.1 9.0 -11.7 9.05 -13.25 9.2 -13.1 L9.9 -10.95 10.6 -8.75 11.25 -7.9 11.1 -6.85 11.3 -5.7 11.35 -4.6 Z" fill="none" stroke="#653d01" stroke-linecap="round" stroke-linejoin="round" stroke-width="1.0"/>
    <path d="M5.6 0.4 L4.8 0.1 Q5.8 -0.7 5.7 -3.05 L5.9 -2.1 6.15 -3.1 5.95 -1.7 Q6.1 -0.45 5.6 0.4" fill="#ffffff" fill-rule="evenodd" stroke="none"/>
    <path d="M4.95 0.45 L4.15 0.15 Q5.15 -0.65 5.05 -2.95 L5.25 -2.05 5.5 -3.05 5.35 -1.65 Q5.45 -0.35 4.95 0.45" fill="#ffffff" fill-rule="evenodd" stroke="none"/>
    <path d="M4.4 0.05 L3.6 -0.2 Q4.6 -0.8 4.5 -2.65 L4.7 -1.95 4.95 -2.7 4.75 -1.6 Q4.9 -0.6 4.4 0.05" fill="#ffffff" fill-rule="evenodd" stroke="none"/>
    <path d="M6.95 0.2 L6.2 -0.05 Q7.15 -0.75 7.05 -2.55 L7.3 -1.8 7.55 -2.6 7.35 -1.5 Q7.5 -0.55 6.95 0.2" fill="#ffffff" fill-rule="evenodd" stroke="none"/>
    <path d="M5.9 0.5 L5.2 0.05 Q6.25 -0.55 6.55 -2.9 L6.6 -1.95 7.0 -2.9 6.6 -1.55 Q6.6 -0.4 5.9 0.5" fill="#ffffff" fill-rule="evenodd" stroke="none"/>
    <path d="M7.5 0.55 L6.75 0.25 Q7.65 -0.55 7.65 -2.85 L7.85 -1.95 8.1 -2.9 7.9 -1.55 Q8.05 -0.35 7.5 0.55" fill="#ffffff" fill-rule="evenodd" stroke="none"/>
    <path d="M8.25 -0.6 L7.5 -0.9 Q8.4 -1.7 8.4 -4.05 8.95 -1.7 8.25 -0.6" fill="#ffffff" fill-rule="evenodd" stroke="none"/>
    <path d="M9.45 -0.5 L8.65 -0.85 Q9.55 -1.5 9.5 -2.55 L9.1 -3.5 9.6 -3.15 9.6 -3.95 Q10.15 -1.7 9.45 -0.5" fill="#ffffff" fill-rule="evenodd" stroke="none"/>
    <path d="M10.1 -0.5 L9.4 -0.95 Q10.45 -1.6 10.85 -3.85 11.0 -1.6 10.1 -0.5" fill="#ffffff" fill-rule="evenodd" stroke="none"/>
    <path d="M9.25 0.1 L8.6 -0.05 Q9.2 -0.75 8.8 -2.6 9.6 -0.95 9.25 0.1" fill="#ffffff" fill-rule="evenodd" stroke="none"/>
    <path d="M10.35 -0.3 L9.7 -0.4 Q10.3 -1.15 9.9 -3.0 10.7 -1.3 10.35 -0.3" fill="#ffffff" fill-rule="evenodd" stroke="none"/>
    <path d="M4.25 -1.55 L4.4 -1.85 4.8 -1.65 5.3 -1.65 5.8 -1.55 6.65 -1.4 7.25 -1.3 Q7.4 -0.95 7.5 -1.05 L7.7 -1.2 8.3 -1.1 Q8.45 -0.85 9.05 -0.95 L9.6 -0.85 9.9 -0.8 10.35 -0.75 10.5 -0.35" ffdec:has-small-stroke="true" ffdec:original-stroke-width="0.85" fill="none" stroke="#432500" stroke-linecap="round" stroke-linejoin="round" stroke-width="1.0"/>
    <path d="M3.2 0.3 L3.75 -1.85 4.0 -2.0 Q4.6 -1.35 6.45 -1.0 L11.1 -0.2 10.9 0.3 10.55 0.65 6.45 0.5 3.2 0.3" fill="#e38902" fill-rule="evenodd" stroke="none"/>
    <path d="M3.2 0.3 L6.45 0.5 10.55 0.65 10.9 0.3 11.1 -0.2 6.45 -1.0 Q4.6 -1.35 4.0 -2.0 L3.75 -1.85" ffdec:has-small-stroke="true" ffdec:original-stroke-width="0.85" fill="none" stroke="#653d01" stroke-linecap="round" stroke-linejoin="round" stroke-width="1.0"/>
    <path d="M5.25 0.6 L6.1 1.4 5.7 2.55 5.1 3.15 Q4.6 2.8 2.95 2.55 L0.75 2.25 -0.05 1.7 -0.55 1.6 -0.55 1.55 Q-0.65 0.6 -0.95 0.3 L4.45 1.1 5.25 0.6" fill="#353535" fill-rule="evenodd" stroke="none"/>
    <path d="M5.25 0.6 L6.1 1.4 5.7 2.55 5.1 3.15 Q4.6 2.8 2.95 2.55 L0.75 2.25 -0.05 1.7 -0.55 1.55 Q-0.65 0.6 -0.95 0.3 L4.45 1.1 5.25 0.6 Z" fill="none" stroke="#161616" stroke-linecap="round" stroke-linejoin="round" stroke-width="1.0"/>
    <path d="M-2.7 -8.7 L-2.4 -8.5 Q-2.05 -7.8 -0.8 -7.1 L0.85 -6.1 0.95 -5.9 0.85 -5.7 -0.4 -5.35 -0.65 -5.2 -0.9 -5.2 -1.8 -6.1 Q-2.55 -6.7 -3.6 -6.7 -3.95 -6.7 -3.9 -7.0 L-3.3 -8.05 -2.7 -8.7" fill="#3f3f3f" fill-rule="evenodd" stroke="none"/>
    <path d="M-3.85 -7.05 Q-1.45 -6.65 -0.65 -5.2" fill="none" stroke="#c8caca" stroke-linecap="round" stroke-linejoin="round" stroke-width="1.0"/>
    <path d="M1.45 -5.65 Q1.2 -6.4 -0.55 -7.3 -2.2 -8.1 -2.3 -9.1 L-2.95 -8.85 -4.15 -7.05 -4.1 -6.4 Q-2.15 -6.7 -0.7 -4.45" fill="none" stroke="#161616" stroke-linecap="round" stroke-linejoin="round" stroke-width="1.0"/>
    <path d="M-7.15 -3.75 Q-7.35 -4.0 -7.8 -4.1 L-8.55 -4.2 -11.85 -7.25 Q-12.4 -7.7 -12.2 -8.1 L-12.0 -8.15 -2.4 -2.65 -2.15 -2.5 -2.05 -2.25 Q-2.2 -2.1 -2.55 -2.0 L-3.05 -1.8 -3.3 -1.45 Q-3.2 -0.75 -3.4 -0.5 L-3.7 -0.2 -4.05 -0.1 -6.15 -2.0 -6.45 -2.45 -6.65 -3.0 Q-6.65 -3.35 -7.15 -3.75" fill="#f1bdbd" fill-rule="evenodd" stroke="none"/>
    <path d="M-12.25 -8.15 L-11.9 -7.4 -8.65 -4.3 -7.55 -4.15 -6.7 -3.55 -6.45 -2.85 -4.3 -1.2 -3.95 -0.7 -3.45 -0.65" ffdec:has-small-stroke="true" ffdec:original-stroke-width="0.85" fill="none" stroke="#e37b7b" stroke-linecap="round" stroke-linejoin="round" stroke-width="1.0"/>
    <path d="M-1.4 -2.05 Q-3.65 -3.1 -7.05 -5.25 L-12.8 -8.9 -12.4 -7.35 -8.65 -3.95 -7.6 -3.8 -7.0 -3.25 -6.65 -2.1 -5.15 -1.5 -4.55 -1.0 -3.9 0.4 -3.1 -0.45 -0.8 -0.7" fill="none" stroke="#6d1919" stroke-linecap="round" stroke-linejoin="round" stroke-width="1.0"/>
    <path d="M-1.05 -2.0 Q-0.9 -2.0 -0.8 -1.8 L-0.1 -1.2 0.2 -0.65 -0.15 -0.15 -0.3 0.0 -0.5 -0.1 Q-1.05 -0.65 -1.85 -0.75 L-2.6 -1.0 -2.75 -1.15 -2.7 -1.35 -1.05 -2.0" fill="#3f3f3f" fill-rule="evenodd" stroke="none"/>
    <path d="M-1.05 -2.0 Q-0.9 -1.8 -1.65 -1.4 L-2.6 -1.0 -1.15 -0.65 -0.4 0.0" fill="none" stroke="#c8caca" stroke-linecap="round" stroke-linejoin="round" stroke-width="1.0"/>
    <path d="M-0.8 -2.5 Q-1.3 -2.15 -3.05 -1.5 L-3.05 -0.95 -2.2 -0.5 Q-1.15 -0.5 -0.3 0.5 L0.55 -0.65 0.05 -1.4 -0.55 -1.9 -0.8 -2.5 Z" fill="none" stroke="#161616" stroke-linecap="round" stroke-linejoin="round" stroke-width="1.0"/>
    <path d="M-6.35 -2.35 L-6.35 -2.7 -5.25 -4.15 M-8.55 -4.15 L-8.35 -4.6 -7.7 -5.25" ffdec:has-small-stroke="true" ffdec:original-stroke-width="0.85" fill="none" stroke="#6d1919" stroke-linecap="round" stroke-linejoin="round" stroke-width="1.0"/>
    <path d="M-0.55 -12.9 L-0.2 -12.8 1.4 -12.55 1.7 -12.5 M0.3 -6.9 Q1.9 -8.8 1.4 -12.55 M-0.2 -12.8 Q0.2 -11.65 0.0 -10.15 -0.25 -8.55 -1.1 -7.7" fill="none" stroke="#161616" stroke-linecap="round" stroke-linejoin="round" stroke-width="1.0"/>
    <path d="M11.9 -4.85 L12.05 -4.8 12.0 -4.5 11.8 -4.2 Q11.7 -3.85 11.75 -3.15 11.7 -0.65 10.95 2.1 L10.55 2.6 10.25 2.8 9.95 2.85 Q7.25 1.5 3.15 0.6 L2.8 -0.1 Q2.4 -0.8 2.4 -1.25 2.45 -1.7 2.1 -2.15 1.75 -2.55 1.9 -2.85 L2.15 -3.45 11.9 -4.85" fill="url(#gradient4)" fill-rule="evenodd" stroke="none"/>
    <path d="M11.7 -3.15 L10.8 -3.25 10.25 -0.6 9.4 1.65 9.55 2.6" ffdec:has-small-stroke="true" ffdec:original-stroke-width="0.85" fill="none" stroke="#161616" stroke-linecap="round" stroke-linejoin="round" stroke-width="1.0"/>
    <path d="M2.85 -3.6 L3.1 -3.45 3.75 -1.6 Q3.9 -1.05 4.0 -1.05 L7.65 0.1 9.3 0.7 10.6 1.3 11.0 1.7 10.8 2.4 10.25 2.85 9.85 2.8 Q7.5 1.6 3.55 0.7 L3.05 0.5 2.5 -0.7 2.35 -1.6 1.9 -2.5 Q1.7 -2.65 1.95 -3.0 L2.15 -3.45 2.85 -3.6" fill="#000000" fill-opacity="0.26666668" fill-rule="evenodd" stroke="none"/>
    <path d="M11.95 -5.15 L7.55 -4.55 6.85 -4.05 5.4 -3.85 4.5 -4.1 1.85 -3.7 1.45 -2.55 2.1 -1.55 2.15 -0.9 2.9 0.8 Q7.9 2.0 10.15 3.25 L11.05 2.55 Q12.1 -0.65 12.0 -4.1 L12.4 -4.4 12.65 -4.7 11.95 -5.15 Z" fill="none" stroke="#161616" stroke-linecap="round" stroke-linejoin="round" stroke-width="1.0"/>
    <path d="M1.35 -5.0 Q2.35 -4.2 2.6 -3.05 L2.5 -2.3 2.2 -1.75 1.5 -1.5 Q0.25 -1.1 -0.5 -1.5 L-0.85 -1.85 -0.7 -2.95 -0.95 -3.55 -0.8 -4.25 0.45 -5.1 0.65 -5.15 1.35 -5.0" fill="#3f3f3f" fill-rule="evenodd" stroke="none"/>
    <path d="M2.95 -2.7 Q2.75 -4.3 1.5 -5.25 L0.7 -5.45 Q-0.45 -5.2 -0.85 -4.65 L-1.3 -3.5 Q-0.7 -2.9 -1.2 -1.7 L-0.75 -1.3 Q0.4 -0.75 2.45 -1.55 L2.95 -2.7 Z" ffdec:has-small-stroke="true" ffdec:original-stroke-width="0.85" fill="none" stroke="#161616" stroke-linecap="round" stroke-linejoin="round" stroke-width="1.0"/>
    <path d="M-5.55 -1.35 Q-5.35 -1.45 -5.25 -1.2 L-4.85 -0.1 Q-4.8 0.1 -5.05 0.3 L-5.55 0.6 -6.45 0.25 -6.7 -0.35 -6.75 -0.95 -6.35 -1.3 -5.55 -1.35" fill="#3f3f3f" fill-rule="evenodd" stroke="none"/>
    <path d="M-6.4 -1.7 L-7.15 -0.75 -6.9 0.45 -5.3 1.1" fill="none" stroke="#121212" stroke-linecap="round" stroke-linejoin="round" stroke-width="1.0"/>
    <path d="M7.8 1.55 Q8.4 1.85 7.9 2.55 L7.3 3.15 6.85 3.65 0.1 3.2 -3.75 3.5 -4.25 3.7 -4.75 3.6 -4.95 2.85 -5.05 2.1 -5.15 0.95 Q-4.4 0.4 -4.45 -0.05 -4.75 -1.25 -5.1 -1.7 L-6.2 -1.85 -6.7 -2.65 Q-6.4 -3.35 -5.7 -3.25 -3.35 -3.25 -0.2 -2.35 3.85 -1.15 7.8 1.55" fill="#a9a9a9" fill-rule="evenodd" stroke="none"/>
    <path d="M-6.0 -3.0 L-6.2 -2.75 -6.0 -2.15 -4.95 -2.15 -4.05 0.3 -4.8 1.2 -4.6 3.45 Q-2.0 2.65 0.7 2.7 L7.3 3.4" fill="none" stroke="#3f3f3f" stroke-linecap="round" stroke-linejoin="round" stroke-width="1.0"/>
    <path d="M1.75 3.4 L-3.6 3.65 -4.95 4.15 -5.4 1.0 -5.0 0.55 -4.65 0.05 -5.2 -1.5 -5.75 -1.55 -6.3 -1.55 -7.1 -2.65 -6.2 -3.45 Q-3.3 -3.55 -0.15 -2.55 L0.2 -2.1 0.5 -1.7 2.45 -1.0 3.2 -0.95 3.9 -0.95 Q6.25 0.15 8.4 1.75 L7.9 2.65 7.7 2.95 Q7.55 3.25 7.8 2.95 L7.5 3.95 1.75 3.4 Z" fill="none" stroke="#121212" stroke-linecap="round" stroke-linejoin="round" stroke-width="1.0"/>
  </g>
  <defs>
    <radialGradient cx="0" cy="0" gradientTransform="matrix(0.0017, 0.0107, -0.0082, 0.0013, -1.65, -10.9)" gradientUnits="userSpaceOnUse" id="gradient0" r="819.2" spreadMethod="pad">
      <stop offset="0.0" stop-color="#fdbd5c"/>
      <stop offset="1.0" stop-color="#e38902"/>
    </radialGradient>
    <radialGradient cx="0" cy="0" gradientTransform="matrix(0.0017, 0.0107, -0.0082, 0.0013, -1.55, -10.65)" gradientUnits="userSpaceOnUse" id="gradient1" r="819.2" spreadMethod="pad">
      <stop offset="0.0" stop-color="#fdbd5c"/>
      <stop offset="1.0" stop-color="#e38902"/>
    </radialGradient>
    <radialGradient cx="0" cy="0" gradientTransform="matrix(0.0017, 0.0107, -0.0082, 0.0013, -1.65, -10.75)" gradientUnits="userSpaceOnUse" id="gradient2" r="819.2" spreadMethod="pad">
      <stop offset="0.0" stop-color="#fdbd5c"/>
      <stop offset="1.0" stop-color="#e38902"/>
    </radialGradient>
    <radialGradient cx="0" cy="0" gradientTransform="matrix(0.0017, 0.0107, -0.0082, 0.0013, -1.8, -10.9)" gradientUnits="userSpaceOnUse" id="gradient3" r="819.2" spreadMethod="pad">
      <stop offset="0.0" stop-color="#fdbd5c"/>
      <stop offset="1.0" stop-color="#e38902"/>
    </radialGradient>
    <linearGradient gradientTransform="matrix(0.0063, -1.0E-4, 1.0E-4, 0.0063, 7.0, -0.95)" gradientUnits="userSpaceOnUse" id="gradient4" spreadMethod="pad" x1="-819.2" x2="819.2">
      <stop offset="0.0" stop-color="#323232"/>
      <stop offset="0.5058823529411764" stop-color="#545454"/>
      <stop offset="1.0" stop-color="#2d2d2d"/>
    </linearGradient>
  </defs>
</svg>
