<?xml version="1.0" encoding="UTF-8" standalone="no"?>
<svg xmlns:ffdec="https://www.free-decompiler.com/flash" xmlns:xlink="http://www.w3.org/1999/xlink" ffdec:objectType="shape" height="22.15px" width="19.5px" xmlns="http://www.w3.org/2000/svg">
  <g transform="matrix(1.0, 0.0, 0.0, 1.0, 7.6, 19.35)">
    <path d="M-3.1 -1.9 L-3.1 -2.4 -3.9 -3.6 -3.8 -5.8 1.35 -4.95 3.05 -2.4 -3.1 -1.9" fill="#000000" fill-opacity="0.34117648" fill-rule="evenodd" stroke="none"/>
    <path d="M-3.1 -1.9 L3.05 -2.4 1.35 -4.95 -3.8 -5.8 -3.9 -3.6 -3.1 -2.4 -3.1 -1.9 Z" ffdec:has-small-stroke="true" ffdec:original-stroke-width="0.8" fill="none" stroke="#14151c" stroke-linecap="round" stroke-linejoin="round" stroke-width="1.0"/>
    <path d="M-1.65 -6.8 L3.4 -6.35 5.7 -0.9 4.3 1.3 5.7 -0.9 3.4 -6.35 -1.65 -6.8 -1.65 -6.85 3.6 -6.35 5.9 -0.9 4.45 1.3 4.3 1.3 -3.55 0.1 -3.95 -0.75 -3.1 -2.25 -3.75 -3.05 -3.75 -5.8 -1.65 -6.8" fill="#1c1f28" fill-rule="evenodd" stroke="none"/>
    <path d="M4.3 1.3 L5.7 -0.9 3.4 -6.35 -1.65 -6.8 -1.85 -6.85 -3.95 -5.8 -3.95 -3.05 -3.3 -2.25 -4.15 -0.75 -3.75 0.1 4.25 1.3 4.3 1.3 Z" fill="none" stroke="#070410" stroke-linecap="round" stroke-linejoin="round" stroke-width="1.0"/>
    <path d="M-4.55 -1.2 L-3.8 -1.75 -3.1 -0.85 0.8 -0.6 Q3.1 -0.35 4.95 0.3 L5.65 1.75 4.85 2.0 0.95 1.3 -3.6 1.4 -5.3 0.05 -4.55 -1.2" fill="#0d1012" fill-rule="evenodd" stroke="none"/>
    <path d="M-4.55 -1.2 L-3.8 -1.75 -3.1 -0.85 0.8 -0.6 Q3.1 -0.35 4.95 0.3 L5.65 1.75 4.85 2.0 0.95 1.3 -3.6 1.4 -5.3 0.05 -4.55 -1.2 Z" ffdec:has-small-stroke="true" ffdec:original-stroke-width="0.8" fill="none" stroke="#14151c" stroke-linecap="round" stroke-linejoin="round" stroke-width="1.0"/>
    <path d="M-5.2 0.1 L-4.55 -1.3 -3.8 -1.65 -3.1 -1.0 -2.9 -1.0 5.6 0.3 5.25 1.3 Q1.85 -0.2 -3.75 0.05 L-4.55 0.65 -5.2 0.1" fill="#b6b6b6" fill-rule="evenodd" stroke="none"/>
    <path d="M-5.2 0.1 L-4.55 0.65 -3.75 0.05 Q1.85 -0.2 5.25 1.3 L5.6 0.3 -2.9 -1.0 -3.1 -1.0 -3.8 -1.65 -4.55 -1.3 -5.2 0.1 Z" ffdec:has-small-stroke="true" ffdec:original-stroke-width="0.8" fill="none" stroke="#14151c" stroke-linecap="round" stroke-linejoin="round" stroke-width="1.0"/>
    <path d="M-4.55 -1.2 L-3.8 -1.75 -3.1 -0.85 0.8 -0.6 Q3.1 -0.35 4.95 0.3 L5.65 1.75 4.85 2.0 0.95 1.3 -3.6 1.4 -5.3 0.05 -4.55 -1.2 Z" ffdec:has-small-stroke="true" ffdec:original-stroke-width="0.8" fill="none" stroke="#000000" stroke-linecap="round" stroke-linejoin="round" stroke-width="1.0"/>
    <path d="M3.05 -8.7 L9.05 -7.95 8.85 -6.6 6.95 -6.15 6.45 -5.15 2.6 -5.6 3.05 -8.7" fill="url(#gradient0)" fill-rule="evenodd" stroke="none"/>
    <path d="M5.9 -8.8 L6.55 -8.6 5.3 -5.25 4.4 -5.85 5.9 -8.8" fill="#ffffff" fill-opacity="0.21568628" fill-rule="evenodd" stroke="none"/>
    <path d="M-5.45 -4.9 L-5.85 -11.05 -4.9 -14.1 -4.25 -14.2 -3.3 -16.4 5.65 -18.7 11.2 -13.95 8.7 -9.05 1.6 -9.05 -0.25 -3.75 -2.4 -3.8 -3.7 -4.9 -5.45 -4.9" fill="url(#gradient1)" fill-rule="evenodd" stroke="none"/>
    <path d="M5.75 -17.8 L0.9 -17.1 Q-1.9 -16.65 -3.15 -16.0 L-3.95 -14.3 -4.6 -13.7 -5.7 -10.7 -5.2 -5.2 -3.55 -5.25 -2.25 -4.2 -0.5 -4.2" ffdec:has-small-stroke="true" ffdec:original-stroke-width="0.8" fill="none" stroke="#b6b6b6" stroke-linecap="round" stroke-linejoin="round" stroke-width="1.0"/>
    <path d="M-5.0 -13.7 L-0.35 -14.35 Q4.8 -14.55 9.35 -12.25" ffdec:has-small-stroke="true" ffdec:original-stroke-width="0.8" fill="none" stroke="#000000" stroke-linecap="round" stroke-linejoin="round" stroke-opacity="0.49411765" stroke-width="1.0"/>
    <path d="M-4.15 -14.2 L2.6 -14.65 Q6.15 -14.3 9.25 -12.7" fill="none" stroke="#030508" stroke-linecap="round" stroke-linejoin="round" stroke-width="1.0"/>
    <path d="M-5.55 -6.1 L-4.15 -6.6 -2.5 -6.6 -0.35 -5.9 -0.15 -3.65 -2.45 -3.85 -3.55 -4.8 -5.45 -4.95 -5.55 -6.1" fill="#0d1012" fill-opacity="0.47058824" fill-rule="evenodd" stroke="none"/>
    <path d="M3.7 -5.25 L2.2 -6.1 3.45 -8.9 4.2 -8.7 8.95 -8.15 9.9 -9.15 10.2 -11.15 9.9 -13.05 9.45 -14.55 Q8.75 -16.1 6.1 -18.25 L1.2 -17.55 -3.3 -16.4 -3.9 -15.3 -4.25 -14.2 -4.9 -14.1 -6.1 -10.75 -5.2 -9.85 -5.65 -7.2 -5.45 -4.9 -3.7 -4.9 -2.4 -3.8 0.35 -3.6 0.6 -1.95 4.15 -1.25 4.6 0.4 6.6 1.05" ffdec:has-small-stroke="true" ffdec:original-stroke-width="0.8" fill="none" stroke="#030508" stroke-linecap="round" stroke-linejoin="round" stroke-width="1.0"/>
    <path d="M7.65 -8.45 L8.1 -8.35 6.7 -4.9 5.95 -5.35 7.65 -8.45" fill="#ffffff" fill-opacity="0.21568628" fill-rule="evenodd" stroke="none"/>
    <path d="M0.6 -1.95 L0.35 -3.6 2.6 -5.35 6.45 -5.15 6.95 -6.15 8.7 -6.5 9.8 -5.15 9.7 -2.25 Q9.6 -0.55 8.85 0.5 L6.6 1.05 4.6 0.4 4.15 -1.25 0.6 -1.95" fill="#0d1012" fill-rule="evenodd" stroke="none"/>
    <path d="M9.9 -4.5 L9.5 -3.95 10.0 -3.05 8.9 0.5 7.75 0.8 7.2 -0.2 8.45 -4.05 9.9 -4.5" fill="#b6b6b6" fill-rule="evenodd" stroke="none"/>
    <path d="M9.15 -5.6 L7.35 -5.0 6.6 -4.1 4.95 -3.75 4.35 -2.7 1.25 -1.8 0.15 -3.95 3.55 -5.2 5.65 -5.15 6.55 -5.4 7.1 -6.15 8.85 -6.55 9.35 -5.9 9.15 -5.6" fill="#ebae46" fill-opacity="0.14901961" fill-rule="evenodd" stroke="none"/>
    <path d="M3.7 -5.25 L6.45 -5.15 6.95 -6.15 8.7 -6.5 10.15 -4.9 8.7 0.5 6.6 1.05" ffdec:has-small-stroke="true" ffdec:original-stroke-width="0.8" fill="none" stroke="#000000" stroke-linecap="round" stroke-linejoin="round" stroke-width="1.0"/>
    <path d="M0.35 -3.6 L0.6 -1.95 4.15 -1.25 4.6 0.4 6.6 1.05" ffdec:has-small-stroke="true" ffdec:original-stroke-width="0.8" fill="none" stroke="#04070b" stroke-linecap="round" stroke-linejoin="round" stroke-width="1.0"/>
    <path d="M8.7 -6.5 L6.95 -6.15 6.45 -5.15 3.7 -5.25" ffdec:has-small-stroke="true" ffdec:original-stroke-width="0.8" fill="none" stroke="#c57400" stroke-linecap="round" stroke-linejoin="round" stroke-opacity="0.32941177" stroke-width="1.0"/>
    <path d="M0.3 -0.8 L1.75 -2.85 4.95 -2.25 5.85 -0.1 4.15 2.4 0.9 1.75 0.3 -0.8" fill="#35424a" fill-rule="evenodd" stroke="none"/>
    <path d="M0.8 -1.55 L0.9 -1.9 1.75 -2.95 5.05 -2.45 5.9 -0.35 5.5 0.25 4.55 -1.55 2.1 -2.0 0.8 -1.55" fill="#000000" fill-opacity="0.19215687" fill-rule="evenodd" stroke="none"/>
    <path d="M0.75 -1.3 L1.65 0.8 4.6 1.45 4.1 2.25 0.9 1.7 0.3 -0.65 0.75 -1.3" fill="#000000" fill-opacity="0.19215687" fill-rule="evenodd" stroke="none"/>
    <path d="M4.15 2.4 L0.9 1.75 0.3 -0.8 M1.8 -2.8 L5.0 -2.25 5.85 -0.1" ffdec:has-small-stroke="true" ffdec:original-stroke-width="0.8" fill="none" stroke="#222a30" stroke-linecap="round" stroke-linejoin="round" stroke-width="1.0"/>
    <path d="M5.4 0.8 L5.85 -0.1 5.0 -2.25 1.8 -2.8 1.1 -1.8 0.75 -1.6" ffdec:has-small-stroke="true" ffdec:original-stroke-width="0.8" fill="none" stroke="#04070b" stroke-linecap="round" stroke-linejoin="round" stroke-width="1.0"/>
    <path d="M1.1 -1.8 L0.3 -0.8 0.55 0.55" ffdec:has-small-stroke="true" ffdec:original-stroke-width="0.8" fill="none" stroke="#04070b" stroke-linecap="round" stroke-linejoin="round" stroke-width="1.0"/>
    <path d="M5.85 -0.1 L4.15 2.4" ffdec:has-small-stroke="true" ffdec:original-stroke-width="0.8" fill="none" stroke="#04070b" stroke-linecap="round" stroke-linejoin="round" stroke-width="1.0"/>
    <path d="M2.6 -5.35 L3.05 -8.7 9.05 -7.95 8.85 -6.6" ffdec:has-small-stroke="true" ffdec:original-stroke-width="0.3" fill="none" stroke="#8f5508" stroke-linecap="round" stroke-linejoin="round" stroke-opacity="0.5764706" stroke-width="1.0"/>
    <path d="M7.25 -9.8 L9.75 -12.6 Q9.7 -14.5 5.45 -16.6 L4.55 -18.45 6.75 -18.95 9.1 -16.85 Q10.4 -15.7 10.85 -14.4 11.9 -12.9 10.85 -11.45 L10.45 -9.45 9.1 -9.75 7.25 -9.8" fill="url(#gradient2)" fill-rule="evenodd" stroke="none"/>
    <path d="M6.75 -18.95 L9.1 -16.85 Q10.4 -15.7 10.85 -14.4 L11.5 -13.5 11.5 -12.3 10.85 -11.45 10.45 -9.45 9.1 -9.75 7.25 -9.8" ffdec:has-small-stroke="true" ffdec:original-stroke-width="0.8" fill="none" stroke="#42382a" stroke-linecap="round" stroke-linejoin="round" stroke-width="1.0"/>
    <path d="M11.45 -12.55 L10.6 -12.2 9.95 -12.35" ffdec:has-small-stroke="true" ffdec:original-stroke-width="0.8" fill="none" stroke="#42382a" stroke-linecap="round" stroke-linejoin="round" stroke-width="1.0"/>
    <path d="M7.65 -10.2 L9.75 -12.6 Q9.5 -14.6 5.45 -16.6 L4.55 -18.45 6.75 -18.95" ffdec:has-small-stroke="true" ffdec:original-stroke-width="0.8" fill="none" stroke="#1d1812" stroke-linecap="round" stroke-linejoin="round" stroke-width="1.0"/>
    <path d="M-2.7 -9.15 L-2.25 -6.8 -3.7 -5.85 -5.2 -5.9 -7.15 -7.95 -7.2 -9.45 -6.4 -11.05 -5.25 -11.05 -4.2 -9.3 -2.7 -9.15" fill="url(#gradient3)" fill-rule="evenodd" stroke="none"/>
    <path d="M-6.4 -11.05 L-7.2 -9.45 -7.15 -7.95 -5.2 -5.9" ffdec:has-small-stroke="true" ffdec:original-stroke-width="0.8" fill="none" stroke="#42382a" stroke-linecap="round" stroke-linejoin="round" stroke-width="1.0"/>
    <path d="M-5.2 -5.9 L-3.7 -5.85 -2.25 -6.8" ffdec:has-small-stroke="true" ffdec:original-stroke-width="0.8" fill="none" stroke="#1d1812" stroke-linecap="round" stroke-linejoin="round" stroke-width="1.0"/>
    <path d="M-6.4 -11.05 L-5.25 -11.05 -4.2 -9.3 -2.7 -9.15" ffdec:has-small-stroke="true" ffdec:original-stroke-width="0.9" fill="none" stroke="#1d1812" stroke-linecap="round" stroke-linejoin="round" stroke-width="1.0"/>
    <path d="M-1.2 -10.5 L-2.5 -9.85 -2.5 -7.15 -1.55 -6.3" ffdec:has-small-stroke="true" ffdec:original-stroke-width="0.8" fill="none" stroke="#000000" stroke-linecap="round" stroke-linejoin="round" stroke-width="1.0"/>
    <path d="M3.45 -9.0 L2.95 -9.45 2.85 -10.4 9.1 -10.45 10.75 -9.5 9.55 -8.1 3.45 -9.0" fill="#0d1012" fill-rule="evenodd" stroke="none"/>
    <path d="M3.45 -9.0 L9.55 -8.1 10.75 -9.5 9.1 -10.45 2.85 -10.4 2.95 -9.45 3.45 -9.0 Z" ffdec:has-small-stroke="true" ffdec:original-stroke-width="0.8" fill="none" stroke="#14151c" stroke-linecap="round" stroke-linejoin="round" stroke-width="1.0"/>
    <path d="M4.0 -9.25 L8.7 -9.05 10.55 -9.75 10.65 -9.45 9.7 -8.0 3.95 -8.65 4.0 -9.25" fill="#ebae46" fill-opacity="0.14901961" fill-rule="evenodd" stroke="none"/>
    <path d="M4.0 -9.25 L8.7 -9.05 10.55 -9.75 10.65 -9.45 9.7 -8.0 3.95 -8.65 4.0 -9.25 Z" ffdec:has-small-stroke="true" ffdec:original-stroke-width="0.8" fill="none" stroke="#14151c" stroke-linecap="round" stroke-linejoin="round" stroke-width="1.0"/>
    <path d="M3.45 -9.0 L9.55 -8.1 10.75 -9.5 9.1 -10.45 2.85 -10.4 2.95 -9.45 3.45 -9.0 Z" ffdec:has-small-stroke="true" ffdec:original-stroke-width="0.8" fill="none" stroke="#000000" stroke-linecap="round" stroke-linejoin="round" stroke-width="1.0"/>
    <path d="M2.1 -11.1 L4.1 -9.25 3.75 -6.8 4.6 -5.9 4.0 -4.75 -0.25 -3.75 -1.85 -5.7 -1.9 -10.95 2.1 -11.1" fill="#0d1012" fill-rule="evenodd" stroke="none"/>
    <path d="M2.1 -11.1 L4.1 -9.25 3.75 -6.8 4.6 -5.9 4.0 -4.75 -0.25 -3.75 -1.85 -5.7 -1.9 -10.95 2.1 -11.1 Z" ffdec:has-small-stroke="true" ffdec:original-stroke-width="0.8" fill="none" stroke="#14151c" stroke-linecap="round" stroke-linejoin="round" stroke-width="1.0"/>
    <path d="M3.55 -7.0 L4.6 -5.9 3.8 -4.5 -0.35 -3.8 -0.6 -4.45 2.5 -5.85 3.55 -7.0" fill="#08070d" fill-rule="evenodd" stroke="none"/>
    <path d="M3.55 -7.0 L2.5 -5.85 -0.6 -4.45 -0.35 -3.8 3.8 -4.5 4.6 -5.9 3.55 -7.0 Z" ffdec:has-small-stroke="true" ffdec:original-stroke-width="0.8" fill="none" stroke="#14151c" stroke-linecap="round" stroke-linejoin="round" stroke-width="1.0"/>
    <path d="M2.1 -11.1 L4.1 -9.25 3.75 -6.8 4.6 -5.9 4.0 -4.75 -0.25 -3.75 -1.85 -5.7 -1.9 -10.95 2.1 -11.1 Z" ffdec:has-small-stroke="true" ffdec:original-stroke-width="0.8" fill="none" stroke="#000000" stroke-linecap="round" stroke-linejoin="round" stroke-width="1.0"/>
    <path d="M2.3 -7.85 L1.6 -6.7 0.15 -6.7 -0.5 -7.85 0.15 -9.05 1.6 -9.05 2.3 -7.85" fill="url(#gradient4)" fill-rule="evenodd" stroke="none"/>
    <path d="M2.3 -7.85 L1.6 -6.7 0.15 -6.7 -0.5 -7.85 0.15 -9.05 1.6 -9.05 2.3 -7.85 Z" ffdec:has-small-stroke="true" ffdec:original-stroke-width="0.8" fill="none" stroke="#14151c" stroke-linecap="round" stroke-linejoin="round" stroke-width="1.0"/>
    <path d="M0.15 -6.7 L-0.5 -7.85 0.15 -9.05 1.6 -9.05" ffdec:has-small-stroke="true" ffdec:original-stroke-width="0.8" fill="none" stroke="#ac671f" stroke-linecap="round" stroke-linejoin="round" stroke-opacity="0.6431373" stroke-width="1.0"/>
    <path d="M1.6 -9.05 L2.3 -7.85 1.6 -6.7 0.15 -6.7" ffdec:has-small-stroke="true" ffdec:original-stroke-width="0.8" fill="none" stroke="#b46c21" stroke-linecap="round" stroke-linejoin="round" stroke-opacity="0.6431373" stroke-width="1.0"/>
  </g>
  <defs>
    <linearGradient gradientTransform="matrix(0.0039, 0.0, 0.0, 0.0039, 5.75, -6.9)" gradientUnits="userSpaceOnUse" id="gradient0" spreadMethod="pad" x1="-819.2" x2="819.2">
      <stop offset="0.0" stop-color="#412e04"/>
      <stop offset="0.2901960784313726" stop-color="#efa73b"/>
      <stop offset="0.8392156862745098" stop-color="#e9b353"/>
      <stop offset="1.0" stop-color="#936715"/>
    </linearGradient>
    <radialGradient cx="0" cy="0" gradientTransform="matrix(0.0103, 0.0, 0.0, 0.0091, 2.6, -11.2)" gradientUnits="userSpaceOnUse" id="gradient1" r="819.2" spreadMethod="pad">
      <stop offset="0.0" stop-color="#20252c"/>
      <stop offset="0.8549019607843137" stop-color="#0d1012"/>
    </radialGradient>
    <linearGradient gradientTransform="matrix(0.0042, -0.0047, 0.0047, 0.0042, 7.95, -13.6)" gradientUnits="userSpaceOnUse" id="gradient2" spreadMethod="pad" x1="-819.2" x2="819.2">
      <stop offset="0.0" stop-color="#92764f"/>
      <stop offset="0.1607843137254902" stop-color="#857357"/>
      <stop offset="0.4666666666666667" stop-color="#ac9a81"/>
    </linearGradient>
    <linearGradient gradientTransform="matrix(0.0028, -0.0016, 0.0016, 0.0027, -4.85, -8.25)" gradientUnits="userSpaceOnUse" id="gradient3" spreadMethod="pad" x1="-819.2" x2="819.2">
      <stop offset="0.0" stop-color="#92764f"/>
      <stop offset="0.1607843137254902" stop-color="#857357"/>
      <stop offset="0.4666666666666667" stop-color="#ac9a81"/>
    </linearGradient>
    <radialGradient cx="0" cy="0" gradientTransform="matrix(0.0017, 0.0, 0.0, 0.0014, 0.85, -7.8)" gradientUnits="userSpaceOnUse" id="gradient4" r="819.2" spreadMethod="pad">
      <stop offset="0.0" stop-color="#f9e4c0"/>
      <stop offset="1.0" stop-color="#e69c1f"/>
    </radialGradient>
  </defs>
</svg>
