<?xml version="1.0" encoding="UTF-8" standalone="no"?>
<svg xmlns:ffdec="https://www.free-decompiler.com/flash" xmlns:xlink="http://www.w3.org/1999/xlink" ffdec:objectType="shape" height="14.2px" width="14.0px" xmlns="http://www.w3.org/2000/svg">
  <g transform="matrix(1.0, 0.0, 0.0, 1.0, -3.0, -3.35)">
    <path d="M10.05 16.3 L9.0 16.15 6.8 11.35 7.55 9.95 8.7 9.95 8.55 13.15 Q8.85 15.0 10.05 16.3 M3.9 12.55 L3.85 11.8 3.9 11.85 3.9 12.55" fill="#1e1e1e" fill-rule="evenodd" stroke="none"/>
    <path d="M13.6 10.55 L14.3 10.5 14.95 10.7 15.2 11.0 14.95 11.25 14.3 11.35 13.6 11.15 13.3 10.85 13.6 10.55" fill="#121212" fill-rule="evenodd" stroke="none"/>
    <path d="M9.0 16.15 Q8.8 15.75 7.9 15.3 L6.05 14.55 4.85 14.05 Q4.1 13.35 3.9 12.55 L3.9 11.85 6.05 12.75 6.8 11.35 9.0 16.15" fill="#252525" fill-rule="evenodd" stroke="none"/>
    <path d="M13.6 10.55 L13.3 10.85 13.6 11.15 14.3 11.35 14.95 11.25 15.2 11.0 14.95 10.7 14.3 10.5 13.6 10.55 M3.9 11.85 Q2.75 8.6 5.05 5.75 7.35 2.9 11.45 4.35 15.55 5.75 16.0 9.3 16.45 12.8 16.5 15.25 15.2 16.6 13.95 16.85 12.25 17.35 10.45 16.5 L10.05 16.3 Q8.85 15.0 8.55 13.15 L8.7 9.95 7.55 9.95 6.8 11.35 6.05 12.75 3.9 11.85" fill="url(#gradient0)" fill-rule="evenodd" stroke="none"/>
    <path d="M16.0 9.3 Q16.45 12.8 16.5 15.25 15.2 16.6 13.95 16.85 12.25 17.35 10.45 16.5 L10.05 16.3 9.0 16.15 Q8.8 15.75 7.9 15.3 L6.05 14.55 4.85 14.05 Q4.1 13.35 3.9 12.55 L3.85 11.8 3.9 11.85 6.05 12.75 6.8 11.35 7.55 9.95 8.7 9.95 8.55 13.15 Q8.85 15.0 10.05 16.3" fill="none" stroke="#000000" stroke-linecap="round" stroke-linejoin="round" stroke-width="1.0"/>
    <path d="M3.9 11.85 Q2.75 8.6 5.05 5.75 7.35 2.9 11.45 4.35 15.55 5.75 16.0 9.3" fill="none" stroke="#0f0f0f" stroke-linecap="round" stroke-linejoin="round" stroke-width="1.0"/>
  </g>
  <defs>
    <linearGradient gradientTransform="matrix(0.0082, 0.0, 0.0, 0.0089, 10.0, 9.75)" gradientUnits="userSpaceOnUse" id="gradient0" spreadMethod="pad" x1="-819.2" x2="819.2">
      <stop offset="0.0" stop-color="#333333"/>
      <stop offset="1.0" stop-color="#000000"/>
    </linearGradient>
  </defs>
</svg>
