<?xml version="1.0" encoding="UTF-8" standalone="no"?>
<svg xmlns:ffdec="https://www.free-decompiler.com/flash" xmlns:xlink="http://www.w3.org/1999/xlink" ffdec:objectType="shape" height="13.1px" width="15.95px" xmlns="http://www.w3.org/2000/svg">
  <g transform="matrix(1.0, 0.0, 0.0, 1.0, 9.1, 10.15)">
    <path d="M1.15 -0.45 Q0.75 -0.5 -1.5 -1.5 L-1.5 -2.9 0.9 -3.35 4.2 -3.5 5.4 -3.4 5.75 -2.1 5.6 -0.7 4.75 -0.7 4.3 -0.6 3.65 -0.3 2.9 -0.05 2.05 -0.2 1.15 -0.45" fill="#ff0000" fill-opacity="0.4" fill-rule="evenodd" stroke="none"/>
    <path d="M1.15 -0.45 Q0.75 -0.5 -1.5 -1.5 L-1.5 -2.9 0.9 -3.35 4.2 -3.5 5.4 -3.4 5.75 -2.1 5.6 -0.7 4.75 -0.7 4.3 -0.6 3.65 -0.3 2.9 -0.05 2.05 -0.2 1.15 -0.45 Z" fill="none" stroke="#2f0300" stroke-linecap="round" stroke-linejoin="round" stroke-opacity="0.7058824" stroke-width="0.7000000000000001"/>
    <path d="M-6.4 -1.4 L-6.4 -1.8 -6.4 -1.85 -6.3 -2.45 -6.4 -1.4" fill="#333333" fill-rule="evenodd" stroke="none"/>
    <path d="M-6.3 -2.45 Q-6.2 -3.2 -5.8 -3.55 L-4.8 -4.05 -4.15 -4.15 Q-3.15 -4.3 -2.4 -3.55 -1.6 -2.85 -1.5 -1.9 L-1.5 -1.75 -1.5 -0.85 -1.9 -0.05 -2.5 0.55 -3.3 0.9 -4.15 0.9 -5.35 0.4 -6.25 -0.85 -6.4 -1.4 -6.3 -2.45 M-4.95 -0.4 L-3.9 -1.8 -2.25 -1.3 -3.9 -1.8 -4.95 -0.4 M-3.9 -1.8 L-4.45 -3.3 -3.9 -1.8" fill="#313131" fill-rule="evenodd" stroke="none"/>
    <path d="M-6.3 -2.45 Q-6.2 -3.2 -5.8 -3.55 L-4.8 -4.05 -4.15 -4.15 Q-3.15 -4.3 -2.4 -3.55 -1.6 -2.85 -1.5 -1.9 L-1.5 -1.75 -1.5 -0.85 -1.9 -0.05 -2.5 0.55 -3.3 0.9 -4.15 0.9 -5.35 0.4 -6.25 -0.85 -6.4 -1.4 -6.4 -1.8 -6.4 -1.85 -6.3 -2.45" fill="none" stroke="#202020" stroke-linecap="round" stroke-linejoin="round" stroke-width="1.0"/>
    <path d="M-2.25 -1.3 L-3.9 -1.8 -4.95 -0.4 M-4.45 -3.3 L-3.9 -1.8" fill="none" stroke="#330000" stroke-linecap="round" stroke-linejoin="round" stroke-width="1.0"/>
    <path d="M-6.4 -1.4 L-8.5 -1.2 -8.5 -1.9 -6.3 -2.45 -6.4 -1.4 M-6.4 -1.8 L-8.5 -1.2" fill="none" stroke="#151515" stroke-linecap="round" stroke-linejoin="round" stroke-width="1.0"/>
    <path d="M-3.3 0.9 Q-0.35 2.75 2.7 2.4" fill="none" stroke="#101010" stroke-linecap="round" stroke-linejoin="round" stroke-width="1.0"/>
    <path d="M-1.5 -1.9 L-1.05 -1.3 -2.0 0.55 -2.5 0.55 M-6.25 -0.85 L-6.25 -0.05 -4.75 1.15 -4.15 0.9" fill="none" stroke="#191919" stroke-linecap="round" stroke-linejoin="round" stroke-width="1.0"/>
    <path d="M-8.3 -4.15 L-7.55 -6.45 Q-7.05 -7.6 -5.25 -8.65 -4.05 -9.45 -2.15 -9.6 0.15 -9.8 1.65 -9.1 3.2 -8.45 3.95 -7.6 5.1 -6.45 5.15 -5.6 6.4 -5.05 6.35 -4.1 6.0 -3.4 4.95 -3.55 L0.7 -3.4 -1.6 -3.15 -3.6 -2.85 -4.15 -2.55 -6.25 -2.25 -8.35 -2.05 Q-8.9 -3.0 -8.3 -4.15 L-6.55 -4.4 -4.5 -4.75 -2.4 -5.05 0.05 -5.5 0.85 -5.6 3.0 -5.6 5.15 -5.6 4.95 -3.55 5.15 -5.6 3.0 -5.6 0.85 -5.6 0.05 -5.5 -2.4 -5.05 -4.5 -4.75 -6.55 -4.4 -8.3 -4.15 M-4.15 -2.55 L-4.5 -4.75 -4.15 -2.55 M-2.4 -5.05 L-1.6 -3.15 -2.4 -5.05 M-6.55 -4.4 L-6.25 -2.25 -6.55 -4.4 M0.7 -3.4 L0.05 -5.5 0.7 -3.4 M3.0 -5.6 L3.0 -4.2 3.0 -5.6" fill="#272727" fill-rule="evenodd" stroke="none"/>
    <path d="M-8.3 -4.15 L-7.55 -6.45 Q-7.05 -7.6 -5.25 -8.65 -4.05 -9.45 -2.15 -9.6 0.15 -9.8 1.65 -9.1 3.2 -8.45 3.95 -7.6 5.1 -6.45 5.15 -5.6 6.4 -5.05 6.35 -4.1 6.0 -3.4 4.95 -3.55 L0.7 -3.4 -1.6 -3.15 -3.6 -2.85 -4.15 -2.55 -6.25 -2.25 -8.35 -2.05 Q-8.9 -3.0 -8.3 -4.15 L-6.55 -4.4 -4.5 -4.75 -2.4 -5.05 0.05 -5.5 0.85 -5.6 3.0 -5.6 5.15 -5.6 4.95 -3.55 M3.0 -4.2 L3.0 -5.6 M0.05 -5.5 L0.7 -3.4 M-6.25 -2.25 L-6.55 -4.4 M-1.6 -3.15 L-2.4 -5.05 M-4.5 -4.75 L-4.15 -2.55" fill="none" stroke="#191919" stroke-linecap="round" stroke-linejoin="round" stroke-width="1.0"/>
  </g>
</svg>
