<?xml version="1.0" encoding="UTF-8" standalone="no"?>
<svg xmlns:ffdec="https://www.free-decompiler.com/flash" xmlns:xlink="http://www.w3.org/1999/xlink" ffdec:objectType="shape" height="19.9px" width="27.0px" xmlns="http://www.w3.org/2000/svg">
  <g transform="matrix(1.0, 0.0, 0.0, 1.0, 12.85, 15.25)">
    <path d="M-0.5 -9.45 L-0.95 -6.05 2.5 -3.05 0.75 -0.85 -3.9 -3.15 -4.3 -4.4 -4.2 -5.35 -8.95 -4.4 -11.05 -4.65 -12.25 -6.25 -12.35 -7.9 -10.0 -8.15 -8.5 -9.7 -9.0 -12.0 -7.4 -13.45 -5.65 -13.35 -4.3 -12.9 -1.65 -12.0 -0.5 -9.45 M-3.05 -7.5 L-2.85 -9.55 -3.05 -7.5 M-5.0 -7.65 L-4.8 -9.7 -5.0 -7.65 M-4.2 -5.35 L-0.95 -6.05 -4.2 -5.35 M-8.95 -4.4 L-10.0 -8.15 -8.95 -4.4" fill="#545454" fill-rule="evenodd" stroke="none"/>
    <path d="M13.65 -5.7 L10.0 -2.5 9.8 0.05 11.1 1.15 11.45 3.7 8.75 4.15 7.4 2.45 9.8 0.05 7.4 2.45 -0.2 0.85 0.75 -0.85 2.5 -3.05 -0.95 -6.05 -0.5 -9.45 13.65 -5.7 M2.3 -6.2 L2.5 -3.05 2.3 -6.2 M5.1 -2.35 L4.9 -5.5 5.1 -2.35 M7.9 -1.6 L7.7 -4.75 7.9 -1.6" fill="#49494f" fill-rule="evenodd" stroke="none"/>
    <path d="M13.65 -5.7 L-0.5 -9.45 -1.65 -12.0 -4.3 -12.9 -3.15 -14.2 Q-1.7 -15.15 0.25 -14.45 8.2 -12.65 13.65 -5.7" fill="#404040" fill-rule="evenodd" stroke="none"/>
    <path d="M-0.2 0.85 L-3.3 1.5 -5.7 0.35 Q-6.55 -1.7 -6.4 -4.1 L-4.3 -4.4 -3.9 -3.15 0.75 -0.85 -0.2 0.85" fill="#262626" fill-rule="evenodd" stroke="none"/>
    <path d="M13.65 -5.7 L-0.5 -9.45 -0.95 -6.05 2.5 -3.05 0.75 -0.85 M-4.3 -12.9 L-1.65 -12.0 -0.5 -9.45 M-0.95 -6.05 L-4.2 -5.35" fill="none" stroke="#383838" stroke-linecap="round" stroke-linejoin="round" stroke-width="1.0"/>
    <path d="M7.7 -4.75 L7.9 -1.6 M4.9 -5.5 L5.1 -2.35 M-0.2 0.85 L-3.3 1.5 -5.7 0.35 Q-6.55 -1.7 -6.4 -4.1" fill="none" stroke="#000000" stroke-linecap="round" stroke-linejoin="round" stroke-width="1.0"/>
    <path d="M2.5 -3.05 L2.3 -6.2" fill="none" stroke="#000000" stroke-linecap="round" stroke-linejoin="round" stroke-width="1.1"/>
    <path d="M9.8 0.05 L10.0 -2.5 13.65 -5.7 Q8.2 -12.65 0.25 -14.45 -1.7 -15.15 -3.15 -14.2 L-4.3 -12.9 M7.4 2.45 L8.75 4.15 11.45 3.7 11.1 1.15 9.8 0.05 M7.4 2.45 L-0.2 0.85 0.75 -0.85 -3.9 -3.15 -4.3 -4.4 -4.2 -5.35 -8.95 -4.4 M-6.4 -4.1 L-4.3 -4.4" fill="none" stroke="#1c1c1c" stroke-linecap="round" stroke-linejoin="round" stroke-width="1.0"/>
    <path d="M9.8 0.05 L7.4 2.45 M-8.95 -4.4 L-11.05 -4.65 -12.25 -6.25 -12.35 -7.9 -10.0 -8.15 -8.5 -9.7 -9.0 -12.0 -7.4 -13.45 -5.65 -13.35 -4.3 -12.9" fill="none" stroke="#2f2f2f" stroke-linecap="round" stroke-linejoin="round" stroke-width="1.0"/>
    <path d="M-4.8 -9.7 L-5.0 -7.65 M-2.85 -9.55 L-3.05 -7.5 M-10.0 -8.15 L-8.95 -4.4" fill="none" stroke="#3b3b3b" stroke-linecap="round" stroke-linejoin="round" stroke-width="1.0"/>
  </g>
</svg>
