<?xml version="1.0" encoding="UTF-8" standalone="no"?>
<svg xmlns:ffdec="https://www.free-decompiler.com/flash" xmlns:xlink="http://www.w3.org/1999/xlink" ffdec:objectType="shape" height="20.05px" width="37.4px" xmlns="http://www.w3.org/2000/svg">
  <g transform="matrix(1.0, 0.0, 0.0, 1.0, 0.5, 0.5)">
    <path d="M15.05 10.05 L36.9 5.0 36.9 14.55 15.0 10.2 15.05 10.05" fill="url(#gradient0)" fill-rule="evenodd" stroke="none"/>
    <path d="M19.2 8.5 L17.9 11.6 17.65 11.6 17.45 11.6 18.7 9.1 19.05 8.5 19.2 8.5" fill="#393939" fill-rule="evenodd" stroke="none"/>
    <path d="M5.95 15.35 L5.9 16.3 3.75 16.25 1.95 12.75 5.95 13.1 5.95 15.35" fill="url(#gradient1)" fill-rule="evenodd" stroke="none"/>
    <path d="M19.3 8.5 L20.85 8.4 20.75 11.6 19.2 11.6 17.9 11.6 19.2 8.5 19.3 8.5" fill="url(#gradient2)" fill-rule="evenodd" stroke="none"/>
    <path d="M18.75 13.0 L20.2 13.15 Q20.75 14.85 19.4 16.8 L18.0 16.45 Q18.05 14.75 18.75 13.0" fill="url(#gradient3)" fill-rule="evenodd" stroke="none"/>
    <path d="M13.75 0.0 L15.95 0.2 Q19.25 3.05 19.25 5.95 19.7 7.05 22.0 7.7 L19.65 7.8 14.65 7.95 Q13.65 8.3 12.85 8.8 11.4 9.55 10.7 10.6 L8.6 6.8 Q11.3 5.5 13.05 3.4 L13.75 0.0" fill="url(#gradient4)" fill-rule="evenodd" stroke="none"/>
    <path d="M1.95 12.75 L0.0 12.55 Q1.4 12.2 2.1 11.0 L2.85 4.1 Q4.35 1.35 6.85 0.75 10.05 -0.05 13.75 0.0 L13.05 3.4 Q11.3 5.5 8.6 6.8 L10.7 10.6 10.35 11.1 Q9.3 13.0 6.4 13.15 L5.95 13.1 1.95 12.75 M3.65 11.6 L3.4 11.6 3.65 11.6" fill="url(#gradient5)" fill-rule="evenodd" stroke="none"/>
    <path d="M10.15 16.85 L5.95 15.35 5.95 13.1 6.4 13.15 Q9.3 13.0 10.35 11.1 L10.7 10.6 Q11.4 9.55 12.85 8.8 13.95 13.15 10.3 15.65 L10.15 16.85 M11.8 11.6 L11.55 11.6 11.8 11.6 M8.85 14.8 L8.6 14.8 8.85 14.8" fill="url(#gradient6)" fill-rule="evenodd" stroke="none"/>
    <path d="M17.9 11.6 L19.2 11.6 18.75 13.0 Q18.05 14.75 18.0 16.45 L18.0 16.65 18.5 17.2 18.5 17.25 16.8 19.05 Q14.8 17.7 12.85 18.65 L10.05 17.6 10.15 16.85 10.3 15.65 Q13.95 13.15 12.85 8.8 13.65 8.3 14.65 7.95 L19.65 7.8 19.55 7.95 19.35 7.95 18.7 9.1 17.45 11.6 17.65 11.6 17.9 11.6 M17.0 9.2 L14.6 9.3 17.0 9.2 M16.75 10.45 L16.0 10.5 16.75 10.45 M17.65 11.6 Q16.9 13.35 16.65 15.2 16.9 13.35 17.65 11.6 M16.55 15.55 L18.5 17.25 16.55 15.55" fill="url(#gradient7)" fill-rule="evenodd" stroke="none"/>
    <path d="M21.45 9.1 L21.4 11.0 M16.0 10.5 L16.75 10.45 M14.6 9.3 L17.0 9.2" fill="none" stroke="#ff0000" stroke-linecap="round" stroke-linejoin="round" stroke-width="1.0"/>
    <path d="M19.2 11.6 L20.75 11.6 20.85 8.4 19.3 8.5 M19.2 8.5 L17.9 11.6 19.2 11.6 18.75 13.0 20.2 13.15 Q20.75 14.85 19.4 16.8 L18.0 16.45 18.0 16.65 M18.5 17.2 L18.5 17.25 16.8 19.05 Q14.8 17.7 12.85 18.65 L10.05 17.6 10.15 16.85 5.95 15.35 5.9 16.3 3.75 16.25 1.95 12.75 0.0 12.55 Q1.4 12.2 2.1 11.0 L2.85 4.1 Q4.35 1.35 6.85 0.75 10.05 -0.05 13.75 0.0 L15.95 0.2 Q19.25 3.05 19.25 5.95 19.7 7.05 22.0 7.7 L19.65 7.8 19.55 7.95 M10.7 10.6 L8.6 6.8 Q11.3 5.5 13.05 3.4 L13.75 0.0 M19.65 7.8 L14.65 7.95 Q13.65 8.3 12.85 8.8 13.95 13.15 10.3 15.65 L10.15 16.85 M12.85 8.8 Q11.4 9.55 10.7 10.6 L10.35 11.1 Q9.3 13.0 6.4 13.15 L5.95 13.1 5.95 15.35 M17.65 11.6 L17.9 11.6 M1.95 12.75 L5.95 13.1 M18.75 13.0 Q18.05 14.75 18.0 16.45 M18.5 17.25 L16.55 15.55 M16.65 15.2 Q16.9 13.35 17.65 11.6" fill="none" stroke="#020202" stroke-linecap="round" stroke-linejoin="round" stroke-width="1.0"/>
    <path d="M11.55 11.6 L11.8 11.6 M3.4 11.6 L3.65 11.6 M8.6 14.8 L8.85 14.8" fill="none" stroke="#000000" stroke-linecap="round" stroke-linejoin="round" stroke-width="1.0"/>
  </g>
  <defs>
    <linearGradient gradientTransform="matrix(0.0134, 0.0, 0.0, 0.0058, 25.95, 9.75)" gradientUnits="userSpaceOnUse" id="gradient0" spreadMethod="pad" x1="-819.2" x2="819.2">
      <stop offset="0.0" stop-color="#ff0000" stop-opacity="0.49803922"/>
      <stop offset="1.0" stop-color="#ff0000" stop-opacity="0.0"/>
      <stop offset="1.0" stop-color="#0e0d0d"/>
    </linearGradient>
    <radialGradient cx="0" cy="0" fx="192.0" fy="0" gradientTransform="matrix(0.0042, 0.0, 0.0, 0.0042, 4.85, 14.5)" gradientUnits="userSpaceOnUse" id="gradient1" r="819.2" spreadMethod="pad">
      <stop offset="0.0" stop-color="#202020"/>
      <stop offset="1.0" stop-color="#121212"/>
      <stop offset="1.0" stop-color="#0e0d0d"/>
    </radialGradient>
    <radialGradient cx="0" cy="0" fx="192.0" fy="0" gradientTransform="matrix(0.0032, 0.0, 0.0, 0.0032, 20.05, 10.05)" gradientUnits="userSpaceOnUse" id="gradient2" r="819.2" spreadMethod="pad">
      <stop offset="0.0" stop-color="#202020"/>
      <stop offset="1.0" stop-color="#121212"/>
      <stop offset="1.0" stop-color="#0e0d0d"/>
    </radialGradient>
    <radialGradient cx="0" cy="0" fx="192.0" fy="0" gradientTransform="matrix(0.0043, 0.0, 0.0, 0.0043, 19.65, 13.8)" gradientUnits="userSpaceOnUse" id="gradient3" r="819.2" spreadMethod="pad">
      <stop offset="0.0" stop-color="#202020"/>
      <stop offset="1.0" stop-color="#121212"/>
      <stop offset="1.0" stop-color="#0e0d0d"/>
    </radialGradient>
    <radialGradient cx="0" cy="0" fx="192.0" fy="0" gradientTransform="matrix(0.0056, 0.0, 0.0, 0.0056, 15.8, 4.0)" gradientUnits="userSpaceOnUse" id="gradient4" r="819.2" spreadMethod="pad">
      <stop offset="0.0" stop-color="#202020"/>
      <stop offset="1.0" stop-color="#121212"/>
      <stop offset="1.0" stop-color="#0e0d0d"/>
    </radialGradient>
    <radialGradient cx="0" cy="0" fx="192.0" fy="0" gradientTransform="matrix(0.0045, 0.0118, -0.0188, 0.0072, 10.9, -0.45)" gradientUnits="userSpaceOnUse" id="gradient5" r="819.2" spreadMethod="pad">
      <stop offset="0.0" stop-color="#202020"/>
      <stop offset="1.0" stop-color="#121212"/>
      <stop offset="1.0" stop-color="#0e0d0d"/>
    </radialGradient>
    <radialGradient cx="0" cy="0" fx="192.0" fy="0" gradientTransform="matrix(0.0078, 0.0, 0.0, 0.0078, 13.85, 16.25)" gradientUnits="userSpaceOnUse" id="gradient6" r="819.2" spreadMethod="pad">
      <stop offset="0.0" stop-color="#202020"/>
      <stop offset="1.0" stop-color="#121212"/>
      <stop offset="1.0" stop-color="#0e0d0d"/>
    </radialGradient>
    <radialGradient cx="0" cy="0" fx="192.0" fy="0" gradientTransform="matrix(0.046, 0.0, 0.0, 0.046, 12.3, 6.9)" gradientUnits="userSpaceOnUse" id="gradient7" r="819.2" spreadMethod="pad">
      <stop offset="0.0" stop-color="#202020"/>
      <stop offset="1.0" stop-color="#121212"/>
      <stop offset="1.0" stop-color="#0e0d0d"/>
    </radialGradient>
  </defs>
</svg>
