<?xml version="1.0" encoding="UTF-8" standalone="no"?>
<svg xmlns:ffdec="https://www.free-decompiler.com/flash" xmlns:xlink="http://www.w3.org/1999/xlink" ffdec:objectType="shape" height="19.05px" width="21.05px" xmlns="http://www.w3.org/2000/svg">
  <g transform="matrix(1.0, 0.0, 0.0, 1.0, 7.45, 15.8)">
    <path d="M7.4 -6.75 L8.15 -7.1 Q6.05 -7.7 4.4 -6.75 6.0 -7.1 7.4 -6.75 M0.8 -4.4 Q0.2 -4.55 0.05 -3.75 0.2 -4.55 0.8 -4.4 M1.35 -2.6 Q0.75 -2.3 0.4 -2.85 0.75 -2.3 1.35 -2.6 M7.65 -4.4 L8.25 -4.4 7.4 -4.85 6.4 -5.1 6.0 -5.15 Q4.7 -5.15 4.55 -4.45 L5.15 -3.9 5.55 -3.4 Q6.2 -2.9 7.05 -3.2 7.75 -3.95 7.65 -4.4 M-2.05 -2.3 L-3.05 -5.2 Q-4.75 -9.15 -1.85 -12.45 0.7 -15.55 7.3 -12.4 10.5 -10.25 9.75 -6.3 L9.65 -5.9 8.9 -3.8 Q8.5 -3.0 9.15 -2.5 L9.75 -2.0 Q9.45 -1.25 8.8 -0.65 L8.8 0.15 8.15 0.5 8.15 1.0 7.65 1.25 Q7.75 2.2 6.9 2.25 L3.55 1.45 2.2 0.75 0.65 -0.95 Q-2.4 -4.15 -2.05 -2.3 M7.3 0.35 L6.4 -0.05 7.3 0.35 M0.4 -5.2 Q-0.3 -5.3 -0.3 -4.7 L-0.2 -3.7 -0.3 -4.7 Q-0.3 -5.3 0.4 -5.2 M0.55 -5.8 Q-0.2 -6.1 -0.6 -5.4 -1.15 -4.7 -0.85 -3.75 -0.7 -3.0 -0.05 -2.15 0.65 -1.55 1.2 -2.0 0.65 -1.55 -0.05 -2.15 -0.7 -3.0 -0.85 -3.75 -1.15 -4.7 -0.6 -5.4 -0.2 -6.1 0.55 -5.8" fill="url(#gradient0)" fill-rule="evenodd" stroke="none"/>
    <path d="M7.4 -6.75 Q6.0 -7.1 4.4 -6.75 6.05 -7.7 8.15 -7.1 L7.4 -6.75 M6.5 -4.05 L6.5 -4.1 6.55 -4.35 6.8 -4.4 6.9 -4.25 6.9 -4.0 6.9 -3.95 6.8 -3.75 6.65 -3.7 6.5 -3.85 6.4 -4.0 6.5 -4.05" fill="#000000" fill-rule="evenodd" stroke="none"/>
    <path d="M5.15 -3.9 L4.55 -4.45 Q4.7 -5.15 6.0 -5.15 L6.4 -5.1 7.4 -4.85 8.25 -4.4 7.65 -4.4 7.5 -4.4 6.2 -4.7 5.65 -4.8 Q4.85 -4.75 5.15 -3.9" fill="#6a1622" fill-rule="evenodd" stroke="none"/>
    <path d="M7.65 -4.4 Q7.75 -3.95 7.05 -3.2 6.2 -2.9 5.55 -3.4 L5.15 -3.9 Q4.85 -4.75 5.65 -4.8 L6.2 -4.7 6.05 -4.4 6.05 -4.1 6.05 -3.85 6.15 -3.65 6.55 -3.2 7.05 -3.4 7.3 -3.7 7.4 -3.95 7.4 -4.1 7.25 -4.05 7.05 -4.1 7.05 -4.4 7.25 -4.45 7.4 -4.4 7.4 -4.15 7.5 -4.4 7.65 -4.4 M6.15 -3.95 L6.25 -4.0 6.4 -3.85 6.25 -3.7 6.15 -3.75 6.05 -3.85 6.15 -3.95 M7.4 -4.1 L7.4 -4.15 7.4 -4.1" fill="#ffffff" fill-rule="evenodd" stroke="none"/>
    <path d="M6.15 -3.95 L6.05 -3.85 6.15 -3.75 6.25 -3.7 6.4 -3.85 6.25 -4.0 6.15 -3.95 M7.4 -3.95 L7.3 -3.7 7.05 -3.4 6.55 -3.2 6.15 -3.65 6.05 -3.85 6.05 -4.1 6.5 -4.05 6.4 -4.0 6.5 -3.85 6.65 -3.7 6.8 -3.75 6.9 -3.95 6.9 -4.0 7.4 -3.95" fill="#84bf98" fill-rule="evenodd" stroke="none"/>
    <path d="M6.2 -4.7 L7.5 -4.4 7.4 -4.15 7.4 -4.4 7.25 -4.45 7.05 -4.4 7.05 -4.1 7.25 -4.05 7.4 -4.1 7.4 -3.95 6.9 -4.0 6.9 -4.25 6.8 -4.4 6.55 -4.35 6.5 -4.1 6.5 -4.05 6.05 -4.1 6.05 -4.4 6.2 -4.7" fill="#0e4321" fill-rule="evenodd" stroke="none"/>
    <path d="M3.55 1.45 Q3.05 2.25 3.3 2.9 -1.2 2.45 -1.3 1.3 -1.0 0.65 -1.4 -0.9 L-2.05 -2.3 Q-2.4 -4.15 0.65 -0.95 L2.2 0.75 3.55 1.45 M2.2 0.75 Q1.15 0.35 0.65 -0.95 1.15 0.35 2.2 0.75" fill="#d7aa97" fill-rule="evenodd" stroke="none"/>
    <path d="M7.4 -6.75 Q6.0 -7.1 4.4 -6.75 6.05 -7.7 8.15 -7.1 L7.4 -6.75" ffdec:has-small-stroke="true" ffdec:original-stroke-width="0.5" fill="none" stroke="#303030" stroke-linecap="round" stroke-linejoin="round" stroke-opacity="0.5019608" stroke-width="1.0"/>
    <path d="M0.4 -2.85 Q0.75 -2.3 1.35 -2.6 M0.05 -3.75 Q0.2 -4.55 0.8 -4.4" ffdec:has-small-stroke="true" ffdec:original-stroke-width="0.5" fill="none" stroke="#cb9d8a" stroke-linecap="round" stroke-linejoin="round" stroke-width="1.0"/>
    <path d="M-2.05 -2.3 L-3.05 -5.2 Q-4.75 -9.15 -1.85 -12.45 0.7 -15.55 7.3 -12.4 10.5 -10.25 9.75 -6.3 L9.65 -5.9 8.9 -3.8 Q8.5 -3.0 9.15 -2.5 L9.75 -2.0 Q9.45 -1.25 8.8 -0.65 L8.8 0.15 8.15 0.5 8.15 1.0 7.65 1.25 Q7.75 2.2 6.9 2.25 L3.55 1.45 M3.3 2.9 Q-1.2 2.45 -1.3 1.3 -1.0 0.65 -1.4 -0.9 L-2.05 -2.3" ffdec:has-small-stroke="true" ffdec:original-stroke-width="0.5" fill="none" stroke="#a17668" stroke-linecap="round" stroke-linejoin="round" stroke-width="1.0"/>
    <path d="M6.05 -4.1 L6.05 -4.4 6.2 -4.7 M7.4 -3.95 L7.3 -3.7 7.05 -3.4 6.55 -3.2 6.15 -3.65 6.05 -3.85 6.05 -4.1 M7.4 -3.95 L7.4 -4.1 7.4 -4.15 7.5 -4.4" ffdec:has-small-stroke="true" ffdec:original-stroke-width="0.5" fill="none" stroke="#0a4420" stroke-linecap="round" stroke-linejoin="round" stroke-opacity="0.5019608" stroke-width="1.0"/>
    <path d="M2.2 0.75 L3.55 1.45 M0.65 -0.95 Q1.15 0.35 2.2 0.75" ffdec:has-small-stroke="true" ffdec:original-stroke-width="0.5" fill="none" stroke="#c6988b" stroke-linecap="round" stroke-linejoin="round" stroke-width="1.0"/>
    <path d="M3.55 1.45 Q3.05 2.25 3.3 2.9" ffdec:has-small-stroke="true" ffdec:original-stroke-width="0.5" fill="none" stroke="#a27667" stroke-linecap="round" stroke-linejoin="round" stroke-width="1.0"/>
    <path d="M6.4 -0.05 L7.3 0.35" ffdec:has-small-stroke="true" ffdec:original-stroke-width="0.5" fill="none" stroke="#b47f6d" stroke-linecap="round" stroke-linejoin="round" stroke-width="1.0"/>
    <path d="M1.2 -2.0 Q0.65 -1.55 -0.05 -2.15 -0.7 -3.0 -0.85 -3.75 -1.15 -4.7 -0.6 -5.4 -0.2 -6.1 0.55 -5.8 M-0.2 -3.7 L-0.3 -4.7 Q-0.3 -5.3 0.4 -5.2" ffdec:has-small-stroke="true" ffdec:original-stroke-width="0.5" fill="none" stroke="#c08876" stroke-linecap="round" stroke-linejoin="round" stroke-width="1.0"/>
    <path d="M2.8 -3.2 L8.6 -3.0 Q10.8 -2.3 7.5 2.0 L6.5 2.25 Q1.1 -2.35 2.8 -3.2" fill="#3b2323" fill-rule="evenodd" stroke="none"/>
    <path d="M6.5 2.25 Q6.0 2.25 5.5 1.9 4.45 1.25 3.65 1.1 3.05 2.15 3.1 2.75 -0.1 2.8 -1.85 1.25 -1.4 -0.4 -2.25 -5.45 -0.3 -4.35 2.8 -3.2 1.1 -2.35 6.5 2.25 M0.65 -0.6 Q2.05 0.65 3.65 1.1 2.05 0.65 0.65 -0.6" fill="#2d1b1b" fill-rule="evenodd" stroke="none"/>
    <path d="M2.8 -3.2 L8.6 -3.0 Q10.8 -2.3 7.5 2.0 L6.5 2.25 Q6.0 2.25 5.5 1.9 4.45 1.25 3.65 1.1 3.05 2.15 3.1 2.75 -0.1 2.8 -1.85 1.25 -1.4 -0.4 -2.25 -5.45 -0.3 -4.35 2.8 -3.2" fill="none" stroke="#0e0808" stroke-linecap="round" stroke-linejoin="round" stroke-width="1.0"/>
    <path d="M3.65 1.1 Q2.05 0.65 0.65 -0.6" fill="none" stroke="#1d1010" stroke-linecap="round" stroke-linejoin="round" stroke-width="1.0"/>
    <path d="M-2.25 -5.45 Q-0.3 -4.35 2.8 -3.2 L8.6 -3.0 Q10.8 -2.3 7.5 2.0 L5.5 1.9 Q4.45 1.25 3.65 1.1 3.05 2.15 3.1 2.75 -0.1 2.8 -1.85 1.25 -1.4 -0.4 -2.25 -5.45 Z" fill="none" stroke="#0e0808" stroke-linecap="round" stroke-linejoin="round" stroke-width="1.0"/>
    <path d="M-0.6 -0.85 Q-0.75 0.3 -2.1 1.8 -1.55 -0.9 -2.1 -1.2 -2.6 -0.15 -4.2 1.2 -3.35 -0.3 -3.55 -1.65 -4.75 -0.35 -6.95 -0.95 -4.1 -1.7 -4.9 -3.35 -6.25 -5.95 -5.95 -8.9 -5.8 -11.9 -3.35 -13.65 -1.1 -15.3 3.15 -15.3 7.5 -15.3 10.5 -12.1 13.35 -9.1 13.05 -5.0 11.8 -7.6 10.55 -8.25 11.4 -6.25 10.65 -2.55 8.7 -6.75 5.55 -8.7 6.05 -7.55 6.05 -5.9 4.45 -7.5 3.8 -8.55 3.0 -4.3 4.8 -1.05 L3.35 -2.2 Q3.3 0.3 2.35 2.15 3.15 -1.7 2.35 -3.5 L2.1 -4.0 Q2.05 -3.05 1.6 -2.0 1.3 -5.2 0.55 -5.75 -0.55 -5.75 -0.65 -3.4 0.4 -1.05 0.15 1.1 0.0 -0.1 -0.6 -0.85 M7.25 -9.5 Q6.7 -12.3 5.9 -12.6 6.7 -12.3 7.25 -9.5 M-2.3 -2.7 Q-1.8 -3.55 -1.8 -5.45 -1.8 -3.55 -2.3 -2.7 M-0.6 -6.4 Q-1.3 -9.1 0.15 -12.65 -1.3 -9.1 -0.6 -6.4 M-4.35 -7.2 Q-4.4 -10.15 -3.15 -11.9 -4.4 -10.15 -4.35 -7.2 M-3.3 -5.65 Q-3.7 -8.75 -3.1 -9.95 -3.7 -8.75 -3.3 -5.65" fill="#000000" fill-rule="evenodd" stroke="none"/>
    <path d="M-0.6 -0.85 Q-0.75 0.3 -2.1 1.8 -1.55 -0.9 -2.1 -1.2 -2.6 -0.15 -4.2 1.2 -3.35 -0.3 -3.55 -1.65 -4.75 -0.35 -6.95 -0.95 -4.1 -1.7 -4.9 -3.35 -6.25 -5.95 -5.95 -8.9 -5.8 -11.9 -3.35 -13.65 -1.1 -15.3 3.15 -15.3 7.5 -15.3 10.5 -12.1 13.35 -9.1 13.05 -5.0 11.8 -7.6 10.55 -8.25 11.4 -6.25 10.65 -2.55 8.7 -6.75 5.55 -8.7 6.05 -7.55 6.05 -5.9 4.45 -7.5 3.8 -8.55 3.0 -4.3 4.8 -1.05 L3.35 -2.2 Q3.3 0.3 2.35 2.15 3.15 -1.7 2.35 -3.5 L2.1 -4.0 Q2.05 -3.05 1.6 -2.0 1.3 -5.2 0.55 -5.75 -0.55 -5.75 -0.65 -3.4" fill="none" stroke="#000000" stroke-linecap="round" stroke-linejoin="round" stroke-opacity="0.14901961" stroke-width="1.0"/>
    <path d="M5.9 -12.6 Q6.7 -12.3 7.25 -9.5 M-3.1 -9.95 Q-3.7 -8.75 -3.3 -5.65 M-3.15 -11.9 Q-4.4 -10.15 -4.35 -7.2 M0.15 -12.65 Q-1.3 -9.1 -0.6 -6.4" fill="none" stroke="#171e35" stroke-linecap="round" stroke-linejoin="round" stroke-width="1.0"/>
    <path d="M-1.8 -5.45 Q-1.8 -3.55 -2.3 -2.7" fill="none" stroke="#101023" stroke-linecap="round" stroke-linejoin="round" stroke-width="1.0"/>
    <path d="M-0.65 -3.4 Q0.4 -1.05 0.15 1.1 0.0 -0.1 -0.6 -0.85" fill="none" stroke="#001443" stroke-linecap="round" stroke-linejoin="round" stroke-opacity="0.14901961" stroke-width="1.0"/>
    <path d="M3.9 -7.35 L3.65 -6.25 Q3.05 -4.95 0.05 -3.9 L-1.25 -3.55 -2.25 -3.45 -2.85 -4.3 -3.55 -5.45 -3.95 -6.25 -4.05 -7.5 -4.05 -8.4 -3.1 -10.55 -2.9 -10.5 1.2 -9.25 Q2.45 -8.9 3.9 -7.6 L3.9 -7.35" fill="#2d2d2d" fill-rule="evenodd" stroke="none"/>
    <path d="M3.9 -7.35 L3.9 -7.6 Q2.45 -8.9 1.2 -9.25 L-2.9 -10.5 -3.1 -10.55 -4.05 -8.4 -4.05 -7.5 -3.95 -6.25 -3.55 -5.45 -2.85 -4.3 -2.25 -3.45 -1.25 -3.55 0.05 -3.9 Q3.05 -4.95 3.65 -6.25 L3.9 -7.35 Z" fill="none" stroke="#111111" stroke-linecap="round" stroke-linejoin="round" stroke-width="1.0"/>
    <path d="M2.05 -6.85 L1.0 -5.3 Q-0.65 -3.35 -2.65 -6.7 -4.75 -10.05 -5.3 -12.4 L-4.65 -12.45 -2.85 -11.15 Q0.6 -5.95 2.05 -6.85" fill="#1e1e1e" fill-rule="evenodd" stroke="none"/>
    <path d="M2.05 -6.85 L1.0 -5.3 Q-0.65 -3.35 -2.65 -6.7 -4.75 -10.05 -5.3 -12.4 L-4.65 -12.45 -2.85 -11.15 Q0.6 -5.95 2.05 -6.85 Z" fill="none" stroke="#0c0c0c" stroke-linecap="round" stroke-linejoin="round" stroke-width="1.0"/>
    <path d="M0.85 -2.85 L-0.25 -3.35 Q-0.85 -3.45 -1.1 -3.8 -1.6 -4.35 -1.65 -5.35 -1.75 -5.85 -1.45 -6.35 L-1.0 -7.0 Q-0.15 -7.75 0.7 -7.65 L0.75 -7.6 1.25 -7.5 2.95 -6.85 3.6 -6.3 3.3 -6.15 3.05 -5.55 Q3.05 -5.2 3.3 -5.0 3.35 -4.75 3.65 -4.65 L3.85 -4.6 4.2 -4.65 4.1 -4.0 3.05 -3.45 2.75 -3.8 2.25 -3.8 1.2 -3.4 0.9 -3.05 0.85 -3.0 0.85 -2.85 M1.6 -5.45 L0.05 -6.35 0.05 -4.55 1.6 -5.45 0.05 -4.55 0.05 -6.35 1.6 -5.45" fill="#2d2d2d" fill-rule="evenodd" stroke="none"/>
    <path d="M3.6 -6.3 L3.85 -6.35 4.35 -6.2 4.55 -5.6 4.35 -5.05 3.85 -4.7 Q3.5 -4.7 3.3 -5.0 3.05 -5.2 3.05 -5.55 L3.3 -6.15 3.6 -6.3 M3.05 -3.45 L3.0 -3.0 2.75 -2.7 1.65 -2.25 1.2 -2.3 1.0 -2.35 0.85 -2.55 0.85 -2.85 0.85 -3.0 0.9 -3.05 1.2 -3.4 2.25 -3.8 2.75 -3.8 3.05 -3.45" fill="#222222" fill-rule="evenodd" stroke="none"/>
    <path d="M0.85 -2.85 L-0.25 -3.35 Q-0.85 -3.45 -1.1 -3.8 -1.6 -4.35 -1.65 -5.35 -1.75 -5.85 -1.45 -6.35 L-1.0 -7.0 Q-0.15 -7.75 0.7 -7.65 L0.75 -7.6 1.25 -7.5 2.95 -6.85 3.6 -6.3 3.85 -6.35 4.35 -6.2 4.55 -5.6 4.35 -5.05 3.85 -4.7 Q3.5 -4.7 3.3 -5.0 3.05 -5.2 3.05 -5.55 L3.3 -6.15 3.6 -6.3 M4.2 -4.65 L4.1 -4.0 3.05 -3.45 3.0 -3.0 2.75 -2.7 1.65 -2.25 1.2 -2.3 1.0 -2.35 0.85 -2.55 0.85 -2.85 0.85 -3.0 0.9 -3.05 1.2 -3.4 2.25 -3.8 2.75 -3.8 3.05 -3.45" fill="none" stroke="#0c0c0c" stroke-linecap="round" stroke-linejoin="round" stroke-width="1.0"/>
    <path d="M1.6 -5.45 L0.05 -4.55 0.05 -6.35 1.6 -5.45 Z" ffdec:has-small-stroke="true" ffdec:original-stroke-width="0.5" fill="none" stroke="#ff094f" stroke-linecap="round" stroke-linejoin="round" stroke-width="1.0"/>
  </g>
  <defs>
    <radialGradient cx="0" cy="0" gradientTransform="matrix(0.0166, 0.0, 0.0, 0.0166, 7.9, 0.25)" gradientUnits="userSpaceOnUse" id="gradient0" r="819.2" spreadMethod="pad">
      <stop offset="0.0" stop-color="#fce0ca"/>
      <stop offset="1.0" stop-color="#f0aa98"/>
    </radialGradient>
  </defs>
</svg>
