<?xml version="1.0" encoding="UTF-8" standalone="no"?>
<svg xmlns:ffdec="https://www.free-decompiler.com/flash" xmlns:xlink="http://www.w3.org/1999/xlink" ffdec:objectType="shape" height="23.1px" width="25.55px" xmlns="http://www.w3.org/2000/svg">
  <g transform="matrix(1.0, 0.0, 0.0, 1.0, -2.3, -2.05)">
    <path d="M22.55 19.9 L21.6 19.55 22.55 19.9 M24.65 16.4 Q24.45 19.8 23.45 21.55 22.5 23.4 17.05 22.2 16.4 20.2 13.4 18.6 10.8 17.3 10.95 16.9 L7.65 13.4 9.2 7.9 Q11.1 5.7 14.75 5.2 18.5 4.6 21.9 6.3 22.85 6.75 23.8 10.8 24.6 14.25 24.65 16.4 M21.95 15.75 L19.85 15.4 21.95 15.75" fill="#dba37a" fill-rule="evenodd" stroke="none"/>
    <path d="M17.05 22.2 Q22.5 23.4 23.45 21.55 24.45 19.8 24.65 16.4 25.05 12.7 24.45 12.1" fill="none" stroke="#8f6856" stroke-linecap="round" stroke-linejoin="round" stroke-width="1.0"/>
    <path d="M25.7 14.85 L25.35 17.95 Q25.0 19.95 24.45 21.35" fill="none" stroke="#000000" stroke-linecap="round" stroke-linejoin="miter-clip" stroke-miterlimit="4.0" stroke-opacity="0.40784314" stroke-width="1.0"/>
    <path d="M21.6 19.55 L22.55 19.9" fill="none" stroke="#a67e6b" stroke-linecap="round" stroke-linejoin="round" stroke-width="1.0"/>
    <path d="M19.85 15.4 L21.95 15.75" fill="none" stroke="#a37a5c" stroke-linecap="round" stroke-linejoin="round" stroke-width="1.0"/>
    <path d="M26.0 14.55 Q25.75 18.85 24.6 21.05 23.4 23.25 17.8 20.05 L12.35 16.45 8.4 9.7 14.85 5.2 24.2 12.8 26.0 14.55" fill="url(#gradient0)" fill-rule="evenodd" stroke="none"/>
    <path d="M22.65 5.0 L22.3 5.05 Q21.2 5.2 19.05 6.25 L17.0 4.85 13.7 5.0 11.9 6.15 Q10.95 5.2 8.2 4.75 10.95 5.2 11.9 6.15 L12.05 7.55 11.45 7.5 11.45 7.1 Q11.4 6.25 9.75 5.7 L8.55 5.4 8.2 4.75 8.3 4.7 8.35 4.7 8.55 4.6 Q11.65 2.75 15.75 2.75 17.65 2.75 19.55 3.55 20.2 3.75 22.0 4.7 L22.65 5.0 M10.3 7.45 L10.15 7.45 10.1 7.45 9.75 7.4 9.6 7.1 10.3 7.45" fill="#343848" fill-rule="evenodd" stroke="none"/>
    <path d="M19.05 6.25 Q21.2 5.2 22.3 5.05 L22.65 5.0 19.05 6.25 22.65 5.0 23.55 6.0 25.75 8.9 26.35 10.2 26.85 12.1 27.2 13.6 27.35 14.6 25.85 14.7 24.0 14.75 23.4 14.05 23.4 14.0 23.45 13.5 23.45 12.6 Q23.4 10.15 22.5 8.6 L21.6 7.5 Q21.1 7.0 20.4 6.7 L19.05 6.25 20.2 6.5 Q21.05 6.85 21.6 7.5 21.05 6.85 20.2 6.5 L19.05 6.25 M26.35 10.2 L23.65 10.2 26.35 10.2 M23.95 12.0 L26.85 12.1 23.95 12.0" fill="#4c5269" fill-rule="evenodd" stroke="none"/>
    <path d="M11.9 6.15 L13.7 5.0 17.0 4.85 19.05 6.25 20.4 6.7 Q21.1 7.0 21.6 7.5 L22.5 8.6 Q23.4 10.15 23.45 12.6 L23.45 13.5 23.4 14.0 21.15 14.0 20.3 12.95 19.65 12.3 19.55 11.4 Q19.35 10.2 18.65 9.5 17.2 7.85 13.7 7.9 L11.3 7.85 11.45 7.5 12.05 7.55 Q15.6 6.9 17.85 8.2 20.1 9.5 19.55 11.4 20.1 9.5 17.85 8.2 15.6 6.9 12.05 7.55 L11.9 6.15 M23.45 12.6 Q23.15 10.0 22.1 8.2 L21.6 7.5 22.1 8.2 Q23.15 10.0 23.45 12.6 M10.3 7.45 L11.2 7.85 11.1 7.85 10.1 7.5 10.15 7.45 10.3 7.45" fill="#394268" fill-rule="evenodd" stroke="none"/>
    <path d="M8.55 4.6 L8.35 4.7 8.3 4.7 8.2 4.75 7.3 5.5 8.2 4.75 8.55 5.4 7.75 5.3 7.6 5.55 7.25 6.05 7.3 5.5 Q7.4 4.7 7.75 4.5 L8.5 4.6 8.55 4.6 M19.65 12.35 L18.5 11.5 15.65 9.65 15.45 9.6 12.75 9.5 12.2 9.5 10.65 9.7 10.8 9.35 11.3 7.85 13.7 7.9 Q17.2 7.85 18.65 9.5 19.35 10.2 19.55 11.4 L19.65 12.3 19.65 12.35 M15.65 9.5 Q14.45 9.3 12.75 9.5 14.45 9.3 15.65 9.5 L18.5 11.5 15.65 9.5 15.65 9.65 15.65 9.5 M8.35 4.7 L8.5 4.6 8.35 4.7 M9.75 7.4 L9.55 7.6 8.75 8.7 8.0 9.9 7.75 9.9 6.9 9.9 7.0 9.75 Q8.1 8.9 8.85 6.75 L9.6 7.1 9.75 7.4 M9.55 7.6 L8.85 7.55 7.75 9.9 8.85 7.55 9.55 7.6" fill="#6c7495" fill-rule="evenodd" stroke="none"/>
    <path d="M20.9 21.0 L21.5 20.45 24.6 21.3 24.75 22.95 24.45 23.75 23.8 24.45 19.9 24.45 20.2 22.5 21.65 22.2 21.75 21.05 20.9 21.0 M24.45 23.75 L24.65 23.2 24.75 22.95 24.65 23.2 24.45 23.75 M24.6 21.3 L21.75 21.05 24.6 21.3" fill="#8c8c8c" fill-rule="evenodd" stroke="none"/>
    <path d="M6.6 17.4 L6.45 17.35 Q5.95 17.3 5.35 16.65 L7.4 17.55 5.35 16.65 4.8 16.1 4.0 15.0 2.8 12.95 3.45 11.3 Q4.1 9.5 4.35 9.5 L4.7 9.2 5.9 7.85 6.25 7.3 6.45 7.1 6.75 6.75 7.25 6.05 7.6 5.55 7.75 5.3 8.55 5.4 9.75 5.7 Q11.4 6.25 11.45 7.1 L11.45 7.5 11.3 7.85 11.45 7.1 11.3 7.85 11.2 7.85 11.3 7.85 10.8 9.35 10.65 9.7 10.55 9.85 10.35 10.8 10.35 10.85 10.75 12.65 11.0 13.35 11.05 13.45 11.15 13.7 11.45 14.35 10.35 15.2 10.55 16.4 8.65 17.3 Q6.9 14.0 7.1 12.85 6.9 14.0 8.65 17.3 L8.4 17.45 7.95 17.55 7.4 17.55 6.8 17.45 6.6 17.4 M11.2 7.85 L10.3 7.45 9.6 7.1 8.85 6.75 Q8.1 8.9 7.0 9.75 L6.2 10.2 6.0 10.2 Q5.5 10.45 5.5 11.1 5.45 11.75 5.85 12.15 L6.95 12.8 5.85 12.15 Q5.45 11.75 5.5 11.1 5.5 10.45 6.0 10.2 5.5 11.15 5.95 11.85 L6.05 11.95 6.35 12.35 6.95 12.8 7.0 12.8 7.1 12.85 Q8.85 11.75 7.9 10.2 8.85 11.75 7.1 12.85 L7.5 11.2 Q7.55 10.75 7.9 10.2 L8.0 9.9 8.75 8.7 9.55 7.6 9.75 7.4 9.95 7.45 10.1 7.5 11.1 7.85 11.2 7.85 M10.55 9.85 L10.8 9.35 10.55 9.85 M4.7 9.2 L5.55 8.55 5.9 7.85 5.55 8.55 4.7 9.2 M11.1 7.85 L9.55 7.6 11.1 7.85 M4.35 9.5 L2.8 12.95 4.8 16.1 2.8 12.95 4.35 9.5 M11.05 13.45 L11.0 13.4 11.0 13.35 11.0 13.4 11.05 13.45 M9.8 11.65 L10.2 12.8 9.8 11.65 M10.15 9.3 L9.75 10.2 10.15 9.3" fill="#5a617c" fill-rule="evenodd" stroke="none"/>
    <path d="M10.4 10.85 L10.45 10.85 Q12.2 11.15 12.3 11.55 12.45 11.95 11.5 12.35 L10.8 12.6 10.4 10.85 10.8 12.6 10.75 12.65 10.35 10.85 10.4 10.85 M10.15 7.45 L10.1 7.5 9.95 7.45 10.1 7.45 10.15 7.45 M8.0 9.9 L7.9 10.2 7.75 9.9 7.9 10.2 Q7.55 10.75 7.5 11.2 L7.1 12.85 7.0 12.8 6.95 12.8 6.35 12.35 6.05 11.95 5.95 11.85 Q5.5 11.15 6.0 10.2 L6.2 10.2 7.0 9.75 6.9 9.9 7.75 9.9 8.0 9.9 M7.75 9.9 L6.2 10.2 7.75 9.9" fill="#00e9f5" fill-rule="evenodd" stroke="none"/>
    <path d="M7.05 17.95 L6.6 17.4 6.8 17.45 7.05 17.95 6.8 17.45 7.4 17.55 7.9 17.7 8.1 17.65 7.9 17.7 7.4 17.55 7.95 17.55 8.1 17.65 9.4 18.0 9.55 18.05 10.15 19.05 10.0 18.95 8.15 18.1 7.65 18.6 7.05 17.95 M6.75 6.75 L6.45 7.1 6.45 6.65 6.45 6.6 6.75 6.75 M9.4 18.0 L10.0 18.95 9.4 18.0" fill="#84848c" fill-rule="evenodd" stroke="none"/>
    <path d="M17.1 23.3 L16.95 24.0 11.2 23.55 7.5 20.95 7.55 18.7 7.65 18.6 8.15 18.1 10.0 18.95 10.15 19.05 14.2 20.9 Q14.65 21.75 15.25 22.2 L15.5 22.45 15.65 22.5 15.85 22.6 15.6 22.5 15.5 22.45 15.6 22.5 15.85 22.6 17.1 23.3 M7.55 18.7 L10.2 19.25 Q12.4 21.15 15.25 22.2 12.4 21.15 10.2 19.25 L7.55 18.7 M10.0 18.95 L10.2 19.25 10.0 18.95" fill="#1a1a1b" fill-rule="evenodd" stroke="none"/>
    <path d="M12.85 18.2 L13.55 19.75 13.4 19.6 12.85 18.2 13.4 19.6 13.55 19.75 13.6 19.9 14.2 20.9 10.15 19.05 9.55 18.05 12.85 18.2" fill="#161b15" fill-rule="evenodd" stroke="none"/>
    <path d="M15.0 12.3 Q15.0 13.3 15.35 13.7 16.85 15.1 17.1 16.65 L17.25 17.55 17.65 18.9 18.5 19.95 19.2 20.6 Q19.5 20.9 20.9 21.0 L21.75 21.05 21.65 22.2 20.2 22.5 19.9 24.45 17.1 23.3 15.85 22.6 15.65 22.5 15.5 22.45 13.55 19.75 15.5 22.45 15.25 22.2 Q14.65 21.75 14.2 20.9 L13.6 19.9 13.55 19.75 12.85 18.2 8.65 17.3 12.85 18.2 9.55 18.05 9.4 18.0 8.1 17.65 8.4 17.45 8.1 17.65 7.95 17.55 8.4 17.45 8.65 17.3 10.55 16.4 10.35 15.2 11.45 14.35 11.15 13.7 11.05 13.45 11.0 13.35 10.8 12.6 11.0 13.35 10.75 12.65 10.8 12.6 11.5 12.35 Q12.45 11.95 12.3 11.55 12.2 11.15 10.45 10.85 L10.4 10.85 10.35 10.8 10.4 10.85 10.35 10.85 10.35 10.8 10.55 9.85 12.75 9.5 10.55 9.85 10.65 9.7 12.2 9.5 12.75 9.5 15.45 9.6 15.65 9.65 15.1 11.2 15.0 12.3 Q14.8 13.3 14.95 13.55 L15.8 14.6 16.95 16.35 17.25 17.55 16.95 16.35 15.8 14.6 14.95 13.55 Q14.8 13.3 15.0 12.3 M18.5 19.95 L19.15 20.7 Q20.0 21.3 21.75 21.05 20.0 21.3 19.15 20.7 L18.5 19.95 M11.55 10.5 Q12.4 10.5 12.55 11.05 12.95 11.9 12.55 12.45 L11.5 12.35 12.55 12.45 Q12.95 11.9 12.55 11.05 12.4 10.5 11.55 10.5 M19.9 24.45 L15.85 22.6 19.9 24.45 M15.95 19.1 L16.6 20.25 15.95 19.1 M14.4 19.1 L15.95 21.4 14.4 19.1" fill="url(#gradient1)" fill-rule="evenodd" stroke="none"/>
    <path d="M8.35 4.7 L8.3 4.7 8.2 4.75 M22.65 5.0 L23.45 5.3 24.95 7.25 26.7 10.2 26.85 10.85 27.35 14.6 25.85 14.7 M8.5 4.6 Q11.85 2.15 16.3 2.6 20.2 2.85 22.0 4.7 M8.5 4.6 L8.35 4.7" fill="none" stroke="#222328" stroke-linecap="round" stroke-linejoin="round" stroke-width="1.0"/>
    <path d="M11.9 6.15 L13.7 5.0 17.0 4.85 19.05 6.25 20.2 6.5 Q21.05 6.85 21.6 7.5 L22.1 8.2 Q23.15 10.0 23.45 12.6 L23.45 13.5 23.4 14.0 M12.05 7.55 L11.9 6.15" fill="none" stroke="#2a3047" stroke-linecap="round" stroke-linejoin="round" stroke-width="1.0"/>
    <path d="M26.35 10.2 L26.7 10.2 M26.85 12.1 L23.95 12.0 M23.65 10.2 L26.35 10.2" fill="none" stroke="#373b4b" stroke-linecap="round" stroke-linejoin="round" stroke-width="1.0"/>
    <path d="M25.85 14.7 L24.0 14.75 23.4 14.05" fill="none" stroke="#68202d" stroke-linecap="round" stroke-linejoin="round" stroke-width="1.0"/>
    <path d="M23.4 14.0 L23.4 14.05" fill="none" stroke="#000000" stroke-linecap="round" stroke-linejoin="round" stroke-opacity="0.0" stroke-width="1.0"/>
    <path d="M23.4 14.05 L21.15 14.0 19.65 12.35 18.5 11.5 15.65 9.5" fill="none" stroke="#542e35" stroke-linecap="round" stroke-linejoin="round" stroke-width="1.0"/>
    <path d="M19.9 24.45 L20.2 22.5 21.65 22.2 21.75 21.05" fill="none" stroke="#202024" stroke-linecap="round" stroke-linejoin="round" stroke-width="1.0"/>
    <path d="M24.6 21.3 L24.75 21.75 24.75 22.95 24.65 23.2 24.45 23.75 23.8 24.45 Q22.3 24.85 19.9 24.45 M21.75 21.05 L24.6 21.3" fill="none" stroke="#444444" stroke-linecap="round" stroke-linejoin="round" stroke-width="1.0"/>
    <path d="M12.75 9.5 L10.55 9.85 M11.1 7.85 L11.2 7.85 11.3 7.85 M12.75 9.5 Q14.45 9.3 15.65 9.5 M9.55 7.6 L11.1 7.85 M7.1 12.85 Q6.9 14.0 8.65 17.3 M7.75 9.9 L8.85 7.55 9.55 7.6" fill="none" stroke="#43485e" stroke-linecap="round" stroke-linejoin="round" stroke-width="1.0"/>
    <path d="M11.5 12.35 L12.55 12.45 Q12.95 11.9 12.55 11.05 12.4 10.5 11.55 10.5" fill="none" stroke="#173031" stroke-linecap="round" stroke-linejoin="round" stroke-width="1.0"/>
    <path d="M15.65 9.65 L15.2 11.3 15.0 12.3 Q14.8 13.3 14.95 13.55 L15.8 14.6 16.95 16.35 17.25 17.55 18.5 19.95 19.15 20.7 Q20.0 21.3 21.75 21.05 M15.65 9.5 L15.65 9.65" fill="none" stroke="#24222e" stroke-linecap="round" stroke-linejoin="round" stroke-width="1.0"/>
    <path d="M10.55 9.85 L10.35 10.8 10.4 10.85 10.8 12.6 11.0 13.35 11.0 13.4 11.05 13.45 11.15 13.7 11.45 14.35 10.35 15.2 M11.45 7.1 L11.3 7.85 10.8 9.35 10.55 9.85" fill="none" stroke="#252734" stroke-linecap="round" stroke-linejoin="round" stroke-width="1.0"/>
    <path d="M19.55 11.4 Q20.1 9.5 17.85 8.2 15.6 6.9 12.05 7.55" fill="none" stroke="#383e51" stroke-linecap="round" stroke-linejoin="round" stroke-width="1.0"/>
    <path d="M5.35 16.65 L5.1 16.6 4.8 16.1 2.8 12.95 4.35 9.5 4.7 9.2 5.55 8.55 5.9 7.85 6.45 6.7 6.45 6.65 M6.45 6.6 L6.75 5.95 7.3 5.5 8.2 4.75 M8.65 17.3 L8.4 17.45 8.1 17.65 7.9 17.7 7.4 17.55 5.35 16.65" fill="none" stroke="#2a2e38" stroke-linecap="round" stroke-linejoin="round" stroke-width="1.0"/>
    <path d="M7.55 18.7 L7.05 17.95 6.8 17.45 M6.45 6.7 L6.45 6.6 M6.25 7.3 L6.45 6.7" fill="none" stroke="#404044" stroke-linecap="round" stroke-linejoin="round" stroke-width="1.0"/>
    <path d="M6.0 10.2 Q5.5 10.45 5.5 11.1 5.45 11.75 5.85 12.15 L6.95 12.8 7.0 12.8 7.1 12.85 M6.0 10.2 L6.2 10.2 7.75 9.9" fill="none" stroke="#1d5052" stroke-linecap="round" stroke-linejoin="round" stroke-width="1.0"/>
    <path d="M9.75 10.2 L10.15 9.3 M10.2 12.8 L9.8 11.65" fill="none" stroke="#131418" stroke-linecap="round" stroke-linejoin="round" stroke-width="1.0"/>
    <path d="M7.9 10.2 Q8.85 11.75 7.1 12.85 M7.75 9.9 L7.9 10.2" fill="none" stroke="#43485e" stroke-linecap="round" stroke-linejoin="miter-clip" stroke-miterlimit="4.0" stroke-width="1.0"/>
    <path d="M10.35 15.2 L10.55 16.4 8.65 17.3" fill="none" stroke="#35394a" stroke-linecap="round" stroke-linejoin="round" stroke-width="1.0"/>
    <path d="M10.0 18.95 L9.4 18.0 M15.25 22.2 Q12.4 21.15 10.2 19.25 L7.55 18.7 M10.2 19.25 L10.0 18.95" fill="none" stroke="#0c0c0d" stroke-linecap="round" stroke-linejoin="round" stroke-width="1.0"/>
    <path d="M17.1 23.3 L16.95 24.0 11.2 23.55 7.5 20.95 7.55 18.7" fill="none" stroke="#0f0f10" stroke-linecap="round" stroke-linejoin="round" stroke-width="1.0"/>
    <path d="M8.65 17.3 L12.85 18.2 13.4 19.6 13.55 19.75 15.5 22.45 15.6 22.5 15.85 22.6 19.9 24.45" fill="none" stroke="#15171f" stroke-linecap="round" stroke-linejoin="round" stroke-width="1.0"/>
    <path d="M16.6 20.25 L15.95 19.1" fill="none" stroke="#17191e" stroke-linecap="round" stroke-linejoin="round" stroke-width="1.0"/>
    <path d="M15.95 21.4 L14.4 19.1" fill="none" stroke="#23252d" stroke-linecap="round" stroke-linejoin="round" stroke-width="1.0"/>
    <path d="M8.2 4.75 Q10.95 5.2 11.9 6.15" fill="none" stroke="#222634" stroke-linecap="round" stroke-linejoin="round" stroke-width="1.0"/>
    <path d="M19.05 6.25 L22.65 5.0" fill="none" stroke="#2b314a" stroke-linecap="round" stroke-linejoin="round" stroke-width="1.0"/>
  </g>
  <defs>
    <radialGradient cx="0" cy="0" gradientTransform="matrix(0.0112, 0.0011, -0.001, 0.0097, 17.5, 14.2)" gradientUnits="userSpaceOnUse" id="gradient0" r="819.2" spreadMethod="pad">
      <stop offset="0.0" stop-color="#f7005a" stop-opacity="0.6901961"/>
      <stop offset="1.0" stop-color="#f72400" stop-opacity="0.42352942"/>
    </radialGradient>
    <linearGradient gradientTransform="matrix(-0.0038, 0.0, 0.0, -0.0036, 11.8, 15.55)" gradientUnits="userSpaceOnUse" id="gradient1" spreadMethod="pad" x1="-819.2" x2="819.2">
      <stop offset="0.0" stop-color="#33384b"/>
      <stop offset="1.0" stop-color="#0d242f"/>
    </linearGradient>
  </defs>
</svg>
