<?xml version="1.0" encoding="UTF-8" standalone="no"?>
<svg xmlns:ffdec="https://www.free-decompiler.com/flash" xmlns:xlink="http://www.w3.org/1999/xlink" ffdec:objectType="shape" height="26.9px" width="20.65px" xmlns="http://www.w3.org/2000/svg">
  <g transform="matrix(1.0, 0.0, 0.0, 1.0, 7.7, 23.45)">
    <path d="M0.9 -16.4 Q4.95 -16.75 9.55 -13.55 14.15 -10.4 11.4 -1.5 L11.15 -1.75 Q10.5 -2.35 9.5 -2.35 L9.45 -2.35 8.5 -2.2 8.4 -4.65 9.2 -5.9 Q8.85 -7.15 7.4 -7.95 6.75 -8.5 4.7 -9.4 L4.85 -9.1 2.6 -10.1 0.9 -16.4" fill="url(#gradient0)" fill-rule="evenodd" stroke="none"/>
    <path d="M4.85 -9.1 Q5.95 -7.05 6.9 -5.95 L8.4 -4.65 8.5 -2.2 Q5.15 -3.35 3.9 -5.6 L2.6 -10.1 4.85 -9.1" fill="url(#gradient1)" fill-rule="evenodd" stroke="none"/>
    <path d="M1.15 -7.75 L1.15 -7.7 1.1 -7.75 1.15 -7.75 M2.05 -6.05 L2.15 -5.75 1.95 -5.8 2.05 -6.05" fill="url(#gradient2)" fill-rule="evenodd" stroke="none"/>
    <path d="M1.15 -7.7 L1.15 -7.75 -1.6 -9.6 -1.6 -12.2 -3.15 -14.7 Q-2.35 -16.2 0.9 -16.4 L2.6 -10.1 3.9 -5.6 2.15 -5.6 2.15 -5.75 2.05 -6.05 2.1 -6.35 Q2.35 -6.75 1.15 -7.7" fill="url(#gradient3)" fill-rule="evenodd" stroke="none"/>
    <path d="M-3.25 -3.85 L-3.9 -4.15 Q-4.7 -4.35 -5.1 -4.85 -5.7 -5.55 -5.7 -6.95 L-5.7 -7.0 Q-5.85 -7.65 -5.3 -8.25 L-4.75 -9.1 Q-3.55 -10.05 -2.35 -9.9 L-2.3 -9.85 -1.65 -9.65 -1.6 -9.6 1.15 -7.75 1.1 -7.75 1.15 -7.7 1.2 -7.65 2.05 -6.05 1.95 -5.8 2.15 -5.75 2.15 -5.6 2.1 -4.85 0.65 -4.15 0.65 -4.25 0.15 -4.65 -0.2 -4.65 -0.5 -4.65 -1.9 -4.1 Q-2.25 -4.05 -2.35 -3.8 L-2.35 -3.7 -2.35 -3.5 -3.25 -3.85" fill="url(#gradient4)" fill-rule="evenodd" stroke="none"/>
    <path d="M1.15 -7.7 Q2.35 -6.75 2.1 -6.35 L2.05 -6.05 1.2 -7.65 1.15 -7.7" fill="#282828" fill-rule="evenodd" stroke="none"/>
    <path d="M11.4 -1.5 L11.85 -0.55 11.9 -0.45 11.85 0.25 Q11.75 1.0 11.15 1.5 10.5 2.2 9.5 2.2 L9.45 2.2 9.15 2.15 Q11.25 0.1 8.85 -0.25 L7.35 0.85 7.05 0.95 3.95 -0.35 2.65 -0.85 2.55 -0.95 1.95 -1.75 0.35 -3.4 0.55 -3.6 0.65 -4.15 2.1 -4.85 2.15 -5.6 3.9 -5.6 Q5.15 -3.35 8.5 -2.2 L9.45 -2.35 9.5 -2.35 Q10.5 -2.35 11.15 -1.75 L11.4 -1.5" fill="url(#gradient5)" fill-rule="evenodd" stroke="none"/>
    <path d="M0.65 -4.15 L0.55 -3.6 0.35 -3.4 0.1 -3.15 -1.35 -2.65 -1.45 -2.6 -1.95 -2.65 -2.3 -2.9 -2.45 -3.1 -2.35 -3.5 -2.35 -3.7 -2.35 -3.8 Q-2.25 -4.05 -1.9 -4.1 L-0.5 -4.65 -0.2 -4.65 0.15 -4.65 0.65 -4.25 0.65 -4.15 M2.65 -0.85 L3.95 -0.35 3.95 0.35 3.45 0.0 2.65 -0.85 M-5.7 -15.3 L-5.95 -15.2 -5.9 -15.3 -5.7 -15.3" fill="#191919" fill-rule="evenodd" stroke="none"/>
    <path d="M9.15 2.15 L8.3 2.5 Q6.8 3.1 6.3 2.9 L5.3 2.9 4.3 2.65 Q3.25 2.25 2.05 1.2 L1.25 0.4 0.9 0.0 0.35 -0.8 -1.45 -2.6 -1.35 -2.65 0.1 -3.15 0.35 -3.4 1.95 -1.75 2.55 -0.95 2.65 -0.85 3.45 0.0 3.95 0.35 5.1 0.85 5.95 0.95 6.25 1.0 7.05 0.95 7.35 0.85 8.85 -0.25 Q11.25 0.1 9.15 2.15 M1.95 -1.75 L0.35 -0.8 1.95 -1.75 M8.25 0.75 L8.3 2.5 8.25 0.75 M4.3 2.65 L5.1 0.85 4.3 2.65 M6.3 2.9 L6.25 1.0 6.3 2.9 M2.05 1.2 L3.45 0.0 2.05 1.2" fill="#333333" fill-rule="evenodd" stroke="none"/>
    <path d="M0.9 0.0 Q-0.8 -0.45 -2.8 -1.2 -3.75 -2.45 -3.25 -3.85 L-2.35 -3.5 -2.45 -3.1 -2.3 -2.9 -1.95 -2.65 -1.45 -2.6 0.35 -0.8 0.9 0.0" fill="url(#gradient6)" fill-rule="evenodd" stroke="none"/>
    <path d="M-5.7 -7.0 L-5.95 -7.0 -7.2 -9.0 -7.2 -13.2 Q-7.2 -14.4 -6.15 -15.1 L-5.95 -15.2 -5.7 -15.3 -5.6 -15.35 -4.45 -15.35 -3.55 -15.35 -3.15 -14.7 -1.6 -12.2 -1.6 -9.6 -1.65 -9.65 -2.3 -9.85 -2.35 -9.9 Q-3.55 -10.05 -4.75 -9.1 L-5.3 -8.25 Q-5.85 -7.65 -5.7 -7.0" fill="url(#gradient7)" fill-rule="evenodd" stroke="none"/>
    <path d="M8.4 -4.65 L8.5 -2.2 M2.6 -10.1 L4.85 -9.1 M3.9 -5.6 L2.6 -10.1 0.9 -16.4" fill="none" stroke="url(#gradient8)" stroke-linecap="round" stroke-linejoin="round" stroke-width="0.6000000000000001"/>
    <path d="M-3.25 -3.85 L-3.9 -4.15 Q-4.7 -4.35 -5.1 -4.85 -5.7 -5.55 -5.7 -6.95 L-5.7 -7.0 Q-5.85 -7.65 -5.3 -8.25 L-4.75 -9.1 Q-3.55 -10.05 -2.35 -9.9 L-2.3 -9.85 -1.65 -9.65 -1.6 -9.6 1.15 -7.75 1.15 -7.7 1.2 -7.65 2.05 -6.05 2.15 -5.75 2.15 -5.6 2.1 -4.85 0.65 -4.15 0.55 -3.6 0.35 -3.4 0.1 -3.15 -1.35 -2.65 -1.45 -2.6 -1.95 -2.65 -2.3 -2.9 -2.45 -3.1 -2.35 -3.5 -3.25 -3.85 M-2.35 -3.5 L-2.35 -3.7 -2.35 -3.8 Q-2.25 -4.05 -1.9 -4.1 L-0.5 -4.65 -0.2 -4.65 0.15 -4.65 0.65 -4.25 0.65 -4.15" fill="none" stroke="#111111" stroke-linecap="round" stroke-linejoin="round" stroke-width="1.0"/>
    <path d="M0.35 -0.8 L1.95 -1.75 M8.3 2.5 L8.25 0.75 M5.1 0.85 L4.3 2.65 M6.25 1.0 L6.3 2.9 M3.45 0.0 L2.05 1.2" fill="none" stroke="#080807" stroke-linecap="round" stroke-linejoin="round" stroke-opacity="0.8784314" stroke-width="0.30000000000000004"/>
    <path d="M0.9 0.0 Q-0.8 -0.45 -2.8 -1.2 -3.75 -2.45 -3.25 -3.85 M-5.7 -7.0 L-5.95 -7.0 -7.2 -9.0 -7.2 -13.2 Q-7.2 -14.4 -6.15 -15.1 L-5.95 -15.2 -5.7 -15.3 -5.9 -15.3 -5.95 -15.2 M2.15 -5.6 L3.9 -5.6 M0.9 -16.4 Q-2.35 -16.2 -3.15 -14.7 L-3.55 -15.35 M-1.6 -12.2 L-1.6 -9.6 M2.65 -0.85 L3.95 -0.35 7.05 0.95 M3.95 0.35 L3.95 -0.35 M-5.6 -15.35 L-5.7 -15.3" fill="none" stroke="#0f0f0f" stroke-linecap="round" stroke-linejoin="round" stroke-width="1.0"/>
    <path d="M9.15 2.15 L8.3 2.5 Q6.8 3.1 6.3 2.9 L5.3 2.9 4.3 2.65 Q3.25 2.25 2.05 1.2 L1.25 0.4 0.9 0.0 0.35 -0.8 -1.45 -2.6 M0.35 -3.4 L1.95 -1.75 2.55 -0.95 2.65 -0.85 3.45 0.0 3.95 0.35 5.1 0.85 5.95 0.95 6.25 1.0 7.05 0.95 7.35 0.85 8.85 -0.25 Q11.25 0.1 9.15 2.15" fill="none" stroke="#080807" stroke-linecap="round" stroke-linejoin="round" stroke-opacity="0.8784314" stroke-width="1.0"/>
    <path d="M-6.15 -15.1 L-6.15 -22.95 M-4.45 -15.35 L-4.45 -18.5" fill="none" stroke="#111111" stroke-linecap="round" stroke-linejoin="round" stroke-opacity="0.7372549" stroke-width="1.0"/>
    <path d="M4.7 -9.4 L6.6 -8.7 Q8.35 -7.9 9.3 -6.45 L9.3 -6.1 9.2 -5.9 8.4 -4.65 6.9 -5.95 Q5.95 -7.05 4.85 -9.1 L4.7 -9.4 Q6.75 -8.5 7.4 -7.95 8.85 -7.15 9.2 -5.9" fill="none" stroke="#0f0f0f" stroke-linecap="round" stroke-linejoin="round" stroke-width="0.6000000000000001"/>
    <path d="M8.5 -2.2 Q5.15 -3.35 3.9 -5.6" fill="none" stroke="#0f0f0f" stroke-linecap="round" stroke-linejoin="round" stroke-width="1.0"/>
    <path d="M-1.6 -12.2 L-3.15 -14.7" fill="none" stroke="#0f0f0f" stroke-linecap="round" stroke-linejoin="round" stroke-width="1.0"/>
    <path d="M-3.5 -15.35 L-5.6 -15.35" fill="none" stroke="#0f0f0f" stroke-linecap="round" stroke-linejoin="round" stroke-width="1.0"/>
    <path d="M0.9 -16.4 Q4.95 -16.75 9.55 -13.55 14.15 -10.4 11.4 -1.5" fill="none" stroke="#0f0f0f" stroke-linecap="round" stroke-linejoin="round" stroke-width="1.0"/>
    <path d="M7.35 0.85 L7.1 -0.1 Q7.1 -1.05 7.85 -1.75 L8.5 -2.2 9.45 -2.35 9.5 -2.35 Q10.5 -2.35 11.15 -1.75 L11.4 -1.5 11.85 -0.55 11.9 -0.45 11.85 0.25 Q11.75 1.0 11.15 1.5 10.5 2.2 9.5 2.2 L9.45 2.2 9.15 2.15 M11.85 -0.55 L11.85 -0.1 11.85 0.25" fill="none" stroke="#0f0f0f" stroke-linecap="round" stroke-linejoin="round" stroke-width="1.0"/>
  </g>
  <defs>
    <radialGradient cx="0" cy="0" gradientTransform="matrix(0.0145, 0.0, 0.0, 0.0145, 3.3, -10.05)" gradientUnits="userSpaceOnUse" id="gradient0" r="819.2" spreadMethod="pad">
      <stop offset="0.0" stop-color="#756d5f"/>
      <stop offset="1.0" stop-color="#1f1f1f"/>
      <stop offset="1.0" stop-color="#333333"/>
      <stop offset="1.0" stop-color="#333333"/>
      <stop offset="1.0" stop-color="#202121"/>
      <stop offset="1.0" stop-color="#202121"/>
    </radialGradient>
    <radialGradient cx="0" cy="0" gradientTransform="matrix(0.0116, 0.0, 0.0, 0.0116, 2.9, -9.9)" gradientUnits="userSpaceOnUse" id="gradient1" r="819.2" spreadMethod="pad">
      <stop offset="0.0" stop-color="#756d5f"/>
      <stop offset="1.0" stop-color="#1f1f1f"/>
      <stop offset="1.0" stop-color="#333333"/>
      <stop offset="1.0" stop-color="#333333"/>
      <stop offset="1.0" stop-color="#202121"/>
      <stop offset="1.0" stop-color="#202121"/>
    </radialGradient>
    <radialGradient cx="0" cy="0" gradientTransform="matrix(0.0139, 0.0, 0.0, 0.0137, 4.5, -10.3)" gradientUnits="userSpaceOnUse" id="gradient2" r="819.2" spreadMethod="pad">
      <stop offset="0.0" stop-color="#cccccc"/>
      <stop offset="1.0" stop-color="#666666"/>
      <stop offset="1.0" stop-color="#333333"/>
      <stop offset="1.0" stop-color="#333333"/>
    </radialGradient>
    <radialGradient cx="0" cy="0" gradientTransform="matrix(0.0123, 0.0, 0.0, 0.0123, 3.15, -7.15)" gradientUnits="userSpaceOnUse" id="gradient3" r="819.2" spreadMethod="pad">
      <stop offset="0.0" stop-color="#756d5f"/>
      <stop offset="1.0" stop-color="#1f1f1f"/>
      <stop offset="1.0" stop-color="#333333"/>
      <stop offset="1.0" stop-color="#333333"/>
      <stop offset="1.0" stop-color="#202121"/>
      <stop offset="1.0" stop-color="#202121"/>
    </radialGradient>
    <radialGradient cx="0" cy="0" gradientTransform="matrix(0.0081, 0.0, 0.0, 0.0081, 0.15, -5.9)" gradientUnits="userSpaceOnUse" id="gradient4" r="819.2" spreadMethod="pad">
      <stop offset="0.0" stop-color="#333333"/>
      <stop offset="1.0" stop-color="#191919"/>
    </radialGradient>
    <radialGradient cx="0" cy="0" gradientTransform="matrix(0.0093, 0.0, 0.0, 0.0093, 7.0, -1.2)" gradientUnits="userSpaceOnUse" id="gradient5" r="819.2" spreadMethod="pad">
      <stop offset="0.0" stop-color="#333333"/>
      <stop offset="1.0" stop-color="#000000"/>
    </radialGradient>
    <radialGradient cx="0" cy="0" gradientTransform="matrix(0.0045, 0.0, 0.0, 0.0045, -0.85, -1.05)" gradientUnits="userSpaceOnUse" id="gradient6" r="819.2" spreadMethod="pad">
      <stop offset="0.0" stop-color="#1f1f1f"/>
      <stop offset="1.0" stop-color="#333333"/>
    </radialGradient>
    <radialGradient cx="0" cy="0" gradientTransform="matrix(0.0078, 0.0, 0.0, 0.0078, -2.3, -11.9)" gradientUnits="userSpaceOnUse" id="gradient7" r="819.2" spreadMethod="pad">
      <stop offset="0.0" stop-color="#333333"/>
      <stop offset="1.0" stop-color="#000000"/>
    </radialGradient>
    <linearGradient gradientTransform="matrix(0.0126, 0.0, 0.0, 0.0164, 2.6, -10.0)" gradientUnits="userSpaceOnUse" id="gradient8" spreadMethod="pad" x1="-819.2" x2="819.2">
      <stop offset="0.0" stop-color="#3f3f40"/>
      <stop offset="1.0" stop-color="#000000"/>
      <stop offset="1.0" stop-color="#333333"/>
      <stop offset="1.0" stop-color="#333333"/>
      <stop offset="1.0" stop-color="#202121"/>
      <stop offset="1.0" stop-color="#202121"/>
    </linearGradient>
  </defs>
</svg>
