<?xml version="1.0" encoding="UTF-8" standalone="no"?>
<svg xmlns:ffdec="https://www.free-decompiler.com/flash" xmlns:xlink="http://www.w3.org/1999/xlink" ffdec:objectType="shape" height="18.5px" width="20.95px" xmlns="http://www.w3.org/2000/svg">
  <g transform="matrix(1.0, 0.0, 0.0, 1.0, 0.5, -1.8)">
    <path d="M18.5 6.5 L19.95 7.7 19.95 9.65 18.8 11.7 17.85 10.4 17.35 7.55 18.5 6.5" fill="#333333" fill-rule="evenodd" stroke="none"/>
    <path d="M11.7 12.15 L17.85 10.4 17.2 10.95 13.6 12.1 11.7 12.15" fill="#42463c" fill-rule="evenodd" stroke="none"/>
    <path d="M16.4 6.25 L17.25 5.6 18.5 5.6 18.5 6.5 17.35 7.55 17.85 10.4 11.7 12.15 10.55 12.4 9.65 11.45 9.65 10.25 13.55 9.35 14.55 8.1 15.45 6.8 16.4 6.25 M16.8 17.0 L13.75 19.8 10.3 19.0 9.4 18.75 8.8 18.1 7.4 16.5 8.35 15.35 10.15 13.85 11.05 13.3 11.7 12.15 11.7 14.3 16.8 17.0 M3.45 14.55 L2.6 13.95 1.8 12.5 0.6 12.5 0.0 10.7 0.55 9.95 1.55 9.1 2.3 9.1 3.1 9.1 4.2 10.85 3.45 11.45 3.45 14.55" fill="#2c2c2c" fill-rule="evenodd" stroke="none"/>
    <path d="M2.3 9.1 L2.3 8.1 4.45 8.1 5.2 8.9 9.9 8.9 14.55 8.1 13.55 9.35 9.65 10.25 5.0 10.25 4.2 10.85 3.1 9.1 2.3 9.1" fill="#272727" fill-rule="evenodd" stroke="none"/>
    <path d="M4.85 15.55 L3.45 14.55 3.45 11.45 4.2 10.85 5.0 10.25 9.65 10.25 9.65 11.45 10.55 12.4 11.7 12.15 11.05 13.3 10.15 13.85 8.35 15.35 7.4 16.5 6.25 16.5 4.85 15.55 M2.3 8.1 L2.3 7.2 2.75 6.15 3.65 4.45 Q4.4 3.35 6.8 2.65 9.15 1.95 13.15 2.7 16.65 4.15 16.4 6.25 L15.45 6.8 14.55 8.1 9.9 8.9 5.2 8.9 4.45 8.1 2.3 8.1 M13.6 3.7 L12.55 5.0 9.4 5.8 8.4 7.15 5.85 7.15 4.55 6.15 2.75 6.15 4.55 6.15 5.85 7.15 8.4 7.15 9.4 5.8 12.55 5.0 13.6 3.7 M9.9 4.05 L8.55 3.5 9.9 4.05 M7.5 4.6 L6.15 4.05 7.5 4.6" fill="#1c1c1c" fill-rule="evenodd" stroke="none"/>
    <path d="M8.8 18.1 L6.7 18.3 Q5.5 18.25 4.85 16.85 L4.85 15.55 6.25 16.5 7.4 16.5 8.8 18.1" fill="#2e2e2e" fill-rule="evenodd" stroke="none"/>
    <path d="M18.8 11.7 Q19.3 12.7 19.1 14.1 18.85 15.45 17.75 16.3 L16.8 17.0" fill="none" stroke="#2a2a2a" stroke-linecap="round" stroke-linejoin="round" stroke-width="1.0"/>
    <path d="M16.4 6.25 L17.25 5.6 18.5 5.6 18.5 6.5 19.95 7.7 19.95 9.65 18.8 11.7 17.85 10.4 17.35 7.55 18.5 6.5 M16.8 17.0 L13.75 19.8 M10.3 19.0 L9.4 18.75 8.8 18.1 6.7 18.3 Q5.5 18.25 4.85 16.85 L4.85 15.55 3.45 14.55 2.6 13.95 1.8 12.5 0.6 12.5 0.0 10.7 0.55 9.95 1.55 9.1 2.3 9.1 2.3 8.1 2.3 7.2 2.75 6.15 3.65 4.45 Q4.4 3.35 6.8 2.65 9.15 1.95 13.15 2.7 16.65 4.15 16.4 6.25 L15.45 6.8 14.55 8.1 13.55 9.35 9.65 10.25 9.65 11.45 10.55 12.4 11.7 12.15 17.85 10.4 M2.75 6.15 L4.55 6.15 5.85 7.15 8.4 7.15 9.4 5.8 12.55 5.0 13.6 3.7 M6.15 4.05 L7.5 4.6 M8.55 3.5 L9.9 4.05 M9.65 10.25 L5.0 10.25 4.2 10.85 3.45 11.45 3.45 14.55 M14.55 8.1 L9.9 8.9 5.2 8.9 4.45 8.1 2.3 8.1 M4.2 10.85 L3.1 9.1 2.3 9.1 M7.4 16.5 L8.8 18.1 M4.85 15.55 L6.25 16.5 7.4 16.5 8.35 15.35 10.15 13.85 11.05 13.3 11.7 12.15 11.7 14.3 16.8 17.0" fill="none" stroke="#101010" stroke-linecap="round" stroke-linejoin="round" stroke-width="1.0"/>
    <path d="M13.75 19.8 L10.3 19.0" fill="none" stroke="#0e0e0e" stroke-linecap="round" stroke-linejoin="round" stroke-width="1.0"/>
    <path d="M18.5 5.6 L18.5 6.5 19.95 7.7 19.95 9.65 18.8 11.7 17.85 10.4 17.35 7.55 18.5 6.5" fill="none" stroke="#1e1e1e" stroke-linecap="round" stroke-linejoin="round" stroke-width="1.0"/>
    <path d="M16.4 6.25 L17.25 5.6 18.5 5.6 M18.8 11.7 L19.05 12.25 Q19.25 13.05 19.1 14.1 18.85 15.45 17.75 16.3 M9.65 10.25 L13.55 9.35 14.55 8.1 15.45 6.8 16.4 6.25 M9.65 10.25 L9.65 11.45 10.55 12.4 11.7 12.15 17.85 10.4 19.05 12.25 M11.7 12.15 L12.05 14.05 17.3 16.6" fill="none" stroke="#101010" stroke-linecap="round" stroke-linejoin="round" stroke-width="1.0"/>
    <path d="M14.55 8.1 L9.9 8.9 5.2 8.9 4.45 8.1 2.3 8.1 2.3 9.1 3.1 9.1 4.2 10.85 5.0 10.25 9.65 10.25 M16.4 6.25 Q16.65 4.15 13.15 2.7 9.15 1.95 6.8 2.65 4.4 3.35 3.65 4.45 2.9 5.6 2.3 7.2 L2.3 8.1 M10.3 19.0 L9.4 18.75 8.8 18.1 6.7 18.3 Q5.5 18.25 4.85 16.85 L4.85 15.55 3.45 14.55 2.6 13.95 1.8 12.5 0.6 12.5 0.0 10.7 0.55 9.95 1.55 9.1 2.3 9.1 M4.2 10.85 L3.45 11.45 3.45 14.55 M13.75 19.8 L16.8 17.0 11.7 14.3 11.7 12.15 11.05 13.3 10.15 13.85 8.35 15.35 7.4 16.5 8.8 18.1 M4.85 15.55 L6.25 16.5 7.4 16.5" fill="none" stroke="#0e0e0e" stroke-linecap="round" stroke-linejoin="round" stroke-width="1.0"/>
    <path d="M19.9 12.85 L19.9 12.9 19.5 14.8 Q19.0 16.0 17.95 16.9 L12.5 13.65 12.5 11.95 15.1 11.3 17.5 10.65 17.55 10.7 18.4 11.1 Q19.15 11.65 19.9 12.85 M17.2 14.8 L16.35 14.3 17.2 14.8 M19.5 14.8 L15.85 13.45 15.1 11.3 15.85 13.45 19.5 14.8 M17.1 12.5 L16.4 12.0 17.1 12.5 M18.4 11.1 L19.9 12.9 18.4 11.1" fill="#191919" fill-rule="evenodd" stroke="none"/>
    <path d="M11.35 17.5 L11.35 16.8 13.6 15.35 M11.35 17.5 L11.35 19.25" fill="none" stroke="#232323" stroke-linecap="round" stroke-linejoin="round" stroke-width="1.0"/>
    <path d="M13.6 15.35 L11.75 14.35 M13.6 15.35 L16.8 17.05 13.8 19.8 11.35 19.25 10.35 19.0 M12.7 16.75 L12.7 17.7 M11.15 15.85 L11.35 17.5" fill="none" stroke="#171717" stroke-linecap="round" stroke-linejoin="round" stroke-width="1.0"/>
    <path d="M15.1 11.3 L15.85 13.45 19.5 14.8" fill="none" stroke="#101010" stroke-linecap="round" stroke-linejoin="round" stroke-width="1.0"/>
    <path d="M19.9 12.85 L19.9 12.9 19.5 14.8 Q19.0 16.0 17.95 16.9 L12.5 13.65 12.5 11.95 15.1 11.3 17.5 10.65 M18.4 11.1 L17.85 10.45 M19.9 12.9 L18.4 11.1" fill="none" stroke="#040404" stroke-linecap="round" stroke-linejoin="round" stroke-width="1.0"/>
    <path d="M16.35 14.3 L17.2 14.8 M16.4 12.0 L17.1 12.5" fill="none" stroke="#ffffa3" stroke-linecap="round" stroke-linejoin="round" stroke-width="1.0"/>
    <path d="M16.15 13.15 L15.35 12.4 Q14.95 11.8 15.1 11.4 15.2 10.9 15.8 10.85 16.35 10.8 17.1 11.2 17.8 11.55 18.2 12.1 18.6 12.7 18.45 13.15 18.35 13.6 17.75 13.65 L17.4 13.65 17.05 13.45 16.15 13.15" fill="url(#gradient0)" fill-rule="evenodd" stroke="none"/>
    <path d="M17.4 13.65 L18.15 14.35 Q18.55 14.95 18.4 15.4 18.3 15.85 17.7 15.9 L16.45 15.6 15.3 14.65 Q14.9 14.05 15.05 13.65 15.15 13.15 15.75 13.1 L16.15 13.15 17.05 13.45 17.4 13.65" fill="url(#gradient1)" fill-rule="evenodd" stroke="none"/>
  </g>
  <defs>
    <radialGradient cx="0" cy="0" gradientTransform="matrix(-3.0E-4, 0.0011, -0.0016, -8.0E-4, 16.8, 12.25)" gradientUnits="userSpaceOnUse" id="gradient0" r="819.2" spreadMethod="pad">
      <stop offset="0.0" stop-color="#ffffa3"/>
      <stop offset="1.0" stop-color="#ffffff" stop-opacity="0.0"/>
    </radialGradient>
    <radialGradient cx="0" cy="0" gradientTransform="matrix(-3.0E-4, 0.0011, -0.0016, -8.0E-4, 16.75, 14.5)" gradientUnits="userSpaceOnUse" id="gradient1" r="819.2" spreadMethod="pad">
      <stop offset="0.0" stop-color="#ffffa3"/>
      <stop offset="1.0" stop-color="#ffffff" stop-opacity="0.0"/>
    </radialGradient>
  </defs>
</svg>
