<?xml version="1.0" encoding="UTF-8" standalone="no"?>
<svg xmlns:ffdec="https://www.free-decompiler.com/flash" xmlns:xlink="http://www.w3.org/1999/xlink" ffdec:objectType="shape" height="20.55px" width="20.65px" xmlns="http://www.w3.org/2000/svg">
  <g transform="matrix(1.0, 0.0, 0.0, 1.0, -9.7, -18.45)">
    <path d="M24.3 35.95 L23.25 33.2 20.8 32.05 21.05 31.2 20.1 30.25 Q19.1 28.05 21.15 27.35 L21.95 27.65 23.45 27.65 25.15 26.65 29.25 29.15 Q29.35 33.65 28.3 34.7 27.3 35.75 24.3 35.95" fill="url(#gradient0)" fill-rule="evenodd" stroke="none"/>
    <path d="M29.25 29.15 Q29.35 33.65 28.3 34.7 27.3 35.75 24.3 35.95" fill="none" stroke="#331f8e" stroke-linecap="round" stroke-linejoin="round" stroke-opacity="0.8" stroke-width="1.0"/>
    <path d="M27.8 27.8 L28.8 30.6 28.05 32.65 26.8 33.6 26.5 33.1 26.05 33.5 25.75 32.8 26.05 32.4 24.35 31.5 24.9 31.3 24.5 30.65 20.6 27.6 24.4 28.9 22.6 27.55 25.25 27.85 23.85 26.1 27.8 27.8 M25.5 30.3 L26.1 31.65 26.5 31.95 27.4 31.6 27.4 30.6 26.05 29.5 25.5 30.3" fill="url(#gradient1)" fill-rule="evenodd" stroke="none"/>
    <path d="M23.15 30.75 L23.5 31.2 23.05 31.2 25.35 32.6 24.95 33.05 25.85 34.5 26.35 33.95 26.65 34.5 27.7 33.65 27.3 34.9 26.25 35.3 25.0 35.0 22.85 32.35 23.5 32.35 22.05 30.6 23.15 30.75" fill="url(#gradient2)" fill-rule="evenodd" stroke="none"/>
    <path d="M20.65 27.1 L21.6 27.5 21.15 27.35 20.65 27.1" fill="#2a2a2a" fill-rule="evenodd" stroke="none"/>
    <path d="M15.35 35.0 L14.5 34.3 14.5 33.55 15.35 35.0" fill="#2b426b" fill-rule="evenodd" stroke="none"/>
    <path d="M11.0 27.9 L11.1 27.95 11.15 28.2 11.0 27.9" fill="#404930" fill-rule="evenodd" stroke="none"/>
    <path d="M21.5 21.3 L22.65 22.25 22.6 22.3 22.3 22.5 21.5 21.3 M11.0 27.8 L13.7 28.45 11.1 27.95 11.0 27.9 11.0 27.8" fill="#444930" fill-rule="evenodd" stroke="none"/>
    <path d="M13.05 22.9 L13.05 22.8 13.6 23.2 13.05 22.9" fill="#5a6447" fill-rule="evenodd" stroke="none"/>
    <path d="M13.05 22.8 L12.95 22.7 12.95 22.65 13.0 22.6 13.1 22.5 13.15 22.45 13.35 22.3 13.2 22.4 13.35 22.3 14.0 21.75 Q15.4 20.55 17.25 20.1 L17.25 21.8 15.35 23.1 14.65 23.75 13.7 23.25 13.6 23.2 13.05 22.8 M12.95 22.65 L14.65 23.75 12.95 22.65 M13.2 22.4 L13.15 22.45 13.2 22.4" fill="url(#gradient3)" fill-rule="evenodd" stroke="none"/>
    <path d="M25.25 21.0 L25.3 21.05 25.65 21.4 26.15 21.85 26.85 22.65 Q29.1 25.0 29.85 26.85 L29.25 29.15 25.15 26.65 22.3 22.5 22.6 22.3 22.65 22.25 21.5 21.3 21.45 21.25 21.9 20.4 22.5 20.15 25.25 21.0" fill="url(#gradient4)" fill-rule="evenodd" stroke="none"/>
    <path d="M24.85 35.25 L28.75 34.8 28.75 36.1 Q27.85 38.15 25.1 38.5 L22.15 37.1 22.35 37.0 23.95 35.9 24.6 35.45 24.85 35.25" fill="url(#gradient5)" fill-rule="evenodd" stroke="none"/>
    <path d="M20.35 26.95 L20.65 27.1 21.15 27.35 Q18.75 27.75 20.1 30.25 L19.6 29.75 16.9 29.75 16.9 30.95 18.3 32.25 18.9 33.6 16.0 33.6 14.5 33.4 14.4 33.35 13.05 32.9 13.0 32.85 11.7 30.0 11.15 28.2 11.1 27.95 13.7 28.45 15.25 28.75 16.35 27.35 20.35 26.95" fill="url(#gradient6)" fill-rule="evenodd" stroke="none"/>
    <path d="M14.4 33.35 L14.5 33.4 16.0 33.6 18.9 33.6 19.5 34.95 23.95 35.9 22.35 37.0 15.35 35.0 14.5 33.55 14.4 33.35" fill="url(#gradient7)" fill-rule="evenodd" stroke="none"/>
    <path d="M18.3 32.25 L16.9 30.95 16.9 29.75 19.6 29.75 20.1 30.25 21.05 31.2 20.8 32.05 20.55 32.95 18.3 32.25" fill="url(#gradient8)" fill-rule="evenodd" stroke="none"/>
    <path d="M18.9 33.6 L18.3 32.25 20.55 32.95 20.8 32.05 23.25 33.2 24.7 35.15 24.6 35.45 23.95 35.9 19.5 34.95 18.9 33.6" fill="url(#gradient9)" fill-rule="evenodd" stroke="none"/>
    <path d="M22.3 22.5 L25.15 26.65 23.45 27.65 21.95 27.65 21.6 27.5 20.65 27.1 20.35 26.95 18.7 25.3 19.85 23.3 22.3 22.5" fill="url(#gradient10)" fill-rule="evenodd" stroke="none"/>
    <path d="M22.5 20.15 L21.9 20.4 21.45 21.25 21.5 21.3 22.3 22.5 19.85 23.3 18.7 25.3 20.35 26.95 16.35 27.35 15.25 28.75 13.7 28.45 11.0 27.8 10.2 27.55 Q10.25 24.85 11.6 22.85 L12.65 22.6 13.15 22.45 13.1 22.5 13.0 22.6 12.95 22.65 12.95 22.7 13.05 22.8 13.05 22.9 13.6 23.2 13.7 23.25 14.65 23.75 15.35 23.1 17.25 21.8 17.25 20.1 17.25 19.5 Q19.35 18.6 21.35 19.2 L22.5 20.15" fill="url(#gradient11)" fill-rule="evenodd" stroke="none"/>
    <path d="M13.6 23.2 L13.7 23.25 M14.4 33.35 L14.5 33.4 M14.5 33.55 L14.4 33.35" fill="none" stroke="#232717" stroke-linecap="round" stroke-linejoin="round" stroke-width="1.0"/>
    <path d="M11.15 28.2 L11.1 27.95 M13.0 32.85 L13.05 32.9" fill="none" stroke="#272a18" stroke-linecap="round" stroke-linejoin="round" stroke-width="1.0"/>
    <path d="M25.3 21.05 L25.25 21.0 M13.6 23.2 L13.05 22.9 M24.6 35.45 L24.85 35.25" fill="none" stroke="#191919" stroke-linecap="round" stroke-linejoin="round" stroke-width="1.0"/>
    <path d="M13.1 22.5 L13.15 22.45 13.2 22.4 13.35 22.3 Q15.35 20.4 17.25 20.1" fill="none" stroke="#331f8e" stroke-linecap="round" stroke-linejoin="round" stroke-opacity="0.8" stroke-width="1.0"/>
    <path d="M22.5 20.15 L21.9 20.4 M17.25 20.1 L17.25 19.5 Q19.35 18.6 21.35 19.2 L22.5 20.15 M22.3 22.5 L19.85 23.3 18.7 25.3 20.35 26.95 20.65 27.1 21.6 27.5 21.95 27.65 23.45 27.65 25.15 26.65 M12.65 22.6 L11.6 22.85 Q10.25 24.85 10.2 27.55 L11.0 27.8 13.7 28.45 15.25 28.75 16.35 27.35 20.35 26.95 M14.65 23.75 L12.95 22.65 M17.25 20.1 L17.25 21.8 15.35 23.1 14.65 23.75 M18.3 32.25 L16.9 30.95 16.9 29.75 19.6 29.75 20.1 30.25 Q18.75 27.75 21.15 27.35 L20.65 27.1 M13.05 32.9 L14.4 33.35 M14.5 33.4 L16.0 33.6 18.9 33.6 18.3 32.25 20.55 32.95 20.8 32.05 21.05 31.2 20.1 30.25 M15.35 35.0 L14.5 33.55 M23.95 35.9 L19.5 34.95 18.9 33.6 M11.15 28.2 Q11.45 30.7 13.0 32.85 M21.6 27.5 L21.15 27.35 M22.35 37.0 L15.35 35.0 M24.7 35.15 L23.25 33.2 20.8 32.05" fill="none" stroke="#070a0a" stroke-linecap="round" stroke-linejoin="round" stroke-width="1.0"/>
    <path d="M25.25 21.0 L22.5 20.15 M21.9 20.4 L21.45 21.25 21.5 21.3 22.3 22.5 25.15 26.65 29.25 29.15 29.85 26.85 Q29.1 25.0 26.85 22.65 L26.15 21.85 25.65 21.4 25.3 21.05 M24.85 35.25 L28.75 34.8 28.75 36.1 Q27.85 38.15 25.1 38.5 L22.15 37.1 22.35 37.0 23.95 35.9 24.6 35.45" fill="none" stroke="#160727" stroke-linecap="round" stroke-linejoin="round" stroke-width="1.0"/>
  </g>
  <defs>
    <linearGradient gradientTransform="matrix(0.0049, -0.0028, 0.0026, 0.0045, 25.25, 30.95)" gradientUnits="userSpaceOnUse" id="gradient0" spreadMethod="pad" x1="-819.2" x2="819.2">
      <stop offset="0.0" stop-color="#510abb"/>
      <stop offset="0.6" stop-color="#8d4fe9"/>
      <stop offset="1.0" stop-color="#bd66ff"/>
    </linearGradient>
    <linearGradient gradientTransform="matrix(0.005, 0.0, 0.0, 0.0045, 24.65, 29.8)" gradientUnits="userSpaceOnUse" id="gradient1" spreadMethod="pad" x1="-819.2" x2="819.2">
      <stop offset="0.0" stop-color="#000000" stop-opacity="0.29803923"/>
      <stop offset="1.0" stop-color="#0006a8" stop-opacity="0.4862745"/>
      <stop offset="1.0" stop-color="#304974" stop-opacity="0.69803923"/>
    </linearGradient>
    <linearGradient gradientTransform="matrix(0.0034, 0.0, 0.0, 0.0029, 24.85, 32.9)" gradientUnits="userSpaceOnUse" id="gradient2" spreadMethod="pad" x1="-819.2" x2="819.2">
      <stop offset="0.0" stop-color="#000000" stop-opacity="0.29803923"/>
      <stop offset="1.0" stop-color="#0006a8" stop-opacity="0.4862745"/>
      <stop offset="1.0" stop-color="#304974" stop-opacity="0.69803923"/>
    </linearGradient>
    <linearGradient gradientTransform="matrix(0.0026, 0.0, 0.0, 0.0022, 15.1, 21.9)" gradientUnits="userSpaceOnUse" id="gradient3" spreadMethod="pad" x1="-819.2" x2="819.2">
      <stop offset="0.0" stop-color="#510abb"/>
      <stop offset="0.6" stop-color="#8d4fe9"/>
      <stop offset="1.0" stop-color="#bd66ff"/>
    </linearGradient>
    <linearGradient gradientTransform="matrix(0.0051, 0.0, 0.0, 0.0055, 25.65, 24.65)" gradientUnits="userSpaceOnUse" id="gradient4" spreadMethod="pad" x1="-819.2" x2="819.2">
      <stop offset="0.0" stop-color="#211a2e"/>
      <stop offset="1.0" stop-color="#3b2b58"/>
    </linearGradient>
    <linearGradient gradientTransform="matrix(0.004, 0.0, 0.0, 0.0023, 25.45, 36.65)" gradientUnits="userSpaceOnUse" id="gradient5" spreadMethod="pad" x1="-819.2" x2="819.2">
      <stop offset="0.0" stop-color="#211a2e"/>
      <stop offset="1.0" stop-color="#3b2b58"/>
    </linearGradient>
    <radialGradient cx="0" cy="0" gradientTransform="matrix(0.0089, 0.0, 0.0, 0.0089, 17.85, 29.55)" gradientUnits="userSpaceOnUse" id="gradient6" r="819.2" spreadMethod="pad">
      <stop offset="0.0" stop-color="#101010"/>
      <stop offset="1.0" stop-color="#313131"/>
    </radialGradient>
    <radialGradient cx="0" cy="0" gradientTransform="matrix(0.0063, 0.0, 0.0, 0.0063, 19.6, 34.65)" gradientUnits="userSpaceOnUse" id="gradient7" r="819.2" spreadMethod="pad">
      <stop offset="0.0" stop-color="#101010"/>
      <stop offset="1.0" stop-color="#313131"/>
    </radialGradient>
    <linearGradient gradientTransform="matrix(0.0025, 0.0, 0.0, 0.002, 18.95, 31.35)" gradientUnits="userSpaceOnUse" id="gradient8" spreadMethod="pad" x1="-819.2" x2="819.2">
      <stop offset="0.0" stop-color="#0e0e0e"/>
      <stop offset="1.0" stop-color="#171717"/>
    </linearGradient>
    <linearGradient gradientTransform="matrix(0.0039, 0.0, 0.0, 0.0023, 21.5, 33.95)" gradientUnits="userSpaceOnUse" id="gradient9" spreadMethod="pad" x1="-819.2" x2="819.2">
      <stop offset="0.0" stop-color="#0e0e0e"/>
      <stop offset="1.0" stop-color="#171717"/>
    </linearGradient>
    <linearGradient gradientTransform="matrix(0.0039, 0.0, 0.0, 0.0031, 21.9, 25.05)" gradientUnits="userSpaceOnUse" id="gradient10" spreadMethod="pad" x1="-819.2" x2="819.2">
      <stop offset="0.0" stop-color="#0e0e0e"/>
      <stop offset="1.0" stop-color="#171717"/>
    </linearGradient>
    <radialGradient cx="0" cy="0" gradientTransform="matrix(0.0134, 0.0, 0.0, 0.0134, 18.6, 26.75)" gradientUnits="userSpaceOnUse" id="gradient11" r="819.2" spreadMethod="pad">
      <stop offset="0.0" stop-color="#101010"/>
      <stop offset="1.0" stop-color="#313131"/>
    </radialGradient>
  </defs>
</svg>
