<?xml version="1.0" encoding="UTF-8" standalone="no"?>
<svg xmlns:ffdec="https://www.free-decompiler.com/flash" xmlns:xlink="http://www.w3.org/1999/xlink" ffdec:objectType="shape" height="23.85px" width="18.9px" xmlns="http://www.w3.org/2000/svg">
  <g transform="matrix(1.0, 0.0, 0.0, 1.0, 0.55, 0.45)">
    <path d="M15.2 3.0 L12.3 5.1 12.6 5.7 10.2 4.75 6.35 3.9 Q4.3 3.75 1.25 5.15 4.3 3.75 6.35 3.9 L10.2 4.75 12.6 5.7 10.2 7.2 5.6 6.35 3.4 6.35 1.4 8.8 1.2 8.2 Q0.9 6.2 1.25 5.15 L2.15 3.75 Q3.45 2.0 5.6 1.3 L11.1 0.85 Q13.7 1.6 15.2 3.0 M10.05 16.3 L9.0 16.15 6.8 11.35 7.55 9.95 8.7 9.95 8.55 13.15 Q8.85 15.0 10.05 16.3 M6.55 15.25 Q5.65 14.75 4.85 14.05 3.75 13.05 3.85 11.8 L4.9 12.25 6.55 15.25 M10.1 2.2 L8.4 2.85 10.1 2.2 M7.0 1.9 L5.5 2.5 7.0 1.9" fill="#1e1e1e" fill-rule="evenodd" stroke="none"/>
    <path d="M14.3 11.35 L13.6 11.15 13.3 10.85 13.6 10.55 14.3 10.5 14.95 10.7 15.2 11.0 14.95 11.25 14.3 11.35" fill="#121212" fill-rule="evenodd" stroke="none"/>
    <path d="M15.2 3.0 L15.55 3.35 Q17.15 5.2 17.25 7.1 L17.2 8.05 13.05 7.0 12.6 5.7 13.05 7.0 17.2 8.05 17.15 9.1 16.65 9.1 12.5 9.2 11.85 10.05 8.7 9.95 7.55 9.95 6.8 11.35 6.05 12.75 4.9 12.25 6.05 12.75 6.8 11.35 9.0 16.15 7.35 15.6 6.55 15.25 4.9 12.25 3.85 11.8 2.15 11.05 1.4 8.8 3.4 6.35 5.6 6.35 10.2 7.2 12.6 5.7 12.3 5.1 15.2 3.0 M12.5 9.2 L12.25 7.55 10.2 7.2 12.25 7.55 12.5 9.2 M4.9 10.05 L3.0 9.4 4.9 10.05" fill="#252525" fill-rule="evenodd" stroke="none"/>
    <path d="M16.65 9.1 Q16.7 12.15 15.95 15.25 15.2 16.6 13.95 16.85 12.25 17.35 10.45 16.5 L10.05 16.3 Q8.85 15.0 8.55 13.15 L8.7 9.95 11.85 10.05 12.5 9.2 16.65 9.1 M14.3 11.35 L14.95 11.25 15.2 11.0 14.95 10.7 14.3 10.5 13.6 10.55 13.3 10.85 13.6 11.15 14.3 11.35" fill="url(#gradient0)" fill-rule="evenodd" stroke="none"/>
    <path d="M3.0 9.4 L4.9 10.05" fill="none" stroke="#252525" stroke-linecap="round" stroke-linejoin="round" stroke-width="1.0"/>
    <path d="M5.5 2.5 L7.0 1.9 M8.4 2.85 L10.1 2.2" fill="none" stroke="#101010" stroke-linecap="round" stroke-linejoin="round" stroke-width="1.0"/>
    <path d="M17.2 8.05 L17.25 7.1 Q17.15 5.2 15.55 3.35 L15.2 3.0 12.3 5.1 12.6 5.7 13.05 7.0 17.2 8.05 17.15 9.1 16.65 9.1 Q16.7 12.15 15.95 15.25 15.2 16.6 13.95 16.85 12.25 17.35 10.45 16.5 L10.05 16.3 9.0 16.15 7.35 15.6 6.55 15.25 Q5.65 14.75 4.85 14.05 3.75 13.05 3.85 11.8 L2.15 11.05 1.4 8.8 1.2 8.2 Q0.9 6.2 1.25 5.15 L2.15 3.75 Q3.45 2.0 5.6 1.3 L11.1 0.85 Q13.7 1.6 15.2 3.0 M1.25 5.15 Q4.3 3.75 6.35 3.9 L10.2 4.75 12.6 5.7 10.2 7.2 12.25 7.55 12.5 9.2 16.65 9.1 M12.5 9.2 L11.85 10.05 8.7 9.95 8.55 13.15 Q8.85 15.0 10.05 16.3 M3.85 11.8 L4.9 12.25 6.05 12.75 6.8 11.35 7.55 9.95 8.7 9.95 M1.4 8.8 L3.4 6.35 5.6 6.35 10.2 7.2 M9.0 16.15 L6.8 11.35 M6.55 15.25 L4.9 12.25" fill="none" stroke="#000000" stroke-linecap="round" stroke-linejoin="round" stroke-width="1.0"/>
    <path d="M14.3 11.35 L14.95 11.25 15.2 11.0 14.95 10.7 14.3 10.5 13.6 10.55 13.3 10.85 13.6 11.15 14.3 11.35 Z" fill="none" stroke="#090909" stroke-linecap="round" stroke-linejoin="round" stroke-width="1.0"/>
    <path d="M14.35 10.8 L14.5 11.1 14.7 11.2 14.9 11.1 15.0 10.8 15.05 11.0 14.95 11.25 14.65 11.35 14.35 11.25 14.25 11.0 14.35 10.75 14.35 10.8" fill="#ffffff" fill-rule="evenodd" stroke="none"/>
    <path d="M13.75 1.1 Q15.05 1.65 16.0 2.95 17.55 4.75 17.85 6.55 L17.4 9.6 17.4 18.0 16.1 22.9 Q14.4 20.2 11.75 19.35 7.9 18.25 4.2 19.35 3.55 16.35 -0.05 13.4 L0.25 11.95 0.6 11.3 0.6 6.8 Q0.45 5.15 1.6 3.9 L3.85 1.85 Q5.0 1.0 6.55 0.4 L10.15 0.2 Q12.35 0.5 13.75 1.1" fill="#2c2c2c" fill-opacity="0.49803922" fill-rule="evenodd" stroke="none"/>
    <path d="M0.6 11.3 Q4.4 12.4 6.55 15.25 12.75 11.85 15.45 14.85 16.25 12.5 17.4 12.5 L17.4 18.0 16.1 22.9 Q14.4 20.2 11.75 19.35 7.9 18.25 4.2 19.35 3.55 16.35 -0.05 13.4 L0.25 11.95 0.6 11.3" fill="#000000" fill-opacity="0.24705882" fill-rule="evenodd" stroke="none"/>
    <path d="M1.55 14.85 Q4.65 10.7 7.75 5.7 L10.7 0.8 10.9 0.25 7.75 4.5 Q4.0 9.45 0.2 13.5 M11.55 0.5 L10.95 0.35 12.4 1.3 12.3 1.15 11.55 0.5 11.45 0.4 Q16.15 3.5 17.75 7.0 M12.55 19.6 L12.5 15.5 Q12.25 8.25 10.95 0.35 L10.9 0.25 10.9 0.35 Q11.25 8.25 11.05 15.5 L10.95 19.15 M12.4 1.3 L12.8 1.7 12.3 1.15 M17.55 8.55 Q16.05 5.05 12.8 1.7 16.0 6.05 17.4 11.6 M0.6 9.05 Q3.25 6.3 7.75 2.7 L10.9 0.25 Q9.25 1.2 7.75 2.1 3.05 4.9 0.6 6.8 M1.0 4.75 L7.0 0.65 M1.2 5.45 Q4.6 2.7 7.75 1.15 L9.5 0.35 M6.95 18.85 L7.95 15.5 Q9.9 8.25 10.9 0.25 9.4 5.95 7.75 10.2 5.9 15.0 3.8 18.0 M14.3 20.8 L14.0 15.5 Q13.3 8.0 10.95 0.35 14.6 7.2 15.45 14.95 L15.55 15.5 Q16.2 17.95 17.1 19.15 M12.4 1.3 Q15.6 7.9 17.1 15.5 L17.15 15.8 M10.9 0.25 L0.6 11.3 M10.9 0.25 L9.05 18.9 M2.8 16.35 Q5.25 12.75 7.75 7.45 L10.7 0.8" ffdec:has-small-stroke="true" ffdec:original-stroke-width="0.5" fill="none" stroke="#000000" stroke-linecap="round" stroke-linejoin="round" stroke-opacity="0.24705882" stroke-width="1.0"/>
    <path d="M10.9 0.25 L11.45 0.4 M3.85 1.85 Q8.25 1.4 10.2 3.25 12.05 2.7 14.95 3.7 15.65 3.15 16.5 3.55 M5.4 0.85 Q9.15 0.7 10.6 2.25 12.35 1.65 14.75 2.55 L15.75 2.55 M14.75 1.7 Q12.85 0.55 11.0 1.3 9.6 -0.2 7.35 0.2 M0.7 5.6 Q5.9 4.0 9.3 6.8 11.8 5.9 15.3 7.3 16.85 6.45 17.75 7.0 M0.6 9.55 Q5.3 8.8 8.15 11.1 12.05 10.05 15.5 12.25 16.5 11.0 17.4 11.6 M0.6 8.0 Q4.5 5.95 8.6 8.95 12.2 8.0 15.5 9.75 16.4 8.6 17.5 9.1 M0.6 6.8 Q5.9 5.1 8.95 7.9 12.45 7.1 15.35 8.55 16.6 7.55 17.6 8.05 M15.5 11.05 Q16.8 9.8 17.4 10.25 M1.2 4.3 Q6.1 2.9 9.6 5.6 13.05 4.9 15.2 6.2 16.35 5.2 17.7 5.95 M2.3 3.1 Q7.0 2.05 9.9 4.35 12.45 3.9 15.1 4.9 L17.25 4.8 M0.6 10.15 Q5.75 10.1 7.65 12.2 11.95 11.25 15.45 13.55 16.5 12.1 17.4 12.55 M15.1 10.9 Q11.9 9.2 8.4 10.05 3.95 7.25 0.6 9.05 M0.25 11.95 Q4.9 13.3 6.2 15.8 L6.25 15.9 6.55 15.8 Q9.75 14.95 12.3 15.8 14.1 16.45 15.55 17.85 M0.1 12.65 Q3.35 13.75 5.0 15.8 L5.8 17.0 Q12.0 15.6 15.7 19.45 M-0.05 13.4 Q2.25 14.45 3.55 15.8 4.6 17.0 5.0 18.35 11.75 16.45 15.85 21.0 L17.4 18.0 M15.85 17.9 L17.3 15.8 17.4 15.55 M0.6 11.3 Q4.1 12.1 6.85 14.55 11.15 13.1 14.75 15.8 L15.5 16.45 15.95 15.8 17.4 14.6 M0.6 10.85 Q4.55 11.0 7.3 13.4 12.25 12.1 15.45 14.95 16.75 13.3 17.4 13.75 M15.85 19.85 L17.4 16.85" ffdec:has-small-stroke="true" ffdec:original-stroke-width="0.5" fill="none" stroke="#000000" stroke-linecap="round" stroke-linejoin="round" stroke-opacity="0.24705882" stroke-width="1.0"/>
    <path d="M15.5 10.5 Q15.15 15.6 16.0 22.05 L16.1 22.9 M4.2 19.35 Q5.5 18.1 6.15 16.1 L7.5 12.9" fill="none" stroke="#000000" stroke-linecap="round" stroke-linejoin="round" stroke-opacity="0.49803922" stroke-width="1.0"/>
    <path d="M17.4 9.6 L17.4 18.0 16.1 22.9 Q14.4 20.2 11.75 19.35 7.9 18.25 4.2 19.35 3.55 16.35 -0.05 13.4 L0.25 11.95 0.6 11.3 0.6 6.8 Q0.45 5.15 1.6 3.9 L3.85 1.85 Q4.9 1.05 6.35 0.5 L6.55 0.4 10.15 0.2 11.85 0.5 13.75 1.1 Q15.05 1.65 16.0 2.95 17.55 4.75 17.85 6.55 L17.4 9.6 Z" fill="none" stroke="#070707" stroke-linecap="round" stroke-linejoin="round" stroke-opacity="0.84705883" stroke-width="1.0"/>
  </g>
  <defs>
    <radialGradient cx="0" cy="0" gradientTransform="matrix(0.0032, 0.0122, -0.0086, 0.0023, 10.15, 12.9)" gradientUnits="userSpaceOnUse" id="gradient0" r="819.2" spreadMethod="pad">
      <stop offset="0.0" stop-color="#000000"/>
      <stop offset="1.0" stop-color="#2e2e2e"/>
      <stop offset="1.0" stop-color="#1e1e1e"/>
    </radialGradient>
  </defs>
</svg>
