<?xml version="1.0" encoding="UTF-8" standalone="no"?>
<svg xmlns:ffdec="https://www.free-decompiler.com/flash" xmlns:xlink="http://www.w3.org/1999/xlink" ffdec:objectType="shape" height="53.2px" width="40.25px" xmlns="http://www.w3.org/2000/svg">
  <g transform="matrix(1.0, 0.0, 0.0, 1.0, 5.15, 29.5)">
    <path d="M12.05 -26.15 Q14.45 -29.0 17.8 -29.5 18.7 -24.1 23.45 -20.7 28.15 -17.15 33.55 -17.8 35.8 -12.9 34.8 -7.15 33.75 -1.45 32.45 1.3 31.1 4.0 30.35 6.55 26.7 5.9 24.75 7.0 23.35 7.65 22.5 8.85 21.65 10.1 21.7 11.5 21.8 12.35 22.4 13.65 L23.25 15.65 Q23.7 17.75 22.6 19.9 21.55 21.95 19.4 22.95 17.55 23.85 15.3 23.7 13.05 23.55 11.0 22.4 L8.35 20.8 Q6.8 19.9 5.55 19.75 L2.65 19.55 Q0.9 19.4 0.2 18.4 -0.35 17.55 -0.1 14.95 0.1 12.6 -0.65 11.85 -1.15 11.45 -2.35 11.2 -3.6 10.95 -4.1 10.55 -5.15 9.85 -5.15 7.35 -4.85 3.0 -1.2 -1.2 1.2 -3.95 6.45 -7.85 7.85 -5.2 9.85 -4.65 13.95 -3.5 15.65 -7.4 17.35 -11.3 15.05 -15.35 L18.55 -15.25 Q19.3 -15.85 19.3 -16.8 19.05 -18.1 17.2 -19.35 15.45 -20.25 13.5 -20.15 11.35 -20.1 9.85 -19.05 9.25 -22.85 12.05 -26.15" fill="#ffffff" fill-opacity="0.49803922" fill-rule="evenodd" stroke="none"/>
  </g>
</svg>
