<?xml version="1.0" encoding="UTF-8" standalone="no"?>
<svg xmlns:ffdec="https://www.free-decompiler.com/flash" xmlns:xlink="http://www.w3.org/1999/xlink" ffdec:objectType="shape" height="17.6px" width="19.35px" xmlns="http://www.w3.org/2000/svg">
  <g transform="matrix(1.0, 0.0, 0.0, 1.0, 6.55, 15.75)">
    <path d="M9.1 -11.8 L7.0 -8.65 3.7 -8.75 3.55 -5.4 Q3.85 -3.45 5.1 -2.05 L5.55 -1.85 Q7.45 -0.95 9.2 -1.5 10.2 -1.7 11.2 -2.5 L11.9 -3.2 M3.7 -8.75 L2.5 -8.75 0.9 -5.8 -1.35 -6.75 -1.4 -6.8 -1.35 -6.0 Q-1.15 -5.15 -0.35 -4.45 L0.9 -3.9 2.85 -3.15 4.0 -2.25 5.1 -2.05" fill="none" stroke="#151515" stroke-linecap="round" stroke-linejoin="round" stroke-width="1.0"/>
    <path d="M6.3 -14.75 L5.85 -13.15 8.2 -10.35 8.75 -9.65 11.8 -8.05 Q12.4 -5.85 11.7 -5.7 L6.5 -5.95 4.6 -8.6 3.9 -9.7 3.85 -9.75 3.85 -9.8 3.2 -10.4 2.7 -10.65 1.75 -10.85 1.1 -10.9 0.9 -10.9 0.85 -10.9 0.8 -10.85 0.75 -10.8 0.65 -10.8 0.55 -10.8 0.4 -10.8 0.25 -10.8 0.2 -10.8 0.0 -10.8 -2.65 -10.65 -2.85 -10.65 -3.35 -10.65 -3.5 -10.65 -3.55 -10.65 -3.6 -11.75 -4.1 -13.6 -4.35 -14.4 6.3 -14.75 M4.9 -8.85 L7.1 -8.7 8.2 -10.35 7.1 -8.7 4.9 -8.85 M2.15 -13.95 L1.85 -13.95 2.15 -13.95 M-1.85 -13.95 L-2.15 -13.95 -1.85 -13.95" fill="#333333" fill-opacity="0.4" fill-rule="evenodd" stroke="none"/>
    <path d="M8.2 -10.35 L5.85 -13.15 6.3 -14.75 6.4 -15.25 Q7.8 -14.95 9.35 -13.85 L9.8 -13.55 Q10.95 -12.55 11.3 -11.2 L11.8 -8.05 8.75 -9.65 8.2 -10.35" fill="url(#gradient0)" fill-rule="evenodd" stroke="none"/>
    <path d="M3.85 -9.75 L3.9 -9.7 4.6 -8.6 4.75 -7.6 4.5 -6.35 4.25 -5.95 3.75 -5.4 3.2 -4.95 Q2.55 -4.55 1.8 -4.45 L1.4 -4.45 1.35 -4.45 0.7 -4.5 -0.9 -5.4 -1.15 -5.7 Q-1.85 -6.5 -1.85 -7.6 L-1.85 -7.7 Q-1.8 -9.0 -0.9 -9.85 0.05 -10.75 1.35 -10.8 L1.4 -10.8 Q2.8 -10.8 3.75 -9.85 L3.85 -9.75" fill="url(#gradient1)" fill-rule="evenodd" stroke="none"/>
    <path d="M0.65 -10.8 L0.75 -10.8 0.8 -10.85 0.85 -10.9 0.9 -10.9 1.1 -10.9 1.75 -10.85 2.7 -10.65 3.2 -10.4 3.85 -9.8 3.85 -9.75 3.75 -9.85 Q2.8 -10.8 1.4 -10.8 L1.35 -10.8 Q0.05 -10.75 -0.9 -9.85 -1.8 -9.0 -1.85 -7.7 L-1.85 -8.05 -1.45 -9.4 -0.5 -10.35 0.65 -10.8 M1.1 -10.9 L0.8 -10.85 1.1 -10.9 M3.2 -4.95 Q2.75 -4.6 2.15 -4.45 L1.8 -4.45 Q2.55 -4.55 3.2 -4.95 M0.7 -4.5 L0.4 -4.55 Q-0.85 -4.9 -1.15 -5.65 L-1.15 -5.7 -0.9 -5.4 0.7 -4.5" fill="url(#gradient2)" fill-rule="evenodd" stroke="none"/>
    <path d="M-3.55 -10.65 L-3.5 -10.65 -3.35 -10.65 -2.85 -10.65 -2.65 -10.65 0.0 -10.8 0.2 -10.8 0.25 -10.8 0.4 -10.8 0.55 -10.8 0.65 -10.8 -0.5 -10.35 -1.45 -9.4 -1.85 -8.05 -1.85 -7.7 -1.85 -7.6 Q-1.85 -6.5 -1.15 -5.7 L-1.15 -5.65 Q-0.85 -4.9 0.4 -4.55 L0.7 -4.5 1.35 -4.45 1.4 -4.45 1.8 -4.45 2.15 -4.45 Q2.75 -4.6 3.2 -4.95 L3.75 -5.4 4.25 -5.95 4.95 -4.55 5.7 -3.1 3.7 -0.7 5.7 -3.1 Q6.4 -2.35 6.9 -2.2 L6.95 -2.2 7.6 -1.85 Q8.7 -1.3 10.0 -0.95 L10.2 -0.85 10.45 -0.7 10.75 0.05 11.25 1.15 11.3 1.35 8.75 1.2 3.7 -0.7 3.25 -1.45 2.45 -2.6 2.15 -4.45 2.45 -2.6 3.25 -1.45 Q-0.45 -3.1 -4.45 -2.85 L-4.45 -2.9 Q-5.55 -4.0 -5.05 -6.8 L-4.45 -6.15 -3.35 -6.4 -3.55 -10.65" fill="#191919" fill-rule="evenodd" stroke="none"/>
    <path d="M4.6 -8.6 L6.5 -5.95 11.7 -5.7 12.0 -5.2 11.7 -5.7 11.95 -5.4 12.0 -5.2 Q12.5 -2.4 12.1 -1.3 L11.45 0.55 10.45 -0.7 10.35 -0.9 10.0 -0.95 Q8.7 -1.3 7.6 -1.85 L6.95 -2.2 5.7 -3.1 4.95 -4.55 4.7 -5.1 4.5 -6.35 4.75 -7.6 4.6 -8.6" fill="url(#gradient3)" fill-rule="evenodd" stroke="none"/>
    <path d="M5.7 -3.1 L6.95 -2.2 6.9 -2.2 Q6.4 -2.35 5.7 -3.1 M10.0 -0.95 L10.35 -0.9 10.45 -0.7 10.2 -0.85 10.0 -0.95" fill="url(#gradient4)" fill-rule="evenodd" stroke="none"/>
    <path d="M10.45 -0.7 L11.45 0.55 10.75 0.05 10.45 -0.7" fill="#676767" fill-rule="evenodd" stroke="none"/>
    <path d="M-4.1 -13.6 L-3.6 -11.75 -3.55 -10.65 -3.35 -6.4 -4.45 -6.15 -5.55 -7.45 Q-6.4 -10.85 -5.8 -14.55 L-4.65 -15.25 -4.1 -13.6" fill="url(#gradient5)" fill-rule="evenodd" stroke="none"/>
    <path d="M-4.35 -14.4 L-4.1 -13.6 -4.65 -15.25 -4.35 -14.4 M-4.45 -6.15 L-5.05 -6.8 -5.55 -7.45 -4.45 -6.15" fill="url(#gradient6)" fill-rule="evenodd" stroke="none"/>
    <path d="M1.85 -13.95 L2.15 -13.95 M-2.15 -13.95 L-1.85 -13.95" fill="none" stroke="#151515" stroke-linecap="round" stroke-linejoin="round" stroke-width="1.0"/>
    <path d="M6.3 -14.75 L-4.35 -14.4 M4.6 -8.6 L6.5 -5.95 11.7 -5.7 11.95 -5.4 12.0 -5.2 Q12.5 -2.4 12.1 -1.3 L11.45 0.55 M8.2 -10.35 L7.1 -8.7 4.9 -8.85" fill="none" stroke="#0e0e0e" stroke-linecap="round" stroke-linejoin="round" stroke-width="1.0"/>
    <path d="M-3.35 -10.65 L-2.85 -10.65 -2.65 -10.65 0.0 -10.8 0.2 -10.8 0.25 -10.8 0.4 -10.8 0.55 -10.8 0.65 -10.8 0.75 -10.8 0.8 -10.85 0.85 -10.9 0.9 -10.9 1.1 -10.9 1.75 -10.85 2.7 -10.65 3.2 -10.4 3.85 -9.8 3.85 -9.75 3.75 -9.85 Q2.8 -10.8 1.4 -10.8 L1.35 -10.8 Q0.05 -10.75 -0.9 -9.85 -1.8 -9.0 -1.85 -7.7 L-1.85 -8.05 -1.45 -9.4 -0.5 -10.35 0.65 -10.8 M0.8 -10.85 L1.1 -10.9 M4.95 -4.55 L5.7 -3.1 6.95 -2.2 7.6 -1.85 Q8.7 -1.3 10.0 -0.95 L10.35 -0.9 10.45 -0.7 M4.25 -5.95 L3.75 -5.4 3.2 -4.95 Q2.75 -4.6 2.15 -4.45 L2.45 -2.6 3.25 -1.45 3.7 -0.7 5.7 -3.1 M4.25 -5.95 L4.95 -4.55 M0.7 -4.5 L0.4 -4.55 Q-0.85 -4.9 -1.15 -5.65 L-1.15 -5.7 Q-1.85 -6.5 -1.85 -7.6 L-1.85 -7.7 M1.8 -4.45 L1.4 -4.45 1.35 -4.45 0.7 -4.5 -0.9 -5.4 -1.15 -5.7 M2.15 -4.45 L1.8 -4.45 Q2.55 -4.55 3.2 -4.95 M4.5 -6.35 L4.25 -5.95 M11.45 0.55 L11.25 1.15 11.3 1.35 8.75 1.2 3.7 -0.7 M10.75 0.05 L11.25 1.15 M-5.05 -6.8 Q-5.55 -4.0 -4.45 -2.9 L-4.45 -2.85 Q-0.45 -3.1 3.25 -1.45" fill="none" stroke="#0f0f0f" stroke-linecap="round" stroke-linejoin="round" stroke-width="1.0"/>
    <path d="M12.0 -5.2 L11.7 -5.7" fill="none" stroke="#0e0e0e" stroke-linecap="round" stroke-linejoin="round" stroke-opacity="0.4" stroke-width="1.0"/>
    <path d="M10.45 -0.7 L10.75 0.05" fill="none" stroke="#0f0f0f" stroke-linecap="round" stroke-linejoin="round" stroke-width="1.0"/>
    <path d="M4.6 -8.6 L4.75 -7.6 4.5 -6.35" fill="none" stroke="#0f0f0f" stroke-linecap="round" stroke-linejoin="round" stroke-width="1.0"/>
    <path d="M3.9 -9.7 L4.6 -8.6" fill="none" stroke="#0f0f0f" stroke-linecap="round" stroke-linejoin="round" stroke-width="1.0"/>
    <path d="M-5.8 -14.55 L-4.65 -15.25 -3.55 -11.8 -3.35 -6.4 -4.45 -6.15 -5.55 -7.45 Q-6.4 -10.85 -5.8 -14.55 Z" fill="none" stroke="#0e0e0e" stroke-linecap="round" stroke-linejoin="round" stroke-width="1.0"/>
    <path d="M6.4 -15.25 Q7.8 -14.95 9.35 -13.85 L9.8 -13.55 Q10.95 -12.55 11.3 -11.2 L11.8 -8.05 8.75 -9.65 5.85 -13.15 6.4 -15.25 Z" fill="none" stroke="#0e0e0e" stroke-linecap="round" stroke-linejoin="round" stroke-width="1.0"/>
  </g>
  <defs>
    <radialGradient cx="0" cy="0" gradientTransform="matrix(0.0071, 0.0, 0.0, 0.0071, 10.95, -11.6)" gradientUnits="userSpaceOnUse" id="gradient0" r="819.2" spreadMethod="pad">
      <stop offset="0.0" stop-color="#333333"/>
      <stop offset="1.0" stop-color="#1c1c1c"/>
    </radialGradient>
    <radialGradient cx="0" cy="0" gradientTransform="matrix(0.0052, 0.0, 0.0, 0.0052, 1.75, -7.5)" gradientUnits="userSpaceOnUse" id="gradient1" r="819.2" spreadMethod="pad">
      <stop offset="0.0" stop-color="#333333"/>
      <stop offset="1.0" stop-color="#171717"/>
    </radialGradient>
    <radialGradient cx="0" cy="0" gradientTransform="matrix(0.0045, 0.0, 0.0, 0.0048, 1.25, -7.65)" gradientUnits="userSpaceOnUse" id="gradient2" r="819.2" spreadMethod="pad">
      <stop offset="0.0" stop-color="#595959"/>
      <stop offset="1.0" stop-color="#737373"/>
      <stop offset="1.0" stop-color="#595959"/>
    </radialGradient>
    <radialGradient cx="0" cy="0" gradientTransform="matrix(0.0076, 0.0, 0.0, 0.0076, 8.2, -4.2)" gradientUnits="userSpaceOnUse" id="gradient3" r="819.2" spreadMethod="pad">
      <stop offset="0.0" stop-color="#333333"/>
      <stop offset="1.0" stop-color="#1f1f1f"/>
      <stop offset="1.0" stop-color="#1f1f1f"/>
    </radialGradient>
    <radialGradient cx="0" cy="0" gradientTransform="matrix(0.0174, -0.0032, 0.0025, 0.0188, 9.1, -12.4)" gradientUnits="userSpaceOnUse" id="gradient4" r="819.2" spreadMethod="pad">
      <stop offset="0.0" stop-color="#ffffff"/>
      <stop offset="1.0" stop-color="#999999"/>
    </radialGradient>
    <radialGradient cx="0" cy="0" gradientTransform="matrix(0.0063, 0.0, 0.0, 0.0063, -5.85, -10.95)" gradientUnits="userSpaceOnUse" id="gradient5" r="819.2" spreadMethod="pad">
      <stop offset="0.0" stop-color="#333333"/>
      <stop offset="1.0" stop-color="#1c1c1c"/>
    </radialGradient>
    <radialGradient cx="0" cy="0" gradientTransform="matrix(0.0076, 0.0, 0.0, 0.0076, -4.35, -9.0)" gradientUnits="userSpaceOnUse" id="gradient6" r="819.2" spreadMethod="pad">
      <stop offset="0.0" stop-color="#1d2936"/>
      <stop offset="1.0" stop-color="#181d24"/>
    </radialGradient>
  </defs>
</svg>
