<?xml version="1.0" encoding="UTF-8" standalone="no"?>
<svg xmlns:ffdec="https://www.free-decompiler.com/flash" xmlns:xlink="http://www.w3.org/1999/xlink" ffdec:objectType="shape" height="57.75px" width="36.8px" xmlns="http://www.w3.org/2000/svg">
  <g transform="matrix(1.0, 0.0, 0.0, 1.0, 6.65, 33.65)">
    <path d="M17.95 -31.3 L16.8 -30.5 16.9 -33.3 19.6 -33.6 19.0 -32.45 17.95 -31.3 M20.15 -0.75 Q21.25 0.0 22.2 -0.45 L22.2 -2.45 Q26.1 2.5 27.0 6.3 27.65 9.05 27.0 11.55 26.4 14.2 24.5 15.75 21.75 17.3 20.65 18.35 L19.3 19.95 17.85 21.65 Q16.45 22.65 13.45 22.65 9.45 22.5 8.6 22.7 L6.1 23.65 3.6 24.05 Q0.1 23.95 -1.3 16.95 L1.55 17.15 Q2.9 16.8 3.9 15.95 6.05 13.55 5.05 10.65 3.15 11.6 0.8 11.25 -1.25 10.9 -2.8 9.5 -6.3 6.5 -6.55 2.0 -7.15 -2.65 -4.3 -6.95 -1.7 -10.95 2.05 -12.7 L2.8 -12.35 Q7.25 -9.7 12.85 -10.45 18.85 -11.25 22.65 -15.35 21.05 -15.7 19.4 -17.2 24.15 -17.8 26.4 -19.05 28.0 -20.05 28.9 -21.6 30.0 -23.25 29.8 -24.9 31.1 -20.15 27.4 -14.8 L24.1 -10.75 20.65 -6.8 Q18.8 -4.3 19.0 -2.65 19.1 -1.45 20.15 -0.75" fill="#ffffff" fill-opacity="0.49803922" fill-rule="evenodd" stroke="none"/>
  </g>
</svg>
