<?xml version="1.0" encoding="UTF-8" standalone="no"?>
<svg xmlns:ffdec="https://www.free-decompiler.com/flash" xmlns:xlink="http://www.w3.org/1999/xlink" ffdec:objectType="shape" height="14.05px" width="17.6px" xmlns="http://www.w3.org/2000/svg">
  <g transform="matrix(1.0, 0.0, 0.0, 1.0, 5.0, 17.5)">
    <path d="M-0.7 -8.95 Q-3.1 -11.75 -3.6 -12.7 -4.15 -13.75 -4.35 -14.9 -4.6 -16.1 -2.45 -16.9 -0.3 -17.7 5.3 -16.85 8.75 -16.35 10.3 -15.35 11.25 -14.75 11.5 -13.95 L12.3 -9.9 12.6 -5.35 11.9 -4.65 Q10.9 -3.85 9.9 -3.65 8.15 -3.1 6.25 -4.0 L5.8 -4.2 Q4.55 -5.6 4.25 -7.55 L4.4 -10.85 7.7 -10.8 9.8 -13.95 10.3 -15.35 2.5 -14.75 3.2 -10.9 2.4 -9.45 1.6 -7.95 -0.65 -8.9 -0.7 -8.95" fill="url(#gradient0)" fill-rule="evenodd" stroke="none"/>
    <path d="M5.8 -4.2 L4.7 -4.4 2.4 -9.45 3.2 -10.9 4.4 -10.9 4.4 -10.85 4.25 -7.55 Q4.55 -5.6 5.8 -4.2 M-0.65 -8.15 L-0.7 -8.95 -0.65 -8.9 -0.65 -8.15" fill="#1e1e1e" fill-rule="evenodd" stroke="none"/>
    <path d="M4.7 -4.4 L3.55 -5.3 1.6 -6.05 0.35 -6.6 Q-0.45 -7.3 -0.65 -8.15 L-0.65 -8.9 1.6 -7.95 2.4 -9.45 4.7 -4.4" fill="#252525" fill-rule="evenodd" stroke="none"/>
    <path d="M4.4 -10.9 Q2.6 -8.6 -1.3 -9.6 -8.95 -17.5 -0.7 -17.5 7.55 -17.6 10.3 -15.35 L9.8 -13.95 7.7 -10.8 4.4 -10.9" fill="url(#gradient1)" fill-rule="evenodd" stroke="none"/>
  </g>
  <defs>
    <linearGradient gradientTransform="matrix(0.0087, 0.0, 0.0, 0.0093, 5.75, -11.15)" gradientUnits="userSpaceOnUse" id="gradient0" spreadMethod="pad" x1="-819.2" x2="819.2">
      <stop offset="0.0" stop-color="#333333"/>
      <stop offset="1.0" stop-color="#000000"/>
    </linearGradient>
    <radialGradient cx="0" cy="0" gradientTransform="matrix(0.0101, 0.0, 0.0, 0.0101, 2.6, -13.3)" gradientUnits="userSpaceOnUse" id="gradient1" r="819.2" spreadMethod="pad">
      <stop offset="0.0" stop-color="#cccccc"/>
      <stop offset="0.0" stop-color="#cccccc"/>
      <stop offset="0.0" stop-color="#333333"/>
      <stop offset="1.0" stop-color="#1f1f1f"/>
    </radialGradient>
  </defs>
</svg>
