<?xml version="1.0" encoding="UTF-8" standalone="no"?>
<svg xmlns:ffdec="https://www.free-decompiler.com/flash" xmlns:xlink="http://www.w3.org/1999/xlink" ffdec:objectType="shape" height="17.6px" width="19.35px" xmlns="http://www.w3.org/2000/svg">
  <g transform="matrix(1.0, 0.0, 0.0, 1.0, 5.85, 17.9)">
    <path d="M4.4 -10.9 L3.2 -10.9 1.6 -7.95 -0.65 -8.9 -0.7 -8.95 -0.65 -8.15 Q-0.45 -7.3 0.35 -6.6 L1.6 -6.05 3.55 -5.3 4.7 -4.4 5.8 -4.2 Q4.55 -5.6 4.25 -7.55 L4.4 -10.9 7.7 -10.8 9.8 -13.95 M5.8 -4.2 L6.25 -4.0 Q8.15 -3.1 9.9 -3.65 10.9 -3.85 11.9 -4.65 L12.6 -5.35" fill="none" stroke="#151515" stroke-linecap="round" stroke-linejoin="round" stroke-width="1.0"/>
    <path d="M7.0 -16.9 L7.1 -17.4 Q8.5 -17.1 10.05 -16.0 L10.5 -15.7 Q11.65 -14.7 12.0 -13.35 L12.5 -10.2 9.45 -11.8 8.9 -12.5 6.55 -15.3 7.0 -16.9" fill="url(#gradient0)" fill-rule="evenodd" stroke="none"/>
    <path d="M12.5 -10.2 Q13.1 -8.0 12.4 -7.85 L7.2 -8.1 5.3 -10.75 4.6 -11.85 4.55 -11.9 4.55 -11.95 3.9 -12.55 3.4 -12.8 2.45 -13.0 1.8 -13.05 1.6 -13.05 1.55 -13.05 1.5 -13.0 1.45 -12.95 1.35 -12.95 1.25 -12.95 1.1 -12.95 0.95 -12.95 0.9 -12.95 0.7 -12.95 -1.95 -12.8 -2.15 -12.8 -2.65 -12.8 -2.8 -12.8 -2.85 -12.8 -2.9 -13.9 -3.4 -15.75 -3.65 -16.55 7.0 -16.9 6.55 -15.3 8.9 -12.5 9.45 -11.8 12.5 -10.2 M2.85 -16.1 L2.55 -16.1 2.85 -16.1 M8.9 -12.5 L7.8 -10.85 5.6 -11.0 7.8 -10.85 8.9 -12.5 M-1.15 -16.1 L-1.45 -16.1 -1.15 -16.1" fill="#333333" fill-opacity="0.4" fill-rule="evenodd" stroke="none"/>
    <path d="M11.95 -1.0 L12.0 -0.8 9.45 -0.95 4.4 -2.85 3.95 -3.6 Q0.25 -5.25 -3.75 -5.0 L-3.75 -5.05 Q-4.85 -6.15 -4.35 -8.95 L-3.75 -8.3 -2.65 -8.55 -2.85 -12.8 -2.8 -12.8 -2.65 -12.8 -2.15 -12.8 -1.95 -12.8 0.7 -12.95 0.9 -12.95 0.95 -12.95 1.1 -12.95 1.25 -12.95 1.35 -12.95 0.2 -12.5 -0.75 -11.55 -1.15 -10.2 -1.15 -9.85 -1.15 -9.75 Q-1.15 -8.65 -0.45 -7.85 L-0.45 -7.8 Q-0.15 -7.05 1.1 -6.7 L1.4 -6.65 2.05 -6.6 2.1 -6.6 2.5 -6.6 2.85 -6.6 3.9 -7.1 4.45 -7.55 4.95 -8.1 5.65 -6.7 6.4 -5.25 7.6 -4.35 7.65 -4.35 8.3 -4.0 10.7 -3.1 10.9 -3.0 11.15 -2.85 11.45 -2.1 11.95 -1.0 M3.95 -3.6 L3.15 -4.75 2.85 -6.6 3.15 -4.75 3.95 -3.6 M4.4 -2.85 L6.4 -5.25 4.4 -2.85" fill="#191919" fill-rule="evenodd" stroke="none"/>
    <path d="M1.35 -12.95 L1.45 -12.95 1.5 -13.0 1.55 -13.05 1.6 -13.05 1.8 -13.05 2.45 -13.0 3.4 -12.8 3.9 -12.55 4.55 -11.95 4.55 -11.9 4.45 -12.0 Q3.5 -12.95 2.1 -12.95 L2.05 -12.95 Q0.75 -12.9 -0.2 -12.0 -1.1 -11.15 -1.15 -9.85 L-1.15 -10.2 -0.75 -11.55 0.2 -12.5 1.35 -12.95 M1.8 -13.05 L1.5 -13.0 1.8 -13.05 M1.4 -6.65 L1.1 -6.7 Q-0.15 -7.05 -0.45 -7.8 L-0.45 -7.85 -0.2 -7.55 1.4 -6.65 M3.9 -7.1 L2.85 -6.6 2.5 -6.6 Q3.25 -6.7 3.9 -7.1" fill="url(#gradient1)" fill-rule="evenodd" stroke="none"/>
    <path d="M4.55 -11.9 L4.6 -11.85 5.3 -10.75 5.45 -9.75 5.2 -8.5 4.95 -8.1 4.45 -7.55 3.9 -7.1 Q3.25 -6.7 2.5 -6.6 L2.1 -6.6 2.05 -6.6 1.4 -6.65 -0.2 -7.55 -0.45 -7.85 Q-1.15 -8.65 -1.15 -9.75 L-1.15 -9.85 Q-1.1 -11.15 -0.2 -12.0 0.75 -12.9 2.05 -12.95 L2.1 -12.95 Q3.5 -12.95 4.45 -12.0 L4.55 -11.9" fill="url(#gradient2)" fill-rule="evenodd" stroke="none"/>
    <path d="M12.4 -7.85 L12.65 -7.55 12.7 -7.35 Q13.2 -4.55 12.8 -3.45 L12.15 -1.6 11.15 -2.85 11.05 -3.05 10.7 -3.1 8.3 -4.0 7.65 -4.35 6.4 -5.25 5.65 -6.7 5.4 -7.25 5.2 -8.5 5.45 -9.75 5.3 -10.75 7.2 -8.1 12.4 -7.85 12.7 -7.35 12.4 -7.85" fill="url(#gradient3)" fill-rule="evenodd" stroke="none"/>
    <path d="M6.4 -5.25 L7.65 -4.35 7.6 -4.35 6.4 -5.25 M10.7 -3.1 L11.05 -3.05 11.15 -2.85 10.9 -3.0 10.7 -3.1" fill="url(#gradient4)" fill-rule="evenodd" stroke="none"/>
    <path d="M11.15 -2.85 L12.15 -1.6 Q11.6 -2.25 11.45 -2.1 L11.15 -2.85" fill="#676767" fill-rule="evenodd" stroke="none"/>
    <path d="M-4.35 -8.95 L-4.85 -9.6 -3.75 -8.3 -4.35 -8.95 M-3.95 -17.4 L-3.65 -16.55 -3.4 -15.75 -3.95 -17.4" fill="url(#gradient5)" fill-rule="evenodd" stroke="none"/>
    <path d="M-4.85 -9.6 Q-5.7 -13.0 -5.1 -16.7 L-3.95 -17.4 -3.4 -15.75 -2.9 -13.9 -2.85 -12.8 -2.65 -8.55 -3.75 -8.3 -4.85 -9.6" fill="url(#gradient6)" fill-rule="evenodd" stroke="none"/>
    <path d="M2.55 -16.1 L2.85 -16.1 M-1.45 -16.1 L-1.15 -16.1" fill="none" stroke="#151515" stroke-linecap="round" stroke-linejoin="round" stroke-width="1.0"/>
    <path d="M12.15 -1.6 L11.95 -1.0 12.0 -0.8 9.45 -0.95 4.4 -2.85 3.95 -3.6 Q0.25 -5.25 -3.75 -5.0 L-3.75 -5.05 Q-4.85 -6.15 -4.35 -8.95 M-2.65 -12.8 L-2.15 -12.8 -1.95 -12.8 0.7 -12.95 0.9 -12.95 0.95 -12.95 1.1 -12.95 1.25 -12.95 1.35 -12.95 1.45 -12.95 1.5 -13.0 1.55 -13.05 1.6 -13.05 1.8 -13.05 2.45 -13.0 3.4 -12.8 3.9 -12.55 4.55 -11.95 4.55 -11.9 4.45 -12.0 Q3.5 -12.95 2.1 -12.95 L2.05 -12.95 Q0.75 -12.9 -0.2 -12.0 -1.1 -11.15 -1.15 -9.85 L-1.15 -10.2 -0.75 -11.55 0.2 -12.5 1.35 -12.95 M1.5 -13.0 L1.8 -13.05 M5.65 -6.7 L6.4 -5.25 7.65 -4.35 8.3 -4.0 10.7 -3.1 11.05 -3.05 11.15 -2.85 M11.45 -2.1 L11.95 -1.0 M1.4 -6.65 L1.1 -6.7 Q-0.15 -7.05 -0.45 -7.8 L-0.45 -7.85 Q-1.15 -8.65 -1.15 -9.75 L-1.15 -9.85 M2.5 -6.6 L2.1 -6.6 2.05 -6.6 1.4 -6.65 -0.2 -7.55 -0.45 -7.85 M4.95 -8.1 L4.45 -7.55 3.9 -7.1 2.85 -6.6 3.15 -4.75 3.95 -3.6 M3.9 -7.1 Q3.25 -6.7 2.5 -6.6 L2.85 -6.6 M4.95 -8.1 L5.65 -6.7 M5.2 -8.5 L4.95 -8.1 M6.4 -5.25 L4.4 -2.85" fill="none" stroke="#0f0f0f" stroke-linecap="round" stroke-linejoin="round" stroke-width="1.0"/>
    <path d="M12.4 -7.85 L12.65 -7.55 12.7 -7.35 Q13.2 -4.55 12.8 -3.45 L12.15 -1.6 M-3.65 -16.55 L7.0 -16.9 M5.3 -10.75 L7.2 -8.1 12.4 -7.85 M5.6 -11.0 L7.8 -10.85 8.9 -12.5" fill="none" stroke="#0e0e0e" stroke-linecap="round" stroke-linejoin="round" stroke-width="1.0"/>
    <path d="M12.4 -7.85 L12.7 -7.35" fill="none" stroke="#0e0e0e" stroke-linecap="round" stroke-linejoin="round" stroke-opacity="0.4" stroke-width="1.0"/>
    <path d="M11.15 -2.85 L11.45 -2.1" fill="none" stroke="#0f0f0f" stroke-linecap="round" stroke-linejoin="round" stroke-width="1.0"/>
    <path d="M5.3 -10.75 L5.45 -9.75 5.2 -8.5" fill="none" stroke="#0f0f0f" stroke-linecap="round" stroke-linejoin="round" stroke-width="1.0"/>
    <path d="M4.6 -11.85 L5.3 -10.75" fill="none" stroke="#0f0f0f" stroke-linecap="round" stroke-linejoin="round" stroke-width="1.0"/>
    <path d="M-5.1 -16.7 L-3.95 -17.4 -2.85 -13.95 -2.65 -8.55 -3.75 -8.3 -4.85 -9.6 Q-5.7 -13.0 -5.1 -16.7 Z" fill="none" stroke="#0e0e0e" stroke-linecap="round" stroke-linejoin="round" stroke-width="1.0"/>
    <path d="M7.1 -17.4 Q8.5 -17.1 10.05 -16.0 L10.5 -15.7 Q11.65 -14.7 12.0 -13.35 L12.5 -10.2 9.45 -11.8 6.55 -15.3 7.1 -17.4 Z" fill="none" stroke="#0e0e0e" stroke-linecap="round" stroke-linejoin="round" stroke-width="1.0"/>
  </g>
  <defs>
    <radialGradient cx="0" cy="0" gradientTransform="matrix(0.0071, 0.0, 0.0, 0.0071, 11.65, -13.75)" gradientUnits="userSpaceOnUse" id="gradient0" r="819.2" spreadMethod="pad">
      <stop offset="0.0" stop-color="#333333"/>
      <stop offset="1.0" stop-color="#1c1c1c"/>
    </radialGradient>
    <radialGradient cx="0" cy="0" gradientTransform="matrix(0.0045, 0.0, 0.0, 0.0048, 1.95, -9.8)" gradientUnits="userSpaceOnUse" id="gradient1" r="819.2" spreadMethod="pad">
      <stop offset="0.0" stop-color="#595959"/>
      <stop offset="1.0" stop-color="#737373"/>
      <stop offset="1.0" stop-color="#595959"/>
    </radialGradient>
    <radialGradient cx="0" cy="0" gradientTransform="matrix(0.0052, 0.0, 0.0, 0.0052, 2.45, -9.65)" gradientUnits="userSpaceOnUse" id="gradient2" r="819.2" spreadMethod="pad">
      <stop offset="0.0" stop-color="#333333"/>
      <stop offset="1.0" stop-color="#171717"/>
    </radialGradient>
    <radialGradient cx="0" cy="0" gradientTransform="matrix(0.0076, 0.0, 0.0, 0.0076, 8.9, -6.35)" gradientUnits="userSpaceOnUse" id="gradient3" r="819.2" spreadMethod="pad">
      <stop offset="0.0" stop-color="#333333"/>
      <stop offset="1.0" stop-color="#1f1f1f"/>
      <stop offset="1.0" stop-color="#1f1f1f"/>
    </radialGradient>
    <radialGradient cx="0" cy="0" gradientTransform="matrix(0.0174, -0.0032, 0.0025, 0.0188, 9.8, -14.55)" gradientUnits="userSpaceOnUse" id="gradient4" r="819.2" spreadMethod="pad">
      <stop offset="0.0" stop-color="#ffffff"/>
      <stop offset="1.0" stop-color="#999999"/>
    </radialGradient>
    <radialGradient cx="0" cy="0" gradientTransform="matrix(0.0076, 0.0, 0.0, 0.0076, -3.65, -11.15)" gradientUnits="userSpaceOnUse" id="gradient5" r="819.2" spreadMethod="pad">
      <stop offset="0.0" stop-color="#1d2936"/>
      <stop offset="1.0" stop-color="#181d24"/>
    </radialGradient>
    <radialGradient cx="0" cy="0" gradientTransform="matrix(0.0063, 0.0, 0.0, 0.0063, -5.15, -13.1)" gradientUnits="userSpaceOnUse" id="gradient6" r="819.2" spreadMethod="pad">
      <stop offset="0.0" stop-color="#333333"/>
      <stop offset="1.0" stop-color="#1c1c1c"/>
    </radialGradient>
  </defs>
</svg>
