<?xml version="1.0" encoding="UTF-8" standalone="no"?>
<svg xmlns:ffdec="https://www.free-decompiler.com/flash" xmlns:xlink="http://www.w3.org/1999/xlink" ffdec:objectType="shape" height="60.7px" width="33.2px" xmlns="http://www.w3.org/2000/svg">
  <g transform="matrix(1.0, 0.0, 0.0, 1.0, 7.5, 39.55)">
    <path d="M12.25 -26.35 L11.95 -30.3 Q11.75 -32.45 12.5 -34.15 13.4 -36.2 15.1 -36.6 14.45 -33.3 17.85 -29.8 21.85 -26.45 23.35 -24.5 25.35 -21.95 25.65 -18.55 26.0 -15.05 24.45 -12.25 L21.65 -7.55 Q20.15 -4.85 20.8 -2.85 21.2 -2.05 22.95 0.1 24.4 1.8 24.45 3.15 24.6 4.15 23.9 5.7 23.1 7.4 23.05 8.25 22.9 9.45 23.9 12.15 24.8 14.65 24.35 16.05 23.95 17.8 21.05 19.15 17.1 21.15 12.65 21.15 8.15 21.2 4.2 19.3 0.35 17.6 -0.8 14.55 -1.45 12.25 -0.35 7.85 0.85 3.2 -0.25 1.6 L-4.2 -1.1 Q-6.15 -2.8 -6.9 -4.6 -8.0 -7.25 -7.0 -10.4 -6.05 -13.35 -3.8 -15.4 -0.5 -18.4 6.85 -20.75 10.0 -21.35 11.1 -22.8 12.2 -24.15 12.25 -26.35 M1.7 -37.25 Q3.3 -39.2 3.65 -39.35 3.8 -39.55 4.2 -39.55 L4.4 -39.1 4.3 -38.55 Q4.15 -38.15 4.15 -37.5 L4.2 -36.4 Q4.4 -34.1 3.5 -31.1 L2.05 -33.0 0.55 -34.95 0.05 -35.6 0.4 -36.05 1.7 -37.25" fill="#ffffff" fill-opacity="0.49803922" fill-rule="evenodd" stroke="none"/>
  </g>
</svg>
