<?xml version="1.0" encoding="UTF-8" standalone="no"?>
<svg xmlns:ffdec="https://www.free-decompiler.com/flash" xmlns:xlink="http://www.w3.org/1999/xlink" ffdec:objectType="shape" height="19.25px" width="22.2px" xmlns="http://www.w3.org/2000/svg">
  <g transform="matrix(1.0, 0.0, 0.0, 1.0, 1.45, -0.1)">
    <path d="M13.65 16.75 L11.1 11.45 11.1 10.15 13.65 16.75 11.1 10.15 13.7 6.45 19.05 5.4 19.45 8.5 19.45 8.55 18.15 10.2 15.85 11.25 17.65 12.75 18.55 15.45 18.55 15.55 17.7 17.15 16.8 18.15 13.65 16.75 M13.25 10.3 L15.75 13.15 17.45 13.95 15.0 11.2 13.25 10.3 M19.05 5.4 L19.45 8.55 19.05 5.4 M15.85 9.8 L17.5 9.45 14.85 8.3 15.85 9.8 M18.55 15.45 L17.7 17.15 18.55 15.45" fill="#22222c" fill-rule="evenodd" stroke="none"/>
    <path d="M19.45 8.5 L19.9 7.85 19.5 10.75 19.35 12.55 19.05 13.75 19.0 14.1 18.7 16.35 18.55 15.55 18.55 15.45 17.65 12.75 15.85 11.25 18.15 10.2 19.45 8.55 Q19.6 10.8 19.35 12.55 19.6 10.8 19.45 8.55 L19.45 8.5 M13.25 10.3 L15.0 11.2 17.45 13.95 15.75 13.15 13.25 10.3 M19.0 14.1 L18.55 15.45 19.0 14.1 M15.85 9.8 L14.85 8.3 17.5 9.45 15.85 9.8" fill="#bbd6f0" fill-rule="evenodd" stroke="none"/>
    <path d="M13.65 16.75 L11.1 10.15 13.7 6.45 19.05 5.4 19.45 8.55 Q19.6 10.8 19.35 12.55 L19.1 13.8 19.0 14.1 18.55 15.45 17.7 17.15 16.8 18.15 13.65 16.75 Z" fill="none" stroke="#0c0d1c" stroke-linecap="round" stroke-linejoin="round" stroke-width="1.0"/>
    <path d="M14.45 2.85 L18.3 3.45 20.25 6.05 20.25 9.3 18.85 9.3 19.2 6.6 17.65 4.5 14.45 2.85 M11.0 12.55 L13.0 12.55 14.35 13.75 14.35 16.35 16.5 15.3 19.65 15.3 16.95 18.85 14.35 18.1 14.25 18.1 13.3 18.1 13.3 14.4 12.35 13.45 11.2 13.45 8.15 11.75 11.0 12.55 M14.35 18.1 L14.35 16.35 14.35 18.1" fill="#2f3d46" fill-rule="evenodd" stroke="none"/>
    <path d="M14.45 2.85 L17.65 4.5 19.2 6.6 18.85 9.3 12.15 7.4 10.1 10.1 11.0 12.55 8.15 11.75 11.2 13.45 12.35 13.45 13.3 14.4 13.3 18.1 8.05 17.2 4.7 12.3 7.4 11.55 4.9 8.85 5.65 6.9 2.35 3.55 8.0 4.05 10.05 5.7 7.5 2.85 14.45 2.85 M8.15 11.75 L7.4 11.55 8.15 11.75 M12.15 7.4 L10.4 6.95 10.05 5.7 10.4 6.95 12.15 7.4" fill="#253038" fill-rule="evenodd" stroke="none"/>
    <path d="M18.85 9.3 L20.25 9.3 20.25 6.05 18.3 3.45 14.45 2.85 7.5 2.85 10.05 5.7 10.4 6.95 12.15 7.4 10.1 10.1 11.0 12.55 13.0 12.55 14.35 13.75 14.35 16.35 16.5 15.3 19.65 15.3 16.95 18.85 14.35 18.1 14.25 18.1 13.3 18.1 8.05 17.2 4.7 12.3 7.4 11.55 4.9 8.85 5.65 6.9 2.35 3.55 8.0 4.05 10.05 5.7 M18.85 9.3 L12.15 7.4 M7.4 11.55 L8.15 11.75 11.0 12.55 M14.35 16.35 L14.35 18.1" fill="none" stroke="#1c2327" stroke-linecap="round" stroke-linejoin="round" stroke-width="1.0"/>
    <path d="M8.4 9.1 L5.4 8.25 6.0 6.55 2.5 4.3 -0.95 0.6 9.3 4.15 11.4 6.15 9.3 7.35 8.4 9.1 M13.55 2.2 L12.8 0.6 19.0 3.95 16.8 5.2 15.35 4.55 13.55 2.2" fill="#bbd6f0" fill-opacity="0.75686276" fill-rule="evenodd" stroke="none"/>
    <path d="M13.55 2.2 L15.35 4.55 16.8 5.2 19.0 3.95 12.8 0.6 13.55 2.2 M8.4 9.1 L9.3 7.35 11.4 6.15 9.3 4.15 -0.95 0.6 2.5 4.3 6.0 6.55 5.4 8.25 8.4 9.1 Z" fill="none" stroke="#99adcb" stroke-linecap="round" stroke-linejoin="round" stroke-opacity="0.5294118" stroke-width="1.0"/>
  </g>
</svg>
