<?xml version="1.0" encoding="UTF-8" standalone="no"?>
<svg xmlns:ffdec="https://www.free-decompiler.com/flash" xmlns:xlink="http://www.w3.org/1999/xlink" ffdec:objectType="shape" height="19.25px" width="20.5px" xmlns="http://www.w3.org/2000/svg">
  <g transform="matrix(1.0, 0.0, 0.0, 1.0, 2.05, 6.0)">
    <path d="M0.35 -0.65 L1.15 -1.6 7.7 -1.85 8.6 -1.95 10.05 -2.1 11.3 -2.3 13.8 -0.75 13.8 3.3 Q9.85 3.3 6.75 5.15 9.85 3.3 13.8 3.3 L17.95 5.75 6.75 5.15 6.65 5.15 4.8 5.25 Q2.55 4.15 -0.45 4.75 L-1.0 0.9 0.35 -0.65 0.9 1.75 0.35 -0.65 M6.65 5.15 L6.05 1.25 7.7 -1.85 6.05 1.25 6.65 5.15" fill="#1c1c1c" fill-rule="evenodd" stroke="none"/>
    <path d="M7.7 -1.85 L6.05 1.25 6.65 5.15" fill="none" stroke="#171717" stroke-linecap="round" stroke-linejoin="round" stroke-width="1.0"/>
    <path d="M0.35 -0.65 L0.9 1.75 M-0.75 -5.5 L0.35 -0.65" fill="none" stroke="#101010" stroke-linecap="round" stroke-linejoin="round" stroke-opacity="0.4" stroke-width="1.0"/>
    <path d="M7.7 -1.85 L1.15 -1.6 0.35 -0.65 -1.0 0.9 -0.45 4.75 Q2.55 4.15 4.8 5.25 L6.65 5.15 6.75 5.15 Q9.85 3.3 13.8 3.3 L17.95 5.75 6.75 5.15 M13.8 3.3 L13.8 -0.75 11.3 -2.3 10.05 -2.1 8.6 -1.95 7.7 -1.85" fill="none" stroke="#0b0b0b" stroke-linecap="round" stroke-linejoin="round" stroke-width="1.0"/>
    <path d="M5.6 1.25 Q7.15 1.8 7.5 2.35 L8.3 4.0 7.85 5.65 6.75 4.35 6.75 3.55 Q3.5 1.4 0.65 3.55 L0.65 4.5 -0.25 5.55 -0.85 4.0 0.05 2.35 0.15 2.1 0.9 1.75 1.65 1.35 5.55 1.25 5.6 1.25" fill="#2d2d2d" fill-rule="evenodd" stroke="none"/>
    <path d="M0.9 1.75 L2.2 -1.8 Q2.9 -2.25 4.0 -2.3 5.85 -2.35 6.55 -1.6 L5.6 1.25 5.55 1.25 1.65 1.35 0.9 1.75 M6.75 4.35 L5.6 8.65 3.5 8.65 1.45 8.6 0.65 4.5 0.65 3.55 Q3.5 1.4 6.75 3.55 L6.75 4.35" fill="#1e1e1e" fill-rule="evenodd" stroke="none"/>
    <path d="M7.85 5.65 L6.85 9.45 5.9 10.45 4.1 10.45 Q3.75 9.9 3.5 8.65 3.75 9.9 4.1 10.45 L1.15 10.45 0.15 9.55 -0.25 5.55 0.65 4.5 1.45 8.6 3.5 8.65 5.6 8.65 6.75 4.35 7.85 5.65" fill="#202020" fill-rule="evenodd" stroke="none"/>
    <path d="M7.5 2.35 L9.3 1.6 13.8 1.0 Q15.5 2.05 14.6 3.1 L10.2 3.8 8.3 4.0 7.5 2.35 M-0.25 5.55 L-0.8 5.55 Q-2.45 4.3 -0.85 2.95 L0.05 2.35 -0.85 4.0 -0.25 5.55 M10.2 3.8 L9.3 1.6 10.2 3.8" fill="#333333" fill-rule="evenodd" stroke="none"/>
    <path d="M9.3 1.6 L10.2 3.8" ffdec:has-small-stroke="true" ffdec:original-stroke-width="0.9" fill="none" stroke="#2c2c2c" stroke-linecap="round" stroke-linejoin="round" stroke-width="1.0"/>
    <path d="M-0.8 5.55 Q-2.45 4.3 -0.85 2.95" ffdec:has-small-stroke="true" ffdec:original-stroke-width="0.8" fill="none" stroke="#101010" stroke-linecap="round" stroke-linejoin="round" stroke-width="1.0"/>
    <path d="M0.9 1.75 L2.2 -1.8 Q2.9 -2.25 4.0 -2.3 5.85 -2.35 6.55 -1.6 L5.6 1.25 Q7.15 1.8 7.5 2.35 L9.3 1.6 13.8 1.0 Q15.5 2.05 14.6 3.1 L10.2 3.8 8.3 4.0 7.85 5.65 6.85 9.45 5.9 10.45 4.1 10.45 1.15 10.45 0.15 9.55 -0.25 5.55 -0.8 5.55 M0.9 1.75 L1.65 1.35 5.55 1.25 5.6 1.25 M7.5 2.35 L8.3 4.0 M7.85 5.65 L6.75 4.35 5.6 8.65 3.5 8.65 1.45 8.6 0.65 4.5 0.65 3.55 Q3.5 1.4 6.75 3.55 L6.75 4.35 M-0.85 2.95 L0.05 2.35 0.15 2.1 0.9 1.75 M-0.25 5.55 L-0.85 4.0 0.05 2.35 M-0.25 5.55 L0.65 4.5" ffdec:has-small-stroke="true" ffdec:original-stroke-width="0.9" fill="none" stroke="#090909" stroke-linecap="round" stroke-linejoin="round" stroke-width="1.0"/>
    <path d="M4.1 10.45 Q5.7 12.45 8.5 12.75 M3.5 8.65 Q3.75 9.9 4.1 10.45" fill="none" stroke="#000000" stroke-linecap="round" stroke-linejoin="round" stroke-opacity="0.8" stroke-width="1.0"/>
  </g>
</svg>
