<?xml version="1.0" encoding="UTF-8" standalone="no"?>
<svg xmlns:ffdec="https://www.free-decompiler.com/flash" xmlns:xlink="http://www.w3.org/1999/xlink" ffdec:objectType="shape" height="16.95px" width="16.15px" xmlns="http://www.w3.org/2000/svg">
  <g transform="matrix(1.0, 0.0, 0.0, 1.0, 0.85, 1.4)">
    <path d="M12.95 12.4 L12.6 13.5 Q12.1 14.45 11.25 14.75 L10.2 14.65 7.4 13.3 6.4 14.85 Q2.75 15.05 0.85 13.3 L1.05 10.7 0.05 8.05 Q-0.4 5.5 0.0 3.25 0.35 1.6 2.25 0.15 4.0 -1.15 7.45 -0.75 8.45 -0.7 11.15 0.45 12.8 1.05 13.3 3.2 L13.8 6.05 13.75 7.15 14.75 10.4 13.1 11.8 12.95 12.55 12.8 12.95 12.95 12.4 13.1 11.8 12.95 12.4 M7.4 13.3 L5.65 11.85 7.4 13.3" fill="#3d2d2e" fill-rule="evenodd" stroke="none"/>
    <path d="M12.95 12.4 L12.6 13.5 Q12.1 14.45 11.25 14.75 L10.2 14.65 7.4 13.3 6.4 14.85 Q2.75 15.05 0.85 13.3 L1.05 10.7 0.05 8.05 Q-0.4 5.5 0.0 3.25 0.35 1.6 2.25 0.15 4.0 -1.15 7.45 -0.75 8.45 -0.7 11.15 0.45 12.8 1.05 13.3 3.2 L13.8 6.05 13.75 7.15 14.75 10.4 13.1 11.8 12.95 12.4 M5.65 11.85 L7.4 13.3" fill="none" stroke="#251b1a" stroke-linecap="round" stroke-linejoin="round" stroke-width="1.0"/>
    <path d="M10.15 7.9 L9.1 7.05 9.3 6.95 Q9.65 6.75 10.3 6.65 L10.95 6.8 Q10.5 7.25 10.75 7.9 L10.05 7.75 10.15 7.9 M10.7 12.65 L11.2 12.4 11.75 12.55 12.4 12.55 12.1 13.35 10.4 13.2 10.45 12.8 11.55 12.85 10.7 12.65" fill="#958c8c" fill-rule="evenodd" stroke="none"/>
    <path d="M9.1 7.05 L9.0 7.1 8.85 7.0 8.95 6.9 Q9.25 6.65 9.75 6.55 L9.55 6.5 9.05 6.25 9.6 5.95 11.9 6.65 12.15 6.3 12.4 6.8 12.25 7.15 12.05 7.1 11.85 8.1 11.7 8.35 10.35 8.1 10.25 8.05 10.15 7.9 10.05 7.75 10.75 7.9 Q10.5 7.25 10.95 6.8 L10.3 6.65 Q9.65 6.75 9.3 6.95 L9.1 7.05 M10.7 12.65 L11.55 12.85 10.45 12.8 10.7 12.65" fill="#251b1a" fill-rule="evenodd" stroke="none"/>
    <path d="M5.65 11.85 Q5.25 11.1 5.3 10.2 5.3 9.3 5.55 8.85 L5.55 8.75 5.35 7.55 5.0 5.8 4.85 5.2 2.3 6.5 1.1 7.75 0.6 6.05 0.7 7.75 -0.15 8.6 -0.8 6.45 -0.85 4.0 -0.55 3.8 -0.45 3.8 -0.5 3.05 Q0.3 1.05 2.05 -0.35 L4.2 -1.4 9.6 -0.95 Q10.75 -0.65 12.25 0.45 13.35 1.95 13.3 3.2 L13.55 4.6 11.25 3.8 7.65 4.3 6.65 5.25 6.8 7.1 6.9 7.55 Q7.2 9.25 8.0 10.9 L9.0 11.75 11.15 11.45 13.45 11.45 13.5 11.65 13.65 11.8 13.65 11.85 13.75 12.2 13.7 12.3 13.7 12.5 13.6 12.85 13.55 13.4 13.4 14.0 13.25 14.25 13.2 14.3 13.15 14.45 12.9 14.85 12.55 15.2 12.5 15.3 12.35 15.4 11.95 15.5 11.75 15.45 11.7 15.5 10.65 15.5 5.65 11.85 M12.55 12.4 L12.55 12.3 12.4 12.25 12.25 12.15 12.0 12.15 11.55 12.3 11.45 12.3 10.65 12.55 10.6 12.55 10.35 12.6 10.2 12.65 10.1 12.7 10.05 12.8 9.85 13.95 10.25 14.15 11.25 14.75 12.05 13.9 12.1 13.9 12.25 13.7 12.25 13.65 12.35 13.5 12.4 13.45 12.45 13.35 12.5 13.35 12.55 13.15 12.55 12.5 12.55 12.4 M0.6 4.55 L-0.05 3.8 -0.15 3.8 0.5 4.45 0.6 4.55" fill="#000000" fill-opacity="0.45882353" fill-rule="evenodd" stroke="none"/>
    <path d="M10.65 15.5 Q7.75 14.25 5.65 11.85 L10.65 15.5 M12.4 12.25 L12.55 12.3 12.55 12.4 12.4 12.25 M12.25 13.7 L12.1 13.9 12.15 13.75 12.25 13.7 M12.05 13.9 L11.25 14.75 10.25 14.15 10.65 14.25 11.15 14.25 11.3 14.3 11.5 14.25 11.75 14.05 12.05 13.9" fill="#000000" fill-opacity="0.49803922" fill-rule="evenodd" stroke="none"/>
    <path d="M4.3 6.5 L4.7 10.75 3.1 10.45 1.9 9.55 Q0.7 8.6 1.0 6.2 L1.5 5.4 Q2.8 4.75 3.55 5.85 L4.3 6.5" fill="#3d2d2e" fill-rule="evenodd" stroke="none"/>
    <path d="M4.3 6.5 L3.55 5.85 Q2.8 4.75 1.5 5.4 L1.0 6.2 Q0.7 8.6 1.9 9.55 L3.1 10.45 4.7 10.75" fill="none" stroke="#251b1a" stroke-linecap="round" stroke-linejoin="round" stroke-width="1.0"/>
    <path d="M14.3 5.2 Q14.6 5.05 14.15 6.5 L14.15 7.25 14.1 8.05 Q13.85 9.15 11.8 8.75 6.25 7.5 4.95 6.65 L3.85 5.6 4.2 5.65 4.35 5.7 4.35 5.65 Q4.4 5.35 4.85 5.15 L5.65 5.25 6.85 5.5 Q6.7 5.15 7.1 4.95 L7.75 4.9 8.65 5.05 9.65 5.25 10.2 5.3 11.5 5.5 12.2 5.15 Q12.25 4.85 12.6 4.95 L13.45 5.2 14.3 5.2" fill="#000000" fill-opacity="0.2" fill-rule="evenodd" stroke="none"/>
    <path d="M12.05 13.2 L14.5 14.0" fill="none" stroke="#2e251e" stroke-linecap="round" stroke-linejoin="round" stroke-width="1.0"/>
    <path d="M15.3 14.0 L15.15 14.35 14.8 14.5 14.45 14.35 14.3 14.0 14.45 13.65 Q14.6 13.5 14.8 13.5 L15.15 13.65 15.3 14.0" fill="#ffbb35" fill-rule="evenodd" stroke="none"/>
  </g>
</svg>
