<?xml version="1.0" encoding="UTF-8" standalone="no"?>
<svg xmlns:ffdec="https://www.free-decompiler.com/flash" xmlns:xlink="http://www.w3.org/1999/xlink" ffdec:objectType="shape" height="15.45px" width="14.25px" xmlns="http://www.w3.org/2000/svg">
  <g transform="matrix(1.0, 0.0, 0.0, 1.0, 8.25, 9.45)">
    <path d="M5.3 -2.1 Q5.3 0.0 3.85 1.45 2.4 2.9 0.3 2.9 -1.8 2.9 -3.3 1.45 -4.7 0.0 -4.7 -2.1 -4.7 -4.2 -3.3 -5.65 -1.8 -7.15 0.3 -7.15 2.4 -7.15 3.85 -5.65 5.3 -4.2 5.3 -2.1 M3.5 -1.9 L1.9 -2.4 3.5 -1.9" fill="#afa569" fill-rule="evenodd" stroke="none"/>
    <path d="M5.3 -2.1 Q5.3 0.0 3.85 1.45 2.4 2.9 0.3 2.9 -1.8 2.9 -3.3 1.45 -4.7 0.0 -4.7 -2.1 -4.7 -4.2 -3.3 -5.65 -1.8 -7.15 0.3 -7.15 2.4 -7.15 3.85 -5.65 5.3 -4.2 5.3 -2.1" fill="none" stroke="#66470c" stroke-linecap="round" stroke-linejoin="round" stroke-width="1.0"/>
    <path d="M1.9 -2.4 L3.5 -1.9" fill="none" stroke="#66470c" stroke-linecap="round" stroke-linejoin="round" stroke-width="1.5"/>
    <path d="M-0.25 -0.8 L0.0 -0.75 5.1 -0.6 Q3.45 0.2 1.8 -0.05 0.8 -0.2 -0.25 -0.8 0.8 -0.2 1.8 -0.05 3.45 0.2 5.1 -0.6 5.5 2.0 4.75 2.85 4.0 3.75 2.6 3.8 L0.85 3.8 0.65 5.4 Q-2.25 5.8 -5.15 4.15 L-5.15 2.5 -6.95 0.9 Q-7.75 -0.4 -7.75 -2.05 L-7.6 -3.9 Q-7.45 -4.95 -6.75 -6.15 -6.15 -7.4 -4.2 -8.25 -2.3 -9.15 0.05 -8.85 2.1 -8.7 3.5 -7.25 L5.1 -5.25 Q5.9 -3.9 4.95 -3.55 L0.05 -3.4 Q-1.05 -3.0 -1.25 -2.1 -1.5 -1.25 -0.25 -0.8 M1.8 -0.05 Q1.85 2.2 0.85 3.8 1.85 2.2 1.8 -0.05" fill="#1c1c1c" fill-rule="evenodd" stroke="none"/>
    <path d="M-0.25 -0.8 Q0.8 -0.2 1.8 -0.05 3.45 0.2 5.1 -0.6 M0.85 3.8 Q1.85 2.2 1.8 -0.05" fill="none" stroke="#4d0000" stroke-linecap="round" stroke-linejoin="round" stroke-width="1.0"/>
    <path d="M-2.9 1.6 L-2.45 2.4 Q-0.2 3.6 0.85 3.8 L2.6 3.8 Q4.0 3.75 4.75 2.85 5.5 1.9 5.5 -0.7 2.75 0.15 0.0 -0.75 -1.5 -1.15 -1.25 -2.1 -1.05 -3.0 0.05 -3.4 L4.95 -3.55 Q5.9 -3.9 5.1 -5.25 L3.5 -7.25 Q2.1 -8.7 0.05 -8.85 -2.3 -9.15 -4.2 -8.25 -6.15 -7.4 -6.75 -6.15 -7.45 -4.95 -7.6 -3.9 L-7.75 -2.05 Q-7.75 -0.4 -6.95 0.9 L-5.15 2.5 -5.15 4.15 Q-2.25 5.8 0.65 5.4 L0.85 3.8" fill="none" stroke="#111111" stroke-linecap="round" stroke-linejoin="round" stroke-width="1.0"/>
  </g>
</svg>
