<?xml version="1.0" encoding="UTF-8" standalone="no"?>
<svg xmlns:ffdec="https://www.free-decompiler.com/flash" xmlns:xlink="http://www.w3.org/1999/xlink" ffdec:objectType="shape" height="20.05px" width="22.4px" xmlns="http://www.w3.org/2000/svg">
  <g transform="matrix(1.0, 0.0, 0.0, 1.0, 10.75, 19.9)">
    <path d="M-4.3 -2.6 L3.1 -0.1 Q3.9 -0.15 3.8 -1.05 L4.25 -1.25 4.25 -1.75 4.8 -2.05 4.8 -2.8 Q5.4 -3.4 5.65 -4.1 L5.15 -4.55 Q4.55 -5.05 4.9 -5.8 L5.6 -7.8 5.65 -8.15 Q6.35 -11.9 3.5 -13.95 -2.4 -16.9 -4.7 -13.95 -7.3 -10.85 -5.75 -7.1 L-4.3 -2.6 Z" fill="none" stroke="#a17668" stroke-linecap="round" stroke-linejoin="round" stroke-width="0.5"/>
    <path d="M4.4 -4.2 L0.0 -4.2 0.0 -8.35 4.4 -8.35 4.4 -4.2 Z" fill="none" stroke="#b5b5b5" stroke-linecap="round" stroke-linejoin="round" stroke-width="1.0"/>
    <path d="M4.9 -6.05 Q4.55 -5.3 5.15 -4.8 L5.65 -4.35 Q5.4 -3.65 4.8 -3.05 L4.8 -2.3 4.25 -2.0 4.25 -1.5 3.8 -1.25 Q3.9 -0.35 3.1 -0.35 L-4.3 -2.85 -5.75 -7.35 Q-7.3 -11.1 -4.7 -14.2 -2.4 -17.15 3.5 -14.15 6.35 -12.15 5.65 -8.4 L5.55 -8.05 4.9 -6.05" fill="url(#gradient0)" fill-rule="evenodd" stroke="none"/>
    <path d="M2.45 -12.5 L1.4 -12.85 Q2.8 -11.85 1.95 -11.3 L1.6 -11.3 1.95 -11.3 1.9 -11.2 1.6 -11.3 1.3 -11.4 -0.2 -10.55 -0.55 -11.2 -0.6 -11.1 -1.0 -11.15 -1.8 -11.8 -2.45 -12.05 -4.0 -13.25 -1.6 -14.3 2.45 -12.5" fill="url(#gradient1)" fill-rule="evenodd" stroke="none"/>
    <path d="M-0.05 -4.95 L0.0 -4.95 0.0 -4.9 -0.05 -4.95" fill="url(#gradient2)" fill-rule="evenodd" stroke="none"/>
    <path d="M1.15 -3.65 L5.5 -3.65 Q6.9 -2.1 7.4 -0.55 L1.15 -0.55 0.05 -1.4 1.15 -3.65" fill="url(#gradient3)" fill-rule="evenodd" stroke="none"/>
    <path d="M-1.2 -6.25 L-0.65 -5.6 -0.45 -5.4 -0.05 -4.95 0.0 -4.9 1.15 -3.65 0.05 -1.4 -2.0 -1.95 -3.95 -4.15 -3.25 -4.3 -2.95 -4.35 -1.9 -4.75 -1.55 -5.2 -1.5 -5.35 -1.45 -5.35 -1.4 -5.65 -1.2 -6.2 -1.2 -6.25" fill="url(#gradient4)" fill-rule="evenodd" stroke="none"/>
    <path d="M-4.0 -13.25 L-2.45 -12.05 -1.0 -11.15 -0.35 -10.5 -1.15 -10.1 -1.75 -9.1 -1.9 -8.55 -2.0 -8.85 -2.05 -9.2 -3.55 -9.8 Q-4.95 -10.3 -5.75 -9.55 L-5.9 -9.35 -6.0 -9.2 -6.2 -9.6 -6.2 -9.7 -6.7 -11.4 -6.8 -11.85 -6.05 -13.25 -4.0 -13.25 M-2.05 -9.2 L-1.75 -9.1 -2.05 -9.2" fill="url(#gradient5)" fill-rule="evenodd" stroke="none"/>
    <path d="M-1.0 -11.15 L-0.6 -11.1 -0.65 -11.05 -0.7 -10.95 -0.45 -10.75 -0.3 -10.5 -0.35 -10.5 -1.0 -11.15" fill="#222623" fill-rule="evenodd" stroke="none"/>
    <path d="M-2.45 -12.05 L-1.8 -11.8 -1.0 -11.15 -2.45 -12.05 M-4.85 -5.4 L-4.45 -5.25 -4.8 -5.25 -4.95 -5.25 -4.85 -5.4" fill="#43423f" fill-rule="evenodd" stroke="none"/>
    <path d="M-2.05 -9.2 L-2.0 -8.85 -1.9 -8.55 -1.9 -8.45 -1.25 -6.65 -1.2 -6.25 -1.2 -6.2 -1.5 -5.6 -1.5 -5.65 -1.9 -6.0 -2.35 -6.0 -3.45 -5.5 -3.8 -5.25 -3.8 -5.2 -3.8 -4.95 -4.45 -5.25 -4.85 -5.4 -4.95 -5.5 -5.05 -5.5 -5.85 -6.05 Q-6.4 -6.6 -6.45 -7.75 L-6.2 -8.8 -6.0 -9.2 -5.9 -9.35 -5.75 -9.55 Q-4.95 -10.3 -3.55 -9.8 L-2.05 -9.2" fill="url(#gradient6)" fill-rule="evenodd" stroke="none"/>
    <path d="M-1.25 -6.65 L-1.15 -6.4 -1.2 -6.25 -1.25 -6.65" fill="url(#gradient7)" fill-rule="evenodd" stroke="none"/>
    <path d="M-7.05 -3.8 Q-7.7 -4.45 -7.95 -5.5 L-8.25 -6.95 -8.35 -7.85 -8.45 -8.85 -8.55 -9.95 -8.55 -10.1 -8.55 -10.15 -8.4 -11.0 -7.6 -11.95 -6.8 -11.85 -6.8 -11.5 -6.75 -10.3 -6.2 -9.7 -6.2 -9.6 -6.0 -9.2 -6.2 -8.8 -6.45 -7.75 Q-6.4 -6.6 -5.85 -6.05 L-5.05 -5.5 Q-5.55 -4.6 -7.05 -3.8" fill="url(#gradient8)" fill-rule="evenodd" stroke="none"/>
    <path d="M-5.75 -3.8 L-7.05 -3.8 Q-5.55 -4.6 -5.05 -5.5 L-4.95 -5.5 -4.85 -5.4 -4.95 -5.25 -5.75 -3.8 M-6.8 -11.5 L-6.8 -11.85 -6.7 -11.4 -6.2 -9.7 -6.75 -10.3 -6.8 -11.5" fill="url(#gradient9)" fill-rule="evenodd" stroke="none"/>
    <path d="M-1.45 -5.35 L-1.5 -5.35 -1.55 -5.2 -1.9 -4.75 -2.95 -4.35 -3.25 -4.3 -3.45 -4.35 -3.7 -4.45 -3.8 -4.6 -3.8 -4.95 -3.8 -5.2 -3.8 -5.25 -3.45 -5.5 -2.35 -6.0 -1.9 -6.0 -1.5 -5.65 -1.5 -5.6 -1.45 -5.35" fill="url(#gradient10)" fill-rule="evenodd" stroke="none"/>
    <path d="M-1.9 -1.85 L-4.45 -1.85 -5.75 -3.8 -4.95 -5.25 -4.8 -5.25 -4.8 -5.05 -3.95 -4.15 -2.0 -1.95 -1.9 -1.85" fill="url(#gradient11)" fill-rule="evenodd" stroke="none"/>
    <path d="M2.45 -12.5 L-1.6 -14.3 -4.0 -13.25 -2.45 -12.05 -1.0 -11.15 -0.35 -10.5 -1.75 -9.1 -1.25 -6.65 -1.2 -6.25 -1.2 -6.2 -1.4 -5.65 -1.5 -5.6 -1.45 -5.35 -1.5 -5.35 -1.55 -5.2 -1.9 -4.75 -2.95 -4.35 -3.25 -4.3 -3.45 -4.35 -3.7 -4.45 -3.8 -4.6 -3.8 -4.95 -3.8 -5.2 -3.8 -5.25 -3.45 -5.5 -2.35 -6.0 -1.9 -6.0 -1.5 -5.65 -1.5 -5.6 -1.2 -6.2 M1.6 -11.3 L1.95 -11.3 M1.6 -11.3 L-0.3 -10.5 -0.35 -10.5 M-1.15 -6.4 L-1.2 -6.25 -0.65 -5.6 -0.45 -5.4 -0.05 -4.95 0.0 -4.9 1.15 -3.65 5.5 -3.65 Q6.9 -2.1 7.4 -0.55 L1.15 -0.55 0.05 -1.4 -1.5 -1.4 -1.9 -1.85 -4.45 -1.85 -5.75 -3.8 -7.05 -3.8 Q-7.7 -4.45 -7.95 -5.5 L-8.25 -6.95 -8.35 -7.85 -8.45 -8.85 -8.55 -9.95 -8.55 -10.1 -8.55 -10.15 -8.4 -11.0 -7.6 -11.95 -6.8 -11.85 -6.05 -13.25 -4.0 -13.25 M0.0 -4.95 L0.0 -4.9 M1.15 -3.65 L0.05 -1.4 M-2.0 -1.95 L-1.9 -1.85 M-1.75 -9.1 L-2.05 -9.2 -3.55 -9.8 Q-4.95 -10.3 -5.75 -9.55 L-5.9 -9.35 -6.0 -9.2 -6.2 -8.8 -6.45 -7.75 Q-6.4 -6.6 -5.85 -6.05 L-5.05 -5.5 -4.95 -5.5 -4.85 -5.4 -4.45 -5.25 -3.8 -4.95 M-3.95 -4.15 L-2.0 -1.95 M-6.8 -11.5 L-6.8 -11.85 -6.7 -11.4 -6.2 -9.7 -6.2 -9.6 -6.0 -9.2 M-4.95 -5.25 L-4.8 -5.25 -4.45 -5.25 M-4.8 -5.25 L-4.8 -5.05 -3.95 -4.15 M-4.85 -5.4 L-4.95 -5.25 -5.75 -3.8" fill="none" stroke="#000000" stroke-linecap="round" stroke-linejoin="round" stroke-width="1.0"/>
    <path d="M10.55 -11.65 L11.15 -11.65 Q10.75 -10.7 10.75 -9.7 L10.5 -9.6 Q9.3 -8.85 8.8 -7.3 L8.3 -8.55 7.1 -8.1 Q7.4 -8.8 7.3 -9.6 L7.1 -10.1 5.3 -10.95 4.85 -10.85 Q4.0 -10.65 3.65 -9.85 3.35 -10.65 2.1 -11.15 L1.8 -10.6 1.45 -9.05 0.3 -10.35 -0.1 -10.5 -0.15 -10.5 -0.6 -10.5 Q-1.2 -10.4 -1.65 -9.45 -2.1 -8.25 -1.65 -7.05 -2.65 -6.65 -3.35 -5.45 L-3.35 -7.55 Q-3.25 -8.6 -3.9 -9.15 -4.6 -9.85 -5.0 -9.55 L-5.55 -8.9 -6.0 -8.35 -6.05 -8.2 Q-6.8 -7.15 -7.8 -4.3 -8.65 -6.5 -8.7 -7.8 L-8.7 -8.35 Q-9.4 -9.9 -10.25 -9.6 L-9.35 -10.45 -9.0 -11.25 -8.9 -11.9 -8.85 -12.2 -8.15 -13.6 -10.0 -13.15 Q-9.4 -14.65 -8.3 -15.7 -7.55 -16.5 -6.6 -16.6 L-7.3 -18.5 Q-5.45 -17.6 -4.65 -17.75 L-3.55 -18.15 Q-3.0 -18.35 -2.2 -18.75 -0.5 -19.55 1.55 -19.35 3.55 -19.15 4.2 -18.35 L4.9 -17.45 6.1 -18.7 Q6.9 -16.05 7.35 -16.4 L8.85 -16.45 8.85 -15.3 9.05 -14.95 9.2 -14.7 10.4 -13.85 Q10.6 -12.7 10.05 -11.85 L9.9 -11.65 10.55 -11.65" fill="url(#gradient12)" fill-rule="evenodd" stroke="none"/>
    <path d="M10.55 -11.65 L11.15 -11.65 Q10.75 -10.7 10.75 -9.7 L10.5 -9.6 Q9.3 -8.85 8.8 -7.3 L8.3 -8.55 7.1 -8.1 Q7.4 -8.8 7.3 -9.6 L7.1 -10.1 5.3 -10.95 4.85 -10.85 Q4.0 -10.65 3.65 -9.85 3.35 -10.65 2.1 -11.15 L1.8 -10.6 1.45 -9.05 0.3 -10.35 -0.1 -10.5 -0.15 -10.5 -0.6 -10.5 Q-1.2 -10.4 -1.65 -9.45 -2.1 -8.25 -1.65 -7.05 -2.65 -6.65 -3.35 -5.45 L-3.35 -7.55 Q-3.25 -8.6 -3.9 -9.15 -4.6 -9.85 -5.0 -9.55 L-5.55 -8.9 -6.0 -8.35 -6.05 -8.2 Q-6.8 -7.15 -7.8 -4.3 -8.65 -6.5 -8.7 -7.8 L-8.7 -8.35 Q-9.4 -9.9 -10.25 -9.6 L-9.35 -10.45 -9.0 -11.25 -8.9 -11.9 -8.85 -12.2 -8.15 -13.6 -10.0 -13.15 Q-9.4 -14.65 -8.3 -15.7 -7.55 -16.5 -6.6 -16.6 L-7.3 -18.5 Q-5.45 -17.6 -4.65 -17.75 L-3.55 -18.15 Q-3.0 -18.35 -2.2 -18.75 -0.5 -19.55 1.55 -19.35 3.55 -19.15 4.2 -18.35 L4.9 -17.45 6.1 -18.7 Q6.9 -16.05 7.35 -16.4 L8.85 -16.45 8.85 -15.3 9.05 -14.95 9.2 -14.7 10.4 -13.85 Q10.6 -12.7 10.05 -11.85 L10.55 -11.65 9.9 -11.65 10.05 -11.85" fill="none" stroke="#81755c" stroke-linecap="round" stroke-linejoin="round" stroke-opacity="0.6" stroke-width="1.0"/>
  </g>
  <defs>
    <radialGradient cx="0" cy="0" gradientTransform="matrix(0.0148, 0.0, 0.0, 0.0157, 4.0, -2.2)" gradientUnits="userSpaceOnUse" id="gradient0" r="819.2" spreadMethod="pad">
      <stop offset="0.0" stop-color="#fce0ca"/>
      <stop offset="1.0" stop-color="#f0aa98"/>
    </radialGradient>
    <radialGradient cx="0" cy="0" gradientTransform="matrix(0.0203, 0.0, 0.0, 0.0215, 8.8, -7.15)" gradientUnits="userSpaceOnUse" id="gradient1" r="819.2" spreadMethod="pad">
      <stop offset="0.0" stop-color="#333333"/>
      <stop offset="1.0" stop-color="#1c1c1c"/>
    </radialGradient>
    <radialGradient cx="0" cy="0" gradientTransform="matrix(0.0155, 0.0, 0.0, 0.0164, 7.75, 0.6)" gradientUnits="userSpaceOnUse" id="gradient2" r="819.2" spreadMethod="pad">
      <stop offset="0.0" stop-color="#333333"/>
      <stop offset="1.0" stop-color="#1c1c1c"/>
    </radialGradient>
    <radialGradient cx="0" cy="0" gradientTransform="matrix(0.0163, 0.0, 0.0, 0.0173, 13.0, 1.55)" gradientUnits="userSpaceOnUse" id="gradient3" r="819.2" spreadMethod="pad">
      <stop offset="0.0" stop-color="#333333"/>
      <stop offset="0.0" stop-color="#333333"/>
      <stop offset="0.5098039215686274" stop-color="#191919"/>
      <stop offset="1.0" stop-color="#333333"/>
    </radialGradient>
    <radialGradient cx="0" cy="0" gradientTransform="matrix(0.0159, 0.0, 0.0, 0.0168, 5.85, 4.5)" gradientUnits="userSpaceOnUse" id="gradient4" r="819.2" spreadMethod="pad">
      <stop offset="0.0" stop-color="#333333"/>
      <stop offset="0.0" stop-color="#333333"/>
      <stop offset="0.5098039215686274" stop-color="#191919"/>
      <stop offset="1.0" stop-color="#333333"/>
    </radialGradient>
    <radialGradient cx="0" cy="0" gradientTransform="matrix(0.0058, 0.0, 0.0, 0.0062, -2.4, -10.4)" gradientUnits="userSpaceOnUse" id="gradient5" r="819.2" spreadMethod="pad">
      <stop offset="0.0" stop-color="#333333"/>
      <stop offset="1.0" stop-color="#1c1c1c"/>
    </radialGradient>
    <radialGradient cx="0" cy="0" gradientTransform="matrix(0.0097, 0.0, 0.0, 0.0103, 0.7, -5.85)" gradientUnits="userSpaceOnUse" id="gradient6" r="819.2" spreadMethod="pad">
      <stop offset="0.0" stop-color="#333333"/>
      <stop offset="0.0" stop-color="#333333"/>
      <stop offset="0.5098039215686274" stop-color="#191919"/>
      <stop offset="1.0" stop-color="#333333"/>
    </radialGradient>
    <radialGradient cx="0" cy="0" gradientTransform="matrix(0.0097, 0.0, 0.0, 0.0103, 0.7, -5.85)" gradientUnits="userSpaceOnUse" id="gradient7" r="819.2" spreadMethod="pad">
      <stop offset="0.0" stop-color="#333333"/>
      <stop offset="1.0" stop-color="#1c1c1c"/>
    </radialGradient>
    <radialGradient cx="0" cy="0" gradientTransform="matrix(0.0198, 0.0, 0.0, 0.021, -5.95, 5.0)" gradientUnits="userSpaceOnUse" id="gradient8" r="819.2" spreadMethod="pad">
      <stop offset="0.0" stop-color="#333333"/>
      <stop offset="0.0" stop-color="#333333"/>
      <stop offset="0.5098039215686274" stop-color="#191919"/>
      <stop offset="1.0" stop-color="#333333"/>
    </radialGradient>
    <linearGradient gradientTransform="matrix(0.0012, 0.0, 0.0, 0.0049, -6.0, -8.0)" gradientUnits="userSpaceOnUse" id="gradient9" spreadMethod="pad" x1="-819.2" x2="819.2">
      <stop offset="0.0" stop-color="#1a1a1a"/>
      <stop offset="1.0" stop-color="#070707"/>
    </linearGradient>
    <radialGradient cx="0" cy="0" gradientTransform="matrix(0.0019, 0.0, 0.0, 0.002, -2.55, -5.15)" gradientUnits="userSpaceOnUse" id="gradient10" r="819.2" spreadMethod="pad">
      <stop offset="0.0" stop-color="#333333"/>
      <stop offset="1.0" stop-color="#1c1c1c"/>
    </radialGradient>
    <linearGradient gradientTransform="matrix(0.001, 0.0024, -0.0014, 7.0E-4, -4.15, -3.45)" gradientUnits="userSpaceOnUse" id="gradient11" spreadMethod="pad" x1="-819.2" x2="819.2">
      <stop offset="0.0" stop-color="#242424"/>
      <stop offset="1.0" stop-color="#444544"/>
    </linearGradient>
    <radialGradient cx="0" cy="0" gradientTransform="matrix(0.0283, 0.0, 0.0, 0.0283, -7.55, -23.65)" gradientUnits="userSpaceOnUse" id="gradient12" r="819.2" spreadMethod="pad">
      <stop offset="0.0" stop-color="#dad6c5"/>
      <stop offset="0.5098039215686274" stop-color="#a8a38a"/>
      <stop offset="1.0" stop-color="#dad6c5"/>
    </radialGradient>
  </defs>
</svg>
