<?xml version="1.0" encoding="UTF-8" standalone="no"?>
<svg xmlns:xlink="http://www.w3.org/1999/xlink" height="400.0px" width="799.95px" xmlns="http://www.w3.org/2000/svg">
  <g transform="matrix(1.0, 0.0, 0.0, 1.0, 0.0, 3.1)">
    <path d="M799.95 -3.1 L799.95 396.9 0.0 396.9 0.0 -3.1 799.95 -3.1" fill="#000000" fill-opacity="0.3019608" fill-rule="evenodd" stroke="none"/>
    <path d="M567.0 40.0 L18.0 40.0 18.0 19.0 567.0 19.0 567.0 40.0" fill="url(#gradient0)" fill-rule="evenodd" stroke="none"/>
    <path d="M445.1 313.05 L445.1 317.05 445.1 322.0 445.1 323.0 445.1 323.05 420.2 323.05 322.6 323.05 278.7 323.05 278.7 323.0 278.7 322.0 278.7 317.05 278.7 313.05 278.7 308.95 278.7 305.05 322.6 305.05 445.1 305.05 445.1 313.05 M105.65 323.0 L105.65 322.0 105.65 305.05 213.0 305.05 213.0 322.0 213.0 323.0 213.0 323.05 105.65 323.05 105.65 323.0" fill="#333333" fill-rule="evenodd" stroke="none"/>
  </g>
  <defs>
    <linearGradient gradientTransform="matrix(0.3351, 0.0, 0.0, 0.0098, 292.45, 28.0)" gradientUnits="userSpaceOnUse" id="gradient0" spreadMethod="pad" x1="-819.2" x2="819.2">
      <stop offset="0.0" stop-color="#66ccff" stop-opacity="0.4117647"/>
      <stop offset="1.0" stop-color="#66ccff" stop-opacity="0.0"/>
    </linearGradient>
  </defs>
</svg>
