<?xml version="1.0" encoding="UTF-8" standalone="no"?>
<svg xmlns:ffdec="https://www.free-decompiler.com/flash" xmlns:xlink="http://www.w3.org/1999/xlink" ffdec:objectType="shape" height="19.55px" width="20.45px" xmlns="http://www.w3.org/2000/svg">
  <g transform="matrix(1.0, 0.0, 0.0, 1.0, 2.75, 2.05)">
    <path d="M13.85 11.85 L13.7 12.6 Q13.45 14.45 11.9 14.95 L8.85 15.5 Q5.8 15.9 2.55 14.3 L1.55 13.0 0.7 10.9 0.5 10.2 0.15 7.7 0.2 7.25 0.2 6.75 Q0.5 4.0 1.55 2.45 L2.35 1.65 Q3.5 0.75 5.8 0.55 8.95 0.25 10.55 1.2 L11.2 1.65 Q12.3 2.6 13.1 4.4 L13.8 6.85 13.95 9.4 13.95 9.5 13.95 10.25 13.95 10.35 13.9 11.2 13.85 11.85 M12.05 8.75 L10.35 8.75 12.05 8.75 M13.05 13.65 L11.65 13.65 13.05 13.65" fill="#e7bc52" fill-rule="evenodd" stroke="none"/>
    <path d="M11.65 13.65 L13.05 13.65" fill="none" stroke="#a3793c" stroke-linecap="round" stroke-linejoin="round" stroke-width="1.0"/>
    <path d="M10.35 8.75 L12.05 8.75" fill="none" stroke="#a3793c" stroke-linecap="round" stroke-linejoin="round" stroke-width="1.75"/>
    <path d="M1.65 2.35 L1.55 2.45 Q0.5 4.0 0.2 6.75 -0.1 9.5 1.55 13.0 L2.55 14.3 Q5.5 15.75 8.3 15.55 L8.85 15.5 9.4 15.5 8.8 15.55 Q5.75 15.95 2.5 14.35 L1.5 13.05 Q-0.15 9.55 0.15 6.8 0.45 4.05 1.5 2.5 L1.65 2.35 M12.9 14.4 Q12.5 14.8 11.85 15.0 L10.05 15.45 11.9 14.95 12.9 14.4" fill="#696969" fill-rule="evenodd" stroke="none"/>
    <path d="M12.05 10.85 Q9.85 11.05 9.2 9.45 9.4 9.8 9.85 10.0 L12.6 10.25 Q13.5 10.1 13.9 9.5 L13.95 9.4 13.9 10.3 Q12.5 11.05 12.05 10.85" fill="#313131" fill-rule="evenodd" stroke="none"/>
    <path d="M2.55 1.55 Q3.65 0.75 5.8 0.55 8.95 0.25 10.55 1.2 L11.2 1.65 Q12.3 2.6 13.1 4.4 13.75 5.95 13.95 7.65 L13.9 7.65 Q11.8 6.8 10.4 7.3 8.95 7.75 9.0 8.7 L9.2 9.45 Q9.85 11.05 12.05 10.85 12.5 11.05 13.9 10.3 L13.7 12.55 13.65 12.65 Q13.5 13.75 12.9 14.4 L11.9 14.95 10.05 15.45 10.0 15.45 9.4 15.5 8.85 15.5 8.3 15.55 Q5.5 15.75 2.55 14.3 L1.55 13.0 Q-0.1 9.5 0.2 6.75 0.5 4.0 1.55 2.45 L1.65 2.35 1.75 2.25 1.8 2.15 1.95 2.0 2.15 1.85 2.2 1.85 2.5 1.6 2.2 1.85 2.35 1.65 2.5 1.6 2.55 1.55 M12.05 10.85 Q11.4 13.55 10.05 15.45 11.4 13.55 12.05 10.85" fill="#232323" fill-rule="evenodd" stroke="none"/>
    <path d="M2.55 1.55 L2.5 1.6 2.2 1.85 2.15 1.85 1.95 2.0 1.8 2.15 1.75 2.25 M10.0 15.45 L10.05 15.45 11.85 15.0 Q12.5 14.8 12.9 14.4 13.5 13.75 13.65 12.65 L13.7 12.55 M13.9 9.5 L13.9 9.45 13.9 7.65" fill="none" stroke="#3a3a3a" stroke-linecap="round" stroke-linejoin="round" stroke-width="1.0"/>
    <path d="M12.05 10.85 Q9.85 11.05 9.2 9.45 M13.9 10.3 Q12.5 11.05 12.05 10.85" fill="none" stroke="#460000" stroke-linecap="round" stroke-linejoin="round" stroke-width="1.0"/>
    <path d="M10.05 15.45 Q11.4 13.55 12.05 10.85" fill="none" stroke="#460000" stroke-linecap="round" stroke-linejoin="round" stroke-width="0.8"/>
    <path d="M9.2 9.45 L9.0 8.7 Q8.95 7.75 10.4 7.3 11.8 6.8 13.9 7.65 L13.95 7.65 Q13.75 5.95 13.1 4.4 12.3 2.6 11.2 1.65 L10.55 1.2 Q8.95 0.25 5.8 0.55 3.65 0.75 2.55 1.55 M1.75 2.25 L1.65 2.35 1.55 2.45 Q0.5 4.0 0.2 6.75 -0.1 9.5 1.55 13.0 L2.55 14.3 Q5.5 15.75 8.3 15.55 L8.85 15.5 9.4 15.5 10.0 15.45 M9.2 9.45 Q9.4 9.8 9.85 10.0 L12.6 10.25 Q13.5 10.1 13.9 9.5 L13.95 9.4 13.95 7.65 M13.9 10.3 L13.95 9.4 M2.5 1.6 L2.35 1.65 2.2 1.85 M13.7 12.55 L13.9 10.3 M12.9 14.4 L11.9 14.95 10.05 15.45 M12.9 14.4 Q13.55 13.75 13.7 12.6 L13.7 12.55" fill="none" stroke="#040404" stroke-linecap="round" stroke-linejoin="round" stroke-width="1.0"/>
    <path d="M1.65 2.35 L1.5 2.5 Q0.45 4.05 0.15 6.8 -0.15 9.55 1.5 13.05 L2.5 14.35 Q5.75 15.95 8.8 15.55 L9.4 15.5" fill="none" stroke="#101010" stroke-linecap="round" stroke-linejoin="round" stroke-width="1.1"/>
    <path d="M4.65 10.65 L-0.35 10.65 Q-1.05 9.75 -0.6 8.2 L4.65 8.2 4.65 10.65 M5.5 5.6 L1.65 1.45 Q2.25 0.2 3.95 0.0 L7.85 3.8 6.3 4.35 5.5 5.6" fill="#2a2a2a" fill-rule="evenodd" stroke="none"/>
    <path d="M13.9 9.5 L15.9 11.6 13.55 16.05 Q8.4 17.05 4.55 15.3 L3.75 12.5 4.65 10.65 4.65 8.2 4.65 6.85 5.5 5.6 6.3 4.35 7.85 3.8 Q10.9 3.35 13.65 4.35 L13.65 6.35 7.3 6.35 Q6.6 8.4 8.55 10.25 9.9 10.95 11.95 10.8 L12.8 10.8 13.9 9.5" fill="#353535" fill-rule="evenodd" stroke="none"/>
    <path d="M13.65 6.35 L14.0 6.35 13.95 9.4 14.25 9.45 13.9 9.5 12.8 10.8 11.95 10.8 Q9.9 10.95 8.55 10.25 6.6 8.4 7.3 6.35 L13.65 6.35 M13.95 9.4 L13.9 9.5 13.95 9.4" fill="url(#gradient0)" fill-rule="evenodd" stroke="none"/>
    <path d="M13.9 9.5 L15.9 11.6 13.55 16.05 Q8.4 17.05 4.55 15.3 L3.75 12.5 4.65 10.65 -0.35 10.65 Q-1.05 9.75 -0.6 8.2 L4.65 8.2 4.65 6.85 5.5 5.6 1.65 1.45 Q2.25 0.2 3.95 0.0 L7.85 3.8 Q10.9 3.35 13.65 4.35 L13.65 6.35 M13.9 9.5 L13.95 9.4 M7.85 3.8 L6.3 4.35 5.5 5.6 M4.65 8.2 L4.65 10.65" fill="none" stroke="#171717" stroke-linecap="round" stroke-linejoin="round" stroke-width="1.0"/>
    <path d="M13.65 6.35 L14.0 6.35 13.95 9.4 M13.65 6.35 L7.3 6.35 Q6.6 8.4 8.55 10.25 9.9 10.95 11.95 10.8 L12.8 10.8 13.9 9.5" fill="none" stroke="#331212" stroke-linecap="round" stroke-linejoin="round" stroke-opacity="0.8980392" stroke-width="1.0"/>
    <path d="M11.0 10.85 L14.25 9.45 Q15.3 10.3 15.9 11.6 L14.55 15.8 12.0 17.0 9.5 16.35 11.0 10.85" fill="#4d4d4d" fill-rule="evenodd" stroke="none"/>
    <path d="M11.0 10.85 L9.5 16.35 5.6 16.35 3.55 14.25 4.2 11.55 7.2 9.6 11.0 10.85" fill="#797979" fill-rule="evenodd" stroke="none"/>
    <path d="M4.2 11.55 L2.8 8.95 2.8 7.5 6.3 6.7 7.2 9.6 4.2 11.55" fill="#585858" fill-rule="evenodd" stroke="none"/>
    <path d="M9.5 16.35 L12.0 17.0 14.55 15.8 15.9 11.6 Q15.3 10.3 14.25 9.45 L11.0 10.85 9.5 16.35 5.6 16.35 3.55 14.25 4.2 11.55 2.8 8.95 2.8 7.5 6.3 6.7 7.2 9.6 11.0 10.85 M4.2 11.55 L7.2 9.6" fill="none" stroke="#121212" stroke-linecap="round" stroke-linejoin="round" stroke-width="1.0"/>
    <path d="M8.65 12.65 L8.7 12.7 Q9.4 13.4 9.4 14.45 9.4 15.5 8.7 16.2 L8.2 16.6 8.5 15.45 8.7 15.15 9.0 14.2 9.0 13.95 Q9.0 13.2 8.65 12.65" fill="#252525" fill-rule="evenodd" stroke="none"/>
    <path d="M13.85 12.25 L15.9 11.6 14.55 15.8 12.55 16.7 13.85 12.25 M8.5 15.45 L8.3 15.65 8.0 15.9 7.55 16.2 7.4 16.25 6.6 16.35 Q5.65 16.35 4.9 15.65 4.25 14.95 4.25 13.95 4.25 12.95 4.9 12.25 L5.3 11.95 5.4 11.9 5.45 11.85 5.55 11.8 6.1 11.65 6.45 11.55 6.6 11.55 Q7.6 11.55 8.3 12.25 L8.35 12.3 8.65 12.65 Q9.0 13.2 9.0 13.95 L9.0 14.2 8.7 15.15 8.5 15.45" fill="#353535" fill-rule="evenodd" stroke="none"/>
    <path d="M13.85 12.25 L15.9 11.6 14.55 15.8 12.55 16.7 13.85 12.25 M8.5 15.45 L8.3 15.65 8.0 15.9 7.55 16.2 7.4 16.25 6.6 16.35 Q5.65 16.35 4.9 15.65 4.25 14.95 4.25 13.95 4.25 12.95 4.9 12.25 L5.3 11.95 5.4 11.9 5.45 11.85 5.55 11.8 6.1 11.65 6.45 11.55 6.6 11.55 Q7.6 11.55 8.3 12.25 L8.35 12.3 8.65 12.65 Q9.0 13.2 9.0 13.95 L9.0 14.2 8.7 15.15 8.5 15.45 Z" fill="none" stroke="#121212" stroke-linecap="round" stroke-linejoin="round" stroke-width="1.0"/>
    <path d="M8.2 4.65 L10.35 1.3 13.15 1.2 Q13.75 1.95 14.35 3.05 L14.85 4.35 14.85 5.65 10.1 5.65 8.2 4.65" fill="#252525" fill-rule="evenodd" stroke="none"/>
    <path d="M-0.9 1.8 L4.65 2.75 8.2 4.65 10.1 5.65 3.75 5.65 2.2 11.15 0.3 11.9 -0.85 10.85 0.5 10.15 Q-0.7 8.5 -0.7 5.95 L-2.25 5.95 -2.05 4.05 Q-1.8 3.05 -0.9 1.8" fill="#545454" fill-rule="evenodd" stroke="none"/>
    <path d="M-0.9 1.8 Q-0.4 1.1 1.2 -0.1 2.8 -1.3 5.4 -1.5 L9.35 -1.25 Q10.75 -0.85 11.6 -0.25 L13.15 1.2 10.35 1.3 8.2 4.65 4.65 2.75 -0.9 1.8 M6.2 0.7 L4.15 1.4 6.2 0.7 M9.1 1.6 L7.35 2.3 9.1 1.6" fill="#797979" fill-rule="evenodd" stroke="none"/>
    <path d="M-0.85 10.85 L-1.9 9.3 Q-2.35 7.6 -2.25 5.95 L-0.7 5.95 Q-0.7 8.5 0.5 10.15 L-0.85 10.85" fill="#250d0d" fill-rule="evenodd" stroke="none"/>
    <path d="M4.15 1.4 L6.2 0.7 M7.35 2.3 L9.1 1.6" fill="none" stroke="#353535" stroke-linecap="round" stroke-linejoin="round" stroke-width="1.0"/>
    <path d="M13.15 1.2 L11.6 -0.25 Q10.75 -0.85 9.35 -1.25 L5.4 -1.5 Q2.8 -1.3 1.2 -0.1 -0.4 1.1 -0.9 1.8 L4.65 2.75 8.2 4.65 10.1 5.65 3.75 5.65 2.2 11.15 0.3 11.9 -0.85 10.85 -1.9 9.3 Q-2.35 7.6 -2.25 5.95 L-2.05 4.05 Q-1.8 3.05 -0.9 1.8 M13.15 1.2 Q13.75 1.95 14.35 3.05 L14.85 4.35 14.85 5.65 10.1 5.65" fill="none" stroke="#0b0b0b" stroke-linecap="round" stroke-linejoin="round" stroke-width="1.0"/>
    <path d="M15.6 1.6 L16.65 1.6 Q17.55 2.8 17.0 5.1 L16.5 5.1 14.45 4.45 14.45 2.5 15.6 1.6 14.45 2.5 14.45 4.45 16.5 5.1 16.3 6.1 15.35 6.25 10.45 5.9 9.75 4.75 10.75 3.4 12.55 2.95 13.8 0.75 14.95 0.75 15.6 1.6 M3.15 5.3 L2.5 5.3 3.15 5.3 M1.7 4.55 L6.15 4.55 7.0 5.05 Q7.35 5.9 6.3 6.7 L3.45 6.7 2.8 8.95 Q1.0 9.8 0.45 8.2 L1.7 4.55" fill="#464646" fill-rule="evenodd" stroke="none"/>
    <path d="M2.5 5.3 L3.15 5.3" fill="none" stroke="#232323" stroke-linecap="round" stroke-linejoin="round" stroke-width="1.0"/>
    <path d="M16.5 5.1 L17.0 5.1 Q17.55 2.8 16.65 1.6 L15.6 1.6 14.45 2.5 14.45 4.45 16.5 5.1 16.3 6.1 15.35 6.25 10.45 5.9 9.75 4.75 10.75 3.4 12.55 2.95 13.8 0.75 14.95 0.75 15.6 1.6 M1.7 4.55 L6.15 4.55 7.0 5.05 Q7.35 5.9 6.3 6.7 L3.45 6.7 2.8 8.95 Q1.0 9.8 0.45 8.2 L1.7 4.55 Z" fill="none" stroke="#151515" stroke-linecap="round" stroke-linejoin="round" stroke-width="1.0"/>
  </g>
  <defs>
    <linearGradient gradientTransform="matrix(0.0043, 0.0, 0.0, 0.0027, 10.9, 8.6)" gradientUnits="userSpaceOnUse" id="gradient0" spreadMethod="pad" x1="-819.2" x2="819.2">
      <stop offset="0.0" stop-color="#3a0303"/>
      <stop offset="0.0" stop-color="#3a0303" stop-opacity="0.8"/>
      <stop offset="0.596078431372549" stop-color="#db0000" stop-opacity="0.8"/>
      <stop offset="0.9058823529411765" stop-color="#850000" stop-opacity="0.8"/>
    </linearGradient>
  </defs>
</svg>
