<?xml version="1.0" encoding="UTF-8" standalone="no"?>
<svg xmlns:ffdec="https://www.free-decompiler.com/flash" xmlns:xlink="http://www.w3.org/1999/xlink" ffdec:objectType="shape" height="19.1px" width="22.6px" xmlns="http://www.w3.org/2000/svg">
  <g transform="matrix(1.0, 0.0, 0.0, 1.0, 1.55, 0.45)">
    <path d="M15.95 14.3 L16.2 11.6 16.2 12.0 15.95 14.35 15.95 14.3" fill="#a8711e" fill-rule="evenodd" stroke="none"/>
    <path d="M11.65 17.25 Q12.45 14.65 13.85 14.15 L15.95 14.3 15.95 14.35 Q15.7 16.2 14.15 16.7 L11.65 17.25 M16.2 11.15 Q15.8 11.85 14.85 12.0 L12.1 11.75 Q11.3 11.35 11.25 10.45 11.2 9.5 12.65 9.05 14.1 8.55 16.2 9.4 L16.2 11.15 M14.3 10.5 L12.6 10.5 14.3 10.5 M15.3 15.4 L13.9 15.4 15.3 15.4" fill="#432c23" fill-rule="evenodd" stroke="none"/>
    <path d="M11.65 17.25 L11.1 17.25 10.55 17.3 Q7.75 17.5 4.8 16.05 L3.8 14.75 Q2.15 11.25 2.45 8.5 2.75 5.75 3.8 4.2 L4.6 3.4 Q5.75 2.5 8.05 2.3 11.2 2.0 12.8 2.95 L13.45 3.4 Q14.55 4.35 15.35 6.15 16.0 7.7 16.2 9.4 14.1 8.55 12.65 9.05 11.2 9.5 11.25 10.45 11.3 11.35 12.1 11.75 L14.85 12.0 Q15.8 11.85 16.2 11.15 L16.2 11.6 15.95 14.3 13.85 14.15 Q12.45 14.65 11.65 17.25" fill="#3f1313" fill-rule="evenodd" stroke="none"/>
    <path d="M12.6 10.5 L14.3 10.5" fill="none" stroke="#2e1f16" stroke-linecap="round" stroke-linejoin="round" stroke-width="1.75"/>
    <path d="M13.9 15.4 L15.3 15.4" fill="none" stroke="#2e1f16" stroke-linecap="round" stroke-linejoin="round" stroke-width="1.0"/>
    <path d="M16.2 9.4 Q16.0 7.7 15.35 6.15 14.55 4.35 13.45 3.4 L12.8 2.95 Q11.2 2.0 8.05 2.3 5.75 2.5 4.6 3.4 L3.8 4.2 Q2.75 5.75 2.45 8.5 2.15 11.25 3.8 14.75 L4.8 16.05 Q7.75 17.5 10.55 17.3 L11.1 17.25 11.65 17.25 Q12.45 14.65 13.85 14.15 L15.95 14.3 16.2 11.6 16.2 11.15 Q15.8 11.85 14.85 12.0 L12.1 11.75 Q11.3 11.35 11.25 10.45 11.2 9.5 12.65 9.05 14.1 8.55 16.2 9.4 L16.2 11.15 M15.95 14.35 L15.95 14.3 M11.65 17.25 L14.15 16.7 Q15.7 16.2 15.95 14.35" fill="none" stroke="#150303" stroke-linecap="round" stroke-linejoin="round" stroke-width="1.0"/>
    <path d="M10.05 5.55 L10.1 5.6 10.05 5.55 M8.8 9.1 L9.15 13.4 8.45 14.45 12.4 17.15 11.3 18.15 6.65 15.3 5.7 15.35 6.4 14.4 6.65 11.4 8.8 9.1 M6.65 15.3 L6.8 15.25 Q7.75 15.0 8.35 14.55 L8.45 14.45 8.35 14.55 Q7.75 15.0 6.8 15.25 L6.65 15.3" fill="#1e1e1e" fill-rule="evenodd" stroke="none"/>
    <path d="M5.3 0.55 L9.2 0.05 Q12.3 0.2 14.5 1.7 16.3 3.05 16.85 4.7 L17.0 5.55 11.85 5.4 10.1 5.6 11.85 5.4 17.0 5.55 17.05 5.75 17.05 6.15 17.65 7.6 13.85 7.6 Q11.05 7.35 8.8 9.1 L6.65 11.4 1.45 12.15 0.45 11.8 -0.25 11.55 0.25 9.65 1.8 10.25 5.8 9.65 8.6 6.65 Q9.1 6.0 10.1 5.6 L10.05 5.55 Q9.0 3.15 5.3 0.55" fill="#2c0101" fill-rule="evenodd" stroke="none"/>
    <path d="M5.3 0.55 Q9.0 3.15 10.05 5.55 L10.1 5.6 Q9.1 6.0 8.6 6.65 L5.8 9.65 1.8 10.25 0.25 9.65 Q0.2 7.2 0.8 4.6 1.5 3.25 2.45 2.5 3.35 1.7 5.3 0.55" fill="url(#gradient0)" fill-rule="evenodd" stroke="none"/>
    <path d="M5.7 15.35 L4.45 16.95 Q1.15 16.55 -1.05 14.7 0.25 13.25 0.45 11.8 L1.45 12.15 6.65 11.4 6.4 14.4 5.7 15.35" fill="url(#gradient1)" fill-rule="evenodd" stroke="none"/>
    <path d="M17.0 5.55 L16.85 4.7 Q16.3 3.05 14.5 1.7 12.3 0.2 9.2 0.05 L5.3 0.55 Q9.0 3.15 10.05 5.55 L10.1 5.6 Q9.1 6.0 8.6 6.65 L5.8 9.65 1.8 10.25 0.25 9.65 Q0.2 7.2 0.8 4.6 1.5 3.25 2.45 2.5 3.35 1.7 5.3 0.55 M10.1 5.6 L11.85 5.4 17.0 5.55 17.05 5.75 17.05 6.15 17.65 7.6 13.85 7.6 Q11.05 7.35 8.8 9.1 L9.15 13.4 8.45 14.45 12.4 17.15 11.3 18.15 6.65 15.3 5.7 15.35 4.45 16.95 Q1.15 16.55 -1.05 14.7 0.25 13.25 0.45 11.8 L-0.25 11.55 0.25 9.65 M6.65 11.4 L1.45 12.15 0.45 11.8 M8.8 9.1 L6.65 11.4 6.4 14.4 5.7 15.35 M8.45 14.45 L8.35 14.55 Q7.75 15.0 6.8 15.25 L6.65 15.3" fill="none" stroke="#040404" stroke-linecap="round" stroke-linejoin="round" stroke-width="1.0"/>
    <path d="M13.0 17.35 L13.0 12.1 14.5 12.2 14.5 17.55 13.0 17.35 M12.9 7.7 L12.9 4.15 14.5 4.3 14.5 7.8 12.9 7.7 14.5 7.8 14.5 7.9 14.5 8.1 12.9 7.95 12.9 7.75 12.9 7.7" fill="#2c0101" fill-rule="evenodd" stroke="none"/>
    <path d="M14.5 12.2 L19.85 12.6 Q20.5 14.5 19.7 18.1 L14.5 17.55 14.5 12.2" fill="url(#gradient2)" fill-rule="evenodd" stroke="none"/>
    <path d="M13.0 17.35 L12.1 17.25 7.8 14.8 7.8 7.5 5.95 6.35 Q3.95 4.8 5.95 3.4 L18.05 4.35 19.9 5.9 20.0 8.35 15.2 7.95 14.5 7.8 15.2 7.95 14.5 7.9 14.5 7.8 14.5 4.3 12.9 4.15 12.9 7.7 12.65 7.75 12.9 7.7 12.9 7.75 12.65 7.75 10.2 7.5 10.2 11.9 13.0 12.1 13.0 17.35" fill="url(#gradient3)" fill-rule="evenodd" stroke="none"/>
    <path d="M15.2 7.95 L20.0 8.35 19.9 5.9 18.05 4.35 5.95 3.4 Q3.95 4.8 5.95 6.35 L7.8 7.5 7.8 14.8 12.1 17.25 13.0 17.35 14.5 17.55 19.7 18.1 Q20.5 14.5 19.85 12.6 L14.5 12.2 13.0 12.1 10.2 11.9 10.2 7.5 12.65 7.75 12.9 7.7 14.5 7.8 15.2 7.95 14.5 7.9 M12.9 7.75 L12.65 7.75" fill="none" stroke="#040404" stroke-linecap="round" stroke-linejoin="round" stroke-width="1.0"/>
    <path d="M10.75 8.25 L20.0 8.9 20.0 12.7 10.75 12.05 10.75 8.25" fill="url(#gradient4)" fill-rule="evenodd" stroke="none"/>
    <path d="M10.75 8.25 L20.0 8.9 20.0 12.7 10.75 12.05 10.75 8.25 Z" fill="none" stroke="#2c0000" stroke-linecap="round" stroke-linejoin="round" stroke-opacity="0.7490196" stroke-width="1.0"/>
    <path d="M11.3 6.95 L20.55 7.75 20.55 9.15 11.85 8.45 11.85 11.4 20.55 12.55 20.55 14.2 11.15 12.85 10.2 11.9 10.2 7.5 11.3 6.95" fill="#1e1e1e" fill-rule="evenodd" stroke="none"/>
    <path d="M11.3 6.95 L20.55 7.75 20.55 9.15 11.85 8.45 11.85 11.4 20.55 12.55 20.55 14.2 11.15 12.85 10.2 11.9 10.2 7.5 11.3 6.95 Z" fill="none" stroke="#090909" stroke-linecap="round" stroke-linejoin="round" stroke-width="1.0"/>
  </g>
  <defs>
    <radialGradient cx="0" cy="0" gradientTransform="matrix(0.0122, 0.0, 0.0, 0.0122, 9.5, -1.35)" gradientUnits="userSpaceOnUse" id="gradient0" r="819.2" spreadMethod="pad">
      <stop offset="0.0" stop-color="#313030"/>
      <stop offset="1.0" stop-color="#121212"/>
    </radialGradient>
    <radialGradient cx="0" cy="0" gradientTransform="matrix(-0.0042, 0.0139, -0.0063, -0.0019, 8.55, 14.35)" gradientUnits="userSpaceOnUse" id="gradient1" r="819.2" spreadMethod="pad">
      <stop offset="0.0" stop-color="#313030"/>
      <stop offset="1.0" stop-color="#121212"/>
    </radialGradient>
    <radialGradient cx="0" cy="0" gradientTransform="matrix(0.0049, 0.0, 0.0, 0.0049, 21.25, 14.6)" gradientUnits="userSpaceOnUse" id="gradient2" r="819.2" spreadMethod="pad">
      <stop offset="0.0" stop-color="#313030"/>
      <stop offset="1.0" stop-color="#121212"/>
    </radialGradient>
    <radialGradient cx="0" cy="0" gradientTransform="matrix(0.0212, 0.0, 0.0, 0.0118, 18.8, 1.85)" gradientUnits="userSpaceOnUse" id="gradient3" r="819.2" spreadMethod="pad">
      <stop offset="0.0" stop-color="#313030"/>
      <stop offset="1.0" stop-color="#121212"/>
    </radialGradient>
    <linearGradient gradientTransform="matrix(0.0056, 4.0E-4, 0.0, 0.0023, 18.55, 11.0)" gradientUnits="userSpaceOnUse" id="gradient4" spreadMethod="pad" x1="-819.2" x2="819.2">
      <stop offset="0.1607843137254902" stop-color="#410000" stop-opacity="0.49803922"/>
      <stop offset="0.5019607843137255" stop-color="#8e0101" stop-opacity="0.49803922"/>
      <stop offset="0.6274509803921569" stop-color="#ff0000" stop-opacity="0.65882355"/>
      <stop offset="0.7294117647058823" stop-color="#b10000" stop-opacity="0.49803922"/>
      <stop offset="1.0" stop-color="#4d0000" stop-opacity="0.49803922"/>
    </linearGradient>
  </defs>
</svg>
