<?xml version="1.0" encoding="UTF-8" standalone="no"?>
<svg xmlns:ffdec="https://www.free-decompiler.com/flash" xmlns:xlink="http://www.w3.org/1999/xlink" ffdec:objectType="shape" height="17.0px" width="21.15px" xmlns="http://www.w3.org/2000/svg">
  <g transform="matrix(1.0, 0.0, 0.0, 1.0, 9.25, 14.35)">
    <path d="M9.0 -9.1 Q11.2 -6.95 11.4 -3.3 7.4 -6.05 9.0 -9.1" fill="#999999" fill-rule="evenodd" stroke="none"/>
    <path d="M9.9 -3.3 L10.05 -0.95 9.85 2.15 Q4.2 -0.3 -0.2 -3.35 -3.35 -5.55 -5.9 -8.0 L-6.85 -8.95 -7.65 -9.8 -8.75 -11.1 -6.6 -12.85 Q-5.25 -13.7 -3.85 -13.8 -1.4 -14.05 1.75 -12.9 4.9 -11.85 7.85 -9.1 6.15 -8.6 5.55 -7.6 4.9 -6.45 5.95 -4.9 7.45 -3.15 9.9 -3.3 M5.85 -2.0 Q8.5 -0.55 10.05 -0.95 8.5 -0.55 5.85 -2.0 M0.5 -6.3 L-0.2 -3.35 0.5 -6.3 -4.25 -10.9 0.5 -6.3" fill="url(#gradient0)" fill-rule="evenodd" stroke="none"/>
    <path d="M7.85 -9.1 L9.0 -9.1 Q7.4 -6.05 11.4 -3.3 L9.9 -3.3 Q7.45 -3.15 5.95 -4.9 4.9 -6.45 5.55 -7.6 6.15 -8.6 7.85 -9.1" fill="#111111" fill-rule="evenodd" stroke="none"/>
    <path d="M10.05 -0.95 Q8.5 -0.55 5.85 -2.0" fill="none" stroke="#000000" stroke-linecap="round" stroke-linejoin="round" stroke-width="1.0"/>
    <path d="M9.9 -3.3 L10.05 -0.95 9.85 2.15 Q4.2 -0.3 -0.2 -3.35 -3.35 -5.55 -5.9 -8.0 L-6.85 -8.95 -7.65 -9.8 -8.75 -11.1 -6.6 -12.85 Q-5.25 -13.7 -3.85 -13.8 -1.4 -14.05 1.75 -12.9 4.9 -11.85 7.85 -9.1 M-0.2 -3.35 L0.5 -6.3" fill="none" stroke="#001111" stroke-linecap="round" stroke-linejoin="round" stroke-width="1.0"/>
    <path d="M9.0 -9.1 Q11.2 -6.95 11.4 -3.3 7.4 -6.05 9.0 -9.1 M0.5 -6.3 L-4.25 -10.9" fill="none" stroke="#333333" stroke-linecap="round" stroke-linejoin="round" stroke-width="1.0"/>
    <path d="M7.85 -9.1 L9.0 -9.1 M11.4 -3.3 L9.9 -3.3 Q7.45 -3.15 5.95 -4.9 4.9 -6.45 5.55 -7.6 6.15 -8.6 7.85 -9.1" fill="none" stroke="#050505" stroke-linecap="round" stroke-linejoin="round" stroke-width="1.0"/>
  </g>
  <defs>
    <radialGradient cx="0" cy="0" gradientTransform="matrix(0.0233, 0.0, 0.0, 0.0233, 0.6, 4.0)" gradientUnits="userSpaceOnUse" id="gradient0" r="819.2" spreadMethod="pad">
      <stop offset="0.0" stop-color="#1f1f1f"/>
      <stop offset="0.6588235294117647" stop-color="#393939"/>
      <stop offset="1.0" stop-color="#6a6a6a"/>
    </radialGradient>
  </defs>
</svg>
