<?xml version="1.0" encoding="UTF-8" standalone="no"?>
<svg xmlns:ffdec="https://www.free-decompiler.com/flash" xmlns:xlink="http://www.w3.org/1999/xlink" ffdec:objectType="shape" height="26.9px" width="29.6px" xmlns="http://www.w3.org/2000/svg">
  <g transform="matrix(1.0, 0.0, 0.0, 1.0, 6.15, 3.15)">
    <path d="M3.6 6.75 L5.0 7.35 7.3 8.3 9.9 6.8 9.65 9.35 9.35 11.95 10.5 13.95 7.75 15.3 6.8 14.95 5.75 14.55 4.9 12.5 4.45 12.15 -0.2 13.55 -0.2 10.85 3.6 8.8 3.6 6.75" fill="#3a0606" fill-rule="evenodd" stroke="none"/>
    <path d="M20.1 19.7 L20.35 21.55 17.9 22.75 14.0 21.15 13.95 20.55 Q13.85 19.55 13.05 18.9 12.3 18.35 11.3 18.5 10.55 18.6 10.05 19.05 L7.15 17.9 6.45 18.9 5.35 18.6 3.85 18.15 2.3 16.5 -0.2 16.5 -1.4 14.8 -1.4 14.05 -0.2 13.55 4.45 12.15 4.9 12.5 5.75 14.55 6.8 14.95 7.75 15.3 10.5 13.95 11.05 14.9 12.65 17.85 Q16.55 19.35 20.1 19.7 M10.05 2.3 L12.9 3.1 12.95 3.15 8.35 4.55 5.0 7.35 8.35 4.55 12.95 3.15 Q15.6 4.65 15.35 6.35 L13.05 6.35 12.1 5.55 9.9 6.8 7.3 8.3 5.0 7.35 3.6 6.75 3.25 4.95 3.15 4.45 10.05 2.3 3.15 4.45 Q6.3 2.75 9.45 2.1 L10.05 2.3 M5.35 18.6 L5.35 16.6 6.8 14.95 5.35 16.6 5.35 18.6 M4.45 12.15 L-1.4 14.8 4.45 12.15" fill="#511717" fill-rule="evenodd" stroke="none"/>
    <path d="M9.2 21.0 L7.05 20.05 6.45 18.9 7.15 17.9 10.05 19.05 9.7 19.35 9.55 19.55 Q9.15 20.2 9.2 21.0 M3.25 4.95 L3.6 6.75 3.6 8.8 -0.2 10.85 -0.2 13.55 -1.4 14.05 -3.2 12.3 -3.45 10.15 -2.3 9.3 -1.2 8.45 -0.15 5.45 3.25 4.95 M0.1 6.2 L-0.6 8.0 0.1 6.2" fill="#411717" fill-rule="evenodd" stroke="none"/>
    <path d="M14.0 21.15 Q13.95 21.75 13.5 22.25 12.8 23.1 11.95 23.2 10.95 23.35 10.15 22.7 9.35 22.15 9.2 21.15 L9.2 21.0 Q9.15 20.2 9.55 19.55 L9.7 19.35 10.05 19.05 Q10.55 18.6 11.3 18.5 12.3 18.35 13.05 18.9 13.85 19.55 13.95 20.55 L14.0 21.15 M13.5 22.25 L9.55 19.55 13.5 22.25" fill="#513939" fill-rule="evenodd" stroke="none"/>
    <path d="M21.5 14.25 L20.1 17.4 20.1 19.7 Q16.55 19.35 12.65 17.85 L11.05 14.9 10.5 13.95 9.35 11.95 9.65 9.35 14.2 11.1 14.45 12.85 16.9 14.75 21.5 14.25 M20.1 17.4 L20.05 17.4 20.1 17.4 M20.05 17.4 L11.05 14.9 20.05 17.4" fill="#2c2c2c" fill-rule="evenodd" stroke="none"/>
    <path d="M13.05 6.35 L16.0 6.5 Q19.75 8.7 22.95 11.2 L21.5 14.25 16.9 14.75 14.45 12.85 14.2 11.1 9.65 9.35 9.9 6.8 12.1 5.55 13.05 6.35" fill="#434343" fill-rule="evenodd" stroke="none"/>
    <path d="M20.05 17.4 L20.1 17.4 M-0.6 8.0 L0.1 6.2" fill="none" stroke="#ff0000" stroke-linecap="round" stroke-linejoin="round" stroke-width="1.0"/>
    <path d="M9.65 9.35 L14.2 11.1 14.45 12.85 16.9 14.75 21.5 14.25 M11.05 14.9 L20.05 17.4" fill="none" stroke="#252525" stroke-linecap="round" stroke-linejoin="round" stroke-width="1.0"/>
    <path d="M3.6 6.75 L3.6 8.8 -0.2 10.85 -0.2 13.55" fill="none" stroke="#2c0404" stroke-linecap="round" stroke-linejoin="round" stroke-width="1.0"/>
    <path d="M20.1 19.7 L20.35 21.55 17.9 22.75 14.0 21.15 M9.2 21.0 L7.05 20.05 6.45 18.9 5.35 18.6 3.85 18.15 2.3 16.5 -0.2 16.5 0.05 16.85 M12.95 3.15 L12.9 3.1 10.05 2.3 9.45 2.1 M3.15 4.45 L3.25 4.95 3.6 6.75 5.0 7.35 7.3 8.3 9.9 6.8 12.1 5.55 13.05 6.35 15.35 6.35 Q15.6 4.65 12.95 3.15 M-0.2 13.55 L4.45 12.15 4.9 12.5 5.75 14.55 6.8 14.95 7.75 15.3 10.5 13.95 M10.05 19.05 L7.15 17.9 6.45 18.9 M3.25 4.95 L-0.15 5.45 -1.2 8.45 -2.3 9.3 -3.45 10.15 -3.2 12.3 -1.4 14.05 -0.2 13.55 M-1.4 14.8 L-1.4 14.05" fill="none" stroke="#170505" stroke-linecap="round" stroke-linejoin="round" stroke-width="1.0"/>
    <path d="M9.9 6.8 L9.65 9.35 9.35 11.95 10.5 13.95 11.05 14.9 12.65 17.85 Q16.55 19.35 20.1 19.7" fill="none" stroke="#191919" stroke-linecap="round" stroke-linejoin="round" stroke-width="1.0"/>
    <path d="M14.0 21.15 Q13.95 21.75 13.5 22.25 12.8 23.1 11.95 23.2 10.95 23.35 10.15 22.7 9.35 22.15 9.2 21.15 L9.2 21.0 Q9.15 20.2 9.55 19.55 L9.7 19.35 10.05 19.05 Q10.55 18.6 11.3 18.5 12.3 18.35 13.05 18.9 13.85 19.55 13.95 20.55 L14.0 21.15 M9.55 19.55 L13.5 22.25" fill="none" stroke="#200707" stroke-linecap="round" stroke-linejoin="round" stroke-width="1.0"/>
    <path d="M5.0 7.35 L8.35 4.55 12.95 3.15 M6.8 14.95 L5.35 16.6 5.35 18.6" fill="none" stroke="#481414" stroke-linecap="round" stroke-linejoin="round" stroke-width="1.0"/>
    <path d="M10.05 2.3 L3.15 4.45 M-0.2 16.5 L-1.4 14.8 4.45 12.15" fill="none" stroke="#7e2020" stroke-linecap="round" stroke-linejoin="round" stroke-width="1.0"/>
    <path d="M-2.3 9.3 L-5.65 -2.65" fill="none" stroke="#000000" stroke-linecap="round" stroke-linejoin="round" stroke-opacity="0.50980395" stroke-width="1.0"/>
    <path d="M13.05 6.35 L16.0 6.5 Q19.75 8.7 22.95 11.2 L21.5 14.25 20.1 17.4 20.1 19.7" fill="none" stroke="#202020" stroke-linecap="round" stroke-linejoin="round" stroke-width="1.0"/>
    <path d="M3.25 4.95 L3.6 6.75 7.3 8.3 12.1 5.55 13.05 6.35 15.35 6.35 Q15.6 4.65 12.95 3.15 L12.9 3.1 9.45 2.1 3.1 3.95 3.25 4.95 -0.15 5.45 -1.2 8.45 -3.45 10.15 -3.2 12.3 -1.4 14.05 4.05 11.8 4.9 12.5 5.75 14.55 7.75 15.3 10.5 13.95 M-1.4 14.05 L-1.4 14.8 0.05 16.85 2.3 16.5 3.85 18.15 6.45 18.9 7.15 17.9 10.05 19.05 M6.45 18.9 L7.05 20.05 9.2 21.0" fill="none" stroke="#170505" stroke-linecap="round" stroke-linejoin="round" stroke-width="1.0"/>
    <path d="M11.1 11.3 L12.8 12.0 M17.8 10.7 L19.95 11.65 M12.3 8.3 L15.85 9.85 M15.85 11.5 L19.05 13.0" fill="none" stroke="#ff0000" stroke-linecap="round" stroke-linejoin="round" stroke-width="1.0"/>
    <path d="M8.15 17.35 Q8.55 17.2 9.2 18.25 L7.9 19.55 Q6.55 20.4 4.4 20.3 L3.2 20.1 Q2.6 19.95 1.9 19.45 L0.55 18.25 -0.25 17.0 Q-0.45 16.45 -0.25 16.2 -0.05 15.9 0.3 15.85 0.6 15.8 0.85 16.3 1.05 16.8 1.8 17.7 2.5 18.55 3.75 18.85 L4.2 18.85 Q5.85 19.05 6.8 18.3 L8.15 17.35" fill="#4f3f3f" fill-rule="evenodd" stroke="none"/>
    <path d="M8.15 17.35 L6.8 18.3 Q5.85 19.05 4.2 18.85 L3.75 18.85 Q2.5 18.55 1.8 17.7 1.05 16.8 0.85 16.3 0.6 15.8 0.3 15.85 -0.05 15.9 -0.25 16.2 -0.45 16.45 -0.25 17.0 L0.55 18.25 1.9 19.45 Q2.6 19.95 3.2 20.1 L4.4 20.3 Q6.55 20.4 7.9 19.55 L9.2 18.25 Q8.55 17.2 8.15 17.35 Z" fill="none" stroke="#352727" stroke-linecap="round" stroke-linejoin="round" stroke-width="1.0"/>
  </g>
</svg>
