<?xml version="1.0" encoding="UTF-8" standalone="no"?>
<svg xmlns:ffdec="https://www.free-decompiler.com/flash" xmlns:xlink="http://www.w3.org/1999/xlink" ffdec:objectType="shape" height="46.5px" width="38.4px" xmlns="http://www.w3.org/2000/svg">
  <g transform="matrix(1.0, 0.0, 0.0, 1.0, 6.5, 23.75)">
    <path d="M19.05 -13.15 Q19.85 -12.7 21.05 -13.55 20.65 -13.25 20.65 -12.65 20.6 -12.1 20.85 -11.65 21.65 -10.85 22.65 -10.55 L24.4 -10.9 Q25.3 -11.25 25.35 -12.25 28.75 -11.2 30.55 -7.7 32.3 -4.3 31.8 -0.65 31.35 3.75 28.35 7.25 L26.5 9.15 Q25.45 10.25 24.9 11.25 L24.0 14.15 22.95 16.95 Q20.85 21.15 14.85 22.25 10.0 23.3 4.55 22.05 0.75 20.95 -0.75 18.75 -1.65 16.9 -1.65 13.85 -1.65 10.45 -2.15 9.45 -2.65 8.45 -2.2 6.6 -1.7 4.8 0.4 2.3 2.45 -0.15 4.4 -0.85 L6.55 -1.4 8.55 -2.15 Q9.5 -2.9 9.75 -4.05 10.0 -5.3 9.2 -5.95 7.8 -6.9 5.15 -4.25 L3.05 -3.05 Q1.95 -2.8 1.5 -3.35 L2.3 -5.55 2.7 -7.55 Q2.85 -9.15 2.15 -11.2 L0.95 -14.75 Q0.2 -16.7 0.35 -18.45 0.45 -20.5 1.85 -21.65 3.65 -23.2 8.15 -22.25 L15.65 -20.95 19.25 -20.75 Q21.35 -21.05 22.0 -22.6 22.8 -21.0 21.05 -18.65 L19.65 -16.95 Q18.85 -15.95 18.6 -15.1 18.4 -14.55 18.5 -13.9 18.6 -13.35 19.05 -13.15 M-2.4 -12.3 Q-2.25 -10.4 -1.65 -8.95 L-1.1 -8.25 -0.75 -7.45 -0.65 -6.7 -0.75 -5.95 Q-1.75 -2.3 -4.85 -1.45 -3.35 -2.3 -3.35 -3.35 -3.35 -4.1 -4.45 -4.75 L-5.2 -5.1 -5.95 -5.65 Q-6.4 -6.2 -6.5 -6.95 -6.55 -7.8 -6.25 -8.45 -6.0 -9.45 -4.3 -10.7 L-2.65 -12.05 -2.4 -12.3 M28.6 -23.5 L30.0 -23.75 Q29.35 -20.75 27.15 -18.35 25.85 -17.45 25.05 -17.45 25.45 -19.7 24.05 -21.1 24.35 -21.7 25.35 -22.15 L26.45 -22.75 27.65 -23.15 28.6 -23.5" fill="#ffffff" fill-opacity="0.49803922" fill-rule="evenodd" stroke="none"/>
  </g>
</svg>
