<?xml version="1.0" encoding="UTF-8" standalone="no"?>
<svg xmlns:ffdec="https://www.free-decompiler.com/flash" xmlns:xlink="http://www.w3.org/1999/xlink" ffdec:objectType="shape" height="44.05px" width="38.85px" xmlns="http://www.w3.org/2000/svg">
  <g transform="matrix(1.0, 0.0, 0.0, 1.0, 8.55, 21.5)">
    <path d="M17.35 -21.5 Q15.35 -20.35 14.75 -17.95 14.15 -15.65 15.5 -13.8 16.85 -11.85 19.35 -11.6 21.8 -11.25 23.6 -12.7 24.05 -11.65 25.4 -10.35 L27.55 -8.15 Q29.95 -5.3 30.3 -1.35 30.5 2.55 28.45 5.75 L25.85 9.05 Q24.3 11.0 23.75 12.5 23.35 13.3 23.0 15.1 L22.1 17.7 Q20.35 20.9 14.45 22.05 L10.55 22.55 5.55 22.15 Q2.7 21.55 -0.15 18.9 -3.1 16.3 -3.15 9.55 -3.25 2.65 -0.55 0.55 0.5 -0.15 2.8 -0.65 5.15 -1.2 6.1 -1.7 8.1 -2.9 8.35 -5.65 8.5 -8.35 6.7 -9.75 L5.85 -7.7 Q3.75 -12.05 3.75 -14.75 3.75 -16.75 4.65 -18.4 5.5 -20.2 7.15 -20.9 L11.75 -21.25 17.35 -21.5 M25.05 -17.6 L24.3 -19.75 27.05 -19.95 Q27.35 -19.4 26.8 -18.85 25.95 -17.7 25.05 -17.6 M-4.75 -6.8 Q-5.0 -6.05 -4.45 -5.55 -3.85 -5.15 -4.0 -5.05 L-4.2 -4.95 -7.25 -5.05 Q-8.55 -5.75 -8.55 -7.3 -8.55 -8.3 -7.7 -9.9 L-5.75 -12.0 Q-5.8 -11.0 -5.35 -9.7 -4.9 -8.4 -3.15 -8.05 -4.55 -7.35 -4.75 -6.8" fill="#ffffff" fill-opacity="0.49803922" fill-rule="evenodd" stroke="none"/>
  </g>
</svg>
