<?xml version="1.0" encoding="UTF-8" standalone="no"?>
<svg xmlns:ffdec="https://www.free-decompiler.com/flash" xmlns:xlink="http://www.w3.org/1999/xlink" ffdec:objectType="shape" height="48.45px" width="37.45px" xmlns="http://www.w3.org/2000/svg">
  <g transform="matrix(1.0, 0.0, 0.0, 1.0, 4.5, 27.9)">
    <path d="M16.35 -18.95 L21.9 -11.25 23.3 -9.15 24.25 -6.85 Q24.6 -5.7 24.35 -4.45 24.1 -3.15 23.15 -2.35 L21.45 -1.1 Q20.55 -0.4 20.6 0.3 20.2 2.35 22.0 7.0 23.7 11.3 23.15 13.9 22.55 17.4 18.5 19.4 15.4 20.7 11.2 20.55 5.4 20.25 2.2 17.55 -1.15 14.7 -3.0 7.3 L-4.4 -0.4 Q-4.75 -3.0 -4.0 -4.05 -3.25 -4.95 -1.7 -5.25 L1.05 -5.6 Q4.25 -6.05 6.7 -8.55 9.2 -11.1 9.6 -14.35 9.95 -16.0 9.05 -16.45 L6.95 -16.6 Q4.95 -16.35 3.15 -17.4 1.35 -18.45 0.5 -20.25 -0.25 -22.05 0.2 -24.1 0.6 -26.2 2.2 -27.55 1.8 -24.55 3.3 -22.35 4.25 -21.15 5.75 -20.75 L8.5 -20.95 10.65 -22.2 Q12.3 -22.8 14.0 -21.65 L16.35 -18.95 M32.85 -22.0 Q32.4 -22.85 30.45 -23.4 L28.9 -24.1 Q30.15 -26.1 32.35 -27.9 33.25 -25.05 32.85 -22.0" fill="#ffffff" fill-opacity="0.49803922" fill-rule="evenodd" stroke="none"/>
  </g>
</svg>
