<?xml version="1.0" encoding="UTF-8" standalone="no"?>
<svg xmlns:ffdec="https://www.free-decompiler.com/flash" xmlns:xlink="http://www.w3.org/1999/xlink" ffdec:objectType="shape" height="51.3px" width="37.2px" xmlns="http://www.w3.org/2000/svg">
  <g transform="matrix(1.0, 0.0, 0.0, 1.0, 4.5, 29.55)">
    <path d="M32.35 -29.55 L32.6 -23.7 Q32.85 -22.9 32.45 -22.4 32.05 -21.95 31.45 -22.0 L30.15 -22.3 Q28.35 -22.7 24.95 -21.75 28.6 -23.4 30.15 -25.2 32.2 -27.2 32.35 -29.55 M13.8 -19.35 Q14.9 -18.8 16.2 -16.75 17.5 -15.45 20.2 -14.7 L24.65 -13.35 Q28.25 -11.8 29.6 -7.55 30.9 -3.35 28.85 -0.1 27.5 -0.1 26.4 1.0 25.4 2.0 25.2 3.5 24.8 4.55 24.9 6.25 L24.95 8.95 Q24.9 12.45 22.9 15.55 20.95 18.55 17.8 20.3 14.75 21.95 11.1 21.75 7.5 21.5 4.55 19.65 0.9 17.5 0.55 13.5 0.45 12.95 0.65 11.1 0.9 9.55 0.55 8.65 0.35 7.55 -0.7 6.3 L-2.7 4.15 Q-3.85 3.0 -4.25 1.7 -4.8 0.2 -4.15 -1.05 -3.3 -2.65 0.45 -2.75 4.55 -2.9 5.7 -4.15 6.6 -5.05 6.4 -6.8 6.3 -8.25 5.35 -9.6 4.85 -10.55 3.4 -11.95 2.0 -13.4 1.55 -14.15 -0.75 -17.1 -0.35 -21.15 -0.05 -25.0 3.25 -27.2 2.05 -26.35 1.9 -24.55 1.7 -22.6 2.75 -21.1 3.95 -19.8 5.9 -19.35 7.65 -19.0 9.6 -19.35 L11.75 -19.65 13.8 -19.35" fill="#ffffff" fill-opacity="0.49803922" fill-rule="evenodd" stroke="none"/>
  </g>
</svg>
