<?xml version="1.0" encoding="UTF-8" standalone="no"?>
<svg xmlns:ffdec="https://www.free-decompiler.com/flash" xmlns:xlink="http://www.w3.org/1999/xlink" ffdec:objectType="shape" height="20.35px" width="23.5px" xmlns="http://www.w3.org/2000/svg">
  <g transform="matrix(1.0, 0.0, 0.0, 1.0, 11.45, 17.7)">
    <path d="M3.8 -1.2 Q3.15 0.55 0.9 0.8 -1.45 1.0 -3.95 -0.8 L-4.2 -2.05 Q-4.45 -2.75 -5.15 -3.15 L-3.1 -3.9 -2.0 -2.7 -0.9 -2.35 0.15 -2.1 1.8 -2.5 2.5 -1.45 3.8 -1.2" fill="#121313" fill-rule="evenodd" stroke="none"/>
    <path d="M3.8 -1.2 Q3.15 0.55 0.9 0.8 -1.45 1.0 -3.95 -0.8 L-4.2 -2.05 Q-4.45 -2.75 -5.15 -3.15 L-3.1 -3.9 -2.0 -2.7 -0.9 -2.35 0.15 -2.1 1.8 -2.5 2.5 -1.45 3.8 -1.2 Z" fill="none" stroke="#000000" stroke-linecap="round" stroke-linejoin="round" stroke-width="0.9500000000000001"/>
    <path d="M5.9 -13.5 L6.65 -13.15 7.5 -12.6 7.85 -11.65 10.5 -10.1 11.1 -8.45 11.25 -6.7 11.15 -5.15 9.8 -3.15 4.35 -4.6 2.55 -7.9 2.8 -8.55 2.3 -10.2 1.8 -11.45 3.3 -11.8 5.9 -13.5" fill="url(#gradient0)" fill-rule="evenodd" stroke="none"/>
    <path d="M-2.4 -2.95 L-1.6 -3.75 -2.4 -5.25 -2.1 -6.65 -3.2 -8.3 -5.45 -8.2 -6.5 -10.1 -8.95 -11.25 -7.95 -12.65 -5.05 -11.0 -4.25 -11.85 0.45 -8.3 0.55 -4.4 2.05 -2.25 -0.65 -2.05 Q-1.35 -2.0 -1.95 -2.5 L-2.4 -2.95" fill="#1f2023" fill-rule="evenodd" stroke="none"/>
    <path d="M3.85 -11.9 L5.85 -9.6 8.0 -9.8 Q9.05 -8.8 9.15 -7.15 L7.7 -6.05 8.55 -3.65" fill="none" stroke="#191a1d" stroke-linecap="round" stroke-linejoin="round" stroke-width="0.9500000000000001"/>
    <path d="M-0.15 -12.15 L1.65 -11.6 2.05 -11.2 2.55 -10.55 2.9 -9.75 2.6 -8.0 4.65 -4.6 4.25 -1.2 2.35 -1.6 1.65 -3.25 0.6 -4.1 0.5 -5.85 0.75 -7.15 -0.4 -9.15 -1.75 -10.45 -0.15 -12.15" fill="#212222" fill-rule="evenodd" stroke="none"/>
    <path d="M10.0 -3.3 L10.2 -2.95 10.4 -2.35 10.4 -1.65 8.1 -2.5 7.55 -3.7 10.0 -3.3" fill="#111212" fill-rule="evenodd" stroke="none"/>
    <path d="M1.65 -17.2 L3.4 -16.55 6.5 -14.05 5.4 -13.05 1.65 -11.35 -0.3 -12.6 -1.8 -10.05 -4.55 -11.8 -2.9 -13.2 -3.25 -15.35 -0.3 -15.65 1.65 -17.2" fill="#1b1c1c" fill-rule="evenodd" stroke="none"/>
    <path d="M4.0 -16.1 L2.65 -15.25 Q1.9 -14.6 1.8 -13.8 L-2.6 -13.5" fill="none" stroke="#181818" stroke-linecap="round" stroke-linejoin="round" stroke-width="0.9500000000000001"/>
    <path d="M2.0 -11.4 L3.85 -12.1 Q5.85 -13.0 6.55 -14.0 L4.7 -15.85 Q2.9 -17.2 1.75 -17.25 L0.0 -15.6 -3.05 -15.3" fill="none" stroke="#0d0d0d" stroke-linecap="round" stroke-linejoin="round" stroke-width="0.9500000000000001"/>
    <path d="M6.25 -13.3 Q7.65 -12.4 7.9 -11.95 8.25 -11.25 10.65 -10.0 12.15 -6.1 10.05 -3.5" fill="none" stroke="#0d0e0f" stroke-linecap="round" stroke-linejoin="round" stroke-width="0.9500000000000001"/>
    <path d="M1.85 -11.35 L0.0 -12.5" fill="none" stroke="#111111" stroke-linecap="round" stroke-linejoin="round" stroke-width="0.9500000000000001"/>
    <path d="M10.0 -3.15 L4.45 -4.6 2.65 -7.85" fill="none" stroke="#0d0e0f" stroke-linecap="round" stroke-linejoin="round" stroke-width="0.9500000000000001"/>
    <path d="M9.95 -3.2 Q10.7 -2.35 10.3 -0.75 L9.7 0.7 6.55 -0.7 2.5 -1.6 1.75 -2.9 0.6 -4.15 0.5 -5.55" fill="none" stroke="#0a0a0a" stroke-linecap="round" stroke-linejoin="round" stroke-width="0.9500000000000001"/>
    <path d="M-8.1 -12.55 Q-9.05 -11.1 -9.25 -9.5 -9.5 -6.75 -6.85 -5.1 L-5.15 -3.1" fill="none" stroke="#000000" stroke-linecap="round" stroke-linejoin="round" stroke-width="0.9500000000000001"/>
    <path d="M11.15 -1.5 Q12.25 1.3 10.3 2.45 L5.55 0.75 4.35 -1.45 4.35 -4.75 7.7 -3.8 8.2 -2.4 11.15 -1.5" fill="#212222" fill-rule="evenodd" stroke="none"/>
    <path d="M8.2 -2.4 L11.1 -1.35 Q11.9 -0.35 11.4 1.05 10.95 2.35 10.3 2.2 L5.6 0.6 4.3 -1.55 4.35 -4.7 7.6 -3.75 8.2 -2.4 Z" fill="none" stroke="#0d0d0d" stroke-linecap="round" stroke-linejoin="round" stroke-width="0.9500000000000001"/>
    <path d="M1.9 -2.35 Q1.9 -1.9 -0.05 -2.1 -2.25 -2.3 -3.45 -4.45 L-5.0 -3.15" fill="none" stroke="#101113" stroke-linecap="round" stroke-linejoin="round" stroke-width="0.9500000000000001"/>
    <path d="M1.95 -11.3 Q3.15 -9.35 2.6 -8.0" fill="none" stroke="#0d0e0f" stroke-linecap="round" stroke-linejoin="round" stroke-width="0.9500000000000001"/>
    <path d="M-6.8 -15.9 L-4.3 -15.65 -3.5 -15.45 -3.0 -14.9 -2.85 -13.95 -3.0 -12.9 -4.9 -11.05 -8.85 -13.3 -6.8 -15.9" fill="#272828" fill-rule="evenodd" stroke="none"/>
    <path d="M-10.1 -11.7 L-6.55 -10.05 -5.35 -8.15 -3.2 -8.3 -2.05 -6.9 -2.2 -4.8 -1.65 -3.55 -4.65 -1.95 -7.65 -2.65 -8.9 -4.85 -11.05 -6.3 -11.1 -9.9 -10.5 -11.8 -10.1 -11.7" fill="#1b1c1c" fill-rule="evenodd" stroke="none"/>
    <path d="M-10.75 -10.4 L-7.7 -8.8 -6.35 -6.85 -4.25 -6.45 -3.9 -4.95 -4.5 -4.25 -3.7 -2.55 -10.75 -10.4" fill="#1b1c1c" fill-rule="evenodd" stroke="none"/>
    <path d="M-10.75 -10.4 L-7.7 -8.8 -6.35 -6.85 -4.25 -6.45 -3.9 -4.95 -4.5 -4.25 -3.7 -2.55" fill="none" stroke="#181818" stroke-linecap="round" stroke-linejoin="round" stroke-width="0.9500000000000001"/>
    <path d="M-4.2 -11.7 L-0.6 -9.25 Q1.1 -7.6 0.5 -5.55" fill="none" stroke="#101113" stroke-linecap="round" stroke-linejoin="round" stroke-width="0.9500000000000001"/>
    <path d="M-1.6 -3.6 L-4.55 -2.0 -7.6 -2.6 Q-8.2 -4.6 -11.0 -6.35 -11.1 -10.15 -10.25 -11.9 L-6.55 -10.05 -5.35 -8.3 -3.0 -8.25 -1.95 -6.75 -2.3 -5.15 -1.6 -3.6 Z" fill="none" stroke="#0a0a0a" stroke-linecap="round" stroke-linejoin="round" stroke-width="0.9500000000000001"/>
    <path d="M-3.05 -12.95 Q-2.65 -13.25 -2.75 -14.1 -2.9 -15.0 -3.55 -15.4 L-5.4 -15.85 -6.85 -16.0 -8.85 -13.25 -4.95 -11.05 -3.05 -12.95 Z" fill="none" stroke="#0d0d0d" stroke-linecap="round" stroke-linejoin="round" stroke-width="0.9500000000000001"/>
    <path d="M-0.1 -12.55 L-1.85 -10.3" fill="none" stroke="#111111" stroke-linecap="round" stroke-linejoin="round" stroke-width="0.9500000000000001"/>
    <path d="M-4.65 -2.45 L-7.25 -2.95 -7.3 -3.1 Q-8.05 -4.9 -10.3 -6.45 L-10.55 -6.6 -10.55 -6.9 -10.55 -9.1 -10.45 -9.75 -8.15 -8.55 -7.9 -8.3 -6.85 -6.8 -6.55 -6.45 -6.2 -6.35 -5.75 -6.3 -4.7 -6.1 -4.6 -6.05 -4.55 -5.9 -4.4 -5.05 -4.6 -4.85 -4.7 -4.7 -4.8 -4.6 -4.9 -4.35 -4.95 -4.15 -4.25 -2.7 -4.65 -2.45" fill="#212222" fill-rule="evenodd" stroke="none"/>
    <path d="M-10.0 -8.6 L-10.05 -8.25" fill="none" stroke="#67462d" stroke-linecap="round" stroke-linejoin="round" stroke-width="0.9500000000000001"/>
    <path d="M-9.4 -7.15 L-9.4 -6.8" fill="none" stroke="#67462d" stroke-linecap="round" stroke-linejoin="round" stroke-width="0.9500000000000001"/>
    <path d="M-8.35 -7.95 L-8.4 -7.6" fill="none" stroke="#67462d" stroke-linecap="round" stroke-linejoin="round" stroke-width="0.9500000000000001"/>
    <path d="M-2.3 -14.1 L-2.45 -14.75 -2.5 -14.9 0.15 -15.2 1.9 -16.75 1.95 -16.75 2.6 -16.55 3.3 -16.2 3.25 -16.15 2.6 -15.75 Q1.75 -15.1 1.5 -14.35 1.45 -14.2 1.15 -14.2 L0.9 -14.2 0.65 -14.15 0.15 -14.15 -0.05 -14.1 -0.55 -14.1 -0.8 -14.05 -1.2 -14.05 -1.55 -14.0 -2.0 -14.0 -2.25 -13.95 -2.3 -13.95 -2.3 -14.1" fill="#212222" fill-rule="evenodd" stroke="none"/>
    <path d="M0.0 -10.65 L0.55 -10.15" fill="none" stroke="#ed8b41" stroke-linecap="round" stroke-linejoin="round" stroke-width="0.9500000000000001"/>
    <path d="M5.6 -3.0 L6.75 -2.7" fill="none" stroke="#ed8b41" stroke-linecap="round" stroke-linejoin="round" stroke-width="0.9500000000000001"/>
    <path d="M11.25 0.85 Q9.25 1.0 7.95 -0.5" fill="none" stroke="#000000" stroke-linecap="round" stroke-linejoin="round" stroke-width="0.9500000000000001"/>
  </g>
  <defs>
    <radialGradient cx="0" cy="0" gradientTransform="matrix(0.0059, 6.0E-4, -6.0E-4, 0.0062, 4.6, -8.15)" gradientUnits="userSpaceOnUse" id="gradient0" r="819.2" spreadMethod="pad">
      <stop offset="0.0" stop-color="#32373c"/>
      <stop offset="1.0" stop-color="#1f2023"/>
    </radialGradient>
  </defs>
</svg>
