<?xml version="1.0" encoding="UTF-8" standalone="no"?>
<svg xmlns:ffdec="https://www.free-decompiler.com/flash" xmlns:xlink="http://www.w3.org/1999/xlink" ffdec:objectType="shape" height="19.45px" width="33.85px" xmlns="http://www.w3.org/2000/svg">
  <g transform="matrix(1.0, 0.0, 0.0, 1.0, 11.8, 16.65)">
    <path d="M-4.65 -14.0 L-1.75 -14.85 Q-3.95 -13.35 -3.8 -11.5 -2.15 -11.0 -2.9 -9.65 L-3.8 -8.45 Q-4.9 -6.05 -2.95 -4.1 L-1.7 -3.0 0.75 -3.8 3.05 -0.8 -0.2 -0.8 -2.45 -1.15 Q-3.95 -2.45 -4.1 -3.15 L-8.65 -3.9 Q-8.2 -6.25 -10.45 -7.9 -12.1 -8.7 -10.6 -10.05 -7.65 -10.9 -7.5 -11.5 L-6.75 -12.8 Q-6.3 -13.4 -4.65 -14.0" fill="#121718" fill-rule="evenodd" stroke="none"/>
    <path d="M8.95 -10.55 L11.35 -9.05 8.0 -8.9 Q7.45 -9.65 8.95 -10.55" fill="#445769" fill-rule="evenodd" stroke="none"/>
    <path d="M4.35 -8.4 Q2.95 -7.9 2.8 -5.85 L4.15 -3.45 6.9 -2.7 Q7.85 -2.05 9.3 -2.2 L10.2 -2.2 Q11.9 -1.9 11.15 1.5 6.35 0.9 3.05 -0.8 L0.75 -3.8 -1.7 -3.0 -2.95 -4.1 Q-4.9 -6.05 -3.8 -8.45 L-2.9 -9.65 -1.0 -9.65 Q2.1 -12.8 3.3 -15.4 L4.15 -15.15 Q5.2 -14.85 6.2 -14.0 L3.25 -10.6 Q1.9 -9.25 2.2 -8.45 L4.35 -8.4" fill="url(#gradient0)" fill-rule="evenodd" stroke="none"/>
    <path d="M-2.9 -9.65 Q-2.15 -11.0 -3.8 -11.5 -3.95 -13.35 -1.75 -14.85 L-1.15 -16.05 Q-0.1 -16.25 0.8 -16.05 L3.3 -15.4 Q2.1 -12.8 -1.0 -9.65 L-2.9 -9.65 M6.2 -14.0 L7.1 -13.05 8.0 -11.3 8.95 -10.55 Q7.45 -9.65 8.0 -8.9 L11.35 -9.05 Q12.15 -8.0 11.85 -7.45 11.45 -7.0 11.0 -7.15 L9.5 -7.1 8.75 -6.95 Q6.9 -6.65 5.05 -5.35 5.75 -3.5 6.9 -2.7 L4.15 -3.45 2.8 -5.85 Q2.95 -7.9 4.35 -8.4 L2.2 -8.45 Q1.9 -9.25 3.25 -10.6 L6.2 -14.0" fill="#152026" fill-rule="evenodd" stroke="none"/>
    <path d="M3.05 -0.8 L3.7 0.7 Q1.0 3.4 -2.45 0.65 L-2.45 -1.15 -0.2 -0.8 3.05 -0.8" fill="#333333" fill-rule="evenodd" stroke="none"/>
    <path d="M9.5 -7.1 Q10.95 -5.5 10.2 -2.2 L9.3 -2.2 Q7.85 -2.05 6.9 -2.7 5.75 -3.5 5.05 -5.35 6.9 -6.65 8.75 -6.95 L9.5 -7.1" fill="url(#gradient1)" fill-rule="evenodd" stroke="none"/>
    <path d="M-2.45 -1.15 L-0.2 -0.8 3.05 -0.8 3.7 0.7 Q1.0 3.4 -2.45 0.65 L-2.45 -1.15 Q-3.95 -2.45 -4.1 -3.15 L-8.65 -3.9 Q-8.2 -6.25 -10.45 -7.9 -12.1 -8.7 -10.6 -10.05 -7.65 -10.9 -7.5 -11.5 L-6.75 -12.8 Q-6.3 -13.4 -4.65 -14.0 L-1.75 -14.85" fill="none" stroke="#070a0a" stroke-linecap="round" stroke-linejoin="round" stroke-width="1.0"/>
    <path d="M3.05 -0.8 L0.75 -3.8 -1.7 -3.0 -2.95 -4.1 Q-4.9 -6.05 -3.8 -8.45 L-2.9 -9.65 Q-2.15 -11.0 -3.8 -11.5 -3.95 -13.35 -1.75 -14.85" fill="none" stroke="#070a0a" stroke-linecap="round" stroke-linejoin="round" stroke-width="1.0"/>
    <path d="M9.5 -7.1 Q10.95 -5.5 10.2 -2.2" fill="none" stroke="#4b89b1" stroke-linecap="round" stroke-linejoin="round" stroke-width="1.0"/>
    <path d="M-1.75 -14.85 L-1.15 -16.05 Q-0.1 -16.25 0.8 -16.05 L3.3 -15.4 M11.35 -9.05 Q12.15 -8.0 11.85 -7.45 11.45 -7.0 11.0 -7.15 L9.5 -7.1 8.75 -6.95 Q6.9 -6.65 5.05 -5.35 5.75 -3.5 6.9 -2.7 M6.2 -14.0 L7.1 -13.05 8.0 -11.3 8.95 -10.55" fill="none" stroke="#070a0a" stroke-linecap="round" stroke-linejoin="round" stroke-width="1.0"/>
    <path d="M-2.9 -9.65 L-1.0 -9.65 Q2.1 -12.8 3.3 -15.4 L4.15 -15.15 Q5.2 -14.85 6.2 -14.0 L3.25 -10.6 Q1.9 -9.25 2.2 -8.45 L4.35 -8.4 Q2.95 -7.9 2.8 -5.85 L4.15 -3.45 6.9 -2.7 Q7.85 -2.05 9.3 -2.2 L10.2 -2.2 Q11.9 -1.9 11.15 1.5 6.35 0.9 3.05 -0.8 M8.95 -10.55 L11.35 -9.05 8.0 -8.9 Q7.45 -9.65 8.95 -10.55 Z" fill="none" stroke="#070a0a" stroke-linecap="round" stroke-linejoin="round" stroke-width="1.0"/>
    <path d="M6.15 -1.3 Q7.95 -1.0 7.95 0.3 5.0 2.3 0.3 2.3 -4.4 2.3 -6.35 -2.1 -5.9 -4.0 -4.15 -3.1 -2.75 -0.05 0.5 0.25 3.7 0.5 6.15 -1.3" fill="#47656b" fill-rule="evenodd" stroke="none"/>
    <path d="M6.15 -1.3 Q7.95 -1.0 7.95 0.3 5.0 2.3 0.3 2.3 -4.4 2.3 -6.35 -2.1 -5.9 -4.0 -4.15 -3.1 -2.75 -0.05 0.5 0.25 3.7 0.5 6.15 -1.3 Z" fill="none" stroke="#070a0a" stroke-linecap="round" stroke-linejoin="round" stroke-width="1.0"/>
    <path d="M9.3 -6.6 L20.3 -9.85 21.2 -7.85 Q22.1 -5.65 22.05 -4.6 22.05 -2.2 20.2 2.45 L9.75 -2.75 Q10.2 -5.0 9.3 -6.6" fill="url(#gradient2)" fill-rule="evenodd" stroke="none"/>
  </g>
  <defs>
    <linearGradient gradientTransform="matrix(0.0095, 0.0, 0.0, 0.0095, 3.6, -6.95)" gradientUnits="userSpaceOnUse" id="gradient0" spreadMethod="pad" x1="-819.2" x2="819.2">
      <stop offset="0.0" stop-color="#26353f"/>
      <stop offset="1.0" stop-color="#475b6f"/>
    </linearGradient>
    <linearGradient gradientTransform="matrix(0.0033, 0.0, 0.0, 0.0031, -221.45, -323.4)" gradientUnits="userSpaceOnUse" id="gradient1" spreadMethod="pad" x1="-819.2" x2="819.2">
      <stop offset="0.0" stop-color="#4b89b1"/>
      <stop offset="1.0" stop-color="#6ac4fe"/>
    </linearGradient>
    <linearGradient gradientTransform="matrix(0.0076, 2.0E-4, -2.0E-4, 0.0076, 15.55, -3.55)" gradientUnits="userSpaceOnUse" id="gradient2" spreadMethod="pad" x1="-819.2" x2="819.2">
      <stop offset="0.0" stop-color="#67bef6" stop-opacity="0.19607843"/>
      <stop offset="1.0" stop-color="#67bef6" stop-opacity="0.0"/>
    </linearGradient>
  </defs>
</svg>
