<?xml version="1.0" encoding="UTF-8" standalone="no"?>
<svg xmlns:ffdec="https://www.free-decompiler.com/flash" xmlns:xlink="http://www.w3.org/1999/xlink" ffdec:objectType="shape" height="19.15px" width="23.4px" xmlns="http://www.w3.org/2000/svg">
  <g transform="matrix(1.0, 0.0, 0.0, 1.0, 9.6, 15.65)">
    <path d="M1.55 0.2 L1.25 1.85 -4.25 1.15 -4.5 -3.45 -1.2 -2.4 -1.15 -1.05 1.55 0.2" fill="#343434" fill-rule="evenodd" stroke="none"/>
    <path d="M1.55 0.2 L1.25 1.85 -4.25 1.15 -4.5 -3.45 -1.2 -2.4 -1.15 -1.05 1.55 0.2 Z" fill="none" stroke="#1d1d1d" stroke-linecap="round" stroke-linejoin="round" stroke-width="1.05"/>
    <path d="M-3.15 -11.05 L-3.0 -10.75 Q-1.05 -12.85 4.65 -11.1 L7.3 -10.2 7.5 -10.05 9.3 -7.45 Q10.0 -6.1 9.75 -5.65 9.7 -1.7 6.1 -1.4 2.5 -1.15 -0.35 -4.9 -3.65 -6.8 -3.45 -9.35 L-3.15 -11.05" fill="#7e7568" fill-rule="evenodd" stroke="none"/>
    <path d="M5.0 -8.1 L3.05 -8.7 M-3.15 -11.05 L-3.0 -10.75 Q-1.05 -12.85 4.65 -11.1 L7.3 -10.2 7.5 -10.05 9.3 -7.45 Q10.0 -6.1 9.75 -5.65 9.7 -1.7 6.1 -1.4 2.5 -1.15 -0.35 -4.9 -3.65 -6.8 -3.45 -9.35 L-3.15 -11.05 Z" fill="none" stroke="#463730" stroke-linecap="round" stroke-linejoin="round" stroke-width="1.05"/>
    <path d="M3.05 -8.65 L5.0 -8.1" fill="none" stroke="#554b4b" stroke-linecap="round" stroke-linejoin="round" stroke-width="2.15"/>
    <path d="M2.0 -14.65 L5.15 -13.45 Q8.55 -11.85 9.85 -9.85 11.15 -7.85 11.3 -6.15 L11.25 -4.85 Q10.9 -4.9 10.6 -4.45 L10.05 -3.85 7.65 -2.25 7.25 -2.2 6.8 -2.3 5.0 -1.8 2.95 -2.2 0.45 -3.35 -0.45 -6.15 -1.65 -6.8 -2.0 -8.6 -1.6 -10.5 -0.2 -12.4 0.15 -14.75 2.0 -14.65" fill="url(#gradient0)" fill-rule="evenodd" stroke="none"/>
    <path d="M2.0 -14.65 L5.15 -13.45 Q8.55 -11.85 9.85 -9.85 11.15 -7.85 11.3 -6.15 L11.25 -4.85 Q10.9 -4.9 10.6 -4.45 L10.05 -3.85 7.65 -2.25 7.25 -2.2 6.8 -2.3 5.0 -1.8 2.95 -2.2 0.45 -3.35 -0.45 -6.15 -1.65 -6.8 -2.0 -8.6 -1.6 -10.5 -0.2 -12.4 0.15 -14.75 2.0 -14.65 Z" fill="none" stroke="#0a1842" stroke-linecap="round" stroke-linejoin="round" stroke-opacity="0.7882353" stroke-width="1.05"/>
    <path d="M6.2 -3.75 L5.55 -2.15 Q4.95 -0.55 3.85 -0.45 3.0 -0.35 0.65 -1.65 -1.25 -2.75 -1.2 -2.4 L-3.55 -1.4 -7.55 -4.55 -8.55 -7.8 Q-8.95 -9.6 -8.35 -10.6 L-7.35 -13.55 -3.7 -12.85 -1.45 -8.4 1.15 -6.2 Q3.15 -4.7 6.2 -3.75" fill="#545454" fill-rule="evenodd" stroke="none"/>
    <path d="M6.2 -3.75 L5.55 -2.15 Q4.95 -0.55 3.85 -0.45 3.0 -0.35 0.65 -1.65 -1.25 -2.75 -1.2 -2.4 L-3.55 -1.4 -7.55 -4.55 -8.55 -7.8 Q-8.95 -9.6 -8.35 -10.6 L-7.35 -13.55 -3.7 -12.85 -1.45 -8.4 1.15 -6.2 Q3.15 -4.7 6.2 -3.75 Z" fill="none" stroke="#2f2f2f" stroke-linecap="round" stroke-linejoin="round" stroke-width="1.05"/>
    <path d="M-0.35 -4.9 L1.65 -3.65 Q5.25 -1.2 5.95 -1.05 7.5 -0.7 8.7 -3.55 L10.3 -4.3 12.25 -4.6 11.05 -3.25 Q12.55 0.25 8.55 1.5 L8.1 1.55 1.55 0.2 -1.15 -1.05 -2.15 -1.95 Q-2.35 -3.15 -1.7 -4.1 -1.05 -4.95 -0.35 -4.9" fill="#4a4a4a" fill-rule="evenodd" stroke="none"/>
    <path d="M-0.35 -4.9 L1.65 -3.65 Q5.25 -1.2 5.95 -1.05 7.5 -0.7 8.7 -3.55 L10.3 -4.3 12.25 -4.6 11.05 -3.25 Q12.55 0.25 8.55 1.5 L8.1 1.55 1.55 0.2 -1.15 -1.05 -2.15 -1.95 Q-2.35 -3.15 -1.7 -4.1 -1.05 -4.95 -0.35 -4.9 Z" fill="none" stroke="#2a2a2a" stroke-linecap="round" stroke-linejoin="round" stroke-width="1.05"/>
    <path d="M8.5 -4.4 Q10.55 -4.85 11.8 -6.05 12.35 -4.95 13.05 -4.05 13.4 -3.45 12.95 -2.55 L11.65 0.7 Q10.95 2.4 9.8 2.85 L7.75 2.4 1.9 0.55 1.3 -0.95 3.1 -4.0 8.5 -4.4" fill="#444849" fill-rule="evenodd" stroke="none"/>
    <path d="M8.5 -4.4 L3.1 -4.0 1.3 -0.95 1.9 0.55 7.75 2.4 9.8 2.85 Q10.95 2.4 11.65 0.7 L12.95 -2.55 Q13.4 -3.45 13.05 -4.05 12.35 -4.95 11.8 -6.05 10.55 -4.85 8.5 -4.4 Z" fill="none" stroke="#262626" stroke-linecap="round" stroke-linejoin="round" stroke-width="1.05"/>
    <path d="M-3.2 -7.5 L-2.85 -7.9 -3.4 -9.35 Q-4.9 -10.35 -6.4 -10.55 -7.9 -10.75 -8.7 -10.0 L-8.75 -10.05 Q-8.65 -11.15 -7.8 -12.5 L-6.6 -14.2 Q-5.35 -14.95 -3.45 -15.1 L-0.15 -14.95 Q0.4 -14.85 0.45 -13.95 0.45 -13.0 -0.1 -12.1 L-1.45 -9.6 Q-2.25 -8.25 -3.0 -7.6 L-3.2 -7.5 -3.4 -7.3 Q-3.8 -6.9 -4.45 -6.95 L-4.85 -6.8 Q-6.0 -6.35 -6.65 -5.2 -7.15 -4.3 -7.65 -4.45 L-8.75 -7.5 Q-9.45 -9.6 -8.75 -10.05 L-8.75 -10.0 -8.7 -10.0 -6.35 -8.9 Q-4.8 -8.15 -4.7 -7.0 L-4.45 -6.95 -3.2 -7.5" fill="#919191" fill-rule="evenodd" stroke="none"/>
    <path d="M-3.2 -7.5 L-3.0 -7.6 Q-2.25 -8.25 -1.45 -9.6 L-0.1 -12.1 Q0.45 -13.0 0.45 -13.95 0.4 -14.85 -0.15 -14.95 L-3.45 -15.1 Q-5.35 -14.95 -6.6 -14.2 L-7.8 -12.5 Q-8.65 -11.15 -8.75 -10.05 L-8.7 -10.0 Q-7.9 -10.75 -6.4 -10.55 -4.9 -10.35 -3.4 -9.35 L-2.85 -7.9 -3.2 -7.5 -3.4 -7.3 Q-3.8 -6.9 -4.45 -6.95 L-4.85 -6.8 Q-6.0 -6.35 -6.65 -5.2 -7.15 -4.3 -7.65 -4.45 L-8.75 -7.5 Q-9.45 -9.6 -8.75 -10.05 L-8.75 -10.0 -8.7 -10.0 -6.35 -8.9 Q-4.8 -8.15 -4.7 -7.0 L-4.45 -6.95 -3.2 -7.5 Z" fill="none" stroke="#2f2f2f" stroke-linecap="round" stroke-linejoin="round" stroke-width="1.05"/>
    <path d="M8.9 -1.15 L7.75 0.45 M7.3 -2.75 L5.4 0.0" fill="none" stroke="#262626" stroke-linecap="round" stroke-linejoin="round" stroke-width="1.05"/>
    <path d="M6.95 2.25 L9.9 3.0 11.25 1.75 12.25 -0.3 13.3 -3.65 12.5 -5.8 11.7 -6.5 M-2.1 -1.0 Q-3.9 -1.55 -5.4 -2.6 L-7.85 -4.5 -8.4 -6.6 Q-9.05 -9.15 -8.5 -9.55 -8.65 -12.4 -5.85 -14.3 -4.75 -15.05 -2.4 -15.0 L1.5 -14.8" fill="none" stroke="#1d1d1d" stroke-linecap="round" stroke-linejoin="round" stroke-width="1.05"/>
  </g>
  <defs>
    <radialGradient cx="0" cy="0" gradientTransform="matrix(0.0153, 0.0034, -0.0021, 0.0097, -0.85, -6.35)" gradientUnits="userSpaceOnUse" id="gradient0" r="819.2" spreadMethod="pad">
      <stop offset="0.2627450980392157" stop-color="#000647" stop-opacity="0.62352943"/>
      <stop offset="0.6784313725490196" stop-color="#0030aa" stop-opacity="0.60784316"/>
      <stop offset="0.8313725490196079" stop-color="#00628a" stop-opacity="0.56078434"/>
      <stop offset="0.8705882352941177" stop-color="#32bef8" stop-opacity="0.5803922"/>
      <stop offset="0.9254901960784314" stop-color="#60e6ff" stop-opacity="0.6156863"/>
      <stop offset="1.0" stop-color="#005059" stop-opacity="0.5058824"/>
    </radialGradient>
  </defs>
</svg>
