<?xml version="1.0" encoding="UTF-8" standalone="no"?>
<svg xmlns:ffdec="https://www.free-decompiler.com/flash" xmlns:xlink="http://www.w3.org/1999/xlink" ffdec:objectType="shape" height="16.1px" width="19.4px" xmlns="http://www.w3.org/2000/svg">
  <g transform="matrix(1.0, 0.0, 0.0, 1.0, 11.85, 15.45)">
    <path d="M-5.3 -3.95 Q-8.75 -3.1 -9.95 -4.65 -11.2 -6.25 -10.9 -7.05 L-11.25 -7.85 Q-11.75 -9.6 -9.65 -10.5 M-7.4 -6.15 Q-10.35 -6.15 -10.9 -7.05 L-9.65 -7.95" fill="none" stroke="#080807" stroke-linecap="round" stroke-linejoin="round" stroke-opacity="0.8784314" stroke-width="1.0"/>
    <path d="M4.8 -5.25 L0.15 -5.25 0.15 -9.15 4.8 -9.15 4.8 -5.25" fill="#ffffff" fill-rule="evenodd" stroke="none"/>
    <path d="M4.75 -5.3 L0.1 -5.3 0.1 -9.1 4.75 -9.1 4.75 -5.3 Z" fill="none" stroke="#b5b5b5" stroke-linecap="round" stroke-linejoin="round" stroke-width="1.0"/>
    <path d="M3.65 -8.25 L4.05 -7.9 4.1 -7.55 4.05 -7.25 4.05 -7.1 3.9 -6.85 3.7 -6.6 3.25 -6.4 2.85 -6.8 2.8 -7.0 2.8 -7.45 3.05 -8.1 3.65 -8.25" fill="#009933" fill-rule="evenodd" stroke="none"/>
    <path d="M3.65 -8.25 L4.05 -7.9 4.1 -7.55 4.05 -7.25 4.05 -7.1 3.9 -6.85 3.7 -6.6 3.25 -6.4 2.85 -6.8 2.8 -7.0 2.8 -7.45 3.05 -8.1 3.65 -8.25 Z" ffdec:has-small-stroke="true" ffdec:original-stroke-width="0.5" fill="none" stroke="#333333" stroke-linecap="round" stroke-linejoin="round" stroke-opacity="0.5019608" stroke-width="1.0"/>
    <path d="M-4.3 -4.05 L-0.55 -2.95 -0.55 -2.25 Q-3.1 -2.15 -4.3 -2.95 L-4.3 -4.05" fill="#d7aa97" fill-rule="evenodd" stroke="none"/>
    <path d="M1.35 -7.55 Q1.45 -8.15 2.7 -8.15 3.8 -8.15 4.85 -7.5 L4.25 -7.5 2.4 -7.9 1.35 -7.55" fill="#333333" fill-rule="evenodd" stroke="none"/>
    <path d="M5.4 -7.0 Q5.0 -6.3 5.65 -5.85 L6.2 -5.45 Q5.95 -4.8 5.3 -4.25 L5.3 -3.55 4.75 -3.25 4.75 -2.8 4.2 -2.6 Q4.3 -1.8 3.5 -1.7 L-4.25 -4.05 -5.8 -8.2 Q-5.3 -11.8 -4.15 -13.05 -3.15 -14.35 3.5 -13.05 6.9 -12.55 6.2 -9.15 L5.4 -7.0 M1.35 -7.55 Q1.55 -6.65 2.6 -6.4 L4.0 -6.5 Q4.4 -8.15 2.95 -8.15 1.45 -8.15 1.35 -7.55" fill="#f7ebdc" fill-rule="evenodd" stroke="none"/>
    <path d="M1.35 -7.55 Q1.55 -6.65 2.6 -6.4 L4.0 -6.5" ffdec:has-small-stroke="true" ffdec:original-stroke-width="0.4" fill="none" stroke="#b3aea8" stroke-linecap="round" stroke-linejoin="round" stroke-width="1.0"/>
    <path d="M-0.5 -2.95 L3.5 -1.7 Q4.3 -1.8 4.25 -2.65 L4.75 -2.85 4.75 -3.3 5.35 -3.55 5.35 -4.25 6.2 -5.45 5.65 -5.85 Q5.05 -6.3 5.4 -7.0 L6.15 -8.8 6.2 -9.2 Q6.9 -12.6 3.6 -13.0 L-4.2 -12.8 Q-5.95 -11.1 -5.8 -8.2 L-4.25 -4.05 -4.25 -2.95 Q-3.0 -2.2 -0.5 -2.25" ffdec:has-small-stroke="true" ffdec:original-stroke-width="0.5" fill="none" stroke="#b3aea8" stroke-linecap="round" stroke-linejoin="round" stroke-width="1.0"/>
    <path d="M-1.95 -3.35 L-2.5 -4.05" ffdec:has-small-stroke="true" ffdec:original-stroke-width="0.5" fill="none" stroke="#c5978b" stroke-linecap="round" stroke-linejoin="round" stroke-opacity="0.5019608" stroke-width="1.0"/>
    <path d="M3.0 -3.75 L3.85 -3.4" ffdec:has-small-stroke="true" ffdec:original-stroke-width="0.5" fill="none" stroke="#b3aea8" stroke-linecap="round" stroke-linejoin="round" stroke-width="1.0"/>
    <path d="M-2.65 -6.15 Q-2.3 -5.7 -1.75 -5.95 M-2.95 -6.95 Q-2.8 -7.65 -2.25 -7.5" ffdec:has-small-stroke="true" ffdec:original-stroke-width="0.5" fill="none" stroke="#cb9d8a" stroke-linecap="round" stroke-linejoin="round" stroke-width="1.0"/>
    <path d="M-3.2 -6.9 L-3.3 -7.75 Q-3.3 -8.3 -2.65 -8.2 M-1.9 -5.4 Q-2.4 -5.05 -3.05 -5.55 L-3.8 -6.95 Q-4.1 -7.75 -3.55 -8.4 -3.2 -9.0 -2.5 -8.75" ffdec:has-small-stroke="true" ffdec:original-stroke-width="0.5" fill="none" stroke="#c08876" stroke-linecap="round" stroke-linejoin="round" stroke-width="1.0"/>
    <path d="M-0.55 -2.25 L-0.55 -2.95" ffdec:has-small-stroke="true" ffdec:original-stroke-width="0.5" fill="none" stroke="#a27667" stroke-linecap="round" stroke-linejoin="round" stroke-width="1.0"/>
    <path d="M-0.55 -2.95 L-1.95 -3.35" ffdec:has-small-stroke="true" ffdec:original-stroke-width="0.5" fill="none" stroke="#c6988b" stroke-linecap="round" stroke-linejoin="round" stroke-width="1.0"/>
    <path d="M1.15 -8.5 Q2.7 -9.75 4.65 -8.95 L3.95 -8.5 Q2.65 -8.95 1.15 -8.5" fill="#000000" fill-rule="evenodd" stroke="none"/>
    <path d="M1.15 -8.55 Q2.65 -8.85 3.95 -8.55 L4.65 -8.85 Q2.7 -9.4 1.15 -8.55 Z" ffdec:has-small-stroke="true" ffdec:original-stroke-width="0.5" fill="none" stroke="#303030" stroke-linecap="round" stroke-linejoin="round" stroke-opacity="0.5019608" stroke-width="1.0"/>
    <path d="M3.2 -14.35 L4.0 -13.95 5.25 -13.15 6.15 -12.0 6.85 -10.0 Q7.15 -8.7 7.0 -6.9 L6.35 -7.55 Q4.8 -8.05 4.2 -9.25 3.45 -9.25 2.4 -9.85 L1.5 -10.45 Q0.75 -9.5 0.7 -8.2 L0.6 -6.55 -0.15 -8.1 Q-0.55 -7.2 0.0 -3.8 0.6 -0.6 -0.05 0.15 -0.5 -2.2 -1.1 -3.15 L-1.7 -5.25 -1.9 -6.55 -2.15 -6.9 -2.9 -7.05 Q-3.8 -6.8 -3.55 -5.05 -3.3 -3.45 -2.65 -3.1 L-4.4 -3.1 Q-4.8 -3.25 -5.55 -5.25 -6.3 -7.25 -6.3 -8.3 L-6.25 -10.6 Q-6.05 -12.0 -5.5 -12.65 -4.0 -14.3 -2.95 -14.55 L-0.45 -14.9 2.1 -14.7 3.2 -14.35" fill="#660000" fill-rule="evenodd" stroke="none"/>
    <path d="M3.2 -14.35 L2.1 -14.7 -0.45 -14.9 -2.95 -14.55 Q-4.0 -14.3 -5.5 -12.65 -6.05 -12.0 -6.25 -10.6 L-6.3 -8.3 Q-6.3 -7.25 -5.55 -5.25 -4.8 -3.25 -4.4 -3.1 L-2.65 -3.1 Q-3.3 -3.45 -3.55 -5.05 -3.8 -6.8 -2.9 -7.05 L-2.15 -6.9 -1.9 -6.55 -1.7 -5.25 -1.1 -3.15 Q-0.5 -2.2 -0.05 0.15 0.6 -0.6 0.0 -3.8 -0.55 -7.2 -0.15 -8.1 L0.6 -6.55 0.7 -8.2 Q0.75 -9.5 1.5 -10.45 L2.4 -9.85 Q3.45 -9.25 4.2 -9.25 4.8 -8.05 6.35 -7.55 L7.0 -6.9 Q7.15 -8.7 6.85 -10.0 L6.15 -12.0 5.25 -13.15 4.0 -13.95 3.2 -14.35 Z" fill="none" stroke="#660000" stroke-linecap="round" stroke-linejoin="round" stroke-opacity="0.5019608" stroke-width="1.05"/>
  </g>
</svg>
