<?xml version="1.0" encoding="UTF-8" standalone="no"?>
<svg xmlns:ffdec="https://www.free-decompiler.com/flash" xmlns:xlink="http://www.w3.org/1999/xlink" ffdec:objectType="shape" height="23.15px" width="19.7px" xmlns="http://www.w3.org/2000/svg">
  <g transform="matrix(1.0, 0.0, 0.0, 1.0, 10.15, 21.4)">
    <path d="M5.2 -1.55 Q6.0 -2.55 6.85 -2.75 7.95 -3.05 9.0 -1.8 10.0 -0.55 7.55 0.8 5.05 2.05 4.9 1.25 L3.55 1.1 3.7 0.2 5.2 -1.55" fill="url(#gradient0)" fill-rule="evenodd" stroke="none"/>
    <path d="M6.85 -2.75 Q6.0 -2.55 5.2 -1.55 1.0 -2.45 -1.45 -5.5 L-4.85 -9.15 Q0.3 -5.6 6.85 -2.75" fill="url(#gradient1)" fill-rule="evenodd" stroke="none"/>
    <path d="M-1.45 -5.5 Q1.0 -2.45 5.2 -1.55 L3.7 0.2 3.55 1.1 Q-0.65 0.3 -4.15 -1.35 L-6.05 -4.7 -3.25 -5.5 -1.45 -5.5" fill="url(#gradient2)" fill-rule="evenodd" stroke="none"/>
    <path d="M-8.4 -7.15 Q-8.85 -8.15 -8.6 -10.45 L-5.8 -12.3 -4.85 -9.15 Q-5.45 -7.55 -8.4 -7.15" fill="#666666" fill-rule="evenodd" stroke="none"/>
    <path d="M-4.85 -9.15 L-1.45 -5.5 -3.25 -5.5 -6.05 -4.7 -8.4 -7.15 Q-5.45 -7.55 -4.85 -9.15" fill="#333333" fill-rule="evenodd" stroke="none"/>
    <path d="M6.85 -2.75 Q0.3 -5.6 -4.85 -9.15 L-1.45 -5.5 M3.7 0.2 L3.55 1.1 M-8.4 -7.15 L-6.05 -4.7" fill="none" stroke="#0f0f0f" stroke-linecap="round" stroke-linejoin="round" stroke-width="1.0"/>
    <path d="M-1.45 -5.5 Q1.0 -2.45 5.2 -1.55 L3.7 0.2 M-8.4 -7.15 Q-8.85 -8.15 -8.6 -10.45 L-5.8 -12.3 -4.85 -9.15 Q-5.45 -7.55 -8.4 -7.15 M-6.05 -4.7 L-3.25 -5.5 -1.45 -5.5 M-6.05 -4.7 L-4.15 -1.35 Q-0.65 0.3 3.55 1.1" fill="none" stroke="#474747" stroke-linecap="round" stroke-linejoin="round" stroke-width="1.0"/>
    <path d="M4.65 -0.95 Q7.7 -4.45 8.7 -2.1 9.7 0.2 7.95 0.85 L4.2 1.15 3.6 0.65" fill="none" stroke="#474747" stroke-linecap="round" stroke-linejoin="round" stroke-width="1.0"/>
    <path d="M6.55 -1.8 Q6.55 -0.8 5.8 -0.1 5.05 0.65 4.0 0.65 L3.95 0.65 Q2.9 0.6 2.2 -0.1 1.45 -0.8 1.45 -1.8 1.45 -2.85 2.2 -3.55 2.9 -4.25 3.95 -4.3 L4.0 -4.3 Q5.05 -4.3 5.8 -3.55 6.55 -2.85 6.55 -1.8" fill="url(#gradient3)" fill-rule="evenodd" stroke="none"/>
    <path d="M6.55 -1.8 Q6.55 -0.8 5.8 -0.1 5.05 0.65 4.0 0.65 L3.95 0.65 Q2.9 0.6 2.2 -0.1 1.45 -0.8 1.45 -1.8 1.45 -2.85 2.2 -3.55 2.9 -4.25 3.95 -4.3 L4.0 -4.3 Q5.05 -4.3 5.8 -3.55 6.55 -2.85 6.55 -1.8 Z" fill="none" stroke="#0f0f0f" stroke-linecap="round" stroke-linejoin="round" stroke-width="1.0"/>
    <path d="M1.65 -1.4 Q2.6 -1.6 3.6 -2.5 5.7 -1.6 2.4 0.3 L2.1 0.45 1.65 -1.4 2.1 0.45 1.4 0.65 0.65 0.65 Q-0.2 0.6 -1.25 -0.15 L-1.95 -0.75 -2.8 -1.6 -4.1 -3.35 -4.35 -3.7 -4.75 -4.55 -3.1 -5.35 -2.6 -4.25 -4.1 -3.35 -2.6 -4.25 -1.85 -3.0 -1.25 -2.3 -0.45 -1.7 -1.25 -0.15 -0.45 -1.7 0.85 -1.3 1.45 -1.35 1.65 -1.4 M0.65 0.65 L0.85 -1.3 0.65 0.65 M-2.8 -1.6 L-1.85 -3.0 -2.8 -1.6" fill="#333333" fill-rule="evenodd" stroke="none"/>
    <path d="M2.1 0.45 L2.4 0.3 Q5.7 -1.6 3.6 -2.5 2.6 -1.6 1.65 -1.4 L1.45 -1.35 0.85 -1.3 -0.45 -1.7 -1.25 -2.3 -1.85 -3.0 -2.6 -4.25 -3.1 -5.35 M2.1 0.45 L1.4 0.65 0.65 0.65 Q-0.2 0.6 -1.25 -0.15 L-1.95 -0.75 -2.8 -1.6 -4.1 -3.35 -4.35 -3.7 -4.75 -4.55" fill="none" stroke="#080807" stroke-linecap="round" stroke-linejoin="round" stroke-opacity="0.8784314" stroke-width="1.0"/>
    <path d="M1.65 -1.4 L2.1 0.45 M-4.1 -3.35 L-4.4 -3.2 M0.85 -1.3 L0.65 0.65 M-4.1 -3.35 L-2.6 -4.25 M-1.85 -3.0 L-2.8 -1.6 M-1.25 -0.15 L-0.45 -1.7" ffdec:has-small-stroke="true" ffdec:original-stroke-width="0.3" fill="none" stroke="#080807" stroke-linecap="round" stroke-linejoin="round" stroke-opacity="0.8784314" stroke-width="1.0"/>
    <path d="M-9.65 -12.3 Q-9.6 -13.35 -8.7 -13.95 L-8.25 -14.2 -7.25 -14.2 -6.45 -14.2 -4.8 -11.4 -4.8 -6.85 -8.55 -6.85 -9.65 -8.65 -9.65 -12.3" fill="url(#gradient4)" fill-rule="evenodd" stroke="none"/>
    <path d="M-7.25 -14.2 L-7.25 -16.95 M-8.7 -13.95 L-8.7 -20.9" fill="none" stroke="#111111" stroke-linecap="round" stroke-linejoin="round" stroke-opacity="0.7372549" stroke-width="1.0"/>
    <path d="M-9.65 -12.3 L-9.65 -8.65 -8.55 -6.85 -4.8 -6.85 -4.8 -11.4 -6.45 -14.2 -7.25 -14.2 -8.25 -14.2 -8.7 -13.95 Q-9.6 -13.35 -9.65 -12.3 Z" fill="none" stroke="#0f0f0f" stroke-linecap="round" stroke-linejoin="round" stroke-width="1.0"/>
    <path d="M-4.65 -4.15 L-5.95 -4.75 -7.0 -5.35 Q-7.5 -5.95 -7.5 -7.15 -7.6 -7.8 -7.15 -8.3 L-6.7 -9.05 Q-5.65 -9.9 -4.65 -9.75 L-4.55 -9.7 -4.0 -9.55 -1.6 -7.9 -1.65 -7.9 -1.6 -7.85 -1.55 -7.8 -0.85 -6.4 -0.9 -6.15 Q-0.9 -6.05 -0.7 -6.1 L-0.8 -5.35 -2.05 -4.75 -2.05 -4.8 -2.45 -5.15 -3.0 -5.15 -4.25 -4.7 -4.6 -4.4 -4.65 -4.35 -4.65 -4.15" fill="url(#gradient5)" fill-rule="evenodd" stroke="none"/>
    <path d="M-0.85 -6.4 L-1.55 -7.8 -1.6 -7.85 Q-0.55 -7.0 -0.75 -6.65 L-0.85 -6.4" fill="#282828" fill-rule="evenodd" stroke="none"/>
    <path d="M-4.65 -4.15 L-4.65 -4.35 -4.6 -4.4 -4.25 -4.7 -3.0 -5.15 -2.45 -5.15 -2.05 -4.8 -2.05 -4.75 -2.1 -4.25 -2.5 -3.85 -3.75 -3.4 -4.3 -3.4 -4.55 -3.6 -4.7 -3.8 -4.65 -4.15" fill="url(#gradient6)" fill-rule="evenodd" stroke="none"/>
    <path d="M-1.6 -7.9 L-4.0 -9.55 -4.55 -9.7 -4.65 -9.75 Q-5.65 -9.9 -6.7 -9.05 L-7.15 -8.3 Q-7.6 -7.8 -7.5 -7.15 -7.5 -5.95 -7.0 -5.35 L-5.95 -4.75 -4.65 -4.15 -4.65 -4.35 -4.6 -4.4 -4.25 -4.7 -3.0 -5.15 -2.45 -5.15 -2.05 -4.8 -2.05 -4.75 -0.8 -5.35 -0.7 -6.1 -0.85 -6.4 -1.55 -7.8 -1.6 -7.85 -1.6 -7.9 M-2.05 -4.75 L-2.1 -4.25 -2.5 -3.85 -3.75 -3.4 -4.3 -3.4 -4.55 -3.6 -4.7 -3.8 -4.65 -4.15" fill="none" stroke="#111111" stroke-linecap="round" stroke-linejoin="round" stroke-width="1.0"/>
  </g>
  <defs>
    <radialGradient cx="0" cy="0" gradientTransform="matrix(0.004, 0.0, 0.0, 0.004, 6.4, -0.6)" gradientUnits="userSpaceOnUse" id="gradient0" r="819.2" spreadMethod="pad">
      <stop offset="0.0" stop-color="#cccccc"/>
      <stop offset="1.0" stop-color="#666666"/>
    </radialGradient>
    <radialGradient cx="0" cy="0" gradientTransform="matrix(0.0128, 0.0, 0.0, 0.0128, 3.75, -3.1)" gradientUnits="userSpaceOnUse" id="gradient1" r="819.2" spreadMethod="pad">
      <stop offset="0.0" stop-color="#333333"/>
      <stop offset="1.0" stop-color="#000000"/>
    </radialGradient>
    <radialGradient cx="0" cy="0" gradientTransform="matrix(0.0101, 0.0, 0.0, 0.0096, 1.35, -1.65)" gradientUnits="userSpaceOnUse" id="gradient2" r="819.2" spreadMethod="pad">
      <stop offset="0.0" stop-color="#cccccc"/>
      <stop offset="1.0" stop-color="#666666"/>
    </radialGradient>
    <radialGradient cx="0" cy="0" gradientTransform="matrix(0.0045, 0.0, 0.0, 0.0045, 4.3, -1.55)" gradientUnits="userSpaceOnUse" id="gradient3" r="819.2" spreadMethod="pad">
      <stop offset="0.0" stop-color="#333333"/>
      <stop offset="1.0" stop-color="#000000"/>
    </radialGradient>
    <linearGradient gradientTransform="matrix(0.003, 0.0, 0.0, 0.0045, -7.25, -10.55)" gradientUnits="userSpaceOnUse" id="gradient4" spreadMethod="pad" x1="-819.2" x2="819.2">
      <stop offset="0.0" stop-color="#333333"/>
      <stop offset="1.0" stop-color="#000000"/>
    </linearGradient>
    <radialGradient cx="0" cy="0" gradientTransform="matrix(0.0049, 0.0, 0.0, 0.0049, -4.1, -6.95)" gradientUnits="userSpaceOnUse" id="gradient5" r="819.2" spreadMethod="pad">
      <stop offset="0.0" stop-color="#333333"/>
      <stop offset="1.0" stop-color="#000000"/>
    </radialGradient>
    <radialGradient cx="0" cy="0" gradientTransform="matrix(0.0024, 0.0, 0.0, 0.0024, -2.8, -4.3)" gradientUnits="userSpaceOnUse" id="gradient6" r="819.2" spreadMethod="pad">
      <stop offset="0.0" stop-color="#333333"/>
      <stop offset="1.0" stop-color="#000000"/>
    </radialGradient>
  </defs>
</svg>
