<?xml version="1.0" encoding="UTF-8" standalone="no"?>
<svg xmlns:ffdec="https://www.free-decompiler.com/flash" xmlns:xlink="http://www.w3.org/1999/xlink" ffdec:objectType="shape" height="67.75px" width="33.0px" xmlns="http://www.w3.org/2000/svg">
  <g transform="matrix(1.0, 0.0, 0.0, 1.0, 14.5, 71.25)">
    <path d="M8.55 -68.85 Q11.5 -65.95 11.5 -60.1 11.5 -58.45 10.8 -57.1 9.65 -55.0 7.0 -54.5 L2.6 -54.5 3.1 -53.35 Q3.55 -48.75 4.5 -47.5 L4.5 -46.35 Q9.5 -46.85 13.65 -42.7 18.5 -37.8 18.5 -32.5 18.5 -30.3 18.05 -29.5 17.4 -28.5 15.5 -28.5 L13.2 -28.75 12.75 -29.0 Q12.65 -29.75 12.9 -30.65 L13.25 -33.1 Q13.25 -35.35 9.25 -38.4 L4.5 -41.55 4.5 -37.7 5.0 -38.0 5.25 -37.7 5.5 -36.1 5.2 -32.45 Q10.5 -22.7 10.5 -13.85 10.5 -10.35 10.05 -8.35 9.3 -4.8 7.0 -3.5 4.85 -5.6 4.95 -10.25 5.0 -12.9 5.5 -18.25 5.5 -19.25 2.65 -25.2 L2.0 -23.8 Q-1.5 -15.85 -1.5 -5.75 L-2.45 -5.3 -4.0 -4.5 Q-5.95 -5.8 -6.35 -9.1 L-6.5 -14.75 Q-6.5 -24.55 -5.75 -26.85 -4.5 -30.7 -0.45 -34.2 L-0.15 -36.1 Q-1.0 -37.6 -1.55 -39.65 L-3.75 -36.1 Q-9.25 -27.3 -12.0 -25.5 -13.3 -25.95 -13.8 -26.5 -14.5 -27.3 -14.5 -29.0 -7.75 -43.95 -2.4 -47.65 L-2.5 -52.75 Q-2.5 -55.25 -2.25 -55.0 L-1.7 -55.2 -5.85 -59.5 Q-7.5 -61.8 -7.5 -64.75 -7.5 -67.25 -4.55 -69.25 -1.6 -71.15 2.0 -71.25 6.0 -71.3 8.55 -68.85 M3.05 -60.1 Q5.6 -60.3 5.75 -60.75 L4.4 -63.35 Q2.7 -65.25 -1.25 -65.25 L-1.75 -65.45 Q-2.25 -65.3 -2.25 -63.75 L-1.0 -62.3 Q0.25 -60.75 0.5 -60.0 L3.05 -60.1" fill="#000000" fill-rule="evenodd" stroke="none"/>
  </g>
</svg>
