<?xml version="1.0" encoding="UTF-8" standalone="no"?>
<svg xmlns:ffdec="https://www.free-decompiler.com/flash" xmlns:xlink="http://www.w3.org/1999/xlink" ffdec:objectType="shape" height="9.55px" width="16.7px" xmlns="http://www.w3.org/2000/svg">
  <g transform="matrix(1.0, 0.0, 0.0, 1.0, 7.25, 13.4)">
    <path d="M-3.75 -4.95 L-4.95 -5.5 Q-5.5 -5.65 -5.8 -6.05 -6.35 -6.6 -6.6 -7.45 -6.85 -8.35 -6.6 -8.85 L-6.0 -9.8 -5.3 -10.6 -4.5 -10.8 -2.05 -11.25 -0.95 -10.65 -0.95 -8.8 -0.3 -6.95 -0.35 -6.3 -1.45 -5.6 -1.45 -5.65 -1.85 -6.0 -2.3 -6.0 -3.4 -5.5 -3.75 -5.25 -3.75 -5.2 -3.75 -4.95" fill="url(#gradient0)" fill-rule="evenodd" stroke="none"/>
    <path d="M-1.45 -5.6 Q-1.4 -5.4 -1.5 -5.2 L-1.85 -4.75 -2.9 -4.35 -3.4 -4.35 -3.65 -4.45 -3.75 -4.65 -3.75 -4.95 -3.75 -5.2 -3.75 -5.25 -3.4 -5.5 -2.3 -6.0 -1.85 -6.0 -1.45 -5.65 -1.45 -5.6" fill="url(#gradient1)" fill-rule="evenodd" stroke="none"/>
    <path d="M-3.75 -4.95 L-4.95 -5.5 Q-5.5 -5.65 -5.8 -6.05 -6.35 -6.6 -6.6 -7.45 -6.85 -8.35 -6.6 -8.85 L-6.0 -9.8 -5.3 -10.6 -4.5 -10.8 -2.05 -11.25 -0.95 -10.65 -0.95 -8.8 -0.3 -6.95 -0.35 -6.3 -1.45 -5.6 Q-1.4 -5.4 -1.5 -5.2 L-1.85 -4.75 -2.9 -4.35 -3.4 -4.35 -3.65 -4.45 -3.75 -4.65 -3.75 -4.95 -3.75 -5.2 -3.75 -5.25 -3.4 -5.5 -2.3 -6.0 -1.85 -6.0 -1.45 -5.65 -1.45 -5.6" fill="none" stroke="#000000" stroke-linecap="round" stroke-linejoin="round" stroke-width="1.0"/>
    <path d="M3.05 -13.05 L4.5 -8.7 9.1 -5.2 M4.5 -8.7 L3.05 -5.75" ffdec:has-small-stroke="true" ffdec:original-stroke-width="0.7" fill="none" stroke="#000000" stroke-linecap="round" stroke-linejoin="round" stroke-opacity="0.29803923" stroke-width="1.0"/>
  </g>
  <defs>
    <radialGradient cx="0" cy="0" gradientTransform="matrix(0.0157, 0.0, 0.0, 0.0166, 3.45, -2.2)" gradientUnits="userSpaceOnUse" id="gradient0" r="819.2" spreadMethod="pad">
      <stop offset="0.0" stop-color="#333333"/>
      <stop offset="0.0" stop-color="#333333"/>
      <stop offset="0.5098039215686274" stop-color="#191919"/>
      <stop offset="1.0" stop-color="#333333"/>
    </radialGradient>
    <radialGradient cx="0" cy="0" gradientTransform="matrix(0.0055, 0.0, 0.0, 0.0058, -0.75, -2.3)" gradientUnits="userSpaceOnUse" id="gradient1" r="819.2" spreadMethod="pad">
      <stop offset="0.0" stop-color="#333333"/>
      <stop offset="0.0" stop-color="#333333"/>
      <stop offset="0.5098039215686274" stop-color="#191919"/>
      <stop offset="1.0" stop-color="#333333"/>
    </radialGradient>
  </defs>
</svg>
