<?xml version="1.0" encoding="UTF-8" standalone="no"?>
<svg xmlns:ffdec="https://www.free-decompiler.com/flash" xmlns:xlink="http://www.w3.org/1999/xlink" ffdec:objectType="shape" height="16.6px" width="77.25px" xmlns="http://www.w3.org/2000/svg">
  <g transform="matrix(1.0, 0.0, 0.0, 1.0, -42.0, 8.9)">
    <path d="M43.4 -6.5 Q44.75 -8.9 46.7 -8.9 48.65 -8.9 49.95 -6.5 51.35 -4.05 51.35 -0.55 51.35 2.8 49.95 5.25 48.65 7.7 46.7 7.7 44.75 7.7 43.4 5.25 42.0 2.8 42.0 -0.55 42.0 -4.05 43.4 -6.5" fill="url(#gradient0)" fill-rule="evenodd" stroke="none"/>
    <path d="M56.65 -6.35 L100.9 -4.7 Q119.25 -3.0 119.25 -0.5 119.25 1.9 100.9 3.55 L56.65 5.25 48.2 5.25 48.2 -6.25 56.65 -6.35" fill="url(#gradient1)" fill-rule="evenodd" stroke="none"/>
  </g>
  <defs>
    <radialGradient cx="0" cy="0" gradientTransform="matrix(0.0058, 0.0, 0.0, 0.0104, 46.7, -0.55)" gradientUnits="userSpaceOnUse" id="gradient0" r="819.2" spreadMethod="pad">
      <stop offset="0.36470588235294116" stop-color="#ffffff" stop-opacity="0.5411765"/>
      <stop offset="1.0" stop-color="#ffe600" stop-opacity="0.0"/>
    </radialGradient>
    <radialGradient cx="0" cy="0" gradientTransform="matrix(0.0765, 0.0, 0.0, 0.0071, 56.85, -0.6)" gradientUnits="userSpaceOnUse" id="gradient1" r="819.2" spreadMethod="pad">
      <stop offset="0.36470588235294116" stop-color="#ffffff" stop-opacity="0.57254905"/>
      <stop offset="1.0" stop-color="#ffe600" stop-opacity="0.0"/>
    </radialGradient>
  </defs>
</svg>
