<?xml version="1.0" encoding="UTF-8" standalone="no"?>
<svg xmlns:ffdec="https://www.free-decompiler.com/flash" xmlns:xlink="http://www.w3.org/1999/xlink" ffdec:objectType="shape" height="21.7px" width="38.75px" xmlns="http://www.w3.org/2000/svg">
  <g transform="matrix(1.0, 0.0, 0.0, 1.0, 2.1, 2.15)">
    <path d="M3.85 12.55 L4.7 14.65 5.7 15.95 Q8.95 17.55 12.0 17.15 L15.05 16.6 Q16.6 16.1 16.85 14.25 L17.0 13.5 16.85 14.35 Q16.6 16.2 15.05 16.7 L12.0 17.25 Q8.95 17.65 5.7 16.05 L4.7 14.75 3.85 12.55" fill="#e9ca8d" fill-rule="evenodd" stroke="none"/>
    <path d="M3.85 12.55 L3.65 11.85 3.3 9.35 3.35 8.9 3.35 8.4 Q3.65 5.65 4.7 4.1 L5.5 3.3 Q6.65 2.4 8.95 2.2 12.1 1.9 13.7 2.85 L14.35 3.3 Q15.45 4.25 16.25 6.05 L16.95 8.5 17.1 11.05 17.1 11.15 17.1 11.9 17.1 12.0 17.05 12.85 17.0 13.5 16.85 14.25 Q16.6 16.1 15.05 16.6 L12.0 17.15 Q8.95 17.55 5.7 15.95 L4.7 14.65 3.85 12.55 M15.2 10.4 L13.5 10.4 15.2 10.4 M16.2 15.3 L14.8 15.3 16.2 15.3" fill="#e7bc52" fill-rule="evenodd" stroke="none"/>
    <path d="M14.8 15.3 L16.2 15.3" fill="none" stroke="#a3793c" stroke-linecap="round" stroke-linejoin="round" stroke-width="1.0"/>
    <path d="M13.5 10.4 L15.2 10.4" fill="none" stroke="#a3793c" stroke-linecap="round" stroke-linejoin="round" stroke-width="1.75"/>
    <path d="M4.8 4.0 L4.7 4.1 Q3.65 5.65 3.35 8.4 3.05 11.15 4.7 14.65 L5.7 15.95 Q8.65 17.4 11.45 17.2 L12.0 17.15 12.55 17.15 11.95 17.2 Q8.9 17.6 5.65 16.0 L4.65 14.7 Q3.0 11.2 3.3 8.45 3.6 5.7 4.65 4.15 L4.8 4.0 M16.05 16.05 L15.0 16.65 13.2 17.1 15.05 16.6 16.05 16.05" fill="#696969" fill-rule="evenodd" stroke="none"/>
    <path d="M5.7 3.2 Q6.8 2.4 8.95 2.2 12.1 1.9 13.7 2.85 L14.35 3.3 Q15.45 4.25 16.25 6.05 16.9 7.6 17.1 9.3 L17.05 9.3 Q14.95 8.45 13.55 8.95 12.1 9.4 12.15 10.35 L12.35 11.1 Q13.0 12.7 15.2 12.5 14.55 15.2 13.2 17.1 14.55 15.2 15.2 12.5 15.65 12.7 17.05 11.95 L16.85 14.2 16.8 14.3 Q16.65 15.4 16.05 16.05 L15.05 16.6 13.2 17.1 13.15 17.1 12.55 17.15 12.0 17.15 11.45 17.2 Q8.65 17.4 5.7 15.95 L4.7 14.65 Q3.05 11.15 3.35 8.4 3.65 5.65 4.7 4.1 L4.8 4.0 4.9 3.9 4.95 3.8 5.1 3.65 5.15 3.65 5.2 3.6 5.15 3.65 4.95 3.8 5.15 3.65 5.3 3.5 5.65 3.25 5.3 3.5 5.2 3.6 5.3 3.5 5.5 3.3 5.65 3.25 5.7 3.2" fill="#232323" fill-rule="evenodd" stroke="none"/>
    <path d="M15.2 12.5 Q13.0 12.7 12.35 11.1 L13.0 11.65 15.75 11.9 Q16.65 11.75 17.05 11.15 L17.1 11.05 17.05 11.95 Q15.65 12.7 15.2 12.5" fill="#313131" fill-rule="evenodd" stroke="none"/>
    <path d="M5.7 3.2 L5.65 3.25 5.3 3.5 5.2 3.6 M5.15 3.65 L4.95 3.8 4.9 3.9 M13.15 17.1 L13.2 17.1 15.0 16.65 16.05 16.05 Q16.65 15.4 16.8 14.3 L16.85 14.2 M17.05 11.15 L17.05 11.1 17.05 9.3 M5.15 3.65 L5.1 3.65 4.95 3.8 M5.3 3.5 L5.15 3.65" fill="none" stroke="#3a3a3a" stroke-linecap="round" stroke-linejoin="round" stroke-width="1.0"/>
    <path d="M5.2 3.6 L5.15 3.65 M4.9 3.9 L4.8 4.0 4.7 4.1 Q3.65 5.65 3.35 8.4 3.05 11.15 4.7 14.65 L5.7 15.95 Q8.65 17.4 11.45 17.2 L12.0 17.15 12.55 17.15 13.15 17.1 M5.65 3.25 L5.5 3.3 5.3 3.5" fill="none" stroke="#040404" stroke-linecap="round" stroke-linejoin="round" stroke-width="1.0"/>
    <path d="M4.8 4.0 L4.65 4.15 Q3.6 5.7 3.3 8.45 3.0 11.2 4.65 14.7 L5.65 16.0 Q8.9 17.6 11.95 17.2 L12.55 17.15" fill="none" stroke="#101010" stroke-linecap="round" stroke-linejoin="round" stroke-width="1.1"/>
    <path d="M13.2 17.1 Q14.55 15.2 15.2 12.5" ffdec:has-small-stroke="true" ffdec:original-stroke-width="0.8" fill="none" stroke="#463900" stroke-linecap="round" stroke-linejoin="round" stroke-width="1.0"/>
    <path d="M15.2 12.5 Q13.0 12.7 12.35 11.1 M17.05 11.95 Q15.65 12.7 15.2 12.5" fill="none" stroke="#463900" stroke-linecap="round" stroke-linejoin="round" stroke-width="1.0"/>
    <path d="M12.35 11.1 L12.15 10.35 Q12.1 9.4 13.55 8.95 14.95 8.45 17.05 9.3 L17.1 9.3 Q16.9 7.6 16.25 6.05 15.45 4.25 14.35 3.3 L13.7 2.85 Q12.1 1.9 8.95 2.2 6.8 2.4 5.7 3.2 M12.35 11.1 L13.0 11.65 15.75 11.9 Q16.65 11.75 17.05 11.15 L17.1 11.05 17.1 9.3 M17.05 11.95 L17.1 11.05 M16.85 14.2 L17.05 11.95 M16.05 16.05 Q16.7 15.4 16.85 14.25 L16.85 14.2 M16.05 16.05 L15.05 16.6 13.2 17.1" fill="none" stroke="#020202" stroke-linecap="round" stroke-linejoin="round" stroke-width="1.0"/>
    <path d="M10.25 10.2 L13.0 11.65 17.75 12.2 18.9 12.2 18.8 13.0 18.3 14.85 15.45 14.5 12.6 14.15 9.85 12.6 9.85 12.55 9.7 12.5 9.55 12.45 9.5 12.45 9.8 10.2 9.95 10.2 10.25 10.2" fill="#252525" fill-rule="evenodd" stroke="none"/>
    <path d="M17.75 12.2 L13.0 11.65 10.25 10.2 10.4 9.4 12.85 10.9 17.85 11.4 17.75 12.2" fill="url(#gradient0)" fill-rule="evenodd" stroke="none"/>
    <path d="M18.5 8.3 L10.1 7.7 9.3 7.8 9.3 7.5 18.05 7.5 18.5 8.3" fill="#333333" fill-rule="evenodd" stroke="none"/>
    <path d="M17.85 11.4 L12.85 10.9 10.4 9.4 9.95 9.4 9.9 9.4 10.1 7.7 9.9 9.4 9.8 10.2 9.5 12.45 9.55 12.45 9.7 12.5 9.7 12.55 9.8 12.7 9.85 12.6 12.6 14.15 15.45 14.5 13.7 17.95 10.9 17.3 8.9 15.35 8.9 14.1 7.2 14.1 2.65 11.0 5.5 8.1 9.1 7.8 9.3 7.8 10.1 7.7 18.5 8.3 18.55 8.3 18.95 11.35 17.85 11.4 M10.1 7.7 L9.05 8.45 10.1 7.7 M9.05 8.45 L9.1 7.8 9.05 8.45 8.45 13.25 7.3 13.25 5.25 11.65 7.3 13.25 8.45 13.25 9.05 8.45 M9.5 12.45 L9.3 14.1 8.9 14.1 9.3 14.1 9.5 12.45" fill="#1e1e1e" fill-rule="evenodd" stroke="none"/>
    <path d="M9.7 12.5 L9.85 12.55 9.85 12.6 9.7 12.55 9.85 12.6 9.8 12.7 9.7 12.55 9.7 12.5" fill="url(#gradient1)" fill-rule="evenodd" stroke="none"/>
    <path d="M15.45 14.5 L18.3 14.85 18.3 16.05 16.55 18.55 13.7 17.95 15.45 14.5" fill="#2c0101" fill-rule="evenodd" stroke="none"/>
    <path d="M17.85 11.4 L12.85 10.9 10.4 9.4 9.95 9.4 9.9 9.4 M17.85 11.4 L18.95 11.35" fill="none" stroke="#171717" stroke-linecap="round" stroke-linejoin="round" stroke-width="1.0"/>
    <path d="M9.85 12.55 L9.85 12.6 M9.3 7.8 L9.3 7.5 18.05 7.5 18.5 8.3 M9.95 10.2 L9.95 9.4 M9.7 12.55 L9.7 12.5 M10.9 17.3 L13.7 17.95 16.55 18.55 18.3 16.05 18.3 14.85" fill="none" stroke="#0e0e0e" stroke-linecap="round" stroke-linejoin="round" stroke-width="1.0"/>
    <path d="M9.5 12.45 L9.55 12.45 9.7 12.5" fill="none" stroke="#121212" stroke-linecap="round" stroke-linejoin="round" stroke-width="1.0"/>
    <path d="M8.9 14.1 L8.9 15.35 10.9 17.3" fill="none" stroke="#0b0b0b" stroke-linecap="round" stroke-linejoin="round" stroke-opacity="0.8980392" stroke-width="1.0"/>
    <path d="M10.25 10.2 L9.95 10.2 9.8 10.2" ffdec:has-small-stroke="true" ffdec:original-stroke-width="0.8" fill="none" stroke="#383100" stroke-linecap="round" stroke-linejoin="round" stroke-width="1.0"/>
    <path d="M9.1 7.8 L9.05 8.45" fill="none" stroke="#383100" stroke-linecap="round" stroke-linejoin="round" stroke-width="1.0"/>
    <path d="M10.25 10.2 L13.0 11.65 17.75 12.2 18.9 12.2" ffdec:has-small-stroke="true" ffdec:original-stroke-width="0.8" fill="none" stroke="#2c0101" stroke-linecap="round" stroke-linejoin="round" stroke-width="1.0"/>
    <path d="M9.05 8.45 L8.45 13.25 7.3 13.25 5.25 11.65" fill="none" stroke="#2c0101" stroke-linecap="round" stroke-linejoin="round" stroke-width="1.0"/>
    <path d="M9.8 10.2 L9.5 12.45 9.3 14.1 8.9 14.1 7.2 14.1 2.65 11.0 5.5 8.1 9.1 7.8 9.3 7.8 10.1 7.7 9.9 9.4 9.8 10.2 M9.85 12.6 L12.6 14.15 15.45 14.5 18.3 14.85 18.8 13.0 18.9 12.2 18.95 11.35 18.55 8.3 18.5 8.3 10.1 7.7 9.05 8.45 M9.7 12.55 L9.85 12.6" fill="none" stroke="#090909" stroke-linecap="round" stroke-linejoin="round" stroke-width="1.0"/>
    <path d="M12.3 10.1 L13.2 10.2 M12.55 12.1 L15.25 12.45 M17.1 12.7 L17.6 12.75 M14.8 10.4 L17.7 10.75" fill="none" stroke="#ff0000" stroke-linecap="round" stroke-linejoin="round" stroke-width="1.0"/>
    <path d="M16.1 2.75 L13.3 2.85 11.15 6.2 7.6 4.3 2.05 3.35 Q2.55 2.65 4.15 1.45 5.75 0.25 8.35 0.05 L12.3 0.3 Q13.7 0.7 14.55 1.3 L16.1 2.75 M9.15 2.25 L7.1 2.95 9.15 2.25 M12.05 3.15 L10.3 3.85 12.05 3.15" fill="#1e1e1e" fill-rule="evenodd" stroke="none"/>
    <path d="M2.1 12.4 L1.05 10.85 Q0.6 9.15 0.7 7.5 L2.25 7.5 Q2.25 10.05 3.45 11.7 L2.1 12.4" fill="#383100" fill-rule="evenodd" stroke="none"/>
    <path d="M11.15 6.2 L13.05 7.2 6.7 7.2 5.15 12.7 3.25 13.45 2.1 12.4 3.45 11.7 Q2.25 10.05 2.25 7.5 L0.7 7.5 0.9 5.6 Q1.15 4.6 2.05 3.35 L7.6 4.3 11.15 6.2" fill="#1c1c1c" fill-rule="evenodd" stroke="none"/>
    <path d="M16.1 2.75 L17.3 4.6 17.8 5.9 17.8 7.2 13.05 7.2 11.15 6.2 13.3 2.85 16.1 2.75" fill="#2c0101" fill-rule="evenodd" stroke="none"/>
    <path d="M13.05 7.2 L17.8 7.2 17.8 5.9 17.3 4.6 16.1 2.75 14.55 1.3 Q13.7 0.7 12.3 0.3 L8.35 0.05 Q5.75 0.25 4.15 1.45 2.55 2.65 2.05 3.35 L7.6 4.3 11.15 6.2 13.05 7.2 6.7 7.2 5.15 12.7 3.25 13.45 2.1 12.4 1.05 10.85 Q0.6 9.15 0.7 7.5 L0.9 5.6 Q1.15 4.6 2.05 3.35 M10.3 3.85 L12.05 3.15 M7.1 2.95 L9.15 2.25" fill="none" stroke="#0b0b0b" stroke-linecap="round" stroke-linejoin="round" stroke-width="1.0"/>
    <path d="M19.95 6.65 L19.45 6.65 19.25 7.65 18.3 7.8 13.4 7.45 12.7 6.3 13.7 4.95 15.5 4.5 16.75 2.3 17.9 2.3 18.55 3.15 19.6 3.15 Q20.5 4.35 19.95 6.65 M19.45 6.65 L17.4 6.0 17.4 4.05 18.55 3.15 17.4 4.05 17.4 6.0 19.45 6.65 M6.1 6.85 L5.45 6.85 6.1 6.85 M4.65 6.1 L9.1 6.1 9.95 6.6 Q10.3 7.45 9.25 8.25 L6.4 8.25 5.75 10.5 Q3.95 11.35 3.4 9.75 L4.65 6.1" fill="#272727" fill-rule="evenodd" stroke="none"/>
    <path d="M2.2 11.55 L1.4 11.55 2.2 11.55 M-0.35 6.05 L1.55 5.6 2.45 6.45 3.45 12.55 -0.1 12.7 -0.5 10.1 -0.85 8.25 -0.05 8.6 -0.85 8.25 -1.2 6.25 -0.35 6.05 M0.05 10.4 L-0.5 10.1 0.05 10.4" fill="#1c1c1c" fill-rule="evenodd" stroke="none"/>
    <path d="M5.45 6.85 L6.1 6.85" fill="none" stroke="#191919" stroke-linecap="round" stroke-linejoin="round" stroke-width="1.0"/>
    <path d="M19.95 6.65 L19.45 6.65 19.25 7.65 18.3 7.8 13.4 7.45 12.7 6.3 13.7 4.95 15.5 4.5 16.75 2.3 17.9 2.3 18.55 3.15 19.6 3.15 Q20.5 4.35 19.95 6.65 M18.55 3.15 L17.4 4.05 17.4 6.0 19.45 6.65 M4.65 6.1 L9.1 6.1 9.95 6.6 Q10.3 7.45 9.25 8.25 L6.4 8.25 5.75 10.5 Q3.95 11.35 3.4 9.75 L4.65 6.1 M-0.35 6.05 L1.55 5.6 2.45 6.45 3.45 12.55 -0.1 12.7 -0.5 10.1 -0.85 8.25 -1.2 6.25 -0.35 6.05" fill="none" stroke="#0b0b0b" stroke-linecap="round" stroke-linejoin="round" stroke-width="1.0"/>
    <path d="M-0.5 10.1 L-1.5 9.6 M-0.85 8.25 L-0.05 8.6 M-1.6 7.9 L-0.85 8.25 M-0.5 10.1 L0.05 10.4" fill="none" stroke="#272727" stroke-linecap="round" stroke-linejoin="round" stroke-width="1.0"/>
    <path d="M-0.35 6.05 L-1.6 -1.65" fill="none" stroke="#000000" stroke-linecap="round" stroke-linejoin="round" stroke-opacity="0.69803923" stroke-width="1.0"/>
    <path d="M1.4 11.55 L2.2 11.55" fill="none" stroke="#ff0000" stroke-linecap="round" stroke-linejoin="round" stroke-width="1.0"/>
    <path d="M13.4 17.15 Q13.4 17.9 12.85 18.45 12.3 19.0 11.55 19.0 10.8 19.0 10.25 18.45 9.7 17.9 9.7 17.15 9.7 16.4 10.25 15.85 10.8 15.3 11.55 15.3 12.3 15.3 12.85 15.85 13.4 16.4 13.4 17.15" fill="#353535" fill-rule="evenodd" stroke="none"/>
    <path d="M13.4 17.15 Q13.4 17.9 12.85 18.45 12.3 19.0 11.55 19.0 10.8 19.0 10.25 18.45 9.7 17.9 9.7 17.15 9.7 16.4 10.25 15.85 10.8 15.3 11.55 15.3 12.3 15.3 12.85 15.85 13.4 16.4 13.4 17.15 Z" fill="none" stroke="#020202" stroke-linecap="round" stroke-linejoin="round" stroke-width="1.1"/>
    <path d="M9.9 5.05 L9.9 6.05 9.9 6.5 8.45 6.5 8.45 6.6 3.7 6.6 3.7 4.6 5.55 4.6 8.45 4.6 9.9 4.6 9.9 5.05 M8.45 4.6 L8.45 6.5 8.45 4.6 M5.55 4.6 L5.55 6.2 5.55 4.6" fill="#353535" fill-rule="evenodd" stroke="none"/>
    <path d="M9.9 6.05 L9.9 6.5 8.45 6.5 8.45 6.6 3.7 6.6 3.7 4.6 5.55 4.6 8.45 4.6 9.9 4.6 9.9 5.05 M5.55 6.2 L5.55 4.6 M8.45 6.5 L8.45 4.6" fill="none" stroke="#0e0e0e" stroke-linecap="round" stroke-linejoin="round" stroke-width="1.0"/>
    <path d="M9.9 5.05 L9.9 6.05" fill="none" stroke="#ff0000" stroke-linecap="round" stroke-linejoin="round" stroke-width="1.0"/>
    <path d="M10.35 5.55 L36.15 5.55" fill="none" stroke="url(#gradient2)" stroke-linecap="round" stroke-linejoin="round" stroke-width="1.0"/>
  </g>
  <defs>
    <radialGradient cx="0" cy="0" gradientTransform="matrix(0.0139, -0.0105, 0.0152, 0.0201, 12.65, 11.5)" gradientUnits="userSpaceOnUse" id="gradient0" r="819.2" spreadMethod="pad">
      <stop offset="0.0" stop-color="#3a0303" stop-opacity="0.8980392"/>
      <stop offset="0.596078431372549" stop-color="#db0000"/>
      <stop offset="0.9058823529411765" stop-color="#850000" stop-opacity="0.8980392"/>
    </radialGradient>
    <linearGradient gradientTransform="matrix(0.0134, 0.0, 0.0, 0.0024, 13.25, -8.2)" gradientUnits="userSpaceOnUse" id="gradient1" spreadMethod="pad" x1="-819.2" x2="819.2">
      <stop offset="0.1607843137254902" stop-color="#410000" stop-opacity="0.64705884"/>
      <stop offset="0.5019607843137255" stop-color="#8e0101" stop-opacity="0.627451"/>
      <stop offset="0.6274509803921569" stop-color="#ff0000" stop-opacity="0.65882355"/>
      <stop offset="0.7294117647058823" stop-color="#b10000" stop-opacity="0.61960787"/>
      <stop offset="1.0" stop-color="#4d0000" stop-opacity="0.6392157"/>
    </linearGradient>
    <linearGradient gradientTransform="matrix(0.0164, 0.0, 0.0, 6.0E-4, 23.25, 5.5)" gradientUnits="userSpaceOnUse" id="gradient2" spreadMethod="pad" x1="-819.2" x2="819.2">
      <stop offset="0.0" stop-color="#ff0000" stop-opacity="0.49803922"/>
      <stop offset="0.9686274509803922" stop-color="#ff0000" stop-opacity="0.023529412"/>
      <stop offset="1.0" stop-color="#ffd200" stop-opacity="0.007843138"/>
    </linearGradient>
  </defs>
</svg>
