<?xml version="1.0" encoding="UTF-8" standalone="no"?>
<svg xmlns:ffdec="https://www.free-decompiler.com/flash" xmlns:xlink="http://www.w3.org/1999/xlink" ffdec:objectType="shape" height="19.3px" width="36.9px" xmlns="http://www.w3.org/2000/svg">
  <g transform="matrix(1.0, 0.0, 0.0, 1.0, 0.5, 0.5)">
    <path d="M2.75 11.85 Q3.1 13.2 3.8 14.65 L4.8 15.95 Q8.05 17.55 11.1 17.15 L14.15 16.6 Q15.7 16.1 15.95 14.25 L16.2 12.0 15.95 14.35 Q15.7 16.2 14.15 16.7 L11.1 17.25 Q8.05 17.65 4.8 16.05 L3.8 14.75 Q3.1 13.25 2.75 11.85" fill="#e9ca8d" fill-rule="evenodd" stroke="none"/>
    <path d="M2.75 11.85 L2.4 9.35 2.45 8.9 2.45 8.4 Q2.75 5.65 3.8 4.1 L4.6 3.3 Q5.75 2.4 8.05 2.2 11.2 1.9 12.8 2.85 L13.45 3.3 Q14.55 4.25 15.35 6.05 L16.05 8.5 16.2 11.05 16.2 11.15 16.2 11.9 16.2 12.0 15.95 14.25 Q15.7 16.1 14.15 16.6 L11.1 17.15 Q8.05 17.55 4.8 15.95 L3.8 14.65 Q3.1 13.2 2.75 11.85 M14.3 10.4 L12.6 10.4 14.3 10.4 M15.3 15.3 L13.9 15.3 15.3 15.3" fill="#e9be6d" fill-rule="evenodd" stroke="none"/>
    <path d="M12.6 10.4 L14.3 10.4" fill="none" stroke="#a3793c" stroke-linecap="round" stroke-linejoin="round" stroke-width="1.75"/>
    <path d="M13.9 15.3 L15.3 15.3" fill="none" stroke="#a3793c" stroke-linecap="round" stroke-linejoin="round" stroke-width="1.0"/>
    <path d="M3.9 4.0 L3.8 4.1 Q2.75 5.65 2.45 8.4 2.15 11.15 3.8 14.65 L4.8 15.95 Q7.75 17.4 10.55 17.2 L11.1 17.15 11.65 17.15 11.05 17.2 Q8.0 17.6 4.75 16.0 L3.75 14.7 Q2.1 11.2 2.4 8.45 2.7 5.7 3.75 4.15 L3.9 4.0 M15.15 16.05 Q14.75 16.45 14.1 16.65 L12.3 17.1 14.15 16.6 15.15 16.05" fill="#696969" fill-rule="evenodd" stroke="none"/>
    <path d="M4.75 3.25 L4.45 3.5 4.6 3.3 4.75 3.25" fill="#232323" fill-rule="evenodd" stroke="none"/>
    <path d="M14.3 12.5 Q12.1 12.7 11.45 11.1 L12.1 11.65 14.85 11.9 Q15.75 11.75 16.15 11.15 L16.2 11.05 16.15 11.95 Q14.75 12.7 14.3 12.5" fill="#313131" fill-rule="evenodd" stroke="none"/>
    <path d="M4.8 3.2 Q5.9 2.4 8.05 2.2 11.2 1.9 12.8 2.85 L13.45 3.3 Q14.55 4.25 15.35 6.05 16.0 7.6 16.2 9.3 L16.15 9.3 Q14.05 8.45 12.65 8.95 11.2 9.4 11.25 10.35 L11.45 11.1 Q12.1 12.7 14.3 12.5 13.65 15.2 12.3 17.1 13.65 15.2 14.3 12.5 14.75 12.7 16.15 11.95 L15.95 14.2 15.9 14.3 Q15.75 15.4 15.15 16.05 L14.15 16.6 12.3 17.1 12.25 17.1 11.65 17.15 11.1 17.15 10.55 17.2 Q7.75 17.4 4.8 15.95 L3.8 14.65 Q2.15 11.15 2.45 8.4 2.75 5.65 3.8 4.1 L3.9 4.0 4.0 3.9 4.05 3.8 4.2 3.65 4.4 3.5 4.45 3.5 4.75 3.25 4.8 3.2" fill="#9c9c9c" fill-rule="evenodd" stroke="none"/>
    <path d="M4.8 3.2 L4.75 3.25 4.45 3.5 4.4 3.5 4.2 3.65 4.05 3.8 4.0 3.9 M16.15 11.15 L16.15 11.1 16.15 9.3" fill="none" stroke="#3a3a3a" stroke-linecap="round" stroke-linejoin="round" stroke-width="1.0"/>
    <path d="M4.0 3.9 L3.9 4.0 3.8 4.1 Q2.75 5.65 2.45 8.4 2.15 11.15 3.8 14.65 L4.8 15.95 Q7.75 17.4 10.55 17.2 L11.1 17.15 11.65 17.15 12.25 17.1 M4.75 3.25 L4.6 3.3 4.45 3.5" fill="none" stroke="#040404" stroke-linecap="round" stroke-linejoin="round" stroke-width="1.0"/>
    <path d="M3.9 4.0 L3.75 4.15 Q2.7 5.7 2.4 8.45 2.1 11.2 3.75 14.7 L4.75 16.0 Q8.0 17.6 11.05 17.2 L11.65 17.15" fill="none" stroke="#101010" stroke-linecap="round" stroke-linejoin="round" stroke-width="1.1"/>
    <path d="M12.3 17.1 Q13.65 15.2 14.3 12.5" ffdec:has-small-stroke="true" ffdec:original-stroke-width="0.8" fill="none" stroke="#460000" stroke-linecap="round" stroke-linejoin="round" stroke-width="1.0"/>
    <path d="M14.3 12.5 Q12.1 12.7 11.45 11.1 M16.15 11.95 Q14.75 12.7 14.3 12.5" fill="none" stroke="#460000" stroke-linecap="round" stroke-linejoin="round" stroke-width="1.0"/>
    <path d="M11.45 11.1 L11.25 10.35 Q11.2 9.4 12.65 8.95 14.05 8.45 16.15 9.3 L16.2 9.3 Q16.0 7.6 15.35 6.05 14.55 4.25 13.45 3.3 L12.8 2.85 Q11.2 1.9 8.05 2.2 5.9 2.4 4.8 3.2 M12.25 17.1 L12.3 17.1 14.15 16.6 15.15 16.05 Q15.8 15.4 15.95 14.25 L15.95 14.2 16.15 11.95 16.2 11.05 16.15 11.15 Q15.75 11.75 14.85 11.9 L12.1 11.65 11.45 11.1 M16.2 11.05 L16.2 9.3 M15.15 16.05 Q14.75 16.45 14.1 16.65 L12.3 17.1" fill="none" stroke="#101010" stroke-linecap="round" stroke-linejoin="round" stroke-width="1.0"/>
    <path d="M18.05 8.1 L18.1 8.1 18.5 11.15 18.5 11.65 17.4 11.2 12.85 9.2 9.95 9.2 9.5 9.2 9.45 9.2 9.65 7.5 18.05 8.1 9.65 7.5 8.85 7.6 8.85 7.3 17.6 7.3 18.05 8.1" fill="#333333" fill-rule="evenodd" stroke="none"/>
    <path d="M9.95 9.2 L12.85 9.2 17.4 11.2 17.3 12.0 12.7 10.0 9.8 10.0 9.95 9.2" fill="url(#gradient0)" fill-rule="evenodd" stroke="none"/>
    <path d="M9.25 12.3 L9.4 12.35 9.4 12.4 9.35 12.5 9.25 12.35 9.25 12.3 M9.4 12.4 L9.25 12.35 9.4 12.4" fill="url(#gradient1)" fill-rule="evenodd" stroke="none"/>
    <path d="M18.4 12.5 L18.35 12.8 18.1 13.95 Q17.2 16.65 16.1 18.3 L12.8 18.3 8.45 15.8 8.45 13.9 8.85 13.9 9.05 12.25 9.25 12.3 9.1 12.25 9.05 12.25 9.35 10.0 9.5 10.0 9.8 10.0 12.7 10.0 17.3 12.0 18.4 12.5 M9.4 12.35 L9.25 12.3 9.25 12.35 9.35 12.5 9.4 12.4 9.4 12.35 M18.1 13.95 L16.4 14.9 9.4 12.4 16.4 14.9 18.1 13.95" fill="#252525" fill-rule="evenodd" stroke="none"/>
    <path d="M9.65 7.5 L9.45 9.2 9.35 10.0 9.05 12.25 8.85 13.9 8.45 13.9 6.75 13.9 2.2 10.8 5.05 7.9 8.65 7.6 8.85 7.6 9.65 7.5 8.6 8.25 9.65 7.5 M8.6 8.25 L8.65 7.6 8.6 8.25 8.0 13.05 6.85 13.05 4.8 11.45 6.85 13.05 8.0 13.05 8.6 8.25" fill="#1e1e1e" fill-rule="evenodd" stroke="none"/>
    <path d="M9.45 9.2 L9.5 9.2 9.95 9.2 12.85 9.2 17.4 11.2 18.5 11.65" fill="none" stroke="#171717" stroke-linecap="round" stroke-linejoin="round" stroke-width="1.0"/>
    <path d="M8.85 7.6 L8.85 7.3 17.6 7.3 18.05 8.1 M9.4 12.35 L9.4 12.4 M9.25 12.35 L9.25 12.3 M9.5 10.0 L9.5 9.2" fill="none" stroke="#0e0e0e" stroke-linecap="round" stroke-linejoin="round" stroke-width="1.0"/>
    <path d="M9.05 12.25 L9.1 12.25 9.25 12.3" fill="none" stroke="#121212" stroke-linecap="round" stroke-linejoin="round" stroke-width="1.0"/>
    <path d="M17.3 12.0 L18.4 12.5 M9.8 10.0 L12.7 10.0 17.3 12.0 M9.5 10.0 L9.8 10.0 M9.35 10.0 L9.5 10.0" ffdec:has-small-stroke="true" ffdec:original-stroke-width="0.8" fill="none" stroke="#3f0000" stroke-linecap="round" stroke-linejoin="round" stroke-width="1.0"/>
    <path d="M8.65 7.6 L8.6 8.25 8.0 13.05 6.85 13.05 4.8 11.45" fill="none" stroke="#2c0101" stroke-linecap="round" stroke-linejoin="round" stroke-width="1.0"/>
    <path d="M18.5 11.65 L18.5 11.15 18.1 8.1 18.05 8.1 9.65 7.5 9.45 9.2 9.35 10.0 9.05 12.25 8.85 13.9 8.45 13.9 6.75 13.9 2.2 10.8 5.05 7.9 8.65 7.6 8.85 7.6 9.65 7.5 8.6 8.25 M18.5 11.65 L18.4 12.5 18.35 12.8 18.1 13.95 Q17.2 16.65 16.1 18.3 L12.8 18.3 8.45 15.8 8.45 13.9 M9.4 12.4 L16.4 14.9 18.1 13.95 M9.25 12.35 L9.4 12.4" fill="none" stroke="#0b0b0b" stroke-linecap="round" stroke-linejoin="round" stroke-width="1.0"/>
    <path d="M15.4 2.75 L16.6 4.6 17.1 5.9 17.1 7.2 12.35 7.2 10.45 6.2 12.6 2.85 15.4 2.75" fill="#252525" fill-rule="evenodd" stroke="none"/>
    <path d="M10.45 6.2 L12.35 7.2 6.0 7.2 4.45 12.7 2.55 13.45 1.4 12.4 2.75 11.7 Q1.55 10.05 1.55 7.5 L0.0 7.5 0.2 5.6 Q0.45 4.6 1.35 3.35 L6.9 4.3 10.45 6.2" fill="#1e1e1e" fill-rule="evenodd" stroke="none"/>
    <path d="M1.4 12.4 L0.35 10.85 Q-0.1 9.15 0.0 7.5 L1.55 7.5 Q1.55 10.05 2.75 11.7 L1.4 12.4" fill="#2c0101" fill-rule="evenodd" stroke="none"/>
    <path d="M15.4 2.75 L12.6 2.85 10.45 6.2 6.9 4.3 1.35 3.35 Q1.85 2.65 3.45 1.45 5.05 0.25 7.65 0.05 L11.6 0.3 Q13.0 0.7 13.85 1.3 L15.4 2.75 M8.45 2.25 L6.4 2.95 8.45 2.25 M11.35 3.15 L9.6 3.85 11.35 3.15" fill="#434343" fill-rule="evenodd" stroke="none"/>
    <path d="M12.35 7.2 L17.1 7.2 17.1 5.9 16.6 4.6 15.4 2.75 13.85 1.3 Q13.0 0.7 11.6 0.3 L7.65 0.05 Q5.05 0.25 3.45 1.45 1.85 2.65 1.35 3.35 L6.9 4.3 10.45 6.2 12.35 7.2 6.0 7.2 4.45 12.7 2.55 13.45 1.4 12.4 0.35 10.85 Q-0.1 9.15 0.0 7.5 L0.2 5.6 Q0.45 4.6 1.35 3.35" fill="none" stroke="#0b0b0b" stroke-linecap="round" stroke-linejoin="round" stroke-width="1.0"/>
    <path d="M6.4 2.95 L8.45 2.25 M9.6 3.85 L11.35 3.15" fill="none" stroke="#272727" stroke-linecap="round" stroke-linejoin="round" stroke-width="1.0"/>
    <path d="M11.1 10.9 L12.5 10.95 15.85 12.5 M14.6 9.15 L17.05 10.25" fill="none" stroke="#ff0000" stroke-linecap="round" stroke-linejoin="round" stroke-width="1.0"/>
    <path d="M19.25 6.65 L18.75 6.65 18.55 7.65 17.6 7.8 12.7 7.45 12.0 6.3 13.0 4.95 14.8 4.5 16.05 2.3 17.2 2.3 17.85 3.15 18.9 3.15 Q19.8 4.35 19.25 6.65 M18.75 6.65 L16.7 6.0 16.7 4.05 17.85 3.15 16.7 4.05 16.7 6.0 18.75 6.65 M3.95 6.1 L8.4 6.1 9.25 6.6 Q9.6 7.45 8.55 8.25 L5.7 8.25 5.05 10.5 Q3.25 11.35 2.7 9.75 L3.95 6.1 M5.4 6.85 L4.75 6.85 5.4 6.85" fill="#333333" fill-rule="evenodd" stroke="none"/>
    <path d="M19.25 6.65 L18.75 6.65 18.55 7.65 17.6 7.8 12.7 7.45 12.0 6.3 13.0 4.95 14.8 4.5 16.05 2.3 17.2 2.3 17.85 3.15 18.9 3.15 Q19.8 4.35 19.25 6.65 M17.85 3.15 L16.7 4.05 16.7 6.0 18.75 6.65 M3.95 6.1 L8.4 6.1 9.25 6.6 Q9.6 7.45 8.55 8.25 L5.7 8.25 5.05 10.5 Q3.25 11.35 2.7 9.75 L3.95 6.1 M4.75 6.85 L5.4 6.85" fill="none" stroke="#191919" stroke-linecap="round" stroke-linejoin="round" stroke-width="1.0"/>
    <path d="M5.3 4.7 L5.3 5.7 5.3 4.7 8.2 4.7 9.65 4.7 9.65 5.15 9.65 6.15 9.65 6.6 8.2 6.6 8.2 6.7 3.45 6.7 3.45 4.7 5.3 4.7 M8.2 4.7 L8.2 6.6 8.2 4.7" fill="#353535" fill-rule="evenodd" stroke="none"/>
    <path d="M5.3 5.7 L5.3 4.7 3.45 4.7 3.45 6.7 8.2 6.7 8.2 6.6 8.2 4.7 5.3 4.7 M8.2 4.7 L9.65 4.7 9.65 5.15 M9.65 6.15 L9.65 6.6 8.2 6.6" fill="none" stroke="#1c1c1c" stroke-linecap="round" stroke-linejoin="round" stroke-width="1.0"/>
    <path d="M9.65 5.15 L9.65 6.15" fill="none" stroke="#ff0000" stroke-linecap="round" stroke-linejoin="round" stroke-width="1.0"/>
    <path d="M10.1 5.6 L35.9 5.6" fill="none" stroke="url(#gradient2)" stroke-linecap="round" stroke-linejoin="round" stroke-width="1.0"/>
  </g>
  <defs>
    <radialGradient cx="0" cy="0" gradientTransform="matrix(0.0139, -0.0105, 0.0152, 0.0201, 12.2, 11.3)" gradientUnits="userSpaceOnUse" id="gradient0" r="819.2" spreadMethod="pad">
      <stop offset="0.0" stop-color="#3a0303" stop-opacity="0.8980392"/>
      <stop offset="0.596078431372549" stop-color="#db0000"/>
      <stop offset="0.9058823529411765" stop-color="#850000" stop-opacity="0.8980392"/>
    </radialGradient>
    <linearGradient gradientTransform="matrix(0.0134, 0.0, 0.0, 0.0024, 12.8, -8.4)" gradientUnits="userSpaceOnUse" id="gradient1" spreadMethod="pad" x1="-819.2" x2="819.2">
      <stop offset="0.1607843137254902" stop-color="#410000" stop-opacity="0.64705884"/>
      <stop offset="0.5019607843137255" stop-color="#8e0101" stop-opacity="0.627451"/>
      <stop offset="0.6274509803921569" stop-color="#ff0000" stop-opacity="0.65882355"/>
      <stop offset="0.7294117647058823" stop-color="#b10000" stop-opacity="0.61960787"/>
      <stop offset="1.0" stop-color="#4d0000" stop-opacity="0.6392157"/>
    </linearGradient>
    <linearGradient gradientTransform="matrix(0.0164, 0.0, 0.0, 6.0E-4, 23.0, 5.6)" gradientUnits="userSpaceOnUse" id="gradient2" spreadMethod="pad" x1="-819.2" x2="819.2">
      <stop offset="0.0" stop-color="#ff0000" stop-opacity="0.49803922"/>
      <stop offset="1.0" stop-color="#ff0000" stop-opacity="0.007843138"/>
    </linearGradient>
  </defs>
</svg>
