<?xml version="1.0" encoding="UTF-8" standalone="no"?>
<svg xmlns:ffdec="https://www.free-decompiler.com/flash" xmlns:xlink="http://www.w3.org/1999/xlink" ffdec:objectType="shape" height="14.9px" width="17.1px" xmlns="http://www.w3.org/2000/svg">
  <g transform="matrix(1.0, 0.0, 0.0, 1.0, 0.5, 0.5)">
    <path d="M2.95 2.55 Q3.2 1.05 3.3 1.25 5.0 -0.8 10.15 0.55 L10.55 0.65 11.5 0.9 12.55 1.25 12.7 1.4 Q14.75 3.6 14.3 4.5 11.9 8.25 5.9 6.5 2.85 4.95 2.95 2.55 M7.85 5.5 L10.0 5.5 9.7 5.3 6.9 4.5 7.85 5.5 M5.9 3.65 L6.2 4.25 9.0 4.65 8.85 4.45 5.9 3.65 M9.85 3.1 L8.8 2.85 9.85 3.1 10.55 3.3 9.85 3.1" fill="#e38902" fill-rule="evenodd" stroke="none"/>
    <path d="M5.9 6.5 Q4.7 6.5 5.2 8.85 L2.25 8.05 1.0 7.5 Q-0.75 2.9 1.6 1.45 L2.95 2.55 Q2.85 4.95 5.9 6.5 M6.85 12.45 L6.9 12.45 6.9 13.35 5.0 13.9 3.85 12.95 5.1 11.65 6.85 12.45" fill="#666666" fill-rule="evenodd" stroke="none"/>
    <path d="M5.2 8.85 L5.3 10.1 7.75 11.15 7.55 11.95 6.85 12.45 5.1 11.65 3.85 12.95 Q3.6 13.1 1.85 12.25 2.45 10.05 2.25 8.05 L5.2 8.85" fill="#d27e02" fill-rule="evenodd" stroke="none"/>
    <path d="M5.9 3.65 L8.85 4.45 9.0 4.65 6.2 4.25 5.9 3.65 M7.85 5.5 L6.9 4.5 9.7 5.3 10.0 5.5 7.85 5.5" fill="#330000" fill-rule="evenodd" stroke="none"/>
    <path d="M2.95 2.55 Q3.2 1.05 3.3 1.25 5.0 -0.8 10.15 0.55 L10.55 0.65 11.5 0.9 12.55 1.25 12.7 1.4 Q14.75 3.6 14.3 4.5 M7.75 11.15 L7.55 11.95 M1.85 12.25 Q2.45 10.05 2.25 8.05" fill="none" stroke="#653d01" stroke-linecap="round" stroke-linejoin="round" stroke-width="1.0"/>
    <path d="M8.8 2.85 L9.85 3.1" fill="none" stroke="#910000" stroke-linecap="round" stroke-linejoin="round" stroke-width="2.0"/>
    <path d="M6.85 12.45 L6.9 12.45 6.9 13.35 5.0 13.9 3.85 12.95 5.1 11.65 6.85 12.45" fill="none" stroke="#262626" stroke-linecap="round" stroke-linejoin="round" stroke-width="1.0"/>
    <path d="M7.55 11.95 L6.85 12.45 M3.85 12.95 Q3.6 13.1 1.85 12.25" fill="none" stroke="#af6a03" stroke-linecap="round" stroke-linejoin="round" stroke-width="1.0"/>
    <path d="M9.85 3.1 L10.55 3.3" fill="none" stroke="#3c0000" stroke-linecap="round" stroke-linejoin="round" stroke-width="2.0"/>
    <path d="M5.3 9.7 L0.9 7.65 Q-0.35 5.25 0.1 2.25 L2.35 1.35 2.85 1.1 Q2.95 3.3 5.25 5.5 L5.25 6.1 5.25 6.75 5.3 9.7 M5.25 6.1 Q2.4 3.9 2.35 1.35 2.4 3.9 5.25 6.1" fill="#272727" fill-rule="evenodd" stroke="none"/>
    <path d="M9.6 8.35 L10.1 8.3 Q11.0 8.3 11.65 8.95 12.3 9.6 12.3 10.5 L12.25 11.1 12.0 11.6 11.8 11.9 11.65 12.05 Q11.0 12.7 10.1 12.7 9.2 12.7 8.55 12.05 L8.2 11.6 7.9 10.65 7.9 10.5 Q7.9 9.6 8.55 8.95 9.0 8.5 9.6 8.35 M11.55 10.5 Q11.55 9.9 11.05 9.45 10.7 9.05 10.05 9.05 9.45 9.05 8.95 9.45 8.6 9.9 8.6 10.5 8.6 11.15 8.95 11.5 L9.05 11.6 Q9.5 12.0 10.05 12.0 10.65 12.0 11.0 11.6 L11.05 11.5 Q11.55 11.15 11.55 10.5" fill="#4a4a4a" fill-rule="evenodd" stroke="none"/>
    <path d="M14.8 8.4 L13.5 6.8 14.8 8.4 M12.25 11.1 L12.3 10.5 Q12.3 9.6 11.65 8.95 11.0 8.3 10.1 8.3 L9.6 8.35 9.85 6.55 14.45 4.15 16.1 7.15 Q16.2 9.25 15.4 10.35 L15.0 10.8 14.6 11.1 12.25 11.1 M13.55 8.65 L12.45 7.35 13.55 8.65" fill="#271818" fill-rule="evenodd" stroke="none"/>
    <path d="M9.85 6.55 L9.6 8.35 Q9.0 8.5 8.55 8.95 7.9 9.6 7.9 10.5 L7.9 10.65 5.3 9.7 5.25 6.75 9.85 6.55" fill="#313131" fill-rule="evenodd" stroke="none"/>
    <path d="M11.55 10.5 Q11.55 11.15 11.05 11.5 L11.0 11.6 Q10.65 12.0 10.05 12.0 9.5 12.0 9.05 11.6 L8.95 11.5 Q8.6 11.15 8.6 10.5 8.6 9.9 8.95 9.45 9.45 9.05 10.05 9.05 10.7 9.05 11.05 9.45 11.55 9.9 11.55 10.5" fill="#333333" fill-rule="evenodd" stroke="none"/>
    <path d="M2.35 1.35 Q2.4 3.9 5.25 6.1" fill="none" stroke="#380202" stroke-linecap="round" stroke-linejoin="round" stroke-width="1.0"/>
    <path d="M11.55 10.5 Q11.55 11.15 11.05 11.5 L11.0 11.6 Q10.65 12.0 10.05 12.0 9.5 12.0 9.05 11.6 L8.95 11.5 Q8.6 11.15 8.6 10.5 8.6 9.9 8.95 9.45 9.45 9.05 10.05 9.05 10.7 9.05 11.05 9.45 11.55 9.9 11.55 10.5" ffdec:has-small-stroke="true" ffdec:original-stroke-width="0.6" fill="none" stroke="#380202" stroke-linecap="round" stroke-linejoin="round" stroke-width="1.0"/>
    <path d="M13.5 6.8 L14.8 8.4 M12.45 7.35 L13.55 8.65" fill="none" stroke="#100606" stroke-linecap="round" stroke-linejoin="round" stroke-width="1.0"/>
    <path d="M12.25 11.1 L14.6 11.1 Q16.2 10.15 16.1 7.15 15.75 5.45 14.45 4.15 L9.85 6.55 9.6 8.35 10.1 8.3 Q11.0 8.3 11.65 8.95 12.3 9.6 12.3 10.5 L12.25 11.1 11.8 11.9 11.65 12.05 Q11.0 12.7 10.1 12.7 9.2 12.7 8.55 12.05 7.95 11.45 7.9 10.65 L5.3 9.7 0.9 7.65 Q-0.35 5.25 0.1 2.25 L2.85 1.1 Q2.95 3.3 5.25 5.5 L5.25 6.75 9.85 6.55 M7.9 10.65 L7.9 10.5 Q7.9 9.6 8.55 8.95 9.0 8.5 9.6 8.35 M5.25 6.75 L5.3 9.7 M8.85 9.4 L11.8 11.9" fill="none" stroke="#070707" stroke-linecap="round" stroke-linejoin="round" stroke-width="1.0"/>
  </g>
</svg>
