<?xml version="1.0" encoding="UTF-8" standalone="no"?>
<svg xmlns:ffdec="https://www.free-decompiler.com/flash" xmlns:xlink="http://www.w3.org/1999/xlink" ffdec:objectType="shape" height="17.2px" width="21.1px" xmlns="http://www.w3.org/2000/svg">
  <g transform="matrix(1.0, 0.0, 0.0, 1.0, 0.5, 0.5)">
    <path d="M6.95 4.85 Q7.2 3.35 7.3 3.55 9.0 1.5 14.15 2.85 L14.55 2.95 15.5 3.2 16.55 3.55 16.7 3.7 Q18.75 5.9 18.3 6.8 15.9 10.55 9.9 8.8 6.85 7.25 6.95 4.85 M13.85 5.4 L12.8 5.15 13.85 5.4 14.55 5.6 13.85 5.4" fill="#e38902" fill-rule="evenodd" stroke="none"/>
    <path d="M7.85 15.25 L9.1 13.95 10.85 14.75 10.9 14.75 10.9 15.65 9.0 16.2 7.85 15.25" fill="#666666" fill-rule="evenodd" stroke="none"/>
    <path d="M6.25 10.35 L9.2 11.15 Q9.25 11.85 13.35 11.15 10.45 13.0 11.75 13.45 L11.55 14.25 10.85 14.75 9.1 13.95 7.85 15.25 Q7.6 15.4 5.85 14.55 6.45 12.35 6.25 10.35" fill="#464646" fill-rule="evenodd" stroke="none"/>
    <path d="M6.95 4.85 Q7.2 3.35 7.3 3.55 9.0 1.5 14.15 2.85 L14.55 2.95 15.5 3.2 16.55 3.55 16.7 3.7 Q18.75 5.9 18.3 6.8" fill="none" stroke="#653d01" stroke-linecap="round" stroke-linejoin="round" stroke-width="1.0"/>
    <path d="M12.8 5.15 L13.85 5.4" fill="none" stroke="#910000" stroke-linecap="round" stroke-linejoin="round" stroke-width="2.0"/>
    <path d="M7.85 15.25 L9.1 13.95 10.85 14.75 10.9 14.75 10.9 15.65 9.0 16.2 7.85 15.25" fill="none" stroke="#262626" stroke-linecap="round" stroke-linejoin="round" stroke-width="1.0"/>
    <path d="M13.85 5.4 L14.55 5.6" fill="none" stroke="#3c0000" stroke-linecap="round" stroke-linejoin="round" stroke-width="2.0"/>
    <path d="M6.25 10.35 Q6.45 12.35 5.85 14.55 7.6 15.4 7.85 15.25 M10.85 14.75 L11.55 14.25 11.75 13.45" fill="none" stroke="#232323" stroke-linecap="round" stroke-linejoin="round" stroke-width="1.0"/>
    <path d="M6.35 3.65 L6.85 3.4 Q6.95 5.6 9.25 7.8 L9.25 8.4 Q6.4 6.2 6.35 3.65" fill="#272727" fill-rule="evenodd" stroke="none"/>
    <path d="M13.6 10.65 L14.1 10.6 Q15.0 10.6 15.65 11.25 16.3 11.9 16.3 12.8 L16.25 13.4 16.0 13.9 15.8 14.2 15.65 14.35 Q15.0 15.0 14.1 15.0 13.2 15.0 12.55 14.35 L12.2 13.9 11.9 12.95 11.9 12.8 Q11.9 11.9 12.55 11.25 13.0 10.8 13.6 10.65 M15.55 12.8 Q15.55 12.2 15.05 11.75 14.7 11.35 14.05 11.35 13.45 11.35 12.95 11.75 12.6 12.2 12.6 12.8 12.6 13.45 12.95 13.8 L13.05 13.9 Q13.5 14.3 14.05 14.3 14.65 14.3 15.0 13.9 L15.05 13.8 Q15.55 13.45 15.55 12.8" fill="#4a4a4a" fill-rule="evenodd" stroke="none"/>
    <path d="M15.55 12.8 Q15.55 13.45 15.05 13.8 L15.0 13.9 Q14.65 14.3 14.05 14.3 13.5 14.3 13.05 13.9 L12.95 13.8 Q12.6 13.45 12.6 12.8 12.6 12.2 12.95 11.75 13.45 11.35 14.05 11.35 14.7 11.35 15.05 11.75 15.55 12.2 15.55 12.8" fill="#333333" fill-rule="evenodd" stroke="none"/>
    <path d="M13.85 8.85 L13.6 10.65 Q13.0 10.8 12.55 11.25 11.9 11.9 11.9 12.8 L11.9 12.95 4.9 9.95 Q3.65 7.55 4.1 4.55 L6.35 3.65 Q6.4 6.2 9.25 8.4 L9.25 9.05 13.85 8.85" fill="#232323" fill-rule="evenodd" stroke="none"/>
    <path d="M16.25 13.4 L16.3 12.8 Q16.3 11.9 15.65 11.25 15.0 10.6 14.1 10.6 L13.6 10.65 13.85 8.85 18.45 6.45 20.1 9.45 Q20.2 11.55 19.4 12.65 L19.0 13.1 18.6 13.4 16.25 13.4 M17.55 10.95 L16.45 9.65 17.55 10.95 M18.8 10.7 L17.5 9.1 18.8 10.7" fill="#350303" fill-rule="evenodd" stroke="none"/>
    <path d="M9.25 8.4 Q6.4 6.2 6.35 3.65" fill="none" stroke="#380202" stroke-linecap="round" stroke-linejoin="round" stroke-width="1.0"/>
    <path d="M15.55 12.8 Q15.55 13.45 15.05 13.8 L15.0 13.9 Q14.65 14.3 14.05 14.3 13.5 14.3 13.05 13.9 L12.95 13.8 Q12.6 13.45 12.6 12.8 12.6 12.2 12.95 11.75 13.45 11.35 14.05 11.35 14.7 11.35 15.05 11.75 15.55 12.2 15.55 12.8" ffdec:has-small-stroke="true" ffdec:original-stroke-width="0.6" fill="none" stroke="#380202" stroke-linecap="round" stroke-linejoin="round" stroke-width="1.0"/>
    <path d="M17.5 9.1 L18.8 10.7 M16.45 9.65 L17.55 10.95" fill="none" stroke="#100606" stroke-linecap="round" stroke-linejoin="round" stroke-width="1.0"/>
    <path d="M18.45 4.4 L17.0 2.15 18.45 4.4 17.55 4.4 10.65 3.75 11.75 6.0 18.0 6.7 Q15.95 7.8 13.85 8.85 L9.25 9.05 9.25 7.8 7.05 5.7 4.6 4.85 5.5 2.2 Q8.15 0.55 11.1 0.55 L11.65 0.55 Q14.85 0.65 17.0 2.15 19.25 3.7 18.45 4.4 M11.1 0.55 Q14.35 0.65 17.0 2.15 14.35 0.65 11.1 0.55" fill="#272727" fill-rule="evenodd" stroke="none"/>
    <path d="M18.0 6.7 L11.75 6.0 10.65 3.75 17.55 4.4 Q18.35 5.4 18.45 6.45 L18.0 6.7" fill="url(#gradient0)" fill-rule="evenodd" stroke="none"/>
    <path d="M17.0 2.15 L18.45 4.4 17.55 4.4 10.65 3.75 11.75 6.0 18.0 6.7 Q15.95 7.8 13.85 8.85 L9.25 9.05 9.3 12.0 11.9 12.95 11.9 12.8 Q11.9 11.9 12.55 11.25 13.0 10.8 13.6 10.65 L13.85 8.85 M17.0 2.15 Q14.35 0.65 11.1 0.55 8.15 0.55 5.5 2.2 L4.6 4.85 7.05 5.7 9.25 7.8 9.25 9.05 M13.6 10.65 L14.1 10.6 Q15.0 10.6 15.65 11.25 16.3 11.9 16.3 12.8 L16.25 13.4 18.6 13.4 Q20.2 12.45 20.1 9.45 19.75 7.75 18.45 6.45 L18.0 6.7 M9.3 12.0 L4.9 9.95 Q3.65 7.55 4.05 5.45 L4.6 4.85 M16.25 13.4 L15.8 14.2 15.65 14.35 Q15.0 15.0 14.1 15.0 13.2 15.0 12.55 14.35 11.95 13.75 11.9 12.95 M12.85 11.7 L15.8 14.2" fill="none" stroke="#070707" stroke-linecap="round" stroke-linejoin="round" stroke-width="1.0"/>
    <path d="M17.55 4.4 Q18.35 5.4 18.45 6.45" fill="none" stroke="#2c0000" stroke-linecap="round" stroke-linejoin="round" stroke-opacity="0.7490196" stroke-width="1.0"/>
    <path d="M4.3 8.65 L3.35 5.8 9.25 7.8 9.3 12.0 4.85 10.25 4.3 8.65" fill="#232323" fill-rule="evenodd" stroke="none"/>
    <path d="M5.8 5.25 L8.15 6.15 9.25 7.8 3.35 5.8 4.3 8.65 2.7 7.65 1.6 3.65 5.8 5.25 M7.8 6.95 L5.7 6.4 5.65 6.4 3.35 5.8 5.65 6.4 5.7 6.4 7.8 6.95" fill="#383838" fill-rule="evenodd" stroke="none"/>
    <path d="M1.6 3.65 L2.7 7.65 1.1 6.6 0.0 3.05 1.6 3.65" fill="#350303" fill-rule="evenodd" stroke="none"/>
    <path d="M8.15 6.15 L5.8 5.25 Q6.35 2.55 8.4 0.0 L11.15 0.0 Q8.55 2.8 8.15 6.15" fill="#313131" fill-rule="evenodd" stroke="none"/>
    <path d="M5.8 5.25 L8.15 6.15 Q8.55 2.8 11.15 0.0 L8.4 0.0 Q6.35 2.55 5.8 5.25 L1.6 3.65 0.0 3.05 1.1 6.6 2.7 7.65 4.3 8.65 3.35 5.8 5.65 6.4 5.7 6.4 7.8 6.95 M9.25 7.8 L9.3 12.0 4.85 10.25 4.3 8.65 M3.35 5.8 L9.25 7.8 8.15 6.15" fill="none" stroke="#070707" stroke-linecap="round" stroke-linejoin="round" stroke-width="1.0"/>
  </g>
  <defs>
    <radialGradient cx="0" cy="0" gradientTransform="matrix(0.0139, 0.0, 0.0, 0.0081, 11.15, 6.5)" gradientUnits="userSpaceOnUse" id="gradient0" r="819.2" spreadMethod="pad">
      <stop offset="0.1607843137254902" stop-color="#410000" stop-opacity="0.81960785"/>
      <stop offset="0.5019607843137255" stop-color="#8e0101" stop-opacity="0.8666667"/>
      <stop offset="0.6274509803921569" stop-color="#ff0000" stop-opacity="0.65882355"/>
      <stop offset="0.7294117647058823" stop-color="#b10000" stop-opacity="0.49803922"/>
      <stop offset="1.0" stop-color="#4d0000" stop-opacity="0.7490196"/>
    </radialGradient>
  </defs>
</svg>
