<?xml version="1.0" encoding="UTF-8" standalone="no"?>
<svg xmlns:ffdec="https://www.free-decompiler.com/flash" xmlns:xlink="http://www.w3.org/1999/xlink" ffdec:objectType="shape" height="21.85px" width="38.95px" xmlns="http://www.w3.org/2000/svg">
  <g transform="matrix(1.0, 0.0, 0.0, 1.0, 0.5, 0.5)">
    <path d="M38.45 19.85 L15.4 15.05 15.4 12.6 38.45 7.5 38.45 19.85" fill="url(#gradient0)" fill-rule="evenodd" stroke="none"/>
    <path d="M15.4 11.75 L19.95 12.4 19.95 9.95 24.1 9.55 24.3 9.6 24.3 10.8 22.25 11.85 22.25 14.4 15.4 13.4 15.4 11.75 M1.5 11.4 L3.75 11.8 4.55 10.8 5.7 10.7 6.35 15.45 1.5 14.3 1.5 11.4" fill="#1e1e1e" fill-rule="evenodd" stroke="none"/>
    <path d="M20.75 6.35 L20.75 7.35 19.95 9.95 19.95 12.4 15.4 11.75 8.85 10.75 8.85 7.25 9.8 5.35 11.45 5.25 Q10.65 6.2 10.05 7.7 L10.05 9.75 18.65 10.9 18.65 9.5 19.25 6.9 19.25 5.25 19.25 6.9 18.65 9.5 18.65 10.9 10.05 9.75 10.05 7.7 Q10.65 6.2 11.45 5.25 15.45 4.95 19.25 5.25 L20.75 5.35 20.75 6.35 M21.15 20.35 L21.3 18.4 15.25 17.0 13.5 15.2 13.5 13.15 13.5 15.2 15.25 17.0 21.3 18.4 21.15 20.35 15.65 19.05 15.3 18.95 11.65 15.7 11.65 12.85 13.5 13.15 15.4 13.4 22.25 14.4 23.2 14.55 23.75 16.75 23.2 20.85 21.15 20.35 M5.7 10.7 L4.55 10.8 3.75 11.8 1.5 11.4 0.0 11.15 0.0 9.9 0.0 8.0 4.15 8.0 5.45 8.0 5.45 8.8 5.7 10.7 M0.0 9.9 L3.0 10.25 4.15 8.0 3.0 10.25 0.0 9.9" fill="#350303" fill-rule="evenodd" stroke="none"/>
    <path d="M22.25 14.4 L22.25 11.85 24.3 10.8 Q25.1 13.55 24.3 16.75 L23.75 16.75 23.2 14.55 22.25 14.4" fill="#ff0000" fill-rule="evenodd" stroke="none"/>
    <path d="M19.95 9.95 L20.75 7.35 20.75 6.35 Q25.2 6.7 27.95 7.5 L26.2 9.55 24.1 9.55 19.95 9.95 M8.85 7.25 L8.85 10.75 15.4 11.75 15.4 13.4 13.5 13.15 11.65 12.85 11.65 15.7 15.3 18.95 15.65 19.05 14.65 20.75 10.15 20.35 10.25 17.1 6.5 16.6 6.35 15.45 5.7 10.7 5.45 8.8 5.45 8.0 5.45 7.25 8.85 7.25" fill="#171717" fill-rule="evenodd" stroke="none"/>
    <path d="M24.3 10.8 Q25.1 13.55 24.3 16.75" fill="none" stroke="#2a0000" stroke-linecap="round" stroke-linejoin="round" stroke-width="1.0"/>
    <path d="M22.25 14.4 L22.25 11.85 24.3 10.8" fill="none" stroke="#090909" stroke-linecap="round" stroke-linejoin="round" stroke-width="1.0"/>
    <path d="M19.25 5.25 L19.25 6.9 18.65 9.5 18.65 10.9 10.05 9.75 10.05 7.7 Q10.65 6.2 11.45 5.25 M13.5 13.15 L13.5 15.2 15.25 17.0 21.3 18.4 21.15 20.35 M4.15 8.0 L3.0 10.25 0.0 9.9" fill="none" stroke="#2a0101" stroke-linecap="round" stroke-linejoin="round" stroke-width="1.0"/>
    <path d="M20.75 6.35 L20.75 5.35 19.25 5.25 Q15.45 4.95 11.35 5.25 L9.8 5.35 8.85 7.25 8.85 10.75 15.4 11.75 19.95 12.4 19.95 9.95 20.75 7.35 20.75 6.35 Q25.2 6.7 27.95 7.5 L26.2 9.55 24.1 9.55 24.3 9.6 24.3 10.8 M24.3 16.75 L23.75 16.75 23.2 20.85 15.65 19.05 14.85 20.5 M15.4 11.75 L15.4 13.4 23.2 14.55 23.75 16.75 M0.0 11.15 L1.5 11.4 3.75 11.8 4.55 10.8 5.7 10.7 5.45 8.8 5.45 8.0 0.0 8.0 0.0 11.15 M6.9 7.25 L8.85 7.25 M5.45 8.0 L5.45 7.25 6.9 7.25 M10.2 19.95 L10.25 17.1 6.5 16.6 6.35 15.45 1.5 14.3 1.5 11.4 M15.65 19.05 L15.3 18.95 13.8 17.6 10.25 17.1 M13.8 17.6 L11.65 15.7 11.65 12.85 15.4 13.4 M5.7 10.7 L6.35 15.45 M24.1 9.55 L19.95 9.95" fill="none" stroke="#070707" stroke-linecap="round" stroke-linejoin="round" stroke-width="1.0"/>
    <path d="M6.9 7.25 L4.95 0.0 M7.3 8.7 L6.9 7.25" fill="none" stroke="#070707" stroke-linecap="round" stroke-linejoin="round" stroke-opacity="0.6" stroke-width="1.0"/>
    <path d="M15.65 16.2 L18.9 16.95 M14.0 9.55 L18.1 10.15 M10.7 9.1 L12.5 9.35" fill="none" stroke="#ff0000" stroke-linecap="round" stroke-linejoin="round" stroke-width="1.0"/>
  </g>
  <defs>
    <linearGradient gradientTransform="matrix(-0.0095, 0.0, 0.0, -0.0075, 28.05, 14.2)" gradientUnits="userSpaceOnUse" id="gradient0" spreadMethod="pad" x1="-819.2" x2="819.2">
      <stop offset="0.0" stop-color="#ff0000" stop-opacity="0.0"/>
      <stop offset="1.0" stop-color="#ff6969" stop-opacity="0.49803922"/>
      <stop offset="1.0" stop-color="#272727" stop-opacity="0.8"/>
      <stop offset="1.0" stop-color="#ff5151"/>
    </linearGradient>
  </defs>
</svg>
