<?xml version="1.0" encoding="UTF-8" standalone="no"?>
<svg xmlns:ffdec="https://www.free-decompiler.com/flash" xmlns:xlink="http://www.w3.org/1999/xlink" ffdec:objectType="shape" height="21.95px" width="22.05px" xmlns="http://www.w3.org/2000/svg">
  <g transform="matrix(1.0, 0.0, 0.0, 1.0, 1.55, 2.65)">
    <path d="M14.05 16.05 L12.9 13.1 10.3 11.85 10.55 10.95 9.55 9.95 Q8.5 7.6 10.65 6.8 L11.55 7.15 13.15 7.15 14.95 6.1 19.5 8.85 Q19.8 13.45 18.55 14.65 17.25 15.8 14.05 16.05" fill="url(#gradient0)" fill-rule="evenodd" stroke="none"/>
    <path d="M19.5 8.85 Q19.8 13.45 18.55 14.65 17.25 15.8 14.05 16.05" fill="none" stroke="#1f478e" stroke-linecap="round" stroke-linejoin="round" stroke-opacity="0.8" stroke-width="1.0"/>
    <path d="M13.2 10.95 L12.7 10.95 15.15 12.45 14.75 12.95 15.7 14.5 16.25 13.9 16.55 14.5 17.7 13.6 17.25 14.9 16.15 15.35 14.8 15.0 12.5 12.2 13.2 12.2 11.65 10.3 12.8 10.45 13.2 10.95" fill="url(#gradient1)" fill-rule="evenodd" stroke="none"/>
    <path d="M14.7 11.05 L14.25 10.35 10.1 7.1 14.15 8.5 12.2 7.05 15.05 7.35 13.55 5.5 17.8 7.3 18.85 10.3 18.05 12.5 16.75 13.5 16.4 13.0 15.9 13.4 15.6 12.65 15.95 12.25 14.1 11.25 14.7 11.05 M16.4 11.75 L17.35 11.4 17.35 10.3 15.9 9.15 15.35 10.0 16.0 11.45 16.4 11.75" fill="url(#gradient2)" fill-rule="evenodd" stroke="none"/>
    <path d="M11.15 7.0 L10.65 6.8 10.15 6.55 11.15 7.0" fill="#2a2a2a" fill-rule="evenodd" stroke="none"/>
    <path d="M4.45 15.0 L3.55 14.25 3.55 13.45 4.45 15.0" fill="#2b426b" fill-rule="evenodd" stroke="none"/>
    <path d="M-0.05 7.75 L-0.2 7.4 -0.1 7.45 -0.05 7.75" fill="#404930" fill-rule="evenodd" stroke="none"/>
    <path d="M-0.2 7.3 L2.7 8.0 -0.1 7.45 -0.2 7.4 -0.2 7.3 M11.9 1.6 L11.05 0.35 12.3 1.35 12.2 1.4 11.9 1.6" fill="#444930" fill-rule="evenodd" stroke="none"/>
    <path d="M2.0 2.05 L1.8 1.95 1.9 1.85 2.6 2.35 2.0 2.05 M1.95 1.75 L2.15 1.5 1.9 1.7 2.35 1.3 1.95 1.75" fill="#5a6447" fill-rule="evenodd" stroke="none"/>
    <path d="M6.5 -0.95 L6.5 0.85 Q5.35 1.5 4.45 2.25 L3.7 2.95 2.6 2.35 1.9 1.85 1.95 1.75 2.35 1.3 3.0 0.8 Q4.5 -0.45 6.5 -0.95 M9.8 6.4 L8.05 4.65 9.3 2.5 11.9 1.6 12.2 1.4 12.3 1.35 11.05 0.35 11.0 0.3 11.5 -0.6 12.1 -0.9 15.05 0.0 15.1 0.05 15.5 0.45 16.05 0.95 16.8 1.8 Q19.2 4.3 20.0 6.3 L19.35 8.75 14.95 6.1 13.15 7.15 11.55 7.15 11.15 7.0 10.15 6.55 9.8 6.4 M9.55 9.95 L10.55 10.95 10.3 11.85 12.9 13.1 14.5 15.2 14.35 15.5 14.65 15.3 18.8 14.8 18.8 16.2 Q17.85 18.4 14.9 18.8 L11.75 17.25 11.95 17.15 13.65 16.0 8.9 14.95 8.25 13.5 7.6 12.1 6.1 10.7 6.1 9.4 9.0 9.4 9.55 9.95 M11.9 1.6 L14.95 6.1 11.9 1.6 M14.35 15.5 L13.65 16.0 14.35 15.5 M7.6 12.1 L10.05 12.8 10.3 11.85 10.05 12.8 7.6 12.1" fill="#152026" fill-rule="evenodd" stroke="none"/>
    <path d="M6.5 -0.95 L6.5 -1.6 Q8.75 -2.55 10.9 -1.9 L12.1 -0.9 11.5 -0.6 11.0 0.3 11.05 0.35 11.9 1.6 9.3 2.5 8.05 4.65 9.8 6.4 5.55 6.8 4.35 8.35 2.7 8.0 -0.2 7.3 -1.05 7.05 Q-1.0 4.15 0.45 2.0 L1.8 1.95 2.0 2.05 2.75 2.45 2.6 2.35 3.7 2.95 4.45 2.25 Q5.35 1.5 6.5 0.85 L6.5 -0.95" fill="url(#gradient3)" fill-rule="evenodd" stroke="none"/>
    <path d="M2.7 8.0 L4.35 8.35 5.55 6.8 9.8 6.4 10.15 6.55 10.65 6.8 Q8.1 7.25 9.55 9.95 L9.0 9.4 6.1 9.4 6.1 10.7 7.6 12.1 8.25 13.5 5.15 13.5 3.55 13.3 3.45 13.25 2.0 12.75 1.95 12.7 0.55 9.65 -0.05 7.75 -0.1 7.45 2.7 8.0" fill="url(#gradient4)" fill-rule="evenodd" stroke="none"/>
    <path d="M11.95 17.15 L4.45 15.0 3.55 13.45 3.45 13.25 3.55 13.3 5.15 13.5 8.25 13.5 8.9 14.95 13.65 16.0 11.95 17.15" fill="url(#gradient5)" fill-rule="evenodd" stroke="none"/>
    <path d="M2.6 2.35 L2.75 2.45 M1.9 1.85 L2.6 2.35" fill="none" stroke="#232717" stroke-linecap="round" stroke-linejoin="round" stroke-width="1.0"/>
    <path d="M12.1 -0.9 L10.9 -1.9 Q8.75 -2.55 6.5 -1.6 L6.5 -0.95 6.5 0.85 Q5.35 1.5 4.45 2.25 L3.7 2.95 2.6 2.35 2.0 2.05 1.8 1.95 0.45 2.0 Q-1.0 4.15 -1.05 7.05 L-0.2 7.3 2.7 8.0 4.35 8.35 5.55 6.8 9.8 6.4 8.05 4.65 9.3 2.5 11.9 1.6 11.05 0.35 11.0 0.3 11.5 -0.6 12.1 -0.9 15.05 0.0 15.1 0.05 15.5 0.45 16.05 0.95 16.8 1.8 Q19.2 4.3 20.0 6.3 L19.35 8.75 14.95 6.1 13.15 7.15 11.55 7.15 11.15 7.0 10.65 6.8 Q8.1 7.25 9.55 9.95 L10.55 10.95 10.3 11.85 12.9 13.1 14.5 15.2 M2.75 2.45 L2.0 2.05 M14.35 15.5 L14.65 15.3 18.8 14.8 18.8 16.2 Q17.85 18.4 14.9 18.8 L11.75 17.25 11.95 17.15 4.45 15.0 3.55 13.45 3.45 13.25 2.0 12.75 1.95 12.7 Q0.3 10.4 -0.05 7.75 L-0.1 7.45 M14.95 6.1 L11.9 1.6 M10.65 6.8 L10.15 6.55 9.8 6.4 M10.15 6.55 L11.15 7.0 M1.95 1.75 L2.35 1.3 Q4.3 -0.65 6.5 -0.95 M8.25 13.5 L7.6 12.1 6.1 10.7 6.1 9.4 9.0 9.4 9.55 9.95 M8.25 13.5 L8.9 14.95 13.65 16.0 14.35 15.5 M3.45 13.25 L3.55 13.3 5.15 13.5 8.25 13.5 M11.95 17.15 L13.65 16.0 M10.3 11.85 L10.05 12.8 7.6 12.1" fill="none" stroke="#0c1113" stroke-linecap="round" stroke-linejoin="round" stroke-width="1.0"/>
  </g>
  <defs>
    <linearGradient gradientTransform="matrix(0.0052, -0.003, 0.0028, 0.0048, 15.1, 10.7)" gradientUnits="userSpaceOnUse" id="gradient0" spreadMethod="pad" x1="-819.2" x2="819.2">
      <stop offset="0.0" stop-color="#1a47cd"/>
      <stop offset="0.6" stop-color="#0083e0"/>
      <stop offset="1.0" stop-color="#00fff7"/>
    </linearGradient>
    <linearGradient gradientTransform="matrix(0.0037, 0.0, 0.0, 0.0031, 14.65, 12.8)" gradientUnits="userSpaceOnUse" id="gradient1" spreadMethod="pad" x1="-819.2" x2="819.2">
      <stop offset="0.0" stop-color="#000000" stop-opacity="0.29803923"/>
      <stop offset="1.0" stop-color="#0034a8" stop-opacity="0.4862745"/>
      <stop offset="1.0" stop-color="#304974" stop-opacity="0.69803923"/>
    </linearGradient>
    <linearGradient gradientTransform="matrix(0.0053, 0.0, 0.0, 0.0049, 14.45, 9.45)" gradientUnits="userSpaceOnUse" id="gradient2" spreadMethod="pad" x1="-819.2" x2="819.2">
      <stop offset="0.0" stop-color="#000000" stop-opacity="0.29803923"/>
      <stop offset="1.0" stop-color="#0034a8" stop-opacity="0.4862745"/>
      <stop offset="1.0" stop-color="#304974" stop-opacity="0.69803923"/>
    </linearGradient>
    <radialGradient cx="0" cy="0" gradientTransform="matrix(-0.0112, 0.0098, -0.0059, -0.0068, 8.05, 6.7)" gradientUnits="userSpaceOnUse" id="gradient3" r="819.2" spreadMethod="pad">
      <stop offset="0.0" stop-color="#131c2a"/>
      <stop offset="0.6588235294117647" stop-color="#182435"/>
      <stop offset="1.0" stop-color="#324662"/>
    </radialGradient>
    <radialGradient cx="0" cy="0" gradientTransform="matrix(0.0076, 0.0, 0.0, 0.0076, 7.1, 9.9)" gradientUnits="userSpaceOnUse" id="gradient4" r="819.2" spreadMethod="pad">
      <stop offset="0.0" stop-color="#131c2a"/>
      <stop offset="0.6588235294117647" stop-color="#182435"/>
      <stop offset="1.0" stop-color="#324662"/>
    </radialGradient>
    <radialGradient cx="0" cy="0" gradientTransform="matrix(0.0067, 0.0, 0.0, 0.0067, 9.95, 15.15)" gradientUnits="userSpaceOnUse" id="gradient5" r="819.2" spreadMethod="pad">
      <stop offset="0.0" stop-color="#131c2a"/>
      <stop offset="0.6588235294117647" stop-color="#182435"/>
      <stop offset="1.0" stop-color="#324662"/>
    </radialGradient>
  </defs>
</svg>
