<?xml version="1.0" encoding="UTF-8" standalone="no"?>
<svg xmlns:ffdec="https://www.free-decompiler.com/flash" xmlns:xlink="http://www.w3.org/1999/xlink" ffdec:objectType="shape" height="21.5px" width="24.95px" xmlns="http://www.w3.org/2000/svg">
  <g transform="matrix(1.0, 0.0, 0.0, 1.0, 1.1, 2.45)">
    <path d="M3.9 12.15 Q9.3 13.45 8.65 13.5 L9.2 17.95 7.9 17.95 5.8 17.65 4.75 17.2 3.9 12.15" fill="#4d4d4d" fill-rule="evenodd" stroke="none"/>
    <path d="M3.9 12.15 L4.75 17.2 5.8 17.65 7.9 17.95 9.2 17.95 8.65 13.5" fill="none" stroke="#2b2b2b" stroke-linecap="round" stroke-linejoin="round" stroke-width="1.0"/>
    <path d="M18.3 2.45 Q13.9 5.2 11.7 4.45 9.5 3.7 8.0 2.6 5.7 2.9 4.4 5.0 L4.15 4.6 Q5.3 2.35 7.75 0.65 L11.15 2.3 12.1 2.5 Q16.85 2.5 19.35 -1.95 19.8 -0.6 18.75 1.8 L18.3 2.45" fill="#3c3c39" fill-rule="evenodd" stroke="none"/>
    <path d="M4.4 5.0 Q5.7 2.9 8.0 2.6 9.5 3.7 11.7 4.45 13.9 5.2 18.3 2.45 16.85 4.4 12.5 5.65 L8.1 4.05 Q7.9 5.05 6.8 5.8 L5.85 5.8 Q4.9 5.7 4.4 5.0 M7.0 3.85 L8.1 4.05 7.0 3.85" fill="#2a2a28" fill-rule="evenodd" stroke="none"/>
    <path d="M4.95 15.3 L3.45 15.4 2.15 14.25 2.8 13.05 4.45 13.5 4.95 15.3" fill="url(#gradient0)" fill-rule="evenodd" stroke="none"/>
    <path d="M3.45 15.4 L4.95 15.3 5.8 17.65 3.9 17.15 2.75 16.2 3.45 15.4" fill="url(#gradient1)" fill-rule="evenodd" stroke="none"/>
    <path d="M18.3 2.45 L18.75 1.8 Q19.8 -0.6 19.35 -1.95 16.85 2.5 12.1 2.5 L11.15 2.3 7.75 0.65 Q5.3 2.35 4.15 4.6 L4.4 5.0 Q4.9 5.7 5.85 5.8 L6.8 5.8 Q7.9 5.05 8.1 4.05 L7.0 3.85 M18.3 2.45 Q16.85 4.4 12.5 5.65 L8.1 4.05" fill="none" stroke="#202020" stroke-linecap="round" stroke-linejoin="round" stroke-width="1.0"/>
    <path d="M4.95 15.3 L3.45 15.4 2.75 16.2 3.9 17.15 5.8 17.65 4.95 15.3 4.45 13.5 2.8 13.05 2.15 14.25 3.45 15.4" fill="none" stroke="#353532" stroke-linecap="round" stroke-linejoin="round" stroke-width="1.0"/>
    <path d="M14.25 9.5 L12.5 9.75 11.9 9.0 Q12.25 7.7 13.6 7.85 L15.05 7.85 Q15.3 8.3 14.25 9.5" fill="#191919" fill-rule="evenodd" stroke="none"/>
    <path d="M15.05 7.85 L13.6 7.85 Q12.25 7.7 11.9 9.0 L12.5 9.75 14.25 9.5 Q15.3 8.3 15.05 7.85 M4.95 11.75 L4.15 13.05 2.95 13.6 Q-1.8 11.25 -0.2 4.55 0.3 2.8 1.65 1.55 3.5 -0.15 6.3 -0.65 9.15 -0.75 11.5 0.4 13.55 1.45 15.5 4.5 16.45 6.25 16.5 8.3 L16.5 9.65 15.1 10.5 14.6 11.8 16.1 13.05 16.1 14.7 15.85 15.05 15.35 15.7 15.05 16.4 14.75 17.05 13.7 18.55 Q9.8 17.2 5.6 15.15 5.3 14.35 5.45 13.5 5.7 12.2 4.95 11.75 5.25 11.25 5.05 10.9 5.45 10.35 6.1 10.6 L6.6 11.65 Q7.15 11.9 7.7 11.65 L8.2 10.6 Q8.8 10.3 9.25 11.0 L8.4 13.3 8.35 13.75 10.1 13.4 10.5 14.15 10.1 13.4 8.35 13.75 8.4 13.3 9.25 11.0 Q8.8 10.3 8.2 10.6 L7.7 11.65 Q7.15 11.9 6.6 11.65 L6.1 10.6 Q5.45 10.35 5.05 10.9 5.25 11.25 4.95 11.75 M2.75 3.6 L2.1 5.45 3.7 8.1 2.55 5.5 3.35 3.5 3.2 2.9 5.65 2.6 3.0 2.25 2.65 1.35 1.25 2.0 2.75 3.6 M9.95 5.5 L11.2 6.75 Q10.95 8.85 9.4 9.25 6.65 8.55 4.05 9.6 L2.95 10.85 4.05 9.6 Q6.65 8.55 9.4 9.25 10.95 8.85 11.2 6.75 L9.95 5.5 M8.35 13.75 L8.35 14.05 9.35 15.05 8.35 14.05 8.35 13.75 M15.85 15.05 L11.5 13.5 15.85 15.05 M15.05 16.4 L14.95 16.3 10.75 14.8 14.95 16.3 11.7 14.55 14.95 16.3 15.05 16.4" fill="url(#gradient2)" fill-rule="evenodd" stroke="none"/>
    <path d="M2.75 3.6 L1.25 2.0 2.65 1.35 3.0 2.25 5.65 2.6 3.2 2.9 3.35 3.5 2.55 5.5 3.7 8.1 2.1 5.45 2.75 3.6" fill="#53534e" fill-rule="evenodd" stroke="none"/>
    <path d="M4.95 11.75 L4.15 13.05 2.95 13.6 Q-1.8 11.25 -0.2 4.55 0.3 2.8 1.65 1.55 3.5 -0.15 6.3 -0.65 9.15 -0.75 11.5 0.4 13.55 1.45 15.5 4.5 16.45 6.25 16.5 8.3 L16.5 9.65 15.1 10.5 14.6 11.8 16.1 13.05 16.1 14.7 15.85 15.05 15.35 15.7 15.05 16.4 14.75 17.05 13.7 18.55 Q9.8 17.2 5.6 15.15 5.3 14.35 5.45 13.5 5.7 12.2 4.95 11.75 5.25 11.25 5.05 10.9 5.45 10.35 6.1 10.6 L6.6 11.65 Q7.15 11.9 7.7 11.65 L8.2 10.6 Q8.8 10.3 9.25 11.0 L8.4 13.3 8.35 13.75 10.1 13.4 10.5 14.15 M9.35 15.05 L8.35 14.05 8.35 13.75" fill="none" stroke="#353532" stroke-linecap="round" stroke-linejoin="round" stroke-width="1.0"/>
    <path d="M15.05 7.85 L13.6 7.85 Q12.25 7.7 11.9 9.0 L12.5 9.75 14.25 9.5" fill="none" stroke="#000000" stroke-linecap="round" stroke-linejoin="round" stroke-opacity="0.70980394" stroke-width="1.0"/>
    <path d="M10.75 14.8 L14.95 16.3 11.7 14.55 M14.95 16.3 L15.05 16.4 M11.5 13.5 L15.85 15.05" fill="none" stroke="#000000" stroke-linecap="round" stroke-linejoin="round" stroke-opacity="0.05882353" stroke-width="1.0"/>
    <path d="M2.95 10.85 L4.05 9.6 Q6.65 8.55 9.4 9.25 10.95 8.85 11.2 6.75 L9.95 5.5" fill="none" stroke="#53534e" stroke-linecap="round" stroke-linejoin="round" stroke-width="1.0"/>
    <path d="M14.4 15.2 L13.9 16.2 Q13.45 16.4 13.3 16.0 L13.3 14.95 14.05 14.15 Q14.75 13.85 14.85 14.35 L14.4 15.2 15.05 14.45 15.05 14.4 Q15.4 14.15 15.6 14.6 L14.4 16.45 14.15 16.25 14.4 15.2 M11.2 14.15 L10.75 14.8 10.3 14.7 10.2 14.6 10.2 13.7 10.3 13.65 10.8 13.35 Q11.1 13.1 11.5 13.5 L11.2 14.15 11.75 13.4 Q12.35 13.2 12.5 13.7 L12.2 14.55 11.85 15.35 Q11.4 15.5 11.2 15.15 L11.2 14.15 M13.3 14.95 L12.75 15.65 12.7 15.75 12.4 15.75 12.2 15.5 12.2 14.55 12.75 13.85 Q13.55 13.65 13.7 14.15 L13.3 14.95" fill="#b4afa5" fill-rule="evenodd" stroke="none"/>
    <path d="M5.65 6.2 L5.35 5.75 Q6.7 3.1 9.6 1.1 L13.55 3.05 14.7 3.3 Q20.25 3.3 23.2 -1.95 23.7 -0.35 22.5 2.45 L21.95 3.25 Q16.8 6.45 14.2 5.6 11.6 4.7 9.85 3.4 7.15 3.75 5.65 6.2" fill="#3c3c39" fill-rule="evenodd" stroke="none"/>
    <path d="M21.95 3.25 Q20.25 5.5 15.15 7.0 L10.0 5.1 Q9.75 6.3 8.45 7.15 L7.35 7.15 Q6.25 7.05 5.65 6.2 7.15 3.75 9.85 3.4 11.6 4.7 14.2 5.6 16.8 6.45 21.95 3.25 M10.0 5.1 L8.7 4.9 10.0 5.1" fill="#2a2a28" fill-rule="evenodd" stroke="none"/>
    <path d="M5.65 6.2 L5.35 5.75 Q6.7 3.1 9.6 1.1 L13.55 3.05 14.7 3.3 Q20.25 3.3 23.2 -1.95 23.7 -0.35 22.5 2.45 L21.95 3.25 Q20.25 5.5 15.15 7.0 L10.0 5.1 Q9.75 6.3 8.45 7.15 L7.35 7.15 Q6.25 7.05 5.65 6.2 M8.7 4.9 L10.0 5.1" fill="none" stroke="#202020" stroke-linecap="round" stroke-linejoin="round" stroke-width="1.0"/>
  </g>
  <defs>
    <radialGradient cx="0" cy="0" gradientTransform="matrix(0.002, 0.0, 0.0, 0.002, 3.75, 14.4)" gradientUnits="userSpaceOnUse" id="gradient0" r="819.2" spreadMethod="pad">
      <stop offset="0.0" stop-color="#afafa0"/>
      <stop offset="1.0" stop-color="#66665d"/>
    </radialGradient>
    <radialGradient cx="0" cy="0" gradientTransform="matrix(0.0026, 0.0, 0.0, 0.0026, 3.9, 16.6)" gradientUnits="userSpaceOnUse" id="gradient1" r="819.2" spreadMethod="pad">
      <stop offset="0.0" stop-color="#afafa0"/>
      <stop offset="1.0" stop-color="#66665d"/>
    </radialGradient>
    <radialGradient cx="0" cy="0" gradientTransform="matrix(0.0217, 0.0, 0.0, 0.0217, 4.95, 3.25)" gradientUnits="userSpaceOnUse" id="gradient2" r="819.2" spreadMethod="pad">
      <stop offset="0.0" stop-color="#afafa0"/>
      <stop offset="1.0" stop-color="#66665d"/>
    </radialGradient>
  </defs>
</svg>
