<?xml version="1.0" encoding="UTF-8" standalone="no"?>
<svg xmlns:ffdec="https://www.free-decompiler.com/flash" xmlns:xlink="http://www.w3.org/1999/xlink" ffdec:objectType="shape" height="24.5px" width="40.35px" xmlns="http://www.w3.org/2000/svg">
  <g transform="matrix(1.0, 0.0, 0.0, 1.0, -1.75, 6.55)">
    <path d="M35.05 6.85 Q35.05 7.75 31.15 8.45 L21.8 9.1 12.4 8.45 Q8.55 7.75 8.55 6.85 8.55 5.9 12.4 5.25 L21.8 4.6 31.15 5.25 Q35.05 5.9 35.05 6.85" fill="url(#gradient0)" fill-rule="evenodd" stroke="none"/>
    <path d="M22.95 7.45 L22.95 6.15 23.5 6.05 27.55 5.75 31.55 6.05 Q33.2 6.35 33.2 6.8 33.2 7.25 31.55 7.55 L27.55 7.85 23.5 7.55 22.95 7.45" fill="url(#gradient1)" fill-rule="evenodd" stroke="none"/>
    <path d="M20.85 6.2 L20.85 7.4 20.2 7.55 16.15 7.85 12.15 7.55 Q10.5 7.25 10.5 6.8 10.5 6.35 12.15 6.05 L16.15 5.75 20.2 6.05 20.85 6.2" fill="url(#gradient2)" fill-rule="evenodd" stroke="none"/>
    <path d="M20.85 6.2 L20.85 5.45 Q20.85 0.15 21.15 -3.5 L21.4 -5.6 21.85 -6.55 Q21.85 -6.05 22.45 -5.5 L22.65 -3.5 22.95 5.45 22.95 6.15 22.95 7.45 22.65 14.3 Q22.35 17.95 21.9 17.95 21.45 17.95 21.15 14.3 L20.85 7.4 20.85 6.2" fill="url(#gradient3)" fill-rule="evenodd" stroke="none"/>
    <path d="M31.1 6.65 Q31.1 10.3 28.4 12.8 25.7 15.35 21.9 15.35 18.1 15.35 15.4 12.8 12.7 10.3 12.7 6.65 12.7 3.05 15.4 0.5 18.1 -2.05 21.9 -2.05 25.7 -2.05 28.4 0.5 31.1 3.05 31.1 6.65" fill="url(#gradient4)" fill-rule="evenodd" stroke="none"/>
    <path d="M42.1 7.2 L36.15 7.35 21.9 7.4 7.65 7.35 1.75 7.2 7.65 7.05 21.9 7.0 36.15 7.05 42.1 7.2" fill="url(#gradient5)" fill-rule="evenodd" stroke="none"/>
    <path d="M42.1 6.45 L36.2 6.6 21.95 6.65 7.65 6.6 1.75 6.45 7.65 6.3 21.95 6.25 36.2 6.3 42.1 6.45" fill="url(#gradient6)" fill-rule="evenodd" stroke="none"/>
    <path d="M29.35 6.7 Q29.35 7.45 27.15 8.0 L21.9 8.55 16.65 8.0 Q14.45 7.45 14.45 6.7 14.45 5.95 16.65 5.4 L21.9 4.85 27.15 5.4 Q29.35 5.95 29.35 6.7" fill="url(#gradient7)" fill-rule="evenodd" stroke="none"/>
  </g>
  <defs>
    <radialGradient cx="0" cy="0" gradientTransform="matrix(0.0134, 0.0, 0.0, 0.0025, 21.75, 6.8)" gradientUnits="userSpaceOnUse" id="gradient0" r="819.2" spreadMethod="pad">
      <stop offset="0.0" stop-color="#ad00ff" stop-opacity="0.0"/>
      <stop offset="0.6549019607843137" stop-color="#ad00ff" stop-opacity="0.1764706"/>
      <stop offset="0.792156862745098" stop-color="#ad00ff" stop-opacity="0.0"/>
    </radialGradient>
    <radialGradient cx="0" cy="0" gradientTransform="matrix(0.0, 0.0013, -0.0115, 0.0, 25.35, 6.75)" gradientUnits="userSpaceOnUse" id="gradient1" r="819.2" spreadMethod="pad">
      <stop offset="0.10588235294117647" stop-color="#e1a3ff" stop-opacity="0.28627452"/>
      <stop offset="0.6705882352941176" stop-color="#ad00ff" stop-opacity="0.12941177"/>
      <stop offset="1.0" stop-color="#ce66ff" stop-opacity="0.0"/>
      <stop offset="1.0" stop-color="#ad00ff" stop-opacity="0.0"/>
      <stop offset="1.0" stop-color="#cc60ff" stop-opacity="0.3764706"/>
    </radialGradient>
    <radialGradient cx="0" cy="0" gradientTransform="matrix(0.0, 0.0013, 0.0115, 0.0, 18.35, 6.75)" gradientUnits="userSpaceOnUse" id="gradient2" r="819.2" spreadMethod="pad">
      <stop offset="0.10588235294117647" stop-color="#e1a3ff" stop-opacity="0.28627452"/>
      <stop offset="0.6705882352941176" stop-color="#ad00ff" stop-opacity="0.12941177"/>
      <stop offset="1.0" stop-color="#ce66ff" stop-opacity="0.0"/>
      <stop offset="1.0" stop-color="#ad00ff" stop-opacity="0.0"/>
      <stop offset="1.0" stop-color="#cc60ff" stop-opacity="0.3764706"/>
    </radialGradient>
    <radialGradient cx="0" cy="0" gradientTransform="matrix(0.0013, 0.0, 0.0, -0.0254, 21.9, 7.0)" gradientUnits="userSpaceOnUse" id="gradient3" r="819.2" spreadMethod="pad">
      <stop offset="0.10588235294117647" stop-color="#e1a3ff" stop-opacity="0.28627452"/>
      <stop offset="0.6705882352941176" stop-color="#ad00ff" stop-opacity="0.12941177"/>
      <stop offset="1.0" stop-color="#ce66ff" stop-opacity="0.0"/>
      <stop offset="1.0" stop-color="#ad00ff" stop-opacity="0.0"/>
      <stop offset="1.0" stop-color="#cc60ff" stop-opacity="0.3764706"/>
    </radialGradient>
    <radialGradient cx="0" cy="0" gradientTransform="matrix(0.0093, 0.0, 0.0, 0.0098, 21.8, 6.5)" gradientUnits="userSpaceOnUse" id="gradient4" r="819.2" spreadMethod="pad">
      <stop offset="0.0" stop-color="#ad00ff" stop-opacity="0.0"/>
      <stop offset="0.5019607843137255" stop-color="#cc60ff" stop-opacity="0.46666667"/>
      <stop offset="0.6549019607843137" stop-color="#ce66ff" stop-opacity="0.11764706"/>
      <stop offset="0.792156862745098" stop-color="#ad00ff" stop-opacity="0.0"/>
    </radialGradient>
    <radialGradient cx="0" cy="0" gradientTransform="matrix(0.0252, 0.0, 0.0, 0.0144, 21.9, 7.15)" gradientUnits="userSpaceOnUse" id="gradient5" r="819.2" spreadMethod="pad">
      <stop offset="0.10588235294117647" stop-color="#e9bdff" stop-opacity="0.28627452"/>
      <stop offset="0.6705882352941176" stop-color="#ad00ff" stop-opacity="0.2784314"/>
      <stop offset="1.0" stop-color="#ce66ff" stop-opacity="0.0"/>
      <stop offset="1.0" stop-color="#ad00ff" stop-opacity="0.0"/>
      <stop offset="1.0" stop-color="#cc60ff" stop-opacity="0.3764706"/>
    </radialGradient>
    <radialGradient cx="0" cy="0" gradientTransform="matrix(0.0252, 0.0, 0.0, 0.0144, 21.9, 6.4)" gradientUnits="userSpaceOnUse" id="gradient6" r="819.2" spreadMethod="pad">
      <stop offset="0.10588235294117647" stop-color="#e9bdff" stop-opacity="0.28627452"/>
      <stop offset="0.6705882352941176" stop-color="#ad00ff" stop-opacity="0.2784314"/>
      <stop offset="1.0" stop-color="#ce66ff" stop-opacity="0.0"/>
      <stop offset="1.0" stop-color="#ad00ff" stop-opacity="0.0"/>
      <stop offset="1.0" stop-color="#cc60ff" stop-opacity="0.3764706"/>
    </radialGradient>
    <radialGradient cx="0" cy="0" gradientTransform="matrix(0.0, -0.0025, 0.0051, 0.0, 21.9, 6.7)" gradientUnits="userSpaceOnUse" id="gradient7" r="819.2" spreadMethod="pad">
      <stop offset="0.10588235294117647" stop-color="#ffffff"/>
      <stop offset="0.6705882352941176" stop-color="#ad00ff" stop-opacity="0.2784314"/>
      <stop offset="1.0" stop-color="#ce66ff" stop-opacity="0.0"/>
      <stop offset="1.0" stop-color="#ad00ff" stop-opacity="0.0"/>
      <stop offset="1.0" stop-color="#cc60ff" stop-opacity="0.3764706"/>
    </radialGradient>
  </defs>
</svg>
