<?xml version="1.0" encoding="UTF-8" standalone="no"?>
<svg xmlns:xlink="http://www.w3.org/1999/xlink" height="400.0px" width="799.95px" xmlns="http://www.w3.org/2000/svg">
  <g transform="matrix(1.0, 0.0, 0.0, 1.0, 0.0, 0.0)">
    <path d="M799.95 400.0 L0.0 400.0 0.0 0.0 799.95 0.0 799.95 400.0" fill="#000000" fill-opacity="0.3019608" fill-rule="evenodd" stroke="none"/>
    <path d="M552.25 37.75 L565.7 37.75 565.7 40.0 552.95 40.0 552.25 40.0 552.25 37.75 M549.65 40.0 L503.75 40.0 18.0 40.0 18.0 19.0 503.75 19.0 534.45 19.0 549.65 19.0 549.65 31.65 549.65 40.0" fill="url(#gradient0)" fill-rule="evenodd" stroke="none"/>
    <path d="M391.85 314.6 L391.85 318.6 391.85 322.5 391.85 323.55 391.85 324.55 391.85 324.6 374.25 324.6 373.9 324.6 366.85 324.6 329.15 324.6 303.5 324.6 271.85 324.6 271.85 324.55 271.85 323.55 271.85 318.6 271.85 314.6 271.85 310.5 271.85 306.6 303.5 306.6 329.15 306.6 361.8 306.6 366.85 306.6 374.25 306.6 391.85 306.6 391.85 314.6 M98.8 324.55 L98.8 324.35 98.8 323.55 98.8 306.6 206.15 306.6 206.15 323.55 206.15 324.35 206.15 324.55 206.15 324.6 98.8 324.6 98.8 324.55" fill="#333333" fill-rule="evenodd" stroke="none"/>
    <path d="M549.65 31.65 L552.25 31.65 552.25 37.75 552.25 40.0 552.25 45.8 549.65 45.8 549.65 40.0 549.65 31.65" fill="url(#gradient1)" fill-rule="evenodd" stroke="none"/>
  </g>
  <defs>
    <linearGradient gradientTransform="matrix(0.3351, 0.0, 0.0, 0.0098, 292.45, 28.0)" gradientUnits="userSpaceOnUse" id="gradient0" spreadMethod="pad" x1="-819.2" x2="819.2">
      <stop offset="0.0" stop-color="#66ccff" stop-opacity="0.4117647"/>
      <stop offset="1.0" stop-color="#66ccff" stop-opacity="0.0"/>
    </linearGradient>
    <linearGradient gradientTransform="matrix(0.3351, 0.0, 0.0, 0.0098, 292.45, 40.65)" gradientUnits="userSpaceOnUse" id="gradient1" spreadMethod="pad" x1="-819.2" x2="819.2">
      <stop offset="0.0" stop-color="#66ccff" stop-opacity="0.4117647"/>
      <stop offset="1.0" stop-color="#66ccff" stop-opacity="0.0"/>
    </linearGradient>
  </defs>
</svg>
