<?xml version="1.0" encoding="UTF-8" standalone="no"?>
<svg xmlns:ffdec="https://www.free-decompiler.com/flash" xmlns:xlink="http://www.w3.org/1999/xlink" ffdec:objectType="shape" height="23.45px" width="22.9px" xmlns="http://www.w3.org/2000/svg">
  <g transform="matrix(1.0, 0.0, 0.0, 1.0, 7.8, 21.5)">
    <path d="M8.85 -2.85 L8.5 -1.8 6.8 -1.8 Q4.15 -2.95 1.55 -3.2 L-3.0 -2.95 Q-7.1 -3.25 -6.75 -5.05 -7.05 -7.35 -4.3 -9.9 L-3.5 -10.65 -2.45 -11.7 -2.0 -12.45 -1.25 -14.15 -0.4 -16.65 0.5 -18.7 1.75 -20.0 Q2.45 -20.55 5.05 -21.0 8.1 -20.8 10.35 -19.15 12.45 -17.5 12.75 -15.8 13.0 -14.1 13.7 -13.0 12.9 -13.15 12.1 -12.1 L11.7 -11.2 Q10.9 -9.05 11.2 -7.85 11.45 -6.65 11.15 -5.45 10.75 -4.3 9.85 -3.0 L9.2 -2.6 8.85 -2.85 M8.85 -2.95 Q6.45 -4.6 8.85 -2.9 L8.85 -2.95" fill="#260e0e" fill-rule="evenodd" stroke="none"/>
    <path d="M8.85 -2.85 L9.2 -2.6 8.85 -2.15 8.85 -2.85" fill="#111c1f" fill-rule="evenodd" stroke="none"/>
    <path d="M9.2 -2.6 L9.85 -3.0 Q10.75 -4.3 11.15 -5.45 11.45 -6.65 11.2 -7.85 10.9 -9.05 11.7 -11.2 L12.1 -12.1 Q12.9 -13.15 13.7 -13.0 L13.7 -11.95 Q15.0 -9.5 14.85 -7.15 14.65 -4.9 13.45 -3.35 L12.55 -2.4 Q11.95 -1.8 11.95 -1.05 11.8 -0.45 10.9 -0.05 10.0 0.15 9.05 -0.4 8.4 -1.25 8.5 -1.8 L8.85 -2.15 9.2 -2.6" fill="#170909" fill-rule="evenodd" stroke="none"/>
    <path d="M8.85 -2.95 L8.85 -2.9 Q6.45 -4.6 8.85 -2.95" fill="#0c130c" fill-rule="evenodd" stroke="none"/>
    <path d="M6.25 -10.95 L6.65 -10.3 6.55 -10.0 6.6 -9.75 6.45 -9.55 6.25 -9.5 6.25 -9.8 6.15 -9.75 6.1 -9.9 5.8 -9.95 5.75 -10.0 5.55 -9.9 5.35 -9.95 5.15 -9.9 5.15 -9.85 4.95 -9.8 4.85 -9.55 4.75 -9.6 4.55 -9.8 4.05 -10.05 4.15 -10.15 4.1 -10.45 3.95 -10.5 4.2 -10.5 4.1 -11.15 4.2 -11.2 4.05 -11.3 4.2 -11.35 4.25 -11.5 4.2 -11.65 4.4 -11.55 4.45 -11.35 4.4 -11.2 4.45 -11.2 4.55 -11.1 4.75 -11.1 4.75 -11.15 4.7 -11.25 4.95 -11.2 5.15 -11.25 4.9 -11.25 5.1 -11.35 4.85 -11.55 4.85 -11.65 4.8 -11.7 4.8 -11.95 4.95 -11.9 5.05 -11.9 5.1 -11.65 5.25 -11.7 5.25 -11.6 5.3 -11.55 5.3 -11.45 5.7 -11.55 5.7 -11.65 5.75 -12.15 5.5 -12.7 5.5 -13.1 5.55 -13.3 5.45 -13.6 4.9 -14.3 4.85 -14.45 4.8 -14.3 4.65 -14.25 4.3 -14.0 4.2 -13.6 4.2 -13.5 4.05 -13.3 4.1 -13.15 3.8 -12.65 3.55 -12.55 3.55 -12.25 3.5 -12.25 3.5 -12.1 3.1 -11.9 2.9 -11.6 2.8 -11.65 2.65 -11.55 2.45 -11.5 2.3 -11.65 2.4 -11.8 2.25 -12.05 2.35 -12.15 2.2 -12.25 2.15 -12.5 2.2 -12.8 2.15 -12.9 2.3 -13.25 2.15 -13.95 2.05 -14.1 2.1 -14.4 2.0 -14.65 2.05 -14.85 2.05 -15.05 1.95 -15.15 2.0 -15.35 2.15 -15.25 2.15 -14.85 2.05 -14.7 2.15 -14.4 2.15 -14.0 2.2 -13.95 2.3 -13.6 2.35 -13.8 2.65 -14.25 2.5 -14.7 2.85 -15.45 2.95 -16.0 2.8 -16.35 2.9 -16.75 2.8 -17.35 2.65 -17.65 2.4 -18.55 2.3 -18.75 2.05 -20.35 2.2 -20.4 2.45 -20.0 2.5 -19.55 2.5 -19.3 2.7 -18.25 2.7 -17.85 2.75 -17.5 2.9 -17.4 3.15 -15.95 3.4 -15.85 4.05 -15.8 4.45 -15.5 4.75 -15.15 5.05 -15.15 5.55 -15.45 5.95 -15.5 6.1 -15.65 6.85 -15.3 7.25 -14.9 7.5 -14.75 7.65 -14.45 8.05 -14.25 8.1 -13.95 8.25 -13.85 8.35 -13.4 8.45 -13.35 8.45 -13.1 8.35 -12.9 7.05 -12.75 6.75 -12.85 6.6 -12.85 6.4 -12.95 6.25 -12.95 6.2 -12.8 6.3 -12.7 6.2 -12.55 6.35 -12.45 6.4 -12.45 6.55 -12.4 6.85 -12.5 7.0 -12.3 6.65 -12.3 6.55 -12.25 6.75 -12.05 6.65 -11.95 6.55 -11.8 6.45 -11.75 6.45 -11.6 6.3 -11.35 6.4 -11.25 6.3 -11.2 6.15 -11.1 6.45 -10.95 6.25 -10.95 M1.45 -10.05 L1.55 -9.85 1.4 -9.45 0.95 -9.0 0.85 -8.85 0.45 -9.0 0.35 -9.45 0.5 -9.75 0.35 -10.4 0.45 -10.6 0.45 -10.75 0.25 -10.9 0.25 -11.25 0.3 -11.3 0.45 -11.2 0.5 -10.6 0.5 -10.4 0.6 -9.9 0.65 -9.8 0.85 -10.0 0.75 -10.35 0.85 -10.4 0.6 -11.6 0.45 -11.75 0.2 -13.0 0.4 -13.4 0.35 -13.6 0.2 -13.8 0.15 -14.05 0.2 -14.25 0.3 -14.2 0.35 -13.8 0.4 -13.65 0.45 -13.25 0.3 -13.05 0.65 -11.85 0.8 -11.7 0.9 -11.15 0.85 -10.95 1.0 -10.4 1.15 -10.3 1.15 -10.4 1.45 -10.05 M8.95 -17.1 L9.1 -17.1 9.3 -16.45 9.25 -16.2 9.4 -15.2 9.4 -15.05 9.45 -14.7 9.55 -14.5 10.05 -12.2 10.15 -12.05 10.2 -11.7 10.55 -11.25 10.45 -11.05 10.35 -10.9 10.05 -10.85 9.95 -11.0 9.65 -11.1 9.6 -11.35 9.3 -11.55 9.25 -11.85 8.95 -11.95 8.9 -12.1 8.95 -12.35 9.0 -12.4 9.2 -12.35 9.45 -12.4 9.35 -12.8 9.25 -12.8 9.3 -13.0 9.05 -14.25 9.25 -14.25 9.4 -13.5 9.3 -13.3 9.45 -12.55 9.55 -12.55 9.6 -12.35 9.5 -12.25 9.6 -12.25 9.65 -12.2 9.75 -12.3 9.65 -13.0 9.65 -13.4 9.5 -13.5 9.55 -13.55 9.6 -13.8 9.6 -13.95 9.45 -14.0 9.4 -14.4 9.5 -14.55 9.35 -14.6 9.25 -15.05 9.35 -15.15 9.3 -15.6 9.1 -15.65 8.95 -16.9 8.95 -17.1 M7.3 -7.65 L7.05 -7.75 6.9 -7.95 6.85 -8.35 6.95 -8.6 6.7 -8.65 6.6 -8.8 6.45 -9.1 6.6 -9.45 6.75 -9.45 6.75 -9.35 6.85 -9.2 6.95 -9.15 6.95 -8.9 7.05 -8.9 7.05 -8.75 6.9 -8.75 6.95 -8.7 7.4 -8.1 7.3 -7.65 M4.95 -9.35 L5.05 -9.2 5.25 -8.8 5.25 -8.55 5.1 -8.35 4.95 -8.55 4.95 -8.7 4.8 -8.65 4.75 -8.7 4.65 -8.65 4.6 -8.8 4.65 -9.1 4.65 -9.15 4.7 -9.3 4.95 -9.35 M4.85 -8.25 L5.0 -8.2 5.0 -7.95 5.05 -7.85 5.15 -7.55 5.1 -7.35 5.0 -7.15 5.0 -7.0 5.25 -6.85 5.45 -6.85 5.65 -6.3 5.65 -6.25 5.7 -5.85 5.65 -5.6 5.25 -5.2 5.15 -5.25 5.0 -5.2 4.6 -5.3 4.6 -5.55 4.7 -5.65 4.65 -6.05 4.7 -6.25 4.7 -6.8 4.9 -6.9 4.9 -6.95 4.85 -7.0 4.75 -7.15 4.85 -7.4 4.75 -7.8 4.85 -8.0 4.7 -8.1 4.85 -8.25 M7.75 -7.6 L8.05 -7.1 8.2 -6.35 8.2 -6.15 7.75 -5.9 7.45 -6.0 7.35 -6.35 7.35 -6.45 7.2 -7.05 7.2 -7.35 7.45 -7.55 7.65 -7.5 7.75 -7.6 M3.25 -9.3 L3.1 -8.95 3.0 -8.9 3.05 -8.5 3.05 -8.35 2.9 -8.3 2.65 -8.35 2.8 -8.95 2.8 -9.15 2.95 -9.1 2.85 -9.4 3.1 -9.45 3.25 -9.3 M3.35 -9.7 L3.3 -9.5 3.15 -9.45 2.9 -9.6 2.95 -9.75 2.9 -9.9 2.95 -10.1 3.4 -10.0 3.45 -9.9 3.35 -9.85 3.35 -9.7 M2.4 -11.0 L2.3 -10.85 2.15 -10.75 2.1 -10.65 1.75 -10.3 1.55 -10.15 1.35 -10.35 1.4 -10.5 1.8 -11.05 1.95 -11.05 2.3 -11.15 2.4 -11.0 M3.0 -8.15 L3.15 -8.0 3.4 -6.9 3.15 -6.45 2.8 -6.4 2.6 -6.5 2.4 -6.85 2.3 -6.95 2.65 -8.2 2.85 -8.1 3.0 -8.15" fill="#000000" fill-rule="evenodd" stroke="none"/>
    <path d="M7.9 -16.2 L7.45 -15.65 7.3 -16.05 7.3 -17.6 7.25 -17.3 6.85 -20.4 6.9 -18.65 6.55 -13.65 Q5.85 -7.75 5.85 -9.85 L5.8 -11.05 Q5.8 -13.65 6.1 -17.1 L6.05 -19.15 6.0 -18.95 5.8 -18.2 5.4 -17.45 5.5 -18.3 5.35 -17.6 5.2 -17.75 5.2 -18.05 5.15 -17.95 4.65 -16.75 Q4.2 -15.65 4.3 -9.0 L4.35 -8.55 4.3 -8.85 3.85 -16.65 3.7 -15.55 3.65 -16.15 Q3.25 -17.25 3.35 -18.35 L3.2 -18.0 3.25 -18.35 2.9 -17.4 2.8 -17.4 1.75 -9.55 2.35 -17.25 2.3 -17.25 1.95 -16.6 1.7 -16.6 1.75 -16.85 Q1.35 -18.45 -0.45 -18.05 L1.55 -20.3 3.15 -20.45 3.85 -20.6 Q7.85 -20.9 10.35 -19.2 8.8 -16.85 8.55 -16.9 L8.6 -19.85 8.15 -17.25 8.1 -17.2 7.9 -17.25 7.9 -16.2" fill="#0a0807" fill-opacity="0.31764707" fill-rule="evenodd" stroke="none"/>
    <path d="M-2.75 -8.9 L-2.25 -8.95 -2.4 -8.65 -3.35 -7.8 -3.15 -7.95 -4.95 -6.05 -3.85 -7.05 -0.55 -9.6 Q3.4 -12.45 2.05 -11.3 L1.4 -10.6 Q-0.15 -9.2 -2.45 -7.45 L-3.55 -6.45 -3.0 -6.75 -2.4 -6.85 -2.45 -6.65 -2.65 -6.5 -2.55 -6.5 -1.6 -6.85 3.3 -10.9 -1.15 -6.55 -0.4 -7.1 -0.7 -6.7 -1.9 -5.4 -1.65 -5.45 -1.85 -5.35 -1.15 -5.65 -1.1 -5.6 4.25 -9.4 -0.8 -5.5 -0.75 -5.45 -0.15 -5.65 -0.05 -5.5 Q-0.15 -5.4 -0.3 -5.35 -1.05 -4.3 0.05 -3.6 L-2.3 -3.35 -3.45 -3.3 -5.85 -3.25 Q-7.45 -3.6 -5.8 -8.5 L-3.55 -8.85 Q-5.65 -7.15 -5.35 -7.25 L-3.6 -8.45 -3.55 -8.45 -3.4 -8.3 -2.75 -8.9" fill="#0a0807" fill-opacity="0.31764707" fill-rule="evenodd" stroke="none"/>
    <path d="M8.1 -9.55 L8.05 -10.0 8.15 -9.95 8.35 -11.0 8.3 -9.8 8.3 -8.8 8.45 -9.25 8.5 -9.25 8.1 -4.9 8.45 -5.35 9.15 -8.05 8.35 -4.1 8.45 -4.1 8.6 -5.0 8.6 -4.75 Q9.25 -5.0 9.5 -6.25 L9.65 -7.15 Q9.65 -7.0 9.75 -7.0 L10.05 -7.95 10.1 -7.4 10.15 -7.5 10.35 -5.4 9.5 -3.0 9.35 -2.15 8.65 -2.2 Q6.15 -2.7 4.2 -4.45 5.5 -5.45 5.3 -5.85 L5.45 -6.05 5.6 -7.85 5.6 -6.9 Q5.6 -6.2 5.7 -6.2 L5.85 -6.25 6.35 -9.45 6.15 -6.1 6.25 -6.1 6.55 -7.0 6.5 -6.5 6.65 -6.6 6.65 -6.65 6.7 -6.5 6.65 -6.7 6.7 -7.25 Q6.6 -7.7 7.0 -10.1 L7.15 -10.35 6.85 -7.9 7.2 -6.1 6.95 -7.65 7.05 -8.05 7.15 -7.45 7.2 -7.4 7.25 -7.5 7.3 -7.1 7.55 -8.55 7.6 -8.95 7.7 -8.5 8.05 -9.1 8.1 -9.55" fill="#000000" fill-opacity="0.4392157" fill-rule="evenodd" stroke="none"/>
    <path d="M13.75 -13.05 Q13.0 -14.1 12.75 -15.75 12.45 -17.45 10.3 -19.15 8.15 -20.85 5.05 -21.0 2.5 -20.6 1.75 -20.0 L0.55 -18.65 -0.4 -16.7 -1.25 -14.2 -1.95 -12.45 -2.4 -11.75 -3.45 -10.65 -4.3 -9.85 Q-7.05 -7.35 -6.7 -5.05 -7.1 -3.25 -3.0 -3.0 L1.6 -3.2 Q4.15 -3.0 6.85 -1.85 L8.5 -1.85 8.85 -2.15 9.25 -2.6 9.85 -3.05 Q10.8 -4.3 11.15 -5.5 11.45 -6.7 11.2 -7.85 10.9 -9.05 11.75 -11.2 L12.15 -12.1 Q12.9 -13.15 13.75 -13.05 L14.6 -11.2 14.55 -6.85 Q14.65 -4.9 13.5 -3.3 L12.55 -2.4 Q11.95 -1.85 11.95 -1.1 11.85 -0.4 10.9 -0.1 10.05 0.15 9.1 -0.35 8.45 -1.25 8.5 -1.85" fill="none" stroke="#000000" stroke-linecap="round" stroke-linejoin="round" stroke-width="1.0"/>
    <path d="M0.05 -12.8 L0.0 -13.25 0.1 -13.2 0.3 -14.3 0.25 -13.1 0.25 -12.05 0.35 -12.55 0.4 -12.55 0.05 -8.2 0.35 -8.6 1.05 -11.35 0.3 -7.35 0.35 -7.35 0.55 -8.3 0.55 -8.0 Q1.2 -8.3 1.45 -9.55 L1.6 -10.4 1.65 -10.25 2.0 -11.25 2.05 -10.7 2.1 -10.8 2.3 -8.65 1.45 -6.25 1.3 -5.45 0.6 -5.5 -5.0 -6.8 Q-2.55 -8.7 -2.75 -9.1 L-2.6 -9.35 -2.45 -11.15 -2.45 -10.2 -2.35 -9.5 -2.25 -9.55 -1.7 -12.7 -1.9 -9.4 -1.8 -9.4 -1.5 -10.25 -1.6 -9.75 -1.4 -9.85 -1.4 -9.95 -1.35 -9.75 -1.4 -10.0 Q-1.3 -10.2 -1.35 -10.55 L-1.05 -13.35 -0.95 -13.65 -1.2 -11.2 -0.9 -9.4 -1.1 -10.9 -1.0 -11.35 -0.95 -10.75 -0.9 -10.7 -0.8 -10.8 -0.75 -10.35 -0.5 -11.85 -0.45 -12.2 -0.35 -11.8 0.0 -12.4 0.05 -12.8" fill="#000000" fill-opacity="0.4392157" fill-rule="evenodd" stroke="none"/>
    <path d="M7.3 1.45 Q3.9 -0.1 1.0 -0.95 L-4.05 -2.2 Q-6.3 -2.7 -7.2 -4.45 -8.0 -6.15 -4.45 -6.5 -1.4 -6.5 3.4 -4.85 L8.65 -2.7 Q9.05 -1.45 8.85 -0.25 8.75 0.55 7.3 1.45" fill="#260e0e" fill-rule="evenodd" stroke="none"/>
    <path d="M3.65 -3.8 L3.6 -4.1 3.8 -3.95 4.35 -4.35 4.1 -3.8 4.0 -3.35 4.25 -3.55 4.35 -3.55 3.05 -1.7 3.8 -1.75 5.5 -2.6 3.5 -1.25 3.6 -1.2 4.1 -1.45 4.05 -1.35 Q5.4 -1.15 6.0 -1.6 L6.45 -1.9 6.55 -1.8 7.3 -2.05 7.35 -1.8 7.45 -1.8 Q7.35 -1.45 7.6 -0.7 L5.6 -0.15 5.25 0.2 3.85 -0.2 -5.7 -3.3 -2.35 -3.6 -1.95 -3.65 -1.4 -4.35 -1.5 -3.9 Q-1.65 -3.6 -1.4 -3.55 L-1.2 -3.55 0.25 -4.7 -0.45 -3.7 -0.55 -3.25 -0.35 -3.2 0.3 -3.5 0.15 -3.3 0.4 -3.2 0.4 -3.25 0.65 -3.55 Q0.5 -3.8 1.6 -4.65 L1.85 -4.75 1.0 -3.7 1.45 -2.7 1.2 -3.55 1.45 -3.7 1.5 -3.4 1.6 -3.3 1.7 -3.35 1.75 -3.15 2.5 -3.65 2.65 -3.8 2.8 -3.55 3.5 -3.65 3.65 -3.8" fill="#000000" fill-opacity="0.4392157" fill-rule="evenodd" stroke="none"/>
    <path d="M7.35 1.45 Q8.75 0.55 8.85 -0.25 9.1 -1.45 8.7 -2.7 L3.45 -4.85 Q-1.35 -6.5 -4.45 -6.5 -7.95 -6.15 -7.15 -4.45 -6.3 -2.7 -4.0 -2.2 L1.0 -0.95 Q3.95 -0.15 7.35 1.45 Z" fill="none" stroke="#000000" stroke-linecap="round" stroke-linejoin="round" stroke-width="1.0"/>
    <path d="M3.2 -4.85 L3.45 -5.6 4.6 -7.5 5.6 -8.9 5.4 -8.4 4.15 -6.05 3.9 -5.3 4.15 -5.55 4.5 -5.7 4.3 -5.4 4.5 -5.65 4.55 -5.55 4.5 -5.45 4.5 -5.4 4.95 -5.75 Q5.4 -6.1 6.55 -8.9 L6.65 -9.1 6.6 -8.95 5.4 -5.6 5.65 -6.05 5.55 -5.75 5.35 -4.8 5.5 -4.9 5.4 -4.8 5.75 -5.05 5.8 -5.05 7.75 -8.0 6.0 -5.0 6.05 -4.95 6.4 -5.15 6.5 -5.05 6.45 -4.95 Q6.4 -4.25 7.3 -3.95 L5.95 -3.55 5.1 -3.85 4.75 -4.0 3.2 -4.85 Q2.2 -5.5 1.65 -6.25 L2.95 -6.7 Q2.25 -5.5 2.45 -5.55 L3.15 -6.5 3.15 -6.55 3.25 -6.5 3.4 -6.85 3.8 -6.9 3.2 -4.85" fill="#0a0807" fill-opacity="0.31764707" fill-rule="evenodd" stroke="none"/>
  </g>
</svg>
