<?xml version="1.0" encoding="UTF-8" standalone="no"?>
<svg xmlns:ffdec="https://www.free-decompiler.com/flash" xmlns:xlink="http://www.w3.org/1999/xlink" ffdec:objectType="shape" height="15.95px" width="44.6px" xmlns="http://www.w3.org/2000/svg">
  <g transform="matrix(1.0, 0.0, 0.0, 1.0, 18.6, 9.55)">
    <path d="M6.9 -6.35 L6.9 -9.55 10.05 -9.55 10.05 -6.35 6.9 -6.35 M10.05 -6.35 L16.45 -6.35 16.45 -3.2 26.0 -3.2 26.0 3.2 16.45 3.2 16.45 0.0 13.25 0.0 13.25 -3.2 10.05 -3.2 10.05 -6.35 M13.25 3.2 L13.25 6.4 10.05 6.4 10.05 3.2 13.25 3.2 M3.7 3.2 L-12.25 3.2 -12.25 0.0 -18.6 0.0 -18.6 -6.35 0.5 -6.35 0.5 0.0 3.7 0.0 3.7 3.2 M-2.65 -3.2 L-9.05 -3.2 -9.05 0.0 -2.65 0.0 -2.65 -3.2" fill="#000000" fill-rule="evenodd" stroke="none"/>
    <path d="M6.9 -6.35 L10.05 -6.35 10.05 -3.2 6.9 -3.2 6.9 -6.35 M16.45 3.2 L13.25 3.2 13.25 0.0 10.05 0.0 10.05 -3.2 13.25 -3.2 13.25 0.0 16.45 0.0 16.45 3.2 M6.9 3.2 L3.7 3.2 3.7 0.0 6.9 0.0 6.9 3.2" fill="#808080" fill-rule="evenodd" stroke="none"/>
    <path d="M6.9 -3.2 L10.05 -3.2 10.05 0.0 6.9 0.0 3.7 0.0 3.7 -3.2 6.9 -3.2" fill="#808000" fill-rule="evenodd" stroke="none"/>
    <path d="M10.05 3.2 L6.9 3.2 6.9 0.0 10.05 0.0 13.25 0.0 13.25 3.2 10.05 3.2 M0.5 -6.35 L6.9 -6.35 6.9 -3.2 3.7 -3.2 3.7 0.0 0.5 0.0 0.5 -6.35" fill="#c0c0c0" fill-rule="evenodd" stroke="none"/>
  </g>
</svg>
