<?xml version="1.0" encoding="UTF-8" standalone="no"?>
<svg xmlns:ffdec="https://www.free-decompiler.com/flash" xmlns:xlink="http://www.w3.org/1999/xlink" ffdec:objectType="shape" height="169.15px" width="549.0px" xmlns="http://www.w3.org/2000/svg">
  <g transform="matrix(1.0, 0.0, 0.0, 1.0, -18.0, -19.0)">
    <path d="M567.0 40.0 L18.0 40.0 18.0 19.0 567.0 19.0 567.0 40.0" fill="url(#gradient0)" fill-rule="evenodd" stroke="none"/>
    <path d="M566.45 165.15 L547.85 165.15 541.05 165.15 537.65 165.15 526.7 165.15 499.15 165.15 471.55 165.15 457.6 165.15 442.5 165.15 436.1 165.15 419.1 165.15 407.0 165.15 403.6 165.15 400.95 165.15 303.45 165.15 303.45 147.15 400.95 147.15 403.6 147.15 407.0 147.15 436.1 147.15 442.5 147.15 457.6 147.15 499.15 147.15 537.65 147.15 541.05 147.15 547.85 147.15 566.45 147.15 566.45 163.5 566.45 165.15 M566.45 188.15 L555.75 188.15 547.85 188.15 541.05 188.15 537.65 188.15 526.7 188.15 513.85 188.15 499.15 188.15 479.25 188.15 471.55 188.15 463.25 188.15 457.6 188.15 442.5 188.15 436.1 188.15 419.1 188.15 416.05 188.15 407.0 188.15 403.6 188.15 400.95 188.15 380.3 188.15 303.45 188.15 303.45 170.15 400.95 170.15 403.6 170.15 407.0 170.15 419.1 170.15 436.1 170.15 442.5 170.15 457.6 170.15 471.55 170.15 499.15 170.15 526.7 170.15 537.65 170.15 541.05 170.15 547.85 170.15 566.45 170.15 566.45 174.0 566.45 182.4 566.45 185.75 566.45 188.15" fill="#333333" fill-rule="evenodd" stroke="none"/>
  </g>
  <defs>
    <linearGradient gradientTransform="matrix(0.3351, 0.0, 0.0, 0.0098, 292.45, 28.0)" gradientUnits="userSpaceOnUse" id="gradient0" spreadMethod="pad" x1="-819.2" x2="819.2">
      <stop offset="0.0" stop-color="#66ccff" stop-opacity="0.4117647"/>
      <stop offset="1.0" stop-color="#66ccff" stop-opacity="0.0"/>
    </linearGradient>
  </defs>
</svg>
