<?xml version="1.0" encoding="UTF-8" standalone="no"?>
<svg xmlns:ffdec="https://www.free-decompiler.com/flash" xmlns:xlink="http://www.w3.org/1999/xlink" ffdec:objectType="shape" height="12.05px" width="81.25px" xmlns="http://www.w3.org/2000/svg">
  <g transform="matrix(1.0, 0.0, 0.0, 1.0, 8.05, 1.0)">
    <path d="M1.25 4.5 Q-0.1 8.85 -0.05 10.5 L-2.55 10.45 -5.6 9.75 -3.5 2.5 Q-1.55 1.3 2.1 1.8 L1.25 4.5 M-0.55 5.95 L-2.2 3.9 -0.55 5.95 M-1.2 7.6 L-2.75 5.6 -1.2 7.6 M-1.8 9.05 L-3.35 7.05 -1.8 9.05" fill="#52575b" fill-rule="evenodd" stroke="none"/>
    <path d="M2.55 4.4 L2.5 4.6 1.25 4.5 2.1 1.8 3.3 1.75 2.55 4.4 M-3.5 2.5 L-7.55 1.2 Q-4.95 0.85 -3.3 -0.1 L-3.5 2.5" fill="#b0b5bb" fill-rule="evenodd" stroke="none"/>
    <path d="M6.5 1.7 L7.45 -0.5 16.05 -0.35 16.0 1.35 13.65 1.35 11.55 1.7 6.5 1.7 11.55 1.7 13.65 1.35 13.7 3.9 11.9 3.9 11.3 5.0 6.5 5.0 6.5 1.7 M11.9 3.9 L11.55 1.7 11.9 3.9" fill="#454a50" fill-rule="evenodd" stroke="none"/>
    <path d="M4.4 1.75 L4.1 3.3 M-3.35 7.05 L-1.8 9.05 M-2.75 5.6 L-1.2 7.6 M-2.2 3.9 L-0.55 5.95" fill="none" stroke="#3e4245" stroke-linecap="round" stroke-linejoin="round" stroke-width="1.0"/>
    <path d="M-3.3 -0.1 L-3.5 2.5" fill="none" stroke="#737a84" stroke-linecap="round" stroke-linejoin="round" stroke-width="1.0"/>
    <path d="M13.65 1.35 L16.0 1.35 16.05 -0.35 7.45 -0.5 6.5 1.7 11.55 1.7 13.65 1.35 13.7 3.9 11.9 3.9 11.3 5.0 6.5 5.0 2.55 4.4 2.5 4.6 1.25 4.5 Q-0.1 8.85 -0.05 10.5 L-2.55 10.45 -5.6 9.75 -3.5 2.5 Q-1.55 1.3 2.1 1.8 L1.25 4.5 M3.3 1.75 L2.55 4.4 M11.55 1.7 L11.9 3.9 M6.5 5.0 L6.5 1.7" fill="none" stroke="#313435" stroke-linecap="round" stroke-linejoin="round" stroke-width="1.0"/>
    <path d="M-3.5 2.5 L-7.55 1.2 Q-4.95 0.85 -3.3 -0.1" fill="none" stroke="#414547" stroke-linecap="round" stroke-linejoin="round" stroke-width="1.0"/>
    <path d="M13.7 2.8 L72.7 2.8" fill="none" stroke="url(#gradient0)" stroke-linecap="round" stroke-linejoin="round" stroke-width="1.0"/>
  </g>
  <defs>
    <linearGradient gradientTransform="matrix(0.0556, 0.0, 0.0, 0.0095, 28.2, -4.5)" gradientUnits="userSpaceOnUse" id="gradient0" spreadMethod="pad" x1="-819.2" x2="819.2">
      <stop offset="0.0" stop-color="#ff0000" stop-opacity="0.5019608"/>
      <stop offset="1.0" stop-color="#ff0000" stop-opacity="0.101960786"/>
    </linearGradient>
  </defs>
</svg>
