<?xml version="1.0" encoding="UTF-8" standalone="no"?>
<svg xmlns:ffdec="https://www.free-decompiler.com/flash" xmlns:xlink="http://www.w3.org/1999/xlink" ffdec:objectType="shape" height="15.5px" width="47.3px" xmlns="http://www.w3.org/2000/svg">
  <g transform="matrix(1.0, 0.0, 0.0, 1.0, 15.05, 5.45)">
    <path d="M2.2 -3.4 L4.3 -3.4 4.3 -0.35 -0.05 -0.35 -0.05 -3.4 2.2 -3.4 2.2 -0.65 2.2 -3.4 -0.05 -3.4 -0.05 -0.35 4.3 -0.35 4.3 -3.4 2.2 -3.4 M9.9 -0.35 L6.0 -0.3 5.1 2.7 -1.85 2.7 -1.85 3.05 -1.85 6.0 -6.8 4.7 -9.5 0.15 -8.0 -2.4 -9.5 -3.9 -9.45 -4.05 -7.7 -2.3 -2.2 -2.3 -2.2 -3.85 -0.3 -4.95 9.9 -4.95 9.9 -0.35 M4.3 -3.4 L9.35 -3.4 4.3 -3.4 M21.65 -4.7 L25.25 -4.3 26.25 -3.3 31.75 -3.3 31.75 -0.25 31.75 1.8 31.4 2.2 Q31.55 3.15 31.3 3.9 L31.05 4.55 Q30.6 5.35 29.7 5.75 L28.3 6.1 27.8 6.15 27.65 6.15 27.65 2.25 27.0 2.25 25.65 -0.05 25.55 -0.3 21.65 -0.3 21.65 -4.7 M31.05 2.2 L27.9 2.2 31.05 2.2 M26.35 0.55 L28.15 0.55 28.95 -0.25 31.75 -0.25 28.95 -0.25 28.15 0.55 26.35 0.55 M-5.85 -0.35 L-8.0 -2.4 -5.85 -0.35 -0.05 -0.35 -5.85 -0.35 M-2.2 -2.3 L-1.7 -2.3 -2.2 -2.3 M-7.75 7.4 L-7.75 9.55 -7.75 7.4 -2.3 7.4 -1.85 7.6 -2.95 9.55 -7.75 9.55 -9.4 9.55 -9.4 7.4 -9.4 9.55 -11.15 9.55 -12.8 9.55 -12.8 7.4 -12.8 9.55 -14.55 9.55 -14.55 7.4 -12.8 7.4 -11.15 7.4 -11.15 9.55 -11.15 7.4 -9.4 7.4 -7.75 7.4 M-6.8 4.7 L-5.15 3.05 -1.85 3.05 -5.15 3.05 -6.8 4.7 M3.6 1.1 L-5.45 1.1 3.6 1.1" fill="#b0b0b0" fill-rule="evenodd" stroke="none"/>
    <path d="M2.2 -0.65 L2.2 -3.4 -0.05 -3.4 -0.05 -0.35 4.3 -0.35 4.3 -3.4 2.2 -3.4 M9.35 -3.4 L4.3 -3.4 M31.75 -0.25 L28.95 -0.25 28.15 0.55 26.35 0.55 M27.9 2.2 L31.05 2.2 M-5.85 -0.35 L-0.05 -0.35 M-1.85 3.05 L-5.15 3.05 -6.8 4.7 M-7.75 9.55 L-7.75 7.4 M-9.4 7.4 L-9.4 9.55 M-12.8 7.4 L-12.8 9.55 M-11.15 9.55 L-11.15 7.4 M-5.45 1.1 L3.6 1.1" fill="none" stroke="#878787" stroke-linecap="round" stroke-linejoin="round" stroke-width="1.0"/>
    <path d="M9.9 -0.35 L6.0 -0.3 5.1 2.7 -1.85 2.7 -1.85 3.05 -1.85 6.0 -6.8 4.7 -9.5 0.15 -8.0 -2.4 -9.5 -3.9 -9.45 -4.05 -7.7 -2.3 -2.2 -2.3 -2.2 -3.85 -0.3 -4.95 9.9 -4.95 M31.75 -0.25 L31.75 -3.3 26.25 -3.3 25.25 -4.3 21.65 -4.7 M21.65 -0.3 L25.55 -0.3 25.65 -0.05 27.0 2.25 27.65 2.25 27.65 6.15 27.8 6.15 28.3 6.1 29.7 5.75 Q30.6 5.35 31.05 4.55 L31.3 3.9 Q31.55 3.15 31.4 2.2 L31.75 1.8 31.75 -0.25 M-1.7 -2.3 L-2.2 -2.3 M-7.75 7.4 L-9.4 7.4 -11.15 7.4 -12.8 7.4 -14.55 7.4 -14.55 9.55 -12.8 9.55 -11.15 9.55 -9.4 9.55 -7.75 9.55 -2.95 9.55 -1.85 7.6 -2.3 7.4 -7.75 7.4" fill="none" stroke="#545454" stroke-linecap="round" stroke-linejoin="round" stroke-width="1.0"/>
    <path d="M9.9 -4.95 L9.9 -0.35 M21.65 -4.7 L21.65 -0.3" fill="none" stroke="#353434" stroke-linecap="round" stroke-linejoin="round" stroke-width="1.0"/>
    <path d="M-8.0 -2.4 L-5.85 -0.35" fill="none" stroke="#777777" stroke-linecap="round" stroke-linejoin="round" stroke-width="1.0"/>
  </g>
</svg>
