<?xml version="1.0" encoding="UTF-8" standalone="no"?>
<svg xmlns:xlink="http://www.w3.org/1999/xlink" height="400.0px" width="800.0px" xmlns="http://www.w3.org/2000/svg">
  <g transform="matrix(1.0, 0.0, 0.0, 1.0, 0.0, 0.0)">
    <path d="M800.0 400.0 L0.0 400.0 0.0 0.0 800.0 0.0 800.0 400.0" fill="#000000" fill-opacity="0.6" fill-rule="evenodd" stroke="none"/>
    <path d="M743.0 369.05 L50.0 369.05 50.0 28.0 743.0 28.0 743.0 369.05" fill="#000000" fill-opacity="0.8" fill-rule="evenodd" stroke="none"/>
    <path d="M613.0 44.75 L613.0 62.5 488.55 62.5 345.45 62.5 242.65 62.5 242.65 44.75 246.2 44.75 246.2 44.5 488.55 44.5 616.55 44.5 616.55 44.75 613.0 44.75 M559.65 174.0 L359.75 174.0 242.65 174.0 242.65 156.0 559.65 156.0 559.65 158.9 559.65 161.45 559.65 163.3 559.65 163.95 559.65 174.0 M372.7 184.0 L372.7 202.0 370.9 202.0 283.8 202.0 278.75 202.0 278.05 202.0 249.75 202.0 242.7 202.0 242.7 184.0 249.75 184.0 278.05 184.0 283.8 184.0 370.9 184.0 372.7 184.0 M372.7 240.0 L372.7 256.0 372.7 258.0 283.75 258.0 278.75 258.0 278.0 258.0 249.7 258.0 242.7 258.0 242.7 240.0 249.7 240.0 278.0 240.0 283.75 240.0 370.85 240.0 372.7 240.0 M372.7 230.0 L370.9 230.0 360.1 230.0 283.8 230.0 278.8 230.0 278.2 230.0 249.7 230.0 242.7 230.0 242.7 212.0 249.7 212.0 278.2 212.0 283.8 212.0 370.9 212.0 372.7 212.0 372.7 213.15 372.7 214.4 372.7 228.9 372.7 230.0" fill="#333333" fill-rule="evenodd" stroke="none"/>
  </g>
</svg>
