<?xml version="1.0" encoding="UTF-8" standalone="no"?>
<svg xmlns:xlink="http://www.w3.org/1999/xlink" height="292.6px" width="720.0px" xmlns="http://www.w3.org/2000/svg">
  <g transform="matrix(1.0, 0.0, 0.0, 1.0, 127.1, 20.35)">
    <path d="M592.9 -20.35 L592.9 -12.45 592.9 -0.15 592.9 272.25 -127.1 272.25 -127.1 -20.35 592.9 -20.35 M501.4 194.15 L501.4 199.0 3.4 199.0 3.4 194.15 501.4 194.15 M501.7 199.0 L501.7 194.15 501.7 4.55 3.4 4.55 -107.25 4.55 -107.3 193.3 -107.3 194.3 -107.3 195.4 -107.3 196.5 -107.3 197.75 -107.35 199.0 -107.3 197.75 -107.3 196.5 -107.3 195.4 -107.3 194.3 -107.25 199.0 -107.3 199.0 -107.35 199.0 -107.35 200.1 -107.35 201.2 -107.35 233.95 -107.35 234.05 -107.3 234.05 3.4 234.05 501.7 234.05 501.7 199.0 M581.45 4.55 L581.45 234.05 501.7 234.05 581.45 234.05 581.45 4.55 M-107.3 197.75 L-107.3 199.0 -107.3 197.75" fill="#0e2236" fill-opacity="0.8" fill-rule="evenodd" stroke="none"/>
    <path d="M3.4 4.55 L3.4 194.15 3.4 199.0 3.4 234.05 -107.3 234.05 -107.35 234.05 -107.35 233.95 -107.35 201.2 -107.35 200.1 -107.35 199.0 -107.3 199.0 -107.35 200.1 -107.3 199.0 -107.25 199.0 -107.3 194.3 -107.3 193.3 -107.25 4.55 3.4 4.55" fill="#000000" fill-opacity="0.9019608" fill-rule="evenodd" stroke="none"/>
    <path d="M3.4 199.0 L3.4 194.15 M-107.35 234.05 L-107.35 233.95 -107.35 201.2 -107.35 200.1 -107.35 199.0 -107.3 197.75 -107.3 196.5 -107.3 195.4 -107.3 194.3 -107.3 193.3 -107.25 4.55 M-107.3 199.0 L-107.3 197.75 M-107.35 200.1 L-107.3 199.0" fill="none" stroke="#ffffff" stroke-linecap="round" stroke-linejoin="round" stroke-opacity="0.3019608" stroke-width="1.0"/>
    <path d="M501.7 194.15 L501.4 194.15 M501.7 4.55 L3.4 4.55 3.4 194.15" fill="none" stroke="#d2d2d2" stroke-linecap="round" stroke-linejoin="round" stroke-opacity="0.3019608" stroke-width="1.0"/>
    <path d="M501.4 199.0 L501.7 199.0 501.7 194.15 501.7 4.55 M501.7 199.0 L501.7 234.05 581.45 234.05 581.45 4.55 M3.4 234.05 L3.4 199.0 501.4 199.0 M501.7 234.05 L3.4 234.05 -107.3 234.05" fill="none" stroke="#ffffff" stroke-linecap="round" stroke-linejoin="round" stroke-opacity="0.29803923" stroke-width="1.0"/>
  </g>
</svg>
