<?xml version="1.0" encoding="UTF-8" standalone="no"?>
<svg xmlns:ffdec="https://www.free-decompiler.com/flash" xmlns:xlink="http://www.w3.org/1999/xlink" ffdec:objectType="shape" height="21.0px" width="60.95px" xmlns="http://www.w3.org/2000/svg">
  <g transform="matrix(1.0, 0.0, 0.0, 1.0, 15.8, 4.9)">
    <path d="M-1.45 9.8 L-9.3 8.35 -9.65 6.8 -13.0 5.95 -13.0 -0.7 -2.1 -0.7 -2.1 1.55 -4.55 1.5 -6.75 1.5 -7.0 1.4 -7.85 2.65 -10.1 2.7 -10.2 4.25 -7.15 5.6 -6.3 5.85 -5.05 6.9 -4.5 7.4 -1.35 7.85 -1.45 9.8" fill="#605f4d" fill-rule="evenodd" stroke="none"/>
    <path d="M-13.0 5.95 L-14.15 7.8 -15.3 7.35 -14.6 -0.65 -14.55 -0.65 Q-14.55 -1.4 -13.9 -1.4 L-13.05 -0.7 -13.0 -0.7 -13.0 5.95 M-4.55 1.5 L-5.05 6.9 -6.3 5.85 -7.15 5.6 -6.75 1.5 -4.55 1.5" fill="#565447" fill-rule="evenodd" stroke="none"/>
    <path d="M35.15 -0.6 L35.55 -0.85 37.45 -0.85 40.7 -0.85 40.7 2.7 35.6 2.7 34.7 2.05 28.15 2.05 28.15 -0.25 34.7 -0.25 34.7 -0.3 35.15 -0.6 M42.9 -0.85 L44.65 -0.85 44.65 2.7 42.9 2.7 42.9 -0.85 M16.3 4.1 L11.95 5.0 11.25 5.1 11.25 2.65 16.65 2.65 16.6 4.05 16.3 4.1 M34.7 2.05 L34.7 -0.25 34.7 2.05" fill="#4c4c4c" fill-rule="evenodd" stroke="none"/>
    <path d="M16.3 4.1 Q16.7 5.55 17.6 6.95 19.25 9.75 22.65 12.3 L21.05 14.2 19.05 12.75 17.55 11.35 16.05 9.5 14.75 7.65 13.35 8.7 14.75 7.65 16.05 9.5 17.55 11.35 19.05 12.75 21.05 14.2 19.8 15.6 18.05 14.45 16.15 12.7 14.55 10.75 13.35 8.7 12.6 6.95 11.95 5.0 16.3 4.1 M14.55 10.75 L16.05 9.5 14.55 10.75 M16.15 12.7 L17.55 11.35 16.15 12.7 M19.05 12.75 L18.05 14.45 19.05 12.75" fill="#383838" fill-rule="evenodd" stroke="none"/>
    <path d="M4.5 4.6 Q3.6 5.05 2.95 6.45 L1.9 9.95 Q1.85 10.45 1.4 10.35 L-1.45 9.8 -1.35 7.85 Q-1.1 6.7 0.0 6.7 0.45 4.8 0.3 2.65 L4.65 2.65 4.5 4.6" fill="#565445" fill-rule="evenodd" stroke="none"/>
    <path d="M27.15 -3.15 L27.95 -4.4 29.4 -4.4 30.05 -3.45 35.5 -3.45 37.45 -0.85 35.55 -0.85 35.15 -0.6 34.2 -1.9 28.1 -1.9 27.15 -3.15" fill="#4c4c4a" fill-rule="evenodd" stroke="none"/>
    <path d="M16.3 4.1 L16.6 4.05 16.65 2.65 M11.25 2.65 L11.25 5.1 11.95 5.0 M6.15 3.9 L5.8 2.65 M8.8 2.65 L8.8 4.7 8.15 5.3 5.9 5.3 4.5 4.6" fill="none" stroke="#272727" stroke-linecap="round" stroke-linejoin="round" stroke-width="1.0"/>
    <path d="M-1.45 9.8 L-9.3 8.35 -9.65 6.8 -13.0 5.95 M-13.0 -0.7 L-2.1 -0.7 M-2.1 1.55 L-4.55 1.5 -6.75 1.5 -7.0 1.4 -7.85 2.65 -10.1 2.7 -10.2 4.25 -7.15 5.6 -6.3 5.85 -5.05 6.9 -4.5 7.4 -1.35 7.85" fill="none" stroke="#444138" stroke-linecap="round" stroke-linejoin="round" stroke-width="1.0"/>
    <path d="M37.45 -0.85 L35.5 -3.45 30.05 -3.45 29.4 -4.4 27.95 -4.4 27.15 -3.15 M28.1 -1.9 L34.2 -1.9 35.15 -0.6 35.55 -0.85 37.45 -0.85 40.7 -0.85 42.9 -0.85 44.65 -0.85 44.65 2.7 42.9 2.7 40.7 2.7 35.6 2.7 34.7 2.05 28.15 2.05 M28.15 -0.25 L34.7 -0.25 34.7 -0.3 35.15 -0.6 M34.7 -0.25 L34.7 2.05 M40.7 2.7 L40.7 -0.85 M42.9 2.7 L42.9 -0.85" fill="none" stroke="#222222" stroke-linecap="round" stroke-linejoin="round" stroke-width="1.0"/>
    <path d="M21.05 14.2 L22.65 12.3 Q19.25 9.75 17.6 6.95 16.7 5.55 16.3 4.1 M11.95 5.0 L12.6 6.95 13.35 8.7 14.75 7.65 16.05 9.5 17.55 11.35 19.05 12.75 21.05 14.2 19.8 15.6 18.05 14.45 16.15 12.7 14.55 10.75 13.35 8.7 M16.05 9.5 L14.55 10.75 M18.05 14.45 L19.05 12.75 M17.55 11.35 L16.15 12.7" fill="none" stroke="#1e1e1e" stroke-linecap="round" stroke-linejoin="round" stroke-width="1.0"/>
    <path d="M16.3 4.1 L11.95 5.0" fill="none" stroke="#282828" stroke-linecap="round" stroke-linejoin="round" stroke-width="1.0"/>
    <path d="M-13.0 5.95 L-14.15 7.8 -15.3 7.35 -14.6 -0.65 -14.55 -0.65 Q-14.55 -1.4 -13.9 -1.4 L-13.05 -0.7 -13.0 -0.7 -13.0 5.95" fill="none" stroke="#36362c" stroke-linecap="round" stroke-linejoin="round" stroke-width="1.0"/>
    <path d="M-4.55 1.5 L-5.05 6.9 M-7.15 5.6 L-6.75 1.5" fill="none" stroke="#3b3630" stroke-linecap="round" stroke-linejoin="round" stroke-width="1.0"/>
    <path d="M4.5 4.6 Q3.6 5.05 2.95 6.45 L1.9 9.95 Q1.85 10.45 1.4 10.35 L-1.45 9.8 -1.35 7.85 Q-1.1 6.7 0.0 6.7 0.45 4.8 0.3 2.65 M4.65 2.65 L4.5 4.6" fill="none" stroke="#3a372e" stroke-linecap="round" stroke-linejoin="round" stroke-width="1.0"/>
  </g>
</svg>
