<?xml version="1.0" encoding="UTF-8" standalone="no"?>
<svg xmlns:xlink="http://www.w3.org/1999/xlink" height="9.8px" width="5.6px" xmlns="http://www.w3.org/2000/svg">
  <g transform="matrix(1.0, 0.0, 0.0, 1.0, 0.35, 1.2)">
    <path d="M0.8 5.75 L0.8 1.6 0.15 1.6 Q0.15 0.6 0.8 -0.05 1.45 -0.7 2.4 -0.7 3.4 -0.7 4.05 -0.05 4.75 0.6 4.75 1.6 L4.0 1.6 4.0 5.75 4.75 5.75 4.75 5.8 Q4.75 6.75 4.1 7.45 3.4 8.1 2.45 8.1 1.5 8.1 0.85 7.45 0.15 6.75 0.15 5.8 L0.15 5.75 0.8 5.75 4.0 5.75 M4.0 1.6 L0.8 1.6" fill="none" stroke="#db0202" stroke-linecap="round" stroke-linejoin="round" stroke-opacity="0.4" stroke-width="1.0"/>
  </g>
</svg>
