<?xml version="1.0" encoding="UTF-8" standalone="no"?>
<svg xmlns:ffdec="https://www.free-decompiler.com/flash" xmlns:xlink="http://www.w3.org/1999/xlink" ffdec:objectType="shape" height="21.9px" width="61.95px" xmlns="http://www.w3.org/2000/svg">
  <g transform="matrix(1.0, 0.0, 0.0, 1.0, 18.0, 8.1)">
    <path d="M7.75 -5.05 Q8.4 -3.35 9.7 -1.55 L10.55 -0.45 11.4 0.4 Q8.5 0.4 8.75 2.95 8.45 4.8 6.05 5.45 8.45 4.8 8.75 2.95 8.5 0.4 11.4 0.4 12.45 1.25 14.0 1.55 13.6 2.05 13.6 2.7 13.6 3.55 14.2 4.15 14.8 4.7 15.6 4.7 16.45 4.7 17.05 4.15 L17.25 3.85 18.75 4.3 19.85 4.95 Q21.15 6.0 21.45 7.75 19.95 7.85 19.0 8.75 L18.7 9.0 Q18.1 9.4 17.35 9.6 L8.7 9.6 Q6.45 8.25 6.45 7.25 L6.05 5.45 4.95 4.15 Q3.5 4.6 0.3 3.15 -2.6 1.65 -3.7 2.45 -5.1 1.55 -2.95 -0.5 -1.7 -1.75 -2.2 -3.85 -1.7 -1.75 -2.95 -0.5 -5.1 1.55 -3.7 2.45 -4.85 4.85 -7.05 5.75 L-8.9 5.75 Q-7.7 3.4 -7.7 0.9 -5.75 1.3 -4.95 -0.45 -4.8 -1.6 -5.25 -2.45 -4.1 -3.75 -2.2 -3.85 -1.35 -4.75 -2.15 -5.8 L2.3 -6.5 Q7.55 -5.45 7.75 -5.05 M3.15 -4.15 Q2.45 -1.15 0.5 0.8 L0.5 -2.4 3.15 -4.15 5.8 -2.4 5.8 0.8 5.8 -2.4 3.15 -4.15 Q3.9 -1.45 5.8 0.8 3.2 0.05 0.5 0.8 L3.15 2.5 5.8 0.8 3.15 2.5 0.5 0.8 Q3.2 0.05 5.8 0.8 3.9 -1.45 3.15 -4.15 L0.5 -2.4 0.5 0.8 Q2.45 -1.15 3.15 -4.15 M20.1 -6.3 L20.9 -6.35 25.9 -6.15 25.95 -5.95 26.25 -5.2 26.3 -5.05 26.3 -5.0 26.3 -4.95 26.9 -1.35 Q23.75 -1.95 20.1 -6.3 M36.65 -5.95 L36.6 -6.2 Q38.5 -6.5 40.25 -6.2 L41.75 2.2 42.1 3.9 Q40.85 0.75 37.5 -1.2 L37.2 -2.9 37.15 -3.05 36.65 -5.95" fill="#a47a4d" fill-rule="evenodd" stroke="none"/>
    <path d="M9.7 -1.55 Q8.4 -3.35 7.75 -5.05 L16.7 -5.05 Q16.8 -3.65 16.55 -3.05 L9.7 -1.55 M-3.7 2.45 Q-2.6 1.65 0.3 3.15 -2.1 5.65 -1.9 8.5 L-1.75 9.75 Q-1.8 11.15 -2.45 12.1 -3.0 12.8 -3.9 13.3 -7.15 12.75 -8.95 11.05 -7.25 8.65 -7.05 5.75 -4.85 4.85 -3.7 2.45 M25.95 -5.95 L36.65 -5.95 37.15 -3.05 37.2 -2.9 37.5 -1.2 37.9 1.3 Q38.5 4.6 39.4 7.85 L29.25 7.85 Q28.1 4.35 27.35 0.85 L26.9 -1.35 26.3 -4.95 26.3 -5.0 26.3 -5.05 26.25 -5.2 25.95 -5.95 M28.45 -3.15 Q28.3 -1.75 29.2 -0.65 L35.5 -0.65 Q35.45 -1.75 34.7 -3.15 L28.45 -3.15 M36.7 4.95 Q36.65 3.85 35.9 2.45 L29.65 2.45 Q29.5 3.85 30.4 4.95 L36.7 4.95 M-1.75 9.75 Q-3.95 8.65 -4.2 7.0 -3.95 8.65 -1.75 9.75 M-5.15 9.75 Q-4.55 11.75 -2.45 12.1 -4.55 11.75 -5.15 9.75" fill="#353638" fill-rule="evenodd" stroke="none"/>
    <path d="M-2.15 -5.8 Q-1.35 -4.75 -2.2 -3.85 -4.1 -3.75 -5.25 -2.45 -4.8 -1.6 -4.95 -0.45 -5.75 1.3 -7.7 0.9 -7.7 3.4 -8.9 5.75 -13.1 5.6 -15.65 4.3 L-16.0 3.45 -16.55 1.75 Q-17.15 -0.35 -17.35 -2.6 L-17.4 -3.1 -17.45 -4.35 -17.45 -5.1 Q-17.15 -6.4 -15.3 -7.1 L-11.3 -7.45 -8.75 -7.5 -6.35 -7.35 Q-3.75 -7.05 -2.45 -6.05 L-2.15 -5.8 M11.4 0.4 L10.55 -0.45 9.7 -1.55 16.55 -3.05 Q16.8 -3.65 16.7 -5.05 L18.5 -5.9 20.1 -6.3 Q23.75 -1.95 26.9 -1.35 L27.35 0.85 Q28.1 4.35 29.25 7.85 L29.6 8.9 Q26.05 9.45 21.55 8.3 L21.5 8.0 21.45 7.75 Q21.15 6.0 19.85 4.95 L18.75 4.3 17.25 3.85 17.05 4.15 Q16.45 4.7 15.6 4.7 14.8 4.7 14.2 4.15 13.6 3.55 13.6 2.7 13.6 2.05 14.0 1.55 12.45 1.25 11.4 0.4 M42.1 3.9 L42.75 6.65 43.45 9.05 Q41.85 10.15 39.75 9.05 L39.4 7.85 Q38.5 4.6 37.9 1.3 L37.5 -1.2 Q40.85 0.75 42.1 3.9 M17.25 3.85 L17.6 2.7 17.25 3.85 M16.45 0.9 L15.6 0.7 15.0 0.8 14.2 1.3 14.0 1.55 14.2 1.3 15.0 0.8 15.6 0.7 16.45 0.9 M26.2 6.5 Q25.7 4.6 24.5 3.15 25.7 4.6 26.2 6.5 M23.75 6.85 Q23.25 4.95 22.05 3.5 23.25 4.95 23.75 6.85 M-11.65 0.3 Q-12.15 0.3 -12.55 0.65 -12.9 1.05 -12.9 1.55 L-12.55 2.45 -11.65 2.8 Q-11.15 2.8 -10.75 2.45 -10.4 2.05 -10.4 1.55 -10.4 1.05 -10.75 0.65 -11.15 0.3 -11.65 0.3" fill="#f0c468" fill-rule="evenodd" stroke="none"/>
    <path d="M28.45 -3.15 L34.7 -3.15 Q35.45 -1.75 35.5 -0.65 L29.2 -0.65 Q28.3 -1.75 28.45 -3.15 M36.7 4.95 L30.4 4.95 Q29.5 3.85 29.65 2.45 L35.9 2.45 Q36.65 3.85 36.7 4.95" fill="#ffffff" fill-rule="evenodd" stroke="none"/>
    <path d="M-11.65 0.3 Q-11.15 0.3 -10.75 0.65 -10.4 1.05 -10.4 1.55 -10.4 2.05 -10.75 2.45 -11.15 2.8 -11.65 2.8 L-12.55 2.45 -12.9 1.55 Q-12.9 1.05 -12.55 0.65 -12.15 0.3 -11.65 0.3" fill="#11e8ff" fill-rule="evenodd" stroke="none"/>
    <path d="M5.8 0.8 L5.8 -2.4 3.15 -4.15 Q3.9 -1.45 5.8 0.8 3.2 0.05 0.5 0.8 L3.15 2.5 5.8 0.8 M3.15 -4.15 L0.5 -2.4 0.5 0.8 Q2.45 -1.15 3.15 -4.15 M-11.65 0.3 Q-11.15 0.3 -10.75 0.65 -10.4 1.05 -10.4 1.55 -10.4 2.05 -10.75 2.45 -11.15 2.8 -11.65 2.8 L-12.55 2.45 -12.9 1.55 Q-12.9 1.05 -12.55 0.65 -12.15 0.3 -11.65 0.3" fill="none" stroke="#015b65" stroke-linecap="round" stroke-linejoin="round" stroke-width="1.0"/>
    <path d="M7.75 -5.05 Q7.55 -5.45 2.3 -6.5 L-2.15 -5.8 Q-1.35 -4.75 -2.2 -3.85 -4.1 -3.75 -5.25 -2.45 -4.8 -1.6 -4.95 -0.45 -5.75 1.3 -7.7 0.9 -7.7 3.4 -8.9 5.75 L-7.05 5.75 Q-4.85 4.85 -3.7 2.45 -2.6 1.65 0.3 3.15 M11.4 0.4 L10.55 -0.45 9.7 -1.55 M16.7 -5.05 L18.5 -5.9 20.1 -6.3 20.9 -6.35 25.9 -6.15 25.95 -5.95 26.25 -5.2 26.3 -5.05 M36.65 -5.95 L36.6 -6.2 Q38.5 -6.5 40.25 -6.2 L41.75 2.2 42.1 3.9 42.75 6.65 43.45 9.05 Q41.85 10.15 39.75 9.05 L39.4 7.85 Q38.5 4.6 37.9 1.3 L37.5 -1.2 Q40.85 0.75 42.1 3.9 M29.25 7.85 L29.6 8.9 Q26.05 9.45 21.55 8.3 L21.5 8.0 21.45 7.75 Q19.95 7.85 19.0 8.75 L18.7 9.0 Q18.1 9.4 17.35 9.6 L8.7 9.6 M26.3 -5.0 L26.3 -4.95 26.9 -1.35 27.35 0.85 Q28.1 4.35 29.25 7.85 M37.5 -1.2 L37.2 -2.9 37.15 -3.05 36.65 -5.95 M26.9 -1.35 Q23.75 -1.95 20.1 -6.3 M22.05 3.5 Q23.25 4.95 23.75 6.85 M24.5 3.15 Q25.7 4.6 26.2 6.5 M14.0 1.55 L14.2 1.3 15.0 0.8 15.6 0.7 16.45 0.9 M17.6 2.7 L17.25 3.85 18.75 4.3 19.85 4.95 Q21.15 6.0 21.45 7.75 M17.25 3.85 L17.05 4.15 Q16.45 4.7 15.6 4.7 14.8 4.7 14.2 4.15 13.6 3.55 13.6 2.7 13.6 2.05 14.0 1.55 12.45 1.25 11.4 0.4 M-8.9 5.75 Q-13.1 5.6 -15.65 4.3 L-16.0 3.45 -16.55 1.75 Q-17.15 -0.35 -17.35 -2.6 L-17.4 -3.1 -17.45 -4.35 -17.45 -5.1 Q-17.15 -6.4 -15.3 -7.1 L-11.3 -7.45 -8.75 -7.5 -6.35 -7.35 Q-3.75 -7.05 -2.45 -6.05 L-2.15 -5.8" fill="none" stroke="#513c1e" stroke-linecap="round" stroke-linejoin="round" stroke-width="1.0"/>
    <path d="M9.7 -1.55 Q8.4 -3.35 7.75 -5.05 M9.7 -1.55 L16.55 -3.05 Q16.8 -3.65 16.7 -5.05" fill="none" stroke="#2e2820" stroke-linecap="round" stroke-linejoin="round" stroke-width="1.0"/>
    <path d="M0.3 3.15 Q3.5 4.6 4.95 4.15 L6.05 5.45 6.45 7.25 Q6.45 8.25 8.7 9.6 M16.7 -5.05 L7.75 -5.05 M25.95 -5.95 L36.65 -5.95 M39.4 7.85 L29.25 7.85 M28.45 -3.15 L34.7 -3.15 Q35.45 -1.75 35.5 -0.65 L29.2 -0.65 Q28.3 -1.75 28.45 -3.15 M36.7 4.95 L30.4 4.95 Q29.5 3.85 29.65 2.45 L35.9 2.45 Q36.65 3.85 36.7 4.95 M-1.75 9.75 L-1.9 8.5 Q-2.1 5.65 0.3 3.15 M-1.75 9.75 Q-1.8 11.15 -2.45 12.1 -3.0 12.8 -3.9 13.3 -7.15 12.75 -8.95 11.05 -7.25 8.65 -7.05 5.75 M-2.45 12.1 Q-4.55 11.75 -5.15 9.75 M-4.2 7.0 Q-3.95 8.65 -1.75 9.75" fill="none" stroke="#191718" stroke-linecap="round" stroke-linejoin="round" stroke-width="1.0"/>
    <path d="M-2.2 -3.85 Q-1.7 -1.75 -2.95 -0.5 -5.1 1.55 -3.7 2.45 M6.05 5.45 Q8.45 4.8 8.75 2.95 8.5 0.4 11.4 0.4" fill="none" stroke="#775938" stroke-linecap="round" stroke-linejoin="round" stroke-width="1.0"/>
    <path d="M16.9 1.2 L16.8 1.1 20.25 -0.9 Q21.1 -0.45 21.0 0.35 19.25 1.4 17.45 2.4 L17.45 2.35 17.35 1.9 16.9 1.2" fill="#353638" fill-rule="evenodd" stroke="none"/>
    <path d="M0.95 3.4 L-0.05 6.5 -2.0 7.15 Q-1.7 5.0 0.15 3.05 L0.95 3.4" fill="#191718" fill-rule="evenodd" stroke="none"/>
    <path d="M15.85 7.85 L15.7 9.45 M13.2 6.1 L12.85 9.5 M16.9 1.2 L17.35 1.9 17.45 2.35 17.45 2.4 Q19.25 1.4 21.0 0.35 21.1 -0.45 20.25 -0.9 L16.8 1.1 16.9 1.2 M10.75 4.55 L10.25 9.5 M-2.0 7.15 L-2.05 8.4 Q2.1 8.85 6.3 7.15 6.25 5.15 4.9 4.15 3.55 4.45 0.95 3.4 L-0.05 6.5 -2.0 7.15 Q-1.7 5.0 0.15 3.05 L0.95 3.4 M-14.35 -3.45 Q-14.2 -4.9 -12.95 -7.45 M-9.85 -3.7 Q-9.65 -5.15 -8.4 -7.6 M-11.95 -3.55 Q-11.8 -5.0 -10.5 -7.6" fill="none" stroke="#191718" stroke-linecap="round" stroke-linejoin="round" stroke-width="1.0"/>
    <path d="M-16.05 -3.1 Q-14.25 -4.95 -11.65 -4.95 -9.05 -4.95 -7.2 -3.1 -5.4 -1.3 -5.4 1.3 -5.4 3.9 -7.2 5.7 -9.05 7.55 -11.65 7.55 -14.25 7.55 -16.05 5.7 -17.25 4.55 -17.65 3.1 L-17.9 1.3 -17.65 -0.5 Q-17.25 -2.0 -16.05 -3.1" fill="url(#gradient0)" fill-rule="evenodd" stroke="none"/>
  </g>
  <defs>
    <radialGradient cx="0" cy="0" gradientTransform="matrix(0.0078, 0.0, 0.0, 0.0078, -11.75, 1.35)" gradientUnits="userSpaceOnUse" id="gradient0" r="819.2" spreadMethod="pad">
      <stop offset="0.0" stop-color="#11e8ff"/>
      <stop offset="1.0" stop-color="#11e8ff" stop-opacity="0.0"/>
    </radialGradient>
  </defs>
</svg>
