<?xml version="1.0" encoding="UTF-8" standalone="no"?>
<svg xmlns:xlink="http://www.w3.org/1999/xlink" height="101.0px" width="101.0px" xmlns="http://www.w3.org/2000/svg">
  <g transform="matrix(1.0, 0.0, 0.0, 1.0, 50.5, 50.5)">
    <path d="M8.55 -10.75 Q4.3 -6.5 4.3 -0.5 4.3 5.5 8.55 9.75 12.8 14.0 18.8 14.0 24.8 14.0 29.05 9.75 33.3 5.5 33.3 -0.5 33.3 -6.5 29.05 -10.75 24.8 -15.0 18.8 -15.0 12.8 -15.0 8.55 -10.75 M28.2 -28.15 Q39.85 -16.5 39.85 0.0 39.85 16.5 28.2 28.2 16.5 39.85 0.0 39.85 -16.5 39.85 -28.15 28.2 -39.85 16.5 -39.85 0.0 -39.85 -16.5 -28.15 -28.15 -16.5 -39.85 0.0 -39.85 16.5 -39.85 28.2 -28.15 M-29.3 -5.05 Q-31.2 -3.15 -31.2 -0.5 -31.2 2.2 -29.3 4.1 -27.4 6.0 -24.7 6.0 -22.0 6.0 -20.1 4.1 -18.2 2.2 -18.2 -0.5 -18.2 -3.15 -20.1 -5.05 -22.0 -7.0 -24.7 -7.0 -27.4 -7.0 -29.3 -5.05" fill="url(#gradient0)" fill-rule="evenodd" stroke="none"/>
    <path d="M8.55 -10.75 Q12.8 -15.0 18.8 -15.0 24.8 -15.0 29.05 -10.75 33.3 -6.5 33.3 -0.5 33.3 5.5 29.05 9.75 24.8 14.0 18.8 14.0 12.8 14.0 8.55 9.75 4.3 5.5 4.3 -0.5 4.3 -6.5 8.55 -10.75 M28.2 -28.15 Q16.5 -39.85 0.0 -39.85 -16.5 -39.85 -28.15 -28.15 -39.85 -16.5 -39.85 0.0 -39.85 16.5 -28.15 28.2 -16.5 39.85 0.0 39.85 16.5 39.85 28.2 28.2 39.85 16.5 39.85 0.0 39.85 -16.5 28.2 -28.15 M35.7 -35.7 Q50.5 -20.9 50.5 0.0 50.5 20.9 35.7 35.7 20.9 50.5 0.0 50.5 -20.9 50.5 -35.7 35.7 -50.5 20.9 -50.5 0.0 -50.5 -20.9 -35.7 -35.7 -20.9 -50.5 0.0 -50.5 20.9 -50.5 35.7 -35.7 M-29.3 -5.05 Q-27.4 -7.0 -24.7 -7.0 -22.0 -7.0 -20.1 -5.05 -18.2 -3.15 -18.2 -0.5 -18.2 2.2 -20.1 4.1 -22.0 6.0 -24.7 6.0 -27.4 6.0 -29.3 4.1 -31.2 2.2 -31.2 -0.5 -31.2 -3.15 -29.3 -5.05" fill="url(#gradient1)" fill-rule="evenodd" stroke="none"/>
  </g>
  <defs>
    <linearGradient gradientTransform="matrix(0.0486, 0.0, 0.0, 0.0486, 0.0, 0.0)" gradientUnits="userSpaceOnUse" id="gradient0" spreadMethod="pad" x1="-819.2" x2="819.2">
      <stop offset="0.0" stop-color="#142030"/>
      <stop offset="1.0" stop-color="#18243d"/>
    </linearGradient>
    <linearGradient gradientTransform="matrix(0.0616, 0.0, 0.0, 0.0616, 0.0, 0.0)" gradientUnits="userSpaceOnUse" id="gradient1" spreadMethod="pad" x1="-819.2" x2="819.2">
      <stop offset="0.0" stop-color="#2e405a"/>
      <stop offset="1.0" stop-color="#1f293f"/>
    </linearGradient>
  </defs>
</svg>
