<?xml version="1.0" encoding="UTF-8" standalone="no"?>
<svg xmlns:ffdec="https://www.free-decompiler.com/flash" xmlns:xlink="http://www.w3.org/1999/xlink" ffdec:objectType="shape" height="16.95px" width="38.8px" xmlns="http://www.w3.org/2000/svg">
  <g transform="matrix(1.0, 0.0, 0.0, 1.0, 15.25, 6.95)">
    <path d="M13.0 6.25 L11.9 7.9 Q8.65 7.8 6.9 6.05 L7.9 4.35 22.9 4.35 22.9 6.25 13.0 6.25" fill="#cfb666" fill-rule="evenodd" stroke="none"/>
    <path d="M13.0 6.25 L22.9 6.25 22.9 4.35 7.9 4.35 6.9 6.05 Q8.65 7.8 11.9 7.9 L13.0 6.25 Z" fill="none" stroke="#544a2e" stroke-linecap="round" stroke-linejoin="round" stroke-width="1.0"/>
    <path d="M21.6 -2.4 L22.9 4.35 18.55 4.35 15.65 4.35 12.75 4.35 7.9 4.35 5.95 7.75 4.05 4.4 3.75 3.6 -0.6 3.4 -3.7 5.05 -4.55 1.25 -2.0 -2.6 0.85 -2.45 6.8 -2.2 8.7 -4.05 21.6 -2.4 M-12.55 4.5 L-14.75 1.65 -13.65 0.95 -12.5 0.25 -9.85 0.6 -9.5 -0.15 -8.9 -0.5 -8.55 -0.55 -7.9 -0.35 -7.6 -0.15 Q-7.2 0.25 -7.2 0.8 L-7.2 0.95 -4.55 1.25 -3.7 5.05 -12.55 4.5 M6.8 -2.2 L3.75 3.6 6.8 -2.2 M18.55 4.35 L17.1 -0.45 18.55 4.35 M14.2 -0.45 L15.65 4.35 14.2 -0.45 M11.3 -0.45 L12.75 4.35 11.3 -0.45 M2.9 -0.45 L1.9 1.75 2.9 -0.45 M-9.85 0.6 L-9.9 0.8 Q-9.9 1.35 -9.5 1.75 -9.1 2.15 -8.55 2.15 -8.0 2.15 -7.6 1.75 -7.25 1.4 -7.2 0.95 -7.25 1.4 -7.6 1.75 -8.0 2.15 -8.55 2.15 -9.1 2.15 -9.5 1.75 -9.9 1.35 -9.9 0.8 L-9.85 0.6 -7.2 0.95 -9.85 0.6 M0.85 -2.45 L-0.15 -0.25 0.85 -2.45" fill="#cfb666" fill-rule="evenodd" stroke="none"/>
    <path d="M8.7 -4.05 L8.7 -6.45 20.2 -5.05 21.4 -3.5 21.6 -2.4 8.7 -4.05 M-3.7 5.05 L-5.55 9.05 -11.25 8.35 -12.55 4.5 -3.7 5.05 M-13.65 0.95 L-12.9 -3.6 -10.7 -3.6 -10.1 -4.85 -2.75 -4.85 -2.0 -2.6 -4.55 1.25 -7.2 0.95 -7.2 0.8 Q-7.2 0.25 -7.6 -0.15 L-7.9 -0.35 -8.55 -0.55 -8.9 -0.5 -9.5 -0.15 -9.85 0.6 -12.5 0.25 -13.65 0.95 M-12.5 0.25 L-10.7 -3.6 -12.5 0.25" fill="#ab814c" fill-rule="evenodd" stroke="none"/>
    <path d="M22.9 4.35 L22.9 6.25 22.9 7.4 Q22.8 8.95 20.75 9.5 L8.4 9.5 Q7.05 9.5 5.95 7.75 L7.9 4.35 12.75 4.35 15.65 4.35 18.55 4.35 22.9 4.35" fill="#39c529" fill-opacity="0.7529412" fill-rule="evenodd" stroke="none"/>
    <path d="M8.7 -4.05 L8.7 -6.45 20.2 -5.05 21.4 -3.5 21.6 -2.4 22.9 4.35 18.55 4.35 15.65 4.35 12.75 4.35 7.9 4.35 5.95 7.75 4.05 4.4 3.75 3.6 -0.6 3.4 -3.7 5.05 -5.55 9.05 -11.25 8.35 -12.55 4.5 -14.75 1.65 -13.65 0.95 -12.9 -3.6 -10.7 -3.6 -10.1 -4.85 -2.75 -4.85 -2.0 -2.6 0.85 -2.45 6.8 -2.2 8.7 -4.05 21.6 -2.4 M3.75 3.6 L6.8 -2.2 M-4.55 1.25 L-2.0 -2.6 M-3.7 5.05 L-4.55 1.25 M-12.5 0.25 L-13.65 0.95 M-12.55 4.5 L-3.7 5.05 M-10.7 -3.6 L-12.5 0.25" fill="none" stroke="#544a2e" stroke-linecap="round" stroke-linejoin="round" stroke-width="1.0"/>
    <path d="M22.9 6.25 L22.9 7.4 Q22.8 8.95 20.75 9.5 L8.4 9.5 Q7.05 9.5 5.95 7.75" fill="none" stroke="#544a2e" stroke-linecap="round" stroke-linejoin="round" stroke-opacity="0.7529412" stroke-width="1.0"/>
    <path d="M1.9 1.75 L2.9 -0.45 M12.75 4.35 L11.3 -0.45 M15.65 4.35 L14.2 -0.45 M17.1 -0.45 L18.55 4.35 M-9.85 0.6 L-9.5 -0.15 -8.9 -0.5 -8.55 -0.55 -7.9 -0.35 -7.6 -0.15 Q-7.2 0.25 -7.2 0.8 L-7.2 0.95 Q-7.25 1.4 -7.6 1.75 -8.0 2.15 -8.55 2.15 -9.1 2.15 -9.5 1.75 -9.9 1.35 -9.9 0.8 L-9.85 0.6 M-0.15 -0.25 L0.85 -2.45" fill="none" stroke="#876632" stroke-linecap="round" stroke-linejoin="round" stroke-width="1.0"/>
    <path d="M-7.2 0.95 L-4.55 1.25 M-9.85 0.6 L-12.5 0.25 M-9.85 0.6 L-7.2 0.95" fill="none" stroke="#ff0000" stroke-linecap="round" stroke-linejoin="round" stroke-opacity="0.0" stroke-width="1.0"/>
    <path d="M22.9 4.35 L22.9 6.25" fill="none" stroke="#544a2e" stroke-linecap="round" stroke-linejoin="round" stroke-width="1.0"/>
  </g>
</svg>
