<?xml version="1.0" encoding="UTF-8" standalone="no"?>
<svg xmlns:ffdec="https://www.free-decompiler.com/flash" xmlns:xlink="http://www.w3.org/1999/xlink" ffdec:objectType="shape" height="15.0px" width="33.6px" xmlns="http://www.w3.org/2000/svg">
  <g transform="matrix(1.0, 0.0, 0.0, 1.0, 13.15, 5.0)">
    <path d="M-2.45 5.5 L-1.25 7.35 -2.3 9.5 -7.15 9.5 -9.35 4.0 -2.45 5.5" fill="#333333" fill-rule="evenodd" stroke="none"/>
    <path d="M6.95 -1.35 L10.05 0.5 10.8 1.9 6.4 3.3 4.05 3.3 -0.45 3.3 -1.45 -0.3 6.95 -1.35 M4.15 1.05 L2.6 1.15 4.15 1.05 M8.15 0.8 L6.2 0.9 8.15 0.8" fill="#cccccc" fill-rule="evenodd" stroke="none"/>
    <path d="M16.25 -3.1 L9.05 -3.1 16.25 -3.1 M6.95 -1.35 L6.2 -1.8 6.2 -3.15 6.2 -4.5 19.0 -4.5 19.95 -3.85 19.95 3.45 17.35 5.65 17.35 7.2 8.75 7.2 6.4 3.3 10.8 1.9 10.05 0.5 6.95 -1.35 M15.3 4.3 L17.3 2.3 17.3 -0.05 17.3 2.3 15.3 4.3 M11.55 4.3 L13.55 2.3 13.55 -0.05 13.55 2.3 11.55 4.3" fill="#959595" fill-rule="evenodd" stroke="none"/>
    <path d="M-2.1 -2.45 L-1.45 -0.3 -0.45 3.3 -2.45 5.5 -9.35 4.0 -12.1 2.4 -6.7 0.5 -6.7 -3.7 -2.45 -3.7 -2.1 -2.45" fill="#6a6a6a" fill-rule="evenodd" stroke="none"/>
    <path d="M6.2 -3.15 L6.2 -1.8 6.95 -1.35 -1.45 -0.3 -2.1 -2.45 -2.0 -2.15 6.2 -3.15" fill="#b10101" fill-rule="evenodd" stroke="none"/>
    <path d="M9.05 -3.1 L16.25 -3.1 M6.2 -3.15 L6.2 -1.8 6.95 -1.35 10.05 0.5 10.8 1.9 6.4 3.3 8.75 7.2 M17.35 5.65 L19.95 3.45 19.95 -3.85 19.0 -4.5 6.2 -4.5 6.2 -3.15 M-2.0 -2.15 L-2.1 -2.45 -1.45 -0.3 -0.45 3.3 4.05 3.3 6.4 3.3 M13.55 -0.05 L13.55 2.3 11.55 4.3 M17.3 -0.05 L17.3 2.3 15.3 4.3 M6.2 0.9 L8.15 0.8 M2.6 1.15 L4.15 1.05 M-6.7 -3.7 L-2.45 -3.7 -2.1 -2.45 M-2.45 5.5 L-9.35 4.0 -12.1 2.4 -6.7 0.5 -6.7 -3.7 M-0.45 3.3 L-2.45 5.5 M-1.25 7.35 Q4.05 6.5 4.05 3.3" fill="none" stroke="#595959" stroke-linecap="round" stroke-linejoin="round" stroke-width="1.0"/>
    <path d="M-9.35 4.0 L-7.15 9.5 -2.3 9.5 -1.25 7.35 -2.45 5.5" fill="none" stroke="#000000" stroke-linecap="round" stroke-linejoin="round" stroke-width="1.0"/>
    <path d="M8.75 7.2 L17.35 7.2" fill="none" stroke="#666666" stroke-linecap="round" stroke-linejoin="round" stroke-width="1.0"/>
    <path d="M17.35 7.2 L17.35 5.65" fill="none" stroke="#3c3c3c" stroke-linecap="round" stroke-linejoin="round" stroke-width="1.0"/>
    <path d="M6.2 -3.15 L-2.0 -2.15 M-12.1 2.4 Q-14.4 -3.45 -6.7 -3.7" fill="none" stroke="#770000" stroke-linecap="round" stroke-linejoin="round" stroke-width="1.0"/>
  </g>
</svg>
