<?xml version="1.0" encoding="UTF-8" standalone="no"?>
<svg xmlns:xlink="http://www.w3.org/1999/xlink" height="32.8px" width="58.75px" xmlns="http://www.w3.org/2000/svg">
  <g transform="matrix(1.0, 0.0, 0.0, 1.0, -62.3, 19.8)">
    <path d="M76.65 13.0 Q75.5 12.2 73.35 8.05 70.65 3.55 67.95 -3.25 65.25 -9.95 64.2 -14.9 63.05 -19.0 63.7 -19.4 L76.65 13.0" fill="url(#gradient0)" fill-rule="evenodd" stroke="none"/>
    <path d="M63.7 -19.4 L63.75 -19.4 Q63.75 -19.8 63.9 -19.8 64.9 -19.8 67.5 -14.9 70.15 -9.95 72.85 -3.25 75.55 3.55 76.65 8.05 78.0 13.0 77.0 13.0 L76.7 13.0 Q76.55 12.6 76.65 13.0 L63.7 -19.4" fill="url(#gradient1)" fill-rule="evenodd" stroke="none"/>
    <path d="M76.7 -19.4 Q77.05 -19.8 77.25 -19.8 78.35 -19.8 77.0 -14.9 75.65 -9.95 72.7 -3.25 69.75 3.55 66.95 8.05 64.0 13.0 62.9 13.0 L62.5 13.0 76.7 -19.4" fill="url(#gradient2)" fill-rule="evenodd" stroke="none"/>
    <path d="M62.5 13.0 Q61.9 12.2 63.1 8.05 64.1 3.55 67.05 -3.25 70.0 -9.95 73.15 -14.9 75.55 -19.0 76.7 -19.4 L62.5 13.0" fill="url(#gradient3)" fill-rule="evenodd" stroke="none"/>
    <path d="M71.9 -8.15 L72.45 -8.15 78.5 -8.3 Q96.2 -8.3 108.35 -6.6 121.05 -4.9 121.05 -2.6 121.05 -0.25 108.35 1.3 96.2 3.0 78.5 3.0 L72.45 3.0 Q72.45 2.85 71.9 3.0 L71.9 -8.15" fill="url(#gradient4)" fill-rule="evenodd" stroke="none"/>
    <path d="M71.9 3.0 Q69.15 2.7 67.5 1.3 64.7 -0.25 64.7 -2.6 64.7 -4.9 67.5 -6.6 69.15 -8.0 71.9 -8.15 L71.9 3.0" fill="url(#gradient5)" fill-rule="evenodd" stroke="none"/>
    <path d="M68.95 -15.1 L69.05 -15.1 70.1 -15.45 Q73.2 -15.45 75.35 -11.65 77.55 -7.85 77.55 -2.7 77.55 2.5 75.35 6.0 73.2 9.8 70.1 9.8 L69.05 9.8 Q69.05 9.5 68.95 9.8 L68.95 -15.1" fill="url(#gradient6)" fill-rule="evenodd" stroke="none"/>
    <path d="M68.95 9.8 Q67.3 9.15 66.35 6.0 64.6 2.5 64.6 -2.7 64.6 -7.85 66.35 -11.65 67.3 -14.8 68.95 -15.1 L68.95 9.8" fill="url(#gradient7)" fill-rule="evenodd" stroke="none"/>
  </g>
  <defs>
    <radialGradient cx="0" cy="0" gradientTransform="matrix(0.0071, 0.0178, -0.0031, 0.0, 70.5, -3.25)" gradientUnits="userSpaceOnUse" id="gradient0" r="819.2" spreadMethod="pad">
      <stop offset="0.17647058823529413" stop-color="#ffffff"/>
      <stop offset="0.5529411764705883" stop-color="#ffffff" stop-opacity="0.77254903"/>
      <stop offset="1.0" stop-color="#ccf0ff" stop-opacity="0.0"/>
    </radialGradient>
    <radialGradient cx="0" cy="0" gradientTransform="matrix(0.0071, 0.0178, -0.0029, 0.0, 70.5, -3.25)" gradientUnits="userSpaceOnUse" id="gradient1" r="819.2" spreadMethod="pad">
      <stop offset="0.17647058823529413" stop-color="#ffffff"/>
      <stop offset="0.5529411764705883" stop-color="#ffffff" stop-opacity="0.77254903"/>
      <stop offset="1.0" stop-color="#ccf0ff" stop-opacity="0.0"/>
    </radialGradient>
    <radialGradient cx="0" cy="0" gradientTransform="matrix(-0.0078, 0.0178, -0.0033, 0.0, 70.0, -3.25)" gradientUnits="userSpaceOnUse" id="gradient2" r="819.2" spreadMethod="pad">
      <stop offset="0.17647058823529413" stop-color="#ffffff"/>
      <stop offset="0.5529411764705883" stop-color="#ffffff" stop-opacity="0.77254903"/>
      <stop offset="1.0" stop-color="#ccf0ff" stop-opacity="0.0"/>
    </radialGradient>
    <radialGradient cx="0" cy="0" gradientTransform="matrix(-0.0078, 0.0178, -0.0036, 0.0, 69.95, -3.25)" gradientUnits="userSpaceOnUse" id="gradient3" r="819.2" spreadMethod="pad">
      <stop offset="0.17647058823529413" stop-color="#ffffff"/>
      <stop offset="0.5529411764705883" stop-color="#ffffff" stop-opacity="0.77254903"/>
      <stop offset="1.0" stop-color="#ccf0ff" stop-opacity="0.0"/>
    </radialGradient>
    <radialGradient cx="0" cy="0" gradientTransform="matrix(0.0, 0.0061, -0.0521, 0.0, 78.5, -2.6)" gradientUnits="userSpaceOnUse" id="gradient4" r="819.2" spreadMethod="pad">
      <stop offset="0.17647058823529413" stop-color="#ffffff"/>
      <stop offset="0.5529411764705883" stop-color="#ffffff" stop-opacity="0.77254903"/>
      <stop offset="1.0" stop-color="#ccf0ff" stop-opacity="0.0"/>
    </radialGradient>
    <radialGradient cx="0" cy="0" gradientTransform="matrix(0.0, 0.0061, -0.0101, 0.0, 73.0, -2.6)" gradientUnits="userSpaceOnUse" id="gradient5" r="819.2" spreadMethod="pad">
      <stop offset="0.17647058823529413" stop-color="#ffffff"/>
      <stop offset="0.5529411764705883" stop-color="#ffffff" stop-opacity="0.77254903"/>
      <stop offset="1.0" stop-color="#ccf0ff" stop-opacity="0.0"/>
    </radialGradient>
    <radialGradient cx="0" cy="0" gradientTransform="matrix(0.0, 0.0137, -0.0091, 0.0, 70.1, -2.7)" gradientUnits="userSpaceOnUse" id="gradient6" r="819.2" spreadMethod="pad">
      <stop offset="0.17647058823529413" stop-color="#ffffff"/>
      <stop offset="0.5529411764705883" stop-color="#ffffff" stop-opacity="0.77254903"/>
      <stop offset="1.0" stop-color="#ccf0ff" stop-opacity="0.0"/>
    </radialGradient>
    <radialGradient cx="0" cy="0" gradientTransform="matrix(0.0, 0.0137, -0.0061, 0.0, 69.65, -2.7)" gradientUnits="userSpaceOnUse" id="gradient7" r="819.2" spreadMethod="pad">
      <stop offset="0.17647058823529413" stop-color="#ffffff"/>
      <stop offset="0.5529411764705883" stop-color="#ffffff" stop-opacity="0.77254903"/>
      <stop offset="1.0" stop-color="#ccf0ff" stop-opacity="0.0"/>
    </radialGradient>
  </defs>
</svg>
