<?xml version="1.0" encoding="UTF-8" standalone="no"?>
<svg xmlns:ffdec="https://www.free-decompiler.com/flash" xmlns:xlink="http://www.w3.org/1999/xlink" ffdec:objectType="shape" height="15.15px" width="14.1px" xmlns="http://www.w3.org/2000/svg">
  <g transform="matrix(1.0, 0.0, 0.0, 1.0, 4.1, 7.6)">
    <path d="M-2.9 -3.2 L-1.95 -3.2 -1.95 2.85 -2.9 2.85 -2.9 -3.2" fill="#666666" fill-rule="evenodd" stroke="none"/>
    <path d="M5.2 0.2 L3.9 -0.3 3.9 -1.55 5.2 -2.0 5.2 0.2" fill="#2b2b2b" fill-rule="evenodd" stroke="none"/>
    <path d="M7.95 -2.45 L7.9 -6.75 Q9.0 -6.65 9.5 -6.15 L9.5 -5.5 9.5 -5.1 9.5 -3.95 9.5 -3.1 7.95 -2.45" fill="#626262" fill-rule="evenodd" stroke="none"/>
    <path d="M3.35 -2.7 L3.35 -4.2 4.95 -4.2 3.35 -4.2 3.35 -2.7 M3.35 -5.65 L3.35 -4.2 1.75 -4.2 3.35 -4.2 3.35 -5.65 M5.2 -2.0 L3.9 -1.55 3.9 -0.3 5.2 0.2 3.55 2.1 3.5 4.95 1.1 5.5 -1.45 5.1 Q-3.35 4.15 -3.6 2.85 L-2.9 2.85 -1.95 2.85 Q1.95 3.75 1.9 -0.1 L0.45 -3.2 -1.95 -3.2 -2.9 -3.2 -3.6 -3.2 Q-2.75 -5.95 -2.0 -6.8 0.0 -7.4 7.9 -6.75 L7.95 -2.45 5.2 -2.0" fill="#eeeeee" fill-rule="evenodd" stroke="none"/>
    <path d="M1.1 5.5 L3.5 4.95 3.55 2.1 5.2 0.2 6.8 2.2 6.0 4.95 4.75 4.95 3.8 7.05 1.3 7.0 1.1 5.5" fill="#00ff00" fill-opacity="0.3019608" fill-rule="evenodd" stroke="none"/>
    <path d="M7.95 -2.45 L9.5 -3.1 9.5 -3.95 9.5 -5.1 9.5 -5.5 9.5 -6.15 Q9.0 -6.65 7.9 -6.75 M-2.9 -3.2 L-2.9 2.85 M-1.95 2.85 L-1.95 -3.2" fill="none" stroke="#595959" stroke-linecap="round" stroke-linejoin="round" stroke-width="1.0"/>
    <path d="M5.2 0.2 L5.2 -2.0" fill="none" stroke="#2b2b2b" stroke-linecap="round" stroke-linejoin="round" stroke-width="1.0"/>
    <path d="M5.2 0.2 L3.9 -0.3 3.9 -1.55 5.2 -2.0 7.95 -2.45 7.9 -6.75 Q0.0 -7.4 -2.0 -6.8 -2.75 -5.95 -3.6 -3.2 L-2.9 -3.2 -1.95 -3.2 0.45 -3.2 1.9 -0.1 Q1.95 3.75 -1.95 2.85 L-2.9 2.85 -3.6 2.85 Q-3.35 4.15 -1.45 5.1 L1.1 5.5" fill="none" stroke="#9d9d9d" stroke-linecap="round" stroke-linejoin="round" stroke-width="1.0"/>
    <path d="M1.75 -4.2 L3.35 -4.2 3.35 -5.65 M4.95 -4.2 L3.35 -4.2 3.35 -2.7" fill="none" stroke="#ff0000" stroke-linecap="round" stroke-linejoin="round" stroke-width="2.0"/>
    <path d="M1.1 5.5 L1.3 7.0 3.8 7.05 4.75 4.95 6.0 4.95 6.8 2.2 5.2 0.2" fill="none" stroke="#000000" stroke-linecap="round" stroke-linejoin="round" stroke-opacity="0.5019608" stroke-width="1.0"/>
    <path d="M1.1 5.5 L3.5 4.95 3.55 2.1 5.2 0.2" fill="none" stroke="#6a6a6a" stroke-linecap="round" stroke-linejoin="round" stroke-width="1.0"/>
  </g>
</svg>
