<?xml version="1.0" encoding="UTF-8" standalone="no"?>
<svg xmlns:ffdec="https://www.free-decompiler.com/flash" xmlns:xlink="http://www.w3.org/1999/xlink" ffdec:objectType="shape" height="21.0px" width="36.4px" xmlns="http://www.w3.org/2000/svg">
  <g transform="matrix(1.0, 0.0, 0.0, 1.0, 35.6, 10.5)">
    <path d="M-31.7 -3.55 Q-28.3 -3.05 -27.3 -1.5 L-10.5 -4.8 Q-10.8 -6.3 -11.65 -7.6 L-12.35 -8.65 -10.05 -9.1 -8.85 -2.4 -29.8 1.3 -30.3 -0.1 -31.7 -3.55" fill="#757e8a" fill-rule="evenodd" stroke="none"/>
    <path d="M-30.3 -0.1 L-31.7 -3.55" fill="none" stroke="#e30e14" stroke-linecap="round" stroke-linejoin="round" stroke-width="1.0"/>
    <path d="M-12.35 -8.65 L-10.05 -9.1 -8.85 -2.4 -29.8 1.3 -30.3 -0.1" fill="none" stroke="#2d3339" stroke-linecap="round" stroke-linejoin="round" stroke-width="1.0"/>
    <path d="M-31.7 -3.55 L-33.8 -3.65 -34.7 -3.6 -35.1 -5.95 -13.6 -10.0 -12.35 -8.65 -11.65 -7.6 Q-10.8 -6.3 -10.5 -4.8 L-27.3 -1.5 Q-28.3 -3.05 -31.7 -3.55" fill="#becdd1" fill-rule="evenodd" stroke="none"/>
    <path d="M-31.7 -3.55 Q-28.3 -3.05 -27.3 -1.5 L-10.5 -4.8 Q-10.8 -6.3 -11.65 -7.6 L-12.35 -8.65 -13.6 -10.0 -35.1 -5.95 -34.7 -3.6 -33.8 -3.65 -31.7 -3.55 Z" fill="none" stroke="#4f5a64" stroke-linecap="round" stroke-linejoin="round" stroke-width="1.0"/>
    <path d="M-2.35 -3.45 L-2.35 -5.2 0.3 -5.2 0.3 10.0 -2.35 10.0 -2.35 7.9 -2.35 5.8 -2.35 -1.35 -2.35 -3.45" fill="#becdd1" fill-rule="evenodd" stroke="none"/>
    <path d="M-2.35 5.8 L-5.2 4.0 -5.2 0.0 -2.35 -1.35 -2.35 5.8" fill="#757e8a" fill-rule="evenodd" stroke="none"/>
    <path d="M-2.35 -3.45 L-2.35 -5.2 0.3 -5.2 0.3 10.0 -2.35 10.0 -2.35 7.9 -2.35 5.8 -2.35 -1.35 -2.35 -3.45" fill="none" stroke="#4f5a64" stroke-linecap="round" stroke-linejoin="round" stroke-width="1.0"/>
    <path d="M-2.35 -3.45 L-3.55 -3.45 M-2.35 7.9 L-3.55 7.9 M-2.35 5.8 L-5.2 4.0 -5.2 0.0 -2.35 -1.35" fill="none" stroke="#2d3339" stroke-linecap="round" stroke-linejoin="round" stroke-width="1.0"/>
  </g>
</svg>
