<?xml version="1.0" encoding="UTF-8" standalone="no"?>
<svg xmlns:ffdec="https://www.free-decompiler.com/flash" xmlns:xlink="http://www.w3.org/1999/xlink" ffdec:objectType="shape" height="30.0px" width="30.0px" xmlns="http://www.w3.org/2000/svg">
  <g transform="matrix(1.0, 0.0, 0.0, 1.0, 15.0, 15.0)">
    <path d="M1.75 -1.75 Q2.5 -1.0 2.5 0.0 2.5 1.0 1.75 1.75 1.0 2.5 0.0 2.5 -1.0 2.5 -1.75 1.75 -2.5 1.0 -2.5 0.0 -2.5 -1.0 -1.75 -1.75 -1.0 -2.5 0.0 -2.5 1.0 -2.5 1.75 -1.75" fill="#ffffff" fill-rule="evenodd" stroke="none"/>
    <path d="M1.75 -1.75 Q2.5 -1.0 2.5 0.0 2.5 1.0 1.75 1.75 1.0 2.5 0.0 2.5 -1.0 2.5 -1.75 1.75 -2.5 1.0 -2.5 0.0 -2.5 -1.0 -1.75 -1.75 -1.0 -2.5 0.0 -2.5 1.0 -2.5 1.75 -1.75 Z" fill="none" stroke="#3c9dff" stroke-linecap="round" stroke-linejoin="round" stroke-width="1.0"/>
    <path d="M10.6 -10.65 Q15.0 -6.25 15.0 0.0 15.0 6.2 10.6 10.55 6.25 15.0 0.0 15.0 -6.2 15.0 -10.65 10.55 -15.0 6.2 -15.0 0.0 -15.0 -6.25 -10.65 -10.65 -6.2 -15.0 0.0 -15.0 6.25 -15.0 10.6 -10.65" fill="url(#gradient0)" fill-rule="evenodd" stroke="none"/>
  </g>
  <defs>
    <radialGradient cx="0" cy="0" gradientTransform="matrix(0.0178, 0.0, 0.0, 0.0178, 0.0, 0.0)" gradientUnits="userSpaceOnUse" id="gradient0" r="819.2" spreadMethod="pad">
      <stop offset="0.0" stop-color="#ffffff" stop-opacity="0.4"/>
      <stop offset="1.0" stop-color="#ffffff" stop-opacity="0.0"/>
    </radialGradient>
  </defs>
</svg>
