<?xml version="1.0" encoding="UTF-8" standalone="no"?>
<svg xmlns:ffdec="https://www.free-decompiler.com/flash" xmlns:xlink="http://www.w3.org/1999/xlink" ffdec:objectType="shape" height="33.5px" width="33.5px" xmlns="http://www.w3.org/2000/svg">
  <g transform="matrix(1.0, 0.0, 0.0, 1.0, 16.75, 16.75)">
    <path d="M2.85 -2.85 Q4.0 -1.65 4.0 0.0 4.0 1.6 2.85 2.8 1.65 3.95 0.0 4.0 -1.6 3.95 -2.8 2.8 -4.0 1.6 -4.0 0.0 -4.0 -1.65 -2.8 -2.85 -1.6 -4.05 0.0 -4.0 1.65 -4.05 2.85 -2.85" fill="#1a1a1a" fill-rule="evenodd" stroke="none"/>
    <path d="M2.85 -2.85 Q1.65 -4.05 0.0 -4.0 -1.6 -4.05 -2.8 -2.85 -4.0 -1.65 -4.0 0.0 -4.0 1.6 -2.8 2.8 -1.6 3.95 0.0 4.0 1.65 3.95 2.85 2.8 4.0 1.6 4.0 0.0 4.0 -1.65 2.85 -2.85 M7.05 -7.1 Q10.0 -4.15 10.0 0.0 10.0 4.15 7.05 7.05 4.15 10.0 0.0 10.0 -4.15 10.0 -7.1 7.05 -10.0 4.15 -10.0 0.0 -10.0 -4.15 -7.1 -7.1 -4.15 -10.0 0.0 -10.0 4.15 -10.0 7.05 -7.1" fill="url(#gradient0)" fill-rule="evenodd" stroke="none"/>
    <path d="M7.05 -7.1 Q4.15 -10.0 0.0 -10.0 -4.15 -10.0 -7.1 -7.1 -10.0 -4.15 -10.0 0.0 -10.0 4.15 -7.1 7.05 -4.15 10.0 0.0 10.0 4.15 10.0 7.05 7.05 10.0 4.15 10.0 0.0 10.0 -4.15 7.05 -7.1 M10.6 -10.6 Q15.0 -6.2 15.0 0.0 15.0 6.2 10.6 10.6 6.2 15.0 0.0 15.0 -6.2 15.0 -10.6 10.6 -15.0 6.2 -15.0 0.0 -15.0 -6.2 -10.6 -10.6 -6.2 -15.0 0.0 -15.0 6.2 -15.0 10.6 -10.6" fill="url(#gradient1)" fill-rule="evenodd" stroke="none"/>
    <path d="M2.85 -2.85 Q4.0 -1.65 4.0 0.0 4.0 1.6 2.85 2.8 1.65 3.95 0.0 4.0 -1.6 3.95 -2.8 2.8 -4.0 1.6 -4.0 0.0 -4.0 -1.65 -2.8 -2.85 -1.6 -4.05 0.0 -4.0 1.65 -4.05 2.85 -2.85" fill="none" stroke="#000000" stroke-linecap="round" stroke-linejoin="round" stroke-width="1.0"/>
    <path d="M7.05 -7.1 Q10.0 -4.15 10.0 0.0 10.0 4.15 7.05 7.05 4.15 10.0 0.0 10.0 -4.15 10.0 -7.1 7.05 -10.0 4.15 -10.0 0.0 -10.0 -4.15 -7.1 -7.1 -4.15 -10.0 0.0 -10.0 4.15 -10.0 7.05 -7.1" fill="none" stroke="#331900" stroke-linecap="round" stroke-linejoin="round" stroke-width="1.0"/>
    <path d="M10.6 -10.6 Q15.0 -6.2 15.0 0.0 15.0 6.2 10.6 10.6 6.2 15.0 0.0 15.0 -6.2 15.0 -10.6 10.6 -15.0 6.2 -15.0 0.0 -15.0 -6.2 -10.6 -10.6 -6.2 -15.0 0.0 -15.0 6.2 -15.0 10.6 -10.6 Z" fill="none" stroke="#331900" stroke-linecap="round" stroke-linejoin="round" stroke-width="1.5"/>
    <path d="M9.9 -12.7 L12.7 -9.9 M4.5 -15.45 L8.2 -13.85 M14.1 -7.75 L15.6 -4.05 M12.7 9.9 L9.9 12.7 M15.45 4.5 L13.85 8.2 M7.75 14.1 L4.05 15.6 M16.0 -2.0 L16.0 2.0 M-9.9 -12.7 L-12.7 -9.9 M-13.85 -8.2 L-15.45 -4.5 M-4.05 -15.6 L-7.75 -14.1 M-12.7 9.9 L-9.9 12.7 M-8.2 13.85 L-4.5 15.45 M-15.6 4.05 L-14.1 7.75 M-16.0 -2.0 L-16.0 2.0 M-2.0 -16.0 L2.0 -16.0 M-2.0 16.0 L2.0 16.0" fill="none" stroke="#331900" stroke-linecap="round" stroke-linejoin="round" stroke-width="1.5"/>
  </g>
  <defs>
    <radialGradient cx="0" cy="0" gradientTransform="matrix(0.0125, 0.0, 0.0, 0.0125, 0.15, 0.0)" gradientUnits="userSpaceOnUse" id="gradient0" r="819.2" spreadMethod="pad">
      <stop offset="0.6588235294117647" stop-color="#6f6f6f"/>
      <stop offset="1.0" stop-color="#3f3f3f"/>
    </radialGradient>
    <radialGradient cx="0" cy="0" gradientTransform="matrix(0.0184, 0.0, 0.0, 0.0184, 0.0, 0.0)" gradientUnits="userSpaceOnUse" id="gradient1" r="819.2" spreadMethod="pad">
      <stop offset="0.6588235294117647" stop-color="#664d32"/>
      <stop offset="0.9098039215686274" stop-color="#795836"/>
      <stop offset="1.0" stop-color="#3c2b1a"/>
    </radialGradient>
  </defs>
</svg>
