<?xml version="1.0" encoding="UTF-8" standalone="no"?>
<svg xmlns:ffdec="https://www.free-decompiler.com/flash" xmlns:xlink="http://www.w3.org/1999/xlink" ffdec:objectType="shape" height="16.0px" width="52.05px" xmlns="http://www.w3.org/2000/svg">
  <g transform="matrix(1.0, 0.0, 0.0, 1.0, 17.0, 7.05)">
    <path d="M30.4 -1.75 L20.65 -0.6 30.4 -1.75 M22.75 -5.25 L34.55 -5.4 32.75 -2.1 33.25 -0.15 18.35 1.5 18.5 -1.35 22.7 -4.0 22.75 -5.25" fill="#b2b2b2" fill-rule="evenodd" stroke="none"/>
    <path d="M-4.6 -5.2 L-6.4 -3.2 -14.85 -3.0 -13.9 -4.9 -10.25 -6.1 -6.15 -6.05 -4.6 -5.2" fill="#807349" fill-rule="evenodd" stroke="none"/>
    <path d="M18.35 1.5 L33.25 -0.15 32.75 -2.1 34.55 -5.4 22.75 -5.25" fill="none" stroke="#848484" stroke-linecap="round" stroke-linejoin="round" stroke-width="1.0"/>
    <path d="M20.65 -0.6 L30.4 -1.75" fill="none" stroke="#4c4c4c" stroke-linecap="round" stroke-linejoin="round" stroke-width="1.0"/>
    <path d="M-14.85 -3.0 L-13.9 -4.9 -10.25 -6.1 -6.15 -6.05 -4.6 -5.2" fill="none" stroke="#38311f" stroke-linecap="round" stroke-linejoin="round" stroke-width="1.0"/>
    <path d="M-6.1 8.05 Q-1.5 9.5 0.55 5.4" fill="none" stroke="#151515" stroke-linecap="round" stroke-linejoin="round" stroke-width="1.0"/>
    <path d="M18.5 -1.2 L14.8 -3.0 15.0 -6.3 22.75 -6.25 22.75 -5.25 22.7 -4.0 18.5 -1.35 18.5 -1.2" fill="#635f46" fill-rule="evenodd" stroke="none"/>
    <path d="M14.8 -3.0 L18.5 -1.2 18.35 1.5 15.2 2.6 12.75 2.65 12.65 1.3 11.15 0.25 9.3 1.55 6.0 0.1 10.55 -2.95 10.55 -3.0 14.8 -3.0" fill="#544e34" fill-rule="evenodd" stroke="none"/>
    <path d="M6.0 0.1 L9.3 1.55 6.25 3.6 6.1 5.85 4.25 7.05 2.0 7.05 0.55 5.4 0.5 3.65 -2.2 3.5 -2.7 3.5 Q-5.35 3.55 -6.4 2.75 L-7.15 2.75 -2.55 -2.1 -5.3 -4.35 -4.6 -5.2 -3.9 -6.25 -1.3 -6.55 0.35 -4.9 4.0 -3.75 3.9 -0.05 4.6 1.0 6.0 0.1 M1.85 -1.2 L-2.7 3.5 1.85 -1.2" fill="#554d38" fill-rule="evenodd" stroke="none"/>
    <path d="M-12.95 3.15 L-14.25 3.25 -16.5 1.5 -15.85 -2.85 -14.85 -3.0 -12.4 -3.05 -13.9 -0.55 -12.95 3.15" fill="#544d3a" fill-rule="evenodd" stroke="none"/>
    <path d="M-7.15 2.75 L-9.05 2.75 -10.3 4.55 -12.95 3.15 -13.9 -0.55 -12.4 -3.05 -6.4 -3.2 -5.3 -4.35 -2.55 -2.1 -7.15 2.75 M-8.0 -1.6 L-11.3 -1.6 -11.3 0.9 -10.25 0.9 -11.3 0.9 -11.3 -1.6 -8.0 -1.6 M-8.9 1.5 L-8.9 -0.3 -9.9 -0.3 -8.9 -0.3 -8.9 1.5" fill="#625e45" fill-rule="evenodd" stroke="none"/>
    <path d="M14.8 -3.0 L18.5 -1.2 M14.8 -3.0 L10.55 -3.0" fill="none" stroke="#332d1d" stroke-linecap="round" stroke-linejoin="round" stroke-width="1.0"/>
    <path d="M18.5 -1.2 L18.5 -1.35 22.7 -4.0 22.75 -5.25 22.75 -6.25 15.0 -6.3 14.8 -3.0 M12.75 2.65 L15.2 2.6 18.35 1.5 18.5 -1.2 M6.1 5.85 L4.25 7.05 2.0 7.05 0.55 5.4 0.5 3.65 -2.2 3.5 M-6.4 2.75 L-7.15 2.75 -9.05 2.75 -10.3 4.55 -12.95 3.15 -14.25 3.25 -16.5 1.5 -15.85 -2.85 -14.85 -3.0 -12.4 -3.05 -6.4 -3.2 -5.3 -4.35 -4.6 -5.2 -3.9 -6.25 -1.3 -6.55 M-12.95 3.15 L-13.9 -0.55 -12.4 -3.05" fill="none" stroke="#262217" stroke-linecap="round" stroke-linejoin="round" stroke-width="1.0"/>
    <path d="M6.0 0.1 L9.3 1.55 M-9.9 -0.3 L-8.9 -0.3 -8.9 1.5 M-10.25 0.9 L-11.3 0.9 -11.3 -1.6 -8.0 -1.6" fill="none" stroke="#393420" stroke-linecap="round" stroke-linejoin="round" stroke-width="1.0"/>
    <path d="M-5.3 -4.35 L-2.55 -2.1 -7.15 2.75" fill="none" stroke="#342f1c" stroke-linecap="round" stroke-linejoin="round" stroke-width="1.0"/>
    <path d="M-2.2 3.5 L-2.7 3.5" fill="none" stroke="#151515" stroke-linecap="round" stroke-linejoin="round" stroke-width="1.0"/>
    <path d="M-2.7 3.5 L1.85 -1.2" fill="none" stroke="#3d301f" stroke-linecap="round" stroke-linejoin="round" stroke-width="1.0"/>
    <path d="M-2.7 3.5 L-2.2 3.5 -6.1 8.05 -8.4 6.8 -6.4 2.75 Q-5.35 3.55 -2.7 3.5" fill="#1f1f1f" fill-rule="evenodd" stroke="none"/>
    <path d="M-6.4 2.75 L-8.4 6.8 -6.1 8.05 -2.2 3.5 -2.7 3.5 Q-4.95 3.45 -5.9 2.75" fill="none" stroke="#151515" stroke-linecap="round" stroke-linejoin="round" stroke-width="1.0"/>
    <path d="M6.25 3.6 L11.15 0.25 12.65 1.3 12.75 2.65 12.65 3.55 7.65 6.55 6.1 5.85 6.25 3.6" fill="#81714f" fill-rule="evenodd" stroke="none"/>
    <path d="M6.25 3.6 L11.15 0.25 12.65 1.3 12.75 2.65 12.65 3.55 7.65 6.55 6.1 5.85 6.25 3.6 Z" fill="none" stroke="#262217" stroke-linecap="round" stroke-linejoin="round" stroke-width="1.0"/>
  </g>
</svg>
