<?xml version="1.0" encoding="UTF-8" standalone="no"?>
<svg xmlns:ffdec="https://www.free-decompiler.com/flash" xmlns:xlink="http://www.w3.org/1999/xlink" ffdec:objectType="shape" height="6.9px" width="6.9px" xmlns="http://www.w3.org/2000/svg">
  <g transform="matrix(1.0, 0.0, 0.0, 1.0, 3.45, 3.45)">
    <path d="M2.05 -2.1 Q2.95 -1.2 2.95 0.0 2.95 1.2 2.05 2.05 1.2 2.95 0.0 2.95 -1.2 2.95 -2.1 2.05 -2.95 1.2 -2.95 0.0 -2.95 -1.2 -2.1 -2.1 -1.2 -2.95 0.0 -2.95 1.2 -2.95 2.05 -2.1" fill="#63b8b1" fill-rule="evenodd" stroke="none"/>
    <path d="M2.05 -2.1 Q2.95 -1.2 2.95 0.0 2.95 1.2 2.05 2.05 1.2 2.95 0.0 2.95 -1.2 2.95 -2.1 2.05 -2.95 1.2 -2.95 0.0 -2.95 -1.2 -2.1 -2.1 -1.2 -2.95 0.0 -2.95 1.2 -2.95 2.05 -2.1 Z" fill="none" stroke="#285654" stroke-linecap="round" stroke-linejoin="round" stroke-width="1.0"/>
  </g>
</svg>
