<?xml version="1.0" encoding="UTF-8" standalone="no"?>
<svg xmlns:ffdec="https://www.free-decompiler.com/flash" xmlns:xlink="http://www.w3.org/1999/xlink" ffdec:objectType="shape" height="33.5px" width="109.4px" xmlns="http://www.w3.org/2000/svg">
  <g transform="matrix(1.0, 0.0, 0.0, 1.0, 70.85, 17.45)">
    <path d="M33.65 -12.55 Q38.55 -7.65 38.55 -0.7 38.55 6.25 33.65 11.15 28.75 16.05 21.8 16.05 14.85 16.05 9.95 11.15 5.05 6.25 5.05 -0.7 5.05 -7.65 9.95 -12.55 14.85 -17.45 21.8 -17.45 28.75 -17.45 33.65 -12.55" fill="url(#gradient0)" fill-rule="evenodd" stroke="none"/>
    <path d="M-42.25 -12.55 Q-37.35 -7.65 -37.35 -0.7 -37.35 6.25 -42.25 11.15 -47.15 16.05 -54.1 16.05 -61.05 16.05 -65.95 11.15 -70.85 6.25 -70.85 -0.7 -70.85 -7.65 -65.95 -12.55 -61.05 -17.45 -54.1 -17.45 -47.15 -17.45 -42.25 -12.55" fill="url(#gradient1)" fill-rule="evenodd" stroke="none"/>
  </g>
  <defs>
    <radialGradient cx="0" cy="0" gradientTransform="matrix(0.0211, 0.0, 0.0, 0.0211, 21.8, -0.7)" gradientUnits="userSpaceOnUse" id="gradient0" r="819.2" spreadMethod="pad">
      <stop offset="0.44313725490196076" stop-color="#ffffff"/>
      <stop offset="1.0" stop-color="#fee595" stop-opacity="0.0"/>
    </radialGradient>
    <radialGradient cx="0" cy="0" gradientTransform="matrix(0.0211, 0.0, 0.0, 0.0211, -54.1, -0.7)" gradientUnits="userSpaceOnUse" id="gradient1" r="819.2" spreadMethod="pad">
      <stop offset="0.44313725490196076" stop-color="#ffffff"/>
      <stop offset="1.0" stop-color="#fee595" stop-opacity="0.0"/>
    </radialGradient>
  </defs>
</svg>
