<?xml version="1.0" encoding="UTF-8" standalone="no"?>
<svg xmlns:ffdec="https://www.free-decompiler.com/flash" xmlns:xlink="http://www.w3.org/1999/xlink" ffdec:objectType="shape" height="22.2px" width="77.4px" xmlns="http://www.w3.org/2000/svg">
  <g transform="matrix(1.0, 0.0, 0.0, 1.0, 11.15, 11.4)">
    <path d="M24.45 -6.7 L24.45 -1.6 Q23.0 -1.2 23.0 -4.35 L23.0 -6.7 24.45 -6.7 M25.1 -6.7 L26.3 -6.7 Q25.8 -1.85 25.1 -1.8 L25.1 -6.7" fill="#454d42" fill-rule="evenodd" stroke="none"/>
    <path d="M-0.5 -7.15 Q-0.15 -4.65 2.45 -2.9 L-1.9 -3.9 -3.35 -5.25 -2.25 -7.1 -0.5 -7.15" fill="#3b423a" fill-rule="evenodd" stroke="none"/>
    <path d="M3.9 1.45 Q6.65 0.9 7.85 -0.4 L6.45 1.55 3.95 1.45 3.9 1.45 M-3.1 1.45 L-5.1 -0.7 Q-0.7 1.05 3.85 1.45 L-3.1 1.45" fill="#3c433b" fill-rule="evenodd" stroke="none"/>
    <path d="M25.55 1.3 L25.2 3.05 17.05 2.95 15.7 2.2 17.25 1.25 25.55 1.3" fill="#4b4b4b" fill-rule="evenodd" stroke="none"/>
    <path d="M27.3 -7.95 L31.15 -7.95 33.3 -6.55 35.9 -4.85 64.0 -4.85 65.65 -4.85 Q64.8 -0.85 60.75 1.4 L34.25 1.4 34.75 0.85 29.6 -0.65 26.2 -0.7 27.3 -3.6 27.3 -7.95 M32.65 -2.3 L29.15 -4.8 32.65 -2.3 M33.4 -3.9 L29.9 -6.4 33.4 -3.9" fill="#2d2d2d" fill-rule="evenodd" stroke="none"/>
    <path d="M27.3 -8.1 L27.3 -7.95 27.3 -3.6 26.2 -0.7 23.7 0.3 22.6 0.3 21.65 -2.6 21.65 -8.1 27.3 -8.1 M24.45 -6.7 L23.0 -6.7 23.0 -4.35 Q23.0 -1.2 24.45 -1.6 L24.45 -6.7 M25.1 -6.7 L25.1 -1.8 Q25.8 -1.85 26.3 -6.7 L25.1 -6.7" fill="#3c4439" fill-rule="evenodd" stroke="none"/>
    <path d="M34.25 1.4 L30.15 4.65 26.85 4.3 22.65 4.3 19.15 4.3 14.1 4.3 14.1 3.75 14.05 1.95 17.2 0.25 22.6 0.3 23.7 0.3 26.2 -0.7 29.6 -0.65 34.75 0.85 34.25 1.4 M25.55 1.3 L17.25 1.25 15.7 2.2 17.05 2.95 25.2 3.05 25.55 1.3" fill="#565656" fill-rule="evenodd" stroke="none"/>
    <path d="M22.65 4.3 L21.65 8.0 15.3 10.2 13.05 9.15 10.75 9.9 6.8 9.9 3.8 7.75 2.55 5.65 3.65 2.95 8.3 2.85 11.25 3.75 13.3 3.75 12.6 4.65 Q11.6 5.9 12.9 6.3 L15.5 7.35 19.15 6.1 19.15 4.3 22.65 4.3 M7.2 4.55 L5.95 5.95 8.05 7.95 10.35 7.85 7.2 4.55" fill="#1f1f1f" fill-rule="evenodd" stroke="none"/>
    <path d="M-3.15 -8.0 Q-5.8 -4.75 -6.65 -1.45 L-8.85 -6.3 -6.9 -8.1 -3.15 -8.0" fill="#1c1c1e" fill-rule="evenodd" stroke="none"/>
    <path d="M33.3 -6.55 L62.9 -6.55 64.0 -4.85 35.9 -4.85 33.3 -6.55" fill="#1c1c1c" fill-rule="evenodd" stroke="none"/>
    <path d="M30.15 4.65 L30.15 8.1 29.55 8.8 27.6 8.8 26.85 7.9 26.85 4.3 30.15 4.65" fill="#1d1d1d" fill-rule="evenodd" stroke="none"/>
    <path d="M2.55 5.65 L-1.55 5.65 Q-2.95 5.4 -3.4 4.4 L-3.95 2.9 -3.65 3.05 3.65 2.95 2.55 5.65" fill="#3a3c39" fill-rule="evenodd" stroke="none"/>
    <path d="M0.2 -8.85 L1.35 -5.85 4.8 -3.4 13.6 -3.0 Q15.2 -5.35 16.05 -8.6 L16.15 -9.2 20.25 -9.0 20.6 -8.75 21.65 -8.1 21.65 -2.6 22.6 0.3 17.2 0.25 14.05 1.95 14.1 3.75 13.3 3.75 11.25 3.75 8.3 2.85 3.65 2.95 -3.65 3.05 -3.95 2.9 -5.5 2.0 -7.05 1.15 -6.65 -1.45 Q-5.8 -4.75 -3.15 -8.0 L-3.0 -8.2 -1.65 -8.95 -1.05 -9.15 0.05 -9.2 0.2 -8.85 M19.85 -0.8 L19.4 -2.5 19.55 -4.75 17.5 -4.85 19.55 -4.75 19.65 -7.5 17.65 -7.5 19.65 -7.5 19.55 -4.75 19.4 -2.5 19.85 -0.8 M3.9 1.45 L3.95 1.45 6.45 1.55 7.85 -0.4 Q6.65 0.9 3.9 1.45 M-0.5 -7.15 L-2.25 -7.1 -3.35 -5.25 -1.9 -3.9 2.45 -2.9 Q-0.15 -4.65 -0.5 -7.15 M-3.1 1.45 L3.85 1.45 Q-0.7 1.05 -5.1 -0.7 L-3.1 1.45" fill="url(#gradient0)" fill-rule="evenodd" stroke="none"/>
    <path d="M16.05 -8.6 L16.15 -9.2 M0.05 -9.2 L0.2 -8.85" fill="none" stroke="#233124" stroke-linecap="round" stroke-linejoin="round" stroke-width="1.0"/>
    <path d="M27.3 -8.1 L27.3 -7.95" fill="none" stroke="#282b22" stroke-linecap="round" stroke-linejoin="round" stroke-width="1.0"/>
    <path d="M20.25 -9.0 L20.6 -8.75 21.65 -8.1" fill="none" stroke="#1e201b" stroke-linecap="round" stroke-linejoin="round" stroke-width="1.0"/>
    <path d="M33.3 -6.55 L62.9 -6.55 64.0 -4.85 M36.2 -7.15 L37.7 -7.15 M55.35 -7.15 L56.85 -7.15 M51.65 -7.15 L53.15 -7.15 M47.6 -7.15 L49.1 -7.15 M43.85 -7.15 L45.35 -7.15 M40.05 -7.15 L41.55 -7.15 M55.35 1.95 L56.85 1.95 M51.65 1.95 L53.15 1.95 M47.6 1.95 L49.1 1.95 M43.85 1.95 L45.35 1.95 M36.2 1.95 L37.7 1.95 M14.1 3.75 L13.3 3.75 M40.05 1.95 L41.55 1.95 M-6.05 -8.55 L-4.55 -8.55 M-3.95 2.9 L-3.65 3.05" fill="none" stroke="#000000" stroke-linecap="round" stroke-linejoin="round" stroke-width="1.0"/>
    <path d="M21.65 -8.1 L21.65 -2.6 22.6 0.3" fill="none" stroke="#1b2019" stroke-linecap="round" stroke-linejoin="round" stroke-width="1.0"/>
    <path d="M20.6 -8.75 L22.75 -10.65 24.95 -10.75 M27.3 -7.95 L31.15 -7.95 33.3 -6.55 35.9 -4.85 64.0 -4.85 65.65 -4.85 Q64.8 -0.85 60.75 1.4 L34.25 1.4 M30.15 4.65 L30.15 8.1 29.55 8.8 27.6 8.8 26.85 7.9 26.85 4.3 M22.65 4.3 L21.65 8.0 15.3 10.2 13.05 9.15 10.75 9.9 6.8 9.9 3.8 7.75 2.55 5.65 -1.55 5.65 Q-2.95 5.4 -3.4 4.4 L-3.95 2.9 -5.5 2.0 -8.2 3.05 Q-9.45 -0.3 -10.55 0.15 M61.0 1.55 L62.15 5.15 64.3 5.05 M13.3 3.75 L12.6 4.65 Q11.6 5.9 12.9 6.3 L15.5 7.35 19.15 6.1 19.15 4.3 M13.3 3.75 L11.25 3.75 8.3 2.85 3.65 2.95 2.55 5.65 M-2.2 -10.8 L-1.55 -9.75 -1.05 -9.15 M-1.55 -9.75 L-1.65 -8.95 M-3.0 -8.2 L-3.15 -8.0 -6.9 -8.1 -8.85 -6.3 -6.65 -1.45 M-7.05 1.15 L-5.5 2.0 M-3.65 3.05 L3.65 2.95" fill="none" stroke="#000000" stroke-linecap="round" stroke-linejoin="round" stroke-width="1.25"/>
    <path d="M7.2 4.55 L10.35 7.85 8.05 7.95 5.95 5.95 7.2 4.55" fill="none" stroke="#030303" stroke-linecap="round" stroke-linejoin="round" stroke-width="1.25"/>
    <path d="M34.25 1.4 L30.15 4.65 26.85 4.3 22.65 4.3 19.15 4.3 14.1 4.3 14.1 3.75 14.05 1.95 17.2 0.25 22.6 0.3 23.7 0.3 26.2 -0.7 29.6 -0.65 34.75 0.85 34.25 1.4" fill="none" stroke="#232323" stroke-linecap="round" stroke-linejoin="round" stroke-width="1.25"/>
    <path d="M29.9 -6.4 L33.4 -3.9 M29.15 -4.8 L32.65 -2.3" fill="none" stroke="#252525" stroke-linecap="round" stroke-linejoin="round" stroke-width="1.25"/>
    <path d="M17.5 -4.85 L19.55 -4.75 19.65 -7.5 17.65 -7.5 M19.55 -4.75 L19.4 -2.5 19.85 -0.8" fill="none" stroke="#3b423a" stroke-linecap="round" stroke-linejoin="round" stroke-width="1.25"/>
    <path d="M16.15 -9.2 L20.25 -9.0 M21.65 -8.1 L27.3 -8.1" fill="none" stroke="#292c25" stroke-linecap="round" stroke-linejoin="round" stroke-width="1.25"/>
    <path d="M-1.05 -9.15 L0.05 -9.2 M-1.65 -8.95 L-1.05 -9.15 M-3.0 -8.2 L-1.65 -8.95" fill="none" stroke="#292e27" stroke-linecap="round" stroke-linejoin="round" stroke-width="1.25"/>
    <path d="M-6.65 -1.45 L-7.05 1.15" fill="none" stroke="#191e17" stroke-linecap="round" stroke-linejoin="round" stroke-width="1.25"/>
    <path d="M27.3 -7.95 L27.3 -3.6 26.2 -0.7" fill="none" stroke="#222720" stroke-linecap="round" stroke-linejoin="round" stroke-width="1.25"/>
    <path d="M-3.15 -8.0 Q-5.8 -4.75 -6.65 -1.45" fill="none" stroke="#11150f" stroke-linecap="round" stroke-linejoin="round" stroke-width="1.25"/>
  </g>
  <defs>
    <radialGradient cx="0" cy="0" gradientTransform="matrix(0.0228, 0.0, 0.0, 0.0228, 8.2, -12.8)" gradientUnits="userSpaceOnUse" id="gradient0" r="819.2" spreadMethod="pad">
      <stop offset="0.403921568627451" stop-color="#556b69"/>
      <stop offset="0.7490196078431373" stop-color="#454c44"/>
    </radialGradient>
  </defs>
</svg>
