<?xml version="1.0" encoding="UTF-8" standalone="no"?>
<svg xmlns:ffdec="https://www.free-decompiler.com/flash" xmlns:xlink="http://www.w3.org/1999/xlink" ffdec:objectType="shape" height="13.45px" width="24.75px" xmlns="http://www.w3.org/2000/svg">
  <g transform="matrix(1.0, 0.0, 0.0, 1.0, 9.1, 5.5)">
    <path d="M11.1 -2.2 Q14.65 0.1 14.65 3.9 14.65 5.85 13.3 6.4 L6.85 6.95 Q-3.0 6.95 -6.4 4.2 -8.1 2.85 -8.1 0.45 -8.1 -2.0 -4.55 -3.4 -1.2 -4.75 3.3 -4.45 8.0 -4.15 11.1 -2.2" fill="#3c0000" fill-rule="evenodd" stroke="none"/>
    <path d="M11.1 -2.2 Q14.65 0.1 14.65 3.9 14.65 5.85 13.3 6.4 L6.85 6.95 Q-3.0 6.95 -6.4 4.2 -8.1 2.85 -8.1 0.45 -8.1 -2.0 -4.55 -3.4 -1.2 -4.75 3.3 -4.45 8.0 -4.15 11.1 -2.2 Z" fill="none" stroke="#000000" stroke-linecap="round" stroke-linejoin="round" stroke-width="2.0"/>
  </g>
</svg>
