<?xml version="1.0" encoding="UTF-8" standalone="no"?>
<svg xmlns:ffdec="https://www.free-decompiler.com/flash" xmlns:xlink="http://www.w3.org/1999/xlink" ffdec:objectType="shape" height="12.55px" width="15.1px" xmlns="http://www.w3.org/2000/svg">
  <g transform="matrix(1.0, 0.0, 0.0, 1.0, 3.55, 11.05)">
    <path d="M10.55 -2.95 L4.6 1.0 3.9 -0.05 4.0 -3.75 0.35 -4.9 -3.05 -8.25 -2.95 -10.45 6.0 -10.55 11.05 -8.4 10.65 -6.35 10.55 -2.95 M8.7 -3.95 L5.8 -2.05 8.7 -3.95" fill="#807152" fill-rule="evenodd" stroke="none"/>
    <path d="M5.8 -2.05 L8.7 -3.95" fill="none" stroke="#372b15" stroke-linecap="round" stroke-linejoin="round" stroke-width="1.0"/>
    <path d="M10.55 -2.95 L4.6 1.0 3.9 -0.05 4.0 -3.75 0.35 -4.9 -3.05 -8.25 -2.95 -10.45 6.0 -10.55 11.05 -8.4 10.65 -6.35 10.55 -2.95 Z" fill="none" stroke="#262217" stroke-linecap="round" stroke-linejoin="round" stroke-width="1.0"/>
  </g>
</svg>
