<?xml version="1.0" encoding="UTF-8" standalone="no"?>
<svg xmlns:ffdec="https://www.free-decompiler.com/flash" xmlns:xlink="http://www.w3.org/1999/xlink" ffdec:objectType="shape" height="13.6px" width="18.65px" xmlns="http://www.w3.org/2000/svg">
  <g transform="matrix(1.0, 0.0, 0.0, 1.0, 9.35, 6.8)">
    <path d="M6.0 -4.05 Q5.45 -1.45 7.75 3.35 10.05 8.1 2.4 3.7 -5.3 -0.75 -6.8 -0.25 -8.35 0.25 -8.35 -3.0 -8.35 -3.55 -5.6 -3.7 -2.9 -3.9 1.8 -5.3 6.5 -6.7 6.0 -4.05" fill="#3c0000" fill-rule="evenodd" stroke="none"/>
    <path d="M6.0 -4.05 Q5.45 -1.45 7.75 3.35 10.05 8.1 2.4 3.7 -5.3 -0.75 -6.8 -0.25 -8.35 0.25 -8.35 -3.0 -8.35 -3.55 -5.6 -3.7 -2.9 -3.9 1.8 -5.3 6.5 -6.7 6.0 -4.05 Z" fill="none" stroke="#000000" stroke-linecap="round" stroke-linejoin="round" stroke-width="2.0"/>
  </g>
</svg>
