<?xml version="1.0" encoding="UTF-8" standalone="no"?>
<svg xmlns:ffdec="https://www.free-decompiler.com/flash" xmlns:xlink="http://www.w3.org/1999/xlink" ffdec:objectType="shape" height="58.0px" width="257.8px" xmlns="http://www.w3.org/2000/svg">
  <g transform="matrix(1.0, 0.0, 0.0, 1.0, 57.8, 29.0)">
    <path d="M-0.1 -29.0 Q11.9 -29.0 20.4 -20.55 28.9 -12.0 28.9 0.0 28.9 12.0 20.4 20.45 11.9 29.0 -0.1 29.0 -12.1 29.0 -20.6 20.45 -29.1 12.0 -29.1 0.0 -29.1 -12.0 -20.6 -20.55 -12.1 -29.0 -0.1 -29.0" fill="url(#gradient0)" fill-rule="evenodd" stroke="none"/>
    <path d="M98.35 -9.1 Q125.2 -5.1 125.2 0.5 125.2 6.05 98.35 10.0 71.55 14.0 33.7 14.0 -4.2 14.0 -31.0 10.0 -57.8 6.05 -57.8 0.5 -57.8 -5.1 -31.0 -9.1 -4.2 -13.0 33.7 -13.0 71.55 -13.0 98.35 -9.1" fill="url(#gradient1)" fill-rule="evenodd" stroke="none"/>
    <path d="M200.0 -1.0 L200.0 1.0 0.0 1.0 0.0 -1.0 200.0 -1.0" fill="url(#gradient2)" fill-rule="evenodd" stroke="none"/>
  </g>
  <defs>
    <radialGradient cx="0" cy="0" gradientTransform="matrix(0.0357, 0.0, 0.0, 0.0357, -0.1, 0.0)" gradientUnits="userSpaceOnUse" id="gradient0" r="819.2" spreadMethod="pad">
      <stop offset="0.0" stop-color="#ffffff" stop-opacity="0.6"/>
      <stop offset="1.0" stop-color="#ffffff" stop-opacity="0.0"/>
    </radialGradient>
    <radialGradient cx="0" cy="0" gradientTransform="matrix(0.1127, 0.0, 0.0, 0.0166, 33.7, 0.5)" gradientUnits="userSpaceOnUse" id="gradient1" r="819.2" spreadMethod="pad">
      <stop offset="0.0" stop-color="#ffffff" stop-opacity="0.5019608"/>
      <stop offset="1.0" stop-color="#ffffff" stop-opacity="0.0"/>
    </radialGradient>
    <linearGradient gradientTransform="matrix(0.1221, 0.0, 0.0, 0.0012, 100.0, 0.0)" gradientUnits="userSpaceOnUse" id="gradient2" spreadMethod="pad" x1="-819.2" x2="819.2">
      <stop offset="0.0" stop-color="#ffffff"/>
      <stop offset="1.0" stop-color="#ffffff" stop-opacity="0.0"/>
    </linearGradient>
  </defs>
</svg>
