<?xml version="1.0" encoding="UTF-8" standalone="no"?>
<svg xmlns:ffdec="https://www.free-decompiler.com/flash" xmlns:xlink="http://www.w3.org/1999/xlink" ffdec:objectType="shape" height="22.65px" width="22.7px" xmlns="http://www.w3.org/2000/svg">
  <g transform="matrix(1.0, 0.0, 0.0, 1.0, 11.35, 11.45)">
    <path d="M-7.2 -7.55 L-4.2 -9.6 3.1 -10.0 7.9 -6.8 6.65 -5.8 6.35 -4.65 7.3 -2.8 6.25 -4.3 5.0 -4.65 4.25 -4.3 2.2 -4.15 1.35 -3.7 1.35 -2.65 1.05 -1.3 1.05 -0.15 2.0 0.9 3.25 0.9 4.25 0.25 4.55 -0.5 6.45 -1.4 5.5 0.05 5.35 1.4 5.75 1.9 7.0 1.75 9.8 0.75 8.2 4.75 7.0 4.3 6.4 3.9 5.75 3.2 4.75 3.2 3.6 2.5 0.3 1.7 -1.2 1.15 -2.45 0.2 -2.45 -0.85 -4.7 -4.05 -4.85 -4.95 -5.5 -5.35 -6.65 -7.0 -6.5 -6.0 -6.15 -5.5 -6.1 -4.6 -7.2 -7.55 M-6.1 -4.55 L-5.0 -1.55 -5.75 -3.05 -6.1 -4.15 -6.1 -4.55 M-3.8 4.9 L-3.8 6.45 -4.6 8.45 -2.9 9.0 -1.1 8.2 0.4 8.6 0.85 9.5 -1.1 10.45 -6.35 8.05 -9.55 3.9 -9.8 1.85 -7.75 1.65 -6.55 2.5 -6.2 3.85 -4.85 4.05 -4.4 4.4 -4.2 4.6 -3.8 4.9" fill="#a9cbea" fill-rule="evenodd" stroke="none"/>
    <path d="M-7.2 -7.55 L-4.2 -9.6 3.1 -10.0 7.9 -6.8 6.65 -5.8 6.35 -4.65 7.3 -2.8 6.25 -4.3 5.0 -4.65 4.25 -4.3 2.2 -4.15 1.35 -3.7 1.35 -2.65 1.05 -1.3 1.05 -0.15 2.0 0.9 3.25 0.9 4.25 0.25 4.55 -0.5 6.45 -1.4 5.5 0.05 5.35 1.4 5.75 1.9 7.0 1.75 9.8 0.75 8.2 4.75 7.0 4.3 6.4 3.9 5.75 3.2 4.75 3.2 3.6 2.5 0.3 1.7 -1.2 1.15 -2.45 0.2 -2.45 -0.85 -4.7 -4.05 -4.85 -4.95 -5.5 -5.35 -6.65 -7.0 -6.5 -6.0 -6.15 -5.5 -6.1 -4.6 -6.1 -4.55 -6.1 -4.15 -5.75 -3.05 -5.0 -1.55 M-3.8 4.9 L-3.8 6.45 -4.6 8.45 -2.9 9.0 -1.1 8.2 0.4 8.6 0.85 9.5 -1.1 10.45 -6.35 8.05 -9.55 3.9 -9.8 1.85 -7.75 1.65 -6.55 2.5 -6.2 3.85 -4.85 4.05 -4.4 4.4 -4.2 4.6 -3.8 4.9 Z" fill="none" stroke="#81a8d4" stroke-linecap="round" stroke-linejoin="round" stroke-width="1.0"/>
    <path d="M7.3 -7.45 Q10.35 -4.4 10.35 -0.15 10.35 4.15 7.3 7.2 4.3 10.2 0.0 10.2 -4.3 10.2 -7.3 7.2 -10.35 4.15 -10.35 -0.15 -10.35 -4.4 -7.3 -7.45 -4.3 -10.45 0.0 -10.45 4.3 -10.45 7.3 -7.45 Z" fill="none" stroke="#81a8d4" stroke-linecap="round" stroke-linejoin="round" stroke-width="2.0"/>
  </g>
</svg>
