<?xml version="1.0" encoding="UTF-8" standalone="no"?>
<svg xmlns:ffdec="https://www.free-decompiler.com/flash" xmlns:xlink="http://www.w3.org/1999/xlink" ffdec:objectType="shape" height="178.0px" width="427.0px" xmlns="http://www.w3.org/2000/svg">
  <g transform="matrix(1.0, 0.0, 0.0, 1.0, 214.0, 174.0)">
    <path d="M202.95 -34.95 L210.0 1.0 172.0 1.0 60.0 1.0 47.25 -38.95 159.0 -21.0 202.95 -34.95 M-60.0 1.0 L-173.0 1.0 -211.0 1.0 -203.95 -34.95 -160.0 -21.0 -45.85 -39.7 -60.0 1.0 M172.0 1.0 L159.0 -21.0 172.0 1.0 M-160.0 -21.0 L-173.0 1.0 -160.0 -21.0" fill="#6f7174" fill-rule="evenodd" stroke="none"/>
    <path d="M85.95 -59.85 L96.0 -57.0 96.9 -58.05 Q118.95 -84.75 123.85 -119.0 125.35 -129.6 125.2 -141.0 L125.0 -147.0 147.0 -147.0 142.0 -132.0 156.0 -59.0 183.95 -50.3 184.1 -50.25 201.0 -45.0 202.95 -34.95 159.0 -21.0 47.25 -38.95 47.25 -39.05 45.0 -46.0 -44.0 -46.0 -45.85 -39.7 -160.0 -21.0 -203.95 -34.95 -202.0 -45.0 -185.1 -50.25 -184.95 -50.3 -157.0 -59.0 -143.0 -132.0 -148.0 -147.0 -126.0 -147.0 -126.2 -141.0 Q-126.35 -129.6 -124.85 -119.0 -122.45 -102.1 -115.25 -86.15 -108.15 -70.5 -97.0 -57.0 L-85.9 -59.75 -50.1 -70.1 -40.0 -73.0 -11.0 -149.0 -24.0 -75.0 -12.0 -62.0 11.0 -62.0 25.0 -73.0 10.0 -149.0 40.0 -73.0 51.0 -69.85 85.95 -59.85 M150.0 -41.0 L118.0 -48.0 150.0 -41.0 M147.0 -33.0 L110.0 -40.0 147.0 -33.0 M-151.0 -41.0 L-119.0 -48.0 -151.0 -41.0 M-148.0 -33.0 L-111.0 -40.0 -148.0 -33.0" fill="#888585" fill-rule="evenodd" stroke="none"/>
    <path d="M60.0 1.0 L-60.0 1.0 -45.85 -39.7 -44.0 -46.0 45.0 -46.0 47.25 -39.05 47.25 -38.95 60.0 1.0 M38.0 -12.0 L31.0 -33.0 38.0 -12.0 M-37.0 -13.0 L-30.0 -35.0 -37.0 -13.0" fill="#a6a9ac" fill-rule="evenodd" stroke="none"/>
    <path d="M74.1 -102.95 L75.95 -107.2 Q81.0 -119.5 83.55 -132.95 L83.75 -134.15 85.45 -144.9 86.0 -148.5 86.0 -148.65 87.0 -157.0 112.0 -171.0 Q114.5 -155.8 114.3 -142.0 L114.3 -141.95 Q114.15 -131.1 112.4 -120.9 110.1 -107.5 104.85 -94.05 L74.1 -102.95 104.85 -94.05 102.85 -89.3 Q99.7 -82.1 96.2 -75.85 91.75 -67.8 85.95 -59.85 L51.0 -69.85 Q60.2 -79.0 67.1 -89.95 71.0 -96.2 74.1 -102.95 M-86.05 -59.95 Q-92.45 -68.7 -97.8 -78.1 -101.15 -84.05 -103.95 -90.2 L-106.4 -95.85 Q-111.6 -108.6 -113.8 -121.0 -115.55 -130.8 -115.55 -140.5 L-115.55 -141.0 Q-115.55 -155.25 -112.0 -170.0 L-86.0 -155.0 Q-86.65 -130.3 -77.3 -107.85 -74.15 -100.3 -69.9 -93.05 -63.95 -83.05 -50.1 -70.1 L-85.9 -59.75 -86.05 -59.95 M96.2 -75.85 L67.1 -89.95 96.2 -75.85 M-69.9 -93.05 L-97.8 -78.1 -69.9 -93.05 M-106.4 -95.85 L-77.3 -107.85 -106.4 -95.85" fill="#494949" fill-rule="evenodd" stroke="none"/>
    <path d="M183.95 -50.3 L156.0 -59.0 142.0 -132.0 147.0 -147.0 162.0 -131.0 183.95 -50.3" fill="url(#gradient0)" fill-rule="evenodd" stroke="none"/>
    <path d="M10.0 -149.0 L25.0 -73.0 11.0 -62.0 -12.0 -62.0 -24.0 -75.0 -11.0 -149.0 10.0 -149.0" fill="url(#gradient1)" fill-rule="evenodd" stroke="none"/>
    <path d="M-184.95 -50.3 L-163.0 -131.0 -148.0 -147.0 -143.0 -132.0 -157.0 -59.0 -184.95 -50.3" fill="url(#gradient2)" fill-rule="evenodd" stroke="none"/>
    <path d="M123.85 -119.0 L112.4 -120.9 M-113.8 -121.0 L-124.05 -119.0 M114.3 -141.95 L125.2 -141.0 M-115.55 -141.0 L-125.2 -141.0" fill="none" stroke="#000000" stroke-linecap="round" stroke-linejoin="round" stroke-width="6.0"/>
    <path d="M96.0 -57.0 L96.9 -58.05 Q118.95 -84.75 123.85 -119.0 125.35 -129.6 125.2 -141.0 L125.0 -147.0 147.0 -147.0 142.0 -132.0 156.0 -59.0 183.95 -50.3 M184.1 -50.25 L201.0 -45.0 202.95 -34.95 210.0 1.0 172.0 1.0 60.0 1.0 M-60.0 1.0 L-173.0 1.0 -211.0 1.0 -203.95 -34.95 -202.0 -45.0 -185.1 -50.25 M-148.0 -147.0 L-126.0 -147.0 -126.2 -141.0 Q-126.35 -129.6 -124.85 -119.0 -122.45 -102.1 -115.25 -86.15 -108.15 -70.5 -97.0 -57.0 M-184.95 -50.3 L-157.0 -59.0 -143.0 -132.0 -148.0 -147.0" fill="none" stroke="#3a3a3a" stroke-linecap="round" stroke-linejoin="round" stroke-width="6.0"/>
    <path d="M104.85 -94.05 Q110.1 -107.5 112.4 -120.9 114.15 -131.1 114.3 -141.95 L114.3 -142.0 Q114.5 -155.8 112.0 -171.0 L87.0 -157.0 86.0 -148.65 86.0 -148.5 85.45 -144.9 83.75 -134.15 83.55 -132.95 Q81.0 -119.5 75.95 -107.2 L74.1 -102.95 104.85 -94.05 102.85 -89.3 Q99.7 -82.1 96.2 -75.85 91.75 -67.8 85.95 -59.85 M-86.05 -59.95 Q-92.45 -68.7 -97.8 -78.1 -101.15 -84.05 -103.95 -90.2 L-106.4 -95.85 Q-111.6 -108.6 -113.8 -121.0 -115.55 -130.8 -115.55 -140.5 L-115.55 -141.0 Q-115.55 -155.25 -112.0 -170.0 L-86.0 -155.0 Q-86.65 -130.3 -77.3 -107.85 -74.15 -100.3 -69.9 -93.05 -63.95 -83.05 -50.1 -70.1 M51.0 -69.85 Q60.2 -79.0 67.1 -89.95 71.0 -96.2 74.1 -102.95 M67.1 -89.95 L96.2 -75.85 M-86.05 -59.95 L-85.9 -59.75 M-77.3 -107.85 L-106.4 -95.85 M-97.8 -78.1 L-69.9 -93.05" fill="none" stroke="#3b3b3b" stroke-linecap="round" stroke-linejoin="round" stroke-width="6.0"/>
    <path d="M-11.0 -149.0 L-24.0 -75.0 -12.0 -62.0 11.0 -62.0 25.0 -73.0 10.0 -149.0" fill="none" stroke="#446e8f" stroke-linecap="round" stroke-linejoin="round" stroke-width="6.0"/>
    <path d="M60.0 1.0 L-60.0 1.0 M31.0 -33.0 L38.0 -12.0 M47.25 -38.95 L47.25 -39.05 45.0 -46.0 -44.0 -46.0 -45.85 -39.7 M-30.0 -35.0 L-37.0 -13.0" fill="none" stroke="#6a6a6a" stroke-linecap="round" stroke-linejoin="round" stroke-width="6.0"/>
    <path d="M110.0 -40.0 L147.0 -33.0 M118.0 -48.0 L150.0 -41.0 M159.0 -21.0 L47.25 -38.95 M202.95 -34.95 L159.0 -21.0 172.0 1.0 M-111.0 -40.0 L-148.0 -33.0 M-119.0 -48.0 L-151.0 -41.0 M-203.95 -34.95 L-160.0 -21.0 -45.85 -39.7 M-173.0 1.0 L-160.0 -21.0" fill="none" stroke="#4d4d4d" stroke-linecap="round" stroke-linejoin="round" stroke-width="6.0"/>
    <path d="M147.0 -147.0 L162.0 -131.0 183.95 -50.3 M-184.95 -50.3 L-163.0 -131.0 -148.0 -147.0" fill="none" stroke="#264366" stroke-linecap="round" stroke-linejoin="round" stroke-width="6.0"/>
    <path d="M85.95 -59.85 L96.0 -57.0 M-97.0 -57.0 L-86.05 -59.95 M10.0 -149.0 L-11.0 -149.0 -40.0 -73.0 -50.1 -70.1 -85.9 -59.75 M51.0 -69.85 L40.0 -73.0 10.0 -149.0 M85.95 -59.85 L51.0 -69.85" fill="none" stroke="#696969" stroke-linecap="round" stroke-linejoin="round" stroke-width="6.0"/>
    <path d="M-45.85 -39.7 L-60.0 1.0 M47.25 -38.95 L60.0 1.0" fill="none" stroke="#5b5b5b" stroke-linecap="round" stroke-linejoin="round" stroke-width="6.0"/>
  </g>
  <defs>
    <linearGradient gradientTransform="matrix(-0.0105, 0.0024, -0.0131, -0.0575, 159.95, -96.5)" gradientUnits="userSpaceOnUse" id="gradient0" spreadMethod="pad" x1="-819.2" x2="819.2">
      <stop offset="0.0" stop-color="#48718c"/>
      <stop offset="0.8470588235294118" stop-color="#81abbc"/>
    </linearGradient>
    <linearGradient gradientTransform="matrix(0.0299, 0.0, 0.0, 0.0531, 0.5, -105.5)" gradientUnits="userSpaceOnUse" id="gradient1" spreadMethod="pad" x1="-819.2" x2="819.2">
      <stop offset="0.0" stop-color="#adcfdc"/>
      <stop offset="0.12156862745098039" stop-color="#8bb2c7"/>
      <stop offset="0.22745098039215686" stop-color="#78a2bc"/>
      <stop offset="0.5058823529411764" stop-color="#6793b1"/>
      <stop offset="0.7529411764705882" stop-color="#7ba4bd"/>
      <stop offset="0.8901960784313725" stop-color="#8db4c8"/>
      <stop offset="1.0" stop-color="#adcfdc"/>
    </linearGradient>
    <linearGradient gradientTransform="matrix(0.0105, 0.0024, 0.0131, -0.0575, -160.95, -96.5)" gradientUnits="userSpaceOnUse" id="gradient2" spreadMethod="pad" x1="-819.2" x2="819.2">
      <stop offset="0.0" stop-color="#48718c"/>
      <stop offset="0.8470588235294118" stop-color="#81abbc"/>
    </linearGradient>
  </defs>
</svg>
