<?xml version="1.0" encoding="UTF-8" standalone="no"?>
<svg xmlns:ffdec="https://www.free-decompiler.com/flash" xmlns:xlink="http://www.w3.org/1999/xlink" ffdec:objectType="shape" height="109.85px" width="70.9px" xmlns="http://www.w3.org/2000/svg">
  <g transform="matrix(1.0, 0.0, 0.0, 1.0, 35.45, 0.45)">
    <path d="M35.0 66.5 L35.0 85.3 -0.05 108.95 -35.0 85.3 -35.0 66.5 -19.55 77.3 -0.05 90.9 19.55 77.25 35.0 66.5" fill="#2b6395" fill-rule="evenodd" stroke="none"/>
    <path d="M4.65 46.75 Q4.15 45.95 3.0 45.55 L1.15 45.3 -3.3 45.25 -3.3 52.6 1.05 52.6 3.3 52.05 Q4.3 51.65 4.75 50.75 L5.2 48.9 Q5.2 47.5 4.65 46.75 M3.4 36.95 Q3.4 36.2 3.0 35.5 2.65 34.75 1.9 34.4 L0.15 34.05 -3.3 34.05 -3.3 40.25 0.25 40.2 1.8 39.8 Q2.75 39.35 3.05 38.65 3.4 37.9 3.4 36.95 M4.6 28.9 Q6.25 29.2 7.75 29.9 9.35 30.8 10.1 32.2 10.85 33.6 10.85 35.5 10.9 37.6 9.8 39.3 8.7 41.0 6.8 41.75 L6.8 41.9 Q9.55 42.5 11.2 44.25 12.8 46.0 12.8 49.0 12.85 51.2 12.0 52.85 11.2 54.5 9.75 55.6 8.1 56.85 6.1 57.4 L1.1 57.95 -10.65 57.95 -10.65 28.6 -0.3 28.6 4.6 28.9 M19.55 57.85 L19.55 77.25 -0.05 90.9 -19.55 77.3 -19.55 57.8 -0.05 70.8 19.55 57.85" fill="#afc4d7" fill-rule="evenodd" stroke="none"/>
    <path d="M4.6 28.9 L-0.3 28.6 -10.65 28.6 -10.65 57.95 1.1 57.95 6.1 57.4 Q8.1 56.85 9.75 55.6 11.2 54.5 12.0 52.85 12.85 51.2 12.8 49.0 12.8 46.0 11.2 44.25 9.55 42.5 6.8 41.9 L6.8 41.75 Q8.7 41.0 9.8 39.3 10.9 37.6 10.85 35.5 10.85 33.6 10.1 32.2 9.35 30.8 7.75 29.9 6.25 29.2 4.6 28.9 M3.4 36.95 Q3.4 37.9 3.05 38.65 2.75 39.35 1.8 39.8 L0.25 40.2 -3.3 40.25 -3.3 34.05 0.15 34.05 1.9 34.4 Q2.65 34.75 3.0 35.5 3.4 36.2 3.4 36.95 M4.65 46.75 Q5.2 47.5 5.2 48.9 L4.75 50.75 Q4.3 51.65 3.3 52.05 L1.05 52.6 -3.3 52.6 -3.3 45.25 1.15 45.3 3.0 45.55 Q4.15 45.95 4.65 46.75 M-19.55 0.0 L19.55 0.0 19.55 57.85 -0.05 70.8 -19.55 57.8 -19.55 0.0" fill="url(#gradient0)" fill-rule="evenodd" stroke="none"/>
    <path d="M19.55 0.0 L35.0 0.0 35.0 66.5 19.55 77.25 19.55 57.85 19.55 0.0 M-35.0 66.5 L-35.0 0.0 -19.55 0.0 -19.55 57.8 -19.55 77.3 -35.0 66.5" fill="url(#gradient1)" fill-rule="evenodd" stroke="none"/>
    <path d="M19.55 0.0 L35.0 0.0 35.0 66.5 35.0 85.3 -0.05 108.95 -35.0 85.3 -35.0 66.5 -35.0 0.0 -19.55 0.0 19.55 0.0 Z" ffdec:has-small-stroke="true" ffdec:original-stroke-width="0.9" fill="none" stroke="#193a57" stroke-linecap="round" stroke-linejoin="round" stroke-width="1.0"/>
  </g>
  <defs>
    <linearGradient gradientTransform="matrix(0.0, -0.0213, 0.0213, 0.0, -0.05, 18.35)" gradientUnits="userSpaceOnUse" id="gradient0" spreadMethod="pad" x1="-819.2" x2="819.2">
      <stop offset="0.0" stop-color="#173550"/>
      <stop offset="1.0" stop-color="#265885"/>
    </linearGradient>
    <linearGradient gradientTransform="matrix(0.0, -0.0228, 0.0228, 0.0, -0.05, 20.1)" gradientUnits="userSpaceOnUse" id="gradient1" spreadMethod="pad" x1="-819.2" x2="819.2">
      <stop offset="0.0" stop-color="#1f476c"/>
      <stop offset="1.0" stop-color="#2b6395"/>
    </linearGradient>
  </defs>
</svg>
