<?xml version="1.0" encoding="UTF-8" standalone="no"?>
<svg xmlns:ffdec="https://www.free-decompiler.com/flash" xmlns:xlink="http://www.w3.org/1999/xlink" ffdec:objectType="shape" height="109.8px" width="70.9px" xmlns="http://www.w3.org/2000/svg">
  <g transform="matrix(1.0, 0.0, 0.0, 1.0, 35.45, 0.45)">
    <path d="M19.55 36.45 L19.55 46.7 0.0 60.45 -19.55 46.7 -19.55 36.45 0.0 49.5 19.55 36.45 M19.55 57.8 L19.55 77.25 0.0 90.9 -19.55 77.25 -19.55 57.8 0.0 70.8 19.55 57.8 M7.7 35.1 L0.0 40.1 -7.7 35.1 0.0 30.15 7.7 35.1" fill="#c3c3c3" fill-rule="evenodd" stroke="none"/>
    <path d="M19.55 77.25 L35.0 66.5 35.0 85.3 0.0 108.9 -35.0 85.3 -35.0 66.5 -19.55 77.25 0.0 90.9 19.55 77.25" fill="#606060" fill-rule="evenodd" stroke="none"/>
    <path d="M19.55 46.7 L19.55 36.45 19.55 0.0 35.0 0.0 35.0 66.5 19.55 77.25 19.55 57.8 19.55 46.7 M-19.55 36.45 L-19.55 46.7 -19.55 57.8 -19.55 77.25 -35.0 66.5 -35.0 0.0 -19.55 0.0 -19.55 36.45" fill="url(#gradient0)" fill-rule="evenodd" stroke="none"/>
    <path d="M19.55 46.7 L19.55 57.8 0.0 70.8 -19.55 57.8 -19.55 46.7 0.0 60.45 19.55 46.7 M19.55 0.0 L19.55 36.45 0.0 49.5 -19.55 36.45 -19.55 0.0 19.55 0.0 M7.7 35.1 L0.0 30.15 -7.7 35.1 0.0 40.1 7.7 35.1" fill="url(#gradient1)" fill-rule="evenodd" stroke="none"/>
    <path d="M35.0 66.5 L35.0 0.0 19.55 0.0 -19.55 0.0 -35.0 0.0 -35.0 66.5 -35.0 85.3 0.0 108.9 35.0 85.3 35.0 66.5 Z" ffdec:has-small-stroke="true" ffdec:original-stroke-width="0.9" fill="none" stroke="#383838" stroke-linecap="round" stroke-linejoin="round" stroke-width="1.0"/>
  </g>
  <defs>
    <linearGradient gradientTransform="matrix(0.0, -0.0207, 0.0207, 0.0, 0.0, 18.4)" gradientUnits="userSpaceOnUse" id="gradient0" spreadMethod="pad" x1="-819.2" x2="819.2">
      <stop offset="0.0" stop-color="#3c3c3c"/>
      <stop offset="1.0" stop-color="#606060"/>
    </linearGradient>
    <linearGradient gradientTransform="matrix(0.0, -0.0213, 0.0213, 0.0, 0.0, 18.35)" gradientUnits="userSpaceOnUse" id="gradient1" spreadMethod="pad" x1="-819.2" x2="819.2">
      <stop offset="0.0" stop-color="#323232"/>
      <stop offset="1.0" stop-color="#515151"/>
    </linearGradient>
  </defs>
</svg>
