<?xml version="1.0" encoding="UTF-8" standalone="no"?>
<svg xmlns:ffdec="https://www.free-decompiler.com/flash" xmlns:xlink="http://www.w3.org/1999/xlink" ffdec:objectType="shape" height="58.25px" width="36.25px" xmlns="http://www.w3.org/2000/svg">
  <g transform="matrix(1.0, 0.0, 0.0, 1.0, 70.55, 82.95)">
    <path d="M-65.45 -65.4 Q-66.6 -67.1 -67.0 -68.95 L-68.1 -67.2 -68.45 -69.75 -69.3 -68.5 Q-69.85 -69.9 -69.15 -71.85 L-70.5 -70.7 -68.8 -73.65 Q-67.9 -76.75 -64.95 -79.85 -61.05 -82.9 -55.65 -81.55 L-55.85 -82.9 Q-54.85 -82.15 -54.45 -81.2 L-52.25 -80.3 -53.4 -80.05 Q-51.2 -78.2 -49.35 -74.55 L-49.7 -73.9 Q-50.55 -74.95 -51.4 -74.4 -53.35 -73.05 -54.15 -71.85 L-54.3 -73.0 -54.15 -71.85 -54.5 -71.55 -56.1 -73.45 -56.05 -70.35 -56.35 -70.15 Q-56.75 -71.3 -57.45 -72.35 L-58.8 -73.95 Q-59.8 -70.5 -60.95 -68.35 -60.65 -70.9 -61.15 -73.05 L-63.15 -70.3 -64.3 -68.1 -64.4 -70.2 -64.4 -70.4 -63.15 -70.3 -64.4 -70.4 -64.4 -70.2 -65.15 -68.6 -65.05 -67.25 -64.4 -66.05 -65.45 -65.4 M-50.9 -76.15 L-51.25 -76.75 -50.9 -76.15 M-51.25 -75.7 L-53.05 -78.25 -51.25 -75.7 M-64.1 -72.25 L-64.4 -70.4 -64.75 -70.25 -64.4 -70.4 -64.1 -72.25 M-56.6 -72.55 L-57.45 -72.35 -56.6 -72.55 M-65.55 -67.1 L-65.15 -68.6 -65.55 -67.1" fill="#f3bf98" fill-rule="evenodd" stroke="none"/>
    <path d="M-64.4 -70.2 L-64.3 -68.1 -63.15 -70.3 -61.15 -73.05 Q-60.65 -70.9 -60.95 -68.35 -59.8 -70.5 -58.8 -73.95 L-57.45 -72.35 Q-56.75 -71.3 -56.35 -70.15 L-61.0 -66.6 -62.0 -65.8 -64.4 -66.05 -65.05 -67.25 -65.15 -68.6 -64.4 -70.2 M-62.05 -69.65 L-63.15 -70.3 -62.05 -69.65 M-63.55 -67.0 L-61.0 -66.6 -63.55 -67.0 M-61.15 -67.1 L-61.7 -67.2 -61.15 -67.1 M-56.05 -70.35 L-56.1 -73.45 -54.5 -71.55 -56.05 -70.35 M-59.0 -70.2 Q-58.25 -71.85 -57.45 -72.35 -58.25 -71.85 -59.0 -70.2" fill="#fce7d4" fill-rule="evenodd" stroke="none"/>
    <path d="M-35.15 -72.35 Q-34.8 -71.05 -35.5 -70.6 L-37.4 -69.5 -41.2 -67.35 -43.55 -65.65 -44.65 -64.85 -38.7 -56.2 Q-37.1 -54.2 -36.75 -50.5 -36.0 -45.3 -36.25 -41.45 -36.5 -37.65 -37.15 -36.2 -38.95 -31.4 -36.9 -28.15 -36.1 -25.35 -38.05 -25.25 -46.15 -24.4 -54.45 -25.05 -57.75 -25.05 -55.75 -27.95 -57.85 -29.4 -55.4 -31.05 -55.3 -42.2 -53.25 -49.4 L-53.5 -51.1 -52.85 -52.45 -55.85 -55.55 -58.2 -58.7 Q-52.05 -61.15 -48.65 -65.35 -45.25 -69.6 -47.25 -70.2 L-47.45 -70.65 -47.25 -70.2 Q-46.85 -69.1 -47.3 -68.55 L-50.2 -66.1 Q-52.25 -69.85 -54.15 -71.85 -52.25 -69.85 -50.2 -66.1 L-52.65 -63.9 Q-55.3 -61.1 -58.9 -59.6 L-59.4 -59.4 -60.3 -58.4 -60.9 -57.8 Q-62.15 -56.35 -64.2 -57.4 -66.4 -58.65 -66.5 -62.65 -66.55 -63.8 -65.45 -65.4 L-64.4 -66.05 -62.0 -65.8 -61.0 -66.6 -56.35 -70.15 -56.05 -70.35 -54.5 -71.55 -54.15 -71.85 Q-53.35 -73.05 -51.4 -74.4 -50.55 -74.95 -49.7 -73.9 L-47.45 -70.65 -46.15 -72.25 -39.85 -75.05 Q-38.45 -76.45 -37.4 -75.75 L-37.2 -75.65 Q-35.9 -74.2 -35.2 -72.4 L-35.15 -72.35 M-39.85 -75.05 Q-37.85 -73.25 -37.4 -69.5 -37.85 -73.25 -39.85 -75.05 M-63.6 -63.75 L-62.6 -65.4 -62.0 -65.8 -62.6 -65.4 -63.6 -63.75 M-65.8 -63.75 L-62.6 -65.4 -65.8 -63.75 M-60.85 -58.8 L-63.1 -57.7 -60.85 -58.8 M-45.5 -64.25 L-44.65 -64.85 -45.5 -64.25 M-51.55 -53.55 L-51.85 -53.1 Q-51.15 -52.75 -50.45 -52.45 L-49.65 -52.45 -47.95 -53.0 -48.4 -53.55 -51.55 -53.55 M-44.45 -53.4 Q-47.65 -51.9 -50.45 -52.15 -47.65 -51.9 -44.45 -53.4 M-44.6 -37.0 L-42.4 -34.05 -42.0 -36.25 -40.95 -37.15 -41.1 -37.85 Q-42.95 -37.7 -44.6 -37.0 M-50.85 -47.8 Q-52.95 -46.65 -52.35 -44.0 -52.95 -46.65 -50.85 -47.8 M-44.1 -31.8 Q-49.05 -33.5 -52.05 -43.0 L-52.35 -44.0 Q-52.0 -37.05 -46.25 -29.65 L-53.35 -28.95 Q-51.4 -27.55 -48.3 -27.4 L-45.35 -27.65 Q-40.3 -25.9 -37.7 -27.95 L-41.0 -29.0 Q-39.6 -31.95 -39.55 -34.85 -42.1 -28.5 -43.75 -29.0 -44.6 -30.4 -44.1 -31.8" fill="#f8f6f8" fill-rule="evenodd" stroke="none"/>
    <path d="M-59.55 -49.5 L-59.75 -49.45 -60.4 -51.5 -61.35 -50.1 Q-61.2 -51.95 -60.45 -53.85 -59.95 -56.4 -60.3 -58.4 L-59.4 -59.4 -58.9 -59.6 Q-58.65 -51.15 -59.55 -49.5" fill="#f5bd94" fill-rule="evenodd" stroke="none"/>
    <path d="M-43.55 -65.65 L-41.4 -63.2 Q-39.5 -61.65 -38.15 -59.7 L-39.2 -59.8 Q-39.4 -59.5 -39.2 -59.25 -38.7 -59.1 -38.7 -56.2 L-44.65 -64.85 -43.55 -65.65" fill="#f2be98" fill-rule="evenodd" stroke="none"/>
    <path d="M-37.4 -75.75 Q-37.15 -79.0 -36.5 -78.95 -35.6 -80.55 -35.3 -75.55 -35.05 -77.05 -34.35 -76.6 L-34.55 -73.55 Q-34.65 -72.35 -35.15 -72.35 L-35.2 -72.4 Q-35.9 -74.2 -37.2 -75.65 L-37.4 -75.75 M-49.35 -74.55 Q-48.4 -75.35 -48.0 -75.05 -46.8 -76.55 -45.75 -76.3 -44.6 -76.1 -45.65 -73.15 L-46.15 -72.25 -47.45 -70.65 -49.7 -73.9 -49.35 -74.55 M-36.55 -77.35 L-36.5 -78.95 -36.55 -77.35 M-46.3 -75.55 L-47.25 -74.7 -46.3 -75.55 M-45.95 -73.8 L-46.25 -73.15 -45.95 -73.8 M-46.1 -74.9 L-46.65 -74.2 -46.1 -74.9" fill="#fce8d3" fill-rule="evenodd" stroke="none"/>
    <path d="M-50.2 -66.1 L-47.3 -68.55 Q-46.85 -69.1 -47.25 -70.2 -45.25 -69.6 -48.65 -65.35 -52.05 -61.15 -58.2 -58.7 L-58.9 -59.6 Q-55.3 -61.1 -52.65 -63.9 L-50.2 -66.1 M-51.55 -53.55 L-48.4 -53.55 -47.95 -53.0 -49.65 -52.45 -50.45 -52.45 Q-51.15 -52.75 -51.85 -53.1 L-51.55 -53.55 M-41.1 -37.85 L-40.95 -37.15 -42.0 -36.25 -42.4 -34.05 -44.6 -37.0 Q-42.95 -37.7 -41.1 -37.85 M-52.35 -44.0 L-52.05 -43.0 Q-49.05 -33.5 -44.1 -31.8 -44.6 -30.4 -43.75 -29.0 -42.1 -28.5 -39.55 -34.85 -39.6 -31.95 -41.0 -29.0 L-37.7 -27.95 Q-40.3 -25.9 -45.35 -27.65 L-48.3 -27.4 Q-51.4 -27.55 -53.35 -28.95 L-46.25 -29.65 Q-52.0 -37.05 -52.35 -44.0" fill="#c3c9d3" fill-rule="evenodd" stroke="none"/>
    <path d="M-53.5 -51.1 L-54.75 -50.0 -55.75 -51.0 -55.95 -49.05 -57.35 -51.1 Q-58.3 -49.95 -59.55 -49.5 -58.65 -51.15 -58.9 -59.6 L-58.2 -58.7 -55.85 -55.55 -52.85 -52.45 -53.5 -51.1" fill="#c5917c" fill-rule="evenodd" stroke="none"/>
    <path d="M-37.4 -75.75 Q-37.15 -79.0 -36.5 -78.95 -35.6 -80.55 -35.3 -75.55 -35.05 -77.05 -34.35 -76.6 L-34.55 -73.55 Q-34.65 -72.35 -35.15 -72.35 -34.8 -71.05 -35.5 -70.6 L-37.4 -69.5 -41.2 -67.35 -43.55 -65.65 -41.4 -63.2 Q-39.5 -61.65 -38.15 -59.7 L-39.2 -59.8 Q-39.4 -59.5 -39.2 -59.25 -38.7 -59.1 -38.7 -56.2 -37.1 -54.2 -36.75 -50.5 -36.0 -45.3 -36.25 -41.45 -36.5 -37.65 -37.15 -36.2 -38.95 -31.4 -36.9 -28.15 -36.1 -25.35 -38.05 -25.25 -46.15 -24.4 -54.45 -25.05 -57.75 -25.05 -55.75 -27.95 -57.85 -29.4 -55.4 -31.05 -55.3 -42.2 -53.25 -49.4 L-53.5 -51.1 -54.75 -50.0 -55.75 -51.0 -55.95 -49.05 -57.35 -51.1 Q-58.3 -49.95 -59.55 -49.5 L-59.75 -49.45 -60.4 -51.5 -61.35 -50.1 Q-61.2 -51.95 -60.45 -53.85 -59.95 -56.4 -60.3 -58.4 L-60.9 -57.8 Q-62.15 -56.35 -64.2 -57.4 -66.4 -58.65 -66.5 -62.65 -66.55 -63.8 -65.45 -65.4 -66.6 -67.1 -67.0 -68.95 L-68.1 -67.2 -68.45 -69.75 -69.3 -68.5 Q-69.85 -69.9 -69.15 -71.85 L-70.5 -70.7 -68.8 -73.65 Q-67.9 -76.75 -64.95 -79.85 -61.05 -82.9 -55.65 -81.55 L-55.85 -82.9 Q-54.85 -82.15 -54.45 -81.2 L-52.25 -80.3 -53.4 -80.05 Q-51.2 -78.2 -49.35 -74.55 -48.4 -75.35 -48.0 -75.05 -46.8 -76.55 -45.75 -76.3 -44.6 -76.1 -45.65 -73.15 L-46.15 -72.25 -39.85 -75.05 Q-38.45 -76.45 -37.4 -75.75 L-37.2 -75.65 Q-35.9 -74.2 -35.2 -72.4 L-35.15 -72.35 M-36.5 -78.95 L-36.55 -77.35 M-37.4 -69.5 Q-37.85 -73.25 -39.85 -75.05 M-53.05 -78.25 L-51.25 -75.7 M-51.25 -76.75 L-50.9 -76.15 M-47.25 -74.7 L-46.3 -75.55 M-64.75 -70.25 L-64.4 -70.4 -64.1 -72.25 M-63.15 -70.3 L-64.4 -70.4 -64.4 -70.2 -64.3 -68.1 -63.15 -70.3 -61.15 -73.05 Q-60.65 -70.9 -60.95 -68.35 -59.8 -70.5 -58.8 -73.95 L-57.45 -72.35 -56.6 -72.55 M-64.4 -70.2 L-65.15 -68.6 -65.05 -67.25 -64.4 -66.05 -62.0 -65.8 -61.0 -66.6 -63.55 -67.0 M-63.15 -70.3 L-62.05 -69.65 M-62.0 -65.8 L-62.6 -65.4 -63.6 -63.75 M-61.7 -67.2 L-61.15 -67.1 M-64.4 -66.05 L-65.45 -65.4 M-62.6 -65.4 L-65.8 -63.75 M-65.15 -68.6 L-65.55 -67.1 M-63.1 -57.7 L-60.85 -58.8 M-47.25 -70.2 L-47.45 -70.65 -49.7 -73.9 Q-50.55 -74.95 -51.4 -74.4 -53.35 -73.05 -54.15 -71.85 -52.25 -69.85 -50.2 -66.1 L-47.3 -68.55 Q-46.85 -69.1 -47.25 -70.2 M-58.2 -58.7 L-55.85 -55.55 -52.85 -52.45 -53.5 -51.1 M-46.25 -73.15 L-45.95 -73.8 M-47.45 -70.65 L-46.15 -72.25 M-44.65 -64.85 L-45.5 -64.25 M-43.55 -65.65 L-44.65 -64.85 -38.7 -56.2 M-54.15 -71.85 L-54.3 -73.0 M-54.5 -71.55 L-54.15 -71.85 M-54.5 -71.55 L-56.1 -73.45 -56.05 -70.35 -54.5 -71.55 M-56.35 -70.15 Q-56.75 -71.3 -57.45 -72.35 -58.25 -71.85 -59.0 -70.2 M-56.35 -70.15 L-56.05 -70.35 M-60.3 -58.4 L-59.4 -59.4 -58.9 -59.6 Q-55.3 -61.1 -52.65 -63.9 L-50.2 -66.1 M-58.9 -59.6 L-58.2 -58.7 M-50.45 -52.15 Q-47.65 -51.9 -44.45 -53.4 M-46.65 -74.2 L-46.1 -74.9 M-61.0 -66.6 L-56.35 -70.15 M-49.35 -74.55 L-49.7 -73.9 M-41.1 -37.85 Q-42.95 -37.7 -44.6 -37.0 M-52.35 -44.0 Q-52.95 -46.65 -50.85 -47.8 M-44.1 -31.8 Q-49.05 -33.5 -52.05 -43.0 L-52.35 -44.0 M-53.35 -28.95 Q-51.4 -27.55 -48.3 -27.4 M-39.55 -34.85 Q-42.1 -28.5 -43.75 -29.0" fill="none" stroke="#000000" stroke-linecap="round" stroke-linejoin="round" stroke-opacity="0.5019608" stroke-width="0.1"/>
  </g>
</svg>
