<?xml version="1.0" encoding="UTF-8" standalone="no"?>
<svg xmlns:ffdec="https://www.free-decompiler.com/flash" xmlns:xlink="http://www.w3.org/1999/xlink" ffdec:objectType="shape" height="81.1px" width="82.0px" xmlns="http://www.w3.org/2000/svg">
  <g transform="matrix(1.0, 0.0, 0.0, 1.0, 41.0, 41.0)">
    <path d="M0.05 -5.2 L6.55 -2.1 6.55 2.4 0.05 -0.8 -6.55 2.4 -6.55 -2.1 0.05 -5.2 M6.55 10.4 L0.05 7.3 -6.55 10.4 -6.55 6.0 0.05 2.8 6.55 6.0 6.55 10.4" fill="#be98c6" fill-rule="evenodd" stroke="none"/>
    <path d="M16.05 39.1 L-14.35 39.1 -14.35 27.3 16.05 27.3 16.05 39.1 M-14.35 -26.4 L0.05 -26.4 16.05 -26.4 16.05 21.7 -14.35 21.7 -14.35 -26.4 M0.05 -5.2 L-6.55 -2.1 -6.55 2.4 0.05 -0.8 6.55 2.4 6.55 -2.1 0.05 -5.2 M6.55 10.4 L6.55 6.0 0.05 2.8 -6.55 6.0 -6.55 10.4 0.05 7.3 6.55 10.4" fill="#859495" fill-rule="evenodd" stroke="none"/>
    <path d="M16.05 -26.4 L21.95 -26.4 21.95 21.7 16.05 21.7 16.05 -26.4 M27.65 -26.4 L39.15 -26.4 39.15 21.7 27.65 21.7 27.65 -26.4 M39.15 27.3 L39.15 39.1 27.65 39.1 27.65 27.3 39.15 27.3 M21.95 39.1 L16.05 39.1 16.05 27.3 21.95 27.3 21.95 39.1 M-14.35 39.1 L-20.25 39.1 -20.25 27.3 -14.35 27.3 -14.35 39.1 M-26.05 39.1 L-39.15 39.1 -39.15 27.3 -26.05 27.3 -26.05 39.1 M-39.15 21.7 L-39.15 -26.4 -26.05 -26.4 -26.05 21.7 -39.15 21.7 M-20.25 -26.4 L-14.35 -26.4 -14.35 21.7 -20.25 21.7 -20.25 -26.4" fill="#5d686c" fill-rule="evenodd" stroke="none"/>
    <path d="M21.95 -26.4 L27.65 -26.4 27.65 21.7 39.15 21.7 39.15 27.3 27.65 27.3 27.65 39.1 21.95 39.1 21.95 27.3 16.05 27.3 -14.35 27.3 -20.25 27.3 -20.25 39.1 -26.05 39.1 -26.05 27.3 -39.15 27.3 -39.15 21.7 -26.05 21.7 -26.05 -26.4 -20.25 -26.4 -20.25 21.7 -14.35 21.7 16.05 21.7 21.95 21.7 21.95 -26.4 M27.65 21.7 L21.95 21.7 27.65 21.7 M21.95 27.3 L27.65 27.3 21.95 27.3 M-26.05 27.3 L-20.25 27.3 -26.05 27.3 M-20.25 21.7 L-26.05 21.7 -20.25 21.7" fill="#474d52" fill-rule="evenodd" stroke="none"/>
    <path d="M0.05 -5.2 L-6.55 -2.1 -6.55 2.4 0.05 -0.8 6.55 2.4 6.55 -2.1 0.05 -5.2 M6.55 10.4 L0.05 7.3 -6.55 10.4 -6.55 6.0 0.05 2.8 6.55 6.0 6.55 10.4" fill="none" stroke="#5f4c6f" stroke-linecap="round" stroke-linejoin="round" stroke-width="2.0"/>
    <path d="M39.15 21.7 L39.15 27.3 27.65 27.3 27.65 39.1 21.95 39.1 21.95 27.3 16.05 27.3 -14.35 27.3 -20.25 27.3 -20.25 39.1 -26.05 39.1 -26.05 27.3 -39.15 27.3 -39.15 21.7 -26.05 21.7 -26.05 -26.4 M16.05 21.7 L21.95 21.7 21.95 -26.4 M21.95 21.7 L27.65 21.7 27.65 -26.4 M27.65 21.7 L39.15 21.7 M27.65 27.3 L21.95 27.3 M-20.25 -26.4 L-20.25 21.7 -14.35 21.7 16.05 21.7 M-26.05 21.7 L-20.25 21.7 M-20.25 27.3 L-26.05 27.3" fill="none" stroke="#262728" stroke-linecap="round" stroke-linejoin="round" stroke-width="2.0"/>
    <path d="M39.15 -26.4 L39.15 21.7 M39.15 27.3 L39.15 39.1 27.65 39.1 M21.95 39.1 L16.05 39.1 -14.35 39.1 -20.25 39.1 M-26.05 39.1 L-39.15 39.1 -39.15 27.3 M-39.15 21.7 L-39.15 -26.4" fill="none" stroke="#313237" stroke-linecap="round" stroke-linejoin="round" stroke-width="2.0"/>
    <path d="M0.05 -26.4 L0.05 39.1" fill="none" stroke="#5e5753" stroke-linecap="round" stroke-linejoin="round" stroke-width="2.0"/>
    <path d="M35.2 -32.5 L37.6 -36.85 35.2 -32.5 M0.0 -17.35 L-0.1 -17.45 Q-22.2 -28.9 -40.0 -17.35 L-40.0 -40.0 40.0 -40.0 40.0 -17.35 39.75 -17.35 39.65 -17.35 Q17.6 -28.75 0.0 -17.35 M-21.75 -31.7 L-34.55 -37.6 -21.75 -31.7 M-35.25 -32.5 L-37.7 -36.85 -35.25 -32.5 M21.6 -31.7 L34.35 -37.6 21.6 -31.7" fill="#c5b49d" fill-rule="evenodd" stroke="none"/>
    <path d="M37.6 -36.85 L35.2 -32.5 M34.35 -37.6 L21.6 -31.7 M-37.7 -36.85 L-35.25 -32.5 M-34.55 -37.6 L-21.75 -31.7" fill="none" stroke="#9b8b82" stroke-linecap="round" stroke-linejoin="round" stroke-width="2.0"/>
    <path d="M0.0 -17.35 L-0.1 -17.45 Q-22.2 -28.9 -40.0 -17.35 L-40.0 -40.0 40.0 -40.0 40.0 -17.35 39.75 -17.35 39.65 -17.35 Q17.6 -28.75 0.0 -17.35 Z" fill="none" stroke="#827165" stroke-linecap="round" stroke-linejoin="round" stroke-width="2.0"/>
  </g>
</svg>
