<?xml version="1.0" encoding="UTF-8" standalone="no"?>
<svg xmlns:ffdec="https://www.free-decompiler.com/flash" xmlns:xlink="http://www.w3.org/1999/xlink" ffdec:objectType="shape" height="12.0px" width="29.25px" xmlns="http://www.w3.org/2000/svg">
  <g transform="matrix(1.0, 0.0, 0.0, 1.0, 14.55, 0.5)">
    <path d="M-7.25 2.3 L-9.1 2.3 -10.45 3.35 -11.55 3.35 -12.4 3.35 -14.05 1.9 -14.05 0.0 14.2 0.0 14.2 1.9 12.6 3.35 11.85 3.35 10.65 3.35 9.25 2.3 7.45 2.3 -7.25 2.3" fill="#c0ced2" fill-rule="evenodd" stroke="none"/>
    <path d="M-7.25 2.3 L7.45 2.3 7.45 4.55 6.5 4.55 -6.45 4.55 -7.25 4.55 -7.25 2.3" fill="#78808b" fill-rule="evenodd" stroke="none"/>
    <path d="M6.5 4.55 Q6.5 7.2 4.6 9.1 2.7 11.0 0.0 11.0 -2.65 11.0 -4.55 9.1 -6.45 7.2 -6.45 4.55 L6.5 4.55 M1.5 10.4 L2.15 9.8 Q2.15 9.45 1.5 9.2 L-0.05 8.95 -1.6 9.2 Q-2.25 9.45 -2.25 9.8 L-1.6 10.4 -0.05 10.65 1.5 10.4" fill="#576375" fill-rule="evenodd" stroke="none"/>
    <path d="M1.5 10.4 L-0.05 10.65 -1.6 10.4 -2.25 9.8 Q-2.25 9.45 -1.6 9.2 L-0.05 8.95 1.5 9.2 Q2.15 9.45 2.15 9.8 L1.5 10.4" fill="#e32025" fill-rule="evenodd" stroke="none"/>
    <path d="M7.45 2.3 L9.25 2.3 10.65 3.35 11.85 3.35 12.6 3.35 14.2 1.9 14.2 0.0 -14.05 0.0 -14.05 1.9 -12.4 3.35 -11.55 3.35 -10.45 3.35 -9.1 2.3 -7.25 2.3 7.45 2.3" fill="none" stroke="#545f67" stroke-linecap="round" stroke-linejoin="round" stroke-width="1.0"/>
    <path d="M7.45 2.3 L7.45 4.55 6.5 4.55 -6.45 4.55 -7.25 4.55 -7.25 2.3 M11.85 3.35 L11.85 4.55 M-11.55 3.35 L-11.55 4.55" fill="none" stroke="#373b41" stroke-linecap="round" stroke-linejoin="round" stroke-width="1.0"/>
    <path d="M1.5 10.4 L-0.05 10.65 -1.6 10.4 -2.25 9.8 Q-2.25 9.45 -1.6 9.2 L-0.05 8.95 1.5 9.2 Q2.15 9.45 2.15 9.8 L1.5 10.4" fill="none" stroke="#812723" stroke-linecap="round" stroke-linejoin="round" stroke-width="1.0"/>
    <path d="M6.5 4.55 Q6.5 7.2 4.6 9.1 2.7 11.0 0.0 11.0 -2.65 11.0 -4.55 9.1 -6.45 7.2 -6.45 4.55" fill="none" stroke="#343546" stroke-linecap="round" stroke-linejoin="round" stroke-width="1.0"/>
  </g>
</svg>
