<?xml version="1.0" encoding="UTF-8" standalone="no"?>
<svg xmlns:ffdec="https://www.free-decompiler.com/flash" xmlns:xlink="http://www.w3.org/1999/xlink" ffdec:objectType="shape" height="3.7px" width="9.25px" xmlns="http://www.w3.org/2000/svg">
  <g transform="matrix(1.0, 0.0, 0.0, 1.0, -18.1, 4.3)">
    <path d="M19.2 -2.55 L19.1 -2.55 19.1 -2.7 19.2 -2.55 M26.8 -2.55 L26.8 -3.0 26.85 -3.0 26.85 -2.55 26.8 -2.55" fill="#3f3f3f" fill-rule="evenodd" stroke="none"/>
    <path d="M19.2 -2.55 L19.1 -2.7 18.6 -3.55 19.4 -3.55 20.35 -3.55 21.3 -3.55 22.3 -3.55 23.3 -3.55 24.3 -3.55 25.3 -3.55 26.25 -3.55 26.8 -3.55 26.8 -3.0 26.8 -2.55 26.8 -1.7 25.8 -1.1 20.0 -1.1 19.2 -2.55" fill="#292929" fill-rule="evenodd" stroke="none"/>
    <path d="M19.4 -3.55 L19.4 -3.8 M19.2 -2.55 L19.1 -2.7 18.6 -3.55 19.4 -3.55 20.35 -3.55 20.35 -3.8 M26.8 -2.55 L26.8 -1.7 25.8 -1.1 20.0 -1.1 19.2 -2.55 M26.8 -3.0 L26.8 -3.55 26.25 -3.55 25.3 -3.55 24.3 -3.55 23.3 -3.55 22.3 -3.55 21.3 -3.55 20.35 -3.55 M23.3 -3.8 L23.3 -3.55 M24.3 -3.8 L24.3 -3.55 M25.3 -3.8 L25.3 -3.55 M21.3 -3.8 L21.3 -3.55 M22.3 -3.55 L22.3 -3.8 M26.25 -3.8 L26.25 -3.55 M26.8 -3.0 L26.8 -2.55" fill="none" stroke="#121212" stroke-linecap="round" stroke-linejoin="round" stroke-width="1.0"/>
    <path d="M26.85 -3.0 L26.8 -3.0" fill="none" stroke="#191919" stroke-linecap="round" stroke-linejoin="round" stroke-width="1.0"/>
  </g>
</svg>
