<?xml version="1.0" encoding="UTF-8" standalone="no"?>
<svg xmlns:ffdec="https://www.free-decompiler.com/flash" xmlns:xlink="http://www.w3.org/1999/xlink" ffdec:objectType="shape" height="11.95px" width="76.25px" xmlns="http://www.w3.org/2000/svg">
  <g transform="matrix(1.0, 0.0, 0.0, 1.0, 20.3, 3.75)">
    <path d="M52.1 -0.65 L55.45 -0.65 55.45 0.55 52.1 0.55 52.1 -0.65 M-12.35 -0.85 L-12.35 -1.1 -12.35 -0.85 M-10.9 -2.1 L-11.85 3.85 -11.95 4.45 -13.15 5.4 -15.55 5.35 -18.1 7.6 -19.15 7.7 -19.8 7.3 -18.8 2.85 Q-18.05 -1.3 -18.35 -2.3 L-17.45 -3.1 -13.8 -3.1 -12.7 -2.65 -10.85 -2.65 -10.9 -2.1 M-14.35 -0.35 L-15.0 0.6 -15.0 3.25 -15.55 5.35 -15.0 3.25 -15.0 0.6 -14.35 -0.35 M-12.9 3.0 L-12.9 2.75 -12.9 3.0" fill="#292929" fill-rule="evenodd" stroke="none"/>
    <path d="M-10.9 -2.1 L-8.45 -2.1 -9.7 3.85 -11.85 3.85 -10.9 -2.1" fill="#191919" fill-rule="evenodd" stroke="none"/>
    <path d="M16.2 -2.95 L19.0 -2.95 19.1 -2.7 19.1 -2.55 19.2 -2.55 20.0 -1.1 25.8 -1.1 26.8 -1.7 26.8 -2.55 26.85 -2.55 26.85 -3.0 43.9 -3.0 44.85 -3.0 45.8 -3.0 46.8 -3.0 47.8 -3.0 48.8 -3.0 49.8 -3.0 50.75 -3.0 52.1 -3.0 52.1 -0.65 52.1 0.55 52.1 1.25 46.05 1.25 45.0 1.25 43.85 1.25 42.4 1.25 41.25 1.25 39.45 1.25 38.3 1.25 36.65 1.25 36.05 1.25 35.5 1.25 33.8 1.25 33.4 1.25 32.65 1.25 31.05 1.25 30.7 1.25 29.9 1.25 28.3 1.25 28.3 0.5 19.05 0.5 18.05 -0.15 16.2 -2.95 M30.7 -1.0 L30.7 1.25 30.7 -1.0 M36.05 -0.15 L36.05 1.25 36.05 -0.15 M33.4 -0.55 L33.4 1.25 33.4 -0.55" fill="#3f3f3f" fill-rule="evenodd" stroke="none"/>
    <path d="M28.3 1.25 L29.9 1.25 29.8 1.55 30.0 2.0 Q30.2 2.2 30.45 2.2 L30.9 2.0 31.1 1.55 31.05 1.25 32.65 1.25 32.55 1.55 32.75 2.0 Q32.95 2.2 33.2 2.2 L33.65 2.0 33.85 1.55 33.8 1.25 35.5 1.25 35.4 1.55 35.6 2.0 36.05 2.2 Q36.3 2.2 36.5 2.0 L36.7 1.55 36.65 1.25 38.3 1.25 38.2 1.55 38.4 2.0 38.85 2.2 Q39.1 2.2 39.3 2.0 L39.5 1.55 39.45 1.25 41.25 1.25 41.15 1.55 41.35 2.0 Q41.55 2.2 41.8 2.2 L42.25 2.0 42.45 1.55 42.4 1.25 43.85 1.25 43.75 1.55 43.95 2.0 Q44.15 2.2 44.4 2.2 L44.85 2.0 45.05 1.55 45.0 1.25 46.05 1.25 52.1 1.25 52.1 1.4 50.2 3.65 36.15 3.65 35.2 3.65 34.2 3.65 33.2 3.65 32.2 3.65 31.2 3.65 30.25 3.65 29.3 3.65 28.3 3.65 28.3 1.25" fill="#333333" fill-rule="evenodd" stroke="none"/>
    <path d="M-8.45 -2.1 L-10.9 -2.1 -11.85 3.85 -9.7 3.85 M-10.9 -2.1 L-10.85 -2.65 -12.7 -2.65 -13.8 -3.1 -17.45 -3.1 -18.35 -2.3 Q-18.05 -1.3 -18.8 2.85 L-19.8 7.3 -19.15 7.7 -18.1 7.6 -15.55 5.35 -15.0 3.25 -15.0 0.6 -14.35 -0.35 M-15.55 5.35 L-13.15 5.4 -11.95 4.45 -11.85 3.85" fill="none" stroke="#121212" stroke-linecap="round" stroke-linejoin="round" stroke-width="1.0"/>
    <path d="M-12.35 -1.1 L-12.35 -0.85 M-12.9 2.75 L-12.9 3.0" fill="none" stroke="#1e1e1e" stroke-linecap="round" stroke-linejoin="round" stroke-width="1.0"/>
    <path d="M30.7 1.25 L30.7 -1.0 M36.05 1.25 L36.05 -0.15 M33.4 1.25 L33.4 -0.55" fill="none" stroke="#363636" stroke-linecap="round" stroke-linejoin="round" stroke-width="1.0"/>
    <path d="M28.3 1.25 L29.9 1.25 30.7 1.25 31.05 1.25 32.65 1.25 33.4 1.25 33.8 1.25 35.5 1.25 36.05 1.25 36.65 1.25 38.3 1.25 39.45 1.25 41.25 1.25 42.4 1.25 43.85 1.25 45.0 1.25 46.05 1.25 52.1 1.25" fill="none" stroke="#272727" stroke-linecap="round" stroke-linejoin="round" stroke-width="1.0"/>
    <path d="M19.0 -2.95 L16.2 -2.95 M43.9 -3.0 L44.85 -3.0 44.85 -3.25 M43.9 -3.25 L43.9 -3.0 26.85 -3.0 M46.8 -3.0 L47.8 -3.0 47.8 -3.25 M45.8 -3.0 L46.8 -3.0 46.8 -3.25 M48.8 -3.0 L49.8 -3.0 49.8 -3.25 M47.8 -3.0 L48.8 -3.0 48.8 -3.25 M45.8 -3.0 L45.8 -3.25 M44.85 -3.0 L45.8 -3.0 M50.75 -3.0 L52.1 -3.0 52.1 -0.65 55.45 -0.65 55.45 0.55 52.1 0.55 52.1 1.25 52.1 1.4 50.2 3.65 36.15 3.65 36.15 3.9 M50.75 -3.0 L50.75 -3.25 M49.8 -3.0 L50.75 -3.0 M32.2 3.65 L31.2 3.65 31.2 3.9 M32.2 3.65 L32.2 3.9 M34.2 3.65 L33.2 3.65 33.2 3.9 M34.2 3.65 L34.2 3.9 M35.2 3.65 L34.2 3.65 M35.2 3.65 L35.2 3.9 M33.2 3.65 L32.2 3.65 M36.15 3.65 L35.2 3.65 M30.25 3.65 L30.25 3.9 M28.3 3.65 L29.3 3.65 30.25 3.65 31.2 3.65 M29.3 3.65 L29.3 3.9 M52.1 0.55 L52.1 -0.65" fill="none" stroke="#191919" stroke-linecap="round" stroke-linejoin="round" stroke-width="1.0"/>
  </g>
</svg>
