<?xml version="1.0" encoding="UTF-8" standalone="no"?>
<svg xmlns:ffdec="https://www.free-decompiler.com/flash" xmlns:xlink="http://www.w3.org/1999/xlink" ffdec:objectType="shape" height="172.1px" width="134.95px" xmlns="http://www.w3.org/2000/svg">
  <g transform="matrix(1.0, 0.0, 0.0, 1.0, 66.55, 171.15)">
    <path d="M14.35 -70.8 L7.0 -52.6 8.85 -51.2 11.7 -53.8 14.4 -52.25 13.75 -49.65 13.5 -43.95 12.5 -41.4 8.7 -33.45 7.4 -11.5 14.6 -0.05 -12.3 -0.05 -6.8 -20.55 -6.05 -32.7 -9.35 -44.9 -9.1 -46.95 -6.2 -56.7 -6.2 -61.3 -10.25 -67.55 -9.3 -66.7 -7.0 -71.15 -4.5 -66.15 0.4 -62.05 2.45 -69.85 5.25 -66.3 9.85 -73.5 14.35 -70.8 M-15.55 -75.8 L-20.4 -83.35 -16.3 -81.1 -15.55 -75.8 M6.5 -63.85 L3.9 -58.7 6.5 -63.85 M3.9 -4.65 L2.25 -13.9 3.9 -4.65 M1.35 -42.1 L3.0 -36.2 1.35 -42.1 M-0.7 -32.5 L0.6 -26.8 -2.0 -20.7 -3.45 -11.3 -2.0 -20.7 0.6 -26.8 -0.7 -32.5 M-2.0 -48.95 L-3.45 -43.05 -2.0 -48.95" fill="#7f634e" fill-rule="evenodd" stroke="none"/>
    <path d="M-20.4 -83.35 L-26.25 -86.6 -29.6 -81.65 -36.4 -83.45 -39.2 -89.75 -45.65 -85.7 -53.0 -85.85 -52.65 -97.65 -57.6 -97.85 -57.25 -107.65 -65.55 -105.95 -65.35 -106.3 -58.0 -121.85 -63.15 -124.4 -62.9 -124.7 -52.65 -139.0 -52.7 -139.0 -59.1 -139.35 -51.7 -147.1 -34.0 -151.15 -41.75 -155.05 -21.85 -156.7 -27.2 -161.85 -13.55 -161.1 -13.5 -161.45 -13.2 -170.15 -13.05 -170.1 0.45 -164.45 3.4 -169.4 14.5 -165.55 28.3 -166.85 42.5 -160.4 51.55 -160.0 47.1 -156.7 53.55 -151.7 64.1 -135.1 56.9 -141.95 61.5 -127.9 67.4 -119.05 64.1 -112.45 63.75 -100.65 63.7 -100.25 54.5 -106.55 54.15 -97.45 54.1 -97.1 39.7 -96.0 39.55 -96.0 39.4 -89.75 39.35 -89.35 30.5 -93.25 32.0 -82.9 30.15 -71.3 19.4 -77.1 19.25 -77.2 18.95 -68.55 18.9 -68.15 14.35 -70.8 9.85 -73.5 5.25 -66.3 2.45 -69.85 1.8 -70.7 1.75 -70.75 -0.1 -66.5 -4.35 -76.3 -7.0 -71.15 -9.3 -66.7 -10.25 -67.55 -15.05 -72.05 -15.55 -75.8 -16.3 -81.1 -20.4 -83.35" fill="url(#gradient0)" fill-rule="evenodd" stroke="none"/>
    <path d="M-20.4 -83.35 L-26.25 -86.6 -29.6 -81.65 -36.4 -83.45 -39.2 -89.75 -45.65 -85.7 -53.0 -85.85 -52.65 -97.65 -57.6 -97.85 -57.25 -107.65 -65.55 -105.95 -65.35 -106.3 -58.0 -121.85 -63.15 -124.4 -62.9 -124.7 -52.65 -139.0 -52.7 -139.0 -59.1 -139.35 -51.7 -147.1 -34.0 -151.15 -41.75 -155.05 -21.85 -156.7 -27.2 -161.85 -13.55 -161.1 -13.5 -161.45 -13.2 -170.15 -13.05 -170.1 0.45 -164.45 3.4 -169.4 14.5 -165.55 28.3 -166.85 42.5 -160.4 51.55 -160.0 47.1 -156.7 53.55 -151.7 64.1 -135.1 56.9 -141.95 61.5 -127.9 67.4 -119.05 64.1 -112.45 63.75 -100.65 63.7 -100.25 54.5 -106.55 54.15 -97.45 54.1 -97.1 39.7 -96.0 39.55 -96.0 39.4 -89.75 39.35 -89.35 30.5 -93.25 32.0 -82.9 30.15 -71.3 19.4 -77.1 19.25 -77.2 18.95 -68.55 18.9 -68.15 14.35 -70.8 9.85 -73.5 5.25 -66.3 2.45 -69.85 1.8 -70.7 1.75 -70.75 -0.1 -66.5 -4.35 -76.3 -7.0 -71.15 -9.3 -66.7 -10.25 -67.55 -15.05 -72.05 -15.55 -75.8 -16.3 -81.1 -20.4 -83.35" fill="none" stroke="#16201c" stroke-linecap="round" stroke-linejoin="round" stroke-width="2.0"/>
    <path d="M14.35 -70.8 L7.0 -52.6 8.85 -51.2 11.7 -53.8 14.4 -52.25 13.75 -49.65 13.5 -43.95 12.5 -41.4 8.7 -33.45 7.4 -11.5 14.6 -0.05 -12.3 -0.05 -6.8 -20.55 -6.05 -32.7 -9.35 -44.9 -9.1 -46.95 -6.2 -56.7 -6.2 -61.3 -10.25 -67.55 M-15.55 -75.8 L-20.4 -83.35 M2.45 -69.85 L0.4 -62.05 -4.5 -66.15 -7.0 -71.15" fill="none" stroke="#352926" stroke-linecap="round" stroke-linejoin="round" stroke-width="2.0"/>
    <path d="M3.0 -36.2 L1.35 -42.1 M2.25 -13.9 L3.9 -4.65" fill="none" stroke="#6e5545" stroke-linecap="round" stroke-linejoin="round" stroke-width="2.0"/>
    <path d="M3.9 -58.7 L6.5 -63.85 M-3.45 -43.05 L-2.0 -48.95 M-3.45 -11.3 L-2.0 -20.7 0.6 -26.8 -0.7 -32.5" fill="none" stroke="#63463b" stroke-linecap="round" stroke-linejoin="round" stroke-width="2.0"/>
    <path d="M8.55 -145.55 L8.55 -142.45 3.0 -141.15 3.0 -135.8 -7.15 -139.3 8.55 -145.55 M47.05 -133.6 L50.2 -128.25 44.85 -126.95 47.45 -115.9 38.05 -118.45 38.05 -113.1 31.4 -117.0 30.3 -113.1 24.75 -118.45 17.95 -116.45 17.95 -123.45 47.05 -133.6 M27.5 -100.2 L22.0 -96.5 22.0 -90.25 16.85 -92.85 15.15 -83.95 8.55 -92.85 27.5 -100.2 M-38.5 -126.95 L-45.85 -123.45 -42.9 -130.8 -38.5 -126.95 M3.0 -118.45 L-4.95 -116.45 -2.0 -108.3 -10.85 -111.1 -20.8 -103.7 -20.8 -110.9 -31.1 -110.9 -22.45 -118.45 3.0 -118.45 M-28.9 -96.15 L-34.05 -92.1 -37.2 -96.15 -28.9 -96.15" fill="#1d2e20" fill-opacity="0.2" fill-rule="evenodd" stroke="none"/>
    <path d="M-7.15 -139.3 L3.0 -135.8 3.0 -141.15 8.55 -142.45 8.55 -145.55 M47.05 -133.6 L50.2 -128.25 44.85 -126.95 47.45 -115.9 38.05 -118.45 38.05 -113.1 31.4 -117.0 30.3 -113.1 24.75 -118.45 17.95 -116.45 17.95 -123.45 M8.55 -92.85 L15.15 -83.95 16.85 -92.85 22.0 -90.25 22.0 -96.5 27.5 -100.2 M-42.9 -130.8 L-45.85 -123.45 -38.5 -126.95 M-22.45 -118.45 L-31.1 -110.9 -20.8 -110.9 -20.8 -103.7 -10.85 -111.1 -2.0 -108.3 -4.95 -116.45 3.0 -118.45 M-37.2 -96.15 L-34.05 -92.1 -28.9 -96.15" fill="none" stroke="#1d2b24" stroke-linecap="round" stroke-linejoin="round" stroke-width="2.0"/>
  </g>
  <defs>
    <linearGradient gradientTransform="matrix(0.0, -0.0634, 0.0634, 0.0, 1.0, -118.15)" gradientUnits="userSpaceOnUse" id="gradient0" spreadMethod="pad" x1="-819.2" x2="819.2">
      <stop offset="0.0" stop-color="#25532f"/>
      <stop offset="0.20392156862745098" stop-color="#325d35"/>
      <stop offset="0.5058823529411764" stop-color="#3e673b"/>
      <stop offset="0.7215686274509804" stop-color="#446c3e"/>
      <stop offset="1.0" stop-color="#466e3e"/>
    </linearGradient>
  </defs>
</svg>
