<?xml version="1.0" encoding="UTF-8" standalone="no"?>
<svg xmlns:ffdec="https://www.free-decompiler.com/flash" xmlns:xlink="http://www.w3.org/1999/xlink" ffdec:objectType="shape" height="34.5px" width="32.6px" xmlns="http://www.w3.org/2000/svg">
  <g transform="matrix(1.0, 0.0, 0.0, 1.0, 15.2, 88.0)">
    <path d="M8.5 -87.0 L15.5 -85.2 13.45 -82.4 12.0 -84.55 9.4 -83.95 8.5 -87.0 M5.6 -71.5 L8.3 -72.25 7.25 -69.1 5.6 -71.5 M14.95 -62.25 L16.4 -60.1 13.45 -59.1 14.6 -54.5 10.3 -55.95 8.5 -54.6 5.6 -55.85 14.95 -62.25 M-0.6 -81.4 L-6.55 -79.05 -7.35 -81.4 -0.6 -81.4 M-2.65 -65.5 L-0.5 -59.9 -3.3 -61.45 -4.55 -57.75 -8.45 -61.25 -11.2 -60.45 -11.3 -63.7 -14.2 -64.65 -11.05 -66.75 -2.65 -65.5" fill="#1d2e20" fill-opacity="0.2" fill-rule="evenodd" stroke="none"/>
    <path d="M8.5 -87.0 L9.4 -83.95 12.0 -84.55 13.45 -82.4 15.5 -85.2 M5.6 -71.5 L7.25 -69.1 8.3 -72.25 M5.6 -55.85 L8.5 -54.6 10.3 -55.95 14.6 -54.5 13.45 -59.1 16.4 -60.1 14.95 -62.25 M-7.35 -81.4 L-6.55 -79.05 -0.6 -81.4 M-11.05 -66.75 L-14.2 -64.65 -11.3 -63.7 -11.2 -60.45 -8.45 -61.25 -4.55 -57.75 -3.3 -61.45 -0.5 -59.9 -2.65 -65.5" fill="none" stroke="#1d2b24" stroke-linecap="round" stroke-linejoin="round" stroke-width="2.0"/>
  </g>
</svg>
