<?xml version="1.0" encoding="UTF-8" standalone="no"?>
<svg xmlns:ffdec="https://www.free-decompiler.com/flash" xmlns:xlink="http://www.w3.org/1999/xlink" ffdec:objectType="shape" height="39.6px" width="60.55px" xmlns="http://www.w3.org/2000/svg">
  <g transform="matrix(1.0, 0.0, 0.0, 1.0, 28.1, 121.05)">
    <path d="M6.05 -120.05 L6.05 -118.15 2.7 -117.35 2.7 -114.1 -3.5 -116.2 6.05 -120.05 M29.55 -112.75 L31.45 -109.5 28.2 -108.7 29.8 -101.95 24.05 -103.5 24.05 -100.25 20.0 -102.6 19.35 -100.25 15.95 -103.5 11.8 -102.3 11.8 -106.55 29.55 -112.75 M17.6 -92.35 L14.25 -90.1 14.25 -86.3 11.15 -87.9 10.1 -82.45 6.05 -87.9 17.6 -92.35 M-25.3 -111.05 L-22.65 -108.7 -27.1 -106.55 -25.3 -111.05 M-21.85 -89.9 L-16.8 -89.9 -19.9 -87.45 -21.85 -89.9 M2.7 -103.5 L-2.15 -102.3 -0.35 -97.3 -5.75 -99.0 -11.85 -94.5 -11.85 -98.9 -18.1 -98.9 -12.85 -103.5 2.7 -103.5" fill="#1d2e20" fill-opacity="0.2" fill-rule="evenodd" stroke="none"/>
    <path d="M-3.5 -116.2 L2.7 -114.1 2.7 -117.35 6.05 -118.15 6.05 -120.05 M29.55 -112.75 L31.45 -109.5 28.2 -108.7 29.8 -101.95 24.05 -103.5 24.05 -100.25 20.0 -102.6 19.35 -100.25 15.95 -103.5 11.8 -102.3 11.8 -106.55 M6.05 -87.9 L10.1 -82.45 11.15 -87.9 14.25 -86.3 14.25 -90.1 17.6 -92.35 M-25.3 -111.05 L-27.1 -106.55 -22.65 -108.7 M-21.85 -89.9 L-19.9 -87.45 -16.8 -89.9 M-12.85 -103.5 L-18.1 -98.9 -11.85 -98.9 -11.85 -94.5 -5.75 -99.0 -0.35 -97.3 -2.15 -102.3 2.7 -103.5" fill="none" stroke="#1d2b24" stroke-linecap="round" stroke-linejoin="round" stroke-width="2.0"/>
  </g>
</svg>
