<?xml version="1.0" encoding="UTF-8" standalone="no"?>
<svg xmlns:ffdec="https://www.free-decompiler.com/flash" xmlns:xlink="http://www.w3.org/1999/xlink" ffdec:objectType="shape" height="25.25px" width="12.95px" xmlns="http://www.w3.org/2000/svg">
  <g transform="matrix(1.0, 0.0, 0.0, 1.0, -60.4, 13.45)">
    <path d="M64.75 11.8 Q63.1 11.15 62.15 8.0 60.4 4.5 60.4 -0.7 60.4 -5.85 62.15 -9.65 63.1 -12.8 64.75 -13.1 L64.75 11.8" fill="url(#gradient0)" fill-rule="evenodd" stroke="none"/>
    <path d="M64.75 -13.1 L64.85 -13.1 65.9 -13.45 Q69.0 -13.45 71.15 -9.65 73.35 -5.85 73.35 -0.7 73.35 4.5 71.15 8.0 69.0 11.8 65.9 11.8 L64.85 11.8 Q64.85 11.5 64.75 11.8 L64.75 -13.1" fill="url(#gradient1)" fill-rule="evenodd" stroke="none"/>
  </g>
  <defs>
    <radialGradient cx="0" cy="0" gradientTransform="matrix(0.0, 0.0137, -0.0061, 0.0, 65.45, -0.7)" gradientUnits="userSpaceOnUse" id="gradient0" r="819.2" spreadMethod="pad">
      <stop offset="0.17647058823529413" stop-color="#ffffff"/>
      <stop offset="0.5529411764705883" stop-color="#ffffff" stop-opacity="0.77254903"/>
      <stop offset="1.0" stop-color="#ccf0ff" stop-opacity="0.0"/>
    </radialGradient>
    <radialGradient cx="0" cy="0" gradientTransform="matrix(0.0, 0.0137, -0.0091, 0.0, 65.9, -0.7)" gradientUnits="userSpaceOnUse" id="gradient1" r="819.2" spreadMethod="pad">
      <stop offset="0.17647058823529413" stop-color="#ffffff"/>
      <stop offset="0.5529411764705883" stop-color="#ffffff" stop-opacity="0.77254903"/>
      <stop offset="1.0" stop-color="#ccf0ff" stop-opacity="0.0"/>
    </radialGradient>
  </defs>
</svg>
