<?xml version="1.0" encoding="UTF-8" standalone="no"?>
<svg xmlns:ffdec="https://www.free-decompiler.com/flash" xmlns:xlink="http://www.w3.org/1999/xlink" ffdec:objectType="shape" height="18.25px" width="10.05px" xmlns="http://www.w3.org/2000/svg">
  <g transform="matrix(1.0, 0.0, 0.0, 1.0, -51.2, 9.65)">
    <path d="M60.8 -9.55 L60.8 -9.5 61.1 -9.6 Q61.6 -9.05 60.5 -5.95 59.45 -2.9 57.45 0.8 55.45 4.55 53.7 6.7 51.9 9.05 51.4 8.5 L51.25 8.35 51.25 8.3 60.8 -9.55" fill="url(#gradient0)" fill-rule="evenodd" stroke="none"/>
    <path d="M51.25 8.3 Q51.05 7.45 52.0 4.9 52.9 1.95 54.9 -1.8 56.9 -5.5 58.8 -7.75 60.25 -9.75 60.8 -9.55 L51.25 8.3" fill="url(#gradient1)" fill-rule="evenodd" stroke="none"/>
  </g>
  <defs>
    <radialGradient cx="0" cy="0" gradientTransform="matrix(-0.0053, 0.0098, -0.0015, -0.0015, 56.2, -0.45)" gradientUnits="userSpaceOnUse" id="gradient0" r="819.2" spreadMethod="pad">
      <stop offset="0.17647058823529413" stop-color="#ffffff"/>
      <stop offset="0.5529411764705883" stop-color="#ffffff" stop-opacity="0.77254903"/>
      <stop offset="1.0" stop-color="#ffcccc" stop-opacity="0.0"/>
    </radialGradient>
    <radialGradient cx="0" cy="0" gradientTransform="matrix(-0.0053, 0.0098, -0.0016, -0.0017, 56.2, -0.45)" gradientUnits="userSpaceOnUse" id="gradient1" r="819.2" spreadMethod="pad">
      <stop offset="0.17647058823529413" stop-color="#ffffff"/>
      <stop offset="0.5529411764705883" stop-color="#ffffff" stop-opacity="0.77254903"/>
      <stop offset="1.0" stop-color="#ffcccc" stop-opacity="0.0"/>
    </radialGradient>
  </defs>
</svg>
