<?xml version="1.0" encoding="UTF-8" standalone="no"?>
<svg xmlns:ffdec="https://www.free-decompiler.com/flash" xmlns:xlink="http://www.w3.org/1999/xlink" ffdec:objectType="shape" height="26.4px" width="7.2px" xmlns="http://www.w3.org/2000/svg">
  <g transform="matrix(1.0, 0.0, 0.0, 1.0, -53.15, 13.8)">
    <path d="M59.95 12.6 Q59.4 11.95 58.3 8.65 56.9 5.0 55.5 -0.45 54.1 -5.85 53.55 -9.8 52.95 -13.15 53.25 -13.45 L59.95 12.6" fill="url(#gradient0)" fill-rule="evenodd" stroke="none"/>
    <path d="M53.25 -13.45 L53.3 -13.45 53.4 -13.8 Q53.9 -13.8 55.25 -9.8 L58.0 -0.45 Q59.4 5.0 60.0 8.65 60.65 12.6 60.15 12.6 L60.0 12.6 Q59.9 12.3 59.95 12.6 L53.25 -13.45" fill="url(#gradient1)" fill-rule="evenodd" stroke="none"/>
  </g>
  <defs>
    <radialGradient cx="0" cy="0" gradientTransform="matrix(0.0037, 0.0143, -0.0016, 0.0, 56.8, -0.45)" gradientUnits="userSpaceOnUse" id="gradient0" r="819.2" spreadMethod="pad">
      <stop offset="0.17647058823529413" stop-color="#ffffff"/>
      <stop offset="0.5529411764705883" stop-color="#ffffff" stop-opacity="0.77254903"/>
      <stop offset="1.0" stop-color="#ffcccc" stop-opacity="0.0"/>
    </radialGradient>
    <radialGradient cx="0" cy="0" gradientTransform="matrix(0.0037, 0.0143, -0.0015, 0.0, 56.8, -0.45)" gradientUnits="userSpaceOnUse" id="gradient1" r="819.2" spreadMethod="pad">
      <stop offset="0.17647058823529413" stop-color="#ffffff"/>
      <stop offset="0.5529411764705883" stop-color="#ffffff" stop-opacity="0.77254903"/>
      <stop offset="1.0" stop-color="#ffcccc" stop-opacity="0.0"/>
    </radialGradient>
  </defs>
</svg>
