<?xml version="1.0" encoding="UTF-8" standalone="no"?>
<svg xmlns:ffdec="https://www.free-decompiler.com/flash" xmlns:xlink="http://www.w3.org/1999/xlink" ffdec:objectType="shape" height="6.4px" width="41.45px" xmlns="http://www.w3.org/2000/svg">
  <g transform="matrix(1.0, 0.0, 0.0, 1.0, -3.5, 5.15)">
    <path d="M4.5 -4.65 L14.55 -4.05 20.65 -3.9 39.2 -4.1 40.3 -4.0 41.95 -3.45 43.55 -2.1 44.45 0.75 38.9 0.75 38.0 -0.05 31.35 -0.05 30.55 0.75 17.65 0.75 17.15 0.0 4.0 -1.1 4.0 -3.05 4.5 -4.65" fill="#83807e" fill-rule="evenodd" stroke="none"/>
    <path d="M44.45 0.75 L38.9 0.75 38.0 -0.05 31.35 -0.05 30.55 0.75 17.65 0.75 17.15 0.0 4.0 -1.1 4.0 -3.05 4.5 -4.65" fill="none" stroke="#464646" stroke-linecap="round" stroke-linejoin="round" stroke-width="1.0"/>
    <path d="M4.5 -4.65 L14.55 -4.05 20.65 -3.9 39.2 -4.1 40.3 -4.0 41.95 -3.45 43.55 -2.1 44.45 0.75" fill="none" stroke="#3f413e" stroke-linecap="round" stroke-linejoin="round" stroke-width="1.0"/>
  </g>
</svg>
