<?xml version="1.0" encoding="UTF-8" standalone="no"?>
<svg xmlns:xlink="http://www.w3.org/1999/xlink" height="61.9px" width="61.85px" xmlns="http://www.w3.org/2000/svg">
  <g transform="matrix(1.0, 0.0, 0.0, 1.0, 28.9, 29.25)">
    <path d="M0.55 3.45 Q-0.05 2.85 0.0 2.0 -0.05 1.2 0.55 0.6 1.15 0.0 2.0 0.0 2.8 0.0 3.4 0.6 3.95 1.2 4.0 2.0 3.95 2.85 3.4 3.45 2.8 4.0 2.0 4.0 1.15 4.0 0.55 3.45" fill="#ff0000" fill-rule="evenodd" stroke="none"/>
    <path d="M23.9 -20.2 Q32.95 -11.1 32.95 1.7 32.95 14.5 23.9 23.55 14.85 32.65 2.0 32.65 -10.8 32.65 -19.85 23.55 -28.9 14.5 -28.9 1.7 -28.9 -11.1 -19.85 -20.2 -10.8 -29.25 2.0 -29.25 14.85 -29.25 23.9 -20.2" fill="url(#gradient0)" fill-rule="evenodd" stroke="none"/>
  </g>
  <defs>
    <radialGradient cx="0" cy="0" gradientTransform="matrix(0.0382, 0.0, 0.0, 0.0382, 2.0, 1.7)" gradientUnits="userSpaceOnUse" id="gradient0" r="819.2" spreadMethod="pad">
      <stop offset="0.0" stop-color="#ff1111" stop-opacity="0.5921569"/>
      <stop offset="0.4745098039215686" stop-color="#f30505" stop-opacity="0.16470589"/>
      <stop offset="1.0" stop-color="#ee0000" stop-opacity="0.0"/>
    </radialGradient>
  </defs>
</svg>
