<?xml version="1.0" encoding="UTF-8" standalone="no"?>
<svg xmlns:ffdec="https://www.free-decompiler.com/flash" xmlns:xlink="http://www.w3.org/1999/xlink" ffdec:objectType="shape" height="16.0px" width="61.0px" xmlns="http://www.w3.org/2000/svg">
  <g transform="matrix(1.0, 0.0, 0.0, 1.0, 30.5, 8.0)">
    <path d="M8.0 -7.5 L30.0 -7.5 22.6 4.9 15.0 7.5 -15.0 7.5 -22.6 4.9 -30.0 -7.5 -8.0 -7.5 -5.0 -1.85 5.0 -1.85 8.0 -7.5" fill="url(#gradient0)" fill-rule="evenodd" stroke="none"/>
    <path d="M8.0 -7.5 L5.0 -1.85 -5.0 -1.85 -8.0 -7.5 8.0 -7.5" fill="url(#gradient1)" fill-rule="evenodd" stroke="none"/>
    <path d="M-8.0 -7.5 L-30.0 -7.5 -22.6 4.9 -15.0 7.5 15.0 7.5 22.6 4.9 30.0 -7.5 8.0 -7.5 5.0 -1.85 -5.0 -1.85 -8.0 -7.5 8.0 -7.5" fill="none" stroke="#000000" stroke-linecap="round" stroke-linejoin="round" stroke-width="1.0"/>
  </g>
  <defs>
    <radialGradient cx="0" cy="0" gradientTransform="matrix(0.0, 0.0201, -0.0366, 0.0, 0.0, -7.5)" gradientUnits="userSpaceOnUse" id="gradient0" r="819.2" spreadMethod="pad">
      <stop offset="0.0" stop-color="#595959"/>
      <stop offset="1.0" stop-color="#333333"/>
    </radialGradient>
    <linearGradient gradientTransform="matrix(0.0, -0.0031, 0.0034, 0.0, -0.05, -4.65)" gradientUnits="userSpaceOnUse" id="gradient1" spreadMethod="pad" x1="-819.2" x2="819.2">
      <stop offset="0.0" stop-color="#666666"/>
      <stop offset="1.0" stop-color="#6a6a6a"/>
    </linearGradient>
  </defs>
</svg>
