<?xml version="1.0" encoding="UTF-8" standalone="no"?>
<svg xmlns:ffdec="https://www.free-decompiler.com/flash" xmlns:xlink="http://www.w3.org/1999/xlink" ffdec:objectType="shape" height="74.95px" width="1041.05px" xmlns="http://www.w3.org/2000/svg">
  <g transform="matrix(1.0, 0.0, 0.0, 1.0, 0.0, 0.0)">
    <path d="M962.25 46.25 Q964.1 42.5 967.45 40.1 973.85 35.5 987.1 34.75 L1010.85 33.5 Q1017.25 33.15 1019.7 31.45 1023.0 29.15 1023.0 23.3 1023.0 17.15 1018.55 15.2 1015.85 14.15 1008.4 14.15 L995.9 14.15 Q984.75 14.15 982.0 15.65 977.75 18.15 977.85 27.65 L959.9 27.65 Q959.9 12.5 965.65 6.25 971.45 0.0 986.8 0.0 L1013.8 0.0 Q1029.0 0.0 1034.75 4.75 1041.05 10.0 1041.05 24.85 1041.05 41.4 1025.05 46.25 L962.25 46.25 M853.05 46.25 L853.15 41.2 853.3 33.9 846.8 33.9 846.8 21.6 853.3 21.6 853.3 11.35 871.25 11.35 871.25 21.6 904.75 21.6 904.75 33.9 871.25 33.9 871.25 46.25 853.05 46.25 M775.55 46.25 Q773.85 42.3 773.85 35.95 773.85 21.35 794.8 21.35 L818.8 21.35 Q829.9 21.35 834.55 24.25 840.7 28.05 840.7 38.25 L824.65 38.25 Q824.75 32.5 815.35 32.5 L795.05 32.5 Q788.45 32.5 788.45 36.9 788.45 41.65 794.55 41.65 L818.9 41.65 Q831.55 41.65 836.9 46.25 L775.55 46.25 M699.8 46.25 L699.8 21.6 717.7 21.6 717.7 29.4 Q721.05 25.05 724.4 23.3 727.75 21.6 733.05 21.6 L742.05 21.6 Q765.35 21.6 765.35 43.3 L747.4 43.3 Q746.25 38.25 744.2 36.2 741.8 33.9 736.6 33.9 L730.0 33.9 Q724.6 33.9 721.15 37.6 717.85 41.2 717.7 46.25 L699.8 46.25 M670.9 46.25 L670.9 21.6 688.85 21.6 688.85 46.25 670.9 46.25 M615.1 46.25 L615.1 21.6 633.05 21.6 633.05 46.25 615.1 46.25 M520.2 46.25 L520.2 0.0 574.2 0.0 Q586.05 0.0 592.15 3.45 600.0 7.85 600.0 18.8 600.0 26.0 598.65 29.15 596.55 33.6 590.7 35.4 597.6 37.65 600.3 41.55 601.6 43.45 602.3 46.25 L583.75 46.25 582.35 44.85 Q580.4 43.6 574.75 43.6 L538.15 43.6 538.15 46.25 520.2 46.25 M574.65 14.15 L538.15 14.15 538.15 30.35 574.75 30.35 Q578.3 30.35 580.4 27.75 582.05 25.35 582.05 21.6 582.05 14.15 574.65 14.15 M401.4 46.25 Q403.0 44.25 405.6 43.0 410.5 40.7 420.3 40.7 L442.0 40.7 Q449.05 40.7 451.95 45.9 L451.95 39.2 Q451.95 34.95 448.95 33.6 446.95 32.7 442.1 32.7 L423.15 32.7 417.8 33.0 Q416.15 33.7 416.15 37.05 L399.15 37.05 Q399.15 21.6 420.7 21.6 L447.2 21.6 Q469.85 21.6 469.85 40.4 L469.85 46.25 401.4 46.25 M369.5 46.25 L369.5 45.55 Q369.5 37.25 365.05 35.1 362.4 33.9 352.7 33.9 339.25 33.9 339.2 46.25 L321.25 46.25 321.25 46.1 Q321.25 37.65 315.9 35.3 312.85 33.9 303.05 33.9 291.05 33.9 291.05 46.0 L291.05 46.25 273.1 46.25 273.1 21.6 291.05 21.6 291.05 29.9 Q295.25 24.75 300.0 22.9 303.65 21.45 309.95 21.45 L314.05 21.45 318.6 21.6 Q332.7 21.6 336.85 29.4 340.85 23.4 348.7 22.0 351.3 21.6 363.3 21.6 387.4 21.6 387.4 42.0 L387.4 46.25 369.5 46.25 M221.25 46.25 L239.9 33.9 200.15 33.9 200.15 21.6 262.05 21.6 262.05 35.4 246.0 46.25 221.25 46.25 M120.7 46.25 Q122.3 44.25 124.9 43.0 129.8 40.7 139.6 40.7 L161.3 40.7 Q168.35 40.7 171.25 45.9 L171.25 39.2 Q171.25 34.95 168.25 33.6 166.25 32.7 161.4 32.7 L142.45 32.7 137.1 33.0 Q135.45 33.7 135.45 37.05 L118.45 37.05 Q118.45 21.6 140.0 21.6 L166.5 21.6 Q189.15 21.6 189.15 40.4 L189.15 46.25 120.7 46.25 M87.35 46.25 L87.35 0.0 105.3 0.0 105.3 46.25 87.35 46.25 M0.0 46.25 L0.0 0.0 51.05 0.0 Q65.25 0.0 71.3 6.0 77.45 12.1 77.45 26.2 77.45 40.0 71.55 46.25 L0.0 46.25 M47.85 14.9 L17.95 14.9 17.95 37.95 47.85 37.95 Q54.35 37.95 56.9 35.25 59.5 32.6 59.5 26.2 59.5 20.0 56.85 17.4 54.25 14.9 47.85 14.9" fill="url(#gradient0)" fill-rule="evenodd" stroke="none"/>
    <path d="M1025.05 46.25 L1024.55 46.4 Q1018.9 48.15 994.25 49.25 977.85 49.9 977.85 56.8 L977.85 60.8 1040.9 60.8 1040.9 74.95 959.9 74.95 959.9 57.85 Q959.9 51.0 962.25 46.25 L1025.05 46.25 M871.25 46.25 L871.25 53.1 Q871.25 62.65 879.8 62.65 L887.2 62.65 Q894.35 62.65 894.25 53.1 L912.15 53.1 Q912.15 65.45 905.35 70.5 899.3 74.95 886.25 74.95 L874.95 74.95 Q861.65 74.95 856.65 67.1 853.0 61.25 853.0 48.45 L853.05 46.25 871.25 46.25 M836.9 46.25 Q840.7 49.55 840.7 55.3 L840.7 58.75 Q840.7 74.95 819.2 74.95 L793.75 74.95 Q783.8 74.95 779.0 71.35 773.4 67.4 773.4 57.85 L788.45 57.85 Q788.35 63.8 795.45 63.8 L817.5 63.8 Q824.65 63.8 824.65 59.4 824.65 54.0 817.15 54.0 L791.55 54.0 Q781.75 54.0 777.8 49.85 776.4 48.4 775.55 46.25 L836.9 46.25 M717.7 46.25 L717.7 46.75 717.7 74.95 699.8 74.95 699.8 46.25 717.7 46.25 M688.85 46.25 L688.85 74.95 670.9 74.95 670.9 68.15 Q666.35 74.95 655.5 74.95 L638.3 74.95 Q627.3 74.95 621.15 69.15 615.1 63.4 615.1 52.4 L615.1 46.25 633.05 46.25 633.05 48.05 Q633.05 62.65 648.45 62.65 L655.5 62.65 Q662.4 62.65 666.65 58.8 670.9 54.95 670.9 48.05 L670.9 46.25 688.85 46.25 M602.3 46.25 Q602.95 49.1 602.95 52.9 602.95 65.15 596.35 70.3 590.4 74.95 577.9 74.95 L520.2 74.95 520.2 46.25 538.15 46.25 538.15 60.8 574.1 60.8 Q580.4 60.8 582.45 59.5 585.0 57.75 585.0 52.05 585.0 48.2 583.75 46.25 L602.3 46.25 M469.85 46.25 L469.85 74.95 451.95 74.95 451.95 68.9 Q449.35 72.45 447.1 73.7 444.8 74.95 440.6 74.95 L416.65 74.95 Q398.7 74.95 398.7 61.35 L398.7 54.85 Q398.7 49.55 401.4 46.25 L469.85 46.25 M418.8 63.0 Q420.5 63.8 424.7 63.8 L443.2 63.8 Q447.5 63.8 449.35 63.0 451.95 61.65 451.95 57.85 451.95 54.1 449.35 52.8 447.4 51.85 443.2 51.85 L424.7 51.85 Q420.4 51.85 418.7 52.8 416.15 54.1 416.15 57.85 416.15 61.55 418.8 63.0 M369.5 46.25 L387.4 46.25 387.4 74.95 369.5 74.95 369.5 46.25 M273.1 46.25 L291.05 46.25 291.05 74.95 273.1 74.95 273.1 46.25 M321.25 46.25 L339.2 46.25 339.2 74.95 321.25 74.95 321.25 46.25 M246.0 46.25 L221.65 62.65 262.05 62.65 262.05 74.95 199.6 74.95 199.6 60.6 221.25 46.25 246.0 46.25 M189.15 46.25 L189.15 74.95 171.25 74.95 171.25 68.9 Q168.65 72.45 166.4 73.7 164.1 74.95 159.9 74.95 L135.95 74.95 Q118.0 74.95 118.0 61.35 L118.0 54.85 Q118.0 49.55 120.7 46.25 L189.15 46.25 M171.25 57.85 Q171.25 54.1 168.65 52.8 166.7 51.85 162.5 51.85 L144.0 51.85 Q139.7 51.85 138.0 52.8 135.45 54.1 135.45 57.85 135.45 61.55 138.1 63.0 139.8 63.8 144.0 63.8 L162.5 63.8 Q166.8 63.8 168.65 63.0 171.25 61.65 171.25 57.85 M105.3 46.25 L105.3 74.95 87.35 74.95 87.35 46.25 105.3 46.25 M71.55 46.25 L71.3 46.5 Q65.25 52.8 51.3 52.8 L17.95 52.8 17.95 74.95 0.0 74.95 0.0 46.25 71.55 46.25" fill="url(#gradient1)" fill-rule="evenodd" stroke="none"/>
  </g>
  <defs>
    <linearGradient gradientTransform="matrix(0.0, 0.0266, -0.0501, 0.0, 561.25, 22.05)" gradientUnits="userSpaceOnUse" id="gradient0" spreadMethod="pad" x1="-819.2" x2="819.2">
      <stop offset="0.0" stop-color="#e1e1e1"/>
      <stop offset="1.0" stop-color="#e2e2e2"/>
    </linearGradient>
    <linearGradient gradientTransform="matrix(0.0, 0.0165, -0.0411, 0.0, 807.05, 60.2)" gradientUnits="userSpaceOnUse" id="gradient1" spreadMethod="pad" x1="-819.2" x2="819.2">
      <stop offset="0.0" stop-color="#cbcbcb"/>
      <stop offset="0.19607843137254902" stop-color="#cbcbcb"/>
      <stop offset="0.49411764705882355" stop-color="#d9d9d9"/>
      <stop offset="0.9058823529411765" stop-color="#dadada"/>
      <stop offset="1.0" stop-color="#d0d0d0"/>
    </linearGradient>
  </defs>
</svg>
