<?xml version="1.0" encoding="UTF-8" standalone="no"?>
<svg xmlns:xlink="http://www.w3.org/1999/xlink" height="10.0px" width="16.6px" xmlns="http://www.w3.org/2000/svg">
  <g transform="matrix(1.0, 0.0, 0.0, 1.0, 4.6, 2.5)">
    <path d="M10.3 0.35 L10.35 2.15 9.0 2.15 8.6 3.45 5.1 3.45 5.1 0.6 8.75 0.6 10.3 0.35 M2.25 2.55 L2.2 2.7 1.3 2.65 Q0.35 5.8 0.35 6.95 L-1.45 6.95 -3.7 6.45 -2.2 1.1 Q-0.75 0.3 1.95 0.6 L2.75 0.6 2.25 2.55 M-0.5 4.85 L-1.65 3.45 -0.5 4.85 M-0.9 5.95 L-2.05 4.5 -0.9 5.95 M-0.05 3.7 L-1.2 2.15 -0.05 3.7 M9.0 2.15 L8.75 0.6 9.0 2.15 M1.95 0.6 L1.3 2.65 1.95 0.6" fill="#1d1f1f" fill-rule="evenodd" stroke="none"/>
    <path d="M0.25 -0.15 L0.65 -1.2 0.25 -0.15 M1.4 -0.15 L1.75 -1.2 1.4 -0.15 M9.45 -0.15 L9.8 -1.2 9.45 -0.15 M8.3 -0.15 L8.7 -1.2 8.3 -0.15 M-2.2 1.1 L-4.1 0.15 -4.1 -1.95 -1.8 -1.95 2.65 -1.95 11.45 -1.95 11.5 0.35 10.3 0.35 8.75 0.6 5.1 0.6 3.55 0.6 2.75 0.6 1.95 0.6 Q-0.75 0.3 -2.2 1.1 M-0.85 -0.15 L-0.45 -1.2 -0.85 -0.15" fill="#525857" fill-rule="evenodd" stroke="none"/>
    <path d="M-2.2 1.1 L-4.1 0.15 -4.1 -1.95 -1.8 -1.95 2.65 -1.95 11.45 -1.95 11.5 0.35 10.3 0.35 10.35 2.15 9.0 2.15 8.6 3.45 5.1 3.45 2.25 2.55 2.2 2.7 1.3 2.65 Q0.35 5.8 0.35 6.95 L-1.45 6.95 -3.7 6.45 -2.2 1.1 Q-0.75 0.3 1.95 0.6 L2.75 0.6 3.55 0.6 5.1 0.6 8.75 0.6 10.3 0.35 M8.75 0.6 L9.0 2.15 M5.1 3.45 L5.1 0.6 M1.3 2.65 L1.95 0.6 M2.75 0.6 L2.25 2.55 M3.55 0.6 L3.35 1.75" fill="none" stroke="#0d0d0d" stroke-linecap="round" stroke-linejoin="round" stroke-width="1.0"/>
    <path d="M-1.2 2.15 L-0.05 3.7 M-2.05 4.5 L-0.9 5.95 M-1.65 3.45 L-0.5 4.85" fill="none" stroke="#141616" stroke-linecap="round" stroke-linejoin="round" stroke-width="1.0"/>
    <path d="M8.7 -1.2 L8.3 -0.15 M9.8 -1.2 L9.45 -0.15 M1.75 -1.2 L1.4 -0.15 M0.65 -1.2 L0.25 -0.15 M-0.45 -1.2 L-0.85 -0.15" fill="none" stroke="#292c2b" stroke-linecap="round" stroke-linejoin="round" stroke-width="1.0"/>
  </g>
</svg>
