<?xml version="1.0" encoding="UTF-8" standalone="no"?>
<svg xmlns:ffdec="https://www.free-decompiler.com/flash" xmlns:xlink="http://www.w3.org/1999/xlink" ffdec:objectType="shape" height="10.9px" width="9.4px" xmlns="http://www.w3.org/2000/svg">
  <g transform="matrix(1.0, 0.0, 0.0, 1.0, 4.7, 5.45)">
    <path d="M2.25 -3.35 L3.8 -3.25 4.2 -0.55 3.0 0.75 1.4 1.6 0.85 4.8 0.0 4.95 -0.85 4.8 -1.4 1.6 -3.0 0.75 -4.2 -0.55 -3.8 -3.25 -2.25 -3.35 -1.35 -2.45 1.35 -2.45 2.25 -3.35" fill="#939328" fill-rule="evenodd" stroke="none"/>
    <path d="M2.25 -3.35 L1.35 -2.45 -1.35 -2.45 -2.25 -3.35 -2.1 -3.55 Q-1.3 -4.95 -0.1 -4.95 1.3 -4.95 2.1 -3.55 L2.25 -3.35 M-3.0 0.75 L-1.4 1.6 -0.85 4.8 Q-1.55 4.45 -2.1 3.5 -2.8 2.35 -3.0 0.75 M0.85 4.8 L1.4 1.6 3.0 0.75 Q2.8 2.35 2.1 3.5 1.55 4.45 0.85 4.8" fill="#015265" fill-rule="evenodd" stroke="none"/>
    <path d="M3.0 0.75 L4.2 -0.55 3.8 -3.25 2.25 -3.35 1.35 -2.45 -1.35 -2.45 -2.25 -3.35 -3.8 -3.25 -4.2 -0.55 -3.0 0.75 -1.4 1.6 -0.85 4.8 0.0 4.95 0.85 4.8 1.4 1.6 3.0 0.75" fill="none" stroke="#4a4913" stroke-linecap="round" stroke-linejoin="round" stroke-width="1.0"/>
    <path d="M3.0 0.75 Q2.8 2.35 2.1 3.5 1.55 4.45 0.85 4.8 M2.25 -3.35 L2.1 -3.55 Q1.3 -4.95 -0.1 -4.95 -1.3 -4.95 -2.1 -3.55 L-2.25 -3.35 M-3.0 0.75 Q-2.8 2.35 -2.1 3.5 -1.55 4.45 -0.85 4.8" fill="none" stroke="#01303a" stroke-linecap="round" stroke-linejoin="round" stroke-width="1.0"/>
    <path d="M-0.75 -1.15 L-0.2 -1.15 1.35 -1.15 M-0.2 -1.15 L-0.2 -0.3 0.7 -0.3 M-0.2 -0.3 L-0.2 0.55" ffdec:has-small-stroke="true" ffdec:original-stroke-width="0.5" fill="none" stroke="#2c2014" stroke-linecap="round" stroke-linejoin="round" stroke-width="1.0"/>
  </g>
</svg>
