<?xml version="1.0" encoding="UTF-8" standalone="no"?>
<svg xmlns:ffdec="https://www.free-decompiler.com/flash" xmlns:xlink="http://www.w3.org/1999/xlink" ffdec:objectType="shape" height="14.4px" width="10.4px" xmlns="http://www.w3.org/2000/svg">
  <g transform="matrix(1.0, 0.0, 0.0, 1.0, 5.2, 7.45)">
    <path d="M3.5 0.75 Q3.75 0.8 3.55 1.4 L2.8 3.2 Q1.9 5.6 0.85 6.3 L1.9 2.6 3.5 0.75 M-0.85 6.3 Q-3.6 2.8 -3.5 0.75 L-1.9 2.6 -0.85 6.3 M-2.25 -5.35 L-2.1 -5.55 Q-1.3 -6.95 -0.1 -6.95 1.3 -6.95 2.1 -5.55 L2.25 -5.35 1.35 -0.95 Q-0.15 3.1 -1.35 -0.95 L-2.25 -5.35" fill="#015265" fill-rule="evenodd" stroke="none"/>
    <path d="M2.25 -5.35 L4.3 -5.25 4.7 -0.55 3.5 0.75 1.9 2.6 0.85 6.3 0.0 6.45 -0.85 6.3 -1.9 2.6 -3.5 0.75 -4.7 -0.55 -4.3 -5.25 -2.25 -5.35 -1.35 -0.95 Q-0.15 3.1 1.35 -0.95 L2.25 -5.35" fill="#d21c1c" fill-rule="evenodd" stroke="none"/>
    <path d="M3.5 0.75 Q3.75 0.8 3.55 1.4 L2.8 3.2 Q1.9 5.6 0.85 6.3 M-0.85 6.3 Q-3.6 2.8 -3.5 0.75 M-2.25 -5.35 L-2.1 -5.55 Q-1.3 -6.95 -0.1 -6.95 1.3 -6.95 2.1 -5.55 L2.25 -5.35" fill="none" stroke="#01303a" stroke-linecap="round" stroke-linejoin="round" stroke-width="1.0"/>
    <path d="M2.25 -5.35 L4.3 -5.25 4.7 -0.55 3.5 0.75 1.9 2.6 0.85 6.3 0.0 6.45 -0.85 6.3 -1.9 2.6 -3.5 0.75 -4.7 -0.55 -4.3 -5.25 -2.25 -5.35 -1.35 -0.95 Q-0.15 3.1 1.35 -0.95 L2.25 -5.35 Z" fill="none" stroke="#640202" stroke-linecap="round" stroke-linejoin="round" stroke-width="1.0"/>
  </g>
</svg>
