<?xml version="1.0" encoding="UTF-8" standalone="no"?>
<svg xmlns:ffdec="https://www.free-decompiler.com/flash" xmlns:xlink="http://www.w3.org/1999/xlink" ffdec:objectType="shape" height="18.0px" width="103.65px" xmlns="http://www.w3.org/2000/svg">
  <g transform="matrix(1.0, 0.0, 0.0, 1.0, 35.8, 9.0)">
    <path d="M18.05 -1.75 L18.05 9.0 13.95 9.0 13.95 -1.15 18.05 -1.75 M26.35 -3.0 L26.35 9.0 22.2 9.0 22.2 -2.4 26.35 -3.0 M34.65 -4.2 L34.65 9.0 30.5 9.0 30.5 -3.6 34.65 -4.2 M59.55 -7.8 L59.55 9.0 55.4 9.0 55.4 -7.2 59.55 -7.8 M51.25 -6.6 L51.25 9.0 47.1 9.0 47.1 -6.0 51.25 -6.6 M67.85 -9.0 L67.85 9.0 63.7 9.0 63.7 -8.4 67.85 -9.0 M42.95 -5.4 L42.95 9.0 38.8 9.0 38.8 -4.8 42.95 -5.4 M1.5 0.65 L1.5 9.0 -2.65 9.0 -2.65 1.25 1.5 0.65 M5.65 0.05 L9.8 -0.55 9.8 9.0 5.65 9.0 5.65 0.05 M-6.8 1.85 L-6.8 9.0 -10.95 9.0 -10.95 2.45 -6.8 1.85 M-19.25 3.65 L-15.1 3.05 -15.1 9.0 -19.25 9.0 -19.25 3.65 M-27.55 9.0 L-27.55 4.85 -23.4 4.25 -23.4 9.0 -27.55 9.0 M-31.7 5.45 L-31.7 9.0 -35.8 9.0 -35.8 6.05 -31.7 5.45" fill="#ffffff" fill-rule="evenodd" stroke="none"/>
  </g>
</svg>
