<?xml version="1.0" encoding="UTF-8" standalone="no"?>
<svg xmlns:ffdec="https://www.free-decompiler.com/flash" xmlns:xlink="http://www.w3.org/1999/xlink" ffdec:objectType="shape" height="25.0px" width="25.0px" xmlns="http://www.w3.org/2000/svg">
  <g transform="matrix(1.0, 0.0, 0.0, 1.0, 12.5, 12.5)">
    <path d="M12.0 -5.0 L12.0 5.05 5.0 5.05 5.0 12.0 -5.05 12.0 -5.05 5.05 -12.0 5.05 -12.0 -5.0 -5.05 -5.0 -5.05 -12.0 5.0 -12.0 5.0 -5.0 12.0 -5.0" fill="#ff1a1a" fill-rule="evenodd" stroke="none"/>
    <path d="M12.0 -5.0 L12.0 5.05 5.0 5.05 5.0 12.0 -5.05 12.0 -5.05 5.05 -12.0 5.05 -12.0 -5.0 -5.05 -5.0 -5.05 -12.0 5.0 -12.0 5.0 -5.0 12.0 -5.0 Z" fill="none" stroke="#140e0e" stroke-linecap="round" stroke-linejoin="round" stroke-width="1.0"/>
  </g>
</svg>
