<?xml version="1.0" encoding="UTF-8" standalone="no"?>
<svg xmlns:xlink="http://www.w3.org/1999/xlink" height="113.3px" width="219.0px" xmlns="http://www.w3.org/2000/svg">
  <g transform="matrix(1.0, 0.0, 0.0, 1.0, 109.5, 56.65)">
    <path d="M26.15 -26.2 Q37.0 -15.35 37.0 0.0 37.0 15.35 26.15 26.15 15.35 37.0 0.0 37.0 -15.35 37.0 -26.2 26.15 -37.0 15.35 -37.0 0.0 -37.0 -15.35 -26.2 -26.2 -15.35 -37.0 0.0 -37.0 15.35 -37.0 26.15 -26.2" fill="url(#gradient0)" fill-rule="evenodd" stroke="none"/>
    <path d="M-56.1 -56.15 L-55.6 -56.65 56.7 55.65 56.2 56.15 55.7 56.65 -56.6 -55.65 -56.1 -56.15" fill="url(#gradient1)" fill-rule="evenodd" stroke="none"/>
    <path d="M57.05 -55.65 L-55.25 56.65 -55.75 56.15 -56.25 55.65 56.05 -56.65 56.55 -56.15 57.05 -55.65" fill="url(#gradient2)" fill-rule="evenodd" stroke="none"/>
    <path d="M109.5 1.0 L-109.5 1.0 -109.5 0.0 -109.5 -1.0 109.5 -1.0 109.5 0.0 109.5 1.0" fill="url(#gradient3)" fill-rule="evenodd" stroke="none"/>
  </g>
  <defs>
    <radialGradient cx="0" cy="0" gradientTransform="matrix(0.0455, 0.0, 0.0, 0.0455, 0.0, 0.0)" gradientUnits="userSpaceOnUse" id="gradient0" r="819.2" spreadMethod="pad">
      <stop offset="0.0" stop-color="#ff8091"/>
      <stop offset="0.26666666666666666" stop-color="#ff3e47" stop-opacity="0.8"/>
      <stop offset="1.0" stop-color="#ff3e47" stop-opacity="0.0"/>
      <stop offset="1.0" stop-color="#ff3e47" stop-opacity="0.0"/>
    </radialGradient>
    <radialGradient cx="0" cy="0" gradientTransform="matrix(0.069, 0.069, -0.069, 0.069, 0.05, 0.0)" gradientUnits="userSpaceOnUse" id="gradient1" r="819.2" spreadMethod="pad">
      <stop offset="0.0" stop-color="#ff3e47" stop-opacity="0.4"/>
      <stop offset="1.0" stop-color="#ff3e47" stop-opacity="0.0"/>
    </radialGradient>
    <radialGradient cx="0" cy="0" gradientTransform="matrix(-0.069, 0.069, -0.069, -0.069, 0.4, 0.0)" gradientUnits="userSpaceOnUse" id="gradient2" r="819.2" spreadMethod="pad">
      <stop offset="0.0" stop-color="#ff3e47" stop-opacity="0.2"/>
      <stop offset="1.0" stop-color="#ff3e47" stop-opacity="0.0"/>
    </radialGradient>
    <radialGradient cx="0" cy="0" gradientTransform="matrix(0.1346, 0.0, 0.0, 0.1346, 0.0, 0.0)" gradientUnits="userSpaceOnUse" id="gradient3" r="819.2" spreadMethod="pad">
      <stop offset="0.0" stop-color="#ff3e47"/>
      <stop offset="1.0" stop-color="#ff3e47" stop-opacity="0.0"/>
    </radialGradient>
  </defs>
</svg>
