<?xml version="1.0" encoding="UTF-8" standalone="no"?>
<svg xmlns:xlink="http://www.w3.org/1999/xlink" height="18.55px" width="89.1px" xmlns="http://www.w3.org/2000/svg">
  <g transform="matrix(1.0, 0.0, 0.0, 1.0, 20.35, 9.85)">
    <path d="M12.35 -3.9 L12.15 -4.95 11.55 -5.85 8.3 -5.9 8.0 -6.15 5.45 -6.15 2.15 -5.4 -4.55 -5.25 -5.45 -6.5 -5.35 -8.35 2.2 -8.4 5.5 -7.7 8.55 -7.7 8.9 -8.4 10.9 -8.45 11.4 -9.35 15.0 -9.35 16.0 -8.25 17.25 -8.25 18.4 -6.95 20.6 -6.95 21.7 -8.25 25.75 -8.25 25.15 -7.3 22.9 -6.65 22.5 -5.65 14.25 -5.8 13.7 -4.8 13.75 -3.9 12.35 -3.9 M22.7 -4.25 L30.6 -4.25 33.35 -2.2 35.65 -2.2 37.35 -1.15 39.85 -1.15 41.05 -2.35 41.05 -4.2 43.5 -4.2 44.15 -3.25 44.15 -1.15 42.3 1.15 36.45 1.15 35.7 0.7 34.4 -0.1 32.55 -0.1 29.0 -0.15 27.45 -0.15 23.25 -1.4 22.5 -3.45 22.7 -4.25 M12.55 2.25 L11.35 2.25 10.95 0.9 8.5 0.95 7.6 1.7 4.05 1.8 3.05 1.8 2.75 1.7 1.8 2.65 1.4 3.55 1.45 3.95 1.65 5.35 1.25 7.35 -2.6 6.8 -3.5 5.35 -5.75 5.35 -18.25 7.45 -18.65 2.05 -19.8 0.55 -19.85 -1.15 -15.25 -1.2 -14.25 -3.1 -5.85 -3.05 -4.85 -1.55 -1.25 -1.2 -0.1 -2.3 0.65 -2.3 3.95 -2.3 6.2 -0.6 8.9 -0.3 12.2 -0.55 Q12.55 1.3 13.85 2.25 L12.55 2.25 M11.55 -5.85 L14.25 -5.8 11.55 -5.85 M4.95 0.95 L5.25 0.2 4.95 0.95 M3.75 0.9 L4.15 -0.25 3.75 0.9 M-1.25 -1.2 L2.1 -0.65 2.75 1.7 2.1 -0.65 -1.25 -1.2 M-1.3 2.95 L-2.15 1.9 -1.65 0.15 -7.35 -0.1 -7.95 1.15 -9.95 1.4 -10.55 3.7 -10.15 4.95 -5.8 4.15 -3.25 4.05 -1.3 2.95" fill="#222222" fill-rule="evenodd" stroke="none"/>
    <path d="M13.75 -3.9 L16.25 -4.25 21.85 -4.45 22.7 -4.25 22.5 -3.45 23.25 -1.4 27.45 -0.15 27.7 0.3 27.3 0.7 26.4 1.55 25.65 2.25 23.0 2.25 21.55 1.15 20.45 2.2 20.0 3.3 18.75 3.3 18.7 3.9 18.9 5.1 19.1 6.35 12.8 8.2 12.6 6.5 12.45 5.15 12.55 2.25 13.85 2.25 Q12.55 1.3 12.2 -0.55 L8.9 -0.3 6.2 -0.6 3.95 -2.3 0.65 -2.3 2.0 -3.85 4.25 -3.85 4.7 -5.05 6.65 -5.05 9.0 -5.1 10.6 -5.1 11.75 -3.9 12.35 -3.9 13.75 -3.9 M44.15 -3.25 L62.0 -3.1 63.35 -4.15 67.3 -4.25 68.25 -3.55 68.2 -3.1 68.0 -2.4 68.0 -1.15 44.15 -1.15 44.15 -3.25 M9.0 -5.1 L9.0 -3.1 6.65 -3.45 6.65 -5.05 6.65 -3.45 9.0 -3.1 9.0 -5.1 M11.75 -3.9 L9.0 -3.1 11.75 -3.9 M19.7 -1.45 L15.95 -1.45 14.5 -1.45 15.95 -1.45 19.7 -1.45 M20.6 -2.75 L15.15 -2.75 20.6 -2.75 M18.9 5.1 L12.6 6.5 18.9 5.1 M13.85 2.25 L13.9 2.25 15.0 3.2 18.75 3.3 15.0 3.2 13.9 2.25 13.85 2.25 M19.55 1.2 L19.55 0.2 19.55 1.2 M15.95 1.1 L15.95 0.0 17.7 0.0 15.95 0.0 15.95 1.1 M15.95 0.0 L15.95 -1.45 15.95 0.0" fill="#404040" fill-rule="evenodd" stroke="none"/>
    <path d="M17.25 -8.25 L21.7 -8.25 20.6 -6.95 18.4 -6.95 17.25 -8.25 M30.6 -4.25 L41.05 -4.2 41.05 -2.35 39.85 -1.15 37.35 -1.15 35.65 -2.2 33.35 -2.2 30.6 -4.25 M23.0 2.25 L21.65 3.35 20.0 3.3 20.45 2.2 21.55 1.15 23.0 2.25" fill="#dddddd" fill-rule="evenodd" stroke="none"/>
    <path d="M3.8 3.95 L1.45 3.95 1.4 3.55 1.8 2.65 2.75 1.7 3.05 1.8 4.05 1.8 3.5 2.85 3.8 3.95" fill="#641c1c" fill-rule="evenodd" stroke="none"/>
    <path d="M12.35 -3.9 L12.15 -4.95 11.55 -5.85 8.3 -5.9 8.0 -6.15 5.45 -6.15 2.15 -5.4 -4.55 -5.25 -5.45 -6.5 -5.35 -8.35 2.2 -8.4 5.5 -7.7 8.55 -7.7 8.9 -8.4 10.9 -8.45 11.4 -9.35 15.0 -9.35 16.0 -8.25 17.25 -8.25 21.7 -8.25 25.75 -8.25 25.15 -7.3 22.9 -6.65 22.5 -5.65 14.25 -5.8 13.7 -4.8 13.75 -3.9 16.25 -4.25 21.85 -4.45 22.7 -4.25 30.6 -4.25 41.05 -4.2 43.5 -4.2 44.15 -3.25 62.0 -3.1 63.35 -4.15 67.3 -4.25 68.25 -3.55 68.2 -3.1 68.0 -2.4 68.0 -1.15 44.15 -1.15 42.3 1.15 36.45 1.15 35.7 0.7 34.4 1.55 34.15 1.55 30.8 1.55 28.05 1.55 27.9 1.55 26.4 1.55 25.65 2.25 23.0 2.25 21.65 3.35 20.0 3.3 18.75 3.3 18.7 3.9 18.9 5.1 19.1 6.35 12.8 8.2 12.6 6.5 12.45 5.15 12.55 2.25 11.35 2.25 10.95 0.9 8.5 0.95 7.6 1.7 7.15 3.25 5.8 3.95 3.8 3.95 1.45 3.95 1.65 5.35 1.25 7.35 -2.6 6.8 -3.5 5.35 -5.75 5.35 -18.25 7.45 -18.65 2.05 -19.8 0.55 -19.85 -1.15 -15.25 -1.2 -14.25 -3.1 -5.85 -3.05 -4.85 -1.55 -1.25 -1.2 -0.1 -2.3 0.65 -2.3 2.0 -3.85 4.25 -3.85 4.7 -5.05 6.65 -5.05 9.0 -5.1 10.6 -5.1 11.75 -3.9 12.35 -3.9 13.75 -3.9 M12.55 2.25 L13.85 2.25 Q12.55 1.3 12.2 -0.55 L8.9 -0.3 6.2 -0.6 3.95 -2.3 0.65 -2.3 M6.65 -5.05 L6.65 -3.45 9.0 -3.1 9.0 -5.1 M17.25 -8.25 L18.4 -6.95 20.6 -6.95 21.7 -8.25 M14.25 -5.8 L11.55 -5.85 M14.5 -1.45 L15.95 -1.45 19.7 -1.45 M9.0 -3.1 L11.75 -3.9 M22.7 -4.25 L22.5 -3.45 23.25 -1.4 27.45 -0.15 29.0 -0.15 32.55 -0.1 34.4 -0.1 35.7 0.7 M30.6 -4.25 L33.35 -2.2 35.65 -2.2 37.35 -1.15 39.85 -1.15 41.05 -2.35 41.05 -4.2 M15.15 -2.75 L20.6 -2.75 M44.15 -3.25 L44.15 -1.15 M27.45 -0.15 L27.7 0.3 27.3 0.7 27.9 1.55 M27.3 0.7 L26.4 1.55 M30.8 1.55 L29.2 0.05 28.05 1.55 M23.0 2.25 L21.55 1.15 20.45 2.2 20.0 3.3 M17.7 0.0 L15.95 0.0 15.95 1.1 M19.55 0.2 L19.55 1.2 M18.75 3.3 L15.0 3.2 13.9 2.25 13.85 2.25 M12.6 6.5 L18.9 5.1 M4.05 1.8 L3.05 1.8 2.75 1.7 1.8 2.65 1.4 3.55 1.45 3.95 M5.25 0.2 L4.95 0.95 M4.05 1.8 L7.6 1.7 M29.0 -0.15 L29.2 0.05 M34.15 1.55 L32.55 -0.1 30.8 1.55 M2.75 1.7 L2.1 -0.65 -1.25 -1.2 M4.15 -0.25 L3.75 0.9 M15.95 -1.45 L15.95 0.0 M-1.3 2.95 L-2.15 1.9 -1.65 0.15 -7.35 -0.1 -7.95 1.15 -9.95 1.4 -10.55 3.7 -10.15 4.95 -5.8 4.15 -3.25 4.05 -1.3 2.95" fill="none" stroke="#1a1a1a" stroke-linecap="round" stroke-linejoin="round" stroke-width="1.0"/>
  </g>
</svg>
