<?xml version="1.0" encoding="UTF-8" standalone="no"?>
<svg xmlns:xlink="http://www.w3.org/1999/xlink" height="15.45px" width="77.0px" xmlns="http://www.w3.org/2000/svg">
  <g transform="matrix(1.0, 0.0, 0.0, 1.0, 38.5, 5.15)">
    <path d="M0.0 -0.8 Q24.0 -2.2 23.1 -4.65 33.2 -4.05 34.1 -3.45 L38.0 0.1 Q37.6 3.65 34.5 5.45 L32.4 5.45 19.0 5.45 18.25 7.2 17.5 8.9 Q17.0 8.95 14.9 8.0 12.8 7.05 12.25 7.05 10.85 5.45 8.4 4.6 5.5 3.65 0.0 3.3 L0.0 -0.8" fill="url(#gradient0)" fill-rule="evenodd" stroke="none"/>
    <path d="M18.25 7.2 L19.0 5.45 32.4 5.45 28.75 7.7 22.75 8.85 18.25 7.2" fill="url(#gradient1)" fill-rule="evenodd" stroke="none"/>
    <path d="M0.0 3.3 Q5.5 3.65 8.4 4.6 10.85 5.45 12.25 7.05 10.0 8.45 7.6 9.05 L0.0 9.8 0.0 3.3" fill="url(#gradient2)" fill-rule="evenodd" stroke="none"/>
    <path d="M0.0 9.8 L-7.6 9.05 Q-10.0 8.45 -12.25 7.05 -10.85 5.45 -8.35 4.6 -5.5 3.65 0.0 3.3 L0.0 9.8" fill="url(#gradient3)" fill-rule="evenodd" stroke="none"/>
    <path d="M0.0 -0.8 L0.0 3.3 Q-5.5 3.65 -8.35 4.6 -10.85 5.45 -12.25 7.05 -12.8 7.05 -14.9 8.0 -17.0 8.95 -17.5 8.9 L-18.25 7.2 -19.0 5.45 -32.4 5.45 -34.5 5.45 Q-37.8 4.6 -38.0 0.1 L-34.1 -3.45 Q-33.2 -4.05 -23.1 -4.65 -24.0 -2.2 0.0 -0.8" fill="url(#gradient4)" fill-rule="evenodd" stroke="none"/>
    <path d="M-18.25 7.2 L-22.75 8.85 -28.75 7.7 -32.4 5.45 -19.0 5.45 -18.25 7.2" fill="url(#gradient5)" fill-rule="evenodd" stroke="none"/>
    <path d="M32.4 5.45 L34.5 5.45 Q37.6 3.65 38.0 0.1 L34.1 -3.45 Q33.2 -4.05 23.1 -4.65 24.0 -2.2 0.0 -0.8 L0.0 3.3 Q5.5 3.65 8.4 4.6 10.85 5.45 12.25 7.05 12.8 7.05 14.9 8.0 17.0 8.95 17.5 8.9 L18.25 7.2 19.0 5.45 32.4 5.45 28.75 7.7 22.75 8.85 18.25 7.2 M12.25 7.05 Q10.0 8.45 7.6 9.05 L0.0 9.8 -7.6 9.05 Q-10.0 8.45 -12.25 7.05 -12.8 7.05 -14.9 8.0 -17.0 8.95 -17.5 8.9 L-18.25 7.2 -22.75 8.85 -28.75 7.7 -32.4 5.45 -34.5 5.45 Q-37.8 4.6 -38.0 0.1 L-34.1 -3.45 Q-33.2 -4.05 -23.1 -4.65 -24.0 -2.2 0.0 -0.8 M0.0 3.3 Q-5.5 3.65 -8.35 4.6 -10.85 5.45 -12.25 7.05 M-32.4 5.45 L-19.0 5.45 -18.25 7.2" fill="none" stroke="#515151" stroke-linecap="round" stroke-linejoin="round" stroke-width="1.0"/>
  </g>
  <defs>
    <linearGradient gradientTransform="matrix(0.0, -0.0103, -0.0342, 0.0, 28.1, 3.8)" gradientUnits="userSpaceOnUse" id="gradient0" spreadMethod="pad" x1="-819.2" x2="819.2">
      <stop offset="0.41568627450980394" stop-color="#777777"/>
      <stop offset="1.0" stop-color="#eeeeee"/>
    </linearGradient>
    <linearGradient gradientTransform="matrix(0.0, 0.0058, -0.0031, 0.0, 25.35, 7.15)" gradientUnits="userSpaceOnUse" id="gradient1" spreadMethod="pad" x1="-819.2" x2="819.2">
      <stop offset="0.0" stop-color="#a2a2a2"/>
      <stop offset="1.0" stop-color="#cccccc"/>
    </linearGradient>
    <linearGradient gradientTransform="matrix(0.0, -0.0034, -0.0087, 0.0, 7.25, 8.55)" gradientUnits="userSpaceOnUse" id="gradient2" spreadMethod="pad" x1="-819.2" x2="819.2">
      <stop offset="0.0" stop-color="#a2a2a2"/>
      <stop offset="1.0" stop-color="#cccccc"/>
    </linearGradient>
    <linearGradient gradientTransform="matrix(0.0, -0.0034, 0.0087, 0.0, -7.25, 8.55)" gradientUnits="userSpaceOnUse" id="gradient3" spreadMethod="pad" x1="-819.2" x2="819.2">
      <stop offset="0.0" stop-color="#a2a2a2"/>
      <stop offset="1.0" stop-color="#cccccc"/>
    </linearGradient>
    <linearGradient gradientTransform="matrix(0.0, -0.0103, 0.0342, 0.0, -28.1, 3.8)" gradientUnits="userSpaceOnUse" id="gradient4" spreadMethod="pad" x1="-819.2" x2="819.2">
      <stop offset="0.41568627450980394" stop-color="#777777"/>
      <stop offset="1.0" stop-color="#eeeeee"/>
    </linearGradient>
    <linearGradient gradientTransform="matrix(0.0, 0.0058, -0.0031, 0.0, -25.35, 7.15)" gradientUnits="userSpaceOnUse" id="gradient5" spreadMethod="pad" x1="-819.2" x2="819.2">
      <stop offset="0.0" stop-color="#a2a2a2"/>
      <stop offset="1.0" stop-color="#cccccc"/>
    </linearGradient>
  </defs>
</svg>
