<?xml version="1.0" encoding="UTF-8" standalone="no"?>
<svg xmlns:ffdec="https://www.free-decompiler.com/flash" xmlns:xlink="http://www.w3.org/1999/xlink" ffdec:objectType="shape" height="18.0px" width="18.0px" xmlns="http://www.w3.org/2000/svg">
  <g transform="matrix(1.0, 0.0, 0.0, 1.0, 0.0, 0.0)">
    <path d="M0.0 0.0 L18.0 0.0 18.0 18.0 0.0 18.0 0.0 0.0" fill="#1e1e1e" fill-rule="evenodd" stroke="none"/>
    <path d="M2.2 9.0 Q2.2 6.25 4.2 4.25 6.2 2.25 8.95 2.25 L7.5 8.25 5.2 5.4 Q3.7 7.0 3.7 9.05 3.7 10.55 4.5 11.8 5.3 13.05 6.6 13.7 L6.0 15.05 Q4.3 14.2 3.25 12.65 2.2 11.0 2.2 9.0" fill="#ffffff" fill-rule="evenodd" stroke="none"/>
    <path d="M15.75 9.05 Q15.75 11.85 13.75 13.8 11.75 15.75 8.95 15.75 L10.5 9.8 12.75 12.65 Q14.25 11.05 14.25 9.0 14.25 7.5 13.45 6.25 12.65 5.0 11.35 4.35 L11.95 3.0 Q13.7 3.85 14.7 5.45 15.75 7.05 15.75 9.05" fill="#ffffff" fill-rule="evenodd" stroke="none"/>
  </g>
</svg>
