<?xml version="1.0" encoding="UTF-8" standalone="no"?>
<svg xmlns:xlink="http://www.w3.org/1999/xlink" height="23.55px" width="31.55px" xmlns="http://www.w3.org/2000/svg">
  <g transform="matrix(1.0, 0.0, 0.0, 1.0, -8.35, 12.35)">
    <path d="M39.9 -0.45 Q39.9 1.1 32.9 2.2 L16.0 3.3 14.35 3.3 14.35 -4.25 16.0 -4.25 32.9 -3.15 Q39.9 -2.05 39.9 -0.45" fill="url(#gradient0)" fill-rule="evenodd" stroke="none"/>
    <path d="M15.05 -12.3 L15.45 -12.35 Q18.05 -12.35 19.9 -8.9 21.75 -5.45 21.75 -0.55 21.75 4.25 19.9 7.75 18.05 11.2 15.45 11.2 L15.05 11.15 15.05 -12.3" fill="url(#gradient1)" fill-rule="evenodd" stroke="none"/>
    <path d="M15.05 11.15 L14.6 11.2 Q12.0 11.2 10.15 7.75 8.35 4.25 8.35 -0.55 8.35 -5.45 10.15 -8.9 12.0 -12.35 14.6 -12.35 L15.05 -12.3 15.05 11.15" fill="url(#gradient2)" fill-rule="evenodd" stroke="none"/>
  </g>
  <defs>
    <radialGradient cx="0" cy="0" gradientTransform="matrix(0.0, 0.0041, -0.0292, 0.0, 15.95, -0.45)" gradientUnits="userSpaceOnUse" id="gradient0" r="819.2" spreadMethod="pad">
      <stop offset="0.17647058823529413" stop-color="#ffffff"/>
      <stop offset="1.0" stop-color="#ffb711" stop-opacity="0.0"/>
    </radialGradient>
    <radialGradient cx="0" cy="0" gradientTransform="matrix(0.0, 0.0128, -0.0076, 0.0, 15.45, -0.6)" gradientUnits="userSpaceOnUse" id="gradient1" r="819.2" spreadMethod="pad">
      <stop offset="0.17647058823529413" stop-color="#ffffff"/>
      <stop offset="1.0" stop-color="#ff8811" stop-opacity="0.0"/>
    </radialGradient>
    <radialGradient cx="0" cy="0" gradientTransform="matrix(0.0, 0.0128, 0.0076, 0.0, 14.6, -0.6)" gradientUnits="userSpaceOnUse" id="gradient2" r="819.2" spreadMethod="pad">
      <stop offset="0.17647058823529413" stop-color="#ffffff"/>
      <stop offset="1.0" stop-color="#ff8811" stop-opacity="0.0"/>
    </radialGradient>
  </defs>
</svg>
