<?xml version="1.0" encoding="UTF-8" standalone="no"?>
<svg xmlns:xlink="http://www.w3.org/1999/xlink" height="26.15px" width="46.75px" xmlns="http://www.w3.org/2000/svg">
  <g transform="matrix(1.0, 0.0, 0.0, 1.0, -15.45, 13.25)">
    <path d="M24.9 -6.3 Q40.35 -6.3 51.3 -4.45 62.2 -2.6 62.2 0.0 62.2 2.6 51.3 4.45 40.35 6.3 24.9 6.3 L22.3 6.3 22.3 -6.25 24.9 -6.3" fill="url(#gradient0)" fill-rule="evenodd" stroke="none"/>
    <path d="M24.2 12.8 L23.65 12.9 Q20.2 12.9 17.8 9.05 15.4 5.2 15.45 -0.15 15.4 -5.55 17.8 -9.4 20.2 -13.25 23.65 -13.2 L24.2 -13.2 24.2 12.8" fill="url(#gradient1)" fill-rule="evenodd" stroke="none"/>
    <path d="M24.2 -13.2 L24.75 -13.2 Q28.15 -13.25 30.6 -9.4 32.95 -5.55 32.95 -0.15 32.95 5.2 30.6 9.05 28.15 12.9 24.75 12.9 L24.2 12.8 24.2 -13.2" fill="url(#gradient2)" fill-rule="evenodd" stroke="none"/>
  </g>
  <defs>
    <radialGradient cx="0" cy="0" gradientTransform="matrix(0.0, 0.0068, -0.0456, 0.0, 24.8, 0.0)" gradientUnits="userSpaceOnUse" id="gradient0" r="819.2" spreadMethod="pad">
      <stop offset="0.17647058823529413" stop-color="#ffffff"/>
      <stop offset="1.0" stop-color="#fe7878" stop-opacity="0.0"/>
    </radialGradient>
    <radialGradient cx="0" cy="0" gradientTransform="matrix(0.0, 0.0142, 0.01, 0.0, 23.65, -0.2)" gradientUnits="userSpaceOnUse" id="gradient1" r="819.2" spreadMethod="pad">
      <stop offset="0.17647058823529413" stop-color="#ffffff"/>
      <stop offset="1.0" stop-color="#fe8989" stop-opacity="0.0"/>
    </radialGradient>
    <radialGradient cx="0" cy="0" gradientTransform="matrix(0.0, 0.0142, -0.01, 0.0, 24.75, -0.2)" gradientUnits="userSpaceOnUse" id="gradient2" r="819.2" spreadMethod="pad">
      <stop offset="0.17647058823529413" stop-color="#ffffff"/>
      <stop offset="1.0" stop-color="#fe8989" stop-opacity="0.0"/>
    </radialGradient>
  </defs>
</svg>
