<?xml version="1.0" encoding="UTF-8" standalone="no"?>
<svg xmlns:xlink="http://www.w3.org/1999/xlink" height="16.0px" width="28.95px" xmlns="http://www.w3.org/2000/svg">
  <g transform="matrix(1.0, 0.0, 0.0, 1.0, -29.15, 7.45)">
    <path d="M38.45 -7.45 L39.1 -7.4 39.7 -7.45 Q43.55 -7.45 46.3 -5.1 49.0 -2.75 49.0 0.55 49.0 3.85 46.3 6.2 43.55 8.55 39.7 8.55 L39.1 8.5 38.45 8.55 Q34.55 8.55 31.85 6.2 29.1 3.85 29.15 0.55 29.1 -2.75 31.85 -5.1 34.55 -7.45 38.45 -7.45" fill="url(#gradient0)" fill-rule="evenodd" stroke="none"/>
    <path d="M44.55 -4.25 L45.4 -4.3 Q50.65 -4.3 54.4 -2.85 58.1 -1.45 58.1 0.6 58.1 2.55 54.4 4.0 50.65 5.4 45.4 5.4 L44.55 5.4 43.7 5.4 Q38.4 5.4 34.7 4.0 30.95 2.55 31.0 0.6 30.95 -1.45 34.7 -2.85 38.4 -4.3 43.7 -4.3 L44.55 -4.25" fill="url(#gradient1)" fill-rule="evenodd" stroke="none"/>
  </g>
  <defs>
    <radialGradient cx="0" cy="0" gradientTransform="matrix(0.0115, 0.0, 0.0, 0.0095, 38.95, 0.45)" gradientUnits="userSpaceOnUse" id="gradient0" r="819.2" spreadMethod="pad">
      <stop offset="0.17647058823529413" stop-color="#ffffff"/>
      <stop offset="1.0" stop-color="#ffb711" stop-opacity="0.0"/>
    </radialGradient>
    <radialGradient cx="0" cy="0" gradientTransform="matrix(0.0157, 0.0, 0.0, 0.0058, 44.4, 0.5)" gradientUnits="userSpaceOnUse" id="gradient1" r="819.2" spreadMethod="pad">
      <stop offset="0.17647058823529413" stop-color="#ffffff"/>
      <stop offset="1.0" stop-color="#ffb711" stop-opacity="0.0"/>
    </radialGradient>
  </defs>
</svg>
