<?xml version="1.0" encoding="UTF-8" standalone="no"?>
<svg xmlns:xlink="http://www.w3.org/1999/xlink" height="21.35px" width="15.1px" xmlns="http://www.w3.org/2000/svg">
  <g transform="matrix(1.0, 0.0, 0.0, 1.0, 8.8, 3.9)">
    <path d="M-1.25 14.65 L-2.3 16.05 Q-3.7 17.0 -4.7 16.95 -5.65 16.9 -6.7 15.85 -7.45 15.1 -7.8 12.6 -6.4 14.25 -4.95 14.7 -3.5 15.15 -1.25 14.65" fill="#333333" fill-rule="evenodd" stroke="none"/>
    <path d="M-4.75 3.8 Q-1.45 4.15 0.8 6.45 0.0 10.2 0.35 10.5 0.65 10.8 -0.3 11.3 -1.25 11.8 -1.05 13.25 -0.8 14.65 -1.25 14.65 -3.5 15.15 -4.95 14.7 -6.4 14.25 -7.8 12.6 -7.2 11.3 -7.25 10.5 L-8.15 9.9 Q-8.55 9.6 -7.9 8.7 L-7.35 8.35 -7.1 8.2 Q-5.55 7.2 -4.75 3.8 M-3.7 10.8 Q-5.25 11.4 -7.25 10.5 -5.25 11.4 -3.7 10.8 M-2.9 8.95 Q-5.3 7.3 -7.1 8.2 -5.3 7.3 -2.9 8.95" fill="#222222" fill-rule="evenodd" stroke="none"/>
    <path d="M-4.75 3.8 L-7.05 2.95 Q-6.55 0.65 -3.95 -1.35 -1.4 -3.35 0.65 -3.4 2.7 -3.45 4.5 -1.45 6.25 0.5 5.5 3.65 4.7 6.75 3.15 8.05 L0.8 6.45 Q-1.45 4.15 -4.75 3.8" fill="#2a2a2a" fill-rule="evenodd" stroke="none"/>
    <path d="M0.8 6.45 L3.15 8.05 Q4.7 6.75 5.5 3.65 6.25 0.5 4.5 -1.45 2.7 -3.45 0.65 -3.4 -1.4 -3.35 -3.95 -1.35 -6.55 0.65 -7.05 2.95 L-4.75 3.8 Q-1.45 4.15 0.8 6.45 0.0 10.2 0.35 10.5 0.65 10.8 -0.3 11.3 -1.25 11.8 -1.05 13.25 -0.8 14.65 -1.25 14.65 L-2.3 16.05 Q-3.7 17.0 -4.7 16.95 -5.65 16.9 -6.7 15.85 -7.45 15.1 -7.8 12.6 -7.2 11.3 -7.25 10.5 L-8.15 9.9 Q-8.55 9.6 -7.9 8.7 L-7.35 8.35 -7.1 8.2 Q-5.55 7.2 -4.75 3.8 M-7.1 8.2 Q-5.3 7.3 -2.9 8.95 M-7.25 10.5 Q-5.25 11.4 -3.7 10.8 M-7.8 12.6 Q-6.4 14.25 -4.95 14.7 -3.5 15.15 -1.25 14.65" fill="none" stroke="#000000" stroke-linecap="round" stroke-linejoin="round" stroke-width="1.0"/>
  </g>
</svg>
