<?xml version="1.0" encoding="UTF-8" standalone="no"?>
<svg xmlns:xlink="http://www.w3.org/1999/xlink" height="26.4px" width="22.2px" xmlns="http://www.w3.org/2000/svg">
  <g transform="matrix(1.0, 0.0, 0.0, 1.0, -50.5, 13.8)">
    <path d="M51.2 -13.45 L51.25 -13.45 51.35 -13.8 Q51.85 -13.8 53.2 -9.8 L55.95 -0.45 Q57.35 5.0 57.95 8.65 58.6 12.6 58.1 12.6 L57.95 12.6 Q57.85 12.3 57.9 12.6 L51.2 -13.45" fill="url(#gradient0)" fill-rule="evenodd" stroke="none"/>
    <path d="M57.9 12.6 Q57.35 11.95 56.25 8.65 54.85 5.0 53.45 -0.45 52.05 -5.85 51.5 -9.8 50.9 -13.15 51.2 -13.45 L57.9 12.6" fill="url(#gradient1)" fill-rule="evenodd" stroke="none"/>
    <path d="M57.9 -13.45 L57.95 -13.45 58.25 -13.8 Q58.8 -13.8 58.1 -9.8 57.4 -5.85 55.9 -0.45 54.35 5.0 52.9 8.65 51.35 12.6 50.8 12.6 L50.6 12.6 Q50.7 12.3 50.55 12.6 L57.9 -13.45" fill="url(#gradient2)" fill-rule="evenodd" stroke="none"/>
    <path d="M50.55 12.6 Q50.3 11.95 50.95 8.65 51.4 5.0 52.95 -0.45 54.45 -5.85 56.15 -9.8 57.35 -13.15 57.9 -13.45 L50.55 12.6" fill="url(#gradient3)" fill-rule="evenodd" stroke="none"/>
    <path d="M54.3 -7.15 L54.5 -7.15 56.5 -7.3 Q62.4 -7.3 66.45 -5.1 70.7 -2.9 70.7 0.1 70.7 3.15 66.45 5.15 62.4 7.35 56.5 7.35 L54.5 7.35 Q54.5 7.2 54.3 7.35 L54.3 -7.15" fill="url(#gradient4)" fill-rule="evenodd" stroke="none"/>
    <path d="M54.3 7.35 Q53.4 7.0 52.85 5.15 51.9 3.15 51.9 0.1 51.9 -2.9 52.85 -5.1 53.4 -6.95 54.3 -7.15 L54.3 7.35" fill="url(#gradient5)" fill-rule="evenodd" stroke="none"/>
    <path d="M54.65 -10.0 L54.7 -10.0 55.25 -10.25 Q56.85 -10.25 57.95 -7.2 59.1 -4.15 59.1 0.0 59.1 4.2 57.95 7.0 56.85 10.05 55.25 10.05 L54.7 10.05 Q54.7 9.8 54.65 10.05 L54.65 -10.0" fill="url(#gradient6)" fill-rule="evenodd" stroke="none"/>
    <path d="M54.65 10.05 Q53.8 9.55 53.3 7.0 52.4 4.2 52.4 0.0 52.4 -4.15 53.3 -7.2 53.8 -9.75 54.65 -10.0 L54.65 10.05" fill="url(#gradient7)" fill-rule="evenodd" stroke="none"/>
    <path d="M56.3 3.15 Q55.4 2.95 54.85 2.2 53.9 1.35 53.9 0.05 53.9 -1.2 54.85 -2.15 55.4 -2.95 56.3 -3.0 L56.3 3.15" fill="url(#gradient8)" fill-rule="evenodd" stroke="none"/>
    <path d="M56.3 -3.0 L56.5 -3.0 58.5 -3.1 Q64.4 -3.1 68.45 -2.15 72.7 -1.2 72.7 0.05 72.7 1.35 68.45 2.2 64.4 3.15 58.5 3.15 L56.5 3.15 56.3 3.15 56.3 -3.0" fill="url(#gradient9)" fill-rule="evenodd" stroke="none"/>
  </g>
  <defs>
    <radialGradient cx="0" cy="0" gradientTransform="matrix(0.0037, 0.0143, -0.0015, 0.0, 54.75, -0.45)" gradientUnits="userSpaceOnUse" id="gradient0" r="819.2" spreadMethod="pad">
      <stop offset="0.17647058823529413" stop-color="#ffffff"/>
      <stop offset="0.5529411764705883" stop-color="#ffffff" stop-opacity="0.77254903"/>
      <stop offset="1.0" stop-color="#ffcccc" stop-opacity="0.0"/>
    </radialGradient>
    <radialGradient cx="0" cy="0" gradientTransform="matrix(0.0037, 0.0143, -0.0016, 0.0, 54.75, -0.45)" gradientUnits="userSpaceOnUse" id="gradient1" r="819.2" spreadMethod="pad">
      <stop offset="0.17647058823529413" stop-color="#ffffff"/>
      <stop offset="0.5529411764705883" stop-color="#ffffff" stop-opacity="0.77254903"/>
      <stop offset="1.0" stop-color="#ffcccc" stop-opacity="0.0"/>
    </radialGradient>
    <radialGradient cx="0" cy="0" gradientTransform="matrix(-0.004, 0.0143, -0.0017, 0.0, 54.5, -0.45)" gradientUnits="userSpaceOnUse" id="gradient2" r="819.2" spreadMethod="pad">
      <stop offset="0.17647058823529413" stop-color="#ffffff"/>
      <stop offset="0.5529411764705883" stop-color="#ffffff" stop-opacity="0.77254903"/>
      <stop offset="1.0" stop-color="#ffcccc" stop-opacity="0.0"/>
    </radialGradient>
    <radialGradient cx="0" cy="0" gradientTransform="matrix(-0.004, 0.0143, -0.0018, 0.0, 54.45, -0.45)" gradientUnits="userSpaceOnUse" id="gradient3" r="819.2" spreadMethod="pad">
      <stop offset="0.17647058823529413" stop-color="#ffffff"/>
      <stop offset="0.5529411764705883" stop-color="#ffffff" stop-opacity="0.77254903"/>
      <stop offset="1.0" stop-color="#ffcccc" stop-opacity="0.0"/>
    </radialGradient>
    <radialGradient cx="0" cy="0" gradientTransform="matrix(0.0, 0.008, -0.0174, 0.0, 56.5, 0.1)" gradientUnits="userSpaceOnUse" id="gradient4" r="819.2" spreadMethod="pad">
      <stop offset="0.17647058823529413" stop-color="#ffffff"/>
      <stop offset="0.5529411764705883" stop-color="#ffffff" stop-opacity="0.77254903"/>
      <stop offset="1.0" stop-color="#ffcccc" stop-opacity="0.0"/>
    </radialGradient>
    <radialGradient cx="0" cy="0" gradientTransform="matrix(0.0, 0.008, -0.0034, 0.0, 54.65, 0.1)" gradientUnits="userSpaceOnUse" id="gradient5" r="819.2" spreadMethod="pad">
      <stop offset="0.17647058823529413" stop-color="#ffffff"/>
      <stop offset="0.5529411764705883" stop-color="#ffffff" stop-opacity="0.77254903"/>
      <stop offset="1.0" stop-color="#ffcccc" stop-opacity="0.0"/>
    </radialGradient>
    <radialGradient cx="0" cy="0" gradientTransform="matrix(0.0, 0.011, -0.0047, 0.0, 55.25, 0.0)" gradientUnits="userSpaceOnUse" id="gradient6" r="819.2" spreadMethod="pad">
      <stop offset="0.17647058823529413" stop-color="#ffffff"/>
      <stop offset="0.5529411764705883" stop-color="#ffffff" stop-opacity="0.77254903"/>
      <stop offset="1.0" stop-color="#ffcccc" stop-opacity="0.0"/>
    </radialGradient>
    <radialGradient cx="0" cy="0" gradientTransform="matrix(0.0, 0.011, -0.0032, 0.0, 55.0, 0.0)" gradientUnits="userSpaceOnUse" id="gradient7" r="819.2" spreadMethod="pad">
      <stop offset="0.17647058823529413" stop-color="#ffffff"/>
      <stop offset="0.5529411764705883" stop-color="#ffffff" stop-opacity="0.77254903"/>
      <stop offset="1.0" stop-color="#ffcccc" stop-opacity="0.0"/>
    </radialGradient>
    <radialGradient cx="0" cy="0" gradientTransform="matrix(0.0, 0.0034, -0.0034, 0.0, 56.65, 0.05)" gradientUnits="userSpaceOnUse" id="gradient8" r="819.2" spreadMethod="pad">
      <stop offset="0.17647058823529413" stop-color="#ffffff"/>
      <stop offset="0.5529411764705883" stop-color="#ffffff" stop-opacity="0.77254903"/>
      <stop offset="1.0" stop-color="#ffffff" stop-opacity="0.0"/>
    </radialGradient>
    <radialGradient cx="0" cy="0" gradientTransform="matrix(0.0, 0.0034, -0.0174, 0.0, 58.5, 0.05)" gradientUnits="userSpaceOnUse" id="gradient9" r="819.2" spreadMethod="pad">
      <stop offset="0.17647058823529413" stop-color="#ffffff"/>
      <stop offset="0.5529411764705883" stop-color="#ffffff" stop-opacity="0.77254903"/>
      <stop offset="1.0" stop-color="#ffffff" stop-opacity="0.0"/>
    </radialGradient>
  </defs>
</svg>
