<?xml version="1.0" encoding="UTF-8" standalone="no"?>
<svg xmlns:xlink="http://www.w3.org/1999/xlink" height="20.6px" width="49.35px" xmlns="http://www.w3.org/2000/svg">
  <g transform="matrix(1.0, 0.0, 0.0, 1.0, 17.95, 10.05)">
    <path d="M14.85 4.65 L15.65 4.95 14.95 9.2 10.7 8.3 9.85 5.6 11.5 5.2 14.85 4.65 M7.35 3.7 L8.2 6.0 6.05 9.45 -7.05 9.45 -10.7 6.95 -12.3 3.5 Q-8.35 5.75 -2.45 5.5 L-2.25 6.7 Q6.0 7.65 4.05 3.3 L7.35 3.7" fill="#333333" fill-rule="evenodd" stroke="none"/>
    <path d="M7.35 3.7 L10.9 3.8 11.5 5.2 9.85 5.6 8.2 6.0 7.35 3.7" fill="#4d4d4d" fill-rule="evenodd" stroke="none"/>
    <path d="M12.3 -4.4 L13.55 -5.5 14.65 -3.5 18.35 -3.85 17.2 -6.7 19.15 -7.8 20.6 -7.8 21.4 -3.6 24.1 -3.5 25.3 -7.8 26.3 -7.8 28.55 -6.55 28.55 -4.95 28.55 -2.45 28.55 -1.2 23.2 0.95 19.45 4.7 18.2 5.95 15.65 4.95 14.85 4.65 11.05 -2.35 12.3 -4.4 M19.05 0.3 L16.55 -1.35 16.55 2.8 19.05 0.3" fill="#c8c8c8" fill-rule="evenodd" stroke="none"/>
    <path d="M8.55 -3.7 L10.05 -4.65 12.3 -4.4 11.05 -2.35 14.85 4.65 11.5 5.2 10.9 3.8 7.35 3.7 4.05 3.3 -0.45 3.3 -2.45 5.5 Q-8.35 5.75 -12.3 3.5 L-12.45 3.4 -12.75 3.2 -14.85 2.7 -14.6 1.4 -14.35 0.15 -13.1 0.15 Q-12.6 -2.05 -10.85 -3.3 L-9.5 -4.25 -6.3 -1.45 -2.3 0.3 -0.8 -1.8 3.95 -0.8 4.3 1.2 8.55 -0.2 8.55 -3.7 M10.45 1.3 L8.55 -0.2 10.45 1.3 M-6.25 1.8 L-7.85 4.1 -3.95 4.35 -3.4 2.75 -6.25 1.8 M-8.45 1.95 L-10.6 0.3 -9.2 -1.8 -10.6 0.3 -8.45 1.95" fill="#6a6a6a" fill-rule="evenodd" stroke="none"/>
    <path d="M28.55 -4.95 L31.4 -4.95 28.55 -2.45 28.55 -4.95 M23.2 0.95 L24.2 4.7 19.45 4.7 23.2 0.95" fill="#000000" fill-rule="evenodd" stroke="none"/>
    <path d="M-9.5 -4.25 L-5.5 -7.3 0.2 -7.3 2.45 -5.2 8.55 -3.7 8.55 -0.2 4.3 1.2 3.95 -0.8 -0.8 -1.8 -2.3 0.3 -6.3 -1.45 -9.5 -4.25 M19.05 0.3 L16.55 2.8 16.55 -1.35 19.05 0.3 M-6.25 1.8 L-3.4 2.75 -3.95 4.35 -7.85 4.1 -6.25 1.8" fill="#a6ff4d" fill-rule="evenodd" stroke="none"/>
    <path d="M13.55 -5.5 L15.0 -5.5 17.2 -6.7 18.35 -3.85 14.65 -3.5 13.55 -5.5 M20.6 -7.8 L25.3 -7.8 24.1 -3.5 21.4 -3.6 20.6 -7.8" fill="#777777" fill-rule="evenodd" stroke="none"/>
    <path d="M18.2 5.95 L19.3 7.9 18.3 10.05 20.7 10.05 M7.35 3.7 L8.2 6.0 9.85 5.6 11.5 5.2 M9.85 5.6 L10.7 8.3 14.95 9.2 15.65 4.95 M-12.3 3.5 L-10.7 6.95 -7.05 9.45 6.05 9.45 8.2 6.0 M4.05 3.3 Q6.0 7.65 -2.25 6.7 L-2.45 5.5 M-12.45 3.4 L-12.75 3.2 M-10.85 -3.3 L-12.7 -7.05 -11.15 -9.55" fill="none" stroke="#2b2b2b" stroke-linecap="round" stroke-linejoin="round" stroke-width="1.0"/>
    <path d="M8.55 -0.2 L10.45 1.3" fill="none" stroke="#595959" stroke-linecap="round" stroke-linejoin="round" stroke-width="1.0"/>
    <path d="M8.55 -3.7 L10.05 -4.65 12.3 -4.4 M11.5 5.2 L10.9 3.8 7.35 3.7 4.05 3.3 -0.45 3.3 -2.45 5.5 Q-8.35 5.75 -12.3 3.5 L-12.45 3.4 M11.5 5.2 L14.85 4.65 M-12.75 3.2 L-14.85 2.7 -17.45 3.55 -17.45 0.7 -14.6 1.4 -14.35 0.15 -13.1 0.15 Q-12.6 -2.05 -10.85 -3.3 L-9.5 -4.25 M-14.6 1.4 L-14.85 2.7 M-9.2 -1.8 L-10.6 0.3 -8.45 1.95" fill="none" stroke="#444444" stroke-linecap="round" stroke-linejoin="round" stroke-width="1.0"/>
    <path d="M12.3 -4.4 L13.55 -5.5 M17.2 -6.7 L19.15 -7.8 20.6 -7.8 M25.3 -7.8 L26.3 -7.8 28.55 -6.55 28.55 -4.95 28.55 -2.45 28.55 -1.2 23.2 0.95 19.45 4.7 18.2 5.95 15.65 4.95 14.85 4.65 11.05 -2.35 12.3 -4.4" fill="none" stroke="#555555" stroke-linecap="round" stroke-linejoin="round" stroke-width="1.0"/>
    <path d="M-9.5 -4.25 L-5.5 -7.3 0.2 -7.3 2.45 -5.2 8.55 -3.7 8.55 -0.2 4.3 1.2 3.95 -0.8 -0.8 -1.8 -2.3 0.3 -6.3 -1.45 -9.5 -4.25 M19.05 0.3 L16.55 -1.35 16.55 2.8 19.05 0.3 M-6.25 1.8 L-3.4 2.75 -3.95 4.35 -7.85 4.1 -6.25 1.8" fill="none" stroke="#59b101" stroke-linecap="round" stroke-linejoin="round" stroke-width="1.0"/>
    <path d="M13.55 -5.5 L15.0 -5.5 17.2 -6.7 18.35 -3.85 14.65 -3.5 13.55 -5.5 M20.6 -7.8 L25.3 -7.8 24.1 -3.5 21.4 -3.6 20.6 -7.8" fill="none" stroke="#484848" stroke-linecap="round" stroke-linejoin="round" stroke-width="1.0"/>
  </g>
</svg>
