<?xml version="1.0" encoding="UTF-8" standalone="no"?>
<svg xmlns:xlink="http://www.w3.org/1999/xlink" height="19.95px" width="11.2px" xmlns="http://www.w3.org/2000/svg">
  <g transform="matrix(1.0, 0.0, 0.0, 1.0, 7.2, 2.7)">
    <path d="M-2.55 14.2 Q-2.85 16.2 -3.85 16.6 L-5.65 16.55 Q-6.45 16.15 -6.6 15.25 -6.8 14.3 -6.65 13.15 -6.3 12.5 -4.6 12.95 -2.9 13.4 -2.55 14.2" fill="#1a1a1a" fill-rule="evenodd" stroke="none"/>
    <path d="M-6.65 13.15 Q-5.35 5.7 -3.5 1.9 -1.7 -1.9 0.1 -2.15 1.9 -2.4 2.9 -1.6 3.85 -0.8 3.25 1.05 L0.2 5.8 Q-2.85 10.5 -2.55 14.2 -2.9 13.4 -4.6 12.95 -6.3 12.5 -6.65 13.15" fill="#c88d53" fill-rule="evenodd" stroke="none"/>
    <path d="M-2.55 14.2 Q-2.85 16.2 -3.85 16.6 L-5.65 16.55 Q-6.45 16.15 -6.6 15.25 -6.8 14.3 -6.65 13.15 -6.3 12.5 -4.6 12.95 -2.9 13.4 -2.55 14.2" fill="none" stroke="#000000" stroke-linecap="round" stroke-linejoin="round" stroke-width="1.0"/>
    <path d="M-6.65 13.15 Q-5.35 5.7 -3.5 1.9 -1.7 -1.9 0.1 -2.15 1.9 -2.4 2.9 -1.6 3.85 -0.8 3.25 1.05 L0.2 5.8 Q-2.85 10.5 -2.55 14.2 Z" fill="none" stroke="#795128" stroke-linecap="round" stroke-linejoin="round" stroke-width="1.0"/>
  </g>
</svg>
