<?xml version="1.0" encoding="UTF-8" standalone="no"?>
<svg xmlns:xlink="http://www.w3.org/1999/xlink" height="16.9px" width="44.6px" xmlns="http://www.w3.org/2000/svg">
  <g transform="matrix(1.0, 0.0, 0.0, 1.0, -13.15, 8.6)">
    <path d="M18.1 -7.4 L31.3 -7.0 46.15 -5.25 Q57.75 -3.1 57.75 -0.05 57.75 2.95 46.15 5.15 L31.3 6.9 18.1 7.3 16.3 7.3 15.95 7.3 15.95 -7.4 16.3 -7.4 18.1 -7.4" fill="url(#gradient0)" fill-rule="evenodd" stroke="none"/>
    <path d="M16.05 -8.55 L16.25 -8.6 Q17.35 -8.6 18.15 -6.1 18.95 -3.6 18.95 -0.15 18.95 3.35 18.15 5.85 17.35 8.3 16.25 8.3 L16.05 8.3 16.05 -8.55" fill="url(#gradient1)" fill-rule="evenodd" stroke="none"/>
    <path d="M16.05 8.3 L15.85 8.3 Q14.7 8.3 13.95 5.85 13.15 3.35 13.15 -0.15 13.15 -3.6 13.95 -6.1 14.7 -8.6 15.85 -8.6 L16.05 -8.55 16.05 8.3" fill="url(#gradient2)" fill-rule="evenodd" stroke="none"/>
  </g>
  <defs>
    <radialGradient cx="0" cy="0" gradientTransform="matrix(0.0, 0.008, -0.0484, 0.0, 18.05, -0.05)" gradientUnits="userSpaceOnUse" id="gradient0" r="819.2" spreadMethod="pad">
      <stop offset="0.0" stop-color="#ffffff"/>
      <stop offset="0.5372549019607843" stop-color="#ffad33" stop-opacity="0.0"/>
      <stop offset="1.0" stop-color="#000a5e" stop-opacity="0.0"/>
    </radialGradient>
    <radialGradient cx="0" cy="0" gradientTransform="matrix(0.0, 0.0092, -0.0033, 0.0, 16.2, -0.15)" gradientUnits="userSpaceOnUse" id="gradient1" r="819.2" spreadMethod="pad">
      <stop offset="0.17647058823529413" stop-color="#ffffff"/>
      <stop offset="1.0" stop-color="#ff8811" stop-opacity="0.0"/>
    </radialGradient>
    <radialGradient cx="0" cy="0" gradientTransform="matrix(0.0, 0.0092, 0.0033, 0.0, 15.85, -0.15)" gradientUnits="userSpaceOnUse" id="gradient2" r="819.2" spreadMethod="pad">
      <stop offset="0.17647058823529413" stop-color="#ffffff"/>
      <stop offset="1.0" stop-color="#ff8811" stop-opacity="0.0"/>
    </radialGradient>
  </defs>
</svg>
