<?xml version="1.0" encoding="UTF-8" standalone="no"?>
<svg xmlns:xlink="http://www.w3.org/1999/xlink" height="15.0px" width="120.9px" xmlns="http://www.w3.org/2000/svg">
  <g transform="matrix(1.0, 0.0, 0.0, 1.0, -25.8, 6.5)">
    <path d="M26.3 -1.0 L26.3 -6.0 113.3 -6.0 112.55 -4.0 109.8 1.5 64.3 1.5 59.8 -1.0 26.3 -1.0" fill="url(#gradient0)" fill-rule="evenodd" stroke="none"/>
    <path d="M112.55 -4.0 L115.8 -4.0 116.25 -4.0 119.65 -4.0 122.65 -4.0 122.35 -3.2 121.55 -1.05 124.3 -1.05 125.3 -3.2 125.65 -4.0 128.3 -4.0 128.0 -3.1 127.2 -1.05 129.95 -1.05 130.9 -3.1 131.3 -4.0 133.7 -4.0 133.4 -3.2 132.6 -1.05 135.35 -1.05 136.35 -3.2 136.7 -4.0 146.2 -4.0 146.2 -1.2 143.3 1.7 137.4 3.3 130.75 3.3 127.6 6.5 126.05 8.0 116.25 8.0 26.3 8.0 26.3 -1.0 59.8 -1.0 64.3 1.5 109.8 1.5 112.55 -4.0" fill="url(#gradient1)" fill-rule="evenodd" stroke="none"/>
    <path d="M122.35 -3.2 L125.3 -3.2 124.3 -1.05 121.55 -1.05 122.35 -3.2 M128.0 -3.1 L130.9 -3.1 129.95 -1.05 127.2 -1.05 128.0 -3.1 M133.4 -3.2 L136.35 -3.2 135.35 -1.05 132.6 -1.05 133.4 -3.2" fill="#000000" fill-rule="evenodd" stroke="none"/>
    <path d="M146.2 -1.2 L145.05 6.5 127.6 6.5 130.75 3.3 137.4 3.3 143.3 1.7 146.2 -1.2" fill="#2b2822" fill-rule="evenodd" stroke="none"/>
    <path d="M26.3 -6.0 L113.3 -6.0 112.55 -4.0 115.8 -4.0 116.25 -4.0 119.65 -4.0 122.65 -4.0 122.35 -3.2 125.3 -3.2 125.65 -4.0 128.3 -4.0 128.0 -3.1 130.9 -3.1 131.3 -4.0 133.7 -4.0 133.4 -3.2 136.35 -3.2 136.7 -4.0 146.2 -4.0 146.2 -1.2 145.05 6.5 127.6 6.5 126.05 8.0 116.25 8.0 26.3 8.0 M26.3 -1.0 L59.8 -1.0 64.3 1.5 109.8 1.5 112.55 -4.0 M122.35 -3.2 L121.55 -1.05 124.3 -1.05 125.3 -3.2 M128.0 -3.1 L127.2 -1.05 129.95 -1.05 130.9 -3.1 M133.4 -3.2 L132.6 -1.05 135.35 -1.05 136.35 -3.2 M146.2 -1.2 L143.3 1.7 137.4 3.3 130.75 3.3 127.6 6.5" fill="none" stroke="#000000" stroke-linecap="round" stroke-linejoin="round" stroke-width="1.0"/>
  </g>
  <defs>
    <linearGradient gradientTransform="matrix(0.0, 0.0071, -0.0046, 0.0, 69.8, -2.25)" gradientUnits="userSpaceOnUse" id="gradient0" spreadMethod="pad" x1="-819.2" x2="819.2">
      <stop offset="0.23529411764705882" stop-color="#2c3022"/>
      <stop offset="0.34901960784313724" stop-color="#5a5c45"/>
      <stop offset="0.5098039215686274" stop-color="#22281a"/>
    </linearGradient>
    <linearGradient gradientTransform="matrix(0.0, 0.021, -0.0073, 0.0, 86.25, 2.0)" gradientUnits="userSpaceOnUse" id="gradient1" spreadMethod="pad" x1="-819.2" x2="819.2">
      <stop offset="0.0" stop-color="#5f554b"/>
      <stop offset="1.0" stop-color="#171d13"/>
    </linearGradient>
  </defs>
</svg>
