<?xml version="1.0" encoding="UTF-8" standalone="no"?>
<svg xmlns:xlink="http://www.w3.org/1999/xlink" height="21.6px" width="13.45px" xmlns="http://www.w3.org/2000/svg">
  <g transform="matrix(1.0, 0.0, 0.0, 1.0, 4.95, 0.85)">
    <path d="M-4.2 2.2 L-4.45 1.0 -3.55 0.9 -2.9 0.4 Q-2.5 0.05 -1.75 -0.1 L-0.65 -0.3 Q0.95 -0.6 2.85 0.55 L4.45 2.9 6.9 9.45 6.9 10.8 5.9 11.2 6.9 10.8 5.9 11.2 1.0 11.05 -0.4 9.75 -2.6 8.7 -3.1 7.75 -1.65 6.1 -2.45 2.8 -4.2 2.2 M3.85 6.55 L3.15 3.9 4.45 2.9 3.15 3.9 3.85 6.55 M-2.9 0.4 L-0.65 2.7 1.05 8.25 -0.4 9.75 1.05 8.25 -0.65 2.7 -2.9 0.4" fill="#6a5e48" fill-rule="evenodd" stroke="none"/>
    <path d="M5.9 11.2 Q6.75 11.9 5.85 13.55 3.55 13.55 3.5 18.3 0.1 15.95 1.0 11.05 L5.9 11.2" fill="#514637" fill-rule="evenodd" stroke="none"/>
    <path d="M5.85 13.55 Q8.85 16.95 7.65 19.3 6.45 21.65 3.5 18.3 3.55 13.55 5.85 13.55" fill="#322721" fill-rule="evenodd" stroke="none"/>
    <path d="M-3.1 7.75 Q-3.65 5.9 -4.2 2.2 L-2.45 2.8 -1.65 6.1 -3.1 7.75" fill="#496f44" fill-rule="evenodd" stroke="none"/>
    <path d="M-4.2 2.2 L-4.45 1.0 -3.55 0.9 -2.9 0.4 Q-2.5 0.05 -1.75 -0.1 L-0.65 -0.3 Q0.95 -0.6 2.85 0.55 L4.45 2.9 6.9 9.45 6.9 10.8 5.9 11.2 Q6.75 11.9 5.85 13.55 8.85 16.95 7.65 19.3 6.45 21.65 3.5 18.3 0.1 15.95 1.0 11.05 L-0.4 9.75 -2.6 8.7 -3.1 7.75 Q-3.65 5.9 -4.2 2.2 L-2.45 2.8 -1.65 6.1 -3.1 7.75 M4.45 2.9 L3.15 3.9 3.85 6.55 M6.9 10.8 L5.9 11.2 1.0 11.05 M5.85 13.55 Q3.55 13.55 3.5 18.3" fill="none" stroke="#232018" stroke-linecap="round" stroke-linejoin="round" stroke-width="1.0"/>
    <path d="M-0.4 9.75 L1.05 8.25 -0.65 2.7 -2.9 0.4" fill="none" stroke="#504838" stroke-linecap="round" stroke-linejoin="round" stroke-width="1.0"/>
  </g>
</svg>
