<?xml version="1.0" encoding="UTF-8" standalone="no"?>
<svg xmlns:xlink="http://www.w3.org/1999/xlink" height="100.7px" width="99.25px" xmlns="http://www.w3.org/2000/svg">
  <g transform="matrix(1.0, 0.0, 0.0, 1.0, 57.15, 18.4)">
    <path d="M1.8 -17.9 L-17.05 28.5 -51.6 47.25 -36.25 4.5 -51.6 47.25 -56.65 50.0 -39.2 0.6 1.8 -17.9" fill="url(#gradient0)" fill-rule="evenodd" stroke="none"/>
    <path d="M31.15 41.1 L31.95 39.5 31.15 41.1 M33.95 35.9 L38.35 27.3 33.95 35.9 M1.8 -17.9 L34.3 1.7 41.6 28.2 24.65 63.0 3.5 75.8 1.6 71.45 -17.05 28.5 1.8 -17.9 M29.15 44.9 L21.75 59.1 1.6 71.45 21.75 59.1 29.15 44.9" fill="url(#gradient1)" fill-rule="evenodd" stroke="none"/>
    <path d="M-17.05 28.5 L1.6 71.45 3.5 75.8 -24.0 81.8 -56.65 50.0 -51.6 47.25 -17.05 28.5 M1.6 71.45 L-23.05 76.3 -51.6 47.25 -23.05 76.3 1.6 71.45" fill="url(#gradient2)" fill-rule="evenodd" stroke="none"/>
    <path d="M3.5 75.8 L24.65 63.0 41.6 28.2 34.3 1.7 1.8 -17.9 -39.2 0.6 -56.65 50.0 -24.0 81.8 3.5 75.8" fill="none" stroke="#000000" stroke-linecap="round" stroke-linejoin="round" stroke-width="1.0"/>
    <path d="M38.35 27.3 L33.95 35.9 M31.95 39.5 L31.15 41.1 M1.6 71.45 L21.75 59.1 29.15 44.9 M-51.6 47.25 L-23.05 76.3 1.6 71.45 M-36.25 4.5 L-51.6 47.25" fill="none" stroke="#4f8470" stroke-linecap="round" stroke-linejoin="round" stroke-opacity="0.5019608" stroke-width="3.0"/>
  </g>
  <defs>
    <radialGradient cx="0" cy="0" gradientTransform="matrix(0.0647, 0.0097, -0.0161, 0.1068, -18.4, 42.4)" gradientUnits="userSpaceOnUse" id="gradient0" r="819.2" spreadMethod="pad">
      <stop offset="0.0" stop-color="#73805e"/>
      <stop offset="1.0" stop-color="#393f30"/>
    </radialGradient>
    <radialGradient cx="0" cy="0" gradientTransform="matrix(0.0807, 0.0, 0.0, 0.0807, -17.05, 28.5)" gradientUnits="userSpaceOnUse" id="gradient1" r="819.2" spreadMethod="pad">
      <stop offset="0.0" stop-color="#73805e"/>
      <stop offset="1.0" stop-color="#393f30"/>
    </radialGradient>
    <radialGradient cx="0" cy="0" gradientTransform="matrix(0.1177, 0.0, 0.0, 0.0912, -2.8, 22.8)" gradientUnits="userSpaceOnUse" id="gradient2" r="819.2" spreadMethod="pad">
      <stop offset="0.0" stop-color="#73805e"/>
      <stop offset="1.0" stop-color="#393f30"/>
    </radialGradient>
  </defs>
</svg>
