<?xml version="1.0" encoding="UTF-8" standalone="no"?>
<svg xmlns:ffdec="https://www.free-decompiler.com/flash" xmlns:xlink="http://www.w3.org/1999/xlink" ffdec:objectType="shape" height="188.6px" width="68.65px" xmlns="http://www.w3.org/2000/svg">
  <g transform="matrix(1.0, 0.0, 0.0, 1.0, 37.25, 57.55)">
    <path d="M21.6 123.85 L23.25 130.55 5.0 130.55 -6.65 111.4 -5.75 98.55 -5.75 82.25 -5.75 71.0 -5.75 42.05 -11.75 31.05 -17.75 25.05 -21.0 21.8 -1.55 22.0 24.75 10.5 20.15 39.8 11.35 69.4 8.15 101.0 11.75 115.4 21.6 123.85 M6.35 127.4 L19.55 127.2 6.35 127.4" fill="url(#gradient0)" fill-rule="evenodd" stroke="none"/>
    <path d="M24.75 25.0 L24.75 39.15 17.1 71.05 17.1 105.5 21.6 123.85 11.75 115.4 8.15 101.0 11.35 69.4 20.15 39.8 24.75 10.5 24.75 25.0" fill="url(#gradient1)" fill-rule="evenodd" stroke="none"/>
    <path d="M2.4 -23.45 L1.4 -53.5 Q3.9 -60.2 7.75 -54.2 L10.55 -21.35 2.4 -23.45 M-5.75 82.25 L-13.25 76.25 -19.25 63.0 -17.75 25.05 -11.75 31.05 -5.75 42.05 -11.75 42.2 -11.75 63.0 -5.75 71.0 -5.75 82.25" fill="#000000" fill-rule="evenodd" stroke="none"/>
    <path d="M5.0 130.55 L-22.25 122.05 -22.25 109.55 -5.75 98.55 -6.65 111.4 5.0 130.55" fill="url(#gradient2)" fill-rule="evenodd" stroke="none"/>
    <path d="M23.0 1.65 L28.4 3.0 30.9 20.0 24.75 25.0 24.75 10.5 23.0 1.65" fill="url(#gradient3)" fill-rule="evenodd" stroke="none"/>
    <path d="M10.55 -21.35 L18.75 -19.25 23.0 1.65 24.75 10.5 -1.55 22.0 -21.0 21.8 -35.75 21.8 -36.75 1.0 -21.75 -29.0 2.4 -23.45 10.55 -21.35 M-24.05 -15.2 L-15.45 6.6 -6.65 3.8 -14.85 -24.6 -6.65 3.8 -15.45 6.6 -24.05 -15.2" fill="url(#gradient4)" fill-rule="evenodd" stroke="none"/>
    <path d="M2.4 -23.45 L1.4 -53.5 Q3.9 -60.2 7.75 -54.2 L10.55 -21.35 18.75 -19.25 23.0 1.65 28.4 3.0 30.9 20.0 24.75 25.0 24.75 39.15 17.1 71.05 17.1 105.5 21.6 123.85 23.25 130.55 5.0 130.55 -22.25 122.05 -22.25 109.55 -5.75 98.55 -5.75 82.25 -13.25 76.25 -19.25 63.0 -17.75 25.05 -21.0 21.8 -35.75 21.8 -36.75 1.0 -21.75 -29.0 2.4 -23.45 10.55 -21.35 M24.75 10.5 L24.75 25.0 M24.75 10.5 L20.15 39.8 11.35 69.4 8.15 101.0 11.75 115.4 21.6 123.85 M23.0 1.65 L24.75 10.5 -1.55 22.0 -21.0 21.8 M-5.75 71.0 L-11.75 63.0 -11.75 42.2 -5.75 42.05 -11.75 31.05 -17.75 25.05 M-5.75 71.0 L-5.75 82.25 M-5.75 42.05 L-5.75 71.0 M5.0 130.55 L-6.65 111.4 -5.75 98.55" fill="none" stroke="#000000" stroke-linecap="round" stroke-linejoin="round" stroke-width="1.0"/>
    <path d="M-14.85 -24.6 L-6.65 3.8 -15.45 6.6 -24.05 -15.2" fill="none" stroke="#ffffff" stroke-linecap="round" stroke-linejoin="round" stroke-opacity="0.2" stroke-width="3.0"/>
    <path d="M19.55 127.2 L6.35 127.4" fill="none" stroke="#75541e" stroke-linecap="round" stroke-linejoin="round" stroke-opacity="0.5019608" stroke-width="3.0"/>
  </g>
  <defs>
    <linearGradient gradientTransform="matrix(0.0287, 0.0, 0.0, 0.0733, 1.25, 70.5)" gradientUnits="userSpaceOnUse" id="gradient0" spreadMethod="pad" x1="-819.2" x2="819.2">
      <stop offset="0.0" stop-color="#201a0c"/>
      <stop offset="1.0" stop-color="#2b2412"/>
    </linearGradient>
    <linearGradient gradientTransform="matrix(0.0101, 0.0, 0.0, 0.0692, 16.45, 67.15)" gradientUnits="userSpaceOnUse" id="gradient1" spreadMethod="pad" x1="-819.2" x2="819.2">
      <stop offset="0.0" stop-color="#595448"/>
      <stop offset="1.0" stop-color="#342f29"/>
    </linearGradient>
    <linearGradient gradientTransform="matrix(0.011, 0.0191, -0.0635, 0.0366, 32.2, 92.3)" gradientUnits="userSpaceOnUse" id="gradient2" spreadMethod="pad" x1="-819.2" x2="819.2">
      <stop offset="0.0" stop-color="#34311e"/>
      <stop offset="1.0" stop-color="#4c4b2f"/>
    </linearGradient>
    <radialGradient cx="0" cy="0" gradientTransform="matrix(0.0386, 0.0, 0.0, 0.0386, 8.0, 27.2)" gradientUnits="userSpaceOnUse" id="gradient3" r="819.2" spreadMethod="pad">
      <stop offset="0.0" stop-color="#4a533e"/>
      <stop offset="0.803921568627451" stop-color="#393f30"/>
      <stop offset="1.0" stop-color="#73805e"/>
    </radialGradient>
    <radialGradient cx="0" cy="0" gradientTransform="matrix(0.1394, 0.0, 0.0, 0.1394, -47.2, 74.0)" gradientUnits="userSpaceOnUse" id="gradient4" r="819.2" spreadMethod="pad">
      <stop offset="0.0" stop-color="#4a533e"/>
      <stop offset="0.803921568627451" stop-color="#393f30"/>
      <stop offset="1.0" stop-color="#73805e"/>
    </radialGradient>
  </defs>
</svg>
