<?xml version="1.0" encoding="UTF-8" standalone="no"?>
<svg xmlns:xlink="http://www.w3.org/1999/xlink" height="43.7px" width="91.75px" xmlns="http://www.w3.org/2000/svg">
  <g transform="matrix(1.0, 0.0, 0.0, 1.0, 41.55, 12.8)">
    <path d="M-9.35 -1.75 L-7.1 2.75 -17.55 9.0 -22.0 5.25 -9.35 -1.75" fill="#000000" fill-rule="evenodd" stroke="none"/>
    <path d="M-9.35 -1.75 L-10.25 -3.5 -5.25 -12.1 9.85 -12.3 17.7 -7.55 12.85 -4.45 -0.5 -4.45 -6.4 4.1 -7.1 2.75 -9.35 -1.75" fill="#28251c" fill-rule="evenodd" stroke="none"/>
    <path d="M-6.4 4.1 L-0.5 -4.45 12.85 -4.45 17.7 -7.55 28.4 -7.35 31.0 2.2 12.55 10.0 13.8 17.8 22.55 24.9 11.25 24.9 7.25 21.55 -0.55 21.55 -4.55 24.9 -9.6 24.9 -9.6 20.35 -9.6 11.95 -6.4 4.1" fill="url(#gradient0)" fill-rule="evenodd" stroke="none"/>
    <path d="M31.0 2.2 L44.45 10.95 49.7 30.35 22.55 30.35 22.55 24.9 13.8 17.8 12.55 10.0 31.0 2.2 M-9.6 20.35 L-15.25 20.35 -18.4 30.4 -41.05 30.4 -33.4 12.5 -22.0 5.25 -17.55 9.0 -9.6 11.95 -9.6 20.35" fill="#232018" fill-rule="evenodd" stroke="none"/>
    <path d="M17.7 -7.55 L9.85 -12.3 -5.25 -12.1 -10.25 -3.5 -9.35 -1.75 -7.1 2.75 -6.4 4.1 -0.5 -4.45 12.85 -4.45 17.7 -7.55 28.4 -7.35 31.0 2.2 44.45 10.95 49.7 30.35 22.55 30.35 22.55 24.9 11.25 24.9 7.25 21.55 -0.55 21.55 -4.55 24.9 -9.6 24.9 -9.6 20.35 -15.25 20.35 -18.4 30.4 -41.05 30.4 -33.4 12.5 -22.0 5.25 -9.35 -1.75 M22.55 24.9 L13.8 17.8 12.55 10.0 31.0 2.2 M-9.6 11.95 L-17.55 9.0 -22.0 5.25 M-17.55 9.0 L-7.1 2.75 M-9.6 11.95 L-9.6 20.35 M-6.4 4.1 L-9.6 11.95" fill="none" stroke="#000000" stroke-linecap="round" stroke-linejoin="round" stroke-width="1.0"/>
  </g>
  <defs>
    <linearGradient gradientTransform="matrix(0.0, 0.0248, -0.0198, 0.0, 10.7, 8.65)" gradientUnits="userSpaceOnUse" id="gradient0" spreadMethod="pad" x1="-819.2" x2="819.2">
      <stop offset="0.0" stop-color="#4b4a3d"/>
      <stop offset="1.0" stop-color="#23240f"/>
    </linearGradient>
  </defs>
</svg>
