<?xml version="1.0" encoding="UTF-8" standalone="no"?>
<svg xmlns:xlink="http://www.w3.org/1999/xlink" height="8.75px" width="16.6px" xmlns="http://www.w3.org/2000/svg">
  <g transform="matrix(1.0, 0.0, 0.0, 1.0, 6.5, 2.45)">
    <path d="M-4.4 1.45 L-1.75 3.75 -1.75 5.8 -5.8 5.8 -6.0 3.75 -4.4 1.45" fill="#615a47" fill-rule="evenodd" stroke="none"/>
    <path d="M-4.4 1.45 L-4.1 0.95 -3.4 -1.35 0.05 -1.75 1.9 -1.95 3.0 -0.05 5.2 0.55 2.8 3.45 2.8 5.8 -1.75 5.8 -1.75 3.75 -4.4 1.45" fill="#484232" fill-rule="evenodd" stroke="none"/>
    <path d="M2.8 5.8 L2.8 3.45 5.2 0.55 7.4 1.25 9.6 3.55 9.6 5.8 2.8 5.8" fill="#7b6b52" fill-rule="evenodd" stroke="none"/>
    <path d="M5.2 0.55 L3.0 -0.05 1.9 -1.95 0.05 -1.75 -3.4 -1.35 -4.1 0.95 -4.4 1.45 -1.75 3.75 -1.75 5.8 2.8 5.8 2.8 3.45 5.2 0.55 7.4 1.25 9.6 3.55 9.6 5.8 2.8 5.8 M-4.4 1.45 L-6.0 3.75 -5.8 5.8 -1.75 5.8" fill="none" stroke="#232018" stroke-linecap="round" stroke-linejoin="round" stroke-width="1.0"/>
  </g>
</svg>
