<?xml version="1.0" encoding="UTF-8" standalone="no"?>
<svg xmlns:xlink="http://www.w3.org/1999/xlink" height="8.25px" width="16.0px" xmlns="http://www.w3.org/2000/svg">
  <g transform="matrix(1.0, 0.0, 0.0, 1.0, 3.6, 1.4)">
    <path d="M-1.25 -0.45 L-0.55 -0.6 Q0.55 -0.9 2.45 -0.1 L2.7 0.05 Q2.45 1.0 2.95 1.5 3.45 2.1 5.0 2.3 L3.8 4.75 2.45 4.75 2.45 3.2 0.65 0.95 -1.25 -0.45 M-2.6 4.75 Q-2.95 3.3 -2.65 1.65 L-0.55 3.2 -0.55 4.75 -2.6 4.75" fill="#132331" fill-rule="evenodd" stroke="none"/>
    <path d="M5.0 2.3 L5.3 0.3 8.25 0.3 11.05 2.4 11.75 4.5 11.0 5.4 9.1 5.4 7.35 4.75 3.8 4.75 5.0 2.3 M7.1 3.5 L5.95 3.4 7.1 3.5 M9.55 4.25 L8.6 3.9 9.55 4.25" fill="#666666" fill-rule="evenodd" stroke="none"/>
    <path d="M11.0 5.4 L11.9 6.3 -3.1 6.35 -3.1 4.75 -2.6 4.75 -0.55 4.75 2.45 4.75 3.8 4.75 7.35 4.75 9.1 5.4 11.0 5.4" fill="#444444" fill-rule="evenodd" stroke="none"/>
    <path d="M-2.65 1.65 Q-3.55 -0.05 -2.7 -0.65 -1.85 -1.25 -1.25 -0.45 L0.65 0.95 2.45 3.2 2.45 4.75 -0.55 4.75 -0.55 3.2 -2.65 1.65" fill="#595959" fill-rule="evenodd" stroke="none"/>
    <path d="M5.0 2.3 L5.3 0.3 8.25 0.3 11.05 2.4 11.75 4.5 11.0 5.4 11.9 6.3 -3.1 6.35 -3.1 4.75 -2.6 4.75 -0.55 4.75 2.45 4.75 2.45 3.2 0.65 0.95 -1.25 -0.45 M-2.65 1.65 L-0.55 3.2 -0.55 4.75 M11.0 5.4 L9.1 5.4 7.35 4.75 3.8 4.75 2.45 4.75 M8.6 3.9 L9.55 4.25 M5.95 3.4 L7.1 3.5 M3.8 4.75 L5.0 2.3" fill="none" stroke="#141c1f" stroke-linecap="round" stroke-linejoin="round" stroke-width="1.0"/>
    <path d="M-2.65 1.65 Q-3.55 -0.05 -2.7 -0.65 -1.85 -1.25 -1.25 -0.45 L-0.55 -0.6 Q0.55 -0.9 2.45 -0.1 L2.7 0.05 Q2.45 1.0 2.95 1.5 3.45 2.1 5.0 2.3 M-2.6 4.75 Q-2.95 3.3 -2.65 1.65" fill="none" stroke="#0a1318" stroke-linecap="round" stroke-linejoin="round" stroke-width="1.0"/>
  </g>
</svg>
