<?xml version="1.0" encoding="UTF-8" standalone="no"?>
<svg xmlns:xlink="http://www.w3.org/1999/xlink" height="19.25px" width="97.35px" xmlns="http://www.w3.org/2000/svg">
  <g transform="matrix(1.0, 0.0, 0.0, 1.0, 48.25, 2.25)">
    <path d="M23.25 16.5 L-38.7 16.5 -47.75 16.5 -47.75 11.0 -38.7 11.0 23.25 11.0 23.25 16.5" fill="#22281c" fill-rule="evenodd" stroke="none"/>
    <path d="M23.25 11.0 L22.9 10.2 19.1 2.1 19.1 -1.75 48.6 -1.75 48.55 2.75 47.6 10.2 46.75 16.5 23.25 16.5 23.25 11.0 M36.1 8.5 L36.6 3.0 26.35 3.0 28.35 8.5 36.1 8.5" fill="url(#gradient0)" fill-rule="evenodd" stroke="none"/>
    <path d="M23.25 11.0 L22.9 10.2 19.1 2.1 19.1 -1.75 48.6 -1.75 48.55 2.75 47.6 10.2 46.75 16.5 23.25 16.5 -38.7 16.5 -47.75 16.5 M-47.75 11.0 L-38.7 11.0 23.25 11.0 23.25 16.5 M36.1 8.5 L36.6 3.0 26.35 3.0 28.35 8.5 36.1 8.5 Z" fill="none" stroke="#000000" stroke-linecap="round" stroke-linejoin="round" stroke-width="1.0"/>
  </g>
  <defs>
    <radialGradient cx="0" cy="0" gradientTransform="matrix(0.0717, 0.0, 0.0, 0.035, 32.4, -3.6)" gradientUnits="userSpaceOnUse" id="gradient0" r="819.2" spreadMethod="pad">
      <stop offset="0.09411764705882353" stop-color="#5f6849"/>
      <stop offset="0.32941176470588235" stop-color="#48503b"/>
      <stop offset="0.6039215686274509" stop-color="#2d2b1e"/>
      <stop offset="1.0" stop-color="#444444"/>
    </radialGradient>
  </defs>
</svg>
