<?xml version="1.0" encoding="UTF-8" standalone="no"?>
<svg xmlns:xlink="http://www.w3.org/1999/xlink" height="41.55px" width="120.25px" xmlns="http://www.w3.org/2000/svg">
  <g transform="matrix(1.0, 0.0, 0.0, 1.0, 135.35, -8.45)">
    <path d="M-25.35 10.7 L-25.35 12.45 -31.85 12.45 -32.1 14.8 -32.35 17.2 -20.45 17.0 -20.65 30.05 -23.45 49.5 -59.0 49.5 -75.5 36.5 -104.85 36.5 -115.85 43.95 -134.85 39.95 -121.35 19.95 -103.85 8.95 -25.35 8.95 -25.35 10.7 M-54.45 14.8 L-91.6 14.8 -88.2 21.25 -60.9 21.25 -54.45 14.8" fill="url(#gradient0)" fill-rule="evenodd" stroke="none"/>
    <path d="M-54.45 14.8 L-60.9 21.25 -88.2 21.25 -91.6 14.8 -54.45 14.8" fill="url(#gradient1)" fill-rule="evenodd" stroke="none"/>
    <path d="M-20.65 30.05 L-20.45 17.0 -32.35 17.2 -32.1 14.8 -31.85 12.45 -25.35 12.45 -25.35 10.7 -15.6 10.7 -15.6 28.55 -20.65 30.05" fill="url(#gradient2)" fill-rule="evenodd" stroke="none"/>
    <path d="M-20.65 30.05 L-20.45 17.0 -32.35 17.2 -32.1 14.8 -31.85 12.45 -25.35 12.45 -25.35 10.7 -25.35 8.95 -103.85 8.95 -121.35 19.95 -134.85 39.95 -115.85 43.95 -104.85 36.5 -75.5 36.5 -59.0 49.5 -23.45 49.5 -20.65 30.05 -15.6 28.55 -15.6 10.7 -25.35 10.7 M-54.45 14.8 L-91.6 14.8 -88.2 21.25 -60.9 21.25 -54.45 14.8 Z" fill="none" stroke="#000000" stroke-linecap="round" stroke-linejoin="round" stroke-width="1.0"/>
  </g>
  <defs>
    <radialGradient cx="0" cy="0" gradientTransform="matrix(0.186, 0.0, 0.0, 0.06, -80.8, 4.4)" gradientUnits="userSpaceOnUse" id="gradient0" r="819.2" spreadMethod="pad">
      <stop offset="0.09411764705882353" stop-color="#5f6849"/>
      <stop offset="0.32941176470588235" stop-color="#48503b"/>
      <stop offset="0.6039215686274509" stop-color="#2d2b1e"/>
      <stop offset="1.0" stop-color="#444444"/>
    </radialGradient>
    <radialGradient cx="0" cy="0" gradientTransform="matrix(0.0874, 0.0, 0.0, 0.0245, -74.4, 26.8)" gradientUnits="userSpaceOnUse" id="gradient1" r="819.2" spreadMethod="pad">
      <stop offset="0.09411764705882353" stop-color="#5f6849"/>
      <stop offset="0.32941176470588235" stop-color="#48503b"/>
      <stop offset="0.6039215686274509" stop-color="#2d2b1e"/>
      <stop offset="1.0" stop-color="#444444"/>
    </radialGradient>
    <radialGradient cx="0" cy="0" gradientTransform="matrix(0.0853, 0.0, 0.0, 0.0428, -19.6, -2.0)" gradientUnits="userSpaceOnUse" id="gradient2" r="819.2" spreadMethod="pad">
      <stop offset="0.09411764705882353" stop-color="#5f6849"/>
      <stop offset="0.32941176470588235" stop-color="#48503b"/>
      <stop offset="0.6039215686274509" stop-color="#2d2b1e"/>
      <stop offset="1.0" stop-color="#444444"/>
    </radialGradient>
  </defs>
</svg>
