<?xml version="1.0" encoding="UTF-8" standalone="no"?>
<svg xmlns:xlink="http://www.w3.org/1999/xlink" height="43.3px" width="95.7px" xmlns="http://www.w3.org/2000/svg">
  <g transform="matrix(1.0, 0.0, 0.0, 1.0, -134.2, 21.35)">
    <path d="M146.4 -21.35 Q151.5 -21.35 154.95 -15.15 158.6 -8.7 158.6 0.3 158.6 9.05 154.95 15.5 151.5 21.95 146.4 21.95 141.35 21.95 137.9 15.5 134.2 9.05 134.2 0.3 134.2 -8.7 137.9 -15.15 141.35 -21.35 146.4 -21.35" fill="url(#gradient0)" fill-rule="evenodd" stroke="none"/>
    <path d="M159.9 -14.75 Q188.9 -14.75 209.4 -10.4 229.9 -6.0 229.9 0.5 229.9 6.75 209.4 11.1 188.9 15.45 159.9 15.45 L150.45 15.45 150.45 -14.45 159.9 -14.75" fill="url(#gradient1)" fill-rule="evenodd" stroke="none"/>
  </g>
  <defs>
    <radialGradient cx="0" cy="0" gradientTransform="matrix(0.0152, 0.0, 0.0, 0.0271, 146.4, 0.3)" gradientUnits="userSpaceOnUse" id="gradient0" r="819.2" spreadMethod="pad">
      <stop offset="0.36470588235294116" stop-color="#ffffff"/>
      <stop offset="1.0" stop-color="#ffe600" stop-opacity="0.0"/>
    </radialGradient>
    <radialGradient cx="0" cy="0" gradientTransform="matrix(0.0856, 0.0, 0.0, 0.0185, 160.1, 0.25)" gradientUnits="userSpaceOnUse" id="gradient1" r="819.2" spreadMethod="pad">
      <stop offset="0.36470588235294116" stop-color="#ffffff"/>
      <stop offset="1.0" stop-color="#ffcc00" stop-opacity="0.0"/>
    </radialGradient>
  </defs>
</svg>
