<?xml version="1.0" encoding="UTF-8" standalone="no"?>
<svg xmlns:xlink="http://www.w3.org/1999/xlink" height="22.5px" width="14.25px" xmlns="http://www.w3.org/2000/svg">
  <g transform="matrix(1.0, 0.0, 0.0, 1.0, 4.2, 3.05)">
    <path d="M-1.25 1.25 L-0.35 1.3 1.05 0.25 1.1 0.25 Q2.1 0.3 3.0 1.45 4.65 3.7 5.8 6.75 L3.65 6.15 1.9 2.3 -1.6 2.95 Q-1.7 1.95 -1.25 1.25 M7.3 10.6 Q5.9 11.3 7.05 12.8 5.05 12.2 4.25 13.0 3.8 12.35 1.9 12.4 L7.3 10.6 M9.0 15.65 L9.55 17.25 Q9.4 17.85 8.15 18.6 L6.05 18.8 Q5.2 18.05 4.95 17.1 L7.25 16.75 Q8.6 16.25 9.0 15.65" fill="#333333" fill-rule="evenodd" stroke="none"/>
    <path d="M-2.3 -0.85 L-2.55 -0.4 -2.35 0.05 Q-2.2 0.25 -1.95 0.25 L-1.45 0.1 -1.25 -0.3 -1.35 -0.7 Q-1.5 -0.95 -1.8 -0.95 L-2.3 -0.85 -1.8 -0.95 Q-1.5 -0.95 -1.35 -0.7 L-1.25 -0.3 -1.45 0.1 -1.95 0.25 Q-2.2 0.25 -2.35 0.05 L-2.55 -0.4 -2.3 -0.85 M-1.25 1.25 L-2.95 1.25 -3.7 -0.65 -2.4 -2.55 -0.7 -1.15 1.0 -0.85 1.1 0.25 1.05 0.25 -0.35 1.3 -1.25 1.25 M5.8 6.75 L7.3 10.6 1.9 12.4 Q-0.65 9.05 -2.65 2.95 L-1.6 2.95 1.9 2.3 3.65 6.15 5.8 6.75 M7.05 12.8 Q8.45 13.4 8.8 14.4 9.15 15.3 9.0 15.65 8.6 16.25 7.25 16.75 L4.95 17.1 Q4.2 17.05 3.3 15.75 2.35 14.3 4.25 13.0 5.05 12.2 7.05 12.8 M0.75 5.3 L1.1 4.65 0.85 3.95 Q0.6 3.65 0.2 3.65 L-0.55 3.8 Q-0.95 4.05 -1.05 4.45 L-0.8 5.1 -0.05 5.5 0.75 5.3 M2.9 8.9 L3.6 8.85 2.9 8.9 M1.95 6.95 L1.75 6.45 Q1.5 6.15 1.2 6.2 0.9 6.15 0.65 6.4 L0.35 6.85 0.5 7.35 1.05 7.7 1.65 7.5 1.95 6.95 M3.95 10.15 L4.55 10.05 3.95 10.15" fill="#ffffff" fill-rule="evenodd" stroke="none"/>
    <path d="M0.75 5.3 L-0.05 5.5 -0.8 5.1 -1.05 4.45 Q-0.95 4.05 -0.55 3.8 L0.2 3.65 Q0.6 3.65 0.85 3.95 L1.1 4.65 0.75 5.3 M1.95 6.95 L1.65 7.5 1.05 7.7 0.5 7.35 0.35 6.85 0.65 6.4 Q0.9 6.15 1.2 6.2 1.5 6.15 1.75 6.45 L1.95 6.95" fill="#00ccff" fill-rule="evenodd" stroke="none"/>
    <path d="M3.0 1.45 Q4.65 3.7 5.8 6.75 M7.3 10.6 Q5.9 11.3 7.05 12.8 M4.25 13.0 Q3.8 12.35 1.9 12.4" fill="none" stroke="#000000" stroke-linecap="round" stroke-linejoin="round" stroke-width="1.0"/>
    <path d="M9.0 15.65 L9.55 17.25 Q9.4 17.85 8.15 18.6 L6.05 18.8 Q5.2 18.05 4.95 17.1" fill="none" stroke="#000000" stroke-linecap="round" stroke-linejoin="round" stroke-opacity="0.99215686" stroke-width="1.0"/>
    <path d="M-2.3 -0.85 L-1.8 -0.95 Q-1.5 -0.95 -1.35 -0.7 L-1.25 -0.3 -1.45 0.1 -1.95 0.25 Q-2.2 0.25 -2.35 0.05 L-2.55 -0.4 -2.3 -0.85 M3.6 8.85 L2.9 8.9 M4.55 10.05 L3.95 10.15" fill="none" stroke="#999999" stroke-linecap="round" stroke-linejoin="round" stroke-width="1.0"/>
    <path d="M1.1 0.25 L1.0 -0.85 -0.7 -1.15 -2.4 -2.55 -3.7 -0.65 -2.95 1.25 -1.25 1.25 -0.35 1.3 1.05 0.25 M5.8 6.75 L7.3 10.6 1.9 12.4 M7.05 12.8 Q8.45 13.4 8.8 14.4 9.15 15.3 9.0 15.65 8.6 16.25 7.25 16.75 L4.95 17.1 Q4.2 17.05 3.3 15.75 2.35 14.3 4.25 13.0 5.05 12.2 7.05 12.8 M-2.65 2.95 L-1.6 2.95 1.9 2.3 3.65 6.15 5.8 6.75" fill="none" stroke="#666666" stroke-linecap="round" stroke-linejoin="round" stroke-width="1.0"/>
    <path d="M1.9 12.4 Q-0.65 9.05 -2.65 2.95" fill="none" stroke="#484848" stroke-linecap="round" stroke-linejoin="round" stroke-width="1.0"/>
    <path d="M0.75 5.3 L-0.05 5.5 -0.8 5.1 -1.05 4.45 Q-0.95 4.05 -0.55 3.8 L0.2 3.65 Q0.6 3.65 0.85 3.95 L1.1 4.65 0.75 5.3 M1.95 6.95 L1.65 7.5 1.05 7.7 0.5 7.35 0.35 6.85 0.65 6.4 Q0.9 6.15 1.2 6.2 1.5 6.15 1.75 6.45 L1.95 6.95" fill="none" stroke="#0182a0" stroke-linecap="round" stroke-linejoin="round" stroke-width="1.0"/>
  </g>
</svg>
