<?xml version="1.0" encoding="UTF-8" standalone="no"?>
<svg xmlns:xlink="http://www.w3.org/1999/xlink" height="18.4px" width="38.45px" xmlns="http://www.w3.org/2000/svg">
  <g transform="matrix(1.0, 0.0, 0.0, 1.0, 12.4, 5.8)">
    <path d="M6.25 -2.35 Q5.65 -2.35 5.2 -1.95 4.8 -1.5 4.8 -0.9 4.8 -0.3 5.2 0.1 5.65 0.55 6.25 0.55 6.85 0.55 7.25 0.1 7.7 -0.3 7.7 -0.9 L7.25 -1.95 Q6.85 -2.35 6.25 -2.35 M-9.85 5.75 Q-11.8 4.45 -11.9 2.75 -12.05 1.05 -10.35 -0.8 L-8.8 -2.65 2.15 -2.65 4.85 -5.3 7.4 -5.3 8.0 -5.3 Q19.8 -4.95 23.7 -3.1 L23.2 -2.7 22.8 -1.5 22.8 -1.35 22.8 -0.2 22.95 0.25 Q23.1 0.85 23.65 0.95 L22.5 1.55 19.25 2.15 16.6 2.35 14.3 2.45 11.75 2.45 10.45 4.2 8.9 6.3 5.85 6.3 5.7 6.05 5.6 5.8 9.65 0.6 13.0 0.6 13.55 -0.1 16.45 -0.1 18.2 -0.15 20.75 -0.15 22.8 -0.2 20.75 -0.15 18.2 -0.15 16.45 -0.1 13.55 -0.1 13.0 0.6 9.65 0.6 5.6 5.8 5.5 5.65 4.3 2.5 2.9 2.5 Q3.05 1.15 -0.9 0.4 -3.0 0.55 -3.0 1.35 L-2.95 2.25 -6.2 2.05 Q-8.6 2.1 -9.25 2.65 -10.0 3.3 -9.85 5.75 M17.5 -1.65 L10.7 -1.8 Q10.0 -3.9 7.4 -5.3 10.0 -3.9 10.7 -1.8 L17.5 -1.65 15.95 -3.35 17.5 -1.65 22.8 -1.5 17.5 -1.65 M20.75 -0.15 L19.25 2.15 20.75 -0.15 M16.45 -0.1 L14.3 2.45 16.45 -0.1 M13.0 0.6 L11.75 2.45 13.0 0.6 M18.2 -0.15 L16.6 2.35 18.2 -0.15 M-4.3 -0.7 Q-8.3 -1.25 -8.7 1.0 -8.3 -1.25 -4.3 -0.7" fill="#8c0000" fill-rule="evenodd" stroke="none"/>
    <path d="M6.25 -2.35 Q6.85 -2.35 7.25 -1.95 L7.7 -0.9 Q7.7 -0.3 7.25 0.1 6.85 0.55 6.25 0.55 5.65 0.55 5.2 0.1 4.8 -0.3 4.8 -0.9 4.8 -1.5 5.2 -1.95 5.65 -2.35 6.25 -2.35" fill="#4e76b3" fill-rule="evenodd" stroke="none"/>
    <path d="M22.5 1.55 Q22.95 3.1 22.7 3.85 22.5 4.5 21.5 4.8 L21.2 4.9 18.95 5.2 17.55 5.15 Q16.45 5.0 16.3 4.2 L10.45 4.2 11.75 2.45 14.3 2.45 16.6 2.35 19.25 2.15 22.5 1.55 M18.35 3.6 L18.95 5.2 18.35 3.6 M21.2 4.9 L20.7 3.5 21.2 4.9 M16.3 4.2 Q16.1 3.5 16.6 2.35 16.1 3.5 16.3 4.2" fill="#353638" fill-rule="evenodd" stroke="none"/>
    <path d="M-9.85 5.75 Q-11.8 4.45 -11.9 2.75 -12.05 1.05 -10.35 -0.8 L-8.8 -2.65 2.15 -2.65 4.85 -5.3 7.4 -5.3 8.0 -5.3 Q19.8 -4.95 23.7 -3.1 M23.65 0.95 L22.5 1.55 19.25 2.15 16.6 2.35 14.3 2.45 11.75 2.45 13.0 0.6 13.55 -0.1 16.45 -0.1 18.2 -0.15 20.75 -0.15 22.8 -0.2 M10.45 4.2 L8.9 6.3 5.85 6.3 5.7 6.05 5.6 5.8 9.65 0.6 13.0 0.6 M7.4 -5.3 Q10.0 -3.9 10.7 -1.8 L17.5 -1.65 22.8 -1.5 M10.45 4.2 L11.75 2.45 M2.9 2.5 L4.3 2.5 5.5 5.65 5.6 5.8 M-9.85 5.75 Q-10.0 3.3 -9.25 2.65 -8.6 2.1 -6.2 2.05 L-2.95 2.25" fill="none" stroke="#3e0100" stroke-linecap="round" stroke-linejoin="round" stroke-width="1.0"/>
    <path d="M6.25 -2.35 Q6.85 -2.35 7.25 -1.95 L7.7 -0.9 Q7.7 -0.3 7.25 0.1 6.85 0.55 6.25 0.55 5.65 0.55 5.2 0.1 4.8 -0.3 4.8 -0.9 4.8 -1.5 5.2 -1.95 5.65 -2.35 6.25 -2.35" fill="none" stroke="#335386" stroke-linecap="round" stroke-linejoin="round" stroke-width="1.0"/>
    <path d="M17.5 -1.65 L15.95 -3.35 M19.25 2.15 L20.75 -0.15 M14.3 2.45 L16.45 -0.1 M16.6 2.35 L18.2 -0.15" fill="none" stroke="#5f0000" stroke-linecap="round" stroke-linejoin="round" stroke-width="1.0"/>
    <path d="M22.5 1.55 Q22.95 3.1 22.7 3.85 22.5 4.5 21.5 4.8 L21.2 4.9 18.95 5.2 17.55 5.15 Q16.45 5.0 16.3 4.2 L10.45 4.2 M5.7 6.05 Q2.8 7.8 0.05 5.55 M20.7 3.5 L21.2 4.9 M18.95 5.2 L18.35 3.6 M16.6 2.35 Q16.1 3.5 16.3 4.2 M-8.3 8.7 Q-9.25 7.4 -9.85 5.75" fill="none" stroke="#191718" stroke-linecap="round" stroke-linejoin="round" stroke-width="1.0"/>
    <path d="M-8.7 1.0 Q-8.3 -1.25 -4.3 -0.7" fill="none" stroke="#3f0201" stroke-linecap="round" stroke-linejoin="round" stroke-width="1.0"/>
    <path d="M0.05 5.55 Q-2.1 7.95 -3.05 12.1 -5.75 11.45 -8.3 8.7 -6.4 6.8 -3.6 5.8 -0.95 4.85 -2.95 2.25 L-3.0 1.35 Q-3.0 0.55 -0.9 0.4 3.05 1.15 2.9 2.5 L0.05 5.55" fill="#353638" fill-rule="evenodd" stroke="none"/>
    <path d="M0.05 5.55 Q-2.1 7.95 -3.05 12.1 -5.75 11.45 -8.3 8.7 -6.4 6.8 -3.6 5.8 -0.95 4.85 -2.95 2.25 L-3.0 1.35 Q-3.0 0.55 -0.9 0.4 3.05 1.15 2.9 2.5 L0.05 5.55 Z" fill="none" stroke="#191718" stroke-linecap="round" stroke-linejoin="round" stroke-width="1.0"/>
    <path d="M25.25 -2.5 L25.55 -1.25 25.55 -1.1 25.15 0.35 Q24.75 0.95 23.95 1.0 L23.65 0.95 Q23.1 0.85 22.95 0.25 L22.8 -0.2 22.8 -1.35 22.8 -1.5 23.2 -2.7 23.7 -3.1 24.2 -3.15 Q24.85 -3.15 25.25 -2.5 M25.55 -1.25 L22.8 -1.5 25.55 -1.25" fill="#4e76b3" fill-rule="evenodd" stroke="none"/>
    <path d="M25.25 -2.5 L25.55 -1.25 25.55 -1.1 25.15 0.35 Q24.75 0.95 23.95 1.0 L23.65 0.95 Q23.1 0.85 22.95 0.25 L22.8 -0.2 22.8 -1.35 22.8 -1.5 23.2 -2.7 23.7 -3.1 24.2 -3.15 Q24.85 -3.15 25.25 -2.5 M22.8 -1.5 L25.55 -1.25" fill="none" stroke="#335386" stroke-linecap="round" stroke-linejoin="round" stroke-width="1.0"/>
  </g>
</svg>
