<?xml version="1.0" encoding="UTF-8" standalone="no"?>
<svg xmlns:xlink="http://www.w3.org/1999/xlink" height="8.9px" width="29.5px" xmlns="http://www.w3.org/2000/svg">
  <g transform="matrix(1.0, 0.0, 0.0, 1.0, 14.75, 4.45)">
    <path d="M-14.25 -2.9 L-10.05 -3.7 -2.75 -3.95 6.9 -3.95 10.5 -2.85 14.25 -2.85 13.25 1.25 11.25 3.95 4.95 3.75 -1.35 0.55 -12.15 0.35 -14.25 -2.9" fill="url(#gradient0)" fill-rule="evenodd" stroke="none"/>
    <path d="M14.25 -2.85 L10.5 -2.85 6.9 -3.95 -2.75 -3.95 -10.05 -3.7 -14.25 -2.9" fill="none" stroke="#026fdb" stroke-linecap="round" stroke-linejoin="round" stroke-width="1.0"/>
    <path d="M-14.25 -2.9 L-12.15 0.35 -1.35 0.55 4.95 3.75 11.25 3.95 13.25 1.25 14.25 -2.85 Z" fill="none" stroke="#263924" stroke-linecap="round" stroke-linejoin="round" stroke-width="1.0"/>
  </g>
  <defs>
    <linearGradient gradientTransform="matrix(-2.0E-4, 0.0056, -0.0048, -2.0E-4, 0.0, 0.0)" gradientUnits="userSpaceOnUse" id="gradient0" spreadMethod="pad" x1="-819.2" x2="819.2">
      <stop offset="0.0" stop-color="#b4dafe"/>
      <stop offset="1.0" stop-color="#45a2fe"/>
    </linearGradient>
  </defs>
</svg>
