<?xml version="1.0" encoding="UTF-8" standalone="no"?>
<svg xmlns:xlink="http://www.w3.org/1999/xlink" height="9.85px" width="22.3px" xmlns="http://www.w3.org/2000/svg">
  <g transform="matrix(1.0, 0.0, 0.0, 1.0, 8.4, 3.15)">
    <path d="M-2.75 3.35 L-1.15 0.85 -1.15 -1.75 Q0.05 -3.05 3.2 -2.5 5.3 -2.1 6.1 -1.25 6.75 -0.55 6.8 0.85 6.0 3.3 2.5 4.2 L0.7 3.65 -0.8 4.7 Q-1.75 5.4 -2.65 5.7 L-2.75 3.35" fill="#121718" fill-rule="evenodd" stroke="none"/>
    <path d="M6.8 0.85 Q7.6 0.35 8.45 -1.05 12.5 -0.75 13.4 6.2 L5.15 6.2 1.3 6.2 2.5 4.2 Q6.0 3.3 6.8 0.85" fill="url(#gradient0)" fill-rule="evenodd" stroke="none"/>
    <path d="M-2.65 5.7 L-7.9 5.7 Q-7.55 3.05 -6.0 2.05 -4.45 1.05 -2.9 1.8 L-2.75 3.35 -2.65 5.7" fill="url(#gradient1)" fill-rule="evenodd" stroke="none"/>
    <path d="M-2.75 3.35 L-1.15 0.85 -1.15 -1.75 Q0.05 -3.05 3.2 -2.5 5.3 -2.1 6.1 -1.25 6.75 -0.55 6.8 0.85 M2.5 4.2 L0.7 3.65 -0.8 4.7 Q-1.75 5.4 -2.65 5.7" fill="none" stroke="#070a0a" stroke-linecap="round" stroke-linejoin="round" stroke-width="1.0"/>
    <path d="M6.8 0.85 Q7.6 0.35 8.45 -1.05 12.5 -0.75 13.4 6.2 L5.15 6.2 1.3 6.2 2.5 4.2 Q6.0 3.3 6.8 0.85 M-2.65 5.7 L-7.9 5.7 Q-7.55 3.05 -6.0 2.05 -4.45 1.05 -2.9 1.8 L-2.75 3.35 -2.65 5.7" fill="none" stroke="#0c1113" stroke-linecap="round" stroke-linejoin="round" stroke-width="1.0"/>
  </g>
  <defs>
    <radialGradient cx="0" cy="0" gradientTransform="matrix(0.0262, 0.0, 0.0, 0.0262, -6.55, 11.95)" gradientUnits="userSpaceOnUse" id="gradient0" r="819.2" spreadMethod="pad">
      <stop offset="0.0" stop-color="#1d2b38"/>
      <stop offset="0.6588235294117647" stop-color="#27363f"/>
      <stop offset="1.0" stop-color="#4d6277"/>
    </radialGradient>
    <radialGradient cx="0" cy="0" gradientTransform="matrix(0.0148, 0.0, 0.0, 0.0148, 1.9, 11.25)" gradientUnits="userSpaceOnUse" id="gradient1" r="819.2" spreadMethod="pad">
      <stop offset="0.0" stop-color="#1d2b38"/>
      <stop offset="0.6588235294117647" stop-color="#27363f"/>
      <stop offset="1.0" stop-color="#4d6277"/>
    </radialGradient>
  </defs>
</svg>
