<?xml version="1.0" encoding="UTF-8" standalone="no"?>
<svg xmlns:xlink="http://www.w3.org/1999/xlink" height="23.0px" width="64.9px" xmlns="http://www.w3.org/2000/svg">
  <g transform="matrix(1.0, 0.0, 0.0, 1.0, 16.6, 8.35)">
    <path d="M5.0 -4.45 L3.25 -4.45 Q2.85 -4.45 2.5 -4.8 L2.4 -5.5 2.5 -6.25 3.25 -6.55 5.3 -6.55 5.4 -5.45 5.0 -4.45 M15.05 -4.45 L15.85 -5.45 Q16.5 -6.3 15.95 -6.55 L20.85 -6.55 21.55 -6.25 21.75 -5.5 Q21.75 -4.9 21.55 -4.8 21.3 -4.45 20.85 -4.45 L15.05 -4.45" fill="#5175b1" fill-rule="evenodd" stroke="none"/>
    <path d="M5.3 -6.55 L3.25 -6.55 2.5 -6.25 2.4 -5.5 2.5 -4.8 Q2.85 -4.45 3.25 -4.45 L5.0 -4.45 M15.05 -4.45 L20.85 -4.45 Q21.3 -4.45 21.55 -4.8 21.75 -4.9 21.75 -5.5 L21.55 -6.25 20.85 -6.55 15.95 -6.55" fill="none" stroke="#325285" stroke-linecap="round" stroke-linejoin="round" stroke-width="1.0"/>
    <path d="M3.3 -2.55 L1.35 -0.6 -0.55 -0.8 Q-0.55 -1.95 0.05 -2.6 L3.3 -2.55 M19.95 -2.55 L43.85 -2.4 43.85 -3.15 45.7 -3.15 45.7 -3.95 46.25 -3.95 46.25 -2.4 47.7 -2.4 Q47.95 -1.3 47.6 0.35 L25.75 0.45 20.85 0.45 Q21.1 -1.3 19.95 -2.55 M43.85 -2.4 L45.7 -2.4 45.7 -3.15 45.7 -2.4 46.25 -2.4 45.7 -2.4 43.85 -2.4 M0.7 1.0 L1.5 2.25 -1.5 5.95 Q-3.2 8.55 -1.15 10.15 -0.75 11.2 -1.45 12.85 -2.2 14.55 -4.05 14.05 -7.55 12.8 -7.95 11.6 L-7.25 9.95 Q-7.25 7.85 -6.15 5.95 L-2.25 1.75 -1.5 1.0 0.7 1.0 M-7.25 9.95 L-4.75 10.25 Q-4.95 8.5 -4.25 7.15 -5.1 6.35 -6.15 5.95 -5.1 6.35 -4.25 7.15 -4.95 8.5 -4.75 10.25 L-7.25 9.95" fill="#353638" fill-rule="evenodd" stroke="none"/>
    <path d="M3.3 -2.55 L0.05 -2.6 Q-0.55 -1.95 -0.55 -0.8 L1.35 -0.6 M19.95 -2.55 L43.85 -2.4 43.85 -3.15 45.7 -3.15 45.7 -3.95 46.25 -3.95 46.25 -2.4 47.7 -2.4 Q47.95 -1.3 47.6 0.35 L25.75 0.45 M45.7 -3.15 L45.7 -2.4 46.25 -2.4 M45.7 -2.4 L43.85 -2.4 M-1.45 12.85 Q1.15 13.9 2.7 13.6 2.6 11.45 4.55 8.35 L7.05 5.25 M0.7 1.0 L-1.5 1.0 -2.25 1.75 -6.15 5.95 Q-7.25 7.85 -7.25 9.95 L-7.95 11.6 Q-7.55 12.8 -4.05 14.05 -2.2 14.55 -1.45 12.85 -0.75 11.2 -1.15 10.15 -3.2 8.55 -1.5 5.95 L1.5 2.25 M-7.25 9.95 L-8.25 9.95 -10.7 8.35 -13.0 8.35 M-2.25 1.75 L-11.85 1.75" fill="none" stroke="#191718" stroke-linecap="round" stroke-linejoin="round" stroke-width="1.0"/>
    <path d="M-6.15 5.95 Q-5.1 6.35 -4.25 7.15 -4.95 8.5 -4.75 10.25 L-7.25 9.95" fill="none" stroke="#201e1f" stroke-linecap="round" stroke-linejoin="round" stroke-width="1.0"/>
    <path d="M4.2 -3.45 L5.0 -4.45 5.4 -5.45 5.3 -6.55 4.5 -7.8 Q12.05 -8.15 15.95 -6.55 16.5 -6.3 15.85 -5.45 L15.05 -4.45 13.8 -3.0 16.2 -2.95 18.3 -2.9 19.6 -2.9 19.95 -2.55 Q21.1 -1.3 20.85 0.45 L25.75 0.45 Q24.6 2.25 21.15 4.95 18.7 6.8 16.35 7.7 L14.0 8.2 13.1 6.8 10.3 6.55 10.3 5.1 7.05 5.25 Q4.45 5.15 2.2 4.25 L1.5 2.25 0.7 1.0 0.25 0.35 4.0 -3.3 4.2 -3.45 M6.85 0.45 Q6.8 -0.1 6.4 -0.5 L5.65 -0.85 6.4 -0.5 Q6.8 -0.1 6.85 0.45 8.95 0.3 9.6 2.05 7.55 3.0 7.05 5.25 7.55 3.0 9.6 2.05 8.95 0.3 6.85 0.45 L6.85 0.55 Q6.85 1.15 6.4 1.55 6.0 2.0 5.4 2.0 L4.35 1.55 Q3.95 1.15 3.95 0.55 3.95 -0.05 4.35 -0.5 4.85 -0.9 5.4 -0.9 L5.65 -0.85 5.4 -0.9 Q4.85 -0.9 4.35 -0.5 3.95 -0.05 3.95 0.55 3.95 1.15 4.35 1.55 L5.4 2.0 Q6.0 2.0 6.4 1.55 6.85 1.15 6.85 0.55 L6.85 0.45 M4.0 -3.3 L5.65 -3.25 5.65 -0.85 5.65 -3.25 4.0 -3.3 M18.3 -2.9 Q18.5 -1.7 18.0 -0.65 18.5 -1.7 18.3 -2.9 M16.2 -2.95 Q16.65 -1.7 15.95 -0.45 16.65 -1.7 16.2 -2.95 M10.3 5.1 Q14.55 4.05 16.75 1.85 19.65 1.55 20.65 1.05 L20.85 0.45 20.65 1.05 Q19.65 1.55 16.75 1.85 14.55 4.05 10.3 5.1 M5.4 -5.45 L15.85 -5.45 5.4 -5.45 M13.8 -3.0 L5.65 -3.25 13.8 -3.0 M16.35 7.7 Q14.9 5.85 16.35 5.1 L17.95 4.05 Q20.1 3.2 21.15 4.95 20.1 3.2 17.95 4.05 L16.35 5.1 Q14.9 5.85 16.35 7.7 M-13.0 8.35 L-13.0 8.45 Q-14.65 9.4 -16.1 8.45 -16.25 2.3 -14.8 0.6 -11.5 0.45 -11.6 1.2 L-11.85 1.75 Q-13.3 5.0 -13.0 8.35" fill="#8c0000" fill-rule="evenodd" stroke="none"/>
    <path d="M4.2 -3.45 L5.0 -4.45 5.4 -5.45 5.3 -6.55 4.5 -7.8 Q12.05 -8.15 15.95 -6.55 16.5 -6.3 15.85 -5.45 L15.05 -4.45 13.8 -3.0 16.2 -2.95 18.3 -2.9 19.6 -2.9 19.95 -2.55 Q21.1 -1.3 20.85 0.45 L25.75 0.45 Q24.6 2.25 21.15 4.95 18.7 6.8 16.35 7.7 L14.0 8.2 13.1 6.8 10.3 6.55 10.3 5.1 7.05 5.25 Q4.45 5.15 2.2 4.25 L1.5 2.25 0.7 1.0 0.25 0.35 4.0 -3.3 4.2 -3.45 M6.85 0.45 Q8.95 0.3 9.6 2.05 7.55 3.0 7.05 5.25 M5.65 -0.85 L5.65 -3.25 4.0 -3.3 M5.65 -3.25 L13.8 -3.0 M15.85 -5.45 L5.4 -5.45 M20.85 0.45 L20.65 1.05 Q19.65 1.55 16.75 1.85 14.55 4.05 10.3 5.1 M-13.0 8.35 L-13.0 8.45 Q-14.65 9.4 -16.1 8.45 -16.25 2.3 -14.8 0.6 -11.5 0.45 -11.6 1.2 L-11.85 1.75 Q-13.3 5.0 -13.0 8.35" fill="none" stroke="#3e0100" stroke-linecap="round" stroke-linejoin="round" stroke-width="1.0"/>
    <path d="M5.65 -0.85 L6.4 -0.5 Q6.8 -0.1 6.85 0.45 L6.85 0.55 Q6.85 1.15 6.4 1.55 6.0 2.0 5.4 2.0 L4.35 1.55 Q3.95 1.15 3.95 0.55 3.95 -0.05 4.35 -0.5 4.85 -0.9 5.4 -0.9 L5.65 -0.85" fill="none" stroke="#400000" stroke-linecap="round" stroke-linejoin="round" stroke-width="1.0"/>
    <path d="M15.95 -0.45 Q16.65 -1.7 16.2 -2.95 M18.0 -0.65 Q18.5 -1.7 18.3 -2.9 M21.15 4.95 Q20.1 3.2 17.95 4.05 L16.35 5.1 Q14.9 5.85 16.35 7.7" fill="none" stroke="#5f0000" stroke-linecap="round" stroke-linejoin="round" stroke-width="1.0"/>
    <path d="M9.75 -6.25 Q10.2 -6.6 10.65 -6.6 L10.8 -6.55 11.4 -6.25 11.8 -5.5 11.8 -5.45 Q11.8 -4.95 11.4 -4.65 11.1 -4.3 10.65 -4.3 10.2 -4.3 9.75 -4.65 9.5 -4.95 9.5 -5.45 L9.75 -6.25" fill="#3e0100" fill-rule="evenodd" stroke="none"/>
  </g>
</svg>
