<?xml version="1.0" encoding="UTF-8" standalone="no"?>
<svg xmlns:xlink="http://www.w3.org/1999/xlink" height="26.5px" width="18.9px" xmlns="http://www.w3.org/2000/svg">
  <g transform="matrix(1.0, 0.0, 0.0, 1.0, 10.55, 2.7)">
    <path d="M1.05 1.9 L1.35 6.0 -0.75 6.3 -1.1 1.95 -0.3 2.15 1.05 1.9 M5.65 21.35 L3.65 21.9 0.4 13.15 -0.95 12.0 -0.3 10.25 1.7 9.55 2.85 10.7 -0.95 12.0 2.85 10.7 2.2 12.4 5.65 21.35 M-4.6 10.85 L-6.55 10.0 -6.15 8.55 -4.3 9.4 -4.6 10.85" fill="#121718" fill-rule="evenodd" stroke="none"/>
    <path d="M-1.1 1.95 L-1.8 1.4 Q-2.35 0.7 -2.25 -0.25 -2.15 -1.15 -1.45 -1.7 -0.75 -2.25 0.15 -2.2 1.1 -2.1 1.65 -1.4 2.25 -0.7 2.1 0.2 2.0 1.15 1.3 1.7 L1.05 1.9 -0.3 2.15 -1.1 1.95" fill="#46596c" fill-rule="evenodd" stroke="none"/>
    <path d="M-2.7 20.2 Q-4.3 16.2 -4.8 14.05 L-1.25 14.85 0.0 18.95 -2.7 20.2 M-6.55 10.0 L-7.0 10.85 -10.05 9.65 -9.25 6.9 -6.0 8.0 -6.15 8.55 -6.55 10.0" fill="#24333d" fill-rule="evenodd" stroke="none"/>
    <path d="M1.35 6.0 L3.75 6.15 7.85 19.6 5.65 21.35 2.2 12.4 2.85 10.7 1.7 9.55 -0.3 10.25 -0.95 12.0 0.4 13.15 3.65 21.9 -1.45 23.3 -2.7 20.2 0.0 18.95 -1.25 14.85 -4.8 14.05 -4.8 14.0 Q-5.1 12.6 -4.6 10.85 L-4.3 9.4 -3.25 7.2 Q-2.0 6.6 -0.75 6.3 L1.35 6.0" fill="url(#gradient0)" fill-rule="evenodd" stroke="none"/>
    <path d="M1.05 1.9 L1.35 6.0 3.75 6.15 7.85 19.6 5.65 21.35 3.65 21.9 -1.45 23.3 -2.7 20.2 Q-4.3 16.2 -4.8 14.05 L-4.8 14.0 Q-5.1 12.6 -4.6 10.85 L-6.55 10.0 -7.0 10.85 -10.05 9.65 -9.25 6.9 -6.0 8.0 -6.15 8.55 -4.3 9.4 -3.25 7.2 Q-2.0 6.6 -0.75 6.3 L-1.1 1.95 M2.85 10.7 L1.7 9.55 -0.3 10.25 -0.95 12.0 2.85 10.7 2.2 12.4 5.65 21.35 M-0.95 12.0 L0.4 13.15 3.65 21.9 M-6.15 8.55 L-6.55 10.0 M-4.6 10.85 L-4.3 9.4 M-0.75 6.3 L1.35 6.0" fill="none" stroke="#070a0a" stroke-linecap="round" stroke-linejoin="round" stroke-width="1.0"/>
    <path d="M-1.1 1.95 L-1.8 1.4 Q-2.35 0.7 -2.25 -0.25 -2.15 -1.15 -1.45 -1.7 -0.75 -2.25 0.15 -2.2 1.1 -2.1 1.65 -1.4 2.25 -0.7 2.1 0.2 2.0 1.15 1.3 1.7 L1.05 1.9 -0.3 2.15 -1.1 1.95" fill="none" stroke="#0c1113" stroke-linecap="round" stroke-linejoin="round" stroke-width="1.0"/>
    <path d="M-4.8 14.05 L-1.25 14.85 0.0 18.95 -2.7 20.2" fill="none" stroke="#131c20" stroke-linecap="round" stroke-linejoin="round" stroke-width="1.0"/>
  </g>
  <defs>
    <radialGradient cx="0" cy="0" gradientTransform="matrix(0.0265, 0.0, 0.0, 0.0265, -13.55, 15.95)" gradientUnits="userSpaceOnUse" id="gradient0" r="819.2" spreadMethod="pad">
      <stop offset="0.0" stop-color="#1d2b38"/>
      <stop offset="0.6588235294117647" stop-color="#27363f"/>
      <stop offset="1.0" stop-color="#4d6277"/>
    </radialGradient>
  </defs>
</svg>
