<?xml version="1.0" encoding="UTF-8" standalone="no"?>
<svg xmlns:xlink="http://www.w3.org/1999/xlink" height="29.05px" width="39.35px" xmlns="http://www.w3.org/2000/svg">
  <g transform="matrix(1.0, 0.0, 0.0, 1.0, 19.6, 19.6)">
    <path d="M1.2 5.45 L1.2 3.3 1.2 5.45 -2.75 5.45 -6.55 5.45 -10.5 5.45 -10.5 3.3 -14.3 3.3 -10.5 3.3 -10.5 5.45 -14.3 5.45 -14.3 3.3 -14.35 1.2 -10.5 1.2 -6.6 1.2 -6.55 1.2 -2.75 1.2 1.2 1.2 1.2 3.3 5.15 3.3 5.15 5.45 1.2 5.45 M1.2 3.3 L-2.75 3.3 -2.75 1.2 -2.75 3.3 1.2 3.3 M-6.55 1.2 L-6.55 3.3 -10.5 3.3 -10.5 1.2 -10.5 3.3 -6.55 3.3 -6.55 1.2 M-2.75 5.45 L-2.75 3.3 -6.55 3.3 -6.55 5.45 -6.55 3.3 -2.75 3.3 -2.75 5.45" fill="#666666" fill-rule="evenodd" stroke="none"/>
    <path d="M7.15 -0.4 L4.85 -2.7 3.9 -2.7 -15.5 -2.7 -15.5 -12.1 -15.5 -12.3 -12.5 -15.3 12.6 -15.3 15.6 -12.3 15.6 -12.1 15.6 -11.15 15.6 -0.4 15.6 4.45 9.75 4.45 9.75 2.2 7.15 -0.4" fill="#1e1e1e" fill-rule="evenodd" stroke="none"/>
    <path d="M7.15 -0.4 L9.75 2.2 9.75 4.45 15.6 4.45 15.6 -0.4 15.6 -11.15 15.6 -12.1 15.6 -12.3 12.6 -15.3 -12.5 -15.3 -15.5 -12.3 -15.5 -12.1 -15.5 -2.7 3.9 -2.7 4.85 -2.7 7.15 -0.4 M19.2 -13.6 L19.25 8.95 -19.1 8.95 -19.1 -13.6 -13.6 -19.1 13.7 -19.1 19.2 -13.6 M1.2 5.45 L5.15 5.45 5.15 3.3 1.2 3.3 1.2 1.2 -2.75 1.2 -6.55 1.2 -6.6 1.2 -10.5 1.2 -14.35 1.2 -14.3 3.3 -14.3 5.45 -10.5 5.45 -6.55 5.45 -2.75 5.45 1.2 5.45" fill="url(#gradient0)" fill-rule="evenodd" stroke="none"/>
    <path d="M7.15 -0.4 L9.75 2.2 9.75 4.45 15.6 4.45 15.6 -0.4 15.6 -11.15 15.6 -12.1 15.6 -12.3 12.6 -15.3 -12.5 -15.3 -15.5 -12.3 -15.5 -12.1 -15.5 -2.7 3.9 -2.7 4.85 -2.7 7.15 -0.4 M19.2 -13.6 L19.25 8.95 -19.1 8.95 -19.1 -13.6 -13.6 -19.1 13.7 -19.1 19.2 -13.6 M1.2 3.3 L1.2 5.45 5.15 5.45 5.15 3.3 1.2 3.3 1.2 1.2 -2.75 1.2 -2.75 3.3 1.2 3.3 M-6.55 1.2 L-2.75 1.2 M-10.5 1.2 L-10.5 3.3 -6.55 3.3 -6.55 1.2 M-6.6 1.2 L-10.5 1.2 -14.35 1.2 -14.3 3.3 -10.5 3.3 -10.5 5.45 -6.55 5.45 -6.55 3.3 -2.75 3.3 -2.75 5.45 1.2 5.45 M-2.75 5.45 L-6.55 5.45 M-10.5 5.45 L-14.3 5.45 -14.3 3.3" fill="none" stroke="#333333" stroke-linecap="round" stroke-linejoin="round" stroke-width="1.0"/>
  </g>
  <defs>
    <linearGradient gradientTransform="matrix(0.0, 0.0234, -0.0221, 0.0, 0.1, -0.95)" gradientUnits="userSpaceOnUse" id="gradient0" spreadMethod="pad" x1="-819.2" x2="819.2">
      <stop offset="0.0" stop-color="#999999"/>
      <stop offset="1.0" stop-color="#4d4d4d"/>
    </linearGradient>
  </defs>
</svg>
