<?xml version="1.0" encoding="UTF-8" standalone="no"?>
<svg xmlns:xlink="http://www.w3.org/1999/xlink" height="21.2px" width="15.6px" xmlns="http://www.w3.org/2000/svg">
  <g transform="matrix(1.0, 0.0, 0.0, 1.0, 5.05, 2.45)">
    <path d="M-4.1 2.15 L-4.55 -0.1 Q-3.8 -1.1 -2.0 -1.65 L2.85 -1.8 Q5.5 1.3 8.45 9.4 L6.95 10.35 5.5 10.65 3.5 10.35 Q1.8 6.4 -0.75 2.95 L-4.1 2.15 M3.1 1.7 L1.55 2.35 3.1 1.7 M4.3 3.7 L2.85 4.3 4.3 3.7" fill="#21333f" fill-rule="evenodd" stroke="none"/>
    <path d="M8.45 9.4 L8.8 10.85 8.55 11.35 Q8.0 12.0 6.8 12.25 L4.5 12.4 2.6 12.2 Q-2.1 6.5 -4.1 2.15 L-0.75 2.95 Q1.8 6.4 3.5 10.35 L5.5 10.65 6.95 10.35 8.45 9.4" fill="#21303d" fill-rule="evenodd" stroke="none"/>
    <path d="M6.3 17.55 L5.7 17.1 Q5.05 16.45 4.9 15.6 4.65 14.7 5.05 14.15 5.35 13.6 6.3 13.45 7.1 13.25 7.9 13.75 8.55 14.2 8.75 15.1 8.95 15.95 8.4 16.75 7.9 17.5 7.15 17.65 L6.3 17.55" fill="#252f3b" fill-rule="evenodd" stroke="none"/>
    <path d="M8.55 11.35 Q9.3 12.15 9.75 13.45 10.25 15.05 9.9 16.45 9.55 17.85 8.5 18.2 7.45 18.5 6.35 17.6 L6.3 17.55 7.15 17.65 Q7.9 17.5 8.4 16.75 8.95 15.95 8.75 15.1 8.55 14.2 7.9 13.75 7.1 13.25 6.3 13.45 5.35 13.6 5.05 14.15 4.65 14.7 4.9 15.6 L4.7 15.1 Q4.2 13.65 4.5 12.4 L6.8 12.25 Q8.0 12.0 8.55 11.35" fill="#485567" fill-rule="evenodd" stroke="none"/>
    <path d="M-4.1 2.15 L-4.55 -0.1 Q-3.8 -1.1 -2.0 -1.65 L2.85 -1.8 Q5.5 1.3 8.45 9.4 L8.8 10.85 8.55 11.35 Q9.3 12.15 9.75 13.45 10.25 15.05 9.9 16.45 9.55 17.85 8.5 18.2 7.45 18.5 6.35 17.6 L6.3 17.55 5.7 17.1 Q5.05 16.45 4.9 15.6 L4.7 15.1 Q4.2 13.65 4.5 12.4 L2.6 12.2 Q-2.1 6.5 -4.1 2.15 L-0.75 2.95 Q1.8 6.4 3.5 10.35 L5.5 10.65 6.95 10.35 8.45 9.4 M8.55 11.35 Q8.0 12.0 6.8 12.25 L4.5 12.4 M4.9 15.6 Q4.65 14.7 5.05 14.15 5.35 13.6 6.3 13.45 7.1 13.25 7.9 13.75 8.55 14.2 8.75 15.1 8.95 15.95 8.4 16.75 7.9 17.5 7.15 17.65 L6.3 17.55" fill="none" stroke="#0a1015" stroke-linecap="round" stroke-linejoin="round" stroke-width="1.0"/>
    <path d="M2.85 4.3 L4.3 3.7 M1.55 2.35 L3.1 1.7" fill="none" stroke="#0f181e" stroke-linecap="round" stroke-linejoin="round" stroke-width="1.0"/>
  </g>
</svg>
