<?xml version="1.0" encoding="UTF-8" standalone="no"?>
<svg xmlns:xlink="http://www.w3.org/1999/xlink" height="22.3px" width="17.05px" xmlns="http://www.w3.org/2000/svg">
  <g transform="matrix(1.0, 0.0, 0.0, 1.0, 12.3, 6.4)">
    <path d="M-7.25 9.0 Q-10.25 9.15 -11.25 8.25 -12.4 6.8 -11.15 4.15 -9.75 1.4 -7.5 0.25 -5.3 -0.7 -2.3 -1.05 0.2 -0.95 1.25 -1.8 2.35 -2.25 2.65 -1.65 2.7 -1.25 3.2 -1.0 3.7 -0.75 2.7 1.55 1.65 3.8 0.0 5.3 L-1.25 6.15 -3.1 7.3 -5.25 8.4 -7.25 9.0 M-11.25 8.25 Q-8.8 6.45 -7.15 4.2 L-8.2 2.65 -7.15 4.2 Q-8.8 6.45 -11.25 8.25" fill="#cccccc" fill-rule="evenodd" stroke="none"/>
    <path d="M0.0 5.3 L1.95 13.9 0.55 14.0 -1.25 6.15 0.0 5.3 M-5.25 8.4 Q-2.7 11.1 -0.7 14.55 -1.3 14.8 -2.3 15.4 L-7.25 9.0 -5.25 8.4" fill="#333333" fill-rule="evenodd" stroke="none"/>
    <path d="M0.0 5.3 L1.95 13.9 0.55 14.0 -1.25 6.15 0.0 5.3 M-5.25 8.4 Q-2.7 11.1 -0.7 14.55 -1.3 14.8 -2.3 15.4 L-7.25 9.0 -5.25 8.4" fill="none" stroke="#1a1a1a" stroke-linecap="round" stroke-linejoin="round" stroke-width="1.0"/>
    <path d="M-7.25 9.0 Q-10.25 9.15 -11.25 8.25 -12.4 6.8 -11.15 4.15 -9.75 1.4 -7.5 0.25 -5.3 -0.7 -2.3 -1.05 0.2 -0.95 1.25 -1.8 2.35 -2.25 2.65 -1.65 2.7 -1.25 3.2 -1.0 3.7 -0.75 2.7 1.55 1.65 3.8 0.0 5.3 M-1.25 6.15 L-3.1 7.3 -5.25 8.4" fill="none" stroke="#7b7b7b" stroke-linecap="round" stroke-linejoin="round" stroke-width="1.0"/>
    <path d="M-8.2 2.65 L-7.15 4.2 Q-8.8 6.45 -11.25 8.25" fill="none" stroke="#aaaaaa" stroke-linecap="round" stroke-linejoin="round" stroke-width="1.0"/>
    <path d="M3.85 -5.45 L4.1 -4.65 Q4.4 -3.25 4.05 -2.15 3.75 -1.35 1.75 0.4 L1.2 0.45 Q0.15 -2.6 0.6 -5.1 2.3 -6.45 3.85 -5.45" fill="#666666" fill-rule="evenodd" stroke="none"/>
    <path d="M3.85 -5.45 L4.1 -4.65 Q4.4 -3.25 4.05 -2.15 3.75 -1.35 1.75 0.4 L1.2 0.45 Q0.15 -2.6 0.6 -5.1 2.3 -6.45 3.85 -5.45 Z" fill="none" stroke="#3c3c3c" stroke-linecap="round" stroke-linejoin="round" stroke-width="1.0"/>
  </g>
</svg>
