<?xml version="1.0" encoding="UTF-8" standalone="no"?>
<svg xmlns:xlink="http://www.w3.org/1999/xlink" height="9.35px" width="19.35px" xmlns="http://www.w3.org/2000/svg">
  <g transform="matrix(1.0, 0.0, 0.0, 1.0, 6.65, 2.65)">
    <path d="M10.45 4.1 Q10.8 5.55 10.25 6.2 L2.3 6.2 1.5 4.45 Q4.1 2.25 5.75 2.2 8.2 1.85 9.1 2.5 10.85 3.7 10.45 4.1" fill="#f0c468" fill-rule="evenodd" stroke="none"/>
    <path d="M10.25 6.2 Q10.8 5.55 10.45 4.1 12.4 4.5 12.15 6.2 L10.25 6.2" fill="#a47a4d" fill-rule="evenodd" stroke="none"/>
    <path d="M1.5 4.45 L2.3 6.2 0.2 6.2 0.3 5.45 Q0.4 4.65 1.5 4.45 M-2.5 6.2 L-6.1 6.2 Q-6.5 3.05 -4.0 3.1 L-2.5 6.2" fill="#d3b367" fill-rule="evenodd" stroke="none"/>
    <path d="M5.75 2.2 Q4.1 2.25 1.5 4.45 0.4 4.65 0.3 5.45 L0.2 6.2 Q-1.35 4.3 -2.5 6.2 L-4.0 3.1 Q-2.3 -3.05 1.3 -2.0 4.9 -0.95 5.75 2.2" fill="#7e6a3d" fill-rule="evenodd" stroke="none"/>
    <path d="M10.45 4.1 Q10.8 5.55 10.25 6.2 M5.75 2.2 Q4.1 2.25 1.5 4.45 L2.3 6.2 M-4.0 3.1 L-2.5 6.2" fill="none" stroke="#564a32" stroke-linecap="round" stroke-linejoin="round" stroke-width="1.0"/>
    <path d="M10.25 6.2 L12.15 6.2 Q12.4 4.5 10.45 4.1 10.85 3.7 9.1 2.5 8.2 1.85 5.75 2.2 4.9 -0.95 1.3 -2.0 -2.3 -3.05 -4.0 3.1 -6.5 3.05 -6.1 6.2 L-2.5 6.2 Q-1.35 4.3 0.2 6.2 L0.3 5.45 Q0.4 4.65 1.5 4.45 M2.3 6.2 L10.25 6.2 M2.3 6.2 L0.2 6.2" fill="none" stroke="#453d29" stroke-linecap="round" stroke-linejoin="round" stroke-width="1.0"/>
  </g>
</svg>
