<?xml version="1.0" encoding="UTF-8" standalone="no"?>
<svg xmlns:xlink="http://www.w3.org/1999/xlink" height="18.8px" width="41.55px" xmlns="http://www.w3.org/2000/svg">
  <g transform="matrix(1.0, 0.0, 0.0, 1.0, -28.4, 9.4)">
    <path d="M37.4 -6.7 Q39.0 -3.9 39.0 0.0 39.0 3.8 37.4 6.6 35.9 9.4 33.7 9.4 31.5 9.4 30.0 6.6 28.4 3.8 28.4 0.0 28.4 -3.9 30.0 -6.7 31.5 -9.4 33.7 -9.4 35.9 -9.4 37.4 -6.7" fill="url(#gradient0)" fill-rule="evenodd" stroke="none"/>
    <path d="M39.55 -6.55 Q52.15 -6.55 61.05 -4.65 69.95 -2.75 69.95 0.1 69.95 2.8 61.05 4.7 52.15 6.6 39.55 6.6 L35.45 6.6 35.45 -6.4 39.55 -6.55" fill="url(#gradient1)" fill-rule="evenodd" stroke="none"/>
  </g>
  <defs>
    <radialGradient cx="0" cy="0" gradientTransform="matrix(0.0066, 0.0, 0.0, 0.0117, 33.7, 0.0)" gradientUnits="userSpaceOnUse" id="gradient0" r="819.2" spreadMethod="pad">
      <stop offset="0.36470588235294116" stop-color="#ffffff"/>
      <stop offset="1.0" stop-color="#00ccff" stop-opacity="0.0"/>
    </radialGradient>
    <radialGradient cx="0" cy="0" gradientTransform="matrix(0.0372, 0.0, 0.0, 0.008, 39.65, -0.05)" gradientUnits="userSpaceOnUse" id="gradient1" r="819.2" spreadMethod="pad">
      <stop offset="0.36470588235294116" stop-color="#ffffff"/>
      <stop offset="1.0" stop-color="#00e6ff" stop-opacity="0.0"/>
    </radialGradient>
  </defs>
</svg>
