<?xml version="1.0" encoding="UTF-8" standalone="no"?>
<svg xmlns:xlink="http://www.w3.org/1999/xlink" height="22.7px" width="18.15px" xmlns="http://www.w3.org/2000/svg">
  <g transform="matrix(1.0, 0.0, 0.0, 1.0, 8.8, 6.15)">
    <path d="M-2.7 -4.75 L-0.8 -5.1 Q2.5 -5.3 3.45 -2.7 4.35 -0.2 4.05 2.2 L-4.6 4.15 Q-5.25 2.75 -5.35 0.95 L-2.2 0.95 -2.0 -3.5 -2.7 -4.75" fill="url(#gradient0)" fill-rule="evenodd" stroke="none"/>
    <path d="M4.3 4.95 L4.7 8.2 5.0 9.95 2.0 10.35 2.55 14.05 1.25 14.2 Q-1.55 10.3 -3.15 7.4 L4.3 4.95" fill="url(#gradient1)" fill-rule="evenodd" stroke="none"/>
    <path d="M-8.3 -4.05 L-8.15 -4.65 -8.0 -5.65 -6.6 -5.65 -3.2 -5.65 -2.7 -4.75 -2.0 -3.5 -2.2 0.95 -5.35 0.95 -8.0 0.95 -8.3 -0.35 -3.7 -0.35 -4.7 -1.45 -5.3 -1.45 -8.3 -1.45 -8.3 -2.85 -5.6 -2.85 -6.6 -4.05 -8.3 -4.05 M4.05 2.2 Q3.95 3.05 4.3 4.95 L-3.15 7.4 -4.6 4.15 4.05 2.2 M5.0 9.95 L8.2 8.95 8.85 12.5 5.0 13.0 4.7 15.8 2.85 16.05 2.55 14.05 2.0 10.35 5.0 9.95 M4.35 11.4 L3.55 11.4 4.35 11.4" fill="#624040" fill-rule="evenodd" stroke="none"/>
    <path d="M-8.3 -0.35 L-8.3 -1.45 -5.3 -1.45 -4.7 -1.45 -3.7 -0.35 -8.3 -0.35 M-8.3 -2.85 L-8.3 -4.05 -6.6 -4.05 -5.6 -2.85 -8.3 -2.85" fill="#1d1616" fill-rule="evenodd" stroke="none"/>
    <path d="M-2.7 -4.75 L-0.8 -5.1 Q2.5 -5.3 3.45 -2.7 4.35 -0.2 4.05 2.2 M4.3 4.95 L4.7 8.2 5.0 9.95 M2.55 14.05 L1.25 14.2 Q-1.55 10.3 -3.15 7.4 M-4.6 4.15 Q-5.25 2.75 -5.35 0.95" fill="none" stroke="#000000" stroke-linecap="round" stroke-linejoin="round" stroke-width="1.0"/>
    <path d="M-8.3 -4.05 L-8.15 -4.65 -8.0 -5.65 -6.6 -5.65 -3.2 -5.65 -2.7 -4.75 M4.05 2.2 Q3.95 3.05 4.3 4.95 M5.0 9.95 L8.2 8.95 8.85 12.5 5.0 13.0 4.7 15.8 2.85 16.05 2.55 14.05 M-3.15 7.4 L-4.6 4.15 M-5.35 0.95 L-8.0 0.95 -8.3 -0.35 -8.3 -1.45 -8.3 -2.85 -8.3 -4.05" fill="none" stroke="#0a0707" stroke-linecap="round" stroke-linejoin="round" stroke-width="1.0"/>
    <path d="M-2.7 -4.75 L-2.0 -3.5 -2.2 0.95 -5.35 0.95 M5.0 9.95 L2.0 10.35 2.55 14.05 M3.55 11.4 L4.35 11.4 M4.05 2.2 L-4.6 4.15 M-3.15 7.4 L4.3 4.95" fill="none" stroke="#140e0e" stroke-linecap="round" stroke-linejoin="round" stroke-width="1.0"/>
  </g>
  <defs>
    <linearGradient gradientTransform="matrix(0.0056, -0.0015, 0.003, 0.0115, 0.4, 4.5)" gradientUnits="userSpaceOnUse" id="gradient0" spreadMethod="pad" x1="-819.2" x2="819.2">
      <stop offset="0.0" stop-color="#222222"/>
      <stop offset="0.23921568627450981" stop-color="#111111"/>
      <stop offset="0.5254901960784314" stop-color="#2d2d2d"/>
      <stop offset="0.7843137254901961" stop-color="#454545"/>
      <stop offset="1.0" stop-color="#636363"/>
    </linearGradient>
    <linearGradient gradientTransform="matrix(0.0048, -0.0027, 0.0026, 0.0045, 3.55, 8.45)" gradientUnits="userSpaceOnUse" id="gradient1" spreadMethod="pad" x1="-819.2" x2="819.2">
      <stop offset="0.0" stop-color="#222222"/>
      <stop offset="0.23921568627450981" stop-color="#111111"/>
      <stop offset="0.5254901960784314" stop-color="#2d2d2d"/>
      <stop offset="0.7843137254901961" stop-color="#454545"/>
      <stop offset="1.0" stop-color="#636363"/>
    </linearGradient>
  </defs>
</svg>
