<?xml version="1.0" encoding="UTF-8" standalone="no"?>
<svg xmlns:xlink="http://www.w3.org/1999/xlink" height="18.9px" width="16.15px" xmlns="http://www.w3.org/2000/svg">
  <g transform="matrix(1.0, 0.0, 0.0, 1.0, 8.1, 9.45)">
    <path d="M7.1 -8.5 L6.85 -7.85 Q6.55 -7.55 6.15 -7.55 5.8 -7.55 5.5 -7.85 5.2 -8.15 5.2 -8.5 5.2 -8.9 5.5 -9.2 L6.15 -9.45 6.85 -9.2 7.1 -8.5 M2.3 -3.7 Q3.05 -3.7 3.6 -3.2 4.1 -2.65 4.1 -1.9 4.1 -1.15 3.6 -0.6 3.05 -0.1 2.3 -0.1 L1.95 -0.1 2.0 0.2 1.75 0.85 1.05 1.15 0.4 0.85 0.1 0.2 Q0.1 -0.2 0.4 -0.5 L0.9 -0.7 Q0.5 -1.25 0.5 -1.9 0.5 -2.65 1.0 -3.2 1.55 -3.7 2.3 -3.7 M1.75 -4.65 L1.5 -4.0 Q1.2 -3.7 0.8 -3.7 0.45 -3.7 0.15 -4.0 L-0.15 -4.65 0.15 -5.35 0.8 -5.6 1.5 -5.35 1.75 -4.65 M5.45 -2.1 Q5.15 -2.4 5.15 -2.75 5.15 -3.15 5.45 -3.45 L6.1 -3.7 6.8 -3.45 7.05 -2.75 6.8 -2.1 Q6.5 -1.8 6.1 -1.8 5.75 -1.8 5.45 -2.1 M8.05 1.85 L7.8 2.5 7.1 2.8 Q6.75 2.8 6.45 2.5 6.15 2.2 6.15 1.85 6.15 1.45 6.45 1.15 6.75 0.9 7.1 0.9 L7.8 1.15 8.05 1.85 M6.8 5.0 Q6.8 5.75 6.3 6.3 5.75 6.8 5.0 6.8 4.3 6.8 3.8 6.4 L3.8 6.75 Q3.8 7.85 3.05 8.65 2.25 9.45 1.1 9.45 0.0 9.45 -0.8 8.65 -1.6 7.85 -1.6 6.75 -1.6 5.6 -0.8 4.8 L-0.7 4.75 Q-1.35 4.7 -1.85 4.25 -2.35 3.7 -2.35 2.95 -2.35 2.2 -1.85 1.65 -1.3 1.15 -0.55 1.15 0.2 1.15 0.75 1.65 1.25 2.2 1.25 2.95 L0.9 4.05 1.1 4.05 Q2.25 4.05 3.05 4.8 L3.2 5.0 Q3.2 4.25 3.7 3.7 4.25 3.2 5.0 3.2 5.75 3.2 6.3 3.7 6.8 4.25 6.8 5.0 M3.7 1.35 Q4.1 1.35 4.4 1.6 L4.65 2.3 4.4 2.95 3.7 3.25 3.05 2.95 2.75 2.3 Q2.75 1.9 3.05 1.6 L3.7 1.35 M6.45 7.9 Q6.15 7.6 6.15 7.25 6.15 6.85 6.45 6.55 6.75 6.3 7.1 6.3 L7.8 6.55 8.05 7.25 7.8 7.9 7.1 8.2 Q6.75 8.2 6.45 7.9 M-7.8 -1.35 L-8.1 -2.0 -7.8 -2.7 -7.15 -2.95 -6.45 -2.7 -6.2 -2.0 -6.45 -1.35 Q-6.75 -1.05 -7.15 -1.05 -7.5 -1.05 -7.8 -1.35 M-2.95 5.3 Q-2.55 5.3 -2.25 5.55 -2.0 5.85 -2.0 6.25 L-2.25 6.9 -2.95 7.2 -3.6 6.9 -3.9 6.25 -3.6 5.55 -2.95 5.3" fill="#ffffff" fill-rule="evenodd" stroke="none"/>
  </g>
</svg>
