<?xml version="1.0" encoding="UTF-8" standalone="no"?>
<svg xmlns:xlink="http://www.w3.org/1999/xlink" height="63.95px" width="49.4px" xmlns="http://www.w3.org/2000/svg">
  <g transform="matrix(1.0, 0.0, 0.0, 1.0, 0.0, 0.0)">
    <path d="M47.55 29.8 L47.4 29.25 Q47.4 28.3 48.4 28.3 49.4 28.3 49.4 29.35 L49.15 30.0 48.45 30.3 Q47.8 30.3 47.55 29.8 M38.55 9.15 Q38.55 8.25 39.55 8.25 40.55 8.25 40.55 9.25 40.55 10.2 39.55 10.2 38.55 10.2 38.55 9.15 M20.65 9.0 L19.5 9.1 Q19.1 9.1 18.65 9.45 L17.95 9.75 Q16.7 9.75 16.95 8.5 16.95 7.35 19.0 7.05 21.0 6.7 21.0 8.2 21.0 8.85 20.65 9.0 M27.6 1.5 L27.45 1.0 Q27.45 0.05 28.45 0.0 29.45 0.0 29.45 0.95 29.45 1.95 28.45 1.95 27.9 1.95 27.6 1.5 M7.15 15.7 Q6.15 15.7 6.15 14.55 6.15 13.5 7.15 13.5 8.1 13.5 8.1 14.55 8.1 15.7 7.15 15.7 M2.05 31.2 Q2.05 32.2 1.0 32.2 0.0 32.2 0.0 31.15 0.0 30.2 1.05 30.2 2.05 30.2 2.05 31.2 M34.9 41.75 Q35.9 41.75 35.9 42.75 L35.6 43.45 Q35.3 43.8 34.95 43.8 34.3 43.8 34.05 43.3 L33.9 42.75 Q33.9 41.75 34.9 41.75 M24.1 57.8 L23.6 56.9 Q23.6 55.95 24.8 55.95 25.85 55.95 26.8 56.75 27.6 57.4 27.6 57.7 27.6 58.65 26.3 58.65 24.9 58.65 24.1 57.8 M23.9 63.0 L23.6 63.65 Q23.3 63.95 22.85 63.95 21.9 63.95 21.9 62.95 21.9 61.95 22.9 61.95 23.9 61.95 23.9 63.0 M8.5 53.2 L8.2 53.85 Q7.85 54.2 7.5 54.2 6.45 54.2 6.45 53.2 6.45 52.25 7.5 52.25 8.5 52.25 8.5 53.2" fill="#5d5d5d" fill-rule="evenodd" stroke="none"/>
    <path d="M24.65 23.15 Q26.75 24.3 26.75 25.5 26.75 26.65 25.45 26.65 L22.5 23.95 Q22.5 22.0 24.65 23.15 M28.45 17.4 Q27.55 17.7 26.75 18.15 L26.0 18.8 25.2 19.05 Q24.2 19.05 24.15 17.95 24.15 16.55 26.5 16.1 28.8 15.6 28.8 17.0 L28.45 17.4 M30.6 23.2 Q29.55 23.2 29.55 22.15 29.55 21.15 30.55 21.15 31.55 21.15 31.55 22.2 31.55 23.2 30.6 23.2 M13.2 38.85 Q12.45 39.35 12.45 39.6 L12.75 40.1 13.0 40.6 12.8 41.25 Q12.5 41.6 12.0 41.6 11.0 41.6 10.65 40.65 L10.5 39.65 Q10.5 38.05 12.25 37.15 13.95 36.25 13.95 37.9 13.95 38.35 13.2 38.85 M35.25 33.8 L34.7 32.35 Q34.7 31.55 35.6 30.7 36.55 29.8 37.05 31.45 37.2 32.6 37.85 33.15 38.45 33.65 38.45 34.2 38.45 35.15 37.5 35.15 36.1 35.15 35.25 33.8 M23.55 49.35 Q22.3 50.15 20.5 50.15 19.2 50.15 18.85 49.75 18.7 49.55 18.7 49.15 18.7 48.5 21.6 47.65 24.5 46.8 24.5 48.3 L23.55 49.35" fill="#999999" fill-rule="evenodd" stroke="none"/>
  </g>
</svg>
