<?xml version="1.0" encoding="UTF-8" standalone="no"?>
<svg xmlns:xlink="http://www.w3.org/1999/xlink" height="21.55px" width="14.4px" xmlns="http://www.w3.org/2000/svg">
  <g transform="matrix(1.0, 0.0, 0.0, 1.0, 6.55, 5.6)">
    <path d="M4.05 -2.7 Q3.15 -2.4 1.9 -1.25 -0.85 1.2 -3.55 -0.45 -4.4 -1.0 -4.95 -0.85 L-4.85 -1.75 Q-4.7 -2.8 -4.2 -3.5 -3.2 -4.9 -0.8 -5.1 2.65 -5.35 4.05 -2.7 M-2.1 12.45 Q2.65 10.55 4.1 13.3 3.15 14.6 1.25 14.3 -1.0 13.95 -2.1 12.45" fill="#7e6a3d" fill-rule="evenodd" stroke="none"/>
    <path d="M4.05 -2.7 Q5.05 -3.1 5.55 -2.4 6.4 -1.1 7.1 3.9 7.75 8.9 6.75 13.2 5.75 17.45 4.35 13.75 L4.1 13.3 Q2.65 10.55 -2.1 12.45 L-3.15 12.9 Q-5.95 8.7 -6.0 2.75 -6.2 -0.65 -4.95 -0.85 -4.4 -1.0 -3.55 -0.45 -0.85 1.2 1.9 -1.25 3.15 -2.4 4.05 -2.7 M5.35 6.35 Q5.45 2.45 4.45 -0.05 5.45 2.45 5.35 6.35 M3.35 5.05 Q3.5 2.8 2.45 0.55 3.5 2.8 3.35 5.05 M-1.55 10.85 L-2.55 11.05 -1.55 10.85 M-0.85 9.15 L-3.15 9.85 -0.85 9.15" fill="#f0c468" fill-rule="evenodd" stroke="none"/>
    <path d="M2.45 0.55 Q3.5 2.8 3.35 5.05 M4.45 -0.05 Q5.45 2.45 5.35 6.35 M-3.15 9.85 L-0.85 9.15 M-2.55 11.05 L-1.55 10.85" fill="none" stroke="#80704d" stroke-linecap="round" stroke-linejoin="round" stroke-width="1.0"/>
    <path d="M4.1 13.3 L4.35 13.75 Q5.75 17.45 6.75 13.2 7.75 8.9 7.1 3.9 6.4 -1.1 5.55 -2.4 5.05 -3.1 4.05 -2.7 3.15 -2.4 1.9 -1.25 -0.85 1.2 -3.55 -0.45 -4.4 -1.0 -4.95 -0.85 -6.2 -0.65 -6.0 2.75 -5.95 8.7 -3.15 12.9 L-2.1 12.45 Q2.65 10.55 4.1 13.3 3.15 14.6 1.25 14.3 -1.0 13.95 -2.1 12.45 M4.05 -2.7 Q2.65 -5.35 -0.8 -5.1 -3.2 -4.9 -4.2 -3.5 -4.7 -2.8 -4.85 -1.75 L-4.95 -0.85" fill="none" stroke="#504630" stroke-linecap="round" stroke-linejoin="round" stroke-width="1.0"/>
  </g>
</svg>
