<?xml version="1.0" encoding="UTF-8" standalone="no"?>
<svg xmlns:ffdec="https://www.free-decompiler.com/flash" xmlns:xlink="http://www.w3.org/1999/xlink" ffdec:objectType="shape" height="115.3px" width="196.45px" xmlns="http://www.w3.org/2000/svg">
  <g transform="matrix(1.0, 0.0, 0.0, 1.0, 118.2, 63.3)">
    <path d="M-3.95 36.6 L-4.45 30.3 -3.95 36.6 Q-7.45 36.4 -11.3 36.5 L-20.4 28.9 -11.3 25.95 -11.5 25.8 -12.0 21.1 -11.5 25.8 -11.3 25.95 -20.4 28.9 Q-30.75 20.9 -44.05 12.85 L-34.0 7.9 -3.4 25.35 5.15 21.2 11.4 25.1 19.7 30.25 7.45 38.1 Q2.4 36.85 -3.95 36.6 M-3.7 30.15 L11.4 25.1 -3.7 30.15 M-3.95 30.3 Q-7.65 28.1 -11.3 25.95 -7.65 28.1 -3.95 30.3" fill="url(#gradient0)" fill-rule="evenodd" stroke="none"/>
    <path d="M-104.6 -58.1 L-106.9 -52.45 -104.6 -58.1 -102.15 -58.6 -68.25 -47.85 -72.0 -38.6 -107.1 -51.9 -106.9 -52.45 -117.05 -52.45 -117.2 -58.1 -104.6 -58.1" fill="url(#gradient1)" fill-rule="evenodd" stroke="none"/>
    <path d="M-106.9 -52.45 L-104.6 -58.1 -117.2 -58.1 -117.05 -52.45 -106.9 -52.45 -107.1 -51.9 -72.0 -38.6 -68.25 -47.85 -102.15 -58.6 -104.6 -58.1 M-20.4 28.9 L-11.3 25.95 -11.5 25.8 -12.0 21.1 M-4.45 30.3 L-3.95 36.6 Q2.4 36.85 7.45 38.1 L19.7 30.25 11.4 25.1 -3.7 30.15 M-20.4 28.9 L-11.3 36.5 Q-7.45 36.4 -3.95 36.6 M-11.3 25.95 Q-7.65 28.1 -3.95 30.3 M-20.4 28.9 Q-30.75 20.9 -44.05 12.85 L-34.0 7.9 -3.4 25.35 5.15 21.2 11.4 25.1" fill="none" stroke="#0f120d" stroke-linecap="round" stroke-linejoin="bevel" stroke-width="2.0"/>
    <path d="M22.15 32.5 L22.15 32.25 -11.05 11.15 -11.1 11.1 -29.25 8.4 -33.1 7.5 -26.9 1.5 -26.65 -1.9 -25.6 -15.85 -32.95 -23.7 -32.85 -23.75 -34.0 -36.55 -34.15 -38.35 -33.6 -38.65 -16.1 -34.2 -13.35 -29.15 -16.1 -34.2 -33.6 -38.65 -34.15 -38.35 -34.2 -38.8 -51.95 -43.3 -68.6 -47.55 -58.6 -58.35 -49.75 -48.25 -32.85 -46.9 -29.05 -41.25 -33.6 -38.65 -34.2 -38.8 -33.6 -38.65 -29.05 -41.25 -32.85 -46.9 -20.15 -45.85 -9.05 -40.65 -8.25 -36.05 -7.7 -32.9 -7.55 -32.0 -13.35 -29.15 -12.15 -26.5 -14.65 -18.95 -12.6 -17.35 5.05 -3.45 22.0 9.85 22.05 9.85 31.8 11.25 24.95 26.4 22.15 32.5 M-17.1 -32.2 L-34.0 -36.55 -17.1 -32.2 -17.4 -32.7 -17.1 -32.2 -16.7 -32.1 -17.1 -32.2 -13.75 -26.0 -13.45 -26.95 -13.75 -26.0 -13.45 -25.4 -13.75 -26.0 -17.1 -32.2 M-20.5 -6.8 L-13.75 -26.0 -20.5 -6.8 -19.05 -8.0 -20.5 -6.8 -26.65 -1.9 -20.5 -6.8 M-29.0 -29.7 Q-29.0 -30.1 -29.3 -30.4 L-29.95 -30.65 -30.65 -30.4 -30.9 -29.7 -30.65 -29.05 Q-30.35 -28.75 -29.95 -28.75 -29.55 -28.75 -29.3 -29.05 -29.0 -29.3 -29.0 -29.7 -29.0 -29.3 -29.3 -29.05 -29.55 -28.75 -29.95 -28.75 -30.35 -28.75 -30.65 -29.05 L-30.9 -29.7 -30.65 -30.4 -29.95 -30.65 -29.3 -30.4 Q-29.0 -30.1 -29.0 -29.7 M-21.5 -20.25 L-19.0 -24.3 -21.4 -28.0 -26.55 -26.5 -21.4 -28.0 -19.0 -24.3 -21.5 -20.25 M-17.45 -4.7 L-17.7 -4.05 -17.45 -4.7 -29.95 7.6 -17.45 -4.7 -12.6 -17.35 -17.45 -4.7 -16.95 -5.2 -17.45 -4.7 M0.4 1.85 Q0.4 0.75 -0.4 -0.05 -1.15 -0.8 -2.25 -0.8 -3.35 -0.8 -4.15 -0.05 -4.9 0.75 -4.9 1.85 -4.9 2.95 -4.15 3.7 -3.35 4.5 -2.25 4.5 -1.15 4.5 -0.4 3.7 0.4 2.95 0.4 1.85 M-5.8 -4.7 Q-5.8 -5.8 -6.6 -6.6 -7.35 -7.35 -8.45 -7.35 -9.55 -7.35 -10.35 -6.6 -11.1 -5.8 -11.1 -4.7 -11.1 -3.6 -10.35 -2.85 -9.55 -2.05 -8.45 -2.05 -7.35 -2.05 -6.6 -2.85 -5.8 -3.6 -5.8 -4.7 M-14.65 -18.95 L-18.85 -6.4 -26.9 1.5 -18.85 -6.4 -14.65 -18.95 M-8.8 3.7 Q-8.8 2.6 -9.6 1.8 -10.35 1.05 -11.45 1.05 -12.55 1.05 -13.35 1.8 -14.1 2.6 -14.1 3.7 -14.1 4.8 -13.35 5.55 -12.55 6.35 -11.45 6.35 -10.35 6.35 -9.6 5.55 -8.8 4.8 -8.8 3.7 M19.05 11.0 L15.7 17.2 23.55 21.45 26.9 15.25 19.05 11.0 M10.1 15.05 L7.3 19.3 9.35 20.6 12.1 16.4 10.1 15.05 12.1 16.4 9.35 20.6 7.3 19.3 10.1 15.05 M6.0 12.45 L3.25 16.75 5.25 18.1 8.0 13.8 6.0 12.45 8.0 13.8 5.25 18.1 3.25 16.75 6.0 12.45 M2.1 9.95 L-0.75 14.15 1.3 15.5 4.1 11.3 2.1 9.95 4.1 11.3 1.3 15.5 -0.75 14.15 2.1 9.95 M24.95 26.4 L14.8 20.5 11.9 24.7 14.8 20.5 24.95 26.4 M5.05 -3.45 L3.95 6.8 -11.05 11.15 3.95 6.8 5.05 -3.45" fill="#2f3627" fill-rule="evenodd" stroke="none"/>
    <path d="M22.2 -11.6 L27.25 -11.6 67.2 18.75 67.55 19.0 70.95 17.35 65.25 20.9 60.1 20.75 58.05 20.65 40.9 9.75 22.2 -11.6 M42.0 9.2 L60.1 20.75 42.0 9.2 39.55 7.65 42.0 9.2 24.35 -11.0 42.0 9.2 M66.9 18.85 L67.2 18.75 66.9 18.85" fill="#43493a" fill-rule="evenodd" stroke="none"/>
    <path d="M-8.25 -36.05 L6.5 -30.25 11.35 -26.55 11.35 -24.25 9.45 -22.2 -7.7 -32.9 -8.25 -36.05" fill="#6c745f" fill-rule="evenodd" stroke="none"/>
    <path d="M-5.8 -4.7 Q-5.8 -3.6 -6.6 -2.85 -7.35 -2.05 -8.45 -2.05 -9.55 -2.05 -10.35 -2.85 -11.1 -3.6 -11.1 -4.7 -11.1 -5.8 -10.35 -6.6 -9.55 -7.35 -8.45 -7.35 -7.35 -7.35 -6.6 -6.6 -5.8 -5.8 -5.8 -4.7 M0.4 1.85 Q0.4 2.95 -0.4 3.7 -1.15 4.5 -2.25 4.5 -3.35 4.5 -4.15 3.7 -4.9 2.95 -4.9 1.85 -4.9 0.75 -4.15 -0.05 -3.35 -0.8 -2.25 -0.8 -1.15 -0.8 -0.4 -0.05 0.4 0.75 0.4 1.85 M-8.8 3.7 Q-8.8 4.8 -9.6 5.55 -10.35 6.35 -11.45 6.35 -12.55 6.35 -13.35 5.55 -14.1 4.8 -14.1 3.7 -14.1 2.6 -13.35 1.8 -12.55 1.05 -11.45 1.05 -10.35 1.05 -9.6 1.8 -8.8 2.6 -8.8 3.7 M52.75 24.1 Q52.75 25.2 51.95 25.95 51.2 26.75 50.1 26.75 49.0 26.75 48.2 25.95 47.45 25.2 47.45 24.1 47.45 23.0 48.2 22.2 49.0 21.45 50.1 21.45 51.2 21.45 51.95 22.2 52.75 23.0 52.75 24.1 M56.35 32.35 Q56.35 33.45 55.55 34.2 54.8 35.0 53.7 35.0 52.6 35.0 51.8 34.2 51.05 33.45 51.05 32.35 51.05 31.25 51.8 30.45 52.6 29.7 53.7 29.7 54.8 29.7 55.55 30.45 56.35 31.25 56.35 32.35 M47.4 31.75 Q47.4 32.85 46.6 33.6 45.85 34.4 44.75 34.4 43.65 34.4 42.85 33.6 42.1 32.85 42.1 31.75 42.1 30.65 42.85 29.85 43.65 29.1 44.75 29.1 45.85 29.1 46.6 29.85 47.4 30.65 47.4 31.75" fill="#0f120d" fill-rule="evenodd" stroke="none"/>
    <path d="M70.95 17.35 L77.25 26.6 70.05 28.6 70.0 28.6 61.35 38.5 61.35 38.55 44.5 46.5 40.75 43.85 Q35.25 45.8 32.25 51.0 L30.1 49.75 22.5 45.3 22.15 32.5 24.95 26.4 31.8 11.25 22.05 9.85 22.0 9.85 5.05 -3.45 -12.6 -17.35 -14.65 -18.95 -12.15 -26.5 -13.35 -29.15 -7.55 -32.0 -7.7 -32.9 9.45 -22.2 17.1 -17.4 22.05 -11.7 22.2 -11.6 40.9 9.75 58.05 20.65 60.1 20.75 65.25 20.9 70.95 17.35 M-58.6 -58.35 L-54.95 -62.3 -20.15 -45.85 -32.85 -46.9 -49.75 -48.25 -58.6 -58.35 M-32.95 -23.7 L-45.35 -21.1 -56.45 -27.3 -51.95 -43.3 -34.2 -38.8 -34.15 -38.35 -34.0 -36.55 -32.85 -23.75 -32.95 -23.7 M60.75 21.15 L60.1 20.75 60.75 21.15 M47.4 31.75 Q47.4 30.65 46.6 29.85 45.85 29.1 44.75 29.1 43.65 29.1 42.85 29.85 42.1 30.65 42.1 31.75 42.1 32.85 42.85 33.6 43.65 34.4 44.75 34.4 45.85 34.4 46.6 33.6 47.4 32.85 47.4 31.75 M56.35 32.35 Q56.35 31.25 55.55 30.45 54.8 29.7 53.7 29.7 52.6 29.7 51.8 30.45 51.05 31.25 51.05 32.35 51.05 33.45 51.8 34.2 52.6 35.0 53.7 35.0 54.8 35.0 55.55 34.2 56.35 33.45 56.35 32.35 M52.75 24.1 Q52.75 23.0 51.95 22.2 51.2 21.45 50.1 21.45 49.0 21.45 48.2 22.2 47.45 23.0 47.45 24.1 47.45 25.2 48.2 25.95 49.0 26.75 50.1 26.75 51.2 26.75 51.95 25.95 52.75 25.2 52.75 24.1 M44.7 44.2 L41.3 41.4 41.2 41.45 Q33.1 44.05 30.1 49.75 33.1 44.05 41.2 41.45 L41.3 41.4 44.7 44.2 60.15 36.8 44.7 44.2 45.8 45.1 44.7 44.2 43.45 44.75 44.7 44.2 M67.3 27.85 L60.15 36.8 67.3 27.85 M60.15 36.8 L59.35 37.75 60.15 36.8 M70.0 28.6 L58.05 20.65 70.0 28.6 M23.85 8.3 L-13.65 -21.15 23.85 8.3 34.65 10.35 24.1 33.7 34.65 10.35 23.85 8.3 21.35 7.85 23.85 8.3 24.85 9.1 23.85 8.3" fill="#393e32" fill-rule="evenodd" stroke="none"/>
    <path d="M-33.1 7.5 L-43.2 17.3 -51.9 16.15 -67.3 4.55 -77.25 -22.5 -77.05 -26.45 -68.7 -47.25 -68.6 -47.55 -51.95 -43.3 -56.45 -27.3 -45.35 -21.1 -32.95 -23.7 -25.6 -15.85 -26.65 -1.9 -26.9 1.5 -33.1 7.5 M-68.45 -47.2 L-68.7 -47.25 -68.45 -47.2" fill="url(#gradient2)" fill-rule="evenodd" stroke="none"/>
    <path d="M19.05 11.0 L26.9 15.25 23.55 21.45 15.7 17.2 19.05 11.0" fill="#191c17" fill-rule="evenodd" stroke="none"/>
    <path d="M22.2 -11.6 L27.25 -11.6 67.2 18.75 70.95 17.35 77.25 26.6 70.05 28.6 70.0 28.6 61.35 38.5 61.35 38.55 44.5 46.5 40.75 43.85 Q35.25 45.8 32.25 51.0 L30.1 49.75 22.5 45.3 22.15 32.5 22.15 32.25 -11.05 11.15 -11.1 11.1 -29.25 8.4 -33.1 7.5 -43.2 17.3 -51.9 16.15 -67.3 4.55 -77.25 -22.5 -77.05 -26.45 -68.7 -47.25 -68.6 -47.55 -58.6 -58.35 -54.95 -62.3 -20.15 -45.85 -9.05 -40.65 -8.25 -36.05 6.5 -30.25 11.35 -26.55 11.35 -24.25 9.45 -22.2 17.1 -17.4 22.05 -11.7 22.2 -11.6 40.9 9.75 58.05 20.65 60.1 20.75 65.25 20.9 70.95 17.35 67.55 19.0 67.2 18.75 66.9 18.85 M-51.95 -43.3 L-68.6 -47.55 M-68.7 -47.25 L-68.45 -47.2 M-32.95 -23.7 L-45.35 -21.1 -56.45 -27.3 -51.95 -43.3 -34.2 -38.8 -33.6 -38.65 -29.05 -41.25 -32.85 -46.9 -49.75 -48.25 -58.6 -58.35 M-13.35 -29.15 L-16.1 -34.2 -33.6 -38.65 -34.15 -38.35 -34.0 -36.55 -32.85 -23.75 -32.95 -23.7 -25.6 -15.85 -26.65 -1.9 -26.9 1.5 -18.85 -6.4 -14.65 -18.95 -12.15 -26.5 -13.35 -29.15 -7.55 -32.0 -7.7 -32.9 -8.25 -36.05 M-34.2 -38.8 L-34.15 -38.35 M-14.65 -18.95 L-12.6 -17.35 5.05 -3.45 22.0 9.85 22.05 9.85 31.8 11.25 24.95 26.4 22.15 32.5 M-32.85 -46.9 L-20.15 -45.85 M-33.1 7.5 L-26.9 1.5 M58.05 20.65 L70.0 28.6 M-7.7 -32.9 L9.45 -22.2" fill="none" stroke="#1c2218" stroke-linecap="round" stroke-linejoin="bevel" stroke-width="2.0"/>
    <path d="M-26.55 -26.5 L-21.4 -28.0 -19.0 -24.3 -21.5 -20.25" fill="none" stroke="#0f120d" stroke-linecap="round" stroke-linejoin="bevel" stroke-width="2.0"/>
    <path d="M-5.8 -4.7 Q-5.8 -3.6 -6.6 -2.85 -7.35 -2.05 -8.45 -2.05 -9.55 -2.05 -10.35 -2.85 -11.1 -3.6 -11.1 -4.7 -11.1 -5.8 -10.35 -6.6 -9.55 -7.35 -8.45 -7.35 -7.35 -7.35 -6.6 -6.6 -5.8 -5.8 -5.8 -4.7 M0.4 1.85 Q0.4 2.95 -0.4 3.7 -1.15 4.5 -2.25 4.5 -3.35 4.5 -4.15 3.7 -4.9 2.95 -4.9 1.85 -4.9 0.75 -4.15 -0.05 -3.35 -0.8 -2.25 -0.8 -1.15 -0.8 -0.4 -0.05 0.4 0.75 0.4 1.85 M-8.8 3.7 Q-8.8 4.8 -9.6 5.55 -10.35 6.35 -11.45 6.35 -12.55 6.35 -13.35 5.55 -14.1 4.8 -14.1 3.7 -14.1 2.6 -13.35 1.8 -12.55 1.05 -11.45 1.05 -10.35 1.05 -9.6 1.8 -8.8 2.6 -8.8 3.7 M52.75 24.1 Q52.75 25.2 51.95 25.95 51.2 26.75 50.1 26.75 49.0 26.75 48.2 25.95 47.45 25.2 47.45 24.1 47.45 23.0 48.2 22.2 49.0 21.45 50.1 21.45 51.2 21.45 51.95 22.2 52.75 23.0 52.75 24.1 M56.35 32.35 Q56.35 33.45 55.55 34.2 54.8 35.0 53.7 35.0 52.6 35.0 51.8 34.2 51.05 33.45 51.05 32.35 51.05 31.25 51.8 30.45 52.6 29.7 53.7 29.7 54.8 29.7 55.55 30.45 56.35 31.25 56.35 32.35 M47.4 31.75 Q47.4 32.85 46.6 33.6 45.85 34.4 44.75 34.4 43.65 34.4 42.85 33.6 42.1 32.85 42.1 31.75 42.1 30.65 42.85 29.85 43.65 29.1 44.75 29.1 45.85 29.1 46.6 29.85 47.4 30.65 47.4 31.75" fill="none" stroke="#1c2218" stroke-linecap="butt" stroke-linejoin="bevel" stroke-opacity="0.4392157" stroke-width="3.0"/>
    <path d="M-29.0 -29.7 Q-29.0 -29.3 -29.3 -29.05 -29.55 -28.75 -29.95 -28.75 -30.35 -28.75 -30.65 -29.05 L-30.9 -29.7 -30.65 -30.4 -29.95 -30.65 -29.3 -30.4 Q-29.0 -30.1 -29.0 -29.7" fill="none" stroke="#0f120d" stroke-linecap="butt" stroke-linejoin="bevel" stroke-width="1.8"/>
    <path d="M19.05 11.0 L26.9 15.25 23.55 21.45 15.7 17.2 19.05 11.0 M2.1 9.95 L4.1 11.3 1.3 15.5 -0.75 14.15 2.1 9.95 M6.0 12.45 L8.0 13.8 5.25 18.1 3.25 16.75 6.0 12.45 M10.1 15.05 L12.1 16.4 9.35 20.6 7.3 19.3 10.1 15.05" fill="none" stroke="#0f120d" stroke-linecap="butt" stroke-linejoin="bevel" stroke-width="2.0"/>
    <path d="M60.1 20.75 L42.0 9.2 M-34.0 -36.55 L-17.1 -32.2 -13.75 -26.0 -20.5 -6.8 -26.65 -1.9 M-12.6 -17.35 L-17.45 -4.7 M44.7 44.2 L60.15 36.8" fill="none" stroke="#1c2218" stroke-linecap="round" stroke-linejoin="bevel" stroke-opacity="0.4392157" stroke-width="3.0"/>
    <path d="M42.0 9.2 L39.55 7.65 M-17.1 -32.2 L-17.4 -32.7 M-13.75 -26.0 L-13.45 -25.4 M-17.1 -32.2 L-16.7 -32.1 M-20.5 -6.8 L-19.05 -8.0 M-17.45 -4.7 L-29.95 7.6 M-17.45 -4.7 L-16.95 -5.2 M60.1 20.75 L60.75 21.15 M60.15 36.8 L67.3 27.85 M44.7 44.2 L45.8 45.1 M-13.65 -21.15 L23.85 8.3 34.65 10.35 24.1 33.7 M23.85 8.3 L24.85 9.1" fill="none" stroke="#1c2218" stroke-linecap="round" stroke-linejoin="bevel" stroke-opacity="0.4392157" stroke-width="3.0"/>
    <path d="M-13.45 -26.95 L-13.75 -26.0 M-17.7 -4.05 L-17.45 -4.7 M30.1 49.75 Q33.1 44.05 41.2 41.45 L41.3 41.4 44.7 44.2 43.45 44.75 M59.35 37.75 L60.15 36.8 M21.35 7.85 L23.85 8.3 M24.35 -11.0 L42.0 9.2" fill="none" stroke="#1c2218" stroke-linecap="butt" stroke-linejoin="bevel" stroke-opacity="0.4392157" stroke-width="3.0"/>
    <path d="M11.9 24.7 L14.8 20.5 24.95 26.4" fill="none" stroke="#1c2218" stroke-linecap="butt" stroke-linejoin="bevel" stroke-width="2.0"/>
    <path d="M-11.05 11.15 L3.95 6.8 5.05 -3.45" fill="none" stroke="#1c2218" stroke-linecap="round" stroke-linejoin="bevel" stroke-width="2.0"/>
  </g>
  <defs>
    <linearGradient gradientTransform="matrix(-0.0035, 0.0085, -0.017, -0.007, -21.5, 30.8)" gradientUnits="userSpaceOnUse" id="gradient0" spreadMethod="reflect" x1="-819.2" x2="819.2">
      <stop offset="0.0" stop-color="#1b1e19"/>
      <stop offset="1.0" stop-color="#0e100d"/>
    </linearGradient>
    <linearGradient gradientTransform="matrix(0.0, 0.0, 0.0, 0.0, 0.0, 0.0)" gradientUnits="userSpaceOnUse" id="gradient1" spreadMethod="reflect" x1="-819.2" x2="819.2">
      <stop offset="0.0" stop-color="#1b1e19"/>
      <stop offset="1.0" stop-color="#0e100d"/>
    </linearGradient>
    <radialGradient cx="0" cy="0" gradientTransform="matrix(0.0453, -0.0172, 0.0364, 0.0959, -68.7, -7.25)" gradientUnits="userSpaceOnUse" id="gradient2" r="819.2" spreadMethod="pad">
      <stop offset="0.0" stop-color="#4c5443"/>
      <stop offset="1.0" stop-color="#31382b"/>
    </radialGradient>
  </defs>
</svg>
