<?xml version="1.0" encoding="UTF-8" standalone="no"?>
<svg xmlns:xlink="http://www.w3.org/1999/xlink" height="11.0px" width="11.0px" xmlns="http://www.w3.org/2000/svg">
  <g transform="matrix(1.0, 0.0, 0.0, 1.0, 5.5, 5.5)">
    <path d="M3.0 -4.0 Q1.7 -3.0 0.0 -3.0 -1.75 -3.0 -3.0 -4.0 -1.75 -5.0 0.0 -5.0 1.7 -5.0 3.0 -4.0 M-3.0 4.0 Q-1.75 3.0 0.0 3.0 1.7 3.0 3.0 4.0 1.7 5.0 0.0 5.0 -1.75 5.0 -3.0 4.0" fill="#555555" fill-rule="evenodd" stroke="none"/>
    <path d="M3.0 -4.0 L3.5 -3.55 3.55 -3.5 Q5.0 -2.1 5.0 0.0 5.0 2.05 3.5 3.5 L3.0 4.0 Q1.7 3.0 0.0 3.0 -1.75 3.0 -3.0 4.0 L-3.55 3.5 Q-5.0 2.05 -5.0 0.0 -5.0 -2.1 -3.55 -3.5 L-3.55 -3.55 -3.0 -4.0 Q-1.75 -3.0 0.0 -3.0 1.7 -3.0 3.0 -4.0" fill="#7b7b7b" fill-rule="evenodd" stroke="none"/>
    <path d="M3.0 4.0 L3.5 3.5 Q5.0 2.05 5.0 0.0 5.0 -2.1 3.55 -3.5 L3.5 -3.55 3.0 -4.0 Q1.7 -3.0 0.0 -3.0 -1.75 -3.0 -3.0 -4.0 L-3.55 -3.55 -3.55 -3.5 Q-5.0 -2.1 -5.0 0.0 -5.0 2.05 -3.55 3.5 L-3.0 4.0 Q-1.75 3.0 0.0 3.0 1.7 3.0 3.0 4.0 1.7 5.0 0.0 5.0 -1.75 5.0 -3.0 4.0 M-3.0 -4.0 Q-1.75 -5.0 0.0 -5.0 1.7 -5.0 3.0 -4.0" fill="none" stroke="#373737" stroke-linecap="round" stroke-linejoin="round" stroke-width="1.0"/>
    <path d="M1.45 -1.5 Q2.1 -0.85 2.1 0.0 2.1 0.85 1.45 1.45 0.85 2.1 0.0 2.1 -0.85 2.1 -1.5 1.45 -2.1 0.85 -2.1 0.0 -2.1 -0.85 -1.5 -1.5 -0.85 -2.1 0.0 -2.1 0.85 -2.1 1.45 -1.5" fill="#3c9dff" fill-rule="evenodd" stroke="none"/>
    <path d="M1.45 -1.5 Q2.1 -0.85 2.1 0.0 2.1 0.85 1.45 1.45 0.85 2.1 0.0 2.1 -0.85 2.1 -1.5 1.45 -2.1 0.85 -2.1 0.0 -2.1 -0.85 -1.5 -1.5 -0.85 -2.1 0.0 -2.1 0.85 -2.1 1.45 -1.5 Z" fill="none" stroke="#0156a9" stroke-linecap="round" stroke-linejoin="round" stroke-width="1.0"/>
  </g>
</svg>
