<?xml version="1.0" encoding="UTF-8" standalone="no"?>
<svg xmlns:xlink="http://www.w3.org/1999/xlink" height="18.65px" width="19.55px" xmlns="http://www.w3.org/2000/svg">
  <g transform="matrix(1.0, 0.0, 0.0, 1.0, 9.0, 10.45)">
    <path d="M6.2 -6.95 L7.85 -2.95 9.7 5.55 6.5 6.5 3.2 6.3 3.1 5.5 1.85 4.45 -0.8 3.65 -3.55 2.1 -4.85 0.45 -4.85 0.35 -3.9 -1.3 -2.0 -3.6 -1.15 -5.9 -1.9 -8.1 -2.55 -9.3 -0.95 -9.95 Q4.65 -10.15 6.2 -6.95 M2.6 2.8 L5.45 3.35 2.6 2.8 M5.45 3.35 Q5.8 -0.2 4.15 -4.65 5.8 -0.2 5.45 3.35" fill="#ffffff" fill-rule="evenodd" stroke="none"/>
    <path d="M-4.85 0.45 L-3.55 2.1 -0.8 3.65 1.85 4.45 3.1 5.5 3.2 6.3 3.3 7.5 0.65 7.55 -1.05 5.8 -5.3 4.2 -8.4 3.55 Q-8.9 -0.1 -6.65 -3.9 L-4.85 0.35 -4.9 0.35 -4.85 0.45" fill="#666666" fill-rule="evenodd" stroke="none"/>
    <path d="M-2.55 -9.3 L-1.9 -8.1 -1.15 -5.9 -2.0 -3.6 -3.9 -1.3 -4.85 0.35 -6.65 -3.9 -4.8 -6.9 -4.05 -9.5 -2.55 -9.3 M3.2 6.3 L6.5 6.5 9.7 5.55 10.05 7.7 3.3 7.5 3.2 6.3 M0.65 7.55 L-0.35 7.55 -8.5 5.25 -8.4 3.55 -5.3 4.2 -1.05 5.8 0.65 7.55" fill="#333333" fill-rule="evenodd" stroke="none"/>
    <path d="M6.2 -6.95 Q4.65 -10.15 -0.95 -9.95 L-2.55 -9.3 -4.05 -9.5 M-4.85 0.35 L-4.85 0.45 -3.55 2.1 -0.8 3.65 1.85 4.45 3.1 5.5 3.2 6.3 3.3 7.5 0.65 7.55 -0.35 7.55 M-8.4 3.55 Q-8.9 -0.1 -6.65 -3.9 L-4.85 0.35 -4.9 0.35 -4.85 0.45 M0.65 7.55 L-1.05 5.8 -5.3 4.2 -8.4 3.55" fill="none" stroke="#404040" stroke-linecap="round" stroke-linejoin="round" stroke-width="1.0"/>
    <path d="M4.15 -4.65 Q5.8 -0.2 5.45 3.35" fill="none" stroke="#595959" stroke-linecap="round" stroke-linejoin="round" stroke-width="1.0"/>
    <path d="M9.7 5.55 L7.85 -2.95 6.2 -6.95" fill="none" stroke="#555555" stroke-linecap="round" stroke-linejoin="round" stroke-width="1.0"/>
    <path d="M-2.55 -9.3 L-1.9 -8.1 -1.15 -5.9 -2.0 -3.6 -3.9 -1.3 -4.85 0.35 M3.2 6.3 L6.5 6.5 9.7 5.55" fill="none" stroke="#737373" stroke-linecap="round" stroke-linejoin="round" stroke-width="1.0"/>
    <path d="M9.7 5.55 L10.05 7.7 3.3 7.5 M-0.35 7.55 L-8.5 5.25 -8.4 3.55 M-6.65 -3.9 L-4.8 -6.9 -4.05 -9.5" fill="none" stroke="#222222" stroke-linecap="round" stroke-linejoin="round" stroke-width="1.0"/>
    <path d="M5.45 3.35 L2.6 2.8" fill="none" stroke="#aaaaaa" stroke-linecap="round" stroke-linejoin="round" stroke-width="1.0"/>
  </g>
</svg>
