<?xml version="1.0" encoding="UTF-8" standalone="no"?>
<svg xmlns:xlink="http://www.w3.org/1999/xlink" height="17.95px" width="93.4px" xmlns="http://www.w3.org/2000/svg">
  <g transform="matrix(1.0, 0.0, 0.0, 1.0, 12.35, 7.65)">
    <path d="M1.95 -3.8 L2.75 -1.35 6.1 -0.8 8.35 -3.55 14.75 -5.1 17.95 -4.75 Q15.1 -2.1 16.15 0.3 L12.0 1.5 9.3 1.0 7.3 1.1 2.55 1.3 1.4 -0.3 2.55 1.3 7.3 1.1 6.45 2.3 5.7 3.55 3.5 3.85 1.3 4.25 1.4 -0.3 0.1 -1.9 -2.65 -1.95 -6.8 -2.1 -10.4 -1.1 -11.85 -2.1 Q-9.75 -4.45 -8.0 -5.65 L-4.3 -6.35 -1.05 -4.45 1.95 -3.8 M11.0 -1.95 L13.75 -0.6 13.75 -3.35 11.0 -1.95 13.75 -3.35 13.75 -0.6 11.0 -1.95 M-3.25 -4.2 L-6.4 -4.15 -3.25 -4.2" fill="#666666" fill-rule="evenodd" stroke="none"/>
    <path d="M8.35 -3.55 L6.1 -0.8 2.75 -1.35 1.95 -3.8 8.35 -3.55" fill="#888888" fill-rule="evenodd" stroke="none"/>
    <path d="M-2.65 -1.95 L0.1 -1.9 1.4 -0.3 1.3 4.25 -3.95 3.1 -2.65 -1.95 M9.3 1.0 L12.0 1.5 16.15 0.3 20.85 0.3 21.55 2.25 20.95 3.3 14.6 3.35 8.4 3.35 8.55 3.05 9.3 1.0 M-0.95 5.35 Q-6.65 7.1 -9.1 5.2 L-11.0 3.65 -8.15 2.4 -5.8 4.35 -0.95 5.35 M19.4 1.95 L15.2 2.05 19.4 1.95" fill="#999999" fill-rule="evenodd" stroke="none"/>
    <path d="M8.35 -3.55 L1.95 -3.8 -1.05 -4.45 -4.3 -6.35 11.15 -7.15 14.75 -5.1 8.35 -3.55" fill="#cccccc" fill-rule="evenodd" stroke="none"/>
    <path d="M-10.4 -1.1 L-6.8 -2.1 -8.15 2.4 -11.0 3.65 -10.4 -1.1 M14.6 3.35 Q13.05 7.7 10.9 9.8 L5.7 8.3 Q8.0 6.3 8.4 3.35 L14.6 3.35 M1.3 4.25 Q1.4 5.9 -0.95 5.35 L-5.8 4.35 -3.95 3.1 1.3 4.25 M12.2 5.05 L9.6 4.8 12.2 5.05 M11.5 6.75 L9.1 6.25 11.5 6.75 M10.5 8.15 L8.3 7.55 10.5 8.15" fill="#333333" fill-rule="evenodd" stroke="none"/>
    <path d="M7.3 1.1 L9.3 1.0 8.55 3.05 6.45 2.3 7.3 1.1 M5.7 3.55 L4.3 5.6 2.8 5.65 3.5 3.85 5.7 3.55" fill="#262626" fill-rule="evenodd" stroke="none"/>
    <path d="M1.95 -3.8 L2.75 -1.35 6.1 -0.8 8.35 -3.55 14.75 -5.1 17.95 -4.75 Q15.1 -2.1 16.15 0.3 L20.85 0.3 21.55 2.25 M1.95 -3.8 L-1.05 -4.45 -4.3 -6.35 -8.0 -5.65 Q-9.75 -4.45 -11.85 -2.1 L-10.4 -1.1 M-6.8 -2.1 L-2.65 -1.95 0.1 -1.9 1.4 -0.3 2.55 1.3 7.3 1.1 M9.3 1.0 L12.0 1.5 16.15 0.3 M-4.3 -6.35 L11.15 -7.15 14.75 -5.1 M20.95 3.3 L14.6 3.35 M6.45 2.3 L5.7 3.55 M3.5 3.85 L1.3 4.25 M-0.95 5.35 Q-6.65 7.1 -9.1 5.2 L-11.0 3.65 M-8.15 2.4 L-5.8 4.35 M-3.95 3.1 L-2.65 -1.95" fill="none" stroke="#373737" stroke-linecap="round" stroke-linejoin="round" stroke-width="1.0"/>
    <path d="M11.0 -1.95 L13.75 -3.35 13.75 -0.6 11.0 -1.95 M-6.4 -4.15 L-3.25 -4.2" fill="none" stroke="#4d4d4d" stroke-linecap="round" stroke-linejoin="round" stroke-width="1.0"/>
    <path d="M-10.4 -1.1 L-6.8 -2.1 -8.15 2.4 -11.0 3.65 -10.4 -1.1 M14.6 3.35 Q13.05 7.7 10.9 9.8 L5.7 8.3 Q8.0 6.3 8.4 3.35 L8.55 3.05 M1.3 4.25 Q1.4 5.9 -0.95 5.35 L-5.8 4.35 -3.95 3.1 1.3 4.25 M14.6 3.35 L8.4 3.35" fill="none" stroke="#1e1e1e" stroke-linecap="round" stroke-linejoin="round" stroke-width="1.0"/>
    <path d="M21.55 2.25 L20.95 3.3" fill="none" stroke="#ff0000" stroke-linecap="round" stroke-linejoin="round" stroke-width="2.0"/>
    <path d="M15.2 2.05 L19.4 1.95" fill="none" stroke="#444444" stroke-linecap="round" stroke-linejoin="round" stroke-width="1.0"/>
    <path d="M7.3 1.1 L9.3 1.0 8.55 3.05 6.45 2.3 7.3 1.1 M5.7 3.55 L4.3 5.6 2.8 5.65 3.5 3.85 M8.3 7.55 L10.5 8.15 M9.1 6.25 L11.5 6.75 M9.6 4.8 L12.2 5.05" fill="none" stroke="#151515" stroke-linecap="round" stroke-linejoin="round" stroke-width="1.0"/>
    <path d="M21.55 2.25 L80.55 2.25" fill="none" stroke="url(#gradient0)" stroke-linecap="round" stroke-linejoin="round" stroke-width="1.0"/>
  </g>
  <defs>
    <linearGradient gradientTransform="matrix(0.0556, 0.0, 0.0, 0.0095, 36.05, -5.05)" gradientUnits="userSpaceOnUse" id="gradient0" spreadMethod="pad" x1="-819.2" x2="819.2">
      <stop offset="0.0" stop-color="#ff0000" stop-opacity="0.5019608"/>
      <stop offset="1.0" stop-color="#ff0000" stop-opacity="0.101960786"/>
    </linearGradient>
  </defs>
</svg>
