<?xml version="1.0" encoding="UTF-8" standalone="no"?>
<svg xmlns:xlink="http://www.w3.org/1999/xlink" height="21.3px" width="13.7px" xmlns="http://www.w3.org/2000/svg">
  <g transform="matrix(1.0, 0.0, 0.0, 1.0, 5.85, 5.35)">
    <path d="M-3.25 12.4 L-2.75 8.4 -0.4 8.4 -0.4 12.4 -3.25 12.4 M-3.6 3.9 L-4.1 0.4 -0.4 0.4 -0.4 3.9 -3.6 3.9" fill="#e38902" fill-rule="evenodd" stroke="none"/>
    <path d="M5.55 5.2 Q4.95 10.4 2.8 15.45 -0.55 13.7 -5.35 14.85 -5.5 12.75 -3.75 12.4 L-3.25 12.4 -0.4 12.4 -0.4 8.4 -2.75 8.4 -3.75 8.4 -4.85 3.9 -3.6 3.9 -0.4 3.9 -0.4 0.4 -4.1 0.4 -4.9 0.4 -4.9 -3.75 Q-2.3 -2.25 1.3 -2.75 3.7 -5.75 5.45 -4.45 L5.7 -2.25 Q4.75 -2.2 4.05 -1.15 3.35 -0.1 3.45 1.45 3.5 2.95 4.05 4.2 4.55 5.4 5.1 5.4 L5.55 5.2 M2.5 11.45 L0.5 11.45 0.5 13.45 2.5 13.45 2.5 11.45 M0.7 10.2 L2.7 10.2 2.7 8.2 0.7 8.2 0.7 10.2 M2.9 5.0 L0.9 5.0 0.9 7.0 2.9 7.0 2.9 5.0" fill="#333333" fill-rule="evenodd" stroke="none"/>
    <path d="M2.9 5.0 L2.9 7.0 0.9 7.0 0.9 5.0 2.9 5.0 M0.7 10.2 L0.7 8.2 2.7 8.2 2.7 10.2 0.7 10.2 M2.5 11.45 L2.5 13.45 0.5 13.45 0.5 11.45 2.5 11.45" fill="#cc0000" fill-rule="evenodd" stroke="none"/>
    <path d="M5.7 -2.25 L5.75 -2.25 Q6.75 -2.2 7.1 -1.1 7.45 -0.05 7.3 1.6 7.1 3.2 6.4 4.3 L5.55 5.2 5.1 5.4 Q4.55 5.4 4.05 4.2 3.5 2.95 3.45 1.45 3.35 -0.1 4.05 -1.15 4.75 -2.2 5.7 -2.25" fill="#999999" fill-rule="evenodd" stroke="none"/>
    <path d="M5.7 -2.25 L5.75 -2.25 Q6.75 -2.2 7.1 -1.1 7.45 -0.05 7.3 1.6 7.1 3.2 6.4 4.3 L5.55 5.2" fill="none" stroke="#2f2f2f" stroke-linecap="round" stroke-linejoin="round" stroke-width="1.0"/>
    <path d="M5.55 5.2 Q4.95 10.4 2.8 15.45 -0.55 13.7 -5.35 14.85 -5.5 12.75 -3.75 12.4 L-3.25 12.4 -0.4 12.4 -0.4 8.4 -2.75 8.4 -3.75 8.4 -4.85 3.9 -3.6 3.9 -0.4 3.9 -0.4 0.4 -4.1 0.4 -4.9 0.4 -4.9 -3.75 Q-2.3 -2.25 1.3 -2.75 3.7 -5.75 5.45 -4.45 L5.7 -2.25 Q4.75 -2.2 4.05 -1.15 3.35 -0.1 3.45 1.45 3.5 2.95 4.05 4.2 4.55 5.4 5.1 5.4 L5.55 5.2 M2.9 5.0 L2.9 7.0 0.9 7.0 0.9 5.0 2.9 5.0 M0.7 10.2 L0.7 8.2 2.7 8.2 2.7 10.2 0.7 10.2 M2.5 11.45 L2.5 13.45 0.5 13.45 0.5 11.45 2.5 11.45" fill="none" stroke="#1a1a1a" stroke-linecap="round" stroke-linejoin="round" stroke-width="1.0"/>
    <path d="M-3.25 12.4 L-2.75 8.4 M-3.6 3.9 L-4.1 0.4" fill="none" stroke="#653d01" stroke-linecap="round" stroke-linejoin="round" stroke-width="1.0"/>
  </g>
</svg>
