<?xml version="1.0" encoding="UTF-8" standalone="no"?>
<svg xmlns:ffdec="https://www.free-decompiler.com/flash" xmlns:xlink="http://www.w3.org/1999/xlink" ffdec:objectType="shape" height="126.55px" width="214.4px" xmlns="http://www.w3.org/2000/svg">
  <g transform="matrix(1.0, 0.0, 0.0, 1.0, 72.25, 84.05)">
    <path d="M55.6 -45.75 L59.65 -55.0 55.15 -61.5 59.15 -69.0 61.05 -68.95 58.2 -61.5 63.75 -55.0 61.25 -46.1 55.6 -45.75 M66.3 -68.95 L73.1 -81.0 68.2 -68.95 66.3 -68.95" fill="#354032" fill-rule="evenodd" stroke="none"/>
    <path d="M88.05 -2.5 Q86.55 -2.5 86.9 -3.75 87.35 -5.25 89.2 -5.6 90.95 -5.7 90.6 -4.5 90.0 -2.55 88.05 -2.5 M94.95 -9.7 Q95.1 -7.3 93.0 -7.05 91.6 -6.9 91.75 -8.35 91.9 -9.85 93.3 -10.4 94.65 -10.95 94.95 -9.7" fill="#ff0000" fill-rule="evenodd" stroke="none"/>
    <path d="M102.65 -7.5 L96.9 -2.5 93.0 -7.05 Q95.1 -7.3 94.95 -9.7 L102.65 -7.5 M95.5 -1.25 L91.15 2.5 88.05 -2.5 Q90.0 -2.55 90.6 -4.5 L95.5 -1.25" fill="#512011" fill-rule="evenodd" stroke="none"/>
    <path d="M64.95 -78.85 L63.1 -75.55 53.25 -72.25 48.3 -61.9 52.7 -54.2 47.9 -41.9 7.8 -37.8 Q-7.5 -30.1 -22.85 -22.45 L-61.7 -27.4 -22.85 -22.45 Q-7.5 -30.1 7.8 -37.8 L47.9 -41.9 52.7 -54.2 48.3 -61.9 53.25 -72.25 63.1 -75.55 64.95 -78.85 M-40.3 -17.9 L-71.75 -22.4 Q-34.15 -94.45 66.2 -81.6 L73.1 -81.0 66.3 -68.95 61.05 -68.95 59.15 -69.0 55.15 -61.5 59.65 -55.0 55.6 -45.75 51.5 -36.5 39.6 -34.9 27.35 -33.3 15.15 -31.7 9.65 -31.0 -23.5 -15.5 -40.3 -17.9" fill="url(#gradient0)" fill-rule="evenodd" stroke="none"/>
    <path d="M87.5 -29.5 L91.65 -31.0 98.65 -40.0 101.15 -57.0 106.3 -54.8 Q114.85 -50.65 122.05 -43.65 L126.55 -38.9 Q130.3 -34.55 133.6 -29.3 138.0 -22.4 141.65 -14.0 L120.15 -18.5 96.15 -17.5 82.15 -15.5 75.15 -25.0 87.5 -29.5 M104.0 -51.8 L102.0 -38.4 93.8 -28.4 80.4 -24.2 93.8 -28.4 102.0 -38.4 104.0 -51.8 M96.4 -19.35 L120.6 -20.5 138.25 -16.6 120.6 -20.5 96.4 -19.35" fill="url(#gradient1)" fill-rule="evenodd" stroke="none"/>
    <path d="M27.35 -33.3 L39.6 -34.9 55.65 -32.5 63.15 -16.0 50.65 -24.5 31.65 -27.0 27.35 -33.3" fill="#1c231b" fill-rule="evenodd" stroke="none"/>
    <path d="M-23.5 -15.5 L9.65 -31.0 15.15 -31.7 27.35 -33.3 31.65 -27.0 50.65 -24.5 29.35 -12.5 -1.35 -19.5 -23.5 -15.5" fill="url(#gradient2)" fill-rule="evenodd" stroke="none"/>
    <path d="M39.6 -34.9 L51.5 -36.5 55.6 -45.75 61.25 -46.1 61.35 -46.1 69.4 -49.5 72.4 -43.25 66.4 -42.15 64.65 -32.5 78.15 -29.25 82.15 -35.0 85.65 -34.25 87.5 -29.5 75.15 -25.0 82.15 -15.5 96.15 -17.5 120.15 -18.5 120.15 -8.0 106.65 -4.5 102.65 -7.5 94.95 -9.7 Q94.65 -10.95 93.3 -10.4 91.9 -9.85 91.75 -8.35 91.6 -6.9 93.0 -7.05 L96.9 -2.5 95.5 -1.25 90.6 -4.5 Q90.95 -5.7 89.2 -5.6 87.35 -5.25 86.9 -3.75 86.55 -2.5 88.05 -2.5 L91.15 2.5 87.65 3.5 83.45 -2.0 73.15 -8.0 61.6 -0.05 60.65 -6.0 66.15 -12.0 63.15 -16.0 55.65 -32.5 39.6 -34.9" fill="url(#gradient3)" fill-rule="evenodd" stroke="none"/>
    <path d="M-40.3 -17.9 L-23.5 -15.5 -1.35 -19.5 29.35 -12.5 50.65 -24.5 63.15 -16.0 66.15 -12.0 60.65 -6.0 61.6 -0.05 56.15 11.0 66.15 29.5 40.65 42.0 14.15 26.5 -16.35 28.5 -19.1 24.7 -29.35 10.5 -31.1 1.75 -32.85 -7.0 -40.3 -17.9" fill="url(#gradient4)" fill-rule="evenodd" stroke="none"/>
    <path d="M-19.1 24.7 L-33.35 28.5 -36.85 14.0 -31.1 1.75 -29.35 10.5 -19.1 24.7" fill="url(#gradient5)" fill-rule="evenodd" stroke="none"/>
    <path d="M73.1 -81.0 L66.2 -81.6 Q-34.15 -94.45 -71.75 -22.4 L-40.3 -17.9 -23.5 -15.5 9.65 -31.0 15.15 -31.7 27.35 -33.3 39.6 -34.9 51.5 -36.5 55.6 -45.75 59.65 -55.0 55.15 -61.5 59.15 -69.0 61.05 -68.95 66.3 -68.95 73.1 -81.0 68.2 -68.95 66.3 -68.95 M61.05 -68.95 L58.2 -61.5 63.75 -55.0 61.25 -46.1 61.35 -46.1 69.4 -49.5 72.4 -43.25 66.4 -42.15 64.65 -32.5 78.15 -29.25 82.15 -35.0 85.65 -34.25 87.5 -29.5 91.65 -31.0 98.65 -40.0 101.15 -57.0 106.3 -54.8 Q114.85 -50.65 122.05 -43.65 L126.55 -38.9 Q130.3 -34.55 133.6 -29.3 138.0 -22.4 141.65 -14.0 L120.15 -18.5 120.15 -8.0 106.65 -4.5 102.65 -7.5 96.9 -2.5 95.5 -1.25 91.15 2.5 87.65 3.5 83.45 -2.0 73.15 -8.0 61.6 -0.05 56.15 11.0 66.15 29.5 40.65 42.0 14.15 26.5 -16.35 28.5 -19.1 24.7 -33.35 28.5 -36.85 14.0 -31.1 1.75 -32.85 -7.0 -40.3 -17.9 M50.65 -24.5 L31.65 -27.0 27.35 -33.3 M61.6 -0.05 L60.65 -6.0 66.15 -12.0 63.15 -16.0 50.65 -24.5 29.35 -12.5 -1.35 -19.5 -23.5 -15.5 M63.15 -16.0 L55.65 -32.5 39.6 -34.9 M61.25 -46.1 L55.6 -45.75 M87.5 -29.5 L75.15 -25.0 82.15 -15.5 96.15 -17.5 120.15 -18.5 M-31.1 1.75 L-29.35 10.5 -19.1 24.7" fill="none" stroke="#000000" stroke-linecap="round" stroke-linejoin="round" stroke-width="1.0"/>
    <path d="M-61.7 -27.4 L-22.85 -22.45 Q-7.5 -30.1 7.8 -37.8 L47.9 -41.9 52.7 -54.2 48.3 -61.9 53.25 -72.25 63.1 -75.55 64.95 -78.85 M80.4 -24.2 L93.8 -28.4 102.0 -38.4 104.0 -51.8" fill="none" stroke="#837351" stroke-linecap="round" stroke-linejoin="round" stroke-opacity="0.5019608" stroke-width="3.0"/>
    <path d="M138.25 -16.6 L120.6 -20.5 96.4 -19.35" fill="none" stroke="#4f8470" stroke-linecap="round" stroke-linejoin="round" stroke-opacity="0.5019608" stroke-width="3.0"/>
  </g>
  <defs>
    <radialGradient cx="0" cy="0" gradientTransform="matrix(-0.006, 0.1233, -0.1379, -0.0067, 35.0, 15.35)" gradientUnits="userSpaceOnUse" id="gradient0" r="819.2" spreadMethod="pad">
      <stop offset="0.0" stop-color="#505a36"/>
      <stop offset="0.803921568627451" stop-color="#393f30"/>
      <stop offset="1.0" stop-color="#73805e"/>
    </radialGradient>
    <radialGradient cx="0" cy="0" gradientTransform="matrix(0.1076, 0.0, 0.0, 0.1076, 61.15, 20.25)" gradientUnits="userSpaceOnUse" id="gradient1" r="819.2" spreadMethod="pad">
      <stop offset="0.0" stop-color="#505a36"/>
      <stop offset="0.803921568627451" stop-color="#393f30"/>
      <stop offset="1.0" stop-color="#73805e"/>
    </radialGradient>
    <linearGradient gradientTransform="matrix(0.0121, 0.0209, -0.011, 0.0063, 13.6, -22.9)" gradientUnits="userSpaceOnUse" id="gradient2" spreadMethod="pad" x1="-819.2" x2="819.2">
      <stop offset="0.615686274509804" stop-color="#262920"/>
      <stop offset="1.0" stop-color="#404735"/>
    </linearGradient>
    <radialGradient cx="0" cy="0" gradientTransform="matrix(0.0601, 0.0, 0.0, 0.0601, 71.6, -5.6)" gradientUnits="userSpaceOnUse" id="gradient3" r="819.2" spreadMethod="pad">
      <stop offset="0.0" stop-color="#121911"/>
      <stop offset="0.7764705882352941" stop-color="#1a2217"/>
      <stop offset="0.8196078431372549" stop-color="#2d3c2b"/>
      <stop offset="1.0" stop-color="#4e684a"/>
      <stop offset="1.0" stop-color="#2d432e"/>
    </radialGradient>
    <radialGradient cx="0" cy="0" gradientTransform="matrix(0.0967, 0.0, 0.0, 0.0967, 12.4, 41.2)" gradientUnits="userSpaceOnUse" id="gradient4" r="819.2" spreadMethod="pad">
      <stop offset="0.0" stop-color="#121911"/>
      <stop offset="0.5647058823529412" stop-color="#1a2217"/>
      <stop offset="0.9137254901960784" stop-color="#2d3c2b"/>
      <stop offset="1.0" stop-color="#4e684a"/>
      <stop offset="1.0" stop-color="#2d432e"/>
    </radialGradient>
    <radialGradient cx="0" cy="0" gradientTransform="matrix(0.0535, 0.0, 0.0, 0.0535, -2.8, 35.2)" gradientUnits="userSpaceOnUse" id="gradient5" r="819.2" spreadMethod="pad">
      <stop offset="0.0" stop-color="#505a36"/>
      <stop offset="0.803921568627451" stop-color="#393f30"/>
      <stop offset="1.0" stop-color="#73805e"/>
    </radialGradient>
  </defs>
</svg>
