<?xml version="1.0" encoding="UTF-8" standalone="no"?>
<svg xmlns:ffdec="https://www.free-decompiler.com/flash" xmlns:xlink="http://www.w3.org/1999/xlink" ffdec:objectType="shape" height="11.8px" width="11.9px" xmlns="http://www.w3.org/2000/svg">
  <g transform="matrix(1.0, 0.0, 0.0, 1.0, 5.95, 5.9)">
    <path d="M-4.3 3.2 Q-5.35 1.8 -5.35 0.0 -5.35 -2.2 -3.8 -3.75 -2.2 -5.3 0.0 -5.3 L1.1 -5.2 Q2.6 -4.9 3.75 -3.75 5.35 -2.2 5.35 -0.05 L5.35 0.0 Q5.35 2.2 3.75 3.75 2.2 5.3 0.0 5.3 -2.2 5.3 -3.8 3.75 L-4.3 3.2 -0.8 0.6 1.1 -5.2 -0.8 0.6 -4.3 3.2 M-0.8 0.6 L5.35 -0.05 -0.8 0.6" fill="#191c17" fill-rule="evenodd" stroke="none"/>
    <path d="M-4.3 3.2 Q-5.35 1.8 -5.35 0.0 -5.35 -2.2 -3.8 -3.75 -2.2 -5.3 0.0 -5.3 L1.1 -5.2 Q2.6 -4.9 3.75 -3.75 5.35 -2.2 5.35 -0.05 L5.35 0.0 Q5.35 2.2 3.75 3.75 2.2 5.3 0.0 5.3 -2.2 5.3 -3.8 3.75 L-4.3 3.2 -0.8 0.6 1.1 -5.2 M5.35 -0.05 L-0.8 0.6" fill="none" stroke="#0f120d" stroke-linecap="round" stroke-linejoin="bevel" stroke-width="1.2000000000000002"/>
  </g>
</svg>
