<?xml version="1.0" encoding="UTF-8" standalone="no"?>
<svg xmlns:ffdec="https://www.free-decompiler.com/flash" xmlns:xlink="http://www.w3.org/1999/xlink" ffdec:objectType="shape" height="96.3px" width="111.8px" xmlns="http://www.w3.org/2000/svg">
  <g transform="matrix(1.0, 0.0, 0.0, 1.0, 47.6, 47.45)">
    <path d="M22.8 43.0 L3.65 46.45 -28.2 36.45 -44.0 2.6 -45.5 -0.65 -45.15 -3.7 -10.0 -43.45 37.85 -45.4 38.0 -45.25 2.45 -5.5 22.8 43.0 M-37.2 1.15 L2.45 -5.5 -37.2 1.15 M-37.85 1.55 L-44.0 2.6 -37.85 1.55" fill="url(#gradient0)" fill-rule="evenodd" stroke="none"/>
    <path d="M38.0 -45.25 L62.25 -14.15 62.35 -14.0 58.6 14.35 Q30.0 34.85 29.8 41.75 L22.8 43.0 2.45 -5.5 38.0 -45.25" fill="url(#gradient1)" fill-rule="evenodd" stroke="none"/>
    <path d="M22.8 43.0 L2.45 -5.5 -37.2 1.15 M2.45 -5.5 L38.0 -45.25 M-44.0 2.6 L-37.85 1.55" fill="none" stroke="#4b5342" stroke-linecap="round" stroke-linejoin="bevel" stroke-width="3.5"/>
    <path d="M-28.85 37.5 L-46.4 -0.15 -46.05 -3.25 -10.4 -43.6 38.4 -46.25 63.0 -13.7 59.2 15.05 Q30.2 35.85 30.0 42.85 L3.45 47.65 -28.85 37.5 Z" fill="none" stroke="#1c2218" stroke-linecap="round" stroke-linejoin="bevel" stroke-width="2.4000000000000004"/>
  </g>
  <defs>
    <radialGradient cx="0" cy="0" gradientTransform="matrix(0.1027, 0.0, 0.0, 0.1027, 6.75, -5.9)" gradientUnits="userSpaceOnUse" id="gradient0" r="819.2" spreadMethod="pad">
      <stop offset="0.0" stop-color="#4c5443"/>
      <stop offset="1.0" stop-color="#31382b"/>
    </radialGradient>
    <radialGradient cx="0" cy="0" gradientTransform="matrix(0.1027, 0.0, 0.0, 0.1027, 3.75, -5.0)" gradientUnits="userSpaceOnUse" id="gradient1" r="819.2" spreadMethod="pad">
      <stop offset="0.0" stop-color="#4c5443"/>
      <stop offset="1.0" stop-color="#31382b"/>
    </radialGradient>
  </defs>
</svg>
