<?xml version="1.0" encoding="UTF-8" standalone="no"?>
<svg xmlns:xlink="http://www.w3.org/1999/xlink" height="25.7px" width="16.6px" xmlns="http://www.w3.org/2000/svg">
  <g transform="matrix(1.0, 0.0, 0.0, 1.0, 8.6, 7.15)">
    <path d="M4.5 -0.7 L4.55 -0.65 Q6.0 0.6 6.65 2.8 L6.6 2.85 7.5 9.45 Q7.45 13.45 5.8 14.85 L5.2 14.75 3.6 14.25 1.45 13.1 -0.65 10.15 -2.15 4.85 -4.85 3.2 -6.1 1.75 -6.15 0.3 -6.2 -1.3 -5.1 -2.6 -4.0 -2.7 -1.95 -1.25 -0.15 -0.65 2.6 -1.15 4.5 -0.7 M-2.6 -0.35 Q-3.25 -0.6 -3.8 -0.35 -4.45 -0.15 -4.7 0.4 -4.95 0.95 -4.65 1.55 L-4.65 1.6 -3.8 2.35 -2.55 2.3 -1.7 1.55 Q-1.45 0.95 -1.7 0.4 L-2.6 -0.35 -1.7 0.4 Q-1.45 0.95 -1.7 1.55 L-2.55 2.3 -3.8 2.35 -4.65 1.6 -4.65 1.55 Q-4.95 0.95 -4.7 0.4 -4.45 -0.15 -3.8 -0.35 -3.25 -0.6 -2.6 -0.35 M-4.65 1.6 L-1.7 0.4 -4.65 1.6 M4.5 1.8 L2.7 2.2 3.5 5.4 1.95 6.9 2.75 11.8 4.15 11.6 4.15 9.55 5.7 8.85 5.4 4.45 4.5 1.8 M0.1 3.25 L0.75 1.4 0.1 3.25 -1.4 3.4 0.1 3.25 M-0.2 0.6 L0.75 1.4 -0.2 0.6" fill="#ffffff" fill-rule="evenodd" stroke="none"/>
    <path d="M4.5 -0.7 L2.6 -1.15 -0.15 -0.65 -1.95 -1.25 -4.0 -2.7 -5.1 -2.6 -6.2 -1.3 -6.15 0.3 -8.1 1.35 Q-8.35 -5.65 -3.9 -6.6 L-3.85 -6.65 -3.0 -5.35 -2.2 -4.15 1.0 -2.9 2.35 -2.85 3.9 -2.75 4.35 -2.1 4.5 -0.7 M-0.65 10.15 L1.45 13.1 -1.45 12.25 -1.95 11.15 -0.65 10.15" fill="#cccccc" fill-rule="evenodd" stroke="none"/>
    <path d="M-4.85 3.2 L-2.15 4.85 -0.65 10.15 -1.95 11.15 -1.45 12.25 1.45 13.1 3.6 14.25 5.2 14.75 4.8 16.4 2.45 18.05 -2.55 16.2 -3.8 10.0 -2.35 9.35 -2.95 7.45 -4.25 6.45 -4.7 5.1 -4.85 3.2" fill="#666666" fill-rule="evenodd" stroke="none"/>
    <path d="M-6.15 0.3 L-6.1 1.75 -4.85 3.2 -4.7 5.1 -4.25 6.45 -2.95 7.45 -2.35 9.35 -3.8 10.0 -6.1 8.65 -7.1 5.0 -8.1 1.35 -6.15 0.3 M-7.1 5.0 L-4.7 5.1 -7.1 5.0 M4.5 1.8 L5.4 4.45 5.7 8.85 4.15 9.55 4.15 11.6 2.75 11.8 1.95 6.9 3.5 5.4 2.7 2.2 4.5 1.8" fill="#00ccff" fill-rule="evenodd" stroke="none"/>
    <path d="M2.35 -2.85 L1.0 -2.9 -2.2 -4.15 -3.0 -5.35 Q0.45 -5.5 2.35 -2.85" fill="#000000" fill-rule="evenodd" stroke="none"/>
    <path d="M2.35 -2.85 Q0.45 -5.5 -3.0 -5.35" fill="none" stroke="#000000" stroke-linecap="round" stroke-linejoin="round" stroke-width="1.0"/>
    <path d="M-8.1 1.35 L-6.15 0.3 M-3.8 10.0 L-6.1 8.65 -7.1 5.0 -8.1 1.35 M-4.7 5.1 L-7.1 5.0" fill="none" stroke="#0182a0" stroke-linecap="round" stroke-linejoin="round" stroke-width="1.0"/>
    <path d="M-4.7 5.1 L-4.85 3.2 M-3.8 10.0 L-2.35 9.35 -2.95 7.45 -4.25 6.45 -4.7 5.1 M4.5 1.8 L5.4 4.45 5.7 8.85 4.15 9.55 4.15 11.6 2.75 11.8 1.95 6.9 3.5 5.4 2.7 2.2 4.5 1.8" fill="none" stroke="#015f76" stroke-linecap="round" stroke-linejoin="round" stroke-width="1.0"/>
    <path d="M-6.15 0.3 L-6.1 1.75 -4.85 3.2" fill="none" stroke="#014454" stroke-linecap="round" stroke-linejoin="round" stroke-width="1.0"/>
    <path d="M2.35 -2.85 L3.9 -2.75 4.35 -2.1 4.5 -0.7 M-3.0 -5.35 L-3.85 -6.65 -3.9 -6.6 Q-8.35 -5.65 -8.1 1.35 M0.75 1.4 L0.1 3.25" fill="none" stroke="#595959" stroke-linecap="round" stroke-linejoin="round" stroke-width="1.0"/>
    <path d="M-0.65 10.15 L-1.95 11.15 -1.45 12.25 1.45 13.1" fill="none" stroke="#444444" stroke-linecap="round" stroke-linejoin="round" stroke-width="1.0"/>
    <path d="M4.55 -0.65 L4.5 -0.7 2.6 -1.15 -0.15 -0.65 -1.95 -1.25 -4.0 -2.7 -5.1 -2.6 -6.2 -1.3 -6.15 0.3 M-4.85 3.2 L-2.15 4.85 -0.65 10.15 1.45 13.1 3.6 14.25 5.2 14.75 4.8 16.4 2.45 18.05 -2.55 16.2 -3.8 10.0" fill="none" stroke="#404040" stroke-linecap="round" stroke-linejoin="round" stroke-width="1.0"/>
    <path d="M7.5 9.45 L6.6 2.85 6.65 2.8 Q6.0 0.6 4.55 -0.65" fill="none" stroke="#666666" stroke-linecap="round" stroke-linejoin="round" stroke-width="1.0"/>
    <path d="M5.2 14.75 L5.8 14.85 Q7.45 13.45 7.5 9.45" fill="none" stroke="#555555" stroke-linecap="round" stroke-linejoin="round" stroke-width="1.0"/>
    <path d="M0.1 3.25 L-1.4 3.4 M0.75 1.4 L-0.2 0.6" fill="none" stroke="#959595" stroke-linecap="round" stroke-linejoin="round" stroke-width="1.0"/>
    <path d="M-3.0 -5.35 L-2.2 -4.15 1.0 -2.9 2.35 -2.85" fill="none" stroke="#373737" stroke-linecap="round" stroke-linejoin="round" stroke-width="1.0"/>
    <path d="M-2.6 -0.35 L-1.7 0.4 Q-1.45 0.95 -1.7 1.55 L-2.55 2.3 -3.8 2.35 -4.65 1.6 -4.65 1.55 Q-4.95 0.95 -4.7 0.4 -4.45 -0.15 -3.8 -0.35 -3.25 -0.6 -2.6 -0.35 M-1.7 0.4 L-4.65 1.6" fill="none" stroke="#aeaeae" stroke-linecap="round" stroke-linejoin="round" stroke-width="1.0"/>
  </g>
</svg>
