<?xml version="1.0" encoding="UTF-8" standalone="no"?>
<svg xmlns:xlink="http://www.w3.org/1999/xlink" height="13.75px" width="24.15px" xmlns="http://www.w3.org/2000/svg">
  <g transform="matrix(1.0, 0.0, 0.0, 1.0, 9.05, 5.6)">
    <path d="M1.8 4.0 Q1.2 5.25 1.3 7.1 -0.3 8.25 -2.0 7.1 L-0.6 7.1 Q0.55 4.8 -0.15 2.45 L-1.9 2.45 -1.85 2.2 -1.85 2.0 3.3 2.0 3.3 2.2 Q2.45 2.7 2.0 3.55 L1.8 4.0 M-4.0 2.65 L-7.7 2.65 -8.55 -0.15 -7.3 -0.5 -4.0 2.65" fill="#333333" fill-rule="evenodd" stroke="none"/>
    <path d="M5.9 -3.45 Q8.6 -3.25 9.0 -2.05 8.3 -0.6 9.4 1.8 L8.75 2.7 7.9 2.4 7.65 2.35 6.25 2.35 4.05 2.2 3.3 2.2 3.3 2.0 -1.85 2.0 -1.85 2.2 -4.0 2.65 -7.3 -0.5 Q-5.3 0.15 -0.85 -1.15 0.3 -2.8 -0.85 -4.05 L0.85 -5.1 Q1.6 -3.9 1.25 -2.15 3.7 -2.55 5.9 -3.45 M3.95 0.95 L5.0 -0.55 3.95 0.95 M5.55 0.95 L6.6 -0.55 5.55 0.95 M2.3 0.95 L3.35 -0.55 2.3 0.95" fill="#666666" fill-rule="evenodd" stroke="none"/>
    <path d="M-2.0 7.1 Q-1.3 4.8 -1.9 2.45 L-0.15 2.45 Q0.55 4.8 -0.6 7.1 L-2.0 7.1" fill="#1a1a1a" fill-rule="evenodd" stroke="none"/>
    <path d="M9.0 -2.05 L12.5 -2.05 13.05 -0.85 13.05 0.5 12.5 1.8 9.4 1.8 Q8.3 -0.6 9.0 -2.05" fill="#595959" fill-rule="evenodd" stroke="none"/>
    <path d="M0.85 -5.1 Q4.35 -4.95 5.9 -3.45 3.7 -2.55 1.25 -2.15 1.6 -3.9 0.85 -5.1 M-7.3 -0.5 Q-6.85 -4.8 -0.85 -4.05 0.3 -2.8 -0.85 -1.15 -5.3 0.15 -7.3 -0.5" fill="#004866" fill-rule="evenodd" stroke="none"/>
    <path d="M12.5 -2.05 L14.05 -2.05 14.6 -0.85 14.6 0.5 14.05 1.8 12.5 1.8 13.05 0.5 13.05 -0.85 12.5 -2.05 M14.6 0.5 L13.05 0.5 14.6 0.5 M14.6 -0.85 L13.05 -0.85 14.6 -0.85" fill="#007bcc" fill-rule="evenodd" stroke="none"/>
    <path d="M0.85 -5.1 Q4.35 -4.95 5.9 -3.45 8.6 -3.25 9.0 -2.05 L12.5 -2.05 M12.5 1.8 L9.4 1.8 8.75 2.7 7.9 2.4 7.65 2.35 6.25 2.35 Q5.45 4.05 1.8 4.0 1.2 5.25 1.3 7.1 -0.3 8.25 -2.0 7.1 -1.3 4.8 -1.9 2.45 L-1.85 2.2 -4.0 2.65 -7.7 2.65 -8.55 -0.15 -7.3 -0.5 Q-6.85 -4.8 -0.85 -4.05 L0.85 -5.1 Q1.6 -3.9 1.25 -2.15 3.7 -2.55 5.9 -3.45 M1.8 4.0 L2.0 3.55 Q2.45 2.7 3.3 2.2 L4.05 2.2 6.25 2.35 M3.35 -0.55 L2.3 0.95 M6.6 -0.55 L5.55 0.95 M5.0 -0.55 L3.95 0.95 M9.4 1.8 Q8.3 -0.6 9.0 -2.05 M-0.85 -4.05 Q0.3 -2.8 -0.85 -1.15 -5.3 0.15 -7.3 -0.5 L-4.0 2.65" fill="none" stroke="#000000" stroke-linecap="round" stroke-linejoin="round" stroke-width="1.0"/>
    <path d="M12.5 -2.05 L14.05 -2.05 14.6 -0.85 14.6 0.5 14.05 1.8 12.5 1.8 13.05 0.5 13.05 -0.85 14.6 -0.85 M12.5 -2.05 L13.05 -0.85 M13.05 0.5 L14.6 0.5" fill="none" stroke="#003366" stroke-linecap="round" stroke-linejoin="round" stroke-width="1.0"/>
  </g>
</svg>
