<?xml version="1.0" encoding="UTF-8" standalone="no"?>
<svg xmlns:xlink="http://www.w3.org/1999/xlink" height="17.75px" width="16.8px" xmlns="http://www.w3.org/2000/svg">
  <g transform="matrix(1.0, 0.0, 0.0, 1.0, 9.7, 3.45)">
    <path d="M-7.6 2.95 L-7.3 0.8 -5.75 1.65 -1.75 0.5 -1.7 0.5 -0.5 -0.5 1.8 0.0 1.0 3.0 -1.35 5.85 -1.05 3.8 -2.0 3.3 -6.05 3.45 -7.6 2.95" fill="#a47a4d" fill-rule="evenodd" stroke="none"/>
    <path d="M1.8 0.0 L3.0 -2.3 Q3.85 -3.1 5.3 -2.9 6.55 -1.85 6.6 0.05 6.0 2.35 4.05 4.3 L4.0 4.3 1.2 6.65 -1.35 5.85 1.0 3.0 1.8 0.0 M0.75 8.3 L2.2 9.6 2.1 10.75 1.95 12.05 1.8 13.45 -0.15 13.8 -1.85 12.1 -4.9 12.1 -5.2 9.9 -7.35 8.1 -9.0 7.65 Q-9.55 6.55 -8.45 6.1 L-5.1 7.6 -4.2 7.15 -1.7 8.3 -2.0 10.4 -1.7 8.3 -0.7 8.0 0.75 8.3 M0.45 10.45 L2.1 10.75 0.45 10.45 M0.9 11.85 L1.95 12.05 0.9 11.85 M-2.0 10.4 L-1.85 12.1 -2.0 10.4 -5.2 9.9 -2.0 10.4" fill="#f0c468" fill-rule="evenodd" stroke="none"/>
    <path d="M1.2 6.65 L0.75 8.3 -0.7 8.0 -1.7 8.3 -4.2 7.15 -5.1 7.6 -8.45 6.1 -7.6 2.95 -6.05 3.45 -2.0 3.3 -1.05 3.8 -1.35 5.85 1.2 6.65 M-7.3 0.8 L-7.25 -0.35 Q-7.25 -2.55 -2.65 -0.9 L-1.8 -2.25 Q2.5 -3.25 1.8 0.0 L-0.5 -0.5 -1.7 0.5 -1.75 0.5 -5.75 1.65 -7.3 0.8 M-2.65 -0.9 L-1.75 0.5 -2.65 -0.9 M-1.35 5.85 L-1.7 8.3 -1.35 5.85" fill="#1a1a1a" fill-rule="evenodd" stroke="none"/>
    <path d="M1.2 6.65 L0.75 8.3 M-8.45 6.1 L-7.6 2.95 M-7.3 0.8 L-7.25 -0.35 Q-7.25 -2.55 -2.65 -0.9 L-1.8 -2.25 M-1.7 8.3 L-1.35 5.85 M-1.75 0.5 L-2.65 -0.9" fill="none" stroke="#0d0d0d" stroke-linecap="round" stroke-linejoin="round" stroke-width="1.0"/>
    <path d="M-7.6 2.95 L-7.3 0.8 -5.75 1.65 -1.75 0.5 -1.7 0.5 -0.5 -0.5 1.8 0.0 M-7.6 2.95 L-6.05 3.45 -2.0 3.3 -1.05 3.8 -1.35 5.85" fill="none" stroke="#36271f" stroke-linecap="round" stroke-linejoin="round" stroke-width="1.0"/>
    <path d="M1.8 0.0 L3.0 -2.3 Q3.85 -3.1 5.3 -2.9 6.55 -1.85 6.6 0.05 6.0 2.35 4.05 4.3 L4.0 4.3 1.2 6.65 -1.35 5.85 1.0 3.0 1.8 0.0 M0.75 8.3 L2.2 9.6 2.1 10.75 1.95 12.05 1.8 13.45 -0.15 13.8 -1.85 12.1 -2.0 10.4 -1.7 8.3 -0.7 8.0 0.75 8.3 M1.95 12.05 L0.9 11.85 M2.1 10.75 L0.45 10.45" fill="none" stroke="#5a4425" stroke-linecap="round" stroke-linejoin="round" stroke-width="1.0"/>
    <path d="M-1.85 12.1 L-4.9 12.1 -5.2 9.9 -7.35 8.1 -9.0 7.65 Q-9.55 6.55 -8.45 6.1 L-5.1 7.6 -4.2 7.15 -1.7 8.3 M-2.0 10.4 L-5.2 9.9" fill="none" stroke="#5a4425" stroke-linecap="round" stroke-linejoin="round" stroke-opacity="0.99215686" stroke-width="1.0"/>
    <path d="M3.95 -1.15 L4.6 -0.95 4.95 -0.3 4.75 0.3 4.15 0.65 3.5 0.45 3.2 -0.15 3.35 -0.8 3.95 -1.15" fill="#0099ff" fill-rule="evenodd" stroke="none"/>
    <path d="M3.95 -1.15 L4.6 -0.95 4.95 -0.3 4.75 0.3 4.15 0.65 3.5 0.45 3.2 -0.15 3.35 -0.8 3.95 -1.15 Z" fill="none" stroke="#5a4425" stroke-linecap="round" stroke-linejoin="round" stroke-width="1.0"/>
    <path d="M3.7 1.0 Q4.05 1.25 4.05 1.65 L3.85 2.25 3.25 2.6 2.6 2.4 2.3 1.8 Q2.25 1.45 2.45 1.15 L3.05 0.8 3.7 1.0" fill="#0099ff" fill-rule="evenodd" stroke="none"/>
    <path d="M3.7 1.0 Q4.05 1.25 4.05 1.65 L3.85 2.25 3.25 2.6 2.6 2.4 2.3 1.8 Q2.25 1.45 2.45 1.15 L3.05 0.8 3.7 1.0 Z" fill="none" stroke="#5a4425" stroke-linecap="round" stroke-linejoin="round" stroke-width="1.0"/>
  </g>
</svg>
