<?xml version="1.0" encoding="UTF-8" standalone="no"?>
<svg xmlns:xlink="http://www.w3.org/1999/xlink" height="10.65px" width="13.6px" xmlns="http://www.w3.org/2000/svg">
  <g transform="matrix(1.0, 0.0, 0.0, 1.0, 7.85, 0.95)">
    <path d="M-6.05 3.25 L-3.55 4.65 -0.65 5.3 -1.35 6.55 -3.95 6.65 -5.45 7.6 -6.95 7.65 -7.35 5.35 -6.05 3.25 M-5.55 6.4 L-6.1 5.9 -5.55 6.4 M-4.45 5.7 L-5.1 5.2 -4.45 5.7" fill="#666666" fill-rule="evenodd" stroke="none"/>
    <path d="M-6.0 0.4 L-4.2 -0.15 0.9 -0.05 2.85 -0.35 3.7 -0.45 Q6.2 1.85 4.65 4.7 L3.2 5.1 2.8 5.2 -0.65 5.3 2.8 5.2 3.2 5.1 4.15 5.8 4.3 7.35 3.6 8.25 2.9 9.15 1.75 9.2 1.7 9.2 1.75 9.2 1.7 9.2 -1.35 8.8 -1.35 6.55 -0.65 5.3 -3.55 4.65 -6.05 3.25 -6.75 1.55 -6.0 0.4 M-4.4 1.6 L-4.45 2.1 -4.2 2.5 Q-3.95 2.75 -3.7 2.65 L-3.25 2.35 -3.1 1.8 Q-3.15 1.45 -3.4 1.35 L-3.9 1.3 -4.4 1.6 M-1.9 2.1 L-2.05 2.9 Q-2.0 3.45 -1.6 3.7 L-0.8 3.85 -0.2 3.35 Q0.15 2.95 0.1 2.5 L-0.35 1.7 Q-0.8 1.4 -1.15 1.5 -1.75 1.65 -1.9 2.1" fill="#ffffff" fill-rule="evenodd" stroke="none"/>
    <path d="M-1.9 2.1 Q-1.75 1.65 -1.15 1.5 -0.8 1.4 -0.35 1.7 L0.1 2.5 Q0.15 2.95 -0.2 3.35 L-0.8 3.85 -1.6 3.7 Q-2.0 3.45 -2.05 2.9 L-1.9 2.1 M-4.4 1.6 L-3.9 1.3 -3.4 1.35 Q-3.15 1.45 -3.1 1.8 L-3.25 2.35 -3.7 2.65 Q-3.95 2.75 -4.2 2.5 L-4.45 2.1 -4.4 1.6" fill="#00ccff" fill-rule="evenodd" stroke="none"/>
    <path d="M2.85 -0.35 L0.9 -0.05 -4.2 -0.15 -6.0 0.4 M-6.05 3.25 L-3.55 4.65 -0.65 5.3 2.8 5.2 3.2 5.1 M1.75 9.2 L2.9 9.15 3.6 8.25 M1.75 9.2 L1.7 9.2 -1.35 8.8 -1.35 6.55 -3.95 6.65 -5.45 7.6 -6.95 7.65 -7.35 5.35 -6.05 3.25 M-0.65 5.3 L-1.35 6.55" fill="none" stroke="#404040" stroke-linecap="round" stroke-linejoin="round" stroke-width="1.0"/>
    <path d="M-6.0 0.4 L-6.75 1.55 -6.05 3.25 M3.2 5.1 L4.65 4.7 Q6.2 1.85 3.7 -0.45 L2.85 -0.35 M3.6 8.25 L4.3 7.35 4.15 5.8 3.2 5.1" fill="none" stroke="#555555" stroke-linecap="round" stroke-linejoin="round" stroke-width="1.0"/>
    <path d="M-1.9 2.1 Q-1.75 1.65 -1.15 1.5 -0.8 1.4 -0.35 1.7 L0.1 2.5 Q0.15 2.95 -0.2 3.35 L-0.8 3.85 -1.6 3.7 Q-2.0 3.45 -2.05 2.9 L-1.9 2.1 M-4.4 1.6 L-3.9 1.3 -3.4 1.35 Q-3.15 1.45 -3.1 1.8 L-3.25 2.35 -3.7 2.65 Q-3.95 2.75 -4.2 2.5 L-4.45 2.1 -4.4 1.6" fill="none" stroke="#0182a0" stroke-linecap="round" stroke-linejoin="round" stroke-width="1.0"/>
    <path d="M-5.1 5.2 L-4.45 5.7 M-6.1 5.9 L-5.55 6.4" fill="none" stroke="#333333" stroke-linecap="round" stroke-linejoin="round" stroke-width="1.0"/>
  </g>
</svg>
