<?xml version="1.0" encoding="UTF-8" standalone="no"?>
<svg xmlns:ffdec="https://www.free-decompiler.com/flash" xmlns:xlink="http://www.w3.org/1999/xlink" ffdec:objectType="shape" height="11.2px" width="12.15px" xmlns="http://www.w3.org/2000/svg">
  <g transform="matrix(1.0, 0.0, 0.0, 1.0, 6.05, 5.6)">
    <path d="M4.2 -1.0 Q3.45 -0.3 2.5 -0.25 1.65 -0.15 1.1 -0.75 0.55 -1.35 0.65 -2.25 0.8 -3.15 1.55 -3.85 2.3 -4.5 3.2 -4.6 4.15 -4.7 4.7 -4.1 5.25 -3.5 5.05 -2.6 4.95 -1.65 4.2 -1.0 M-1.5 3.85 Q-2.25 4.55 -3.2 4.6 -4.05 4.7 -4.6 4.1 -5.15 3.5 -5.05 2.6 -4.9 1.7 -4.15 1.0 -3.4 0.35 -2.5 0.25 -1.55 0.15 -1.0 0.75 -0.45 1.35 -0.65 2.25 -0.75 3.2 -1.5 3.85" fill="#ffffff" fill-rule="evenodd" stroke="none"/>
    <path d="M4.2 -1.0 Q3.45 -0.3 2.5 -0.25 1.65 -0.15 1.1 -0.75 0.55 -1.35 0.65 -2.25 0.8 -3.15 1.55 -3.85 2.3 -4.5 3.2 -4.6 4.15 -4.7 4.7 -4.1 5.25 -3.5 5.05 -2.6 4.95 -1.65 4.2 -1.0 M-1.5 3.85 Q-2.25 4.55 -3.2 4.6 -4.05 4.7 -4.6 4.1 -5.15 3.5 -5.05 2.6 -4.9 1.7 -4.15 1.0 -3.4 0.35 -2.5 0.25 -1.55 0.15 -1.0 0.75 -0.45 1.35 -0.65 2.25 -0.75 3.2 -1.5 3.85 Z" fill="none" stroke="#ff0000" stroke-linecap="round" stroke-linejoin="bevel" stroke-width="2.0"/>
  </g>
</svg>
