<?xml version="1.0" encoding="UTF-8" standalone="no"?>
<svg xmlns:xlink="http://www.w3.org/1999/xlink" height="19.0px" width="37.95px" xmlns="http://www.w3.org/2000/svg">
  <g transform="matrix(1.0, 0.0, 0.0, 1.0, 19.75, 11.05)">
    <path d="M-13.65 1.6 L-15.55 4.1 -17.55 6.05 -18.4 6.2 -18.6 5.35 Q-18.6 3.75 -17.7 2.15 -16.85 0.9 -16.65 0.1 L-17.65 -1.4 Q-19.6 -4.3 -19.7 -5.6 -19.8 -6.95 -19.3 -7.0 -18.35 -7.2 -17.15 -5.9 L-15.3 -3.95 Q-14.65 -3.3 -14.0 -3.15 L-11.5 -4.1 -11.3 -4.2 -12.2 -5.15 Q-12.95 -5.8 -12.75 -6.05 L-12.35 -6.25 -10.9 -5.7 Q-9.75 -5.15 -9.55 -4.8 L-8.45 -5.2 -4.75 -5.95 -1.55 -6.4 -1.7 -7.85 -1.85 -9.35 -1.9 -10.45 Q-1.8 -11.2 -1.05 -10.95 -0.3 -10.7 1.15 -9.6 2.55 -8.5 3.1 -6.7 L6.55 -6.85 Q8.1 -6.85 10.8 -7.75 13.45 -8.7 14.9 -8.6 L15.85 -8.55 Q14.7 -4.6 9.55 -1.65 4.4 1.25 -1.05 1.45 L-12.5 0.9 Q-13.75 0.9 -13.65 1.6 M-9.55 -4.8 L-11.3 -4.2 -9.55 -4.8 M-1.55 -6.4 L3.1 -6.7 -1.55 -6.4" fill="#abcbf4" fill-rule="evenodd" stroke="none"/>
    <path d="M15.85 -8.55 L17.1 -8.35 Q17.7 -8.2 17.65 -6.65 18.15 -6.55 18.15 -6.05 L17.75 -5.45 17.5 -5.25 17.25 -4.4 17.55 -3.7 17.1 -3.35 16.7 -3.2 16.25 -2.55 16.4 -1.85 Q16.4 -1.7 15.85 -1.5 15.55 -1.35 15.3 -1.35 L14.9 -0.9 14.95 -0.5 14.7 -0.1 14.1 0.0 13.6 0.5 13.6 1.15 12.7 1.3 12.25 1.6 Q12.15 2.45 11.05 2.45 L11.0 2.45 10.9 2.5 10.8 2.55 9.9 3.05 10.25 3.35 11.25 3.35 11.5 4.2 11.75 4.3 12.45 4.15 12.85 4.4 13.1 4.9 13.4 5.05 13.65 5.1 14.3 4.85 14.9 5.3 14.9 5.55 15.2 5.65 15.9 5.4 15.95 5.4 15.7 5.25 16.15 4.9 Q16.35 5.0 16.35 5.75 L16.25 5.95 16.7 6.1 16.75 6.15 Q15.6 7.1 14.9 7.2 7.75 8.2 -0.35 5.9 -8.45 3.55 -10.75 2.45 -13.1 1.3 -13.65 1.6 -13.75 0.9 -12.5 0.9 L-1.05 1.45 Q4.4 1.25 9.55 -1.65 14.7 -4.6 15.85 -8.55 M11.25 2.7 L12.0 2.55 12.35 2.55 12.45 2.9 12.55 3.25 12.4 3.35 11.25 2.7 M12.65 3.45 L13.65 3.25 13.85 4.15 12.65 3.45 M14.2 4.3 L15.35 4.0 15.3 4.95 14.2 4.3 M-4.0 6.95 Q-4.15 7.85 -4.75 7.85 -5.45 7.85 -6.4 6.8 L-6.6 6.6 Q-5.5 6.05 -4.0 6.95 M16.25 -2.55 L16.05 -2.25 15.3 -1.35 16.05 -2.25 16.25 -2.55 M17.5 -5.25 L17.6 -6.1 17.65 -6.65 17.6 -6.1 17.5 -5.25 M17.25 -4.4 L16.7 -3.2 17.25 -4.4 M13.65 5.1 L14.9 5.55 13.65 5.1 M11.75 4.3 L12.65 4.75 13.1 4.9 12.65 4.75 11.75 4.3 M10.25 3.35 L11.5 4.2 10.25 3.35 M12.25 1.6 L11.0 2.45 12.25 1.6 M13.6 0.5 L13.5 0.6 12.7 1.3 13.5 0.6 13.6 0.5 M16.35 5.75 Q16.35 5.2 15.95 5.4 16.35 5.2 16.35 5.75 M15.2 5.65 L16.25 5.95 15.2 5.65 M14.9 -0.9 L14.1 0.0 14.9 -0.9" fill="#ffffff" fill-rule="evenodd" stroke="none"/>
    <path d="M10.9 2.5 L11.25 2.7 12.4 3.35 12.45 3.35 12.65 3.45 13.85 4.15 13.9 4.15 14.0 4.2 14.2 4.3 15.3 4.95 15.7 5.25 15.95 5.4 15.9 5.4 15.2 5.65 14.9 5.55 14.9 5.3 14.3 4.85 13.65 5.1 13.4 5.05 13.1 4.9 12.85 4.4 12.45 4.15 11.75 4.3 11.5 4.2 11.25 3.35 10.25 3.35 9.9 3.05 10.8 2.55 10.9 2.5 M16.35 5.75 L16.7 6.1 16.25 5.95 16.35 5.75" fill="#ecd5df" fill-rule="evenodd" stroke="none"/>
    <path d="M14.9 7.2 Q13.2 7.85 10.75 7.9 L5.2 7.75 -1.0 6.6 -4.0 5.95 -3.95 6.25 -4.0 6.95 Q-5.5 6.05 -6.6 6.6 L-7.45 4.95 Q-10.65 3.75 -13.65 1.6 -13.1 1.3 -10.75 2.45 -8.45 3.55 -0.35 5.9 7.75 8.2 14.9 7.2 M-7.45 4.95 L-7.15 5.05 -4.0 5.95 -7.15 5.05 -7.45 4.95" fill="#dedede" fill-rule="evenodd" stroke="none"/>
    <path d="M-13.65 1.6 L-15.55 4.1 -17.55 6.05 -18.4 6.2 -18.6 5.35 Q-18.6 3.75 -17.7 2.15 -16.85 0.9 -16.65 0.1 L-17.65 -1.4 Q-19.6 -4.3 -19.7 -5.6 -19.8 -6.95 -19.3 -7.0 -18.35 -7.2 -17.15 -5.9 L-15.3 -3.95 Q-14.65 -3.3 -14.0 -3.15 L-11.5 -4.1 -11.3 -4.2 -12.2 -5.15 Q-12.95 -5.8 -12.75 -6.05 L-12.35 -6.25 -10.9 -5.7 Q-9.75 -5.15 -9.55 -4.8 L-8.45 -5.2 -4.75 -5.95 -1.55 -6.4 -1.7 -7.85 -1.85 -9.35 -1.9 -10.45 Q-1.8 -11.2 -1.05 -10.95 -0.3 -10.7 1.15 -9.6 2.55 -8.5 3.1 -6.7 L6.55 -6.85 Q8.1 -6.85 10.8 -7.75 13.45 -8.7 14.9 -8.6 L15.85 -8.55 17.1 -8.35 Q17.7 -8.2 17.65 -6.65 18.15 -6.55 18.15 -6.05 L17.75 -5.45 17.5 -5.25 17.25 -4.4 17.55 -3.7 17.1 -3.35 16.7 -3.2 16.25 -2.55 16.4 -1.85 Q16.4 -1.7 15.85 -1.5 15.55 -1.35 15.3 -1.35 L14.9 -0.9 14.95 -0.5 14.7 -0.1 14.1 0.0 13.6 0.5 13.6 1.15 12.7 1.3 12.25 1.6 Q12.15 2.45 11.05 2.45 L11.0 2.45 10.9 2.5 11.25 2.7 12.0 2.55 12.35 2.55 12.45 2.9 12.55 3.25 12.4 3.35 12.45 3.35 12.65 3.45 13.65 3.25 13.85 4.15 13.9 4.15 14.0 4.2 14.2 4.3 15.35 4.0 15.3 4.95 15.7 5.25 16.15 4.9 Q16.35 5.0 16.35 5.75 L16.7 6.1 16.8 6.1 16.75 6.15 Q15.6 7.1 14.9 7.2 13.2 7.85 10.75 7.9 L5.2 7.75 -1.0 6.6 -4.0 5.95 -3.95 6.25 -4.0 6.95 Q-4.15 7.85 -4.75 7.85 -5.45 7.85 -6.4 6.8 L-6.6 6.6 -7.45 4.95 Q-10.65 3.75 -13.65 1.6 -13.75 0.9 -12.5 0.9 L-1.05 1.45 Q4.4 1.25 9.55 -1.65 14.7 -4.6 15.85 -8.55 M-11.3 -4.2 L-9.55 -4.8 M16.7 -3.2 L17.25 -4.4 M17.65 -6.65 L17.6 -6.1 17.5 -5.25 M15.3 -1.35 L16.05 -2.25 16.25 -2.55 M3.1 -6.7 L-1.55 -6.4 M10.9 2.5 L10.8 2.55 9.9 3.05 10.25 3.35 11.25 3.35 11.5 4.2 11.75 4.3 12.45 4.15 12.85 4.4 13.1 4.9 13.4 5.05 13.65 5.1 14.3 4.85 14.9 5.3 14.9 5.55 15.2 5.65 15.9 5.4 15.95 5.4 15.7 5.25 M16.35 5.75 L16.25 5.95 16.7 6.1 16.75 6.15 M16.25 5.95 L15.2 5.65 M15.95 5.4 Q16.35 5.2 16.35 5.75 M12.7 1.3 L13.5 0.6 13.6 0.5 M11.0 2.45 L12.25 1.6 M11.5 4.2 L10.25 3.35 M13.1 4.9 L12.65 4.75 11.75 4.3 M14.9 5.55 L13.65 5.1 M12.4 3.35 L11.25 2.7 M13.85 4.15 L12.65 3.45 M15.3 4.95 L14.2 4.3 M-4.0 5.95 L-7.15 5.05 -7.45 4.95 M14.1 0.0 L14.9 -0.9" fill="none" stroke="#1b1c1e" stroke-linecap="round" stroke-linejoin="round" stroke-opacity="0.5019608" stroke-width="0.1"/>
    <path d="M11.5 -3.35 L11.1 -3.5 10.65 -3.35 10.5 -2.9 Q10.5 -2.65 10.65 -2.5 L11.1 -2.3 11.5 -2.5 11.7 -2.9 11.5 -3.35 M11.05 -4.05 L11.8 -3.75 Q12.15 -3.4 12.15 -2.95 12.15 -2.5 11.8 -2.2 11.5 -1.85 11.05 -1.85 10.6 -1.85 10.25 -2.2 9.95 -2.5 9.95 -2.95 9.95 -3.4 10.25 -3.75 L11.05 -4.05" fill="#ffffff" fill-rule="evenodd" stroke="none"/>
    <path d="M11.5 -3.35 L11.7 -2.9 11.5 -2.5 11.1 -2.3 10.65 -2.5 Q10.5 -2.65 10.5 -2.9 L10.65 -3.35 11.1 -3.5 11.5 -3.35" fill="#433937" fill-rule="evenodd" stroke="none"/>
    <path d="M11.05 -4.05 L11.8 -3.75 Q12.15 -3.4 12.15 -2.95 12.15 -2.5 11.8 -2.2 11.5 -1.85 11.05 -1.85 10.6 -1.85 10.25 -2.2 9.95 -2.5 9.95 -2.95 9.95 -3.4 10.25 -3.75 L11.05 -4.05 Z" fill="none" stroke="#1b1c1e" stroke-linecap="round" stroke-linejoin="round" stroke-opacity="0.5019608" stroke-width="0.1"/>
  </g>
</svg>
