<?xml version="1.0" encoding="UTF-8" standalone="no"?>
<svg xmlns:xlink="http://www.w3.org/1999/xlink" height="16.65px" width="20.1px" xmlns="http://www.w3.org/2000/svg">
  <g transform="matrix(1.0, 0.0, 0.0, 1.0, 4.35, 5.35)">
    <path d="M2.45 -2.65 Q3.25 -2.45 3.1 -1.5 3.0 -0.55 2.25 -0.45 L0.75 -0.4 Q-0.05 -0.4 -0.4 -0.8 -0.75 -1.2 -0.65 -1.8 -0.55 -2.45 0.15 -2.65 L1.2 -2.85 2.45 -2.65" fill="#353638" fill-rule="evenodd" stroke="none"/>
    <path d="M2.45 -2.65 L1.2 -2.85 0.15 -2.65 Q-0.55 -2.45 -0.65 -1.8 -0.75 -1.2 -0.4 -0.8 -0.05 -0.4 0.75 -0.4 L2.25 -0.45 Q3.0 -0.55 3.1 -1.5 3.25 -2.45 2.45 -2.65 M14.3 0.5 Q12.5 2.8 10.85 3.95 9.15 5.2 6.55 5.3 L6.7 5.25 Q7.65 4.25 7.45 2.75 7.25 1.35 6.5 1.05 L4.4 0.9 Q3.4 1.2 2.75 2.15 2.5 1.1 0.8 1.05 -1.05 1.1 -0.5 2.1 -1.6 1.75 -2.65 0.95 -3.6 0.15 -3.85 -0.55 -2.45 -3.85 -0.6 -4.4 L7.25 -4.75 Q12.9 -4.4 13.95 -3.3 L13.35 -3.0 Q13.05 -2.6 13.05 -1.4 13.0 -0.2 13.3 0.2 13.6 0.55 14.15 0.5 L14.3 0.5 M10.8 0.95 Q10.35 2.5 9.15 2.55 10.35 2.5 10.8 0.95 M5.25 -3.1 L11.1 -2.6 5.25 -3.1" fill="#8c0000" fill-rule="evenodd" stroke="none"/>
    <path d="M13.95 -3.3 L14.15 -3.35 Q14.55 -3.35 14.85 -2.95 L15.25 -2.15 15.2 -0.9 14.85 0.2 14.3 0.5 14.15 0.5 Q13.6 0.55 13.3 0.2 13.0 -0.2 13.05 -1.4 13.05 -2.6 13.35 -3.0 L13.95 -3.3" fill="#4f76b1" fill-rule="evenodd" stroke="none"/>
    <path d="M2.45 -2.65 L1.2 -2.85 0.15 -2.65 Q-0.55 -2.45 -0.65 -1.8 -0.75 -1.2 -0.4 -0.8 -0.05 -0.4 0.75 -0.4 L2.25 -0.45 Q3.0 -0.55 3.1 -1.5 3.25 -2.45 2.45 -2.65 M6.7 5.25 L2.6 4.9" fill="none" stroke="#191718" stroke-linecap="round" stroke-linejoin="round" stroke-width="1.0"/>
    <path d="M13.95 -3.3 L14.15 -3.35 Q14.55 -3.35 14.85 -2.95 L15.25 -2.15 15.2 -0.9 14.85 0.2 14.3 0.5 14.15 0.5 Q13.6 0.55 13.3 0.2 13.0 -0.2 13.05 -1.4 13.05 -2.6 13.35 -3.0 L13.95 -3.3" fill="none" stroke="#325285" stroke-linecap="round" stroke-linejoin="round" stroke-width="1.0"/>
    <path d="M11.1 -2.6 L5.25 -3.1 M9.15 2.55 Q10.35 2.5 10.8 0.95" fill="none" stroke="#5f0000" stroke-linecap="round" stroke-linejoin="round" stroke-width="1.0"/>
    <path d="M14.3 0.5 Q12.5 2.8 10.85 3.95 9.15 5.2 6.55 5.3 L6.7 5.25 Q7.65 4.25 7.45 2.75 7.25 1.35 6.5 1.05 L4.4 0.9 Q3.4 1.2 2.75 2.15 M13.95 -3.3 Q12.9 -4.4 7.25 -4.75 L-0.6 -4.4 Q-2.45 -3.85 -3.85 -0.55 -3.6 0.15 -2.65 0.95 -1.6 1.75 -0.5 2.1" fill="none" stroke="#3e0100" stroke-linecap="round" stroke-linejoin="round" stroke-width="1.0"/>
    <path d="M2.6 4.95 Q2.15 8.95 1.35 10.8 -1.35 10.1 -3.15 7.05 0.05 4.65 -0.5 2.1 -1.05 1.1 0.8 1.05 2.5 1.1 2.75 2.15 L2.6 4.95" fill="#353638" fill-rule="evenodd" stroke="none"/>
    <path d="M2.6 4.95 L2.75 2.15 Q2.5 1.1 0.8 1.05 -1.05 1.1 -0.5 2.1 0.05 4.65 -3.15 7.05 -1.35 10.1 1.35 10.8 2.15 8.95 2.6 4.95 Z" fill="none" stroke="#191718" stroke-linecap="round" stroke-linejoin="round" stroke-width="1.0"/>
  </g>
</svg>
