<?xml version="1.0" encoding="UTF-8" standalone="no"?>
<svg xmlns:ffdec="https://www.free-decompiler.com/flash" xmlns:xlink="http://www.w3.org/1999/xlink" ffdec:objectType="shape" height="16.15px" width="53.95px" xmlns="http://www.w3.org/2000/svg">
  <g transform="matrix(1.0, 0.0, 0.0, 1.0, 16.95, 2.35)">
    <path d="M19.65 4.2 L19.2 2.4 18.7 0.05 18.45 -1.35 18.45 -1.4 18.45 -1.35 18.7 0.05 19.2 2.4 19.65 4.2 19.65 4.3 Q17.7 4.9 17.2 3.8 L17.2 2.95 17.2 0.05 17.15 -1.5 Q17.8 -1.85 18.35 -1.5 L18.45 -1.4 18.65 -1.5 Q20.65 -2.15 22.05 -1.5 L21.75 0.05 21.55 0.9 21.2 2.25 21.55 0.9 22.75 1.75 23.4 0.05 23.75 -1.35 23.75 -1.5 Q24.25 -1.8 25.45 -1.5 L25.4 -1.35 24.9 0.05 23.8 2.45 23.8 2.5 25.3 3.6 25.35 3.8 Q25.3 4.35 24.05 4.15 L23.25 3.8 22.05 4.4 Q21.35 4.35 21.15 3.8 L22.1 2.85 21.4 2.35 21.2 2.25 21.15 2.35 Q20.5 4.55 20.05 2.85 L19.8 3.8 19.65 4.2 M4.2 -0.2 L9.15 -0.2 9.15 1.8 5.1 1.8 4.2 0.9 4.2 -0.2 M23.25 3.8 L22.1 2.85 23.25 3.8 M23.8 2.5 L22.75 1.75 23.8 2.5" fill="#333333" fill-rule="evenodd" stroke="none"/>
    <path d="M21.75 0.05 L22.05 -1.5 23.75 -1.5 23.75 -1.35 23.4 0.05 21.75 0.05 M18.65 -1.5 L18.45 -1.4 18.35 -1.5 18.65 -1.5 M17.15 -1.5 L17.2 0.05 12.2 0.05 10.25 0.05 12.2 0.05 12.2 2.65 12.2 3.8 10.2 4.7 9.15 4.7 4.95 4.7 4.8 4.7 4.8 3.35 9.15 3.35 10.25 1.55 10.25 0.05 10.25 -1.5 17.15 -1.5 M-1.15 0.0 L0.25 2.6 -1.25 4.6 -1.25 5.35 -0.9 5.6 -1.2 6.75 -1.6 8.7 -2.15 10.9 -2.15 11.4 -4.15 11.9 Q-5.45 11.9 -5.9 10.75 L-6.2 9.35 Q-5.7 6.45 -4.15 3.95 L-3.9 3.55 -3.9 1.7 -1.15 0.0 M25.45 -1.5 L36.5 -1.5 36.5 -0.55 35.2 2.35 32.6 2.35 31.65 0.05 24.9 0.05 25.4 -1.35 25.45 -1.5 M9.15 3.35 L9.15 4.7 9.15 3.35 M-13.5 0.0 L-13.5 1.7 -14.15 5.3 -16.35 5.3 Q-15.7 2.1 -16.45 -1.25 L-13.5 -1.25 -13.5 0.0" fill="#555346" fill-rule="evenodd" stroke="none"/>
    <path d="M21.15 2.35 L21.2 2.25 21.4 2.35 21.15 2.35 M21.55 0.9 L21.75 0.05 23.4 0.05 22.75 1.75 21.55 0.9 M17.2 0.05 L17.2 2.95 14.5 2.75 14.2 2.7 12.2 2.65 12.2 0.05 17.2 0.05 M10.25 -1.5 L10.25 0.05 10.25 1.55 9.15 3.35 4.8 3.35 4.0 2.6 1.2 2.6 0.25 2.6 -1.15 0.0 -1.15 -0.65 0.85 -1.5 10.25 -1.5 M4.2 -0.2 L4.2 0.9 5.1 1.8 9.15 1.8 9.15 -0.2 4.2 -0.2 M32.6 2.35 L32.05 3.1 27.5 3.25 27.25 3.15 Q27.2 2.7 26.55 1.95 L25.65 2.55 25.15 2.6 23.8 2.45 24.9 0.05 31.65 0.05 32.6 2.35 M28.35 0.95 L27.65 2.35 28.35 0.95 M29.6 0.95 L28.85 2.35 29.6 0.95 M30.8 0.95 L30.1 2.35 30.8 0.95 M10.2 4.7 L10.35 6.7 5.65 6.9 5.35 6.7 5.2 6.75 4.95 4.7 9.15 4.7 10.2 4.7 M10.5 8.05 L10.6 9.45 8.9 9.45 7.25 8.15 10.5 8.05 M10.7 10.35 L10.7 10.9 10.05 10.35 10.7 10.35 M10.9 12.65 L10.95 13.3 10.25 13.3 Q10.4 13.15 9.6 12.2 8.8 11.25 8.75 11.75 8.7 12.25 8.35 12.1 8.0 11.9 7.5 12.1 L5.75 12.35 5.6 10.35 7.45 10.35 Q9.05 11.7 10.5 12.45 L10.9 12.65 M5.5 9.45 L5.4 8.45 6.4 9.45 5.5 9.45" fill="#4c4c4c" fill-rule="evenodd" stroke="none"/>
    <path d="M19.8 3.8 L20.05 2.85 Q20.5 4.55 21.15 2.35 L21.4 2.35 22.1 2.85 21.15 3.8 19.8 3.8 M17.2 2.95 L17.2 3.8 12.2 3.8 12.2 2.65 14.2 2.7 14.5 2.75 17.2 2.95 M32.05 3.1 L31.5 3.8 25.35 3.8 25.3 3.6 23.8 2.5 23.8 2.45 25.15 2.6 25.65 2.55 26.55 1.95 Q27.2 2.7 27.25 3.15 L27.5 3.25 32.05 3.1 M10.25 13.3 L5.85 13.3 5.75 12.35 7.5 12.1 Q8.0 11.9 8.35 12.1 8.7 12.25 8.75 11.75 8.8 11.25 9.6 12.2 10.4 13.15 10.25 13.3" fill="#383838" fill-rule="evenodd" stroke="none"/>
    <path d="M10.35 6.7 L10.55 6.7 Q11.1 7.1 10.95 7.85 L10.9 8.0 10.5 8.05 7.25 8.15 5.65 6.9 7.25 8.15 8.9 9.45 10.05 10.35 10.7 10.9 11.4 11.4 Q11.65 12.0 11.1 12.6 L11.0 12.7 10.9 12.65 10.5 12.45 Q9.05 11.7 7.45 10.35 L6.55 9.6 6.4 9.45 5.4 8.45 4.95 8.05 Q4.5 7.7 5.2 6.75 L5.35 6.7 5.65 6.9 10.35 6.7" fill="#424035" fill-rule="evenodd" stroke="none"/>
    <path d="M10.6 9.45 L10.7 10.35 10.05 10.35 8.9 9.45 10.6 9.45 M5.6 10.35 L5.5 9.45 6.4 9.45 6.55 9.6 7.45 10.35 5.6 10.35" fill="#605e4d" fill-rule="evenodd" stroke="none"/>
    <path d="M18.45 -1.4 L18.45 -1.35 18.7 0.05 19.2 2.4 19.65 4.2 19.8 3.8 20.05 2.85 Q20.5 4.55 21.15 2.35 L21.2 2.25 21.55 0.9 21.75 0.05 22.05 -1.5 Q20.65 -2.15 18.65 -1.5 L18.45 -1.4 18.35 -1.5 Q17.8 -1.85 17.15 -1.5 L17.2 0.05 17.2 2.95 17.2 3.8 Q17.7 4.9 19.65 4.3 L19.65 4.2 M4.2 -0.2 L4.2 0.9 5.1 1.8 9.15 1.8 9.15 -0.2 4.2 -0.2 M25.35 3.8 Q25.3 4.35 24.05 4.15 L23.25 3.8 22.05 4.4 Q21.35 4.35 21.15 3.8 L22.1 2.85 21.4 2.35 21.2 2.25 M25.45 -1.5 L25.4 -1.35 24.9 0.05 23.8 2.45 23.8 2.5 25.3 3.6 25.35 3.8 M23.75 -1.5 Q24.25 -1.8 25.45 -1.5 M23.4 0.05 L23.75 -1.35 23.75 -1.5 M22.75 1.75 L21.55 0.9 M23.4 0.05 L22.75 1.75 23.8 2.5 M22.1 2.85 L23.25 3.8 M1.2 2.6 Q0.55 3.85 1.0 4.8" fill="none" stroke="#222222" stroke-linecap="round" stroke-linejoin="round" stroke-width="1.0"/>
    <path d="M17.15 -1.5 L10.25 -1.5 10.25 0.05 12.2 0.05 M-1.15 0.0 L0.25 2.6 -1.25 4.6 -1.25 5.35 -0.9 5.6 -1.2 6.75 -0.95 6.8 M4.8 3.35 L9.15 3.35 10.25 1.55 10.25 0.05 M18.35 -1.5 L18.65 -1.5 M25.45 -1.5 L36.5 -1.5 36.5 -0.55 35.2 2.35 32.6 2.35 M23.75 -1.5 L22.05 -1.5 M12.2 3.8 L10.2 4.7 9.15 4.7 4.95 4.7 4.8 4.7 Q3.5 6.45 -0.7 5.8 L-0.9 5.6 M9.15 4.7 L9.15 3.35 M4.8 4.7 L4.8 3.35 M-13.5 0.0 L-13.5 -1.25 -16.45 -1.25 Q-15.7 2.1 -16.35 5.3 L-14.15 5.3 -13.5 1.7 -13.5 0.0 -1.15 0.0 -3.9 1.7 -3.9 3.55 -4.15 3.95 Q-5.7 6.45 -6.2 9.35 L-5.9 10.75 Q-5.45 11.9 -4.15 11.9 L-2.15 11.4 -2.15 10.9 -1.6 8.7 -1.2 6.75 M-3.9 1.7 L-13.5 1.7" fill="none" stroke="#36362c" stroke-linecap="round" stroke-linejoin="round" stroke-width="1.0"/>
    <path d="M12.2 0.05 L17.2 0.05 M10.25 -1.5 L0.85 -1.5 -1.15 -0.65 -1.15 0.0 M0.25 2.6 L1.2 2.6 4.0 2.6 4.8 3.35 M32.6 2.35 L32.05 3.1 31.5 3.8 25.35 3.8 M21.15 3.8 L19.8 3.8 M24.9 0.05 L31.65 0.05 32.6 2.35 M28.85 2.35 L29.6 0.95 M27.65 2.35 L28.35 0.95 M21.75 0.05 L23.4 0.05 M30.1 2.35 L30.8 0.95 M10.2 4.7 L10.35 6.7 M10.5 8.05 L10.6 9.45 M10.7 10.35 L10.7 10.9 M10.9 12.65 L10.95 13.3 10.25 13.3 5.85 13.3 5.75 12.35 5.6 10.35 M5.5 9.45 L5.4 8.45 M5.2 6.75 L4.95 4.7 M12.2 2.65 L12.2 3.8 17.2 3.8 M12.2 2.65 L12.2 0.05" fill="none" stroke="#272727" stroke-linecap="round" stroke-linejoin="round" stroke-width="1.0"/>
    <path d="M10.35 6.7 L10.55 6.7 Q11.1 7.1 10.95 7.85 L10.9 8.0 10.5 8.05 7.25 8.15 8.9 9.45 10.05 10.35 10.7 10.9 11.4 11.4 Q11.65 12.0 11.1 12.6 L11.0 12.7 10.9 12.65 10.5 12.45 Q9.05 11.7 7.45 10.35 L6.55 9.6 6.4 9.45 5.4 8.45 4.95 8.05 Q4.5 7.7 5.2 6.75 L5.35 6.7 5.65 6.9 10.35 6.7 M5.65 6.9 L7.25 8.15" fill="none" stroke="#2b2822" stroke-linecap="round" stroke-linejoin="round" stroke-width="1.0"/>
    <path d="M10.6 9.45 L10.7 10.35 10.05 10.35 M5.6 10.35 L5.5 9.45 6.4 9.45 M7.45 10.35 L5.6 10.35 M8.9 9.45 L10.6 9.45" fill="none" stroke="#33322b" stroke-linecap="round" stroke-linejoin="round" stroke-width="1.0"/>
  </g>
</svg>
