<?xml version="1.0" encoding="UTF-8" standalone="no"?>
<svg xmlns:xlink="http://www.w3.org/1999/xlink" height="23.55px" width="31.55px" xmlns="http://www.w3.org/2000/svg">
  <g transform="matrix(1.0, 0.0, 0.0, 1.0, -8.85, 13.75)">
    <path d="M40.4 -1.85 Q40.4 -0.3 33.4 0.8 L16.5 1.9 14.85 1.9 14.85 -5.65 16.5 -5.65 33.4 -4.55 Q40.4 -3.45 40.4 -1.85" fill="url(#gradient0)" fill-rule="evenodd" stroke="none"/>
    <path d="M15.55 9.75 L15.1 9.8 Q12.5 9.8 10.65 6.35 8.85 2.85 8.85 -1.95 8.85 -6.85 10.65 -10.3 12.5 -13.75 15.1 -13.75 L15.55 -13.7 15.55 9.75" fill="url(#gradient1)" fill-rule="evenodd" stroke="none"/>
    <path d="M15.55 -13.7 L15.95 -13.75 Q18.55 -13.75 20.4 -10.3 22.25 -6.85 22.25 -1.95 22.25 2.85 20.4 6.35 18.55 9.8 15.95 9.8 L15.55 9.75 15.55 -13.7" fill="url(#gradient2)" fill-rule="evenodd" stroke="none"/>
  </g>
  <defs>
    <radialGradient cx="0" cy="0" gradientTransform="matrix(0.0, 0.0041, -0.0292, 0.0, 16.45, -1.85)" gradientUnits="userSpaceOnUse" id="gradient0" r="819.2" spreadMethod="pad">
      <stop offset="0.17647058823529413" stop-color="#ffffff"/>
      <stop offset="1.0" stop-color="#139ffd" stop-opacity="0.0"/>
    </radialGradient>
    <radialGradient cx="0" cy="0" gradientTransform="matrix(0.0, 0.0128, 0.0076, 0.0, 15.1, -2.0)" gradientUnits="userSpaceOnUse" id="gradient1" r="819.2" spreadMethod="pad">
      <stop offset="0.17647058823529413" stop-color="#ffffff"/>
      <stop offset="1.0" stop-color="#139ffd" stop-opacity="0.0"/>
    </radialGradient>
    <radialGradient cx="0" cy="0" gradientTransform="matrix(0.0, 0.0128, -0.0076, 0.0, 15.95, -2.0)" gradientUnits="userSpaceOnUse" id="gradient2" r="819.2" spreadMethod="pad">
      <stop offset="0.17647058823529413" stop-color="#ffffff"/>
      <stop offset="1.0" stop-color="#139ffd" stop-opacity="0.0"/>
    </radialGradient>
  </defs>
</svg>
