<?xml version="1.0" encoding="UTF-8" standalone="no"?>
<svg xmlns:xlink="http://www.w3.org/1999/xlink" height="16.95px" width="12.1px" xmlns="http://www.w3.org/2000/svg">
  <g transform="matrix(1.0, 0.0, 0.0, 1.0, 0.0, 5.55)">
    <path d="M2.8 0.4 L2.75 0.4 2.8 0.4" fill="#8e2424" fill-rule="evenodd" stroke="none"/>
    <path d="M3.7 -4.4 L3.7 -4.5 Q3.7 -5.4 5.85 -5.4 L6.25 -5.25 6.7 -5.3 7.65 -5.1 Q8.1 -4.8 8.1 -4.15 8.1 -3.55 7.45 -3.55 7.05 -3.55 6.35 -4.05 L6.25 -4.15 5.2 -3.9 Q3.85 -3.9 3.7 -4.4 M3.0 -2.8 Q4.6 -2.7 4.9 -2.2 L4.95 -2.0 Q4.95 -1.4 4.1 -1.4 L2.35 -1.55 2.35 -1.45 Q2.35 -0.65 1.75 -0.65 L1.35 -1.25 0.45 -2.45 Q0.45 -3.4 1.3 -3.4 L1.4 -3.4 1.65 -3.25 Q1.8 -3.8 2.3 -3.8 2.85 -3.8 2.85 -2.8 L3.0 -2.8 M7.85 -1.65 L7.35 -0.9 7.0 -0.55 Q6.55 -0.05 5.15 -0.05 3.45 -0.05 3.45 -0.65 L3.65 -0.85 4.1 -1.3 6.2 -1.5 6.5 -1.75 6.45 -1.8 6.55 -1.8 7.1 -2.3 Q7.95 -2.3 7.85 -1.65 M2.8 0.4 Q3.95 0.45 3.95 2.45 3.95 3.1 3.4 3.15 L3.35 3.15 3.1 2.7 Q3.45 2.55 3.45 2.1 2.65 1.6 2.45 0.85 L2.75 0.4 2.8 0.4 M3.4 3.25 L4.45 3.15 Q6.1 3.15 9.05 4.45 12.1 5.8 12.1 6.75 12.1 8.1 10.5 8.1 10.9 9.95 10.0 10.4 9.85 11.4 8.75 11.4 7.6 11.4 7.5 10.15 7.5 9.55 7.8 9.25 L7.85 7.6 7.1 6.9 8.1 6.9 Q9.1 6.9 9.1 6.3 9.1 6.05 7.85 5.65 L5.85 5.25 Q5.2 5.25 5.2 5.95 5.2 6.3 5.65 6.55 3.55 6.35 3.25 5.9 2.9 6.15 2.5 7.1 2.15 7.8 1.25 7.8 -0.15 7.8 0.0 6.2 0.0 5.45 0.85 4.5 L1.8 3.75 1.9 3.9 Q1.6 4.15 1.6 4.55 1.6 5.15 2.65 5.15 4.85 5.15 4.85 4.3 4.95 3.5 3.7 3.5 L3.45 3.5 3.4 3.25 M1.65 3.35 Q0.95 3.3 0.95 2.65 0.95 2.1 1.35 2.0 L1.6 1.95 Q2.1 1.95 2.2 2.6 2.2 3.35 1.7 3.35 L1.65 3.35 M1.2 1.7 Q0.25 1.65 0.45 0.7 0.45 -0.1 1.1 -0.15 L1.15 -0.15 Q2.05 -0.15 1.85 0.75 1.85 1.7 1.35 1.7 L1.2 1.7 M4.25 10.75 Q3.95 10.75 3.2 8.65 3.2 8.0 3.85 8.0 5.15 8.0 4.85 9.55 4.85 10.75 4.25 10.75" fill="#2f2f2f" fill-rule="evenodd" stroke="none"/>
    <path d="M3.7 -4.4 Q3.85 -3.9 5.2 -3.9 L6.25 -4.15 6.35 -4.05 Q7.05 -3.55 7.45 -3.55 8.1 -3.55 8.1 -4.15 8.1 -4.8 7.65 -5.1 L8.1 -5.55 Q8.8 -5.55 8.85 -4.4 8.85 -3.4 5.95 -3.4 L5.7 -3.4 3.8 -3.15 2.85 -3.15 2.9 -2.95 3.0 -2.8 2.85 -2.8 Q2.85 -3.8 2.3 -3.8 1.8 -3.8 1.65 -3.25 L1.4 -3.4 1.65 -3.85 Q1.75 -4.4 3.7 -4.4 M4.9 -2.2 L5.25 -2.3 5.7 -2.15 7.4 -2.8 Q8.15 -2.8 8.2 -2.15 L7.85 -1.65 Q7.95 -2.3 7.1 -2.3 L6.55 -1.8 6.45 -1.8 6.5 -1.75 6.2 -1.5 4.1 -1.3 3.65 -0.85 2.9 -1.05 2.8 0.35 2.8 0.4 2.75 0.4 2.45 0.85 Q2.65 1.6 3.45 2.1 3.45 2.55 3.1 2.7 L3.35 3.15 3.4 3.15 3.4 3.25 3.45 3.5 3.7 3.5 Q4.95 3.5 4.85 4.3 4.85 5.15 2.65 5.15 1.6 5.15 1.6 4.55 1.6 4.15 1.9 3.9 L1.8 3.75 1.65 3.35 1.7 3.35 Q2.2 3.35 2.2 2.6 2.1 1.95 1.6 1.95 L1.35 2.0 1.2 1.7 1.35 1.7 Q1.85 1.7 1.85 0.75 2.05 -0.15 1.15 -0.15 L1.1 -0.15 1.3 -1.0 1.35 -1.25 1.75 -0.65 Q2.35 -0.65 2.35 -1.45 L2.35 -1.55 4.1 -1.4 Q4.95 -1.4 4.95 -2.0 L4.9 -2.2 M7.1 6.9 L5.65 6.55 Q5.2 6.3 5.2 5.95 5.2 5.25 5.85 5.25 L7.85 5.65 Q9.1 6.05 9.1 6.3 9.1 6.9 8.1 6.9 L7.1 6.9" fill="#6f6f6f" fill-rule="evenodd" stroke="none"/>
  </g>
</svg>
