<?xml version="1.0" encoding="UTF-8" standalone="no"?>
<svg xmlns:xlink="http://www.w3.org/1999/xlink" height="29.15px" width="25.25px" xmlns="http://www.w3.org/2000/svg">
  <g transform="matrix(1.0, 0.0, 0.0, 1.0, 15.45, 31.6)">
    <path d="M-5.2 -31.05 Q-4.25 -28.5 -0.2 -28.6 3.25 -28.35 4.6 -27.3 -4.6 -24.65 -5.2 -31.05" fill="#2c2c2c" fill-rule="evenodd" stroke="none"/>
    <path d="M4.6 -27.3 L5.9 -26.1 5.2 -24.2 7.0 -21.85 8.5 -22.05 9.3 -19.9 9.05 -18.65 7.2 -18.1 6.5 -16.0 7.45 -13.7 6.05 -9.85 4.2 -10.25 0.65 -11.0 -0.9 -13.45 -4.85 -14.6 -5.65 -16.75 -7.4 -16.6 -9.0 -14.55 Q-10.35 -17.7 -10.1 -22.5 -9.9 -26.15 -9.2 -28.75 -7.45 -31.4 -5.2 -31.05 -4.6 -24.65 4.6 -27.3 M4.2 -7.4 L5.65 -7.4 6.85 -6.3 Q6.7 -4.55 5.75 -3.95 5.0 -3.55 4.55 -3.45 L0.9 -3.0 Q-5.0 -2.6 -6.15 -6.3 -1.05 -6.2 4.2 -7.4 M1.55 -13.9 L1.75 -15.15 1.55 -13.9 M4.35 -17.1 L0.7 -17.95 4.35 -17.1 M3.3 -12.65 L3.85 -14.75 3.3 -12.65 M5.35 -18.6 L1.7 -19.4 5.35 -18.6 M-5.55 -19.75 L-5.4 -22.9 -5.55 -19.75 M-7.9 -19.05 L-7.3 -23.0 -7.9 -19.05" fill="#d3b367" fill-rule="evenodd" stroke="none"/>
    <path d="M4.2 -10.25 L4.2 -7.4 Q-1.05 -6.2 -6.15 -6.3 -5.85 -8.2 -6.2 -10.25 -6.45 -11.5 -7.05 -12.2 -7.5 -12.75 -8.2 -13.05 L-9.0 -14.55 -7.4 -16.6 -5.65 -16.75 -4.85 -14.6 -0.9 -13.45 0.65 -11.0 4.2 -10.25 M-0.7 -7.75 L-3.4 -7.75 -0.7 -7.75 M-1.55 -9.15 L-1.7 -10.15 -1.55 -9.15" fill="#7e6a3d" fill-rule="evenodd" stroke="none"/>
    <path d="M-7.05 -12.2 L-7.05 -8.6 Q-10.3 -8.4 -14.0 -10.45 L-14.5 -14.15 -13.45 -16.1 -13.6 -20.55 -14.95 -22.1 Q-14.85 -25.55 -14.0 -27.35 -10.6 -28.85 -9.2 -28.75 -9.9 -26.15 -10.1 -22.5 -10.35 -17.7 -9.0 -14.55 L-8.2 -13.05 Q-7.5 -12.75 -7.05 -12.2 M-9.7 -12.65 L-11.85 -13.65 -11.85 -15.9 -11.85 -13.65 -9.7 -12.65 M-11.85 -22.65 L-11.85 -24.25 -11.85 -22.65" fill="#aa844d" fill-rule="evenodd" stroke="none"/>
    <path d="M5.9 -26.1 L6.45 -25.55 Q7.55 -24.45 8.5 -22.05 L7.0 -21.85 5.2 -24.2 5.9 -26.1 M9.05 -18.65 L8.85 -17.6 7.45 -13.7 6.5 -16.0 7.2 -18.1 9.05 -18.65" fill="#8a774a" fill-rule="evenodd" stroke="none"/>
    <path d="M-5.2 -31.05 Q-4.25 -28.5 -0.2 -28.6 3.25 -28.35 4.6 -27.3" fill="none" stroke="#000000" stroke-linecap="round" stroke-linejoin="round" stroke-width="1.0"/>
    <path d="M3.85 -14.75 L3.3 -12.65 M0.7 -17.95 L4.35 -17.1 M1.75 -15.15 L1.55 -13.9 M1.7 -19.4 L5.35 -18.6 M-7.3 -23.0 L-7.9 -19.05 M-5.4 -22.9 L-5.55 -19.75" fill="none" stroke="#80704d" stroke-linecap="round" stroke-linejoin="round" stroke-width="1.0"/>
    <path d="M4.6 -27.3 L5.9 -26.1 6.45 -25.55 Q7.55 -24.45 8.5 -22.05 L9.3 -19.9 9.05 -18.65 8.85 -17.6 7.45 -13.7 6.05 -9.85 4.2 -10.25 4.2 -7.4 5.65 -7.4 6.85 -6.3 Q6.7 -4.55 5.75 -3.95 5.0 -3.55 4.55 -3.45 L0.9 -3.0 Q-5.0 -2.6 -6.15 -6.3 -5.85 -8.2 -6.2 -10.25 -6.45 -11.5 -7.05 -12.2 L-7.05 -8.6 Q-10.3 -8.4 -14.0 -10.45 L-14.5 -14.15 -13.45 -16.1 -13.6 -20.55 -14.95 -22.1 Q-14.85 -25.55 -14.0 -27.35 -10.6 -28.85 -9.2 -28.75 -7.45 -31.4 -5.2 -31.05 M5.9 -26.1 L5.2 -24.2 7.0 -21.85 8.5 -22.05 M9.05 -18.65 L7.2 -18.1 6.5 -16.0 7.45 -13.7 M4.2 -10.25 L0.65 -11.0 -0.9 -13.45 -4.85 -14.6 -5.65 -16.75 -7.4 -16.6 -9.0 -14.55 -8.2 -13.05 Q-7.5 -12.75 -7.05 -12.2 M-11.85 -24.25 L-11.85 -22.65 M-11.85 -15.9 L-11.85 -13.65 -9.7 -12.65 M-1.7 -10.15 L-1.55 -9.15 M-3.4 -7.75 L-0.7 -7.75 M-9.0 -14.55 Q-10.35 -17.7 -10.1 -22.5 -9.9 -26.15 -9.2 -28.75 M-6.15 -6.3 Q-1.05 -6.2 4.2 -7.4" fill="none" stroke="#504630" stroke-linecap="round" stroke-linejoin="round" stroke-width="1.0"/>
    <path d="M4.6 -27.3 Q-4.6 -24.65 -5.2 -31.05 Z" fill="none" stroke="#605439" stroke-linecap="round" stroke-linejoin="round" stroke-width="1.0"/>
  </g>
</svg>
