<?xml version="1.0" encoding="UTF-8" standalone="no"?>
<svg xmlns:xlink="http://www.w3.org/1999/xlink" height="16.85px" width="49.55px" xmlns="http://www.w3.org/2000/svg">
  <g transform="matrix(1.0, 0.0, 0.0, 1.0, 15.35, 6.0)">
    <path d="M5.3 1.2 L10.0 0.9 Q10.2 -1.3 8.7 -3.35 L10.05 -3.35 11.05 -3.35 Q12.5 -1.9 12.55 1.4 L14.85 4.65 20.85 6.0 12.25 7.6 10.9 3.8 7.35 3.7 4.05 3.3 -0.45 3.3 Q-0.55 -1.8 -3.7 -3.7 L0.75 -3.35 Q2.4 -1.1 2.15 1.4 L5.3 1.2 M-2.25 6.7 Q-1.8 8.35 -0.95 9.9 -2.75 10.95 -7.3 9.55 -6.25 7.2 -9.35 4.0 -5.3 2.8 -2.45 5.5 L-2.25 6.7" fill="#333333" fill-rule="evenodd" stroke="none"/>
    <path d="M4.35 -3.35 Q5.8 -0.7 5.3 1.2 L2.15 1.4 Q2.4 -1.1 0.75 -3.35 L4.35 -3.35" fill="#666666" fill-rule="evenodd" stroke="none"/>
    <path d="M18.0 -5.5 L30.45 -5.5 26.3 -3.3 22.15 -3.3 18.0 -5.5 M-13.1 0.15 L-10.05 -3.7 Q-7.4 0.45 -13.1 0.15" fill="#111111" fill-rule="evenodd" stroke="none"/>
    <path d="M11.05 -3.35 L13.55 -5.5 18.0 -5.5 22.15 -3.3 26.3 -3.3 30.45 -5.5 33.7 -5.5 33.7 2.75 28.95 4.55 27.35 7.4 21.85 7.4 20.85 6.0 14.85 4.65 12.55 1.4 Q12.5 -1.9 11.05 -3.35 M12.25 7.6 L8.2 6.0 7.35 3.7 10.9 3.8 12.25 7.6 M-9.35 4.0 L-14.85 2.7 -14.35 0.15 -13.1 0.15 Q-7.4 0.45 -10.05 -3.7 -7.3 -5.7 -3.7 -3.7 -0.55 -1.8 -0.45 3.3 L-2.45 5.5 Q-5.3 2.8 -9.35 4.0 M25.7 3.9 L24.45 1.9 25.7 3.9 M23.2 4.9 L21.3 2.25 23.2 4.9" fill="#4d4d4d" fill-rule="evenodd" stroke="none"/>
    <path d="M4.35 -3.35 L8.7 -3.35 Q10.2 -1.3 10.0 0.9 L5.3 1.2 Q5.8 -0.7 4.35 -3.35" fill="#a2a2a2" fill-rule="evenodd" stroke="none"/>
    <path d="M8.7 -3.35 L4.35 -3.35 Q5.8 -0.7 5.3 1.2 L10.0 0.9 Q10.2 -1.3 8.7 -3.35 L10.05 -3.35 11.05 -3.35 13.55 -5.5 18.0 -5.5 22.15 -3.3 26.3 -3.3 30.45 -5.5 33.7 -5.5 33.7 2.75 28.95 4.55 27.35 7.4 21.85 7.4 20.85 6.0 12.25 7.6 8.2 6.0 7.35 3.7 4.05 3.3 Q6.0 7.65 -2.25 6.7 -1.8 8.35 -0.95 9.9 -2.75 10.95 -7.3 9.55 -6.25 7.2 -9.35 4.0 L-14.85 2.7 -14.35 0.15 -13.1 0.15 Q-7.4 0.45 -10.05 -3.7 -7.3 -5.7 -3.7 -3.7 L0.75 -3.35 4.35 -3.35 M21.3 2.25 L23.2 4.9 M24.45 1.9 L25.7 3.9 M7.35 3.7 L10.9 3.8 12.25 7.6 M20.85 6.0 L14.85 4.65 12.55 1.4 Q12.5 -1.9 11.05 -3.35 M0.75 -3.35 Q2.4 -1.1 2.15 1.4 L5.3 1.2 M-0.45 3.3 L-2.45 5.5 -2.25 6.7 M-2.45 5.5 Q-5.3 2.8 -9.35 4.0 M-3.7 -3.7 Q-0.55 -1.8 -0.45 3.3 L4.05 3.3" fill="none" stroke="#2b2b2b" stroke-linecap="round" stroke-linejoin="round" stroke-width="1.0"/>
  </g>
</svg>
