<?xml version="1.0" encoding="UTF-8" standalone="no"?>
<svg xmlns:xlink="http://www.w3.org/1999/xlink" height="29.45px" width="21.95px" xmlns="http://www.w3.org/2000/svg">
  <g transform="matrix(1.0, 0.0, 0.0, 1.0, 10.55, 8.9)">
    <path d="M-6.85 4.05 Q2.4 7.55 4.2 11.25 L2.9 12.15 0.35 14.15 Q-3.2 11.15 -5.05 8.15 -4.7 6.8 -5.75 6.15 L-5.85 6.05 Q-6.0 4.65 -6.85 4.05" fill="#80120f" fill-rule="evenodd" stroke="none"/>
    <path d="M-6.85 4.05 Q-8.65 3.35 -10.05 2.15 -8.5 -3.25 -4.7 -8.4 -4.05 -8.55 -0.95 -7.45 2.15 -6.4 4.85 -4.45 7.5 -2.6 9.9 2.25 12.3 7.05 8.95 9.2 L6.35 10.25 4.2 11.25 Q2.4 7.55 -6.85 4.05 M5.85 9.35 Q3.2 4.9 -0.7 2.7 L-3.25 -1.5 Q-3.6 -2.75 -3.35 -3.95 -3.6 -2.75 -3.25 -1.5 L-0.7 2.7 Q3.2 4.9 5.85 9.35 M-7.55 -0.4 Q-7.35 1.6 -5.3 2.8 -3.95 3.35 -3.9 2.1 -4.05 -0.15 -5.25 -1.35 -6.9 -2.2 -7.55 -0.4" fill="#b6100f" fill-rule="evenodd" stroke="none"/>
    <path d="M-7.55 -0.4 Q-6.9 -2.2 -5.25 -1.35 -4.05 -0.15 -3.9 2.1 -3.95 3.35 -5.3 2.8 -7.35 1.6 -7.55 -0.4" fill="#6077c0" fill-rule="evenodd" stroke="none"/>
    <path d="M8.95 9.2 Q12.3 7.05 9.9 2.25 7.5 -2.6 4.85 -4.45 2.15 -6.4 -0.95 -7.45 -4.05 -8.55 -4.7 -8.4 -8.5 -3.25 -10.05 2.15 -8.65 3.35 -6.85 4.05 -6.0 4.65 -5.85 6.05 L-5.75 6.15 Q-4.7 6.8 -5.05 8.15 -3.2 11.15 0.35 14.15" fill="none" stroke="#310206" stroke-linecap="round" stroke-linejoin="round" stroke-width="1.0"/>
    <path d="M-7.55 -0.4 Q-7.35 1.6 -5.3 2.8 -3.95 3.35 -3.9 2.1 -4.05 -0.15 -5.25 -1.35 -6.9 -2.2 -7.55 -0.4" fill="none" stroke="#072a48" stroke-linecap="round" stroke-linejoin="round" stroke-width="1.0"/>
    <path d="M-3.35 -3.95 Q-3.6 -2.75 -3.25 -1.5 L-0.7 2.7 Q3.2 4.9 5.85 9.35" fill="none" stroke="#7d1310" stroke-linecap="round" stroke-linejoin="round" stroke-width="1.0"/>
    <path d="M8.65 8.9 Q9.75 13.3 9.2 16.0 7.8 20.75 4.2 19.95 2.8 19.7 1.2 18.65 -0.65 16.85 -0.7 15.45 -0.75 14.8 -0.35 14.2 L2.6 11.85 Q3.2 11.4 3.95 11.05 L6.05 9.95 Q7.25 9.4 8.65 8.9 M5.1 13.85 L2.65 15.7 5.1 13.85 M6.45 15.2 L3.35 17.4 6.45 15.2" fill="#710a11" fill-rule="evenodd" stroke="none"/>
    <path d="M8.65 8.9 Q7.25 9.4 6.05 9.95 L3.95 11.05 Q3.2 11.4 2.6 11.85 L-0.35 14.2 Q-0.75 14.8 -0.7 15.45 -0.65 16.85 1.2 18.65 2.8 19.7 4.2 19.95 7.8 20.75 9.2 16.0 9.75 13.3 8.65 8.9 M3.35 17.4 L6.45 15.2 M2.65 15.7 L5.1 13.85" fill="none" stroke="#310206" stroke-linecap="round" stroke-linejoin="round" stroke-width="1.0"/>
  </g>
</svg>
