<?xml version="1.0" encoding="UTF-8" standalone="no"?>
<svg xmlns:xlink="http://www.w3.org/1999/xlink" height="19.55px" width="96.6px" xmlns="http://www.w3.org/2000/svg">
  <g transform="matrix(1.0, 0.0, 0.0, 1.0, 14.7, 9.75)">
    <path d="M2.1 -6.0 L-0.45 -6.0 -0.7 -6.35 -0.8 -7.0 Q-0.8 -8.05 -0.45 -8.0 L2.1 -8.0 1.65 -7.45 2.1 -6.0" fill="#990000" fill-rule="evenodd" stroke="none"/>
    <path d="M22.4 -5.5 L30.55 -4.8 Q37.3 -4.0 39.2 -0.65 L19.1 -0.65 17.75 1.2 29.05 1.25 Q31.0 2.3 32.9 1.25 L34.25 1.3 Q35.3 1.9 36.75 1.3 L39.25 1.3 36.4 4.6 27.45 6.3 25.15 4.65 22.9 4.7 20.7 4.75 20.65 4.75 16.8 4.7 14.55 1.95 14.75 1.75 Q15.25 1.25 15.3 0.5 L15.3 0.4 Q15.3 -0.4 14.75 -0.95 L14.4 -1.2 13.4 -1.5 Q12.6 -1.5 12.05 -0.95 11.55 -0.5 11.5 0.15 L6.85 -1.05 1.65 -1.05 -1.75 0.2 -2.15 0.1 -5.95 0.1 -6.65 1.3 -7.85 3.25 -9.15 4.85 -11.0 5.25 -11.15 5.1 -10.9 1.55 -12.45 -2.2 -12.25 -2.55 -10.35 -3.05 -7.9 -4.65 -6.1 -4.65 -5.3 -2.65 -1.05 -2.65 -0.05 -4.7 1.65 -4.7 2.1 -6.0 1.65 -7.45 2.1 -8.0 2.5 -8.5 8.25 -8.5 9.7 -6.6 9.95 -2.5 Q11.85 -3.9 13.8 -3.8 L15.95 -3.75 19.05 -3.75 22.4 -5.5 M1.65 -4.7 L1.65 -1.05 1.65 -4.7 M5.9 -4.5 L6.8 -6.35 5.9 -4.5 M3.95 -4.5 L4.85 -6.35 3.95 -4.5 M14.4 -1.2 L15.95 -3.75 14.4 -1.2 M21.45 -2.4 L20.05 -2.4 21.45 -2.4 M23.4 -2.4 L24.8 -2.4 23.4 -2.4 M26.9 -2.45 L28.3 -2.4 26.9 -2.45 M27.45 3.65 L27.45 6.3 27.45 3.65 M25.15 4.65 L25.15 3.65 25.15 4.65 M22.9 3.7 L22.9 4.7 22.9 3.7 M20.7 3.75 L20.65 4.75 20.7 3.75 M36.75 1.3 L36.2 2.1 Q35.3 2.75 34.45 2.1 L34.25 1.3 34.45 2.1 Q35.3 2.75 36.2 2.1 L36.75 1.3 M32.9 1.25 L32.4 2.25 Q31.0 3.25 29.6 2.25 L29.05 1.25 29.6 2.25 Q31.0 3.25 32.4 2.25 L32.9 1.25 M-6.65 1.3 L-9.65 -0.9 -10.35 -3.05 -9.65 -0.9 -6.65 1.3" fill="#cccccc" fill-rule="evenodd" stroke="none"/>
    <path d="M16.8 4.7 L16.6 4.7 14.4 8.1 11.15 8.1 13.25 4.6 10.85 4.6 8.25 6.1 5.45 8.0 Q2.55 10.05 0.55 8.85 -1.45 7.65 -3.8 7.3 L-7.4 7.05 Q-8.65 7.2 -9.55 6.4 L-10.85 5.45 -11.0 5.25 -9.15 4.85 -7.85 3.25 -5.8 5.15 -4.9 4.1 -3.15 5.25 -2.55 4.55 -1.85 3.95 Q-0.8 3.05 -0.15 1.4 L-1.5 0.6 -1.75 0.2 1.65 -1.05 6.85 -1.05 11.5 0.15 11.5 0.4 Q11.5 1.2 12.05 1.75 12.6 2.3 13.4 2.3 L13.95 2.25 14.55 1.95 16.8 4.7 M-11.15 5.1 L-13.45 5.1 Q-14.65 0.25 -13.9 -2.2 L-12.45 -2.2 -10.9 1.55 -11.15 5.1 M-6.1 -4.65 Q-3.2 -6.1 -0.05 -4.7 L-1.05 -2.65 -5.3 -2.65 -6.1 -4.65 M6.45 4.25 L8.25 6.1 6.45 4.25 8.7 2.1 6.35 0.4 5.7 0.15 4.95 0.1 3.9 0.15 Q3.05 0.15 2.3 1.2 L0.4 4.1 -0.2 4.85 -0.45 5.7 Q0.55 7.3 2.6 6.65 4.2 6.1 6.45 4.25" fill="#4a4a4a" fill-rule="evenodd" stroke="none"/>
    <path d="M-1.5 0.6 L-0.15 1.4 Q-0.8 3.05 -1.85 3.95 L-2.55 4.55 -3.15 5.25 -4.9 4.1 -4.8 4.0 -3.5 3.05 -2.25 1.9 Q-1.75 1.35 -1.5 0.6" fill="#3e3e3e" fill-rule="evenodd" stroke="none"/>
    <path d="M11.5 0.15 Q11.55 -0.5 12.05 -0.95 12.6 -1.5 13.4 -1.5 L14.4 -1.2 14.75 -0.95 Q15.3 -0.4 15.3 0.4 L15.3 0.5 Q15.25 1.25 14.75 1.75 L14.55 1.95 13.95 2.25 13.4 2.3 Q12.6 2.3 12.05 1.75 11.5 1.2 11.5 0.4 L11.5 0.15" fill="#c0090c" fill-rule="evenodd" stroke="none"/>
    <path d="M8.25 -8.5 L9.25 -9.25 11.95 -9.25 Q12.5 -8.9 13.1 -8.7 14.1 -6.8 14.1 -6.15 L17.2 -6.15 Q17.4 -6.85 16.3 -8.6 L17.15 -9.0 20.85 -8.25 22.4 -5.5 19.05 -3.75 15.95 -3.75 13.8 -3.8 Q11.85 -3.9 9.95 -2.5 L9.7 -6.6 8.25 -8.5" fill="#8c8c8c" fill-rule="evenodd" stroke="none"/>
    <path d="M13.1 -8.7 L14.95 -8.4 16.3 -8.6 Q17.4 -6.85 17.2 -6.15 L14.1 -6.15 Q14.1 -6.8 13.1 -8.7" fill="#727272" fill-rule="evenodd" stroke="none"/>
    <path d="M2.1 -6.0 L-0.45 -6.0 -0.7 -6.35 -0.8 -7.0 Q-0.8 -8.05 -0.45 -8.0 L2.1 -8.0" fill="none" stroke="#4d0000" stroke-linecap="round" stroke-linejoin="round" stroke-width="1.0"/>
    <path d="M-6.65 1.3 L-5.95 0.1 -2.15 0.1 -1.75 0.2 M-6.65 1.3 L-7.85 3.25" fill="none" stroke="#333333" stroke-linecap="round" stroke-linejoin="round" stroke-width="1.0"/>
    <path d="M1.65 -1.05 L1.65 -4.7 M15.95 -3.75 L14.4 -1.2 M-10.35 -3.05 L-9.65 -0.9 -6.65 1.3" fill="none" stroke="#333333" stroke-linecap="round" stroke-linejoin="round" stroke-opacity="0.2509804" stroke-width="1.0"/>
    <path d="M22.4 -5.5 L30.55 -4.8 Q37.3 -4.0 39.2 -0.65 L19.1 -0.65 17.75 1.2 29.05 1.25 Q31.0 2.3 32.9 1.25 L34.25 1.3 Q35.3 1.9 36.75 1.3 L39.25 1.3 36.4 4.6 27.45 6.3 25.15 4.65 22.9 4.7 20.7 4.75 M20.65 4.75 L16.8 4.7 M-11.0 5.25 L-11.15 5.1 M-12.45 -2.2 L-12.25 -2.55 -10.35 -3.05 -7.9 -4.65 -6.1 -4.65 Q-3.2 -6.1 -0.05 -4.7 L1.65 -4.7 2.1 -6.0 1.65 -7.45 2.1 -8.0 2.5 -8.5 8.25 -8.5 M29.05 1.25 L29.6 2.25 Q31.0 3.25 32.4 2.25 L32.9 1.25 M34.25 1.3 L34.45 2.1 Q35.3 2.75 36.2 2.1 L36.75 1.3 M20.65 4.75 L20.7 3.75 M22.9 4.7 L22.9 3.7 M25.15 3.65 L25.15 4.65 M27.45 6.3 L27.45 3.65 M-0.05 -4.7 L-1.05 -2.65 -5.3 -2.65 -6.1 -4.65" fill="none" stroke="#343434" stroke-linecap="round" stroke-linejoin="round" stroke-width="1.0"/>
    <path d="M16.8 4.7 L16.6 4.7 14.4 8.1 11.15 8.1 13.25 4.6 10.85 4.6 8.25 6.1 5.45 8.0 Q2.55 10.05 0.55 8.85 -1.45 7.65 -3.8 7.3 L-7.4 7.05 Q-8.65 7.2 -9.55 6.4 L-10.85 5.45 -11.0 5.25 -9.15 4.85 -7.85 3.25 -5.8 5.15 -4.9 4.1 -4.8 4.0 -3.5 3.05 -2.25 1.9 Q-1.75 1.35 -1.5 0.6 L-0.15 1.4 Q-0.8 3.05 -1.85 3.95 L-2.55 4.55 -3.15 5.25 -4.9 4.1 M-11.15 5.1 L-13.45 5.1 Q-14.65 0.25 -13.9 -2.2 L-12.45 -2.2 -10.9 1.55 -11.15 5.1 M4.85 -6.35 L3.95 -4.5 M6.8 -6.35 L5.9 -4.5 M11.5 0.15 L6.85 -1.05 1.65 -1.05 -1.75 0.2 -1.5 0.6 M14.55 1.95 L16.8 4.7 M28.3 -2.4 L26.9 -2.45 M24.8 -2.4 L23.4 -2.4 M20.05 -2.4 L21.45 -2.4 M8.25 6.1 L6.45 4.25 Q4.2 6.1 2.6 6.65 0.55 7.3 -0.45 5.7 L-0.2 4.85 0.4 4.1 2.3 1.2 Q3.05 0.15 3.9 0.15 L4.95 0.1 5.7 0.15 6.35 0.4 8.7 2.1 6.45 4.25" fill="none" stroke="#2d2d2d" stroke-linecap="round" stroke-linejoin="round" stroke-width="1.0"/>
    <path d="M14.55 1.95 L14.75 1.75 Q15.25 1.25 15.3 0.5 L15.3 0.4 Q15.3 -0.4 14.75 -0.95 L14.4 -1.2 13.4 -1.5 Q12.6 -1.5 12.05 -0.95 11.55 -0.5 11.5 0.15 L11.5 0.4 Q11.5 1.2 12.05 1.75 12.6 2.3 13.4 2.3 L13.95 2.25 14.55 1.95" fill="none" stroke="#750303" stroke-linecap="round" stroke-linejoin="round" stroke-width="1.0"/>
    <path d="M8.25 -8.5 L9.25 -9.25 11.95 -9.25 Q12.5 -8.9 13.1 -8.7 M16.3 -8.6 L17.15 -9.0 20.85 -8.25 22.4 -5.5 19.05 -3.75 15.95 -3.75 13.8 -3.8 Q11.85 -3.9 9.95 -2.5 L9.7 -6.6 8.25 -8.5" fill="none" stroke="#545454" stroke-linecap="round" stroke-linejoin="round" stroke-width="1.0"/>
    <path d="M13.1 -8.7 L14.95 -8.4 16.3 -8.6" fill="none" stroke="#2e2e2e" stroke-linecap="round" stroke-linejoin="round" stroke-width="1.0"/>
    <path d="M13.1 -8.7 Q14.1 -6.8 14.1 -6.15 L17.2 -6.15 Q17.4 -6.85 16.3 -8.6" fill="none" stroke="#2e2e2e" stroke-linecap="round" stroke-linejoin="round" stroke-opacity="0.2509804" stroke-width="1.0"/>
    <path d="M22.4 -6.95 L81.4 -6.95" fill="none" stroke="url(#gradient0)" stroke-linecap="round" stroke-linejoin="round" stroke-width="1.0"/>
  </g>
  <defs>
    <linearGradient gradientTransform="matrix(0.0556, 0.0, 0.0, 0.0095, 36.9, -14.25)" gradientUnits="userSpaceOnUse" id="gradient0" spreadMethod="pad" x1="-819.2" x2="819.2">
      <stop offset="0.0" stop-color="#ff0000" stop-opacity="0.49803922"/>
      <stop offset="1.0" stop-color="#ff0000" stop-opacity="0.09803922"/>
    </linearGradient>
  </defs>
</svg>
