<?xml version="1.0" encoding="UTF-8" standalone="no"?>
<svg xmlns:xlink="http://www.w3.org/1999/xlink" height="100.0px" width="100.0px" xmlns="http://www.w3.org/2000/svg">
  <g transform="matrix(1.0, 0.0, 0.0, 1.0, 0.0, 0.0)">
    <path d="M100.0 0.0 L100.0 37.75 94.15 42.15 96.15 60.65 90.65 70.65 93.4 83.7 100.0 88.5 100.0 100.0 0.0 100.0 0.0 80.75 6.15 76.45 8.4 63.15 21.4 50.9 32.9 53.9 37.9 41.9 31.9 49.15 13.4 43.9 0.0 50.3 0.0 0.0 56.9 0.0 63.9 9.65 59.15 26.65 64.1 35.95 68.15 43.65 66.95 33.05 66.15 26.15 75.4 12.15 73.15 5.9 84.9 4.9 90.4 0.0 100.0 0.0 66.95 33.05 100.0 0.0 M50.0 50.0 L0.0 0.0 50.0 50.0 64.1 35.95 50.0 50.0 100.0 100.0 50.0 50.0 0.0 100.0 50.0 50.0" fill="#db0202" fill-opacity="0.3019608" fill-rule="evenodd" stroke="none"/>
    <path d="M100.0 0.0 L100.0 37.75 94.15 42.15 96.15 60.65 90.65 70.65 93.4 83.7 100.0 88.5 100.0 100.0 0.0 100.0 0.0 80.75 6.15 76.45 8.4 63.15 21.4 50.9 32.9 53.9 37.9 41.9 31.9 49.15 13.4 43.9 0.0 50.3 0.0 0.0 56.9 0.0 63.9 9.65 59.15 26.65 64.1 35.95 68.15 43.65 66.95 33.05 66.15 26.15 75.4 12.15 73.15 5.9 84.9 4.9 90.4 0.0 100.0 0.0 66.95 33.05 M0.0 0.0 L50.0 50.0 64.1 35.95 M100.0 100.0 L50.0 50.0 0.0 100.0" fill="none" stroke="#e60000" stroke-linecap="round" stroke-linejoin="miter-clip" stroke-miterlimit="3.0" stroke-width="0.05"/>
  </g>
</svg>
