<?xml version="1.0" encoding="UTF-8" standalone="no"?>
<svg xmlns:xlink="http://www.w3.org/1999/xlink" height="22.6px" width="16.3px" xmlns="http://www.w3.org/2000/svg">
  <g transform="matrix(1.0, 0.0, 0.0, 1.0, 9.05, 5.15)">
    <path d="M-6.05 5.4 L1.05 8.75 Q0.95 11.1 0.3 12.65 -0.35 14.2 -1.25 14.65 -3.1 13.5 -4.6 13.05 L-7.8 12.6 Q-6.8 10.35 -7.7 9.65 -8.65 8.9 -6.05 5.4 M-4.95 8.85 L-5.85 11.05 -2.65 12.15 -1.3 10.15 -4.95 8.85" fill="#4b3c37" fill-rule="evenodd" stroke="none"/>
    <path d="M-1.25 14.65 L-2.3 16.05 Q-3.7 17.0 -4.7 16.95 -5.65 16.9 -6.7 15.85 -7.45 15.1 -7.8 12.6 L-4.6 13.05 Q-3.1 13.5 -1.25 14.65" fill="#362b27" fill-rule="evenodd" stroke="none"/>
    <path d="M-6.05 5.4 L-8.55 4.3 Q-7.95 0.1 -5.05 -2.4 -2.2 -4.9 0.7 -4.6 3.55 -4.35 5.55 -1.8 7.55 0.75 6.15 4.55 4.75 8.3 2.8 9.6 L1.05 8.75 -6.05 5.4 M-2.6 4.35 L-0.35 5.35 1.3 2.6 -0.35 5.35 -2.6 4.35 M-2.3 1.05 L-0.6 2.0 -1.4 3.2 -0.6 2.0 -2.3 1.05 M2.9 0.95 L0.75 1.45 -1.5 0.1 0.75 1.45 2.9 0.95" fill="url(#gradient0)" fill-rule="evenodd" stroke="none"/>
    <path d="M-4.95 8.85 L-1.3 10.15 -2.65 12.15 -5.85 11.05 -4.95 8.85" fill="#ff3333" fill-rule="evenodd" stroke="none"/>
    <path d="M1.05 8.75 L2.8 9.6 Q4.75 8.3 6.15 4.55 7.55 0.75 5.55 -1.8 3.55 -4.35 0.7 -4.6 -2.2 -4.9 -5.05 -2.4 -7.95 0.1 -8.55 4.3 L-6.05 5.4 1.05 8.75 Q0.95 11.1 0.3 12.65 -0.35 14.2 -1.25 14.65 L-2.3 16.05 Q-3.7 17.0 -4.7 16.95 -5.65 16.9 -6.7 15.85 -7.45 15.1 -7.8 12.6 -6.8 10.35 -7.7 9.65 -8.65 8.9 -6.05 5.4 M-1.5 0.1 L0.75 1.45 2.9 0.95 M-1.4 3.2 L-0.6 2.0 -2.3 1.05 M1.3 2.6 L-0.35 5.35 -2.6 4.35 M-4.95 8.85 L-5.85 11.05 -2.65 12.15 -1.3 10.15 -4.95 8.85 M-7.8 12.6 L-4.6 13.05 Q-3.1 13.5 -1.25 14.65" fill="none" stroke="#232018" stroke-linecap="round" stroke-linejoin="round" stroke-width="1.0"/>
  </g>
  <defs>
    <radialGradient cx="0" cy="0" gradientTransform="matrix(0.0104, 0.0, 0.0, 0.0104, -0.9, 2.45)" gradientUnits="userSpaceOnUse" id="gradient0" r="819.2" spreadMethod="pad">
      <stop offset="0.0" stop-color="#796b51"/>
      <stop offset="0.5529411764705883" stop-color="#6a5d48"/>
      <stop offset="0.8980392156862745" stop-color="#463c30"/>
    </radialGradient>
  </defs>
</svg>
