<?xml version="1.0" encoding="UTF-8" standalone="no"?>
<svg xmlns:xlink="http://www.w3.org/1999/xlink" height="15.3px" width="52.8px" xmlns="http://www.w3.org/2000/svg">
  <g transform="matrix(1.0, 0.0, 0.0, 1.0, 15.95, 6.1)">
    <path d="M-8.15 2.55 L-15.45 0.6 -13.7 -3.1 -9.3 -3.05 -9.05 -2.95 -5.3 -1.0 -5.05 -5.3 -4.85 -5.6 -0.95 -5.6 -0.5 -4.1 1.35 2.15 1.4 2.35 -0.95 4.45 -1.15 4.4 -8.15 2.55" fill="#8c8c8c" fill-rule="evenodd" stroke="none"/>
    <path d="M12.75 -0.4 L11.4 -3.75 14.35 -5.45 21.25 -5.25 24.1 -3.2 28.95 -3.2 31.7 -5.0 36.35 -4.9 36.35 1.4 Q33.7 3.05 31.0 4.65 L30.85 5.65 23.65 6.9 19.2 0.85 13.35 1.1 12.75 -0.4 M27.85 3.65 L26.45 1.6 27.85 3.65 M23.2 1.85 L25.2 4.7 23.2 1.85" fill="#999999" fill-rule="evenodd" stroke="none"/>
    <path d="M21.25 -5.25 L31.7 -5.0 28.95 -3.2 24.1 -3.2 21.25 -5.25" fill="#bbbbbb" fill-rule="evenodd" stroke="none"/>
    <path d="M2.65 -4.0 L5.3 -3.9 6.3 -0.2 12.75 -0.4 13.35 1.1 19.2 0.85 23.65 6.9 15.95 6.7 13.75 2.1 13.35 1.1 13.75 2.1 8.5 2.15 5.9 2.15 1.35 2.15 -0.5 -4.1 2.65 -4.0 3.55 -0.75 2.65 -4.0" fill="#777777" fill-rule="evenodd" stroke="none"/>
    <path d="M15.95 6.7 L10.6 6.6 8.5 2.15 13.75 2.1 15.95 6.7 M1.7 8.7 L-4.85 8.7 -8.15 2.55 -1.15 4.4 1.7 8.7" fill="#333333" fill-rule="evenodd" stroke="none"/>
    <path d="M-9.05 -2.95 L-5.05 -5.3 -5.3 -1.0 -9.05 -2.95" fill="#666666" fill-rule="evenodd" stroke="none"/>
    <path d="M12.75 -0.4 L6.3 -0.2 5.3 -3.9 11.4 -3.75 12.75 -0.4" fill="#3cff76" fill-rule="evenodd" stroke="none"/>
    <path d="M5.3 -3.9 L2.65 -4.0 3.55 -0.75 M5.3 -3.9 L6.3 -0.2 12.75 -0.4 11.4 -3.75 5.3 -3.9 M21.25 -5.25 L14.35 -5.45 11.4 -3.75 M31.7 -5.0 L21.25 -5.25 24.1 -3.2 28.95 -3.2 31.7 -5.0 36.35 -4.9 36.35 1.4 Q33.7 3.05 31.0 4.65 L30.85 5.65 23.65 6.9 15.95 6.7 13.75 2.1 8.5 2.15 5.9 2.15 Q5.25 8.0 1.7 8.7 M-8.15 2.55 L-15.45 0.6 -13.7 -3.1 -9.3 -3.05 -9.05 -2.95 -5.05 -5.3 -4.85 -5.6 -0.95 -5.6 -0.5 -4.1 2.65 -4.0 M25.2 4.7 L23.2 1.85 M26.45 1.6 L27.85 3.65 M13.35 1.1 L13.75 2.1 M23.65 6.9 L19.2 0.85 13.35 1.1 12.75 -0.4 M5.9 2.15 L1.35 2.15 1.4 2.35 -0.95 4.45 -1.15 4.4 -8.15 2.55 M-5.05 -5.3 L-5.3 -1.0 -9.05 -2.95 M-0.5 -4.1 L1.35 2.15" fill="none" stroke="#555555" stroke-linecap="round" stroke-linejoin="round" stroke-width="1.0"/>
    <path d="M15.95 6.7 L10.6 6.6 8.5 2.15 M1.7 8.7 L-4.85 8.7 -8.15 2.55 M-1.15 4.4 L1.7 8.7" fill="none" stroke="#000000" stroke-linecap="round" stroke-linejoin="round" stroke-width="1.0"/>
  </g>
</svg>
