<?xml version="1.0" encoding="UTF-8" standalone="no"?>
<svg xmlns:xlink="http://www.w3.org/1999/xlink" height="18.5px" width="19.8px" xmlns="http://www.w3.org/2000/svg">
  <g transform="matrix(1.0, 0.0, 0.0, 1.0, 9.85, 16.45)">
    <path d="M1.55 0.3 Q-0.85 1.85 -3.25 -0.6 L1.55 0.3" fill="#7e6a3d" fill-rule="evenodd" stroke="none"/>
    <path d="M5.0 -13.45 L6.85 -13.3 5.0 -13.45 M8.15 -3.65 L9.45 -2.55 8.8 1.1 Q5.0 2.3 1.55 0.3 L-3.25 -0.6 -5.4 -1.6 -5.95 -2.7 -9.35 -4.4 -8.65 -13.3 -5.1 -14.2 -4.1 -15.75 Q-0.8 -16.1 5.65 -15.75 L6.85 -13.3 8.0 -10.95 6.95 -10.85 -1.7 -11.7 Q-3.7 -9.1 -3.1 -5.3 2.85 -2.7 8.15 -3.65 M5.05 0.25 L7.5 0.15 5.05 0.25 M6.45 -0.95 L7.5 -0.95 6.45 -0.95 M-6.15 -4.8 L-5.55 -11.3 -7.6 -11.5 -5.55 -11.3 -6.15 -4.8" fill="#ffffff" fill-rule="evenodd" stroke="none"/>
    <path d="M6.95 -10.85 Q8.15 -6.6 8.15 -3.65 2.85 -2.7 -3.1 -5.3 -3.7 -9.1 -1.7 -11.7 L6.95 -10.85" fill="url(#gradient0)" fill-rule="evenodd" stroke="none"/>
    <path d="M1.55 0.3 Q-0.85 1.85 -3.25 -0.6 M6.95 -10.85 Q8.15 -6.6 8.15 -3.65" fill="none" stroke="#000000" stroke-linecap="round" stroke-linejoin="round" stroke-width="1.0"/>
    <path d="M-7.6 -11.5 L-5.55 -11.3 -6.15 -4.8" fill="none" stroke="#999999" stroke-linecap="round" stroke-linejoin="round" stroke-width="1.0"/>
    <path d="M6.85 -13.3 L5.0 -13.45" fill="none" stroke="#333333" stroke-linecap="round" stroke-linejoin="round" stroke-width="1.0"/>
    <path d="M7.5 -0.95 L6.45 -0.95 M7.5 0.15 L5.05 0.25" fill="none" stroke="#666666" stroke-linecap="round" stroke-linejoin="round" stroke-width="1.0"/>
    <path d="M8.15 -3.65 L9.45 -2.55 8.8 1.1 Q5.0 2.3 1.55 0.3 L-3.25 -0.6 -5.4 -1.6 -5.95 -2.7 -9.35 -4.4 -8.65 -13.3 -5.1 -14.2 -4.1 -15.75 Q-0.8 -16.1 5.65 -15.75 L6.85 -13.3 8.0 -10.95 6.95 -10.85" fill="none" stroke="#444444" stroke-linecap="round" stroke-linejoin="round" stroke-width="1.0"/>
    <path d="M8.15 -3.65 Q2.85 -2.7 -3.1 -5.3 -3.7 -9.1 -1.7 -11.7 L6.95 -10.85" fill="none" stroke="#660000" stroke-linecap="round" stroke-linejoin="round" stroke-width="1.0"/>
  </g>
  <defs>
    <radialGradient cx="0" cy="0" gradientTransform="matrix(0.0129, 0.0, 0.0, 0.0172, -2.4, -4.9)" gradientUnits="userSpaceOnUse" id="gradient0" r="819.2" spreadMethod="pad">
      <stop offset="0.3686274509803922" stop-color="#8e0202"/>
      <stop offset="0.8549019607843137" stop-color="#fc2525"/>
      <stop offset="1.0" stop-color="#ffffff"/>
    </radialGradient>
  </defs>
</svg>
