<?xml version="1.0" encoding="UTF-8" standalone="no"?>
<svg xmlns:xlink="http://www.w3.org/1999/xlink" height="19.75px" width="113.65px" xmlns="http://www.w3.org/2000/svg">
  <g transform="matrix(1.0, 0.0, 0.0, 1.0, 20.75, 6.6)">
    <path d="M33.0 1.55 L33.4 2.75 30.8 2.75 27.75 2.8 24.4 2.8 21.15 2.8 17.6 2.8 14.75 2.8 15.05 1.95 15.75 -0.4 32.4 -0.2 33.0 1.55 M13.15 8.6 L13.65 11.1 8.75 12.65 8.25 10.0 13.15 8.6 M18.0 1.35 L17.6 2.8 18.0 1.35 M28.15 1.3 L27.75 2.8 28.15 1.3 M24.8 1.35 L24.4 2.8 24.8 1.35 M21.55 1.35 L21.15 2.8 21.55 1.35 M31.2 1.25 L30.8 2.75 31.2 1.25" fill="#46494e" fill-rule="evenodd" stroke="none"/>
    <path d="M-1.15 -4.25 L-2.15 -1.7 -12.4 -1.65 -12.6 -2.2 -12.75 -2.7 Q-7.35 -3.15 -3.0 -4.2 L-1.15 -4.25 M0.4 0.1 L14.0 0.35 15.25 -2.8 19.3 -2.65 20.3 -5.15 29.65 -3.65 Q32.1 -3.0 33.65 -1.3 L34.15 0.05 34.6 1.4 33.0 1.55 32.4 -0.2 15.75 -0.4 15.05 1.95 13.45 1.75 12.75 1.65 12.1 3.35 7.2 4.25 5.95 4.35 5.65 2.3 3.6 2.3 2.7 2.3 2.05 4.25 -0.5 9.25 -3.5 7.0 -0.95 3.05 Q-0.1 1.85 0.4 0.1 M22.8 -2.6 L21.5 -2.6 22.8 -2.6 M26.0 -2.55 L24.45 -2.55 26.0 -2.55 M29.05 -2.55 L27.5 -2.55 29.05 -2.55 M14.0 0.35 L13.45 1.75 14.0 0.35" fill="#6c6b71" fill-rule="evenodd" stroke="none"/>
    <path d="M-2.15 -1.7 Q-0.05 -1.95 0.4 0.1 -0.1 1.85 -0.95 3.05 -0.55 1.8 -2.65 1.95 L-3.55 1.95 -11.25 1.95 -11.55 1.05 -16.85 1.1 Q-17.25 4.5 -18.35 6.4 L-20.05 6.45 Q-19.2 2.9 -20.25 -3.05 -18.85 -3.05 -16.95 -2.2 L-12.6 -2.2 -12.4 -1.65 -2.15 -1.7 -3.55 1.95 -2.15 -1.7 M-0.5 9.25 Q-1.75 10.1 -3.8 9.6 -5.8 9.05 -3.5 7.0 L-0.5 9.25 M-12.4 -1.65 L-12.25 -1.1 -18.05 -1.1 -12.25 -1.1 -12.4 -1.65 M-12.25 -1.1 L-11.55 1.05 -12.25 -1.1" fill="#49484e" fill-rule="evenodd" stroke="none"/>
    <path d="M5.7 -2.1 L5.55 -0.85 12.05 -0.75 12.1 -1.9 5.7 -2.1 M-1.15 -4.25 L0.0 -4.3 1.0 -5.8 6.1 -5.8 5.65 -4.45 6.65 -4.45 6.65 -3.2 15.25 -2.8 14.0 0.35 0.4 0.1 Q-0.05 -1.95 -2.15 -1.7 L-1.15 -4.25" fill="#4a4d54" fill-rule="evenodd" stroke="none"/>
    <path d="M12.1 3.35 L12.35 4.5 12.6 5.85 12.9 7.3 13.15 8.6 8.25 10.0 8.0 8.5 7.7 6.95 7.45 5.5 7.2 4.25 12.1 3.35 M8.0 8.5 L12.9 7.3 8.0 8.5 M7.45 5.5 L12.35 4.5 7.45 5.5 M12.6 5.85 L7.7 6.95 12.6 5.85" fill="#71614a" fill-rule="evenodd" stroke="none"/>
    <path d="M5.7 -2.1 L12.1 -1.9 12.05 -0.75 5.55 -0.85 5.7 -2.1" fill="#5a8362" fill-rule="evenodd" stroke="none"/>
    <path d="M33.65 -1.3 L37.9 -1.2 37.85 0.05 34.15 0.05 33.65 -1.3" fill="#545456" fill-rule="evenodd" stroke="none"/>
    <path d="M-1.15 -4.25 L-2.15 -1.7 Q-0.05 -1.95 0.4 0.1 L14.0 0.35 15.25 -2.8 19.3 -2.65 20.3 -5.15 6.1 -5.8 M33.65 -1.3 Q32.1 -3.0 29.65 -3.65 L20.3 -5.15 M33.65 -1.3 L37.9 -1.2 37.85 0.05 34.15 0.05 34.6 1.4 33.0 1.55 32.4 -0.2 15.75 -0.4 15.05 1.95 13.45 1.75 12.75 1.65 12.1 3.35 12.35 4.5 12.6 5.85 12.9 7.3 13.15 8.6 8.25 10.0 8.0 8.5 7.7 6.95 7.45 5.5 7.2 4.25 5.95 4.35 2.05 4.25 -0.5 9.25 -3.5 7.0 -0.95 3.05 Q-0.55 1.8 -2.65 1.95 L-3.55 1.95 -11.25 1.95 -11.55 1.05 -16.85 1.1 Q-17.25 4.5 -18.35 6.4 L-20.05 6.45 Q-19.2 2.9 -20.25 -3.05 -18.85 -3.05 -16.95 -2.2 L-12.6 -2.2 -12.75 -2.7 Q-7.35 -3.15 -3.0 -4.2 L-1.15 -4.25 M13.45 1.75 L14.0 0.35 M2.05 4.25 L2.7 2.3 3.6 2.3 5.65 2.3 5.95 4.35 M12.1 3.35 L7.2 4.25 M7.7 6.95 L12.6 5.85 M12.35 4.5 L7.45 5.5 M12.9 7.3 L8.0 8.5 M34.15 0.05 L33.65 -1.3 M-18.05 -1.1 L-12.25 -1.1 -12.4 -1.65 -12.6 -2.2 M-12.4 -1.65 L-2.15 -1.7 -3.55 1.95 M-11.55 1.05 L-12.25 -1.1 M-0.95 3.05 Q-0.1 1.85 0.4 0.1" fill="none" stroke="#373737" stroke-linecap="round" stroke-linejoin="round" stroke-width="1.0"/>
    <path d="M5.7 -2.1 L12.1 -1.9 12.05 -0.75 5.55 -0.85 5.7 -2.1 M15.25 -2.8 L6.65 -3.2 6.65 -4.45 5.65 -4.45 6.1 -5.8 1.0 -5.8 0.0 -4.3 -1.15 -4.25 M33.0 1.55 L33.4 2.75 30.8 2.75 27.75 2.8 24.4 2.8 21.15 2.8 17.6 2.8 14.75 2.8 15.05 1.95 M13.15 8.6 L13.65 11.1 8.75 12.65 8.25 10.0 M-0.5 9.25 Q-1.75 10.1 -3.8 9.6 -5.8 9.05 -3.5 7.0 M30.8 2.75 L31.2 1.25 M21.15 2.8 L21.55 1.35 M24.4 2.8 L24.8 1.35 M27.75 2.8 L28.15 1.3 M17.6 2.8 L18.0 1.35" fill="none" stroke="#202324" stroke-linecap="round" stroke-linejoin="round" stroke-width="1.0"/>
    <path d="M27.5 -2.55 L29.05 -2.55 M24.45 -2.55 L26.0 -2.55 M21.5 -2.6 L22.8 -2.6" fill="none" stroke="#515151" stroke-linecap="round" stroke-linejoin="round" stroke-width="1.0"/>
    <path d="M3.6 2.3 L3.5 3.6" fill="none" stroke="#1e1e1e" stroke-linecap="round" stroke-linejoin="round" stroke-width="1.0"/>
    <path d="M33.4 1.95 L92.4 1.95" fill="none" stroke="url(#gradient0)" stroke-linecap="round" stroke-linejoin="round" stroke-width="1.0"/>
  </g>
  <defs>
    <linearGradient gradientTransform="matrix(0.0556, 0.0, 0.0, 0.0095, 47.9, -5.35)" gradientUnits="userSpaceOnUse" id="gradient0" spreadMethod="pad" x1="-819.2" x2="819.2">
      <stop offset="0.0" stop-color="#ff0000" stop-opacity="0.5019608"/>
      <stop offset="1.0" stop-color="#ff0000" stop-opacity="0.101960786"/>
    </linearGradient>
  </defs>
</svg>
