<?xml version="1.0" encoding="UTF-8" standalone="no"?>
<svg xmlns:ffdec="https://www.free-decompiler.com/flash" xmlns:xlink="http://www.w3.org/1999/xlink" ffdec:objectType="shape" height="36.95px" width="224.5px" xmlns="http://www.w3.org/2000/svg">
  <g transform="matrix(1.0, 0.0, 0.0, 1.0, 112.9, 18.45)">
    <path d="M72.85 -2.7 L72.7 -3.3 73.85 -3.3 73.85 -2.1 72.85 -2.7 73.85 -2.1 73.85 -0.25 73.3 -0.9 72.85 -2.7" fill="url(#gradient0)" fill-rule="evenodd" stroke="none"/>
    <path d="M71.1 -8.85 L72.75 -2.7 72.7 -2.7 73.0 -1.6 73.3 -0.5 73.3 3.95 61.85 3.95 70.45 -8.85 71.1 -8.85" fill="url(#gradient1)" fill-rule="evenodd" stroke="none"/>
    <path d="M73.3 3.95 L73.3 -0.5 73.85 0.1 73.85 -0.25 73.85 -2.1 94.25 -2.1 110.6 -2.1 110.6 3.95 94.25 3.95 78.2 3.95 73.3 3.95 M78.2 3.95 L73.85 0.1 78.2 3.95 M94.25 3.95 L94.25 -2.1 94.25 3.95" fill="url(#gradient2)" fill-rule="evenodd" stroke="none"/>
    <path d="M16.2 15.8 L16.05 16.0 15.45 16.5 -13.9 16.55 -13.9 11.0 13.65 10.9 18.9 5.95 21.1 2.3 25.6 3.0 23.55 8.9 20.65 11.65 20.5 11.8 16.2 15.8 M13.65 10.9 L15.45 16.5 13.65 10.9" fill="url(#gradient3)" fill-rule="evenodd" stroke="none"/>
    <path d="M-13.9 16.55 L-35.8 16.55 -35.9 3.35 -17.5 3.15 -16.25 6.7 -17.15 10.75 -13.9 11.0 -13.9 16.55" fill="url(#gradient4)" fill-rule="evenodd" stroke="none"/>
    <path d="M20.65 11.65 L25.1 11.65 25.1 11.0 33.0 11.0 33.0 16.5 25.1 16.5 25.1 15.8 16.2 15.8 20.5 11.8 20.65 11.65 M25.1 11.65 L25.1 15.8 25.1 11.65" fill="#181b16" fill-rule="evenodd" stroke="none"/>
    <path d="M71.1 -8.85 L70.45 -8.85" fill="none" stroke="#1c2218" stroke-linecap="round" stroke-linejoin="bevel" stroke-width="2.0"/>
    <path d="M72.7 -2.7 L72.75 -2.7 71.1 -8.85 M61.85 3.95 L73.3 3.95 78.2 3.95 94.25 3.95 110.6 3.95 110.6 -2.1 94.25 -2.1 94.25 3.95 M73.3 -0.5 L73.0 -1.6 72.75 -2.7 72.85 -2.7 73.85 -2.1 94.25 -2.1 M73.85 0.1 L78.2 3.95 M16.05 16.0 L15.45 16.5 -13.9 16.55 -35.8 16.55 -35.9 3.35 -17.5 3.15 -16.25 6.7 -17.15 10.75 -13.9 11.0 13.65 10.9 18.9 5.95 21.1 2.3 25.6 3.0 23.55 8.9 20.65 11.65 M20.5 11.8 L16.2 15.8 M15.45 16.5 L13.65 10.9 M73.3 -0.5 L73.85 0.1" fill="none" stroke="#0f120d" stroke-linecap="round" stroke-linejoin="bevel" stroke-width="2.0"/>
    <path d="M20.65 11.65 L25.1 11.65 25.1 11.0 33.0 11.0 33.0 16.5 25.1 16.5 25.1 15.8 16.2 15.8 16.05 16.0 M20.65 11.65 L20.5 11.8 M25.1 15.8 L25.1 11.65" fill="none" stroke="#0f120d" stroke-linecap="round" stroke-linejoin="round" stroke-width="2.0"/>
    <path d="M21.75 -8.7 L21.6 -9.1 21.2 -9.25 20.8 -9.1 20.65 -8.7 Q20.65 -8.45 20.8 -8.3 20.95 -8.15 21.2 -8.15 21.45 -8.15 21.6 -8.3 L21.75 -8.7 M21.75 -1.25 L21.6 -1.65 21.2 -1.8 20.8 -1.65 20.65 -1.25 Q20.65 -1.0 20.8 -0.85 20.95 -0.7 21.2 -0.7 21.45 -0.7 21.6 -0.85 L21.75 -1.25 21.6 -0.85 Q21.45 -0.7 21.2 -0.7 20.95 -0.7 20.8 -0.85 20.65 -1.0 20.65 -1.25 L20.8 -1.65 21.2 -1.8 21.6 -1.65 21.75 -1.25 M21.75 -5.05 L21.6 -5.45 21.2 -5.6 20.8 -5.45 20.65 -5.05 Q20.65 -4.8 20.8 -4.65 20.95 -4.5 21.2 -4.5 21.45 -4.5 21.6 -4.65 L21.75 -5.05 21.6 -4.65 Q21.45 -4.5 21.2 -4.5 20.95 -4.5 20.8 -4.65 20.65 -4.8 20.65 -5.05 L20.8 -5.45 21.2 -5.6 21.6 -5.45 21.75 -5.05 M23.3 -3.2 L23.15 -3.6 22.75 -3.75 22.35 -3.6 22.2 -3.2 Q22.2 -2.95 22.35 -2.8 22.5 -2.65 22.75 -2.65 L23.15 -2.8 23.3 -3.2 23.15 -2.8 22.75 -2.65 Q22.5 -2.65 22.35 -2.8 22.2 -2.95 22.2 -3.2 L22.35 -3.6 22.75 -3.75 23.15 -3.6 23.3 -3.2 M24.95 -5.05 L24.8 -5.45 24.4 -5.6 24.0 -5.45 23.85 -5.05 Q23.85 -4.8 24.0 -4.65 24.15 -4.5 24.4 -4.5 L24.8 -4.65 24.95 -5.05 24.8 -4.65 24.4 -4.5 Q24.15 -4.5 24.0 -4.65 23.85 -4.8 23.85 -5.05 L24.0 -5.45 24.4 -5.6 24.8 -5.45 24.95 -5.05 M24.95 -8.7 L24.8 -9.1 24.4 -9.25 24.0 -9.1 23.85 -8.7 Q23.85 -8.45 24.0 -8.3 24.15 -8.15 24.4 -8.15 L24.8 -8.3 24.95 -8.7 24.8 -8.3 24.4 -8.15 Q24.15 -8.15 24.0 -8.3 23.85 -8.45 23.85 -8.7 L24.0 -9.1 24.4 -9.25 24.8 -9.1 24.95 -8.7 M23.3 -6.85 L23.15 -7.25 22.75 -7.4 22.35 -7.25 22.2 -6.85 Q22.2 -6.6 22.35 -6.45 22.5 -6.3 22.75 -6.3 L23.15 -6.45 23.3 -6.85 23.15 -6.45 22.75 -6.3 Q22.5 -6.3 22.35 -6.45 22.2 -6.6 22.2 -6.85 L22.35 -7.25 22.75 -7.4 23.15 -7.25 23.3 -6.85 M33.9 -9.4 L33.4 -8.75 25.55 1.35 33.4 -8.75 33.9 -9.4 M27.85 5.6 L23.3 1.95 32.5 -9.8 32.5 -9.9 32.5 -9.8 23.3 1.95 27.85 5.6 26.3 6.95 -15.0 6.95 -16.1 1.95 -9.95 1.95 -9.8 -6.95 -15.25 -7.1 -17.4 -2.9 -25.4 0.05 -25.4 -2.25 -17.85 -11.45 -18.5 -11.45 -17.85 -11.45 -25.4 -2.25 -25.4 0.05 -25.4 1.95 -25.4 6.25 -28.7 6.1 -32.7 3.3 -40.75 1.3 -40.45 -1.5 -40.2 -4.4 -35.25 -4.55 -30.95 -10.7 -28.0 -15.0 -27.9 -14.85 -20.4 -14.85 -17.85 -11.55 -17.8 -11.5 -17.85 -11.45 32.5 -11.45 32.5 -9.9 41.25 -9.9 38.45 -5.55 42.95 -5.55 46.1 -9.9 51.05 -9.9 48.05 -5.65 52.7 -5.5 54.9 -8.4 55.95 -9.9 61.05 -9.9 58.35 -5.5 62.7 -5.35 66.0 -9.9 71.75 -9.9 65.4 4.35 64.85 5.6 27.85 5.6 M29.6 5.0 L28.9 4.45 65.4 4.35 28.9 4.45 29.6 5.0 M32.5 -9.9 L32.25 -9.9 32.5 -9.9 M27.45 1.15 L31.5 -3.35 30.55 -3.95 31.5 -3.35 27.45 1.15 M39.65 -8.85 L33.4 -8.75 39.65 -8.85 M35.15 -5.6 L36.3 -7.5 33.85 -7.55 36.3 -7.5 35.15 -5.6 M43.6 0.95 L47.1 -2.85 46.05 -4.2 47.1 -2.85 43.6 0.95 M49.3 -8.55 L45.95 -8.55 49.3 -8.55 M51.1 -2.3 L51.1 0.25 59.65 0.25 59.65 -2.3 51.1 -2.3 M59.8 -8.4 L54.9 -8.4 59.8 -8.4 M70.65 -8.55 L65.4 -8.6 70.65 -8.55 M34.5 -2.3 L34.5 0.15 43.05 0.15 43.05 -2.3 34.5 -2.3 M27.3 4.45 L28.9 4.45 27.3 4.45 M23.3 1.95 L23.25 1.95 -9.95 1.95 23.25 1.95 23.3 1.95 M28.9 4.45 L25.0 1.35 28.9 4.45 M-29.4 -9.3 L-30.95 -10.7 -29.4 -9.3 -26.35 -13.85 -29.4 -9.3 -34.0 -2.95 -38.5 -2.7 -38.85 0.55 -38.5 -2.7 -34.0 -2.95 -29.4 -9.3 -27.35 -7.4 -34.7 2.4 -27.35 -7.4 -29.4 -9.3 M17.75 0.1 L12.15 0.1 17.75 0.1 17.75 -9.45 17.75 0.1 24.2 0.1 17.75 0.1 M6.3 0.1 L0.7 0.1 6.3 0.1 6.3 -9.45 6.3 0.1 12.15 0.1 6.3 0.1 M12.15 -9.4 L12.15 0.1 12.15 -9.4 M0.7 0.1 L0.7 -9.4 0.7 0.1 -5.9 0.1 -8.5 0.1 -5.9 0.1 0.7 0.1 M28.4 2.05 L31.6 -1.5 28.4 2.05 M62.85 0.75 L66.3 -6.4 62.85 0.75 M61.95 2.4 L65.15 -1.15 61.95 2.4 M43.9 2.05 L47.1 -1.5 43.9 2.05 M-3.95 -9.3 L-3.95 0.05 -1.3 0.05 -1.3 -9.3 -3.95 -9.3 M-5.9 0.1 L-5.9 -9.45 -5.9 0.1 M23.2 4.6 L-12.6 4.6 23.2 4.6" fill="#43493a" fill-rule="evenodd" stroke="none"/>
    <path d="M21.75 -8.7 L21.6 -8.3 Q21.45 -8.15 21.2 -8.15 20.95 -8.15 20.8 -8.3 20.65 -8.45 20.65 -8.7 L20.8 -9.1 21.2 -9.25 21.6 -9.1 21.75 -8.7 M35.3 -0.75 L35.3 -1.95 35.3 -0.75 M41.75 -0.75 L41.75 -1.85 41.75 -0.75 M51.1 -2.3 L59.65 -2.3 59.65 0.25 51.1 0.25 51.1 -2.3 M52.25 -0.5 L52.25 -1.7 52.25 -0.5 M58.7 -0.5 L58.7 -1.6 58.7 -0.5 M34.5 -2.3 L43.05 -2.3 43.05 0.15 34.5 0.15 34.5 -2.3 M-16.1 1.95 L-25.4 1.95 -25.4 0.05 -17.4 -2.9 -15.25 -7.1 -9.8 -6.95 -9.95 1.95 -16.1 1.95 M-3.95 -9.3 L-1.3 -9.3 -1.3 0.05 -3.95 0.05 -3.95 -9.3 M-11.3 -5.7 L-11.4 1.15 -24.0 1.15 -11.4 1.15 -11.3 -5.7" fill="#6c745f" fill-rule="evenodd" stroke="none"/>
    <path d="M-75.25 -1.45 L-73.15 -3.35 -66.4 -2.95 -64.85 -1.95 -67.9 0.4 -73.1 0.05 -75.25 -1.45" fill="#0f120d" fill-rule="evenodd" stroke="none"/>
    <path d="M-91.1 -3.25 Q-89.85 -5.4 -87.35 -5.8 L-63.8 -4.95 -62.0 -1.55 -66.6 2.6 -88.1 1.45 -91.1 -3.25 M-75.25 -1.45 L-80.8 -1.7 -87.45 -2.05 -88.4 -3.35 -87.45 -2.05 -80.8 -1.7 -75.25 -1.45 -73.1 0.05 -67.9 0.4 -64.85 -1.95 -66.4 -2.95 -73.15 -3.35 -75.25 -1.45 M-80.85 -0.2 L-80.8 -1.7 -80.85 -0.2" fill="#1a1a1a" fill-rule="evenodd" stroke="none"/>
    <path d="M-95.4 -17.45 L-29.3 -16.7 -28.0 -15.0 -30.95 -10.7 -35.25 -4.55 -40.2 -4.4 -40.45 -1.5 -60.45 -3.0 -62.0 -1.55 -63.8 -4.95 -87.35 -5.8 Q-89.85 -5.4 -91.1 -3.25 L-99.3 -15.95 -95.4 -17.45 M-50.1 -5.35 L-50.2 -12.85 -76.2 -12.85 -50.2 -12.85 -50.1 -5.35" fill="url(#gradient5)" fill-rule="evenodd" stroke="none"/>
    <path d="M-28.7 6.1 L-28.7 9.35 -28.7 17.5 -64.3 15.75 -69.9 9.35 -87.9 8.3 -99.75 14.55 -111.9 4.55 -111.9 -0.5 -100.85 -14.05 -99.3 -15.95 -91.1 -3.25 -88.1 1.45 -66.6 2.6 -62.0 -1.55 -60.45 -3.0 -40.45 -1.5 -40.75 1.3 -32.7 3.3 -28.7 6.1 M-41.0 6.3 L-44.95 6.1 -48.7 5.85 -52.55 5.65 -56.4 5.4 -58.95 5.15 -60.9 12.75 -56.85 13.0 -53.0 13.25 -49.15 13.45 -45.4 13.7 -41.45 13.9 -38.3 14.15 -36.6 6.55 -41.0 6.3 M-28.7 9.35 L-35.15 3.4 -28.7 9.35 M-41.95 0.25 L-42.1 -0.2 -41.95 0.25 -41.25 2.95 -34.6 4.55 -41.25 2.95 -41.95 0.25 -59.9 -1.4 -66.15 4.95 -88.9 3.2 -100.85 -14.05 -88.9 3.2 -66.15 4.95 -59.9 -1.4 -41.95 0.25" fill="url(#gradient6)" fill-rule="evenodd" stroke="none"/>
    <path d="M-41.0 6.3 L-36.6 6.55 -38.3 14.15 -41.45 13.9 -45.4 13.7 -49.15 13.45 -53.0 13.25 -56.85 13.0 -60.9 12.75 -58.95 5.15 -56.4 5.4 -52.55 5.65 -48.7 5.85 -44.95 6.1 -41.0 6.3 -41.45 13.9 -41.0 6.3 M-52.55 5.65 L-53.0 13.25 -52.55 5.65 M-56.4 5.4 L-56.85 13.0 -56.4 5.4 M-44.95 6.1 L-45.4 13.7 -44.95 6.1 M-48.7 5.85 L-49.15 13.45 -48.7 5.85" fill="#121511" fill-rule="evenodd" stroke="none"/>
    <path d="M32.5 -9.9 L32.5 -9.8 23.3 1.95 27.85 5.6 64.85 5.6 65.4 4.35 71.75 -9.9 66.0 -9.9 62.7 -5.35 58.35 -5.5 61.05 -9.9 55.95 -9.9 54.9 -8.4 52.7 -5.5 48.05 -5.65 51.05 -9.9 46.1 -9.9 42.95 -5.55 38.45 -5.55 41.25 -9.9 32.5 -9.9 32.5 -11.45 -17.85 -11.45 -25.4 -2.25 -25.4 0.05 -25.4 1.95 -25.4 6.25 -28.7 6.1 -28.7 9.35 -28.7 17.5 -64.3 15.75 -69.9 9.35 -87.9 8.3 -99.75 14.55 -111.9 4.55 -111.9 -0.5 -100.85 -14.05 -99.3 -15.95 -99.45 -16.2 -95.4 -17.45 -29.3 -16.7 -28.0 -15.0 -30.95 -10.7 -29.4 -9.3 -27.35 -7.4 -34.7 2.4 M-28.0 -15.0 L-27.9 -14.85 -20.4 -14.85 -17.85 -11.55 -17.8 -11.5 -17.85 -11.45 -18.5 -11.45 M32.25 -9.9 L32.5 -9.9 M-9.95 1.95 L23.25 1.95 23.3 1.95 M27.85 5.6 L26.3 6.95 -15.0 6.95 -16.1 1.95 -25.4 1.95 M-99.3 -15.95 L-91.1 -3.25 Q-89.85 -5.4 -87.35 -5.8 L-63.8 -4.95 -62.0 -1.55 -60.45 -3.0 -40.45 -1.5 -40.2 -4.4 -35.25 -4.55 -30.95 -10.7 M-99.3 -15.95 L-95.4 -17.45 M-25.4 0.05 L-17.4 -2.9 -15.25 -7.1 -9.8 -6.95 -9.95 1.95 -16.1 1.95 M-28.7 6.1 L-32.7 3.3 -40.75 1.3 -40.45 -1.5 M-91.1 -3.25 L-88.1 1.45 -66.6 2.6 -62.0 -1.55" fill="none" stroke="#1c2218" stroke-linecap="round" stroke-linejoin="bevel" stroke-width="2.0"/>
    <path d="M-3.95 -9.3 L-1.3 -9.3 -1.3 0.05 -3.95 0.05 -3.95 -9.3" fill="none" stroke="#0f120d" stroke-linecap="round" stroke-linejoin="bevel" stroke-width="2.0"/>
    <path d="M-88.4 -3.35 L-87.45 -2.05 -80.8 -1.7 -75.25 -1.45 -73.15 -3.35 -66.4 -2.95 -64.85 -1.95 -67.9 0.4 -73.1 0.05 -75.25 -1.45 M-80.8 -1.7 L-80.85 -0.2 M-12.6 4.6 L23.2 4.6" fill="none" stroke="#121212" stroke-linecap="round" stroke-linejoin="bevel" stroke-width="2.0"/>
    <path d="M21.75 -8.7 L21.6 -8.3 Q21.45 -8.15 21.2 -8.15 20.95 -8.15 20.8 -8.3 20.65 -8.45 20.65 -8.7 L20.8 -9.1 21.2 -9.25 21.6 -9.1 21.75 -8.7 M23.3 -6.85 L23.15 -6.45 22.75 -6.3 Q22.5 -6.3 22.35 -6.45 22.2 -6.6 22.2 -6.85 L22.35 -7.25 22.75 -7.4 23.15 -7.25 23.3 -6.85 M24.95 -8.7 L24.8 -8.3 24.4 -8.15 Q24.15 -8.15 24.0 -8.3 23.85 -8.45 23.85 -8.7 L24.0 -9.1 24.4 -9.25 24.8 -9.1 24.95 -8.7 M24.95 -5.05 L24.8 -4.65 24.4 -4.5 Q24.15 -4.5 24.0 -4.65 23.85 -4.8 23.85 -5.05 L24.0 -5.45 24.4 -5.6 24.8 -5.45 24.95 -5.05 M23.3 -3.2 L23.15 -2.8 22.75 -2.65 Q22.5 -2.65 22.35 -2.8 22.2 -2.95 22.2 -3.2 L22.35 -3.6 22.75 -3.75 23.15 -3.6 23.3 -3.2 M21.75 -5.05 L21.6 -4.65 Q21.45 -4.5 21.2 -4.5 20.95 -4.5 20.8 -4.65 20.65 -4.8 20.65 -5.05 L20.8 -5.45 21.2 -5.6 21.6 -5.45 21.75 -5.05 M21.75 -1.25 L21.6 -0.85 Q21.45 -0.7 21.2 -0.7 20.95 -0.7 20.8 -0.85 20.65 -1.0 20.65 -1.25 L20.8 -1.65 21.2 -1.8 21.6 -1.65 21.75 -1.25" fill="none" stroke="#121212" stroke-linecap="round" stroke-linejoin="bevel" stroke-width="1.1"/>
    <path d="M-29.4 -9.3 L-26.35 -13.85 M12.15 0.1 L17.75 0.1 24.2 0.1 M0.7 0.1 L6.3 0.1 12.15 0.1 M0.7 0.1 L-5.9 0.1 -8.5 0.1 M-38.85 0.55 L-38.5 -2.7 -34.0 -2.95 -29.4 -9.3 M-24.0 1.15 L-11.4 1.15 -11.3 -5.7" fill="none" stroke="#1c2218" stroke-linecap="round" stroke-linejoin="bevel" stroke-opacity="0.4392157" stroke-width="3.0"/>
    <path d="M33.85 -7.55 L36.3 -7.5 35.15 -5.6 M51.1 -2.3 L59.65 -2.3 59.65 0.25 51.1 0.25 51.1 -2.3 M34.5 -2.3 L43.05 -2.3 43.05 0.15 34.5 0.15 34.5 -2.3" fill="none" stroke="#0f120d" stroke-linecap="round" stroke-linejoin="bevel" stroke-width="1.8"/>
    <path d="M30.55 -3.95 L31.5 -3.35 27.45 1.15 M46.05 -4.2 L47.1 -2.85 43.6 0.95 M66.3 -6.4 L62.85 0.75" fill="none" stroke="#3d4531" stroke-linecap="round" stroke-linejoin="bevel" stroke-width="1.8"/>
    <path d="M35.3 -1.95 L35.3 -0.75 M41.75 -1.85 L41.75 -0.75 M58.7 -1.6 L58.7 -0.5 M52.25 -1.7 L52.25 -0.5 M31.6 -1.5 L28.4 2.05 M47.1 -1.5 L43.9 2.05 M65.15 -1.15 L61.95 2.4" fill="none" stroke="#1e221a" stroke-linecap="round" stroke-linejoin="bevel" stroke-width="2.0"/>
    <path d="M25.55 1.35 L33.4 -8.75 33.9 -9.4 M65.4 4.35 L28.9 4.45 29.6 5.0 M33.4 -8.75 L39.65 -8.85 M45.95 -8.55 L49.3 -8.55 M54.9 -8.4 L59.8 -8.4 M65.4 -8.6 L70.65 -8.55 M28.9 4.45 L27.3 4.45 M25.0 1.35 L28.9 4.45" fill="none" stroke="#1c2218" stroke-linecap="round" stroke-linejoin="bevel" stroke-opacity="0.69803923" stroke-width="2.0"/>
    <path d="M-76.2 -12.85 L-50.2 -12.85 -50.1 -5.35" fill="none" stroke="#0f120d" stroke-linecap="round" stroke-linejoin="bevel" stroke-opacity="0.69803923" stroke-width="2.0"/>
    <path d="M-41.0 6.3 L-36.6 6.55 -38.3 14.15 -41.45 13.9 -45.4 13.7 -49.15 13.45 -53.0 13.25 -56.85 13.0 -60.9 12.75 -58.95 5.15 -56.4 5.4 -52.55 5.65 -48.7 5.85 -44.95 6.1 -41.0 6.3 -41.45 13.9 M-49.15 13.45 L-48.7 5.85 M-45.4 13.7 L-44.95 6.1 M-56.85 13.0 L-56.4 5.4 M-53.0 13.25 L-52.55 5.65" fill="none" stroke="#1b1f17" stroke-linecap="round" stroke-linejoin="bevel" stroke-width="1.8"/>
    <path d="M17.75 0.1 L17.75 -9.45 M6.3 0.1 L6.3 -9.45 M12.15 0.1 L12.15 -9.4" fill="none" stroke="#63623b" stroke-linecap="round" stroke-linejoin="bevel" stroke-opacity="0.4392157" stroke-width="2.0"/>
    <path d="M0.7 -9.4 L0.7 0.1 M-5.9 -9.45 L-5.9 0.1" fill="none" stroke="#63623b" stroke-linecap="square" stroke-linejoin="bevel" stroke-opacity="0.4392157" stroke-width="2.0"/>
    <path d="M-35.15 3.4 L-28.7 9.35" fill="none" stroke="#1c2218" stroke-linecap="square" stroke-linejoin="bevel" stroke-opacity="0.4392157" stroke-width="3.0"/>
    <path d="M-42.1 -0.2 L-41.95 0.25 -41.25 2.95 -34.6 4.55" fill="none" stroke="#1c2218" stroke-linecap="round" stroke-linejoin="bevel" stroke-opacity="0.4392157" stroke-width="3.0"/>
    <path d="M-100.85 -14.05 L-88.9 3.2 -66.15 4.95 -59.9 -1.4 -41.95 0.25" fill="none" stroke="#1c2218" stroke-linecap="round" stroke-linejoin="bevel" stroke-opacity="0.4392157" stroke-width="3.0"/>
  </g>
  <defs>
    <linearGradient gradientTransform="matrix(0.0, 0.0035, -0.0183, -2.0E-4, 117.9, -9.3)" gradientUnits="userSpaceOnUse" id="gradient0" spreadMethod="reflect" x1="-819.2" x2="819.2">
      <stop offset="0.0" stop-color="#1b1e19"/>
      <stop offset="1.0" stop-color="#0e100d"/>
    </linearGradient>
    <linearGradient gradientTransform="matrix(0.0, 0.0037, -0.0183, -2.0E-4, 117.9, -10.2)" gradientUnits="userSpaceOnUse" id="gradient1" spreadMethod="reflect" x1="-819.2" x2="819.2">
      <stop offset="0.0" stop-color="#1b1e19"/>
      <stop offset="1.0" stop-color="#0e100d"/>
    </linearGradient>
    <linearGradient gradientTransform="matrix(0.0, 0.0032, -0.0183, -2.0E-4, 117.9, -8.25)" gradientUnits="userSpaceOnUse" id="gradient2" spreadMethod="reflect" x1="-819.2" x2="819.2">
      <stop offset="0.0" stop-color="#1b1e19"/>
      <stop offset="1.0" stop-color="#0e100d"/>
    </linearGradient>
    <linearGradient gradientTransform="matrix(-3.0E-4, 0.004, -0.1161, -2.0E-4, 773.75, -7.05)" gradientUnits="userSpaceOnUse" id="gradient3" spreadMethod="reflect" x1="-819.2" x2="819.2">
      <stop offset="0.0" stop-color="#1b1e19"/>
      <stop offset="1.0" stop-color="#0e100d"/>
    </linearGradient>
    <linearGradient gradientTransform="matrix(0.0, 0.004, -0.0183, -2.0E-4, 117.25, -7.05)" gradientUnits="userSpaceOnUse" id="gradient4" spreadMethod="reflect" x1="-819.2" x2="819.2">
      <stop offset="0.0" stop-color="#1b1e19"/>
      <stop offset="1.0" stop-color="#0e100d"/>
    </linearGradient>
    <radialGradient cx="0" cy="0" gradientTransform="matrix(0.0802, 0.0, 0.0, 0.0802, -68.85, 21.8)" gradientUnits="userSpaceOnUse" id="gradient5" r="819.2" spreadMethod="pad">
      <stop offset="0.0" stop-color="#2f3627"/>
      <stop offset="1.0" stop-color="#43493a"/>
    </radialGradient>
    <radialGradient cx="0" cy="0" gradientTransform="matrix(0.1012, 0.0, 0.0, 0.0547, -75.65, 14.95)" gradientUnits="userSpaceOnUse" id="gradient6" r="819.2" spreadMethod="pad">
      <stop offset="0.0" stop-color="#2f3627"/>
      <stop offset="1.0" stop-color="#43493a"/>
    </radialGradient>
  </defs>
</svg>
