<?xml version="1.0" encoding="UTF-8" standalone="no"?>
<svg xmlns:ffdec="https://www.free-decompiler.com/flash" xmlns:xlink="http://www.w3.org/1999/xlink" ffdec:objectType="shape" height="9.85px" width="30.35px" xmlns="http://www.w3.org/2000/svg">
  <g transform="matrix(1.0, 0.0, 0.0, 1.0, 19.2, 4.9)">
    <path d="M2.45 -2.0 L2.65 -1.8 10.4 -1.85 10.4 4.2 -18.45 4.2 -18.45 -4.15 0.3 -4.15 2.45 -2.0 -1.15 3.95 2.45 -2.0 M4.45 0.7 L4.45 1.85 6.45 1.85 4.45 1.85 4.45 0.7 M8.9 3.75 L8.9 -1.5 8.9 3.75 M-8.7 -0.7 L-8.7 -1.8 -8.7 -0.7 -8.7 -0.2 -8.7 -0.7 -6.1 -0.7 -8.7 -0.7 M-14.75 -0.7 L-12.15 -0.7 -14.75 -0.7 -14.75 -1.8 -14.75 -0.7 -14.75 -0.2 -14.75 -0.7 M1.2 -2.55 L-1.9 2.35 1.2 -2.55 M-0.95 2.8 L-1.9 2.8 -0.95 2.8 M-2.3 2.8 L-2.85 2.8 -17.25 2.8 -2.85 2.8 -2.3 2.35 -2.85 2.8 -2.3 2.8" fill="#43493a" fill-rule="evenodd" stroke="none"/>
    <path d="M-8.7 -0.7 L-8.7 -0.2 M-8.7 -1.8 L-8.7 -0.7 M-14.75 -0.7 L-14.75 -0.2 M-14.75 -1.8 L-14.75 -0.7" fill="none" stroke="#0f120d" stroke-linecap="round" stroke-linejoin="bevel" stroke-opacity="0.69803923" stroke-width="2.0"/>
    <path d="M8.9 -1.5 L8.9 3.75 M-17.25 2.8 L-2.85 2.8 -2.3 2.35 M-2.85 2.8 L-2.3 2.8 M-1.9 2.8 L-0.95 2.8 M-1.9 2.35 L1.2 -2.55" fill="none" stroke="#1c2218" stroke-linecap="round" stroke-linejoin="bevel" stroke-opacity="0.69803923" stroke-width="2.0"/>
    <path d="M6.45 1.85 L4.45 1.85 4.45 0.7 M-8.7 -0.7 L-6.1 -0.7 M-12.15 -0.7 L-14.75 -0.7" fill="none" stroke="#121212" stroke-linecap="round" stroke-linejoin="bevel" stroke-width="2.0"/>
    <path d="M2.45 -2.0 L0.3 -4.15 -18.45 -4.15 -18.45 4.2 10.4 4.2 10.4 -1.85 2.65 -1.8 2.45 -2.0 -1.15 3.95" fill="none" stroke="#1c2218" stroke-linecap="round" stroke-linejoin="bevel" stroke-width="1.5"/>
  </g>
</svg>
