<?xml version="1.0" encoding="UTF-8" standalone="no"?>
<svg xmlns:ffdec="https://www.free-decompiler.com/flash" xmlns:xlink="http://www.w3.org/1999/xlink" ffdec:objectType="shape" height="7.05px" width="22.05px" xmlns="http://www.w3.org/2000/svg">
  <g transform="matrix(1.0, 0.0, 0.0, 1.0, 11.8, -7.5)">
    <path d="M2.05 8.3 L1.7 14.1 -0.25 13.95 0.1 8.2 2.05 8.3 M6.0 8.5 L5.65 14.3 3.5 14.2 3.85 8.4 6.0 8.5 M10.25 8.75 L8.95 14.55 7.45 14.45 7.8 8.6 10.25 8.75 M-3.75 7.95 L-1.7 8.05 -2.05 13.85 -4.1 13.75 -3.75 7.95 M-5.55 7.85 L-5.9 13.65 -7.95 13.5 -7.6 7.7 -5.55 7.85 M-11.8 13.3 L-10.3 7.5 -9.4 7.6 -9.75 13.4 -11.8 13.3" fill="#cc4800" fill-rule="evenodd" stroke="none"/>
  </g>
</svg>
