<?xml version="1.0" encoding="UTF-8" standalone="no"?>
<svg xmlns:xlink="http://www.w3.org/1999/xlink" height="15.0px" width="33.15px" xmlns="http://www.w3.org/2000/svg">
  <g transform="matrix(1.0, 0.0, 0.0, 1.0, -28.9, 7.75)">
    <path d="M37.35 -0.25 Q37.35 2.8 36.1 5.05 34.9 7.25 33.15 7.25 31.4 7.25 30.2 5.05 28.9 2.8 28.9 -0.25 28.9 -3.35 30.2 -5.6 31.4 -7.75 33.15 -7.75 34.9 -7.75 36.1 -5.6 37.35 -3.35 37.35 -0.25" fill="url(#gradient0)" fill-rule="evenodd" stroke="none"/>
    <path d="M37.8 -5.45 Q47.85 -5.45 54.95 -3.95 62.05 -2.45 62.05 -0.15 62.05 2.0 54.95 3.5 47.85 5.05 37.8 5.05 L34.55 5.05 34.55 -5.35 37.8 -5.45" fill="url(#gradient1)" fill-rule="evenodd" stroke="none"/>
  </g>
  <defs>
    <radialGradient cx="0" cy="0" gradientTransform="matrix(0.0053, 0.0, 0.0, 0.0094, 33.15, -0.25)" gradientUnits="userSpaceOnUse" id="gradient0" r="819.2" spreadMethod="pad">
      <stop offset="0.36470588235294116" stop-color="#ffffff" stop-opacity="0.5411765"/>
      <stop offset="1.0" stop-color="#00ccff" stop-opacity="0.0"/>
    </radialGradient>
    <radialGradient cx="0" cy="0" gradientTransform="matrix(0.0297, 0.0, 0.0, 0.0064, 37.9, -0.25)" gradientUnits="userSpaceOnUse" id="gradient1" r="819.2" spreadMethod="pad">
      <stop offset="0.36470588235294116" stop-color="#ffffff" stop-opacity="0.57254905"/>
      <stop offset="1.0" stop-color="#00e6ff" stop-opacity="0.0"/>
    </radialGradient>
  </defs>
</svg>
