<?xml version="1.0" encoding="UTF-8" standalone="no"?>
<svg xmlns:xlink="http://www.w3.org/1999/xlink" height="16.05px" width="97.6px" xmlns="http://www.w3.org/2000/svg">
  <g transform="matrix(1.0, 0.0, 0.0, 1.0, 15.05, 7.4)">
    <path d="M4.3 -3.2 Q4.15 -2.45 4.4 -1.5 L4.4 -1.45 13.05 -0.8 Q12.8 0.55 10.45 1.35 L10.45 3.0 10.45 1.35 20.05 1.35 22.65 1.25 22.65 3.0 21.2 3.0 10.45 3.0 7.85 3.0 6.5 4.1 Q6.15 3.75 4.85 3.25 L2.9 2.75 2.3 2.7 1.35 2.7 1.35 2.5 Q-2.95 1.35 -5.55 2.5 L-6.25 2.0 -8.65 1.4 -9.2 -0.05 -11.9 -0.6 -11.45 -1.5 -4.45 -1.5 -4.3 -0.75 -4.3 -0.6 -4.25 -0.5 0.35 -0.5 Q0.0 -2.05 0.7 -3.0 L0.75 -3.2 1.55 -3.2 4.3 -3.2 M5.95 0.15 L3.35 0.15 3.35 -1.5 4.4 -1.5 3.35 -1.5 3.35 0.15 5.95 0.15 M1.05 -1.5 L3.35 -1.5 1.05 -1.5 M3.35 1.15 L3.35 0.15 3.35 1.15" fill="#666666" fill-rule="evenodd" stroke="none"/>
    <path d="M0.95 -3.85 L1.55 -3.85 0.75 -3.2 0.7 -3.0 Q0.0 -2.05 0.35 -0.5 L-4.25 -0.5 -4.3 -0.6 -4.3 -0.75 -4.45 -1.5 Q-4.6 -2.65 -3.85 -3.6 L-3.65 -3.85 0.95 -3.85 M-1.3 -1.9 L-3.0 -1.9 -1.3 -1.9 M-0.8 -2.65 L-2.7 -2.65 -0.8 -2.65" fill="#373737" fill-rule="evenodd" stroke="none"/>
    <path d="M5.7 -5.65 L5.4 -5.35 Q4.55 -4.4 4.3 -3.2 L1.55 -3.2 Q1.8 -4.6 2.85 -5.3 3.95 -5.85 5.0 -5.65 L5.7 -5.65 M13.05 -0.8 L17.3 -0.55 18.05 -2.5 Q19.0 -3.85 20.65 -4.4 23.9 -3.85 26.75 -2.75 L24.75 -1.25 Q24.05 -0.65 20.05 1.35 L10.45 1.35 Q12.8 0.55 13.05 -0.8 M21.2 3.0 Q22.4 4.55 21.2 6.55 L7.85 6.55 Q6.8 6.4 6.6 5.05 L6.5 4.1 7.85 3.0 10.45 3.0 21.2 3.0 M-11.9 -0.6 L-14.45 -0.6 Q-15.15 -5.0 -10.55 -5.3 -10.4 -4.05 -8.85 -4.05 L-9.2 -3.6 -3.85 -3.6 Q-4.6 -2.65 -4.45 -1.5 L-11.45 -1.5 -11.9 -0.6 M20.65 -0.75 L18.9 -0.9 20.65 -0.75 M21.7 -2.2 L18.05 -2.5 21.7 -2.2" fill="#cccccc" fill-rule="evenodd" stroke="none"/>
    <path d="M5.7 -5.65 L6.75 -6.5 10.05 -6.9 15.2 -6.45 18.95 -5.7 Q20.85 -5.15 21.35 -4.6 L20.65 -4.4 Q19.0 -3.85 18.05 -2.5 L17.3 -0.55 13.05 -0.8 4.4 -1.45 4.4 -1.5 Q4.15 -2.45 4.3 -3.2 4.55 -4.4 5.4 -5.35 L5.7 -5.65" fill="#6a6a6a" fill-rule="evenodd" stroke="none"/>
    <path d="M24.75 -1.25 L27.15 -1.25 27.15 0.3 23.45 0.3 22.65 0.8 22.65 1.25 20.05 1.35 Q24.05 -0.65 24.75 -1.25 M0.15 6.05 L0.3 7.85 Q-3.6 8.65 -5.05 7.2 -4.45 5.9 -4.6 4.6 -4.75 3.3 -5.55 2.5 L-6.25 3.4 -10.15 3.4 -11.9 -0.6 -9.2 -0.05 -8.65 1.4 -6.25 2.0 -5.55 2.5 Q-2.95 1.35 1.35 2.5 L1.35 2.7 Q0.45 3.35 0.15 4.85 0.0 5.45 0.15 6.05 M-8.85 -4.05 L-8.1 -4.8 -4.3 -4.8 -3.2 -5.85 -2.45 -5.85 -2.45 -4.8 0.95 -4.8 0.95 -3.85 -3.65 -3.85 -3.85 -3.6 -9.2 -3.6 -8.85 -4.05 M-2.4 5.6 L-3.7 6.8 -2.4 5.6 -3.1 4.45 -2.4 5.6 -1.2 4.45 -2.4 5.6 -1.7 6.75 -2.4 5.6" fill="#333333" fill-rule="evenodd" stroke="none"/>
    <path d="M24.75 -1.25 L27.15 -1.25 27.15 0.3 23.45 0.3 22.65 0.8 M6.6 5.05 Q3.45 6.65 0.15 6.05 L0.3 7.85 Q-3.6 8.65 -5.05 7.2 -4.45 5.9 -4.6 4.6 -4.75 3.3 -5.55 2.5 L-6.25 3.4 -10.15 3.4 -11.9 -0.6 -9.2 -0.05 -8.65 1.4 -6.25 2.0 -5.55 2.5 M-8.85 -4.05 L-8.1 -4.8 -4.3 -4.8 -3.2 -5.85 -2.45 -5.85 -2.45 -4.8 0.95 -4.8 0.95 -3.85 1.55 -3.85 0.75 -3.2 1.55 -3.2 M0.75 -3.2 L0.7 -3.0 Q0.0 -2.05 0.35 -0.5 L-4.25 -0.5 -4.3 -0.6 -4.3 -0.75 -4.45 -1.5 Q-4.6 -2.65 -3.85 -3.6 L-3.65 -3.85 0.95 -3.85 M2.9 2.75 L2.35 4.3 M1.35 2.7 Q0.45 3.35 0.15 4.85 0.0 5.45 0.15 6.05 M-8.85 -4.05 L-9.2 -3.6 -3.85 -3.6 M-3.1 4.45 L-2.4 5.6 -1.2 4.45 M-2.4 5.6 L-1.7 6.75 M-3.7 6.8 L-2.4 5.6" fill="none" stroke="#1a1a1a" stroke-linecap="round" stroke-linejoin="round" stroke-width="1.0"/>
    <path d="M20.65 -4.4 L21.35 -4.6 Q20.85 -5.15 18.95 -5.7 L15.2 -6.45 10.05 -6.9 6.75 -6.5 5.7 -5.65 5.4 -5.35 Q4.55 -4.4 4.3 -3.2 4.15 -2.45 4.4 -1.5 L4.4 -1.45 13.05 -0.8 17.3 -0.55 18.05 -2.5 Q19.0 -3.85 20.65 -4.4 M22.65 0.8 L22.65 1.25 M22.65 3.0 L21.2 3.0 M1.55 -3.2 Q1.8 -4.6 2.85 -5.3 3.95 -5.85 5.0 -5.65 L5.7 -5.65 M1.35 2.7 L2.3 2.7 2.9 2.75 4.85 3.25 Q6.15 3.75 6.5 4.1 M4.4 -1.5 L3.35 -1.5 3.35 0.15 5.95 0.15 M3.35 -1.5 L1.05 -1.5 M3.35 0.15 L3.35 1.15" fill="none" stroke="#373737" stroke-linecap="round" stroke-linejoin="round" stroke-width="1.0"/>
    <path d="M-4.45 -1.5 L-11.45 -1.5 -11.9 -0.6 M6.5 4.1 L7.85 3.0 10.45 3.0 10.45 1.35 Q12.8 0.55 13.05 -0.8 M1.55 -3.2 L4.3 -3.2 M18.05 -2.5 L21.7 -2.2 M18.9 -0.9 L20.65 -0.75 M20.05 1.35 L10.45 1.35 M10.45 3.0 L21.2 3.0 M22.65 1.25 L20.05 1.35" fill="none" stroke="#333333" stroke-linecap="round" stroke-linejoin="round" stroke-width="1.0"/>
    <path d="M22.65 1.25 L22.65 3.0" fill="none" stroke="#ff0000" stroke-linecap="round" stroke-linejoin="round" stroke-width="1.0"/>
    <path d="M20.65 -4.4 Q23.9 -3.85 26.75 -2.75 L24.75 -1.25 Q24.05 -0.65 20.05 1.35 M21.2 3.0 Q22.4 4.55 21.2 6.55 L7.85 6.55 Q6.8 6.4 6.6 5.05 L6.5 4.1 M-11.9 -0.6 L-14.45 -0.6 Q-15.15 -5.0 -10.55 -5.3 -10.4 -4.05 -8.85 -4.05" fill="none" stroke="#737373" stroke-linecap="round" stroke-linejoin="round" stroke-width="1.0"/>
    <path d="M-3.0 -1.9 L-1.3 -1.9 M-2.7 -2.65 L-0.8 -2.65" fill="none" stroke="#650101" stroke-linecap="round" stroke-linejoin="round" stroke-width="1.0"/>
    <path d="M9.4 6.55 Q8.8 5.85 8.3 4.3 9.15 3.95 10.0 4.3 10.4 6.05 10.95 6.55 10.95 7.4 10.0 7.05 L9.4 6.55 M12.3 4.3 Q13.05 3.95 13.95 4.3 14.25 6.05 14.95 6.55 14.9 7.4 13.95 7.05 L13.3 6.55 Q12.75 5.85 12.3 4.3 M16.05 4.35 Q16.8 4.1 17.7 4.35 18.0 6.05 18.6 6.55 18.6 7.45 17.7 7.15 L17.0 6.55 Q16.4 5.85 16.05 4.35 M13.9 -3.1 L11.8 -3.1 Q12.55 -4.6 13.5 -5.35 L14.25 -5.85 Q15.65 -6.35 16.75 -6.25 L17.9 -6.05 15.75 -5.15 Q14.35 -4.5 13.9 -3.1 M9.85 -3.35 L8.1 -3.35 Q9.25 -6.45 11.4 -6.8 L11.75 -6.8 12.5 -6.75 11.3 -5.75 Q10.45 -5.0 9.85 -3.35" fill="#cc0000" fill-rule="evenodd" stroke="none"/>
    <path d="M9.85 -3.35 Q10.45 -5.0 11.3 -5.75 L12.5 -6.75 11.75 -6.8 11.4 -6.8 Q9.25 -6.45 8.1 -3.35 L9.85 -3.35 M13.9 -3.1 Q14.35 -4.5 15.75 -5.15 L17.9 -6.05 16.75 -6.25 Q15.65 -6.35 14.25 -5.85 L13.5 -5.35 Q12.55 -4.6 11.8 -3.1 L13.9 -3.1 M16.05 4.35 Q16.4 5.85 17.0 6.55 L17.7 7.15 Q18.6 7.45 18.6 6.55 18.0 6.05 17.7 4.35 16.8 4.1 16.05 4.35 M12.3 4.3 Q12.75 5.85 13.3 6.55 L13.95 7.05 Q14.9 7.4 14.95 6.55 14.25 6.05 13.95 4.3 13.05 3.95 12.3 4.3 M9.4 6.55 L10.0 7.05 Q10.95 7.4 10.95 6.55 10.4 6.05 10.0 4.3 9.15 3.95 8.3 4.3 8.8 5.85 9.4 6.55 Z" fill="none" stroke="#650101" stroke-linecap="round" stroke-linejoin="round" stroke-width="1.0"/>
    <path d="M23.05 1.4 L82.05 1.4" fill="none" stroke="url(#gradient0)" stroke-linecap="round" stroke-linejoin="round" stroke-width="1.0"/>
  </g>
  <defs>
    <linearGradient gradientTransform="matrix(0.0556, 0.0, 0.0, 0.0095, 37.55, -5.9)" gradientUnits="userSpaceOnUse" id="gradient0" spreadMethod="pad" x1="-819.2" x2="819.2">
      <stop offset="0.0" stop-color="#ff0000" stop-opacity="0.5019608"/>
      <stop offset="1.0" stop-color="#ff0000" stop-opacity="0.101960786"/>
    </linearGradient>
  </defs>
</svg>
