<?xml version="1.0" encoding="UTF-8" standalone="no"?>
<svg xmlns:ffdec="https://www.free-decompiler.com/flash" xmlns:xlink="http://www.w3.org/1999/xlink" ffdec:objectType="shape" height="12.15px" width="44.9px" xmlns="http://www.w3.org/2000/svg">
  <g transform="matrix(1.0, 0.0, 0.0, 1.0, -27.25, 7.15)">
    <path d="M30.8 -5.35 Q33.35 -7.15 37.0 -7.15 L37.6 -7.1 38.15 -7.15 Q41.75 -7.15 44.35 -5.35 46.85 -3.55 46.85 -1.05 46.85 1.45 44.35 3.2 41.75 5.0 38.15 5.0 L37.6 4.95 37.0 5.0 Q33.35 5.0 30.8 3.2 28.2 1.45 28.3 -1.05 28.2 -3.55 30.8 -5.35" fill="url(#gradient0)" fill-rule="evenodd" stroke="none"/>
    <path d="M33.4 -3.7 L48.3 -4.75 49.7 -4.7 51.15 -4.75 66.05 -3.7 Q72.15 -2.65 72.15 -1.2 72.15 0.25 66.05 1.3 L51.15 2.35 49.7 2.3 48.3 2.35 33.4 1.3 Q27.1 0.25 27.25 -1.2 27.1 -2.65 33.4 -3.7" fill="url(#gradient1)" fill-rule="evenodd" stroke="none"/>
  </g>
  <defs>
    <radialGradient cx="0" cy="0" gradientTransform="matrix(0.0108, 0.0, 0.0, 0.0072, 37.45, -1.15)" gradientUnits="userSpaceOnUse" id="gradient0" r="819.2" spreadMethod="pad">
      <stop offset="0.17647058823529413" stop-color="#ffffff"/>
      <stop offset="1.0" stop-color="#ffb711" stop-opacity="0.0"/>
    </radialGradient>
    <radialGradient cx="0" cy="0" gradientTransform="matrix(0.026, 0.0, 0.0, 0.0042, 49.4, -1.25)" gradientUnits="userSpaceOnUse" id="gradient1" r="819.2" spreadMethod="pad">
      <stop offset="0.17647058823529413" stop-color="#ffffff"/>
      <stop offset="1.0" stop-color="#ffb711" stop-opacity="0.0"/>
    </radialGradient>
  </defs>
</svg>
