<?xml version="1.0" encoding="UTF-8" standalone="no"?>
<svg xmlns:xlink="http://www.w3.org/1999/xlink" height="9.7px" width="48.25px" xmlns="http://www.w3.org/2000/svg">
  <g transform="matrix(1.0, 0.0, 0.0, 1.0, 10.0, 2.35)">
    <path d="M5.65 1.7 L2.25 -0.55 0.75 -0.55 0.75 1.7 -0.1 1.7 -0.25 2.3 -0.5 3.6 -0.6 3.95 -4.15 3.95 -5.2 3.3 -5.2 1.8 -5.65 1.8 -6.2 1.5 -6.2 0.5 -1.2 -1.85 29.4 -1.85 30.05 -1.2 31.85 1.0 30.05 -1.2 32.25 -1.2 32.7 -1.2 33.55 -1.2 34.15 -1.2 35.0 -1.2 35.15 -1.2 35.15 1.0 31.85 1.0 31.85 1.7 5.65 1.7 M28.75 0.45 L27.7 -0.55 21.35 -0.55 27.7 -0.55 28.75 0.45 M36.5 -1.2 L37.75 -1.15 37.75 0.95 36.5 1.0 36.5 -1.2 M36.5 2.1 L37.75 2.1 37.75 3.4 36.5 3.4 36.5 2.1 M35.15 3.4 L35.0 3.4 34.35 3.7 28.75 3.7 28.75 2.3 30.9 2.1 35.15 2.1 35.15 3.4 M33.55 -0.1 L33.55 -1.2 33.55 -0.1 M32.25 -0.7 L32.25 -1.2 32.25 -0.7 M-2.2 2.1 L-3.9 2.1 -3.9 3.0 -2.2 3.0 -2.2 2.1" fill="#666666" fill-rule="evenodd" stroke="none"/>
    <path d="M0.75 1.7 L5.65 1.7 31.85 1.7 30.9 2.1 28.75 2.3 28.75 3.7 -0.5 3.6 -0.25 2.3 -0.1 1.7 0.75 1.7 M35.15 -1.2 L36.5 -1.2 36.5 1.0 36.5 2.1 36.5 3.4 35.15 3.4 35.15 2.1 35.15 1.0 35.15 -1.2 M-0.25 2.3 L28.75 2.3 -0.25 2.3" fill="#1e1e1e" fill-rule="evenodd" stroke="none"/>
    <path d="M0.75 1.7 L0.75 -0.55 2.25 -0.55 5.65 1.7 0.75 1.7 M-2.2 2.1 L-2.2 3.0 -3.9 3.0 -3.9 2.1 -2.2 2.1" fill="#515151" fill-rule="evenodd" stroke="none"/>
    <path d="M-6.2 1.5 L-5.65 1.8 -5.2 1.8 -5.2 3.3 -4.15 3.95 -5.75 4.95 -6.0 6.85 -9.5 6.3 -8.55 2.9 -6.2 1.5" fill="#444444" fill-rule="evenodd" stroke="none"/>
    <path d="M5.65 1.7 L2.25 -0.55 0.75 -0.55 0.75 1.7 5.65 1.7 31.85 1.7 31.85 1.0 30.05 -1.2 29.4 -1.85 -1.2 -1.85 -6.2 0.5 -6.2 1.5 -5.65 1.8 -5.2 1.8 -5.2 3.3 -4.15 3.95 -0.6 3.95 -0.5 3.6 -0.25 2.3 -0.1 1.7 0.75 1.7 M30.05 -1.2 L32.25 -1.2 32.7 -1.2 33.55 -1.2 34.15 -1.2 35.0 -1.2 35.15 -1.2 36.5 -1.2 37.75 -1.15 37.75 0.95 36.5 1.0 36.5 2.1 37.75 2.1 37.75 3.4 36.5 3.4 35.15 3.4 35.0 3.4 34.35 3.7 28.75 3.7 -0.5 3.6 M32.25 -1.2 L32.25 -0.7 M33.55 -1.2 L33.55 -0.1 M36.5 2.1 L36.5 3.4 M35.15 3.4 L35.15 2.1 30.9 2.1 28.75 2.3 -0.25 2.3 M31.85 1.7 L30.9 2.1 M35.15 1.0 L31.85 1.0 M35.15 2.1 L35.15 1.0 35.15 -1.2 M36.5 -1.2 L36.5 1.0 M-0.6 3.95 L-0.6 5.3 -2.5 5.6 -4.15 3.95 -5.75 4.95 -6.0 6.85 -9.5 6.3 -8.55 2.9 -6.2 1.5" fill="none" stroke="#333333" stroke-linecap="round" stroke-linejoin="round" stroke-width="1.0"/>
    <path d="M-2.2 2.1 L-3.9 2.1 -3.9 3.0 -2.2 3.0 -2.2 2.1" fill="none" stroke="#444444" stroke-linecap="round" stroke-linejoin="round" stroke-width="1.0"/>
    <path d="M21.35 -0.55 L27.7 -0.55 28.75 0.45" fill="none" stroke="#515151" stroke-linecap="round" stroke-linejoin="round" stroke-width="1.0"/>
  </g>
</svg>
