<?xml version="1.0" encoding="UTF-8" standalone="no"?>
<svg xmlns:xlink="http://www.w3.org/1999/xlink" height="4.05px" width="7.95px" xmlns="http://www.w3.org/2000/svg">
  <g transform="matrix(1.0, 0.0, 0.0, 1.0, -20.85, -1.9)">
    <path d="M23.0 5.45 L21.65 5.45 21.35 3.7 21.35 2.4 28.3 2.4 28.3 3.75 28.0 5.45 26.8 5.45 25.6 5.45 24.25 5.45 23.0 5.45 23.0 3.6 23.0 5.45 M24.25 3.7 L24.25 5.45 24.25 3.7 M25.6 3.85 L25.6 5.45 25.6 3.85 M26.8 5.45 L26.8 3.75 26.8 5.45" fill="#3c3c3c" fill-rule="evenodd" stroke="none"/>
    <path d="M23.0 5.45 L21.65 5.45 21.35 3.7 21.35 2.4 28.3 2.4 28.3 3.75 28.0 5.45 26.8 5.45 25.6 5.45 24.25 5.45 23.0 5.45 23.0 3.6 M26.8 3.75 L26.8 5.45 M25.6 5.45 L25.6 3.85 M24.25 5.45 L24.25 3.7" fill="none" stroke="#333333" stroke-linecap="round" stroke-linejoin="round" stroke-width="1.0"/>
  </g>
</svg>
