<?xml version="1.0" encoding="UTF-8" standalone="no"?>
<svg xmlns:xlink="http://www.w3.org/1999/xlink" height="18.95px" width="11.0px" xmlns="http://www.w3.org/2000/svg">
  <g transform="matrix(1.0, 0.0, 0.0, 1.0, 6.65, 4.0)">
    <path d="M3.1 0.9 L2.85 1.45 2.3 1.7 1.7 1.45 1.5 0.9 1.7 0.3 2.3 0.1 2.85 0.3 3.1 0.9" fill="#44b5ff" fill-rule="evenodd" stroke="none"/>
    <path d="M1.1 -0.1 Q1.1 -0.8 0.6 -1.3 0.1 -1.8 -0.6 -1.8 -1.3 -1.8 -1.8 -1.3 -2.3 -0.8 -2.3 -0.1 -2.3 0.6 -1.8 1.1 -1.3 1.6 -0.6 1.6 0.1 1.6 0.6 1.1 1.1 0.6 1.1 -0.1 M3.1 0.9 L2.85 0.3 2.3 0.1 1.7 0.3 1.5 0.9 1.7 1.45 2.3 1.7 2.85 1.45 3.1 0.9 M-3.7 0.35 Q-4.05 -1.35 -2.35 -2.6 -0.7 -3.9 1.7 -3.3 4.1 -2.75 3.85 0.05 L3.75 2.0 Q2.75 3.8 1.9 4.4 0.6 5.35 -0.75 4.95 -2.15 4.6 -2.95 2.95 L-3.7 0.35" fill="url(#gradient0)" fill-rule="evenodd" stroke="none"/>
    <path d="M1.1 -0.1 Q1.1 0.6 0.6 1.1 0.1 1.6 -0.6 1.6 -1.3 1.6 -1.8 1.1 -2.3 0.6 -2.3 -0.1 -2.3 -0.8 -1.8 -1.3 -1.3 -1.8 -0.6 -1.8 0.1 -1.8 0.6 -1.3 1.1 -0.8 1.1 -0.1" fill="url(#gradient1)" fill-rule="evenodd" stroke="none"/>
    <path d="M3.75 2.0 L3.75 1.95 3.5 3.2 1.35 8.25 Q0.8 9.35 0.3 11.1 -0.3 12.6 -1.9 14.1 -3.55 15.6 -4.6 10.45 L-4.45 9.65 -3.65 2.9 Q-3.95 1.0 -3.7 0.35 L-2.95 2.95 Q-2.15 4.6 -0.75 4.95 0.6 5.35 1.9 4.4 2.75 3.8 3.75 2.0" fill="url(#gradient2)" fill-rule="evenodd" stroke="none"/>
    <path d="M3.75 2.0 L3.75 1.95 3.5 3.2 1.35 8.25 Q0.8 9.35 0.3 11.1 -0.3 12.6 -1.9 14.1 -3.55 15.6 -4.6 10.45 L-4.45 9.65 -3.65 2.9 Q-3.95 1.0 -3.7 0.35" fill="none" stroke="#070a0a" stroke-linecap="round" stroke-linejoin="round" stroke-width="1.0"/>
    <path d="M1.1 -0.1 Q1.1 0.6 0.6 1.1 0.1 1.6 -0.6 1.6 -1.3 1.6 -1.8 1.1 -2.3 0.6 -2.3 -0.1 -2.3 -0.8 -1.8 -1.3 -1.3 -1.8 -0.6 -1.8 0.1 -1.8 0.6 -1.3 1.1 -0.8 1.1 -0.1" fill="none" stroke="#121c21" stroke-linecap="round" stroke-linejoin="round" stroke-width="1.0"/>
    <path d="M3.1 0.9 L2.85 1.45 2.3 1.7 1.7 1.45 1.5 0.9 1.7 0.3 2.3 0.1 2.85 0.3 3.1 0.9" fill="none" stroke="#0e1314" stroke-linecap="round" stroke-linejoin="round" stroke-width="1.0"/>
    <path d="M-3.7 0.35 L-2.95 2.95 Q-2.15 4.6 -0.75 4.95 0.6 5.35 1.9 4.4 2.75 3.8 3.75 2.0" fill="none" stroke="#0c1113" stroke-linecap="round" stroke-linejoin="round" stroke-width="1.0"/>
    <path d="M-3.7 0.35 Q-4.05 -1.35 -2.35 -2.6 -0.7 -3.9 1.7 -3.3 4.1 -2.75 3.85 0.05 L3.75 2.0 Z" fill="none" stroke="#0d1215" stroke-linecap="round" stroke-linejoin="round" stroke-width="1.0"/>
    <path d="M1.8 10.9 Q0.85 9.45 -1.3 9.0 -4.05 8.6 -5.8 9.4 -6.35 6.35 -6.05 3.0 -5.65 -5.25 -3.8 0.8 -2.0 6.85 3.05 5.15 3.1 8.5 1.8 10.9" fill="url(#gradient3)" fill-rule="evenodd" stroke="none"/>
    <path d="M1.8 10.9 Q0.85 9.45 -1.3 9.0 -4.05 8.6 -5.8 9.4 -6.35 6.35 -6.05 3.0 -5.65 -5.25 -3.8 0.8 -2.0 6.85 3.05 5.15 3.1 8.5 1.8 10.9 Z" fill="none" stroke="#0d1215" stroke-linecap="round" stroke-linejoin="round" stroke-width="1.0"/>
  </g>
  <defs>
    <radialGradient cx="0" cy="0" gradientTransform="matrix(0.0255, 0.0, 0.0, 0.0255, -2.6, 16.9)" gradientUnits="userSpaceOnUse" id="gradient0" r="819.2" spreadMethod="pad">
      <stop offset="0.0" stop-color="#1d2b38"/>
      <stop offset="0.6588235294117647" stop-color="#27363f"/>
      <stop offset="1.0" stop-color="#4d6277"/>
    </radialGradient>
    <radialGradient cx="0" cy="0" gradientTransform="matrix(0.0209, 0.0, 0.0, 0.0209, -1.5, 14.8)" gradientUnits="userSpaceOnUse" id="gradient1" r="819.2" spreadMethod="pad">
      <stop offset="0.0" stop-color="#1d2b38"/>
      <stop offset="0.6588235294117647" stop-color="#27363f"/>
      <stop offset="1.0" stop-color="#4d6277"/>
    </radialGradient>
    <linearGradient gradientTransform="matrix(0.0018, 0.001, -0.0043, 0.0074, -0.6, 7.55)" gradientUnits="userSpaceOnUse" id="gradient2" spreadMethod="pad" x1="-819.2" x2="819.2">
      <stop offset="0.0" stop-color="#0d0d0d"/>
      <stop offset="1.0" stop-color="#1a1a1a"/>
    </linearGradient>
    <radialGradient cx="0" cy="0" gradientTransform="matrix(0.0225, 0.0, 0.0, 0.0225, -14.6, 10.3)" gradientUnits="userSpaceOnUse" id="gradient3" r="819.2" spreadMethod="pad">
      <stop offset="0.0" stop-color="#1d2b38"/>
      <stop offset="0.6588235294117647" stop-color="#27363f"/>
      <stop offset="1.0" stop-color="#4d6277"/>
    </radialGradient>
  </defs>
</svg>
