<?xml version="1.0" encoding="UTF-8" standalone="no"?>
<svg xmlns:xlink="http://www.w3.org/1999/xlink" height="50.85px" width="29.3px" xmlns="http://www.w3.org/2000/svg">
  <g transform="matrix(1.0, 0.0, 0.0, 1.0, 18.1, 54.35)">
    <path d="M-0.75 -26.65 L4.6 -25.1 7.2 -27.15 Q8.75 -25.4 9.65 -23.15 L7.5 -20.35 7.8 -17.7 9.5 -16.2 8.35 -13.6 7.0 -12.95 5.65 -11.25 3.65 -12.15 0.0 -9.95 -6.45 -10.9 -3.7 -18.7 -3.9 -22.6 -4.15 -26.5 -0.75 -26.65 M1.45 -12.9 L-0.5 -12.25 1.45 -12.9 M1.45 -15.25 L-0.1 -14.7 1.45 -15.25" fill="#615a47" fill-rule="evenodd" stroke="none"/>
    <path d="M-1.25 -29.1 L1.3 -29.25 Q4.05 -29.15 7.2 -27.15 L4.6 -25.1 -0.75 -26.65 -1.25 -29.1" fill="#7c705a" fill-rule="evenodd" stroke="none"/>
    <path d="M-1.25 -4.7 L-1.85 -4.85 -5.35 -5.5 -7.95 -5.5 -9.35 -8.0 -6.45 -10.9 0.0 -9.95 -1.25 -4.7" fill="#484232" fill-rule="evenodd" stroke="none"/>
    <path d="M-15.15 -29.05 L-15.15 -29.1 -15.15 -29.05" fill="#7b6b52" fill-rule="evenodd" stroke="none"/>
    <path d="M-17.25 -26.05 L-16.55 -28.05 -11.95 -23.15 -12.15 -19.55 -12.35 -15.95 Q-14.7 -12.8 -17.2 -13.35 -15.35 -14.35 -15.5 -16.85 L-15.5 -18.9 -15.5 -21.0 -15.5 -22.35 Q-15.55 -24.55 -17.25 -26.05" fill="#4a4531" fill-rule="evenodd" stroke="none"/>
    <path d="M-12.95 -11.85 L-15.4 -11.85 -17.2 -13.35 Q-14.7 -12.8 -12.35 -15.95 L-11.35 -12.45 -12.95 -11.85" fill="#615642" fill-rule="evenodd" stroke="none"/>
    <path d="M-1.25 -29.1 L-0.75 -26.65 -4.15 -26.5 -7.6 -26.35 -8.15 -28.9 -1.25 -29.1 M-16.55 -28.05 L-15.15 -29.05 -12.05 -26.5 -7.6 -26.35 -6.1 -22.6 -3.9 -22.6 -3.7 -18.7 -12.15 -19.55 -3.7 -18.7 -6.45 -10.9 -9.8 -13.1 -11.35 -12.45 -12.35 -15.95 -12.15 -19.55 -11.95 -23.15 -16.55 -28.05" fill="#453f2f" fill-rule="evenodd" stroke="none"/>
    <path d="M5.65 -11.25 L6.95 -10.7 Q4.9 -4.85 4.2 -4.55 L1.65 -4.05 Q0.7 -3.85 -1.25 -4.7 L0.0 -9.95 3.65 -12.15 5.65 -11.25" fill="#5e563f" fill-rule="evenodd" stroke="none"/>
    <path d="M-9.35 -8.0 L-9.45 -10.5 -12.95 -11.85 -11.35 -12.45 -9.8 -13.1 -6.45 -10.9 -9.35 -8.0 M-7.6 -26.35 L-4.15 -26.5 -3.9 -22.6 -6.1 -22.6 -7.6 -26.35" fill="#4d4433" fill-rule="evenodd" stroke="none"/>
    <path d="M9.65 -23.15 L10.7 -18.85 9.5 -16.2 7.8 -17.7 7.5 -20.35 9.65 -23.15 M-17.2 -13.35 L-17.45 -16.85 -17.6 -19.1 -17.6 -21.4 -17.5 -23.45 -17.25 -26.05 Q-15.55 -24.55 -15.5 -22.35 L-15.5 -21.0 -15.5 -18.9 -15.5 -16.85 Q-15.35 -14.35 -17.2 -13.35 M-15.15 -29.05 L-15.15 -29.1 -14.3 -31.25 -10.7 -31.65 -8.15 -28.9 -7.6 -26.35 -12.05 -26.5 -15.15 -29.05 M-17.6 -19.1 L-15.5 -18.9 -17.6 -19.1 M-15.5 -16.85 L-17.45 -16.85 -15.5 -16.85 M-15.5 -21.0 L-17.6 -21.4 -15.5 -21.0" fill="#ff3333" fill-rule="evenodd" stroke="none"/>
    <path d="M7.2 -27.15 Q4.05 -29.15 1.3 -29.25 L-1.25 -29.1 -0.75 -26.65 M7.2 -27.15 Q8.75 -25.4 9.65 -23.15 L10.7 -18.85 9.5 -16.2 8.35 -13.6 7.0 -12.95 5.65 -11.25 6.95 -10.7 Q4.9 -4.85 4.2 -4.55 L1.65 -4.05 Q0.7 -3.85 -1.25 -4.7 L-1.85 -4.85 -5.35 -5.5 -7.95 -5.5 -9.35 -8.0 -9.45 -10.5 -12.95 -11.85 -15.4 -11.85 -17.2 -13.35 -17.45 -16.85 -17.6 -19.1 -17.6 -21.4 -17.5 -23.45 -17.25 -26.05 -16.55 -28.05 -15.15 -29.05 -15.15 -29.1 -14.3 -31.25 -10.7 -31.65 -8.15 -28.9 -1.25 -29.1 M5.65 -11.25 L3.65 -12.15 0.0 -9.95 -1.25 -4.7 M-15.15 -29.05 L-15.15 -29.1 M-3.9 -22.6 L-6.1 -22.6 -7.6 -26.35 M-16.55 -28.05 L-11.95 -23.15 -12.15 -19.55 -3.7 -18.7 M-6.45 -10.9 L0.0 -9.95 M-17.25 -26.05 Q-15.55 -24.55 -15.5 -22.35 L-15.5 -21.0 -15.5 -18.9 -15.5 -16.85 Q-15.35 -14.35 -17.2 -13.35 -14.7 -12.8 -12.35 -15.95 L-12.15 -19.55 M-12.35 -15.95 L-11.35 -12.45 -9.8 -13.1 -6.45 -10.9 -9.35 -8.0 M-12.95 -11.85 L-11.35 -12.45 M-0.1 -14.7 L1.45 -15.25 M-0.5 -12.25 L1.45 -12.9" fill="none" stroke="#232018" stroke-linecap="round" stroke-linejoin="round" stroke-width="1.0"/>
    <path d="M-0.75 -26.65 L4.6 -25.1 7.2 -27.15 M9.5 -16.2 L7.8 -17.7 7.5 -20.35 9.65 -23.15 M-7.6 -26.35 L-12.05 -26.5 -15.15 -29.05 M-8.15 -28.9 L-7.6 -26.35 -4.15 -26.5 -0.75 -26.65 M-3.7 -18.7 L-3.9 -22.6 -4.15 -26.5 M-3.7 -18.7 L-6.45 -10.9 M-15.5 -18.9 L-17.6 -19.1 M-17.6 -21.4 L-15.5 -21.0 M-17.45 -16.85 L-15.5 -16.85" fill="none" stroke="#3d3429" stroke-linecap="round" stroke-linejoin="round" stroke-width="1.0"/>
    <path d="M-15.15 -29.1 L-15.15 -53.85" fill="none" stroke="#232018" stroke-linecap="round" stroke-linejoin="round" stroke-opacity="0.5019608" stroke-width="1.0"/>
  </g>
</svg>
