<?xml version="1.0" encoding="UTF-8" standalone="no"?>
<svg xmlns:xlink="http://www.w3.org/1999/xlink" height="22.4px" width="12.6px" xmlns="http://www.w3.org/2000/svg">
  <g transform="matrix(1.0, 0.0, 0.0, 1.0, 5.75, 7.55)">
    <path d="M3.9 6.25 L0.3 6.25 -0.85 -0.45 3.9 -1.15 3.9 6.25" fill="#e38902" fill-rule="evenodd" stroke="none"/>
    <path d="M1.2 -2.95 L3.15 -3.45 2.6 -5.4 0.7 -4.85 1.2 -2.95 M5.7 12.5 Q4.5 14.3 2.1 14.35 -0.3 14.4 -1.1 12.5 L-3.15 6.05 -5.05 -0.45 Q-6.1 -4.35 -1.4 -6.4 3.25 -8.45 5.7 -4.1 7.05 -2.3 5.7 12.5 M0.65 11.6 L3.65 11.6 3.65 8.6 0.65 8.6 0.65 11.6 M3.9 6.25 L3.9 -1.15 -0.85 -0.45 0.3 6.25 3.9 6.25 M-2.35 -2.05 L-0.4 -2.55 -0.95 -4.5 -2.85 -3.95 -2.35 -2.05" fill="#333333" fill-rule="evenodd" stroke="none"/>
    <path d="M1.2 -2.95 L0.7 -4.85 2.6 -5.4 3.15 -3.45 1.2 -2.95 M0.65 11.6 L0.65 8.6 3.65 8.6 3.65 11.6 0.65 11.6 M-2.35 -2.05 L-2.85 -3.95 -0.95 -4.5 -0.4 -2.55 -2.35 -2.05" fill="#cc0000" fill-rule="evenodd" stroke="none"/>
    <path d="M1.2 -2.95 L0.7 -4.85 2.6 -5.4 3.15 -3.45 1.2 -2.95 M5.7 12.5 Q7.05 -2.3 5.7 -4.1 3.25 -8.45 -1.4 -6.4 -6.1 -4.35 -5.05 -0.45 L-3.15 6.05 -1.1 12.5 Q-0.3 14.4 2.1 14.35 4.5 14.3 5.7 12.5 M0.65 11.6 L0.65 8.6 3.65 8.6 3.65 11.6 0.65 11.6 M3.9 6.25 L3.9 -1.15 -0.85 -0.45 0.3 6.25 3.9 6.25 M-2.35 -2.05 L-2.85 -3.95 -0.95 -4.5 -0.4 -2.55 -2.35 -2.05" fill="none" stroke="#1a1a1a" stroke-linecap="round" stroke-linejoin="round" stroke-width="1.0"/>
  </g>
</svg>
