<?xml version="1.0" encoding="UTF-8" standalone="no"?>
<svg xmlns:xlink="http://www.w3.org/1999/xlink" height="20.95px" width="14.85px" xmlns="http://www.w3.org/2000/svg">
  <g transform="matrix(1.0, 0.0, 0.0, 1.0, 9.6, 4.0)">
    <path d="M3.8 7.1 L1.8 6.45 Q1.4 6.2 1.15 4.65 L1.1 4.65 Q0.45 3.75 -0.65 3.25 L-1.45 2.95 -2.2 2.75 -4.2 2.7 Q-5.15 3.65 -6.15 3.45 L-7.65 2.9 Q-7.1 1.45 -6.15 0.05 -3.3 -4.4 1.05 -3.3 5.4 -2.15 4.65 3.4 L3.8 7.1" fill="#323232" fill-rule="evenodd" stroke="none"/>
    <path d="M3.0 8.75 L2.8 8.75 1.4 9.05 -0.95 9.5 -2.2 10.75 -3.75 10.8 Q-5.45 10.55 -6.1 9.25 L-5.95 7.65 -7.0 5.95 -5.95 7.65 -6.1 9.25 Q-5.45 10.55 -3.75 10.8 L-2.2 10.75 -0.95 9.5 1.4 9.05 Q0.1 13.1 -1.95 15.05 -3.85 16.85 -5.6 16.35 -7.3 15.85 -7.8 13.35 L-7.95 11.05 -8.45 10.7 Q-9.15 10.05 -9.1 9.3 -9.0 8.55 -8.3 8.3 L-7.5 8.25 -7.0 5.95 -8.2 4.7 -8.1 4.2 -7.65 2.9 -6.15 3.45 Q-5.15 3.65 -4.2 2.7 L-2.2 2.75 -1.45 2.95 -0.65 3.25 Q0.45 3.75 1.1 4.65 L1.15 4.65 Q1.4 6.2 1.8 6.45 L3.8 7.1 3.1 8.7 3.0 8.75 M-7.5 8.25 Q-7.05 8.25 -6.45 8.55 -7.05 8.25 -7.5 8.25 M-6.05 11.55 L-7.95 11.05 -6.05 11.55 M-4.8 6.55 L-1.35 7.85 -4.8 6.55 -6.15 5.1 -4.8 6.55 M-1.35 7.85 L1.0 7.6 -1.35 7.85" fill="#444444" fill-rule="evenodd" stroke="none"/>
    <path d="M1.4 9.05 L2.8 8.75 3.0 8.75 M3.1 8.7 L3.8 7.1 4.65 3.4 Q5.4 -2.15 1.05 -3.3 -3.3 -4.4 -6.15 0.05 -7.1 1.45 -7.65 2.9 L-8.1 4.2 M-8.2 4.7 L-7.0 5.95 M-7.95 11.05 L-8.45 10.7 Q-9.15 10.05 -9.1 9.3 -9.0 8.55 -8.3 8.3 L-7.5 8.25" fill="none" stroke="#1a1a1a" stroke-linecap="round" stroke-linejoin="round" stroke-width="1.0"/>
    <path d="M3.0 8.75 L3.1 8.7 M-8.1 4.2 L-8.2 4.7" fill="none" stroke="#1a1a1a" stroke-linecap="butt" stroke-linejoin="round" stroke-width="1.0"/>
    <path d="M-1.35 7.85 L-4.8 6.55" fill="none" stroke="#df930b" stroke-linecap="round" stroke-linejoin="round" stroke-width="1.0"/>
    <path d="M3.8 7.1 L1.8 6.45 Q1.4 6.2 1.15 4.65 L1.1 4.65 Q0.45 3.75 -0.65 3.25 L-1.45 2.95 -2.2 2.75 -4.2 2.7 Q-5.15 3.65 -6.15 3.45 L-7.65 2.9" fill="none" stroke="#171717" stroke-linecap="round" stroke-linejoin="round" stroke-width="1.0"/>
    <path d="M-7.0 5.95 L-5.95 7.65 -6.1 9.25 Q-5.45 10.55 -3.75 10.8 L-2.2 10.75 -0.95 9.5 1.4 9.05 M-7.95 11.05 L-6.05 11.55 M-6.45 8.55 Q-7.05 8.25 -7.5 8.25" fill="none" stroke="#252525" stroke-linecap="round" stroke-linejoin="round" stroke-width="1.0"/>
    <path d="M-4.8 6.55 L-6.15 5.1 M1.0 7.6 L-1.35 7.85" fill="none" stroke="#a86d03" stroke-linecap="round" stroke-linejoin="round" stroke-width="1.0"/>
    <path d="M1.4 9.05 Q0.1 13.1 -1.95 15.05 -3.85 16.85 -5.6 16.35 -7.3 15.85 -7.8 13.35 L-7.95 11.05 M-7.5 8.25 L-7.0 5.95" fill="none" stroke="#1a1a1a" stroke-linecap="round" stroke-linejoin="miter-clip" stroke-miterlimit="4.0" stroke-width="1.0"/>
    <path d="M2.45 -0.05 L2.15 0.8 1.5 0.55 1.8 1.8 1.75 1.85 1.45 2.7 -0.3 2.05 0.0 1.2 0.65 1.4 0.35 0.2 0.7 -0.75 2.45 -0.05 M-1.1 -0.45 L-1.5 0.6 -0.6 1.0 -0.95 1.8 -2.7 1.15 -1.65 -1.55 0.1 -0.95 -0.2 -0.05 -1.1 -0.45" fill="#ffffff" fill-opacity="0.5686275" fill-rule="evenodd" stroke="none"/>
  </g>
</svg>
