<?xml version="1.0" encoding="UTF-8" standalone="no"?>
<svg xmlns:ffdec="https://www.free-decompiler.com/flash" xmlns:xlink="http://www.w3.org/1999/xlink" ffdec:objectType="shape" height="12.4px" width="17.9px" xmlns="http://www.w3.org/2000/svg">
  <g transform="matrix(1.0, 0.0, 0.0, 1.0, -4.5, 5.6)">
    <path d="M20.35 6.3 L11.1 6.3 6.4 2.8 21.9 2.8 20.35 6.3" fill="#808080" fill-rule="evenodd" stroke="none"/>
    <path d="M9.1 -5.0 L20.85 -5.1 Q18.75 -1.35 15.4 -0.75 L11.25 -0.45 7.85 -0.8 5.0 -2.95 9.1 -5.0" fill="#224155" fill-rule="evenodd" stroke="none"/>
    <path d="M20.35 6.3 L11.1 6.3 6.4 2.8 21.9 2.8 20.35 6.3" fill="none" stroke="#4d4d4d" stroke-linecap="round" stroke-linejoin="round" stroke-width="1.0"/>
    <path d="M20.85 -5.1 L9.1 -5.0" fill="none" stroke="#162b36" stroke-linecap="round" stroke-linejoin="round" stroke-width="1.0"/>
    <path d="M9.1 -5.0 L5.0 -2.95 7.85 -0.8 11.25 -0.45 15.4 -0.75 Q18.75 -1.35 20.85 -5.1" fill="none" stroke="#5e5e5e" stroke-linecap="round" stroke-linejoin="round" stroke-width="1.0"/>
  </g>
</svg>
