<?xml version="1.0" encoding="UTF-8" standalone="no"?>
<svg xmlns:xlink="http://www.w3.org/1999/xlink" height="28.65px" width="24.5px" xmlns="http://www.w3.org/2000/svg">
  <g transform="matrix(1.0, 0.0, 0.0, 1.0, 13.3, 32.15)">
    <path d="M7.2 -27.15 L4.6 -25.1 -0.75 -26.65 -1.25 -29.1 -0.75 -26.65 -3.5 -26.5 -5.9 -26.35 -8.95 -26.5 -11.1 -29.05 -10.5 -31.25 -8.05 -31.65 -6.3 -28.9 -2.1 -29.1 -1.25 -29.1 1.3 -29.25 Q4.05 -29.15 7.2 -27.15 M9.5 -16.2 L4.9 -17.9 5.4 -22.45 9.65 -23.15 10.7 -18.85 9.5 -16.2 M-9.6 -11.85 L-11.3 -11.85 -12.5 -13.35 Q-10.8 -12.8 -9.2 -15.95 L-8.5 -12.45 -9.6 -11.85 M-5.9 -26.35 L-6.3 -28.9 -5.9 -26.35" fill="#161b1d" fill-rule="evenodd" stroke="none"/>
    <path d="M-0.75 -26.65 L4.6 -25.1 7.2 -27.15 Q8.75 -25.4 9.65 -23.15 L5.4 -22.45 4.9 -17.9 9.5 -16.2 8.35 -13.6 7.0 -12.95 5.65 -11.25 3.65 -12.15 0.0 -9.95 -2.1 -10.25 -5.1 -10.9 -3.2 -18.7 -3.35 -22.6 -3.5 -26.5 -0.75 -26.65 M1.45 -12.9 L-0.5 -12.25 1.45 -12.9 M1.45 -15.25 L-0.1 -14.7 1.45 -15.25" fill="url(#gradient0)" fill-rule="evenodd" stroke="none"/>
    <path d="M-12.5 -13.35 L-12.7 -16.85 -12.8 -19.1 -12.8 -21.4 -12.75 -23.45 -12.55 -26.05 Q-11.4 -24.55 -11.35 -22.35 L-11.35 -21.0 -11.35 -18.9 -11.35 -16.85 Q-11.25 -14.35 -12.5 -13.35" fill="#5093bf" fill-rule="evenodd" stroke="none"/>
    <path d="M-12.55 -26.05 L-12.05 -28.05 -8.9 -23.15 -9.05 -19.55 -9.2 -15.95 Q-10.8 -12.8 -12.5 -13.35 -11.25 -14.35 -11.35 -16.85 L-11.35 -18.9 -11.35 -21.0 -11.35 -22.35 Q-11.4 -24.55 -12.55 -26.05" fill="#3c4e5e" fill-rule="evenodd" stroke="none"/>
    <path d="M-3.35 -22.6 L-3.2 -18.7 -5.1 -10.9 -7.4 -13.1 -8.5 -12.45 -9.2 -15.95 -9.05 -19.55 -8.9 -23.15 -12.05 -28.05 -11.1 -29.05 -8.95 -26.5 -5.9 -26.35 -4.85 -22.6 -3.35 -22.6 M-3.2 -18.7 L-9.05 -19.55 -3.2 -18.7" fill="#151c1e" fill-rule="evenodd" stroke="none"/>
    <path d="M-3.5 -26.5 L-3.35 -22.6 -4.85 -22.6 -5.9 -26.35 -3.5 -26.5 M-7.1 -8.0 L-9.6 -9.75 -9.6 -11.85 -8.5 -12.45 -7.4 -13.1 -5.1 -10.9 -7.1 -8.0" fill="#26353e" fill-rule="evenodd" stroke="none"/>
    <path d="M-5.1 -10.9 L-2.1 -10.25 0.0 -9.95 3.65 -12.15 5.65 -11.25 4.2 -4.55 1.65 -4.05 Q0.7 -3.85 -1.25 -4.7 L-1.85 -4.85 -2.1 -4.9 -4.35 -5.5 -6.15 -5.5 -7.1 -8.0 -5.1 -10.9 M-1.4 -6.25 L-0.7 -8.25 -3.5 -8.95 -4.9 -6.95 -1.4 -6.25" fill="#1a1a1a" fill-rule="evenodd" stroke="none"/>
    <path d="M-1.4 -6.25 L-4.9 -6.95 -3.5 -8.95 -0.7 -8.25 -1.4 -6.25" fill="#4d4d4d" fill-rule="evenodd" stroke="none"/>
    <path d="M7.2 -27.15 Q4.05 -29.15 1.3 -29.25 L-1.25 -29.1 -2.1 -29.1 -6.3 -28.9 -8.05 -31.65 -10.5 -31.25 -11.1 -29.05 -12.05 -28.05 -8.9 -23.15 -9.05 -19.55 -3.2 -18.7 M5.65 -11.25 L7.0 -12.95 8.35 -13.6 9.5 -16.2 10.7 -18.85 9.65 -23.15 Q8.75 -25.4 7.2 -27.15 M5.65 -11.25 L4.2 -4.55 1.65 -4.05 Q0.7 -3.85 -1.25 -4.7 L-1.85 -4.85 -2.1 -4.9 -4.35 -5.5 -6.15 -5.5 -7.1 -8.0 -9.6 -9.75 -9.6 -11.85 -11.3 -11.85 -12.5 -13.35 Q-11.25 -14.35 -11.35 -16.85 L-11.35 -18.9 -11.35 -21.0 -11.35 -22.35 Q-11.4 -24.55 -12.55 -26.05 L-12.05 -28.05 M-5.9 -26.35 L-8.95 -26.5 -11.1 -29.05 M-8.5 -12.45 L-7.4 -13.1 -5.1 -10.9 M-9.2 -15.95 L-8.5 -12.45 -9.6 -11.85 M-9.05 -19.55 L-9.2 -15.95 Q-10.8 -12.8 -12.5 -13.35" fill="none" stroke="#070a0a" stroke-linecap="round" stroke-linejoin="round" stroke-width="1.0"/>
    <path d="M-0.75 -26.65 L4.6 -25.1 7.2 -27.15 M-1.25 -29.1 L-0.75 -26.65 -3.5 -26.5 -3.35 -22.6 -3.2 -18.7 -5.1 -10.9 -2.1 -10.25 0.0 -9.95 3.65 -12.15 5.65 -11.25 M9.5 -16.2 L4.9 -17.9 5.4 -22.45 9.65 -23.15 M-6.3 -28.9 L-5.9 -26.35 -3.5 -26.5 M-5.9 -26.35 L-4.85 -22.6 -3.35 -22.6 M-5.1 -10.9 L-7.1 -8.0 M-0.1 -14.7 L1.45 -15.25 M-0.5 -12.25 L1.45 -12.9" fill="none" stroke="#0c1113" stroke-linecap="round" stroke-linejoin="round" stroke-width="1.0"/>
    <path d="M-1.4 -6.25 L-4.9 -6.95 -3.5 -8.95 -0.7 -8.25 -1.4 -6.25" fill="none" stroke="#111111" stroke-linecap="round" stroke-linejoin="round" stroke-width="1.0"/>
    <path d="M-12.5 -13.35 L-12.7 -16.85 -12.8 -19.1 -12.8 -21.4 -12.75 -23.45 -12.55 -26.05" fill="none" stroke="#090909" stroke-linecap="round" stroke-linejoin="round" stroke-opacity="0.3019608" stroke-width="1.0"/>
  </g>
  <defs>
    <radialGradient cx="0" cy="0" gradientTransform="matrix(0.0312, 0.0, 0.0, 0.0312, -10.75, -10.1)" gradientUnits="userSpaceOnUse" id="gradient0" r="819.2" spreadMethod="pad">
      <stop offset="0.0" stop-color="#1d2b38"/>
      <stop offset="0.6588235294117647" stop-color="#27363f"/>
      <stop offset="1.0" stop-color="#4d6277"/>
    </radialGradient>
  </defs>
</svg>
