<?xml version="1.0" encoding="UTF-8" standalone="no"?>
<svg xmlns:xlink="http://www.w3.org/1999/xlink" height="22.3px" width="17.05px" xmlns="http://www.w3.org/2000/svg">
  <g transform="matrix(1.0, 0.0, 0.0, 1.0, 12.3, 6.4)">
    <path d="M-7.25 9.0 Q-10.25 9.15 -11.25 8.25 -12.4 6.8 -11.15 4.15 -9.75 1.4 -7.5 0.25 -5.3 -0.7 -2.3 -1.05 0.2 -0.95 1.25 -1.8 2.35 -2.25 2.65 -1.65 2.7 -1.25 3.2 -1.0 3.7 -0.75 2.7 1.55 1.65 3.8 0.0 5.3 L-1.25 6.15 -3.1 7.3 -5.25 8.4 -7.25 9.0 M-11.25 8.25 Q-8.8 6.45 -7.15 4.2 L-8.2 2.65 -7.15 4.2 Q-8.8 6.45 -11.25 8.25" fill="url(#gradient0)" fill-rule="evenodd" stroke="none"/>
    <path d="M0.0 5.3 L1.95 13.9 0.55 14.0 -1.25 6.15 0.0 5.3 M-5.25 8.4 Q-2.7 11.1 -0.7 14.55 -1.3 14.8 -2.3 15.4 L-7.25 9.0 -5.25 8.4" fill="#121718" fill-rule="evenodd" stroke="none"/>
    <path d="M-7.25 9.0 Q-10.25 9.15 -11.25 8.25 -12.4 6.8 -11.15 4.15 -9.75 1.4 -7.5 0.25 -5.3 -0.7 -2.3 -1.05 0.2 -0.95 1.25 -1.8 2.35 -2.25 2.65 -1.65 2.7 -1.25 3.2 -1.0 3.7 -0.75 2.7 1.55 1.65 3.8 0.0 5.3 L1.95 13.9 0.55 14.0 -1.25 6.15 -3.1 7.3 -5.25 8.4 Q-2.7 11.1 -0.7 14.55 -1.3 14.8 -2.3 15.4 L-7.25 9.0 -5.25 8.4 M0.0 5.3 L-1.25 6.15" fill="none" stroke="#070a0a" stroke-linecap="round" stroke-linejoin="round" stroke-width="1.0"/>
    <path d="M-8.2 2.65 L-7.15 4.2 Q-8.8 6.45 -11.25 8.25" fill="none" stroke="#131d20" stroke-linecap="round" stroke-linejoin="round" stroke-width="1.0"/>
    <path d="M4.05 -2.15 Q3.75 -1.35 1.75 0.4 L1.2 0.45 Q0.15 -2.6 0.6 -5.1 2.3 -6.45 3.85 -5.45 L4.1 -4.65 Q4.4 -3.25 4.05 -2.15" fill="url(#gradient1)" fill-rule="evenodd" stroke="none"/>
    <path d="M4.05 -2.15 Q3.75 -1.35 1.75 0.4 L1.2 0.45 Q0.15 -2.6 0.6 -5.1 2.3 -6.45 3.85 -5.45 L4.1 -4.65 Q4.4 -3.25 4.05 -2.15 Z" fill="none" stroke="#070a0a" stroke-linecap="round" stroke-linejoin="round" stroke-width="1.0"/>
  </g>
  <defs>
    <radialGradient cx="0" cy="0" gradientTransform="matrix(0.0361, 0.0, 0.0, 0.0361, 4.7, 26.95)" gradientUnits="userSpaceOnUse" id="gradient0" r="819.2" spreadMethod="pad">
      <stop offset="0.0" stop-color="#1d2b38"/>
      <stop offset="0.6588235294117647" stop-color="#27363f"/>
      <stop offset="1.0" stop-color="#4d6277"/>
    </radialGradient>
    <radialGradient cx="0" cy="0" gradientTransform="matrix(0.0274, 0.0, 0.0, 0.0274, -12.55, 8.95)" gradientUnits="userSpaceOnUse" id="gradient1" r="819.2" spreadMethod="pad">
      <stop offset="0.0" stop-color="#1d2b38"/>
      <stop offset="0.6588235294117647" stop-color="#27363f"/>
      <stop offset="1.0" stop-color="#4d6277"/>
    </radialGradient>
  </defs>
</svg>
