<?xml version="1.0" encoding="UTF-8" standalone="no"?>
<svg xmlns:ffdec="https://www.free-decompiler.com/flash" xmlns:xlink="http://www.w3.org/1999/xlink" ffdec:objectType="shape" height="16.9px" width="44.6px" xmlns="http://www.w3.org/2000/svg">
  <g transform="matrix(1.0, 0.0, 0.0, 1.0, -12.5, 10.0)">
    <path d="M17.45 -8.8 L30.65 -8.4 45.5 -6.65 Q57.1 -4.5 57.1 -1.45 57.1 1.55 45.5 3.75 L30.65 5.5 17.45 5.9 15.65 5.9 15.3 5.9 15.3 -8.8 15.65 -8.8 17.45 -8.8" fill="url(#gradient0)" fill-rule="evenodd" stroke="none"/>
    <path d="M15.4 6.9 L15.2 6.9 Q14.05 6.9 13.3 4.45 12.5 1.95 12.5 -1.55 12.5 -5.0 13.3 -7.5 14.05 -10.0 15.2 -10.0 L15.4 -9.95 15.4 6.9" fill="url(#gradient1)" fill-rule="evenodd" stroke="none"/>
    <path d="M15.4 -9.95 L15.6 -10.0 Q16.7 -10.0 17.5 -7.5 18.3 -5.0 18.3 -1.55 18.3 1.95 17.5 4.45 16.7 6.9 15.6 6.9 L15.4 6.9 15.4 -9.95" fill="url(#gradient2)" fill-rule="evenodd" stroke="none"/>
  </g>
  <defs>
    <radialGradient cx="0" cy="0" gradientTransform="matrix(0.0, 0.008, -0.0484, 0.0, 17.4, -1.45)" gradientUnits="userSpaceOnUse" id="gradient0" r="819.2" spreadMethod="pad">
      <stop offset="0.0" stop-color="#ffffff"/>
      <stop offset="0.5372549019607843" stop-color="#3399ff" stop-opacity="0.0"/>
      <stop offset="1.0" stop-color="#000a5e" stop-opacity="0.0"/>
    </radialGradient>
    <radialGradient cx="0" cy="0" gradientTransform="matrix(0.0, 0.0092, 0.0033, 0.0, 15.2, -1.55)" gradientUnits="userSpaceOnUse" id="gradient1" r="819.2" spreadMethod="pad">
      <stop offset="0.17647058823529413" stop-color="#ffffff"/>
      <stop offset="1.0" stop-color="#139ffd" stop-opacity="0.0"/>
    </radialGradient>
    <radialGradient cx="0" cy="0" gradientTransform="matrix(0.0, 0.0092, -0.0033, 0.0, 15.55, -1.55)" gradientUnits="userSpaceOnUse" id="gradient2" r="819.2" spreadMethod="pad">
      <stop offset="0.17647058823529413" stop-color="#ffffff"/>
      <stop offset="1.0" stop-color="#139ffd" stop-opacity="0.0"/>
    </radialGradient>
  </defs>
</svg>
