<?xml version="1.0" encoding="UTF-8" standalone="no"?>
<svg xmlns:xlink="http://www.w3.org/1999/xlink" height="20.55px" width="11.9px" xmlns="http://www.w3.org/2000/svg">
  <g transform="matrix(1.0, 0.0, 0.0, 1.0, 7.15, 3.05)">
    <path d="M0.05 8.4 L0.05 8.45 0.05 8.4" fill="#7e6a3d" fill-rule="evenodd" stroke="none"/>
    <path d="M-2.55 14.2 L-2.5 14.25 -2.55 14.35 -2.55 14.2" fill="#f0c468" fill-rule="evenodd" stroke="none"/>
    <path d="M-5.05 6.9 Q-4.65 1.95 -3.3 0.05 -1.95 -1.8 -0.1 -2.35 1.8 -3.0 3.4 -1.75 4.95 -0.6 3.7 3.15 2.4 6.85 0.05 8.45 L0.05 8.4 Q-0.8 6.15 -2.25 6.0 -3.7 5.8 -4.9 6.95 L-5.05 6.9 M-2.55 14.35 L-2.5 15.6 Q-4.85 18.45 -6.6 15.6 L-6.65 14.15 -6.65 13.15 Q-4.7 12.75 -2.55 14.2 L-2.55 14.35 M1.9 3.25 L2.5 0.1 1.9 3.25 M0.15 1.75 L0.75 -0.25 0.15 1.75 M-2.1 2.5 L-0.75 -0.4 -2.1 2.5" fill="#cccccc" fill-rule="evenodd" stroke="none"/>
    <path d="M0.05 8.45 L-1.4 12.25 -1.9 13.4 -2.55 14.2 Q-4.7 12.75 -6.65 13.15 L-6.0 10.2 Q-5.75 8.85 -4.95 7.0 -3.2 9.1 0.05 8.4 L0.05 8.45 M-2.25 10.25 L-4.1 9.5 -2.25 10.25 M-3.1 12.0 L-4.75 11.5 -3.1 12.0" fill="#666666" fill-rule="evenodd" stroke="none"/>
    <path d="M-4.95 7.0 L-4.9 6.95 Q-3.7 5.8 -2.25 6.0 -0.8 6.15 0.05 8.4 -3.2 9.1 -4.95 7.0" fill="#990000" fill-rule="evenodd" stroke="none"/>
    <path d="M-2.55 14.2 L-2.5 14.25 -2.55 14.35 -2.55 14.2 M-4.95 7.0 L-4.9 6.95 -5.05 6.9 M0.05 8.45 L0.05 8.4 0.05 8.45" fill="none" stroke="#000000" stroke-linecap="round" stroke-linejoin="round" stroke-width="1.0"/>
    <path d="M-5.05 6.9 Q-4.65 1.95 -3.3 0.05 -1.95 -1.8 -0.1 -2.35 1.8 -3.0 3.4 -1.75 4.95 -0.6 3.7 3.15 2.4 6.85 0.05 8.45 L-1.4 12.25 -1.9 13.4 -2.55 14.2 Q-4.7 12.75 -6.65 13.15 L-6.0 10.2 Q-5.75 8.85 -4.95 7.0 M-2.55 14.35 L-2.5 15.6 Q-4.85 18.45 -6.6 15.6 L-6.65 14.15 -6.65 13.15 M-4.75 11.5 L-3.1 12.0 M-4.1 9.5 L-2.25 10.25" fill="none" stroke="#333333" stroke-linecap="round" stroke-linejoin="round" stroke-width="1.0"/>
    <path d="M2.5 0.1 L1.9 3.25 M-0.75 -0.4 L-2.1 2.5 M0.75 -0.25 L0.15 1.75" fill="none" stroke="#666666" stroke-linecap="round" stroke-linejoin="round" stroke-width="1.0"/>
    <path d="M0.05 8.4 Q-0.8 6.15 -2.25 6.0 -3.7 5.8 -4.9 6.95 M-4.95 7.0 Q-3.2 9.1 0.05 8.4" fill="none" stroke="#660000" stroke-linecap="round" stroke-linejoin="round" stroke-width="1.0"/>
  </g>
</svg>
