<?xml version="1.0" encoding="UTF-8" standalone="no"?>
<svg xmlns:ffdec="https://www.free-decompiler.com/flash" xmlns:xlink="http://www.w3.org/1999/xlink" ffdec:objectType="shape" height="11.5px" width="21.25px" xmlns="http://www.w3.org/2000/svg">
  <g transform="matrix(1.0, 0.0, 0.0, 1.0, 10.55, 0.85)">
    <path d="M2.05 6.85 L0.25 5.05 2.0 3.25 0.25 5.05 2.05 6.85 M9.7 0.15 L4.7 9.65 -4.55 9.65 -9.55 0.15 9.7 0.15 M-1.45 3.35 L0.25 5.05 -1.6 6.85 0.25 5.05 -1.45 3.35" fill="#666666" fill-rule="evenodd" stroke="none"/>
    <path d="M2.0 3.25 L0.25 5.05 2.05 6.85 M9.7 0.15 L-9.55 0.15 -4.55 9.65 4.7 9.65 9.7 0.15 M-1.6 6.85 L0.25 5.05 -1.45 3.35" fill="none" stroke="#333333" stroke-linecap="round" stroke-linejoin="round" stroke-width="2.0"/>
  </g>
</svg>
