<?xml version="1.0" encoding="UTF-8" standalone="no"?>
<svg xmlns:xlink="http://www.w3.org/1999/xlink" height="4.05px" width="7.95px" xmlns="http://www.w3.org/2000/svg">
  <g transform="matrix(1.0, 0.0, 0.0, 1.0, -8.35, -1.85)">
    <path d="M14.3 5.4 L14.3 3.7 14.3 5.4 13.1 5.4 11.75 5.4 10.5 5.4 9.15 5.4 8.85 3.65 8.85 2.35 15.8 2.35 15.8 3.7 15.5 5.4 14.3 5.4 M13.1 3.8 L13.1 5.4 13.1 3.8 M10.5 3.55 L10.5 5.4 10.5 3.55 M11.75 3.65 L11.75 5.4 11.75 3.65" fill="#3c3c3c" fill-rule="evenodd" stroke="none"/>
    <path d="M14.3 3.7 L14.3 5.4 15.5 5.4 15.8 3.7 15.8 2.35 8.85 2.35 8.85 3.65 9.15 5.4 10.5 5.4 10.5 3.55 M13.1 5.4 L13.1 3.8 M10.5 5.4 L11.75 5.4 11.75 3.65 M14.3 5.4 L13.1 5.4 11.75 5.4" fill="none" stroke="#333333" stroke-linecap="round" stroke-linejoin="round" stroke-width="1.0"/>
  </g>
</svg>
