<?xml version="1.0" encoding="UTF-8" standalone="no"?>
<svg xmlns:xlink="http://www.w3.org/1999/xlink" height="10.9px" width="12.95px" xmlns="http://www.w3.org/2000/svg">
  <g transform="matrix(1.0, 0.0, 0.0, 1.0, 7.15, 6.8)">
    <path d="M-5.3 2.8 Q-6.85 2.85 -6.6 -0.9 -6.4 -4.65 -5.45 -5.3 -4.5 -6.0 -3.8 -5.6 -1.75 -1.3 -5.3 2.8" fill="#ffffff" fill-rule="evenodd" stroke="none"/>
    <path d="M-3.8 -5.6 Q-3.0 -6.45 -1.7 -6.3 L2.5 -5.65 Q5.4 -5.15 5.3 -0.85 5.25 3.4 1.45 3.6 -2.35 3.75 -5.3 2.8 -1.75 -1.3 -3.8 -5.6" fill="#333333" fill-rule="evenodd" stroke="none"/>
    <path d="M-3.8 -5.6 Q-3.0 -6.45 -1.7 -6.3 L2.5 -5.65 Q5.4 -5.15 5.3 -0.85 5.25 3.4 1.45 3.6 -2.35 3.75 -5.3 2.8" fill="none" stroke="#000000" stroke-linecap="round" stroke-linejoin="round" stroke-width="1.0"/>
    <path d="M-5.3 2.8 Q-6.85 2.85 -6.6 -0.9 -6.4 -4.65 -5.45 -5.3 -4.5 -6.0 -3.8 -5.6 -1.75 -1.3 -5.3 2.8" fill="none" stroke="#666666" stroke-linecap="round" stroke-linejoin="round" stroke-width="1.0"/>
  </g>
</svg>
