<?xml version="1.0" encoding="UTF-8" standalone="no"?>
<svg xmlns:xlink="http://www.w3.org/1999/xlink" height="22.45px" width="12.45px" xmlns="http://www.w3.org/2000/svg">
  <g transform="matrix(1.0, 0.0, 0.0, 1.0, 3.15, 2.95)">
    <path d="M5.8 11.3 L6.0 11.2 Q6.15 11.1 6.45 11.5 L7.25 13.0 8.6 16.0 Q8.95 16.75 8.7 17.7 8.45 18.55 7.4 18.8 L5.85 19.0 4.75 18.7 Q4.25 18.4 3.15 16.45 2.05 14.5 2.1 12.55 3.4 10.9 5.05 11.8 L5.3 11.65 5.8 11.3 M-1.65 3.0 L-2.35 1.3 -2.65 0.35 Q-0.95 -4.25 1.45 -1.25 L2.0 0.5 -1.65 3.0 M7.25 13.0 Q7.2 14.0 5.05 11.8 7.2 14.0 7.25 13.0" fill="#f0c468" fill-rule="evenodd" stroke="none"/>
    <path d="M3.1 3.15 L3.65 8.25 1.85 9.25 -0.05 4.05 1.75 2.55 3.1 3.15" fill="#0a7be6" fill-rule="evenodd" stroke="none"/>
    <path d="M2.0 0.5 L4.7 2.25 5.2 9.6 1.25 11.8 Q-1.9 6.65 -1.65 3.0 L2.0 0.5 M3.1 3.15 L1.75 2.55 -0.05 4.05 1.85 9.25 3.65 8.25 3.1 3.15" fill="#dec68f" fill-rule="evenodd" stroke="none"/>
    <path d="M5.2 9.6 L5.8 11.3 5.3 11.65 5.05 11.8 Q3.4 10.9 2.1 12.55 L1.25 11.8 5.2 9.6" fill="#bd784a" fill-rule="evenodd" stroke="none"/>
    <path d="M3.1 3.15 L3.65 8.25 1.85 9.25 -0.05 4.05 1.75 2.55 3.1 3.15" fill="none" stroke="#1b2654" stroke-linecap="round" stroke-linejoin="round" stroke-width="1.0"/>
    <path d="M-1.65 3.0 L-2.35 1.3 -2.65 0.35 Q-0.95 -4.25 1.45 -1.25 L2.0 0.5 -1.65 3.0 M2.1 12.55 Q3.4 10.9 5.05 11.8 L5.3 11.65 5.8 11.3 M5.2 9.6 L1.25 11.8 M5.05 11.8 Q7.2 14.0 7.25 13.0" fill="none" stroke="#544634" stroke-linecap="round" stroke-linejoin="round" stroke-width="1.0"/>
    <path d="M2.0 0.5 L4.7 2.25 5.2 9.6 5.8 11.3 6.0 11.2 Q6.15 11.1 6.45 11.5 L7.25 13.0 8.6 16.0 Q8.95 16.75 8.7 17.7 8.45 18.55 7.4 18.8 L5.85 19.0 4.75 18.7 Q4.25 18.4 3.15 16.45 2.05 14.5 2.1 12.55 L1.25 11.8 Q-1.9 6.65 -1.65 3.0" fill="none" stroke="#423824" stroke-linecap="round" stroke-linejoin="round" stroke-width="1.0"/>
  </g>
</svg>
