<?xml version="1.0" encoding="UTF-8" standalone="no"?>
<svg xmlns:xlink="http://www.w3.org/1999/xlink" height="19.25px" width="11.6px" xmlns="http://www.w3.org/2000/svg">
  <g transform="matrix(1.0, 0.0, 0.0, 1.0, 6.7, 3.9)">
    <path d="M-2.95 -1.8 Q-1.15 -3.65 0.8 -3.35 2.65 -3.1 3.65 -1.35 4.75 0.45 4.2 2.2 3.7 3.65 2.15 4.4 L-0.1 4.95 Q-2.65 4.9 -3.65 2.3 L-2.15 2.95 -1.15 1.0 -1.7 -1.5 -2.95 -1.8 M3.0 1.05 Q3.0 1.65 2.55 2.05 2.1 2.45 1.55 2.45 0.95 2.45 0.5 2.05 0.1 1.65 0.1 1.05 0.1 0.4 0.5 0.0 0.95 -0.4 1.55 -0.4 2.15 -0.4 2.55 0.0 3.0 0.4 3.0 1.05 3.0 0.4 2.55 0.0 2.15 -0.4 1.55 -0.4 0.95 -0.4 0.5 0.0 0.1 0.4 0.1 1.05 0.1 1.65 0.5 2.05 0.95 2.45 1.55 2.45 2.1 2.45 2.55 2.05 3.0 1.65 3.0 1.05" fill="#e1e1e1" fill-rule="evenodd" stroke="none"/>
    <path d="M-3.65 2.3 Q-2.65 4.9 -0.1 4.95 L2.15 4.4 2.75 4.25 2.3 7.75 1.3 7.75 1.85 9.35 0.65 11.55 0.1 11.25 0.65 11.55 0.1 11.25 -0.25 11.05 -1.3 10.45 Q-3.45 9.45 -5.8 9.4 L-6.2 9.4 -5.95 6.5 Q-5.45 3.75 -4.35 2.0 L-3.65 2.3 M-0.25 11.05 L0.1 11.25 -0.25 11.05" fill="#ffffff" fill-rule="evenodd" stroke="none"/>
    <path d="M-2.95 -1.8 L-1.7 -1.5 -1.15 1.0 -2.15 2.95 -3.65 2.3 -4.35 2.0 -5.85 1.35 -6.2 -2.65 -2.95 -1.8" fill="#696a69" fill-rule="evenodd" stroke="none"/>
    <path d="M0.1 11.25 L-1.15 13.8 Q-5.45 16.75 -5.8 11.55 L-5.8 9.4 Q-3.45 9.45 -1.3 10.45 L-0.25 11.05 0.1 11.25" fill="#5f5e5e" fill-rule="evenodd" stroke="none"/>
    <path d="M2.15 4.4 Q3.7 3.65 4.2 2.2 4.75 0.45 3.65 -1.35 2.65 -3.1 0.8 -3.35 -1.15 -3.65 -2.95 -1.8 M0.1 11.25 L-1.15 13.8 Q-5.45 16.75 -5.8 11.55 L-5.8 9.4" fill="none" stroke="#434343" stroke-linecap="round" stroke-linejoin="round" stroke-width="1.0"/>
    <path d="M-3.65 2.3 Q-2.65 4.9 -0.1 4.95 L2.15 4.4 2.75 4.25 2.3 7.75 1.3 7.75 1.85 9.35 0.65 11.55 0.1 11.25 -0.25 11.05 -1.3 10.45 Q-3.45 9.45 -5.8 9.4 L-6.2 9.4 -5.95 6.5 Q-5.45 3.75 -4.35 2.0" fill="none" stroke="#7b7b7b" stroke-linecap="round" stroke-linejoin="round" stroke-width="1.0"/>
    <path d="M3.0 1.05 Q3.0 0.4 2.55 0.0 2.15 -0.4 1.55 -0.4 0.95 -0.4 0.5 0.0 0.1 0.4 0.1 1.05 0.1 1.65 0.5 2.05 0.95 2.45 1.55 2.45 2.1 2.45 2.55 2.05 3.0 1.65 3.0 1.05" fill="none" stroke="#9b9b9a" stroke-linecap="butt" stroke-linejoin="miter-clip" stroke-miterlimit="10.0" stroke-width="1.0"/>
    <path d="M-2.95 -1.8 L-1.7 -1.5 -1.15 1.0 -2.15 2.95 -3.65 2.3 -4.35 2.0 -5.85 1.35 -6.2 -2.65 -2.95 -1.8 Z" fill="none" stroke="#4e4e4e" stroke-linecap="round" stroke-linejoin="round" stroke-width="1.0"/>
  </g>
</svg>
