<?xml version="1.0" encoding="UTF-8" standalone="no"?>
<svg xmlns:ffdec="https://www.free-decompiler.com/flash" xmlns:xlink="http://www.w3.org/1999/xlink" ffdec:objectType="shape" height="21.5px" width="13.75px" xmlns="http://www.w3.org/2000/svg">
  <g transform="matrix(1.0, 0.0, 0.0, 1.0, 9.1, 4.0)">
    <path d="M-7.2 8.45 Q-8.25 7.65 -8.6 6.7 -6.7 -2.85 -1.25 -3.5 0.95 -3.45 2.9 -1.6 3.85 -0.7 4.1 1.65 4.35 3.95 3.05 6.7 1.75 9.45 -0.8 11.45 L-2.25 10.95 -7.2 8.45 M0.15 -0.7 L-0.8 0.5 0.15 -0.7 M1.95 -0.2 L1.15 0.95 1.95 -0.2 M-5.95 4.25 L-3.65 1.4 0.6 2.4 -0.1 5.7 0.6 2.4 -3.65 1.4 -5.95 4.25 M-2.5 8.9 L-1.1 8.7 -2.5 8.9 M-2.15 7.4 L-0.9 7.3 -2.15 7.4 M-7.25 6.2 L-6.6 6.85 -7.25 6.2" fill="#ffffff" fill-rule="evenodd" stroke="none"/>
    <path d="M-7.2 8.45 L-2.25 10.95 Q-3.3 19.25 -6.6 16.15 -8.45 15.75 -8.3 13.6 L-7.5 10.25 -7.2 8.45" fill="#333333" fill-rule="evenodd" stroke="none"/>
    <path d="M-2.25 10.95 Q-3.3 19.25 -6.6 16.15 -8.45 15.75 -8.3 13.6 L-7.5 10.25 -7.2 8.45" fill="none" stroke="#000000" stroke-linecap="round" stroke-linejoin="round" stroke-width="1.0"/>
    <path d="M-6.6 6.85 L-7.25 6.2 M-0.9 7.3 L-2.15 7.4 M-1.1 8.7 L-2.5 8.9 M-0.1 5.7 L0.6 2.4 -3.65 1.4 -5.95 4.25 M1.15 0.95 L1.95 -0.2 M-0.8 0.5 L0.15 -0.7" fill="none" stroke="#999999" stroke-linecap="round" stroke-linejoin="round" stroke-width="1.0"/>
    <path d="M-2.25 10.95 L-0.8 11.45 Q1.75 9.45 3.05 6.7 4.35 3.95 4.1 1.65 3.85 -0.7 2.9 -1.6 0.95 -3.45 -1.25 -3.5 -6.7 -2.85 -8.6 6.7 -8.25 7.65 -7.2 8.45 L-2.25 10.95 Z" fill="none" stroke="#666666" stroke-linecap="round" stroke-linejoin="round" stroke-width="1.0"/>
  </g>
</svg>
