<?xml version="1.0" encoding="UTF-8" standalone="no"?>
<svg xmlns:ffdec="https://www.free-decompiler.com/flash" xmlns:xlink="http://www.w3.org/1999/xlink" ffdec:objectType="shape" height="3.0px" width="23.8px" xmlns="http://www.w3.org/2000/svg">
  <g transform="matrix(1.0, 0.0, 0.0, 1.0, 12.35, 6.15)">
    <path d="M9.95 -5.65 L10.65 -5.35 10.95 -4.65 10.65 -3.95 Q10.35 -3.65 9.95 -3.65 L-10.85 -3.65 Q-11.25 -3.65 -11.55 -3.95 L-11.85 -4.65 -11.55 -5.35 -10.85 -5.65 9.95 -5.65" fill="#4d0000" fill-rule="evenodd" stroke="none"/>
    <path d="M9.95 -5.65 L-10.85 -5.65 -11.55 -5.35 -11.85 -4.65 -11.55 -3.95 Q-11.25 -3.65 -10.85 -3.65 L9.95 -3.65 Q10.35 -3.65 10.65 -3.95 L10.95 -4.65 10.65 -5.35 9.95 -5.65 Z" fill="none" stroke="#000000" stroke-linecap="round" stroke-linejoin="round" stroke-width="1.0"/>
  </g>
</svg>
