<?xml version="1.0" encoding="UTF-8" standalone="no"?>
<svg xmlns:xlink="http://www.w3.org/1999/xlink" height="20.85px" width="11.9px" xmlns="http://www.w3.org/2000/svg">
  <g transform="matrix(1.0, 0.0, 0.0, 1.0, 7.15, 3.25)">
    <path d="M-5.6 5.75 Q-5.35 1.25 -3.95 -0.55 -2.55 -2.4 -0.35 -2.7 1.8 -3.0 3.4 -1.75 4.95 -0.6 3.7 3.15 2.4 6.85 -0.15 8.05 -1.05 7.75 -2.65 8.55 L-4.15 13.4 -2.15 13.6 Q-1.45 14.75 -1.65 15.9 -4.85 18.45 -6.6 15.6 L-6.65 14.15 -6.65 13.25 -6.0 10.2 Q-5.75 8.85 -5.6 5.75 M-2.1 2.5 L-0.75 -0.4 -2.1 2.5 M0.15 1.75 L0.75 -0.25 0.15 1.75 M1.9 3.25 L2.5 0.1 1.9 3.25" fill="#f0c468" fill-rule="evenodd" stroke="none"/>
    <path d="M-2.15 13.6 L-4.15 13.4 -2.65 8.55 Q-1.05 7.75 -0.15 8.05 -0.9 11.55 -2.15 13.6" fill="#886a4d" fill-rule="evenodd" stroke="none"/>
    <path d="M-6.6 15.6 Q-4.85 18.45 -1.65 15.9" fill="none" stroke="#000000" stroke-linecap="round" stroke-linejoin="round" stroke-width="1.0"/>
    <path d="M2.5 0.1 L1.9 3.25 M0.75 -0.25 L0.15 1.75 M-0.75 -0.4 L-2.1 2.5" fill="none" stroke="#80704d" stroke-linecap="round" stroke-linejoin="round" stroke-width="1.0"/>
    <path d="M-0.15 8.05 Q2.4 6.85 3.7 3.15 4.95 -0.6 3.4 -1.75 1.8 -3.0 -0.35 -2.7 -2.55 -2.4 -3.95 -0.55 -5.35 1.25 -5.6 5.75 M-4.15 13.4 L-2.65 8.55 Q-1.05 7.75 -0.15 8.05" fill="none" stroke="#65583d" stroke-linecap="round" stroke-linejoin="round" stroke-width="1.0"/>
    <path d="M-5.6 5.75 Q-5.75 8.85 -6.0 10.2 L-6.65 13.25 -6.65 14.15 -6.6 15.6 M-1.65 15.9 Q-1.45 14.75 -2.15 13.6 -0.9 11.55 -0.15 8.05" fill="none" stroke="#403526" stroke-linecap="round" stroke-linejoin="round" stroke-width="1.0"/>
    <path d="M-2.15 13.6 L-4.15 13.4" fill="none" stroke="#504330" stroke-linecap="round" stroke-linejoin="round" stroke-width="1.0"/>
  </g>
</svg>
