<?xml version="1.0" encoding="UTF-8" standalone="no"?>
<svg xmlns:xlink="http://www.w3.org/1999/xlink" height="19.8px" width="20.45px" xmlns="http://www.w3.org/2000/svg">
  <g transform="matrix(1.0, 0.0, 0.0, 1.0, 9.8, 18.6)">
    <path d="M5.4 -8.4 L3.7 -8.4 5.4 -8.4 M7.3 -4.25 L6.45 -4.3 7.3 -4.25 M7.55 -11.5 L8.4 -7.0 Q8.7 -4.35 8.25 -2.75 7.75 -1.2 3.3 -1.35 1.15 -5.4 -0.3 -6.1 L-1.75 -6.8 -1.8 -9.8 Q1.95 -11.35 7.55 -11.5" fill="#cc9933" fill-rule="evenodd" stroke="none"/>
    <path d="M-2.65 -1.6 Q-7.25 -1.95 -8.15 -5.4 -3.75 -6.0 -1.75 -6.8 L-0.3 -6.1 Q1.15 -5.4 3.3 -1.35 L-2.65 -1.6 M-0.45 -2.6 L-0.8 -3.65 -0.45 -2.6 M-2.55 -3.1 L-3.35 -4.75 -2.55 -3.1" fill="#515151" fill-rule="evenodd" stroke="none"/>
    <path d="M3.3 -1.35 L3.3 0.7 1.6 0.7 -0.2 0.6 -2.55 0.3 -2.65 0.25 -2.65 -1.6 3.3 -1.35" fill="#000000" fill-rule="evenodd" stroke="none"/>
    <path d="M-8.15 -5.4 Q-8.95 -8.45 -9.3 -9.05 -7.65 -8.55 -1.8 -9.8 L-1.75 -6.8 Q-3.75 -6.0 -8.15 -5.4 M-5.0 -6.9 L-5.0 -8.2 -5.0 -6.9 M-3.5 -7.45 L-3.5 -8.35 -3.5 -7.45" fill="#444444" fill-rule="evenodd" stroke="none"/>
    <path d="M0.15 -12.85 Q0.75 -13.4 0.75 -14.25 0.75 -15.1 0.15 -15.7 -0.4 -16.25 -1.25 -16.25 -2.1 -16.25 -2.7 -15.7 -3.25 -15.1 -3.25 -14.25 -3.25 -13.4 -2.7 -12.85 -2.1 -12.25 -1.25 -12.25 -0.4 -12.25 0.15 -12.85 -0.4 -12.25 -1.25 -12.25 -2.1 -12.25 -2.7 -12.85 -3.25 -13.4 -3.25 -14.25 -3.25 -15.1 -2.7 -15.7 -2.1 -16.25 -1.25 -16.25 -0.4 -16.25 0.15 -15.7 0.75 -15.1 0.75 -14.25 0.75 -13.4 0.15 -12.85 M4.55 -13.05 Q4.85 -13.35 4.85 -13.8 L4.55 -14.55 Q4.25 -14.85 3.8 -14.85 L3.05 -14.55 Q2.75 -14.25 2.75 -13.8 2.75 -13.35 3.05 -13.05 3.35 -12.75 3.8 -12.75 4.25 -12.75 4.55 -13.05 4.25 -12.75 3.8 -12.75 3.35 -12.75 3.05 -13.05 2.75 -13.35 2.75 -13.8 2.75 -14.25 3.05 -14.55 L3.8 -14.85 Q4.25 -14.85 4.55 -14.55 L4.85 -13.8 Q4.85 -13.35 4.55 -13.05 M-9.3 -9.05 Q-7.85 -15.65 -3.45 -17.25 0.9 -18.9 4.55 -17.25 8.2 -15.65 9.25 -11.55 L7.55 -11.5 Q1.95 -11.35 -1.8 -9.8 -7.65 -8.55 -9.3 -9.05" fill="#c8c8c8" fill-rule="evenodd" stroke="none"/>
    <path d="M3.7 -8.4 L5.4 -8.4" fill="none" stroke="#966825" stroke-linecap="round" stroke-linejoin="round" stroke-width="2.0"/>
    <path d="M6.45 -4.3 L7.3 -4.25" fill="none" stroke="#966825" stroke-linecap="round" stroke-linejoin="round" stroke-width="1.0"/>
    <path d="M-8.15 -5.4 Q-8.95 -8.45 -9.3 -9.05" fill="none" stroke="#3c3c3c" stroke-linecap="round" stroke-linejoin="round" stroke-width="1.0"/>
    <path d="M7.55 -11.5 L8.4 -7.0 Q8.7 -4.35 8.25 -2.75 7.75 -1.2 3.3 -1.35" fill="none" stroke="#5f4429" stroke-linecap="round" stroke-linejoin="round" stroke-width="1.0"/>
    <path d="M3.3 -1.35 L3.3 0.7 1.6 0.7 -0.2 0.6 -2.55 0.3 -2.65 0.25 -2.65 -1.6" fill="none" stroke="#000000" stroke-linecap="round" stroke-linejoin="round" stroke-width="1.0"/>
    <path d="M-1.8 -9.8 L-1.75 -6.8 -0.3 -6.1 Q1.15 -5.4 3.3 -1.35 M-3.5 -8.35 L-3.5 -7.45 M-5.0 -8.2 L-5.0 -6.9 M-8.15 -5.4 Q-3.75 -6.0 -1.75 -6.8" fill="none" stroke="#333333" stroke-linecap="round" stroke-linejoin="round" stroke-width="1.0"/>
    <path d="M-2.65 -1.6 Q-7.25 -1.95 -8.15 -5.4 M3.3 -1.35 L-2.65 -1.6 M-3.35 -4.75 L-2.55 -3.1 M-0.8 -3.65 L-0.45 -2.6" fill="none" stroke="#2b2b2b" stroke-linecap="round" stroke-linejoin="round" stroke-width="1.0"/>
    <path d="M4.55 -13.05 Q4.25 -12.75 3.8 -12.75 3.35 -12.75 3.05 -13.05 2.75 -13.35 2.75 -13.8 2.75 -14.25 3.05 -14.55 L3.8 -14.85 Q4.25 -14.85 4.55 -14.55 L4.85 -13.8 Q4.85 -13.35 4.55 -13.05" fill="none" stroke="#848484" stroke-linecap="round" stroke-linejoin="round" stroke-width="1.0"/>
    <path d="M0.15 -12.85 Q-0.4 -12.25 -1.25 -12.25 -2.1 -12.25 -2.7 -12.85 -3.25 -13.4 -3.25 -14.25 -3.25 -15.1 -2.7 -15.7 -2.1 -16.25 -1.25 -16.25 -0.4 -16.25 0.15 -15.7 0.75 -15.1 0.75 -14.25 0.75 -13.4 0.15 -12.85" fill="none" stroke="#a6a6a6" stroke-linecap="round" stroke-linejoin="round" stroke-width="1.0"/>
    <path d="M-9.3 -9.05 Q-7.85 -15.65 -3.45 -17.25 0.9 -18.9 4.55 -17.25 8.2 -15.65 9.25 -11.55 L7.55 -11.5 Q1.95 -11.35 -1.8 -9.8" fill="none" stroke="#626262" stroke-linecap="round" stroke-linejoin="round" stroke-width="1.0"/>
    <path d="M-9.3 -9.05 Q-7.65 -8.55 -1.8 -9.8" fill="none" stroke="#515151" stroke-linecap="round" stroke-linejoin="round" stroke-width="1.0"/>
    <path d="M10.15 -6.95 Q-1.45 -6.55 -2.1 -8.3 -2.75 -10.05 0.4 -10.75 L9.15 -11.6 Q10.25 -9.0 10.15 -6.95" fill="#990000" fill-opacity="0.7019608" fill-rule="evenodd" stroke="none"/>
    <path d="M10.15 -6.95 Q-1.45 -6.55 -2.1 -8.3 -2.75 -10.05 0.4 -10.75 L9.15 -11.6 Q10.25 -9.0 10.15 -6.95 Z" fill="none" stroke="#000000" stroke-linecap="round" stroke-linejoin="round" stroke-opacity="0.3019608" stroke-width="1.0"/>
    <path d="M7.6 -0.3 L8.55 -0.3" fill="none" stroke="#000000" stroke-linecap="round" stroke-linejoin="round" stroke-width="2.0"/>
    <path d="M1.35 -2.75 Q3.25 -0.2 7.6 -0.3 Z" fill="none" stroke="#262626" stroke-linecap="round" stroke-linejoin="round" stroke-width="1.0"/>
  </g>
</svg>
