<?xml version="1.0" encoding="UTF-8" standalone="no"?>
<svg xmlns:xlink="http://www.w3.org/1999/xlink" height="10.85px" width="11.95px" xmlns="http://www.w3.org/2000/svg">
  <g transform="matrix(1.0, 0.0, 0.0, 1.0, 5.25, 6.65)">
    <path d="M5.8 -2.6 Q6.3 -2.05 6.2 -1.25 6.0 0.05 4.05 2.0 L3.25 2.65 Q2.0 3.25 1.6 0.9 1.0 -2.2 1.9 -3.2 2.75 -4.2 4.6 -3.4 5.4 -3.05 5.8 -2.6" fill="#514d80" fill-rule="evenodd" stroke="none"/>
    <path d="M3.25 2.65 Q1.2 4.45 -1.5 3.2 -4.7 1.65 -4.75 -2.35 -4.85 -5.05 -2.6 -5.85 -0.9 -6.5 3.1 -5.8 5.5 -5.15 5.75 -3.35 L5.8 -2.6 Q5.4 -3.05 4.6 -3.4 2.75 -4.2 1.9 -3.2 1.0 -2.2 1.6 0.9 2.0 3.25 3.25 2.65" fill="#000033" fill-rule="evenodd" stroke="none"/>
    <path d="M5.8 -2.6 Q6.3 -2.05 6.2 -1.25 6.0 0.05 4.05 2.0 L3.25 2.65" fill="none" stroke="#232138" stroke-linecap="round" stroke-linejoin="round" stroke-width="1.0"/>
    <path d="M3.25 2.65 Q1.2 4.45 -1.5 3.2 -4.7 1.65 -4.75 -2.35 -4.85 -5.05 -2.6 -5.85 -0.9 -6.5 3.1 -5.8 5.5 -5.15 5.75 -3.35 L5.8 -2.6 Q5.4 -3.05 4.6 -3.4 2.75 -4.2 1.9 -3.2 1.0 -2.2 1.6 0.9 2.0 3.25 3.25 2.65" fill="none" stroke="#000015" stroke-linecap="round" stroke-linejoin="round" stroke-width="1.0"/>
  </g>
</svg>
