<?xml version="1.0" encoding="UTF-8" standalone="no"?>
<svg xmlns:xlink="http://www.w3.org/1999/xlink" height="19.8px" width="22.45px" xmlns="http://www.w3.org/2000/svg">
  <g transform="matrix(1.0, 0.0, 0.0, 1.0, 10.85, 16.55)">
    <path d="M-6.8 -10.05 L-6.75 -7.3 Q-6.6 -5.7 -5.4 -3.65 L-8.75 -5.0 -10.35 -10.05 -6.8 -10.05 M-7.85 -5.55 L-8.05 -6.7 -7.85 -5.55 M-8.3 -7.85 L-8.4 -8.85 -8.3 -7.85" fill="#aa974d" fill-rule="evenodd" stroke="none"/>
    <path d="M2.4 -15.2 L3.1 -12.8 7.1 -13.45 Q8.95 -11.2 7.8 -10.6 0.65 -11.35 -1.3 -9.2 -0.15 -7.8 2.05 -6.9 4.65 -5.9 8.05 -6.05 L9.45 -6.05 9.65 -3.9 6.35 -4.15 6.05 -2.9 2.4 -3.6 -0.8 -2.8 -3.65 -5.15 -5.4 -3.65 Q-6.6 -5.7 -6.75 -7.3 L-6.8 -10.05 -3.9 -11.2 -2.15 -13.3 -2.85 -15.65 -0.85 -16.05 -0.8 -16.05 2.4 -15.2 M-0.3 -4.9 L-1.85 -6.4 -0.3 -4.9" fill="#e1cb73" fill-rule="evenodd" stroke="none"/>
    <path d="M-5.4 -3.65 L-3.65 -5.15 -0.8 -2.8 2.4 -3.6 6.05 -2.9 5.75 -1.7 8.35 1.55 7.75 2.5 3.0 -1.25 3.0 0.6 Q0.3 3.35 -3.15 0.55 L-3.15 -1.25 Q-4.65 -2.5 -5.4 -3.65 M-3.15 -1.25 L3.0 -1.25 -3.15 -1.25" fill="#7e6a3d" fill-rule="evenodd" stroke="none"/>
    <path d="M7.1 -13.45 L3.1 -12.8 2.4 -15.2 4.3 -16.05 7.1 -13.45 M-2.85 -15.65 L-2.15 -13.3 -3.9 -11.2 -6.8 -10.05 -10.35 -10.05 -10.35 -13.1 -6.35 -15.65 -2.85 -15.65 M6.05 -2.9 L6.35 -4.15 9.65 -3.9 10.85 -3.9 11.1 -1.3 8.65 -1.3 11.1 -1.3 10.95 1.05 10.65 2.75 8.35 1.55 5.75 -1.7 6.05 -2.9 M9.05 0.25 L10.95 1.05 9.05 0.25 M-6.7 -12.65 L-6.6 -13.55 -6.7 -12.65 M-8.2 -11.65 L-7.95 -13.3 -8.2 -11.65" fill="#af9558" fill-rule="evenodd" stroke="none"/>
    <path d="M8.05 -6.05 Q4.65 -5.9 2.05 -6.9 -0.15 -7.8 -1.3 -9.2 0.65 -11.35 7.8 -10.6 7.5 -9.7 7.55 -8.3 7.6 -6.85 8.05 -6.05" fill="url(#gradient0)" fill-rule="evenodd" stroke="none"/>
    <path d="M2.4 -15.2 L3.1 -12.8 7.1 -13.45 M-2.85 -15.65 L-2.15 -13.3 -3.9 -11.2 -6.8 -10.05 -10.35 -10.05 M6.05 -2.9 L6.35 -4.15 9.65 -3.9 M-1.85 -6.4 L-0.3 -4.9" fill="none" stroke="#80704d" stroke-linecap="round" stroke-linejoin="round" stroke-width="1.0"/>
    <path d="M7.1 -13.45 L4.3 -16.05 2.4 -15.2 -0.8 -16.05 -0.85 -16.05 -2.85 -15.65 -6.35 -15.65 -10.35 -13.1 -10.35 -10.05 M-5.4 -3.65 L-3.65 -5.15 -0.8 -2.8 2.4 -3.6 6.05 -2.9 5.75 -1.7 8.35 1.55 M7.8 -10.6 Q8.95 -11.2 7.1 -13.45 M10.95 1.05 L9.05 0.25 M11.1 -1.3 L8.65 -1.3 M-8.4 -8.85 L-8.3 -7.85 M-8.05 -6.7 L-7.85 -5.55" fill="none" stroke="#504630" stroke-linecap="round" stroke-linejoin="round" stroke-width="1.0"/>
    <path d="M-6.8 -10.05 L-6.75 -7.3 Q-6.6 -5.7 -5.4 -3.65" fill="none" stroke="#756646" stroke-linecap="round" stroke-linejoin="round" stroke-width="1.0"/>
    <path d="M9.65 -3.9 L9.45 -6.05 8.05 -6.05 M8.35 1.55 L10.65 2.75 10.95 1.05 11.1 -1.3 10.85 -3.9 9.65 -3.9 M8.35 1.55 L7.75 2.5 3.0 -1.25 3.0 0.6 Q0.3 3.35 -3.15 0.55 L-3.15 -1.25 Q-4.65 -2.5 -5.4 -3.65 L-8.75 -5.0 -10.35 -10.05" fill="none" stroke="#453929" stroke-linecap="round" stroke-linejoin="round" stroke-width="1.0"/>
    <path d="M8.05 -6.05 Q4.65 -5.9 2.05 -6.9 -0.15 -7.8 -1.3 -9.2 0.65 -11.35 7.8 -10.6 7.5 -9.7 7.55 -8.3 7.6 -6.85 8.05 -6.05 M-6.6 -13.55 L-6.7 -12.65 M-7.95 -13.3 L-8.2 -11.65" fill="none" stroke="#381d1d" stroke-linecap="round" stroke-linejoin="round" stroke-width="1.0"/>
    <path d="M3.0 -1.25 L-3.15 -1.25" fill="none" stroke="#65543d" stroke-linecap="round" stroke-linejoin="round" stroke-width="1.0"/>
  </g>
  <defs>
    <linearGradient gradientTransform="matrix(0.0071, 0.0, 0.0, 0.0026, 2.3, -9.3)" gradientUnits="userSpaceOnUse" id="gradient0" spreadMethod="pad" x1="-819.2" x2="819.2">
      <stop offset="0.0" stop-color="#8c2f2f"/>
      <stop offset="1.0" stop-color="#f70000"/>
    </linearGradient>
  </defs>
</svg>
