<?xml version="1.0" encoding="UTF-8" standalone="no"?>
<svg xmlns:xlink="http://www.w3.org/1999/xlink" height="24.4px" width="12.95px" xmlns="http://www.w3.org/2000/svg">
  <g transform="matrix(1.0, 0.0, 0.0, 1.0, 7.95, 4.6)">
    <path d="M0.95 13.3 L1.25 14.95 Q1.25 16.75 -0.05 18.0 -0.55 18.5 -1.15 18.85 L-3.1 19.3 Q-4.9 19.3 -6.2 18.0 L-6.9 17.05 -7.0 16.9 -7.45 14.95 Q-7.45 13.15 -6.2 11.85 -4.9 10.6 -3.1 10.6 -1.3 10.6 -0.05 11.85 L0.95 13.3 0.9 13.35 -7.0 16.9 0.9 13.35 0.95 13.3" fill="#60676f" fill-rule="evenodd" stroke="none"/>
    <path d="M0.95 13.3 L1.25 14.95 Q1.25 16.75 -0.05 18.0 -0.55 18.5 -1.15 18.85 L-3.1 19.3 Q-4.9 19.3 -6.2 18.0 L-6.9 17.05 -7.0 16.9 -7.45 14.95 Q-7.45 13.15 -6.2 11.85 -4.9 10.6 -3.1 10.6 -1.3 10.6 -0.05 11.85 L0.95 13.3 0.9 13.35 -7.0 16.9" fill="none" stroke="#31373d" stroke-linecap="round" stroke-linejoin="round" stroke-width="1.0"/>
    <path d="M-3.65 2.35 L-2.95 3.3 Q-1.65 4.6 0.15 4.6 L2.1 4.15 2.2 4.25 1.95 5.6 -1.4 5.75 -3.1 11.5 -5.7 12.35 -5.2 3.05 -4.5 3.05 -3.7 2.4 -3.65 2.35" fill="#595e64" fill-rule="evenodd" stroke="none"/>
    <path d="M-3.65 2.35 L-3.7 2.4 M2.2 4.25 L2.1 4.15" fill="none" stroke="#31373d" stroke-linecap="round" stroke-linejoin="round" stroke-width="1.0"/>
    <path d="M1.95 5.6 L2.2 4.25" fill="none" stroke="#26292e" stroke-linecap="round" stroke-linejoin="round" stroke-width="1.0"/>
    <path d="M-3.7 2.4 L-4.5 3.05 -5.2 3.05 -5.7 12.35" fill="none" stroke="#272a2f" stroke-linecap="round" stroke-linejoin="round" stroke-width="1.0"/>
    <path d="M2.65 5.3 Q1.25 13.5 -1.65 16.35 -3.9 18.55 -5.8 16.35 -6.7 14.6 -6.25 12.5 L-5.7 12.35 -3.1 11.5 -1.4 5.75 1.95 5.6 2.65 5.3 M1.25 7.25 L-0.45 7.35 1.25 7.25 M0.8 8.75 L-0.95 8.75 -2.2 12.5 -4.85 13.3 -2.2 12.5 -0.95 8.75 0.8 8.75" fill="#7c848f" fill-rule="evenodd" stroke="none"/>
    <path d="M2.65 5.3 Q1.25 13.5 -1.65 16.35 -3.9 18.55 -5.8 16.35 -6.7 14.6 -6.25 12.5 L-5.7 12.35 -3.1 11.5 -1.4 5.75 1.95 5.6 2.65 5.3" fill="none" stroke="#31373d" stroke-linecap="round" stroke-linejoin="round" stroke-width="1.0"/>
    <path d="M-4.85 13.3 L-2.2 12.5 -0.95 8.75 0.8 8.75 M-0.45 7.35 L1.25 7.25" fill="none" stroke="#525961" stroke-linecap="round" stroke-linejoin="round" stroke-width="1.0"/>
    <path d="M-3.75 2.2 L-4.2 0.25 Q-4.2 -1.55 -2.95 -2.85 -1.65 -4.1 0.15 -4.1 1.95 -4.1 3.2 -2.85 L4.2 -1.4 4.5 0.25 Q4.5 2.05 3.2 3.3 L2.1 4.15 0.15 4.6 Q-1.65 4.6 -2.95 3.3 L-3.65 2.35 -3.75 2.2 -1.7 1.3 -3.75 2.2 M2.2 -0.5 L1.65 -1.25 Q1.05 -1.9 0.15 -1.9 L-0.7 -1.7 -1.35 -1.25 Q-1.95 -0.65 -1.95 0.25 L-1.7 1.3 -1.55 1.5 -1.35 1.75 Q-0.7 2.35 0.15 2.35 L0.65 2.3 0.85 2.25 1.65 1.75 Q2.3 1.1 2.3 0.25 L2.2 -0.5 4.2 -1.4 2.2 -0.5" fill="#60676f" fill-rule="evenodd" stroke="none"/>
    <path d="M-1.7 1.3 L-1.95 0.25 Q-1.95 -0.65 -1.35 -1.25 L-0.7 -1.7 0.15 -1.9 Q1.05 -1.9 1.65 -1.25 L2.2 -0.5 2.3 0.25 Q2.3 1.1 1.65 1.75 L0.85 2.25 0.65 2.3 0.15 2.35 Q-0.7 2.35 -1.35 1.75 L-1.55 1.5 -1.7 1.3 M-0.7 -1.7 L0.85 2.25 -0.7 -1.7" fill="#7c848f" fill-rule="evenodd" stroke="none"/>
    <path d="M-3.75 2.2 L-4.2 0.25 Q-4.2 -1.55 -2.95 -2.85 -1.65 -4.1 0.15 -4.1 1.95 -4.1 3.2 -2.85 L4.2 -1.4 4.5 0.25 Q4.5 2.05 3.2 3.3 L2.1 4.15 0.15 4.6 Q-1.65 4.6 -2.95 3.3 L-3.65 2.35 -3.75 2.2 -1.7 1.3 -1.95 0.25 Q-1.95 -0.65 -1.35 -1.25 L-0.7 -1.7 0.15 -1.9 Q1.05 -1.9 1.65 -1.25 L2.2 -0.5 4.2 -1.4 M2.2 -0.5 L2.3 0.25 Q2.3 1.1 1.65 1.75 L0.85 2.25 0.65 2.3 0.15 2.35 Q-0.7 2.35 -1.35 1.75 L-1.55 1.5 -1.7 1.3 M0.85 2.25 L-0.7 -1.7" fill="none" stroke="#31373d" stroke-linecap="round" stroke-linejoin="round" stroke-width="1.0"/>
  </g>
</svg>
