<?xml version="1.0" encoding="UTF-8" standalone="no"?>
<svg xmlns:ffdec="https://www.free-decompiler.com/flash" xmlns:xlink="http://www.w3.org/1999/xlink" ffdec:objectType="shape" height="20.55px" width="13.3px" xmlns="http://www.w3.org/2000/svg">
  <g transform="matrix(1.0, 0.0, 0.0, 1.0, 8.15, 2.2)">
    <path d="M3.75 3.15 L2.7 2.05 Q0.8 0.4 -2.25 0.55 L-4.1 0.75 Q-2.0 -2.1 0.75 -1.65 4.05 -0.65 3.75 3.15" fill="#3f4040" fill-rule="evenodd" stroke="none"/>
    <path d="M-4.1 0.75 L-2.25 0.55 Q0.8 0.4 2.7 2.05 L3.75 3.15 3.85 3.25 Q4.6 4.15 4.65 4.95 L4.45 7.5 3.8 9.1 Q2.75 11.2 0.3 11.05 -0.75 10.85 -1.25 10.45 -2.0 9.85 -2.1 8.85 -2.2 7.3 -4.15 6.95 -5.6 6.65 -6.15 6.1 L-6.45 5.75 Q-6.95 4.75 -6.85 3.7 -6.75 2.65 -6.0 1.65 -5.55 1.0 -4.1 0.75 M1.65 9.0 Q2.0 8.7 2.0 8.2 2.0 7.7 1.65 7.4 1.3 7.05 0.8 7.05 0.35 7.05 0.0 7.4 -0.35 7.7 -0.35 8.2 -0.35 8.7 0.0 9.0 0.35 9.35 0.8 9.35 L1.65 9.0 M1.1 3.15 Q-1.3 1.7 -4.25 2.45 -1.3 1.7 1.1 3.15" fill="#56738e" fill-rule="evenodd" stroke="none"/>
    <path d="M1.65 9.0 L0.8 9.35 Q0.35 9.35 0.0 9.0 -0.35 8.7 -0.35 8.2 -0.35 7.7 0.0 7.4 0.35 7.05 0.8 7.05 1.3 7.05 1.65 7.4 2.0 7.7 2.0 8.2 2.0 8.7 1.65 9.0" fill="#53708a" fill-rule="evenodd" stroke="none"/>
    <path d="M-6.15 6.1 Q-5.6 6.65 -4.15 6.95 -2.2 7.3 -2.1 8.85 -2.0 9.85 -1.25 10.45 -3.75 10.2 -4.85 11.2 -5.7 11.8 -6.55 11.7 L-7.05 11.5 Q-7.85 11.1 -7.6 9.95 L-6.15 6.1" fill="#3b4f63" fill-rule="evenodd" stroke="none"/>
    <path d="M-1.25 10.45 Q-0.75 10.85 0.3 11.05 -0.65 12.9 -0.65 14.55 -0.65 17.2 -2.8 17.7 -4.95 18.25 -5.75 16.55 -6.6 14.9 -6.55 11.7 -5.7 11.8 -4.85 11.2 -3.75 10.2 -1.25 10.45" fill="#404040" fill-rule="evenodd" stroke="none"/>
    <path d="M-4.1 0.75 Q-5.55 1.0 -6.0 1.65 -6.75 2.65 -6.85 3.7 -6.95 4.75 -6.45 5.75 L-6.15 6.1 M0.3 11.05 Q2.75 11.2 3.8 9.1 L4.45 7.5 4.65 4.95 Q4.6 4.15 3.85 3.25" fill="none" stroke="#1c262f" stroke-linecap="round" stroke-linejoin="round" stroke-width="1.0"/>
    <path d="M-6.55 11.7 L-7.05 11.5 Q-7.85 11.1 -7.6 9.95 L-6.15 6.1" fill="none" stroke="#141b22" stroke-linecap="round" stroke-linejoin="round" stroke-width="1.0"/>
    <path d="M-6.55 11.7 Q-6.6 14.9 -5.75 16.55 -4.95 18.25 -2.8 17.7 -0.65 17.2 -0.65 14.55 -0.65 12.9 0.3 11.05" fill="none" stroke="#181818" stroke-linecap="round" stroke-linejoin="round" stroke-width="1.0"/>
    <path d="M-4.25 2.45 Q-1.3 1.7 1.1 3.15" fill="none" stroke="#37495b" stroke-linecap="round" stroke-linejoin="round" stroke-width="1.0"/>
    <path d="M-6.15 6.1 Q-5.6 6.65 -4.15 6.95 -2.2 7.3 -2.1 8.85 -2.0 9.85 -1.25 10.45" fill="none" stroke="#2e3f4f" stroke-linecap="round" stroke-linejoin="round" stroke-width="1.0"/>
    <path d="M-4.1 0.75 L-2.25 0.55 Q0.8 0.4 2.7 2.05 L3.75 3.15 M-1.25 10.45 Q-0.75 10.85 0.3 11.05 M-1.25 10.45 Q-3.75 10.2 -4.85 11.2 -5.7 11.8 -6.55 11.7" fill="none" stroke="#1f2a35" stroke-linecap="round" stroke-linejoin="round" stroke-width="1.0"/>
    <path d="M3.75 3.15 Q4.05 -0.65 0.75 -1.65 -2.0 -2.1 -4.1 0.75 M3.85 3.25 L3.75 3.15" fill="none" stroke="#2e2e2e" stroke-linecap="round" stroke-linejoin="round" stroke-width="1.0"/>
    <path d="M1.65 9.0 L0.8 9.35 Q0.35 9.35 0.0 9.0 -0.35 8.7 -0.35 8.2 -0.35 7.7 0.0 7.4 0.35 7.05 0.8 7.05 1.3 7.05 1.65 7.4 2.0 7.7 2.0 8.2 2.0 8.7 1.65 9.0 Z" fill="none" stroke="#384758" stroke-linecap="round" stroke-linejoin="round" stroke-width="1.0"/>
  </g>
</svg>
