<?xml version="1.0" encoding="UTF-8" standalone="no"?>
<svg xmlns:ffdec="https://www.free-decompiler.com/flash" xmlns:xlink="http://www.w3.org/1999/xlink" ffdec:objectType="shape" height="26.15px" width="47.75px" xmlns="http://www.w3.org/2000/svg">
  <g transform="matrix(1.0, 0.0, 0.0, 1.0, -20.3, 13.7)">
    <path d="M30.75 -6.95 Q46.2 -6.95 57.15 -5.1 68.05 -3.25 68.05 -0.65 68.05 1.95 57.15 3.8 46.2 5.65 30.75 5.65 L28.15 5.65 28.15 -6.9 30.75 -6.95" fill="url(#gradient0)" fill-rule="evenodd" stroke="none"/>
    <path d="M29.05 12.35 L28.5 12.45 Q25.05 12.45 22.65 8.6 20.25 4.75 20.3 -0.6 20.25 -6.0 22.65 -9.85 25.05 -13.7 28.5 -13.65 L29.05 -13.65 29.05 12.35" fill="url(#gradient1)" fill-rule="evenodd" stroke="none"/>
    <path d="M29.05 -13.65 L29.6 -13.65 Q33.0 -13.7 35.45 -9.85 37.8 -6.0 37.8 -0.6 37.8 4.75 35.45 8.6 33.0 12.45 29.6 12.45 L29.05 12.35 29.05 -13.65" fill="url(#gradient2)" fill-rule="evenodd" stroke="none"/>
  </g>
  <defs>
    <radialGradient cx="0" cy="0" gradientTransform="matrix(0.0, 0.0068, -0.0456, 0.0, 30.65, -0.65)" gradientUnits="userSpaceOnUse" id="gradient0" r="819.2" spreadMethod="pad">
      <stop offset="0.17647058823529413" stop-color="#ffffff"/>
      <stop offset="1.0" stop-color="#fe7878" stop-opacity="0.0"/>
    </radialGradient>
    <radialGradient cx="0" cy="0" gradientTransform="matrix(0.0, 0.0142, 0.01, 0.0, 28.5, -0.65)" gradientUnits="userSpaceOnUse" id="gradient1" r="819.2" spreadMethod="pad">
      <stop offset="0.17647058823529413" stop-color="#ffffff"/>
      <stop offset="1.0" stop-color="#fe8989" stop-opacity="0.0"/>
    </radialGradient>
    <radialGradient cx="0" cy="0" gradientTransform="matrix(0.0, 0.0142, -0.01, 0.0, 29.6, -0.65)" gradientUnits="userSpaceOnUse" id="gradient2" r="819.2" spreadMethod="pad">
      <stop offset="0.17647058823529413" stop-color="#ffffff"/>
      <stop offset="1.0" stop-color="#fe8989" stop-opacity="0.0"/>
    </radialGradient>
  </defs>
</svg>
