<?xml version="1.0" encoding="UTF-8" standalone="no"?>
<svg xmlns:xlink="http://www.w3.org/1999/xlink" height="19.05px" width="12.05px" xmlns="http://www.w3.org/2000/svg">
  <g transform="matrix(1.0, 0.0, 0.0, 1.0, 7.0, 4.2)">
    <path d="M-4.65 2.0 L-3.9 -1.75 -1.1 -3.7 2.9 -2.75 4.55 0.8 3.75 4.0 1.8 3.95 Q2.2 3.3 2.2 2.55 2.2 1.5 1.4 0.8 0.65 0.0 -0.4 0.0 -1.45 0.0 -2.2 0.8 -2.95 1.5 -2.95 2.55 L-2.95 2.7 -2.95 2.95 -4.65 2.0 M-2.95 -0.4 L-1.85 -1.25 -2.95 -0.4 M-0.4 -1.65 L1.25 -1.4 -0.4 -1.65 M2.5 -0.5 L3.2 0.7 2.5 -0.5" fill="#cbcbcb" fill-rule="evenodd" stroke="none"/>
    <path d="M-2.95 2.95 L-2.95 2.7 -2.95 2.55 Q-2.95 1.5 -2.2 0.8 -1.45 0.0 -0.4 0.0 0.65 0.0 1.4 0.8 2.2 1.5 2.2 2.55 2.2 3.3 1.8 3.95 L1.25 3.9 0.7 2.7 -1.6 2.35 -2.85 3.0 -2.95 2.95" fill="#e1e1e1" fill-rule="evenodd" stroke="none"/>
    <path d="M-4.65 2.0 L-2.95 2.95 -2.85 3.0 -1.6 2.35 0.7 2.7 1.25 3.9 1.8 3.95 3.75 4.0 4.1 4.0 3.4 6.5 Q2.6 9.2 2.05 10.1 L1.55 10.25 1.35 10.3 1.25 10.3 1.0 10.4 0.75 10.45 0.6 10.5 -2.85 9.25 -4.55 11.15 -5.8 11.15 -6.3 11.15 -6.25 10.05 -6.2 7.9 -5.75 7.9 -5.35 7.85 -4.45 7.75 -4.05 4.35 -4.8 3.95 -5.5 3.5 -4.95 1.8 -4.65 2.0 M0.75 10.45 L1.25 10.3 0.75 10.45" fill="#ffffff" fill-rule="evenodd" stroke="none"/>
    <path d="M1.0 10.4 L0.05 12.5 Q-1.05 13.8 -2.3 14.25 -3.55 14.65 -5.2 13.45 L-5.8 11.15 -4.55 11.15 -2.85 9.25 0.6 10.5 0.75 10.45 1.0 10.4" fill="#595958" fill-rule="evenodd" stroke="none"/>
    <path d="M-6.2 7.9 L-6.4 7.9 -6.5 6.15 Q-6.5 4.2 -5.85 3.3 L-5.5 3.5 -4.8 3.95 -4.05 4.35 -4.45 7.75 -5.35 7.85 -5.75 7.9 -6.2 7.9" fill="url(#gradient0)" fill-rule="evenodd" stroke="none"/>
    <path d="M-4.65 2.0 L-2.95 2.95 -2.85 3.0 -1.6 2.35 0.7 2.7 1.25 3.9 1.8 3.95 3.75 4.0 4.1 4.0 3.4 6.5 Q2.6 9.2 2.05 10.1 L1.55 10.25 1.35 10.3 1.25 10.3 0.75 10.45 0.6 10.5 -2.85 9.25 -4.55 11.15 -5.8 11.15 -6.3 11.15 -6.25 10.05 -6.2 7.9 M-5.5 3.5 L-4.95 1.8 -4.65 2.0 M-1.85 -1.25 L-2.95 -0.4 M3.2 0.7 L2.5 -0.5 M1.25 -1.4 L-0.4 -1.65" fill="none" stroke="#7a7a7a" stroke-linecap="round" stroke-linejoin="round" stroke-width="1.0"/>
    <path d="M3.75 4.0 L4.55 0.8 2.9 -2.75 -1.1 -3.7 -3.9 -1.75 -4.65 2.0 M1.0 10.4 L0.05 12.5 Q-1.05 13.8 -2.3 14.25 -3.55 14.65 -5.2 13.45 L-5.8 11.15" fill="none" stroke="#3c3c3c" stroke-linecap="round" stroke-linejoin="round" stroke-width="1.0"/>
    <path d="M-2.95 2.95 L-2.95 2.7 -2.95 2.55 Q-2.95 1.5 -2.2 0.8 -1.45 0.0 -0.4 0.0 0.65 0.0 1.4 0.8 2.2 1.5 2.2 2.55 2.2 3.3 1.8 3.95" fill="none" stroke="#9b9b9a" stroke-linecap="round" stroke-linejoin="round" stroke-width="1.0"/>
    <path d="M-6.2 7.9 L-6.4 7.9 -6.5 6.15 Q-6.5 4.2 -5.85 3.3 L-5.5 3.5 -4.8 3.95 -4.05 4.35 -4.45 7.75 -5.35 7.85 -5.75 7.9 -6.2 7.9 Z" fill="none" stroke="#262f40" stroke-linecap="round" stroke-linejoin="round" stroke-width="1.0"/>
  </g>
  <defs>
    <linearGradient gradientTransform="matrix(0.0015, 0.0, 0.0, -0.0015, -5.25, 5.65)" gradientUnits="userSpaceOnUse" id="gradient0" spreadMethod="pad" x1="-819.2" x2="819.2">
      <stop offset="0.0" stop-color="#5b9666"/>
      <stop offset="1.0" stop-color="#253159"/>
    </linearGradient>
  </defs>
</svg>
