<?xml version="1.0" encoding="UTF-8" standalone="no"?>
<svg xmlns:xlink="http://www.w3.org/1999/xlink" height="18.25px" width="11.5px" xmlns="http://www.w3.org/2000/svg">
  <g transform="matrix(1.0, 0.0, 0.0, 1.0, 7.75, 3.2)">
    <path d="M-3.6 2.75 Q-4.1 2.7 -3.5 0.3 -2.95 -2.1 -0.75 -2.6 1.4 -3.1 2.55 -1.1 3.7 0.9 2.9 3.2 2.1 5.5 0.1 9.4 L-2.2 8.95 -3.5 8.7 -5.05 8.2 Q-5.05 6.4 -4.25 5.55 -5.05 6.4 -5.05 8.2 L-5.05 8.85 -5.9 7.55 -7.25 5.65 -6.25 2.75 -5.55 3.55 -4.1 4.8 -4.25 5.55 Q-4.05 5.65 -3.8 5.85 L-3.05 6.35 Q-1.95 6.9 -0.85 6.9 L0.05 4.2 -1.3 3.85 -3.1 3.1 -3.6 2.75 M-0.9 -0.25 L-1.45 1.75 -0.9 -0.25 M0.7 0.55 L-0.4 1.1 0.2 2.6 -0.4 1.1 0.7 0.55" fill="#737373" fill-rule="evenodd" stroke="none"/>
    <path d="M0.1 9.4 L-0.25 11.1 Q-1.55 14.3 -3.15 14.55 -4.75 14.75 -5.15 10.45 L-5.05 9.65 -5.05 8.85 -5.05 8.2 -3.5 8.7 -2.2 8.95 0.1 9.4 M-4.1 4.8 L-3.6 2.75 -3.1 3.1 -1.3 3.85 0.05 4.2 -0.85 6.9 Q-1.95 6.9 -3.05 6.35 L-3.8 5.85 Q-4.05 5.65 -4.25 5.55 L-4.1 4.8" fill="#273f37" fill-rule="evenodd" stroke="none"/>
    <path d="M-3.6 2.75 Q-4.1 2.7 -3.5 0.3 -2.95 -2.1 -0.75 -2.6 1.4 -3.1 2.55 -1.1 3.7 0.9 2.9 3.2 2.1 5.5 0.1 9.4 L-2.2 8.95 -3.5 8.7 -5.05 8.2 Q-5.05 6.4 -4.25 5.55 -4.05 5.65 -3.8 5.85 L-3.05 6.35 Q-1.95 6.9 -0.85 6.9 L0.05 4.2 -1.3 3.85 -3.1 3.1 -3.6 2.75 M-5.05 8.85 L-5.9 7.55 -7.25 5.65 -6.25 2.75 -5.55 3.55 -4.1 4.8 -4.25 5.55 M0.2 2.6 L-0.4 1.1 0.7 0.55 M-1.45 1.75 L-0.9 -0.25" fill="none" stroke="#141c1f" stroke-linecap="round" stroke-linejoin="round" stroke-width="1.0"/>
    <path d="M0.1 9.4 L-0.25 11.1 Q-1.55 14.3 -3.15 14.55 -4.75 14.75 -5.15 10.45 L-5.05 9.65 -5.05 8.85 -5.05 8.2 M-4.1 4.8 L-3.6 2.75" fill="none" stroke="#17241f" stroke-linecap="round" stroke-linejoin="round" stroke-width="1.0"/>
  </g>
</svg>
