<?xml version="1.0" encoding="UTF-8" standalone="no"?>
<svg xmlns:xlink="http://www.w3.org/1999/xlink" height="20.25px" width="12.45px" xmlns="http://www.w3.org/2000/svg">
  <g transform="matrix(1.0, 0.0, 0.0, 1.0, 8.1, 5.45)">
    <path d="M-5.85 5.15 Q-6.7 4.7 -7.6 4.2 -7.0 -3.5 -2.25 -4.85 0.15 -5.25 2.2 -4.1 L1.6 -3.05 1.1 -1.9 1.45 1.75 3.15 2.85 3.85 3.45 Q3.05 6.05 0.7 10.3 L-0.2 9.85 -3.95 8.95 -4.35 7.35 -5.85 5.15 M2.0 4.45 L0.65 3.45 2.0 4.45 M-4.85 -0.75 Q-4.45 -2.35 -3.1 -2.85 -4.45 -2.35 -4.85 -0.75 M-2.55 -1.7 Q-3.6 -0.85 -3.6 -0.1 -3.6 -0.85 -2.55 -1.7 M-1.9 0.55 L-1.3 0.95 -2.05 1.65 -2.25 1.8 -2.8 2.4 -2.25 1.8 -2.05 1.65 -1.3 0.95 -1.9 0.55 M-3.75 1.05 L-4.6 4.0 -6.05 3.4 -5.2 0.35 -3.75 1.05 -5.2 0.35 -6.05 3.4 -4.6 4.0 -3.75 1.05 M-2.25 1.8 L-1.2 2.7 -2.25 1.8 M1.35 5.95 L-0.05 5.0 1.35 5.95 M0.1 2.15 L-1.3 0.95 0.1 2.15" fill="#ffffff" fill-rule="evenodd" stroke="none"/>
    <path d="M1.6 -3.05 Q3.15 -2.0 3.5 -0.4 3.8 1.05 3.15 2.85 L1.45 1.75 1.1 -1.9 1.6 -3.05 M-0.2 9.85 Q-0.55 13.95 -2.2 14.25 L-3.25 14.25 Q-5.9 13.4 -6.0 11.6 L-5.85 5.15 -4.35 7.35 -3.95 8.95 -0.2 9.85" fill="#333333" fill-rule="evenodd" stroke="none"/>
    <path d="M1.6 -3.05 Q3.15 -2.0 3.5 -0.4 3.8 1.05 3.15 2.85 M-0.2 9.85 Q-0.55 13.95 -2.2 14.25 L-3.25 14.25 Q-5.9 13.4 -6.0 11.6 L-5.85 5.15" fill="none" stroke="#000000" stroke-linecap="round" stroke-linejoin="round" stroke-width="1.0"/>
    <path d="M-2.8 2.4 L-2.25 1.8 -2.05 1.65 -1.3 0.95 -1.9 0.55 M-1.2 2.7 L-2.25 1.8 M-1.3 0.95 L0.1 2.15" fill="none" stroke="#999999" stroke-linecap="round" stroke-linejoin="round" stroke-width="1.0"/>
    <path d="M-5.85 5.15 Q-6.7 4.7 -7.6 4.2 -7.0 -3.5 -2.25 -4.85 0.15 -5.25 2.2 -4.1 L1.6 -3.05 M3.15 2.85 L3.85 3.45 Q3.05 6.05 0.7 10.3 L-0.2 9.85" fill="none" stroke="#666666" stroke-linecap="round" stroke-linejoin="round" stroke-width="1.0"/>
    <path d="M-3.6 -0.1 Q-3.6 -0.85 -2.55 -1.7 M-3.1 -2.85 Q-4.45 -2.35 -4.85 -0.75" fill="none" stroke="#aeaeae" stroke-linecap="round" stroke-linejoin="round" stroke-width="1.0"/>
    <path d="M0.65 3.45 L2.0 4.45 M-0.05 5.0 L1.35 5.95" fill="none" stroke="#cccccc" stroke-linecap="round" stroke-linejoin="round" stroke-width="1.0"/>
    <path d="M-3.75 1.05 L-5.2 0.35 -6.05 3.4 -4.6 4.0 -3.75 1.05" fill="none" stroke="#dddddd" stroke-linecap="round" stroke-linejoin="round" stroke-width="1.0"/>
    <path d="M-5.85 5.15 L-4.35 7.35 -3.95 8.95 -0.2 9.85 M1.6 -3.05 L1.1 -1.9 1.45 1.75 3.15 2.85" fill="none" stroke="#8c8c8c" stroke-linecap="round" stroke-linejoin="round" stroke-width="1.0"/>
  </g>
</svg>
