<?xml version="1.0" encoding="UTF-8" standalone="no"?>
<svg xmlns:ffdec="https://www.free-decompiler.com/flash" xmlns:xlink="http://www.w3.org/1999/xlink" ffdec:objectType="shape" height="17.4px" width="10.0px" xmlns="http://www.w3.org/2000/svg">
  <g transform="matrix(1.0, 0.0, 0.0, 1.0, 5.1, 3.0)">
    <path d="M-3.0 0.35 L-2.25 2.3 Q-0.7 5.6 1.85 3.7 L3.75 1.95 3.5 3.2 1.35 8.25 Q0.8 9.35 0.3 11.1 -3.2 17.0 -4.6 10.45 L-3.65 2.9 -3.0 0.35" fill="#eeeeee" fill-rule="evenodd" stroke="none"/>
    <path d="M-3.0 0.35 Q-3.45 -1.35 -2.7 -2.0 -1.6 -3.0 1.4 -2.05 4.35 -1.05 4.4 0.4 4.4 1.1 3.75 1.95 L1.85 3.7 Q-0.7 5.6 -2.25 2.3 L-3.0 0.35" fill="#e1e1e1" fill-rule="evenodd" stroke="none"/>
    <path d="M3.75 1.95 Q4.4 1.1 4.4 0.4 4.35 -1.05 1.4 -2.05 -1.6 -3.0 -2.7 -2.0 -3.45 -1.35 -3.0 0.35 L-2.25 2.3 Q-0.7 5.6 1.85 3.7 L3.75 1.95" fill="none" stroke="#626262" stroke-linecap="round" stroke-linejoin="round" stroke-width="1.0"/>
    <path d="M3.75 1.95 L3.5 3.2 1.35 8.25 Q0.8 9.35 0.3 11.1 -3.2 17.0 -4.6 10.45 L-3.65 2.9 -3.0 0.35" fill="none" stroke="#414141" stroke-linecap="round" stroke-linejoin="round" stroke-width="1.0"/>
  </g>
</svg>
