<?xml version="1.0" encoding="UTF-8" standalone="no"?>
<svg xmlns:xlink="http://www.w3.org/1999/xlink" height="23.15px" width="12.3px" xmlns="http://www.w3.org/2000/svg">
  <g transform="matrix(1.0, 0.0, 0.0, 1.0, 2.6, 3.55)">
    <path d="M3.45 1.55 L6.3 8.45 6.55 9.2 Q7.05 10.65 6.4 11.75 L5.15 13.2 4.35 13.3 0.25 5.9 Q-0.95 3.55 -1.55 1.2 L-1.65 0.35 -1.3 1.2 Q0.1 4.15 2.35 2.5 L3.45 1.55" fill="#eeeeee" fill-rule="evenodd" stroke="none"/>
    <path d="M-1.65 0.35 Q-2.55 -1.9 -1.7 -2.6 L-1.55 -2.7 Q-0.5 -3.45 1.95 -2.65 L3.35 -2.05 Q4.55 -1.35 4.6 -0.5 4.6 0.4 3.45 1.55 L2.35 2.5 Q0.1 4.15 -1.3 1.2 L-1.65 0.35" fill="#e1e1e1" fill-rule="evenodd" stroke="none"/>
    <path d="M7.15 12.75 Q8.2 12.4 8.6 13.5 9.55 15.1 8.95 16.9 8.9 17.5 8.15 17.65 L7.8 17.7 6.15 17.65 5.35 16.8 5.0 16.0 Q4.7 15.35 4.9 14.75 L4.95 14.6 Q5.25 13.85 6.25 13.2 L7.15 12.75" fill="#514d80" fill-rule="evenodd" stroke="none"/>
    <path d="M6.4 11.75 L7.15 12.75 6.25 13.2 Q5.25 13.85 4.95 14.6 4.9 13.9 5.15 13.2 L6.4 11.75 M8.15 17.65 Q7.7 19.15 7.15 19.1 6.6 19.05 5.95 18.6 5.3 18.1 5.35 16.8 L6.15 17.65 7.8 17.7 8.15 17.65" fill="#13112b" fill-rule="evenodd" stroke="none"/>
    <path d="M-1.65 0.35 Q-2.55 -1.9 -1.7 -2.6 L-1.55 -2.7 Q-0.5 -3.45 1.95 -2.65 L3.35 -2.05 Q4.55 -1.35 4.6 -0.5 4.6 0.4 3.45 1.55 L2.35 2.5 Q0.1 4.15 -1.3 1.2 L-1.65 0.35" fill="none" stroke="#626262" stroke-linecap="round" stroke-linejoin="round" stroke-width="1.0"/>
    <path d="M3.45 1.55 L6.3 8.45 6.55 9.2 Q7.05 10.65 6.4 11.75 M5.15 13.2 L4.35 13.3 0.25 5.9 Q-0.95 3.55 -1.55 1.2 L-1.65 0.35" fill="none" stroke="#414141" stroke-linecap="round" stroke-linejoin="round" stroke-width="1.0"/>
    <path d="M6.4 11.75 L7.15 12.75 M8.15 17.65 Q7.7 19.15 7.15 19.1 6.6 19.05 5.95 18.6 5.3 18.1 5.35 16.8 M4.95 14.6 Q4.9 13.9 5.15 13.2 L6.4 11.75" fill="none" stroke="#0a0917" stroke-linecap="round" stroke-linejoin="round" stroke-width="1.0"/>
    <path d="M7.15 12.75 Q8.2 12.4 8.6 13.5 9.55 15.1 8.95 16.9 8.9 17.5 8.15 17.65 L7.8 17.7 6.15 17.65 5.35 16.8 5.0 16.0 Q4.7 15.35 4.9 14.75 L4.95 14.6 Q5.25 13.85 6.25 13.2 L7.15 12.75" fill="none" stroke="#222035" stroke-linecap="round" stroke-linejoin="round" stroke-width="1.0"/>
  </g>
</svg>
