<?xml version="1.0" encoding="UTF-8" standalone="no"?>
<svg xmlns:ffdec="https://www.free-decompiler.com/flash" xmlns:xlink="http://www.w3.org/1999/xlink" ffdec:objectType="shape" height="18.25px" width="11.5px" xmlns="http://www.w3.org/2000/svg">
  <g transform="matrix(1.0, 0.0, 0.0, 1.0, 7.75, 3.2)">
    <path d="M-3.6 2.75 Q-4.1 2.7 -3.5 0.3 -2.95 -2.1 -0.75 -2.6 1.4 -3.1 2.55 -1.1 3.7 0.9 2.9 3.2 2.1 5.5 0.1 9.4 L-2.2 8.95 -3.5 8.7 -5.05 8.2 Q-5.05 6.4 -4.25 5.55 -5.05 6.4 -5.05 8.2 L-5.05 8.85 -5.9 7.55 -7.25 5.65 -6.25 2.75 -5.55 3.55 -4.1 4.8 -4.25 5.55 Q-4.05 5.65 -3.8 5.85 L-3.05 6.35 Q-1.95 6.9 -0.85 6.9 L0.05 4.2 -1.3 3.85 -3.1 3.1 -3.6 2.75 M0.1 2.5 L-1.85 1.75 0.9 0.35 -1.05 -0.4 0.9 0.35 -1.85 1.75 0.1 2.5" fill="#262626" fill-rule="evenodd" stroke="none"/>
    <path d="M0.1 9.4 L-0.25 11.1 Q-1.55 14.3 -3.15 14.55 -4.75 14.75 -5.15 10.45 L-5.05 9.65 -5.05 8.85 -5.05 8.2 -3.5 8.7 -2.2 8.95 0.1 9.4" fill="#111a15" fill-rule="evenodd" stroke="none"/>
    <path d="M-4.1 4.8 L-3.6 2.75 -3.1 3.1 -1.3 3.85 0.05 4.2 -0.85 6.9 Q-1.95 6.9 -3.05 6.35 L-3.8 5.85 Q-4.05 5.65 -4.25 5.55 L-4.1 4.8" fill="#d601c8" fill-rule="evenodd" stroke="none"/>
    <path d="M-3.6 2.75 Q-4.1 2.7 -3.5 0.3 -2.95 -2.1 -0.75 -2.6 1.4 -3.1 2.55 -1.1 3.7 0.9 2.9 3.2 2.1 5.5 0.1 9.4 L-2.2 8.95 -3.5 8.7 -5.05 8.2 -5.05 8.85 -5.9 7.55 -7.25 5.65 -6.25 2.75 -5.55 3.55 -4.1 4.8 M-3.6 2.75 L-3.1 3.1 -1.3 3.85 0.05 4.2 -0.85 6.9 Q-1.95 6.9 -3.05 6.35 L-3.8 5.85 Q-4.05 5.65 -4.25 5.55 -5.05 6.4 -5.05 8.2" fill="none" stroke="#0e1314" stroke-linecap="round" stroke-linejoin="round" stroke-width="1.0"/>
    <path d="M0.1 9.4 L-0.25 11.1 Q-1.55 14.3 -3.15 14.55 -4.75 14.75 -5.15 10.45 L-5.05 9.65 -5.05 8.85 M-4.1 4.8 L-3.6 2.75 M-4.25 5.55 L-4.1 4.8" fill="none" stroke="#0b0e0f" stroke-linecap="round" stroke-linejoin="round" stroke-width="1.0"/>
    <path d="M-1.05 -0.4 L0.9 0.35 -1.85 1.75 0.1 2.5" fill="none" stroke="#070707" stroke-linecap="round" stroke-linejoin="round" stroke-width="1.0"/>
  </g>
</svg>
