<?xml version="1.0" encoding="UTF-8" standalone="no"?>
<svg xmlns:xlink="http://www.w3.org/1999/xlink" height="26.4px" width="20.45px" xmlns="http://www.w3.org/2000/svg">
  <g transform="matrix(1.0, 0.0, 0.0, 1.0, 10.15, 24.05)">
    <path d="M1.25 -0.75 L2.85 -0.7 Q3.0 -0.05 2.75 0.55 -0.5 3.1 -2.6 0.7 L-2.6 -0.4 1.1 -0.75 1.25 -0.75" fill="#1a1a1a" fill-rule="evenodd" stroke="none"/>
    <path d="M4.15 -0.75 L3.95 -3.0 4.2 -4.65 4.85 -6.35 Q5.05 -6.85 6.65 -7.0 L8.0 -7.0 Q9.6 -5.25 9.8 -3.35 10.0 -1.45 8.4 -0.1 L4.3 -0.7 4.15 -0.75 M-5.05 -5.35 L-5.15 -4.0 Q-5.25 -3.2 -6.25 -2.45 L-7.1 -3.85 -9.5 -5.25 Q-10.2 -10.15 -8.0 -12.1 L-6.6 -11.95 -5.6 -11.05 -5.2 -7.55 -5.05 -5.35 M6.95 -1.9 L5.85 -1.9 5.85 -3.05 5.85 -1.9 6.95 -1.9" fill="#161b1d" fill-rule="evenodd" stroke="none"/>
    <path d="M-5.05 -5.35 L-2.85 -3.05 0.75 -2.8 1.25 -0.75 1.1 -0.75 -2.6 -0.4 -4.7 -0.75 Q-5.55 -0.8 -6.25 -2.45 -5.25 -3.2 -5.15 -4.0 L-5.05 -5.35" fill="#152026" fill-rule="evenodd" stroke="none"/>
    <path d="M8.0 -7.0 L6.65 -7.0 Q5.05 -6.85 4.85 -6.35 L4.2 -4.65 3.95 -3.0 4.15 -0.75 4.3 -0.7 2.85 -0.7 1.25 -0.75 0.75 -2.8 -2.85 -3.05 -5.05 -5.35 -5.2 -7.55 -5.6 -11.05 -6.6 -11.95 -8.0 -12.1 -8.5 -12.8 -9.0 -13.55 -6.95 -14.3 -5.45 -14.55 -3.0 -14.55 Q2.15 -13.95 4.5 -12.1 L5.6 -11.05 1.0 -11.35 -2.6 -13.6 -3.7 -11.8 -1.0 -9.0 -0.65 -8.0 -3.55 -5.6 -2.1 -4.0 1.2 -4.0 3.25 -7.3 3.5 -7.4 3.5 -7.35 Q4.05 -8.95 7.8 -8.4 L8.0 -7.0 M-4.55 -12.1 L-5.45 -12.8 -5.45 -13.65 -5.45 -14.55 -5.45 -13.65 -5.45 -12.8 -4.55 -12.1" fill="url(#gradient0)" fill-rule="evenodd" stroke="none"/>
    <path d="M3.25 -7.3 L1.2 -4.0 -2.1 -4.0 -3.55 -5.6 -0.65 -8.0 0.1 -6.85 3.25 -7.3 M-1.0 -9.0 L-3.7 -11.8 -2.6 -13.6 1.0 -11.35 Q0.4 -11.3 0.1 -11.05 -1.3 -10.4 -1.0 -9.0" fill="#131c20" fill-rule="evenodd" stroke="none"/>
    <path d="M7.8 -8.4 Q4.05 -8.95 3.5 -7.35 L3.5 -7.4 3.25 -7.3 0.1 -6.85 -0.65 -8.0 -1.0 -9.0 Q-1.3 -10.4 0.1 -11.05 0.4 -11.3 1.0 -11.35 L5.6 -11.05 7.0 -10.6 7.8 -8.4" fill="url(#gradient1)" fill-rule="evenodd" stroke="none"/>
    <path d="M2.85 -0.7 Q3.0 -0.05 2.75 0.55 -0.5 3.1 -2.6 0.7 L-2.6 -0.4" fill="none" stroke="#0d0d0d" stroke-linecap="round" stroke-linejoin="round" stroke-width="1.0"/>
    <path d="M-5.45 -14.55 L-5.45 -13.65 -5.45 -12.8 -4.55 -12.1 M-5.45 -14.55 L-5.45 -23.55" fill="none" stroke="#000000" stroke-linecap="round" stroke-linejoin="round" stroke-opacity="0.5019608" stroke-width="1.0"/>
    <path d="M8.0 -7.0 L7.8 -8.4 M5.6 -11.05 L4.5 -12.1 Q2.15 -13.95 -3.0 -14.55 L-5.45 -14.55 -6.95 -14.3 -9.0 -13.55 -8.5 -12.8 -8.0 -12.1 -6.6 -11.95 -5.6 -11.05 -5.2 -7.55 -5.05 -5.35 M4.3 -0.7 L4.15 -0.75 M1.25 -0.75 L2.85 -0.7 4.3 -0.7 8.4 -0.1 Q10.0 -1.45 9.8 -3.35 9.6 -5.25 8.0 -7.0 M-6.25 -2.45 L-7.1 -3.85 -9.5 -5.25 Q-10.2 -10.15 -8.0 -12.1" fill="none" stroke="#070a0a" stroke-linecap="round" stroke-linejoin="round" stroke-width="1.0"/>
    <path d="M4.15 -0.75 L3.95 -3.0 4.2 -4.65 4.85 -6.35 Q5.05 -6.85 6.65 -7.0 L8.0 -7.0 M5.85 -3.05 L5.85 -1.9 6.95 -1.9" fill="none" stroke="#0e1314" stroke-linecap="round" stroke-linejoin="round" stroke-width="1.0"/>
    <path d="M7.8 -8.4 Q4.05 -8.95 3.5 -7.35 L3.5 -7.4 3.25 -7.3 0.1 -6.85 -0.65 -8.0 -1.0 -9.0 Q-1.3 -10.4 0.1 -11.05 0.4 -11.3 1.0 -11.35 L5.6 -11.05 7.0 -10.6 7.8 -8.4" fill="none" stroke="#0d1214" stroke-linecap="round" stroke-linejoin="round" stroke-width="1.0"/>
    <path d="M1.25 -0.75 L0.75 -2.8 -2.85 -3.05 -5.05 -5.35 -5.15 -4.0 Q-5.25 -3.2 -6.25 -2.45 -5.55 -0.8 -4.7 -0.75 L-2.6 -0.4 1.1 -0.75 1.25 -0.75" fill="none" stroke="#0c1113" stroke-linecap="round" stroke-linejoin="round" stroke-width="1.0"/>
  </g>
  <defs>
    <radialGradient cx="0" cy="0" gradientTransform="matrix(0.0243, 0.0, 0.0, 0.0243, -10.5, -0.75)" gradientUnits="userSpaceOnUse" id="gradient0" r="819.2" spreadMethod="pad">
      <stop offset="0.0" stop-color="#1d2b38"/>
      <stop offset="0.6588235294117647" stop-color="#27363f"/>
      <stop offset="1.0" stop-color="#4d6277"/>
    </radialGradient>
    <radialGradient cx="0" cy="0" gradientTransform="matrix(0.0201, 0.0, 0.0, 0.0201, -7.75, -5.6)" gradientUnits="userSpaceOnUse" id="gradient1" r="819.2" spreadMethod="pad">
      <stop offset="0.0" stop-color="#143041"/>
      <stop offset="0.6196078431372549" stop-color="#3c84b3"/>
      <stop offset="1.0" stop-color="#4491c4"/>
    </radialGradient>
  </defs>
</svg>
