<?xml version="1.0" encoding="UTF-8" standalone="no"?>
<svg xmlns:ffdec="https://www.free-decompiler.com/flash" xmlns:xlink="http://www.w3.org/1999/xlink" ffdec:objectType="shape" height="21.8px" width="15.4px" xmlns="http://www.w3.org/2000/svg">
  <g transform="matrix(1.0, 0.0, 0.0, 1.0, 11.25, 5.1)">
    <path d="M-8.55 11.75 Q-10.4 11.7 -10.75 9.55 -8.35 3.35 -5.2 0.0 L-3.65 -0.9 -8.5 9.85 -8.55 11.75" fill="#333333" fill-rule="evenodd" stroke="none"/>
    <path d="M-3.65 -0.9 Q-2.45 -4.4 0.3 -4.6 1.4 -4.65 2.15 -3.8 4.7 -0.45 2.95 4.3 L1.35 4.8 -1.9 10.9 Q-2.5 19.85 -8.65 13.7 L-8.55 11.75 -8.5 9.85 -3.65 -0.9 -2.8 1.35 -5.25 6.35 -4.8 7.4 -3.3 6.35 -1.7 3.55 1.2 4.85 -1.7 3.55 -3.3 6.35 -4.8 7.4 -5.25 6.35 -2.8 1.35 -3.65 -0.9 M1.35 4.8 L1.25 4.8 1.2 4.85 1.25 4.8 1.35 4.8 M1.0 -2.4 L-0.3 -2.75 1.0 -2.4" fill="#666666" fill-rule="evenodd" stroke="none"/>
    <path d="M-3.65 -0.9 Q-2.45 -4.4 0.3 -4.6 1.4 -4.65 2.15 -3.8 4.7 -0.45 2.95 4.3 L1.35 4.8 -1.9 10.9 Q-2.5 19.85 -8.65 13.7 L-8.55 11.75 M1.2 4.85 L1.25 4.8 1.35 4.8 M-0.3 -2.75 L1.0 -2.4" fill="none" stroke="#2f2f2f" stroke-linecap="round" stroke-linejoin="round" stroke-width="1.0"/>
    <path d="M-8.55 11.75 Q-10.4 11.7 -10.75 9.55 -8.35 3.35 -5.2 0.0 L-3.65 -0.9 -8.5 9.85 -8.55 11.75" fill="none" stroke="#1a1a1a" stroke-linecap="round" stroke-linejoin="round" stroke-width="1.0"/>
    <path d="M-3.65 -0.9 L-2.8 1.35 -5.25 6.35 -4.8 7.4 -3.3 6.35 -1.7 3.55 1.2 4.85" fill="none" stroke="#515151" stroke-linecap="round" stroke-linejoin="round" stroke-width="1.0"/>
  </g>
</svg>
