<?xml version="1.0" encoding="UTF-8" standalone="no"?>
<svg xmlns:ffdec="https://www.free-decompiler.com/flash" xmlns:xlink="http://www.w3.org/1999/xlink" ffdec:objectType="shape" height="15.45px" width="31.85px" xmlns="http://www.w3.org/2000/svg">
  <g transform="matrix(1.0, 0.0, 0.0, 1.0, -29.3, 8.7)">
    <path d="M32.1 -6.45 Q34.15 -8.7 37.15 -8.7 L37.6 -8.7 38.1 -8.7 Q41.0 -8.7 43.15 -6.45 45.2 -4.15 45.2 -0.95 45.2 2.2 43.15 4.5 41.0 6.75 38.1 6.75 L37.6 6.7 37.15 6.75 Q34.15 6.75 32.1 4.5 29.95 2.2 30.0 -0.95 29.95 -4.15 32.1 -6.45" fill="url(#gradient0)" fill-rule="evenodd" stroke="none"/>
    <path d="M33.65 -3.7 Q38.0 -4.75 44.25 -4.75 L45.25 -4.7 46.25 -4.75 Q52.35 -4.75 56.8 -3.7 61.15 -2.65 61.15 -1.2 61.15 0.25 56.8 1.3 52.35 2.35 46.25 2.35 L45.25 2.3 44.25 2.35 Q38.0 2.35 33.65 1.3 29.2 0.25 29.3 -1.2 29.2 -2.65 33.65 -3.7" fill="url(#gradient1)" fill-rule="evenodd" stroke="none"/>
  </g>
  <defs>
    <radialGradient cx="0" cy="0" gradientTransform="matrix(0.0088, 0.0, 0.0, 0.0092, 37.5, -1.1)" gradientUnits="userSpaceOnUse" id="gradient0" r="819.2" spreadMethod="pad">
      <stop offset="0.17647058823529413" stop-color="#ffffff"/>
      <stop offset="1.0" stop-color="#ffb711" stop-opacity="0.0"/>
    </radialGradient>
    <radialGradient cx="0" cy="0" gradientTransform="matrix(0.0185, 0.0, 0.0, 0.0042, 45.0, -1.25)" gradientUnits="userSpaceOnUse" id="gradient1" r="819.2" spreadMethod="pad">
      <stop offset="0.17647058823529413" stop-color="#ffffff"/>
      <stop offset="1.0" stop-color="#ffb711" stop-opacity="0.0"/>
    </radialGradient>
  </defs>
</svg>
