<?xml version="1.0" encoding="UTF-8" standalone="no"?>
<svg xmlns:xlink="http://www.w3.org/1999/xlink" height="33.1px" width="44.7px" xmlns="http://www.w3.org/2000/svg">
  <g transform="matrix(1.0, 0.0, 0.0, 1.0, 12.6, 10.7)">
    <path d="M22.4 15.55 Q23.3 19.05 22.3 21.05 21.9 18.25 19.25 15.4 L22.4 15.55 M11.35 15.05 Q11.45 18.6 11.0 20.1 L8.0 16.55 Q7.45 15.85 7.7 14.85 -1.55 12.4 -0.1 17.85 L1.6 22.4 Q-1.3 22.25 -4.75 20.8 -6.75 16.1 -3.65 11.4 L-5.05 8.7 -2.45 5.75 -0.9 3.35 -6.25 1.95 -8.0 -0.05 3.0 0.55 7.7 14.85 11.35 15.05 M-1.6 -3.8 Q-2.15 -3.0 -3.3 -3.0 -5.3 -3.0 -5.4 -5.0 -5.4 -7.0 -3.3 -7.0 -1.2 -7.0 -1.2 -5.0 -1.2 -4.35 -1.6 -3.8 M14.0 9.8 Q14.0 10.4 13.6 11.0 13.05 11.8 12.0 11.8 10.85 11.8 10.3 10.85 10.0 10.3 10.0 9.8 10.0 7.7 12.0 7.85 14.0 8.05 14.0 9.8" fill="#000000" fill-rule="evenodd" stroke="none"/>
    <path d="M-8.0 -0.05 L-11.45 -0.2 Q-12.45 -1.95 -6.75 -9.7 L13.2 -9.55 17.4 -5.85 15.4 -0.45 23.1 1.95 20.0 6.15 28.0 6.65 30.75 6.95 Q31.1 9.0 31.1 11.2 L30.9 15.95 22.4 15.55 19.25 15.4 11.35 15.05 7.7 14.85 3.0 0.55 -8.0 -0.05 M14.0 9.8 Q14.0 8.05 12.0 7.85 10.0 7.7 10.0 9.8 10.0 10.3 10.3 10.85 10.85 11.8 12.0 11.8 13.05 11.8 13.6 11.0 14.0 10.4 14.0 9.8 M-1.6 -3.8 Q-1.2 -4.35 -1.2 -5.0 -1.2 -7.0 -3.3 -7.0 -5.4 -7.0 -5.4 -5.0 -5.3 -3.0 -3.3 -3.0 -2.15 -3.0 -1.6 -3.8" fill="url(#gradient0)" fill-rule="evenodd" stroke="none"/>
    <path d="M-8.0 -0.05 L-11.45 -0.2 Q-12.45 -1.95 -6.75 -9.7 L13.2 -9.55 17.4 -5.85 15.4 -0.45 23.1 1.95 20.0 6.15 28.0 6.65 30.75 6.95 Q31.1 9.0 31.1 11.2 L30.9 15.95 22.4 15.55 19.25 15.4 11.35 15.05 7.7 14.85 3.0 0.55 -8.0 -0.05 Z" fill="none" stroke="#222222" stroke-linecap="round" stroke-linejoin="round" stroke-width="2.0"/>
  </g>
  <defs>
    <linearGradient gradientTransform="matrix(0.0261, 0.0, 0.0, 0.0157, 9.75, 3.1)" gradientUnits="userSpaceOnUse" id="gradient0" spreadMethod="pad" x1="-819.2" x2="819.2">
      <stop offset="0.0" stop-color="#1e1e1e"/>
      <stop offset="1.0" stop-color="#5e5e5e"/>
    </linearGradient>
  </defs>
</svg>
