<?xml version="1.0" encoding="UTF-8" standalone="no"?>
<svg xmlns:xlink="http://www.w3.org/1999/xlink" height="22.15px" width="14.3px" xmlns="http://www.w3.org/2000/svg">
  <g transform="matrix(1.0, 0.0, 0.0, 1.0, 4.35, 3.65)">
    <path d="M2.3 13.15 L1.8 13.2 Q0.4 10.95 0.95 9.45 L5.5 9.3 Q8.1 11.9 7.5 14.25 L7.25 14.0 6.3 14.0 Q4.55 12.35 2.3 13.15" fill="#324144" fill-rule="evenodd" stroke="none"/>
    <path d="M2.3 13.15 Q4.55 12.35 6.3 14.0 L7.25 14.0 7.5 14.25 Q8.85 15.3 9.25 15.9 10.0 17.6 7.8 18.0 3.65 17.4 2.3 13.15" fill="#3c5154" fill-rule="evenodd" stroke="none"/>
    <path d="M7.5 14.25 Q8.1 11.9 5.5 9.3 L0.95 9.45 Q0.4 10.95 1.8 13.2 L2.3 13.15 Q4.55 12.35 6.3 14.0 L7.25 14.0 7.5 14.25 Q8.85 15.3 9.25 15.9 10.0 17.6 7.8 18.0 3.65 17.4 2.3 13.15" fill="none" stroke="#1d3130" stroke-linecap="round" stroke-linejoin="round" stroke-width="1.0"/>
    <path d="M-3.5 2.7 L-3.85 -0.5 -2.6 -2.4 0.3 -3.15 2.1 -1.85 3.25 1.0 4.6 7.35 6.15 8.45 5.8 10.6 4.9 11.85 3.8 12.35 2.0 12.5 -0.45 11.4 -1.25 9.3 -0.25 7.05 -1.75 2.55 -1.6 2.3 -3.5 2.7 M-0.95 1.25 L-1.6 2.3 -0.95 1.25 M2.8 4.3 Q2.95 3.85 2.7 3.4 L1.9 2.8 1.0 2.95 Q0.5 3.25 0.35 3.7 0.25 4.2 0.55 4.65 0.8 5.15 1.3 5.25 L2.25 5.1 Q2.7 4.8 2.8 4.3" fill="#60898b" fill-rule="evenodd" stroke="none"/>
    <path d="M-1.25 9.3 L-3.5 2.7 -1.6 2.3 -1.75 2.55 -0.25 7.05 -1.25 9.3" fill="#5ba097" fill-rule="evenodd" stroke="none"/>
    <path d="M2.8 4.3 Q2.7 4.8 2.25 5.1 L1.3 5.25 Q0.8 5.15 0.55 4.65 0.25 4.2 0.35 3.7 0.5 3.25 1.0 2.95 L1.9 2.8 2.7 3.4 Q2.95 3.85 2.8 4.3" fill="#324144" fill-rule="evenodd" stroke="none"/>
    <path d="M-3.5 2.7 L-3.85 -0.5 -2.6 -2.4 0.3 -3.15 2.1 -1.85 3.25 1.0 4.6 7.35 6.15 8.45 5.8 10.6 4.9 11.85 3.8 12.35 2.0 12.5 -0.45 11.4 -1.25 9.3 -3.5 2.7 -1.6 2.3 -0.95 1.25 M2.8 4.3 Q2.7 4.8 2.25 5.1 L1.3 5.25 Q0.8 5.15 0.55 4.65 0.25 4.2 0.35 3.7 0.5 3.25 1.0 2.95 L1.9 2.8 2.7 3.4 Q2.95 3.85 2.8 4.3 M-1.25 9.3 L-0.25 7.05 -1.75 2.55 -1.6 2.3" fill="none" stroke="#1d3130" stroke-linecap="round" stroke-linejoin="round" stroke-width="1.0"/>
  </g>
</svg>
