<?xml version="1.0" encoding="UTF-8" standalone="no"?>
<svg xmlns:xlink="http://www.w3.org/1999/xlink" height="20.95px" width="11.95px" xmlns="http://www.w3.org/2000/svg">
  <g transform="matrix(1.0, 0.0, 0.0, 1.0, 7.6, 3.75)">
    <path d="M-2.45 14.05 Q-2.85 16.15 -3.85 16.55 -4.85 16.9 -5.65 16.55 -6.45 16.1 -6.6 15.1 L-6.5 12.95 Q-6.15 12.2 -4.45 12.7 -2.75 13.2 -2.45 14.05" fill="#1a1a1a" fill-rule="evenodd" stroke="none"/>
    <path d="M-6.2 10.95 L-7.1 7.8 -5.7 3.8 -4.5 3.8 -3.4 5.25 -3.5 6.3 -3.75 7.8 -3.95 9.35 -6.15 11.0 -6.2 10.95" fill="#161b1d" fill-rule="evenodd" stroke="none"/>
    <path d="M2.35 5.0 L0.95 5.0 0.4 5.8 -0.55 7.75 -1.15 9.2 Q-2.25 12.0 -2.45 14.05 -2.75 13.2 -4.45 12.7 -6.15 12.2 -6.5 12.95 L-6.2 11.0 -6.2 10.95 -6.15 11.0 -3.95 9.35 -3.75 7.8 -3.5 6.3 -3.4 5.25 -4.5 3.8 -3.75 2.2 -4.0 1.6 -4.35 0.95 Q0.2 1.2 2.35 5.0 M-3.75 7.8 L-1.15 9.2 -3.75 7.8 M-3.5 6.3 L-0.55 7.75 -3.5 6.3 M-6.2 11.0 L-6.15 11.0 -6.2 11.0 M0.95 5.0 Q-1.15 2.6 -3.75 2.2 -1.15 2.6 0.95 5.0" fill="#0f1213" fill-rule="evenodd" stroke="none"/>
    <path d="M-4.35 0.95 Q-3.5 -1.65 -2.3 -2.35 -0.25 -3.75 1.5 -3.0 3.2 -2.3 3.85 0.35 3.85 2.4 2.35 5.0 0.2 1.2 -4.35 0.95" fill="url(#gradient0)" fill-rule="evenodd" stroke="none"/>
    <path d="M-2.45 14.05 Q-2.85 16.15 -3.85 16.55 -4.85 16.9 -5.65 16.55 -6.45 16.1 -6.6 15.1 L-6.5 12.95" fill="none" stroke="#000000" stroke-linecap="round" stroke-linejoin="round" stroke-width="1.0"/>
    <path d="M2.35 5.0 L0.95 5.0 0.4 5.8 -0.55 7.75 -1.15 9.2 Q-2.25 12.0 -2.45 14.05 -2.75 13.2 -4.45 12.7 -6.15 12.2 -6.5 12.95 L-6.2 11.0 -6.2 10.95 -7.1 7.8 -5.7 3.8 -4.5 3.8 -3.75 2.2 -4.0 1.6 -4.35 0.95 M-6.2 10.95 L-6.15 11.0 -3.95 9.35 -3.75 7.8 -3.5 6.3 -3.4 5.25 -4.5 3.8 M-6.15 11.0 L-6.2 11.0 M-0.55 7.75 L-3.5 6.3 M-1.15 9.2 L-3.75 7.8 M-3.75 2.2 Q-1.15 2.6 0.95 5.0" fill="none" stroke="#070a0a" stroke-linecap="round" stroke-linejoin="round" stroke-width="1.0"/>
    <path d="M-4.35 0.95 Q-3.5 -1.65 -2.3 -2.35 -0.25 -3.75 1.5 -3.0 3.2 -2.3 3.85 0.35 3.85 2.4 2.35 5.0 0.2 1.2 -4.35 0.95 Z" fill="none" stroke="#0e1314" stroke-linecap="round" stroke-linejoin="round" stroke-width="1.0"/>
  </g>
  <defs>
    <radialGradient cx="0" cy="0" gradientTransform="matrix(0.0096, 0.0, 0.0, 0.0096, -2.05, 4.3)" gradientUnits="userSpaceOnUse" id="gradient0" r="819.2" spreadMethod="pad">
      <stop offset="0.0" stop-color="#1d2b38"/>
      <stop offset="0.6588235294117647" stop-color="#27363f"/>
      <stop offset="1.0" stop-color="#4d6277"/>
    </radialGradient>
  </defs>
</svg>
