<?xml version="1.0" encoding="UTF-8" standalone="no"?>
<svg xmlns:xlink="http://www.w3.org/1999/xlink" height="19.15px" width="17.7px" xmlns="http://www.w3.org/2000/svg">
  <g transform="matrix(1.0, 0.0, 0.0, 1.0, 7.8, 16.95)">
    <path d="M2.8 -1.35 L2.8 0.7 1.6 1.7 -1.7 1.6 -2.8 0.3 -2.9 0.25 -2.9 -1.6 -2.6 -1.6 -2.4 -1.55 -2.1 -1.55 2.8 -1.35" fill="#000000" fill-rule="evenodd" stroke="none"/>
    <path d="M7.6 -9.95 Q7.3 -9.05 7.6 -8.2 7.9 -7.4 8.15 -7.35 6.9 -6.2 -1.35 -5.9 -0.1 -9.0 -3.0 -10.9 -0.35 -9.9 7.6 -9.95 M5.4 -8.4 L3.7 -8.4 5.4 -8.4" fill="#cc9933" fill-rule="evenodd" stroke="none"/>
    <path d="M2.15 -3.4 L1.9 -2.8 1.3 -2.55 Q0.95 -2.55 0.7 -2.8 0.45 -3.05 0.45 -3.4 L0.7 -4.0 Q0.95 -4.25 1.3 -4.25 L1.9 -4.0 2.15 -3.4 M-0.7 -3.8 Q-0.7 -3.45 -0.95 -3.2 -1.2 -2.95 -1.55 -2.95 L-2.15 -3.2 -2.4 -3.8 -2.15 -4.4 -1.55 -4.65 -0.95 -4.4 -0.7 -3.8" fill="#273847" fill-rule="evenodd" stroke="none"/>
    <path d="M7.75 -13.55 L7.15 -14.1 5.85 -15.0 8.45 -15.0 8.45 -13.65 7.75 -13.55 M-3.0 -10.9 Q-0.1 -9.0 -1.35 -5.9 L-6.75 -5.5 -6.8 -5.8 -6.85 -5.9 -6.9 -6.15 -6.95 -7.45 -6.65 -8.85 -6.4 -9.35 Q-5.45 -10.7 -3.0 -10.9 M-3.45 -8.25 L-3.45 -9.4 -3.45 -8.25 M-4.95 -7.3 L-4.95 -9.3 -4.95 -7.3" fill="#152026" fill-rule="evenodd" stroke="none"/>
    <path d="M-1.35 -5.9 Q6.9 -6.2 8.15 -7.35 L8.25 -7.35 Q10.9 -5.1 7.55 -1.75 L2.8 -1.35 -2.1 -1.55 -2.4 -1.55 -2.6 -1.6 -2.9 -1.6 Q-4.15 -2.0 -5.1 -3.0 L-6.75 -5.5 -1.35 -5.9 M2.15 -3.4 L1.9 -4.0 1.3 -4.25 Q0.95 -4.25 0.7 -4.0 L0.45 -3.4 Q0.45 -3.05 0.7 -2.8 0.95 -2.55 1.3 -2.55 L1.9 -2.8 2.15 -3.4 M6.95 -3.75 L5.95 -4.25 6.95 -3.75 M8.15 -4.65 L6.5 -5.3 8.15 -4.65 M-0.7 -3.8 L-0.95 -4.4 -1.55 -4.65 -2.15 -4.4 -2.4 -3.8 -2.15 -3.2 -1.55 -2.95 Q-1.2 -2.95 -0.95 -3.2 -0.7 -3.45 -0.7 -3.8" fill="#242f39" fill-rule="evenodd" stroke="none"/>
    <path d="M6.1 -13.2 L5.5 -12.95 5.25 -12.35 Q5.25 -12.0 5.5 -11.75 5.75 -11.5 6.1 -11.5 6.45 -11.5 6.7 -11.75 L6.95 -12.35 6.7 -12.95 6.1 -13.2 M5.85 -15.0 L7.15 -14.1 7.75 -13.55 Q8.9 -12.3 9.3 -10.45 L7.6 -9.95 Q-0.35 -9.9 -3.0 -10.9 -5.45 -10.7 -6.4 -9.35 L-6.65 -8.85 -6.95 -7.45 -7.2 -10.1 -7.3 -11.2 -6.85 -12.5 Q-5.8 -14.65 -4.35 -15.25 -0.5 -16.95 2.5 -16.2 4.45 -15.75 5.85 -15.0 M-1.45 -12.6 Q-3.6 -13.45 -4.35 -15.25 -3.6 -13.45 -1.45 -12.6 M-4.15 -11.85 Q-5.15 -12.5 -5.5 -13.45 -5.15 -12.5 -4.15 -11.85" fill="url(#gradient0)" fill-rule="evenodd" stroke="none"/>
    <path d="M6.1 -13.2 L6.7 -12.95 6.95 -12.35 6.7 -11.75 Q6.45 -11.5 6.1 -11.5 5.75 -11.5 5.5 -11.75 5.25 -12.0 5.25 -12.35 L5.5 -12.95 6.1 -13.2" fill="url(#gradient1)" fill-rule="evenodd" stroke="none"/>
    <path d="M8.15 -7.35 L8.2 -7.4" fill="none" stroke="#000000" stroke-linecap="round" stroke-linejoin="round" stroke-width="1.0"/>
    <path d="M8.2 -7.4 L8.25 -7.35 8.15 -7.35 M2.8 -1.35 L2.8 0.7 1.6 1.7 -1.7 1.6 -2.8 0.3 -2.9 0.25 -2.9 -1.6 -2.6 -1.6 M-2.1 -1.55 L-2.4 -1.55" fill="none" stroke="#000000" stroke-linecap="round" stroke-linejoin="round" stroke-width="1.0"/>
    <path d="M8.15 -7.35 Q7.9 -7.4 7.6 -8.2 7.3 -9.05 7.6 -9.95" fill="none" stroke="#5f4429" stroke-linecap="round" stroke-linejoin="round" stroke-width="1.0"/>
    <path d="M-3.0 -10.9 Q-0.1 -9.0 -1.35 -5.9 6.9 -6.2 8.15 -7.35 M-4.95 -9.3 L-4.95 -7.3 M-3.45 -9.4 L-3.45 -8.25" fill="none" stroke="#0d1214" stroke-linecap="round" stroke-linejoin="round" stroke-width="1.0"/>
    <path d="M2.15 -3.4 L1.9 -2.8 1.3 -2.55 Q0.95 -2.55 0.7 -2.8 0.45 -3.05 0.45 -3.4 L0.7 -4.0 Q0.95 -4.25 1.3 -4.25 L1.9 -4.0 2.15 -3.4 M6.5 -5.3 L8.15 -4.65 M5.95 -4.25 L6.95 -3.75 M-0.7 -3.8 Q-0.7 -3.45 -0.95 -3.2 -1.2 -2.95 -1.55 -2.95 L-2.15 -3.2 -2.4 -3.8 -2.15 -4.4 -1.55 -4.65 -0.95 -4.4 -0.7 -3.8" fill="none" stroke="#121c21" stroke-linecap="round" stroke-linejoin="round" stroke-width="1.0"/>
    <path d="M7.6 -9.95 Q-0.35 -9.9 -3.0 -10.9" fill="none" stroke="#0d1213" stroke-linecap="round" stroke-linejoin="round" stroke-width="1.0"/>
    <path d="M6.1 -13.2 L6.7 -12.95 6.95 -12.35 6.7 -11.75 Q6.45 -11.5 6.1 -11.5 5.75 -11.5 5.5 -11.75 5.25 -12.0 5.25 -12.35 L5.5 -12.95 6.1 -13.2 M-4.35 -15.25 Q-3.6 -13.45 -1.45 -12.6 M-5.5 -13.45 Q-5.15 -12.5 -4.15 -11.85" fill="none" stroke="#1b252c" stroke-linecap="round" stroke-linejoin="round" stroke-width="1.0"/>
    <path d="M3.7 -8.4 L5.4 -8.4" fill="none" stroke="#36250e" stroke-linecap="round" stroke-linejoin="round" stroke-width="1.5"/>
    <path d="M7.75 -13.55 L7.15 -14.1 5.85 -15.0 Q4.45 -15.75 2.5 -16.2 -0.5 -16.95 -4.35 -15.25 -5.8 -14.65 -6.85 -12.5 L-7.3 -11.2 -7.2 -10.1 -6.95 -7.45 -6.9 -6.15 -6.85 -5.9 -6.8 -5.8 -6.75 -5.5 -1.35 -5.9 M7.75 -13.55 L8.45 -13.65 8.45 -15.0 5.85 -15.0 M7.6 -9.95 L9.3 -10.45 Q8.9 -12.3 7.75 -13.55 M8.25 -7.35 Q10.9 -5.1 7.55 -1.75 L2.8 -1.35 -2.1 -1.55 M-2.9 -1.6 Q-4.15 -2.0 -5.1 -3.0 L-6.75 -5.5 M-3.0 -10.9 Q-5.45 -10.7 -6.4 -9.35 L-6.65 -8.85 -6.95 -7.45 M-2.4 -1.55 L-2.6 -1.6" fill="none" stroke="#0d1215" stroke-linecap="round" stroke-linejoin="round" stroke-width="1.0"/>
    <path d="M2.8 -6.2 L-1.2 -5.9 Q-0.85 -6.85 -0.95 -7.9 L-1.5 -10.3 Q3.4 -9.65 7.85 -10.25 8.6 -8.4 8.3 -7.05 L2.8 -6.2" fill="#70c6fe" fill-opacity="0.5019608" fill-rule="evenodd" stroke="none"/>
    <path d="M2.8 -6.2 L-1.2 -5.9 Q-0.85 -6.85 -0.95 -7.9 L-1.5 -10.3 Q3.4 -9.65 7.85 -10.25 8.6 -8.4 8.3 -7.05 L2.8 -6.2 Z" fill="none" stroke="#000000" stroke-linecap="round" stroke-linejoin="round" stroke-opacity="0.3019608" stroke-width="1.0"/>
    <path d="M4.5 -0.05 Q3.65 -0.05 3.05 -0.65 2.5 -1.2 2.5 -2.05 2.5 -2.9 3.05 -3.5 3.65 -4.05 4.5 -4.05 5.35 -4.05 5.9 -3.5 6.5 -2.9 6.5 -2.05 6.5 -1.2 5.9 -0.65 5.35 -0.05 4.5 -0.05" fill="#161b1d" fill-rule="evenodd" stroke="none"/>
    <path d="M4.5 -0.05 Q3.65 -0.05 3.05 -0.65 2.5 -1.2 2.5 -2.05 2.5 -2.9 3.05 -3.5 3.65 -4.05 4.5 -4.05 5.35 -4.05 5.9 -3.5 6.5 -2.9 6.5 -2.05 6.5 -1.2 5.9 -0.65 5.35 -0.05 4.5 -0.05 Z" fill="none" stroke="#0e1314" stroke-linecap="round" stroke-linejoin="round" stroke-width="1.0"/>
  </g>
  <defs>
    <radialGradient cx="0" cy="0" gradientTransform="matrix(0.0211, 0.0, 0.0, 0.0211, -1.45, 0.35)" gradientUnits="userSpaceOnUse" id="gradient0" r="819.2" spreadMethod="pad">
      <stop offset="0.0" stop-color="#1d2b38"/>
      <stop offset="0.6588235294117647" stop-color="#27363f"/>
      <stop offset="1.0" stop-color="#4d6277"/>
    </radialGradient>
    <radialGradient cx="0" cy="0" gradientTransform="matrix(0.0147, 0.0, 0.0, 0.0147, 0.0, -3.25)" gradientUnits="userSpaceOnUse" id="gradient1" r="819.2" spreadMethod="pad">
      <stop offset="0.0" stop-color="#1d2b38"/>
      <stop offset="0.6588235294117647" stop-color="#27363f"/>
      <stop offset="1.0" stop-color="#4d6277"/>
    </radialGradient>
  </defs>
</svg>
