<?xml version="1.0" encoding="UTF-8" standalone="no"?>
<svg xmlns:xlink="http://www.w3.org/1999/xlink" height="19.35px" width="13.1px" xmlns="http://www.w3.org/2000/svg">
  <g transform="matrix(1.0, 0.0, 0.0, 1.0, 7.8, 3.6)">
    <path d="M-1.1 -2.95 L0.45 -2.75 3.45 -1.7 0.75 3.85 -2.45 2.9 -1.1 -2.95" fill="url(#gradient0)" fill-rule="evenodd" stroke="none"/>
    <path d="M3.45 -1.7 L0.45 -2.75 -1.1 -2.95 -2.45 2.9 0.75 3.85 3.45 -1.7 M-5.15 7.45 L-6.15 7.35 -7.3 4.45 -6.1 1.8 Q-4.45 -1.25 -2.45 -3.1 L0.05 -2.9 Q2.95 -2.35 4.8 -1.15 L4.7 2.55 Q4.5 6.55 3.95 7.8 L1.9 9.8 1.15 9.4 -0.6 8.6 Q-2.25 7.9 -3.85 7.6 L-5.1 7.45 -5.15 7.45 M-2.5 6.45 L-3.1 4.55 -2.5 6.45 M-4.5 5.6 L-5.05 3.7 -4.5 5.6" fill="#3f474c" fill-rule="evenodd" stroke="none"/>
    <path d="M1.15 9.4 Q0.4 11.9 -0.45 13.4 -2.75 15.8 -4.35 15.1 -5.95 14.35 -6.4 13.1 -6.5 11.9 -6.05 10.2 L-5.35 8.05 -5.15 7.45 -5.1 7.45 -3.85 7.6 Q-2.25 7.9 -0.6 8.6 L1.15 9.4" fill="url(#gradient1)" fill-rule="evenodd" stroke="none"/>
    <path d="M-5.15 7.45 L-6.15 7.35 -7.3 4.45 -6.1 1.8 Q-4.45 -1.25 -2.45 -3.1 L0.05 -2.9 Q2.95 -2.35 4.8 -1.15 L4.7 2.55 Q4.5 6.55 3.95 7.8 L1.9 9.8 1.15 9.4 -0.6 8.6 Q-2.25 7.9 -3.85 7.6 L-5.1 7.45 -5.15 7.45 M-0.45 13.4 Q-2.75 15.8 -4.35 15.1 -5.95 14.35 -6.4 13.1" fill="none" stroke="#22262a" stroke-linecap="round" stroke-linejoin="round" stroke-width="1.0"/>
    <path d="M-1.1 -2.95 L-2.45 2.9 0.75 3.85 3.45 -1.7 M-5.05 3.7 L-4.5 5.6 M-3.1 4.55 L-2.5 6.45" fill="none" stroke="#292e33" stroke-linecap="round" stroke-linejoin="round" stroke-width="1.0"/>
    <path d="M1.15 9.4 Q0.4 11.9 -0.45 13.4 M-6.4 13.1 Q-6.5 11.9 -6.05 10.2 L-5.35 8.05 -5.15 7.45" fill="none" stroke="#22262a" stroke-linecap="round" stroke-linejoin="miter-clip" stroke-miterlimit="4.0" stroke-width="1.0"/>
  </g>
  <defs>
    <linearGradient gradientTransform="matrix(0.0031, 5.0E-4, -5.0E-4, 0.0031, 214.85, 32.45)" gradientUnits="userSpaceOnUse" id="gradient0" spreadMethod="pad" x1="-819.2" x2="819.2">
      <stop offset="0.0" stop-color="#353a40"/>
      <stop offset="1.0" stop-color="#000000"/>
    </linearGradient>
    <linearGradient gradientTransform="matrix(0.0043, 6.0E-4, -8.0E-4, 0.0051, 20.1, 15.2)" gradientUnits="userSpaceOnUse" id="gradient1" spreadMethod="pad" x1="-819.2" x2="819.2">
      <stop offset="0.0" stop-color="#242b30"/>
      <stop offset="1.0" stop-color="#000000"/>
    </linearGradient>
  </defs>
</svg>
