<?xml version="1.0" encoding="UTF-8" standalone="no"?>
<svg xmlns:ffdec="https://www.free-decompiler.com/flash" xmlns:xlink="http://www.w3.org/1999/xlink" ffdec:objectType="shape" height="20.25px" width="53.2px" xmlns="http://www.w3.org/2000/svg">
  <g transform="matrix(1.0, 0.0, 0.0, 1.0, 8.75, 8.75)">
    <path d="M42.2 -6.8 L43.95 -6.8 43.15 -1.6 40.2 2.4 39.7 4.4 35.75 4.4 34.75 4.4 31.35 4.4 27.15 4.3 24.65 4.25 25.35 1.7 27.75 0.2 39.7 0.9 41.4 -1.4 41.85 -3.85 42.2 -6.8 M33.3 2.65 L27.95 2.35 27.15 4.3 27.95 2.35 33.3 2.65" fill="#666666" fill-rule="evenodd" stroke="none"/>
    <path d="M25.35 1.7 L24.65 4.25 24.15 4.1 22.45 9.6 19.25 9.35 19.25 6.9 17.45 5.2 16.65 5.1 13.15 8.6 9.25 9.0 8.15 10.55 -0.1 11.0 -4.85 7.8 -4.95 7.7 -4.95 3.4 -7.3 2.25 -4.55 0.7 3.35 0.3 12.95 1.1 18.35 2.3 21.65 0.6 25.35 1.7 M15.0 3.55 L7.85 3.55 0.45 3.1 -0.75 4.25 0.85 7.8 11.7 7.05 15.0 3.55" fill="#333333" fill-rule="evenodd" stroke="none"/>
    <path d="M4.05 -0.85 L4.1 -2.4 -1.7 -4.25 -4.7 -0.75 4.05 -0.85 M8.65 -2.5 L7.65 -0.75 15.75 0.05 12.05 -3.25 8.65 -2.5 M-0.15 -8.25 L1.95 -5.0 12.75 -4.8 19.05 -1.6 25.35 -1.4 27.35 -4.1 28.35 -8.2 31.65 -8.2 34.85 -8.2 38.15 -8.2 42.35 -8.2 42.2 -6.8 41.85 -3.85 41.4 -1.4 39.7 0.9 27.75 0.2 25.35 1.7 21.65 0.6 18.35 2.3 12.95 1.1 3.35 0.3 -4.55 0.7 -7.3 2.25 -8.25 1.8 -7.75 -2.0 -4.9 -3.35 -3.55 -7.65 -0.15 -8.25 M34.75 -5.7 L34.85 -8.2 34.75 -5.7 M39.65 -2.2 L39.75 -4.2 32.0 -3.65 28.8 -1.25 37.0 -0.65 39.65 -2.2 M31.25 -5.4 L31.65 -8.2 31.25 -5.4 M37.75 -6.0 L38.15 -8.2 37.75 -6.0" fill="#657964" fill-rule="evenodd" stroke="none"/>
    <path d="M4.05 -0.85 L-4.7 -0.75 -1.7 -4.25 4.1 -2.4 4.05 -0.85 M8.65 -2.5 L12.05 -3.25 15.75 0.05 7.65 -0.75 8.65 -2.5 M39.65 -2.2 L37.0 -0.65 28.8 -1.25 32.0 -3.65 39.75 -4.2 39.65 -2.2" fill="#939672" fill-rule="evenodd" stroke="none"/>
    <path d="M42.2 -6.8 L43.95 -6.8 43.15 -1.6 40.2 2.4 39.7 4.4 35.75 4.4 37.95 6.5 37.95 9.2 39.45 9.2 M39.7 0.9 L27.75 0.2 25.35 1.7 M24.65 4.25 L27.15 4.3 27.95 2.35 33.3 2.65 M35.75 4.4 L34.75 4.4 31.35 4.4 27.15 4.3" fill="none" stroke="#3c3c3c" stroke-linecap="round" stroke-linejoin="round" stroke-width="1.0"/>
    <path d="M25.35 1.7 L24.65 4.25 24.15 4.1 22.45 9.6 19.25 9.35 19.25 6.9 17.45 5.2 16.65 5.1 13.15 8.6 9.25 9.0 8.15 10.55 -0.1 11.0 -4.85 7.8 -4.95 7.7 -4.95 3.4 -7.3 2.25 -4.55 0.7 3.35 0.3 12.95 1.1 18.35 2.3 21.65 0.6 25.35 1.7 M15.0 3.55 L7.85 3.55 0.45 3.1 -0.75 4.25 0.85 7.8 11.7 7.05 15.0 3.55" fill="none" stroke="#000000" stroke-linecap="round" stroke-linejoin="round" stroke-width="1.0"/>
    <path d="M-0.15 -8.25 L1.95 -5.0 12.75 -4.8 19.05 -1.6 25.35 -1.4 27.35 -4.1 28.35 -8.2" fill="none" stroke="#263924" stroke-linecap="round" stroke-linejoin="round" stroke-width="1.0"/>
    <path d="M28.35 -8.2 L31.65 -8.2 34.85 -8.2 38.15 -8.2 42.35 -8.2 42.2 -6.8 41.85 -3.85 41.4 -1.4 39.7 0.9 M34.85 -8.2 L34.75 -5.7 M38.15 -8.2 L37.75 -6.0 M31.65 -8.2 L31.25 -5.4 M-7.3 2.25 L-8.25 1.8 -7.75 -2.0 -4.9 -3.35 -3.55 -7.65 -0.15 -8.25" fill="none" stroke="#465346" stroke-linecap="round" stroke-linejoin="round" stroke-width="1.0"/>
  </g>
</svg>
