<?xml version="1.0" encoding="UTF-8" standalone="no"?>
<svg xmlns:xlink="http://www.w3.org/1999/xlink" height="23.6px" width="12.65px" xmlns="http://www.w3.org/2000/svg">
  <g transform="matrix(1.0, 0.0, 0.0, 1.0, 2.8, 3.55)">
    <path d="M2.0 -0.1 L2.55 -0.4 3.05 -0.25 3.4 0.25 3.25 0.85 2.8 1.1 2.2 1.0 1.85 0.5 2.0 -0.1 1.85 0.5 2.2 1.0 2.8 1.1 3.25 0.85 3.4 0.25 3.05 -0.25 2.55 -0.4 2.0 -0.1 M-1.5 1.2 Q-2.35 -0.2 -2.3 -1.35 -2.55 -3.5 0.6 -2.9 3.7 -2.3 4.55 -1.0 4.95 -0.35 4.6 0.45 L3.65 1.8 3.5 2.0 2.75 2.6 1.35 3.15 1.15 3.15 0.8 3.05 1.15 3.15 0.9 3.15 0.8 3.05 -0.45 2.5 -1.5 1.25 -0.45 2.5 Q-1.25 2.25 -1.7 2.9 L-1.8 2.15 -1.5 1.25 -1.5 1.2 M0.65 -1.8 L1.2 -1.1 Q1.25 -0.55 0.95 -0.05 L0.15 0.4 -0.8 0.25 Q-1.25 -0.1 -1.3 -0.65 -1.4 -1.1 -1.1 -1.5 -0.75 -1.95 -0.25 -2.0 L0.65 -1.8 -0.25 -2.0 Q-0.75 -1.95 -1.1 -1.5 -1.4 -1.1 -1.3 -0.65 -1.25 -0.1 -0.8 0.25 L0.15 0.4 0.95 -0.05 Q1.25 -0.55 1.2 -1.1 L0.65 -1.8" fill="#e1e1e1" fill-rule="evenodd" stroke="none"/>
    <path d="M3.5 2.0 L3.65 1.8 4.6 0.45 Q5.3 1.1 5.3 2.55 L5.25 4.6 Q5.2 5.2 5.5 5.8 L3.6 2.15 3.5 2.0" fill="#656564" fill-rule="evenodd" stroke="none"/>
    <path d="M1.15 3.15 L1.35 3.15 2.75 2.6 3.5 2.0 3.6 2.15 5.5 5.8 5.5 5.85 6.15 7.45 Q7.05 9.7 6.9 10.75 L6.65 11.7 Q7.3 11.85 7.8 12.7 4.0 14.6 5.55 16.8 6.1 17.65 7.3 17.85 L8.8 17.65 Q8.65 18.65 8.0 19.15 6.6 20.5 4.85 17.4 3.75 15.5 4.0 14.15 L4.75 13.35 5.15 12.3 Q4.7 9.6 3.2 6.65 2.05 4.45 0.9 3.15 L1.15 3.15 M6.65 11.7 L6.05 12.5 4.75 13.35 6.05 12.5 6.65 11.7" fill="#5f5e5e" fill-rule="evenodd" stroke="none"/>
    <path d="M-0.45 2.5 L0.8 3.05 0.9 3.15 Q2.05 4.45 3.2 6.65 4.7 9.6 5.15 12.3 L4.75 13.35 4.0 14.15 -1.55 6.55 Q-2.35 5.45 -2.1 3.55 L-1.85 2.95 -1.7 2.9 Q-1.25 2.25 -0.45 2.5 M7.8 12.7 L8.2 12.5 Q8.85 13.35 9.15 15.0 L9.3 17.3 8.8 17.65 7.3 17.85 Q6.1 17.65 5.55 16.8 4.0 14.6 7.8 12.7" fill="#ffffff" fill-rule="evenodd" stroke="none"/>
    <path d="M4.6 0.45 Q5.3 1.1 5.3 2.55 L5.25 4.6 Q5.2 5.2 5.5 5.8" fill="none" stroke="#4f4f4f" stroke-linecap="round" stroke-linejoin="round" stroke-width="1.0"/>
    <path d="M-1.5 1.2 L-1.5 1.25 -1.8 2.15 -1.7 2.9 M5.5 5.8 L5.5 5.85 6.15 7.45 Q7.05 9.7 6.9 10.75 L6.65 11.7 Q7.3 11.85 7.8 12.7 M8.8 17.65 Q8.65 18.65 8.0 19.15 6.6 20.5 4.85 17.4 3.75 15.5 4.0 14.15 M4.75 13.35 L6.05 12.5 6.65 11.7" fill="none" stroke="#434343" stroke-linecap="round" stroke-linejoin="round" stroke-width="1.0"/>
    <path d="M7.8 12.7 L8.2 12.5 Q8.85 13.35 9.15 15.0 L9.3 17.3 8.8 17.65 7.3 17.85 Q6.1 17.65 5.55 16.8 4.0 14.6 7.8 12.7 M4.0 14.15 L-1.55 6.55 Q-2.35 5.45 -2.1 3.55 L-1.85 2.95 -1.7 2.9 M4.0 14.15 L4.75 13.35 5.15 12.3 Q4.7 9.6 3.2 6.65 2.05 4.45 0.9 3.15" fill="none" stroke="#7b7b7b" stroke-linecap="round" stroke-linejoin="round" stroke-width="1.0"/>
    <path d="M2.0 -0.1 L1.85 0.5 2.2 1.0 2.8 1.1 3.25 0.85 3.4 0.25 3.05 -0.25 2.55 -0.4 2.0 -0.1 M0.65 -1.8 L-0.25 -2.0 Q-0.75 -1.95 -1.1 -1.5 -1.4 -1.1 -1.3 -0.65 -1.25 -0.1 -0.8 0.25 L0.15 0.4 0.95 -0.05 Q1.25 -0.55 1.2 -1.1 L0.65 -1.8" fill="none" stroke="#9b9b9a" stroke-linecap="round" stroke-linejoin="round" stroke-width="1.0"/>
    <path d="M4.6 0.45 Q4.95 -0.35 4.55 -1.0 3.7 -2.3 0.6 -2.9 -2.55 -3.5 -2.3 -1.35 -2.35 -0.2 -1.5 1.2 M-1.5 1.25 L-0.45 2.5 0.8 3.05 1.15 3.15 1.35 3.15 2.75 2.6 3.5 2.0 3.65 1.8 4.6 0.45 M-1.7 2.9 Q-1.25 2.25 -0.45 2.5" fill="none" stroke="#7b7b7b" stroke-linecap="round" stroke-linejoin="round" stroke-width="1.0"/>
  </g>
</svg>
