<?xml version="1.0" encoding="UTF-8" standalone="no"?>
<svg xmlns:ffdec="https://www.free-decompiler.com/flash" xmlns:xlink="http://www.w3.org/1999/xlink" ffdec:objectType="shape" height="22.5px" width="13.45px" xmlns="http://www.w3.org/2000/svg">
  <g transform="matrix(1.0, 0.0, 0.0, 1.0, 7.2, 5.0)">
    <path d="M-1.85 6.1 L-1.25 6.3 3.3 6.5 Q1.7 11.35 -1.2 15.75 -2.1 17.1 -3.6 17.0 L-1.85 11.35 -2.8 8.8 -1.85 6.1" fill="#425365" fill-rule="evenodd" stroke="none"/>
    <path d="M-4.95 3.8 Q-3.6 5.4 -1.85 6.1 L-2.8 8.8 -1.85 11.35 -3.6 17.0 Q-6.8 16.55 -6.7 13.85 -6.45 8.95 -4.95 3.8" fill="#182130" fill-rule="evenodd" stroke="none"/>
    <path d="M-4.95 3.8 L-6.05 2.3 Q-4.7 -1.6 -2.2 -3.4 0.0 -4.95 2.15 -4.3 4.35 -3.65 5.3 -1.0 6.25 1.95 5.1 6.0 L3.3 6.5 -1.25 6.3 -1.85 6.1 Q-3.6 5.4 -4.95 3.8" fill="url(#gradient0)" fill-rule="evenodd" stroke="none"/>
    <path d="M3.3 6.5 L5.1 6.0 Q6.25 1.95 5.3 -1.0 4.35 -3.65 2.15 -4.3 0.0 -4.95 -2.2 -3.4 -4.7 -1.6 -6.05 2.3 L-4.95 3.8" fill="none" stroke="#131a23" stroke-linecap="round" stroke-linejoin="round" stroke-width="1.0"/>
    <path d="M-4.95 3.8 Q-3.6 5.4 -1.85 6.1 L-1.25 6.3 3.3 6.5" fill="none" stroke="#141b25" stroke-linecap="round" stroke-linejoin="round" stroke-width="1.0"/>
    <path d="M3.3 6.5 Q1.7 11.35 -1.2 15.75 -2.1 17.1 -3.6 17.0 -6.8 16.55 -6.7 13.85 -6.45 8.95 -4.95 3.8 M-1.85 6.1 L-2.8 8.8 -1.85 11.35 -3.6 17.0" fill="none" stroke="#0e131c" stroke-linecap="round" stroke-linejoin="round" stroke-width="1.0"/>
  </g>
  <defs>
    <radialGradient cx="0" cy="0" gradientTransform="matrix(0.0162, 0.0, 0.0, 0.0162, -3.95, 8.35)" gradientUnits="userSpaceOnUse" id="gradient0" r="819.2" spreadMethod="pad">
      <stop offset="0.0" stop-color="#222e3e"/>
      <stop offset="0.6588235294117647" stop-color="#222e3e"/>
      <stop offset="1.0" stop-color="#4d6277"/>
    </radialGradient>
  </defs>
</svg>
