<?xml version="1.0" encoding="UTF-8" standalone="no"?>
<svg xmlns:ffdec="https://www.free-decompiler.com/flash" xmlns:xlink="http://www.w3.org/1999/xlink" ffdec:objectType="shape" height="21.25px" width="12.8px" xmlns="http://www.w3.org/2000/svg">
  <g transform="matrix(1.0, 0.0, 0.0, 1.0, 7.15, 4.45)">
    <path d="M-3.7 2.1 L-4.0 1.9 -4.4 1.55 -4.5 1.45 -3.1 -3.0 -1.95 -3.95 4.25 -3.0 5.15 -1.1 4.25 3.9 4.2 3.9 2.6 4.15 1.2 4.2 -0.35 4.0 -0.8 3.9 -0.85 3.85 -0.95 3.8 -2.9 2.7 -3.6 2.2 -3.7 2.1 -2.9 2.7 -3.7 2.1 M-1.95 0.8 L-1.2 -1.1 -1.95 0.8 M2.1 1.95 L2.3 -0.4 2.1 1.95" fill="#b6a087" fill-rule="evenodd" stroke="none"/>
    <path d="M2.6 4.15 L1.75 6.7 1.4 6.6 0.45 6.35 0.45 6.3 1.2 4.2 2.6 4.15 M0.7 9.8 L-0.15 12.3 -0.55 12.0 -1.0 11.75 Q-1.15 11.65 -1.35 11.6 L-0.6 9.4 0.7 9.8 M-6.0 10.95 L-5.25 8.1 -1.75 9.1 -2.35 11.25 -2.55 11.15 -6.0 10.95 M-4.4 4.95 L-3.6 2.2 -2.9 2.7 -0.95 3.8 -0.85 3.85 -0.8 3.9 -0.35 4.0 -0.9 5.95 -1.75 5.7 -4.4 5.0 -4.4 4.95 -1.75 5.7 -4.4 4.95 M0.45 6.3 L1.4 6.6 0.45 6.3" fill="#655c57" fill-rule="evenodd" stroke="none"/>
    <path d="M1.75 6.7 L2.1 6.8 1.2 9.9 0.7 9.8 -0.6 9.4 -1.75 9.1 -5.25 8.1 -5.7 7.95 -4.9 4.85 -4.4 5.0 -1.75 5.7 -0.9 5.95 0.45 6.35 1.4 6.6 1.75 6.7 M-0.15 12.3 L0.0 12.6 0.05 12.75 0.05 12.85 Q-0.05 14.35 -1.4 15.45 -2.8 16.7 -4.5 16.15 -6.1 15.65 -6.55 13.5 -6.95 11.5 -6.05 11.0 L-6.05 10.95 -6.0 10.95 -6.05 11.0 -6.0 10.95 -2.55 11.15 -2.35 11.25 -1.35 11.6 Q-1.15 11.65 -1.0 11.75 L-0.55 12.0 -0.15 12.3" fill="#836958" fill-rule="evenodd" stroke="none"/>
    <path d="M-3.7 2.1 L-4.0 1.9 -4.4 1.55 -4.5 1.45 -3.1 -3.0 -1.95 -3.95 4.25 -3.0 5.15 -1.1 4.25 3.9 4.2 3.9 2.6 4.15 1.2 4.2 -0.35 4.0 -0.8 3.9 -0.85 3.85 -0.95 3.8 -2.9 2.7 -3.7 2.1" fill="none" stroke="#655447" stroke-linecap="round" stroke-linejoin="round" stroke-width="1.0"/>
    <path d="M2.6 4.15 L1.75 6.7 M0.7 9.8 L-0.15 12.3 M-6.0 10.95 L-5.25 8.1 M-4.4 4.95 L-3.6 2.2 M-4.4 5.0 L-4.4 4.95 M-0.9 5.95 L-0.35 4.0 M-6.05 11.0 L-6.0 10.95 M-2.35 11.25 L-1.75 9.1 M-1.35 11.6 L-0.6 9.4 M0.45 6.3 L0.45 6.35 M0.45 6.3 L1.2 4.2" fill="none" stroke="#2b2a29" stroke-linecap="round" stroke-linejoin="round" stroke-width="1.0"/>
    <path d="M1.75 6.7 L2.1 6.8 1.2 9.9 0.7 9.8 -0.6 9.4 -1.75 9.1 -5.25 8.1 -5.7 7.95 -4.9 4.85 -4.4 4.95 -1.75 5.7 -0.9 5.95 0.45 6.3 1.4 6.6 1.75 6.7 M-0.15 12.3 L0.0 12.6 0.05 12.75 0.05 12.85 Q-0.05 14.35 -1.4 15.45 -2.8 16.7 -4.5 16.15 -6.1 15.65 -6.55 13.5 -6.95 11.5 -6.05 11.0 L-6.05 10.95 -6.0 10.95 -2.55 11.15 -2.35 11.25 -1.35 11.6 Q-1.15 11.65 -1.0 11.75 L-0.55 12.0 -0.15 12.3" fill="none" stroke="#433a33" stroke-linecap="round" stroke-linejoin="round" stroke-width="1.0"/>
    <path d="M2.3 -0.4 L2.1 1.95 M-1.2 -1.1 L-1.95 0.8" fill="none" stroke="#473d36" stroke-linecap="round" stroke-linejoin="round" stroke-width="1.0"/>
  </g>
</svg>
