<?xml version="1.0" encoding="UTF-8" standalone="no"?>
<svg xmlns:xlink="http://www.w3.org/1999/xlink" height="20.6px" width="11.4px" xmlns="http://www.w3.org/2000/svg">
  <g transform="matrix(1.0, 0.0, 0.0, 1.0, 7.35, 3.1)">
    <path d="M-2.65 -1.6 Q-1.3 -2.75 0.55 -2.6 2.25 -2.45 3.0 -1.25 4.2 0.75 2.7 4.65 L0.1 10.6 -1.05 14.1 Q-1.55 15.7 -2.15 16.1 -4.0 17.3 -5.45 16.9 -6.95 16.5 -6.85 14.9 -6.8 11.55 -5.4 5.75 -3.9 -0.5 -2.65 -1.6" fill="#586254" fill-rule="evenodd" stroke="none"/>
    <path d="M-2.65 -1.6 Q-1.3 -2.75 0.55 -2.6 2.25 -2.45 3.0 -1.25 4.2 0.75 2.7 4.65 L0.1 10.6 -1.05 14.1 Q-1.55 15.7 -2.15 16.1 -4.0 17.3 -5.45 16.9 -6.95 16.5 -6.85 14.9 -6.8 11.55 -5.4 5.75 -3.9 -0.5 -2.65 -1.6 Z" fill="none" stroke="#2a2f28" stroke-linecap="round" stroke-linejoin="round" stroke-width="1.05"/>
    <path d="M1.85 2.55 Q1.45 3.8 -0.6 4.35 L-2.6 4.7" fill="none" stroke="#434b40" stroke-linecap="round" stroke-linejoin="round" stroke-width="1.05"/>
    <path d="M-1.65 7.5 Q-2.55 8.0 -3.45 9.75 L-4.25 11.35" fill="none" stroke="#434b40" stroke-linecap="round" stroke-linejoin="round" stroke-width="1.05"/>
  </g>
</svg>
