<?xml version="1.0" encoding="UTF-8" standalone="no"?>
<svg xmlns:xlink="http://www.w3.org/1999/xlink" height="28.15px" width="16.35px" xmlns="http://www.w3.org/2000/svg">
  <g transform="matrix(1.0, 0.0, 0.0, 1.0, 9.3, 8.8)">
    <path d="M0.7 14.1 Q1.2 14.25 0.85 15.15 L0.4 16.15 -0.9 17.35 Q-2.5 18.85 -4.05 18.85 L-5.55 18.3 -7.15 16.65 -7.5 15.8 Q-7.6 15.2 -7.0 14.45 L-5.45 13.45 -5.15 13.35 -3.7 13.3 -1.4 13.65 0.7 14.1" fill="#605e4d" fill-rule="evenodd" stroke="none"/>
    <path d="M3.05 5.4 L-2.85 6.05 -6.3 4.95 -6.5 4.85 -7.7 4.45 -7.2 3.05 -2.6 4.45 4.6 3.75 4.45 5.15 3.05 5.4" fill="#4c4c3b" fill-rule="evenodd" stroke="none"/>
    <path d="M-6.7 7.25 L-6.55 7.25 Q-5.4 7.6 -4.75 9.45 L1.7 10.15 1.75 10.6 1.45 12.45 Q1.15 13.8 0.7 14.1 L-1.4 13.65 -3.7 13.3 -5.15 13.35 -5.45 13.45 -7.0 14.45 -8.5 14.5 -8.8 13.05 -8.35 6.8 -6.7 7.25" fill="#414538" fill-rule="evenodd" stroke="none"/>
    <path d="M3.05 5.4 L3.05 7.45 1.7 10.15 -4.75 9.45 Q-5.4 7.6 -6.55 7.25 L-6.7 7.25 -6.5 4.85 -6.3 4.95 -2.85 6.05 3.05 5.4" fill="#35372f" fill-rule="evenodd" stroke="none"/>
    <path d="M5.0 1.55 L5.25 3.55 4.6 3.75 -2.6 4.45 -7.2 3.05 -7.85 2.85 -7.25 1.4 -2.65 2.4 5.0 1.55" fill="#525749" fill-rule="evenodd" stroke="none"/>
    <path d="M0.8 -6.55 L1.2 -7.15 0.8 -6.55 0.15 -5.5 0.8 -6.55 M-0.35 -4.75 L0.15 -5.5 -0.35 -4.75 -0.9 -3.9 -0.35 -4.75 M-0.8 1.3 L-0.9 -3.9 -0.8 1.3 M-7.25 1.4 L-8.65 0.1 Q-9.0 -4.05 -6.4 -6.4 -4.1 -8.5 -0.7 -8.3 2.75 -8.1 4.8 -5.65 7.1 -2.95 6.35 1.4 L5.0 1.55 -2.65 2.4 -7.25 1.4 M-4.2 -1.35 L-6.25 -0.2 -7.0 -1.7 -6.25 -0.2 -4.2 -1.35 M-4.05 -3.75 L-5.55 -3.0 -6.1 -4.1 -5.55 -3.0 -4.05 -3.75" fill="url(#gradient0)" fill-rule="evenodd" stroke="none"/>
    <path d="M0.7 14.1 Q1.2 14.25 0.85 15.15 L0.4 16.15 -0.9 17.35 Q-2.5 18.85 -4.05 18.85 L-5.55 18.3 -7.15 16.65 -7.5 15.8 Q-7.6 15.2 -7.0 14.45" fill="none" stroke="#444337" stroke-linecap="round" stroke-linejoin="round" stroke-width="1.0"/>
    <path d="M4.6 3.75 L4.45 5.15 3.05 5.4 M-7.2 3.05 L-7.7 4.45 -6.5 4.85" fill="none" stroke="#353b2f" stroke-linecap="round" stroke-linejoin="round" stroke-width="1.0"/>
    <path d="M-6.7 7.25 L-6.55 7.25 M1.7 10.15 L1.75 10.6 1.45 12.45 Q1.15 13.8 0.7 14.1 M-7.0 14.45 L-8.5 14.5 -8.8 13.05 -8.35 6.8 -6.7 7.25" fill="none" stroke="#33372c" stroke-linecap="round" stroke-linejoin="round" stroke-width="1.0"/>
    <path d="M1.7 10.15 L3.05 7.45 3.05 5.4 -2.85 6.05 -6.3 4.95 M-6.5 4.85 L-6.7 7.25 M-6.55 7.25 Q-5.4 7.6 -4.75 9.45 L1.7 10.15" fill="none" stroke="#252723" stroke-linecap="round" stroke-linejoin="round" stroke-width="1.0"/>
    <path d="M5.0 1.55 L5.25 3.55 4.6 3.75 -2.6 4.45 -7.2 3.05 -7.85 2.85 -7.25 1.4" fill="none" stroke="#3d4237" stroke-linecap="round" stroke-linejoin="round" stroke-width="1.0"/>
    <path d="M-7.0 14.45 L-5.45 13.45 -5.15 13.35 -3.7 13.3 -1.4 13.65 0.7 14.1" fill="none" stroke="#35352b" stroke-linecap="round" stroke-linejoin="round" stroke-width="1.0"/>
    <path d="M-7.25 1.4 L-8.65 0.1 Q-9.0 -4.05 -6.4 -6.4 -4.1 -8.5 -0.7 -8.3 2.75 -8.1 4.8 -5.65 7.1 -2.95 6.35 1.4 L5.0 1.55 -2.65 2.4 -7.25 1.4" fill="none" stroke="#33322a" stroke-linecap="round" stroke-linejoin="round" stroke-width="1.0"/>
    <path d="M-6.1 -4.1 L-5.55 -3.0 -4.05 -3.75 M-7.0 -1.7 L-6.25 -0.2 -4.2 -1.35" fill="none" stroke="#7e7c70" stroke-linecap="round" stroke-linejoin="round" stroke-width="1.0"/>
    <path d="M-0.9 -3.9 L-0.8 1.3" fill="none" stroke="#605e4c" stroke-linecap="round" stroke-linejoin="round" stroke-width="1.0"/>
    <path d="M-0.35 -4.75 L-0.9 -3.9" fill="none" stroke="#5d5b4a" stroke-linecap="round" stroke-linejoin="round" stroke-width="1.0"/>
    <path d="M0.15 -5.5 L-0.35 -4.75" fill="none" stroke="#5b5948" stroke-linecap="round" stroke-linejoin="round" stroke-width="1.0"/>
    <path d="M0.8 -6.55 L0.15 -5.5" fill="none" stroke="#585646" stroke-linecap="round" stroke-linejoin="round" stroke-width="1.0"/>
    <path d="M1.2 -7.15 L0.8 -6.55" fill="none" stroke="#555344" stroke-linecap="round" stroke-linejoin="round" stroke-width="1.0"/>
  </g>
  <defs>
    <radialGradient cx="0" cy="0" gradientTransform="matrix(0.0106, 0.0, 0.0, 0.0106, -1.2, -1.35)" gradientUnits="userSpaceOnUse" id="gradient0" r="819.2" spreadMethod="pad">
      <stop offset="0.0" stop-color="#696754"/>
      <stop offset="0.30980392156862746" stop-color="#646250"/>
      <stop offset="0.6941176470588235" stop-color="#5a5848"/>
      <stop offset="1.0" stop-color="#4f4d3f"/>
    </radialGradient>
  </defs>
</svg>
