<?xml version="1.0" encoding="UTF-8" standalone="no"?>
<svg xmlns:xlink="http://www.w3.org/1999/xlink" height="19.15px" width="13.15px" xmlns="http://www.w3.org/2000/svg">
  <g transform="matrix(1.0, 0.0, 0.0, 1.0, 7.85, 4.8)">
    <path d="M-2.15 -4.3 L-0.6 -4.3 2.7 -3.85 0.8 2.4 -2.65 1.95 -2.15 -4.3" fill="#353a40" fill-rule="evenodd" stroke="none"/>
    <path d="M2.7 -3.85 L4.1 -3.35 4.6 0.5 Q5.0 4.6 4.6 5.95 L2.8 8.35 1.35 7.8 0.15 7.45 -4.05 6.9 -4.1 6.9 -5.8 7.05 -7.35 4.25 -6.55 1.35 Q-5.35 -2.0 -3.55 -4.25 L-2.15 -4.3 -2.65 1.95 0.8 2.4 2.7 -3.85 M-4.3 4.95 L-5.15 3.15 -4.3 4.95 M-2.15 5.55 L-3.05 3.7 -2.15 5.55" fill="#3f474c" fill-rule="evenodd" stroke="none"/>
    <path d="M1.35 7.8 L-0.4 12.35 Q-1.95 14.35 -3.3 13.65 -4.65 12.9 -4.75 12.05 L-4.7 10.1 -4.1 6.9 -4.05 6.9 0.15 7.45 1.35 7.8" fill="#2f2f2f" fill-rule="evenodd" stroke="none"/>
    <path d="M2.7 -3.85 L4.1 -3.35 4.6 0.5 Q5.0 4.6 4.6 5.95 L2.8 8.35 1.35 7.8 0.15 7.45 -4.05 6.9 M-4.1 6.9 L-5.8 7.05 -7.35 4.25 -6.55 1.35 Q-5.35 -2.0 -3.55 -4.25 L-2.15 -4.3 -0.6 -4.3 2.7 -3.85" fill="none" stroke="#22262a" stroke-linecap="round" stroke-linejoin="round" stroke-width="1.0"/>
    <path d="M2.7 -3.85 L0.8 2.4 -2.65 1.95 -2.15 -4.3 M-3.05 3.7 L-2.15 5.55 M-5.15 3.15 L-4.3 4.95" fill="none" stroke="#292e33" stroke-linecap="round" stroke-linejoin="round" stroke-width="1.0"/>
    <path d="M1.35 7.8 L-0.4 12.35 Q-1.95 14.35 -3.3 13.65 -4.65 12.9 -4.75 12.05 L-4.7 10.1 -4.1 6.9" fill="none" stroke="#181818" stroke-linecap="round" stroke-linejoin="miter-clip" stroke-miterlimit="4.0" stroke-width="1.0"/>
  </g>
</svg>
