<?xml version="1.0" encoding="UTF-8" standalone="no"?>
<svg xmlns:xlink="http://www.w3.org/1999/xlink" height="20.4px" width="13.6px" xmlns="http://www.w3.org/2000/svg">
  <g transform="matrix(1.0, 0.0, 0.0, 1.0, 2.7, 3.0)">
    <path d="M2.55 0.45 L3.8 0.75 4.0 -0.05 3.95 -0.25 4.25 0.0 4.55 0.25 4.25 1.55 4.15 1.65 0.9 2.15 Q2.25 1.9 2.55 0.5 L2.55 0.45 2.55 0.5 Q2.25 1.9 0.9 2.15 L0.55 2.15 0.1 2.15 0.0 2.15 0.15 1.95 Q1.05 0.4 2.55 0.45" fill="#293842" fill-rule="evenodd" stroke="none"/>
    <path d="M0.9 2.15 L4.15 1.65 4.8 2.65 Q5.75 4.75 6.0 6.4 L6.35 7.45 Q5.1 9.3 2.4 8.35 L-0.4 3.0 0.0 2.15 0.1 2.15 0.55 2.15 0.9 2.15 M4.9 7.55 Q5.2 8.35 4.35 8.2 4.65 6.65 1.75 6.95 1.0 5.75 1.4 5.6 L3.6 6.2 Q4.35 5.75 5.15 5.8 5.7 6.05 6.15 7.05 5.1 7.0 4.9 7.55 5.1 7.0 6.15 7.05 5.7 6.05 5.15 5.8 4.35 5.75 3.6 6.2 L1.4 5.6 Q1.0 5.75 1.75 6.95 4.65 6.65 4.35 8.2 5.2 8.35 4.9 7.55 M0.55 4.6 Q-0.2 3.35 0.15 3.15 L2.45 3.75 Q3.25 3.25 4.1 3.25 4.6 3.55 5.05 4.6 3.95 4.65 3.8 5.2 4.05 6.0 3.15 5.85 3.55 4.2 0.55 4.6 3.55 4.2 3.15 5.85 4.05 6.0 3.8 5.2 3.95 4.65 5.05 4.6 4.6 3.55 4.1 3.25 3.25 3.25 2.45 3.75 L0.15 3.15 Q-0.2 3.35 0.55 4.6" fill="#152026" fill-rule="evenodd" stroke="none"/>
    <path d="M7.7 11.05 L7.95 11.45 7.95 12.15 Q6.2 12.15 5.55 12.75 L4.9 12.65 4.85 12.5 Q6.1 12.15 7.7 11.05" fill="#505050" fill-rule="evenodd" stroke="none"/>
    <path d="M2.55 0.45 L2.55 0.5 Q2.25 1.9 0.9 2.15 L4.15 1.65 4.25 1.55 4.55 0.25 4.25 0.0 3.95 -0.25 M6.35 7.45 L6.0 6.4 Q5.75 4.75 4.8 2.65 L4.15 1.65 M0.55 4.6 Q3.55 4.2 3.15 5.85 4.05 6.0 3.8 5.2 3.95 4.65 5.05 4.6 4.6 3.55 4.1 3.25 3.25 3.25 2.45 3.75 L0.15 3.15 Q-0.2 3.35 0.55 4.6 M4.9 7.55 Q5.1 7.0 6.15 7.05 5.7 6.05 5.15 5.8 4.35 5.75 3.6 6.2 L1.4 5.6 Q1.0 5.75 1.75 6.95 4.65 6.65 4.35 8.2 5.2 8.35 4.9 7.55 M-0.4 3.0 L2.4 8.35" fill="none" stroke="#070a0a" stroke-linecap="round" stroke-linejoin="round" stroke-width="1.0"/>
    <path d="M7.7 11.05 L7.95 11.45 7.95 12.15 M5.55 12.75 L4.9 12.65 4.85 12.5" fill="none" stroke="#7c7c7c" stroke-linecap="round" stroke-linejoin="round" stroke-width="1.0"/>
    <path d="M8.7 12.15 L9.65 13.1 Q10.2 13.8 10.35 14.55 L10.4 14.8 Q10.5 15.7 9.35 16.55 7.7 17.25 6.5 16.55 5.75 16.0 5.1 13.8 5.05 13.15 5.55 12.75 6.2 12.15 7.95 12.15 L8.7 12.15" fill="#121718" fill-rule="evenodd" stroke="none"/>
    <path d="M8.7 12.15 L9.65 13.1 Q10.2 13.8 10.35 14.55 L10.4 14.8 Q10.5 15.7 9.35 16.55 7.7 17.25 6.5 16.55 5.75 16.0 5.1 13.8 5.05 13.15 5.55 12.75 6.2 12.15 7.95 12.15 L8.7 12.15 Z" fill="none" stroke="#070a0a" stroke-linecap="round" stroke-linejoin="round" stroke-width="1.0"/>
    <path d="M3.4 -1.7 L3.4 -1.55 3.8 -0.6 3.95 -0.25 4.0 -0.05 3.8 0.75 2.55 0.45 Q1.05 0.4 0.15 1.95 L0.0 2.15 -0.4 3.0 -0.6 3.6 Q-1.15 4.15 -1.75 3.25 -2.45 1.4 -2.05 -0.7 L-1.6 -2.5 -1.1 -1.85 -0.6 -1.55 1.25 -1.75 1.35 -1.8 3.4 -1.7 M7.7 11.05 Q6.1 12.15 4.85 12.5 L4.05 12.7 Q2.5 10.6 1.6 7.95 L2.4 8.35 Q5.1 9.3 6.35 7.45 L6.95 6.2 Q8.6 9.5 8.3 10.65 L7.7 11.05" fill="url(#gradient0)" fill-rule="evenodd" stroke="none"/>
    <path d="M3.4 -1.7 L1.35 -1.8 1.25 -1.75 -0.6 -1.55 -1.1 -1.85 -1.6 -2.5 -2.05 -0.7 Q-2.45 1.4 -1.75 3.25 -1.15 4.15 -0.6 3.6 L-0.4 3.0 0.0 2.15 0.15 1.95 Q1.05 0.4 2.55 0.45 L3.8 0.75 4.0 -0.05 3.95 -0.25 3.8 -0.6 3.4 -1.55 3.4 -1.7 M7.7 11.05 Q6.1 12.15 4.85 12.5 L4.05 12.7 Q2.5 10.6 1.6 7.95 L2.4 8.35 Q5.1 9.3 6.35 7.45 L6.95 6.2 Q8.6 9.5 8.3 10.65 L7.7 11.05" fill="none" stroke="#070a0a" stroke-linecap="round" stroke-linejoin="round" stroke-width="1.0"/>
  </g>
  <defs>
    <linearGradient gradientTransform="matrix(0.0141, 0.0, 0.0, 0.0061, -0.9, -13.65)" gradientUnits="userSpaceOnUse" id="gradient0" spreadMethod="pad" x1="-819.2" x2="819.2">
      <stop offset="0.0" stop-color="#152026"/>
      <stop offset="1.0" stop-color="#425668"/>
    </linearGradient>
  </defs>
</svg>
