<?xml version="1.0" encoding="UTF-8" standalone="no"?>
<svg xmlns:xlink="http://www.w3.org/1999/xlink" height="20.75px" width="13.7px" xmlns="http://www.w3.org/2000/svg">
  <g transform="matrix(1.0, 0.0, 0.0, 1.0, 7.9, 3.4)">
    <path d="M2.55 6.4 L2.55 6.85 Q2.3 8.25 1.4 8.95 L0.95 9.35 -1.2 9.9 Q-4.1 10.0 -6.2 7.3 L-6.15 6.95 -5.35 5.6 Q-5.0 5.1 -5.1 4.3 L-5.25 2.85 -4.5 3.6 Q-2.5 5.85 -2.25 7.75 L-0.35 7.05 2.55 6.4 M-0.05 11.7 L-0.1 11.95 Q-0.35 13.35 -0.2 14.85 -0.1 16.2 -3.45 16.8 -5.85 17.25 -7.4 14.45 L-7.15 14.0 Q-6.45 13.65 -6.95 12.55 -7.4 11.95 -6.55 10.3 L-6.45 10.1 -4.3 12.3 Q-3.5 12.6 -0.05 11.7" fill="#3c4454" fill-rule="evenodd" stroke="none"/>
    <path d="M0.95 9.35 L1.4 8.95 Q2.3 8.25 2.55 6.85 L2.55 6.4 M-5.25 2.85 L-5.1 4.3 Q-5.0 5.1 -5.35 5.6 L-6.15 6.95 -6.2 7.3 M-6.45 10.1 L-6.55 10.3 Q-7.4 11.95 -6.95 12.55 -6.45 13.65 -7.15 14.0 L-7.4 14.45 Q-5.85 17.25 -3.45 16.8 -0.1 16.2 -0.2 14.85 -0.35 13.35 -0.1 11.95 L-0.05 11.7" fill="none" stroke="#282831" stroke-linecap="round" stroke-linejoin="round" stroke-width="1.0"/>
    <path d="M0.1 -2.9 L4.9 -0.75 5.3 3.8 4.3 4.05 Q3.3 4.6 3.6 6.4 L2.55 6.4 -0.35 7.05 -2.25 7.75 Q-2.5 5.85 -4.5 3.6 L-5.25 2.85 -6.45 1.7 Q-5.65 -0.05 -4.6 -1.2 -3.95 -1.95 -1.85 -2.5 L0.1 -2.9 M1.55 4.05 L2.35 1.8 -2.3 0.35 -2.95 2.3 -1.2 5.55 1.55 4.05 M1.35 9.55 L1.1 11.4 -0.05 11.7 Q-3.5 12.6 -4.3 12.3 L-6.45 10.1 -7.0 9.5 -6.25 7.25 -6.2 7.3 Q-4.1 10.0 -1.2 9.9 L1.4 9.25 1.35 9.55 M-1.1 -0.9 L3.05 0.65 -1.1 -0.9" fill="#7f97ab" fill-rule="evenodd" stroke="none"/>
    <path d="M1.55 4.05 L-1.2 5.55 -2.95 2.3 -2.3 0.35 2.35 1.8 1.55 4.05" fill="#cabaae" fill-rule="evenodd" stroke="none"/>
    <path d="M0.1 -2.9 L-1.85 -2.5 Q-3.95 -1.95 -4.6 -1.2 -5.65 -0.05 -6.45 1.7 L-5.25 2.85 -4.5 3.6 Q-2.5 5.85 -2.25 7.75 L-0.35 7.05 2.55 6.4 3.6 6.4 Q3.3 4.6 4.3 4.05 L5.3 3.8 4.9 -0.75 0.1 -2.9 M1.4 9.25 L-1.2 9.9 Q-4.1 10.0 -6.2 7.3 L-6.25 7.25 -7.0 9.5 -6.45 10.1 -4.3 12.3 Q-3.5 12.6 -0.05 11.7 L1.1 11.4 1.35 9.55" fill="none" stroke="#4e5460" stroke-linecap="round" stroke-linejoin="round" stroke-width="1.0"/>
    <path d="M1.55 4.05 L-1.2 5.55 -2.95 2.3 -2.3 0.35 2.35 1.8 1.55 4.05" fill="none" stroke="#635c53" stroke-linecap="round" stroke-linejoin="round" stroke-width="1.0"/>
    <path d="M3.05 0.65 L-1.1 -0.9" fill="none" stroke="#403a36" stroke-linecap="round" stroke-linejoin="round" stroke-width="1.0"/>
  </g>
</svg>
