<?xml version="1.0" encoding="UTF-8" standalone="no"?>
<svg xmlns:ffdec="https://www.free-decompiler.com/flash" xmlns:xlink="http://www.w3.org/1999/xlink" ffdec:objectType="shape" height="20.8px" width="13.1px" xmlns="http://www.w3.org/2000/svg">
  <g transform="matrix(1.0, 0.0, 0.0, 1.0, 7.7, 4.3)">
    <path d="M1.95 -0.15 Q1.95 0.7 1.35 1.25 0.8 1.85 0.05 1.9 L-0.3 1.85 -1.35 1.3 -1.75 0.45 -1.85 -0.1 Q-1.85 -0.9 -1.35 -1.45 -0.75 -2.0 0.0 -2.0 0.85 -2.0 1.35 -1.45 1.95 -0.9 1.95 -0.15 M-5.65 6.7 L-3.15 6.8 -3.55 10.2 Q-5.2 9.35 -6.35 9.65 -6.2 8.4 -5.65 6.7 M-2.7 2.7 Q-2.3 2.7 -2.0 3.0 L-1.7 3.6 -2.0 4.35 -2.0 4.4 Q-2.25 4.65 -2.7 4.55 L-3.35 4.35 -3.55 3.95 -3.6 3.65 -3.35 2.95 -2.7 2.7" fill="#161b1d" fill-rule="evenodd" stroke="none"/>
    <path d="M1.95 -0.15 Q1.95 -0.9 1.35 -1.45 0.85 -2.0 0.0 -2.0 -0.75 -2.0 -1.35 -1.45 -1.85 -0.9 -1.85 -0.1 L-1.75 0.45 -1.35 1.3 -0.3 1.85 0.05 1.9 Q0.8 1.85 1.35 1.25 1.95 0.7 1.95 -0.15 M-5.65 6.7 L-7.2 6.4 Q-6.2 0.0 -4.35 -1.65 -2.55 -3.35 -1.0 -3.7 0.5 -4.05 2.25 -2.85 4.0 -1.7 4.9 0.9 L3.2 2.4 Q1.3 9.0 0.0 10.0 -1.7 11.9 -3.55 10.2 L-3.15 6.8 -5.65 6.7 M-2.7 2.7 L-3.35 2.95 -3.6 3.65 -3.55 3.95 -3.35 4.35 -2.7 4.55 Q-2.25 4.65 -2.0 4.4 L-2.0 4.35 -1.7 3.6 -2.0 3.0 Q-2.3 2.7 -2.7 2.7" fill="#384958" fill-rule="evenodd" stroke="none"/>
    <path d="M-3.55 10.2 Q-1.7 11.9 0.0 10.0 L-2.35 13.45 -2.65 14.2 -2.8 14.75 Q-5.05 17.75 -6.75 13.65 L-6.8 12.6 -6.35 9.65 Q-5.2 9.35 -3.55 10.2" fill="#24333d" fill-rule="evenodd" stroke="none"/>
    <path d="M-6.35 9.65 Q-6.2 8.4 -5.65 6.7" fill="none" stroke="#070a0a" stroke-linecap="round" stroke-linejoin="round" stroke-width="1.0"/>
    <path d="M1.95 -0.15 Q1.95 0.7 1.35 1.25 0.8 1.85 0.05 1.9 L-0.3 1.85 -1.35 1.3 -1.75 0.45 -1.85 -0.1 Q-1.85 -0.9 -1.35 -1.45 -0.75 -2.0 0.0 -2.0 0.85 -2.0 1.35 -1.45 1.95 -0.9 1.95 -0.15 M-2.7 2.7 Q-2.3 2.7 -2.0 3.0 L-1.7 3.6 -2.0 4.35 -2.0 4.4 Q-2.25 4.65 -2.7 4.55 L-3.35 4.35 -3.55 3.95 -3.6 3.65 -3.35 2.95 -2.7 2.7" fill="none" stroke="#0e1314" stroke-linecap="round" stroke-linejoin="round" stroke-width="1.0"/>
    <path d="M0.0 10.0 L-2.35 13.45 -2.65 14.2 -2.8 14.75 Q-5.05 17.75 -6.75 13.65 L-6.8 12.6 -6.35 9.65 Q-5.2 9.35 -3.55 10.2" fill="none" stroke="#0d1214" stroke-linecap="round" stroke-linejoin="round" stroke-width="1.0"/>
    <path d="M0.0 10.0 Q1.3 9.0 3.2 2.4 L4.9 0.9 Q4.0 -1.7 2.25 -2.85 0.5 -4.05 -1.0 -3.7 -2.55 -3.35 -4.35 -1.65 -6.2 0.0 -7.2 6.4 L-5.65 6.7 -3.15 6.8 -3.55 10.2 Q-1.7 11.9 0.0 10.0 Z" fill="none" stroke="#0c1214" stroke-linecap="round" stroke-linejoin="round" stroke-width="1.0"/>
  </g>
</svg>
