<?xml version="1.0" encoding="UTF-8" standalone="no"?>
<svg xmlns:xlink="http://www.w3.org/1999/xlink" height="44.0px" width="55.0px" xmlns="http://www.w3.org/2000/svg">
  <g transform="matrix(1.0, 0.0, 0.0, 1.0, -32.1, 24.55)">
    <path d="M37.4 -24.55 Q39.6 -24.55 41.1 -18.2 42.7 -11.65 42.7 -2.55 42.7 6.35 41.1 12.9 39.6 19.45 37.4 19.45 35.2 19.45 33.7 12.9 32.1 6.35 32.1 -2.55 32.1 -11.65 33.7 -18.2 35.2 -24.55 37.4 -24.55" fill="url(#gradient0)" fill-rule="evenodd" stroke="none"/>
    <path d="M74.7 -7.2 Q87.1 -5.3 87.1 -2.45 87.1 0.25 74.7 2.15 62.35 4.05 44.8 4.05 L39.1 4.05 39.1 -8.95 44.8 -9.1 Q62.35 -9.1 74.7 -7.2" fill="url(#gradient1)" fill-rule="evenodd" stroke="none"/>
  </g>
  <defs>
    <radialGradient cx="0" cy="0" gradientTransform="matrix(0.0066, 0.0, 0.0, 0.0275, 37.4, -2.55)" gradientUnits="userSpaceOnUse" id="gradient0" r="819.2" spreadMethod="pad">
      <stop offset="0.36470588235294116" stop-color="#ffffff"/>
      <stop offset="1.0" stop-color="#00ccff" stop-opacity="0.0"/>
    </radialGradient>
    <radialGradient cx="0" cy="0" gradientTransform="matrix(0.0517, 0.0, 0.0, 0.008, 44.95, -2.6)" gradientUnits="userSpaceOnUse" id="gradient1" r="819.2" spreadMethod="pad">
      <stop offset="0.36470588235294116" stop-color="#ffffff"/>
      <stop offset="1.0" stop-color="#00e6ff" stop-opacity="0.0"/>
    </radialGradient>
  </defs>
</svg>
