<?xml version="1.0" encoding="UTF-8" standalone="no"?>
<svg xmlns:xlink="http://www.w3.org/1999/xlink" height="20.75px" width="11.9px" xmlns="http://www.w3.org/2000/svg">
  <g transform="matrix(1.0, 0.0, 0.0, 1.0, 7.4, 4.0)">
    <path d="M-5.1 4.0 L-6.1 3.15 -5.6 1.75 -4.05 -2.25 Q-2.75 -4.05 0.6 -3.3 3.55 -2.6 3.95 -0.1 4.15 1.35 3.5 4.1 L3.15 5.55 1.8 5.9 1.45 5.8 -4.65 4.35 -5.1 4.0 M-5.6 1.75 L-4.05 2.95 1.75 4.35 3.5 4.1 1.75 4.35 -4.05 2.95 -5.6 1.75 M-3.2 1.7 L1.5 2.8 Q0.9 -2.1 -1.2 -0.7 -2.25 0.0 -3.2 1.7" fill="#cdbfa3" fill-rule="evenodd" stroke="none"/>
    <path d="M1.45 5.8 L-0.55 11.0 Q-3.3 16.6 -5.2 16.25 -7.15 15.9 -6.85 12.6 L-5.1 4.0 -4.65 4.35 1.45 5.8" fill="#e3bfa5" fill-rule="evenodd" stroke="none"/>
    <path d="M-3.2 1.7 Q-2.25 0.0 -1.2 -0.7 0.9 -2.1 1.5 2.8 L-3.2 1.7" fill="#a08472" fill-rule="evenodd" stroke="none"/>
    <path d="M1.45 5.8 L-0.55 11.0 Q-3.3 16.6 -5.2 16.25 -7.15 15.9 -6.85 12.6 L-5.1 4.0" fill="none" stroke="#776355" stroke-linecap="round" stroke-linejoin="round" stroke-width="1.0"/>
    <path d="M-5.1 4.0 L-6.1 3.15 -5.6 1.75 -4.05 -2.25 Q-2.75 -4.05 0.6 -3.3 3.55 -2.6 3.95 -0.1 4.15 1.35 3.5 4.1 L3.15 5.55 1.8 5.9 1.45 5.8 -4.65 4.35 -5.1 4.0" fill="none" stroke="#95806e" stroke-linecap="round" stroke-linejoin="round" stroke-width="1.0"/>
    <path d="M3.5 4.1 L1.75 4.35 -4.05 2.95 -5.6 1.75 M-3.2 1.7 Q-2.25 0.0 -1.2 -0.7 0.9 -2.1 1.5 2.8 L-3.2 1.7 Z" fill="none" stroke="#654e47" stroke-linecap="round" stroke-linejoin="round" stroke-width="1.0"/>
  </g>
</svg>
