<?xml version="1.0" encoding="UTF-8" standalone="no"?>
<svg xmlns:xlink="http://www.w3.org/1999/xlink" height="20.6px" width="11.25px" xmlns="http://www.w3.org/2000/svg">
  <g transform="matrix(1.0, 0.0, 0.0, 1.0, 7.35, 3.7)">
    <path d="M2.8 -1.95 Q4.05 0.05 2.6 4.0 L0.05 9.95 -1.05 13.45 Q-1.55 15.1 -2.15 15.5 -3.95 16.7 -5.4 16.3 -6.85 15.95 -6.85 14.35 -6.9 11.0 -5.55 5.2 -4.15 -1.05 -2.8 -2.15 -1.5 -3.35 0.3 -3.2 2.0 -3.1 2.8 -1.95" fill="#908e82" fill-rule="evenodd" stroke="none"/>
    <path d="M2.8 -1.95 Q4.05 0.05 2.6 4.0 L0.05 9.95 -1.05 13.45 Q-1.55 15.1 -2.15 15.5 -3.95 16.7 -5.4 16.3 -6.85 15.95 -6.85 14.35 -6.9 11.0 -5.55 5.2 -4.15 -1.05 -2.8 -2.15 -1.5 -3.35 0.3 -3.2 2.0 -3.1 2.8 -1.95 Z" fill="none" stroke="#4b4b3e" stroke-linecap="round" stroke-linejoin="round" stroke-width="1.05"/>
    <path d="M1.7 1.9 Q1.3 3.1 -0.75 3.75 L-2.75 4.1" fill="none" stroke="#6c6c5e" stroke-linecap="round" stroke-linejoin="round" stroke-width="1.05"/>
    <path d="M-1.75 6.9 Q-2.65 7.35 -3.55 9.15 L-4.25 10.8" fill="none" stroke="#6c6c5e" stroke-linecap="round" stroke-linejoin="round" stroke-width="1.05"/>
  </g>
</svg>
