<?xml version="1.0" encoding="UTF-8" standalone="no"?>
<svg xmlns:ffdec="https://www.free-decompiler.com/flash" xmlns:xlink="http://www.w3.org/1999/xlink" ffdec:objectType="shape" height="20.65px" width="11.35px" xmlns="http://www.w3.org/2000/svg">
  <g transform="matrix(1.0, 0.0, 0.0, 1.0, 7.45, 3.65)">
    <path d="M2.9 -1.85 Q4.0 0.15 2.6 4.1 L0.05 10.05 -1.15 13.6 Q-1.65 15.2 -2.2 15.55 -4.1 16.75 -5.55 16.4 -7.0 16.0 -6.95 14.45 -6.9 11.05 -5.55 5.3 -4.05 -0.95 -2.75 -2.1 -1.45 -3.25 0.45 -3.15 2.15 -3.05 2.9 -1.85 M-2.75 4.2 L-0.75 3.85 Q1.35 3.25 1.8 2.05 1.35 3.25 -0.75 3.85 L-2.75 4.2 M-4.3 10.85 L-3.6 9.2 Q-2.65 7.5 -1.7 7.05 -2.65 7.5 -3.6 9.2 L-4.3 10.85" fill="#bcb2a1" fill-rule="evenodd" stroke="none"/>
    <path d="M2.9 -1.85 Q4.0 0.15 2.6 4.1 L0.05 10.05 -1.15 13.6 Q-1.65 15.2 -2.2 15.55 -4.1 16.75 -5.55 16.4 -7.0 16.0 -6.95 14.45 -6.9 11.05 -5.55 5.3 -4.05 -0.95 -2.75 -2.1 -1.45 -3.25 0.45 -3.15 2.15 -3.05 2.9 -1.85" fill="none" stroke="#565149" stroke-linecap="round" stroke-linejoin="round" stroke-width="1.05"/>
    <path d="M-1.7 7.05 Q-2.65 7.5 -3.6 9.2 L-4.3 10.85 M1.8 2.05 Q1.35 3.25 -0.75 3.85 L-2.75 4.2" fill="none" stroke="#807a6d" stroke-linecap="round" stroke-linejoin="round" stroke-width="1.05"/>
  </g>
</svg>
