<?xml version="1.0" encoding="UTF-8" standalone="no"?>
<svg xmlns:ffdec="https://www.free-decompiler.com/flash" xmlns:xlink="http://www.w3.org/1999/xlink" ffdec:objectType="shape" height="20.6px" width="11.35px" xmlns="http://www.w3.org/2000/svg">
  <g transform="matrix(1.0, 0.0, 0.0, 1.0, 7.35, 3.35)">
    <path d="M2.95 -1.55 Q4.2 0.45 2.7 4.4 L0.1 10.35 -1.0 13.85 Q-1.55 15.5 -2.05 15.8 -3.9 17.1 -5.4 16.65 -6.85 16.25 -6.85 14.65 -6.8 11.35 -5.4 5.5 -3.95 -0.7 -2.7 -1.85 -1.3 -3.0 0.5 -2.85 2.2 -2.7 2.95 -1.55" fill="#787f72" fill-rule="evenodd" stroke="none"/>
    <path d="M2.95 -1.55 Q4.2 0.45 2.7 4.4 L0.1 10.35 -1.0 13.85 Q-1.55 15.5 -2.05 15.8 -3.9 17.1 -5.4 16.65 -6.85 16.25 -6.85 14.65 -6.8 11.35 -5.4 5.5 -3.95 -0.7 -2.7 -1.85 -1.3 -3.0 0.5 -2.85 2.2 -2.7 2.95 -1.55 Z" fill="none" stroke="#3b3e38" stroke-linecap="round" stroke-linejoin="round" stroke-width="1.05"/>
    <path d="M1.9 2.25 Q1.4 3.5 -0.65 4.1 L-2.65 4.45" fill="none" stroke="#575d53" stroke-linecap="round" stroke-linejoin="round" stroke-width="1.05"/>
    <path d="M-1.65 7.25 Q-2.55 7.75 -3.45 9.5 L-4.15 11.15" fill="none" stroke="#575d53" stroke-linecap="round" stroke-linejoin="round" stroke-width="1.05"/>
  </g>
</svg>
