<?xml version="1.0" encoding="UTF-8" standalone="no"?>
<svg xmlns:ffdec="https://www.free-decompiler.com/flash" xmlns:xlink="http://www.w3.org/1999/xlink" ffdec:objectType="shape" height="19.85px" width="10.7px" xmlns="http://www.w3.org/2000/svg">
  <g transform="matrix(1.0, 0.0, 0.0, 1.0, 7.35, 2.6)">
    <path d="M2.55 -0.85 Q3.3 0.3 1.55 3.85 L-1.2 9.6 -2.2 13.6 Q-2.75 15.75 -3.25 16.15 -4.3 16.9 -5.55 16.75 -6.85 16.6 -6.85 15.7 -7.0 12.0 -5.85 6.7 -4.55 0.6 -2.6 -1.15 -1.35 -2.25 0.3 -2.1 1.95 -2.05 2.55 -0.85" fill="#787f72" fill-rule="evenodd" stroke="none"/>
    <path d="M2.55 -0.85 Q3.3 0.3 1.55 3.85 L-1.2 9.6 -2.2 13.6 Q-2.75 15.75 -3.25 16.15 -4.3 16.9 -5.55 16.75 -6.85 16.6 -6.85 15.7 -7.0 12.0 -5.85 6.7 -4.55 0.6 -2.6 -1.15 -1.35 -2.25 0.3 -2.1 1.95 -2.05 2.55 -0.85 Z" fill="none" stroke="#3b3e38" stroke-linecap="round" stroke-linejoin="round" stroke-width="1.05"/>
    <path d="M0.45 2.1 Q0.05 3.35 -2.0 4.0 L-3.95 4.5" fill="none" stroke="#575d53" stroke-linecap="round" stroke-linejoin="round" stroke-width="1.05"/>
    <path d="M-2.3 6.95 Q-3.15 7.5 -3.85 8.9 L-4.4 10.2" fill="none" stroke="#575d53" stroke-linecap="round" stroke-linejoin="round" stroke-width="1.05"/>
  </g>
</svg>
