<?xml version="1.0" encoding="UTF-8" standalone="no"?>
<svg xmlns:xlink="http://www.w3.org/1999/xlink" height="22.3px" width="12.45px" xmlns="http://www.w3.org/2000/svg">
  <g transform="matrix(1.0, 0.0, 0.0, 1.0, 3.6, 1.35)">
    <path d="M-1.2 5.0 Q-0.45 4.5 2.3 4.2 L3.4 3.85 3.65 3.7 3.75 3.9 Q4.7 6.3 5.2 8.8 L5.6 10.9 3.9 11.25 Q2.7 11.55 2.1 11.95 L-0.05 8.25 -1.2 5.1 -1.2 5.0 M6.35 12.75 L7.25 14.15 Q8.65 16.75 8.3 18.6 L5.55 20.45 Q4.0 20.4 3.65 18.95 L3.6 18.55 3.8 16.5 Q2.5 15.95 2.4 15.0 L2.55 14.5 6.35 12.75" fill="#e0cec3" fill-rule="evenodd" stroke="none"/>
    <path d="M3.65 3.7 L3.4 3.85 2.3 4.2 Q-0.45 4.5 -1.2 5.0 L-1.45 5.2 Q-2.2 5.9 -3.1 1.6 L-2.15 1.4 -2.15 0.4 Q-0.45 -2.65 2.7 -0.45 L2.7 0.05 3.45 -0.2 Q4.55 0.9 4.3 3.05 L3.65 3.7 M-2.15 1.4 L2.7 0.05 -2.15 1.4" fill="#e3e6e8" fill-rule="evenodd" stroke="none"/>
    <path d="M2.1 11.95 Q2.7 11.55 3.9 11.25 L5.6 10.9 6.15 10.8 Q6.7 11.6 6.4 12.7 L6.35 12.75 2.55 14.5 2.2 14.65 Q1.35 13.85 1.55 12.6 1.65 12.25 2.1 11.95 M5.15 12.05 L3.55 12.65 5.15 12.05" fill="#7aa1bc" fill-rule="evenodd" stroke="none"/>
    <path d="M3.65 3.7 L3.4 3.85 2.3 4.2 Q-0.45 4.5 -1.2 5.0 L-1.45 5.2 Q-2.2 5.9 -3.1 1.6 L-2.15 1.4 2.7 0.05 3.45 -0.2 Q4.55 0.9 4.3 3.05 L3.65 3.7 M-2.15 0.4 L-2.15 1.4 M2.7 -0.45 L2.7 0.05" fill="none" stroke="#72757f" stroke-linecap="round" stroke-linejoin="round" stroke-width="1.0"/>
    <path d="M-1.2 5.0 L-1.2 5.1 -0.05 8.25 2.1 11.95 M5.6 10.9 L5.2 8.8 Q4.7 6.3 3.75 3.9 L3.65 3.7 M6.35 12.75 L7.25 14.15 Q8.65 16.75 8.3 18.6 L5.55 20.45 Q4.0 20.4 3.65 18.95 L3.6 18.55 3.8 16.5 Q2.5 15.95 2.4 15.0 L2.55 14.5" fill="none" stroke="#674f4b" stroke-linecap="round" stroke-linejoin="round" stroke-width="1.0"/>
    <path d="M2.1 11.95 Q2.7 11.55 3.9 11.25 L5.6 10.9 6.15 10.8 Q6.7 11.6 6.4 12.7 L6.35 12.75 2.55 14.5 2.2 14.65 Q1.35 13.85 1.55 12.6 1.65 12.25 2.1 11.95" fill="none" stroke="#40566b" stroke-linecap="round" stroke-linejoin="round" stroke-width="1.0"/>
    <path d="M3.55 12.65 L5.15 12.05" fill="none" stroke="#b0ff7b" stroke-linecap="round" stroke-linejoin="round" stroke-width="1.0"/>
  </g>
</svg>
