<?xml version="1.0" encoding="UTF-8" standalone="no"?>
<svg xmlns:xlink="http://www.w3.org/1999/xlink" height="30.9px" width="26.05px" xmlns="http://www.w3.org/2000/svg">
  <g transform="matrix(1.0, 0.0, 0.0, 1.0, -49.45, 16.2)">
    <path d="M56.0 14.7 Q55.4 13.9 54.75 10.1 53.8 5.85 53.25 -0.55 52.7 -6.85 52.85 -11.5 52.8 -15.45 53.3 -15.8 L56.0 14.7" fill="url(#gradient0)" fill-rule="evenodd" stroke="none"/>
    <path d="M53.3 -15.8 L53.5 -16.2 Q54.15 -16.2 54.95 -11.6 55.8 -6.95 56.35 -0.65 56.9 5.75 56.85 10.0 56.85 14.7 56.2 14.7 L56.0 14.7 53.3 -15.8" fill="url(#gradient1)" fill-rule="evenodd" stroke="none"/>
    <path d="M59.05 -9.55 L59.05 -9.5 59.35 -9.6 Q59.85 -9.05 58.75 -5.95 57.7 -2.9 55.7 0.8 53.7 4.55 51.95 6.7 50.15 9.05 49.65 8.5 L49.5 8.35 49.5 8.3 59.05 -9.55" fill="url(#gradient2)" fill-rule="evenodd" stroke="none"/>
    <path d="M49.5 8.3 Q49.3 7.45 50.25 4.9 51.15 1.95 53.15 -1.8 55.15 -5.5 57.05 -7.75 58.5 -9.75 59.05 -9.55 L49.5 8.3" fill="url(#gradient3)" fill-rule="evenodd" stroke="none"/>
    <path d="M54.95 5.2 Q54.25 4.95 53.85 3.65 53.1 2.2 53.1 0.05 53.1 -2.1 53.85 -3.65 54.25 -4.95 54.95 -5.1 L54.95 5.2" fill="url(#gradient4)" fill-rule="evenodd" stroke="none"/>
    <path d="M54.95 -5.1 L55.1 -5.1 56.65 -5.2 Q61.15 -5.2 64.25 -3.65 67.5 -2.1 67.5 0.05 67.5 2.2 64.25 3.65 61.15 5.2 56.65 5.2 L55.1 5.2 54.95 5.2 54.95 -5.1" fill="url(#gradient5)" fill-rule="evenodd" stroke="none"/>
    <path d="M54.35 8.35 Q53.4 7.9 52.8 5.8 51.75 3.45 51.75 -0.05 51.75 -3.5 52.8 -6.05 53.4 -8.2 54.35 -8.4 L54.35 8.35" fill="url(#gradient6)" fill-rule="evenodd" stroke="none"/>
    <path d="M54.35 -8.4 L54.45 -8.4 55.05 -8.6 Q56.9 -8.6 58.2 -6.05 59.5 -3.5 59.5 -0.05 59.5 3.45 58.2 5.8 56.9 8.35 55.05 8.35 L54.45 8.35 Q54.45 8.1 54.35 8.35 L54.35 -8.4" fill="url(#gradient7)" fill-rule="evenodd" stroke="none"/>
    <path d="M56.65 -2.4 L56.85 -2.4 59.15 -2.5 70.6 -1.75 Q75.5 -0.95 75.5 0.05 75.5 1.1 70.6 1.75 L59.15 2.55 56.85 2.55 56.65 2.55 56.65 -2.4" fill="url(#gradient8)" fill-rule="evenodd" stroke="none"/>
    <path d="M56.65 2.55 Q55.6 2.4 54.95 1.75 53.9 1.1 53.9 0.05 53.9 -0.95 54.95 -1.75 55.6 -2.4 56.65 -2.4 L56.65 2.55" fill="url(#gradient9)" fill-rule="evenodd" stroke="none"/>
  </g>
  <defs>
    <radialGradient cx="0" cy="0" gradientTransform="matrix(0.0015, 0.0168, -0.002, 1.0E-4, 54.85, -0.6)" gradientUnits="userSpaceOnUse" id="gradient0" r="819.2" spreadMethod="pad">
      <stop offset="0.17647058823529413" stop-color="#ffffff"/>
      <stop offset="0.5529411764705883" stop-color="#ffffff" stop-opacity="0.77254903"/>
      <stop offset="1.0" stop-color="#ffcccc" stop-opacity="0.0"/>
    </radialGradient>
    <radialGradient cx="0" cy="0" gradientTransform="matrix(0.0015, 0.0168, -0.0018, 1.0E-4, 54.85, -0.6)" gradientUnits="userSpaceOnUse" id="gradient1" r="819.2" spreadMethod="pad">
      <stop offset="0.17647058823529413" stop-color="#ffffff"/>
      <stop offset="0.5529411764705883" stop-color="#ffffff" stop-opacity="0.77254903"/>
      <stop offset="1.0" stop-color="#ffcccc" stop-opacity="0.0"/>
    </radialGradient>
    <radialGradient cx="0" cy="0" gradientTransform="matrix(-0.0053, 0.0098, -0.0015, -0.0015, 54.45, -0.45)" gradientUnits="userSpaceOnUse" id="gradient2" r="819.2" spreadMethod="pad">
      <stop offset="0.17647058823529413" stop-color="#ffffff"/>
      <stop offset="0.5529411764705883" stop-color="#ffffff" stop-opacity="0.77254903"/>
      <stop offset="1.0" stop-color="#ffcccc" stop-opacity="0.0"/>
    </radialGradient>
    <radialGradient cx="0" cy="0" gradientTransform="matrix(-0.0053, 0.0098, -0.0016, -0.0017, 54.45, -0.45)" gradientUnits="userSpaceOnUse" id="gradient3" r="819.2" spreadMethod="pad">
      <stop offset="0.17647058823529413" stop-color="#ffffff"/>
      <stop offset="0.5529411764705883" stop-color="#ffffff" stop-opacity="0.77254903"/>
      <stop offset="1.0" stop-color="#ffcccc" stop-opacity="0.0"/>
    </radialGradient>
    <radialGradient cx="0" cy="0" gradientTransform="matrix(0.0, 0.0057, -0.0026, 0.0, 55.25, 0.05)" gradientUnits="userSpaceOnUse" id="gradient4" r="819.2" spreadMethod="pad">
      <stop offset="0.17647058823529413" stop-color="#ffffff"/>
      <stop offset="0.5529411764705883" stop-color="#ffffff" stop-opacity="0.77254903"/>
      <stop offset="1.0" stop-color="#ffcccc" stop-opacity="0.0"/>
    </radialGradient>
    <radialGradient cx="0" cy="0" gradientTransform="matrix(0.0, 0.0057, -0.0133, 0.0, 56.65, 0.05)" gradientUnits="userSpaceOnUse" id="gradient5" r="819.2" spreadMethod="pad">
      <stop offset="0.17647058823529413" stop-color="#ffffff"/>
      <stop offset="0.5529411764705883" stop-color="#ffffff" stop-opacity="0.77254903"/>
      <stop offset="1.0" stop-color="#ffcccc" stop-opacity="0.0"/>
    </radialGradient>
    <radialGradient cx="0" cy="0" gradientTransform="matrix(0.0, 0.0092, -0.0037, 0.0, 54.8, -0.05)" gradientUnits="userSpaceOnUse" id="gradient6" r="819.2" spreadMethod="pad">
      <stop offset="0.17647058823529413" stop-color="#ffffff"/>
      <stop offset="0.5529411764705883" stop-color="#ffffff" stop-opacity="0.77254903"/>
      <stop offset="1.0" stop-color="#ffcccc" stop-opacity="0.0"/>
    </radialGradient>
    <radialGradient cx="0" cy="0" gradientTransform="matrix(0.0, 0.0092, -0.0054, 0.0, 55.05, -0.05)" gradientUnits="userSpaceOnUse" id="gradient7" r="819.2" spreadMethod="pad">
      <stop offset="0.17647058823529413" stop-color="#ffffff"/>
      <stop offset="0.5529411764705883" stop-color="#ffffff" stop-opacity="0.77254903"/>
      <stop offset="1.0" stop-color="#ffcccc" stop-opacity="0.0"/>
    </radialGradient>
    <radialGradient cx="0" cy="0" gradientTransform="matrix(0.0, 0.0027, -0.02, 0.0, 59.15, 0.05)" gradientUnits="userSpaceOnUse" id="gradient8" r="819.2" spreadMethod="pad">
      <stop offset="0.17647058823529413" stop-color="#ffffff"/>
      <stop offset="0.5529411764705883" stop-color="#ffffff" stop-opacity="0.77254903"/>
      <stop offset="1.0" stop-color="#ffffff" stop-opacity="0.0"/>
    </radialGradient>
    <radialGradient cx="0" cy="0" gradientTransform="matrix(0.0, 0.0027, -0.0039, 0.0, 57.05, 0.05)" gradientUnits="userSpaceOnUse" id="gradient9" r="819.2" spreadMethod="pad">
      <stop offset="0.17647058823529413" stop-color="#ffffff"/>
      <stop offset="0.5529411764705883" stop-color="#ffffff" stop-opacity="0.77254903"/>
      <stop offset="1.0" stop-color="#ffffff" stop-opacity="0.0"/>
    </radialGradient>
  </defs>
</svg>
