<?xml version="1.0" encoding="UTF-8" standalone="no"?>
<svg xmlns:xlink="http://www.w3.org/1999/xlink" height="20.65px" width="11.35px" xmlns="http://www.w3.org/2000/svg">
  <g transform="matrix(1.0, 0.0, 0.0, 1.0, 7.35, 3.1)">
    <path d="M0.1 10.6 L-1.0 14.1 Q-1.55 15.75 -2.1 16.1 -3.95 17.35 -5.45 16.95 -6.9 16.55 -6.85 14.95 -6.8 11.6 -5.4 5.8 -3.95 -0.4 -2.7 -1.5 -1.35 -2.75 0.5 -2.6 2.2 -2.45 2.95 -1.3 4.15 0.7 2.7 4.65 L0.1 10.6" fill="#908e82" fill-rule="evenodd" stroke="none"/>
    <path d="M0.1 10.6 L-1.0 14.1 Q-1.55 15.75 -2.1 16.1 -3.95 17.35 -5.45 16.95 -6.9 16.55 -6.85 14.95 -6.8 11.6 -5.4 5.8 -3.95 -0.4 -2.7 -1.5 -1.35 -2.75 0.5 -2.6 2.2 -2.45 2.95 -1.3 4.15 0.7 2.7 4.65 L0.1 10.6 Z" fill="none" stroke="#4b4b3e" stroke-linecap="round" stroke-linejoin="round" stroke-width="1.05"/>
    <path d="M1.9 2.6 Q1.4 3.75 -0.65 4.35 L-2.65 4.75" fill="none" stroke="#6c6c5e" stroke-linecap="round" stroke-linejoin="round" stroke-width="1.05"/>
    <path d="M-1.65 7.55 Q-2.55 8.05 -3.45 9.8 L-4.25 11.4" fill="none" stroke="#6c6c5e" stroke-linecap="round" stroke-linejoin="round" stroke-width="1.05"/>
    <path d="M0.95 8.15 L-6.35 6.05 -5.95 4.15 -5.65 3.5 1.95 6.0 Q1.2 7.15 0.95 8.15" fill="#7a8530" fill-rule="evenodd" stroke="none"/>
    <path d="M0.95 8.15 L-6.35 6.05 -5.95 4.15 -5.65 3.5 1.95 6.0 Q1.2 7.15 0.95 8.15 Z" fill="none" stroke="#393f16" stroke-linecap="round" stroke-linejoin="round" stroke-width="1.05"/>
  </g>
</svg>
