<?xml version="1.0" encoding="UTF-8" standalone="no"?>
<svg xmlns:xlink="http://www.w3.org/1999/xlink" height="11.9px" width="11.9px" xmlns="http://www.w3.org/2000/svg">
  <g transform="matrix(1.0, 0.0, 0.0, 1.0, 11.25, 12.65)">
    <path d="M0.65 -7.1 L0.65 -6.7 Q0.65 -4.25 -1.1 -2.45 -2.85 -0.75 -5.3 -0.75 -7.75 -0.75 -9.55 -2.45 -11.25 -4.25 -11.25 -6.7 L-11.25 -7.1 Q-11.1 -9.3 -9.55 -10.9 L-8.25 -11.9 Q-6.9 -12.65 -5.3 -12.65 -3.7 -12.65 -2.4 -11.9 -1.7 -11.5 -1.1 -10.9 0.5 -9.3 0.65 -7.1 M-8.95 -2.65 L-8.95 -2.6 -8.15 -1.95 -8.95 -2.65" fill="#666666" fill-opacity="0.0" fill-rule="evenodd" stroke="none"/>
  </g>
</svg>
