<?xml version="1.0" encoding="UTF-8" standalone="no"?>
<svg xmlns:xlink="http://www.w3.org/1999/xlink" height="19.3px" width="13.1px" xmlns="http://www.w3.org/2000/svg">
  <g transform="matrix(1.0, 0.0, 0.0, 1.0, 9.1, 2.85)">
    <path d="M1.2 -2.15 Q2.65 -1.5 3.15 -0.3 L3.5 1.75 3.2 2.7 2.2 4.75 Q1.0 7.7 1.1 8.6 1.15 9.05 1.45 8.9 1.55 9.65 0.9 10.0 -0.05 10.55 -0.4 11.35 L-1.0 12.6 Q-1.4 13.45 -1.25 14.1 -1.7 15.9 -3.5 15.95 -5.1 15.95 -6.45 14.6 L-6.55 13.5 Q-6.8 12.2 -7.65 11.05 L-6.85 10.0 -7.3 6.6 Q-6.1 6.1 -5.75 5.7 L-5.3 4.35 Q-4.65 4.05 -4.65 3.45 L-4.75 2.35 Q-4.75 2.15 -3.9 1.95 L-3.1 1.8 Q-3.7 1.6 -4.05 0.8 L-4.2 0.1 Q-3.85 0.2 -3.2 -0.5 L-2.25 -1.35 -0.7 -2.15 Q0.2 -2.5 1.2 -2.15" fill="#2f2f3b" fill-rule="evenodd" stroke="none"/>
    <path d="M1.2 -2.15 Q0.2 -2.5 -0.7 -2.15 L-2.25 -1.35 -3.2 -0.5 Q-3.85 0.2 -4.2 0.1 L-4.05 0.8 Q-3.7 1.6 -3.1 1.8 L-3.9 1.95 Q-4.75 2.15 -4.75 2.35 L-4.65 3.45 Q-4.65 4.05 -5.3 4.35 L-5.75 5.7 Q-6.1 6.1 -7.3 6.6 L-6.85 10.0 -7.65 11.05 Q-6.8 12.2 -6.55 13.5 L-6.45 14.6 Q-5.1 15.95 -3.5 15.95 -1.7 15.9 -1.25 14.1 -1.4 13.45 -1.0 12.6 L-0.4 11.35 Q-0.05 10.55 0.9 10.0 1.55 9.65 1.45 8.9 1.15 9.05 1.1 8.6 1.0 7.7 2.2 4.75 L3.2 2.7 3.5 1.75 3.15 -0.3 Q2.65 -1.5 1.2 -2.15 Z" fill="none" stroke="#0e0f13" stroke-linecap="round" stroke-linejoin="round" stroke-width="1.05"/>
    <path d="M-2.85 7.9 L-4.1 9.65 -5.55 9.8 Q-7.2 9.6 -8.6 8.0 -7.7 5.75 -5.2 6.6 -3.9 7.0 -2.85 7.9" fill="#2f2f3b" fill-rule="evenodd" stroke="none"/>
    <path d="M-2.85 7.9 Q-3.9 7.0 -5.2 6.6 -7.7 5.75 -8.6 8.0 -7.2 9.6 -5.55 9.8 L-4.1 9.65" fill="none" stroke="#0e0f13" stroke-linecap="round" stroke-linejoin="round" stroke-width="1.05"/>
    <path d="M-2.0 4.4 L-0.2 4.45 0.5 4.15" fill="none" stroke="#0e0f13" stroke-linecap="round" stroke-linejoin="round" stroke-width="1.05"/>
  </g>
</svg>
