<?xml version="1.0" encoding="UTF-8" standalone="no"?>
<svg xmlns:xlink="http://www.w3.org/1999/xlink" height="19.25px" width="13.1px" xmlns="http://www.w3.org/2000/svg">
  <g transform="matrix(1.0, 0.0, 0.0, 1.0, 9.1, 2.8)">
    <path d="M-7.3 6.65 L-5.75 5.7 -5.3 4.4 Q-4.65 4.1 -4.65 3.45 L-4.7 2.35 Q-4.7 2.15 -3.85 2.0 L-3.1 1.85 Q-3.7 1.6 -4.05 0.85 L-4.2 0.15 Q-3.8 0.25 -3.2 -0.5 L-2.2 -1.35 Q-1.6 -1.55 -0.65 -2.1 L1.2 -2.05 Q2.65 -1.45 3.15 -0.25 3.5 0.45 3.5 1.8 L3.2 2.8 2.2 4.75 Q1.0 7.75 1.15 8.6 1.2 9.05 1.5 8.95 1.6 9.65 0.9 10.05 -0.05 10.6 -0.4 11.4 L-1.0 12.65 -1.25 14.15 Q-1.7 15.95 -3.5 15.95 -5.1 16.0 -6.45 14.65 L-6.55 13.55 Q-6.8 12.2 -7.6 11.1 L-6.85 10.05 -7.3 6.65" fill="#444444" fill-rule="evenodd" stroke="none"/>
    <path d="M-7.3 6.65 L-6.85 10.05 -7.6 11.1 Q-6.8 12.2 -6.55 13.55 L-6.45 14.65 Q-5.1 16.0 -3.5 15.95 -1.7 15.95 -1.25 14.15 L-1.0 12.65 -0.4 11.4 Q-0.05 10.6 0.9 10.05 1.6 9.65 1.5 8.95 1.2 9.05 1.15 8.6 1.0 7.75 2.2 4.75 L3.2 2.8 3.5 1.8 Q3.5 0.45 3.15 -0.25 2.65 -1.45 1.2 -2.05 L-0.65 -2.1 Q-1.6 -1.55 -2.2 -1.35 L-3.2 -0.5 Q-3.8 0.25 -4.2 0.15 L-4.05 0.85 Q-3.7 1.6 -3.1 1.85 L-3.85 2.0 Q-4.7 2.15 -4.7 2.35 L-4.65 3.45 Q-4.65 4.1 -5.3 4.4 L-5.75 5.7 -7.3 6.65 Z" fill="none" stroke="#1a1a1a" stroke-linecap="round" stroke-linejoin="round" stroke-width="1.05"/>
    <path d="M-2.8 7.9 L-4.1 9.7 -5.55 9.8 Q-7.15 9.6 -8.6 8.1 -7.7 5.8 -5.2 6.6 -3.9 7.0 -2.8 7.9" fill="#444444" fill-rule="evenodd" stroke="none"/>
    <path d="M-2.8 7.9 Q-3.9 7.0 -5.2 6.6 -7.7 5.8 -8.6 8.1 -7.15 9.6 -5.55 9.8 L-4.1 9.7" fill="none" stroke="#1a1a1a" stroke-linecap="round" stroke-linejoin="round" stroke-width="1.05"/>
    <path d="M-2.0 4.4 L-0.2 4.55 0.55 4.15" fill="none" stroke="#1a1a1a" stroke-linecap="round" stroke-linejoin="round" stroke-width="1.05"/>
  </g>
</svg>
