<?xml version="1.0" encoding="UTF-8" standalone="no"?>
<svg xmlns:xlink="http://www.w3.org/1999/xlink" height="21.7px" width="14.25px" xmlns="http://www.w3.org/2000/svg">
  <g transform="matrix(1.0, 0.0, 0.0, 1.0, 8.25, 3.65)">
    <path d="M-5.4 8.25 L-6.9 4.55 Q-6.55 2.3 -4.35 0.1 L-2.3 -1.8 Q-1.2 -2.65 -0.35 -2.75 1.4 -3.0 3.85 -0.85 5.7 0.9 5.3 4.0 4.85 6.75 3.45 8.25 L2.0 9.65 Q1.65 9.35 0.7 11.95 -0.25 14.65 -1.0 14.05 L-3.25 10.9 Q-4.85 8.25 -5.4 8.25" fill="url(#gradient0)" fill-rule="evenodd" stroke="none"/>
    <path d="M0.0 13.95 Q0.2 15.1 -1.6 16.45 -3.2 17.65 -4.2 17.5 -5.8 15.3 -6.55 12.9 L-6.95 11.7 -7.0 10.7 -6.3 9.15 Q-5.75 8.2 -5.7 7.45 -4.35 8.3 -3.05 10.65 L-0.65 14.1 Q-0.25 14.35 0.0 13.95 M-0.75 9.1 Q-0.55 8.45 0.7 8.8 L2.15 9.5 Q2.5 10.65 1.15 12.1 L0.35 13.1 0.7 12.5 Q0.9 12.45 0.1 10.95 L-0.75 9.1" fill="#181621" fill-rule="evenodd" stroke="none"/>
    <path d="M-3.3 -1.5 L-3.45 -0.95 -3.5 -0.4 -4.2 0.6 Q-4.9 1.55 -4.6 1.55 L-3.9 0.55 -3.1 -0.45 Q-2.9 -0.45 -2.2 -0.05 L-1.0 0.45 -0.4 0.4 0.1 0.25 Q0.55 0.45 0.5 1.7 0.5 2.45 -0.9 3.15 -2.1 3.65 -2.6 3.55 L-3.85 2.5 -5.1 1.6 Q-5.0 1.3 -5.35 1.7 -6.6 3.05 -6.7 4.0 L-6.25 4.75" fill="none" stroke="#080815" stroke-linecap="round" stroke-linejoin="round" stroke-width="1.0"/>
    <path d="M-0.15 5.35 L-0.2 6.45 -0.2 6.55 -0.25 6.85 -0.05 7.9 1.35 8.8 Q2.3 9.35 1.9 9.9 2.05 10.45 1.6 11.6 L0.75 12.85 Q0.65 11.8 0.1 10.8 L-0.65 9.45 -0.75 8.2 -0.2 6.55 -0.15 5.35 -0.2 5.1 Q-2.7 6.4 -5.7 6.1 L-5.8 6.9 -5.7 7.45 -5.45 7.65 Q-4.5 8.15 -4.05 8.85 L-3.35 10.3 Q-1.75 13.15 -0.5 13.9 -0.1 14.1 -0.6 15.25 -2.45 17.8 -4.1 17.45 -5.75 17.15 -6.4 13.45 -6.15 12.4 -6.25 11.95 -7.45 11.65 -7.5 10.9 -7.5 10.2 -6.6 9.85 L-6.35 9.65 Q-5.6 9.15 -5.7 7.5 L-5.7 7.45 -5.8 6.95 -5.8 6.9 -6.35 4.4 M-4.6 9.5 L-6.35 9.65 M-6.25 11.95 L-4.75 12.2" fill="none" stroke="#080815" stroke-linecap="round" stroke-linejoin="round" stroke-width="1.0"/>
    <path d="M-2.5 5.85 L-2.6 5.85 -5.9 6.15 Q-6.25 4.5 -6.5 4.15 -6.75 3.8 -6.55 3.45 L-5.95 2.45 -5.25 1.6 Q-5.05 1.55 -4.15 2.2 L-3.0 3.2 -2.7 4.2 -2.8 3.5 -1.85 3.3 -0.4 2.7 0.85 1.75 2.1 1.6 Q2.75 1.75 2.85 2.45 L2.95 3.5 2.5 4.05 1.1 4.7 -0.2 5.1 -2.5 5.8 -2.5 5.85 M-2.1 5.75 L-0.3 5.2 -0.3 5.35 -0.25 5.3 -0.4 7.55 -0.9 9.05 0.8 12.6 Q0.95 12.9 0.05 13.7 L-0.45 13.85 Q-1.35 13.4 -2.2 12.15 L-3.5 10.15 -0.9 8.9 Q-0.5 7.75 -0.35 6.5 L-0.3 5.35 -2.1 5.75 M-2.7 4.2 L-2.5 5.8 -2.7 4.2" fill="#141033" fill-rule="evenodd" stroke="none"/>
    <path d="M-2.5 5.85 L-2.6 5.85 -5.9 6.15 Q-6.25 4.5 -6.5 4.15 -6.75 3.8 -6.55 3.45 L-5.95 2.45 -5.25 1.6 Q-5.05 1.55 -4.15 2.2 L-3.0 3.2 -2.7 4.2 -2.8 3.5 -1.85 3.3 -0.4 2.7 0.85 1.75 2.1 1.6 Q2.75 1.75 2.85 2.45 L2.95 3.5 2.5 4.05 1.1 4.7 -0.2 5.1 -2.5 5.8 -2.1 5.75 -0.3 5.2 -0.3 5.35 -0.25 5.3 -0.4 7.55 -0.9 9.05 0.8 12.6 Q0.95 12.9 0.05 13.7 L-0.45 13.85 Q-1.35 13.4 -2.2 12.15 L-3.5 10.15 -0.9 8.9 Q-0.5 7.75 -0.35 6.5 L-0.3 5.35 -2.1 5.75 -2.5 5.85 -2.5 5.8 -2.7 4.2" fill="none" stroke="#080815" stroke-linecap="round" stroke-linejoin="round" stroke-width="1.0"/>
    <path d="M-3.05 -1.75 L-3.45 -1.4 -3.5 -0.35 Q-3.55 0.3 -4.4 1.15 -5.2 1.5 -5.6 2.0 L-6.65 3.4 Q-6.9 3.75 -6.0 5.45 -5.75 7.35 -5.9 8.3 -6.0 9.65 -6.3 9.8 -7.2 10.2 -7.3 10.55 L-7.15 11.35 -6.6 11.8 Q-6.2 11.95 -6.15 12.2 L-6.3 14.25 -5.65 15.95 -4.85 17.3 -3.75 17.55 -3.1 17.45 Q-2.4 17.2 -1.75 16.65 -0.7 15.8 -0.45 14.85 L-0.25 13.95 1.5 11.85 2.25 9.55 3.5 8.65 Q4.75 7.2 5.2 4.65 5.65 2.25 5.0 0.5 L3.95 -1.15 2.25 -2.65 1.2 -2.85 -0.05 -2.8 -2.3 -2.25 -3.05 -1.75 Z" fill="none" stroke="#05050c" stroke-linecap="butt" stroke-linejoin="miter-clip" stroke-miterlimit="4.0" stroke-width="1.0"/>
  </g>
  <defs>
    <radialGradient cx="0" cy="0" gradientTransform="matrix(0.0075, -7.0E-4, 0.0011, 0.0119, -0.75, 4.0)" gradientUnits="userSpaceOnUse" id="gradient0" r="819.2" spreadMethod="pad">
      <stop offset="0.0" stop-color="#060035"/>
      <stop offset="1.0" stop-color="#351342"/>
    </radialGradient>
  </defs>
</svg>
