<?xml version="1.0" encoding="UTF-8" standalone="no"?>
<svg xmlns:xlink="http://www.w3.org/1999/xlink" height="21.6px" width="13.75px" xmlns="http://www.w3.org/2000/svg">
  <g transform="matrix(1.0, 0.0, 0.0, 1.0, 7.7, 3.25)">
    <path d="M5.1 4.8 Q4.7 7.8 2.3 9.75 1.9 9.4 1.05 12.05 0.2 14.8 -0.5 14.25 L-2.9 11.1 Q-4.65 8.6 -5.15 8.6 L-6.85 5.05 Q-6.65 2.75 -4.5 0.45 -2.05 -2.55 0.5 -2.45 2.7 -2.4 4.1 -0.15 5.45 2.05 5.1 4.8" fill="url(#gradient0)" fill-rule="evenodd" stroke="none"/>
    <path d="M-5.5 7.85 Q-4.2 8.6 -2.8 10.9 -1.2 13.4 -0.2 14.25 0.15 14.5 0.4 14.1 0.6 15.25 -1.05 16.6 -2.65 17.95 -3.65 17.85 -5.35 15.6 -6.15 13.25 L-6.6 12.15 -6.7 11.15 -6.05 9.55 Q-5.55 8.6 -5.5 7.85 M2.4 9.55 Q2.75 10.75 1.5 12.2 L0.75 13.3 1.0 12.65 0.35 11.1 -0.5 9.25 Q-0.3 8.6 0.9 8.9 1.75 9.15 2.4 9.55" fill="#211b10" fill-rule="evenodd" stroke="none"/>
    <path d="M2.3 9.9 L4.0 8.7 4.45 8.05 5.05 6.7 5.55 5.1 Q5.7 2.65 4.85 0.6 3.75 -1.9 1.55 -2.6 L0.55 -2.7 -0.7 -2.55 -2.35 -2.05 -3.5 -1.25 -3.65 -0.1 -4.3 0.9 Q-4.95 1.9 -4.7 1.95 L-4.0 0.85 -3.3 -0.2 -2.35 0.2 -1.1 0.6 -0.5 0.5 0.0 0.4 Q0.45 0.5 0.45 1.8 0.45 2.6 -0.95 3.3 L-2.6 3.85 -3.9 2.8 Q-5.0 1.9 -5.15 2.0 -5.05 1.7 -5.35 2.1 -6.6 3.45 -6.7 4.4 L-6.25 5.15" fill="none" stroke="#19110b" stroke-linecap="round" stroke-linejoin="round" stroke-width="1.0"/>
    <path d="M-4.4 12.6 L-5.85 12.4 Q-5.7 12.8 -6.0 13.85 -5.2 17.55 -3.5 17.8 -1.85 18.1 -0.15 15.45 0.35 14.3 -0.1 14.05 -1.4 13.4 -3.05 10.6 L-3.85 9.1 Q-4.35 8.4 -5.25 8.0 -5.75 7.75 -5.55 6.45 -2.6 6.65 -0.1 5.25 L-0.1 5.7 -0.15 5.75 -0.05 6.5 -0.05 6.55 -0.05 6.6 -0.1 7.0 0.15 8.1 1.55 8.85 Q2.55 9.35 2.15 9.95 2.3 10.5 1.9 11.65 1.55 12.8 1.1 13.05 0.95 11.95 0.4 10.95 L-0.35 9.65 Q-0.65 8.95 -0.55 8.35 L-0.05 6.6 -0.05 6.5 M-4.3 9.8 Q-5.15 9.6 -6.1 10.1 L-6.35 10.25 Q-7.25 10.65 -7.2 11.35 -7.1 12.05 -5.85 12.4 M-6.35 4.85 Q-4.85 9.15 -6.1 10.1" fill="none" stroke="#151108" stroke-linecap="round" stroke-linejoin="round" stroke-width="1.0"/>
    <path d="M-2.4 6.05 L-2.5 6.05 -4.25 6.45 -5.8 6.55 -6.5 4.55 -6.7 4.25 -6.6 3.85 -6.0 2.8 -5.3 2.0 Q-5.05 2.0 -4.15 2.55 L-3.05 3.45 Q-2.8 3.65 -2.65 4.5 L-2.8 3.75 -0.35 2.9 Q0.4 2.5 0.8 1.8 L2.0 1.6 Q2.75 1.8 2.85 2.55 L2.95 3.55 2.55 4.1 1.1 4.75 -0.05 5.3 -0.35 5.45 -1.45 5.75 -2.4 6.05 -2.65 4.5 -2.4 6.05 M-0.15 5.5 L-0.15 5.45 -0.2 7.75 -0.65 9.2 1.2 12.75 Q1.35 13.0 0.45 13.85 L-0.05 14.0 -1.85 12.4 -3.2 10.4 -0.6 9.05 Q-0.3 7.95 -0.25 6.65 L-0.15 5.5" fill="#583110" fill-rule="evenodd" stroke="none"/>
    <path d="M-2.4 6.05 L-2.5 6.05 -4.25 6.45 -5.8 6.55 -6.5 4.55 -6.7 4.25 -6.6 3.85 -6.0 2.8 -5.3 2.0 Q-5.05 2.0 -4.15 2.55 L-3.05 3.45 Q-2.8 3.65 -2.65 4.5 L-2.8 3.75 -0.35 2.9 Q0.4 2.5 0.8 1.8 L2.0 1.6 Q2.75 1.8 2.85 2.55 L2.95 3.55 2.55 4.1 1.1 4.75 -0.05 5.3 -0.35 5.45 -0.15 5.35 -0.15 5.5 -0.15 5.45 -0.2 7.75 -0.65 9.2 1.2 12.75 Q1.35 13.0 0.45 13.85 L-0.05 14.0 -1.85 12.4 -3.2 10.4 -0.6 9.05 Q-0.3 7.95 -0.25 6.65 L-0.15 5.5 -2.05 5.95 -2.4 6.05 -2.65 4.5 M-2.4 6.05 L-2.05 5.95 -1.45 5.75 -2.4 6.05 M-0.35 5.45 L-1.45 5.75" fill="none" stroke="#19110b" stroke-linecap="round" stroke-linejoin="round" stroke-width="1.0"/>
    <path d="M3.75 -1.15 Q2.7 -2.2 1.95 -2.55 L-0.35 -2.6 -2.55 -2.0 -3.25 -1.5 -3.6 -1.1 -3.65 -0.1 Q-3.75 0.65 -4.5 1.45 L-5.7 2.4 -6.7 3.8 Q-6.9 4.2 -5.9 5.85 -5.55 7.4 -5.65 8.7 -5.65 10.0 -6.0 10.15 L-6.55 10.4 -7.05 11.0 -6.8 11.75 -6.25 12.25 -5.75 12.6 -5.85 14.65 -5.15 16.3 -4.3 17.65 -3.1 17.85 -2.55 17.7 -1.2 16.9 Q-0.25 15.95 0.05 14.95 L0.15 14.05 1.8 11.9 2.45 9.6 Q4.75 8.3 5.25 5.3 5.85 2.05 3.75 -1.15 Z" fill="none" stroke="#0c0805" stroke-linecap="butt" stroke-linejoin="miter-clip" stroke-miterlimit="4.0" stroke-width="1.0"/>
  </g>
  <defs>
    <radialGradient cx="0" cy="0" gradientTransform="matrix(0.0041, 9.0E-4, -0.0058, 0.0264, -0.3, 3.15)" gradientUnits="userSpaceOnUse" id="gradient0" r="819.2" spreadMethod="pad">
      <stop offset="0.0" stop-color="#2f0e06"/>
      <stop offset="1.0" stop-color="#8f601d"/>
    </radialGradient>
  </defs>
</svg>
