<?xml version="1.0" encoding="UTF-8" standalone="no"?>
<svg xmlns:ffdec="https://www.free-decompiler.com/flash" xmlns:xlink="http://www.w3.org/1999/xlink" ffdec:objectType="shape" height="21.85px" width="13.8px" xmlns="http://www.w3.org/2000/svg">
  <g transform="matrix(1.0, 0.0, 0.0, 1.0, 7.65, 3.25)">
    <path d="M-0.45 -2.55 Q1.25 -2.9 3.7 -0.85 5.7 0.85 5.4 3.95 5.1 6.7 3.7 8.3 L2.35 9.8 Q1.95 9.45 1.1 12.1 0.25 14.75 -0.5 14.25 L-2.85 11.15 Q-4.6 8.6 -5.1 8.65 L-6.75 5.0 Q-6.65 2.8 -4.4 0.45 L-2.35 -1.55 Q-1.35 -2.4 -0.45 -2.55" fill="url(#gradient0)" fill-rule="evenodd" stroke="none"/>
    <path d="M-5.45 7.85 Q-4.1 8.65 -2.7 10.95 -1.15 13.5 -0.2 14.3 0.15 14.55 0.4 14.1 0.7 15.25 -1.05 16.65 -2.6 17.95 -3.55 17.85 -5.3 15.75 -6.1 13.3 L-6.6 12.1 -6.7 11.15 -6.0 9.6 Q-5.5 8.6 -5.45 7.85 M-0.45 9.3 Q-0.25 8.6 1.0 8.95 1.85 9.2 2.45 9.6 2.8 10.75 1.6 12.25 L0.8 13.3 1.05 12.65 Q1.25 12.55 0.4 11.1 L-0.45 9.3" fill="#0f1213" fill-rule="evenodd" stroke="none"/>
    <path d="M-3.4 -1.2 L-3.5 -0.65 -3.55 -0.05 -4.2 0.9 Q-4.85 1.9 -4.55 1.95 L-3.9 0.85 -3.25 -0.15 -2.2 0.2 -1.05 0.65 -0.35 0.6 0.1 0.45 Q0.5 0.6 0.5 1.85 0.5 2.65 -0.8 3.3 -2.05 3.9 -2.5 3.8 L-3.8 2.85 Q-4.9 1.9 -5.0 2.0 L-5.15 2.0 -5.3 2.1 Q-6.5 3.4 -6.55 4.4 L-6.1 5.15" fill="none" stroke="#0e1314" stroke-linecap="round" stroke-linejoin="round" stroke-width="1.0"/>
    <path d="M-0.1 5.7 L0.0 6.65 -0.05 6.85 -0.05 7.0 Q0.0 7.8 0.2 8.1 L1.65 8.9 Q2.6 9.4 2.2 10.0 2.4 10.55 1.95 11.7 L1.2 13.0 Q1.05 11.95 0.4 10.95 L-0.3 9.65 -0.5 8.35 -0.05 6.85 -0.1 5.7 -0.05 5.6 -0.05 5.55 -0.05 5.3 Q-2.5 6.7 -5.5 6.5 L-5.55 7.35 Q-5.6 7.9 -5.2 8.0 -4.25 8.45 -3.8 9.15 -3.45 9.6 -3.0 10.6 -1.45 13.35 -0.1 14.1 0.35 14.3 -0.1 15.45 -1.85 18.1 -3.45 17.8 -5.2 17.5 -5.95 13.85 L-5.8 12.35 Q-7.1 12.05 -7.15 11.3 -7.2 10.65 -6.3 10.2 L-6.1 10.05 Q-4.8 9.2 -6.3 4.85 M-6.1 10.05 L-4.3 9.85 M-4.35 12.55 L-5.8 12.35" fill="none" stroke="#090d0d" stroke-linecap="round" stroke-linejoin="round" stroke-width="1.0"/>
    <path d="M-2.35 6.1 L-2.4 6.1 -5.7 6.55 Q-6.15 4.9 -6.4 4.6 L-6.6 4.2 -6.5 3.9 -5.95 2.8 -5.2 2.0 Q-4.95 1.95 -4.1 2.55 L-2.95 3.45 Q-2.7 3.65 -2.55 4.55 L-2.65 3.75 -0.3 2.95 0.5 2.35 0.85 1.85 2.05 1.7 Q2.8 1.85 2.9 2.55 L3.0 3.55 2.65 4.1 Q2.1 4.6 0.0 5.3 L-1.8 5.9 -2.15 6.0 -2.35 6.05 -2.35 6.1 M-1.5 5.85 L-0.1 5.4 -0.1 5.5 -0.05 5.45 -0.15 7.75 -0.6 9.25 1.25 12.7 Q1.4 13.05 0.45 13.9 L-0.05 14.05 Q-0.9 13.6 -1.85 12.35 L-3.15 10.45 -0.6 9.1 Q-0.2 7.95 -0.2 6.7 L-0.1 5.5 -1.5 5.85 M-2.55 4.55 L-2.35 6.05 -2.55 4.55" fill="#19242c" fill-rule="evenodd" stroke="none"/>
    <path d="M-2.35 6.1 L-2.4 6.1 -5.7 6.55 Q-6.15 4.9 -6.4 4.6 L-6.6 4.2 -6.5 3.9 -5.95 2.8 -5.2 2.0 Q-4.95 1.95 -4.1 2.55 L-2.95 3.45 Q-2.7 3.65 -2.55 4.55 L-2.65 3.75 -0.3 2.95 0.5 2.35 0.85 1.85 2.05 1.7 Q2.8 1.85 2.9 2.55 L3.0 3.55 2.65 4.1 Q2.1 4.6 0.0 5.3 L-1.8 5.9 -1.5 5.85 -0.1 5.4 -0.1 5.5 -0.05 5.45 -0.15 7.75 -0.6 9.25 1.25 12.7 Q1.4 13.05 0.45 13.9 L-0.05 14.05 Q-0.9 13.6 -1.85 12.35 L-3.15 10.45 -0.6 9.1 Q-0.2 7.95 -0.2 6.7 L-0.1 5.5 -1.5 5.85 -2.35 6.1 -2.35 6.05 -2.55 4.55 M-1.8 5.9 L-2.15 6.0 -2.35 6.05" fill="none" stroke="#0a0e0f" stroke-linecap="round" stroke-linejoin="round" stroke-width="1.0"/>
    <path d="M-0.2 -2.55 L-2.35 -2.0 -3.15 -1.5 -3.55 -1.1 -3.55 0.0 Q-3.55 0.25 -3.9 0.7 L-4.45 1.45 -4.9 1.85 -5.55 2.4 -6.6 3.8 Q-6.8 4.2 -5.85 5.8 -5.5 7.5 -5.6 8.7 -5.65 10.0 -5.95 10.2 L-6.55 10.4 -6.95 10.95 -6.75 11.8 -6.25 12.2 -5.7 12.6 -5.85 14.65 -5.15 16.25 -4.3 17.6 -3.1 17.9 Q-2.2 17.85 -1.2 16.9 L-0.2 15.6 0.0 15.0 0.1 14.1 Q1.55 12.7 1.85 11.95 L2.55 9.65 Q3.05 9.45 3.75 8.65 5.0 7.25 5.35 4.65 5.7 2.25 5.0 0.55 L3.9 -1.1 2.1 -2.55 Q1.45 -2.9 -0.2 -2.55 Z" fill="none" stroke="#070a0a" stroke-linecap="butt" stroke-linejoin="miter-clip" stroke-miterlimit="4.0" stroke-width="1.0"/>
  </g>
  <defs>
    <linearGradient gradientTransform="matrix(0.0074, 0.0, 0.0, 0.0103, -0.65, 5.85)" gradientUnits="userSpaceOnUse" id="gradient0" spreadMethod="pad" x1="-819.2" x2="819.2">
      <stop offset="0.0" stop-color="#121a22"/>
      <stop offset="0.6549019607843137" stop-color="#27363f"/>
      <stop offset="1.0" stop-color="#4d6277"/>
    </linearGradient>
  </defs>
</svg>
