<?xml version="1.0" encoding="UTF-8" standalone="no"?>
<svg xmlns:xlink="http://www.w3.org/1999/xlink" height="21.55px" width="14.1px" xmlns="http://www.w3.org/2000/svg">
  <g transform="matrix(1.0, 0.0, 0.0, 1.0, 8.0, 3.15)">
    <path d="M-0.55 -2.55 Q1.2 -2.85 3.65 -0.75 5.65 0.85 5.35 4.0 5.0 6.8 3.65 8.4 L2.3 9.8 Q1.9 9.5 1.0 12.2 0.15 14.85 -0.55 14.3 L-2.9 11.15 Q-4.65 8.6 -5.2 8.65 L-6.8 5.05 Q-6.6 2.7 -4.45 0.55 L-2.4 -1.5 -0.55 -2.55" fill="url(#gradient0)" fill-rule="evenodd" stroke="none"/>
    <path d="M-5.5 7.9 Q-4.15 8.65 -2.75 11.0 -1.2 13.5 -0.2 14.3 0.15 14.55 0.35 14.15 0.6 15.35 -1.1 16.75 -2.7 18.0 -3.65 17.9 -5.35 15.75 -6.2 13.3 L-6.65 12.2 -6.75 11.2 -6.1 9.7 Q-5.55 8.6 -5.5 7.9 M0.85 9.0 Q1.8 9.2 2.4 9.65 2.75 10.85 1.5 12.35 L0.65 13.4 1.0 12.7 Q1.25 12.7 0.35 11.15 L-0.5 9.35 Q-0.3 8.65 0.85 9.0" fill="#130f0f" fill-rule="evenodd" stroke="none"/>
    <path d="M-3.45 -1.15 L-3.55 -0.6 -3.6 -0.05 -4.25 0.95 Q-4.85 1.9 -4.6 1.95 L-3.95 0.9 -3.25 -0.15 -2.25 0.2 -1.1 0.7 -0.45 0.6 0.05 0.45 Q0.45 0.6 0.5 1.9 0.5 2.65 -0.9 3.35 -2.1 4.0 -2.55 3.85 L-3.9 2.9 Q-4.9 1.9 -5.1 2.0 L-5.3 2.05 -5.4 2.1 Q-6.55 3.5 -6.65 4.45 L-6.15 5.2" fill="none" stroke="#140e0e" stroke-linecap="round" stroke-linejoin="round" stroke-width="1.0"/>
    <path d="M-4.3 9.95 L-6.1 10.15 -6.35 10.3 Q-7.25 10.65 -7.2 11.35 -7.15 12.1 -5.9 12.45 L-4.4 12.6 M-0.05 5.65 L-0.05 6.7 -0.05 6.75 -0.05 7.05 0.15 8.15 Q0.2 8.25 1.6 8.95 2.55 9.5 2.15 10.15 2.35 10.65 1.9 11.7 1.55 12.85 1.15 13.05 0.95 12.0 0.35 11.0 L-0.4 9.7 -0.55 8.4 -0.05 6.75 -0.05 5.65 -0.05 5.4 Q-3.65 6.85 -5.45 7.05 -5.75 7.35 -3.05 10.7 -1.2 13.6 -0.15 14.1 0.3 14.35 -0.2 15.55 -1.95 18.1 -3.55 17.85 -5.25 17.55 -6.05 13.9 -5.8 12.85 -5.9 12.45" fill="none" stroke="#0d0909" stroke-linecap="round" stroke-linejoin="round" stroke-width="1.0"/>
    <path d="M-2.35 6.15 L-2.45 6.15 -5.8 6.6 Q-6.2 4.95 -6.45 4.6 -6.7 4.2 -6.55 3.95 L-6.0 2.9 -5.3 2.0 Q-5.05 1.95 -4.15 2.55 L-3.0 3.5 Q-2.75 3.7 -2.6 4.5 L-2.75 3.8 -0.35 3.0 Q0.45 2.55 0.8 1.9 L2.05 1.75 Q2.75 1.9 2.85 2.6 L3.0 3.6 2.55 4.2 -0.05 5.35 -0.25 5.5 -0.15 5.45 -0.2 5.6 -0.1 5.55 -0.2 7.8 -0.65 9.25 1.2 12.85 Q1.35 13.1 0.4 13.95 L-0.1 14.1 -1.9 12.45 -3.2 10.5 -0.65 9.1 Q-0.25 8.0 -0.2 6.7 L-0.2 5.6 -2.0 6.05 -0.25 5.5 -2.35 6.15 -2.6 4.5 -2.35 6.15" fill="#291818" fill-rule="evenodd" stroke="none"/>
    <path d="M-2.35 6.15 L-2.45 6.15 -5.8 6.6 Q-6.2 4.95 -6.45 4.6 -6.7 4.2 -6.55 3.95 L-6.0 2.9 -5.3 2.0 Q-5.05 1.95 -4.15 2.55 L-3.0 3.5 Q-2.75 3.7 -2.6 4.5 L-2.75 3.8 -0.35 3.0 Q0.45 2.55 0.8 1.9 L2.05 1.75 Q2.75 1.9 2.85 2.6 L3.0 3.6 2.55 4.2 -0.05 5.35 -0.25 5.5 -0.15 5.45 -0.2 5.6 -0.1 5.55 -0.2 7.8 -0.65 9.25 1.2 12.85 Q1.35 13.1 0.4 13.95 L-0.1 14.1 -1.9 12.45 -3.2 10.5 -0.65 9.1 Q-0.25 8.0 -0.2 6.7 L-0.2 5.6 -2.0 6.05 -2.35 6.15 -2.6 4.5 M-0.25 5.5 L-2.0 6.05 M-2.35 6.15 L-0.25 5.5" fill="none" stroke="#0d0909" stroke-linecap="round" stroke-linejoin="round" stroke-width="1.0"/>
    <path d="M-0.25 -2.55 L-2.45 -2.0 -3.6 -1.05 -3.6 0.0 Q-3.65 0.65 -4.45 1.5 L-4.95 1.85 -5.6 2.4 -6.65 3.8 Q-6.85 4.2 -5.9 5.95 -5.45 7.65 -5.7 8.75 -5.75 10.1 -6.05 10.25 -6.9 10.65 -7.05 11.05 L-6.85 11.85 -6.3 12.3 Q-5.85 12.4 -5.75 12.65 L-5.85 14.7 -5.2 16.3 -4.35 17.65 -3.2 17.9 Q-2.25 17.85 -1.2 17.0 L-0.3 15.65 -0.05 15.05 0.1 14.1 1.85 12.0 2.5 9.65 3.7 8.7 Q4.95 7.25 5.3 4.7 5.65 2.3 4.95 0.6 L3.8 -1.05 2.05 -2.5 -0.25 -2.55 Z" fill="none" stroke="#0d0a0a" stroke-linecap="butt" stroke-linejoin="miter-clip" stroke-miterlimit="4.0" stroke-width="1.0"/>
  </g>
  <defs>
    <linearGradient gradientTransform="matrix(0.0074, 0.0, 0.0, 0.0104, -0.7, 5.9)" gradientUnits="userSpaceOnUse" id="gradient0" spreadMethod="pad" x1="-819.2" x2="819.2">
      <stop offset="0.0" stop-color="#2b1010"/>
      <stop offset="0.8117647058823529" stop-color="#3e2828"/>
      <stop offset="1.0" stop-color="#844040"/>
    </linearGradient>
  </defs>
</svg>
