<?xml version="1.0" encoding="UTF-8" standalone="no"?>
<svg xmlns:xlink="http://www.w3.org/1999/xlink" height="22.2px" width="14.35px" xmlns="http://www.w3.org/2000/svg">
  <g transform="matrix(1.0, 0.0, 0.0, 1.0, 7.9, 3.3)">
    <path d="M-5.5 10.6 Q-5.25 8.8 -5.15 6.9 L-4.85 5.9 0.3 1.35 1.8 2.7 Q3.25 4.5 2.95 6.4 2.6 9.4 1.9 10.6 L2.05 11.1 2.15 12.15 1.85 12.35 1.35 12.25 Q1.05 12.25 1.2 12.45 L1.35 13.05 Q1.4 13.5 0.6 14.05 L0.35 15.2 -0.05 16.4 Q-2.1 18.65 -3.45 18.35 -4.85 18.05 -5.6 14.65 L-5.05 13.05 -5.7 12.95 -6.8 12.2 Q-7.5 11.55 -7.35 11.2 -7.2 10.85 -6.4 10.75 L-5.5 10.6 -4.0 10.75 -5.5 10.6 M-5.05 13.05 L-5.05 12.9 -3.9 12.95 -5.05 13.05 -3.9 12.95 -5.05 12.9 -5.05 13.05" fill="#302c2b" fill-rule="evenodd" stroke="none"/>
    <path d="M-5.5 10.6 Q-5.25 8.8 -5.15 6.9 L-4.85 5.9 0.3 1.35 1.8 2.7 Q3.25 4.5 2.95 6.4 2.6 9.4 1.9 10.6 L2.05 11.1 2.15 12.15 1.85 12.35 1.35 12.25 Q1.05 12.25 1.2 12.45 L1.35 13.05 Q1.4 13.5 0.6 14.05 L0.35 15.2 -0.05 16.4 Q-2.1 18.65 -3.45 18.35 -4.85 18.05 -5.6 14.65 L-5.05 13.05 -5.7 12.95 -6.8 12.2 Q-7.5 11.55 -7.35 11.2 -7.2 10.85 -6.4 10.75 L-5.5 10.6 -4.0 10.75 M-5.05 13.05 L-3.9 12.95 -5.05 12.9 -5.05 13.05 Z" fill="none" stroke="#231e1b" stroke-linecap="round" stroke-linejoin="round" stroke-width="1.0"/>
    <path d="M2.5 1.1 Q3.45 1.15 2.85 3.3 L2.25 5.85 1.3 6.8 Q0.2 7.65 0.35 7.85 L-0.3 8.7 Q-0.9 9.35 -0.1 10.25 -1.85 10.85 -2.75 9.9 -4.0 8.25 -5.45 7.15 L-5.6 5.15 -5.5 4.05 -4.4 1.8 Q-3.25 -0.45 -2.9 -0.15 L-0.5 0.5 2.5 1.1" fill="#572b20" fill-rule="evenodd" stroke="none"/>
    <path d="M2.5 1.1 L-0.5 0.5 -2.9 -0.15 Q-3.25 -0.45 -4.4 1.8 L-5.5 4.05 -5.6 5.15 -5.45 7.15 Q-4.0 8.25 -2.75 9.9 -1.85 10.85 -0.1 10.25 -0.9 9.35 -0.3 8.7 L0.35 7.85 Q0.2 7.65 1.3 6.8 L2.25 5.85 2.85 3.3 Q3.45 1.15 2.5 1.1 Z" fill="none" stroke="#201611" stroke-linecap="round" stroke-linejoin="round" stroke-width="1.0"/>
    <path d="M-4.25 6.3 L-5.55 6.05 Q-7.7 4.3 -5.3 1.9 L-2.65 4.0 -3.05 6.3 -4.25 6.3" fill="#624535" fill-rule="evenodd" stroke="none"/>
    <path d="M-4.25 6.3 L-5.55 6.05 Q-7.7 4.3 -5.3 1.9 L-2.65 4.0 -3.05 6.3 -4.25 6.3 Z" fill="none" stroke="#2a1f1b" stroke-linecap="round" stroke-linejoin="round" stroke-width="1.0"/>
    <path d="M-2.7 6.35 L-2.5 4.05 Q-0.6 3.8 0.65 3.15 L2.4 1.95 Q3.5 1.55 3.7 2.9 3.85 4.25 2.45 5.1 L-0.85 5.7 -2.7 6.35" fill="#624535" fill-rule="evenodd" stroke="none"/>
    <path d="M-2.7 6.35 L-2.5 4.05 Q-0.6 3.8 0.65 3.15 L2.4 1.95 Q3.5 1.55 3.7 2.9 3.85 4.25 2.45 5.1 L-0.85 5.7 -2.7 6.35 Z" fill="none" stroke="#2a1f1b" stroke-linecap="round" stroke-linejoin="round" stroke-width="1.0"/>
    <path d="M-3.85 8.9 L-3.05 8.9 -2.0 10.4 -1.0 9.45 -0.6 9.65 0.1 10.3 0.85 11.35 1.7 12.25 1.6 13.25 Q1.35 14.2 0.45 14.0 -0.55 13.85 -1.7 12.45 L-3.85 8.9" fill="#452a23" fill-rule="evenodd" stroke="none"/>
    <path d="M-3.85 8.9 L-1.7 12.45 Q-0.55 13.85 0.45 14.0 1.35 14.2 1.6 13.25 L1.7 12.25 0.85 11.35 0.1 10.3 -0.6 9.65 -1.0 9.45 -2.0 10.4 -3.05 8.9 -3.85 8.9 Z" fill="none" stroke="#201611" stroke-linecap="round" stroke-linejoin="round" stroke-width="1.0"/>
    <path d="M1.95 2.0 L1.6 2.4 0.9 1.05 -0.5 1.15 -3.8 -0.45 -3.15 -1.2 Q-2.25 -2.05 -1.2 -2.4 3.3 -4.05 5.25 0.85 7.25 5.8 3.3 9.45 L1.35 8.7 0.0 7.9 0.65 6.2 1.75 5.55 3.4 4.75 Q3.8 3.15 3.65 2.45 3.45 1.85 2.55 1.65 2.25 1.6 1.95 2.0" fill="url(#gradient0)" fill-rule="evenodd" stroke="none"/>
    <path d="M1.95 2.0 Q2.25 1.6 2.55 1.65 3.45 1.85 3.65 2.45 3.8 3.15 3.4 4.75 L1.75 5.55 0.65 6.2 0.0 7.9 1.35 8.7 3.3 9.45 Q7.25 5.8 5.25 0.85 3.3 -4.05 -1.2 -2.4 -2.25 -2.05 -3.15 -1.2 L-3.8 -0.45 -0.5 1.15 0.9 1.05 1.6 2.4 1.95 2.0 Z" fill="none" stroke="#2a1c17" stroke-linecap="round" stroke-linejoin="round" stroke-width="1.0"/>
    <path d="M-0.1 -2.65 L-3.35 -1.35 -3.35 -0.25 -4.25 1.4 -4.75 1.35 Q-5.2 1.35 -5.25 1.55 L-5.65 2.2 -6.1 3.1 -6.4 5.1 -5.7 6.1 -5.45 7.85 -5.4 9.9 Q-6.1 10.8 -6.5 10.75 -7.3 10.65 -7.15 11.15 L-6.95 11.95 -6.5 12.6 Q-5.95 13.05 -5.5 13.1 L-5.65 15.4 -4.7 17.3 -4.15 17.8 Q-3.45 18.3 -2.55 18.2 -1.0 18.0 0.3 16.2 L0.75 14.0 1.05 14.1 1.65 13.9 Q2.0 13.55 2.2 12.15 L2.25 10.1 2.85 9.1 3.65 9.1 5.2 6.7 Q5.9 5.75 5.7 4.55 L5.85 3.55 5.9 2.55 Q5.15 -0.25 4.6 -0.75 L3.65 -1.75 2.7 -2.4 1.45 -2.65 Q0.6 -2.9 -0.1 -2.65 Z" fill="none" stroke="#000000" stroke-linecap="round" stroke-linejoin="round" stroke-opacity="0.31764707" stroke-width="1.0"/>
  </g>
  <defs>
    <radialGradient cx="0" cy="0" gradientTransform="matrix(0.0087, 0.0016, -0.0016, 0.0076, 0.85, 3.3)" gradientUnits="userSpaceOnUse" id="gradient0" r="819.2" spreadMethod="pad">
      <stop offset="0.0" stop-color="#3c0c00"/>
      <stop offset="1.0" stop-color="#934f41"/>
    </radialGradient>
  </defs>
</svg>
