<?xml version="1.0" encoding="UTF-8" standalone="no"?>
<svg xmlns:xlink="http://www.w3.org/1999/xlink" height="48.05px" width="34.4px" xmlns="http://www.w3.org/2000/svg">
  <g transform="matrix(1.0, 0.0, 0.0, 1.0, 20.05, 32.85)">
    <path d="M14.2 -1.15 Q13.3 8.25 7.6 12.7 2.0 17.05 -5.05 13.85 -12.1 10.75 -16.45 1.85 -20.8 -7.05 -19.9 -16.45 -18.95 -25.95 -13.35 -30.35 -7.65 -34.7 -0.65 -31.55 6.4 -28.35 10.8 -19.45 15.15 -10.55 14.2 -1.15" fill="url(#gradient0)" fill-rule="evenodd" stroke="none"/>
    <path d="M-5.95 -21.4 Q4.0 -1.0 3.2 8.05 -3.25 -0.6 -8.7 -20.3 L-5.95 -21.4" fill="#ffffff" fill-rule="evenodd" stroke="none"/>
    <path d="M-5.95 -21.4 Q4.0 -1.0 3.2 8.05 -3.25 -0.6 -8.7 -20.3 L-5.95 -21.4 Z" fill="none" stroke="#bfbfbf" stroke-linecap="round" stroke-linejoin="round" stroke-width="1.0"/>
  </g>
  <defs>
    <radialGradient cx="0" cy="0" gradientTransform="matrix(0.0196, -0.0052, 0.0078, 0.0289, -2.85, -8.8)" gradientUnits="userSpaceOnUse" id="gradient0" r="819.2" spreadMethod="pad">
      <stop offset="0.33725490196078434" stop-color="#ffffff" stop-opacity="0.3019608"/>
      <stop offset="1.0" stop-color="#ffffff" stop-opacity="0.0"/>
    </radialGradient>
  </defs>
</svg>
