<?xml version="1.0" encoding="UTF-8" standalone="no"?>
<svg xmlns:ffdec="https://www.free-decompiler.com/flash" xmlns:xlink="http://www.w3.org/1999/xlink" ffdec:objectType="shape" height="20.8px" width="13.1px" xmlns="http://www.w3.org/2000/svg">
  <g transform="matrix(1.0, 0.0, 0.0, 1.0, 7.95, 4.6)">
    <path d="M1.7 -0.45 Q1.7 0.4 1.1 0.95 0.55 1.55 -0.2 1.6 L-0.55 1.55 -1.6 1.0 -2.0 0.15 -2.1 -0.4 Q-2.1 -1.2 -1.6 -1.75 -1.0 -2.3 -0.25 -2.3 0.6 -2.3 1.1 -1.75 1.7 -1.2 1.7 -0.45 M-2.95 2.4 Q-2.55 2.4 -2.25 2.7 -1.95 3.0 -1.95 3.3 L-2.25 4.05 -2.25 4.1 -2.95 4.25 -3.6 4.05 -3.8 3.65 -3.85 3.35 -3.6 2.65 -2.95 2.4" fill="#a47a4d" fill-rule="evenodd" stroke="none"/>
    <path d="M1.7 -0.45 Q1.7 -1.2 1.1 -1.75 0.6 -2.3 -0.25 -2.3 -1.0 -2.3 -1.6 -1.75 -2.1 -1.2 -2.1 -0.4 L-2.0 0.15 -1.6 1.0 -0.55 1.55 -0.2 1.6 Q0.55 1.55 1.1 0.95 1.7 0.4 1.7 -0.45 M-5.9 6.4 L-7.45 6.1 Q-6.45 -0.3 -4.6 -1.95 -2.8 -3.65 -1.25 -4.0 0.25 -4.35 2.0 -3.15 3.75 -2.0 4.65 0.6 L2.95 2.1 Q1.05 8.7 -0.25 9.7 -1.95 11.6 -3.8 9.9 L-3.4 6.5 -5.9 6.4 M-2.95 2.4 L-3.6 2.65 -3.85 3.35 -3.8 3.65 -3.6 4.05 -2.95 4.25 -2.25 4.1 -2.25 4.05 -1.95 3.3 Q-1.95 3.0 -2.25 2.7 -2.55 2.4 -2.95 2.4" fill="#f0c468" fill-rule="evenodd" stroke="none"/>
    <path d="M-3.8 9.9 Q-1.95 11.6 -0.25 9.7 L-2.6 13.15 -2.9 13.9 -3.05 14.45 Q-5.3 17.45 -7.0 13.35 L-7.05 12.3 -6.6 9.35 Q-5.45 9.05 -3.8 9.9" fill="#2f2f2f" fill-rule="evenodd" stroke="none"/>
    <path d="M-5.9 6.4 L-3.4 6.5 -3.8 9.9 Q-5.45 9.05 -6.6 9.35 -6.45 8.1 -5.9 6.4" fill="#222222" fill-rule="evenodd" stroke="none"/>
    <path d="M-0.25 9.7 L-2.6 13.15 -2.9 13.9 -3.05 14.45 Q-5.3 17.45 -7.0 13.35 L-7.05 12.3 -6.6 9.35 Q-5.45 9.05 -3.8 9.9" fill="none" stroke="#151515" stroke-linecap="round" stroke-linejoin="round" stroke-width="1.0"/>
    <path d="M1.7 -0.45 Q1.7 0.4 1.1 0.95 0.55 1.55 -0.2 1.6 L-0.55 1.55 -1.6 1.0 -2.0 0.15 -2.1 -0.4 Q-2.1 -1.2 -1.6 -1.75 -1.0 -2.3 -0.25 -2.3 0.6 -2.3 1.1 -1.75 1.7 -1.2 1.7 -0.45 M-0.25 9.7 Q1.05 8.7 2.95 2.1 L4.65 0.6 Q3.75 -2.0 2.0 -3.15 0.25 -4.35 -1.25 -4.0 -2.8 -3.65 -4.6 -1.95 -6.45 -0.3 -7.45 6.1 L-5.9 6.4 -3.4 6.5 -3.8 9.9 Q-1.95 11.6 -0.25 9.7 M-2.95 2.4 Q-2.55 2.4 -2.25 2.7 -1.95 3.0 -1.95 3.3 L-2.25 4.05 -2.25 4.1 -2.95 4.25 -3.6 4.05 -3.8 3.65 -3.85 3.35 -3.6 2.65 -2.95 2.4" fill="none" stroke="#63472e" stroke-linecap="round" stroke-linejoin="round" stroke-width="1.0"/>
    <path d="M-6.6 9.35 Q-6.45 8.1 -5.9 6.4" fill="none" stroke="#111111" stroke-linecap="round" stroke-linejoin="round" stroke-width="1.0"/>
  </g>
</svg>
