<?xml version="1.0" encoding="UTF-8" standalone="no"?>
<svg xmlns:xlink="http://www.w3.org/1999/xlink" height="27.85px" width="20.05px" xmlns="http://www.w3.org/2000/svg">
  <g transform="matrix(1.0, 0.0, 0.0, 1.0, 9.95, 31.25)">
    <path d="M-5.65 -28.1 L-2.7 -30.05 2.05 -30.2 6.0 -27.95 Q4.3 -27.2 3.35 -25.2 L3.85 -17.3 7.65 -16.35 7.4 -14.3 1.9 -15.25 0.7 -9.25 2.85 -9.25 Q2.05 -9.15 1.65 -8.65 L-2.3 -9.45 -2.45 -9.75 -1.5 -9.55 -0.35 -15.0 -6.2 -13.65 -6.7 -14.85 -4.05 -16.1 Q-4.55 -21.5 -3.2 -26.95 L-5.65 -28.1" fill="url(#gradient0)" fill-rule="evenodd" stroke="none"/>
    <path d="M6.25 -9.25 L6.4 -9.15 6.95 -8.3 Q7.1 -7.2 6.1 -5.15 5.3 -3.6 4.4 -4.65 L4.5 -4.85 Q5.5 -6.9 5.35 -8.0 5.1 -9.1 3.55 -9.25 L6.25 -9.25 M-5.55 -6.85 Q-6.5 -7.3 -6.8 -7.8 -7.7 -9.1 -7.25 -10.1 -7.0 -10.7 -5.8 -10.55 L-5.7 -10.5 -5.35 -10.4 -6.1 -9.65 Q-6.5 -8.8 -5.55 -6.85 M1.65 -8.65 L1.5 -8.35 Q1.05 -7.4 2.25 -5.2 L-0.7 -5.5 -3.15 -6.05 -3.1 -6.15 Q-2.1 -8.2 -2.25 -9.3 L-2.3 -9.45 1.65 -8.65" fill="#0e0e0e" fill-rule="evenodd" stroke="none"/>
    <path d="M3.55 -9.25 Q4.05 -9.65 5.1 -9.55 L6.25 -9.25 3.55 -9.25" fill="#999999" fill-rule="evenodd" stroke="none"/>
    <path d="M2.55 -4.7 L1.05 -4.2 Q-1.0 -3.8 -2.6 -5.05 L-3.35 -5.7 -3.15 -6.05 -0.7 -5.5 2.25 -5.2 2.3 -5.1 2.55 -4.7" fill="#0f0f0f" fill-rule="evenodd" stroke="none"/>
    <path d="M-5.8 -10.55 L-5.75 -10.8 -5.7 -10.5 -5.8 -10.55" fill="#959595" fill-rule="evenodd" stroke="none"/>
    <path d="M4.4 -4.65 L2.55 -4.7 2.3 -5.1 2.25 -5.2 Q1.05 -7.4 1.5 -8.35 L1.65 -8.65 Q2.05 -9.15 2.85 -9.25 L3.5 -9.25 3.55 -9.25 Q5.1 -9.1 5.35 -8.0 5.5 -6.9 4.5 -4.85 L4.4 -4.65 M-3.35 -5.7 Q-4.25 -4.45 -5.3 -6.4 L-5.55 -6.85 Q-6.5 -8.8 -6.1 -9.65 L-5.35 -10.4 -2.45 -9.75 -2.3 -9.45 -2.25 -9.3 Q-2.1 -8.2 -3.1 -6.15 L-3.15 -6.05 -3.35 -5.7" fill="#1d1616" fill-rule="evenodd" stroke="none"/>
    <path d="M-5.55 -25.1 Q-5.55 -24.55 -5.95 -24.15 -6.35 -23.75 -6.9 -23.75 L-7.2 -23.75 -7.85 -24.15 Q-8.25 -24.55 -8.25 -25.1 -8.25 -25.65 -7.85 -26.05 -7.45 -26.45 -6.9 -26.45 L-6.7 -26.45 -5.95 -26.05 Q-5.55 -25.65 -5.55 -25.1 M-7.25 -19.85 Q-7.8 -19.85 -8.2 -20.25 -8.6 -20.65 -8.6 -21.2 -8.6 -21.75 -8.2 -22.15 -7.8 -22.55 -7.25 -22.55 -6.7 -22.55 -6.3 -22.15 -5.9 -21.75 -5.9 -21.2 -5.9 -20.65 -6.3 -20.25 -6.7 -19.85 -7.2 -19.85 L-7.25 -19.85" fill="#ff4444" fill-rule="evenodd" stroke="none"/>
    <path d="M-6.7 -14.85 L-8.6 -14.0 Q-10.7 -23.55 -7.75 -29.05 L-5.65 -28.1 -3.2 -26.95 Q-4.55 -21.5 -4.05 -16.1 L-6.7 -14.85 M-7.2 -19.85 Q-6.7 -19.85 -6.3 -20.25 -5.9 -20.65 -5.9 -21.2 -5.9 -21.75 -6.3 -22.15 -6.7 -22.55 -7.25 -22.55 -7.8 -22.55 -8.2 -22.15 -8.6 -21.75 -8.6 -21.2 -8.6 -20.65 -8.2 -20.25 -7.8 -19.85 -7.25 -19.85 L-7.2 -19.85 M-5.55 -25.1 Q-5.55 -25.65 -5.95 -26.05 L-6.7 -26.45 -6.9 -26.45 Q-7.45 -26.45 -7.85 -26.05 -8.25 -25.65 -8.25 -25.1 -8.25 -24.55 -7.85 -24.15 L-7.2 -23.75 -6.9 -23.75 Q-6.35 -23.75 -5.95 -24.15 -5.55 -24.55 -5.55 -25.1" fill="url(#gradient1)" fill-rule="evenodd" stroke="none"/>
    <path d="M6.0 -27.95 L7.85 -28.4 Q10.15 -24.7 9.4 -15.95 L7.65 -16.35 3.85 -17.3 3.35 -25.2 Q4.3 -27.2 6.0 -27.95" fill="url(#gradient2)" fill-rule="evenodd" stroke="none"/>
    <path d="M7.4 -14.3 L6.25 -9.25 5.1 -9.55 Q4.05 -9.65 3.55 -9.25 L3.5 -9.25 2.85 -9.25 0.7 -9.25 1.9 -15.25 7.4 -14.3" fill="url(#gradient3)" fill-rule="evenodd" stroke="none"/>
    <path d="M-5.75 -10.8 L-6.2 -13.65 -0.35 -15.0 -1.5 -9.55 -2.45 -9.75 -5.35 -10.4 -5.7 -10.5 -5.75 -10.8" fill="url(#gradient4)" fill-rule="evenodd" stroke="none"/>
    <path d="M-5.65 -28.1 L-2.7 -30.05 2.05 -30.2 6.0 -27.95 M7.65 -16.35 L7.4 -14.3 M2.55 -4.7 L1.05 -4.2 Q-1.0 -3.8 -2.6 -5.05 L-3.35 -5.7 M-5.8 -10.55 L-5.75 -10.8 M-6.2 -13.65 L-6.7 -14.85" fill="none" stroke="#000000" stroke-linecap="round" stroke-linejoin="round" stroke-width="1.0"/>
    <path d="M-7.2 -19.85 L-7.25 -19.85" fill="none" stroke="#0e1314" stroke-linecap="round" stroke-linejoin="round" stroke-width="1.0"/>
    <path d="M-5.55 -25.1 Q-5.55 -24.55 -5.95 -24.15 -6.35 -23.75 -6.9 -23.75 L-7.2 -23.75 -7.85 -24.15 Q-8.25 -24.55 -8.25 -25.1 -8.25 -25.65 -7.85 -26.05 -7.45 -26.45 -6.9 -26.45 L-6.7 -26.45 -5.95 -26.05 Q-5.55 -25.65 -5.55 -25.1 M-7.25 -19.85 Q-7.8 -19.85 -8.2 -20.25 -8.6 -20.65 -8.6 -21.2 -8.6 -21.75 -8.2 -22.15 -7.8 -22.55 -7.25 -22.55 -6.7 -22.55 -6.3 -22.15 -5.9 -21.75 -5.9 -21.2 -5.9 -20.65 -6.3 -20.25 -6.7 -19.85 -7.2 -19.85" fill="none" stroke="#140e0e" stroke-linecap="round" stroke-linejoin="round" stroke-width="1.0"/>
    <path d="M6.25 -9.25 L6.4 -9.15 6.95 -8.3 Q7.1 -7.2 6.1 -5.15 5.3 -3.6 4.4 -4.65 L2.55 -4.7 2.3 -5.1 2.25 -5.2 -0.7 -5.5 -3.15 -6.05 -3.35 -5.7 Q-4.25 -4.45 -5.3 -6.4 L-5.55 -6.85 Q-6.5 -7.3 -6.8 -7.8 -7.7 -9.1 -7.25 -10.1 -7.0 -10.7 -5.8 -10.55 L-5.7 -10.5 -5.35 -10.4 -6.1 -9.65 Q-6.5 -8.8 -5.55 -6.85 M0.7 -9.25 L2.85 -9.25 3.5 -9.25 3.55 -9.25 Q4.05 -9.65 5.1 -9.55 L6.25 -9.25 3.55 -9.25 Q5.1 -9.1 5.35 -8.0 5.5 -6.9 4.5 -4.85 L4.4 -4.65 M2.85 -9.25 Q2.05 -9.15 1.65 -8.65 L1.5 -8.35 Q1.05 -7.4 2.25 -5.2 M-2.45 -9.75 L-1.5 -9.55 M-2.3 -9.45 L-2.45 -9.75 -5.35 -10.4 M-3.15 -6.05 L-3.1 -6.15 Q-2.1 -8.2 -2.25 -9.3 L-2.3 -9.45 1.65 -8.65 M-5.75 -10.8 L-5.7 -10.5" fill="none" stroke="#0a0707" stroke-linecap="round" stroke-linejoin="round" stroke-width="1.0"/>
    <path d="M6.0 -27.95 L7.85 -28.4 Q10.15 -24.7 9.4 -15.95 L7.65 -16.35 3.85 -17.3 3.35 -25.2 Q4.3 -27.2 6.0 -27.95 M7.4 -14.3 L6.25 -9.25 M-5.75 -10.8 L-6.2 -13.65 -0.35 -15.0 -1.5 -9.55 M-6.7 -14.85 L-8.6 -14.0 Q-10.7 -23.55 -7.75 -29.05 L-5.65 -28.1 -3.2 -26.95 Q-4.55 -21.5 -4.05 -16.1 L-6.7 -14.85 M7.4 -14.3 L1.9 -15.25 0.7 -9.25" fill="none" stroke="#150d0d" stroke-linecap="round" stroke-linejoin="round" stroke-width="1.0"/>
  </g>
  <defs>
    <linearGradient gradientTransform="matrix(0.0031, 0.0, 0.0, 0.0126, -0.35, -18.95)" gradientUnits="userSpaceOnUse" id="gradient0" spreadMethod="pad" x1="-819.2" x2="819.2">
      <stop offset="0.0" stop-color="#0d0d0d"/>
      <stop offset="1.0" stop-color="#1a1a1a"/>
    </linearGradient>
    <radialGradient cx="0" cy="0" gradientTransform="matrix(0.0357, 0.0, 0.0, 0.0357, 19.25, -20.9)" gradientUnits="userSpaceOnUse" id="gradient1" r="819.2" spreadMethod="pad">
      <stop offset="0.0" stop-color="#371e1e"/>
      <stop offset="0.6588235294117647" stop-color="#3e2828"/>
      <stop offset="1.0" stop-color="#774d4d"/>
    </radialGradient>
    <radialGradient cx="0" cy="0" gradientTransform="matrix(0.045, 0.0, 0.0, 0.045, -27.25, -19.4)" gradientUnits="userSpaceOnUse" id="gradient2" r="819.2" spreadMethod="pad">
      <stop offset="0.0" stop-color="#371e1e"/>
      <stop offset="0.6588235294117647" stop-color="#3e2828"/>
      <stop offset="1.0" stop-color="#774d4d"/>
    </radialGradient>
    <radialGradient cx="0" cy="0" gradientTransform="matrix(0.0449, 0.0, 0.0, 0.0449, -29.4, -14.0)" gradientUnits="userSpaceOnUse" id="gradient3" r="819.2" spreadMethod="pad">
      <stop offset="0.0" stop-color="#371e1e"/>
      <stop offset="0.6588235294117647" stop-color="#3e2828"/>
      <stop offset="1.0" stop-color="#774d4d"/>
    </radialGradient>
    <radialGradient cx="0" cy="0" gradientTransform="matrix(0.0536, 0.0, 0.0, 0.0536, 34.75, -27.5)" gradientUnits="userSpaceOnUse" id="gradient4" r="819.2" spreadMethod="pad">
      <stop offset="0.0" stop-color="#371e1e"/>
      <stop offset="0.6588235294117647" stop-color="#3e2828"/>
      <stop offset="1.0" stop-color="#774d4d"/>
    </radialGradient>
  </defs>
</svg>
