<?xml version="1.0" encoding="UTF-8" standalone="no"?>
<svg xmlns:ffdec="https://www.free-decompiler.com/flash" xmlns:xlink="http://www.w3.org/1999/xlink" ffdec:objectType="shape" height="21.6px" width="15.35px" xmlns="http://www.w3.org/2000/svg">
  <g transform="matrix(1.0, 0.0, 0.0, 1.0, 8.0, 5.0)">
    <path d="M0.1 3.65 Q0.2 4.75 1.5 5.0 L1.7 5.35 1.95 6.85 1.4 8.75 0.45 11.15 -0.3 13.75 Q-0.9 16.0 -3.85 16.1 -6.75 16.2 -7.5 11.65 L-7.05 9.5 -6.95 8.75 -6.9 7.85 -6.75 7.2 -6.55 6.0 Q-6.1 4.2 -5.05 2.6 L-3.85 2.15 Q-3.65 3.2 -2.7 3.55 L-2.15 3.7 0.1 3.65 M1.4 8.75 Q-2.7 10.55 -7.05 9.5 -2.7 10.55 1.4 8.75 M0.45 11.15 Q-2.5 12.7 -7.5 11.65 -2.5 12.7 0.45 11.15 M1.95 6.85 L-6.75 7.2 1.95 6.85" fill="#2f2f2f" fill-rule="evenodd" stroke="none"/>
    <path d="M0.1 3.65 Q2.3 0.65 4.1 2.1 L2.95 3.85 1.5 5.0 Q0.2 4.75 0.1 3.65" fill="#666666" fill-rule="evenodd" stroke="none"/>
    <path d="M4.1 2.1 Q2.3 0.65 0.1 3.65 0.2 4.75 1.5 5.0 L1.7 5.35 1.95 6.85 1.4 8.75 0.45 11.15 -0.3 13.75 Q-0.9 16.0 -3.85 16.1 -6.75 16.2 -7.5 11.65 L-7.05 9.5 -6.95 8.75 -6.9 7.85 -6.75 7.2 -6.55 6.0 Q-6.1 4.2 -5.05 2.6 L-3.85 2.15 M-6.75 7.2 L1.95 6.85 M-7.5 11.65 Q-2.5 12.7 0.45 11.15 M-7.05 9.5 Q-2.7 10.55 1.4 8.75" fill="none" stroke="#171717" stroke-linecap="round" stroke-linejoin="round" stroke-width="1.0"/>
    <path d="M1.5 5.0 L2.95 3.85 4.1 2.1" fill="none" stroke="#2f2f2f" stroke-linecap="round" stroke-linejoin="round" stroke-width="1.0"/>
    <path d="M0.4 -4.45 L2.6 -4.2 Q4.65 -3.85 6.1 -1.65 6.85 -0.35 6.85 0.55 L6.75 0.9 Q6.3 2.5 2.95 2.3 1.7 3.35 0.65 3.8 L-0.25 4.3 -2.1 4.75 Q-3.15 4.8 -4.25 4.25 -5.4 3.6 -5.45 2.0 -5.5 0.35 -4.4 -1.2 -3.3 -2.85 -2.2 -3.55 -1.0 -4.35 0.4 -4.45" fill="#761414" fill-rule="evenodd" stroke="none"/>
    <path d="M0.4 -4.45 Q-1.0 -4.35 -2.2 -3.55 -3.3 -2.85 -4.4 -1.2 -5.5 0.35 -5.45 2.0 -5.4 3.6 -4.25 4.25 -3.15 4.8 -2.1 4.75 L-0.25 4.3 0.65 3.8 Q1.7 3.35 2.95 2.3 6.3 2.5 6.75 0.9 L6.85 0.55 Q6.85 -0.35 6.1 -1.65 4.65 -3.85 2.6 -4.2 L0.4 -4.45 Z" fill="none" stroke="#310206" stroke-linecap="round" stroke-linejoin="round" stroke-width="1.0"/>
    <path d="M1.5 -0.6 Q2.0 0.1 1.8 0.8 1.55 1.65 0.8 2.0 0.15 2.45 -0.6 2.35 L-0.95 2.2 -1.8 1.35 -1.95 0.45 -1.95 -0.1 -1.1 -1.3 0.35 -1.45 Q1.2 -1.2 1.5 -0.6" fill="#444444" fill-rule="evenodd" stroke="none"/>
    <path d="M1.5 -0.6 Q2.0 0.1 1.8 0.8 1.55 1.65 0.8 2.0 0.15 2.45 -0.6 2.35 L-0.95 2.2 -1.8 1.35 -1.95 0.45 -1.95 -0.1 -1.1 -1.3 0.35 -1.45 Q1.2 -1.2 1.5 -0.6 Z" fill="none" stroke="#330000" stroke-linecap="round" stroke-linejoin="round" stroke-width="1.0"/>
  </g>
</svg>
