<?xml version="1.0" encoding="UTF-8" standalone="no"?>
<svg xmlns:xlink="http://www.w3.org/1999/xlink" height="23.2px" width="14.45px" xmlns="http://www.w3.org/2000/svg">
  <g transform="matrix(1.0, 0.0, 0.0, 1.0, 4.6, 3.5)">
    <path d="M1.1 -0.45 Q2.35 0.1 3.35 2.35 4.4 4.65 2.75 5.55 1.15 6.4 -0.15 4.15 -1.45 1.9 -1.4 0.85 -0.5 -0.55 1.1 -0.45 M5.3 16.65 L5.85 16.0 Q6.45 15.15 6.8 15.75 7.15 16.35 8.85 17.3 7.2 19.35 6.65 19.2 L5.6 18.5 Q5.05 17.9 5.3 16.65" fill="#4b4b4b" fill-rule="evenodd" stroke="none"/>
    <path d="M2.2 7.8 L5.1 6.15 6.4 8.5 3.55 10.15 2.2 7.8" fill="#666666" fill-rule="evenodd" stroke="none"/>
    <path d="M5.3 16.65 L5.3 16.6 5.1 15.8 Q4.9 15.1 5.2 14.55 L5.3 14.4 Q5.7 13.7 6.75 13.25 L7.75 12.95 Q8.85 12.8 9.05 13.9 9.7 15.65 8.85 17.3 7.15 16.35 6.8 15.75 6.45 15.15 5.85 16.0 L5.3 16.65" fill="#94a48e" fill-rule="evenodd" stroke="none"/>
    <path d="M1.1 -0.45 L1.7 -2.7 Q1.85 -3.45 3.45 -2.25 5.05 -1.05 5.65 1.15 6.15 3.4 8.0 7.25 9.75 11.0 7.8 12.4 5.85 13.85 4.6 13.55 3.4 13.2 2.7 12.4 L-0.65 8.45 Q-3.3 5.3 -3.75 3.55 -4.25 1.9 -4.05 0.85 -3.85 -0.25 -3.25 -0.05 -2.6 0.15 -1.4 0.85 -1.45 1.9 -0.15 4.15 1.15 6.4 2.75 5.55 4.4 4.65 3.35 2.35 2.35 0.1 1.1 -0.45 M2.2 7.8 L3.55 10.15 6.4 8.5 5.1 6.15 2.2 7.8" fill="url(#gradient0)" fill-rule="evenodd" stroke="none"/>
    <path d="M1.1 -0.45 Q2.35 0.1 3.35 2.35 4.4 4.65 2.75 5.55 1.15 6.4 -0.15 4.15 -1.45 1.9 -1.4 0.85 -0.5 -0.55 1.1 -0.45 M2.2 7.8 L5.1 6.15 6.4 8.5 3.55 10.15 2.2 7.8 M8.85 17.3 Q9.7 15.65 9.05 13.9 8.85 12.8 7.75 12.95 L6.75 13.25 Q5.7 13.7 5.3 14.4 L5.2 14.55 Q4.9 15.1 5.1 15.8 L5.3 16.6 5.3 16.65 5.85 16.0 Q6.45 15.15 6.8 15.75 7.15 16.35 8.85 17.3 7.2 19.35 6.65 19.2 L5.6 18.5 Q5.05 17.9 5.3 16.65" fill="none" stroke="#000000" stroke-linecap="round" stroke-linejoin="round" stroke-width="1.0"/>
    <path d="M-1.4 0.85 Q-2.6 0.15 -3.25 -0.05 -3.85 -0.25 -4.05 0.85 -4.25 1.9 -3.75 3.55 -3.3 5.3 -0.65 8.45 L2.7 12.4 Q3.4 13.2 4.6 13.55 5.85 13.85 7.8 12.4 9.75 11.0 8.0 7.25 6.15 3.4 5.65 1.15 5.05 -1.05 3.45 -2.25 1.85 -3.45 1.7 -2.7 L1.1 -0.45" fill="none" stroke="#2e332b" stroke-linecap="round" stroke-linejoin="round" stroke-width="1.0"/>
  </g>
  <defs>
    <linearGradient gradientTransform="matrix(0.0045, -0.0026, 0.0051, 0.0087, 2.85, 5.75)" gradientUnits="userSpaceOnUse" id="gradient0" spreadMethod="pad" x1="-819.2" x2="819.2">
      <stop offset="0.0" stop-color="#586149"/>
      <stop offset="0.21176470588235294" stop-color="#3c4333"/>
      <stop offset="1.0" stop-color="#829985"/>
    </linearGradient>
  </defs>
</svg>
