<?xml version="1.0" encoding="UTF-8" standalone="no"?>
<svg xmlns:xlink="http://www.w3.org/1999/xlink" height="20.9px" width="13.3px" xmlns="http://www.w3.org/2000/svg">
  <g transform="matrix(1.0, 0.0, 0.0, 1.0, 4.8, 1.65)">
    <path d="M4.4 7.2 L3.55 6.8 1.05 0.5 -1.2 1.55 Q-3.25 0.7 -2.95 0.65 -2.65 -0.25 -1.7 -0.5 0.9 -1.3 1.75 -0.9 3.85 2.4 4.4 7.2 M0.5 11.3 L5.9 9.45 Q4.55 10.25 5.65 11.8 3.75 10.85 2.75 12.1 2.35 11.35 0.5 11.3 M7.5 15.1 L7.55 15.1 8.0 16.9 6.65 18.35 4.55 18.5 Q3.65 17.7 3.65 16.45 L4.5 16.55 5.75 16.35 Q7.1 15.8 7.5 15.1" fill="#333333" fill-rule="evenodd" stroke="none"/>
    <path d="M-2.95 0.65 Q-3.25 0.7 -1.2 1.55 L1.05 0.5 3.55 6.8 4.4 7.2 5.25 7.65 5.9 9.45 0.5 11.3 Q-2.05 7.55 -4.3 -1.15 L-2.95 0.65 M2.75 12.1 Q3.75 10.85 5.65 11.8 7.1 13.0 7.55 14.4 L7.5 15.1 Q7.1 15.8 5.75 16.35 L4.5 16.55 3.65 16.45 Q2.95 16.25 2.8 15.8 2.05 14.5 2.75 12.1 M2.5 8.9 L3.1 8.75 2.5 8.9 M1.5 7.45 L2.2 7.35 1.5 7.45" fill="#ffffff" fill-rule="evenodd" stroke="none"/>
    <path d="M4.4 7.2 Q3.85 2.4 1.75 -0.9 M0.5 11.3 Q2.35 11.35 2.75 12.1 M5.65 11.8 Q4.55 10.25 5.9 9.45" fill="none" stroke="#000000" stroke-linecap="round" stroke-linejoin="round" stroke-width="1.0"/>
    <path d="M7.5 15.1 L7.55 15.1 8.0 16.9 6.65 18.35 4.55 18.5 Q3.65 17.7 3.65 16.45" fill="none" stroke="#000000" stroke-linecap="round" stroke-linejoin="round" stroke-opacity="0.99215686" stroke-width="1.0"/>
    <path d="M2.2 7.35 L1.5 7.45 M3.1 8.75 L2.5 8.9" fill="none" stroke="#999999" stroke-linecap="round" stroke-linejoin="round" stroke-width="1.0"/>
    <path d="M-2.95 0.65 Q-3.25 0.7 -1.2 1.55 L1.05 0.5 3.55 6.8 4.4 7.2 5.25 7.65 5.9 9.45 0.5 11.3 M-2.95 0.65 L-4.3 -1.15 M2.75 12.1 Q3.75 10.85 5.65 11.8 7.1 13.0 7.55 14.4 L7.5 15.1 Q7.1 15.8 5.75 16.35 L4.5 16.55 3.65 16.45 Q2.95 16.25 2.8 15.8 2.05 14.5 2.75 12.1" fill="none" stroke="#666666" stroke-linecap="round" stroke-linejoin="round" stroke-width="1.0"/>
    <path d="M-4.3 -1.15 Q-2.05 7.55 0.5 11.3" fill="none" stroke="#484848" stroke-linecap="round" stroke-linejoin="round" stroke-width="1.0"/>
  </g>
</svg>
