<?xml version="1.0" encoding="UTF-8" standalone="no"?>
<svg xmlns:xlink="http://www.w3.org/1999/xlink" height="26.5px" width="18.9px" xmlns="http://www.w3.org/2000/svg">
  <g transform="matrix(1.0, 0.0, 0.0, 1.0, 10.55, 2.7)">
    <path d="M1.35 6.0 L3.75 6.15 7.85 19.6 5.65 21.35 2.2 12.4 2.85 10.7 1.7 9.55 -0.3 10.25 -0.95 12.0 0.4 13.15 3.65 21.9 -1.45 23.3 -2.7 20.2 0.0 18.95 -1.9 12.85 -4.8 14.05 -4.8 14.0 Q-5.1 12.6 -4.6 10.85 L-4.3 9.4 -3.25 7.2 Q-2.0 6.6 -0.75 6.3 L1.35 6.0 M-6.55 10.0 L-7.0 10.85 -10.05 9.65 -9.25 6.9 -6.0 8.0 -6.15 8.55 -6.55 10.0" fill="#cccccc" fill-rule="evenodd" stroke="none"/>
    <path d="M-2.7 20.2 Q-4.3 16.2 -4.8 14.05 L-1.9 12.85 0.0 18.95 -2.7 20.2" fill="#999999" fill-rule="evenodd" stroke="none"/>
    <path d="M-1.1 1.95 L-1.8 1.4 Q-2.35 0.7 -2.25 -0.25 -2.15 -1.15 -1.45 -1.7 -0.75 -2.25 0.15 -2.2 1.1 -2.1 1.65 -1.4 2.25 -0.7 2.1 0.2 2.0 1.15 1.3 1.7 L1.05 1.9 -0.3 2.15 -1.1 1.95 M-4.6 10.85 L-6.55 10.0 -6.15 8.55 -4.3 9.4 -4.6 10.85 M-0.95 12.0 L-0.3 10.25 1.7 9.55 2.85 10.7 -0.95 12.0" fill="#666666" fill-rule="evenodd" stroke="none"/>
    <path d="M1.05 1.9 L1.35 6.0 -0.75 6.3 -1.1 1.95 -0.3 2.15 1.05 1.9" fill="#333333" fill-rule="evenodd" stroke="none"/>
    <path d="M5.65 21.35 L3.65 21.9 0.4 13.15 -0.95 12.0 2.85 10.7 2.2 12.4 5.65 21.35" fill="#4d4d4d" fill-rule="evenodd" stroke="none"/>
    <path d="M1.05 1.9 L1.35 6.0 M-0.75 6.3 L-1.1 1.95" fill="none" stroke="#000000" stroke-linecap="round" stroke-linejoin="round" stroke-width="1.0"/>
    <path d="M1.35 6.0 L3.75 6.15 7.85 19.6 5.65 21.35 M3.65 21.9 L-1.45 23.3 -2.7 20.2 Q-4.3 16.2 -4.8 14.05 L-4.8 14.0 Q-5.1 12.6 -4.6 10.85 L-4.3 9.4 -3.25 7.2 Q-2.0 6.6 -0.75 6.3 L1.35 6.0 M-6.55 10.0 L-7.0 10.85 -10.05 9.65 -9.25 6.9 -6.0 8.0 -6.15 8.55 -6.55 10.0 M-2.7 20.2 L0.0 18.95 -1.9 12.85 -4.8 14.05" fill="none" stroke="#666666" stroke-linecap="round" stroke-linejoin="round" stroke-width="1.0"/>
    <path d="M-1.1 1.95 L-1.8 1.4 Q-2.35 0.7 -2.25 -0.25 -2.15 -1.15 -1.45 -1.7 -0.75 -2.25 0.15 -2.2 1.1 -2.1 1.65 -1.4 2.25 -0.7 2.1 0.2 2.0 1.15 1.3 1.7 L1.05 1.9 -0.3 2.15 -1.1 1.95" fill="none" stroke="#3c3c3c" stroke-linecap="round" stroke-linejoin="round" stroke-width="1.0"/>
    <path d="M5.65 21.35 L3.65 21.9 0.4 13.15 -0.95 12.0 2.85 10.7 2.2 12.4 5.65 21.35 M2.85 10.7 L1.7 9.55 -0.3 10.25 -0.95 12.0" fill="none" stroke="#373737" stroke-linecap="round" stroke-linejoin="round" stroke-width="1.0"/>
    <path d="M-4.6 10.85 L-6.55 10.0 M-6.15 8.55 L-4.3 9.4" fill="none" stroke="#404040" stroke-linecap="round" stroke-linejoin="round" stroke-width="1.0"/>
  </g>
</svg>
