<?xml version="1.0" encoding="UTF-8" standalone="no"?>
<svg xmlns:ffdec="https://www.free-decompiler.com/flash" xmlns:xlink="http://www.w3.org/1999/xlink" ffdec:objectType="shape" height="30.7px" width="14.35px" xmlns="http://www.w3.org/2000/svg">
  <g transform="matrix(1.0, 0.0, 0.0, 1.0, 9.3, 16.4)">
    <path d="M-8.8 -12.6 L-5.95 -15.9 -4.65 -15.3 -3.05 -10.0 0.3 -4.05 2.0 -2.95 4.55 1.6 2.85 7.0 Q2.6 7.35 2.25 7.0 L1.05 5.9 Q-1.7 3.75 -4.6 2.95 L-6.25 2.5 -6.2 -1.65 -6.3 -1.85 -4.6 -4.0 -7.0 -11.75 -8.8 -12.6 M-3.0 0.95 L-2.1 0.65 -1.25 2.3 -1.95 2.6 -1.25 2.3 -2.1 0.65 -3.0 0.95 M-0.75 -3.5 L-3.2 -3.95 -0.75 -3.5 M1.4 -0.55 L1.15 0.35 -0.65 -0.4 -0.4 -1.35 -0.65 -0.4 1.15 0.35 1.4 -0.55 M2.65 2.5 L1.75 1.6 0.5 2.85 1.25 3.6 0.5 2.85 1.75 1.6 2.65 2.5" fill="#5e898b" fill-rule="evenodd" stroke="none"/>
    <path d="M-6.3 -1.85 L-8.8 -12.6 -7.0 -11.75 -4.6 -4.0 -6.3 -1.85" fill="#54a39c" fill-rule="evenodd" stroke="none"/>
    <path d="M1.05 5.9 Q0.1 7.5 -0.6 10.35 -1.45 14.3 -3.95 13.7 -6.15 13.0 -6.9 11.15 -6.45 8.7 -7.7 9.45 -7.9 8.55 -5.2 6.95 -7.25 6.7 -7.0 5.15 -5.1 5.35 -4.6 2.95 -1.7 3.75 1.05 5.9" fill="#324144" fill-rule="evenodd" stroke="none"/>
    <path d="M-8.8 -12.6 L-5.95 -15.9 -4.65 -15.3 -3.05 -10.0 0.3 -4.05 2.0 -2.95 4.55 1.6 2.85 7.0 Q2.6 7.35 2.25 7.0 L1.05 5.9 Q0.1 7.5 -0.6 10.35 -1.45 14.3 -3.95 13.7 -6.15 13.0 -6.9 11.15 -6.45 8.7 -7.7 9.45 -7.9 8.55 -5.2 6.95 -7.25 6.7 -7.0 5.15 -5.1 5.35 -4.6 2.95 L-6.25 2.5 -6.2 -1.65 -6.3 -1.85 -8.8 -12.6 -7.0 -11.75 -4.6 -4.0 -6.3 -1.85 M1.05 5.9 Q-1.7 3.75 -4.6 2.95" fill="none" stroke="#1d3130" stroke-linecap="round" stroke-linejoin="round" stroke-width="1.0"/>
    <path d="M1.25 3.6 L0.5 2.85 1.75 1.6 2.65 2.5 M-0.4 -1.35 L-0.65 -0.4 1.15 0.35 1.4 -0.55 M-3.2 -3.95 L-0.75 -3.5 M-1.95 2.6 L-1.25 2.3 -2.1 0.65 -3.0 0.95" fill="none" stroke="#4b7174" stroke-linecap="round" stroke-linejoin="round" stroke-width="1.0"/>
  </g>
</svg>
