<?xml version="1.0" encoding="UTF-8" standalone="no"?>
<svg xmlns:ffdec="https://www.free-decompiler.com/flash" xmlns:xlink="http://www.w3.org/1999/xlink" ffdec:objectType="shape" height="19.3px" width="14.35px" xmlns="http://www.w3.org/2000/svg">
  <g transform="matrix(1.0, 0.0, 0.0, 1.0, 7.95, 3.45)">
    <path d="M-4.75 5.55 Q-4.2 4.05 -2.55 3.55 -1.2 3.05 -0.15 3.55 1.05 4.1 1.3 5.25 1.6 6.3 1.15 7.45 -0.85 13.4 -2.8 14.95 -3.75 15.7 -4.35 15.25 -5.1 15.15 -5.55 13.95 -6.35 11.35 -4.75 5.55" fill="#201f1f" fill-rule="evenodd" stroke="none"/>
    <path d="M-4.75 5.55 Q-6.35 11.35 -5.55 13.95 -5.1 15.15 -4.35 15.25 -3.75 15.7 -2.8 14.95 -0.85 13.4 1.15 7.45 1.6 6.3 1.3 5.25 1.05 4.1 -0.15 3.55 -1.2 3.05 -2.55 3.55 -4.2 4.05 -4.75 5.55 Z" fill="none" stroke="#000000" stroke-linecap="butt" stroke-linejoin="miter-clip" stroke-miterlimit="3.78125" stroke-width="0.9500000000000001"/>
    <path d="M1.95 6.3 L1.2 9.6 -0.45 9.75 -0.9 10.6 Q-2.95 10.4 -4.7 9.4 L-4.55 8.45 -5.95 7.25 -4.45 3.9 1.95 6.3" fill="#7e7467" fill-rule="evenodd" stroke="none"/>
    <path d="M-5.5 3.5 L-4.45 3.9 1.95 6.3 1.2 9.6 -0.45 9.75 -0.9 10.6 Q-2.95 10.4 -4.7 9.4 L-4.55 8.45 -5.95 7.25 -4.45 3.9" fill="none" stroke="#544f46" stroke-linecap="round" stroke-linejoin="round" stroke-width="0.9500000000000001"/>
    <path d="M3.4 1.75 Q2.85 3.4 1.25 3.95 L-1.05 4.05 Q-2.8 3.4 -3.3 1.75 -3.7 0.65 -3.35 -0.5 -2.25 -3.85 1.15 -2.7 2.65 -2.2 3.25 -1.15 3.9 0.05 3.4 1.75" fill="#201f1f" fill-rule="evenodd" stroke="none"/>
    <path d="M3.4 1.75 Q2.85 3.4 1.25 3.95 L-1.05 4.05 Q-2.8 3.4 -3.3 1.75 -3.7 0.65 -3.35 -0.5 -2.25 -3.85 1.15 -2.7 2.65 -2.2 3.25 -1.15 3.9 0.05 3.4 1.75 Z" fill="none" stroke="#000000" stroke-linecap="round" stroke-linejoin="round" stroke-width="0.9500000000000001"/>
    <path d="M-3.4 7.15 L-0.7 8.05 -1.25 8.65 -3.3 8.0 -3.4 7.15" fill="#222120" fill-rule="evenodd" stroke="none"/>
    <path d="M-3.4 7.15 L-3.3 8.0 -1.25 8.65 -0.7 8.05" fill="none" stroke="#222120" stroke-linecap="round" stroke-linejoin="round" stroke-width="0.9500000000000001"/>
    <path d="M-6.6 1.05 L-6.2 3.7 -7.1 3.6 -7.35 2.55 -6.6 1.05" fill="#222120" fill-rule="evenodd" stroke="none"/>
    <path d="M-6.6 1.05 L-7.35 2.55 -7.1 3.6 -6.2 3.7 -6.6 1.05 Z" fill="none" stroke="#222120" stroke-linecap="round" stroke-linejoin="round" stroke-width="1.25"/>
    <path d="M-2.3 -0.8 L0.4 0.1 -2.0 7.6 -3.4 7.15 -5.15 8.0 Q-6.15 4.55 -6.6 1.05 L-4.85 -2.1 Q-4.4 -2.85 -4.05 -2.8 L-3.25 -2.55 -2.3 -0.8" fill="url(#gradient0)" fill-rule="evenodd" stroke="none"/>
    <path d="M-3.4 7.15 L-2.3 -0.8 3.1 0.95 -0.7 8.05 -3.4 7.15" fill="#ac9f8d" fill-rule="evenodd" stroke="none"/>
    <path d="M5.45 4.95 L5.15 6.6 4.4 7.35 3.5 6.9 5.45 4.95" fill="#222120" fill-rule="evenodd" stroke="none"/>
    <path d="M5.45 4.95 L5.15 6.6 4.4 7.35 3.5 6.9 5.45 4.95 Z" fill="none" stroke="#222120" stroke-linecap="round" stroke-linejoin="round" stroke-width="1.25"/>
    <path d="M3.1 0.95 L4.9 0.05 5.7 0.35 5.95 1.45 5.45 4.95 Q3.1 7.5 0.2 9.75 L-0.7 8.05 -2.15 7.55 0.4 0.1 3.1 0.95" fill="url(#gradient1)" fill-rule="evenodd" stroke="none"/>
    <path d="M2.25 7.85 L1.1 5.3" fill="none" stroke="#756a5c" stroke-linecap="round" stroke-linejoin="round" stroke-width="0.9500000000000001"/>
    <path d="M3.1 0.95 L-2.3 -0.8" fill="none" stroke="#544f46" stroke-linecap="round" stroke-linejoin="round" stroke-width="0.9500000000000001"/>
    <path d="M-5.15 8.0 L-3.4 7.15 -0.7 8.05 0.1 9.7" fill="none" stroke="#544f46" stroke-linecap="round" stroke-linejoin="round" stroke-width="0.9500000000000001"/>
    <path d="M-5.75 5.25 L-3.35 3.9" fill="none" stroke="#756a5c" stroke-linecap="round" stroke-linejoin="round" stroke-width="0.9500000000000001"/>
    <path d="M-3.35 3.9 L1.1 5.3" fill="none" stroke="#877b6a" stroke-linecap="round" stroke-linejoin="round" stroke-width="0.9500000000000001"/>
    <path d="M2.9 7.15 L1.8 4.6" fill="none" stroke="#d0afab" stroke-linecap="round" stroke-linejoin="round" stroke-width="0.9500000000000001"/>
    <path d="M0.1 9.7 Q3.1 7.5 5.45 4.95 L5.95 1.45 5.7 0.35 4.9 0.05 3.1 0.95" fill="none" stroke="#222120" stroke-linecap="round" stroke-linejoin="round" stroke-width="0.9500000000000001"/>
    <path d="M-5.8 4.3 Q-4.6 3.55 -3.35 2.9" fill="none" stroke="#d0afab" stroke-linecap="round" stroke-linejoin="round" stroke-width="0.9500000000000001"/>
    <path d="M-2.3 -0.8 L-3.25 -2.55 -4.05 -2.8 Q-4.4 -2.85 -4.85 -2.1 L-6.6 1.05 Q-6.15 4.55 -5.15 8.0" fill="none" stroke="#222120" stroke-linecap="round" stroke-linejoin="round" stroke-width="0.9500000000000001"/>
    <path d="M-3.35 2.9 L1.8 4.6" fill="none" stroke="#f6cfca" stroke-linecap="round" stroke-linejoin="round" stroke-width="0.9500000000000001"/>
  </g>
  <defs>
    <linearGradient gradientTransform="matrix(8.0E-4, 4.0E-4, -4.0E-4, 8.0E-4, -3.7, 2.7)" gradientUnits="userSpaceOnUse" id="gradient0" spreadMethod="pad" x1="-819.2" x2="819.2">
      <stop offset="0.0" stop-color="#9b8c74"/>
      <stop offset="0.7058823529411765" stop-color="#a2947f"/>
      <stop offset="1.0" stop-color="#ac9f8d"/>
    </linearGradient>
    <linearGradient gradientTransform="matrix(-8.0E-4, -4.0E-4, -4.0E-4, 8.0E-4, 2.2, 4.65)" gradientUnits="userSpaceOnUse" id="gradient1" spreadMethod="pad" x1="-819.2" x2="819.2">
      <stop offset="0.0" stop-color="#9b8c74"/>
      <stop offset="0.7058823529411765" stop-color="#a2947f"/>
      <stop offset="1.0" stop-color="#ac9f8d"/>
    </linearGradient>
  </defs>
</svg>
