<?xml version="1.0" encoding="UTF-8" standalone="no"?>
<svg xmlns:xlink="http://www.w3.org/1999/xlink" height="19.45px" width="24.25px" xmlns="http://www.w3.org/2000/svg">
  <g transform="matrix(1.0, 0.0, 0.0, 1.0, 12.5, 17.0)">
    <path d="M-3.15 -1.5 Q-4.65 -2.75 -4.8 -3.5 L-9.35 -4.25 Q-8.9 -6.55 -11.15 -8.25 -12.75 -9.05 -11.3 -10.4 -8.35 -11.2 -8.2 -11.85 L-7.45 -13.15 Q-6.95 -13.75 -5.35 -14.35 L-2.45 -15.2 Q-4.6 -13.7 -4.5 -11.85 -2.85 -11.3 -3.6 -10.0 L-4.5 -8.8 Q-5.6 -6.35 -3.65 -4.45 L-2.4 -3.35 0.05 -4.15 2.35 -1.15 -0.9 -1.15 -3.15 -1.5" fill="#453f2f" fill-rule="evenodd" stroke="none"/>
    <path d="M8.25 -10.9 L10.65 -9.4 7.3 -9.25 Q6.8 -10.0 8.25 -10.9" fill="#564b39" fill-rule="evenodd" stroke="none"/>
    <path d="M2.6 -15.75 L3.45 -15.5 Q4.5 -15.2 5.5 -14.35 L2.55 -10.95 Q1.25 -9.6 1.5 -8.8 L3.65 -8.75 Q2.25 -8.2 2.1 -6.2 L3.45 -3.8 6.2 -3.05 Q7.2 -2.35 8.6 -2.55 L9.5 -2.55 Q11.25 -2.2 10.45 1.15 5.75 0.6 2.35 -1.15 L0.05 -4.15 -2.4 -3.35 -3.65 -4.45 Q-5.6 -6.35 -4.5 -8.8 L-3.6 -10.0 -1.7 -10.0 Q1.4 -13.15 2.6 -15.75" fill="#5e563f" fill-rule="evenodd" stroke="none"/>
    <path d="M-2.45 -15.2 L-1.85 -16.4 Q-0.8 -16.6 0.1 -16.4 L2.6 -15.75 Q1.4 -13.15 -1.7 -10.0 L-3.6 -10.0 Q-2.85 -11.3 -4.5 -11.85 -4.6 -13.7 -2.45 -15.2 M5.5 -14.35 L6.4 -13.4 7.3 -11.65 8.25 -10.9 Q6.8 -10.0 7.3 -9.25 L10.65 -9.4 Q11.5 -8.3 11.15 -7.8 10.8 -7.3 10.3 -7.5 L8.8 -7.45 8.05 -7.3 Q6.2 -6.95 4.35 -5.7 5.05 -3.85 6.2 -3.05 L3.45 -3.8 2.1 -6.2 Q2.25 -8.2 3.65 -8.75 L1.5 -8.8 Q1.25 -9.6 2.55 -10.95 L5.5 -14.35" fill="#4d4433" fill-rule="evenodd" stroke="none"/>
    <path d="M2.35 -1.15 L3.0 0.35 Q0.3 3.1 -3.15 0.3 L-3.15 -1.5 -0.9 -1.15 2.35 -1.15" fill="#333333" fill-rule="evenodd" stroke="none"/>
    <path d="M8.8 -7.45 Q10.25 -5.85 9.5 -2.55 L8.6 -2.55 Q7.2 -2.35 6.2 -3.05 5.05 -3.85 4.35 -5.7 6.2 -6.95 8.05 -7.3 L8.8 -7.45" fill="url(#gradient0)" fill-rule="evenodd" stroke="none"/>
    <path d="M2.35 -1.15 L3.0 0.35 Q0.3 3.1 -3.15 0.3 L-3.15 -1.5 Q-4.65 -2.75 -4.8 -3.5 L-9.35 -4.25 Q-8.9 -6.55 -11.15 -8.25 -12.75 -9.05 -11.3 -10.4 -8.35 -11.2 -8.2 -11.85 L-7.45 -13.15 Q-6.95 -13.75 -5.35 -14.35 L-2.45 -15.2 M-3.15 -1.5 L-0.9 -1.15 2.35 -1.15" fill="none" stroke="#232018" stroke-linecap="round" stroke-linejoin="round" stroke-width="1.0"/>
    <path d="M-2.45 -15.2 Q-4.6 -13.7 -4.5 -11.85 -2.85 -11.3 -3.6 -10.0 L-4.5 -8.8 Q-5.6 -6.35 -3.65 -4.45 L-2.4 -3.35 0.05 -4.15 2.35 -1.15" fill="none" stroke="#2d2720" stroke-linecap="round" stroke-linejoin="round" stroke-width="1.0"/>
    <path d="M-2.45 -15.2 L-1.85 -16.4 Q-0.8 -16.6 0.1 -16.4 L2.6 -15.75 M5.5 -14.35 L6.4 -13.4 7.3 -11.65 8.25 -10.9 M10.65 -9.4 Q11.5 -8.3 11.15 -7.8 10.8 -7.3 10.3 -7.5 L8.8 -7.45 8.05 -7.3 Q6.2 -6.95 4.35 -5.7 5.05 -3.85 6.2 -3.05" fill="none" stroke="#28231c" stroke-linecap="round" stroke-linejoin="round" stroke-width="1.0"/>
    <path d="M2.6 -15.75 L3.45 -15.5 Q4.5 -15.2 5.5 -14.35 L2.55 -10.95 Q1.25 -9.6 1.5 -8.8 L3.65 -8.75 Q2.25 -8.2 2.1 -6.2 L3.45 -3.8 6.2 -3.05 Q7.2 -2.35 8.6 -2.55 L9.5 -2.55 Q11.25 -2.2 10.45 1.15 5.75 0.6 2.35 -1.15 M8.25 -10.9 L10.65 -9.4 7.3 -9.25 Q6.8 -10.0 8.25 -10.9 M-3.6 -10.0 L-1.7 -10.0 Q1.4 -13.15 2.6 -15.75" fill="none" stroke="#3d3429" stroke-linecap="round" stroke-linejoin="round" stroke-width="1.0"/>
    <path d="M8.8 -7.45 Q10.25 -5.85 9.5 -2.55" fill="none" stroke="#211d1b" stroke-linecap="round" stroke-linejoin="round" stroke-width="1.0"/>
    <path d="M7.25 -0.05 Q4.25 2.0 -0.4 1.95 -5.05 1.95 -7.05 -2.45 -6.55 -4.3 -4.85 -3.45 -3.4 -0.35 -0.2 -0.1 3.0 0.15 5.45 -1.65 7.3 -1.35 7.25 -0.05" fill="#91694f" fill-rule="evenodd" stroke="none"/>
    <path d="M7.25 -0.05 Q4.25 2.0 -0.4 1.95 -5.05 1.95 -7.05 -2.45 -6.55 -4.3 -4.85 -3.45 -3.4 -0.35 -0.2 -0.1 3.0 0.15 5.45 -1.65 7.3 -1.35 7.25 -0.05 Z" fill="none" stroke="#4c3629" stroke-linecap="round" stroke-linejoin="round" stroke-width="1.0"/>
  </g>
  <defs>
    <linearGradient gradientTransform="matrix(0.0033, 0.0, 0.0, 0.0031, 7.05, -5.0)" gradientUnits="userSpaceOnUse" id="gradient0" spreadMethod="pad" x1="-819.2" x2="819.2">
      <stop offset="0.0" stop-color="#917c69"/>
      <stop offset="1.0" stop-color="#d5b9a3"/>
    </linearGradient>
  </defs>
</svg>
