<?xml version="1.0" encoding="UTF-8" standalone="no"?>
<svg xmlns:ffdec="https://www.free-decompiler.com/flash" xmlns:xlink="http://www.w3.org/1999/xlink" ffdec:objectType="shape" height="21.45px" width="13.25px" xmlns="http://www.w3.org/2000/svg">
  <g transform="matrix(1.0, 0.0, 0.0, 1.0, 7.8, 4.55)">
    <path d="M-0.55 9.95 L-1.35 14.25 Q-1.7 16.1 -3.6 16.4 L-4.85 16.4 -5.4 16.3 -7.0 12.5 -5.85 11.25 -4.9 8.5 Q-2.9 9.85 -0.55 9.95" fill="#414141" fill-rule="evenodd" stroke="none"/>
    <path d="M-0.9 -0.95 Q-1.35 -1.4 -1.95 -1.4 -2.55 -1.4 -2.95 -0.95 -3.4 -0.55 -3.4 0.05 L-2.95 1.1 Q-2.55 1.5 -1.95 1.5 -1.35 1.5 -0.9 1.1 -0.5 0.65 -0.5 0.05 -0.5 -0.55 -0.9 -0.95 -0.5 -0.55 -0.5 0.05 -0.5 0.65 -0.9 1.1 -1.35 1.5 -1.95 1.5 -2.55 1.5 -2.95 1.1 L-3.4 0.05 Q-3.4 -0.55 -2.95 -0.95 -2.55 -1.4 -1.95 -1.4 -1.35 -1.4 -0.9 -0.95 M-4.9 8.5 L-5.45 8.15 -6.8 6.9 -7.3 6.35 Q-7.5 1.05 -5.2 -1.95 -4.05 -3.4 -2.85 -3.85 -0.25 -4.45 2.4 -3.3 L4.55 -2.05 Q5.25 1.1 4.75 4.25 L4.1 6.75 Q2.55 6.8 0.95 8.35 L-0.3 9.95 -0.55 9.95 Q-2.9 9.85 -4.9 8.5 M-1.9 3.55 Q-2.45 2.95 -3.3 2.95 -4.15 2.95 -4.7 3.55 -5.3 4.1 -5.3 4.95 -5.3 5.8 -4.7 6.35 -4.15 6.95 -3.3 6.95 -2.45 6.95 -1.9 6.35 -1.3 5.8 -1.3 4.95 -1.3 4.1 -1.9 3.55 -1.3 4.1 -1.3 4.95 -1.3 5.8 -1.9 6.35 -2.45 6.95 -3.3 6.95 -4.15 6.95 -4.7 6.35 -5.3 5.8 -5.3 4.95 -5.3 4.1 -4.7 3.55 -4.15 2.95 -3.3 2.95 -2.45 2.95 -1.9 3.55" fill="#596470" fill-rule="evenodd" stroke="none"/>
    <path d="M-0.9 -0.95 Q-0.5 -0.55 -0.5 0.05 -0.5 0.65 -0.9 1.1 -1.35 1.5 -1.95 1.5 -2.55 1.5 -2.95 1.1 L-3.4 0.05 Q-3.4 -0.55 -2.95 -0.95 -2.55 -1.4 -1.95 -1.4 -1.35 -1.4 -0.9 -0.95 M-1.9 3.55 Q-1.3 4.1 -1.3 4.95 -1.3 5.8 -1.9 6.35 -2.45 6.95 -3.3 6.95 -4.15 6.95 -4.7 6.35 -5.3 5.8 -5.3 4.95 -5.3 4.1 -4.7 3.55 -4.15 2.95 -3.3 2.95 -2.45 2.95 -1.9 3.55" fill="none" stroke="#3a4048" stroke-linecap="round" stroke-linejoin="round" stroke-width="1.05"/>
    <path d="M-4.9 8.5 Q-2.9 9.85 -0.55 9.95" fill="none" stroke="#292d33" stroke-linecap="round" stroke-linejoin="round" stroke-width="1.05"/>
    <path d="M-4.9 8.5 L-5.45 8.15 -6.8 6.9 -7.3 6.35 Q-7.5 1.05 -5.2 -1.95 -4.05 -3.4 -2.85 -3.85 -0.25 -4.45 2.4 -3.3 L4.55 -2.05 Q5.25 1.1 4.75 4.25 L4.1 6.75 Q2.55 6.8 0.95 8.35 L-0.3 9.95 -0.55 9.95" fill="none" stroke="#2a3035" stroke-linecap="round" stroke-linejoin="round" stroke-width="1.05"/>
    <path d="M-0.55 9.95 L-1.35 14.25 Q-1.7 16.1 -3.6 16.4 L-4.85 16.4 -5.4 16.3 -7.0 12.5 -5.85 11.25 -4.9 8.5" fill="none" stroke="#232323" stroke-linecap="round" stroke-linejoin="round" stroke-width="1.05"/>
  </g>
</svg>
