<?xml version="1.0" encoding="UTF-8" standalone="no"?>
<svg xmlns:xlink="http://www.w3.org/1999/xlink" height="23.15px" width="15.2px" xmlns="http://www.w3.org/2000/svg">
  <g transform="matrix(1.0, 0.0, 0.0, 1.0, 7.0, 2.15)">
    <path d="M-3.5 1.75 Q-4.45 -0.5 -3.6 -1.2 L-3.45 -1.3 Q-2.45 -2.05 0.0 -1.25 L1.45 -0.65 Q2.65 0.05 2.75 0.9 2.75 1.8 1.6 2.95 L0.55 3.9 Q-1.65 5.55 -3.1 2.6 L-3.5 1.75 M5.65 14.15 Q6.7 13.8 7.05 14.9 8.05 16.5 7.55 18.3 7.5 18.9 6.75 19.05 L6.4 19.1 4.75 19.05 3.95 18.2 3.55 17.4 Q3.25 16.75 3.45 16.15 L3.5 16.0 Q3.75 15.25 4.7 14.6 5.2 14.25 5.65 14.15 M3.15 14.85 L3.05 15.1 Q2.55 15.55 -0.9 12.15 -4.35 8.75 -6.5 4.75 L-5.55 2.8 -4.1 3.75 -2.8 4.35 -1.45 7.3 0.15 10.15 1.15 11.9 2.1 13.6 Q2.4 14.35 2.8 14.7 L3.15 14.85" fill="#737373" fill-rule="evenodd" stroke="none"/>
    <path d="M1.6 2.95 L4.65 9.85 4.8 10.15 4.95 10.6 Q5.45 12.05 4.85 13.15 L4.35 13.8 3.6 14.6 3.15 14.85 2.8 14.7 Q2.4 14.35 2.1 13.6 L1.15 11.9 0.15 10.15 -1.45 7.3 -2.8 4.35 -3.35 2.6 -3.5 1.75 -3.1 2.6 Q-1.65 5.55 0.55 3.9 L1.6 2.95" fill="#273f37" fill-rule="evenodd" stroke="none"/>
    <path d="M4.85 13.15 L5.65 14.15 Q5.2 14.25 4.7 14.6 3.75 15.25 3.5 16.0 3.4 15.3 3.6 14.6 L4.35 13.8 4.85 13.15" fill="#13112b" fill-rule="evenodd" stroke="none"/>
    <path d="M6.75 19.05 Q6.35 20.55 5.8 20.5 5.25 20.45 4.6 20.0 3.9 19.5 3.95 18.2 L4.75 19.05 6.4 19.1 6.75 19.05" fill="#3c3c3c" fill-rule="evenodd" stroke="none"/>
    <path d="M4.85 13.15 L5.65 14.15 Q6.7 13.8 7.05 14.9 8.05 16.5 7.55 18.3 7.5 18.9 6.75 19.05 6.35 20.55 5.8 20.5 5.25 20.45 4.6 20.0 3.9 19.5 3.95 18.2 L3.55 17.4 Q3.25 16.75 3.45 16.15 L3.5 16.0 Q3.4 15.3 3.6 14.6 M5.65 14.15 Q5.2 14.25 4.7 14.6 3.75 15.25 3.5 16.0 M6.75 19.05 L6.4 19.1 4.75 19.05 3.95 18.2" fill="none" stroke="#000000" stroke-linecap="round" stroke-linejoin="round" stroke-width="1.0"/>
    <path d="M-3.5 1.75 Q-4.45 -0.5 -3.6 -1.2 L-3.45 -1.3 Q-2.45 -2.05 0.0 -1.25 L1.45 -0.65 Q2.65 0.05 2.75 0.9 2.75 1.8 1.6 2.95 L0.55 3.9 Q-1.65 5.55 -3.1 2.6 L-3.5 1.75 -3.35 2.6 -2.8 4.35 -1.45 7.3 0.15 10.15 1.15 11.9 2.1 13.6 Q2.4 14.35 2.8 14.7 L3.15 14.85 3.05 15.1 Q2.55 15.55 -0.9 12.15 -4.35 8.75 -6.5 4.75 L-5.55 2.8 -4.1 3.75 -2.8 4.35" fill="none" stroke="#141c1f" stroke-linecap="round" stroke-linejoin="round" stroke-width="1.0"/>
    <path d="M1.6 2.95 L4.65 9.85 4.8 10.15 4.95 10.6 Q5.45 12.05 4.85 13.15 L4.35 13.8 3.6 14.6 3.15 14.85" fill="none" stroke="#1e2f27" stroke-linecap="round" stroke-linejoin="round" stroke-width="1.0"/>
  </g>
</svg>
