<?xml version="1.0" encoding="UTF-8" standalone="no"?>
<svg xmlns:xlink="http://www.w3.org/1999/xlink" height="22.05px" width="13.8px" xmlns="http://www.w3.org/2000/svg">
  <g transform="matrix(1.0, 0.0, 0.0, 1.0, 4.5, 0.85)">
    <path d="M-3.8 4.85 L1.35 2.15 4.45 2.9 5.7 6.2 1.1 4.95 -3.25 7.3 -3.8 4.85 M6.9 10.8 L5.9 11.2 6.9 10.8 M8.6 17.95 L8.15 20.15 Q6.25 22.1 3.55 16.85 L3.55 14.75 4.1 14.8 Q5.85 14.9 6.85 16.85 7.8 18.75 8.6 17.95" fill="#333333" fill-rule="evenodd" stroke="none"/>
    <path d="M4.45 2.9 L1.35 2.15 -3.8 4.85 -4.0 1.95 Q-2.2 0.05 -0.65 -0.3 0.95 -0.6 2.85 0.55 L4.45 2.9 M-3.25 7.3 L1.1 4.95 5.7 6.2 6.9 9.45 6.9 10.8 5.9 11.2 1.3 11.2 Q-0.4 10.4 -2.15 9.55 -2.9 8.45 -3.25 7.3" fill="#222222" fill-rule="evenodd" stroke="none"/>
    <path d="M5.9 11.2 L8.6 16.0 Q8.95 16.75 8.7 17.7 L8.6 17.95 Q7.8 18.75 6.85 16.85 5.85 14.9 4.1 14.8 L3.55 14.75 Q2.25 14.6 1.9 13.95 1.45 13.15 1.3 11.2 L5.9 11.2" fill="#1d1d1d" fill-rule="evenodd" stroke="none"/>
    <path d="M4.45 2.9 L1.35 2.15 -3.8 4.85 -3.25 7.3 1.1 4.95 5.7 6.2 4.45 2.9 2.85 0.55 Q0.95 -0.6 -0.65 -0.3 -2.2 0.05 -4.0 1.95 L-3.8 4.85 M6.9 10.8 L5.9 11.2 8.6 16.0 Q8.95 16.75 8.7 17.7 L8.6 17.95 8.15 20.15 Q6.25 22.1 3.55 16.85 L3.55 14.75 Q2.25 14.6 1.9 13.95 1.45 13.15 1.3 11.2 -0.4 10.4 -2.15 9.55 -2.9 8.45 -3.25 7.3 M6.9 10.8 L5.9 11.2 1.3 11.2 M5.7 6.2 L6.9 9.45 6.9 10.8 M8.6 17.95 Q7.8 18.75 6.85 16.85 5.85 14.9 4.1 14.8 L3.55 14.75" fill="none" stroke="#000000" stroke-linecap="round" stroke-linejoin="round" stroke-width="1.0"/>
  </g>
</svg>
