<?xml version="1.0" encoding="UTF-8" standalone="no"?>
<svg xmlns:ffdec="https://www.free-decompiler.com/flash" xmlns:xlink="http://www.w3.org/1999/xlink" ffdec:objectType="shape" height="27.25px" width="19.5px" xmlns="http://www.w3.org/2000/svg">
  <g transform="matrix(1.0, 0.0, 0.0, 1.0, 11.15, 8.95)">
    <path d="M-2.15 -1.65 L0.75 -1.05 0.45 0.9 0.6 2.5 0.4 5.35 Q-0.25 8.5 -2.05 14.25 L-3.0 15.35 -3.75 14.1 -4.4 6.05 -3.5 4.25 -2.15 -1.65" fill="#5f6149" fill-rule="evenodd" stroke="none"/>
    <path d="M-2.15 -1.65 L-3.5 4.25 -4.4 6.05 -3.75 14.1 -3.0 15.35 -2.05 14.25 Q-0.25 8.5 0.4 5.35 L0.6 2.5 0.45 0.9 0.75 -1.05 -2.15 -1.65 Z" fill="none" stroke="#403f3f" stroke-linecap="round" stroke-linejoin="round" stroke-width="1.0"/>
    <path d="M-1.2 -3.9 L-1.45 -1.4 Q-1.5 -0.75 0.4 0.25 2.3 1.25 2.3 1.5 L2.8 3.55 Q3.2 5.35 2.9 5.7 1.5 7.4 -2.05 6.6 -4.2 6.15 -5.25 5.0 -6.85 3.15 -6.15 -0.5 L-3.15 -2.7 -1.2 -3.9" fill="#605c82" fill-rule="evenodd" stroke="none"/>
    <path d="M-1.2 -3.9 L-3.15 -2.7 -6.15 -0.5 Q-6.85 3.15 -5.25 5.0 -4.2 6.15 -2.05 6.6 1.5 7.4 2.9 5.7 3.2 5.35 2.8 3.55 L2.3 1.5 Q2.3 1.25 0.4 0.25 -1.5 -0.75 -1.45 -1.4 L-1.2 -3.9 Z" fill="none" stroke="#353e40" stroke-linecap="butt" stroke-linejoin="miter-clip" stroke-miterlimit="15.12109375" stroke-width="1.0"/>
    <path d="M-6.7 0.3 Q-6.4 0.75 -4.65 -0.4 -2.85 -1.6 -1.9 -3.05 L-0.8 -4.85 Q-0.45 -4.8 0.75 -3.95 L2.7 -2.45 Q3.4 -1.75 4.2 0.1 4.9 1.85 4.85 2.75 4.9 3.5 3.65 6.3 L3.35 6.9 Q3.2 6.95 3.0 6.25 L1.65 1.55 -1.25 -0.7 -5.65 2.0 -6.7 0.3" fill="#4b6c68" fill-rule="evenodd" stroke="none"/>
    <path d="M-6.7 0.3 L-5.65 2.0 -1.25 -0.7 1.65 1.55 3.0 6.25 Q3.2 6.95 3.35 6.9 L3.65 6.3 Q4.9 3.5 4.85 2.75 4.9 1.85 4.2 0.1 3.4 -1.75 2.7 -2.45 L0.75 -3.95 Q-0.45 -4.8 -0.8 -4.85 L-1.9 -3.05 Q-2.85 -1.6 -4.65 -0.4 -6.4 0.75 -6.7 0.3 Z" fill="none" stroke="#353e40" stroke-linecap="butt" stroke-linejoin="miter-clip" stroke-miterlimit="15.12109375" stroke-width="1.0"/>
    <path d="M0.7 -4.2 L-0.75 -4.75 -1.95 -2.8 -4.15 -2.0 Q-6.3 -0.85 -6.5 0.7 -6.8 2.35 -6.35 3.65 L-5.5 4.85 Q-4.65 5.65 -4.4 7.55 -4.3 7.8 -4.15 10.75 -3.8 15.15 -2.8 14.95 -1.85 14.85 -0.5 7.3 -0.4 7.05 0.4 6.9 L1.15 6.75 2.25 6.4 3.05 6.3 Q3.45 7.2 4.2 5.5 L5.0 3.05 Q5.1 2.75 3.6 -0.95 L2.6 -1.95 Q1.8 -2.45 1.45 -3.05 L0.8 -4.1 0.7 -4.2 Z" fill="none" stroke="#000000" stroke-linecap="butt" stroke-linejoin="miter-clip" stroke-miterlimit="15.12109375" stroke-opacity="0.27058825" stroke-width="1.0"/>
    <path d="M-1.95 3.4 Q-1.1 3.35 -0.5 3.9 0.1 4.4 0.15 5.25 0.25 6.1 -0.3 6.75 -0.8 7.35 -1.65 7.4 -2.5 7.45 -3.1 6.85 -3.7 6.3 -3.75 5.5 -3.8 4.7 -3.25 4.1 -2.7 3.45 -1.95 3.4" fill="#5aa398" fill-rule="evenodd" stroke="none"/>
    <path d="M-1.2 3.05 Q-0.6 3.05 -0.1 3.5 0.4 4.0 0.4 4.65 0.5 5.4 0.0 5.9 -0.4 6.4 -1.0 6.45 -1.7 6.55 -2.15 6.05 L-2.7 4.9 Q-2.75 4.15 -2.35 3.65 -1.85 3.15 -1.2 3.05" fill="#4b9388" fill-rule="evenodd" stroke="none"/>
    <path d="M-1.15 3.35 Q-0.6 3.3 -0.2 3.7 0.2 4.1 0.25 4.65 L-0.1 5.7 Q-0.4 6.05 -1.0 6.15 L-2.0 5.8 -2.5 4.85 Q-2.55 4.25 -2.15 3.75 -1.75 3.35 -1.15 3.35" fill="#387b70" fill-opacity="0.57254905" fill-rule="evenodd" stroke="none"/>
    <path d="M-1.05 3.55 Q-0.55 3.5 -0.2 3.9 L0.15 4.6 Q0.2 5.1 -0.15 5.5 L-0.9 5.85 Q-1.9 5.95 -2.1 4.75 L-1.8 3.95 Q-1.45 3.6 -1.05 3.55" fill="#74a69e" fill-opacity="0.56078434" fill-rule="evenodd" stroke="none"/>
    <path d="M-1.0 3.65 Q-0.05 3.65 0.05 4.55 0.05 5.45 -0.8 5.55 -1.65 5.6 -1.8 4.7 L-1.55 3.95 -1.0 3.65" fill="#9ec2bc" fill-rule="evenodd" stroke="none"/>
    <path d="M-0.85 4.1 Q-0.25 4.15 -0.25 4.6 -0.15 5.1 -0.75 5.2 -1.25 5.25 -1.3 4.65 -1.35 4.15 -0.85 4.1" fill="#d3e3e0" fill-rule="evenodd" stroke="none"/>
    <path d="M-2.2 3.2 L-3.05 3.75 Q-3.9 4.5 -3.6 5.25 -3.35 6.3 -2.8 6.75 L-1.55 7.4 -0.7 7.45 -0.05 6.55 Q0.25 5.8 0.15 5.25 L0.05 4.2 -0.45 3.6 Q-0.7 3.45 -1.45 3.25 L-2.2 3.2 Z" fill="none" stroke="#324744" stroke-linecap="butt" stroke-linejoin="miter-clip" stroke-miterlimit="15.12109375" stroke-width="1.0"/>
  </g>
</svg>
