<?xml version="1.0" encoding="UTF-8" standalone="no"?>
<svg xmlns:ffdec="https://www.free-decompiler.com/flash" xmlns:xlink="http://www.w3.org/1999/xlink" ffdec:objectType="shape" height="22.1px" width="14.9px" xmlns="http://www.w3.org/2000/svg">
  <g transform="matrix(1.0, 0.0, 0.0, 1.0, 9.3, 5.55)">
    <path d="M-7.65 4.0 L2.85 5.25 Q3.65 5.0 2.65 9.2 1.7 13.5 -0.35 14.7 -1.85 15.65 -2.75 15.9 -4.4 16.35 -5.45 15.45 -5.65 15.3 -6.7 15.05 -7.55 14.9 -7.65 14.35 -8.25 11.65 -8.05 7.6 L-7.65 4.0" fill="#4c4c4c" fill-rule="evenodd" stroke="none"/>
    <path d="M-7.65 4.0 L-8.05 7.6 Q-8.25 11.65 -7.65 14.35 -7.55 14.9 -6.7 15.05 -5.65 15.3 -5.45 15.45 -4.4 16.35 -2.75 15.9 -1.85 15.65 -0.35 14.7 1.7 13.5 2.65 9.2 3.65 5.0 2.85 5.25 L-7.65 4.0 Z" fill="none" stroke="#343434" stroke-linecap="round" stroke-linejoin="round" stroke-width="1.0"/>
    <path d="M-5.05 -4.95 L-1.1 -4.9 3.2 -4.05 4.5 -2.05 Q5.2 -0.75 5.05 0.6 L4.45 4.1 1.8 5.45 Q-2.2 6.55 -6.4 4.65 L-8.7 2.75 -8.5 -0.9 Q-7.3 -3.75 -5.05 -4.95" fill="#8e8984" fill-rule="evenodd" stroke="none"/>
    <path d="M-5.05 -4.95 L-1.1 -4.9 3.2 -4.05 4.5 -2.05 Q5.2 -0.75 5.05 0.6 L4.45 4.1 1.8 5.45 Q-2.2 6.55 -6.4 4.65 L-8.7 2.75 -8.5 -0.9 Q-7.3 -3.75 -5.05 -4.95 Z" fill="none" stroke="#45423f" stroke-linecap="round" stroke-linejoin="round" stroke-width="1.0"/>
    <path d="M-0.55 5.2 L0.35 1.2 4.1 -1.25 5.05 0.6 4.45 4.1 2.1 5.5 -0.55 5.2" fill="#414140" fill-opacity="0.33333334" fill-rule="evenodd" stroke="none"/>
    <path d="M-8.45 -1.0 L-8.45 -1.35 -6.65 -2.15 -4.05 0.55 -4.2 5.05 -6.4 4.65 -8.9 2.8 -8.45 -1.0" fill="#414140" fill-opacity="0.27450982" fill-rule="evenodd" stroke="none"/>
    <path d="M4.25 -0.85 L0.4 1.2 -0.2 4.75" fill="none" stroke="#575756" stroke-linecap="round" stroke-linejoin="round" stroke-width="1.0"/>
    <path d="M-7.35 -2.0 L-4.45 0.55 -4.65 4.45" fill="none" stroke="#575756" stroke-linecap="round" stroke-linejoin="round" stroke-width="1.0"/>
    <path d="M-4.2 -1.7 L0.25 -1.4 0.75 -1.25" fill="none" stroke="#735f5f" stroke-linecap="round" stroke-linejoin="round" stroke-width="1.0"/>
    <path d="M1.75 12.35 Q1.05 15.05 -3.1 14.9 -7.25 14.7 -8.2 11.95 -6.75 11.35 -5.75 9.75 L-4.45 7.8 -2.45 7.6 Q-1.4 7.75 -1.0 8.6 L0.1 10.8 Q0.85 12.05 1.75 12.35" fill="#716e69" fill-rule="evenodd" stroke="none"/>
    <path d="M1.75 12.35 Q1.05 15.05 -3.1 14.9 -7.25 14.7 -8.2 11.95 -6.75 11.35 -5.75 9.75 L-4.45 7.8 -2.45 7.6 Q-1.4 7.75 -1.0 8.6 L0.1 10.8 Q0.85 12.05 1.75 12.35 Z" fill="none" stroke="#45423f" stroke-linecap="round" stroke-linejoin="round" stroke-width="1.0"/>
    <path d="M-4.95 4.75 Q-2.05 3.55 0.25 5.3 L-0.4 8.65 -1.3 9.7 -4.3 9.4 -4.95 8.1 -4.95 4.75" fill="#827d77" fill-rule="evenodd" stroke="none"/>
    <path d="M-4.95 4.75 L-4.95 8.1 -4.3 9.4 -1.3 9.7 -0.4 8.65 0.25 5.3 Q-2.05 3.55 -4.95 4.75 Z" fill="none" stroke="#45423f" stroke-linecap="round" stroke-linejoin="round" stroke-width="1.0"/>
    <path d="M-5.1 -5.05 L-7.2 -3.45 -8.45 -1.05 -8.8 2.55 -7.75 3.7 -8.2 7.65 -8.15 11.8 Q-8.2 14.5 -7.0 15.3 -6.15 15.9 -4.1 15.65 L-1.95 15.4 0.1 15.55 Q1.35 14.8 1.8 12.25 L2.8 8.15 2.95 6.1 3.0 4.95 4.6 4.2 Q5.0 0.1 4.8 -1.15 L3.6 -3.8" fill="none" stroke="#000000" stroke-linecap="round" stroke-linejoin="round" stroke-opacity="0.13333334" stroke-width="1.0"/>
  </g>
</svg>
