<?xml version="1.0" encoding="UTF-8" standalone="no"?>
<svg xmlns:xlink="http://www.w3.org/1999/xlink" height="22.05px" width="14.15px" xmlns="http://www.w3.org/2000/svg">
  <g transform="matrix(1.0, 0.0, 0.0, 1.0, 4.85, 1.85)">
    <path d="M1.7 10.4 Q2.6 9.5 4.8 9.35 2.6 9.5 1.7 10.4 0.55 10.95 1.1 14.0 -0.5 10.65 1.45 9.05 3.35 7.45 6.1 9.35 L4.8 9.35 6.1 11.85 Q6.0 11.8 5.6 12.25 L5.4 12.4 Q3.7 11.3 2.0 12.95 L1.7 10.4" fill="#222222" fill-rule="evenodd" stroke="none"/>
    <path d="M-1.7 4.4 L-2.1 3.35 -1.7 4.4 M2.0 12.95 Q3.7 11.3 5.4 12.4 L5.6 12.25 Q6.05 11.85 6.1 11.95 L6.1 11.85 6.35 11.8 6.85 12.15 7.45 13.7 8.65 16.8 Q8.95 17.55 8.65 18.45 8.3 19.3 7.35 19.5 L5.7 19.65 4.65 19.2 Q4.2 18.9 3.15 16.9 2.2 14.85 2.0 12.95 M6.1 9.35 Q3.35 7.45 1.45 9.05 -0.5 10.65 1.1 14.0 -5.6 6.2 -4.05 -0.9 0.05 -2.3 2.6 0.45 3.85 1.35 5.15 4.25 6.4 7.1 6.1 9.35 M0.3 4.15 L-0.1 3.1 0.3 4.15 M5.4 12.4 Q7.35 14.65 7.45 13.7 7.35 14.65 5.4 12.4" fill="#f0c468" fill-rule="evenodd" stroke="none"/>
    <path d="M5.6 12.25 Q6.0 11.8 6.1 11.85 L6.1 11.95 Q6.05 11.85 5.6 12.25" fill="#600f06" fill-rule="evenodd" stroke="none"/>
    <path d="M-2.1 3.35 L-1.7 4.4 M2.0 12.95 Q3.7 11.3 5.4 12.4 L5.6 12.25 Q6.0 11.8 6.1 11.85 L6.35 11.8 6.85 12.15 7.45 13.7 8.65 16.8 Q8.95 17.55 8.65 18.45 8.3 19.3 7.35 19.5 L5.7 19.65 4.65 19.2 Q4.2 18.9 3.15 16.9 2.2 14.85 2.0 12.95 M6.1 9.35 Q3.35 7.45 1.45 9.05 -0.5 10.65 1.1 14.0 -5.6 6.2 -4.05 -0.9 0.05 -2.3 2.6 0.45 3.85 1.35 5.15 4.25 6.4 7.1 6.1 9.35 M6.1 11.95 L6.1 11.85 M7.45 13.7 Q7.35 14.65 5.4 12.4 M-0.1 3.1 L0.3 4.15" fill="none" stroke="#805933" stroke-linecap="round" stroke-linejoin="round" stroke-width="1.0"/>
    <path d="M4.8 9.35 Q2.6 9.5 1.7 10.4 L2.0 12.95 M6.1 11.85 L4.8 9.35 6.1 9.35 M1.1 14.0 Q0.55 10.95 1.7 10.4" fill="none" stroke="#151515" stroke-linecap="round" stroke-linejoin="round" stroke-width="1.0"/>
  </g>
</svg>
