<?xml version="1.0" encoding="UTF-8" standalone="no"?>
<svg xmlns:xlink="http://www.w3.org/1999/xlink" height="27.1px" width="21.3px" xmlns="http://www.w3.org/2000/svg">
  <g transform="matrix(1.0, 0.0, 0.0, 1.0, 8.3, 3.3)">
    <path d="M4.45 8.15 L6.1 10.3 9.4 14.55 10.8 16.4 2.9 20.35 -0.4 13.4 4.45 8.15" fill="#666666" fill-rule="evenodd" stroke="none"/>
    <path d="M-3.4 1.8 L-3.25 -2.05 -3.3 -2.05 Q0.1 -4.55 3.35 -1.0 L-1.85 1.75 -3.4 1.8 M6.1 10.3 Q8.1 10.05 9.4 11.85 10.0 12.95 9.4 14.55 L6.1 10.3" fill="#d27e02" fill-rule="evenodd" stroke="none"/>
    <path d="M-1.5 11.1 Q-4.55 10.25 -5.4 4.2 L-4.0 4.65 -3.05 7.7 -1.5 11.1 M6.95 18.75 L10.1 16.95 12.5 21.2 9.4 23.0 6.95 18.75 M6.45 18.9 L8.25 22.0 5.9 23.3 4.1 20.15 6.45 18.9" fill="#333333" fill-rule="evenodd" stroke="none"/>
    <path d="M-3.45 4.5 L-3.4 1.8 -1.85 1.75 4.75 3.4 3.35 -1.0 6.65 1.15 4.75 3.4 3.75 5.4 -2.3 7.5 -3.45 4.5" fill="#996600" fill-rule="evenodd" stroke="none"/>
    <path d="M-3.45 4.5 L-5.4 4.2 -7.3 3.9 -7.8 -2.8 -3.3 -2.05 -3.25 -2.05 -3.4 1.8 -3.45 4.5 M3.75 5.4 L3.9 5.3 4.45 8.15 -0.4 13.4 -1.5 11.1 -3.05 7.7 -2.3 7.5 3.75 5.4 M-4.3 3.2 L-4.3 1.0 -6.4 0.95 -6.45 3.15 -4.3 3.2" fill="#999999" fill-rule="evenodd" stroke="none"/>
    <path d="M-4.3 3.2 L-6.45 3.15 -6.4 0.95 -4.3 1.0 -4.3 3.2" fill="#990000" fill-rule="evenodd" stroke="none"/>
    <path d="M4.75 3.4 L-1.85 1.75 3.35 -1.0 4.75 3.4" fill="#e38902" fill-rule="evenodd" stroke="none"/>
    <path d="M3.75 5.4 L3.9 5.3" fill="none" stroke="#000000" stroke-linecap="round" stroke-linejoin="round" stroke-width="1.0"/>
    <path d="M3.35 -1.0 L6.65 1.15 4.75 3.4 3.75 5.4 M6.1 10.3 Q8.1 10.05 9.4 11.85 10.0 12.95 9.4 14.55 M4.75 3.4 L3.35 -1.0" fill="none" stroke="#653d01" stroke-linecap="round" stroke-linejoin="round" stroke-width="1.0"/>
    <path d="M-3.3 -2.05 L-7.8 -2.8 -7.3 3.9 -5.4 4.2 -3.45 4.5 -3.4 1.8 -3.25 -2.05 -3.3 -2.05 M4.45 8.15 L6.1 10.3 9.4 14.55 10.8 16.4 2.9 20.35 -0.4 13.4 M-1.5 11.1 Q-4.55 10.25 -5.4 4.2 L-4.0 4.65 -3.05 7.7 -2.3 7.5 -3.45 4.5 M6.95 18.75 L10.1 16.95 12.5 21.2 9.4 23.0 6.95 18.75 M6.45 18.9 L8.25 22.0 5.9 23.3 4.1 20.15 6.45 18.9 M-3.05 7.7 L-1.5 11.1 M-2.3 7.5 L3.75 5.4" fill="none" stroke="#1a1a1a" stroke-linecap="round" stroke-linejoin="round" stroke-width="1.0"/>
    <path d="M-4.3 3.2 L-6.45 3.15 -6.4 0.95 -4.3 1.0 -4.3 3.2" fill="none" stroke="#4b0101" stroke-linecap="round" stroke-linejoin="round" stroke-width="1.0"/>
    <path d="M3.9 5.3 L4.45 8.15 M-0.4 13.4 L-1.5 11.1" fill="none" stroke="#2f2f2f" stroke-linecap="round" stroke-linejoin="round" stroke-width="1.0"/>
  </g>
</svg>
