<?xml version="1.0" encoding="UTF-8" standalone="no"?>
<svg xmlns:ffdec="https://www.free-decompiler.com/flash" xmlns:xlink="http://www.w3.org/1999/xlink" ffdec:objectType="shape" height="23.1px" width="15.15px" xmlns="http://www.w3.org/2000/svg">
  <g transform="matrix(1.0, 0.0, 0.0, 1.0, 7.4, 6.95)">
    <path d="M1.45 -2.6 L2.65 -1.85 Q3.75 -0.85 3.25 0.8 2.8 2.45 2.15 3.15 L1.5 3.55 1.85 4.5 2.0 6.35 Q1.7 9.05 0.6 11.25 L0.4 12.25 0.25 13.7 Q-0.45 15.15 -1.4 15.65 -2.45 16.25 -3.35 15.9 -5.0 15.35 -5.55 13.1 -6.05 11.4 -5.85 9.5 -5.45 7.35 -5.4 6.15 -5.25 -0.05 -3.8 -1.65 L-2.25 -3.05 -1.35 -3.3 Q-0.15 -3.8 0.15 -3.05 L1.45 -2.6" fill="#a7825e" fill-rule="evenodd" stroke="none"/>
    <path d="M1.45 -2.6 L2.65 -1.85 Q3.75 -0.85 3.25 0.8 2.8 2.45 2.15 3.15 L1.5 3.55 1.85 4.5 2.0 6.35 Q1.7 9.05 0.6 11.25 L0.4 12.25 0.25 13.7 Q-0.45 15.15 -1.4 15.65 -2.45 16.25 -3.35 15.9 -5.0 15.35 -5.55 13.1 -6.05 11.4 -5.85 9.5 -5.45 7.35 -5.4 6.15 -5.25 -0.05 -3.8 -1.65 L-2.25 -3.05 -1.35 -3.3 Q-0.15 -3.8 0.15 -3.05 L1.45 -2.6 Z" fill="none" stroke="#312820" stroke-linecap="round" stroke-linejoin="round" stroke-width="0.25"/>
    <path d="M1.5 3.55 Q1.5 3.85 0.55 4.2 L-1.6 4.4" fill="none" stroke="#947059" stroke-linecap="round" stroke-linejoin="round" stroke-width="0.25"/>
    <path d="M-2.25 9.4 Q-2.95 7.75 -1.9 6.15" fill="none" stroke="#947059" stroke-linecap="round" stroke-linejoin="round" stroke-width="0.25"/>
    <path d="M-3.95 -0.3 L-4.0 -2.05 Q-4.05 -3.05 -3.6 -3.35 0.9 -4.35 2.65 -2.2 3.7 -0.9 4.0 2.3 L4.25 4.05 Q4.1 4.5 3.1 4.7 2.05 5.05 1.85 5.3 L0.05 4.5 Q-4.05 1.05 -3.95 -0.3" fill="url(#gradient0)" fill-rule="evenodd" stroke="none"/>
    <path d="M-3.95 -0.3 Q-4.05 1.05 0.05 4.5 L1.85 5.3 Q2.05 5.05 3.1 4.7 4.1 4.5 4.25 4.05 L4.0 2.3 Q3.7 -0.9 2.65 -2.2 0.9 -4.35 -3.6 -3.35 -4.05 -3.05 -4.0 -2.05 L-3.95 -0.3 Z" fill="none" stroke="#171717" stroke-linecap="butt" stroke-linejoin="miter-clip" stroke-miterlimit="15.12109375" stroke-width="1.0"/>
    <path d="M5.05 3.55 L4.45 6.85 Q4.05 8.25 2.85 8.75 L2.2 8.75 1.2 8.65 Q-1.1 8.05 -2.75 5.6 -4.4 3.05 -6.6 2.2 -7.15 1.15 -6.7 -0.2 -6.3 -1.5 -5.3 -2.2 L-3.6 -2.35 Q-1.2 -2.2 -1.0 -1.4 -0.85 0.15 0.3 0.85 1.1 1.4 3.05 1.85 L4.0 2.4 Q4.9 3.0 5.05 3.55" fill="url(#gradient1)" fill-rule="evenodd" stroke="none"/>
    <path d="M5.05 3.55 Q4.9 3.0 4.0 2.4 L3.05 1.85 Q1.1 1.4 0.3 0.85 -0.85 0.15 -1.0 -1.4 -1.2 -2.2 -3.6 -2.35 L-5.3 -2.2 Q-6.3 -1.5 -6.7 -0.2 -7.15 1.15 -6.6 2.2 -4.4 3.05 -2.75 5.6 -1.1 8.05 1.2 8.65 L2.2 8.75 2.85 8.75 Q4.05 8.25 4.45 6.85 L5.05 3.55 Z" fill="none" stroke="#1c1515" stroke-linecap="butt" stroke-linejoin="miter-clip" stroke-miterlimit="15.12109375" stroke-width="1.0"/>
  </g>
  <defs>
    <radialGradient cx="0" cy="0" gradientTransform="matrix(0.0044, 0.0017, -0.0095, 0.0242, 0.5, -0.1)" gradientUnits="userSpaceOnUse" id="gradient0" r="819.2" spreadMethod="pad">
      <stop offset="0.0" stop-color="#0f0f10"/>
      <stop offset="1.0" stop-color="#343437"/>
    </radialGradient>
    <radialGradient cx="0" cy="0" gradientTransform="matrix(-0.0111, 0.0027, -0.0024, -0.0119, 4.45, 4.75)" gradientUnits="userSpaceOnUse" id="gradient1" r="819.2" spreadMethod="pad">
      <stop offset="0.0" stop-color="#241818"/>
      <stop offset="1.0" stop-color="#4d3434"/>
    </radialGradient>
  </defs>
</svg>
