<?xml version="1.0" encoding="UTF-8" standalone="no"?>
<svg xmlns:xlink="http://www.w3.org/1999/xlink" height="13.35px" width="18.55px" xmlns="http://www.w3.org/2000/svg">
  <g transform="matrix(1.0, 0.0, 0.0, 1.0, 7.5, 6.6)">
    <path d="M0.9 6.2 L1.45 5.65 Q1.9 5.1 2.1 3.35 2.45 1.6 4.7 -0.05 L5.15 -0.6 Q10.65 0.25 10.55 6.1 L0.9 6.2" fill="#56748f" fill-rule="evenodd" stroke="none"/>
    <path d="M5.15 -0.6 L4.7 -0.05 Q2.45 1.6 2.1 3.35 1.9 5.1 1.45 5.65 L0.9 6.2 -0.55 6.2 -1.4 6.05 -3.45 5.05 Q-4.15 4.4 -4.4 2.95 -4.75 1.15 -4.6 0.0 L-4.25 -1.05 Q-4.05 -2.55 -2.4 -4.65 -0.75 -6.75 1.75 -5.85 4.2 -4.95 5.15 -0.65 L5.15 -0.6 M0.1 3.85 L0.25 3.05 -0.2 2.35 -1.0 2.25 Q-1.5 2.35 -1.7 2.7 L-1.85 3.55 -1.4 4.2 Q-1.0 4.5 -0.5 4.4 L0.1 3.85 -0.5 4.4 Q-1.0 4.5 -1.4 4.2 L-1.85 3.55 -1.7 2.7 Q-1.5 2.35 -1.0 2.25 L-0.2 2.35 0.25 3.05 0.1 3.85" fill="url(#gradient0)" fill-rule="evenodd" stroke="none"/>
    <path d="M-4.25 -1.05 L-4.6 0.0 Q-4.75 1.15 -4.4 2.95 -4.15 4.4 -3.45 5.05 L-1.4 6.05 -5.8 5.85 Q-7.05 5.8 -7.0 4.75 -6.35 0.5 -4.25 -1.05" fill="#6d7b83" fill-rule="evenodd" stroke="none"/>
    <path d="M5.15 -0.6 L5.15 -0.65 Q4.2 -4.95 1.75 -5.85 -0.75 -6.75 -2.4 -4.65 -4.05 -2.55 -4.25 -1.05 M-1.4 6.05 L-0.55 6.2 0.9 6.2" fill="none" stroke="#141b22" stroke-linecap="round" stroke-linejoin="round" stroke-width="1.0"/>
    <path d="M0.1 3.85 L-0.5 4.4 Q-1.0 4.5 -1.4 4.2 L-1.85 3.55 -1.7 2.7 Q-1.5 2.35 -1.0 2.25 L-0.2 2.35 0.25 3.05 0.1 3.85" fill="none" stroke="#131a22" stroke-linecap="round" stroke-linejoin="round" stroke-width="1.0"/>
    <path d="M0.9 6.2 L10.55 6.1" fill="none" stroke="#1b1c1d" stroke-linecap="round" stroke-linejoin="round" stroke-width="1.0"/>
    <path d="M10.55 6.1 Q10.65 0.25 5.15 -0.6" fill="none" stroke="#1d262f" stroke-linecap="round" stroke-linejoin="round" stroke-width="1.0"/>
    <path d="M0.9 6.2 L1.45 5.65 Q1.9 5.1 2.1 3.35 2.45 1.6 4.7 -0.05 L5.15 -0.6" fill="none" stroke="#17222c" stroke-linecap="round" stroke-linejoin="round" stroke-width="1.0"/>
    <path d="M-4.25 -1.05 L-4.6 0.0 Q-4.75 1.15 -4.4 2.95 -4.15 4.4 -3.45 5.05 L-1.4 6.05" fill="none" stroke="#1c1c1c" stroke-linecap="round" stroke-linejoin="round" stroke-width="1.0"/>
    <path d="M-1.4 6.05 L-5.8 5.85 Q-7.05 5.8 -7.0 4.75 -6.35 0.5 -4.25 -1.05" fill="none" stroke="#2a2f33" stroke-linecap="round" stroke-linejoin="round" stroke-width="1.0"/>
  </g>
  <defs>
    <linearGradient gradientTransform="matrix(-9.0E-4, 0.0062, -0.0058, -9.0E-4, 0.15, 0.55)" gradientUnits="userSpaceOnUse" id="gradient0" spreadMethod="pad" x1="-819.2" x2="819.2">
      <stop offset="0.0" stop-color="#3c5265"/>
      <stop offset="1.0" stop-color="#1d2732"/>
    </linearGradient>
  </defs>
</svg>
