<?xml version="1.0" encoding="UTF-8" standalone="no"?>
<svg xmlns:xlink="http://www.w3.org/1999/xlink" height="10.0px" width="17.95px" xmlns="http://www.w3.org/2000/svg">
  <g transform="matrix(1.0, 0.0, 0.0, 1.0, 7.25, 2.65)">
    <path d="M-3.1 1.75 Q-2.7 0.0 -2.0 -1.05 -1.35 -2.1 0.0 -2.15 1.3 -2.2 2.45 -0.5 3.55 1.2 5.5 1.55 L6.1 1.55 4.25 3.3 4.25 4.7 -1.85 4.7 -0.45 3.65 Q-1.95 3.05 -2.7 1.55 L-3.1 1.75" fill="#505050" fill-rule="evenodd" stroke="none"/>
    <path d="M-3.7 6.1 L-4.4 6.55 -4.8 6.85 -6.3 6.85 -6.75 6.85 -5.05 2.5 -4.6 2.35 -3.1 1.75 -2.7 1.55 Q-1.95 3.05 -0.45 3.65 L-1.85 4.7 -3.1 5.6 -3.7 6.1 M-6.3 6.85 L-4.6 2.35 -6.3 6.85 M-4.4 6.55 L-3.1 5.6 -4.4 6.55" fill="#cbcbcb" fill-rule="evenodd" stroke="none"/>
    <path d="M6.1 1.55 L6.45 1.2 7.6 1.4 Q9.05 1.95 10.2 3.35 L10.2 5.7 8.65 6.85 -3.05 6.85 -3.7 6.1 -3.1 5.6 -1.85 4.7 4.25 4.7 4.25 3.3 6.1 1.55" fill="#e1e1e1" fill-rule="evenodd" stroke="none"/>
    <path d="M-3.1 1.75 Q-2.7 0.0 -2.0 -1.05 -1.35 -2.1 0.0 -2.15 1.3 -2.2 2.45 -0.5 3.55 1.2 5.5 1.55 L6.1 1.55" fill="none" stroke="#353535" stroke-linecap="butt" stroke-linejoin="miter-clip" stroke-miterlimit="10.0" stroke-width="1.0"/>
    <path d="M-4.4 6.55 L-4.8 6.85 -6.3 6.85 -6.75 6.85 -5.05 2.5 -4.6 2.35 -3.1 1.75 -2.7 1.55 Q-1.95 3.05 -0.45 3.65 L-1.85 4.7 -3.1 5.6 -4.4 6.55" fill="none" stroke="#5b5b5b" stroke-linecap="round" stroke-linejoin="round" stroke-width="1.0"/>
    <path d="M-4.6 2.35 L-6.3 6.85" fill="none" stroke="#8a8b8b" stroke-linecap="round" stroke-linejoin="round" stroke-width="1.0"/>
    <path d="M6.1 1.55 L6.45 1.2 7.6 1.4 Q9.05 1.95 10.2 3.35 L10.2 5.7 8.65 6.85 -3.05 6.85 -3.7 6.1 M-1.85 4.7 L4.25 4.7 4.25 3.3 6.1 1.55" fill="none" stroke="#737373" stroke-linecap="round" stroke-linejoin="round" stroke-width="1.0"/>
  </g>
</svg>
