<?xml version="1.0" encoding="UTF-8" standalone="no"?>
<svg xmlns:xlink="http://www.w3.org/1999/xlink" height="14.3px" width="7.25px" xmlns="http://www.w3.org/2000/svg">
  <g transform="matrix(1.0, 0.0, 0.0, 1.0, 4.45, 1.95)">
    <path d="M0.55 3.9 L1.0 3.95 Q1.35 3.95 1.6 3.5 L1.8 2.75 1.35 1.15 Q0.8 0.0 0.75 -0.5 L0.7 -0.9 Q1.5 -2.1 2.0 -1.45 2.6 -0.6 2.6 1.3 2.6 1.75 2.2 2.45 L1.9 2.85 Q2.8 3.95 2.8 5.85 L2.55 6.7 1.9 7.1 1.85 7.1 Q0.8 7.1 0.6 5.7 L0.55 4.35 0.55 3.9 M-0.5 -1.3 L-0.3 -0.6 Q-0.3 0.75 -0.7 1.55 L-0.2 3.0 Q-1.0 3.05 -1.65 3.65 L-1.95 4.05 -2.2 4.25 -2.45 4.65 -2.75 4.75 Q-3.55 4.75 -4.45 2.15 -4.45 0.45 -3.2 1.25 L-2.95 1.4 -1.35 -1.65 -0.5 -1.3" fill="#555555" fill-rule="evenodd" stroke="none"/>
    <path d="M0.7 -0.9 L0.75 -0.5 Q0.8 0.0 1.35 1.15 L1.8 2.75 1.6 3.5 Q1.35 3.95 1.0 3.95 L0.55 3.9 Q0.1 3.65 -0.2 3.0 L-0.7 1.55 Q-0.3 0.75 -0.3 -0.6 L-0.5 -1.3 -0.25 -1.65 Q0.4 -2.5 0.7 -0.9" fill="#6f6f6f" fill-rule="evenodd" stroke="none"/>
    <path d="M0.55 3.9 L0.55 4.35 0.6 5.7 Q0.8 7.1 1.85 7.1 L1.9 7.1 1.95 7.25 2.1 9.15 2.05 9.75 2.55 10.95 2.3 11.95 1.75 12.35 Q0.25 12.35 -0.45 7.7 L-0.4 6.7 Q-1.0 5.85 -1.9 5.35 L-2.45 4.65 -2.2 4.25 -1.95 4.05 -1.65 3.65 Q-1.0 3.05 -0.2 3.0 0.1 3.65 0.55 3.9" fill="#8c8c8c" fill-rule="evenodd" stroke="none"/>
  </g>
</svg>
