<?xml version="1.0" encoding="UTF-8" standalone="no"?>
<svg xmlns:xlink="http://www.w3.org/1999/xlink" height="24.15px" width="27.8px" xmlns="http://www.w3.org/2000/svg">
  <g transform="matrix(1.0, 0.0, 0.0, 1.0, -23.3, 12.9)">
    <path d="M34.1 -12.85 L34.55 -12.9 Q37.3 -12.9 39.3 -9.35 41.25 -5.8 41.25 -0.8 41.25 4.15 39.3 7.7 37.3 11.25 34.55 11.25 L34.1 11.15 34.1 -12.85" fill="url(#gradient0)" fill-rule="evenodd" stroke="none"/>
    <path d="M34.1 11.15 L33.65 11.25 Q30.85 11.25 28.9 7.7 26.9 4.15 26.95 -0.8 26.9 -5.8 28.9 -9.35 30.85 -12.9 33.65 -12.9 L34.1 -12.85 34.1 11.15" fill="url(#gradient1)" fill-rule="evenodd" stroke="none"/>
    <path d="M37.2 -9.0 L38.1 -9.05 Q43.5 -9.05 47.35 -6.65 51.1 -4.25 51.1 -0.9 51.1 2.45 47.35 4.8 43.5 7.2 38.1 7.2 L37.2 7.15 37.2 -9.0" fill="url(#gradient2)" fill-rule="evenodd" stroke="none"/>
    <path d="M37.2 7.15 L36.3 7.2 Q30.9 7.2 27.1 4.8 23.25 2.45 23.3 -0.9 23.25 -4.25 27.1 -6.65 30.9 -9.05 36.3 -9.05 L37.2 -9.0 37.2 7.15" fill="url(#gradient3)" fill-rule="evenodd" stroke="none"/>
  </g>
  <defs>
    <radialGradient cx="0" cy="0" gradientTransform="matrix(0.0, 0.0131, -0.0082, 0.0, 34.55, -0.85)" gradientUnits="userSpaceOnUse" id="gradient0" r="819.2" spreadMethod="pad">
      <stop offset="0.17647058823529413" stop-color="#ffffff"/>
      <stop offset="1.0" stop-color="#139ffd" stop-opacity="0.0"/>
    </radialGradient>
    <radialGradient cx="0" cy="0" gradientTransform="matrix(0.0, 0.0131, 0.0082, 0.0, 33.65, -0.85)" gradientUnits="userSpaceOnUse" id="gradient1" r="819.2" spreadMethod="pad">
      <stop offset="0.17647058823529413" stop-color="#ffffff"/>
      <stop offset="1.0" stop-color="#139ffd" stop-opacity="0.0"/>
    </radialGradient>
    <radialGradient cx="0" cy="0" gradientTransform="matrix(0.0, 0.0088, -0.0159, 0.0, 38.05, -0.95)" gradientUnits="userSpaceOnUse" id="gradient2" r="819.2" spreadMethod="pad">
      <stop offset="0.17647058823529413" stop-color="#ffffff"/>
      <stop offset="1.0" stop-color="#139ffd" stop-opacity="0.0"/>
    </radialGradient>
    <radialGradient cx="0" cy="0" gradientTransform="matrix(0.0, 0.0088, 0.0159, 0.0, 36.3, -0.95)" gradientUnits="userSpaceOnUse" id="gradient3" r="819.2" spreadMethod="pad">
      <stop offset="0.17647058823529413" stop-color="#ffffff"/>
      <stop offset="1.0" stop-color="#139ffd" stop-opacity="0.0"/>
    </radialGradient>
  </defs>
</svg>
