<?xml version="1.0" encoding="UTF-8" standalone="no"?>
<svg xmlns:xlink="http://www.w3.org/1999/xlink" height="18.35px" width="19.2px" xmlns="http://www.w3.org/2000/svg">
  <g transform="matrix(1.0, 0.0, 0.0, 1.0, 7.65, 17.15)">
    <path d="M7.8 -11.25 L8.4 -9.65 Q9.25 -7.35 8.7 -5.7 8.1 -4.35 4.75 -4.3 L-1.0 -4.65 Q-1.9 -6.45 -1.8 -9.8 L7.8 -11.25 M5.4 -8.4 L3.7 -8.4 5.4 -8.4" fill="#cc9933" fill-rule="evenodd" stroke="none"/>
    <path d="M-6.75 -5.5 L-6.8 -5.8 -6.85 -5.9 -6.9 -6.15 -7.15 -8.3 Q-5.85 -8.85 -4.65 -8.85 -3.5 -8.85 -1.8 -9.8 -1.9 -6.45 -1.0 -4.65 L-6.75 -5.5 M-4.95 -6.4 L-4.95 -7.7 -4.95 -6.4 M-3.45 -6.95 L-3.45 -7.85 -3.45 -6.95" fill="#444444" fill-rule="evenodd" stroke="none"/>
    <path d="M3.1 -1.35 L3.1 0.7 -0.2 0.6 -2.5 0.3 -2.6 0.25 -2.6 -1.6 3.1 -1.35" fill="#000000" fill-rule="evenodd" stroke="none"/>
    <path d="M0.6 -14.45 L0.35 -15.05 -0.25 -15.3 -0.85 -15.05 -1.1 -14.45 -0.85 -13.85 Q-0.6 -13.6 -0.25 -13.6 0.1 -13.6 0.35 -13.85 L0.6 -14.45 0.35 -13.85 Q0.1 -13.6 -0.25 -13.6 -0.6 -13.6 -0.85 -13.85 L-1.1 -14.45 -0.85 -15.05 -0.25 -15.3 0.35 -15.05 0.6 -14.45 M-7.15 -8.3 Q-7.1 -10.9 -6.65 -12.2 -6.05 -14.2 -3.05 -15.8 -0.1 -17.4 4.3 -15.9 8.65 -14.4 9.4 -11.6 8.25 -11.7 7.85 -11.25 L7.8 -11.25 -1.8 -9.8 Q-3.5 -8.85 -4.65 -8.85 -5.85 -8.85 -7.15 -8.3 M-1.1 -12.2 Q-3.25 -13.05 -4.0 -14.85 -3.25 -13.05 -1.1 -12.2 M-4.0 -11.6 Q-5.0 -12.25 -5.35 -13.2 -5.0 -12.25 -4.0 -11.6" fill="#aaaaaa" fill-rule="evenodd" stroke="none"/>
    <path d="M8.7 -5.7 Q11.1 -4.05 9.25 -2.2 7.4 -0.4 5.35 -1.0 3.9 -1.8 4.75 -4.3 8.1 -4.35 8.7 -5.7 M8.45 -3.35 Q7.65 -2.5 6.55 -2.6 7.65 -2.5 8.45 -3.35" fill="#8c8c8c" fill-rule="evenodd" stroke="none"/>
    <path d="M5.35 -1.0 L3.1 -1.35 -2.6 -1.6 Q-5.85 -2.25 -6.75 -5.5 L-1.0 -4.65 4.75 -4.3 Q3.9 -1.8 5.35 -1.0 M-1.0 -2.6 L-1.35 -3.65 -1.0 -2.6 M-2.55 -2.35 L-3.35 -4.0 -2.55 -2.35" fill="#515151" fill-rule="evenodd" stroke="none"/>
    <path d="M-7.15 -8.3 Q-7.1 -10.9 -6.65 -12.2 -6.05 -14.2 -3.05 -15.8 -0.1 -17.4 4.3 -15.9 8.65 -14.4 9.4 -11.6 8.25 -11.7 7.85 -11.25 M7.8 -11.25 L-1.8 -9.8 Q-3.5 -8.85 -4.65 -8.85 -5.85 -8.85 -7.15 -8.3" fill="none" stroke="#3c3c3c" stroke-linecap="round" stroke-linejoin="round" stroke-width="1.0"/>
    <path d="M3.1 -1.35 L3.1 0.7 -0.2 0.6 -2.5 0.3 -2.6 0.25 -2.6 -1.6 M-6.75 -5.5 L-6.8 -5.8" fill="none" stroke="#000000" stroke-linecap="round" stroke-linejoin="round" stroke-width="1.0"/>
    <path d="M7.8 -11.25 L8.4 -9.65 Q9.25 -7.35 8.7 -5.7 M7.85 -11.25 L7.8 -11.25" fill="none" stroke="#5f4429" stroke-linecap="round" stroke-linejoin="round" stroke-width="1.0"/>
    <path d="M3.7 -8.4 L5.4 -8.4" fill="none" stroke="#966825" stroke-linecap="round" stroke-linejoin="round" stroke-width="2.0"/>
    <path d="M8.7 -5.7 Q11.1 -4.05 9.25 -2.2 7.4 -0.4 5.35 -1.0 L3.1 -1.35 -2.6 -1.6 Q-5.85 -2.25 -6.75 -5.5 M-3.35 -4.0 L-2.55 -2.35 M-1.35 -3.65 L-1.0 -2.6" fill="none" stroke="#2b2b2b" stroke-linecap="round" stroke-linejoin="round" stroke-width="1.0"/>
    <path d="M-6.8 -5.8 L-6.85 -5.9 -6.9 -6.15 -7.15 -8.3 M-1.8 -9.8 Q-1.9 -6.45 -1.0 -4.65 L4.75 -4.3 M-4.95 -7.7 L-4.95 -6.4 M-3.45 -7.85 L-3.45 -6.95 M-1.0 -4.65 L-6.75 -5.5" fill="none" stroke="#333333" stroke-linecap="round" stroke-linejoin="round" stroke-width="1.0"/>
    <path d="M4.75 -4.3 Q8.1 -4.35 8.7 -5.7 M4.75 -4.3 Q3.9 -1.8 5.35 -1.0" fill="none" stroke="#404040" stroke-linecap="round" stroke-linejoin="round" stroke-width="1.0"/>
    <path d="M0.6 -14.45 L0.35 -13.85 Q0.1 -13.6 -0.25 -13.6 -0.6 -13.6 -0.85 -13.85 L-1.1 -14.45 -0.85 -15.05 -0.25 -15.3 0.35 -15.05 0.6 -14.45 M-5.35 -13.2 Q-5.0 -12.25 -4.0 -11.6 M-4.0 -14.85 Q-3.25 -13.05 -1.1 -12.2" fill="none" stroke="#777777" stroke-linecap="round" stroke-linejoin="round" stroke-width="1.0"/>
    <path d="M6.55 -2.6 Q7.65 -2.5 8.45 -3.35" fill="none" stroke="#6a6a6a" stroke-linecap="round" stroke-linejoin="round" stroke-width="1.0"/>
    <path d="M3.75 -5.6 Q2.45 -6.4 -1.5 -7.15 -3.55 -7.6 -2.9 -8.85 -2.2 -10.15 0.55 -10.35 4.5 -10.65 9.65 -11.95 10.8 -10.05 11.05 -6.25 5.05 -4.85 3.75 -5.6" fill="#990000" fill-opacity="0.7019608" fill-rule="evenodd" stroke="none"/>
    <path d="M3.75 -5.6 Q2.45 -6.4 -1.5 -7.15 -3.55 -7.6 -2.9 -8.85 -2.2 -10.15 0.55 -10.35 4.5 -10.65 9.65 -11.95 10.8 -10.05 11.05 -6.25 5.05 -4.85 3.75 -5.6 Z" fill="none" stroke="#000000" stroke-linecap="round" stroke-linejoin="round" stroke-opacity="0.3019608" stroke-width="1.0"/>
    <path d="M8.25 -3.45 Q9.1 -3.45 9.65 -2.9 10.25 -2.3 10.25 -1.45 10.25 -0.6 9.65 -0.05 9.1 0.55 8.25 0.55 7.4 0.55 6.8 -0.05 6.25 -0.6 6.25 -1.45 6.25 -2.3 6.8 -2.9 7.4 -3.45 8.25 -3.45" fill="#888888" fill-rule="evenodd" stroke="none"/>
    <path d="M8.25 -3.45 Q9.1 -3.45 9.65 -2.9 10.25 -2.3 10.25 -1.45 10.25 -0.6 9.65 -0.05 9.1 0.55 8.25 0.55 7.4 0.55 6.8 -0.05 6.25 -0.6 6.25 -1.45 6.25 -2.3 6.8 -2.9 7.4 -3.45 8.25 -3.45 Z" fill="none" stroke="#262626" stroke-linecap="round" stroke-linejoin="round" stroke-width="1.0"/>
  </g>
</svg>
