<?xml version="1.0" encoding="UTF-8" standalone="no"?>
<svg xmlns:xlink="http://www.w3.org/1999/xlink" height="6.75px" width="14.05px" xmlns="http://www.w3.org/2000/svg">
  <g transform="matrix(1.0, 0.0, 0.0, 1.0, 7.05, 3.25)">
    <path d="M3.0 2.3 L-3.05 2.4 -3.05 -2.15 3.0 -2.15 3.0 2.3" fill="#666666" fill-rule="evenodd" stroke="none"/>
    <path d="M3.0 -2.15 L3.0 -2.75 Q4.85 -2.65 5.6 -1.9 6.2 -1.4 6.5 -0.05 6.15 1.4 5.6 2.0 4.85 2.7 3.0 3.0 L3.0 2.85 3.0 2.3 3.0 -2.15 M-3.05 2.4 L-3.05 3.0 Q-4.9 2.85 -5.65 2.15 -6.25 1.6 -6.55 0.25 -6.2 -1.15 -5.6 -1.75 -4.85 -2.5 -3.05 -2.75 L-3.05 -2.15 -3.05 2.4" fill="#555555" fill-rule="evenodd" stroke="none"/>
    <path d="M3.0 2.3 L-3.05 2.4 M-3.05 -2.15 L3.0 -2.15" fill="none" stroke="#444444" stroke-linecap="round" stroke-linejoin="round" stroke-width="1.0"/>
    <path d="M3.0 -2.15 L3.0 -2.75 Q4.85 -2.65 5.6 -1.9 6.2 -1.4 6.5 -0.05 6.15 1.4 5.6 2.0 4.85 2.7 3.0 3.0 L3.0 2.85 3.0 2.3 3.0 -2.15 M-3.05 2.4 L-3.05 3.0 Q-4.9 2.85 -5.65 2.15 -6.25 1.6 -6.55 0.25 -6.2 -1.15 -5.6 -1.75 -4.85 -2.5 -3.05 -2.75 L-3.05 -2.15 -3.05 2.4" fill="none" stroke="#3c3c3c" stroke-linecap="round" stroke-linejoin="round" stroke-width="1.0"/>
  </g>
</svg>
