<?xml version="1.0" encoding="UTF-8" standalone="no"?>
<svg xmlns:xlink="http://www.w3.org/1999/xlink" height="8.1px" width="13.05px" xmlns="http://www.w3.org/2000/svg">
  <g transform="matrix(1.0, 0.0, 0.0, 1.0, 2.35, 11.7)">
    <path d="M6.7 -4.15 Q2.95 -5.2 0.55 -6.55 -2.1 -7.9 -1.85 -8.75 L-1.85 -8.8 Q-1.3 -10.6 1.8 -11.2 L8.5 -10.85 8.6 -10.8 Q9.65 -10.5 10.05 -8.95 10.4 -7.45 9.95 -5.6 9.7 -4.7 8.8 -4.3 L6.75 -4.1 6.7 -4.15" fill="#830000" fill-opacity="0.7019608" fill-rule="evenodd" stroke="none"/>
    <path d="M6.7 -4.15 Q2.95 -5.2 0.55 -6.55 -2.1 -7.9 -1.85 -8.75 L-1.85 -8.8 Q-1.3 -10.6 1.8 -11.2 L8.5 -10.85 8.6 -10.8 Q9.65 -10.5 10.05 -8.95 10.4 -7.45 9.95 -5.6 9.7 -4.7 8.8 -4.3 L6.75 -4.1 6.7 -4.15 Z" fill="none" stroke="#000000" stroke-linecap="round" stroke-linejoin="round" stroke-opacity="0.3019608" stroke-width="1.0"/>
  </g>
</svg>
