<?xml version="1.0" encoding="UTF-8" standalone="no"?>
<svg xmlns:ffdec="https://www.free-decompiler.com/flash" xmlns:xlink="http://www.w3.org/1999/xlink" ffdec:objectType="shape" height="18.85px" width="12.85px" xmlns="http://www.w3.org/2000/svg">
  <g transform="matrix(1.0, 0.0, 0.0, 1.0, 7.35, 4.55)">
    <path d="M-6.3 2.05 L-3.85 2.45 Q-2.5 3.0 -1.7 4.3 -1.1 7.15 0.1 8.15 L2.05 8.75 1.6 10.15 Q1.2 10.95 0.4 11.2 L-0.6 11.05 Q-2.15 10.7 -3.8 7.55 -4.25 6.65 -5.05 6.25 L-6.0 5.8 Q-6.45 5.55 -6.75 3.9 -6.9 2.2 -6.3 2.05" fill="url(#gradient0)" fill-rule="evenodd" stroke="none"/>
    <path d="M-6.3 2.05 Q-6.9 2.2 -6.75 3.9 -6.45 5.55 -6.0 5.8 L-5.05 6.25 Q-4.25 6.65 -3.8 7.55 -2.15 10.7 -0.6 11.05 L0.4 11.2 Q1.2 10.95 1.6 10.15 L2.05 8.75 0.1 8.15 Q-1.1 7.15 -1.7 4.3 -2.5 3.0 -3.85 2.45 L-6.3 2.05 Z" fill="none" stroke="#1b1616" stroke-linecap="butt" stroke-linejoin="miter-clip" stroke-miterlimit="15.12109375" stroke-width="1.0"/>
    <path d="M-5.35 3.6 L-5.0 3.65" fill="none" stroke="#d7c24e" stroke-linecap="round" stroke-linejoin="miter-clip" stroke-miterlimit="15.12109375" stroke-width="1.0"/>
    <path d="M-5.25 4.95 L-4.8 4.95" fill="none" stroke="#d7c24e" stroke-linecap="round" stroke-linejoin="miter-clip" stroke-miterlimit="15.12109375" stroke-width="1.0"/>
    <path d="M0.2 13.8 L0.3 11.2 Q1.2 11.1 1.55 10.3 L2.0 8.8 Q3.65 8.75 4.2 7.7 L4.8 5.0 Q5.2 4.35 4.75 3.65 L4.15 2.8 Q4.95 -0.2 2.6 -2.5 0.25 -4.9 -3.1 -3.6 L-5.0 -2.25 -5.55 -1.95 -6.55 -0.4 Q-7.05 1.25 -6.65 2.3 L-6.7 3.4 Q-6.85 4.7 -6.5 5.2 L-5.6 6.15 Q-5.1 6.5 -5.4 6.95" fill="none" stroke="#000000" stroke-linecap="round" stroke-linejoin="round" stroke-opacity="0.25490198" stroke-width="1.0"/>
    <path d="M-4.85 7.05 L-2.95 9.95 Q-2.45 10.8 -0.65 11.45 L-0.25 11.5" fill="none" stroke="#1b1616" stroke-linecap="round" stroke-linejoin="miter-clip" stroke-miterlimit="15.12109375" stroke-opacity="0.38039216" stroke-width="1.0"/>
  </g>
  <defs>
    <radialGradient cx="0" cy="0" gradientTransform="matrix(0.0065, 3.0E-4, -7.0E-4, 0.0157, -2.1, 6.75)" gradientUnits="userSpaceOnUse" id="gradient0" r="819.2" spreadMethod="pad">
      <stop offset="0.0" stop-color="#261e1e"/>
      <stop offset="1.0" stop-color="#444242"/>
    </radialGradient>
  </defs>
</svg>
