<?xml version="1.0" encoding="UTF-8" standalone="no"?>
<svg xmlns:ffdec="https://www.free-decompiler.com/flash" xmlns:xlink="http://www.w3.org/1999/xlink" ffdec:objectType="shape" height="22.1px" width="15.75px" xmlns="http://www.w3.org/2000/svg">
  <g transform="matrix(1.0, 0.0, 0.0, 1.0, 10.6, 8.5)">
    <path d="M-4.85 0.45 L-2.45 -1.0 Q-1.3 -1.05 -0.45 1.55 L-0.2 2.85 0.05 3.85 -1.05 7.05 Q-1.3 7.8 -1.35 9.65 -1.7 11.4 -2.1 12.2 -2.65 13.15 -3.45 13.1 -4.45 13.0 -5.3 11.8 L-6.15 10.15 Q-6.65 7.25 -6.5 5.95 L-5.7 2.25 Q-5.65 1.7 -4.85 0.45" fill="#2a2b33" fill-rule="evenodd" stroke="none"/>
    <path d="M-4.85 0.45 L-2.45 -1.0 Q-1.3 -1.05 -0.45 1.55 L-0.2 2.85 0.05 3.85 -1.05 7.05 Q-1.3 7.8 -1.35 9.65 -1.7 11.4 -2.1 12.2 -2.65 13.15 -3.45 13.1 -4.45 13.0 -5.3 11.8 L-6.15 10.15 Q-6.65 7.25 -6.5 5.95 L-5.7 2.25 Q-5.65 1.7 -4.85 0.45 Z" fill="none" stroke="#111216" stroke-linecap="round" stroke-linejoin="round" stroke-width="1.0"/>
    <path d="M0.1 -5.35 L1.45 -4.45 Q2.7 -3.3 2.95 -2.25 3.35 -0.55 2.5 0.7 1.8 1.05 1.0 1.55 -0.6 2.5 -0.95 3.35 -2.85 5.2 -4.05 3.75 -4.95 1.75 -5.2 1.3 -6.6 -0.05 -6.75 -1.45 -6.8 -2.3 -5.95 -3.65 -5.0 -5.1 -3.85 -5.5 L0.1 -5.35" fill="url(#gradient0)" fill-rule="evenodd" stroke="none"/>
    <path d="M0.1 -5.35 L1.45 -4.45 Q2.7 -3.3 2.95 -2.25 3.35 -0.55 2.5 0.7 1.8 1.05 1.0 1.55 -0.6 2.5 -0.95 3.35 -2.85 5.2 -4.05 3.75 -4.95 1.75 -5.2 1.3 -6.6 -0.05 -6.75 -1.45 -6.8 -2.3 -5.95 -3.65 -5.0 -5.1 -3.85 -5.5 L0.1 -5.35 Z" fill="none" stroke="#513817" stroke-linecap="butt" stroke-linejoin="miter-clip" stroke-miterlimit="15.12109375" stroke-width="1.0"/>
    <path d="M2.25 1.15 Q2.2 2.4 0.75 3.45 -0.7 4.55 -1.4 4.0 -0.3 1.25 -2.45 0.95 -4.6 0.65 -4.45 3.4 -5.35 3.35 -6.1 1.85 -6.75 0.4 -6.7 -1.1 -6.25 -2.1 -3.05 -2.0 0.7 -1.85 2.25 1.15" fill="url(#gradient1)" fill-rule="evenodd" stroke="none"/>
    <path d="M2.25 1.15 Q2.2 2.4 0.75 3.45 -0.7 4.55 -1.4 4.0 -0.3 1.25 -2.45 0.95 -4.6 0.65 -4.45 3.4 -5.35 3.35 -6.1 1.85 -6.75 0.4 -6.7 -1.1 -6.25 -2.1 -3.05 -2.0 0.7 -1.85 2.25 1.15 Z" fill="none" stroke="#25272a" stroke-linecap="butt" stroke-linejoin="miter-clip" stroke-miterlimit="15.12109375" stroke-width="1.0"/>
    <path d="M-5.7 3.05 L-5.45 2.7 Q-6.3 2.0 -6.55 0.75 -6.8 0.0 -6.65 -1.4 L-6.45 -3.0 Q-6.25 -3.7 -4.6 -5.0 L-3.4 -5.65 -2.15 -5.85 Q-0.85 -6.0 1.05 -4.85 L2.4 -3.6 Q3.3 -2.6 3.25 -2.2 3.1 -0.2 2.75 0.4 L2.3 1.45 1.6 2.8 Q0.85 3.65 -0.1 3.9 L0.05 4.4" fill="none" stroke="#010100" stroke-linecap="round" stroke-linejoin="round" stroke-opacity="0.3647059" stroke-width="1.0"/>
  </g>
  <defs>
    <linearGradient gradientTransform="matrix(0.0065, 6.0E-4, -6.0E-4, 0.0065, -1.9, -0.6)" gradientUnits="userSpaceOnUse" id="gradient0" spreadMethod="pad" x1="-819.2" x2="819.2">
      <stop offset="0.0" stop-color="#8e3a0e"/>
      <stop offset="1.0" stop-color="#dbb531"/>
    </linearGradient>
    <radialGradient cx="0" cy="0" gradientTransform="matrix(0.0063, 8.0E-4, -0.0023, 0.019, -2.1, -0.2)" gradientUnits="userSpaceOnUse" id="gradient1" r="819.2" spreadMethod="pad">
      <stop offset="0.0" stop-color="#444954"/>
      <stop offset="1.0" stop-color="#dbdce1"/>
    </radialGradient>
  </defs>
</svg>
