<?xml version="1.0" encoding="UTF-8" standalone="no"?>
<svg xmlns:xlink="http://www.w3.org/1999/xlink" height="19.3px" width="19.8px" xmlns="http://www.w3.org/2000/svg">
  <g transform="matrix(1.0, 0.0, 0.0, 1.0, 8.0, 18.1)">
    <path d="M7.3 -4.25 L6.45 -4.3 7.3 -4.25 M7.55 -11.5 Q8.05 -9.7 8.2 -7.6 8.35 -5.55 7.75 -2.85 L3.0 -2.95 Q1.15 -5.4 -0.3 -6.1 L-1.75 -6.8 -1.8 -9.8 Q1.95 -11.35 7.55 -11.5 M5.4 -8.4 L3.7 -8.4 5.4 -8.4" fill="#cc9933" fill-rule="evenodd" stroke="none"/>
    <path d="M7.75 -2.85 Q8.4 -0.65 3.3 -1.35 2.6 -2.05 3.0 -2.95 2.6 -2.05 3.3 -1.35 L-2.65 -1.6 Q-5.85 -2.2 -6.75 -5.5 -3.75 -6.0 -1.75 -6.8 L-0.3 -6.1 Q1.15 -5.4 3.0 -2.95 L7.75 -2.85 M-2.55 -3.1 L-3.35 -4.75 -2.55 -3.1 M-0.45 -2.6 L-0.8 -3.65 -0.45 -2.6" fill="#515151" fill-rule="evenodd" stroke="none"/>
    <path d="M3.3 -1.35 L3.3 0.7 1.6 0.7 -0.2 0.6 -2.55 0.3 -2.65 0.25 -2.65 -1.6 3.3 -1.35" fill="#000000" fill-rule="evenodd" stroke="none"/>
    <path d="M-6.75 -5.5 Q-8.0 -8.85 -7.1 -12.1 L-1.8 -9.8 -1.75 -6.8 Q-3.75 -6.0 -6.75 -5.5 M-5.0 -6.9 L-5.0 -8.2 -5.0 -6.9 M-3.5 -7.45 L-3.5 -8.35 -3.5 -7.45" fill="#444444" fill-rule="evenodd" stroke="none"/>
    <path d="M-7.1 -12.1 Q-6.0 -15.9 -2.25 -17.1 1.55 -18.35 4.5 -16.4 7.4 -14.5 8.8 -11.55 L7.55 -11.5 Q1.95 -11.35 -1.8 -9.8 L-7.1 -12.1" fill="#555555" fill-rule="evenodd" stroke="none"/>
    <path d="M-7.1 -12.1 Q-6.0 -15.9 -2.25 -17.1 1.55 -18.35 4.5 -16.4 7.4 -14.5 8.8 -11.55 L7.55 -11.5 Q1.95 -11.35 -1.8 -9.8 L-7.1 -12.1 Q-8.0 -8.85 -6.75 -5.5" fill="none" stroke="#3c3c3c" stroke-linecap="round" stroke-linejoin="round" stroke-width="1.0"/>
    <path d="M7.55 -11.5 Q8.05 -9.7 8.2 -7.6 8.35 -5.55 7.75 -2.85" fill="none" stroke="#5f4429" stroke-linecap="round" stroke-linejoin="round" stroke-width="1.0"/>
    <path d="M-2.65 -1.6 Q-5.85 -2.2 -6.75 -5.5 M3.3 -1.35 L-2.65 -1.6 M-0.8 -3.65 L-0.45 -2.6 M-3.35 -4.75 L-2.55 -3.1" fill="none" stroke="#2b2b2b" stroke-linecap="round" stroke-linejoin="round" stroke-width="1.0"/>
    <path d="M3.7 -8.4 L5.4 -8.4" fill="none" stroke="#966825" stroke-linecap="round" stroke-linejoin="round" stroke-width="2.0"/>
    <path d="M3.3 -1.35 L3.3 0.7 1.6 0.7 -0.2 0.6 -2.55 0.3 -2.65 0.25 -2.65 -1.6" fill="none" stroke="#000000" stroke-linecap="round" stroke-linejoin="round" stroke-width="1.0"/>
    <path d="M-1.8 -9.8 L-1.75 -6.8 -0.3 -6.1 Q1.15 -5.4 3.0 -2.95 M-3.5 -8.35 L-3.5 -7.45 M-5.0 -8.2 L-5.0 -6.9 M-6.75 -5.5 Q-3.75 -6.0 -1.75 -6.8" fill="none" stroke="#333333" stroke-linecap="round" stroke-linejoin="round" stroke-width="1.0"/>
    <path d="M7.75 -2.85 Q8.4 -0.65 3.3 -1.35 2.6 -2.05 3.0 -2.95 L7.75 -2.85" fill="none" stroke="#404040" stroke-linecap="round" stroke-linejoin="round" stroke-width="1.0"/>
    <path d="M6.45 -4.3 L7.3 -4.25" fill="none" stroke="#966825" stroke-linecap="round" stroke-linejoin="round" stroke-width="1.0"/>
    <path d="M3.05 -3.2 Q1.4 -4.15 -0.55 -5.7 -2.55 -7.3 -2.7 -8.5 -2.9 -9.7 -1.05 -11.95 0.8 -14.2 6.15 -17.0 12.25 -11.9 11.1 -0.65 4.65 -2.25 3.05 -3.2" fill="#990000" fill-opacity="0.7019608" fill-rule="evenodd" stroke="none"/>
    <path d="M3.05 -3.2 Q1.4 -4.15 -0.55 -5.7 -2.55 -7.3 -2.7 -8.5 -2.9 -9.7 -1.05 -11.95 0.8 -14.2 6.15 -17.0 12.25 -11.9 11.1 -0.65 4.65 -2.25 3.05 -3.2 Z" fill="none" stroke="#000000" stroke-linecap="round" stroke-linejoin="round" stroke-opacity="0.3019608" stroke-width="1.0"/>
    <path d="M1.7 -1.9 Q1.15 -1.3 0.3 -1.3 -0.55 -1.3 -1.15 -1.9 -1.7 -2.45 -1.7 -3.3 -1.7 -4.15 -1.15 -4.75 -0.55 -5.3 0.3 -5.3 1.15 -5.3 1.7 -4.75 2.3 -4.15 2.3 -3.3 2.3 -2.45 1.7 -1.9" fill="#888888" fill-rule="evenodd" stroke="none"/>
    <path d="M1.7 -1.9 Q1.15 -1.3 0.3 -1.3 -0.55 -1.3 -1.15 -1.9 -1.7 -2.45 -1.7 -3.3 -1.7 -4.15 -1.15 -4.75 -0.55 -5.3 0.3 -5.3 1.15 -5.3 1.7 -4.75 2.3 -4.15 2.3 -3.3 2.3 -2.45 1.7 -1.9 Z" fill="none" stroke="#262626" stroke-linecap="round" stroke-linejoin="round" stroke-width="1.0"/>
  </g>
</svg>
