<?xml version="1.0" encoding="UTF-8" standalone="no"?>
<svg xmlns:ffdec="https://www.free-decompiler.com/flash" xmlns:xlink="http://www.w3.org/1999/xlink" ffdec:objectType="shape" height="21.8px" width="14.75px" xmlns="http://www.w3.org/2000/svg">
  <g transform="matrix(1.0, 0.0, 0.0, 1.0, 7.65, 5.2)">
    <path d="M-3.3 -0.2 L-3.15 -0.1 -3.25 0.0 -3.3 -0.2 M-1.35 2.3 L-1.3 2.3 -1.1 2.75 -1.35 2.3 M2.05 1.75 L3.5 1.55 2.65 3.5 2.45 3.7 Q2.45 2.0 2.05 1.75 M2.15 4.0 L1.25 4.6 0.25 3.6 0.4 3.35 Q1.0 3.2 2.15 4.0 M-4.95 5.55 L-4.75 6.35 -4.55 8.35 -5.1 10.1 -5.55 11.2 -4.95 5.55 M-3.35 10.1 L-3.3 10.35 -3.45 10.15 -3.35 10.1" fill="#505050" fill-rule="evenodd" stroke="none"/>
    <path d="M-3.25 0.0 L-3.15 -0.1 -1.35 2.3 -1.1 2.75 Q-1.1 3.1 -0.7 3.35 L0.25 3.6 -0.7 3.35 Q-1.1 3.1 -1.1 2.75 L-1.3 2.3 2.05 1.75 Q2.45 2.0 2.45 3.7 L2.15 4.0 Q1.0 3.2 0.4 3.35 L0.25 3.6 1.25 4.6 Q-0.8 6.15 -1.45 6.05 L-2.85 5.0 -4.15 3.95 Q-3.75 2.95 -3.5 1.75 L-3.25 0.0 M-1.45 6.05 Q-2.05 4.75 -2.15 3.5 -2.25 2.9 -3.5 1.75 -2.25 2.9 -2.15 3.5 -2.05 4.75 -1.45 6.05 M-3.35 10.1 L-2.4 8.75 -1.4 8.55 Q-0.9 8.65 -0.5 9.25 -0.15 9.85 -0.05 10.65 L-0.05 11.85 -0.05 12.2 -1.05 11.6 Q-1.65 11.35 -1.95 11.6 -2.5 11.6 -2.9 11.25 -3.3 10.85 -3.3 10.35 -3.3 10.85 -2.9 11.25 -2.5 11.6 -1.95 11.6 -1.65 11.35 -1.05 11.6 L-0.05 12.2 -0.05 11.85 0.2 12.55 Q-0.15 14.65 -1.15 15.4 -2.2 16.15 -3.15 16.1 -4.15 16.05 -4.8 15.05 -5.45 14.05 -5.55 12.1 L-4.35 10.85 -3.45 10.15 -3.3 10.35 -3.35 10.1 M-1.95 11.6 Q-1.3 12.4 -0.95 13.3 L-0.65 14.25 -1.5 14.2 -2.9 14.6 Q-3.7 14.2 -4.0 12.75 L-4.35 10.85 -4.0 12.75 Q-3.7 14.2 -2.9 14.6 L-1.5 14.2 -0.65 14.25 -0.95 13.3 Q-1.3 12.4 -1.95 11.6" fill="#261414" fill-rule="evenodd" stroke="none"/>
    <path d="M-3.3 -0.2 L-3.25 0.0 -3.15 -0.1 M3.5 1.55 L2.65 3.5 M-4.15 3.95 Q-3.75 2.95 -3.5 1.75 L-3.25 0.0 M1.25 4.6 L0.25 3.6 -0.7 3.35 Q-1.1 3.1 -1.1 2.75 L-1.35 2.3 M0.25 3.6 L0.4 3.35 Q1.0 3.2 2.15 4.0 M2.05 1.75 Q2.45 2.0 2.45 3.7 M-1.3 2.3 L-1.1 2.75 M-3.5 1.75 Q-2.25 2.9 -2.15 3.5 -2.05 4.75 -1.45 6.05 M-4.95 5.55 L-5.55 11.2 M-3.35 10.1 L-3.3 10.35 Q-3.3 10.85 -2.9 11.25 -2.5 11.6 -1.95 11.6 -1.65 11.35 -1.05 11.6 L-0.05 12.2 -0.05 11.85 M0.2 12.55 Q-0.15 14.65 -1.15 15.4 -2.2 16.15 -3.15 16.1 -4.15 16.05 -4.8 15.05 -5.45 14.05 -5.55 12.1 M-3.3 10.35 L-3.45 10.15 M-4.35 10.85 L-4.0 12.75 Q-3.7 14.2 -2.9 14.6 L-1.5 14.2 -0.65 14.25 -0.95 13.3 Q-1.3 12.4 -1.95 11.6" fill="none" stroke="#0a0606" stroke-linecap="round" stroke-linejoin="round" stroke-width="1.0"/>
    <path d="M-7.15 -1.55 Q-5.2 -3.2 -2.4 -4.1 0.7 -5.35 2.7 -3.9 6.45 -0.85 6.6 1.9 4.7 1.2 2.95 1.55 L-1.35 2.6 Q-4.25 -1.0 -7.15 -1.55 M-4.35 10.9 L-6.25 12.9 -6.8 13.3 -5.1 10.2 Q-4.45 8.6 -4.45 7.85 L-4.7 6.1 -5.1 3.85 -5.2 1.8 Q-3.95 5.75 -1.4 5.8 0.65 5.8 2.65 3.5 L3.25 3.05 3.5 6.4 Q3.5 10.8 0.55 13.4 L-0.5 11.0 Q-1.4 9.4 -1.9 9.4 -2.7 9.4 -4.35 10.9" fill="url(#gradient0)" fill-rule="evenodd" stroke="none"/>
    <path d="M-7.15 -1.55 Q-4.25 -1.0 -1.35 2.6 L2.95 1.55 Q4.7 1.2 6.6 1.9 6.45 -0.85 2.7 -3.9 0.7 -5.35 -2.4 -4.1 -5.2 -3.2 -7.15 -1.55 M-4.35 10.9 L-6.25 12.9 -6.8 13.3 -5.1 10.2 Q-4.45 8.6 -4.45 7.85 L-4.7 6.1 -5.1 3.85 -5.2 1.8 Q-3.95 5.75 -1.4 5.8 0.65 5.8 2.65 3.5 L3.25 3.05 3.5 6.4 Q3.5 10.8 0.55 13.4 L-0.5 11.0 Q-1.4 9.4 -1.9 9.4 -2.7 9.4 -4.35 10.9 Z" fill="none" stroke="#0a0606" stroke-linecap="round" stroke-linejoin="round" stroke-width="1.0"/>
    <path d="M0.7 -1.5 L-0.3 -1.4 -0.85 -0.7 -1.6 -0.9 -0.7 -2.1 0.85 -2.3 Q1.7 -2.1 2.1 -1.35 2.55 -0.55 2.35 0.2 L1.7 0.0 Q1.8 -0.5 1.5 -0.9 L0.7 -1.5 M1.05 -0.7 L1.1 -0.15 0.75 0.3 0.2 0.35 -0.2 0.05 -0.25 -0.5 0.1 -0.95 0.6 -1.0 1.05 -0.7" fill="#261515" fill-rule="evenodd" stroke="none"/>
  </g>
  <defs>
    <linearGradient gradientTransform="matrix(0.0141, 0.0, 0.0, 0.0061, -0.9, -13.65)" gradientUnits="userSpaceOnUse" id="gradient0" spreadMethod="pad" x1="-819.2" x2="819.2">
      <stop offset="0.0" stop-color="#261515"/>
      <stop offset="1.0" stop-color="#683e3e"/>
    </linearGradient>
  </defs>
</svg>
