<?xml version="1.0" encoding="UTF-8" standalone="no"?>
<svg xmlns:xlink="http://www.w3.org/1999/xlink" height="22.1px" width="31.45px" xmlns="http://www.w3.org/2000/svg">
  <g transform="matrix(1.0, 0.0, 0.0, 1.0, 14.45, 18.0)">
    <path d="M-4.45 -4.15 L-0.5 -3.35 Q3.35 -2.2 2.7 -0.45 2.2 0.95 0.1 0.7 -1.65 0.45 -3.55 -0.7 L-4.45 -4.15" fill="#000000" fill-rule="evenodd" stroke="none"/>
    <path d="M-4.45 -4.15 L-3.55 -0.7 Q-1.65 0.45 0.1 0.7 2.2 0.95 2.7 -0.45 3.35 -2.2 -0.5 -3.35 L-4.45 -4.15 Z" fill="none" stroke="#000000" stroke-linecap="round" stroke-linejoin="round" stroke-width="1.0"/>
    <path d="M4.05 -1.25 Q3.65 -1.25 3.35 -0.95 3.05 -0.65 3.05 -0.25 3.05 0.15 3.35 0.45 3.65 0.75 4.05 0.75 L4.75 0.45 5.05 -0.25 4.75 -0.95 4.05 -1.25 4.75 -0.95 5.05 -0.25 4.75 0.45 4.05 0.75 Q3.65 0.75 3.35 0.45 3.05 0.15 3.05 -0.25 3.05 -0.65 3.35 -0.95 3.65 -1.25 4.05 -1.25 M7.8 -2.7 L7.25 -2.7 7.8 -2.7 M11.55 -4.1 L12.5 -4.1 Q14.8 -2.6 15.7 -0.55 L16.05 0.45 11.15 1.1 11.15 3.3 9.45 3.5 8.55 3.1 5.7 3.6 4.25 3.35 Q1.7 -0.85 -4.05 -2.9 L-5.05 -2.55 -5.6 -1.85 -7.7 -2.45 -7.75 -4.6 -8.35 -6.25 -11.55 -7.45 -12.65 -9.35 -12.35 -11.65 -11.25 -11.2 -10.2 -9.65 -7.25 -9.5 -4.3 -8.1 -7.95 -12.8 -10.1 -13.15 -10.85 -13.75 -11.65 -14.2 -10.5 -16.25 -8.65 -17.0 -8.0 -17.3 Q-5.15 -17.7 -2.95 -17.2 -0.7 -16.65 0.25 -15.3 L-0.15 -14.6 -0.5 -13.95 Q-2.55 -9.2 2.75 -5.8 7.8 -3.7 11.55 -4.1 M-6.85 -15.25 Q-9.25 -15.95 -8.65 -17.0 -9.25 -15.95 -6.85 -15.25 M7.35 2.8 Q7.95 2.8 8.35 2.35 8.8 1.95 8.8 1.35 8.8 0.75 8.35 0.3 7.95 -0.1 7.35 -0.1 6.75 -0.1 6.3 0.3 5.9 0.75 5.9 1.35 5.9 1.95 6.3 2.35 6.75 2.8 7.35 2.8 6.75 2.8 6.3 2.35 5.9 1.95 5.9 1.35 5.9 0.75 6.3 0.3 6.75 -0.1 7.35 -0.1 7.95 -0.1 8.35 0.3 8.8 0.75 8.8 1.35 8.8 1.95 8.35 2.35 7.95 2.8 7.35 2.8 M-4.55 -14.95 L-5.35 -15.25 -4.55 -14.95 -2.6 -14.2 -4.55 -14.95 -5.05 -13.8 -4.05 -13.2 -5.05 -13.8 -4.55 -14.95 M-5.6 -12.7 L-5.05 -13.8 -5.6 -12.7 M-8.0 -14.2 Q-10.7 -14.95 -10.5 -16.25 -10.7 -14.95 -8.0 -14.2 M0.1 -3.05 L-2.35 -4.3 0.1 -3.05 M1.5 -4.25 L-0.75 -5.5 1.5 -4.25" fill="#cccccc" fill-rule="evenodd" stroke="none"/>
    <path d="M11.55 -4.1 Q7.8 -3.7 2.75 -5.8 -2.55 -9.2 -0.5 -13.95 L-0.15 -14.6 Q4.05 -13.8 7.35 -11.05 11.0 -8.05 11.55 -4.1" fill="url(#gradient0)" fill-rule="evenodd" stroke="none"/>
    <path d="M16.05 0.45 L16.4 1.4 16.5 2.7 11.15 3.3 11.15 1.1 16.05 0.45 M-7.7 -2.45 L-8.65 -2.75 -13.3 -5.25 -13.95 -6.3 -13.65 -9.45 -12.65 -9.35 -11.55 -7.45 -8.35 -6.25 -7.75 -4.6 -7.7 -2.45" fill="#ffffff" fill-rule="evenodd" stroke="none"/>
    <path d="M-11.25 -11.2 L-10.85 -13.75 -10.1 -13.15 -7.95 -12.8 -4.3 -8.1 -7.25 -9.5 -10.2 -9.65 -11.25 -11.2" fill="#333333" fill-rule="evenodd" stroke="none"/>
    <path d="M7.25 -2.7 L7.8 -2.7 M4.05 -1.25 L4.75 -0.95 5.05 -0.25 4.75 0.45 4.05 0.75 Q3.65 0.75 3.35 0.45 3.05 0.15 3.05 -0.25 3.05 -0.65 3.35 -0.95 3.65 -1.25 4.05 -1.25 M16.05 0.45 L15.7 -0.55 Q14.8 -2.6 12.5 -4.1 L11.55 -4.1 Q7.8 -3.7 2.75 -5.8 -2.55 -9.2 -0.5 -13.95 L-0.15 -14.6 0.25 -15.3 Q-0.7 -16.65 -2.95 -17.2 -5.15 -17.7 -8.0 -17.3 L-8.65 -17.0 -10.5 -16.25 -11.65 -14.2 -10.85 -13.75 M11.15 3.3 L9.45 3.5 8.55 3.1 5.7 3.6 4.25 3.35 Q1.7 -0.85 -4.05 -2.9 L-5.05 -2.55 -5.6 -1.85 -7.7 -2.45 -8.65 -2.75 -13.3 -5.25 -13.95 -6.3 -13.65 -9.45 -12.65 -9.35 -12.35 -11.65 -11.25 -11.2 M7.35 2.8 Q6.75 2.8 6.3 2.35 5.9 1.95 5.9 1.35 5.9 0.75 6.3 0.3 6.75 -0.1 7.35 -0.1 7.95 -0.1 8.35 0.3 8.8 0.75 8.8 1.35 8.8 1.95 8.35 2.35 7.95 2.8 7.35 2.8" fill="none" stroke="#626262" stroke-linecap="round" stroke-linejoin="round" stroke-width="1.0"/>
    <path d="M11.55 -4.1 Q11.0 -8.05 7.35 -11.05 4.05 -13.8 -0.15 -14.6" fill="none" stroke="#0162a0" stroke-linecap="round" stroke-linejoin="round" stroke-width="1.0"/>
    <path d="M11.15 3.3 L16.5 2.7 16.4 1.4 16.05 0.45 11.15 1.1 11.15 3.3" fill="none" stroke="#808080" stroke-linecap="round" stroke-linejoin="round" stroke-width="1.0"/>
    <path d="M-8.65 -17.0 Q-9.25 -15.95 -6.85 -15.25 M-10.85 -13.75 L-10.1 -13.15 -7.95 -12.8 -4.3 -8.1 -7.25 -9.5 -10.2 -9.65 -11.25 -11.2 M-12.65 -9.35 L-11.55 -7.45 -8.35 -6.25 -7.75 -4.6 -7.7 -2.45 M-10.5 -16.25 Q-10.7 -14.95 -8.0 -14.2" fill="none" stroke="#4d4d4d" stroke-linecap="round" stroke-linejoin="round" stroke-width="1.0"/>
    <path d="M-2.6 -14.2 L-4.55 -14.95 -5.05 -13.8 -4.05 -13.2 M-5.05 -13.8 L-5.6 -12.7 M-5.35 -15.25 L-4.55 -14.95 M-0.75 -5.5 L1.5 -4.25" fill="none" stroke="#9d9d9d" stroke-linecap="round" stroke-linejoin="round" stroke-width="1.0"/>
    <path d="M-2.35 -4.3 L0.1 -3.05" fill="none" stroke="#b3b3b3" stroke-linecap="round" stroke-linejoin="round" stroke-width="1.0"/>
  </g>
  <defs>
    <radialGradient cx="0" cy="0" gradientTransform="matrix(0.0047, -0.0058, 0.0099, 0.0081, 3.25, -7.0)" gradientUnits="userSpaceOnUse" id="gradient0" r="819.2" spreadMethod="pad">
      <stop offset="0.25098039215686274" stop-color="#01385c"/>
      <stop offset="0.615686274509804" stop-color="#015c98"/>
      <stop offset="0.6352941176470588" stop-color="#016eb7"/>
      <stop offset="0.8196078431372549" stop-color="#0099ff"/>
      <stop offset="1.0" stop-color="#c4e8ff"/>
    </radialGradient>
  </defs>
</svg>
