<?xml version="1.0" encoding="UTF-8" standalone="no"?>
<svg xmlns:xlink="http://www.w3.org/1999/xlink" height="23.15px" width="14.45px" xmlns="http://www.w3.org/2000/svg">
  <g transform="matrix(1.0, 0.0, 0.0, 1.0, 3.05, 1.55)">
    <path d="M3.85 2.1 L4.3 2.8 5.3 5.05 6.85 8.85 8.2 12.6 Q8.4 13.05 8.25 13.5 L7.85 13.9 Q6.9 14.45 5.5 14.6 L5.0 14.6 Q4.1 14.75 3.8 14.3 L3.75 14.1 Q3.65 13.45 2.15 13.05 0.7 12.65 0.25 10.35 L-0.35 8.35 Q-0.8 6.9 -1.65 6.25 -3.05 4.7 -2.3 2.5 L-2.15 2.0 Q-1.55 1.1 0.1 0.55 2.0 0.35 3.2 1.4 L3.85 2.1 M2.4 10.85 L2.6 11.15 2.4 10.85 M1.7 9.3 L1.9 9.6 1.7 9.3 M3.2 9.75 L3.4 10.05 3.2 9.75 M0.05 5.25 Q-0.6 4.95 -0.85 3.6 -0.6 4.95 0.05 5.25" fill="url(#gradient0)" fill-rule="evenodd" stroke="none"/>
    <path d="M-2.05 -0.05 Q-1.6 -1.05 0.2 -1.05 1.95 -1.05 3.2 0.35 L3.85 2.1 3.2 1.4 Q2.0 0.35 0.1 0.55 -1.55 1.1 -2.15 2.0 -2.55 1.1 -2.1 0.0 L-2.05 -0.05" fill="#404040" fill-rule="evenodd" stroke="none"/>
    <path d="M8.25 13.5 Q9.3 13.35 9.9 14.65 L10.6 16.1 Q11.3 17.7 10.35 18.05 L10.2 18.1 7.15 18.3 Q5.75 18.0 5.2 16.65 4.8 15.9 5.5 14.6 6.9 14.45 7.85 13.9 L8.25 13.5" fill="#3b4f63" fill-rule="evenodd" stroke="none"/>
    <path d="M10.2 18.1 Q10.5 20.0 9.5 20.75 L6.55 20.8 Q4.55 20.0 3.8 17.95 2.95 15.95 3.8 14.3 4.1 14.75 5.0 14.6 L5.5 14.6 Q4.8 15.9 5.2 16.65 5.75 18.0 7.15 18.3 L10.2 18.1" fill="#3f4040" fill-rule="evenodd" stroke="none"/>
    <path d="M3.85 2.1 L4.3 2.8 5.3 5.05 6.85 8.85 8.2 12.6 Q8.4 13.05 8.25 13.5 M3.8 14.3 L3.75 14.1 Q3.65 13.45 2.15 13.05 0.7 12.65 0.25 10.35 L-0.35 8.35 Q-0.8 6.9 -1.65 6.25 -3.05 4.7 -2.3 2.5 L-2.15 2.0 Q-1.55 1.1 0.1 0.55 2.0 0.35 3.2 1.4 L3.85 2.1 M5.5 14.6 L5.0 14.6 Q4.1 14.75 3.8 14.3" fill="none" stroke="#1c262f" stroke-linecap="round" stroke-linejoin="round" stroke-width="1.0"/>
    <path d="M3.2 0.35 L3.85 2.1 M-2.15 2.0 Q-2.55 1.1 -2.1 0.0 L-2.05 -0.05" fill="none" stroke="#181818" stroke-linecap="round" stroke-linejoin="round" stroke-width="1.0"/>
    <path d="M8.25 13.5 Q9.3 13.35 9.9 14.65 L10.6 16.1 Q11.3 17.7 10.35 18.05 L10.2 18.1" fill="none" stroke="#151c23" stroke-linecap="round" stroke-linejoin="round" stroke-width="1.0"/>
    <path d="M10.2 18.1 Q10.5 20.0 9.5 20.75 L6.55 20.8 Q4.55 20.0 3.8 17.95 2.95 15.95 3.8 14.3" fill="none" stroke="#1a1a19" stroke-linecap="round" stroke-linejoin="round" stroke-width="1.0"/>
    <path d="M3.4 10.05 L3.2 9.75 M1.9 9.6 L1.7 9.3 M2.6 11.15 L2.4 10.85 M-0.85 3.6 Q-0.6 4.95 0.05 5.25" fill="none" stroke="#36485b" stroke-linecap="round" stroke-linejoin="round" stroke-width="1.0"/>
    <path d="M5.5 14.6 Q6.9 14.45 7.85 13.9 L8.25 13.5" fill="none" stroke="#2c3c4a" stroke-linecap="round" stroke-linejoin="round" stroke-width="1.0"/>
    <path d="M10.2 18.1 L7.15 18.3 Q5.75 18.0 5.2 16.65 4.8 15.9 5.5 14.6" fill="none" stroke="#242f3a" stroke-linecap="round" stroke-linejoin="round" stroke-width="1.0"/>
    <path d="M-2.05 -0.05 Q-1.6 -1.05 0.2 -1.05 1.95 -1.05 3.2 0.35" fill="none" stroke="#2a2a2a" stroke-linecap="round" stroke-linejoin="round" stroke-width="1.0"/>
  </g>
  <defs>
    <linearGradient gradientTransform="matrix(0.0043, 0.0074, -0.004, 0.0023, 2.7, 7.65)" gradientUnits="userSpaceOnUse" id="gradient0" spreadMethod="pad" x1="-819.2" x2="819.2">
      <stop offset="0.0" stop-color="#40556a"/>
      <stop offset="1.0" stop-color="#56748f"/>
    </linearGradient>
  </defs>
</svg>
