<?xml version="1.0" encoding="UTF-8" standalone="no"?>
<svg xmlns:ffdec="https://www.free-decompiler.com/flash" xmlns:xlink="http://www.w3.org/1999/xlink" ffdec:objectType="shape" height="20.3px" width="11.15px" xmlns="http://www.w3.org/2000/svg">
  <g transform="matrix(1.0, 0.0, 0.0, 1.0, 7.25, 2.95)">
    <path d="M-0.6 11.45 Q-3.7 17.25 -5.65 16.8 -7.6 16.35 -6.1 9.5 L-3.3 -0.25 Q-2.4 -3.25 0.9 -2.2 4.15 -1.25 3.2 2.15 1.85 6.75 -0.6 11.45 M-0.4 2.6 L-0.4 0.95 -0.4 2.6 M-1.85 1.45 L-1.85 3.85 0.1 4.4 -1.85 3.85 -1.85 1.45" fill="#e3bfa5" fill-rule="evenodd" stroke="none"/>
    <path d="M-0.6 11.45 Q1.85 6.75 3.2 2.15 4.15 -1.25 0.9 -2.2 -2.4 -3.25 -3.3 -0.25 L-6.1 9.5 Q-7.6 16.35 -5.65 16.8 -3.7 17.25 -0.6 11.45" fill="none" stroke="#776355" stroke-linecap="round" stroke-linejoin="round" stroke-width="1.0"/>
    <path d="M0.1 4.4 L-1.85 3.85 -1.85 1.45 M-0.4 0.95 L-0.4 2.6" fill="none" stroke="#8e7868" stroke-linecap="round" stroke-linejoin="round" stroke-width="1.0"/>
  </g>
</svg>
