<?xml version="1.0" encoding="UTF-8" standalone="no"?>
<svg xmlns:xlink="http://www.w3.org/1999/xlink" height="35.8px" width="79.5px" xmlns="http://www.w3.org/2000/svg">
  <g transform="matrix(1.0, 0.0, 0.0, 1.0, 30.2, 4.8)">
    <path d="M-7.1 8.25 L-12.7 11.55 -12.7 7.2 -9.35 4.65 -7.1 8.25" fill="url(#gradient0)" fill-rule="evenodd" stroke="none"/>
    <path d="M22.55 2.75 L26.7 4.45 26.75 9.9 22.55 8.05 22.55 2.75" fill="#000000" fill-rule="evenodd" stroke="none"/>
    <path d="M-9.35 4.65 L-10.25 3.25 -5.25 -3.65 9.85 -3.8 17.7 0.0 12.85 2.5 -0.5 2.5 -6.4 9.35 -7.1 8.25 -9.35 4.65" fill="url(#gradient1)" fill-rule="evenodd" stroke="none"/>
    <path d="M30.3 11.9 L39.45 10.8 40.7 12.45 35.9 23.65 45.5 19.65 48.3 26.75 35.25 26.75 Q32.9 25.55 30.55 24.3 L25.35 24.3 13.8 24.3 12.55 14.05 30.3 11.9" fill="url(#gradient2)" fill-rule="evenodd" stroke="none"/>
    <path d="M-22.5 18.7 L-11.1 15.65 -10.9 23.4 -20.25 27.65 -20.45 29.45 -27.3 29.45 -24.3 22.65 -28.45 25.05 -28.1 20.3 -26.55 19.9 -22.5 18.7" fill="url(#gradient3)" fill-rule="evenodd" stroke="none"/>
    <path d="M-26.55 19.9 L-29.2 15.3 -24.65 15.0 -22.5 18.7 -26.55 19.9" fill="url(#gradient4)" fill-rule="evenodd" stroke="none"/>
    <path d="M17.7 0.0 L22.55 -2.5 22.55 2.75 22.55 8.05 26.75 9.9 31.0 11.8 30.3 11.9 12.55 14.05 13.8 24.3 25.35 24.3 22.55 30.0 11.25 30.0 7.25 23.3 -0.55 23.3 -4.55 30.0 -9.6 30.0 -9.6 15.6 -6.4 9.35 -0.5 2.5 12.85 2.5 17.7 0.0" fill="url(#gradient5)" fill-rule="evenodd" stroke="none"/>
    <path d="M-9.35 4.65 L-10.25 3.25 -5.25 -3.65 9.85 -3.8 17.7 0.0 22.55 -2.5 22.55 2.75 26.7 4.45 26.75 9.9 31.0 11.8 30.3 11.9 39.45 10.8 40.7 12.45 35.9 23.65 45.5 19.65 48.3 26.75 35.25 26.75 Q32.9 25.55 30.55 24.3 L25.35 24.3 22.55 30.0 11.25 30.0 7.25 23.3 -0.55 23.3 -4.55 30.0 -9.6 30.0 -9.6 15.6 -6.4 9.35 -7.1 8.25 -12.7 11.55 -12.7 7.2 -9.35 4.65 -7.1 8.25 M22.55 2.75 L22.55 8.05 26.75 9.9 M17.7 0.0 L12.85 2.5 -0.5 2.5 -6.4 9.35 M25.35 24.3 L13.8 24.3 12.55 14.05 30.3 11.9 M-22.5 18.7 L-11.1 15.65 -10.9 23.4 -20.25 27.65 -20.45 29.45 -27.3 29.45 -24.3 22.65 -28.45 25.05 -28.1 20.3 -26.55 19.9 -29.2 15.3 -24.65 15.0 -22.5 18.7 -26.55 19.9" fill="none" stroke="#000000" stroke-linecap="round" stroke-linejoin="round" stroke-width="2.0"/>
  </g>
  <defs>
    <radialGradient cx="0" cy="0" gradientTransform="matrix(0.0069, 0.0069, -0.0159, 0.0159, -15.75, 9.25)" gradientUnits="userSpaceOnUse" id="gradient0" r="819.2" spreadMethod="pad">
      <stop offset="0.0" stop-color="#888888"/>
      <stop offset="1.0" stop-color="#2b2b2b"/>
    </radialGradient>
    <radialGradient cx="0" cy="0" gradientTransform="matrix(0.0452, 0.0, 0.0, 0.0199, 6.0, -8.5)" gradientUnits="userSpaceOnUse" id="gradient1" r="819.2" spreadMethod="pad">
      <stop offset="0.0" stop-color="#404040"/>
      <stop offset="1.0" stop-color="#151515"/>
    </radialGradient>
    <radialGradient cx="0" cy="0" gradientTransform="matrix(0.0619, 0.0166, -0.0087, 0.0325, 40.5, 12.5)" gradientUnits="userSpaceOnUse" id="gradient2" r="819.2" spreadMethod="pad">
      <stop offset="0.0" stop-color="#404040"/>
      <stop offset="1.0" stop-color="#151515"/>
    </radialGradient>
    <radialGradient cx="0" cy="0" gradientTransform="matrix(0.0311, -0.0311, 0.0155, 0.0155, -27.1, 24.25)" gradientUnits="userSpaceOnUse" id="gradient3" r="819.2" spreadMethod="pad">
      <stop offset="0.0" stop-color="#404040"/>
      <stop offset="1.0" stop-color="#151515"/>
    </radialGradient>
    <radialGradient cx="0" cy="0" gradientTransform="matrix(0.0094, 0.0025, -0.0058, 0.0218, -23.25, 11.4)" gradientUnits="userSpaceOnUse" id="gradient4" r="819.2" spreadMethod="pad">
      <stop offset="0.0" stop-color="#888888"/>
      <stop offset="1.0" stop-color="#2b2b2b"/>
    </radialGradient>
    <radialGradient cx="0" cy="0" gradientTransform="matrix(0.0, 0.0579, -0.0366, 0.0, 15.5, 13.6)" gradientUnits="userSpaceOnUse" id="gradient5" r="819.2" spreadMethod="pad">
      <stop offset="0.0" stop-color="#555555"/>
      <stop offset="1.0" stop-color="#333333"/>
    </radialGradient>
  </defs>
</svg>
