<?xml version="1.0" encoding="UTF-8" standalone="no"?>
<svg xmlns:ffdec="https://www.free-decompiler.com/flash" xmlns:xlink="http://www.w3.org/1999/xlink" ffdec:objectType="shape" height="19.9px" width="10.75px" xmlns="http://www.w3.org/2000/svg">
  <g transform="matrix(1.0, 0.0, 0.0, 1.0, 7.05, 2.9)">
    <path d="M0.65 -2.4 Q2.3 -2.3 2.9 -1.1 3.65 0.05 1.9 3.55 L-0.85 9.3 -1.85 13.35 Q-2.4 15.5 -2.95 15.85 -3.95 16.65 -5.25 16.45 -6.5 16.3 -6.55 15.4 -6.7 11.7 -5.55 6.45 -4.2 0.3 -2.25 -1.4 -1.05 -2.5 0.65 -2.4" fill="#908e82" fill-rule="evenodd" stroke="none"/>
    <path d="M0.65 -2.4 Q2.3 -2.3 2.9 -1.1 3.65 0.05 1.9 3.55 L-0.85 9.3 -1.85 13.35 Q-2.4 15.5 -2.95 15.85 -3.95 16.65 -5.25 16.45 -6.5 16.3 -6.55 15.4 -6.7 11.7 -5.55 6.45 -4.2 0.3 -2.25 -1.4 -1.05 -2.5 0.65 -2.4 Z" fill="none" stroke="#4b4b3e" stroke-linecap="round" stroke-linejoin="round" stroke-width="1.05"/>
    <path d="M0.75 1.85 Q0.35 3.1 -1.65 3.8 L-3.6 4.25" fill="none" stroke="#6c6c5e" stroke-linecap="round" stroke-linejoin="round" stroke-width="1.05"/>
    <path d="M-1.95 6.7 Q-2.8 7.2 -3.5 8.65 L-4.1 9.95" fill="none" stroke="#6c6c5e" stroke-linecap="round" stroke-linejoin="round" stroke-width="1.05"/>
  </g>
</svg>
