<?xml version="1.0" encoding="UTF-8" standalone="no"?>
<svg xmlns:ffdec="https://www.free-decompiler.com/flash" xmlns:xlink="http://www.w3.org/1999/xlink" ffdec:objectType="shape" height="19.95px" width="10.7px" xmlns="http://www.w3.org/2000/svg">
  <g transform="matrix(1.0, 0.0, 0.0, 1.0, 7.35, 2.7)">
    <path d="M2.65 -0.85 Q3.35 0.3 1.6 3.8 L-1.1 9.55 -2.1 13.6 Q-2.65 15.75 -3.2 16.1 -4.2 16.9 -5.5 16.7 -6.8 16.55 -6.85 15.65 -6.95 11.95 -5.75 6.7 -4.5 0.55 -2.5 -1.15 -1.3 -2.25 0.4 -2.2 2.05 -2.05 2.65 -0.85" fill="#bcb2a1" fill-rule="evenodd" stroke="none"/>
    <path d="M2.65 -0.85 Q3.35 0.3 1.6 3.8 L-1.1 9.55 -2.1 13.6 Q-2.65 15.75 -3.2 16.1 -4.2 16.9 -5.5 16.7 -6.8 16.55 -6.85 15.65 -6.95 11.95 -5.75 6.7 -4.5 0.55 -2.5 -1.15 -1.3 -2.25 0.4 -2.2 2.05 -2.05 2.65 -0.85 Z" fill="none" stroke="#565149" stroke-linecap="round" stroke-linejoin="round" stroke-width="1.05"/>
    <path d="M0.5 2.1 Q0.1 3.35 -1.95 4.05 L-3.9 4.5" fill="none" stroke="#807a6d" stroke-linecap="round" stroke-linejoin="round" stroke-width="1.05"/>
    <path d="M-2.2 6.95 Q-3.05 7.45 -3.75 8.9 L-4.35 10.2" fill="none" stroke="#807a6d" stroke-linecap="round" stroke-linejoin="round" stroke-width="1.05"/>
  </g>
</svg>
