<?xml version="1.0" encoding="UTF-8" standalone="no"?>
<svg xmlns:ffdec="https://www.free-decompiler.com/flash" xmlns:xlink="http://www.w3.org/1999/xlink" ffdec:objectType="shape" height="19.95px" width="10.7px" xmlns="http://www.w3.org/2000/svg">
  <g transform="matrix(1.0, 0.0, 0.0, 1.0, 7.0, 2.85)">
    <path d="M2.9 -1.0 Q3.65 0.15 1.9 3.65 L-0.85 9.4 -1.85 13.45 Q-2.4 15.6 -2.95 15.95 -3.95 16.75 -5.25 16.55 -6.5 16.4 -6.5 15.45 -6.65 11.8 -5.5 6.55 -4.2 0.4 -2.25 -1.3 -0.95 -2.45 0.65 -2.35 2.3 -2.2 2.9 -1.0" fill="#bcb2a1" fill-rule="evenodd" stroke="none"/>
    <path d="M2.9 -1.0 Q3.65 0.15 1.9 3.65 L-0.85 9.4 -1.85 13.45 Q-2.4 15.6 -2.95 15.95 -3.95 16.75 -5.25 16.55 -6.5 16.4 -6.5 15.45 -6.65 11.8 -5.5 6.55 -4.2 0.4 -2.25 -1.3 -0.95 -2.45 0.65 -2.35 2.3 -2.2 2.9 -1.0 Z" fill="none" stroke="#565149" stroke-linecap="round" stroke-linejoin="round" stroke-width="1.05"/>
    <path d="M0.8 1.95 Q0.4 3.2 -1.65 3.9 L-3.6 4.35" fill="none" stroke="#807a6d" stroke-linecap="round" stroke-linejoin="round" stroke-width="1.05"/>
    <path d="M-1.95 6.75 Q-2.8 7.3 -3.5 8.7 L-4.05 10.0" fill="none" stroke="#807a6d" stroke-linecap="round" stroke-linejoin="round" stroke-width="1.05"/>
    <path d="M-3.85 5.3 L2.5 7.45 Q1.7 8.5 1.45 9.6 L-4.6 7.8 -4.15 5.95 -3.85 5.3" fill="#7a8530" fill-rule="evenodd" stroke="none"/>
    <path d="M-3.85 5.3 L2.5 7.45 Q1.7 8.5 1.45 9.6 L-4.6 7.8 -4.15 5.95 -3.85 5.3 Z" fill="none" stroke="#393f16" stroke-linecap="round" stroke-linejoin="round" stroke-width="1.05"/>
  </g>
</svg>
