<?xml version="1.0" encoding="UTF-8" standalone="no"?>
<svg xmlns:xlink="http://www.w3.org/1999/xlink" height="21.45px" width="15.15px" xmlns="http://www.w3.org/2000/svg">
  <g transform="matrix(1.0, 0.0, 0.0, 1.0, 5.2, 1.5)">
    <path d="M4.8 14.9 L7.95 13.6 Q9.45 15.35 9.45 16.7 9.4 18.15 7.7 19.4 6.85 19.7 6.05 18.7 5.1 17.5 4.8 14.9" fill="#444444" fill-rule="evenodd" stroke="none"/>
    <path d="M4.8 14.9 Q5.1 17.5 6.05 18.7 6.85 19.7 7.7 19.4 9.4 18.15 9.45 16.7 9.45 15.35 7.95 13.6 L4.8 14.9 Z" fill="none" stroke="#1a1a1a" stroke-linecap="round" stroke-linejoin="round" stroke-width="1.05"/>
    <path d="M4.85 4.25 Q5.3 4.4 4.95 5.0 L4.45 5.6 4.7 5.65 5.65 5.85 5.7 6.35 Q5.65 6.75 5.75 6.85 L7.95 11.7 8.15 12.25 9.15 13.3 Q9.1 14.25 6.45 15.15 L3.8 15.85 Q3.05 15.65 2.95 15.0 L3.0 14.4 1.6 11.65 Q1.4 11.25 0.85 11.1 L0.45 10.65 0.3 9.55 -0.05 8.5 Q-1.4 6.05 -2.25 5.25 L-2.1 2.65 -1.9 0.9 2.65 0.3 2.75 2.05 3.85 3.65 4.55 4.25 4.85 4.25" fill="#444444" fill-rule="evenodd" stroke="none"/>
    <path d="M2.65 0.3 L2.75 2.05 3.85 3.65 4.55 4.25 4.85 4.25 Q5.3 4.4 4.95 5.0 L4.45 5.6 4.7 5.65 5.65 5.85 5.7 6.35 Q5.65 6.75 5.75 6.85 L7.95 11.7 8.15 12.25 9.15 13.3 Q9.1 14.25 6.45 15.15 L3.8 15.85 Q3.05 15.65 2.95 15.0 L3.0 14.4 1.6 11.65 Q1.4 11.25 0.85 11.1 L0.45 10.65 0.3 9.55 -0.05 8.5 Q-1.4 6.05 -2.25 5.25 L-2.1 2.65 -1.9 0.9" fill="none" stroke="#1a1a1a" stroke-linecap="round" stroke-linejoin="round" stroke-width="1.05"/>
    <path d="M-1.05 1.85 Q-0.55 3.6 -0.65 6.2 L-2.55 6.0 -4.15 3.7 Q-4.75 2.8 -4.7 0.95 L-3.1 -1.0 Q-1.65 -0.4 -1.05 1.85" fill="#323232" fill-rule="evenodd" stroke="none"/>
    <path d="M-1.05 1.85 Q-1.65 -0.4 -3.1 -1.0 L-4.7 0.95 Q-4.75 2.8 -4.15 3.7 L-2.55 6.0 -0.65 6.2 Q-0.55 3.6 -1.05 1.85 Z" fill="none" stroke="#1a1a1a" stroke-linecap="round" stroke-linejoin="round" stroke-width="1.05"/>
    <path d="M3.25 2.05 L3.5 2.15 3.7 2.75 Q2.8 2.7 0.85 3.65 L-0.85 4.7 -1.1 4.1 Q-0.5 3.55 1.4 2.75 L3.25 2.05" fill="#131313" fill-rule="evenodd" stroke="none"/>
    <path d="M3.25 2.05 L1.4 2.75 Q-0.5 3.55 -1.1 4.1 L-0.85 4.7 0.85 3.65 Q2.8 2.7 3.7 2.75 L3.5 2.15 3.25 2.05 Z" fill="none" stroke="#131313" stroke-linecap="round" stroke-linejoin="round" stroke-width="1.05"/>
    <path d="M8.1 11.95 L2.4 13.85 2.15 13.0 1.85 12.6 7.45 10.55 8.0 11.35 8.1 11.95" fill="#131313" fill-rule="evenodd" stroke="none"/>
    <path d="M8.1 11.95 L2.4 13.85 2.15 13.0 1.85 12.6 7.45 10.55 8.0 11.35 8.1 11.95 Z" fill="none" stroke="#131313" stroke-linecap="round" stroke-linejoin="round" stroke-width="1.05"/>
    <path d="M3.1 -0.4 L3.15 0.5 1.8 0.45 -2.15 0.95 -2.45 0.2 3.1 -0.4" fill="#131313" fill-rule="evenodd" stroke="none"/>
    <path d="M3.1 -0.4 L-2.45 0.2 -2.15 0.95 1.8 0.45 3.15 0.5 3.1 -0.4 Z" fill="none" stroke="#131313" stroke-linecap="round" stroke-linejoin="round" stroke-width="1.05"/>
    <path d="M2.6 10.55 L3.2 9.85 3.8 8.2" fill="none" stroke="#1a1a1a" stroke-linecap="round" stroke-linejoin="round" stroke-width="1.05"/>
  </g>
</svg>
