<?xml version="1.0" encoding="UTF-8" standalone="no"?>
<svg xmlns:xlink="http://www.w3.org/1999/xlink" height="22.35px" width="15.35px" xmlns="http://www.w3.org/2000/svg">
  <g transform="matrix(1.0, 0.0, 0.0, 1.0, 6.55, 5.65)">
    <path d="M5.2 -3.5 L6.1 -1.55 Q6.65 -0.4 7.55 4.3 8.35 8.95 8.3 13.3 8.2 17.6 6.2 15.55 L4.1 13.3 Q2.65 10.55 -2.1 12.45 L-3.15 12.9 Q-5.95 8.7 -6.0 2.75 -6.2 -0.65 -4.95 -0.85 L-3.05 -1.05 Q-1.7 -1.15 0.6 -2.15 2.9 -3.15 5.2 -3.5 M5.35 6.35 Q5.45 2.45 4.45 -0.05 5.45 2.45 5.35 6.35 M3.35 5.05 Q3.5 2.8 2.45 0.55 3.5 2.8 3.35 5.05 M-1.55 10.85 L-2.55 11.05 -1.55 10.85 M-0.85 9.15 L-3.15 9.85 -0.85 9.15" fill="#cccccc" fill-rule="evenodd" stroke="none"/>
    <path d="M5.2 -3.5 Q2.9 -3.15 0.6 -2.15 -1.7 -1.15 -3.05 -1.05 L-4.95 -0.85 -4.85 -1.75 Q-4.7 -2.8 -4.2 -3.5 -3.2 -4.9 -0.8 -5.1 2.65 -5.35 5.2 -3.5 M-2.1 12.45 Q2.65 10.55 4.1 13.3 3.15 14.6 1.25 14.3 -1.0 13.95 -2.1 12.45" fill="#666666" fill-rule="evenodd" stroke="none"/>
    <path d="M2.45 0.55 Q3.5 2.8 3.35 5.05 M4.45 -0.05 Q5.45 2.45 5.35 6.35 M-3.15 9.85 L-0.85 9.15 M-2.55 11.05 L-1.55 10.85" fill="none" stroke="#666666" stroke-linecap="round" stroke-linejoin="round" stroke-width="1.0"/>
    <path d="M4.1 13.3 L6.2 15.55 Q8.2 17.6 8.3 13.3 8.35 8.95 7.55 4.3 6.65 -0.4 6.1 -1.55 L5.2 -3.5 Q2.9 -3.15 0.6 -2.15 -1.7 -1.15 -3.05 -1.05 L-4.95 -0.85 Q-6.2 -0.65 -6.0 2.75 -5.95 8.7 -3.15 12.9 L-2.1 12.45 Q2.65 10.55 4.1 13.3 3.15 14.6 1.25 14.3 -1.0 13.95 -2.1 12.45 M-4.95 -0.85 L-4.85 -1.75 Q-4.7 -2.8 -4.2 -3.5 -3.2 -4.9 -0.8 -5.1 2.65 -5.35 5.2 -3.5" fill="none" stroke="#333333" stroke-linecap="round" stroke-linejoin="round" stroke-width="1.0"/>
  </g>
</svg>
