<?xml version="1.0" encoding="UTF-8" standalone="no"?>
<svg xmlns:xlink="http://www.w3.org/1999/xlink" height="21.1px" width="11.45px" xmlns="http://www.w3.org/2000/svg">
  <g transform="matrix(1.0, 0.0, 0.0, 1.0, 2.1, 3.1)">
    <path d="M0.8 -2.6 L2.1 -2.45 Q3.7 -1.75 4.95 1.1 L6.9 9.15 6.8 9.3 6.4 9.8 6.1 10.1 Q5.15 10.9 3.7 11.2 L3.2 11.25 2.8 10.5 2.65 10.2 2.15 9.3 2.2 9.3 3.35 7.15 1.65 2.75 -0.95 3.65 -1.25 3.15 -1.6 -1.7 0.2 -2.4 0.8 -2.6 M7.3 10.95 L7.65 10.85 7.95 10.75 8.65 12.15 Q9.2 13.75 8.4 14.8 L8.35 14.85 6.8 15.25 Q5.2 15.3 4.85 13.25 4.7 12.1 6.3 11.35 L6.9 11.1 7.3 10.95 M-1.0 3.65 L-1.25 3.2 -1.25 3.15 -0.95 3.65 -1.0 3.65 M4.3 4.5 L3.65 2.05 4.3 4.5 M2.8 10.5 L3.2 11.2 Q4.95 11.0 6.1 10.05 L6.8 9.3 6.1 10.05 Q4.95 11.0 3.2 11.2 L2.8 10.5 M7.65 10.85 L6.9 11.1 7.65 10.85" fill="#b6a087" fill-rule="evenodd" stroke="none"/>
    <path d="M1.8 8.7 L1.6 8.4 1.0 7.3 0.8 6.9 0.5 6.35 -0.2 5.0 -1.0 3.65 -0.95 3.65 1.65 2.75 3.35 7.15 2.2 9.3 2.15 9.3 1.95 8.85 1.8 8.7 1.0 7.3 1.8 8.7 M-0.2 5.0 L-0.95 3.65 -0.2 5.0" fill="#836958" fill-rule="evenodd" stroke="none"/>
    <path d="M6.4 9.8 L7.3 10.95 6.9 11.1 6.3 11.35 Q4.7 12.1 4.85 13.25 5.2 15.3 6.8 15.25 L8.35 14.85 Q8.35 16.75 6.9 17.4 5.4 18.1 4.15 13.35 L3.7 11.2 Q5.15 10.9 6.1 10.1 L6.4 9.8" fill="#655c57" fill-rule="evenodd" stroke="none"/>
    <path d="M6.9 9.15 L6.8 9.3 6.1 10.05 Q4.95 11.0 3.2 11.2 L2.8 10.5 2.65 10.2 2.15 9.3 1.8 8.7 1.0 7.3 0.8 6.9 0.5 6.35 -0.2 5.0 -0.95 3.65 -1.25 3.15 -1.6 -1.7 -1.6 -1.75 0.2 -2.4 0.8 -2.6 M2.15 9.3 L2.2 9.3 3.35 7.15 1.65 2.75 -0.95 3.65 -1.0 3.65" fill="none" stroke="#433a33" stroke-linecap="round" stroke-linejoin="round" stroke-width="1.0"/>
    <path d="M0.8 -2.6 L2.1 -2.45 Q3.7 -1.8 4.95 1.05 L4.95 1.1 6.9 9.15 M7.65 10.85 L7.95 10.75 8.65 12.15 Q9.2 13.75 8.4 14.8 L8.35 14.85 6.8 15.25 Q5.2 15.3 4.85 13.25 4.7 12.1 6.3 11.35 L6.9 11.1 7.65 10.85 M3.65 2.05 L4.3 4.5" fill="none" stroke="#655447" stroke-linecap="round" stroke-linejoin="round" stroke-width="1.0"/>
    <path d="M6.4 9.8 L7.3 10.95 M8.35 14.85 Q8.35 16.75 6.9 17.4 5.4 18.1 4.15 13.35 L3.7 11.2" fill="none" stroke="#2b2a29" stroke-linecap="round" stroke-linejoin="round" stroke-width="1.0"/>
  </g>
</svg>
