<?xml version="1.0" encoding="UTF-8" standalone="no"?>
<svg xmlns:xlink="http://www.w3.org/1999/xlink" height="21.6px" width="13.55px" xmlns="http://www.w3.org/2000/svg">
  <g transform="matrix(1.0, 0.0, 0.0, 1.0, 4.9, 2.55)">
    <path d="M-3.2 6.05 L-4.4 3.85 Q-4.35 2.0 -3.3 0.15 L-2.3 -1.45 0.15 -2.0 Q2.85 -2.25 4.35 -0.1 L4.4 -0.05 Q5.7 3.0 6.4 7.6 L6.85 11.45 6.7 11.65 7.15 11.95 7.7 13.2 Q8.25 14.75 8.1 15.35 8.15 15.8 7.25 16.1 L7.2 16.15 6.15 16.3 5.15 16.15 3.4 15.4 Q2.85 14.9 2.75 13.85 L2.7 13.05 3.5 12.3 1.75 12.05 1.35 11.75 0.55 11.15 -0.15 10.55 -1.65 8.9 -3.2 6.05 M1.95 2.2 L3.6 2.9 1.95 2.2 M1.45 0.1 L3.1 0.85 1.45 0.1 M3.5 12.3 L4.2 11.9 Q5.65 11.15 6.7 11.65 5.65 11.15 4.2 11.9 L3.5 12.3 M-3.95 4.1 L-1.2 4.45 1.15 8.15 -0.15 10.55 1.15 8.15 -1.2 4.45 -3.95 4.1" fill="#595959" fill-rule="evenodd" stroke="none"/>
    <path d="M7.25 16.1 Q7.45 18.5 5.45 18.55 1.2 18.25 1.05 14.45 1.0 13.15 1.35 11.75 L1.75 12.05 3.5 12.3 2.7 13.05 2.75 13.85 Q2.85 14.9 3.4 15.4 L5.15 16.15 6.15 16.3 7.2 16.15 7.25 16.1" fill="#333333" fill-rule="evenodd" stroke="none"/>
    <path d="M-3.2 6.05 L-4.4 3.85 Q-4.35 2.0 -3.3 0.15 L-2.3 -1.45 0.15 -2.0 Q2.85 -2.25 4.35 -0.1 L4.4 -0.05 Q5.7 3.0 6.4 7.6 L6.85 11.45 6.7 11.65 7.15 11.95 7.7 13.2 Q8.25 14.75 8.1 15.35 8.15 15.8 7.25 16.1 L7.2 16.15 6.15 16.3 5.15 16.15 3.4 15.4 Q2.85 14.9 2.75 13.85 L2.7 13.05 3.5 12.3 1.75 12.05 1.35 11.75 0.55 11.15 -0.15 10.55 -1.65 8.9 M6.7 11.65 Q5.65 11.15 4.2 11.9 L3.5 12.3" fill="none" stroke="#212121" stroke-linecap="round" stroke-linejoin="round" stroke-width="1.0"/>
    <path d="M3.1 0.85 L1.45 0.1 M3.6 2.9 L1.95 2.2 M-0.15 10.55 L1.15 8.15 -1.2 4.45 -3.95 4.1" fill="none" stroke="#282828" stroke-linecap="round" stroke-linejoin="round" stroke-width="1.0"/>
    <path d="M-1.65 8.9 L-3.2 6.05" fill="none" stroke="#2ac116" stroke-linecap="round" stroke-linejoin="round" stroke-width="1.0"/>
    <path d="M7.25 16.1 Q7.45 18.5 5.45 18.55 1.2 18.25 1.05 14.45 1.0 13.15 1.35 11.75" fill="none" stroke="#181818" stroke-linecap="round" stroke-linejoin="round" stroke-width="1.0"/>
  </g>
</svg>
