<?xml version="1.0" encoding="UTF-8" standalone="no"?>
<svg xmlns:ffdec="https://www.free-decompiler.com/flash" xmlns:xlink="http://www.w3.org/1999/xlink" ffdec:objectType="shape" height="18.95px" width="11.3px" xmlns="http://www.w3.org/2000/svg">
  <g transform="matrix(1.0, 0.0, 0.0, 1.0, 1.55, -2.05)">
    <path d="M5.15 4.4 Q3.85 5.95 2.0 5.8 L3.0 8.4 1.55 10.55 -1.05 4.45 Q3.25 5.15 4.65 2.55 L5.15 4.4" fill="#575e64" fill-rule="evenodd" stroke="none"/>
    <path d="M6.95 11.75 L9.15 15.3 9.25 18.05 8.0 20.15 6.9 20.5 5.6 16.3 4.25 13.9 5.6 12.45 6.95 11.75" fill="#32373b" fill-rule="evenodd" stroke="none"/>
    <path d="M4.25 13.9 L5.6 16.3 6.9 20.5 4.2 19.3 3.1 15.15 4.25 13.9" fill="#242527" fill-rule="evenodd" stroke="none"/>
    <path d="M1.55 10.55 L-1.05 4.45 Q3.25 5.15 4.65 2.55 L5.15 4.4" fill="none" stroke="#272a2f" stroke-linecap="round" stroke-linejoin="round" stroke-width="1.0"/>
    <path d="M6.9 20.5 L8.0 20.15 9.25 18.05 9.15 15.3 6.95 11.75 M4.25 13.9 L5.6 16.3 6.9 20.5 4.2 19.3 3.1 15.15" fill="none" stroke="#0f1921" stroke-linecap="round" stroke-linejoin="round" stroke-width="1.0"/>
    <path d="M3.1 15.15 L3.0 15.2 1.15 11.1 1.55 10.55 3.0 8.4 2.0 5.8 Q3.85 5.95 5.15 4.4 L5.4 4.4 7.45 11.45 6.95 11.75 5.6 12.45 3.1 15.15 M3.5 12.55 L4.35 11.55 5.7 10.55 4.35 11.55 3.5 12.55" fill="#7c838f" fill-rule="evenodd" stroke="none"/>
    <path d="M3.1 15.15 L3.0 15.2 1.15 11.1 1.55 10.55 3.0 8.4 2.0 5.8 Q3.85 5.95 5.15 4.4 L5.4 4.4 7.45 11.45 6.95 11.75 M5.7 10.55 L4.35 11.55 3.5 12.55" fill="none" stroke="#30363c" stroke-linecap="round" stroke-linejoin="round" stroke-width="1.0"/>
    <path d="M6.95 11.75 L5.6 12.45 3.1 15.15" fill="none" stroke="#272c31" stroke-linecap="round" stroke-linejoin="round" stroke-width="1.0"/>
  </g>
</svg>
