<?xml version="1.0" encoding="UTF-8" standalone="no"?>
<svg xmlns:xlink="http://www.w3.org/1999/xlink" height="22.5px" width="11.1px" xmlns="http://www.w3.org/2000/svg">
  <g transform="matrix(1.0, 0.0, 0.0, 1.0, 4.15, 4.55)">
    <path d="M1.75 10.9 L3.05 11.3 3.45 11.4 4.25 15.0 6.15 14.85 6.15 15.1 Q5.95 18.2 3.4 17.2 1.95 16.5 1.4 14.75 0.95 13.15 1.45 11.65 L1.75 10.9" fill="#4e3e39" fill-rule="evenodd" stroke="none"/>
    <path d="M3.45 11.4 L5.05 11.65 5.65 10.25 Q6.1 10.8 6.25 11.65 L6.45 14.8 6.15 14.85 4.25 15.0 3.45 11.4" fill="#917563" fill-rule="evenodd" stroke="none"/>
    <path d="M6.15 14.85 L6.15 15.1 Q5.95 18.2 3.4 17.2 1.95 16.5 1.4 14.75 0.95 13.15 1.45 11.65 L1.75 10.9" fill="none" stroke="#252323" stroke-linecap="round" stroke-linejoin="round" stroke-width="1.0"/>
    <path d="M5.65 10.25 Q6.1 10.8 6.25 11.65 L6.45 14.8 6.15 14.85 4.25 15.0 3.45 11.4" fill="none" stroke="#56433d" stroke-linecap="round" stroke-linejoin="round" stroke-width="1.0"/>
    <path d="M1.15 -1.7 L-1.9 -0.9 -1.5 0.55 1.55 -0.25 1.15 -1.7 M3.2 -0.9 Q4.4 1.75 5.45 9.6 L4.75 11.5 3.05 11.25 2.65 11.1 1.45 10.75 0.6 10.6 -3.6 1.45 -3.65 -0.15 -3.4 -1.45 -2.45 -3.25 0.4 -4.05 1.25 -3.45 Q2.4 -2.45 3.2 -0.9 M2.25 2.1 L2.55 0.85 2.25 2.1 M2.95 5.05 L2.55 3.65 -0.15 4.35 0.25 5.75 2.95 5.05 M1.05 8.5 L3.75 7.8 3.35 6.35 0.65 7.05 1.05 8.5 M-1.0 3.0 L-2.0 2.1 -1.0 3.0" fill="#b89f8b" fill-rule="evenodd" stroke="none"/>
    <path d="M1.15 -1.7 L1.55 -0.25 -1.5 0.55 -1.9 -0.9 1.15 -1.7" fill="#e3bfa5" fill-rule="evenodd" stroke="none"/>
    <path d="M1.05 8.5 L0.65 7.05 3.35 6.35 3.75 7.8 1.05 8.5 M2.95 5.05 L0.25 5.75 -0.15 4.35 2.55 3.65 2.95 5.05" fill="#9b816f" fill-rule="evenodd" stroke="none"/>
    <path d="M3.2 -0.9 Q4.4 1.75 5.45 9.6 L4.75 11.5 3.05 11.25 2.65 11.1 1.45 10.75 0.6 10.6 -3.6 1.45 -3.65 -0.15 -3.4 -1.45 -2.45 -3.25 0.4 -4.05 1.25 -3.45 Q2.4 -2.45 3.2 -0.9 M2.55 0.85 L2.25 2.1 M-2.0 2.1 L-1.0 3.0" fill="none" stroke="#8c6e65" stroke-linecap="round" stroke-linejoin="round" stroke-width="1.0"/>
    <path d="M1.15 -1.7 L-1.9 -0.9 -1.5 0.55 1.55 -0.25 1.15 -1.7" fill="none" stroke="#95806e" stroke-linecap="round" stroke-linejoin="round" stroke-width="1.0"/>
    <path d="M2.95 5.05 L2.55 3.65 -0.15 4.35 0.25 5.75 2.95 5.05 M1.05 8.5 L3.75 7.8 3.35 6.35 0.65 7.05 1.05 8.5 Z" fill="none" stroke="#675049" stroke-linecap="round" stroke-linejoin="round" stroke-width="1.0"/>
  </g>
</svg>
