<?xml version="1.0" encoding="UTF-8" standalone="no"?>
<svg xmlns:xlink="http://www.w3.org/1999/xlink" height="22.4px" width="12.5px" xmlns="http://www.w3.org/2000/svg">
  <g transform="matrix(1.0, 0.0, 0.0, 1.0, 4.65, 3.05)">
    <path d="M1.2 11.0 L0.85 10.1 -1.35 8.5 -4.15 -0.1 Q-3.0 0.2 -1.25 -1.7 0.6 -0.9 2.0 -1.7 L3.15 -2.55 4.35 -2.3 5.75 1.4 5.65 2.9 7.35 10.05 6.4 11.5 Q4.85 12.05 4.2 12.8 L3.85 13.45 3.35 13.3 3.85 13.45 3.8 13.45 3.35 13.3 1.9 12.9 1.2 11.0 M3.0 0.6 L2.4 0.4 Q2.05 0.45 1.75 0.75 L1.65 1.4 1.9 2.0 2.6 2.15 Q2.95 2.15 3.15 1.85 L3.4 1.25 3.0 0.6 M0.75 7.25 L0.95 5.75 -0.8 0.45 -2.05 1.55 -0.6 6.3 0.75 7.25 M3.5 10.1 L5.25 8.5 3.5 10.1 M2.65 7.65 L4.45 5.95 2.65 7.65" fill="#cabaae" fill-rule="evenodd" stroke="none"/>
    <path d="M3.85 13.45 L4.2 12.8 Q4.85 12.05 6.4 11.5 L7.1 15.1 6.65 15.55 6.45 15.65 6.3 15.85 6.2 15.85 5.8 16.0 5.5 16.05 5.35 16.1 5.25 16.1 3.8 13.45 3.85 13.45 M3.0 0.6 L3.4 1.25 3.15 1.85 Q2.95 2.15 2.6 2.15 L1.9 2.0 1.65 1.4 1.75 0.75 Q2.05 0.45 2.4 0.4 L3.0 0.6" fill="#7f97ab" fill-rule="evenodd" stroke="none"/>
    <path d="M0.75 7.25 L-0.6 6.3 -2.05 1.55 -0.8 0.45 0.95 5.75 0.75 7.25" fill="#65a6db" fill-rule="evenodd" stroke="none"/>
    <path d="M1.2 11.0 L1.9 12.9 3.35 13.3 3.8 13.45 5.25 16.1 5.35 16.1 5.5 16.05 5.8 16.0 6.2 15.85 Q6.1 17.75 4.2 18.65 2.75 19.4 1.8 17.45 0.85 15.85 0.8 13.45 0.8 11.85 1.2 11.0" fill="#3c4454" fill-rule="evenodd" stroke="none"/>
    <path d="M6.4 11.5 L7.35 10.05 5.65 2.9 5.75 1.4 4.35 -2.3 3.15 -2.55 2.0 -1.7 Q0.6 -0.9 -1.25 -1.7 -3.0 0.2 -4.15 -0.1 L-1.35 8.5 0.85 10.1 1.2 11.0 1.9 12.9 3.35 13.3 3.85 13.45 4.2 12.8 Q4.85 12.05 6.4 11.5" fill="none" stroke="#635c53" stroke-linecap="round" stroke-linejoin="round" stroke-width="1.0"/>
    <path d="M6.4 11.5 L7.1 15.1 6.65 15.55 6.45 15.65 6.3 15.85 6.2 15.85 5.8 16.0 5.5 16.05 5.35 16.1 5.25 16.1 3.8 13.45 M3.0 0.6 L2.4 0.4 Q2.05 0.45 1.75 0.75 L1.65 1.4 1.9 2.0 2.6 2.15 Q2.95 2.15 3.15 1.85 L3.4 1.25 3.0 0.6" fill="none" stroke="#4e5460" stroke-linecap="round" stroke-linejoin="round" stroke-width="1.0"/>
    <path d="M4.45 5.95 L2.65 7.65 M5.25 8.5 L3.5 10.1" fill="none" stroke="#7f97ab" stroke-linecap="round" stroke-linejoin="round" stroke-width="1.0"/>
    <path d="M0.75 7.25 L-0.6 6.3 -2.05 1.55 -0.8 0.45 0.95 5.75 0.75 7.25" fill="none" stroke="#5b759d" stroke-linecap="round" stroke-linejoin="round" stroke-width="1.0"/>
    <path d="M6.2 15.85 Q6.1 17.75 4.2 18.65 2.75 19.4 1.8 17.45 0.85 15.85 0.8 13.45 0.8 11.85 1.2 11.0" fill="none" stroke="#282831" stroke-linecap="round" stroke-linejoin="round" stroke-width="1.0"/>
  </g>
</svg>
