<?xml version="1.0" encoding="UTF-8" standalone="no"?>
<svg xmlns:xlink="http://www.w3.org/1999/xlink" height="22.75px" width="13.45px" xmlns="http://www.w3.org/2000/svg">
  <g transform="matrix(1.0, 0.0, 0.0, 1.0, 3.75, 3.45)">
    <path d="M8.3 16.15 Q8.55 18.6 6.45 18.8 2.05 18.5 1.85 14.55 1.75 13.3 2.1 11.8 L2.3 11.15 2.4 11.75 4.3 12.0 4.9 11.95 3.45 13.05 3.55 14.0 Q3.65 15.05 4.25 15.5 4.8 15.95 6.05 16.2 L7.15 16.4 8.15 16.2 8.3 16.15" fill="#333333" fill-rule="evenodd" stroke="none"/>
    <path d="M2.3 11.15 L2.0 10.85 1.7 10.7 Q0.0 10.05 -0.5 8.9 L-0.8 8.2 -0.8 7.9 Q-0.8 4.45 -1.9 3.2 -3.5 1.7 -3.2 -0.15 L-2.8 -1.3 -2.5 -1.8 Q-1.9 -2.3 -0.1 -2.85 2.55 -3.45 3.7 -0.9 L3.75 -0.75 Q4.85 1.9 6.05 6.65 L7.0 10.85 6.65 11.3 Q7.45 11.4 8.0 11.9 L8.7 13.25 Q9.25 14.8 9.2 15.35 9.15 15.85 8.3 16.15 L8.15 16.2 7.15 16.4 6.05 16.2 Q4.8 15.95 4.25 15.5 3.65 15.05 3.55 14.0 L3.45 13.05 4.9 11.95 4.3 12.0 2.4 11.75 2.3 11.15 M6.65 11.3 L4.9 11.95 6.65 11.3 M0.3 2.3 L-1.4 0.15 0.3 2.3" fill="#666666" fill-rule="evenodd" stroke="none"/>
    <path d="M2.3 11.15 L2.0 10.85 1.7 10.7 Q0.0 10.05 -0.5 8.9 L-0.8 8.2 -0.8 7.9 Q-0.8 4.45 -1.9 3.2 -3.5 1.7 -3.2 -0.15 L-2.8 -1.3 -2.5 -1.8 Q-1.9 -2.3 -0.1 -2.85 2.55 -3.45 3.7 -0.9 L3.75 -0.75 Q4.85 1.9 6.05 6.65 L7.0 10.85 6.65 11.3 Q7.45 11.4 8.0 11.9 L8.7 13.25 Q9.25 14.8 9.2 15.35 9.15 15.85 8.3 16.15 L8.15 16.2 7.15 16.4 6.05 16.2 Q4.8 15.95 4.25 15.5 3.65 15.05 3.55 14.0 L3.45 13.05 4.9 11.95 6.65 11.3 M2.3 11.15 L2.4 11.75 4.3 12.0 4.9 11.95" fill="none" stroke="#212121" stroke-linecap="round" stroke-linejoin="round" stroke-width="1.0"/>
    <path d="M-1.4 0.15 L0.3 2.3" fill="none" stroke="#282828" stroke-linecap="round" stroke-linejoin="round" stroke-width="1.0"/>
    <path d="M8.3 16.15 Q8.55 18.6 6.45 18.8 2.05 18.5 1.85 14.55 1.75 13.3 2.1 11.8 L2.3 11.15" fill="none" stroke="#181818" stroke-linecap="round" stroke-linejoin="round" stroke-width="1.0"/>
  </g>
</svg>
