<?xml version="1.0" encoding="UTF-8" standalone="no"?>
<svg xmlns:xlink="http://www.w3.org/1999/xlink" height="19.55px" width="11.85px" xmlns="http://www.w3.org/2000/svg">
  <g transform="matrix(1.0, 0.0, 0.0, 1.0, 3.25, 1.25)">
    <path d="M-1.05 1.35 L-0.5 1.85 Q0.35 2.3 1.5 2.35 0.35 2.3 -0.5 1.85 L-1.05 1.35 M1.9 -0.75 Q3.15 0.95 4.8 4.9 6.3 8.4 6.95 10.9 L6.65 11.2 5.2 12.1 3.9 12.8 3.85 12.8 Q3.1 13.75 0.15 7.85 -2.6 2.2 -2.75 0.75 L-2.65 -0.2 1.9 -0.75 M1.9 7.95 L3.0 8.75 Q4.2 9.7 4.45 10.65 4.2 9.7 3.0 8.75 L1.9 7.95" fill="#bcb2a1" fill-rule="evenodd" stroke="none"/>
    <path d="M6.65 11.2 L6.7 11.2 Q7.5 12.15 7.9 13.25 8.3 14.6 7.8 15.65 L7.35 16.6 Q6.7 17.6 6.05 17.8 5.05 17.5 4.65 17.1 3.85 16.4 4.3 15.05 L4.4 14.8 4.35 14.75 4.0 13.95 Q3.75 13.2 3.9 12.8 L5.2 12.1 6.65 11.2 M7.8 15.65 L5.6 13.95 4.75 14.1 4.6 14.4 4.4 14.8 4.6 14.4 4.75 14.1 5.6 13.95 7.8 15.65" fill="#5b5b5b" fill-rule="evenodd" stroke="none"/>
    <path d="M1.5 2.35 Q0.35 2.3 -0.5 1.85 L-1.05 1.35 M4.45 10.65 Q4.2 9.7 3.0 8.75 L1.9 7.95" fill="none" stroke="#807a6d" stroke-linecap="round" stroke-linejoin="round" stroke-width="1.05"/>
    <path d="M1.9 -0.75 Q3.15 0.95 4.8 4.9 6.3 8.4 6.95 10.9 L6.65 11.2 5.2 12.1 3.9 12.8 3.85 12.8 Q3.1 13.75 0.15 7.85 -2.6 2.2 -2.75 0.75 L-2.65 -0.2" fill="none" stroke="#565149" stroke-linecap="round" stroke-linejoin="round" stroke-width="1.05"/>
    <path d="M6.65 11.2 L6.7 11.2 Q7.5 12.15 7.9 13.25 8.3 14.6 7.8 15.65 L7.35 16.6 Q6.7 17.6 6.05 17.8 5.05 17.5 4.65 17.1 3.85 16.4 4.3 15.05 L4.4 14.8 4.6 14.4 4.75 14.1 5.6 13.95 7.8 15.65 M4.35 14.75 L4.0 13.95 Q3.75 13.2 3.9 12.8" fill="none" stroke="#3d3d3d" stroke-linecap="round" stroke-linejoin="round" stroke-width="1.05"/>
  </g>
</svg>
