<?xml version="1.0" encoding="UTF-8" standalone="no"?>
<svg xmlns:xlink="http://www.w3.org/1999/xlink" height="20.55px" width="14.35px" xmlns="http://www.w3.org/2000/svg">
  <g transform="matrix(1.0, 0.0, 0.0, 1.0, 6.5, 5.6)">
    <path d="M-4.95 -0.85 Q-4.4 -1.0 -3.55 -0.45 -0.85 1.2 1.9 -1.25 3.15 -2.4 4.05 -2.7 5.05 -3.1 5.55 -2.4 6.4 -1.1 7.1 3.9 L7.3 6.05 4.75 6.85 -0.25 6.2 -1.55 3.15 -6.0 2.6 -1.55 3.15 -0.25 6.2 4.75 6.85 7.3 6.05 Q7.45 9.05 6.75 12.2 5.8 16.45 4.35 12.75 L4.1 12.3 Q2.7 9.55 -2.1 11.45 L-3.15 11.9 Q-4.6 9.7 -5.25 7.75 -5.95 5.6 -6.0 2.75 L-6.0 2.6 Q-6.15 -0.65 -4.95 -0.85" fill="#f0c468" fill-rule="evenodd" stroke="none"/>
    <path d="M4.05 -2.7 Q3.15 -2.4 1.9 -1.25 -0.85 1.2 -3.55 -0.45 -4.4 -1.0 -4.95 -0.85 L-4.85 -1.75 Q-4.7 -2.8 -4.2 -3.5 -3.2 -4.9 -0.8 -5.1 2.65 -5.35 4.05 -2.7 M4.1 12.3 Q2.6 14.5 0.7 14.0 -1.2 13.5 -2.1 11.45 2.7 9.55 4.1 12.3" fill="#1a1a1a" fill-rule="evenodd" stroke="none"/>
    <path d="M4.05 -2.7 Q3.15 -2.4 1.9 -1.25 -0.85 1.2 -3.55 -0.45 -4.4 -1.0 -4.95 -0.85 -6.15 -0.65 -6.0 2.6 L-6.0 2.75 Q-5.95 5.6 -5.25 7.75 -4.6 9.7 -3.15 11.9 L-2.1 11.45 Q2.7 9.55 4.1 12.3 L4.35 12.75 Q5.8 16.45 6.75 12.2 7.45 9.05 7.3 6.05 L7.1 3.9 Q6.4 -1.1 5.55 -2.4 5.05 -3.1 4.05 -2.7" fill="none" stroke="#513c1e" stroke-linecap="round" stroke-linejoin="round" stroke-width="1.0"/>
    <path d="M-6.0 2.6 L-1.55 3.15 -0.25 6.2 4.75 6.85 7.3 6.05" fill="none" stroke="#ab7a32" stroke-linecap="round" stroke-linejoin="round" stroke-width="1.0"/>
    <path d="M4.05 -2.7 Q2.65 -5.35 -0.8 -5.1 -3.2 -4.9 -4.2 -3.5 -4.7 -2.8 -4.85 -1.75 L-4.95 -0.85 M-2.1 11.45 Q-1.2 13.5 0.7 14.0 2.6 14.5 4.1 12.3" fill="none" stroke="#0d0d0d" stroke-linecap="round" stroke-linejoin="round" stroke-width="1.0"/>
  </g>
</svg>
