<?xml version="1.0" encoding="UTF-8" standalone="no"?>
<svg xmlns:xlink="http://www.w3.org/1999/xlink" height="20.6px" width="11.55px" xmlns="http://www.w3.org/2000/svg">
  <g transform="matrix(1.0, 0.0, 0.0, 1.0, 4.5, 2.35)">
    <path d="M-3.05 1.6 L-3.05 0.75 Q-3.1 0.0 -1.85 -1.2 -0.35 -2.05 1.3 -1.75 2.95 -1.45 3.8 0.3 L3.65 0.75 Q1.85 3.15 0.65 2.9 L-0.55 2.55 -3.05 1.6" fill="#605e4d" fill-rule="evenodd" stroke="none"/>
    <path d="M3.65 0.75 L1.7 6.25 1.95 6.45 2.35 7.0 3.05 10.0 5.35 10.15 5.4 10.5 5.5 11.6 2.8 11.4 2.5 11.5 Q2.25 11.6 2.15 12.1 1.9 12.85 1.85 14.7 L2.75 16.15 5.5 16.4 4.95 17.4 3.0 17.75 Q2.3 17.7 1.6 17.1 L1.05 16.45 0.35 14.25 0.2 12.9 0.2 10.85 1.1 10.15 0.55 7.9 -0.1 7.6 -0.6 5.6 -0.55 2.55 0.65 2.9 Q1.85 3.15 3.65 0.75" fill="#23241f" fill-rule="evenodd" stroke="none"/>
    <path d="M3.65 0.75 Q1.85 3.15 0.65 2.9 L-0.55 2.55" fill="none" stroke="#444337" stroke-linecap="round" stroke-linejoin="round" stroke-width="1.0"/>
    <path d="M5.35 10.15 L5.4 10.5 5.5 11.6 M5.5 16.4 L4.95 17.4 3.0 17.75 Q2.3 17.7 1.6 17.1 L1.05 16.45 0.35 14.25 0.2 12.9 0.2 10.85" fill="none" stroke="#171a14" stroke-linecap="round" stroke-linejoin="round" stroke-width="1.0"/>
    <path d="M-3.05 1.6 L-3.05 0.75 Q-3.1 0.0 -1.85 -1.2 -0.35 -2.05 1.3 -1.75 2.95 -1.45 3.8 0.3" fill="none" stroke="#3a392f" stroke-linecap="round" stroke-linejoin="round" stroke-width="1.0"/>
    <path d="M1.1 10.15 L-0.7 11.55 -2.15 10.2 -2.85 8.65 -3.25 7.5 -4.0 3.15 -3.15 1.6 -3.05 1.6 -0.55 2.55 -0.6 5.6 -0.1 7.6 0.55 7.9 1.1 10.15" fill="#3f3e33" fill-rule="evenodd" stroke="none"/>
    <path d="M5.65 11.6 L6.55 13.55 6.4 14.75 5.75 16.2 5.5 16.4 2.75 16.15 1.85 14.7 Q1.9 12.85 2.15 12.1 2.25 11.6 2.5 11.5 L2.8 11.4 5.1 11.55 5.5 11.6 5.65 11.6" fill="#605e4d" fill-rule="evenodd" stroke="none"/>
    <path d="M1.1 10.15 L-0.7 11.55 -2.15 10.2 -2.85 8.65 -3.25 7.5 -4.0 3.15 -3.15 1.6 -3.05 1.6 -0.55 2.55 -0.6 5.6 -0.1 7.6 0.55 7.9 1.1 10.15" fill="none" stroke="#36352c" stroke-linecap="round" stroke-linejoin="round" stroke-width="1.0"/>
    <path d="M5.1 11.55 L2.8 11.4 2.5 11.5 Q2.25 11.6 2.15 12.1 1.9 12.85 1.85 14.7 L2.75 16.15 5.5 16.4 5.75 16.2 6.4 14.75 6.55 13.55 5.65 11.6" fill="none" stroke="#444337" stroke-linecap="round" stroke-linejoin="round" stroke-width="1.0"/>
    <path d="M3.8 0.3 L4.95 2.85 Q5.35 3.85 5.9 10.15 L3.05 10.0 2.35 7.0 1.95 6.45 1.7 6.25 3.8 0.3" fill="#4e4d3f" fill-rule="evenodd" stroke="none"/>
    <path d="M3.8 0.3 L1.7 6.25 1.95 6.45 2.35 7.0 3.05 10.0 5.9 10.15" fill="none" stroke="#444337" stroke-linecap="round" stroke-linejoin="round" stroke-width="1.0"/>
    <path d="M5.9 10.15 Q5.35 3.85 4.95 2.85 L3.8 0.3" fill="none" stroke="#2c2b24" stroke-linecap="round" stroke-linejoin="round" stroke-width="1.0"/>
  </g>
</svg>
