<?xml version="1.0" encoding="UTF-8" standalone="no"?>
<svg xmlns:ffdec="https://www.free-decompiler.com/flash" xmlns:xlink="http://www.w3.org/1999/xlink" ffdec:objectType="shape" height="23.95px" width="16.3px" xmlns="http://www.w3.org/2000/svg">
  <g transform="matrix(1.0, 0.0, 0.0, 1.0, 9.1, 8.0)">
    <path d="M1.85 10.05 L1.8 12.0 Q1.5 14.05 0.5 14.75 -0.75 15.55 -2.5 15.4 -4.35 15.2 -5.4 14.15 -6.35 13.25 -6.5 10.85 L-6.45 8.6 1.85 10.05" fill="#0f152e" fill-rule="evenodd" stroke="none"/>
    <path d="M1.85 10.05 L-6.45 8.6 -6.5 10.85 Q-6.35 13.25 -5.4 14.15 -4.35 15.2 -2.5 15.4 -0.75 15.55 0.5 14.75 1.5 14.05 1.8 12.0 L1.85 10.05 Z" fill="none" stroke="#080b19" stroke-linecap="round" stroke-linejoin="round" stroke-width="0.9500000000000001"/>
    <path d="M2.95 10.0 L-1.5 13.05 -5.45 12.0 -5.05 5.75 -6.85 0.65 Q-5.6 -1.1 -4.45 -2.95 L-0.45 -4.1 3.1 -2.15 3.95 -0.75 Q4.85 0.8 4.9 1.6 5.15 3.0 4.4 5.75 L2.95 10.0" fill="#0f152e" fill-rule="evenodd" stroke="none"/>
    <path d="M2.95 10.0 L-1.5 13.05 -5.45 12.0 -5.05 5.75 -6.85 0.65 Q-5.6 -1.1 -4.45 -2.95 L-0.45 -4.1 3.1 -2.15 3.95 -0.75 Q4.85 0.8 4.9 1.6 5.15 3.0 4.4 5.75 L2.95 10.0 Z" fill="none" stroke="#080b19" stroke-linecap="round" stroke-linejoin="round" stroke-width="0.9500000000000001"/>
    <path d="M-8.05 4.6 L-3.6 8.55 -3.75 11.7 Q-3.8 12.9 -4.2 14.75 L-7.0 13.3 -8.65 10.55 -8.05 4.6" fill="#1c1c1c" fill-rule="evenodd" stroke="none"/>
    <path d="M-8.05 4.6 L-3.6 8.55 -3.75 11.7 Q-3.8 12.9 -4.2 14.75 L-7.0 13.3 -8.65 10.55 -8.05 4.6 Z" fill="none" stroke="#121212" stroke-linecap="round" stroke-linejoin="round" stroke-width="0.9500000000000001"/>
    <path d="M0.8 15.5 L-2.15 15.4 -0.15 4.85 3.9 5.15 4.8 6.35 0.8 15.5" fill="#282828" fill-rule="evenodd" stroke="none"/>
    <path d="M0.8 15.5 L-2.15 15.4 -0.15 4.85 3.9 5.15 4.8 6.35 0.8 15.5 Z" fill="none" stroke="#121212" stroke-linecap="round" stroke-linejoin="round" stroke-width="0.9500000000000001"/>
    <path d="M3.2 6.95 L1.85 10.05" fill="none" stroke="#121212" stroke-linecap="round" stroke-linejoin="round" stroke-width="0.9500000000000001"/>
    <path d="M-6.55 5.9 L-8.6 4.0 -7.55 0.7 -3.8 2.95 -2.45 5.9 -4.05 11.15 -6.6 9.45 -6.55 5.9" fill="#282828" fill-rule="evenodd" stroke="none"/>
    <path d="M-6.55 5.9 L-8.6 4.0 -7.55 0.7 -3.8 2.95 -2.45 5.9 -4.05 11.15 -6.6 9.45 -6.55 5.9 Z" fill="none" stroke="#121212" stroke-linecap="round" stroke-linejoin="round" stroke-width="0.9500000000000001"/>
    <path d="M4.75 6.1 L-1.75 4.55 -3.1 1.55 -6.85 -0.75 -6.85 -5.3 -2.1 -7.55 4.45 -3.2 6.75 3.0 4.75 6.1" fill="#282828" fill-rule="evenodd" stroke="none"/>
    <path d="M4.75 6.1 L-1.75 4.55 -3.1 1.55 -6.85 -0.75 -6.85 -5.3 -2.1 -7.55 4.45 -3.2 6.75 3.0 4.75 6.1 Z" fill="none" stroke="#121212" stroke-linecap="round" stroke-linejoin="round" stroke-width="0.9500000000000001"/>
    <path d="M1.6 -2.45 L1.95 -1.7 1.9 -0.3 1.8 -0.05 1.45 -0.05 1.3 0.2 0.9 0.05 0.8 0.45 0.5 0.4 0.4 0.75 0.1 0.9 -0.05 1.1 -0.4 1.1 -2.25 0.9 -2.15 0.6 -2.4 0.7 -2.4 0.5 -2.65 0.6 -2.3 -0.2 -2.05 -0.6 -1.75 -0.85 -1.85 -1.15 -2.75 -1.0 -2.85 -0.8 -2.85 -0.6 -2.9 -0.6 -3.0 -0.75 -3.1 -1.05 -3.1 -1.3 -3.0 -1.5 -2.8 -1.8 -2.45 -2.1 -2.05 -2.25 -2.0 -2.45 -1.9 -2.65 -1.5 -2.9 -1.0 -3.15 -0.45 -3.2 -0.3 -3.3 0.4 -3.3 0.8 -3.2 1.25 -2.8 1.6 -2.45" fill="#3e3e3e" fill-rule="evenodd" stroke="none"/>
    <path d="M4.15 -2.9 L4.35 -2.2 3.5 -2.4 -2.05 -6.1 -5.7 -4.4 -5.85 -0.75 -6.45 -0.85 -6.45 -5.05 -2.1 -7.1 4.15 -2.9" fill="#2f2f2f" fill-rule="evenodd" stroke="none"/>
  </g>
</svg>
