<?xml version="1.0" encoding="UTF-8" standalone="no"?>
<svg xmlns:xlink="http://www.w3.org/1999/xlink" height="17.2px" width="20.1px" xmlns="http://www.w3.org/2000/svg">
  <g transform="matrix(1.0, 0.0, 0.0, 1.0, 8.25, 9.65)">
    <path d="M8.45 3.65 L8.5 3.65 Q9.9 3.25 10.85 4.65 11.8 6.05 10.9 6.15 L9.1 6.4 6.85 6.85 2.75 7.0 Q-0.05 6.75 -5.25 7.05 -6.55 7.1 -6.95 6.65 -7.35 6.25 -7.65 4.8 -8.0 3.0 -7.2 2.65 -7.25 2.55 -7.1 2.6 L-6.85 2.55 -4.45 2.45 Q-0.65 2.45 2.0 3.8 L5.4 4.2 8.35 3.65 8.45 3.65" fill="#333333" fill-rule="evenodd" stroke="none"/>
    <path d="M-5.25 -8.65 L-3.0 -9.15 -3.75 -4.35 -6.1 -4.5 -5.25 -8.65 M-6.25 1.25 Q-6.85 -0.9 -6.5 -2.4 L-4.3 -2.25 -3.9 0.8 -6.25 1.25" fill="#4b0101" fill-rule="evenodd" stroke="none"/>
    <path d="M-6.1 -4.5 L-3.75 -4.35 -3.0 -9.15 0.85 -7.45 Q2.95 -2.35 4.7 0.15 L5.7 1.45 Q6.9 2.8 8.45 3.65 L8.35 3.65 5.4 4.2 2.0 3.8 Q-0.65 2.45 -4.45 2.45 L-6.85 2.55 -7.1 2.6 -7.3 1.4 -6.25 1.25 -3.9 0.8 -4.3 -2.25 -6.5 -2.4 -7.75 -2.45 -7.4 -4.6 -6.1 -4.5 M0.45 -1.95 L1.8 0.55 5.7 1.45 1.8 0.55 0.45 -1.95" fill="#760101" fill-rule="evenodd" stroke="none"/>
    <path d="M-3.0 -9.15 L-5.25 -8.65 M-6.1 -4.5 L-3.75 -4.35 -3.0 -9.15 0.85 -7.45 Q2.95 -2.35 4.7 0.15 L5.7 1.45 Q6.9 2.8 8.45 3.65 L8.35 3.65 5.4 4.2 2.0 3.8 Q-0.65 2.45 -4.45 2.45 L-6.85 2.55 -7.1 2.6 -7.3 1.4 -6.25 1.25 -3.9 0.8 -4.3 -2.25 -6.5 -2.4 -7.75 -2.45 -7.4 -4.6 -6.1 -4.5 M5.7 1.45 L1.8 0.55 0.45 -1.95" fill="none" stroke="#2b0000" stroke-linecap="round" stroke-linejoin="round" stroke-width="1.0"/>
    <path d="M-5.25 -8.65 L-6.1 -4.5 M-6.25 1.25 Q-6.85 -0.9 -6.5 -2.4" fill="none" stroke="#290101" stroke-linecap="round" stroke-linejoin="round" stroke-width="1.0"/>
    <path d="M8.45 3.65 L8.5 3.65 Q9.9 3.25 10.85 4.65 11.8 6.05 10.9 6.15 L9.1 6.4 6.85 6.85 2.75 7.0 Q-0.05 6.75 -5.25 7.05 -6.55 7.1 -6.95 6.65 -7.35 6.25 -7.65 4.8 -8.0 3.0 -7.2 2.65 -7.25 2.55 -7.1 2.6" fill="none" stroke="#151515" stroke-linecap="round" stroke-linejoin="round" stroke-width="1.0"/>
  </g>
</svg>
