<?xml version="1.0" encoding="UTF-8" standalone="no"?>
<svg xmlns:xlink="http://www.w3.org/1999/xlink" height="19.6px" width="12.85px" xmlns="http://www.w3.org/2000/svg">
  <g transform="matrix(1.0, 0.0, 0.0, 1.0, 5.75, 5.6)">
    <path d="M-0.8 -5.1 Q3.3 -5.4 5.25 -0.55 7.15 4.3 6.35 9.65 L5.9 11.35 Q4.5 14.55 0.15 12.95 -8.5 -0.7 -3.25 -4.35 -2.3 -5.0 -0.8 -5.1 M-3.6 2.35 L-1.85 6.7 0.8 5.7 -0.3 1.1 -3.6 2.35 -0.3 1.1 0.8 5.7 -1.85 6.7 -3.6 2.35 M1.4 -3.4 Q5.3 -0.85 5.9 11.35 5.3 -0.85 1.4 -3.4" fill="#cccccc" fill-rule="evenodd" stroke="none"/>
    <path d="M-0.8 -5.1 Q3.3 -5.4 5.25 -0.55 7.15 4.3 6.35 9.65 L5.9 11.35 Q4.5 14.55 0.15 12.95 -8.5 -0.7 -3.25 -4.35 -2.3 -5.0 -0.8 -5.1" fill="none" stroke="#777777" stroke-linecap="round" stroke-linejoin="round" stroke-width="1.0"/>
    <path d="M5.9 11.35 Q5.3 -0.85 1.4 -3.4" fill="none" stroke="#444444" stroke-linecap="round" stroke-linejoin="round" stroke-width="1.0"/>
    <path d="M-3.6 2.35 L-0.3 1.1 0.8 5.7 -1.85 6.7 -3.6 2.35" fill="none" stroke="#999999" stroke-linecap="round" stroke-linejoin="round" stroke-width="1.0"/>
  </g>
</svg>
