<?xml version="1.0" encoding="UTF-8" standalone="no"?>
<svg xmlns:ffdec="https://www.free-decompiler.com/flash" xmlns:xlink="http://www.w3.org/1999/xlink" ffdec:objectType="shape" height="19.55px" width="11.85px" xmlns="http://www.w3.org/2000/svg">
  <g transform="matrix(1.0, 0.0, 0.0, 1.0, 3.3, 1.25)">
    <path d="M7.8 15.65 L4.3 14.75 3.95 13.95 Q3.65 13.1 3.85 12.7 4.8 10.75 6.65 11.25 7.5 12.15 7.85 13.3 8.3 14.65 7.8 15.65" fill="#5b5b5b" fill-rule="evenodd" stroke="none"/>
    <path d="M4.3 14.75 L3.95 13.95 Q3.65 13.1 3.85 12.7 4.8 10.75 6.65 11.25 7.5 12.15 7.85 13.3 8.3 14.65 7.8 15.65" fill="none" stroke="#3d3d3d" stroke-linecap="round" stroke-linejoin="round" stroke-width="1.05"/>
    <path d="M4.75 14.1 L5.6 13.9 7.8 15.65 7.3 16.6 Q6.7 17.6 6.0 17.8 5.0 17.5 4.6 17.15 3.85 16.4 4.25 15.05 L4.55 14.4 4.75 14.1" fill="#5b5b5b" fill-rule="evenodd" stroke="none"/>
    <path d="M4.75 14.1 L4.55 14.4 4.25 15.05 Q3.85 16.4 4.6 17.15 5.0 17.5 6.0 17.8 6.7 17.6 7.3 16.6 L7.8 15.65 5.6 13.9 4.75 14.1 Z" fill="none" stroke="#3d3d3d" stroke-linecap="round" stroke-linejoin="round" stroke-width="1.05"/>
    <path d="M1.9 -0.75 Q3.15 0.95 4.8 4.9 6.25 8.4 6.9 10.9 L5.2 12.1 3.8 12.8 Q3.05 13.8 0.15 7.85 -2.6 2.2 -2.8 0.75 L-2.65 -0.2 1.9 -0.75" fill="#908e82" fill-rule="evenodd" stroke="none"/>
    <path d="M1.9 -0.75 Q3.15 0.95 4.8 4.9 6.25 8.4 6.9 10.9 L5.2 12.1 3.8 12.8 Q3.05 13.8 0.15 7.85 -2.6 2.2 -2.8 0.75 L-2.65 -0.2" fill="none" stroke="#4b4b3e" stroke-linecap="round" stroke-linejoin="round" stroke-width="1.05"/>
    <path d="M1.5 2.35 Q0.3 2.3 -0.5 1.85 L-1.1 1.35" fill="none" stroke="#6c6c5e" stroke-linecap="round" stroke-linejoin="round" stroke-width="1.05"/>
    <path d="M4.45 10.65 Q4.15 9.75 3.0 8.75 L1.85 7.95" fill="none" stroke="#6c6c5e" stroke-linecap="round" stroke-linejoin="round" stroke-width="1.05"/>
  </g>
</svg>
