<?xml version="1.0" encoding="UTF-8" standalone="no"?>
<svg xmlns:xlink="http://www.w3.org/1999/xlink" height="18.55px" width="11.0px" xmlns="http://www.w3.org/2000/svg">
  <g transform="matrix(1.0, 0.0, 0.0, 1.0, 2.4, 0.9)">
    <path d="M7.9 12.65 Q8.35 14.0 7.85 15.0 L4.35 14.1 4.0 13.35 Q3.7 12.45 3.9 12.05 4.85 10.1 6.7 10.6 7.5 11.5 7.9 12.65" fill="#525252" fill-rule="evenodd" stroke="none"/>
    <path d="M4.35 14.1 L4.0 13.35 Q3.7 12.45 3.9 12.05 4.85 10.1 6.7 10.6 7.5 11.5 7.9 12.65 8.35 14.0 7.85 15.0" fill="none" stroke="#373737" stroke-linecap="round" stroke-linejoin="round" stroke-width="1.05"/>
    <path d="M4.75 13.45 L5.65 13.3 7.85 15.0 7.35 15.95 Q6.7 16.95 6.05 17.15 L4.65 16.5 Q3.9 15.75 4.3 14.4 L4.6 13.8 4.75 13.45" fill="#525252" fill-rule="evenodd" stroke="none"/>
    <path d="M4.75 13.45 L4.6 13.8 4.3 14.4 Q3.9 15.75 4.65 16.5 L6.05 17.15 Q6.7 16.95 7.35 15.95 L7.85 15.0 5.65 13.3 4.75 13.45 Z" fill="none" stroke="#373737" stroke-linecap="round" stroke-linejoin="round" stroke-width="1.05"/>
    <path d="M1.6 -0.4 L2.2 0.3 Q3.5 1.9 4.85 5.35 5.95 8.15 6.65 10.85 L5.25 11.85 4.25 12.4 Q3.5 13.4 0.8 7.95 -1.75 2.9 -1.9 1.4 L-1.8 0.5 1.6 -0.4" fill="#908e82" fill-rule="evenodd" stroke="none"/>
    <path d="M-1.8 0.5 L-1.9 1.4 Q-1.75 2.9 0.8 7.95 3.5 13.4 4.25 12.4 L5.25 11.85 6.65 10.85 Q5.95 8.15 4.85 5.35 3.5 1.9 2.2 0.3 L1.6 -0.4" fill="none" stroke="#4b4b3e" stroke-linecap="round" stroke-linejoin="round" stroke-width="1.05"/>
    <path d="M2.3 3.3 Q1.1 3.3 0.3 2.8 L-0.3 2.35" fill="none" stroke="#6c6c5e" stroke-linecap="round" stroke-linejoin="round" stroke-width="1.05"/>
    <path d="M4.7 10.45 Q4.45 9.5 3.25 8.5 L2.15 7.7" fill="none" stroke="#6c6c5e" stroke-linecap="round" stroke-linejoin="round" stroke-width="1.05"/>
  </g>
</svg>
