<?xml version="1.0" encoding="UTF-8" standalone="no"?>
<svg xmlns:xlink="http://www.w3.org/1999/xlink" height="10.6px" width="21.9px" xmlns="http://www.w3.org/2000/svg">
  <g transform="matrix(1.0, 0.0, 0.0, 1.0, 7.55, 3.9)">
    <path d="M-0.75 2.8 L1.8 1.7 3.85 5.4 0.55 5.9 -0.75 2.8" fill="#996600" fill-rule="evenodd" stroke="none"/>
    <path d="M6.1 -0.05 L5.7 -0.15 4.05 2.95 7.4 5.95 3.85 5.4 1.8 1.7 -0.75 2.8 -1.4 1.2 -4.3 0.35 Q-3.7 -1.4 -0.4 -3.4 L4.55 -3.4 Q5.1 -1.15 6.1 -0.05" fill="#d27e02" fill-rule="evenodd" stroke="none"/>
    <path d="M7.4 5.95 L4.05 2.95 5.7 -0.15 6.1 -0.05 11.3 1.45 13.85 6.2 7.65 6.2 7.4 5.95 M-4.3 0.35 L-1.4 1.2 -0.75 2.8 0.55 5.9 0.65 6.2 -7.05 6.2 -6.1 1.4 -4.3 0.35" fill="#333333" fill-rule="evenodd" stroke="none"/>
    <path d="M7.4 5.95 L4.05 2.95 5.7 -0.15 6.1 -0.05 11.3 1.45 13.85 6.2 7.65 6.2 7.4 5.95 M-4.3 0.35 L-1.4 1.2 -0.75 2.8 0.55 5.9 0.65 6.2 -7.05 6.2 -6.1 1.4 -4.3 0.35" fill="none" stroke="#1a1a1a" stroke-linecap="round" stroke-linejoin="round" stroke-width="1.0"/>
    <path d="M6.1 -0.05 Q5.1 -1.15 4.55 -3.4 L-0.4 -3.4 Q-3.7 -1.4 -4.3 0.35 M3.85 5.4 L7.4 5.95 M0.55 5.9 L3.85 5.4" fill="none" stroke="#653d01" stroke-linecap="round" stroke-linejoin="round" stroke-width="1.0"/>
  </g>
</svg>
