<?xml version="1.0" encoding="UTF-8" standalone="no"?>
<svg xmlns:ffdec="https://www.free-decompiler.com/flash" xmlns:xlink="http://www.w3.org/1999/xlink" ffdec:objectType="shape" height="18.95px" width="11.05px" xmlns="http://www.w3.org/2000/svg">
  <g transform="matrix(1.0, 0.0, 0.0, 1.0, 6.65, 4.1)">
    <path d="M3.1 0.8 L2.85 1.35 2.3 1.6 1.7 1.35 1.5 0.8 1.7 0.2 2.3 0.0 2.85 0.2 3.1 0.8" fill="#ca8aff" fill-rule="evenodd" stroke="none"/>
    <path d="M-2.3 -0.2 Q-2.3 0.4 -1.8 1.0 -1.3 1.5 -0.6 1.5 0.15 1.5 0.6 1.0 1.1 0.5 1.1 -0.2 1.1 -0.9 0.6 -1.4 0.15 -1.9 -0.6 -1.9 -1.3 -1.9 -1.8 -1.4 -2.3 -0.8 -2.3 -0.2 M-2.35 -2.7 Q-0.65 -4.0 1.7 -3.4 4.15 -2.85 3.85 -0.05 L3.75 1.9 Q2.75 3.75 1.9 4.3 0.65 5.25 -0.75 4.85 -2.15 4.45 -2.95 2.85 L-3.7 0.25 Q-4.0 -1.45 -2.35 -2.7 M1.7 0.2 L1.5 0.8 1.7 1.35 2.3 1.6 2.85 1.35 3.1 0.8 2.85 0.2 2.3 0.0 1.7 0.2" fill="url(#gradient0)" fill-rule="evenodd" stroke="none"/>
    <path d="M1.1 -0.2 Q1.1 0.5 0.6 1.0 0.15 1.5 -0.6 1.5 -1.3 1.5 -1.8 1.0 -2.3 0.4 -2.3 -0.2 -2.3 -0.8 -1.8 -1.4 -1.3 -1.9 -0.6 -1.9 0.15 -1.9 0.6 -1.4 1.1 -0.9 1.1 -0.2" fill="#2e2e2e" fill-rule="evenodd" stroke="none"/>
    <path d="M3.5 3.1 L1.35 8.15 Q0.85 9.3 0.3 11.0 -0.35 12.55 -1.9 14.0 -3.55 15.5 -4.6 10.35 L-3.65 2.8 Q-3.95 1.0 -3.7 0.25 L-2.95 2.85 Q-2.15 4.45 -0.75 4.85 0.65 5.25 1.9 4.3 2.75 3.75 3.75 1.95 L3.5 3.1" fill="#181818" fill-rule="evenodd" stroke="none"/>
    <path d="M3.75 1.85 L3.5 3.1 1.35 8.15 Q0.85 9.3 0.3 11.0 -0.35 12.55 -1.9 14.0 -3.55 15.5 -4.6 10.35 L-3.65 2.8 Q-3.95 1.0 -3.7 0.25" fill="none" stroke="#070a0a" stroke-linecap="round" stroke-linejoin="round" stroke-width="1.0"/>
    <path d="M1.1 -0.2 Q1.1 0.5 0.6 1.0 0.15 1.5 -0.6 1.5 -1.3 1.5 -1.8 1.0 -2.3 0.4 -2.3 -0.2 -2.3 -0.8 -1.8 -1.4 -1.3 -1.9 -0.6 -1.9 0.15 -1.9 0.6 -1.4 1.1 -0.9 1.1 -0.2 Z" fill="none" stroke="#19151e" stroke-linecap="round" stroke-linejoin="round" stroke-width="1.0"/>
    <path d="M3.1 0.8 L2.85 1.35 2.3 1.6 1.7 1.35 1.5 0.8 1.7 0.2 2.3 0.0 2.85 0.2 3.1 0.8 Z" fill="none" stroke="#19151e" stroke-linecap="round" stroke-linejoin="round" stroke-width="1.0"/>
    <path d="M-3.7 0.25 L-2.95 2.85 Q-2.15 4.45 -0.75 4.85 0.65 5.25 1.9 4.3 2.75 3.75 3.75 1.9" fill="none" stroke="#0c1113" stroke-linecap="round" stroke-linejoin="round" stroke-width="1.0"/>
    <path d="M-3.7 0.25 Q-4.0 -1.45 -2.35 -2.7 -0.65 -4.0 1.7 -3.4 4.15 -2.85 3.85 -0.05 L3.75 1.9 Q1.1 5.7 -0.35 5.5 -1.9 5.25 -3.7 0.25 Z" fill="none" stroke="#0a0a0a" stroke-linecap="round" stroke-linejoin="round" stroke-width="1.0"/>
    <path d="M1.8 10.8 Q0.9 9.35 -1.3 8.9 -4.1 8.5 -5.8 9.3 -6.35 6.15 -6.05 2.9 -5.6 -5.35 -3.8 0.7 -2.0 6.8 3.05 5.05 3.15 8.45 1.8 10.8" fill="url(#gradient1)" fill-rule="evenodd" stroke="none"/>
    <path d="M1.8 10.8 Q0.9 9.35 -1.3 8.9 -4.1 8.5 -5.8 9.3 -6.35 6.15 -6.05 2.9 -5.6 -5.35 -3.8 0.7 -2.0 6.8 3.05 5.05 3.15 8.45 1.8 10.8 Z" fill="none" stroke="#070707" stroke-linecap="round" stroke-linejoin="round" stroke-width="1.0"/>
  </g>
  <defs>
    <radialGradient cx="0" cy="0" gradientTransform="matrix(0.0255, 0.0, 0.0, 0.0255, -2.6, 16.8)" gradientUnits="userSpaceOnUse" id="gradient0" r="819.2" spreadMethod="pad">
      <stop offset="0.0" stop-color="#161616"/>
      <stop offset="0.6588235294117647" stop-color="#191919"/>
      <stop offset="1.0" stop-color="#434343"/>
    </radialGradient>
    <radialGradient cx="0" cy="0" gradientTransform="matrix(0.0225, 0.0, 0.0, 0.0225, -14.6, 10.2)" gradientUnits="userSpaceOnUse" id="gradient1" r="819.2" spreadMethod="pad">
      <stop offset="0.0" stop-color="#0e0e0e"/>
      <stop offset="0.6588235294117647" stop-color="#1d1d1d"/>
      <stop offset="1.0" stop-color="#3a3a3a"/>
    </radialGradient>
  </defs>
</svg>
