<?xml version="1.0" encoding="UTF-8" standalone="no"?>
<svg xmlns:xlink="http://www.w3.org/1999/xlink" height="18.55px" width="11.0px" xmlns="http://www.w3.org/2000/svg">
  <g transform="matrix(1.0, 0.0, 0.0, 1.0, 2.4, 1.5)">
    <path d="M7.9 12.05 Q8.35 13.4 7.9 14.4 L4.4 13.5 4.05 12.75 Q3.75 11.85 3.95 11.45 4.85 9.5 6.75 10.0 7.55 10.9 7.9 12.05" fill="#525252" fill-rule="evenodd" stroke="none"/>
    <path d="M4.4 13.5 L4.05 12.75 Q3.75 11.85 3.95 11.45 4.85 9.5 6.75 10.0 7.55 10.9 7.9 12.05 8.35 13.4 7.9 14.4" fill="none" stroke="#373737" stroke-linecap="round" stroke-linejoin="round" stroke-width="1.05"/>
    <path d="M4.8 12.85 L5.65 12.7 7.9 14.4 7.4 15.35 Q6.75 16.35 6.1 16.55 L4.7 15.9 Q3.9 15.2 4.35 13.8 L4.6 13.2 4.8 12.85" fill="#525252" fill-rule="evenodd" stroke="none"/>
    <path d="M4.8 12.85 L4.6 13.2 4.35 13.8 Q3.9 15.2 4.7 15.9 L6.1 16.55 Q6.75 16.35 7.4 15.35 L7.9 14.4 5.65 12.7 4.8 12.85 Z" fill="none" stroke="#373737" stroke-linecap="round" stroke-linejoin="round" stroke-width="1.05"/>
    <path d="M2.25 -0.3 Q3.5 1.3 4.85 4.75 5.95 7.55 6.7 10.25 L5.3 11.25 4.3 11.8 Q3.55 12.8 0.85 7.35 -1.7 2.25 -1.9 0.8 L-1.75 -0.1 1.65 -1.0 2.25 -0.3" fill="#bcb2a1" fill-rule="evenodd" stroke="none"/>
    <path d="M-1.75 -0.1 L-1.9 0.8 Q-1.7 2.25 0.85 7.35 3.55 12.8 4.3 11.8 L5.3 11.25 6.7 10.25 Q5.95 7.55 4.85 4.75 3.5 1.3 2.25 -0.3 L1.65 -1.0" fill="none" stroke="#565149" stroke-linecap="round" stroke-linejoin="round" stroke-width="1.05"/>
    <path d="M2.3 2.7 Q1.15 2.7 0.3 2.2 L-0.25 1.75" fill="none" stroke="#807a6d" stroke-linecap="round" stroke-linejoin="round" stroke-width="1.05"/>
    <path d="M4.75 9.85 Q4.5 8.9 3.3 7.9 L2.15 7.1" fill="none" stroke="#807a6d" stroke-linecap="round" stroke-linejoin="round" stroke-width="1.05"/>
  </g>
</svg>
