<?xml version="1.0" encoding="UTF-8" standalone="no"?>
<svg xmlns:xlink="http://www.w3.org/1999/xlink" height="22.65px" width="17.35px" xmlns="http://www.w3.org/2000/svg">
  <g transform="matrix(1.0, 0.0, 0.0, 1.0, 8.9, 4.8)">
    <path d="M-3.5 10.0 L-4.1 10.0 Q-5.45 7.1 -5.75 1.95 L-8.4 -2.4 -7.1 -4.05 -3.55 -4.3 0.55 -1.8 4.1 -1.85 6.5 -0.05 7.55 4.4 6.75 5.65 7.95 7.25 7.95 12.55 6.35 13.35 5.4 13.4 0.95 13.05 -1.8 10.0 -3.5 10.0 M0.45 8.2 Q0.55 4.9 -0.7 2.0 L-4.0 1.75 -0.7 2.0 0.15 0.15 -0.7 2.0 Q0.55 4.9 0.45 8.2" fill="#435f62" fill-rule="evenodd" stroke="none"/>
    <path d="M5.4 13.4 L2.15 16.8 -0.75 16.85 Q-2.45 15.75 -2.85 14.75 -3.25 13.75 -3.5 10.0 L-1.8 10.0 0.95 13.05 5.4 13.4" fill="#1e282a" fill-rule="evenodd" stroke="none"/>
    <path d="M-3.5 10.0 L-4.1 10.0 Q-5.45 7.1 -5.75 1.95 L-8.4 -2.4 -7.1 -4.05 -3.55 -4.3 0.55 -1.8 4.1 -1.85 6.5 -0.05 7.55 4.4 6.75 5.65 7.95 7.25 7.95 12.55 6.35 13.35 5.4 13.4 0.95 13.05 -1.8 10.0 -3.5 10.0" fill="none" stroke="#1c3131" stroke-linecap="round" stroke-linejoin="round" stroke-width="1.0"/>
    <path d="M5.4 13.4 L2.15 16.8 -0.75 16.85 Q-2.45 15.75 -2.85 14.75 -3.25 13.75 -3.5 10.0" fill="none" stroke="#0e1819" stroke-linecap="round" stroke-linejoin="round" stroke-width="1.0"/>
    <path d="M-4.0 1.75 L-0.7 2.0 0.15 0.15 M-0.7 2.0 Q0.55 4.9 0.45 8.2" fill="none" stroke="#2e3e45" stroke-linecap="round" stroke-linejoin="round" stroke-width="1.0"/>
  </g>
</svg>
