<?xml version="1.0" encoding="UTF-8" standalone="no"?>
<svg xmlns:ffdec="https://www.free-decompiler.com/flash" xmlns:xlink="http://www.w3.org/1999/xlink" ffdec:objectType="shape" height="20.1px" width="12.5px" xmlns="http://www.w3.org/2000/svg">
  <g transform="matrix(1.0, 0.0, 0.0, 1.0, 7.2, 4.4)">
    <path d="M4.8 4.6 Q3.8 7.3 1.4 11.35 L0.5 10.9 -3.25 9.85 -3.55 8.25 -5.0 6.0 -6.7 5.0 Q-5.85 -2.7 -1.05 -3.85 1.4 -4.15 3.4 -3.0 L2.2 -0.8 2.45 2.85 4.05 4.0 4.8 4.6" fill="url(#gradient0)" fill-rule="evenodd" stroke="none"/>
    <path d="M4.05 4.0 L2.45 2.85 2.2 -0.8 2.75 -1.95 Q4.2 -0.9 4.6 0.75 4.8 2.15 4.05 4.0 M-2.7 15.15 Q-5.3 14.25 -5.4 12.45 L-5.0 6.0 -3.55 8.25 -3.25 9.85 0.5 10.9 Q0.0 15.0 -1.7 15.2 L-2.7 15.15" fill="#1a1a1a" fill-rule="evenodd" stroke="none"/>
    <path d="M0.5 10.9 Q0.0 15.0 -1.7 15.2 L-2.7 15.15 Q-5.3 14.25 -5.4 12.45 L-5.0 6.0 M4.05 4.0 Q4.8 2.15 4.6 0.75 4.2 -0.9 2.75 -1.95" fill="none" stroke="#000000" stroke-linecap="round" stroke-linejoin="round" stroke-width="1.0"/>
    <path d="M-1.85 3.35 L-1.3 2.8 -1.05 2.65 -0.25 1.95 -0.85 1.55 M-1.3 2.8 L-0.25 3.7 M1.1 3.2 L-0.25 1.95" fill="none" stroke="#ff4444" stroke-linecap="round" stroke-linejoin="round" stroke-width="1.0"/>
    <path d="M0.5 10.9 L1.4 11.35 Q3.8 7.3 4.8 4.6 L4.05 4.0 M2.75 -1.95 L3.4 -3.0 Q1.4 -4.15 -1.05 -3.85 -5.85 -2.7 -6.7 5.0 L-5.0 6.0" fill="none" stroke="#080808" stroke-linecap="round" stroke-linejoin="round" stroke-width="1.0"/>
    <path d="M-2.6 0.85 Q-2.55 0.1 -1.4 -0.75 M-1.95 -1.9 Q-3.25 -1.45 -3.8 0.15" fill="none" stroke="#1b1212" stroke-linecap="round" stroke-linejoin="round" stroke-width="1.0"/>
    <path d="M0.85 6.1 L2.15 7.05 M1.55 4.5 L2.9 5.6" fill="none" stroke="#1b1212" stroke-linecap="round" stroke-linejoin="round" stroke-width="1.0"/>
    <path d="M-2.75 1.95 L-4.2 1.2 -5.15 4.2 -3.75 4.9 -2.75 1.95 Z" fill="none" stroke="#1b1212" stroke-linecap="round" stroke-linejoin="round" stroke-width="1.0"/>
    <path d="M-5.0 6.0 L-3.55 8.25 -3.25 9.85 0.5 10.9 M4.05 4.0 L2.45 2.85 2.2 -0.8 2.75 -1.95" fill="none" stroke="#150d0d" stroke-linecap="round" stroke-linejoin="round" stroke-width="1.0"/>
  </g>
  <defs>
    <linearGradient gradientTransform="matrix(0.0038, 1.0E-4, -1.0E-4, 0.0038, 0.25, 3.7)" gradientUnits="userSpaceOnUse" id="gradient0" spreadMethod="pad" x1="-819.2" x2="819.2">
      <stop offset="0.0" stop-color="#3b2424"/>
      <stop offset="1.0" stop-color="#6e4747"/>
    </linearGradient>
  </defs>
</svg>
