<?xml version="1.0" encoding="UTF-8" standalone="no"?>
<svg xmlns:xlink="http://www.w3.org/1999/xlink" height="20.1px" width="14.05px" xmlns="http://www.w3.org/2000/svg">
  <g transform="matrix(1.0, 0.0, 0.0, 1.0, 5.25, 1.5)">
    <path d="M8.1 13.55 Q8.55 14.9 8.05 15.95 L4.55 15.0 4.2 14.2 Q3.9 13.35 4.1 12.95 5.05 11.0 6.9 11.45 7.75 12.4 8.1 13.55" fill="#3b3b3b" fill-rule="evenodd" stroke="none"/>
    <path d="M4.55 15.0 L4.2 14.2 Q3.9 13.35 4.1 12.95 5.05 11.0 6.9 11.45 7.75 12.4 8.1 13.55 8.55 14.9 8.05 15.95" fill="none" stroke="#222222" stroke-linecap="round" stroke-linejoin="round" stroke-width="1.05"/>
    <path d="M5.0 14.4 L5.85 14.2 8.05 15.95 7.55 16.9 Q6.95 17.85 6.25 18.1 5.2 17.75 4.85 17.4 4.1 16.65 4.5 15.3 L4.8 14.7 5.0 14.4" fill="#3b3b3b" fill-rule="evenodd" stroke="none"/>
    <path d="M5.0 14.4 L4.8 14.7 4.5 15.3 Q4.1 16.65 4.85 17.4 5.2 17.75 6.25 18.1 6.95 17.85 7.55 16.9 L8.05 15.95 5.85 14.2 5.0 14.4 Z" fill="none" stroke="#1c1c1c" stroke-linecap="round" stroke-linejoin="round" stroke-width="1.05"/>
    <path d="M0.45 8.25 Q-2.3 2.6 -2.5 1.1 L-2.35 0.2 2.2 -0.35 Q3.45 1.3 5.1 5.3 6.6 8.85 7.25 11.35 6.7 12.35 5.7 12.7 L4.15 13.2 Q3.4 14.2 0.45 8.25" fill="#586254" fill-rule="evenodd" stroke="none"/>
    <path d="M2.2 -0.35 Q3.45 1.3 5.1 5.3 6.6 8.85 7.25 11.35 6.7 12.35 5.7 12.7 L4.15 13.2 Q3.4 14.2 0.45 8.25 -2.3 2.6 -2.5 1.1 L-2.35 0.2" fill="none" stroke="#2a2f28" stroke-linecap="round" stroke-linejoin="round" stroke-width="1.05"/>
    <path d="M1.8 2.75 Q0.6 2.7 -0.2 2.2 L-0.8 1.7" fill="none" stroke="#434b40" stroke-linecap="round" stroke-linejoin="round" stroke-width="1.05"/>
    <path d="M4.05 9.05 Q3.8 8.1 2.6 7.15 L1.45 6.35" fill="none" stroke="#434b40" stroke-linecap="round" stroke-linejoin="round" stroke-width="1.05"/>
    <path d="M3.6 1.15 Q3.3 1.55 0.3 2.5 -2.7 3.5 -2.65 3.05 -2.6 2.3 -2.85 1.5 L-3.3 0.2 0.0 -0.35 3.35 -1.0 3.35 -0.15 Q3.3 0.8 3.6 1.15" fill="#3b3b3b" fill-rule="evenodd" stroke="none"/>
    <path d="M3.6 1.15 Q3.3 0.8 3.35 -0.15 L3.35 -1.0 0.0 -0.35 -3.3 0.2 -2.85 1.5 Q-2.6 2.3 -2.65 3.05 -2.7 3.5 0.3 2.5 3.3 1.55 3.6 1.15 Z" fill="none" stroke="#1e1e1e" stroke-linecap="round" stroke-linejoin="round" stroke-width="1.05"/>
    <path d="M0.1 1.05 L-1.8 1.35" fill="none" stroke="#1e1e1e" stroke-linecap="round" stroke-linejoin="round" stroke-width="1.05"/>
    <path d="M-4.45 -0.45 Q-1.95 -0.05 -1.65 1.5 -1.3 2.95 -3.2 4.35 -4.0 4.0 -4.5 2.4 -5.0 0.7 -4.45 -0.45" fill="#3b3b3b" fill-rule="evenodd" stroke="none"/>
    <path d="M-4.45 -0.45 Q-5.0 0.7 -4.5 2.4 -4.0 4.0 -3.2 4.35 -1.3 2.95 -1.65 1.5 -1.95 -0.05 -4.45 -0.45 Z" fill="none" stroke="#1e1e1e" stroke-linecap="round" stroke-linejoin="round" stroke-width="1.05"/>
    <path d="M1.35 3.9 L4.3 2.6" fill="none" stroke="#222222" stroke-linecap="round" stroke-linejoin="round" stroke-width="1.05"/>
    <path d="M4.7 8.4 L6.35 7.05" fill="none" stroke="#222222" stroke-linecap="round" stroke-linejoin="round" stroke-width="1.05"/>
    <path d="M1.0 2.8 L1.45 4.25 1.3 6.05 3.25 8.9 4.35 7.2 5.95 9.5 2.5 12.7 -0.7 8.25 -1.85 3.7 Q-0.8 3.55 1.0 2.8" fill="#46494c" fill-rule="evenodd" stroke="none"/>
    <path d="M1.0 2.8 Q-0.8 3.55 -1.85 3.7 L-0.7 8.25 2.5 12.7 5.95 9.5 4.35 7.2 3.25 8.9 1.3 6.05 1.45 4.25 1.0 2.8 Z" fill="none" stroke="#313336" stroke-linecap="round" stroke-linejoin="round" stroke-width="1.05"/>
    <path d="M1.7 9.1 L2.65 10.5" fill="none" stroke="#1a2337" stroke-linecap="round" stroke-linejoin="round" stroke-width="1.05"/>
  </g>
</svg>
