<?xml version="1.0" encoding="UTF-8" standalone="no"?>
<svg xmlns:ffdec="https://www.free-decompiler.com/flash" xmlns:xlink="http://www.w3.org/1999/xlink" ffdec:objectType="shape" height="19.9px" width="12.3px" xmlns="http://www.w3.org/2000/svg">
  <g transform="matrix(1.0, 0.0, 0.0, 1.0, 6.35, 5.7)">
    <path d="M-5.75 1.6 Q-5.85 0.15 -5.2 -1.25 0.0 -3.85 0.4 -5.1 3.2 -3.45 4.85 0.15 5.6 1.9 5.2 3.85 L3.3 7.35 3.1 5.95 2.35 1.7 -0.5 -0.85 -5.75 1.6" fill="#4b6c68" fill-rule="evenodd" stroke="none"/>
    <path d="M-3.4 5.65 L-4.85 4.65 Q-5.7 3.05 -5.75 1.6 L-0.5 -0.85 2.35 1.7 3.1 5.95 1.05 6.8 0.15 6.7 Q-1.75 6.45 -3.4 5.65" fill="#605c82" fill-rule="evenodd" stroke="none"/>
    <path d="M0.15 6.7 L-2.55 13.7 -4.15 13.7 -3.4 5.65 Q-1.75 6.45 0.15 6.7" fill="#5f6149" fill-rule="evenodd" stroke="none"/>
    <path d="M-5.75 1.6 Q-5.85 0.15 -5.2 -1.25 0.0 -3.85 0.4 -5.1 3.2 -3.45 4.85 0.15 5.6 1.9 5.2 3.85 L3.3 7.35 3.1 5.95 2.35 1.7 -0.5 -0.85 -5.75 1.6" fill="none" stroke="#353e40" stroke-linecap="round" stroke-linejoin="round" stroke-width="1.2000000000000002"/>
    <path d="M-3.4 5.65 L-4.85 4.65 Q-5.7 3.05 -5.75 1.6 M3.1 5.95 L1.05 6.8 0.15 6.7 Q-1.75 6.45 -3.4 5.65" fill="none" stroke="#38504a" stroke-linecap="round" stroke-linejoin="round" stroke-width="1.1"/>
    <path d="M0.15 6.7 L-2.55 13.7 -4.15 13.7 -3.4 5.65" fill="none" stroke="#403f3f" stroke-linecap="round" stroke-linejoin="round" stroke-width="1.0"/>
    <path d="M-1.55 2.85 Q0.1 3.15 0.35 5.3 0.05 7.2 -0.65 7.15 -2.15 6.75 -2.95 5.7 -3.7 4.45 -3.2 3.7 -2.5 2.65 -1.55 2.85" fill="url(#gradient0)" fill-rule="evenodd" stroke="none"/>
    <path d="M-1.55 2.85 Q-2.5 2.65 -3.2 3.7 -3.7 4.45 -2.95 5.7 -2.15 6.75 -0.65 7.15 0.05 7.2 0.35 5.3 0.1 3.15 -1.55 2.85 Z" fill="none" stroke="#353e40" stroke-linecap="round" stroke-linejoin="round" stroke-width="1.0"/>
    <path d="M-0.7 5.5 L-1.25 5.15 -1.5 4.65 -1.25 4.05 -0.6 3.85 Q-0.25 3.85 -0.05 4.1 L0.2 4.65 -0.05 5.25 -0.7 5.5" fill="url(#gradient1)" fill-rule="evenodd" stroke="none"/>
  </g>
  <defs>
    <radialGradient cx="0" cy="0" gradientTransform="matrix(0.0038, -1.0E-4, 1.0E-4, 0.0038, -1.05, 3.8)" gradientUnits="userSpaceOnUse" id="gradient0" r="819.2" spreadMethod="pad">
      <stop offset="0.0" stop-color="#436870"/>
      <stop offset="0.22745098039215686" stop-color="#456d74"/>
      <stop offset="0.5176470588235295" stop-color="#5eaeab"/>
      <stop offset="0.7411764705882353" stop-color="#6eb5b5"/>
      <stop offset="0.8470588235294118" stop-color="#c6e0f1"/>
      <stop offset="1.0" stop-color="#d4e7fb"/>
    </radialGradient>
    <radialGradient cx="0" cy="0" gradientTransform="matrix(8.0E-4, -1.0E-4, 1.0E-4, 8.0E-4, -1.3, 4.05)" gradientUnits="userSpaceOnUse" id="gradient1" r="819.2" spreadMethod="pad">
      <stop offset="0.0" stop-color="#fffff4"/>
      <stop offset="1.0" stop-color="#ffffff" stop-opacity="0.0"/>
    </radialGradient>
  </defs>
</svg>
