<?xml version="1.0" encoding="UTF-8" standalone="no"?>
<svg xmlns:ffdec="https://www.free-decompiler.com/flash" xmlns:xlink="http://www.w3.org/1999/xlink" ffdec:objectType="shape" height="18.6px" width="11.0px" xmlns="http://www.w3.org/2000/svg">
  <g transform="matrix(1.0, 0.0, 0.0, 1.0, 2.4, 1.5)">
    <path d="M7.9 12.05 Q8.3 13.4 7.85 14.45 L4.35 13.5 4.0 12.7 Q3.7 11.85 3.9 11.45 4.85 9.5 6.7 10.0 7.5 10.9 7.9 12.05" fill="#525252" fill-rule="evenodd" stroke="none"/>
    <path d="M4.35 13.5 L4.0 12.7 Q3.7 11.85 3.9 11.45 4.85 9.5 6.7 10.0 7.5 10.9 7.9 12.05 8.3 13.4 7.85 14.45" fill="none" stroke="#373737" stroke-linecap="round" stroke-linejoin="round" stroke-width="1.05"/>
    <path d="M4.8 12.9 L5.65 12.7 7.85 14.45 7.35 15.4 6.05 16.6 Q5.0 16.25 4.65 15.9 3.9 15.15 4.3 13.8 L4.6 13.2 4.8 12.9" fill="#525252" fill-rule="evenodd" stroke="none"/>
    <path d="M4.8 12.9 L4.6 13.2 4.3 13.8 Q3.9 15.15 4.65 15.9 5.0 16.25 6.05 16.6 L7.35 15.4 7.85 14.45 5.65 12.7 4.8 12.9 Z" fill="none" stroke="#373737" stroke-linecap="round" stroke-linejoin="round" stroke-width="1.05"/>
    <path d="M-1.8 -0.1 L1.6 -1.0 2.25 -0.3 Q3.45 1.35 4.85 4.8 L6.65 10.25 5.25 11.3 4.25 11.8 Q3.5 12.8 0.8 7.35 -1.75 2.25 -1.9 0.8 L-1.8 -0.1" fill="#787f72" fill-rule="evenodd" stroke="none"/>
    <path d="M-1.8 -0.1 L-1.9 0.8 Q-1.75 2.25 0.8 7.35 3.5 12.8 4.25 11.8 L5.25 11.3 6.65 10.25 4.85 4.8 Q3.45 1.35 2.25 -0.3 L1.6 -1.0" fill="none" stroke="#3b3e38" stroke-linecap="round" stroke-linejoin="round" stroke-width="1.05"/>
    <path d="M2.3 2.75 Q1.1 2.7 0.3 2.25 L-0.3 1.75" fill="none" stroke="#575d53" stroke-linecap="round" stroke-linejoin="round" stroke-width="1.05"/>
    <path d="M4.75 9.85 Q4.45 8.9 3.25 7.95 L2.1 7.15" fill="none" stroke="#575d53" stroke-linecap="round" stroke-linejoin="round" stroke-width="1.05"/>
  </g>
</svg>
