<?xml version="1.0" encoding="UTF-8" standalone="no"?>
<svg xmlns:ffdec="https://www.free-decompiler.com/flash" xmlns:xlink="http://www.w3.org/1999/xlink" ffdec:objectType="shape" height="22.2px" width="16.85px" xmlns="http://www.w3.org/2000/svg">
  <g transform="matrix(1.0, 0.0, 0.0, 1.0, 8.65, 4.6)">
    <path d="M4.3 7.65 Q5.15 7.6 3.25 11.5 1.35 15.45 -0.9 16.2 -2.55 16.8 -3.55 16.8 -5.15 16.9 -6.0 15.85 L-7.2 15.15 Q-7.95 14.8 -7.95 14.25 -8.0 11.5 -6.8 7.55 L-5.65 4.15 4.3 7.65" fill="#4c4c4c" fill-rule="evenodd" stroke="none"/>
    <path d="M4.3 7.65 L-5.65 4.15 -6.8 7.55 Q-8.0 11.5 -7.95 14.25 -7.95 14.8 -7.2 15.15 L-6.0 15.85 Q-5.15 16.9 -3.55 16.8 -2.55 16.8 -0.9 16.2 1.35 15.45 3.25 11.5 5.15 7.6 4.3 7.65 Z" fill="none" stroke="#343434" stroke-linecap="round" stroke-linejoin="round" stroke-width="1.0"/>
    <path d="M3.25 7.6 Q-0.9 7.85 -4.6 5.05 L-6.45 2.65 -5.45 -0.8 Q-3.65 -3.35 -1.2 -4.0 L2.65 -3.1 6.7 -1.3 7.5 1.0 Q7.95 2.3 7.45 3.6 L6.15 6.9 3.25 7.6" fill="#8e8984" fill-rule="evenodd" stroke="none"/>
    <path d="M3.25 7.6 Q-0.9 7.85 -4.6 5.05 L-6.45 2.65 -5.45 -0.8 Q-3.65 -3.35 -1.2 -4.0 L2.65 -3.1 6.7 -1.3 7.5 1.0 Q7.95 2.3 7.45 3.6 L6.15 6.9 3.25 7.6 Z" fill="none" stroke="#45423f" stroke-linecap="round" stroke-linejoin="round" stroke-width="1.0"/>
    <path d="M1.0 6.9 L2.75 3.2 6.95 1.65 7.45 3.6 6.15 6.9 3.55 7.75 1.0 6.9" fill="#414140" fill-opacity="0.33333334" fill-rule="evenodd" stroke="none"/>
    <path d="M-5.35 -0.85 L-5.25 -1.3 -3.35 -1.65 -1.4 1.6 -2.5 5.95 -4.6 5.05 -6.65 2.7 -5.35 -0.85" fill="#414140" fill-opacity="0.27450982" fill-rule="evenodd" stroke="none"/>
    <path d="M7.0 2.05 L2.8 3.25 1.45 6.5" fill="none" stroke="#575756" stroke-linecap="round" stroke-linejoin="round" stroke-width="1.0"/>
    <path d="M-4.1 -1.65 L-1.8 1.55 -2.85 5.3" fill="none" stroke="#575756" stroke-linecap="round" stroke-linejoin="round" stroke-width="1.0"/>
    <path d="M-1.1 -0.65 Q1.0 -0.35 3.2 0.65 L3.7 0.9" fill="none" stroke="#735f5f" stroke-linecap="round" stroke-linejoin="round" stroke-width="1.0"/>
    <path d="M1.7 14.4 Q0.4 16.9 -3.6 15.75 -7.7 14.65 -7.95 11.75 -6.45 11.55 -5.05 10.15 L-3.4 8.55 -1.4 8.75 Q-0.4 9.15 -0.2 10.15 L0.35 12.5 Q0.8 13.85 1.7 14.4" fill="#716e69" fill-rule="evenodd" stroke="none"/>
    <path d="M1.7 14.4 Q0.4 16.9 -3.6 15.75 -7.7 14.65 -7.95 11.75 -6.45 11.55 -5.05 10.15 L-3.4 8.55 -1.4 8.75 Q-0.4 9.15 -0.2 10.15 L0.35 12.5 Q0.8 13.85 1.7 14.4 Z" fill="none" stroke="#45423f" stroke-linecap="round" stroke-linejoin="round" stroke-width="1.0"/>
    <path d="M1.75 7.15 L0.4 10.3 -0.75 11.15 -3.6 10.15 -3.95 8.7 -3.2 5.5 Q-0.1 4.95 1.75 7.15" fill="#827d77" fill-rule="evenodd" stroke="none"/>
    <path d="M1.75 7.15 Q-0.1 4.95 -3.2 5.5 L-3.95 8.7 -3.6 10.15 -0.75 11.15 0.4 10.3 1.75 7.15 Z" fill="none" stroke="#45423f" stroke-linecap="round" stroke-linejoin="round" stroke-width="1.0"/>
    <path d="M-1.2 -4.1 L-3.6 -3.0 -5.35 -0.9 -6.45 2.5 -5.7 3.85 -7.0 7.55 -7.9 11.6 Q-8.5 14.3 -7.5 15.3 -6.85 16.05 -4.75 16.3 L-2.6 16.5 -0.7 17.1 Q0.7 16.65 1.75 14.3 L3.6 10.5 4.3 8.55 4.45 7.45 6.2 7.05 Q7.55 3.1 7.6 1.85 L7.0 -1.0" fill="none" stroke="#000000" stroke-linecap="round" stroke-linejoin="round" stroke-opacity="0.13333334" stroke-width="1.0"/>
  </g>
</svg>
