<?xml version="1.0" encoding="UTF-8" standalone="no"?>
<svg xmlns:ffdec="https://www.free-decompiler.com/flash" xmlns:xlink="http://www.w3.org/1999/xlink" ffdec:objectType="shape" height="23.25px" width="15.15px" xmlns="http://www.w3.org/2000/svg">
  <g transform="matrix(1.0, 0.0, 0.0, 1.0, 7.7, 7.7)">
    <path d="M2.35 -2.6 Q3.45 -1.6 2.95 0.05 2.5 1.7 1.85 2.4 L1.2 2.8 1.55 3.75 1.7 5.6 Q1.4 8.3 0.3 10.5 L0.1 11.5 -0.05 12.95 Q-0.75 14.4 -1.7 14.9 L-3.65 15.15 Q-5.3 14.6 -5.85 12.35 -6.35 10.65 -6.15 8.75 -5.75 6.6 -5.7 5.4 -5.55 -0.8 -4.1 -2.4 L-2.55 -3.8 -1.65 -4.05 Q-0.45 -4.55 -0.15 -3.8 L1.15 -3.35 2.35 -2.6" fill="#a7825e" fill-rule="evenodd" stroke="none"/>
    <path d="M2.35 -2.6 Q3.45 -1.6 2.95 0.05 2.5 1.7 1.85 2.4 L1.2 2.8 1.55 3.75 1.7 5.6 Q1.4 8.3 0.3 10.5 L0.1 11.5 -0.05 12.95 Q-0.75 14.4 -1.7 14.9 L-3.65 15.15 Q-5.3 14.6 -5.85 12.35 -6.35 10.65 -6.15 8.75 -5.75 6.6 -5.7 5.4 -5.55 -0.8 -4.1 -2.4 L-2.55 -3.8 -1.65 -4.05 Q-0.45 -4.55 -0.15 -3.8 L1.15 -3.35 2.35 -2.6 Z" fill="none" stroke="#312820" stroke-linecap="round" stroke-linejoin="round" stroke-width="0.5"/>
    <path d="M1.2 2.8 Q1.2 3.1 0.25 3.45 L-1.9 3.65" fill="none" stroke="#947059" stroke-linecap="round" stroke-linejoin="round" stroke-width="0.5"/>
    <path d="M-2.55 8.65 Q-3.25 7.0 -2.2 5.4" fill="none" stroke="#947059" stroke-linecap="round" stroke-linejoin="round" stroke-width="0.5"/>
    <path d="M-4.25 -1.05 L-4.3 -2.8 Q-4.35 -3.8 -3.9 -4.1 0.6 -5.1 2.35 -2.95 3.4 -1.65 3.7 1.55 L3.95 3.3 Q3.8 3.75 2.8 3.95 1.75 4.3 1.55 4.55 L-0.25 3.75 Q-4.35 0.3 -4.25 -1.05" fill="url(#gradient0)" fill-rule="evenodd" stroke="none"/>
    <path d="M-4.25 -1.05 Q-4.35 0.3 -0.25 3.75 L1.55 4.55 Q1.75 4.3 2.8 3.95 3.8 3.75 3.95 3.3 L3.7 1.55 Q3.4 -1.65 2.35 -2.95 0.6 -5.1 -3.9 -4.1 -4.35 -3.8 -4.3 -2.8 L-4.25 -1.05 Z" fill="none" stroke="#171717" stroke-linecap="butt" stroke-linejoin="miter-clip" stroke-miterlimit="15.12109375" stroke-width="1.0"/>
    <path d="M-3.9 -3.1 Q-1.5 -2.95 -1.3 -2.15 -1.15 -0.6 0.0 0.1 0.8 0.65 2.75 1.1 L3.7 1.65 Q4.6 2.25 4.75 2.8 L4.15 6.1 Q3.75 7.5 2.55 8.0 L1.9 8.0 0.9 7.9 Q-1.4 7.3 -3.05 4.85 -4.7 2.3 -6.9 1.45 -7.45 0.4 -7.0 -0.95 -6.6 -2.25 -5.6 -2.95 L-3.9 -3.1" fill="url(#gradient1)" fill-rule="evenodd" stroke="none"/>
    <path d="M-3.9 -3.1 L-5.6 -2.95 Q-6.6 -2.25 -7.0 -0.95 -7.45 0.4 -6.9 1.45 -4.7 2.3 -3.05 4.85 -1.4 7.3 0.9 7.9 L1.9 8.0 2.55 8.0 Q3.75 7.5 4.15 6.1 L4.75 2.8 Q4.6 2.25 3.7 1.65 L2.75 1.1 Q0.8 0.65 0.0 0.1 -1.15 -0.6 -1.3 -2.15 -1.5 -2.95 -3.9 -3.1 Z" fill="none" stroke="#1c1515" stroke-linecap="butt" stroke-linejoin="miter-clip" stroke-miterlimit="15.12109375" stroke-width="1.0"/>
  </g>
  <defs>
    <radialGradient cx="0" cy="0" gradientTransform="matrix(0.0044, 0.0017, -0.0095, 0.0242, 0.2, -0.85)" gradientUnits="userSpaceOnUse" id="gradient0" r="819.2" spreadMethod="pad">
      <stop offset="0.0" stop-color="#0f0f10"/>
      <stop offset="1.0" stop-color="#343437"/>
    </radialGradient>
    <radialGradient cx="0" cy="0" gradientTransform="matrix(-0.0111, 0.0027, -0.0024, -0.0119, 4.15, 4.0)" gradientUnits="userSpaceOnUse" id="gradient1" r="819.2" spreadMethod="pad">
      <stop offset="0.0" stop-color="#241818"/>
      <stop offset="1.0" stop-color="#4d3434"/>
    </radialGradient>
  </defs>
</svg>
