<?xml version="1.0" encoding="UTF-8" standalone="no"?>
<svg xmlns:xlink="http://www.w3.org/1999/xlink" height="12.5px" width="26.65px" xmlns="http://www.w3.org/2000/svg">
  <g transform="matrix(1.0, 0.0, 0.0, 1.0, 13.15, 6.3)">
    <path d="M-11.25 0.3 L-10.0 -2.65 -5.15 -5.45 Q-3.45 -6.3 -2.6 -5.1 -1.8 -3.95 -2.65 -2.0 L-2.0 -0.6 -1.7 1.65 -4.25 3.7 -8.0 3.55 Q-9.1 3.05 -9.8 0.6 L-10.7 0.4 -11.25 0.3 M-3.6 -0.1 L-4.85 1.2 -7.25 1.2 -4.85 1.2 -3.6 -0.1" fill="#596470" fill-rule="evenodd" stroke="none"/>
    <path d="M-2.65 -2.0 L-1.35 -1.8 0.5 0.0 3.1 0.45 5.3 1.95 6.15 -0.35 Q6.45 -0.7 9.05 0.4 10.8 1.15 12.25 2.55 L13.0 5.7 3.55 5.7 4.2 4.15 0.75 3.15 -0.45 5.4 -11.85 5.4 -12.45 3.55 Q-12.9 1.5 -12.25 0.1 L-11.25 0.3 -10.7 0.4 -9.8 0.6 Q-9.1 3.05 -8.0 3.55 L-4.25 3.7 -1.7 1.65 -2.0 -0.6 -2.65 -2.0 M5.3 1.95 Q5.3 2.95 4.2 4.15 5.3 2.95 5.3 1.95" fill="#323232" fill-rule="evenodd" stroke="none"/>
    <path d="M-7.25 1.2 L-4.85 1.2 -3.6 -0.1" fill="none" stroke="#454c56" stroke-linecap="round" stroke-linejoin="round" stroke-width="1.0"/>
    <path d="M-11.25 0.3 L-10.0 -2.65 -5.15 -5.45 Q-3.45 -6.3 -2.6 -5.1 -1.8 -3.95 -2.65 -2.0" fill="none" stroke="#2e343a" stroke-linecap="round" stroke-linejoin="round" stroke-width="1.0"/>
    <path d="M-2.65 -2.0 L-1.35 -1.8 0.5 0.0 3.1 0.45 M4.2 4.15 L0.75 3.15 -0.45 5.4 -11.85 5.4 -12.45 3.55 Q-12.9 1.5 -12.25 0.1 L-11.25 0.3 -10.7 0.4 -9.8 0.6 Q-9.1 3.05 -8.0 3.55 L-4.25 3.7 -1.7 1.65 -2.0 -0.6 -2.65 -2.0" fill="none" stroke="#232323" stroke-linecap="round" stroke-linejoin="round" stroke-width="1.0"/>
    <path d="M3.1 0.45 L5.3 1.95" fill="none" stroke="#232323" stroke-linecap="butt" stroke-linejoin="round" stroke-width="1.0"/>
    <path d="M5.3 1.95 L6.15 -0.35 Q6.45 -0.7 9.05 0.4 10.8 1.15 12.25 2.55 L13.0 5.7 3.55 5.7 4.2 4.15 Q5.3 2.95 5.3 1.95" fill="none" stroke="#232323" stroke-linecap="round" stroke-linejoin="round" stroke-width="1.0"/>
  </g>
</svg>
