<?xml version="1.0" encoding="UTF-8" standalone="no"?>
<svg xmlns:xlink="http://www.w3.org/1999/xlink" height="42.3px" width="17.1px" xmlns="http://www.w3.org/2000/svg">
  <g transform="matrix(1.0, 0.0, 0.0, 1.0, 0.0, 0.05)">
    <path d="M14.0 10.25 Q13.8 9.55 12.7 8.5 L12.15 8.0 10.9 7.0 11.6 7.45 12.15 8.0 11.6 7.45 10.9 7.0 12.15 8.0 12.7 8.5 Q13.8 9.55 14.0 10.25 L14.0 10.4 14.35 9.45 15.4 11.2 Q16.5 13.1 16.6 14.15 16.7 15.4 16.05 16.45 15.4 17.45 14.2 17.9 13.65 18.1 13.2 18.4 L12.45 18.95 12.15 19.15 Q11.3 19.95 11.0 20.7 L10.5 22.2 9.85 23.95 8.85 23.15 9.85 23.95 10.5 22.2 11.0 20.7 Q11.3 19.95 12.15 19.15 L12.45 18.95 13.2 18.4 13.4 18.4 14.6 36.25 13.6 38.3 13.05 38.9 10.5 24.3 10.05 24.0 9.3 24.85 12.05 41.75 Q9.9 41.0 9.35 40.4 8.75 39.75 6.5 26.0 L5.95 22.7 8.35 21.0 8.85 23.15 9.5 20.65 9.6 20.5 9.75 20.55 10.95 18.15 11.05 18.0 11.25 17.65 12.1 15.85 12.2 15.55 12.3 15.25 12.2 15.2 12.3 15.25 12.2 15.55 12.1 15.85 11.25 17.65 11.05 18.0 10.95 18.15 9.75 20.55 9.6 20.5 7.6 19.5 Q6.95 18.65 7.15 17.3 7.4 13.75 7.65 13.4 L9.85 10.4 10.2 9.5 10.8 9.45 Q11.85 10.45 12.0 11.05 L12.0 11.15 12.05 11.3 12.1 11.55 11.85 13.05 11.35 14.65 11.4 14.65 11.4 14.7 12.2 15.2 12.2 15.1 12.1 14.95 11.4 14.65 12.3 12.7 12.4 13.4 Q12.4 11.25 12.05 10.65 11.25 9.35 10.75 9.15 L8.8 8.1 7.45 7.9 6.55 7.9 5.55 8.75 Q4.55 9.7 4.4 10.25 4.2 11.05 4.8 14.95 L5.0 17.35 Q5.2 18.95 5.75 19.4 L8.25 21.05 6.0 22.65 3.45 21.05 Q2.25 20.35 1.4 18.5 0.55 16.7 0.65 15.25 L1.05 9.55 Q1.2 8.3 1.75 8.0 L2.0 7.85 1.2 6.85 Q0.4 5.55 0.5 4.35 0.75 1.35 4.1 0.65 5.95 0.3 7.8 0.65 9.7 1.0 11.0 1.95 13.15 3.5 14.25 7.15 14.7 8.65 14.0 10.25 L13.95 10.3 12.15 8.0 13.95 10.3 14.0 10.25 M3.8 6.65 L2.0 7.85 3.8 6.65 Q6.25 5.1 6.9 5.2 L10.2 6.1 Q10.0 4.3 9.35 3.85 7.95 2.9 6.2 3.3 L4.55 3.65 Q3.75 3.85 3.55 4.3 3.25 5.1 4.05 6.45 L3.8 6.65 2.05 7.9 2.0 7.85 2.05 7.9 3.8 6.65 M12.4 13.4 L12.3 15.75 12.45 13.8 12.4 13.4 12.45 13.8 12.3 15.75 12.4 13.4 M11.25 17.65 L11.85 16.3 12.2 15.55 12.2 15.2 12.2 15.55 11.85 16.3 11.25 17.65 M10.95 18.15 L9.6 20.5 10.95 18.15 M10.9 7.0 L9.95 6.4 10.9 7.0 M10.5 22.2 Q11.15 20.5 11.85 19.6 L12.45 18.95 11.85 19.6 Q11.15 20.5 10.5 22.2 M11.4 14.7 L11.35 14.65 11.25 14.6 11.35 14.65 11.2 15.0 11.4 14.7 11.2 15.0 11.35 14.65 11.25 14.6 11.35 14.65 11.4 14.7" fill="#ffffff" fill-rule="evenodd" stroke="none"/>
    <path d="M12.15 8.0 L11.6 7.45 10.9 7.0 12.15 8.0 12.7 8.5 Q13.8 9.55 14.0 10.25 14.7 8.65 14.25 7.15 13.15 3.5 11.0 1.95 9.7 1.0 7.8 0.65 5.95 0.3 4.1 0.65 0.75 1.35 0.5 4.35 0.4 5.55 1.2 6.85 L2.0 7.85 3.8 6.65 4.05 6.45 Q3.25 5.1 3.55 4.3 3.75 3.85 4.55 3.65 L6.2 3.3 Q7.95 2.9 9.35 3.85 10.0 4.3 10.2 6.1 L6.9 5.2 Q6.25 5.1 3.8 6.65 L2.05 7.9 2.0 7.85 1.75 8.0 Q1.2 8.3 1.05 9.55 L0.65 15.25 Q0.55 16.7 1.4 18.5 2.25 20.35 3.45 21.05 L6.0 22.65 8.25 21.05 5.75 19.4 Q5.2 18.95 5.0 17.35 L4.8 14.95 Q4.2 11.05 4.4 10.25 4.55 9.7 5.55 8.75 L6.55 7.9 7.45 7.9 8.8 8.1 10.75 9.15 Q11.25 9.35 12.05 10.65 12.4 11.25 12.4 13.4 L12.45 13.8 12.3 15.75 12.4 13.4 12.3 12.7 11.4 14.65 12.1 14.95 12.2 15.1 12.2 15.2 12.3 15.25 12.2 15.55 12.1 15.85 11.25 17.65 11.05 18.0 10.95 18.15 9.75 20.55 9.6 20.5 9.5 20.65 8.85 23.15 9.85 23.95 10.5 22.2 11.0 20.7 Q11.3 19.95 12.15 19.15 L12.45 18.95 13.2 18.4 Q13.65 18.1 14.2 17.9 15.4 17.45 16.05 16.45 16.7 15.4 16.6 14.15 16.5 13.1 15.4 11.2 L14.35 9.45 14.0 10.4 14.0 10.25 13.95 10.3 12.15 8.0 M12.05 11.3 L12.25 12.05 12.3 12.7 12.1 11.55 11.85 13.05 11.35 14.65 11.4 14.65 11.4 14.7 12.2 15.2 12.2 15.55 11.85 16.3 11.25 17.65 M9.6 20.5 L7.6 19.5 Q6.95 18.65 7.15 17.3 7.4 13.75 7.65 13.4 L9.85 10.4 10.2 9.5 10.8 9.45 Q11.85 10.45 12.0 11.05 L12.0 11.15 12.05 11.3 12.1 11.55 M13.2 18.4 L13.4 18.4 14.6 36.25 13.6 38.3 13.05 38.9 10.5 24.3 10.05 24.0 9.3 24.85 12.05 41.75 Q9.9 41.0 9.35 40.4 8.75 39.75 6.5 26.0 L5.95 22.7 8.35 21.0 8.85 23.15 M11.4 14.7 L11.2 15.0 11.35 14.65 11.25 14.6 11.35 14.65 11.4 14.7 M12.45 18.95 L11.85 19.6 Q11.15 20.5 10.5 22.2 M9.95 6.4 L10.9 7.0 M9.6 20.5 L10.95 18.15" fill="none" stroke="#bfbfbf" stroke-linecap="round" stroke-linejoin="round" stroke-opacity="0.43137255" stroke-width="1.0"/>
  </g>
</svg>
