<?xml version="1.0" encoding="UTF-8" standalone="no"?>
<svg xmlns:ffdec="https://www.free-decompiler.com/flash" xmlns:xlink="http://www.w3.org/1999/xlink" ffdec:objectType="shape" height="21.3px" width="12.35px" xmlns="http://www.w3.org/2000/svg">
  <g transform="matrix(1.0, 0.0, 0.0, 1.0, 8.3, 7.4)">
    <path d="M-1.0 10.05 Q-1.35 11.75 -1.75 12.55 -2.3 13.5 -3.15 13.45 -4.15 13.35 -4.95 12.2 L-5.85 10.5 Q-6.3 7.6 -6.2 6.35 L-5.4 2.65 -4.55 0.8 Q-2.6 -0.65 -2.1 -0.65 -0.95 -0.65 -0.1 1.95 L0.15 3.2 0.35 4.25 -0.7 7.4 Q-0.95 8.15 -1.0 10.05" fill="#2a2b33" fill-rule="evenodd" stroke="none"/>
    <path d="M-1.0 10.05 Q-1.35 11.75 -1.75 12.55 -2.3 13.5 -3.15 13.45 -4.15 13.35 -4.95 12.2 L-5.85 10.5 Q-6.3 7.6 -6.2 6.35 L-5.4 2.65 -4.55 0.8 Q-2.6 -0.65 -2.1 -0.65 -0.95 -0.65 -0.1 1.95 L0.15 3.2 0.35 4.25 -0.7 7.4 Q-0.95 8.15 -1.0 10.05 Z" fill="none" stroke="#111216" stroke-linecap="round" stroke-linejoin="round" stroke-width="0.9500000000000001"/>
    <path d="M-0.65 3.7 Q-2.55 5.5 -3.7 4.1 L-4.85 1.7 Q-6.25 0.3 -6.45 -1.1 -6.5 -1.95 -5.65 -3.25 -4.65 -4.7 -3.5 -5.15 L0.4 -5.0 Q1.1 -4.5 1.7 -4.1 3.0 -2.95 3.3 -1.95 3.65 -0.2 2.8 1.05 L1.3 1.9 Q-0.3 2.9 -0.65 3.7" fill="url(#gradient0)" fill-rule="evenodd" stroke="none"/>
    <path d="M-0.65 3.7 Q-2.55 5.5 -3.7 4.1 L-4.85 1.7 Q-6.25 0.3 -6.45 -1.1 -6.5 -1.95 -5.65 -3.25 -4.65 -4.7 -3.5 -5.15 L0.4 -5.0 Q1.1 -4.5 1.7 -4.1 3.0 -2.95 3.3 -1.95 3.65 -0.2 2.8 1.05 L1.3 1.9 Q-0.3 2.9 -0.65 3.7 Z" fill="none" stroke="#5e4525" stroke-linecap="butt" stroke-linejoin="miter-clip" stroke-miterlimit="11.33984375" stroke-width="0.9500000000000001"/>
    <path d="M-2.15 1.3 Q-4.35 0.95 -4.2 3.75 -5.1 3.65 -5.75 2.2 -6.45 0.75 -6.35 -0.7 -5.95 -1.65 -2.7 -1.6 1.0 -1.5 2.6 1.5 2.55 2.75 1.05 3.8 -0.35 4.85 -1.1 4.35 0.0 1.6 -2.15 1.3" fill="url(#gradient1)" fill-rule="evenodd" stroke="none"/>
    <path d="M-2.15 1.3 Q-4.35 0.95 -4.2 3.75 -5.1 3.65 -5.75 2.2 -6.45 0.75 -6.35 -0.7 -5.95 -1.65 -2.7 -1.6 1.0 -1.5 2.6 1.5 2.55 2.75 1.05 3.8 -0.35 4.85 -1.1 4.35 0.0 1.6 -2.15 1.3 Z" fill="none" stroke="#2e3033" stroke-linecap="butt" stroke-linejoin="miter-clip" stroke-miterlimit="11.33984375" stroke-width="0.9500000000000001"/>
    <path d="M-5.4 3.4 L-5.15 3.1 Q-5.95 2.35 -6.2 1.15 -6.45 0.35 -6.35 -1.05 L-6.1 -2.65 Q-5.95 -3.25 -4.35 -4.65 L-3.05 -5.3 -1.8 -5.5 Q-0.55 -5.7 1.4 -4.45 L2.75 -3.25 3.6 -1.85 3.1 0.8 2.65 1.85 1.9 3.15 Q1.2 4.0 0.25 4.25 L0.35 4.75" fill="none" stroke="#010100" stroke-linecap="round" stroke-linejoin="round" stroke-opacity="0.19215687" stroke-width="0.9500000000000001"/>
  </g>
  <defs>
    <linearGradient gradientTransform="matrix(0.0201, -3.0E-4, 3.0E-4, 0.0201, -5.5, -1.0)" gradientUnits="userSpaceOnUse" id="gradient0" spreadMethod="pad" x1="-819.2" x2="819.2">
      <stop offset="0.0" stop-color="#8e3a0e"/>
      <stop offset="1.0" stop-color="#dbb531"/>
    </linearGradient>
    <radialGradient cx="0" cy="0" gradientTransform="matrix(0.0171, 0.0038, -0.0041, 0.0186, -1.75, -0.3)" gradientUnits="userSpaceOnUse" id="gradient1" r="819.2" spreadMethod="pad">
      <stop offset="0.0" stop-color="#676b72"/>
      <stop offset="1.0" stop-color="#dbdce1"/>
    </radialGradient>
  </defs>
</svg>
