<?xml version="1.0" encoding="UTF-8" standalone="no"?>
<svg xmlns:ffdec="https://www.free-decompiler.com/flash" xmlns:xlink="http://www.w3.org/1999/xlink" ffdec:objectType="shape" height="21.1px" width="13.9px" xmlns="http://www.w3.org/2000/svg">
  <g transform="matrix(1.0, 0.0, 0.0, 1.0, 6.8, 8.55)">
    <path d="M4.85 -1.1 L3.7 1.9 2.4 4.35 2.05 5.75 1.85 7.55 0.85 9.7 0.1 10.75 -1.0 11.7 Q-1.7 12.15 -2.75 12.05 -3.8 11.95 -4.1 11.6 L-5.2 11.15 Q-6.05 10.55 -5.55 8.65 L-5.45 7.65 -5.25 6.0 -4.15 3.1 -1.4 -3.25 Q0.05 -5.75 2.7 -5.3 3.9 -5.1 4.55 -4.05 5.3 -2.85 4.85 -1.1" fill="#886a4d" fill-rule="evenodd" stroke="none"/>
    <path d="M4.85 -1.1 L3.7 1.9 2.4 4.35 2.05 5.75 1.85 7.55 0.85 9.7 0.1 10.75 -1.0 11.7 Q-1.7 12.15 -2.75 12.05 -3.8 11.95 -4.1 11.6 L-5.2 11.15 Q-6.05 10.55 -5.55 8.65 L-5.45 7.65 -5.25 6.0 -4.15 3.1 -1.4 -3.25 Q0.05 -5.75 2.7 -5.3 3.9 -5.1 4.55 -4.05 5.3 -2.85 4.85 -1.1 Z" fill="none" stroke="#514330" stroke-linecap="butt" stroke-linejoin="miter-clip" stroke-miterlimit="4.0" stroke-width="1.0"/>
    <path d="M5.35 -5.3 Q6.3 -4.4 6.55 -2.45 6.7 -0.65 6.2 0.65 L5.2 1.25 2.5 5.05 Q-0.95 6.7 -4.45 4.05 L-3.45 -0.7 Q-3.1 -3.8 -2.4 -5.4 -1.55 -7.5 0.1 -7.75 2.2 -8.15 5.35 -5.3" fill="#d6ac52" fill-rule="evenodd" stroke="none"/>
    <path d="M5.35 -5.3 Q6.3 -4.4 6.55 -2.45 6.7 -0.65 6.2 0.65 L5.2 1.25 2.5 5.05 Q-0.95 6.7 -4.45 4.05 L-3.45 -0.7 Q-3.1 -3.8 -2.4 -5.4 -1.55 -7.5 0.1 -7.75 2.2 -8.15 5.35 -5.3 Z" fill="none" stroke="#65573e" stroke-linecap="butt" stroke-linejoin="miter-clip" stroke-miterlimit="4.0" stroke-width="1.0"/>
    <path d="M1.7 -6.85 Q0.75 -4.8 2.15 -2.7 3.5 -0.8 6.1 0.4 L6.35 1.05 5.35 2.85 3.9 4.25 2.7 4.9 2.2 4.8 1.55 4.4 Q-0.45 3.4 -1.5 3.35 -2.65 3.3 -4.65 4.2 L-5.55 2.65 Q-6.1 1.45 -6.25 -0.2 -6.45 -3.75 -4.5 -6.1 -2.4 -8.65 1.0 -7.8 L1.85 -7.55 1.7 -6.85" fill="#f0c468" fill-rule="evenodd" stroke="none"/>
    <path d="M1.7 -6.85 Q0.75 -4.8 2.15 -2.7 3.5 -0.8 6.1 0.4 L6.35 1.05 5.35 2.85 3.9 4.25 2.7 4.9 2.2 4.8 1.55 4.4 Q-0.45 3.4 -1.5 3.35 -2.65 3.3 -4.65 4.2 L-5.55 2.65 Q-6.1 1.45 -6.25 -0.2 -6.45 -3.75 -4.5 -6.1 -2.4 -8.65 1.0 -7.8 L1.85 -7.55 1.7 -6.85 Z" fill="none" stroke="#5f4f3b" stroke-linecap="butt" stroke-linejoin="miter-clip" stroke-miterlimit="4.0" stroke-width="1.0"/>
    <path d="M-5.55 -4.15 Q-3.7 -3.8 -2.35 -5.35 L-0.75 -7.95 0.65 -7.9 Q1.65 -7.7 1.8 -7.3 L1.6 -6.55 Q1.3 -5.85 1.45 -5.05 L1.4 -4.4 1.6 -3.8 Q2.0 -2.7 3.05 -1.65 L4.45 -0.55 5.45 0.15 6.05 0.25" fill="none" stroke="#937847" stroke-linecap="round" stroke-linejoin="round" stroke-width="1.0"/>
    <path d="M-4.4 0.2 L-3.75 2.05" fill="none" stroke="#544634" stroke-linecap="round" stroke-linejoin="round" stroke-opacity="0.50980395" stroke-width="1.0"/>
    <path d="M-1.7 0.3 L-1.5 1.5" fill="none" stroke="#544634" stroke-linecap="round" stroke-linejoin="round" stroke-opacity="0.50980395" stroke-width="1.0"/>
  </g>
</svg>
