<?xml version="1.0" encoding="UTF-8" standalone="no"?>
<svg xmlns:ffdec="https://www.free-decompiler.com/flash" xmlns:xlink="http://www.w3.org/1999/xlink" ffdec:objectType="shape" height="23.15px" width="13.05px" xmlns="http://www.w3.org/2000/svg">
  <g transform="matrix(1.0, 0.0, 0.0, 1.0, 5.65, 3.95)">
    <path d="M-0.95 6.35 L3.75 7.95 1.75 13.5 -2.9 11.9 -0.95 6.35" fill="#000000" fill-rule="evenodd" stroke="none"/>
    <path d="M1.2 7.35 L1.8 7.5 2.15 7.9 0.65 12.05 0.35 12.65 -0.35 12.55 Q-0.75 12.4 -0.65 12.05 L0.85 7.95 1.2 7.35" fill="url(#gradient0)" fill-rule="evenodd" stroke="none"/>
    <path d="M1.1 7.3 L-0.7 12.25 0.4 12.7 2.15 7.75 1.1 7.3 Z" fill="none" stroke="#212121" stroke-linecap="round" stroke-linejoin="round" stroke-width="0.45"/>
    <path d="M0.95 8.05 L1.8 8.35" fill="none" stroke="#212121" stroke-linecap="round" stroke-linejoin="round" stroke-width="0.45"/>
    <path d="M0.65 9.0 L1.5 9.3" fill="none" stroke="#212121" stroke-linecap="round" stroke-linejoin="round" stroke-width="0.45"/>
    <path d="M0.25 9.8 L1.05 10.1" fill="none" stroke="#212121" stroke-linecap="round" stroke-linejoin="round" stroke-width="0.45"/>
    <path d="M0.0 10.7 L0.85 10.95" fill="none" stroke="#212121" stroke-linecap="round" stroke-linejoin="round" stroke-width="0.45"/>
    <path d="M-0.25 11.45 L0.55 11.8" fill="none" stroke="#212121" stroke-linecap="round" stroke-linejoin="round" stroke-width="0.45"/>
    <path d="M0.4 7.5 L1.0 10.0 Q1.25 11.4 0.7 12.6" fill="none" stroke="#4f0606" stroke-linecap="round" stroke-linejoin="round" stroke-width="0.45"/>
    <path d="M1.0 5.8 L2.7 6.35 3.2 6.55 3.5 6.95 3.6 8.45 Q2.4 10.5 1.3 13.3 1.5 16.0 0.45 17.75 L0.15 18.25 -0.2 18.6 -1.45 18.35 Q-4.0 17.85 -5.0 16.7 L-5.05 15.2 -4.95 13.95 -4.25 12.5 Q-4.3 8.7 -3.15 5.6 L-2.2 4.9 -2.05 4.85 -1.85 4.9 Q-1.15 5.1 -1.15 5.45 L-2.65 10.0 -2.8 10.75 -2.85 11.6 Q-2.75 12.2 -1.9 12.2 L-1.55 12.3 -1.3 12.2 -0.95 10.95 -0.4 11.85 0.2 12.65 0.75 12.05 1.0 11.25 1.4 10.85 1.7 10.35 1.7 9.85 Q1.75 9.5 2.1 9.25 L2.3 8.7 2.4 7.55 1.25 7.7 Q-0.1 8.25 0.1 8.85 0.35 9.4 0.0 9.75 L-0.7 10.4 0.5 6.7 Q0.65 5.9 1.0 5.8" fill="#d27e02" fill-rule="evenodd" stroke="none"/>
    <path d="M-2.25 4.9 L-1.85 4.9 -1.5 4.95 -1.2 5.1 Q-1.05 5.25 -1.15 5.45 L-1.95 7.95 -2.75 10.5 Q-3.0 11.55 -2.75 11.8 -2.55 12.15 -1.55 12.25 L-1.25 11.9 0.65 6.3 Q0.8 5.75 1.05 5.8 L3.3 6.6 3.6 7.3 3.65 7.85 3.6 8.45 Q2.25 10.8 1.35 13.25 L1.35 14.25 1.2 14.55 0.9 14.55 Q0.4 14.1 -0.55 13.95 L-3.6 13.8 -5.15 14.55 -5.0 14.05 -4.55 13.15 Q-4.2 12.7 -4.2 12.4 -4.3 8.45 -3.1 5.55 L-2.25 4.9" fill="#000000" fill-opacity="0.11764706" fill-rule="evenodd" stroke="none"/>
    <path d="M-2.2 4.7 L-3.25 5.35 Q-4.45 8.4 -4.4 12.55 L-5.25 14.15 -5.2 16.7 Q-4.35 17.7 -2.85 18.25 L-0.05 18.8 Q1.7 16.6 1.5 13.35 2.35 10.95 3.8 8.4 L3.65 6.65" fill="none" stroke="#653d01" stroke-linecap="round" stroke-linejoin="round" stroke-width="0.8500000000000001"/>
    <path d="M-2.1 -1.5 L-3.9 -1.95 -5.0 -1.05 -4.7 1.4 Q-4.4 2.7 -3.8 3.65 L-2.9 3.75" fill="none" stroke="#6d1919" stroke-linecap="round" stroke-linejoin="round" stroke-width="0.8500000000000001"/>
    <path d="M-0.65 5.25 L-0.55 5.25 0.15 5.5 Q0.5 5.55 0.45 5.85 L-1.45 11.5 Q-1.55 11.95 -1.75 11.95 L-2.2 11.85 -2.5 11.65 -2.55 11.3 -2.3 10.0 -0.9 5.8 -0.65 5.25" fill="#4b4b4b" fill-rule="evenodd" stroke="none"/>
    <path d="M-0.8 4.7 L-1.7 7.65 -2.8 11.3 Q-2.75 11.8 -2.35 12.0 L-1.45 12.1 0.85 5.05" fill="none" stroke="#0f0f0f" stroke-linecap="round" stroke-linejoin="round" stroke-width="0.8500000000000001"/>
    <path d="M2.6 -2.05 L4.4 -1.6 5.35 -0.2 5.9 0.35 6.45 0.8 6.8 3.05 6.55 3.65 6.2 4.15 5.85 6.4 Q5.9 6.7 5.3 7.05 L4.6 7.2 Q4.35 7.2 4.2 6.95 L4.1 6.55 0.2 5.1 -0.4 4.5 -0.25 3.85 -0.15 3.2 -1.45 2.7 -1.85 2.35 -1.95 1.8 Q-2.1 -0.1 -1.65 -2.3 L-1.25 -3.3 -1.1 -3.35 0.3 -3.05 0.75 -2.85 1.05 -2.45 2.6 -2.05" fill="url(#gradient1)" fill-rule="evenodd" stroke="none"/>
    <path d="M1.15 2.9 L4.0 4.0 4.5 4.2 4.65 4.8 4.6 5.3 4.1 6.15 Q3.9 6.4 3.65 6.35 L0.7 5.3 0.4 5.0 0.8 3.35 Q0.75 3.05 0.95 2.95 L1.15 2.9" fill="#0c0c0c" fill-opacity="0.29411766" fill-rule="evenodd" stroke="none"/>
    <path d="M5.1 4.55 L5.25 4.5 5.8 4.65 6.1 4.95 5.9 6.2 5.75 6.75 5.15 7.2 4.8 7.25 Q4.35 7.25 4.25 7.05 L4.15 6.55 5.05 5.3 4.95 4.95 Q4.95 4.65 5.1 4.55" fill="#0c0c0c" fill-opacity="0.29411766" fill-rule="evenodd" stroke="none"/>
    <path d="M6.3 4.25 L6.7 3.8 7.0 3.3 Q7.0 1.95 6.65 0.75 L6.05 0.3 5.55 -0.2 4.5 -1.8 1.15 -2.55 0.75 -3.15 -1.15 -3.55 Q-1.7 -3.65 -1.95 -1.2 L-2.1 2.0 -1.95 2.75 -0.25 3.25 -0.65 4.4 -0.3 5.15 4.0 6.6 4.15 7.35 5.05 7.4 5.95 6.85 6.3 4.25 Z" fill="none" stroke="#252525" stroke-linecap="round" stroke-linejoin="round" stroke-width="0.8500000000000001"/>
    <path d="M-4.4 -0.35 Q-4.45 -0.8 -3.8 -1.2 L-2.9 -1.15 -1.85 -0.85 Q-1.7 -0.65 -1.8 -0.35 L-2.1 0.0 -1.9 1.0 -1.9 1.35 -1.65 1.55 -0.75 1.7 Q-0.3 1.75 0.0 2.05 0.25 2.1 0.4 2.9 L0.4 3.6 0.25 4.2 0.1 4.7 -0.2 5.0 -1.8 4.55 -2.75 3.3 Q-2.8 3.1 -3.1 3.15 L-3.45 3.05 Q-4.25 1.3 -4.4 -0.35" fill="#a9a9a9" fill-rule="evenodd" stroke="none"/>
    <path d="M-0.75 1.7 L-0.25 1.8 0.3 2.2 0.4 2.75 0.45 3.4 0.1 4.7 Q0.0 5.05 -0.2 5.0 L-1.8 4.55 -2.15 4.1 -2.8 3.15 -3.4 3.15 -3.65 2.6 Q-3.85 2.3 -3.65 2.1 L-2.15 1.2 -1.95 1.25 -1.8 1.5 -0.75 1.7" fill="#0c0c0c" fill-opacity="0.29411766" fill-rule="evenodd" stroke="none"/>
    <path d="M-3.75 2.1 L-2.1 1.2" fill="none" stroke="#212121" stroke-linecap="round" stroke-linejoin="round" stroke-width="0.8500000000000001"/>
    <path d="M-4.5 -0.75 Q-4.6 1.1 -3.45 3.4 L-2.9 3.3 -1.95 4.7 0.1 5.25 0.6 3.4 0.45 2.15 -0.25 1.55 -1.75 1.4 -1.9 0.05 Q-1.55 -0.45 -1.35 -1.05 L-3.75 -1.45 -4.5 -0.75 Z" fill="none" stroke="#212121" stroke-linecap="round" stroke-linejoin="round" stroke-width="0.8500000000000001"/>
    <path d="M-1.0 6.25 L-0.05 6.55" fill="none" stroke="#0f0f0f" stroke-linecap="round" stroke-linejoin="round" stroke-width="0.8500000000000001"/>
    <path d="M-1.35 7.6 L-0.45 7.9" fill="none" stroke="#0f0f0f" stroke-linecap="round" stroke-linejoin="round" stroke-width="0.8500000000000001"/>
    <path d="M-1.85 8.95 L-0.9 9.25" fill="none" stroke="#0f0f0f" stroke-linecap="round" stroke-linejoin="round" stroke-width="0.8500000000000001"/>
    <path d="M-2.3 10.55 L-1.4 10.8" fill="none" stroke="#0f0f0f" stroke-linecap="round" stroke-linejoin="round" stroke-width="0.8500000000000001"/>
    <path d="M4.15 -1.65 L3.55 -0.9 4.25 0.85 4.95 1.35 5.35 2.95 4.6 3.5 4.9 5.25 4.1 6.35" fill="none" stroke="#252525" stroke-linecap="round" stroke-linejoin="round" stroke-width="0.8500000000000001"/>
    <path d="M0.95 -0.5 L1.35 -0.2 M0.05 -0.65 L1.3 -0.75" fill="none" stroke="#ffffff" stroke-linecap="round" stroke-linejoin="round" stroke-width="0.8500000000000001"/>
    <path d="M4.0 6.6 L-1.95 4.7" fill="none" stroke="#0f0f0f" stroke-linecap="round" stroke-linejoin="round" stroke-width="0.8500000000000001"/>
  </g>
  <defs>
    <linearGradient gradientTransform="matrix(9.0E-4, -5.0E-4, 5.0E-4, 9.0E-4, 0.9, 10.05)" gradientUnits="userSpaceOnUse" id="gradient0" spreadMethod="pad" x1="-819.2" x2="819.2">
      <stop offset="0.0" stop-color="#2b2b2b"/>
      <stop offset="0.4588235294117647" stop-color="#d8d8d8"/>
      <stop offset="1.0" stop-color="#363636"/>
    </linearGradient>
    <radialGradient cx="0" cy="0" gradientTransform="matrix(0.0014, 0.0045, -0.0065, 0.002, 1.25, -1.35)" gradientUnits="userSpaceOnUse" id="gradient1" r="819.2" spreadMethod="pad">
      <stop offset="0.0" stop-color="#8e8e8e"/>
      <stop offset="1.0" stop-color="#666666"/>
    </radialGradient>
  </defs>
</svg>
