<?xml version="1.0" encoding="UTF-8" standalone="no"?>
<svg xmlns:ffdec="https://www.free-decompiler.com/flash" xmlns:xlink="http://www.w3.org/1999/xlink" ffdec:objectType="shape" height="18.85px" width="12.85px" xmlns="http://www.w3.org/2000/svg">
  <g transform="matrix(1.0, 0.0, 0.0, 1.0, 7.65, 5.3)">
    <path d="M-4.15 1.7 Q-2.8 2.25 -2.0 3.55 -1.4 6.4 -0.2 7.4 L1.75 8.0 1.3 9.4 Q0.9 10.2 0.1 10.45 L-0.9 10.3 Q-2.45 9.95 -4.1 6.8 -4.55 5.9 -5.35 5.5 L-6.3 5.05 Q-6.75 4.8 -7.05 3.15 -7.2 1.45 -6.6 1.3 L-4.15 1.7" fill="url(#gradient0)" fill-rule="evenodd" stroke="none"/>
    <path d="M-4.15 1.7 L-6.6 1.3 Q-7.2 1.45 -7.05 3.15 -6.75 4.8 -6.3 5.05 L-5.35 5.5 Q-4.55 5.9 -4.1 6.8 -2.45 9.95 -0.9 10.3 L0.1 10.45 Q0.9 10.2 1.3 9.4 L1.75 8.0 -0.2 7.4 Q-1.4 6.4 -2.0 3.55 -2.8 2.25 -4.15 1.7 Z" fill="none" stroke="#1b1616" stroke-linecap="butt" stroke-linejoin="miter-clip" stroke-miterlimit="15.12109375" stroke-width="1.0"/>
    <path d="M-5.65 2.85 L-5.3 2.9" fill="none" stroke="#d7c24e" stroke-linecap="round" stroke-linejoin="miter-clip" stroke-miterlimit="15.12109375" stroke-width="1.0"/>
    <path d="M-5.55 4.2 L-5.1 4.2" fill="none" stroke="#d7c24e" stroke-linecap="round" stroke-linejoin="miter-clip" stroke-miterlimit="15.12109375" stroke-width="1.0"/>
    <path d="M-0.1 13.05 L0.0 10.45 Q0.9 10.35 1.25 9.55 L1.7 8.05 Q3.35 8.0 3.9 6.95 L4.5 4.25 Q4.9 3.6 4.45 2.9 L3.85 2.05 Q4.65 -0.95 2.3 -3.25 -0.05 -5.65 -3.4 -4.35 L-5.3 -3.0 -5.85 -2.7 -6.85 -1.15 Q-7.35 0.5 -6.95 1.55 L-7.0 2.65 Q-7.15 3.95 -6.8 4.45 L-5.9 5.4 Q-5.4 5.75 -5.7 6.2" fill="none" stroke="#000000" stroke-linecap="round" stroke-linejoin="round" stroke-opacity="0.25490198" stroke-width="1.0"/>
    <path d="M-5.15 6.3 L-3.25 9.2 Q-2.75 10.05 -0.95 10.7 L-0.55 10.75" fill="none" stroke="#1b1616" stroke-linecap="round" stroke-linejoin="miter-clip" stroke-miterlimit="15.12109375" stroke-opacity="0.38039216" stroke-width="1.0"/>
  </g>
  <defs>
    <radialGradient cx="0" cy="0" gradientTransform="matrix(0.0065, 3.0E-4, -7.0E-4, 0.0157, -2.35, 6.0)" gradientUnits="userSpaceOnUse" id="gradient0" r="819.2" spreadMethod="pad">
      <stop offset="0.0" stop-color="#261e1e"/>
      <stop offset="1.0" stop-color="#444242"/>
    </radialGradient>
  </defs>
</svg>
