<?xml version="1.0" encoding="UTF-8" standalone="no"?>
<svg xmlns:ffdec="https://www.free-decompiler.com/flash" xmlns:xlink="http://www.w3.org/1999/xlink" ffdec:objectType="shape" height="22.95px" width="16.05px" xmlns="http://www.w3.org/2000/svg">
  <g transform="matrix(1.0, 0.0, 0.0, 1.0, 9.25, 4.55)">
    <path d="M-6.3 10.0 L0.3 10.2 -1.7 17.25 -2.7 18.0 -7.1 16.25 -7.1 15.7 -6.1 12.35 -6.3 10.0" fill="#252525" fill-rule="evenodd" stroke="none"/>
    <path d="M-6.5 10.25 L-0.3 11.15 -0.35 13.05 -0.6 13.75 -6.1 12.4 -5.9 11.8 -6.5 10.25" fill="#000000" fill-opacity="0.46666667" fill-rule="evenodd" stroke="none"/>
    <path d="M-6.25 6.2 L1.1 7.9 Q1.5 9.75 0.25 11.8 -4.15 10.15 -6.55 10.4 -6.7 8.55 -6.25 6.2" fill="#333333" fill-rule="evenodd" stroke="none"/>
    <path d="M-6.3 10.0 L-6.1 12.35 -7.1 15.7 -7.1 16.25 -2.7 18.0 -1.7 17.25 0.3 10.2 -6.3 10.0 Z" fill="none" stroke="#000000" stroke-linecap="round" stroke-linejoin="round" stroke-width="0.8500000000000001"/>
    <path d="M-6.25 6.2 Q-6.7 8.55 -6.55 10.4 -4.15 10.15 0.25 11.8 1.5 9.75 1.1 7.9" fill="none" stroke="#000000" stroke-linecap="round" stroke-linejoin="round" stroke-width="0.8500000000000001"/>
    <path d="M-0.55 7.85 L0.55 7.65 2.35 7.7 Q2.85 8.0 1.9 10.3 0.8 12.7 0.65 12.4 L-0.9 11.95 -1.1 11.7 -0.55 7.85" fill="#282828" fill-rule="evenodd" stroke="none"/>
    <path d="M-0.55 7.85 L-1.1 11.7 -0.9 11.95 0.65 12.4 Q0.8 12.7 1.9 10.3 2.85 8.0 2.35 7.7 L0.55 7.65 -0.55 7.85 Z" fill="none" stroke="#000000" stroke-linecap="round" stroke-linejoin="round" stroke-width="0.8500000000000001"/>
    <path d="M-5.35 -3.05 Q-2.65 -4.6 0.6 -3.95 5.4 -2.05 6.2 0.9 6.95 3.35 4.7 7.45 L5.0 8.2 4.85 8.55 2.6 9.2 1.5 8.85 0.15 9.2 -0.2 10.0 -2.75 10.65 -4.15 9.25 -4.6 7.75 -5.6 6.8 -6.8 6.9 -8.7 5.15 -8.85 4.8 -8.25 3.95 Q-9.0 -1.05 -5.35 -3.05" fill="url(#gradient0)" fill-rule="evenodd" stroke="none"/>
    <path d="M-7.95 0.75 L-7.05 1.0 Q-5.9 3.25 -1.35 4.25 3.1 5.3 4.6 3.95 L5.7 4.2" fill="none" stroke="#b5b5b5" stroke-linecap="round" stroke-linejoin="round" stroke-width="0.8500000000000001"/>
    <path d="M-8.45 4.35 L-7.9 4.2 -6.45 5.55 -5.4 5.55 -3.6 7.0 -3.2 8.75 -2.45 9.4 -0.95 9.0 -0.65 8.2 1.3 7.65 2.55 7.95 4.45 7.65" fill="none" stroke="#1b1b1b" stroke-linecap="round" stroke-linejoin="round" stroke-width="0.8500000000000001"/>
    <path d="M-5.35 -3.05 Q-9.0 -1.05 -8.25 3.95 L-8.85 4.8 -8.7 5.15 -6.8 6.9 -5.6 6.8 -4.6 7.75 -4.15 9.25 -2.75 10.65 -0.2 10.0 0.15 9.2 1.5 8.85 2.6 9.2 4.85 8.55 5.0 8.2 4.7 7.45 Q6.95 3.35 6.2 0.9 5.4 -2.05 0.6 -3.95 -2.65 -4.6 -5.35 -3.05 Z" fill="none" stroke="#08090b" stroke-linecap="round" stroke-linejoin="round" stroke-width="0.8500000000000001"/>
    <path d="M-2.45 0.65 L-4.05 0.85 -4.7 -0.65 -3.55 -1.7 -2.1 -0.9 -2.45 0.65" fill="#b5b5b5" fill-rule="evenodd" stroke="none"/>
    <path d="M0.15 1.2 L-1.2 0.9 -1.85 -0.35 -1.25 -1.7 0.15 -2.0 1.3 -1.1 1.3 0.35 0.15 1.2" fill="#b5b5b5" fill-rule="evenodd" stroke="none"/>
    <path d="M2.45 2.45 L1.25 1.35 1.9 -0.15 3.55 0.05 3.9 1.65 2.45 2.45" fill="#b5b5b5" fill-rule="evenodd" stroke="none"/>
    <path d="M3.25 3.8 Q3.75 4.1 3.85 4.9 4.0 5.65 3.65 6.2 L3.0 6.85 2.15 6.85 Q1.6 6.75 1.15 6.2 0.65 5.6 0.8 5.1 0.95 4.45 1.8 4.0 2.6 3.55 3.25 3.8" fill="#404040" fill-rule="evenodd" stroke="none"/>
    <path d="M3.25 3.8 Q3.75 4.1 3.85 4.9 4.0 5.65 3.65 6.2 L3.0 6.85 2.15 6.85 Q1.6 6.75 1.15 6.2 0.65 5.6 0.8 5.1 0.95 4.45 1.8 4.0 2.6 3.55 3.25 3.8 Z" fill="none" stroke="#161616" stroke-linecap="round" stroke-linejoin="round" stroke-width="0.8500000000000001"/>
    <path d="M3.2 4.85 L3.6 5.45 Q3.75 5.9 3.55 6.05 3.1 6.6 2.7 6.45 L2.05 6.1 1.9 5.6 2.4 4.9 3.2 4.85" fill="#404040" fill-rule="evenodd" stroke="none"/>
    <path d="M3.2 4.85 L3.6 5.45 Q3.75 5.9 3.55 6.05 3.1 6.6 2.7 6.45 L2.05 6.1 1.9 5.6 2.4 4.9 3.2 4.85 Z" fill="none" stroke="#0d0d0d" stroke-linecap="round" stroke-linejoin="round" stroke-width="0.8500000000000001"/>
    <path d="M-5.5 1.75 Q-4.85 1.75 -4.25 2.55 -3.7 3.3 -3.85 4.0 -4.0 4.55 -4.7 4.8 L-5.95 4.95 -6.6 4.5 -6.95 3.7 Q-6.95 3.05 -6.55 2.4 -6.1 1.7 -5.5 1.75" fill="#404040" fill-rule="evenodd" stroke="none"/>
    <path d="M-5.5 1.75 Q-6.1 1.7 -6.55 2.4 -6.95 3.05 -6.95 3.7 L-6.6 4.5 -5.95 4.95 -4.7 4.8 Q-4.0 4.55 -3.85 4.0 -3.7 3.3 -4.25 2.55 -4.85 1.75 -5.5 1.75 Z" fill="none" stroke="#161616" stroke-linecap="round" stroke-linejoin="round" stroke-width="0.8500000000000001"/>
    <path d="M-5.85 2.7 Q-4.95 2.7 -5.05 3.95 L-5.45 4.35 -6.1 4.35 Q-6.5 4.3 -6.65 3.65 -6.75 3.35 -6.45 3.0 L-5.85 2.7" fill="#404040" fill-rule="evenodd" stroke="none"/>
    <path d="M-5.85 2.7 L-6.45 3.0 Q-6.75 3.35 -6.65 3.65 -6.5 4.3 -6.1 4.35 L-5.45 4.35 -5.05 3.95 Q-4.95 2.7 -5.85 2.7 Z" fill="none" stroke="#0d0d0d" stroke-linecap="round" stroke-linejoin="round" stroke-width="0.8500000000000001"/>
    <path d="M-5.9 3.55 Q-3.95 5.3 -1.65 5.8 0.35 6.25 2.8 5.8" fill="none" stroke="#7d7d7d" stroke-linecap="round" stroke-linejoin="round" stroke-width="0.6000000000000001"/>
  </g>
  <defs>
    <radialGradient cx="0" cy="0" gradientTransform="matrix(0.0087, 0.0021, -0.0021, 0.0089, -0.8, 2.4)" gradientUnits="userSpaceOnUse" id="gradient0" r="819.2" spreadMethod="pad">
      <stop offset="0.0" stop-color="#373737"/>
      <stop offset="0.6" stop-color="#373737"/>
      <stop offset="1.0" stop-color="#242424"/>
    </radialGradient>
  </defs>
</svg>
