<?xml version="1.0" encoding="UTF-8" standalone="no"?>
<svg xmlns:ffdec="https://www.free-decompiler.com/flash" xmlns:xlink="http://www.w3.org/1999/xlink" ffdec:objectType="shape" height="25.2px" width="20.25px" xmlns="http://www.w3.org/2000/svg">
  <g transform="matrix(1.0, 0.0, 0.0, 1.0, 13.85, 7.6)">
    <path d="M0.6 7.35 L-1.15 9.2 Q-2.95 11.35 -2.95 13.15 -3.4 16.45 -4.9 16.85 L-7.55 17.05 Q-8.45 16.7 -9.6 15.55 -10.35 14.85 -9.95 13.05 L-9.5 11.4 Q-8.65 9.8 -9.1 7.05 L-9.75 4.6 -7.1 6.05 -5.25 8.6 -2.35 7.3 0.6 7.35" fill="#161616" fill-rule="evenodd" stroke="none"/>
    <path d="M0.6 7.35 L-1.15 9.2 Q-2.95 11.35 -2.95 13.15 -3.4 16.45 -4.9 16.85 L-7.55 17.05 Q-8.45 16.7 -9.6 15.55 -10.35 14.85 -9.95 13.05 L-9.5 11.4 Q-8.65 9.8 -9.1 7.05 L-9.75 4.6 -7.1 6.05 -5.25 8.6 -2.35 7.3 0.6 7.35 Z" fill="none" stroke="#2a8c81" stroke-linecap="round" stroke-linejoin="round" stroke-width="1.0"/>
    <path d="M0.6 7.35 L-1.15 9.2 Q-2.95 11.35 -2.95 13.15 -3.4 16.45 -4.9 16.85 L-7.55 17.05 Q-8.45 16.7 -9.6 15.55 -10.35 14.85 -9.95 13.05 L-9.5 11.4 Q-8.65 9.8 -9.1 7.05 L-9.75 4.6" fill="none" stroke="#000000" stroke-linecap="round" stroke-linejoin="round" stroke-width="1.0"/>
    <path d="M-9.75 4.6 L-13.2 2.45 -13.35 0.05 -11.05 -0.95 Q-7.9 -3.45 -6.65 -5.5 -5.95 -6.7 -3.5 -7.0 L-1.15 -7.0 0.9 -5.85 Q2.9 -4.35 3.0 -2.9 2.95 -0.55 4.6 3.15 L5.9 5.15 4.7 7.15 -2.35 7.3 -5.25 8.6 -7.1 6.05 -9.75 4.6" fill="url(#gradient0)" fill-rule="evenodd" stroke="none"/>
    <path d="M-9.75 4.6 L-7.1 6.05 -5.25 8.6 -2.35 7.3 4.7 7.15 5.9 5.15 4.6 3.15 Q2.95 -0.55 3.0 -2.9 2.9 -4.35 0.9 -5.85 L-1.15 -7.0 -3.5 -7.0 Q-5.95 -6.7 -6.65 -5.5 -7.9 -3.45 -11.05 -0.95 L-13.35 0.05 -13.2 2.45 -9.75 4.6 Z" fill="none" stroke="#2a8c81" stroke-linecap="round" stroke-linejoin="round" stroke-width="1.0"/>
    <path d="M-9.75 4.6 L-7.1 6.05 -5.25 8.6 -2.35 7.3 4.7 7.15 5.9 5.15 4.6 3.15 Q2.95 -0.55 3.0 -2.9 2.9 -4.35 0.9 -5.85 L-1.15 -7.0 -3.5 -7.0 Q-5.95 -6.7 -6.65 -5.5 -7.9 -3.45 -11.05 -0.95 L-13.35 0.05 -13.2 2.45 -9.75 4.6 Z" fill="none" stroke="#222222" stroke-linecap="round" stroke-linejoin="round" stroke-width="1.0"/>
    <path d="M-7.1 6.05 L-3.65 2.45 -2.35 7.3" fill="none" stroke="#474747" stroke-linecap="round" stroke-linejoin="round" stroke-width="1.0"/>
    <path d="M-2.05 -3.5 L-1.65 -1.35 -3.05 0.3 -3.5 -1.85 -2.05 -3.5" fill="#ff6060" fill-rule="evenodd" stroke="none"/>
    <path d="M-2.05 -3.5 L-3.5 -1.85 -3.05 0.3 -1.65 -1.35 -2.05 -3.5 Z" fill="none" stroke="#751c1c" stroke-linecap="round" stroke-linejoin="round" stroke-width="1.0"/>
    <path d="M-9.75 4.6 L-11.05 -0.95" fill="none" stroke="#373737" stroke-linecap="round" stroke-linejoin="round" stroke-width="1.0"/>
    <path d="M0.6 7.35 L4.6 3.15" fill="none" stroke="#373737" stroke-linecap="round" stroke-linejoin="round" stroke-width="1.0"/>
  </g>
  <defs>
    <radialGradient cx="0" cy="0" gradientTransform="matrix(0.0117, 0.0031, -0.0025, 0.0095, -3.2, 0.8)" gradientUnits="userSpaceOnUse" id="gradient0" r="819.2" spreadMethod="pad">
      <stop offset="0.0" stop-color="#717171"/>
      <stop offset="1.0" stop-color="#424242"/>
    </radialGradient>
  </defs>
</svg>
