<?xml version="1.0" encoding="UTF-8" standalone="no"?>
<svg xmlns:ffdec="https://www.free-decompiler.com/flash" xmlns:xlink="http://www.w3.org/1999/xlink" ffdec:objectType="shape" height="21.1px" width="13.9px" xmlns="http://www.w3.org/2000/svg">
  <g transform="matrix(1.0, 0.0, 0.0, 1.0, 7.35, 6.6)">
    <path d="M4.3 0.85 L3.15 3.85 1.85 6.3 1.5 7.7 1.3 9.5 0.3 11.65 -0.45 12.7 -1.55 13.65 Q-2.25 14.1 -3.3 14.0 L-4.65 13.55 Q-5.4 13.4 -5.75 13.1 -6.6 12.5 -6.1 10.6 L-6.0 9.6 -5.8 7.95 -4.7 5.05 -1.95 -1.3 Q-0.5 -3.8 2.15 -3.35 3.35 -3.15 4.0 -2.1 4.75 -0.9 4.3 0.85" fill="#886a4d" fill-rule="evenodd" stroke="none"/>
    <path d="M4.3 0.85 L3.15 3.85 1.85 6.3 1.5 7.7 1.3 9.5 0.3 11.65 -0.45 12.7 -1.55 13.65 Q-2.25 14.1 -3.3 14.0 L-4.65 13.55 Q-5.4 13.4 -5.75 13.1 -6.6 12.5 -6.1 10.6 L-6.0 9.6 -5.8 7.95 -4.7 5.05 -1.95 -1.3 Q-0.5 -3.8 2.15 -3.35 3.35 -3.15 4.0 -2.1 4.75 -0.9 4.3 0.85 Z" fill="none" stroke="#514330" stroke-linecap="butt" stroke-linejoin="miter-clip" stroke-miterlimit="4.0" stroke-width="1.0"/>
    <path d="M4.8 -3.35 Q5.75 -2.45 6.0 -0.5 6.15 1.3 5.65 2.6 L4.65 3.2 1.95 7.0 Q-1.5 8.65 -5.0 6.0 L-4.0 1.25 Q-3.65 -1.85 -2.95 -3.45 -2.1 -5.55 -0.45 -5.8 1.65 -6.2 4.8 -3.35" fill="#d6ac52" fill-rule="evenodd" stroke="none"/>
    <path d="M4.8 -3.35 Q5.75 -2.45 6.0 -0.5 6.15 1.3 5.65 2.6 L4.65 3.2 1.95 7.0 Q-1.5 8.65 -5.0 6.0 L-4.0 1.25 Q-3.65 -1.85 -2.95 -3.45 -2.1 -5.55 -0.45 -5.8 1.65 -6.2 4.8 -3.35 Z" fill="none" stroke="#65573e" stroke-linecap="butt" stroke-linejoin="miter-clip" stroke-miterlimit="4.0" stroke-width="1.0"/>
    <path d="M1.15 -4.9 Q0.2 -2.85 1.6 -0.75 2.95 1.15 5.55 2.35 L5.8 3.0 4.8 4.8 3.35 6.2 2.15 6.85 1.65 6.75 1.0 6.35 Q-1.0 5.35 -2.05 5.3 -3.2 5.25 -5.2 6.15 L-6.1 4.6 Q-6.65 3.4 -6.8 1.75 -7.0 -1.8 -5.05 -4.15 -2.95 -6.7 0.45 -5.85 L1.3 -5.6 1.15 -4.9" fill="#f0c468" fill-rule="evenodd" stroke="none"/>
    <path d="M1.15 -4.9 Q0.2 -2.85 1.6 -0.75 2.95 1.15 5.55 2.35 L5.8 3.0 4.8 4.8 3.35 6.2 2.15 6.85 1.65 6.75 1.0 6.35 Q-1.0 5.35 -2.05 5.3 -3.2 5.25 -5.2 6.15 L-6.1 4.6 Q-6.65 3.4 -6.8 1.75 -7.0 -1.8 -5.05 -4.15 -2.95 -6.7 0.45 -5.85 L1.3 -5.6 1.15 -4.9 Z" fill="none" stroke="#5f4f3b" stroke-linecap="butt" stroke-linejoin="miter-clip" stroke-miterlimit="4.0" stroke-width="1.0"/>
    <path d="M-6.1 -2.2 Q-4.25 -1.85 -2.9 -3.4 L-1.3 -6.0 0.1 -5.95 Q1.1 -5.75 1.25 -5.35 L1.05 -4.6 Q0.75 -3.9 0.9 -3.1 L0.85 -2.45 1.05 -1.85 Q1.45 -0.75 2.5 0.3 L3.9 1.4 4.9 2.1 5.5 2.2" fill="none" stroke="#937847" stroke-linecap="round" stroke-linejoin="round" stroke-width="1.0"/>
    <path d="M-4.95 2.15 L-4.3 4.0" fill="none" stroke="#544634" stroke-linecap="round" stroke-linejoin="round" stroke-opacity="0.50980395" stroke-width="1.0"/>
    <path d="M-2.25 2.25 L-2.05 3.45" fill="none" stroke="#544634" stroke-linecap="round" stroke-linejoin="round" stroke-opacity="0.50980395" stroke-width="1.0"/>
  </g>
</svg>
