<?xml version="1.0" encoding="UTF-8" standalone="no"?>
<svg xmlns:ffdec="https://www.free-decompiler.com/flash" xmlns:xlink="http://www.w3.org/1999/xlink" ffdec:objectType="shape" height="24.9px" width="16.45px" xmlns="http://www.w3.org/2000/svg">
  <g transform="matrix(1.0, 0.0, 0.0, 1.0, 10.55, 6.65)">
    <path d="M-6.5 3.65 L1.5 5.35 -2.05 16.05 Q-3.4 17.55 -5.5 17.85 -7.85 17.35 -7.7 14.5 L-6.5 3.65" fill="#0d1012" fill-rule="evenodd" stroke="none"/>
    <path d="M-6.4 3.3 L-7.6 15.5 Q-6.95 18.1 -4.75 17.85 -2.6 17.6 -2.0 15.75 L1.55 4.95" ffdec:has-small-stroke="true" ffdec:original-stroke-width="0.8" fill="none" stroke="#000000" stroke-linecap="round" stroke-linejoin="round" stroke-width="1.0"/>
    <path d="M-8.3 2.8 L3.4 5.15 2.35 9.5 -3.95 11.3 -9.1 6.65 -8.3 2.8" fill="url(#gradient0)" fill-rule="evenodd" stroke="none"/>
    <path d="M-8.3 2.8 L-9.1 6.65 -3.95 11.3 2.35 9.5 3.4 5.15" fill="none" stroke="#000000" stroke-linecap="round" stroke-linejoin="round" stroke-width="1.0"/>
    <path d="M1.0 -5.25 Q4.45 -3.55 5.35 -1.5 6.2 0.55 4.1 5.25 L4.35 6.3 1.5 7.4 0.8 6.7 -0.2 7.05 -3.0 9.25 -3.9 9.3 -2.1 -2.9 1.0 -5.25" fill="url(#gradient1)" fill-rule="evenodd" stroke="none"/>
    <path d="M3.2 -3.8 Q4.4 -3.05 4.95 -1.8 L5.85 0.45 5.1 3.0 4.05 2.4 3.1 -1.75 3.2 -3.8" fill="#000000" fill-opacity="0.34509805" fill-rule="evenodd" stroke="none"/>
    <path d="M-2.5 -6.25 L-0.55 -2.9 -3.7 9.05 -4.45 8.65 -6.15 5.55 -6.95 4.8 -7.95 5.2 -10.15 3.1 -9.5 2.2 Q-9.55 -2.95 -7.25 -4.6 L-2.5 -6.25" fill="url(#gradient2)" fill-rule="evenodd" stroke="none"/>
    <path d="M-5.1 -5.5 L-5.85 -3.55 -8.35 -0.1 -9.6 0.0 -9.25 -2.6 -7.55 -4.35 Q-6.45 -5.25 -5.1 -5.5" fill="#000000" fill-opacity="0.34509805" fill-rule="evenodd" stroke="none"/>
    <path d="M-9.8 2.8 L-7.55 4.95 -6.25 4.7 -4.45 6.45 -1.65 7.15 0.75 6.65 2.1 7.25 4.1 6.4" ffdec:has-small-stroke="true" ffdec:original-stroke-width="0.8" fill="none" stroke="url(#gradient3)" stroke-linecap="round" stroke-linejoin="round" stroke-width="1.0"/>
    <path d="M-9.5 2.2 L-10.15 3.1 -9.9 3.45 -7.95 5.2 -6.75 5.1 -5.65 6.05 -5.25 7.6 -3.7 9.05 -1.05 8.35 -0.75 7.6 0.65 7.2 1.85 7.5 4.15 6.85 4.35 6.45 3.95 5.8 Q8.55 -3.4 -0.4 -5.8 -3.75 -6.5 -6.65 -4.95 -10.3 -2.85 -9.5 2.2 Z" ffdec:has-small-stroke="true" ffdec:original-stroke-width="0.8" fill="none" stroke="#000000" stroke-linecap="round" stroke-linejoin="round" stroke-width="1.0"/>
    <path d="M-2.4 -6.4 L1.4 -5.65 1.3 -3.45 0.85 -3.25 0.2 -3.0 -1.4 8.9 -3.55 8.95 -5.1 7.85 -2.5 -3.8 -2.95 -4.15 -3.45 -4.5 -2.4 -6.4" fill="#0d1012" fill-rule="evenodd" stroke="none"/>
    <path d="M0.1 -2.85 L-1.55 9.05 -3.7 9.05 -5.25 8.3 -2.6 -3.6" ffdec:has-small-stroke="true" ffdec:original-stroke-width="0.8" fill="none" stroke="#060402" stroke-linecap="round" stroke-linejoin="round" stroke-width="1.0"/>
    <path d="M-2.6 -3.6 L-1.3 -2.85 0.1 -2.85" fill="none" stroke="#060402" stroke-linecap="round" stroke-linejoin="round" stroke-width="1.0"/>
    <path d="M-2.8 -5.5 L-2.75 -6.05 -1.65 -6.3 1.15 -5.45 1.1 -4.7 -2.8 -5.5" fill="#e5c793" fill-opacity="0.21176471" fill-rule="evenodd" stroke="none"/>
    <path d="M-2.6 -3.6 L-3.5 -4.3 -2.5 -6.25 M1.3 -5.5 L1.2 -3.3 0.1 -2.85" ffdec:has-small-stroke="true" ffdec:original-stroke-width="0.8" fill="none" stroke="#000000" stroke-linecap="round" stroke-linejoin="round" stroke-width="1.0"/>
    <path d="M-2.5 -6.25 Q-0.55 -6.4 1.3 -5.5" ffdec:has-small-stroke="true" ffdec:original-stroke-width="0.8" fill="none" stroke="#000000" stroke-linecap="round" stroke-linejoin="round" stroke-width="1.0"/>
    <path d="M-2.95 5.65 Q-2.05 5.8 -2.25 6.65 -2.4 7.55 -3.3 7.4 -4.15 7.2 -4.0 6.3 -3.8 5.45 -2.95 5.65" fill="url(#gradient4)" fill-rule="evenodd" stroke="none"/>
    <path d="M-2.3 6.65 Q-2.45 7.4 -3.3 7.25 -4.05 7.1 -3.9 6.35" ffdec:has-small-stroke="true" ffdec:original-stroke-width="0.15" fill="none" stroke="#dc7911" stroke-linecap="round" stroke-linejoin="bevel" stroke-opacity="0.64705884" stroke-width="1.0"/>
    <path d="M-3.9 6.35 Q-3.7 5.55 -2.95 5.7 -2.1 5.85 -2.3 6.65" ffdec:has-small-stroke="true" ffdec:original-stroke-width="0.15" fill="none" stroke="#ac671f" stroke-linecap="round" stroke-linejoin="bevel" stroke-opacity="0.64705884" stroke-width="1.0"/>
    <path d="M-3.25 3.5 Q-3.1 2.8 -2.4 2.95 -1.65 3.1 -1.8 3.8 -1.95 4.45 -2.7 4.3 -3.4 4.15 -3.25 3.5" fill="url(#gradient5)" fill-rule="evenodd" stroke="none"/>
    <path d="M-2.45 3.05 Q-1.8 3.15 -1.9 3.75 -2.05 4.35 -2.7 4.25" ffdec:has-small-stroke="true" ffdec:original-stroke-width="0.2" fill="none" stroke="#dc7911" stroke-linecap="round" stroke-linejoin="bevel" stroke-opacity="0.64705884" stroke-width="1.0"/>
    <path d="M-2.7 4.25 Q-3.3 4.1 -3.15 3.5 -3.05 2.9 -2.45 3.05" ffdec:has-small-stroke="true" ffdec:original-stroke-width="0.2" fill="none" stroke="#ac671f" stroke-linecap="round" stroke-linejoin="bevel" stroke-opacity="0.64705884" stroke-width="1.0"/>
    <path d="M-2.15 1.75 Q-2.55 1.65 -2.45 1.15 -2.4 0.7 -2.0 0.8 -1.55 0.9 -1.6 1.35 -1.7 1.85 -2.15 1.75" fill="url(#gradient6)" fill-rule="evenodd" stroke="none"/>
    <path d="M-2.4 1.15 Q-2.35 0.8 -2.0 0.9 -1.55 1.0 -1.6 1.35" ffdec:has-small-stroke="true" ffdec:original-stroke-width="0.4" fill="none" stroke="#dc7911" stroke-linecap="round" stroke-linejoin="bevel" stroke-opacity="0.64705884" stroke-width="1.0"/>
    <path d="M-1.6 1.35 Q-1.7 1.8 -2.15 1.7 -2.5 1.6 -2.4 1.15" ffdec:has-small-stroke="true" ffdec:original-stroke-width="0.4" fill="none" stroke="#ac671f" stroke-linecap="round" stroke-linejoin="bevel" stroke-opacity="0.64705884" stroke-width="1.0"/>
    <path d="M-1.75 -0.3 Q-2.15 -0.4 -2.05 -0.85 -1.95 -1.35 -1.55 -1.25 -1.1 -1.15 -1.2 -0.65 -1.3 -0.2 -1.75 -0.3" fill="url(#gradient7)" fill-rule="evenodd" stroke="none"/>
    <path d="M-2.0 -0.85 Q-1.9 -1.3 -1.55 -1.2 -1.1 -1.1 -1.2 -0.65" ffdec:has-small-stroke="true" ffdec:original-stroke-width="0.4" fill="none" stroke="#dc7911" stroke-linecap="round" stroke-linejoin="bevel" stroke-opacity="0.64705884" stroke-width="1.0"/>
    <path d="M-1.2 -0.65 Q-1.3 -0.25 -1.75 -0.35 -2.1 -0.45 -2.0 -0.85" ffdec:has-small-stroke="true" ffdec:original-stroke-width="0.4" fill="none" stroke="#ac671f" stroke-linecap="round" stroke-linejoin="bevel" stroke-opacity="0.64705884" stroke-width="1.0"/>
  </g>
  <defs>
    <linearGradient gradientTransform="matrix(0.0076, 0.0016, -0.0015, 0.0075, -3.15, 7.65)" gradientUnits="userSpaceOnUse" id="gradient0" spreadMethod="pad" x1="-819.2" x2="819.2">
      <stop offset="0.0" stop-color="#14171b"/>
      <stop offset="1.0" stop-color="#1b1714"/>
    </linearGradient>
    <radialGradient cx="0" cy="0" gradientTransform="matrix(0.0085, 0.0017, -0.0018, 0.009, -0.75, 1.7)" gradientUnits="userSpaceOnUse" id="gradient1" r="819.2" spreadMethod="pad">
      <stop offset="0.0" stop-color="#20252c"/>
      <stop offset="0.8549019607843137" stop-color="#111008"/>
    </radialGradient>
    <radialGradient cx="0" cy="0" gradientTransform="matrix(0.009, 0.0018, -0.0018, 0.009, -3.6, 0.9)" gradientUnits="userSpaceOnUse" id="gradient2" r="819.2" spreadMethod="pad">
      <stop offset="0.0" stop-color="#20252c"/>
      <stop offset="0.8549019607843137" stop-color="#0d1012"/>
    </radialGradient>
    <linearGradient gradientTransform="matrix(0.009, 0.0018, -0.0018, 0.0089, -3.0, 5.45)" gradientUnits="userSpaceOnUse" id="gradient3" spreadMethod="pad" x1="-819.2" x2="819.2">
      <stop offset="0.0" stop-color="#b6b6b6"/>
      <stop offset="0.49411764705882355" stop-color="#e8cd84"/>
      <stop offset="1.0" stop-color="#b6b6b6"/>
    </linearGradient>
    <radialGradient cx="0" cy="0" gradientTransform="matrix(0.001, 2.0E-4, -2.0E-4, 0.001, -3.1, 6.45)" gradientUnits="userSpaceOnUse" id="gradient4" r="819.2" spreadMethod="pad">
      <stop offset="0.0" stop-color="#f9e4c0"/>
      <stop offset="1.0" stop-color="#e69c1f"/>
    </radialGradient>
    <radialGradient cx="0" cy="0" gradientTransform="matrix(2.0E-4, -8.0E-4, 8.0E-4, 2.0E-4, -2.5, 3.6)" gradientUnits="userSpaceOnUse" id="gradient5" r="819.2" spreadMethod="pad">
      <stop offset="0.0" stop-color="#f9e4c0"/>
      <stop offset="1.0" stop-color="#e69c1f"/>
    </radialGradient>
    <radialGradient cx="0" cy="0" gradientTransform="matrix(-5.0E-4, -1.0E-4, 1.0E-4, -5.0E-4, -2.0, 1.2)" gradientUnits="userSpaceOnUse" id="gradient6" r="819.2" spreadMethod="pad">
      <stop offset="0.0" stop-color="#f9e4c0"/>
      <stop offset="1.0" stop-color="#e69c1f"/>
    </radialGradient>
    <radialGradient cx="0" cy="0" gradientTransform="matrix(-5.0E-4, -1.0E-4, 1.0E-4, -5.0E-4, -1.6, -0.75)" gradientUnits="userSpaceOnUse" id="gradient7" r="819.2" spreadMethod="pad">
      <stop offset="0.0" stop-color="#f9e4c0"/>
      <stop offset="1.0" stop-color="#e69c1f"/>
    </radialGradient>
  </defs>
</svg>
