<?xml version="1.0" encoding="UTF-8" standalone="no"?>
<svg xmlns:ffdec="https://www.free-decompiler.com/flash" xmlns:xlink="http://www.w3.org/1999/xlink" ffdec:objectType="shape" height="22.05px" width="18.5px" xmlns="http://www.w3.org/2000/svg">
  <g transform="matrix(1.0, 0.0, 0.0, 1.0, 10.2, 5.1)">
    <path d="M-7.8 1.2 Q-5.65 -0.15 -4.3 -2.4 -3.85 -3.65 -2.5 -4.1 -0.8 -4.85 1.1 -4.55 2.95 -3.95 4.2 -2.55 5.1 -1.55 5.0 -0.2 5.2 2.4 6.5 4.55 L3.0 8.65 0.2 8.6 -1.0 4.4 -4.0 7.6 -6.5 6.4 -7.8 1.2 M0.8 0.65 L0.3 -1.05 -0.85 0.25 -0.4 1.95 0.8 0.65" fill="url(#gradient0)" fill-rule="evenodd" stroke="none"/>
    <path d="M6.5 4.55 L7.85 6.4 6.7 8.3 3.0 8.65 6.5 4.55 M-6.5 6.4 L-9.6 4.45 -9.75 2.25 -7.8 1.2 -6.5 6.4" fill="#474747" fill-rule="evenodd" stroke="none"/>
    <path d="M3.0 8.65 L0.75 11.15 0.25 12.25 0.15 12.5 -0.15 14.65 Q-0.45 15.95 -2.0 16.5 L-5.4 15.7 Q-6.6 14.5 -6.15 13.2 L-5.7 12.1 -5.75 12.1 -5.6 11.15 -5.55 9.65 -6.5 6.4 -4.0 7.6 -2.25 9.7 0.2 8.6 3.0 8.65 M-5.6 11.15 L-5.7 12.1 -5.6 11.15" fill="#161616" fill-rule="evenodd" stroke="none"/>
    <path d="M0.8 0.65 L-0.4 1.95 -0.85 0.25 0.3 -1.05 0.8 0.65" fill="#ff6060" fill-rule="evenodd" stroke="none"/>
    <path d="M-4.0 7.6 L-1.0 4.4 0.2 8.6 -2.25 9.7 -4.0 7.6" fill="#545454" fill-rule="evenodd" stroke="none"/>
    <path d="M-7.8 1.2 Q-5.65 -0.15 -4.3 -2.4 -3.85 -3.65 -2.5 -4.1 -0.8 -4.85 1.1 -4.55 2.95 -3.95 4.2 -2.55 5.1 -1.55 5.0 -0.2 5.2 2.4 6.5 4.55 L7.85 6.4 6.7 8.3 3.0 8.65 0.2 8.6 -2.25 9.7 -4.0 7.6 -6.5 6.4 -9.6 4.45 -9.75 2.25 -7.8 1.2" fill="none" stroke="#222222" stroke-linecap="round" stroke-linejoin="round" stroke-width="0.9"/>
    <path d="M-7.8 1.2 L-6.5 6.4 M3.0 8.65 L6.5 4.55" fill="none" stroke="#373737" stroke-linecap="round" stroke-linejoin="round" stroke-width="0.9"/>
    <path d="M3.0 8.65 L0.75 11.15 0.25 12.25 0.15 12.5 -0.15 14.65 Q-0.45 15.95 -2.0 16.5 L-5.4 15.7 Q-6.6 14.5 -6.15 13.2 L-5.7 12.1 -5.6 11.15 -5.55 9.65 -6.5 6.4 M-5.75 12.1 L-5.6 11.15" fill="none" stroke="#000000" stroke-linecap="round" stroke-linejoin="round" stroke-width="0.9"/>
    <path d="M0.8 0.65 L-0.4 1.95 -0.85 0.25 0.3 -1.05 0.8 0.65" fill="none" stroke="#751c1c" stroke-linecap="round" stroke-linejoin="round" stroke-width="0.9"/>
    <path d="M-4.0 7.6 L-1.0 4.4 0.2 8.6" fill="none" stroke="#474747" stroke-linecap="round" stroke-linejoin="round" stroke-width="0.9"/>
  </g>
  <defs>
    <radialGradient cx="0" cy="0" gradientTransform="matrix(0.009, 0.0021, -0.0021, 0.009, -0.6, 1.5)" gradientUnits="userSpaceOnUse" id="gradient0" r="819.2" spreadMethod="pad">
      <stop offset="0.01568627450980392" stop-color="#6f6f6f"/>
      <stop offset="1.0" stop-color="#484848"/>
    </radialGradient>
  </defs>
</svg>
