<?xml version="1.0" encoding="UTF-8" standalone="no"?>
<svg xmlns:ffdec="https://www.free-decompiler.com/flash" xmlns:xlink="http://www.w3.org/1999/xlink" ffdec:objectType="shape" height="19.85px" width="9.75px" xmlns="http://www.w3.org/2000/svg">
  <g transform="matrix(1.0, 0.0, 0.0, 1.0, 0.5, 0.5)">
    <path d="M7.6 5.5 L7.55 5.5 6.55 5.7 6.65 5.35 Q6.9 4.4 6.35 3.5 5.85 2.7 4.9 2.4 3.9 2.15 3.1 2.65 2.25 3.1 1.95 4.05 L1.95 4.15 Q1.75 4.75 1.95 5.35 2.0 5.65 2.2 5.95 2.65 6.85 3.65 7.1 L4.35 7.15 3.55 8.05 2.75 8.9 1.65 8.6 0.6 7.65 0.0 7.5 0.15 3.4 Q1.4 -0.9 5.05 0.2 L6.3 0.55 Q8.5 1.5 8.75 3.45 L8.25 5.3 7.6 5.5" fill="#141414" fill-rule="evenodd" stroke="none"/>
    <path d="M6.55 5.7 L6.05 6.4 5.45 6.8 4.35 7.15 3.65 7.1 Q2.65 6.85 2.2 5.95 2.0 5.65 1.95 5.35 1.75 4.75 1.95 4.15 L1.95 4.05 Q2.25 3.1 3.1 2.65 3.9 2.15 4.9 2.4 5.85 2.7 6.35 3.5 6.9 4.4 6.65 5.35 L6.55 5.7 M5.15 5.6 L5.45 4.8 5.15 3.95 Q4.8 3.65 4.3 3.65 3.85 3.65 3.5 3.95 3.2 4.3 3.2 4.8 3.2 5.25 3.5 5.6 L4.3 5.9 Q4.8 5.9 5.15 5.6 4.8 5.9 4.3 5.9 L3.5 5.6 Q3.2 5.25 3.2 4.8 3.2 4.3 3.5 3.95 3.85 3.65 4.3 3.65 4.8 3.65 5.15 3.95 L5.45 4.8 5.15 5.6" fill="#211313" fill-rule="evenodd" stroke="none"/>
    <path d="M7.55 5.5 L7.55 5.55 7.8 7.35 7.7 7.8 4.2 10.75 3.55 8.05 4.35 7.15 5.45 6.8 6.05 6.4 6.55 5.7 7.55 5.5" fill="#3b2323" fill-rule="evenodd" stroke="none"/>
    <path d="M7.55 5.55 L7.55 5.5 7.6 5.5 7.55 5.55 M0.6 7.65 L1.65 8.6 2.75 8.9 2.85 9.85 2.8 9.5 2.7 8.95 1.6 8.65 1.15 8.2 0.6 7.7 0.6 7.65 M3.0 11.2 L2.9 10.5 2.95 10.7 3.0 10.85 3.25 12.35 3.0 10.85 3.4 12.8 3.4 12.85 3.4 12.8 3.7 12.9 3.4 12.85 3.25 12.35 3.0 11.45 3.0 11.2 3.0 10.85 3.0 11.2" fill="#ffffff" fill-rule="evenodd" stroke="none"/>
    <path d="M3.55 8.05 L4.2 10.75 7.7 7.8 7.1 10.1 6.55 10.6 3.75 12.9 3.7 12.9 3.4 12.8 3.0 10.85 2.95 10.7 2.85 9.85 2.75 8.9 3.55 8.05" fill="#ff094f" fill-rule="evenodd" stroke="none"/>
    <path d="M1.1 8.35 L1.15 8.2 1.6 8.65 2.7 8.95 2.8 9.5 2.85 9.85 2.95 10.7 2.9 10.5 3.0 11.2 Q2.5 11.75 2.35 13.1 L2.3 13.55 2.3 13.7 Q2.15 15.55 2.8 18.8 L2.0 18.6 0.8 17.4 0.45 15.9 Q0.35 14.65 0.5 13.45 L0.5 13.1 1.1 8.35" fill="#1e1e1e" fill-rule="evenodd" stroke="none"/>
    <path d="M2.8 18.8 Q2.15 15.55 2.3 13.7 L2.3 13.55 2.35 13.1 Q2.5 11.75 3.0 11.2 L3.0 11.45 3.25 12.35 3.4 12.85 3.7 12.9 3.75 12.9 6.55 10.6 5.45 13.95 5.4 13.95 4.05 17.1 Q3.4 18.5 2.8 18.8" fill="#292929" fill-rule="evenodd" stroke="none"/>
    <path d="M7.55 5.5 L7.55 5.55 7.8 7.35 7.7 7.8 7.1 10.1 6.55 10.6 3.75 12.9 M7.55 5.5 L6.55 5.7 6.05 6.4 5.45 6.8 4.35 7.15 3.55 8.05 2.75 8.9 2.85 9.85 2.8 9.5 M4.35 7.15 L3.65 7.1 Q2.65 6.85 2.2 5.95 2.0 5.65 1.95 5.35 1.75 4.75 1.95 4.15 L1.95 4.05 Q2.25 3.1 3.1 2.65 3.9 2.15 4.9 2.4 5.85 2.7 6.35 3.5 6.9 4.4 6.65 5.35 L6.55 5.7 M3.0 11.2 L2.9 10.5 M2.95 10.7 L2.85 9.85 M3.25 12.35 L3.4 12.85 3.4 12.8 3.0 10.85 3.0 11.2 3.0 11.45 3.25 12.35 M3.7 12.9 L3.4 12.85 M3.4 12.8 L3.7 12.9" fill="none" stroke="#0e0808" stroke-linecap="round" stroke-linejoin="round" stroke-width="1.0"/>
    <path d="M7.55 5.55 L7.6 5.5 7.55 5.5 M7.6 5.5 L8.25 5.3 8.75 3.45 Q8.5 1.5 6.3 0.55 L5.05 0.2 Q1.4 -0.9 0.15 3.4 L0.0 7.5 0.6 7.65 1.65 8.6 2.75 8.9 M1.15 8.2 L1.1 8.35 M2.8 9.5 L2.7 8.95 1.6 8.65 1.15 8.2 0.6 7.7 0.0 7.5 M0.6 7.7 L0.6 7.65 M3.7 12.9 L3.75 12.9" fill="none" stroke="#0a0a0a" stroke-linecap="round" stroke-linejoin="round" stroke-width="1.0"/>
    <path d="M5.15 5.6 Q4.8 5.9 4.3 5.9 L3.5 5.6 Q3.2 5.25 3.2 4.8 3.2 4.3 3.5 3.95 3.85 3.65 4.3 3.65 4.8 3.65 5.15 3.95 L5.45 4.8 5.15 5.6" fill="none" stroke="#ff094f" stroke-linecap="round" stroke-linejoin="round" stroke-width="1.0"/>
    <path d="M1.1 8.35 L0.5 13.1 0.5 13.45 M6.55 10.6 L5.45 13.95" fill="none" stroke="#0c0c0c" stroke-linecap="round" stroke-linejoin="round" stroke-width="1.0"/>
    <path d="M2.9 10.5 L2.95 10.7 3.0 10.85 3.25 12.35" fill="none" stroke="#0e0808" stroke-linecap="round" stroke-linejoin="round" stroke-width="0.75"/>
    <path d="M0.5 13.45 Q0.35 14.65 0.45 15.9 L0.8 17.4 2.0 18.6 2.8 18.8 Q3.4 18.5 4.05 17.1 L5.4 13.95" fill="none" stroke="#0c0c0c" stroke-linecap="round" stroke-linejoin="round" stroke-width="1.0"/>
    <path d="M4.35 7.15 L3.65 7.1 Q2.65 6.85 2.2 5.95 2.0 5.65 1.95 5.35 1.75 4.75 1.95 4.15 L1.95 4.05 Q2.25 3.1 3.1 2.65 3.9 2.15 4.9 2.4 5.85 2.7 6.35 3.5 6.9 4.4 6.65 5.35 L6.55 5.7 7.55 5.5 7.55 5.55 7.8 7.35 7.1 10.1 3.75 12.9 3.7 12.9 3.4 12.85 3.0 11.45 3.0 11.2 2.75 8.9 4.35 7.15 5.45 6.8 6.05 6.4 6.55 5.7 M3.4 12.85 L3.4 12.8 3.0 10.85 3.0 11.2 M3.7 12.9 L3.4 12.8" fill="none" stroke="#0e0808" stroke-linecap="round" stroke-linejoin="round" stroke-width="1.0"/>
  </g>
</svg>
