<?xml version="1.0" encoding="UTF-8" standalone="no"?>
<svg xmlns:xlink="http://www.w3.org/1999/xlink" height="20.45px" width="14.0px" xmlns="http://www.w3.org/2000/svg">
  <g transform="matrix(1.0, 0.0, 0.0, 1.0, 6.35, 5.6)">
    <path d="M3.35 -2.1 Q3.15 -3.9 0.75 -4.3 -1.7 -4.65 -2.4 -3.1 -3.4 -1.1 -2.0 2.2 -1.15 4.05 -0.1 4.25 0.95 4.4 1.85 2.85 3.5 -0.35 3.35 -2.1 M1.25 14.3 Q-1.45 13.9 -2.45 11.5 -2.65 9.6 -3.1 8.05 -4.65 3.3 -4.65 -0.75 L-4.55 -1.75 Q-4.4 -2.8 -3.95 -3.5 -3.0 -4.9 -0.7 -5.1 3.15 -5.4 4.35 -1.6 5.45 2.05 4.65 11.5 3.95 14.7 1.25 14.3" fill="url(#gradient0)" fill-rule="evenodd" stroke="none"/>
    <path d="M3.35 -2.1 Q3.5 -0.35 1.85 2.85 0.95 4.4 -0.1 4.25 -1.15 4.05 -2.0 2.2 -3.4 -1.1 -2.4 -3.1 -1.7 -4.65 0.75 -4.3 3.15 -3.9 3.35 -2.1" fill="url(#gradient1)" fill-rule="evenodd" stroke="none"/>
    <path d="M3.35 -2.1 Q3.5 -0.35 1.85 2.85 0.95 4.4 -0.1 4.25 -1.15 4.05 -2.0 2.2 -3.4 -1.1 -2.4 -3.1 -1.7 -4.65 0.75 -4.3 3.15 -3.9 3.35 -2.1" fill="none" stroke="#070a0a" stroke-linecap="round" stroke-linejoin="round" stroke-width="1.0"/>
    <path d="M1.25 14.3 Q-1.45 13.9 -2.45 11.5 -2.65 9.6 -3.1 8.05 -4.65 3.3 -4.65 -0.75 L-4.55 -1.75 Q-4.4 -2.8 -3.95 -3.5 -3.0 -4.9 -0.7 -5.1 3.15 -5.4 4.35 -1.6 5.45 2.05 4.65 11.5 3.95 14.7 1.25 14.3" fill="none" stroke="#000000" stroke-linecap="round" stroke-linejoin="round" stroke-width="1.0"/>
    <path d="M6.55 13.5 L1.7 11.95 -2.95 12.9 Q-5.25 7.2 -5.85 0.3 -3.15 4.7 -1.3 5.75 0.55 6.75 2.6 4.4 4.65 2.05 5.35 -2.35 8.15 3.3 6.55 13.5" fill="url(#gradient2)" fill-rule="evenodd" stroke="none"/>
    <path d="M6.55 13.5 Q8.15 3.3 5.35 -2.35 4.65 2.05 2.6 4.4 0.55 6.75 -1.3 5.75 -3.15 4.7 -5.85 0.3 -5.25 7.2 -2.95 12.9 L1.7 11.95 6.55 13.5 Z" fill="none" stroke="#0d1215" stroke-linecap="round" stroke-linejoin="round" stroke-width="1.0"/>
  </g>
  <defs>
    <linearGradient gradientTransform="matrix(0.0041, 0.0, 0.0, 0.0119, -0.2, 4.6)" gradientUnits="userSpaceOnUse" id="gradient0" spreadMethod="pad" x1="-819.2" x2="819.2">
      <stop offset="0.0" stop-color="#0d0d0d"/>
      <stop offset="1.0" stop-color="#1a1a1a"/>
    </linearGradient>
    <radialGradient cx="0" cy="0" gradientTransform="matrix(0.0423, 0.0, 0.0, 0.0446, -24.5, 18.6)" gradientUnits="userSpaceOnUse" id="gradient1" r="819.2" spreadMethod="pad">
      <stop offset="0.0" stop-color="#1d2b38"/>
      <stop offset="0.6588235294117647" stop-color="#27363f"/>
      <stop offset="1.0" stop-color="#4d6277"/>
    </radialGradient>
    <radialGradient cx="0" cy="0" gradientTransform="matrix(0.0338, 0.0, 0.0, 0.0356, -18.5, 12.45)" gradientUnits="userSpaceOnUse" id="gradient2" r="819.2" spreadMethod="pad">
      <stop offset="0.0" stop-color="#1d2b38"/>
      <stop offset="0.6588235294117647" stop-color="#27363f"/>
      <stop offset="1.0" stop-color="#4d6277"/>
    </radialGradient>
  </defs>
</svg>
