<?xml version="1.0" encoding="UTF-8" standalone="no"?>
<svg xmlns:ffdec="https://www.free-decompiler.com/flash" xmlns:xlink="http://www.w3.org/1999/xlink" ffdec:objectType="shape" height="21.75px" width="15.6px" xmlns="http://www.w3.org/2000/svg">
  <g transform="matrix(1.0, 0.0, 0.0, 1.0, 5.85, 1.0)">
    <path d="M1.6 0.95 Q3.25 3.6 6.75 11.55 L6.3 11.45 Q5.4 11.2 5.15 11.95 4.3 12.1 1.6 6.65 -0.65 2.15 -0.5 3.7 L-1.2 3.2 -0.45 3.1 Q1.5 2.8 1.6 0.95" fill="#687d84" fill-rule="evenodd" stroke="none"/>
    <path d="M6.25 13.55 Q8.35 14.05 8.8 15.7 9.15 17.05 8.3 18.5 7.5 19.95 6.45 19.9 5.35 19.9 5.05 17.75 4.9 15.9 5.3 15.1 L6.25 13.55" fill="#111920" fill-rule="evenodd" stroke="none"/>
    <path d="M-3.55 2.8 L-2.05 8.1 -3.05 8.75 Q-4.95 8.0 -5.3 5.65 -5.6 3.4 -4.3 1.8 L-3.55 2.8" fill="#2d3f4c" fill-rule="evenodd" stroke="none"/>
    <path d="M3.3 1.75 L0.0 3.75 Q1.0 4.8 3.6 9.25 5.25 12.1 7.35 12.0 L7.8 13.5 Q7.05 14.0 5.65 15.25 4.6 16.2 4.2 16.2 3.55 16.2 2.8 15.15 1.95 13.95 0.2 13.9 L-0.6 10.4 Q-1.85 8.7 -2.85 6.1 -3.9 3.0 -4.5 1.45 -3.55 1.45 -3.1 1.05 L-1.95 -0.3 Q-0.6 -0.25 0.75 0.4 L3.3 1.75" fill="#19232c" fill-rule="evenodd" stroke="none"/>
    <path d="M3.85 2.0 L4.5 3.05 5.85 3.9 6.25 7.7 7.65 11.6 5.35 11.8 Q2.55 8.95 0.1 2.8 1.8 1.95 3.85 2.0" fill="#3a6185" fill-opacity="0.61960787" fill-rule="evenodd" stroke="none"/>
    <path d="M2.1 1.8 L-0.3 3.75 2.5 6.6 3.35 9.65 Q3.8 10.95 5.45 12.0 L5.6 11.8 6.4 11.75 Q7.05 11.6 7.35 11.95 8.15 12.85 8.1 13.8 8.95 15.05 9.05 16.2 9.1 17.2 8.65 18.4 L8.3 18.65 7.95 18.95 7.9 19.1 7.35 20.15 Q7.0 20.4 5.55 19.5 L5.05 17.8 4.4 16.9 3.5 15.7 2.6 14.4 Q0.45 15.1 -0.3 13.1 -1.1 11.15 -0.1 10.85 L-1.75 8.45 Q-1.9 8.25 -1.85 8.6 -1.85 9.15 -2.1 9.15 -4.55 8.25 -5.1 6.0 -5.55 3.9 -4.1 1.45 L-3.3 2.85 Q-3.95 4.55 -3.6 5.7 L-1.9 8.25 -3.6 5.55 Q-2.2 4.95 2.1 1.8 L3.7 1.7 1.55 0.65 Q1.3 0.3 0.85 0.2 L-0.65 -0.35 -1.5 -0.4 -2.4 -0.25 Q-2.0 0.55 -3.35 1.7 M8.1 13.8 Q6.45 13.95 5.85 14.35 4.7 15.0 4.8 16.75 L5.1 17.45 5.9 18.55 7.1 18.9 7.9 19.1 M5.45 12.0 L2.8 14.15 Q3.6 13.15 3.05 11.8 2.4 10.3 0.4 10.65" fill="none" stroke="#0e1314" stroke-linecap="round" stroke-linejoin="round" stroke-width="1.0"/>
    <path d="M3.65 1.8 L4.25 2.95 4.95 3.45 5.7 3.95 6.05 6.75 6.05 7.1 Q7.7 11.35 7.45 11.8 L7.0 10.55 6.2 8.05 5.1 7.05 3.7 6.45 Q3.35 6.35 3.0 6.6 L2.5 6.85" fill="none" stroke="#090909" stroke-linecap="round" stroke-linejoin="round" stroke-opacity="0.53333336" stroke-width="1.0"/>
    <path d="M5.85 19.45 L4.35 16.8 3.1 15.2 2.7 14.4 Q0.9 15.1 0.25 13.9 L-0.4 12.8 -0.55 12.1 -0.45 11.15 -0.2 10.75 -1.6 8.75 -2.45 8.8 Q-3.6 8.7 -4.45 7.5 L-5.35 5.4 -5.2 4.0 -4.85 2.7 -4.3 1.6 Q-2.6 0.8 -1.65 -0.3 -0.8 -0.7 2.3 0.8 2.9 1.05 3.8 2.15 L4.45 3.2 5.7 4.0 6.2 7.5 8.3 13.75 8.85 14.95 Q9.3 15.95 9.25 16.5 L8.85 17.85 8.35 18.8 7.95 19.6 7.45 20.25 7.3 20.15 5.95 19.6 5.8 19.5 5.85 19.45 5.9 19.15 7.2 19.7 7.2 20.05 7.3 20.15 M5.85 19.45 L5.95 19.6" fill="none" stroke="#000000" stroke-linecap="round" stroke-linejoin="round" stroke-opacity="0.4509804" stroke-width="1.0"/>
    <path d="M2.95 3.9 L3.75 4.05 M-0.75 8.1 L0.4 7.8 M4.9 8.85 L5.5 8.9 M0.25 9.9 L1.0 9.6 M5.5 10.6 L5.85 10.6" fill="none" stroke="#8ecdf7" stroke-linecap="round" stroke-linejoin="miter-clip" stroke-miterlimit="4.0" stroke-width="1.0"/>
  </g>
</svg>
