<?xml version="1.0" encoding="UTF-8" standalone="no"?>
<svg xmlns:ffdec="https://www.free-decompiler.com/flash" xmlns:xlink="http://www.w3.org/1999/xlink" ffdec:objectType="shape" height="19.85px" width="10.25px" xmlns="http://www.w3.org/2000/svg">
  <g transform="matrix(1.0, 0.0, 0.0, 1.0, -0.95, 0.1)">
    <path d="M10.45 4.1 L10.4 7.2 Q10.35 9.45 10.6 10.8 L8.2 15.2 3.9 17.65 3.8 17.3 3.55 16.05 2.7 14.35 2.7 14.2 5.0 12.85 5.1 12.8 6.95 11.75 10.45 4.1" fill="#313131" fill-rule="evenodd" stroke="none"/>
    <path d="M3.45 8.8 L3.55 4.15 Q3.35 3.2 3.75 2.5 4.2 1.5 5.15 1.0 5.6 0.75 6.2 0.65 L9.2 0.8 9.55 1.0 Q10.65 1.85 10.4 3.6 L10.45 4.1 6.95 11.75 5.1 12.8 5.0 12.85 2.7 14.2 Q2.5 12.95 3.1 11.8 L2.75 11.55 1.7 10.95 Q1.3 10.1 1.5 9.8 L1.8 9.3 Q2.0 9.0 2.25 8.95 L2.6 8.8 3.45 8.8 4.25 8.8 4.65 8.9 6.1 9.8 4.65 8.9 4.25 8.8 3.45 8.8 M3.9 17.65 L8.2 15.2 10.6 10.8 10.6 10.95 Q10.8 12.1 10.5 12.7 10.55 13.3 10.05 14.1 9.4 14.95 9.3 15.3 L9.1 16.5 Q9.0 17.5 7.6 18.45 L6.0 19.2 Q4.75 19.4 4.2 18.4 L3.9 17.65 M9.05 3.6 L7.9 2.25 9.05 3.6 M8.7 4.45 L8.35 3.95 7.25 3.3 Q6.55 2.9 6.15 2.8 6.55 2.9 7.25 3.3 L8.35 3.95 8.7 4.45 M5.0 12.85 L3.1 11.8 5.0 12.85" fill="#1c1c1c" fill-rule="evenodd" stroke="none"/>
    <path d="M6.15 2.8 Q6.55 2.9 7.25 3.3 L8.35 3.95 8.7 4.45 M7.9 2.25 L9.05 3.6" ffdec:has-small-stroke="true" ffdec:original-stroke-width="0.8" fill="none" stroke="#272727" stroke-linecap="round" stroke-linejoin="round" stroke-width="1.0"/>
    <path d="M10.45 4.1 L10.4 3.6 Q10.65 1.85 9.55 1.0 L9.2 0.8 6.2 0.65 Q5.6 0.75 5.15 1.0 4.2 1.5 3.75 2.5 3.35 3.2 3.55 4.15 L3.45 8.8 4.25 8.8 4.65 8.9 6.1 9.8 M10.6 10.8 Q10.35 9.45 10.4 7.2 L10.45 4.1 M5.1 12.8 L5.0 12.85 3.1 11.8 Q2.5 12.95 2.7 14.2 L2.7 14.35 3.55 16.05 3.8 17.3 3.9 17.65 4.2 18.4 Q4.75 19.4 6.0 19.2 L7.6 18.45 Q9.0 17.5 9.1 16.5 L9.3 15.3 Q9.4 14.95 10.05 14.1 10.55 13.3 10.5 12.7 10.8 12.1 10.6 10.95 L10.6 10.8 M3.45 8.8 L2.6 8.8 2.25 8.95 Q2.0 9.0 1.8 9.3 L1.5 9.8 Q1.3 10.1 1.7 10.95 L2.75 11.55 3.1 11.8" fill="none" stroke="#151515" stroke-linecap="round" stroke-linejoin="round" stroke-width="1.0"/>
  </g>
</svg>
