<?xml version="1.0" encoding="UTF-8" standalone="no"?>
<svg xmlns:ffdec="https://www.free-decompiler.com/flash" xmlns:xlink="http://www.w3.org/1999/xlink" ffdec:objectType="shape" height="6.6px" width="11.5px" xmlns="http://www.w3.org/2000/svg">
  <g transform="matrix(1.0, 0.0, 0.0, 1.0, 3.95, 0.65)">
    <path d="M4.35 -0.1 L6.85 -0.15 6.85 -0.1 Q7.3 2.5 6.85 5.45 L-2.9 5.45 Q-3.75 2.7 -3.25 -0.15 L4.35 -0.1 6.85 -0.1 4.35 -0.1" fill="#380202" fill-rule="evenodd" stroke="none"/>
    <path d="M4.35 -0.1 L6.85 -0.1 6.85 -0.15 M6.85 -0.1 Q7.3 2.5 6.85 5.45 L-2.9 5.45 Q-3.75 2.7 -3.25 -0.15 L4.35 -0.1" fill="none" stroke="#090000" stroke-linecap="round" stroke-linejoin="round" stroke-width="1.0"/>
    <path d="M2.7 3.15 L2.5 3.6 2.55 3.7 2.55 3.85 2.55 3.9 2.4 4.1 2.35 4.15 2.35 4.35 2.4 4.35 2.55 4.25 2.55 4.35 2.5 4.4 2.4 4.6 2.4 4.7 2.35 5.0 2.25 5.05 2.2 5.25 2.1 5.45 2.1 5.0 2.25 4.45 2.2 4.15 2.25 4.0 2.25 3.85 2.2 3.7 2.2 3.55 2.2 3.45 2.2 3.4 2.05 3.3 2.1 3.25 2.1 3.2 2.0 3.1 2.0 3.15 1.9 3.1 1.8 2.95 1.8 2.65 1.75 2.4 1.8 2.3 1.8 2.25 1.9 2.15 1.95 1.95 1.95 1.75 1.8 1.55 Q1.65 1.2 1.8 0.85 L1.9 0.85 1.95 0.8 2.0 0.75 2.0 0.6 1.95 0.6 1.9 0.55 1.95 0.3 1.95 0.25 1.75 0.25 1.7 0.2 1.7 0.35 1.75 0.65 1.7 0.8 1.75 0.95 1.7 1.15 1.65 1.65 1.75 1.75 1.8 1.95 1.8 2.1 1.75 2.25 1.7 2.3 1.7 2.6 1.7 2.95 1.6 3.0 1.4 3.3 1.4 3.5 1.35 3.6 1.35 3.75 1.2 3.85 1.2 4.0 1.25 4.1 1.4 5.35 1.2 5.0 1.15 4.9 1.1 4.85 1.1 4.7 1.15 4.65 0.95 4.35 0.85 4.3 0.85 4.15 0.8 4.1 0.8 4.05 0.8 3.9 0.85 3.8 0.9 3.9 0.95 3.6 0.9 3.45 0.85 3.3 0.85 2.95 0.9 2.6 0.9 2.35 0.9 2.3 0.95 2.25 0.95 2.1 0.95 1.85 0.9 1.65 0.85 1.65 0.8 1.65 0.65 1.55 0.65 1.45 0.55 1.5 0.3 1.4 0.15 1.35 0.0 1.25 0.0 1.2 0.0 1.1 0.05 1.05 0.15 0.85 0.35 0.6 0.5 0.5 0.6 0.35 0.65 0.3 0.8 0.25 0.9 0.25 1.25 0.05 1.35 0.0 1.45 0.05 1.6 0.1 1.65 0.0 1.75 0.0 1.9 0.0 2.0 0.05 2.1 0.1 2.35 0.1 2.6 0.2 2.7 0.25 2.9 0.3 3.0 0.5 3.15 0.9 3.35 0.95 3.35 1.05 3.45 1.15 3.45 1.2 3.4 1.35 3.35 1.35 3.2 1.35 3.15 1.4 3.0 1.4 2.95 1.45 2.9 1.5 2.9 1.4 2.8 1.5 2.85 1.55 2.8 1.7 2.7 1.75 2.65 1.75 2.65 1.8 2.6 1.95 2.55 2.0 2.5 2.1 2.55 2.3 2.55 2.35 2.55 2.6 2.6 2.85 2.7 3.1 2.7 3.15 2.85 3.0 2.95 3.0 3.0 3.1 3.0 3.2 2.95 3.4 2.85 3.45 2.85 3.55 2.8 3.6 2.7 3.75 2.65 3.8 2.65 3.85 2.6 3.85 2.6 3.7 2.65 3.45 2.7 3.3 2.7 3.15 M0.95 4.15 L1.05 4.25 1.1 4.35 1.1 4.3 1.05 4.15 1.05 4.05 0.9 4.0 0.9 4.1 0.95 4.15 M0.75 3.1 L0.8 3.15 0.8 3.2 0.85 3.5 0.85 3.7 0.8 3.6 0.65 3.6 0.55 3.5 0.5 3.45 0.45 3.3 0.35 3.2 0.35 3.1 0.45 3.1 0.6 3.1 0.75 3.1 M3.0 2.55 L3.0 2.4 3.2 2.5 3.2 2.55 3.2 2.65 3.25 2.7 3.15 2.85 3.1 2.9 3.0 3.0 2.95 2.95 2.9 2.95 2.9 2.85 2.9 2.7 3.0 2.65 3.0 2.55" fill="#090000" fill-rule="evenodd" stroke="none"/>
  </g>
</svg>
