<?xml version="1.0" encoding="UTF-8" standalone="no"?>
<svg xmlns:xlink="http://www.w3.org/1999/xlink" height="11.0px" width="20.9px" xmlns="http://www.w3.org/2000/svg">
  <g transform="matrix(1.0, 0.0, 0.0, 1.0, 6.95, 4.1)">
    <path d="M5.75 1.1 L5.5 1.6 Q5.25 2.2 3.95 2.55 L5.1 3.9 Q6.35 4.55 8.55 4.65 L8.6 4.8 1.4 4.75 Q-1.25 4.35 -3.7 2.6 L-4.8 2.6 -3.4 0.35 Q2.0 -6.6 3.5 -1.35 3.95 1.2 5.75 1.1" fill="#152026" fill-rule="evenodd" stroke="none"/>
    <path d="M-4.8 2.6 L-3.4 0.35 Q2.0 -6.6 3.5 -1.35 3.95 1.2 5.75 1.1" fill="none" stroke="#070a0a" stroke-linecap="round" stroke-linejoin="round" stroke-width="1.0"/>
    <path d="M13.15 6.1 L12.6 6.4 -4.9 6.4 Q-5.8 6.15 -6.45 4.75 -6.15 3.45 -5.4 2.8 L-4.8 2.6 -3.7 2.6 Q-1.25 4.35 1.4 4.75 L8.6 4.8 Q10.9 6.2 13.15 6.1" fill="#212f3a" fill-rule="evenodd" stroke="none"/>
    <path d="M13.15 6.1 L12.6 6.4 -4.9 6.4 Q-5.8 6.15 -6.45 4.75 -6.15 3.45 -5.4 2.8 L-4.8 2.6 -3.7 2.6 Q-1.25 4.35 1.4 4.75 L8.6 4.8" fill="none" stroke="#070a0a" stroke-linecap="round" stroke-linejoin="round" stroke-width="1.0"/>
    <path d="M13.3 6.1 L13.15 6.1 8.75 5.95 8.6 4.8 8.55 4.65 Q6.35 4.55 5.1 3.9 L3.95 2.55 Q5.25 2.2 5.5 1.6 L5.75 1.1 Q6.25 0.25 6.8 0.45 8.25 0.95 10.4 2.05 13.05 3.3 13.3 3.95 13.6 5.8 13.3 6.1" fill="url(#gradient0)" fill-rule="evenodd" stroke="none"/>
    <path d="M13.3 6.1 L13.15 6.1 8.75 5.95 8.6 4.8 8.55 4.65 Q6.35 4.55 5.1 3.9 L3.95 2.55 Q5.25 2.2 5.5 1.6 L5.75 1.1 Q6.25 0.25 6.8 0.45 8.25 0.95 10.4 2.05 13.05 3.3 13.3 3.95 13.6 5.8 13.3 6.1 Z" fill="none" stroke="#070a0a" stroke-linecap="round" stroke-linejoin="round" stroke-width="1.0"/>
  </g>
  <defs>
    <linearGradient gradientTransform="matrix(0.0141, 0.0, 0.0, 0.0061, -0.9, -13.65)" gradientUnits="userSpaceOnUse" id="gradient0" spreadMethod="pad" x1="-819.2" x2="819.2">
      <stop offset="0.0" stop-color="#152026"/>
      <stop offset="1.0" stop-color="#425668"/>
    </linearGradient>
  </defs>
</svg>
