<?xml version="1.0" encoding="UTF-8" standalone="no"?>
<svg xmlns:ffdec="https://www.free-decompiler.com/flash" xmlns:xlink="http://www.w3.org/1999/xlink" ffdec:objectType="shape" height="20.8px" width="15.55px" xmlns="http://www.w3.org/2000/svg">
  <g transform="matrix(1.0, 0.0, 0.0, 1.0, 8.45, 6.15)">
    <path d="M6.2 -1.85 L6.35 -1.75 4.95 2.85 6.2 -1.85 M-5.45 -0.35 L-4.15 -4.85 -2.5 -5.2 -3.65 -4.5 Q-5.1 -1.6 -5.1 0.7 L-5.45 -0.35" fill="#8a8580" fill-rule="evenodd" stroke="none"/>
    <path d="M5.1 -2.75 L5.85 -2.05 6.2 -2.0 6.2 -1.85 4.95 2.85 2.9 4.3 5.1 -2.75 M-2.5 -5.2 L-4.5 2.3 -4.9 1.15 -5.15 1.05 -5.1 0.7 Q-5.1 -1.6 -3.65 -4.5 L-2.5 -5.2" fill="#666666" fill-rule="evenodd" stroke="none"/>
    <path d="M-2.5 -5.2 L-0.9 -5.65 3.3 -4.4 5.1 -2.75 2.9 4.3 0.55 6.05 -3.45 4.9 -4.5 2.3 -2.5 -5.2" fill="url(#gradient0)" fill-rule="evenodd" stroke="none"/>
    <path d="M-6.55 8.95 L-7.6 7.5 Q-8.5 3.0 -6.95 -0.8 L-5.45 -0.35 -5.1 0.7 -5.15 1.05 -4.9 1.15 -4.5 2.3 -3.45 4.9 -3.6 8.85 -5.0 9.95 -6.0 9.7 -6.55 8.95" fill="url(#gradient1)" fill-rule="evenodd" stroke="none"/>
    <path d="M1.35 11.05 L0.7 13.2 Q-4.35 15.9 -7.1 10.9 L-6.55 8.95 -6.0 9.7 -5.0 9.95 -3.6 8.85 -3.45 4.9 0.55 6.05 -1.6 9.7 -0.95 11.3 0.0 11.65 1.35 11.05 M-3.6 8.85 L-1.7 9.5 -1.6 9.7 -1.7 9.5 -3.6 8.85" fill="#333333" fill-rule="evenodd" stroke="none"/>
    <path d="M4.95 2.85 L6.6 3.3 Q5.8 7.55 2.85 10.35 L1.35 11.05 0.0 11.65 -0.95 11.3 -1.6 9.7 0.55 6.05 2.9 4.3 4.95 2.85" fill="url(#gradient2)" fill-rule="evenodd" stroke="none"/>
    <path d="M-2.5 -5.2 L-0.9 -5.65 3.3 -4.4 5.1 -2.75 5.85 -2.05 M6.2 -1.85 L6.35 -1.75 4.95 2.85 6.6 3.3 Q5.8 7.55 2.85 10.35 L1.35 11.05 0.0 11.65 -0.95 11.3 -1.6 9.7 -1.7 9.5 -3.6 8.85 -5.0 9.95 -6.0 9.7 -6.55 8.95 -7.6 7.5 Q-8.5 3.0 -6.95 -0.8 L-5.45 -0.35 -4.15 -4.85 -2.5 -5.2 M-4.5 2.3 L-3.45 4.9 0.55 6.05 2.9 4.3 4.95 2.85 M-4.9 1.15 L-4.5 2.3 M-5.1 0.7 L-5.45 -0.35 M-3.45 4.9 L-3.6 8.85 M0.55 6.05 L-1.6 9.7" fill="none" stroke="#2b2927" stroke-linecap="round" stroke-linejoin="round" stroke-width="1.0"/>
    <path d="M1.35 11.05 L0.7 13.2 Q-4.35 15.9 -7.1 10.9 L-6.55 8.95" fill="none" stroke="#2d2423" stroke-linecap="round" stroke-linejoin="round" stroke-width="1.0"/>
  </g>
  <defs>
    <radialGradient cx="0" cy="0" gradientTransform="matrix(0.011, 1.0E-4, -1.0E-4, 0.011, -0.95, -3.35)" gradientUnits="userSpaceOnUse" id="gradient0" r="819.2" spreadMethod="pad">
      <stop offset="0.0" stop-color="#47423c"/>
      <stop offset="1.0" stop-color="#635547"/>
    </radialGradient>
    <radialGradient cx="0" cy="0" gradientTransform="matrix(0.0073, 1.0E-4, -1.0E-4, 0.0073, -6.9, 3.75)" gradientUnits="userSpaceOnUse" id="gradient1" r="819.2" spreadMethod="pad">
      <stop offset="0.0" stop-color="#4d4946"/>
      <stop offset="1.0" stop-color="#3c3b38"/>
      <stop offset="1.0" stop-color="#333333"/>
    </radialGradient>
    <radialGradient cx="0" cy="0" gradientTransform="matrix(0.0073, 1.0E-4, -1.0E-4, 0.0073, 1.2, 6.25)" gradientUnits="userSpaceOnUse" id="gradient2" r="819.2" spreadMethod="pad">
      <stop offset="0.0" stop-color="#4d4946"/>
      <stop offset="1.0" stop-color="#3c3b38"/>
      <stop offset="1.0" stop-color="#333333"/>
    </radialGradient>
  </defs>
</svg>
