<?xml version="1.0" encoding="UTF-8" standalone="no"?>
<svg xmlns:ffdec="https://www.free-decompiler.com/flash" xmlns:xlink="http://www.w3.org/1999/xlink" ffdec:objectType="shape" height="22.75px" width="11.8px" xmlns="http://www.w3.org/2000/svg">
  <g transform="matrix(1.0, 0.0, 0.0, 1.0, 3.65, 2.55)">
    <path d="M-1.9 4.15 Q-3.45 2.35 -3.05 0.0 L-2.7 -1.5 -2.4 -2.05 -1.8 -2.0 -0.4 -1.75 Q1.95 -1.05 3.55 0.65 3.0 2.85 0.55 3.75 L-1.9 4.15" fill="#2a2a2a" fill-rule="evenodd" stroke="none"/>
    <path d="M3.55 0.65 L5.9 2.8 6.2 5.75 1.55 6.7 -1.6 5.55 -1.9 4.15 0.55 3.75 Q3.0 2.85 3.55 0.65 M6.4 7.6 L6.7 9.7 2.65 10.3 2.05 8.25 6.4 7.6 M6.9 11.35 L6.9 12.55 6.2 13.3 6.5 14.6 Q6.7 16.15 6.3 17.2 L6.25 17.2 5.8 17.25 5.75 17.2 4.4 16.85 3.95 16.0 Q3.15 15.0 1.85 14.5 L2.2 12.6 3.55 13.15 3.1 11.7 6.9 11.35 M4.35 3.95 L3.2 5.4 4.35 3.95 M6.2 13.3 L5.7 13.75 3.8 13.2 3.55 13.15 3.8 13.2 5.7 13.75 6.2 13.3" fill="#323232" fill-rule="evenodd" stroke="none"/>
    <path d="M5.8 17.25 Q5.4 18.9 4.05 19.7 3.0 19.45 2.05 18.7 0.3 17.2 1.55 14.95 L1.85 14.5 Q3.15 15.0 3.95 16.0 L4.4 16.85 5.75 17.2 5.8 17.25" fill="#444444" fill-rule="evenodd" stroke="none"/>
    <path d="M2.2 12.6 L-0.5 12.3 -1.25 10.1 -1.85 8.1 -2.05 7.05 Q-2.0 6.1 -1.6 5.55 L1.55 6.7 2.05 8.25 2.65 10.3 3.1 11.7 3.55 13.15 2.2 12.6 M0.0 9.85 L-1.25 10.1 0.0 9.85 M-0.2 8.05 L-1.85 8.1 -0.2 8.05" fill="#797979" fill-rule="evenodd" stroke="none"/>
    <path d="M6.2 5.75 Q7.95 6.4 6.4 7.6 L2.05 8.25 1.55 6.7 6.2 5.75 M6.7 9.7 Q8.5 10.25 6.9 11.35 L3.1 11.7 2.65 10.3 6.7 9.7" fill="#202020" fill-rule="evenodd" stroke="none"/>
    <path d="M-1.9 4.15 Q-3.45 2.35 -3.05 0.0 L-2.7 -1.5 -2.4 -2.05 -1.8 -2.0 -0.4 -1.75 Q1.95 -1.05 3.55 0.65 3.0 2.85 0.55 3.75 L-1.9 4.15 M3.2 5.4 L4.35 3.95 M3.1 11.7 L2.65 10.3 2.05 8.25 1.55 6.7 -1.6 5.55 M2.65 10.3 L6.7 9.7 M2.05 8.25 L6.4 7.6 M6.9 11.35 L3.1 11.7 3.55 13.15 2.2 12.6 M6.2 5.75 L1.55 6.7" fill="none" stroke="#131313" stroke-linecap="round" stroke-linejoin="round" stroke-width="1.0"/>
    <path d="M3.55 0.65 L5.9 2.8 6.2 5.75 Q7.95 6.4 6.4 7.6 L6.7 9.7 Q8.5 10.25 6.9 11.35 L6.9 12.55 6.2 13.3 6.5 14.6 Q6.7 16.15 6.3 17.2 L6.25 17.2 5.8 17.25 Q5.4 18.9 4.05 19.7 3.0 19.45 2.05 18.7 0.3 17.2 1.55 14.95 L1.85 14.5 2.2 12.6 M-1.6 5.55 L-1.9 4.15 M3.55 13.15 L3.8 13.2 5.7 13.75 6.2 13.3 M5.75 17.2 L4.4 16.85 3.95 16.0 Q3.15 15.0 1.85 14.5" fill="none" stroke="#1a1a1a" stroke-linecap="round" stroke-linejoin="round" stroke-width="1.0"/>
    <path d="M-1.85 8.1 L-0.2 8.05 M-1.25 10.1 L0.0 9.85" fill="none" stroke="#565656" stroke-linecap="round" stroke-linejoin="round" stroke-width="1.0"/>
    <path d="M2.2 12.6 L-0.5 12.3 -1.25 10.1 -1.85 8.1 -2.05 7.05 Q-2.0 6.1 -1.6 5.55" fill="none" stroke="#262626" stroke-linecap="round" stroke-linejoin="round" stroke-width="1.0"/>
  </g>
</svg>
