<?xml version="1.0" encoding="UTF-8" standalone="no"?>
<svg xmlns:ffdec="https://www.free-decompiler.com/flash" xmlns:xlink="http://www.w3.org/1999/xlink" ffdec:objectType="shape" height="3.4px" width="3.35px" xmlns="http://www.w3.org/2000/svg">
  <g transform="matrix(1.0, 0.0, 0.0, 1.0, 0.0, 0.0)">
    <path d="M2.8 1.55 L3.35 1.7 2.8 1.9 2.1 2.1 1.85 2.8 1.7 3.4 1.5 2.8 1.25 2.1 0.55 1.9 0.0 1.7 0.55 1.55 1.25 1.3 1.5 0.55 1.7 0.0 1.85 0.55 2.1 1.3 2.8 1.55" fill="#333333" fill-rule="evenodd" stroke="none"/>
    <path d="M2.8 1.9 L2.5 2.5 1.85 2.8 2.1 2.1 2.8 1.9 M1.5 2.8 Q1.15 2.75 0.85 2.5 L0.55 1.9 1.25 2.1 1.5 2.8 M0.55 1.55 Q0.55 1.15 0.85 0.85 1.15 0.55 1.5 0.55 L1.25 1.3 0.55 1.55 M1.85 0.55 L2.5 0.85 2.8 1.55 2.1 1.3 1.85 0.55" fill="#666666" fill-rule="evenodd" stroke="none"/>
  </g>
</svg>
