<?xml version="1.0" encoding="UTF-8" standalone="no"?>
<svg xmlns:xlink="http://www.w3.org/1999/xlink" height="23.2px" width="9.2px" xmlns="http://www.w3.org/2000/svg">
  <g transform="matrix(1.0, 0.0, 0.0, 1.0, -9.4, 12.4)">
    <path d="M13.7 -12.35 L13.95 -12.4 Q15.65 -12.4 16.8 -10.5 18.0 -8.65 18.0 -6.0 18.0 -3.35 16.8 -1.45 15.65 0.4 13.95 0.4 L13.7 0.4 13.7 -12.35" fill="url(#gradient0)" fill-rule="evenodd" stroke="none"/>
    <path d="M13.7 0.4 L13.4 0.4 Q11.75 0.4 10.55 -1.45 9.4 -3.35 9.4 -6.0 9.4 -8.65 10.55 -10.5 11.75 -12.4 13.4 -12.4 L13.7 -12.35 13.7 0.4" fill="url(#gradient1)" fill-rule="evenodd" stroke="none"/>
    <path d="M14.7 -0.7 L15.0 -0.75 Q16.5 -0.75 17.55 0.95 18.6 2.65 18.6 5.05 18.6 7.4 17.55 9.1 16.5 10.8 15.0 10.8 L14.7 10.8 14.7 -0.7" fill="url(#gradient2)" fill-rule="evenodd" stroke="none"/>
    <path d="M14.7 10.8 L14.5 10.8 Q12.95 10.8 11.9 9.1 10.85 7.4 10.85 5.05 10.85 2.65 11.9 0.95 12.95 -0.75 14.5 -0.75 L14.7 -0.7 14.7 10.8" fill="url(#gradient3)" fill-rule="evenodd" stroke="none"/>
  </g>
  <defs>
    <radialGradient cx="0" cy="0" gradientTransform="matrix(0.0, 0.0069, -0.0049, 0.0, 13.95, -6.0)" gradientUnits="userSpaceOnUse" id="gradient0" r="819.2" spreadMethod="pad">
      <stop offset="0.17647058823529413" stop-color="#ffffff"/>
      <stop offset="1.0" stop-color="#139ffd" stop-opacity="0.0"/>
    </radialGradient>
    <radialGradient cx="0" cy="0" gradientTransform="matrix(0.0, 0.0069, 0.0049, 0.0, 13.4, -6.0)" gradientUnits="userSpaceOnUse" id="gradient1" r="819.2" spreadMethod="pad">
      <stop offset="0.17647058823529413" stop-color="#ffffff"/>
      <stop offset="1.0" stop-color="#139ffd" stop-opacity="0.0"/>
    </radialGradient>
    <radialGradient cx="0" cy="0" gradientTransform="matrix(0.0, 0.0063, -0.0044, 0.0, 14.95, 5.05)" gradientUnits="userSpaceOnUse" id="gradient2" r="819.2" spreadMethod="pad">
      <stop offset="0.17647058823529413" stop-color="#ffffff"/>
      <stop offset="1.0" stop-color="#139ffd" stop-opacity="0.0"/>
    </radialGradient>
    <radialGradient cx="0" cy="0" gradientTransform="matrix(0.0, 0.0063, 0.0044, 0.0, 14.5, 5.05)" gradientUnits="userSpaceOnUse" id="gradient3" r="819.2" spreadMethod="pad">
      <stop offset="0.17647058823529413" stop-color="#ffffff"/>
      <stop offset="1.0" stop-color="#139ffd" stop-opacity="0.0"/>
    </radialGradient>
  </defs>
</svg>
