<?xml version="1.0" encoding="UTF-8" standalone="no"?>
<svg xmlns:xlink="http://www.w3.org/1999/xlink" height="23.15px" width="12.3px" xmlns="http://www.w3.org/2000/svg">
  <g transform="matrix(1.0, 0.0, 0.0, 1.0, 2.7, 3.5)">
    <path d="M5.05 13.25 L6.3 11.8 7.05 12.8 6.15 13.25 Q5.15 13.95 4.85 14.65 4.8 14.05 5.05 13.25" fill="#13112b" fill-rule="evenodd" stroke="none"/>
    <path d="M0.15 5.95 Q-1.0 3.7 -1.65 1.25 L-1.75 0.4 -1.4 1.25 Q0.05 4.2 2.25 2.55 L3.35 1.6 6.2 8.5 6.45 9.25 Q7.0 10.7 6.3 11.8 L5.05 13.25 4.25 13.35 3.55 12.25 0.15 5.95 M8.05 17.7 Q7.6 19.25 7.05 19.15 L5.85 18.65 Q5.2 18.15 5.25 16.85 L6.05 17.7 7.7 17.75 8.05 17.7" fill="#0f0f0f" fill-rule="evenodd" stroke="none"/>
    <path d="M-0.9 -1.85 Q-1.3 -1.45 -1.3 -0.9 -1.3 -0.35 -0.9 0.05 -0.5 0.45 0.05 0.45 0.6 0.45 1.0 0.05 1.4 -0.35 1.4 -0.9 1.4 -1.45 1.0 -1.85 0.6 -2.25 0.05 -2.25 -0.5 -2.25 -0.9 -1.85 M-1.65 -2.65 Q-0.6 -3.4 1.85 -2.6 L3.25 -2.0 Q4.4 -1.35 4.5 -0.45 4.5 0.45 3.35 1.6 L2.25 2.55 Q0.05 4.2 -1.4 1.25 L-1.75 0.4 Q-2.65 -1.85 -1.8 -2.55 L-1.65 -2.65 M1.75 -0.2 Q1.5 0.05 1.5 0.4 L1.75 1.0 2.35 1.25 2.95 1.0 3.2 0.4 2.95 -0.2 2.35 -0.45 1.75 -0.2" fill="#272727" fill-rule="evenodd" stroke="none"/>
    <path d="M1.0 -1.85 Q1.4 -1.45 1.4 -0.9 1.4 -0.35 1.0 0.05 0.6 0.45 0.05 0.45 -0.5 0.45 -0.9 0.05 -1.3 -0.35 -1.3 -0.9 -1.3 -1.45 -0.9 -1.85 -0.5 -2.25 0.05 -2.25 0.6 -2.25 1.0 -1.85" fill="#2a2a2a" fill-rule="evenodd" stroke="none"/>
    <path d="M2.35 -0.45 L2.95 -0.2 3.2 0.4 2.95 1.0 2.35 1.25 1.75 1.0 1.5 0.4 Q1.5 0.05 1.75 -0.2 L2.35 -0.45" fill="#ca8aff" fill-rule="evenodd" stroke="none"/>
    <path d="M7.05 12.8 Q8.1 12.4 8.5 13.55 9.45 15.1 8.85 16.95 8.8 17.55 8.05 17.7 L7.7 17.75 6.05 17.7 5.25 16.85 4.9 16.05 Q4.6 15.35 4.8 14.8 L4.85 14.65 Q5.15 13.95 6.15 13.25 L7.05 12.8" fill="#2b2b2b" fill-rule="evenodd" stroke="none"/>
    <path d="M1.0 -1.85 Q1.4 -1.45 1.4 -0.9 1.4 -0.35 1.0 0.05 0.6 0.45 0.05 0.45 -0.5 0.45 -0.9 0.05 -1.3 -0.35 -1.3 -0.9 -1.3 -1.45 -0.9 -1.85 -0.5 -2.25 0.05 -2.25 0.6 -2.25 1.0 -1.85 M2.35 -0.45 L2.95 -0.2 3.2 0.4 2.95 1.0 2.35 1.25 1.75 1.0 1.5 0.4 Q1.5 0.05 1.75 -0.2 L2.35 -0.45 Z" fill="none" stroke="#19151e" stroke-linecap="round" stroke-linejoin="round" stroke-width="1.0"/>
    <path d="M3.35 1.6 L6.2 8.5 6.45 9.25 Q7.0 10.7 6.3 11.8 L7.05 12.8 Q8.1 12.4 8.5 13.55 9.45 15.1 8.85 16.95 8.8 17.55 8.05 17.7 7.6 19.25 7.05 19.15 L5.85 18.65 Q5.2 18.15 5.25 16.85 L4.9 16.05 Q4.6 15.35 4.8 14.8 L4.85 14.65 Q4.8 14.05 5.05 13.25 L4.25 13.35 3.55 12.25 0.15 5.95 Q-1.0 3.7 -1.65 1.25 L-1.75 0.4 M7.05 12.8 L6.15 13.25 Q5.15 13.95 4.85 14.65 M5.25 16.85 L6.05 17.7 7.7 17.75 8.05 17.7 M5.05 13.25 L6.3 11.8" fill="none" stroke="#000000" stroke-linecap="round" stroke-linejoin="round" stroke-width="1.0"/>
    <path d="M-1.8 -2.55 Q-2.65 -1.85 -1.75 0.4 L-1.4 1.25 Q0.05 4.2 2.25 2.55 L3.35 1.6 Q4.5 0.45 4.5 -0.45 4.4 -1.35 3.25 -2.0 L1.85 -2.6 Q-0.6 -3.4 -1.65 -2.65 L-1.8 -2.55 Z" fill="none" stroke="#0b0b0b" stroke-linecap="round" stroke-linejoin="round" stroke-width="1.0"/>
    <path d="M1.45 4.35 L4.35 11.5 Q4.35 13.4 3.3 14.0 -0.05 9.6 -1.95 4.35 -0.95 2.7 1.45 4.35" fill="url(#gradient0)" fill-rule="evenodd" stroke="none"/>
    <path d="M1.45 4.35 Q-0.95 2.7 -1.95 4.35 -0.05 9.6 3.3 14.0 4.35 13.4 4.35 11.5 L1.45 4.35 Z" fill="none" stroke="#090909" stroke-linecap="round" stroke-linejoin="round" stroke-width="1.0"/>
  </g>
  <defs>
    <radialGradient cx="0" cy="0" gradientTransform="matrix(0.037, 0.0, 0.0, 0.037, 13.75, -13.75)" gradientUnits="userSpaceOnUse" id="gradient0" r="819.2" spreadMethod="pad">
      <stop offset="0.0" stop-color="#000000"/>
      <stop offset="0.6588235294117647" stop-color="#1a1a1a"/>
      <stop offset="1.0" stop-color="#303030"/>
    </radialGradient>
  </defs>
</svg>
