<?xml version="1.0" encoding="UTF-8" standalone="no"?>
<svg xmlns:ffdec="https://www.free-decompiler.com/flash" xmlns:xlink="http://www.w3.org/1999/xlink" ffdec:objectType="shape" height="13.2px" width="11.35px" xmlns="http://www.w3.org/2000/svg">
  <g transform="matrix(1.0, 0.0, 0.0, 1.0, -0.6, 2.65)">
    <path d="M10.2 5.7 L11.45 6.8 Q11.35 8.5 10.8 9.85 L1.95 9.55 1.25 7.3 1.95 6.8 Q4.2 10.05 7.3 7.9 L10.2 5.7" fill="#3a3a3a" fill-rule="evenodd" stroke="none"/>
    <path d="M1.85 6.65 L1.1 5.25 1.1 3.5 Q1.1 2.0 1.5 1.0 1.9 -0.2 2.75 -0.75 4.35 -1.9 5.7 -2.1 L8.1 -1.75 6.25 0.75 2.3 0.75 2.3 1.95 5.35 1.95 4.2 3.5 2.15 3.5 2.15 4.7 3.3 4.7 1.85 6.65" fill="#434343" fill-rule="evenodd" stroke="none"/>
    <path d="M8.1 -1.75 L8.7 -1.45 Q10.45 -0.55 10.85 0.7 L10.95 1.0 11.3 2.9 11.2 4.6 10.2 5.7 7.3 7.9 Q4.2 10.05 1.95 6.8 L1.85 6.65 3.3 4.7 8.25 4.7 8.25 3.5 4.2 3.5 5.35 1.95 8.4 1.95 8.4 0.75 6.25 0.75 8.1 -1.75" fill="#353535" fill-rule="evenodd" stroke="none"/>
    <path d="M3.3 4.7 L2.15 4.7 2.15 3.5 4.2 3.5 8.25 3.5 8.25 4.7 3.3 4.7 M5.35 1.95 L2.3 1.95 2.3 0.75 6.25 0.75 8.4 0.75 8.4 1.95 5.35 1.95" fill="#380000" fill-rule="evenodd" stroke="none"/>
    <path d="M1.85 6.65 L1.1 5.25 1.1 3.5 Q1.1 2.0 1.5 1.0 1.9 -0.2 2.75 -0.75 4.35 -1.9 5.7 -2.1 L8.1 -1.75 8.7 -1.45 Q10.45 -0.55 10.85 0.7 L10.95 1.0 11.3 2.9 11.2 4.6 10.2 5.7 7.3 7.9 Q4.2 10.05 1.95 6.8 L1.85 6.65" fill="none" stroke="#191919" stroke-linecap="round" stroke-linejoin="round" stroke-width="1.0"/>
    <path d="M3.3 4.7 L2.15 4.7 2.15 3.5 4.2 3.5 8.25 3.5 8.25 4.7 3.3 4.7 M5.35 1.95 L2.3 1.95 2.3 0.75 6.25 0.75 8.4 0.75 8.4 1.95 5.35 1.95" fill="none" stroke="#1c0000" stroke-linecap="round" stroke-linejoin="round" stroke-width="0.8"/>
    <path d="M10.2 5.7 L11.45 6.8 Q11.35 8.5 10.8 9.85 L1.95 9.55 1.25 7.3 1.95 6.8" fill="none" stroke="#040404" stroke-linecap="round" stroke-linejoin="round" stroke-width="1.0"/>
    <path d="M3.6 7.15 L4.8 7.15 4.8 9.65 3.6 9.65 3.6 7.15 M3.0 7.15 L3.0 9.65 1.8 9.65 1.8 7.15 3.0 7.15 M8.4 7.15 L8.4 9.65 7.2 9.65 7.2 7.15 8.4 7.15 M6.6 7.15 L6.6 9.65 5.4 9.65 5.4 7.15 6.6 7.15" fill="#511212" fill-rule="evenodd" stroke="none"/>
    <path d="M4.8 7.15 L4.8 9.65 3.6 9.65 3.6 7.15 M3.0 7.15 L3.0 9.65 1.8 9.65 1.8 7.15 M8.4 7.15 L8.4 9.65 7.2 9.65 7.2 7.15 M6.6 7.15 L6.6 9.65 5.4 9.65 5.4 7.15" fill="none" stroke="#330f0f" stroke-linecap="round" stroke-linejoin="round" stroke-width="0.8"/>
    <path d="M3.6 7.15 L4.8 7.15 M1.8 7.15 L3.0 7.15 M7.2 7.15 L8.4 7.15 M5.4 7.15 L6.6 7.15" fill="none" stroke="#c49701" stroke-linecap="round" stroke-linejoin="round" stroke-width="0.8"/>
    <path d="M1.7 8.8 L9.05 8.55" fill="none" stroke="#151515" stroke-linecap="round" stroke-linejoin="round" stroke-width="1.5"/>
  </g>
</svg>
