<?xml version="1.0" encoding="UTF-8" standalone="no"?>
<svg xmlns:xlink="http://www.w3.org/1999/xlink" height="36.9px" width="18.55px" xmlns="http://www.w3.org/2000/svg">
  <g transform="matrix(1.0, 0.0, 0.0, 1.0, -4.95, 19.05)">
    <path d="M13.7 -19.0 L14.25 -19.0 Q17.65 -19.05 20.1 -15.2 22.45 -11.35 22.45 -5.95 22.45 -0.6 20.1 3.25 17.65 7.1 14.25 7.1 L13.7 7.0 13.7 -19.0" fill="url(#gradient0)" fill-rule="evenodd" stroke="none"/>
    <path d="M13.7 7.0 L13.15 7.1 Q9.7 7.1 7.3 3.25 4.9 -0.6 4.95 -5.95 4.9 -11.35 7.3 -15.2 9.7 -19.05 13.15 -19.0 L13.7 -19.0 13.7 7.0" fill="url(#gradient1)" fill-rule="evenodd" stroke="none"/>
    <path d="M14.75 -8.25 L15.3 -8.25 Q18.7 -8.3 21.15 -4.45 23.5 -0.6 23.5 4.8 23.5 10.15 21.15 14.0 18.7 17.85 15.3 17.85 L14.75 17.75 14.75 -8.25" fill="url(#gradient2)" fill-rule="evenodd" stroke="none"/>
    <path d="M14.75 17.75 L14.2 17.85 Q10.75 17.85 8.35 14.0 5.95 10.15 6.0 4.8 5.95 -0.6 8.35 -4.45 10.75 -8.3 14.2 -8.25 L14.75 -8.25 14.75 17.75" fill="url(#gradient3)" fill-rule="evenodd" stroke="none"/>
  </g>
  <defs>
    <radialGradient cx="0" cy="0" gradientTransform="matrix(0.0, 0.0142, -0.01, 0.0, 14.25, -6.0)" gradientUnits="userSpaceOnUse" id="gradient0" r="819.2" spreadMethod="pad">
      <stop offset="0.17647058823529413" stop-color="#ffffff"/>
      <stop offset="1.0" stop-color="#139ffd" stop-opacity="0.0"/>
    </radialGradient>
    <radialGradient cx="0" cy="0" gradientTransform="matrix(0.0, 0.0142, 0.01, 0.0, 13.15, -6.0)" gradientUnits="userSpaceOnUse" id="gradient1" r="819.2" spreadMethod="pad">
      <stop offset="0.17647058823529413" stop-color="#ffffff"/>
      <stop offset="1.0" stop-color="#139ffd" stop-opacity="0.0"/>
    </radialGradient>
    <radialGradient cx="0" cy="0" gradientTransform="matrix(0.0, 0.0142, -0.01, 0.0, 15.3, 4.75)" gradientUnits="userSpaceOnUse" id="gradient2" r="819.2" spreadMethod="pad">
      <stop offset="0.17647058823529413" stop-color="#ffffff"/>
      <stop offset="1.0" stop-color="#139ffd" stop-opacity="0.0"/>
    </radialGradient>
    <radialGradient cx="0" cy="0" gradientTransform="matrix(0.0, 0.0142, 0.01, 0.0, 14.2, 4.75)" gradientUnits="userSpaceOnUse" id="gradient3" r="819.2" spreadMethod="pad">
      <stop offset="0.17647058823529413" stop-color="#ffffff"/>
      <stop offset="1.0" stop-color="#139ffd" stop-opacity="0.0"/>
    </radialGradient>
  </defs>
</svg>
