<?xml version="1.0" encoding="UTF-8" standalone="no"?>
<svg xmlns:ffdec="https://www.free-decompiler.com/flash" xmlns:xlink="http://www.w3.org/1999/xlink" ffdec:objectType="shape" height="20.1px" width="14.45px" xmlns="http://www.w3.org/2000/svg">
  <g transform="matrix(1.0, 0.0, 0.0, 1.0, 8.55, 3.25)">
    <path d="M-3.5 -1.5 L-2.7 -2.1 Q-1.85 -2.7 -1.25 -2.7 1.3 -3.15 3.0 -1.7 3.6 -1.2 4.0 0.35 L-3.5 -1.5" fill="#1c1224" fill-rule="evenodd" stroke="none"/>
    <path d="M-3.5 -1.5 L-2.7 -2.1 Q-1.85 -2.7 -1.25 -2.7 1.3 -3.15 3.0 -1.7 3.6 -1.2 4.0 0.35 L-3.5 -1.5 Z" fill="none" stroke="#08060a" stroke-linecap="round" stroke-linejoin="round" stroke-width="0.9500000000000001"/>
    <path d="M-4.05 -1.6 L4.5 0.55 5.2 3.75 1.3 15.25 0.0 16.4 -7.1 14.6 -7.75 12.8 -6.1 0.95 -4.05 -1.6" fill="#1c1224" fill-rule="evenodd" stroke="none"/>
    <path d="M-4.05 -1.6 L-6.1 0.95 -7.75 12.8 -7.1 14.6 0.0 16.4 1.3 15.25 5.2 3.75 4.5 0.55 -4.05 -1.6 Z" fill="none" stroke="#120c17" stroke-linecap="round" stroke-linejoin="round" stroke-width="0.9500000000000001"/>
    <path d="M-7.45 2.95 L-4.8 1.6 3.1 3.7 5.45 6.05 2.7 13.25 0.65 12.15 -6.15 10.3 -8.1 10.55 -7.45 2.95" fill="url(#gradient0)" fill-rule="evenodd" stroke="none"/>
    <path d="M-7.45 2.95 L-4.8 1.6 3.1 3.7 5.45 6.05 2.7 13.25 0.65 12.15 -6.15 10.3 -8.1 10.55 -7.45 2.95 Z" fill="none" stroke="#120c17" stroke-linecap="round" stroke-linejoin="round" stroke-width="0.9500000000000001"/>
    <path d="M-2.95 7.35 L-3.75 7.9 -3.75 8.15 -3.7 8.3 -3.7 8.35 -3.9 8.2 -4.05 7.95 -4.15 7.75 -4.15 7.5 -4.1 7.15 -3.85 6.7 -3.6 6.4 -3.6 6.15 -3.55 5.95 -2.95 5.15 -2.5 4.8 -2.35 4.6 -2.2 4.5 -1.35 4.25 -1.15 4.35 -0.25 4.7 0.35 5.3 0.85 6.7 0.8 6.95 0.5 7.05 0.45 7.45 0.05 7.45 0.1 7.85 -0.25 7.9 -0.2 8.35 -0.4 8.6 -0.45 8.75 -0.75 8.95 -2.55 9.55 -2.6 9.25 -2.75 9.35 -2.8 9.2 -3.0 9.4 -3.0 8.45 -2.9 8.0 -2.8 7.6 -2.95 7.35" fill="#1c1224" fill-rule="evenodd" stroke="none"/>
  </g>
  <defs>
    <radialGradient cx="0" cy="0" gradientTransform="matrix(0.0085, 0.0022, -0.0015, 0.0063, -1.6, 7.3)" gradientUnits="userSpaceOnUse" id="gradient0" r="819.2" spreadMethod="pad">
      <stop offset="0.0" stop-color="#3c234d"/>
      <stop offset="1.0" stop-color="#2c1b38"/>
    </radialGradient>
  </defs>
</svg>
