<?xml version="1.0" encoding="UTF-8" standalone="no"?>
<svg xmlns:ffdec="https://www.free-decompiler.com/flash" xmlns:xlink="http://www.w3.org/1999/xlink" ffdec:objectType="shape" height="22.95px" width="13.35px" xmlns="http://www.w3.org/2000/svg">
  <g transform="matrix(1.0, 0.0, 0.0, 1.0, 8.0, 4.75)">
    <path d="M-5.95 0.7 Q-5.85 -1.1 -5.05 -2.5 L-4.3 -3.55 Q0.6 -5.65 4.6 -1.45 L4.85 0.0 Q4.85 1.5 4.3 3.05 L2.65 3.65 2.45 3.85 2.25 3.95 0.3 5.3 0.25 5.45 0.05 5.55 0.0 5.65 -0.85 7.05 -1.1 7.2 Q-4.2 8.75 -4.6 2.2 L-5.95 0.7" fill="url(#gradient0)" fill-rule="evenodd" stroke="none"/>
    <path d="M0.95 9.2 L0.05 11.3 Q-1.9 17.9 -2.65 17.9 L-6.1 17.05 Q-6.55 14.55 -6.2 9.35 L-5.8 7.85 -5.3 8.3 -4.4 8.6 -3.35 7.8 -1.7 8.15 -1.6 8.2 -1.15 9.45 -0.2 9.7 0.95 9.2" fill="#191919" fill-rule="evenodd" stroke="none"/>
    <path d="M4.3 3.05 L4.45 2.95 5.1 3.15 Q4.75 6.35 2.4 8.4 L0.05 9.45 -0.9 9.2 -1.6 8.0 -1.1 7.2 -0.85 7.05 0.0 5.65 0.25 5.45 0.3 5.3 2.25 3.95 2.45 3.85 2.65 3.65 4.3 3.05" fill="url(#gradient1)" fill-rule="evenodd" stroke="none"/>
    <path d="M-5.95 0.7 Q-5.85 -1.1 -5.05 -2.5 L-4.3 -3.55 Q0.6 -5.65 4.6 -1.45 L4.85 0.0 Q4.85 1.5 4.3 3.05" fill="none" stroke="#022e33" stroke-linecap="round" stroke-linejoin="round" stroke-width="1.0"/>
    <path d="M-3.65 7.5 L-4.7 8.3 -5.6 8.0 -7.1 6.45 Q-8.05 3.1 -6.85 0.2 L-6.25 0.4 -4.9 1.95 -3.55 4.45 -3.65 7.5" fill="url(#gradient2)" fill-rule="evenodd" stroke="none"/>
    <path d="M-3.65 7.5 L-3.55 4.45 -4.9 1.95 -6.25 0.4 -6.85 0.2 Q-8.05 3.1 -7.1 6.45 L-5.6 8.0 -4.7 8.3 -3.65 7.5 Z" fill="none" stroke="#0f0f0f" stroke-linecap="round" stroke-linejoin="round" stroke-width="1.0"/>
    <path d="M-3.65 7.5 L-2.0 7.85 -1.9 7.95 -0.25 5.25 2.1 3.65 3.9 2.95 4.55 3.15 Q4.15 6.3 1.8 8.35 L0.65 8.9 -2.0 17.1 Q-8.15 19.95 -6.45 9.1 L-6.1 7.55 M-1.9 7.95 L-1.4 9.2 -0.5 9.45 0.65 8.9" fill="none" stroke="#0f0f0f" stroke-linecap="round" stroke-linejoin="round" stroke-width="1.0"/>
  </g>
  <defs>
    <radialGradient cx="0" cy="0" gradientTransform="matrix(0.012, 0.0, 0.0, 0.012, -0.2, -1.9)" gradientUnits="userSpaceOnUse" id="gradient0" r="819.2" spreadMethod="pad">
      <stop offset="0.0" stop-color="#e8c06f"/>
      <stop offset="1.0" stop-color="#02b1c3"/>
      <stop offset="1.0" stop-color="#2c1b38"/>
    </radialGradient>
    <radialGradient cx="0" cy="0" gradientTransform="matrix(0.0062, 0.0, 0.0, 0.0062, 2.3, 7.35)" gradientUnits="userSpaceOnUse" id="gradient1" r="819.2" spreadMethod="pad">
      <stop offset="0.0" stop-color="#333333"/>
      <stop offset="1.0" stop-color="#000000"/>
    </radialGradient>
    <radialGradient cx="0" cy="0" gradientTransform="matrix(0.0066, 0.0, 0.0, 0.0066, -6.15, 5.55)" gradientUnits="userSpaceOnUse" id="gradient2" r="819.2" spreadMethod="pad">
      <stop offset="0.0" stop-color="#333333"/>
      <stop offset="1.0" stop-color="#000000"/>
    </radialGradient>
  </defs>
</svg>
