<?xml version="1.0" encoding="UTF-8" standalone="no"?>
<svg xmlns:xlink="http://www.w3.org/1999/xlink" height="8.9px" width="15.7px" xmlns="http://www.w3.org/2000/svg">
  <g transform="matrix(1.0, 0.0, 0.0, 1.0, 5.4, 2.2)">
    <path d="M-1.95 -0.35 Q-0.5 -1.6 0.35 -1.7 1.25 -1.8 2.35 -0.85 3.45 0.15 4.1 0.4 L5.6 0.25 Q4.85 1.25 3.25 1.1 1.75 1.0 -1.95 -0.35 M3.85 6.2 L-4.85 6.2 -4.85 4.5 0.7 4.75 3.85 6.2" fill="#333333" fill-rule="evenodd" stroke="none"/>
    <path d="M-4.5 2.6 Q-4.9 -0.55 -1.95 -0.35 -2.1 2.85 -4.5 2.6" fill="#999999" fill-rule="evenodd" stroke="none"/>
    <path d="M5.6 0.25 Q6.3 0.35 7.2 0.75 8.1 1.1 8.75 2.1 9.85 3.75 9.8 4.7 9.8 5.5 9.25 6.2 L3.85 6.2 0.7 4.75 -4.85 4.5 -4.5 2.6 Q-2.1 2.85 -1.95 -0.35 1.75 1.0 3.25 1.1 4.85 1.25 5.6 0.25 M6.0 3.45 L6.35 4.55 6.0 3.45 M7.4 2.8 L7.85 4.4 7.4 2.8" fill="#ffffff" fill-rule="evenodd" stroke="none"/>
    <path d="M-1.95 -0.35 Q-0.5 -1.6 0.35 -1.7 1.25 -1.8 2.35 -0.85 3.45 0.15 4.1 0.4 L5.6 0.25 M3.85 6.2 L-4.85 6.2 -4.85 4.5" fill="none" stroke="#000000" stroke-linecap="round" stroke-linejoin="round" stroke-width="1.0"/>
    <path d="M7.85 4.4 L7.4 2.8 M6.35 4.55 L6.0 3.45" fill="none" stroke="#999999" stroke-linecap="round" stroke-linejoin="round" stroke-width="1.0"/>
    <path d="M-1.95 -0.35 Q1.75 1.0 3.25 1.1 4.85 1.25 5.6 0.25 M-4.85 4.5 L0.7 4.75 3.85 6.2 M-1.95 -0.35 Q-2.1 2.85 -4.5 2.6" fill="none" stroke="#666666" stroke-linecap="round" stroke-linejoin="round" stroke-width="1.0"/>
    <path d="M5.6 0.25 Q6.3 0.35 7.2 0.75 8.1 1.1 8.75 2.1 9.85 3.75 9.8 4.7 9.8 5.5 9.25 6.2 L3.85 6.2 M-4.85 4.5 L-4.5 2.6 Q-4.9 -0.55 -1.95 -0.35" fill="none" stroke="#404040" stroke-linecap="round" stroke-linejoin="round" stroke-width="1.0"/>
  </g>
</svg>
