<?xml version="1.0" encoding="UTF-8" standalone="no"?>
<svg xmlns:xlink="http://www.w3.org/1999/xlink" height="9.4px" width="19.35px" xmlns="http://www.w3.org/2000/svg">
  <g transform="matrix(1.0, 0.0, 0.0, 1.0, 6.65, 2.7)">
    <path d="M6.5 -0.6 Q9.1 0.35 10.15 1.3 11.2 2.2 11.5 3.0 10.8 5.55 10.25 6.2 L2.3 6.2 0.2 6.2 0.3 5.45 Q0.4 4.65 1.5 4.45 4.1 2.25 6.5 -0.6 M-2.5 6.2 L-6.1 6.2 Q-6.5 3.05 -4.4 1.8 L-2.5 6.2 M2.3 6.2 L1.5 4.45 2.3 6.2" fill="#cccccc" fill-rule="evenodd" stroke="none"/>
    <path d="M-4.4 1.8 Q-2.3 -3.05 1.3 -2.0 L6.5 -0.6 Q4.1 2.25 1.5 4.45 0.4 4.65 0.3 5.45 L0.2 6.2 Q-1.35 4.3 -2.5 6.2 L-4.4 1.8 M11.5 3.0 Q12.4 4.5 12.15 6.2 L10.25 6.2 Q10.8 5.55 11.5 3.0" fill="#999999" fill-rule="evenodd" stroke="none"/>
    <path d="M-4.4 1.8 Q-2.3 -3.05 1.3 -2.0 L6.5 -0.6 Q9.1 0.35 10.15 1.3 11.2 2.2 11.5 3.0 12.4 4.5 12.15 6.2 L10.25 6.2 2.3 6.2 0.2 6.2 Q-1.35 4.3 -2.5 6.2 L-6.1 6.2 Q-6.5 3.05 -4.4 1.8 M0.2 6.2 L0.3 5.45 Q0.4 4.65 1.5 4.45" fill="none" stroke="#333333" stroke-linecap="round" stroke-linejoin="round" stroke-width="1.0"/>
    <path d="M-4.4 1.8 L-2.5 6.2 M11.5 3.0 Q10.8 5.55 10.25 6.2 M1.5 4.45 Q4.1 2.25 6.5 -0.6 M1.5 4.45 L2.3 6.2" fill="none" stroke="#666666" stroke-linecap="round" stroke-linejoin="round" stroke-width="1.0"/>
  </g>
</svg>
