<?xml version="1.0" encoding="UTF-8" standalone="no"?>
<svg xmlns:xlink="http://www.w3.org/1999/xlink" height="11.25px" width="18.15px" xmlns="http://www.w3.org/2000/svg">
  <g transform="matrix(1.0, 0.0, 0.0, 1.0, 7.55, 4.35)">
    <path d="M-3.35 0.55 L-3.4 0.35 -2.75 -1.05 Q-1.95 -2.6 -1.05 -3.15 L-0.25 -3.45 1.3 -3.8 3.7 -3.65 Q5.45 -2.0 6.15 -0.45 L5.75 0.1 1.65 5.85 -1.6 5.7 -3.35 0.55" fill="#3f474c" fill-rule="evenodd" stroke="none"/>
    <path d="M5.75 0.1 L6.25 0.35 Q8.8 1.85 8.95 2.3 L9.75 3.85 Q10.25 5.1 10.05 6.05 L-7.05 6.4 -6.9 4.45 Q-6.45 2.2 -5.55 1.05 L-3.35 0.55 -1.6 5.7 1.65 5.85 5.75 0.1" fill="#353a40" fill-rule="evenodd" stroke="none"/>
    <path d="M-3.35 0.55 L-3.4 0.35 -2.75 -1.05 Q-1.95 -2.6 -1.05 -3.15 L-0.25 -3.45 1.3 -3.8 3.7 -3.65 Q5.45 -2.0 6.15 -0.45 L5.75 0.1 6.25 0.35 Q8.8 1.85 8.95 2.3 L9.75 3.85 Q10.25 5.1 10.05 6.05 L-7.05 6.4 -6.9 4.45 Q-6.45 2.2 -5.55 1.05 L-3.35 0.55 -1.6 5.7 1.65 5.85 5.75 0.1" fill="none" stroke="#22262a" stroke-linecap="round" stroke-linejoin="round" stroke-width="1.0"/>
  </g>
</svg>
