<?xml version="1.0" encoding="UTF-8" standalone="no"?>
<svg xmlns:ffdec="https://www.free-decompiler.com/flash" xmlns:xlink="http://www.w3.org/1999/xlink" ffdec:objectType="shape" height="22.4px" width="15.85px" xmlns="http://www.w3.org/2000/svg">
  <g transform="matrix(1.0, 0.0, 0.0, 1.0, 9.0, 6.95)">
    <path d="M0.3 13.8 Q-4.95 16.9 -7.95 11.6 L-6.6 6.6 1.65 8.8 0.3 13.8" fill="#54504d" fill-rule="evenodd" stroke="none"/>
    <path d="M0.3 13.8 Q-4.95 16.9 -7.95 11.6 L-6.6 6.6 1.65 8.8 0.3 13.8 Z" fill="none" stroke="#21201f" stroke-linecap="round" stroke-linejoin="round" stroke-width="1.0"/>
    <path d="M-5.65 -3.0 L-5.0 -5.55 -1.5 -6.45 -1.2 -4.65 1.8 -3.85 2.9 -5.25 6.0 -2.6 5.35 0.0 2.8 -2.35 2.0 -1.5 -2.4 -2.7 -2.65 -3.75 -5.65 -3.0 M4.65 2.6 L6.35 3.05 6.15 3.6 -0.25 8.1 -5.1 6.8 -7.9 0.45 -7.8 -0.9 -6.3 -0.5 -4.05 5.2 -2.85 0.8 -1.3 -0.9 -0.1 -0.55 0.7 1.6 -0.55 6.2 4.65 2.6 M-4.05 5.2 L-0.55 6.2 -4.05 5.2" fill="#4d1d1d" fill-rule="evenodd" stroke="none"/>
    <path d="M-5.65 -3.0 L-2.65 -3.75 -2.4 -2.7 2.0 -1.5 2.8 -2.35 5.35 0.0 4.65 2.6 -0.55 6.2 0.7 1.6 -0.1 -0.55 -1.3 -0.9 -2.85 0.8 -4.05 5.2 -6.3 -0.5 -5.65 -3.0 M6.15 3.6 L2.9 11.05 -0.35 12.4 -1.45 12.1 -0.85 9.85 -5.0 8.75 -5.55 10.9 -6.7 10.6 -8.5 8.15 -7.9 0.45 -5.1 6.8 -0.25 8.1 6.15 3.6" fill="#746e69" fill-rule="evenodd" stroke="none"/>
    <path d="M5.35 0.0 L6.0 -2.6 2.9 -5.25 1.8 -3.85 -1.2 -4.65 -1.5 -6.45 -5.0 -5.55 -5.65 -3.0 -6.3 -0.5 -4.05 5.2 -2.85 0.8 -1.3 -0.9 -0.1 -0.55 0.7 1.6 -0.55 6.2 4.65 2.6 6.35 3.05 6.15 3.6 2.9 11.05 -0.35 12.4 -1.45 12.1 -0.85 9.85 -5.0 8.75 -5.55 10.9 -6.7 10.6 -8.5 8.15 -7.9 0.45 -7.8 -0.9 -6.3 -0.5 M5.35 0.0 L4.65 2.6 M-0.55 6.2 L-4.05 5.2" fill="none" stroke="#21201f" stroke-linecap="round" stroke-linejoin="round" stroke-width="1.0"/>
  </g>
</svg>
