<?xml version="1.0" encoding="UTF-8" standalone="no"?>
<svg xmlns:ffdec="https://www.free-decompiler.com/flash" xmlns:xlink="http://www.w3.org/1999/xlink" ffdec:objectType="shape" height="20.4px" width="14.5px" xmlns="http://www.w3.org/2000/svg">
  <g transform="matrix(1.0, 0.0, 0.0, 1.0, 9.75, 5.35)">
    <path d="M0.75 7.45 L0.75 8.8 0.45 10.1 Q-0.45 13.1 -1.2 13.7 -1.75 14.15 -2.8 14.6 -5.25 14.15 -5.5 13.45 L-6.7 9.0 -6.55 7.0 -4.0 6.75 Q-3.75 6.8 -2.25 6.05 L-2.15 4.9 0.75 7.45" fill="#161616" fill-rule="evenodd" stroke="none"/>
    <path d="M-6.6 5.35 Q-7.0 8.85 -6.3 11.15 -5.55 14.05 -3.2 14.55 -2.65 14.6 -2.15 14.1 0.55 11.4 0.85 7.25" fill="none" stroke="#0d0d0d" stroke-linecap="round" stroke-linejoin="round" stroke-width="1.0"/>
    <path d="M1.7 7.8 L-2.3 4.8 Q-3.85 3.5 -3.85 2.75 L-3.85 2.05 -3.95 1.85 Q-5.5 1.85 -6.05 1.45 -6.4 1.2 -6.7 -0.8 L-6.95 -2.8 -6.5 -3.5 -5.45 -4.35 -2.85 -4.7 -0.9 -4.85 -0.65 -4.4 Q-0.3 -3.95 -0.05 -3.85 L0.95 -3.25 2.0 -2.4 2.75 -1.6 3.55 -0.1 Q4.35 2.2 4.4 3.15 4.4 3.7 3.8 4.85 L1.7 7.8" fill="url(#gradient0)" fill-rule="evenodd" stroke="none"/>
    <path d="M-7.1 -2.65 Q-6.15 0.1 -5.2 1.4 L-2.1 4.45 Q-1.9 4.65 -2.5 6.35 -3.95 7.2 -4.65 7.05 L-6.2 7.0 Q-5.8 5.95 -6.15 5.55 L-7.75 4.15 -9.2 3.1 -8.5 -0.15 -7.75 -1.6 -7.1 -2.65" fill="#1f1f1f" fill-rule="evenodd" stroke="none"/>
    <path d="M-9.25 3.1 Q-6.35 4.5 -6.0 6.75" fill="none" stroke="#0f0f0f" stroke-linecap="round" stroke-linejoin="round" stroke-width="1.0"/>
    <path d="M-5.95 7.0 L-3.8 7.0 Q-3.2 6.9 -2.45 6.15 L-3.2 3.65 Q-3.8 2.2 -4.6 1.75 -5.75 1.15 -6.05 -0.1 -6.45 -2.0 -6.8 -2.65" fill="none" stroke="#111111" stroke-linecap="round" stroke-linejoin="round" stroke-width="1.0"/>
    <path d="M-0.6 -4.15 Q2.55 -2.6 3.65 -0.35 4.45 1.4 4.2 4.25 L1.55 7.9 -2.4 4.65" fill="none" stroke="#1a1a1a" stroke-linecap="round" stroke-linejoin="round" stroke-width="1.0"/>
    <path d="M-9.15 2.9 Q-7.9 -5.6 -0.85 -4.75 L-0.8 -3.25" fill="none" stroke="#0f0f0f" stroke-linecap="round" stroke-linejoin="round" stroke-width="1.0"/>
    <path d="M-4.95 -2.65 Q-3.6 -3.5 -2.15 -3.4 L-4.95 -2.65" fill="#282828" fill-rule="evenodd" stroke="none"/>
    <path d="M-4.95 -2.65 Q-3.6 -3.5 -2.15 -3.4" fill="none" stroke="#212121" stroke-linecap="round" stroke-linejoin="round" stroke-width="1.0"/>
    <path d="M-4.75 4.65 L-4.8 5.3" fill="none" stroke="#161616" stroke-linecap="round" stroke-linejoin="round" stroke-width="1.0"/>
    <path d="M-1.85 -0.45 L-2.05 -0.2 -2.05 -0.05 -1.6 -0.4 -1.85 -0.45 M-0.85 -1.4 L-0.55 -1.4 0.1 -1.05 -0.4 -0.7 -0.35 -0.2 -0.8 0.4 -0.2 -0.1 -0.15 -0.55 0.25 -0.95 0.65 -0.45 0.9 0.7 0.85 0.95 0.6 0.95 0.5 1.2 0.2 1.15 0.3 1.4 0.0 1.25 0.1 1.6 -0.25 1.45 -0.1 1.9 -0.65 2.2 -2.1 2.4 -2.1 2.15 -2.3 2.3 -2.3 2.15 -2.5 2.25 -2.4 1.55 -2.25 1.2 -2.05 0.95 -2.2 0.75 -2.9 1.05 -2.95 1.2 -2.9 1.35 -2.95 1.35 -3.05 1.25 -3.15 1.05 -3.2 0.85 -3.2 0.7 -3.1 0.4 -2.85 0.1 -2.6 -0.1 -2.6 -0.25 -2.55 -0.45 -1.95 -1.0 -1.5 -1.15 -1.4 -1.25 -0.85 -1.4" fill="#696868" fill-rule="evenodd" stroke="none"/>
  </g>
  <defs>
    <radialGradient cx="0" cy="0" gradientTransform="matrix(0.0073, 0.0013, -0.0013, 0.0071, -1.4, 1.15)" gradientUnits="userSpaceOnUse" id="gradient0" r="819.2" spreadMethod="pad">
      <stop offset="0.0" stop-color="#313131"/>
      <stop offset="1.0" stop-color="#282828"/>
    </radialGradient>
  </defs>
</svg>
