<?xml version="1.0" encoding="UTF-8" standalone="no"?>
<svg xmlns:ffdec="https://www.free-decompiler.com/flash" xmlns:xlink="http://www.w3.org/1999/xlink" ffdec:objectType="shape" height="22.75px" width="13.05px" xmlns="http://www.w3.org/2000/svg">
  <g transform="matrix(1.0, 0.0, 0.0, 1.0, 0.05, 1.9)">
    <path d="M0.85 3.9 L1.1 2.75 0.85 4.0 0.85 3.9" fill="#282828" fill-rule="evenodd" stroke="none"/>
    <path d="M10.85 10.5 Q10.0 12.1 10.65 14.0 11.25 15.9 10.05 18.4 L7.35 20.2 Q5.4 18.6 4.8 17.3 5.15 15.4 7.8 15.0 6.1 11.1 3.5 9.5 7.4 8.75 10.85 10.5 M1.65 12.5 L1.6 12.45 2.05 9.85 2.75 9.65 Q2.0 10.25 1.65 12.5" fill="#191919" fill-rule="evenodd" stroke="none"/>
    <path d="M0.8 4.25 L0.85 4.0 0.8 4.25" fill="#272727" fill-rule="evenodd" stroke="none"/>
    <path d="M1.55 0.5 Q3.45 -0.9 5.3 -1.25 6.65 -1.5 7.95 -1.25 10.0 -0.85 12.0 0.9 L12.15 2.4 12.15 2.75 12.2 3.05 12.25 3.85 12.3 4.15 12.4 5.5 12.5 6.3 0.65 5.95 0.8 4.25 0.85 4.0 1.1 2.75 1.2 2.35 1.55 0.5" fill="url(#gradient0)" fill-rule="evenodd" stroke="none"/>
    <path d="M12.5 6.3 L12.5 9.1 11.6 10.65 10.85 10.5 Q7.4 8.75 3.5 9.5 L2.75 9.65 2.05 9.85 1.05 9.95 0.45 8.7 0.65 5.95 12.5 6.3 M12.5 9.1 L9.6 8.3 8.4 7.05 4.6 7.05 3.65 8.1 0.45 8.7 3.65 8.1 4.6 7.05 8.4 7.05 9.6 8.3 12.5 9.1" fill="#1c1c1c" fill-rule="evenodd" stroke="none"/>
    <path d="M7.35 20.2 L7.1 20.35 4.55 20.1 Q2.7 18.15 1.45 15.6 2.1 14.8 2.15 13.65 L1.65 12.5 Q2.0 10.25 2.75 9.65 L3.5 9.5 Q6.1 11.1 7.8 15.0 5.15 15.4 4.8 17.3 5.4 18.6 7.35 20.2 M3.45 15.25 L2.15 13.65 3.45 15.25" fill="#121212" fill-rule="evenodd" stroke="none"/>
    <path d="M12.4 5.5 L12.3 4.15 12.25 3.85 12.2 3.05 M12.25 3.85 L12.3 3.95" fill="none" stroke="#0e0e0e" stroke-linecap="round" stroke-linejoin="round" stroke-width="1.0"/>
    <path d="M1.55 0.5 Q3.45 -0.9 5.3 -1.25 6.65 -1.5 7.95 -1.25 10.0 -0.85 12.0 0.9 L12.15 2.4 12.15 2.75 12.2 3.05 12.3 3.95 12.3 4.15 12.4 5.5 12.5 6.3 12.5 9.1 11.6 10.65 10.85 10.5 Q10.0 12.1 10.65 14.0 11.25 15.9 10.05 18.4 L7.35 20.2 7.1 20.35 4.55 20.1 Q2.7 18.15 1.45 15.6 2.1 14.8 2.15 13.65 L1.65 12.5 1.6 12.45 2.05 9.85 1.05 9.95 0.45 8.7 0.65 5.95 0.8 4.25 0.85 4.0 0.85 3.9 1.1 2.75 1.2 2.35 1.55 0.5 M0.85 4.0 L0.85 3.9 M0.8 4.25 L0.85 4.0 1.1 2.75 M2.75 9.65 L3.5 9.5 Q7.4 8.75 10.85 10.5 M2.05 9.85 L2.75 9.65 M2.15 13.65 L3.45 15.25 M12.5 6.3 L0.65 5.95" fill="none" stroke="#0b0b0b" stroke-linecap="round" stroke-linejoin="round" stroke-width="1.0"/>
    <path d="M0.45 8.7 L3.65 8.1 4.6 7.05 8.4 7.05 9.6 8.3 12.5 9.1" fill="none" stroke="#101010" stroke-linecap="round" stroke-linejoin="round" stroke-width="1.0"/>
    <path d="M7.5 2.6 L7.2 3.0 7.25 3.05 7.25 3.2 7.25 3.25 7.1 3.4 7.0 3.45 7.0 3.6 7.1 3.6 7.2 3.5 7.2 3.6 7.15 3.65 7.1 3.8 7.05 3.9 6.95 4.15 6.85 4.2 6.75 4.35 6.65 4.5 6.7 4.15 6.9 3.7 6.8 3.45 6.9 3.3 6.95 3.2 6.85 3.05 6.85 2.95 6.85 2.85 6.85 2.8 6.75 2.75 6.85 2.7 6.85 2.65 6.7 2.55 6.7 2.6 6.6 2.55 6.5 2.45 6.5 2.2 6.5 2.0 6.55 1.9 6.55 1.85 6.65 1.8 6.7 1.6 6.75 1.45 6.6 1.3 6.55 0.95 6.4 1.35 6.55 1.45 6.55 1.6 6.55 1.75 6.5 1.85 6.45 1.9 6.4 2.15 6.4 2.45 6.25 2.5 6.0 2.75 6.0 2.9 5.9 3.0 5.9 3.1 5.8 3.2 5.75 3.3 5.8 3.4 5.85 4.45 5.7 4.15 5.6 4.05 5.55 4.0 5.55 3.9 5.6 3.85 5.45 3.6 5.35 3.55 5.35 3.45 5.25 3.4 5.25 3.35 5.3 3.25 5.4 3.15 5.45 3.25 5.5 3.0 5.45 2.85 5.4 2.75 5.45 2.45 5.5 2.15 5.55 1.95 5.55 1.9 5.6 1.85 5.6 1.75 5.65 1.55 5.6 1.35 5.55 1.35 5.45 1.35 5.35 1.3 5.35 1.2 5.2 1.25 4.95 1.15 4.75 1.1 4.6 1.05 4.65 1.0 4.65 0.9 4.7 0.85 4.8 0.7 Q4.8 0.6 5.05 0.5 L5.25 0.4 5.35 0.3 5.55 0.2 5.7 0.2 6.1 0.05 6.15 0.0 6.3 0.05 6.45 0.1 6.5 0.0 6.65 0.0 6.8 0.0 6.9 0.05 7.05 0.1 7.3 0.1 7.6 0.15 7.7 0.2 7.9 0.25 8.05 0.4 8.15 0.75 8.35 0.8 8.35 0.85 8.5 0.95 8.5 1.0 8.35 1.1 8.3 1.1 8.15 1.1 8.1 1.15 7.95 1.15 7.9 1.2 7.8 1.25 7.8 1.15 7.7 1.25 7.75 1.3 7.7 1.4 7.6 1.45 7.55 1.45 7.55 1.5 7.45 1.6 7.35 1.65 7.3 1.75 7.35 1.9 7.35 1.95 7.3 2.15 7.4 2.35 7.5 2.55 7.5 2.6 7.65 2.5 7.8 2.5 7.85 2.55 7.85 2.65 7.75 2.8 7.6 2.85 7.6 2.95 7.55 3.0 7.45 3.1 7.4 3.15 7.4 3.2 7.35 3.2 7.35 3.05 7.4 2.85 7.45 2.75 7.5 2.6 M5.4 3.3 L5.4 3.4 5.45 3.45 5.55 3.5 5.6 3.6 5.6 3.55 5.55 3.45 5.55 3.35 5.4 3.3 M5.35 2.6 L5.35 2.65 5.4 2.9 5.4 3.05 5.3 3.0 5.2 3.0 5.05 2.9 5.0 2.85 4.9 2.75 4.9 2.65 4.9 2.55 4.95 2.55 5.15 2.55 5.3 2.55 5.35 2.6 M6.85 0.25 L6.85 0.2 6.65 0.2 6.6 0.15 6.6 0.3 6.6 0.55 6.55 0.65 6.6 0.8 6.65 0.7 6.75 0.7 6.8 0.65 6.85 0.6 6.85 0.5 6.8 0.5 6.8 0.45 6.85 0.25 M7.9 2.0 L8.1 2.05 8.1 2.1 8.05 2.2 8.15 2.25 8.0 2.35 7.9 2.4 7.85 2.5 7.8 2.45 7.7 2.45 7.7 2.35 7.7 2.25 7.85 2.2 7.9 2.1 7.9 2.0" fill="#666666" fill-rule="evenodd" stroke="none"/>
  </g>
  <defs>
    <radialGradient cx="0" cy="0" gradientTransform="matrix(0.0128, 0.0, 0.0, 0.009, 6.6, 2.45)" gradientUnits="userSpaceOnUse" id="gradient0" r="819.2" spreadMethod="pad">
      <stop offset="0.0" stop-color="#333333"/>
      <stop offset="1.0" stop-color="#070707"/>
    </radialGradient>
  </defs>
</svg>
