<?xml version="1.0" encoding="UTF-8" standalone="no"?>
<svg xmlns:ffdec="https://www.free-decompiler.com/flash" xmlns:xlink="http://www.w3.org/1999/xlink" ffdec:objectType="shape" height="20.1px" width="12.45px" xmlns="http://www.w3.org/2000/svg">
  <g transform="matrix(1.0, 0.0, 0.0, 1.0, 7.2, 4.4)">
    <path d="M4.75 4.65 Q3.85 7.25 1.4 11.35 L0.5 10.9 -3.25 9.9 -3.55 8.3 -5.0 6.05 -6.7 5.0 Q-5.85 -2.75 -1.05 -3.85 1.4 -4.15 3.35 -2.95 L2.2 -0.8 2.45 2.85 4.1 4.05 4.75 4.65" fill="url(#gradient0)" fill-rule="evenodd" stroke="none"/>
    <path d="M4.1 4.05 L2.45 2.85 2.2 -0.8 2.75 -1.95 Q4.2 -0.85 4.55 0.8 4.75 2.3 4.1 4.05 M-5.4 12.45 L-5.0 6.05 -3.55 8.3 -3.25 9.9 0.5 10.9 Q0.0 15.05 -1.65 15.2 L-2.7 15.2 Q-5.3 14.25 -5.4 12.45" fill="#1a1a1a" fill-rule="evenodd" stroke="none"/>
    <path d="M4.1 4.05 Q4.75 2.3 4.55 0.8 4.2 -0.85 2.75 -1.95 M0.5 10.9 Q0.0 15.05 -1.65 15.2 L-2.7 15.2 Q-5.3 14.25 -5.4 12.45 L-5.0 6.05" fill="none" stroke="#000000" stroke-linecap="round" stroke-linejoin="round" stroke-width="1.0"/>
    <path d="M-1.8 3.35 L-1.3 2.8 -0.3 1.95 -0.9 1.5 M-1.3 2.8 L-0.25 3.7 M1.05 3.2 L-0.3 1.95" fill="none" stroke="#44b5ff" stroke-linecap="round" stroke-linejoin="round" stroke-width="1.0"/>
    <path d="M2.75 -1.95 L3.35 -2.95 Q1.4 -4.15 -1.05 -3.85 -5.85 -2.75 -6.7 5.0 L-5.0 6.05 M0.5 10.9 L1.4 11.35 Q3.85 7.25 4.75 4.65 L4.1 4.05" fill="none" stroke="#080808" stroke-linecap="round" stroke-linejoin="round" stroke-width="1.0"/>
    <path d="M-1.95 -1.95 Q-3.3 -1.45 -3.8 0.15 M-2.55 0.85 Q-2.5 0.05 -1.45 -0.75" fill="none" stroke="#0f1316" stroke-linecap="round" stroke-linejoin="round" stroke-width="1.0"/>
    <path d="M1.55 4.55 L2.85 5.5 M0.8 6.05 L2.15 7.05" fill="none" stroke="#0f1316" stroke-linecap="round" stroke-linejoin="round" stroke-width="1.0"/>
    <path d="M-2.75 2.0 L-4.15 1.25 -5.1 4.25 -3.7 4.95 -2.75 2.0 Z" fill="none" stroke="#0f1316" stroke-linecap="round" stroke-linejoin="round" stroke-width="1.0"/>
    <path d="M4.1 4.05 L2.45 2.85 2.2 -0.8 2.75 -1.95 M-5.0 6.05 L-3.55 8.3 -3.25 9.9 0.5 10.9" fill="none" stroke="#0d1215" stroke-linecap="round" stroke-linejoin="round" stroke-width="1.0"/>
  </g>
  <defs>
    <linearGradient gradientTransform="matrix(0.0047, 0.0, 0.0, 0.0047, 0.9, 3.7)" gradientUnits="userSpaceOnUse" id="gradient0" spreadMethod="pad" x1="-819.2" x2="819.2">
      <stop offset="0.0" stop-color="#1d2b38"/>
      <stop offset="1.0" stop-color="#495d71"/>
    </linearGradient>
  </defs>
</svg>
