<?xml version="1.0" encoding="UTF-8" standalone="no"?>
<svg xmlns:ffdec="https://www.free-decompiler.com/flash" xmlns:xlink="http://www.w3.org/1999/xlink" ffdec:objectType="shape" height="21.6px" width="14.65px" xmlns="http://www.w3.org/2000/svg">
  <g transform="matrix(1.0, 0.0, 0.0, 1.0, -3.2, -5.1)">
    <path d="M11.5 5.6 L14.05 6.0 17.05 7.0 16.9 10.3 15.7 12.5 15.45 15.2 15.2 15.2 14.85 15.25 14.35 15.2 13.6 15.2 12.25 12.5 11.3 12.45 10.8 12.4 9.85 12.35 9.9 6.4 9.85 12.35 8.45 12.3 8.35 12.5 8.3 12.5 8.25 12.7 7.9 13.35 6.8 15.2 6.4 15.2 5.45 15.15 5.0 15.15 4.9 15.15 5.0 12.4 4.1 10.75 3.8 10.25 3.8 10.2 4.0 6.8 4.0 6.6 5.5 6.2 11.5 5.6 M14.8 7.7 Q13.9 7.2 12.95 7.15 13.9 7.2 14.8 7.7 M14.4 10.0 L13.7 10.95 14.4 10.0 M10.6 8.25 L10.6 10.2 10.6 8.25 M5.5 6.2 L4.0 6.8 5.5 6.2 M3.8 10.2 L4.1 10.75 3.8 10.2 M5.95 7.7 Q6.8 7.2 7.8 7.25 6.8 7.2 5.95 7.7 M11.3 6.35 L11.3 12.45 11.3 6.35 M6.3 10.0 L7.0 10.95 6.3 10.0 M5.0 12.4 L5.0 13.5 5.0 15.15 5.0 13.5 5.0 12.4 M6.95 13.6 L5.0 13.5 6.95 13.6 M15.2 15.2 L14.35 15.2 15.2 15.2 M15.1 13.65 L13.4 13.65 15.1 13.65" fill="#515b67" fill-rule="evenodd" stroke="none"/>
    <path d="M14.85 15.25 L14.45 16.95 12.5 16.6 12.35 16.4 12.2 16.3 11.9 15.5 8.4 15.3 7.8 16.35 8.4 15.3 11.9 15.5 12.2 16.3 11.3 15.5 8.9 15.45 7.8 16.35 7.75 16.4 7.6 16.55 7.6 16.6 7.55 16.6 7.6 16.6 8.2 18.2 7.55 16.6 7.45 16.35 5.5 16.85 5.45 15.2 6.4 15.2 5.45 15.2 5.45 15.15 6.4 15.2 6.8 15.2 7.9 13.35 8.25 12.7 8.3 12.5 8.35 12.5 8.45 12.3 9.85 12.35 8.35 12.5 9.85 12.35 10.8 12.4 11.3 12.45 12.25 12.5 13.6 15.2 14.35 15.2 14.85 15.25 M6.0 21.15 L5.75 18.8 6.0 18.85 6.0 20.95 6.0 21.15 M6.8 15.2 L6.85 15.2 7.9 13.35 6.85 15.2 6.8 15.2 M11.35 14.75 L9.05 14.65 11.35 14.75" fill="#1b252f" fill-rule="evenodd" stroke="none"/>
    <path d="M14.45 16.95 L15.35 17.1 15.35 18.9 14.3 19.0 14.15 21.85 15.15 22.3 15.1 23.5 12.7 24.9 11.3 20.45 12.5 16.6 14.45 16.95 M6.8 24.8 L4.6 23.3 4.7 22.35 4.7 22.05 6.0 21.75 5.95 21.5 6.0 21.15 6.0 20.95 6.0 18.85 5.75 18.8 4.8 18.7 4.75 17.0 5.3 16.9 5.5 16.85 7.45 16.35 7.55 16.6 5.3 16.9 7.55 16.6 8.2 18.2 9.05 20.4 6.95 24.6 4.9 23.45 6.95 24.6 6.8 24.8 M4.6 23.3 L4.9 23.45 4.6 23.3" fill="#373855" fill-rule="evenodd" stroke="none"/>
    <path d="M12.7 24.9 L11.65 25.5 7.65 25.45 6.8 24.8 6.95 24.6 9.05 20.4 7.35 24.85 9.05 20.4 8.2 18.2 7.6 16.6 7.6 16.55 7.75 16.4 7.8 16.35 8.9 15.45 11.3 15.5 12.2 16.3 12.35 16.4 12.5 16.6 11.3 20.45 12.7 24.9 M7.75 16.4 L7.6 16.6 7.75 16.4 M7.35 24.85 L6.95 24.6 7.35 24.85 M7.8 16.35 L9.05 20.4 7.8 16.35 M10.35 22.65 L9.75 22.7 10.35 22.65 M10.8 24.1 L9.25 24.1 10.8 24.1 M10.55 17.1 L9.7 17.0 10.55 17.1 M10.45 18.4 L9.7 18.25 10.45 18.4" fill="#191d39" fill-rule="evenodd" stroke="none"/>
    <path d="M17.05 7.0 L16.9 10.3 15.7 12.5 15.45 15.2 15.2 15.2 14.35 15.2 13.6 15.2 12.25 12.5 11.3 12.45 10.8 12.4 M5.45 15.2 L5.0 15.15 5.0 13.5 5.0 12.4 4.1 10.75 3.8 10.2 3.7 6.9 M8.35 12.5 L9.85 12.35 M8.35 12.5 L8.3 12.5 8.25 12.7 7.9 13.35 6.85 15.2 6.8 15.2 6.4 15.2 5.45 15.2" fill="none" stroke="#33373c" stroke-linecap="round" stroke-linejoin="round" stroke-width="1.0"/>
    <path d="M10.6 10.2 L10.6 8.25" fill="none" stroke="#29dbe9" stroke-linecap="round" stroke-linejoin="miter-clip" stroke-miterlimit="4.0" stroke-width="1.0"/>
    <path d="M3.7 6.9 L4.0 6.8 5.5 6.2 11.5 5.6 Q14.2 5.4 17.35 7.1" fill="none" stroke="#444b54" stroke-linecap="round" stroke-linejoin="round" stroke-width="1.0"/>
    <path d="M13.7 10.95 L14.4 10.0 M7.0 10.95 L6.3 10.0" fill="none" stroke="#808998" stroke-linecap="round" stroke-linejoin="round" stroke-width="1.0"/>
    <path d="M9.85 12.35 L9.9 6.4 M11.3 12.45 L11.3 6.35" fill="none" stroke="#25282c" stroke-linecap="round" stroke-linejoin="miter-clip" stroke-miterlimit="4.0" stroke-width="1.0"/>
    <path d="M12.95 7.15 Q13.9 7.2 14.8 7.7 M7.8 7.25 Q6.8 7.2 5.95 7.7" fill="none" stroke="#414953" stroke-linecap="round" stroke-linejoin="round" stroke-width="1.0"/>
    <path d="M5.0 13.5 L6.95 13.6 M13.4 13.65 L15.1 13.65" fill="none" stroke="#26262c" stroke-linecap="round" stroke-linejoin="round" stroke-width="1.0"/>
    <path d="M14.45 16.95 L15.35 17.1 15.35 18.9 14.3 19.0 14.15 21.85 15.15 22.3 15.1 23.5 12.7 24.9 M4.7 22.35 L4.7 22.05 6.0 21.75 5.95 21.5 M5.75 18.8 L4.8 18.7 4.75 17.0 5.3 16.9 7.55 16.6 7.6 16.6 7.75 16.4 M12.5 16.6 L14.45 16.95 M6.95 24.6 L7.35 24.85 M6.0 20.95 L6.0 18.85 5.75 18.8 M4.9 23.45 L6.95 24.6" fill="none" stroke="#222233" stroke-linecap="round" stroke-linejoin="round" stroke-width="1.0"/>
    <path d="M12.7 24.9 L11.65 25.5 7.65 25.45 6.8 24.8 M7.75 16.4 L7.8 16.35 8.4 15.3 11.9 15.5 12.2 16.3 12.35 16.4" fill="none" stroke="#131421" stroke-linecap="round" stroke-linejoin="round" stroke-width="1.0"/>
    <path d="M9.25 24.1 L10.8 24.1 M9.75 22.7 L10.35 22.65 M9.7 18.25 L10.45 18.4 M9.7 17.0 L10.55 17.1" fill="none" stroke="#151529" stroke-linecap="round" stroke-linejoin="round" stroke-width="1.0"/>
    <path d="M14.85 15.25 L14.45 16.95 M6.0 21.15 L5.75 18.8 M5.5 16.85 L5.45 15.2 5.45 15.15" fill="none" stroke="#060607" stroke-linecap="round" stroke-linejoin="round" stroke-width="1.0"/>
    <path d="M5.15 21.3 L5.1 19.6 M15.15 21.5 L15.3 19.6" fill="none" stroke="#161717" stroke-linecap="round" stroke-linejoin="miter-clip" stroke-miterlimit="4.0" stroke-width="1.0"/>
    <path d="M7.35 24.85 L9.05 20.4 7.8 16.35 M12.5 16.6 L11.3 20.45 12.7 24.9" fill="none" stroke="#26273d" stroke-linecap="round" stroke-linejoin="round" stroke-width="1.0"/>
    <path d="M9.05 14.65 L11.35 14.75 M8.0 26.0 L11.3 26.2" fill="none" stroke="#08080e" stroke-linecap="round" stroke-linejoin="round" stroke-width="1.0"/>
    <path d="M4.6 23.3 L4.7 22.35 M4.9 23.45 L4.6 23.3" fill="none" stroke="#222233" stroke-linecap="round" stroke-linejoin="round" stroke-width="0.2"/>
  </g>
</svg>
