<?xml version="1.0" encoding="UTF-8" standalone="no"?>
<svg xmlns:xlink="http://www.w3.org/1999/xlink" height="8.2px" width="16.35px" xmlns="http://www.w3.org/2000/svg">
  <g transform="matrix(1.0, 0.0, 0.0, 1.0, 5.9, 2.05)">
    <path d="M-4.75 2.35 L-3.1 1.85 -2.75 2.1 -1.6 2.65 0.85 3.5 1.55 5.65 -4.8 5.65 -5.4 2.55 -4.75 2.35 M3.6 5.65 L2.9 2.5 4.7 0.05 5.45 -1.05 7.25 0.0 Q9.2 1.5 9.95 3.4 L9.25 5.45 3.6 5.65" fill="#323232" fill-rule="evenodd" stroke="none"/>
    <path d="M1.55 5.65 L0.85 3.5 -1.6 2.65 -2.75 2.1 -3.1 1.85 -4.75 2.35 Q-4.8 1.65 -4.35 0.8 L-3.8 0.05 Q-1.0 -2.65 2.7 -0.75 L4.7 0.05 2.9 2.5 3.6 5.65 1.55 5.65" fill="#444444" fill-rule="evenodd" stroke="none"/>
    <path d="M-4.75 2.35 L-3.1 1.85 -2.75 2.1 -1.6 2.65 0.85 3.5 1.55 5.65 -4.8 5.65 -5.4 2.55 -4.75 2.35 M3.6 5.65 L2.9 2.5 4.7 0.05 5.45 -1.05 7.25 0.0 Q9.2 1.5 9.95 3.4 L9.25 5.45 3.6 5.65 M2.7 -0.75 Q-1.0 -2.65 -3.8 0.05" fill="none" stroke="#1a1a1a" stroke-linecap="round" stroke-linejoin="round" stroke-width="1.0"/>
    <path d="M1.55 5.65 L3.6 5.65 M4.7 0.05 L2.7 -0.75 M-3.8 0.05 L-4.35 0.8 Q-4.8 1.65 -4.75 2.35" fill="none" stroke="#1a1a1a" stroke-linecap="round" stroke-linejoin="miter-clip" stroke-miterlimit="4.0" stroke-width="1.0"/>
  </g>
</svg>
