<?xml version="1.0" encoding="UTF-8" standalone="no"?>
<svg xmlns:xlink="http://www.w3.org/1999/xlink" height="11.5px" width="18.2px" xmlns="http://www.w3.org/2000/svg">
  <g transform="matrix(1.0, 0.0, 0.0, 1.0, 5.65, 5.3)">
    <path d="M4.05 -4.1 L4.8 -4.4 8.25 0.55 11.35 2.75 12.05 5.35 5.05 5.55 5.7 3.5 5.95 2.65 0.55 0.35 0.8 -0.65 1.45 -3.2 4.05 -4.1 M-0.55 5.55 L-5.15 5.7 -5.0 3.3 -3.75 1.3 -1.05 3.05 -0.9 3.5 -0.55 5.55 M8.25 0.55 L5.95 2.65 8.25 0.55 M3.75 0.0 L5.6 0.7 3.75 0.0" fill="#cccccc" fill-rule="evenodd" stroke="none"/>
    <path d="M5.05 5.55 L-0.55 5.55 -0.9 3.5 -1.05 3.05 -3.75 1.3 -3.15 -1.45 -2.05 -2.05 -2.0 -2.05 -1.9 -3.75 0.6 -5.3 Q3.4 -4.6 4.05 -4.1 L1.45 -3.2 0.8 -0.65 0.55 0.35 5.95 2.65 5.7 3.5 -0.9 3.5 5.7 3.5 5.05 5.55 M-2.0 -2.05 L-0.95 -1.5 Q0.2 -0.85 0.8 -0.65 0.2 -0.85 -0.95 -1.5 L-2.0 -2.05 M1.05 4.55 L0.55 4.55 1.05 4.55 M-1.8 -0.15 L-2.0 0.65 -1.8 -0.15" fill="#606263" fill-rule="evenodd" stroke="none"/>
    <path d="M4.05 -4.1 L4.8 -4.4 8.25 0.55 11.35 2.75 12.05 5.35 5.05 5.55 M-0.55 5.55 L-5.15 5.7 -5.0 3.3 -3.75 1.3 M4.05 -4.1 L1.45 -3.2 0.8 -0.65 M5.95 2.65 L8.25 0.55 M-1.05 3.05 L-0.9 3.5" fill="none" stroke="#777777" stroke-linecap="round" stroke-linejoin="round" stroke-width="1.0"/>
    <path d="M-3.75 1.3 L-3.15 -1.45 -2.05 -2.05 -2.0 -2.05 -1.9 -3.75 M0.8 -0.65 Q0.2 -0.85 -0.95 -1.5 L-2.0 -2.05" fill="none" stroke="#25262b" stroke-linecap="round" stroke-linejoin="round" stroke-width="1.0"/>
    <path d="M0.8 -0.65 L0.55 0.35 5.95 2.65 5.7 3.5 5.05 5.55 M-0.9 3.5 L-0.55 5.55 M-3.75 1.3 L-1.05 3.05" fill="none" stroke="#4c4c4c" stroke-linecap="round" stroke-linejoin="round" stroke-width="1.0"/>
    <path d="M5.6 0.7 L3.75 0.0" fill="none" stroke="#999999" stroke-linecap="round" stroke-linejoin="round" stroke-width="1.0"/>
    <path d="M0.55 4.55 L1.05 4.55" fill="none" stroke="#b0ff7b" stroke-linecap="round" stroke-linejoin="round" stroke-width="1.0"/>
    <path d="M5.05 5.55 L-0.55 5.55 M-0.9 3.5 L5.7 3.5" fill="none" stroke="#25262b" stroke-linecap="round" stroke-linejoin="miter-clip" stroke-miterlimit="4.0" stroke-width="1.0"/>
    <path d="M-2.0 0.65 L-1.8 -0.15" fill="none" stroke="#373737" stroke-linecap="round" stroke-linejoin="round" stroke-width="1.0"/>
  </g>
</svg>
