<?xml version="1.0" encoding="UTF-8" standalone="no"?>
<svg xmlns:xlink="http://www.w3.org/1999/xlink" height="10.9px" width="17.15px" xmlns="http://www.w3.org/2000/svg">
  <g transform="matrix(1.0, 0.0, 0.0, 1.0, 5.65, 5.1)">
    <path d="M-3.45 0.75 L-1.5 -2.8 Q1.9 -6.6 5.3 -2.4 L7.45 0.2 4.9 2.9 5.0 5.25 -1.85 5.25 -1.95 2.3 -3.45 0.75" fill="#353f4b" fill-rule="evenodd" stroke="none"/>
    <path d="M7.45 0.2 L7.85 0.1 Q11.65 1.5 10.9 5.3 L5.0 5.25 4.9 2.9 7.45 0.2 M-1.85 5.25 L-4.8 5.3 -5.15 3.95 -4.5 1.05 -3.45 0.75 -1.95 2.3 -1.85 5.25" fill="#414d5d" fill-rule="evenodd" stroke="none"/>
    <path d="M-3.45 0.75 L-1.5 -2.8 Q1.9 -6.6 5.3 -2.4 L7.45 0.2 7.85 0.1 Q11.65 1.5 10.9 5.3 L5.0 5.25 -1.85 5.25 -4.8 5.3 -5.15 3.95 -4.5 1.05 -3.45 0.75 -1.95 2.3 -1.85 5.25 M5.0 5.25 L4.9 2.9 7.45 0.2" fill="none" stroke="#212832" stroke-linecap="round" stroke-linejoin="round" stroke-width="1.0"/>
  </g>
</svg>
