<?xml version="1.0" encoding="UTF-8" standalone="no"?>
<svg xmlns:ffdec="https://www.free-decompiler.com/flash" xmlns:xlink="http://www.w3.org/1999/xlink" ffdec:objectType="shape" height="23.7px" width="19.5px" xmlns="http://www.w3.org/2000/svg">
  <g transform="matrix(1.0, 0.0, 0.0, 1.0, 5.85, 1.6)">
    <path d="M7.25 18.95 L5.55 16.3 7.35 8.6 9.7 8.6 11.15 10.3 Q11.3 14.85 10.6 17.35 9.85 19.85 9.55 18.75 L7.25 18.95" fill="#252d31" fill-rule="evenodd" stroke="none"/>
    <path d="M4.15 18.0 L4.75 18.95 7.25 18.95 9.55 18.75 Q8.95 21.5 7.4 21.6 5.8 21.7 4.95 20.6 L4.15 18.0" fill="#262f3c" fill-rule="evenodd" stroke="none"/>
    <path d="M4.15 18.0 L3.4 16.9 Q2.45 13.55 2.7 10.0 L3.8 8.6 7.35 8.6 5.55 16.3 7.25 18.95 4.75 18.95 4.15 18.0" fill="url(#gradient0)" fill-rule="evenodd" stroke="none"/>
    <path d="M7.25 18.95 L9.55 18.75" fill="none" stroke="#131719" stroke-linecap="round" stroke-linejoin="round" stroke-width="1.0"/>
    <path d="M7.35 8.6 L3.8 8.6 2.7 10.0 Q2.45 13.55 3.4 16.9 L4.15 18.0 4.75 18.95 7.25 18.95 M5.55 16.3 L7.35 8.6 9.7 8.6 11.15 10.3 Q11.3 14.85 10.6 17.35 9.85 19.85 9.55 18.75 8.95 21.5 7.4 21.6 5.8 21.7 4.95 20.6 L4.15 18.0" fill="none" stroke="#0a0c0e" stroke-linecap="round" stroke-linejoin="round" stroke-width="1.0"/>
    <path d="M7.6 12.75 L3.2 11.45 2.7 10.0 1.6 8.6 0.8 5.85 -1.15 3.95 3.85 0.95 8.4 2.6 11.35 8.8 9.2 13.25 7.6 12.75 M1.65 13.5 L3.6 14.4 6.75 14.4 7.4 14.65 5.7 16.65 3.4 16.9 -0.05 14.0 1.65 13.5" fill="#252d31" fill-rule="evenodd" stroke="none"/>
    <path d="M0.8 5.85 L1.6 8.6 2.7 10.0 3.2 11.45 7.6 12.75 6.75 14.4 3.6 14.4 1.65 13.5 0.7 12.25 0.7 10.15 -0.7 8.0 0.8 5.85" fill="url(#gradient1)" fill-rule="evenodd" stroke="none"/>
    <path d="M0.8 5.85 L-0.7 8.0 0.7 10.15 0.7 12.25 1.65 13.5 M6.75 14.4 L7.6 12.75" fill="none" stroke="#173548" stroke-linecap="round" stroke-linejoin="round" stroke-width="1.0"/>
    <path d="M0.8 5.85 L1.6 8.6 2.7 10.0 3.2 11.45 7.6 12.75 9.2 13.25 11.35 8.8 8.4 2.6 3.85 0.95 -1.15 3.95 0.8 5.85 M1.65 13.5 L3.6 14.4 6.75 14.4 7.4 14.65 M5.7 16.65 L7.25 18.95 M5.7 16.65 L3.4 16.9 -0.05 14.0 1.65 13.5" fill="none" stroke="#131719" stroke-linecap="round" stroke-linejoin="round" stroke-width="1.0"/>
    <path d="M8.2 15.35 L9.55 18.75 7.15 17.7 6.3 15.95 4.25 14.9 3.45 12.95 8.2 15.35 M4.6 2.75 L5.55 1.55 4.35 -1.1 11.15 1.25 13.15 4.6 11.25 4.6 11.15 6.0 9.7 9.55 5.55 6.15 5.55 4.75 4.6 2.75 M-0.3 3.4 L-0.15 4.9 1.6 8.6 -0.7 8.0 -3.3 6.7 -4.0 4.45 -5.35 1.95 -0.3 3.4" fill="#bbd6f0" fill-opacity="0.75686276" fill-rule="evenodd" stroke="none"/>
    <path d="M4.6 2.75 L5.55 4.75 5.55 6.15 9.7 9.55 11.15 6.0 11.25 4.6 13.15 4.6 11.15 1.25 4.35 -1.1 5.55 1.55 4.6 2.75 M8.2 15.35 L3.45 12.95 4.25 14.9 6.3 15.95 7.15 17.7 9.55 18.75 8.2 15.35 M-0.3 3.4 L-0.15 4.9 1.6 8.6 -0.7 8.0 -3.3 6.7 -4.0 4.45 -5.35 1.95 -0.3 3.4 Z" fill="none" stroke="#99adcb" stroke-linecap="round" stroke-linejoin="round" stroke-opacity="0.5294118" stroke-width="1.0"/>
    <path d="M7.45 9.5 L7.0 7.85 4.15 6.05 9.3 1.35 12.85 5.75 12.35 10.9 7.45 9.5 M-1.15 9.5 L-2.2 8.35 -2.3 5.15 1.25 6.35 -1.15 9.5" fill="#2f3d46" fill-rule="evenodd" stroke="none"/>
    <path d="M11.65 11.45 L12.55 14.0 11.15 15.95 9.95 13.05 11.65 11.45" fill="url(#gradient2)" fill-rule="evenodd" stroke="none"/>
    <path d="M12.35 10.9 L11.65 11.45 9.95 13.05 11.15 15.95 11.7 16.75 10.55 20.2 8.6 17.35 4.65 12.7 7.45 9.5 12.35 10.9 M1.25 6.35 L2.9 6.9 4.9 8.6 4.4 10.1 -0.15 10.6 -1.15 9.5 1.25 6.35" fill="#253038" fill-rule="evenodd" stroke="none"/>
    <path d="M1.25 6.35 L2.9 6.9 4.9 8.6 4.4 10.1 -0.15 10.6 -1.15 9.5 -2.2 8.35 -2.3 5.15 1.25 6.35" fill="none" stroke="#20272c" stroke-linecap="round" stroke-linejoin="round" stroke-width="1.0"/>
    <path d="M11.65 11.45 L12.55 14.0 11.15 15.95" fill="none" stroke="#173548" stroke-linecap="round" stroke-linejoin="round" stroke-width="1.0"/>
    <path d="M12.35 10.9 L11.65 11.45 9.95 13.05 11.15 15.95 11.7 16.75 10.55 20.2 8.6 17.35 4.65 12.7 7.45 9.5 7.0 7.85 4.15 6.05 9.3 1.35 12.85 5.75 12.35 10.9 Z" fill="none" stroke="#1c2327" stroke-linecap="round" stroke-linejoin="round" stroke-width="1.0"/>
  </g>
  <defs>
    <linearGradient gradientTransform="matrix(-0.0064, 0.0064, -0.0045, -0.0045, 8.55, 15.85)" gradientUnits="userSpaceOnUse" id="gradient0" spreadMethod="pad" x1="-819.2" x2="819.2">
      <stop offset="0.0" stop-color="#136ebf"/>
      <stop offset="0.32941176470588235" stop-color="#c9e6ff"/>
      <stop offset="0.6039215686274509" stop-color="#8dbce2"/>
      <stop offset="1.0" stop-color="#106fb1"/>
    </linearGradient>
    <linearGradient gradientTransform="matrix(-0.0117, 0.0015, -7.0E-4, -0.0052, 7.95, 13.3)" gradientUnits="userSpaceOnUse" id="gradient1" spreadMethod="pad" x1="-819.2" x2="819.2">
      <stop offset="0.0" stop-color="#136ebf"/>
      <stop offset="0.32941176470588235" stop-color="#c9e6ff"/>
      <stop offset="0.6039215686274509" stop-color="#8dbce2"/>
      <stop offset="1.0" stop-color="#106fb1"/>
    </linearGradient>
    <linearGradient gradientTransform="matrix(0.0064, 0.0, 0.0, 0.0027, 8.7, 13.95)" gradientUnits="userSpaceOnUse" id="gradient2" spreadMethod="pad" x1="-819.2" x2="819.2">
      <stop offset="0.0" stop-color="#136ebf"/>
      <stop offset="0.32941176470588235" stop-color="#c9e6ff"/>
      <stop offset="0.6039215686274509" stop-color="#8dbce2"/>
      <stop offset="1.0" stop-color="#106fb1"/>
    </linearGradient>
  </defs>
</svg>
