<?xml version="1.0" encoding="UTF-8" standalone="no"?>
<svg xmlns:ffdec="https://www.free-decompiler.com/flash" xmlns:xlink="http://www.w3.org/1999/xlink" ffdec:objectType="shape" height="20.55px" width="17.75px" xmlns="http://www.w3.org/2000/svg">
  <g transform="matrix(1.0, 0.0, 0.0, 1.0, 8.8, 3.15)">
    <path d="M0.35 11.4 L-8.8 11.35 -8.7 7.7 0.45 7.8 0.35 11.4" fill="url(#gradient0)" fill-rule="evenodd" stroke="none"/>
    <path d="M3.9 5.75 L3.95 5.7 4.0 5.65 4.05 5.45 4.05 5.25 4.0 5.25 3.95 5.2 Q3.85 5.25 3.85 5.15 L3.85 5.05 3.75 5.05 3.6 4.9 3.45 4.8 3.35 4.75 3.35 4.7 3.4 4.6 3.45 4.55 3.55 4.4 Q3.6 4.3 3.8 4.25 L3.95 4.2 4.05 4.2 4.1 4.15 4.25 4.1 4.35 4.15 4.65 4.05 4.75 4.05 4.75 4.1 4.85 4.2 4.95 4.1 5.05 4.1 5.15 4.15 5.2 4.2 5.3 4.3 5.5 4.35 5.7 4.45 5.8 4.55 5.9 4.6 6.0 4.75 6.0 5.1 6.1 5.2 6.05 5.25 6.15 5.4 6.1 5.45 6.05 5.5 6.0 5.5 5.9 5.5 5.8 5.5 5.7 5.55 5.65 5.55 5.7 5.45 5.55 5.55 5.6 5.6 5.5 5.7 5.45 5.75 5.4 5.7 5.4 5.75 5.3 5.85 5.25 5.9 5.2 6.0 5.2 6.15 4.6 5.95 4.6 5.9 4.65 5.85 4.75 5.7 4.8 5.55 4.75 5.4 4.75 5.0 4.6 5.4 4.65 5.5 4.65 5.7 4.65 5.85 4.55 5.85 4.5 5.9 3.9 5.75 M5.1 4.4 L5.15 4.35 5.0 4.3 4.95 4.25 4.9 4.4 4.9 4.6 4.8 4.7 4.85 4.85 4.9 4.8 4.95 4.8 5.0 4.75 5.1 4.7 5.1 4.6 5.05 4.6 5.0 4.55 5.1 4.4" fill="#440000" fill-rule="evenodd" stroke="none"/>
    <path d="M3.9 5.75 L4.5 5.9 4.45 6.15 4.35 6.45 4.25 6.5 4.05 6.7 4.05 6.85 3.95 6.95 3.95 7.05 3.8 7.1 3.8 7.25 3.65 8.35 3.55 8.0 3.55 7.9 3.5 7.85 3.5 7.75 3.6 7.7 3.5 7.4 3.4 7.35 3.45 7.25 3.4 7.15 3.4 7.1 3.45 7.05 3.5 7.0 3.55 7.1 3.5 7.2 3.55 7.25 3.6 7.3 3.6 7.25 3.6 7.15 3.55 7.1 3.65 6.85 3.65 6.7 3.6 6.6 3.7 6.3 3.85 6.0 3.9 5.8 3.9 5.75 M4.6 5.95 L5.2 6.15 5.15 6.35 5.1 6.55 5.15 6.8 5.15 6.85 Q5.25 6.75 5.3 6.75 L5.4 6.8 5.4 6.85 5.4 6.95 5.3 7.1 5.2 7.1 5.15 7.2 5.1 7.25 5.05 7.35 4.95 7.35 4.95 7.4 4.9 7.4 4.95 7.25 5.05 7.05 5.1 7.0 5.15 6.85 4.85 7.2 4.9 7.25 4.85 7.4 4.85 7.45 4.7 7.5 4.65 7.55 4.6 7.7 4.65 7.7 4.8 7.65 4.75 7.75 4.7 7.8 4.6 7.9 4.55 8.0 4.45 8.25 4.35 8.3 4.25 8.4 4.15 8.55 4.25 8.2 4.5 7.8 4.5 7.5 4.6 7.4 4.6 7.35 4.6 7.15 4.6 7.05 4.65 6.95 4.65 6.9 4.55 6.85 4.65 6.8 4.65 6.75 4.55 6.6 4.55 6.65 4.45 6.6 4.45 6.5 4.5 6.25 4.5 6.0 4.6 5.95 M5.55 6.3 L5.65 6.4 5.65 6.45 5.6 6.55 5.65 6.6 5.55 6.65 5.5 6.7 5.45 6.8 5.35 6.7 5.35 6.6 5.4 6.5 5.5 6.5 5.55 6.4 5.55 6.3 M3.6 6.6 L3.6 6.75 3.55 6.9 3.5 6.8 3.4 6.8 3.35 6.65 3.3 6.6 3.25 6.5 3.25 6.35 3.25 6.25 3.3 6.3 3.45 6.35 3.55 6.35 3.6 6.4 3.6 6.6" fill="#2e0000" fill-rule="evenodd" stroke="none"/>
    <path d="M-1.15 6.35 L-0.95 11.4" fill="none" stroke="#5b4900" stroke-linecap="round" stroke-linejoin="round" stroke-width="1.0"/>
    <path d="M0.45 3.85 L0.95 14.0 M-0.4 6.75 L0.1 16.9" fill="none" stroke="#ffd858" stroke-linecap="round" stroke-linejoin="round" stroke-width="1.0"/>
    <path d="M7.6 2.8 L8.45 2.8 8.45 7.25 7.6 7.25 6.75 7.55 6.75 2.8 7.6 2.8 M7.6 10.2 L8.25 10.2 8.25 14.65 7.55 14.65 6.55 14.65 5.25 14.8 5.25 10.2 7.6 10.2" fill="#353535" fill-rule="evenodd" stroke="none"/>
    <path d="M4.95 -0.55 L6.3 -0.1 Q7.6 1.45 7.6 2.8 L6.75 2.8 4.95 0.7 4.95 -0.55 M7.6 7.25 L7.6 10.2 5.25 10.2 5.25 9.1 6.1 9.1 6.75 7.55 7.6 7.25 M7.55 14.65 Q6.55 16.55 4.25 16.6 L3.65 16.75 5.25 14.8 6.55 14.65 7.55 14.65" fill="#231d1d" fill-rule="evenodd" stroke="none"/>
    <path d="M3.65 16.75 L3.5 16.9 -0.5 16.9 Q-1.7 15.15 -1.5 11.45 L1.2 11.45 -0.1 7.45 -1.75 7.15 -1.75 5.85 -1.55 3.0 -2.65 2.3 -1.6 -2.65 4.3 -1.4 4.6 -0.95 4.95 -0.55 4.95 0.7 6.75 2.8 6.75 7.55 6.1 9.1 5.25 9.1 5.25 10.2 5.25 14.8 3.65 16.75 M-2.65 2.3 L-1.05 -1.8 4.6 -0.95 -1.05 -1.8 -2.65 2.3 M3.65 5.15 L3.65 5.1 3.55 4.85 3.5 4.6 3.5 4.35 3.5 4.3 3.45 4.1 3.5 4.0 3.55 3.95 3.6 3.8 3.6 3.75 3.65 3.75 3.75 3.7 3.8 3.55 3.75 3.5 3.85 3.4 3.85 3.5 3.9 3.45 3.95 3.4 4.1 3.4 4.15 3.35 4.3 3.35 4.35 3.35 4.4 3.2 4.4 3.15 4.3 3.05 4.3 2.95 4.1 2.9 3.95 2.5 3.85 2.3 3.65 2.25 3.55 2.2 3.3 2.1 3.05 2.1 2.95 2.05 2.85 2.0 2.7 2.0 2.6 2.0 2.55 2.1 2.4 2.05 2.3 2.0 2.2 2.05 1.85 2.25 1.75 2.25 1.6 2.3 1.55 2.35 1.45 2.5 1.3 2.6 1.1 2.85 1.0 3.05 0.95 3.1 0.95 3.2 0.95 3.25 1.1 3.35 1.25 3.4 1.5 3.5 1.6 3.45 1.6 3.55 1.75 3.65 1.8 3.65 1.85 3.65 1.9 3.85 1.9 4.1 1.9 4.25 1.85 4.3 1.85 4.35 1.85 4.6 1.8 4.95 1.8 5.3 1.85 5.45 1.9 5.6 1.85 5.9 1.8 5.8 1.75 5.9 1.75 6.05 1.75 6.1 1.8 6.15 1.8 6.3 1.9 6.35 2.1 6.65 2.05 6.7 2.05 6.85 2.1 6.9 2.15 7.0 2.35 7.35 2.2 6.1 2.15 6.0 2.15 5.85 2.3 5.75 2.3 5.6 2.35 5.5 2.35 5.3 2.55 5.0 2.65 4.95 2.65 4.6 2.65 4.3 2.7 4.25 2.75 4.1 2.75 3.95 2.7 3.75 2.6 3.65 2.65 3.15 2.7 2.95 2.65 2.8 2.7 2.65 2.65 2.35 2.65 2.2 2.7 2.25 2.9 2.25 2.9 2.3 2.85 2.55 2.9 2.6 2.95 2.6 2.95 2.75 2.9 2.8 2.85 2.85 2.75 2.85 Q2.6 3.2 2.75 3.55 L2.9 3.75 2.9 3.95 2.85 4.15 2.75 4.25 2.75 4.3 2.7 4.4 2.75 4.65 2.75 4.95 2.85 5.1 2.95 5.15 2.95 5.1 3.05 5.2 3.05 5.25 3.0 5.3 3.15 5.4 3.15 5.45 3.15 5.55 3.15 5.7 3.2 5.85 3.2 6.0 3.15 6.15 3.2 6.45 3.05 7.0 3.05 7.45 3.15 7.25 3.2 7.05 3.3 7.0 3.35 6.7 3.35 6.6 3.45 6.4 3.5 6.35 3.5 6.25 3.35 6.35 3.3 6.35 3.3 6.15 3.35 6.1 3.5 5.9 3.5 5.85 3.5 5.7 3.45 5.6 3.65 5.15 3.65 5.3 3.6 5.45 3.55 5.7 3.55 5.85 3.6 5.85 3.6 5.8 3.65 5.75 3.75 5.6 3.8 5.55 3.8 5.45 3.9 5.4 3.95 5.2 3.95 5.1 3.9 5.0 3.8 5.0 3.65 5.15 M1.4 5.3 L1.45 5.45 1.5 5.5 1.6 5.6 1.75 5.6 1.8 5.7 1.8 5.5 1.75 5.2 1.75 5.15 1.7 5.1 1.55 5.1 1.4 5.1 1.3 5.1 1.3 5.2 1.4 5.3 M1.85 6.0 L2.0 6.05 2.0 6.15 2.05 6.3 2.05 6.35 2.0 6.25 1.9 6.15 1.85 6.1 1.85 6.0 M3.95 4.4 L3.95 4.55 3.95 4.65 3.85 4.7 3.85 4.85 3.85 4.95 3.9 4.95 3.95 5.0 4.05 4.9 4.1 4.85 4.2 4.7 4.15 4.65 4.15 4.55 4.15 4.5 3.95 4.4 M3.1 0.95 L0.75 0.95 -0.3 2.25 0.75 0.95 3.1 0.95" fill="#2c2c2c" fill-rule="evenodd" stroke="none"/>
    <path d="M3.65 5.15 L3.45 5.6 3.5 5.7 3.5 5.85 3.5 5.9 3.35 6.1 3.3 6.15 3.3 6.35 3.35 6.35 3.5 6.25 3.5 6.35 3.45 6.4 3.35 6.6 3.35 6.7 3.3 7.0 3.2 7.05 3.15 7.25 3.05 7.45 3.05 7.0 3.2 6.45 3.15 6.15 3.2 6.0 3.2 5.85 3.15 5.7 3.15 5.55 3.15 5.45 3.15 5.4 3.0 5.3 3.05 5.25 3.05 5.2 2.95 5.1 2.95 5.15 2.85 5.1 2.75 4.95 2.75 4.65 2.7 4.4 2.75 4.3 2.75 4.25 2.85 4.15 2.9 3.95 2.9 3.75 2.75 3.55 Q2.6 3.2 2.75 2.85 L2.85 2.85 2.9 2.8 2.95 2.75 2.95 2.6 2.9 2.6 2.85 2.55 2.9 2.3 2.9 2.25 2.7 2.25 2.65 2.2 2.65 2.35 2.7 2.65 2.65 2.8 2.7 2.95 2.65 3.15 2.6 3.65 2.7 3.75 2.75 3.95 2.75 4.1 2.7 4.25 2.65 4.3 2.65 4.6 2.65 4.95 2.55 5.0 2.35 5.3 2.35 5.5 2.3 5.6 2.3 5.75 2.15 5.85 2.15 6.0 2.2 6.1 2.35 7.35 2.15 7.0 2.1 6.9 2.05 6.85 2.05 6.7 2.1 6.65 1.9 6.35 1.8 6.3 1.8 6.15 1.75 6.1 1.75 6.05 1.75 5.9 1.8 5.8 1.85 5.9 1.9 5.6 1.85 5.45 1.8 5.3 1.8 4.95 1.85 4.6 1.85 4.35 1.85 4.3 1.9 4.25 1.9 4.1 1.9 3.85 1.85 3.65 1.8 3.65 1.75 3.65 1.6 3.55 1.6 3.45 1.5 3.5 1.25 3.4 1.1 3.35 0.95 3.25 0.95 3.2 0.95 3.1 1.0 3.05 1.1 2.85 1.3 2.6 1.45 2.5 1.55 2.35 1.6 2.3 1.75 2.25 1.85 2.25 2.2 2.05 2.3 2.0 2.4 2.05 2.55 2.1 2.6 2.0 2.7 2.0 2.85 2.0 2.95 2.05 3.05 2.1 3.3 2.1 3.55 2.2 3.65 2.25 3.85 2.3 3.95 2.5 4.1 2.9 4.3 2.95 4.3 3.05 4.4 3.15 4.4 3.2 4.35 3.35 4.3 3.35 4.15 3.35 4.1 3.4 3.95 3.4 3.9 3.45 3.85 3.5 3.85 3.4 3.75 3.5 3.8 3.55 3.75 3.7 3.65 3.75 3.6 3.75 3.6 3.8 3.55 3.95 3.5 4.0 3.45 4.1 3.5 4.3 3.5 4.35 3.5 4.6 3.55 4.85 3.65 5.1 3.65 5.15 3.8 5.0 3.9 5.0 3.95 5.1 3.95 5.2 3.9 5.4 3.8 5.45 3.8 5.55 3.75 5.6 3.65 5.75 3.6 5.8 3.6 5.85 3.55 5.85 3.55 5.7 3.6 5.45 3.65 5.3 3.65 5.15 M3.95 4.4 L4.15 4.5 4.15 4.55 4.15 4.65 4.2 4.7 4.1 4.85 4.05 4.9 3.95 5.0 3.9 4.95 3.85 4.95 3.85 4.85 3.85 4.7 3.95 4.65 3.95 4.55 3.95 4.4 M1.85 6.0 L1.85 6.1 1.9 6.15 2.0 6.25 2.05 6.35 2.05 6.3 2.0 6.15 2.0 6.05 1.85 6.0 M1.4 5.3 L1.3 5.2 1.3 5.1 1.4 5.1 1.55 5.1 1.7 5.1 1.75 5.15 1.75 5.2 1.8 5.5 1.8 5.7 1.75 5.6 1.6 5.6 1.5 5.5 1.45 5.45 1.4 5.3" fill="#666666" fill-rule="evenodd" stroke="none"/>
    <path d="M-0.3 2.25 L0.75 0.95 3.1 0.95" fill="none" stroke="#191919" stroke-linecap="round" stroke-linejoin="round" stroke-width="1.0"/>
    <path d="M4.95 -0.55 L6.3 -0.1 Q7.6 1.45 7.6 2.8 M7.6 7.25 L7.6 10.2 M7.55 14.65 Q6.55 16.55 4.25 16.6 L3.65 16.75 3.5 16.9" fill="none" stroke="#151111" stroke-linecap="round" stroke-linejoin="round" stroke-width="1.0"/>
    <path d="M4.6 -0.95 L-1.05 -1.8 -2.65 2.3" fill="none" stroke="#483a00" stroke-linecap="round" stroke-linejoin="round" stroke-width="1.0"/>
    <path d="M-0.1 7.45 L-1.75 7.15 -1.75 5.85 -1.55 3.0 -2.65 2.3 -1.6 -2.65 4.3 -1.4 4.95 -0.55 4.95 0.7 6.75 2.8 8.45 2.8 8.45 7.25 7.6 7.25 6.75 7.55 6.1 9.1 5.25 9.1 5.25 10.2 8.25 10.2 8.25 14.65 6.55 14.65 5.25 14.8 3.65 16.75 -0.5 16.9 Q-1.7 15.15 -1.5 11.45 L1.2 11.45 -0.1 7.45 0.7 9.1 5.25 9.1 M6.75 2.8 L6.75 7.55 M5.25 14.8 L5.25 10.2" fill="none" stroke="#151515" stroke-linecap="round" stroke-linejoin="round" stroke-width="1.0"/>
  </g>
  <defs>
    <linearGradient gradientTransform="matrix(-0.0056, 0.0, 0.0, -0.0022, -2.25, 9.5)" gradientUnits="userSpaceOnUse" id="gradient0" spreadMethod="pad" x1="-819.2" x2="819.2">
      <stop offset="0.0" stop-color="#ffee00" stop-opacity="0.45882353"/>
      <stop offset="1.0" stop-color="#ffd200" stop-opacity="0.0"/>
      <stop offset="1.0" stop-color="#f7ec9a" stop-opacity="0.0"/>
    </linearGradient>
  </defs>
</svg>
