<?xml version="1.0" encoding="UTF-8" standalone="no"?>
<svg xmlns:xlink="http://www.w3.org/1999/xlink" height="22.95px" width="13.25px" xmlns="http://www.w3.org/2000/svg">
  <g transform="matrix(1.0, 0.0, 0.0, 1.0, 6.2, 5.7)">
    <path d="M0.7 -2.55 L1.55 -1.9 Q2.35 -1.15 2.3 -0.05 2.25 1.05 1.45 1.8 0.7 2.55 -0.45 2.5 L-1.45 2.3 0.7 -2.55 -1.45 2.3 -2.3 1.7 Q-3.05 0.9 -3.0 -0.2 -2.95 -1.25 -2.2 -2.05 -1.4 -2.8 -0.25 -2.75 L0.7 -2.55 M5.45 10.2 L5.55 10.2 6.55 11.0 6.4 14.7 5.35 15.9 -0.3 16.75 -1.8 16.15 -3.3 12.4 -2.95 11.95 -2.6 11.5 -2.5 11.3 2.1 10.65 2.4 10.65 3.7 10.45 4.0 10.4 5.45 10.2 M3.7 10.45 L5.55 10.2 3.7 10.45" fill="#836d5f" fill-rule="evenodd" stroke="none"/>
    <path d="M-1.45 2.3 L-0.45 2.5 Q0.7 2.55 1.45 1.8 2.25 1.05 2.3 -0.05 2.35 -1.15 1.55 -1.9 L0.7 -2.55 -0.25 -2.75 Q-1.4 -2.8 -2.2 -2.05 -2.95 -1.25 -3.0 -0.2 -3.05 0.9 -2.3 1.7 L-1.45 2.3 M-3.8 4.65 L-3.9 4.65 -4.85 -2.2 -3.7 -3.7 2.25 -4.05 4.4 -2.55 5.45 2.75 4.55 2.95 3.05 3.25 1.55 3.55 -3.2 4.5 -3.5 4.6 -3.8 4.65" fill="#97856f" fill-rule="evenodd" stroke="none"/>
    <path d="M-3.5 4.6 L-3.2 4.5 1.55 3.55 2.4 10.65 2.1 10.65 -2.5 11.3 -2.6 11.5 -2.6 11.45 -2.5 11.3 -2.6 11.45 -3.5 4.6 M3.05 3.25 L4.55 2.95 5.45 10.2 4.0 10.4 3.05 3.25" fill="#4d4844" fill-rule="evenodd" stroke="none"/>
    <path d="M-1.45 2.3 L-0.45 2.5 Q0.7 2.55 1.45 1.8 2.25 1.05 2.3 -0.05 2.35 -1.15 1.55 -1.9 L0.7 -2.55 -0.25 -2.75 Q-1.4 -2.8 -2.2 -2.05 -2.95 -1.25 -3.0 -0.2 -3.05 0.9 -2.3 1.7 L-1.45 2.3 M5.55 10.2 L6.55 11.0 6.4 14.7 5.35 15.9 -0.3 16.75 -1.8 16.15 -3.3 12.4 -2.95 11.95 -2.6 11.45 -2.5 11.3 2.1 10.65 M3.7 10.45 L2.4 10.65 M5.55 10.2 L3.7 10.45" fill="none" stroke="#473b34" stroke-linecap="butt" stroke-linejoin="miter-clip" stroke-miterlimit="10.0" stroke-width="1.0"/>
    <path d="M0.7 -2.55 L-1.45 2.3 M4.55 2.95 L5.45 2.75 4.4 -2.55 2.25 -4.05 -3.7 -3.7 -4.85 -2.2 -3.9 4.65 -3.8 4.65 M-3.2 4.5 L1.55 3.55 3.05 3.25 4.55 2.95" fill="none" stroke="#655447" stroke-linecap="round" stroke-linejoin="round" stroke-width="1.0"/>
    <path d="M4.55 2.95 L5.45 10.2 M-2.6 11.45 L-3.5 4.6 M-2.6 11.45 L-2.6 11.5 M4.0 10.4 L3.05 3.25 M2.4 10.65 L1.55 3.55" fill="none" stroke="#2b2a29" stroke-linecap="round" stroke-linejoin="round" stroke-width="1.0"/>
  </g>
</svg>
