<?xml version="1.0" encoding="UTF-8" standalone="no"?>
<svg xmlns:ffdec="https://www.free-decompiler.com/flash" xmlns:xlink="http://www.w3.org/1999/xlink" ffdec:objectType="shape" height="22.15px" width="15.95px" xmlns="http://www.w3.org/2000/svg">
  <g transform="matrix(1.0, 0.0, 0.0, 1.0, 9.9, 5.7)">
    <path d="M-6.75 -3.25 Q-5.6 -4.5 -4.05 -5.1 -0.3 -5.7 3.9 -2.95 4.85 -1.6 5.2 -0.05 -0.6 -2.25 -6.75 -3.25 M3.9 7.0 Q2.85 8.95 1.2 10.65 L0.65 10.5 -1.35 9.95 -1.85 7.15 -4.4 6.45 -5.8 8.45 -8.05 7.9 -8.8 7.65 Q-9.45 5.5 -9.35 3.45 -3.2 6.1 3.9 7.0" fill="url(#gradient0)" fill-rule="evenodd" stroke="none"/>
    <path d="M5.2 -0.05 Q6.3 3.95 3.9 7.0 -3.2 6.1 -9.35 3.45 -9.8 -0.85 -6.75 -3.25 -0.6 -2.25 5.2 -0.05 M-1.25 4.5 L-3.65 1.6 -3.0 -0.75 -3.65 1.6 -1.25 4.5 M-3.55 3.75 L-4.4 2.8 -3.55 3.75 M0.55 1.45 L-1.5 0.9 0.55 1.45 M1.2 3.1 L-0.7 2.6 1.2 3.1" fill="#393c57" fill-rule="evenodd" stroke="none"/>
    <path d="M0.65 10.5 L-0.65 12.2 Q-4.5 13.7 -7.9 10.25 L-8.05 7.9 -5.8 8.45 -4.4 6.45 -1.85 7.15 -1.35 9.95 0.65 10.5" fill="url(#gradient1)" fill-rule="evenodd" stroke="none"/>
    <path d="M-0.65 12.2 Q-1.0 14.15 -2.15 15.65 -5.55 16.65 -8.05 14.15 -8.55 12.25 -7.9 10.25 -4.5 13.7 -0.65 12.2" fill="url(#gradient2)" fill-rule="evenodd" stroke="none"/>
    <path d="M-6.75 -3.25 Q-5.6 -4.5 -4.05 -5.1 -0.3 -5.7 3.9 -2.95 4.85 -1.6 5.2 -0.05 M3.9 7.0 Q2.85 8.95 1.2 10.65 L0.65 10.5 -1.35 9.95 -1.85 7.15 -4.4 6.45 -5.8 8.45 -8.05 7.9 -8.8 7.65 Q-9.45 5.5 -9.35 3.45" fill="none" stroke="#666666" stroke-linecap="round" stroke-linejoin="round" stroke-width="1.0"/>
    <path d="M5.2 -0.05 Q6.3 3.95 3.9 7.0 -3.2 6.1 -9.35 3.45 -9.8 -0.85 -6.75 -3.25 -0.6 -2.25 5.2 -0.05 M-4.4 2.8 L-3.55 3.75 M-3.0 -0.75 L-3.65 1.6 -1.25 4.5 M-0.7 2.6 L1.2 3.1 M-1.5 0.9 L0.55 1.45" fill="none" stroke="#292930" stroke-linecap="round" stroke-linejoin="round" stroke-width="1.0"/>
    <path d="M0.65 10.5 L-0.65 12.2 Q-4.5 13.7 -7.9 10.25 L-8.05 7.9" fill="none" stroke="#323232" stroke-linecap="round" stroke-linejoin="round" stroke-width="1.0"/>
    <path d="M-0.65 12.2 Q-1.0 14.15 -2.15 15.65 -5.55 16.65 -8.05 14.15 -8.55 12.25 -7.9 10.25" fill="none" stroke="#000000" stroke-linecap="round" stroke-linejoin="round" stroke-width="1.0"/>
  </g>
  <defs>
    <radialGradient cx="0" cy="0" gradientTransform="matrix(0.0118, 0.0032, -0.0037, 0.0138, -4.15, 1.6)" gradientUnits="userSpaceOnUse" id="gradient0" r="819.2" spreadMethod="pad">
      <stop offset="0.0" stop-color="#ffffff"/>
      <stop offset="1.0" stop-color="#999999"/>
      <stop offset="1.0" stop-color="#595959"/>
    </radialGradient>
    <linearGradient gradientTransform="matrix(0.0046, 0.0012, -9.0E-4, 0.0035, -3.9, 9.4)" gradientUnits="userSpaceOnUse" id="gradient1" spreadMethod="pad" x1="-819.2" x2="819.2">
      <stop offset="0.0" stop-color="#595959"/>
      <stop offset="1.0" stop-color="#737373"/>
      <stop offset="1.0" stop-color="#595959"/>
    </linearGradient>
    <radialGradient cx="0" cy="0" gradientTransform="matrix(0.0049, 0.0013, -0.0015, 0.0058, -4.75, 14.55)" gradientUnits="userSpaceOnUse" id="gradient2" r="819.2" spreadMethod="pad">
      <stop offset="0.0" stop-color="#393c57"/>
      <stop offset="1.0" stop-color="#292930"/>
      <stop offset="1.0" stop-color="#595959"/>
    </radialGradient>
  </defs>
</svg>
