<?xml version="1.0" encoding="UTF-8" standalone="no"?>
<svg xmlns:xlink="http://www.w3.org/1999/xlink" height="15.0px" width="33.15px" xmlns="http://www.w3.org/2000/svg">
  <g transform="matrix(1.0, 0.0, 0.0, 1.0, -33.35, 9.8)">
    <path d="M37.6 -9.8 Q39.35 -9.8 40.55 -7.65 41.8 -5.4 41.8 -2.3 41.8 0.75 40.55 3.0 39.35 5.2 37.6 5.2 35.85 5.2 34.65 3.0 33.35 0.75 33.35 -2.3 33.35 -5.4 34.65 -7.65 35.85 -9.8 37.6 -9.8" fill="url(#gradient0)" fill-rule="evenodd" stroke="none"/>
    <path d="M59.4 -6.0 Q66.5 -4.5 66.5 -2.2 66.5 -0.05 59.4 1.45 52.3 3.0 42.25 3.0 L39.0 3.0 39.0 -7.4 42.25 -7.5 Q52.3 -7.5 59.4 -6.0" fill="url(#gradient1)" fill-rule="evenodd" stroke="none"/>
  </g>
  <defs>
    <radialGradient cx="0" cy="0" gradientTransform="matrix(0.0053, 0.0, 0.0, 0.0094, 37.6, -2.3)" gradientUnits="userSpaceOnUse" id="gradient0" r="819.2" spreadMethod="pad">
      <stop offset="0.36470588235294116" stop-color="#ffffff" stop-opacity="0.5411765"/>
      <stop offset="1.0" stop-color="#00ccff" stop-opacity="0.0"/>
    </radialGradient>
    <radialGradient cx="0" cy="0" gradientTransform="matrix(0.0297, 0.0, 0.0, 0.0064, 42.35, -2.3)" gradientUnits="userSpaceOnUse" id="gradient1" r="819.2" spreadMethod="pad">
      <stop offset="0.36470588235294116" stop-color="#ffffff" stop-opacity="0.57254905"/>
      <stop offset="1.0" stop-color="#00e6ff" stop-opacity="0.0"/>
    </radialGradient>
  </defs>
</svg>
