<?xml version="1.0" encoding="UTF-8" standalone="no"?>
<svg xmlns:xlink="http://www.w3.org/1999/xlink" height="10.6px" width="19.4px" xmlns="http://www.w3.org/2000/svg">
  <g transform="matrix(1.0, 0.0, 0.0, 1.0, 6.7, 3.9)">
    <path d="M-5.4 3.75 Q-5.25 1.65 -4.7 0.45 -4.1 -1.05 -0.4 -3.4 L4.55 -3.4 Q5.0 -1.7 6.25 -0.25 7.15 1.5 -5.0 1.6 -4.75 2.7 11.35 3.05 L11.35 4.75 -5.4 3.75" fill="#666666" fill-rule="evenodd" stroke="none"/>
    <path d="M6.25 -0.25 L6.95 0.45 Q10.55 0.6 11.35 3.05 -4.75 2.7 -5.0 1.6 7.15 1.5 6.25 -0.25 M11.35 4.75 Q12.4 4.5 12.15 6.2 L-6.15 6.2 Q-6.4 4.35 -5.4 3.75 L11.35 4.75" fill="#333333" fill-rule="evenodd" stroke="none"/>
    <path d="M-5.4 3.75 Q-5.25 1.65 -4.7 0.45 -4.1 -1.05 -0.4 -3.4 L4.55 -3.4 Q5.0 -1.7 6.25 -0.25 M11.35 3.05 L11.35 4.75" fill="none" stroke="#3a3a3a" stroke-linecap="round" stroke-linejoin="round" stroke-width="1.0"/>
    <path d="M6.25 -0.25 L6.95 0.45 Q10.55 0.6 11.35 3.05 M11.35 4.75 Q12.4 4.5 12.15 6.2 L-6.15 6.2 Q-6.4 4.35 -5.4 3.75 L11.35 4.75 Z" fill="none" stroke="#1c1c1c" stroke-linecap="round" stroke-linejoin="round" stroke-width="1.0"/>
  </g>
</svg>
