<?xml version="1.0" encoding="UTF-8" standalone="no"?>
<svg xmlns:ffdec="https://www.free-decompiler.com/flash" xmlns:xlink="http://www.w3.org/1999/xlink" ffdec:objectType="shape" height="19.95px" width="13.95px" xmlns="http://www.w3.org/2000/svg">
  <g transform="matrix(1.0, 0.0, 0.0, 1.0, -0.15, -0.4)">
    <path d="M10.4 15.55 Q10.4 17.35 9.35 18.6 8.3 19.85 6.8 19.85 5.35 19.85 4.3 18.6 3.25 17.35 3.25 15.55 3.25 13.8 4.3 12.55 5.35 11.3 6.8 11.3 8.3 11.3 9.35 12.55 10.4 13.8 10.4 15.55" fill="#272727" fill-rule="evenodd" stroke="none"/>
    <path d="M10.4 15.55 Q10.4 17.35 9.35 18.6 8.3 19.85 6.8 19.85 5.35 19.85 4.3 18.6 3.25 17.35 3.25 15.55 3.25 13.8 4.3 12.55 5.35 11.3 6.8 11.3 8.3 11.3 9.35 12.55 10.4 13.8 10.4 15.55 Z" fill="none" stroke="#121212" stroke-linecap="round" stroke-linejoin="round" stroke-width="1.0"/>
    <path d="M8.9 3.15 Q11.3 3.85 11.85 5.5 L11.05 14.2 Q6.95 13.8 2.85 14.2 L2.4 5.15 Q3.25 3.95 5.05 3.15 7.0 2.8 8.9 3.15" fill="#4a0000" fill-rule="evenodd" stroke="none"/>
    <path d="M9.6 1.15 Q12.75 2.1 13.55 4.35 L12.55 15.0 11.45 16.2 Q6.95 16.0 2.45 16.2 L1.15 14.7 0.65 3.9 Q1.85 2.25 4.3 1.15 6.95 0.7 9.6 1.15 M8.9 3.15 Q7.0 2.8 5.05 3.15 3.25 3.95 2.4 5.15 L2.85 14.2 Q6.95 13.8 11.05 14.2 L11.85 5.5 Q11.3 3.85 8.9 3.15" fill="url(#gradient0)" fill-rule="evenodd" stroke="none"/>
    <path d="M9.6 1.15 Q12.75 2.1 13.55 4.35 L12.55 15.0 11.45 16.2 Q6.95 16.0 2.45 16.2 L1.15 14.7 0.65 3.9 Q1.85 2.25 4.3 1.15 6.95 0.7 9.6 1.15 Z" fill="none" stroke="#121212" stroke-linecap="round" stroke-linejoin="round" stroke-width="1.0"/>
    <path d="M13.6 12.25 L12.55 15.0 11.2 14.4 Q7.1 14.0 3.05 14.4 L1.15 15.05 0.65 11.85 2.85 10.9 2.5 4.85 Q3.45 3.65 5.2 3.35 7.15 3.0 9.05 3.35 11.45 4.05 12.15 4.85 L11.55 10.9 13.6 12.25" fill="#350000" fill-rule="evenodd" stroke="none"/>
    <path d="M13.6 12.25 L12.55 15.0 11.2 14.4 Q7.1 14.0 3.05 14.4 L1.15 15.05 0.65 11.85 2.85 10.9 2.5 4.85 Q3.45 3.65 5.2 3.35 7.15 3.0 9.05 3.35 11.45 4.05 12.15 4.85 L11.55 10.9 13.6 12.25 Z" fill="none" stroke="#230000" stroke-linecap="round" stroke-linejoin="round" stroke-width="1.0"/>
    <path d="M6.6 6.35 L6.75 6.0 6.85 5.95 7.55 5.7 8.15 5.85 8.2 5.9 8.3 6.0 8.35 6.05 8.45 6.2 8.6 6.5 8.65 6.75 8.65 6.8 8.65 6.95 8.3 7.55 8.2 7.7 8.15 7.75 8.35 7.25 8.35 7.15 8.2 6.6 8.2 6.55 8.05 6.35 7.35 6.15 6.6 6.35" fill="#101010" fill-rule="evenodd" stroke="none"/>
    <path d="M8.15 7.75 L8.2 7.7 8.3 7.55 8.65 6.95 8.65 6.8 8.65 6.75 8.6 6.5 8.45 6.2 8.35 6.05 8.3 6.0 8.2 5.9 8.15 5.85 7.55 5.7 6.85 5.95 6.75 6.0 6.6 6.35 6.6 6.4 6.55 6.45 6.55 6.5 6.4 6.8 6.35 7.05 6.35 7.15 6.35 7.25 6.35 7.3 6.45 7.6 6.55 7.8 6.65 7.9 7.0 8.1 7.35 8.15 7.6 8.15 8.05 7.85 8.15 7.75 M9.5 6.55 L9.65 9.45 6.0 12.85 6.0 9.25 Q5.55 8.15 4.4 8.7 4.3 5.45 6.8 4.9 9.3 4.4 9.5 6.55" fill="#020202" fill-rule="evenodd" stroke="none"/>
    <path d="M6.55 6.5 L6.55 6.45 6.6 6.4 6.6 6.35 7.35 6.15 8.05 6.35 8.2 6.55 8.2 6.6 8.35 7.15 8.35 7.25 8.15 7.75 7.55 7.9 Q7.1 7.9 6.75 7.55 L6.7 7.5 6.6 7.3 6.5 7.0 6.5 6.95 6.5 6.85 6.5 6.75 6.5 6.65 6.55 6.5 6.6 6.4 6.55 6.5" fill="#350000" fill-rule="evenodd" stroke="none"/>
    <path d="M9.5 6.55 Q9.3 4.4 6.8 4.9 4.3 5.45 4.4 8.7 5.55 8.15 6.0 9.25 L6.0 12.85 9.65 9.45 9.5 6.55" fill="none" stroke="#101010" stroke-linecap="round" stroke-linejoin="round" stroke-width="0.1"/>
    <path d="M6.6 6.35 L6.75 6.0 6.85 5.95 7.55 5.7 8.15 5.85 8.2 5.9 8.3 6.0 8.35 6.05 8.45 6.2 8.6 6.5 8.65 6.75 8.65 6.8 8.65 6.95 8.3 7.55 8.2 7.7 8.15 7.75 7.55 7.9 Q7.1 7.9 6.75 7.55 L6.7 7.5 6.6 7.3 6.5 7.0 6.5 6.95 6.5 6.85 6.5 6.75 6.5 6.65 6.55 6.5 6.6 6.4 6.6 6.35 Z" fill="none" stroke="#020202" stroke-linecap="round" stroke-linejoin="round" stroke-width="0.9"/>
  </g>
  <defs>
    <radialGradient cx="0" cy="0" fx="192.0" fy="0" gradientTransform="matrix(0.0198, 0.0, 0.0, 0.0109, 5.05, 3.15)" gradientUnits="userSpaceOnUse" id="gradient0" r="819.2" spreadMethod="pad">
      <stop offset="0.0" stop-color="#484848"/>
      <stop offset="0.4470588235294118" stop-color="#2a2a2a"/>
      <stop offset="1.0" stop-color="#1e1e1e"/>
      <stop offset="1.0" stop-color="#383838"/>
    </radialGradient>
  </defs>
</svg>
