<?xml version="1.0" encoding="UTF-8" standalone="no"?>
<svg xmlns:xlink="http://www.w3.org/1999/xlink" height="17.6px" width="15.1px" xmlns="http://www.w3.org/2000/svg">
  <g transform="matrix(1.0, 0.0, 0.0, 1.0, -29.7, 9.65)">
    <path d="M34.95 -9.6 L35.3 -9.65 Q37.3 -9.65 38.75 -7.1 40.15 -4.5 40.15 -0.85 40.15 2.8 38.75 5.35 37.3 7.95 35.3 7.95 L34.95 7.9 34.95 -9.6" fill="url(#gradient0)" fill-rule="evenodd" stroke="none"/>
    <path d="M34.95 7.9 L34.6 7.95 Q32.55 7.95 31.15 5.35 29.7 2.8 29.75 -0.85 29.7 -4.5 31.15 -7.1 32.55 -9.65 34.6 -9.65 L34.95 -9.6 34.95 7.9" fill="url(#gradient1)" fill-rule="evenodd" stroke="none"/>
    <path d="M37.25 -6.85 L37.75 -6.85 Q40.65 -6.9 42.75 -5.15 44.8 -3.4 44.8 -0.95 44.8 1.5 42.75 3.25 40.65 5.0 37.75 5.0 L37.25 4.95 37.25 -6.85" fill="url(#gradient2)" fill-rule="evenodd" stroke="none"/>
    <path d="M37.25 4.95 L36.75 5.0 Q33.8 5.0 31.75 3.25 29.65 1.5 29.7 -0.95 29.65 -3.4 31.75 -5.15 33.8 -6.9 36.75 -6.85 L37.25 -6.85 37.25 4.95" fill="url(#gradient3)" fill-rule="evenodd" stroke="none"/>
  </g>
  <defs>
    <radialGradient cx="0" cy="0" gradientTransform="matrix(0.0, 0.0096, -0.006, 0.0, 35.25, -0.85)" gradientUnits="userSpaceOnUse" id="gradient0" r="819.2" spreadMethod="pad">
      <stop offset="0.17647058823529413" stop-color="#ffffff"/>
      <stop offset="1.0" stop-color="#139ffd" stop-opacity="0.0"/>
    </radialGradient>
    <radialGradient cx="0" cy="0" gradientTransform="matrix(0.0, 0.0096, 0.006, 0.0, 34.6, -0.85)" gradientUnits="userSpaceOnUse" id="gradient1" r="819.2" spreadMethod="pad">
      <stop offset="0.17647058823529413" stop-color="#ffffff"/>
      <stop offset="1.0" stop-color="#139ffd" stop-opacity="0.0"/>
    </radialGradient>
    <radialGradient cx="0" cy="0" gradientTransform="matrix(0.0, 0.0064, -0.0087, 0.0, 37.7, -0.95)" gradientUnits="userSpaceOnUse" id="gradient2" r="819.2" spreadMethod="pad">
      <stop offset="0.17647058823529413" stop-color="#ffffff"/>
      <stop offset="1.0" stop-color="#139ffd" stop-opacity="0.0"/>
    </radialGradient>
    <radialGradient cx="0" cy="0" gradientTransform="matrix(0.0, 0.0064, 0.0087, 0.0, 36.75, -0.95)" gradientUnits="userSpaceOnUse" id="gradient3" r="819.2" spreadMethod="pad">
      <stop offset="0.17647058823529413" stop-color="#ffffff"/>
      <stop offset="1.0" stop-color="#139ffd" stop-opacity="0.0"/>
    </radialGradient>
  </defs>
</svg>
