<?xml version="1.0" encoding="UTF-8" standalone="no"?>
<svg xmlns:ffdec="https://www.free-decompiler.com/flash" xmlns:xlink="http://www.w3.org/1999/xlink" ffdec:objectType="shape" height="20.0px" width="18.4px" xmlns="http://www.w3.org/2000/svg">
  <g transform="matrix(1.0, 0.0, 0.0, 1.0, 9.6, 1.55)">
    <path d="M-0.05 12.4 L-9.05 14.05 -9.6 10.4 -0.6 8.8 -0.05 12.4" fill="url(#gradient0)" fill-rule="evenodd" stroke="none"/>
    <path d="M2.4 6.2 L2.45 6.1 2.5 6.05 2.5 5.85 2.45 5.65 2.4 5.65 2.35 5.6 2.25 5.6 2.25 5.5 2.15 5.5 1.95 5.4 1.8 5.3 1.7 5.3 1.65 5.25 1.7 5.1 1.75 5.05 1.8 4.9 2.05 4.75 2.2 4.65 2.3 4.65 2.3 4.6 2.45 4.5 2.5 4.55 2.8 4.4 2.9 4.35 2.9 4.4 3.05 4.5 3.1 4.4 3.2 4.35 3.3 4.4 3.4 4.45 3.5 4.5 3.7 4.5 3.95 4.55 4.05 4.6 4.15 4.65 4.3 4.8 4.35 5.15 4.45 5.2 4.4 5.3 4.55 5.4 4.5 5.45 4.45 5.55 4.4 5.55 4.3 5.55 4.2 5.55 4.15 5.65 4.1 5.65 4.1 5.55 4.0 5.65 4.05 5.7 3.95 5.85 3.9 5.9 3.85 5.85 3.85 5.9 3.8 6.0 3.75 6.1 3.7 6.2 3.75 6.35 3.1 6.25 3.1 6.2 3.15 6.15 3.2 5.95 3.25 5.8 3.15 5.65 Q3.05 5.5 3.1 5.25 2.9 5.55 3.0 5.7 L3.05 5.8 3.1 6.0 3.15 6.15 3.05 6.15 3.0 6.2 2.4 6.2 M3.3 4.6 L3.35 4.55 3.2 4.55 3.15 4.55 3.1 4.65 3.15 4.85 3.05 4.95 3.15 5.1 3.2 5.05 3.25 5.05 3.3 4.95 3.35 4.9 3.35 4.8 3.3 4.8 3.25 4.75 3.3 4.6" fill="#440000" fill-rule="evenodd" stroke="none"/>
    <path d="M2.4 6.2 L3.0 6.2 3.0 6.45 2.95 6.8 2.9 6.85 Q2.75 6.9 2.75 7.1 L2.75 7.25 2.7 7.35 2.7 7.45 2.55 7.55 2.6 7.65 2.65 8.75 2.5 8.45 2.45 8.35 2.4 8.3 2.4 8.2 2.5 8.15 2.3 7.85 2.2 7.8 2.25 7.7 2.15 7.6 2.2 7.55 2.25 7.5 2.3 7.6 2.3 7.65 2.35 7.7 2.4 7.75 2.4 7.65 2.3 7.6 2.35 7.3 2.35 7.15 2.25 7.1 2.3 7.25 2.3 7.4 2.2 7.3 2.1 7.3 2.05 7.2 1.95 7.15 1.9 7.05 1.9 6.9 1.85 6.8 1.9 6.85 2.1 6.85 2.2 6.85 2.25 6.9 2.25 7.1 2.3 6.75 2.4 6.45 2.45 6.25 2.4 6.2 M3.1 6.25 L3.75 6.35 3.75 6.55 3.7 6.75 3.8 7.0 3.8 7.05 3.95 6.9 4.05 6.95 4.05 7.0 4.1 7.1 4.0 7.25 3.9 7.3 3.9 7.35 3.85 7.4 3.8 7.5 3.7 7.55 3.7 7.6 3.65 7.6 3.7 7.45 3.75 7.25 3.8 7.2 3.8 7.05 3.6 7.4 3.65 7.45 3.6 7.6 3.65 7.65 Q3.5 7.7 3.5 7.75 L3.45 7.8 3.45 7.95 3.5 7.95 3.6 7.85 3.6 7.95 3.55 8.05 3.45 8.15 3.45 8.25 3.4 8.5 3.3 8.6 3.25 8.7 3.2 8.9 3.2 8.5 3.35 8.05 3.3 7.75 3.35 7.65 3.35 7.6 3.35 7.45 3.3 7.35 3.35 7.25 3.35 7.2 3.2 7.15 3.3 7.1 3.3 7.05 3.2 6.95 3.05 6.9 3.05 6.8 3.05 6.55 3.0 6.3 3.1 6.25 M4.1 6.4 L4.25 6.5 4.25 6.55 4.2 6.65 4.25 6.7 4.2 6.75 4.15 6.85 4.1 6.95 4.0 6.85 3.95 6.75 4.0 6.65 4.1 6.65 4.15 6.5 4.1 6.4" fill="#2e0000" fill-rule="evenodd" stroke="none"/>
    <path d="M-2.45 7.7 L-1.35 12.65" fill="none" stroke="#5b4900" stroke-linecap="round" stroke-linejoin="round" stroke-width="1.0"/>
    <path d="M-1.35 4.95 L1.05 14.8 M-1.65 7.95 L0.75 17.85" fill="none" stroke="#ffd858" stroke-linecap="round" stroke-linejoin="round" stroke-width="1.0"/>
    <path d="M5.45 2.6 L6.3 2.45 7.15 6.8 6.3 6.95 5.55 7.4 4.65 2.75 5.45 2.6 M6.85 9.85 L7.5 9.7 8.3 14.1 7.6 14.25 5.4 14.85 4.55 10.3 6.85 9.85" fill="#353535" fill-rule="evenodd" stroke="none"/>
    <path d="M2.25 -0.2 L3.7 0.0 Q5.2 1.25 5.45 2.6 L4.65 2.75 2.5 1.05 2.25 -0.2 M6.3 6.95 L6.85 9.85 4.55 10.3 4.35 9.25 5.2 9.05 5.55 7.4 6.3 6.95 M7.6 14.25 Q7.0 16.3 4.8 16.75 L4.2 17.0 5.4 14.85 7.6 14.25" fill="#231d1d" fill-rule="evenodd" stroke="none"/>
    <path d="M4.1 17.2 L0.15 17.95 Q-1.35 16.45 -1.85 12.8 L0.8 12.3 -1.2 8.55 -2.85 8.6 -3.1 7.3 -3.45 4.5 -3.75 4.2 -4.55 -1.05 1.5 -0.95 2.0 -0.2 2.25 -0.2 2.5 1.05 4.65 2.75 5.55 7.4 5.2 9.05 4.35 9.25 4.55 10.3 5.4 14.85 4.2 17.0 4.1 17.2 M-3.75 4.2 L-3.65 -0.15 2.0 -0.2 -3.65 -0.15 -3.75 4.2 M2.05 5.6 L2.05 5.55 1.9 5.35 1.8 5.1 1.75 4.85 1.65 4.65 1.7 4.55 1.75 4.5 1.75 4.35 1.75 4.3 1.8 4.25 1.9 4.2 1.9 4.05 1.85 4.0 1.95 3.9 1.95 4.0 2.0 3.95 2.05 3.85 2.2 3.85 2.2 3.8 Q2.25 3.65 2.35 3.75 L2.4 3.6 2.4 3.55 2.3 3.45 2.3 3.35 2.1 3.35 1.85 2.95 1.75 2.8 1.5 2.75 1.4 2.75 1.15 2.7 0.9 2.75 0.8 2.7 0.65 2.65 0.5 2.7 0.4 2.7 0.4 2.85 0.25 2.8 0.1 2.75 0.05 2.85 -0.3 3.1 -0.4 3.15 -0.5 3.2 -0.55 3.25 -0.65 3.45 -0.7 3.55 -0.85 3.85 -0.95 4.05 -1.0 4.1 -0.95 4.2 -0.95 4.25 -0.8 4.35 -0.6 4.35 -0.4 4.4 -0.3 4.35 -0.3 4.45 -0.1 4.55 -0.05 4.5 0.0 4.5 0.05 4.7 0.1 4.95 0.15 5.1 0.1 5.15 0.15 5.4 0.15 5.75 0.25 6.1 0.3 6.25 0.4 6.4 0.4 6.7 0.35 6.6 0.3 6.75 0.3 6.9 0.35 6.95 0.4 6.95 0.4 7.1 0.55 7.15 0.8 7.4 0.75 7.45 0.75 7.6 0.85 7.65 0.9 7.75 1.15 8.0 0.8 6.85 0.7 6.75 0.7 6.6 0.8 6.45 0.8 6.3 0.8 6.2 0.8 6.0 Q0.8 5.8 0.95 5.7 L1.0 5.6 0.95 5.25 0.9 5.0 0.95 4.95 0.95 4.8 0.95 4.65 0.85 4.45 0.75 4.35 Q0.65 4.2 0.7 3.85 L0.7 3.65 0.6 3.5 0.65 3.35 0.55 3.05 0.55 2.95 0.75 2.9 0.8 2.95 0.75 3.2 0.85 3.25 0.9 3.25 0.9 3.4 0.85 3.45 0.85 3.5 0.75 3.55 Q0.65 3.9 0.85 4.25 L1.05 4.4 1.1 4.6 1.05 4.8 1.0 4.95 1.0 5.0 0.95 5.05 1.05 5.3 1.1 5.6 1.25 5.7 1.35 5.75 1.35 5.7 1.45 5.8 1.45 5.85 1.45 5.9 1.6 5.95 1.6 6.0 1.65 6.1 1.65 6.25 1.75 6.4 1.75 6.55 1.75 6.7 1.85 7.0 1.8 7.6 1.9 8.0 1.95 7.75 1.95 7.6 2.05 7.55 2.05 7.25 2.0 7.15 2.1 6.9 2.15 6.85 2.1 6.75 2.0 6.9 1.95 6.9 1.9 6.7 1.95 6.65 2.05 6.4 2.05 6.35 2.0 6.2 1.95 6.1 2.1 5.7 2.1 5.75 2.05 5.95 2.05 6.2 2.1 6.35 2.15 6.35 2.15 6.3 2.15 6.2 2.25 6.05 2.3 6.0 2.25 5.9 2.35 5.85 2.35 5.6 2.35 5.5 2.3 5.45 2.2 5.45 2.05 5.6 M-0.1 6.2 L-0.1 6.35 -0.05 6.35 0.1 6.45 0.25 6.45 0.3 6.45 0.25 6.3 0.15 6.05 0.15 6.0 0.1 5.95 -0.05 5.95 -0.15 6.0 -0.25 6.0 -0.25 6.1 -0.1 6.2 M2.2 4.8 L2.25 4.95 2.25 5.05 2.15 5.15 2.2 5.3 2.2 5.4 2.35 5.4 2.4 5.3 2.45 5.25 2.5 5.05 2.45 5.05 2.45 4.95 2.45 4.9 2.2 4.8 M0.4 6.8 L0.55 6.85 0.6 6.95 0.65 7.05 0.7 7.1 0.6 7.05 0.5 6.95 0.45 6.9 0.4 6.8 M0.75 1.65 L-1.55 2.05 -2.4 3.5 -1.55 2.05 0.75 1.65" fill="#2c2c2c" fill-rule="evenodd" stroke="none"/>
    <path d="M2.2 4.8 L2.45 4.9 2.45 4.95 2.45 5.05 2.5 5.05 2.45 5.25 2.4 5.3 2.35 5.4 2.2 5.4 2.2 5.3 2.15 5.15 2.25 5.05 2.25 4.95 2.2 4.8 M-0.1 6.2 L-0.25 6.1 -0.25 6.0 -0.15 6.0 -0.05 5.95 0.1 5.95 0.15 6.0 0.15 6.05 0.25 6.3 0.3 6.45 0.25 6.45 0.1 6.45 -0.05 6.35 -0.1 6.35 -0.1 6.2 M2.05 5.6 L2.2 5.45 2.3 5.45 2.35 5.5 2.35 5.6 2.35 5.85 2.25 5.9 2.3 6.0 2.25 6.05 2.15 6.2 2.15 6.3 2.15 6.35 2.1 6.35 2.05 6.2 2.05 5.95 2.1 5.75 2.1 5.7 1.95 6.1 2.0 6.2 2.05 6.35 2.05 6.4 1.95 6.65 1.9 6.7 1.95 6.9 2.0 6.9 2.1 6.75 2.15 6.85 2.1 6.9 2.0 7.15 2.05 7.25 2.05 7.55 1.95 7.6 1.95 7.75 1.9 8.0 1.8 7.6 1.85 7.0 1.75 6.7 1.75 6.55 1.75 6.4 1.65 6.25 1.65 6.1 1.6 6.0 1.6 5.95 1.45 5.9 1.45 5.85 1.45 5.8 1.35 5.7 1.35 5.75 1.25 5.7 1.1 5.6 1.05 5.3 0.95 5.05 1.0 5.0 1.0 4.95 1.05 4.8 1.1 4.6 1.05 4.4 0.85 4.25 Q0.65 3.9 0.75 3.55 L0.85 3.5 0.85 3.45 0.9 3.4 0.9 3.25 0.85 3.25 0.75 3.2 0.8 2.95 0.75 2.9 0.55 2.95 0.55 3.05 0.65 3.35 0.6 3.5 0.7 3.65 0.7 3.85 Q0.65 4.2 0.75 4.35 L0.85 4.45 0.95 4.65 0.95 4.8 0.95 4.95 0.9 5.0 0.95 5.25 1.0 5.6 0.95 5.7 Q0.8 5.8 0.8 6.0 L0.8 6.2 0.8 6.3 0.8 6.45 0.7 6.6 0.7 6.75 0.8 6.85 1.15 8.0 0.9 7.75 0.85 7.65 0.75 7.6 0.75 7.45 0.8 7.4 0.55 7.15 0.4 7.1 0.4 6.95 0.35 6.95 0.3 6.9 0.3 6.75 0.35 6.6 0.4 6.7 0.4 6.4 0.3 6.25 0.25 6.1 0.15 5.75 0.15 5.4 0.1 5.15 0.15 5.1 0.1 4.95 0.05 4.7 0.0 4.5 -0.05 4.5 -0.1 4.55 -0.3 4.45 -0.3 4.35 -0.4 4.4 -0.6 4.35 -0.8 4.35 -0.95 4.25 -0.95 4.2 -1.0 4.1 -0.95 4.05 -0.85 3.85 -0.7 3.55 -0.65 3.45 -0.55 3.25 -0.5 3.2 -0.4 3.15 -0.3 3.1 0.05 2.85 0.1 2.75 0.25 2.8 0.4 2.85 0.4 2.7 0.5 2.7 0.65 2.65 0.8 2.7 0.9 2.75 1.15 2.7 1.4 2.75 1.5 2.75 1.75 2.8 1.85 2.95 2.1 3.35 2.3 3.35 2.3 3.45 2.4 3.55 2.4 3.6 2.35 3.75 Q2.25 3.65 2.2 3.8 L2.2 3.85 2.05 3.85 2.0 3.95 1.95 4.0 1.95 3.9 1.85 4.0 1.9 4.05 1.9 4.2 1.8 4.25 1.75 4.3 1.75 4.35 1.75 4.5 1.7 4.55 1.65 4.65 1.75 4.85 1.8 5.1 1.9 5.35 2.05 5.55 2.05 5.6 M0.4 6.8 L0.45 6.9 0.5 6.95 0.6 7.05 0.7 7.1 0.65 7.05 0.6 6.95 0.55 6.85 0.4 6.8" fill="#666666" fill-rule="evenodd" stroke="none"/>
    <path d="M-2.4 3.5 L-1.55 2.05 0.75 1.65" fill="none" stroke="#191919" stroke-linecap="round" stroke-linejoin="round" stroke-width="1.0"/>
    <path d="M2.25 -0.2 L3.7 0.0 Q5.2 1.25 5.45 2.6 M6.3 6.95 L6.85 9.85 M7.6 14.25 Q7.0 16.3 4.8 16.75 L4.2 17.0 4.1 17.2" fill="none" stroke="#151111" stroke-linecap="round" stroke-linejoin="round" stroke-width="1.0"/>
    <path d="M2.0 -0.2 L-3.65 -0.15 -3.75 4.2" fill="none" stroke="#483a00" stroke-linecap="round" stroke-linejoin="round" stroke-width="1.0"/>
    <path d="M-1.2 8.55 L-2.85 8.6 -3.1 7.3 -3.45 4.5 -4.65 4.0 -4.55 -1.05 1.5 -0.95 2.25 -0.2 2.5 1.05 4.65 2.75 6.3 2.45 7.15 6.8 6.3 6.95 5.55 7.4 5.2 9.05 4.35 9.25 4.55 10.3 7.5 9.7 8.3 14.1 5.4 14.85 4.2 17.0 0.15 17.95 Q-1.35 16.45 -1.85 12.8 L0.8 12.3 -1.2 8.55 -0.1 10.05 4.35 9.25 M4.65 2.75 L5.55 7.4 M5.4 14.85 L4.55 10.3" fill="none" stroke="#151515" stroke-linecap="round" stroke-linejoin="round" stroke-width="1.0"/>
  </g>
  <defs>
    <linearGradient gradientTransform="matrix(-0.0055, 0.001, -4.0E-4, -0.0022, -2.9, 11.0)" gradientUnits="userSpaceOnUse" id="gradient0" spreadMethod="pad" x1="-819.2" x2="819.2">
      <stop offset="0.0" stop-color="#ffee00" stop-opacity="0.45882353"/>
      <stop offset="1.0" stop-color="#ffd200" stop-opacity="0.0"/>
      <stop offset="1.0" stop-color="#f7ec9a" stop-opacity="0.0"/>
    </linearGradient>
  </defs>
</svg>
