<?xml version="1.0" encoding="UTF-8" standalone="no"?>
<svg xmlns:ffdec="https://www.free-decompiler.com/flash" xmlns:xlink="http://www.w3.org/1999/xlink" ffdec:objectType="shape" height="24.4px" width="23.75px" xmlns="http://www.w3.org/2000/svg">
  <g transform="matrix(1.0, 0.0, 0.0, 1.0, 2.55, 4.15)">
    <path d="M6.1 10.75 L8.65 11.05 Q13.05 11.0 14.5 10.1 15.55 9.4 16.45 7.9 19.1 10.45 20.05 12.95 21.0 15.4 20.6 16.65 19.2 19.1 17.1 19.75 L14.85 18.7 16.3 18.5 18.05 15.9 Q18.8 14.75 15.95 11.15 13.25 12.65 9.95 12.55 L6.65 12.3 6.1 10.75" fill="#410e0e" fill-rule="evenodd" stroke="none"/>
    <path d="M6.1 10.75 L6.65 12.3 M14.85 18.7 L17.1 19.75 Q19.2 19.1 20.6 16.65 21.0 15.4 20.05 12.95 19.1 10.45 16.45 7.9" fill="none" stroke="#250606" stroke-linecap="round" stroke-linejoin="round" stroke-width="1.0"/>
    <path d="M6.15 12.55 Q6.0 12.1 6.65 12.3 L9.95 12.55 Q13.25 12.65 15.95 11.15 18.8 14.75 18.05 15.9 L16.3 18.5 14.85 18.7 Q11.35 18.9 9.4 17.0 6.8 14.5 6.15 12.55" fill="url(#gradient0)" fill-rule="evenodd" stroke="none"/>
    <path d="M11.1 -2.25 Q16.65 1.6 17.05 6.7 L16.45 7.9 Q15.55 9.4 14.5 10.1 13.05 11.0 8.65 11.05 L6.1 10.75 Q3.2 10.0 0.75 7.5 -4.4 1.75 0.0 -3.65 L11.1 -2.25" fill="url(#gradient1)" fill-rule="evenodd" stroke="none"/>
    <path d="M11.1 -2.25 Q16.65 1.6 17.05 6.7 L16.45 7.9 Q15.55 9.4 14.5 10.1 13.05 11.0 8.65 11.05 L6.1 10.75 Q3.2 10.0 0.75 7.5 -4.4 1.75 0.0 -3.65 L11.1 -2.25 M6.15 12.55 Q6.0 12.1 6.65 12.3 L9.95 12.55 Q13.25 12.65 15.95 11.15 18.8 14.75 18.05 15.9 L16.3 18.5 14.85 18.7 Q11.35 18.9 9.4 17.0 6.8 14.5 6.15 12.55 Z" fill="none" stroke="#040a2e" stroke-linecap="round" stroke-linejoin="round" stroke-width="1.0"/>
    <path d="M15.4 15.15 Q16.1 14.95 16.45 15.4 L16.75 16.15 Q16.5 16.65 15.7 16.15 L15.4 15.85 Q14.9 15.25 15.4 15.15 M10.95 13.8 Q12.5 13.5 13.4 15.9 12.9 16.95 11.25 15.9 9.35 14.05 10.95 13.8 M4.3 5.0 Q6.85 4.75 7.5 6.9 6.9 7.85 5.0 6.9 2.9 5.15 4.3 5.0 M5.65 2.5 Q4.9 4.0 2.5 2.5 -0.2 -0.2 1.6 -0.5 4.8 -0.9 5.65 2.5 M10.2 6.0 Q11.5 5.45 12.25 6.8 12.05 7.55 10.9 7.15 9.45 6.3 10.2 6.0" fill="#1b703f" fill-opacity="0.29803923" fill-rule="evenodd" stroke="none"/>
  </g>
  <defs>
    <radialGradient cx="0" cy="0" fx="92.80000000000001" fy="0" gradientTransform="matrix(0.0135, -0.0096, 0.0122, 0.017, 14.5, 11.75)" gradientUnits="userSpaceOnUse" id="gradient0" r="819.2" spreadMethod="pad">
      <stop offset="0.0" stop-color="#23ff5b"/>
      <stop offset="0.27450980392156865" stop-color="#3fffba"/>
      <stop offset="0.5450980392156862" stop-color="#12639c"/>
      <stop offset="0.9058823529411765" stop-color="#0400ff"/>
      <stop offset="1.0" stop-color="#ff1305"/>
    </radialGradient>
    <radialGradient cx="0" cy="0" fx="44.800000000000004" fy="0" gradientTransform="matrix(0.0266, 0.0046, -0.0028, 0.0165, 9.25, 2.95)" gradientUnits="userSpaceOnUse" id="gradient1" r="819.2" spreadMethod="pad">
      <stop offset="0.0" stop-color="#10e268"/>
      <stop offset="0.27450980392156865" stop-color="#0ee095"/>
      <stop offset="0.5019607843137255" stop-color="#2287d0"/>
      <stop offset="0.9058823529411765" stop-color="#0400ff"/>
      <stop offset="1.0" stop-color="#ff1305"/>
    </radialGradient>
  </defs>
</svg>
