<?xml version="1.0" encoding="UTF-8" standalone="no"?>
<svg xmlns:ffdec="https://www.free-decompiler.com/flash" xmlns:xlink="http://www.w3.org/1999/xlink" ffdec:objectType="shape" height="22.95px" width="16.1px" xmlns="http://www.w3.org/2000/svg">
  <g transform="matrix(1.0, 0.0, 0.0, 1.0, 8.9, 5.15)">
    <path d="M-8.0 6.9 L-8.1 6.6 -8.1 6.55 -8.35 4.7 -7.7 3.85 -7.65 3.8 -8.45 3.1 Q-6.7 -3.5 -5.85 -4.2 -4.95 -4.9 -2.05 -4.6 0.9 -4.4 3.8 -3.1 6.6 -1.85 6.75 -0.65 6.8 0.45 5.45 6.45 L4.2 6.9 4.45 7.65 3.1 9.6 2.3 9.6 Q-2.9 9.3 -7.2 7.3 L-8.0 6.9 M2.15 7.05 L4.2 6.9 2.15 7.05 2.05 7.0 1.65 7.0 2.15 7.05 M5.1 0.8 L4.8 0.8 5.1 0.8 M4.95 -0.65 L4.65 -0.7 4.95 -0.65 M-6.05 4.55 L-5.0 3.35 2.05 5.05 2.4 6.5 2.05 5.05 -5.0 3.35 -6.05 4.55 M-4.45 -3.0 L-4.75 -3.05 -4.45 -3.0 M-5.35 -1.55 L-5.65 -1.6 -5.35 -1.55" fill="url(#gradient0)" fill-rule="evenodd" stroke="none"/>
    <path d="M2.15 7.05 L1.65 7.0 2.05 7.0 2.15 7.05" fill="url(#gradient1)" fill-rule="evenodd" stroke="none"/>
    <path d="M-7.2 7.3 Q-2.9 9.3 2.3 9.6 2.3 12.15 0.6 16.5 -7.55 19.0 -7.8 13.7 -7.75 9.5 -7.2 7.3" fill="#191919" fill-rule="evenodd" stroke="none"/>
    <path d="M4.65 -0.7 L4.95 -0.65 M4.8 0.8 L5.1 0.8 M-5.65 -1.6 L-5.35 -1.55 M-4.75 -3.05 L-4.45 -3.0" fill="none" stroke="#151515" stroke-linecap="round" stroke-linejoin="round" stroke-width="1.0"/>
    <path d="M4.2 6.9 L5.45 6.45 Q6.8 0.45 6.75 -0.65 6.6 -1.85 3.8 -3.1 0.9 -4.4 -2.05 -4.6 -4.95 -4.9 -5.85 -4.2 -6.7 -3.5 -8.45 3.1 L-7.65 3.8 -7.7 3.85 -8.35 4.7 -8.1 6.55 -8.1 6.6 -8.0 6.9 M3.1 9.6 L4.45 7.65 4.2 6.9" fill="none" stroke="#0e0e0e" stroke-linecap="round" stroke-linejoin="round" stroke-width="0.9500000000000001"/>
    <path d="M-7.2 7.3 Q-2.9 9.3 2.3 9.6 L3.1 9.6 M4.2 6.9 L2.15 7.05" fill="none" stroke="#0e0e0e" stroke-linecap="round" stroke-linejoin="round" stroke-width="1.0"/>
    <path d="M2.4 6.5 L2.05 5.05 -5.0 3.35 -6.05 4.55" fill="none" stroke="url(#gradient2)" stroke-linecap="round" stroke-linejoin="round" stroke-width="1.25"/>
    <path d="M-8.0 6.9 L-7.2 7.3 Q-7.75 9.5 -7.8 13.7 -7.55 19.0 0.6 16.5 2.3 12.15 2.3 9.6" fill="none" stroke="#000000" stroke-linecap="round" stroke-linejoin="round" stroke-width="1.0"/>
    <path d="M-7.7 3.85 L-6.15 5.05 2.05 7.0" fill="none" stroke="#0e0e0e" stroke-linecap="round" stroke-linejoin="round" stroke-width="1.0"/>
  </g>
  <defs>
    <radialGradient cx="0" cy="0" gradientTransform="matrix(0.0111, 0.0026, -0.0026, 0.0098, -0.8, 2.4)" gradientUnits="userSpaceOnUse" id="gradient0" r="819.2" spreadMethod="pad">
      <stop offset="0.0" stop-color="#333333"/>
      <stop offset="1.0" stop-color="#1c1c1c"/>
    </radialGradient>
    <linearGradient gradientTransform="matrix(0.0034, 8.0E-4, -8.0E-4, 0.003, -2.35, 7.35)" gradientUnits="userSpaceOnUse" id="gradient1" spreadMethod="pad" x1="-819.2" x2="819.2">
      <stop offset="0.0" stop-color="#595959"/>
      <stop offset="0.17254901960784313" stop-color="#737373"/>
      <stop offset="0.8196078431372549" stop-color="#737373"/>
      <stop offset="1.0" stop-color="#595959"/>
    </linearGradient>
    <linearGradient gradientTransform="matrix(0.0097, 0.0011, -0.0013, 0.0119, -1.15, 4.75)" gradientUnits="userSpaceOnUse" id="gradient2" spreadMethod="pad" x1="-819.2" x2="819.2">
      <stop offset="0.0" stop-color="#333333"/>
      <stop offset="1.0" stop-color="#000000"/>
    </linearGradient>
  </defs>
</svg>
