<?xml version="1.0" encoding="UTF-8" standalone="no"?>
<svg xmlns:xlink="http://www.w3.org/1999/xlink" height="10.9px" width="18.75px" xmlns="http://www.w3.org/2000/svg">
  <g transform="matrix(1.0, 0.0, 0.0, 1.0, 5.9, 4.6)">
    <path d="M-3.6 0.5 L-1.75 -2.65 Q-0.75 -4.15 1.2 -4.1 3.35 -3.9 4.35 -1.75 L6.75 0.1 4.45 2.05 3.45 4.75 -0.05 4.75 -0.75 3.0 -3.6 0.5 M0.0 0.25 L0.45 1.3 0.0 0.25 M2.3 2.4 L1.8 0.25 2.3 2.4" fill="#507679" fill-rule="evenodd" stroke="none"/>
    <path d="M3.45 4.75 L4.45 2.05 6.75 0.1 8.3 0.25 9.15 -1.0 12.35 3.2 11.35 5.65 4.4 5.6 3.45 4.75" fill="#324144" fill-rule="evenodd" stroke="none"/>
    <path d="M-3.6 0.5 L-0.75 3.0 -0.05 4.75 -1.3 5.8 -4.9 5.5 -5.4 2.95 -3.6 0.5" fill="#435f62" fill-rule="evenodd" stroke="none"/>
    <path d="M6.75 0.1 L4.35 -1.75 Q3.35 -3.9 1.2 -4.1 -0.75 -4.15 -1.75 -2.65 L-3.6 0.5 -0.75 3.0 -0.05 4.75 3.45 4.75 4.45 2.05 6.75 0.1 8.3 0.25 9.15 -1.0 12.35 3.2 11.35 5.65 4.4 5.6 3.45 4.75 M-0.05 4.75 L-1.3 5.8 -4.9 5.5 -5.4 2.95 -3.6 0.5" fill="none" stroke="#18332e" stroke-linecap="round" stroke-linejoin="round" stroke-width="1.0"/>
    <path d="M1.8 0.25 L2.3 2.4 M0.45 1.3 L0.0 0.25" fill="none" stroke="#415f62" stroke-linecap="round" stroke-linejoin="round" stroke-width="1.0"/>
  </g>
</svg>
