<?xml version="1.0" encoding="UTF-8" standalone="no"?>
<svg xmlns:ffdec="https://www.free-decompiler.com/flash" xmlns:xlink="http://www.w3.org/1999/xlink" ffdec:objectType="shape" height="21.1px" width="15.15px" xmlns="http://www.w3.org/2000/svg">
  <g transform="matrix(1.0, 0.0, 0.0, 1.0, 0.5, 0.5)">
    <path d="M3.5 17.3 L2.75 14.35 5.15 12.75 9.3 13.55 10.7 14.5 10.7 17.25 9.45 19.0 4.9 20.1 3.05 19.35 2.5 17.8 3.5 17.3 4.0 17.0 3.5 17.3" fill="#171717" fill-rule="evenodd" stroke="none"/>
    <path d="M3.5 17.3 L2.5 17.8 3.05 19.35 4.9 20.1 9.45 19.0 10.7 17.25 10.7 14.5 9.3 13.55 5.15 12.75 2.75 14.35 3.5 17.3 4.0 17.0" fill="none" stroke="#0e0e0e" stroke-linecap="round" stroke-linejoin="round" stroke-width="1.0"/>
    <path d="M0.7 6.3 L1.35 6.3 4.85 10.55 4.85 11.6 0.7 6.3" fill="#252525" fill-rule="evenodd" stroke="none"/>
    <path d="M12.8 6.3 L14.15 6.3 13.2 14.9 11.55 16.45 10.65 15.7 10.65 14.3 3.5 14.3 3.5 15.7 2.6 16.45 0.95 14.9 0.0 6.3 0.7 6.3 4.85 11.6 4.85 10.55 4.85 8.55 5.95 5.85 8.2 5.85 9.3 8.55 9.3 10.5 Q11.55 8.15 12.8 6.3 M9.3 11.6 L9.3 10.5 9.3 11.6 13.3 6.95 9.3 11.6 M4.5 11.95 L9.65 11.95 4.5 11.95" fill="#1c1c1c" fill-rule="evenodd" stroke="none"/>
    <path d="M1.35 6.3 L1.35 1.55 4.95 0.0 5.65 1.65 8.5 1.65 9.15 0.2 12.8 1.55 12.8 6.3 Q11.55 8.15 9.3 10.5 L9.3 8.55 8.2 5.85 5.95 5.85 4.85 8.55 4.85 10.55 1.35 6.3 M6.75 2.55 L5.3 5.2 6.1 5.2 6.45 4.45 7.35 4.45 7.15 3.95 6.75 3.95 7.4 2.55 6.75 2.55 M8.7 5.2 L7.55 2.75 7.2 3.5 7.9 5.2 8.7 5.2" fill="#272727" fill-rule="evenodd" stroke="none"/>
    <path d="M8.7 5.2 L7.9 5.2 7.2 3.5 7.55 2.75 8.7 5.2 M6.75 2.55 L7.4 2.55 6.75 3.95 7.15 3.95 7.35 4.45 6.45 4.45 6.1 5.2 5.3 5.2 6.75 2.55" fill="#511313" fill-rule="evenodd" stroke="none"/>
    <path d="M1.35 6.3 L1.35 1.55 4.95 0.0 5.65 1.65 8.5 1.65 9.15 0.2 12.8 1.55 12.8 6.3 14.15 6.3 13.2 14.9 11.55 16.45 10.65 15.7 10.65 14.3 3.5 14.3 3.5 15.7 2.6 16.45 0.95 14.9 0.0 6.3 0.7 6.3 1.35 6.3 4.85 10.55 4.85 8.55 5.95 5.85 8.2 5.85 9.3 8.55 9.3 10.5 Q11.55 8.15 12.8 6.3 M4.85 10.55 L4.85 11.6 M9.3 10.5 L9.3 11.6 M9.65 11.95 L4.5 11.95" fill="none" stroke="#1c1c1c" stroke-linecap="round" stroke-linejoin="round" stroke-width="1.0"/>
    <path d="M4.85 11.6 L0.7 6.3 M9.3 11.6 L13.3 6.95" fill="none" stroke="#511313" stroke-linecap="round" stroke-linejoin="round" stroke-width="1.0"/>
    <path d="M12.8 6.3 L14.15 6.3 13.2 14.9 11.55 16.45 10.65 15.7 10.65 14.3 3.5 14.3 3.5 15.7 2.6 16.45 0.95 14.9 0.0 6.3 1.35 6.3 1.35 1.55 4.95 0.0 5.65 1.65 8.5 1.65 9.15 0.2 12.8 1.55 12.8 6.3 Q11.55 8.15 9.3 10.5 L9.3 11.6 M9.3 10.5 L9.3 8.55 8.2 5.85 5.95 5.85 4.85 8.55 4.85 10.55 4.85 11.6 M1.35 6.3 L4.85 10.55 M10.2 11.95 L3.85 11.95" fill="none" stroke="#101010" stroke-linecap="round" stroke-linejoin="round" stroke-width="1.0"/>
  </g>
</svg>
