<?xml version="1.0" encoding="UTF-8" standalone="no"?>
<svg xmlns:xlink="http://www.w3.org/1999/xlink" height="8.75px" width="16.6px" xmlns="http://www.w3.org/2000/svg">
  <g transform="matrix(1.0, 0.0, 0.0, 1.0, 6.5, 2.45)">
    <path d="M-4.4 1.45 L-4.1 0.95 -3.4 -1.35 0.05 -1.75 1.9 -1.95 3.0 -0.05 5.2 0.55 2.8 3.45 2.8 5.8 -1.75 5.8 -1.75 3.75 -4.4 1.45" fill="#1d1616" fill-rule="evenodd" stroke="none"/>
    <path d="M-4.4 1.45 L-1.75 3.75 -1.75 5.8 -5.8 5.8 -6.0 3.75 -4.4 1.45" fill="url(#gradient0)" fill-rule="evenodd" stroke="none"/>
    <path d="M2.8 5.8 L2.8 3.45 5.2 0.55 7.4 1.25 9.6 3.55 9.6 5.8 2.8 5.8" fill="url(#gradient1)" fill-rule="evenodd" stroke="none"/>
    <path d="M5.2 0.55 L3.0 -0.05 1.9 -1.95 0.05 -1.75 -3.4 -1.35 -4.1 0.95 -4.4 1.45 -6.0 3.75 -5.8 5.8 -1.75 5.8 2.8 5.8 9.6 5.8 9.6 3.55 7.4 1.25 5.2 0.55" fill="none" stroke="#0a0707" stroke-linecap="round" stroke-linejoin="round" stroke-width="1.0"/>
    <path d="M-4.4 1.45 L-1.75 3.75 -1.75 5.8 M2.8 5.8 L2.8 3.45 5.2 0.55" fill="none" stroke="#140e0e" stroke-linecap="round" stroke-linejoin="round" stroke-width="1.0"/>
  </g>
  <defs>
    <radialGradient cx="0" cy="0" gradientTransform="matrix(0.0132, 0.0, 0.0, 0.0132, 1.3, 10.7)" gradientUnits="userSpaceOnUse" id="gradient0" r="819.2" spreadMethod="pad">
      <stop offset="0.0" stop-color="#381d1d"/>
      <stop offset="0.6588235294117647" stop-color="#3e2828"/>
      <stop offset="1.0" stop-color="#774d4d"/>
    </radialGradient>
    <radialGradient cx="0" cy="0" gradientTransform="matrix(0.0144, 0.0, 0.0, 0.0144, 0.0, 10.4)" gradientUnits="userSpaceOnUse" id="gradient1" r="819.2" spreadMethod="pad">
      <stop offset="0.0" stop-color="#381d1d"/>
      <stop offset="0.6588235294117647" stop-color="#3e2828"/>
      <stop offset="1.0" stop-color="#774d4d"/>
    </radialGradient>
  </defs>
</svg>
