<?xml version="1.0" encoding="UTF-8" standalone="no"?>
<svg xmlns:ffdec="https://www.free-decompiler.com/flash" xmlns:xlink="http://www.w3.org/1999/xlink" ffdec:objectType="shape" height="46.8px" width="83.1px" xmlns="http://www.w3.org/2000/svg">
  <g transform="matrix(1.0, 0.0, 0.0, 1.0, 0.0, 0.0)">
    <path d="M60.5 35.65 Q61.9 21.05 62.05 4.2 L78.2 4.2 Q79.1 20.65 81.0 36.4 82.2 41.05 78.5 37.25 78.65 34.35 76.45 32.85 71.5 29.75 64.65 33.45 62.9 34.85 61.2 39.25 60.3 37.55 60.5 35.65 M67.55 17.1 Q70.4 19.6 73.5 17.65 74.6 12.6 76.0 7.85 71.2 9.45 64.7 7.95 66.45 12.85 67.55 17.1 M64.2 29.35 Q71.0 26.85 77.75 29.15 76.0 24.55 75.25 20.8 71.15 23.2 66.7 21.05 65.85 24.85 64.2 29.35 M7.2 5.25 L19.25 5.25 19.25 0.0 Q21.1 2.45 23.55 1.75 L23.55 5.45 Q32.1 5.7 38.6 4.2 L38.6 8.3 Q29.8 7.4 22.35 8.3 20.9 10.4 22.35 11.9 L35.0 11.9 Q35.65 14.2 37.35 15.45 28.2 13.15 19.55 15.45 19.5 18.55 16.9 20.9 29.85 21.65 43.0 20.9 41.05 22.1 40.95 23.7 35.8 23.15 30.85 23.7 L32.9 27.4 Q35.3 29.85 41.25 32.3 L41.25 35.25 Q35.85 31.2 32.9 30.4 29.5 32.75 24.8 34.35 L26.0 32.0 Q30.15 29.7 30.7 28.5 29.95 25.75 27.3 24.35 20.8 22.9 14.7 23.7 L12.1 28.5 Q14.7 30.55 18.2 32.4 L14.0 32.4 Q13.3 30.6 9.3 29.35 7.0 30.3 6.2 32.0 4.45 31.6 2.35 32.6 7.8 28.65 11.1 23.7 L0.0 23.7 Q1.9 22.25 2.2 20.8 7.85 21.4 13.15 20.6 16.9 18.1 17.05 15.45 L5.25 15.45 Q6.85 13.9 6.95 11.85 12.75 12.35 18.15 11.85 19.25 10.1 18.6 8.3 L3.65 8.3 Q3.45 6.25 7.2 5.25 M48.65 1.7 Q49.7 3.75 52.15 4.0 50.95 8.8 52.15 13.4 52.9 14.85 55.15 14.7 L56.25 17.25 52.0 17.25 Q51.65 25.95 52.05 30.15 52.4 34.3 54.6 33.9 57.45 33.7 57.65 31.6 58.85 34.1 57.65 36.15 50.25 36.7 44.1 40.35 41.8 38.35 44.7 36.95 47.7 36.5 49.05 34.9 49.55 26.1 48.4 17.15 47.7 15.75 44.25 16.3 42.1 15.0 43.4 12.2 47.55 13.95 48.65 13.15 50.15 7.75 48.65 1.7 M56.0 44.45 Q59.25 42.85 58.35 41.25 70.75 39.95 80.15 41.25 82.8 41.95 83.1 44.45 69.7 42.65 56.0 44.45 M24.9 37.0 Q26.8 37.0 27.6 35.9 32.35 39.2 34.55 39.6 L36.75 42.9 24.9 37.0 M20.35 25.95 Q20.95 25.45 22.25 26.5 23.35 36.5 21.55 45.6 16.8 47.85 11.15 45.95 13.2 45.05 13.65 44.0 16.95 44.45 19.5 42.5 20.0 41.6 20.65 37.4 21.25 33.2 20.35 25.95 M17.7 34.95 L15.9 38.35 Q13.4 40.25 5.2 43.0 7.0 41.4 6.75 39.65 12.8 38.4 17.7 34.95" fill="#ffff99" fill-rule="evenodd" stroke="none"/>
  </g>
</svg>
