<?xml version="1.0" encoding="UTF-8" standalone="no"?>
<svg xmlns:ffdec="https://www.free-decompiler.com/flash" xmlns:xlink="http://www.w3.org/1999/xlink" ffdec:objectType="shape" height="19.9px" width="11.45px" xmlns="http://www.w3.org/2000/svg">
  <g transform="matrix(1.0, 0.0, 0.0, 1.0, 2.2, 1.7)">
    <path d="M3.35 1.35 L3.35 8.95 4.2 13.2 4.1 17.7 4.2 13.2 3.35 8.95 3.35 1.35 M-0.75 6.9 L-0.75 6.85 -1.15 4.35 Q-1.35 2.2 0.0 0.6 1.3 -1.0 3.5 -1.2 5.7 -1.4 6.85 0.4 7.95 2.2 8.05 4.35 L8.05 6.75 4.85 8.4 6.1 10.3 Q5.2 13.9 6.8 16.05 L5.95 16.95 Q5.05 17.6 4.1 17.7 L3.6 17.7 Q2.7 17.6 1.8 16.95 L0.95 16.25 1.9 14.1 Q2.65 14.1 1.95 10.8 2.45 9.6 -0.75 6.9 M2.75 1.4 L2.75 8.85 3.5 12.85 3.6 17.7 3.5 12.85 2.75 8.85 2.75 1.4" fill="#222222" fill-rule="evenodd" stroke="none"/>
    <path d="M-0.75 6.9 Q2.45 9.6 1.95 10.8 2.65 14.1 1.9 14.1 L0.95 16.25 Q-0.1 15.2 -0.8 13.55 L-1.7 10.0 -0.8 8.8 Q-1.05 7.95 -0.75 6.9 M8.05 6.75 L8.0 7.2 7.6 10.0 8.15 12.7 6.8 16.05 Q5.2 13.9 6.1 10.3 L4.85 8.4 8.05 6.75" fill="#171717" fill-rule="evenodd" stroke="none"/>
    <path d="M4.1 17.7 L4.2 13.2 3.35 8.95 3.35 1.35 M3.6 17.7 L3.5 12.85 2.75 8.85 2.75 1.4" fill="none" stroke="#440000" stroke-linecap="round" stroke-linejoin="round" stroke-width="1.0"/>
    <path d="M8.05 6.75 L8.05 4.35 Q7.95 2.2 6.85 0.4 5.7 -1.4 3.5 -1.2 1.3 -1.0 0.0 0.6 -1.35 2.2 -1.15 4.35 L-0.75 6.85 -0.75 6.9 Q-1.05 7.95 -0.8 8.8 L-1.7 10.0 -0.8 13.55 Q-0.1 15.2 0.95 16.25 L1.8 16.95 Q2.7 17.6 3.6 17.7 L4.1 17.7 Q5.05 17.6 5.95 16.95 L6.8 16.05 8.15 12.7 7.6 10.0 8.0 7.2 8.05 6.75 Z" fill="none" stroke="#0b0b0b" stroke-linecap="round" stroke-linejoin="round" stroke-width="1.0"/>
    <path d="M5.6 0.35 L7.35 0.8 7.35 2.7 7.35 5.7 7.35 2.7 8.75 3.6 8.05 6.35 7.0 6.35 7.35 5.7 Q6.3 5.25 5.1 5.1 L5.1 5.05 5.05 5.05 5.05 5.1 4.55 5.05 4.5 4.9 4.55 4.8 4.6 4.75 4.65 4.65 4.65 4.6 4.7 4.6 4.75 4.55 4.8 4.45 4.75 4.4 4.85 4.3 4.85 4.4 4.9 4.35 4.95 4.3 5.05 4.3 5.1 4.25 5.2 4.25 5.25 4.25 5.3 4.15 5.3 4.1 5.2 4.0 5.2 3.95 5.05 3.9 4.95 3.55 4.85 3.4 4.7 3.35 4.6 3.3 4.4 3.25 4.2 3.25 4.1 3.2 4.0 3.15 3.9 3.15 3.8 3.15 3.75 3.25 3.65 3.2 3.55 3.15 3.5 3.2 3.2 3.35 3.1 3.35 3.0 3.4 2.95 3.45 2.85 3.55 2.75 3.65 2.55 3.85 2.5 4.0 2.45 4.05 2.45 4.15 2.45 4.2 2.55 4.25 2.7 4.3 2.9 4.4 3.0 4.35 3.0 4.45 3.1 4.5 3.15 4.5 3.2 4.5 3.25 4.7 3.25 4.9 3.25 5.0 1.2 5.25 0.0 5.5 0.0 2.55 0.0 5.5 0.5 6.2 -0.95 6.2 -1.5 3.6 0.0 2.55 0.0 0.8 1.8 0.4 1.8 1.45 5.6 1.45 5.6 0.35 M3.9 5.0 L3.95 4.9 3.95 4.75 3.9 4.6 3.8 4.5 3.85 4.1 3.9 3.95 3.85 3.8 3.9 3.7 3.85 3.45 3.85 3.3 3.9 3.35 4.05 3.35 4.05 3.4 4.0 3.6 4.05 3.65 4.1 3.65 4.1 3.75 4.05 3.8 4.0 3.85 3.95 3.85 Q3.8 4.15 3.95 4.45 L4.05 4.6 4.05 4.75 4.0 4.95 3.95 5.0 3.9 5.0" fill="#363636" fill-rule="evenodd" stroke="none"/>
    <path d="M0.0 5.5 L1.2 5.25 3.25 5.0 3.2 5.05 3.2 5.1 3.2 5.3 3.15 5.6 3.15 5.9 3.2 6.0 3.25 6.15 3.2 6.4 3.15 6.3 3.1 6.4 3.1 6.5 3.1 6.55 3.15 6.6 3.15 6.7 3.25 6.75 3.4 7.0 3.35 7.05 3.35 7.15 3.4 7.2 3.45 7.3 3.6 7.6 3.5 6.55 3.45 6.45 3.45 6.35 3.55 6.25 3.55 6.15 3.6 6.05 3.6 5.9 3.75 5.65 3.85 5.6 3.85 5.3 3.85 5.05 3.9 5.0 3.95 5.0 3.95 5.05 3.9 5.15 3.95 5.35 3.95 5.6 4.0 5.7 4.1 5.75 4.1 5.7 4.2 5.8 4.2 5.85 4.15 5.9 4.25 5.95 4.25 6.0 4.25 6.1 4.25 6.2 4.3 6.35 4.3 6.45 4.25 6.6 4.3 6.85 4.2 7.3 4.2 7.65 4.25 7.5 4.3 7.35 4.4 7.3 4.45 7.05 4.45 6.95 4.5 6.8 4.55 6.75 4.55 6.65 4.45 6.75 4.4 6.75 4.4 6.6 4.45 6.55 4.55 6.4 4.55 6.35 4.55 6.2 4.5 6.15 4.7 5.75 4.7 5.7 4.6 5.5 4.55 5.3 4.55 5.1 4.55 5.05 5.05 5.1 5.0 5.1 4.95 5.15 4.95 5.25 4.95 5.35 4.85 5.4 4.85 5.5 4.85 5.6 4.9 5.6 4.95 5.65 5.0 5.55 5.05 5.5 5.15 5.4 5.1 5.35 5.1 5.25 5.1 5.2 5.1 5.1 Q6.3 5.25 7.35 5.7 L7.0 6.35 6.65 7.0 6.1 8.5 1.5 8.5 1.0 6.9 0.5 6.2 0.0 5.5 M3.1 5.75 L3.05 5.7 2.95 5.7 2.8 5.7 2.75 5.7 2.75 5.8 2.8 5.9 2.85 6.0 2.9 6.05 3.0 6.15 3.1 6.15 3.15 6.2 3.15 6.05 3.1 5.8 3.1 5.75 M4.7 5.75 L4.7 5.9 4.65 6.0 4.6 6.2 4.6 6.35 4.65 6.35 4.65 6.3 4.7 6.25 4.75 6.15 4.8 6.1 4.8 6.0 4.9 5.95 4.95 5.8 4.95 5.7 4.9 5.65 4.8 5.65 4.7 5.75 M3.2 6.45 L3.3 6.5 3.3 6.6 3.35 6.7 3.35 6.75 3.3 6.65 3.25 6.6 3.2 6.55 3.2 6.45" fill="#232323" fill-rule="evenodd" stroke="none"/>
    <path d="M3.25 5.0 L3.25 4.9 3.25 4.7 3.2 4.5 3.15 4.5 3.1 4.5 3.0 4.45 3.0 4.35 2.9 4.4 2.7 4.3 2.55 4.25 2.45 4.2 2.45 4.15 2.45 4.05 2.5 4.0 2.55 3.85 2.75 3.65 2.85 3.55 2.95 3.45 3.0 3.4 3.1 3.35 3.2 3.35 3.5 3.2 3.55 3.15 3.65 3.2 3.75 3.25 3.8 3.15 3.9 3.15 4.0 3.15 4.1 3.2 4.2 3.25 4.4 3.25 4.6 3.3 4.7 3.35 4.85 3.4 4.95 3.55 5.05 3.9 5.2 3.95 5.2 4.0 5.3 4.1 5.3 4.15 5.25 4.25 5.2 4.25 5.1 4.25 5.05 4.3 4.95 4.3 4.9 4.35 4.85 4.4 4.85 4.3 4.75 4.4 4.8 4.45 4.75 4.55 4.7 4.6 4.65 4.6 4.65 4.65 4.6 4.75 4.55 4.8 4.5 4.9 4.55 5.05 4.55 5.1 3.95 5.05 3.95 5.0 4.0 4.95 4.05 4.75 4.05 4.6 3.95 4.45 Q3.8 4.15 3.95 3.85 L4.0 3.85 4.05 3.8 4.1 3.75 4.1 3.65 4.05 3.65 4.0 3.6 4.05 3.4 4.05 3.35 3.9 3.35 3.85 3.3 3.85 3.45 3.9 3.7 3.85 3.8 3.9 3.95 3.85 4.1 3.8 4.5 3.9 4.6 3.95 4.75 3.95 4.9 3.9 5.0 3.85 5.05 3.2 5.05 3.25 5.0 M5.05 5.1 L5.05 5.05 5.1 5.05 5.1 5.1 5.1 5.2 4.95 5.15 5.0 5.1 5.05 5.1" fill="#440000" fill-rule="evenodd" stroke="none"/>
    <path d="M5.1 5.2 L5.1 5.25 5.1 5.35 5.15 5.4 5.05 5.5 5.0 5.55 4.95 5.65 4.9 5.6 4.85 5.6 4.85 5.5 4.85 5.4 4.95 5.35 4.95 5.25 4.95 5.15 5.1 5.2 M3.95 5.05 L4.55 5.1 4.55 5.3 4.6 5.5 4.7 5.7 4.7 5.75 4.5 6.15 4.55 6.2 4.55 6.35 4.55 6.4 4.45 6.55 4.4 6.6 4.4 6.75 4.45 6.75 4.55 6.65 4.55 6.75 4.5 6.8 4.45 6.95 4.45 7.05 4.4 7.3 4.3 7.35 4.25 7.5 4.2 7.65 4.2 7.3 4.3 6.85 4.25 6.6 4.3 6.45 4.3 6.35 4.25 6.2 4.25 6.1 4.25 6.0 4.25 5.95 4.15 5.9 4.2 5.85 4.2 5.8 4.1 5.7 4.1 5.75 4.0 5.7 3.95 5.6 3.95 5.35 3.9 5.15 3.95 5.05 M3.2 5.05 L3.85 5.05 3.85 5.3 3.85 5.6 3.75 5.65 3.6 5.9 3.6 6.05 3.55 6.15 3.55 6.25 3.45 6.35 3.45 6.45 3.5 6.55 3.6 7.6 3.45 7.3 3.4 7.2 3.35 7.15 3.35 7.05 3.4 7.0 3.25 6.75 3.15 6.7 3.15 6.6 3.1 6.55 3.1 6.5 3.1 6.4 3.15 6.3 3.2 6.4 3.25 6.15 3.2 6.0 3.15 5.9 3.15 5.6 3.2 5.3 3.2 5.1 3.2 5.05 M3.2 6.45 L3.2 6.55 3.25 6.6 3.3 6.65 3.35 6.75 3.35 6.7 3.3 6.6 3.3 6.5 3.2 6.45 M4.7 5.75 L4.8 5.65 4.9 5.65 4.95 5.7 4.95 5.8 4.9 5.95 4.8 6.0 4.8 6.1 4.75 6.15 4.7 6.25 4.65 6.3 4.65 6.35 4.6 6.35 4.6 6.2 4.65 6.0 4.7 5.9 4.7 5.75 M3.1 5.75 L3.1 5.8 3.15 6.05 3.15 6.2 3.1 6.15 3.0 6.15 2.9 6.05 2.85 6.0 2.8 5.9 2.75 5.8 2.75 5.7 2.8 5.7 2.95 5.7 3.05 5.7 3.1 5.75" fill="#2e0000" fill-rule="evenodd" stroke="none"/>
    <path d="M5.6 0.35 L5.6 1.45 1.8 1.45 1.8 0.4 Q3.65 -0.45 5.6 0.35" fill="#ff3333" fill-rule="evenodd" stroke="none"/>
    <path d="M7.35 2.7 L8.75 3.6 8.05 6.35 7.0 6.35 6.65 7.0 6.1 8.5 1.5 8.5 1.0 6.9 0.5 6.2 -0.95 6.2 -1.5 3.6 0.0 2.55" fill="none" stroke="#111111" stroke-linecap="round" stroke-linejoin="round" stroke-width="1.0"/>
    <path d="M7.35 2.7 L7.35 0.8 5.6 0.35 M1.8 0.4 L0.0 0.8 0.0 2.55 0.0 5.5 0.5 6.2 M7.35 5.7 L7.35 2.7 M7.0 6.35 L7.35 5.7" fill="none" stroke="#171717" stroke-linecap="round" stroke-linejoin="round" stroke-width="1.0"/>
    <path d="M5.6 0.35 L5.6 1.45 1.8 1.45 1.8 0.4 Q3.65 -0.45 5.6 0.35 Z" fill="none" stroke="#580000" stroke-linecap="round" stroke-linejoin="round" stroke-width="1.0"/>
  </g>
</svg>
