<?xml version="1.0" encoding="UTF-8" standalone="no"?>
<svg xmlns:ffdec="https://www.free-decompiler.com/flash" xmlns:xlink="http://www.w3.org/1999/xlink" ffdec:objectType="shape" height="21.3px" width="16.1px" xmlns="http://www.w3.org/2000/svg">
  <g transform="matrix(1.0, 0.0, 0.0, 1.0, 5.95, 0.9)">
    <path d="M1.15 0.9 Q3.15 3.75 6.9 11.2 L6.5 11.15 Q5.6 10.95 5.35 11.7 4.5 11.85 1.55 6.65 -0.9 2.25 -0.65 3.7 L-1.5 3.3 -0.7 3.2 Q1.2 2.8 1.15 0.9" fill="#687d84" fill-rule="evenodd" stroke="none"/>
    <path d="M6.6 13.25 Q8.7 13.65 9.2 15.25 9.6 16.6 8.85 18.1 8.1 19.5 7.15 19.6 6.0 19.65 5.5 17.55 5.35 15.7 5.7 14.85 L6.6 13.25" fill="#462525" fill-rule="evenodd" stroke="none"/>
    <path d="M-3.8 3.05 L-1.95 8.25 -3.0 8.9 Q-4.95 8.25 -5.4 6.0 -5.8 3.75 -4.6 2.05 L-3.8 3.05" fill="#452828" fill-rule="evenodd" stroke="none"/>
    <path d="M3.0 1.6 L-0.15 3.8 Q0.75 4.7 3.65 9.1 5.4 11.8 7.6 11.6 L8.1 13.15 6.05 15.0 4.65 16.0 Q3.95 16.05 3.2 14.95 2.25 13.9 0.55 13.8 L-0.45 10.5 Q-1.8 8.9 -2.95 6.25 L-4.8 1.7 Q-3.9 1.7 -3.35 1.2 L-2.4 -0.15 Q-1.05 -0.15 0.35 0.4 L3.0 1.6" fill="#291818" fill-rule="evenodd" stroke="none"/>
    <path d="M5.5 11.5 Q2.75 9.1 -0.2 2.85 1.45 1.95 3.55 1.8 L4.25 2.9 5.6 3.7 6.25 7.45 7.9 11.25 5.5 11.5" fill="#853a3a" fill-opacity="0.61960787" fill-rule="evenodd" stroke="none"/>
    <path d="M1.8 1.75 L-0.5 3.75 2.4 6.5 3.45 9.55 Q3.95 10.8 5.6 11.65 L5.8 11.5 6.65 11.4 7.55 11.55 Q8.5 12.4 8.4 13.35 10.05 15.55 9.15 17.95 L8.55 18.5 8.45 18.7 8.0 19.85 Q7.7 20.05 6.1 19.2 L5.6 17.6 4.95 16.7 3.95 15.6 2.9 14.25 Q0.9 15.05 0.0 13.1 -0.9 11.25 0.05 10.95 L-1.65 8.6 Q-1.85 8.35 -1.8 8.7 -1.75 9.2 -2.05 9.2 -4.6 8.5 -5.15 6.3 -5.7 4.2 -4.4 1.7 L-3.6 3.05 Q-4.15 4.75 -3.7 5.85 -3.35 6.65 -1.8 8.4 L-3.65 5.8 1.8 1.75 3.35 1.55 1.2 0.6 Q0.95 0.35 0.5 0.25 L-1.05 -0.25 -1.9 -0.3 -2.85 -0.1 Q-2.4 0.7 -3.7 1.95 M0.55 10.65 Q2.55 10.2 3.25 11.65 3.9 13.05 3.15 14.0 L5.6 11.65 M8.4 13.35 Q6.75 13.65 6.2 14.05 5.05 14.8 5.25 16.45 L5.6 17.2 6.45 18.2 7.7 18.55 8.45 18.7" fill="none" stroke="#140e0e" stroke-linecap="round" stroke-linejoin="round" stroke-width="1.0"/>
    <path d="M3.4 1.65 L3.95 2.8 Q4.0 2.95 4.75 3.15 L5.5 3.75 6.0 6.4 6.0 6.85 Q7.85 11.05 7.65 11.45 L7.2 10.2 6.25 7.75 Q6.0 7.3 5.05 6.8 4.2 6.4 3.7 6.3 3.25 6.2 2.9 6.55 L2.45 6.75" fill="none" stroke="#090909" stroke-linecap="round" stroke-linejoin="round" stroke-opacity="0.53333336" stroke-width="1.0"/>
    <path d="M6.45 19.2 L6.4 19.15 4.85 16.65 3.5 15.05 2.95 14.3 Q1.3 15.05 0.55 13.95 -0.2 12.85 -0.35 12.15 L-0.25 11.15 -0.1 10.75 -1.5 8.85 -2.4 9.0 Q-3.55 8.95 -4.4 7.8 -5.25 6.55 -5.4 5.65 -5.6 4.9 -5.15 3.0 L-4.6 1.9 Q-3.0 1.0 -2.05 -0.15 -1.3 -0.55 1.95 0.75 2.55 0.9 3.5 2.0 L4.15 3.0 5.45 3.8 6.15 7.25 8.6 13.3 9.2 14.5 9.65 16.0 9.4 17.45 8.95 18.4 Q8.45 19.8 8.1 19.85 L7.95 19.8 6.5 19.25 6.4 19.25 6.45 19.2 6.5 18.9 7.8 19.35 7.85 19.6 7.95 19.8 M6.45 19.2 L6.5 19.25" fill="none" stroke="#000000" stroke-linecap="round" stroke-linejoin="round" stroke-opacity="0.4509804" stroke-width="1.0"/>
    <path d="M5.65 10.35 L5.95 10.35 M0.4 9.9 L1.05 9.6 M5.05 8.6 L5.55 8.65 M-0.75 8.15 L0.35 7.85 M2.7 3.75 L3.55 3.9" fill="none" stroke="#f7a08e" stroke-linecap="round" stroke-linejoin="miter-clip" stroke-miterlimit="4.0" stroke-width="1.0"/>
  </g>
</svg>
