<?xml version="1.0" encoding="UTF-8" standalone="no"?>
<svg xmlns:ffdec="https://www.free-decompiler.com/flash" xmlns:xlink="http://www.w3.org/1999/xlink" ffdec:objectType="shape" height="20.45px" width="17.1px" xmlns="http://www.w3.org/2000/svg">
  <g transform="matrix(1.0, 0.0, 0.0, 1.0, 6.95, 0.0)">
    <path d="M-1.35 4.4 L-3.7 7.35 Q-4.45 7.7 -5.2 6.1 L-5.8 4.95 Q-6.5 3.35 -6.35 2.4 L-5.9 1.15 -5.55 0.85 -4.0 0.5 -2.3 0.5 -2.25 1.45 -1.9 3.4 -1.35 4.4" fill="url(#gradient0)" fill-rule="evenodd" stroke="none"/>
    <path d="M-1.35 4.4 L-3.7 7.35 Q-4.45 7.7 -5.2 6.1 L-5.8 4.95 Q-6.5 3.35 -6.35 2.4 L-5.9 1.15 -5.55 0.85 -4.0 0.5 -2.3 0.5 -2.25 1.45 -1.9 3.4 -1.35 4.4 Z" fill="none" stroke="#381c0f" stroke-linecap="round" stroke-linejoin="round" stroke-width="1.0"/>
    <path d="M-1.65 4.95 L-1.0 4.75 -0.2 6.1 -0.35 7.65 Q-0.3 8.35 -1.1 8.5 L-1.8 8.2 Q-2.25 8.15 -2.6 7.75 L-3.2 6.75 -1.65 4.95" fill="#b6b6b6" fill-rule="evenodd" stroke="none"/>
    <path d="M-1.65 4.95 L-3.2 6.75 -2.6 7.75 Q-2.25 8.15 -1.8 8.2 L-1.1 8.5 Q-0.3 8.35 -0.35 7.65 L-0.2 6.1 -1.0 4.75 -1.65 4.95 Z" fill="none" stroke="#2e1b2e" stroke-linecap="round" stroke-linejoin="round" stroke-width="1.0"/>
    <path d="M-5.6 3.9 L-4.25 3.4" fill="none" stroke="#f5c69c" stroke-linecap="round" stroke-linejoin="round" stroke-width="1.0"/>
    <path d="M2.95 5.1 L2.95 4.5 3.35 5.25 4.3 7.35 5.8 11.55 6.65 12.85 8.05 15.2 Q8.8 16.75 8.4 18.35 7.95 20.2 5.9 19.05 3.95 17.9 3.15 16.05 L2.65 14.35 Q-1.7 8.35 -2.5 6.0 -3.0 4.5 -2.45 4.75 -2.2 4.8 -1.8 5.15 L-0.55 5.25 1.2 5.15 2.25 4.05 Q2.9 3.45 2.9 4.05 L2.95 5.1" fill="#302c2b" fill-rule="evenodd" stroke="none"/>
    <path d="M2.95 5.1 L2.95 4.5 3.35 5.25 4.3 7.35 5.8 11.55 6.65 12.85 8.05 15.2 Q8.8 16.75 8.4 18.35 7.95 20.2 5.9 19.05 3.95 17.9 3.15 16.05 L2.65 14.35 Q-1.7 8.35 -2.5 6.0 -3.0 4.5 -2.45 4.75 -2.2 4.8 -1.8 5.15 L-0.55 5.25 1.2 5.15 2.25 4.05 Q2.9 3.45 2.9 4.05 L2.95 5.1 Z" fill="none" stroke="#110f0d" stroke-linecap="butt" stroke-linejoin="miter-clip" stroke-miterlimit="4.0" stroke-width="1.0"/>
    <path d="M-1.8 4.3 L-0.45 4.35 Q0.75 4.25 1.8 3.7 3.1 3.05 3.15 2.2 L3.95 3.8 5.7 6.3 7.05 12.55 8.9 15.8 Q8.7 16.75 8.1 17.2 L7.1 17.8 Q5.4 17.95 4.4 17.15 3.7 16.65 2.95 15.3 L1.0 15.25 1.1 14.0 0.1 13.35 -4.2 7.95 -5.1 6.2 -4.45 5.15 -3.95 4.8 -3.5 4.45 -1.8 4.3" fill="#683722" fill-rule="evenodd" stroke="none"/>
    <path d="M-1.8 4.3 L-3.5 4.45 -3.95 4.8 -4.45 5.15 -5.1 6.2 -4.2 7.95 0.1 13.35 1.1 14.0 1.0 15.25 2.95 15.3 Q3.7 16.65 4.4 17.15 5.4 17.95 7.1 17.8 L8.1 17.2 Q8.7 16.75 8.9 15.8 L7.05 12.55 5.7 6.3 3.95 3.8 3.15 2.2 Q3.1 3.05 1.8 3.7 0.75 4.25 -0.45 4.35 L-1.8 4.3 Z" fill="none" stroke="#381c0f" stroke-linecap="round" stroke-linejoin="round" stroke-width="1.0"/>
    <path d="M7.25 13.0 L3.55 14.45 1.55 13.9" fill="none" stroke="#492514" stroke-linecap="round" stroke-linejoin="round" stroke-width="1.0"/>
    <path d="M1.55 14.45 L3.65 15.0 7.15 13.65 8.75 15.65 7.1 17.8 3.75 17.65 1.5 15.2 1.55 14.45" fill="#2e1b2e" fill-opacity="0.43529412" fill-rule="evenodd" stroke="none"/>
    <path d="M3.05 1.4 L3.25 1.35 3.8 1.45 5.65 2.7 5.75 3.05 5.8 3.05 6.85 7.1 6.6 7.8 8.1 11.35 8.95 11.55 9.5 12.95 7.0 15.1 4.55 14.45 4.5 10.05 3.6 6.55 2.15 4.5 3.35 2.55 3.05 1.4" fill="#98e2f4" fill-opacity="0.4745098" fill-rule="evenodd" stroke="none"/>
    <path d="M4.5 10.05 L3.6 6.55 2.15 4.5 3.35 2.55 3.05 1.4 3.25 1.35 3.8 1.45 5.65 2.7 5.75 3.05 5.8 3.05 6.85 7.1 6.6 7.8 8.1 11.35 8.95 11.55 9.5 12.95 7.0 15.1 4.55 14.45 4.5 10.05 4.65 10.0 5.9 9.45 6.5 8.0 6.6 7.8 M5.75 3.05 L3.6 2.95 5.75 3.1 5.75 3.05 M6.5 8.0 L6.0 9.35 6.25 9.3 4.65 10.0" fill="none" stroke="#2e1b1b" stroke-linecap="round" stroke-linejoin="miter-clip" stroke-miterlimit="4.0" stroke-opacity="0.68235296" stroke-width="1.0"/>
    <path d="M5.6 5.15 L5.3 6.1" fill="none" stroke="#f5c69c" stroke-linecap="round" stroke-linejoin="round" stroke-width="1.0"/>
    <path d="M4.2 3.5 L3.9 4.45" fill="none" stroke="#f5c69c" stroke-linecap="round" stroke-linejoin="round" stroke-width="1.0"/>
    <path d="M7.75 11.0 L6.75 12.65" fill="none" stroke="#f5c69c" stroke-linecap="round" stroke-linejoin="round" stroke-width="1.0"/>
    <path d="M2.05 9.8 L2.65 12.05 2.75 13.8 0.2 14.15 Q0.45 13.95 -0.85 12.4 -3.55 9.15 -3.8 7.95 L-3.2 6.75 Q-2.6 5.8 -2.75 5.05 L-2.95 3.25 -2.95 2.8 -1.7 2.45 -0.55 3.95 Q0.7 5.55 1.0 6.55 L2.05 9.8" fill="url(#gradient1)" fill-rule="evenodd" stroke="none"/>
    <path d="M2.05 9.8 L2.65 12.05 2.75 13.8 0.2 14.15 Q0.45 13.95 -0.85 12.4 -3.55 9.15 -3.8 7.95 L-3.2 6.75 Q-2.6 5.8 -2.75 5.05 L-2.95 3.25 -2.95 2.8 -1.7 2.45 -0.55 3.95 Q0.7 5.55 1.0 6.55 L2.05 9.8 Z" fill="none" stroke="#381c0f" stroke-linecap="round" stroke-linejoin="round" stroke-width="1.0"/>
    <path d="M2.55 0.7 L5.4 2.2 6.35 3.7 7.0 7.45 7.15 8.9 8.15 11.0 9.35 11.95 9.65 12.7 8.1 14.15 8.85 15.65 8.6 17.3 8.2 19.1 6.85 19.65 Q7.5 20.25 6.2 19.45 5.1 18.8 4.75 18.15 L3.15 15.1 0.8 14.7 -0.35 13.2 -3.5 8.8 -4.75 6.55 -5.9 4.65 Q-6.55 3.45 -6.45 2.8 L-6.0 1.5 -5.7 0.95" fill="none" stroke="#000000" stroke-linecap="round" stroke-linejoin="round" stroke-opacity="0.56078434" stroke-width="1.0"/>
  </g>
  <defs>
    <linearGradient gradientTransform="matrix(0.0055, 0.0, 0.0, 0.0042, -3.9, 3.95)" gradientUnits="userSpaceOnUse" id="gradient0" spreadMethod="pad" x1="-819.2" x2="819.2">
      <stop offset="0.0" stop-color="#3c0c00"/>
      <stop offset="1.0" stop-color="#934f41"/>
    </linearGradient>
    <linearGradient gradientTransform="matrix(0.0068, 0.0, 0.0, 0.0071, -0.55, 8.3)" gradientUnits="userSpaceOnUse" id="gradient1" spreadMethod="pad" x1="-819.2" x2="819.2">
      <stop offset="0.0" stop-color="#3c0c00"/>
      <stop offset="1.0" stop-color="#934f41"/>
    </linearGradient>
  </defs>
</svg>
