<?xml version="1.0" encoding="UTF-8" standalone="no"?>
<svg xmlns:ffdec="https://www.free-decompiler.com/flash" xmlns:xlink="http://www.w3.org/1999/xlink" ffdec:objectType="shape" height="23.4px" width="13.35px" xmlns="http://www.w3.org/2000/svg">
  <g transform="matrix(1.0, 0.0, 0.0, 1.0, 7.75, 6.35)">
    <path d="M-1.9 10.5 L-2.95 14.7 Q-3.55 17.05 -5.05 16.55 -6.6 16.0 -6.95 13.85 -7.35 11.7 -6.7 9.9 -6.6 6.95 -6.15 5.8 L-4.6 2.25 -3.4 0.7 Q-1.15 -0.35 -0.65 -0.25 0.45 0.0 0.75 2.7 0.65 3.15 0.7 4.0 L0.7 5.05 -1.05 7.95 -1.9 10.5" fill="#2a2b33" fill-rule="evenodd" stroke="none"/>
    <path d="M-1.9 10.5 L-2.9 15.0 Q-3.3 17.25 -5.2 16.3 -7.15 15.3 -7.25 13.8 -7.35 12.3 -7.05 9.7 -6.85 7.0 -6.05 5.6 L-4.6 2.25 -3.4 0.7 Q-1.15 -0.35 -0.65 -0.25 0.45 0.0 0.75 2.7 0.65 3.15 0.7 4.0 L0.7 5.05 -1.05 7.95 -1.9 10.5 Z" ffdec:has-small-stroke="true" ffdec:original-stroke-width="0.95" fill="none" stroke="#111216" stroke-linecap="round" stroke-linejoin="round" stroke-width="1.0"/>
    <path d="M-0.15 4.35 Q-2.4 5.75 -3.25 4.05 L-3.85 1.45 Q-4.9 -0.2 -4.75 -1.55 -4.7 -2.45 -3.55 -3.5 -2.3 -4.7 -1.1 -4.9 0.6 -5.15 2.7 -3.95 L3.8 -2.75 Q4.85 -1.4 4.9 -0.35 4.9 1.45 3.75 2.5 L2.1 3.0 Q0.35 3.6 -0.15 4.35" fill="url(#gradient0)" fill-rule="evenodd" stroke="none"/>
    <path d="M-0.15 4.35 Q-2.4 5.75 -3.25 4.05 L-3.85 1.45 Q-4.9 -0.2 -4.75 -1.55 -4.7 -2.45 -3.55 -3.5 -2.3 -4.7 -1.1 -4.9 0.6 -5.15 2.7 -3.95 L3.8 -2.75 Q4.85 -1.4 4.9 -0.35 4.9 1.45 3.75 2.5 L2.1 3.0 Q0.35 3.6 -0.15 4.35 Z" ffdec:has-small-stroke="true" ffdec:original-stroke-width="0.95" fill="none" stroke="#5e4525" stroke-linecap="butt" stroke-linejoin="miter-clip" stroke-miterlimit="11.33984375" stroke-width="1.0"/>
    <path d="M-1.1 1.65 Q-3.2 0.9 -3.65 3.65 -4.45 3.35 -4.85 1.75 -5.2 0.25 -4.85 -1.2 L-1.05 -1.3 Q2.55 -0.45 3.45 2.85 3.15 4.1 1.5 4.8 L-0.75 4.9 Q0.95 2.45 -1.1 1.65" fill="url(#gradient1)" fill-rule="evenodd" stroke="none"/>
    <path d="M-1.1 1.65 Q-3.2 0.9 -3.65 3.65 -4.45 3.35 -4.85 1.75 -5.2 0.25 -4.85 -1.2 L-1.05 -1.3 Q2.55 -0.45 3.45 2.85 3.15 4.1 1.5 4.8 L-0.75 4.9 Q0.95 2.45 -1.1 1.65 Z" ffdec:has-small-stroke="true" ffdec:original-stroke-width="0.95" fill="none" stroke="#2e3033" stroke-linecap="butt" stroke-linejoin="miter-clip" stroke-miterlimit="11.33984375" stroke-width="1.0"/>
    <path d="M-4.75 3.05 L-4.4 2.8 Q-5.05 1.9 -5.1 0.65 L-4.65 -1.5 -4.15 -3.05 Q-3.85 -3.6 -2.0 -4.6 L-0.65 -4.95 0.65 -4.9 Q1.95 -4.8 3.55 -3.2 L4.6 -1.75 Q5.25 -0.55 5.15 -0.2 4.55 1.7 4.05 2.25 L3.45 3.25 2.5 4.35 Q1.65 5.0 0.6 5.05 L0.6 5.55" ffdec:has-small-stroke="true" ffdec:original-stroke-width="0.95" fill="none" stroke="#010100" stroke-linecap="round" stroke-linejoin="round" stroke-opacity="0.19215687" stroke-width="1.0"/>
  </g>
  <defs>
    <linearGradient gradientTransform="matrix(0.0197, 0.0039, -0.0039, 0.0197, -3.9, -1.25)" gradientUnits="userSpaceOnUse" id="gradient0" spreadMethod="pad" x1="-819.2" x2="819.2">
      <stop offset="0.0" stop-color="#8e3a0e"/>
      <stop offset="1.0" stop-color="#dbb531"/>
    </linearGradient>
    <radialGradient cx="0" cy="0" gradientTransform="matrix(0.0159, 0.0073, -0.008, 0.0174, -0.45, 0.25)" gradientUnits="userSpaceOnUse" id="gradient1" r="819.2" spreadMethod="pad">
      <stop offset="0.0" stop-color="#676b72"/>
      <stop offset="1.0" stop-color="#dbdce1"/>
    </radialGradient>
  </defs>
</svg>
