<?xml version="1.0" encoding="UTF-8" standalone="no"?>
<svg xmlns:ffdec="https://www.free-decompiler.com/flash" xmlns:xlink="http://www.w3.org/1999/xlink" ffdec:objectType="shape" height="23.35px" width="21.25px" xmlns="http://www.w3.org/2000/svg">
  <g transform="matrix(1.0, 0.0, 0.0, 1.0, 0.5, 0.5)">
    <path d="M13.15 1.4 Q18.7 5.25 19.1 10.35 L18.5 11.55 Q17.6 13.05 16.55 13.75 15.1 14.65 10.7 14.7 L8.15 14.4 Q5.25 13.65 2.8 11.15 -2.35 5.4 2.05 0.0 L13.15 1.4" fill="url(#gradient0)" fill-rule="evenodd" stroke="none"/>
    <path d="M8.2 16.2 Q8.05 15.75 8.7 15.95 L12.0 16.2 Q15.3 16.3 18.0 14.8 20.85 18.4 20.1 19.55 L18.35 22.15 16.9 22.35 Q13.4 22.55 11.45 20.65 8.85 18.15 8.2 16.2" fill="url(#gradient1)" fill-rule="evenodd" stroke="none"/>
    <path d="M13.15 1.4 Q18.7 5.25 19.1 10.35 L18.5 11.55 Q17.6 13.05 16.55 13.75 15.1 14.65 10.7 14.7 L8.15 14.4 Q5.25 13.65 2.8 11.15 -2.35 5.4 2.05 0.0 L13.15 1.4 M8.2 16.2 Q8.05 15.75 8.7 15.95 L12.0 16.2 Q15.3 16.3 18.0 14.8 20.85 18.4 20.1 19.55 L18.35 22.15 16.9 22.35 Q13.4 22.55 11.45 20.65 8.85 18.15 8.2 16.2 Z" fill="none" stroke="#040a2e" stroke-linecap="round" stroke-linejoin="round" stroke-width="1.0"/>
    <path d="M17.45 18.8 Q18.15 18.6 18.5 19.05 L18.8 19.8 Q18.55 20.3 17.75 19.8 L17.45 19.5 Q16.95 18.9 17.45 18.8 M13.0 17.45 Q14.55 17.15 15.45 19.55 14.95 20.6 13.3 19.55 11.4 17.7 13.0 17.45 M6.35 8.65 Q8.9 8.4 9.55 10.55 8.95 11.5 7.05 10.55 4.95 8.8 6.35 8.65 M7.7 6.15 Q6.95 7.65 4.55 6.15 1.85 3.45 3.65 3.15 6.85 2.75 7.7 6.15 M12.25 9.65 Q13.55 9.1 14.3 10.45 14.1 11.2 12.95 10.8 11.5 9.95 12.25 9.65" fill="#1b703f" fill-opacity="0.29803923" fill-rule="evenodd" stroke="none"/>
  </g>
  <defs>
    <radialGradient cx="0" cy="0" fx="44.800000000000004" fy="0" gradientTransform="matrix(0.0266, 0.0046, -0.0028, 0.0165, 11.3, 6.6)" gradientUnits="userSpaceOnUse" id="gradient0" r="819.2" spreadMethod="pad">
      <stop offset="0.0" stop-color="#10e268"/>
      <stop offset="0.27450980392156865" stop-color="#0ee095"/>
      <stop offset="0.5019607843137255" stop-color="#2287d0"/>
      <stop offset="0.9058823529411765" stop-color="#0400ff"/>
      <stop offset="1.0" stop-color="#ff1305"/>
    </radialGradient>
    <radialGradient cx="0" cy="0" fx="92.80000000000001" fy="0" gradientTransform="matrix(0.0135, -0.0096, 0.0122, 0.017, 16.55, 15.4)" gradientUnits="userSpaceOnUse" id="gradient1" r="819.2" spreadMethod="pad">
      <stop offset="0.0" stop-color="#23ff5b"/>
      <stop offset="0.27450980392156865" stop-color="#3fffba"/>
      <stop offset="0.5450980392156862" stop-color="#12639c"/>
      <stop offset="0.9058823529411765" stop-color="#0400ff"/>
      <stop offset="1.0" stop-color="#ff1305"/>
    </radialGradient>
  </defs>
</svg>
