<?xml version="1.0" encoding="UTF-8" standalone="no"?>
<svg xmlns:ffdec="https://www.free-decompiler.com/flash" xmlns:xlink="http://www.w3.org/1999/xlink" ffdec:objectType="shape" height="26.4px" width="14.4px" xmlns="http://www.w3.org/2000/svg">
  <g transform="matrix(1.0, 0.0, 0.0, 1.0, 0.5, 0.5)">
    <path d="M5.95 5.9 L6.15 5.4 6.25 5.35 Q6.55 5.1 6.95 5.1 L7.55 5.25 7.6 5.3 7.7 5.4 7.75 5.45 7.85 5.6 8.0 5.9 8.05 6.15 8.05 6.2 8.05 6.35 7.7 6.95 7.6 7.1 7.55 7.15 7.75 6.65 7.75 6.55 7.6 6.0 7.6 5.95 7.45 5.75 6.75 5.55 6.0 5.75 5.95 5.85 5.95 5.9" fill="#101010" fill-rule="evenodd" stroke="none"/>
    <path d="M0.25 10.55 L2.6 9.5 2.95 4.65 Q3.15 3.35 4.05 3.0 L4.85 3.0 8.85 2.95 9.4 2.95 Q10.15 3.25 10.4 4.4 L10.75 9.3 13.25 10.55 Q13.6 12.15 13.1 13.7 L0.3 13.5 Q-0.25 12.05 0.25 10.55 M5.95 5.9 L5.95 5.85 6.0 5.75 6.75 5.55 7.45 5.75 7.6 5.95 7.6 6.0 7.75 6.55 7.75 6.65 7.55 7.15 6.95 7.3 Q6.5 7.3 6.15 6.95 L6.1 6.9 6.0 6.7 5.9 6.4 5.9 6.35 5.9 6.25 5.9 6.15 5.9 6.05 5.95 5.9 M6.2 4.3 Q3.7 4.85 3.8 8.1 4.95 7.55 5.4 8.65 L5.4 12.25 9.05 8.85 8.9 5.95 Q8.7 3.8 6.2 4.3" fill="#350000" fill-rule="evenodd" stroke="none"/>
    <path d="M13.25 10.55 L10.75 9.3 10.4 4.4 Q10.15 3.25 9.4 2.95 L8.85 2.95 4.85 3.0 4.05 3.0 Q3.15 3.35 2.95 4.65 L2.6 9.5 0.25 10.55 0.25 5.25 Q0.5 1.7 2.3 0.85 3.45 0.35 4.85 0.15 L6.8 0.0 8.85 0.2 Q10.15 0.4 11.15 1.0 12.85 1.95 13.1 5.25 L13.25 10.55" fill="url(#gradient0)" fill-rule="evenodd" stroke="none"/>
    <path d="M0.3 13.5 L13.1 13.7 13.1 14.6 12.8 16.25 11.95 16.55 7.95 15.2 Q5.7 14.8 1.8 15.1 L1.35 15.15 0.65 14.6 0.3 13.5" fill="url(#gradient1)" fill-rule="evenodd" stroke="none"/>
    <path d="M1.8 15.1 Q5.7 14.8 7.95 15.2 L11.95 16.55 Q11.95 17.15 10.25 17.45 L10.1 23.1 Q9.9 25.35 7.1 25.4 4.3 25.45 3.95 23.25 L3.4 17.55 Q1.6 17.4 1.8 15.1 M10.25 17.45 L3.4 17.55 10.25 17.45" fill="#272727" fill-rule="evenodd" stroke="none"/>
    <path d="M7.55 7.15 L7.6 7.1 7.7 6.95 8.05 6.35 8.05 6.2 8.05 6.15 8.0 5.9 7.85 5.6 7.75 5.45 7.7 5.4 7.6 5.3 7.55 5.25 6.95 5.1 Q6.55 5.1 6.25 5.35 L6.15 5.4 5.95 5.9 5.8 6.2 5.75 6.45 5.75 6.55 5.75 6.65 5.75 6.7 5.85 7.0 5.95 7.2 6.0 7.25 6.05 7.3 6.4 7.5 6.75 7.55 7.0 7.55 7.45 7.25 7.55 7.15 M6.2 4.3 Q8.7 3.8 8.9 5.95 L9.05 8.85 5.4 12.25 5.4 8.65 Q4.95 7.55 3.8 8.1 3.7 4.85 6.2 4.3" fill="#020202" fill-rule="evenodd" stroke="none"/>
    <path d="M6.2 4.3 Q3.7 4.85 3.8 8.1 4.95 7.55 5.4 8.65 L5.4 12.25 9.05 8.85 8.9 5.95 Q8.7 3.8 6.2 4.3" fill="none" stroke="#101010" stroke-linecap="round" stroke-linejoin="round" stroke-width="0.1"/>
    <path d="M13.25 10.55 L13.1 5.25 Q12.85 1.95 11.15 1.0 10.15 0.4 8.85 0.2 L6.8 0.0 4.85 0.15 Q3.45 0.35 2.3 0.85 0.5 1.7 0.25 5.25 L0.25 10.55 M11.95 16.55 L7.95 15.2 Q5.7 14.8 1.8 15.1 1.6 17.4 3.4 17.55 L10.25 17.45 Q11.95 17.15 11.95 16.55 L12.8 16.25 13.1 14.6 13.1 13.7 M1.8 15.1 L1.35 15.15 0.65 14.6 0.3 13.5 M10.25 17.45 L10.1 23.1 Q9.9 25.35 7.1 25.4 4.3 25.45 3.95 23.25 L3.4 17.55" fill="none" stroke="#0e0e0e" stroke-linecap="round" stroke-linejoin="round" stroke-width="1.0"/>
    <path d="M5.95 5.9 L6.15 5.4 6.25 5.35 Q6.55 5.1 6.95 5.1 L7.55 5.25 7.6 5.3 7.7 5.4 7.75 5.45 7.85 5.6 8.0 5.9 8.05 6.15 8.05 6.2 8.05 6.35 7.7 6.95 7.6 7.1 7.55 7.15 6.95 7.3 Q6.5 7.3 6.15 6.95 L6.1 6.9 6.0 6.7 5.9 6.4 5.9 6.35 5.9 6.25 5.9 6.15 5.9 6.05 5.95 5.9 Z" fill="none" stroke="#020202" stroke-linecap="round" stroke-linejoin="round" stroke-width="0.9"/>
    <path d="M13.25 10.55 Q13.6 12.15 13.1 13.7 L0.3 13.5 Q-0.25 12.05 0.25 10.55 L2.6 9.5 2.95 4.65 Q3.15 3.35 4.05 3.0 L4.85 3.0 8.85 2.95 9.4 2.95 Q10.15 3.25 10.4 4.4 L10.75 9.3 13.25 10.55 Z" fill="none" stroke="#230000" stroke-linecap="round" stroke-linejoin="round" stroke-width="1.0"/>
  </g>
  <defs>
    <radialGradient cx="0" cy="0" fx="192.0" fy="0" gradientTransform="matrix(0.0154, 0.0, 0.0, 0.0154, 7.35, 5.75)" gradientUnits="userSpaceOnUse" id="gradient0" r="819.2" spreadMethod="pad">
      <stop offset="0.0" stop-color="#484848"/>
      <stop offset="0.4470588235294118" stop-color="#2a2a2a"/>
      <stop offset="1.0" stop-color="#1e1e1e"/>
      <stop offset="1.0" stop-color="#383838"/>
    </radialGradient>
    <radialGradient cx="0" cy="0" fx="192.0" fy="0" gradientTransform="matrix(0.0139, 0.0, 0.0, 0.0139, 6.9, 9.2)" gradientUnits="userSpaceOnUse" id="gradient1" r="819.2" spreadMethod="pad">
      <stop offset="0.0" stop-color="#484848"/>
      <stop offset="0.4470588235294118" stop-color="#2a2a2a"/>
      <stop offset="1.0" stop-color="#1e1e1e"/>
      <stop offset="1.0" stop-color="#383838"/>
    </radialGradient>
  </defs>
</svg>
