<?xml version="1.0" encoding="UTF-8" standalone="no"?>
<svg xmlns:ffdec="https://www.free-decompiler.com/flash" xmlns:xlink="http://www.w3.org/1999/xlink" ffdec:objectType="shape" height="25.05px" width="15.0px" xmlns="http://www.w3.org/2000/svg">
  <g transform="matrix(1.0, 0.0, 0.0, 1.0, 9.55, 6.15)">
    <path d="M-3.35 4.25 L1.05 6.35 -1.6 11.65 -5.95 9.5 -3.35 4.25" fill="#000000" fill-rule="evenodd" stroke="none"/>
    <path d="M-1.3 5.5 L-0.75 5.75 Q-0.4 5.9 -0.55 6.15 L-2.45 10.05 -2.85 10.6 -3.5 10.4 Q-3.95 10.25 -3.8 9.95 L-1.75 6.05 -1.3 5.5" fill="url(#gradient0)" fill-rule="evenodd" stroke="none"/>
    <path d="M-2.15 5.55 L-1.9 8.1 Q-1.8 9.45 -2.5 10.6" fill="none" stroke="#4f0606" stroke-linecap="round" stroke-linejoin="round" stroke-width="1.0"/>
    <path d="M-1.45 3.9 L0.25 4.7 0.7 4.95 Q1.0 5.1 0.95 5.35 L0.9 6.8 Q-0.55 8.8 -2.0 11.4 -2.1 14.1 -3.35 15.75 L-4.0 16.35 -5.3 17.8 Q-6.0 18.75 -7.8 17.45 -9.6 16.15 -8.65 13.95 L-8.6 12.5 -8.25 11.25 -7.4 9.95 Q-7.0 6.2 -5.5 3.2 L-4.45 2.65 -4.25 2.6 -4.05 2.65 Q-3.35 2.95 -3.45 3.3 L-5.5 7.6 -5.75 8.4 -5.9 9.15 Q-5.9 9.85 -5.05 9.95 L-4.7 10.1 -4.45 9.95 -3.95 8.85 -3.55 9.75 -3.0 10.6 -2.4 10.1 Q-2.1 9.8 -2.05 9.3 L-1.6 8.95 -1.2 8.55 -1.15 8.05 Q-1.1 7.65 -0.7 7.5 L-0.45 6.9 -0.15 5.8 Q-0.8 5.6 -1.4 5.8 -2.75 6.2 -2.6 6.8 -2.5 7.4 -2.85 7.75 L-3.65 8.25 -2.0 4.75 -1.45 3.9" fill="#d27e02" fill-rule="evenodd" stroke="none"/>
    <path d="M-4.5 2.6 L-4.05 2.65 -3.75 2.8 Q-3.55 2.8 -3.45 3.0 L-3.45 3.3 -4.55 5.75 -5.65 8.15 Q-6.05 9.1 -5.85 9.4 -5.7 9.8 -4.65 10.05 L-4.35 9.7 -1.8 4.35 -1.4 3.95 0.8 5.0 Q1.0 5.05 1.0 5.7 L1.0 6.3 0.9 6.8 Q-0.7 9.05 -1.95 11.4 L-2.05 12.35 -2.25 12.65 -2.55 12.65 Q-3.0 12.05 -3.9 11.8 L-6.9 11.3 -8.55 11.85 -8.3 11.35 -7.8 10.55 Q-7.4 10.1 -7.35 9.85 -6.95 5.9 -5.5 3.15 -4.75 2.85 -4.5 2.6" fill="#000000" fill-opacity="0.11764706" fill-rule="evenodd" stroke="none"/>
    <path d="M-4.45 2.4 L-5.5 2.95 Q-7.1 5.85 -7.55 9.95 L-8.6 11.45 -9.05 16.25 Q-7.65 18.25 -6.75 18.4 -5.85 18.55 -4.0 16.7 -2.05 14.75 -1.8 11.5 -0.65 9.15 1.05 6.8 L1.1 5.1" fill="none" stroke="#653d01" stroke-linecap="round" stroke-linejoin="round" stroke-width="1.0"/>
    <path d="M-3.65 -3.8 L-5.5 -4.5 -6.75 -3.75 -6.8 -1.1 Q-6.7 0.25 -6.1 1.35 L-5.2 1.55" fill="none" stroke="#6d1919" stroke-linecap="round" stroke-linejoin="round" stroke-width="1.0"/>
    <path d="M-3.05 2.3 L-2.85 2.25 -2.1 2.65 Q-1.7 2.85 -1.85 3.2 L-4.85 9.55 -5.25 10.05 -5.85 9.85 -6.2 9.6 -6.2 9.15 -5.7 7.7 -3.4 2.85 -3.05 2.3" fill="#4b4b4b" fill-rule="evenodd" stroke="none"/>
    <path d="M-3.2 1.55 Q-3.45 2.65 -4.65 5.0 L-6.5 9.2 Q-6.55 9.8 -6.1 10.0 L-5.05 10.3 -1.25 2.3" fill="none" stroke="#0f0f0f" stroke-linecap="round" stroke-linejoin="round" stroke-width="1.0"/>
    <path d="M1.2 -3.7 Q1.7 -3.4 2.9 -3.0 L3.7 -1.55 Q3.75 -1.2 4.2 -0.85 L4.65 -0.4 4.75 1.9 4.4 2.45 4.0 2.9 3.4 5.1 2.75 5.7 Q2.3 5.95 2.0 5.7 L1.7 5.45 1.6 5.0 -2.05 3.2 Q-2.55 3.05 -2.6 2.45 L-2.4 1.85 -2.2 1.15 -3.45 0.55 -3.75 0.15 -3.8 -0.35 Q-3.7 -2.35 -3.05 -4.45 L-2.5 -5.4 -2.35 -5.45 -1.0 -5.0 -0.55 -4.7 -0.35 -4.25 Q0.15 -4.0 1.2 -3.7" fill="url(#gradient1)" fill-rule="evenodd" stroke="none"/>
    <path d="M-0.85 1.05 L1.85 2.5 2.3 2.8 2.35 3.35 2.25 3.85 1.65 4.65 1.2 4.8 -1.65 3.4 Q-1.95 3.3 -1.85 3.05 L-1.25 1.4 -1.05 1.1 -0.85 1.05" fill="#0c0c0c" fill-opacity="0.29411766" fill-rule="evenodd" stroke="none"/>
    <path d="M2.85 3.15 L3.0 3.15 3.5 3.35 3.8 3.7 3.45 4.9 3.25 5.45 2.6 5.8 2.2 5.8 Q1.8 5.75 1.7 5.55 L1.7 5.05 2.7 3.9 2.65 3.6 2.85 3.15" fill="#0c0c0c" fill-opacity="0.29411766" fill-rule="evenodd" stroke="none"/>
    <path d="M4.1 3.0 L4.5 2.6 4.9 2.2 Q5.05 0.85 4.8 -0.4 L4.3 -0.9 3.85 -1.5 3.0 -3.2 -0.2 -4.4 -0.5 -4.95 -2.4 -5.65 Q-2.85 -5.8 -3.5 -3.35 -4.05 -1.1 -4.0 -0.25 L-3.9 0.5 Q-3.45 0.6 -2.3 1.25 L-2.85 2.3 -2.55 3.1 1.45 5.1 1.6 5.85 2.45 6.0 3.4 5.6 4.1 3.0 Z" fill="none" stroke="#252525" stroke-linecap="round" stroke-linejoin="round" stroke-width="1.0"/>
    <path d="M-5.95 -2.8 Q-5.95 -3.35 -5.25 -3.65 L-4.35 -3.45 -3.4 -3.05 Q-3.25 -2.8 -3.4 -2.55 L-3.75 -2.2 -3.7 -1.2 -3.7 -0.9 -3.5 -0.65 -2.65 -0.4 Q-2.15 -0.25 -1.9 0.05 -1.65 0.2 -1.65 1.0 L-1.7 1.65 -1.9 2.25 -2.1 2.7 Q-2.25 3.0 -2.5 2.95 L-4.0 2.35 -4.8 1.0 Q-4.85 0.8 -5.1 0.8 L-5.4 0.65 Q-6.0 -1.2 -5.95 -2.8" fill="#a9a9a9" fill-rule="evenodd" stroke="none"/>
    <path d="M-2.65 -0.4 L-2.1 -0.25 -1.65 0.25 -1.65 0.8 -1.6 1.45 -2.1 2.7 Q-2.25 3.05 -2.5 2.95 L-4.0 2.35 -4.25 1.85 -4.85 0.85 -5.4 0.75 -5.6 0.15 -5.55 -0.3 -3.95 -1.05 -3.75 -1.0 -3.65 -0.7 -2.65 -0.4" fill="#0c0c0c" fill-opacity="0.29411766" fill-rule="evenodd" stroke="none"/>
    <path d="M-5.65 -0.35 L-3.9 -1.05" fill="none" stroke="#212121" stroke-linecap="round" stroke-linejoin="round" stroke-width="1.0"/>
    <path d="M-6.0 -3.3 Q-6.35 -1.4 -5.5 1.0 L-4.95 0.95 -4.15 2.45 -2.15 3.25 -1.45 1.45 -1.45 0.25 -2.05 -0.4 -3.55 -0.85 -3.55 -2.1 -2.9 -3.15 -5.2 -3.9 -6.0 -3.3 Z" fill="none" stroke="#212121" stroke-linecap="round" stroke-linejoin="round" stroke-width="1.0"/>
    <path d="M-3.65 3.4 L-2.55 3.9" fill="none" stroke="#0f0f0f" stroke-linecap="round" stroke-linejoin="round" stroke-width="1.0"/>
    <path d="M-4.3 5.0 L-3.15 5.45" fill="none" stroke="#0f0f0f" stroke-linecap="round" stroke-linejoin="round" stroke-width="1.0"/>
    <path d="M-5.05 6.55 L-3.95 7.0" fill="none" stroke="#0f0f0f" stroke-linecap="round" stroke-linejoin="round" stroke-width="1.0"/>
    <path d="M-5.85 8.35 L-4.75 8.8" fill="none" stroke="#0f0f0f" stroke-linecap="round" stroke-linejoin="round" stroke-width="1.0"/>
    <path d="M2.7 -3.1 L1.95 -2.45 2.5 -0.6 3.15 0.0 3.3 1.65 2.45 2.1 2.55 3.85 1.6 4.85" fill="none" stroke="#252525" stroke-linecap="round" stroke-linejoin="round" stroke-width="1.0"/>
    <path d="M-1.55 -2.6 L-0.25 -2.6 M-0.65 -2.3 L-0.3 -2.0" fill="none" stroke="#ffffff" stroke-linecap="round" stroke-linejoin="round" stroke-width="1.0"/>
    <path d="M1.45 5.1 L-4.15 2.45" fill="none" stroke="#0f0f0f" stroke-linecap="round" stroke-linejoin="round" stroke-width="1.0"/>
  </g>
  <defs>
    <linearGradient gradientTransform="matrix(0.001, -3.0E-4, 3.0E-4, 0.001, -1.95, 8.15)" gradientUnits="userSpaceOnUse" id="gradient0" spreadMethod="pad" x1="-819.2" x2="819.2">
      <stop offset="0.0" stop-color="#2b2b2b"/>
      <stop offset="0.4588235294117647" stop-color="#d8d8d8"/>
      <stop offset="1.0" stop-color="#363636"/>
    </linearGradient>
    <radialGradient cx="0" cy="0" gradientTransform="matrix(9.0E-4, 0.0047, -0.0067, 0.0013, -0.25, -3.2)" gradientUnits="userSpaceOnUse" id="gradient1" r="819.2" spreadMethod="pad">
      <stop offset="0.0" stop-color="#8e8e8e"/>
      <stop offset="1.0" stop-color="#666666"/>
    </radialGradient>
  </defs>
</svg>
