<?xml version="1.0" encoding="UTF-8" standalone="no"?>
<svg xmlns:ffdec="https://www.free-decompiler.com/flash" xmlns:xlink="http://www.w3.org/1999/xlink" ffdec:objectType="shape" height="19.3px" width="11.2px" xmlns="http://www.w3.org/2000/svg">
  <g transform="matrix(1.0, 0.0, 0.0, 1.0, 1.9, 0.45)">
    <path d="M1.65 11.95 L1.8 11.9 3.75 11.15 8.55 4.25 7.95 7.3 Q7.5 9.5 7.5 10.85 L4.4 14.8 -0.25 16.45 -0.3 16.1 -0.35 14.85 -0.85 13.0 -0.85 12.85 1.65 11.95" fill="#696969" fill-rule="evenodd" stroke="none"/>
    <path d="M6.75 4.25 L6.5 3.75 5.55 2.9 Q4.95 2.4 4.5 2.25 4.95 2.4 5.55 2.9 L6.5 3.75 6.75 4.25 M7.25 3.5 L6.35 2.0 7.25 3.5 M0.8 7.65 L1.75 3.1 Q1.75 2.15 2.25 1.5 3.2 0.1 5.0 0.1 6.9 -0.1 7.85 0.75 9.25 1.85 8.6 3.75 L8.55 4.25 3.75 11.15 1.8 11.9 1.65 11.95 -0.05 10.55 1.65 11.95 -0.85 12.85 Q-0.8 11.6 -0.05 10.55 L-0.35 10.25 -1.25 9.5 Q-1.5 8.6 -1.25 8.35 L-0.85 7.85 -0.35 7.6 0.0 7.5 0.8 7.65 1.6 7.8 2.0 7.95 Q2.7 8.25 3.25 9.1 2.7 8.25 2.0 7.95 L1.6 7.8 0.8 7.65 M7.5 10.85 L7.5 11.0 Q7.5 12.2 7.1 12.75 7.05 13.3 6.4 14.0 L5.5 15.1 5.1 16.25 Q4.75 17.15 3.25 17.85 L1.5 18.35 Q0.25 18.35 -0.1 17.25 L-0.25 16.45 4.4 14.8 7.5 10.85" fill="#313131" fill-rule="evenodd" stroke="none"/>
    <path d="M8.55 4.25 L8.6 3.75 Q9.25 1.85 7.85 0.75 6.9 -0.1 5.0 0.1 3.2 0.1 2.25 1.5 1.75 2.15 1.75 3.1 L0.8 7.65 1.6 7.8 2.0 7.95 Q2.7 8.25 3.25 9.1 M0.8 7.65 L0.0 7.5 -0.35 7.6 -0.85 7.85 -1.25 8.35 Q-1.5 8.6 -1.25 9.5 L-0.35 10.25 -0.05 10.55 1.65 11.95 1.8 11.9 M8.55 4.25 L7.95 7.3 Q7.5 9.5 7.5 10.85 L7.5 11.0 Q7.5 12.2 7.1 12.75 7.05 13.3 6.4 14.0 L5.5 15.1 5.1 16.25 Q4.75 17.15 3.25 17.85 L1.5 18.35 Q0.25 18.35 -0.1 17.25 L-0.25 16.45 -0.3 16.1 -0.35 14.85 -0.85 13.0 -0.85 12.85 Q-0.8 11.6 -0.05 10.55" fill="none" stroke="#1e1e1e" stroke-linecap="round" stroke-linejoin="round" stroke-width="1.0"/>
    <path d="M6.35 2.0 L7.25 3.5 M4.5 2.25 Q4.95 2.4 5.55 2.9 L6.5 3.75 6.75 4.25" fill="none" stroke="#232323" stroke-linecap="round" stroke-linejoin="round" stroke-width="0.8"/>
    <path d="M5.05 6.5 L4.85 6.8 4.85 6.85 4.8 6.95 4.8 7.0 4.65 7.1 4.6 7.25 4.6 7.3 4.75 7.2 4.7 7.3 4.55 7.45 4.55 7.5 4.5 7.65 4.4 7.7 4.35 7.85 4.2 7.95 4.3 7.65 4.5 7.3 4.55 7.1 4.6 7.0 4.6 6.9 4.65 6.8 4.65 6.7 4.7 6.6 4.6 6.5 4.6 6.45 4.6 6.35 4.55 6.35 4.45 6.2 4.5 6.0 4.55 5.8 4.6 5.75 4.6 5.7 4.7 5.7 4.75 5.55 4.8 5.45 4.7 5.25 4.75 4.95 4.6 5.3 4.7 5.4 4.65 5.5 4.6 5.6 4.6 5.7 4.55 5.75 4.5 5.95 4.4 6.2 4.35 6.2 4.15 6.35 4.1 6.5 4.05 6.6 4.0 6.7 3.9 6.7 3.9 6.9 3.8 7.75 3.7 7.45 3.65 7.4 3.65 7.35 3.7 7.25 3.65 7.0 3.55 6.95 3.6 6.85 3.6 6.8 3.65 6.7 3.65 6.6 3.7 6.7 3.8 6.5 3.8 6.35 3.75 6.25 3.75 6.2 3.7 6.4 3.7 6.5 3.6 6.45 3.5 6.35 3.55 6.3 3.5 6.2 3.45 6.1 3.5 6.05 3.55 6.1 3.65 6.1 3.75 6.15 3.8 6.15 3.8 6.05 3.95 5.8 4.0 5.65 4.0 5.6 4.05 5.55 4.05 5.45 4.1 5.3 4.1 5.15 4.05 5.15 3.95 5.05 4.0 5.0 3.9 5.0 3.75 4.9 3.65 4.85 3.55 4.75 3.6 4.7 3.6 4.65 3.65 4.6 3.75 4.5 3.95 4.35 4.05 4.35 4.15 4.25 4.2 4.2 4.35 4.2 4.65 4.2 4.7 4.15 4.8 4.2 4.9 4.25 4.9 4.2 5.0 4.2 5.1 4.25 5.15 4.3 5.2 4.35 5.4 4.35 5.5 4.5 5.55 4.55 5.7 4.6 5.7 4.8 5.75 5.05 5.9 5.15 5.85 5.2 5.9 5.25 5.9 5.3 5.85 5.4 5.8 5.4 5.7 5.4 5.65 5.4 5.55 5.4 5.55 5.45 5.5 5.4 5.5 5.35 5.4 5.45 5.4 5.55 5.3 5.6 5.2 5.65 5.15 5.7 5.1 5.75 5.1 5.9 5.1 5.95 5.05 6.1 5.05 6.25 5.05 6.5 5.15 6.4 5.25 6.45 5.2 6.4 5.25 6.3 5.25 6.2 5.3 6.25 5.35 6.15 5.35 6.05 5.5 6.2 5.45 6.3 5.5 6.3 5.4 6.35 5.4 6.4 5.25 6.45 5.25 6.55 5.2 6.6 5.2 6.75 5.1 6.7 5.05 6.8 5.05 6.85 4.9 6.95 4.9 7.0 4.85 6.95 4.9 6.85 5.0 6.7 5.0 6.6 5.05 6.5 M3.7 6.75 L3.65 6.8 3.7 6.85 3.75 6.95 3.75 6.85 3.7 6.75 M5.0 4.6 L5.05 4.45 5.05 4.4 4.95 4.35 4.9 4.35 4.9 4.45 4.9 4.65 4.8 4.75 4.85 4.8 4.85 4.75 4.95 4.8 5.0 4.75 5.05 4.65 5.0 4.65 5.0 4.6" fill="#090000" fill-rule="evenodd" stroke="none"/>
    <path d="M5.05 6.5 L5.05 6.25 5.05 6.1 5.1 5.95 5.1 5.9 5.1 5.75 5.15 5.7 5.2 5.65 5.3 5.6 5.4 5.55 5.4 5.45 5.5 5.35 5.5 5.4 5.55 5.45 5.55 5.4 5.65 5.4 5.7 5.4 5.8 5.4 5.85 5.4 5.9 5.3 5.9 5.25 5.85 5.2 5.9 5.15 5.75 5.05 5.7 4.8 5.7 4.6 5.55 4.55 5.5 4.5 5.4 4.35 5.2 4.35 5.15 4.3 5.1 4.25 5.0 4.2 4.9 4.2 4.9 4.25 4.8 4.2 4.7 4.15 4.65 4.2 4.35 4.2 4.2 4.2 4.15 4.25 4.05 4.35 3.95 4.35 3.75 4.5 3.65 4.6 3.6 4.65 3.6 4.7 3.55 4.75 3.65 4.85 3.75 4.9 3.9 5.0 4.0 5.0 3.95 5.05 4.05 5.15 4.1 5.15 4.1 5.3 4.05 5.45 4.05 5.55 4.0 5.6 4.0 5.65 3.95 5.8 3.8 6.05 3.8 6.15 3.75 6.15 3.65 6.1 3.55 6.1 3.5 6.05 3.45 6.1 3.5 6.2 3.55 6.3 3.5 6.35 3.6 6.45 3.7 6.5 3.7 6.4 3.75 6.2 3.75 6.25 3.8 6.35 3.8 6.5 3.7 6.7 3.65 6.6 3.65 6.7 3.6 6.8 3.6 6.85 3.55 6.95 3.65 7.0 3.7 7.25 3.65 7.35 3.65 7.4 3.7 7.45 3.8 7.75 3.9 6.9 3.9 6.7 4.0 6.7 4.05 6.6 4.1 6.5 4.15 6.35 4.35 6.2 4.4 6.2 4.5 5.95 4.55 5.75 4.6 5.7 4.6 5.6 4.65 5.5 4.7 5.4 4.6 5.3 4.75 4.95 4.7 5.25 4.8 5.45 4.75 5.55 4.7 5.7 4.6 5.7 4.6 5.75 4.55 5.8 4.5 6.0 4.45 6.2 4.55 6.35 4.6 6.35 4.6 6.45 4.6 6.5 4.7 6.6 4.65 6.7 4.65 6.8 4.6 6.9 4.6 7.0 4.55 7.1 4.5 7.3 4.3 7.65 4.2 7.95 4.35 7.85 4.4 7.7 4.5 7.65 4.55 7.5 4.55 7.45 4.7 7.3 4.75 7.2 4.6 7.3 4.6 7.25 4.65 7.1 4.8 7.0 4.8 6.95 4.85 6.85 4.85 6.8 5.05 6.5 5.0 6.6 5.0 6.7 4.9 6.85 4.85 6.95 4.9 7.0 4.9 6.95 5.05 6.85 5.05 6.8 5.1 6.7 5.2 6.75 5.2 6.6 5.25 6.55 5.25 6.45 5.4 6.4 5.4 6.35 5.5 6.3 5.45 6.3 5.5 6.2 5.35 6.05 5.35 6.15 5.3 6.25 5.25 6.2 5.25 6.3 5.2 6.4 5.25 6.45 5.15 6.4 5.05 6.5 M8.45 5.05 L8.4 5.1 Q8.25 6.9 7.4 8.8 L4.2 7.95 0.85 7.05 Q0.75 5.0 1.65 3.2 L6.75 4.65 8.45 5.05 M8.4 5.1 L6.75 4.65 8.4 5.1 M5.0 4.6 L5.0 4.65 5.05 4.65 5.0 4.75 4.95 4.8 4.85 4.75 4.85 4.8 4.8 4.75 4.9 4.65 4.9 4.45 4.9 4.35 4.95 4.35 5.05 4.4 5.05 4.45 5.0 4.6 M3.7 6.75 L3.75 6.85 3.75 6.95 3.7 6.85 3.65 6.8 3.7 6.75" fill="#380202" fill-rule="evenodd" stroke="none"/>
    <path d="M8.45 5.05 L8.4 5.1 Q8.25 6.9 7.4 8.8 L4.2 7.95 0.85 7.05 Q0.75 5.0 1.65 3.2 L6.75 4.65 8.4 5.1" fill="none" stroke="#090000" stroke-linecap="round" stroke-linejoin="round" stroke-width="1.0"/>
  </g>
</svg>
