<?xml version="1.0" encoding="UTF-8" standalone="no"?>
<svg xmlns:xlink="http://www.w3.org/1999/xlink" height="10.7px" width="17.25px" xmlns="http://www.w3.org/2000/svg">
  <g transform="matrix(1.0, 0.0, 0.0, 1.0, 5.75, 4.0)">
    <path d="M-3.9 0.0 L-2.8 -1.8 Q-1.3 -3.65 0.4 -3.5 2.05 -3.4 3.4 -2.0 4.6 -0.7 5.85 0.0 L5.65 0.55 5.6 0.7 5.35 1.45 5.35 4.0 7.5 4.0 8.4 5.85 2.6 5.85 0.8 4.6 -0.35 5.85 -1.75 5.85 -1.75 1.1 -3.9 0.0" fill="#595958" fill-rule="evenodd" stroke="none"/>
    <path d="M5.85 0.0 Q4.6 -0.7 3.4 -2.0 2.05 -3.4 0.4 -3.5 -1.3 -3.65 -2.8 -1.8 L-3.9 0.0 M-1.75 5.85 L-0.35 5.85 0.8 4.6 2.6 5.85 8.4 5.85" fill="none" stroke="#3c3c3c" stroke-linecap="round" stroke-linejoin="round" stroke-width="1.0"/>
    <path d="M6.0 -0.45 L6.05 -0.55 9.3 0.0 11.0 3.2 11.0 5.35 10.25 6.2 8.55 6.2 7.5 4.0 5.35 4.0 5.35 1.45 5.6 0.7 5.65 0.55 6.0 -0.45" fill="#e1e1e1" fill-rule="evenodd" stroke="none"/>
    <path d="M-1.75 6.2 L-4.25 6.2 -5.25 4.95 -3.9 0.0 -1.75 1.1 -1.75 6.2" fill="#a7a7a7" fill-rule="evenodd" stroke="none"/>
    <path d="M6.0 -0.45 L5.65 0.55 5.6 0.7 5.35 1.45 5.35 4.0 7.5 4.0 8.55 6.2 10.25 6.2 11.0 5.35 11.0 3.2 9.3 0.0 6.05 -0.55 6.0 -0.45 M-1.75 6.2 L-1.75 1.1 -3.9 0.0 -5.25 4.95 -4.25 6.2 -1.75 6.2 Z" fill="none" stroke="#717171" stroke-linecap="round" stroke-linejoin="round" stroke-width="1.0"/>
  </g>
</svg>
