<?xml version="1.0" encoding="UTF-8" standalone="no"?>
<svg xmlns:ffdec="https://www.free-decompiler.com/flash" xmlns:xlink="http://www.w3.org/1999/xlink" ffdec:objectType="shape" height="23.45px" width="16.4px" xmlns="http://www.w3.org/2000/svg">
  <g transform="matrix(1.0, 0.0, 0.0, 1.0, 3.8, 1.85)">
    <path d="M0.8 9.8 L3.4 9.8 7.15 10.55 Q8.1 13.5 8.2 16.45 L8.35 18.8 Q7.2 20.75 4.6 21.1 2.55 20.55 1.25 19.1 L0.85 17.45 0.8 9.8" fill="#171717" fill-rule="evenodd" stroke="none"/>
    <path d="M0.8 9.8 L0.85 17.45 1.25 19.1 Q2.55 20.55 4.6 21.1 7.2 20.75 8.35 18.8 L8.2 16.45 Q8.1 13.5 7.15 10.55 L3.4 9.8 0.8 9.8 Z" fill="none" stroke="#0e0e0e" stroke-linecap="round" stroke-linejoin="round" stroke-width="1.0"/>
    <path d="M0.45 1.1 L0.3 -0.05 1.7 -1.35 7.25 -1.3 8.65 0.05 8.5 1.15 8.5 9.25 6.45 10.55 5.6 6.75 3.25 6.75 2.6 10.4 0.45 9.2 0.45 1.1 M6.95 4.7 L5.3 1.4 4.75 2.35 5.85 4.7 6.95 4.7 M4.2 1.15 L2.0 4.7 3.2 4.7 3.65 3.65 5.0 3.65 4.75 2.95 4.2 2.95 5.1 1.15 4.2 1.15" fill="#272727" fill-rule="evenodd" stroke="none"/>
    <path d="M0.45 1.1 L0.45 9.2 2.6 10.4 3.25 6.75 5.6 6.75 6.45 10.55 8.5 9.25 8.5 1.15 11.3 2.85 12.1 3.2 10.9 11.5 9.9 12.25 7.65 13.8 6.35 13.8 6.35 11.9 2.6 11.75 2.6 13.75 1.3 13.75 -0.95 12.1 -1.95 11.35 -3.3 3.05 -2.45 2.65 0.45 1.1 M6.45 10.55 L3.4 10.55 2.6 10.4 3.4 10.55 6.45 10.55 M-0.95 12.1 L-2.45 2.65 -0.95 12.1 M9.9 12.25 L11.3 2.85 9.9 12.25" fill="#1c1c1c" fill-rule="evenodd" stroke="none"/>
    <path d="M4.2 1.15 L5.1 1.15 4.2 2.95 4.75 2.95 5.0 3.65 3.65 3.65 3.2 4.7 2.0 4.7 4.2 1.15 M6.95 4.7 L5.85 4.7 4.75 2.35 5.3 1.4 6.95 4.7" fill="#511313" fill-rule="evenodd" stroke="none"/>
    <path d="M8.5 1.15 L8.65 0.05 7.25 -1.3 1.7 -1.35 0.3 -0.05 0.45 1.1 0.45 9.2 2.6 10.4 3.25 6.75 5.6 6.75 6.45 10.55 8.5 9.25 8.5 1.15 11.3 2.85 12.1 3.2 10.9 11.5 9.9 12.25 7.65 13.8 6.35 13.8 6.35 11.9 2.6 11.75 2.6 13.75 1.3 13.75 -0.95 12.1 -1.95 11.35 -3.3 3.05 -2.45 2.65 0.45 1.1 M2.6 10.4 L3.4 10.55 6.45 10.55" fill="none" stroke="#020202" stroke-linecap="round" stroke-linejoin="round" stroke-width="1.0"/>
    <path d="M11.3 2.85 L9.9 12.25 M-2.45 2.65 L-0.95 12.1" fill="none" stroke="#511313" stroke-linecap="round" stroke-linejoin="round" stroke-width="1.0"/>
  </g>
</svg>
