<?xml version="1.0" encoding="UTF-8" standalone="no"?>
<svg xmlns:ffdec="https://www.free-decompiler.com/flash" xmlns:xlink="http://www.w3.org/1999/xlink" ffdec:objectType="shape" height="21.1px" width="14.4px" xmlns="http://www.w3.org/2000/svg">
  <g transform="matrix(1.0, 0.0, 0.0, 1.0, 3.55, 2.9)">
    <path d="M3.35 1.35 L3.35 8.95 4.2 13.2 4.1 17.7 4.2 13.2 3.35 8.95 3.35 1.35 M-0.75 6.9 L-0.75 6.85 -1.15 4.35 Q-1.35 2.2 0.0 0.6 1.3 -1.0 3.5 -1.2 5.7 -1.4 6.85 0.4 7.95 2.2 8.05 4.35 L8.05 6.75 4.85 8.4 6.1 10.3 Q5.2 13.9 6.8 16.05 L5.95 16.95 Q5.05 17.6 4.1 17.7 L3.6 17.7 Q2.7 17.6 1.8 16.95 L0.95 16.25 1.9 14.1 Q2.65 14.1 1.95 10.8 2.45 9.6 -0.75 6.9 M2.75 1.4 L2.75 8.85 3.5 12.85 3.6 17.7 3.5 12.85 2.75 8.85 2.75 1.4" fill="#222222" fill-rule="evenodd" stroke="none"/>
    <path d="M-0.75 6.9 Q2.45 9.6 1.95 10.8 2.65 14.1 1.9 14.1 L0.95 16.25 Q-0.1 15.2 -0.8 13.55 L-1.7 10.0 -0.8 8.8 Q-1.05 7.95 -0.75 6.9 M8.05 6.75 L8.0 7.2 7.6 10.0 8.15 12.7 6.8 16.05 Q5.2 13.9 6.1 10.3 L4.85 8.4 8.05 6.75" fill="#171717" fill-rule="evenodd" stroke="none"/>
    <path d="M4.1 17.7 L4.2 13.2 3.35 8.95 3.35 1.35 M3.6 17.7 L3.5 12.85 2.75 8.85 2.75 1.4" fill="none" stroke="#440000" stroke-linecap="round" stroke-linejoin="round" stroke-width="1.0"/>
    <path d="M8.05 6.75 L8.05 4.35 Q7.95 2.2 6.85 0.4 5.7 -1.4 3.5 -1.2 1.3 -1.0 0.0 0.6 -1.35 2.2 -1.15 4.35 L-0.75 6.85 -0.75 6.9 Q-1.05 7.95 -0.8 8.8 L-1.7 10.0 -0.8 13.55 Q-0.1 15.2 0.95 16.25 L1.8 16.95 Q2.7 17.6 3.6 17.7 L4.1 17.7 Q5.05 17.6 5.95 16.95 L6.8 16.05 8.15 12.7 7.6 10.0 8.0 7.2 8.05 6.75 Z" fill="none" stroke="#0b0b0b" stroke-linecap="round" stroke-linejoin="round" stroke-width="1.0"/>
    <path d="M6.25 -1.9 L8.55 -1.3 8.55 1.2 8.55 4.05 8.55 1.2 10.35 2.35 9.45 5.95 8.05 5.95 8.55 5.1 8.55 4.05 6.85 4.05 5.6 3.8 5.6 3.7 5.45 3.7 5.45 3.8 4.7 3.7 4.65 3.45 4.7 3.3 4.75 3.2 4.85 3.1 4.85 2.95 4.95 2.95 5.0 2.9 5.1 2.8 5.0 2.65 5.15 2.55 5.15 2.65 5.25 2.6 5.35 2.55 5.45 2.55 5.6 2.4 5.7 2.4 5.85 2.4 5.9 2.3 5.9 2.2 5.7 2.05 5.7 1.95 5.45 1.9 5.35 1.35 5.15 1.1 5.0 1.05 4.95 1.05 4.75 0.95 4.45 0.85 4.15 0.85 4.0 0.8 3.85 0.75 3.7 0.75 3.55 0.75 3.45 0.85 3.3 0.8 3.25 0.8 3.15 0.75 3.1 0.8 2.6 1.05 2.4 1.05 2.2 1.15 2.05 1.35 1.9 1.55 1.6 1.8 1.45 2.05 1.4 2.1 1.4 2.3 1.4 2.35 1.6 2.4 Q1.65 2.55 1.85 2.55 L2.1 2.65 2.3 2.6 2.3 2.8 2.4 2.85 2.55 2.85 2.6 2.85 2.65 3.15 2.65 3.45 2.65 3.6 1.45 3.75 0.5 3.85 0.5 3.9 -1.1 3.85 -1.1 1.0 -1.1 3.85 -1.1 4.85 -0.45 5.75 -2.35 5.75 -3.05 2.35 -1.1 1.0 -1.1 -1.3 1.25 -1.85 1.25 -0.45 6.25 -0.45 6.25 -1.9 M3.7 3.6 L3.75 3.45 3.75 3.2 3.7 2.95 3.55 2.85 3.6 2.2 3.7 1.95 3.6 1.75 3.7 1.6 3.6 1.15 3.6 0.95 3.7 1.05 3.9 1.05 3.9 1.1 3.85 1.4 3.9 1.55 4.0 1.55 4.0 1.65 3.9 1.75 3.85 1.8 3.75 1.8 3.7 1.95 3.75 2.8 3.9 2.95 3.9 3.2 3.85 3.55 3.75 3.6 3.7 3.6" fill="#363636" fill-rule="evenodd" stroke="none"/>
    <path d="M2.6 5.9 L2.7 5.95 2.7 6.1 2.85 6.3 2.85 6.35 2.7 6.2 2.65 6.1 2.6 6.05 2.6 5.9" fill="#232323" fill-rule="evenodd" stroke="none"/>
    <path d="M2.65 3.6 L2.65 3.45 2.65 3.15 2.6 2.85 2.55 2.85 2.4 2.85 2.3 2.8 2.3 2.6 2.1 2.65 1.85 2.55 Q1.65 2.55 1.6 2.4 L1.4 2.35 1.4 2.3 1.4 2.1 1.45 2.05 1.6 1.8 1.9 1.55 2.05 1.35 2.2 1.15 2.4 1.05 2.6 1.05 3.1 0.8 3.15 0.75 3.25 0.8 3.3 0.8 3.45 0.85 3.55 0.75 3.7 0.75 3.85 0.75 4.0 0.8 4.15 0.85 4.45 0.85 4.75 0.95 4.95 1.05 5.0 1.05 5.15 1.1 5.35 1.35 5.45 1.9 5.7 1.95 5.7 2.05 5.9 2.2 5.9 2.3 5.85 2.4 5.7 2.4 5.6 2.4 5.45 2.55 5.35 2.55 5.25 2.6 5.15 2.65 5.15 2.55 5.0 2.65 5.1 2.8 5.0 2.9 4.95 2.95 4.85 2.95 4.85 3.1 4.75 3.2 4.7 3.3 4.65 3.45 4.7 3.7 4.7 3.8 3.75 3.7 3.75 3.6 3.85 3.55 3.9 3.2 3.9 2.95 3.75 2.8 3.7 1.95 3.75 1.8 3.85 1.8 3.9 1.75 4.0 1.65 4.0 1.55 3.9 1.55 3.85 1.4 3.9 1.1 3.9 1.05 3.7 1.05 3.6 0.95 3.6 1.15 3.7 1.6 3.6 1.75 3.7 1.95 3.6 2.2 3.55 2.85 3.7 2.95 3.75 3.2 3.75 3.45 3.7 3.6 3.6 3.7 2.6 3.7 2.65 3.6 M5.45 3.8 L5.45 3.7 5.6 3.7 5.6 3.8 5.6 3.9 5.35 3.85 5.4 3.8 5.45 3.8" fill="#440000" fill-rule="evenodd" stroke="none"/>
    <path d="M5.35 3.85 L5.6 3.9 5.6 4.05 Q5.45 4.1 5.6 4.15 L5.65 4.2 5.45 4.4 5.4 4.45 5.35 4.65 5.25 4.55 5.15 4.55 5.15 4.4 5.15 4.2 5.35 4.15 5.35 4.05 5.35 3.85 M4.7 3.8 L4.7 4.0 4.7 4.1 4.75 4.4 4.95 4.7 4.95 4.8 5.1 4.65 5.25 4.65 5.35 4.7 5.35 4.85 5.25 5.1 5.1 5.15 5.1 5.35 5.0 5.4 4.95 5.6 4.85 5.65 4.85 5.7 4.75 5.7 4.75 5.45 4.85 5.15 4.95 5.05 4.95 4.8 4.65 5.4 4.7 5.45 4.7 5.7 4.7 5.85 4.55 6.05 4.45 6.1 4.45 6.35 4.55 6.35 4.7 6.2 4.7 6.35 4.65 6.4 4.55 6.65 4.55 6.85 4.45 7.2 4.35 7.3 4.2 7.5 4.15 7.75 4.15 7.2 4.35 6.5 4.2 6.1 4.35 5.9 4.35 5.7 4.2 5.45 4.2 5.35 4.2 5.15 4.2 5.1 4.1 5.05 4.15 4.95 4.15 4.85 4.0 4.7 4.0 4.8 3.85 4.7 3.75 4.55 3.75 4.15 3.75 3.95 3.7 3.85 3.75 3.7 4.7 3.8 M3.6 3.7 L3.6 3.95 3.6 4.1 3.6 4.55 Q3.55 4.55 3.45 4.65 L3.2 5.05 3.2 5.25 3.15 5.4 3.15 5.6 2.95 5.7 2.95 5.9 3.1 6.05 3.2 7.7 2.95 7.2 2.9 7.1 2.85 6.95 2.85 6.85 2.9 6.7 2.65 6.35 2.55 6.3 2.55 6.1 2.4 6.05 2.4 5.95 2.4 5.85 2.55 5.65 2.6 5.85 2.65 5.4 2.6 5.15 2.55 5.05 Q2.4 4.85 2.55 4.55 L2.6 4.1 2.6 3.95 2.6 3.8 2.6 3.7 3.6 3.7 M2.4 4.8 L2.4 4.85 2.55 5.25 2.55 5.45 2.4 5.4 2.3 5.4 2.1 5.25 2.05 5.15 1.95 5.05 1.9 4.85 1.9 4.7 1.95 4.7 2.2 4.7 2.35 4.7 2.4 4.8 M2.6 5.9 L2.6 6.05 2.65 6.1 2.7 6.2 2.85 6.35 2.85 6.3 2.7 6.1 2.7 5.95 2.6 5.9" fill="#2e0000" fill-rule="evenodd" stroke="none"/>
    <path d="M6.25 -1.9 L6.25 -0.45 1.25 -0.45 1.25 -1.85 Q3.7 -2.95 6.25 -1.9" fill="#ff3333" fill-rule="evenodd" stroke="none"/>
    <path d="M-1.1 3.85 L0.5 3.9 0.5 3.85 1.45 3.75 2.65 3.6 2.6 3.7 2.6 3.8 2.6 3.95 2.6 4.1 2.55 4.55 Q2.4 4.85 2.55 5.05 L2.6 5.15 2.65 5.4 2.6 5.85 2.55 5.65 2.4 5.85 2.4 5.95 2.4 6.05 2.55 6.1 2.55 6.3 2.65 6.35 2.9 6.7 2.85 6.85 2.85 6.95 2.9 7.1 2.95 7.2 3.2 7.7 3.1 6.05 2.95 5.9 2.95 5.7 3.15 5.6 3.15 5.4 3.2 5.25 3.2 5.05 3.45 4.65 Q3.55 4.55 3.6 4.55 L3.6 4.1 3.6 3.95 3.6 3.7 3.7 3.6 3.75 3.6 3.75 3.7 3.7 3.85 3.75 3.95 3.75 4.15 3.75 4.55 3.85 4.7 4.0 4.8 4.0 4.7 4.15 4.85 4.15 4.95 4.1 5.05 4.2 5.1 4.2 5.15 4.2 5.35 4.2 5.45 4.35 5.7 4.35 5.9 4.2 6.1 4.35 6.5 4.15 7.2 4.15 7.75 4.2 7.5 4.35 7.3 4.45 7.2 4.55 6.85 4.55 6.65 4.65 6.4 4.7 6.35 4.7 6.2 4.55 6.35 4.45 6.35 4.45 6.1 4.55 6.05 4.7 5.85 4.7 5.7 4.7 5.45 4.65 5.4 4.95 4.8 4.95 5.05 4.85 5.15 4.75 5.45 4.75 5.7 4.85 5.7 4.85 5.65 4.95 5.6 5.0 5.4 5.1 5.35 5.1 5.15 5.25 5.1 5.35 4.85 5.35 4.7 5.25 4.65 5.1 4.65 4.95 4.8 4.95 4.7 4.75 4.4 4.7 4.1 4.7 4.0 4.7 3.8 4.7 3.7 5.45 3.8 5.4 3.8 5.35 3.85 5.35 4.05 5.35 4.15 5.15 4.2 5.15 4.4 5.15 4.55 5.25 4.55 5.35 4.65 5.4 4.45 5.45 4.4 5.65 4.2 5.6 4.15 Q5.45 4.1 5.6 4.05 L5.6 3.9 5.6 3.8 6.85 4.05 8.55 4.05 8.55 5.1 8.05 5.95 7.6 6.8 6.9 8.8 0.85 8.8 0.2 6.7 -0.45 5.75 -1.1 4.85 -1.1 3.85 M2.4 4.8 L2.35 4.7 2.2 4.7 1.95 4.7 1.9 4.7 1.9 4.85 1.95 5.05 2.05 5.15 2.1 5.25 2.3 5.4 2.4 5.4 2.55 5.45 2.55 5.25 2.4 4.85 2.4 4.8" fill="#2a2a2a" fill-rule="evenodd" stroke="none"/>
    <path d="M-1.1 1.0 L-1.1 3.85 -1.1 4.85 -0.45 5.75 -2.35 5.75 -3.05 2.35 -1.1 1.0 M8.55 4.05 L8.55 1.2 10.35 2.35 9.45 5.95 8.05 5.95 7.6 6.8 6.9 8.8 0.85 8.8 0.2 6.7 -0.45 5.75 M8.05 5.95 L8.55 5.1 8.55 4.05" fill="none" stroke="#111111" stroke-linecap="round" stroke-linejoin="round" stroke-width="1.0"/>
    <path d="M8.55 1.2 L8.55 -1.3 6.25 -1.9 M1.25 -1.85 L-1.1 -1.3 -1.1 1.0" fill="none" stroke="#171717" stroke-linecap="round" stroke-linejoin="round" stroke-width="1.0"/>
    <path d="M6.25 -1.9 L6.25 -0.45 1.25 -0.45 1.25 -1.85 Q3.7 -2.95 6.25 -1.9 Z" fill="none" stroke="#580000" stroke-linecap="round" stroke-linejoin="round" stroke-width="1.0"/>
  </g>
</svg>
