<?xml version="1.0" encoding="UTF-8" standalone="no"?>
<svg xmlns:ffdec="https://www.free-decompiler.com/flash" xmlns:xlink="http://www.w3.org/1999/xlink" ffdec:objectType="shape" height="22.65px" width="17.45px" xmlns="http://www.w3.org/2000/svg">
  <g transform="matrix(1.0, 0.0, 0.0, 1.0, 10.65, 6.0)">
    <path d="M-7.8 7.65 L1.1 10.25 -0.35 15.15 Q-6.1 18.0 -9.25 12.55 L-7.8 7.65" fill="#333333" fill-rule="evenodd" stroke="none"/>
    <path d="M-7.8 7.65 L1.1 10.25 -0.35 15.15 Q-6.1 18.0 -9.25 12.55 L-7.8 7.65 Z" fill="none" stroke="#2d2423" stroke-linecap="round" stroke-linejoin="round" stroke-width="1.0"/>
    <path d="M5.6 -1.55 L5.85 -1.5 5.8 -1.3 4.45 3.8 2.15 5.4 4.6 -2.35 5.6 -1.55 M-6.3 -3.4 L-5.9 -4.75 -4.0 -5.15 -6.2 3.05 -6.65 1.85 -7.0 1.8 -6.85 1.4 Q-7.0 -0.7 -6.3 -3.4" fill="#660000" fill-rule="evenodd" stroke="none"/>
    <path d="M-4.0 -5.15 L-2.2 -5.5 2.5 -4.05 4.6 -2.35 2.15 5.4 -0.55 7.3 -4.9 6.1 -6.2 3.05 -4.0 -5.15" fill="url(#gradient0)" fill-rule="evenodd" stroke="none"/>
    <path d="M5.8 -1.3 L6.0 -1.25 4.45 3.8 5.8 -1.3 M-7.4 0.3 L-6.3 -3.4 Q-7.0 -0.7 -6.85 1.4 L-7.4 0.3" fill="#8a8580" fill-rule="evenodd" stroke="none"/>
    <path d="M4.45 3.8 L6.3 4.35 Q5.55 9.05 2.15 12.05 L-1.0 13.5 -2.15 13.15 -2.9 11.3 -0.55 7.3 2.15 5.4 4.45 3.8 M-5.05 10.5 L-6.7 11.7 -7.85 11.4 -9.7 8.8 Q-10.85 3.95 -9.05 -0.25 L-7.4 0.3 -6.85 1.4 -7.0 1.8 -6.65 1.85 -6.2 3.05 -4.9 6.1 -5.05 10.5" fill="#4d4946" fill-rule="evenodd" stroke="none"/>
    <path d="M-2.9 11.3 L-2.95 11.15 -5.05 10.5 -4.9 6.1 -0.55 7.3 -2.9 11.3" fill="#333333" fill-rule="evenodd" stroke="none"/>
    <path d="M5.8 -1.3 L6.0 -1.25 4.45 3.8 6.3 4.35 Q5.55 9.05 2.15 12.05 L-1.0 13.5 -2.15 13.15 -2.9 11.3 -2.95 11.15 -5.05 10.5 -6.7 11.7 -7.85 11.4 -9.7 8.8 Q-10.85 3.95 -9.05 -0.25 L-7.4 0.3 -6.3 -3.4 -5.9 -4.75 -4.0 -5.15 -2.2 -5.5 2.5 -4.05 4.6 -2.35 5.6 -1.55 M4.45 3.8 L2.15 5.4 -0.55 7.3 -2.9 11.3 M-6.85 1.4 L-7.4 0.3 M-6.65 1.85 L-6.2 3.05 -4.9 6.1 -0.55 7.3 M-4.9 6.1 L-5.05 10.5" fill="none" stroke="#2b2927" stroke-linecap="round" stroke-linejoin="round" stroke-width="1.0"/>
  </g>
  <defs>
    <radialGradient cx="0" cy="0" gradientTransform="matrix(0.0084, 0.0, 0.0, 0.0084, -0.8, 0.9)" gradientUnits="userSpaceOnUse" id="gradient0" r="819.2" spreadMethod="pad">
      <stop offset="0.0" stop-color="#8a8580"/>
      <stop offset="1.0" stop-color="#6d6965"/>
      <stop offset="1.0" stop-color="#333333"/>
    </radialGradient>
  </defs>
</svg>
