<?xml version="1.0" encoding="UTF-8" standalone="no"?>
<svg xmlns:xlink="http://www.w3.org/1999/xlink" height="11.2px" width="16.8px" xmlns="http://www.w3.org/2000/svg">
  <g transform="matrix(1.0, 0.0, 0.0, 1.0, 5.3, 3.9)">
    <path d="M-2.15 0.2 Q-0.5 -5.25 3.75 -2.4 0.95 -2.65 0.65 0.4 L-2.15 0.2" fill="#434343" fill-rule="evenodd" stroke="none"/>
    <path d="M7.05 -0.15 Q11.45 1.5 10.95 6.55 L1.6 6.25 Q0.5 5.65 0.6 4.45 L0.15 2.65 Q3.15 3.2 7.05 -0.15" fill="url(#gradient0)" fill-rule="evenodd" stroke="none"/>
    <path d="M3.75 -2.4 L7.05 -0.15 Q3.15 3.2 0.15 2.65 L0.65 0.4 Q0.95 -2.65 3.75 -2.4" fill="#959595" fill-rule="evenodd" stroke="none"/>
    <path d="M0.6 4.45 L-0.5 5.55 -4.3 5.55 -4.8 4.7 Q-3.85 0.45 -2.15 0.2 L0.65 0.4 0.15 2.65 0.6 4.45" fill="#888888" fill-rule="evenodd" stroke="none"/>
    <path d="M-2.15 0.2 Q-0.5 -5.25 3.75 -2.4 M0.65 0.4 L-2.15 0.2" fill="none" stroke="#222222" stroke-linecap="round" stroke-linejoin="round" stroke-width="1.0"/>
    <path d="M10.95 6.55 L1.6 6.25 Q0.5 5.65 0.6 4.45 L-0.5 5.55 -4.3 5.55 -4.8 4.7 Q-3.85 0.45 -2.15 0.2 M0.6 4.45 L0.15 2.65" fill="none" stroke="#4d4d4d" stroke-linecap="round" stroke-linejoin="round" stroke-width="1.0"/>
    <path d="M3.75 -2.4 L7.05 -0.15 Q3.15 3.2 0.15 2.65 L0.65 0.4 Q0.95 -2.65 3.75 -2.4" fill="none" stroke="#484848" stroke-linecap="round" stroke-linejoin="round" stroke-width="1.0"/>
    <path d="M7.05 -0.15 Q11.45 1.5 10.95 6.55" fill="none" stroke="#6a6a6a" stroke-linecap="round" stroke-linejoin="round" stroke-width="1.0"/>
  </g>
  <defs>
    <linearGradient gradientTransform="matrix(0.0047, -0.0027, 0.0027, 0.0046, 6.05, 4.25)" gradientUnits="userSpaceOnUse" id="gradient0" spreadMethod="pad" x1="-819.2" x2="819.2">
      <stop offset="0.0" stop-color="#a6a6a6"/>
      <stop offset="0.21176470588235294" stop-color="#7b7b7b"/>
      <stop offset="1.0" stop-color="#dddddd"/>
    </linearGradient>
  </defs>
</svg>
