<?xml version="1.0" encoding="UTF-8" standalone="no"?>
<svg xmlns:xlink="http://www.w3.org/1999/xlink" height="14.2px" width="42.5px" xmlns="http://www.w3.org/2000/svg">
  <g transform="matrix(1.0, 0.0, 0.0, 1.0, 12.2, 7.75)">
    <path d="M9.5 -5.95 L8.3 -2.6 9.8 2.05 8.45 4.25 1.85 4.25 0.45 2.35 -1.9 2.35 -2.75 1.35 -4.15 -0.2 -4.15 -2.35 -2.75 -4.8 -1.35 -7.25 7.6 -7.25 9.5 -5.95" fill="#000000" fill-rule="evenodd" stroke="none"/>
    <path d="M8.3 -2.6 L9.5 -5.95 13.05 -5.95 16.05 -4.4 16.05 -3.05 16.8 -2.6 8.3 -2.6" fill="#b10101" fill-rule="evenodd" stroke="none"/>
    <path d="M9.8 2.05 L8.3 -2.6 16.8 -2.6 19.9 -0.75 20.65 0.65 16.25 2.05 9.8 2.05 M14.0 -0.2 L12.45 -0.1 14.0 -0.2 M18.0 -0.45 L16.05 -0.35 18.0 -0.45" fill="#333333" fill-rule="evenodd" stroke="none"/>
    <path d="M16.8 -2.6 L16.05 -3.05 16.05 -4.4 16.05 -5.75 28.85 -5.75 29.8 -5.1 29.8 2.2 27.2 4.4 27.2 5.95 18.6 5.95 16.25 2.05 20.65 0.65 19.9 -0.75 16.8 -2.6 M26.1 -4.35 L18.9 -4.35 26.1 -4.35 M25.15 3.05 L27.15 1.05 27.15 -1.3 27.15 1.05 25.15 3.05 M21.4 3.05 L23.4 1.05 23.4 -1.3 23.4 1.05 21.4 3.05" fill="#555555" fill-rule="evenodd" stroke="none"/>
    <path d="M16.05 -4.4 L13.05 -5.95 9.5 -5.95" fill="none" stroke="#770000" stroke-linecap="round" stroke-linejoin="round" stroke-width="1.0"/>
    <path d="M8.3 -2.6 L9.5 -5.95 7.6 -7.25 -1.35 -7.25 -2.75 -4.8 -4.15 -2.35 -4.15 -0.2 -2.75 1.35 -1.9 2.35 0.45 2.35 1.85 4.25 8.45 4.25 9.8 2.05 8.3 -2.6 M16.25 2.05 L9.8 2.05" fill="none" stroke="#151515" stroke-linecap="round" stroke-linejoin="round" stroke-width="1.0"/>
    <path d="M12.45 -0.1 L14.0 -0.2 M16.05 -0.35 L18.0 -0.45" fill="none" stroke="#090909" stroke-linecap="round" stroke-linejoin="round" stroke-width="1.0"/>
    <path d="M16.8 -2.6 L16.05 -3.05 16.05 -4.4 16.05 -5.75 28.85 -5.75 29.8 -5.1 29.8 2.2 27.2 4.4 27.2 5.95 18.6 5.95 16.25 2.05 20.65 0.65 19.9 -0.75 16.8 -2.6 M18.9 -4.35 L26.1 -4.35 M23.4 -1.3 L23.4 1.05 21.4 3.05 M27.15 -1.3 L27.15 1.05 25.15 3.05" fill="none" stroke="#404040" stroke-linecap="round" stroke-linejoin="round" stroke-width="1.0"/>
    <path d="M-2.75 -4.8 Q-7.05 -6.8 -9.85 -4.4 -12.6 -2.0 -11.25 1.2 -9.95 4.35 -6.0 4.65 -2.05 4.9 0.45 2.35" fill="none" stroke="#990000" stroke-linecap="round" stroke-linejoin="round" stroke-width="1.0"/>
  </g>
</svg>
