<?xml version="1.0" encoding="UTF-8" standalone="no"?>
<svg xmlns:ffdec="https://www.free-decompiler.com/flash" xmlns:xlink="http://www.w3.org/1999/xlink" ffdec:objectType="shape" height="21.95px" width="11.3px" xmlns="http://www.w3.org/2000/svg">
  <g transform="matrix(1.0, 0.0, 0.0, 1.0, 3.4, 3.65)">
    <path d="M-1.7 -0.55 L0.3 -2.1 Q2.4 -3.15 3.25 -0.75 L5.4 6.35 Q6.35 10.65 5.2 11.4 3.95 12.2 2.8 11.7 1.75 11.25 1.25 10.05 L-0.6 4.3 Q-1.95 -0.3 -1.7 -0.55" fill="#201f1f" fill-rule="evenodd" stroke="none"/>
    <path d="M-1.7 -0.55 L0.3 -2.1 Q2.4 -3.15 3.25 -0.75 L5.4 6.35 Q6.35 10.65 5.2 11.4 3.95 12.2 2.8 11.7 1.75 11.25 1.25 10.05 L-0.6 4.3 Q-1.95 -0.3 -1.7 -0.55 Z" fill="none" stroke="#000000" stroke-linecap="round" stroke-linejoin="round" stroke-width="0.9500000000000001"/>
    <path d="M1.6 10.5 L5.65 9.2 6.2 10.3 6.9 13.4 Q7.15 15.6 6.15 16.95 L5.1 17.85 Q3.4 17.5 2.85 15.9 2.4 14.8 2.65 13.6 2.8 12.95 2.5 12.35 1.85 11.4 1.6 10.5" fill="#201f1f" fill-rule="evenodd" stroke="none"/>
    <path d="M1.6 10.5 Q1.85 11.4 2.5 12.35 2.8 12.95 2.65 13.6 2.4 14.8 2.85 15.9 3.4 17.5 5.1 17.85 L6.15 16.95 Q7.15 15.6 6.9 13.4 L6.2 10.3 5.65 9.2" fill="none" stroke="#000000" stroke-linecap="round" stroke-linejoin="round" stroke-width="0.9500000000000001"/>
    <path d="M1.2 10.35 Q0.6 9.65 -0.4 6.45 L-1.35 3.35 -2.3 3.1 Q-3.0 1.25 -2.95 -0.1 L-2.8 -1.05 Q-1.75 -2.5 0.95 -3.2 L1.5 -1.65 Q2.1 -0.1 2.4 0.15 L4.3 0.7 5.4 4.3 Q6.45 8.15 6.3 9.75 L3.95 10.5 3.3 10.1 1.2 10.35" fill="url(#gradient0)" fill-rule="evenodd" stroke="none"/>
    <path d="M2.95 3.7 L1.3 3.75 0.55 3.85 -0.2 2.95 2.5 2.65 2.95 3.7" fill="#201f1f" fill-rule="evenodd" stroke="none"/>
    <path d="M2.95 3.7 L1.3 3.75 0.55 3.85 -0.2 2.95 2.5 2.65 2.95 3.7 Z" fill="none" stroke="#201f1f" stroke-linecap="round" stroke-linejoin="round" stroke-width="0.7000000000000001"/>
    <path d="M5.05 3.9 L3.8 3.8 4.35 5.8 5.8 6.1 M-1.35 3.35 Q-0.8 3.05 -0.05 2.85 L2.5 2.65 2.95 3.7 3.8 3.8" fill="none" stroke="#877b6a" stroke-linecap="round" stroke-linejoin="round" stroke-width="0.9500000000000001"/>
    <path d="M1.2 10.35 Q0.6 9.65 -0.4 6.45 L-1.35 3.35 -2.3 3.1 Q-3.0 1.25 -2.95 -0.1 L-2.8 -1.05 Q-1.75 -2.5 0.95 -3.2 L1.5 -1.65 Q2.1 -0.1 2.4 0.15 L4.3 0.7 5.4 4.3 Q6.45 8.15 6.3 9.75 L3.95 10.5 3.3 10.1 1.2 10.35 Z" fill="none" stroke="#2c2924" stroke-linecap="round" stroke-linejoin="round" stroke-width="0.9500000000000001"/>
    <path d="M6.9 11.6 L7.15 12.2 7.45 13.95 Q7.5 15.7 6.15 16.6 L4.15 16.05 Q3.95 16.0 3.25 14.45 3.15 12.3 5.0 11.75 L6.9 11.6" fill="#ada08e" fill-rule="evenodd" stroke="none"/>
    <path d="M6.9 11.6 L5.0 11.75 Q3.15 12.3 3.25 14.45 3.95 16.0 4.15 16.05 L6.15 16.6 Q7.5 15.7 7.45 13.95 L7.15 12.2 6.9 11.6 Z" fill="none" stroke="#2c2924" stroke-linecap="round" stroke-linejoin="round" stroke-width="0.9500000000000001"/>
  </g>
  <defs>
    <linearGradient gradientTransform="matrix(0.0053, 0.001, -0.001, 0.0053, 0.55, 3.45)" gradientUnits="userSpaceOnUse" id="gradient0" spreadMethod="pad" x1="-819.2" x2="819.2">
      <stop offset="0.0" stop-color="#95856c"/>
      <stop offset="1.0" stop-color="#ada08e"/>
    </linearGradient>
  </defs>
</svg>
