<?xml version="1.0" encoding="UTF-8" standalone="no"?>
<svg xmlns:ffdec="https://www.free-decompiler.com/flash" xmlns:xlink="http://www.w3.org/1999/xlink" ffdec:objectType="shape" height="11.2px" width="16.8px" xmlns="http://www.w3.org/2000/svg">
  <g transform="matrix(1.0, 0.0, 0.0, 1.0, 5.3, 3.9)">
    <path d="M3.75 -2.4 L7.05 -0.15 Q5.05 1.6 3.25 2.3 1.15 2.55 0.05 2.3 L-0.5 0.35 Q0.95 -2.65 3.75 -2.4" fill="url(#gradient0)" fill-rule="evenodd" stroke="none"/>
    <path d="M7.05 -0.15 Q11.45 1.5 10.95 6.55 L1.6 6.25 Q0.5 5.65 0.6 4.45 L2.35 3.95 3.25 2.3 Q5.05 1.6 7.05 -0.15" fill="#161b1d" fill-rule="evenodd" stroke="none"/>
    <path d="M0.6 4.45 L-0.5 5.55 -4.3 5.55 -4.8 4.7 Q-3.85 0.45 -2.15 0.2 L-0.5 0.35 0.05 2.3 Q1.15 2.55 3.25 2.3 L2.35 3.95 0.6 4.45" fill="url(#gradient1)" fill-rule="evenodd" stroke="none"/>
    <path d="M-2.15 0.2 Q-0.5 -5.25 3.75 -2.4 0.95 -2.65 -0.5 0.35 L-2.15 0.2" fill="#131f28" fill-rule="evenodd" stroke="none"/>
    <path d="M3.75 -2.4 L7.05 -0.15 Q11.45 1.5 10.95 6.55 L1.6 6.25 Q0.5 5.65 0.6 4.45 L-0.5 5.55 -4.3 5.55 -4.8 4.7 Q-3.85 0.45 -2.15 0.2" fill="none" stroke="#070a0a" stroke-linecap="round" stroke-linejoin="round" stroke-width="1.0"/>
    <path d="M-0.5 0.35 L0.05 2.3 Q1.15 2.55 3.25 2.3 5.05 1.6 7.05 -0.15 M3.25 2.3 L2.35 3.95 0.6 4.45" fill="none" stroke="#0e1314" stroke-linecap="round" stroke-linejoin="round" stroke-width="1.0"/>
    <path d="M-2.15 0.2 Q-0.5 -5.25 3.75 -2.4 0.95 -2.65 -0.5 0.35 L-2.15 0.2 Z" fill="none" stroke="#090f11" stroke-linecap="round" stroke-linejoin="round" stroke-width="1.0"/>
  </g>
  <defs>
    <radialGradient cx="0" cy="0" gradientTransform="matrix(0.0112, 0.0, 0.0, 0.0112, -1.0, 4.3)" gradientUnits="userSpaceOnUse" id="gradient0" r="819.2" spreadMethod="pad">
      <stop offset="0.0" stop-color="#1d2b38"/>
      <stop offset="0.6588235294117647" stop-color="#27363f"/>
      <stop offset="1.0" stop-color="#4d6277"/>
    </radialGradient>
    <radialGradient cx="0" cy="0" gradientTransform="matrix(0.0112, 0.0, 0.0, 0.0112, 3.8, 5.4)" gradientUnits="userSpaceOnUse" id="gradient1" r="819.2" spreadMethod="pad">
      <stop offset="0.0" stop-color="#1d2b38"/>
      <stop offset="0.6588235294117647" stop-color="#27363f"/>
      <stop offset="1.0" stop-color="#4d6277"/>
    </radialGradient>
  </defs>
</svg>
