<?xml version="1.0" encoding="UTF-8" standalone="no"?>
<svg xmlns:ffdec="https://www.free-decompiler.com/flash" xmlns:xlink="http://www.w3.org/1999/xlink" ffdec:objectType="shape" height="22.25px" width="15.7px" xmlns="http://www.w3.org/2000/svg">
  <g transform="matrix(1.0, 0.0, 0.0, 1.0, 0.5, 0.5)">
    <path d="M12.95 4.45 L12.95 7.15 8.85 11.95 8.85 7.2 7.55 5.35 6.3 5.35 5.25 7.35 5.25 11.9 1.55 7.0 1.55 4.4 4.25 2.9 4.75 3.9 9.35 3.9 9.9 2.85 12.95 4.45 M14.65 7.75 L13.45 15.8 11.65 17.2 10.65 17.95 9.55 17.95 9.55 15.6 5.25 15.6 5.25 17.8 4.05 17.8 3.1 17.05 1.7 15.95 0.25 8.35 4.6 13.75 9.65 13.75 14.65 7.75" fill="#746e69" fill-rule="evenodd" stroke="none"/>
    <path d="M11.65 17.2 L11.65 19.1 Q7.4 23.45 3.1 19.1 L3.1 17.05 4.05 17.8 5.25 17.8 5.25 15.6 9.55 15.6 9.55 17.95 10.65 17.95 11.65 17.2" fill="#54504d" fill-rule="evenodd" stroke="none"/>
    <path d="M12.95 7.15 L14.7 7.15 14.65 7.75 9.65 13.75 4.6 13.75 0.25 8.35 0.0 7.0 1.55 7.0 5.25 11.9 5.25 7.35 6.3 5.35 7.55 5.35 8.85 7.2 8.85 11.95 12.95 7.15 M1.55 4.4 L1.55 1.8 4.65 0.0 5.45 1.65 8.55 1.65 9.2 0.05 12.95 1.8 12.95 4.45 9.9 2.85 9.35 3.9 4.75 3.9 4.25 2.9 1.55 4.4 M5.25 11.9 L8.85 11.95 5.25 11.9" fill="#446679" fill-rule="evenodd" stroke="none"/>
    <path d="M12.95 4.45 L12.95 7.15 14.7 7.15 14.65 7.75 13.45 15.8 11.65 17.2 11.65 19.1 Q7.4 23.45 3.1 19.1 L3.1 17.05 1.7 15.95 0.25 8.35 0.0 7.0 1.55 7.0 1.55 4.4 1.55 1.8 4.65 0.0 5.45 1.65 8.55 1.65 9.2 0.05 12.95 1.8 12.95 4.45 M1.55 7.0 L5.25 11.9 5.25 7.35 6.3 5.35 7.55 5.35 8.85 7.2 8.85 11.95 12.95 7.15 M8.85 11.95 L5.25 11.9 M11.65 17.2 L10.65 17.95 9.55 17.95 9.55 15.6 5.25 15.6 5.25 17.8 4.05 17.8 3.1 17.05" fill="none" stroke="#21201f" stroke-linecap="round" stroke-linejoin="round" stroke-width="1.0"/>
  </g>
</svg>
