<?xml version="1.0" encoding="UTF-8" standalone="no"?>
<svg xmlns:ffdec="https://www.free-decompiler.com/flash" xmlns:xlink="http://www.w3.org/1999/xlink" ffdec:objectType="shape" height="18.55px" width="12.05px" xmlns="http://www.w3.org/2000/svg">
  <g transform="matrix(1.0, 0.0, 0.0, 1.0, 8.9, 3.35)">
    <path d="M-4.5 -0.25 L-4.45 -0.35 Q-4.3 -1.25 -3.75 -1.85 -2.6 -3.1 -0.85 -2.8 1.1 -2.8 1.95 -1.8 3.2 -0.55 2.2 1.25 L2.15 1.7 1.6 2.4 0.3 1.85 -4.5 -0.25 M0.15 8.15 L0.15 8.25 Q0.0 9.4 -0.45 9.95 L-1.35 11.15 -2.3 12.0 -2.9 13.15 Q-3.4 14.0 -5.0 14.5 L-6.8 14.7 Q-8.0 14.55 -8.25 13.4 L-8.25 12.6 -3.45 11.6 0.15 8.15 M-7.25 6.8 L-7.5 6.5 -8.3 5.6 Q-8.45 4.65 -8.15 4.45 L-7.65 4.0 Q-7.4 3.75 -7.15 3.8 L-6.7 3.7 -6.0 4.0 -5.8 3.45 -2.65 4.75 -1.2 5.35 -3.55 7.9 -5.6 8.35 -5.75 8.4 -7.25 6.8 M0.35 1.45 L0.2 0.95 -0.6 -0.05 -1.6 -0.9 -0.6 -0.05 0.2 0.95 0.35 1.45 M-3.75 5.8 Q-4.2 4.85 -4.85 4.4 L-5.2 4.2 -6.0 4.0 -5.2 4.2 -4.85 4.4 Q-4.2 4.85 -3.75 5.8 M1.0 0.8 L0.3 -0.75 1.0 0.8" fill="#232323" fill-rule="evenodd" stroke="none"/>
    <path d="M-5.8 3.45 L-5.85 3.4 Q-5.65 1.4 -4.55 -0.25 L-4.5 -0.25 0.3 1.85 1.8 2.6 0.95 4.9 0.4 6.1 -1.2 5.35 -2.65 4.75 -5.8 3.45 M-2.65 4.75 L-2.55 4.65 -2.45 4.55 -2.35 4.45 -2.3 4.35 -2.2 4.3 -2.1 4.3 -2.05 4.2 -2.2 4.2 -2.15 4.0 -1.95 3.95 -1.95 3.9 -1.9 3.8 -1.85 3.75 -1.75 3.65 -1.85 3.8 -1.9 3.9 -1.85 3.95 -1.85 3.9 -1.7 3.85 -1.65 3.7 Q-1.55 3.65 -1.55 3.75 L-1.5 3.6 -1.4 3.5 -1.3 3.5 -1.3 3.45 -1.15 3.35 -1.25 3.4 -1.1 3.25 -1.3 3.15 -1.25 3.25 -1.35 3.35 -1.4 3.25 -1.45 3.35 -1.5 3.4 -1.4 3.5 Q-1.5 3.4 -1.55 3.4 L-1.65 3.55 -1.65 3.3 -1.6 3.15 -1.55 3.0 -1.55 2.95 -1.5 2.8 -1.45 2.7 -1.35 2.65 -1.25 2.6 -1.15 2.65 -1.2 2.55 -1.0 2.4 -1.05 2.45 -1.0 2.5 -1.0 2.45 -0.9 2.5 -0.85 2.5 -0.75 2.5 -0.7 2.5 -0.6 2.4 -0.6 2.35 -0.65 2.3 -0.6 2.25 -0.7 2.15 -0.75 1.9 -0.7 1.7 -0.85 1.6 -0.9 1.55 -1.0 1.4 -1.2 1.35 -1.25 1.3 -1.4 1.15 -1.5 1.15 -1.5 1.2 -1.6 1.15 -1.7 1.1 -1.75 1.1 -2.0 1.1 -2.15 1.05 -2.2 1.05 -2.3 1.2 -2.4 1.2 -2.65 1.3 -2.75 1.4 -2.8 1.45 -2.8 1.5 -2.9 1.5 -2.8 1.65 -2.7 1.7 -2.55 1.85 -2.45 1.85 -2.55 1.9 -2.4 2.0 -2.35 2.0 -2.4 2.15 -2.5 2.3 -2.45 2.4 -2.55 2.5 -2.6 2.65 -2.85 2.9 -2.85 3.0 -2.9 3.0 -3.0 2.95 -3.1 2.85 -3.15 2.8 -3.2 2.9 -3.15 2.95 -3.1 3.1 -3.15 3.1 -3.1 3.3 -3.0 3.35 -2.95 3.25 -2.9 3.05 -2.9 3.1 -2.85 3.2 -2.9 3.35 -3.0 3.5 -3.05 3.4 -3.05 3.5 -3.1 3.6 -3.1 3.65 -3.2 3.75 -3.1 3.8 -3.05 4.0 -3.15 4.1 -3.15 4.15 -3.1 4.2 -3.1 4.5 -2.8 3.75 -2.8 3.5 -2.7 3.55 -2.65 3.45 -2.6 3.4 -2.5 3.25 -2.35 3.1 -2.3 3.15 -2.15 2.9 -2.05 2.7 -2.0 2.65 -2.0 2.7 -2.05 2.75 -2.15 2.95 -2.25 3.2 -2.15 3.3 -2.1 3.3 -2.05 3.4 -2.1 3.45 -2.0 3.55 -2.1 3.6 -2.05 3.7 -2.15 3.8 -2.15 3.9 -2.25 4.0 -2.3 4.2 -2.55 4.45 -2.65 4.75 M-1.35 1.35 L-1.45 1.6 -1.4 1.6 -1.45 1.7 -1.5 1.75 -1.6 1.7 -1.6 1.75 -1.65 1.7 -1.55 1.6 -1.5 1.4 -1.5 1.3 -1.45 1.3 -1.35 1.35 M-2.0 2.65 L-1.95 2.55 -1.9 2.45 -1.9 2.25 -1.8 2.05 -1.8 2.2 -1.8 2.4 -1.8 2.55 -1.9 2.65 -2.0 2.65" fill="#101010" fill-rule="evenodd" stroke="none"/>
    <path d="M1.85 2.5 L1.9 2.5 1.8 2.6 0.3 1.85 1.6 2.4 1.85 2.5 M-3.0 3.55 L-2.95 3.65 -3.0 3.75 -3.0 3.65 -3.05 3.6 -3.0 3.55" fill="#380202" fill-rule="evenodd" stroke="none"/>
    <path d="M2.15 1.7 L1.85 2.5 1.6 2.4 2.15 1.7" fill="#696969" fill-rule="evenodd" stroke="none"/>
    <path d="M-2.65 4.75 L-2.55 4.45 -2.3 4.2 -2.25 4.0 -2.15 3.9 -2.15 3.8 -2.05 3.7 -2.1 3.6 -2.0 3.55 -2.1 3.45 -2.05 3.4 -2.1 3.3 -2.15 3.3 -2.25 3.2 -2.15 2.95 -2.05 2.75 -2.0 2.7 -2.0 2.65 -2.05 2.7 -2.15 2.9 -2.3 3.15 -2.35 3.1 -2.5 3.25 -2.6 3.4 -2.65 3.45 -2.7 3.55 -2.8 3.5 -2.8 3.75 -3.1 4.5 -3.1 4.2 -3.15 4.15 -3.15 4.1 -3.05 4.0 -3.1 3.8 -3.2 3.75 -3.1 3.65 -3.1 3.6 -3.05 3.5 -3.05 3.4 -3.0 3.5 -2.9 3.35 -2.85 3.2 -2.9 3.1 -2.9 3.05 -2.95 3.25 -3.0 3.35 -3.1 3.3 -3.15 3.1 -3.1 3.1 -3.15 2.95 -3.2 2.9 -3.15 2.8 -3.1 2.85 -3.0 2.95 -2.9 3.0 -2.85 3.0 -2.85 2.9 -2.6 2.65 -2.55 2.5 -2.45 2.4 -2.5 2.3 -2.4 2.15 -2.35 2.0 -2.4 2.0 -2.55 1.9 -2.45 1.85 -2.55 1.85 -2.7 1.7 -2.8 1.65 -2.9 1.5 -2.8 1.5 -2.8 1.45 -2.75 1.4 -2.65 1.3 -2.4 1.2 -2.3 1.2 -2.2 1.05 -2.15 1.05 -2.0 1.1 -1.75 1.1 -1.7 1.1 -1.6 1.15 -1.5 1.2 -1.5 1.15 -1.4 1.15 -1.25 1.3 -1.2 1.35 -1.0 1.4 -0.9 1.55 -0.85 1.6 -0.7 1.7 -0.75 1.9 -0.7 2.15 -0.6 2.25 -0.65 2.3 -0.6 2.35 -0.6 2.4 -0.7 2.5 -0.75 2.5 -0.85 2.5 -0.9 2.5 -1.0 2.45 -1.0 2.5 -1.05 2.45 -1.0 2.4 -1.2 2.55 -1.15 2.65 -1.25 2.6 -1.35 2.65 -1.45 2.7 -1.5 2.8 -1.55 2.95 -1.55 3.0 -1.6 3.15 -1.65 3.3 -1.65 3.55 -1.55 3.4 Q-1.5 3.4 -1.4 3.5 L-1.5 3.4 -1.45 3.35 -1.4 3.25 -1.35 3.35 -1.25 3.25 -1.3 3.15 -1.1 3.25 -1.25 3.4 -1.15 3.35 -1.3 3.45 -1.3 3.5 -1.4 3.5 -1.5 3.6 -1.55 3.75 Q-1.55 3.65 -1.65 3.7 L-1.7 3.85 -1.85 3.9 -1.85 3.95 -1.9 3.9 -1.85 3.8 -1.75 3.65 -1.85 3.75 -1.9 3.8 -1.95 3.9 -1.95 3.95 -2.15 4.0 -2.2 4.2 -2.05 4.2 -2.1 4.3 -2.2 4.3 -2.3 4.35 -2.35 4.45 -2.45 4.55 -2.55 4.65 -2.65 4.75 M-2.0 2.65 L-1.9 2.65 -1.8 2.55 -1.8 2.4 -1.8 2.2 -1.8 2.05 -1.9 2.25 -1.9 2.45 -1.95 2.55 -2.0 2.65 M-1.35 1.35 L-1.45 1.3 -1.5 1.3 -1.5 1.4 -1.55 1.6 -1.65 1.7 -1.6 1.75 -1.6 1.7 -1.5 1.75 -1.45 1.7 -1.4 1.6 -1.45 1.6 -1.35 1.35 M-3.0 3.55 L-3.05 3.6 -3.0 3.65 -3.0 3.75 -2.95 3.65 -3.0 3.55" fill="#510000" fill-rule="evenodd" stroke="none"/>
    <path d="M0.95 4.9 L0.15 8.15 -3.45 11.6 -8.25 12.6 -8.25 12.25 -8.1 10.95 -8.4 9.1 -8.3 9.0 -5.75 8.4 -5.6 8.35 -3.55 7.9 -1.2 5.35 0.4 6.1 0.95 4.9" fill="#3c1414" fill-rule="evenodd" stroke="none"/>
    <path d="M-8.3 9.0 Q-8.1 7.7 -7.25 6.8 L-5.75 8.4 -8.3 9.0" fill="#313131" fill-rule="evenodd" stroke="none"/>
    <path d="M-4.5 -0.25 L-4.45 -0.35 Q-4.3 -1.25 -3.75 -1.85 -2.6 -3.1 -0.85 -2.8 1.1 -2.8 1.95 -1.8 3.2 -0.55 2.2 1.25 L2.15 1.7 1.85 2.5 M0.95 4.9 L0.15 8.15 0.15 8.25 Q0.0 9.4 -0.45 9.95 L-1.35 11.15 -2.3 12.0 -2.9 13.15 Q-3.4 14.0 -5.0 14.5 L-6.8 14.7 Q-8.0 14.55 -8.25 13.4 L-8.25 12.6 -8.25 12.25 -8.1 10.95 -8.4 9.1 -8.3 9.0 Q-8.1 7.7 -7.25 6.8 L-7.5 6.5 -8.3 5.6 Q-8.45 4.65 -8.15 4.45 L-7.65 4.0 Q-7.4 3.75 -7.15 3.8 L-6.7 3.7 -6.0 4.0 -5.8 3.45 M-6.0 4.0 L-5.2 4.2 -4.85 4.4 Q-4.2 4.85 -3.75 5.8 M-5.75 8.4 L-5.6 8.35 M-7.25 6.8 L-5.75 8.4" fill="none" stroke="#0b0b0b" stroke-linecap="round" stroke-linejoin="round" stroke-width="1.0"/>
    <path d="M-5.8 3.45 L-5.85 3.4 Q-5.65 1.4 -4.55 -0.25 L-4.5 -0.25 0.3 1.85 1.8 2.6 0.95 4.9 0.4 6.1 -1.2 5.35 -2.65 4.75 -5.8 3.45 M1.9 2.5 L1.8 2.6" fill="none" stroke="#090000" stroke-linecap="round" stroke-linejoin="round" stroke-width="1.0"/>
    <path d="M-1.6 -0.9 L-0.6 -0.05 0.2 0.95 0.35 1.45 M0.3 -0.75 L1.0 0.8" fill="none" stroke="#0b0b0b" stroke-linecap="round" stroke-linejoin="round" stroke-width="0.8"/>
  </g>
</svg>
