<?xml version="1.0" encoding="UTF-8" standalone="no"?>
<svg xmlns:ffdec="https://www.free-decompiler.com/flash" xmlns:xlink="http://www.w3.org/1999/xlink" ffdec:objectType="shape" height="23.55px" width="12.85px" xmlns="http://www.w3.org/2000/svg">
  <g transform="matrix(1.0, 0.0, 0.0, 1.0, 0.5, 0.5)">
    <path d="M7.05 1.95 L6.8 2.05 6.55 2.3 6.45 2.6 6.65 2.8 6.95 2.75 7.25 2.45 7.2 2.15 7.05 1.95 M7.7 1.85 Q7.9 2.35 7.75 2.9 L6.85 5.45 3.7 6.35 5.25 3.2 4.25 3.15 Q4.7 2.1 5.1 1.75 L5.75 1.3 Q6.0 1.1 6.45 1.05 L7.25 1.25 7.7 1.85" fill="#620b0b" fill-rule="evenodd" stroke="none"/>
    <path d="M2.45 1.6 L3.25 0.35 Q7.65 -0.7 10.6 1.6 L10.55 1.9 8.35 8.05 Q4.65 8.4 1.65 6.65 L2.45 1.6 M7.7 1.85 L7.25 1.25 6.45 1.05 Q6.0 1.1 5.75 1.3 L5.1 1.75 Q4.7 2.1 4.25 3.15 L5.25 3.2 3.7 6.35 6.85 5.45 7.75 2.9 Q7.9 2.35 7.7 1.85 M7.05 1.95 L7.2 2.15 7.25 2.45 6.95 2.75 6.65 2.8 6.45 2.6 6.55 2.3 6.8 2.05 7.05 1.95" fill="#101010" fill-rule="evenodd" stroke="none"/>
    <path d="M2.45 1.6 L1.65 6.65 Q4.65 8.4 8.35 8.05 L10.55 1.9 Q11.9 3.15 11.85 5.4 11.7 8.75 10.55 9.95 L9.45 9.95 8.1 9.95 Q4.6 9.95 2.0 8.7 L1.2 8.15 0.1 7.4 Q-0.3 5.5 1.05 3.35 1.7 2.3 2.45 1.6 M10.15 8.05 L9.9 8.05 10.15 8.05" fill="url(#gradient0)" fill-rule="evenodd" stroke="none"/>
    <path d="M9.45 9.95 L9.4 10.55 9.25 11.2 8.7 13.4 8.05 13.3 Q5.6 13.6 3.0 12.55 L1.75 11.9 1.2 8.15 2.0 8.7 Q4.6 9.95 8.1 9.95 L9.45 9.95 M7.75 11.6 L7.5 11.6 7.75 11.6 M3.25 10.75 L3.0 10.75 3.25 10.75" fill="url(#gradient1)" fill-rule="evenodd" stroke="none"/>
    <path d="M8.05 13.3 L8.0 16.6 3.85 17.45 3.0 17.25 3.0 12.55 Q5.6 13.6 8.05 13.3" fill="url(#gradient2)" fill-rule="evenodd" stroke="none"/>
    <path d="M8.0 16.6 L9.05 16.25 Q10.1 19.15 8.75 21.75 6.65 23.0 3.75 22.25 2.55 21.6 2.25 20.6 1.65 18.9 1.95 17.0 L3.0 17.25 3.85 17.45 8.0 16.6 M8.3 19.3 L8.05 19.3 8.3 19.3 M3.5 19.3 L3.25 19.3 3.5 19.3" fill="url(#gradient3)" fill-rule="evenodd" stroke="none"/>
    <path d="M10.55 1.9 L10.6 1.6 Q7.65 -0.7 3.25 0.35 L2.45 1.6 1.65 6.65 Q4.65 8.4 8.35 8.05 L10.55 1.9 Q11.9 3.15 11.85 5.4 11.7 8.75 10.55 9.95 L9.45 9.95 9.4 10.55 9.25 11.2 8.7 13.4 8.05 13.3 8.0 16.6 9.05 16.25 Q10.1 19.15 8.75 21.75 6.65 23.0 3.75 22.25 2.55 21.6 2.25 20.6 1.65 18.9 1.95 17.0 L3.0 17.25 3.0 12.55 1.75 11.9 1.2 8.15 0.1 7.4 Q-0.3 5.5 1.05 3.35 1.7 2.3 2.45 1.6 M1.2 8.15 L2.0 8.7 Q4.6 9.95 8.1 9.95 L9.45 9.95 M8.0 16.6 L3.85 17.45 3.0 17.25 M3.0 12.55 Q5.6 13.6 8.05 13.3" fill="none" stroke="#020202" stroke-linecap="round" stroke-linejoin="round" stroke-width="1.0"/>
    <path d="M3.0 10.75 L3.25 10.75 M7.5 11.6 L7.75 11.6 M3.25 19.3 L3.5 19.3 M8.05 19.3 L8.3 19.3 M9.9 8.05 L10.15 8.05" fill="none" stroke="#000000" stroke-linecap="round" stroke-linejoin="round" stroke-width="1.0"/>
  </g>
  <defs>
    <radialGradient cx="0" cy="0" fx="192.0" fy="0" gradientTransform="matrix(0.0193, 0.0, 0.0, 0.0193, 8.05, -1.25)" gradientUnits="userSpaceOnUse" id="gradient0" r="819.2" spreadMethod="pad">
      <stop offset="0.0" stop-color="#2e2e2e"/>
      <stop offset="1.0" stop-color="#020202"/>
      <stop offset="1.0" stop-color="#0e0d0d"/>
    </radialGradient>
    <radialGradient cx="0" cy="0" fx="192.0" fy="0" gradientTransform="matrix(0.0151, 0.0, 0.0, 0.0151, 11.2, 8.35)" gradientUnits="userSpaceOnUse" id="gradient1" r="819.2" spreadMethod="pad">
      <stop offset="0.0" stop-color="#2e2e2e"/>
      <stop offset="1.0" stop-color="#020202"/>
      <stop offset="1.0" stop-color="#0e0d0d"/>
    </radialGradient>
    <radialGradient cx="0" cy="0" fx="192.0" fy="0" gradientTransform="matrix(0.0066, -0.0017, 0.0026, 0.0099, 9.9, 14.45)" gradientUnits="userSpaceOnUse" id="gradient2" r="819.2" spreadMethod="pad">
      <stop offset="0.0" stop-color="#2e2e2e"/>
      <stop offset="1.0" stop-color="#020202"/>
      <stop offset="1.0" stop-color="#0e0d0d"/>
    </radialGradient>
    <radialGradient cx="0" cy="0" fx="192.0" fy="0" gradientTransform="matrix(0.0132, 0.0, 0.0, 0.0132, 10.8, 16.05)" gradientUnits="userSpaceOnUse" id="gradient3" r="819.2" spreadMethod="pad">
      <stop offset="0.0" stop-color="#2e2e2e"/>
      <stop offset="1.0" stop-color="#020202"/>
      <stop offset="1.0" stop-color="#0e0d0d"/>
    </radialGradient>
  </defs>
</svg>
