<?xml version="1.0" encoding="UTF-8" standalone="no"?>
<svg xmlns:ffdec="https://www.free-decompiler.com/flash" xmlns:xlink="http://www.w3.org/1999/xlink" ffdec:objectType="shape" height="27.0px" width="16.35px" xmlns="http://www.w3.org/2000/svg">
  <g transform="matrix(1.0, 0.0, 0.0, 1.0, 0.45, 6.6)">
    <path d="M6.65 3.4 L6.8 3.05 6.9 2.85 7.1 2.55 7.35 2.25 7.95 1.8 8.85 1.5 9.3 1.45 9.45 1.45 10.45 1.7 10.55 1.75 10.65 1.8 10.85 1.9 11.25 2.25 Q12.05 3.05 12.05 4.2 L11.8 5.45 11.7 5.6 11.25 6.15 10.8 6.55 10.75 6.6 10.4 6.75 9.75 6.95 9.35 6.95 9.3 6.95 8.05 6.7 7.95 6.6 7.85 6.55 7.35 6.15 7.3 6.1 7.15 5.95 Q6.7 5.35 6.6 4.6 L6.55 4.2 6.65 3.4 7.15 5.95 6.65 3.4 M5.85 18.55 L5.15 19.2 3.85 19.75 3.6 19.85 Q-0.2 18.8 0.3 15.1 L0.05 14.6 0.55 13.55 1.2 13.65 3.5 13.9 5.85 14.15 5.85 16.4 5.85 18.55 3.5 13.9 5.85 18.55 M2.65 9.95 L2.25 9.7 2.85 8.1 3.15 8.3 3.85 5.85 4.25 6.2 5.15 6.9 5.6 7.25 5.95 7.55 7.3 8.65 7.3 10.3 6.2 10.2 5.85 11.95 4.0 10.8 2.65 9.95 M4.75 9.3 L4.0 10.8 4.75 9.3 3.25 8.35 3.15 8.3 3.25 8.35 4.75 9.3 6.2 10.2 4.75 9.3 M5.6 7.25 Q4.55 6.9 4.25 6.2 4.55 6.9 5.6 7.25" fill="#252525" fill-rule="evenodd" stroke="none"/>
    <path d="M4.55 4.05 Q5.05 2.95 6.3 1.5 L6.65 3.4 6.55 4.2 6.6 4.6 Q6.7 5.35 7.15 5.95 L7.3 6.1 7.35 6.15 7.85 6.55 7.95 6.6 8.05 6.7 9.3 6.95 9.35 6.95 9.75 6.95 10.4 6.75 10.75 6.6 10.8 6.6 13.9 5.2 12.9 8.5 11.65 11.7 10.35 13.55 8.8 15.7 8.0 16.8 6.55 17.4 6.5 17.4 5.85 16.4 5.85 14.15 5.85 11.95 6.2 10.2 7.3 10.3 7.3 8.65 5.95 7.55 5.6 7.25 5.15 6.9 4.25 6.2 Q4.0 5.65 4.2 4.95 L4.55 4.05 M9.75 10.35 L9.75 6.95 9.75 10.35 11.65 11.7 9.75 10.35 9.7 10.3 7.3 10.3 9.7 10.3 9.75 10.35 M7.65 14.6 L8.8 15.7 7.65 14.6 M9.2 12.45 L10.35 13.55 9.2 12.45" fill="#191919" fill-rule="evenodd" stroke="none"/>
    <path d="M1.2 13.65 L2.65 9.95 4.0 10.8 5.85 11.95 5.85 14.15 3.5 13.9 1.2 13.65" fill="#1c1c1c" fill-rule="evenodd" stroke="none"/>
    <path d="M4.0 10.8 L4.75 9.3 M5.85 18.55 L3.5 13.9" fill="none" stroke="#1e1e1e" stroke-linecap="round" stroke-linejoin="round" stroke-width="1.0"/>
    <path d="M9.75 6.95 L9.75 10.35 M8.8 15.7 L7.65 14.6 M10.35 13.55 L9.2 12.45" fill="none" stroke="#0b0b0b" stroke-linecap="round" stroke-linejoin="round" stroke-width="1.0"/>
    <path d="M4.55 4.05 Q5.05 2.95 6.3 1.5 L6.65 3.4 7.15 5.95 M10.75 6.6 L10.8 6.6 13.9 5.2 12.9 8.5 11.65 11.7 10.35 13.55 8.8 15.7 8.0 16.8 6.55 17.4 6.5 17.4 5.85 16.4 5.85 18.55 5.15 19.2 Q4.3 19.8 3.6 19.85 -0.2 18.8 0.3 15.1 L0.05 14.6 0.55 13.55 1.2 13.65 2.65 9.95 2.25 9.7 2.85 8.1 3.15 8.3 3.85 5.85 4.25 6.2 Q4.0 5.65 4.2 4.95 L4.55 4.05 M9.75 10.35 L11.65 11.7 M2.65 9.95 L4.0 10.8 5.85 11.95 5.85 14.15 5.85 16.4 M4.75 9.3 L3.25 8.35 3.15 8.3 M5.6 7.25 L5.15 6.9 4.25 6.2 Q4.55 6.9 5.6 7.25 L5.95 7.55 7.3 8.65 7.3 10.3 9.7 10.3 9.75 10.35 M5.85 11.95 L6.2 10.2 4.75 9.3 M6.2 10.2 L7.3 10.3 M3.5 13.9 L1.2 13.65 M3.5 13.9 L5.85 14.15" fill="none" stroke="#0e0c0c" stroke-linecap="round" stroke-linejoin="round" stroke-width="1.0"/>
    <path d="M12.9 8.5 Q14.05 7.05 13.9 4.55 13.95 3.1 13.1 2.0 12.75 1.35 11.55 0.65 L11.35 0.55 11.1 0.4 8.5 0.1 Q6.7 0.4 6.0 1.35 L5.35 2.35 4.6 3.85 4.55 4.05 M6.55 17.4 L5.85 18.55 M3.6 19.85 L2.1 19.6 0.65 18.2 Q-0.05 17.25 0.3 15.1 M3.85 5.85 L4.2 4.95 M5.15 19.2 L3.85 19.75 3.6 19.85" fill="none" stroke="#121212" stroke-linecap="round" stroke-linejoin="round" stroke-width="1.0"/>
    <path d="M14.45 -0.35 L14.1 -0.85 14.25 -0.7 14.45 -0.35" fill="#252525" fill-rule="evenodd" stroke="none"/>
    <path d="M9.3 -0.9 L9.25 -0.9 9.25 -2.45 Q12.05 -2.45 14.45 -0.35 L13.5 -0.35 13.45 -0.35 13.1 0.4 Q11.0 0.75 9.3 -0.9 M7.35 -6.1 L7.3 -6.05 7.35 -6.1" fill="#ffffa3" fill-rule="evenodd" stroke="none"/>
    <path d="M9.25 -0.9 L9.3 -0.9 Q11.0 0.75 13.1 0.4 L13.45 -0.35 13.5 -0.35 14.45 -0.35 Q15.35 0.95 15.4 1.9 15.45 2.95 14.9 4.25 L12.0 4.9 12.05 4.2 Q12.05 3.05 11.25 2.25 L10.85 1.9 10.7 1.8 10.65 1.8 10.55 1.75 10.45 1.7 9.45 1.45 9.3 1.45 Q8.55 1.45 7.95 1.8 L7.35 2.25 7.05 2.65 5.6 0.4 6.75 -1.35 Q7.55 -2.25 9.25 -2.45 L9.25 -0.9" fill="#191919" fill-rule="evenodd" stroke="none"/>
    <path d="M10.65 1.8 L10.7 1.8" fill="none" stroke="#23221c" stroke-linecap="round" stroke-linejoin="round" stroke-width="1.0"/>
    <path d="M9.25 -2.45 Q7.55 -2.25 6.75 -1.35 L5.6 0.4 7.05 2.65 7.35 2.25 7.95 1.8 Q8.55 1.45 9.3 1.45 L9.45 1.45 10.45 1.7 10.55 1.75 10.65 1.8 M10.7 1.8 L10.85 1.9 11.25 2.25 Q12.05 3.05 12.05 4.2 L12.0 4.9 14.9 4.25 Q15.45 2.95 15.4 1.9 15.35 0.95 14.45 -0.35 M12.0 4.9 L11.8 5.45 11.7 5.6 11.25 6.15 10.8 6.55 10.75 6.6 9.35 6.95 9.3 6.95 8.05 6.7 7.95 6.6 7.85 6.55 7.35 6.15 7.3 6.1 7.15 5.95 Q6.55 5.2 6.55 4.2 6.55 3.55 6.8 3.05 L6.9 2.85 7.05 2.65" fill="none" stroke="#0e0e0e" stroke-linecap="round" stroke-linejoin="round" stroke-width="1.0"/>
    <path d="M13.1 0.4 Q11.0 0.75 9.3 -0.9" fill="none" stroke="#0b0b0b" stroke-linecap="round" stroke-linejoin="round" stroke-width="1.0"/>
    <path d="M9.25 -0.9 L9.25 -2.45 Q12.05 -2.45 14.45 -0.35 L13.5 -0.35 M13.45 -0.35 L13.1 0.4" fill="none" stroke="#151515" stroke-linecap="round" stroke-linejoin="round" stroke-width="1.0"/>
    <path d="M10.3 4.5 L9.7 5.15 Q9.3 5.35 8.85 5.15 L8.2 4.6 Q8.05 4.2 8.2 3.75 L8.8 3.15 9.65 3.1 10.25 3.7 10.3 4.5 Z" fill="none" stroke="#ffffa3" stroke-linecap="round" stroke-linejoin="round" stroke-width="1.0"/>
    <path d="M10.85 6.9 L10.1 7.2 9.25 7.3 Q7.95 7.3 6.95 6.35 6.0 5.45 6.0 4.1 6.0 2.8 6.95 1.8 7.9 0.85 9.2 0.85 10.55 0.85 11.5 1.75 12.45 2.7 12.45 4.0 12.45 5.35 11.5 6.3 L10.85 6.9" fill="url(#gradient0)" fill-rule="evenodd" stroke="none"/>
    <path d="M14.6 -0.75 L14.7 0.0 Q14.65 1.0 13.55 1.3 L11.0 1.1 Q9.7 0.7 8.9 -0.3 8.05 -1.15 8.2 -2.15 8.45 -3.15 9.45 -3.4 L10.6 -3.55 11.8 -3.25 Q13.25 -2.8 14.1 -1.8 L14.6 -0.75" fill="url(#gradient1)" fill-rule="evenodd" stroke="none"/>
  </g>
  <defs>
    <radialGradient cx="0" cy="0" gradientTransform="matrix(0.004, 0.0, 0.0, 0.004, 9.2, 4.05)" gradientUnits="userSpaceOnUse" id="gradient0" r="819.2" spreadMethod="pad">
      <stop offset="0.0" stop-color="#ffffa3" stop-opacity="0.49803922"/>
      <stop offset="1.0" stop-color="#ffffff" stop-opacity="0.0"/>
    </radialGradient>
    <radialGradient cx="0" cy="0" gradientTransform="matrix(4.0E-4, -0.0023, 0.003, 0.001, 11.25, -1.1)" gradientUnits="userSpaceOnUse" id="gradient1" r="819.2" spreadMethod="pad">
      <stop offset="0.0" stop-color="#ffffa3" stop-opacity="0.49803922"/>
      <stop offset="1.0" stop-color="#ffffff" stop-opacity="0.0"/>
    </radialGradient>
  </defs>
</svg>
