<?xml version="1.0" encoding="UTF-8" standalone="no"?>
<svg xmlns:xlink="http://www.w3.org/1999/xlink" height="7.6px" width="17.65px" xmlns="http://www.w3.org/2000/svg">
  <g transform="matrix(1.0, 0.0, 0.0, 1.0, 6.35, 1.05)">
    <path d="M2.55 -0.55 L2.65 -0.5 2.55 -0.5 2.65 -0.5 2.75 -0.55 2.75 -0.5 7.0 0.1 9.7 1.95 10.45 3.55 Q10.9 4.7 10.8 6.05 L-5.85 6.05 -5.7 4.0 Q-5.3 1.95 -4.4 0.75 L2.55 -0.5 2.55 -0.55 M2.75 -0.5 L2.65 -0.5 2.75 -0.5" fill="#353a40" fill-rule="evenodd" stroke="none"/>
    <path d="M2.65 -0.5 L2.55 -0.55 M2.55 -0.5 L2.65 -0.5 2.75 -0.55 M2.75 -0.5 L7.0 0.1 9.7 1.95 10.45 3.55 Q10.9 4.7 10.8 6.05 L-5.85 6.05 -5.7 4.0 Q-5.3 1.95 -4.4 0.75 L2.55 -0.5 M2.65 -0.5 L2.75 -0.5" fill="none" stroke="#22262a" stroke-linecap="round" stroke-linejoin="round" stroke-width="1.0"/>
  </g>
</svg>
