<?xml version="1.0" encoding="UTF-8" standalone="no"?>
<svg xmlns:ffdec="https://www.free-decompiler.com/flash" xmlns:xlink="http://www.w3.org/1999/xlink" ffdec:objectType="shape" height="21.35px" width="13.35px" xmlns="http://www.w3.org/2000/svg">
  <g transform="matrix(1.0, 0.0, 0.0, 1.0, 7.7, 3.8)">
    <path d="M-0.55 11.6 L-0.65 11.8 -0.6 13.35 -0.7 14.45 -1.45 16.4 Q-1.85 17.05 -4.6 17.05 -7.4 17.0 -6.35 12.65 L-6.2 12.3 -5.7 10.15 Q-1.9 8.2 -0.55 11.6" fill="#191919" fill-rule="evenodd" stroke="none"/>
    <path d="M-0.55 11.6 L-0.5 11.65 -0.65 11.8 -0.55 11.6" fill="#232323" fill-rule="evenodd" stroke="none"/>
    <path d="M-0.55 11.6 L-0.65 11.8 -0.6 13.35 M-6.45 12.8 L-5.7 10.15" fill="none" stroke="#0e0e0e" stroke-linecap="round" stroke-linejoin="round" stroke-width="1.0"/>
    <path d="M-0.6 13.35 L-0.7 14.45 -1.45 16.4 Q-1.85 17.05 -4.6 17.05 -7.4 17.0 -6.35 12.65 L-6.2 12.3 -6.45 12.8" fill="none" stroke="#0f0f0f" stroke-linecap="round" stroke-linejoin="round" stroke-width="1.0"/>
    <path d="M-7.2 6.95 L-7.2 6.65 -7.15 6.55 -7.25 4.95 -6.7 4.1 -7.2 3.4 -4.45 -2.7 Q-3.85 -3.55 -1.5 -3.3 0.7 -3.15 3.05 -1.95 5.3 -0.75 5.2 0.4 L3.85 6.7 2.65 7.0 2.8 8.0 1.55 9.75 Q-2.95 9.65 -6.35 7.6 L-7.2 6.95 M-5.45 4.85 L-4.5 3.75 1.05 5.55 1.2 6.9 1.05 5.55 -4.5 3.75 -5.45 4.85" fill="url(#gradient0)" fill-rule="evenodd" stroke="none"/>
    <path d="M-6.35 7.6 Q-2.95 9.65 1.55 9.75 0.9 10.9 -0.85 11.4 L-6.05 9.75 Q-7.05 8.4 -6.35 7.6" fill="#191919" fill-rule="evenodd" stroke="none"/>
    <path d="M1.2 6.9 L1.05 5.55 -4.5 3.75 -5.45 4.85" fill="none" stroke="url(#gradient1)" stroke-linecap="round" stroke-linejoin="round" stroke-width="1.25"/>
    <path d="M1.55 9.75 L2.8 8.0 2.65 7.0 3.85 6.7 5.2 0.4 Q5.3 -0.75 3.05 -1.95 0.7 -3.15 -1.5 -3.3 -3.85 -3.55 -4.45 -2.7 L-7.2 3.4 -6.7 4.1 -7.25 4.95 -7.15 6.55 -7.2 6.65 -7.2 6.95" fill="none" stroke="#0f0f0f" stroke-linecap="round" stroke-linejoin="round" stroke-width="0.9500000000000001"/>
    <path d="M1.55 9.75 Q0.9 10.9 -0.85 11.4 L-6.05 9.75 Q-7.05 8.4 -6.35 7.6" fill="none" stroke="#0f0f0f" stroke-linecap="round" stroke-linejoin="round" stroke-width="1.0"/>
    <path d="M1.15 7.4 L2.7 7.1" fill="none" stroke="#0f0f0f" stroke-linecap="round" stroke-linejoin="round" stroke-width="1.0"/>
    <path d="M-6.75 4.05 L-5.55 5.3" fill="none" stroke="#0f0f0f" stroke-linecap="round" stroke-linejoin="round" stroke-width="1.0"/>
    <path d="M-6.35 7.6 Q-2.95 9.65 1.55 9.75" fill="none" stroke="#0f0f0f" stroke-linecap="round" stroke-linejoin="round" stroke-width="1.0"/>
    <path d="M-7.2 6.95 L-6.35 7.6" fill="none" stroke="#0f0f0f" stroke-linecap="round" stroke-linejoin="round" stroke-width="1.0"/>
    <path d="M-5.45 5.35 L1.0 7.4" fill="none" stroke="#0f0f0f" stroke-linecap="round" stroke-linejoin="round" stroke-width="1.0"/>
  </g>
  <defs>
    <radialGradient cx="0" cy="0" gradientTransform="matrix(0.0088, 0.0013, -0.0013, 0.0088, -1.0, 2.95)" gradientUnits="userSpaceOnUse" id="gradient0" r="819.2" spreadMethod="pad">
      <stop offset="0.0" stop-color="#756d5f"/>
      <stop offset="1.0" stop-color="#1f1f1f"/>
      <stop offset="1.0" stop-color="#333333"/>
      <stop offset="1.0" stop-color="#333333"/>
      <stop offset="1.0" stop-color="#202121"/>
      <stop offset="1.0" stop-color="#202121"/>
    </radialGradient>
    <linearGradient gradientTransform="matrix(0.0079, 0.0012, -0.0014, 0.0094, -1.1, 3.85)" gradientUnits="userSpaceOnUse" id="gradient1" spreadMethod="pad" x1="-819.2" x2="819.2">
      <stop offset="0.0" stop-color="#3f3f40"/>
      <stop offset="1.0" stop-color="#000000"/>
      <stop offset="1.0" stop-color="#333333"/>
      <stop offset="1.0" stop-color="#333333"/>
      <stop offset="1.0" stop-color="#202121"/>
      <stop offset="1.0" stop-color="#202121"/>
    </linearGradient>
  </defs>
</svg>
