<?xml version="1.0" encoding="UTF-8" standalone="no"?>
<svg xmlns:ffdec="https://www.free-decompiler.com/flash" xmlns:xlink="http://www.w3.org/1999/xlink" ffdec:objectType="shape" height="21.55px" width="11.45px" xmlns="http://www.w3.org/2000/svg">
  <g transform="matrix(1.0, 0.0, 0.0, 1.0, 7.25, 3.9)">
    <path d="M0.2 9.25 L0.6 9.05 -0.1 10.95 -1.75 16.5 Q-2.05 17.2 -2.25 17.25 L-3.05 17.1 -1.75 16.5 0.2 9.25 M-4.75 16.7 L-5.0 16.6 -5.1 16.15 -4.75 16.7" fill="#191919" fill-rule="evenodd" stroke="none"/>
    <path d="M-5.1 16.15 Q-5.4 13.9 -5.1 9.55 L-4.75 8.1 -4.35 8.55 -3.65 8.7 -2.85 7.9 -1.55 8.15 -1.45 8.2 -0.6 9.05 -0.3 9.6 0.2 9.25 -1.75 16.5 -3.05 17.1 -4.75 16.7 -5.1 16.15" fill="#171717" fill-rule="evenodd" stroke="none"/>
    <path d="M-3.05 17.1 Q-4.2 17.35 -4.75 16.7 L-5.1 16.15 Q-6.05 14.45 -5.3 9.3 L-5.0 7.85 M0.2 9.25 L-1.75 16.5 -3.05 17.1" fill="none" stroke="#0f0f0f" stroke-linecap="round" stroke-linejoin="round" stroke-width="1.0"/>
    <path d="M-4.2 -1.25 L-2.3 -3.25 2.4 -2.3 3.5 0.3 Q2.95 -0.25 1.45 -0.65 L-0.4 -1.05 -2.55 -1.4 -4.2 -1.25" fill="url(#gradient0)" fill-rule="evenodd" stroke="none"/>
    <path d="M-5.55 2.65 L-2.25 3.3 -2.35 8.2 -3.7 7.95 -3.95 9.35 -5.5 9.05 -6.7 6.3 -5.95 2.6 -5.55 2.65" fill="url(#gradient1)" fill-rule="evenodd" stroke="none"/>
    <path d="M-4.2 -1.35 L-2.55 -1.5 1.45 -0.7 3.5 0.2 Q3.8 0.5 3.6 1.4 L2.8 4.45 1.35 8.55 0.1 9.7 -1.05 8.4 -2.35 8.15 Q-1.45 6.0 -2.3 3.2 L-5.6 2.55 -5.45 1.65 Q-5.15 -0.65 -4.85 -0.95 L-4.2 -1.35" fill="url(#gradient2)" fill-rule="evenodd" stroke="none"/>
    <path d="M-4.2 -1.35 L-2.55 -1.5 1.45 -0.7 3.5 0.2 2.4 -2.4 Q-0.05 -3.75 -2.3 -3.3 L-4.2 -1.35 -4.85 -0.95 Q-5.15 -0.65 -5.45 1.65 L-5.6 2.55 -2.3 3.2 Q-1.45 6.0 -2.35 8.15 L-1.05 8.4 0.1 9.7 1.35 8.55 2.8 4.45 3.6 1.4 Q3.8 0.5 3.5 0.2 M-5.6 2.55 L-6.0 2.5 Q-6.95 4.15 -6.7 6.25 L-5.55 8.95 -4.0 9.25 -3.7 7.9 -2.35 8.15" fill="none" stroke="#022e33" stroke-linecap="round" stroke-linejoin="round" stroke-width="1.0"/>
  </g>
  <defs>
    <radialGradient cx="0" cy="0" gradientTransform="matrix(0.0085, 0.0, 0.0, 0.0085, 2.8, -1.7)" gradientUnits="userSpaceOnUse" id="gradient0" r="819.2" spreadMethod="pad">
      <stop offset="0.0" stop-color="#e8c06f"/>
      <stop offset="1.0" stop-color="#02b1c3"/>
      <stop offset="1.0" stop-color="#2c1b38"/>
    </radialGradient>
    <radialGradient cx="0" cy="0" gradientTransform="matrix(0.0068, 0.0, 0.0, 0.0068, -1.85, 4.85)" gradientUnits="userSpaceOnUse" id="gradient1" r="819.2" spreadMethod="pad">
      <stop offset="0.0" stop-color="#e8c06f"/>
      <stop offset="1.0" stop-color="#02b1c3"/>
      <stop offset="1.0" stop-color="#2c1b38"/>
    </radialGradient>
    <radialGradient cx="0" cy="0" gradientTransform="matrix(0.0125, 0.0, 0.0, 0.0125, 4.5, 1.0)" gradientUnits="userSpaceOnUse" id="gradient2" r="819.2" spreadMethod="pad">
      <stop offset="0.0" stop-color="#e8c06f"/>
      <stop offset="1.0" stop-color="#02b1c3"/>
      <stop offset="1.0" stop-color="#2c1b38"/>
    </radialGradient>
  </defs>
</svg>
