<?xml version="1.0" encoding="UTF-8" standalone="no"?>
<svg xmlns:ffdec="https://www.free-decompiler.com/flash" xmlns:xlink="http://www.w3.org/1999/xlink" ffdec:objectType="shape" height="3.15px" width="3.6px" xmlns="http://www.w3.org/2000/svg">
  <g transform="matrix(1.0, 0.0, 0.0, 1.0, 0.0, 0.0)">
    <path d="M1.95 2.5 L2.0 2.5 1.95 2.5" fill="#ff9933" fill-rule="evenodd" stroke="none"/>
    <path d="M1.6 1.3 L1.4 1.5 1.45 1.65 1.55 1.9 1.8 1.8 1.9 3.15 1.55 2.3 1.35 2.5 0.95 1.3 1.05 0.95 0.9 0.95 0.8 1.15 0.6 1.2 0.6 1.0 Q0.45 1.0 0.45 1.1 L0.45 1.2 Q0.2 1.2 0.0 1.45 L0.3 0.6 0.3 0.75 0.7 0.75 0.55 0.5 0.4 0.6 0.7 0.15 0.75 0.65 0.95 0.6 1.1 0.7 1.3 0.75 1.35 0.65 1.25 0.5 2.15 0.05 2.95 0.15 3.35 0.6 3.4 0.9 3.4 0.95 3.4 1.15 3.6 1.1 3.3 2.0 3.1 1.8 2.7 2.7 2.8 1.35 3.1 1.4 3.05 1.2 3.05 1.1 2.9 1.2 2.8 0.9 2.65 0.75 2.3 0.6 2.05 0.7 2.1 0.5 1.7 0.6 1.45 1.1 1.6 1.3" fill="#ffff99" fill-rule="evenodd" stroke="none"/>
  </g>
</svg>
