<?xml version="1.0" encoding="UTF-8" standalone="no"?>
<svg xmlns:ffdec="https://www.free-decompiler.com/flash" xmlns:xlink="http://www.w3.org/1999/xlink" ffdec:objectType="shape" height="26.1px" width="21.25px" xmlns="http://www.w3.org/2000/svg">
  <g transform="matrix(1.0, 0.0, 0.0, 1.0, 7.2, 2.6)">
    <path d="M8.15 12.35 Q8.5 13.6 8.2 15.95 7.85 18.8 6.55 18.95 4.85 19.2 4.3 17.3 L3.6 15.45 Q3.2 13.1 5.1 12.05 6.9 11.05 8.15 12.35" fill="#a7825e" fill-rule="evenodd" stroke="none"/>
    <path d="M8.15 12.35 Q6.9 11.05 5.1 12.05 3.2 13.1 3.6 15.45 L4.3 17.3 Q4.85 19.2 6.55 18.95 7.85 18.8 8.2 15.95 8.5 13.6 8.15 12.35 Z" fill="none" stroke="#352d25" stroke-linecap="butt" stroke-linejoin="miter-clip" stroke-miterlimit="15.12109375" stroke-width="1.0"/>
    <path d="M6.95 3.5 Q7.95 5.0 8.35 9.7 8.45 12.05 7.95 12.95 6.9 13.65 6.9 13.45 7.05 12.35 4.85 11.55 4.45 11.35 3.95 10.0 L3.05 7.95 2.8 7.1 1.25 6.9 -0.75 7.05 -1.3 6.15 -1.85 3.65 -1.75 2.55 Q-1.75 2.15 -1.35 1.9 L1.2 1.75 Q2.5 4.1 6.95 3.5" fill="url(#gradient0)" fill-rule="evenodd" stroke="none"/>
    <path d="M6.95 3.5 Q2.5 4.1 1.2 1.75 L-1.35 1.9 Q-1.75 2.15 -1.75 2.55 L-1.85 3.65 -1.3 6.15 -0.75 7.05 1.25 6.9 2.8 7.1 3.05 7.95 3.95 10.0 Q4.45 11.35 4.85 11.55 7.05 12.35 6.9 13.45 6.9 13.65 7.95 12.95 8.45 12.05 8.35 9.7 7.95 5.0 6.95 3.5 Z" fill="none" stroke="#1c1515" stroke-linecap="butt" stroke-linejoin="miter-clip" stroke-miterlimit="15.12109375" stroke-width="1.0"/>
    <path d="M2.7 8.25 Q3.05 8.0 7.1 14.1 6.65 14.6 6.55 15.1 L6.35 15.35 Q5.8 15.5 4.9 14.7 L3.1 13.0 2.1 11.9 1.25 10.55 0.4 9.35 Q0.2 9.1 0.35 9.1 L1.55 9.05 2.5 8.9 Q2.85 8.7 2.7 8.25" fill="url(#gradient1)" fill-rule="evenodd" stroke="none"/>
    <path d="M2.7 8.25 Q3.05 8.0 7.1 14.1 6.65 14.6 6.55 15.1 L6.35 15.35 Q5.8 15.5 4.9 14.7 L3.1 13.0 2.1 11.9 1.25 10.55 0.4 9.35 Q0.2 9.1 0.35 9.1 L1.55 9.05 2.5 8.9 Q2.85 8.7 2.7 8.25 Z" fill="none" stroke="#1c1515" stroke-linecap="butt" stroke-linejoin="miter-clip" stroke-miterlimit="15.12109375" stroke-width="1.0"/>
    <path d="M6.1 2.9 Q4.25 3.85 3.05 3.25 L1.3 1.8 Q0.25 1.2 -1.35 1.8 -2.55 2.15 -2.95 0.35 -3.35 -1.4 -2.45 -1.9 -1.35 -2.3 -0.4 -1.9 L1.15 -0.9 Q2.05 -0.3 3.0 -0.4 L4.45 -0.75 Q5.6 -0.7 6.1 0.65 6.5 1.9 6.1 2.9" fill="url(#gradient2)" fill-rule="evenodd" stroke="none"/>
    <path d="M6.1 2.9 Q4.25 3.85 3.05 3.25 L1.3 1.8 Q0.25 1.2 -1.35 1.8 -2.55 2.15 -2.95 0.35 -3.35 -1.4 -2.45 -1.9 -1.35 -2.3 -0.4 -1.9 L1.15 -0.9 Q2.05 -0.3 3.0 -0.4 L4.45 -0.75 Q5.6 -0.7 6.1 0.65 6.5 1.9 6.1 2.9 Z" fill="none" stroke="#1a1717" stroke-linecap="butt" stroke-linejoin="miter-clip" stroke-miterlimit="15.12109375" stroke-width="1.0"/>
    <path d="M-0.15 8.1 L2.05 8.0" fill="none" stroke="#dcc64f" stroke-linecap="round" stroke-linejoin="round" stroke-width="1.0"/>
    <path d="M5.05 12.5 L5.9 11.65 Q7.4 10.95 8.05 11.9 8.55 12.75 8.5 14.4 8.5 16.0 8.05 16.35 L7.25 17.0 Q6.85 17.1 5.8 16.3 L5.05 14.15 Q4.9 13.4 5.05 12.5" fill="#402b2b" fill-rule="evenodd" stroke="none"/>
    <path d="M5.05 12.5 L5.9 11.65 Q7.4 10.95 8.05 11.9 8.55 12.75 8.5 14.4 8.5 16.0 8.05 16.35 L7.25 17.0 Q6.85 17.1 5.8 16.3 L5.05 14.15 Q4.9 13.4 5.05 12.5 Z" fill="none" stroke="#1c1515" stroke-linecap="butt" stroke-linejoin="miter-clip" stroke-miterlimit="15.12109375" stroke-width="1.0"/>
  </g>
  <defs>
    <radialGradient cx="0" cy="0" gradientTransform="matrix(-0.0095, 0.0069, -0.0063, -0.0107, 8.7, 6.05)" gradientUnits="userSpaceOnUse" id="gradient0" r="819.2" spreadMethod="pad">
      <stop offset="0.0" stop-color="#241818"/>
      <stop offset="1.0" stop-color="#4d3434"/>
    </radialGradient>
    <radialGradient cx="0" cy="0" gradientTransform="matrix(-0.0018, 0.0018, -0.0162, -0.0196, 5.45, 11.75)" gradientUnits="userSpaceOnUse" id="gradient1" r="819.2" spreadMethod="pad">
      <stop offset="0.0" stop-color="#241818"/>
      <stop offset="1.0" stop-color="#4d3434"/>
    </radialGradient>
    <radialGradient cx="0" cy="0" gradientTransform="matrix(0.0033, -0.0014, 0.0041, 0.0114, 2.25, -1.45)" gradientUnits="userSpaceOnUse" id="gradient2" r="819.2" spreadMethod="pad">
      <stop offset="0.0" stop-color="#251d1d"/>
      <stop offset="1.0" stop-color="#493f3f"/>
    </radialGradient>
  </defs>
</svg>
