<?xml version="1.0" encoding="UTF-8" standalone="no"?>
<svg xmlns:xlink="http://www.w3.org/1999/xlink" height="8.7px" width="13.05px" xmlns="http://www.w3.org/2000/svg">
  <g transform="matrix(1.0, 0.0, 0.0, 1.0, 3.5, 2.5)">
    <path d="M2.45 -1.3 L2.85 -0.3 Q3.05 0.65 6.35 1.05 9.65 1.45 8.9 5.7 L-2.85 5.7 Q-3.3 2.65 -2.2 -1.15 L-1.8 -1.45 -0.5 -1.9 Q0.55 -2.25 2.45 -1.3" fill="#1d1616" fill-rule="evenodd" stroke="none"/>
    <path d="M2.45 -1.3 Q0.55 -2.25 -0.5 -1.9 L-1.8 -1.45 -2.2 -1.15 Q-3.3 2.65 -2.85 5.7 L8.9 5.7 Q9.65 1.45 6.35 1.05 3.05 0.65 2.85 -0.3 L2.45 -1.3 Z" fill="none" stroke="#0e0c0c" stroke-linecap="round" stroke-linejoin="round" stroke-width="1.0"/>
  </g>
</svg>
