<?xml version="1.0" encoding="UTF-8" standalone="no"?>
<svg xmlns:ffdec="https://www.free-decompiler.com/flash" xmlns:xlink="http://www.w3.org/1999/xlink" ffdec:objectType="shape" height="18.75px" width="12.45px" xmlns="http://www.w3.org/2000/svg">
  <g transform="matrix(1.0, 0.0, 0.0, 1.0, 7.75, 4.8)">
    <path d="M-5.65 4.25 L2.2 6.4 0.6 11.45 -0.8 12.6 Q-2.45 13.55 -3.55 13.45 -5.05 13.4 -5.95 11.4 L-6.7 9.5 -5.65 4.25" fill="#1f211f" fill-rule="evenodd" stroke="none"/>
    <path d="M-5.65 4.25 L-6.7 9.5 -5.95 11.4 Q-5.05 13.4 -3.55 13.45 -2.45 13.55 -0.8 12.6 L0.6 11.45 2.2 6.4" fill="none" stroke="#111211" stroke-linecap="round" stroke-linejoin="round" stroke-width="1.0"/>
    <path d="M3.2 2.85 L4.35 3.75 3.4 7.6 1.9 7.65 -0.25 7.0 -1.15 7.75 -3.35 7.2 -3.55 5.9 -6.75 5.05 -7.25 4.35 -6.55 0.6 -5.35 0.15 -5.0 -1.45 -3.65 -3.3 -2.6 -4.25 -1.3 -4.4 2.2 -3.55 3.6 -2.3 3.95 -1.45 3.9 -0.45 3.8 0.9 3.55 2.5 3.2 2.85" fill="url(#gradient0)" fill-rule="evenodd" stroke="none"/>
    <path d="M-5.45 0.35 Q-4.4 -3.2 -2.95 -3.9 -1.45 -4.65 0.9 -3.95 3.25 -3.25 3.85 -1.7 4.15 -1.0 4.1 0.45 4.0 2.0 3.5 2.95" fill="none" stroke="#1e231e" stroke-linecap="round" stroke-linejoin="round" stroke-width="1.0"/>
    <path d="M-1.2 -0.05 Q-0.3 0.6 -0.65 0.95 -1.2 1.55 -1.1 1.9" fill="none" stroke="#ad3636" stroke-linecap="round" stroke-linejoin="round" stroke-width="1.0"/>
    <path d="M0.9 0.45 Q-0.1 0.7 0.0 1.15 0.25 1.9 0.0 2.2" fill="none" stroke="#ad3636" stroke-linecap="round" stroke-linejoin="round" stroke-width="1.0"/>
    <path d="M3.35 2.85 L4.25 3.8 3.35 7.5 1.9 7.6 -0.4 6.95 -1.0 7.75 -3.5 7.05 -3.65 6.05 -6.55 5.25 -7.3 4.15 -6.35 0.75 -5.05 0.15" ffdec:has-small-stroke="true" ffdec:original-stroke-width="0.95" fill="none" stroke="#2a312a" stroke-linecap="round" stroke-linejoin="round" stroke-width="1.0"/>
    <path d="M3.05 2.85 L2.4 3.3 1.4 7.05" ffdec:has-small-stroke="true" ffdec:original-stroke-width="0.95" fill="none" stroke="#272b26" stroke-linecap="round" stroke-linejoin="round" stroke-width="1.0"/>
    <path d="M-4.7 0.55 L-4.3 1.35 -5.4 5.1" ffdec:has-small-stroke="true" ffdec:original-stroke-width="0.95" fill="none" stroke="#272b26" stroke-linecap="round" stroke-linejoin="round" stroke-width="1.0"/>
    <path d="M2.3 5.4 L2.8 3.65 3.0 3.55 3.2 3.4 3.7 3.95 2.9 7.0 1.9 7.1 2.3 5.4" fill="#394039" fill-rule="evenodd" stroke="none"/>
    <path d="M2.3 5.4 L2.8 3.65 3.0 3.55 3.2 3.4 3.7 3.95 2.9 7.0 1.9 7.1 2.3 5.4 Z" ffdec:has-small-stroke="true" ffdec:original-stroke-width="0.05" fill="none" stroke="#394039" stroke-linecap="round" stroke-linejoin="round" stroke-width="1.0"/>
    <path d="M-6.25 4.85 L-6.65 4.1 -5.9 1.1 -5.15 0.8 -4.85 1.35 -5.85 4.95 -6.25 4.85" fill="#394039" fill-rule="evenodd" stroke="none"/>
    <path d="M-6.25 4.85 L-6.65 4.1 -5.9 1.1 -5.15 0.8 -4.85 1.35 -5.85 4.95 -6.25 4.85 Z" ffdec:has-small-stroke="true" ffdec:original-stroke-width="0.05" fill="none" stroke="#394039" stroke-linecap="round" stroke-linejoin="round" stroke-width="1.0"/>
    <path d="M-2.5 -4.0 L-1.8 -2.25 2.15 -1.2 3.35 -2.65" ffdec:has-small-stroke="true" ffdec:original-stroke-width="0.95" fill="none" stroke="#2d312c" stroke-linecap="round" stroke-linejoin="round" stroke-opacity="0.60784316" stroke-width="1.0"/>
    <path d="M-2.2 5.1 L-1.05 5.35" ffdec:has-small-stroke="true" ffdec:original-stroke-width="0.95" fill="none" stroke="#2a312a" stroke-linecap="round" stroke-linejoin="round" stroke-width="1.0"/>
  </g>
  <defs>
    <radialGradient cx="0" cy="0" gradientTransform="matrix(0.0067, 0.0018, -0.0019, 0.0069, -0.95, 1.75)" gradientUnits="userSpaceOnUse" id="gradient0" r="819.2" spreadMethod="pad">
      <stop offset="0.0" stop-color="#485148"/>
      <stop offset="1.0" stop-color="#3c423c"/>
    </radialGradient>
  </defs>
</svg>
