<?xml version="1.0" encoding="UTF-8" standalone="no"?>
<svg xmlns:ffdec="https://www.free-decompiler.com/flash" xmlns:xlink="http://www.w3.org/1999/xlink" ffdec:objectType="shape" height="14.9px" width="6.95px" xmlns="http://www.w3.org/2000/svg">
  <g transform="matrix(1.0, 0.0, 0.0, 1.0, 4.8, 1.85)">
    <path d="M-1.55 1.55 Q-1.75 0.05 -1.1 -0.8 -0.55 -1.45 0.3 -1.3 2.65 -0.85 0.9 2.1 L-1.55 1.55" fill="#333333" fill-rule="evenodd" stroke="none"/>
    <path d="M-1.55 1.55 L0.9 2.1 -2.3 12.55 -4.3 12.15 -1.55 1.55" fill="url(#gradient0)" fill-rule="evenodd" stroke="none"/>
    <path d="M-1.55 1.55 L0.9 2.1 -2.3 12.55 -4.3 12.15 -1.55 1.55" fill="none" stroke="#000000" stroke-linecap="round" stroke-linejoin="round" stroke-width="1.0"/>
    <path d="M0.9 2.1 Q2.65 -0.85 0.3 -1.3 -0.55 -1.45 -1.1 -0.8 -1.75 0.05 -1.55 1.55" fill="none" stroke="#373737" stroke-linecap="round" stroke-linejoin="round" stroke-width="1.0"/>
  </g>
  <defs>
    <linearGradient gradientTransform="matrix(0.0032, 0.0, 0.0, 0.0067, -1.7, 7.05)" gradientUnits="userSpaceOnUse" id="gradient0" spreadMethod="pad" x1="-819.2" x2="819.2">
      <stop offset="0.0" stop-color="#4b4b4b"/>
      <stop offset="0.592156862745098" stop-color="#666666"/>
      <stop offset="1.0" stop-color="#333333"/>
    </linearGradient>
  </defs>
</svg>
