<?xml version="1.0" encoding="UTF-8" standalone="no"?>
<svg xmlns:ffdec="https://www.free-decompiler.com/flash" xmlns:xlink="http://www.w3.org/1999/xlink" ffdec:objectType="shape" height="19.9px" width="13.7px" xmlns="http://www.w3.org/2000/svg">
  <g transform="matrix(1.0, 0.0, 0.0, 1.0, -0.2, 0.0)">
    <path d="M12.9 8.5 L12.3 7.35 10.75 6.6 11.25 6.15 Q12.05 5.35 12.05 4.2 12.05 3.05 11.25 2.25 10.45 1.45 9.3 1.45 8.15 1.45 7.35 2.25 6.55 3.05 6.55 4.2 6.55 5.2 7.15 5.95 L6.85 6.5 5.6 7.25 3.85 5.85 4.6 3.85 Q5.25 2.25 6.0 1.35 6.7 0.4 8.5 0.1 10.25 -0.2 11.35 0.55 12.7 1.3 13.1 2.0 13.95 3.1 13.9 4.55 14.05 7.05 12.9 8.5 M6.5 17.4 L6.55 17.4 Q5.8 19.2 3.85 19.75 L2.1 19.6 0.65 18.2 Q-0.05 17.25 0.3 15.1 L5.85 15.75 5.85 16.4 6.5 17.4" fill="#333333" fill-rule="evenodd" stroke="none"/>
  </g>
</svg>
