<?xml version="1.0" encoding="UTF-8" standalone="no"?>
<svg xmlns:ffdec="https://www.free-decompiler.com/flash" xmlns:xlink="http://www.w3.org/1999/xlink" ffdec:objectType="shape" height="22.25px" width="14.05px" xmlns="http://www.w3.org/2000/svg">
  <g transform="matrix(1.0, 0.0, 0.0, 1.0, -0.45, 0.5)">
    <path d="M13.8 8.4 L13.8 7.75 13.8 8.4 13.1 15.85 11.65 17.2 10.65 17.95 9.55 17.95 9.55 15.6 5.25 15.6 5.25 17.8 4.05 17.8 3.1 17.05 1.7 15.95 0.95 7.65 1.55 7.0 1.55 1.8 4.65 0.0 9.2 0.05 12.95 1.8 12.95 7.15 13.8 7.75 14.5 8.4 13.8 8.4 M1.55 7.0 L5.25 11.9 8.85 11.95 12.95 7.15 8.85 11.95 5.25 11.9 1.55 7.0 M8.85 1.45 L5.15 1.45 8.85 1.45 M8.85 11.95 L8.85 7.2 7.55 5.35 6.3 5.35 5.25 7.35 5.25 11.9 5.25 7.35 6.3 5.35 7.55 5.35 8.85 7.2 8.85 11.95" fill="#2c2c2c" fill-rule="evenodd" stroke="none"/>
    <path d="M3.1 17.05 L4.05 17.8 5.25 17.8 5.25 15.6 9.55 15.6 9.55 17.95 10.65 17.95 11.65 17.2 11.65 19.1 Q7.4 23.45 3.1 19.1 L3.1 17.05" fill="#3a3a3a" fill-rule="evenodd" stroke="none"/>
    <path d="M13.8 7.75 L13.8 8.4 13.1 15.85 11.65 17.2 11.65 19.1 Q7.4 23.45 3.1 19.1 L3.1 17.05 4.05 17.8 5.25 17.8 5.25 15.6 9.55 15.6 9.55 17.95 10.65 17.95 11.65 17.2 M13.8 7.75 L12.95 7.15 8.85 11.95 5.25 11.9 1.55 7.0 0.95 7.65 1.7 15.95 3.1 17.05 M1.55 7.0 L1.55 1.8 4.65 0.0 9.2 0.05 12.95 1.8 12.95 7.15 M5.25 11.9 L5.25 7.35 6.3 5.35 7.55 5.35 8.85 7.2 8.85 11.95" fill="none" stroke="#21201f" stroke-linecap="round" stroke-linejoin="round" stroke-width="1.0"/>
    <path d="M5.15 1.45 L8.85 1.45" fill="none" stroke="#ecd7ff" stroke-linecap="round" stroke-linejoin="round" stroke-width="1.0"/>
  </g>
</svg>
