<?xml version="1.0" encoding="UTF-8" standalone="no"?>
<svg xmlns:xlink="http://www.w3.org/1999/xlink" height="10.9px" width="17.15px" xmlns="http://www.w3.org/2000/svg">
  <g transform="matrix(1.0, 0.0, 0.0, 1.0, 5.65, 5.1)">
    <path d="M7.45 0.2 L4.9 2.9 5.0 5.25 -1.85 5.25 -1.95 2.3 -3.45 0.75 -1.5 -2.8 Q1.9 -6.6 5.3 -2.4 L7.45 0.2" fill="#16202c" fill-rule="evenodd" stroke="none"/>
    <path d="M5.0 5.25 L4.9 2.9 7.45 0.2 7.85 0.1 Q11.65 1.5 10.9 5.3 L5.0 5.25 M-3.45 0.75 L-1.95 2.3 -1.85 5.25 -4.8 5.3 -5.15 3.95 -4.5 1.05 -3.45 0.75" fill="url(#gradient0)" fill-rule="evenodd" stroke="none"/>
    <path d="M5.0 5.25 L4.9 2.9 7.45 0.2 5.3 -2.4 Q1.9 -6.6 -1.5 -2.8 L-3.45 0.75 -1.95 2.3 -1.85 5.25 5.0 5.25 10.9 5.3 Q11.65 1.5 7.85 0.1 L7.45 0.2 M-1.85 5.25 L-4.8 5.3 -5.15 3.95 -4.5 1.05 -3.45 0.75" fill="none" stroke="#0d141c" stroke-linecap="round" stroke-linejoin="round" stroke-width="1.0"/>
  </g>
  <defs>
    <radialGradient cx="0" cy="0" gradientTransform="matrix(0.0144, 0.0, 0.0, 0.0144, 0.0, 10.4)" gradientUnits="userSpaceOnUse" id="gradient0" r="819.2" spreadMethod="pad">
      <stop offset="0.0" stop-color="#1d2b38"/>
      <stop offset="0.6588235294117647" stop-color="#27363f"/>
      <stop offset="1.0" stop-color="#4d6277"/>
    </radialGradient>
  </defs>
</svg>
