<?xml version="1.0" encoding="UTF-8" standalone="no"?>
<svg xmlns:ffdec="https://www.free-decompiler.com/flash" xmlns:xlink="http://www.w3.org/1999/xlink" ffdec:objectType="shape" height="22.75px" width="16.0px" xmlns="http://www.w3.org/2000/svg">
  <g transform="matrix(1.0, 0.0, 0.0, 1.0, 8.95, 5.4)">
    <path d="M-2.0 12.0 L-0.8 9.9 -4.55 8.85 -5.3 11.1 -2.0 12.0 M-5.9 5.5 L1.4 8.3 Q1.5 10.7 0.95 12.25 0.4 13.9 -0.45 14.35 -2.4 13.4 -3.9 13.0 L-7.15 12.8 Q-6.25 10.45 -7.25 9.85 -8.2 9.2 -5.9 5.5" fill="#152026" fill-rule="evenodd" stroke="none"/>
    <path d="M-2.0 12.0 L-5.3 11.1 -4.55 8.85 -0.8 9.9 -2.0 12.0" fill="#65bcf6" fill-rule="evenodd" stroke="none"/>
    <path d="M-0.45 14.35 L-1.4 15.85 Q-2.75 16.9 -3.7 16.9 -4.6 16.95 -5.8 15.95 -6.6 15.3 -7.15 12.8 L-3.9 13.0 Q-2.4 13.4 -0.45 14.35" fill="#152026" fill-rule="evenodd" stroke="none"/>
    <path d="M3.25 9.0 L-8.5 4.55 Q-8.2 0.3 -5.45 -2.4 -2.8 -5.15 0.1 -5.0 3.0 -5.0 5.15 -2.6 7.35 -0.2 6.2 3.7 5.05 7.55 3.25 9.0" fill="url(#gradient0)" fill-rule="evenodd" stroke="none"/>
    <path d="M-2.0 12.0 L-0.8 9.9 -4.55 8.85 -5.3 11.1 -2.0 12.0 M-5.9 5.5 L1.4 8.3 3.25 9.05 Q5.05 7.6 6.2 3.75 7.35 -0.15 5.15 -2.55 3.0 -4.95 0.1 -4.95 -2.8 -5.1 -5.45 -2.35 -8.2 0.35 -8.5 4.6 L-5.9 5.5 Q-8.2 9.2 -7.25 9.85 -6.25 10.45 -7.15 12.8 L-3.9 13.0 Q-2.4 13.4 -0.45 14.35 0.4 13.9 0.95 12.25 1.5 10.7 1.4 8.3 M-0.45 14.35 L-1.4 15.85 Q-2.75 16.9 -3.7 16.9 -4.6 16.95 -5.8 15.95 -6.6 15.3 -7.15 12.8" fill="none" stroke="#070a0a" stroke-linecap="round" stroke-linejoin="round" stroke-width="0.9500000000000001"/>
  </g>
  <defs>
    <radialGradient cx="0" cy="0" gradientTransform="matrix(0.0104, -7.0E-4, 7.0E-4, 0.0104, -1.0, 2.15)" gradientUnits="userSpaceOnUse" id="gradient0" r="819.2" spreadMethod="pad">
      <stop offset="0.0" stop-color="#394b5b"/>
      <stop offset="0.27450980392156865" stop-color="#31444e"/>
      <stop offset="0.5529411764705883" stop-color="#273641"/>
    </radialGradient>
  </defs>
</svg>
