<?xml version="1.0" encoding="UTF-8" standalone="no"?>
<svg xmlns:xlink="http://www.w3.org/1999/xlink" height="9.45px" width="20.4px" xmlns="http://www.w3.org/2000/svg">
  <g transform="matrix(1.0, 0.0, 0.0, 1.0, 10.45, 2.6)">
    <path d="M-5.7 1.75 L-1.95 -1.0 -1.95 -2.1 2.15 -2.1 2.15 -1.0 5.45 1.45 4.55 2.9 2.2 1.35 -2.0 1.35 -4.8 3.25 -5.7 1.75" fill="#4d4844" fill-rule="evenodd" stroke="none"/>
    <path d="M5.45 1.45 L5.9 0.7 6.9 1.6 8.6 3.1 9.45 3.75 8.05 6.35 2.35 6.35 2.35 4.5 3.95 3.75 4.55 2.9 5.45 1.45 M-4.8 3.25 L-4.45 3.75 -2.9 4.5 -2.9 6.35 -8.55 6.35 -9.95 3.75 -9.1 3.05 -7.75 1.85 -6.4 0.7 -5.7 1.75 -4.8 3.25" fill="#97856f" fill-rule="evenodd" stroke="none"/>
    <path d="M-5.7 1.75 L-1.95 -1.0 -1.95 -2.1 2.15 -2.1 2.15 -1.0 5.45 1.45 M4.55 2.9 L2.2 1.35 -2.0 1.35 -4.8 3.25" fill="none" stroke="#2b2a29" stroke-linecap="round" stroke-linejoin="round" stroke-width="1.0"/>
    <path d="M5.45 1.45 L5.9 0.7 6.9 1.6 M8.6 3.1 L9.45 3.75 8.05 6.35 2.35 6.35 2.35 4.5 3.95 3.75 4.55 2.9 5.45 1.45 M-4.8 3.25 L-4.45 3.75 -2.9 4.5 -2.9 6.35 -8.55 6.35 -9.95 3.75 -9.1 3.05 M-7.75 1.85 L-6.4 0.7 -5.7 1.75 -4.8 3.25" fill="none" stroke="#655447" stroke-linecap="round" stroke-linejoin="round" stroke-width="1.0"/>
    <path d="M6.9 1.6 L8.6 3.1 M-9.1 3.05 L-7.75 1.85" fill="none" stroke="#ecbe3e" stroke-linecap="round" stroke-linejoin="round" stroke-width="1.0"/>
  </g>
</svg>
