<?xml version="1.0" encoding="UTF-8" standalone="no"?>
<svg xmlns:ffdec="https://www.free-decompiler.com/flash" xmlns:xlink="http://www.w3.org/1999/xlink" ffdec:objectType="shape" height="22.1px" width="12.6px" xmlns="http://www.w3.org/2000/svg">
  <g transform="matrix(1.0, 0.0, 0.0, 1.0, 3.7, 2.65)">
    <path d="M-0.35 7.4 L1.4 7.25 1.45 7.3 2.2 7.1 3.1 7.15 3.15 7.15 3.5 7.85 4.55 9.4 5.45 10.85 6.75 11.0 7.65 11.05 Q7.75 10.95 7.9 11.15 L8.15 11.25 Q8.55 10.75 8.35 9.45 L7.6 6.35 6.5 3.35 5.55 3.3 4.75 3.35 3.2 3.05 2.0 2.15 Q1.8 1.35 0.55 1.15 L-1.25 1.3 -1.75 1.25 M3.15 7.15 L3.5 7.85 M3.15 7.15 L1.45 7.3 M4.55 9.4 L5.45 10.8 5.45 10.85" fill="none" stroke="#191313" stroke-linecap="round" stroke-linejoin="round" stroke-opacity="0.5137255" stroke-width="1.0"/>
    <path d="M4.75 -0.7 Q5.85 -0.55 6.15 0.7 L6.3 3.3 Q6.55 3.6 7.2 3.5 L7.95 7.2 8.3 9.65 8.35 10.65 8.2 12.55 8.35 14.0 8.2 16.1 7.35 18.55 Q6.4 19.15 5.55 18.9 L4.7 17.95 3.95 16.55 Q3.55 15.4 3.5 14.4 L3.3 13.2 2.35 11.7 1.25 10.6 0.65 9.85 0.35 9.2" fill="none" stroke="#000000" stroke-linecap="round" stroke-linejoin="round" stroke-opacity="0.25490198" stroke-width="1.0"/>
    <path d="M-2.55 -2.15 Q-3.55 0.2 -3.0 1.3 L-1.95 2.35 -1.9 3.75 -1.7 5.15 -0.9 7.1" fill="none" stroke="#000000" stroke-linecap="round" stroke-linejoin="round" stroke-opacity="0.3529412" stroke-width="1.0"/>
  </g>
</svg>
