<?xml version="1.0" encoding="UTF-8" standalone="no"?>
<svg xmlns:ffdec="https://www.free-decompiler.com/flash" xmlns:xlink="http://www.w3.org/1999/xlink" ffdec:objectType="shape" height="20.2px" width="14.2px" xmlns="http://www.w3.org/2000/svg">
  <g transform="matrix(1.0, 0.0, 0.0, 1.0, 7.85, 5.1)">
    <path d="M4.6 -2.25 Q5.3 -1.1 5.35 0.1 L4.7 2.4 2.6 4.85 1.55 5.7 1.5 5.8 1.0 5.85 0.85 6.3 0.75 6.35 0.8 6.35 0.3 6.8 0.05 6.7 -2.45 6.05 -3.15 5.85 -4.05 3.35 -4.05 3.3 -4.2 3.0 -4.3 2.7 -4.8 0.2 Q-5.05 -1.85 -3.85 -3.0 L-2.15 -4.05 -1.9 -4.1 -0.7 -4.6 3.05 -3.6 4.6 -2.25 M-4.8 0.2 L-3.85 -3.0 -4.8 0.2" fill="url(#gradient0)" fill-rule="evenodd" stroke="none"/>
    <path d="M4.45 3.35 L5.85 3.7 Q5.15 7.9 2.4 10.75 L1.0 11.55 -0.25 12.25 -1.1 12.05 -1.6 10.45 0.3 6.8 0.8 6.35 0.85 6.4 0.85 6.35 1.5 5.8 1.55 5.7 2.6 4.85 3.9 3.8 4.2 3.85 4.45 3.35" fill="url(#gradient1)" fill-rule="evenodd" stroke="none"/>
    <path d="M1.5 5.8 L0.85 6.35 0.85 6.3 1.0 5.85 1.5 5.8" fill="#746e69" fill-rule="evenodd" stroke="none"/>
    <path d="M0.85 6.35 L0.85 6.4 0.8 6.35 0.85 6.35" fill="#593340" fill-rule="evenodd" stroke="none"/>
    <path d="M1.0 11.55 L0.45 13.45 Q-4.2 16.45 -6.7 11.7 L-6.15 9.95 -5.7 10.75 -4.7 11.0 -3.45 9.8 -1.65 10.2 -1.6 10.45 -1.65 10.2 -3.45 9.8 -3.15 5.85 -2.45 6.05 Q-1.25 7.2 0.05 6.7 L0.3 6.8 -1.6 10.45 -1.1 12.05 -0.25 12.25 1.0 11.55" fill="#333333" fill-rule="evenodd" stroke="none"/>
    <path d="M-6.15 9.95 L-7.1 8.6 Q-7.85 4.3 -6.25 0.5 L-5.0 0.8 -5.05 1.1 -4.85 1.15 -4.3 2.7 -4.2 3.0 -4.05 3.3 -4.05 3.35 -3.15 5.85 -3.45 9.8 -4.7 11.0 -5.7 10.75 -6.15 9.95" fill="url(#gradient2)" fill-rule="evenodd" stroke="none"/>
    <path d="M-2.45 6.05 L0.05 6.7 Q-1.25 7.2 -2.45 6.05" fill="url(#gradient3)" fill-rule="evenodd" stroke="none"/>
    <path d="M5.35 0.1 L5.75 -1.3 4.6 -2.25 3.05 -3.6 -0.7 -4.6 -1.9 -4.1 -2.15 -4.05 -3.7 -3.65 -3.85 -3.0 -4.8 0.2 -5.0 0.8 -6.25 0.5 Q-7.85 4.3 -7.1 8.6 L-6.15 9.95 -6.7 11.7 Q-4.2 16.45 0.45 13.45 L1.0 11.55 2.4 10.75 Q5.15 7.9 5.85 3.7 L4.45 3.35 4.7 2.4 5.35 0.1 M3.9 3.8 L2.6 4.85 1.55 5.7 1.5 5.8 0.85 6.35 0.8 6.35 0.3 6.8 -1.6 10.45 -1.1 12.05 -0.25 12.25 1.0 11.55 M0.05 6.7 L0.3 6.8 M-4.3 2.7 L-4.2 3.0 -4.05 3.3 -4.05 3.35 -3.15 5.85 -2.45 6.05 0.05 6.7 M-4.85 1.15 L-4.3 2.7 M-3.45 9.8 L-4.7 11.0 -5.7 10.75 -6.15 9.95 M-1.6 10.45 L-1.65 10.2 -3.45 9.8 -3.15 5.85" fill="none" stroke="#2b2927" stroke-linecap="round" stroke-linejoin="round" stroke-width="1.0"/>
  </g>
  <defs>
    <radialGradient cx="0" cy="0" gradientTransform="matrix(0.0078, 1.0E-4, -1.0E-4, 0.0078, 0.4, -0.45)" gradientUnits="userSpaceOnUse" id="gradient0" r="819.2" spreadMethod="pad">
      <stop offset="0.0" stop-color="#523b40"/>
      <stop offset="1.0" stop-color="#452d33"/>
      <stop offset="1.0" stop-color="#333333"/>
      <stop offset="1.0" stop-color="#523b40"/>
      <stop offset="1.0" stop-color="#523b40"/>
      <stop offset="1.0" stop-color="#523b40"/>
    </radialGradient>
    <radialGradient cx="0" cy="0" gradientTransform="matrix(0.0082, 1.0E-4, -1.0E-4, 0.0082, 4.15, 7.6)" gradientUnits="userSpaceOnUse" id="gradient1" r="819.2" spreadMethod="pad">
      <stop offset="0.0" stop-color="#4d4946"/>
      <stop offset="1.0" stop-color="#3c3b38"/>
      <stop offset="1.0" stop-color="#333333"/>
    </radialGradient>
    <radialGradient cx="0" cy="0" gradientTransform="matrix(0.007, 1.0E-4, -1.0E-4, 0.007, -4.65, 4.75)" gradientUnits="userSpaceOnUse" id="gradient2" r="819.2" spreadMethod="pad">
      <stop offset="0.0" stop-color="#4d4946"/>
      <stop offset="1.0" stop-color="#3c3b38"/>
      <stop offset="1.0" stop-color="#333333"/>
    </radialGradient>
    <radialGradient cx="0" cy="0" gradientTransform="matrix(0.0078, 1.0E-4, -1.0E-4, 0.0078, 0.4, -0.45)" gradientUnits="userSpaceOnUse" id="gradient3" r="819.2" spreadMethod="pad">
      <stop offset="0.0" stop-color="#523b40"/>
      <stop offset="1.0" stop-color="#57333c"/>
      <stop offset="1.0" stop-color="#333333"/>
      <stop offset="1.0" stop-color="#523b40"/>
      <stop offset="1.0" stop-color="#523b40"/>
      <stop offset="1.0" stop-color="#523b40"/>
    </radialGradient>
  </defs>
</svg>
