<?xml version="1.0" encoding="UTF-8" standalone="no"?>
<svg xmlns:ffdec="https://www.free-decompiler.com/flash" xmlns:xlink="http://www.w3.org/1999/xlink" ffdec:objectType="shape" height="28.85px" width="12.4px" xmlns="http://www.w3.org/2000/svg">
  <g transform="matrix(1.0, 0.0, 0.0, 1.0, 5.35, 7.7)">
    <path d="M3.3 -4.95 L3.7 -3.95 Q5.4 -1.55 5.7 1.6 L5.65 5.85 Q4.8 7.75 3.5 6.45 L2.25 4.5 0.85 2.5 -0.9 1.45 -1.75 -2.2 Q-0.2 -2.75 0.6 -3.6 L1.9 -5.4 3.3 -4.95" fill="url(#gradient0)" fill-rule="evenodd" stroke="none"/>
    <path d="M3.3 -4.95 L3.7 -3.95 Q5.4 -1.55 5.7 1.6 L5.65 5.85 Q4.8 7.75 3.5 6.45 L2.25 4.5 0.85 2.5 -0.9 1.45 -1.75 -2.2 Q-0.2 -2.75 0.6 -3.6 L1.9 -5.4 3.3 -4.95 Z" fill="none" stroke="#513817" stroke-linecap="butt" stroke-linejoin="miter-clip" stroke-miterlimit="15.12109375" stroke-width="1.0"/>
    <path d="M-1.55 -1.1 Q-0.2 0.75 0.7 1.3 L1.6 1.85 Q2.1 2.25 2.55 3.6 L3.25 5.4 Q4.1 6.6 5.75 6.15 6.5 9.0 6.1 9.6 L5.05 10.2 3.5 10.45 Q3.0 10.6 2.4 10.0 L2.0 9.4 1.0 6.45 Q0.35 4.95 -0.3 4.45 L-1.9 3.25 Q-2.85 2.45 -3.4 1.3 L-3.9 -0.1 Q-3.9 -0.7 -2.8 -0.6 -2.45 -0.6 -1.55 -1.1" fill="url(#gradient1)" fill-rule="evenodd" stroke="none"/>
    <path d="M-1.55 -1.1 Q-2.45 -0.6 -2.8 -0.6 -3.9 -0.7 -3.9 -0.1 L-3.4 1.3 Q-2.85 2.45 -1.9 3.25 L-0.3 4.45 Q0.35 4.95 1.0 6.45 L2.0 9.4 2.4 10.0 Q3.0 10.6 3.5 10.45 L5.05 10.2 6.1 9.6 Q6.5 9.0 5.75 6.15 4.1 6.6 3.25 5.4 L2.55 3.6 Q2.1 2.25 1.6 1.85 L0.7 1.3 Q-0.2 0.75 -1.55 -1.1 Z" fill="none" stroke="#25272a" stroke-linecap="round" stroke-linejoin="round" stroke-width="1.0"/>
    <path d="M3.1 -4.55 Q2.3 -3.2 1.2 -2.5 0.3 -1.8 -1.35 -1.25 -3.1 -3.4 -3.25 -4.0 -3.45 -4.5 -3.25 -5.4 L-2.65 -6.7 1.2 -6.85 Q2.6 -6.1 3.1 -4.55" fill="url(#gradient2)" fill-rule="evenodd" stroke="none"/>
    <path d="M3.1 -4.55 Q2.3 -3.2 1.2 -2.5 0.3 -1.8 -1.35 -1.25 -3.1 -3.4 -3.25 -4.0 -3.45 -4.5 -3.25 -5.4 L-2.65 -6.7 1.2 -6.85 Q2.6 -6.1 3.1 -4.55 Z" fill="none" stroke="#202224" stroke-linecap="butt" stroke-linejoin="miter-clip" stroke-miterlimit="15.12109375" stroke-width="1.0"/>
    <path d="M5.9 8.65 L6.05 9.75 6.1 12.2 Q5.95 13.45 5.1 14.25 4.35 15.0 3.4 15.05 1.15 15.15 1.45 13.75 L1.75 10.8 Q1.85 9.75 2.75 9.5 L4.95 9.1 5.9 8.65" fill="#1a1b20" fill-rule="evenodd" stroke="none"/>
    <path d="M5.9 8.65 L6.05 9.75 6.1 12.2 Q5.95 13.45 5.1 14.25 4.35 15.0 3.4 15.05 1.15 15.15 1.45 13.75 L1.75 10.8 Q1.85 9.75 2.75 9.5 L4.95 9.1 5.9 8.65 Z" fill="none" stroke="#18191b" stroke-linecap="butt" stroke-linejoin="miter-clip" stroke-miterlimit="15.12109375" stroke-width="1.0"/>
    <path d="M3.25 -4.95 Q5.25 -2.2 5.65 2.15 L6.2 9.6 Q5.75 9.7 5.75 11.6 5.7 13.7 5.35 14.1 L4.2 14.9 2.85 15.05 Q1.6 15.2 1.45 14.35 L1.85 11.85 1.75 9.65 1.4 7.25 0.65 5.7 -0.25 4.45 -1.35 3.65 -2.45 2.75 -3.05 1.95 -3.4 1.05 -3.75 -0.4 -2.35 -0.7 -1.45 -1.25 Q-2.5 -2.3 -3.0 -3.35 L-3.45 -4.95 -3.05 -5.95 -2.65 -6.45" fill="none" stroke="#010100" stroke-linecap="round" stroke-linejoin="round" stroke-opacity="0.3647059" stroke-width="1.0"/>
    <path d="M3.45 9.3 L4.8 9.0 6.35 8.9 6.55 10.55 Q6.55 12.0 6.35 12.45 6.2 12.9 3.5 13.45 3.1 13.5 3.0 12.4 L2.95 10.55 Q3.0 9.95 3.2 9.6 L3.45 9.3" fill="url(#gradient3)" fill-rule="evenodd" stroke="none"/>
    <path d="M3.45 9.3 L4.8 9.0 6.35 8.9 6.55 10.55 Q6.55 12.0 6.35 12.45 6.2 12.9 3.5 13.45 3.1 13.5 3.0 12.4 L2.95 10.55 Q3.0 9.95 3.2 9.6 L3.45 9.3 Z" fill="none" stroke="#25272a" stroke-linecap="round" stroke-linejoin="round" stroke-width="1.0"/>
  </g>
  <defs>
    <radialGradient cx="0" cy="0" gradientTransform="matrix(0.0058, -0.0017, 0.0054, 0.0208, -0.65, -0.8)" gradientUnits="userSpaceOnUse" id="gradient0" r="819.2" spreadMethod="pad">
      <stop offset="0.0" stop-color="#8e3a0e"/>
      <stop offset="1.0" stop-color="#dbb531"/>
    </radialGradient>
    <radialGradient cx="0" cy="0" gradientTransform="matrix(0.0057, -9.0E-4, 0.0027, 0.0218, 1.1, 3.8)" gradientUnits="userSpaceOnUse" id="gradient1" r="819.2" spreadMethod="pad">
      <stop offset="0.0" stop-color="#444954"/>
      <stop offset="1.0" stop-color="#dbdce1"/>
    </radialGradient>
    <radialGradient cx="0" cy="0" gradientTransform="matrix(0.0043, -9.0E-4, 0.0021, 0.0116, -0.9, -5.0)" gradientUnits="userSpaceOnUse" id="gradient2" r="819.2" spreadMethod="pad">
      <stop offset="0.0" stop-color="#1f1f1f"/>
      <stop offset="1.0" stop-color="#636c6a"/>
    </radialGradient>
    <radialGradient cx="0" cy="0" gradientTransform="matrix(0.0029, -8.0E-4, 0.0034, 0.0139, 4.35, 10.15)" gradientUnits="userSpaceOnUse" id="gradient3" r="819.2" spreadMethod="pad">
      <stop offset="0.0" stop-color="#444954"/>
      <stop offset="1.0" stop-color="#dbdce1"/>
    </radialGradient>
  </defs>
</svg>
