<?xml version="1.0" encoding="UTF-8" standalone="no"?>
<svg xmlns:xlink="http://www.w3.org/1999/xlink" height="21.35px" width="13.05px" xmlns="http://www.w3.org/2000/svg">
  <g transform="matrix(1.0, 0.0, 0.0, 1.0, 6.4, 4.6)">
    <path d="M3.8 13.9 Q3.85 16.65 0.1 16.15 -1.15 15.4 -1.4 13.9 L1.8 14.35 3.45 14.05 3.8 13.9 M-5.05 -2.1 Q-3.65 -4.45 -0.4 -4.05 L1.9 -3.3 1.7 -2.55 Q1.2 -1.2 0.4 -0.9 L0.75 1.85 -0.2 3.0 0.45 6.7 -0.95 7.05 -2.05 3.05 -1.25 1.4 -1.6 -0.65 -2.75 -0.65 Q-3.95 -0.95 -4.65 -2.5 L-4.75 -2.35 -4.8 -2.3 -5.05 -2.1" fill="#595958" fill-rule="evenodd" stroke="none"/>
    <path d="M1.9 -3.3 L2.05 -3.75 Q4.0 -3.25 4.9 -1.3 L4.2 -0.9 4.9 -1.3 4.95 -1.3 4.2 -0.9 3.95 -0.8 3.65 -0.65 3.85 1.2 5.55 1.4 5.65 1.9 5.55 3.45 3.95 4.0 4.1 6.0 5.45 6.45 Q5.8 9.45 5.55 11.25 5.25 13.1 3.8 13.9 L3.45 14.05 1.8 14.35 1.1 11.35 1.8 10.2 1.4 7.0 0.45 6.7 -0.2 3.0 0.75 1.85 0.4 -0.9 Q1.2 -1.2 1.7 -2.55 L1.9 -3.3" fill="#e1e1e1" fill-rule="evenodd" stroke="none"/>
    <path d="M4.9 -1.3 L5.2 -1.45 Q6.0 -0.1 5.8 1.4 L5.55 1.4 3.85 1.2 3.65 -0.65 3.95 -0.8 4.2 -0.9 4.95 -1.3 4.9 -1.3" fill="url(#gradient0)" fill-rule="evenodd" stroke="none"/>
    <path d="M5.55 3.45 L5.85 3.35 Q6.45 4.9 5.85 6.55 L5.45 6.45 4.1 6.0 3.95 4.0 5.55 3.45" fill="url(#gradient1)" fill-rule="evenodd" stroke="none"/>
    <path d="M-1.4 13.9 L-1.55 13.85 Q-4.9 12.6 -4.65 8.75 L-4.3 8.6 -3.3 8.1 -2.3 8.6 Q-1.35 8.7 -1.0 7.15 L-0.95 7.05 0.45 6.7 1.4 7.0 1.8 10.2 1.1 11.35 1.8 14.35 -1.4 13.9" fill="#a7a7a7" fill-rule="evenodd" stroke="none"/>
    <path d="M-4.3 8.6 L-4.65 6.55 -3.3 5.4 -3.25 5.35 -3.95 2.55 -5.75 2.25 -5.9 -1.25 -5.5 -1.7 -5.3 -1.9 -5.05 -2.1 -4.8 -2.3 -4.75 -2.35 -4.65 -2.5 Q-3.95 -0.95 -2.75 -0.65 L-1.6 -0.65 -1.25 1.4 -2.05 3.05 -0.95 7.05 -1.0 7.15 Q-1.35 8.7 -2.3 8.6 L-3.3 8.1 -4.3 8.6" fill="#cbcbcb" fill-rule="evenodd" stroke="none"/>
    <path d="M-4.65 6.55 Q-5.75 5.2 -5.85 3.6 L-5.75 2.25 -3.95 2.55 -3.25 5.35 -3.3 5.4 -4.65 6.55" fill="url(#gradient2)" fill-rule="evenodd" stroke="none"/>
    <path d="M3.8 13.9 Q3.85 16.65 0.1 16.15 -1.15 15.4 -1.4 13.9 M-5.05 -2.1 Q-3.65 -4.45 -0.4 -4.05 L1.9 -3.3" fill="none" stroke="#3c3c3c" stroke-linecap="round" stroke-linejoin="round" stroke-width="1.0"/>
    <path d="M1.9 -3.3 L2.05 -3.75 Q4.0 -3.25 4.9 -1.3 L4.95 -1.3 M5.55 1.4 L5.65 1.9 5.55 3.45 M5.45 6.45 Q5.8 9.45 5.55 11.25 5.25 13.1 3.8 13.9 L3.45 14.05 1.8 14.35 1.1 11.35 1.8 10.2 1.4 7.0 0.45 6.7 -0.2 3.0 0.75 1.85 0.4 -0.9 Q1.2 -1.2 1.7 -2.55 L1.9 -3.3 M-4.3 8.6 L-4.65 6.55 M-5.75 2.25 L-5.9 -1.25 -5.5 -1.7 -5.3 -1.9 -5.05 -2.1 -4.8 -2.3 -4.75 -2.35 -4.65 -2.5 Q-3.95 -0.95 -2.75 -0.65 L-1.6 -0.65 -1.25 1.4 -2.05 3.05 -0.95 7.05" fill="none" stroke="#717171" stroke-linecap="round" stroke-linejoin="round" stroke-width="1.0"/>
    <path d="M4.9 -1.3 L5.2 -1.45 Q6.0 -0.1 5.8 1.4 L5.55 1.4 3.85 1.2 3.65 -0.65 3.95 -0.8 4.2 -0.9 4.9 -1.3 M5.55 3.45 L5.85 3.35 Q6.45 4.9 5.85 6.55 L5.45 6.45 4.1 6.0 3.95 4.0 5.55 3.45 M-4.65 6.55 Q-5.75 5.2 -5.85 3.6 L-5.75 2.25 -3.95 2.55 -3.25 5.35 -3.3 5.4 -4.65 6.55" fill="none" stroke="#262f40" stroke-linecap="round" stroke-linejoin="round" stroke-width="1.0"/>
    <path d="M-1.4 13.9 L-1.55 13.85 Q-4.9 12.6 -4.65 8.75 L-4.3 8.6 -3.3 8.1 -2.3 8.6 Q-1.35 8.7 -1.0 7.15 L-0.95 7.05 0.45 6.7 M1.8 14.35 L-1.4 13.9" fill="none" stroke="#434343" stroke-linecap="round" stroke-linejoin="round" stroke-width="1.0"/>
  </g>
  <defs>
    <linearGradient gradientTransform="matrix(-0.0014, -2.0E-4, -2.0E-4, 0.0014, 4.75, -0.05)" gradientUnits="userSpaceOnUse" id="gradient0" spreadMethod="pad" x1="-819.2" x2="819.2">
      <stop offset="0.0" stop-color="#5b9666"/>
      <stop offset="1.0" stop-color="#253159"/>
    </linearGradient>
    <linearGradient gradientTransform="matrix(-0.0013, 1.0E-4, 1.0E-4, 0.0013, 5.1, 4.95)" gradientUnits="userSpaceOnUse" id="gradient1" spreadMethod="pad" x1="-819.2" x2="819.2">
      <stop offset="0.0" stop-color="#5b9666"/>
      <stop offset="1.0" stop-color="#253159"/>
    </linearGradient>
    <linearGradient gradientTransform="matrix(-0.0016, 0.0, 0.0, 0.0016, -4.55, 4.4)" gradientUnits="userSpaceOnUse" id="gradient2" spreadMethod="pad" x1="-819.2" x2="819.2">
      <stop offset="0.0" stop-color="#5b9666"/>
      <stop offset="1.0" stop-color="#253159"/>
    </linearGradient>
  </defs>
</svg>
