<?xml version="1.0" encoding="UTF-8" standalone="no"?>
<svg xmlns:ffdec="https://www.free-decompiler.com/flash" xmlns:xlink="http://www.w3.org/1999/xlink" ffdec:objectType="shape" height="23.6px" width="14.85px" xmlns="http://www.w3.org/2000/svg">
  <g transform="matrix(1.0, 0.0, 0.0, 1.0, 2.8, 6.8)">
    <path d="M1.85 -6.6 L2.6 -6.5 Q3.45 -6.25 3.9 -5.6 4.6 -4.4 4.55 -3.55 7.05 5.45 7.55 6.15 8.05 6.85 9.2 9.9 10.35 13.05 10.2 13.65 10.0 14.4 7.95 11.4 8.5 14.25 8.3 14.35 8.05 14.4 5.1 9.25 L2.55 3.55 0.3 -1.7 -0.3 -3.4 -0.55 -4.15 Q0.05 -5.55 0.7 -6.15 L1.5 -6.5 1.85 -6.6" fill="#886a4d" fill-rule="evenodd" stroke="none"/>
    <path d="M-0.3 -5.5 L1.75 -4.6 2.65 -2.2 Q3.05 -1.35 2.05 -0.8 L0.2 0.0 Q-1.4 -0.2 -1.6 -1.9 -1.8 -3.15 -1.1 -4.7 L-0.3 -5.5" fill="#f0c468" fill-rule="evenodd" stroke="none"/>
    <path d="M0.1 -4.95 L-0.3 -4.6 Q-0.65 -4.05 -0.45 -3.3 -0.25 -2.6 1.5 1.3 L5.9 10.6 8.2 14.35 8.05 11.5 10.5 13.7 Q9.25 8.05 8.0 6.35 7.35 5.5 6.6 2.75 L5.55 -1.45 4.85 -2.95 Q4.4 -4.8 3.95 -5.55 L3.45 -6.2" fill="none" stroke="#584a38" stroke-linecap="round" stroke-linejoin="round" stroke-width="0.9500000000000001"/>
    <path d="M1.45 -6.3 L2.15 -6.35 3.6 -6.05 5.15 -5.3 5.6 -4.4 Q5.85 -3.5 5.05 -2.8 L3.6 -1.3 -2.15 0.2 Q-1.95 -1.75 -2.05 -2.85 -2.05 -3.45 -1.35 -4.15 L-0.2 -5.1 1.45 -6.3" fill="#f0c468" fill-rule="evenodd" stroke="none"/>
    <path d="M1.45 -6.3 L2.15 -6.35 3.6 -6.05 5.15 -5.3 5.6 -4.4 Q5.85 -3.5 5.05 -2.8 L3.6 -1.3 -2.15 0.2 Q-1.95 -1.75 -2.05 -2.85 -2.05 -3.45 -1.35 -4.15 L-0.2 -5.1 1.45 -6.3 Z" fill="none" stroke="#5a4a38" stroke-linecap="butt" stroke-linejoin="miter-clip" stroke-miterlimit="4.0" stroke-width="0.9500000000000001"/>
    <path d="M5.4 -2.9 Q6.2 -2.25 6.9 -1.75 L7.8 -0.6 Q8.0 -0.05 7.8 0.85 L7.8 2.95 7.85 4.75 Q7.9 5.3 8.5 6.55 L3.95 9.2 2.2 6.7 0.8 3.75 -0.1 1.45 2.25 -0.95 5.4 -2.9" fill="#dec68f" fill-rule="evenodd" stroke="none"/>
    <path d="M5.4 -2.9 L2.25 -0.95 -0.1 1.45 0.8 3.75 2.2 6.7 3.95 9.2 8.5 6.55 Q7.9 5.3 7.85 4.75 L7.8 2.95 7.8 0.85 Q8.0 -0.05 7.8 -0.6 L6.9 -1.75 Q6.2 -2.25 5.4 -2.9 Z" fill="none" stroke="#524934" stroke-linecap="butt" stroke-linejoin="miter-clip" stroke-miterlimit="4.0" stroke-width="0.9500000000000001"/>
    <path d="M6.1 7.35 L7.05 8.5 8.45 9.5 9.7 9.55 10.5 10.15 11.2 12.15 Q11.8 13.8 11.85 14.75 11.95 15.9 10.15 16.35 L7.2 16.25 Q5.6 15.65 4.2 12.45 L3.15 9.0 Q0.4 5.5 -0.25 4.2 L-2.1 0.65 1.4 -0.6 2.1 -0.6 4.5 -1.3 5.4 1.1 4.7 4.05 6.25 7.4 6.1 7.35 6.0 7.25 Q5.8 7.0 5.05 7.25 L5.35 7.2 6.1 7.35 M3.35 9.15 L3.45 8.35 3.6 8.0 Q2.85 8.8 3.35 9.15" fill="#cfac5d" fill-rule="evenodd" stroke="none"/>
    <path d="M4.0 10.95 L6.45 10.4 7.1 10.9 Q7.8 11.4 8.35 11.5 L10.65 11.1" fill="none" stroke="#a4894b" stroke-linecap="round" stroke-linejoin="round" stroke-width="0.9500000000000001"/>
    <path d="M10.2 9.8 L8.3 9.55 7.3 8.7 6.7 8.05 6.65 8.05 6.8 8.25 6.15 8.2 5.5 8.25 3.65 9.5 Q3.9 9.15 4.85 8.55 5.1 8.35 5.5 8.25 L5.65 8.15 6.35 8.0 6.65 8.05 Q4.3 5.0 4.8 3.1 5.4 0.75 3.9 -1.85 L5.3 -3.0 4.1 -2.15 Q2.75 -1.3 2.05 -1.05 L-1.9 0.15" fill="none" stroke="#715e46" stroke-linecap="round" stroke-linejoin="round" stroke-width="0.9500000000000001"/>
    <path d="M-2.0 -3.6 Q-2.95 0.25 -1.15 2.85 -1.05 4.7 0.7 6.55 L3.55 9.25 4.4 12.8 5.5 14.45 Q6.8 16.15 7.9 16.3 9.75 16.55 11.1 15.8 11.65 15.45 11.6 13.75 L10.85 11.5 10.05 9.85 9.35 9.3" fill="none" stroke="#524934" stroke-linecap="round" stroke-linejoin="round" stroke-width="0.9500000000000001"/>
    <path d="M-0.8 2.6 L2.0 2.15 2.6 3.6 -0.7 4.8 Q-1.2 4.7 -1.5 4.1 L-1.65 3.25 -1.55 2.85 -0.8 2.6" fill="#4f79a1" fill-rule="evenodd" stroke="none"/>
    <path d="M-0.8 2.6 L2.0 2.15 2.6 3.6 -0.7 4.8 Q-1.2 4.7 -1.5 4.1 L-1.65 3.25 -1.55 2.85 -0.8 2.6 Z" fill="none" stroke="#252c4a" stroke-linecap="round" stroke-linejoin="round" stroke-width="0.9500000000000001"/>
    <path d="M1.3 6.05 L2.9 5.55 3.8 6.85 Q2.85 7.5 1.95 8.25 1.4 8.25 0.9 7.7 L0.6 6.9 0.65 6.45 1.3 6.05" fill="#4f79a1" fill-rule="evenodd" stroke="none"/>
    <path d="M1.3 6.05 L2.9 5.55 3.8 6.85 Q2.85 7.5 1.95 8.25 1.4 8.25 0.9 7.7 L0.6 6.9 0.65 6.45 1.3 6.05 Z" fill="none" stroke="#252c4a" stroke-linecap="round" stroke-linejoin="round" stroke-width="0.9500000000000001"/>
  </g>
</svg>
