<?xml version="1.0" encoding="UTF-8" standalone="no"?>
<svg xmlns:ffdec="https://www.free-decompiler.com/flash" xmlns:xlink="http://www.w3.org/1999/xlink" ffdec:objectType="shape" height="27.8px" width="16.4px" xmlns="http://www.w3.org/2000/svg">
  <g transform="matrix(1.0, 0.0, 0.0, 1.0, 3.05, 3.25)">
    <path d="M10.3 19.95 L9.2 22.25 7.1 22.15 5.5 19.45 6.55 14.3 9.95 12.3 10.3 19.95" fill="#311616" fill-rule="evenodd" stroke="none"/>
    <path d="M10.3 19.95 L11.25 21.6 10.3 24.05 5.8 24.05 4.15 21.4 1.8 21.25 -0.15 18.1 -0.5 14.65 0.9 12.55 0.95 12.5 1.5 17.15 2.85 19.4 5.5 19.45 7.1 22.15 9.2 22.25 10.3 19.95" fill="#511717" fill-rule="evenodd" stroke="none"/>
    <path d="M5.5 19.45 L6.55 14.3 9.1 12.85" fill="none" stroke="#1e1d17" stroke-linecap="round" stroke-linejoin="round" stroke-width="1.0"/>
    <path d="M10.3 19.95 L9.2 22.25 7.1 22.15 6.85 21.8 5.5 19.45 M9.1 12.85 L9.95 12.3 10.25 14.6 Q10.65 17.4 10.3 19.95" fill="none" stroke="#191818" stroke-linecap="round" stroke-linejoin="round" stroke-width="1.0"/>
    <path d="M0.9 12.05 L0.95 12.5 0.9 12.55 -0.5 14.65 -0.15 18.1 1.8 21.25 4.15 21.4 5.8 24.05 10.3 24.05 11.25 21.6 10.3 19.95" fill="none" stroke="#000000" stroke-linecap="round" stroke-linejoin="round" stroke-width="1.0"/>
    <path d="M8.95 10.6 L8.15 10.2" fill="none" stroke="#38372c" stroke-linecap="round" stroke-linejoin="round" stroke-width="1.0"/>
    <path d="M0.95 12.5 L1.5 17.15 2.85 19.4 5.5 19.45 M1.8 10.0 L1.0 11.45 M10.25 14.6 L7.95 16.1 6.95 21.6 6.85 21.8" fill="none" stroke="#2c0404" stroke-linecap="round" stroke-linejoin="round" stroke-width="1.0"/>
    <path d="M1.0 11.45 L0.9 12.05 M9.1 12.85 L8.95 10.6" fill="none" stroke="#170505" stroke-linecap="round" stroke-linejoin="round" stroke-width="1.0"/>
    <path d="M6.4 15.05 L6.0 17.25 2.0 15.65 -1.8 14.05 -0.65 12.1 2.95 13.5 6.4 15.05 M2.0 15.65 L2.95 13.5 2.0 15.65" fill="#3a2a2a" fill-rule="evenodd" stroke="none"/>
    <path d="M5.5 19.45 L7.1 22.15 9.2 22.25 10.3 19.95 Q10.65 17.4 10.25 14.6 L9.95 12.3 9.1 12.85" fill="none" stroke="#100f0f" stroke-linecap="round" stroke-linejoin="round" stroke-width="1.0"/>
    <path d="M2.95 13.5 L2.0 15.65 6.0 17.25 M2.0 15.65 L-1.8 14.05 -0.65 12.1 2.95 13.5 6.4 15.05" fill="none" stroke="#191313" stroke-linecap="round" stroke-linejoin="round" stroke-width="1.0"/>
    <path d="M9.1 12.85 L6.55 14.3 6.4 15.05 6.0 17.25 5.5 19.45" fill="none" stroke="#171111" stroke-linecap="round" stroke-linejoin="round" stroke-width="1.0"/>
    <path d="M7.6 10.0 L7.0 11.2 6.9 11.3 Q6.15 12.1 5.05 12.1 4.05 12.1 3.25 11.35 L3.2 11.3 Q2.7 10.8 2.55 10.1 L2.5 9.5 Q2.5 8.6 3.0 7.9 L3.2 7.65 Q4.0 6.9 5.05 6.9 6.15 6.9 6.9 7.65 L6.9 7.7 Q7.65 8.45 7.65 9.5 L7.6 10.0 M3.0 7.9 L4.25 8.9 Q4.0 9.15 4.0 9.6 4.0 10.05 4.25 10.35 L3.25 11.35 4.25 10.35 Q4.0 10.05 4.0 9.6 4.0 9.15 4.25 8.9 L3.0 7.9 M7.0 11.2 L6.0 10.35 6.2 9.6 5.9 8.8 5.85 8.75 6.9 7.7 5.85 8.75 5.9 8.8 6.2 9.6 6.0 10.35 7.0 11.2" fill="#1e1313" fill-rule="evenodd" stroke="none"/>
    <path d="M1.4 6.4 L3.0 5.7 Q5.1 5.05 7.15 5.7 L8.75 6.4 8.8 8.9 10.7 9.25 9.2 10.95 7.6 10.0 7.65 9.5 Q7.65 8.45 6.9 7.7 L6.9 7.65 Q6.15 6.9 5.05 6.9 4.0 6.9 3.2 7.65 L3.0 7.9 Q2.5 8.6 2.5 9.5 L2.55 10.1 1.1 10.95 -0.4 9.25 1.35 8.9 1.4 6.4" fill="#311616" fill-rule="evenodd" stroke="none"/>
    <path d="M-0.65 -1.0 Q0.45 -1.95 2.35 -2.4 L2.7 -2.5 4.65 -2.7 7.6 -2.5 7.95 -2.4 Q9.85 -1.95 10.95 -1.0 L8.75 6.4 10.95 -1.0 Q12.4 0.8 12.55 2.05 L12.85 6.0 Q12.15 7.9 11.15 9.25 L10.7 9.25 8.8 8.9 8.75 6.4 7.15 5.7 Q5.1 5.05 3.0 5.7 L1.4 6.4 -0.65 -1.0 1.4 6.4 1.35 8.9 -0.4 9.25 -0.85 9.25 -2.1 7.15 -2.55 6.0 -2.25 2.05 -2.1 1.35 Q-1.85 0.6 -0.65 -1.0 M2.65 0.35 L3.85 1.3 5.1 2.3 3.85 1.3 2.6 3.65 3.85 1.3 2.65 0.35 M7.7 1.7 L6.8 3.85 4.05 3.85 6.8 3.85 7.7 1.7 M5.65 1.0 L5.65 -0.45 5.65 1.0" fill="url(#gradient0)" fill-rule="evenodd" stroke="none"/>
    <path d="M10.95 -1.0 Q9.85 -1.95 7.95 -2.4 L7.6 -2.5 4.65 -2.7 2.7 -2.5 2.35 -2.4 Q0.45 -1.95 -0.65 -1.0 -1.85 0.6 -2.1 1.35 L-2.25 2.05 -2.55 6.0 -2.1 7.15 -0.85 9.25 -0.4 9.25 1.35 8.9 1.4 6.4 3.0 5.7 Q5.1 5.05 7.15 5.7 L8.75 6.4 8.8 8.9 10.7 9.25 9.2 10.95 7.6 10.0 7.0 11.2 6.9 11.3 Q6.15 12.1 5.05 12.1 4.05 12.1 3.25 11.35 L3.2 11.3 Q2.7 10.8 2.55 10.1 L1.1 10.95 -0.4 9.25 M10.95 -1.0 Q12.4 0.8 12.55 2.05 L12.85 6.0 Q12.15 7.9 11.15 9.25 L10.7 9.25 M2.55 10.1 L2.5 9.5 Q2.5 8.6 3.0 7.9 L3.2 7.65 Q4.0 6.9 5.05 6.9 6.15 6.9 6.9 7.65 L6.9 7.7 Q7.65 8.45 7.65 9.5 L7.6 10.0" fill="none" stroke="#170505" stroke-linecap="round" stroke-linejoin="round" stroke-width="1.0"/>
    <path d="M4.05 3.85 L6.8 3.85 7.7 1.7 M5.1 2.3 L3.85 1.3 2.6 3.65 M3.85 1.3 L2.65 0.35 M5.65 -0.45 L5.65 1.0" fill="none" stroke="#7e2020" stroke-linecap="round" stroke-linejoin="round" stroke-width="1.0"/>
    <path d="M3.25 11.35 L4.25 10.35 Q4.0 10.05 4.0 9.6 4.0 9.15 4.25 8.9 L3.0 7.9 M6.9 7.7 L5.85 8.75 5.9 8.8 6.2 9.6 6.0 10.35 7.0 11.2" fill="none" stroke="#ff0000" stroke-linecap="round" stroke-linejoin="round" stroke-width="1.0"/>
    <path d="M-0.65 -1.0 L1.4 6.4 M8.75 6.4 L10.95 -1.0" fill="none" stroke="#2a0909" stroke-linecap="round" stroke-linejoin="round" stroke-width="1.0"/>
    <path d="M10.7 9.25 L11.15 9.25 Q12.15 7.9 12.85 6.0 L12.55 2.05 Q12.4 0.8 10.95 -1.0 9.85 -1.95 7.95 -2.4 L7.6 -2.5 4.65 -2.7 2.7 -2.5 2.35 -2.4 Q0.45 -1.95 -0.65 -1.0 L-1.2 -0.3 -2.1 1.35 -2.25 2.05 -2.55 6.0 -2.1 7.15 -0.85 9.25 -0.4 9.25 1.35 8.9 1.4 6.4 3.0 5.7 Q5.1 5.05 7.15 5.7 L8.75 6.4 8.8 8.9 10.7 9.25 9.2 10.95 7.6 10.0 7.0 11.2 6.9 11.3 Q6.15 12.1 5.05 12.1 4.05 12.1 3.25 11.35 L3.2 11.3 Q2.7 10.75 2.55 10.1 L1.1 10.95 -0.4 9.25 M2.55 10.1 L2.5 9.5 Q2.5 8.6 3.0 7.9 L3.2 7.65 Q4.0 6.9 5.05 6.9 L5.85 7.0 Q6.45 7.2 6.9 7.65 L6.9 7.7 Q7.65 8.45 7.65 9.5 L7.6 10.0 M5.85 7.0 Q6.45 7.2 6.9 7.7" fill="none" stroke="#170505" stroke-linecap="round" stroke-linejoin="round" stroke-width="1.0"/>
  </g>
  <defs>
    <radialGradient cx="0" cy="0" gradientTransform="matrix(0.0098, 0.0, 0.0, 0.0098, 4.9, 1.85)" gradientUnits="userSpaceOnUse" id="gradient0" r="819.2" spreadMethod="pad">
      <stop offset="0.0" stop-color="#511717"/>
      <stop offset="1.0" stop-color="#270b0b"/>
      <stop offset="1.0" stop-color="#ffffff" stop-opacity="0.7490196"/>
    </radialGradient>
  </defs>
</svg>
