<?xml version="1.0" encoding="UTF-8" standalone="no"?>
<svg xmlns:ffdec="https://www.free-decompiler.com/flash" xmlns:xlink="http://www.w3.org/1999/xlink" ffdec:objectType="shape" height="22.85px" width="16.3px" xmlns="http://www.w3.org/2000/svg">
  <g transform="matrix(1.0, 0.0, 0.0, 1.0, 9.1, 5.85)">
    <path d="M6.4 -1.25 L6.5 -1.25 5.7 1.3 6.4 -1.25 M-5.95 0.5 L-4.45 -4.5 -2.6 -4.9 -3.9 -4.1 Q-5.65 -0.9 -5.45 1.6 L-5.95 0.5" fill="#8a8580" fill-rule="evenodd" stroke="none"/>
    <path d="M5.25 -2.3 L6.15 -1.55 6.45 -1.4 6.4 -1.25 5.7 1.3 5.0 3.9 3.45 5.1 3.2 5.3 3.1 5.35 2.9 5.5 5.25 -2.3 M-2.6 -4.9 L-4.8 3.4 -5.25 2.1 -5.55 2.05 -5.45 1.6 Q-5.65 -0.9 -3.9 -4.1 L-2.6 -4.9" fill="#615e57" fill-rule="evenodd" stroke="none"/>
    <path d="M-2.6 -4.9 L-1.0 -5.35 3.35 -4.0 5.25 -2.3 2.9 5.5 0.4 7.45 -3.7 6.25 -4.8 3.4 -2.6 -4.9" fill="url(#gradient0)" fill-rule="evenodd" stroke="none"/>
    <path d="M-7.1 10.85 L-8.3 9.15 Q-9.15 4.25 -7.5 0.0 L-5.95 0.5 -5.45 1.6 -5.55 2.05 -5.25 2.1 -4.8 3.4 -3.7 6.25 -4.05 10.75 -5.45 11.9 -6.55 11.55 -7.1 10.85" fill="url(#gradient1)" fill-rule="evenodd" stroke="none"/>
    <path d="M1.25 12.85 L0.45 15.45 Q-4.9 18.4 -7.7 13.0 L-7.1 10.85 -6.55 11.55 -5.45 11.9 -4.05 10.75 -3.7 6.25 0.4 7.45 -1.9 11.5 -1.35 13.25 -0.25 13.6 1.25 12.85 M-1.9 11.5 L-1.95 11.3 -4.05 10.75 -1.95 11.3 -1.9 11.5" fill="#333333" fill-rule="evenodd" stroke="none"/>
    <path d="M5.0 3.9 L6.7 4.4 Q5.95 9.05 2.8 12.05 L1.25 12.85 -0.25 13.6 -1.35 13.25 -1.9 11.5 0.4 7.45 2.9 5.5 3.1 5.35 3.2 5.3 3.45 5.1 5.0 3.9" fill="url(#gradient2)" fill-rule="evenodd" stroke="none"/>
    <path d="M-2.6 -4.9 L-1.0 -5.35 3.35 -4.0 5.25 -2.3 6.15 -1.55 M6.4 -1.25 L6.5 -1.25 5.7 1.3 5.0 3.9 6.7 4.4 Q5.95 9.05 2.8 12.05 L1.25 12.85 0.45 15.45 Q-4.9 18.4 -7.7 13.0 L-7.1 10.85 -8.3 9.15 Q-9.15 4.25 -7.5 0.0 L-5.95 0.5 -4.45 -4.5 -2.6 -4.9 M-4.8 3.4 L-3.7 6.25 0.4 7.45 2.9 5.5 M5.0 3.9 L3.45 5.1 3.2 5.3 3.1 5.35 M-5.45 1.6 L-5.95 0.5 M-4.05 10.75 L-5.45 11.9 -6.55 11.55 -7.1 10.85 M-3.7 6.25 L-4.05 10.75 -1.95 11.3 -1.9 11.5 0.4 7.45 M-5.25 2.1 L-4.8 3.4 M-1.9 11.5 L-1.35 13.25 -0.25 13.6 1.25 12.85" fill="none" stroke="#2b2927" stroke-linecap="round" stroke-linejoin="round" stroke-width="1.0"/>
  </g>
  <defs>
    <radialGradient cx="0" cy="0" gradientTransform="matrix(0.0242, 0.0, 0.0, 0.0242, 2.3, -5.85)" gradientUnits="userSpaceOnUse" id="gradient0" r="819.2" spreadMethod="pad">
      <stop offset="0.0" stop-color="#4f524e"/>
      <stop offset="1.0" stop-color="#373836"/>
    </radialGradient>
    <radialGradient cx="0" cy="0" gradientTransform="matrix(0.0098, 0.0, 0.0, 0.0098, -7.4, 4.1)" gradientUnits="userSpaceOnUse" id="gradient1" r="819.2" spreadMethod="pad">
      <stop offset="0.0" stop-color="#4d4946"/>
      <stop offset="1.0" stop-color="#3c3b38"/>
      <stop offset="1.0" stop-color="#333333"/>
    </radialGradient>
    <radialGradient cx="0" cy="0" gradientTransform="matrix(0.0076, 0.0, 0.0, 0.0076, 1.85, 8.25)" gradientUnits="userSpaceOnUse" id="gradient2" r="819.2" spreadMethod="pad">
      <stop offset="0.0" stop-color="#4d4946"/>
      <stop offset="1.0" stop-color="#3c3b38"/>
      <stop offset="1.0" stop-color="#333333"/>
    </radialGradient>
  </defs>
</svg>
