<?xml version="1.0" encoding="UTF-8" standalone="no"?>
<svg xmlns:ffdec="https://www.free-decompiler.com/flash" xmlns:xlink="http://www.w3.org/1999/xlink" ffdec:objectType="shape" height="22.95px" width="16.1px" xmlns="http://www.w3.org/2000/svg">
  <g transform="matrix(1.0, 0.0, 0.0, 1.0, 9.15, 6.15)">
    <path d="M4.85 -0.2 L4.55 -0.2 4.85 -0.2 M-8.25 5.9 L-8.35 5.6 -8.35 5.55 -8.6 3.7 -7.95 2.85 -7.9 2.8 -8.7 2.1 Q-6.95 -4.5 -6.1 -5.2 -5.2 -5.9 -2.3 -5.6 0.65 -5.4 3.55 -4.1 6.35 -2.85 6.5 -1.65 6.55 -0.55 5.2 5.45 L3.95 5.9 4.2 6.65 2.85 8.6 2.05 8.6 Q-3.15 8.3 -7.45 6.3 L-8.25 5.9 M1.9 6.05 L3.95 5.9 1.9 6.05 1.8 6.0 1.4 6.0 1.9 6.05 M4.7 -1.65 L4.4 -1.7 4.7 -1.65 M-6.3 3.55 L-5.25 2.35 1.8 4.05 2.15 5.5 1.8 4.05 -5.25 2.35 -6.3 3.55 M-4.7 -4.0 L-5.0 -4.05 -4.7 -4.0 M-5.6 -2.55 L-5.9 -2.6 -5.6 -2.55" fill="url(#gradient0)" fill-rule="evenodd" stroke="none"/>
    <path d="M1.9 6.05 L1.4 6.0 1.8 6.0 1.9 6.05" fill="url(#gradient1)" fill-rule="evenodd" stroke="none"/>
    <path d="M-7.45 6.3 Q-3.15 8.3 2.05 8.6 2.05 11.15 0.35 15.5 -7.8 18.0 -8.05 12.7 -8.0 8.5 -7.45 6.3" fill="#191919" fill-rule="evenodd" stroke="none"/>
    <path d="M4.55 -0.2 L4.85 -0.2 M4.4 -1.7 L4.7 -1.65 M-5.9 -2.6 L-5.6 -2.55 M-5.0 -4.05 L-4.7 -4.0" fill="none" stroke="#151515" stroke-linecap="round" stroke-linejoin="round" stroke-width="1.0"/>
    <path d="M3.95 5.9 L5.2 5.45 Q6.55 -0.55 6.5 -1.65 6.35 -2.85 3.55 -4.1 0.65 -5.4 -2.3 -5.6 -5.2 -5.9 -6.1 -5.2 -6.95 -4.5 -8.7 2.1 L-7.9 2.8 -7.95 2.85 -8.6 3.7 -8.35 5.55 -8.35 5.6 -8.25 5.9 M2.85 8.6 L4.2 6.65 3.95 5.9" ffdec:has-small-stroke="true" ffdec:original-stroke-width="0.95" fill="none" stroke="#0e0e0e" stroke-linecap="round" stroke-linejoin="round" stroke-width="1.0"/>
    <path d="M-7.45 6.3 Q-3.15 8.3 2.05 8.6 L2.85 8.6 M3.95 5.9 L1.9 6.05" fill="none" stroke="#0e0e0e" stroke-linecap="round" stroke-linejoin="round" stroke-width="1.0"/>
    <path d="M2.15 5.5 L1.8 4.05 -5.25 2.35 -6.3 3.55" fill="none" stroke="url(#gradient2)" stroke-linecap="round" stroke-linejoin="round" stroke-width="1.25"/>
    <path d="M-8.25 5.9 L-7.45 6.3 Q-8.0 8.5 -8.05 12.7 -7.8 18.0 0.35 15.5 2.05 11.15 2.05 8.6" fill="none" stroke="#000000" stroke-linecap="round" stroke-linejoin="round" stroke-width="1.0"/>
    <path d="M-7.95 2.85 L-6.4 4.05 1.8 6.0" fill="none" stroke="#0e0e0e" stroke-linecap="round" stroke-linejoin="round" stroke-width="1.0"/>
  </g>
  <defs>
    <radialGradient cx="0" cy="0" gradientTransform="matrix(0.0111, 0.0026, -0.0026, 0.0098, -1.05, 1.4)" gradientUnits="userSpaceOnUse" id="gradient0" r="819.2" spreadMethod="pad">
      <stop offset="0.0" stop-color="#333333"/>
      <stop offset="1.0" stop-color="#1c1c1c"/>
    </radialGradient>
    <linearGradient gradientTransform="matrix(0.0034, 8.0E-4, -8.0E-4, 0.003, -2.6, 6.35)" gradientUnits="userSpaceOnUse" id="gradient1" spreadMethod="pad" x1="-819.2" x2="819.2">
      <stop offset="0.0" stop-color="#595959"/>
      <stop offset="0.17254901960784313" stop-color="#737373"/>
      <stop offset="0.8196078431372549" stop-color="#737373"/>
      <stop offset="1.0" stop-color="#595959"/>
    </linearGradient>
    <linearGradient gradientTransform="matrix(0.0097, 0.0011, -0.0013, 0.0119, -1.4, 3.75)" gradientUnits="userSpaceOnUse" id="gradient2" spreadMethod="pad" x1="-819.2" x2="819.2">
      <stop offset="0.0" stop-color="#333333"/>
      <stop offset="1.0" stop-color="#000000"/>
    </linearGradient>
  </defs>
</svg>
