<?xml version="1.0" encoding="UTF-8" standalone="no"?>
<svg xmlns:xlink="http://www.w3.org/1999/xlink" height="24.95px" width="15.4px" xmlns="http://www.w3.org/2000/svg">
  <g transform="matrix(1.0, 0.0, 0.0, 1.0, 9.05, 8.3)">
    <path d="M-6.75 -6.25 Q-7.55 -6.75 -7.35 -7.8 -6.15 -7.35 -6.3 -6.0 L-6.75 -6.25" fill="#310206" fill-rule="evenodd" stroke="none"/>
    <path d="M-6.4 -2.45 L-6.8 -2.7 -7.7 -3.65 Q-7.95 -4.05 -7.7 -4.3 L-7.1 -4.8 -6.8 -5.0 Q-6.2 -5.2 -5.2 -4.35 -4.05 -3.5 -4.45 -2.8 -5.4 -2.05 -6.4 -2.45" fill="#3c0507" fill-rule="evenodd" stroke="none"/>
    <path d="M-6.3 -6.0 Q-3.95 -3.35 0.15 -1.05 L-0.25 -0.65 Q-0.5 0.0 -0.35 0.65 L-2.35 0.65 Q-3.05 0.75 -3.45 1.55 -3.9 3.0 -2.9 4.4 L-1.85 6.45 -1.55 7.0 Q-1.2 7.95 -1.6 8.95 -2.55 10.65 -2.75 14.1 -3.95 14.75 -6.55 13.25 L-8.2 10.85 Q-8.65 8.85 -8.55 7.0 L-8.35 5.3 -6.4 -2.45 Q-5.4 -2.05 -4.45 -2.8 -4.05 -3.5 -5.2 -4.35 -6.2 -5.2 -6.8 -5.0 L-6.75 -6.25 -6.3 -6.0 M-3.55 -0.8 Q-3.35 -0.8 -3.15 -1.0 -3.0 -1.15 -3.0 -1.35 L-3.15 -1.75 -3.55 -1.9 -3.9 -1.75 -4.05 -1.35 -3.9 -1.0 -3.55 -0.8 M-5.25 9.7 L-5.65 9.5 -6.1 9.7 -6.3 10.15 -6.1 10.55 -5.65 10.75 Q-5.4 10.75 -5.25 10.55 L-5.05 10.15 -5.25 9.7" fill="#777777" fill-rule="evenodd" stroke="none"/>
    <path d="M-3.55 -0.8 L-3.9 -1.0 -4.05 -1.35 -3.9 -1.75 -3.55 -1.9 -3.15 -1.75 -3.0 -1.35 Q-3.0 -1.15 -3.15 -1.0 -3.35 -0.8 -3.55 -0.8 M-5.25 9.7 L-5.05 10.15 -5.25 10.55 Q-5.4 10.75 -5.65 10.75 L-6.1 10.55 -6.3 10.15 -6.1 9.7 -5.65 9.5 -5.25 9.7" fill="#313634" fill-rule="evenodd" stroke="none"/>
    <path d="M-0.35 0.65 Q-0.05 2.0 2.1 3.45 L5.3 4.2 Q6.2 5.5 5.65 6.95 L5.65 7.0 2.0 15.05 1.2 16.0 -0.65 15.8 Q-1.95 15.25 -2.75 14.1 -2.55 10.65 -1.6 8.95 -1.2 7.95 -1.55 7.0 L-1.85 6.45 -2.9 4.4 Q-3.9 3.0 -3.45 1.55 -3.05 0.75 -2.35 0.65 L-0.35 0.65 M1.6 12.35 L2.95 9.7 Q3.95 8.15 3.8 7.0 3.55 5.65 1.65 4.9 -0.9 4.9 0.4 6.45 L0.8 7.0 Q1.5 8.35 0.35 9.85 L-0.2 11.3 Q-0.2 14.45 1.6 12.35" fill="#2e2e2d" fill-rule="evenodd" stroke="none"/>
    <path d="M1.6 12.35 Q-0.2 14.45 -0.2 11.3 L0.35 9.85 Q1.5 8.35 0.8 7.0 L0.4 6.45 Q-0.9 4.9 1.65 4.9 3.55 5.65 3.8 7.0 3.95 8.15 2.95 9.7 L1.6 12.35" fill="#6477b1" fill-rule="evenodd" stroke="none"/>
    <path d="M-6.75 -6.25 Q-7.55 -6.75 -7.35 -7.8 -6.15 -7.35 -6.3 -6.0 L-6.75 -6.25 -6.8 -5.0 -7.1 -4.8 -7.7 -4.3 Q-7.95 -4.05 -7.7 -3.65 L-6.8 -2.7 -6.4 -2.45 Q-5.4 -2.05 -4.45 -2.8 -4.05 -3.5 -5.2 -4.35 -6.2 -5.2 -6.8 -5.0" fill="none" stroke="#310206" stroke-linecap="round" stroke-linejoin="round" stroke-width="1.0"/>
    <path d="M-6.3 -6.0 Q-3.95 -3.35 0.15 -1.05 L-0.25 -0.65 Q-0.5 0.0 -0.35 0.65 M-2.75 14.1 Q-3.95 14.75 -6.55 13.25 L-8.2 10.85 Q-8.65 8.85 -8.55 7.0 L-8.35 5.3 -6.4 -2.45 M-3.55 -0.8 L-3.9 -1.0 -4.05 -1.35 -3.9 -1.75 -3.55 -1.9 -3.15 -1.75 -3.0 -1.35 Q-3.0 -1.15 -3.15 -1.0 -3.35 -0.8 -3.55 -0.8 M-5.25 9.7 L-5.05 10.15 -5.25 10.55 Q-5.4 10.75 -5.65 10.75 L-6.1 10.55 -6.3 10.15 -6.1 9.7 -5.65 9.5 -5.25 9.7" fill="none" stroke="#313634" stroke-linecap="round" stroke-linejoin="round" stroke-width="1.0"/>
    <path d="M-0.35 0.65 Q-0.05 2.0 2.1 3.45 L5.3 4.2 Q6.2 5.5 5.65 6.95 L5.65 7.0 2.0 15.05 1.2 16.0 -0.65 15.8 Q-1.95 15.25 -2.75 14.1 -2.55 10.65 -1.6 8.95 -1.2 7.95 -1.55 7.0 L-1.85 6.45 -2.9 4.4 Q-3.9 3.0 -3.45 1.55 -3.05 0.75 -2.35 0.65 L-0.35 0.65" fill="none" stroke="#151515" stroke-linecap="round" stroke-linejoin="round" stroke-width="1.0"/>
    <path d="M1.6 12.35 Q-0.2 14.45 -0.2 11.3 L0.35 9.85 Q1.5 8.35 0.8 7.0 L0.4 6.45 Q-0.9 4.9 1.65 4.9 3.55 5.65 3.8 7.0 3.95 8.15 2.95 9.7 L1.6 12.35" fill="none" stroke="#181e3a" stroke-linecap="round" stroke-linejoin="round" stroke-width="1.0"/>
  </g>
</svg>
