<?xml version="1.0" encoding="UTF-8" standalone="no"?>
<svg xmlns:ffdec="https://www.free-decompiler.com/flash" xmlns:xlink="http://www.w3.org/1999/xlink" ffdec:objectType="shape" height="24.7px" width="16.0px" xmlns="http://www.w3.org/2000/svg">
  <g transform="matrix(1.0, 0.0, 0.0, 1.0, 1.0, 0.5)">
    <path d="M14.4 8.3 L14.5 8.4 14.35 8.4 14.4 8.3" fill="#2c2c2c" fill-rule="evenodd" stroke="none"/>
    <path d="M12.95 7.15 L13.2 7.3 12.85 7.3 12.95 7.15" fill="url(#gradient0)" fill-rule="evenodd" stroke="none"/>
    <path d="M11.65 17.3 L11.65 19.1 11.4 19.5 11.55 19.25 11.55 17.35 11.65 17.3 M3.85 21.8 L3.75 21.7 3.55 20.25 3.85 21.8" fill="url(#gradient1)" fill-rule="evenodd" stroke="none"/>
    <path d="M11.4 19.5 L11.35 19.6 Q7.25 26.45 3.85 21.9 L3.85 21.8 3.55 20.25 3.0 17.25 3.95 18.0 5.15 18.0 5.15 15.8 9.45 15.75 9.45 18.1 10.55 18.1 11.55 17.35 11.55 19.25 11.4 19.5" fill="#191919" fill-rule="evenodd" stroke="none"/>
    <path d="M5.1 12.1 L5.05 7.55 6.1 5.55 8.2 5.55 9.25 7.35 9.3 12.05 5.1 12.1" fill="url(#gradient2)" fill-rule="evenodd" stroke="none"/>
    <path d="M1.35 7.25 L1.3 2.05 5.2 0.0 5.2 1.85 8.9 1.8 8.9 0.0 12.7 1.95 12.75 7.3 9.3 12.05 9.25 7.35 8.2 5.55 6.1 5.55 5.05 7.55 5.1 12.1 1.35 7.25" fill="url(#gradient3)" fill-rule="evenodd" stroke="none"/>
    <path d="M13.2 7.3 L14.5 7.3 14.4 8.3 14.35 8.4 13.35 15.95 11.65 17.3 11.55 17.35 10.55 18.1 9.45 18.1 9.45 15.75 5.15 15.8 5.15 18.0 3.95 18.0 3.0 17.25 1.6 16.2 -0.5 7.25 1.35 7.25 5.1 12.1 9.3 12.05 12.75 7.3 12.85 7.3 13.2 7.3" fill="url(#gradient4)" fill-rule="evenodd" stroke="none"/>
    <path d="M12.95 7.15 L13.2 7.3 M11.65 17.3 L11.65 19.1 11.4 19.5 11.35 19.6 M3.85 21.8 L3.75 21.7 3.55 20.25" fill="none" stroke="#121212" stroke-linecap="round" stroke-linejoin="round" stroke-width="1.0"/>
    <path d="M13.2 7.3 L14.5 7.3 14.4 8.3 14.35 8.4 13.35 15.95 11.65 17.3 11.55 17.35 10.55 18.1 9.45 18.1 9.45 15.75 5.15 15.8 5.15 18.0 3.95 18.0 3.0 17.25 1.6 16.2 -0.5 7.25 1.35 7.25 1.3 2.05 5.2 0.0 5.2 1.85 8.9 1.8 8.9 0.0 12.7 1.95 12.75 7.3 12.85 7.3 13.2 7.3 M11.35 19.6 Q7.25 26.45 3.85 21.9 L3.85 21.8 3.55 20.25 3.0 17.25 M9.3 12.05 L12.75 7.3 M5.1 12.1 L1.35 7.25 M11.55 17.35 L11.55 19.25 11.4 19.5" fill="none" stroke="#070a0a" stroke-linecap="round" stroke-linejoin="round" stroke-width="1.0"/>
    <path d="M5.1 12.1 L5.05 7.55 6.1 5.55 8.2 5.55 9.25 7.35 9.3 12.05 5.1 12.1 Z" fill="none" stroke="#1a1024" stroke-linecap="round" stroke-linejoin="round" stroke-width="1.0"/>
  </g>
  <defs>
    <linearGradient gradientTransform="matrix(0.0078, 0.0, 0.0, 0.0067, 7.35, 12.45)" gradientUnits="userSpaceOnUse" id="gradient0" spreadMethod="pad" x1="-819.2" x2="819.2">
      <stop offset="0.0" stop-color="#161616"/>
      <stop offset="1.0" stop-color="#292929"/>
    </linearGradient>
    <radialGradient cx="0" cy="0" gradientTransform="matrix(0.007, 0.0, 0.0, 0.007, 7.5, 16.35)" gradientUnits="userSpaceOnUse" id="gradient1" r="819.2" spreadMethod="pad">
      <stop offset="0.0" stop-color="#161616"/>
      <stop offset="1.0" stop-color="#292929"/>
    </radialGradient>
    <radialGradient cx="0" cy="0" gradientTransform="matrix(0.0012, 0.0069, -0.0052, 9.0E-4, 7.05, 10.75)" gradientUnits="userSpaceOnUse" id="gradient2" r="819.2" spreadMethod="pad">
      <stop offset="0.0" stop-color="#211a2e"/>
      <stop offset="1.0" stop-color="#3b2b58"/>
    </radialGradient>
    <radialGradient cx="0" cy="0" gradientTransform="matrix(0.0096, -1.0E-4, 1.0E-4, 0.0097, 7.4, 6.7)" gradientUnits="userSpaceOnUse" id="gradient3" r="819.2" spreadMethod="pad">
      <stop offset="0.0" stop-color="#191919"/>
      <stop offset="0.6588235294117647" stop-color="#1c1c1c"/>
      <stop offset="1.0" stop-color="#5f5f5f"/>
    </radialGradient>
    <radialGradient cx="0" cy="0" gradientTransform="matrix(0.0101, -1.0E-4, 1.0E-4, 0.0113, 7.25, 11.95)" gradientUnits="userSpaceOnUse" id="gradient4" r="819.2" spreadMethod="pad">
      <stop offset="0.0" stop-color="#191919"/>
      <stop offset="0.6588235294117647" stop-color="#1c1c1c"/>
      <stop offset="1.0" stop-color="#5f5f5f"/>
    </radialGradient>
  </defs>
</svg>
