<?xml version="1.0" encoding="UTF-8" standalone="no"?>
<svg xmlns:ffdec="https://www.free-decompiler.com/flash" xmlns:xlink="http://www.w3.org/1999/xlink" ffdec:objectType="shape" height="12.85px" width="15.6px" xmlns="http://www.w3.org/2000/svg">
  <g transform="matrix(1.0, 0.0, 0.0, 1.0, -4.95, -7.55)">
    <path d="M5.45 10.9 L8.0 11.2 Q12.4 11.15 13.85 10.25 14.9 9.55 15.8 8.05 18.45 10.6 19.4 13.1 20.35 15.55 19.95 16.8 18.55 19.25 16.45 19.9 L14.2 18.85 15.65 18.65 17.4 16.05 Q18.15 14.9 15.3 11.3 12.6 12.8 9.3 12.7 L6.0 12.45 5.45 10.9" fill="#410e0e" fill-rule="evenodd" stroke="none"/>
    <path d="M5.45 10.9 L6.0 12.45 M14.2 18.85 L16.45 19.9 Q18.55 19.25 19.95 16.8 20.35 15.55 19.4 13.1 18.45 10.6 15.8 8.05" fill="none" stroke="#250606" stroke-linecap="round" stroke-linejoin="round" stroke-width="1.0"/>
  </g>
</svg>
