<?xml version="1.0" encoding="UTF-8" standalone="no"?>
<svg xmlns:ffdec="https://www.free-decompiler.com/flash" xmlns:xlink="http://www.w3.org/1999/xlink" ffdec:objectType="shape" height="9.25px" width="18.7px" xmlns="http://www.w3.org/2000/svg">
  <g transform="matrix(1.0, 0.0, 0.0, 1.0, 8.3, 2.55)">
    <path d="M-1.25 4.45 L-2.7 6.2 -6.85 6.2 -7.8 2.95 -5.15 -0.8 -2.7 -1.75 -1.4 3.65 -1.35 3.85 -1.35 4.0 -1.25 4.4 -1.25 4.45 -1.35 4.0 -1.25 4.45" fill="#4b5975" fill-rule="evenodd" stroke="none"/>
    <path d="M-2.7 -1.75 L3.65 -2.05 6.1 0.6 8.1 1.2 9.25 2.45 9.9 4.8 7.75 6.2 1.6 6.2 -0.3 4.0 -1.25 4.4 -1.35 4.0 -1.35 3.85 -1.4 3.65 -2.7 -1.75 M4.5 4.95 L2.9 4.95 1.8 3.6 2.9 4.95 4.5 4.95" fill="#738aa1" fill-rule="evenodd" stroke="none"/>
    <path d="M-1.25 4.45 L-2.7 6.2 -6.85 6.2 -7.8 2.95 -5.15 -0.8 -2.7 -1.75 -1.4 3.65 -1.35 3.85 -1.35 4.0 -1.25 4.45" fill="none" stroke="#2e2d3f" stroke-linecap="round" stroke-linejoin="round" stroke-width="1.0"/>
    <path d="M-2.7 -1.75 L3.65 -2.05 6.1 0.6 8.1 1.2 9.25 2.45 9.9 4.8 7.75 6.2 1.6 6.2 -0.3 4.0 -1.25 4.4" fill="none" stroke="#424651" stroke-linecap="round" stroke-linejoin="round" stroke-width="1.0"/>
    <path d="M1.8 3.6 L2.9 4.95 4.5 4.95" fill="none" stroke="#576879" stroke-linecap="round" stroke-linejoin="round" stroke-width="1.0"/>
  </g>
</svg>
