<?xml version="1.0" encoding="UTF-8" standalone="no"?>
<svg xmlns:ffdec="https://www.free-decompiler.com/flash" xmlns:xlink="http://www.w3.org/1999/xlink" ffdec:objectType="shape" height="22.8px" width="16.0px" xmlns="http://www.w3.org/2000/svg">
  <g transform="matrix(1.0, 0.0, 0.0, 1.0, 8.95, 5.45)">
    <path d="M-5.3 11.05 L-2.0 11.95 -0.8 9.85 -4.55 8.8 -5.3 11.05 M-7.25 9.8 Q-8.2 9.15 -5.9 5.45 L1.4 8.3 Q1.5 10.65 0.95 12.2 0.45 13.85 -0.45 14.35 -2.4 13.3 -3.9 13.0 L-7.15 12.75 Q-6.25 10.5 -7.25 9.8" fill="#1d1616" fill-rule="evenodd" stroke="none"/>
    <path d="M-2.0 11.95 L-5.3 11.05 -4.55 8.8 -0.8 9.85 -2.0 11.95" fill="#ff0000" fill-rule="evenodd" stroke="none"/>
    <path d="M-3.9 13.0 Q-2.4 13.3 -0.45 14.35 L-1.4 15.8 Q-2.7 16.85 -3.7 16.9 -4.65 16.9 -5.8 15.9 -6.55 15.3 -7.15 12.75 L-3.9 13.0" fill="#1d1616" fill-rule="evenodd" stroke="none"/>
    <path d="M3.25 9.0 L-8.5 4.55 Q-8.2 0.3 -5.45 -2.4 -2.85 -5.05 0.1 -5.0 2.95 -5.0 5.15 -2.55 7.35 -0.15 6.2 3.7 5.1 7.55 3.25 9.0" fill="url(#gradient0)" fill-rule="evenodd" stroke="none"/>
    <path d="M-7.15 12.75 Q-6.25 10.5 -7.25 9.8 -8.2 9.15 -5.9 5.45 L-8.5 4.55 Q-8.2 0.3 -5.45 -2.4 -2.85 -5.05 0.1 -5.0 2.95 -5.0 5.15 -2.55 7.35 -0.15 6.2 3.7 5.1 7.55 3.25 9.0 L1.4 8.3 Q1.5 10.65 0.95 12.2 0.45 13.85 -0.45 14.35 L-1.4 15.8 Q-2.7 16.85 -3.7 16.9 -4.65 16.9 -5.8 15.9 -6.55 15.3 -7.15 12.75 L-3.9 13.0 Q-2.4 13.3 -0.45 14.35 M-5.3 11.05 L-2.0 11.95 -0.8 9.85 -4.55 8.8 -5.3 11.05 M-5.9 5.45 L1.4 8.3" fill="none" stroke="#0a0707" stroke-linecap="round" stroke-linejoin="round" stroke-width="0.9500000000000001"/>
  </g>
  <defs>
    <radialGradient cx="0" cy="0" gradientTransform="matrix(0.0104, -7.0E-4, 7.0E-4, 0.0104, -1.0, 2.15)" gradientUnits="userSpaceOnUse" id="gradient0" r="819.2" spreadMethod="pad">
      <stop offset="0.0" stop-color="#624242"/>
      <stop offset="0.27450980392156865" stop-color="#533535"/>
      <stop offset="0.5529411764705883" stop-color="#3f2929"/>
    </radialGradient>
  </defs>
</svg>
