<?xml version="1.0" encoding="UTF-8" standalone="no"?>
<svg xmlns:xlink="http://www.w3.org/1999/xlink" height="20.95px" width="15.9px" xmlns="http://www.w3.org/2000/svg">
  <g transform="matrix(1.0, 0.0, 0.0, 1.0, 8.8, 6.1)">
    <path d="M2.7 -4.3 L2.3 -3.8 Q1.65 -4.15 0.7 -4.3 -1.2 -4.55 -2.2 -3.45 L-3.7 -4.05 Q-2.7 -4.95 -0.8 -5.1 1.3 -5.25 2.7 -4.3 M2.65 2.25 L5.15 2.85 5.2 5.3 3.1 5.0 1.3 5.3 1.8 7.65 3.55 9.5 5.05 9.45 4.85 11.5 Q4.1 14.7 1.25 14.3 -1.6 13.9 -2.65 11.5 -2.8 10.2 -3.1 9.0 L-1.65 9.85 0.35 7.95 0.0 3.9 2.65 3.9 2.65 2.25" fill="#060b09" fill-rule="evenodd" stroke="none"/>
    <path d="M2.3 -3.8 L1.8 -1.85 -0.95 -2.15 -2.1 -1.5 -2.2 -3.45 Q-1.2 -4.55 0.7 -4.3 1.65 -4.15 2.3 -3.8 M-2.1 0.4 L-1.05 -0.05 1.6 0.55 2.65 2.25 2.65 3.9 0.0 3.9 0.35 7.95 -1.65 9.85 -3.1 9.0 -3.3 8.9 -2.05 6.7 -2.6 4.7 -1.9 2.75 -2.1 0.4" fill="#111111" fill-rule="evenodd" stroke="none"/>
    <path d="M2.3 -3.8 L2.7 -4.3 3.65 -5.6 6.6 -2.3 6.6 2.95 5.15 2.85 2.65 2.25 1.6 0.55 -1.05 -0.05 -2.1 0.4 -3.15 0.85 -3.25 -0.9 -2.1 -1.5 -3.25 -0.9 -3.15 0.85 -2.1 0.4 -1.9 2.75 -2.6 4.7 -2.05 6.7 -3.3 8.9 -4.95 7.95 -4.8 6.55 -4.95 5.7 -5.0 5.7 -5.1 3.45 -6.3 1.5 -8.0 1.1 -8.3 -0.5 -6.15 -0.15 -6.05 -1.45 -7.4 -2.3 -6.2 -5.15 -3.7 -4.05 -2.2 -3.45 -2.1 -1.5 -0.95 -2.15 1.8 -1.85 2.3 -3.8 M5.05 9.45 L3.55 9.5 1.8 7.65 1.3 5.3 3.1 5.0 5.2 5.3 6.6 5.5 6.6 9.55 5.05 9.45" fill="#222222" fill-rule="evenodd" stroke="none"/>
    <path d="M-8.0 1.1 L-6.3 1.5 -5.1 3.45 -5.0 5.7 -6.7 5.2 -7.7 2.75 -8.0 1.1" fill="#ff0000" fill-opacity="0.4" fill-rule="evenodd" stroke="none"/>
    <path d="M2.7 -4.3 L2.3 -3.8 1.8 -1.85 -0.95 -2.15 -2.1 -1.5 -3.25 -0.9 -3.15 0.85 -2.1 0.4 -1.05 -0.05 1.6 0.55 2.65 2.25 5.15 2.85 6.6 2.95 6.6 -2.3 3.65 -5.6 2.7 -4.3 M-3.7 -4.05 L-2.2 -3.45 Q-1.2 -4.55 0.7 -4.3 1.65 -4.15 2.3 -3.8 M-3.7 -4.05 L-6.2 -5.15 -7.4 -2.3 -6.05 -1.45 -6.15 -0.15 -8.3 -0.5 -8.0 1.1 -6.3 1.5 -5.1 3.45 -5.0 5.7 -4.95 5.7 -4.8 6.55 -4.95 7.95 -3.3 8.9 -2.05 6.7 -2.6 4.7 -1.9 2.75 -2.1 0.4 M-2.1 -1.5 L-2.2 -3.45 M-3.3 8.9 L-3.1 9.0 -1.65 9.85 0.35 7.95 0.0 3.9 2.65 3.9 2.65 2.25 M5.05 9.45 L3.55 9.5 1.8 7.65 1.3 5.3 3.1 5.0 5.2 5.3 6.6 5.5 6.6 9.55 5.05 9.45" fill="none" stroke="#0b0e0f" stroke-linecap="round" stroke-linejoin="round" stroke-width="1.0"/>
    <path d="M2.7 -4.3 Q1.3 -5.25 -0.8 -5.1 -2.7 -4.95 -3.7 -4.05 M-3.1 9.0 Q-2.8 10.2 -2.65 11.5 -1.6 13.9 1.25 14.3 4.1 14.7 4.85 11.5 L5.05 9.45 M5.2 5.3 L5.15 2.85" fill="none" stroke="#000000" stroke-linecap="round" stroke-linejoin="round" stroke-width="1.0"/>
    <path d="M-8.0 1.1 L-7.7 2.75 -6.7 5.2 -5.0 5.7" fill="none" stroke="#0f0b0b" stroke-linecap="round" stroke-linejoin="round" stroke-opacity="0.5019608" stroke-width="1.0"/>
  </g>
</svg>
