<?xml version="1.0" encoding="UTF-8" standalone="no"?>
<svg xmlns:ffdec="https://www.free-decompiler.com/flash" xmlns:xlink="http://www.w3.org/1999/xlink" ffdec:objectType="shape" height="21.4px" width="14.1px" xmlns="http://www.w3.org/2000/svg">
  <g transform="matrix(1.0, 0.0, 0.0, 1.0, 8.55, 5.3)">
    <path d="M-4.7 1.3 L-3.95 4.05 -4.8 7.15 -5.9 7.75 -6.7 7.35 -7.05 6.8 -7.75 5.5 Q-7.95 1.9 -6.25 -0.8 L-5.65 -0.45 -4.7 1.3" fill="url(#gradient0)" fill-rule="evenodd" stroke="none"/>
    <path d="M-4.35 -3.3 L-3.6 -3.5 -4.1 -3.6 -3.2 -4.55 Q2.05 -5.8 5.05 -0.85 L4.95 0.75 Q4.2 3.1 3.3 4.0 L1.7 4.3 3.3 4.0 Q2.5 4.95 1.7 4.3 L1.45 4.45 1.35 4.3 1.3 4.5 -0.95 5.5 -3.95 4.05 -4.7 1.3 Q-5.35 -0.35 -5.35 -1.45 L-4.35 -3.3 M0.55 0.0 L0.75 -1.9 -0.55 -0.5 -2.55 -0.75 -1.0 0.45 -1.2 2.35 0.05 0.95 2.0 1.3 0.55 0.0" fill="url(#gradient1)" fill-rule="evenodd" stroke="none"/>
    <path d="M0.55 0.0 L2.0 1.3 0.05 0.95 -1.2 2.35 -1.0 0.45 -2.55 -0.75 -0.55 -0.5 0.75 -1.9 0.55 0.0" fill="#333333" fill-rule="evenodd" stroke="none"/>
    <path d="M-3.95 4.05 L-0.95 5.5 -3.15 7.95 -3.25 7.85 -4.8 7.15 -3.95 4.05" fill="#666666" fill-rule="evenodd" stroke="none"/>
    <path d="M-7.05 6.8 L-6.7 7.35 -5.9 7.75 -4.8 7.15 -3.25 7.85 -3.15 7.95 -2.95 9.3 -2.1 9.75 -0.85 9.4 -2.95 15.3 Q-8.45 16.8 -8.0 10.95 L-7.05 6.8" fill="#191919" fill-rule="evenodd" stroke="none"/>
    <path d="M-0.95 5.5 L1.3 4.5 1.45 4.45 1.7 4.3 Q2.5 4.95 3.3 4.0 L3.6 3.95 4.2 4.2 Q3.1 7.35 0.4 9.0 L-0.85 9.4 -2.1 9.75 -2.95 9.3 -3.15 7.95 -0.95 5.5" fill="url(#gradient2)" fill-rule="evenodd" stroke="none"/>
    <path d="M1.3 4.5 L1.35 4.3 1.45 4.45 1.3 4.5" fill="url(#gradient3)" fill-rule="evenodd" stroke="none"/>
    <path d="M-4.7 1.3 L-3.95 4.05 -4.8 7.15 -3.25 7.85 -3.15 7.95 -0.95 5.5 1.3 4.5 1.45 4.45 1.7 4.3 3.3 4.0 3.6 3.95 4.2 4.2 Q3.1 7.35 0.4 9.0 L-0.85 9.4 -2.95 15.3 Q-8.45 16.8 -8.0 10.95 L-7.05 6.8 -6.7 7.35 -5.9 7.75 -4.8 7.15 M-4.7 1.3 L-5.65 -0.45 -6.25 -0.8 Q-7.95 1.9 -7.75 5.5 L-7.05 6.8 M-3.15 7.95 L-2.95 9.3 -2.1 9.75 -0.85 9.4" fill="none" stroke="#0f0f0f" stroke-linecap="round" stroke-linejoin="round" stroke-width="1.0"/>
    <path d="M-4.1 -3.6 L-4.35 -3.3 -5.35 -1.45 -5.65 -0.45 M4.95 0.75 L5.05 -0.85 Q2.05 -5.8 -3.2 -4.55 L-4.1 -3.6 M4.95 0.75 Q4.7 2.35 3.6 3.95" fill="none" stroke="#474747" stroke-linecap="round" stroke-linejoin="round" stroke-width="1.0"/>
  </g>
  <defs>
    <radialGradient cx="0" cy="0" gradientTransform="matrix(0.0063, 0.0, 0.0, 0.0063, -4.5, 4.05)" gradientUnits="userSpaceOnUse" id="gradient0" r="819.2" spreadMethod="pad">
      <stop offset="0.0" stop-color="#333333"/>
      <stop offset="1.0" stop-color="#000000"/>
    </radialGradient>
    <radialGradient cx="0" cy="0" gradientTransform="matrix(0.0061, 0.0026, -0.0024, 0.0058, 0.5, -0.15)" gradientUnits="userSpaceOnUse" id="gradient1" r="819.2" spreadMethod="pad">
      <stop offset="0.0" stop-color="#cccccc"/>
      <stop offset="1.0" stop-color="#666666"/>
    </radialGradient>
    <radialGradient cx="0" cy="0" gradientTransform="matrix(0.0062, 0.0, 0.0, 0.0062, -0.55, 5.9)" gradientUnits="userSpaceOnUse" id="gradient2" r="819.2" spreadMethod="pad">
      <stop offset="0.0" stop-color="#333333"/>
      <stop offset="1.0" stop-color="#000000"/>
    </radialGradient>
    <radialGradient cx="0" cy="0" gradientTransform="matrix(0.0053, 0.0013, -0.0011, 0.0047, -0.5, 4.55)" gradientUnits="userSpaceOnUse" id="gradient3" r="819.2" spreadMethod="pad">
      <stop offset="0.0" stop-color="#4d4946"/>
      <stop offset="1.0" stop-color="#3c3b38"/>
      <stop offset="1.0" stop-color="#333333"/>
    </radialGradient>
  </defs>
</svg>
