<?xml version="1.0" encoding="UTF-8" standalone="no"?>
<svg xmlns:ffdec="https://www.free-decompiler.com/flash" xmlns:xlink="http://www.w3.org/1999/xlink" ffdec:objectType="shape" height="19.9px" width="10.25px" xmlns="http://www.w3.org/2000/svg">
  <g transform="matrix(1.0, 0.0, 0.0, 1.0, -0.9, 0.15)">
    <path d="M3.35 8.8 L3.45 4.15 Q3.3 3.2 3.65 2.5 4.35 0.95 6.1 0.6 L9.05 0.75 Q10.65 1.55 10.3 3.55 L10.35 4.1 6.9 11.7 5.05 12.8 4.9 12.85 2.65 14.2 Q2.45 12.95 3.05 11.8 L2.65 11.55 1.65 10.95 Q1.25 10.1 1.45 9.8 L1.75 9.25 2.2 8.95 2.55 8.8 3.35 8.8 4.15 8.8 4.55 8.85 6.0 9.75 4.55 8.85 4.15 8.8 3.35 8.8 M3.85 17.65 L8.2 15.15 10.55 10.75 10.55 10.85 Q10.75 12.05 10.45 12.7 10.5 13.25 10.0 14.05 9.35 14.9 9.3 15.25 L9.1 16.5 Q8.9 17.45 7.55 18.35 L5.95 19.2 Q4.7 19.4 4.15 18.4 L3.85 17.65 M8.6 4.4 L8.25 3.95 7.15 3.25 Q6.5 2.85 6.05 2.8 6.5 2.85 7.15 3.25 L8.25 3.95 8.6 4.4 M8.95 3.55 L7.8 2.2 8.95 3.55 M4.9 12.85 L3.05 11.8 4.9 12.85" fill="#5f1313" fill-rule="evenodd" stroke="none"/>
    <path d="M10.35 4.1 L10.3 7.2 Q10.3 9.4 10.55 10.75 L8.2 15.15 3.85 17.65 3.75 17.3 3.5 16.05 2.65 14.35 2.65 14.2 4.9 12.85 5.05 12.8 6.9 11.7 10.35 4.1" fill="#b6b1b1" fill-rule="evenodd" stroke="none"/>
    <path d="M10.35 4.1 L10.3 3.55 Q10.65 1.55 9.05 0.75 L6.1 0.6 Q4.35 0.95 3.65 2.5 3.3 3.2 3.45 4.15 L3.35 8.8 4.15 8.8 4.55 8.85 6.0 9.75 M10.55 10.75 Q10.3 9.4 10.3 7.2 L10.35 4.1 M5.05 12.8 L4.9 12.85 3.05 11.8 Q2.45 12.95 2.65 14.2 L2.65 14.35 3.5 16.05 3.75 17.3 3.85 17.65 4.15 18.4 Q4.7 19.4 5.95 19.2 L7.55 18.35 Q8.9 17.45 9.1 16.5 L9.3 15.25 Q9.35 14.9 10.0 14.05 10.5 13.25 10.45 12.7 10.75 12.05 10.55 10.85 L10.55 10.75 M3.35 8.8 L2.55 8.8 2.2 8.95 1.75 9.25 1.45 9.8 Q1.25 10.1 1.65 10.95 L2.65 11.55 3.05 11.8" fill="none" stroke="#190101" stroke-linecap="round" stroke-linejoin="round" stroke-width="1.0"/>
    <path d="M7.8 2.2 L8.95 3.55 M6.05 2.8 Q6.5 2.85 7.15 3.25 L8.25 3.95 8.6 4.4" fill="none" stroke="#190101" stroke-linecap="round" stroke-linejoin="round" stroke-width="0.8"/>
    <path d="M10.4 4.85 L10.35 4.9 8.7 4.8 10.4 4.85 M6.7 6.5 L6.7 6.45 6.7 6.25 6.75 6.2 6.75 6.25 6.75 6.3 6.7 6.5 M6.95 4.9 L6.9 5.05 6.95 5.1 7.0 5.1 6.95 5.15 6.9 5.2 6.8 5.2 6.8 5.25 6.75 5.2 6.85 5.15 6.8 4.95 6.75 4.85 6.8 4.8 6.95 4.85 6.95 4.9 M6.05 7.5 L6.0 7.45 6.05 7.4 6.15 7.6 6.05 7.5" fill="#380202" fill-rule="evenodd" stroke="none"/>
    <path d="M10.35 4.9 Q10.55 6.75 10.05 8.75 L6.75 8.45 3.3 8.2 Q2.85 6.15 3.35 4.25 L8.7 4.8 10.35 4.9 M6.7 6.5 L6.7 6.7 6.85 6.85 6.9 6.85 6.9 6.95 6.9 7.0 7.0 7.05 7.0 7.15 7.0 7.25 7.0 7.4 7.0 7.5 6.95 7.6 6.95 7.8 6.8 8.2 6.75 8.45 6.9 8.35 6.9 8.2 7.0 8.15 7.05 8.0 7.0 7.95 7.15 7.75 7.15 7.65 7.05 7.8 7.05 7.55 7.15 7.45 7.15 7.4 7.15 7.3 7.15 7.25 7.25 7.0 7.3 7.1 7.2 7.3 7.2 7.4 7.25 7.45 7.25 7.4 7.35 7.25 7.35 7.2 7.4 7.1 7.5 7.15 7.45 7.0 7.5 6.9 7.5 6.8 7.65 6.75 7.65 6.7 7.7 6.6 7.65 6.65 7.7 6.5 7.55 6.4 7.55 6.5 7.5 6.6 7.45 6.55 7.45 6.65 7.45 6.8 7.4 6.8 7.3 6.9 7.25 6.65 7.25 6.5 7.25 6.35 7.25 6.3 7.2 6.15 7.25 6.1 7.3 6.05 7.4 5.95 7.5 5.9 7.45 5.8 7.55 5.65 7.55 5.7 7.6 5.75 7.6 5.7 7.7 5.7 7.75 5.7 7.85 5.65 7.9 5.65 7.95 5.55 7.95 5.5 7.85 5.45 7.9 5.4 7.75 5.35 7.65 5.1 7.6 4.95 7.45 4.9 7.4 4.85 7.25 4.75 7.05 4.8 7.0 4.75 6.95 4.7 6.85 4.65 6.75 4.7 6.75 4.75 6.65 4.7 6.6 4.65 6.55 4.7 6.25 4.8 6.1 4.8 6.05 4.85 5.95 5.0 5.85 5.0 5.7 5.2 5.6 5.3 5.6 5.4 5.55 5.4 5.65 5.5 5.75 5.55 5.95 5.6 6.05 5.6 6.0 5.65 6.1 5.75 6.15 5.7 6.2 5.85 6.15 6.05 6.2 6.15 6.15 6.2 6.15 6.25 6.15 6.4 6.05 6.65 6.05 6.75 6.0 6.8 5.9 6.75 5.8 6.75 5.75 6.75 5.7 6.8 5.75 6.9 5.8 6.95 5.8 7.05 5.9 7.1 6.0 7.15 6.0 6.9 6.1 6.95 6.1 7.1 6.05 7.35 5.95 7.25 6.0 7.35 5.95 7.45 5.95 7.6 6.05 7.65 6.15 7.9 6.1 8.0 6.1 8.05 6.15 8.1 6.35 8.35 6.3 7.5 6.25 7.3 6.35 7.3 6.35 7.2 6.4 7.05 6.45 6.9 6.6 6.75 6.65 6.7 6.7 6.5 M6.75 6.2 L6.75 6.1 6.8 5.95 6.8 5.85 6.7 5.8 6.75 5.4 6.8 5.7 6.85 5.9 6.85 6.0 6.85 6.15 6.75 6.2" fill="#d9d9d9" fill-rule="evenodd" stroke="none"/>
    <path d="M6.7 6.5 L6.65 6.7 6.6 6.75 6.45 6.9 6.4 7.05 6.35 7.2 6.35 7.3 6.25 7.3 6.3 7.5 6.35 8.35 6.15 8.1 6.1 8.05 6.1 8.0 6.15 7.9 6.05 7.65 5.95 7.6 5.95 7.45 6.0 7.35 5.95 7.25 6.05 7.35 6.1 7.1 6.1 6.95 6.0 6.9 6.0 7.15 5.9 7.1 5.8 7.05 5.8 6.95 5.75 6.9 5.7 6.8 5.75 6.75 5.8 6.75 5.9 6.75 6.0 6.8 6.05 6.75 6.05 6.65 6.15 6.4 6.15 6.25 6.15 6.2 6.2 6.15 6.15 6.05 6.2 5.85 6.15 5.7 6.1 5.75 6.0 5.65 6.05 5.6 5.95 5.6 5.75 5.55 5.65 5.5 5.55 5.4 5.6 5.4 5.6 5.3 5.7 5.2 5.85 5.0 5.95 5.0 6.05 4.85 6.1 4.8 6.25 4.8 6.55 4.7 6.6 4.65 6.65 4.7 6.75 4.75 6.75 4.7 6.85 4.65 6.95 4.7 7.0 4.75 7.05 4.8 7.25 4.75 7.4 4.85 7.45 4.9 7.6 4.95 7.65 5.1 7.75 5.35 7.9 5.4 7.85 5.45 7.95 5.5 7.95 5.55 7.9 5.65 7.85 5.65 7.75 5.7 7.7 5.7 7.6 5.7 7.6 5.75 7.55 5.7 7.55 5.65 7.45 5.8 7.5 5.9 7.4 5.95 7.3 6.05 7.25 6.1 7.2 6.15 7.25 6.3 7.25 6.35 7.25 6.5 7.25 6.65 7.3 6.9 7.4 6.8 7.45 6.8 7.45 6.65 7.45 6.55 7.5 6.6 7.55 6.5 7.55 6.4 7.7 6.5 7.65 6.65 7.7 6.6 7.65 6.7 7.65 6.75 7.5 6.8 7.5 6.9 7.45 7.0 7.5 7.15 7.4 7.1 7.35 7.2 7.35 7.25 7.25 7.4 7.25 7.45 7.2 7.4 7.2 7.3 7.3 7.1 7.25 7.0 7.15 7.25 7.15 7.3 7.15 7.4 7.15 7.45 7.05 7.55 7.05 7.8 7.15 7.65 7.15 7.75 7.0 7.95 7.05 8.0 7.0 8.15 6.9 8.2 6.9 8.35 6.75 8.45 6.8 8.2 6.95 7.8 6.95 7.6 7.0 7.5 7.0 7.4 7.0 7.25 7.0 7.15 7.0 7.05 6.9 7.0 6.9 6.95 6.9 6.85 6.85 6.85 6.7 6.7 6.7 6.5 6.75 6.3 6.75 6.25 6.75 6.2 6.7 6.25 6.7 6.45 6.7 6.5 M6.75 6.2 L6.85 6.15 6.85 6.0 6.85 5.9 6.8 5.7 6.75 5.4 6.7 5.8 6.8 5.85 6.8 5.95 6.75 6.1 6.75 6.2 M6.05 7.5 L6.15 7.6 6.05 7.4 6.0 7.45 6.05 7.5 M6.95 4.9 L6.95 4.85 6.8 4.8 6.75 4.85 6.8 4.95 6.85 5.15 6.75 5.2 6.8 5.25 6.8 5.2 6.9 5.2 6.95 5.15 7.0 5.1 6.95 5.1 6.9 5.05 6.95 4.9" fill="#6d0b0b" fill-rule="evenodd" stroke="none"/>
    <path d="M10.4 4.85 L10.35 4.9 Q10.55 6.75 10.05 8.75 L6.75 8.45 3.3 8.2 Q2.85 6.15 3.35 4.25 L8.7 4.8 10.35 4.9" fill="none" stroke="#1c0000" stroke-linecap="round" stroke-linejoin="round" stroke-width="1.0"/>
  </g>
</svg>
