<?xml version="1.0" encoding="UTF-8" standalone="no"?>
<svg xmlns:ffdec="https://www.free-decompiler.com/flash" xmlns:xlink="http://www.w3.org/1999/xlink" ffdec:objectType="shape" height="19.3px" width="13.05px" xmlns="http://www.w3.org/2000/svg">
  <g transform="matrix(1.0, 0.0, 0.0, 1.0, 0.05, 0.25)">
    <path d="M1.1 2.75 L0.85 4.0 0.85 3.9 1.1 2.75" fill="#282828" fill-rule="evenodd" stroke="none"/>
    <path d="M0.85 4.0 L0.8 4.25 0.85 4.0" fill="#272727" fill-rule="evenodd" stroke="none"/>
    <path d="M12.4 5.45 L12.4 5.5 12.5 6.3 12.5 7.9 Q6.0 5.85 0.55 7.6 L0.8 4.25 0.85 4.0 1.1 2.75 1.2 2.35 Q1.3 1.55 1.9 0.95 L1.95 0.95 3.85 2.75 8.85 2.75 12.4 5.45 8.85 2.75 3.85 2.75 1.95 0.95 Q3.45 0.25 5.05 0.25 L8.6 0.35 Q10.55 0.5 11.3 1.05 12.05 1.65 12.15 2.4 L12.15 2.75 12.2 3.05 12.4 5.45" fill="url(#gradient0)" fill-rule="evenodd" stroke="none"/>
    <path d="M0.55 7.6 Q6.0 5.85 12.5 7.9 L12.5 9.1 11.6 10.65 10.9 10.5 10.85 10.5 Q9.85 10.0 8.85 9.75 L7.95 9.5 5.0 9.3 3.5 9.5 2.75 9.65 2.15 9.85 2.05 9.85 1.05 9.95 0.45 8.7 0.55 7.6" fill="url(#gradient1)" fill-rule="evenodd" stroke="none"/>
    <path d="M8.85 9.75 L8.95 18.55 4.7 18.4 2.55 15.6 2.15 9.85 2.75 9.65 3.5 9.5 5.0 9.3 7.95 9.5 8.85 9.75" fill="url(#gradient2)" fill-rule="evenodd" stroke="none"/>
    <path d="M8.85 9.75 Q9.85 10.0 10.85 10.5 L10.9 10.5 10.9 17.05 8.95 18.55 8.85 9.75" fill="url(#gradient3)" fill-rule="evenodd" stroke="none"/>
    <path d="M12.4 5.5 L12.4 5.45 12.2 3.05" fill="none" stroke="#0e0e0e" stroke-linecap="round" stroke-linejoin="round" stroke-width="1.0"/>
    <path d="M8.85 9.75 L8.95 18.55 10.9 17.05 10.9 10.5 M2.15 9.85 L2.55 15.6 4.7 18.4 8.95 18.55" fill="none" stroke="#0f0f0f" stroke-linecap="round" stroke-linejoin="round" stroke-width="1.0"/>
    <path d="M12.4 5.45 L8.85 2.75 3.85 2.75 1.95 0.95" fill="none" stroke="#000000" stroke-linecap="round" stroke-linejoin="round" stroke-width="1.0"/>
    <path d="M1.1 2.75 L1.2 2.35 Q1.3 1.55 1.9 0.95 3.4 0.25 5.05 0.25 L8.6 0.35 Q10.55 0.5 11.3 1.05 12.05 1.65 12.15 2.4 L12.15 2.75 12.2 3.05 12.5 9.1 11.6 10.65 Q7.4 8.75 3.5 9.5 L2.75 9.65 2.05 9.85 1.05 9.95 0.45 8.7 0.8 4.25 0.85 4.0 0.85 3.9 1.1 2.75 0.85 4.0 0.8 4.25 M0.85 4.0 L0.85 3.9" fill="none" stroke="#0b0b0b" stroke-linecap="round" stroke-linejoin="round" stroke-width="1.0"/>
    <path d="M0.55 7.6 Q6.0 5.85 12.5 7.9" fill="none" stroke="#0f0f0f" stroke-linecap="round" stroke-linejoin="round" stroke-width="1.0"/>
  </g>
  <defs>
    <radialGradient cx="0" cy="0" gradientTransform="matrix(0.0255, 0.0, 0.0, 0.0255, 6.55, 20.35)" gradientUnits="userSpaceOnUse" id="gradient0" r="819.2" spreadMethod="pad">
      <stop offset="0.0" stop-color="#333333"/>
      <stop offset="0.0" stop-color="#333333"/>
      <stop offset="0.5098039215686274" stop-color="#191919"/>
      <stop offset="1.0" stop-color="#333333"/>
    </radialGradient>
    <radialGradient cx="0" cy="0" gradientTransform="matrix(0.0077, 0.0, 0.0, 0.0077, 6.75, 8.35)" gradientUnits="userSpaceOnUse" id="gradient1" r="819.2" spreadMethod="pad">
      <stop offset="0.0" stop-color="#756d5f"/>
      <stop offset="1.0" stop-color="#1f1f1f"/>
      <stop offset="1.0" stop-color="#333333"/>
      <stop offset="1.0" stop-color="#333333"/>
      <stop offset="1.0" stop-color="#202121"/>
      <stop offset="1.0" stop-color="#202121"/>
    </radialGradient>
    <radialGradient cx="0" cy="0" gradientTransform="matrix(0.0248, 0.0, 0.0, 0.0248, 17.25, 23.4)" gradientUnits="userSpaceOnUse" id="gradient2" r="819.2" spreadMethod="pad">
      <stop offset="0.0" stop-color="#333333"/>
      <stop offset="0.0" stop-color="#333333"/>
      <stop offset="0.5098039215686274" stop-color="#191919"/>
      <stop offset="1.0" stop-color="#333333"/>
    </radialGradient>
    <radialGradient cx="0" cy="0" gradientTransform="matrix(0.0054, 0.0, 0.0, 0.0054, 10.6, 13.05)" gradientUnits="userSpaceOnUse" id="gradient3" r="819.2" spreadMethod="pad">
      <stop offset="0.0" stop-color="#756d5f"/>
      <stop offset="1.0" stop-color="#1f1f1f"/>
      <stop offset="1.0" stop-color="#333333"/>
      <stop offset="1.0" stop-color="#333333"/>
      <stop offset="1.0" stop-color="#202121"/>
      <stop offset="1.0" stop-color="#202121"/>
    </radialGradient>
  </defs>
</svg>
