<?xml version="1.0" encoding="UTF-8" standalone="no"?>
<svg xmlns:xlink="http://www.w3.org/1999/xlink" height="7.75px" width="14.8px" xmlns="http://www.w3.org/2000/svg">
  <g transform="matrix(1.0, 0.0, 0.0, 1.0, 4.6, 1.85)">
    <path d="M3.5 0.35 Q4.05 1.45 5.9 1.5 L8.55 1.85 9.35 2.85 9.7 4.9 6.6 5.4 1.25 4.95 -0.45 5.0 -1.55 5.35 -4.1 5.35 -4.0 3.75 Q-3.7 1.75 -2.9 -0.1 -2.55 -0.85 -2.0 -1.1 L0.5 -1.35 Q2.3 -1.25 2.95 -0.55 L3.5 0.35" fill="#5a5844" fill-rule="evenodd" stroke="none"/>
    <path d="M3.5 0.35 Q4.05 1.45 5.9 1.5 L8.55 1.85 9.35 2.85 9.7 4.9 6.6 5.4 1.25 4.95 -0.45 5.0 -1.55 5.35 -4.1 5.35 -4.0 3.75 Q-3.7 1.75 -2.9 -0.1 -2.55 -0.85 -2.0 -1.1 L0.5 -1.35 Q2.3 -1.25 2.95 -0.55 L3.5 0.35 Z" fill="none" stroke="#332e23" stroke-linecap="round" stroke-linejoin="round" stroke-width="1.05"/>
    <path d="M5.55 2.55 Q3.5 2.35 3.05 1.4" fill="none" stroke="#484737" stroke-linecap="round" stroke-linejoin="round" stroke-width="1.05"/>
    <path d="M8.3 5.25 L8.1 4.6" fill="none" stroke="#484737" stroke-linecap="round" stroke-linejoin="round" stroke-width="1.05"/>
    <path d="M6.6 5.4 L6.45 4.75" fill="none" stroke="#484737" stroke-linecap="round" stroke-linejoin="round" stroke-width="1.05"/>
    <path d="M4.85 5.35 L4.8 4.75" fill="none" stroke="#484737" stroke-linecap="round" stroke-linejoin="round" stroke-width="1.05"/>
    <path d="M3.1 5.25 L3.15 4.65" fill="none" stroke="#484737" stroke-linecap="round" stroke-linejoin="round" stroke-width="1.05"/>
    <path d="M-3.3 4.4 L-1.45 4.45" fill="none" stroke="#484737" stroke-linecap="round" stroke-linejoin="round" stroke-width="1.05"/>
  </g>
</svg>
