<?xml version="1.0" encoding="UTF-8" standalone="no"?>
<svg xmlns:xlink="http://www.w3.org/1999/xlink" height="7.75px" width="14.8px" xmlns="http://www.w3.org/2000/svg">
  <g transform="matrix(1.0, 0.0, 0.0, 1.0, 7.4, 3.85)">
    <path d="M0.7 -1.65 Q1.25 -0.55 3.1 -0.5 L5.75 -0.15 Q6.35 0.25 6.55 0.85 L6.9 2.9 3.85 3.4 -1.55 2.95 -3.25 3.0 -4.35 3.35 -6.9 3.35 -6.75 1.75 Q-6.5 -0.25 -5.7 -2.1 -5.35 -2.85 -4.8 -3.1 L-2.3 -3.35 Q-0.5 -3.25 0.2 -2.55 L0.7 -1.65" fill="#2b2c37" fill-rule="evenodd" stroke="none"/>
    <path d="M0.7 -1.65 Q1.25 -0.55 3.1 -0.5 L5.75 -0.15 Q6.35 0.25 6.55 0.85 L6.9 2.9 3.85 3.4 -1.55 2.95 -3.25 3.0 -4.35 3.35 -6.9 3.35 -6.75 1.75 Q-6.5 -0.25 -5.7 -2.1 -5.35 -2.85 -4.8 -3.1 L-2.3 -3.35 Q-0.5 -3.25 0.2 -2.55 L0.7 -1.65 Z" fill="none" stroke="#131318" stroke-linecap="round" stroke-linejoin="round" stroke-width="1.05"/>
    <path d="M5.55 3.25 L5.3 2.6" fill="none" stroke="#1f1f27" stroke-linecap="round" stroke-linejoin="round" stroke-width="1.05"/>
    <path d="M3.85 3.4 L3.7 2.75" fill="none" stroke="#1f1f27" stroke-linecap="round" stroke-linejoin="round" stroke-width="1.05"/>
    <path d="M2.05 3.35 L2.05 2.75" fill="none" stroke="#1f1f27" stroke-linecap="round" stroke-linejoin="round" stroke-width="1.05"/>
    <path d="M0.35 3.25 L0.4 2.65" fill="none" stroke="#1f1f27" stroke-linecap="round" stroke-linejoin="round" stroke-width="1.05"/>
    <path d="M-6.05 2.4 L-4.25 2.45" fill="none" stroke="#1f1f27" stroke-linecap="round" stroke-linejoin="round" stroke-width="1.05"/>
  </g>
</svg>
