<?xml version="1.0" encoding="UTF-8" standalone="no"?>
<svg xmlns:ffdec="https://www.free-decompiler.com/flash" xmlns:xlink="http://www.w3.org/1999/xlink" ffdec:objectType="shape" height="19.85px" width="10.25px" xmlns="http://www.w3.org/2000/svg">
  <g transform="matrix(1.0, 0.0, 0.0, 1.0, -0.95, 0.1)">
    <path d="M3.45 8.75 L3.55 4.1 Q3.4 3.15 3.8 2.45 4.5 0.9 6.3 0.6 L9.25 0.8 Q10.75 1.6 10.5 3.6 L10.5 4.1 6.95 11.7 5.1 12.8 5.0 12.85 2.65 14.15 Q2.5 12.95 3.1 11.75 L2.75 11.5 1.7 10.9 Q1.3 10.1 1.5 9.8 L1.8 9.25 2.3 8.9 2.6 8.75 3.45 8.75 4.25 8.8 4.65 8.85 6.1 9.75 4.65 8.85 4.25 8.8 3.45 8.75 M3.9 17.6 L8.2 15.2 10.6 10.8 10.6 10.95 Q10.8 12.15 10.5 12.7 10.55 13.25 10.0 14.05 L9.3 15.3 9.15 16.5 Q8.95 17.45 7.55 18.4 6.35 19.1 5.95 19.2 4.7 19.4 4.15 18.35 L3.9 17.6 M8.7 4.4 L8.4 3.95 7.3 3.25 6.2 2.8 7.3 3.25 8.4 3.95 8.7 4.4 M9.1 3.6 L7.95 2.25 9.1 3.6 M5.0 12.85 L3.1 11.75 5.0 12.85" fill="#9c9c9c" fill-rule="evenodd" stroke="none"/>
    <path d="M10.5 4.1 L10.45 7.2 Q10.35 9.45 10.6 10.8 L8.2 15.2 3.9 17.6 3.75 17.25 3.5 16.05 2.7 14.3 2.65 14.15 5.0 12.85 5.1 12.8 6.95 11.7 10.5 4.1" fill="#2e2e2e" fill-rule="evenodd" stroke="none"/>
    <path d="M10.5 4.1 L10.5 3.6 Q10.75 1.6 9.25 0.8 L6.3 0.6 Q4.5 0.9 3.8 2.45 3.4 3.15 3.55 4.1 L3.45 8.75 4.25 8.8 4.65 8.85 6.1 9.75 M10.6 10.8 Q10.35 9.45 10.45 7.2 L10.5 4.1 M5.1 12.8 L5.0 12.85 3.1 11.75 Q2.5 12.95 2.65 14.15 L2.7 14.3 3.5 16.05 3.75 17.25 3.9 17.6 4.15 18.35 Q4.7 19.4 5.95 19.2 6.35 19.1 7.55 18.4 8.95 17.45 9.15 16.5 L9.3 15.3 10.0 14.05 Q10.55 13.25 10.5 12.7 10.8 12.15 10.6 10.95 L10.6 10.8 M3.45 8.75 L2.6 8.75 2.3 8.9 1.8 9.25 1.5 9.8 Q1.3 10.1 1.7 10.9 L2.75 11.5 3.1 11.75" fill="none" stroke="#1e1e1e" stroke-linecap="round" stroke-linejoin="round" stroke-width="1.0"/>
    <path d="M7.95 2.25 L9.1 3.6 M6.2 2.8 L7.3 3.25 8.4 3.95 8.7 4.4" fill="none" stroke="#232323" stroke-linecap="round" stroke-linejoin="round" stroke-width="0.8"/>
    <path d="M7.6 6.8 L7.6 6.95 7.65 7.1 7.55 7.1 7.5 7.2 7.5 7.25 7.35 7.35 7.4 7.4 7.3 7.4 7.35 7.25 7.45 7.1 7.4 7.0 7.3 7.25 7.3 7.3 7.25 7.4 7.3 7.45 7.15 7.55 7.1 7.7 7.15 7.75 7.25 7.65 7.25 7.75 7.1 7.95 7.1 8.0 7.1 8.15 7.0 8.2 6.95 8.35 6.85 8.5 6.9 8.15 7.05 7.8 7.05 7.6 7.1 7.45 7.05 7.35 7.1 7.25 7.1 7.15 7.1 7.05 7.0 6.95 7.0 6.9 6.95 6.8 6.9 6.85 6.8 6.7 6.8 6.5 6.85 6.3 6.85 6.2 6.85 6.15 6.95 6.15 7.0 6.0 7.0 5.9 6.9 5.7 6.9 5.55 6.8 5.75 6.9 5.85 6.9 5.95 6.85 6.05 6.85 6.15 6.8 6.25 6.8 6.45 6.8 6.5 6.75 6.7 6.7 6.7 6.5 6.9 6.5 7.05 6.45 7.15 6.45 7.25 6.35 7.3 6.35 7.5 6.4 8.35 6.25 8.1 6.2 8.05 6.2 7.9 6.15 7.65 6.0 7.6 6.05 7.5 6.05 7.45 6.1 7.35 6.05 7.25 6.15 7.35 6.2 7.1 6.15 6.95 6.1 6.85 6.1 7.15 6.0 7.1 5.85 7.0 5.9 6.95 5.85 6.85 5.8 6.75 5.8 6.7 5.9 6.75 6.0 6.75 6.1 6.75 6.15 6.75 6.1 6.65 6.25 6.4 6.25 6.2 6.25 6.15 6.3 6.1 6.25 6.0 6.3 5.85 6.25 5.75 6.2 5.75 6.1 5.7 6.15 5.6 6.05 5.65 5.9 5.55 5.75 5.55 5.65 5.45 5.7 5.4 5.7 5.35 5.75 5.3 5.8 5.15 6.0 5.0 6.1 4.95 6.15 4.85 6.2 4.8 6.35 4.75 6.65 4.7 6.7 4.65 6.8 4.7 6.9 4.7 6.9 4.65 7.0 4.65 7.2 4.75 7.25 4.75 7.4 4.75 7.5 4.85 7.55 4.9 7.75 4.95 7.75 5.15 7.85 5.4 8.0 5.45 8.0 5.5 8.05 5.5 8.05 5.55 8.0 5.65 7.95 5.65 7.85 5.7 7.8 5.7 7.7 5.7 7.7 5.75 7.65 5.7 7.65 5.65 7.55 5.8 7.6 5.9 7.5 5.95 7.45 6.0 7.4 6.1 7.35 6.15 7.4 6.3 7.4 6.35 7.4 6.5 7.4 6.65 7.45 6.9 7.55 6.8 7.6 6.8 7.6 6.75 7.55 6.65 7.55 6.55 7.6 6.6 7.65 6.5 7.6 6.4 7.8 6.5 7.75 6.65 7.8 6.6 7.7 6.7 7.75 6.75 7.6 6.8 M6.15 7.4 L6.1 7.45 6.15 7.5 6.2 7.55 6.2 7.45 6.15 7.4 M7.1 4.85 L7.0 4.8 6.95 4.8 6.95 4.9 7.0 5.1 6.9 5.25 6.95 5.3 6.95 5.25 7.05 5.25 7.1 5.2 7.15 5.1 7.1 5.1 7.1 4.85" fill="#090000" fill-rule="evenodd" stroke="none"/>
    <path d="M10.55 4.9 L10.5 5.0 Q10.65 6.75 10.15 8.75 L6.85 8.5 3.4 8.15 Q2.95 6.15 3.55 4.2 L8.8 4.8 10.55 4.9 M7.6 6.8 L7.55 6.8 7.45 6.9 7.4 6.65 7.4 6.5 7.4 6.35 7.4 6.3 7.35 6.15 7.4 6.1 7.45 6.0 7.5 5.95 7.6 5.9 7.55 5.8 7.65 5.65 7.65 5.7 7.7 5.75 7.7 5.7 7.8 5.7 7.85 5.7 7.95 5.65 8.0 5.65 8.05 5.55 8.05 5.5 8.0 5.5 8.0 5.45 7.85 5.4 7.75 5.15 7.75 4.95 7.55 4.9 7.5 4.85 7.4 4.75 7.25 4.75 7.2 4.75 7.0 4.65 6.9 4.65 6.9 4.7 6.8 4.7 6.7 4.65 6.65 4.7 6.35 4.75 6.2 4.8 6.15 4.85 6.1 4.95 6.0 5.0 5.8 5.15 5.75 5.3 5.7 5.35 5.7 5.4 5.65 5.45 5.75 5.55 5.9 5.55 6.05 5.65 6.15 5.6 6.1 5.7 6.2 5.75 6.25 5.75 6.3 5.85 6.25 6.0 6.3 6.1 6.25 6.15 6.25 6.2 6.25 6.4 6.1 6.65 6.15 6.75 6.1 6.75 6.0 6.75 5.9 6.75 5.8 6.7 5.8 6.75 5.85 6.85 5.9 6.95 5.85 7.0 6.0 7.1 6.1 7.15 6.1 6.85 6.15 6.95 6.2 7.1 6.15 7.35 6.05 7.25 6.1 7.35 6.05 7.45 6.05 7.5 6.0 7.6 6.15 7.65 6.2 7.9 6.2 8.05 6.25 8.1 6.4 8.35 6.35 7.5 6.35 7.3 6.45 7.25 6.45 7.15 6.5 7.05 6.5 6.9 6.7 6.7 6.75 6.7 6.8 6.5 6.8 6.45 6.8 6.25 6.85 6.15 6.85 6.05 6.9 5.95 6.9 5.85 6.8 5.75 6.9 5.55 6.9 5.7 7.0 5.9 7.0 6.0 6.95 6.15 6.85 6.15 6.85 6.2 6.85 6.3 6.8 6.5 6.8 6.7 6.9 6.85 6.95 6.8 7.0 6.9 7.0 6.95 7.1 7.05 7.1 7.15 7.1 7.25 7.05 7.35 7.1 7.45 7.05 7.6 7.05 7.8 6.9 8.15 6.85 8.5 6.95 8.35 7.0 8.2 7.1 8.15 7.1 8.0 7.1 7.95 7.25 7.75 7.25 7.65 7.15 7.75 7.1 7.7 7.15 7.55 7.3 7.45 7.25 7.4 7.3 7.3 7.3 7.25 7.4 7.0 7.45 7.1 7.35 7.25 7.3 7.4 7.4 7.4 7.35 7.35 7.5 7.25 7.5 7.2 7.55 7.1 7.65 7.1 7.6 6.95 7.6 6.8 7.75 6.75 7.7 6.7 7.8 6.6 7.75 6.65 7.8 6.5 7.6 6.4 7.65 6.5 7.6 6.6 7.55 6.55 7.55 6.65 7.6 6.75 7.6 6.8 M7.1 4.85 L7.1 5.1 7.15 5.1 7.1 5.2 7.05 5.25 6.95 5.25 6.95 5.3 6.9 5.25 7.0 5.1 6.95 4.9 6.95 4.8 7.0 4.8 7.1 4.85 M6.15 7.4 L6.2 7.45 6.2 7.55 6.15 7.5 6.1 7.45 6.15 7.4 M10.5 5.0 L8.8 4.8 10.5 5.0" fill="#380202" fill-rule="evenodd" stroke="none"/>
    <path d="M10.55 4.9 L10.5 5.0 Q10.65 6.75 10.15 8.75 L6.85 8.5 3.4 8.15 Q2.95 6.15 3.55 4.2 L8.8 4.8 10.5 5.0" fill="none" stroke="#090000" stroke-linecap="round" stroke-linejoin="round" stroke-width="1.0"/>
  </g>
</svg>
