<?xml version="1.0" encoding="UTF-8" standalone="no"?>
<svg xmlns:ffdec="https://www.free-decompiler.com/flash" xmlns:xlink="http://www.w3.org/1999/xlink" ffdec:objectType="shape" height="13.2px" width="11.35px" xmlns="http://www.w3.org/2000/svg">
  <g transform="matrix(1.0, 0.0, 0.0, 1.0, -0.95, 0.15)">
    <path d="M10.55 8.2 L11.8 9.3 Q11.7 11.0 11.15 12.35 L2.3 12.05 1.6 9.8 2.3 9.3 2.4 9.45 3.5 10.6 3.1 7.2 7.85 7.2 6.95 10.85 7.65 10.4 9.85 8.8 10.55 8.2 M2.5 2.35 L3.1 1.75 Q4.7 0.6 6.05 0.4 L8.45 0.75 9.05 1.05 9.4 1.25 8.75 3.65 8.75 3.25 2.65 3.25 2.5 2.35 M8.55 4.45 L8.15 6.0 2.95 6.0 2.8 4.45 8.55 4.45 M6.95 10.85 Q5.05 11.8 3.5 10.6 5.05 11.8 6.95 10.85" fill="#2a2a2a" fill-rule="evenodd" stroke="none"/>
    <path d="M9.4 1.25 Q10.85 2.05 11.2 3.2 L11.3 3.5 11.65 5.4 11.55 7.1 10.55 8.2 9.85 8.8 7.65 10.4 6.95 10.85 7.85 7.2 8.6 7.2 8.6 6.0 8.15 6.0 8.55 4.45 8.75 4.45 8.75 3.65 9.4 1.25 M2.3 9.3 L2.2 9.15 1.45 7.75 1.45 6.0 Q1.45 4.5 1.85 3.5 2.1 2.8 2.5 2.35 L2.65 3.25 2.65 4.45 2.8 4.45 2.95 6.0 2.5 6.0 2.5 7.2 3.1 7.2 3.5 10.6 2.4 9.45 2.3 9.3" fill="#1e1e1e" fill-rule="evenodd" stroke="none"/>
    <path d="M8.75 3.65 L8.75 4.45 8.55 4.45 2.8 4.45 2.65 4.45 2.65 3.25 8.75 3.25 8.75 3.65 M8.15 6.0 L8.6 6.0 8.6 7.2 7.85 7.2 3.1 7.2 2.5 7.2 2.5 6.0 2.95 6.0 8.15 6.0" fill="#380000" fill-rule="evenodd" stroke="none"/>
    <path d="M8.75 3.65 L8.75 4.45 8.55 4.45 2.8 4.45 2.65 4.45 2.65 3.25 8.75 3.25 8.75 3.65 M8.15 6.0 L8.6 6.0 8.6 7.2 7.85 7.2 3.1 7.2 2.5 7.2 2.5 6.0 2.95 6.0 8.15 6.0" fill="none" stroke="#1c0000" stroke-linecap="round" stroke-linejoin="round" stroke-width="0.8"/>
    <path d="M9.4 1.25 Q10.85 2.05 11.2 3.2 L11.3 3.5 11.65 5.4 11.55 7.1 10.55 8.2 11.8 9.3 Q11.7 11.0 11.15 12.35 L2.3 12.05 1.6 9.8 2.3 9.3 2.2 9.15 1.45 7.75 1.45 6.0 Q1.45 4.5 1.85 3.5 2.1 2.8 2.5 2.35 L3.1 1.75 Q4.7 0.6 6.05 0.4 L8.45 0.75 9.05 1.05 9.4 1.25 M6.95 10.85 L7.65 10.4 9.85 8.8 10.55 8.2 M3.5 10.6 Q5.05 11.8 6.95 10.85 M2.3 9.3 L2.4 9.45 3.5 10.6" fill="none" stroke="#070606" stroke-linecap="round" stroke-linejoin="round" stroke-width="1.0"/>
  </g>
</svg>
