<?xml version="1.0" encoding="UTF-8" standalone="no"?>
<svg xmlns:xlink="http://www.w3.org/1999/xlink" height="8.75px" width="17.1px" xmlns="http://www.w3.org/2000/svg">
  <g transform="matrix(1.0, 0.0, 0.0, 1.0, 6.85, 2.35)">
    <path d="M-2.85 -1.55 L0.0 -1.65 Q0.8 -1.75 2.7 -0.75 4.85 0.35 6.35 0.5 L3.65 5.9 -2.6 5.85 -4.85 1.95 Q-3.7 -0.95 -2.85 -1.55" fill="#444444" fill-rule="evenodd" stroke="none"/>
    <path d="M-2.85 -1.55 Q-3.7 -0.95 -4.85 1.95 L-2.6 5.85 3.65 5.9 6.35 0.5 Q4.85 0.35 2.7 -0.75 0.8 -1.75 0.0 -1.65 L-2.85 -1.55 Z" fill="none" stroke="#1a1a1a" stroke-linecap="round" stroke-linejoin="round" stroke-width="1.05"/>
    <path d="M-3.1 2.05 L-2.6 5.85 -5.85 5.85 -6.35 4.25 -6.0 2.3 -4.15 1.55 -3.1 2.05" fill="#323232" fill-rule="evenodd" stroke="none"/>
    <path d="M-3.1 2.05 L-4.15 1.55 -6.0 2.3 -6.35 4.25 -5.85 5.85 -2.6 5.85 -3.1 2.05 Z" fill="none" stroke="#1a1a1a" stroke-linecap="round" stroke-linejoin="round" stroke-width="1.05"/>
    <path d="M6.35 0.5 L7.65 1.35 Q8.95 2.35 9.1 3.1 L9.75 5.9 3.65 5.9 3.85 3.55 4.9 2.55 6.35 0.5" fill="#323232" fill-rule="evenodd" stroke="none"/>
    <path d="M6.35 0.5 L7.65 1.35 Q8.95 2.35 9.1 3.1 L9.75 5.9 3.65 5.9 3.85 3.55 4.9 2.55 6.35 0.5 Z" fill="none" stroke="#1a1a1a" stroke-linecap="round" stroke-linejoin="round" stroke-width="1.05"/>
  </g>
</svg>
