<?xml version="1.0" encoding="UTF-8" standalone="no"?>
<svg xmlns:ffdec="https://www.free-decompiler.com/flash" xmlns:xlink="http://www.w3.org/1999/xlink" ffdec:objectType="shape" height="22.05px" width="12.25px" xmlns="http://www.w3.org/2000/svg">
  <g transform="matrix(1.0, 0.0, 0.0, 1.0, -0.95, 2.35)">
    <path d="M10.6 4.2 L10.45 7.3 10.45 10.25 10.5 10.9 8.05 15.25 3.65 17.6 3.55 17.25 3.35 16.0 2.6 14.2 2.55 14.05 4.9 12.8 5.05 12.8 6.85 11.75 10.6 4.2" fill="#696969" fill-rule="evenodd" stroke="none"/>
    <path d="M3.45 8.7 L3.75 4.05 Q3.6 3.15 4.0 2.45 4.7 0.9 6.5 0.65 L9.4 0.85 Q10.95 1.75 10.6 3.7 L10.6 4.2 6.85 11.75 5.05 12.8 4.9 12.8 2.55 14.05 Q2.4 12.85 3.0 11.7 L2.7 11.45 1.65 10.85 Q1.3 9.95 1.5 9.7 L1.85 9.1 2.1 8.9 2.3 8.8 2.65 8.65 3.45 8.7 4.3 8.7 4.7 8.8 Q5.25 8.95 5.75 9.5 L6.05 9.8 5.75 9.5 Q5.25 8.95 4.7 8.8 L4.3 8.7 3.45 8.7 M3.65 17.6 L8.05 15.25 10.5 10.9 10.55 11.05 Q10.7 12.2 10.45 12.85 10.45 13.4 9.9 14.2 L9.2 15.4 8.95 16.6 Q8.7 17.5 7.35 18.45 L5.7 19.2 Q4.45 19.35 3.95 18.3 L3.65 17.6 M9.2 3.65 L8.15 2.35 9.2 3.65 M8.85 4.5 L8.55 4.0 7.45 3.3 Q6.8 2.9 6.3 2.85 6.8 2.9 7.45 3.3 L8.55 4.0 8.85 4.5 M4.9 12.8 L3.0 11.7 4.9 12.8" fill="#313131" fill-rule="evenodd" stroke="none"/>
    <path d="M10.6 4.2 L10.6 3.7 Q10.95 1.75 9.4 0.85 L6.5 0.65 Q4.7 0.9 4.0 2.45 3.6 3.15 3.75 4.05 L3.45 8.7 4.3 8.7 4.7 8.8 Q5.25 8.95 5.75 9.5 L6.05 9.8 M10.5 10.9 L10.45 10.25 10.45 7.3 10.6 4.2 M5.05 12.8 L4.9 12.8 3.0 11.7 Q2.4 12.85 2.55 14.05 L2.6 14.2 3.35 16.0 3.55 17.25 3.65 17.6 3.95 18.3 Q4.45 19.35 5.7 19.2 L7.35 18.45 Q8.7 17.5 8.95 16.6 L9.2 15.4 9.9 14.2 Q10.45 13.4 10.45 12.85 10.7 12.2 10.55 11.05 L10.5 10.9 M3.45 8.7 L2.65 8.65 2.3 8.8 2.1 8.9 1.85 9.1 1.5 9.7 Q1.3 9.95 1.65 10.85 L2.7 11.45 3.0 11.7" fill="none" stroke="#1e1e1e" stroke-linecap="round" stroke-linejoin="round" stroke-width="1.0"/>
    <path d="M6.3 2.85 Q6.8 2.9 7.45 3.3 L8.55 4.0 8.85 4.5 M8.15 2.35 L9.2 3.65" fill="none" stroke="#232323" stroke-linecap="round" stroke-linejoin="round" stroke-width="0.8"/>
    <path d="M10.6 4.95 L10.6 5.0 8.85 4.8 10.6 4.95 M6.1 7.4 L6.1 7.3 6.25 7.4 6.25 7.45 6.25 7.55 6.1 7.4 M6.85 6.3 L6.85 6.2 6.95 6.1 6.95 6.0 6.9 5.85 6.85 5.8 6.95 5.45 6.95 5.3 7.0 5.2 7.0 5.1 7.0 4.9 7.05 4.8 7.2 4.8 7.2 4.85 7.1 5.05 7.2 5.05 7.2 5.15 7.15 5.2 7.1 5.25 7.05 5.25 6.95 5.7 7.05 5.85 7.05 6.0 7.0 6.15 6.9 6.2 6.9 6.25 6.85 6.3" fill="#380202" fill-rule="evenodd" stroke="none"/>
    <path d="M10.6 5.0 Q10.7 6.85 10.15 8.85 L6.85 8.45 3.4 8.05 Q3.05 6.05 3.6 4.15 L8.85 4.8 10.6 5.0 M6.85 6.3 L6.9 6.5 6.85 6.7 6.9 6.8 7.0 6.85 7.0 6.8 7.05 6.85 7.05 6.9 7.0 6.95 7.05 7.05 7.05 7.15 7.05 7.25 7.1 7.35 7.05 7.45 7.0 7.55 7.05 7.8 6.9 8.1 6.85 8.45 6.9 8.35 7.0 8.2 7.1 8.15 7.1 7.95 7.15 7.9 7.25 7.75 7.25 7.65 7.15 7.7 7.15 7.55 7.3 7.4 7.3 7.2 7.45 6.9 7.45 6.85 7.4 6.65 7.4 6.5 7.4 6.35 7.4 6.3 7.45 6.15 7.45 6.1 7.5 6.05 7.55 5.95 7.55 5.9 7.65 5.95 7.65 5.8 7.7 5.8 7.75 5.7 7.75 5.8 7.8 5.75 7.85 5.7 7.95 5.7 8.05 5.7 8.1 5.75 8.15 5.65 8.15 5.6 8.05 5.5 8.05 5.4 8.0 5.35 7.9 5.1 7.85 4.95 7.7 4.85 7.65 4.85 7.5 4.75 7.3 4.7 7.25 4.7 7.15 4.65 7.05 4.65 7.0 4.65 6.95 4.7 6.85 4.65 6.8 4.6 6.7 4.65 6.45 4.7 6.4 4.7 6.2 4.8 6.15 4.9 6.05 4.95 5.9 5.1 5.8 5.25 5.75 5.25 5.75 5.35 5.85 5.45 5.95 5.45 6.15 5.6 6.25 5.7 6.3 5.7 6.35 5.9 6.35 6.05 6.3 6.15 6.25 6.15 6.25 6.2 6.25 6.35 6.2 6.6 6.2 6.85 6.15 6.95 6.2 7.1 6.15 7.25 6.15 7.2 6.1 7.25 6.05 7.35 6.05 7.4 6.1 7.4 6.1 7.55 6.15 7.6 6.25 7.8 6.2 7.85 6.2 7.95 6.25 8.0 6.3 8.05 6.35 8.3 6.35 7.45 6.35 7.35 6.4 7.25 6.5 7.2 6.5 7.1 6.5 7.0 6.55 6.9 6.7 6.75 6.8 6.7 6.85 6.45 6.85 6.3 M7.75 6.4 L7.75 6.5 7.75 6.6 7.65 6.6 7.6 6.7 7.6 6.8 7.65 6.8 7.7 6.85 7.75 6.75 7.8 6.7 7.9 6.6 7.85 6.6 7.85 6.5 7.75 6.4 M7.45 6.9 L7.45 7.0 7.4 7.1 7.35 7.25 7.35 7.35 7.4 7.35 7.4 7.3 7.5 7.25 7.5 7.15 7.6 7.1 7.7 6.95 7.7 6.9 7.65 6.85 7.55 6.85 7.45 6.9 M6.15 6.95 L6.15 6.75 6.1 6.7 6.0 6.7 5.85 6.7 5.85 6.75 5.9 6.85 5.9 6.95 5.95 6.95 6.0 7.05 6.1 7.05 6.15 7.1 6.15 6.95" fill="#252525" fill-rule="evenodd" stroke="none"/>
    <path d="M6.1 7.4 L6.05 7.4 6.05 7.35 6.1 7.25 6.15 7.2 6.15 7.25 6.2 7.1 6.15 6.95 6.2 6.85 6.2 6.6 6.25 6.35 6.25 6.2 6.25 6.15 6.3 6.15 6.35 6.05 6.35 5.9 6.3 5.7 6.25 5.7 6.15 5.6 5.95 5.45 5.85 5.45 5.75 5.35 5.75 5.25 5.8 5.25 5.9 5.1 6.05 4.95 6.15 4.9 6.2 4.8 6.4 4.7 6.45 4.7 6.7 4.65 6.8 4.6 6.85 4.65 6.95 4.7 7.0 4.65 7.05 4.65 7.15 4.65 7.25 4.7 7.3 4.7 7.5 4.75 7.65 4.85 7.7 4.85 7.85 4.95 7.9 5.1 8.0 5.35 8.05 5.4 8.05 5.5 8.15 5.6 8.15 5.65 8.1 5.75 8.05 5.7 7.95 5.7 7.85 5.7 7.8 5.75 7.75 5.8 7.75 5.7 7.7 5.8 7.65 5.8 7.65 5.95 7.55 5.9 7.55 5.95 7.5 6.05 7.45 6.1 7.45 6.15 7.4 6.3 7.4 6.35 7.4 6.5 7.4 6.65 7.45 6.85 7.45 6.9 7.3 7.2 7.3 7.4 7.15 7.55 7.15 7.7 7.25 7.65 7.25 7.75 7.15 7.9 7.1 7.95 7.1 8.15 7.0 8.2 6.9 8.35 6.85 8.45 6.9 8.1 7.05 7.8 7.0 7.55 7.05 7.45 7.1 7.35 7.05 7.25 7.05 7.15 7.05 7.05 7.0 6.95 7.05 6.9 7.05 6.85 7.0 6.8 7.0 6.85 6.9 6.8 6.85 6.7 6.9 6.5 6.85 6.3 6.85 6.45 6.8 6.7 6.7 6.75 6.55 6.9 6.5 7.0 6.5 7.1 6.5 7.2 6.4 7.25 6.35 7.35 6.35 7.45 6.35 8.3 6.3 8.05 6.25 8.0 6.2 7.95 6.2 7.85 6.25 7.8 6.15 7.6 6.1 7.55 6.1 7.4 6.25 7.55 6.25 7.45 6.25 7.4 6.1 7.3 6.1 7.4 M6.85 6.3 L6.9 6.25 6.9 6.2 7.0 6.15 7.05 6.0 7.05 5.85 6.95 5.7 7.05 5.25 7.1 5.25 7.15 5.2 7.2 5.15 7.2 5.05 7.1 5.05 7.2 4.85 7.2 4.8 7.05 4.8 7.0 4.9 7.0 5.1 7.0 5.2 6.95 5.3 6.95 5.45 6.85 5.8 6.9 5.85 6.95 6.0 6.95 6.1 6.85 6.2 6.85 6.3 M6.15 6.95 L6.15 7.1 6.1 7.05 6.0 7.05 5.95 6.95 5.9 6.95 5.9 6.85 5.85 6.75 5.85 6.7 6.0 6.7 6.1 6.7 6.15 6.75 6.15 6.95 M7.45 6.9 L7.55 6.85 7.65 6.85 7.7 6.9 7.7 6.95 7.6 7.1 7.5 7.15 7.5 7.25 7.4 7.3 7.4 7.35 7.35 7.35 7.35 7.25 7.4 7.1 7.45 7.0 7.45 6.9 M7.75 6.4 L7.85 6.5 7.85 6.6 7.9 6.6 7.8 6.7 7.75 6.75 7.7 6.85 7.65 6.8 7.6 6.8 7.6 6.7 7.65 6.6 7.75 6.6 7.75 6.5 7.75 6.4" fill="#ffe000" fill-rule="evenodd" stroke="none"/>
    <path d="M10.6 4.95 L10.6 5.0 Q10.7 6.85 10.15 8.85 L6.85 8.45 3.4 8.05 Q3.05 6.05 3.6 4.15 L8.85 4.8 10.6 5.0" fill="none" stroke="#0e0e0e" stroke-linecap="round" stroke-linejoin="round" stroke-width="1.0"/>
    <path d="M2.5 2.4 Q7.3 5.3 12.2 3.35 12.6 4.4 11.5 5.0 8.7 6.1 6.25 5.7 3.75 4.95 2.55 3.95 2.0 3.25 2.5 2.4" fill="#878787" fill-rule="evenodd" stroke="none"/>
    <path d="M2.5 2.4 Q2.6 0.8 3.9 -0.35 5.5 -1.85 8.1 -1.5 10.65 -1.15 11.75 0.85 12.5 2.15 12.2 3.35 7.3 5.3 2.5 2.4" fill="#2a2a2a" fill-rule="evenodd" stroke="none"/>
    <path d="M12.2 3.35 Q12.5 2.15 11.75 0.85 10.65 -1.15 8.1 -1.5 5.5 -1.85 3.9 -0.35 2.6 0.8 2.5 2.4 7.3 5.3 12.2 3.35 12.6 4.4 11.5 5.0 8.7 6.1 6.25 5.7 3.75 4.95 2.55 3.95 2.0 3.25 2.5 2.4" fill="none" stroke="#171717" stroke-linecap="round" stroke-linejoin="round" stroke-width="1.0"/>
    <path d="M9.25 7.95 L4.25 7.45 5.4 3.65 8.4 3.95 9.25 7.95" fill="#2c0101" fill-rule="evenodd" stroke="none"/>
    <path d="M4.25 7.45 L2.25 6.95 1.7 2.95 4.25 2.2 6.3 -1.85 8.8 -1.65 10.25 2.7 12.7 4.2 11.4 7.9 9.25 7.95 8.4 3.95 5.4 3.65 4.25 7.45" fill="url(#gradient0)" fill-rule="evenodd" stroke="none"/>
    <path d="M4.25 7.45 L2.25 6.95 1.7 2.95 4.25 2.2 6.3 -1.85 8.8 -1.65 10.25 2.7 12.7 4.2 11.4 7.9 9.25 7.95 4.25 7.45 Z" fill="none" stroke="#0e0e0e" stroke-linecap="round" stroke-linejoin="round" stroke-width="1.0"/>
  </g>
  <defs>
    <radialGradient cx="0" cy="0" gradientTransform="matrix(0.0078, 0.0, 0.0, 0.0078, 6.7, 4.0)" gradientUnits="userSpaceOnUse" id="gradient0" r="819.2" spreadMethod="pad">
      <stop offset="0.0" stop-color="#565656"/>
      <stop offset="1.0" stop-color="#2a2a2a"/>
    </radialGradient>
  </defs>
</svg>
