<?xml version="1.0" encoding="UTF-8" standalone="no"?>
<svg xmlns:ffdec="https://www.free-decompiler.com/flash" xmlns:xlink="http://www.w3.org/1999/xlink" ffdec:objectType="shape" height="21.1px" width="11.3px" xmlns="http://www.w3.org/2000/svg">
  <g transform="matrix(1.0, 0.0, 0.0, 1.0, -0.8, 1.3)">
    <path d="M10.5 4.2 L10.4 7.3 Q10.3 9.6 10.5 10.9 L8.05 15.25 3.7 17.65 3.6 17.3 3.35 16.05 2.55 14.35 2.55 14.2 4.9 12.9 5.05 12.8 6.85 11.75 10.5 4.2" fill="#2c0101" fill-rule="evenodd" stroke="none"/>
    <path d="M3.4 8.8 L3.65 4.15 Q3.5 3.2 3.85 2.5 4.55 0.95 6.35 0.65 8.2 0.2 9.25 0.9 10.85 1.75 10.5 3.7 L10.5 4.2 6.85 11.75 5.05 12.8 4.9 12.9 2.55 14.2 Q2.4 12.9 3.0 11.75 L2.65 11.55 1.65 10.95 Q1.25 10.1 1.45 9.8 L1.75 9.25 2.25 8.9 2.55 8.75 3.4 8.8 4.2 8.8 4.65 8.9 Q5.35 9.1 6.0 9.85 5.35 9.1 4.65 8.9 L4.2 8.8 3.4 8.8 M3.7 17.65 L8.05 15.25 10.5 10.9 10.5 11.05 Q10.7 12.25 10.4 12.85 L9.9 14.2 9.2 15.4 9.0 16.6 Q8.75 17.55 7.4 18.5 L5.75 19.25 Q4.5 19.45 4.0 18.4 L3.7 17.65 M9.1 3.65 L7.95 2.35 9.1 3.65 M8.7 4.5 L8.4 4.05 7.35 3.35 Q6.65 2.95 6.2 2.85 6.65 2.95 7.35 3.35 L8.4 4.05 8.7 4.5 M4.9 12.9 L3.0 11.75 4.9 12.9" fill="#1e1e1e" fill-rule="evenodd" stroke="none"/>
    <path d="M10.5 4.2 L10.5 3.7 Q10.85 1.75 9.25 0.9 8.2 0.2 6.35 0.65 4.55 0.95 3.85 2.5 3.5 3.2 3.65 4.15 L3.4 8.8 4.2 8.8 4.65 8.9 Q5.35 9.1 6.0 9.85 M10.5 10.9 Q10.3 9.6 10.4 7.3 L10.5 4.2 M5.05 12.8 L4.9 12.9 3.0 11.75 Q2.4 12.9 2.55 14.2 L2.55 14.35 3.35 16.05 3.6 17.3 3.7 17.65 4.0 18.4 Q4.5 19.45 5.75 19.25 L7.4 18.5 Q8.75 17.55 9.0 16.6 L9.2 15.4 9.9 14.2 10.4 12.85 Q10.7 12.25 10.5 11.05 L10.5 10.9 M3.4 8.8 L2.55 8.75 2.25 8.9 1.75 9.25 1.45 9.8 Q1.25 10.1 1.65 10.95 L2.65 11.55 3.0 11.75" fill="none" stroke="#101010" stroke-linecap="round" stroke-linejoin="round" stroke-width="1.0"/>
    <path d="M6.2 2.85 Q6.65 2.95 7.35 3.35 L8.4 4.05 8.7 4.5 M7.95 2.35 L9.1 3.65" ffdec:has-small-stroke="true" ffdec:original-stroke-width="0.8" fill="none" stroke="#101010" stroke-linecap="round" stroke-linejoin="round" stroke-width="1.0"/>
    <path d="M10.55 5.05 L10.5 5.1 8.75 4.9 10.55 5.05 M6.8 6.55 L6.8 6.35 6.85 6.3 6.8 6.2 6.85 6.1 6.9 5.95 6.75 5.9 6.85 5.5 6.85 5.8 7.0 6.0 6.95 6.1 6.95 6.25 6.85 6.3 6.85 6.35 6.8 6.4 6.8 6.55 M7.1 4.95 L7.05 5.1 7.05 5.15 7.1 5.15 7.1 5.25 7.05 5.35 6.95 5.3 6.95 5.35 6.9 5.3 6.95 5.2 6.95 5.0 6.95 4.9 7.1 4.9 7.1 4.95 M6.1 7.4 L6.2 7.6 6.1 7.5 6.05 7.5 6.1 7.4" fill="#380202" fill-rule="evenodd" stroke="none"/>
    <path d="M6.8 6.55 L6.7 6.75 6.65 6.75 6.5 6.95 6.45 7.1 6.45 7.2 6.4 7.35 6.3 7.35 6.3 7.55 6.35 8.4 6.2 8.1 6.15 8.1 6.15 8.05 6.2 7.9 6.1 7.7 6.0 7.65 6.0 7.5 6.05 7.4 6.05 7.3 6.1 7.35 6.15 7.15 6.15 7.0 6.05 6.9 6.05 7.15 5.95 7.15 5.85 7.05 5.9 7.0 5.8 6.9 5.75 6.85 5.8 6.8 5.85 6.85 5.95 6.85 6.05 6.85 6.1 6.85 6.1 6.75 6.2 6.5 6.25 6.35 6.2 6.3 6.25 6.2 6.25 6.1 6.25 5.95 6.25 5.8 6.2 5.8 6.1 5.75 6.15 5.7 6.05 5.7 5.85 5.6 5.75 5.6 5.65 5.5 5.7 5.45 5.65 5.4 5.7 5.35 5.8 5.2 6.0 5.05 6.1 5.0 6.15 4.9 6.2 4.85 6.35 4.8 6.65 4.8 6.7 4.7 6.8 4.75 6.9 4.8 6.9 4.75 7.0 4.7 7.1 4.75 7.15 4.8 7.25 4.85 7.45 4.8 7.55 4.95 7.6 5.0 7.75 5.0 7.8 5.2 7.9 5.45 8.05 5.55 8.0 5.6 8.05 5.65 8.05 5.8 8.0 5.8 7.9 5.8 7.85 5.8 7.75 5.85 7.75 5.9 7.7 5.85 7.7 5.8 7.6 5.9 7.6 6.0 7.5 6.1 7.45 6.15 7.4 6.2 7.35 6.25 7.35 6.4 7.4 6.45 7.35 6.6 7.35 6.7 7.4 6.95 7.25 7.3 7.25 7.35 7.25 7.45 7.25 7.5 7.1 7.65 7.1 7.85 7.2 7.7 7.2 7.8 7.05 8.0 7.05 8.05 7.05 8.2 6.95 8.25 6.9 8.4 6.8 8.55 6.85 8.25 7.0 7.85 7.0 7.65 7.05 7.55 7.0 7.45 7.05 7.35 7.05 7.25 7.1 7.1 6.95 7.05 6.95 7.0 6.95 6.9 6.9 6.9 6.75 6.75 6.8 6.6 6.8 6.55 6.8 6.4 6.85 6.35 6.85 6.3 6.95 6.25 6.95 6.1 7.0 6.0 6.85 5.8 6.85 5.5 6.75 5.9 6.9 5.95 6.85 6.1 6.8 6.2 6.85 6.3 6.8 6.35 6.8 6.55 M7.1 4.95 L7.1 4.9 6.95 4.9 6.95 5.0 6.95 5.2 6.9 5.3 6.95 5.35 6.95 5.3 7.05 5.35 7.1 5.25 7.1 5.15 7.05 5.15 7.05 5.1 7.1 4.95 M7.6 6.9 L7.6 7.05 7.6 7.2 7.5 7.15 7.45 7.25 7.45 7.3 7.35 7.45 7.35 7.5 7.3 7.45 7.3 7.35 7.4 7.15 7.4 6.95 7.5 6.85 7.6 6.9 7.55 6.85 7.6 6.75 7.55 6.65 7.6 6.7 7.65 6.6 7.65 6.5 7.8 6.6 7.8 6.7 7.85 6.7 7.75 6.75 7.75 6.8 7.6 6.9 M6.1 7.4 L6.05 7.5 6.1 7.5 6.2 7.6 6.1 7.4" fill="#3f0606" fill-rule="evenodd" stroke="none"/>
    <path d="M10.5 5.1 Q10.6 6.85 10.05 8.9 L6.8 8.55 3.35 8.15 Q2.95 6.2 3.55 4.25 L8.75 4.9 10.5 5.1 M6.8 6.55 L6.8 6.6 6.75 6.75 6.9 6.9 6.95 6.9 6.95 7.0 6.95 7.05 7.1 7.1 7.05 7.25 7.05 7.35 7.0 7.45 7.05 7.55 7.0 7.65 7.0 7.85 6.85 8.25 6.8 8.55 6.9 8.4 6.95 8.25 7.05 8.2 7.05 8.05 7.05 8.0 7.2 7.8 7.2 7.7 7.1 7.85 7.1 7.65 7.25 7.5 7.25 7.45 7.25 7.35 7.25 7.3 7.4 6.95 7.35 6.7 7.35 6.6 7.4 6.45 7.35 6.4 7.35 6.25 7.4 6.2 7.45 6.15 7.5 6.1 7.6 6.0 7.6 5.9 7.7 5.8 7.7 5.85 7.75 5.9 7.75 5.85 7.85 5.8 7.9 5.8 8.0 5.8 8.05 5.8 8.05 5.65 8.0 5.6 8.05 5.55 7.9 5.45 7.8 5.2 7.75 5.0 7.6 5.0 7.55 4.95 7.45 4.8 7.25 4.85 7.15 4.8 7.1 4.75 7.0 4.7 6.9 4.75 6.9 4.8 6.8 4.75 6.7 4.7 6.65 4.8 6.35 4.8 6.2 4.85 6.15 4.9 6.1 5.0 6.0 5.05 5.8 5.2 5.7 5.35 5.65 5.4 5.7 5.45 5.65 5.5 5.75 5.6 5.85 5.6 6.05 5.7 6.15 5.7 6.1 5.75 6.2 5.8 6.25 5.8 6.25 5.95 6.25 6.1 6.25 6.2 6.2 6.3 6.25 6.35 6.2 6.5 6.1 6.75 6.1 6.85 6.05 6.85 5.95 6.85 5.85 6.85 5.8 6.8 5.75 6.85 5.8 6.9 5.9 7.0 5.85 7.05 5.95 7.15 6.05 7.15 6.05 6.9 6.15 7.0 6.15 7.15 6.1 7.35 6.05 7.3 6.05 7.4 6.0 7.5 6.0 7.65 6.1 7.7 6.2 7.9 6.15 8.05 6.15 8.1 6.2 8.1 6.35 8.4 6.3 7.55 6.3 7.35 6.4 7.35 6.45 7.2 6.45 7.1 6.5 6.95 6.65 6.75 6.7 6.75 6.8 6.55 M7.6 6.9 L7.75 6.8 7.75 6.75 7.85 6.7 7.8 6.7 7.8 6.6 7.65 6.5 7.65 6.6 7.6 6.7 7.55 6.65 7.6 6.75 7.55 6.85 7.6 6.9 7.5 6.85 7.4 6.95 7.4 7.15 7.3 7.35 7.3 7.45 7.35 7.5 7.35 7.45 7.45 7.3 7.45 7.25 7.5 7.15 7.6 7.2 7.6 7.05 7.6 6.9" fill="#270505" fill-rule="evenodd" stroke="none"/>
    <path d="M10.55 5.05 L10.5 5.1 Q10.6 6.85 10.05 8.9 L6.8 8.55 3.35 8.15 Q2.95 6.2 3.55 4.25 L8.75 4.9 10.5 5.1" fill="none" stroke="#090000" stroke-linecap="round" stroke-linejoin="round" stroke-width="1.0"/>
    <path d="M10.35 7.4 L11.6 8.55 Q11.35 10.2 10.75 11.45 L1.95 10.75 1.3 8.4 2.1 8.0 2.15 8.1 3.15 9.35 Q4.65 10.65 6.65 9.75 L7.35 9.35 9.65 7.95 10.35 7.4" fill="#2a2a2a" fill-rule="evenodd" stroke="none"/>
    <path d="M9.65 0.35 Q11.0 1.2 11.3 2.35 L11.35 2.65 11.6 4.6 11.4 6.3 10.35 7.4 9.65 7.95 7.35 9.35 6.65 9.75 7.15 8.2 7.75 6.2 7.8 6.2 8.2 5.0 8.1 5.0 8.6 3.5 8.65 3.5 8.85 2.95 8.85 2.65 9.65 0.35 8.85 2.95 9.65 0.35 M2.1 8.0 L2.0 7.85 1.3 6.4 1.4 4.65 Q1.5 3.1 1.95 2.15 2.25 1.45 2.65 1.05 L2.8 1.95 2.75 2.65 2.8 3.15 2.85 3.15 2.9 4.7 2.95 5.95 3.0 5.95 3.1 8.5 3.15 9.35 2.15 8.1 2.1 8.0 M2.9 4.7 L2.8 3.15 2.9 4.7 M2.75 2.65 L2.65 1.05 2.75 2.65 M8.65 3.5 L8.2 5.0 8.65 3.5 M3.1 8.5 L2.95 5.95 3.1 8.5 M7.8 6.2 L7.15 8.2 7.8 6.2" fill="#1c1c1c" fill-rule="evenodd" stroke="none"/>
    <path d="M2.65 1.05 L3.35 0.5 Q4.9 -0.6 6.3 -0.75 7.4 -0.9 8.7 -0.25 L9.3 0.1 9.65 0.35 8.85 2.65 8.85 2.95 8.65 3.5 8.6 3.5 8.1 5.0 8.2 5.0 7.8 6.2 7.75 6.2 7.15 8.2 6.65 9.75 Q4.65 10.65 3.15 9.35 L3.1 8.5 3.0 5.95 2.95 5.95 2.9 4.7 2.85 3.15 2.8 3.15 2.75 2.65 2.8 1.95 2.65 1.05" fill="#2a0f0f" fill-rule="evenodd" stroke="none"/>
    <path d="M2.65 1.05 L3.35 0.5 Q4.9 -0.6 6.3 -0.75 7.4 -0.9 8.7 -0.25 L9.3 0.1 9.65 0.35 Q11.0 1.2 11.3 2.35 L11.35 2.65 11.6 4.6 11.4 6.3 10.35 7.4 11.6 8.55 Q11.35 10.2 10.75 11.45 L1.95 10.75 1.3 8.4 2.1 8.0 2.0 7.85 1.3 6.4 1.4 4.65 Q1.5 3.1 1.95 2.15 2.25 1.45 2.65 1.05 L2.75 2.65 2.8 3.15 2.9 4.7 2.95 5.95 3.1 8.5 3.15 9.35 Q4.65 10.65 6.65 9.75 L7.15 8.2 7.8 6.2 8.2 5.0 8.65 3.5 8.85 2.95 9.65 0.35 M3.15 9.35 L2.15 8.1 2.1 8.0 M10.35 7.4 L9.65 7.95 7.35 9.35 6.65 9.75" fill="none" stroke="#070606" stroke-linecap="round" stroke-linejoin="round" stroke-width="1.0"/>
    <path d="M7.35 4.15 L7.2 5.1 5.5 4.25 3.55 5.05 3.75 4.05 Q4.75 3.65 5.7 3.2 L7.35 4.15 M7.35 3.9 L5.7 3.0 3.75 3.8 3.95 2.75 5.95 1.9 7.6 2.9 7.35 3.9" fill="#431c1c" fill-rule="evenodd" stroke="none"/>
  </g>
</svg>
