<?xml version="1.0" encoding="UTF-8" standalone="no"?>
<svg xmlns:xlink="http://www.w3.org/1999/xlink" height="8.5px" width="14.35px" xmlns="http://www.w3.org/2000/svg">
  <g transform="matrix(1.0, 0.0, 0.0, 1.0, 5.4, 2.1)">
    <path d="M-4.45 0.75 Q-3.75 -1.1 -2.05 -1.55 -0.25 -2.0 -0.3 -0.2 L3.15 3.1 3.3 3.75 3.25 5.7 1.35 5.5 1.35 3.55 -4.35 1.45 -4.45 0.75" fill="#130f0f" fill-rule="evenodd" stroke="none"/>
    <path d="M3.1 5.85 L3.15 3.45 -0.85 -0.5 1.7 -1.85 8.65 3.45 8.7 5.75 3.1 5.85" fill="#1a1010" fill-rule="evenodd" stroke="none"/>
    <path d="M-3.5 1.25 L1.25 3.7 1.25 5.8 -4.9 5.65 -5.1 3.6 -3.5 1.25" fill="#341f1f" fill-rule="evenodd" stroke="none"/>
    <path d="M-4.45 1.45 L1.35 3.6 1.35 5.7 M3.35 5.55 L3.35 3.45 -0.9 -0.45 M3.35 3.45 L5.45 2.05 7.2 2.1" fill="none" stroke="#0f0a0a" stroke-linecap="round" stroke-linejoin="round" stroke-width="1.0"/>
    <path d="M-4.25 0.95 L-4.5 2.85 -4.9 3.7 -4.8 5.6 1.15 5.75 1.55 5.4 2.8 5.4 3.4 5.75 8.45 5.9 8.45 3.55 7.0 1.85 5.15 0.3 1.8 -1.6 0.1 -1.05 -1.85 -1.5 Q-2.5 -1.5 -3.05 -1.1 L-3.9 -0.45 -4.25 0.95 Z" fill="none" stroke="#0a0707" stroke-linecap="round" stroke-linejoin="round" stroke-width="1.0"/>
  </g>
</svg>
