<?xml version="1.0" encoding="UTF-8" standalone="no"?>
<svg xmlns:ffdec="https://www.free-decompiler.com/flash" xmlns:xlink="http://www.w3.org/1999/xlink" ffdec:objectType="shape" height="18.8px" width="13.15px" xmlns="http://www.w3.org/2000/svg">
  <g transform="matrix(1.0, 0.0, 0.0, 1.0, 2.15, -0.9)">
    <path d="M0.8 16.55 Q4.75 17.95 8.65 16.6 L8.65 18.3 Q4.9 20.15 0.8 18.3 L0.8 16.55" fill="#171717" fill-rule="evenodd" stroke="none"/>
    <path d="M0.8 8.65 L3.25 8.65 3.25 14.0 0.8 15.4 -0.4 16.05 -0.65 8.65 0.8 8.65" fill="#350303" fill-rule="evenodd" stroke="none"/>
    <path d="M0.8 15.4 L3.25 14.0 3.25 8.65 0.8 8.65 0.8 5.4 8.65 5.4 8.65 16.6 Q4.75 17.95 0.8 16.55 L0.8 15.4" fill="url(#gradient0)" fill-rule="evenodd" stroke="none"/>
    <path d="M0.8 15.4 L3.25 14.0 3.25 8.65 0.8 8.65 -0.65 8.65 -0.4 16.05 0.8 15.4 0.8 16.55 Q4.75 17.95 8.65 16.6 L8.65 5.4 0.8 5.4 0.8 8.65 M8.65 16.6 L8.65 18.3 Q4.9 20.15 0.8 18.3 L0.8 16.55" fill="none" stroke="#090909" stroke-linecap="round" stroke-linejoin="round" stroke-width="1.0"/>
    <path d="M-0.4 4.3 L1.05 1.4 7.9 1.4 9.4 4.3 10.5 4.3 10.5 10.7 Q4.7 12.7 -1.65 10.7 L-1.65 4.3 -0.4 4.3 9.4 4.3 -0.4 4.3" fill="#171717" fill-rule="evenodd" stroke="none"/>
    <path d="M-0.4 4.3 L1.05 1.4 7.9 1.4 9.4 4.3 10.5 4.3 10.5 10.7 Q4.7 12.7 -1.65 10.7 L-1.65 4.3 -0.4 4.3 9.4 4.3" fill="none" stroke="#090909" stroke-linecap="round" stroke-linejoin="round" stroke-width="1.0"/>
  </g>
  <defs>
    <radialGradient cx="0" cy="0" gradientTransform="matrix(0.0087, 0.0, 0.0, 0.0087, 4.75, 11.35)" gradientUnits="userSpaceOnUse" id="gradient0" r="819.2" spreadMethod="pad">
      <stop offset="0.0" stop-color="#272727"/>
      <stop offset="1.0" stop-color="#121212"/>
      <stop offset="1.0" stop-color="#272727" stop-opacity="0.8"/>
      <stop offset="1.0" stop-color="#ff5151"/>
    </radialGradient>
  </defs>
</svg>
