<?xml version="1.0" encoding="UTF-8" standalone="no"?>
<svg xmlns:ffdec="https://www.free-decompiler.com/flash" xmlns:xlink="http://www.w3.org/1999/xlink" ffdec:objectType="shape" height="11.0px" width="20.9px" xmlns="http://www.w3.org/2000/svg">
  <g transform="matrix(1.0, 0.0, 0.0, 1.0, 6.95, 4.1)">
    <path d="M-3.4 0.35 Q2.0 -6.6 3.5 -1.35 3.95 1.2 5.75 1.1 L5.5 1.6 Q5.25 2.2 3.95 2.55 L5.1 3.9 Q6.35 4.55 8.55 4.65 L8.6 4.8 1.4 4.75 Q-1.25 4.35 -3.7 2.6 L-4.8 2.6 -3.4 0.35" fill="#505050" fill-rule="evenodd" stroke="none"/>
    <path d="M-3.4 0.35 Q2.0 -6.6 3.5 -1.35" fill="none" stroke="#242424" stroke-linecap="round" stroke-linejoin="round" stroke-width="1.0"/>
    <path d="M3.5 -1.35 Q3.95 1.2 5.75 1.1 M-4.8 2.6 L-3.4 0.35" fill="none" stroke="#333333" stroke-linecap="round" stroke-linejoin="round" stroke-width="1.0"/>
    <path d="M13.15 6.1 L12.6 6.4 -4.9 6.4 Q-5.8 6.15 -6.45 4.75 -6.15 3.45 -5.4 2.8 L-4.8 2.6 -3.7 2.6 Q-1.25 4.35 1.4 4.75 L8.6 4.8 Q10.9 6.2 13.15 6.1" fill="#2c2c2c" fill-rule="evenodd" stroke="none"/>
    <path d="M13.15 6.1 L12.6 6.4 -4.9 6.4 Q-5.8 6.15 -6.45 4.75 -6.15 3.45 -5.4 2.8 L-4.8 2.6 -3.7 2.6 Q-1.25 4.35 1.4 4.75 L8.6 4.8" fill="none" stroke="#161616" stroke-linecap="round" stroke-linejoin="round" stroke-width="1.0"/>
    <path d="M13.15 6.1 L8.75 5.95 8.6 4.8 8.55 4.65 Q6.35 4.55 5.1 3.9 L3.95 2.55 Q5.25 2.2 5.5 1.6 L5.75 1.1 Q6.25 0.25 6.8 0.45 8.25 0.95 10.4 2.05 13.05 3.3 13.3 3.95 13.6 5.8 13.3 6.1 L13.15 6.1" fill="#dcdcdc" fill-rule="evenodd" stroke="none"/>
    <path d="M13.15 6.1 L8.75 5.95 8.6 4.8 8.55 4.65 Q6.35 4.55 5.1 3.9 L3.95 2.55 Q5.25 2.2 5.5 1.6 L5.75 1.1 Q6.25 0.25 6.8 0.45 8.25 0.95 10.4 2.05 13.05 3.3 13.3 3.95 13.6 5.8 13.3 6.1 L13.15 6.1 Z" fill="none" stroke="#757575" stroke-linecap="round" stroke-linejoin="round" stroke-width="1.0"/>
  </g>
</svg>
