<?xml version="1.0" encoding="UTF-8" standalone="no"?>
<svg xmlns:ffdec="https://www.free-decompiler.com/flash" xmlns:xlink="http://www.w3.org/1999/xlink" ffdec:objectType="shape" height="21.65px" width="13.3px" xmlns="http://www.w3.org/2000/svg">
  <g transform="matrix(1.0, 0.0, 0.0, 1.0, -0.6, 1.9)">
    <path d="M3.45 8.75 L3.55 4.1 Q3.4 3.15 3.8 2.45 4.5 0.9 6.3 0.6 L9.25 0.8 Q10.75 1.6 10.5 3.6 L10.5 4.1 6.95 11.7 5.1 12.8 5.0 12.85 2.65 14.15 Q2.5 12.95 3.1 11.75 L2.75 11.5 1.7 10.9 Q1.3 10.1 1.5 9.8 L1.8 9.25 2.3 8.9 2.6 8.75 3.45 8.75 4.25 8.8 4.65 8.85 6.1 9.75 4.65 8.85 4.25 8.8 3.45 8.75 M3.9 17.6 L8.2 15.2 10.6 10.8 10.6 10.95 Q10.8 12.15 10.5 12.7 10.55 13.25 10.0 14.05 L9.3 15.3 9.15 16.5 Q8.95 17.45 7.55 18.4 6.35 19.1 5.95 19.2 4.7 19.4 4.15 18.35 L3.9 17.6 M8.7 4.4 L8.4 3.95 7.3 3.25 6.2 2.8 7.3 3.25 8.4 3.95 8.7 4.4 M9.1 3.6 L7.95 2.25 9.1 3.6 M5.0 12.85 L3.1 11.75 5.0 12.85" fill="#9c9c9c" fill-rule="evenodd" stroke="none"/>
    <path d="M10.5 4.1 L10.45 7.2 Q10.35 9.45 10.6 10.8 L8.2 15.2 3.9 17.6 3.75 17.25 3.5 16.05 2.7 14.3 2.65 14.15 5.0 12.85 5.1 12.8 6.95 11.7 10.5 4.1" fill="#2e2e2e" fill-rule="evenodd" stroke="none"/>
    <path d="M10.5 4.1 L10.5 3.6 Q10.75 1.6 9.25 0.8 L6.3 0.6 Q4.5 0.9 3.8 2.45 3.4 3.15 3.55 4.1 L3.45 8.75 4.25 8.8 4.65 8.85 6.1 9.75 M10.6 10.8 Q10.35 9.45 10.45 7.2 L10.5 4.1 M5.1 12.8 L5.0 12.85 3.1 11.75 Q2.5 12.95 2.65 14.15 L2.7 14.3 3.5 16.05 3.75 17.25 3.9 17.6 4.15 18.35 Q4.7 19.4 5.95 19.2 6.35 19.1 7.55 18.4 8.95 17.45 9.15 16.5 L9.3 15.3 10.0 14.05 Q10.55 13.25 10.5 12.7 10.8 12.15 10.6 10.95 L10.6 10.8 M3.45 8.75 L2.6 8.75 2.3 8.9 1.8 9.25 1.5 9.8 Q1.3 10.1 1.7 10.9 L2.75 11.5 3.1 11.75" fill="none" stroke="#1e1e1e" stroke-linecap="round" stroke-linejoin="round" stroke-width="1.0"/>
    <path d="M7.95 2.25 L9.1 3.6 M6.2 2.8 L7.3 3.25 8.4 3.95 8.7 4.4" fill="none" stroke="#232323" stroke-linecap="round" stroke-linejoin="round" stroke-width="0.8"/>
    <path d="M2.4 2.2 L4.05 -0.6 5.65 -0.95 6.0 -1.0 6.05 -1.0 7.1 -1.05 8.7 -0.9 Q9.85 -0.7 10.9 -0.15 L12.2 2.85 13.05 3.15 Q13.3 6.45 11.95 9.25 7.0 10.9 1.5 8.4 0.7 5.25 1.55 2.3 L2.4 2.2 12.2 2.85 2.4 2.2" fill="#252525" fill-rule="evenodd" stroke="none"/>
    <path d="M2.4 2.2 L4.05 -0.6 5.65 -0.95 6.0 -1.0 6.05 -1.0 7.1 -1.05 8.7 -0.9 Q9.85 -0.7 10.9 -0.15 L12.2 2.85 13.05 3.15 Q13.3 6.45 11.95 9.25 7.0 10.9 1.5 8.4 0.7 5.25 1.55 2.3 L2.4 2.2 12.2 2.85" fill="none" stroke="#090909" stroke-linecap="round" stroke-linejoin="round" stroke-width="1.0"/>
    <path d="M10.35 6.35 L13.4 6.6 M4.8 -1.3 L4.3 4.95 M6.1 -1.4 L5.65 4.4" fill="none" stroke="#3a0404" stroke-linecap="round" stroke-linejoin="round" stroke-width="1.0"/>
  </g>
</svg>
