<?xml version="1.0" encoding="UTF-8" standalone="no"?>
<svg xmlns:xlink="http://www.w3.org/1999/xlink" height="8.35px" width="15.15px" xmlns="http://www.w3.org/2000/svg">
  <g transform="matrix(1.0, 0.0, 0.0, 1.0, 5.95, 1.95)">
    <path d="M3.6 1.8 L4.95 2.2 Q5.3 2.3 5.6 2.55 L6.15 2.85 6.45 3.2 6.6 3.65 6.7 4.2 6.3 5.5 -4.4 5.6 -4.85 4.35 -4.95 3.6 -5.0 2.15 -4.9 1.4 -4.5 -0.15 Q-4.1 -0.45 -3.8 -0.7 L-3.1 -1.15 -2.4 -1.25 -1.85 -1.25 -1.2 -1.15 -0.05 -0.6 0.55 -0.2 0.9 0.2 2.05 1.15 3.6 1.8" fill="#302c2b" fill-rule="evenodd" stroke="none"/>
    <path d="M3.6 1.8 L2.05 1.15 0.9 0.2 0.55 -0.2 -0.05 -0.6 -1.2 -1.15 -1.85 -1.25 -2.4 -1.25 -3.1 -1.15 -3.8 -0.7 Q-4.1 -0.45 -4.5 -0.15 L-4.9 1.4 -5.0 2.15 -4.95 3.6 -4.85 4.35 -4.4 5.6 6.3 5.5 6.7 4.2 6.6 3.65 6.45 3.2 6.15 2.85 5.6 2.55 Q5.3 2.3 4.95 2.2 L3.6 1.8 Z" fill="none" stroke="#0b0a09" stroke-linecap="round" stroke-linejoin="round" stroke-width="1.0"/>
    <path d="M3.3 5.85 L3.25 3.5 5.4 2.1 7.5 2.05 8.7 3.6 8.7 5.8 3.3 5.85 M-1.85 2.45 L1.25 3.8 1.25 5.85 -5.2 5.9 -5.45 3.95 -5.15 3.4 -4.8 3.1 -3.9 2.65 -3.45 2.55 -2.9 2.5 -1.85 2.45" fill="#572b20" fill-rule="evenodd" stroke="none"/>
    <path d="M3.3 5.85 L3.25 3.5 5.4 2.1 7.5 2.05 8.7 3.6 8.7 5.8 3.3 5.85 M-1.85 2.45 L1.25 3.8 1.25 5.85 -5.2 5.9 -5.45 3.95 -5.15 3.4 -4.8 3.1 -3.9 2.65 -3.45 2.55 -2.9 2.5 -1.85 2.45 Z" fill="none" stroke="#140e0a" stroke-linecap="round" stroke-linejoin="round" stroke-width="1.0"/>
    <path d="M3.3 -0.65 L7.5 2.05 5.4 2.1 3.25 3.5 -1.25 -0.2 1.45 -1.45 2.05 -1.25 3.3 -0.65" fill="#39211c" fill-rule="evenodd" stroke="none"/>
    <path d="M3.3 -0.65 L7.5 2.05 5.4 2.1 3.25 3.5 -1.25 -0.2 1.45 -1.45 2.05 -1.25 3.3 -0.65 Z" fill="none" stroke="#140e0a" stroke-linecap="round" stroke-linejoin="round" stroke-width="1.0"/>
  </g>
</svg>
