<?xml version="1.0" encoding="UTF-8" standalone="no"?>
<svg xmlns:ffdec="https://www.free-decompiler.com/flash" xmlns:xlink="http://www.w3.org/1999/xlink" ffdec:objectType="shape" height="15.55px" width="9.85px" xmlns="http://www.w3.org/2000/svg">
  <g transform="matrix(1.0, 0.0, 0.0, 1.0, -11.35, 0.0)">
    <path d="M14.05 11.8 L14.35 12.1 14.45 12.4 14.45 12.25 14.35 11.8 14.35 11.55 13.95 11.4 13.95 11.7 14.05 11.8 M13.45 8.8 L13.65 9.0 13.65 9.15 13.75 10.0 13.75 10.5 13.65 10.25 13.25 10.25 12.95 10.0 12.8 9.85 12.65 9.4 12.35 9.15 12.35 8.8 12.65 8.8 13.05 8.8 13.45 8.8 M20.5 7.1 L20.5 7.3 Q20.35 7.4 20.5 7.55 L20.65 7.7 20.35 8.1 20.15 8.3 19.9 8.5 19.75 8.4 19.65 8.4 19.65 8.1 19.65 7.7 Q19.75 7.55 19.9 7.55 L19.9 7.3 19.9 6.85 Q20.35 6.85 20.5 7.1 M16.35 2.7 L16.45 2.4 16.75 2.4 16.85 2.3 17.05 2.1 17.05 1.7 16.85 1.7 16.75 1.6 16.85 0.8 16.85 0.7 16.35 0.7 16.15 0.55 16.15 1.0 16.35 1.9 16.15 2.3 Q16.35 2.3 16.35 2.7 L16.15 3.25 Q15.95 4.1 16.05 4.7 L16.35 5.0 16.45 5.5 16.45 5.95 16.35 6.4 16.15 6.6 16.15 7.4 16.15 8.4 15.95 8.5 Q15.45 8.8 15.35 9.4 L15.35 10.0 15.2 10.25 15.2 10.7 14.75 10.9 14.75 11.4 14.85 11.7 Q15.45 13.9 15.35 15.25 14.75 14.7 14.75 14.25 L14.6 13.9 14.45 13.8 14.45 13.4 14.6 13.2 14.05 12.4 13.75 12.25 13.75 11.8 13.65 11.7 13.65 11.55 13.65 11.1 Q13.65 10.8 13.75 10.8 L13.95 11.1 14.05 10.25 13.95 9.85 13.75 9.4 13.75 8.4 13.95 7.4 13.95 6.7 13.95 6.6 14.05 6.4 14.05 5.95 14.05 5.25 13.95 4.7 Q13.75 4.4 13.75 4.7 L13.65 4.7 13.25 4.4 13.25 4.1 Q12.95 4.1 12.95 4.3 L12.15 4.0 11.75 3.9 Q11.45 3.9 11.35 3.5 L11.35 3.4 11.35 3.1 11.45 3.0 Q11.45 2.7 11.75 2.4 11.75 2.1 12.35 1.7 L12.8 1.4 13.05 1.0 13.25 0.8 13.65 0.7 13.95 0.7 14.85 0.1 15.2 0.0 15.45 0.1 15.95 0.3 16.05 0.0 16.35 0.0 16.75 0.0 17.05 0.1 17.35 0.3 Q17.55 0.1 18.05 0.3 L18.75 0.55 19.05 0.7 19.65 0.8 19.9 1.4 20.35 2.5 Q20.65 2.4 20.9 2.7 L20.9 3.0 21.2 3.25 21.2 3.4 21.05 3.9 20.9 3.9 Q20.65 3.5 20.5 3.9 L20.35 4.0 19.9 4.0 19.75 4.1 19.65 4.3 19.65 4.0 19.35 4.3 19.45 4.4 19.35 4.8 Q19.05 4.8 19.05 5.0 L18.9 5.0 18.9 5.1 18.75 5.5 18.65 5.7 18.5 5.95 18.65 6.6 18.65 6.7 18.65 7.4 18.75 8.1 19.05 8.8 19.05 9.0 19.45 8.5 19.75 8.5 19.9 8.8 19.9 9.15 19.75 9.7 19.45 9.85 19.45 10.1 19.35 10.25 Q19.05 10.5 19.05 10.7 L18.9 10.8 18.9 10.9 18.75 10.9 18.75 10.5 18.9 9.85 19.05 9.4 19.05 9.1 18.5 10.25 18.65 10.5 18.65 10.9 18.65 11.1 18.2 11.7 18.05 11.8 18.05 12.4 18.2 12.4 18.65 12.1 18.65 12.4 Q18.5 12.4 18.5 12.5 18.2 12.7 18.2 13.1 L18.2 13.4 18.05 14.25 17.8 14.4 17.55 14.95 17.35 15.55 Q17.15 14.95 17.35 14.25 L17.8 12.7 Q17.55 12.25 17.55 11.8 L17.8 11.4 17.8 10.9 17.55 10.5 Q17.35 10.25 17.55 10.1 L17.55 9.85 17.55 9.7 17.15 9.4 17.35 9.3 17.35 9.15 17.05 8.8 17.05 9.0 16.75 8.8 16.45 8.4 16.45 7.55 16.35 6.85 16.45 6.6 16.45 6.4 16.75 6.1 16.85 5.5 16.85 5.0 16.45 4.4 Q16.1 3.55 16.35 2.7" fill="#ffa3a3" fill-opacity="0.7490196" fill-rule="evenodd" stroke="none"/>
  </g>
</svg>
