<?xml version="1.0" encoding="UTF-8" standalone="no"?>
<svg xmlns:xlink="http://www.w3.org/1999/xlink" height="7.95px" width="20.65px" xmlns="http://www.w3.org/2000/svg">
  <g transform="matrix(1.0, 0.0, 0.0, 1.0, 2.6, 4.8)">
    <path d="M15.2 -4.3 L16.4 -4.3 Q16.85 -4.2 17.15 -3.4 L17.55 -0.85 17.55 1.15 16.65 2.65 -1.25 2.65 Q-1.9 2.65 -2.1 2.2 L-2.1 -0.75 Q-1.7 -1.85 -0.35 -1.85 L4.75 -1.9 5.6 -3.2 7.7 -3.2 9.8 -4.3 10.2 -4.3 10.2 -2.55 12.05 -2.55 15.2 -2.55 15.2 -4.3 M4.75 -1.9 L4.8 -1.9 6.4 -0.85 17.55 -0.85 6.4 -0.85 4.8 -1.9 4.75 -1.9" fill="#4c4c4c" fill-rule="evenodd" stroke="none"/>
    <path d="M10.2 -4.3 L12.05 -4.3 12.05 -2.55 10.2 -2.55 10.2 -4.3" fill="#272727" fill-rule="evenodd" stroke="none"/>
    <path d="M12.05 -4.3 L15.2 -4.3 15.2 -2.55 12.05 -2.55 12.05 -4.3" fill="#505050" fill-rule="evenodd" stroke="none"/>
    <path d="M15.2 -4.3 L16.4 -4.3 Q16.85 -4.2 17.15 -3.4 L17.55 -0.85 17.55 1.15 16.65 2.65 -1.25 2.65 Q-1.9 2.65 -2.1 2.2 L-2.1 -0.75 Q-1.7 -1.85 -0.35 -1.85 L4.75 -1.9 5.6 -3.2 7.7 -3.2 9.8 -4.3 10.2 -4.3 12.05 -4.3 15.2 -4.3 15.2 -2.55 12.05 -2.55 10.2 -2.55 10.2 -4.3 M17.55 -0.85 L6.4 -0.85 4.8 -1.9 4.75 -1.9 M12.05 -2.55 L12.05 -4.3" fill="none" stroke="#272727" stroke-linecap="round" stroke-linejoin="round" stroke-width="1.0"/>
  </g>
</svg>
