<?xml version="1.0" encoding="UTF-8" standalone="no"?>
<svg xmlns:ffdec="https://www.free-decompiler.com/flash" xmlns:xlink="http://www.w3.org/1999/xlink" ffdec:objectType="shape" height="15.55px" width="9.9px" xmlns="http://www.w3.org/2000/svg">
  <g transform="matrix(1.0, 0.0, 0.0, 1.0, -10.85, 0.0)">
    <path d="M14.55 11.55 L14.15 11.4 14.15 11.7 14.25 11.8 14.55 12.1 14.65 12.4 14.65 12.25 14.55 11.8 14.55 11.55 M13.65 8.8 L13.85 9.0 13.85 9.15 13.95 10.0 13.95 10.5 13.85 10.25 13.45 10.25 13.15 10.0 13.0 9.85 12.85 9.4 12.55 9.15 12.55 8.8 12.85 8.8 13.25 8.8 13.65 8.8 M15.85 2.7 L15.65 3.25 Q15.45 4.1 15.55 4.7 L15.85 5.0 15.95 5.5 15.95 5.95 15.85 6.4 15.65 6.6 15.65 7.1 15.65 7.4 15.65 7.85 15.85 7.85 15.85 7.9 16.15 7.9 16.15 7.85 15.95 7.85 15.95 7.55 15.9 7.1 15.85 6.85 15.95 6.6 15.95 6.4 16.25 6.1 16.35 5.5 16.35 5.0 15.95 4.4 Q15.6 3.55 15.85 2.7 L15.95 2.4 16.25 2.4 16.35 2.3 16.55 2.1 16.55 1.7 16.35 1.7 16.25 1.6 16.35 0.8 16.35 0.7 15.85 0.7 15.65 0.55 15.65 1.0 15.85 1.9 15.65 2.3 Q15.85 2.3 15.85 2.7 M20.3 7.85 L20.25 7.9 20.75 7.9 20.55 8.1 20.55 8.15 20.35 8.3 20.1 8.5 19.95 8.4 19.85 8.4 19.85 8.15 19.85 7.9 19.35 7.9 19.35 7.85 19.15 7.85 19.15 7.7 19.4 7.55 19.4 7.3 19.4 6.85 Q19.85 6.85 20.0 7.1 L20.0 7.3 Q19.85 7.4 20.0 7.55 L20.15 7.7 20.1 7.85 20.3 7.85 M20.4 2.7 L20.4 3.0 20.7 3.25 20.7 3.4 20.55 3.9 20.4 3.9 Q20.15 3.5 20.0 3.9 L19.85 4.0 19.4 4.0 19.25 4.1 19.15 4.3 19.15 4.0 18.85 4.3 18.95 4.4 18.85 4.8 Q18.55 4.8 18.55 5.0 L18.4 5.0 18.4 5.1 18.25 5.5 18.15 5.7 18.0 5.95 18.15 6.6 18.15 6.7 18.15 7.1 18.15 7.4 18.2 7.85 18.4 7.85 18.4 7.9 18.9 7.9 18.95 8.1 19.0 8.15 19.25 8.8 19.25 9.0 19.65 8.5 19.95 8.5 20.1 8.8 20.1 9.15 19.95 9.7 19.65 9.85 19.65 10.1 19.55 10.25 19.25 10.7 19.1 10.8 19.1 10.9 18.95 10.9 18.95 10.5 19.1 9.85 19.25 9.4 19.25 9.1 18.7 10.25 18.85 10.5 18.85 10.9 18.85 11.1 18.4 11.7 18.25 11.8 18.25 12.4 18.4 12.4 18.85 12.1 18.85 12.4 Q18.7 12.4 18.7 12.5 18.4 12.7 18.4 13.1 L18.4 13.4 18.25 14.25 18.0 14.4 17.75 14.95 17.55 15.55 Q17.35 14.95 17.55 14.25 L18.0 12.7 17.75 11.8 18.0 11.4 18.0 10.9 17.75 10.5 Q17.55 10.25 17.75 10.1 L17.75 9.85 17.75 9.7 17.35 9.4 17.55 9.3 17.55 9.15 17.25 8.8 17.25 9.0 16.95 8.8 16.65 8.4 16.65 8.15 16.65 7.9 16.35 7.9 16.35 8.15 16.35 8.4 16.15 8.5 Q15.65 8.8 15.55 9.4 L15.55 10.0 15.4 10.25 15.4 10.7 14.95 10.9 14.95 11.4 15.05 11.7 Q15.65 13.9 15.55 15.25 14.95 14.7 14.95 14.25 L14.8 13.9 Q14.8 13.8 14.65 13.8 L14.65 13.4 14.8 13.2 14.25 12.4 13.95 12.25 13.95 11.8 13.85 11.7 13.85 11.55 13.85 11.1 13.95 10.8 14.15 11.1 14.25 10.25 14.15 9.85 13.95 9.4 13.95 8.4 14.0 8.15 14.1 7.9 13.6 7.9 13.6 7.85 13.4 7.85 13.45 7.4 13.45 7.1 13.45 6.7 13.45 6.6 13.55 6.4 13.55 5.95 13.55 5.25 13.45 4.7 Q13.25 4.4 13.25 4.7 L13.15 4.7 Q12.95 4.8 12.75 4.4 L12.75 4.1 Q12.45 4.1 12.45 4.3 12.15 4.1 11.65 4.0 L11.25 3.9 Q10.95 3.9 10.85 3.5 L10.85 3.4 10.85 3.1 10.95 3.0 Q10.95 2.7 11.25 2.4 11.25 2.1 11.85 1.7 L12.3 1.4 12.55 1.0 12.75 0.8 13.15 0.7 13.45 0.7 14.35 0.1 14.7 0.0 14.95 0.1 15.45 0.3 15.55 0.0 15.85 0.0 16.25 0.0 16.55 0.1 16.85 0.3 Q17.05 0.1 17.55 0.3 L18.25 0.55 18.55 0.7 19.15 0.8 19.4 1.4 19.85 2.5 Q20.15 2.4 20.4 2.7" fill="#ffa3a3" fill-opacity="0.7490196" fill-rule="evenodd" stroke="none"/>
  </g>
</svg>
