<?xml version="1.0" encoding="UTF-8" standalone="no"?>
<svg xmlns:xlink="http://www.w3.org/1999/xlink" height="21.0px" width="12.5px" xmlns="http://www.w3.org/2000/svg">
  <g transform="matrix(1.0, 0.0, 0.0, 1.0, 7.05, 4.35)">
    <path d="M1.45 14.85 Q-0.1 16.15 -1.6 16.15 -3.0 16.15 -4.35 15.0 -1.85 12.6 1.45 14.85 M-4.15 6.4 Q-5.7 3.85 -4.25 0.5 L-3.4 0.65 -1.05 1.0 Q-1.35 5.4 -4.15 6.4" fill="#1d1616" fill-rule="evenodd" stroke="none"/>
    <path d="M3.65 5.95 L3.35 7.25 1.45 14.85 Q-1.85 12.6 -4.35 15.0 -6.25 11.4 -6.5 9.25 -6.75 7.0 -5.4 6.7 L-4.15 6.4 Q-1.35 5.4 -1.05 1.0 -1.1 -0.2 -0.2 -2.4 0.65 -3.55 1.45 -3.75 2.2 -3.95 3.5 -3.75 4.55 -3.6 4.85 -1.85 L1.6 -1.7 1.35 2.05 3.65 5.95 M-4.35 11.25 L-4.8 8.7 -4.35 11.25" fill="url(#gradient0)" fill-rule="evenodd" stroke="none"/>
    <path d="M4.85 -1.85 L4.95 -1.1 Q5.1 1.3 3.75 5.7 L3.65 5.95 1.35 2.05 1.6 -1.7 4.85 -1.85" fill="#917777" fill-rule="evenodd" stroke="none"/>
    <path d="M-4.25 0.5 Q-5.45 0.15 -4.25 -0.1 L-2.85 -0.3 Q-1.25 -0.5 -0.2 -2.4 -1.1 -0.2 -1.05 1.0 L-3.4 0.65 -4.25 0.5" fill="#3a2323" fill-rule="evenodd" stroke="none"/>
    <path d="M4.85 -1.85 L4.95 -1.1 Q5.1 1.3 3.75 5.7 L3.65 5.95 3.35 7.25 1.45 14.85 Q-0.1 16.15 -1.6 16.15 -3.0 16.15 -4.35 15.0 -6.25 11.4 -6.5 9.25 -6.75 7.0 -5.4 6.7 L-4.15 6.4 Q-5.7 3.85 -4.25 0.5 -5.45 0.15 -4.25 -0.1 L-2.85 -0.3 Q-1.25 -0.5 -0.2 -2.4 0.65 -3.55 1.45 -3.75 2.2 -3.95 3.5 -3.75 4.55 -3.6 4.85 -1.85 M-1.05 1.0 Q-1.1 -0.2 -0.2 -2.4" fill="none" stroke="#0a0707" stroke-linecap="round" stroke-linejoin="round" stroke-width="1.0"/>
    <path d="M4.85 -1.85 L1.6 -1.7 1.35 2.05 3.65 5.95 M-1.05 1.0 Q-1.35 5.4 -4.15 6.4 M-4.25 0.5 L-3.4 0.65 -1.05 1.0 M-4.8 8.7 L-4.35 11.25 M-4.35 15.0 Q-1.85 12.6 1.45 14.85" fill="none" stroke="#140e0e" stroke-linecap="round" stroke-linejoin="round" stroke-width="1.0"/>
  </g>
  <defs>
    <radialGradient cx="0" cy="0" gradientTransform="matrix(0.0358, 0.0, 0.0, 0.0334, -18.7, 13.35)" gradientUnits="userSpaceOnUse" id="gradient0" r="819.2" spreadMethod="pad">
      <stop offset="0.0" stop-color="#381d1d"/>
      <stop offset="0.6588235294117647" stop-color="#3e2828"/>
      <stop offset="1.0" stop-color="#774d4d"/>
    </radialGradient>
  </defs>
</svg>
