<?xml version="1.0" encoding="UTF-8" standalone="no"?>
<svg xmlns:ffdec="https://www.free-decompiler.com/flash" xmlns:xlink="http://www.w3.org/1999/xlink" ffdec:objectType="shape" height="15.55px" width="11.55px" xmlns="http://www.w3.org/2000/svg">
  <g transform="matrix(1.0, 0.0, 0.0, 1.0, -9.3, 0.0)">
    <path d="M15.15 11.55 L14.75 11.4 14.75 11.7 14.85 11.8 15.15 12.1 15.25 12.4 15.25 12.25 15.15 11.8 15.15 11.55 M13.15 9.15 L13.15 8.8 13.45 8.8 13.85 8.8 14.25 8.8 14.45 9.0 14.45 9.15 14.55 10.0 14.55 10.5 14.45 10.25 14.05 10.25 13.75 10.0 13.6 9.85 13.45 9.4 13.15 9.15 M14.3 2.7 L14.1 3.25 Q13.9 4.1 14.0 4.7 L14.3 5.0 14.4 5.5 14.4 5.95 14.35 6.15 14.65 6.15 14.7 6.1 14.8 5.5 14.8 5.0 14.4 4.4 Q14.05 3.55 14.3 2.7 L14.4 2.4 14.7 2.4 14.8 2.3 15.0 2.1 15.0 1.7 14.8 1.7 14.7 1.6 14.8 0.8 14.8 0.7 14.3 0.7 Q14.1 0.7 14.1 0.55 L14.1 1.0 14.3 1.9 14.1 2.3 14.3 2.7 M20.25 8.5 L20.55 8.5 20.7 8.8 20.7 9.15 20.55 9.7 20.25 9.85 20.25 10.1 20.15 10.25 19.85 10.7 19.7 10.8 19.7 10.9 19.55 10.9 19.55 10.5 19.7 9.85 19.85 9.4 19.85 9.1 19.3 10.25 19.45 10.5 19.45 10.9 19.45 11.1 19.0 11.7 18.85 11.8 18.85 12.4 19.0 12.4 19.45 12.1 19.45 12.4 Q19.3 12.4 19.3 12.5 19.0 12.7 19.0 13.1 L19.0 13.4 18.85 14.25 18.6 14.4 18.35 14.95 18.15 15.55 Q17.95 14.95 18.15 14.25 L18.5 13.3 18.6 12.7 18.35 11.8 18.6 11.4 18.6 10.9 18.35 10.5 Q18.15 10.25 18.35 10.1 L18.35 9.85 18.35 9.7 17.95 9.4 18.15 9.3 18.15 9.15 17.85 8.8 17.85 9.0 17.55 8.8 17.3 8.45 16.8 8.45 16.75 8.5 Q16.25 8.8 16.15 9.4 L16.15 10.0 16.0 10.25 16.0 10.7 15.55 10.9 15.55 11.4 15.65 11.7 16.05 13.3 16.15 15.25 15.55 14.25 15.4 13.9 Q15.4 13.8 15.25 13.8 L15.25 13.4 15.4 13.3 15.4 13.2 14.85 12.4 14.55 12.25 14.55 11.8 14.45 11.7 14.45 11.55 14.45 11.1 14.55 10.8 14.75 11.1 14.85 10.25 14.75 9.85 14.55 9.4 14.55 8.45 13.95 8.45 13.95 8.4 14.15 7.4 14.15 6.7 14.15 6.6 14.25 6.4 14.25 6.3 14.25 6.15 12.0 6.15 12.0 5.95 12.0 5.25 11.9 4.7 Q11.7 4.4 11.7 4.7 L11.6 4.7 11.2 4.4 11.2 4.1 Q10.9 4.1 10.9 4.3 L10.1 4.0 9.7 3.9 Q9.4 3.9 9.3 3.5 L9.3 3.4 9.3 3.1 9.4 3.0 9.7 2.4 Q9.7 2.1 10.3 1.7 L10.75 1.4 11.0 1.0 11.2 0.8 11.6 0.7 11.9 0.7 12.8 0.1 13.15 0.0 13.4 0.1 13.9 0.3 14.0 0.0 14.3 0.0 14.7 0.0 15.0 0.1 15.3 0.3 Q15.5 0.1 16.0 0.3 L16.7 0.55 17.0 0.7 17.6 0.8 17.85 1.4 18.3 2.5 Q18.6 2.4 18.85 2.7 L18.85 3.0 19.15 3.25 19.15 3.4 19.0 3.9 18.85 3.9 Q18.6 3.5 18.45 3.9 L18.3 4.0 17.85 4.0 17.7 4.1 17.6 4.3 17.6 4.0 17.3 4.3 17.4 4.4 17.3 4.8 Q17.0 4.8 17.0 5.0 L16.85 5.0 16.85 5.1 16.7 5.5 16.6 5.7 16.45 5.95 16.55 6.15 16.6 6.15 16.55 6.3 16.55 6.4 16.35 6.6 16.35 7.4 16.35 8.4 16.2 8.45 16.7 8.45 16.65 8.4 16.65 7.55 16.55 6.85 16.65 6.6 16.65 6.4 16.9 6.15 18.8 6.15 18.85 6.3 18.85 6.4 18.85 6.6 18.85 6.7 18.85 7.4 18.95 8.1 19.1 8.45 19.7 8.45 19.85 8.8 19.85 9.0 20.25 8.5 M20.7 8.5 L20.65 8.45 20.8 8.45 20.7 8.5 M20.7 7.1 L20.7 7.3 Q20.55 7.4 20.7 7.55 L20.85 7.7 20.55 8.1 20.35 8.3 20.2 8.45 20.05 8.45 19.95 8.4 19.85 8.4 19.85 8.1 19.85 7.7 Q19.95 7.55 20.1 7.55 L20.1 7.3 20.1 6.85 20.7 7.1" fill="#ffa3a3" fill-opacity="0.7490196" fill-rule="evenodd" stroke="none"/>
  </g>
</svg>
