<?xml version="1.0" encoding="UTF-8" standalone="no"?>
<svg xmlns:xlink="http://www.w3.org/1999/xlink" height="8.8px" width="12.1px" xmlns="http://www.w3.org/2000/svg">
  <g transform="matrix(1.0, 0.0, 0.0, 1.0, -16.6, 4.8)">
    <path d="M19.1 2.95 L17.1 2.0 17.55 1.15 17.55 -0.85 17.15 -3.4 21.85 -3.4 23.15 -4.3 24.95 -4.3 26.0 -3.5 26.9 -3.5 28.1 -1.9 28.15 0.3 23.05 0.3 23.05 3.0 21.1 3.0 19.1 2.95 19.1 0.3 19.1 2.95 M21.1 3.0 L21.1 0.35 21.1 3.0" fill="#605f4d" fill-rule="evenodd" stroke="none"/>
    <path d="M28.15 0.3 L28.2 2.9 26.2 3.5 24.05 3.0 23.05 3.0 23.05 0.3 28.15 0.3" fill="#565447" fill-rule="evenodd" stroke="none"/>
    <path d="M19.1 2.95 L17.1 2.0 17.55 1.15 17.55 -0.85 17.15 -3.4 21.85 -3.4 23.15 -4.3 24.95 -4.3 26.0 -3.5 26.9 -3.5 28.1 -1.9 28.15 0.3" fill="none" stroke="#444138" stroke-linecap="round" stroke-linejoin="round" stroke-width="1.0"/>
    <path d="M28.15 0.3 L28.2 2.9 26.2 3.5 24.05 3.0 23.05 3.0 21.1 3.0 19.1 2.95 19.1 0.3 M21.1 0.35 L21.1 3.0 M23.05 3.0 L23.05 0.3 28.15 0.3" fill="none" stroke="#39362d" stroke-linecap="round" stroke-linejoin="round" stroke-width="1.0"/>
  </g>
</svg>
