<?xml version="1.0" encoding="UTF-8" standalone="no"?>
<svg xmlns:ffdec="https://www.free-decompiler.com/flash" xmlns:xlink="http://www.w3.org/1999/xlink" ffdec:objectType="shape" height="7.5px" width="13.2px" xmlns="http://www.w3.org/2000/svg">
  <g transform="matrix(1.0, 0.0, 0.0, 1.0, 3.65, 1.05)">
    <path d="M6.35 2.05 Q9.75 2.35 8.9 5.9 L-3.0 5.95 Q-3.45 3.45 -2.35 0.2 L-1.9 -0.05 -0.65 -0.45 Q0.5 -0.75 2.35 0.05 L3.25 0.2 Q3.8 1.75 6.35 2.05" fill="#171717" fill-rule="evenodd" stroke="none"/>
    <path d="M6.35 2.05 Q9.75 2.35 8.9 5.9 L-3.0 5.95 Q-3.45 3.45 -2.35 0.2 L-1.9 -0.05 -0.65 -0.45 Q0.5 -0.75 2.35 0.05 L3.25 0.2 Q3.8 1.75 6.35 2.05 Z" fill="none" stroke="#070707" stroke-linecap="round" stroke-linejoin="round" stroke-width="1.0"/>
  </g>
</svg>
