<?xml version="1.0" encoding="UTF-8" standalone="no"?>
<svg xmlns:xlink="http://www.w3.org/1999/xlink" height="20.45px" width="14.65px" xmlns="http://www.w3.org/2000/svg">
  <g transform="matrix(1.0, 0.0, 0.0, 1.0, 6.7, 5.6)">
    <path d="M3.45 -2.1 Q3.65 -0.35 1.85 2.85 0.95 4.4 -0.15 4.25 -1.3 4.05 -2.15 2.2 -3.65 -1.1 -2.6 -3.1 -1.85 -4.65 0.7 -4.3 3.25 -3.9 3.45 -2.1" fill="#e1e1e1" fill-rule="evenodd" stroke="none"/>
    <path d="M3.45 -2.1 Q3.25 -3.9 0.7 -4.3 -1.85 -4.65 -2.6 -3.1 -3.65 -1.1 -2.15 2.2 -1.3 4.05 -0.15 4.25 0.95 4.4 1.85 2.85 3.65 -0.35 3.45 -2.1 M4.85 11.5 Q4.1 14.7 1.25 14.3 -1.6 13.9 -2.65 11.5 -2.85 9.6 -3.35 8.05 -4.95 3.3 -4.95 -0.75 L-4.85 -1.75 Q-4.7 -2.8 -4.2 -3.5 -3.2 -4.9 -0.8 -5.1 3.3 -5.4 4.5 -1.6 5.7 2.05 4.85 11.5" fill="#595959" fill-rule="evenodd" stroke="none"/>
    <path d="M4.85 11.5 Q4.1 14.7 1.25 14.3 -1.6 13.9 -2.65 11.5" fill="none" stroke="#2f2f2f" stroke-linecap="round" stroke-linejoin="round" stroke-width="1.0"/>
    <path d="M3.45 -2.1 Q3.65 -0.35 1.85 2.85 0.95 4.4 -0.15 4.25 -1.3 4.05 -2.15 2.2 -3.65 -1.1 -2.6 -3.1 -1.85 -4.65 0.7 -4.3 3.25 -3.9 3.45 -2.1" fill="none" stroke="#404040" stroke-linecap="round" stroke-linejoin="round" stroke-width="1.0"/>
    <path d="M-2.65 11.5 Q-2.85 9.6 -3.35 8.05 -4.95 3.3 -4.95 -0.75 L-4.85 -1.75 Q-4.7 -2.8 -4.2 -3.5 -3.2 -4.9 -0.8 -5.1 3.3 -5.4 4.5 -1.6 5.7 2.05 4.85 11.5" fill="none" stroke="#222222" stroke-linecap="round" stroke-linejoin="round" stroke-width="1.0"/>
    <path d="M6.85 13.5 L1.75 11.95 -3.15 12.9 Q-5.6 7.2 -6.2 0.3 -3.35 4.7 -1.4 5.75 0.55 6.75 2.7 4.4 4.85 2.05 5.6 -2.35 8.55 3.3 6.85 13.5" fill="#bbbbbb" fill-rule="evenodd" stroke="none"/>
    <path d="M-3.15 12.9 L1.75 11.95 6.85 13.5 M5.6 -2.35 Q4.85 2.05 2.7 4.4 0.55 6.75 -1.4 5.75 -3.35 4.7 -6.2 0.3" fill="none" stroke="#4d4d4d" stroke-linecap="round" stroke-linejoin="round" stroke-width="1.0"/>
    <path d="M6.85 13.5 Q8.55 3.3 5.6 -2.35 M-6.2 0.3 Q-5.6 7.2 -3.15 12.9" fill="none" stroke="#373737" stroke-linecap="round" stroke-linejoin="round" stroke-width="1.0"/>
  </g>
</svg>
