<?xml version="1.0" encoding="UTF-8" standalone="no"?>
<svg xmlns:xlink="http://www.w3.org/1999/xlink" height="12.8px" width="8.6px" xmlns="http://www.w3.org/2000/svg">
  <g transform="matrix(1.0, 0.0, 0.0, 1.0, -1.25, 6.5)">
    <path d="M5.55 -6.45 L5.8 -6.5 Q7.5 -6.5 8.65 -4.6 9.85 -2.75 9.85 -0.1 9.85 2.55 8.65 4.45 7.5 6.3 5.8 6.3 L5.55 6.3 5.55 -6.45" fill="url(#gradient0)" fill-rule="evenodd" stroke="none"/>
    <path d="M5.55 6.3 L5.25 6.3 Q3.6 6.3 2.4 4.45 1.25 2.55 1.25 -0.1 1.25 -2.75 2.4 -4.6 3.6 -6.5 5.25 -6.5 L5.55 -6.45 5.55 6.3" fill="url(#gradient1)" fill-rule="evenodd" stroke="none"/>
  </g>
  <defs>
    <radialGradient cx="0" cy="0" gradientTransform="matrix(0.0, 0.0069, -0.0049, 0.0, 5.8, -0.1)" gradientUnits="userSpaceOnUse" id="gradient0" r="819.2" spreadMethod="pad">
      <stop offset="0.17647058823529413" stop-color="#ffffff"/>
      <stop offset="1.0" stop-color="#139ffd" stop-opacity="0.0"/>
    </radialGradient>
    <radialGradient cx="0" cy="0" gradientTransform="matrix(0.0, 0.0069, 0.0049, 0.0, 5.25, -0.1)" gradientUnits="userSpaceOnUse" id="gradient1" r="819.2" spreadMethod="pad">
      <stop offset="0.17647058823529413" stop-color="#ffffff"/>
      <stop offset="1.0" stop-color="#139ffd" stop-opacity="0.0"/>
    </radialGradient>
  </defs>
</svg>
