<?xml version="1.0" encoding="UTF-8" standalone="no"?>
<svg xmlns:ffdec="https://www.free-decompiler.com/flash" xmlns:xlink="http://www.w3.org/1999/xlink" ffdec:objectType="shape" height="15.55px" width="10.7px" xmlns="http://www.w3.org/2000/svg">
  <g transform="matrix(1.0, 0.0, 0.0, 1.0, -11.3, 0.0)">
    <path d="M18.9 9.35 L18.95 9.35 18.95 9.1 18.9 9.35 M13.8 12.25 L13.7 11.95 13.55 11.95 13.7 12.1 13.8 12.4 13.8 12.25 M13.55 11.7 L13.65 11.8 13.8 11.95 13.95 11.95 13.95 11.8 13.95 11.55 13.55 11.4 13.55 11.7 M16.45 5.85 L16.45 5.95 16.4 6.15 16.7 6.15 16.75 6.1 16.85 5.85 16.45 5.85 16.45 5.5 16.45 5.1 16.8 5.1 16.8 5.0 16.7 4.9 16.4 4.4 Q16.15 3.8 16.2 3.2 L16.15 3.2 16.1 3.25 Q15.9 4.1 16.0 4.7 L16.3 5.0 16.35 5.1 16.0 5.1 16.05 5.5 16.05 5.85 16.45 5.85 M17.05 3.2 L17.1 3.2 17.2 2.7 17.05 3.2 M20.35 8.05 L20.25 8.1 20.05 8.3 19.8 8.5 19.65 8.4 19.55 8.4 19.55 8.1 19.55 8.05 19.3 8.05 19.3 7.7 19.55 7.55 19.55 7.3 19.55 6.85 Q20.0 6.85 20.15 7.1 L20.15 7.3 Q20.0 7.4 20.15 7.55 L20.3 7.7 20.1 8.05 20.35 8.05 M20.25 1.4 L20.35 1.55 20.85 1.55 21.2 2.5 Q21.5 2.4 21.75 2.7 L21.75 3.0 22.0 3.2 21.1 3.2 21.15 3.25 21.15 3.4 21.0 3.9 20.85 3.9 Q20.6 3.5 20.45 3.9 L20.3 4.0 19.85 4.0 19.7 4.1 19.6 4.3 19.6 4.0 19.3 4.3 19.4 4.4 19.3 4.8 19.05 4.9 19.0 5.0 18.85 5.0 18.85 5.1 18.5 5.1 18.35 5.5 18.25 5.7 18.15 5.85 18.55 5.85 18.5 5.95 18.6 6.15 18.25 6.15 18.3 6.6 18.3 6.7 18.3 7.4 18.4 8.05 18.65 8.05 18.65 8.1 18.95 8.8 18.95 9.0 19.35 8.5 19.65 8.5 19.8 8.8 19.8 9.15 19.8 9.35 19.5 9.35 19.35 9.7 19.05 9.85 19.05 10.1 18.95 10.25 18.65 10.7 18.5 10.8 18.5 10.9 18.35 10.9 18.35 10.5 18.5 9.85 18.65 9.4 18.65 9.35 18.6 9.35 18.1 10.25 18.25 10.5 18.25 10.9 18.25 11.1 17.8 11.7 17.65 11.8 17.65 11.95 17.4 11.95 17.4 12.4 17.55 12.4 18.0 12.1 18.0 12.4 Q17.85 12.4 17.85 12.5 17.55 12.7 17.55 13.1 L17.55 13.2 17.85 13.2 17.85 13.4 17.7 14.25 17.45 14.4 17.2 14.95 17.0 15.55 Q16.8 14.95 17.0 14.25 L17.35 13.2 17.05 13.2 17.15 12.7 16.9 11.95 17.15 11.95 17.15 11.8 17.4 11.4 17.4 10.9 17.15 10.5 Q16.95 10.25 17.15 10.1 L17.15 9.85 17.15 9.7 16.75 9.4 16.8 9.35 17.1 9.35 17.25 9.3 17.25 9.15 16.95 8.8 16.95 9.0 16.65 8.8 16.35 8.4 16.35 8.05 16.1 8.05 16.1 7.55 16.0 6.85 16.1 6.6 16.1 6.4 16.35 6.15 16.05 6.15 16.0 6.4 15.8 6.6 15.8 7.4 15.8 8.05 16.05 8.05 16.05 8.4 15.85 8.5 Q15.35 8.8 15.25 9.35 L14.95 9.35 14.95 10.0 14.8 10.25 14.8 10.7 14.35 10.9 14.35 11.4 14.45 11.7 14.55 11.95 14.3 11.95 14.55 13.2 14.85 13.2 15.0 15.25 Q14.4 14.7 14.4 14.25 L14.25 13.9 Q14.25 13.8 14.1 13.8 L14.1 13.4 14.25 13.2 13.95 13.2 13.4 12.4 13.1 12.25 13.1 11.95 13.35 11.95 13.35 11.8 13.25 11.7 13.25 11.55 13.25 11.1 13.35 10.8 13.55 11.1 13.65 10.25 13.55 9.85 13.35 9.35 13.3 9.35 13.35 10.45 13.25 10.25 12.85 10.25 12.55 10.0 12.4 9.85 12.25 9.4 12.15 9.35 12.45 9.35 12.25 9.15 12.25 8.8 12.55 8.8 12.95 8.8 13.35 8.8 13.55 9.0 13.55 9.15 13.6 9.35 13.65 9.35 13.65 8.4 13.75 8.05 13.5 8.05 13.6 7.4 13.6 6.7 13.6 6.6 13.7 6.4 13.7 6.15 14.05 6.15 14.05 5.95 14.05 5.85 13.65 5.85 13.65 5.25 13.65 5.1 14.0 5.1 13.95 4.9 13.9 4.7 Q13.7 4.4 13.7 4.7 L13.6 4.7 Q13.4 4.8 13.2 4.4 L13.2 4.1 Q12.9 4.1 12.9 4.3 L12.1 4.0 11.7 3.9 Q11.4 3.9 11.3 3.5 L11.3 3.4 11.3 3.2 12.2 3.2 12.2 3.1 12.3 3.0 12.6 2.4 Q12.6 2.1 13.2 1.7 L13.45 1.55 12.95 1.55 13.15 1.4 13.4 1.0 13.6 0.8 14.0 0.7 14.3 0.7 15.2 0.1 15.55 0.0 15.8 0.1 16.3 0.3 16.4 0.0 16.7 0.0 17.1 0.0 17.4 0.1 17.7 0.3 Q17.9 0.1 18.4 0.3 18.55 0.3 19.1 0.55 L19.4 0.7 19.5 0.7 20.0 0.8 20.25 1.4" fill="#ffa3a3" fill-opacity="0.7490196" fill-rule="evenodd" stroke="none"/>
  </g>
</svg>
