<?xml version="1.0" encoding="UTF-8" standalone="no"?>
<svg xmlns:ffdec="https://www.free-decompiler.com/flash" xmlns:xlink="http://www.w3.org/1999/xlink" ffdec:objectType="shape" height="21.95px" width="12.95px" xmlns="http://www.w3.org/2000/svg">
  <g transform="matrix(1.0, 0.0, 0.0, 1.0, 8.5, 5.25)">
    <path d="M-5.75 -2.95 L-5.05 -4.0 Q-0.15 -6.25 3.75 -1.95 L3.95 -0.3 3.3 2.65 3.1 3.0 2.95 3.2 Q2.3 4.25 1.4 3.8 L1.2 3.95 1.1 3.85 1.1 4.0 -1.0 5.45 -4.2 4.6 -5.4 2.0 Q-6.35 0.5 -6.55 -0.55 L-5.9 -2.6 -5.25 -2.95 -5.75 -2.95 M2.95 3.2 L1.4 3.8 2.95 3.2 M-0.5 -0.25 L-0.65 -2.15 -1.7 -0.55 -3.7 -0.45 -1.95 0.5 -1.8 2.35 -0.8 0.8 1.15 0.8 -0.5 -0.25" fill="url(#gradient0)" fill-rule="evenodd" stroke="none"/>
    <path d="M-0.5 -0.25 L1.15 0.8 -0.8 0.8 -1.8 2.35 -1.95 0.5 -3.7 -0.45 -1.7 -0.55 -0.65 -2.15 -0.5 -0.25" fill="#333333" fill-rule="evenodd" stroke="none"/>
    <path d="M-1.0 5.45 L-2.7 8.25 -2.8 8.15 -4.4 7.8 -4.2 4.6 -1.0 5.45" fill="#666666" fill-rule="evenodd" stroke="none"/>
    <path d="M-2.7 8.25 L-2.2 9.55 -1.3 9.85 -0.15 9.25 -1.1 15.45 Q-6.25 17.9 -6.85 12.1 L-6.75 7.85 -6.3 8.3 -5.4 8.55 -4.4 7.8 -2.8 8.15 -2.7 8.25" fill="#191919" fill-rule="evenodd" stroke="none"/>
    <path d="M1.2 3.95 L1.1 4.0 1.1 3.85 1.2 3.95" fill="url(#gradient1)" fill-rule="evenodd" stroke="none"/>
    <path d="M-5.75 -2.95 L-5.05 -4.0 Q-0.15 -6.25 3.75 -1.95 L3.95 -0.3 3.3 2.65 3.1 3.0 M-6.55 -0.55 L-6.7 0.45 M-6.55 -0.55 L-5.9 -2.6 -5.75 -2.95" fill="none" stroke="#474747" stroke-linecap="round" stroke-linejoin="round" stroke-width="1.0"/>
    <path d="M-0.15 9.25 L-1.1 15.45 Q-6.25 17.9 -6.85 12.1 L-6.75 7.85 M1.4 3.8 L2.95 3.2 M-4.4 7.8 L-2.8 8.15 -2.7 8.25" fill="none" stroke="#0f0f0f" stroke-linecap="round" stroke-linejoin="round" stroke-width="1.0"/>
    <path d="M-4.4 7.8 L-5.4 8.55 -6.3 8.3 -6.75 7.85 -7.65 6.7 Q-8.5 3.15 -7.35 0.2 L-6.7 0.45 -5.4 2.0 -4.2 4.6 -4.4 7.8" fill="url(#gradient2)" fill-rule="evenodd" stroke="none"/>
    <path d="M-4.4 7.8 L-4.2 4.6 -5.4 2.0 -6.7 0.45 -7.35 0.2 Q-8.5 3.15 -7.65 6.7 L-6.75 7.85 -6.3 8.3 -5.4 8.55 -4.4 7.8 Z" fill="none" stroke="#0f0f0f" stroke-linecap="round" stroke-linejoin="round" stroke-width="1.0"/>
    <path d="M2.95 3.2 L3.25 3.1 3.9 3.2 Q3.35 6.45 1.0 8.65 L-1.3 9.85 -2.2 9.55 -2.7 8.25 -1.0 5.45 1.1 4.0 1.2 3.95 1.4 3.8 Q2.3 4.25 2.95 3.2" fill="url(#gradient3)" fill-rule="evenodd" stroke="none"/>
    <path d="M1.4 3.8 L1.2 3.95 1.1 4.0 -1.0 5.45 -2.7 8.25 -2.2 9.55 -1.3 9.85 1.0 8.65 Q3.35 6.45 3.9 3.2 L3.25 3.1 2.95 3.2" fill="none" stroke="#0f0f0f" stroke-linecap="round" stroke-linejoin="round" stroke-width="1.0"/>
  </g>
  <defs>
    <radialGradient cx="0" cy="0" gradientTransform="matrix(0.0065, 0.0014, -0.0013, 0.0061, -0.55, -0.35)" gradientUnits="userSpaceOnUse" id="gradient0" r="819.2" spreadMethod="pad">
      <stop offset="0.0" stop-color="#cccccc"/>
      <stop offset="1.0" stop-color="#666666"/>
    </radialGradient>
    <radialGradient cx="0" cy="0" gradientTransform="matrix(0.0054, 3.0E-4, -2.0E-4, 0.0049, -0.65, 4.4)" gradientUnits="userSpaceOnUse" id="gradient1" r="819.2" spreadMethod="pad">
      <stop offset="0.0" stop-color="#4d4946"/>
      <stop offset="1.0" stop-color="#3c3b38"/>
      <stop offset="1.0" stop-color="#333333"/>
    </radialGradient>
    <radialGradient cx="0" cy="0" gradientTransform="matrix(0.0062, -0.0012, 0.0012, 0.0062, -4.7, 4.65)" gradientUnits="userSpaceOnUse" id="gradient2" r="819.2" spreadMethod="pad">
      <stop offset="0.0" stop-color="#333333"/>
      <stop offset="1.0" stop-color="#000000"/>
    </radialGradient>
    <radialGradient cx="0" cy="0" gradientTransform="matrix(0.006, -0.0011, 0.0011, 0.006, -0.45, 5.7)" gradientUnits="userSpaceOnUse" id="gradient3" r="819.2" spreadMethod="pad">
      <stop offset="0.0" stop-color="#333333"/>
      <stop offset="1.0" stop-color="#000000"/>
    </radialGradient>
  </defs>
</svg>
