<?xml version="1.0" encoding="UTF-8" standalone="no"?>
<svg xmlns:xlink="http://www.w3.org/1999/xlink" height="18.7px" width="14.4px" xmlns="http://www.w3.org/2000/svg">
  <g transform="matrix(1.0, 0.0, 0.0, 1.0, 6.1, 5.65)">
    <path d="M3.15 -4.3 Q3.2 -2.3 -1.4 -1.75 L-3.05 -0.35 -4.3 0.55 -4.35 -0.1 Q-4.7 -3.3 -4.2 -3.85 -3.2 -4.95 -0.8 -5.1 2.65 -5.3 3.15 -4.3 M-2.45 9.55 L0.0 10.1 Q2.0 10.95 2.5 11.8 -0.45 14.0 -2.45 9.55" fill="#333333" fill-rule="evenodd" stroke="none"/>
    <path d="M3.15 -4.3 L5.75 -4.25 Q7.05 -3.55 7.65 1.25 8.2 6.05 6.75 10.55 4.6 12.45 2.5 11.8 2.0 10.95 0.0 10.1 L-2.45 9.55 -3.85 9.2 Q-5.85 5.45 -5.55 1.9 L-4.3 0.55 -3.05 -0.35 -1.4 -1.75 Q3.2 -2.3 3.15 -4.3 M3.45 6.4 L3.45 4.7 3.45 6.4 M4.8 6.0 L4.9 3.3 4.8 6.0" fill="#cccccc" fill-rule="evenodd" stroke="none"/>
    <path d="M-4.3 0.55 L-4.35 -0.1 Q-4.7 -3.3 -4.2 -3.85 -3.2 -4.95 -0.8 -5.1 2.65 -5.3 3.15 -4.3" fill="none" stroke="#000000" stroke-linecap="round" stroke-linejoin="round" stroke-width="1.0"/>
    <path d="M2.5 11.8 Q-0.45 14.0 -2.45 9.55" fill="none" stroke="#000000" stroke-linecap="round" stroke-linejoin="round" stroke-opacity="0.99215686" stroke-width="1.0"/>
    <path d="M4.9 3.3 L4.8 6.0 M3.45 4.7 L3.45 6.4" fill="none" stroke="#999999" stroke-linecap="round" stroke-linejoin="round" stroke-width="1.0"/>
    <path d="M3.15 -4.3 Q3.2 -2.3 -1.4 -1.75 L-3.05 -0.35 -4.3 0.55 M-2.45 9.55 L0.0 10.1 Q2.0 10.95 2.5 11.8 4.6 12.45 6.75 10.55" fill="none" stroke="#666666" stroke-linecap="round" stroke-linejoin="round" stroke-width="1.0"/>
    <path d="M6.75 10.55 Q8.2 6.05 7.65 1.25 7.05 -3.55 5.75 -4.25 L3.15 -4.3 M-4.3 0.55 L-5.55 1.9 Q-5.85 5.45 -3.85 9.2 L-2.45 9.55" fill="none" stroke="#404040" stroke-linecap="round" stroke-linejoin="round" stroke-width="1.0"/>
  </g>
</svg>
