<?xml version="1.0" encoding="UTF-8" standalone="no"?>
<svg xmlns:ffdec="https://www.free-decompiler.com/flash" xmlns:xlink="http://www.w3.org/1999/xlink" ffdec:objectType="shape" height="20.55px" width="13.3px" xmlns="http://www.w3.org/2000/svg">
  <g transform="matrix(1.0, 0.0, 0.0, 1.0, 4.05, 4.65)">
    <path d="M-1.1 3.8 L5.0 6.0 5.3 6.45 Q5.6 6.95 5.5 7.25 L5.05 7.55 4.7 7.8 Q4.7 8.05 5.25 8.25 L5.65 8.7 Q5.7 9.2 4.5 9.7 L-1.8 8.4 Q-2.5 7.4 -2.4 6.95 -2.3 6.75 -1.85 6.65 L-1.35 6.3 -1.65 5.75 -2.0 5.05 -1.55 4.25 -1.1 3.8" fill="#171a1c" fill-rule="evenodd" stroke="none"/>
    <path d="M-1.1 3.8 L-1.55 4.25 -2.0 5.05 -1.65 5.75 -1.35 6.3 -1.85 6.65 Q-2.3 6.75 -2.4 6.95 -2.5 7.4 -1.8 8.4 L4.5 9.7 Q5.7 9.2 5.65 8.7 L5.25 8.25 Q4.7 8.05 4.7 7.8 L5.05 7.55 5.5 7.25 Q5.6 6.95 5.3 6.45 L5.0 6.0 -1.1 3.8 Z" fill="none" stroke="#101214" stroke-linecap="round" stroke-linejoin="round" stroke-width="1.0"/>
    <path d="M-0.15 5.45 Q0.65 5.45 1.2 6.2" fill="none" stroke="#101214" stroke-linecap="round" stroke-linejoin="round" stroke-width="1.0"/>
    <path d="M3.7 8.35 Q3.4 8.85 2.4 8.2 L3.7 8.35" fill="#171a1c" fill-rule="evenodd" stroke="none"/>
    <path d="M3.7 8.35 Q3.4 8.85 2.4 8.2" fill="none" stroke="#101214" stroke-linecap="round" stroke-linejoin="round" stroke-width="1.0"/>
    <path d="M-3.25 -1.0 Q-2.55 -3.0 -0.55 -3.8 L3.9 -3.65 8.75 -0.2 8.0 3.8 Q7.25 6.3 5.85 7.75 L3.9 5.85 -3.0 5.75 Q-3.95 2.7 -3.25 -1.0" fill="url(#gradient0)" fill-rule="evenodd" stroke="none"/>
    <path d="M-3.25 -1.0 Q-2.55 -3.0 -0.55 -3.8 L3.9 -3.65 8.75 -0.2 8.0 3.8 Q7.25 6.3 5.85 7.75 L3.9 5.85 -3.0 5.75 Q-3.95 2.7 -3.25 -1.0 Z" fill="none" stroke="#101214" stroke-linecap="round" stroke-linejoin="round" stroke-width="1.0"/>
    <path d="M-2.75 8.15 L5.0 9.45 5.15 12.5 3.55 14.8 2.2 15.35 -1.65 14.05 -2.8 11.1 -2.75 8.15" fill="#292a2b" fill-rule="evenodd" stroke="none"/>
    <path d="M-0.35 9.9 L-0.3 11.3" fill="none" stroke="#181c1e" stroke-linecap="round" stroke-linejoin="round" stroke-width="1.0"/>
    <path d="M4.1 11.2 L2.8 10.95" fill="none" stroke="#d06513" stroke-linecap="round" stroke-linejoin="round" stroke-width="1.0"/>
    <path d="M-2.75 8.15 L-2.95 11.8 -1.65 14.05 Q2.95 16.35 3.55 14.8 L5.25 13.05 5.45 9.15 -2.75 8.15 Z" fill="none" stroke="#101214" stroke-linecap="round" stroke-linejoin="round" stroke-width="1.0"/>
    <path d="M6.15 2.9 Q5.75 2.6 5.15 2.6 4.5 2.6 4.25 3.0 3.95 3.25 4.1 3.8 L4.65 4.6 6.1 4.55 Q6.45 4.2 6.45 3.7 L6.15 2.9 Z" fill="none" stroke="#181c1e" stroke-linecap="round" stroke-linejoin="round" stroke-width="1.0"/>
    <path d="M2.7 -2.25 Q-0.05 -2.8 -1.3 -0.55" fill="none" stroke="#181c1e" stroke-linecap="round" stroke-linejoin="round" stroke-width="1.0"/>
  </g>
  <defs>
    <radialGradient cx="0" cy="0" gradientTransform="matrix(0.007, -1.0E-4, 1.0E-4, 0.006, 2.6, 1.3)" gradientUnits="userSpaceOnUse" id="gradient0" r="819.2" spreadMethod="pad">
      <stop offset="0.0" stop-color="#2e2e2e"/>
      <stop offset="1.0" stop-color="#1e2225"/>
    </radialGradient>
  </defs>
</svg>
