<?xml version="1.0" encoding="UTF-8" standalone="no"?>
<svg xmlns:xlink="http://www.w3.org/1999/xlink" height="25.3px" width="12.0px" xmlns="http://www.w3.org/2000/svg">
  <g transform="matrix(1.0, 0.0, 0.0, 1.0, 6.9, 4.0)">
    <path d="M-1.45 1.6 L-1.65 1.3 Q-2.1 0.6 -1.95 -0.2 -1.8 -1.05 -1.15 -1.45 -0.45 -1.95 0.4 -1.75 L1.55 -1.05 -1.45 1.6 1.55 -1.05 1.65 -0.9 Q2.15 -0.2 1.95 0.6 1.8 1.4 1.1 1.9 L-0.4 2.15 Q-1.05 2.0 -1.45 1.6 M1.65 14.9 L2.3 15.05 1.95 17.5 -0.7 20.8 -4.55 20.05 -6.4 15.75 -5.8 12.15 -5.2 12.2 -2.45 12.5 -2.25 14.2 -1.3 14.4 0.2 14.65 1.3 14.85 1.65 14.9 M-2.0 16.75 L-2.8 16.9 Q-3.2 17.1 -3.3 17.6 -3.4 18.05 -3.1 18.45 -2.85 18.85 -2.45 18.9 L-1.55 18.75 Q-1.15 18.5 -1.1 18.05 -1.05 17.6 -1.3 17.2 -1.55 16.8 -2.0 16.75" fill="#836d5f" fill-rule="evenodd" stroke="none"/>
    <path d="M1.55 -1.05 L0.4 -1.75 Q-0.45 -1.95 -1.15 -1.45 -1.8 -1.05 -1.95 -0.2 -2.1 0.6 -1.65 1.3 L-1.45 1.6 Q-1.05 2.0 -0.4 2.15 L1.1 1.9 Q1.8 1.4 1.95 0.6 2.15 -0.2 1.65 -0.9 L1.55 -1.05 M-4.15 5.2 L-5.1 4.65 -5.2 4.55 -4.2 -1.95 -2.45 -3.5 3.1 -2.75 4.6 -0.2 3.8 5.75 2.95 6.05 1.4 6.45 -0.15 6.55 -0.75 6.5 Q-2.15 6.2 -4.15 5.2 M-3.25 3.85 L-3.0 2.6 -3.25 3.85" fill="#97856f" fill-rule="evenodd" stroke="none"/>
    <path d="M2.95 6.05 L1.65 14.9 1.3 14.85 0.2 14.65 1.4 6.45 2.95 6.05 M-5.2 12.2 L-4.15 5.2 Q-2.15 6.2 -0.75 6.5 L-0.15 6.55 -1.3 14.4 -2.25 14.2 -2.45 12.5 -5.2 12.2 M-2.0 16.75 Q-1.55 16.8 -1.3 17.2 -1.05 17.6 -1.1 18.05 -1.15 18.5 -1.55 18.75 L-2.45 18.9 Q-2.85 18.85 -3.1 18.45 -3.4 18.05 -3.3 17.6 -3.2 17.1 -2.8 16.9 L-2.0 16.75" fill="#4d4844" fill-rule="evenodd" stroke="none"/>
    <path d="M1.55 -1.05 L0.4 -1.75 Q-0.45 -1.95 -1.15 -1.45 -1.8 -1.05 -1.95 -0.2 -2.1 0.6 -1.65 1.3 L-1.45 1.6 Q-1.05 2.0 -0.4 2.15 L1.1 1.9 Q1.8 1.4 1.95 0.6 2.15 -0.2 1.65 -0.9 L1.55 -1.05" fill="none" stroke="#473b34" stroke-linecap="butt" stroke-linejoin="miter-clip" stroke-miterlimit="10.0" stroke-width="1.0"/>
    <path d="M-1.45 1.6 L1.55 -1.05 M-4.15 5.2 L-5.1 4.65 -5.2 4.55 -4.2 -1.95 -2.45 -3.5 3.1 -2.75 4.6 -0.2 3.8 5.75 2.95 6.05 1.4 6.45 -0.15 6.55 -0.75 6.5 Q-2.15 6.2 -4.15 5.2 M-3.0 2.6 L-3.25 3.85" fill="none" stroke="#655447" stroke-linecap="round" stroke-linejoin="round" stroke-width="1.0"/>
    <path d="M2.3 15.05 L1.95 17.5 -0.7 20.8 -4.55 20.05 -6.4 15.75 -5.8 12.15 -5.2 12.2 -2.45 12.5 -2.25 14.2 -1.3 14.4 0.2 14.65 1.3 14.85 M-2.0 16.75 L-2.8 16.9 Q-3.2 17.1 -3.3 17.6 -3.4 18.05 -3.1 18.45 -2.85 18.85 -2.45 18.9 L-1.55 18.75 Q-1.15 18.5 -1.1 18.05 -1.05 17.6 -1.3 17.2 -1.55 16.8 -2.0 16.75" fill="none" stroke="#473b34" stroke-linecap="round" stroke-linejoin="round" stroke-width="1.0"/>
    <path d="M2.95 6.05 L1.65 14.9 M-5.2 12.2 L-4.15 5.2 M1.4 6.45 L0.2 14.65 M-1.3 14.4 L-0.15 6.55" fill="none" stroke="#2b2a29" stroke-linecap="round" stroke-linejoin="round" stroke-width="1.0"/>
  </g>
</svg>
