<?xml version="1.0" encoding="UTF-8" standalone="no"?>
<svg xmlns:ffdec="https://www.free-decompiler.com/flash" xmlns:xlink="http://www.w3.org/1999/xlink" ffdec:objectType="shape" height="20.0px" width="14.35px" xmlns="http://www.w3.org/2000/svg">
  <g transform="matrix(1.0, 0.0, 0.0, 1.0, 5.25, 5.7)">
    <path d="M7.05 1.55 L5.15 8.85 Q5.3 12.95 2.0 13.3 -1.3 13.65 -1.75 13.25 L-3.9 12.0 -2.15 9.35 0.35 -3.25 -0.9 3.95 0.4 4.9 1.15 5.85 2.5 4.3 3.5 1.0 6.9 1.65 6.9 1.6 7.05 1.55" fill="#46534f" fill-rule="evenodd" stroke="none"/>
    <path d="M-3.0 12.95 Q-3.85 13.1 -4.1 12.7 L-4.75 11.1 Q-3.75 4.0 -1.25 -0.4 L0.2 -1.75 Q0.1 -1.05 0.15 2.45 0.2 4.85 -0.6 6.85 L-1.85 8.45 -3.25 10.2 Q-3.05 11.6 -3.0 12.95" fill="#2a2a2a" fill-rule="evenodd" stroke="none"/>
    <path d="M-3.0 12.95 Q-3.85 13.1 -4.1 12.7 L-4.75 11.1 Q-3.75 4.0 -1.25 -0.4 L0.2 -1.75 Q0.1 -1.05 0.15 2.45 0.2 4.85 -0.6 6.85 L-1.85 8.45 -3.25 10.2 Q-3.05 11.6 -3.0 12.95 Z" fill="none" stroke="#1e1e1e" stroke-linecap="butt" stroke-linejoin="miter-clip" stroke-miterlimit="11.33984375" stroke-width="1.05"/>
    <path d="M-2.45 1.9 Q-2.3 -0.4 -0.2 -2.85 1.75 -5.15 3.3 -5.2 L5.45 -4.8 Q9.15 -1.85 8.5 3.65 L6.55 4.95 6.45 5.0 6.35 4.95 2.95 4.3 2.35 5.8 1.0 7.35 -0.85 7.8 -1.1 5.75 -1.0 3.7 -2.45 1.9" fill="#666666" fill-rule="evenodd" stroke="none"/>
    <path d="M-2.45 1.9 Q-2.3 -0.4 -0.2 -2.85 1.75 -5.15 3.3 -5.2 L5.45 -4.8 Q9.15 -1.85 8.5 3.65 L6.55 4.95 6.45 5.0 6.35 4.95 2.95 4.3 2.35 5.8 1.0 7.35 -0.85 7.8 -1.1 5.75 -1.0 3.7 -2.45 1.9 Z" fill="none" stroke="#323232" stroke-linecap="round" stroke-linejoin="round" stroke-width="1.05"/>
    <path d="M6.45 4.65 L5.0 10.35 Q4.15 11.95 2.75 12.9 L1.1 13.8 -0.65 13.5 -2.9 12.9" fill="none" stroke="#272e2e" stroke-linecap="round" stroke-linejoin="round" stroke-width="1.05"/>
    <path d="M-1.3 8.5 L-0.2 7.6 -0.85 7.65 -1.7 4.7 -0.25 2.4 1.0 1.05 Q2.75 -0.15 4.4 1.4 5.75 2.7 5.75 4.3 L3.7 4.4 6.15 5.95 4.85 10.05 1.15 9.75 -2.55 12.5 -2.45 10.25 Q-2.2 9.05 -1.3 8.5 M3.7 4.4 L3.55 4.3 -0.2 7.6 1.05 7.3 3.65 4.4 3.7 4.4 M3.25 -4.0 L5.35 -3.3 5.7 -2.05 2.35 -2.9 3.25 -4.0" fill="#333333" fill-opacity="0.41568628" fill-rule="evenodd" stroke="none"/>
  </g>
</svg>
