<?xml version="1.0" encoding="UTF-8" standalone="no"?>
<svg xmlns:xlink="http://www.w3.org/1999/xlink" height="17.6px" width="13.7px" xmlns="http://www.w3.org/2000/svg">
  <g transform="matrix(1.0, 0.0, 0.0, 1.0, 5.2, 3.9)">
    <path d="M-2.9 5.0 Q-4.45 5.45 -4.5 4.25 -5.15 1.45 -3.55 -1.2 -0.7 -4.25 3.0 -3.05 5.8 -1.45 7.1 2.8 8.35 7.0 7.9 11.15 4.9 15.3 -0.05 11.15 -0.85 10.35 -0.05 9.9 0.9 9.3 1.2 8.5 1.5 7.7 1.1 6.8 -0.05 4.45 -0.65 4.2 -1.15 4.05 -2.9 5.0 M4.65 6.25 L4.5 5.6 4.65 6.25 M4.95 8.45 L4.9 7.75 4.95 8.45 M2.95 2.25 L3.4 1.95 Q3.75 1.65 3.75 1.15 3.75 0.65 3.4 0.35 3.05 0.0 2.55 0.0 2.1 0.0 1.75 0.35 1.4 0.65 1.4 1.15 1.4 1.65 1.75 1.95 2.1 2.3 2.55 2.3 L2.95 2.25 3.9 4.05 2.95 2.25 2.55 2.3 Q2.1 2.3 1.75 1.95 1.4 1.65 1.4 1.15 1.4 0.65 1.75 0.35 2.1 0.0 2.55 0.0 3.05 0.0 3.4 0.35 3.75 0.65 3.75 1.15 3.75 1.65 3.4 1.95 L2.95 2.25" fill="#56738e" fill-rule="evenodd" stroke="none"/>
    <path d="M-2.9 5.0 Q-1.15 4.05 -0.65 4.2 -0.05 4.45 1.1 6.8 1.5 7.7 1.2 8.5 0.9 9.3 -0.05 9.9 -2.45 7.5 -2.9 5.0" fill="#323232" fill-rule="evenodd" stroke="none"/>
    <path d="M-0.05 9.9 Q-0.85 10.35 -0.05 11.15 4.9 15.3 7.9 11.15 8.35 7.0 7.1 2.8 5.8 -1.45 3.0 -3.05 -0.7 -4.25 -3.55 -1.2 -5.15 1.45 -4.5 4.25 -4.45 5.45 -2.9 5.0 -1.15 4.05 -0.65 4.2 -0.05 4.45 1.1 6.8 1.5 7.7 1.2 8.5 0.9 9.3 -0.05 9.9" fill="none" stroke="#1c262f" stroke-linecap="round" stroke-linejoin="round" stroke-width="1.0"/>
    <path d="M-0.05 9.9 Q-2.45 7.5 -2.9 5.0" fill="none" stroke="#1b1a19" stroke-linecap="round" stroke-linejoin="round" stroke-width="1.0"/>
    <path d="M3.9 4.05 L2.95 2.25 2.55 2.3 Q2.1 2.3 1.75 1.95 1.4 1.65 1.4 1.15 1.4 0.65 1.75 0.35 2.1 0.0 2.55 0.0 3.05 0.0 3.4 0.35 3.75 0.65 3.75 1.15 3.75 1.65 3.4 1.95 L2.95 2.25 M4.9 7.75 L4.95 8.45 M4.5 5.6 L4.65 6.25" fill="none" stroke="#465c74" stroke-linecap="round" stroke-linejoin="round" stroke-width="1.0"/>
  </g>
</svg>
