<?xml version="1.0" encoding="UTF-8" standalone="no"?>
<svg xmlns:xlink="http://www.w3.org/1999/xlink" height="20.95px" width="15.1px" xmlns="http://www.w3.org/2000/svg">
  <g transform="matrix(1.0, 0.0, 0.0, 1.0, 6.3, 6.1)">
    <path d="M-2.95 12.7 L-4.0 9.1 -2.4 8.55 -2.4 8.6 -2.1 10.45 -2.95 12.7" fill="#333333" fill-rule="evenodd" stroke="none"/>
    <path d="M4.55 -3.4 L6.15 -4.05 Q7.55 -1.75 8.25 1.55 L6.2 3.6 7.35 5.15 Q9.0 8.35 7.75 11.45 L5.75 11.45 Q1.75 8.35 -1.25 12.7 L-2.95 12.7 -2.1 10.45 -2.4 8.6 -0.45 7.15 -0.7 5.2 -3.05 6.25 -5.1 6.25 Q-6.5 4.0 -5.1 0.05 L-4.0 0.05 -1.1 0.05 4.55 -3.4 M2.25 4.3 L1.05 1.4 2.25 4.3 3.9 3.95 2.25 4.3 2.25 8.2 2.25 4.3" fill="#222222" fill-rule="evenodd" stroke="none"/>
    <path d="M-4.0 0.05 L-3.4 -1.75 -2.65 -3.7 Q-1.95 -5.15 0.55 -5.55 3.05 -5.95 4.55 -3.4 L-1.1 0.05 -4.0 0.05 M5.75 11.45 Q2.95 14.65 1.2 14.3 -0.4 14.0 -1.25 12.7 1.75 8.35 5.75 11.45 M-2.4 8.55 Q-3.8 7.75 -3.05 6.25 L-0.7 5.2 -0.45 7.15 -2.4 8.6 -2.4 8.55" fill="#141414" fill-rule="evenodd" stroke="none"/>
    <path d="M-4.0 0.05 L-3.4 -1.75 -2.65 -3.7 Q-1.95 -5.15 0.55 -5.55 3.05 -5.95 4.55 -3.4 L6.15 -4.05 Q7.55 -1.75 8.25 1.55 L6.2 3.6 7.35 5.15 Q9.0 8.35 7.75 11.45 L5.75 11.45 Q2.95 14.65 1.2 14.3 -0.4 14.0 -1.25 12.7 L-2.95 12.7 -4.0 9.1 -2.4 8.55 Q-3.8 7.75 -3.05 6.25 L-5.1 6.25 Q-6.5 4.0 -5.1 0.05 L-4.0 0.05 -1.1 0.05 4.55 -3.4 M3.9 3.95 L2.25 4.3 2.25 8.2 M1.05 1.4 L2.25 4.3 M-2.4 8.55 L-2.4 8.6 -0.45 7.15 -0.7 5.2 -3.05 6.25 M-2.95 12.7 L-2.1 10.45 -2.4 8.6 M5.75 11.45 Q1.75 8.35 -1.25 12.7" fill="none" stroke="#000000" stroke-linecap="round" stroke-linejoin="round" stroke-width="1.0"/>
  </g>
</svg>
