<?xml version="1.0" encoding="UTF-8" standalone="no"?>
<svg xmlns:xlink="http://www.w3.org/1999/xlink" height="20.7px" width="14.6px" xmlns="http://www.w3.org/2000/svg">
  <g transform="matrix(1.0, 0.0, 0.0, 1.0, 6.9, 2.5)">
    <path d="M-4.6 3.25 L-4.6 2.1 Q-4.5 0.65 -4.0 -0.1 L-2.95 -0.55 -0.35 -1.35 6.75 -1.75 Q7.25 -0.25 7.15 1.6 L3.75 1.45 3.35 3.45 5.15 4.75 4.45 6.35 5.8 7.35 5.2 8.5 4.5 9.55 3.7 9.2 1.3 16.7 Q0.05 17.95 -1.85 17.65 L-4.8 17.1 -5.15 13.6 Q-3.15 12.75 -1.85 10.55 L-0.55 8.15 -0.2 6.9 -0.35 6.75 -3.15 4.55 -3.6 4.2 -4.6 3.25 M3.7 9.2 L3.4 9.0 -0.2 6.9 3.4 9.0 3.7 9.2 M1.1 5.2 L2.35 6.15 1.1 5.2 M-2.85 1.9 L0.55 2.1 1.85 2.35 0.55 2.1 -2.85 1.9 M-3.1 15.0 L-1.85 15.95 -3.1 15.0" fill="#323232" fill-rule="evenodd" stroke="none"/>
    <path d="M-5.15 13.6 Q-5.85 12.45 -6.2 10.65 -6.6 8.85 -6.2 6.8 L-4.6 3.25 -3.6 4.2 -3.15 4.55 -0.35 6.75 -0.2 6.9 -0.55 8.15 -1.85 10.55 Q-3.15 12.75 -5.15 13.6" fill="#444444" fill-rule="evenodd" stroke="none"/>
    <path d="M7.15 1.6 Q7.4 3.7 6.6 5.75 L5.8 7.35 4.45 6.35 5.15 4.75 3.35 3.45 3.75 1.45 7.15 1.6" fill="#df930b" fill-rule="evenodd" stroke="none"/>
    <path d="M-4.6 3.25 L-4.6 2.1 Q-4.5 0.65 -4.0 -0.1 L-2.95 -0.55 -0.35 -1.35 6.75 -1.75 Q7.25 -0.25 7.15 1.6 M5.8 7.35 L5.2 8.5 4.5 9.55 3.7 9.2 1.3 16.7 Q0.05 17.95 -1.85 17.65 L-4.8 17.1 -5.15 13.6 Q-3.15 12.75 -1.85 10.55 L-0.55 8.15 -0.2 6.9 3.4 9.0 3.7 9.2 M-4.6 3.25 L-3.6 4.2 -3.15 4.55 -0.35 6.75 -0.2 6.9" fill="none" stroke="#1a1a1a" stroke-linecap="round" stroke-linejoin="round" stroke-width="1.0"/>
    <path d="M-5.15 13.6 Q-5.85 12.45 -6.2 10.65 -6.6 8.85 -6.2 6.8 L-4.6 3.25" fill="none" stroke="#1a1a1a" stroke-linecap="round" stroke-linejoin="miter-clip" stroke-miterlimit="4.0" stroke-width="1.0"/>
    <path d="M2.35 6.15 L1.1 5.2 M-1.85 15.95 L-3.1 15.0" fill="none" stroke="#131313" stroke-linecap="round" stroke-linejoin="miter-clip" stroke-miterlimit="4.0" stroke-width="1.0"/>
    <path d="M7.15 1.6 Q7.4 3.7 6.6 5.75 L5.8 7.35" fill="none" stroke="#6b4605" stroke-linecap="round" stroke-linejoin="miter-clip" stroke-miterlimit="4.0" stroke-width="1.0"/>
    <path d="M1.85 2.35 L0.55 2.1 -2.85 1.9" fill="none" stroke="#df930b" stroke-linecap="round" stroke-linejoin="miter-clip" stroke-miterlimit="4.0" stroke-width="1.0"/>
    <path d="M5.8 7.35 L4.45 6.35 5.15 4.75 3.35 3.45 3.75 1.45 7.15 1.6" fill="none" stroke="#1c1202" stroke-linecap="round" stroke-linejoin="round" stroke-width="1.0"/>
  </g>
</svg>
