<?xml version="1.0" encoding="UTF-8" standalone="no"?>
<svg xmlns:xlink="http://www.w3.org/1999/xlink" height="21.45px" width="11.6px" xmlns="http://www.w3.org/2000/svg">
  <g transform="matrix(1.0, 0.0, 0.0, 1.0, 4.75, 7.05)">
    <path d="M0.65 8.6 L0.65 11.6 3.65 11.6 3.65 8.6 0.65 8.6 M0.7 -4.85 L1.2 -2.95 3.15 -3.45 2.6 -5.4 0.7 -4.85 M3.9 6.25 L3.9 -2.35 -0.9 -1.15 0.3 6.25 3.9 6.25 M5.7 -4.1 Q7.05 -2.3 5.7 12.5 1.35 15.35 -1.1 12.5 L-4.1 -0.5 Q-4.9 -4.2 -1.7 -5.9 2.0 -7.85 5.7 -4.1 M-0.95 -4.5 L-2.85 -3.95 -2.35 -2.05 -0.4 -2.55 -0.95 -4.5" fill="#333333" fill-rule="evenodd" stroke="none"/>
    <path d="M0.7 -4.85 L2.6 -5.4 3.15 -3.45 1.2 -2.95 0.7 -4.85 M0.65 8.6 L3.65 8.6 3.65 11.6 0.65 11.6 0.65 8.6 M-0.95 -4.5 L-0.4 -2.55 -2.35 -2.05 -2.85 -3.95 -0.95 -4.5" fill="#000099" fill-rule="evenodd" stroke="none"/>
    <path d="M3.9 6.25 L0.3 6.25 -0.9 -1.15 3.9 -2.35 3.9 6.25" fill="#666666" fill-rule="evenodd" stroke="none"/>
    <path d="M0.7 -4.85 L2.6 -5.4 3.15 -3.45 1.2 -2.95 0.7 -4.85 M0.65 8.6 L3.65 8.6 3.65 11.6 0.65 11.6 0.65 8.6 M-0.95 -4.5 L-0.4 -2.55 -2.35 -2.05 -2.85 -3.95 -0.95 -4.5" fill="none" stroke="#000043" stroke-linecap="round" stroke-linejoin="round" stroke-width="1.0"/>
    <path d="M3.9 6.25 L3.9 -2.35 -0.9 -1.15 0.3 6.25 3.9 6.25 M5.7 -4.1 Q2.0 -7.85 -1.7 -5.9 -4.9 -4.2 -4.1 -0.5 L-1.1 12.5 Q1.35 15.35 5.7 12.5 7.05 -2.3 5.7 -4.1 Z" fill="none" stroke="#171717" stroke-linecap="round" stroke-linejoin="round" stroke-width="1.0"/>
  </g>
</svg>
