<?xml version="1.0" encoding="UTF-8" standalone="no"?>
<svg xmlns:ffdec="https://www.free-decompiler.com/flash" xmlns:xlink="http://www.w3.org/1999/xlink" ffdec:objectType="shape" height="24.55px" width="21.7px" xmlns="http://www.w3.org/2000/svg">
  <g transform="matrix(1.0, 0.0, 0.0, 1.0, 4.7, 3.9)">
    <path d="M5.45 11.3 Q5.15 6.85 9.65 6.3 L15.9 16.2 Q17.1 18.2 15.9 20.0 14.0 20.55 11.85 19.35 L5.45 11.3" fill="#232121" fill-rule="evenodd" stroke="none"/>
    <path d="M5.45 11.3 L11.85 19.35 Q14.0 20.55 15.9 20.0 17.1 18.2 15.9 16.2 L9.65 6.3 Q5.15 6.85 5.45 11.3 Z" fill="none" stroke="#17181c" stroke-linecap="round" stroke-linejoin="round" stroke-width="1.0"/>
    <path d="M0.6 0.9 Q1.65 -1.2 4.4 -2.55 5.8 -2.65 8.95 -0.6 12.05 1.4 12.9 4.35 L12.9 9.45 Q12.75 11.0 11.8 12.2 10.65 11.6 10.15 11.45 9.4 11.2 8.6 11.45 8.15 11.6 7.05 12.2 7.5 11.4 7.95 11.6 6.85 10.75 6.55 9.5 6.15 7.95 6.65 4.65 1.5 1.95 0.6 0.9 M8.35 7.8 L6.55 9.5 8.35 7.8" fill="#373943" fill-rule="evenodd" stroke="none"/>
    <path d="M7.05 12.2 L5.8 14.05 5.2 13.55 Q1.05 8.7 0.0 3.45 0.05 2.05 0.6 0.9 1.5 1.95 6.65 4.65 6.15 7.95 6.55 9.5 L5.95 10.05 6.55 9.5 Q6.85 10.75 7.95 11.6 7.5 11.4 7.05 12.2" fill="#23252e" fill-rule="evenodd" stroke="none"/>
    <path d="M0.6 0.9 Q1.65 -1.2 4.4 -2.55 5.8 -2.65 8.95 -0.6 12.05 1.4 12.9 4.35 L12.9 9.45 Q12.75 11.0 11.8 12.2 10.65 11.6 10.15 11.45 9.4 11.2 8.6 11.45 8.15 11.6 7.05 12.2 L5.8 14.05 5.2 13.55 Q1.05 8.7 0.0 3.45 0.05 2.05 0.6 0.9" fill="none" stroke="#12121c" stroke-linecap="round" stroke-linejoin="round" stroke-width="1.0"/>
    <path d="M6.55 9.5 L8.35 7.8 M6.55 9.5 L5.95 10.05" fill="none" stroke="#1b1b20" stroke-linecap="round" stroke-linejoin="round" stroke-width="1.0"/>
    <path d="M4.9 -2.8 Q2.4 -1.3 0.85 0.45 -0.3 2.75 0.4 5.3 L-1.85 3.95 Q-1.25 0.15 -4.2 -1.9 -2.25 -3.15 0.35 -3.35 2.9 -3.6 4.9 -2.8 M4.75 8.55 Q2.1 3.75 4.1 0.05 L5.45 0.05 Q6.8 2.5 8.7 5.2 L7.3 5.75 4.75 8.55 M1.1 7.1 L4.25 12.35 1.75 11.55 Q0.6 9.9 -1.7 8.0 -0.15 6.75 1.1 7.1 M12.9 4.9 Q12.55 2.5 9.6 -0.1 11.25 0.55 12.35 -1.15 14.45 2.35 12.9 4.9" fill="#434769" fill-rule="evenodd" stroke="none"/>
    <path d="M4.9 -2.8 L5.5 -2.4 M4.9 -2.8 Q2.4 -1.3 0.85 0.45 -0.3 2.75 0.4 5.3 L-1.85 3.95 Q-1.25 0.15 -4.2 -1.9 -2.25 -3.15 0.35 -3.35 2.9 -3.6 4.9 -2.8 M12.9 4.9 L12.9 6.9 M1.1 7.1 Q-0.15 6.75 -1.7 8.0 0.6 9.9 1.75 11.55 L4.25 12.35 1.1 7.1 M4.75 8.55 L7.3 5.75 8.7 5.2 Q6.8 2.5 5.45 0.05 L4.1 0.05 Q2.1 3.75 4.75 8.55 M12.9 4.9 Q12.55 2.5 9.6 -0.1 11.25 0.55 12.35 -1.15 14.45 2.35 12.9 4.9 Z" fill="none" stroke="#141520" stroke-linecap="round" stroke-linejoin="round" stroke-width="1.0"/>
  </g>
</svg>
