<?xml version="1.0" encoding="UTF-8" standalone="no"?>
<svg xmlns:ffdec="https://www.free-decompiler.com/flash" xmlns:xlink="http://www.w3.org/1999/xlink" ffdec:objectType="shape" height="20.65px" width="15.75px" xmlns="http://www.w3.org/2000/svg">
  <g transform="matrix(1.0, 0.0, 0.0, 1.0, 8.55, 5.65)">
    <path d="M-5.8 10.7 L-4.75 5.8 1.9 7.65 0.65 12.4 -1.15 14.35 -2.2 14.7 -3.4 14.6 -4.55 14.2 -5.35 12.75 -5.8 10.7" fill="#121313" fill-rule="evenodd" stroke="none"/>
    <path d="M-5.8 2.75 Q-4.6 5.05 -5.85 10.25" ffdec:has-small-stroke="true" ffdec:original-stroke-width="0.9" fill="none" stroke="#000000" stroke-linecap="round" stroke-linejoin="round" stroke-width="1.0"/>
    <path d="M4.0 5.05 Q2.85 5.85 1.85 8.35 1.45 9.3 0.75 12.1" ffdec:has-small-stroke="true" ffdec:original-stroke-width="0.9" fill="none" stroke="#000000" stroke-linecap="round" stroke-linejoin="round" stroke-width="1.0"/>
    <path d="M-6.8 -2.4 L-3.45 -4.45 -1.15 -5.35 2.25 -4.55 6.6 1.35 5.9 6.15 3.6 6.6 1.8 8.3 Q-1.8 8.2 -5.8 6.35 L-6.25 3.95 -7.95 2.85 -6.8 -2.4" fill="url(#gradient0)" fill-rule="evenodd" stroke="none"/>
    <path d="M0.9 -0.55 Q0.3 -0.4 0.15 0.1 -0.05 0.65 0.6 1.15" ffdec:has-small-stroke="true" ffdec:original-stroke-width="0.9" fill="none" stroke="#39191c" stroke-linecap="round" stroke-linejoin="round" stroke-width="1.0"/>
    <path d="M-0.6 -1.0 Q-0.1 -0.55 -0.2 -0.05 -0.3 0.5 -1.15 0.65" ffdec:has-small-stroke="true" ffdec:original-stroke-width="0.9" fill="none" stroke="#39191c" stroke-linecap="round" stroke-linejoin="round" stroke-width="1.0"/>
    <path d="M-5.9 10.55 L-5.35 13.1 Q-4.6 14.35 -3.35 14.55 -2.5 14.65 -1.15 14.15 L0.55 12.35" ffdec:has-small-stroke="true" ffdec:original-stroke-width="0.9" fill="none" stroke="#000000" stroke-linecap="round" stroke-linejoin="round" stroke-width="1.0"/>
    <path d="M-6.05 3.75 Q-3.95 3.9 -2.7 0.7" ffdec:has-small-stroke="true" ffdec:original-stroke-width="0.9" fill="none" stroke="#1c1c1c" stroke-linecap="round" stroke-linejoin="round" stroke-width="1.0"/>
    <path d="M4.1 6.0 Q2.5 5.25 2.1 3.9 L1.85 1.95" ffdec:has-small-stroke="true" ffdec:original-stroke-width="0.9" fill="none" stroke="#1c1c1c" stroke-linecap="round" stroke-linejoin="round" stroke-width="1.0"/>
    <path d="M-5.85 6.3 Q-5.65 5.55 -6.25 4.2 -7.05 2.75 -8.1 2.65 L-7.1 -1.95 -3.25 -4.4 Q1.1 -6.7 4.3 -2.35 L6.75 1.35 6.15 6.0 Q5.1 5.8 3.8 6.45 2.35 7.25 2.2 8.35 -2.55 8.35 -5.85 6.3 Z" ffdec:has-small-stroke="true" ffdec:original-stroke-width="0.9" fill="none" stroke="#0d0d0d" stroke-linecap="round" stroke-linejoin="round" stroke-width="1.0"/>
    <path d="M3.05 1.7 L3.55 1.6" ffdec:has-small-stroke="true" ffdec:original-stroke-width="0.9" fill="none" stroke="#0d0d0d" stroke-linecap="round" stroke-linejoin="round" stroke-width="1.0"/>
    <path d="M-3.6 -0.1 L-4.0 -0.45" ffdec:has-small-stroke="true" ffdec:original-stroke-width="0.9" fill="none" stroke="#0d0d0d" stroke-linecap="round" stroke-linejoin="round" stroke-width="1.0"/>
  </g>
  <defs>
    <radialGradient cx="0" cy="0" gradientTransform="matrix(0.0075, 0.0019, -0.0018, 0.0069, -0.1, 0.85)" gradientUnits="userSpaceOnUse" id="gradient0" r="819.2" spreadMethod="pad">
      <stop offset="0.0" stop-color="#2f3232"/>
      <stop offset="1.0" stop-color="#191a1a"/>
    </radialGradient>
  </defs>
</svg>
