<?xml version="1.0" encoding="UTF-8" standalone="no"?>
<svg xmlns:xlink="http://www.w3.org/1999/xlink" height="23.15px" width="15.0px" xmlns="http://www.w3.org/2000/svg">
  <g transform="matrix(1.0, 0.0, 0.0, 1.0, 6.8, 3.65)">
    <path d="M-0.6 -2.8 Q1.3 -2.95 3.35 -1.65 L5.05 -0.35 5.8 2.85 Q6.6 6.45 6.5 8.25 L6.25 10.45 Q6.55 10.9 5.95 10.95 5.2 11.0 5.15 11.3 L5.8 11.6 6.5 12.25 6.2 12.65 5.7 13.05 4.6 16.95 Q4.05 18.55 1.7 18.95 -0.7 19.3 -1.65 17.85 -2.05 15.95 -3.0 14.0 -3.1 13.9 -3.55 13.75 L-4.05 13.45 -4.05 12.8 Q-3.95 12.4 -4.1 12.2 L-4.15 11.4 Q-4.1 10.85 -4.35 10.75 -5.25 11.25 -5.6 11.05 L-5.6 10.65 -5.35 10.1 -5.95 6.0 Q-6.2 2.85 -5.75 0.25 L-4.7 -1.1 Q-3.15 -2.55 -0.6 -2.8" fill="#444444" fill-rule="evenodd" stroke="none"/>
    <path d="M-0.6 -2.8 Q-3.15 -2.55 -4.7 -1.1 L-5.75 0.25 Q-6.2 2.85 -5.95 6.0 L-5.35 10.1 -5.6 10.65 -5.6 11.05 Q-5.25 11.25 -4.35 10.75 -4.1 10.85 -4.15 11.4 L-4.1 12.2 Q-3.95 12.4 -4.05 12.8 L-4.05 13.45 -3.55 13.75 Q-3.1 13.9 -3.0 14.0 -2.05 15.95 -1.65 17.85 -0.7 19.3 1.7 18.95 4.05 18.55 4.6 16.95 L5.7 13.05 6.2 12.65 6.5 12.25 5.8 11.6 5.15 11.3 Q5.2 11.0 5.95 10.95 6.55 10.9 6.25 10.45 L6.5 8.25 Q6.6 6.45 5.8 2.85 L5.05 -0.35 3.35 -1.65 Q1.3 -2.95 -0.6 -2.8 Z" fill="none" stroke="#1a1a1a" stroke-linecap="round" stroke-linejoin="round" stroke-width="1.05"/>
    <path d="M-1.0 -3.15 L1.1 -3.05 1.4 -1.05 Q1.85 1.1 2.55 1.9 3.1 2.5 4.75 3.0 L6.25 3.4 Q6.6 4.1 6.65 6.8 L6.6 9.35 -5.75 8.85 Q-6.1 7.55 -6.25 5.35 L-6.3 3.4 -4.85 2.9 Q-3.25 2.3 -2.7 1.7 -2.0 0.9 -1.4 -1.2 L-1.0 -3.15" fill="#323232" fill-rule="evenodd" stroke="none"/>
    <path d="M-1.0 -3.15 L1.1 -3.05 1.4 -1.05 Q1.85 1.1 2.55 1.9 3.1 2.5 4.75 3.0 L6.25 3.4 Q6.6 4.1 6.65 6.8 L6.6 9.35 -5.75 8.85 Q-6.1 7.55 -6.25 5.35 L-6.3 3.4 -4.85 2.9 Q-3.25 2.3 -2.7 1.7 -2.0 0.9 -1.4 -1.2 L-1.0 -3.15 Z" fill="none" stroke="#1a1a1a" stroke-linecap="round" stroke-linejoin="round" stroke-width="1.05"/>
    <path d="M-1.4 13.2 L-0.25 12.3 Q1.15 11.45 2.75 11.3" fill="none" stroke="#1a1a1a" stroke-linecap="round" stroke-linejoin="round" stroke-width="1.05"/>
    <path d="M-2.2 4.5 L2.25 4.35 2.0 10.8 -2.05 10.75 -2.2 4.5" fill="#2a2a2a" fill-rule="evenodd" stroke="none"/>
    <path d="M-2.2 4.5 L-2.05 10.75 2.0 10.8 2.25 4.35" fill="none" stroke="#131313" stroke-linecap="round" stroke-linejoin="round" stroke-width="1.05"/>
    <path d="M-2.2 4.5 L2.25 4.35" fill="none" stroke="#1a1a1a" stroke-linecap="round" stroke-linejoin="round" stroke-width="1.05"/>
    <path d="M7.65 7.1 Q7.6 9.1 7.25 9.75 L3.9 9.8 Q4.35 6.75 4.1 5.2 5.05 4.9 7.7 5.15 L7.65 7.1" fill="#2a2a2a" fill-rule="evenodd" stroke="none"/>
    <path d="M7.65 7.1 Q7.6 9.1 7.25 9.75 L3.9 9.8 Q4.35 6.75 4.1 5.2 5.05 4.9 7.7 5.15 L7.65 7.1 Z" fill="none" stroke="#131313" stroke-linecap="round" stroke-linejoin="round" stroke-width="1.05"/>
    <path d="M-4.3 3.2 L-4.25 5.65 -6.2 5.75" fill="none" stroke="#1a1a1a" stroke-linecap="round" stroke-linejoin="round" stroke-width="1.05"/>
    <path d="M0.0 4.85 L-0.1 7.35" fill="none" stroke="#1a1a1a" stroke-linecap="round" stroke-linejoin="round" stroke-width="1.05"/>
    <path d="M-2.2 1.3 L-1.0 2.05 Q0.55 2.65 2.2 1.75" fill="none" stroke="#292929" stroke-linecap="round" stroke-linejoin="round" stroke-width="1.05"/>
  </g>
</svg>
