<?xml version="1.0" encoding="UTF-8" standalone="no"?>
<svg xmlns:xlink="http://www.w3.org/1999/xlink" height="23.75px" width="12.3px" xmlns="http://www.w3.org/2000/svg">
  <g transform="matrix(1.0, 0.0, 0.0, 1.0, 6.6, 3.55)">
    <path d="M3.75 -0.1 L3.7 1.25 2.6 7.4 Q1.65 12.05 1.4 14.9 1.35 15.75 1.7 17.3 L2.2 19.7 -1.55 19.55 -6.1 18.7 Q-5.8 17.9 -5.6 11.9 -5.45 5.9 -5.0 2.75 L-4.65 0.45 Q-4.35 -0.65 -3.4 -0.45 -2.25 -0.15 -0.3 -0.95 L2.3 -1.85 Q3.0 -1.75 3.4 -1.1 L3.75 -0.1 M-0.45 13.65 L-1.15 15.35 Q-1.7 17.3 -0.85 18.45 -1.7 17.3 -1.15 15.35 L-0.45 13.65 M-2.25 6.8 L-2.8 7.65 -3.45 9.75 -2.8 7.65 -2.25 6.8 M-0.45 4.6 L0.55 3.05 Q1.55 1.2 1.55 -0.05 1.55 1.2 0.55 3.05 L-0.45 4.6" fill="#636363" fill-rule="evenodd" stroke="none"/>
    <path d="M3.75 -0.1 L3.7 1.25 2.6 7.4 Q1.65 12.05 1.4 14.9 1.35 15.75 1.7 17.3 L2.2 19.7 -1.55 19.55 -6.1 18.7 Q-5.8 17.9 -5.6 11.9 -5.45 5.9 -5.0 2.75 L-4.65 0.45 Q-4.35 -0.65 -3.4 -0.45 -2.25 -0.15 -0.3 -0.95 L2.3 -1.85 Q3.0 -1.75 3.4 -1.1 L3.75 -0.1" fill="none" stroke="#333333" stroke-linecap="round" stroke-linejoin="round" stroke-width="1.05"/>
    <path d="M1.55 -0.05 Q1.55 1.2 0.55 3.05 L-0.45 4.6 M-3.45 9.75 L-2.8 7.65 -2.25 6.8 M-0.85 18.45 Q-1.7 17.3 -1.15 15.35 L-0.45 13.65" fill="none" stroke="#4d4d4d" stroke-linecap="round" stroke-linejoin="round" stroke-width="1.05"/>
    <path d="M-5.0 -0.2 Q-4.7 -0.65 -0.3 -1.65 L4.05 -2.2 Q3.75 -0.7 4.05 1.1 L-0.55 1.2 -5.2 1.4 -5.0 0.85 Q-4.75 0.15 -5.0 -0.2" fill="#4d514e" fill-rule="evenodd" stroke="none"/>
    <path d="M-5.0 -0.2 Q-4.75 0.15 -5.0 0.85 L-5.2 1.4 -0.55 1.2 4.05 1.1 Q3.75 -0.7 4.05 -2.2 L-0.3 -1.65 Q-4.7 -0.65 -5.0 -0.2 Z" fill="none" stroke="#2a2c2b" stroke-linecap="round" stroke-linejoin="round" stroke-width="1.05"/>
    <path d="M-0.15 -0.2 L2.45 -0.5" fill="none" stroke="#2a2c2b" stroke-linecap="round" stroke-linejoin="round" stroke-width="1.05"/>
    <path d="M4.65 -3.05 Q5.3 -2.4 5.2 -0.85 5.15 0.85 4.25 1.8 1.9 0.7 2.2 -0.8 2.4 -2.25 4.65 -3.05" fill="#4d514e" fill-rule="evenodd" stroke="none"/>
    <path d="M4.65 -3.05 Q2.4 -2.25 2.2 -0.8 1.9 0.7 4.25 1.8 5.15 0.85 5.2 -0.85 5.3 -2.4 4.65 -3.05 Z" fill="none" stroke="#252927" stroke-linecap="round" stroke-linejoin="round" stroke-width="1.05"/>
  </g>
</svg>
