<?xml version="1.0" encoding="UTF-8" standalone="no"?>
<svg xmlns:ffdec="https://www.free-decompiler.com/flash" xmlns:xlink="http://www.w3.org/1999/xlink" ffdec:objectType="shape" height="25.55px" width="14.7px" xmlns="http://www.w3.org/2000/svg">
  <g transform="matrix(1.0, 0.0, 0.0, 1.0, 9.65, 5.9)">
    <path d="M2.7 3.2 L0.25 10.35 Q0.8 15.5 -1.75 18.0 -4.4 20.65 -7.0 16.25 -8.05 15.65 -8.0 14.25 -7.85 12.6 -8.0 11.85 L-3.8 -2.15 -5.45 4.95 -5.35 7.1 -3.55 7.05 -4.4 6.1 Q-4.9 5.6 -2.1 5.6 L-0.85 2.35 2.55 3.3 2.6 3.2 2.7 3.2" fill="#46534f" fill-rule="evenodd" stroke="none"/>
    <path d="M-6.9 7.45 L-7.15 10.6 Q-7.35 12.75 -8.15 12.8 -9.2 10.2 -8.35 6.3 -7.9 3.95 -6.9 1.65 -5.95 -0.6 -5.35 -0.95 L-3.8 -2.15 Q-4.1 -0.65 -5.45 2.85 L-6.9 7.45" fill="#2a2a2a" fill-rule="evenodd" stroke="none"/>
    <path d="M-6.9 7.45 L-5.45 2.85 Q-4.1 -0.65 -3.8 -2.15 L-5.35 -0.95 Q-5.95 -0.6 -6.9 1.65 -7.9 3.95 -8.35 6.3 -9.2 10.2 -8.15 12.8 -7.35 12.75 -7.15 10.6 L-6.9 7.45 Z" fill="none" stroke="#1e1e1e" stroke-linecap="butt" stroke-linejoin="miter-clip" stroke-miterlimit="11.33984375" stroke-width="1.05"/>
    <path d="M-6.65 1.35 Q-6.35 -1.0 -4.05 -3.25 -1.95 -5.45 -0.4 -5.35 L1.75 -4.8 Q5.3 -1.5 4.3 3.95 L2.15 5.0 2.05 5.05 2.05 5.15 -1.4 4.2 -3.6 5.8 -4.4 8.2 -6.4 8.15 -6.5 5.85 -5.35 3.2 -6.65 1.35" fill="#666666" fill-rule="evenodd" stroke="none"/>
    <path d="M-6.65 1.35 Q-6.35 -1.0 -4.05 -3.25 -1.95 -5.45 -0.4 -5.35 L1.75 -4.8 Q5.3 -1.5 4.3 3.95 L2.15 5.0 2.05 5.05 2.05 5.15 -1.4 4.2 -3.6 5.8 -4.4 8.2 -6.4 8.15 -6.5 5.85 -5.35 3.2 -6.65 1.35 Z" fill="none" stroke="#212121" stroke-linecap="round" stroke-linejoin="round" stroke-width="1.1"/>
    <path d="M2.1 4.75 L0.25 10.35 0.35 13.25 Q0.25 15.0 -0.05 15.75 -0.3 16.4 -1.0 17.05 L-2.0 17.9 -2.4 18.55 -2.95 19.05 Q-4.8 19.5 -6.3 18.15 -8.2 16.45 -7.95 12.95" fill="none" stroke="#212b2b" stroke-linecap="round" stroke-linejoin="round" stroke-width="1.05"/>
    <path d="M-5.85 7.95 L-6.3 7.85 -6.1 4.2 -4.55 1.95 -3.2 0.75 Q-1.25 -0.25 0.25 1.3 1.5 2.75 1.45 4.3 L-0.7 4.3 1.8 6.0 0.0 10.95 -3.65 10.45 -8.2 12.1 -6.9 7.95 -5.85 7.95 -3.85 8.45 -4.2 7.4 -4.5 8.0 -5.85 7.95 M-0.55 -4.15 Q0.5 -3.65 1.55 -3.3 L1.8 -2.0 -1.6 -3.15 -0.55 -4.15 M-0.7 4.3 L-0.8 4.2 -3.25 5.85 -0.75 4.3 -0.7 4.3" fill="#2b2b2b" fill-opacity="0.41568628" fill-rule="evenodd" stroke="none"/>
  </g>
</svg>
