<?xml version="1.0" encoding="UTF-8" standalone="no"?>
<svg xmlns:ffdec="https://www.free-decompiler.com/flash" xmlns:xlink="http://www.w3.org/1999/xlink" ffdec:objectType="shape" height="20.45px" width="11.15px" xmlns="http://www.w3.org/2000/svg">
  <g transform="matrix(1.0, 0.0, 0.0, 1.0, 5.45, 5.6)">
    <path d="M3.45 -2.1 Q3.25 -3.9 0.7 -4.3 -1.85 -4.65 -2.6 -3.1 -3.4 -1.55 -1.65 2.2 0.05 5.95 1.85 2.85 3.65 -0.35 3.45 -2.1 M1.25 14.3 Q-1.6 13.9 -2.65 11.5 -2.85 9.6 -3.35 8.05 -4.95 3.3 -4.95 -0.75 L-4.85 -1.75 Q-4.7 -2.8 -4.2 -3.5 -3.2 -4.9 -0.8 -5.1 3.3 -5.4 4.5 -1.6 5.7 2.05 4.85 11.5 4.1 14.7 1.25 14.3" fill="#000033" fill-rule="evenodd" stroke="none"/>
    <path d="M3.45 -2.1 Q3.65 -0.35 1.85 2.85 0.05 5.95 -1.65 2.2 -3.4 -1.55 -2.6 -3.1 -1.85 -4.65 0.7 -4.3 3.25 -3.9 3.45 -2.1" fill="#514d80" fill-rule="evenodd" stroke="none"/>
    <path d="M3.45 -2.1 Q3.65 -0.35 1.85 2.85 0.05 5.95 -1.65 2.2 -3.4 -1.55 -2.6 -3.1 -1.85 -4.65 0.7 -4.3 3.25 -3.9 3.45 -2.1 M1.25 14.3 Q-1.6 13.9 -2.65 11.5 -2.85 9.6 -3.35 8.05 -4.95 3.3 -4.95 -0.75 L-4.85 -1.75 Q-4.7 -2.8 -4.2 -3.5 -3.2 -4.9 -0.8 -5.1 3.3 -5.4 4.5 -1.6 5.7 2.05 4.85 11.5 4.1 14.7 1.25 14.3 Z" fill="none" stroke="#000017" stroke-linecap="round" stroke-linejoin="round" stroke-width="1.0"/>
  </g>
</svg>
