<?xml version="1.0" encoding="UTF-8" standalone="no"?>
<svg xmlns:ffdec="https://www.free-decompiler.com/flash" xmlns:xlink="http://www.w3.org/1999/xlink" ffdec:objectType="shape" height="15.55px" width="10.35px" xmlns="http://www.w3.org/2000/svg">
  <g transform="matrix(1.0, 0.0, 0.0, 1.0, -10.75, 0.0)">
    <path d="M17.15 8.95 L17.0 8.8 16.7 8.4 16.7 7.55 16.7 7.45 16.4 7.45 16.4 8.4 16.2 8.5 Q15.9 8.65 15.75 8.95 L15.6 8.95 15.45 9.4 15.45 10.0 15.3 10.25 15.0 10.25 15.0 10.7 14.55 10.9 14.55 11.1 14.05 11.1 14.05 11.4 14.15 11.7 14.4 12.6 14.55 12.6 14.8 15.25 Q14.2 14.7 14.2 14.25 L14.05 13.9 Q14.05 13.8 13.9 13.8 L13.9 13.4 14.05 13.2 13.65 12.6 13.5 12.6 13.35 12.4 13.05 12.25 13.05 11.8 12.95 11.7 12.95 11.55 12.95 11.1 13.45 11.1 Q13.45 10.8 13.55 10.8 L13.75 11.1 13.85 10.25 14.15 10.25 14.05 9.85 13.85 9.4 13.8 8.95 13.75 8.95 13.75 9.15 13.85 10.0 13.85 10.25 13.55 10.25 13.55 10.5 13.45 10.25 13.35 10.25 13.05 10.0 13.05 8.8 13.3 8.8 13.7 8.8 13.9 8.95 13.95 8.95 14.0 8.4 14.2 7.45 13.7 7.45 13.7 7.4 13.7 7.3 14.25 7.3 14.25 6.7 14.25 6.6 14.35 6.4 14.35 6.0 14.1 6.0 14.1 5.95 14.1 5.25 13.8 5.25 13.7 4.7 Q13.5 4.4 13.5 4.7 L13.4 4.7 13.0 4.4 12.65 4.4 12.65 4.2 12.65 4.1 12.4 4.2 12.35 4.3 12.2 4.2 11.55 4.0 11.15 3.9 Q10.85 3.9 10.75 3.5 L10.75 3.4 11.0 3.4 11.0 3.1 11.1 3.0 11.3 2.55 11.65 2.55 11.75 2.4 11.8 2.25 12.0 2.0 11.75 2.0 11.95 1.8 12.2 1.8 12.35 1.7 12.8 1.4 13.05 1.0 13.25 0.8 13.65 0.7 13.95 0.7 14.85 0.1 15.2 0.0 15.45 0.1 15.95 0.3 16.05 0.0 16.35 0.0 16.75 0.0 17.05 0.1 17.35 0.3 Q17.55 0.1 18.05 0.3 L18.75 0.55 19.05 0.7 19.65 0.8 19.9 1.4 20.25 2.0 20.5 2.0 20.6 2.5 21.0 2.55 20.65 2.55 20.8 2.7 20.8 3.0 21.1 3.25 21.1 3.4 20.85 3.4 20.7 3.9 20.55 3.9 Q20.3 3.5 20.15 3.9 L20.0 4.0 19.55 4.0 19.4 4.1 19.3 4.3 19.3 4.0 19.0 4.3 19.1 4.4 19.45 4.4 19.35 4.8 Q19.05 4.8 19.05 5.0 L18.9 5.0 18.9 5.1 18.9 5.25 19.2 5.25 19.05 5.5 18.95 5.7 Q18.8 5.8 18.8 5.95 L18.95 6.6 18.95 6.7 18.95 7.3 18.4 7.3 18.4 7.4 18.4 7.45 18.9 7.45 19.0 8.1 19.3 8.8 19.3 8.95 19.35 8.95 19.7 8.5 20.0 8.5 20.15 8.8 20.15 8.95 20.0 8.95 20.0 9.15 19.85 9.7 19.55 9.85 19.55 10.1 19.45 10.25 19.15 10.25 18.85 10.7 18.7 10.8 18.7 10.9 18.55 10.9 18.55 10.5 18.65 10.25 18.95 10.25 19.0 9.85 19.15 9.4 19.15 9.1 18.6 10.25 18.3 10.25 18.45 10.5 18.45 10.9 18.45 11.1 17.95 11.1 17.5 11.7 17.35 11.8 17.35 12.4 17.5 12.4 17.95 12.1 17.95 12.4 Q17.8 12.4 17.8 12.5 L17.7 12.6 17.85 12.6 17.65 13.1 17.65 13.4 17.5 14.25 17.25 14.4 17.0 14.95 16.8 15.55 Q16.6 14.95 16.8 14.25 L17.25 12.7 17.2 12.6 17.05 12.6 16.85 11.8 17.1 11.4 17.2 11.1 17.7 11.1 17.6 10.9 17.35 10.5 17.25 10.25 17.55 10.25 17.65 10.1 17.65 9.85 17.65 9.7 17.25 9.4 17.45 9.3 17.45 9.15 17.25 8.95 17.15 8.95 17.15 9.0 17.0 8.95 17.15 8.95 M16.85 0.8 L16.85 0.7 16.35 0.7 16.15 0.55 16.15 1.0 16.35 1.9 16.35 2.0 16.6 2.0 16.45 2.25 16.4 2.3 16.6 2.55 16.65 2.55 16.7 2.4 17.0 2.4 17.1 2.3 17.3 2.1 17.3 2.0 17.05 2.0 17.05 1.7 16.85 1.7 16.75 1.6 16.85 0.8 M20.8 7.1 L20.8 7.3 20.25 7.3 20.2 7.45 20.7 7.45 20.75 7.55 20.9 7.7 20.6 8.1 20.4 8.3 20.15 8.5 20.0 8.4 19.9 8.4 19.9 8.1 19.9 7.7 20.15 7.55 20.15 7.45 19.65 7.45 19.65 7.3 20.2 7.3 20.2 6.85 Q20.65 6.85 20.8 7.1 M15.3 2.0 L15.3 2.55 15.55 2.55 15.55 2.0 15.3 2.0 15.3 1.8 15.05 1.8 15.05 2.0 15.3 2.0 M15.6 6.0 L15.6 5.25 15.35 5.25 15.35 6.0 15.6 6.0 M15.7 4.2 L15.7 4.4 16.05 4.4 16.05 4.7 16.35 5.0 16.45 5.25 16.75 5.25 16.75 5.5 16.75 5.95 16.65 6.4 16.45 6.6 16.45 7.3 16.7 7.3 16.65 6.85 16.75 6.6 16.75 6.4 17.05 6.1 17.15 5.5 17.15 5.25 16.85 5.25 16.85 5.0 16.45 4.4 16.1 4.4 16.05 4.2 Q15.9 3.8 15.9 3.4 L15.8 3.4 15.7 4.2 M16.25 2.7 L16.05 3.25 16.05 3.4 16.15 3.4 16.25 2.7 16.3 2.55 16.25 2.55 16.25 2.7 M15.3 4.4 L15.05 4.4 15.05 5.25 15.3 5.25 15.3 4.4 M17.3 8.8 L17.3 8.95 17.4 8.95 17.3 8.8 M15.9 7.4 L15.9 7.45 16.2 7.45 16.15 7.3 15.9 7.3 15.9 7.4 M13.35 11.8 L13.65 12.1 13.75 12.4 13.75 12.25 13.65 11.8 13.65 11.55 13.25 11.4 13.25 11.7 13.35 11.8 M12.4 8.8 L12.55 8.8 12.55 10.0 12.4 9.85 12.25 9.4 11.95 9.15 11.95 8.95 12.1 8.95 12.1 8.8 12.4 8.8 M14.95 3.4 L14.7 3.4 14.7 4.4 14.95 4.4 14.95 3.4 15.2 3.4 15.2 2.55 14.95 2.55 14.95 3.4" fill="#ffa3a3" fill-opacity="0.7490196" fill-rule="evenodd" stroke="none"/>
  </g>
</svg>
