<?xml version="1.0" encoding="UTF-8" standalone="no"?>
<svg xmlns:xlink="http://www.w3.org/1999/xlink" height="23.0px" width="15.0px" xmlns="http://www.w3.org/2000/svg">
  <g transform="matrix(1.0, 0.0, 0.0, 1.0, 8.95, 3.1)">
    <path d="M-8.35 8.1 Q-8.25 6.75 -7.8 6.05 -7.4 5.5 -7.5 4.8 L-6.25 2.5 -5.6 1.75 -4.4 0.75 Q-2.85 -0.25 -1.3 -0.35 L0.85 0.1 2.15 0.65 2.15 3.3 Q2.0 6.7 1.35 10.35 0.95 11.25 1.5 12.95 1.95 14.35 1.5 14.45 0.9 14.6 0.8 14.7 0.65 14.9 0.45 15.9 0.45 17.35 0.85 18.65 -0.75 19.5 -4.05 19.4 L-7.05 19.15 -7.0 16.35 -7.4 14.6 -7.7 13.6 Q-7.75 12.75 -8.35 11.6 -8.65 11.0 -8.05 10.5 -7.6 10.05 -7.8 9.55 L-8.35 8.1" fill="#22232c" fill-rule="evenodd" stroke="none"/>
    <path d="M-8.35 8.1 L-7.8 9.55 Q-7.6 10.05 -8.05 10.5 -8.65 11.0 -8.35 11.6 -7.75 12.75 -7.7 13.6 L-7.4 14.6 -7.0 16.35 -7.05 19.15 -4.05 19.4 Q-0.75 19.5 0.85 18.65 0.45 17.35 0.45 15.9 0.65 14.9 0.8 14.7 0.9 14.6 1.5 14.45 1.95 14.35 1.5 12.95 0.95 11.25 1.35 10.35 2.0 6.7 2.15 3.3 L2.15 0.65 0.85 0.1 -1.3 -0.35 Q-2.85 -0.25 -4.4 0.75 L-5.6 1.75 -6.25 2.5 -7.5 4.8 Q-7.4 5.5 -7.8 6.05 -8.25 6.75 -8.35 8.1 Z" fill="none" stroke="#0e0f13" stroke-linecap="round" stroke-linejoin="round" stroke-width="1.05"/>
    <path d="M-1.6 10.3 Q-3.45 10.2 -4.4 9.15 -5.55 7.95 -6.5 7.65 L-5.95 7.7 -4.7 7.45 Q-2.85 6.8 -2.15 4.75 -1.75 4.15 -2.05 3.8 -2.1 3.65 -2.8 3.2 -4.0 2.3 -3.05 0.55" fill="none" stroke="#0e0f13" stroke-linecap="round" stroke-linejoin="round" stroke-width="1.05"/>
    <path d="M5.45 -0.15 Q5.7 0.9 5.2 2.55 L4.45 5.3 Q4.35 6.7 3.5 7.35 L2.65 7.8 1.85 4.45 Q1.6 2.95 2.4 0.05 L3.25 -2.6 4.15 -2.1 Q5.15 -1.3 5.45 -0.15" fill="#343d4c" fill-rule="evenodd" stroke="none"/>
    <path d="M5.45 -0.15 Q5.7 0.9 5.2 2.55 L4.45 5.3 Q4.35 6.7 3.5 7.35 L2.65 7.8 1.85 4.45 Q1.6 2.95 2.4 0.05 L3.25 -2.6 4.15 -2.1 Q5.15 -1.3 5.45 -0.15 Z" fill="none" stroke="#0c1015" stroke-linecap="round" stroke-linejoin="round" stroke-width="1.05"/>
    <path d="M-7.65 5.0 L-7.15 3.6 2.05 3.55 2.15 5.0 -7.65 5.0" fill="#080b0c" fill-rule="evenodd" stroke="none"/>
    <path d="M-7.65 5.0 L2.15 5.0 2.05 3.55 -7.15 3.6 -7.65 5.0 Z" fill="none" stroke="#080b0c" stroke-linecap="round" stroke-linejoin="round" stroke-width="1.05"/>
    <path d="M-5.15 0.7 L-5.7 -0.75 2.75 -0.9 2.5 0.45 -5.15 0.7" fill="#080b0c" fill-rule="evenodd" stroke="none"/>
    <path d="M-5.15 0.7 L2.5 0.45 2.75 -0.9 -5.7 -0.75 -5.15 0.7 Z" fill="none" stroke="#080b0c" stroke-linecap="round" stroke-linejoin="round" stroke-width="1.05"/>
    <path d="M-5.8 13.75 Q-3.9 15.2 -1.5 15.0" fill="none" stroke="#0e0f13" stroke-linecap="round" stroke-linejoin="round" stroke-width="1.05"/>
    <path d="M-7.3 16.0 L0.65 16.5 Q0.7 16.95 -3.25 17.05 L-7.25 17.1 Q-7.15 16.5 -7.3 16.0" fill="#080b0c" fill-rule="evenodd" stroke="none"/>
    <path d="M-7.3 16.0 L0.65 16.5 Q0.7 16.95 -3.25 17.05 L-7.25 17.1 Q-7.15 16.5 -7.3 16.0 Z" fill="none" stroke="#080b0c" stroke-linecap="round" stroke-linejoin="round" stroke-width="1.05"/>
  </g>
</svg>
