<?xml version="1.0" encoding="UTF-8" standalone="no"?>
<svg xmlns:ffdec="https://www.free-decompiler.com/flash" xmlns:xlink="http://www.w3.org/1999/xlink" ffdec:objectType="shape" height="21.05px" width="15.15px" xmlns="http://www.w3.org/2000/svg">
  <g transform="matrix(1.0, 0.0, 0.0, 1.0, 7.4, 8.0)">
    <path d="M2.2 -0.8 L3.45 -2.75 2.2 -0.8 M-6.05 -3.85 L-6.55 -4.1 -6.9 -5.7 Q-5.25 -6.85 -1.95 -7.35 1.3 -7.9 4.3 -6.6 L5.35 -2.65 5.1 -2.25 3.2 0.55 4.45 5.55 7.05 7.2 7.25 7.3 Q6.05 11.1 3.1 12.35 L-0.4 12.15 Q-2.15 11.4 -3.1 9.7 L-4.6 4.9 -4.1 4.1 -2.75 2.15 -3.9 -2.75 -6.05 -3.85 M0.15 9.7 L3.45 8.25 2.95 7.65 Q2.45 7.2 1.7 7.3 0.95 7.35 0.45 7.9 0.0 8.5 0.1 9.25 L0.15 9.7 0.7 10.45 Q1.3 10.95 2.05 10.9 2.8 10.8 3.2 10.2 3.7 9.65 3.65 8.9 L3.45 8.25 3.65 8.9 Q3.7 9.65 3.2 10.2 2.8 10.8 2.05 10.9 1.3 10.95 0.7 10.45 L0.15 9.7 0.1 9.25 Q0.0 8.5 0.45 7.9 0.95 7.35 1.7 7.3 2.45 7.2 2.95 7.65 L3.45 8.25 0.15 9.7 M-1.15 2.7 L-2.5 4.55 -1.15 2.7" fill="#666f78" fill-rule="evenodd" stroke="none"/>
    <path d="M-6.05 -3.85 L-3.9 -2.75 -2.75 2.15 -4.1 4.1 Q-5.6 1.15 -6.05 -3.85 M7.05 7.2 L4.45 5.55 3.2 0.55 5.1 -2.25 7.05 7.2" fill="#037fff" fill-rule="evenodd" stroke="none"/>
    <path d="M5.1 -2.25 L5.35 -2.65 4.3 -6.6 Q1.3 -7.9 -1.95 -7.35 -5.25 -6.85 -6.9 -5.7 L-6.55 -4.1 -6.05 -3.85 -3.9 -2.75 -2.75 2.15 -4.1 4.1 -4.6 4.9 -3.1 9.7 Q-2.15 11.4 -0.4 12.15 L3.1 12.35 Q6.05 11.1 7.25 7.3 L7.05 7.2 4.45 5.55 3.2 0.55 5.1 -2.25" fill="none" stroke="#292c32" stroke-linecap="round" stroke-linejoin="round" stroke-width="1.0"/>
    <path d="M3.45 -2.75 L2.2 -0.8 M-2.5 4.55 L-1.15 2.7" fill="none" stroke="#4d545c" stroke-linecap="round" stroke-linejoin="round" stroke-width="1.0"/>
    <path d="M3.45 8.25 L3.65 8.9 Q3.7 9.65 3.2 10.2 2.8 10.8 2.05 10.9 1.3 10.95 0.7 10.45 L0.15 9.7 0.1 9.25 Q0.0 8.5 0.45 7.9 0.95 7.35 1.7 7.3 2.45 7.2 2.95 7.65 L3.45 8.25 0.15 9.7" fill="none" stroke="#2a2d32" stroke-linecap="round" stroke-linejoin="round" stroke-width="1.0"/>
  </g>
</svg>
