<?xml version="1.0" encoding="UTF-8" standalone="no"?>
<svg xmlns:ffdec="https://www.free-decompiler.com/flash" xmlns:xlink="http://www.w3.org/1999/xlink" ffdec:objectType="shape" height="19.65px" width="13.85px" xmlns="http://www.w3.org/2000/svg">
  <g transform="matrix(1.0, 0.0, 0.0, 1.0, 6.45, 5.45)">
    <path d="M2.45 -3.25 L2.45 -3.3 3.65 -3.85 4.45 -2.6 Q5.4 -1.15 5.65 -0.1 L5.3 1.05 6.05 1.65 6.55 4.15 5.85 5.0 6.55 5.55 6.8 7.45 Q7.05 9.85 6.55 12.3 L5.65 12.65 5.45 12.5 5.0 12.15 4.7 11.95 2.6 10.35 1.6 5.75 0.8 2.1 0.4 0.25 2.45 -3.25 M5.3 1.05 L0.8 2.1 5.3 1.05 M1.6 5.75 L5.85 5.0 1.6 5.75" fill="#e1e1e1" fill-rule="evenodd" stroke="none"/>
    <path d="M3.3 13.05 L3.6 13.3 2.7 13.65 Q1.7 13.9 1.15 13.3 L1.95 11.9 3.3 13.05 M-1.9 11.9 L-3.0 11.9 -4.5 7.95 Q-6.0 3.2 -5.95 -0.5 -5.75 -1.15 -4.95 -1.7 L-4.9 -1.7 -4.55 -1.9 -2.25 -2.55 -0.05 -2.7 -1.65 0.25 0.4 10.35 -0.15 11.9 -1.9 11.9" fill="#bfbfbf" fill-rule="evenodd" stroke="none"/>
    <path d="M5.0 12.15 L3.3 13.05 1.95 11.9 1.15 13.3 Q-0.6 13.2 -1.9 11.9 L-0.15 11.9 0.4 10.35 -1.65 0.25 -0.05 -2.7 -2.25 -2.55 -4.55 -1.9 Q-3.65 -4.35 -0.3 -4.0 1.45 -3.8 2.45 -3.25 L0.4 0.25 0.8 2.1 1.6 5.75 2.6 10.35 4.7 11.95 5.0 12.15" fill="#737373" fill-rule="evenodd" stroke="none"/>
    <path d="M2.45 -3.25 L2.45 -3.3 M3.3 13.05 L3.6 13.3 2.7 13.65 Q1.7 13.9 1.15 13.3 L1.95 11.9 3.3 13.05 M-1.9 11.9 L-3.0 11.9 -4.5 7.95 Q-6.0 3.2 -5.95 -0.5 -5.75 -1.15 -4.95 -1.7 L-4.9 -1.7 -4.55 -1.9 -2.25 -2.55 -0.05 -2.7 -1.65 0.25 0.4 10.35 -0.15 11.9 -1.9 11.9 M2.45 -3.25 L0.4 0.25 0.8 2.1 5.3 1.05 M2.6 10.35 L1.6 5.75 0.8 2.1 M5.85 5.0 L1.6 5.75" fill="none" stroke="#5b5a5a" stroke-linecap="round" stroke-linejoin="round" stroke-width="1.0"/>
    <path d="M2.45 -3.3 L3.65 -3.85 4.45 -2.6 Q5.4 -1.15 5.65 -0.1 L5.3 1.05 6.05 1.65 6.55 4.15 5.85 5.0 6.55 5.55 6.8 7.45 Q7.05 9.85 6.55 12.3 L5.65 12.65 5.45 12.5 M4.7 11.95 L2.6 10.35" fill="none" stroke="#424242" stroke-linecap="round" stroke-linejoin="round" stroke-width="1.0"/>
    <path d="M5.0 12.15 L3.3 13.05 M1.15 13.3 Q-0.6 13.2 -1.9 11.9 M-4.55 -1.9 Q-3.65 -4.35 -0.3 -4.0 1.45 -3.8 2.45 -3.25" fill="none" stroke="#353535" stroke-linecap="butt" stroke-linejoin="miter-clip" stroke-miterlimit="10.0" stroke-width="1.0"/>
  </g>
</svg>
