<?xml version="1.0" encoding="UTF-8" standalone="no"?>
<svg xmlns:ffdec="https://www.free-decompiler.com/flash" xmlns:xlink="http://www.w3.org/1999/xlink" ffdec:objectType="shape" height="24.0px" width="13.25px" xmlns="http://www.w3.org/2000/svg">
  <g transform="matrix(1.0, 0.0, 0.0, 1.0, 0.5, 0.5)">
    <path d="M4.95 20.75 L4.05 19.1 3.55 14.15 Q4.0 17.65 4.95 20.75" fill="#d27e02" fill-rule="evenodd" stroke="none"/>
    <path d="M3.55 14.15 L3.45 13.55 3.2 11.55 2.3 6.7 Q1.9 4.9 3.15 3.1 6.4 1.6 9.05 3.1 L10.1 9.8 10.3 16.7 Q12.4 21.0 11.0 22.35 L10.2 22.8 5.85 22.5 4.95 20.75 Q4.0 17.65 3.55 14.15" fill="#e38902" fill-rule="evenodd" stroke="none"/>
    <path d="M3.55 14.15 L3.45 13.55 3.2 11.55 2.3 6.7 Q1.9 4.9 3.15 3.1 6.4 1.6 9.05 3.1 L10.1 9.8 10.3 16.7 Q12.4 21.0 11.0 22.35 L10.2 22.8 5.85 22.5 4.95 20.75 Q4.0 17.65 3.55 14.15 Z" fill="none" stroke="#653d01" stroke-linecap="round" stroke-linejoin="round" stroke-width="1.0"/>
    <path d="M9.5 7.95 L9.55 7.9 10.95 8.8 11.0 9.5 8.0 11.7 8.1 12.5 1.9 12.85 0.9 10.75 1.55 10.15 2.05 10.65 Q4.1 12.45 7.15 10.35 L7.45 10.1 7.45 10.05 7.45 10.1 7.15 10.35 7.45 10.05 9.0 8.55 9.05 8.5 9.15 8.4 9.05 8.5 9.25 8.25 9.15 8.4 9.5 7.95 M8.6 16.25 L3.75 16.75 Q3.2 15.8 2.9 14.45 L8.3 13.9 8.6 16.25" fill="#272727" fill-rule="evenodd" stroke="none"/>
    <path d="M11.0 9.5 L11.0 9.55 12.25 10.2 12.25 16.35 8.6 16.9 8.6 16.25 8.3 13.9 8.1 12.5 8.0 11.7 11.0 9.5 M1.55 10.15 L1.4 10.0 0.5 8.7 0.0 7.15 0.0 1.3 1.45 0.85 2.05 10.65 1.55 10.15 M7.0 0.0 L9.9 0.0 10.95 6.1 9.5 7.95 9.25 8.25 9.05 8.5 9.0 8.55 7.45 10.05 7.0 0.0" fill="#271818" fill-rule="evenodd" stroke="none"/>
    <path d="M1.45 0.85 L4.15 0.0 7.0 0.0 7.45 10.05 7.15 10.35 Q4.1 12.45 2.05 10.65 L1.45 0.85" fill="#2a2929" fill-rule="evenodd" stroke="none"/>
    <path d="M9.5 7.95 L9.55 7.9 10.95 8.8 11.0 9.5 11.0 9.55 12.25 10.2 12.25 16.35 8.6 16.9 8.6 16.25 3.75 16.75 Q3.2 15.8 2.9 14.45 L8.3 13.9 8.1 12.5 1.9 12.85 0.9 10.75 1.55 10.15 1.4 10.0 0.5 8.7 0.0 7.15 0.0 1.3 1.45 0.85 4.15 0.0 7.0 0.0 9.9 0.0 10.95 6.1 9.5 7.95 9.15 8.4 9.05 8.5 9.0 8.55 7.45 10.05 7.45 10.1 7.15 10.35 Q4.1 12.45 2.05 10.65 L1.55 10.15 M9.15 8.4 L9.25 8.25 9.05 8.5 M9.25 8.25 L9.5 7.95 M7.45 10.05 L7.15 10.35 M8.3 13.9 L8.6 16.25 M11.0 9.5 L8.0 11.7 8.1 12.5" fill="none" stroke="#0e0e0e" stroke-linecap="round" stroke-linejoin="round" stroke-width="1.0"/>
  </g>
</svg>
