<?xml version="1.0" encoding="UTF-8" standalone="no"?>
<svg xmlns:xlink="http://www.w3.org/1999/xlink" height="24.9px" width="12.05px" xmlns="http://www.w3.org/2000/svg">
  <g transform="matrix(1.0, 0.0, 0.0, 1.0, 6.3, 3.95)">
    <path d="M-3.4 -0.6 Q-2.25 -0.35 -0.3 -1.15 L2.3 -2.0 3.4 -1.3 3.7 -0.3 3.7 1.1 2.6 7.25 Q1.65 11.9 1.4 14.7 1.3 15.9 -1.75 17.0 -4.8 18.1 -4.85 16.85 L-5.2 9.9 Q-5.4 5.25 -5.0 2.6 L-4.65 0.25 Q-4.3 -0.8 -3.4 -0.6" fill="#575757" fill-rule="evenodd" stroke="none"/>
    <path d="M-3.4 -0.6 Q-2.25 -0.35 -0.3 -1.15 L2.3 -2.0 3.4 -1.3 3.7 -0.3 3.7 1.1 2.6 7.25 Q1.65 11.9 1.4 14.7 1.3 15.9 -1.75 17.0 -4.8 18.1 -4.85 16.85 L-5.2 9.9 Q-5.4 5.25 -5.0 2.6 L-4.65 0.25 Q-4.3 -0.8 -3.4 -0.6 Z" fill="none" stroke="#2b2b2b" stroke-linecap="round" stroke-linejoin="round" stroke-width="1.05"/>
    <path d="M1.55 -0.25 Q1.55 1.05 0.55 2.85 L-0.45 4.45" fill="none" stroke="#434343" stroke-linecap="round" stroke-linejoin="round" stroke-width="1.05"/>
    <path d="M-5.3 1.75 L-5.1 0.9 Q-4.7 -0.05 -5.0 -0.4 -4.7 -0.8 -0.3 -1.8 L4.05 -2.35 Q3.75 -0.85 4.05 0.9 L-0.65 1.3 -5.3 1.75" fill="#3b3b3b" fill-rule="evenodd" stroke="none"/>
    <path d="M-5.3 1.75 L-0.65 1.3 4.05 0.9 Q3.75 -0.85 4.05 -2.35 L-0.3 -1.8 Q-4.7 -0.8 -5.0 -0.4 -4.7 -0.05 -5.1 0.9 L-5.3 1.75 Z" fill="none" stroke="#222222" stroke-linecap="round" stroke-linejoin="round" stroke-width="1.05"/>
    <path d="M-3.5 9.6 Q-3.35 8.5 -2.8 7.45 L-2.25 6.6" fill="none" stroke="#434343" stroke-linecap="round" stroke-linejoin="round" stroke-width="1.05"/>
    <path d="M-1.1 16.7 Q-1.9 15.6 -1.4 13.65 L-0.65 11.9" fill="none" stroke="#434343" stroke-linecap="round" stroke-linejoin="round" stroke-width="1.05"/>
    <path d="M-0.15 -0.4 L2.45 -0.7" fill="none" stroke="#222222" stroke-linecap="round" stroke-linejoin="round" stroke-width="1.05"/>
    <path d="M4.25 2.15 Q1.65 1.05 1.95 -0.85 2.2 -2.65 4.65 -3.45 5.3 -2.8 5.25 -0.85 5.15 1.25 4.25 2.15" fill="#3b3b3b" fill-rule="evenodd" stroke="none"/>
    <path d="M4.25 2.15 Q5.15 1.25 5.25 -0.85 5.3 -2.8 4.65 -3.45 2.2 -2.65 1.95 -0.85 1.65 1.05 4.25 2.15 Z" fill="none" stroke="#222222" stroke-linecap="round" stroke-linejoin="round" stroke-width="1.05"/>
    <path d="M1.25 18.75 Q-0.4 20.65 -2.1 20.3 -3.6 19.95 -5.2 17.75 L-5.2 16.4 Q-5.3 14.85 -5.8 13.75 L-3.15 14.2 1.95 14.5 Q1.45 15.65 1.25 18.75" fill="#5a5844" fill-rule="evenodd" stroke="none"/>
    <path d="M-5.2 17.75 L-5.2 16.4 Q-5.3 14.85 -5.8 13.75 L-3.15 14.2 1.95 14.5 Q1.45 15.65 1.25 18.55" fill="none" stroke="#332e23" stroke-linecap="round" stroke-linejoin="round" stroke-width="1.05"/>
    <path d="M0.75 19.3 L0.0 19.9 Q-0.95 20.5 -2.1 20.45 -3.35 20.4 -4.4 19.1 L-5.2 17.75" fill="none" stroke="#514f3d" stroke-linecap="round" stroke-linejoin="round" stroke-width="1.05"/>
    <path d="M0.85 19.05 Q0.35 18.15 0.55 16.7 L0.8 15.4" fill="none" stroke="#484737" stroke-linecap="round" stroke-linejoin="round" stroke-width="1.05"/>
  </g>
</svg>
