<?xml version="1.0" encoding="UTF-8" standalone="no"?>
<svg xmlns:ffdec="https://www.free-decompiler.com/flash" xmlns:xlink="http://www.w3.org/1999/xlink" ffdec:objectType="shape" height="24.55px" width="12.5px" xmlns="http://www.w3.org/2000/svg">
  <g transform="matrix(1.0, 0.0, 0.0, 1.0, 0.5, 0.5)">
    <path d="M1.35 20.25 L0.9 18.45 1.7 13.55 Q1.2 17.0 1.35 20.25" fill="#d27e02" fill-rule="evenodd" stroke="none"/>
    <path d="M1.7 13.55 L1.75 12.95 2.0 10.9 2.4 6.0 Q2.5 4.15 4.15 2.75 7.7 2.15 9.85 4.3 L9.15 11.0 7.55 17.7 Q8.45 22.45 6.75 23.4 L5.85 23.55 Q4.35 23.7 1.75 22.2 L1.35 20.25 Q1.2 17.0 1.7 13.55" fill="#333333" fill-rule="evenodd" stroke="none"/>
    <path d="M1.7 13.55 L1.75 12.95 2.0 10.9 2.4 6.0 Q2.5 4.15 4.15 2.75 7.7 2.15 9.85 4.3 L9.15 11.0 7.55 17.7 Q8.45 22.45 6.75 23.4 L5.85 23.55 Q4.35 23.7 1.75 22.2 L1.35 20.25 Q1.2 17.0 1.7 13.55 Z" fill="none" stroke="#1e1e1e" stroke-linecap="round" stroke-linejoin="round" stroke-width="1.0"/>
    <path d="M9.1 9.0 L10.2 10.25 10.1 10.95 6.6 12.3 6.5 13.1 Q3.3 12.8 0.4 11.8 L0.0 9.55 0.75 9.15 1.15 9.75 Q2.7 12.0 6.15 10.8 L6.5 10.55 6.5 10.6 6.15 10.8 6.5 10.6 6.5 10.55 8.55 9.4 9.05 9.05 9.1 9.0 M6.05 16.85 L1.2 16.05 Q0.9 15.0 0.95 13.65 L6.35 14.5 6.05 16.85" fill="#272727" fill-rule="evenodd" stroke="none"/>
    <path d="M3.1 0.1 L5.95 0.0 8.7 0.75 6.5 10.55 6.15 10.8 Q2.7 12.0 1.15 9.75 L3.1 0.1" fill="#2a2929" fill-rule="evenodd" stroke="none"/>
    <path d="M8.7 0.75 L11.5 1.5 10.9 7.65 9.1 9.0 9.05 9.05 8.55 9.4 6.5 10.55 8.7 0.75 M10.1 10.95 L10.1 11.0 11.1 11.95 9.5 17.9 5.85 17.45 6.05 16.85 6.35 14.5 6.5 13.1 6.6 12.3 10.1 10.95 M0.75 9.15 L0.65 8.95 0.15 7.45 0.05 5.85 1.55 0.2 3.1 0.1 1.15 9.75 0.75 9.15" fill="#350303" fill-rule="evenodd" stroke="none"/>
    <path d="M9.1 9.0 L10.2 10.25 10.1 10.95 10.1 11.0 M6.05 16.85 L1.2 16.05 Q0.9 15.0 0.95 13.65 L6.35 14.5 M6.5 13.1 Q3.3 12.8 0.4 11.8 L0.0 9.55 0.75 9.15 1.15 9.75 M6.5 10.55 L6.15 10.8 6.5 10.6 6.5 10.55" fill="none" stroke="#0e0e0e" stroke-linecap="round" stroke-linejoin="round" stroke-width="1.0"/>
    <path d="M8.7 0.75 L11.5 1.5 10.9 7.65 9.1 9.0 9.05 9.05 8.55 9.4 6.5 10.55 M10.1 11.0 L11.1 11.95 9.5 17.9 5.85 17.45 6.05 16.85 6.35 14.5 6.5 13.1 6.6 12.3 10.1 10.95 M0.75 9.15 L0.65 8.95 0.15 7.45 0.05 5.85 1.55 0.2 3.1 0.1 5.95 0.0 8.7 0.75 M1.15 9.75 Q2.7 12.0 6.15 10.8" fill="none" stroke="#190000" stroke-linecap="round" stroke-linejoin="round" stroke-width="1.0"/>
    <path d="M3.1 6.35 L3.15 6.4 3.3 6.55 3.3 6.45 3.35 6.35 3.15 6.25 3.1 6.35 M2.95 5.2 L3.15 5.2 3.3 5.25 3.3 5.7 3.2 5.9 3.15 5.75 2.95 5.75 2.95 5.65 2.9 5.6 2.85 5.45 2.75 5.3 2.8 5.2 2.95 5.2 M6.2 4.45 L6.35 4.55 6.35 4.65 6.35 4.75 6.35 4.8 6.2 4.95 6.1 5.05 6.0 5.2 5.9 5.1 5.85 5.1 5.9 4.95 5.95 4.85 6.1 4.75 6.1 4.65 6.2 4.45 M5.25 5.95 L5.45 5.7 5.5 5.55 5.55 5.35 5.15 5.8 5.25 5.95 5.15 6.15 5.15 6.2 4.85 6.45 4.8 6.45 4.8 6.65 5.05 6.6 5.05 6.7 4.9 6.8 4.75 7.05 4.7 7.15 4.55 7.5 4.4 7.55 4.25 7.8 4.1 8.0 4.2 7.45 4.6 6.85 4.6 6.5 4.8 6.25 4.8 6.1 4.8 5.9 Q4.65 5.85 4.85 5.8 L4.85 5.65 4.85 5.6 4.75 5.5 4.8 5.4 4.8 5.35 4.8 5.2 4.75 5.3 4.65 5.25 4.6 5.05 4.7 4.75 4.7 4.4 4.8 4.25 4.8 4.2 5.0 4.1 5.05 3.9 5.1 3.65 5.05 3.4 Q4.95 3.0 5.25 2.6 L5.4 2.6 5.45 2.55 5.55 2.5 5.55 2.35 5.45 2.35 5.65 1.95 5.65 1.9 5.4 1.9 5.35 1.8 5.25 1.95 5.25 2.35 5.2 2.5 5.15 2.7 5.05 2.95 4.8 3.45 4.85 3.65 4.9 3.9 4.85 4.05 4.7 4.25 4.65 4.3 4.6 4.65 4.45 5.05 4.35 5.15 Q4.1 5.2 4.0 5.45 L3.95 5.65 3.8 5.8 3.8 6.0 3.55 6.05 3.55 6.35 3.35 7.9 3.15 7.4 3.2 7.35 3.15 7.25 3.15 7.1 3.25 7.05 3.15 6.65 3.0 6.6 3.05 6.4 2.95 6.35 3.0 6.35 3.05 6.1 3.2 6.05 3.35 5.8 3.35 5.65 3.35 5.5 3.45 5.0 3.6 4.55 3.7 4.3 3.7 4.2 3.8 4.2 3.85 4.0 3.95 3.7 3.95 3.5 Q3.9 3.35 3.9 3.5 L3.8 3.5 3.65 3.3 3.7 3.2 3.55 3.3 3.3 3.2 3.15 3.15 3.0 3.0 3.0 2.9 3.05 2.8 3.1 2.75 3.3 2.55 3.6 2.2 3.85 2.15 4.0 1.95 4.25 1.8 4.4 1.85 4.9 1.6 5.05 1.55 5.1 1.6 5.25 1.7 5.35 1.55 5.45 1.6 5.65 1.6 5.8 1.65 5.85 1.75 6.15 1.7 6.4 1.85 6.5 1.9 6.75 2.0 6.8 2.25 6.8 2.7 7.05 2.8 7.0 2.9 7.1 3.05 7.1 3.1 6.95 3.25 6.9 3.25 6.75 3.25 6.65 3.3 6.45 3.3 6.4 3.3 6.3 3.4 6.35 3.25 6.2 3.4 6.25 3.4 6.15 3.6 6.0 3.7 5.95 3.7 5.95 3.8 5.85 3.9 5.75 4.0 5.65 4.1 5.65 4.3 5.65 4.4 5.6 4.7 5.55 4.95 5.6 5.3 5.8 5.15 5.9 5.15 5.95 5.35 5.9 5.4 5.75 5.6 5.65 5.7 5.65 5.8 5.5 5.85 5.4 6.05 5.35 6.05 5.25 6.15 5.2 6.15 5.25 5.95" fill="#350303" fill-rule="evenodd" stroke="none"/>
  </g>
</svg>
