<?xml version="1.0" encoding="UTF-8" standalone="no"?>
<svg xmlns:xlink="http://www.w3.org/1999/xlink" height="21.1px" width="17.5px" xmlns="http://www.w3.org/2000/svg">
  <g transform="matrix(1.0, 0.0, 0.0, 1.0, 7.8, 3.1)">
    <path d="M-2.4 11.55 L-3.7 10.75 -2.8 8.9 -3.95 7.0 -7.3 5.7 -6.85 4.2 -4.2 4.0 -3.25 1.0 -5.45 -0.75 -5.3 -1.4 0.1 -2.4 -1.45 3.35 2.45 13.7 0.55 14.65 -0.6 12.75 -2.4 11.55" fill="#353a40" fill-rule="evenodd" stroke="none"/>
    <path d="M-5.3 -1.4 L-2.05 -2.15 4.15 -2.5 Q5.15 -2.2 6.25 -1.3 8.4 0.5 8.75 3.5 L9.2 9.55 7.4 10.6 2.45 13.7 -1.45 3.35 0.1 -2.4 -5.3 -1.4 M6.3 6.4 L5.8 2.5 6.3 6.4 M4.3 4.55 L4.05 2.7 4.3 4.55" fill="#3f474c" fill-rule="evenodd" stroke="none"/>
    <path d="M7.4 10.6 L7.7 12.35 Q7.55 16.35 3.8 17.3 -0.1 18.1 -1.15 15.4 L-2.4 11.55 -0.6 12.75 0.55 14.65 2.45 13.7 7.4 10.6" fill="url(#gradient0)" fill-rule="evenodd" stroke="none"/>
    <path d="M-6.85 4.2 L-5.45 -0.75 -3.25 1.0 -4.2 4.0 -6.85 4.2" fill="url(#gradient1)" fill-rule="evenodd" stroke="none"/>
    <path d="M-5.3 -1.4 L-2.05 -2.15 4.15 -2.5 Q5.15 -2.2 6.25 -1.3 8.4 0.5 8.75 3.5 L9.2 9.55 7.4 10.6 2.45 13.7 0.55 14.65 -0.6 12.75 -2.4 11.55 -3.7 10.75 -2.8 8.9 -3.95 7.0 -7.3 5.7 -6.85 4.2 -5.45 -0.75 -5.3 -1.4" fill="none" stroke="#22262a" stroke-linecap="round" stroke-linejoin="round" stroke-width="1.0"/>
    <path d="M7.4 10.6 L7.7 12.35 Q7.55 16.35 3.8 17.3 -0.1 18.1 -1.15 15.4 L-2.4 11.55" fill="none" stroke="#23272c" stroke-linecap="round" stroke-linejoin="round" stroke-width="1.0"/>
    <path d="M-6.85 4.2 L-4.2 4.0 -3.25 1.0 -5.45 -0.75 M4.05 2.7 L4.3 4.55 M5.8 2.5 L6.3 6.4" fill="none" stroke="#292e33" stroke-linecap="round" stroke-linejoin="round" stroke-width="1.0"/>
  </g>
  <defs>
    <linearGradient gradientTransform="matrix(0.0202, 0.0016, -0.0011, 0.0141, 102.85, 42.95)" gradientUnits="userSpaceOnUse" id="gradient0" spreadMethod="pad" x1="-819.2" x2="819.2">
      <stop offset="0.0" stop-color="#242b30"/>
      <stop offset="1.0" stop-color="#000000"/>
    </linearGradient>
    <linearGradient gradientTransform="matrix(0.0056, 4.0E-4, -4.0E-4, 0.0056, 0.15, 4.8)" gradientUnits="userSpaceOnUse" id="gradient1" spreadMethod="pad" x1="-819.2" x2="819.2">
      <stop offset="0.0" stop-color="#353a40"/>
      <stop offset="1.0" stop-color="#000000"/>
    </linearGradient>
  </defs>
</svg>
