<?xml version="1.0" encoding="UTF-8" standalone="no"?>
<svg xmlns:ffdec="https://www.free-decompiler.com/flash" xmlns:xlink="http://www.w3.org/1999/xlink" ffdec:objectType="shape" height="22.45px" width="14.3px" xmlns="http://www.w3.org/2000/svg">
  <g transform="matrix(1.0, 0.0, 0.0, 1.0, 5.0, 2.95)">
    <path d="M3.1 3.15 L4.95 8.55 2.0 9.25 -0.05 4.05 1.75 2.55 3.1 3.15" fill="#0a7be6" fill-rule="evenodd" stroke="none"/>
    <path d="M3.1 3.15 L1.75 2.55 -0.05 4.05 2.0 9.25 4.95 8.55 3.1 3.15 M0.1 12.7 L0.0 12.75 Q-0.65 12.75 -2.75 9.7 -4.9 6.65 -4.4 1.3 L-2.65 0.35 Q-0.95 -4.25 1.45 -1.25 L2.0 0.5 4.2 2.1 6.9 9.45 0.1 12.7 M-4.4 1.3 L2.0 0.5 -4.4 1.3" fill="#cccccc" fill-rule="evenodd" stroke="none"/>
    <path d="M7.25 13.0 L8.6 16.0 Q8.95 16.75 8.7 17.7 8.45 18.55 7.4 18.8 L5.85 19.0 4.75 18.7 Q4.25 18.4 3.15 16.45 2.05 14.5 2.1 12.55 3.4 10.9 5.05 11.8 7.2 14.0 7.25 13.0" fill="#999999" fill-rule="evenodd" stroke="none"/>
    <path d="M6.9 9.45 L5.8 11.3 6.0 11.2 Q6.15 11.1 6.45 11.5 L7.25 13.0 Q7.2 14.0 5.05 11.8 3.4 10.9 2.1 12.55 L0.1 12.7 6.9 9.45 M5.05 11.8 L5.3 11.65 5.8 11.3 5.3 11.65 5.05 11.8" fill="#666666" fill-rule="evenodd" stroke="none"/>
    <path d="M3.1 3.15 L4.95 8.55 2.0 9.25 -0.05 4.05 1.75 2.55 3.1 3.15" fill="none" stroke="#1b2654" stroke-linecap="round" stroke-linejoin="round" stroke-width="1.0"/>
    <path d="M0.1 12.7 L0.0 12.75 Q-0.65 12.75 -2.75 9.7 -4.9 6.65 -4.4 1.3 L-2.65 0.35 Q-0.95 -4.25 1.45 -1.25 L2.0 0.5 4.2 2.1 6.9 9.45 5.8 11.3 6.0 11.2 Q6.15 11.1 6.45 11.5 L7.25 13.0 8.6 16.0 Q8.95 16.75 8.7 17.7 8.45 18.55 7.4 18.8 L5.85 19.0 4.75 18.7 Q4.25 18.4 3.15 16.45 2.05 14.5 2.1 12.55 L0.1 12.7 6.9 9.45 M5.8 11.3 L5.3 11.65 5.05 11.8 Q7.2 14.0 7.25 13.0 M5.05 11.8 Q3.4 10.9 2.1 12.55 M2.0 0.5 L-4.4 1.3" fill="none" stroke="#333333" stroke-linecap="round" stroke-linejoin="round" stroke-width="1.0"/>
  </g>
</svg>
